<svg xmlns="http://www.w3.org/2000/svg" id="Layer_1" data-name="Layer 1" viewBox="0 0 94 105.99"><g id="container"><defs><clipPath id="clip-path"><path d="M90.79 56.99H3.21L0 64.49l3.21 7.5h87.58l3.21-7.5-3.21-7.5z" class="cls-1"/></clipPath><clipPath id="clip-path-2"><path d="M0-1.01h94v122H0z" style="fill:none"/></clipPath><clipPath id="clip-path-3"><path d="m47 21 10-5.6V0H37v15.4Zm2-13.14a2.15 2.15 0 0 1 .3-1.18 2.61 2.61 0 0 1 1.06-.84l.24-.1c.41-.2.51-.37.51-.57s-.22-.41-.57-.41a1 1 0 0 0-1 .62L49 4.85a1.49 1.49 0 0 1 .6-.62 1.72 1.72 0 0 1 .89-.23 1.77 1.77 0 0 1 1.06.31 1 1 0 0 1 .45.86c0 .58-.34.93-1 1.25l-.37.17c-.38.19-.57.35-.63.64h2V8h-3ZM51.5 9l1.5 2.5-1.5 2.5-1.5-2.51h-3L48.5 9Zm-4.21-5a6.36 6.36 0 0 1 1.24.12l-1.24 2.44A3.52 3.52 0 0 0 43.7 10a3.52 3.52 0 0 0 3.59 3.43 3.68 3.68 0 0 0 2.35-.83L51 14.84A6.5 6.5 0 0 1 47.29 16 6.16 6.16 0 0 1 41 10a6.16 6.16 0 0 1 6.29-6Z" class="cls-1"/></clipPath><style>.cls-1{fill:none;clip-rule:evenodd}.cls-7{clip-path:url(#clip-path-2)}</style></defs><path d="M47.82 103 6.63 82.45V13.88A17.67 17.67 0 0 0 21.29 2h51.34A17.69 17.69 0 0 0 87.5 13.92v68.53Z" style="fill:#fff"/><path d="M7 82.45 47.74 103 87 82.43V13.92a19.46 19.46 0 0 1-9-3.69Z" style="fill:#f7f8f7"/><path d="M89 12h-.13A15.51 15.51 0 0 1 73.79 0H20A15.53 15.53 0 0 1 5 12v72.22l1.42.72 40.14 20.44 1.2.61 1.19-.63 38.66-20.44 1.39-.73V14Zm-41.26 91L7 82.45V13.88A17.5 17.5 0 0 0 21.49 2h50.79A17.52 17.52 0 0 0 87 13.92v68.53Z" style="fill:#e9e9ea"/><g class="cls-7" style="clip-path:url(#clip-path)"><path id="banner" fill="#9132a2" d="M-5 51.99H99v25H-5z" class="cls-8"/></g><g class="cls-7" style="clip-path:url(#clip-path-3)"><path id="logo" fill="#9132a2" d="M32-5.01h30v31H32z" class="cls-10"/></g><path fill="#252530" d="M4.2-8.41q.79 0 1.39.32.6.33.93.92.33.59.33 1.36 0 .76-.34 1.33-.34.58-.96.9-.62.32-1.42.32H2.42q-.06 0-.06.06v3.06q0 .06-.04.1-.04.04-.1.04H.82Q.76 0 .71-.04.67-.08.67-.14v-8.13q0-.06.04-.1.05-.04.11-.04H4.2Zm-.25 3.79q.55 0 .89-.32.33-.32.33-.83 0-.53-.33-.85-.34-.33-.89-.33H2.42q-.06 0-.06.06v2.21q0 .06.06.06h1.53Zm8.95.9q.07.46.05 1.02-.01.14-.16.14H9.08q-.07 0-.04.06.03.24.13.48.31.68 1.27.68.77-.02 1.21-.63.05-.07.11-.07.04 0 .08.05l.87.85q.06.06.06.11 0 .02-.05.09-.4.5-1.02.77T10.33.1Q9.3.1 8.59-.37q-.72-.47-1.03-1.31-.25-.6-.25-1.57 0-.66.18-1.17.27-.85.96-1.35.69-.51 1.64-.51 1.2 0 1.93.7.72.7.88 1.86Zm-2.8-1.09q-.75 0-.99.71-.05.15-.09.38 0 .06.06.06h2.08q.07 0 .05-.06-.06-.35-.06-.34-.11-.36-.38-.55-.27-.2-.67-.2Zm6.96-1.44q.44 0 .69.17.09.04.07.18l-.25 1.36q-.01.15-.17.09-.18-.06-.42-.06-.1 0-.26.02-.44.04-.74.32t-.3.75v3.28q0 .06-.04.1-.04.04-.1.04h-1.4q-.06 0-.11-.04-.04-.04-.04-.1v-5.88q0-.06.04-.11.05-.04.11-.04h1.4q.06 0 .1.04.04.05.04.11v.45q0 .04.03.05.02.01.03-.01.5-.72 1.32-.72Zm5.12.07q.06 0 .1.04.04.04.04.1v1.14q0 .06-.04.11-.04.04-.1.04h-1.17q-.06 0-.06.06v4.55q0 .06-.04.1-.04.04-.1.04H19.4q-.06 0-.1-.04-.04-.04-.04-.1v-4.55q0-.06-.06-.06h-.71q-.06 0-.1-.04-.04-.05-.04-.11v-1.14q0-.06.04-.1.04-.04.1-.04h.71q.06 0 .06-.06v-.26q0-.75.23-1.16.23-.42.74-.59.51-.17 1.41-.15h.45q.06 0 .1.04.05.04.05.1v.98q0 .06-.05.1-.04.04-.1.04h-.39q-.42.01-.59.17-.16.17-.16.6v.13q0 .06.06.06h1.17ZM25.66.1q-1.01 0-1.73-.53t-.99-1.44q-.16-.57-.16-1.23 0-.7.16-1.27.28-.89 1-1.39.72-.5 1.73-.5.98 0 1.68.49.69.5.98 1.39.19.6.19 1.26 0 .65-.16 1.21-.27.94-.98 1.47-.72.54-1.72.54Zm0-1.46q.39 0 .67-.24.27-.24.39-.66.1-.38.1-.84 0-.5-.1-.85-.13-.41-.4-.63-.28-.23-.68-.23t-.67.23q-.27.22-.39.63-.1.29-.1.85 0 .54.08.84.12.42.41.66.28.24.69.24Zm7.03-4.89q.43 0 .68.17.1.04.07.18l-.25 1.36q-.01.15-.17.09-.18-.06-.42-.06-.09 0-.26.02-.43.04-.73.32t-.3.75v3.28q0 .06-.04.1-.05.04-.11.04h-1.4q-.06 0-.1-.04-.04-.04-.04-.1v-5.88q0-.06.04-.11.04-.04.1-.04h1.4q.06 0 .11.04.04.05.04.11v.45q0 .04.02.05.03.01.04-.01.49-.72 1.32-.72Zm8.36-.01q.94 0 1.47.56.52.56.52 1.58v3.98q0 .06-.04.1-.04.04-.1.04h-1.4q-.06 0-.11-.04-.04-.04-.04-.1v-3.6q0-.5-.25-.78-.25-.29-.67-.29-.42 0-.69.29-.26.28-.26.76v3.62q0 .06-.04.1-.04.04-.1.04h-1.4q-.06 0-.1-.04-.04-.04-.04-.1v-3.6q0-.48-.26-.78-.27-.29-.69-.29-.38 0-.64.23-.26.22-.31.63v3.81q0 .06-.04.1-.04.04-.1.04h-1.4q-.06 0-.11-.04-.04-.04-.04-.1v-5.88q0-.06.04-.11.05-.04.11-.04h1.4q.06 0 .1.04.04.05.04.11v.46q0 .04.03.05.02.01.05-.02.49-.73 1.52-.73.6 0 1.05.25.45.25.69.72.04.07.08 0 .27-.49.72-.73.45-.24 1.01-.24Zm8.61 2.54q.07.46.04 1.02-.01.14-.15.14h-3.71q-.07 0-.05.06.04.24.13.48.32.68 1.28.68.76-.02 1.21-.63.05-.07.11-.07.03 0 .08.05l.86.85q.06.06.06.11 0 .02-.04.09-.4.5-1.02.77-.63.27-1.37.27-1.03 0-1.75-.47-.71-.47-1.02-1.31-.26-.6-.26-1.57 0-.66.18-1.17.28-.85.97-1.35.69-.51 1.64-.51 1.2 0 1.92.7.73.7.89 1.86Zm-2.8-1.09q-.76 0-1 .71-.04.15-.08.38 0 .06.06.06h2.08q.07 0 .04-.06-.06-.35-.06-.34-.1-.36-.37-.55-.27-.2-.67-.2Zm6.96-1.44q.43 0 .68.17.1.04.08.18l-.26 1.36q-.01.15-.16.09-.18-.06-.42-.06-.1 0-.27.02-.43.04-.73.32t-.3.75v3.28q0 .06-.04.1-.04.04-.1.04h-1.41q-.06 0-.1-.04-.04-.04-.04-.1v-5.88q0-.06.04-.11.04-.04.1-.04h1.41q.06 0 .1.04.04.05.04.11v.45q0 .04.02.05.03.01.04-.01.49-.72 1.32-.72Z" transform="translate(19.04 53.5)"/><path fill="#252530" d="M5.2-8.26q0-.06.04-.1.04-.04.1-.04h1.4q.06 0 .11.04.04.04.04.1v8.12q0 .06-.04.1Q6.8 0 6.74 0h-1.4q-.06 0-.1-.04-.04-.04-.04-.1v-3.32q0-.06-.06-.06H2.48q-.06 0-.06.06v3.32q0 .06-.04.1-.04.04-.1.04H.88Q.82 0 .77-.04.73-.08.73-.14v-8.12q0-.06.04-.1.05-.04.11-.04h1.4q.06 0 .1.04.04.04.04.1v3.23q0 .06.06.06h2.66q.06 0 .06-.06v-3.23Zm3.87 1.4q-.41 0-.68-.27-.27-.27-.27-.68 0-.42.27-.69.26-.26.68-.26.42 0 .69.26.26.27.26.69 0 .41-.27.68-.27.27-.68.27ZM8.35 0q-.06 0-.1-.04-.04-.04-.04-.1v-5.9q0-.06.04-.1.04-.04.1-.04h1.41q.06 0 .1.04.04.04.04.1v5.9q0 .06-.04.1-.04.04-.1.04H8.35Zm6.64-6.02q0-.06.04-.11.04-.04.1-.04h1.41q.06 0 .1.04.04.05.04.11v5.47q0 1.57-.91 2.24-.9.67-2.33.67-.42 0-.94-.06-.12-.01-.12-.15l.05-1.24q0-.15.17-.13.43.07.79.07.77 0 1.18-.33.42-.34.42-1.08 0-.04-.03-.05-.02 0-.04.02-.46.49-1.34.49-.78 0-1.43-.37-.65-.38-.93-1.22-.18-.55-.18-1.43 0-.94.22-1.52.25-.74.85-1.18.6-.44 1.39-.44.92 0 1.42.55.02.02.04.02.03-.01.03-.05v-.28Zm-.1 3.87q.1-.36.1-.98 0-.37-.03-.58-.02-.2-.08-.38-.11-.33-.36-.52-.25-.2-.62-.2-.36 0-.62.2-.25.19-.37.52-.17.36-.17.97 0 .67.15.96.11.32.38.52t.64.2q.38 0 .63-.2.26-.2.35-.51Zm6.22-4.11q.96 0 1.55.58.58.59.58 1.6v3.94q0 .06-.04.1-.04.04-.1.04h-1.4q-.06 0-.11-.04-.04-.04-.04-.1v-3.59q0-.48-.27-.78-.27-.3-.71-.3-.45 0-.72.3-.27.3-.27.78v3.59q0 .06-.04.1-.04.04-.1.04h-1.4q-.06 0-.11-.04-.04-.04-.04-.1v-8.12q0-.06.04-.1.05-.04.11-.04h1.4q.06 0 .1.04.04.04.04.1v2.66q0 .03.03.04.02.02.03-.01.5-.69 1.47-.69Z" transform="translate(34.65 41.5)"/><path fill="#252530" d="M2.69.07q-.7 0-1.22-.22Q.95-.38.66-.78q-.28-.41-.28-.96v-.22q0-.05.03-.08t.08-.03h.8q.04 0 .07.03.04.03.04.08v.17q0 .41.36.69.37.27 1.01.27.55 0 .83-.23.28-.24.28-.61 0-.25-.15-.42-.16-.18-.44-.32-.28-.15-.85-.36-.64-.24-1.04-.44-.39-.21-.66-.57-.26-.35-.26-.88 0-.79.57-1.25.58-.46 1.54-.46.68 0 1.19.23.52.24.81.65.29.42.29.97v.15q0 .05-.03.08t-.08.03h-.81q-.04 0-.08-.03-.03-.03-.03-.08v-.09q0-.43-.34-.72-.35-.29-.96-.29-.5 0-.77.2-.28.21-.28.59 0 .27.15.44.14.17.43.31.29.14.89.36.64.24 1.02.44t.66.55q.27.36.27.89 0 .81-.6 1.28-.59.48-1.63.48Zm8.11-4.74q.69 0 1.08.42.4.42.4 1.16v2.98q0 .05-.04.08-.03.03-.07.03h-.82q-.05 0-.08-.03t-.03-.08v-2.76q0-.42-.22-.66-.22-.24-.59-.24t-.6.24q-.24.24-.24.65v2.77q0 .05-.03.08T9.49 0h-.82q-.05 0-.08-.03t-.03-.08v-2.76q0-.42-.23-.66-.22-.24-.59-.24-.34 0-.56.2-.22.19-.26.54v2.92q0 .05-.03.08T6.81 0h-.82q-.05 0-.08-.03t-.03-.08v-4.38q0-.05.03-.08t.08-.03h.82q.05 0 .08.03t.03.08v.3q0 .02.02.03.02.01.04-.02.19-.25.49-.37.29-.12.65-.12.44 0 .77.18.34.18.52.52.02.04.06 0 .2-.36.55-.53.35-.17.78-.17Zm4.29 0q.57 0 1 .2.43.19.67.54.23.35.23.79v3.03q0 .05-.03.08t-.08.03h-.82q-.05 0-.08-.03t-.03-.08V-.4q0-.02-.02-.03-.02 0-.04.02-.44.48-1.27.48-.68 0-1.12-.34-.43-.34-.43-1.02 0-.7.49-1.09.49-.39 1.38-.39h.96q.05 0 .05-.05v-.21q0-.35-.21-.55-.21-.19-.62-.19-.34 0-.55.12-.21.12-.27.34-.03.11-.12.09l-.88-.11q-.04-.01-.07-.03-.04-.02-.03-.06.08-.55.59-.9.52-.35 1.3-.35Zm-.21 3.91q.44 0 .75-.23.32-.23.32-.59v-.43q0-.04-.05-.04h-.75q-.48 0-.75.18-.28.18-.28.51 0 .29.21.45.21.15.55.15Zm3.26.76q-.04 0-.07-.03-.03-.03-.03-.08v-6.08q0-.05.03-.08t.07-.03h.83q.05 0 .08.03t.03.08v6.08q0 .05-.03.08t-.08.03h-.83Zm2.16 0q-.05 0-.08-.03t-.03-.08v-6.08q0-.05.03-.08t.08-.03h.82q.05 0 .08.03t.03.08v6.08q0 .05-.03.08t-.08.03h-.82Zm7.46-3.29q-.06.03 0 .06.91.43.91 1.48 0 .86-.57 1.3-.57.45-1.49.45h-2.26q-.05 0-.08-.03t-.03-.08v-6.08q0-.05.03-.08t.08-.03h2.19q.98 0 1.51.42.53.43.53 1.28 0 .95-.82 1.31ZM25.33-5.4q-.05 0-.05.04v1.67q0 .04.05.04h1.21q.48 0 .75-.22.28-.23.28-.64 0-.41-.28-.65-.27-.24-.75-.24h-1.21Zm1.28 4.49q.47 0 .75-.25.27-.25.27-.69 0-.44-.28-.68-.28-.25-.75-.25h-1.27q-.05 0-.05.04v1.79q0 .04.05.04h1.28Zm5.76-3.58q0-.05.03-.08.04-.03.08-.03h.82q.05 0 .08.03t.03.08v4.38q0 .05-.03.08T33.3 0h-.82q-.04 0-.08-.03-.03-.03-.03-.08V-.4q0-.02-.01-.03-.02-.01-.04.02-.37.47-1.11.47-.68 0-1.15-.39-.46-.4-.46-1.13v-3.03q0-.05.03-.08t.08-.03h.83q.04 0 .07.03.04.03.04.08v2.73q0 .43.22.68.22.25.61.25.41 0 .65-.25.24-.25.24-.68v-2.73ZM36.23.05q-.56 0-.99-.16-.43-.17-.66-.46-.24-.29-.24-.65v-.09q0-.04.04-.07.03-.03.07-.03h.79q.05 0 .08.03t.03.07v.02q0 .23.25.39.25.17.63.17.36 0 .58-.15.23-.15.23-.37 0-.21-.19-.31-.18-.11-.6-.22l-.34-.11q-.46-.14-.77-.29-.32-.15-.53-.42-.22-.26-.22-.68 0-.63.49-1 .5-.37 1.31-.37.55 0 .96.17.42.18.64.49.23.31.23.7 0 .05-.04.08-.03.03-.07.03h-.77q-.04 0-.07-.03-.03-.03-.03-.08 0-.23-.23-.39-.23-.15-.63-.15-.35 0-.57.13-.22.13-.22.36 0 .22.21.33.21.11.71.25l.19.05q.48.14.81.29.32.15.54.42.23.26.23.69 0 .63-.5 1-.51.36-1.35.36Zm3.33-5.28q-.28 0-.46-.18t-.18-.46q0-.28.18-.46t.46-.18q.27 0 .45.18t.18.46q0 .28-.18.46t-.45.18ZM39.12 0q-.04 0-.07-.03-.03-.03-.03-.08V-4.5q0-.05.03-.08t.07-.03h.83q.05 0 .08.03t.03.08v4.39q0 .05-.03.08t-.08.03h-.83Zm4.34-4.67q.73 0 1.17.43.43.43.43 1.18v2.95q0 .05-.03.08t-.07.03h-.83q-.05 0-.08-.03t-.03-.08v-2.73q0-.42-.23-.67-.24-.26-.63-.26-.38 0-.62.25t-.24.67v2.74q0 .05-.03.08t-.08.03h-.83q-.04 0-.07-.03-.03-.03-.03-.08v-4.38q0-.05.03-.08t.07-.03h.83q.05 0 .08.03t.03.08v.29q0 .02.02.03.02.01.03-.02.36-.48 1.11-.48ZM50-2.82q.03.23.03.51l-.01.28q0 .1-.11.1H47.1q-.05 0-.05.05.03.3.08.4.22.65 1.06.66.61 0 .97-.5.03-.06.09-.06.03 0 .06.03l.56.46q.08.06.03.14-.28.4-.75.61-.46.22-1.03.22-.7 0-1.19-.31-.49-.32-.71-.89-.21-.48-.21-1.35 0-.52.11-.84.18-.63.68-1 .5-.36 1.2-.36 1.77 0 2 1.85Zm-2-.95q-.34 0-.56.17-.22.16-.31.46-.05.15-.07.39-.02.05.04.05h1.82q.05 0 .05-.05-.02-.22-.05-.34-.09-.32-.32-.5-.24-.18-.6-.18ZM52.62.05q-.56 0-.99-.16-.43-.17-.66-.46-.24-.29-.24-.65v-.09q0-.04.03-.07.04-.03.08-.03h.79q.05 0 .08.03t.03.07v.02q0 .23.25.39.25.17.62.17.36 0 .59-.15.22-.15.22-.37 0-.21-.18-.31-.18-.11-.6-.22l-.34-.11q-.46-.14-.77-.29-.32-.15-.54-.42-.21-.26-.21-.68 0-.63.49-1 .5-.37 1.31-.37.55 0 .96.17.42.18.64.49.23.31.23.7 0 .05-.04.08-.03.03-.07.03h-.77q-.04 0-.07-.03-.04-.03-.04-.08 0-.23-.23-.39-.22-.15-.62-.15-.35 0-.57.13-.22.13-.22.36 0 .22.21.33.21.11.71.25l.19.05q.48.14.8.29.33.15.55.42.23.26.23.69 0 .63-.51 1-.5.36-1.34.36Zm4.35 0q-.57 0-.99-.16-.43-.17-.67-.46-.23-.29-.23-.65v-.09q0-.04.03-.07.03-.03.08-.03h.79q.04 0 .08.03.03.03.03.07v.02q0 .23.25.39.24.17.62.17.36 0 .59-.15.22-.15.22-.37 0-.21-.18-.31-.19-.11-.6-.22l-.34-.11q-.46-.14-.78-.29-.31-.15-.53-.42-.21-.26-.21-.68 0-.63.49-1t1.3-.37q.55 0 .97.17.41.18.64.49.22.31.22.7 0 .05-.03.08t-.08.03h-.76q-.05 0-.08-.03t-.03-.08q0-.23-.23-.39-.23-.15-.62-.15-.36 0-.58.13-.22.13-.22.36 0 .22.22.33.21.11.7.25l.2.05q.48.14.8.29.32.15.55.42.22.26.22.69 0 .63-.5 1-.5.36-1.34.36Z" transform="translate(17.21 29.5)"/><path fill="#fff" d="M5.47-6.12q0 .05-.03.08Q5.4-6 5.35-6H1.94q-.05 0-.05.05v1.87q0 .05.05.05h2.29q.05 0 .09.03.03.04.03.09v.76q0 .05-.03.09-.04.03-.09.03H1.94q-.05 0-.05.05v1.93q0 .05.05.05h3.41q.05 0 .09.04.03.03.03.08v.76q0 .05-.03.08Q5.4 0 5.35 0H.85Q.8 0 .77-.04.73-.07.73-.12v-6.76q0-.05.04-.08Q.8-7 .85-7h4.5q.05 0 .09.04.03.03.03.08v.76Zm4.09 1.13q0-.05.04-.09.03-.03.08-.03h.91q.05 0 .09.03.03.04.03.09v4.87q0 .05-.03.08-.04.04-.09.04h-.91q-.05 0-.08-.04-.04-.03-.04-.08v-.32q0-.03-.02-.04-.02-.01-.04.02-.41.53-1.23.53Q7.51.07 7-.37q-.52-.44-.52-1.25v-3.37q0-.05.03-.09.04-.03.09-.03h.92q.05 0 .09.03.03.04.03.09v3.04q0 .47.24.75.25.28.69.28.45 0 .72-.28.27-.28.27-.75v-3.04Zm4.77-.18q.32 0 .56.13.08.04.06.15l-.17.9q-.01.12-.14.07-.15-.05-.35-.05-.13 0-.2.01-.42.02-.7.29-.28.28-.28.72v2.83q0 .05-.04.08-.03.04-.08.04h-.92q-.05 0-.09-.04-.03-.03-.03-.08v-4.87q0-.05.03-.09.04-.03.09-.03h.92q.05 0 .08.03.04.04.04.09v.45q0 .04.02.04.01.01.03-.02.42-.65 1.17-.65ZM17.78.08q-.79 0-1.35-.4-.57-.4-.8-1.11-.17-.54-.17-1.14 0-.64.16-1.14.23-.7.8-1.09.57-.39 1.37-.39.76 0 1.32.39.55.39.78 1.08.18.48.18 1.14 0 .63-.17 1.14-.23.71-.79 1.11-.56.41-1.33.41Zm0-1q.37 0 .63-.21.27-.21.39-.59.1-.33.1-.84 0-.54-.1-.84-.11-.38-.38-.58-.27-.21-.66-.21-.37 0-.64.21-.27.2-.39.58-.1.35-.1.84t.1.84q.11.38.39.59.27.21.66.21Zm7.72-2.87q.18.51.18 1.25 0 .71-.17 1.22-.22.66-.71 1.03-.48.37-1.22.37-.71 0-1.14-.51-.02-.02-.04-.01t-.02.04v2.17q0 .05-.04.08-.03.04-.08.04h-.92q-.05 0-.09-.04-.03-.03-.03-.08v-6.76q0-.05.03-.09.04-.03.09-.03h.92q.05 0 .08.03.04.04.04.09v.3q0 .03.02.04.02.01.04-.02.44-.52 1.15-.52t1.2.37q.49.37.71 1.03Zm-1.3 2.45q.3-.46.3-1.22 0-.73-.24-1.15-.28-.49-.85-.49-.52 0-.78.48-.23.39-.23 1.16 0 .79.25 1.2.26.44.75.44.53 0 .8-.42Zm6.87-1.79q.04.25.04.56l-.01.31q0 .12-.12.12h-3.13q-.05 0-.05.05.03.33.09.45.24.72 1.17.73.68 0 1.08-.56.04-.06.1-.06.04 0 .07.03l.62.51q.09.07.03.16-.31.44-.82.68-.52.24-1.15.24-.78 0-1.33-.35-.54-.35-.79-.98-.23-.54-.23-1.5 0-.58.12-.94.2-.7.76-1.11.55-.4 1.33-.4 1.97 0 2.22 2.06Zm-2.22-1.06q-.37 0-.62.19-.24.18-.34.51-.06.17-.08.44-.02.05.04.05h2.03q.05 0 .05-.05-.02-.25-.06-.38-.09-.36-.35-.56-.27-.2-.67-.2Z" transform="translate(30.71 68.3)"/><path fill="#252530" d="M2.16 0q-.11 0-.14-.1L.25-6.87l-.01-.04Q.24-7 .35-7h1.24q.1 0 .13.1l.95 4.07q.01.04.03.04.02 0 .03-.04l.92-4.06Q3.68-7 3.78-7h1.21q.11 0 .14.1l1 4.07q.01.03.03.04.02 0 .03-.04l.92-4.06Q7.14-7 7.24-7h1.18q.14 0 .11.13L6.89-.1q-.03.1-.14.1H5.56q-.1 0-.13-.1L4.41-4.43q-.01-.04-.03-.04-.02 0-.03.04L3.4-.11Q3.38 0 3.27 0H2.16ZM9.5 0q-.05 0-.09-.04-.03-.03-.03-.08v-6.76q0-.05.03-.08Q9.45-7 9.5-7h1.17q.05 0 .08.04.04.03.04.08v6.76q0 .05-.04.08-.03.04-.08.04H9.5Zm6.53-6.88q0-.05.03-.08.04-.04.09-.04h1.17q.05 0 .08.04.04.03.04.08v6.76q0 .05-.04.08-.03.04-.08.04h-1.13q-.1 0-.14-.08l-2.59-4.28q-.02-.03-.04-.02-.02 0-.02.04l.02 4.22q0 .05-.04.08-.03.04-.08.04h-1.17q-.05 0-.09-.04-.03-.03-.03-.08v-6.76q0-.05.03-.08.04-.04.09-.04h1.13q.1 0 .14.08l2.58 4.26q.02.03.04.02.02 0 .02-.04l-.01-4.2ZM23.49-7q.05 0 .08.04.04.03.04.08v.98q0 .05-.04.08-.03.04-.08.04H21.7q-.05 0-.05.05v5.61q0 .05-.04.08-.03.04-.08.04h-1.17q-.05 0-.09-.04-.03-.03-.03-.08v-5.61q0-.05-.05-.05h-1.74q-.05 0-.09-.04-.03-.03-.03-.08v-.98q0-.05.03-.08.04-.04.09-.04h5.04Zm5.88 1.09q0 .05-.03.08-.04.04-.09.04h-3.28q-.05 0-.05.05v1.55q0 .05.05.05h2.15q.05 0 .08.03.04.04.04.09v.97q0 .05-.04.09-.03.03-.08.03h-2.15q-.05 0-.05.05v1.62q0 .05.05.05h3.28q.05 0 .09.03.03.04.03.09v.97q0 .05-.03.08-.04.04-.09.04h-4.62q-.05 0-.09-.04-.03-.03-.03-.08v-6.76q0-.05.03-.08.04-.04.09-.04h4.62q.05 0 .09.04.03.03.03.08v.97ZM34.19 0q-.1 0-.14-.09L32.8-2.86q-.02-.04-.06-.04h-.93q-.05 0-.05.05v2.73q0 .05-.04.08-.03.04-.08.04h-1.17q-.05 0-.09-.04-.03-.03-.03-.08v-6.76q0-.05.03-.08.04-.04.09-.04h2.86q.64 0 1.12.26.49.26.75.74.27.48.27 1.11 0 .68-.34 1.16-.34.49-.95.69-.05.02-.03.07l1.36 2.83q.02.04.02.06 0 .08-.11.08h-1.23Zm-2.38-5.79q-.05 0-.05.05v1.71q0 .05.05.05h1.31q.42 0 .68-.25.27-.25.27-.65t-.27-.66q-.26-.25-.68-.25h-1.31Z" transform="translate(29 82.4)"/><path fill="#252530" d="M2.33-1.27q-.02.02-.01.04t.04.02h2.71q.05 0 .09.03.03.04.03.09v.97q0 .05-.03.08-.04.04-.09.04H.57Q.52 0 .48-.04.45-.07.45-.12v-.92q0-.09.06-.15.49-.48 1-1.04.51-.57.64-.71.28-.33.57-.63.91-1.01.91-1.5 0-.35-.25-.58-.25-.22-.65-.22t-.65.22q-.25.23-.25.6v.25q0 .05-.04.09-.03.03-.08.03H.53q-.05 0-.08-.03-.04-.04-.04-.09v-.47q.03-.54.34-.96.31-.41.82-.63.52-.22 1.16-.22.71 0 1.24.26.52.27.81.72.28.45.28 1 0 .42-.21.86t-.63.95q-.31.39-.67.77-.36.38-1.07 1.1l-.15.15ZM8.44.11q-1.1 0-1.74-.62-.64-.61-.64-1.67v-2.64q0-1.04.64-1.65.64-.61 1.74-.61t1.75.61q.64.61.64 1.65v2.64q0 1.06-.64 1.67-.65.62-1.75.62Zm0-1.21q.45 0 .72-.28.26-.27.26-.73v-2.75q0-.46-.26-.73-.27-.28-.72-.28-.44 0-.7.28-.27.27-.27.73v2.75q0 .46.27.73.26.28.7.28Zm5.19-.17q-.02.02-.01.04t.04.02h2.71q.05 0 .09.03.03.04.03.09v.97q0 .05-.03.08-.04.04-.09.04h-4.5q-.05 0-.08-.04-.04-.03-.04-.08v-.92q0-.09.06-.15.49-.48 1-1.04.51-.57.64-.71.28-.33.57-.63.91-1.01.91-1.5 0-.35-.25-.58-.25-.22-.65-.22t-.65.22q-.25.23-.25.6v.25q0 .05-.03.09-.04.03-.09.03h-1.18q-.05 0-.08-.03-.04-.04-.04-.09v-.47q.03-.54.34-.96.31-.41.83-.63.51-.22 1.15-.22.71 0 1.24.26.52.27.81.72.28.45.28 1 0 .42-.21.86t-.63.95q-.31.39-.67.77-.36.38-1.07 1.1l-.15.15Zm8.73-1.78q.05 0 .09.03.03.04.03.09v1.01q0 .05-.03.09-.04.03-.09.03h-.43q-.05 0-.05.05v1.63q0 .05-.03.08-.04.04-.09.04h-1.17q-.05 0-.08-.04-.04-.03-.04-.08v-1.63q0-.05-.05-.05h-3.07q-.05 0-.08-.03-.04-.04-.04-.09v-.8q0-.06.03-.15l1.8-4.04Q19.1-7 19.2-7h1.25q.07 0 .1.04.02.03-.01.1l-1.67 3.75q-.01.02 0 .04t.03.02h1.52q.05 0 .05-.05v-1.24q0-.05.04-.08.03-.04.08-.04h1.17q.05 0 .09.04.03.03.03.08v1.24q0 .05.05.05h.43Z" transform="translate(35.35 91.8)"/></g></svg>
