<svg xmlns="http://www.w3.org/2000/svg" viewBox="0 0 94 122"><path fill="#fff" d="M8.1 89.9 47.6 110l38-20.1V11.3H8.1z"/><path fill="#f2f3f2" d="M86.4 11.6 7.3 91.3l41 20.3 38.1-19.5z"/><path fill="#dcdedc" d="M5.5 37.5v54.1l1.4.7 39.5 20.1 1.2.6 1.2-.6 38.1-20.1 1.4-.7V8.7H5.5v28.8zm2.6 52.6V11.3h77.6v78.8l-38.1 20.1L8.1 90.1z"/><path fill="#ff492c" d="M46.9 12.6c.4 0 .8 0 1.2.1L46.9 15c-1.8-.1-3.4 1.3-3.5 3.1-.1 1.8 1.3 3.4 3.1 3.5h.4c.8 0 1.6-.3 2.2-.8l1.3 2.2c-1 .7-2.2 1.1-3.5 1.1-3.2.1-5.9-2.3-6-5.5-.1-3.2 2.3-5.9 5.5-6h.5zm4.1 4.9 1.5 2.5-1.5 2.4-1.4-2.4h-2.9l1.5-2.5H51zm-2.4-.9c0-.4.1-.8.3-1.1.2-.3.6-.6.9-.8l.2-.1c.4-.2.5-.3.5-.5s-.3-.4-.5-.4c-.4 0-.7.2-.9.6l-.5-.5c.1-.2.3-.4.5-.6.3-.2.6-.2.9-.2.3 0 .7.1.9.3.2.2.4.5.4.8 0 .5-.3.9-.9 1.1l-.3.2c-.3.2-.5.3-.6.6h1.8v.7l-2.7-.1zm-1.7 12.5 9.5-5.4v-15H37.3v14.9l9.6 5.5z"/><path fill="#2690ce" d="M90.2 64.5H3.6l-3.2 7 3.2 7h86.6l3.1-7z"/><path fill="#252530" d="M10.77 60q-.05 0-.09-.04-.04-.04-.04-.09v-7.44q0-.05.04-.09.04-.04.09-.04h1.29q.06 0 .09.04.04.04.04.09v7.44q0 .05-.04.09-.03.04-.09.04h-1.29Zm8.93-5.74q.86 0 1.35.52.48.51.48 1.45v3.64q0 .05-.04.09-.04.04-.09.04h-1.29q-.05 0-.09-.04-.04-.04-.04-.09v-3.3q0-.45-.23-.72-.23-.26-.62-.26-.38 0-.62.26-.25.27-.25.71v3.31q0 .05-.03.09-.04.04-.1.04h-1.27q-.06 0-.1-.04-.04-.04-.04-.09v-3.3q0-.44-.24-.71-.24-.27-.63-.27-.35 0-.58.21-.24.21-.28.58v3.49q0 .05-.04.09-.04.04-.1.04h-1.28q-.06 0-.1-.04-.04-.04-.04-.09v-5.39q0-.06.04-.1.04-.03.1-.03h1.28q.06 0 .1.03.04.04.04.1v.43q0 .03.02.04.02.01.04-.02.45-.67 1.4-.67.55 0 .96.23.41.23.63.66.04.06.08 0 .24-.45.66-.67.41-.22.92-.22Zm7.97 1.6q.2.57.2 1.32 0 .76-.21 1.38-.26.7-.8 1.12-.54.41-1.35.41-.79 0-1.23-.55-.02-.03-.04-.02-.03.01-.03.04v2.35q0 .06-.03.1-.04.04-.1.04H22.8q-.06 0-.1-.04-.04-.04-.04-.1v-7.43q0-.06.04-.1.04-.03.1-.03h1.28q.06 0 .1.03.03.04.03.1v.36q0 .03.03.04.02.01.04-.02.46-.6 1.28-.6.76 0 1.31.42.56.43.8 1.18Zm-1.68 2.47q.27-.43.27-1.17 0-.69-.23-1.1-.25-.47-.81-.47-.51 0-.76.47-.23.4-.23 1.11 0 .74.24 1.15.25.44.75.44.49 0 .77-.43ZM29 60q-.05 0-.09-.04-.04-.04-.04-.09v-7.44q0-.05.04-.09.04-.04.09-.04h1.29q.05 0 .09.04.04.04.04.09v7.44q0 .05-.04.09-.04.04-.09.04H29Zm7.56-3.41q.06.42.04.94-.01.13-.14.13h-3.4q-.07 0-.04.05.03.22.12.44.28.62 1.16.62.71-.01 1.11-.57.05-.07.1-.07.04 0 .08.04l.79.79q.06.05.06.09 0 .03-.05.09-.36.45-.93.7-.57.25-1.26.25-.94 0-1.6-.43-.65-.43-.94-1.2-.23-.55-.23-1.44 0-.61.17-1.07.25-.78.88-1.24.63-.46 1.5-.46 1.1 0 1.77.64.66.63.81 1.7Zm-2.57-1q-.69 0-.91.65-.04.14-.08.35 0 .06.06.06h1.9q.07 0 .05-.06-.06-.32-.06-.31-.1-.33-.35-.51-.24-.18-.61-.18Zm9.84-1.33q.86 0 1.34.52.48.51.48 1.45v3.64q0 .05-.03.09-.04.04-.1.04h-1.28q-.06 0-.1-.04-.04-.04-.04-.09v-3.3q0-.45-.23-.72-.23-.26-.61-.26-.39 0-.63.26-.24.27-.24.71v3.31q0 .05-.04.09-.04.04-.09.04h-1.28q-.06 0-.09-.04-.04-.04-.04-.09v-3.3q0-.44-.24-.71-.25-.27-.63-.27-.35 0-.59.21t-.28.58v3.49q0 .05-.04.09-.04.04-.09.04h-1.29q-.05 0-.09-.04-.04-.04-.04-.09v-5.39q0-.06.04-.1.04-.03.09-.03h1.29q.05 0 .09.03.04.04.04.1v.43q0 .03.02.04.02.01.05-.02.45-.67 1.39-.67.55 0 .96.23.42.23.64.66.03.06.07 0 .25-.45.66-.67.41-.22.93-.22Zm7.88 2.33q.07.42.05.94-.01.13-.14.13h-3.4q-.07 0-.05.05.04.22.12.44.29.62 1.17.62.7-.01 1.11-.57.04-.07.1-.07.03 0 .08.04l.79.79q.05.05.05.09 0 .03-.04.09-.36.45-.94.7-.57.25-1.25.25-.94 0-1.6-.43-.65-.43-.94-1.2-.23-.55-.23-1.44 0-.61.16-1.07.26-.78.89-1.24.63-.46 1.5-.46 1.1 0 1.77.64.66.63.8 1.7Zm-2.56-1q-.69 0-.91.65-.04.14-.08.35 0 .06.06.06h1.9q.07 0 .04-.06-.05-.32-.05-.31-.1-.33-.35-.51-.24-.18-.61-.18Zm6.51-1.33q.88 0 1.42.54.54.54.54 1.46v3.61q0 .05-.04.09-.03.04-.09.04H56.2q-.05 0-.09-.04-.04-.04-.04-.09v-3.29q0-.44-.25-.72-.24-.27-.65-.27-.41 0-.66.27-.24.28-.24.72v3.29q0 .05-.04.09-.04.04-.1.04h-1.28q-.06 0-.1-.04-.03-.04-.03-.09v-5.39q0-.06.03-.1.04-.03.1-.03h1.28q.06 0 .1.03.04.04.04.1v.38q0 .04.02.05.02.01.03-.01.45-.64 1.34-.64Zm6.32 1.2q0 .05-.04.09-.04.04-.09.04h-1.06q-.05 0-.05.05v2.34q0 .36.14.54.15.17.48.17h.37q.05 0 .09.04.04.04.04.09v1.05q0 .12-.13.14-.47.02-.67.02-.91 0-1.36-.3-.45-.3-.46-1.14v-2.95q0-.05-.06-.05h-.62q-.06 0-.1-.04-.03-.04-.03-.09v-.98q0-.06.03-.1.04-.03.1-.03h.62q.06 0 .06-.06v-1.31q0-.05.04-.09.04-.04.09-.04h1.23q.06 0 .1.04.04.04.04.09v1.31q0 .06.05.06h1.06q.05 0 .09.03.04.04.04.1v.98Zm3.19-1.2q.71 0 1.27.25.57.24.88.67.31.43.31.96v3.73q0 .05-.04.09-.03.04-.09.04h-1.29q-.05 0-.09-.04-.04-.04-.04-.09v-.36q0-.04-.02-.05-.02-.01-.04.02-.47.61-1.49.61-.86 0-1.39-.42-.52-.42-.52-1.23 0-.85.59-1.32.59-.46 1.69-.46h1.13q.05 0 .05-.06v-.24q0-.36-.22-.57-.22-.2-.66-.2-.34 0-.57.12-.22.12-.29.34-.03.12-.14.11l-1.33-.17q-.13-.03-.12-.1.04-.47.37-.84.32-.37.85-.58.54-.21 1.2-.21Zm-.22 4.67q.47 0 .8-.25.33-.25.33-.65v-.39q0-.06-.05-.06h-.8q-.49 0-.77.19-.28.18-.28.53 0 .29.21.46.21.17.56.17Zm8.78-3.14q.21.57.21 1.36 0 .76-.19 1.33-.25.75-.81 1.18-.56.43-1.31.43-.81 0-1.27-.61-.02-.02-.04-.01-.03 0-.03.04v.36q0 .05-.03.09-.04.04-.1.04h-1.28q-.06 0-.1-.04-.04-.04-.04-.09v-7.44q0-.05.04-.09.04-.04.1-.04h1.28q.06 0 .1.04.03.04.03.09v2.36q0 .03.03.04.02.01.04-.02.43-.55 1.22-.55.8 0 1.35.41.54.41.8 1.12Zm-1.63 2.49q.23-.41.23-1.1 0-.75-.27-1.16-.26-.43-.78-.43-.48 0-.73.43-.24.42-.24 1.15 0 .74.21 1.11.27.48.78.48.53 0 .8-.48ZM75.08 60q-.06 0-.09-.04-.04-.04-.04-.09v-7.44q0-.05.04-.09.03-.04.09-.04h1.29q.05 0 .09.04.04.04.04.09v7.44q0 .05-.04.09-.04.04-.09.04h-1.29Zm7.56-3.41q.06.42.04.94-.01.13-.14.13h-3.4q-.07 0-.05.05.04.22.13.44.28.62 1.16.62.7-.01 1.11-.57.05-.07.1-.07.03 0 .08.04l.79.79q.06.05.06.09 0 .03-.05.09-.36.45-.93.7-.58.25-1.26.25-.94 0-1.6-.43-.65-.43-.94-1.2-.23-.55-.23-1.44 0-.61.16-1.07.26-.78.89-1.24.63-.46 1.5-.46 1.1 0 1.77.64.66.63.81 1.7Zm-2.57-1q-.69 0-.91.65-.04.14-.08.35 0 .06.06.06h1.9q.07 0 .04-.06-.05-.32-.05-.31-.1-.33-.35-.51-.24-.18-.61-.18ZM40.29 41.39q.06-.09.15-.09h1.29q.06 0 .1.04.03.04.03.09v7.44q0 .05-.03.09-.04.04-.1.04h-1.29q-.05 0-.09-.04-.04-.04-.04-.09v-4.85q0-.05-.02-.05t-.04.04l-1.17 1.82q-.05.09-.15.09h-.65q-.1 0-.16-.09l-1.16-1.82q-.02-.04-.05-.03-.02 0-.02.05v4.84q0 .05-.04.09-.03.04-.09.04h-1.29q-.05 0-.09-.04-.04-.04-.04-.09v-7.44q0-.05.04-.09.04-.04.09-.04h1.29q.1 0 .15.09l1.65 2.56q.04.07.07 0l1.66-2.56Zm5.31 7.7q-.92 0-1.58-.49-.66-.48-.9-1.32-.16-.51-.16-1.12 0-.65.16-1.16.25-.82.91-1.28.66-.46 1.58-.46.91 0 1.54.45.64.46.91 1.28.17.55.17 1.15 0 .59-.15 1.11-.24.86-.9 1.35-.65.49-1.58.49Zm0-1.33q.37 0 .62-.22t.36-.61q.09-.35.09-.77 0-.46-.09-.78-.12-.37-.37-.58-.25-.21-.62-.21t-.62.21q-.25.21-.36.58-.08.27-.08.78 0 .5.07.77.11.39.37.61.26.22.63.22Zm5.89 1.32q-.74 0-1.29-.21t-.85-.58q-.3-.38-.3-.85v-.11q0-.06.04-.1.03-.03.09-.03h1.22q.05 0 .09.03.04.04.04.1v.01q0 .24.27.41.27.17.68.17.37 0 .6-.15.23-.15.23-.36 0-.2-.19-.3-.2-.1-.65-.21-.52-.13-.82-.25-.7-.25-1.12-.6-.42-.35-.42-1.01 0-.81.64-1.29.63-.48 1.67-.48.71 0 1.23.22.53.23.82.64.3.4.3.92 0 .06-.04.09-.04.04-.1.04h-1.17q-.06 0-.1-.04-.04-.03-.04-.09 0-.24-.24-.41-.25-.16-.66-.16-.36 0-.59.13-.23.13-.23.36 0 .22.22.33.23.11.76.24.12.03.27.07.16.04.33.09.78.23 1.23.59.46.37.46 1.06 0 .81-.65 1.27-.64.46-1.73.46Zm6.5-4.62q0 .05-.04.09-.04.04-.09.04H56.8q-.05 0-.05.05v2.34q0 .36.15.54.14.17.47.17h.37q.05 0 .09.04.04.04.04.09v1.05q0 .12-.13.14-.46.02-.66.02-.92 0-1.37-.3-.45-.3-.46-1.14v-2.95q0-.05-.05-.05h-.63q-.06 0-.09-.04-.04-.04-.04-.09v-.98q0-.06.04-.1.03-.03.09-.03h.63q.05 0 .05-.06v-1.31q0-.05.04-.09.04-.04.09-.04h1.24q.05 0 .09.04.04.04.04.09v1.31q0 .06.05.06h1.06q.05 0 .09.03.04.04.04.1v.98Z"/><path fill="#fff" d="M16.9 75.48q-.78 0-1.36-.25-.58-.25-.9-.7-.31-.45-.31-1.06v-.25q0-.05.04-.09.03-.03.08-.03h.89q.05 0 .09.03.03.04.03.09v.19q0 .46.41.76.41.31 1.12.31.61 0 .92-.26.31-.26.31-.67 0-.28-.17-.48-.17-.19-.48-.35-.32-.16-.95-.4-.71-.26-1.15-.49-.44-.23-.73-.63-.3-.39-.3-.98 0-.88.64-1.39.64-.51 1.71-.51.75 0 1.33.26.57.26.89.73.32.46.32 1.07v.17q0 .05-.04.09-.03.03-.08.03h-.9q-.05 0-.08-.03-.04-.04-.04-.09v-.11q0-.47-.38-.79-.39-.33-1.07-.33-.55 0-.85.23-.31.23-.31.65 0 .3.16.49t.48.34q.32.16.99.4.71.27 1.14.49.42.22.73.61.3.4.3.99 0 .9-.67 1.43-.66.53-1.81.53Zm9.01-5.27q.77 0 1.21.46.43.47.43 1.3v3.31q0 .05-.03.08-.04.04-.09.04h-.91q-.05 0-.08-.04-.04-.03-.04-.08v-3.07q0-.46-.24-.73-.25-.27-.66-.27-.41 0-.67.27-.26.27-.26.72v3.08q0 .05-.03.08-.04.04-.09.04h-.91q-.05 0-.09-.04-.03-.03-.03-.08v-3.07q0-.46-.25-.73-.25-.27-.66-.27-.38 0-.63.22-.24.22-.28.6v3.25q0 .05-.03.08-.04.04-.09.04h-.92q-.05 0-.08-.04-.04-.03-.04-.08v-4.87q0-.05.04-.09.03-.03.08-.03h.92q.05 0 .09.03.03.04.03.09v.33q0 .03.02.04.02.01.04-.02.22-.28.54-.41.33-.14.73-.14.49 0 .86.2t.57.58q.03.04.07 0 .22-.4.61-.59.39-.19.87-.19Zm4.77 0q.63 0 1.11.22.48.22.74.6.26.39.26.88v3.37q0 .05-.03.08-.04.04-.09.04h-.92q-.05 0-.08-.04-.04-.03-.04-.08v-.32q0-.03-.02-.04-.02 0-.04.02-.49.54-1.42.54-.75 0-1.23-.38-.49-.38-.49-1.13 0-.78.55-1.22.54-.43 1.53-.43h1.07q.05 0 .05-.05v-.24q0-.39-.23-.61-.23-.21-.69-.21-.38 0-.61.14-.24.13-.3.37-.03.12-.14.1l-.97-.12q-.05-.01-.08-.03-.04-.03-.03-.07.08-.61.66-1 .57-.39 1.44-.39Zm-.24 4.35q.49 0 .84-.26t.35-.66v-.47q0-.05-.05-.05h-.84q-.53 0-.83.2-.31.2-.31.57 0 .32.24.49.23.18.6.18Zm3.63.84q-.05 0-.08-.04-.04-.03-.04-.08v-6.76q0-.05.04-.08.03-.04.08-.04h.92q.05 0 .09.04.03.03.03.08v6.76q0 .05-.03.08-.04.04-.09.04h-.92Zm2.39 0q-.05 0-.08-.04-.04-.03-.04-.08v-6.76q0-.05.04-.08.03-.04.08-.04h.92q.05 0 .09.04.03.03.03.08v6.76q0 .05-.03.08-.04.04-.09.04h-.92Zm8.29-3.65q-.06.03 0 .06 1.02.48 1.02 1.65 0 .95-.63 1.45-.64.49-1.66.49h-2.52q-.05 0-.08-.04-.04-.03-.04-.08v-6.76q0-.05.04-.08.03-.04.08-.04h2.44q1.09 0 1.68.47.59.47.59 1.42 0 1.05-.92 1.46Zm-2.7-2.35q-.05 0-.05.05v1.85q0 .05.05.05h1.35q.53 0 .84-.25.3-.26.3-.71 0-.46-.3-.73-.31-.26-.84-.26h-1.35Zm1.43 4.99q.52 0 .83-.28.3-.28.3-.76 0-.49-.31-.76-.31-.28-.84-.28h-1.41q-.05 0-.05.05v1.98q0 .05.05.05h1.43Zm6.4-3.98q0-.05.03-.09.04-.03.09-.03h.91q.05 0 .09.03.03.04.03.09v4.87q0 .05-.03.08-.04.04-.09.04H50q-.05 0-.09-.04-.03-.03-.03-.08v-.32q0-.03-.02-.04-.02-.01-.04.02-.41.53-1.23.53-.76 0-1.27-.44-.52-.44-.52-1.25v-3.37q0-.05.03-.09.04-.03.09-.03h.92q.05 0 .09.03.03.04.03.09v3.04q0 .47.25.75.24.28.68.28.45 0 .72-.28.27-.28.27-.75v-3.04Zm4.29 5.05q-.63 0-1.11-.19-.47-.18-.73-.51-.26-.32-.26-.72v-.09q0-.05.03-.09.04-.03.09-.03h.88q.05 0 .08.03.04.04.04.09v.02q0 .25.27.44.28.18.7.18.4 0 .65-.16.25-.17.25-.42 0-.23-.21-.35-.2-.11-.66-.24l-.38-.12q-.51-.15-.86-.32t-.59-.47q-.24-.29-.24-.75 0-.7.55-1.11.55-.42 1.45-.42.61 0 1.07.19.46.2.71.54.25.35.25.79 0 .05-.04.09-.03.03-.08.03h-.85q-.05 0-.09-.03-.03-.04-.03-.09 0-.26-.26-.43-.25-.18-.69-.18-.39 0-.64.14-.24.15-.24.41 0 .24.23.36.24.13.79.28l.22.06q.53.16.89.32.36.17.61.46.25.3.25.77 0 .71-.56 1.11-.56.41-1.49.41Zm3.69-5.87q-.31 0-.51-.2t-.2-.51q0-.31.2-.51t.51-.2q.31 0 .51.2t.2.51q0 .31-.2.51t-.51.2Zm-.48 5.81q-.05 0-.09-.04-.03-.03-.03-.08V70.4q0-.05.03-.08.04-.04.09-.04h.92q.05 0 .08.04.04.03.04.08v4.88q0 .05-.04.08-.03.04-.08.04h-.92Zm4.82-5.19q.81 0 1.29.48.49.48.49 1.31v3.28q0 .05-.04.08-.03.04-.08.04h-.92q-.05 0-.09-.04-.03-.03-.03-.08v-3.04q0-.46-.26-.75-.26-.28-.69-.28-.43 0-.7.28-.26.28-.26.74v3.05q0 .05-.04.08-.03.04-.08.04h-.92q-.05 0-.09-.04-.03-.03-.03-.08v-4.87q0-.05.03-.09.04-.03.09-.03h.92q.05 0 .08.03.04.04.04.09v.32q0 .03.02.04.02.01.03-.02.41-.54 1.24-.54Zm7.26 2.06q.04.25.04.56l-.01.31q0 .12-.12.12h-3.13q-.05 0-.05.05.03.33.09.45.24.72 1.17.73.68 0 1.08-.56.04-.06.1-.06.04 0 .07.03l.62.51q.09.07.03.16-.31.44-.83.68-.51.24-1.14.24-.78 0-1.33-.35-.54-.35-.79-.98-.23-.54-.23-1.5 0-.58.12-.94.2-.7.75-1.11.56-.4 1.34-.4 1.97 0 2.22 2.06Zm-2.22-1.06q-.37 0-.62.19-.24.18-.34.51-.06.17-.08.44-.02.05.04.05h2.03q.05 0 .05-.05-.02-.25-.06-.38-.09-.36-.36-.56-.26-.2-.66-.2Zm5.14 4.25q-.63 0-1.11-.19-.47-.18-.73-.51-.26-.32-.26-.72v-.09q0-.05.03-.09.04-.03.09-.03h.88q.05 0 .08.03.04.04.04.09v.02q0 .25.27.44.28.18.7.18.4 0 .65-.16.25-.17.25-.42 0-.23-.21-.35-.2-.11-.66-.24l-.38-.12q-.51-.15-.86-.32t-.59-.47q-.24-.29-.24-.75 0-.7.55-1.11.55-.42 1.45-.42.61 0 1.07.19.46.2.71.54.25.35.25.79 0 .05-.04.09-.03.03-.08.03h-.85q-.05 0-.09-.03-.03-.04-.03-.09 0-.26-.26-.43-.25-.18-.69-.18-.39 0-.64.14-.24.15-.24.41 0 .24.23.36.24.13.79.28l.22.06q.53.16.89.32.36.17.61.46.25.3.25.77 0 .71-.56 1.11-.56.41-1.49.41Zm4.83 0q-.63 0-1.11-.19-.47-.18-.73-.51-.26-.32-.26-.72v-.09q0-.05.03-.09.04-.03.09-.03h.88q.05 0 .08.03.04.04.04.09v.02q0 .25.27.44.28.18.7.18.4 0 .65-.16.25-.17.25-.42 0-.23-.21-.35-.2-.11-.66-.24l-.38-.12q-.51-.15-.86-.32t-.59-.47q-.24-.29-.24-.75 0-.7.55-1.11.55-.42 1.45-.42.61 0 1.07.19.46.2.71.54.25.35.25.79 0 .05-.04.09-.03.03-.08.03h-.85q-.05 0-.09-.03-.03-.04-.03-.09 0-.26-.26-.43-.25-.18-.69-.18-.39 0-.64.14-.24.15-.24.41 0 .24.23.36.24.13.79.28l.22.06q.53.16.89.32.36.17.61.46.25.3.25.77 0 .71-.56 1.11-.56.41-1.49.41Z"/><path fill="#252530" d="M31.16 89.5q-.11 0-.14-.1l-1.77-6.77-.01-.04q0-.09.11-.09h1.24q.1 0 .13.1l.95 4.07q.01.04.03.04.02 0 .03-.04l.92-4.06q.03-.11.13-.11h1.21q.11 0 .14.1l1 4.07q.01.03.03.04.02 0 .03-.04l.92-4.06q.03-.11.13-.11h1.18q.14 0 .11.13l-1.64 6.77q-.03.1-.14.1h-1.19q-.1 0-.13-.1l-1.02-4.33q-.01-.04-.03-.04-.02 0-.03.04l-.95 4.32q-.02.11-.13.11h-1.11Zm7.34 0q-.05 0-.09-.04-.03-.03-.03-.08v-6.76q0-.05.03-.08.04-.04.09-.04h1.17q.05 0 .08.04.04.03.04.08v6.76q0 .05-.04.08-.03.04-.08.04H38.5Zm6.53-6.88q0-.05.03-.08.04-.04.09-.04h1.17q.05 0 .08.04.04.03.04.08v6.76q0 .05-.04.08-.03.04-.08.04h-1.13q-.1 0-.14-.08l-2.59-4.28q-.02-.03-.04-.02-.02 0-.02.04l.02 4.22q0 .05-.04.08-.03.04-.08.04h-1.17q-.05 0-.09-.04-.03-.03-.03-.08v-6.76q0-.05.03-.08.04-.04.09-.04h1.13q.1 0 .14.08l2.58 4.26q.02.03.04.02.02 0 .02-.04l-.01-4.2Zm7.46-.12q.05 0 .08.04.04.03.04.08v.98q0 .05-.04.08-.03.04-.08.04H50.7q-.05 0-.05.05v5.61q0 .05-.04.08-.03.04-.08.04h-1.17q-.05 0-.09-.04-.03-.03-.03-.08v-5.61q0-.05-.05-.05h-1.74q-.05 0-.09-.04-.03-.03-.03-.08v-.98q0-.05.03-.08.04-.04.09-.04h5.04Zm5.88 1.09q0 .05-.03.08-.04.04-.09.04h-3.28q-.05 0-.05.05v1.55q0 .05.05.05h2.15q.05 0 .08.03.04.04.04.09v.97q0 .05-.04.09-.03.03-.08.03h-2.15q-.05 0-.05.05v1.62q0 .05.05.05h3.28q.05 0 .09.03.03.04.03.09v.97q0 .05-.03.08-.04.04-.09.04h-4.62q-.05 0-.09-.04-.03-.03-.03-.08v-6.76q0-.05.03-.08.04-.04.09-.04h4.62q.05 0 .09.04.03.03.03.08v.97Zm4.82 5.91q-.1 0-.14-.09l-1.25-2.77q-.02-.04-.06-.04h-.93q-.05 0-.05.05v2.73q0 .05-.04.08-.03.04-.08.04h-1.17q-.05 0-.09-.04-.03-.03-.03-.08v-6.76q0-.05.03-.08.04-.04.09-.04h2.86q.64 0 1.12.26.49.26.75.74.27.48.27 1.11 0 .68-.34 1.16-.34.49-.95.69-.05.02-.03.07l1.36 2.83q.02.04.02.06 0 .08-.11.08h-1.23Zm-2.38-5.79q-.05 0-.05.05v1.71q0 .05.05.05h1.31q.42 0 .68-.25.27-.25.27-.65t-.27-.66q-.26-.25-.68-.25h-1.31ZM37.68 97.63q-.02.02-.01.04t.04.02h2.71q.05 0 .09.03.03.04.03.09v.97q0 .05-.03.08-.04.04-.09.04h-4.5q-.05 0-.09-.04-.03-.03-.03-.08v-.92q0-.09.06-.15.49-.48 1-1.04.51-.57.64-.71.28-.33.57-.63.91-1.01.91-1.5 0-.35-.25-.58-.25-.22-.65-.22t-.65.22q-.25.23-.25.6v.25q0 .05-.04.09-.03.03-.08.03h-1.18q-.05 0-.08-.03-.04-.04-.04-.09v-.47q.03-.54.34-.96.31-.41.82-.63.52-.22 1.16-.22.71 0 1.24.26.52.27.81.72.28.45.28 1 0 .42-.21.86t-.63.95q-.31.39-.67.77-.36.38-1.07 1.1l-.15.15Zm6.11 1.38q-1.1 0-1.74-.62-.64-.61-.64-1.67v-2.64q0-1.04.64-1.65.64-.61 1.74-.61t1.75.61q.64.61.64 1.65v2.64q0 1.06-.64 1.67-.65.62-1.75.62Zm0-1.21q.45 0 .72-.28.26-.27.26-.73v-2.75q0-.46-.26-.73-.27-.28-.72-.28-.44 0-.7.28-.27.27-.27.73v2.75q0 .46.27.73.26.28.7.28Zm5.19-.17q-.02.02-.01.04t.04.02h2.71q.05 0 .09.03.03.04.03.09v.97q0 .05-.03.08-.04.04-.09.04h-4.5q-.05 0-.08-.04-.04-.03-.04-.08v-.92q0-.09.06-.15.49-.48 1-1.04.51-.57.64-.71.28-.33.57-.63.91-1.01.91-1.5 0-.35-.25-.58-.25-.22-.65-.22t-.65.22q-.25.23-.25.6v.25q0 .05-.03.09-.04.03-.09.03h-1.18q-.05 0-.08-.03-.04-.04-.04-.09v-.47q.03-.54.34-.96.31-.41.83-.63.51-.22 1.15-.22.71 0 1.24.26.52.27.81.72.28.45.28 1 0 .42-.21.86t-.63.95q-.31.39-.67.77-.36.38-1.07 1.1l-.15.15Zm8.73-1.78q.05 0 .09.03.03.04.03.09v1.01q0 .05-.03.09-.04.03-.09.03h-.43q-.05 0-.05.05v1.63q0 .05-.03.08-.04.04-.09.04h-1.17q-.05 0-.08-.04-.04-.03-.04-.08v-1.63q0-.05-.05-.05H52.7q-.05 0-.08-.03-.04-.04-.04-.09v-.8q0-.06.03-.15l1.8-4.04q.04-.09.14-.09h1.25q.07 0 .1.04.02.03-.01.1l-1.67 3.75q-.01.02 0 .04t.03.02h1.52q.05 0 .05-.05v-1.24q0-.05.04-.08.03-.04.08-.04h1.17q.05 0 .09.04.03.03.03.08v1.24q0 .05.05.05h.43Z"/></svg>
