<svg xmlns="http://www.w3.org/2000/svg" viewBox="0 0 94 122"><path fill="#fff" d="M8.1 89.9 47.6 110l38-20.1V11.3H8.1z"/><path fill="#f2f3f2" d="M86.4 11.6 7.3 91.3l41 20.3 38.1-19.5z"/><path fill="#dcdedc" d="M5.5 37.5v54.1l1.4.7 39.5 20.1 1.2.6 1.2-.6 38.1-20.1 1.4-.7V8.7H5.5v28.8zm2.6 52.6V11.3h77.6v78.8l-38.1 20.1L8.1 90.1z"/><path fill="#ff492c" d="M46.9 12.6c.4 0 .8 0 1.2.1L46.9 15c-1.8-.1-3.4 1.3-3.5 3.1-.1 1.8 1.3 3.4 3.1 3.5h.4c.8 0 1.6-.3 2.2-.8l1.3 2.2c-1 .7-2.2 1.1-3.5 1.1-3.2.1-5.9-2.3-6-5.5-.1-3.2 2.3-5.9 5.5-6h.5zm4.1 4.9 1.5 2.5-1.5 2.4-1.4-2.4h-2.9l1.5-2.5H51zm-2.4-.9c0-.4.1-.8.3-1.1.2-.3.6-.6.9-.8l.2-.1c.4-.2.5-.3.5-.5s-.3-.4-.5-.4c-.4 0-.7.2-.9.6l-.5-.5c.1-.2.3-.4.5-.6.3-.2.6-.2.9-.2.3 0 .7.1.9.3.2.2.4.5.4.8 0 .5-.3.9-.9 1.1l-.3.2c-.3.2-.5.3-.6.6h1.8v.7l-2.7-.1zm-1.7 12.5 9.5-5.4v-15H37.3v14.9l9.6 5.5z"/><path fill="#2690ce" d="M90.2 64.5H3.6l-3.2 7 3.2 7h86.6l3.1-7z"/><path fill="#252530" d="M12.28 60q-.05 0-.08-.04-.04-.03-.04-.08v-6.76q0-.05.04-.08.03-.04.08-.04h1.17q.05 0 .09.04.03.03.03.08v6.76q0 .05-.03.08-.04.04-.09.04h-1.17Zm8.12-5.22q.78 0 1.22.47.44.47.44 1.32v3.31q0 .05-.04.08-.03.04-.08.04h-1.17q-.05 0-.09-.04-.03-.03-.03-.08v-3q0-.41-.21-.65-.21-.24-.56-.24-.35 0-.57.24-.22.24-.22.64v3.01q0 .05-.04.08-.03.04-.08.04h-1.16q-.05 0-.09-.04-.03-.03-.03-.08v-3q0-.4-.22-.65-.22-.24-.57-.24-.32 0-.54.19-.21.19-.25.53v3.17q0 .05-.03.08-.04.04-.09.04h-1.17q-.05 0-.08-.04-.04-.03-.04-.08v-4.9q0-.05.04-.09.03-.03.08-.03h1.17q.05 0 .09.03.03.04.03.09v.39q0 .03.02.04.02.01.04-.02.41-.61 1.27-.61.5 0 .87.21.38.21.58.6.03.06.07 0 .22-.41.59-.61.38-.2.85-.2Zm7.24 1.46q.18.51.18 1.2t-.19 1.25q-.23.64-.72 1.02-.5.37-1.23.37-.72 0-1.12-.5-.02-.03-.04-.02-.02.01-.02.04v2.14q0 .05-.03.08-.04.04-.09.04h-1.17q-.05 0-.08-.04-.04-.03-.04-.08v-6.76q0-.05.04-.09.03-.03.08-.03h1.17q.05 0 .09.03.03.04.03.09v.33q0 .03.02.03.02.01.04-.01.42-.55 1.16-.55.69 0 1.2.39.5.38.72 1.07Zm-1.53 2.24q.25-.39.25-1.06 0-.63-.21-1-.23-.43-.74-.43-.46 0-.69.43-.21.36-.21 1.01 0 .67.22 1.04.23.4.68.4.45 0 .7-.39ZM28.85 60q-.05 0-.09-.04-.03-.03-.03-.08v-6.76q0-.05.03-.08.04-.04.09-.04h1.17q.05 0 .08.04.04.03.04.08v6.76q0 .05-.04.08-.03.04-.08.04h-1.17Zm6.87-3.1q.06.38.04.85-.01.12-.13.12h-3.09q-.06 0-.04.05.03.2.11.4.26.56 1.06.56.64-.01 1.01-.52.04-.06.09-.06.03 0 .07.04l.72.71q.05.05.05.09 0 .02-.04.08-.33.41-.85.64-.52.22-1.14.22-.86 0-1.45-.39-.6-.39-.86-1.09-.21-.5-.21-1.31 0-.55.15-.97.23-.71.8-1.13.58-.42 1.37-.42 1 0 1.61.58.6.58.73 1.55Zm-2.33-.91q-.63 0-.83.59-.04.13-.07.32 0 .05.05.05h1.73q.06 0 .04-.05-.05-.29-.05-.28-.09-.3-.31-.47-.23-.16-.56-.16Zm8.94-1.21q.78 0 1.22.47.44.47.44 1.32v3.31q0 .05-.03.08-.04.04-.09.04H42.7q-.05 0-.08-.04-.04-.03-.04-.08v-3q0-.41-.21-.65-.21-.24-.56-.24-.35 0-.57.24-.22.24-.22.64v3.01q0 .05-.03.08-.04.04-.09.04h-1.16q-.05 0-.08-.04-.04-.03-.04-.08v-3q0-.4-.22-.65-.22-.24-.57-.24-.32 0-.53.19-.22.19-.26.53v3.17q0 .05-.03.08-.04.04-.09.04h-1.17q-.05 0-.08-.04-.04-.03-.04-.08v-4.9q0-.05.04-.09.03-.03.08-.03h1.17q.05 0 .09.03.03.04.03.09v.39q0 .03.02.04.02.01.04-.02.41-.61 1.27-.61.5 0 .88.21.37.21.57.6.03.06.07 0 .22-.41.6-.61.37-.2.84-.2Zm7.17 2.12q.06.38.04.85-.01.12-.13.12h-3.09q-.06 0-.04.05.03.2.11.4.26.56 1.06.56.64-.01 1.01-.52.04-.06.09-.06.03 0 .07.04l.72.71q.05.05.05.09 0 .02-.04.08-.33.41-.85.64-.52.22-1.14.22-.86 0-1.45-.39-.6-.39-.86-1.09-.21-.5-.21-1.31 0-.55.15-.97.23-.71.81-1.13.57-.42 1.36-.42 1 0 1.61.58.6.58.73 1.55Zm-2.33-.91q-.63 0-.83.59-.04.13-.07.32 0 .05.05.05h1.73q.06 0 .04-.05-.05-.29-.05-.28-.09-.3-.31-.47-.23-.16-.56-.16Zm5.92-1.21q.8 0 1.29.49t.49 1.33v3.28q0 .05-.03.08-.04.04-.09.04h-1.17q-.05 0-.08-.04-.04-.03-.04-.08v-2.99q0-.4-.22-.65-.23-.25-.6-.25t-.59.25q-.23.25-.23.65v2.99q0 .05-.03.08-.04.04-.09.04h-1.17q-.05 0-.08-.04-.04-.03-.04-.08v-4.9q0-.05.04-.09.03-.03.08-.03h1.17q.05 0 .09.03.03.04.03.09v.35q0 .03.02.04.02.01.03-.01.41-.58 1.22-.58Zm5.74 1.09q0 .05-.03.09-.04.03-.09.03h-.96q-.05 0-.05.05v2.12q0 .33.14.49.13.16.43.16h.33q.05 0 .09.03.03.04.03.09v.95q0 .11-.12.13-.42.02-.6.02-.83 0-1.24-.27-.41-.28-.42-1.04v-2.68q0-.05-.05-.05h-.57q-.05 0-.08-.03-.04-.04-.04-.09v-.89q0-.05.04-.09.03-.03.08-.03h.57q.05 0 .05-.05v-1.19q0-.05.04-.08.03-.04.08-.04h1.12q.05 0 .09.04.03.03.03.08v1.19q0 .05.05.05h.96q.05 0 .09.03.03.04.03.09v.89Zm2.9-1.09q.65 0 1.16.22.51.23.79.62.29.39.29.87v3.39q0 .05-.04.08-.03.04-.08.04h-1.17q-.05 0-.08-.04-.04-.03-.04-.08v-.33q0-.03-.02-.04-.02-.01-.04.02-.42.55-1.35.55-.78 0-1.26-.38t-.48-1.12q0-.77.54-1.2.54-.42 1.54-.42h1.02q.05 0 .05-.05v-.22q0-.33-.2-.52-.2-.18-.6-.18-.31 0-.51.11-.21.11-.27.31-.03.11-.13.1l-1.21-.16q-.12-.02-.11-.09.04-.42.33-.76.3-.34.78-.53.49-.19 1.09-.19Zm-.2 4.25q.43 0 .73-.23t.3-.59v-.36q0-.05-.05-.05h-.72q-.45 0-.71.17-.25.17-.25.48 0 .27.19.42.19.16.51.16Zm6.27-3.16q0 .05-.03.09-.04.03-.09.03h-.96q-.05 0-.05.05v2.12q0 .33.14.49.13.16.43.16h.33q.05 0 .09.03.03.04.03.09v.95q0 .11-.12.13-.42.02-.6.02-.83 0-1.24-.27-.41-.28-.42-1.04v-2.68q0-.05-.05-.05h-.57q-.05 0-.09-.03-.03-.04-.03-.09v-.89q0-.05.03-.09.04-.03.09-.03h.57q.05 0 .05-.05v-1.19q0-.05.04-.08.03-.04.08-.04h1.12q.05 0 .09.04.03.03.03.08v1.19q0 .05.05.05h.96q.05 0 .09.03.03.04.03.09v.89Zm1.61-1.59q-.34 0-.56-.23-.23-.22-.23-.56 0-.35.22-.57.22-.22.57-.22t.57.22q.22.22.22.57 0 .34-.23.56-.22.23-.56.23Zm-.6 5.72q-.05 0-.09-.04-.03-.03-.03-.08v-4.91q0-.05.03-.09.04-.03.09-.03h1.17q.05 0 .09.03.03.04.03.09v4.91q0 .05-.03.08-.04.04-.09.04h-1.17Zm4.66.08q-.84 0-1.44-.44t-.82-1.2q-.14-.47-.14-1.02 0-.59.14-1.06.23-.74.83-1.16.6-.42 1.44-.42.82 0 1.4.42.58.41.82 1.15.16.5.16 1.05 0 .54-.14 1.01-.22.78-.82 1.23-.59.44-1.43.44Zm0-1.21q.33 0 .56-.2.23-.2.33-.55.08-.32.08-.7 0-.42-.08-.71-.11-.34-.34-.53-.23-.19-.56-.19-.34 0-.57.19-.22.19-.32.53-.08.24-.08.71 0 .45.07.7.1.35.33.55.24.2.58.2Zm5.98-4.09q.8 0 1.29.49t.49 1.33v3.28q0 .05-.04.08-.03.04-.08.04h-1.17q-.05 0-.09-.04-.03-.03-.03-.08v-2.99q0-.4-.23-.65-.22-.25-.59-.25t-.6.25q-.22.25-.22.65v2.99q0 .05-.04.08-.03.04-.08.04h-1.17q-.05 0-.09-.04-.03-.03-.03-.08v-4.9q0-.05.03-.09.04-.03.09-.03h1.17q.05 0 .08.03.04.04.04.09v.35q0 .03.02.04.02.01.03-.01.41-.58 1.22-.58ZM35.35 44.09q0 .05-.04.08-.03.04-.08.04h-3.27q-.05 0-.05.05v1.55q0 .05.05.05h2.15q.05 0 .08.03.04.04.04.09v.97q0 .05-.04.09-.03.03-.08.03h-2.15q-.05 0-.05.05v2.76q0 .05-.03.08-.04.04-.09.04h-1.17q-.05 0-.08-.04-.04-.03-.04-.08v-6.76q0-.05.04-.08.03-.04.08-.04h4.61q.05 0 .08.04.04.03.04.08v.97Zm2.22.69q.65 0 1.16.22.51.23.8.62.28.39.28.87v3.39q0 .05-.03.08-.04.04-.09.04h-1.17q-.05 0-.09-.04-.03-.03-.03-.08v-.33q0-.03-.02-.04-.02-.01-.04.02-.42.55-1.35.55-.78 0-1.26-.38t-.48-1.12q0-.77.54-1.2.54-.42 1.54-.42h1.02q.05 0 .05-.05v-.22q0-.33-.2-.52-.2-.18-.6-.18-.31 0-.51.11-.21.11-.27.31-.03.11-.13.1l-1.21-.16q-.12-.02-.11-.09.04-.42.34-.76.29-.34.78-.53.48-.19 1.08-.19Zm-.2 4.25q.43 0 .73-.23t.3-.59v-.36q0-.05-.05-.05h-.72q-.45 0-.7.17-.26.17-.26.48 0 .27.19.42.19.16.51.16Zm5.48 1.04q-.67 0-1.17-.19-.5-.19-.77-.53-.28-.34-.28-.77v-.1q0-.05.04-.08.03-.04.08-.04h1.11q.05 0 .08.04.04.03.04.08v.01q0 .22.25.37.24.16.61.16.34 0 .55-.13.21-.14.21-.34 0-.18-.18-.27-.18-.09-.59-.19-.47-.12-.74-.23-.64-.22-1.02-.54-.38-.32-.38-.92 0-.74.58-1.18.57-.43 1.52-.43.64 0 1.12.21.48.2.75.57.26.37.26.84 0 .05-.03.09-.04.03-.09.03h-1.07q-.05 0-.08-.03-.04-.04-.04-.09 0-.22-.22-.37-.23-.15-.6-.15-.33 0-.54.12-.21.12-.21.33 0 .2.21.3.2.1.68.21l.25.07q.14.03.3.08.71.21 1.12.54.41.33.41.96 0 .74-.58 1.15-.59.42-1.58.42Zm5.91-4.2q0 .05-.03.09-.04.03-.09.03h-.96q-.05 0-.05.05v2.12q0 .33.14.49.13.16.43.16h.33q.05 0 .09.03.03.04.03.09v.95q0 .11-.12.13-.42.02-.6.02-.83 0-1.24-.27-.41-.28-.42-1.04v-2.68q0-.05-.05-.05h-.57q-.05 0-.08-.03-.04-.04-.04-.09v-.89q0-.05.04-.09.03-.03.08-.03h.57q.05 0 .05-.05v-1.19q0-.05.03-.08.04-.04.09-.04h1.12q.05 0 .09.04.03.03.03.08v1.19q0 .05.05.05h.96q.05 0 .09.03.03.04.03.09v.89Zm5.33 1.03q.06.38.04.85-.01.12-.13.12h-3.09q-.06 0-.04.05.03.2.11.4.26.56 1.06.56.64-.01 1.01-.52.04-.06.09-.06.03 0 .07.04l.72.71q.05.05.05.09 0 .02-.04.08-.33.41-.85.64-.52.22-1.14.22-.86 0-1.45-.39-.6-.39-.86-1.09-.21-.5-.21-1.31 0-.55.15-.97.23-.71.8-1.13.58-.42 1.37-.42 1 0 1.6.58.61.58.74 1.55Zm-2.33-.91q-.63 0-.83.59-.04.13-.07.32 0 .05.05.05h1.73q.06 0 .04-.05-.05-.29-.05-.28-.09-.3-.32-.47-.22-.16-.55-.16Zm5.22 4.08q-.67 0-1.17-.19-.5-.19-.78-.53-.27-.34-.27-.77v-.1q0-.05.04-.08.03-.04.08-.04h1.11q.05 0 .08.04.04.03.04.08v.01q0 .22.24.37.25.16.62.16.34 0 .55-.13.21-.14.21-.34 0-.18-.18-.27-.18-.09-.59-.19-.47-.12-.74-.23-.64-.22-1.02-.54-.38-.32-.38-.92 0-.74.57-1.18.58-.43 1.53-.43.64 0 1.12.21.48.2.74.57.27.37.27.84 0 .05-.03.09-.04.03-.09.03h-1.07q-.05 0-.09-.03-.03-.04-.03-.09 0-.22-.22-.37-.23-.15-.6-.15-.33 0-.54.12-.21.12-.21.33 0 .2.2.3.21.1.69.21l.25.07q.14.03.3.08.71.21 1.12.54.41.33.41.96 0 .74-.59 1.15-.58.42-1.57.42Zm5.91-4.2q0 .05-.04.09-.03.03-.08.03h-.96q-.05 0-.05.05v2.12q0 .33.13.49.14.16.44.16h.33q.05 0 .08.03.04.04.04.09v.95q0 .11-.12.13-.42.02-.6.02-.83 0-1.24-.27-.41-.28-.42-1.04v-2.68q0-.05-.05-.05h-.57q-.05 0-.09-.03-.03-.04-.03-.09v-.89q0-.05.03-.09.04-.03.09-.03h.57q.05 0 .05-.05v-1.19q0-.05.03-.08.04-.04.09-.04h1.12q.05 0 .08.04.04.03.04.08v1.19q0 .05.05.05h.96q.05 0 .08.03.04.04.04.09v.89Z"/><path fill="#fff" d="M31.2 75.4q-.11 0-.14-.1l-1.82-6.77-.01-.04q0-.09.11-.09h.98q.11 0 .14.1l1.14 4.56q.01.03.03.03.02 0 .03-.03l1.09-4.56q.03-.1.13-.1h.96q.11 0 .14.1l1.16 4.57q.01.03.03.03.02 0 .03-.03l1.12-4.57q.03-.1.14-.1h.93q.14 0 .11.13l-1.73 6.77q-.03.1-.14.1h-.93q-.11 0-.14-.1l-1.17-4.77q-.01-.03-.03-.04-.02 0-.03.04l-1.12 4.77q-.03.1-.13.1h-.88Zm7.41 0q-.05 0-.09-.04-.03-.03-.03-.08v-6.76q0-.05.03-.08.04-.04.09-.04h.92q.05 0 .08.04.04.03.04.08v6.76q0 .05-.04.08-.03.04-.08.04h-.92Zm6.57-6.88q0-.05.03-.08.04-.04.09-.04h.92q.05 0 .08.04.04.03.04.08v6.76q0 .05-.04.08-.03.04-.08.04h-.89q-.1 0-.14-.08l-2.88-4.72q-.02-.03-.04-.03-.02.01-.02.05l.02 4.66q0 .05-.04.08-.03.04-.08.04h-.92q-.05 0-.09-.04-.03-.03-.03-.08v-6.76q0-.05.03-.08.04-.04.09-.04h.89q.1 0 .14.08l2.87 4.72q.02.03.04.02.02 0 .02-.04l-.01-4.66Zm7.22-.12q.05 0 .08.04.04.03.04.08v.77q0 .05-.04.08-.03.04-.08.04h-1.84q-.05 0-.05.05v5.82q0 .05-.03.08-.04.04-.09.04h-.92q-.05 0-.08-.04-.04-.03-.04-.08v-5.82q0-.05-.05-.05h-1.77q-.05 0-.09-.04-.03-.03-.03-.08v-.77q0-.05.03-.08.04-.04.09-.04h4.87Zm5.93.88q0 .05-.04.08-.03.04-.08.04H54.8q-.05 0-.05.05v1.87q0 .05.05.05h2.29q.05 0 .09.03.03.04.03.09v.76q0 .05-.03.09-.04.03-.09.03H54.8q-.05 0-.05.05v1.93q0 .05.05.05h3.41q.05 0 .08.04.04.03.04.08v.76q0 .05-.04.08-.03.04-.08.04h-4.5q-.05 0-.09-.04-.03-.03-.03-.08v-6.76q0-.05.03-.08.04-.04.09-.04h4.5q.05 0 .08.04.04.03.04.08v.76Zm5.11 6.12q-.1 0-.14-.09l-1.32-2.88q-.02-.04-.06-.04h-1.2q-.05 0-.05.05v2.84q0 .05-.04.08-.03.04-.08.04h-.92q-.05 0-.09-.04-.03-.03-.03-.08v-6.76q0-.05.03-.08.04-.04.09-.04h2.75q.61 0 1.08.25.47.26.73.72.26.47.26 1.07 0 .69-.36 1.17-.35.49-.98.68-.02 0-.03.02-.01.02 0 .04l1.41 2.91q.02.04.02.06 0 .08-.11.08h-.96Zm-2.72-6q-.05 0-.05.05v1.99q0 .05.05.05h1.5q.48 0 .78-.29.29-.28.29-.75t-.29-.76q-.3-.29-.78-.29h-1.5Z"/><path fill="#252530" d="M33.49 93.46q-.03.03-.02.06.02.03.06.03h3.93q.07 0 .12.05.06.05.06.12v1.41q0 .07-.06.12-.05.05-.12.05h-6.52q-.08 0-.13-.05t-.05-.12v-1.34q0-.13.09-.22.71-.69 1.45-1.51.74-.82.93-1.02.4-.48.82-.92 1.32-1.46 1.32-2.17 0-.51-.36-.84-.36-.32-.94-.32t-.94.32q-.37.33-.37.87v.36q0 .07-.05.12-.05.05-.12.05h-1.71q-.07 0-.12-.05-.06-.05-.06-.12v-.68q.05-.78.5-1.39.45-.6 1.19-.92.75-.32 1.68-.32 1.03 0 1.79.39.76.38 1.17 1.03.42.66.42 1.45 0 .61-.31 1.25-.3.64-.91 1.38-.45.56-.97 1.12-.52.55-1.55 1.59l-.22.22Zm8.86 2q-1.6 0-2.52-.89-.93-.89-.93-2.43v-3.83q0-1.51.93-2.39.92-.89 2.52-.89 1.59 0 2.53.89.93.88.93 2.39v3.83q0 1.54-.93 2.43-.94.89-2.53.89Zm0-1.75q.65 0 1.03-.4.39-.4.39-1.07v-3.99q0-.66-.39-1.06-.38-.4-1.03-.4-.64 0-1.02.4-.39.4-.39 1.06v3.99q0 .67.39 1.07.38.4 1.02.4Zm7.52-.25q-.03.03-.01.06.01.03.06.03h3.93q.07 0 .12.05.05.05.05.12v1.41q0 .07-.05.12-.05.05-.12.05h-6.53q-.07 0-.12-.05-.05-.05-.05-.12v-1.34q0-.13.08-.22.72-.69 1.45-1.51.74-.82.93-1.02.41-.48.83-.92 1.32-1.46 1.32-2.17 0-.51-.36-.84-.37-.32-.95-.32t-.94.32q-.36.33-.36.87v.36q0 .07-.05.12-.05.05-.13.05h-1.71q-.07 0-.12-.05-.05-.05-.05-.12v-.68q.04-.78.49-1.39.45-.6 1.2-.92.75-.32 1.67-.32 1.03 0 1.79.39.77.38 1.18 1.03.41.66.41 1.45 0 .61-.3 1.25-.31.64-.92 1.38-.45.56-.97 1.12-.52.55-1.55 1.59l-.22.22Zm12.66-2.58q.07 0 .13.05.05.05.05.12v1.47q0 .07-.05.12-.06.05-.13.05h-.62q-.07 0-.07.07v2.37q0 .07-.05.12-.06.05-.13.05h-1.69q-.08 0-.13-.05t-.05-.12v-2.37q0-.07-.07-.07h-4.45q-.07 0-.13-.05-.05-.05-.05-.12v-1.16q0-.09.05-.22l2.61-5.86q.06-.13.2-.13h1.81q.1 0 .14.05.04.05-.01.15l-2.42 5.44q-.01.03 0 .06.02.03.05.03h2.2q.07 0 .07-.08v-1.79q0-.08.05-.13t.13-.05h1.69q.07 0 .13.05.05.05.05.13v1.79q0 .08.07.08h.62Z"/></svg>
