<svg width="190" height="39" fill="none" xmlns="http://www.w3.org/2000/svg"><g clip-path="url(#assemblyai__a)"><path d="M50.889 27.912a.602.602 0 0 1-.398-.158.597.597 0 0 1-.159-.396c0-.105.009-.185.026-.237l6.233-16.945a.959.959 0 0 1 .344-.528c.177-.14.407-.21.69-.21h3.925c.283 0 .513.07.69.21a.96.96 0 0 1 .344.528l6.206 16.945.053.237a.553.553 0 0 1-.186.396.541.541 0 0 1-.397.158h-3.263c-.424 0-.707-.184-.848-.554l-1.034-2.692h-7.081l-1.008 2.692c-.141.37-.433.554-.875.554h-3.262Zm11.165-7.047-2.467-6.967-2.466 6.967h4.933Zm12.79 7.311c-1.432 0-2.635-.202-3.607-.607-.955-.405-1.662-.888-2.122-1.451-.46-.563-.69-1.065-.69-1.505 0-.176.063-.317.186-.422a.677.677 0 0 1 .451-.185h3.023c.107 0 .204.044.292.132.212.14.372.255.478.343a7.47 7.47 0 0 0 1.007.634c.301.123.663.184 1.088.184.512 0 .928-.096 1.246-.29.336-.211.504-.502.504-.871 0-.3-.088-.537-.265-.713-.16-.176-.478-.343-.955-.501-.477-.176-1.202-.36-2.175-.554-1.467-.3-2.599-.783-3.394-1.452-.778-.686-1.167-1.601-1.167-2.745 0-.721.23-1.407.69-2.058.46-.651 1.14-1.18 2.041-1.584.92-.405 2.007-.607 3.263-.607 1.255 0 2.351.193 3.288.58.937.388 1.644.863 2.122 1.426.495.545.742 1.047.742 1.504a.58.58 0 0 1-.186.422.503.503 0 0 1-.397.185h-2.758a.674.674 0 0 1-.398-.132 4.046 4.046 0 0 1-.61-.396 4.683 4.683 0 0 0-.849-.528c-.265-.123-.592-.184-.981-.184-.46 0-.83.105-1.114.317a.998.998 0 0 0-.398.818c0 .264.071.483.213.66.159.175.477.351.954.527.495.159 1.22.326 2.175.502 1.715.299 2.961.827 3.74 1.583.795.757 1.193 1.646 1.193 2.666 0 1.302-.584 2.35-1.75 3.14-1.168.775-2.794 1.162-4.88 1.162Zm13.183 0c-1.432 0-2.634-.202-3.606-.607-.955-.405-1.663-.888-2.122-1.451-.46-.563-.69-1.065-.69-1.505 0-.176.062-.317.186-.422a.677.677 0 0 1 .45-.185h3.024c.106 0 .203.044.292.132.212.14.371.255.477.343a7.47 7.47 0 0 0 1.008.634c.3.123.663.184 1.087.184.513 0 .928-.096 1.247-.29.336-.211.504-.502.504-.871 0-.3-.089-.537-.266-.713-.159-.176-.477-.343-.954-.501-.478-.176-1.203-.36-2.175-.554-1.467-.3-2.599-.783-3.395-1.452-.777-.686-1.166-1.601-1.166-2.745 0-.721.23-1.407.69-2.058.459-.651 1.14-1.18 2.041-1.584.92-.405 2.007-.607 3.262-.607s2.351.193 3.289.58c.937.388 1.644.863 2.121 1.426.495.545.743 1.047.743 1.504a.58.58 0 0 1-.186.422.503.503 0 0 1-.398.185h-2.758a.675.675 0 0 1-.398-.132 4.051 4.051 0 0 1-.61-.396 4.68 4.68 0 0 0-.848-.528c-.265-.123-.592-.184-.981-.184-.46 0-.831.105-1.114.317a.998.998 0 0 0-.398.818c0 .264.07.483.212.66.16.175.478.351.955.527.495.159 1.22.326 2.175.502 1.715.299 2.96.827 3.739 1.583.796.757 1.193 1.646 1.193 2.666 0 1.302-.583 2.35-1.75 3.14-1.167.775-2.794 1.162-4.88 1.162Zm13.875 0c-2.121 0-3.792-.572-5.012-1.715-1.22-1.144-1.856-2.807-1.91-4.989v-.924c.071-2.076.716-3.694 1.936-4.856 1.238-1.179 2.891-1.768 4.96-1.768 1.503 0 2.767.308 3.792.924a5.66 5.66 0 0 1 2.334 2.48c.53 1.056.796 2.27.796 3.643v.633a.7.7 0 0 1-.186.475.648.648 0 0 1-.478.185h-8.486v.185c.035.827.239 1.495.61 2.006.371.51.911.765 1.618.765.442 0 .804-.088 1.087-.264.283-.193.539-.422.769-.686.159-.194.283-.308.371-.343.106-.053.266-.08.478-.08h3.288a.54.54 0 0 1 .398.159.427.427 0 0 1 .186.37c0 .457-.266.985-.796 1.583-.513.598-1.264 1.117-2.254 1.557-.99.44-2.157.66-3.501.66Zm2.228-8.525v-.053c0-.862-.203-1.54-.61-2.032-.389-.51-.937-.765-1.644-.765-.69 0-1.238.255-1.645.765-.388.493-.583 1.17-.583 2.032v.053h4.482Zm6.346 8.261a.65.65 0 0 1-.478-.184.64.64 0 0 1-.186-.476V14.848a.64.64 0 0 1 .186-.475.649.649 0 0 1 .478-.185h2.89c.195 0 .354.061.478.185a.644.644 0 0 1 .185.475v.897c.407-.528.946-.959 1.618-1.293.69-.352 1.459-.528 2.307-.528 1.945 0 3.288.756 4.032 2.27.424-.669 1.016-1.214 1.776-1.637a4.947 4.947 0 0 1 2.44-.633c1.449 0 2.625.492 3.527 1.478.919.968 1.379 2.42 1.379 4.355v7.495a.704.704 0 0 1-.185.476.65.65 0 0 1-.478.184h-3.076a.74.74 0 0 1-.504-.184.644.644 0 0 1-.185-.476v-7.31c0-.88-.187-1.514-.557-1.9-.354-.388-.841-.582-1.46-.582-.565 0-1.034.203-1.404.608-.372.387-.557 1.011-.557 1.873v7.311a.697.697 0 0 1-.187.476.645.645 0 0 1-.477.184h-3.076a.647.647 0 0 1-.477-.184.64.64 0 0 1-.186-.476v-7.31c0-.863-.195-1.487-.583-1.874-.372-.405-.849-.608-1.433-.608a1.91 1.91 0 0 0-1.432.608c-.371.387-.557 1.002-.557 1.847v7.337a.7.7 0 0 1-.185.476.65.65 0 0 1-.478.184h-3.155Zm30.587.264c-1.769 0-3.139-.59-4.11-1.768v.845a.701.701 0 0 1-.187.475.645.645 0 0 1-.477.184h-2.996a.71.71 0 0 1-.478-.184.7.7 0 0 1-.186-.475V9.833a.64.64 0 0 1 .186-.475.71.71 0 0 1 .478-.185h3.234a.65.65 0 0 1 .478.185.645.645 0 0 1 .186.475v5.648c.989-1.038 2.28-1.557 3.872-1.557 1.714 0 3.067.554 4.057 1.663.991 1.108 1.52 2.613 1.591 4.513.018.229.027.545.027.95 0 .387-.009.695-.027.924-.087 1.97-.618 3.502-1.591 4.592-.972 1.074-2.325 1.61-4.057 1.61Zm-1.433-3.536c.832 0 1.424-.247 1.777-.74.372-.492.584-1.17.636-2.031a8.61 8.61 0 0 0 .054-.819 8.61 8.61 0 0 0-.054-.818c-.052-.862-.264-1.54-.636-2.032-.353-.493-.945-.74-1.777-.74-.777 0-1.37.238-1.776.713-.407.476-.628 1.074-.663 1.795l-.027.977.027 1.003c.053.791.265 1.442.637 1.953.388.492.989.739 1.802.739Zm8.921 3.272a.709.709 0 0 1-.478-.184.695.695 0 0 1-.186-.475V9.833c0-.193.061-.352.186-.475a.708.708 0 0 1 .478-.185h3.129c.194 0 .353.062.477.185a.644.644 0 0 1 .185.475v17.42a.644.644 0 0 1-.185.475.648.648 0 0 1-.477.184h-3.129Zm8.025 5.015a.538.538 0 0 1-.397-.158.537.537 0 0 1-.16-.396c0-.123.027-.238.08-.343l2.069-4.962-5.092-11.983a.984.984 0 0 1-.08-.316.786.786 0 0 1 .213-.396.5.5 0 0 1 .397-.185h3.024c.37 0 .627.185.768.554l3.024 7.68 3.102-7.68c.177-.37.442-.554.796-.554h2.97c.159 0 .292.062.398.185a.47.47 0 0 1 .186.37c0 .07-.027.184-.079.342l-7.505 17.288c-.142.37-.408.554-.796.554h-2.918Zm9.946-5.015a.6.6 0 0 1-.398-.158.592.592 0 0 1-.159-.396c0-.105.008-.185.026-.237l6.232-16.945a.96.96 0 0 1 .346-.528c.175-.14.406-.21.688-.21h3.925c.284 0 .513.07.69.21a.953.953 0 0 1 .344.528l6.206 16.945.054.237a.553.553 0 0 1-.186.396.54.54 0 0 1-.397.158h-3.263c-.425 0-.707-.184-.849-.554l-1.034-2.692h-7.081l-1.007 2.692c-.142.37-.433.554-.875.554h-3.262Zm11.165-7.047-2.467-6.967-2.466 6.967h4.933Zm8.071 7.047a.709.709 0 0 1-.478-.184.705.705 0 0 1-.186-.475V10.097c0-.193.063-.352.186-.475a.708.708 0 0 1 .478-.185h3.553c.194 0 .353.062.477.185a.603.603 0 0 1 .213.475v17.156a.603.603 0 0 1-.213.475.648.648 0 0 1-.477.184h-3.553Z" fill="#fff"/><mask id="assemblyai__b" style="mask-type:luminance" maskUnits="userSpaceOnUse" x="0" y="0" width="39" height="39"><path d="M38.307 0H0v38.123h38.307V0Z" fill="#fff"/></mask><g mask="url(#assemblyai__b)" fill="#fff"><path d="M3.619 25.496.588 32.587c-.85 1.986-1.01 4.25 1.12 5.038a4.37 4.37 0 0 0 1.54.28c1.643 0 3.206-.925 3.853-2.442l.61-1.427 4.675-10.926 4.652-10.885c1.11-1.935 1.791-4.913 6.15-6.514C19.799 5.28 12.968 4.39 12.9 4.39c-.043.068-.5.758-.543.826a3.74 3.74 0 0 0-.262.469c-.007.014-.007.02-.014.027L3.626 25.483s-.007.006-.007.013Z"/><path d="m33.925 25.496 3.031 7.091c.85 1.985 1.01 4.25-1.12 5.038a4.368 4.368 0 0 1-1.54.279c-1.643 0-3.206-.925-3.853-2.44l-.61-1.429-4.675-10.926-4.652-10.885c-1.11-1.935-2.985-5.934-7.99-7.227.632-1.475 2.8-1.727 4.493-1.727h4.631c.182.007.356.027.545.054.095.014.196.014.29.034.124.028.24.075.364.11.139.04.277.067.408.122.058.027.116.06.174.088.182.082.356.163.523.265.117.068.211.163.32.245.095.075.204.143.29.224.08.082.154.177.234.265.094.11.196.204.276.32.043.068.08.15.123.218.095.15.19.305.262.469.007.013.007.02.014.027l8.455 19.771s.007.007.007.014Z"/></g></g><defs><clipPath id="assemblyai__a"><path fill="#fff" d="M0 0h190v39H0z"/></clipPath></defs></svg>