<svg fill="none" xmlns="http://www.w3.org/2000/svg" viewBox="0 0 137 36"><path d="M92.527 7.44c-2.426 0-4.297.866-6.033 2.672v-2.25H81.73v22.141h5.127v-12.84c0-2.94 1.75-4.8 4.404-4.8.481 0 .905.06 1.206.118l3.558-4.679c-1.387-.243-2.593-.361-3.498-.361Zm44.212.42h-5.912l-5.459 7.222-5.459-7.222h-5.912l8.341 11.158-8.341 10.985h6.031l5.308-7.005 5.308 7.005h6.093l-8.393-10.969 8.395-11.174ZM29.074 2.88c-1.75 2.34-2.171 3.119-3.861 3.119H0V36h9.892c2.232 0 4.403-1.08 5.79-2.88 1.81-2.4 2.051-3.119 3.8-3.119h25.272V0h-9.952c-2.232 0-4.401 1.08-5.728 2.88Zm7.84 19.382H26.356c-2.292 0-4.403.96-5.79 2.82-1.81 2.399-2.172 3.12-3.861 3.12H7.78V13.8h10.556c2.292 0 4.403-1.08 5.79-2.88 1.81-2.34 2.292-3.06 3.92-3.06h8.866v14.4Zm37.88-7.38c2.234-1.26 3.799-3.481 3.799-6.421C78.593 4.14 75.275 0 70.45 0H55.975v30.001h14.476c5.246 0 8.866-3.721 8.866-8.4 0-2.76-1.266-5.161-4.523-6.72ZM61.103 4.678h8.926c2.232 0 3.559 2.1 3.559 3.96 0 2.282-1.991 3.84-3.86 3.84h-8.625v-7.8Zm8.623 20.641h-8.625v-8.162h8.926c2.292 0 4.163 1.98 4.163 4.021 0 2.281-2.35 4.141-4.464 4.141Z" fill="#010202"/><path d="M108.876 23.64c-.844 1.32-2.472 2.1-4.282 2.1-2.834 0-5.186-1.92-5.186-4.86h15.321c.24-.9.301-1.32.301-2.1 0-6.72-4.163-11.342-10.434-11.342-6.154 0-10.494 4.38-10.494 11.52 0 6.96 4.16 11.461 10.614 11.461 4.524 0 8.505-2.22 9.651-6.78h-5.491Zm-4.282-11.52c2.835 0 5.007 1.8 4.947 4.5H99.468c-.002-2.639 2.292-4.5 5.126-4.5Z" fill="#010202"/></svg>