<svg fill="none" xmlns="http://www.w3.org/2000/svg" viewBox="0 0 234 35"><g clip-path="url(#a)"><path d="M0 30.625h4.375V35H0v-4.375Z" fill="#fff"/><path d="M30.628 0v35H26.25V0h4.378Zm-8.75 0v35H17.5V0h4.378Zm17.5 14.217v6.566H35v-6.566h4.378ZM13.128 0v35H8.75V0h4.378Zm-8.75 0v30.625H0V0h4.378Z" fill="#fff"/><path d="M208.056 11.835a15.301 15.301 0 0 1 3.351.324c.773.158 1.528.397 2.252.713l-.742 2.632a18.931 18.931 0 0 0-1.877-.791 8.304 8.304 0 0 0-2.842-.421 6.369 6.369 0 0 0-2.916.554 2.078 2.078 0 0 0-1.099 2.032c-.009.405.113.803.347 1.134.244.334.555.614.914.82.415.251.856.456 1.315.613l1.621.476 2.171.713c.69.246 1.339.592 1.928 1.027a4.586 4.586 0 0 1 1.903 3.94 4.988 4.988 0 0 1-.619 2.642 5.325 5.325 0 0 1-1.621 1.744 7.11 7.11 0 0 1-2.333 1.001c-.915.126-1.842.143-2.761.052-.804.052-1.611.052-2.415 0a14.766 14.766 0 0 1-1.795-.34 8.903 8.903 0 0 1-1.368-.45 9.598 9.598 0 0 1-1.072-.555l1.047-2.641c.233.191.485.36.751.502.388.214.791.4 1.206.554a9.833 9.833 0 0 0 1.62.477c.664.126 1.338.188 2.013.184a5.058 5.058 0 0 0 3.082-.794 2.627 2.627 0 0 0 1.047-2.19 2.262 2.262 0 0 0-.859-1.873 8.996 8.996 0 0 0-2.975-1.32l-2.308-.768a8.003 8.003 0 0 1-1.944-1.001 4.788 4.788 0 0 1-1.397-1.533 4.593 4.593 0 0 1-.535-2.32 4.407 4.407 0 0 1 1.851-3.89 8.77 8.77 0 0 1 5.059-1.247Zm-23.619.237V24.63a5.513 5.513 0 0 0 .269 1.847c.147.453.404.861.749 1.19.319.299.706.516 1.128.631.453.128.922.19 1.393.185a5.432 5.432 0 0 0 3.406-1.002 7.955 7.955 0 0 0 2.197-2.64V12.07h3.189v18.473h-2.813l-.298-3.322a6.615 6.615 0 0 1-2.44 2.745 7.265 7.265 0 0 1-4.155 1.083 5.813 5.813 0 0 1-4.235-1.582 6.515 6.515 0 0 1-1.621-4.861V12.065l3.231.007ZM73.364 5.104c1.11.296 2.186.702 3.215 1.212l-.972 2.985a13.907 13.907 0 0 0-2.917-1.478 11.485 11.485 0 0 0-3.834-.58 8.28 8.28 0 0 0-6.31 2.803 9.983 9.983 0 0 0-1.944 3.354 13.417 13.417 0 0 0-.723 4.567 13.905 13.905 0 0 0 .668 4.462 9.548 9.548 0 0 0 1.85 3.3 7.727 7.727 0 0 0 2.843 2.031 9.466 9.466 0 0 0 3.7.713 10.82 10.82 0 0 0 3.403-.528 15.258 15.258 0 0 0 3.004-1.4l.94 2.246c-.91.68-1.924 1.205-3.004 1.555-3.12 1.01-6.49.946-9.57-.184a11.403 11.403 0 0 1-3.97-2.638 11.76 11.76 0 0 1-2.68-4.093 16.44 16.44 0 0 1 0-11.113 11.683 11.683 0 0 1 6.916-6.786 14.6 14.6 0 0 1 5.185-.898c1.414-.03 2.825.128 4.197.47h.003Zm32.608 6.598c1.02-.006 2.038.11 3.03.344a7.29 7.29 0 0 1 2.253.924l-1.018 2.773a10.677 10.677 0 0 0-2.119-1.24 6.342 6.342 0 0 0-2.466-.425 6.246 6.246 0 0 0-2.36.45 5.328 5.328 0 0 0-1.944 1.374 6.59 6.59 0 0 0-1.296 2.243 9.064 9.064 0 0 0-.51 3.166 7.307 7.307 0 0 0 1.77 5.282 6.486 6.486 0 0 0 4.796 1.77 8.132 8.132 0 0 0 4.346-1.374l.723 2.323a7.78 7.78 0 0 1-2.385 1.187c-1.004.34-2.052.528-3.111.557a10.35 10.35 0 0 1-3.672-.648 8.293 8.293 0 0 1-2.978-1.902 9.123 9.123 0 0 1-1.984-3.037 11.667 11.667 0 0 1 0-8.131 8.893 8.893 0 0 1 2.039-3.033 8.535 8.535 0 0 1 3.137-1.945 10.956 10.956 0 0 1 3.749-.658Zm62.041 0a9.626 9.626 0 0 1 3.51.649 8.603 8.603 0 0 1 2.916 1.873 8.922 8.922 0 0 1 2.013 3.01 11.708 11.708 0 0 1 0 8.238 9.094 9.094 0 0 1-1.88 3.034 8.427 8.427 0 0 1-2.916 1.876c-1.162.45-2.4.67-3.646.648a9.428 9.428 0 0 1-3.487-.648 8.323 8.323 0 0 1-2.894-1.876 9.063 9.063 0 0 1-1.945-3.034 11.966 11.966 0 0 1 0-8.238 8.847 8.847 0 0 1 1.945-3.01 8.478 8.478 0 0 1 2.894-1.873 9.495 9.495 0 0 1 3.477-.649h.013Zm57.854-.103a8.7 8.7 0 0 1 3.432.648 6.156 6.156 0 0 1 2.521 1.928 7.235 7.235 0 0 1 1.342 3.17c.246 1.45.246 2.93 0 4.381h-12.775c.142 4.416 2.26 6.625 6.352 6.627a8.457 8.457 0 0 0 2.897-.45 11.56 11.56 0 0 0 2.359-1.16l.911 2.32a8.045 8.045 0 0 1-2.68 1.4 11.32 11.32 0 0 1-3.675.554 9.08 9.08 0 0 1-6.916-2.638 9.982 9.982 0 0 1-2.411-7.155 11.45 11.45 0 0 1 .667-4.038 9.003 9.003 0 0 1 1.851-3.037 7.767 7.767 0 0 1 2.68-1.902 9.074 9.074 0 0 1 3.432-.648h.013ZM83.611 3.889v26.794H80.42V3.89h3.192Zm34.676 0v26.794h-3.241V3.89h3.241Zm11.527 8.209-7.693 8.29 8.228 10.295h-3.772l-7.882-9.926 7.778-8.66h3.341Zm7.694-7.1v11.721h13.407V4.997h3.458v25.686h-3.478V19.28h-13.406v11.378h-3.458V4.997h3.477Zm-45.41 7.074v18.472h-3.162V12.072h3.163ZM168 14.107a6.05 6.05 0 0 0-2.145.395 4.835 4.835 0 0 0-1.851 1.268 6.307 6.307 0 0 0-1.312 2.242 9.99 9.99 0 0 0-.483 3.354c-.03 1.136.131 2.269.476 3.351a6.3 6.3 0 0 0 1.313 2.269 4.807 4.807 0 0 0 1.85 1.267c.686.259 1.413.393 2.146.395a6.444 6.444 0 0 0 2.197-.395 4.803 4.803 0 0 0 1.902-1.267 6.479 6.479 0 0 0 1.342-2.269 9.806 9.806 0 0 0 .509-3.35 9.701 9.701 0 0 0-.509-3.355 6.475 6.475 0 0 0-1.342-2.242 4.774 4.774 0 0 0-1.902-1.268 6.442 6.442 0 0 0-2.191-.395Zm57.961-.172a4.795 4.795 0 0 0-3.458 1.423 7.095 7.095 0 0 0-1.821 4.278h9.569a5.693 5.693 0 0 0-.991-4.304 4.132 4.132 0 0 0-3.299-1.397ZM91.94 5.87a2.008 2.008 0 0 1 .56 1.452 1.892 1.892 0 0 1-.56 1.4 2.012 2.012 0 0 1-1.449.554 1.925 1.925 0 0 1-1.465-.528 1.864 1.864 0 0 1-.573-1.426 2.045 2.045 0 0 1 .538-1.452 2.142 2.142 0 0 1 2.949 0Z" fill="#fff"/></g><defs><clipPath id="a"><path fill="#fff" d="M0 0h233.333v35H0z"/></clipPath></defs></svg>