<svg xmlns="http://www.w3.org/2000/svg" fill="none" viewBox="0 0 224 32"><g fill="#000" clip-path="url(#a)"><path d="M0 25.514h30.293l-1.655 2.276H0v-2.276ZM0 21.294h33.37l-1.658 2.271H0v-2.27ZM0 29.738h27.217l-1.648 2.26H0v-2.26ZM224.002 27.79h-30.174l1.654-2.274h28.52v2.273ZM224 31.998 190.758 32l1.647-2.262H224v2.26ZM198.553 21.294h25.446v2.274h-27.101l1.655-2.274ZM29.344 31.997 43.718 12.27h17.838c1.972 0 1.946.756.983 2.075-.978 1.339-2.644 3.642-3.64 5.001-.506.69-1.42 1.95 1.61 1.95h23.897c-1.987 2.75-8.434 10.702-20.01 10.702H29.345ZM111.67 21.293l-7.795 10.704H83.312s7.792-10.703 7.799-10.703l20.559-.002ZM141.401 21.294l-7.799 10.703h-20.555s7.792-10.703 7.799-10.703h20.555ZM148.089 21.294s-1.502 2.075-2.232 3.07c-2.582 3.526-.3 7.632 8.127 7.632h33.011l7.798-10.703-46.704.001Z"/><path d="m39.391 0-7.157 9.822H71.24c1.971 0 1.945.756.982 2.075-.979 1.338-2.617 3.667-3.613 5.027-.506.689-1.421 1.947 1.61 1.947h15.95s2.572-3.534 4.726-6.489C93.826 8.362 91.148 0 80.667 0H39.391ZM143.161 18.871H92.867L106.62 0h20.556l-7.881 10.82h9.174L136.356 0h20.553l-13.748 18.871ZM185.376 0l-13.75 18.871h-21.782S163.599 0 163.605 0h21.771Z"/></g><defs><clipPath id="a"><path fill="#fff" d="M0 0h224v32H0z"/></clipPath></defs></svg>