<svg width="184" height="44" viewBox="0 0 184 44" fill="none" xmlns="http://www.w3.org/2000/svg">
<path d="M75.2344 23.7176C74.9347 31.3916 68.9512 37.367 61.5023 37.367C53.646 37.367 47.8076 30.9421 47.8076 23.1877C47.8076 15.3623 54.1329 8.93262 61.8394 8.93262C65.3181 8.93262 68.7218 10.4466 71.6059 13.167L69.3632 15.9632C67.1581 14.0328 64.4987 12.7128 61.8441 12.7128C56.193 12.7128 51.5578 17.4014 51.5578 23.1829C51.5578 29.0449 55.9355 33.5821 61.5116 33.5821C66.526 33.5821 70.4541 29.8776 71.2407 25.1133H59.8683V21.7494H75.2438V23.7176H75.2344Z" fill="black"/>
<path d="M88.2875 21.8681H86.19C83.8771 21.8681 81.9997 23.7653 81.9997 26.1025V37.1403H78.2588V18.2393H81.3255V19.8289C82.3368 18.807 83.9427 18.2393 85.7405 18.2393H89.7811L88.2875 21.8681Z" fill="black"/>
<path d="M108.677 37.1404H105.498V34.7606C103.04 37.1877 99.1588 38.3516 95.2307 36.6105C92.3185 35.3189 90.1508 32.6363 89.5749 29.4712C88.4606 23.3585 93.1144 17.9365 99.0605 17.9365C101.565 17.9365 103.813 18.9585 105.456 20.6191V18.2393H108.672V37.1404H108.677ZM104.847 29.0501C105.732 25.2084 102.853 21.7167 99.098 21.7167C95.844 21.7167 93.2221 24.3993 93.2221 27.6544C93.2221 31.3305 96.4199 34.1787 100.142 33.5352C102.436 33.1378 104.323 31.34 104.847 29.0501Z" fill="black"/>
<path d="M116.215 17.1794V18.2391H122.166V21.5652H116.215V37.1402H112.512V17.2929C112.512 13.1342 115.466 10.6787 119.169 10.6787H123.659L122.161 14.2318H119.169C117.526 14.2318 116.215 15.5518 116.215 17.1794Z" fill="black"/>
<path d="M141.995 37.1404H138.816V34.7606C136.358 37.1877 132.476 38.3516 128.548 36.6105C125.636 35.3189 123.468 32.6363 122.892 29.4712C121.778 23.3585 126.432 17.9365 132.378 17.9365C134.883 17.9365 137.13 18.9585 138.773 20.6191V18.2393H141.99V37.1404H141.995ZM138.169 29.0501C139.054 25.2084 136.175 21.7167 132.42 21.7167C129.166 21.7167 126.544 24.3993 126.544 27.6544C126.544 31.3305 129.742 34.1787 133.464 33.5352C135.758 33.1378 137.64 31.34 138.169 29.0501Z" fill="black"/>
<path d="M161.976 25.9503V37.1396H158.235V25.9503C158.235 23.6084 156.325 21.7159 154.045 21.7159C151.69 21.7159 149.817 23.6084 149.817 25.9503V37.1396H146.076V18.2385H149.18V19.866C150.529 18.6548 152.322 17.9404 154.195 17.9404C158.535 17.9357 161.976 21.5267 161.976 25.9503Z" fill="black"/>
<path d="M183.977 37.1404H180.798V34.7606C178.34 37.1877 174.459 38.3516 170.531 36.6105C167.618 35.3189 165.451 32.6363 164.875 29.4712C163.76 23.3585 168.414 17.9365 174.36 17.9365C176.865 17.9365 179.112 18.9585 180.756 20.6191V18.2393H183.972V37.1404H183.977ZM180.152 29.0501C181.037 25.2084 178.157 21.7167 174.402 21.7167C171.149 21.7167 168.527 24.3993 168.527 27.6544C168.527 31.3305 171.724 34.1787 175.447 33.5352C177.741 33.1378 179.623 31.34 180.152 29.0501Z" fill="black"/>
<path d="M39.9978 19.3978C39.9322 18.6598 39.8058 17.8082 39.5623 16.8667C39.3189 15.9299 38.9584 14.9032 38.4387 13.834C37.9096 12.7742 37.2214 11.6671 36.3318 10.5978C35.9853 10.1768 35.6061 9.76516 35.1941 9.35828C35.8074 6.89806 34.4497 4.76903 34.4497 4.76903C32.1087 4.62236 30.6199 5.50237 30.0674 5.90925C29.9737 5.8714 29.8848 5.82882 29.7912 5.79097C29.3932 5.62538 28.9812 5.47398 28.5598 5.34151C28.1384 5.20903 27.7077 5.08602 27.2676 4.9772C26.8275 4.87312 26.378 4.78323 25.9239 4.71226C25.8443 4.69806 25.7647 4.6886 25.6851 4.67914C24.6644 1.37677 21.7289 0 21.7289 0C18.4609 2.09591 17.8382 5.02925 17.8382 5.02925C17.8382 5.02925 17.8241 5.09548 17.8054 5.2043C17.6228 5.25634 17.4449 5.30839 17.2623 5.36516C17.0095 5.44086 16.766 5.53548 16.5132 5.62538C16.265 5.72473 16.0169 5.81935 15.7688 5.92817C15.2772 6.14107 14.7855 6.38237 14.308 6.65204C13.8445 6.91699 13.3903 7.20559 12.9455 7.51785C12.88 7.48946 12.8332 7.46581 12.8332 7.46581C8.30575 5.72 4.28397 7.82064 4.28397 7.82064C3.91878 12.689 6.0912 15.7548 6.52193 16.3084C6.41425 16.6112 6.31593 16.914 6.22229 17.2215C5.88519 18.3239 5.63705 19.4546 5.48255 20.628C5.45914 20.7935 5.44041 20.9639 5.42168 21.1342C1.24071 23.2206 0 27.5024 0 27.5024C3.49272 31.5617 7.56132 31.8125 7.56132 31.8125C7.56601 31.8077 7.57069 31.8077 7.57069 31.803C8.09038 32.7351 8.68967 33.6245 9.35919 34.4525C9.6401 34.7978 9.93975 35.1338 10.2441 35.4555C8.97059 39.1316 10.422 42.1974 10.422 42.1974C14.308 42.3441 16.8643 40.48 17.3981 40.0495C17.7867 40.1819 18.1753 40.3002 18.5732 40.4043C19.7671 40.7166 20.9891 40.8963 22.2111 40.9531C22.5154 40.9673 22.8197 40.972 23.1288 40.972H23.2786L23.3769 40.9673L23.5689 40.9626L23.7608 40.9531L23.7655 40.9578C25.5961 43.5978 28.8173 43.9716 28.8173 43.9716C31.1068 41.5303 31.2379 39.1127 31.2379 38.5875C31.2379 38.5875 31.2379 38.5686 31.2379 38.5544C31.2379 38.5118 31.2379 38.4787 31.2379 38.4787C31.2379 38.4409 31.2332 38.4077 31.2332 38.3652C31.7154 38.0245 32.1743 37.6602 32.605 37.2675C33.5227 36.4301 34.3233 35.4744 34.9881 34.4477C35.049 34.3531 35.1098 34.2538 35.1707 34.1544C37.7645 34.3058 39.5904 32.5316 39.5904 32.5316C39.1597 29.8017 37.6193 28.4723 37.301 28.2168C37.301 28.2168 37.2869 28.2073 37.2682 28.1931C37.2495 28.1789 37.2401 28.1695 37.2401 28.1695C37.2214 28.16 37.2027 28.1458 37.1839 28.1316C37.198 27.966 37.212 27.8052 37.2214 27.6396C37.2401 27.3462 37.2495 27.0529 37.2495 26.7596V26.5419V26.4331V26.3763C37.2495 26.3006 37.2495 26.329 37.2495 26.3006L37.2401 26.1161L37.2261 25.8701C37.2214 25.7849 37.2167 25.7092 37.2073 25.6335C37.2027 25.5578 37.1933 25.4821 37.1839 25.4065L37.1558 25.1794L37.1231 24.9523C37.0809 24.6542 37.0201 24.3561 36.9545 24.0581C36.683 22.88 36.2288 21.7634 35.6295 20.7604C35.0302 19.7574 34.2811 18.868 33.4431 18.1204C32.6003 17.3682 31.6592 16.7673 30.6714 16.3178C29.6835 15.8684 28.6441 15.5798 27.6094 15.4473C27.0944 15.3811 26.5747 15.3527 26.0643 15.3574L25.8724 15.3622H25.8256C25.8115 15.3622 25.7553 15.3622 25.76 15.3622L25.6804 15.3669L25.4931 15.3811C25.4229 15.3858 25.348 15.3905 25.2824 15.4C25.0203 15.4237 24.7581 15.4615 24.5052 15.5135C23.4799 15.7075 22.5107 16.0813 21.6539 16.597C20.8018 17.1127 20.0574 17.7609 19.4534 18.4895C18.8495 19.2228 18.3813 20.0318 18.0582 20.8692C17.7352 21.7067 17.5573 22.5725 17.5058 23.4146C17.4917 23.6228 17.487 23.8357 17.4917 24.0391C17.4917 24.0912 17.4917 24.1432 17.4964 24.1953L17.5011 24.3656C17.5104 24.4649 17.5151 24.569 17.5245 24.6684C17.5666 25.0942 17.6415 25.5011 17.7539 25.8985C17.9786 26.6839 18.3391 27.3983 18.7886 28.0039C19.2334 28.6095 19.7671 29.111 20.3336 29.5037C20.9002 29.8963 21.5041 30.1755 22.1034 30.3505C22.7027 30.5303 23.2973 30.606 23.8591 30.606C23.9294 30.606 23.9996 30.606 24.0698 30.6013C24.1073 30.6013 24.1447 30.5966 24.1822 30.5966C24.2196 30.5966 24.2571 30.5918 24.2946 30.5918C24.3554 30.5871 24.4116 30.5776 24.4725 30.5729C24.4865 30.5729 24.5052 30.5682 24.524 30.5682L24.5802 30.5587C24.6176 30.554 24.6504 30.5492 24.6878 30.5445C24.7628 30.5351 24.8236 30.5209 24.8938 30.5067C24.9594 30.4925 25.0249 30.483 25.0905 30.4641C25.2216 30.4357 25.3433 30.3978 25.465 30.3553C25.7085 30.2748 25.9379 30.1755 26.1533 30.0667C26.3687 29.9531 26.5653 29.8301 26.7479 29.7024C26.7994 29.6645 26.8509 29.6267 26.9024 29.5841C27.099 29.428 27.1318 29.1394 26.9726 28.9454C26.8368 28.7751 26.5981 28.7325 26.4108 28.8366C26.364 28.8602 26.3172 28.8886 26.2703 28.9123C26.1065 28.9927 25.9379 29.0637 25.7553 29.1252C25.5727 29.1819 25.3855 29.2292 25.1888 29.2671C25.0905 29.2813 24.9922 29.2955 24.8892 29.3049C24.8377 29.3097 24.7862 29.3144 24.7393 29.3144C24.6878 29.3144 24.6363 29.3191 24.5895 29.3191C24.5427 29.3191 24.4912 29.3191 24.4444 29.3144C24.3835 29.3097 24.3227 29.3097 24.2618 29.3049C24.2618 29.3049 24.229 29.3049 24.2571 29.3049H24.2384L24.1962 29.3002C24.1681 29.2955 24.1401 29.2955 24.1166 29.2908C24.0605 29.286 24.009 29.2766 23.9528 29.2718C23.5127 29.2103 23.0679 29.0826 22.6418 28.8839C22.2111 28.6899 21.7991 28.4155 21.4292 28.0796C21.0593 27.7437 20.7363 27.3368 20.4835 26.8778C20.2306 26.4189 20.0527 25.9127 19.9685 25.3781C19.9263 25.1131 19.9076 24.834 19.917 24.5643C19.9216 24.4886 19.9216 24.4176 19.9263 24.3419C19.9263 24.3609 19.9263 24.3325 19.9263 24.3277V24.2994L19.931 24.2426C19.9357 24.2047 19.9357 24.1716 19.9404 24.1338C19.9544 23.9871 19.9778 23.8404 20.0012 23.6938C20.2025 22.5299 20.7784 21.3944 21.6727 20.5333C21.8974 20.3204 22.1362 20.117 22.3937 19.9419C22.6512 19.7621 22.9228 19.606 23.2037 19.4735C23.4893 19.3411 23.7842 19.2323 24.0886 19.1518C24.3929 19.0714 24.7066 19.0146 25.0203 18.9862C25.1794 18.972 25.3386 18.9673 25.4978 18.9673C25.54 18.9673 25.5727 18.9673 25.6055 18.9673L25.7366 18.972L25.8162 18.9768C25.849 18.9768 25.8162 18.9768 25.8302 18.9768H25.863L25.9941 18.9862C26.3359 19.0146 26.6777 19.0619 27.0148 19.1424C27.689 19.2938 28.3444 19.5445 28.9578 19.8852C30.1798 20.5712 31.2238 21.6404 31.8606 22.932C32.1836 23.5755 32.4084 24.2662 32.5207 24.9806C32.5488 25.1604 32.5675 25.3402 32.5816 25.52L32.5909 25.6572L32.5956 25.7944C32.6003 25.8417 32.6003 25.8843 32.6003 25.9316C32.6003 25.9789 32.605 26.0262 32.6003 26.0594V26.1776L32.5956 26.3101C32.591 26.4 32.5863 26.5419 32.5816 26.6318C32.5675 26.8305 32.5488 27.0245 32.5254 27.2232C32.502 27.4172 32.4692 27.6112 32.4364 27.8052C32.399 27.9991 32.3569 28.1884 32.31 28.3776C32.2164 28.7561 32.0947 29.1346 31.9495 29.4989C31.6639 30.2323 31.28 30.9277 30.8212 31.5712C29.8988 32.8533 28.6394 33.8989 27.2067 34.5613C26.4904 34.8877 25.7319 35.129 24.9594 35.2568C24.5708 35.323 24.1775 35.3609 23.7842 35.375L23.7093 35.3798H23.6485H23.522H23.3301H23.2318C23.2833 35.3798 23.2224 35.3798 23.2271 35.3798H23.1896C22.9789 35.375 22.7682 35.3656 22.5576 35.3467C21.7148 35.2852 20.8861 35.1338 20.0808 34.8972C19.2755 34.6606 18.4936 34.3437 17.7539 33.9462C16.2744 33.1467 14.9541 32.0538 13.9194 30.7338C13.3997 30.0761 12.9455 29.3712 12.571 28.6284C12.1964 27.8856 11.9015 27.1049 11.6814 26.3101C11.4661 25.5105 11.3303 24.6968 11.2788 23.8735L11.2694 23.7174L11.2647 23.6796V23.6465V23.5802L11.2601 23.443V23.4099V23.3626V23.268L11.2554 23.0787V23.0409C11.2554 23.0456 11.2554 23.0456 11.2554 23.0267V22.951C11.2554 22.8516 11.2601 22.7523 11.2601 22.6482C11.2741 22.2413 11.3069 21.8249 11.3631 21.4086C11.4146 20.9923 11.4848 20.5712 11.5691 20.1548C11.6533 19.7385 11.7563 19.3269 11.8687 18.9247C12.0981 18.1157 12.3837 17.3303 12.7255 16.5875C13.4044 15.1019 14.2939 13.7914 15.3661 12.7411C15.633 12.4761 15.9092 12.2254 16.1995 11.9935C16.4851 11.7617 16.7847 11.5441 17.0937 11.3406C17.3981 11.1372 17.7164 10.948 18.0442 10.7776C18.2034 10.6877 18.3719 10.612 18.5358 10.5316C18.6201 10.4938 18.7043 10.4559 18.7886 10.4181C18.8729 10.3802 18.9572 10.3424 19.0414 10.3092C19.3785 10.1626 19.7297 10.0443 20.0808 9.93075C20.1698 9.90236 20.2587 9.87871 20.3477 9.85032C20.4366 9.82193 20.5256 9.80301 20.6146 9.77462C20.7925 9.72258 20.9751 9.68 21.153 9.63742C21.2419 9.61376 21.3356 9.59484 21.4245 9.57591C21.5135 9.55699 21.6071 9.53806 21.6961 9.51914C21.7897 9.50021 21.8787 9.48602 21.9723 9.4671L22.1081 9.44344L22.2439 9.42452C22.3375 9.41032 22.4265 9.39613 22.5201 9.38194C22.6231 9.36301 22.7261 9.35828 22.8291 9.33935C22.9134 9.32989 23.0538 9.31097 23.1381 9.30151C23.2037 9.29677 23.2692 9.28731 23.3348 9.28258L23.4659 9.26839L23.5314 9.26366L23.6063 9.25892C23.7093 9.25419 23.8123 9.24473 23.92 9.24L24.0745 9.23054C24.0745 9.23054 24.1307 9.23054 24.0839 9.23054H24.1166L24.1822 9.22581C24.2712 9.22108 24.3601 9.21634 24.4491 9.21161C24.8002 9.20215 25.1514 9.20215 25.5025 9.21161C26.2001 9.24 26.8837 9.3157 27.5485 9.44344C28.8782 9.69419 30.1282 10.1247 31.2613 10.6925C32.3943 11.2508 33.4103 11.9415 34.2905 12.689C34.3467 12.7363 34.3982 12.7837 34.4544 12.831C34.5059 12.8783 34.562 12.9256 34.6135 12.9729C34.7212 13.0675 34.8242 13.1669 34.9272 13.2615C35.0302 13.3561 35.1286 13.4555 35.2269 13.5548C35.3252 13.6542 35.4235 13.7535 35.5125 13.8529C35.887 14.2551 36.2335 14.6572 36.5425 15.0641C37.1699 15.8778 37.6708 16.7011 38.0688 17.477C38.0922 17.5243 38.1203 17.5716 38.1437 17.6237C38.1671 17.671 38.1905 17.7183 38.214 17.7703C38.2608 17.8649 38.3076 17.9596 38.3497 18.0542C38.3919 18.1488 38.4387 18.2434 38.4761 18.3333C38.5183 18.428 38.5557 18.5178 38.5932 18.6077C38.743 18.972 38.8788 19.3174 38.9865 19.6439C39.1691 20.169 39.3048 20.6469 39.4078 21.0632C39.45 21.2288 39.6045 21.3376 39.773 21.3234C39.9463 21.3092 40.082 21.1626 40.0867 20.9875C40.0586 20.5144 40.0493 19.994 39.9978 19.3978Z" fill="black"/>
</svg>
