<svg fill="none" xmlns="http://www.w3.org/2000/svg" viewBox="0 0 197 50"><path fill-rule="evenodd" clip-rule="evenodd" d="M1.223 13.843c1.48 0 2.511.313 3.152.953.716.715 1.037 1.898 1.037 3.833v24.172c0 3.345-.702 4.837-4.844 4.837H0v1.483h18.617v-1.476l-.562-.008c-4.103-.049-4.795-1.532-4.795-4.836V18.628c0-1.93.32-3.107 1.036-3.822.647-.65 1.696-.965 3.207-.965h1.113v-1.504H0v1.504h1.223v.002ZM60.765 36.79s-.324-1.51-.37-2.354v-11.04c-.073-6.438.806-9.643-4.829-9.619v-1.446h12.962v1.446c-5.803-.023-5.073 3.182-5.106 9.619v25.779l-1.845-.02-27.99-29.261s.314 1.506.36 2.352v18.079c-.158 6.595.66 7.392 4.913 7.315v1.506H25.347V47.64c4.26.005 5.096-.561 5.091-7.853v.436-17.817l-.034-2.828c.159-3.66-1.195-5.784-5.326-5.75v-1.447h12.44L60.766 36.79ZM107.687 11.629h-1.429l-.066.488c-.097.73-.385 1.951-1.217 1.951-.237 0-.828-.111-1.495-.416-2.893-1.252-6.642-2.023-9.799-2.023-6.142 0-11.715 2.198-15.695 6.19-3.656 3.67-5.656 8.664-5.627 14.06.026 5.17 2.06 9.422 6.225 13.007C82.779 48.47 87.478 50 94.31 50c5.69 0 8.948-.816 13.947-3.497l.875-.474v-9.645c0-4.111.504-4.751 3.853-4.886l.544-.021v-1.433H97.171v1.433l.544.02c3.73.146 4.434.814 4.434 4.212v8.939c-2.767 1.823-4.778 2.516-7.314 2.516-3.753 0-7.092-1.45-9.657-4.008-3.003-3.003-4.468-7.375-4.468-12.316 0-5.323 1.419-9.864 4.342-12.782 2.327-2.324 5.417-3.615 8.942-3.615 3.15 0 6.808 1.35 9.317 3.338 2.04 1.668 3.099 3.283 3.898 5.951l.121.404h1.397l-1.04-12.507ZM194.838 22.454c.296.65.565 1.329.806 2.032 1.296 3.79 1.756 8.244.88 12.223a16.286 16.286 0 0 1-.741 2.46c-.417 1.28-1.062 2.35-1.878 3.494a18 18 0 0 1-3.346 3.516c-2.415 1.688-5.532 2.447-8.605 1.974-.588.543-1.335.63-2.082.717-.173.02-.345.04-.516.067h-8.204c-.06-.299.031-.503.125-.714.084-.186.169-.377.153-.642.105-.576.274-1.288.908-1.459l.002-.002.005-.005.01-.01c.016-.014.027-.024.019-.042.205.54.459 1.126.768 1.657.415-.232.645-.68.692-1.139-.084-.506-.449-.907-.831-1.288l-.114-.033c.194-.142.319-.341.445-.544.091-.146.183-.293.302-.422.046.048.093.1.142.155.269.301.588.657.998.513l.026-.012c.16-.068.376-.161.387-.38-.021-.029-.027-.066-.034-.102-.012-.063-.023-.124-.104-.139-.226-.143-.444-.364-.666-.589-.541-.55-1.102-1.12-1.851-.608-.978 1.07-1.809 2.244-2.014 3.645l-.197 2.16c-.19-.008-.388.006-.585.02-.302.023-.603.045-.875-.02.062-.462.033-.925.003-1.389-.036-.56-.072-1.12.055-1.68.177-.06.328.074.481.211.076.068.152.136.233.182.033.067.139.067.173 0 .031-.114.107-.222.182-.33.146-.21.291-.42.117-.67-.097-.246-.328-.45-.548-.647a5.861 5.861 0 0 1-.199-.181c.056-.278.224-.516.391-.754.068-.096.136-.193.196-.291.058.007.065.036.074.072.006.02.011.043.028.065a.79.79 0 0 0 .691.218c.024-.009.058-.014.094-.02.122-.017.273-.04.158-.198a.738.738 0 0 0-.087-.218c-.071-.137-.141-.272-.027-.392.167-.06.359-.006.549.046.28.078.555.154.737-.136.025-.042.049-.092.073-.15-.725-.435-1.463-.873-2.427-.61-.35-.047-.519.18-.694.415-.095.127-.192.257-.319.345a1.003 1.003 0 0 1-.127.068c-.54-.093-1.095-.014-1.63.063a7.627 7.627 0 0 1-.958.098l-1.472 2.24c.009.196.007.406.005.622-.006.597-.013 1.24.225 1.747.287.436.528.803.736 1.275h-15.759c.23-.505.679-1.023 1.046-1.412.03.103.131.14.233.177a.66.66 0 0 1 .159.074l1.104.22.179-.063c.327-.115.661-.232.924-.467a10.7 10.7 0 0 0-.977-.44c-.363-.15-.726-.299-1.068-.491.013-.168.038-.347.063-.53v-.001c.103-.75.219-1.588-.363-2.124-.297-.226-.666-.288-1.033-.35-.117-.019-.234-.038-.349-.064-.541.185-1.151.438-1.438 1-.426-.436-.898-.839-1.461-1 .019-.206.058-.42.101-.64l.018-.089c.036-.177.073-.357.101-.534.669-.384 1.436-.137 2.154.095h.001c.207.067.41.133.606.181.08 0 .156.02.231.038.107.027.212.054.321.021.031-.078-.024-.115-.083-.156-.055-.037-.113-.078-.113-.155-.804-1.207-2.219-1.344-3.645-1.16-.263.025-.412.272-.548.496-.18.298-.335.554-.696.193-.267-.071-.516.013-.771.098-.196.066-.395.133-.61.133l-.933.356c-.098.16-.194.32-.29.485-.473.816-.893 1.656-1.308 2.491.015.242-.005.5-.025.762-.044.56-.088 1.136.209 1.584.209.425.485.92.784 1.274h-20.328c-.713-.954-1.149-2.244-.907-3.487.171-.551.447-1.103.966-1.459a2.497 2.497 0 0 1 .178-1.091c.201-.48.552-.89 1.005-1.232.634-.425 1.462-.562 2.269-.413.907-.953 2.344-1.217 3.589-.804.299.127.585.264.85.45.377-.739.591-1.545.805-2.352.158-.597.317-1.194.542-1.763a7.05 7.05 0 0 1 .206-.472c.209-.437.391-.898.575-1.363.279-.708.561-1.423.945-2.068-.933-2.562-1.747-5.25-2.263-7.974.022-.156.115-.3.232-.427a2.14 2.14 0 0 1 .35-.287 12 12 0 0 0 .576-1.689c-.141.018-.278.092-.419.167-.124.066-.251.134-.385.167-.056.088-.124.171-.191.254-.125.153-.25.306-.301.493-.116-.038-.158-.238-.196-.418l-.025-.113c.019-.247-.031-.511-.082-.775-.099-.52-.199-1.04.243-1.429l.667-.551c.009-.443.058-.876.106-1.308l.032-.29h-.116c-.101.095-.221.185-.343.277-.307.23-.628.472-.704.826h-.057l-.023-2.344c.088-.07.19-.134.296-.201.154-.098.315-.2.451-.328-.104-2.62.08-5.183.793-7.493.146-.375.394-.699.642-1.023.124-.162.248-.324.359-.492.008-.163.013-.327.019-.491.015-.497.03-.991.142-1.44.215-.128.418-.305.623-.483.201-.176.404-.352.62-.483-.145-.12-.366-.144-.579-.168a3.486 3.486 0 0 1-.215-.029c.378-1.032 1.185-1.897 1.977-2.676l.117-.09c.317-.248.628-.49.987-.624.113-.01.178.058.247.13l.031.031c.323.032.634.103.942.173.46.105.915.21 1.403.182-.265-.425-.725-.85-1.264-.85l.1-.056c.726-.311 1.226-.519 2.009-.668.064.363.302.656.54.948.184.226.367.452.468.708l.472.39a5.211 5.211 0 0 1-.012-.642c.012-.626.025-1.282-.526-1.68-.035-.15.138-.115.22-.08.872.356 1.733.827 2.55 1.299l.336-.164c.401-.197.809-.397 1.213-.548-.052.238-.126.485-.202.738-.161.538-.332 1.107-.325 1.709.221-.159.401-.399.585-.645.124-.166.25-.334.392-.482-.02-.336.17-.62.356-.898.107-.16.213-.317.276-.48.611-.173 1.6-.288 2.198 0-.559.091-.539.511-.52.895l.006.128.056.044c.472-.103 1.136-.285 1.504-.655.634.105 1.049.197 1.557.575-.066.032-.134.063-.204.094-.394.18-.832.378-1.096.77.702-.024 1.45-.068 2.151-.174l.311-.194c1.641 1.023 2.275 2.738 2.878 4.371h.001v.001l.182.488c-.11-.02-.22-.071-.333-.125-.138-.064-.281-.132-.439-.15l.032.149c.066.32.148.717.543.815.408.043.587.331.772.63.071.115.143.23.228.335.273.269.587.503.901.737.615.459 1.23.917 1.527 1.632.552.91.765 1.962.978 3.012.128.636.257 1.27.46 1.873-.16-.214-.426-.28-.7-.349-.256-.064-.52-.13-.713-.32.066.495.354 1.036.802 1.334.268.144.549.253.832.363.13.05.259.101.389.155.449.781.62 1.667.77 2.563-.332-.196-.654-.38-1.022-.495l-.059.058c.047.745.575 1.379 1.218 1.713.012.346.029.672.045.995.013.265.026.527.036.795 1.12.9 2.593 1.682 4.053 1.862.277.035.563.049.857.035.177.001.353-.034.527-.07.128-.025.255-.05.38-.061 1.211-.102 2.323-.44 3.313-1.07-.091-.815.172-1.562.806-2.113.884-.977 2.335-.92 3.509-.61 1.915.712 3.407 2.14 4.608 3.793 1.007 1.386 1.807 2.93 2.478 4.345 1.05 2.466 1.619 5.031 1.739 7.883l.002.053.002.048c.002.05.003.101.006.151a24.229 24.229 0 0 1-.435 5.798c-.063.33-.134.657-.211.976-.034.177.109.237.242.293.047.02.092.038.128.062 2.193.603 4.322.012 6.049-1.331a9.362 9.362 0 0 0 1.509-1.484c1.206-1.32 1.958-2.847 2.642-4.47 1.283-3.896 1.041-8.492-.241-12.228-.069-.2-.14-.4-.215-.596-1.532-4.091-5.05-8.403-9.172-10.287-.795-.137-1.558-.022-2.325.093-.85.127-1.705.255-2.618.044-1.209-.357-2.391-.955-3.254-1.967l.032-.102c.679.082 1.322.24 1.933.495.013-.16-.07-.301-.155-.445-.067-.116-.135-.233-.156-.36.713-.174 1.426-.332 2.186-.38-.255-.551-.758-.59-1.263-.627-.315-.024-.632-.048-.888-.198-.07-.004-.141-.014-.213-.024-.177-.026-.357-.051-.513.024.022.103.06.2.098.3.064.164.128.331.12.525-.21.055-.417-.016-.627-.087-.145-.049-.291-.099-.441-.108a1.167 1.167 0 0 1-.259-.017c-.183-.024-.364-.049-.489.099-.243-.312-.435-.673-.629-1.036-.392-.736-.79-1.484-1.636-1.86l.034-.115a23.71 23.71 0 0 0 1.763-.542c1.435-.482 2.877-.967 4.529-.78l.089.02c.225.048.455.097.659.198l-.611.55c.552.52 1.186.945 1.99.921l.047-.057c-.052-.354-.236-.655-.421-.958a7.05 7.05 0 0 1-.074-.122c.605.101 1.087.568 1.556 1.022.118.115.236.228.354.335 1.08 1.906 2.839 3.75 4.753 4.942 3.398 2.117 5.601 5.725 7.221 9.07Zm-51.562 23.153a2.991 2.991 0 0 0-.422.208c-.213.771.126 1.364.464 1.954.215.376.429.751.501 1.171h1.634c-.598-.976-.772-2.228-.909-3.401.07-.793.148-1.655.357-2.344l-1.516.493c-.032.1-.069.2-.106.3-.076.2-.15.4-.173.584l.472-.137c.159.035.291.144.426.256.041.034.083.069.125.101-.073.48-.469.65-.853.815Zm3.111-1.172h.091l1.102 1 .161-.034a52.349 52.349 0 0 0-.161 3.54h-1.195c-.058-.274-.125-.55-.194-.83-.216-.884-.44-1.798-.404-2.732.075-.112.14-.235.206-.357.115-.217.23-.432.394-.587Zm2.63.82c-.054.102-.107.202-.171.285l-.413 3.401h1.162c.252-.724.529-1.527.692-2.297.03-.105.071-.216.113-.33.162-.437.343-.926.024-1.325-.232-.22-.52-.267-.831-.275-.309.039-.445.294-.576.542Zm17.281-.072c.096.123.167.262.24.403.117.23.237.465.472.643.335-.46.415-1.173.254-1.758l-.333-.334c.253-.061.514-.098.774-.135.177-.025.353-.05.526-.083-.053.173-.118.34-.183.509-.166.425-.332.853-.289 1.364.007.678.083 1.356.161 2.047.041.363.082.73.114 1.101h-1.264l-.052-.113c-.442-.971-.868-1.907-.835-3.035.044-.066.084-.136.123-.205.083-.149.166-.295.292-.404ZM151.669 12.58c-.219.287-.552.358-.829.413.484-.883.714-2.113.334-3.114.085-.03.173-.056.261-.082.174-.05.349-.102.509-.193l-.023-.025.633-.55c.543-.373.599-.96.656-1.551.03-.321.061-.644.171-.932a5.375 5.375 0 0 1-.384-.762c-.191-.433-.381-.865-.754-1.202l.034-.024c-.304-.385-.766-.493-1.228-.601-.255-.06-.51-.119-.739-.225-.733-.247-1.319.15-1.857.515-.089.06-.176.119-.262.174-.127.022-.155.113-.183.2-.029.095-.057.185-.207.178l-.101.263c-.136.35-.28.718-.372 1.094-1.138-.16-2.369-.034-3.277.609-.37-.272-.797-.376-1.229-.481-.135-.033-.27-.066-.405-.105a2.333 2.333 0 0 0-.484-.026c-.263.003-.514.007-.699-.136-.15-.169-.26-.386-.369-.603-.21-.415-.42-.83-.911-.912-.264-.093-.32-.38-.32-.634-.268-.044-.52-.132-.772-.22a5.432 5.432 0 0 0-.642-.193c-.637-.289-1.161.068-1.648.399a9.32 9.32 0 0 1-.227.152c-.096.04-.198.07-.3.1-.155.046-.31.092-.449.175-.413.645-.802 1.3-1.07 2.011.082.586.334 1.102.634 1.598.264.746 1.093 1.333 1.793 1.633a6.76 6.76 0 0 0 0 3.64s-.018.017-.018.013c0 .004-.037.034-.037.034l-.071.002c-.087.004-.177.008-.247-.036h-.004l-.005-.004-.009-.006.002.006.001.006c.165 1.097.682 2.059 1.517 2.882.196.068.234.245.272.423.02.094.04.188.083.266.081.105.094.322.059.414-1.796-.056-3.395.392-4.833 1.207-.269.135-.255.441-.242.736.005.108.01.214.001.31 1.013-.668 2.104-1.16 3.313-1.38.134-.008.272-.023.413-.038.401-.043.818-.087 1.186.015l.056.99c-.388.203-.786.382-1.185.56-1.005.45-2.011.9-2.85 1.74.008.122.004.252.001.381-.006.245-.012.49.055.686l1.049-.85c1.012-.771 2.07-1.426 3.23-1.85l.047.054c.298.35.608.717 1.002.934a7.749 7.749 0 0 1 2.267-.989c.168-.1.376-.124.584-.149.316-.037.63-.074.796-.379l.194-1.046-.023-.02c-.023-.023-.048-.047-.091-.039-.54-.31-.897-.85-.851-1.48-.184.09-.389.15-.609.158-.182-.044-.357-.091-.437-.277-.002-.05-.01-.104-.017-.162-.028-.207-.06-.448.122-.582.746-.46 1.713-.484 2.656-.415.102.014.211.025.322.036h.001c.656.066 1.426.142 1.634.85-.006.042-.01.086-.015.13-.02.202-.04.405-.239.536-.236.128-.501.007-.723-.094l-.048-.022c-.183.564-.494 1.196-1.126 1.38l.079.665c.011.043.021.09.031.138.063.29.139.64.544.551 1.093.267 2.06.83 3.014 1.437.323-.32.574-.688.803-1.021l.001-.002c1.639.555 3.062 1.755 4.419 2.9l.162.137.055-.967c-1.334-1.185-2.817-2.022-4.36-2.677l.029-.147c.051-.26.101-.516.112-.797 1.827.105 3.564.668 5.07 1.551l-.023-.826c-1.587-.851-3.324-1.414-5.221-1.436a.564.564 0 0 1-.081-.356c.921-.148 1.575-1.101 1.795-1.931.063-.073.131-.146.199-.22.441-.481.931-1.014.792-1.71.019-.067.043-.137.067-.207.06-.198.112-.409.046-.595Zm-17.751-2.619-.908.528.022-.944c.103-.106.195-.222.287-.338.175-.22.349-.441.599-.591v1.345Zm-1.356 4.114.666 2.069c-.006-.538.105-1.035.216-1.53.131-.586.262-1.169.199-1.815l.493-.737-1.047.323c-.276.528-.505 1.057-.527 1.69Zm39.177 9.027c-.004.1-.031.203-.058.306-.054.206-.107.41.023.58.19-.212.464-.274.736-.336.126-.029.253-.058.37-.101.852-.078 1.673.133 2.474.339.161.041.321.082.481.121a6.73 6.73 0 0 1-.27-.485c-.122-.232-.242-.462-.398-.664-.162-.043-.35-.038-.535-.033-.42.012-.827.023-.89-.521-.243-.207-.589-.147-.888-.095-.098.017-.191.033-.274.039-.323.23-.586.516-.771.85Zm-30.285-.373-.691.666c-.496-.623-.658-1.485-.531-2.263 1.887-.976 4.393-.85 6.348-.219.092.069.194.11.296.151.156.064.312.126.429.285-.157.921-.436 1.805-1.103 2.483a4.512 4.512 0 0 0-.326-.577 4.755 4.755 0 0 1-.284-.492c-.173-.008-.158.08-.142.182.011.068.023.142-.019.198-.022.132-.054.26-.085.387-.063.257-.125.513-.11.806-.389.185-.85.322-1.358.3l-.016-.118c-.02-.145-.043-.314-.061-.458-.135-.227-.167-.497-.199-.767-.015-.125-.03-.25-.055-.37l-.081-.078c-.155.105-.184.28-.214.456-.018.11-.036.219-.085.311-.05.101-.114.196-.178.29-.124.185-.248.368-.271.596-.438-.025-.85-.127-1.183-.438l.057-1.275c-.034-.045-.079-.056-.138-.056Zm-18.975 22.23c-.063.795-.013 1.545.039 2.322l.018.268c.184.288.519.622.853.642l.056-.587c.054-.32.02-.648-.014-.97-.053-.498-.104-.982.176-1.4.322.101.644.263.921.412.137-.758-.059-1.644-.784-2.105l-1.265 1.419Zm2.601 3.177c-.541-1.417-.208-3.073.241-4.419.166-.488.472-.915.779-1.343l.164-.231 1.379-.138c-.366.199-.426.562-.485.92a4.557 4.557 0 0 1-.043.24c.094.071.223.104.35.137.248.064.494.127.478.462.149.64.023 1.309-.359 1.79-.216-.527-.597-1.067-1.16-1.24-.578.806-.516 1.817-.457 2.797l.02.335c-.236.246-.506.424-.774.602l-.133.088Zm3.083-.448c.023.04.028.093.032.144.007.079.014.153.085.167.106-.603.45-1.072.798-1.547.21-.287.421-.576.582-.897.08-.11.127-.237.174-.366.075-.203.15-.407.355-.54.236 0 .437.09.639.179.181.08.362.16.569.177.086.065.037.125-.015.19-.031.038-.063.078-.067.12a7.568 7.568 0 0 1-.163.849c-.104.448-.205.886-.17 1.386h.079c.587-.62.992-1.285 1.422-1.99l.051-.083.079-.654c.106-.782-.745-1.287-1.301-1.61l.496-.633-.691-.24c-.805.079-1.531.413-2.094 1.047-.7 1.284-.815 2.738-.86 4.301Zm3.459-6.84c-.12.029-.239.057-.364.02.011-.473.252-.874.611-1.185l.252-.056c-.017.041.004.065.024.088a.179.179 0 0 1 .021.026c.093-.081.265-.081.334.024l.114.138c.081.01.178.009.278.007.311-.006.649-.013.632.36.125.104.309.171.495.239.41.15.832.303.666.865-.016.051-.041.105-.066.16-.083.18-.173.376-.015.552.054.003.11.004.168.006.479.015 1.08.033 1.317.546l.311.801-.472 1.485-.944-2.403c-.785-.875-1.874-1.277-2.923-1.665l-.034-.012c-.139-.06-.272-.028-.405.004Zm.302-2.623a.746.746 0 0 0 .241.39c.14-.037.279-.09.419-.145.376-.144.758-.291 1.192-.131l.032.027c.762.67 1.557 1.368 2.477 1.73l.334-.057c.042.014.085.026.128.037.168.045.336.09.445.274.085.207-.029.357-.145.509a1.03 1.03 0 0 0-.151.236c.298.22.356.54.413.858.042.233.083.465.219.659l.827-1.102c-.057-.142-.079-.314-.102-.486-.054-.416-.108-.837-.643-.87a.72.72 0 0 1-.417-.666c-.242-.22-.512-.38-.783-.539-.281-.165-.562-.33-.813-.565a3.329 3.329 0 0 1-.377-.368c-.226-.246-.446-.485-.785-.561-.358-.197-.749-.3-1.162-.39-.488-.074-.695.265-.909.615-.126.204-.253.413-.44.545Zm1.244-2.044-.138-.22.929-1.162a5.7 5.7 0 0 0 .888.132c.701.067 1.401.135 1.826.753.153.104.316.197.48.29.305.175.611.35.844.596l-.012.035c-.04.115-.065.186-.022.323.106.09.231.17.358.251.159.102.32.204.448.332.181.448.331 1.024.193 1.52v.354c-.322-.733-.838-1.736-1.771-1.874-.431-.27-.753-.713-1.049-1.12l-.054-.073c-.181-.092-.385-.138-.589-.184-.236-.054-.473-.107-.676-.23m-1.655.277c.263-.016.514-.078.762-.139Zm-.158-8.65c.102.357.226.804.296 1.184.215-.477.571-.78.952-1.103a7.3 7.3 0 0 0 .567-.516c-.323-.219-.725-.323-1.08-.39v-.024c-.063.062-.134.124-.206.187h-.001c-.222.194-.46.402-.528.662Zm2.606 3.253-.516.529c.008-.594.116-1.149.223-1.697.039-.197.077-.393.111-.59.355-.126.838-.276 1.205-.059-.077.677-.505 1.287-1.023 1.817Zm.253 2.177c.655.053 1.281.103 1.819-.27l.645-2.069a1.629 1.629 0 0 1-.208-.03c-.138-.026-.273-.051-.403-.004-.425.94-1.275 1.873-2.244 2.345.131.008.262.018.391.029Zm2.108-5.51c-.884-.243-1.748-1.092-2.265-1.85l-.059-.282c-.091-.428-.183-.863-.138-1.315.345.17.748.39 1.082.712l.023.276c.151.292.352.565.553.837.368.498.738.997.804 1.622Zm.539 5.573c.609.103 1.266 0 1.828-.173.816-.196 1.266-1.092 1.541-1.792h-1.023l-1.103 1.08c-.388.203-.759.5-1.113.782l-.002.001-.128.102Zm.948-5.986c-.518-.77-.899-1.585-1.072-2.483l1.208.77-.136 1.713Zm2.698 1.987c.046-.375-.04-.79-.125-1.194-.045-.216-.09-.429-.113-.632-.175-.117-.384-.169-.595-.221-.206-.051-.413-.103-.59-.215.024.905.734 1.676 1.423 2.262Zm1.049 4.988c-.669.367-1.37.62-2.094.85a2.28 2.28 0 0 1 .289-.342c.18-.187.366-.381.424-.623.441-.3.653-.73.863-1.16m.518 1.275c.119-.172.256-.339.393-.506Zm.393-.506c.35-.427.701-.855.768-1.367Zm.768-1.367a2.524 2.524 0 0 1-.661.072Zm-.661.072c-.276.005-.544.01-.823.147Zm-.823.147c-.069.123-.131.25-.195.38Zm-.645 3.917.863 1.126c.46.148 1.036.104 1.437-.16l-.308-1.022c-.611.228-1.336.161-1.992.056Zm1.771-6.62-.333-1.515c.533-.244.8-.55 1.229-1.044l.051-.059c.024 1.01-.142 1.965-.947 2.618Zm1.935 1.16c.011.22.068.427.193.598.471.17.72.552.971.935.226.347.454.695.848.891.53.24 1.142-.047 1.609-.266l.021-.01a6.357 6.357 0 0 0-.507-.499c-.204-.186-.408-.373-.595-.602-.241-.104-.485-.253-.472-.552l-2.068-.495Zm2.182 6.228c-.551-.124-1.08-.356-1.469-.801a3.143 3.143 0 0 1-.164-.736c.197.014.408-.006.621-.028.134-.013.269-.026.403-.03l.691 1.517c-.011.037-.049.029-.078.023-.032-.007-.052-.011-.004.055Zm-.25-7.88c-.324-.747-.456-1.657-.551-2.482-.158.19-.319.35-.478.507a5.68 5.68 0 0 0-.546.595c-.111.633.537.91 1.083 1.143.187.08.363.154.492.237Zm3.231-.587c-.506.162-1.413.346-1.83-.197-.708-1.048-.232-2.2.168-3.172l.008-.02c.254.721.417 1.494.495 2.287.075.242.339.424.604.606.222.153.445.307.555.496Zm-1.104 2.24.29.213c1.053.78 2.124 1.572 3.597 1.245.04-.027.09-.044.139-.06.092-.031.181-.061.195-.157-.286-.18-.584-.337-.881-.493h-.001v-.001h-.001a18.38 18.38 0 0 1-.577-.312l-.551-.803h-.253c-.622.205-1.289.289-1.957.367Zm.106 9.32h-.083l.091-.254c.136-.385.284-.805.464-1.161.136-.043.273-.094.411-.145.337-.125.677-.251 1.027-.268.345-.162.76-.24 1.127-.24l.034.16c1.542-.023 3.21.068 4.278 1.32l.083.806c-.209-.142-.455-.216-.701-.29-.352-.105-.702-.21-.934-.516-.481-.257-.963-.274-1.551-.295l-.049-.002c-.234.08-.489.113-.745.147-.294.038-.588.076-.853.186-.095-.044-.111-.123-.128-.202-.018-.085-.036-.17-.149-.212l-.237.066c-.737.202-1.463.401-2.085.9Zm.842-14.123c.447.587 1.114 1.036 1.874.886l-.08-.077c-.369-.36-.762-.742-.783-1.245.079-.696-.418-.957-.918-1.218-.234-.123-.469-.246-.645-.415.061.23.1.47.138.709.076.477.152.954.414 1.36Zm.019 16.156h-.137c.028-.08.053-.17.078-.26v-.001c.109-.39.23-.827.716-.865.261-.238.59-.253.933-.27.186-.009.377-.018.564-.063l.966-.297c.753 0 1.409.245 2.066.49.356.133.712.267 1.085.36.517.356.783.906.85 1.493.081.054.186.091.293.129.23.08.463.163.455.422a5.854 5.854 0 0 0-.237.72c-.069.24-.138.483-.235.717a7.696 7.696 0 0 1-.189-.436c-.262-.638-.56-1.364-1.328-1.493-.127-.426-.277-.887-.691-1.139l-1.219-.16-.048.056c.056.148.188.278.321.41.249.245.503.496.277.88.128.178.318.286.508.395.238.135.476.271.597.545.179.241.15.54.121.838-.018.185-.036.37-.005.54l-.886.55c-.007-.157-.004-.325-.001-.497.014-.76.029-1.604-.747-2.006-.492.15-.706-.193-.932-.556-.138-.222-.281-.451-.495-.58-.085-.048-.142-.14-.197-.23-.093-.152-.18-.294-.389-.185-.305.205-.684.231-1.063.257-.366.025-.732.05-1.031.236Zm.471-4.734.22.105.428-.205c.331-.16.664-.323 1.01-.451.342-.097.65.022.943.135.367.142.711.275 1.071-.032.199-.142.377.009.537.143.031.027.063.053.093.077.211.38.626.454 1.025.526.132.023.261.047.381.08l-.027-.073c-.238-.645-.546-1.48-1.354-1.58a2.353 2.353 0 0 0-.459-.134c-.203-.044-.407-.089-.587-.2-.482-.53-.872-.246-1.283.054-.345.252-.705.515-1.148.316a9.87 9.87 0 0 1-.182.194h-.001c-.297.311-.6.629-.667 1.045Zm.453 5.812a4.66 4.66 0 0 0-.233-.215l.355-.141a.77.77 0 0 0 .245-.042c.138-.039.275-.077.39.01l.035.03c.249.215.46.397.493.75.125.085.264.08.404.077.144-.005.29-.01.423.083.197.404.358 1.014.243 1.356l-.024-.032-.058.057.034.024-.414.369c-.158-.202-.203-.477-.248-.756-.066-.406-.132-.818-.554-1.015-.457.055-.79-.265-1.091-.555Zm1.205-14.223c.291.485.793.828 1.277 1.16.145.099.289.198.425.299a2.73 2.73 0 0 0 1.634.16 10.517 10.517 0 0 1-1.357-1.344c-.067-.095-.112-.2-.157-.304-.064-.15-.129-.3-.257-.42a7.551 7.551 0 0 1-.4.061c-.424.058-.851.117-1.165.388Zm2.184-3.683c-.578.035-1.147.069-1.549-.43.276-.243.62-.53.942-.632l1.15.965v.081a6.085 6.085 0 0 0-.543.016Zm-1.079-10.107-.942.3.472-2.781c.068.15.153.297.24.446.264.457.535.927.336 1.508l-.106.527Zm1.439 3.94c.078.087.156.183.235.28.377.46.789.966 1.444.767-.038-.218-.13-.41-.22-.601-.048-.102-.096-.204-.136-.308a1.325 1.325 0 0 1-.166-.308c-.116-.268-.238-.548-.525-.38-.206-.137-.31-.335-.414-.533-.053-.101-.106-.202-.173-.295-.061.291-.054.63-.048.951.003.149.006.293.003.428Zm.355 3.755c-.054-.133-.109-.269-.194-.387.113-.025.227-.061.34-.097.362-.116.723-.231 1.066.038.159.14.293.303.426.463.183.221.362.438.595.584-.178.12-.325.058-.479-.008-.124-.053-.252-.108-.405-.072-.381.033-.842.068-1.152-.137-.087-.111-.141-.247-.197-.384Zm.416 4.958c.794.47 1.802.93 2.861.77a.637.637 0 0 1 .125-.04c.096-.024.193-.049.208-.143-.287-.101-.581-.284-.879-.469-.38-.237-.767-.477-1.153-.554-.235-.363-.515-.219-.808-.068-.181.093-.366.189-.55.171.007.09.068.164.123.231.029.036.057.07.073.102Zm2.562 10.513-.173-.367c.092.08.196.163.304.249.522.414 1.141.906 1.055 1.658l.035.252v.002c.13.921.264 1.866.022 2.78h-.057a3.15 3.15 0 0 1-.191-.333c-.123-.235-.245-.47-.477-.633.276-.876.029-1.66-.217-2.44-.122-.386-.243-.772-.301-1.168Zm.026-12.134c.597.46 1.552.505 2.241.276-.436-.24-.919-.507-1.276-.827l-.965.55Zm3.449 4.655c-.345-.243-.666-.645-.609-1.128-.032-.328.039-.61.11-.895l.026-.105c.449.334.725.783.829 1.277-.017.22-.119.405-.222.591-.047.085-.094.17-.134.26Zm-.575 4.113c-.055.36.194.511.44.66.123.075.245.149.328.248.127.154.048.278-.033.406-.052.083-.104.166-.104.26.437.563.691 1.204.691 1.953.061-.248.133-.493.206-.737.131-.443.263-.886.323-1.353-.022-.236-.208-.34-.388-.44-.206-.114-.404-.224-.337-.525.189-.471.038-.934-.106-1.372a7.424 7.424 0 0 1-.09-.284c-.044-.079-.15-.241-.239-.193a2.436 2.436 0 0 1-.304.47c-.204.27-.409.539-.387.907Zm2.173-1.575-.597-1.16.161-1.576c.141-.038.282.056.411.143l.082.054c.116.142.127.327.138.512.008.13.015.257.058.37.042.133.118.255.195.378.15.243.302.487.195.807-.052.047-.101.097-.15.147-.148.15-.295.3-.493.325Zm.171-4.218c.474.287 1.013.7 1.268 1.207.234.684.551 1.328.868 1.972.226.46.452.92.649 1.394l.107.497c.128.601.25 1.17.421 1.784.022.056.035.125.048.197.036.195.074.403.311.378.031-.298.071-.592.111-.886.078-.568.156-1.136.164-1.734-.221-.292-.495-.454-.773-.617a6.519 6.519 0 0 1-.25-.152v-.081c.046-.194.209-.426.448-.39a.77.77 0 0 1 .115-.094c.122-.089.263-.19.162-.343-.226-.224-.361-.51-.494-.789-.219-.462-.429-.905-1.023-1.02-.334-.138-.414-.484-.449-.803-.45-.382-1.116-.508-1.683-.52Zm.921 7.91c.061-.613.122-1.231-.365-1.68-.183-.565.223-.809.628-1.053.214-.128.428-.257.555-.432.123.23.117.527.111.826-.005.24-.01.482.051.691.023.112.051.228.08.346.121.492.252 1.03.014 1.493-.047.184.102.276.239.31.045.01.106.005.169 0 .17-.011.355-.024.281.218.006.127-.061.213-.125.295-.057.073-.111.142-.106.234-.165.355-.383.66-.605.97-.102.142-.204.285-.302.433l.015-.068.011-.048.001-.005c.125-.558.281-1.26-.051-1.751-.071-.095-.206-.108-.333-.121-.184-.018-.354-.035-.3-.293.008-.12.02-.242.032-.365Zm.703-9.839c.429.434.81.868 1.189 1.3.525.599 1.045 1.193 1.687 1.775.016-.31-.007-.604-.03-.9a16.76 16.76 0 0 1-.027-.4c-.132-.255-.359-.455-.577-.648a9.638 9.638 0 0 1-.138-.122c-.368-.036-.657-.28-.942-.52-.347-.292-.689-.58-1.162-.485Zm2.775 5.728c-.039-.084-.076-.163-.097-.253l.358-.138c.031-.003.064-.008.099-.013.213-.028.479-.064.567.175.507.437.421 1.052.334 1.666-.043.306-.086.613-.055.896-.311-.792-.737-1.55-1.185-2.287l-.021-.046Zm2.665 8.141c.307.143.696-.09 1.001-.27l.047-.028c.287-.069.528.093.748.242.054.108.044.213.034.317a.717.717 0 0 0 .001.212c.689.194 1.367.448 1.976.85l.194-.195c.047-.494-.342-.851-.712-1.128a1.002 1.002 0 0 0-.342-.096c-.166-.026-.329-.052-.428-.179.116-.184.116-.46.103-.666-.38 0-.622-.117-.93-.299a1.158 1.158 0 0 1-.134-.051c-.143-.061-.274-.117-.397.051-.276.187-.428.418-.572.637-.155.237-.302.46-.589.603Zm.844-14.47-.036.01c-.162-.311-.083-.77.079-1.081.143-.09.282-.203.422-.316.444-.36.892-.724 1.487-.373.311 0 .573.106.842.216l.078.031.07.028c.217.264.461.575.634.885a5.807 5.807 0 0 1-.814-.07c-.696-.093-1.421-.189-1.971.31-.231.2-.515.281-.791.36Zm-.016 2.377c0-.036 0-.072.034-.08.046.04.05.103.054.166.005.083.01.165.108.19.262-.131.507-.306.749-.479l.102-.072c.387 0 .696-.189 1.004-.377.305-.186.608-.371.985-.371 1.267.23 2.521.485 3.624 1.103-.079-.745-.725-1.425-1.379-1.758-.37-.126-.658.07-.921.277-.433.272-.495.015-.563-.265-.052-.218-.108-.45-.344-.46l-.114.036c-.668.207-1.357.42-2.096.354-.167.063-.315.158-.461.252-.258.167-.51.329-.84.299l-.01.167c-.023.343-.048.724.068 1.018Zm1.268 2.794c-.276-.02-.553-.038-.737-.233a5.196 5.196 0 0 1-.176-1.126c.158-.062.334-.087.509-.111.311-.044.62-.087.826-.337.704-.443 1.508-.198 2.251.028.203.062.401.122.591.167.241.023.497-.114.691-.298.185.068.352.178.518.288.227.15.453.298.725.344l.053.205v.002c.099.378.196.75.244 1.149-.361.148-.707-.01-1.057-.171-.197-.09-.396-.181-.599-.219-.276-.137-.528-.356-.38-.712.029-.036.026-.08.023-.122-.002-.026-.004-.052.002-.074-.325-.238-.655-.099-.983.039-.16.067-.319.134-.477.157-.137.05-.279.046-.418.042-.212-.006-.416-.012-.583.176-.037.111.037.177.111.243.062.055.124.11.119.192l-1.001.393c-.082-.01-.167-.016-.252-.022Zm-.357 6.6-.035.088c-.078.192-.179.44.128.52.215.007.448-.021.684-.05.572-.068 1.163-.139 1.57.268.156.12.127.344.103.528a2.453 2.453 0 0 0-.014.127l.966.805a8.13 8.13 0 0 1 .114-.485c.079-.307.157-.613.165-.953-.081-.368-.265-.723-.587-.964-.297 0-.536-.163-.775-.326-.272-.186-.545-.372-.906-.324-.196-.043-.379.034-.563.111-.15.063-.301.126-.461.126a1.956 1.956 0 0 0-.237.312c-.049.074-.097.147-.152.216Zm.349-5.258c-.026-.057-.05-.112-.074-.161a.35.35 0 0 0-.024-.08c-.018-.045-.035-.09-.02-.15.087-.019.178-.03.27-.04.248-.03.502-.061.695-.236.816-.197 1.679-.115 2.45.137.029.363.272.564.515.763.249.205.497.41.509.788l.115.69a8.233 8.233 0 0 0-.684-.359 8.43 8.43 0 0 1-.592-.306c.056-.185.056-.472-.196-.516-.759-.323-1.75-.138-2.428.158-.241-.028-.402-.39-.536-.688Zm.122 3.563c.202-.058.371-.19.541-.32.207-.161.413-.321.679-.347.735.012 1.391.312 1.852.945.117.077.174.207.228.33.073.167.141.322.347.322-.061-.325-.025-.635.011-.95.027-.23.054-.462.044-.705-.229-.383-.622-.442-1.018-.501-.434-.065-.873-.131-1.108-.625l-.85.058c-.464.115-.482.554-.499.97a2.95 2.95 0 0 1-.03.377c-.022.046-.051.09-.079.133-.063.094-.125.188-.118.313Zm4.751 5.788c-.196-.245-.393-.49-.528-.761l.47-.967c.4.255.758.656.908 1.081a2.046 2.046 0 0 1-.061.233c-.057.19-.116.384-.041.595.043.078.116.123.186.166.095.06.185.115.192.247l-.016.031c-.12.233-.245.474-.42.682-.049-.506-.369-.906-.69-1.307Zm.887-2.577.827 1.127c.355-.562.355-1.391.217-2.07-.078-.127-.229-.333-.435-.24-.175.182-.267.419-.359.657-.07.183-.141.366-.25.526ZM176.71 8.856c-.359-.023-.647-.16-.945-.31.299-.082.571-.228.844-.373.305-.163.61-.325.951-.398.504.241 1.001.495 1.438.91a2.175 2.175 0 0 0-.559.072c-.31.068-.613.134-.879-.038-.298-.083-.611.01-.85.137Zm3.553.767c.558.053.972.51 1.354.93l.106.117c.517.078.908.448 1.218.826l-.193-.608c-.137-.607-.517-1.078-.905-1.558l-.005-.006c-.551.035-1.093.083-1.575.3Z" fill="#000"/><path fill-rule="evenodd" clip-rule="evenodd" d="m137.669 4.62-.335-.036c-1.094.24-1.426 1.412-1.6 2.345.112.594.56.719 1.02.846.304.085.613.17.832.394.726-.735 1.6-1.217 2.51-1.574-.065-1.02-.975-1.38-1.795-1.705a7.955 7.955 0 0 1-.632-.27Zm2.092 5.773c-.521-.014-1.037-.028-1.562.019l-.173.041c.162.334.539.586.862.747.056.268.25.454.448.643.054.052.11.105.162.16.323.184.702.16 1.07.082.074.005.137-.075.194-.148.082-.105.151-.192.219.034-.003.166.026.345.056.527.06.372.123.758-.077 1.08.056.609-.353.792-.783.985-.276.124-.561.252-.737.499-.323.323-.355.91-.174 1.299.138-.065.272-.136.405-.207.267-.142.532-.282.815-.367.116-.515.577-.908 1.049-1.102.028-.624.132-1.225.236-1.823.109-.624.217-1.244.235-1.878-.128-.265-.403-.494-.666-.608-.54.045-1.061.031-1.579.017Zm-.297 7.508c.19.027.386.011.578-.005.303-.026.598-.05.858.098-.09.162-.333.23-.528.276l-.772.355c-.212-.05-.179-.316-.152-.53.01-.075.018-.143.016-.194Zm2.374-9.73c-.123.048-.244.097-.362.136-.379.207-.815.55-.988.965l1.575.034.048-.077c.273-.438.559-.897.917-1.256-.401-.12-.804.042-1.19.197Zm4.251-.242c.348-.06.501.15.657.367.139.19.28.385.561.4l.053.067c.095.114.193.23.143.405-.196.078-.444.09-.693.103-.19.01-.38.019-.549.058-.217-.12-.285-.348-.35-.567-.09-.304-.176-.593-.651-.56l-.001-.002c-.046-.07-.134-.205-.022-.25.253-.091.589-.057.852-.021Zm.583 2.587c-.369.066-.742.133-.997.49l-.135.059c.12.72.171 1.465.222 2.213.026.385.053.771.089 1.155.07.057.15.117.234.18.373.275.83.614.868 1.117.528.185 1.024.46 1.461.885.275-.322.528-.642.655-1.023-.209-.227-.524-.324-.832-.418-.486-.148-.955-.29-.962-.937l-.713-.472a7.878 7.878 0 0 1-.102-.892c-.028-.38-.057-.76-.153-1.12l.137-.137c.083.196.278.367.45.495.076.01.156.024.237.038.445.075.945.16 1.306-.199.111-.08.172-.202.231-.32.086-.175.168-.341.401-.348.08-.079.185-.13.294-.183.11-.054.223-.109.315-.196 0-.057.042-.109.082-.157.056-.069.108-.132.034-.2l-2.98-.056c-.047.01-.094.018-.141.026h-.001Zm.085 7.581h1.381l-.173.723-1.382-.585c-.032-.114.093-.149.174-.138Zm3.508-13.34-1.024.322c-.552.32-.725.86-.886 1.413 1 .491 2.082 1.459 2.461 2.538h.048c.142-.31.42-.337.691-.362.209-.02.415-.04.55-.19.197-.872.265-1.93-.161-2.71a10.331 10.331 0 0 0-1.679-1.01Z" fill="#000"/></svg>