<svg xmlns="http://www.w3.org/2000/svg" width="206" height="47" fill="none" viewBox="0 0 206 47"><path fill="#000" d="M35.0431 14.9111C35.0431 18.8473 35.1521 20.5628 35.649 21.0446C36.0973 21.4676 36.8123 21.6673 38.9813 21.6673C40.4476 21.6673 41.6714 21.6438 42.35 20.8566C42.7014 20.4336 42.9801 19.7521 43.065 19.2468C43.0892 19.0353 43.1377 18.8943 43.3073 18.8943C43.4527 18.8943 43.477 19.0118 43.477 19.3056C43.477 19.5993 43.2831 21.2091 43.065 21.9846C42.8711 22.5956 42.7863 22.7013 41.3079 22.7013C37.3091 22.7013 35.4793 22.5486 33.8677 22.5486C33.6253 22.5486 31.9894 22.6191 31.1533 22.6191C30.8383 22.6191 30.705 22.5721 30.705 22.4193C30.705 22.3371 30.7534 22.2548 30.9231 22.2548C31.1776 22.2548 31.5169 22.2078 31.7592 22.1491C32.3166 22.0433 32.462 21.4441 32.559 20.6686C32.7044 19.5523 32.7044 17.4256 32.7044 14.8523V10.1288C32.7044 5.95758 32.7044 5.19383 32.6438 4.33608C32.5953 3.41958 32.3772 2.99658 31.4563 2.80858C31.2381 2.74983 30.7534 2.72633 30.5111 2.72633C30.402 2.72633 30.293 2.67933 30.293 2.57358C30.293 2.40908 30.4263 2.35033 30.7292 2.35033C31.9894 2.35033 33.7344 2.43258 33.8677 2.43258C34.0131 2.43258 36.0367 2.35033 36.8729 2.35033C37.1758 2.35033 37.3091 2.40908 37.3091 2.57358C37.3091 2.67933 37.2 2.72633 37.091 2.72633C36.8971 2.72633 36.5093 2.74983 36.17 2.80858C35.3703 2.93783 35.1521 3.39608 35.0916 4.33608C35.0431 5.19383 35.0431 5.95758 35.0431 10.1288V14.9111ZM47.0153 20.0458C46.5185 21.3971 45.9611 22.4193 44.6766 22.5721C44.4585 22.5956 44.0586 22.6308 43.8769 22.6308C43.7314 22.6308 43.6224 22.6778 43.6224 22.7953C43.6224 22.9481 43.792 22.9951 44.1556 22.9951C45.4643 22.9951 46.9911 22.9246 47.294 22.9246C47.597 22.9246 48.7845 22.9951 49.451 22.9951C49.7054 22.9951 49.8751 22.9481 49.8751 22.7953C49.8751 22.6778 49.7903 22.6308 49.5964 22.6308H49.3177C48.8451 22.6308 48.2634 22.3841 48.2634 21.8436C48.2634 21.3618 48.3967 20.7156 48.6512 20.0458L50.3113 15.3106C50.3719 15.1696 50.4446 15.0991 50.59 15.0991H56.564C56.6973 15.0991 56.7579 15.1461 56.8185 15.2518L59.3996 21.8436C59.5571 22.2783 59.3996 22.5251 59.2299 22.5721C59.1209 22.5956 59.0239 22.6543 59.0239 22.7601C59.0239 22.9246 59.3511 22.9246 59.8721 22.9481C61.7867 22.9951 63.8104 22.9951 64.2224 22.9951C64.5253 22.9951 64.7798 22.9481 64.7798 22.7953C64.7798 22.6543 64.6707 22.6308 64.5011 22.6308C64.2224 22.6308 63.8104 22.5956 63.3984 22.4663C62.8046 22.3018 62.0049 21.8671 61.0112 19.4818C59.3026 15.4163 54.9524 4.33608 54.5404 3.31383C54.2011 2.49133 54.092 2.35033 53.9224 2.35033C53.7649 2.35033 53.6437 2.51483 53.3165 3.39608L47.0153 20.0458ZM50.9051 14.1238C50.8203 14.1238 50.7597 14.0768 50.8203 13.9358L53.2559 6.69783C53.4013 6.29833 53.5467 6.29833 53.68 6.69783L56.3096 13.9358C56.3459 14.0416 56.3459 14.1238 56.2005 14.1238H50.9051ZM70.4993 19.3526C70.5599 21.5498 70.8386 22.2431 71.5899 22.4663C72.1231 22.5956 72.729 22.6308 72.9834 22.6308C73.1167 22.6308 73.2016 22.6778 73.2016 22.7953C73.2016 22.9481 73.044 22.9951 72.7047 22.9951C71.1173 22.9951 70.0146 22.9246 69.7601 22.9246C69.5057 22.9246 68.3424 22.9951 67.0943 22.9951C66.8156 22.9951 66.6459 22.9716 66.6459 22.7953C66.6459 22.6778 66.7307 22.6308 66.8761 22.6308C67.0943 22.6308 67.5911 22.5956 68.0152 22.4663C68.7059 22.2783 68.8392 21.4911 68.8392 19.0588L68.8634 3.70158C68.8634 2.64408 68.9483 2.35033 69.1664 2.35033C69.3966 2.35033 69.8692 2.93783 70.1479 3.20808C70.5599 3.66633 74.7042 7.97858 78.9817 12.4083C81.7203 15.2518 84.7497 18.5183 85.6343 19.3996L85.3313 5.78133C85.3071 4.04233 85.1132 3.45483 84.2529 3.23158C83.756 3.12583 83.1138 3.10233 82.8836 3.10233C82.6897 3.10233 82.6654 3.02008 82.6654 2.91433C82.6654 2.76158 82.8836 2.72633 83.2229 2.72633C84.471 2.72633 85.8039 2.80858 86.119 2.80858C86.4219 2.80858 87.3429 2.72633 88.4698 2.72633C88.7849 2.72633 88.9666 2.76158 88.9666 2.91433C88.9666 3.02008 88.8576 3.10233 88.6637 3.10233C88.5304 3.10233 88.3244 3.10233 87.9972 3.17283C87.0763 3.37258 86.9793 3.96008 86.9793 5.56983L86.9187 21.2796C86.9187 23.0538 86.8581 23.1948 86.6643 23.1948C86.4461 23.1948 86.119 22.8893 84.6406 21.4676C84.3256 21.1973 80.3389 17.2611 77.3943 14.2061C74.171 10.8573 71.0325 7.47333 70.1479 6.50983L70.4993 19.3526ZM93.2926 14.8641C93.2926 17.4256 93.2926 19.5523 93.1593 20.6803C93.0503 21.4441 92.9049 22.0433 92.3474 22.1491C92.1051 22.2078 91.7779 22.2548 91.5113 22.2548C91.3538 22.2548 91.2932 22.3371 91.2932 22.4193C91.2932 22.5721 91.4386 22.6308 91.7416 22.6308C92.5777 22.6308 94.3226 22.5486 94.468 22.5486C94.7467 22.5486 98.2366 22.8776 100.624 22.8776C105.35 22.8776 107.846 20.9976 109.033 19.7873C110.597 18.2128 112.027 15.6043 112.027 12.2203C112.027 9.03608 110.73 6.81533 109.336 5.41708C106.04 2.11533 100.951 2.35033 98.2124 2.35033C96.5402 2.35033 94.7952 2.44433 94.468 2.44433C94.3226 2.44433 92.5777 2.35033 91.3296 2.35033C91.0145 2.35033 90.8812 2.40908 90.8812 2.57358C90.8812 2.67933 90.9903 2.72633 91.0993 2.72633C91.3538 2.72633 91.8264 2.76158 92.0566 2.80858C92.9654 2.99658 93.1836 3.43133 93.2441 4.33608C93.2926 5.20558 93.2926 5.95758 93.2926 10.1288V14.8641ZM95.6313 9.70583C95.6313 7.63783 95.6313 4.90008 95.6556 3.98358C95.6556 3.70158 95.7283 3.56058 95.9949 3.45483C96.213 3.34908 97.243 3.26683 97.7883 3.26683C101.096 3.26683 104.259 3.64283 106.877 6.29833C108.016 7.44983 109.542 9.64708 109.542 13.0546C109.542 15.5221 108.755 18.1071 107.313 19.4701C105.677 21.0446 103.29 21.9493 100.709 21.9493C97.4369 21.9493 96.3584 21.3853 95.9949 20.8918C95.7646 20.5863 95.7161 19.5171 95.6798 18.8473C95.6556 18.3421 95.6313 15.8746 95.6313 13.0311V9.70583ZM136.904 19.5406C137.025 20.5041 137.207 22.0081 138.407 22.3841C139.219 22.6308 139.933 22.6308 140.212 22.6308C140.345 22.6308 140.43 22.6543 140.43 22.7601C140.43 22.9246 140.188 22.9951 139.849 22.9951C139.243 22.9951 136.238 22.9246 135.22 22.8423C134.577 22.7953 134.432 22.7131 134.432 22.5721C134.432 22.4663 134.493 22.4193 134.626 22.3841C134.771 22.3488 134.796 21.9023 134.747 21.4206L133.414 7.57908H133.329L126.531 21.5263C125.938 22.7131 125.865 22.9481 125.61 22.9481C125.417 22.9481 125.283 22.6778 124.75 21.7143C124.035 20.3983 121.636 15.7571 121.49 15.4868C121.248 15.0168 118.134 8.57783 117.831 7.84933H117.722L116.607 20.2926C116.583 20.7156 116.583 21.1973 116.583 21.6556C116.583 22.0668 116.886 22.4193 117.31 22.4898C117.782 22.6073 118.194 22.6308 118.364 22.6308C118.473 22.6308 118.582 22.6778 118.582 22.7601C118.582 22.9481 118.412 22.9951 118.085 22.9951C117.055 22.9951 115.722 22.9246 115.504 22.9246C115.25 22.9246 113.917 22.9951 113.178 22.9951C112.899 22.9951 112.693 22.9481 112.693 22.7601C112.693 22.6778 112.838 22.6308 112.972 22.6308C113.202 22.6308 113.384 22.6308 113.808 22.5486C114.717 22.3841 114.801 21.3383 114.923 20.3161L116.922 2.83208C116.983 2.53833 117.055 2.35033 117.225 2.35033C117.395 2.35033 117.504 2.45608 117.637 2.76158L126.131 19.6111L134.299 2.78508C134.408 2.53833 134.529 2.35033 134.723 2.35033C134.917 2.35033 135.002 2.56183 135.05 3.07883L136.904 19.5406ZM143.957 20.0458C143.448 21.3971 142.89 22.4193 141.63 22.5721C141.4 22.5956 141.012 22.6308 140.818 22.6308C140.673 22.6308 140.564 22.6778 140.564 22.7953C140.564 22.9481 140.733 22.9951 141.085 22.9951C142.393 22.9951 143.92 22.9246 144.223 22.9246C144.538 22.9246 145.726 22.9951 146.392 22.9951C146.647 22.9951 146.804 22.9481 146.804 22.7953C146.804 22.6778 146.731 22.6308 146.538 22.6308H146.247C145.786 22.6308 145.205 22.3841 145.205 21.8436C145.205 21.3618 145.338 20.7156 145.592 20.0458L147.253 15.3106C147.313 15.1696 147.398 15.0991 147.531 15.0991H153.493C153.639 15.0991 153.699 15.1461 153.748 15.2518L156.329 21.8436C156.498 22.2783 156.329 22.5251 156.171 22.5721C156.062 22.5956 155.977 22.6543 155.977 22.7601C155.977 22.9246 156.28 22.9246 156.813 22.9481C158.716 22.9951 160.752 22.9951 161.164 22.9951C161.467 22.9951 161.709 22.9481 161.709 22.7953C161.709 22.6543 161.612 22.6308 161.442 22.6308C161.164 22.6308 160.752 22.5956 160.327 22.4663C159.746 22.3018 158.934 21.8671 157.94 19.4818C156.244 15.4163 151.894 4.33608 151.469 3.31383C151.142 2.49133 151.033 2.35033 150.864 2.35033C150.694 2.35033 150.573 2.51483 150.258 3.39608L143.957 20.0458ZM147.834 14.1238C147.749 14.1238 147.701 14.0768 147.749 13.9358L150.197 6.69783C150.343 6.29833 150.476 6.29833 150.609 6.69783L153.251 13.9358C153.275 14.0416 153.275 14.1238 153.142 14.1238H147.834ZM164.787 14.8523C164.787 17.4256 164.787 19.5523 164.653 20.6686C164.532 21.4441 164.399 22.0433 163.842 22.1491C163.599 22.2078 163.26 22.2548 163.018 22.2548C162.848 22.2548 162.787 22.3371 162.787 22.4193C162.787 22.5721 162.933 22.6191 163.236 22.6191C164.072 22.6191 165.817 22.5486 165.853 22.5486C165.986 22.5486 167.731 22.6191 169.258 22.6191C169.561 22.6191 169.707 22.5486 169.707 22.4193C169.707 22.3371 169.646 22.2548 169.488 22.2548C169.234 22.2548 168.616 22.2078 168.228 22.1491C167.404 22.0433 167.235 21.4441 167.15 20.6686C167.004 19.5523 167.004 17.4256 167.004 14.8523V14.2061C167.004 14.0768 167.065 14.0063 167.21 14.0063L170.627 14.0416C170.785 14.0416 170.87 14.1003 170.979 14.2061C171.536 14.9111 172.845 16.6971 174.008 18.1776C175.584 20.1868 176.565 21.5028 177.753 22.1138C178.48 22.5016 179.17 22.6191 180.721 22.6191H182.697C183.193 22.6191 183.375 22.5721 183.375 22.4193C183.375 22.3371 183.254 22.2548 183.109 22.2548C182.951 22.2548 182.563 22.2548 182.03 22.1726C181.339 22.0668 180.14 21.7613 178.637 20.2456C177.038 18.5771 175.147 16.1918 172.869 13.3718C175.365 11.1511 176.226 9.16533 176.226 7.17958C176.226 5.32308 175.014 4.01883 174.311 3.53708C172.845 2.51483 170.979 2.35033 169.234 2.35033C168.374 2.35033 166.265 2.43258 165.962 2.43258C165.817 2.43258 164.072 2.35033 162.824 2.35033C162.521 2.35033 162.375 2.40908 162.375 2.57358C162.375 2.67933 162.484 2.72633 162.593 2.72633C162.848 2.72633 163.308 2.74983 163.539 2.80858C164.46 2.99658 164.678 3.41958 164.738 4.33608C164.787 5.19383 164.787 5.95758 164.787 10.1288V14.8523ZM167.004 3.68983C167.004 3.53708 167.089 3.41958 167.234 3.37258C167.513 3.29033 168.264 3.21983 169.089 3.21983C172.069 3.21983 173.899 5.21733 173.899 8.56608C173.899 10.6106 173.172 12.0558 172.203 12.7021C171.573 13.1368 170.785 13.2073 170.119 13.2073C168.895 13.2073 167.622 13.0311 167.21 12.7843C167.065 12.7021 167.004 12.5963 167.004 12.4671V3.68983ZM186.599 10.1288C186.599 5.95758 186.599 5.19383 186.538 4.33608C186.489 3.41958 186.259 2.99658 185.35 2.80858C185.12 2.74983 184.648 2.72633 184.393 2.72633C184.284 2.72633 184.187 2.67933 184.187 2.57358C184.187 2.40908 184.32 2.35033 184.623 2.35033C185.871 2.35033 187.507 2.43258 187.677 2.43258C187.931 2.43258 189.543 2.35033 190.367 2.35033C190.67 2.35033 190.815 2.40908 190.815 2.57358C190.815 2.67933 190.694 2.72633 190.597 2.72633C190.403 2.72633 190.222 2.74983 189.895 2.80858C189.143 2.93783 188.937 3.39608 188.877 4.33608C188.828 5.19383 188.828 5.95758 188.828 10.1288V11.7386H188.937C189.398 11.2333 194.427 6.28658 195.42 5.25258C196.208 4.46533 196.923 3.77208 196.923 3.32558C196.923 2.99658 196.789 2.83208 196.559 2.74983C196.426 2.70283 196.305 2.64408 196.305 2.53833C196.305 2.40908 196.45 2.35033 196.644 2.35033C197.201 2.35033 198.062 2.43258 198.728 2.43258C198.862 2.43258 200.703 2.35033 201.394 2.35033C201.697 2.35033 201.818 2.40908 201.818 2.53833C201.818 2.67933 201.758 2.72633 201.527 2.72633C201.115 2.72633 200.534 2.85558 199.976 3.10233C198.837 3.59583 198.231 4.25383 196.983 5.40533C196.293 6.05158 191.458 10.6106 190.876 11.2803C191.591 12.0558 197.359 17.8251 198.51 18.8473C200.837 20.9271 201.309 21.3736 202.642 21.9023C203.357 22.2078 204.169 22.2548 204.363 22.2548C204.557 22.2548 204.727 22.3018 204.727 22.4193C204.727 22.5486 204.581 22.6191 204.121 22.6191H202.703C201.915 22.6191 201.394 22.6191 200.776 22.5721C199.31 22.4428 198.619 21.8553 197.42 20.9271C196.171 19.9401 190.294 13.8066 188.961 12.2203H188.828V14.8523C188.828 17.4256 188.828 19.5523 188.961 20.6686C189.046 21.4441 189.204 22.0433 190.04 22.1491C190.428 22.2078 190.876 22.2548 191.118 22.2548C191.288 22.2548 191.349 22.3371 191.349 22.4193C191.349 22.5486 191.203 22.6191 190.9 22.6191C189.543 22.6191 187.931 22.5486 187.701 22.5486C187.483 22.5486 185.871 22.6191 185.035 22.6191C184.732 22.6191 184.587 22.5721 184.587 22.4193C184.587 22.3371 184.648 22.2548 184.817 22.2548C185.072 22.2548 185.399 22.2078 185.653 22.1491C186.211 22.0433 186.344 21.4441 186.453 20.6686C186.599 19.5523 186.599 17.4256 186.599 14.8523V10.1288ZM140.018 41.3486C140.018 39.6566 139.909 39.4216 139.037 39.1983C138.867 39.1513 138.491 39.1278 138.298 39.1278C138.213 39.1278 138.128 39.0926 138.128 39.0103C138.128 38.8811 138.237 38.8341 138.479 38.8341C139.461 38.8341 140.818 38.8928 140.927 38.8928C141.036 38.8928 142.405 38.8341 143.06 38.8341C143.29 38.8341 143.399 38.8811 143.399 39.0103C143.399 39.0926 143.314 39.1278 143.229 39.1278C143.072 39.1278 142.939 39.1513 142.684 39.1983C142.09 39.2923 141.933 39.6566 141.872 40.3851C141.836 41.0666 141.836 41.6893 141.836 42.5706V44.9206C141.836 45.8488 141.824 45.8958 141.557 46.0486C140.164 46.7536 138.213 46.9886 136.953 46.9886C135.317 46.9886 132.227 46.7771 129.815 44.7443C128.494 43.6398 127.234 41.3956 127.234 38.7753C127.234 35.4266 128.919 33.0531 130.857 31.8663C132.808 30.7031 134.953 30.5503 136.637 30.5503C137.995 30.5503 139.534 30.8323 139.958 30.9146C140.406 31.0203 141.157 31.1026 141.703 31.1143C141.933 31.1378 141.957 31.2318 141.957 31.3023C141.957 31.5961 141.824 32.1953 141.824 34.2868C141.824 34.6158 141.775 34.7216 141.618 34.7216C141.509 34.7216 141.497 34.6041 141.472 34.4161C141.448 34.1223 141.339 33.5348 141.012 33.0296C140.467 32.2306 138.71 31.3258 135.91 31.3258C134.541 31.3258 132.917 31.4551 131.269 32.7123C130.009 33.6758 129.125 35.5911 129.125 38.0351C129.125 40.9961 130.663 43.1346 131.427 43.8396C133.135 45.4611 135.111 46.0838 137.11 46.0838C137.886 46.0838 139.025 45.9546 139.57 45.6491C139.861 45.4963 140.018 45.2731 140.018 44.9206V41.3486ZM146.089 40.3146C146.089 42.3356 146.089 43.9806 145.98 44.8618C145.895 45.4728 145.786 45.9311 145.35 46.0133C145.156 46.0603 144.89 46.0956 144.708 46.0956C144.575 46.0956 144.514 46.1543 144.514 46.2248C144.514 46.3541 144.635 46.4011 144.877 46.4011C145.532 46.4011 146.889 46.3423 146.913 46.3423C147.022 46.3423 148.379 46.4011 149.579 46.4011C149.821 46.4011 149.931 46.3423 149.931 46.2248C149.931 46.1543 149.882 46.0956 149.749 46.0956C149.555 46.0956 149.082 46.0603 148.779 46.0133C148.125 45.9311 148.004 45.4728 147.931 44.8618C147.822 43.9806 147.822 42.3356 147.822 40.3146V39.8093C147.822 39.7036 147.858 39.6448 147.98 39.6448L150.645 39.6918C150.767 39.6918 150.839 39.7271 150.924 39.8093C151.36 40.3498 152.378 41.7598 153.287 42.9113C154.523 44.4858 155.287 45.5081 156.22 46.0016C156.777 46.2953 157.322 46.4011 158.546 46.4011H160.085C160.473 46.4011 160.606 46.3541 160.606 46.2248C160.606 46.1543 160.521 46.0956 160.412 46.0956C160.279 46.0956 159.976 46.0956 159.564 46.0368C159.019 45.9546 158.098 45.7313 156.922 44.5328C155.65 43.2403 154.184 41.3603 152.403 39.1631C154.353 37.4241 155.032 35.8731 155.032 34.3221C155.032 32.8768 154.075 31.8546 153.529 31.4668C152.378 30.6678 150.924 30.5503 149.555 30.5503C148.888 30.5503 147.24 30.6091 147.01 30.6091C146.889 30.6091 145.532 30.5503 144.55 30.5503C144.308 30.5503 144.199 30.5856 144.199 30.7148C144.199 30.7971 144.284 30.8441 144.381 30.8441C144.575 30.8441 144.938 30.8558 145.108 30.9028C145.823 31.0438 146.004 31.3846 146.041 32.1013C146.089 32.7711 146.089 33.3586 146.089 36.6251V40.3146ZM147.822 31.5843C147.822 31.4668 147.895 31.3846 148.004 31.3493C148.21 31.2788 148.804 31.2201 149.446 31.2201C151.772 31.2201 153.202 32.7828 153.202 35.4031C153.202 37.0011 152.645 38.1291 151.881 38.6461C151.385 38.9751 150.767 39.0338 150.258 39.0338C149.3 39.0338 148.307 38.8928 147.98 38.7048C147.858 38.6461 147.822 38.5521 147.822 38.4581V31.5843ZM168.374 46.9886C173.608 46.9886 177.026 43.1111 177.026 38.4111C177.026 33.5348 173.378 30.5503 168.507 30.5503C162.509 30.5503 159.952 35.3561 159.952 38.7518C159.952 42.5236 162.424 46.9886 168.374 46.9886ZM168.361 31.2671C171.779 31.2671 174.941 33.9696 174.941 39.0103C174.941 45.1086 170.906 46.1896 168.955 46.1896C165.053 46.1896 162.012 43.0406 162.012 38.1643C162.012 33.5701 164.726 31.2671 168.361 31.2671ZM178.807 36.6251C178.807 33.3586 178.807 32.7711 178.758 32.1013C178.71 31.3846 178.54 31.0438 177.825 30.9028C177.656 30.8558 177.28 30.8441 177.086 30.8441C177.001 30.8441 176.917 30.7971 176.917 30.7148C176.917 30.5856 177.026 30.5503 177.256 30.5503C178.237 30.5503 179.558 30.6091 179.752 30.6091C179.958 30.6091 181.255 30.5503 181.909 30.5503C182.151 30.5503 182.236 30.5856 182.236 30.7148C182.236 30.7971 182.163 30.8441 182.079 30.8441C181.921 30.8441 181.8 30.8558 181.533 30.9028C180.952 30.9851 180.77 31.3611 180.734 32.1013C180.685 32.7711 180.685 33.3586 180.685 36.6251V39.5626C180.685 42.5823 181.376 43.8748 182.309 44.7326C183.375 45.7078 184.357 45.8841 185.593 45.8841C186.914 45.8841 188.21 45.2848 188.998 44.3801C190.004 43.1816 190.258 41.4073 190.258 39.2453V36.6251C190.258 33.3586 190.258 32.7711 190.222 32.1013C190.161 31.3846 190.004 31.0438 189.277 30.9028C189.107 30.8558 188.743 30.8441 188.537 30.8441C188.453 30.8441 188.368 30.7971 188.368 30.7148C188.368 30.5856 188.477 30.5503 188.719 30.5503C189.689 30.5503 190.888 30.6091 191.021 30.6091C191.167 30.6091 192.185 30.5503 192.839 30.5503C193.081 30.5503 193.191 30.5856 193.191 30.7148C193.191 30.7971 193.106 30.8441 193.009 30.8441C192.863 30.8441 192.73 30.8441 192.476 30.9028C191.882 30.9968 191.712 31.3611 191.664 32.1013C191.615 32.7711 191.615 33.3586 191.615 36.6251V38.8693C191.615 41.1371 191.361 43.6516 189.628 45.1438C188.065 46.4716 186.441 46.6831 185.157 46.6831C184.429 46.6831 182.236 46.6008 180.685 45.1908C179.619 44.2156 178.807 42.7468 178.807 39.6918V36.6251ZM196.983 36.6251C196.983 33.3586 196.983 32.7711 196.935 32.1013C196.899 31.3846 196.717 31.0438 196.002 30.9028C195.832 30.8558 195.469 30.8441 195.263 30.8441C195.178 30.8441 195.093 30.7971 195.093 30.7148C195.093 30.5856 195.202 30.5503 195.444 30.5503C196.414 30.5503 197.723 30.6091 197.892 30.6091C198.365 30.6091 199.637 30.5503 200.631 30.5503C203.345 30.5503 204.314 31.4316 204.666 31.7371C205.139 32.1836 205.757 33.1236 205.757 34.2398C205.757 37.2126 203.491 39.2336 200.413 39.2336C200.304 39.2336 200.073 39.2336 199.964 39.2101C199.855 39.2101 199.722 39.1631 199.722 39.0573C199.722 38.8928 199.855 38.8693 200.304 38.8693C202.412 38.8693 204.06 37.3888 204.06 35.4501C204.06 34.7686 203.987 33.3586 202.848 32.2188C201.697 31.0908 200.376 31.1731 199.879 31.1731C199.504 31.1731 199.128 31.2201 198.934 31.3023C198.801 31.3493 198.765 31.4903 198.765 31.7018V40.3146C198.765 42.3356 198.765 43.9806 198.874 44.8618C198.934 45.4728 199.068 45.9311 199.722 46.0133C200.025 46.0603 200.497 46.0956 200.691 46.0956C200.825 46.0956 200.873 46.1543 200.873 46.2248C200.873 46.3423 200.764 46.4011 200.522 46.4011C199.334 46.4011 197.965 46.3423 197.856 46.3423C197.783 46.3423 196.414 46.4011 195.772 46.4011C195.529 46.4011 195.42 46.3541 195.42 46.2248C195.42 46.1543 195.469 46.0956 195.59 46.0956C195.784 46.0956 196.05 46.0603 196.244 46.0133C196.68 45.9311 196.789 45.4728 196.874 44.8618C196.983 43.9806 196.983 42.3356 196.983 40.3146V36.6251Z"/><path fill="#000" d="M22.1632 18.1772C22.1632 18.189 22.1632 18.2007 22.1511 18.2007H13.6566V21.4907H19.3519C17.6433 22.7598 15.6924 23.2062 13.3658 23.2062C9.27 23.2062 5.74377 20.8092 4.18059 17.4018H20.4061V17.39H26.1378C26.4771 16.3442 26.6831 15.2397 26.7436 14.1H23.3871V14.1117L3.35659 14.1235V14.1H0C0.315059 20.9737 6.18 26.4375 13.3658 26.4375C19.1822 26.4375 23.9566 23.1827 25.8106 18.1772H22.1632ZM22.5752 9.071L4.16847 9.08275C5.70741 5.65175 9.24576 3.243 13.3658 3.243V0C6.18 0 0.327177 5.4755 0 12.3375H26.7315C26.6952 11.1977 26.4892 10.1167 26.1499 9.071H22.5752Z"/></svg>