<svg fill="none" xmlns="http://www.w3.org/2000/svg" viewBox="0 0 178 40"><g clip-path="url(#a)" fill-rule="evenodd" clip-rule="evenodd" fill="#fff"><path d="M34.732 15.186c0-.82.234-1.409.7-1.774.466-.365 1.124-.546 1.97-.546a5.01 5.01 0 0 1 1.443.196c.437.133.728.226.876.285v11.508c0 1.985.464 3.497 1.399 4.53.934 1.035 2.362 1.555 4.288 1.555 1.925 0 3.353-.52 4.287-1.554.933-1.034 1.4-2.546 1.4-4.53v-9.67c0-.82.232-1.409.7-1.774.466-.365 1.107-.546 1.924-.546.556 0 1.05.065 1.486.196.44.133.731.226.876.285V25.95c0 1.489-.256 2.823-.765 4.005a8.178 8.178 0 0 1-2.187 2.996c-.947.818-2.078 1.438-3.39 1.861-1.312.422-2.757.635-4.331.635-1.576 0-3.019-.213-4.33-.635-1.315-.423-2.437-1.043-3.37-1.86a8.503 8.503 0 0 1-2.188-2.997c-.524-1.182-.788-2.516-.788-4.005V15.186ZM60.019 8.971c0-.819.232-1.407.7-1.773.465-.365 1.107-.546 1.924-.546a5.19 5.19 0 0 1 1.465.197c.453.131.75.226.897.283v5.733h6.344c.963 0 1.64.197 2.034.59.394.395.588.969.588 1.73 0 .497-.07.954-.216 1.377a9.01 9.01 0 0 1-.35.898h-8.4v9.76c0 .757.101 1.378.307 1.858.204.481.487.868.852 1.159a3.23 3.23 0 0 0 1.27.616c.48.115.984.172 1.506.172.848 0 1.636-.13 2.364-.393s1.256-.51 1.576-.743l2.012 3.325c-.234.175-.56.396-.984.657a9.06 9.06 0 0 1-1.553.743c-.613.235-1.299.43-2.056.592-.759.16-1.59.24-2.492.24-2.568 0-4.507-.663-5.819-1.992-1.314-1.324-1.97-3.069-1.97-5.229V8.971ZM88.672 30.94c.99 0 1.903-.183 2.734-.548a6.561 6.561 0 0 0 2.143-1.488 6.455 6.455 0 0 0 1.38-2.233c.319-.859.48-1.799.48-2.822 0-1.021-.161-1.97-.48-2.846a6.43 6.43 0 0 0-1.38-2.252 6.605 6.605 0 0 0-2.143-1.487c-.832-.365-1.743-.549-2.734-.549-1.021 0-1.946.184-2.778.549a6.202 6.202 0 0 0-2.122 1.508 7.183 7.183 0 0 0-1.378 2.276 7.793 7.793 0 0 0-.502 2.801c0 1.05.168 2.013.502 2.887.337.877.8 1.62 1.4 2.232a6.436 6.436 0 0 0 2.145 1.445c.829.352 1.74.527 2.733.527ZM76.949 4.9c0-.787.232-1.37.699-1.75.465-.38 1.123-.57 1.968-.57.525 0 1.007.066 1.443.198.438.133.728.226.877.284v12.56c.728-.934 1.734-1.728 3.017-2.385 1.284-.657 2.756-.987 4.418-.987 1.605 0 3.086.286 4.441.856a10.6 10.6 0 0 1 3.543 2.406 11.146 11.146 0 0 1 2.362 3.675c.57 1.416.853 2.97.853 4.662 0 1.663-.292 3.211-.874 4.639-.583 1.43-1.402 2.656-2.448 3.676-1.052 1.022-2.3 1.825-3.742 2.407-1.445.584-3.026.874-4.746.874-1.722 0-3.304-.26-4.747-.786a10.109 10.109 0 0 1-3.74-2.363c-1.051-1.051-1.867-2.363-2.45-3.94-.584-1.576-.874-3.427-.874-5.556V4.9ZM103.501 20.699c0-2.684.823-4.763 2.472-6.236 1.647-1.474 3.931-2.21 6.846-2.21 1.838 0 3.332.256 4.485.764 1.152.512 1.729 1.292 1.729 2.344 0 .496-.139.976-.416 1.442-.279.467-.503.759-.677.876a12.01 12.01 0 0 0-1.838-.657c-.73-.203-1.563-.306-2.495-.306-3.41 0-5.117 1.81-5.117 5.426v12.692h-4.989V20.7ZM135.654 25.03c-.29-.058-.837-.146-1.64-.262-.804-.116-2.004-.176-3.609-.176-1.985 0-3.426.3-4.331.898-.904.598-1.357 1.54-1.357 2.823 0 .525.094 1.005.285 1.445.19.438.518.808.983 1.116.467.305 1.102.54 1.904.7.803.16 1.802.24 2.999.24 1.339 0 2.404-.05 3.192-.154.786-.1 1.313-.181 1.574-.24v-6.39Zm4.942 9.716c-.29.057-.749.123-1.376.197-.626.072-1.364.147-2.209.218-.846.073-1.795.139-2.845.198a62.076 62.076 0 0 1-3.278.088c-2.277 0-4.135-.198-5.58-.593-1.443-.392-2.581-.918-3.411-1.574-.83-.657-1.401-1.415-1.707-2.277a7.828 7.828 0 0 1-.458-2.648c0-1.195.182-2.245.547-3.15.363-.903.962-1.663 1.792-2.274.831-.613 1.918-1.072 3.259-1.38 1.342-.307 2.977-.46 4.901-.46 1.106 0 2.158.038 3.147.11.992.074 1.736.14 2.232.198 0-1.022-.169-1.868-.501-2.538-.336-.672-.796-1.197-1.378-1.575-.585-.38-1.285-.642-2.101-.788a15.467 15.467 0 0 0-2.712-.22c-1.662 0-2.997.19-4.004.57-1.005.38-1.667.7-1.99.963-.175-.147-.416-.423-.722-.833-.305-.407-.458-.904-.458-1.487 0-.407.109-.81.327-1.204.22-.393.605-.743 1.16-1.05.554-.306 1.298-.546 2.23-.722.934-.176 2.116-.263 3.542-.263 1.723 0 3.29.17 4.705.503 1.417.336 2.632.869 3.652 1.599 1.021.73 1.815 1.693 2.384 2.888.569 1.195.852 2.64.852 4.332v13.172ZM145.058 15.186c0-.82.235-1.409.7-1.774.467-.365 1.124-.546 1.97-.546a5 5 0 0 1 1.443.196c.436.133.728.226.875.285v21.487h-4.988V15.186Zm2.495-12.169c.846 0 1.56.292 2.143.878.582.583.874 1.297.874 2.142 0 .848-.292 1.562-.874 2.144-.583.587-1.297.877-2.143.877-.845 0-1.56-.29-2.145-.877-.582-.582-.874-1.296-.874-2.144 0-.845.292-1.559.874-2.142.585-.586 1.3-.878 2.145-.878ZM154.508 21.574c0-1.458.27-2.765.809-3.918a8.509 8.509 0 0 1 2.23-2.93c.949-.803 2.072-1.415 3.371-1.838 1.295-.423 2.718-.636 4.262-.636 1.548 0 2.976.213 4.289.636 1.312.423 2.442 1.035 3.389 1.838a8.29 8.29 0 0 1 2.211 2.93c.524 1.153.788 2.46.788 3.918v13.26h-4.987V22.842c0-1.982-.483-3.492-1.443-4.527-.965-1.037-2.38-1.556-4.247-1.556-1.894 0-3.315.52-4.262 1.556-.949 1.034-1.423 2.545-1.423 4.527v11.992h-4.987v-13.26ZM23.477 30.424a10.367 10.367 0 0 1-3.324 2.182c-1.27.524-2.653.786-4.142.786-1.491 0-2.872-.262-4.14-.786a10.365 10.365 0 0 1-3.327-2.182 9.983 9.983 0 0 1-2.221-3.283c-.517-1.218-.782-2.536-.801-3.95h2.514a3.682 3.682 0 0 0 1.087 2.416c.343.337.747.602 1.208.79.46.193.963.289 1.504.289a3.861 3.861 0 0 0 2.71-1.079c.344-.335.614-.732.806-1.192.13-.302.215-.623.257-.96h.805c.043.337.127.658.257.96.196.46.463.857.807 1.192a3.68 3.68 0 0 0 1.207.79 3.86 3.86 0 0 0 1.502.289 3.858 3.858 0 0 0 2.713-1.079 3.62 3.62 0 0 0 .807-1.192 3.72 3.72 0 0 0 .283-1.225h2.508c-.015 1.415-.282 2.732-.798 3.951a10.007 10.007 0 0 1-2.223 3.283Zm-9.38-7.498c0 .318-.059.613-.173.886-.115.27-.274.505-.48.706a2.22 2.22 0 0 1-.716.47c-.276.114-.572.171-.893.171a2.31 2.31 0 0 1-.894-.17 2.205 2.205 0 0 1-.717-.47 2.14 2.14 0 0 1-.478-.707 2.253 2.253 0 0 1-.174-.886c0-.315.058-.611.174-.884.114-.272.273-.507.478-.708.205-.199.444-.357.717-.469a2.31 2.31 0 0 1 .894-.17 2.265 2.265 0 0 1 1.61.64c.205.2.364.435.48.707.113.272.171.569.171.884Zm8.352 0c0 .318-.057.613-.173.886a2.18 2.18 0 0 1-.477.706 2.297 2.297 0 0 1-1.612.64c-.322.001-.62-.056-.892-.17a2.165 2.165 0 0 1-.718-.47 2.21 2.21 0 0 1-.48-.706 2.251 2.251 0 0 1-.172-.886c0-.315.057-.611.172-.884.117-.272.276-.507.48-.708a2.294 2.294 0 0 1 1.61-.64 2.297 2.297 0 0 1 1.612.64c.203.201.363.436.477.707.116.273.173.57.173.885Zm-15.993-4.26c1.784-.589 4.15-1.339 4.15-1.339 5.206-1.656 5.904-3.615 5.904-3.615s1.095 1.959 4.874 3.25c0 0 2.088.688 4.03 1.39.098.192.198.385.285.59.341.805.573 1.655.696 2.543h-2.672l-.017-.046a3.635 3.635 0 0 0-.807-1.193 3.758 3.758 0 0 0-1.208-.792 3.91 3.91 0 0 0-1.505-.285c-.54 0-1.041.095-1.502.285a3.735 3.735 0 0 0-1.207.792 3.634 3.634 0 0 0-.961 1.635h-1.01a3.24 3.24 0 0 0-.155-.442 3.609 3.609 0 0 0-.805-1.193 3.758 3.758 0 0 0-1.208-.792 3.913 3.913 0 0 0-1.503-.285c-.541 0-1.043.095-1.504.285a3.654 3.654 0 0 0-2.013 1.985c-.008.014-.012.03-.02.046h-2.67a9.99 9.99 0 0 1 .695-2.543c.04-.095.09-.183.133-.276Zm24.342-5.101c-.819-1.926-1.946-3.595-3.392-5.01-1.443-1.417-3.134-2.525-5.073-3.326-1.94-.803-4.048-1.204-6.322-1.204-2.275 0-4.382.401-6.322 1.204-1.94.801-3.632 1.91-5.075 3.326a15.28 15.28 0 0 0-3.389 5.01C.407 15.49 0 17.578 0 19.823c0 2.248.407 4.332 1.225 6.259a15.286 15.286 0 0 0 3.39 5.01c1.442 1.416 3.135 2.524 5.074 3.327 1.94.8 4.047 1.202 6.322 1.202 2.274 0 4.381-.401 6.322-1.203 1.939-.802 3.63-1.91 5.073-3.326 1.446-1.416 2.573-3.084 3.392-5.01.814-1.927 1.223-4.011 1.223-6.259 0-2.245-.409-4.332-1.223-6.258Z"/></g><defs><clipPath id="a"><path fill="#fff" d="M0 0h178v40H0z"/></clipPath></defs></svg>