<svg width="138" height="31" viewBox="0 0 138 31" fill="none" xmlns="http://www.w3.org/2000/svg">
<g clip-path="url(#clip0)">
<path fill-rule="evenodd" clip-rule="evenodd" d="M26.9277 11.7691C26.9277 11.1345 27.1087 10.6775 27.4696 10.3947C27.8315 10.1119 28.3417 9.97168 28.9977 9.97168C29.4038 9.97168 29.7771 10.0214 30.1164 10.1233C30.4547 10.2262 30.6809 10.2986 30.7951 10.3438V19.2629C30.7951 20.8013 31.1548 21.9732 31.8799 22.774C32.6038 23.576 33.7112 23.9787 35.2043 23.9787C36.6963 23.9787 37.8037 23.576 38.5277 22.774C39.2516 21.9732 39.6136 20.8013 39.6136 19.2629V11.7691C39.6136 11.1345 39.7934 10.6775 40.1554 10.3947C40.5173 10.1119 41.0139 9.97168 41.6474 9.97168C42.0783 9.97168 42.4618 10.0214 42.8 10.1233C43.1405 10.2262 43.3667 10.2986 43.4787 10.3438V20.1113C43.4787 21.2651 43.2807 22.2989 42.886 23.2152C42.4889 24.1314 41.9256 24.9051 41.1904 25.5374C40.4563 26.1708 39.5796 26.6516 38.5616 26.9796C37.5447 27.3065 36.4248 27.4717 35.2043 27.4717C33.9827 27.4717 32.864 27.3065 31.8471 26.9796C30.8279 26.6516 29.9581 26.1708 29.2341 25.5374C28.5102 24.9051 27.9458 24.1314 27.5386 23.2152C27.1325 22.2989 26.9277 21.2651 26.9277 20.1113V11.7691Z" fill="black"/>
<path fill-rule="evenodd" clip-rule="evenodd" d="M46.5312 6.95267C46.5312 6.31809 46.7111 5.86224 47.0742 5.57832C47.435 5.29554 47.9327 5.15527 48.5662 5.15527C48.9723 5.15527 49.3501 5.20504 49.7019 5.30798C50.0525 5.40978 50.2833 5.48331 50.3975 5.52742V9.97057H55.3157C56.0623 9.97057 56.5872 10.1233 56.8926 10.4276C57.198 10.7341 57.3484 11.1786 57.3484 11.768C57.3484 12.1537 57.2941 12.5077 57.181 12.8358C57.0668 13.1638 56.9763 13.3957 56.9095 13.5314H50.3975V21.0954C50.3975 21.6825 50.4756 22.1632 50.6351 22.5354C50.7934 22.9086 51.0129 23.2084 51.2956 23.4335C51.5796 23.6608 51.9065 23.8192 52.2797 23.9108C52.6519 24.0002 53.0433 24.0443 53.4482 24.0443C54.1054 24.0443 54.7162 23.9436 55.2807 23.74C55.8451 23.5364 56.2546 23.3441 56.5023 23.1643L58.0622 25.741C57.8812 25.8768 57.6278 26.0476 57.2998 26.25C56.9706 26.4536 56.5702 26.6459 56.0951 26.8258C55.62 27.0079 55.0884 27.1595 54.5013 27.285C53.9131 27.4083 53.2695 27.4706 52.5693 27.4706C50.5785 27.4706 49.0752 26.957 48.0583 25.9265C47.0391 24.9006 46.5312 23.5489 46.5312 21.8748V6.95267Z" fill="black"/>
<path fill-rule="evenodd" clip-rule="evenodd" d="M68.747 23.9782C69.515 23.9782 70.222 23.8368 70.8667 23.554C71.5104 23.2712 72.0646 22.8878 72.5284 22.4002C72.9922 21.9139 73.3485 21.3381 73.5973 20.6696C73.8451 20.0045 73.9695 19.276 73.9695 18.4831C73.9695 17.6913 73.8451 16.956 73.5973 16.2773C73.3485 15.5998 72.9922 15.0184 72.5284 14.532C72.0646 14.0467 71.5104 13.6621 70.8667 13.3793C70.222 13.0966 69.515 12.954 68.747 12.954C67.9552 12.954 67.238 13.0966 66.5933 13.3793C65.9485 13.6621 65.3999 14.0524 64.9486 14.5478C64.495 15.0467 64.1409 15.6349 63.8796 16.3124C63.6206 16.9911 63.4905 17.715 63.4905 18.4831C63.4905 19.2964 63.6206 20.0429 63.8796 20.7205C64.1409 21.4003 64.5006 21.9761 64.9655 22.45C65.4282 22.9251 65.9824 23.2984 66.6283 23.5699C67.2708 23.8425 67.9778 23.9782 68.747 23.9782ZM59.6582 3.79739C59.6582 3.18771 59.8381 2.73525 60.2 2.44115C60.5609 2.14705 61.071 2 61.7259 2C62.1332 2 62.5064 2.0509 62.8446 2.1527C63.184 2.25564 63.4091 2.32803 63.5245 2.37328V12.1068C64.0889 11.3829 64.8694 10.7675 65.8637 10.2585C66.8591 9.74949 68.0004 9.49385 69.2888 9.49385C70.5331 9.49385 71.6812 9.71556 72.732 10.1567C73.7828 10.5979 74.7002 11.22 75.4784 12.022C76.2601 12.8251 76.8709 13.7741 77.3098 14.8702C77.752 15.9674 77.9715 17.171 77.9715 18.4831C77.9715 19.7715 77.7453 20.9716 77.2939 22.0779C76.8415 23.1864 76.2069 24.1366 75.3959 24.9272C74.5803 25.719 73.6132 26.3412 72.4945 26.7925C71.3746 27.245 70.1485 27.4701 68.8148 27.4701C67.4801 27.4701 66.2539 27.2676 65.1352 26.8604C64.0143 26.4531 63.0505 25.8423 62.235 25.029C61.4205 24.2146 60.7882 23.1977 60.3358 21.9761C59.8833 20.7544 59.6582 19.3201 59.6582 17.6698V3.79739Z" fill="black"/>
<path fill-rule="evenodd" clip-rule="evenodd" d="M80.2441 16.0411C80.2441 13.9609 80.8821 12.3501 82.1603 11.2088C83.4374 10.0663 85.2076 9.49512 87.4677 9.49512C88.8929 9.49512 90.0512 9.6942 90.9448 10.0878C91.8384 10.4849 92.2852 11.0889 92.2852 11.9045C92.2852 12.2891 92.1777 12.6612 91.9628 13.022C91.7468 13.384 91.5726 13.6102 91.438 13.7007C91.0523 13.5197 90.5783 13.3501 90.0127 13.1917C89.4472 13.0345 88.8013 12.9542 88.0785 12.9542C85.435 12.9542 84.1115 14.3568 84.1115 17.1598V26.9962H80.2441V16.0411Z" fill="black"/>
<path fill-rule="evenodd" clip-rule="evenodd" d="M105.17 19.3983C104.945 19.3531 104.521 19.2852 103.899 19.1947C103.276 19.1053 102.345 19.059 101.101 19.059C99.5622 19.059 98.4446 19.2909 97.7433 19.7546C97.042 20.2184 96.6913 20.948 96.6913 21.9423C96.6913 22.3495 96.7637 22.7216 96.9119 23.0621C97.0589 23.4014 97.3134 23.6888 97.6743 23.9274C98.0362 24.1638 98.5283 24.346 99.1504 24.4693C99.7725 24.5937 100.547 24.6559 101.475 24.6559C102.513 24.6559 103.339 24.6163 103.95 24.536C104.56 24.4591 104.968 24.3957 105.17 24.3505V19.3983ZM109.002 26.9284C108.776 26.9725 108.421 27.0234 107.935 27.0811C107.45 27.1365 106.877 27.1942 106.222 27.2496C105.566 27.3062 104.831 27.3571 104.017 27.4034C103.204 27.4464 102.356 27.4713 101.475 27.4713C99.7103 27.4713 98.2693 27.3175 97.1494 27.0121C96.0307 26.7078 95.1484 26.3006 94.5048 25.7916C93.8612 25.2825 93.4189 24.6955 93.1813 24.027C92.9438 23.3619 92.8262 22.6775 92.8262 21.9751C92.8262 21.0487 92.9676 20.2354 93.2504 19.5341C93.532 18.8339 93.9958 18.2445 94.6394 17.7717C95.2842 17.2966 96.1269 16.9403 97.1664 16.7017C98.207 16.4641 99.4739 16.3453 100.966 16.3453C101.823 16.3453 102.639 16.3748 103.406 16.4313C104.175 16.4879 104.752 16.5388 105.136 16.584C105.136 15.7922 105.005 15.1362 104.747 14.617C104.487 14.0966 104.131 13.6894 103.68 13.3964C103.226 13.1023 102.683 12.8987 102.051 12.7856C101.417 12.6725 100.716 12.616 99.9479 12.616C98.6595 12.616 97.6245 12.763 96.844 13.0571C96.0646 13.3512 95.5511 13.5989 95.3011 13.8037C95.1654 13.6894 94.9787 13.4756 94.7412 13.1578C94.5048 12.8422 94.386 12.4576 94.386 12.0051C94.386 11.6895 94.4709 11.3773 94.6394 11.0719C94.8102 10.7677 95.1088 10.4962 95.5387 10.2586C95.9685 10.0211 96.5454 9.83559 97.2682 9.69872C97.9921 9.56299 98.9083 9.49512 100.013 9.49512C101.349 9.49512 102.564 9.62633 103.661 9.88536C104.76 10.1455 105.702 10.5584 106.493 11.124C107.284 11.6895 107.9 12.4361 108.341 13.3625C108.782 14.2889 109.002 15.4088 109.002 16.7198V26.9284Z" fill="black"/>
<path fill-rule="evenodd" clip-rule="evenodd" d="M112.461 11.7683C112.461 11.1337 112.643 10.6767 113.004 10.3939C113.366 10.1111 113.875 9.97087 114.531 9.97087C114.937 9.97087 115.311 10.0206 115.649 10.1224C115.988 10.2254 116.214 10.2978 116.328 10.343V26.9958H112.461V11.7683ZM114.395 2.33789C115.051 2.33789 115.604 2.56412 116.057 3.01771C116.508 3.47017 116.734 4.0233 116.734 4.67824C116.734 5.33543 116.508 5.88856 116.057 6.33989C115.604 6.79461 115.051 7.01971 114.395 7.01971C113.74 7.01971 113.186 6.79461 112.732 6.33989C112.281 5.88856 112.055 5.33543 112.055 4.67824C112.055 4.0233 112.281 3.47017 112.732 3.01771C113.186 2.56412 113.74 2.33789 114.395 2.33789Z" fill="black"/>
<path fill-rule="evenodd" clip-rule="evenodd" d="M119.787 16.7198C119.787 15.5897 119.996 14.5774 120.414 13.6838C120.831 12.7901 121.409 12.0334 122.143 11.4124C122.879 10.7903 123.75 10.3163 124.756 9.9883C125.761 9.66026 126.864 9.49512 128.06 9.49512C129.26 9.49512 130.368 9.66026 131.386 9.9883C132.403 10.3163 133.279 10.7903 134.014 11.4124C134.748 12.0334 135.32 12.7901 135.727 13.6838C136.133 14.5774 136.338 15.5897 136.338 16.7198V26.9962H132.472V17.7027C132.472 16.1666 132.097 14.9959 131.353 14.1939C130.605 13.3908 129.508 12.9881 128.06 12.9881C126.592 12.9881 125.49 13.3908 124.756 14.1939C124.021 14.9959 123.653 16.1666 123.653 17.7027V26.9962H119.787V16.7198Z" fill="black"/>
<path fill-rule="evenodd" clip-rule="evenodd" d="M18.2013 23.5782C17.4683 24.2976 16.6098 24.8598 15.6245 25.2693C14.6393 25.6754 13.5681 25.879 12.4132 25.879C11.2572 25.879 10.1871 25.6754 9.20302 25.2693C8.21666 24.8598 7.35698 24.2976 6.624 23.5782C5.89102 22.8611 5.31639 22.0127 4.90239 21.0343C4.50197 20.0897 4.2961 19.0683 4.28139 17.9722H6.23036C6.25072 18.3093 6.32312 18.6249 6.44867 18.9213C6.59912 19.2776 6.80838 19.5853 7.07307 19.8454C7.33889 20.1067 7.65221 20.3115 8.00966 20.4574C8.3671 20.6067 8.75621 20.6813 9.17587 20.6813C9.59552 20.6813 9.98238 20.6067 10.341 20.4574C10.6984 20.3115 11.0117 20.1067 11.2775 19.8454C11.5434 19.5853 11.7526 19.2776 11.9019 18.9213C12.0026 18.6871 12.0682 18.4383 12.101 18.1781H12.7254C12.7582 18.4383 12.8238 18.6871 12.9245 18.9213C13.0761 19.2776 13.2831 19.5853 13.55 19.8454C13.8147 20.1067 14.128 20.3115 14.4855 20.4574C14.8429 20.6067 15.232 20.6813 15.6506 20.6813C16.0713 20.6813 16.4593 20.6067 16.8168 20.4574C17.1742 20.3115 17.4875 20.1067 17.7534 19.8454C18.0192 19.5853 18.2284 19.2776 18.3789 18.9213C18.5044 18.6249 18.5768 18.3093 18.5983 17.9722H20.5428C20.5315 19.0683 20.3245 20.0897 19.924 21.0343C19.5089 22.0127 18.9343 22.8611 18.2013 23.5782ZM10.9291 17.7675C10.9291 18.0141 10.8839 18.2426 10.7957 18.4541C10.7063 18.6634 10.583 18.8455 10.4235 19.0016C10.264 19.1577 10.0797 19.2787 9.86813 19.3658C9.65434 19.454 9.42472 19.4982 9.17587 19.4982C8.92589 19.4982 8.69513 19.454 8.48248 19.3658C8.27095 19.2787 8.08544 19.1577 7.92708 19.0016C7.76759 18.8455 7.6443 18.6634 7.55607 18.4541C7.46671 18.2426 7.42146 18.0141 7.42146 17.7675C7.42146 17.5232 7.46671 17.2936 7.55607 17.082C7.6443 16.8716 7.76759 16.6895 7.92708 16.5334C8.08544 16.3796 8.27095 16.2574 8.48248 16.1703C8.69513 16.0821 8.92589 16.038 9.17587 16.038C9.42472 16.038 9.65434 16.0821 9.86813 16.1703C10.0797 16.2574 10.264 16.3796 10.4235 16.5334C10.583 16.6895 10.7063 16.8716 10.7957 17.082C10.8839 17.2936 10.9291 17.5232 10.9291 17.7675ZM17.405 17.7675C17.405 18.0141 17.3609 18.2426 17.2704 18.4541C17.1821 18.6634 17.0577 18.8455 16.9005 19.0016C16.7421 19.1577 16.5555 19.2787 16.3428 19.3658C16.1313 19.454 15.9005 19.4982 15.6506 19.4982C15.4017 19.4982 15.171 19.454 14.9594 19.3658C14.7456 19.2787 14.5601 19.1577 14.4029 19.0016C14.2445 18.8455 14.1212 18.6634 14.0308 18.4541C13.9414 18.2426 13.8973 18.0141 13.8973 17.7675C13.8973 17.5232 13.9414 17.2936 14.0308 17.082C14.1212 16.8716 14.2445 16.6895 14.4029 16.5334C14.5601 16.3796 14.7456 16.2574 14.9594 16.1703C15.171 16.0821 15.4017 16.038 15.6506 16.038C15.9005 16.038 16.1313 16.0821 16.3428 16.1703C16.5555 16.2574 16.7421 16.3796 16.9005 16.5334C17.0577 16.6895 17.1821 16.8716 17.2704 17.082C17.3609 17.2936 17.405 17.5232 17.405 17.7675ZM5.00533 14.4657C6.38872 14.0098 8.22344 13.4284 8.22344 13.4284C12.2594 12.1446 12.8001 10.6266 12.8001 10.6266C12.8001 10.6266 13.6496 12.1446 16.5792 13.1456C16.5792 13.1456 18.1979 13.6784 19.7035 14.2225C19.7792 14.3718 19.8573 14.5211 19.924 14.6795C20.1887 15.3039 20.3686 15.9622 20.4636 16.6511H18.3925L18.3789 16.6149C18.2284 16.2586 18.0192 15.952 17.7534 15.6907C17.4875 15.4294 17.1742 15.2247 16.8168 15.0765C16.4593 14.9295 16.0713 14.8559 15.6506 14.8559C15.232 14.8559 14.8429 14.9295 14.4855 15.0765C14.128 15.2247 13.8147 15.4294 13.55 15.6907C13.2831 15.952 13.0761 16.2586 12.9245 16.6149C12.877 16.7268 12.8374 16.8411 12.8046 16.9576H12.0218C11.9902 16.8411 11.9506 16.7268 11.9019 16.6149C11.7526 16.2586 11.5434 15.952 11.2775 15.6907C11.0117 15.4294 10.6984 15.2247 10.341 15.0765C9.98238 14.9295 9.59552 14.8559 9.17587 14.8559C8.75621 14.8559 8.3671 14.9295 8.00966 15.0765C7.65221 15.2247 7.33889 15.4294 7.07307 15.6907C6.80838 15.952 6.59912 16.2586 6.44867 16.6149C6.44302 16.6262 6.43962 16.6386 6.43397 16.6511H4.36397C4.45898 15.9622 4.63771 15.3039 4.90239 14.6795C4.93407 14.6059 4.97253 14.5381 5.00533 14.4657ZM23.8774 10.5123C23.2428 9.02034 22.3684 7.7263 21.2475 6.63022C20.1288 5.53188 18.8178 4.67334 17.3145 4.05234C15.81 3.43021 14.1767 3.11914 12.4132 3.11914C10.6498 3.11914 9.01638 3.43021 7.51195 4.05234C6.00866 4.67334 4.69652 5.53188 3.57782 6.63022C2.45911 7.7263 1.58248 9.02034 0.950164 10.5123C0.31559 12.0054 0 13.623 0 15.3627C0 17.1046 0.31559 18.7199 0.950164 20.213C1.58248 21.7062 2.45911 22.9991 3.57782 24.0963C4.69652 25.1935 6.00866 26.052 7.51195 26.6742C9.01638 27.2952 10.6498 27.6062 12.4132 27.6062C14.1767 27.6062 15.81 27.2952 17.3145 26.6742C18.8178 26.052 20.1288 25.1935 21.2475 24.0963C22.3684 22.9991 23.2428 21.7062 23.8774 20.213C24.5086 18.7199 24.8253 17.1046 24.8253 15.3627C24.8253 13.623 24.5086 12.0054 23.8774 10.5123Z" fill="black"/>
</g>
<defs>
<clipPath id="clip0">
<rect width="138" height="26.0164" fill="white" transform="translate(0 2)"/>
</clipPath>
</defs>
</svg>
