<svg xmlns="http://www.w3.org/2000/svg" width="167" height="40" fill="none"><g clip-path="url(#a)"><path fill="#000" d="M138.734 29.803c6.287 0 10.012-3.913 10.012-10.415 0-6.473-3.727-10.372-9.869-10.372h-7.13v20.787h6.987Zm-3.255-3.254V12.277h3.185c4.19 0 6.369 2.356 6.369 7.113 0 4.782-2.179 7.16-6.479 7.16h-3.075Zm15.358 3.253h8.346c4.722 0 7.039-2.425 7.039-5.658 0-3.146-2.215-4.993-4.41-5.11v-.203c2.011-.474 3.605-1.895 3.605-4.422 0-3.098-2.217-5.393-6.686-5.393h-7.894v20.786Zm3.732-3.145V20.57h4.12c2.305 0 3.732 1.421 3.732 3.275 0 1.658-1.126 2.812-3.833 2.812h-4.019Zm0-8.796v-5.734h3.779c2.194 0 3.335 1.162 3.335 2.77 0 1.821-1.477 2.964-3.417 2.964h-3.697Zm-83.495 1.575c0-6.582-3.984-10.462-9.282-10.462-5.301 0-9.28 3.878-9.28 10.462 0 6.57 3.977 10.456 9.28 10.456a9.646 9.646 0 0 0 3.582-.666l1.667 2.132h3.549l-2.803-3.614c2.03-1.793 3.29-4.626 3.29-8.308h-.003Zm-10.526 3.336 2.735 3.621a5.63 5.63 0 0 1-1.49.191c-3.288 0-5.605-2.521-5.605-7.148 0-4.633 2.318-7.153 5.604-7.153 3.295 0 5.606 2.52 5.606 7.153 0 2.5-.677 4.383-1.82 5.583l-1.714-2.247h-3.316Zm22.309.15c0 2.323-1.645 3.478-3.225 3.478-1.715 0-2.857-1.223-2.857-3.165V14.07h-3.57v9.721c0 3.67 2.039 5.856 5.019 5.856 2.269 0 3.896-1.311 4.586-3.023h.157v3.023h3.46V14.07h-3.57v8.852Zm13.035 6.991c3.535 0 5.96-1.74 6.588-4.396l-3.335-.381c-.478 1.297-1.667 1.97-3.206 1.97-2.302 0-3.833-1.529-3.861-4.144h10.552V21.86c0-5.36-3.198-7.717-6.923-7.717-4.34 0-7.169 3.213-7.169 7.92 0 4.797 2.788 7.847 7.354 7.847v.002Zm-3.807-9.376c.108-1.95 1.538-3.587 3.67-3.587 2.05 0 3.43 1.507 3.451 3.587h-7.121Zm25.049-2.161c-.49-2.581-2.543-4.232-6.089-4.232-3.65 0-6.138 1.807-6.124 4.633-.014 2.228 1.347 3.696 4.257 4.306l2.584.545c1.395.306 2.044.876 2.044 1.739 0 1.047-1.129 1.826-2.823 1.826-1.634 0-2.699-.713-3.009-2.084l-3.477.34c.445 2.8 2.782 4.462 6.5 4.462 3.787 0 6.457-1.975 6.466-4.87-.007-2.18-1.402-3.512-4.259-4.138l-2.583-.557c-1.539-.346-2.152-.883-2.14-1.765-.014-1.033 1.12-1.753 2.611-1.753 1.648 0 2.516.904 2.789 1.908l3.253-.36Zm10.874-4.035h-2.992v-3.654h-3.569v3.654h-2.145v2.786h2.145v8.49c-.021 2.875 2.05 4.28 4.736 4.206 1.011-.035 1.715-.23 2.1-.36l-.602-2.813c-.342.086-.694.131-1.046.136-.896 0-1.621-.313-1.621-1.765v-7.896h2.994v-2.784Z"/><mask id="b" width="34" height="40" x="0" y="0" maskUnits="userSpaceOnUse" style="mask-type:luminance"><path fill="#fff" d="M.027.115h33.217v39.864H.027V.115Z"/></mask><g mask="url(#b)"><path fill="#000" d="M7.584 20.014c0-6.91 5.673-12.473 12.714-12.473 2.542 0 4.887.699 6.841 1.982l5.475-5.31A20.43 20.43 0 0 0 20.294.114C9.09.115.027 9.009.027 20.014c0 11.012 9.064 19.904 20.272 19.904v-7.426c-7.04 0-12.715-5.563-12.715-12.478Z"/></g><path fill="#000" d="M33.006 20.014h7.559c0-5.245-2.083-10.042-5.473-13.628l-5.346 5.252a12.466 12.466 0 0 1 3.26 8.376Z"/><mask id="c" width="34" height="21" x="13" y="19" maskUnits="userSpaceOnUse" style="mask-type:luminance"><path fill="#fff" d="M13.996 19.13h32.11v20.85h-32.11V19.13Z"/></mask><g mask="url(#c)"><path fill="#000" d="M26.49 20.66H15.343l19.684 19.32 11.08-.062L26.488 20.66Z"/></g><mask id="d" width="47" height="40" x="0" y="0" maskUnits="userSpaceOnUse" style="mask-type:luminance"><path fill="#fff" d="M.027.115h46.08v39.864H.028V.115Z"/></mask><mask id="e" width="167" height="40" x="0" y="0" maskUnits="userSpaceOnUse" style="mask-type:luminance"><path fill="#000" fill-opacity=".6" d="M0 0h166.222v40H0V0Z"/></mask><g mask="url(#e)"><path fill="#000" d="M0 0h166.222v40H0V0Z"/><path fill="url(#f)" d="M2.7 10.102c-4.887 13.948 9.71 19.77 9.71 19.77-1.563-1.149-3.518-3.839-4.106-5.762-1.237-3.968-.846-7.1 1.176-10.557"/></g></g><defs><linearGradient id="f" x1="4.894" x2="10.029" y1="27.191" y2="12.668" gradientUnits="userSpaceOnUse"><stop stop-color="#fff" stop-opacity=".38"/><stop offset=".86" stop-color="#fff" stop-opacity=".012"/><stop offset="1" stop-color="#fff" stop-opacity="0"/></linearGradient><clipPath id="a"><path fill="#fff" d="M0 0h166.222v40H0z"/></clipPath></defs></svg>