<svg xmlns="http://www.w3.org/2000/svg" width="267" height="35" fill="none" viewBox="0 0 267 35"><path fill="#000" d="M61.9494 12.9404H39.4734L38.6406 13.6066V34.9941H44.8625V26.9739L45.4564 26.4046H61.9502C66.1147 26.4046 68.0671 25.2061 68.0671 22.1309V17.2202C68.0663 14.1398 66.1147 12.9404 61.9494 12.9404ZM61.9494 20.8475C61.9494 22.2963 61.0533 22.5973 59.1009 22.5973H45.5246L44.8617 21.908V17.3265L45.4556 16.7452H59.1009C61.0533 16.7452 61.9494 17.0427 61.9494 18.4984V20.8475Z"/><path fill="#000" d="M79.4108 16.9862L84.7647 25.3767L84.4682 26.1895H72.6279L69.6055 30.1666H87.2301L88.4516 30.9622L91.1878 34.9993H98.3082L82.7009 12.667"/><path fill="#000" d="M150.212 30.6552V24.7191L150.852 24.1276H162.764V20.3477H143.885V34.9984H171.733V31.2365H150.88"/><path fill="#000" d="M172.027 12.9404H143.885V17.0967H172.027V12.9404Z"/><path fill="#000" d="M112.497 16.8759H135.17C134.82 13.7921 133.031 12.9365 128.493 12.9365H112.256C107.135 12.9365 105.502 14.0056 105.502 18.1507V29.7802C105.502 33.9297 107.135 34.9987 112.256 34.9987H128.493C133.098 34.9987 134.861 34.0737 134.981 30.875H112.497L111.83 30.2038V17.3251"/><path fill="#000" d="M23.5097 21.5338H7.016L6.5303 20.962V17.1881L7.01359 16.7886H29.2484L29.5521 15.9938C28.7947 13.9097 26.8335 12.9375 23.1915 12.9375H7.74615C2.62867 12.9375 0.992844 14.0066 0.992844 18.1517V20.5899C0.992844 24.7402 2.62867 25.8076 7.74615 25.8076H24.203L24.72 26.2928V30.2382L24.2984 30.8537H5.47394V30.8349H0.543212C0.543212 30.8349 -0.0210332 31.1375 0.000606917 31.279C0.421386 34.1784 2.268 34.9997 6.68899 34.9997H23.5097C28.6264 34.9997 30.3111 33.9306 30.3111 29.7812V26.7437C30.3111 22.6012 28.6264 21.5338 23.5097 21.5338Z"/><path fill="#000" d="M189.731 12.8496H180.473L179.971 13.8724L190.252 21.8892C192.2 20.6829 194.319 19.4604 196.624 18.2541"/><path fill="#000" d="M198.027 27.9514L207.064 35.0003H216.435L216.823 34.0667L203.329 23.502C201.537 24.9088 199.767 26.3945 198.027 27.9514Z"/><path fill="#000" d="M188.354 34.9837H179.977L179.27 33.798C184.965 27.916 210.438 2.70141 265.807 0C265.807 0 219.333 1.67691 188.354 34.9837Z"/></svg>