<svg fill="none" xmlns="http://www.w3.org/2000/svg" viewBox="0 0 287 45"><path d="M82.949 14.94H60.473l-.833.667v21.387h6.222v-8.02l.594-.57H82.95c4.164 0 6.117-1.198 6.117-4.273v-4.91c-.001-3.081-1.953-4.28-6.118-4.28Zm0 7.908c0 1.448-.896 1.75-2.849 1.75H66.524l-.663-.69v-4.582l.594-.58H80.1c1.953 0 2.849.297 2.849 1.752v2.35ZM100.411 18.986l5.354 8.39-.297.813h-11.84l-3.022 3.978h17.624l1.222.795L112.188 37h7.12l-15.607-22.332M171.213 32.655V26.72l.64-.591h11.912v-3.78h-18.879v14.65h27.848v-3.761h-20.853M193.028 14.94h-28.142v4.157h28.142V14.94ZM133.497 18.876h22.672c-.349-3.084-2.138-3.94-6.676-3.94h-16.237c-5.121 0-6.755 1.07-6.755 5.215v11.63c0 4.149 1.634 5.218 6.755 5.218h16.237c4.604 0 6.368-.925 6.488-4.124h-22.484l-.667-.671V19.325M44.51 23.534H28.016l-.486-.572v-3.774l.484-.4h22.234l.304-.794c-.757-2.084-2.718-3.056-6.36-3.056H28.745c-5.117 0-6.753 1.069-6.753 5.214v2.438c0 4.15 1.636 5.218 6.753 5.218h16.457l.517.485v3.945l-.422.616H26.474v-.019h-4.93s-.565.303-.543.444c.42 2.9 2.267 3.721 6.688 3.721h16.82c5.117 0 6.802-1.07 6.802-5.218v-3.038c0-4.143-1.685-5.21-6.801-5.21ZM210.731 14.85h-9.258l-.502 1.022 10.281 8.017a101.338 101.338 0 0 1 6.372-3.635M219.027 29.951l9.037 7.05h9.371l.388-.935-13.494-10.564a107.225 107.225 0 0 0-5.302 4.45Z" fill="#000"/><path d="M209.354 36.984h-8.377l-.707-1.186C205.965 29.916 231.438 4.701 286.807 2c0 0-46.474 1.677-77.453 34.984Z" fill="#000"/></svg>