<svg fill="none" viewBox="0 0 36 36"><path fill="#1D4AFF" d="M24.25 17.992a.48.48 0 01-.48.48h-4.462a.481.481 0 110-.96h4.461c.265 0 .48.215.481.48zm-4.653-1.747v.885h3.878v-.938a4.893 4.893 0 00-4.885-4.89h-2.418c.015.039.027.08.043.119.022.057.046.118.068.179.03.095.06.194.088.29l.046.178c.023.107.042.218.057.325l.023.156a4.506 4.506 0 01.001.985l-.023.156c-.019.11-.035.222-.06.328h-.002c-.01.06-.027.12-.046.18-.027.099-.053.198-.088.297a3.264 3.264 0 01-.064.175c-.015.038-.027.08-.043.118h1.964a1.46 1.46 0 011.461 1.457zm-17.847-.26h2.483v-5.883H1.75v5.883zm6.086-1.49a4.569 4.569 0 01-.092-.294l-.046-.179a5.005 5.005 0 01-.057-.328c-.007-.053-.019-.107-.026-.157a5.418 5.418 0 01-.026-.495c0-.165.01-.329.026-.493l.022-.152a4.6 4.6 0 01.058-.329l.046-.175c.027-.1.057-.199.091-.297.02-.057.043-.114.065-.175.015-.039.026-.076.042-.118H4.614v3.485h3.33c-.016-.038-.028-.08-.043-.118a4.415 4.415 0 01-.065-.175zm6.148-5.057a4.175 4.175 0 00-3.856 0 4.105 4.105 0 00-1.72 1.761 4.09 4.09 0 007.296 3.693c.068-.135.128-.274.179-.416l.011-.019a4.11 4.11 0 00-.19-3.257 4.108 4.108 0 00-1.72-1.762zm-3.756-1.621v1.144c.05-.019.1-.035.149-.054l-.001.001a4.623 4.623 0 01.595-.195 4.363 4.363 0 012.182.004 4.487 4.487 0 01.587.191c.046.019.095.035.145.054V7.817a.405.405 0 00-.405-.4h-2.848a.404.404 0 00-.404.4zm1.388-1.67v.888h.882l-.002-.888a1.305 1.305 0 01-.88 0zm5.415-1.187a.89.89 0 00-.889-.887.873.873 0 00-.763.45.198.198 0 01-.168.094h-2.219a.198.198 0 01-.168-.094.88.88 0 00-1.536 0 .198.198 0 01-.168.094H8.9a.198.198 0 01-.168-.094.867.867 0 00-.762-.45.886.886 0 100 1.772.866.866 0 00.762-.446.188.188 0 01.168-.095h2.22a.2.2 0 01.168.095.761.761 0 00.259.279.9.9 0 001.025 0 .835.835 0 00.253-.279.2.2 0 01.167-.095h2.22a.19.19 0 01.167.095.883.883 0 001.65-.439h.002zm4.34 15.343c-.168.29-1.655 2.875-1.655 3.802a1.826 1.826 0 001.823 1.831 1.824 1.824 0 001.822-1.83c0-.928-1.49-3.513-1.658-3.803a.2.2 0 00-.332 0z"/><path fill="url(#paint0_linear)" d="M24.25 17.992a.48.48 0 01-.48.48h-4.462a.481.481 0 110-.96h4.461c.265 0 .48.215.481.48zm-4.653-1.747v.885h3.878v-.938a4.893 4.893 0 00-4.885-4.89h-2.418c.015.039.027.08.043.119.022.057.046.118.068.179.03.095.06.194.088.29l.046.178c.023.107.042.218.057.325l.023.156a4.506 4.506 0 01.001.985l-.023.156c-.019.11-.035.222-.06.328h-.002c-.01.06-.027.12-.046.18-.027.099-.053.198-.088.297a3.264 3.264 0 01-.064.175c-.015.038-.027.08-.043.118h1.964a1.46 1.46 0 011.461 1.457zm-17.847-.26h2.483v-5.883H1.75v5.883zm6.086-1.49a4.569 4.569 0 01-.092-.294l-.046-.179a5.005 5.005 0 01-.057-.328c-.007-.053-.019-.107-.026-.157a5.418 5.418 0 01-.026-.495c0-.165.01-.329.026-.493l.022-.152a4.6 4.6 0 01.058-.329l.046-.175c.027-.1.057-.199.091-.297.02-.057.043-.114.065-.175.015-.039.026-.076.042-.118H4.614v3.485h3.33c-.016-.038-.028-.08-.043-.118a4.415 4.415 0 01-.065-.175zm6.148-5.057a4.175 4.175 0 00-3.856 0 4.105 4.105 0 00-1.72 1.761 4.09 4.09 0 007.296 3.693c.068-.135.128-.274.179-.416l.011-.019a4.11 4.11 0 00-.19-3.257 4.108 4.108 0 00-1.72-1.762zm-3.756-1.621v1.144c.05-.019.1-.035.149-.054l-.001.001a4.623 4.623 0 01.595-.195 4.363 4.363 0 012.182.004 4.487 4.487 0 01.587.191c.046.019.095.035.145.054V7.817a.405.405 0 00-.405-.4h-2.848a.404.404 0 00-.404.4zm1.388-1.67v.888h.882l-.002-.888a1.305 1.305 0 01-.88 0zm5.415-1.187a.89.89 0 00-.889-.887.873.873 0 00-.763.45.198.198 0 01-.168.094h-2.219a.198.198 0 01-.168-.094.88.88 0 00-1.536 0 .198.198 0 01-.168.094H8.9a.198.198 0 01-.168-.094.867.867 0 00-.762-.45.886.886 0 100 1.772.866.866 0 00.762-.446.188.188 0 01.168-.095h2.22a.2.2 0 01.168.095.761.761 0 00.259.279.9.9 0 001.025 0 .835.835 0 00.253-.279.2.2 0 01.167-.095h2.22a.19.19 0 01.167.095.883.883 0 001.65-.439h.002zm4.34 15.343c-.168.29-1.655 2.875-1.655 3.802a1.826 1.826 0 001.823 1.831 1.824 1.824 0 001.822-1.83c0-.928-1.49-3.513-1.658-3.803a.2.2 0 00-.332 0z"/><path fill="#1D4AFF" d="M30.974 29.19c-1.586 0-2.644 1.293-2.702 1.352-.118.147-.47.44-.764.44-.118 0-.382-.118-.704-.47-.764-.88-1.645-1.322-2.615-1.322-1.528 0-2.555 1.204-2.702 1.352-.118.147-.47.44-.764.44-.147 0-.382-.118-.704-.47-.764-.88-1.645-1.322-2.615-1.322-1.586 0-2.644 1.293-2.702 1.352-.118.147-.47.44-.764.44-.118 0-.382-.118-.704-.47-.764-.88-1.645-1.322-2.615-1.322-1.528 0-2.555 1.204-2.673 1.322-.264.323-.235.764.088 1.029.322.264.763.235 1.028-.088 0 0 .676-.793 1.586-.823.529 0 .998.265 1.47.823.733.852 1.438.998 1.879.998 1.087-.029 1.85-.969 1.85-.998 0 0 .676-.793 1.586-.793.529 0 .999.264 1.47.822.704.823 1.35.999 1.791.999h.088c1.087-.03 1.85-.97 1.85-.999 0-.029.705-.793 1.586-.822.529 0 .999.264 1.47.822.734.852 1.438.999 1.879.999 1.087-.03 1.85-.97 1.85-.999 0 0 .676-.793 1.557-.793h.03c.528 0 .998.264 1.468.823.265.293.735.352 1.03.087a.714.714 0 00.087-1.028c-.734-.94-1.646-1.38-2.615-1.38z"/><path fill="url(#paint1_linear)" d="M30.974 29.19c-1.586 0-2.644 1.293-2.702 1.352-.118.147-.47.44-.764.44-.118 0-.382-.118-.704-.47-.764-.88-1.645-1.322-2.615-1.322-1.528 0-2.555 1.204-2.702 1.352-.118.147-.47.44-.764.44-.147 0-.382-.118-.704-.47-.764-.88-1.645-1.322-2.615-1.322-1.586 0-2.644 1.293-2.702 1.352-.118.147-.47.44-.764.44-.118 0-.382-.118-.704-.47-.764-.88-1.645-1.322-2.615-1.322-1.528 0-2.555 1.204-2.673 1.322-.264.323-.235.764.088 1.029.322.264.763.235 1.028-.088 0 0 .676-.793 1.586-.823.529 0 .998.265 1.47.823.733.852 1.438.998 1.879.998 1.087-.029 1.85-.969 1.85-.998 0 0 .676-.793 1.586-.793.529 0 .999.264 1.47.822.704.823 1.35.999 1.791.999h.088c1.087-.03 1.85-.97 1.85-.999 0-.029.705-.793 1.586-.822.529 0 .999.264 1.47.822.734.852 1.438.999 1.879.999 1.087-.03 1.85-.97 1.85-.999 0 0 .676-.793 1.557-.793h.03c.528 0 .998.264 1.468.823.265.293.735.352 1.03.087a.714.714 0 00.087-1.028c-.734-.94-1.646-1.38-2.615-1.38z"/><path fill="#1D4AFF" d="M27.155 26.693c.205.058.411.058.588.058h.087c.323 0 .647-.058.97-.206.47-.205.851-.558 1.174-.88l.235-.236c.382-.353.734-.528.998-.499.353 0 .705.323 1.029.617a.639.639 0 00.881 0 .64.64 0 000-.881c-.47-.47-1.058-.94-1.821-.97-.588-.028-1.204.236-1.85.824-.088.088-.177.147-.265.235-.293.264-.558.528-.852.646a1.184 1.184 0 01-.44.088h-.03c-.147 0-.234 0-.322-.03-.353-.087-.646-.382-.969-.704l-.207-.03a.639.639 0 00-.881 0 .639.639 0 000 .882l.088.088c.441.382.911.852 1.587.998z"/><path fill="url(#paint2_linear)" d="M27.155 26.693c.205.058.411.058.588.058h.087c.323 0 .647-.058.97-.206.47-.205.851-.558 1.174-.88l.235-.236c.382-.353.734-.528.998-.499.353 0 .705.323 1.029.617a.639.639 0 00.881 0 .64.64 0 000-.881c-.47-.47-1.058-.94-1.821-.97-.588-.028-1.204.236-1.85.824-.088.088-.177.147-.265.235-.293.264-.558.528-.852.646a1.184 1.184 0 01-.44.088h-.03c-.147 0-.234 0-.322-.03-.353-.087-.646-.382-.969-.704l-.207-.03a.639.639 0 00-.881 0 .639.639 0 000 .882l.088.088c.441.382.911.852 1.587.998z"/><path fill="#1D4AFF" d="M13.35 25.547h-.03c-.147 0-.235 0-.322-.029-.353-.088-.647-.382-.97-.705l-.087-.087c-.47-.47-1.058-.94-1.821-.97-.588-.029-1.204.235-1.85.823-.265.235-.265.617-.059.882.235.264.617.264.881.058.383-.353.734-.528.999-.499.353 0 .705.323 1.028.617l.088.088c.411.411.881.852 1.557 1.028.205.059.411.059.588.059h.087c.323 0 .647-.059.97-.206.47-.206.851-.559 1.174-.881l.235-.235c.264-.235.264-.617.058-.881-.234-.265-.617-.265-.88-.059-.089.088-.177.147-.265.235-.293.264-.559.5-.852.646-.236.087-.382.116-.53.116z"/><path fill="url(#paint3_linear)" d="M13.35 25.547h-.03c-.147 0-.235 0-.322-.029-.353-.088-.647-.382-.97-.705l-.087-.087c-.47-.47-1.058-.94-1.821-.97-.588-.029-1.204.235-1.85.823-.265.235-.265.617-.059.882.235.264.617.264.881.058.383-.353.734-.528.999-.499.353 0 .705.323 1.028.617l.088.088c.411.411.881.852 1.557 1.028.205.059.411.059.588.059h.087c.323 0 .647-.059.97-.206.47-.206.851-.559 1.174-.881l.235-.235c.264-.235.264-.617.058-.881-.234-.265-.617-.265-.88-.059-.089.088-.177.147-.265.235-.293.264-.559.5-.852.646-.236.087-.382.116-.53.116z"/><defs><linearGradient id="paint0_linear" x1="13" x2="13" y1="4.073" y2="25.936" gradientUnits="userSpaceOnUse"><stop stop-color="#80ABFF"/><stop offset=".885" stop-color="#fff" stop-opacity="0"/></linearGradient><linearGradient id="paint1_linear" x1="20.768" x2="20.768" y1="29.19" y2="32.481" gradientUnits="userSpaceOnUse"><stop stop-color="#80ABFF"/><stop offset=".885" stop-color="#fff" stop-opacity="0"/></linearGradient><linearGradient id="paint2_linear" x1="29.299" x2="29.299" y1="23.695" y2="26.751" gradientUnits="userSpaceOnUse"><stop stop-color="#80ABFF"/><stop offset=".885" stop-color="#fff" stop-opacity="0"/></linearGradient><linearGradient id="paint3_linear" x1="12.044" x2="12.044" y1="23.754" y2="26.812" gradientUnits="userSpaceOnUse"><stop stop-color="#80ABFF"/><stop offset=".885" stop-color="#fff" stop-opacity="0"/></linearGradient></defs></svg>