<svg fill="none" viewBox="0 0 36 36"><path fill="#F7A501" d="M6 14.791C3.083 14.791 1.04 18 1.04 18S2.529 21.209 6 21.209c3.5 0 4.958-3.209 4.958-3.209S8.946 14.791 6 14.791zm0 5.25A2.029 2.029 0 013.958 18c0-1.137.904-2.041 2.042-2.041 1.137 0 2.041.904 2.041 2.041A2.029 2.029 0 016 20.041z"/><path fill="url(#paint0_linear)" d="M6 14.791C3.083 14.791 1.04 18 1.04 18S2.529 21.209 6 21.209c3.5 0 4.958-3.209 4.958-3.209S8.946 14.791 6 14.791zm0 5.25A2.029 2.029 0 013.958 18c0-1.137.904-2.041 2.042-2.041 1.137 0 2.041.904 2.041 2.041A2.029 2.029 0 016 20.041z"/><path fill="#F7A501" d="M6.875 18a.875.875 0 11-1.75 0 .875.875 0 011.75 0z"/><path fill="url(#paint1_linear)" d="M6.875 18a.875.875 0 11-1.75 0 .875.875 0 011.75 0z"/><path fill="#F7A501" d="M9.57 25H6.26c-.38 0-.69.31-.69.69v2.34c0 .36-.29.65-.65.65H2.65a.65.65 0 00-.65.66v3.13c0 .38.31.69.69.69h6.88c.38 0 .69-.31.69-.69v-6.78c0-.38-.31-.69-.69-.69zm-2.01 5.87c0 .17-.14.3-.31.3H4.4c-.02 0-.03.02-.01.03l.42.42c.02.02.02.05 0 .07l-.29.29c-.02.02-.05.02-.07 0l-.86-.86a.302.302 0 010-.43l.84-.84c.02-.02.05-.02.07 0l.29.29c.02.02.02.05 0 .07l-.42.42c-.01.01 0 .03.01.03H7c.03 0 .05-.02.05-.05v-.97c0-.03.02-.05.05-.05h.41c.03 0 .05.02.05.05v1.23zm1.85-3.27c0 .02-.01.03-.03.03h-.26c-.02 0-.03-.01-.03-.03v-1.19c0-.13-.1-.23-.23-.23H7.73c-.02 0-.03-.01-.03-.03v-.26c0-.02.01-.03.03-.03h1.13c.3 0 .55.24.55.55v1.19z"/><path fill="url(#paint2_linear)" d="M9.57 25H6.26c-.38 0-.69.31-.69.69v2.34c0 .36-.29.65-.65.65H2.65a.65.65 0 00-.65.66v3.13c0 .38.31.69.69.69h6.88c.38 0 .69-.31.69-.69v-6.78c0-.38-.31-.69-.69-.69zm-2.01 5.87c0 .17-.14.3-.31.3H4.4c-.02 0-.03.02-.01.03l.42.42c.02.02.02.05 0 .07l-.29.29c-.02.02-.05.02-.07 0l-.86-.86a.302.302 0 010-.43l.84-.84c.02-.02.05-.02.07 0l.29.29c.02.02.02.05 0 .07l-.42.42c-.01.01 0 .03.01.03H7c.03 0 .05-.02.05-.05v-.97c0-.03.02-.05.05-.05h.41c.03 0 .05.02.05.05v1.23zm1.85-3.27c0 .02-.01.03-.03.03h-.26c-.02 0-.03-.01-.03-.03v-1.19c0-.13-.1-.23-.23-.23H7.73c-.02 0-.03-.01-.03-.03v-.26c0-.02.01-.03.03-.03h1.13c.3 0 .55.24.55.55v1.19z"/><path fill="url(#paint3_linear)" fill-rule="evenodd" d="M19 18.5a.5.5 0 01-.5.5h-5a.5.5 0 010-1h5a.5.5 0 01.5.5z" clip-rule="evenodd"/><path fill="url(#paint4_linear)" fill-rule="evenodd" d="M18.599 12a.5.5 0 01-.683.183l-4.33-2.5a.5.5 0 01.5-.866l4.33 2.5a.5.5 0 01.183.683z" clip-rule="evenodd"/><path fill="url(#paint5_linear)" fill-rule="evenodd" d="M19.25 24.567a.5.5 0 00-.682-.183l-4.33 2.5a.5.5 0 00.5.866l4.33-2.5a.5.5 0 00.183-.683z" clip-rule="evenodd"/><path fill="#F7A501" d="M4.19 6.71a1.84 1.84 0 01-.65-.43c-.75-.75-.75-1.97 0-2.72a1.925 1.925 0 013.11.56l.88.29a2.68 2.68 0 00-4.52-1.39 2.68 2.68 0 000 3.78c.41.41.93.66 1.46.75l-.28-.84z"/><path fill="url(#paint6_linear)" d="M4.19 6.71a1.84 1.84 0 01-.65-.43c-.75-.75-.75-1.97 0-2.72a1.925 1.925 0 013.11.56l.88.29a2.68 2.68 0 00-4.52-1.39 2.68 2.68 0 000 3.78c.41.41.93.66 1.46.75l-.28-.84z"/><path fill="#F7A501" d="M11.52 6.54L4.98 4.36a.45.45 0 00-.47.11c-.12.12-.17.31-.11.47l2.18 6.54c.11.33.56.35.71.04l1.33-2.77c.04-.08.1-.14.18-.18l2.77-1.33c.3-.14.27-.59-.05-.7z"/><path fill="url(#paint7_linear)" d="M11.52 6.54L4.98 4.36a.45.45 0 00-.47.11c-.12.12-.17.31-.11.47l2.18 6.54c.11.33.56.35.71.04l1.33-2.77c.04-.08.1-.14.18-.18l2.77-1.33c.3-.14.27-.59-.05-.7z"/><path fill="#F7A501" d="M28.234 19c3.2 0 5.8-1.2 5.8-2.7v-1.333c0-.133-.167-.233-.267-.133-1.233 1-3.367 1.533-5.533 1.533-2.134 0-4.3-.533-5.534-1.533-.1-.1-.266 0-.266.133V16.3c0 1.467 2.6 2.7 5.8 2.7z"/><path fill="url(#paint8_linear)" d="M28.234 19c3.2 0 5.8-1.2 5.8-2.7v-1.333c0-.133-.167-.233-.267-.133-1.233 1-3.367 1.533-5.533 1.533-2.134 0-4.3-.533-5.534-1.533-.1-.1-.266 0-.266.133V16.3c0 1.467 2.6 2.7 5.8 2.7z"/><path fill="#F7A501" d="M34.034 12.867c0 1.491-2.597 2.7-5.8 2.7-3.204 0-5.8-1.209-5.8-2.7s2.596-2.7 5.8-2.7c3.203 0 5.8 1.209 5.8 2.7z"/><path fill="url(#paint9_linear)" d="M34.034 12.867c0 1.491-2.597 2.7-5.8 2.7-3.204 0-5.8-1.209-5.8-2.7s2.596-2.7 5.8-2.7c3.203 0 5.8 1.209 5.8 2.7z"/><path fill="#F7A501" d="M34 24.233h-2.9c-.066 0-.166-.067-.166-.133v-.267c0-.167-.133-.3-.3-.3h-1.767c-.1 0-.167-.067-.167-.167v-.7c0-.1.067-.167.167-.167 2.9-.133 5.167-1.3 5.167-2.666v-1.334c0-.133-.167-.233-.3-.133-1.233 1-3.367 1.533-5.5 1.533s-4.267-.533-5.5-1.533c-.1-.1-.3 0-.3.133v1.334c0 1.4 2.267 2.533 5.167 2.666.1 0 .166.067.166.167v.7c0 .1-.066.167-.166.167h-1.767c-.167 0-.3.133-.3.3v.267c0 .067-.067.133-.167.133h-2.9c-.267 0-.467.2-.467.467s.2.467.467.467h2.9c.067 0 .167.067.167.133v.267c0 .167.133.3.3.3h4.833c.167 0 .3-.133.3-.3V25.3c0-.067.067-.133.167-.133h2.9c.267 0 .467-.2.467-.467s-.234-.467-.5-.467z"/><path fill="url(#paint10_linear)" d="M34 24.233h-2.9c-.066 0-.166-.067-.166-.133v-.267c0-.167-.133-.3-.3-.3h-1.767c-.1 0-.167-.067-.167-.167v-.7c0-.1.067-.167.167-.167 2.9-.133 5.167-1.3 5.167-2.666v-1.334c0-.133-.167-.233-.3-.133-1.233 1-3.367 1.533-5.5 1.533s-4.267-.533-5.5-1.533c-.1-.1-.3 0-.3.133v1.334c0 1.4 2.267 2.533 5.167 2.666.1 0 .166.067.166.167v.7c0 .1-.066.167-.166.167h-1.767c-.167 0-.3.133-.3.3v.267c0 .067-.067.133-.167.133h-2.9c-.267 0-.467.2-.467.467s.2.467.467.467h2.9c.067 0 .167.067.167.133v.267c0 .167.133.3.3.3h4.833c.167 0 .3-.133.3-.3V25.3c0-.067.067-.133.167-.133h2.9c.267 0 .467-.2.467-.467s-.234-.467-.5-.467z"/><defs><linearGradient id="paint0_linear" x1="6" x2="6" y1="14.791" y2="21.209" gradientUnits="userSpaceOnUse"><stop stop-color="#FFCF70"/><stop offset="1" stop-color="#fff" stop-opacity="0"/></linearGradient><linearGradient id="paint1_linear" x1="6" x2="6" y1="17.125" y2="18.875" gradientUnits="userSpaceOnUse"><stop stop-color="#FFCF70"/><stop offset="1" stop-color="#fff" stop-opacity="0"/></linearGradient><linearGradient id="paint2_linear" x1="6.13" x2="6.13" y1="25" y2="33.16" gradientUnits="userSpaceOnUse"><stop stop-color="#FFCF70"/><stop offset="1" stop-color="#fff" stop-opacity="0"/></linearGradient><linearGradient id="paint3_linear" x1="13" x2="19" y1="19.5" y2="19.5" gradientUnits="userSpaceOnUse"><stop stop-color="#F7A501" stop-opacity="0"/><stop offset="1" stop-color="#F7A501"/></linearGradient><linearGradient id="paint4_linear" x1="12.902" x2="18.099" y1="9.866" y2="12.866" gradientUnits="userSpaceOnUse"><stop stop-color="#F7A501" stop-opacity="0"/><stop offset="1" stop-color="#F7A501"/></linearGradient><linearGradient id="paint5_linear" x1="13.555" x2="18.751" y1="26.701" y2="23.701" gradientUnits="userSpaceOnUse"><stop stop-color="#F7A501" stop-opacity="0"/><stop offset="1" stop-color="#F7A501"/></linearGradient><linearGradient id="paint6_linear" x1="4.88" x2="4.88" y1="2.241" y2="7.551" gradientUnits="userSpaceOnUse"><stop stop-color="#FFCF70"/><stop offset="1" stop-color="#fff" stop-opacity="0"/></linearGradient><linearGradient id="paint7_linear" x1="8.077" x2="8.077" y1="4.334" y2="11.74" gradientUnits="userSpaceOnUse"><stop stop-color="#FFCF70"/><stop offset="1" stop-color="#fff" stop-opacity="0"/></linearGradient><linearGradient id="paint8_linear" x1="28.234" x2="28.234" y1="14.793" y2="19" gradientUnits="userSpaceOnUse"><stop stop-color="#FFCF70"/><stop offset="1" stop-color="#fff" stop-opacity="0"/></linearGradient><linearGradient id="paint9_linear" x1="28.234" x2="28.234" y1="10.167" y2="15.567" gradientUnits="userSpaceOnUse"><stop stop-color="#FFCF70"/><stop offset="1" stop-color="#fff" stop-opacity="0"/></linearGradient><linearGradient id="paint10_linear" x1="28.25" x2="28.25" y1="18.326" y2="25.867" gradientUnits="userSpaceOnUse"><stop stop-color="#FFCF70"/><stop offset="1" stop-color="#fff" stop-opacity="0"/></linearGradient></defs></svg>