<svg fill="none" viewBox="0 0 31 31"><path fill="#F8612E" fill-rule="evenodd" d="M28.157 21.178h-7.32c-.51 0-.923-.387-.923-.865v-7.53c0-.477.413-.864.923-.864h7.32c.51 0 .923.387.923.864v7.53c0 .478-.413.865-.923.865z" clip-rule="evenodd"/><path fill="url(#paint0_linear)" fill-rule="evenodd" d="M28.157 21.178h-7.32c-.51 0-.923-.387-.923-.865v-7.53c0-.477.413-.864.923-.864h7.32c.51 0 .923.387.923.864v7.53c0 .478-.413.865-.923.865z" clip-rule="evenodd"/><path fill="#F7A501" fill-rule="evenodd" d="M1.73.134h5.32c.955 0 1.73.774 1.73 1.73v4.934a1.73 1.73 0 01-1.73 1.73H1.73A1.73 1.73 0 010 6.797V1.863C0 .908.774.133 1.73.133z" clip-rule="evenodd"/><path fill="url(#paint1_linear)" fill-rule="evenodd" d="M1.73.134h5.32c.955 0 1.73.774 1.73 1.73v4.934a1.73 1.73 0 01-1.73 1.73H1.73A1.73 1.73 0 010 6.797V1.863C0 .908.774.133 1.73.133z" clip-rule="evenodd"/><path fill="#F7A501" fill-rule="evenodd" d="M1.82 10.688h5.32c.956 0 1.73.774 1.73 1.73v4.934a1.73 1.73 0 01-1.73 1.73H1.82a1.73 1.73 0 01-1.73-1.73v-4.935a1.73 1.73 0 011.73-1.729z" clip-rule="evenodd"/><path fill="url(#paint2_linear)" fill-rule="evenodd" d="M1.82 10.688h5.32c.956 0 1.73.774 1.73 1.73v4.934a1.73 1.73 0 01-1.73 1.73H1.82a1.73 1.73 0 01-1.73-1.73v-4.935a1.73 1.73 0 011.73-1.729z" clip-rule="evenodd"/><path fill="#F7A501" fill-rule="evenodd" d="M1.73 21.961h5.32c.955 0 1.73.775 1.73 1.73v4.935a1.73 1.73 0 01-1.73 1.73H1.73A1.73 1.73 0 010 28.625V23.69c0-.955.774-1.73 1.73-1.73z" clip-rule="evenodd"/><path fill="url(#paint3_linear)" fill-rule="evenodd" d="M1.73 21.961h5.32c.955 0 1.73.775 1.73 1.73v4.935a1.73 1.73 0 01-1.73 1.73H1.73A1.73 1.73 0 010 28.625V23.69c0-.955.774-1.73 1.73-1.73z" clip-rule="evenodd"/><path fill="#F8612E" fill-rule="evenodd" d="M12.592 8.72c.438 0 .792.355.792.792V29.47a.792.792 0 01-1.583 0V9.512a.79.79 0 01.791-.791z" clip-rule="evenodd"/><path fill="url(#paint4_linear)" fill-rule="evenodd" d="M12.592 8.72c.438 0 .792.355.792.792V29.47a.792.792 0 01-1.583 0V9.512a.79.79 0 01.791-.791z" clip-rule="evenodd"/><path fill="#F8612E" fill-rule="evenodd" d="M13.773 9.92h7.32c.51 0 .922.387.922.865v7.53c0 .477-.413.864-.922.864h-7.32c-.51 0-.923-.387-.923-.864v-7.53c0-.478.413-.865.923-.865z" clip-rule="evenodd"/><path fill="url(#paint5_linear)" fill-rule="evenodd" d="M13.773 9.92h7.32c.51 0 .922.387.922.865v7.53c0 .477-.413.864-.922.864h-7.32c-.51 0-.923-.387-.923-.864v-7.53c0-.478.413-.865.923-.865z" clip-rule="evenodd"/><path fill="#F7A501" fill-rule="evenodd" d="M12.64 1.62h16.888a.6.6 0 110 1.2H12.64a.6.6 0 110-1.2z" clip-rule="evenodd"/><path fill="url(#paint6_linear)" fill-rule="evenodd" d="M12.64 1.62h16.888a.6.6 0 110 1.2H12.64a.6.6 0 110-1.2z" clip-rule="evenodd"/><path fill="#F7A501" fill-rule="evenodd" d="M12.74 5.158h16.887a.6.6 0 010 1.2H12.74a.6.6 0 110-1.2z" clip-rule="evenodd"/><path fill="url(#paint7_linear)" fill-rule="evenodd" d="M12.74 5.158h16.887a.6.6 0 010 1.2H12.74a.6.6 0 110-1.2z" clip-rule="evenodd"/><path fill="#F7A501" fill-rule="evenodd" d="M15.975 25.272h13.312a.6.6 0 110 1.2H15.975a.6.6 0 010-1.2z" clip-rule="evenodd"/><path fill="url(#paint8_linear)" fill-rule="evenodd" d="M15.975 25.272h13.312a.6.6 0 110 1.2H15.975a.6.6 0 010-1.2z" clip-rule="evenodd"/><defs><linearGradient id="paint0_linear" x1="28.943" x2="19.832" y1="16.264" y2="16.264" gradientUnits="userSpaceOnUse"><stop stop-color="#FF5F28" stop-opacity="0"/><stop offset="1" stop-color="#AA3912"/></linearGradient><linearGradient id="paint1_linear" x1="4.39" x2="4.39" y1=".134" y2="8.527" gradientUnits="userSpaceOnUse"><stop stop-color="#FFE29A"/><stop offset="1" stop-color="#fff" stop-opacity="0"/></linearGradient><linearGradient id="paint2_linear" x1="4.48" x2="4.48" y1="10.688" y2="19.082" gradientUnits="userSpaceOnUse"><stop stop-color="#FFE9B3"/><stop offset="1" stop-color="#fff" stop-opacity="0"/></linearGradient><linearGradient id="paint3_linear" x1="4.39" x2="4.39" y1="21.961" y2="30.355" gradientUnits="userSpaceOnUse"><stop stop-color="#FFE299"/><stop offset="1" stop-color="#fff" stop-opacity="0"/></linearGradient><linearGradient id="paint4_linear" x1="12.592" x2="12.592" y1="8.721" y2="30.261" gradientUnits="userSpaceOnUse"><stop stop-color="#FF5F28"/><stop offset=".677" stop-color="#fff" stop-opacity="0"/></linearGradient><linearGradient id="paint5_linear" x1="12.986" x2="22.097" y1="14.835" y2="14.835" gradientUnits="userSpaceOnUse"><stop stop-color="#FF5F28" stop-opacity="0"/><stop offset="1" stop-color="#AA3912"/></linearGradient><linearGradient id="paint6_linear" x1="21.084" x2="21.084" y1="1.621" y2="2.82" gradientUnits="userSpaceOnUse"><stop stop-color="#FFE29C"/><stop offset="1" stop-color="#fff" stop-opacity="0"/></linearGradient><linearGradient id="paint7_linear" x1="21.184" x2="21.184" y1="5.158" y2="6.358" gradientUnits="userSpaceOnUse"><stop stop-color="#FFE9B4"/><stop offset="1" stop-color="#fff" stop-opacity="0"/></linearGradient><linearGradient id="paint8_linear" x1="22.631" x2="22.631" y1="25.272" y2="26.471" gradientUnits="userSpaceOnUse"><stop stop-color="#FFE7AC"/><stop offset="1" stop-color="#fff" stop-opacity="0"/></linearGradient></defs></svg>