<svg width="31" height="31" viewBox="0 0 31 31" fill="none" xmlns="http://www.w3.org/2000/svg">
<path fill-rule="evenodd" clip-rule="evenodd" d="M28.1571 21.1777L20.8372 21.1777C20.3275 21.1777 19.9143 20.7906 19.9143 20.313L19.9143 12.7834C19.9143 12.3059 20.3275 11.9187 20.8372 11.9187L28.1571 11.9187C28.6669 11.9187 29.0801 12.3059 29.0801 12.7834L29.0801 20.313C29.0801 20.7906 28.6669 21.1777 28.1571 21.1777Z" fill="#F8612E"/>
<path fill-rule="evenodd" clip-rule="evenodd" d="M28.1571 21.1777L20.8372 21.1777C20.3275 21.1777 19.9143 20.7906 19.9143 20.313L19.9143 12.7834C19.9143 12.3059 20.3275 11.9187 20.8372 11.9187L28.1571 11.9187C28.6669 11.9187 29.0801 12.3059 29.0801 12.7834L29.0801 20.313C29.0801 20.7906 28.6669 21.1777 28.1571 21.1777Z" fill="url(#paint0_linear)"/>
<path fill-rule="evenodd" clip-rule="evenodd" d="M1.72943 0.133789H7.04983C8.00495 0.133789 8.77926 0.908053 8.77926 1.86322V6.79796C8.77926 7.75308 8.00495 8.52739 7.04983 8.52739H1.72943C0.774307 8.52739 0 7.75308 0 6.79796V1.86322C0 0.908053 0.774307 0.133789 1.72943 0.133789Z" fill="#F7A501"/>
<path fill-rule="evenodd" clip-rule="evenodd" d="M1.72943 0.133789H7.04983C8.00495 0.133789 8.77926 0.908053 8.77926 1.86322V6.79796C8.77926 7.75308 8.00495 8.52739 7.04983 8.52739H1.72943C0.774307 8.52739 0 7.75308 0 6.79796V1.86322C0 0.908053 0.774307 0.133789 1.72943 0.133789Z" fill="url(#paint1_linear)"/>
<path fill-rule="evenodd" clip-rule="evenodd" d="M1.82025 10.688H7.14065C8.09582 10.688 8.87008 11.4623 8.87008 12.4174V17.3522C8.87008 18.3073 8.09582 19.0816 7.14065 19.0816H1.82025C0.865128 19.0816 0.0908203 18.3073 0.0908203 17.3522V12.4174C0.0908203 11.4623 0.865128 10.688 1.82025 10.688Z" fill="#F7A501"/>
<path fill-rule="evenodd" clip-rule="evenodd" d="M1.82025 10.688H7.14065C8.09582 10.688 8.87008 11.4623 8.87008 12.4174V17.3522C8.87008 18.3073 8.09582 19.0816 7.14065 19.0816H1.82025C0.865128 19.0816 0.0908203 18.3073 0.0908203 17.3522V12.4174C0.0908203 11.4623 0.865128 10.688 1.82025 10.688Z" fill="url(#paint2_linear)"/>
<path fill-rule="evenodd" clip-rule="evenodd" d="M1.72943 21.9614H7.04983C8.00495 21.9614 8.77926 22.7357 8.77926 23.6909V28.6256C8.77926 29.5808 8.00495 30.3551 7.04983 30.3551H1.72943C0.774307 30.3551 0 29.5808 0 28.6256V23.6909C0 22.7357 0.774307 21.9614 1.72943 21.9614Z" fill="#F7A501"/>
<path fill-rule="evenodd" clip-rule="evenodd" d="M1.72943 21.9614H7.04983C8.00495 21.9614 8.77926 22.7357 8.77926 23.6909V28.6256C8.77926 29.5808 8.00495 30.3551 7.04983 30.3551H1.72943C0.774307 30.3551 0 29.5808 0 28.6256V23.6909C0 22.7357 0.774307 21.9614 1.72943 21.9614Z" fill="url(#paint3_linear)"/>
<path fill-rule="evenodd" clip-rule="evenodd" d="M12.5924 8.7207C13.0295 8.7207 13.3839 9.07511 13.3839 9.5123V29.4695C13.3839 29.9066 13.0295 30.2611 12.5924 30.2611C12.1552 30.2611 11.8008 29.9066 11.8008 29.4695V9.5123C11.8008 9.07511 12.1552 8.7207 12.5924 8.7207Z" fill="#F8612E"/>
<path fill-rule="evenodd" clip-rule="evenodd" d="M12.5924 8.7207C13.0295 8.7207 13.3839 9.07511 13.3839 9.5123V29.4695C13.3839 29.9066 13.0295 30.2611 12.5924 30.2611C12.1552 30.2611 11.8008 29.9066 11.8008 29.4695V9.5123C11.8008 9.07511 12.1552 8.7207 12.5924 8.7207Z" fill="url(#paint4_linear)"/>
<path fill-rule="evenodd" clip-rule="evenodd" d="M13.7726 9.92041H21.0925C21.6022 9.92041 22.0154 10.3075 22.0154 10.7851V18.3147C22.0154 18.7923 21.6022 19.1794 21.0925 19.1794H13.7726C13.2628 19.1794 12.8496 18.7923 12.8496 18.3147V10.7851C12.8496 10.3075 13.2628 9.92041 13.7726 9.92041Z" fill="#F8612E"/>
<path fill-rule="evenodd" clip-rule="evenodd" d="M13.7726 9.92041H21.0925C21.6022 9.92041 22.0154 10.3075 22.0154 10.7851V18.3147C22.0154 18.7923 21.6022 19.1794 21.0925 19.1794H13.7726C13.2628 19.1794 12.8496 18.7923 12.8496 18.3147V10.7851C12.8496 10.3075 13.2628 9.92041 13.7726 9.92041Z" fill="url(#paint5_linear)"/>
<path fill-rule="evenodd" clip-rule="evenodd" d="M12.6407 1.62061H29.5276C29.8588 1.62061 30.1273 1.8891 30.1273 2.22029C30.1273 2.55147 29.8588 2.81996 29.5276 2.81996H12.6407C12.3095 2.81996 12.041 2.55147 12.041 2.22029C12.041 1.8891 12.3095 1.62061 12.6407 1.62061Z" fill="#F7A501"/>
<path fill-rule="evenodd" clip-rule="evenodd" d="M12.6407 1.62061H29.5276C29.8588 1.62061 30.1273 1.8891 30.1273 2.22029C30.1273 2.55147 29.8588 2.81996 29.5276 2.81996H12.6407C12.3095 2.81996 12.041 2.55147 12.041 2.22029C12.041 1.8891 12.3095 1.62061 12.6407 1.62061Z" fill="url(#paint6_linear)"/>
<path fill-rule="evenodd" clip-rule="evenodd" d="M12.7403 5.1582H29.6272C29.9583 5.1582 30.2268 5.4267 30.2268 5.75788C30.2268 6.08907 29.9583 6.35756 29.6272 6.35756H12.7403C12.4091 6.35756 12.1406 6.08907 12.1406 5.75788C12.1406 5.4267 12.4091 5.1582 12.7403 5.1582Z" fill="#F7A501"/>
<path fill-rule="evenodd" clip-rule="evenodd" d="M12.7403 5.1582H29.6272C29.9583 5.1582 30.2268 5.4267 30.2268 5.75788C30.2268 6.08907 29.9583 6.35756 29.6272 6.35756H12.7403C12.4091 6.35756 12.1406 6.08907 12.1406 5.75788C12.1406 5.4267 12.4091 5.1582 12.7403 5.1582Z" fill="url(#paint7_linear)"/>
<path fill-rule="evenodd" clip-rule="evenodd" d="M15.9747 25.272H29.2872C29.6183 25.272 29.8868 25.5404 29.8868 25.8716C29.8868 26.2028 29.6183 26.4713 29.2872 26.4713H15.9747C15.6435 26.4713 15.375 26.2028 15.375 25.8716C15.375 25.5404 15.6435 25.272 15.9747 25.272Z" fill="#F7A501"/>
<path fill-rule="evenodd" clip-rule="evenodd" d="M15.9747 25.272H29.2872C29.6183 25.272 29.8868 25.5404 29.8868 25.8716C29.8868 26.2028 29.6183 26.4713 29.2872 26.4713H15.9747C15.6435 26.4713 15.375 26.2028 15.375 25.8716C15.375 25.5404 15.6435 25.272 15.9747 25.272Z" fill="url(#paint8_linear)"/>
<defs>
<linearGradient id="paint0_linear" x1="28.9434" y1="16.2635" x2="19.8325" y2="16.2635" gradientUnits="userSpaceOnUse">
<stop stop-color="#FF5F28" stop-opacity="0"/>
<stop offset="1" stop-color="#AA3912"/>
</linearGradient>
<linearGradient id="paint1_linear" x1="4.38963" y1="0.133789" x2="4.38963" y2="8.52739" gradientUnits="userSpaceOnUse">
<stop stop-color="#FFE29A"/>
<stop offset="1" stop-color="white" stop-opacity="0"/>
</linearGradient>
<linearGradient id="paint2_linear" x1="4.48045" y1="10.688" x2="4.48045" y2="19.0816" gradientUnits="userSpaceOnUse">
<stop stop-color="#FFE9B3"/>
<stop offset="1" stop-color="white" stop-opacity="0"/>
</linearGradient>
<linearGradient id="paint3_linear" x1="4.38963" y1="21.9614" x2="4.38963" y2="30.3551" gradientUnits="userSpaceOnUse">
<stop stop-color="#FFE299"/>
<stop offset="1" stop-color="white" stop-opacity="0"/>
</linearGradient>
<linearGradient id="paint4_linear" x1="12.5924" y1="8.7207" x2="12.5924" y2="30.2611" gradientUnits="userSpaceOnUse">
<stop stop-color="#FF5F28"/>
<stop offset="0.677083" stop-color="white" stop-opacity="0"/>
</linearGradient>
<linearGradient id="paint5_linear" x1="12.9863" y1="14.8346" x2="22.0972" y2="14.8346" gradientUnits="userSpaceOnUse">
<stop stop-color="#FF5F28" stop-opacity="0"/>
<stop offset="1" stop-color="#AA3912"/>
</linearGradient>
<linearGradient id="paint6_linear" x1="21.0841" y1="1.62061" x2="21.0841" y2="2.81996" gradientUnits="userSpaceOnUse">
<stop stop-color="#FFE29C"/>
<stop offset="1" stop-color="white" stop-opacity="0"/>
</linearGradient>
<linearGradient id="paint7_linear" x1="21.1837" y1="5.1582" x2="21.1837" y2="6.35756" gradientUnits="userSpaceOnUse">
<stop stop-color="#FFE9B4"/>
<stop offset="1" stop-color="white" stop-opacity="0"/>
</linearGradient>
<linearGradient id="paint8_linear" x1="22.6309" y1="25.272" x2="22.6309" y2="26.4713" gradientUnits="userSpaceOnUse">
<stop stop-color="#FFE7AC"/>
<stop offset="1" stop-color="white" stop-opacity="0"/>
</linearGradient>
</defs>
</svg>
