<svg xmlns="http://www.w3.org/2000/svg" width="30" height="31" fill="none" viewBox="0 0 30 31"><path fill="#F1A604" fill-rule="evenodd" d="M0.0986328 2.04517C0.0986328 0.940598 0.994063 0.045166 2.09863 0.045166H5.46941C6.57398 0.045166 7.46941 0.940597 7.46941 2.04517V5.28246C7.46941 6.38703 6.57398 7.28246 5.46941 7.28246H2.09863C0.994064 7.28246 0.0986328 6.38703 0.0986328 5.28246V2.04517Z" clip-rule="evenodd"/><path fill="url(#paint0_linear)" fill-rule="evenodd" d="M0.0986328 2.04517C0.0986328 0.940598 0.994063 0.045166 2.09863 0.045166H5.46941C6.57398 0.045166 7.46941 0.940597 7.46941 2.04517V5.28246C7.46941 6.38703 6.57398 7.28246 5.46941 7.28246H2.09863C0.994064 7.28246 0.0986328 6.38703 0.0986328 5.28246V2.04517Z" clip-rule="evenodd"/><path fill="#F98232" fill-rule="evenodd" d="M0.0957031 9.63037C0.0957031 8.5258 0.991134 7.63037 2.0957 7.63037H5.46648C6.57105 7.63037 7.46648 8.5258 7.46648 9.63037V12.8676C7.46648 13.9722 6.57105 14.8676 5.46648 14.8676H2.0957C0.991134 14.8676 0.0957031 13.9722 0.0957031 12.8676V9.63037Z" clip-rule="evenodd"/><path fill="url(#paint1_linear)" fill-rule="evenodd" d="M0.0957031 9.63037C0.0957031 8.5258 0.991134 7.63037 2.0957 7.63037H5.46648C6.57105 7.63037 7.46648 8.5258 7.46648 9.63037V12.8676C7.46648 13.9722 6.57105 14.8676 5.46648 14.8676H2.0957C0.991134 14.8676 0.0957031 13.9722 0.0957031 12.8676V9.63037Z" clip-rule="evenodd"/><path fill="#F1A604" fill-rule="evenodd" d="M0.0351562 17.1736C0.0351562 16.069 0.930587 15.1736 2.03516 15.1736H5.40598C6.51055 15.1736 7.40598 16.069 7.40598 17.1736V20.4108C7.40598 21.5154 6.51055 22.4108 5.40598 22.4108H2.03516C0.930587 22.4108 0.0351562 21.5154 0.0351562 20.4108V17.1736Z" clip-rule="evenodd"/><path fill="url(#paint2_linear)" fill-rule="evenodd" d="M0.0351562 17.1736C0.0351562 16.069 0.930587 15.1736 2.03516 15.1736H5.40598C6.51055 15.1736 7.40598 16.069 7.40598 17.1736V20.4108C7.40598 21.5154 6.51055 22.4108 5.40598 22.4108H2.03516C0.930587 22.4108 0.0351562 21.5154 0.0351562 20.4108V17.1736Z" clip-rule="evenodd"/><path fill="#85BD5B" fill-rule="evenodd" d="M0 24.8253C0 23.7207 0.89543 22.8253 2 22.8253H5.37082C6.47539 22.8253 7.37082 23.7207 7.37082 24.8253V28.0626C7.37082 29.1671 6.47539 30.0626 5.37082 30.0626H2C0.895431 30.0626 0 29.1671 0 28.0626V24.8253Z" clip-rule="evenodd"/><path fill="url(#paint3_linear)" fill-rule="evenodd" d="M0 24.8253C0 23.7207 0.89543 22.8253 2 22.8253H5.37082C6.47539 22.8253 7.37082 23.7207 7.37082 24.8253V28.0626C7.37082 29.1671 6.47539 30.0626 5.37082 30.0626H2C0.895431 30.0626 0 29.1671 0 28.0626V24.8253Z" clip-rule="evenodd"/><path fill="#F98232" fill-rule="evenodd" d="M7.88232 2C7.88232 0.895432 8.77775 0 9.88232 0H12.9872C14.0917 0 14.9872 0.89543 14.9872 2V5.23729C14.9872 6.34186 14.0917 7.2373 12.9872 7.2373H9.88232C8.77776 7.2373 7.88232 6.34186 7.88232 5.2373V2Z" clip-rule="evenodd"/><path fill="url(#paint4_linear)" fill-rule="evenodd" d="M7.88232 2C7.88232 0.895432 8.77775 0 9.88232 0H12.9872C14.0917 0 14.9872 0.89543 14.9872 2V5.23729C14.9872 6.34186 14.0917 7.2373 12.9872 7.2373H9.88232C8.77776 7.2373 7.88232 6.34186 7.88232 5.2373V2Z" clip-rule="evenodd"/><path fill="#F96132" fill-rule="evenodd" d="M7.87939 9.58496C7.87939 8.48039 8.77483 7.58496 9.87939 7.58496H12.9842C14.0887 7.58496 14.9842 8.48039 14.9842 9.58496V12.8222C14.9842 13.9268 14.0887 14.8222 12.9842 14.8222H9.87939C8.77482 14.8222 7.87939 13.9268 7.87939 12.8222V9.58496Z" clip-rule="evenodd"/><path fill="url(#paint5_linear)" fill-rule="evenodd" d="M7.87939 9.58496C7.87939 8.48039 8.77483 7.58496 9.87939 7.58496H12.9842C14.0887 7.58496 14.9842 8.48039 14.9842 9.58496V12.8222C14.9842 13.9268 14.0887 14.8222 12.9842 14.8222H9.87939C8.77482 14.8222 7.87939 13.9268 7.87939 12.8222V9.58496Z" clip-rule="evenodd"/><path fill="#F98232" fill-rule="evenodd" d="M7.81885 17.1282C7.81885 16.0236 8.71428 15.1282 9.81885 15.1282H12.9237C14.0282 15.1282 14.9237 16.0236 14.9237 17.1282V20.3654C14.9237 21.47 14.0282 22.3654 12.9237 22.3654H9.81885C8.71428 22.3654 7.81885 21.47 7.81885 20.3654V17.1282Z" clip-rule="evenodd"/><path fill="url(#paint6_linear)" fill-rule="evenodd" d="M7.81885 17.1282C7.81885 16.0236 8.71428 15.1282 9.81885 15.1282H12.9237C14.0282 15.1282 14.9237 16.0236 14.9237 17.1282V20.3654C14.9237 21.47 14.0282 22.3654 12.9237 22.3654H9.81885C8.71428 22.3654 7.81885 21.47 7.81885 20.3654V17.1282Z" clip-rule="evenodd"/><path fill="#F1A604" fill-rule="evenodd" d="M7.78369 24.7802C7.78369 23.6756 8.67912 22.7802 9.78369 22.7802H12.8885C13.9931 22.7802 14.8885 23.6756 14.8885 24.7802V28.0174C14.8885 29.122 13.9931 30.0174 12.8885 30.0174H9.78369C8.67912 30.0174 7.78369 29.122 7.78369 28.0174V24.7802Z" clip-rule="evenodd"/><path fill="url(#paint7_linear)" fill-rule="evenodd" d="M7.78369 24.7802C7.78369 23.6756 8.67912 22.7802 9.78369 22.7802H12.8885C13.9931 22.7802 14.8885 23.6756 14.8885 24.7802V28.0174C14.8885 29.122 13.9931 30.0174 12.8885 30.0174H9.78369C8.67912 30.0174 7.78369 29.122 7.78369 28.0174V24.7802Z" clip-rule="evenodd"/><path fill="#F1A604" fill-rule="evenodd" d="M15.3887 2.0271C15.3887 0.922532 16.2841 0.0270996 17.3887 0.0270996H20.4935C21.598 0.0270996 22.4935 0.92253 22.4935 2.0271V5.26435C22.4935 6.36892 21.598 7.26435 20.4935 7.26435H17.3887C16.2841 7.26435 15.3887 6.36892 15.3887 5.26435V2.0271Z" clip-rule="evenodd"/><path fill="url(#paint8_linear)" fill-rule="evenodd" d="M15.3887 2.0271C15.3887 0.922532 16.2841 0.0270996 17.3887 0.0270996H20.4935C21.598 0.0270996 22.4935 0.92253 22.4935 2.0271V5.26435C22.4935 6.36892 21.598 7.26435 20.4935 7.26435H17.3887C16.2841 7.26435 15.3887 6.36892 15.3887 5.26435V2.0271Z" clip-rule="evenodd"/><path fill="#F98232" fill-rule="evenodd" d="M15.3857 9.61218C15.3857 8.50761 16.2812 7.61218 17.3857 7.61218H20.4906C21.5951 7.61218 22.4906 8.50761 22.4906 9.61218V12.8494C22.4906 13.954 21.5951 14.8494 20.4906 14.8494H17.3857C16.2812 14.8494 15.3857 13.954 15.3857 12.8494V9.61218Z" clip-rule="evenodd"/><path fill="url(#paint9_linear)" fill-rule="evenodd" d="M15.3857 9.61218C15.3857 8.50761 16.2812 7.61218 17.3857 7.61218H20.4906C21.5951 7.61218 22.4906 8.50761 22.4906 9.61218V12.8494C22.4906 13.954 21.5951 14.8494 20.4906 14.8494H17.3857C16.2812 14.8494 15.3857 13.954 15.3857 12.8494V9.61218Z" clip-rule="evenodd"/><path fill="#F1A604" fill-rule="evenodd" d="M15.3252 17.1552C15.3252 16.0506 16.2206 15.1552 17.3252 15.1552H20.43C21.5346 15.1552 22.43 16.0506 22.43 17.1552V20.3924C22.43 21.497 21.5346 22.3924 20.43 22.3924H17.3252C16.2206 22.3924 15.3252 21.497 15.3252 20.3924V17.1552Z" clip-rule="evenodd"/><path fill="url(#paint10_linear)" fill-rule="evenodd" d="M15.3252 17.1552C15.3252 16.0506 16.2206 15.1552 17.3252 15.1552H20.43C21.5346 15.1552 22.43 16.0506 22.43 17.1552V20.3924C22.43 21.497 21.5346 22.3924 20.43 22.3924H17.3252C16.2206 22.3924 15.3252 21.497 15.3252 20.3924V17.1552Z" clip-rule="evenodd"/><path fill="#85BD5B" fill-rule="evenodd" d="M15.29 24.8071C15.29 23.7026 16.1855 22.8071 17.29 22.8071H20.3949C21.4994 22.8071 22.3949 23.7026 22.3949 24.8071V28.0444C22.3949 29.1489 21.4994 30.0444 20.3949 30.0444H17.29C16.1855 30.0444 15.29 29.1489 15.29 28.0444V24.8071Z" clip-rule="evenodd"/><path fill="url(#paint11_linear)" fill-rule="evenodd" d="M15.29 24.8071C15.29 23.7026 16.1855 22.8071 17.29 22.8071H20.3949C21.4994 22.8071 22.3949 23.7026 22.3949 24.8071V28.0444C22.3949 29.1489 21.4994 30.0444 20.3949 30.0444H17.29C16.1855 30.0444 15.29 29.1489 15.29 28.0444V24.8071Z" clip-rule="evenodd"/><path fill="#85BD5B" fill-rule="evenodd" d="M22.895 2C22.895 0.895432 23.7905 0 24.895 0H27.9998C29.1044 0 29.9998 0.89543 29.9998 2V5.23729C29.9998 6.34186 29.1044 7.2373 27.9998 7.2373H24.895C23.7905 7.2373 22.895 6.34186 22.895 5.2373V2Z" clip-rule="evenodd"/><path fill="url(#paint12_linear)" fill-rule="evenodd" d="M22.895 2C22.895 0.895432 23.7905 0 24.895 0H27.9998C29.1044 0 29.9998 0.89543 29.9998 2V5.23729C29.9998 6.34186 29.1044 7.2373 27.9998 7.2373H24.895C23.7905 7.2373 22.895 6.34186 22.895 5.2373V2Z" clip-rule="evenodd"/><path fill="#F1A604" fill-rule="evenodd" d="M22.8921 9.58496C22.8921 8.48039 23.7875 7.58496 24.8921 7.58496H27.9969C29.1014 7.58496 29.9969 8.48039 29.9969 9.58496V12.8222C29.9969 13.9268 29.1014 14.8222 27.9969 14.8222H24.8921C23.7875 14.8222 22.8921 13.9268 22.8921 12.8222V9.58496Z" clip-rule="evenodd"/><path fill="url(#paint13_linear)" fill-rule="evenodd" d="M22.8921 9.58496C22.8921 8.48039 23.7875 7.58496 24.8921 7.58496H27.9969C29.1014 7.58496 29.9969 8.48039 29.9969 9.58496V12.8222C29.9969 13.9268 29.1014 14.8222 27.9969 14.8222H24.8921C23.7875 14.8222 22.8921 13.9268 22.8921 12.8222V9.58496Z" clip-rule="evenodd"/><path fill="#85BD5B" fill-rule="evenodd" d="M22.8315 17.1282C22.8315 16.0236 23.727 15.1282 24.8315 15.1282H27.9364C29.0409 15.1282 29.9364 16.0236 29.9364 17.1282V20.3654C29.9364 21.47 29.0409 22.3654 27.9364 22.3654H24.8315C23.727 22.3654 22.8315 21.47 22.8315 20.3654V17.1282Z" clip-rule="evenodd"/><path fill="url(#paint14_linear)" fill-rule="evenodd" d="M22.8315 17.1282C22.8315 16.0236 23.727 15.1282 24.8315 15.1282H27.9364C29.0409 15.1282 29.9364 16.0236 29.9364 17.1282V20.3654C29.9364 21.47 29.0409 22.3654 27.9364 22.3654H24.8315C23.727 22.3654 22.8315 21.47 22.8315 20.3654V17.1282Z" clip-rule="evenodd"/><path fill="#769FD1" fill-rule="evenodd" d="M22.7964 24.7802C22.7964 23.6756 23.6918 22.7802 24.7964 22.7802H27.9012C29.0058 22.7802 29.9012 23.6756 29.9012 24.7802V28.0174C29.9012 29.122 29.0058 30.0174 27.9012 30.0174H24.7964C23.6918 30.0174 22.7964 29.122 22.7964 28.0174V24.7802Z" clip-rule="evenodd"/><path fill="url(#paint15_linear)" fill-rule="evenodd" d="M22.7964 24.7802C22.7964 23.6756 23.6918 22.7802 24.7964 22.7802H27.9012C29.0058 22.7802 29.9012 23.6756 29.9012 24.7802V28.0174C29.9012 29.122 29.0058 30.0174 27.9012 30.0174H24.7964C23.6918 30.0174 22.7964 29.122 22.7964 28.0174V24.7802Z" clip-rule="evenodd"/><defs><linearGradient id="paint0_linear" x1="3.784" x2="3.784" y1=".045" y2="7.282" gradientUnits="userSpaceOnUse"><stop stop-color="#F1A604"/><stop offset="1" stop-color="#FF810D"/></linearGradient><linearGradient id="paint1_linear" x1="3.781" x2="3.781" y1="7.63" y2="14.868" gradientUnits="userSpaceOnUse"><stop stop-color="#F98232"/><stop offset="1" stop-color="#FF4D00"/></linearGradient><linearGradient id="paint2_linear" x1="3.721" x2="3.721" y1="15.174" y2="22.411" gradientUnits="userSpaceOnUse"><stop stop-color="#F1A604"/><stop offset="1" stop-color="#FF810D"/></linearGradient><linearGradient id="paint3_linear" x1="3.685" x2="3.685" y1="22.825" y2="30.063" gradientUnits="userSpaceOnUse"><stop stop-color="#85BD5B"/><stop offset="1" stop-color="#4B9F0C"/></linearGradient><linearGradient id="paint4_linear" x1="11.435" x2="11.435" y1="0" y2="7.237" gradientUnits="userSpaceOnUse"><stop stop-color="#F98232"/><stop offset="1" stop-color="#FF4D00"/></linearGradient><linearGradient id="paint5_linear" x1="11.432" x2="11.432" y1="7.585" y2="14.822" gradientUnits="userSpaceOnUse"><stop stop-color="#F96132"/><stop offset="1" stop-color="red"/></linearGradient><linearGradient id="paint6_linear" x1="11.371" x2="11.371" y1="15.128" y2="22.365" gradientUnits="userSpaceOnUse"><stop stop-color="#F98232"/><stop offset="1" stop-color="#FF4D00"/></linearGradient><linearGradient id="paint7_linear" x1="11.336" x2="11.336" y1="22.78" y2="30.017" gradientUnits="userSpaceOnUse"><stop stop-color="#F1A604"/><stop offset="1" stop-color="#FF810D"/></linearGradient><linearGradient id="paint8_linear" x1="18.941" x2="18.941" y1=".027" y2="7.264" gradientUnits="userSpaceOnUse"><stop stop-color="#F1A604"/><stop offset="1" stop-color="#FF810D"/></linearGradient><linearGradient id="paint9_linear" x1="18.938" x2="18.938" y1="7.612" y2="14.849" gradientUnits="userSpaceOnUse"><stop stop-color="#F98232"/><stop offset="1" stop-color="#FF4D00"/></linearGradient><linearGradient id="paint10_linear" x1="18.878" x2="18.878" y1="15.155" y2="22.392" gradientUnits="userSpaceOnUse"><stop stop-color="#F1A604"/><stop offset="1" stop-color="#FF810D"/></linearGradient><linearGradient id="paint11_linear" x1="18.843" x2="18.843" y1="22.807" y2="30.044" gradientUnits="userSpaceOnUse"><stop stop-color="#85BD5B"/><stop offset="1" stop-color="#4B9F0C"/></linearGradient><linearGradient id="paint12_linear" x1="26.447" x2="26.447" y1="0" y2="7.237" gradientUnits="userSpaceOnUse"><stop stop-color="#85BD5B"/><stop offset="1" stop-color="#4B9F0C"/></linearGradient><linearGradient id="paint13_linear" x1="26.445" x2="26.445" y1="7.585" y2="14.822" gradientUnits="userSpaceOnUse"><stop stop-color="#F1A604"/><stop offset="1" stop-color="#FF810D"/></linearGradient><linearGradient id="paint14_linear" x1="26.384" x2="26.384" y1="15.128" y2="22.365" gradientUnits="userSpaceOnUse"><stop stop-color="#85BD5B"/><stop offset="1" stop-color="#4B9F0C"/></linearGradient><linearGradient id="paint15_linear" x1="26.349" x2="26.349" y1="22.78" y2="30.017" gradientUnits="userSpaceOnUse"><stop stop-color="#769FD1"/><stop offset="1" stop-color="#4170A9"/></linearGradient></defs></svg>