<svg fill="none" viewBox="0 0 30 19"><path fill="#0028C7" fill-rule="evenodd" d="M20.168 8.613l3.768-2.175 3.768-2.174c.754-.436 1.365-.083 1.365.788v8.7c0 .872-.612 1.225-1.366.79l-3.768-2.176-3.767-2.176c-.754-.435-.754-1.141 0-1.577z" clip-rule="evenodd"/><path fill="url(#paint0_linear)" fill-rule="evenodd" d="M20.168 8.613l3.768-2.175 3.768-2.174c.754-.436 1.365-.083 1.365.788v8.7c0 .872-.612 1.225-1.366.79l-3.768-2.176-3.767-2.176c-.754-.435-.754-1.141 0-1.577z" clip-rule="evenodd"/><path fill="#1D4AFF" fill-rule="evenodd" d="M2.521.578h19.916c.79 0 1.432.64 1.432 1.431v14.789c0 .79-.641 1.432-1.432 1.432H2.521c-.79 0-1.431-.641-1.431-1.432V2.009c0-.79.64-1.431 1.431-1.431z" clip-rule="evenodd"/><path fill="url(#paint1_linear)" fill-rule="evenodd" d="M2.521.578h19.916c.79 0 1.432.64 1.432 1.431v14.789c0 .79-.641 1.432-1.432 1.432H2.521c-.79 0-1.431-.641-1.431-1.432V2.009c0-.79.64-1.431 1.431-1.431z" clip-rule="evenodd"/><path fill="#B3C2FF" fill-rule="evenodd" d="M9.867 12.589l.054-3.237.055-3.237c.01-.648.47-.903 1.025-.57l2.777 1.665 2.776 1.666c.556.333.547.858-.02 1.173l-2.83 1.572-2.83 1.571c-.567.315-1.017.045-1.007-.603z" clip-rule="evenodd"/><path fill="url(#paint2_linear)" fill-rule="evenodd" d="M9.867 12.589l.054-3.237.055-3.237c.01-.648.47-.903 1.025-.57l2.777 1.665 2.776 1.666c.556.333.547.858-.02 1.173l-2.83 1.572-2.83 1.571c-.567.315-1.017.045-1.007-.603z" clip-rule="evenodd"/><path fill="#1839D9" fill-rule="evenodd" d="M3.214 3.765c0-1.028.838-1.862 1.872-1.862 1.034 0 1.872.834 1.872 1.862a1.867 1.867 0 01-1.872 1.862 1.867 1.867 0 01-1.872-1.862z" clip-rule="evenodd"/><path fill="url(#paint3_linear)" fill-rule="evenodd" d="M3.214 3.765c0-1.028.838-1.862 1.872-1.862 1.034 0 1.872.834 1.872 1.862a1.867 1.867 0 01-1.872 1.862 1.867 1.867 0 01-1.872-1.862z" clip-rule="evenodd"/><path fill="#1839D9" fill-rule="evenodd" d="M1.29 4.837c.712 0 1.29.578 1.29 1.29v7.083a1.29 1.29 0 01-2.58 0V6.127c0-.712.577-1.29 1.29-1.29z" clip-rule="evenodd"/><path fill="url(#paint4_linear)" fill-rule="evenodd" d="M1.29 4.837c.712 0 1.29.578 1.29 1.29v7.083a1.29 1.29 0 01-2.58 0V6.127c0-.712.577-1.29 1.29-1.29z" clip-rule="evenodd"/><path fill="#1D4AFF" fill-rule="evenodd" d="M28.812 3.222c.362 0 .655.293.655.655v11.08a.655.655 0 11-1.31 0V3.877c0-.362.294-.655.655-.655z" clip-rule="evenodd"/><path fill="url(#paint5_linear)" fill-rule="evenodd" d="M28.812 3.222c.362 0 .655.293.655.655v11.08a.655.655 0 11-1.31 0V3.877c0-.362.294-.655.655-.655z" clip-rule="evenodd"/><defs><linearGradient id="paint0_linear" x1="24.336" x2="24.336" y1="4.077" y2="14.728" gradientUnits="userSpaceOnUse"><stop stop-color="#5E7EFF"/><stop offset=".745" stop-color="#fff" stop-opacity="0"/></linearGradient><linearGradient id="paint1_linear" x1="12.479" x2="12.479" y1=".578" y2="18.23" gradientUnits="userSpaceOnUse"><stop stop-color="#80ABFF"/><stop offset=".885" stop-color="#fff" stop-opacity="0"/></linearGradient><linearGradient id="paint2_linear" x1="13.416" x2="13.416" y1="5.398" y2="13.324" gradientUnits="userSpaceOnUse"><stop stop-color="#fff"/><stop offset="1" stop-color="#fff" stop-opacity="0"/></linearGradient><linearGradient id="paint3_linear" x1="5.086" x2="5.086" y1="1.903" y2="5.627" gradientUnits="userSpaceOnUse"><stop stop-color="#6781FF"/><stop offset="1" stop-color="#fff" stop-opacity="0"/></linearGradient><linearGradient id="paint4_linear" x1="1.29" x2="1.29" y1="4.837" y2="14.5" gradientUnits="userSpaceOnUse"><stop stop-color="#738BFF"/><stop offset="1" stop-color="#fff" stop-opacity="0"/></linearGradient><linearGradient id="paint5_linear" x1="28.812" x2="28.812" y1="3.222" y2="15.612" gradientUnits="userSpaceOnUse"><stop stop-color="#839BFF"/><stop offset="1" stop-color="#fff" stop-opacity="0"/></linearGradient></defs></svg>