<svg width="30" height="19" viewBox="0 0 30 19" fill="none" xmlns="http://www.w3.org/2000/svg">
<path fill-rule="evenodd" clip-rule="evenodd" d="M20.1683 8.61324L23.936 6.43842L27.7037 4.2636C28.458 3.82823 29.0693 4.18129 29.0693 5.05214L29.0689 9.40252L29.0684 13.7529C29.0684 14.6237 28.4569 14.9767 27.7028 14.5412L23.9354 12.3657L20.1681 10.1901C19.4139 9.75462 19.414 9.04862 20.1683 8.61324Z" fill="#0028C7"/>
<path fill-rule="evenodd" clip-rule="evenodd" d="M20.1683 8.61324L23.936 6.43842L27.7037 4.2636C28.458 3.82823 29.0693 4.18129 29.0693 5.05214L29.0689 9.40252L29.0684 13.7529C29.0684 14.6237 28.4569 14.9767 27.7028 14.5412L23.9354 12.3657L20.1681 10.1901C19.4139 9.75462 19.414 9.04862 20.1683 8.61324Z" fill="url(#paint0_linear)"/>
<path fill-rule="evenodd" clip-rule="evenodd" d="M2.52142 0.577637H22.4373C23.2279 0.577637 23.8688 1.21857 23.8688 2.00922V16.798C23.8688 17.5886 23.2279 18.2295 22.4373 18.2295H2.52142C1.73078 18.2295 1.08984 17.5886 1.08984 16.798V2.00922C1.08984 1.21857 1.73078 0.577637 2.52142 0.577637Z" fill="#1D4AFF"/>
<path fill-rule="evenodd" clip-rule="evenodd" d="M2.52142 0.577637H22.4373C23.2279 0.577637 23.8688 1.21857 23.8688 2.00922V16.798C23.8688 17.5886 23.2279 18.2295 22.4373 18.2295H2.52142C1.73078 18.2295 1.08984 17.5886 1.08984 16.798V2.00922C1.08984 1.21857 1.73078 0.577637 2.52142 0.577637Z" fill="url(#paint1_linear)"/>
<path fill-rule="evenodd" clip-rule="evenodd" d="M9.86738 12.5886L9.92148 9.3516L9.97559 6.11455C9.9864 5.46655 10.4457 5.21153 11.0015 5.54486L13.7778 7.21027L16.5541 8.87562C17.1099 9.209 17.1011 9.73429 16.5345 10.0489L13.7041 11.6206L10.8737 13.1923C10.3071 13.5069 9.85657 13.2366 9.86738 12.5886Z" fill="#B3C2FF"/>
<path fill-rule="evenodd" clip-rule="evenodd" d="M9.86738 12.5886L9.92148 9.3516L9.97559 6.11455C9.9864 5.46655 10.4457 5.21153 11.0015 5.54486L13.7778 7.21027L16.5541 8.87562C17.1099 9.209 17.1011 9.73429 16.5345 10.0489L13.7041 11.6206L10.8737 13.1923C10.3071 13.5069 9.85657 13.2366 9.86738 12.5886Z" fill="url(#paint2_linear)"/>
<path fill-rule="evenodd" clip-rule="evenodd" d="M3.21387 3.765C3.21387 2.73679 4.05198 1.90332 5.08583 1.90332C6.11969 1.90332 6.9578 2.73679 6.9578 3.765C6.9578 4.79316 6.11969 5.62668 5.08583 5.62668C4.05198 5.62668 3.21387 4.79316 3.21387 3.765Z" fill="#1839D9"/>
<path fill-rule="evenodd" clip-rule="evenodd" d="M3.21387 3.765C3.21387 2.73679 4.05198 1.90332 5.08583 1.90332C6.11969 1.90332 6.9578 2.73679 6.9578 3.765C6.9578 4.79316 6.11969 5.62668 5.08583 5.62668C4.05198 5.62668 3.21387 4.79316 3.21387 3.765Z" fill="url(#paint3_linear)"/>
<path fill-rule="evenodd" clip-rule="evenodd" d="M1.28973 4.8374C2.00201 4.8374 2.57945 5.41479 2.57945 6.12713V13.2104C2.57945 13.9226 2.00201 14.5001 1.28973 14.5001C0.577442 14.5001 0 13.9226 0 13.2104V6.12713C0 5.41479 0.577442 4.8374 1.28973 4.8374Z" fill="#1839D9"/>
<path fill-rule="evenodd" clip-rule="evenodd" d="M1.28973 4.8374C2.00201 4.8374 2.57945 5.41479 2.57945 6.12713V13.2104C2.57945 13.9226 2.00201 14.5001 1.28973 14.5001C0.577442 14.5001 0 13.9226 0 13.2104V6.12713C0 5.41479 0.577442 4.8374 1.28973 4.8374Z" fill="url(#paint4_linear)"/>
<path fill-rule="evenodd" clip-rule="evenodd" d="M28.8123 3.22168C29.1742 3.22168 29.4674 3.51499 29.4674 3.8768V14.9567C29.4674 15.3185 29.1742 15.6118 28.8123 15.6118C28.4505 15.6118 28.1572 15.3185 28.1572 14.9567V3.8768C28.1572 3.51499 28.4505 3.22168 28.8123 3.22168Z" fill="#1D4AFF"/>
<path fill-rule="evenodd" clip-rule="evenodd" d="M28.8123 3.22168C29.1742 3.22168 29.4674 3.51499 29.4674 3.8768V14.9567C29.4674 15.3185 29.1742 15.6118 28.8123 15.6118C28.4505 15.6118 28.1572 15.3185 28.1572 14.9567V3.8768C28.1572 3.51499 28.4505 3.22168 28.8123 3.22168Z" fill="url(#paint5_linear)"/>
<defs>
<linearGradient id="paint0_linear" x1="24.3359" y1="4.07715" x2="24.3359" y2="14.7278" gradientUnits="userSpaceOnUse">
<stop stop-color="#5E7EFF"/>
<stop offset="0.744821" stop-color="white" stop-opacity="0"/>
</linearGradient>
<linearGradient id="paint1_linear" x1="12.4793" y1="0.577637" x2="12.4793" y2="18.2295" gradientUnits="userSpaceOnUse">
<stop stop-color="#80ABFF"/>
<stop offset="0.885155" stop-color="white" stop-opacity="0"/>
</linearGradient>
<linearGradient id="paint2_linear" x1="13.4162" y1="5.39844" x2="13.4162" y2="13.3236" gradientUnits="userSpaceOnUse">
<stop stop-color="white"/>
<stop offset="1" stop-color="white" stop-opacity="0"/>
</linearGradient>
<linearGradient id="paint3_linear" x1="5.08583" y1="1.90332" x2="5.08583" y2="5.62668" gradientUnits="userSpaceOnUse">
<stop stop-color="#6781FF"/>
<stop offset="1" stop-color="white" stop-opacity="0"/>
</linearGradient>
<linearGradient id="paint4_linear" x1="1.28973" y1="4.8374" x2="1.28973" y2="14.5001" gradientUnits="userSpaceOnUse">
<stop stop-color="#738BFF"/>
<stop offset="1" stop-color="white" stop-opacity="0"/>
</linearGradient>
<linearGradient id="paint5_linear" x1="28.8123" y1="3.22168" x2="28.8123" y2="15.6118" gradientUnits="userSpaceOnUse">
<stop stop-color="#839BFF"/>
<stop offset="1" stop-color="white" stop-opacity="0"/>
</linearGradient>
</defs>
</svg>
