<svg xmlns="http://www.w3.org/2000/svg" width="33" height="34" fill="none" viewBox="0 0 33 34"><path fill="#DF4700" fill-rule="evenodd" d="M16.4531 15.8671C16.4531 12.5041 19.199 9.77783 22.5862 9.77783C25.9733 9.77783 28.7192 12.5041 28.7192 15.8671C28.7192 19.2302 25.9733 21.9565 22.5862 21.9565C19.199 21.9565 16.4531 19.2302 16.4531 15.8671Z" clip-rule="evenodd"/><path fill="url(#paint0_linear)" fill-rule="evenodd" d="M16.4531 15.8671C16.4531 12.5041 19.199 9.77783 22.5862 9.77783C25.9733 9.77783 28.7192 12.5041 28.7192 15.8671C28.7192 19.2302 25.9733 21.9565 22.5862 21.9565C19.199 21.9565 16.4531 19.2302 16.4531 15.8671Z" clip-rule="evenodd"/><path fill="#DD425A" fill-rule="evenodd" d="M12.2109 31.7989C12.2109 26.9723 16.8506 23.0596 22.5738 23.0596C28.2971 23.0596 32.9367 26.9723 32.9367 31.7989C32.9367 32.3203 32.9639 33.308 32.9639 33.308L12.2637 33.2539C12.2637 33.2539 12.2109 32.3963 12.2109 31.7989Z" clip-rule="evenodd"/><path fill="url(#paint1_linear)" fill-rule="evenodd" d="M12.2109 31.7989C12.2109 26.9723 16.8506 23.0596 22.5738 23.0596C28.2971 23.0596 32.9367 26.9723 32.9367 31.7989C32.9367 32.3203 32.9639 33.308 32.9639 33.308L12.2637 33.2539C12.2637 33.2539 12.2109 32.3963 12.2109 31.7989Z" clip-rule="evenodd"/><path fill="#1D4AFF" fill-rule="evenodd" d="M0.806238 0C0.361483 0 0 0.359939 0 0.804645V11.6761C0 12.1208 0.361483 12.4808 0.806238 12.4808C0.806189 12.4808 4.95188 12.3642 7.94385 12.4808C7.944 12.4808 11.3804 16.9507 11.3804 16.9507C11.5716 17.1994 11.7259 16.8823 11.7259 16.2426V12.4808H15.9858C16.4305 12.4808 16.7904 12.1208 16.7904 11.6761V0.804645C16.7904 0.359939 16.4305 0 15.9858 0H0.806238ZM4.42017 4.80615C5.21121 4.80615 5.8536 5.44699 5.8536 6.23804C5.8536 7.02908 5.21121 7.67147 4.42017 7.67147C3.62912 7.67147 2.98828 7.02908 2.98828 6.23804C2.98828 5.44699 3.62912 4.80615 4.42017 4.80615ZM8.50261 4.87777C9.29365 4.87777 9.93604 5.51861 9.93604 6.30966C9.93604 7.10065 9.29365 7.74308 8.50261 7.74308C7.71156 7.74308 7.07072 7.10065 7.07072 6.30966C7.07072 5.51861 7.71156 4.87777 8.50261 4.87777ZM12.4776 4.87777C13.2687 4.87777 13.9095 5.51861 13.9095 6.30966C13.9095 7.10065 13.2687 7.74308 12.4776 7.74308C11.6866 7.74308 11.0457 7.10065 11.0457 6.30966C11.0457 5.51861 11.6866 4.87777 12.4776 4.87777Z" clip-rule="evenodd"/><path fill="url(#paint2_linear)" fill-rule="evenodd" d="M0.806238 0C0.361483 0 0 0.359939 0 0.804645V11.6761C0 12.1208 0.361483 12.4808 0.806238 12.4808C0.806189 12.4808 4.95188 12.3642 7.94385 12.4808C7.944 12.4808 11.3804 16.9507 11.3804 16.9507C11.5716 17.1994 11.7259 16.8823 11.7259 16.2426V12.4808H15.9858C16.4305 12.4808 16.7904 12.1208 16.7904 11.6761V0.804645C16.7904 0.359939 16.4305 0 15.9858 0H0.806238ZM4.42017 4.80615C5.21121 4.80615 5.8536 5.44699 5.8536 6.23804C5.8536 7.02908 5.21121 7.67147 4.42017 7.67147C3.62912 7.67147 2.98828 7.02908 2.98828 6.23804C2.98828 5.44699 3.62912 4.80615 4.42017 4.80615ZM8.50261 4.87777C9.29365 4.87777 9.93604 5.51861 9.93604 6.30966C9.93604 7.10065 9.29365 7.74308 8.50261 7.74308C7.71156 7.74308 7.07072 7.10065 7.07072 6.30966C7.07072 5.51861 7.71156 4.87777 8.50261 4.87777ZM12.4776 4.87777C13.2687 4.87777 13.9095 5.51861 13.9095 6.30966C13.9095 7.10065 13.2687 7.74308 12.4776 7.74308C11.6866 7.74308 11.0457 7.10065 11.0457 6.30966C11.0457 5.51861 11.6866 4.87777 12.4776 4.87777Z" clip-rule="evenodd"/><defs><linearGradient id="paint0_linear" x1="22.586" x2="22.586" y1="9.778" y2="21.956" gradientUnits="userSpaceOnUse"><stop offset=".063" stop-color="#FFD978"/><stop offset="1" stop-color="#F7A501" stop-opacity="0"/></linearGradient><linearGradient id="paint1_linear" x1="22.587" x2="22.587" y1="23.06" y2="33.308" gradientUnits="userSpaceOnUse"><stop stop-color="#FFC83F" stop-opacity=".61"/><stop offset="1" stop-color="#DF4700"/></linearGradient><linearGradient id="paint2_linear" x1="8.395" x2="8.395" y1="0" y2="17.035" gradientUnits="userSpaceOnUse"><stop stop-color="#7AA7FF"/><stop offset=".922" stop-color="#1D4AFF"/></linearGradient></defs></svg>