<svg width="448" height="127" viewBox="0 0 448 127" fill="none" xmlns="http://www.w3.org/2000/svg">
<path d="M57.6394 85.3848C45.0066 83.8535 36.1062 74.7617 36.1062 62.9902C36.1062 58.2051 37.8289 53.0371 40.7 49.5918C39.4558 46.4336 39.6472 39.7344 41.0828 36.959C44.9109 36.4805 50.0789 38.4902 53.1414 41.2656C56.7781 40.1172 60.6062 39.543 65.2957 39.543C69.9851 39.543 73.8132 40.1172 77.2585 41.1699C80.2253 38.4902 85.489 36.4805 89.3171 36.959C90.657 39.543 90.8484 46.2422 89.6042 49.4961C92.6667 53.1328 94.2937 58.0137 94.2937 62.9902C94.2937 74.7617 85.3933 83.6621 72.5691 85.2891C75.823 87.3945 78.0242 91.9883 78.0242 97.252L78.0242 107.205C78.0242 110.076 80.4167 111.703 83.2878 110.555C100.61 103.951 114.2 86.6289 114.2 65.1914C114.2 38.1074 92.1882 16 65.1042 16C38.0203 16 16.2 38.1074 16.2 65.1914C16.2 86.4375 29.6941 104.047 47.8777 110.65C50.4617 111.607 52.95 109.885 52.95 107.301L52.95 99.6445C51.6101 100.219 49.8875 100.602 48.3562 100.602C42.0398 100.602 38.3074 97.1563 35.6277 90.7441C34.575 88.1602 33.4265 86.6289 31.2253 86.3418C30.0769 86.2461 29.6941 85.7676 29.6941 85.1934C29.6941 84.0449 31.6082 83.1836 33.5222 83.1836C36.2976 83.1836 38.6902 84.9063 41.1785 88.4473C43.0925 91.2227 45.1023 92.4668 47.4949 92.4668C49.8875 92.4668 51.4187 91.6055 53.6199 89.4043C55.2468 87.7773 56.491 86.3418 57.6394 85.3848Z" fill="black"/>
<g clip-path="url(#clip0_731_27180)">
<path d="M204.937 99.0045L204.937 49.2827L218.915 49.2827L218.915 99.0045L204.937 99.0045ZM246.016 99.0045C236.727 99.0045 233.099 95.0232 233.099 86.6183L233.099 60.9611L224.252 60.9611L224.252 49.2827L233.099 49.2827L233.099 39.3737L247.078 36.1002L247.078 49.2827L257.429 49.2827L257.429 60.9611L247.078 60.9611L247.078 83.5217C247.078 86.2644 248.317 87.3261 251.059 87.3261L257.429 87.3261L257.429 99.0045L246.016 99.0045ZM343.47 99.8892C332.588 99.8892 326.66 93.8731 326.66 82.9024L326.66 49.2827L340.728 49.2827L340.728 79.1866C340.728 85.2912 343.47 88.6532 348.69 88.6532C354.706 88.6532 359.307 83.0794 359.307 75.4707L359.307 49.2827L373.374 49.2827L373.374 99.0045L359.307 99.0045L359.307 90.5996C356.653 95.9964 350.283 99.8892 343.47 99.8892ZM410.613 99.8892C403.832 99.8892 397.639 95.9964 394.687 90.4226L394.687 99.0045L380.709 99.0045L380.709 29.6417L394.776 29.6417L394.776 58.3954C397.639 52.3792 404.098 48.1325 410.613 48.1325C424.181 48.1325 431.348 57.5107 430.873 74.0551C431.348 90.4226 423.916 99.8892 410.613 99.8892ZM405.658 88.1223C412.945 88.1223 416.926 82.7255 416.452 74.0551C416.926 65.2963 412.945 59.8994 405.658 59.8994C399.851 59.8994 395.251 65.5617 394.776 73.3473L394.776 74.1436C395.251 82.1946 399.851 88.1223 405.658 88.1223ZM304.734 29.6417L304.734 57.7761L278.369 57.7761L278.369 29.6417L263.329 29.6417L263.329 99.0045L278.369 99.0045L278.369 71.224L304.734 71.224L304.734 99.0045L319.775 99.0045L319.775 29.6417L304.734 29.6417ZM166.628 100.332C146.102 100.332 133.185 86.2644 133.185 64.2346C133.185 42.2048 146.368 28.3146 167.247 28.3146C184.234 28.3146 194.497 35.5693 197.77 47.7786L182.553 51.406C180.695 44.7705 175.387 41.1431 167.247 41.1431C155.126 41.1431 148.579 49.1057 148.579 64.2346C148.579 79.3635 154.949 87.503 166.893 87.503C177.864 87.503 184.411 80.7791 184.411 69.366L184.411 66.7119L188.304 72.1087L165.655 72.1087L165.655 59.3686L199.628 59.3686L199.628 67.4196C199.628 88.5647 187.331 100.332 166.628 100.332ZM211.926 44.5936C216.615 44.5936 220.243 40.9662 220.243 36.2771C220.243 31.5881 216.615 27.9607 211.926 27.9607C207.237 27.9607 203.61 31.5881 203.61 36.2771C203.61 40.9662 207.237 44.5936 211.926 44.5936Z" fill="black"/>
</g>
<defs>
<clipPath id="clip0_731_27180">
<rect width="298.068" height="75.9408" fill="white" transform="translate(133.185 25.4926)"/>
</clipPath>
</defs>
</svg>
