<svg fill="none" xmlns="http://www.w3.org/2000/svg" viewBox="0 0 100 100"><path opacity=".5" d="M97.5 16.379v-1.852a2.777 2.777 0 00-2.777-2.773H51.235v-3.7a1.235 1.235 0 00-2.47 0v3.7H5.279A2.777 2.777 0 002.5 14.527v1.852a2.771 2.771 0 001.852 2.605v52.16A2.775 2.775 0 002.5 73.75v1.852a2.775 2.775 0 002.778 2.773h37.48l-8.59 12.89c-.188.27-.254.606-.191.93.062.325.25.61.527.79a1.23 1.23 0 001.719-.352l9.5-14.254h3.043v9.871l-.004-.004a1.235 1.235 0 002.469 0V78.38h3.043l9.5 14.254h-.004c.383.559 1.14.707 1.707.332a1.23 1.23 0 00.347-1.7L57.242 78.38h37.48a2.78 2.78 0 002.778-2.777V73.75a2.775 2.775 0 00-1.852-2.606v-52.16A2.771 2.771 0 0097.5 16.38zM4.969 14.527c0-.168.137-.304.308-.304h89.445c.172 0 .31.136.31.304v1.852a.307.307 0 01-.31.308H5.278a.307.307 0 01-.308-.308v-1.852zm88.215 56.45H6.817v-51.82h86.367v51.82zm1.848 4.624a.31.31 0 01-.309.309H5.278a.31.31 0 01-.309-.309V73.75c0-.172.137-.309.309-.309h89.445c.172 0 .309.137.309.309V75.6z" fill="#000"/><path d="M61.102 38.898H80.84c.332.012.656-.113.894-.348a1.233 1.233 0 00-.894-2.117H61.1c-.667.02-1.199.566-1.199 1.234a1.23 1.23 0 001.2 1.231zM61.102 46.3h24.68a1.235 1.235 0 000-2.468h-24.68a1.235 1.235 0 000 2.469zM61.102 53.699H75.91a1.232 1.232 0 000-2.465H61.1a1.232 1.232 0 000 2.465zM28.293 65.668c1.246.242 2.512.363 3.781.363a19.097 19.097 0 0013.547-5.578 19.138 19.138 0 005.614-13.539c0-.324-.133-.64-.364-.871a1.23 1.23 0 00-.87-.36H33.343V29.029c0-.684-.555-1.235-1.234-1.235-6.38 0-12.34 3.18-15.891 8.477a19.121 19.121 0 00-1.805 17.922 19.118 19.118 0 0013.88 11.477v-.001zm-9.039-29.344a16.613 16.613 0 0111.621-6.02v16.61c0 .683.555 1.234 1.234 1.234h16.613A16.61 16.61 0 0142.7 59.773a16.78 16.78 0 01-13.934 3.472 16.566 16.566 0 01-8.46-4.523 16.588 16.588 0 01-4.528-8.46 16.805 16.805 0 013.476-13.939h.001z" fill="#000"/><path d="M35.812 44.449h17.887c.683 0 1.234-.555 1.234-1.234a19.15 19.15 0 00-5.605-13.517 19.152 19.152 0 00-13.516-5.609c-.684 0-1.235.555-1.235 1.235v17.89c0 .68.55 1.235 1.235 1.235zM37.046 26.6A16.68 16.68 0 0152.421 41.98H37.046V26.6z" fill="#000"/></svg>