<svg xmlns="http://www.w3.org/2000/svg" width="74" height="59" fill="none" viewBox="0 0 74 59"><path fill="#FF8B20" fill-opacity=".4" d="M41.8086 9.38281h18.119v6.79462h-18.119z"/><path stroke="#FF8B20" stroke-opacity=".4" stroke-width="2.265" d="M42.941 10.5152h15.8541v4.52975H42.941z"/><path fill="#FF8B20" fill-opacity=".4" d="M41.8086 18.4424h18.119v6.79462h-18.119z"/><path stroke="#FF8B20" stroke-opacity=".4" stroke-width="2.265" d="M42.941 19.5748h15.8541v4.52975H42.941z"/><path fill="#FF8B20" fill-opacity=".4" d="M41.8086 27.502h18.119v6.79462h-18.119z"/><path stroke="#FF8B20" stroke-opacity=".4" stroke-width="2.265" d="M42.941 28.6344h15.8541v4.52975H42.941z"/><mask id="a" fill="#fff"><path fill-rule="evenodd" d="M.285156 0H73.5161v7.54958h-5.2847V43.3557H5.5699V7.54958H.285156V0zM27.0859 21.0838v-10.088c-.4936-.0681-.9977-.1033-1.5101-.1033-6.0458 0-10.9469 4.901-10.9469 10.9468 0 6.0459 4.9011 10.9469 10.9469 10.9469s10.9469-4.901 10.9469-10.9469c0-.2539-.0087-.5059-.0257-.7555h-9.4111z" clip-rule="evenodd"/></mask><path fill="#FF8B20" fill-opacity=".4" fill-rule="evenodd" d="M.285156 0H73.5161v7.54958h-5.2847V43.3557H5.5699V7.54958H.285156V0zM27.0859 21.0838v-10.088c-.4936-.0681-.9977-.1033-1.5101-.1033-6.0458 0-10.9469 4.901-10.9469 10.9468 0 6.0459 4.9011 10.9469 10.9469 10.9469s10.9469-4.901 10.9469-10.9469c0-.2539-.0087-.5059-.0257-.7555h-9.4111z" clip-rule="evenodd"/><path fill="#FF8B20" fill-opacity=".4" d="M73.5161 0h2.2649v-2.26487h-2.2649V0zM.285156 0v-2.26487H-1.97972V0H.285156zM73.5161 7.54958v2.26488h2.2649V7.54958h-2.2649zm-5.2847 0V5.28471h-2.2649v2.26487h2.2649zm0 35.80612v2.2649h2.2649v-2.2649h-2.2649zm-62.6615 0H3.30503v2.2649H5.5699v-2.2649zm0-35.80612h2.26487V5.28471H5.5699v2.26487zm-5.284744 0H-1.97972v2.26488H.285156V7.54958zM27.0859 10.9958h2.2649V9.02195l-1.9553-.2698-.3096 2.24365zm0 10.088h-2.2648v2.2649h2.2648v-2.2649zm9.4111 0l2.2597-.154-.1439-2.1109H36.497v2.2649zM73.5161-2.26487H.285156v4.52974H73.5161v-4.52974zm2.2649 9.81445V0h-4.5298v7.54958h4.5298zm-7.5496 2.26488h5.2847V5.28471h-5.2847v4.52975zm2.2649 33.54124V7.54958h-4.5298V43.3557h4.5298zM5.5699 45.6206h62.6615v-4.5298H5.5699v4.5298zM3.30503 7.54958V43.3557h4.52974V7.54958H3.30503zM.285156 9.81446H5.5699V5.28471H.285156v4.52975zM-1.97972 0v7.54958h4.52975V0h-4.52975zM24.8211 10.9958v10.088h4.5297v-10.088h-4.5297zm.7547 2.1615c.4085 0 .8092.0281 1.2006.0821l.6191-4.48725c-.5959-.08222-1.2035-.12457-1.8197-.12457v4.52972zm-8.682 8.682c0-4.7949 3.8871-8.682 8.682-8.682V8.62758c-7.2967 0-13.2118 5.91512-13.2118 13.21172h4.5298zm8.682 8.6821c-4.7949 0-8.682-3.8871-8.682-8.6821H12.364c0 7.2967 5.9151 13.2118 13.2118 13.2118v-4.5297zm8.682-8.6821c0 4.795-3.8871 8.6821-8.682 8.6821v4.5297c7.2967 0 13.2118-5.9151 13.2118-13.2118h-4.5298zm-.0204-.6015c.0135.1984.0204.399.0204.6015h4.5298c0-.3053-.0104-.6087-.0309-.9095l-4.5193.308zm-7.1515 2.1109h9.4111v-4.5298h-9.4111v4.5298z" mask="url(#a)"/><mask id="b" fill="#fff"><path fill-rule="evenodd" d="M36.979 43.2027H5.30469V38.9902H68.4923v4.2125h-29.565v9.6316c1.2673.4111 2.1837 1.6015 2.1837 3.0058 0 1.7449-1.4146 3.1594-3.1594 3.1594-1.7449 0-3.1594-1.4145-3.1594-3.1594 0-1.4055.9178-2.5966 2.1868-3.0068v-9.6306zm0-1.9482H7.25297v-.316H66.544v.316H36.979z" clip-rule="evenodd"/></mask><path fill="#FF8B20" fill-opacity=".4" fill-rule="evenodd" d="M36.979 43.2027H5.30469V38.9902H68.4923v4.2125h-29.565v9.6316c1.2673.4111 2.1837 1.6015 2.1837 3.0058 0 1.7449-1.4146 3.1594-3.1594 3.1594-1.7449 0-3.1594-1.4145-3.1594-3.1594 0-1.4055.9178-2.5966 2.1868-3.0068v-9.6306zm0-1.9482H7.25297v-.316H66.544v.316H36.979z" clip-rule="evenodd"/><path fill="#FF8B20" fill-opacity=".4" d="M36.979 43.2027h1.0531v-1.0531H36.979v1.0531zm-31.67431 0H4.25156v1.0532h1.05313v-1.0532zm0-4.2125v-1.0531H4.25156v1.0531h1.05313zm63.18761 0h1.0531v-1.0531h-1.0531v1.0531zm0 4.2125v1.0532h1.0531v-1.0532h-1.0531zm-29.565 0v-1.0531h-1.0532v1.0531h1.0532zm0 9.6316h-1.0532v.7655l.7282.2362.325-1.0017zm-1.9483-.001l.3239 1.0021.7292-.2357v-.7664H36.979zM7.25297 41.2545H6.19984v1.0531h1.05313v-1.0531zm0-.316v-1.0531H6.19984v1.0531h1.05313zm59.29103 0h1.0531v-1.0531H66.544v1.0531zm0 .316v1.0531h1.0531v-1.0531H66.544zm-31.5133 3.0014h1.9483v-2.1063h-1.9483v2.1063zm-27.77773 0H35.0307v-2.1063H7.25297v2.1063zm-1.94828 0h1.94828v-2.1063H5.30469v2.1063zm-1.05313-3.0014v1.9482h2.10625v-1.9482H4.25156zm0-.316v.316h2.10625v-.316H4.25156zm0-1.9483v1.9483h2.10625v-1.9483H4.25156zm3.00141-1.0531H5.30469v2.1063h1.94828v-2.1063zm59.29103 0H7.25297v2.1063H66.544v-2.1063zm1.9483 0H66.544v2.1063h1.9483v-2.1063zm1.0531 3.0014v-1.9483h-2.1063v1.9483h2.1063zm0 .316v-.316h-2.1063v.316h2.1063zm0 1.9482v-1.9482h-2.1063v1.9482h2.1063zm-3.0014 1.0532h1.9483v-2.1063H66.544v2.1063zm-25.6685 0H66.544v-2.1063H40.8755v2.1063zm-1.9482 0h1.9482v-2.1063h-1.9482v2.1063zm1.0531.8951v-1.9483h-2.1063v1.9483h2.1063zm0 6.6345V45.151h-2.1063v6.6345h2.1063zm0 1.0488v-1.0488h-2.1063v1.0488h2.1063zm-1.3781 1.0017c.846.2745 1.4555 1.0695 1.4555 2.0041h2.1063c0-1.8741-1.2231-3.4598-2.9119-4.0076l-.6499 2.0035zm1.4555 2.0041c0 1.1633-.943 2.1063-2.1062 2.1063v2.1062c2.3265 0 4.2125-1.886 4.2125-4.2125h-2.1063zm-2.1062 2.1063c-1.1633 0-2.1063-.943-2.1063-2.1063h-2.1062c0 2.3265 1.886 4.2125 4.2125 4.2125v-2.1062zm-2.1063-2.1063c0-.9354.6105-1.7309 1.4576-2.0047l-.6478-2.0042c-1.6909.5465-2.916 2.1333-2.916 4.0089h2.1062zm.0806-4.0546v1.0478h2.1062v-1.0478h-2.1062zm0-6.6345v6.6345h2.1062V45.151h-2.1062zm0-1.9483v1.9483h2.1062v-1.9483h-2.1062zm-28.67293-.8951H36.979v-2.1063H7.25297v2.1063zm-1.05313-1.3691v.316H8.3061v-.316H6.19984zM66.544 39.8854H7.25297v2.1062H66.544v-2.1062zm1.0531 1.3691v-.316h-2.1063v.316h2.1063zm-28.6698 1.0531H66.544v-2.1063H38.9273v2.1063zm-1.9483 0h1.9483v-2.1063H36.979v2.1063z" mask="url(#b)"/></svg>