<svg fill="none" viewBox="0 0 74 59"><path fill="#FF8B20" fill-opacity=".4" d="M41.809 9.383h18.119v6.794h-18.12z"/><path stroke="#FF8B20" stroke-opacity=".4" stroke-width="2.265" d="M42.941 10.515h15.854v4.53H42.941z"/><path fill="#FF8B20" fill-opacity=".4" d="M41.809 18.442h18.119v6.795h-18.12z"/><path stroke="#FF8B20" stroke-opacity=".4" stroke-width="2.265" d="M42.941 19.575h15.854v4.53H42.941z"/><path fill="#FF8B20" fill-opacity=".4" d="M41.809 27.502h18.119v6.795h-18.12z"/><path stroke="#FF8B20" stroke-opacity=".4" stroke-width="2.265" d="M42.941 28.634h15.854v4.53H42.941z"/><mask id="a" fill="#fff"><path fill-rule="evenodd" d="M.285 0h73.231v7.55h-5.285v35.806H5.57V7.55H.285V0zm26.8 21.084V10.996a11.045 11.045 0 00-1.51-.103c-6.045 0-10.946 4.9-10.946 10.946 0 6.046 4.901 10.947 10.947 10.947s10.947-4.9 10.947-10.947c0-.254-.009-.506-.026-.755h-9.411z" clip-rule="evenodd"/></mask><path fill="#FF8B20" fill-opacity=".4" fill-rule="evenodd" d="M.285 0h73.231v7.55h-5.285v35.806H5.57V7.55H.285V0zm26.8 21.084V10.996a11.045 11.045 0 00-1.51-.103c-6.045 0-10.946 4.9-10.946 10.946 0 6.046 4.901 10.947 10.947 10.947s10.947-4.9 10.947-10.947c0-.254-.009-.506-.026-.755h-9.411z" clip-rule="evenodd"/><path fill="#FF8B20" fill-opacity=".4" d="M73.516 0h2.265v-2.265h-2.265V0zM.286 0v-2.265H-1.98V0H.285zm73.23 7.55v2.264h2.265V7.55h-2.265zm-5.285 0V5.285h-2.265V7.55h2.265zm0 35.806v2.265h2.265v-2.265h-2.265zm-62.661 0H3.305v2.265H5.57v-2.265zm0-35.806h2.265V5.285H5.57V7.55zm-5.285 0H-1.98v2.264H.285V7.55zm26.8 3.446h2.266V9.022l-1.955-.27-.31 2.244zm0 10.088h-2.264v2.265h2.265v-2.265zm9.412 0l2.26-.154-.144-2.111h-2.116v2.265zm37.02-23.349H.284v4.53h73.231v-4.53zM75.78 7.55V0h-4.53v7.55h4.53zm-7.55 2.264h5.285v-4.53H68.23v4.53zm2.265 33.542V7.55h-4.53v35.806h4.53zM5.57 45.62h62.66v-4.53H5.57v4.53zM3.305 7.55v35.806h4.53V7.55h-4.53zM.285 9.814H5.57v-4.53H.285v4.53zM-1.98 0v7.55h4.53V0h-4.53zm26.801 10.996v10.088h4.53V10.996h-4.53zm.755 2.161c.408 0 .809.028 1.2.082l.62-4.487a13.31 13.31 0 00-1.82-.124v4.53zm-8.682 8.682a8.682 8.682 0 018.682-8.682v-4.53c-7.297 0-13.212 5.916-13.212 13.212h4.53zm8.682 8.682a8.682 8.682 0 01-8.682-8.682h-4.53c0 7.297 5.915 13.212 13.212 13.212v-4.53zm8.682-8.682a8.682 8.682 0 01-8.682 8.682v4.53c7.297 0 13.212-5.915 13.212-13.212h-4.53zm-.02-.601c.013.198.02.399.02.601h4.53c0-.305-.01-.608-.031-.91l-4.52.309zm-7.152 2.11h9.411v-4.53h-9.411v4.53z" mask="url(#a)"/><mask id="b" fill="#fff"><path fill-rule="evenodd" d="M36.979 43.203H5.305V38.99h63.187v4.213H38.927v9.631A3.16 3.16 0 0137.952 59a3.16 3.16 0 01-.973-6.166v-9.63zm0-1.949H7.253v-.315h59.291v.315H36.979z" clip-rule="evenodd"/></mask><path fill="#FF8B20" fill-opacity=".4" fill-rule="evenodd" d="M36.979 43.203H5.305V38.99h63.187v4.213H38.927v9.631A3.16 3.16 0 0137.952 59a3.16 3.16 0 01-.973-6.166v-9.63zm0-1.949H7.253v-.315h59.291v.315H36.979z" clip-rule="evenodd"/><path fill="#FF8B20" fill-opacity=".4" d="M36.979 43.203h1.053V42.15H36.98v1.053zm-31.674 0H4.252v1.053h1.053v-1.053zm0-4.213v-1.053H4.252v1.053h1.053zm63.187 0h1.053v-1.053h-1.053v1.053zm0 4.213v1.053h1.053v-1.053h-1.053zm-29.565 0V42.15h-1.053v1.053h1.053zm0 9.631h-1.053v.766l.728.236.325-1.002zm-1.948 0l.324 1.001.73-.235v-.767h-1.054zM7.253 41.253H6.2v1.054h1.053v-1.053zm0-.315v-1.054H6.2v1.053h1.053zm59.291 0h1.053v-1.054h-1.053v1.053zm0 .315v1.054h1.053v-1.053h-1.053zm-31.513 3.002h1.948V42.15h-1.948v2.106zm-27.778 0h27.778V42.15H7.253v2.106zm-1.948 0h1.948V42.15H5.305v2.106zm-1.053-3.002v1.949h2.106v-1.949H4.252zm0-.315v.315h2.106v-.315H4.252zm0-1.949v1.948h2.106V38.99H4.252zm3.001-1.053H5.305v2.106h1.948v-2.106zm59.291 0H7.253v2.106h59.291v-2.106zm1.948 0h-1.948v2.106h1.948v-2.106zm1.053 3.001V38.99H67.44v1.948h2.106zm0 .316v-.316H67.44v.316h2.106zm0 1.949v-1.949H67.44v1.949h2.106zm-3.001 1.053h1.948V42.15h-1.948v2.106zm-25.669 0h25.669V42.15H40.876v2.106zm-1.948 0h1.948V42.15h-1.948v2.106zm1.053.895v-1.948h-2.106v1.948h2.106zm0 6.634V45.15h-2.106v6.635h2.106zm0 1.05v-1.05h-2.106v1.05h2.106zm-1.378 1.001a2.108 2.108 0 011.456 2.004h2.106a4.214 4.214 0 00-2.912-4.008l-.65 2.004zm1.456 2.004a2.106 2.106 0 01-2.106 2.106v2.107a4.212 4.212 0 004.212-4.213h-2.106zm-2.106 2.106a2.106 2.106 0 01-2.107-2.106H33.74a4.212 4.212 0 004.213 4.213v-2.107zm-2.107-2.106c0-.935.61-1.73 1.458-2.005l-.648-2.004a4.214 4.214 0 00-2.916 4.01h2.106zm.08-4.055v1.048h2.107v-1.048h-2.106zm0-6.634v6.634h2.107V45.15h-2.106zm0-1.948v1.948h2.107v-1.948h-2.106zm-28.672-.895h29.726V40.2H7.253v2.107zM6.2 40.938v.316h2.106v-.316H6.2zm60.344-1.053H7.253v2.107h59.291v-2.107zm1.053 1.37v-.317h-2.106v.316h2.106zm-28.67 1.053h27.617V40.2H38.927v2.107zm-1.948 0h1.948V40.2H36.98v2.107z" mask="url(#b)"/></svg>