<svg width="70" height="55" viewBox="0 0 70 55" fill="none" xmlns="http://www.w3.org/2000/svg"><mask id="a" fill="#fff"><path fill-rule="evenodd" clip-rule="evenodd" d="M40.8636 27.6046c-2.0876-1.6516-3.4271-4.2074-3.4271-7.076 0-4.9803 4.0373-9.0176 9.0176-9.0176 2.98 0 5.6225 1.4455 7.2643 3.6737 1.6419-2.2282 4.2843-3.6737 7.2643-3.6737 4.9803 0 9.0176 4.0373 9.0176 9.0176 0 2.7702-1.2492 5.2487-3.215 6.9029L55.8738 40.7473c-.9916 1.21-2.8374 1.2251-3.8487.0315L40.8636 27.6046z"/></mask><path fill-rule="evenodd" clip-rule="evenodd" d="M40.8636 27.6046c-2.0876-1.6516-3.4271-4.2074-3.4271-7.076 0-4.9803 4.0373-9.0176 9.0176-9.0176 2.98 0 5.6225 1.4455 7.2643 3.6737 1.6419-2.2282 4.2843-3.6737 7.2643-3.6737 4.9803 0 9.0176 4.0373 9.0176 9.0176 0 2.7702-1.2492 5.2487-3.215 6.9029L55.8738 40.7473c-.9916 1.21-2.8374 1.2251-3.8487.0315L40.8636 27.6046z" fill="#FF3636" fill-opacity=".3"/><path d="M40.8636 27.6046l1.1467-.9715-.0967-.1143-.1175-.0929-.9325 1.1787zm12.8548-12.4199l-1.2099.8915 1.2099 1.642 1.2099-1.642-1.2099-.8915zm13.0669 12.2468l-.9677-1.15-.1065.0897-.0883.1077 1.1625.9526zM55.8738 40.7473l1.1625.9525-1.1625-.9525zm-3.8487.0315l1.1467-.9715-1.1467.9715zm-10.229-14.3529c-1.7428-1.3788-2.8566-3.5075-2.8566-5.8973h-3.0059c0 3.3474 1.5651 6.3303 3.9976 8.2547l1.8649-2.3574zm-2.8566-5.8973c0-4.1503 3.3644-7.5147 7.5146-7.5147v-3.0058c-5.8103 0-10.5205 4.7101-10.5205 10.5205h3.0059zm7.5146-7.5147c2.4823 0 4.6836 1.2021 6.0544 3.0623l2.4198-1.7831c-1.9129-2.596-4.9964-4.285-8.4742-4.285v3.0058zm8.4742 3.0623c1.3708-1.8602 3.5721-3.0623 6.0544-3.0623v-3.0058c-3.4778 0-6.5613 1.689-8.4742 4.285l2.4198 1.7831zm6.0544-3.0623c4.1502 0 7.5147 3.3644 7.5147 7.5147h3.0058c0-5.8103-4.7102-10.5205-10.5205-10.5205v3.0058zm7.5147 7.5147c0 2.3081-1.0388 4.3721-2.6798 5.7529l1.9354 2.2999c2.2906-1.9275 3.7502-4.8204 3.7502-8.0528h-3.0058zm-2.8746 5.9503L54.7113 39.7947l2.325 1.9051 10.9115-13.3157-2.325-1.9052zM54.7113 39.7947c-.3966.484-1.135.49-1.5395.0126l-2.2934 1.943c1.618 1.9098 4.5714 1.8856 6.1579-.0505l-2.325-1.9051zm-1.5395.0126L42.0103 26.6331l-2.2934 1.943 11.1615 13.1742 2.2934-1.943z" fill="#FF3636" fill-opacity=".7" mask="url(#a)"/><mask id="b" fill="#fff"><path fill-rule="evenodd" clip-rule="evenodd" d="M0 1.91851C0 .858945.858944 0 1.91851 0H38.3701c1.0596 0 1.9185.858944 1.9185 1.9185v8.231c-3.7902 1.8836-6.395 5.7949-6.395 10.3145 0 3.6626 1.7105 6.9256 4.3762 9.0338l2.0188 2.3829v21.1979c0 1.0596-.8589 1.9185-1.9185 1.9185H1.91851C.858946 54.9971 0 54.1382 0 53.0786V1.91851zm6.39502 6.39498c0-1.05957.85894-1.91851 1.9185-1.91851H31.9751c1.0595 0 1.9185.85894 1.9185 1.9185V15.348c0 1.0596-.859 1.9185-1.9185 1.9185H8.31352c-1.05956 0-1.9185-.8589-1.9185-1.9185V8.31349zM8.31352 21.743H10.232v1.9185H8.31352V21.743zm-1.9185 0c0-1.0595.85894-1.9185 1.9185-1.9185H10.232c1.0596 0 1.9185.859 1.9185 1.9185v1.9185c0 1.0596-.8589 1.9185-1.9185 1.9185H8.31352c-1.05956 0-1.9185-.8589-1.9185-1.9185V21.743zm10.87148 0H15.348v1.9185h1.9185V21.743zm-1.9185-1.9185c-1.0595 0-1.9185.859-1.9185 1.9185v1.9185c0 1.0596.859 1.9185 1.9185 1.9185h1.9185c1.0596 0 1.9186-.8589 1.9186-1.9185V21.743c0-1.0595-.859-1.9185-1.9186-1.9185H15.348zm7.0346 1.9185h1.9185v1.9185h-1.9185V21.743zm-1.9185 0c0-1.0595.8589-1.9185 1.9185-1.9185h1.9185c1.0595 0 1.9185.859 1.9185 1.9185v1.9185c0 1.0596-.859 1.9185-1.9185 1.9185h-1.9185c-1.0596 0-1.9185-.8589-1.9185-1.9185V21.743zm10.8715 0h-1.9185v1.9185h1.9185V21.743zm-1.9185-1.9185c-1.0596 0-1.9185.859-1.9185 1.9185v1.9185c0 1.0596.8589 1.9185 1.9185 1.9185h1.9185c1.0595 0 1.9185-.8589 1.9185-1.9185V21.743c0-1.0595-.859-1.9185-1.9185-1.9185h-1.9185zm.6395 9.5925h1.9185v17.2666h-1.9185V29.417zm-1.9185 0c0-1.0595.8589-1.9185 1.9185-1.9185h1.9185c1.0595 0 1.9185.859 1.9185 1.9185v17.2666c0 1.0595-.859 1.9185-1.9185 1.9185h-1.9185c-1.0596 0-1.9185-.859-1.9185-1.9185V29.417zm-17.9061 0H8.31352v1.9185H10.232V29.417zm-1.91848-1.9185c-1.05956 0-1.9185.859-1.9185 1.9185v1.9185c0 1.0596.85894 1.9186 1.9185 1.9186H10.232c1.0596 0 1.9185-.859 1.9185-1.9186V29.417c0-1.0595-.8589-1.9185-1.9185-1.9185H8.31352zM15.348 29.417h1.9185v1.9185H15.348V29.417zm-1.9185 0c0-1.0595.859-1.9185 1.9185-1.9185h1.9185c1.0596 0 1.9186.859 1.9186 1.9185v1.9185c0 1.0596-.859 1.9186-1.9186 1.9186H15.348c-1.0595 0-1.9185-.859-1.9185-1.9186V29.417zm10.8716 0h-1.9185v1.9185h1.9185V29.417zm-1.9185-1.9185c-1.0596 0-1.9185.859-1.9185 1.9185v1.9185c0 1.0596.8589 1.9186 1.9185 1.9186h1.9185c1.0595 0 1.9185-.859 1.9185-1.9186V29.417c0-1.0595-.859-1.9185-1.9185-1.9185h-1.9185zM8.31352 37.0911H10.232v1.9185H8.31352v-1.9185zm-1.9185 0c0-1.0596.85894-1.9185 1.9185-1.9185H10.232c1.0596 0 1.9185.8589 1.9185 1.9185v1.9185c0 1.0595-.8589 1.9185-1.9185 1.9185H8.31352c-1.05956 0-1.9185-.859-1.9185-1.9185v-1.9185zm10.87148 0H15.348v1.9185h1.9185v-1.9185zm-1.9185-1.9185c-1.0595 0-1.9185.8589-1.9185 1.9185v1.9185c0 1.0595.859 1.9185 1.9185 1.9185h1.9185c1.0596 0 1.9186-.859 1.9186-1.9185v-1.9185c0-1.0596-.859-1.9185-1.9186-1.9185H15.348zm7.0346 1.9185h1.9185v1.9185h-1.9185v-1.9185zm-1.9185 0c0-1.0596.8589-1.9185 1.9185-1.9185h1.9185c1.0595 0 1.9185.8589 1.9185 1.9185v1.9185c0 1.0595-.859 1.9185-1.9185 1.9185h-1.9185c-1.0596 0-1.9185-.859-1.9185-1.9185v-1.9185zm-10.2321 7.674H8.31352v1.9185H10.232v-1.9185zm-1.91848-1.9185c-1.05956 0-1.9185.8589-1.9185 1.9185v1.9185c0 1.0595.85894 1.9185 1.9185 1.9185H10.232c1.0596 0 1.9185-.859 1.9185-1.9185v-1.9185c0-1.0596-.8589-1.9185-1.9185-1.9185H8.31352zm7.03448 1.9185h1.9185v1.9185H15.348v-1.9185zm-1.9185 0c0-1.0596.859-1.9185 1.9185-1.9185h1.9185c1.0596 0 1.9186.8589 1.9186 1.9185v1.9185c0 1.0595-.859 1.9185-1.9186 1.9185H15.348c-1.0595 0-1.9185-.859-1.9185-1.9185v-1.9185zm10.8716 0h-1.9185v1.9185h1.9185v-1.9185zm-1.9185-1.9185c-1.0596 0-1.9185.8589-1.9185 1.9185v1.9185c0 1.0595.8589 1.9185 1.9185 1.9185h1.9185c1.0595 0 1.9185-.859 1.9185-1.9185v-1.9185c0-1.0596-.859-1.9185-1.9185-1.9185h-1.9185z"/></mask><path fill-rule="evenodd" clip-rule="evenodd" d="M0 1.91851C0 .858945.858944 0 1.91851 0H38.3701c1.0596 0 1.9185.858944 1.9185 1.9185v8.231c-3.7902 1.8836-6.395 5.7949-6.395 10.3145 0 3.6626 1.7105 6.9256 4.3762 9.0338l2.0188 2.3829v21.1979c0 1.0596-.8589 1.9185-1.9185 1.9185H1.91851C.858946 54.9971 0 54.1382 0 53.0786V1.91851zm6.39502 6.39498c0-1.05957.85894-1.91851 1.9185-1.91851H31.9751c1.0595 0 1.9185.85894 1.9185 1.9185V15.348c0 1.0596-.859 1.9185-1.9185 1.9185H8.31352c-1.05956 0-1.9185-.8589-1.9185-1.9185V8.31349zM8.31352 21.743H10.232v1.9185H8.31352V21.743zm-1.9185 0c0-1.0595.85894-1.9185 1.9185-1.9185H10.232c1.0596 0 1.9185.859 1.9185 1.9185v1.9185c0 1.0596-.8589 1.9185-1.9185 1.9185H8.31352c-1.05956 0-1.9185-.8589-1.9185-1.9185V21.743zm10.87148 0H15.348v1.9185h1.9185V21.743zm-1.9185-1.9185c-1.0595 0-1.9185.859-1.9185 1.9185v1.9185c0 1.0596.859 1.9185 1.9185 1.9185h1.9185c1.0596 0 1.9186-.8589 1.9186-1.9185V21.743c0-1.0595-.859-1.9185-1.9186-1.9185H15.348zm7.0346 1.9185h1.9185v1.9185h-1.9185V21.743zm-1.9185 0c0-1.0595.8589-1.9185 1.9185-1.9185h1.9185c1.0595 0 1.9185.859 1.9185 1.9185v1.9185c0 1.0596-.859 1.9185-1.9185 1.9185h-1.9185c-1.0596 0-1.9185-.8589-1.9185-1.9185V21.743zm10.8715 0h-1.9185v1.9185h1.9185V21.743zm-1.9185-1.9185c-1.0596 0-1.9185.859-1.9185 1.9185v1.9185c0 1.0596.8589 1.9185 1.9185 1.9185h1.9185c1.0595 0 1.9185-.8589 1.9185-1.9185V21.743c0-1.0595-.859-1.9185-1.9185-1.9185h-1.9185zm.6395 9.5925h1.9185v17.2666h-1.9185V29.417zm-1.9185 0c0-1.0595.8589-1.9185 1.9185-1.9185h1.9185c1.0595 0 1.9185.859 1.9185 1.9185v17.2666c0 1.0595-.859 1.9185-1.9185 1.9185h-1.9185c-1.0596 0-1.9185-.859-1.9185-1.9185V29.417zm-17.9061 0H8.31352v1.9185H10.232V29.417zm-1.91848-1.9185c-1.05956 0-1.9185.859-1.9185 1.9185v1.9185c0 1.0596.85894 1.9186 1.9185 1.9186H10.232c1.0596 0 1.9185-.859 1.9185-1.9186V29.417c0-1.0595-.8589-1.9185-1.9185-1.9185H8.31352zM15.348 29.417h1.9185v1.9185H15.348V29.417zm-1.9185 0c0-1.0595.859-1.9185 1.9185-1.9185h1.9185c1.0596 0 1.9186.859 1.9186 1.9185v1.9185c0 1.0596-.859 1.9186-1.9186 1.9186H15.348c-1.0595 0-1.9185-.859-1.9185-1.9186V29.417zm10.8716 0h-1.9185v1.9185h1.9185V29.417zm-1.9185-1.9185c-1.0596 0-1.9185.859-1.9185 1.9185v1.9185c0 1.0596.8589 1.9186 1.9185 1.9186h1.9185c1.0595 0 1.9185-.859 1.9185-1.9186V29.417c0-1.0595-.859-1.9185-1.9185-1.9185h-1.9185zM8.31352 37.0911H10.232v1.9185H8.31352v-1.9185zm-1.9185 0c0-1.0596.85894-1.9185 1.9185-1.9185H10.232c1.0596 0 1.9185.8589 1.9185 1.9185v1.9185c0 1.0595-.8589 1.9185-1.9185 1.9185H8.31352c-1.05956 0-1.9185-.859-1.9185-1.9185v-1.9185zm10.87148 0H15.348v1.9185h1.9185v-1.9185zm-1.9185-1.9185c-1.0595 0-1.9185.8589-1.9185 1.9185v1.9185c0 1.0595.859 1.9185 1.9185 1.9185h1.9185c1.0596 0 1.9186-.859 1.9186-1.9185v-1.9185c0-1.0596-.859-1.9185-1.9186-1.9185H15.348zm7.0346 1.9185h1.9185v1.9185h-1.9185v-1.9185zm-1.9185 0c0-1.0596.8589-1.9185 1.9185-1.9185h1.9185c1.0595 0 1.9185.8589 1.9185 1.9185v1.9185c0 1.0595-.859 1.9185-1.9185 1.9185h-1.9185c-1.0596 0-1.9185-.859-1.9185-1.9185v-1.9185zm-10.2321 7.674H8.31352v1.9185H10.232v-1.9185zm-1.91848-1.9185c-1.05956 0-1.9185.8589-1.9185 1.9185v1.9185c0 1.0595.85894 1.9185 1.9185 1.9185H10.232c1.0596 0 1.9185-.859 1.9185-1.9185v-1.9185c0-1.0596-.8589-1.9185-1.9185-1.9185H8.31352zm7.03448 1.9185h1.9185v1.9185H15.348v-1.9185zm-1.9185 0c0-1.0596.859-1.9185 1.9185-1.9185h1.9185c1.0596 0 1.9186.8589 1.9186 1.9185v1.9185c0 1.0595-.859 1.9185-1.9186 1.9185H15.348c-1.0595 0-1.9185-.859-1.9185-1.9185v-1.9185zm10.8716 0h-1.9185v1.9185h1.9185v-1.9185zm-1.9185-1.9185c-1.0596 0-1.9185.8589-1.9185 1.9185v1.9185c0 1.0595.8589 1.9185 1.9185 1.9185h1.9185c1.0595 0 1.9185-.859 1.9185-1.9185v-1.9185c0-1.0596-.859-1.9185-1.9185-1.9185h-1.9185z" fill="#FF3636" fill-opacity=".2"/><path d="M40.2886 10.1495l.8538 1.7181 1.0647-.5291v-1.189h-1.9185zm-2.0188 19.3483l1.4638-1.2402-.1237-.1459-.15-.1187-1.1901 1.5048zm2.0188 2.3829h1.9185v-.7035l-.4547-.5367-1.4638 1.2402zM10.232 21.743h1.9185v-1.9185H10.232v1.9185zm-1.91848 0v-1.9185h-1.9185v1.9185h1.9185zm1.91848 1.9185V25.58h1.9185v-1.9185H10.232zm-1.91848 0h-1.9185V25.58h1.9185v-1.9185zM15.348 21.743v-1.9185h-1.9185v1.9185h1.9185zm1.9185 0h1.9185v-1.9185h-1.9185v1.9185zm-1.9185 1.9185h-1.9185V25.58h1.9185v-1.9185zm1.9185 0V25.58h1.9185v-1.9185h-1.9185zm7.0346-1.9185h1.9185v-1.9185h-1.9185v1.9185zm-1.9185 0v-1.9185h-1.9185v1.9185h1.9185zm1.9185 1.9185V25.58h1.9185v-1.9185h-1.9185zm-1.9185 0h-1.9185V25.58h1.9185v-1.9185zm7.0345-1.9185v-1.9185h-1.9185v1.9185h1.9185zm1.9185 0h1.9185v-1.9185h-1.9185v1.9185zm-1.9185 1.9185h-1.9185V25.58h1.9185v-1.9185zm1.9185 0V25.58h1.9185v-1.9185h-1.9185zm.6395 5.7555h1.9185v-1.9185h-1.9185v1.9185zm-1.9185 0v-1.9185h-1.9185v1.9185h1.9185zm1.9185 17.2666v1.9185h1.9185v-1.9185h-1.9185zm-1.9185 0h-1.9185v1.9185h1.9185v-1.9185zM8.31352 29.417v-1.9185h-1.9185v1.9185h1.9185zm1.91848 0h1.9185v-1.9185H10.232v1.9185zm-1.91848 1.9185h-1.9185v1.9186h1.9185v-1.9186zm1.91848 0v1.9186h1.9185v-1.9186H10.232zm7.0345-1.9185h1.9185v-1.9185h-1.9185v1.9185zm-1.9185 0v-1.9185h-1.9185v1.9185h1.9185zm1.9185 1.9185v1.9186h1.9185v-1.9186h-1.9185zm-1.9185 0h-1.9185v1.9186h1.9185v-1.9186zm7.0346-1.9185v-1.9185h-1.9185v1.9185h1.9185zm1.9185 0h1.9185v-1.9185h-1.9185v1.9185zm-1.9185 1.9185h-1.9185v1.9186h1.9185v-1.9186zm1.9185 0v1.9186h1.9185v-1.9186h-1.9185zM10.232 37.0911h1.9185v-1.9185H10.232v1.9185zm-1.91848 0v-1.9185h-1.9185v1.9185h1.9185zm1.91848 1.9185v1.9185h1.9185v-1.9185H10.232zm-1.91848 0h-1.9185v1.9185h1.9185v-1.9185zm7.03448-1.9185v-1.9185h-1.9185v1.9185h1.9185zm1.9185 0h1.9185v-1.9185h-1.9185v1.9185zm-1.9185 1.9185h-1.9185v1.9185h1.9185v-1.9185zm1.9185 0v1.9185h1.9185v-1.9185h-1.9185zm7.0346-1.9185h1.9185v-1.9185h-1.9185v1.9185zm-1.9185 0v-1.9185h-1.9185v1.9185h1.9185zm1.9185 1.9185v1.9185h1.9185v-1.9185h-1.9185zm-1.9185 0h-1.9185v1.9185h1.9185v-1.9185zM8.31352 44.7651v-1.9185h-1.9185v1.9185h1.9185zm1.91848 0h1.9185v-1.9185H10.232v1.9185zm-1.91848 1.9185h-1.9185v1.9185h1.9185v-1.9185zm1.91848 0v1.9185h1.9185v-1.9185H10.232zm7.0345-1.9185h1.9185v-1.9185h-1.9185v1.9185zm-1.9185 0v-1.9185h-1.9185v1.9185h1.9185zm1.9185 1.9185v1.9185h1.9185v-1.9185h-1.9185zm-1.9185 0h-1.9185v1.9185h1.9185v-1.9185zm7.0346-1.9185v-1.9185h-1.9185v1.9185h1.9185zm1.9185 0h1.9185v-1.9185h-1.9185v1.9185zm-1.9185 1.9185h-1.9185v1.9185h1.9185v-1.9185zm1.9185 0v1.9185h1.9185v-1.9185h-1.9185zM1.91851-1.91851c-2.119128 0-3.83702 1.717895-3.83702 3.83702h3.83702v-3.83702zm36.45159 0H1.91851v3.83702H38.3701v-3.83702zm3.837 3.83701c0-2.119121-1.7179-3.83701-3.837-3.83701v3.83702-.00001h3.837zm0 8.231v-8.231h-3.837v8.231h3.837zm-2.7723-1.71801c-4.4173 2.19521-7.4597 6.75681-7.4597 12.03251h3.837c0-3.7635 2.1671-7.0244 5.3303-8.5964l-1.7076-3.43611zM31.9751 20.464c0 4.2739 1.9986 8.0821 5.1046 10.5386l2.3802-3.0096c-2.2255-1.76-3.6478-4.4778-3.6478-7.529h-3.837zm4.8309 10.274l2.0188 2.3828 2.9276-2.4803-2.0188-2.3829-2.9276 2.4804zm5.4011 22.3406V31.8807h-3.837v21.1979h3.837zm-3.837 3.8371c2.1191 0 3.837-1.7179 3.837-3.8371h-3.837v3.8371zm-36.45159 0H38.3701v-3.8371H1.91851v3.8371zm-3.83702-3.8371c0 2.1192 1.717897 3.8371 3.83702 3.8371v-3.8371h-3.83702zm0-51.16009V53.0786h3.83702V1.91851h-3.83702zM8.31352 4.47647c-2.11912 0-3.83701 1.7179-3.83701 3.83702h3.83701V4.47647zm23.66158 0H8.31352v3.83701H31.9751V4.47647zm3.837 3.83701c0-2.11911-1.7179-3.83701-3.837-3.83701v3.83701h3.837zm0 7.03452V8.31348h-3.837V15.348h3.837zm-3.837 3.837c2.1191 0 3.837-1.7179 3.837-3.837h-3.837v3.837zm-23.66158 0H31.9751v-3.837H8.31352v3.837zm-3.83701-3.837c0 2.1191 1.71788 3.837 3.83701 3.837v-3.837H4.47651zm0-7.03451V15.348h3.83701V8.31349H4.47651zM10.232 19.8245H8.31352v3.837H10.232v-3.837zm1.9185 3.837V21.743H8.31352v1.9185h3.83698zM8.31352 25.58H10.232v-3.837H8.31352v3.837zm-1.9185-3.837v1.9185H10.232V21.743H6.39502zm1.9185-3.837c-2.11912 0-3.83701 1.7179-3.83701 3.837h3.83701v-3.837zm1.91848 0H8.31352v3.837H10.232v-3.837zm3.837 3.837c0-2.1191-1.7179-3.837-3.837-3.837v3.837h3.837zm0 1.9185V21.743h-3.837v1.9185h3.837zm-3.837 3.837c2.1192 0 3.837-1.7179 3.837-3.837h-3.837v3.837zm-1.91848 0H10.232v-3.837H8.31352v3.837zm-3.83701-3.837c0 2.1191 1.71789 3.837 3.83701 3.837v-3.837H4.47651zm0-1.9185v1.9185h3.83701V21.743H4.47651zM15.348 23.6615h1.9185v-3.837H15.348v3.837zm1.9185 0V21.743h-3.837v1.9185h3.837zm0-1.9185H15.348v3.837h1.9185v-3.837zm-1.9185 0v1.9185h3.837V21.743h-3.837zm0 0v-3.837c-2.1191 0-3.837 1.7179-3.837 3.837h3.837zm0 1.9185V21.743h-3.837v1.9185h3.837zm0 0h-3.837c0 2.1191 1.7179 3.837 3.837 3.837v-3.837zm1.9185 0H15.348v3.837h1.9185v-3.837zm0 0v3.837c2.1192 0 3.8371-1.7179 3.8371-3.837h-3.8371zm0-1.9185v1.9185h3.8371V21.743h-3.8371zm0 0h3.8371c0-2.1191-1.7179-3.837-3.8371-3.837v3.837zm-1.9185 0h1.9185v-3.837H15.348v3.837zm8.9531-1.9185h-1.9185v3.837h1.9185v-3.837zm1.9185 3.837V21.743h-3.837v1.9185h3.837zm-3.837 1.9185h1.9185v-3.837h-1.9185v3.837zm-1.9185-3.837v1.9185h3.837V21.743h-3.837zm1.9185-3.837c-2.1192 0-3.8371 1.7179-3.8371 3.837h3.8371v-3.837zm1.9185 0h-1.9185v3.837h1.9185v-3.837zm3.837 3.837c0-2.1191-1.7179-3.837-3.837-3.837v3.837h3.837zm0 1.9185V21.743h-3.837v1.9185h3.837zm-3.837 3.837c2.1191 0 3.837-1.7179 3.837-3.837h-3.837v3.837zm-1.9185 0h1.9185v-3.837h-1.9185v3.837zm-3.8371-3.837c0 2.1191 1.7179 3.837 3.8371 3.837v-3.837h-3.8371zm0-1.9185v1.9185h3.8371V21.743h-3.8371zm10.8716 1.9185h1.9185v-3.837h-1.9185v3.837zm1.9185 0V21.743h-3.837v1.9185h3.837zm0-1.9185h-1.9185v3.837h1.9185v-3.837zm-1.9185 0v1.9185h3.837V21.743h-3.837zm0 0v-3.837c-2.1191 0-3.837 1.7179-3.837 3.837h3.837zm0 1.9185V21.743h-3.837v1.9185h3.837zm0 0h-3.837c0 2.1191 1.7179 3.837 3.837 3.837v-3.837zm1.9185 0h-1.9185v3.837h1.9185v-3.837zm0 0v3.837c2.1191 0 3.837-1.7179 3.837-3.837h-3.837zm0-1.9185v1.9185h3.837V21.743h-3.837zm0 0h3.837c0-2.1191-1.7179-3.837-3.837-3.837v3.837zm-1.9185 0h1.9185v-3.837h-1.9185v3.837zm2.558 5.7555h-1.9185v3.837h1.9185v-3.837zm1.9185 19.1851V29.417h-3.837v17.2666h3.837zm-3.837 1.9185h1.9185v-3.837h-1.9185v3.837zM28.1381 29.417v17.2666h3.837V29.417h-3.837zm1.9185-3.837c-2.1191 0-3.837 1.7179-3.837 3.837h3.837V25.58zm1.9185 0h-1.9185v3.837h1.9185V25.58zm3.837 3.837c0-2.1191-1.7179-3.837-3.837-3.837v3.837h3.837zm0 17.2666V29.417h-3.837v17.2666h3.837zm-3.837 3.837c2.1191 0 3.837-1.7179 3.837-3.837h-3.837v3.837zm-1.9185 0h1.9185v-3.837h-1.9185v3.837zm-3.837-3.837c0 2.1191 1.7179 3.837 3.837 3.837v-3.837h-3.837zm0-17.2666v17.2666h3.837V29.417h-3.837zM8.31352 31.3355H10.232v-3.837H8.31352v3.837zm1.91848 0V29.417H6.39502v1.9185H10.232zm0-1.9185H8.31352v3.8371H10.232V29.417zm-1.91848 0v1.9185h3.83698V29.417H8.31352zm0 0V25.58c-2.11912 0-3.83701 1.7179-3.83701 3.837h3.83701zm0 1.9185V29.417H4.47651v1.9185h3.83701zm0 0H4.47651c0 2.1192 1.71789 3.8371 3.83701 3.8371v-3.8371zm1.91848 0H8.31352v3.8371H10.232v-3.8371zm0 0v3.8371c2.1192 0 3.837-1.7179 3.837-3.8371h-3.837zm0-1.9185v1.9185h3.837V29.417h-3.837zm0 0h3.837c0-2.1191-1.7179-3.837-3.837-3.837v3.837zm-1.91848 0H10.232V25.58H8.31352v3.837zm8.95298-1.9185H15.348v3.837h1.9185v-3.837zm1.9185 3.837V29.417h-3.837v1.9185h3.837zm-3.837 1.9186h1.9185V29.417H15.348v3.8371zm-1.9185-3.8371v1.9185h3.837V29.417h-3.837zm1.9185-3.837c-2.1191 0-3.837 1.7179-3.837 3.837h3.837V25.58zm1.9185 0H15.348v3.837h1.9185V25.58zm3.8371 3.837c0-2.1191-1.7179-3.837-3.8371-3.837v3.837h3.8371zm0 1.9185V29.417h-3.8371v1.9185h3.8371zm-3.8371 3.8371c2.1192 0 3.8371-1.7179 3.8371-3.8371h-3.8371v3.8371zm-1.9185 0h1.9185v-3.8371H15.348v3.8371zm-3.837-3.8371c0 2.1192 1.7179 3.8371 3.837 3.8371v-3.8371h-3.837zm0-1.9185v1.9185h3.837V29.417h-3.837zm10.8716 1.9185h1.9185v-3.837h-1.9185v3.837zm1.9185 0V29.417h-3.837v1.9185h3.837zm0-1.9185h-1.9185v3.8371h1.9185V29.417zm-1.9185 0v1.9185h3.837V29.417h-3.837zm0 0V25.58c-2.1192 0-3.8371 1.7179-3.8371 3.837h3.8371zm0 1.9185V29.417h-3.8371v1.9185h3.8371zm0 0h-3.8371c0 2.1192 1.7179 3.8371 3.8371 3.8371v-3.8371zm1.9185 0h-1.9185v3.8371h1.9185v-3.8371zm0 0v3.8371c2.1191 0 3.837-1.7179 3.837-3.8371h-3.837zm0-1.9185v1.9185h3.837V29.417h-3.837zm0 0h3.837c0-2.1191-1.7179-3.837-3.837-3.837v3.837zm-1.9185 0h1.9185V25.58h-1.9185v3.837zM10.232 35.1726H8.31352v3.837H10.232v-3.837zm1.9185 3.837v-1.9185H8.31352v1.9185h3.83698zm-3.83698 1.9185H10.232v-3.837H8.31352v3.837zm-1.9185-3.837v1.9185H10.232v-1.9185H6.39502zm1.9185-3.8371c-2.11912 0-3.83701 1.7179-3.83701 3.8371h3.83701V33.254zm1.91848 0H8.31352v3.8371H10.232V33.254zm3.837 3.8371c0-2.1192-1.7179-3.8371-3.837-3.8371v3.8371h3.837zm0 1.9185v-1.9185h-3.837v1.9185h3.837zm-3.837 3.837c2.1192 0 3.837-1.7179 3.837-3.837h-3.837v3.837zm-1.91848 0H10.232v-3.837H8.31352v3.837zm-3.83701-3.837c0 2.1191 1.71789 3.837 3.83701 3.837v-3.837H4.47651zm0-1.9185v1.9185h3.83701v-1.9185H4.47651zM15.348 39.0096h1.9185v-3.837H15.348v3.837zm1.9185 0v-1.9185h-3.837v1.9185h3.837zm0-1.9185H15.348v3.837h1.9185v-3.837zm-1.9185 0v1.9185h3.837v-1.9185h-3.837zm0 0V33.254c-2.1191 0-3.837 1.7179-3.837 3.8371h3.837zm0 1.9185v-1.9185h-3.837v1.9185h3.837zm0 0h-3.837c0 2.1191 1.7179 3.837 3.837 3.837v-3.837zm1.9185 0H15.348v3.837h1.9185v-3.837zm0 0v3.837c2.1192 0 3.8371-1.7179 3.8371-3.837h-3.8371zm0-1.9185v1.9185h3.8371v-1.9185h-3.8371zm0 0h3.8371c0-2.1192-1.7179-3.8371-3.8371-3.8371v3.8371zm-1.9185 0h1.9185V33.254H15.348v3.8371zm8.9531-1.9185h-1.9185v3.837h1.9185v-3.837zm1.9185 3.837v-1.9185h-3.837v1.9185h3.837zm-3.837 1.9185h1.9185v-3.837h-1.9185v3.837zm-1.9185-3.837v1.9185h3.837v-1.9185h-3.837zm1.9185-3.8371c-2.1192 0-3.8371 1.7179-3.8371 3.8371h3.8371V33.254zm1.9185 0h-1.9185v3.8371h1.9185V33.254zm3.837 3.8371c0-2.1192-1.7179-3.8371-3.837-3.8371v3.8371h3.837zm0 1.9185v-1.9185h-3.837v1.9185h3.837zm-3.837 3.837c2.1191 0 3.837-1.7179 3.837-3.837h-3.837v3.837zm-1.9185 0h1.9185v-3.837h-1.9185v3.837zm-3.8371-3.837c0 2.1191 1.7179 3.837 3.8371 3.837v-3.837h-3.8371zm0-1.9185v1.9185h3.8371v-1.9185h-3.8371zM8.31352 46.6836H10.232v-3.837H8.31352v3.837zm1.91848 0v-1.9185H6.39502v1.9185H10.232zm0-1.9185H8.31352v3.837H10.232v-3.837zm-1.91848 0v1.9185h3.83698v-1.9185H8.31352zm0 0v-3.837c-2.11912 0-3.83701 1.7179-3.83701 3.837h3.83701zm0 1.9185v-1.9185H4.47651v1.9185h3.83701zm0 0H4.47651c0 2.1191 1.71789 3.837 3.83701 3.837v-3.837zm1.91848 0H8.31352v3.837H10.232v-3.837zm0 0v3.837c2.1192 0 3.837-1.7179 3.837-3.837h-3.837zm0-1.9185v1.9185h3.837v-1.9185h-3.837zm0 0h3.837c0-2.1191-1.7179-3.837-3.837-3.837v3.837zm-1.91848 0H10.232v-3.837H8.31352v3.837zm8.95298-1.9185H15.348v3.837h1.9185v-3.837zm1.9185 3.837v-1.9185h-3.837v1.9185h3.837zm-3.837 1.9185h1.9185v-3.837H15.348v3.837zm-1.9185-3.837v1.9185h3.837v-1.9185h-3.837zm1.9185-3.837c-2.1191 0-3.837 1.7179-3.837 3.837h3.837v-3.837zm1.9185 0H15.348v3.837h1.9185v-3.837zm3.8371 3.837c0-2.1191-1.7179-3.837-3.8371-3.837v3.837h3.8371zm0 1.9185v-1.9185h-3.8371v1.9185h3.8371zm-3.8371 3.837c2.1192 0 3.8371-1.7179 3.8371-3.837h-3.8371v3.837zm-1.9185 0h1.9185v-3.837H15.348v3.837zm-3.837-3.837c0 2.1191 1.7179 3.837 3.837 3.837v-3.837h-3.837zm0-1.9185v1.9185h3.837v-1.9185h-3.837zm10.8716 1.9185h1.9185v-3.837h-1.9185v3.837zm1.9185 0v-1.9185h-3.837v1.9185h3.837zm0-1.9185h-1.9185v3.837h1.9185v-3.837zm-1.9185 0v1.9185h3.837v-1.9185h-3.837zm0 0v-3.837c-2.1192 0-3.8371 1.7179-3.8371 3.837h3.8371zm0 1.9185v-1.9185h-3.8371v1.9185h3.8371zm0 0h-3.8371c0 2.1191 1.7179 3.837 3.8371 3.837v-3.837zm1.9185 0h-1.9185v3.837h1.9185v-3.837zm0 0v3.837c2.1191 0 3.837-1.7179 3.837-3.837h-3.837zm0-1.9185v1.9185h3.837v-1.9185h-3.837zm0 0h3.837c0-2.1191-1.7179-3.837-3.837-3.837v3.837zm-1.9185 0h1.9185v-3.837h-1.9185v3.837z" fill="#FF3636" fill-opacity=".5" mask="url(#b)"/></svg>