<svg fill="none" xmlns="http://www.w3.org/2000/svg" viewBox="0 0 100 100"><path d="M91.5 27.898h-3V24c0-1.899-1.602-3.5-3.5-3.5H8.5C6.602 20.5 5 22.1 5 24v44.602c0 1.898 1.602 3.5 3.5 3.5h3V76c0 1.898 1.602 3.5 3.5 3.5h76.5c1.898 0 3.5-1.602 3.5-3.5V31.398c0-2-1.602-3.5-3.5-3.5zm-83 41c-.102 0-.3-.102-.3-.3V23.998c0-.2.1-.3.3-.3H85c.102 0 .3.1.3.3v3.8H15c-1.899 0-3.5 1.602-3.5 3.5v37.5h-3v.099zM91.801 76c0 .199-.102.3-.3.3H15c-.2 0-.302-.101-.302-.3V31.398c0-.2.102-.301.301-.301h76.5c.2 0 .301.101.301.3V76z" fill="#000"/><path d="M79 50.199a7.603 7.603 0 00-1.398-1.102c-.602-.3-1.301-.601-2.301-1-1-.398-1.7-.8-2.102-1.199-.398-.398-.601-1-.601-1.601 0-.801.199-1.301.601-1.7.399-.398 1-.601 1.7-.601.8 0 1.3.3 1.8.8.399.602.7 1.301.7 2.301h2.8c0-1.5-.398-2.8-1.101-3.699-.7-1-1.801-1.5-3.102-1.699v-2.602L74 38.101v2.5c-1.3.2-2.398.602-3.2 1.5-.8.801-1.198 1.899-1.198 3.2 0 1.898.898 3.3 2.699 4.3.5.301 1.3.602 2.3 1 1 .301 1.7.7 2.102 1.2.399.398.602 1 .602 1.601 0 .7-.2 1.3-.7 1.7-.5.398-1.101.6-2 .6-.898 0-1.601-.3-2.101-.8s-.7-1.3-.7-2.3H69c0 1.5.398 2.8 1.2 3.699.8.898 2 1.5 3.6 1.699v2.3h1.9V58c1.398-.102 2.6-.602 3.398-1.399.8-.8 1.199-1.898 1.199-3.199 0-.7-.102-1.3-.301-1.8-.297-.5-.598-1-.996-1.403zM55.199 37.398H25c-.898 0-1.602.7-1.602 1.601 0 .899.7 1.602 1.602 1.602h30.301c.898 0 1.602-.7 1.602-1.602-.004-.898-.801-1.601-1.703-1.601h-.001zM55.199 52H25c-.898 0-1.602.7-1.602 1.602 0 .898.7 1.601 1.602 1.601h30.301c.898 0 1.602-.699 1.602-1.601C56.899 52.699 56.102 52 55.2 52h-.001zM25 47.898h24.398c.898 0 1.602-.7 1.602-1.602 0-.898-.7-1.601-1.602-1.601L25 44.699c-.898 0-1.602.699-1.602 1.601A1.58 1.58 0 0025 47.898zM47.898 63.102c-1.2.199-2-.2-2.7-.5-.6-.301-1.1-.5-1.699-.2-.601.301-.8 1-.898 1.602-.102.5-.3 1.102-.8 1.301-.602.2-1.602-.102-2.7-.898-.5-.399-1.102-.5-1.7-.301-1.1.5-1.8 2.3-2.3 4a68.213 68.213 0 01-.898-4.2c1.199-.5 2.101-.898 2.601-1.3.7-.602.7-1.102.602-1.5-.102-.399-.5-.899-1.5-1.102-.899-.199-2.602-.101-3.2.801-.1.2-.3.5-.199 2-.398.102-.699.3-1.101.398l-.2-1.398a.963.963 0 00-.898-.7c-.398.102-.7.5-.7.9l.302 1.6c-1.801.602-3.602 1.102-5.102 1.5-.3.102-.5.302-.602.7 0 .3.102.602.399.8l6.7 4c.3.2.6.102.898 0 .3-.198.398-.5.3-.8l-.8-5c.398-.102.699-.2 1.101-.398.301 1.601.801 4 1.7 7.5.101.398.398.601.8.601.399 0 .7-.3.7-.7.5-3.398 1.5-6.198 2.199-6.198 1.601 1.199 3.101 1.601 4.199 1.199.601-.3 1.5-.898 1.699-2.602 0-.101 0-.199.102-.3.101 0 .199.101.199.101.699.399 1.898.899 3.699.7.398-.102.7-.5.7-.9 0-.507-.403-.808-.903-.706zM27 66.2c.898-.301 2-.602 3.102-.899l.5 3L27 66.2zm7-4.399c.3-.2.898-.2 1.5-.2-.3.2-.8.4-1.398.7-.102-.2-.102-.402-.102-.5z" fill="#000"/><path opacity=".5" fill-rule="evenodd" clip-rule="evenodd" d="M93 17H4v59h7V28h82V17z" fill="#EEEFE9"/></svg>