<svg fill="none" viewBox="0 0 70 55"><mask id="a" fill="#fff"><path fill-rule="evenodd" d="M40.864 27.605a9.018 9.018 0 1112.855-12.42 9.018 9.018 0 1113.067 12.247L55.873 40.746a2.505 2.505 0 01-3.849.032l-11.16-13.173z" clip-rule="evenodd"/></mask><path fill="#FF3636" fill-opacity=".3" fill-rule="evenodd" d="M40.864 27.605a9.018 9.018 0 1112.855-12.42 9.018 9.018 0 1113.067 12.247L55.873 40.746a2.505 2.505 0 01-3.849.032l-11.16-13.173z" clip-rule="evenodd"/><path fill="#FF3636" fill-opacity=".7" d="M40.864 27.605l1.146-.972-.096-.114-.118-.093-.932 1.179zm12.854-12.42l-1.21.891 1.21 1.642 1.21-1.642-1.21-.891zm13.067 12.247l-.967-1.15-.107.09-.088.107 1.162.953zM55.874 40.746l1.162.953-1.162-.953zm-3.849.032l1.147-.972-1.147.972zM41.796 26.426a7.498 7.498 0 01-2.856-5.897h-3.006c0 3.347 1.565 6.33 3.997 8.254l1.865-2.357zm-2.856-5.897a7.515 7.515 0 017.514-7.515v-3.006c-5.81 0-10.52 4.71-10.52 10.52h3.006zm7.514-7.515a7.502 7.502 0 016.055 3.062l2.42-1.783a10.508 10.508 0 00-8.475-4.285v3.006zm8.474 3.062a7.502 7.502 0 016.055-3.062v-3.006a10.508 10.508 0 00-8.474 4.285l2.42 1.783zm6.055-3.062a7.515 7.515 0 017.514 7.515h3.006c0-5.81-4.71-10.52-10.52-10.52v3.005zm7.514 7.515a7.495 7.495 0 01-2.68 5.753l1.936 2.3a10.501 10.501 0 003.75-8.053h-3.006zm-2.874 5.95L54.71 39.795l2.325 1.905 10.912-13.316-2.325-1.905zM54.71 39.795a1.002 1.002 0 01-1.54.012l-2.293 1.943a4.008 4.008 0 006.158-.05l-2.325-1.905zm-1.54.012L42.01 26.633l-2.294 1.943L50.878 41.75l2.294-1.943z" mask="url(#a)"/><mask id="b" fill="#fff"><path fill-rule="evenodd" d="M0 1.919C0 .859.859 0 1.919 0H38.37c1.06 0 1.919.859 1.919 1.919v8.23a11.511 11.511 0 00-6.395 10.315 11.49 11.49 0 004.376 9.034l2.019 2.383v21.198c0 1.06-.86 1.918-1.919 1.918H1.92A1.918 1.918 0 010 53.08V1.919zm6.395 6.394c0-1.06.859-1.918 1.919-1.918h23.661c1.06 0 1.919.859 1.919 1.918v7.035a1.92 1.92 0 01-1.919 1.919H8.314a1.918 1.918 0 01-1.919-1.919V8.313zm1.919 13.43h1.918v1.919H8.314v-1.919zm-1.919 0c0-1.06.859-1.919 1.919-1.919h1.918c1.06 0 1.919.86 1.919 1.919v1.919c0 1.06-.86 1.918-1.919 1.918H8.314a1.918 1.918 0 01-1.919-1.918v-1.919zm10.872 0h-1.919v1.919h1.919v-1.919zm-1.919-1.919a1.92 1.92 0 00-1.919 1.919v1.919c0 1.06.86 1.918 1.919 1.918h1.919c1.06 0 1.918-.859 1.918-1.918v-1.919c0-1.06-.859-1.919-1.918-1.919h-1.919zm7.035 1.919H24.3v1.919h-1.918v-1.919zm-1.919 0c0-1.06.859-1.919 1.919-1.919H24.3c1.06 0 1.919.86 1.919 1.919v1.919c0 1.06-.86 1.918-1.919 1.918h-1.918a1.918 1.918 0 01-1.919-1.918v-1.919zm10.872 0h-1.919v1.919h1.919v-1.919zm-1.919-1.919c-1.06 0-1.918.86-1.918 1.919v1.919c0 1.06.858 1.918 1.918 1.918h1.919c1.06 0 1.918-.859 1.918-1.918v-1.919c0-1.06-.859-1.919-1.918-1.919h-1.919zm.64 9.593h1.918v17.267h-1.918V29.417zm-1.919 0c0-1.06.859-1.919 1.919-1.919h1.918c1.06 0 1.919.86 1.919 1.919v17.267c0 1.06-.86 1.918-1.919 1.918h-1.918a1.919 1.919 0 01-1.919-1.918V29.417zm-17.906 0H8.314v1.918h1.918v-1.918zm-1.918-1.919a1.92 1.92 0 00-1.919 1.919v1.918c0 1.06.859 1.92 1.919 1.92h1.918a1.92 1.92 0 001.919-1.92v-1.918a1.92 1.92 0 00-1.919-1.919H8.314zm7.034 1.919h1.919v1.919h-1.919v-1.919zm-1.919 0c0-1.06.86-1.919 1.919-1.919h1.919c1.06 0 1.918.86 1.918 1.919v1.919c0 1.06-.859 1.918-1.918 1.918h-1.919a1.919 1.919 0 01-1.919-1.918v-1.919zm10.872 0h-1.918v1.919H24.3v-1.919zm-1.918-1.919a1.92 1.92 0 00-1.919 1.919v1.919c0 1.06.859 1.918 1.919 1.918H24.3c1.06 0 1.919-.859 1.919-1.918v-1.919a1.92 1.92 0 00-1.919-1.919h-1.918zm-14.07 9.593h1.919v1.919H8.314v-1.92zm-1.918 0c0-1.06.859-1.918 1.919-1.918h1.918c1.06 0 1.919.858 1.919 1.918v1.919c0 1.06-.86 1.918-1.919 1.918H8.314a1.919 1.919 0 01-1.919-1.918v-1.92zm10.872 0h-1.919v1.919h1.919v-1.92zm-1.919-1.918c-1.06 0-1.919.858-1.919 1.918v1.919c0 1.06.86 1.918 1.919 1.918h1.919c1.06 0 1.918-.859 1.918-1.918v-1.92c0-1.06-.859-1.918-1.918-1.918h-1.919zm7.035 1.918H24.3v1.919h-1.918v-1.92zm-1.919 0c0-1.06.859-1.918 1.919-1.918H24.3c1.06 0 1.919.858 1.919 1.918v1.919c0 1.06-.86 1.918-1.919 1.918h-1.918a1.919 1.919 0 01-1.919-1.918v-1.92zm-10.232 7.674H8.314v1.919h1.918v-1.919zm-1.918-1.918c-1.06 0-1.919.858-1.919 1.918v1.919c0 1.06.859 1.918 1.919 1.918h1.918c1.06 0 1.919-.859 1.919-1.918v-1.919c0-1.06-.86-1.918-1.919-1.918H8.314zm7.034 1.918h1.918v1.919h-1.918v-1.919zm-1.919 0c0-1.06.86-1.918 1.919-1.918h1.918c1.06 0 1.92.858 1.92 1.918v1.919c0 1.06-.86 1.918-1.92 1.918h-1.918a1.919 1.919 0 01-1.919-1.918v-1.919zm10.872 0h-1.918v1.919H24.3v-1.919zm-1.918-1.918c-1.06 0-1.919.858-1.919 1.918v1.919c0 1.06.859 1.918 1.919 1.918H24.3c1.06 0 1.919-.859 1.919-1.918v-1.919c0-1.06-.86-1.918-1.919-1.918h-1.918z" clip-rule="evenodd"/></mask><path fill="#FF3636" fill-opacity=".2" fill-rule="evenodd" d="M0 1.919C0 .859.859 0 1.919 0H38.37c1.06 0 1.919.859 1.919 1.919v8.23a11.511 11.511 0 00-6.395 10.315 11.49 11.49 0 004.376 9.034l2.019 2.383v21.198c0 1.06-.86 1.918-1.919 1.918H1.92A1.918 1.918 0 010 53.08V1.919zm6.395 6.394c0-1.06.859-1.918 1.919-1.918h23.661c1.06 0 1.919.859 1.919 1.918v7.035a1.92 1.92 0 01-1.919 1.919H8.314a1.918 1.918 0 01-1.919-1.919V8.313zm1.919 13.43h1.918v1.919H8.314v-1.919zm-1.919 0c0-1.06.859-1.919 1.919-1.919h1.918c1.06 0 1.919.86 1.919 1.919v1.919c0 1.06-.86 1.918-1.919 1.918H8.314a1.918 1.918 0 01-1.919-1.918v-1.919zm10.872 0h-1.919v1.919h1.919v-1.919zm-1.919-1.919a1.92 1.92 0 00-1.919 1.919v1.919c0 1.06.86 1.918 1.919 1.918h1.919c1.06 0 1.918-.859 1.918-1.918v-1.919c0-1.06-.859-1.919-1.918-1.919h-1.919zm7.035 1.919H24.3v1.919h-1.918v-1.919zm-1.919 0c0-1.06.859-1.919 1.919-1.919H24.3c1.06 0 1.919.86 1.919 1.919v1.919c0 1.06-.86 1.918-1.919 1.918h-1.918a1.918 1.918 0 01-1.919-1.918v-1.919zm10.872 0h-1.919v1.919h1.919v-1.919zm-1.919-1.919c-1.06 0-1.918.86-1.918 1.919v1.919c0 1.06.858 1.918 1.918 1.918h1.919c1.06 0 1.918-.859 1.918-1.918v-1.919c0-1.06-.859-1.919-1.918-1.919h-1.919zm.64 9.593h1.918v17.267h-1.918V29.417zm-1.919 0c0-1.06.859-1.919 1.919-1.919h1.918c1.06 0 1.919.86 1.919 1.919v17.267c0 1.06-.86 1.918-1.919 1.918h-1.918a1.919 1.919 0 01-1.919-1.918V29.417zm-17.906 0H8.314v1.918h1.918v-1.918zm-1.918-1.919a1.92 1.92 0 00-1.919 1.919v1.918c0 1.06.859 1.92 1.919 1.92h1.918a1.92 1.92 0 001.919-1.92v-1.918a1.92 1.92 0 00-1.919-1.919H8.314zm7.034 1.919h1.919v1.919h-1.919v-1.919zm-1.919 0c0-1.06.86-1.919 1.919-1.919h1.919c1.06 0 1.918.86 1.918 1.919v1.919c0 1.06-.859 1.918-1.918 1.918h-1.919a1.919 1.919 0 01-1.919-1.918v-1.919zm10.872 0h-1.918v1.919H24.3v-1.919zm-1.918-1.919a1.92 1.92 0 00-1.919 1.919v1.919c0 1.06.859 1.918 1.919 1.918H24.3c1.06 0 1.919-.859 1.919-1.918v-1.919a1.92 1.92 0 00-1.919-1.919h-1.918zm-14.07 9.593h1.919v1.919H8.314v-1.92zm-1.918 0c0-1.06.859-1.918 1.919-1.918h1.918c1.06 0 1.919.858 1.919 1.918v1.919c0 1.06-.86 1.918-1.919 1.918H8.314a1.919 1.919 0 01-1.919-1.918v-1.92zm10.872 0h-1.919v1.919h1.919v-1.92zm-1.919-1.918c-1.06 0-1.919.858-1.919 1.918v1.919c0 1.06.86 1.918 1.919 1.918h1.919c1.06 0 1.918-.859 1.918-1.918v-1.92c0-1.06-.859-1.918-1.918-1.918h-1.919zm7.035 1.918H24.3v1.919h-1.918v-1.92zm-1.919 0c0-1.06.859-1.918 1.919-1.918H24.3c1.06 0 1.919.858 1.919 1.918v1.919c0 1.06-.86 1.918-1.919 1.918h-1.918a1.919 1.919 0 01-1.919-1.918v-1.92zm-10.232 7.674H8.314v1.919h1.918v-1.919zm-1.918-1.918c-1.06 0-1.919.858-1.919 1.918v1.919c0 1.06.859 1.918 1.919 1.918h1.918c1.06 0 1.919-.859 1.919-1.918v-1.919c0-1.06-.86-1.918-1.919-1.918H8.314zm7.034 1.918h1.918v1.919h-1.918v-1.919zm-1.919 0c0-1.06.86-1.918 1.919-1.918h1.918c1.06 0 1.92.858 1.92 1.918v1.919c0 1.06-.86 1.918-1.92 1.918h-1.918a1.919 1.919 0 01-1.919-1.918v-1.919zm10.872 0h-1.918v1.919H24.3v-1.919zm-1.918-1.918c-1.06 0-1.919.858-1.919 1.918v1.919c0 1.06.859 1.918 1.919 1.918H24.3c1.06 0 1.919-.859 1.919-1.918v-1.919c0-1.06-.86-1.918-1.919-1.918h-1.918z" clip-rule="evenodd"/><path fill="#FF3636" fill-opacity=".5" d="M40.289 10.15l.853 1.718 1.065-.53V10.15H40.29zm-2.02 19.348l1.465-1.24-.124-.146-.15-.119-1.19 1.505zm2.02 2.383h1.918v-.704l-.455-.537-1.463 1.24zM10.232 21.743h1.919v-1.919h-1.919v1.919zm-1.918 0v-1.919H6.395v1.919h1.919zm1.918 1.919v1.918h1.919v-1.919h-1.919zm-1.918 0H6.395v1.918h1.919v-1.919zm7.034-1.919v-1.919h-1.919v1.919h1.919zm1.919 0h1.918v-1.919h-1.918v1.919zm-1.919 1.919h-1.919v1.918h1.919v-1.919zm1.919 0v1.918h1.918v-1.919h-1.918zm7.034-1.919h1.919v-1.919H24.3v1.919zm-1.918 0v-1.919h-1.919v1.919h1.919zm1.918 1.919v1.918h1.919v-1.919H24.3zm-1.918 0h-1.919v1.918h1.919v-1.919zm7.034-1.919v-1.919H27.5v1.919h1.918zm1.919 0h1.918v-1.919h-1.918v1.919zm-1.919 1.919H27.5v1.918h1.918v-1.919zm1.919 0v1.918h1.918v-1.919h-1.918zm.64 5.755h1.918v-1.919h-1.919v1.919zm-1.92 0v-1.919h-1.918v1.919h1.919zm1.92 17.267v1.918h1.918v-1.918h-1.919zm-1.92 0h-1.918v1.918h1.919v-1.918zM8.315 29.417v-1.919h-1.92v1.919h1.919zm1.918 0h1.919v-1.919h-1.919v1.919zm-1.918 1.919h-1.92v1.918h1.919v-1.918zm1.918 0v1.918h1.919v-1.918h-1.919zm7.035-1.919h1.918v-1.919h-1.918v1.919zm-1.919 0v-1.919H13.43v1.919h1.919zm1.919 1.919v1.918h1.918v-1.918h-1.918zm-1.919 0H13.43v1.918h1.919v-1.918zm7.035-1.919v-1.919h-1.919v1.919h1.919zm1.918 0h1.919v-1.919H24.3v1.919zm-1.918 1.919h-1.919v1.918h1.919v-1.918zm1.918 0v1.918h1.919v-1.918H24.3zm-14.07 5.754h1.919v-1.918h-1.919v1.918zm-1.918 0v-1.918H6.395v1.918h1.919zm1.918 1.919v1.918h1.919V39.01h-1.919zm-1.918 0H6.395v1.918h1.919V39.01zm7.034-1.919v-1.918h-1.919v1.918h1.919zm1.918 0h1.919v-1.918h-1.918v1.918zm-1.918 1.919h-1.919v1.918h1.919V39.01zm1.919 0v1.918h1.918V39.01h-1.918zM24.3 37.09h1.919v-1.918H24.3v1.918zm-1.918 0v-1.918h-1.919v1.918h1.919zm1.918 1.92v1.918h1.919V39.01H24.3zm-1.918 0h-1.919v1.918h1.919V39.01zm-14.07 5.755v-1.918H6.396v1.918h1.919zm1.919 0h1.919v-1.918h-1.919v1.918zm-1.918 1.919H6.395v1.918h1.919v-1.918zm1.918 0v1.918h1.919v-1.918h-1.919zm7.035-1.919h1.918v-1.918h-1.918v1.918zm-1.919 0v-1.918h-1.919v1.918h1.919zm1.919 1.919v1.918h1.918v-1.918h-1.918zm-1.919 0h-1.919v1.918h1.919v-1.918zm7.035-1.919v-1.918h-1.919v1.918h1.919zm1.918 0h1.919v-1.918H24.3v1.918zm-1.918 1.919h-1.919v1.918h1.919v-1.918zm1.918 0v1.918h1.919v-1.918H24.3zM1.92-1.92a3.837 3.837 0 00-3.84 3.84h3.84v-3.84zm36.451 0H1.92v3.84h36.45v-3.84zm3.837 3.838A3.837 3.837 0 0038.37-1.92v3.84h3.837zm0 8.23V1.92H38.37v8.23h3.837zM39.436 8.43c-4.417 2.196-7.46 6.757-7.46 12.033h3.837a9.593 9.593 0 015.33-8.596L39.435 8.43zm-7.46 12.033a13.41 13.41 0 005.105 10.539l2.38-3.01a9.572 9.572 0 01-3.648-7.529h-3.837zm4.831 10.274l2.019 2.383 2.927-2.48-2.018-2.383-2.928 2.48zm5.401 22.34V31.882H38.37V53.08h3.837zm-3.837 3.838a3.837 3.837 0 003.837-3.837H38.37v3.837zm-36.451 0h36.45v-3.837H1.92v3.837zm-3.838-3.837a3.837 3.837 0 003.838 3.837v-3.837h-3.84zm0-51.16v51.16H1.92V1.919h-3.84zM8.314 4.476a3.837 3.837 0 00-3.837 3.837h3.837V4.476zm23.661 0H8.314v3.837h23.661V4.476zm3.837 3.837a3.837 3.837 0 00-3.837-3.837v3.837h3.837zm0 7.035V8.313h-3.837v7.035h3.837zm-3.837 3.837a3.837 3.837 0 003.837-3.837h-3.837v3.837zm-23.661 0h23.661v-3.837H8.314v3.837zm-3.837-3.837a3.837 3.837 0 003.837 3.837v-3.837H4.477zm0-7.035v7.035h3.837V8.313H4.477zm5.755 11.511H8.314v3.837h1.918v-3.837zm1.919 3.837v-1.918H8.313v1.919h3.837zM8.313 25.58h1.918v-3.837H8.314v3.837zm-1.919-3.837v1.919h3.837v-1.919H6.395zm1.919-3.837a3.837 3.837 0 00-3.837 3.837h3.837v-3.837zm1.918 0H8.314v3.837h1.918v-3.837zm3.837 3.837a3.837 3.837 0 00-3.837-3.837v3.837h3.837zm0 1.919v-1.919h-3.837v1.919h3.837zm-3.837 3.837a3.837 3.837 0 003.837-3.837h-3.837v3.837zm-1.918 0h1.918v-3.837H8.314v3.837zm-3.837-3.837a3.837 3.837 0 003.837 3.837v-3.837H4.477zm0-1.919v1.919h3.837v-1.919H4.477zm10.871 1.919h1.919v-3.837h-1.919v3.837zm1.919 0v-1.919H13.43v1.919h3.837zm0-1.919h-1.919v3.837h1.919v-3.837zm-1.919 0v1.919h3.837v-1.919h-3.837zm0 0v-3.837a3.837 3.837 0 00-3.837 3.837h3.837zm0 1.919v-1.919H11.51v1.919h3.837zm0 0H11.51a3.837 3.837 0 003.837 3.837v-3.837zm1.919 0h-1.919v3.837h1.919v-3.837zm0 0v3.837a3.837 3.837 0 003.837-3.837h-3.837zm0-1.919v1.919h3.837v-1.919h-3.837zm0 0h3.837a3.837 3.837 0 00-3.837-3.837v3.837zm-1.919 0h1.919v-3.837h-1.919v3.837zm8.953-1.919h-1.918v3.837H24.3v-3.837zm1.919 3.837v-1.918h-3.837v1.919h3.837zm-3.837 1.919H24.3v-3.837h-1.918v3.837zm-1.919-3.837v1.919H24.3v-1.919h-3.837zm1.919-3.837a3.837 3.837 0 00-3.837 3.837h3.837v-3.837zm1.918 0h-1.918v3.837H24.3v-3.837zm3.837 3.837a3.837 3.837 0 00-3.837-3.837v3.837h3.837zm0 1.919v-1.919H24.3v1.919h3.837zM24.3 27.499a3.837 3.837 0 003.837-3.837H24.3v3.837zm-1.918 0H24.3v-3.837h-1.918v3.837zm-3.837-3.837a3.837 3.837 0 003.837 3.837v-3.837h-3.837zm0-1.919v1.919h3.837v-1.919h-3.837zm10.871 1.919h1.919v-3.837h-1.919v3.837zm1.919 0v-1.919h-3.837v1.919h3.837zm0-1.919h-1.919v3.837h1.919v-3.837zm-1.919 0v1.919h3.837v-1.919h-3.837zm0 0v-3.837a3.837 3.837 0 00-3.837 3.837h3.837zm0 1.919v-1.919H25.58v1.919h3.837zm0 0H25.58a3.837 3.837 0 003.837 3.837v-3.837zm1.919 0h-1.919v3.837h1.919v-3.837zm0 0v3.837a3.837 3.837 0 003.837-3.837h-3.837zm0-1.919v1.919h3.837v-1.919h-3.837zm0 0h3.837a3.837 3.837 0 00-3.837-3.837v3.837zm-1.919 0h1.919v-3.837h-1.919v3.837zm2.558 5.755h-1.918v3.837h1.918v-3.837zm1.919 19.186V29.417h-3.837v17.267h3.837zm-3.837 1.918h1.918v-3.837h-1.918v3.837zm-1.919-19.185v17.267h3.837V29.417h-3.837zm1.919-3.837a3.837 3.837 0 00-3.837 3.837h3.837V25.58zm1.918 0h-1.918v3.837h1.918V25.58zm3.837 3.837a3.837 3.837 0 00-3.837-3.837v3.837h3.837zm0 17.267V29.417h-3.837v17.267h3.837zm-3.837 3.837a3.837 3.837 0 003.837-3.837h-3.837v3.837zm-1.918 0h1.918v-3.837h-1.918v3.837zm-3.837-3.837a3.837 3.837 0 003.837 3.837v-3.837H26.22zm0-17.267v17.267h3.837V29.417H26.22zM8.314 31.335h1.918v-3.837H8.314v3.837zm1.918 0v-1.918H6.395v1.919h3.837zm0-1.918H8.314v3.837h1.918v-3.837zm-1.918 0v1.918h3.837v-1.918H8.314zm0 0V25.58a3.837 3.837 0 00-3.837 3.837h3.837zm0 1.918v-1.918H4.477v1.919h3.837zm0 0H4.477a3.837 3.837 0 003.837 3.838v-3.837zm1.918 0H8.314v3.838h1.918v-3.837zm0 0v3.838a3.837 3.837 0 003.837-3.837h-3.837zm0-1.918v1.918h3.837v-1.918h-3.837zm0 0h3.837a3.837 3.837 0 00-3.837-3.837v3.837zm-1.918 0h1.918V25.58H8.314v3.837zm8.953-1.919h-1.919v3.837h1.919v-3.837zm1.918 3.837v-1.918h-3.837v1.919h3.837zm-3.837 1.92h1.919v-3.838h-1.919v3.837zm-1.918-3.838v1.918h3.837v-1.918H13.43zm1.918-3.837a3.837 3.837 0 00-3.837 3.837h3.837V25.58zm1.919 0h-1.919v3.837h1.919V25.58zm3.837 3.837a3.837 3.837 0 00-3.837-3.837v3.837h3.837zm0 1.918v-1.918h-3.837v1.919h3.837zm-3.837 3.838a3.837 3.837 0 003.837-3.838h-3.837v3.838zm-1.919 0h1.919v-3.838h-1.919v3.838zm-3.837-3.838a3.837 3.837 0 003.837 3.838v-3.838h-3.837zm0-1.918v1.918h3.837v-1.918h-3.837zm10.872 1.918H24.3v-3.837h-1.918v3.837zm1.918 0v-1.918h-3.837v1.919h3.837zm0-1.918h-1.918v3.837H24.3v-3.837zm-1.918 0v1.918h3.837v-1.918h-3.837zm0 0V25.58a3.837 3.837 0 00-3.837 3.837h3.837zm0 1.918v-1.918h-3.837v1.919h3.837zm0 0h-3.837a3.837 3.837 0 003.837 3.838v-3.838zm1.918 0h-1.918v3.838H24.3v-3.838zm0 0v3.838a3.837 3.837 0 003.837-3.838h-3.837zm0-1.918v1.918h3.837v-1.918h-3.837zm0 0h3.837a3.837 3.837 0 00-3.837-3.837v3.837zm-1.918 0H24.3V25.58h-1.918v3.837zm-12.151 5.756H8.314v3.837h1.918v-3.837zm1.919 3.837v-1.92H8.313v1.919h3.837zm-3.837 1.918h1.918v-3.837H8.314v3.837zm-1.919-3.837v1.919h3.837v-1.92H6.395zm1.919-3.837a3.837 3.837 0 00-3.837 3.837h3.837v-3.837zm1.918 0H8.314v3.837h1.918v-3.837zm3.837 3.837a3.837 3.837 0 00-3.837-3.837v3.837h3.837zm0 1.919v-1.92h-3.837v1.919h3.837zm-3.837 3.837a3.837 3.837 0 003.837-3.837h-3.837v3.837zm-1.918 0h1.918V39.01H8.314v3.837zM4.477 39.01a3.837 3.837 0 003.837 3.837V39.01H4.477zm0-1.919v1.919h3.837v-1.92H4.477zm10.871 1.919h1.919v-3.837h-1.919v3.837zm1.919 0v-1.92H13.43v1.919h3.837zm0-1.919h-1.919v3.837h1.919v-3.837zm-1.919 0v1.919h3.837v-1.92h-3.837zm0 0v-3.837a3.837 3.837 0 00-3.837 3.837h3.837zm0 1.919v-1.92h-3.837v1.919h3.837zm0 0h-3.837a3.837 3.837 0 003.837 3.837V39.01zm1.919 0h-1.919v3.837h1.919V39.01zm0 0v3.837a3.837 3.837 0 003.837-3.837h-3.837zm0-1.919v1.919h3.837v-1.92h-3.837zm0 0h3.837a3.837 3.837 0 00-3.837-3.837v3.837zm-1.919 0h1.919v-3.837h-1.919v3.837zm8.953-1.918h-1.918v3.837H24.3v-3.837zm1.919 3.837v-1.92h-3.837v1.919h3.837zm-3.837 1.918H24.3v-3.837h-1.918v3.837zm-1.919-3.837v1.919h3.837v-1.92h-3.837zm1.919-3.837a3.837 3.837 0 00-3.837 3.837h3.837v-3.837zm1.918 0h-1.918v3.837H24.3v-3.837zm3.837 3.837a3.837 3.837 0 00-3.837-3.837v3.837h3.837zm0 1.919v-1.92h-3.837v1.919h3.837zm-3.837 3.837a3.837 3.837 0 003.837-3.837h-3.837v3.837zm-1.918 0H24.3V39.01h-1.918v3.837zm-3.837-3.837a3.837 3.837 0 003.837 3.837V39.01h-3.837zm0-1.919v1.919h3.837v-1.92h-3.837zM8.314 46.684h1.918v-3.837H8.314v3.837zm1.918 0v-1.919H6.395v1.919h3.837zm0-1.919H8.314v3.837h1.918v-3.837zm-1.918 0v1.919h3.837v-1.919H8.314zm0 0v-3.837a3.837 3.837 0 00-3.837 3.837h3.837zm0 1.919v-1.919H4.477v1.919h3.837zm0 0H4.477a3.837 3.837 0 003.837 3.837v-3.837zm1.918 0H8.314v3.837h1.918v-3.837zm0 0v3.837a3.837 3.837 0 003.837-3.837h-3.837zm0-1.919v1.919h3.837v-1.919h-3.837zm0 0h3.837a3.837 3.837 0 00-3.837-3.837v3.837zm-1.918 0h1.918v-3.837H8.314v3.837zm8.953-1.918h-1.919v3.837h1.919v-3.837zm1.918 3.837v-1.919h-3.837v1.919h3.837zm-3.837 1.918h1.919v-3.837h-1.919v3.837zm-1.918-3.837v1.919h3.837v-1.919H13.43zm1.918-3.837a3.837 3.837 0 00-3.837 3.837h3.837v-3.837zm1.919 0h-1.919v3.837h1.919v-3.837zm3.837 3.837a3.837 3.837 0 00-3.837-3.837v3.837h3.837zm0 1.919v-1.919h-3.837v1.919h3.837zm-3.837 3.837a3.837 3.837 0 003.837-3.837h-3.837v3.837zm-1.919 0h1.919v-3.837h-1.919v3.837zm-3.837-3.837a3.837 3.837 0 003.837 3.837v-3.837h-3.837zm0-1.919v1.919h3.837v-1.919h-3.837zm10.872 1.919H24.3v-3.837h-1.918v3.837zm1.918 0v-1.919h-3.837v1.919h3.837zm0-1.919h-1.918v3.837H24.3v-3.837zm-1.918 0v1.919h3.837v-1.919h-3.837zm0 0v-3.837a3.837 3.837 0 00-3.837 3.837h3.837zm0 1.919v-1.919h-3.837v1.919h3.837zm0 0h-3.837a3.837 3.837 0 003.837 3.837v-3.837zm1.918 0h-1.918v3.837H24.3v-3.837zm0 0v3.837a3.837 3.837 0 003.837-3.837h-3.837zm0-1.919v1.919h3.837v-1.919h-3.837zm0 0h3.837a3.837 3.837 0 00-3.837-3.837v3.837zm-1.918 0H24.3v-3.837h-1.918v3.837z" mask="url(#b)"/></svg>