<svg fill="none" viewBox="0 0 57 76"><mask id="a" fill="#fff"><path fill-rule="evenodd" d="M13.563 12.578c6.219-10.77 19.991-14.461 30.762-8.243 10.77 6.219 14.461 19.991 8.243 30.762-5.316 9.207-16.152 13.24-25.914 10.333L9.689 74.815a1.85 1.85 0 01-2.528.677L1.283 72.1a1.85 1.85 0 01-.677-2.529L17.57 40.186c-7.399-7-9.323-18.4-4.008-27.608zm27.369-2.365c-7.525-4.345-17.147-1.767-21.491 5.758-3.827 6.629-2.282 14.885 3.284 19.727a11.793 11.793 0 0110.735-6.907A11.79 11.79 0 0143.953 35.2a15.742 15.742 0 002.738-3.496c4.344-7.525 1.766-17.147-5.759-21.491zm-1.577 10.226a6.387 6.387 0 11-12.773 0 6.387 6.387 0 0112.773 0zM33.46 52.373h-.062.124-.062z" clip-rule="evenodd"/></mask><path fill="#FFC102" fill-opacity=".4" fill-rule="evenodd" d="M13.563 12.578c6.219-10.77 19.991-14.461 30.762-8.243 10.77 6.219 14.461 19.991 8.243 30.762-5.316 9.207-16.152 13.24-25.914 10.333L9.689 74.815a1.85 1.85 0 01-2.528.677L1.283 72.1a1.85 1.85 0 01-.677-2.529L17.57 40.186c-7.399-7-9.323-18.4-4.008-27.608zm27.369-2.365c-7.525-4.345-17.147-1.767-21.491 5.758-3.827 6.629-2.282 14.885 3.284 19.727a11.793 11.793 0 0110.735-6.907A11.79 11.79 0 0143.953 35.2a15.742 15.742 0 002.738-3.496c4.344-7.525 1.766-17.147-5.759-21.491zm-1.577 10.226a6.387 6.387 0 11-12.773 0 6.387 6.387 0 0112.773 0zM33.46 52.373h-.062.124-.062z" clip-rule="evenodd"/><path fill="#FFC102" fill-opacity=".4" d="M44.325 4.335L43.4 5.938l.925-1.603zm-30.762 8.243l-1.603-.925 1.603.925zm39.005 22.52l-1.603-.926 1.603.925zM26.654 45.43l.528-1.774-1.4-.417-.731 1.266 1.603.925zM9.689 74.815l-1.603-.926 1.603.926zm-2.528.677l-.926 1.603.926-1.603zM1.283 72.1l.926-1.603-.926 1.603zm-.677-2.53l1.603.926-1.603-.926zM17.57 40.186l1.603.925.73-1.265-1.061-1.004-1.272 1.344zm1.87-24.215l1.603.926-1.603-.926zm21.491-5.758l-.925 1.603.925-1.603zM22.725 35.698l-1.215 1.396 1.87 1.628 1.03-2.256-1.685-.768zm21.228-.498l-1.646.846 1.135 2.209 1.793-1.72-1.282-1.335zm2.738-3.496l-1.603-.926 1.603.926zM33.398 52.373v-1.851l-.005 3.702.005-1.851zm.062 0l-.005 1.85h.01l-.005-1.85zm.062 0l.004 1.85-.004-3.701v1.85zM45.25 2.733c-11.657-6.73-26.561-2.736-33.29 8.92l3.205 1.85C20.873 3.618 33.514.231 43.4 5.938l1.85-3.205zm8.92 33.29c6.73-11.656 2.736-26.56-8.92-33.29L43.4 5.938c9.885 5.708 13.272 18.348 7.565 28.234l3.206 1.85zM26.126 47.204c10.564 3.147 22.29-1.215 28.045-11.181l-3.206-1.851c-4.878 8.448-14.823 12.153-23.783 9.484l-1.056 3.548zM11.292 75.74l16.965-29.384-3.206-1.851L8.086 73.889l3.206 1.851zm-5.057 1.355a3.702 3.702 0 005.057-1.355l-3.206-1.85-1.85 3.205zM.358 73.702l5.877 3.393 1.851-3.206-5.877-3.393-1.851 3.206zm-1.355-5.057a3.702 3.702 0 001.355 5.057l1.85-3.206-3.205-1.851zM15.968 39.26L-.997 68.644l3.206 1.85L19.174 41.11l-3.206-1.85zM11.96 11.652C6.207 21.618 8.292 33.954 16.3 41.53l2.544-2.689c-6.79-6.425-8.554-16.89-3.677-25.337l-3.206-1.851zm9.084 5.244c3.833-6.64 12.323-8.915 18.963-5.081l1.85-3.206c-8.41-4.856-19.163-1.974-24.02 6.436l3.207 1.85zm2.896 17.405c-4.91-4.272-6.272-11.558-2.896-17.405l-3.206-1.851c-4.278 7.41-2.55 16.636 3.672 22.048l2.43-2.792zm.47 2.164a9.942 9.942 0 019.05-5.824V26.94c-5.522 0-10.273 3.28-12.42 7.99l3.37 1.536zm9.05-5.824a9.94 9.94 0 018.847 5.404l3.293-1.692c-2.26-4.398-6.847-7.414-12.14-7.414v3.702zm11.628.136a13.888 13.888 0 01-2.416 3.086l2.563 2.672a17.592 17.592 0 003.059-3.907l-3.206-1.85zm-5.081-18.962c6.64 3.833 8.914 12.323 5.08 18.962l3.207 1.851c4.855-8.41 1.974-19.164-6.436-24.02l-1.851 3.207zm-7.038 16.86a8.238 8.238 0 008.237-8.237h-3.701a4.536 4.536 0 01-4.536 4.536v3.702zM24.73 20.44a8.238 8.238 0 008.238 8.238v-3.702a4.536 4.536 0 01-4.536-4.536H24.73zm8.238-8.237a8.238 8.238 0 00-8.238 8.237h3.702a4.536 4.536 0 014.536-4.536v-3.701zm8.237 8.237a8.238 8.238 0 00-8.237-8.237v3.701a4.536 4.536 0 014.536 4.536h3.701zm-7.813 33.785h.062l.01-3.702h-.062l-.01 3.702zm.129-3.702h-.124v3.702h.124v-3.702zm-.057 3.702h.061l-.01-3.702h-.06l.009 3.702z" mask="url(#a)"/><rect width="33.05" height="33.05" x="27.017" y="1.264" stroke="#FFC102" stroke-opacity=".4" stroke-width="1.851" rx="16.525" transform="rotate(30 27.017 1.264)"/></svg>