<svg xmlns="http://www.w3.org/2000/svg" width="57" height="76" fill="none" viewBox="0 0 57 76"><mask id="a" fill="#fff"><path fill-rule="evenodd" d="M13.5632 12.5781C19.7817 1.80729 33.5543-1.88305 44.325 4.33546 55.0958 10.554 58.7862 24.3265 52.5676 35.0973c-5.3157 9.2072-16.1516 13.2405-25.9136 10.333L9.68893 74.8146c-.51111.8853-1.6431 1.1886-2.52837.6775l-5.87738-3.3933c-.885269-.5111-1.188586-1.6431-.677478-2.5284L17.5708 40.1859c-7.3985-7.0005-9.32327-18.4008-4.0076-27.6078zm27.3688-2.3654c-7.5248-4.34448-17.1467-1.76629-21.4911 5.7585-3.8271 6.6287-2.2822 14.8847 3.2839 19.7269 1.8567-4.0746 5.9651-6.907 10.735-6.907 4.573 0 8.5379 2.6033 10.4936 6.4087 1.0485-1.0057 1.9742-2.1745 2.7372-3.496 4.3444-7.5248 1.7662-17.1467-5.7586-21.4911zm-1.5765 10.2265c0 3.5273-2.8594 6.3868-6.3867 6.3868-3.5273 0-6.3867-2.8595-6.3867-6.3868s2.8594-6.3867 6.3867-6.3867c3.5273 0 6.3867 2.8594 6.3867 6.3867zm-5.8957 31.9337l-.0617-.0002h.1235l-.0618.0002z" clip-rule="evenodd"/></mask><path fill="#FFC102" fill-opacity=".4" fill-rule="evenodd" d="M13.5632 12.5781C19.7817 1.80729 33.5543-1.88305 44.325 4.33546 55.0958 10.554 58.7862 24.3265 52.5676 35.0973c-5.3157 9.2072-16.1516 13.2405-25.9136 10.333L9.68893 74.8146c-.51111.8853-1.6431 1.1886-2.52837.6775l-5.87738-3.3933c-.885269-.5111-1.188586-1.6431-.677478-2.5284L17.5708 40.1859c-7.3985-7.0005-9.32327-18.4008-4.0076-27.6078zm27.3688-2.3654c-7.5248-4.34448-17.1467-1.76629-21.4911 5.7585-3.8271 6.6287-2.2822 14.8847 3.2839 19.7269 1.8567-4.0746 5.9651-6.907 10.735-6.907 4.573 0 8.5379 2.6033 10.4936 6.4087 1.0485-1.0057 1.9742-2.1745 2.7372-3.496 4.3444-7.5248 1.7662-17.1467-5.7586-21.4911zm-1.5765 10.2265c0 3.5273-2.8594 6.3868-6.3867 6.3868-3.5273 0-6.3867-2.8595-6.3867-6.3868s2.8594-6.3867 6.3867-6.3867c3.5273 0 6.3867 2.8594 6.3867 6.3867zm-5.8957 31.9337l-.0617-.0002h.1235l-.0618.0002z" clip-rule="evenodd"/><path fill="#FFC102" fill-opacity=".4" d="M44.325 4.33546l-.9254 1.60292.9254-1.60292zM13.5632 12.5781l-1.6029-.9255 1.6029.9255zm39.0044 22.5192l-1.6029-.9254 1.6029.9254zM26.654 45.4303l.5283-1.7739-1.4006-.4171-.7307 1.2655 1.603.9255zM9.68893 74.8146l-1.60292-.9254 1.60292.9254zm-2.52837.6775l-.92545 1.6029h.00001l.92544-1.6029zm-5.87738-3.3933l.92545-1.603-.92545 1.603zm-.677478-2.5284l1.602918.9254-1.602918-.9254zM17.5708 40.1859l1.6029.9255.7307-1.2656-1.0615-1.0043-1.2721 1.3444zm1.8701-24.2147l1.6029.9254-1.6029-.9254zm21.4911-5.7585l-.9254 1.6029.9254-1.6029zM22.7248 35.6981L21.51 37.0945l1.8708 1.6276 1.0283-2.2565-1.6843-.7675zm21.2286-.4983l-1.6462.846 1.1352 2.2088 1.7922-1.719-1.2812-1.3358zm2.7372-3.496l-1.603-.9254 1.603.9254zM33.3981 52.3727v-1.8509l-.0047 3.7018.0047-1.8509zm.0617.0002l-.0046 1.8509.0093-.0001-.0047-1.8508zm.0618-.0002l.0047 1.8509-.0047-3.7018v1.8509zM45.2505 2.73254C33.5944-3.99709 18.6899-.003425 11.9603 11.6526l3.2058 1.8509C20.8735 3.61801 33.5141.230982 43.3996 5.93838l1.8509-3.20584zm8.9201 33.29026c6.7296-11.6561 2.7359-26.56064-8.9201-33.29026l-1.8509 3.20584c9.8855 5.70742 13.2725 18.34792 7.5651 28.23352l3.2059 1.8509zm-28.045 11.1814c10.5645 3.1465 22.2911-1.2154 28.045-11.1814l-3.2059-1.8509c-4.8776 8.4483-14.8227 12.153-23.7824 9.4845l-1.0567 3.5478zM11.2919 75.74l16.965-29.3843-3.2059-1.8509L8.08601 73.8892 11.2919 75.74zm-5.05678 1.355c1.77053 1.0222 4.03448.4156 5.05678-1.355l-3.20589-1.8508v-.0001L6.23512 77.095zM.357732 73.7017L6.23511 77.095l1.8509-3.2058-5.87738-3.3934-1.850898 3.2059zm-1.354951-5.0568C-2.01944 70.4155-1.4128 72.6795.357735 73.7017l1.850895-3.2059h-.00001l-3.205839-1.8509zM15.9679 39.2605L-.997221 68.645l3.205841 1.8508L19.1737 41.1114l-3.2058-1.8509zm-4.0076-27.6079c-5.7538 9.9658-3.66823 22.3019 4.3384 29.8778l2.5442-2.6889c-6.7904-6.4251-8.5543-16.8898-3.6768-25.338l-3.2058-1.8509zm9.0835 5.244c3.8333-6.6395 12.3233-8.91435 18.9628-5.081l1.8509-3.20586c-8.4101-4.85555-19.164-1.97405-24.0196 6.43596l3.2059 1.8509zm2.8958 17.4051c-4.9105-4.272-6.2716-11.558-2.8958-17.4051l-3.2059-1.8509C13.5596 22.456 15.2883 31.682 21.51 37.0945l2.4296-2.7928zm.4695 2.1639c1.5671-3.4391 5.0324-5.8236 9.0507-5.8236v-3.7018c-5.5215 0-10.273 3.2802-12.4193 7.9904l3.3686 1.535zm9.0507-5.8236c3.8525 0 7.1963 2.1912 8.8474 5.4038l3.2925-1.6921c-2.2604-4.3981-6.8464-7.4135-12.1399-7.4135v3.7018zm11.6278.1364c-.6747 1.1686-1.4916 2.1996-2.4154 3.0856l2.5624 2.6716c1.1733-1.1253 2.2077-2.4321 3.0589-3.9063l-3.2059-1.8509zm-5.081-18.9628c6.6395 3.8333 8.9144 12.3232 5.081 18.9628l3.2059 1.8509c4.8555-8.4101 1.974-19.164-6.436-24.01956l-1.8509 3.20586zm-7.0378 16.8613c4.5495 0 8.2376-3.6882 8.2376-8.2377h-3.7017c0 2.5051-2.0308 4.5359-4.5359 4.5359v3.7018zm-8.2376-8.2377c0 4.5495 3.6881 8.2377 8.2376 8.2377v-3.7018c-2.5051 0-4.5358-2.0308-4.5358-4.5359h-3.7018zm8.2376-8.2376c-4.5495 0-8.2376 3.6881-8.2376 8.2376h3.7018c0-2.5051 2.0307-4.5358 4.5358-4.5358v-3.7018zm8.2376 8.2376c0-4.5495-3.6881-8.2376-8.2376-8.2376v3.7018c2.5051 0 4.5359 2.0308 4.5359 4.5358h3.7017zm-7.813 33.7844l.0618.0001.0093-3.7017-.0617-.0002-.0094 3.7018zm.1282-3.7018h-.1235v3.7018h.1235v-3.7018zm-.0571 3.7019l.0618-.0001-.0094-3.7018-.0617.0002.0093 3.7017z" mask="url(#a)"/><rect width="33.05" height="33.05" x="27.017" y="1.264" stroke="#FFC102" stroke-opacity=".4" stroke-width="1.851" rx="16.525" transform="rotate(30 27.0165 1.26419)"/></svg>