<svg width="67" height="66" viewBox="0 0 67 66" fill="none" xmlns="http://www.w3.org/2000/svg"><mask id="a" fill="#fff"><path fill-rule="evenodd" clip-rule="evenodd" d="M37.8426 24.8147c-1.0279 0-1.8612.8332-1.8612 1.8611v36.6019c0 1.0278.8333 1.8611 1.8612 1.8611h27.2963c1.0278 0 1.8611-.8333 1.8611-1.8611V26.6758c0-1.0279-.8333-1.8611-1.8611-1.8611H37.8426zm14.322 19.8079c2.6256.3006 5.4115.8217 5.4115 4.3493 0 2.6456-1.9642 4.6098-5.4115 4.9104v1.7237h-2.1045v-1.7437c-3.267-.3808-5.4116-2.365-5.4116-5.5318h2.7058c.0601 1.7237 1.0222 2.8661 2.7058 3.2269v-4.9506c-2.4853-.3207-4.9506-.942-4.9506-4.3092 0-2.4853 1.9041-4.249 4.9506-4.5897v-1.9442h2.1045v1.9442c3.1266.3407 5.2311 2.2648 5.2311 5.0507h-2.6456c-.1403-1.4831-1.0222-2.4652-2.5855-2.7659v4.6299zm-2.1045-4.6499c-1.5834.2405-2.4252 1.1224-2.4252 2.4652 0 1.2627 1.0222 1.7037 2.4252 1.9442v-4.4094zm2.1045 6.8746v4.7903c1.8439-.2205 2.8661-1.1826 2.8661-2.6457 0-1.4831-1.2427-1.904-2.8661-2.1446z"/></mask><path fill-rule="evenodd" clip-rule="evenodd" d="M37.8426 24.8147c-1.0279 0-1.8612.8332-1.8612 1.8611v36.6019c0 1.0278.8333 1.8611 1.8612 1.8611h27.2963c1.0278 0 1.8611-.8333 1.8611-1.8611V26.6758c0-1.0279-.8333-1.8611-1.8611-1.8611H37.8426zm14.322 19.8079c2.6256.3006 5.4115.8217 5.4115 4.3493 0 2.6456-1.9642 4.6098-5.4115 4.9104v1.7237h-2.1045v-1.7437c-3.267-.3808-5.4116-2.365-5.4116-5.5318h2.7058c.0601 1.7237 1.0222 2.8661 2.7058 3.2269v-4.9506c-2.4853-.3207-4.9506-.942-4.9506-4.3092 0-2.4853 1.9041-4.249 4.9506-4.5897v-1.9442h2.1045v1.9442c3.1266.3407 5.2311 2.2648 5.2311 5.0507h-2.6456c-.1403-1.4831-1.0222-2.4652-2.5855-2.7659v4.6299zm-2.1045-4.6499c-1.5834.2405-2.4252 1.1224-2.4252 2.4652 0 1.2627 1.0222 1.7037 2.4252 1.9442v-4.4094zm2.1045 6.8746v4.7903c1.8439-.2205 2.8661-1.1826 2.8661-2.6457 0-1.4831-1.2427-1.904-2.8661-2.1446z" fill="#FF2CF7" fill-opacity=".4"/><path d="M52.1646 44.6226h-1.8612v1.6602l1.6494.1888.2118-1.849zm0 9.2597l-.1617-1.854-1.6995.1482v1.7058h1.8612zm0 1.7237v1.8611h1.8611V55.606h-1.8611zm-2.1045 0H48.199v1.8611h1.8611V55.606zm0-1.7437h1.8611v-1.6568l-1.6456-.1918-.2155 1.8486zm-5.4116-5.5318v-1.8611h-1.8611v1.8611h1.8611zm2.7058 0l1.86-.0649-.0627-1.7962h-1.7973v1.8611zm2.7058 3.2269l-.39 1.8198 2.2511.4824v-2.3022h-1.8611zm0-4.9506h1.8611v-1.6364l-1.623-.2094-.2381 1.8458zm0-8.8989l.2068 1.8495 1.6543-.185v-1.6645h-1.8611zm0-1.9442v-1.8611H48.199v1.8611h1.8611zm2.1045 0h1.8611v-1.8611h-1.8611v1.8611zm0 1.9442h-1.8612v1.6693l1.6595.1808.2017-1.8501zm5.2311 5.0507v1.8611h1.8611v-1.8611h-1.8611zm-2.6456 0l-1.8529.1753.1595 1.6858h1.6934v-1.8611zm-2.5855-2.7659l.3514-1.8276-2.2126-.4255v2.2531h1.8612zm-2.1045-.02h1.8611v-2.1652l-2.1406.3252.2795 1.84zm0 4.4094l-.3145 1.8343 2.1756.373v-2.2073h-1.8611zm2.1045 7.2555h-1.8612v2.0968l2.0821-.2489-.2209-1.8479zm0-4.7903l.2727-1.841-2.1339-.3161v2.1571h1.8612zm-14.322-20.1715v-3.7222c-2.0558 0-3.7223 1.6665-3.7223 3.7222h3.7223zm0 36.6019V26.6758h-3.7223v36.6019h3.7223zm0 0h-3.7223c0 2.0557 1.6665 3.7222 3.7223 3.7222v-3.7222zm27.2963 0H37.8426v3.7222h27.2963v-3.7222zm0 0v3.7222c2.0557 0 3.7222-1.6665 3.7222-3.7222h-3.7222zm0-36.6019v36.6019h3.7222V26.6758h-3.7222zm0 0h3.7222c0-2.0557-1.6665-3.7222-3.7222-3.7222v3.7222zm-27.2963 0h27.2963v-3.7222H37.8426v3.7222zm21.5946 22.2961c0-1.1293-.2244-2.1452-.7066-3.0222-.4859-.8837-1.1728-1.5156-1.9251-1.9626-1.4141-.8402-3.1551-1.0676-4.4292-1.2135l-.4235 3.698c1.3516.1548 2.3163.3382 2.9515.7156.2725.1619.4461.3404.5646.5559.1222.2223.2461.5943.2461 1.2288h3.7222zm-7.1109 6.7645c2.0329-.1773 3.8113-.862 5.1057-2.0685 1.3172-1.2277 2.0052-2.8814 2.0052-4.696H55.715c0 .831-.2941 1.4822-.8209 1.9731-.5494.5122-1.4768.9599-2.8912 1.0833l.3234 3.7081zm1.6994-.1304v-1.7237h-3.7223v1.7237h3.7223zm-3.9656 1.8611h2.1045v-3.7222h-2.1045v3.7222zm-1.8611-3.6048v1.7437h3.7222v-1.7437H48.199zm-5.4116-5.5318c0 2.0311.7013 3.8091 2.0293 5.1301 1.3054 1.2985 3.081 2.0234 5.0279 2.2503l.431-3.6972c-1.3201-.1539-2.2503-.6116-2.8339-1.1921-.561-.558-.9321-1.3555-.9321-2.4911h-3.7222zm4.5669-1.8611h-2.7058v3.7222h2.7058v-3.7222zm3.0957 3.2682c-.5133-.11-.7802-.3052-.9262-.4792-.1456-.1734-.2912-.4689-.3095-.9928l-3.72.1298c.0419 1.1998.4073 2.3374 1.1786 3.2562.771.9184 1.827 1.4748 2.9972 1.7256l.7799-3.6396zm-2.251-3.1308v4.9506h3.7222v-4.9506H48.199zm-4.9506-4.3092c0 2.2316.8686 3.846 2.374 4.8469 1.3253.8811 2.9626 1.1485 4.1995 1.3081l.4763-3.6916c-1.2483-.1611-2.0863-.3647-2.615-.7162-.3485-.2317-.7126-.6116-.7126-1.7472h-3.7222zm6.6048-6.4393c-1.8209.2036-3.4626.8505-4.676 1.9753-1.24 1.1494-1.9288 2.7077-1.9288 4.464h3.7222c0-.7289.2633-1.2951.7369-1.7341.5002-.4637 1.3339-.869 2.5594-1.0061l-.4137-3.6991zm-1.6542-.0946v1.9442h3.7222v-1.9442H48.199zm3.9656-1.8611h-2.1045v3.7222h2.1045v-3.7222zm1.8611 3.8053v-1.9442h-3.7223v1.9442h3.7223zm5.2311 5.0507c0-1.8964-.7306-3.5635-2.0217-4.7911-1.2688-1.2063-2.9846-1.9045-4.8689-2.1098l-.4033 3.7003c1.2424.1354 2.1421.5696 2.7073 1.107.5428.5162.8644 1.2041.8644 2.0936h3.7222zm-4.5067 1.8611h2.6456v-3.7222h-2.6456v3.7222zm-2.937-2.7994c.4724.0909.6985.2535.8117.3758.1105.1195.2339.3302.2724.7378l3.7057-.3505c-.1017-1.0756-.4895-2.0975-1.2458-2.915-.7537-.8147-1.7502-1.2935-2.8411-1.5033l-.7029 3.6552zm2.2126 2.8023v-4.6299h-3.7223v4.6299h3.7223zm-4.5297-2.1847c0-.2589.0685-.3244.0896-.346.0467-.0479.2341-.2002.754-.2792l-.559-3.68c-1.0635.1615-2.0887.5703-2.8587 1.3593-.7957.8151-1.1481 1.862-1.1481 2.9459h3.7222zm.8785.1098c-.3008-.0515-.5335-.1061-.7121-.1639-.1807-.0586-.2605-.106-.2821-.121-.0109-.0075.038.0256.0815.1077.0437.0827.0342.1249.0342.0674h-3.7222c0 1.2525.5638 2.2461 1.4887 2.8859.7832.5419 1.7319.7639 2.4831.8926l.6289-3.6687zm-2.1755-2.575v4.4094h3.7222v-4.4094H48.199zm5.8267 11.6649v-4.7903h-3.7223v4.7903h3.7223zm-.8561-2.6457c0 .2605-.0728.3563-.1464.4245-.1124.1043-.4144.2937-1.0796.3732l.4419 3.6959c1.1788-.1409 2.3098-.5428 3.1694-1.3405.8986-.8336 1.3369-1.9504 1.3369-3.1531h-3.7222zm-1.2778-.3035c.3694.0547.6657.1125.9041.1792.2415.0676.3682.1293.4248.1647.0441.0275.0073.0143-.031-.0538-.0392-.0695-.0201-.0898-.0201.0134h3.7222c0-.6383-.1363-1.2675-.4592-1.8405-.3221-.5717-.771-.9833-1.2405-1.2764-.8693-.5428-1.9282-.7462-2.7548-.8687l-.5455 3.6821z" fill="#FF2CF7" fill-opacity=".4" mask="url(#a)"/><mask id="b" fill="#fff"><path fill-rule="evenodd" clip-rule="evenodd" d="M1.86111 0C.833248 0 0 .833245 0 1.86111V38.463c0 1.0278.83325 1.8611 1.86111 1.8611H29.1574c1.0279 0 1.8611-.8333 1.8611-1.8611V1.86111C31.0185.833248 30.1853 0 29.1574 0H1.86111zM16.1831 19.8078c2.6256.3006 5.4115.8217 5.4115 4.3493 0 2.6456-1.9642 4.6098-5.4115 4.9104v1.7237h-2.1045v-1.7437c-3.267-.3808-5.41155-2.3651-5.41155-5.5318h2.70575c.0601 1.7237 1.0222 2.8661 2.7058 3.2269V21.792c-2.4853-.3207-4.95057-.942-4.95057-4.3092 0-2.4853 1.90407-4.249 4.95057-4.5898v-1.9441h2.1045v1.9441c3.1266.3408 5.2311 2.2649 5.2311 5.0508h-2.6456c-.1403-1.4832-1.0222-2.4652-2.5855-2.7659v4.6299zm-2.1045-4.6499c-1.5834.2405-2.4252 1.1224-2.4252 2.4652 0 1.2627 1.0222 1.7037 2.4252 1.9442v-4.4094zm2.1045 6.8746v4.7902c1.8439-.2204 2.8661-1.1825 2.8661-2.6456 0-1.4832-1.2427-1.9041-2.8661-2.1446z"/></mask><path fill-rule="evenodd" clip-rule="evenodd" d="M1.86111 0C.833248 0 0 .833245 0 1.86111V38.463c0 1.0278.83325 1.8611 1.86111 1.8611H29.1574c1.0279 0 1.8611-.8333 1.8611-1.8611V1.86111C31.0185.833248 30.1853 0 29.1574 0H1.86111zM16.1831 19.8078c2.6256.3006 5.4115.8217 5.4115 4.3493 0 2.6456-1.9642 4.6098-5.4115 4.9104v1.7237h-2.1045v-1.7437c-3.267-.3808-5.41155-2.3651-5.41155-5.5318h2.70575c.0601 1.7237 1.0222 2.8661 2.7058 3.2269V21.792c-2.4853-.3207-4.95057-.942-4.95057-4.3092 0-2.4853 1.90407-4.249 4.95057-4.5898v-1.9441h2.1045v1.9441c3.1266.3408 5.2311 2.2649 5.2311 5.0508h-2.6456c-.1403-1.4832-1.0222-2.4652-2.5855-2.7659v4.6299zm-2.1045-4.6499c-1.5834.2405-2.4252 1.1224-2.4252 2.4652 0 1.2627 1.0222 1.7037 2.4252 1.9442v-4.4094zm2.1045 6.8746v4.7902c1.8439-.2204 2.8661-1.1825 2.8661-2.6456 0-1.4832-1.2427-1.9041-2.8661-2.1446z" fill="#FF2CF7" fill-opacity=".3"/><path d="M16.1831 19.8078H14.322v1.6601l1.6494.1889.2117-1.849zm0 9.2597l-.1617-1.854-1.6994.1482v1.7058h1.8611zm0 1.7237v1.8611h1.8611v-1.8611h-1.8611zm-2.1045 0h-1.8611v1.8611h1.8611v-1.8611zm0-1.7437h1.8611v-1.6568l-1.6456-.1918-.2155 1.8486zm-5.41155-5.5318v-1.8611H6.80594v1.8611h1.86111zm2.70575 0l1.86-.0649-.0627-1.7962h-1.7973v1.8611zm2.7058 3.2269l-.39 1.8198 2.2511.4823v-2.3021h-1.8611zm0-4.9506h1.8611v-1.6364l-1.6229-.2094-.2382 1.8458zm0-8.899l.2069 1.8496 1.6542-.185V12.893h-1.8611zm0-1.9441V9.08778h-1.8611v1.86112h1.8611zm2.1045 0h1.8611V9.08778h-1.8611v1.86112zm0 1.9441H14.322v1.6694l1.6595.1808.2016-1.8502zm5.2311 5.0508v1.8611h1.8611v-1.8611h-1.8611zm-2.6456 0l-1.8528.1753.1594 1.6858h1.6934v-1.8611zm-2.5855-2.7659l.3514-1.8276-2.2125-.4255v2.2531h1.8611zm-2.1045-.02h1.8611v-2.1652l-2.1406.3252.2795 1.84zm0 4.4094l-.3145 1.8343 2.1756.373v-2.2073h-1.8611zm2.1045 7.2554H14.322v2.0969l2.082-.2489-.2209-1.848zm0-4.7902l.2727-1.841-2.1338-.3161v2.1571h1.8611zM1.86111 1.86111v-3.72222c-2.055722 0-3.72222 1.666489-3.72222 3.72222h3.72222zm0 36.60189V1.86111h-3.72222V38.463h3.72222zm0 0h-3.72222c0 2.0557 1.666499 3.7222 3.72222 3.7222V38.463zm27.29629 0H1.86111v3.7222H29.1574V38.463zm0 0v3.7222c2.0557 0 3.7222-1.6665 3.7222-3.7222h-3.7222zm0-36.60189V38.463h3.7222V1.86111h-3.7222zm0 0h3.7222c0-2.055728-1.6665-3.72222-3.7222-3.72222v3.72222zm-27.29629 0H29.1574v-3.72222H1.86111v3.72222zM23.4557 24.1571c0-1.1293-.2244-2.1452-.7066-3.0222-.4859-.8837-1.1728-1.5157-1.925-1.9626-1.4142-.8402-3.1552-1.0677-4.4293-1.2135l-.4234 3.698c1.3515.1548 2.3162.3382 2.9514.7156.2725.1618.4461.3403.5647.5559.1221.2222.246.5943.246 1.2288h3.7222zm-7.1109 6.7645c2.0329-.1773 3.8113-.862 5.1058-2.0685 1.3172-1.2277 2.0051-2.8814 2.0051-4.696h-3.7222c0 .831-.2941 1.4822-.8208 1.9731-.5495.5122-1.4769.9599-2.8913 1.0833l.3234 3.7081zm1.6994-.1304v-1.7237H14.322v1.7237h3.7222zm-3.9656 1.8611h2.1045v-3.7222h-2.1045v3.7222zm-1.8611-3.6048v1.7437h3.7222v-1.7437h-3.7222zm-5.41156-5.5318c0 2.0311.70124 3.8091 2.02927 5.1301 1.30549 1.2985 3.08099 2.0233 5.02789 2.2503l.431-3.6972c-1.3201-.1539-2.2503-.6116-2.8339-1.1921-.561-.558-.932-1.3555-.932-2.4911H6.80594zm4.56686-1.8611H8.66705v3.7222h2.70575v-3.7222zm3.0957 3.2682c-.5133-.11-.7801-.3053-.9261-.4792-.1457-.1735-.2913-.4689-.3096-.9928l-3.71996.1298c.04185 1.1998.4073 2.3374 1.17866 3.2562.7709.9184 1.8269 1.4748 2.9971 1.7256l.7799-3.6396zm-2.251-3.1308v4.9506h3.7222V21.792h-3.7222zm-4.95058-4.3092c0 2.2316.86856 3.846 2.37398 4.8469 1.3253.8811 2.9626 1.1485 4.1995 1.3081l.4764-3.6916c-1.2484-.1611-2.0864-.3647-2.6151-.7162-.3485-.2317-.7126-.6116-.7126-1.7472H7.26692zm6.60478-6.4393c-1.8209.2036-3.4625.8505-4.67599 1.9753-1.24001 1.1493-1.92879 2.7077-1.92879 4.464h3.72218c0-.7289.2633-1.2951.7369-1.7341.5002-.4637 1.3339-.869 2.5595-1.0061l-.4138-3.6991zm-1.6542-.0946v1.9441h3.7222v-1.9441h-3.7222zm3.9656-1.86112h-2.1045V12.81h2.1045V9.08778zm1.8611 3.80522v-1.9441H14.322v1.9441h3.7222zm5.2311 5.0508c0-1.8964-.7306-3.5635-2.0217-4.7911-1.2687-1.2063-2.9846-1.9045-4.8689-2.1098l-.4032 3.7003c1.2423.1354 2.142.5696 2.7072 1.107.5429.5161.8644 1.2041.8644 2.0936h3.7222zm-4.5067 1.8611h2.6456v-3.7222h-2.6456v3.7222zm-2.937-2.7994c.4725.0909.6986.2535.8117.3758.1106.1195.2339.3302.2725.7378l3.7056-.3506c-.1017-1.0755-.4895-2.0974-1.2458-2.915-.7537-.8146-1.7502-1.2934-2.8411-1.5032l-.7029 3.6552zm2.2126 2.8023v-4.6299H14.322v4.6299h3.7222zm-4.5297-2.1847c0-.2589.0685-.3244.0896-.346.0467-.0479.2341-.2003.754-.2792l-.559-3.68c-1.0635.1615-2.0887.5703-2.8587 1.3593-.7957.8151-1.14809 1.862-1.14809 2.9459h3.72219zm.8786.1098c-.3008-.0515-.5335-.1061-.7121-.1639-.1808-.0586-.2606-.106-.2822-.121-.0108-.0075.038.0256.0815.1077.0437.0827.0342.1249.0342.0674H9.79231c0 1.2525.56389 2.2461 1.48869 2.8859.7832.5419 1.732.7639 2.4831.8926l.629-3.6687zm-2.1756-2.575v4.4094h3.7222v-4.4094h-3.7222zm5.8267 11.6648v-4.7902H14.322v4.7902h3.7222zm-.8561-2.6456c0 .2605-.0728.3562-.1463.4245-.1124.1043-.4145.2937-1.0797.3732l.4419 3.6959c1.1788-.1409 2.3098-.5428 3.1695-1.3405.8985-.8336 1.3368-1.9504 1.3368-3.1531h-3.7222zm-1.2778-.3036c.3694.0548.6657.1126.9041.1793.2415.0676.3682.1293.4248.1647.0442.0275.0074.0143-.031-.0538-.0391-.0695-.0201-.0898-.0201.0134h3.7222c0-.6384-.1363-1.2675-.4592-1.8406-.3221-.5716-.771-.9832-1.2405-1.2763-.8693-.5428-1.9282-.7462-2.7548-.8687l-.5455 3.682z" fill="#FF2CF7" fill-opacity=".3" mask="url(#b)"/><path fill-rule="evenodd" clip-rule="evenodd" d="M51.3391 20.6825c-3.2994-5.5025-8.8388-9.5082-15.3577-10.75647v1.89837c5.4556 1.1418 10.1365 4.3914 13.1518 8.8581h2.2059zM11.7879 45.9074c3.2994 5.5025 8.8388 9.5082 15.3576 10.7564v-1.8984c-5.4555-1.1417-10.1364-4.3914-13.1518-8.858h-2.2058z" fill="#FF2CF7" fill-opacity=".3"/></svg>