<svg fill="none" viewBox="0 0 67 66"><mask id="a" fill="#fff"><path fill-rule="evenodd" d="M37.843 24.815a1.861 1.861 0 00-1.862 1.86v36.603c0 1.027.834 1.86 1.862 1.86h27.296A1.861 1.861 0 0067 63.279V26.676a1.861 1.861 0 00-1.861-1.861H37.843zm14.322 19.808c2.625.3 5.411.821 5.411 4.349 0 2.645-1.964 4.61-5.411 4.91v1.724H50.06v-1.744c-3.267-.38-5.412-2.365-5.412-5.531h2.706c.06 1.723 1.022 2.866 2.706 3.226v-4.95c-2.485-.32-4.95-.942-4.95-4.31 0-2.485 1.904-4.248 4.95-4.59v-1.943h2.105v1.944c3.126.34 5.23 2.265 5.23 5.05H54.75c-.14-1.482-1.022-2.465-2.585-2.765v4.63zm-2.105-4.65c-1.583.24-2.425 1.122-2.425 2.465 0 1.263 1.022 1.704 2.425 1.944v-4.41zm2.105 6.874v4.79c1.843-.22 2.866-1.182 2.866-2.645 0-1.483-1.243-1.904-2.866-2.145z" clip-rule="evenodd"/></mask><path fill="#FF2CF7" fill-opacity=".4" fill-rule="evenodd" d="M37.843 24.815a1.861 1.861 0 00-1.862 1.86v36.603c0 1.027.834 1.86 1.862 1.86h27.296A1.861 1.861 0 0067 63.279V26.676a1.861 1.861 0 00-1.861-1.861H37.843zm14.322 19.808c2.625.3 5.411.821 5.411 4.349 0 2.645-1.964 4.61-5.411 4.91v1.724H50.06v-1.744c-3.267-.38-5.412-2.365-5.412-5.531h2.706c.06 1.723 1.022 2.866 2.706 3.226v-4.95c-2.485-.32-4.95-.942-4.95-4.31 0-2.485 1.904-4.248 4.95-4.59v-1.943h2.105v1.944c3.126.34 5.23 2.265 5.23 5.05H54.75c-.14-1.482-1.022-2.465-2.585-2.765v4.63zm-2.105-4.65c-1.583.24-2.425 1.122-2.425 2.465 0 1.263 1.022 1.704 2.425 1.944v-4.41zm2.105 6.874v4.79c1.843-.22 2.866-1.182 2.866-2.645 0-1.483-1.243-1.904-2.866-2.145z" clip-rule="evenodd"/><path fill="#FF2CF7" fill-opacity=".4" d="M52.165 44.623h-1.862v1.66l1.65.189.212-1.85zm0 9.26l-.162-1.855-1.7.149v1.705h1.862zm0 1.723v1.861h1.86v-1.861h-1.86zm-2.105 0H48.2v1.861h1.861v-1.861zm0-1.744h1.861v-1.656l-1.645-.192-.216 1.848zm-5.412-5.531v-1.862h-1.86v1.862h1.86zm2.706 0l1.86-.065-.062-1.797h-1.798v1.862zm2.706 3.226l-.39 1.82 2.251.483v-2.303h-1.86zm0-4.95h1.861V44.97l-1.623-.209-.238 1.846zm0-8.9l.207 1.85 1.654-.185v-1.664h-1.86zm0-1.943v-1.861H48.2v1.86h1.861zm2.105 0h1.86v-1.861h-1.86v1.86zm0 1.944h-1.862v1.67l1.66.18.202-1.85zm5.23 5.05v1.862h1.862v-1.861h-1.861zm-2.645 0l-1.853.176.16 1.686h1.693v-1.861zm-2.585-2.765l.351-1.828-2.213-.425v2.253h1.862zm-2.105-.02h1.861v-2.165l-2.14.325.28 1.84zm0 4.41l-.314 1.833 2.175.373v-2.207h-1.86zm2.105 7.255h-1.862v2.096l2.082-.249-.22-1.847zm0-4.79l.272-1.842-2.134-.316v2.157h1.862zM37.843 26.675v-3.722a3.722 3.722 0 00-3.723 3.722h3.723zm0 36.602V26.676H34.12v36.602h3.723zm0 0H34.12A3.722 3.722 0 0037.843 67v-3.722zm27.296 0H37.843V67h27.296v-3.722zm0 0V67a3.722 3.722 0 003.722-3.722H65.14zm0-36.602v36.602h3.722V26.676H65.14zm0 0h3.722a3.722 3.722 0 00-3.722-3.722v3.722zm-27.296 0h27.296v-3.722H37.843v3.722zm21.594 22.296c0-1.13-.224-2.145-.706-3.022a5.167 5.167 0 00-1.926-1.963c-1.414-.84-3.155-1.068-4.429-1.213l-.423 3.698c1.351.154 2.316.338 2.951.715.273.162.446.34.565.556.122.222.246.594.246 1.229h3.722zm-7.11 6.764c2.032-.177 3.81-.862 5.105-2.068 1.317-1.228 2.005-2.882 2.005-4.696h-3.722c0 .83-.294 1.482-.82 1.973-.55.512-1.478.96-2.892 1.083l.323 3.708zm1.699-.13v-1.724h-3.723v1.724h3.723zm-3.966 1.861h2.105v-3.722H50.06v3.722zm-1.86-3.604v1.744h3.722v-1.744H48.2zm-5.412-5.532c0 2.032.702 3.81 2.03 5.13 1.305 1.3 3.08 2.024 5.028 2.25l.43-3.696c-1.32-.154-2.25-.612-2.833-1.192-.561-.558-.932-1.356-.932-2.492h-3.723zm4.567-1.86h-2.706v3.722h2.706v-3.723zm3.096 3.268c-.513-.11-.78-.306-.926-.48-.146-.173-.291-.469-.31-.992l-3.72.13c.042 1.2.408 2.337 1.179 3.256.77.918 1.827 1.474 2.997 1.725l.78-3.64zM48.2 46.607v4.95h3.722v-4.95H48.2zm-4.95-4.31c0 2.232.868 3.847 2.373 4.847 1.326.882 2.963 1.149 4.2 1.309l.476-3.692c-1.248-.161-2.086-.365-2.615-.716-.348-.232-.712-.612-.712-1.747h-3.723zm6.604-6.439c-1.82.204-3.462.85-4.676 1.976-1.24 1.149-1.929 2.707-1.929 4.464h3.723c0-.73.263-1.296.736-1.735.5-.463 1.334-.869 2.56-1.006l-.414-3.699zm-1.654-.094v1.944h3.722v-1.944H48.2zm3.966-1.861H50.06v3.722h2.105v-3.722zm1.86 3.805v-1.944h-3.722v1.944h3.723zm5.232 5.05c0-1.896-.73-3.563-2.022-4.79-1.269-1.207-2.985-1.905-4.869-2.11l-.403 3.7c1.242.135 2.142.57 2.707 1.107.543.516.865 1.204.865 2.094h3.722zM54.75 44.62h2.646v-3.723H54.75v3.723zm-2.937-2.8c.472.091.699.254.812.376.11.12.234.33.272.738l3.706-.35c-.102-1.076-.49-2.098-1.246-2.916-.754-.814-1.75-1.293-2.841-1.503l-.703 3.655zm2.213 2.803v-4.63h-3.723v4.63h3.723zm-4.53-2.185c0-.259.068-.325.09-.346.046-.048.234-.2.754-.28l-.56-3.68c-1.063.162-2.088.571-2.858 1.36-.796.815-1.148 1.862-1.148 2.946h3.722zm.878.11a5.234 5.234 0 01-.712-.164 1.172 1.172 0 01-.282-.121c-.01-.008.038.025.082.108.043.082.034.124.034.067h-3.722c0 1.252.564 2.246 1.488 2.886.784.542 1.732.764 2.484.892l.628-3.668zM48.2 39.973v4.41h3.722v-4.41H48.2zm5.827 11.665v-4.79h-3.723v4.79h3.723zm-.856-2.646c0 .26-.073.356-.147.424-.112.105-.414.294-1.08.374l.442 3.695c1.18-.14 2.31-.542 3.17-1.34.898-.834 1.337-1.95 1.337-3.153H53.17zm-1.278-.304c.37.055.665.113.904.18.241.067.368.129.425.164.044.028.007.015-.031-.053-.04-.07-.02-.09-.02.013h3.722c0-.638-.137-1.268-.46-1.84a3.572 3.572 0 00-1.24-1.277c-.87-.543-1.928-.746-2.755-.869l-.545 3.682z" mask="url(#a)"/><mask id="b" fill="#fff"><path fill-rule="evenodd" d="M1.861 0A1.861 1.861 0 000 1.861v36.602a1.86 1.86 0 001.861 1.861h27.296a1.861 1.861 0 001.861-1.861V1.861A1.861 1.861 0 0029.159 0H1.86zm14.322 19.808c2.626.3 5.412.822 5.412 4.35 0 2.645-1.965 4.609-5.412 4.91v1.723H14.08v-1.744c-3.267-.38-5.412-2.365-5.412-5.531h2.706c.06 1.723 1.022 2.866 2.706 3.227v-4.951c-2.486-.32-4.951-.942-4.951-4.31 0-2.484 1.904-4.248 4.95-4.589v-1.944h2.105v1.944c3.127.34 5.231 2.265 5.231 5.05H18.77c-.14-1.482-1.023-2.464-2.586-2.765v4.63zm-2.104-4.65c-1.584.24-2.426 1.122-2.426 2.465 0 1.263 1.023 1.704 2.426 1.944v-4.41zm2.104 6.875v4.79c1.844-.22 2.866-1.183 2.866-2.646 0-1.483-1.243-1.904-2.866-2.144z" clip-rule="evenodd"/></mask><path fill="#FF2CF7" fill-opacity=".3" fill-rule="evenodd" d="M1.861 0A1.861 1.861 0 000 1.861v36.602a1.86 1.86 0 001.861 1.861h27.296a1.861 1.861 0 001.861-1.861V1.861A1.861 1.861 0 0029.159 0H1.86zm14.322 19.808c2.626.3 5.412.822 5.412 4.35 0 2.645-1.965 4.609-5.412 4.91v1.723H14.08v-1.744c-3.267-.38-5.412-2.365-5.412-5.531h2.706c.06 1.723 1.022 2.866 2.706 3.227v-4.951c-2.486-.32-4.951-.942-4.951-4.31 0-2.484 1.904-4.248 4.95-4.589v-1.944h2.105v1.944c3.127.34 5.231 2.265 5.231 5.05H18.77c-.14-1.482-1.023-2.464-2.586-2.765v4.63zm-2.104-4.65c-1.584.24-2.426 1.122-2.426 2.465 0 1.263 1.023 1.704 2.426 1.944v-4.41zm2.104 6.875v4.79c1.844-.22 2.866-1.183 2.866-2.646 0-1.483-1.243-1.904-2.866-2.144z" clip-rule="evenodd"/><path fill="#FF2CF7" fill-opacity=".3" d="M16.183 19.808h-1.861v1.66l1.65.189.211-1.85zm0 9.26l-.162-1.854-1.699.148v1.706h1.861zm0 1.723v1.861h1.861v-1.86h-1.86zm-2.104 0h-1.862v1.861h1.862v-1.86zm0-1.743h1.86V27.39l-1.645-.192-.215 1.849zm-5.412-5.532v-1.861H6.806v1.86h1.861zm2.706 0l1.86-.065-.063-1.796h-1.797v1.86zm2.706 3.227l-.39 1.82 2.25.482v-2.302h-1.86zm0-4.951h1.86v-1.636l-1.622-.21-.238 1.846zm0-8.899l.206 1.85 1.655-.185v-1.665h-1.861zm0-1.944V9.088h-1.862v1.86h1.862zm2.104 0h1.861V9.088h-1.86v1.86zm0 1.944h-1.861v1.67l1.66.18.201-1.85zm5.231 5.05v1.862h1.861v-1.861h-1.86zm-2.645 0l-1.853.176.16 1.686h1.693v-1.861zm-2.586-2.765l.351-1.828-2.212-.425v2.253h1.861zm-2.104-.02h1.86v-2.165l-2.14.325.28 1.84zm0 4.41l-.315 1.834 2.176.373v-2.208h-1.861zm2.104 7.255h-1.861v2.097l2.082-.25-.22-1.847zm0-4.79l.273-1.841-2.134-.317v2.158h1.861zM1.861 1.86v-3.72A3.722 3.722 0 00-1.86 1.86h3.72zm0 36.602V1.861H-1.86v36.602h3.72zm0 0H-1.86a3.722 3.722 0 003.722 3.722v-3.722zm27.296 0H1.861v3.722h27.296v-3.722zm0 0v3.722a3.722 3.722 0 003.723-3.722h-3.723zm0-36.602v36.602h3.723V1.861h-3.723zm0 0h3.723a3.722 3.722 0 00-3.723-3.722V1.86zm-27.296 0h27.296v-3.72H1.861v3.72zm21.595 22.296c0-1.13-.225-2.145-.707-3.022a5.166 5.166 0 00-1.925-1.963c-1.414-.84-3.155-1.067-4.43-1.213l-.423 3.698c1.352.155 2.317.338 2.952.715.272.162.446.34.564.556.123.222.246.595.246 1.23h3.723zm-7.111 6.765c2.033-.178 3.811-.862 5.106-2.069 1.317-1.228 2.005-2.881 2.005-4.696h-3.722c0 .831-.295 1.482-.821 1.973-.55.512-1.477.96-2.892 1.083l.324 3.709zm1.7-.13v-1.725h-3.723v1.724h3.722zm-3.966 1.86h2.104V28.93H14.08v3.722zm-1.862-3.605v1.744h3.723v-1.744h-3.723zm-5.411-5.531c0 2.03.701 3.809 2.03 5.13 1.305 1.298 3.08 2.023 5.027 2.25l.431-3.697c-1.32-.154-2.25-.612-2.834-1.192-.56-.558-.932-1.356-.932-2.491H6.806zm4.567-1.861H8.667v3.722h2.706v-3.722zm3.096 3.268c-.514-.11-.78-.306-.927-.48-.145-.173-.29-.468-.31-.992l-3.72.13c.043 1.2.408 2.337 1.18 3.256.77.918 1.826 1.475 2.997 1.725l.78-3.64zm-2.252-3.131v4.95h3.723v-4.95h-3.723zm-4.95-4.31c0 2.232.868 3.847 2.374 4.848 1.325.88 2.962 1.148 4.2 1.308l.476-3.692c-1.249-.16-2.087-.365-2.615-.716-.349-.232-.713-.612-.713-1.747H7.267zm6.605-6.439c-1.821.204-3.463.851-4.676 1.976-1.24 1.15-1.93 2.707-1.93 4.464h3.723c0-.73.263-1.295.737-1.734.5-.464 1.334-.87 2.56-1.006l-.414-3.7zm-1.655-.094v1.944h3.723v-1.944h-3.723zm3.966-1.861H14.08v3.722h2.104V9.088zm1.861 3.805v-1.944h-3.722v1.944h3.722zm5.231 5.05c0-1.896-.73-3.563-2.021-4.79-1.27-1.207-2.985-1.905-4.87-2.11l-.402 3.7c1.242.136 2.142.57 2.707 1.107.543.516.864 1.204.864 2.094h3.722zm-4.506 1.862h2.645v-3.722H18.77v3.722zm-2.937-2.8c.472.091.698.254.811.376.11.12.234.33.273.738l3.705-.35c-.101-1.076-.49-2.098-1.245-2.915-.754-.815-1.75-1.294-2.841-1.504l-.703 3.656zm2.212 2.803v-4.63h-3.722v4.63h3.722zm-4.53-2.185c0-.259.069-.324.09-.346.047-.048.234-.2.754-.28l-.559-3.68c-1.063.162-2.089.571-2.859 1.36-.795.815-1.148 1.862-1.148 2.946h3.723zm.88.11a5.234 5.234 0 01-.713-.164 1.171 1.171 0 01-.282-.121c-.011-.008.038.026.081.108.044.082.035.125.035.067H9.792c0 1.253.564 2.246 1.489 2.886.783.542 1.732.764 2.483.893l.63-3.67zm-2.176-2.575v4.41h3.722v-4.41h-3.722zm5.826 11.665v-4.79h-3.722v4.79h3.722zm-.856-2.646c0 .26-.073.356-.146.425-.113.104-.415.293-1.08.373l.442 3.696c1.179-.141 2.31-.543 3.17-1.34.898-.834 1.336-1.951 1.336-3.154h-3.722zm-1.278-.304c.37.055.666.113.904.18.242.067.369.13.425.164.044.028.008.015-.03-.053-.04-.07-.02-.09-.02.013h3.721c0-.638-.136-1.267-.459-1.84a3.573 3.573 0 00-1.24-1.277c-.87-.543-1.929-.746-2.755-.868l-.546 3.682z" mask="url(#b)"/><path fill="#FF2CF7" fill-opacity=".3" fill-rule="evenodd" d="M51.34 20.683c-3.3-5.503-8.84-9.509-15.359-10.757v1.898a21.109 21.109 0 0113.152 8.859h2.206zM11.787 45.907c3.3 5.503 8.839 9.509 15.357 10.757v-1.899c-5.455-1.141-10.136-4.391-13.151-8.858h-2.206z" clip-rule="evenodd"/></svg>