<svg width="100%" fill="#000000"
    xmlns="http://www.w3.org/2000/svg" viewBox="0 0 24 24">
    <path d="M13.934 10.505v-6.16c.583-.049 1.043-.534 1.043-1.205 0-.63-.509-1.14-1.14-1.14h-3.676c-.623 0-1.132.51-1.132 1.222 0 .589.46 1.075 1.043 1.124v6.16a5.411 5.411 0 0 0-3.502 5.07C6.57 18.567 9.012 21 12.003 21a5.43 5.43 0 0 0 4.47-8.505 5.406 5.406 0 0 0-2.539-1.99ZM9.835 3.14c0-.179.146-.333.323-.333h3.679c.186 0 .331.154.331.414a.326.326 0 0 1-.331.323h-3.679c-.177 0-.323-.146-.323-.404Zm.76 8.037a.408.408 0 0 0 .283-.388V4.352h2.247v6.437c0 .177.113.331.275.388a4.585 4.585 0 0 1 2.903 2.748 7.683 7.683 0 0 0-.76-.032c-1.705 0-2.57.412-3.403.808-.793.38-1.536.745-3.064.745a6.495 6.495 0 0 1-1.665-.194 4.575 4.575 0 0 1 3.184-4.075Z" />
</svg>