<svg id="experimentation" xmlns="http://www.w3.org/2000/svg" viewBox="0 0 24 24"><path fill-rule="evenodd" d="M7 6.75A.75.75 0 0 1 7.75 6h8.5a.75.75 0 0 1 0 1.5H16v3.233a31.851 31.851 0 0 0 .885 1.006c.322.358.665.738.995 1.132.72.86 1.434 1.842 1.83 2.948.18.505.29 1.04.29 1.597A4.584 4.584 0 0 1 15.416 22H8.584A4.584 4.584 0 0 1 4 17.416c0-.558.11-1.092.29-1.597.396-1.106 1.11-2.089 1.83-2.948.33-.394.673-.774.995-1.132l.093-.104c.287-.317.553-.616.792-.902V7.5h-.25A.75.75 0 0 1 7 6.75Zm2.5.75v3.763l-.164.206c-.31.386-.662.78-1.013 1.17l-.091.101c-.325.361-.65.722-.962 1.095-.345.41-.66.82-.928 1.234l.098-.015c.895-.137 2.053-.275 2.99-.25 1.137.03 2 .302 2.774.545l.021.007c.779.245 1.469.46 2.384.484.797.02 1.846-.1 2.725-.234.211-.032.41-.065.59-.095-.313-.566-.728-1.12-1.194-1.676-.312-.373-.637-.734-.962-1.095l-.091-.101c-.351-.39-.703-.784-1.013-1.17l-.164-.206V7.5h-5Z" clip-rule="evenodd"/><path d="M11 4a1 1 0 1 1-2 0 1 1 0 0 1 2 0ZM15 2.5a1.5 1.5 0 1 1-3 0 1.5 1.5 0 0 1 3 0Z"/></svg>