<svg width="100%" fill="#000000"
    xmlns="http://www.w3.org/2000/svg" viewBox="0 0 24 24">
    <path d="M6.48 11h11.04c2.2 0 3.979-1.8 3.979-3.98 0-2.2-1.8-3.98-3.98-3.98H6.48c-2.2 0-3.979 1.8-3.979 3.98C2.5 9.2 4.3 11 6.48 11Zm11.04-6.22a2.25 2.25 0 0 1 2.24 2.24c0 1.22-1.02 2.24-2.24 2.24a2.25 2.25 0 0 1-2.24-2.24c0-1.22 1-2.24 2.24-2.24Z" />
    <path opacity=".5" d="M17.52 13H6.48c-2.2 0-3.98 1.8-3.98 3.98 0 2.2 1.8 3.98 3.98 3.98h11.04c2.2 0 3.98-1.8 3.98-3.98 0-2.18-1.8-3.98-3.98-3.98ZM6.48 19.22a2.25 2.25 0 0 1-2.24-2.24 2.25 2.25 0 0 1 2.24-2.24 2.25 2.25 0 0 1 2.24 2.24c0 1.24-1 2.24-2.24 2.24Z" />
</svg>