<svg xmlns="http://www.w3.org/2000/svg" width="100%" fill="#000" viewBox="0 0 24 24"><path d="M4.662 13.963c.054 0 .106.006.157.01v-3.96c-.052.005-.103.011-.157.011-.051 0-.102-.005-.153-.01v3.957c.05-.004.102-.008.153-.008ZM12.155 8.429V5.632c-.051.004-.103.008-.155.008-.053 0-.105-.004-.156-.008v2.797c.052-.003.103-.008.156-.008.052 0 .103.005.155.008Z" opacity=".5"/><path d="M12 8.731a3.266 3.266 0 0 0-3.262 3.262A3.266 3.266 0 0 0 12 15.255a3.266 3.266 0 0 0 3.262-3.262A3.266 3.266 0 0 0 12 8.731Z"/><path d="M6.403 8.985v.001l2.42 1.379a3.7 3.7 0 0 1 .155-.27L6.526 8.7a2.03 2.03 0 0 1-.123.285Z" opacity=".5"/><path d="M12 5.328c.917 0 1.664-.746 1.664-1.664C13.664 2.747 12.917 2 12 2c-.918 0-1.665.747-1.665 1.664 0 .918.747 1.664 1.665 1.664ZM19.334 6.384a1.664 1.664 0 1 0 .005 3.33 1.664 1.664 0 0 0-.005-3.33ZM5.452 6.583a1.664 1.664 0 1 0-1.578 2.93 1.664 1.664 0 0 0 1.578-2.93ZM12 18.658c-.918 0-1.665.747-1.665 1.665 0 .917.747 1.664 1.665 1.664.917 0 1.664-.747 1.664-1.664 0-.919-.747-1.665-1.664-1.665Z" opacity=".8"/><path d="M19.49 13.972v-3.957c-.05.004-.102.01-.153.01-.054 0-.105-.007-.157-.011v3.96c.052-.005.104-.011.157-.011.052 0 .102.005.154.01ZM15.175 10.364l2.421-1.379v-.001a2.003 2.003 0 0 1-.124-.286l-2.452 1.396c.056.088.108.178.155.27ZM6.297 6.94l3.827-2.662a1.91 1.91 0 0 1-.076-.326L6.102 6.697c.072.076.137.158.195.243ZM13.876 4.278 17.7 6.94c.058-.086.125-.166.196-.242L13.95 3.952a1.92 1.92 0 0 1-.075.326ZM10.127 19.7l-3.824-2.66a1.934 1.934 0 0 1-.195.243l3.94 2.742c.018-.111.044-.22.079-.325ZM17.697 17.04l-3.824 2.66c.034.105.06.213.076.325l3.942-2.742a1.924 1.924 0 0 1-.194-.242Z" opacity=".5"/><path d="M11.844 15.558v2.797c.051-.004.103-.008.156-.008.052 0 .104.004.155.008v-2.797c-.052.002-.103.008-.155.008-.053 0-.104-.006-.156-.008Z"/><path d="M4.665 17.602a1.668 1.668 0 0 0 1.593-1.186 1.664 1.664 0 1 0-1.593 1.186Z" opacity=".8"/><path d="M8.824 13.623 6.403 15v.002c.05.092.09.188.124.286l2.452-1.396a3.587 3.587 0 0 1-.155-.27Z" opacity=".5"/><path d="M18.547 17.403a1.665 1.665 0 0 0 2.254-.677 1.668 1.668 0 0 0-1.464-2.454 1.663 1.663 0 0 0-1.596 2.144c.128.427.415.777.806.987Z" opacity=".8"/><path d="M17.596 15.002V15l-2.42-1.378a3.69 3.69 0 0 1-.155.27l2.452 1.395c.034-.096.074-.192.123-.285Z" opacity=".5"/></svg>