<svg xmlns="http://www.w3.org/2000/svg" width="100%" fill="#000" viewBox="0 0 24 24"><path d="M4.914 2h3.171C9.695 2 11 3.61 11 4.914v3.172a2.914 2.914 0 0 1-2.914 2.913H4.914C3.304 11 2 9.39 2 8.086V4.914A2.914 2.914 0 0 1 4.914 2Z" opacity=".8"/><path d="M4.914 13h3.171C9.695 13 11 14.61 11 15.916v3.171A2.914 2.914 0 0 1 8.085 22H4.914C3.304 22 2 20.39 2 19.086v-3.171A2.914 2.914 0 0 1 4.914 13Z" opacity=".6"/><path d="M15.914 13h3.171C20.695 13 22 14.61 22 15.916v3.171A2.914 2.914 0 0 1 19.085 22h-3.171C14.304 22 13 20.39 13 19.086v-3.171A2.914 2.914 0 0 1 15.914 13Z" opacity=".4"/><path d="M13.999 7.5h2.5V10a1 1 0 0 0 2 0V7.5H21a1 1 0 0 0 0-2h-2.5V3a1 1 0 1 0-2 0v2.5H14a1 1 0 1 0 0 2Z"/></svg>