<svg xmlns="http://www.w3.org/2000/svg" fill="#000000" viewBox="0 0 24 24">
    <g clipPath="url(#a)">
        <path d="M22.313 12a.688.688 0 0 0-.379-.612l-3.581-1.794 3.581-1.795a.688.688 0 0 0 0-1.223L12.31 1.763a.688.688 0 0 0-.618 0L2.066 6.576a.688.688 0 0 0 0 1.223l3.581 1.795-3.581 1.794a.688.688 0 0 0 0 1.224l3.581 1.794-3.581 1.795a.688.688 0 0 0 0 1.223l9.625 4.813a.688.688 0 0 0 .618 0l9.625-4.813a.688.688 0 0 0 0-1.223l-3.581-1.795 3.581-1.794a.688.688 0 0 0 .378-.612ZM12 3.145l8.085 4.043L12 11.23 3.915 7.187 12 3.146Zm8.085 13.668L12 20.855l-8.085-4.043 3.273-1.636 4.503 2.248a.688.688 0 0 0 .618 0l4.504-2.248 3.272 1.636ZM12 16.043 3.915 12l3.273-1.636 4.503 2.248a.688.688 0 0 0 .618 0l4.504-2.248L20.085 12 12 16.043Z" />
    </g>
    <defs>
        <clipPath id="a">
            <path fill="#fff" d="M1 1h22v22H1z" />
        </clipPath>
    </defs>
</svg>