<svg xmlns="http://www.w3.org/2000/svg" viewBox="0 0 24 24"><path fill-rule="evenodd" d="M11.123 3.315a2 2 0 0 1 1.754 0l7.97 3.887c1.497.731 1.497 2.865 0 3.596L18.38 12l2.465 1.203c1.498.73 1.498 2.864 0 3.595l-7.969 3.887a2 2 0 0 1-1.754 0l-7.969-3.887c-1.497-.73-1.497-2.865 0-3.595L5.62 12l-2.465-1.202c-1.497-.73-1.497-2.865 0-3.596l7.97-3.887ZM7.9 13.113 4.031 15l7.97 3.887L19.97 15l-3.87-1.887-3.223 1.572a2 2 0 0 1-1.754 0L7.9 13.113Zm4.1-8L4.031 9l7.97 3.887L19.97 9 12 5.113Z" clip-rule="evenodd"/></svg>