<svg id="icon-session-replay" xmlns="http://www.w3.org/2000/svg" viewBox="0 0 24 24"><path fill-rule="evenodd" d="M13.035 2.779a.785.785 0 0 0-.418-.705.69.69 0 0 0-.775.107L9.662 4.129a.803.803 0 0 0-.262.598.8.8 0 0 0 .262.598l2.181 1.949a.687.687 0 0 0 .774.107.784.784 0 0 0 .42-.706v-.982a7.274 7.274 0 0 1-.91 14.489A7.273 7.273 0 0 1 6.47 8.338a.91.91 0 0 0-1.413-1.144A9.09 9.09 0 0 0 12.126 22a9.09 9.09 0 0 0 .91-18.136V2.779ZM9.4 9.912c0-.497.555-.804.99-.546l5.06 2.998a.63.63 0 0 1 0 1.09l-5.06 2.998c-.435.258-.99-.048-.99-.546V9.912Z" clip-rule="evenodd"/></svg>