<svg width="100%" fill="#000000"
    xmlns="http://www.w3.org/2000/svg" viewBox="0 0 24 24">
    <path opacity=".5" d="M2 8.843V2.456C2 2.204 2.204 2 2.456 2h6.387a.456.456 0 0 1 0 .912H2.912v5.93A.456.456 0 0 1 2 8.843ZM21.617 2h-6.388a.456.456 0 0 0 0 .912h5.931v5.93a.456.456 0 0 0 .912 0V2.456A.456.456 0 0 0 21.618 2Zm0 12.774a.456.456 0 0 0-.456.456v5.93h-5.932a.456.456 0 0 0 0 .913h6.388a.456.456 0 0 0 .456-.456v-6.388a.456.456 0 0 0-.456-.455ZM8.843 21.16H2.912V15.23a.456.456 0 0 0-.912 0v6.387c0 .251.204.456.456.456h6.387a.456.456 0 0 0 0-.912Z" />
    <path d="M16.142 12.036a4.111 4.111 0 0 0-4.106-4.106 4.111 4.111 0 0 0-4.106 4.106 4.111 4.111 0 0 0 4.106 4.106 4.111 4.111 0 0 0 4.106-4.106Z" />
</svg>