<svg id="icon-surveys" xmlns="http://www.w3.org/2000/svg" viewBox="0 0 24 24"><path fill-rule="evenodd" d="M4.409 5.366C6.273 3.806 8.899 3 12 3s5.727.805 7.591 2.366C21.471 6.941 22.5 9.223 22.5 12s-1.03 5.059-2.909 6.634C17.727 20.194 15.101 21 12 21c-1.693 0-3.57-.162-5.234-.922a6.967 6.967 0 0 1-1.223.568c-.941.328-2.282.548-3.615-.086a.75.75 0 0 1-.277-1.129c1.443-1.912 1.015-3.08.997-3.13l-.006-.014-.008-.019-.012-.028c-.076-.183-.351-.859-.608-1.665-.25-.782-.514-1.78-.514-2.575 0-2.777 1.03-5.059 2.909-6.634Zm1.864 13.249a.75.75 0 0 1 .795-.06c1.426.754 3.17.945 4.932.945 2.857 0 5.106-.742 6.628-2.016C20.133 16.222 21 14.379 21 12c0-2.38-.867-4.223-2.372-5.484C17.106 5.242 14.857 4.5 12 4.5s-5.106.742-6.628 2.016C3.867 7.777 3 9.62 3 12c0 .542.196 1.346.443 2.12.239.749.496 1.38.564 1.545l.002.004c.007.017.03.071.047.116.157.427.468 1.776-.618 3.663.56.06 1.117-.046 1.611-.219a5.462 5.462 0 0 0 1.212-.606l.012-.008Zm.001-.001Z" clip-rule="evenodd"/><path d="M7.5 12.5a.5.5 0 1 1 0-1 .5.5 0 0 1 0 1ZM12 12.5a.5.5 0 1 1 0-1 .5.5 0 0 1 0 1ZM16.5 12.5a.5.5 0 1 1 0-1 .5.5 0 0 1 0 1Z"/><path fill-rule="evenodd" d="M7.5 13a1 1 0 1 1 0-2 1 1 0 0 1 0 2Zm4.5 0a1 1 0 1 1 0-2 1 1 0 0 1 0 2Zm4.5 0a1 1 0 1 1 0-2 1 1 0 0 1 0 2Zm-9-.5a.5.5 0 1 1 0-1 .5.5 0 0 1 0 1Zm4.5 0a.5.5 0 1 1 0-1 .5.5 0 0 1 0 1Zm4-.5a.5.5 0 1 0 1 0 .5.5 0 0 0-1 0Z" clip-rule="evenodd"/></svg>