<?xml version="1.0" encoding="UTF-8"?>
<svg xmlns="http://www.w3.org/2000/svg" xmlns:xlink="http://www.w3.org/1999/xlink" width="150pt" height="60pt" viewBox="0 0 150 60" version="1.2">
<defs>
<clipPath id="clip1">
  <path d="M 28.910156 8.875 L 71 8.875 L 71 50.632812 L 28.910156 50.632812 Z M 28.910156 8.875 "/>
</clipPath>
<clipPath id="clip2">
  <path d="M 79 8.875 L 121.160156 8.875 L 121.160156 50.632812 L 79 50.632812 Z M 79 8.875 "/>
</clipPath>
</defs>
<g id="surface1">
<rect x="0" y="0" width="150" height="60" style="fill:rgb(100%,100%,100%);fill-opacity:1;stroke:none;"/>
<rect x="0" y="0" width="150" height="60" style="fill:rgb(100%,100%,100%);fill-opacity:1;stroke:none;"/>
<rect x="0" y="0" width="150" height="60" style="fill:rgb(100%,100%,100%);fill-opacity:1;stroke:none;"/>
<path style=" stroke:none;fill-rule:nonzero;fill:rgb(16.468811%,69.40918%,67.449951%);fill-opacity:1;" d="M 57.558594 19.457031 C 57.164062 19.460938 56.878906 19.640625 56.710938 19.988281 C 56.632812 20.160156 56.617188 20.339844 56.660156 20.523438 C 56.703125 20.703125 56.796875 20.855469 56.941406 20.976562 C 57.234375 21.226562 57.570312 21.300781 57.941406 21.207031 C 58.296875 21.039062 58.476562 20.757812 58.480469 20.371094 C 58.476562 20.121094 58.386719 19.90625 58.207031 19.730469 C 58.027344 19.554688 57.8125 19.460938 57.558594 19.457031 Z M 57.558594 19.457031 "/>
<g clip-path="url(#clip1)" clip-rule="nonzero">
<path style=" stroke:none;fill-rule:nonzero;fill:rgb(16.468811%,69.40918%,67.449951%);fill-opacity:1;" d="M 49.933594 8.898438 C 49.246094 8.898438 48.558594 8.929688 47.871094 8.996094 C 47.1875 9.0625 46.507812 9.164062 45.832031 9.296875 C 45.15625 9.429688 44.488281 9.59375 43.832031 9.789062 C 43.171875 9.988281 42.523438 10.214844 41.886719 10.476562 C 41.253906 10.734375 40.628906 11.027344 40.023438 11.347656 C 39.417969 11.667969 38.828125 12.015625 38.253906 12.394531 C 37.679688 12.769531 37.128906 13.175781 36.597656 13.605469 C 36.0625 14.035156 35.554688 14.492188 35.066406 14.972656 C 34.582031 15.453125 34.121094 15.957031 33.683594 16.480469 C 33.246094 17.007812 32.835938 17.550781 32.453125 18.117188 C 32.070312 18.679688 31.71875 19.261719 31.394531 19.863281 C 31.066406 20.460938 30.773438 21.074219 30.511719 21.703125 C 30.246094 22.328125 30.015625 22.96875 29.816406 23.617188 C 29.617188 24.269531 29.449219 24.925781 29.3125 25.59375 C 29.179688 26.257812 29.078125 26.929688 29.011719 27.605469 C 28.945312 28.28125 28.910156 28.960938 28.910156 29.640625 C 28.910156 30.320312 28.945312 30.996094 29.011719 31.671875 C 29.078125 32.347656 29.179688 33.019531 29.3125 33.6875 C 29.449219 34.351562 29.617188 35.011719 29.816406 35.660156 C 30.015625 36.308594 30.246094 36.949219 30.511719 37.578125 C 30.773438 38.203125 31.066406 38.816406 31.394531 39.417969 C 31.71875 40.015625 32.070312 40.597656 32.453125 41.164062 C 32.835938 41.726562 33.246094 42.273438 33.683594 42.796875 C 34.121094 43.324219 34.582031 43.824219 35.066406 44.304688 C 35.554688 44.785156 36.0625 45.242188 36.597656 45.671875 C 37.128906 46.105469 37.679688 46.507812 38.253906 46.886719 C 38.828125 47.261719 39.417969 47.613281 40.023438 47.933594 C 40.628906 48.253906 41.253906 48.542969 41.886719 48.800781 C 42.523438 49.0625 43.171875 49.289062 43.832031 49.488281 C 44.488281 49.683594 45.15625 49.851562 45.832031 49.984375 C 46.507812 50.113281 47.1875 50.214844 47.871094 50.28125 C 48.558594 50.347656 49.246094 50.382812 49.933594 50.382812 C 50.621094 50.382812 51.308594 50.347656 51.996094 50.28125 C 52.679688 50.214844 53.359375 50.113281 54.035156 49.984375 C 54.710938 49.851562 55.378906 49.683594 56.035156 49.488281 C 56.695312 49.289062 57.34375 49.0625 57.980469 48.800781 C 58.613281 48.542969 59.238281 48.253906 59.84375 47.933594 C 60.449219 47.613281 61.039062 47.261719 61.613281 46.886719 C 62.1875 46.507812 62.738281 46.105469 63.269531 45.671875 C 63.800781 45.242188 64.3125 44.785156 64.800781 44.304688 C 65.285156 43.824219 65.746094 43.324219 66.183594 42.796875 C 66.621094 42.273438 67.03125 41.726562 67.414062 41.164062 C 67.796875 40.597656 68.148438 40.015625 68.472656 39.417969 C 68.796875 38.816406 69.09375 38.203125 69.355469 37.578125 C 69.621094 36.949219 69.851562 36.308594 70.050781 35.660156 C 70.25 35.011719 70.417969 34.351562 70.550781 33.6875 C 70.6875 33.019531 70.789062 32.347656 70.855469 31.671875 C 70.921875 30.996094 70.957031 30.320312 70.957031 29.640625 C 70.957031 28.960938 70.925781 28.28125 70.859375 27.605469 C 70.789062 26.929688 70.691406 26.257812 70.554688 25.589844 C 70.421875 24.925781 70.257812 24.265625 70.054688 23.617188 C 69.855469 22.964844 69.625 22.324219 69.363281 21.699219 C 69.097656 21.070312 68.804688 20.457031 68.480469 19.855469 C 68.15625 19.257812 67.804688 18.675781 67.421875 18.109375 C 67.039062 17.546875 66.628906 17 66.191406 16.476562 C 65.753906 15.949219 65.292969 15.445312 64.804688 14.964844 C 64.320312 14.484375 63.808594 14.03125 63.277344 13.597656 C 62.746094 13.167969 62.191406 12.761719 61.617188 12.386719 C 61.046875 12.007812 60.457031 11.660156 59.847656 11.339844 C 59.242188 11.019531 58.617188 10.730469 57.980469 10.46875 C 57.347656 10.210938 56.699219 9.980469 56.039062 9.785156 C 55.378906 9.589844 54.710938 9.425781 54.035156 9.292969 C 53.359375 9.160156 52.679688 9.0625 51.996094 8.996094 C 51.308594 8.929688 50.621094 8.898438 49.933594 8.898438 Z M 61.714844 36.25 L 51.320312 36.25 L 51.320312 34.578125 L 61.714844 34.578125 Z M 60.097656 20.445312 C 60.097656 20.445312 59.328125 21.507812 59.714844 24.09375 C 60.484375 28.878906 57.867188 33.210938 53.320312 33.210938 L 49.933594 33.210938 L 49.933594 34.5 L 47.238281 34.5 C 46.546875 34.5 45.234375 34.425781 44.695312 34.957031 C 38.691406 40.582031 37.457031 42.25 37.074219 42.480469 C 36.84375 42.632812 36.765625 42.328125 36.765625 42.328125 L 54.015625 21.28125 C 54.015625 17.484375 58.171875 16.496094 59.867188 19.304688 L 62.101562 18.546875 Z M 60.097656 20.445312 "/>
</g>
<g clip-path="url(#clip2)" clip-rule="nonzero">
<path style=" stroke:none;fill-rule:nonzero;fill:rgb(16.468811%,69.40918%,67.449951%);fill-opacity:1;" d="M 86.898438 26.828125 L 86.898438 25.15625 L 86.820312 25.15625 C 86.722656 25.46875 86.574219 25.753906 86.378906 26.019531 C 86.179688 26.28125 85.949219 26.503906 85.675781 26.691406 C 85.402344 26.878906 85.109375 27.015625 84.789062 27.101562 C 84.472656 27.191406 84.148438 27.226562 83.816406 27.207031 C 80.582031 27.207031 79.351562 24.550781 79.351562 19.914062 C 79.351562 13.910156 81.507812 13 83.585938 13 C 83.914062 12.984375 84.238281 13.019531 84.558594 13.105469 C 84.875 13.1875 85.171875 13.320312 85.449219 13.496094 C 85.726562 13.675781 85.96875 13.890625 86.175781 14.140625 C 86.382812 14.394531 86.546875 14.671875 86.667969 14.976562 L 86.742188 14.976562 L 86.742188 8.898438 L 89.515625 8.898438 L 89.515625 26.902344 L 86.898438 26.902344 Z M 86.898438 20.21875 C 86.898438 16.949219 86.511719 15.128906 84.433594 15.128906 C 82.816406 15.128906 82.277344 16.417969 82.277344 20.066406 C 82.277344 23.105469 82.660156 25.082031 84.585938 25.082031 C 86.511719 25.082031 86.898438 23.105469 86.898438 20.21875 Z M 101.21875 16.265625 L 101.21875 24.015625 C 101.21875 24.550781 101.527344 25.003906 101.914062 25.003906 C 102.066406 25.003906 102.296875 25.003906 102.375 24.929688 L 102.375 26.675781 C 101.9375 26.875 101.472656 26.976562 100.988281 26.980469 C 99.757812 26.980469 98.757812 26.523438 98.679688 25.15625 L 98.601562 25.15625 C 98.289062 25.792969 97.828125 26.289062 97.210938 26.648438 C 96.59375 27.007812 95.929688 27.167969 95.214844 27.132812 C 92.980469 27.132812 91.671875 25.917969 91.671875 23.332031 C 91.671875 20.292969 92.980469 19.6875 94.828125 19.078125 L 96.984375 18.46875 C 97.984375 18.167969 98.601562 17.9375 98.601562 16.722656 C 98.601562 15.507812 98.140625 14.671875 96.675781 14.671875 C 94.828125 14.671875 94.597656 15.964844 94.597656 17.253906 L 91.980469 17.253906 C 91.980469 14.367188 93.210938 12.773438 96.832031 12.773438 C 99.21875 12.925781 101.21875 13.910156 101.21875 16.265625 Z M 98.601562 21.964844 L 98.601562 19.6875 C 97.910156 20.21875 96.367188 20.597656 95.523438 20.976562 C 95.128906 21.203125 94.832031 21.515625 94.621094 21.914062 C 94.414062 22.3125 94.328125 22.734375 94.367188 23.179688 C 94.367188 24.320312 94.90625 25.234375 96.0625 25.234375 C 97.753906 25.15625 98.601562 23.941406 98.601562 21.964844 Z M 102.761719 15.355469 L 102.761719 13.304688 L 104.6875 13.304688 L 104.6875 9.429688 L 107.457031 9.429688 L 107.457031 13.304688 L 109.691406 13.304688 L 109.691406 15.355469 L 107.457031 15.355469 L 107.457031 23.410156 C 107.457031 24.472656 107.765625 24.851562 108.691406 24.851562 C 109.027344 24.871094 109.359375 24.847656 109.691406 24.777344 L 109.691406 26.828125 C 108.957031 26.992188 108.210938 27.066406 107.457031 27.054688 C 105.609375 27.054688 104.6875 26.523438 104.6875 23.789062 L 104.6875 15.355469 Z M 120.085938 16.265625 L 120.085938 24.015625 C 120.085938 24.550781 120.394531 25.003906 120.78125 25.003906 C 120.933594 25.003906 121.164062 25.003906 121.242188 24.929688 L 121.242188 26.675781 C 120.804688 26.875 120.339844 26.976562 119.855469 26.980469 C 118.625 26.980469 117.625 26.523438 117.546875 25.15625 L 117.46875 25.15625 C 117.15625 25.792969 116.691406 26.289062 116.078125 26.648438 C 115.460938 27.007812 114.796875 27.167969 114.082031 27.132812 C 111.847656 27.132812 110.539062 25.917969 110.539062 23.332031 C 110.539062 20.292969 111.847656 19.6875 113.695312 19.078125 L 115.851562 18.46875 C 116.851562 18.167969 117.46875 17.9375 117.46875 16.722656 C 117.46875 15.507812 117.007812 14.671875 115.542969 14.671875 C 113.695312 14.671875 113.464844 15.964844 113.464844 17.253906 L 110.847656 17.253906 C 110.847656 14.367188 112.078125 12.773438 115.699219 12.773438 C 118.164062 12.925781 120.085938 13.910156 120.085938 16.265625 Z M 117.46875 21.964844 L 117.46875 19.6875 C 116.777344 20.21875 115.234375 20.597656 114.390625 20.976562 C 113.996094 21.203125 113.695312 21.515625 113.488281 21.914062 C 113.28125 22.3125 113.195312 22.734375 113.234375 23.179688 C 113.234375 24.320312 113.773438 25.234375 114.929688 25.234375 C 116.699219 25.15625 117.46875 23.941406 117.46875 21.964844 Z M 80.042969 50.230469 L 80.042969 36.707031 L 82.816406 36.707031 L 82.816406 50.230469 Z M 80.042969 34.804688 L 80.042969 32.070312 L 82.816406 32.070312 L 82.816406 34.804688 Z M 85.589844 50.230469 L 85.589844 32.296875 L 88.359375 32.296875 L 88.359375 42.402344 L 88.4375 42.402344 L 92.597656 36.707031 L 95.753906 36.707031 L 91.59375 41.949219 L 96.292969 50.304688 L 93.289062 50.304688 L 89.902344 44.152344 L 88.359375 46.050781 L 88.359375 50.382812 L 85.589844 50.382812 Z M 104.378906 50.230469 L 104.378906 48.632812 L 104.300781 48.632812 C 103.949219 49.25 103.460938 49.734375 102.839844 50.085938 C 102.21875 50.441406 101.550781 50.613281 100.835938 50.609375 C 98.757812 50.609375 97.445312 49.699219 97.445312 46.203125 L 97.445312 36.707031 L 100.21875 36.707031 L 100.21875 46.429688 C 100.21875 47.949219 100.914062 48.480469 102.066406 48.480469 C 102.375 48.492188 102.667969 48.441406 102.953125 48.328125 C 103.238281 48.214844 103.484375 48.050781 103.699219 47.832031 C 103.910156 47.613281 104.070312 47.363281 104.175781 47.082031 C 104.28125 46.796875 104.320312 46.503906 104.300781 46.203125 L 104.300781 36.707031 L 107.074219 36.707031 L 107.074219 50.230469 Z M 104.378906 50.230469 "/>
</g>
</g>
</svg>
