<svg fill="none" xmlns="http://www.w3.org/2000/svg" viewBox="0 0 331 63"><path d="M12.017 9.796c2.069-1.386 4.668-1.113 7.034-1.155 6.715-.031 13.43.19 20.146-.094-3.13 1.428-5.94 3.402-8.53 5.628 2.006.43 4.128.514 6.07 1.228-7.353.179-14.716-.073-22.068.22 2.101 4.316 4.668 8.39 7.087 12.548-1.252 2.342-2.493 4.694-3.745 7.035-2.758-4.788-5.601-9.534-8.349-14.332-2.292-3.507-1.443-8.925 2.355-11.078Z" fill="#fff"/><path d="M30.672 14.175c2.588-2.226 5.4-4.2 8.53-5.628 1.867 1.218 3.511 2.772 4.2 4.935-1.697 1.764-3.5 3.412-5.293 5.071-.35-.787-1.03-2.362-1.369-3.15-1.941-.714-4.063-.798-6.068-1.228Z" fill="#fff"/><path d="M54.06 11.708c.69-1.428 2.069-2.247 3.342-3.108-1.485 8-6.153 15.025-7.161 23.131-2.504 6.237-6.355 11.876-9.506 17.819-1.57 3.433-5.379 4.714-8.954 4.546.669-2.047 1.316-4.105 2.09-6.121 3.31-6.164 6.769-12.254 10.26-18.323a75.53 75.53 0 0 0 3.012-5.439c2.26-4.19 4.53-8.379 6.917-12.505Z" fill="#fff"/><path d="M57.403 8.6c2.175.063 4.35.073 6.525.084-.997 2.247-2.016 4.483-3.31 6.573-4.456 4.83-6.228 11.413-10.376 16.474 1.008-8.106 5.676-15.13 7.161-23.131Z" fill="#fff"/><path d="M63.927 8.684c2.45-.021 4.89-.021 7.342-.021-.425 2.278-.85 4.557-1.273 6.835-3.13.01-6.26.042-9.379-.241 1.294-2.09 2.313-4.326 3.31-6.573Z" fill="#fff"/><path d="M71.273 8.663c3.14 0 6.27 0 9.4.084a800.836 800.836 0 0 0-3.438 6.71c-2.408.03-4.827.03-7.235.041l1.273-6.835Z" fill="#fff"/><path d="M80.673 8.747c2.472 1.25 5.114 3.003 5.506 5.964.934 3.034-.912 5.88-2.376 8.4-5.687 9.565-11.066 19.32-16.9 28.801-.319.21-.966.63-1.284.84l-.615-.115c-.457-2.909-.839-5.828-1.2-8.747 5.358-9.408 11.193-18.564 16.137-28.182l-2.705-.252a798.145 798.145 0 0 1 3.437-6.71Z" fill="#fff"/><path d="M285.718 10.868c1.368-.053 2.747-.105 4.127-.147.084 7.056.021 14.101.053 21.147 3.193-3.812 6.429-7.581 9.558-11.435 1.56.074 3.109.158 4.668.252-2.556 3.34-5.304 6.531-8.052 9.713 2.928 4.704 6.196 9.219 8.848 14.09-1.517.053-3.024.106-4.53.148-2.366-3.623-4.7-7.245-6.97-10.92-1.178 1.344-2.355 2.677-3.533 4.021 0 2.3-.011 4.61-.032 6.91l-4.222-.221c.063-11.193-.085-22.376.085-33.558ZM140.234 11.456a281.45 281.45 0 0 1 6.652-.19c.011 1.943.011 3.886-.01 5.818-2.08-.22-4.499.472-6.376-.536-.234-1.69-.213-3.391-.266-5.092ZM155.511 14.249a38.404 38.404 0 0 1 3.788-.599c.063 2.132.106 4.263.159 6.395 1.623.388 3.713-.231 5.071.913.095 1.386.138 2.762.117 4.148-1.751.052-3.501.094-5.252.136-.01 5.072-.138 10.164.403 15.225 1.91-.105 3.82-.241 5.719-.493.413 1.449.816 2.898 1.23 4.347-3.342.808-6.949 1.774-10.248.283-2.069-.588-3.469-2.488-3.544-4.588-.445-4.893-.095-9.807-.19-14.7l-3.045-.42c.074-2.08-.085-4.526 2.641-4.82.934-1.984 1.719-4.116 3.151-5.827ZM171.912 13.87c1.348.043 2.695.095 4.053.148.085 2.047.138 4.105.191 6.163 1.602.042 3.214.105 4.827.168.064 1.575.106 3.15.159 4.725-1.687.074-3.363.126-5.039.179.191 5.208-.637 10.531.764 15.634 1.708-.357 3.416-.745 5.124-1.113.403 1.512.817 3.024 1.22 4.536-4.318 1.313-10.906 2.216-13.346-2.562-.913-5.418-.181-10.993-.361-16.474l-2.949-.168c0-1.523 0-3.035.01-4.547a190.44 190.44 0 0 0 2.451-.094 55.97 55.97 0 0 1 2.896-6.594ZM251.908 20.696c4.785-1.649 11.129-.672 13.856 3.958 3.532 5.86 2.875 14.89-3.162 18.91-5.039 2.584-12.624 1.912-15.616-3.39-3.724-6.27-2.472-16.444 4.922-19.478Zm2.101 3.055c-4.753 2.016-4.965 8.264-4.01 12.569.615 3.969 5.368 6.783 9.081 4.82 4.647-2.248 4.721-8.453 3.713-12.78-.742-3.79-5.188-6.142-8.784-4.609ZM275.25 22.964c2.514-2.594 5.994-3.644 9.505-2.52-1.008 4.147-6.535 1.953-8.105 5.607-2.854 5.701-.615 12.421-1.464 18.532-1.05.021-3.151.053-4.191.074-.403-8.001-.116-16.013-.201-24.024 1.443-.053 2.886-.116 4.328-.158l.128 2.489ZM309.127 21.42c4.573-2.53 10.408-1.627 14.567 1.323-.541.704-1.613 2.09-2.143 2.793-3.173-1.554-8.095-3.885-10.79-.357-1.4 5.082 5.485 4.725 8.583 6.206 5.379 1.123 6.747 8.883 2.355 11.949-5.092 3.318-11.829 1.69-16.73-1.218a42.926 42.926 0 0 1 2.005-2.972c3.352 1.491 7.002 3.728 10.789 2.195 1.92-.798 2.069-2.856 1.729-4.652-3.055-2.793-7.723-2.457-11.001-4.882-3.363-2.447-3.002-8.327.636-10.385ZM102.352 20.538c2.068-.042 4.148-.073 6.227-.105 1.528 5.828 2.801 11.718 4.095 17.598 1.284-5.838 2.78-11.634 4.18-17.45 2.207-.064 4.424-.106 6.631-.148 1.602 5.86 3.002 11.77 4.307 17.703 1.231-5.9 2.663-11.76 4.053-17.63 2.111-.01 4.232 0 6.344.022-2.112 7.927-4.17 15.918-6.907 23.656-2.09.693-4.784.903-6.779-.147-1.91-5.386-2.769-11.077-4.286-16.58-1.496 5.723-2.652 11.53-4.424 17.179a695.797 695.797 0 0 1-6.62-.084c-2.408-7.97-4.933-15.908-6.821-24.014ZM140.324 44.394c.032-7.97-.191-15.95.148-23.919 2.122 0 4.244 0 6.355.021.17 8.043.181 16.097 0 24.15-2.175-.052-4.339-.115-6.503-.252ZM183.031 20.538c2.016-.031 4.042-.084 6.069-.094 1.867 4.809 3.532 9.702 5.071 14.626 1.273-4.924 2.896-9.744 4.498-14.574 2.047.01 4.095.042 6.142.105-1.909 7.12-4.423 14.06-6.556 21.116-1.22 3.77-2.207 7.864-5.103 10.773-2.461 2.352-6.142 1.407-9.187 1.46.159-1.523.329-3.035.509-4.547a40.892 40.892 0 0 0 4.063-.389c1.082-1.197 1.793-2.667 2.621-4.042-2.759-8.127-5.655-16.212-8.127-24.434ZM212.781 20.496c1.475.01 2.95.021 4.424.042 1.485 6.5 2.96 13 4.403 19.499 1.644-6.542 3.565-13.02 5.4-19.52 1.305 0 2.62 0 3.936.01 1.867 6.427 3.702 12.874 5.421 19.342 1.528-6.447 2.896-12.915 4.424-19.362 1.464 0 2.928.01 4.392.02-2.047 8.044-4.233 16.045-6.408 24.056l-4.71.063c-1.814-6.216-3.469-12.463-5.135-18.721-1.506 6.258-3.299 12.442-5.007 18.648-1.57.031-3.141.052-4.711.073a829.374 829.374 0 0 1-6.429-24.15ZM204.948 38.776c2.154-1.543 5.336.525 4.848 3.077-.063 2.657-3.872 3.853-5.474 1.722-1.506-1.407-1.029-3.728.626-4.799Z" fill="#fff"/><path opacity=".76" d="M43.403 13.482c.456 1.165.913 2.33 1.252 3.528l-.51 3.286c-1.58.515-3.15 1.05-4.73 1.586-.436-1.113-.87-2.226-1.306-3.329 1.793-1.659 3.597-3.307 5.294-5.071Z" fill="#fff"/><path opacity=".41" d="m44.146 20.296.509-3.286c1.284 2.194 2.716 4.567 2.493 7.203a75.568 75.568 0 0 1-3.013 5.439c-1.793-2.457-3.533-4.967-4.72-7.77 1.58-.536 3.15-1.071 4.73-1.586Z" fill="#fff"/><path d="M21.76 28.171c1.454 2.457 2.886 4.935 4.33 7.403-1.232 2.383-2.473 4.756-3.703 7.13-1.443-2.51-2.94-4.988-4.371-7.498 1.252-2.341 2.493-4.693 3.745-7.035Z" fill="#fff"/><path d="M26.085 35.574c1.326 2.279 2.631 4.568 3.979 6.836a1063.741 1063.741 0 0 0-3.777 6.898 348.44 348.44 0 0 1-3.904-6.604c1.23-2.373 2.472-4.746 3.702-7.13Z" fill="#fff"/><path d="M51.472 40.414c1.294-.85 3.087-1.165 4.498-.388 2.026 2.446 3.246 5.46 5.39 7.833a173.862 173.862 0 0 0 2.44-3.97c.36 2.92.742 5.839 1.198 8.747l-.074.578c-4 2.173-9.156.168-11.055-3.79-1.379-2.752-4.72-5.88-2.397-9.01Z" fill="#fff"/><path d="M26.29 49.308c1.252-2.31 2.515-4.61 3.777-6.898a52.268 52.268 0 0 0 3.809 5.565c-.775 2.016-1.422 4.074-2.09 6.121-2.207-1.06-4.117-2.572-5.708-4.41l.212-.378Z" fill="#fff"/></svg>