<svg width="24" height="24" viewBox="0 0 24 24" fill="none" xmlns="http://www.w3.org/2000/svg">
<path fill-rule="evenodd" clip-rule="evenodd" d="M20 4C19.4477 4 19 4.44772 19 5V14H6.41421L8.70711 11.7071C9.09763 11.3166 9.09763 10.6834 8.70711 10.2929C8.31658 9.90237 7.68342 9.90237 7.29289 10.2929L3.29289 14.2929C2.90237 14.6834 2.90237 15.3166 3.29289 15.7071L7.29289 19.7071C7.68342 20.0976 8.31658 20.0976 8.70711 19.7071C9.09763 19.3166 9.09763 18.6834 8.70711 18.2929L6.41421 16H19C20.1046 16 21 15.1046 21 14V5C21 4.44772 20.5523 4 20 4Z" fill="currentColor"/>
</svg>
