<svg width="1em" height="1em" fill="none" viewBox="0 0 24 24" xmlns="http://www.w3.org/2000/svg" focusable="false" aria-hidden="true"><path d="m10.5 4.5c.28 0 .5.22.5.5v2h6v6h2c.28 0 .5.22.5.5s-.22.5-.5.5h-2v6h-2.12c-.68-1.75-2.39-3-4.38-3s-3.7 1.25-4.38 3h-2.12v-2.12c1.75-.68 3-2.39 3-4.38s-1.24-3.7-2.99-4.38l-.01-2.12h6v-2c0-.28.22-.5.5-.5zm0-2c-1.38 0-2.5 1.12-2.5 2.5h-4c-1.1 0-1.99.9-1.99 2v3.8h.29c1.49 0 2.7 1.21 2.7 2.7s-1.21 2.7-2.7 2.7h-.3v3.8c0 1.1.9 2 2 2h3.8v-.3c0-1.49 1.21-2.7 2.7-2.7s2.7 1.21 2.7 2.7v.3h3.8c1.1 0 2-.9 2-2v-4c1.38 0 2.5-1.12 2.5-2.5s-1.12-2.5-2.5-2.5v-4c0-1.1-.9-2-2-2h-4c0-1.38-1.12-2.5-2.5-2.5z" fill="currentColor"></path></svg>
