<svg fill="none" viewBox="0 0 104 24"><g clip-path="url(#clip0)" opacity=".3"><path fill="#fff" d="M16.136 4.589V.556h4.143v4.033h-4.143zm0 18.583V6.169h4.143v17.003h-4.143zm10.02 0h-4.142V6.169h4.03V9.33c1.287-1.853 3.135-3.488 5.654-3.488.448 0 .727.055.951.11v3.814c-.336-.055-.951-.055-1.231-.055-1.903 0-5.318 1.744-5.318 5.123v8.338h.056zm7.669 0V.556h7.444c1.96 0 8.62 0 8.62 5.504 0 3.815-3.022 4.796-4.59 5.34 1.792.436 5.15 1.363 5.15 5.56 0 3.432-2.63 6.212-8.62 6.212h-8.004zM38.19 9.766h3.078c3.975 0 4.31-2.29 4.31-3.052 0-2.833-3.022-2.833-3.918-2.833h-3.47v5.885zm0 10.082h2.743c2.91 0 4.982-.927 4.982-3.38 0-1.58-.896-3.432-4.702-3.432H38.19v6.812zm24.014 3.324l-.448-1.799c-1.008.872-2.687 2.18-5.262 2.18-3.135 0-5.373-1.962-5.373-4.686 0-1.745.671-3.815 4.478-5.123l4.981-1.635c.728-.218.784-.273.784-.763v-.708c0-1.417-1.343-1.853-2.967-1.853-2.743 0-5.262 1.635-6.269 2.288V7.532c1.12-.6 3.247-1.799 6.885-1.799 5.43 0 6.493 2.67 6.493 5.885v11.5l-3.303.054zm-4.534-7.303c-1.736.6-2.352 1.417-2.352 2.616 0 1.69 1.512 2.071 2.24 2.071.672 0 2.127-.218 3.806-1.907v-4.197c-.224.164-.336.218-1.063.491l-2.631.926zm-46.629 7.303l-.447-1.799c-1.008.872-2.631 2.18-5.262 2.18-3.135 0-5.318-1.962-5.318-4.686 0-1.745.616-3.815 4.478-5.123l5.038-1.635c.728-.218.784-.273.784-.763v-.708c0-1.417-1.344-1.853-2.967-1.853-2.743 0-5.262 1.635-6.27 2.288V7.532c1.12-.6 3.248-1.799 6.886-1.799 5.43 0 6.493 2.67 6.493 5.885v11.5l-3.415.054zm-4.478-7.303c-1.735.6-2.35 1.417-2.35 2.616 0 1.69 1.51 2.071 2.238 2.071.672 0 2.128-.218 3.807-1.907v-4.197c-.224.164-.336.218-1.064.491l-2.63.926zm60.678 7.303V.556h4.142v22.616h-4.142zm7.67-13.951h-2.52V6.115h2.52V.502h4.142v5.613h3.134V9.22h-3.134v8.61c0 1.254.167 2.398 2.07 2.398.504 0 .896-.055 1.232-.11v3.053c-.56.054-1.12.108-1.959.108-4.646 0-5.486-2.234-5.486-5.23V9.22zm8.899-4.632V.502h4.142v4.087H83.81zm0 18.583V6.169h4.142v17.003H83.81zm19.312-12.425c-.839-.708-2.183-1.744-4.534-1.744-3.582 0-5.037 2.888-5.037 5.667 0 1.199.335 5.668 4.925 5.668 2.407 0 3.919-1.035 5.038-1.798v3.596c-.84.436-2.743 1.363-5.71 1.363-5.933 0-8.452-4.36-8.452-8.883 0-4.687 2.743-8.883 8.62-8.883 2.855 0 4.423.872 5.15 1.254v3.76z"/></g><defs><clipPath id="clip0"><path fill="#fff" d="M0 0h103.5v23H0z" transform="translate(.015 .5)"/></clipPath></defs></svg>