<svg width="80" height="36" viewBox="0 0 80 36" fill="none" xmlns="http://www.w3.org/2000/svg">
<g opacity="0.4">
<path d="M24.5004 10.7406C24.925 10.7406 25.2693 10.3963 25.2693 9.97168C25.2693 9.54702 24.925 9.20276 24.5004 9.20276C24.0757 9.20276 23.7314 9.54702 23.7314 9.97168C23.7314 10.3963 24.0757 10.7406 24.5004 10.7406Z" fill="white"/>
<path d="M17.9714 0.057251C8.04911 0.057251 0 8.09818 0 18.0287C0 27.951 8.04911 36.0001 17.9714 36.0001C27.8938 36.0001 35.9429 27.951 35.9429 18.0287C35.9429 8.09818 27.8938 0.057251 17.9714 0.057251ZM28.0983 23.7629H19.1903V22.3314H28.0901V23.7629H28.0983ZM26.6831 10.1105C26.6831 10.1105 26.0369 11.0512 26.3723 13.2761C27.0021 17.4561 24.8099 21.1698 20.9162 21.1698H18.0451V22.315C18.0451 22.315 16.3109 22.315 15.7465 22.315C15.1821 22.315 14.0532 22.225 13.5461 22.7158C8.43357 27.6075 7.35381 29.0144 6.99389 29.2107C6.76485 29.3334 6.70759 29.0635 6.70759 29.0635L21.497 10.8303C21.497 7.54194 25.088 6.66668 26.5195 9.10432L28.4255 8.44174L26.6831 10.1105Z" fill="white"/>
<path d="M49.6426 14.1923H49.6017C49.2991 14.9612 48.7019 15.9428 47.0168 15.9428C44.2602 15.9428 43.1641 13.6442 43.1641 9.59513C43.1641 4.35994 45.0046 3.55012 46.796 3.55012C48.0639 3.55012 49.0291 4.18815 49.4708 5.23519H49.5117V0H51.8758V15.632H49.6426V14.1923ZM47.4995 5.43151C46.1416 5.43151 45.659 6.52763 45.659 9.70147C45.659 12.3763 46.0107 14.0614 47.6549 14.0614C49.2745 14.0614 49.6508 12.4009 49.6508 9.88143C49.6426 7.05115 49.3154 5.43151 47.4995 5.43151Z" fill="white"/>
<path d="M62.1143 13.1868C62.1143 13.6285 62.3761 14.0212 62.7278 14.0212C62.8832 14.0212 63.0305 13.9966 63.1205 13.9557V15.4854C62.8342 15.6163 62.417 15.7717 61.9589 15.7717C60.9119 15.7717 60.0284 15.3545 59.963 14.2175H59.9221C59.284 15.379 58.3679 15.9435 56.9855 15.9435C55.1041 15.9435 53.918 14.8964 53.918 12.6387C53.918 10.013 55.055 9.46491 56.6583 8.94139L58.4988 8.43423C59.3495 8.19701 59.8812 7.95161 59.8812 6.92093C59.8812 5.84936 59.5131 5.17042 58.2615 5.17042C56.6828 5.17042 56.4701 6.29108 56.4701 7.4281H54.237C54.237 4.9332 55.2677 3.55078 58.3761 3.55078C60.4538 3.55078 62.1225 4.3606 62.1225 6.43832V13.1868H62.1143ZM59.8812 9.41583C59.2677 9.89845 57.9507 10.1847 57.2554 10.5119C56.5765 10.8391 56.2902 11.5426 56.2902 12.4179C56.2902 13.3995 56.7728 14.1929 57.7544 14.1929C59.1777 14.1929 59.8812 13.1214 59.8812 11.3872V9.41583Z" fill="white"/>
<path d="M63.6732 3.85245H65.2928V0.498657H67.6569V3.85245H69.5873V5.60297H67.6569V12.6296C67.6569 13.5457 67.9186 13.8811 68.7284 13.8811C69.0802 13.8811 69.3665 13.8566 69.5792 13.8157V15.5662C69.072 15.6971 68.4176 15.7625 67.6732 15.7625C66.0781 15.7625 65.2847 15.3208 65.2847 12.9159V5.60297H63.665V3.85245H63.6732Z" fill="white"/>
<path d="M78.7593 13.1861C78.7593 13.6278 79.0211 14.0204 79.3728 14.0204C79.5283 14.0204 79.6755 13.9959 79.7655 13.955V15.4847C79.4792 15.6155 79.062 15.771 78.6039 15.771C77.5569 15.771 76.6734 15.3538 76.608 14.2168H76.5671C75.9291 15.3783 75.0129 15.9427 73.6305 15.9427C71.7491 15.9427 70.563 14.8957 70.563 12.638C70.563 10.0122 71.7 9.46418 73.3033 8.94066L75.1438 8.4335C75.9945 8.19628 76.5262 7.95088 76.5262 6.9202C76.5262 5.84862 76.1581 5.16969 74.9066 5.16969C73.3278 5.16969 73.1152 6.29034 73.1152 7.42736H70.882C70.882 4.93247 71.9127 3.55005 75.0211 3.55005C77.0988 3.55005 78.7675 4.35987 78.7675 6.43758V13.1861H78.7593ZM76.5262 9.4151C75.9127 9.89772 74.5957 10.184 73.9004 10.5112C73.2215 10.8384 72.9352 11.5419 72.9352 12.4172C72.9352 13.3988 73.4178 14.1922 74.3994 14.1922C75.8227 14.1922 76.5262 13.1206 76.5262 11.3865V9.4151Z" fill="white"/>
<path d="M43.7383 19.8202H46.1023V22.1842H43.7383V19.8202ZM43.7383 23.8529H46.1023V35.6321H43.7383V23.8529Z" fill="white"/>
<path d="M48.7148 20H51.0789V28.7771H51.1198L54.6862 23.8528L57.4265 23.8282L53.8764 28.3845L57.8846 35.632H55.2997L52.4122 30.2659L51.0789 31.8855V35.632H48.7148V20Z" fill="white"/>
<path d="M65.0791 34.2493H65.0136C64.4247 35.2963 63.304 35.9344 61.9952 35.9344C60.2447 35.9344 59.0586 35.1246 59.0586 32.0816V23.8525H61.4226V32.3025C61.4226 33.6194 62.0116 34.053 63.0177 34.053C64.0238 34.053 64.9482 33.3986 64.9482 32.0816V23.8525H67.3122V35.6317H65.0791V34.2493Z" fill="white"/>
</g>
</svg>
