<svg fill="none" viewBox="0 0 127 30"><g clip-path="url(#clip0)" opacity=".4"><path fill="#E6E7E8" d="M51.978 16.171c-.206 5.232-4.329 9.307-9.461 9.307-5.413 0-9.436-4.381-9.436-9.668 0-5.336 4.359-9.72 9.668-9.72 2.397 0 4.742 1.033 6.73 2.888l-1.546 1.906c-1.52-1.316-3.352-2.216-5.18-2.216-3.894 0-7.088 3.197-7.088 7.139 0 3.996 3.017 7.09 6.858 7.09 3.455 0 6.162-2.526 6.704-5.774H41.39v-2.294h10.594v1.342h-.007zm8.994-1.261h-1.446a2.888 2.888 0 00-2.887 2.887v7.526h-2.577V12.436h2.113v1.084c.697-.697 1.803-1.084 3.042-1.084H62l-1.03 2.474zM75.02 25.323h-2.19V23.7c-1.694 1.655-4.368 2.448-7.074 1.261-2.007-.88-3.5-2.71-3.897-4.867-.768-4.168 2.438-7.865 6.535-7.865 1.726 0 3.274.697 4.407 1.83v-1.623h2.216v12.887h.003zm-2.639-5.517c.61-2.619-1.374-5-3.96-5a4.055 4.055 0 00-4.05 4.049 4.045 4.045 0 004.769 4.01 4.062 4.062 0 003.241-3.058zm7.833-8.093v.723h4.1v2.267h-4.1v10.62h-2.552V11.79c0-2.835 2.036-4.51 4.587-4.51h3.094L84.31 9.704h-2.062c-1.132 0-2.035.9-2.035 2.01zm17.761 13.61h-2.19V23.7c-1.694 1.655-4.368 2.448-7.074 1.261-2.007-.88-3.5-2.71-3.897-4.867-.768-4.168 2.439-7.865 6.535-7.865 1.726 0 3.275.697 4.407 1.83v-1.623h2.216v12.887h.003zm-2.635-5.517c.61-2.619-1.374-5-3.962-5a4.055 4.055 0 00-4.048 4.049 4.045 4.045 0 004.768 4.01 4.066 4.066 0 003.242-3.058zm16.403-2.112v7.629h-2.577v-7.63a2.902 2.902 0 00-2.888-2.886 2.89 2.89 0 00-2.912 2.887v7.629h-2.578V12.436h2.139v1.11a5.225 5.225 0 013.455-1.314c2.99-.003 5.361 2.446 5.361 5.462zm15.158 7.629h-2.19V23.7c-1.694 1.655-4.368 2.448-7.075 1.261-2.006-.88-3.5-2.71-3.896-4.867-.768-4.168 2.438-7.865 6.535-7.865 1.726 0 3.274.697 4.407 1.83v-1.623h2.216v12.887h.003zm-2.636-5.517c.61-2.619-1.374-5-3.961-5a4.055 4.055 0 00-4.048 4.049 4.045 4.045 0 004.768 4.01 4.065 4.065 0 003.241-3.058z"/><path fill="#fff" d="M27.7 13.226a10.523 10.523 0 00-.3-1.726 11.094 11.094 0 00-.773-2.068 11.425 11.425 0 00-2.236-3.051c.423-1.678-.513-3.13-.513-3.13-1.613-.1-2.639.5-3.02.778-.064-.026-.125-.055-.19-.08a10.16 10.16 0 00-.848-.307c-.29-.09-.587-.174-.89-.248a12.352 12.352 0 00-.926-.181c-.055-.01-.11-.016-.165-.023C17.136.94 15.114 0 15.114 0c-2.252 1.43-2.681 3.43-2.681 3.43s-.01.044-.023.119c-.126.035-.248.07-.374.11-.174.05-.342.115-.516.177-.171.067-.342.132-.513.206a10.63 10.63 0 00-1.946 1.084l-.076-.036c-3.12-1.19-5.89.242-5.89.242-.252 3.32 1.244 5.41 1.541 5.788a14.167 14.167 0 00-.716 2.945c-.016.112-.029.229-.042.345C.998 15.832.143 18.752.143 18.752c2.406 2.768 5.21 2.938 5.21 2.938.002-.003.006-.003.006-.006.358.636.77 1.242 1.232 1.806.194.236.4.465.61.684-.878 2.507.122 4.597.122 4.597 2.678.1 4.439-1.17 4.807-1.464.267.09.535.17.81.242a12.254 12.254 0 003.138.387h.103l.068-.004.132-.003.133-.006.003.003c1.261 1.8 3.48 2.055 3.48 2.055 1.578-1.665 1.668-3.313 1.668-3.671v-.074c0-.026-.003-.049-.003-.078a9.74 9.74 0 00.945-.748 9.89 9.89 0 001.768-2.123c1.787.103 3.045-1.106 3.045-1.106-.297-1.861-1.358-2.768-1.577-2.942l-.023-.016a.199.199 0 01-.02-.016l-.038-.026c.01-.113.02-.223.026-.336.013-.2.02-.4.02-.6v-.313l-.007-.125-.01-.168a2.363 2.363 0 00-.013-.162 2.538 2.538 0 00-.016-.154l-.02-.155-.022-.155a7.77 7.77 0 00-1.029-2.858 7.76 7.76 0 00-1.506-1.8 7.591 7.591 0 00-1.91-1.23 7.425 7.425 0 00-2.11-.593 7.883 7.883 0 00-1.064-.06l-.133.002h-.077l-.055.003-.129.01a4.877 4.877 0 00-.68.09 6.01 6.01 0 00-1.965.74 5.887 5.887 0 00-2.477 2.913 5.768 5.768 0 00-.381 1.735 4.671 4.671 0 00-.007.532l.004.116.016.207a4.47 4.47 0 001.936 3.297c.39.267.806.457 1.219.577.412.122.822.174 1.21.174.048 0 .096 0 .145-.003.025 0 .051-.004.077-.004.026 0 .052-.003.077-.003.042-.003.08-.01.123-.013.01 0 .022-.003.035-.003l.04-.006.073-.01c.052-.006.094-.016.142-.026.045-.01.09-.016.136-.029a3.464 3.464 0 00.732-.271 3.84 3.84 0 00.41-.248l.106-.08a.308.308 0 00-.339-.51c-.032.015-.064.035-.096.051a2.91 2.91 0 01-.355.145 3.63 3.63 0 01-.39.097c-.068.01-.136.02-.207.026a1.192 1.192 0 01-.103.006c-.036 0-.071.003-.104.003-.032 0-.067 0-.1-.003-.041-.003-.083-.003-.125-.006h-.016l-.03-.004c-.019-.003-.038-.003-.054-.006-.039-.003-.075-.01-.113-.013a3.21 3.21 0 01-.903-.264 3.224 3.224 0 01-1.488-1.368 3.108 3.108 0 01-.354-1.023 2.897 2.897 0 01-.036-.555c.003-.051.003-.1.007-.151v-.03l.003-.038.006-.074c.01-.1.026-.2.042-.3a3.935 3.935 0 012.207-2.878c.197-.09.4-.164.61-.219a3.73 3.73 0 01.97-.126h.075l.09.004.055.003h.032l.09.006a5.066 5.066 0 012.042.613 4.913 4.913 0 012 2.078 4.728 4.728 0 01.497 1.764l.006.094.004.093a.915.915 0 01.003.094c0 .032.003.064 0 .087v.08l-.003.09c-.004.062-.007.159-.01.22-.01.136-.023.268-.039.403a8.497 8.497 0 01-.061.397 7.679 7.679 0 01-.087.39 6.49 6.49 0 01-1.026 2.177 6.384 6.384 0 01-2.49 2.04 6.23 6.23 0 01-2.358.554l-.052.004h-.358a6.546 6.546 0 01-.436-.023 8.432 8.432 0 01-5.952-3.145 8.463 8.463 0 01-.928-1.436 8.314 8.314 0 01-.89-3.242l-.007-.106-.003-.026v-.068l-.003-.093v-.119l-.004-.13v-.086c0-.068.004-.136.004-.207.01-.277.032-.561.07-.845a11.232 11.232 0 01.349-1.694c.158-.551.355-1.087.59-1.593.468-1.013 1.081-1.907 1.82-2.623a7.655 7.655 0 011.19-.955c.21-.138.429-.267.655-.383.11-.062.226-.113.339-.168l.174-.078c.058-.025.116-.051.174-.074.232-.1.474-.18.716-.258.061-.02.123-.035.184-.055.061-.02.122-.032.184-.051.122-.036.248-.065.37-.094.062-.016.127-.029.188-.042l.187-.039c.065-.012.126-.022.19-.035l.094-.016.093-.013.19-.03c.072-.012.143-.015.214-.028.058-.007.154-.02.212-.026.046-.003.09-.01.136-.013l.09-.01.046-.003.051-.003c.071-.003.142-.01.216-.013l.107-.006h.029l.045-.004.184-.01a9.614 9.614 0 012.136.158 9.819 9.819 0 012.557.852c.78.381 1.48.852 2.087 1.362.04.032.075.064.113.097.036.032.075.064.11.096.074.065.145.133.216.197.071.065.139.132.207.2.067.068.135.136.196.203a10.865 10.865 0 011.762 2.471c.016.032.035.065.051.1.016.033.033.065.049.1.032.065.064.13.093.194.03.064.061.129.087.19a10.691 10.691 0 01.352.894c.126.358.22.684.29.967a.238.238 0 00.468-.051c-.02-.323-.026-.678-.061-1.084z"/></g><defs><clipPath id="clip0"><path fill="#fff" d="M0 0h126.774v30H0z" transform="translate(.143)"/></clipPath></defs></svg>