<svg fill="none" viewBox="0 0 115 34"><g fill="#fff" opacity=".4"><path d="M46.634 19.373h-2.197a.617.617 0 01-.604-.604v-6.947a.617.617 0 00-.603-.604h-1.896a.617.617 0 00-.604.604v17.561c0 .345.302.604.604.604h1.896a.617.617 0 00.603-.604v-6.817c0-.345.302-.604.604-.604h2.197c.345 0 .604.302.604.604v6.86c0 .346.301.605.603.605h1.896a.617.617 0 00.604-.605V11.822a.617.617 0 00-.604-.604h-1.896a.617.617 0 00-.603.604v6.904c0 .345-.259.647-.604.647zm9.735-7.638l-3.103 17.562c-.043.345.216.69.56.69h1.897c.302 0 .56-.215.56-.517l.517-3.194c.043-.302.302-.517.56-.517h2.414c.301 0 .56.215.56.517l.56 3.237c.043.302.302.517.56.517h1.983c.388 0 .69-.345.56-.733l-3.232-17.562c-.043-.302-.302-.517-.56-.517h-3.232c-.302 0-.518.215-.604.517zm2.888 11.392h-1.25c-.388 0-.603-.345-.56-.69l.56-6.473c.13-.69 1.077-.69 1.163 0l.604 6.472c.086.346-.173.69-.517.69zm13.275-4.014H70.42c-.388 0-.603-.172-.603-.604v-4.056c0-.388.215-.604.603-.604h1.25c.388 0 .603.173.603.604v1.899c0 .345.302.604.603.604h1.983a.617.617 0 00.603-.604v-2.373c0-1.855-.991-2.805-2.973-2.805h-2.845c-1.982 0-2.973.95-2.973 2.805v4.832c0 1.856.991 2.848 2.93 2.848h2.112c.388 0 .603.173.603.604v4.488c0 .388-.172.604-.603.604h-1.25c-.388 0-.603-.173-.603-.604v-1.899a.617.617 0 00-.603-.604h-1.983a.617.617 0 00-.603.604v2.373c0 1.856.991 2.805 2.973 2.805h2.802c1.982 0 2.973-.95 2.973-2.805v-5.22c.043-1.942-.991-2.892-2.887-2.892zm11.767 7.638c0 .389-.172.604-.603.604h-1.681c-.388 0-.603-.172-.603-.604v-14.93a.617.617 0 00-.604-.603h-1.982a.617.617 0 00-.603.604V27.14c0 1.855.99 2.804 2.973 2.804h3.232c1.983 0 2.974-.95 2.974-2.804V11.822a.617.617 0 00-.603-.604h-1.854a.617.617 0 00-.603.604l-.043 14.93zm15.599-6.99v-5.739c0-1.855-.991-2.805-2.974-2.805h-5.602a.617.617 0 00-.603.604v17.562c0 .345.301.604.603.604h1.896a.617.617 0 00.604-.604v-6.17c0-.346.301-.604.603-.604.215 0 .43.172.56.388l2.457 6.602c.129.215.344.388.56.388h2.068c.388 0 .733-.388.561-.777l-2.37-6.127c-.13-.302.042-.604.344-.776.776-.432 1.293-1.338 1.293-2.546zm-3.146-5.307v4.918c0 .389-.215.605-.603.605h-1.724a.617.617 0 01-.603-.605v-4.918c0-.346.301-.604.603-.604h1.724c.388 0 .603.215.603.604zm13.445-3.237h-3.232c-.302 0-.56.216-.56.518l-3.103 17.562c-.043.345.216.69.56.69h1.896c.302 0 .561-.216.561-.518l.517-3.193c.043-.302.301-.517.56-.517h2.413c.302 0 .561.215.561.517l.56 3.236c.043.302.301.518.56.518h1.982c.388 0 .69-.345.561-.733l-3.232-17.562c-.087-.302-.302-.518-.604-.518zm-.991 11.91h-1.164c-.387 0-.603-.346-.56-.69l.56-5.912c.13-.69 1.078-.69 1.164 0l.603 5.911a.611.611 0 01-.603.69zM28.618 11.303c.949-2.287.949-6.947-.301-10.529-.345-.647-1.293-.431-1.336.26v.258c-.216 3.409-1.465 5.264-3.318 6.17-.302.13-.776.13-1.078-.086a14.19 14.19 0 00-7.584-2.2c-2.802 0-5.387.82-7.585 2.2-.302.173-.647.216-.948.086-1.896-.69-3.19-2.761-3.405-6.213V.991C3.02.301 2.03.085 1.727.732.477 4.357.521 9.017 1.426 11.304c.474 1.122.474 2.416.086 3.581a13.362 13.362 0 00-.733 4.746c.173 7.508 6.55 13.894 14.05 14.024 7.929.086 14.393-6.3 14.393-14.24a14.26 14.26 0 00-.733-4.53 5.123 5.123 0 01.13-3.581zm-13.79 18.942c-5.774-.13-10.515-4.833-10.601-10.615-.13-6.17 4.87-11.175 10.99-11.046 5.774.087 10.514 4.833 10.6 10.615.13 6.127-4.87 11.132-10.989 11.046z"/><path d="M16.68 18.25l-2.542-3.926c-.388-.647-1.25-.82-1.896-.431-.388.258-.646.69-.646 1.165 0 .258.086.517.215.733l1.724 2.675a.586.586 0 01-.043.648l-2.672 2.934a1.37 1.37 0 00.086 1.941c.259.216.603.346.948.346a1.4 1.4 0 00.991-.432l1.983-2.33c.172-.172.43-.172.56.043l1.422 2.028a.846.846 0 00.388.389 1.362 1.362 0 001.551.043c.388-.26.647-.69.647-1.165 0-.26-.086-.518-.216-.734l-2.5-3.926z"/></g></svg>