<svg xmlns="http://www.w3.org/2000/svg" width="150" height="36" fill="none" viewBox="0 0 150 36"><g clip-path="url(#clip0)" opacity=".4"><path fill="#fff" d="M25.5701 11.6039C25.5701 14.5352 25.6489 15.8127 26.0076 16.1714C26.3314 16.4864 26.8476 16.6352 28.4139 16.6352C29.4726 16.6352 30.3564 16.6177 30.8464 16.0314C31.1001 15.7164 31.3014 15.2089 31.3626 14.8327C31.3801 14.6752 31.4151 14.5702 31.5376 14.5702C31.6426 14.5702 31.6601 14.6577 31.6601 14.8764C31.6601 15.0952 31.5201 16.2939 31.3626 16.8714C31.2226 17.3264 31.1614 17.4052 30.0939 17.4052C27.2064 17.4052 25.8851 17.2914 24.7214 17.2914C24.5464 17.2914 23.3651 17.3439 22.7614 17.3439C22.5339 17.3439 22.4376 17.3089 22.4376 17.1952C22.4376 17.1339 22.4726 17.0727 22.5951 17.0727C22.7789 17.0727 23.0239 17.0377 23.1989 16.9939C23.6014 16.9152 23.7064 16.4689 23.7764 15.8914C23.8814 15.0602 23.8814 13.4764 23.8814 11.5602V8.04265C23.8814 4.9364 23.8814 4.36765 23.8376 3.7289C23.8026 3.0464 23.6451 2.7314 22.9801 2.5914C22.8226 2.54765 22.4726 2.53015 22.2976 2.53015C22.2189 2.53015 22.1401 2.49515 22.1401 2.4164C22.1401 2.2939 22.2364 2.25015 22.4551 2.25015C23.3651 2.25015 24.6251 2.3114 24.7214 2.3114C24.8264 2.3114 26.2876 2.25015 26.8914 2.25015C27.1101 2.25015 27.2064 2.2939 27.2064 2.4164C27.2064 2.49515 27.1276 2.53015 27.0489 2.53015C26.9089 2.53015 26.6289 2.54765 26.3839 2.5914C25.8064 2.68765 25.6489 3.0289 25.6051 3.7289C25.5701 4.36765 25.5701 4.9364 25.5701 8.04265V11.6039ZM34.2151 15.4277C33.8564 16.4339 33.4539 17.1952 32.5264 17.3089C32.3689 17.3264 32.0801 17.3527 31.9489 17.3527C31.8439 17.3527 31.7651 17.3877 31.7651 17.4752C31.7651 17.5889 31.8876 17.6239 32.1501 17.6239C33.0951 17.6239 34.1976 17.5714 34.4164 17.5714C34.6351 17.5714 35.4926 17.6239 35.9739 17.6239C36.1576 17.6239 36.2801 17.5889 36.2801 17.4752C36.2801 17.3877 36.2189 17.3527 36.0789 17.3527H35.8776C35.5364 17.3527 35.1164 17.1689 35.1164 16.7664C35.1164 16.4077 35.2126 15.9264 35.3964 15.4277L36.5951 11.9014C36.6389 11.7964 36.6914 11.7439 36.7964 11.7439H41.1101C41.2064 11.7439 41.2501 11.7789 41.2939 11.8577L43.1576 16.7664C43.2714 17.0902 43.1576 17.2739 43.0351 17.3089C42.9564 17.3264 42.8864 17.3702 42.8864 17.4489C42.8864 17.5714 43.1226 17.5714 43.4989 17.5889C44.8814 17.6239 46.3426 17.6239 46.6401 17.6239C46.8589 17.6239 47.0426 17.5889 47.0426 17.4752C47.0426 17.3702 46.9639 17.3527 46.8414 17.3527C46.6401 17.3527 46.3426 17.3264 46.0451 17.2302C45.6164 17.1077 45.0389 16.7839 44.3214 15.0077C43.0876 11.9802 39.9464 3.7289 39.6489 2.96765C39.4039 2.35515 39.3251 2.25015 39.2026 2.25015C39.0889 2.25015 39.0014 2.37265 38.7651 3.0289L34.2151 15.4277ZM37.0239 11.0177C36.9626 11.0177 36.9189 10.9827 36.9626 10.8777L38.7214 5.48765C38.8264 5.19015 38.9314 5.19015 39.0276 5.48765L40.9264 10.8777C40.9526 10.9564 40.9526 11.0177 40.8476 11.0177H37.0239ZM51.1726 14.9114C51.2164 16.5477 51.4176 17.0639 51.9601 17.2302C52.3451 17.3264 52.7826 17.3527 52.9664 17.3527C53.0626 17.3527 53.1239 17.3877 53.1239 17.4752C53.1239 17.5889 53.0101 17.6239 52.7651 17.6239C51.6189 17.6239 50.8226 17.5714 50.6389 17.5714C50.4551 17.5714 49.6151 17.6239 48.7139 17.6239C48.5126 17.6239 48.3901 17.6064 48.3901 17.4752C48.3901 17.3877 48.4514 17.3527 48.5564 17.3527C48.7139 17.3527 49.0726 17.3264 49.3789 17.2302C49.8776 17.0902 49.9739 16.5039 49.9739 14.6927L49.9914 3.2564C49.9914 2.4689 50.0526 2.25015 50.2101 2.25015C50.3764 2.25015 50.7176 2.68765 50.9189 2.8889C51.2164 3.23015 54.2089 6.4414 57.2976 9.74015C59.2751 11.8577 61.4626 14.2902 62.1014 14.9464L61.8826 4.80515C61.8651 3.51015 61.7251 3.07265 61.1039 2.9064C60.7451 2.82765 60.2814 2.81015 60.1151 2.81015C59.9751 2.81015 59.9576 2.7489 59.9576 2.67015C59.9576 2.5564 60.1151 2.53015 60.3601 2.53015C61.2614 2.53015 62.2239 2.5914 62.4514 2.5914C62.6701 2.5914 63.3351 2.53015 64.1489 2.53015C64.3764 2.53015 64.5076 2.5564 64.5076 2.67015C64.5076 2.7489 64.4289 2.81015 64.2889 2.81015C64.1926 2.81015 64.0439 2.81015 63.8076 2.86265C63.1426 3.0114 63.0726 3.4489 63.0726 4.64765L63.0289 16.3464C63.0289 17.6677 62.9851 17.7727 62.8451 17.7727C62.6876 17.7727 62.4514 17.5452 61.3839 16.4864C61.1564 16.2852 58.2776 13.3539 56.1514 11.0789C53.8239 8.58515 51.5576 6.06515 50.9189 5.34765L51.1726 14.9114ZM67.6314 11.5689C67.6314 13.4764 67.6314 15.0602 67.5351 15.9002C67.4564 16.4689 67.3514 16.9152 66.9489 16.9939C66.7739 17.0377 66.5376 17.0727 66.3451 17.0727C66.2314 17.0727 66.1876 17.1339 66.1876 17.1952C66.1876 17.3089 66.2926 17.3527 66.5114 17.3527C67.1151 17.3527 68.3751 17.2914 68.4801 17.2914C68.6814 17.2914 71.2014 17.5364 72.9251 17.5364C76.3376 17.5364 78.1401 16.1364 78.9976 15.2352C80.1264 14.0627 81.1589 12.1202 81.1589 9.60015C81.1589 7.2289 80.2226 5.57515 79.2164 4.5339C76.8364 2.07515 73.1614 2.25015 71.1839 2.25015C69.9764 2.25015 68.7164 2.32015 68.4801 2.32015C68.3751 2.32015 67.1151 2.25015 66.2139 2.25015C65.9864 2.25015 65.8901 2.2939 65.8901 2.4164C65.8901 2.49515 65.9689 2.53015 66.0476 2.53015C66.2314 2.53015 66.5726 2.5564 66.7389 2.5914C67.3951 2.7314 67.5526 3.05515 67.5964 3.7289C67.6314 4.3764 67.6314 4.9364 67.6314 8.04265V11.5689ZM69.3201 7.72765C69.3201 6.18765 69.3201 4.1489 69.3376 3.4664C69.3376 3.2564 69.3901 3.1514 69.5826 3.07265C69.7401 2.9939 70.4839 2.93265 70.8776 2.93265C73.2664 2.93265 75.5501 3.21265 77.4401 5.19015C78.2626 6.04765 79.3651 7.6839 79.3651 10.2214C79.3651 12.0589 78.7964 13.9839 77.7551 14.9989C76.5739 16.1714 74.8501 16.8452 72.9864 16.8452C70.6239 16.8452 69.8451 16.4252 69.5826 16.0577C69.4164 15.8302 69.3814 15.0339 69.3551 14.5352C69.3376 14.1589 69.3201 12.3214 69.3201 10.2039V7.72765ZM99.1226 15.0514C99.2101 15.7689 99.3414 16.8889 100.208 17.1689C100.794 17.3527 101.31 17.3527 101.511 17.3527C101.608 17.3527 101.669 17.3702 101.669 17.4489C101.669 17.5714 101.494 17.6239 101.249 17.6239C100.811 17.6239 98.6414 17.5714 97.9064 17.5102C97.4426 17.4752 97.3376 17.4139 97.3376 17.3089C97.3376 17.2302 97.3814 17.1952 97.4776 17.1689C97.5826 17.1427 97.6001 16.8102 97.5651 16.4514L96.6026 6.1439H96.5414L91.6326 16.5302C91.2039 17.4139 91.1514 17.5889 90.9676 17.5889C90.8276 17.5889 90.7314 17.3877 90.3464 16.6702C89.8301 15.6902 88.0976 12.2339 87.9926 12.0327C87.8176 11.6827 85.5689 6.88765 85.3501 6.34515H85.2714L84.4664 15.6114C84.4489 15.9264 84.4489 16.2852 84.4489 16.6264C84.4489 16.9327 84.6676 17.1952 84.9739 17.2477C85.3151 17.3352 85.6126 17.3527 85.7351 17.3527C85.8139 17.3527 85.8926 17.3877 85.8926 17.4489C85.8926 17.5889 85.7701 17.6239 85.5339 17.6239C84.7901 17.6239 83.8276 17.5714 83.6701 17.5714C83.4864 17.5714 82.5239 17.6239 81.9901 17.6239C81.7889 17.6239 81.6401 17.5889 81.6401 17.4489C81.6401 17.3877 81.7451 17.3527 81.8414 17.3527C82.0076 17.3527 82.1389 17.3527 82.4451 17.2914C83.1014 17.1689 83.1626 16.3902 83.2501 15.6289L84.6939 2.6089C84.7376 2.39015 84.7901 2.25015 84.9126 2.25015C85.0351 2.25015 85.1139 2.3289 85.2101 2.5564L91.3439 15.1039L97.2414 2.5739C97.3201 2.39015 97.4076 2.25015 97.5476 2.25015C97.6876 2.25015 97.7489 2.40765 97.7839 2.79265L99.1226 15.0514ZM104.215 15.4277C103.848 16.4339 103.445 17.1952 102.535 17.3089C102.369 17.3264 102.089 17.3527 101.949 17.3527C101.844 17.3527 101.765 17.3877 101.765 17.4752C101.765 17.5889 101.888 17.6239 102.141 17.6239C103.086 17.6239 104.189 17.5714 104.408 17.5714C104.635 17.5714 105.493 17.6239 105.974 17.6239C106.158 17.6239 106.271 17.5889 106.271 17.4752C106.271 17.3877 106.219 17.3527 106.079 17.3527H105.869C105.536 17.3527 105.116 17.1689 105.116 16.7664C105.116 16.4077 105.213 15.9264 105.396 15.4277L106.595 11.9014C106.639 11.7964 106.7 11.7439 106.796 11.7439H111.101C111.206 11.7439 111.25 11.7789 111.285 11.8577L113.149 16.7664C113.271 17.0902 113.149 17.2739 113.035 17.3089C112.956 17.3264 112.895 17.3702 112.895 17.4489C112.895 17.5714 113.114 17.5714 113.499 17.5889C114.873 17.6239 116.343 17.6239 116.64 17.6239C116.859 17.6239 117.034 17.5889 117.034 17.4752C117.034 17.3702 116.964 17.3527 116.841 17.3527C116.64 17.3527 116.343 17.3264 116.036 17.2302C115.616 17.1077 115.03 16.7839 114.313 15.0077C113.088 11.9802 109.946 3.7289 109.64 2.96765C109.404 2.35515 109.325 2.25015 109.203 2.25015C109.08 2.25015 108.993 2.37265 108.765 3.0289L104.215 15.4277ZM107.015 11.0177C106.954 11.0177 106.919 10.9827 106.954 10.8777L108.721 5.48765C108.826 5.19015 108.923 5.19015 109.019 5.48765L110.926 10.8777C110.944 10.9564 110.944 11.0177 110.848 11.0177H107.015ZM119.256 11.5602C119.256 13.4764 119.256 15.0602 119.16 15.8914C119.073 16.4689 118.976 16.9152 118.574 16.9939C118.399 17.0377 118.154 17.0727 117.979 17.0727C117.856 17.0727 117.813 17.1339 117.813 17.1952C117.813 17.3089 117.918 17.3439 118.136 17.3439C118.74 17.3439 120 17.2914 120.026 17.2914C120.123 17.2914 121.383 17.3439 122.485 17.3439C122.704 17.3439 122.809 17.2914 122.809 17.1952C122.809 17.1339 122.765 17.0727 122.651 17.0727C122.468 17.0727 122.021 17.0377 121.741 16.9939C121.146 16.9152 121.024 16.4689 120.963 15.8914C120.858 15.0602 120.858 13.4764 120.858 11.5602V11.0789C120.858 10.9827 120.901 10.9302 121.006 10.9302L123.474 10.9564C123.588 10.9564 123.649 11.0002 123.728 11.0789C124.13 11.6039 125.075 12.9339 125.915 14.0364C127.053 15.5327 127.761 16.5127 128.619 16.9677C129.144 17.2564 129.643 17.3439 130.763 17.3439H132.189C132.548 17.3439 132.679 17.3089 132.679 17.1952C132.679 17.1339 132.591 17.0727 132.486 17.0727C132.373 17.0727 132.093 17.0727 131.708 17.0114C131.209 16.9327 130.343 16.7052 129.258 15.5764C128.103 14.3339 126.738 12.5577 125.093 10.4577C126.895 8.8039 127.516 7.32515 127.516 5.8464C127.516 4.4639 126.641 3.49265 126.134 3.1339C125.075 2.37265 123.728 2.25015 122.468 2.25015C121.846 2.25015 120.324 2.3114 120.105 2.3114C120 2.3114 118.74 2.25015 117.839 2.25015C117.62 2.25015 117.515 2.2939 117.515 2.4164C117.515 2.49515 117.594 2.53015 117.673 2.53015C117.856 2.53015 118.189 2.54765 118.355 2.5914C119.02 2.7314 119.178 3.0464 119.221 3.7289C119.256 4.36765 119.256 4.9364 119.256 8.04265V11.5602ZM120.858 3.24765C120.858 3.1339 120.919 3.0464 121.024 3.0114C121.225 2.95015 121.768 2.89765 122.363 2.89765C124.515 2.89765 125.836 4.38515 125.836 6.8789C125.836 8.4014 125.311 9.47765 124.611 9.9589C124.156 10.2827 123.588 10.3352 123.106 10.3352C122.223 10.3352 121.304 10.2039 121.006 10.0202C120.901 9.9589 120.858 9.88015 120.858 9.7839V3.24765ZM135.006 8.04265C135.006 4.9364 135.006 4.36765 134.963 3.7289C134.928 3.0464 134.761 2.7314 134.105 2.5914C133.939 2.54765 133.598 2.53015 133.414 2.53015C133.335 2.53015 133.265 2.49515 133.265 2.4164C133.265 2.2939 133.361 2.25015 133.58 2.25015C134.481 2.25015 135.663 2.3114 135.785 2.3114C135.969 2.3114 137.133 2.25015 137.728 2.25015C137.946 2.25015 138.051 2.2939 138.051 2.4164C138.051 2.49515 137.964 2.53015 137.894 2.53015C137.754 2.53015 137.623 2.54765 137.386 2.5914C136.844 2.68765 136.695 3.0289 136.651 3.7289C136.616 4.36765 136.616 4.9364 136.616 8.04265V9.2414H136.695C137.028 8.86515 140.659 5.1814 141.376 4.4114C141.945 3.82515 142.461 3.3089 142.461 2.9764C142.461 2.7314 142.365 2.6089 142.199 2.54765C142.103 2.51265 142.015 2.4689 142.015 2.39015C142.015 2.2939 142.12 2.25015 142.26 2.25015C142.663 2.25015 143.284 2.3114 143.765 2.3114C143.861 2.3114 145.191 2.25015 145.69 2.25015C145.909 2.25015 145.996 2.2939 145.996 2.39015C145.996 2.49515 145.953 2.53015 145.786 2.53015C145.489 2.53015 145.069 2.6264 144.666 2.81015C143.844 3.17765 143.406 3.66765 142.505 4.52515C142.006 5.0064 138.515 8.40141 138.095 8.90016C138.611 9.47766 142.776 13.7739 143.608 14.5352C145.288 16.0839 145.629 16.4164 146.591 16.8102C147.108 17.0377 147.694 17.0727 147.834 17.0727C147.974 17.0727 148.096 17.1077 148.096 17.1952C148.096 17.2914 147.991 17.3439 147.659 17.3439H146.635C146.066 17.3439 145.69 17.3439 145.244 17.3089C144.185 17.2127 143.686 16.7752 142.82 16.0839C141.919 15.3489 137.675 10.7814 136.713 9.60015H136.616V11.5602C136.616 13.4764 136.616 15.0602 136.713 15.8914C136.774 16.4689 136.888 16.9152 137.491 16.9939C137.771 17.0377 138.095 17.0727 138.27 17.0727C138.393 17.0727 138.436 17.1339 138.436 17.1952C138.436 17.2914 138.331 17.3439 138.113 17.3439C137.133 17.3439 135.969 17.2914 135.803 17.2914C135.645 17.2914 134.481 17.3439 133.878 17.3439C133.659 17.3439 133.554 17.3089 133.554 17.1952C133.554 17.1339 133.598 17.0727 133.72 17.0727C133.904 17.0727 134.14 17.0377 134.324 16.9939C134.726 16.9152 134.823 16.4689 134.901 15.8914C135.006 15.0602 135.006 13.4764 135.006 11.5602V8.04265ZM101.371 31.2914C101.371 30.0314 101.293 29.8564 100.663 29.6902C100.54 29.6552 100.269 29.6377 100.129 29.6377C100.068 29.6377 100.006 29.6114 100.006 29.5502C100.006 29.4539 100.085 29.4189 100.26 29.4189C100.969 29.4189 101.949 29.4627 102.028 29.4627C102.106 29.4627 103.095 29.4189 103.568 29.4189C103.734 29.4189 103.813 29.4539 103.813 29.5502C103.813 29.6114 103.751 29.6377 103.69 29.6377C103.576 29.6377 103.48 29.6552 103.296 29.6902C102.868 29.7602 102.754 30.0314 102.71 30.5739C102.684 31.0814 102.684 31.5452 102.684 32.2014V33.9514C102.684 34.6427 102.675 34.6777 102.483 34.7914C101.476 35.3164 100.068 35.4914 99.1576 35.4914C97.9764 35.4914 95.7451 35.3339 94.0039 33.8202C93.0501 32.9977 92.1401 31.3264 92.1401 29.3752C92.1401 26.8814 93.3564 25.1139 94.7564 24.2302C96.1651 23.3639 97.7139 23.2502 98.9301 23.2502C99.9101 23.2502 101.021 23.4602 101.328 23.5214C101.651 23.6002 102.194 23.6614 102.588 23.6702C102.754 23.6877 102.771 23.7577 102.771 23.8102C102.771 24.0289 102.675 24.4752 102.675 26.0327C102.675 26.2777 102.64 26.3564 102.526 26.3564C102.448 26.3564 102.439 26.2689 102.421 26.1289C102.404 25.9102 102.325 25.4727 102.089 25.0964C101.695 24.5014 100.426 23.8277 98.4051 23.8277C97.4164 23.8277 96.2439 23.9239 95.0539 24.8602C94.1439 25.5777 93.5051 27.0039 93.5051 28.8239C93.5051 31.0289 94.6164 32.6214 95.1676 33.1464C96.4014 34.3539 97.8276 34.8177 99.2714 34.8177C99.8314 34.8177 100.654 34.7214 101.048 34.4939C101.258 34.3802 101.371 34.2139 101.371 33.9514V31.2914ZM105.755 30.5214C105.755 32.0264 105.755 33.2514 105.676 33.9077C105.615 34.3627 105.536 34.7039 105.221 34.7652C105.081 34.8002 104.889 34.8264 104.758 34.8264C104.661 34.8264 104.618 34.8702 104.618 34.9227C104.618 35.0189 104.705 35.0539 104.88 35.0539C105.353 35.0539 106.333 35.0102 106.35 35.0102C106.429 35.0102 107.409 35.0539 108.275 35.0539C108.45 35.0539 108.529 35.0102 108.529 34.9227C108.529 34.8702 108.494 34.8264 108.398 34.8264C108.258 34.8264 107.916 34.8002 107.698 34.7652C107.225 34.7039 107.138 34.3627 107.085 33.9077C107.006 33.2514 107.006 32.0264 107.006 30.5214V30.1452C107.006 30.0664 107.033 30.0227 107.12 30.0227L109.045 30.0577C109.133 30.0577 109.185 30.0839 109.246 30.1452C109.561 30.5477 110.296 31.5977 110.953 32.4552C111.845 33.6277 112.396 34.3889 113.07 34.7564C113.473 34.9752 113.866 35.0539 114.75 35.0539H115.861C116.141 35.0539 116.238 35.0189 116.238 34.9227C116.238 34.8702 116.176 34.8264 116.098 34.8264C116.001 34.8264 115.783 34.8264 115.485 34.7827C115.091 34.7214 114.426 34.5552 113.578 33.6627C112.659 32.7002 111.6 31.3002 110.314 29.6639C111.723 28.3689 112.213 27.2139 112.213 26.0589C112.213 24.9827 111.521 24.2214 111.128 23.9327C110.296 23.3377 109.246 23.2502 108.258 23.2502C107.776 23.2502 106.586 23.2939 106.42 23.2939C106.333 23.2939 105.353 23.2502 104.644 23.2502C104.469 23.2502 104.39 23.2764 104.39 23.3727C104.39 23.4339 104.451 23.4689 104.521 23.4689C104.661 23.4689 104.924 23.4777 105.046 23.5127C105.563 23.6177 105.694 23.8714 105.72 24.4052C105.755 24.9039 105.755 25.3414 105.755 27.7739V30.5214ZM107.006 24.0202C107.006 23.9327 107.059 23.8714 107.138 23.8452C107.286 23.7927 107.715 23.7489 108.179 23.7489C109.859 23.7489 110.891 24.9127 110.891 26.8639C110.891 28.0539 110.489 28.8939 109.938 29.2789C109.579 29.5239 109.133 29.5677 108.765 29.5677C108.074 29.5677 107.356 29.4627 107.12 29.3227C107.033 29.2789 107.006 29.2089 107.006 29.1389V24.0202ZM121.846 35.4914C125.626 35.4914 128.094 32.6039 128.094 29.1039C128.094 25.4727 125.46 23.2502 121.943 23.2502C117.611 23.2502 115.765 26.8289 115.765 29.3577C115.765 32.1664 117.55 35.4914 121.846 35.4914ZM121.838 23.7839C124.305 23.7839 126.589 25.7964 126.589 29.5502C126.589 34.0914 123.675 34.8964 122.266 34.8964C119.449 34.8964 117.253 32.5514 117.253 28.9202C117.253 25.4989 119.213 23.7839 121.838 23.7839ZM129.38 27.7739C129.38 25.3414 129.38 24.9039 129.345 24.4052C129.31 23.8714 129.188 23.6177 128.671 23.5127C128.549 23.4777 128.278 23.4689 128.138 23.4689C128.076 23.4689 128.015 23.4339 128.015 23.3727C128.015 23.2764 128.094 23.2502 128.26 23.2502C128.969 23.2502 129.923 23.2939 130.063 23.2939C130.211 23.2939 131.148 23.2502 131.62 23.2502C131.795 23.2502 131.856 23.2764 131.856 23.3727C131.856 23.4339 131.804 23.4689 131.743 23.4689C131.629 23.4689 131.541 23.4777 131.349 23.5127C130.929 23.5739 130.798 23.8539 130.771 24.4052C130.736 24.9039 130.736 25.3414 130.736 27.7739V29.9614C130.736 32.2102 131.235 33.1727 131.909 33.8114C132.679 34.5377 133.388 34.6689 134.28 34.6689C135.234 34.6689 136.17 34.2227 136.739 33.5489C137.465 32.6564 137.649 31.3352 137.649 29.7252V27.7739C137.649 25.3414 137.649 24.9039 137.623 24.4052C137.579 23.8714 137.465 23.6177 136.94 23.5127C136.818 23.4777 136.555 23.4689 136.406 23.4689C136.345 23.4689 136.284 23.4339 136.284 23.3727C136.284 23.2764 136.363 23.2502 136.538 23.2502C137.238 23.2502 138.104 23.2939 138.2 23.2939C138.305 23.2939 139.04 23.2502 139.513 23.2502C139.688 23.2502 139.766 23.2764 139.766 23.3727C139.766 23.4339 139.705 23.4689 139.635 23.4689C139.53 23.4689 139.434 23.4689 139.25 23.5127C138.821 23.5827 138.699 23.8539 138.664 24.4052C138.629 24.9039 138.629 25.3414 138.629 27.7739V29.4452C138.629 31.1339 138.445 33.0064 137.194 34.1177C136.065 35.1064 134.893 35.2639 133.965 35.2639C133.44 35.2639 131.856 35.2027 130.736 34.1527C129.966 33.4264 129.38 32.3327 129.38 30.0577V27.7739ZM142.505 27.7739C142.505 25.3414 142.505 24.9039 142.47 24.4052C142.444 23.8714 142.313 23.6177 141.796 23.5127C141.674 23.4777 141.411 23.4689 141.263 23.4689C141.201 23.4689 141.14 23.4339 141.14 23.3727C141.14 23.2764 141.219 23.2502 141.394 23.2502C142.094 23.2502 143.039 23.2939 143.161 23.2939C143.503 23.2939 144.421 23.2502 145.139 23.2502C147.099 23.2502 147.799 23.9064 148.053 24.1339C148.394 24.4664 148.84 25.1664 148.84 25.9977C148.84 28.2114 147.204 29.7164 144.981 29.7164C144.903 29.7164 144.736 29.7164 144.658 29.6989C144.579 29.6989 144.483 29.6639 144.483 29.5852C144.483 29.4627 144.579 29.4452 144.903 29.4452C146.425 29.4452 147.615 28.3427 147.615 26.8989C147.615 26.3914 147.563 25.3414 146.74 24.4927C145.909 23.6527 144.955 23.7139 144.596 23.7139C144.325 23.7139 144.054 23.7489 143.914 23.8102C143.818 23.8452 143.791 23.9502 143.791 24.1077V30.5214C143.791 32.0264 143.791 33.2514 143.87 33.9077C143.914 34.3627 144.01 34.7039 144.483 34.7652C144.701 34.8002 145.043 34.8264 145.183 34.8264C145.279 34.8264 145.314 34.8702 145.314 34.9227C145.314 35.0102 145.235 35.0539 145.06 35.0539C144.203 35.0539 143.214 35.0102 143.135 35.0102C143.083 35.0102 142.094 35.0539 141.63 35.0539C141.455 35.0539 141.376 35.0189 141.376 34.9227C141.376 34.8702 141.411 34.8264 141.499 34.8264C141.639 34.8264 141.831 34.8002 141.971 34.7652C142.286 34.7039 142.365 34.3627 142.426 33.9077C142.505 33.2514 142.505 32.0264 142.505 30.5214V27.7739Z"/><path fill="#fff" d="M16.2689 14.0364C16.2689 14.0451 16.2689 14.0539 16.2601 14.0539H10.1264V16.5039H14.2389C13.0051 17.4489 11.5964 17.7814 9.91639 17.7814C6.95889 17.7814 4.41264 15.9964 3.28389 13.4589H15.0001V13.4501H19.1389C19.3839 12.6714 19.5326 11.8489 19.5764 11.0001H17.1526V11.0089L2.68889 11.0176V11.0001H0.265137C0.492637 16.1189 4.72764 20.1876 9.91639 20.1876C14.1164 20.1876 17.5639 17.7639 18.9026 14.0364H16.2689ZM16.5664 7.25512L3.27514 7.26387C4.38639 4.70887 6.94139 2.91512 9.91639 2.91512V0.500122C4.72764 0.500122 0.501387 4.57762 0.265137 9.68762H19.5676C19.5414 8.83887 19.3926 8.03387 19.1476 7.25512H16.5664Z"/></g><defs><clipPath id="clip0"><rect width="148.75" height="35" fill="#fff" transform="translate(0.265137 0.500122)"/></clipPath></defs></svg>