<svg fill="none" viewBox="0 0 150 36"><g clip-path="url(#clip0)" opacity=".4"><path fill="#fff" d="M25.57 11.604c0 2.931.079 4.209.438 4.567.323.315.84.464 2.406.464 1.059 0 1.942-.017 2.432-.604.254-.315.455-.822.517-1.198.017-.158.052-.263.175-.263.105 0 .122.088.122.306 0 .22-.14 1.418-.297 1.995-.14.455-.202.534-1.27.534-2.887 0-4.208-.114-5.372-.114-.175 0-1.356.053-1.96.053-.227 0-.323-.035-.323-.149 0-.061.035-.122.157-.122.184 0 .429-.035.604-.08.402-.078.507-.524.577-1.102.105-.83.105-2.415.105-4.33V8.042c0-3.107 0-3.675-.043-4.314-.035-.683-.193-.998-.858-1.138-.157-.043-.507-.06-.682-.06-.08 0-.158-.036-.158-.115 0-.122.096-.166.315-.166.91 0 2.17.061 2.266.061.105 0 1.567-.06 2.17-.06.22 0 .315.043.315.165 0 .08-.078.114-.157.114-.14 0-.42.018-.665.061-.578.097-.735.438-.779 1.138-.035.639-.035 1.207-.035 4.314v3.56zm8.645 3.824c-.359 1.006-.761 1.767-1.689 1.88a7.225 7.225 0 01-.577.045c-.105 0-.184.035-.184.122 0 .114.123.149.385.149.945 0 2.048-.053 2.266-.053.22 0 1.077.053 1.558.053.184 0 .306-.035.306-.149 0-.087-.061-.122-.201-.122h-.201c-.342 0-.762-.184-.762-.587 0-.358.097-.84.28-1.338l1.2-3.527c.043-.105.095-.157.2-.157h4.314c.096 0 .14.035.184.114l1.864 4.908c.113.324 0 .508-.123.543-.079.017-.149.061-.149.14 0 .122.237.122.613.14 1.382.035 2.844.035 3.141.035.219 0 .403-.035.403-.149 0-.105-.08-.122-.202-.122-.2 0-.498-.027-.796-.123-.429-.122-1.006-.446-1.724-2.222-1.233-3.028-4.375-11.28-4.672-12.04-.245-.613-.324-.718-.446-.718-.114 0-.202.123-.438.779l-4.55 12.399zm2.809-4.41c-.061 0-.105-.035-.061-.14l1.758-5.39c.105-.298.21-.298.307 0l1.898 5.39c.027.078.027.14-.078.14h-3.824zm14.149 3.893c.043 1.637.245 2.153.787 2.32.385.095.823.122 1.006.122.097 0 .158.035.158.122 0 .114-.114.149-.359.149-1.146 0-1.942-.053-2.126-.053-.184 0-1.024.053-1.925.053-.201 0-.324-.018-.324-.149 0-.087.061-.122.166-.122.158 0 .517-.027.823-.123.499-.14.595-.726.595-2.537l.017-11.437c0-.787.062-1.006.22-1.006.165 0 .507.438.708.639.297.341 3.29 3.552 6.379 6.851 1.977 2.118 4.165 4.55 4.803 5.206l-.218-10.14c-.018-1.296-.158-1.733-.78-1.9a5.395 5.395 0 00-.988-.096c-.14 0-.157-.061-.157-.14 0-.114.157-.14.402-.14.901 0 1.864.061 2.091.061.22 0 .884-.06 1.698-.06.227 0 .359.025.359.14 0 .078-.08.14-.22.14-.095 0-.244 0-.48.052-.665.148-.735.586-.735 1.785l-.044 11.698c0 1.322-.044 1.427-.184 1.427-.157 0-.394-.228-1.461-1.287-.228-.2-3.106-3.132-5.233-5.407a382.273 382.273 0 01-5.232-5.731l.254 9.563zM67.63 11.57c0 1.907 0 3.491-.096 4.331-.079.569-.184 1.015-.586 1.094a2.713 2.713 0 01-.604.079c-.114 0-.157.06-.157.122 0 .114.105.158.323.158.604 0 1.864-.062 1.97-.062.2 0 2.72.245 4.444.245 3.413 0 5.215-1.4 6.073-2.3 1.128-1.173 2.16-3.116 2.16-5.636 0-2.371-.935-4.025-1.942-5.066-2.38-2.459-6.055-2.284-8.032-2.284-1.208 0-2.468.07-2.704.07-.105 0-1.365-.07-2.266-.07-.228 0-.324.044-.324.166 0 .08.079.114.158.114.183 0 .525.026.69.061.657.14.815.464.858 1.138.035.647.035 1.207.035 4.314v3.526zm1.69-3.841c0-1.54 0-3.58.017-4.262 0-.21.052-.315.245-.393.157-.08.9-.14 1.295-.14 2.388 0 4.672.28 6.562 2.257.823.858 1.925 2.494 1.925 5.031 0 1.838-.569 3.763-1.61 4.778-1.181 1.172-2.905 1.846-4.769 1.846-2.362 0-3.14-.42-3.403-.787-.167-.228-.202-1.024-.228-1.523-.017-.376-.035-2.214-.035-4.331V7.728zm29.802 7.323c.087.718.218 1.838 1.085 2.118a4.286 4.286 0 001.303.184c.097 0 .158.017.158.096 0 .122-.175.175-.42.175-.438 0-2.608-.053-3.343-.114-.463-.035-.568-.096-.568-.201 0-.079.043-.114.14-.14.105-.026.122-.359.087-.718l-.962-10.307h-.062L91.633 16.53c-.43.884-.482 1.059-.665 1.059-.14 0-.237-.201-.622-.919-.516-.98-2.248-4.436-2.353-4.637-.175-.35-2.424-5.145-2.643-5.688h-.079l-.805 9.266c-.017.315-.017.674-.017 1.015 0 .307.219.57.525.622.341.087.639.105.761.105.079 0 .158.035.158.096 0 .14-.123.175-.36.175-.743 0-1.705-.053-1.863-.053-.184 0-1.146.053-1.68.053-.201 0-.35-.035-.35-.175 0-.061.105-.096.201-.096.167 0 .298 0 .604-.062.656-.122.718-.9.805-1.662l1.444-13.02c.044-.219.096-.359.219-.359.122 0 .2.079.297.306l6.134 12.548 5.897-12.53c.08-.184.167-.324.307-.324.14 0 .2.158.236.543l1.339 12.258zm5.092.377c-.367 1.006-.77 1.767-1.68 1.88a7.414 7.414 0 01-.586.045c-.105 0-.184.035-.184.122 0 .114.123.149.376.149.945 0 2.048-.053 2.267-.053.227 0 1.085.053 1.566.053.184 0 .297-.035.297-.149 0-.087-.052-.122-.192-.122h-.21c-.333 0-.753-.184-.753-.587 0-.358.097-.84.28-1.338l1.199-3.527c.044-.105.105-.157.201-.157h4.305c.105 0 .149.035.184.114l1.864 4.908c.122.324 0 .508-.114.543-.079.017-.14.061-.14.14 0 .122.219.122.604.14 1.374.035 2.844.035 3.141.035.219 0 .394-.035.394-.149 0-.105-.07-.122-.193-.122-.201 0-.498-.027-.805-.123-.42-.122-1.006-.446-1.723-2.222-1.225-3.028-4.367-11.28-4.673-12.04-.236-.613-.315-.718-.437-.718-.123 0-.21.123-.438.779l-4.55 12.399zm2.8-4.41c-.061 0-.096-.035-.061-.14l1.767-5.39c.105-.298.202-.298.298 0l1.907 5.39c.018.078.018.14-.078.14h-3.833zm12.241.542c0 1.916 0 3.5-.096 4.331-.087.578-.184 1.024-.586 1.103-.175.044-.42.079-.595.079-.123 0-.166.06-.166.122 0 .114.105.149.323.149.604 0 1.864-.053 1.89-.053.097 0 1.357.053 2.459.053.219 0 .324-.053.324-.149 0-.061-.044-.122-.158-.122a7.61 7.61 0 01-.91-.08c-.595-.078-.717-.524-.778-1.102-.105-.83-.105-2.415-.105-4.33v-.482c0-.096.043-.149.148-.149l2.468.026c.114 0 .175.044.254.123.402.525 1.347 1.855 2.187 2.957 1.138 1.497 1.846 2.477 2.704 2.932.525.288 1.024.376 2.144.376h1.426c.359 0 .49-.035.49-.149 0-.061-.088-.122-.193-.122-.113 0-.393 0-.778-.062-.499-.078-1.365-.306-2.45-1.435-1.155-1.242-2.52-3.018-4.165-5.118 1.802-1.654 2.423-3.133 2.423-4.612 0-1.382-.875-2.353-1.382-2.712-1.059-.761-2.406-.884-3.666-.884-.622 0-2.144.061-2.363.061-.105 0-1.365-.06-2.266-.06-.219 0-.324.043-.324.165 0 .08.079.114.158.114.183 0 .516.018.682.061.665.14.823.455.866 1.138.035.639.035 1.207.035 4.314v3.517zm1.602-8.312c0-.114.061-.202.166-.237.201-.06.744-.113 1.339-.113 2.152 0 3.473 1.487 3.473 3.98 0 1.523-.525 2.6-1.225 3.08-.455.325-1.023.377-1.505.377-.883 0-1.802-.131-2.1-.315-.105-.061-.148-.14-.148-.236V3.248zm14.148 4.795c0-3.107 0-3.675-.043-4.314-.035-.683-.202-.998-.858-1.138-.166-.043-.507-.06-.691-.06-.079 0-.149-.036-.149-.115 0-.122.096-.166.315-.166.901 0 2.083.061 2.205.061.184 0 1.348-.06 1.943-.06.218 0 .323.043.323.165 0 .08-.087.114-.157.114-.14 0-.271.018-.508.061-.542.097-.691.438-.735 1.138-.035.639-.035 1.207-.035 4.314V9.24h.079c.333-.376 3.964-4.06 4.681-4.83.569-.586 1.085-1.102 1.085-1.435 0-.245-.096-.367-.262-.428-.096-.035-.184-.08-.184-.158 0-.096.105-.14.245-.14.403 0 1.024.061 1.505.061.096 0 1.426-.06 1.925-.06.219 0 .306.043.306.14 0 .104-.043.14-.21.14-.297 0-.717.095-1.12.28-.822.367-1.26.857-2.161 1.714-.499.481-3.99 3.876-4.41 4.375.516.578 4.681 4.874 5.513 5.635 1.68 1.549 2.021 1.881 2.983 2.275a3.525 3.525 0 001.243.263c.14 0 .262.035.262.122 0 .096-.105.149-.437.149h-1.024c-.569 0-.945 0-1.391-.035-1.059-.096-1.558-.534-2.424-1.225-.901-.735-5.145-5.303-6.107-6.484h-.097v1.96c0 1.916 0 3.5.097 4.331.061.578.175 1.024.778 1.103.28.044.604.079.779.079.123 0 .166.06.166.122 0 .096-.105.149-.323.149-.98 0-2.144-.053-2.31-.053-.158 0-1.322.053-1.925.053-.219 0-.324-.035-.324-.149 0-.061.044-.122.166-.122.184 0 .42-.035.604-.08.402-.078.499-.524.577-1.102.105-.83.105-2.415.105-4.33V8.042zM101.371 31.29c0-1.26-.078-1.435-.708-1.6a2.636 2.636 0 00-.534-.053c-.061 0-.123-.027-.123-.088 0-.096.079-.131.254-.131.709 0 1.689.044 1.768.044.078 0 1.067-.044 1.54-.044.166 0 .245.035.245.131 0 .061-.062.088-.123.088-.114 0-.21.017-.394.052-.428.07-.542.341-.586.884-.026.507-.026.971-.026 1.627v1.75c0 .692-.009.727-.201.84-1.007.525-2.415.7-3.325.7-1.182 0-3.413-.157-5.154-1.67-.954-.823-1.864-2.495-1.864-4.446 0-2.494 1.216-4.261 2.616-5.145 1.41-.866 2.958-.98 4.174-.98.98 0 2.091.21 2.398.271.323.08.866.14 1.26.15.166.017.183.087.183.14 0 .218-.096.664-.096 2.222 0 .245-.035.323-.149.323-.078 0-.087-.087-.105-.227a2.423 2.423 0 00-.332-1.033c-.394-.595-1.663-1.268-3.684-1.268-.989 0-2.161.096-3.351 1.032-.91.718-1.549 2.144-1.549 3.964 0 2.205 1.111 3.797 1.663 4.322 1.233 1.208 2.66 1.672 4.103 1.672.56 0 1.383-.097 1.777-.324a.566.566 0 00.323-.543v-2.66zm4.384-.77c0 1.505 0 2.73-.079 3.387-.061.455-.14.796-.455.857-.14.035-.332.061-.463.061-.097 0-.14.044-.14.097 0 .096.087.13.262.13.473 0 1.453-.043 1.47-.043.079 0 1.059.044 1.925.044.175 0 .254-.044.254-.131 0-.053-.035-.097-.131-.097-.14 0-.482-.026-.7-.06-.473-.062-.56-.403-.613-.858-.079-.657-.079-1.882-.079-3.387v-.376c0-.079.027-.122.114-.122l1.925.035c.088 0 .14.026.201.087.315.403 1.05 1.453 1.707 2.31.892 1.173 1.443 1.934 2.117 2.301.403.22.796.298 1.68.298h1.111c.28 0 .377-.035.377-.131 0-.053-.062-.097-.14-.097-.097 0-.315 0-.613-.043-.394-.062-1.059-.228-1.907-1.12-.919-.963-1.978-2.363-3.264-4 1.409-1.294 1.899-2.45 1.899-3.604 0-1.076-.692-1.838-1.085-2.126-.832-.595-1.882-.683-2.87-.683-.482 0-1.672.044-1.838.044-.087 0-1.067-.044-1.776-.044-.175 0-.254.026-.254.123 0 .06.061.096.131.096.14 0 .403.009.525.044.517.105.648.358.674.892.035.499.035.936.035 3.369v2.747zm1.251-6.5a.18.18 0 01.132-.176c.148-.052.577-.096 1.041-.096 1.68 0 2.712 1.164 2.712 3.115 0 1.19-.402 2.03-.953 2.415-.359.245-.805.289-1.173.289-.691 0-1.409-.105-1.645-.245a.193.193 0 01-.114-.184V24.02zm14.84 11.47c3.78 0 6.248-2.887 6.248-6.387 0-3.631-2.634-5.854-6.151-5.854-4.332 0-6.178 3.579-6.178 6.108 0 2.808 1.785 6.133 6.081 6.133zm-.008-11.707c2.467 0 4.751 2.012 4.751 5.766 0 4.541-2.914 5.346-4.323 5.346-2.817 0-5.013-2.345-5.013-5.976 0-3.421 1.96-5.136 4.585-5.136zm7.542 3.99c0-2.433 0-2.87-.035-3.369-.035-.534-.157-.787-.674-.892-.122-.035-.393-.044-.533-.044-.062 0-.123-.035-.123-.096 0-.097.079-.123.245-.123.709 0 1.663.044 1.803.044.148 0 1.085-.044 1.557-.044.175 0 .236.026.236.123 0 .06-.052.096-.113.096a1.96 1.96 0 00-.394.044c-.42.06-.551.34-.578.892-.035.499-.035.936-.035 3.369v2.187c0 2.25.499 3.212 1.173 3.85.77.727 1.479.858 2.371.858.954 0 1.89-.446 2.459-1.12.726-.893.91-2.214.91-3.824v-1.951c0-2.433 0-2.87-.026-3.369-.044-.534-.158-.787-.683-.892-.122-.035-.385-.044-.534-.044-.061 0-.122-.035-.122-.096 0-.097.079-.123.254-.123.7 0 1.566.044 1.662.044.105 0 .84-.044 1.313-.044.175 0 .253.026.253.123 0 .06-.061.096-.131.096-.105 0-.201 0-.385.044-.429.07-.551.34-.586.892-.035.499-.035.936-.035 3.369v1.671c0 1.689-.184 3.561-1.435 4.673-1.129.988-2.301 1.146-3.229 1.146-.525 0-2.109-.061-3.229-1.111-.77-.727-1.356-1.82-1.356-4.095v-2.284zm13.125 0c0-2.433 0-2.87-.035-3.369-.026-.534-.157-.787-.674-.892-.122-.035-.385-.044-.533-.044-.062 0-.123-.035-.123-.096 0-.097.079-.123.254-.123.7 0 1.645.044 1.767.044.342 0 1.26-.044 1.978-.044 1.96 0 2.66.656 2.914.884.341.332.787 1.032.787 1.864 0 2.213-1.636 3.718-3.859 3.718-.078 0-.245 0-.323-.017-.079 0-.175-.035-.175-.114 0-.122.096-.14.42-.14 1.522 0 2.712-1.102 2.712-2.546 0-.508-.052-1.558-.875-2.406-.831-.84-1.785-.78-2.144-.78-.271 0-.542.036-.682.097-.096.035-.123.14-.123.298v6.413c0 1.505 0 2.73.079 3.387.044.455.14.796.613.857.218.035.56.061.7.061.096 0 .131.044.131.097 0 .087-.079.13-.254.13-.857 0-1.846-.043-1.925-.043-.052 0-1.041.044-1.505.044-.175 0-.254-.035-.254-.131 0-.053.035-.097.123-.097.14 0 .332-.026.472-.06.315-.062.394-.403.455-.858.079-.657.079-1.882.079-3.387v-2.747zM16.269 14.036c0 .01 0 .018-.009.018h-6.134v2.45h4.113c-1.234.945-2.643 1.277-4.323 1.277-2.957 0-5.503-1.785-6.632-4.322H15v-.009h4.139a9.852 9.852 0 00.437-2.45h-2.423v.009l-14.464.009V11H.265c.228 5.119 4.463 9.188 9.651 9.188 4.2 0 7.648-2.424 8.987-6.152h-2.634zm.297-6.78l-13.29.008a7.242 7.242 0 016.64-4.349V.5C4.728.5.501 4.578.266 9.688h19.302a8.97 8.97 0 00-.42-2.433h-2.582z"/></g><defs><clipPath id="clip0"><path fill="#fff" d="M0 0h148.75v35H0z" transform="translate(.265 .5)"/></clipPath></defs></svg>