<svg width="118" height="22" fill="none" xmlns="http://www.w3.org/2000/svg"><g opacity=".4" clip-path="url(#clip0)" fill-rule="evenodd" clip-rule="evenodd" fill="#fff"><path d="M23.523 8.26c0-.536.154-.922.459-1.161.306-.24.737-.358 1.292-.358.343 0 .659.042.946.128.286.087.477.148.574.187v7.542c0 1.3.304 2.292.917 2.969.612.678 1.549 1.018 2.811 1.018s2.198-.34 2.81-1.018c.613-.677.919-1.668.919-2.97V8.262c0-.537.152-.923.458-1.162.306-.24.726-.358 1.262-.358.364 0 .688.042.974.128.288.087.48.148.574.187v8.26c0 .975-.167 1.849-.501 2.624a5.358 5.358 0 01-1.434 1.963c-.62.536-1.362.943-2.223 1.22-.86.276-1.807.416-2.839.416-1.033 0-1.979-.14-2.839-.416-.861-.277-1.597-.684-2.21-1.22a5.572 5.572 0 01-1.433-1.963c-.343-.775-.517-1.65-.517-2.625V8.261zM40.1 4.188c0-.537.152-.922.459-1.162.305-.24.726-.358 1.261-.358.344 0 .663.042.96.13.297.085.492.147.589.185V6.74h4.159c.631 0 1.075.13 1.333.386.259.26.386.636.386 1.134 0 .326-.046.625-.142.903a5.924 5.924 0 01-.23.588H43.37v6.396c0 .497.066.903.2 1.218.135.316.32.57.56.76.24.192.516.326.832.403.314.076.645.113.988.113.556 0 1.072-.085 1.55-.257.477-.172.823-.335 1.032-.487l1.32 2.179c-.154.115-.368.259-.645.43a5.945 5.945 0 01-1.019.487 9.085 9.085 0 01-1.348.389 7.972 7.972 0 01-1.633.156c-1.684 0-2.955-.434-3.815-1.305-.862-.868-1.291-2.01-1.291-3.427V4.188zM58.885 18.585c.65 0 1.247-.12 1.792-.358a4.302 4.302 0 001.406-.976 4.23 4.23 0 00.903-1.464c.21-.562.315-1.178.315-1.848a5.4 5.4 0 00-.315-1.866 4.213 4.213 0 00-.903-1.476 4.33 4.33 0 00-1.406-.974 4.416 4.416 0 00-1.792-.36c-.67 0-1.276.12-1.821.36-.546.239-1.01.569-1.391.988-.384.422-.683.919-.904 1.492a5.104 5.104 0 00-.33 1.836c0 .687.11 1.319.33 1.892.22.574.525 1.061.918 1.462.391.402.86.718 1.406.947.544.23 1.141.345 1.792.345zM51.199 1.52c0-.516.152-.898.458-1.147.306-.249.737-.373 1.29-.373.345 0 .66.043.947.13.287.086.477.148.575.186v8.23c.477-.612 1.137-1.132 1.978-1.562.841-.43 1.807-.647 2.896-.647 1.052 0 2.023.188 2.912.56a6.95 6.95 0 012.322 1.578 7.303 7.303 0 011.549 2.408c.374.928.56 1.946.56 3.056 0 1.089-.192 2.104-.574 3.04a7.035 7.035 0 01-1.605 2.409 7.519 7.519 0 01-2.453 1.577c-.947.383-1.984.573-3.112.573-1.128 0-2.165-.171-3.111-.515a6.628 6.628 0 01-2.453-1.55c-.688-.688-1.223-1.548-1.606-2.58-.382-1.034-.573-2.247-.573-3.642V1.52zM68.607 11.874c0-1.76.54-3.121 1.62-4.086 1.08-.967 2.578-1.45 4.489-1.45 1.205 0 2.184.169 2.94.502.756.335 1.134.846 1.134 1.536 0 .325-.091.64-.273.945-.183.306-.33.497-.444.574a7.858 7.858 0 00-1.205-.43 6.121 6.121 0 00-1.636-.202c-2.235 0-3.354 1.187-3.354 3.557v8.318h-3.27v-9.264zM89.686 14.713c-.19-.039-.549-.096-1.075-.173-.527-.075-1.314-.114-2.366-.114-1.3 0-2.246.196-2.839.588-.593.392-.89 1.009-.89 1.85 0 .344.062.659.187.947.124.287.34.53.645.732.306.2.722.353 1.248.458.526.105 1.181.157 1.966.157.878 0 1.576-.033 2.093-.1.515-.066.86-.12 1.031-.158v-4.187zm3.24 6.367c-.19.038-.49.08-.902.13-.41.046-.894.095-1.448.142-.555.048-1.176.09-1.865.13-.687.036-1.404.057-2.15.057-1.492 0-2.71-.13-3.657-.388-.946-.257-1.692-.602-2.236-1.032-.545-.43-.919-.927-1.12-1.492-.2-.563-.3-1.141-.3-1.735 0-.784.12-1.472.359-2.065.238-.592.63-1.09 1.174-1.49.546-.402 1.258-.703 2.137-.905.88-.2 1.951-.301 3.213-.301.725 0 1.415.025 2.063.073.65.047 1.139.09 1.464.129 0-.67-.111-1.225-.33-1.664a2.57 2.57 0 00-.902-1.032c-.384-.248-.843-.42-1.377-.516a10.152 10.152 0 00-1.779-.144c-1.09 0-1.964.125-2.624.373-.66.249-1.094.459-1.305.632-.115-.097-.273-.278-.474-.547-.2-.266-.3-.592-.3-.974 0-.267.072-.531.214-.79.145-.257.397-.486.76-.687.364-.201.852-.358 1.463-.474.612-.114 1.387-.172 2.322-.172 1.13 0 2.157.111 3.085.33.928.22 1.725.57 2.394 1.048.67.478 1.19 1.11 1.563 1.893.373.783.558 1.73.558 2.839v8.632zM95.851 8.26c0-.536.154-.922.46-1.161.305-.24.736-.358 1.29-.358.344 0 .66.042.947.128.286.087.477.148.574.187v14.081h-3.27V8.261zM97.487.287c.555 0 1.022.192 1.405.575.382.383.573.85.573 1.404a1.91 1.91 0 01-.573 1.405c-.383.385-.85.575-1.405.575-.554 0-1.023-.19-1.406-.575a1.91 1.91 0 01-.573-1.405c0-.554.191-1.021.573-1.404a1.912 1.912 0 011.406-.575zM102.047 12.447c0-.955.177-1.811.53-2.567a5.582 5.582 0 011.462-1.92c.622-.527 1.359-.928 2.21-1.205.849-.277 1.782-.417 2.794-.417 1.015 0 1.951.14 2.812.417.86.277 1.601.678 2.222 1.204a5.428 5.428 0 011.449 1.921c.344.756.517 1.612.517 2.567v8.69h-3.27v-7.859c0-1.298-.316-2.288-.946-2.967-.632-.679-1.56-1.02-2.784-1.02-1.242 0-2.173.341-2.794 1.02-.622.679-.933 1.669-.933 2.967v7.86h-3.269v-8.69zM16.143 18.247a6.796 6.796 0 01-2.179 1.43 7.06 7.06 0 01-2.715.516 7.048 7.048 0 01-2.715-.516 6.795 6.795 0 01-2.18-1.43 6.541 6.541 0 01-1.456-2.151 6.804 6.804 0 01-.526-2.59H6.02a2.411 2.411 0 00.713 1.585 2.533 2.533 0 001.778.707 2.532 2.532 0 001.777-.707c.225-.22.402-.48.528-.782.086-.198.141-.408.169-.628h.528c.028.22.083.43.168.628a2.414 2.414 0 001.32 1.299c.302.126.631.19.985.19a2.53 2.53 0 001.779-.707 2.436 2.436 0 00.714-1.584h1.644a6.748 6.748 0 01-.523 2.589 6.557 6.557 0 01-1.457 2.151zm-6.15-4.913a1.419 1.419 0 01-.897 1.352c-.18.074-.374.111-.585.111-.211 0-.406-.037-.586-.112a1.446 1.446 0 01-.47-.308 1.402 1.402 0 01-.313-.463 1.476 1.476 0 01-.114-.58c0-.207.038-.401.114-.58.074-.178.178-.332.313-.464.134-.13.291-.233.47-.307.18-.075.375-.112.586-.112a1.484 1.484 0 011.055.419c.135.132.24.286.315.464.075.179.113.373.113.58zm5.477 0a1.46 1.46 0 01-.427 1.043 1.506 1.506 0 01-1.057.42 1.504 1.504 0 01-1.055-.42 1.45 1.45 0 01-.314-.463 1.476 1.476 0 01-.113-.58 1.445 1.445 0 01.428-1.044 1.504 1.504 0 011.055-.419 1.506 1.506 0 011.056.419 1.462 1.462 0 01.427 1.044zM4.985 10.54c1.17-.385 2.72-.877 2.72-.877 3.414-1.085 3.871-2.369 3.871-2.369s.718 1.284 3.196 2.13c0 0 1.368.45 2.642.91.064.127.13.253.186.387.224.528.376 1.085.456 1.667h-1.751l-.011-.03a2.384 2.384 0 00-.53-.782 2.466 2.466 0 00-.791-.52 2.566 2.566 0 00-.987-.186c-.354 0-.683.063-.985.187a2.451 2.451 0 00-.79.52 2.382 2.382 0 00-.631 1.07h-.662a2.366 2.366 0 00-.63-1.071 2.465 2.465 0 00-.792-.52 2.568 2.568 0 00-.985-.186 2.57 2.57 0 00-.986.187 2.395 2.395 0 00-1.32 1.3c-.005.01-.008.02-.012.031h-1.75c.08-.582.23-1.139.455-1.667.026-.062.059-.12.087-.18zm15.958-3.343a10.019 10.019 0 00-2.224-3.282 10.314 10.314 0 00-3.326-2.18c-1.272-.526-2.653-.79-4.144-.79s-2.873.264-4.145.79a10.318 10.318 0 00-3.327 2.18 10.014 10.014 0 00-2.222 3.282C1.02 8.461.752 9.828.752 11.3c0 1.473.267 2.839.803 4.101a10.017 10.017 0 002.222 3.284 10.347 10.347 0 003.327 2.18c1.272.525 2.654.788 4.145.788 1.491 0 2.872-.263 4.144-.788a10.343 10.343 0 003.326-2.18 10.022 10.022 0 002.224-3.283c.534-1.263.802-2.629.802-4.102 0-1.471-.268-2.839-.802-4.102z"/></g><defs><clipPath id="clip0"><path fill="#fff" transform="translate(.752)" d="M0 0h116.696v22H0z"/></clipPath></defs></svg>