<svg fill="none" viewBox="0 0 184 26"><g fill="#fff" clip-path="url(#clip0)" opacity=".4"><path d="M42.768 8.504H27.363l-.57.437v14.055h4.264v-5.27l.407-.374h11.305c2.854 0 4.192-.788 4.192-2.809v-3.227c0-2.024-1.338-2.812-4.193-2.812zm0 5.196c0 .952-.614 1.15-1.952 1.15H31.51l-.455-.453v-3.011l.407-.382h9.353c1.338 0 1.952.196 1.952 1.152V13.7zm11.97-2.538l3.669 5.514-.204.534h-8.115l-2.071 2.614h12.08l.837.523 1.875 2.652h4.88L56.992 8.325m46.272 11.82v-3.9l.439-.389h8.164v-2.484h-12.94V23h19.087v-2.472h-14.292m14.494-12.023H98.927v2.731h19.289V8.504zM77.414 11.09h15.54c-.24-2.026-1.466-2.589-4.577-2.589H77.248c-3.51 0-4.629.703-4.629 3.427v7.642c0 2.727 1.12 3.43 4.63 3.43h11.128c3.156 0 4.365-.608 4.447-2.71h-15.41l-.457-.442v-8.463m-60.534 2.766H5.117l-.333-.376v-2.48l.331-.262h15.24l.208-.522c-.52-1.37-1.863-2.009-4.36-2.009H5.618c-3.507 0-4.628.703-4.628 3.426v1.603c0 2.727 1.12 3.428 4.628 3.428h11.28l.354.32v2.592l-.289.405H4.061v-.013H.68s-.386.199-.372.292C.598 22.46 1.864 23 4.894 23h11.528c3.507 0 4.662-.703 4.662-3.43v-1.995c0-2.723-1.155-3.424-4.662-3.424zm113.926-5.707h-6.345l-.344.672 7.047 5.268a69.906 69.906 0 014.367-2.389m.961 6.373L142.229 23h6.423l.266-.613-9.249-6.943a72.98 72.98 0 00-3.634 2.924z"/><path d="M129.405 22.99h-5.741l-.485-.78c3.903-3.865 21.362-20.435 59.312-22.21 0 0-31.853 1.102-53.086 22.99z"/></g><defs><clipPath id="clip0"><path fill="#fff" d="M0 0h183v23H0z" transform="translate(.31)"/></clipPath></defs></svg>