<svg fill="none" viewBox="0 0 144 30"><g clip-path="url(#clip0)" opacity=".4"><path fill="#fff" d="M53.808 12.36c-2.182-.46-4.422-.945-4.422-2.698 0-1.933 2.038-2.338 3.78-2.338 1.818.01 3.613.418 5.257 1.196l.157.076a.093.093 0 00.123-.039l1.57-2.774a.093.093 0 00.01-.073.09.09 0 00-.049-.057l-.167-.084C57.697 4.496 55.479 4 53.092 4c-4.633 0-7.627 2.242-7.627 5.715 0 4.001 3.357 5.246 6.98 5.994 2.282.47 4.492.937 4.492 2.762 0 1.971-2.192 2.391-4.06 2.391-1.976 0-3.956-.577-6.059-1.763l-.066-.04a.095.095 0 00-.071-.01.093.093 0 00-.057.045l-1.626 2.883a.094.094 0 00.033.126l.067.04a16.008 16.008 0 007.786 2.072c5.073 0 7.982-2.103 7.982-5.771-.003-4.58-4.06-5.45-7.058-6.083zm18.856 8.203a.094.094 0 00-.122-.058l-.207.079c-.813.314-1.373.448-2.545.448-1.362 0-2.247-.733-2.247-1.868v-6.912H72.4a.094.094 0 00.067-.027.09.09 0 00.028-.066V9.363a.093.093 0 00-.093-.093H67.55V5.626a.093.093 0 00-.092-.093h-3.555a.092.092 0 00-.093.095v3.64h-2.902a.093.093 0 00-.086.059.092.092 0 00-.006.036v2.802a.094.094 0 00.027.067.091.091 0 00.067.027h2.902v7.285c0 2.925 1.96 4.67 5.24 4.67 1.906 0 3.02-.396 4.18-.874l.22-.094a.094.094 0 00.052-.115l-.839-2.568zM32.434 4.411H5.032c-2.596 0-4.58 2.106-4.58 4.702V23.74a.1.1 0 00.1.1h3.543a.1.1 0 00.1-.1V8.895h29.077V23.74a.1.1 0 00.1.1h3.548a.1.1 0 00.1-.1V9.113c0-2.596-1.98-4.702-4.586-4.702zm56.835 16.702h-.563c-.696 0-1.066-.38-1.066-1.096V14.23c0-3.587-1.946-5.335-5.971-5.335a14.92 14.92 0 00-6.438 1.345.093.093 0 00-.051.114l.888 2.708a.094.094 0 00.122.058c1.957-.773 3.703-1.196 4.922-1.196 1.384 0 2.788.256 2.788 2.145v.806s-.22.016-4.663.373c-4.442.357-5.09 3.463-5.09 4.722 0 2.499 1.988 4.246 4.836 4.246a8.12 8.12 0 005.41-1.963c.332.695 1.272 1.861 3.837 1.861h1.048a.094.094 0 00.088-.057.093.093 0 00.007-.035v-2.816a.092.092 0 00-.065-.09.092.092 0 00-.039-.003zm-5.37-1.366c-1.648 1.164-2.818 1.644-4.02 1.644-1.253 0-2.097-.646-2.097-1.607 0-.408.048-1.69 1.825-1.917 1.778-.227 4.289-.544 4.289-.544l.003 2.424zm53.505-4.736c-2.396-.42-3.579-.641-3.579-1.767 0-.668.318-1.551 2.908-1.551 1.597 0 3.168.404 4.567 1.172l.1.052a.094.094 0 00.124-.036l1.39-2.41a.112.112 0 00.012-.035.097.097 0 00-.022-.071.107.107 0 00-.03-.023l-.117-.057c-1.677-.77-3.285-1.405-6.004-1.405-4.159 0-6.449 1.602-6.449 4.51 0 3.31 3.081 4.099 5.968 4.577 2.554.423 3.581.782 3.581 1.907 0 1.026-.989 1.523-3.103 1.523-1.947 0-3.928-.825-5.255-1.518l-.083-.04a.097.097 0 00-.07-.005.093.093 0 00-.053.043l-1.379 2.433a.108.108 0 00-.012.035.114.114 0 00.003.037.084.084 0 00.017.033c.007.01.017.018.028.024l.082.045c2.171 1.122 4.492 1.716 6.722 1.716 4.352 0 6.559-1.535 6.559-4.565.002-3.301-2.919-4.101-5.905-4.624zM99.209 8.895c-1.69 0-3.119.557-4.492 1.755V9.363a.093.093 0 00-.093-.093h-3.557a.093.093 0 00-.093.094v20.542a.092.092 0 00.058.087.093.093 0 00.036.007h3.552a.094.094 0 00.087-.057.093.093 0 00.007-.036V22.51c1.307 1.085 2.944 1.707 4.492 1.707 3.971 0 6.738-3.15 6.738-7.66.003-4.297-2.957-7.661-6.735-7.661zm-.936 12.143c-1.3 0-2.396-.61-3.56-1.981v-5.131c1.197-1.284 2.3-1.855 3.56-1.855 2.388 0 3.931 1.76 3.931 4.484 0 2.681-1.58 4.483-3.93 4.483zm13.344-16.627h-3.555a.094.094 0 00-.094.094v19.242c0 .052.042.094.094.094h3.555a.094.094 0 00.094-.095V4.507a.094.094 0 00-.094-.095zm15.359 15.487a.094.094 0 00-.125-.036l-.122.066c-1.211.635-2.304 1.276-4.6 1.276-2.49 0-4.18-1.382-4.518-3.697h10.545a.089.089 0 00.036-.007.09.09 0 00.051-.05.089.089 0 00.008-.036v-1.018c0-4.633-2.772-7.501-7.234-7.501-4.275 0-7.262 3.195-7.262 7.772 0 4.515 3.23 7.549 8.036 7.549 2.281.03 4.525-.577 6.479-1.753l.063-.04a.096.096 0 00.04-.057.097.097 0 00-.01-.07l-1.387-2.398zm-5.925-7.976c1.947 0 3.145 1.01 3.465 2.923h-6.888c.33-1.888 1.546-2.924 3.423-2.924z"/></g><defs><clipPath id="clip0"><path fill="#fff" d="M0 0h142.857v26H0z" transform="translate(.452 4)"/></clipPath></defs></svg>