<svg fill="none" viewBox="0 0 142 44"><g clip-path="url(#clip0)" opacity=".4"><path fill="#fff" d="M50.66 20.582l.66-2.048-2.182.067c-.184 0-1.524-.037-2.824-.951.097.01.194.022.292.022 1.338 0 2.633-.781 3.152-1.898l.938-2.018a17.612 17.612 0 01-2.252-.13c-.01-.001-.857-.106-1.838-1.077-.703-.697-1.573-1.066-2.516-1.066a3.72 3.72 0 00-1.098.17c.05-.164.097-.33.123-.501.3-1.89-.954-3.33-.954-3.329l-1.64-1.97-1.017 2.315c-.003.007-.26.55-.72.815-.139-.68-.479-1.445-1.207-2.177-1.372-1.378-3.042-1.583-3.917-1.583-.405 0-.693.042-.764.053l-1.98.378c.114-.43.357-1.176.802-1.848l1.093-1.652-2.75.305-.877-1.805-1.695.848L25.921 0l-1.564 1.502-1.7-.848-.875 1.805-2.748-.305 1.094 1.652c.445.672.689 1.417.8 1.846l-1.889-.36-.064-.012a5.14 5.14 0 00-.789-.057c-.874 0-2.545.206-3.913 1.583-.73.73-1.07 1.497-1.21 2.177-.457-.262-.712-.797-.712-.797L11.333 5.86 9.666 7.842c-.203.256-1.209 1.61-.935 3.313.029.17.074.336.124.5a3.696 3.696 0 00-1.097-.17c-.943 0-1.813.369-2.518 1.066-.977.967-1.82 1.076-1.813 1.076 0 0-.892.155-2.271.13l.933 2.019c.519 1.118 1.815 1.898 3.15 1.898.102 0 .198-.013.297-.022-1.296.914-2.636.95-2.797.953l-2.224-.07.673 2.045c.338 1.054 1.469 2.801 3.636 2.99-.236.958-.759 2.03-1.907 2.493l-1.655.661.903 1.525c.51.822 1.705 1.784 3.407 1.784a5.433 5.433 0 001.067-.107c.087.376.197.752.327 1.124.507 1.463.07 2.484.064 2.495l-.817 1.66 1.824.467c.023.007.574.153 1.264.153a3.992 3.992 0 001.505-.286c.236.411.523.785.858 1.12 1.168 1.164 2.824 1.753 4.922 1.753h.008l1.497-.018-3.094 1.246 2.35 1.1c.852.404 1.865.88 2.895 1.246l-.292.778.81.357c.072.031 1.628.708 4.217.851 0 0 .625.028.969.028s.962-.03.962-.03c2.571-.147 4.116-.816 4.188-.849l.812-.36-.297-.779c1.061-.376 2.11-.872 2.927-1.259l2.306-1.085-3.085-1.248 1.503.019c2.1 0 3.758-.59 4.925-1.755.332-.333.62-.708.857-1.119a3.97 3.97 0 001.505.286c.678 0 1.235-.145 1.25-.15l1.833-.47-.799-1.628c-.019-.043-.456-1.062.052-2.527.129-.374.237-.75.325-1.124.344.07.703.107 1.073.107a3.999 3.999 0 003.41-1.8l.893-1.508-1.655-.66c-1.15-.463-1.67-1.537-1.904-2.494 2.136-.176 3.284-1.924 3.633-2.985zM21.073 6.358l-.023.006.02-.024.003.018z"/><path fill="#fff" d="M25.923 6.268c-1.752.002-3.065.558-3.352 1.213l3.352 1.282 3.353-1.282c-.285-.655-1.599-1.211-3.353-1.213zm.034 33.956h-.067c-1.062.007-2.524-.205-3.229-.404l-.848 2.225c.56.193 2.452.562 4.111.562 1.656 0 3.55-.37 4.107-.562l-.845-2.225c-.707.201-2.167.411-3.23.404zm6.415-2.212c-.631.347-2.04.867-2.859 1.108l.688 1.837c1.268-.335 2.313-.728 3.178-1.148l-1.427-.46.42-1.337zm-12.895 0l.422 1.336-1.43.461c.863.42 1.915.813 3.176 1.148l.689-1.837c-.816-.241-2.226-.763-2.857-1.108zm6.446-33.87c1.32 0 2.617.305 3.612.843.092-.296.219-.656.392-1.032l-.376.044-.396.041-.167-.348-.504-1.032-.918.464-.357.177-.285-.273-.998-.958-.995.958-.286.273-.357-.177-.924-.464-.497 1.032-.172.348-.395-.04-.376-.045c.173.378.298.736.391 1.032.998-.538 2.29-.844 3.608-.844zm20.166 11.927c.171.057.346.083.519.083.747 0 1.469-.468 1.718-1.005 0 0-1.37-.08-2.843-1.531-.47-.47-.966-.61-1.391-.61a2.25 2.25 0 00-1.158.339c1.78.918 2.142 2.392 3.155 2.724zm-40.85.083c.172 0 .347-.026.514-.083 1.017-.332 1.382-1.806 3.16-2.724 0 0-.497-.34-1.155-.34-.427 0-.923.14-1.395.61-1.47 1.451-2.841 1.532-2.841 1.532.245.537.97 1.005 1.716 1.005z"/><path fill="#fff" d="M46.574 22.06c.03.002.056.002.089.002 1.864 0 2.497-1.937 2.497-1.937h-.036c-.342 0-3.115-.078-5.074-2.494-1.29-1.588-2.348-2.985-4.436-3.534l-.206-.035-.045-.203c-.057-.31.161-.6.657-.912 2.882-1.83.926-4.164.926-4.164s-.823 1.867-2.664 1.867l-.137-.002c-.21-.01-.41-.018-.614-.06l-.34-.065s.524-1.384-.742-2.656c-.954-.96-2.115-1.122-2.786-1.122-.338 0-.553.042-.553.042.637.808 1.097 2.146.361 2.971-.634.71-2.185.745-2.185 1.803 0 .447.431.97 1.206 1.44 2.333 1.425 4.647 3.314 5.609 5.847 1.203 3.158-.152 5.254-2.087 6.455 0 0 .606.542 1.486.61.179.017.354.024.517.024 1.857 0 2.817-.844 2.817-.844s-.158 1.167-1.125 2.25c-.892 1.001-2.062 1.59-3.847 1.615 0 0-.057.803.734 1.498.505.439 1.674.582 1.674.582s-2.187.43-2.429 3.563c-.13 1.697-.578 2.287-.578 2.287h.04c5.077 0 4.946-4.222 4.946-4.222s.353 1.25 1.769 1.576c.17.044.353.06.528.06.456 0 .852-.103.852-.103s-.742-1.517-.006-3.638c.61-1.76.511-3.064.511-3.064s.684 1.002 2.38 1.011h.017c1.412 0 2.028-1.037 2.028-1.037-3.385-1.362-3.05-5.76-3.05-5.76s.438.317 1.296.349zm-1.02 4.592c-1.375-.658-2.246-2.405-2.457-3.035-.228 3.465-1.972 5.87-4.012 8.184-1.058 1.2-1.427 2.367-1.427 2.367s.203-1.322 1.12-2.398c1.902-2.217 3.71-4.976 3.844-8.166.093-2.226-.498-4.032-1.42-5.52.516 1.55.443 3.449-1.307 5.22 0 0 3.484-4.05-1.387-8.2-1.95-1.579-4.083-2.554-5.181-3.245 3.968 1.255 5.905-.127 5.905-.127-1.268 1.065-2.908 1.047-3.925.894.276.13.563.267.872.427 3.345 1.762 6.352 4.661 6.865 8.677v-.032c.78 3.942 2.51 4.954 2.51 4.954zm-31.977 4.386s1.169-.141 1.674-.582c.789-.695.734-1.498.734-1.498-1.786-.024-2.955-.614-3.852-1.613-.96-1.083-1.12-2.25-1.12-2.25s.96.844 2.815.844a5.6 5.6 0 00.519-.024 2.765 2.765 0 001.488-.61c-1.935-1.201-3.292-3.299-2.09-6.457.963-2.53 3.276-4.422 5.608-5.846.775-.47 1.206-.992 1.206-1.442 0-1.057-1.548-1.092-2.183-1.802-.736-.825-.274-2.165.361-2.97 0 0-.211-.043-.551-.043-.67 0-1.83.162-2.784 1.122-1.27 1.272-.743 2.656-.743 2.656l-.34.065c-.204.042-.408.05-.615.06l-.135.002c-1.845 0-2.664-1.865-2.664-1.865s-1.956 2.333.924 4.163c.496.314.712.603.655.912l-.045.203-.21.035c-2.084.55-3.143 1.946-4.433 3.535-1.956 2.413-4.725 2.492-5.07 2.492h-.039s.633 1.937 2.497 1.937c.03 0 .057 0 .09-.002.857-.03 1.298-.348 1.298-.348s.33 4.395-3.05 5.759c0 0 .615 1.037 2.027 1.037h.017c1.697-.009 2.38-1.011 2.38-1.011s-.099 1.304.51 3.064c.735 2.121-.003 3.638-.003 3.638s.396.103.85.103a2.1 2.1 0 00.526-.06 2.43 2.43 0 001.77-1.576s-.13 4.222 4.947 4.222h.036s-.445-.59-.574-2.287c-.243-3.133-2.431-3.563-2.431-3.563zm-.815.763c-2.04-2.314-3.782-4.72-4.012-8.184-.211.628-1.078 2.377-2.454 3.035 0 0 1.73-1.012 2.507-4.954v.032c.515-4.014 3.52-6.915 6.866-8.677.306-.162.597-.298.871-.427-1.017.153-2.657.171-3.925-.894 0 0 1.937 1.382 5.903.127-1.098.691-3.229 1.666-5.179 3.245-4.873 4.15-1.387 8.2-1.387 8.2-1.752-1.773-1.822-3.67-1.307-5.22-.924 1.49-1.513 3.294-1.418 5.52.133 3.19 1.94 5.95 3.839 8.166.918 1.075 1.125 2.398 1.125 2.398S13.818 33 12.761 31.8zm9.409-16.199a5.015 5.015 0 01.515.638l.047.068c.085.126.165.255.245.387.732 1.226 1.904 1.957 2.944 1.96 1.041-.003 2.21-.734 2.946-1.96.082-.136.163-.269.249-.392.013-.019.026-.035.038-.054.072-.105.148-.208.228-.307l.047-.06c.082-.097.166-.193.251-.281l.04-.04c.373-.37.817-.652 1.399-.808l-.259-.146h-.015l-1.03-.58-1.058-.588-2.828 1.492-.008-.005-.006.005-2.83-1.492-1.056.586-1.032.58h-.012l-.262.146a3.056 3.056 0 011.4.805c.018.015.03.032.047.046zm2.607-.12h2.393v.797c-.281-.334-.829-.266-.829-.266v1.148s.021.564.224.81h-1.184c.207-.244.226-.81.226-.81v-1.148s-.545-.068-.83.266v-.796z"/><path fill="#fff" d="M25.678 13.938v-4.66l-3.06-1.007.808 4.517 2.253 1.15zm-.657-3.516v.748l-.148-.066c-.008-.006-.225-.054-.605-.345-.627-.472-.638-.907-.638-.907l1.39.57zm3.402 2.366l.804-4.517-3.058 1.006v4.66l2.254-1.149zm-1.596-2.366l1.39-.568s-.01.435-.64.907c-.378.291-.597.339-.604.344l-.148.067v-.75h.002zM21.35 24.743c.298.106.66.128.844.128.007-.022.017-.05.026-.083.017-.054.033-.105.044-.164.051-.258.07-.551.074-.74a1.041 1.041 0 01-.4-.41c-.115-.233-.276-.34-.514-.34-.308 0-.639.18-.78.264-.111.643.377 1.227.706 1.345zm6.767-2.473c-.569.599-1.68 1.642-1.736 1.695l-.066.067-3.514-.054a3.363 3.363 0 01-.114.835l-.029.109 4.181.728c.436-.295 1.633-1.143 2.097-1.474-.339-.48-.371-1.047-.295-1.447a2.106 2.106 0 01-.524-.46z"/><path fill="#fff" d="M28.596 18.172c-.81.78-1.587 1.067-2.28 1.133a3.72 3.72 0 01-.383.02h-.017a3.773 3.773 0 01-.76-.077c-.046.175-.103.542.06.888.147.315.445.55.88.704l.147.055.002.153a1.42 1.42 0 001.15 1.313c.182-.183.348-.347.47-.483-.229-.52-.11-1.05.222-1.31-.016.055-.16 1.356.916 1.839l.176.08-.053.183c-.017.055-.376 1.314.926 1.782l.23.085-.103.218c-.023.047-.534 1.19.67 1.839h2.608v-2.009c-.927-.11-1.32-.833-1.421-1.345-.431-.072-.766-.253-.994-.548-.548-.698-.076-1.338-.07-1.373-.002.006 0 .688.433 1.108.215.203.47.36.855.394l.19.017.017.188c.004.04.109.962.992 1.107l-.002-4.102c0-.636.192-1.275.422-1.865h-5.283v.006zm-7.022 1.88l-.07 2.612.306.044.749-2.506-.38-.77-.605.62zm8.255 11.984a.35.35 0 01.074.009c.466.129.584 1.758 1.401 1.904.08.016.154.02.219.02.235 0 .376-.098.528-.27 0 0-.41-.628-.718-1.05-.41-.553-.726-1.222-1.487-1.222-.017 0-.04 0-.058.002-.251.013-.405.131-.405.131a1.61 1.61 0 00-.856-.252c-.477 0-.847.212-1.032.212h-.007l-1.7-.163c-.265-.023-.474-.283-.55-.385a.389.389 0 01-.029-.044c0-.044 0-.09-.004-.13-.057-1.348-1.132-1.925-1.514-1.934 0 0 .045-.256-.06-.354l-.374.44-1.23-.598.877.993-.743.809c-.094.092-.082.218-.044.27l.321.274.407-.24c.02-.015.057-.018.102-.018.113 0 .282.027.434.027.165 0 .31-.035.327-.186-.052.5-.529 1.368-.215 2.05l.232.514-1.502-.21-.703 1.151c-.216.384-.25.798-.042 1.023l.263.32s.368-.38.452-.63l-.12-.127c-.1-.106-.095-.202-.034-.318l.441-.71 1.773.406.093-.155c.12-.194.293-.253.483-.253.078 0 .158.01.241.022.33.063.87.148 1.413.148.594 0 1.183-.103 1.497-.444.642.923 1.944 1.07 1.842 1.539l-.342 1.58c.226-.008.444-.023.651-.05l.325-1.647c.037-.178.07-.42.07-.42-.125-.123-.429-.385-.6-.702-.23-.428-.104-.65-.32-1.207.008.004.073-.125.223-.125zm-6.633-2.311a.15.15 0 01-.146-.159.152.152 0 01.163-.138c.088.004.15.077.147.158a.154.154 0 01-.163.139z"/><path fill="#fff" d="M20.775 33.532s.587-.234.64-.402l-.078-.19c-.055-.123-.047-.258.059-.331l.635-.426 1.06.197s-.192-.232-.173-.543l-1.01-.209-.955.564a.882.882 0 00-.304 1.07l.126.27zm7.496 2.68c.19-.008.399-.011.63-.011 0 0 .545-1.546.575-1.596-.306-.131-.94-.457-1.186-.607.162.235.555.504.477.71l-.496 1.504z"/><path fill="#fff" d="M33.463 27.042H18.386v5.499c0 2.248 1.678 3.656 4.154 3.656 2.07 0 2.615.078 3.385.819.53-.513.97-.704 1.87-.776l.021-.085.475-1.425a374.31 374.31 0 00-.804-.888c-.307.1-.566.116-1.001.116a8.4 8.4 0 01-1.496-.15.671.671 0 00-.158-.016c-.066 0-.072.006-.089.037l-.095.151-.173.277-.325-.072-1.446-.33-.198.317.03.033.177.188-.078.245c-.106.32-.452.695-.557.798l-.36.376-.33-.404-.246-.3c-.26-.282-.322-.715-.175-1.168a.022.022 0 01-.015.005l-.41.164-.184-.387-.129-.274a1.311 1.311 0 01.458-1.615l1.165-.637 1.108.211c.027-.103.067-.471.1-.565-.022-.002-.043-.008-.064-.008l-.638.23-.616-.412s-.241-.225-.023-.45l.597-.875-1.51-1.84 2.322.926.154-.186.313-.363.356.328c.1.093.157.21.186.326.64.241 1.786.954 1.887 2.114l-.36.14v.009c.082.094.15.133.172.136l1.657.159c.042-.008.095-.026.154-.043.205-.068.515-.166.882-.166.298 0 .587.067.864.192.103-.037.229-.064.373-.074l.08-.001c.887 0 1.328.643 1.682 1.155.059.089.118.173.178.256.31.424.715 1.045.732 1.071l.183.276-.225.253c-.172.194-.431.42-.876.42-.091 0-.192-.01-.3-.03a1.325 1.325 0 01-.264-.077c-.014.085-.03.186-.048.273l-.29 1.47c1.738-.414 2.843-1.687 2.843-3.508l.002-5.501zm-15.077-.443h11.725c-.586-.586-.578-1.329-.428-1.811a2.004 2.004 0 01-.437-.279 192.81 192.81 0 01-2.222 1.563l-.078.052-4.6-.807h-.094a4.06 4.06 0 01-.449-.024.444.444 0 01-.507.331.446.446 0 01-.294-.176.415.415 0 01-.08-.329l.017-.096c-.475-.324-.913-1.048-.719-1.811l.02-.081.066-.046c.01-.008.09-.06.207-.126l-.335-.05a.225.225 0 01-.19-.254.226.226 0 01.263-.184l.796.122.072-2.72 1.186-1.217.74 1.51-.782 2.616.704.107a.224.224 0 01.19.255.225.225 0 01-.227.184c-.011 0-.024 0-.036-.002l-.572-.09c.008.016.02.026.027.044.06.122.196.21.276.247l3.508.053c.148-.14.517-.49.895-.86a1.846 1.846 0 01-1.23-1.519c-.482-.199-.815-.497-1-.886-.224-.481-.144-.962-.085-1.196-.467-.166-.96-.468-1.461-.951h-5.284c.227.59.418 1.23.418 1.865v6.566z"/><path fill="#000" d="M23.215 29.428a.15.15 0 00-.163.138.148.148 0 00.146.159.153.153 0 00.165-.139c0-.08-.06-.156-.148-.158zM33.442 39.4l-.869-.323.24-.87.264-.949s-1.54.81-3.708 1.418c-.616.171-1.081.248-1.081.248v.645s-1.16.196-2.332.196h-.067c-1.172 0-2.332-.196-2.332-.196v-.645s-.467-.077-1.081-.248c-2.169-.609-3.706-1.418-3.706-1.418l.26.95.245.87-.87.322-.966.35c1.108.518 2.642 1.273 4.047 1.646l-.331.877s1.78.787 4.747.794v.002h.042v-.002c2.97-.007 4.75-.794 4.75-.794l-.333-.877c1.404-.373 2.942-1.128 4.044-1.646l-.963-.35zm-14.973.41l1.43-.462-.422-1.336c.629.347 2.041.866 2.858 1.108l-.69 1.837c-1.262-.337-2.313-.73-3.175-1.148zm7.456 2.797c-1.659 0-3.554-.37-4.11-.563l.847-2.224c.703.2 2.167.411 3.229.404h.067c1.062.007 2.522-.205 3.229-.404l.845 2.224c-.556.194-2.45.563-4.107.563zm4.276-1.65l-.688-1.837c.82-.242 2.228-.761 2.859-1.108l-.42 1.336 1.427.461c-.865.418-1.91.81-3.178 1.148zM25.924 4.68c1.767 0 3.181.568 3.962 1.174 0 0 .232-1.354 1.025-2.55l-1.424.156-.745-1.535-1.431.715-1.387-1.33-1.384 1.33-1.433-.715-.743 1.535-1.424-.156c.793 1.196 1.025 2.55 1.025 2.55.783-.606 2.193-1.174 3.959-1.174zm-3.625-.682l.396.04.17-.347.498-1.032.924.462.358.177.285-.273.995-.958.998.958.285.273.358-.177.918-.462.503 1.032.168.348.395-.04.376-.045a8.51 8.51 0 00-.391 1.032c-.996-.538-2.293-.844-3.613-.844-1.315 0-2.61.306-3.61.844a8.65 8.65 0 00-.391-1.032l.378.044zM46.66 22.653c2.287 0 3.05-2.255 3.083-2.351l.254-.795-.857.026h-.004c-.302 0-2.824-.064-4.612-2.268l-.17-.205c-1.168-1.441-2.276-2.81-4.256-3.435.057-.05.138-.113.25-.183 1.052-.67 1.663-1.485 1.817-2.43.225-1.423-.71-2.557-.752-2.603l-.637-.763-.397.905c-.027.057-.696 1.506-2.102 1.506h-.105c-.096-.006-.188-.01-.279-.017.05-.647-.072-1.647-1.007-2.585-1.123-1.13-2.503-1.3-3.225-1.3-.386 0-.643.046-.67.05l-.961.184.593.758c.466.584.887 1.662.388 2.226-.16.179-.489.324-.804.47-.648.29-1.532.691-1.532 1.716 0 .663.53 1.356 1.492 1.946 2.847 1.736 4.603 3.547 5.361 5.547 1.173 3.076-.357 4.83-1.843 5.754l-.668.416.584.52c.078.066.793.676 1.847.765.2.013.392.024.57.024.677 0 1.253-.104 1.72-.242a4.19 4.19 0 01-.486.667c-.85.955-1.895 1.39-3.398 1.412l-.56.01-.043.543c-.005.109-.047 1.117.937 1.974.15.133.333.241.523.332-.667.582-1.346 1.595-1.477 3.333-.11 1.45-.467 1.987-.471 1.993l-.618.914 1.116.014c1.843 0 3.255-.494 4.234-1.47A4.634 4.634 0 0040.6 34.2a3.03 3.03 0 001.947.693c.52 0 .956-.107 1.005-.118l.713-.184-.316-.645c-.023-.052-.618-1.346.023-3.192a10.19 10.19 0 00.484-2.07c.449.227 1.05.415 1.827.417 1.764 0 2.54-1.277 2.577-1.331l.348-.586-.644-.258c-2.102-.846-2.568-3.118-2.661-4.35.19.036.407.069.652.076h.106zm1.667 4.818s-.616 1.037-2.028 1.037h-.017c-1.695-.01-2.38-1.012-2.38-1.012s.1 1.305-.513 3.065c-.735 2.121.006 3.638.006 3.638s-.395.103-.851.103c-.175 0-.358-.016-.529-.06a2.426 2.426 0 01-1.77-1.576s.132 4.222-4.944 4.222h-.04s.446-.59.58-2.287c.24-3.133 2.428-3.563 2.428-3.563s-1.167-.141-1.672-.582c-.79-.695-.736-1.498-.736-1.498 1.787-.024 2.956-.614 3.847-1.615.965-1.083 1.125-2.25 1.125-2.25s-.96.844-2.816.844c-.164 0-.339-.007-.518-.024a2.764 2.764 0 01-1.486-.61c1.933-1.201 3.29-3.299 2.087-6.457-.963-2.53-3.278-4.421-5.608-5.846-.776-.47-1.207-.992-1.207-1.441 0-1.058 1.55-1.091 2.187-1.803.734-.825.274-2.165-.363-2.97 0 0 .215-.043.553-.043.671 0 1.833.164 2.787 1.122 1.267 1.272.74 2.656.74 2.656l.341.065c.203.042.405.05.614.059l.137.002c1.841 0 2.664-1.867 2.664-1.867s1.958 2.335-.923 4.163c-.496.313-.715.603-.658.912l.046.203.205.035c2.088.549 3.145 1.946 4.436 3.535 1.96 2.416 4.732 2.493 5.074 2.493h.036s-.633 1.937-2.497 1.937c-.03 0-.057 0-.09-.002-.856-.03-1.296-.348-1.296-.348s-.336 4.399 3.049 5.763z"/><path fill="#000" d="M42.644 13.868c.854.44 1.35 1.03 1.785 1.554.427.51.834 1.002 1.469 1.207.226.075.465.11.709.11.954 0 1.912-.565 2.275-1.349l.364-.785-.883-.051c-.042-.002-1.178-.102-2.444-1.357-.521-.514-1.15-.785-1.829-.785-.828 0-1.442.402-1.51.443l-.814.554.878.46zm1.448-.862c.426 0 .922.14 1.392.61 1.472 1.45 2.843 1.531 2.843 1.531-.25.535-.971 1.005-1.718 1.005-.173 0-.346-.026-.52-.083-1.012-.332-1.375-1.806-3.156-2.724 0 0 .498-.34 1.16-.34zm-1.05 8.693v.03c-.513-4.015-3.52-6.913-6.865-8.677-.31-.16-.594-.297-.872-.428 1.019.153 2.659.171 3.925-.894 0 0-1.937 1.383-5.905.127 1.098.692 3.233 1.667 5.18 3.246 4.872 4.15 1.386 8.2 1.386 8.2 1.75-1.772 1.823-3.67 1.308-5.22.921 1.487 1.51 3.293 1.42 5.52-.136 3.19-1.943 5.948-3.846 8.166-.914 1.076-1.119 2.397-1.119 2.397S38.023 33 39.081 31.8c2.04-2.315 3.782-4.72 4.01-8.184.212.628 1.08 2.377 2.458 3.035.004.002-1.728-1.01-2.507-4.952zM17.084 36.55c-.002-.006-.355-.542-.47-1.992-.132-1.738-.81-2.752-1.478-3.334.194-.089.372-.198.523-.332.982-.857.94-1.865.934-1.974l-.037-.544-.563-.009c-1.5-.024-2.547-.459-3.396-1.411a4.378 4.378 0 01-.487-.668c.468.139 1.04.242 1.718.242.183 0 .371-.011.57-.024a3.418 3.418 0 001.85-.765l.583-.52-.667-.416c-1.492-.925-3.016-2.68-1.845-5.754.758-2 2.512-3.81 5.363-5.547.962-.59 1.488-1.283 1.488-1.946 0-1.025-.882-1.428-1.53-1.716-.315-.145-.644-.291-.804-.47-.502-.562-.078-1.642.386-2.226l.597-.758-.966-.184c-.028-.004-.28-.05-.669-.05-.722 0-2.098.17-3.223 1.3-.937.94-1.06 1.94-1.013 2.585-.091.008-.182.011-.277.017h-.103c-1.41 0-2.077-1.449-2.104-1.506l-.397-.905-.643.763c-.036.046-.974 1.182-.746 2.603.152.945.764 1.76 1.815 2.43.114.07.193.133.25.183-1.978.625-3.084 1.996-4.253 3.437l-.17.205c-1.785 2.204-4.313 2.268-4.615 2.268l-.861-.026.262.795c.03.096.792 2.351 3.08 2.351l.11-.003c.242-.008.459-.04.653-.076-.095 1.23-.56 3.502-2.665 4.35l-.642.257.348.586c.034.054.813 1.33 2.58 1.33a4.018 4.018 0 001.823-.416c.069.557.21 1.272.485 2.07.64 1.847.044 3.14.02 3.192l-.315.645.715.184c.047.011.486.118 1.005.118.243 0 .468-.026.67-.072.54-.123.959-.355 1.276-.62a4.628 4.628 0 001.103 1.81c.98.976 2.39 1.47 4.234 1.47l1.117-.015-.62-.912zm-.54.337c-5.076 0-4.947-4.222-4.947-4.222s-.353 1.25-1.77 1.576a2.1 2.1 0 01-.526.06c-.456 0-.85-.103-.85-.103s.738-1.517.003-3.638c-.608-1.76-.51-3.065-.51-3.065s-.682 1.003-2.379 1.012h-.017c-1.412 0-2.028-1.037-2.028-1.037 3.383-1.362 3.05-5.76 3.05-5.76s-.439.317-1.298.349c-.03.002-.059.002-.09.002-1.865 0-2.496-1.937-2.496-1.937h.038c.344 0 3.113-.078 5.072-2.494 1.29-1.588 2.35-2.983 4.434-3.535l.209-.035.046-.202c.057-.31-.16-.6-.656-.912-2.881-1.83-.924-4.164-.924-4.164s.82 1.865 2.665 1.865l.135-.002c.207-.01.412-.018.614-.06l.34-.065s-.527-1.384.743-2.655c.954-.96 2.115-1.123 2.784-1.123.34 0 .551.043.551.043-.634.807-1.094 2.145-.36 2.97.634.71 2.183.745 2.183 1.803 0 .448-.431.97-1.207 1.44-2.332 1.425-4.647 3.316-5.608 5.847-1.201 3.158.154 5.254 2.09 6.457 0 0-.608.542-1.488.61a5.636 5.636 0 01-.519.024c-1.855 0-2.814-.844-2.814-.844s.16 1.167 1.12 2.25c.896 1.001 2.065 1.591 3.851 1.615 0 0 .058.803-.733 1.498-.508.439-1.675.582-1.675.582s2.19.43 2.43 3.563c.13 1.697.573 2.287.573 2.287h-.036z"/><path fill="#000" d="M5.239 16.741c.245 0 .484-.035.71-.11.639-.205 1.044-.697 1.471-1.207.438-.524.93-1.113 1.783-1.554l.878-.457-.815-.555c-.069-.042-.68-.442-1.507-.442-.68 0-1.312.27-1.83.785-1.266 1.253-2.4 1.355-2.443 1.356l-.883.05.363.787c.364.78 1.32 1.347 2.273 1.347zm1.125-3.123c.471-.47.967-.61 1.395-.61.657 0 1.155.339 1.155.339-1.779.92-2.144 2.392-3.16 2.723a1.591 1.591 0 01-.515.084c-.747 0-1.47-.469-1.717-1.005 0-.002 1.369-.083 2.842-1.531zm2.863 9.986c-.095-2.226.494-4.032 1.418-5.52-.515 1.55-.445 3.449 1.307 5.22 0 0-3.485-4.049 1.388-8.2 1.95-1.579 4.082-2.553 5.179-3.245-3.967 1.255-5.903-.127-5.903-.127 1.265 1.066 2.905 1.047 3.924.892-.275.131-.564.268-.87.428-3.349 1.763-6.354 4.662-6.869 8.676v-.031c-.777 3.942-2.507 4.954-2.507 4.954 1.376-.658 2.243-2.405 2.454-3.036.23 3.465 1.973 5.87 4.012 8.185 1.059 1.2 1.431 2.366 1.431 2.366s-.207-1.321-1.125-2.397c-1.899-2.214-3.706-4.975-3.839-8.165zm15.55-8.121v.796c.284-.334.83-.266.83-.266v1.148s-.018.564-.225.81h1.183c-.203-.244-.224-.81-.224-.81v-1.148s.548-.068.83.266v-.796h-2.394zm-.509-4.722c.379.291.597.34.605.345l.148.066v-.75l-1.391-.568c0 .002.013.435.638.907zm3.31 0c.628-.472.64-.907.64-.907l-1.391.568v.75l.146-.066c.01-.006.226-.054.604-.345z"/><path fill="#000" d="M30.084 7.707c0-1.137-1.975-2.16-4.155-2.16h-.013c-2.18 0-4.155 1.023-4.155 2.16l.044.28.87 4.845-.873.493-2.262 1.28h.007s-.509.253-.745.41c-.86.58-1.043 1.426-.543 1.776.123-.69.686-1.412 1.739-1.412.758 0 1.336.38 1.803.95.12.143.234.296.34.462.132.208.263.39.394.568H16.71c.428.835.834 1.72.834 2.68V32.54c0 3.026 2.4 4.47 4.997 4.47 2.007 0 2.277-.088 3.385.981 1.102-1.07 1.372-.98 3.38-.98 2.598 0 4.995-1.445 4.995-4.471V20.038c0-.96.407-1.844.836-2.68H29.31c.13-.174.26-.359.392-.567.108-.166.22-.319.338-.463.471-.57 1.047-.949 1.806-.949 1.052 0 1.613.721 1.739 1.412.5-.35.319-1.196-.548-1.777-.232-.156-.741-.409-.741-.409h.008l-2.262-1.28-.87-.492.87-4.846.042-.28zm-7.465.564l3.06 1.006v4.661l-2.253-1.152-.807-4.515zm.633 9.9c.501.485.994.786 1.461.951-.06.234-.14.717.085 1.198.185.387.52.686 1 .885.053.48.365 1.2 1.23 1.519-.378.37-.747.718-.897.86l-3.507-.053a.616.616 0 01-.275-.249c-.008-.017-.02-.026-.025-.044l.572.09a.258.258 0 00.036.002c.11 0 .207-.074.226-.184a.223.223 0 00-.19-.255l-.703-.107.781-2.615-.74-1.51-1.185 1.217-.072 2.72-.796-.121a.227.227 0 00-.263.184.225.225 0 00.19.254l.335.05c-.12.066-.198.118-.207.125l-.069.046-.019.082c-.194.762.245 1.487.719 1.811l-.017.096a.442.442 0 00.447.51.448.448 0 00.434-.339c.177.02.339.024.449.024h.093l4.601.806.078-.05a226.23 226.23 0 002.222-1.563c.125.105.266.201.437.28-.148.483-.158 1.226.43 1.812H18.385V20.04c0-.636-.192-1.275-.418-1.865h5.284v-.003zm5.686 6.005a188.71 188.71 0 01-2.096 1.474l-4.182-.728.029-.109c.055-.21.11-.497.114-.834l3.514.055.067-.066c.053-.052 1.166-1.095 1.735-1.696.135.164.304.32.524.459-.076.398-.044.966.295 1.445zm-7-.702c.1.2.278.335.401.41a4.556 4.556 0 01-.074.74c-.011.057-.027.11-.044.164-.009.033-.019.06-.026.083a2.77 2.77 0 01-.844-.128c-.329-.117-.82-.702-.705-1.345.142-.085.471-.264.78-.264.237-.001.398.107.512.34zm-.435-.81l.07-2.61.605-.622.38.77-.749 2.507-.306-.044zm7.397 13.54c-.228 0-.44.003-.63.01l.499-1.501c.078-.208-.316-.476-.477-.71.245.15.88.476 1.186.607-.033.047-.578 1.594-.578 1.594zm1.562-1.707l-.325 1.644a7.262 7.262 0 01-.654.052l.342-1.582c.103-.47-1.199-.615-1.841-1.538-.314.342-.905.444-1.498.444a7.881 7.881 0 01-1.412-.148 1.59 1.59 0 00-.241-.022c-.19 0-.363.057-.483.253l-.095.155-1.773-.406-.441.708c-.063.114-.067.212.034.319l.12.127c-.082.25-.45.628-.45.628l-.265-.319c-.209-.226-.175-.64.044-1.023l.703-1.151 1.502.21-.234-.516c-.314-.682.163-1.55.214-2.05-.017.152-.16.185-.326.185-.152 0-.322-.028-.434-.028-.043 0-.081.004-.102.018l-.407.24-.321-.274c-.038-.054-.052-.178.044-.27l.743-.807-.878-.993 1.23.599.373-.44c.103.097.06.353.06.353.384.01 1.459.586 1.516 1.932.004.04.004.086.004.13l.029.045c.076.101.285.36.55.385l1.7.162h.007c.186 0 .557-.212 1.032-.212.259 0 .547.065.855.253 0 0 .154-.118.405-.131.02-.002.04-.002.06-.002.761 0 1.077.667 1.485 1.222.308.422.719 1.048.719 1.048-.152.175-.293.271-.529.271-.064 0-.138-.005-.218-.02-.817-.146-.935-1.775-1.4-1.904a.263.263 0 00-.075-.009.253.253 0 00-.216.129c.212.555.089.78.317 1.207.17.317.475.579.6.702 0 .004-.034.244-.07.424zm-9.124-1.555l.078.19c-.052.166-.64.401-.64.401l-.128-.269a.88.88 0 01.304-1.069l.954-.564 1.011.209a.85.85 0 00.173.543l-1.06-.197-.635.426c-.107.072-.114.206-.057.33zm9.284 3.109l.29-1.47c.016-.088.035-.189.048-.274.082.034.17.061.264.078.108.02.21.03.3.03.445 0 .704-.227.877-.42l.224-.254-.183-.276a26.09 26.09 0 00-.731-1.07 5.591 5.591 0 01-.179-.257c-.353-.512-.796-1.155-1.684-1.155l-.08.002a1.34 1.34 0 00-.372.073 2.064 2.064 0 00-.865-.191 2.73 2.73 0 00-.882.166c-.059.016-.112.035-.154.042l-1.659-.159c-.02-.003-.09-.042-.17-.138v-.007l.358-.14c-.1-1.16-1.248-1.873-1.889-2.114a.65.65 0 00-.186-.326l-.357-.328-.314.365-.154.186-2.322-.925 1.51 1.839-.596.875c-.219.225.023.45.023.45l.615.41.64-.23c.022 0 .04.006.062.008-.03.094-.07.462-.097.566l-1.108-.212-1.165.637a1.311 1.311 0 00-.458 1.615l.129.274.184.387.407-.164a.035.035 0 00.015-.007c-.146.453-.087.885.175 1.168l.247.303.329.403.361-.376c.107-.103.45-.477.557-.798l.078-.245-.177-.188-.028-.033.197-.317 1.446.33.326.072.172-.277.095-.15c.018-.032.023-.038.09-.038a.81.81 0 01.158.017c.545.1 1.049.15 1.495.15.434 0 .692-.017 1.002-.117 0 0 .777.855.804.888l-.475 1.423-.021.087c-.901.07-1.34.261-1.87.776-.77-.741-1.316-.819-3.385-.819-2.477 0-4.155-1.408-4.155-3.656v-5.5H33.46l.004 5.498c.002 1.825-1.102 3.096-2.841 3.51zm3.26-17.878c-.23.59-.423 1.229-.423 1.864l.002 4.103c-.884-.144-.988-1.067-.992-1.108l-.017-.188-.19-.016a1.358 1.358 0 01-.854-.397c-.433-.42-.435-1.102-.433-1.107-.005.035-.477.674.07 1.373.23.295.563.475.994.547.101.513.495 1.235 1.422 1.346v2.008h-2.607c-1.203-.648-.694-1.79-.67-1.839l.103-.217-.23-.085c-1.302-.468-.944-1.729-.925-1.782l.053-.184-.177-.082c-1.076-.482-.93-1.785-.916-1.839-.33.26-.45.79-.222 1.31-.124.137-.289.303-.47.483a1.421 1.421 0 01-1.147-1.314l-.003-.153-.146-.055c-.435-.157-.733-.39-.88-.706-.165-.348-.106-.713-.06-.888.127.028.254.048.376.057.125.013.254.02.384.02h.017c.129 0 .256-.007.382-.02.693-.066 1.47-.356 2.28-1.133h5.278v.002zm-4.064-4.147l1.03.58h.015l.259.146a3.056 3.056 0 00-1.4.81c-.013.01-.026.025-.04.038a4.544 4.544 0 00-.25.282l-.047.059a4.631 4.631 0 00-.265.36 7.061 7.061 0 00-.249.393c-.733 1.226-1.904 1.958-2.945 1.96-1.04-.002-2.21-.734-2.944-1.96a7.974 7.974 0 00-.246-.387l-.047-.068a7.83 7.83 0 00-.274-.363 7.01 7.01 0 00-.243-.274c-.017-.013-.029-.03-.046-.045a3.04 3.04 0 00-1.4-.805l.262-.146h.011l1.03-.58 1.059-.588 2.828 1.493.006-.006.007.006 2.828-1.493 1.06.588zm-1.395-1.237l-2.254 1.152V9.278l3.058-1.007-.804 4.517zm-2.5-4.023l-3.352-1.284c.285-.655 1.6-1.211 3.353-1.213 1.754.002 3.069.558 3.352 1.213l-3.352 1.284z"/><path fill="#fff" d="M67.439 28.27v-7.38h4.463v-2.685H59.725v2.685h4.463v7.38h3.25zm9.014-10.065h-3.25V28.27h3.25V18.205zm2.379 0V28.27h2.99v-5.561l5.569 5.56h2.773V18.206h-2.99v5.519l-5.439-5.519h-2.903zm17.72 6.259l3.748 3.806h4.183l-5.222-5.244 5.026-4.821h-3.943l-3.792 3.785h-.867v-3.785h-3.142V28.27h3.142v-3.806h.867zm14.395-6.534c-4.225 0-6.76 2.326-6.76 5.328 0 3.003 2.535 5.329 6.76 5.329 4.205 0 6.739-2.326 6.739-5.329 0-3.002-2.534-5.328-6.739-5.328zm0 8.204c-2.101 0-3.445-1.226-3.445-2.876 0-1.649 1.344-2.854 3.445-2.854 2.081 0 3.446 1.205 3.446 2.854 0 1.65-1.365 2.876-3.446 2.876zm18.654-7.929h-10.422V28.27h3.141v-3.51h6.827v-2.22h-6.827v-1.777h7.281v-2.558zm11.829 0h-10.423V28.27h3.142v-3.51h6.826v-2.22h-6.826v-1.777h7.281v-2.558z"/></g><defs><clipPath id="clip0"><path fill="#fff" d="M0 0h141v44H0z" transform="translate(.515)"/></clipPath></defs></svg>