<svg fill="none" viewBox="0 0 123 40"><g clip-path="url(#clip0)" opacity=".4"><path fill="#fff" fill-rule="evenodd" d="M87.383 25.886h2.58V14.21h-2.58v11.675zm28.466-11.688h-2.696c0 2.305.005 4.494-.003 6.684-.008 1.455-1.043 2.48-2.467 2.466-1.437-.01-2.103-.739-2.114-2.359-.013-1.915 0-3.833-.007-5.748-.003-.348-.06-.696-.092-1.027h-2.519c-.044.104-.089.159-.089.214-.007 2.736-.052 5.477 0 8.213.027 1.332.654 2.375 1.968 2.934 1.345-.896 2.835-.818 4.327-.635 1.218.151 2.409.068 3.718-.196-.01-3.527.029-7.029-.026-10.546zm-12.516 2.754c-.031-1.134-.758-1.968-1.8-2.448-1.077-.497-2.224-.711-3.374-.44-.95.226-1.858.636-2.811.976-.413-.358-.886-.766-1.403-1.218L92.184 15.4c1.191 1.495 1.191 1.495 1.191 3.441 0 2.007 0 4.016.003 6.023 0 .324.028.65.047 1.017h2.66v-6.54c0-1.422.742-2.376 2.127-2.734 1.62-.418 2.466.222 2.472 1.89.007 2.126 0 4.256.005 6.385 0 .324.031.648.049.978h2.619c0-3.016.052-5.963-.024-8.908zm-34.888-.48c1.29.088 1.79.61 1.7 1.92-1.306 1.314-2.928.758-4.457.846.11-1.622 1.382-2.86 2.757-2.767zm3.757 5.923c-.66.287-1.238.554-1.829.786-.925.369-1.884.476-2.866.277-.978-.196-1.448-.663-1.633-1.695.556 0 1.095-.003 1.63 0 1.265.012 2.493-.165 3.622-.766 2.307-1.23 2.592-4.416.504-5.942-2.213-1.62-5.516-1.482-7.429.795-1.431 1.706-1.711 3.702-1.369 5.84.282 1.745 1.184 3.064 2.754 3.85 2.232 1.12 5.981.526 7.93-1.235-.436-.633-.877-1.273-1.314-1.91zm49.437-1.411c-.744-1.72-2.814-2.866-4.711-2.6-.17.024-.326.13-.52.214v2.66c.358-.057.654-.128.951-.146.748-.047 1.479.358 1.746.94.3.654.128 1.587-.447 2.091-.29.253-.635.51-.998.606-.873.233-1.766.484-2.663.52-1.638.07-3.284-.036-4.925.013-1.327.042-2.576.721-3.266 1.855-1.197 1.97-.635 4.704 1.173 6.031 1.756 1.288 4.374 1.058 5.929-.54 1.121-1.153 1.604-2.59 1.858-4.242h-2.741c-.095.298-.178.651-.314.983-.149.363-.303.734-.523 1.056-.543.794-1.52 1.055-2.333.671-.643-.303-1.066-1.184-.925-1.923.172-.907.638-1.228 1.819-1.23 1.672-.006 3.344.051 5.014-.004 1.672-.057 3.235-.538 4.57-1.593 1.576-1.244 2.114-3.496 1.306-5.362zm-39.408 1.419c-.698.917-1.68 1.152-2.75 1.147-.514-.003-1.029-.084-1.695-.141 0-1.827-.068-3.588.029-5.341.047-.87.805-1.354 1.591-1.579.917-.263 1.819-.187 2.537.56 1.223 1.278 1.362 3.94.288 5.354zm3.363-3.946c-.437-3.02-2.723-4.837-5.751-4.659-.656.04-1.302.251-2.062.408V9.265h-2.762v16.198c1.239.43 3.75.744 5.006.642 3.005-.243 4.908-1.76 5.495-4.575.21-.99.22-2.07.074-3.073zM59.79 14.208c-.76 2.146-1.526 4.296-2.292 6.45h-.243c-.763-2.159-1.528-4.315-2.291-6.468h-2.38c-.774 2.177-1.54 4.333-2.305 6.49h-.223l-2.302-6.461h-2.842l4.078 11.677h2.347l2.323-6.53h.235c.776 2.19 1.55 4.382 2.31 6.525h2.351l4.08-11.683H59.79z" clip-rule="evenodd"/><mask id="a" width="37" height="40" x="0" y="0" maskUnits="userSpaceOnUse"><path fill="#fff" d="M34.284 31.512l-13.62 7.864a4.167 4.167 0 01-4.166 0l-13.62-7.864a4.166 4.166 0 01-2.084-3.608V12.177c0-1.488.794-2.864 2.083-3.608L16.497.705a4.166 4.166 0 014.167 0l13.62 7.864a4.165 4.165 0 012.083 3.608v15.727a4.166 4.166 0 01-2.083 3.608zm-7.47-18.105c-1.022 2.882-2.051 5.771-3.08 8.664h-.326c-1.025-2.9-2.054-5.796-3.079-8.689h-3.198c-1.04 2.925-2.068 5.821-3.096 8.72h-.299a12804.74 12804.74 0 00-3.093-8.68h-3.82c1.858 5.318 3.67 10.503 5.48 15.688h3.153l3.121-8.773h.316c1.043 2.942 2.082 5.887 3.104 8.766h3.16l5.48-15.696h-3.824z"/></mask><g mask="url(#a)"><path fill="#fff" d="M34.284 31.512l-13.62 7.864a4.167 4.167 0 01-4.166 0l-13.62-7.864a4.166 4.166 0 01-2.084-3.608V12.177c0-1.488.794-2.864 2.083-3.608L16.497.705a4.166 4.166 0 014.167 0l13.62 7.864a4.165 4.165 0 012.083 3.608v15.727a4.166 4.166 0 01-2.083 3.608zm-7.47-18.105c-1.022 2.882-2.051 5.771-3.08 8.664h-.326c-1.025-2.9-2.054-5.796-3.079-8.689h-3.198c-1.04 2.925-2.068 5.821-3.096 8.72h-.299a12804.74 12804.74 0 00-3.093-8.68h-3.82c1.858 5.318 3.67 10.503 5.48 15.688h3.153l3.121-8.773h.316c1.043 2.942 2.082 5.887 3.104 8.766h3.16l5.48-15.696h-3.824z"/></g></g><defs><clipPath id="clip0"><path fill="#fff" d="M0 0h121.471v40H0z" transform="translate(.794)"/></clipPath></defs></svg>