<svg fill="none" viewBox="0 0 164 34"><g fill="#fff" clip-path="url(#clip0)" opacity=".4"><path fill-rule="evenodd" d="M.063 0h33.805v34H.063V0zM9.98 8.273l5.86 10.994v7.14h2.253V19.38l5.86-11.107h-2.48l-3.38 6.914c-.225.34-.45.68-.563 1.02-.065.26-.167.447-.264.622-.071.13-.14.253-.187.398a.572.572 0 01-.113-.227c-.028-.085-.056-.17-.113-.227a1.959 1.959 0 01-.112-.283 1.967 1.967 0 00-.113-.283v-.114l-.113-.113a2.218 2.218 0 01-.092-.216.595.595 0 00-.133-.237c-.113-.113-.225-.227-.225-.34l-3.38-6.914H9.98z" clip-rule="evenodd"/><path d="M49.305 6.573c1.69 0 3.155.454 4.282 1.36l-1.127 1.36c-1.014-.68-2.028-1.133-3.267-1.133-1.916 0-3.381 1.02-4.17 2.947-.45 1.133-.676 2.606-.676 4.533 0 1.473.225 2.72.563 3.627.902 2.153 2.367 3.173 4.62 3.173 1.24 0 2.367-.34 3.381-1.133l1.127 1.473c-1.465.907-3.043 1.36-4.733 1.36-2.028 0-3.718-.793-5.07-2.493-1.353-1.587-1.916-3.74-1.916-6.347s.676-4.647 2.028-6.347c1.24-1.473 2.93-2.38 4.958-2.38zm6.423 11.22c0-2.04.45-3.626 1.465-4.76 1.014-1.133 2.254-1.813 3.831-1.813 1.803 0 3.268.68 4.282 2.153.789 1.134 1.127 2.72 1.127 4.647 0 2.267-.676 4.08-1.916 5.213-.901.794-2.028 1.247-3.38 1.247-1.69 0-2.93-.567-3.944-1.813-1.014-1.134-1.465-2.834-1.465-4.874zm7.888-3.286c-.564-1.02-1.352-1.587-2.592-1.587s-2.028.453-2.592 1.36c-.45.68-.563 1.813-.563 3.287 0 1.926.225 3.286.789 4.08.563.793 1.352 1.246 2.479 1.246 1.352 0 2.253-.68 2.704-1.926.226-.68.338-1.587.338-2.72.113-1.7-.112-2.947-.563-3.74zm6.423.226c0-1.246-.113-2.266-.451-3.06l1.916-.453c.337.567.45 1.247.45 1.813v.114c.45-.454.902-.907 1.578-1.247.788-.453 1.465-.68 2.14-.68 1.015 0 1.916.453 2.48 1.247.112.226.338.566.45.793 1.353-1.36 2.592-2.04 3.944-2.04.902 0 1.69.34 2.254.907.563.68.901 1.473.901 2.38v9.406h-2.028V14.62c0-1.247-.563-1.813-1.577-1.813-.564 0-1.24.226-1.803.68-.226.226-.676.566-1.24 1.02l-.225.226v9.18h-2.141v-8.84c0-.793-.113-1.36-.338-1.586-.338-.34-.676-.454-1.24-.454-.901 0-1.915.567-3.155 1.7v9.294H70.04v-9.294zM89.194 6.12l2.029-.453c.225.906.338 1.926.338 3.173v4.193c1.126-1.133 2.366-1.7 3.605-1.7 1.465 0 2.705.567 3.494 1.7.901 1.134 1.352 2.72 1.352 4.647 0 2.04-.45 3.627-1.352 4.873-.902 1.247-2.141 1.814-3.606 1.814-.676 0-1.24-.114-1.916-.454-.676-.34-1.127-.68-1.465-1.133-.112.567-.225 1.02-.338 1.36H89.42c.225-.567.338-1.587.338-3.173v-11.9c-.113-1.36-.226-2.38-.564-2.947zm3.268 7.707a3.44 3.44 0 00-.901.906v6.46c.788 1.02 1.803 1.474 3.042 1.474 1.014 0 1.803-.34 2.254-1.134.563-.906.901-2.153.901-3.966 0-1.587-.225-2.72-.789-3.4-.45-.68-1.24-1.02-2.366-1.02-.676-.114-1.465.113-2.14.68zm10.48-6.12c0-.454.113-.794.451-1.134.338-.34.676-.453 1.126-.453.451 0 .789.113 1.127.453.338.34.451.68.451 1.134 0 .453-.113.793-.451 1.133-.338.34-.676.453-1.127.453-.45 0-.788-.113-1.126-.453-.338-.34-.451-.68-.451-1.133zm.451 16.32V11.56l2.028-.34v12.807h-2.028zm6.422-9.294c0-.906 0-1.473-.112-1.7 0-.34-.226-.68-.451-1.246l1.916-.567c.338.68.45 1.247.45 1.927 1.24-1.247 2.592-1.927 3.944-1.927.676 0 1.24.113 1.803.453s1.014.794 1.24 1.36c.225.454.338.907.338 1.474v9.52h-1.916v-8.5c0-1.02-.113-1.7-.451-2.04a1.861 1.861 0 00-1.352-.567c-.451 0-1.127.227-1.803.567a6.57 6.57 0 00-1.69 1.246v9.294h-1.916v-9.294zm13.635-.453l-1.015-1.36c1.691-1.133 3.381-1.7 5.184-1.7 1.803 0 2.93.68 3.493 1.927.225.453.225 1.133.225 2.153v.68l-.112 4.08v.567c0 .68 0 1.133.112 1.473.113.453.451.793.902 1.02l-1.014 1.36c-.902-.34-1.465-.907-1.691-1.813-1.126 1.133-2.366 1.7-3.605 1.7-1.24 0-2.254-.34-3.043-1.02-.676-.567-1.014-1.474-1.014-2.607 0-1.473.563-2.493 1.69-3.287 1.127-.793 2.817-1.133 4.846-1.133h.901v-.907c0-1.02-.113-1.7-.451-1.926-.45-.454-.901-.68-1.69-.68-.676 0-1.465.226-2.366.566-.338.227-.789.567-1.352.907zm5.972 6.687l.112-3.287h-1.014c-1.803 0-2.929.34-3.606 1.02-.45.453-.676 1.133-.676 2.04 0 1.473.676 2.267 2.141 2.267 1.353-.114 2.367-.794 3.043-2.04zm8.339-9.407h3.155l-.564 1.587h-2.591v8.046c0 .68.112 1.134.338 1.474.225.226.676.453 1.239.453.451 0 .902-.113 1.24-.227l.225 1.247c-.676.34-1.352.453-2.141.453-1.916 0-2.817-.906-2.817-2.833v-8.613h-1.69V11.56h1.577v-.227c0-.226.113-1.133.226-2.606v-.34l2.028-.454c-.225 1.36-.225 2.607-.225 3.627zm5.183 6.233c0-2.04.451-3.626 1.465-4.76.902-1.133 2.254-1.813 3.831-1.813 1.803 0 3.268.68 4.282 2.153.789 1.134 1.127 2.72 1.127 4.647 0 2.267-.676 4.08-1.915 5.213-.902.794-2.029 1.247-3.381 1.247-1.69 0-2.93-.567-3.944-1.813-.901-1.134-1.465-2.834-1.465-4.874zm8.001-3.286c-.564-1.02-1.352-1.587-2.592-1.587-1.239 0-2.028.453-2.592 1.36-.45.68-.563 1.813-.563 3.287 0 1.926.225 3.286.789 4.08.563.793 1.352 1.246 2.479 1.246 1.352 0 2.253-.68 2.704-1.926.225-.68.338-1.587.338-2.72 0-1.7-.225-2.947-.563-3.74zm6.422 0c0-1.134-.113-2.04-.451-2.72l1.916-.567c.338.68.45 1.247.45 1.927v.226c1.014-1.36 2.141-2.04 3.493-2.04.226 0 .451 0 .677.114l-.789 2.153c-.226-.113-.451-.113-.564-.113-.45 0-1.014.113-1.464.453-.451.34-.902.68-1.127 1.133-.113.34-.226.794-.226 1.36v7.82h-1.915v-9.746z"/></g><defs><clipPath id="clip0"><path fill="#fff" d="M0 0h163.389v34H0z" transform="translate(.063)"/></clipPath></defs></svg>