<svg xmlns:xlink="http://www.w3.org/1999/xlink" fill="none" viewBox="0 0 960 522"><path fill="#C4C4C4" d="M34 453h295v8H34z"/><mask id="a" fill="#fff"><rect width="201" height="76" x="744" y="28" rx="1"/></mask><rect width="201" height="76" x="744" y="28" fill="#FFE9DE" stroke="#F96132" stroke-width="2.8" mask="url(#a)" rx="1"/><path fill="#C4C4C4" d="M663 459V62h8v397zm-342 0V62h8v397z"/><path fill="#C4C4C4" d="M321 257h350v8H321zM663 62h81v8h-81v-8zm0 389.5h81v8h-81v-8zM29 62h295v8H29z"/><path fill="#FFC4B2" stroke="#F96132" stroke-width="1.4" d="M958.696 42.705l-14.5-14.06c-.634-.615-1.696-.166-1.696.718v72.163a1 1 0 00.367.774l14.5 11.864a1 1 0 001.633-.774V43.423a1 1 0 00-.304-.718zm0 381l-14.5-14.06c-.634-.615-1.696-.166-1.696.718v72.163a1 1 0 00.367.774l14.5 11.864a1 1 0 001.633-.774v-69.967c0-.27-.11-.529-.304-.718z"/><path fill="#FF906E" stroke="#F96132" stroke-width="1.4" d="M958 114.5l-13.5-11H746l13.5 11H958zm0 381l-13.5-11H746l13.5 11H958z"/><path fill="#FFF1D0" stroke="#FFC035" stroke-width="1.4" d="M486.7.7h10.6v156.6h-10.6z"/><path fill="#FFD371" stroke="#FFC035" stroke-width="1.4" d="M451.209 240.014l-6.3-10.5a1 1 0 01.857-1.514h84.205c.331 0 .64.164.827.438l7.14 10.5a1 1 0 01-.827 1.562h-85.045a.997.997 0 01-.857-.486z"/><path fill="#FBDD99" stroke="#FFC035" stroke-width="1.4" d="M538.8 166.733l-7-9.333c-.577-.769-1.8-.361-1.8.6v69.706c0 .192.055.38.159.541l7 10.889c.54.839 1.841.457 1.841-.541v-71.262a1 1 0 00-.2-.6z"/><path fill="#99C5FF" stroke="#328AFF" stroke-width="1.5" d="M172 9.5l-7.274-7.678c-.622-.656-1.726-.216-1.726.688V122.5l7.241 8.448c.604.704 1.759.277 1.759-.651V9.5z"/><path fill="#99C5FF" stroke="#328AFF" stroke-width="1.5" d="M164 124l6.8 6.8c.629.629.186 1.705-.704 1.707L10.5 133l-7.882-8.297c-.607-.639-.15-1.694.731-1.689L164 124z"/><path fill="#DCEBFF" stroke="#328AFF" stroke-width="1.36" d="M2 1.159h162.118a.32.32 0 01.32.32v122.168a.32.32 0 01-.32.319H2a.32.32 0 01-.32-.319V1.479a.32.32 0 01.32-.32z"/><path stroke="#328AFF" stroke-width="1.5" d="M2.36 16h161.874"/><circle cx="9.381" cy="9.109" r="2.76" fill="#99C5FF" stroke="#328AFF" stroke-width=".92"/><circle cx="18.581" cy="9.109" r="2.76" fill="#99C5FF" stroke="#328AFF" stroke-width=".92"/><circle cx="27.78" cy="9.109" r="2.76" fill="#99C5FF" stroke="#328AFF" stroke-width=".92"/><path fill="#99C5FF" fill-opacity=".6" d="M10 26h42v82H10zm52 0h42v37H62zm51 0h42v37h-42zM62 72h42v36H62zm51 0h42v36h-42z" opacity=".4"/><path fill="#fff" stroke="#328AFF" stroke-width="1.575" d="M142.256 63.045l-1.404-13.069a.5.5 0 01.849-.408l9.371 9.276a.5.5 0 01-.137.807l-2.256 1.074a.5.5 0 00-.236.666l1.675 3.52a.501.501 0 01-.237.666l-.889.423-.888.423a.5.5 0 01-.667-.237l-1.674-3.52a.5.5 0 00-.667-.236l-2.128 1.013a.5.5 0 01-.712-.398z"/><path fill="#35416B" d="M31.633 58.467v4.258h7.04v2.226h-7.04V70h-2.881V56.24h10.146v2.227h-7.265zM50.432 70l-3.194-5.225H43.86V70h-2.88V56.24h6.874c1.641 0 2.907.355 3.8 1.065.891.703 1.337 1.715 1.337 3.037 0 .963-.273 1.797-.82 2.5-.547.696-1.286 1.155-2.217 1.377L53.673 70h-3.241zm-.342-9.541c0-1.322-.847-1.982-2.54-1.982h-3.69v4.062h3.769c.807 0 1.42-.182 1.836-.547.416-.364.625-.875.625-1.533zm18.72 2.598c0 1.432-.283 2.692-.85 3.779a5.89 5.89 0 01-2.43 2.5c-1.055.573-2.286.86-3.692.86-2.162 0-3.858-.635-5.088-1.905-1.224-1.276-1.836-3.02-1.836-5.234 0-2.207.612-3.93 1.836-5.166 1.224-1.237 2.926-1.856 5.107-1.856s3.884.625 5.108 1.875c1.23 1.25 1.846 2.966 1.846 5.147zm-2.939 0c0-1.485-.352-2.647-1.055-3.487-.703-.846-1.689-1.27-2.959-1.27-1.289 0-2.285.42-2.988 1.26-.703.834-1.054 2-1.054 3.497 0 1.51.358 2.701 1.074 3.574.722.866 1.705 1.299 2.949 1.299 1.289 0 2.282-.424 2.978-1.27.703-.846 1.055-2.047 1.055-3.603zM79.377 70l-5.996-10.596c.117 1.029.176 1.856.176 2.48V70h-2.559V56.24h3.291l6.084 10.684a22.87 22.87 0 01-.176-2.686V56.24h2.559V70h-3.379zm12.285-11.533V70h-2.88V58.467h-4.444V56.24h11.777v2.227h-4.453zM97.678 70V56.24h10.82v2.227h-7.939v3.457h7.343v2.226h-7.343v3.623h8.339V70h-11.22zm21.718 0L113.4 59.404c.118 1.029.176 1.856.176 2.48V70h-2.558V56.24h3.291l6.084 10.684a22.682 22.682 0 01-.176-2.686V56.24h2.558V70h-3.379zm18.34-6.982c0 1.419-.28 2.66-.84 3.72a5.73 5.73 0 01-2.363 2.422c-1.015.56-2.181.84-3.496.84h-5.566V56.24h4.98c2.318 0 4.111.586 5.381 1.758 1.27 1.165 1.904 2.839 1.904 5.02zm-2.9 0c0-1.478-.384-2.605-1.152-3.38-.769-.78-1.866-1.171-3.291-1.171h-2.041v9.306h2.441c1.237 0 2.22-.426 2.949-1.279.729-.853 1.094-2.012 1.094-3.476z"/><path fill="#DCEBFF" stroke="#1D4AFF" stroke-width="1.5" d="M171 397.5l-7.274-7.678c-.622-.656-1.726-.216-1.726.688V510.5l7.241 8.448c.604.704 1.759.277 1.759-.651V397.5z"/><path fill="#DCEBFF" stroke="#1D4AFF" stroke-width="1.5" d="M163 512l6.8 6.8c.629.629.186 1.705-.704 1.707L9.5 521l-7.882-8.297c-.607-.639-.15-1.694.731-1.689L163 512z"/><path fill="#BEDAFF" stroke="#1D4AFF" stroke-width="1.36" d="M1 389.159h162.118a.32.32 0 01.32.32v122.168a.32.32 0 01-.32.319H1a.32.32 0 01-.32-.319V389.479a.32.32 0 01.32-.32z"/><path fill="#fff" d="M43 410h50v3H43zm0 54h103v3H43zm0-48h36v3H43zm0 54h90v3H43zm0-48h92v3H43zm0 54h15v3H43zm0-48h69v3H43zm0 54h92v3H43zm0-48h116v3H43zm0 54h78v3H43zm0-48h85v3H43zm0 54h40v3H43zm0-48h57v3H43zm0 54h65v3H43zm0-48h85v3H43zm0 6h69v3H43z" opacity=".4"/><path stroke="#1D4AFF" stroke-width="1.5" d="M1.36 404h161.874"/><circle cx="8.381" cy="397.109" r="2.76" fill="#DCEBFF" stroke="#1D4AFF" stroke-width=".92"/><circle cx="17.581" cy="397.109" r="2.76" fill="#DCEBFF" stroke="#1D4AFF" stroke-width=".92"/><circle cx="26.78" cy="397.109" r="2.76" fill="#DCEBFF" stroke="#1D4AFF" stroke-width=".92"/><path fill="#35416B" d="M52.006 459.074c0 1.25-.469 2.217-1.406 2.901-.938.683-2.24 1.025-3.907 1.025H39.81v-13.76h6.298c1.68 0 2.95.293 3.809.879.866.58 1.299 1.439 1.299 2.578 0 .782-.218 1.442-.655 1.983-.43.534-1.087.895-1.972 1.084 1.113.13 1.96.481 2.539 1.054.586.567.879 1.319.879 2.256zm-3.691-5.986c0-.619-.2-1.058-.596-1.318-.39-.261-.974-.391-1.748-.391H42.69v3.408h3.3c.814 0 1.403-.14 1.768-.42.37-.286.556-.713.556-1.279zm.8 5.762c0-1.289-.924-1.934-2.773-1.934H42.69v3.945h3.76c.924 0 1.597-.166 2.02-.498.43-.338.645-.843.645-1.513zM63.988 463l-1.22-3.516h-5.245L56.303 463h-2.881l5.02-13.76h3.398l5 13.76h-2.852zm-3.847-11.641l-.059.215c-.065.235-.143.502-.234.801-.091.299-.651 1.947-1.68 4.941h3.955l-1.357-3.955-.42-1.328-.205-.674zm15 9.571c1.738 0 2.946-.873 3.623-2.618l2.51.948c-.54 1.328-1.335 2.317-2.383 2.969-1.042.644-2.292.966-3.75.966-2.214 0-3.926-.625-5.137-1.875-1.205-1.256-1.807-3.011-1.807-5.263 0-2.259.583-3.995 1.748-5.205 1.166-1.211 2.855-1.817 5.069-1.817 1.614 0 2.93.326 3.945.977 1.016.644 1.728 1.595 2.139 2.851l-2.54.694c-.214-.69-.637-1.237-1.269-1.641-.625-.41-1.364-.615-2.217-.615-1.302 0-2.291.403-2.969 1.211-.67.807-1.005 1.989-1.005 3.545 0 1.582.345 2.789 1.035 3.623.696.833 1.699 1.25 3.008 1.25zM92.689 463l-4.941-6.318-1.7 1.298V463h-2.88v-13.76h2.88v6.24l6.202-6.24h3.36l-5.88 5.821L96.089 463H92.69zm4.932 0v-13.76h10.82v2.227h-7.939v3.457h7.344v2.226h-7.344v3.623h8.34V463h-11.22zm21.719 0l-5.996-10.596c.117 1.029.176 1.856.176 2.481V463h-2.559v-13.76h3.291l6.084 10.684a22.895 22.895 0 01-.176-2.686v-7.998h2.559V463h-3.379zm18.34-6.982c0 1.419-.28 2.659-.84 3.72a5.735 5.735 0 01-2.363 2.422c-1.016.56-2.181.84-3.497.84h-5.566v-13.76h4.981c2.317 0 4.111.586 5.38 1.758 1.27 1.165 1.905 2.839 1.905 5.02zm-2.901 0c0-1.478-.384-2.605-1.152-3.379-.768-.782-1.865-1.172-3.291-1.172h-2.041v9.306h2.441c1.237 0 2.22-.426 2.95-1.279.729-.853 1.093-2.012 1.093-3.476z"/><path fill="#fff" d="M8 410h24v93H8z" opacity=".4"/><mask id="b" fill="#fff"><rect width="87" height="73" x="444" y="156" rx="1"/></mask><rect width="87" height="73" x="444" y="156" fill="#FFF1D0" stroke="#FFC035" stroke-width="2.8" mask="url(#b)" rx="1"/><rect width="9.6" height="40.6" x="469.7" y="232.7" fill="#fff" stroke="#FFC035" stroke-width="1.4" rx="4.3"/><rect width="9.6" height="40.6" x="502.7" y="232.7" fill="#fff" stroke="#FFC035" stroke-width="1.4" rx="4.3"/><path fill="#FFC035" stroke="#FFC035" stroke-width="1.4" d="M484 294l-8.5-15-8.5 15h6v15h5v-15h6zm16 0l8.5 15 8.5-15h-6v-15h-5v15h-6z"/><path fill="#FFF1D0" stroke="#FFC035" stroke-width="1.4" d="M531.5 327.7h38.8v117.6H413.7V327.7h58.821l.201-.183 17.729-16.158a2.3 2.3 0 013.098 0l17.729 16.158.201.183H531.5z"/><path fill="#D98400" d="M462.547 192.477c0 .708-.162 1.341-.485 1.898-.322.557-.786.99-1.39 1.297-.599.302-1.313.453-2.141.453h-2.734V200h-2.305v-11.008h4.946c1.317 0 2.33.305 3.039.914.713.604 1.07 1.461 1.07 2.571zm-2.32.039c0-1.157-.683-1.735-2.047-1.735h-2.383v3.571h2.445c.636 0 1.125-.157 1.469-.469.344-.318.516-.774.516-1.367zm3.937 7.484v-11.008h2.305v9.227h5.906V200h-8.211zm14.359.156c-1.515 0-2.677-.37-3.484-1.109-.802-.74-1.203-1.797-1.203-3.172v-6.883h2.305v6.703c0 .87.205 1.532.617 1.985.416.448 1.026.672 1.828.672.823 0 1.456-.235 1.898-.704.443-.474.664-1.151.664-2.031v-6.625h2.305v6.766c0 1.396-.432 2.479-1.297 3.25-.859.765-2.07 1.148-3.633 1.148zm12.211-1.804c.599 0 1.18-.086 1.743-.258.562-.177.997-.401 1.304-.672v-1.524h-2.687v-1.703h4.797v4.047c-.584.599-1.344 1.068-2.282 1.406a8.525 8.525 0 01-2.937.508c-1.792 0-3.169-.495-4.133-1.484-.963-.995-1.445-2.404-1.445-4.227 0-1.812.484-3.2 1.453-4.164.969-.969 2.362-1.453 4.18-1.453 2.583 0 4.226.956 4.929 2.867l-2.125.641a2.535 2.535 0 00-1.078-1.266c-.489-.286-1.065-.429-1.726-.429-1.084 0-1.907.328-2.469.984-.563.656-.844 1.596-.844 2.82 0 1.245.289 2.209.867 2.891.584.677 1.401 1.016 2.453 1.016zm7.227 1.648v-11.008h2.305V200h-2.305zm11.156 0l-4.797-8.477c.094.823.141 1.485.141 1.985V200h-2.047v-11.008h2.633l4.867 8.547a18.234 18.234 0 01-.141-2.148v-6.399h2.047V200h-2.703zm13.836-3.172c0 1.078-.401 1.904-1.203 2.477-.797.567-1.969.851-3.516.851-1.411 0-2.518-.25-3.32-.75s-1.318-1.258-1.547-2.273l2.227-.367c.151.583.445 1.007.883 1.273.437.26 1.044.391 1.82.391 1.609 0 2.414-.49 2.414-1.469 0-.313-.094-.57-.281-.773-.183-.204-.443-.373-.782-.508-.333-.136-.976-.3-1.929-.492-.823-.193-1.396-.347-1.719-.461a5.18 5.18 0 01-.875-.415 2.634 2.634 0 01-.664-.578 2.562 2.562 0 01-.43-.789 3.332 3.332 0 01-.148-1.039c0-.995.372-1.755 1.117-2.281.75-.531 1.839-.797 3.266-.797 1.364 0 2.388.214 3.07.641.687.427 1.13 1.133 1.328 2.117l-2.234.305c-.115-.474-.349-.831-.703-1.071-.349-.239-.852-.359-1.508-.359-1.396 0-2.094.437-2.094 1.312 0 .287.073.521.219.704.151.182.372.338.664.468.291.125.883.284 1.773.477 1.058.224 1.813.432 2.266.625.458.187.82.409 1.086.664.265.25.469.552.609.906.141.349.211.753.211 1.211z"/><path fill="#F39400" d="M470.641 359.344c1.39 0 2.356-.698 2.898-2.094l2.008.758c-.432 1.062-1.068 1.854-1.906 2.375-.834.515-1.834.773-3 .773-1.771 0-3.141-.5-4.11-1.5-.963-1.005-1.445-2.409-1.445-4.211 0-1.807.466-3.195 1.398-4.164.933-.969 2.284-1.453 4.055-1.453 1.292 0 2.344.261 3.156.781.813.516 1.383 1.276 1.711 2.282l-2.031.554a2.346 2.346 0 00-1.016-1.312c-.5-.328-1.091-.492-1.773-.492-1.042 0-1.833.323-2.375.968-.537.646-.805 1.592-.805 2.836 0 1.266.276 2.232.828 2.899.558.666 1.36 1 2.407 1zm6.421 1.656v-11.008h2.305v9.227h5.906V361h-8.211zm9.782 0v-11.008h8.656v1.781h-6.352v2.766h5.875v1.781h-5.875v2.899h6.672V361h-8.976zm18.453 0l-.977-2.812h-4.195l-.977 2.812h-2.304l4.015-11.008h2.719l4 11.008h-2.281zm-3.078-9.312l-.047.171c-.052.188-.115.401-.188.641s-.52 1.557-1.343 3.953h3.164l-1.086-3.164-.336-1.062-.164-.539zM515.781 361l-4.797-8.477c.094.823.141 1.485.141 1.985V361h-2.047v-11.008h2.633l4.867 8.547a18.218 18.218 0 01-.14-2.148v-6.399h2.046V361h-2.703zm-53.398 31v-11.008h8.656v1.781h-6.351v2.766h5.874v1.781h-5.874v2.899h6.671V392h-8.976zm17.375 0l-4.797-8.477c.094.823.141 1.485.141 1.985V392h-2.047v-11.008h2.633l4.867 8.547a18.234 18.234 0 01-.141-2.148v-6.399h2.047V392h-2.703zm12.422 0l-2.555-4.18h-2.703V392h-2.305v-11.008h5.5c1.313 0 2.326.284 3.039.852.714.562 1.071 1.372 1.071 2.429 0 .771-.219 1.438-.657 2-.437.558-1.028.925-1.773 1.102l2.976 4.625h-2.593zm-.274-7.633c0-1.057-.677-1.586-2.031-1.586h-2.953v3.25h3.016c.645 0 1.135-.146 1.468-.437.334-.292.5-.701.5-1.227zM496.18 392v-11.008h2.304V392h-2.304zm9.593-1.656c1.391 0 2.357-.698 2.899-2.094l2.008.758c-.433 1.062-1.068 1.854-1.907 2.375-.833.515-1.833.773-3 .773-1.77 0-3.14-.5-4.109-1.5-.963-1.005-1.445-2.409-1.445-4.211 0-1.807.466-3.195 1.398-4.164.932-.969 2.284-1.453 4.055-1.453 1.292 0 2.344.261 3.156.781.813.516 1.383 1.276 1.711 2.282l-2.031.554a2.35 2.35 0 00-1.016-1.312c-.5-.328-1.091-.492-1.773-.492-1.042 0-1.834.323-2.375.968-.537.646-.805 1.592-.805 2.836 0 1.266.276 2.232.828 2.899.557.666 1.36 1 2.406 1zM519.297 392v-4.719H514.5V392h-2.305v-11.008h2.305v4.383h4.797v-4.383h2.305V392h-2.305zm-59.133 31v-11.008h8.656v1.781h-6.351v2.766h5.875v1.781h-5.875v2.899h6.672V423h-8.977zm17.711 0l-2.766-4.383-2.765 4.383h-2.438l3.813-5.789-3.492-5.219h2.437l2.445 3.891 2.446-3.891h2.422l-3.344 5.219 3.664 5.789h-2.422zm12.687-7.523c0 .708-.161 1.341-.484 1.898-.323.557-.786.99-1.39 1.297-.599.302-1.313.453-2.141.453h-2.735V423h-2.304v-11.008h4.945c1.318 0 2.331.305 3.039.914.714.604 1.07 1.461 1.07 2.571zm-2.32.039c0-1.157-.682-1.735-2.047-1.735h-2.383v3.571h2.446c.635 0 1.125-.157 1.469-.469.343-.318.515-.774.515-1.367zm14.641 1.929c0 1.146-.227 2.154-.68 3.024a4.71 4.71 0 01-1.945 2c-.844.458-1.828.687-2.953.687-1.729 0-3.086-.508-4.071-1.523-.979-1.021-1.468-2.417-1.468-4.188 0-1.765.489-3.143 1.468-4.133.98-.989 2.342-1.484 4.086-1.484 1.745 0 3.107.5 4.086 1.5.985 1 1.477 2.373 1.477 4.117zm-2.352 0c0-1.187-.281-2.117-.843-2.789-.563-.677-1.352-1.015-2.368-1.015-1.031 0-1.828.336-2.39 1.007-.563.667-.844 1.599-.844 2.797 0 1.209.286 2.162.859 2.86.578.692 1.365 1.039 2.36 1.039 1.031 0 1.825-.339 2.383-1.016.562-.677.843-1.638.843-2.883zM512.195 423l-2.554-4.18h-2.703V423h-2.305v-11.008h5.5c1.312 0 2.325.284 3.039.852.713.562 1.07 1.372 1.07 2.429 0 .771-.219 1.438-.656 2-.438.558-1.029.925-1.774 1.102l2.977 4.625h-2.594zm-.273-7.633c0-1.057-.677-1.586-2.031-1.586h-2.953v3.25h3.015c.646 0 1.136-.146 1.469-.437.333-.292.5-.701.5-1.227zm9.242-1.594V423h-2.305v-9.227h-3.554v-1.781h9.422v1.781h-3.563z" opacity=".8"/><mask id="c" fill="#fff"><rect width="201" height="76" x="744" y="409" rx="1"/></mask><rect width="201" height="76" x="744" y="409" fill="#FFE9DE" stroke="#F96132" stroke-width="2.8" mask="url(#c)" rx="1"/><path fill="#802900" d="M766.289 72.344c1.391 0 2.357-.698 2.899-2.094l2.007.758c-.432 1.062-1.067 1.854-1.906 2.375-.833.515-1.833.773-3 .773-1.771 0-3.141-.5-4.109-1.5-.964-1.005-1.446-2.409-1.446-4.21 0-1.808.467-3.196 1.399-4.165.932-.969 2.284-1.453 4.055-1.453 1.291 0 2.343.26 3.156.781.812.516 1.383 1.276 1.711 2.282l-2.032.554a2.345 2.345 0 00-1.015-1.312c-.5-.328-1.091-.492-1.774-.492-1.041 0-1.833.322-2.375.968-.536.646-.804 1.592-.804 2.836 0 1.266.276 2.232.828 2.899.557.666 1.359 1 2.406 1zM772.711 74V62.992h2.305v9.227h5.906V74h-8.211zm9.781 0V62.992h2.305V74h-2.305zm9.594-1.656c1.391 0 2.357-.698 2.898-2.094l2.008.758c-.432 1.062-1.068 1.854-1.906 2.375-.833.515-1.833.773-3 .773-1.771 0-3.141-.5-4.109-1.5-.964-1.005-1.446-2.409-1.446-4.21 0-1.808.466-3.196 1.399-4.165.932-.969 2.284-1.453 4.054-1.453 1.292 0 2.344.26 3.157.781.812.516 1.382 1.276 1.711 2.282l-2.032.554a2.349 2.349 0 00-1.015-1.312c-.5-.328-1.091-.492-1.774-.492-1.041 0-1.833.322-2.375.968-.536.646-.804 1.592-.804 2.836 0 1.266.276 2.232.828 2.899.557.666 1.359 1 2.406 1zM806.125 74l-3.953-5.055-1.36 1.04V74h-2.304V62.992h2.304v4.992l4.961-4.992h2.688l-4.703 4.656L808.844 74h-2.719zm11.047 0v-4.719h-4.797V74h-2.305V62.992h2.305v4.383h4.797v-4.383h2.305V74h-2.305zm15.164-5.555c0 1.146-.227 2.154-.68 3.024a4.71 4.71 0 01-1.945 2c-.844.458-1.828.687-2.953.687-1.729 0-3.086-.508-4.07-1.523-.98-1.021-1.469-2.417-1.469-4.188 0-1.765.489-3.143 1.469-4.132.979-.99 2.341-1.485 4.085-1.485 1.745 0 3.107.5 4.086 1.5.985 1 1.477 2.373 1.477 4.117zm-2.352 0c0-1.187-.281-2.117-.843-2.789-.563-.677-1.352-1.015-2.368-1.015-1.031 0-1.828.336-2.39 1.007-.563.667-.844 1.6-.844 2.797 0 1.209.287 2.162.859 2.86.579.692 1.365 1.039 2.36 1.039 1.031 0 1.825-.339 2.383-1.016.562-.677.843-1.638.843-2.883zm8.68 5.711c-1.516 0-2.677-.37-3.484-1.11-.802-.739-1.203-1.796-1.203-3.171v-6.883h2.304v6.703c0 .87.206 1.532.617 1.985.417.448 1.026.672 1.829.672.822 0 1.455-.235 1.898-.704.443-.474.664-1.15.664-2.03v-6.626h2.305v6.766c0 1.396-.433 2.479-1.297 3.25-.859.765-2.07 1.148-3.633 1.148zm15.961-3.328c0 1.078-.401 1.904-1.203 2.477-.797.567-1.969.851-3.516.851-1.411 0-2.518-.25-3.32-.75s-1.318-1.258-1.547-2.273l2.227-.367c.151.583.445 1.007.882 1.273.438.26 1.045.39 1.821.39 1.609 0 2.414-.489 2.414-1.468 0-.313-.094-.57-.281-.773-.183-.204-.443-.373-.782-.508-.333-.136-.976-.3-1.929-.493-.823-.192-1.396-.346-1.719-.46a5.217 5.217 0 01-.875-.415 2.63 2.63 0 01-.664-.578 2.561 2.561 0 01-.43-.789 3.335 3.335 0 01-.148-1.039c0-.995.372-1.755 1.117-2.281.75-.531 1.838-.797 3.266-.797 1.364 0 2.388.214 3.07.64.687.428 1.13 1.134 1.328 2.118l-2.234.305c-.115-.474-.349-.831-.704-1.07-.349-.24-.851-.36-1.507-.36-1.396 0-2.094.437-2.094 1.312 0 .287.073.521.219.704.151.182.372.338.664.468.291.125.882.284 1.773.477 1.057.224 1.813.432 2.266.625.458.187.82.409 1.086.664.265.25.468.552.609.906.141.35.211.753.211 1.211zM856.32 74V62.992h8.657v1.781h-6.352v2.766h5.875v1.781h-5.875v2.899h6.672V74h-8.977zm-87.781 371.477c0 .708-.161 1.341-.484 1.898a3.29 3.29 0 01-1.391 1.297c-.599.302-1.312.453-2.141.453h-2.734V453h-2.305v-11.008h4.946c1.317 0 2.33.305 3.039.914.713.604 1.07 1.461 1.07 2.571zm-2.32.039c0-1.157-.683-1.735-2.047-1.735h-2.383v3.571h2.445c.636 0 1.125-.157 1.469-.469.344-.318.516-.774.516-1.367zm14.64 1.929c0 1.146-.226 2.154-.679 3.024a4.713 4.713 0 01-1.946 2c-.843.458-1.828.687-2.953.687-1.729 0-3.086-.508-4.07-1.523-.979-1.021-1.469-2.417-1.469-4.188 0-1.765.49-3.143 1.469-4.133.979-.989 2.341-1.484 4.086-1.484s3.107.5 4.086 1.5c.984 1 1.476 2.373 1.476 4.117zm-2.351 0c0-1.187-.281-2.117-.844-2.789-.562-.677-1.352-1.015-2.367-1.015-1.031 0-1.828.336-2.391 1.007-.562.667-.844 1.599-.844 2.797 0 1.209.287 2.162.86 2.86.578.692 1.364 1.039 2.359 1.039 1.031 0 1.826-.339 2.383-1.016.563-.677.844-1.638.844-2.883zm13.078 2.383c0 1.078-.401 1.904-1.203 2.477-.797.567-1.969.851-3.516.851-1.411 0-2.518-.25-3.32-.75s-1.318-1.258-1.547-2.273l2.227-.367c.151.583.445 1.007.882 1.273.438.26 1.045.391 1.821.391 1.609 0 2.414-.49 2.414-1.469 0-.313-.094-.57-.282-.773-.182-.204-.442-.373-.781-.508-.333-.136-.976-.3-1.929-.492-.823-.193-1.396-.347-1.719-.461a5.18 5.18 0 01-.875-.415 2.617 2.617 0 01-.664-.578 2.54 2.54 0 01-.43-.789 3.332 3.332 0 01-.148-1.039c0-.995.372-1.755 1.117-2.281.75-.531 1.838-.797 3.265-.797 1.365 0 2.388.214 3.071.641.687.427 1.13 1.133 1.328 2.117l-2.235.305c-.114-.474-.348-.831-.703-1.071-.349-.239-.851-.359-1.507-.359-1.396 0-2.094.437-2.094 1.312 0 .287.073.521.219.704.151.182.372.338.664.468.291.125.882.284 1.773.477 1.057.224 1.813.432 2.266.625.458.187.82.409 1.086.664.265.25.468.552.609.906.141.349.211.753.211 1.211zm6.664-6.055V453h-2.305v-9.227h-3.554v-1.781h9.421v1.781h-3.562zm10.039 7.579a5.92 5.92 0 001.742-.258c.563-.177.998-.401 1.305-.672v-1.524h-2.688v-1.703h4.797v4.047c-.583.599-1.343 1.068-2.281 1.406a8.525 8.525 0 01-2.937.508c-1.792 0-3.17-.495-4.133-1.484-.964-.995-1.446-2.404-1.446-4.227 0-1.812.485-3.2 1.454-4.164.968-.969 2.362-1.453 4.179-1.453 2.584 0 4.227.956 4.93 2.867l-2.125.641a2.54 2.54 0 00-1.078-1.266c-.49-.286-1.065-.429-1.727-.429-1.083 0-1.906.328-2.469.984-.562.656-.843 1.596-.843 2.82 0 1.245.289 2.209.867 2.891.583.677 1.401 1.016 2.453 1.016zM823.078 453l-2.555-4.18h-2.703V453h-2.304v-11.008h5.5c1.312 0 2.325.284 3.039.852.713.562 1.07 1.372 1.07 2.429 0 .771-.219 1.438-.656 2-.438.558-1.029.925-1.774 1.102l2.977 4.625h-2.594zm-.273-7.633c0-1.057-.677-1.586-2.032-1.586h-2.953v3.25h3.016c.646 0 1.135-.146 1.469-.437.333-.292.5-.701.5-1.227zm4.273 7.633v-11.008h8.656v1.781h-6.351v2.766h5.875v1.781h-5.875v2.899h6.672V453h-8.977zm19.649-3.172c0 1.078-.401 1.904-1.204 2.477-.796.567-1.968.851-3.515.851-1.412 0-2.518-.25-3.32-.75-.803-.5-1.318-1.258-1.547-2.273l2.226-.367c.151.583.445 1.007.883 1.273.438.26 1.044.391 1.82.391 1.61 0 2.414-.49 2.414-1.469 0-.313-.093-.57-.281-.773-.182-.204-.443-.373-.781-.508-.333-.136-.977-.3-1.93-.492-.823-.193-1.396-.347-1.719-.461a5.254 5.254 0 01-.875-.415 2.652 2.652 0 01-.664-.578 2.56 2.56 0 01-.429-.789 3.331 3.331 0 01-.149-1.039c0-.995.373-1.755 1.117-2.281.75-.531 1.839-.797 3.266-.797 1.365 0 2.388.214 3.07.641.688.427 1.131 1.133 1.329 2.117l-2.235.305c-.114-.474-.349-.831-.703-1.071-.349-.239-.852-.359-1.508-.359-1.396 0-2.094.437-2.094 1.312 0 .287.073.521.219.704.151.182.373.338.664.468.292.125.883.284 1.774.477 1.057.224 1.812.432 2.265.625.459.187.821.409 1.086.664.266.25.469.552.61.906.14.349.211.753.211 1.211zm12.398-2.383c0 1.469-.362 2.693-1.086 3.672-.719.974-1.721 1.591-3.008 1.852.177.515.425.888.742 1.117.323.229.774.344 1.352.344.307 0 .617-.026.93-.078l-.016 1.578a8.697 8.697 0 01-1.891.218c-.849 0-1.552-.237-2.109-.71-.557-.474-1.005-1.261-1.344-2.36-1.484-.14-2.638-.706-3.461-1.695-.817-.995-1.226-2.307-1.226-3.938 0-1.765.489-3.143 1.469-4.133.979-.989 2.341-1.484 4.085-1.484 1.745 0 3.107.5 4.086 1.5.985 1 1.477 2.373 1.477 4.117zm-2.352 0c0-1.187-.281-2.117-.843-2.789-.563-.677-1.352-1.015-2.368-1.015-1.031 0-1.828.336-2.39 1.007-.563.667-.844 1.599-.844 2.797 0 1.209.287 2.162.86 2.86.572.698 1.359 1.047 2.359 1.047 1.031 0 1.825-.339 2.383-1.016.562-.677.843-1.641.843-2.891zm4.102 5.555v-11.008h2.305v9.227h5.906V453h-8.211z"/><rect width="48.6" height="48.6" x="880.7" y="42.7" fill="#fff" stroke="#F96132" stroke-width="1.4" rx="3.3"/><rect width="48.6" height="48.6" x="880.7" y="422.7" fill="#fff" stroke="#F96132" stroke-width="1.4" rx="3.3"/><path fill="url(#pattern0)" d="M889 431h31.434v32.43H889z"/><path fill="url(#pattern1)" d="M889 52h31.434v31.434H889z"/><defs><pattern id="pattern0" width="1" height="1" patternContentUnits="objectBoundingBox"><use transform="scale(.00452 .00439)" xlink:href="#image0"/></pattern><pattern id="pattern1" width="1" height="1" patternContentUnits="objectBoundingBox"><use transform="scale(.00071)" xlink:href="#image1"/></pattern></defs></svg>