<svg width="222" height="56" viewBox="0 0 222 56" fill="none" xmlns="http://www.w3.org/2000/svg">
<g filter="url(#filter0_d_17862_129074)">
<path d="M5.98063 17.9069H1.94863C1.24863 17.9069 0.744629 17.6829 0.744629 16.9549C0.744629 15.7229 2.14463 15.7509 2.14463 14.5469V5.30692C2.14463 4.10292 0.744629 4.13092 0.744629 2.89892C0.744629 2.17092 1.24863 1.94692 1.94863 1.94692H7.29663C11.2166 1.94692 13.2886 3.59892 13.2886 6.76292C13.2886 10.1229 10.9926 11.8589 6.84863 11.8589H6.48463C6.00863 11.8589 5.78463 12.0829 5.78463 12.5589V14.5469C5.78463 15.7509 7.18463 15.7229 7.18463 16.9549C7.18463 17.6829 6.68063 17.9069 5.98063 17.9069ZM5.78463 4.69092V9.61892C5.78463 10.0949 6.00863 10.3189 6.48463 10.3189H6.84863C8.64063 10.3189 9.64863 8.97492 9.64863 6.76292C9.64863 4.74692 8.72463 3.48692 7.21263 3.48692C6.28863 3.48692 5.78463 3.90692 5.78463 4.69092Z" fill="#F6631C"/>
<path d="M12.882 12.5869C12.882 9.05892 15.122 7.12692 18.258 7.12692C21.394 7.12692 23.634 9.05892 23.634 12.5869C23.634 16.1149 21.394 18.0469 18.258 18.0469C15.122 18.0469 12.882 16.1149 12.882 12.5869ZM20.078 13.5389C20.078 11.3269 19.238 8.69492 17.81 8.69492C16.886 8.69492 16.466 10.0109 16.466 11.5509C16.466 13.7909 17.306 16.4789 18.734 16.4789C19.658 16.4789 20.078 15.1349 20.078 13.5389Z" fill="#F6631C"/>
<path d="M25.6517 14.3229C27.0797 14.3229 27.3317 16.4789 28.8437 16.4789C29.4037 16.4789 29.7677 16.1989 29.7677 15.7789C29.7677 14.1269 24.4757 13.7909 24.4757 10.2909C24.4757 8.35892 26.0997 7.12692 28.6197 7.12692C30.8877 7.12692 32.6797 8.13492 32.6797 9.45092C32.6797 10.2069 32.1197 10.8229 31.3637 10.8229C29.9637 10.8229 29.7117 8.69492 28.3117 8.69492C27.8637 8.69492 27.5557 8.91892 27.5557 9.28292C27.5557 10.8229 32.9317 11.2429 32.9317 14.7989C32.9317 16.8149 31.2237 18.0469 28.4237 18.0469C25.9877 18.0469 24.3357 17.1229 24.3357 15.7509C24.3357 14.9669 24.8677 14.3229 25.6517 14.3229Z" fill="#F6631C"/>
<path d="M34.321 14.7989V8.80692H33.705C33.201 8.80692 32.949 8.52692 32.949 8.02292C32.949 7.54692 33.145 7.23892 33.677 7.01492C34.993 6.42692 36.169 5.36292 36.925 4.01892C37.065 3.76692 37.261 3.65492 37.541 3.65492C37.821 3.65492 37.961 3.79492 37.961 4.07492V7.26692H38.577C39.081 7.26692 39.361 7.51892 39.361 8.02292C39.361 8.52692 39.081 8.80692 38.577 8.80692H37.961V14.5469C37.961 15.7509 39.361 15.7229 39.361 16.9549C39.361 17.5989 38.969 17.9069 38.157 17.9069H37.289C35.413 17.9069 34.321 16.7589 34.321 14.7989Z" fill="#F6631C"/>
<path d="M45.4377 17.9069H41.4057C40.7057 17.9069 40.2017 17.6829 40.2017 16.9549C40.2017 15.7229 41.6017 15.7509 41.6017 14.5469V5.30692C41.6017 4.10292 40.2017 4.13092 40.2017 2.89892C40.2017 2.17092 40.7057 1.94692 41.4057 1.94692H45.4377C46.1377 1.94692 46.6417 2.17092 46.6417 2.89892C46.6417 4.13092 45.2417 4.10292 45.2417 5.30692V8.52692C45.2417 9.00292 45.4657 9.22692 45.9417 9.22692H49.3017C49.7777 9.22692 50.0017 9.00292 50.0017 8.52692V5.30692C50.0017 4.10292 48.6017 4.13092 48.6017 2.89892C48.6017 2.17092 49.1057 1.94692 49.8057 1.94692H53.8377C54.5377 1.94692 55.0417 2.17092 55.0417 2.89892C55.0417 4.13092 53.6417 4.10292 53.6417 5.30692V14.5469C53.6417 15.7509 55.0417 15.7229 55.0417 16.9549C55.0417 17.6829 54.5377 17.9069 53.8377 17.9069H49.8057C49.1057 17.9069 48.6017 17.6829 48.6017 16.9549C48.6017 15.7229 50.0017 15.7509 50.0017 14.5469V11.4669C50.0017 10.9909 49.7777 10.7669 49.3017 10.7669H45.9417C45.4657 10.7669 45.2417 10.9909 45.2417 11.4669V14.5469C45.2417 15.7509 46.6417 15.7229 46.6417 16.9549C46.6417 17.6829 46.1377 17.9069 45.4377 17.9069Z" fill="#F6631C"/>
<path d="M55.1828 12.5869C55.1828 9.05892 57.4228 7.12692 60.5588 7.12692C63.6948 7.12692 65.9348 9.05892 65.9348 12.5869C65.9348 16.1149 63.6948 18.0469 60.5588 18.0469C57.4228 18.0469 55.1828 16.1149 55.1828 12.5869ZM62.3788 13.5389C62.3788 11.3269 61.5388 8.69492 60.1108 8.69492C59.1868 8.69492 58.7668 10.0109 58.7668 11.5509C58.7668 13.7909 59.6068 16.4789 61.0348 16.4789C61.9588 16.4789 62.3788 15.1349 62.3788 13.5389Z" fill="#F6631C"/>
<path d="M66.7732 11.6629C66.7732 8.77892 68.5932 7.12692 71.7572 7.12692C72.8492 7.12692 73.7732 7.32292 74.5292 7.71492C75.1452 7.65892 75.5372 7.35092 75.5372 6.87492C75.5372 6.45492 75.2292 6.11892 75.2292 5.53092C75.2292 4.71892 75.8452 4.24292 76.6292 4.24292C77.6372 4.24292 78.2812 5.02692 78.2812 6.00692C78.2812 7.29492 77.1052 8.49892 75.7612 8.72292C76.3772 9.45092 76.6852 10.4589 76.6852 11.6629C76.6852 14.5469 74.8932 16.1989 71.7572 16.1989C70.8612 16.1989 70.0772 16.0589 69.4052 15.8069C68.5932 17.0109 69.0412 17.8789 69.8532 17.8789C70.8892 17.8789 72.4572 16.4229 74.3052 16.4229C76.0692 16.4229 77.4692 17.7669 77.4692 19.6989C77.4692 22.2189 75.0892 24.0669 72.7932 24.0669C71.3652 24.0669 70.8052 23.3389 70.8052 22.6389C70.8052 21.9669 71.3092 21.5189 72.0372 21.5189C72.7092 21.5189 73.3252 21.8829 74.1092 21.8829C75.9012 21.8829 75.8172 19.9789 74.4732 19.9789C73.2692 19.9789 71.9812 21.5189 69.8812 21.5189C68.0332 21.5189 66.7732 20.3429 66.7732 18.4949C66.7732 17.2069 67.3612 15.9469 68.0892 15.0229C67.2492 14.2669 66.7732 13.1189 66.7732 11.6629ZM72.1772 14.6309C72.7372 14.6309 73.1012 13.8749 73.1012 12.6709C73.1012 10.6269 72.2612 8.69492 71.3652 8.69492C70.7492 8.69492 70.3572 9.47892 70.3572 10.7389C70.3572 12.7549 71.2252 14.6309 72.1772 14.6309Z" fill="#F6631C"/>
<path d="M79.7558 8.30292C79.3638 8.30292 79.1118 8.05092 79.1118 7.71492C79.1118 6.87492 80.8758 6.03492 80.8758 5.19492C80.8758 4.35492 79.1118 4.43892 79.1118 2.70292C79.1118 1.52692 79.9238 0.74292 81.1838 0.74292C82.4438 0.74292 83.2558 1.55492 83.2558 3.09492C83.2558 5.67092 81.0158 8.30292 79.7558 8.30292Z" fill="#F6631C"/>
<path d="M85.1791 14.3229C86.6071 14.3229 86.8591 16.4789 88.3711 16.4789C88.9311 16.4789 89.2951 16.1989 89.2951 15.7789C89.2951 14.1269 84.0031 13.7909 84.0031 10.2909C84.0031 8.35892 85.6271 7.12692 88.1471 7.12692C90.4151 7.12692 92.2071 8.13492 92.2071 9.45092C92.2071 10.2069 91.6471 10.8229 90.8911 10.8229C89.4911 10.8229 89.2391 8.69492 87.8391 8.69492C87.3911 8.69492 87.0831 8.91892 87.0831 9.28292C87.0831 10.8229 92.4591 11.2429 92.4591 14.7989C92.4591 16.8149 90.7511 18.0469 87.9511 18.0469C85.5151 18.0469 83.8631 17.1229 83.8631 15.7509C83.8631 14.9669 84.3951 14.3229 85.1791 14.3229Z" fill="#F6631C"/>
<path d="M100.067 13.9309L102.727 5.19492C103.119 3.87892 102.251 3.85092 102.251 2.89892C102.251 2.39492 102.475 1.94692 103.175 1.94692H106.227C106.703 1.94692 107.011 2.17092 107.151 2.61892L110.791 13.9309C111.547 16.2549 112.667 15.8069 112.667 16.9829C112.667 17.6829 112.247 17.9069 111.491 17.9069H107.347C106.619 17.9069 106.227 17.7109 106.171 17.1229V17.0109C106.171 15.8069 107.599 15.9189 107.179 14.6589L107.039 14.2389C106.899 13.7909 106.619 13.5669 106.143 13.5669H102.503C102.027 13.5669 101.747 13.7909 101.607 14.2389L101.467 14.6589C101.047 15.9469 102.475 15.8069 102.475 17.0109C102.475 17.6829 102.055 17.9069 101.299 17.9069H99.3672C98.6112 17.9069 98.1912 17.6829 98.1912 16.9829C98.1912 15.8069 99.3392 16.3389 100.067 13.9309ZM102.979 12.0269H105.667C106.143 12.0269 106.311 11.8029 106.171 11.3549L104.547 6.28692C104.435 5.92292 104.099 5.92292 103.987 6.28692L102.475 11.3549C102.335 11.8029 102.503 12.0269 102.979 12.0269Z" fill="#F6631C"/>
<path d="M118.746 17.9069H114.714C114.014 17.9069 113.51 17.6829 113.51 16.9549C113.51 15.7229 114.91 15.7509 114.91 14.5469V5.30692C114.91 4.10292 113.51 4.13092 113.51 2.89892C113.51 2.17092 114.014 1.94692 114.714 1.94692H118.746C119.446 1.94692 119.95 2.17092 119.95 2.89892C119.95 4.13092 118.55 4.10292 118.55 5.30692V14.5469C118.55 15.7509 119.95 15.7229 119.95 16.9549C119.95 17.6829 119.446 17.9069 118.746 17.9069Z" fill="#F6631C"/>
<path d="M127.429 4.46692C127.429 3.29092 128.241 2.47892 129.445 2.47892C130.621 2.47892 131.433 3.29092 131.433 4.46692C131.433 5.67092 130.621 6.48292 129.445 6.48292C128.241 6.48292 127.429 5.67092 127.429 4.46692ZM131.181 17.9069H127.429C126.617 17.9069 126.225 17.5989 126.225 16.9549C126.225 15.7229 127.625 15.7509 127.625 14.5469V11.0749C127.625 9.92692 126.225 9.89892 126.225 8.77892C126.225 8.21892 126.561 7.93892 127.429 7.71492L129.053 7.32292C129.529 7.21092 129.949 7.12692 130.257 7.12692C130.929 7.12692 131.265 7.54692 131.265 8.41492V14.5469C131.265 15.7509 132.385 15.7229 132.385 16.9549C132.385 17.5989 131.993 17.9069 131.181 17.9069Z" fill="#F6631C"/>
<path d="M134.261 14.3229C135.689 14.3229 135.941 16.4789 137.453 16.4789C138.013 16.4789 138.377 16.1989 138.377 15.7789C138.377 14.1269 133.085 13.7909 133.085 10.2909C133.085 8.35892 134.709 7.12692 137.229 7.12692C139.497 7.12692 141.289 8.13492 141.289 9.45092C141.289 10.2069 140.729 10.8229 139.973 10.8229C138.573 10.8229 138.321 8.69492 136.921 8.69492C136.473 8.69492 136.165 8.91892 136.165 9.28292C136.165 10.8229 141.541 11.2429 141.541 14.7989C141.541 16.8149 139.833 18.0469 137.033 18.0469C134.597 18.0469 132.945 17.1229 132.945 15.7509C132.945 14.9669 133.477 14.3229 134.261 14.3229Z" fill="#F6631C"/>
<path d="M148.757 4.46692C148.757 3.29092 149.569 2.47892 150.773 2.47892C151.949 2.47892 152.761 3.29092 152.761 4.46692C152.761 5.67092 151.949 6.48292 150.773 6.48292C149.569 6.48292 148.757 5.67092 148.757 4.46692ZM152.509 17.9069H148.757C147.945 17.9069 147.553 17.5989 147.553 16.9549C147.553 15.7229 148.953 15.7509 148.953 14.5469V11.0749C148.953 9.92692 147.553 9.89892 147.553 8.77892C147.553 8.21892 147.889 7.93892 148.757 7.71492L150.381 7.32292C150.857 7.21092 151.277 7.12692 151.585 7.12692C152.257 7.12692 152.593 7.54692 152.593 8.41492V14.5469C152.593 15.7509 153.713 15.7229 153.713 16.9549C153.713 17.5989 153.321 17.9069 152.509 17.9069Z" fill="#F6631C"/>
<path d="M159.509 17.9069H155.757C154.945 17.9069 154.553 17.5989 154.553 16.9549C154.553 15.7229 155.953 15.7509 155.953 14.5469V11.0749C155.953 9.92692 154.553 9.89892 154.553 8.77892C154.553 8.21892 154.889 7.93892 155.757 7.71492L157.381 7.32292C157.857 7.21092 158.277 7.12692 158.585 7.12692C159.257 7.12692 159.593 7.54692 159.593 8.41492V8.55492C162.197 6.23092 166.117 6.65092 166.117 10.6829V14.5469C166.117 15.7509 167.517 15.7229 167.517 16.9549C167.517 17.5989 167.125 17.9069 166.313 17.9069H162.561C161.749 17.9069 161.357 17.5989 161.357 16.9549C161.357 15.7229 162.477 15.7509 162.477 14.5469V10.7949C162.477 9.45092 160.713 9.31092 159.593 10.5429V14.5469C159.593 15.7509 160.713 15.7229 160.713 16.9549C160.713 17.5989 160.321 17.9069 159.509 17.9069Z" fill="#F6631C"/>
<path d="M174.65 16.9829V5.30692C174.65 4.15892 173.25 4.13092 173.25 3.01092C173.25 2.45092 173.586 2.17092 174.454 1.94692L176.078 1.55492C176.498 1.44292 176.946 1.38692 177.226 1.38692C177.954 1.38692 178.29 1.77892 178.29 2.64692V7.79892C178.962 7.35092 179.69 7.12692 180.502 7.12692C183.022 7.12692 184.59 9.22692 184.59 12.5309C184.59 15.9469 182.91 18.0469 180.166 18.0469C178.878 18.0469 178.122 17.5709 177.254 17.5709C176.358 17.5709 175.938 18.0469 175.378 18.0469C174.902 18.0469 174.65 17.6829 174.65 16.9829ZM178.29 9.45092V14.4349C178.29 15.6669 178.682 16.3949 179.382 16.3949C180.362 16.3949 180.95 14.9949 180.95 12.6429C180.95 9.70292 180.026 8.55492 178.29 9.45092Z" fill="#F6631C"/>
<path d="M190.346 18.0469C187.602 18.0469 185.558 16.1709 185.558 12.8949C185.558 9.47892 187.798 7.12692 191.018 7.12692C193.342 7.12692 194.546 8.35892 194.546 9.98292C194.546 11.8029 193.034 12.9229 190.822 12.9229C190.206 12.9229 189.562 12.8669 188.89 12.6709C189.198 14.0149 190.01 15.1629 191.494 15.1629C193.202 15.1629 193.818 13.6509 194.35 13.6509C194.602 13.6509 194.742 13.9589 194.742 14.4629C194.742 16.3109 192.978 18.0469 190.346 18.0469ZM188.75 11.2149C190.57 11.0469 191.326 10.2349 191.326 9.56292C191.326 9.08692 190.962 8.72292 190.374 8.72292C189.366 8.72292 188.806 9.81492 188.75 11.2149Z" fill="#F6631C"/>
<path d="M196.551 14.7989V8.80692H195.935C195.431 8.80692 195.179 8.52692 195.179 8.02292C195.179 7.54692 195.375 7.23892 195.907 7.01492C197.223 6.42692 198.399 5.36292 199.155 4.01892C199.295 3.76692 199.491 3.65492 199.771 3.65492C200.051 3.65492 200.191 3.79492 200.191 4.07492V7.26692H200.807C201.311 7.26692 201.591 7.51892 201.591 8.02292C201.591 8.52692 201.311 8.80692 200.807 8.80692H200.191V14.5469C200.191 15.7509 201.591 15.7229 201.591 16.9549C201.591 17.5989 201.199 17.9069 200.387 17.9069H199.519C197.643 17.9069 196.551 16.7589 196.551 14.7989Z" fill="#F6631C"/>
<path d="M207.836 9.59092C207.836 8.97492 207.5 8.69492 207.024 8.69492C205.82 8.69492 206.492 11.1869 204.588 11.1869C203.636 11.1869 203.02 10.5429 203.02 9.61892C203.02 8.07892 204.728 7.12692 207.052 7.12692C209.796 7.12692 211.476 8.47092 211.476 11.2429V14.5469C211.476 15.6949 212.876 15.1629 212.876 16.0309C212.876 16.8429 211.644 18.0469 210.216 18.0469C209.208 18.0469 208.228 17.4589 207.92 16.1429C207.276 17.3749 206.128 18.0469 204.924 18.0469C203.44 18.0469 202.432 16.9829 202.432 15.2749C202.432 11.3549 207.836 12.5029 207.836 9.59092ZM207.836 12.5309C206.884 13.1749 205.848 13.4829 205.848 14.4909C205.848 15.8909 207.836 15.6389 207.836 13.0629V12.5309Z" fill="#F6631C"/>
<path d="M213.725 16.0869C213.725 14.9109 214.509 14.1269 215.685 14.1269C216.861 14.1269 217.645 14.9109 217.645 16.0869C217.645 17.2629 216.861 18.0469 215.685 18.0469C214.509 18.0469 213.725 17.2629 213.725 16.0869Z" fill="#F6631C"/>
<path d="M14.9725 30.4509L15.5605 34.3989C15.6445 34.9869 15.2805 35.2949 14.7485 35.2949C14.3565 35.2949 13.9645 35.1269 13.4325 34.0909C12.4805 32.2989 11.0805 31.3749 9.73646 31.3749C8.67246 31.3749 7.91646 31.9349 7.91646 32.8869C7.91646 35.9109 15.6165 36.5549 15.6165 41.6229C15.6165 44.3949 13.3205 46.0469 10.2405 46.0469C8.81246 46.0469 7.41246 45.6829 6.88046 45.6829C6.29246 45.6829 6.04046 46.1029 5.42446 46.1029C4.92046 46.1029 4.66846 45.7949 4.66846 45.2349V41.2869C4.66846 40.6989 4.94846 40.4469 5.42446 40.4469C5.90046 40.4469 6.18046 40.6989 6.54446 41.5389C7.35646 43.5269 8.70046 44.5069 10.1565 44.5069C11.4165 44.5069 12.3685 43.7509 12.3685 42.5749C12.3685 39.2429 4.66846 38.6829 4.66846 33.8109C4.66846 31.4029 6.54446 29.8069 9.42846 29.8069C10.9405 29.8069 11.9205 30.2549 12.5925 30.2549C13.3205 30.2549 13.4885 29.7509 14.1885 29.7509C14.6365 29.7509 14.8885 29.9749 14.9725 30.4509Z" fill="#F6631C"/>
<path d="M22.9074 35.7149L24.5314 35.3229C25.0074 35.2109 25.4274 35.1269 25.7354 35.1269C26.4074 35.1269 26.7434 35.5469 26.7434 36.4149V42.5469C26.7434 43.6949 28.1434 43.1629 28.1434 44.0309C28.1434 44.8429 26.9114 46.0469 25.4834 46.0469C24.5874 46.0469 23.7474 45.5989 23.3274 44.5909L23.2714 44.4229C20.6674 46.9709 16.9994 46.6629 16.9994 42.4909V39.0749C16.9994 37.9269 15.5994 37.8989 15.5994 36.7789C15.5994 36.2189 15.9354 35.9389 16.8034 35.7149L18.4274 35.3229C18.9034 35.2109 19.3234 35.1269 19.6314 35.1269C20.3034 35.1269 20.6394 35.5469 20.6394 36.4149V42.3789C20.6394 43.9189 22.0394 43.8909 23.1034 42.6589V39.0749C23.1034 37.9269 21.7034 37.8989 21.7034 36.7789C21.7034 36.2189 22.0394 35.9389 22.9074 35.7149Z" fill="#F6631C"/>
<path d="M29.1127 44.9829V33.3069C29.1127 32.1589 27.7127 32.1309 27.7127 31.0109C27.7127 30.4509 28.0487 30.1709 28.9167 29.9469L30.5407 29.5549C30.9607 29.4429 31.4087 29.3869 31.6887 29.3869C32.4167 29.3869 32.7527 29.7789 32.7527 30.6469V35.7989C33.4247 35.3509 34.1527 35.1269 34.9647 35.1269C37.4847 35.1269 39.0527 37.2269 39.0527 40.5309C39.0527 43.9469 37.3727 46.0469 34.6287 46.0469C33.3407 46.0469 32.5847 45.5709 31.7167 45.5709C30.8207 45.5709 30.4007 46.0469 29.8407 46.0469C29.3647 46.0469 29.1127 45.6829 29.1127 44.9829ZM32.7527 37.4509V42.4349C32.7527 43.6669 33.1447 44.3949 33.8447 44.3949C34.8247 44.3949 35.4127 42.9949 35.4127 40.6429C35.4127 37.7029 34.4887 36.5549 32.7527 37.4509Z" fill="#F6631C"/>
<path d="M41.0599 42.3229C42.4879 42.3229 42.7399 44.4789 44.2519 44.4789C44.8119 44.4789 45.1759 44.1989 45.1759 43.7789C45.1759 42.1269 39.8839 41.7909 39.8839 38.2909C39.8839 36.3589 41.5079 35.1269 44.0279 35.1269C46.2959 35.1269 48.0879 36.1349 48.0879 37.4509C48.0879 38.2069 47.5279 38.8229 46.7719 38.8229C45.3719 38.8229 45.1199 36.6949 43.7199 36.6949C43.2719 36.6949 42.9639 36.9189 42.9639 37.2829C42.9639 38.8229 48.3399 39.2429 48.3399 42.7989C48.3399 44.8149 46.6319 46.0469 43.8319 46.0469C41.3959 46.0469 39.7439 45.1229 39.7439 43.7509C39.7439 42.9669 40.2759 42.3229 41.0599 42.3229Z" fill="#F6631C"/>
<path d="M49.0441 40.8949C49.0441 37.4789 51.3121 35.1269 54.4481 35.1269C56.5201 35.1269 58.0881 36.1349 58.0881 37.7029C58.0881 38.8229 57.2761 39.6629 56.1561 39.6629C55.0921 39.6629 54.3641 38.9349 54.3641 37.6469C54.3641 37.0309 54.1961 36.7229 53.8321 36.7229C53.0761 36.7229 52.4881 38.1789 52.4881 39.8029C52.4881 41.5389 53.1601 43.3309 54.9801 43.3309C56.7161 43.3309 57.2481 41.6509 57.8641 41.6509C58.0881 41.6509 58.2561 41.8469 58.2561 42.4629C58.2561 44.4509 56.4081 46.0469 53.8601 46.0469C51.0041 46.0469 49.0441 44.0589 49.0441 40.8949Z" fill="#F6631C"/>
<path d="M64.2091 45.9069H60.1771C59.3651 45.9069 58.9731 45.5989 58.9731 44.9549C58.9731 43.7229 60.3731 43.7509 60.3731 42.5469V39.0749C60.3731 37.9269 58.9731 37.8989 58.9731 36.7789C58.9731 36.2189 59.3091 35.9389 60.1771 35.7149L61.8011 35.3229C62.3891 35.1829 62.7531 35.1269 63.0051 35.1269C63.6771 35.1269 64.0131 35.5469 64.0131 36.4149V36.9469C64.8531 35.8269 65.9171 35.1269 66.9811 35.1269C68.2411 35.1269 69.1371 36.0789 69.1371 37.4789C69.1371 38.7949 68.3531 39.8029 67.2611 39.8029C65.8331 39.8029 65.9451 38.0109 65.3291 38.0109C64.6851 38.0109 64.0131 39.8589 64.0131 41.8749V42.5469C64.0131 43.7509 65.4131 43.7229 65.4131 44.9549C65.4131 45.5989 65.0211 45.9069 64.2091 45.9069Z" fill="#F6631C"/>
<path d="M70.8959 32.4669C70.8959 31.2909 71.7079 30.4789 72.9119 30.4789C74.0879 30.4789 74.8999 31.2909 74.8999 32.4669C74.8999 33.6709 74.0879 34.4829 72.9119 34.4829C71.7079 34.4829 70.8959 33.6709 70.8959 32.4669ZM74.6479 45.9069H70.8959C70.0839 45.9069 69.6919 45.5989 69.6919 44.9549C69.6919 43.7229 71.0919 43.7509 71.0919 42.5469V39.0749C71.0919 37.9269 69.6919 37.8989 69.6919 36.7789C69.6919 36.2189 70.0279 35.9389 70.8959 35.7149L72.5199 35.3229C72.9959 35.2109 73.4159 35.1269 73.7239 35.1269C74.3959 35.1269 74.7319 35.5469 74.7319 36.4149V42.5469C74.7319 43.7509 75.8519 43.7229 75.8519 44.9549C75.8519 45.5989 75.4599 45.9069 74.6479 45.9069Z" fill="#F6631C"/>
<path d="M76.9642 44.9829V33.3069C76.9642 32.1589 75.5642 32.1309 75.5642 31.0109C75.5642 30.4509 75.9002 30.1709 76.7682 29.9469L78.3922 29.5549C78.8122 29.4429 79.2602 29.3869 79.5402 29.3869C80.2682 29.3869 80.6042 29.7789 80.6042 30.6469V35.7989C81.2762 35.3509 82.0042 35.1269 82.8162 35.1269C85.3362 35.1269 86.9042 37.2269 86.9042 40.5309C86.9042 43.9469 85.2242 46.0469 82.4802 46.0469C81.1922 46.0469 80.4362 45.5709 79.5682 45.5709C78.6722 45.5709 78.2522 46.0469 77.6922 46.0469C77.2162 46.0469 76.9642 45.6829 76.9642 44.9829ZM80.6042 37.4509V42.4349C80.6042 43.6669 80.9962 44.3949 81.6962 44.3949C82.6762 44.3949 83.2642 42.9949 83.2642 40.6429C83.2642 37.7029 82.3402 36.5549 80.6042 37.4509Z" fill="#F6631C"/>
<path d="M92.6602 46.0469C89.9162 46.0469 87.8722 44.1709 87.8722 40.8949C87.8722 37.4789 90.1122 35.1269 93.3322 35.1269C95.6562 35.1269 96.8602 36.3589 96.8602 37.9829C96.8602 39.8029 95.3482 40.9229 93.1362 40.9229C92.5202 40.9229 91.8762 40.8669 91.2042 40.6709C91.5122 42.0149 92.3242 43.1629 93.8082 43.1629C95.5162 43.1629 96.1322 41.6509 96.6642 41.6509C96.9162 41.6509 97.0562 41.9589 97.0562 42.4629C97.0562 44.3109 95.2922 46.0469 92.6602 46.0469ZM91.0642 39.2149C92.8842 39.0469 93.6402 38.2349 93.6402 37.5629C93.6402 37.0869 93.2762 36.7229 92.6882 36.7229C91.6802 36.7229 91.1202 37.8149 91.0642 39.2149Z" fill="#F6631C"/>
<path d="M108.451 45.9069H104.419C103.607 45.9069 103.215 45.5989 103.215 44.9549C103.215 43.7229 104.615 43.7509 104.615 42.5469V36.8069H103.971C103.467 36.8069 103.215 36.5269 103.215 36.0229C103.215 35.5189 103.467 35.2669 103.971 35.2669H104.615C104.167 34.3989 103.971 33.6709 103.971 32.8869C103.971 30.7589 105.455 29.3869 107.807 29.3869C109.711 29.3869 111.055 30.3109 111.055 31.7669C111.055 32.7749 110.411 33.5309 109.347 33.5309C107.443 33.5309 107.751 31.0389 106.911 31.0389C106.575 31.0389 106.323 31.4589 106.323 32.1309C106.323 33.1389 106.911 34.2309 108.255 35.2669H109.291C109.795 35.2669 110.047 35.5189 110.047 36.0229C110.047 36.5269 109.795 36.8069 109.291 36.8069H108.255V42.5469C108.255 43.7509 109.655 43.7229 109.655 44.9549C109.655 45.5989 109.263 45.9069 108.451 45.9069Z" fill="#F6631C"/>
<path d="M110.075 40.5869C110.075 37.0589 112.315 35.1269 115.451 35.1269C118.587 35.1269 120.827 37.0589 120.827 40.5869C120.827 44.1149 118.587 46.0469 115.451 46.0469C112.315 46.0469 110.075 44.1149 110.075 40.5869ZM117.271 41.5389C117.271 39.3269 116.431 36.6949 115.003 36.6949C114.079 36.6949 113.659 38.0109 113.659 39.5509C113.659 41.7909 114.499 44.4789 115.927 44.4789C116.851 44.4789 117.271 43.1349 117.271 41.5389Z" fill="#F6631C"/>
<path d="M126.498 45.9069H122.466C121.654 45.9069 121.262 45.5989 121.262 44.9549C121.262 43.7229 122.662 43.7509 122.662 42.5469V39.0749C122.662 37.9269 121.262 37.8989 121.262 36.7789C121.262 36.2189 121.598 35.9389 122.466 35.7149L124.09 35.3229C124.678 35.1829 125.042 35.1269 125.294 35.1269C125.966 35.1269 126.302 35.5469 126.302 36.4149V36.9469C127.142 35.8269 128.206 35.1269 129.27 35.1269C130.53 35.1269 131.426 36.0789 131.426 37.4789C131.426 38.7949 130.642 39.8029 129.55 39.8029C128.122 39.8029 128.234 38.0109 127.618 38.0109C126.974 38.0109 126.302 39.8589 126.302 41.8749V42.5469C126.302 43.7509 127.702 43.7229 127.702 44.9549C127.702 45.5989 127.31 45.9069 126.498 45.9069Z" fill="#F6631C"/>
<path d="M144.45 35.7149L146.074 35.3229C146.55 35.2109 146.97 35.1269 147.278 35.1269C147.95 35.1269 148.286 35.5469 148.286 36.4149V42.5469C148.286 43.6949 149.686 43.1629 149.686 44.0309C149.686 44.8429 148.454 46.0469 147.026 46.0469C146.13 46.0469 145.29 45.5989 144.87 44.5909L144.814 44.4229C142.21 46.9709 138.542 46.6629 138.542 42.4909V39.0749C138.542 37.9269 137.142 37.8989 137.142 36.7789C137.142 36.2189 137.478 35.9389 138.346 35.7149L139.97 35.3229C140.446 35.2109 140.866 35.1269 141.174 35.1269C141.846 35.1269 142.182 35.5469 142.182 36.4149V42.3789C142.182 43.9189 143.582 43.8909 144.646 42.6589V39.0749C144.646 37.9269 143.246 37.8989 143.246 36.7789C143.246 36.2189 143.582 35.9389 144.45 35.7149Z" fill="#F6631C"/>
<path d="M150.656 48.4269V39.0469C150.656 37.8989 149.256 37.8709 149.256 36.7509C149.256 36.1909 149.592 35.9109 150.46 35.6869L152.084 35.2949C152.532 35.1829 152.98 35.1269 153.26 35.1269C153.764 35.1269 154.072 35.3229 154.212 35.7709C154.94 35.3509 155.724 35.1269 156.508 35.1269C159 35.1269 160.596 37.1989 160.596 40.5309C160.596 44.0309 158.86 46.0469 156.032 46.0469C155.36 46.0469 154.8 45.9349 154.296 45.7669V48.4269C154.296 49.6309 155.696 49.6029 155.696 50.8349C155.696 51.4789 155.304 51.7869 154.492 51.7869H150.46C149.648 51.7869 149.256 51.4789 149.256 50.8349C149.256 49.6029 150.656 49.6309 150.656 48.4269ZM154.296 37.3389V42.4349C154.296 43.8349 154.8 44.3949 155.416 44.3949C156.34 44.3949 156.956 43.0789 156.956 40.6709C156.956 37.9829 156.2 36.4709 154.296 37.3389Z" fill="#F6631C"/>
<path d="M167.668 29.9469L169.292 29.5549C169.712 29.4429 170.16 29.3869 170.44 29.3869C171.168 29.3869 171.504 29.7789 171.504 30.6469V42.5469C171.504 43.6949 172.904 43.1629 172.904 44.0309C172.904 44.8429 171.672 46.0469 170.244 46.0469C169.348 46.0469 168.452 45.5709 168.06 44.5069C167.36 45.3749 166.38 46.0469 165.204 46.0469C162.964 46.0469 161.564 43.6669 161.564 40.5589C161.564 37.1989 163.16 35.1269 165.708 35.1269C166.52 35.1269 167.192 35.3509 167.864 35.7989V33.3069C167.864 32.1589 166.464 32.1309 166.464 31.0109C166.464 30.4509 166.8 30.1709 167.668 29.9469ZM167.864 37.4509C166.128 36.5549 165.204 37.6749 165.204 40.1949C165.204 44.4229 167.864 44.5909 167.864 41.4269V37.4509Z" fill="#F6631C"/>
<path d="M179.139 37.5909C179.139 36.9749 178.803 36.6949 178.327 36.6949C177.123 36.6949 177.795 39.1869 175.891 39.1869C174.939 39.1869 174.323 38.5429 174.323 37.6189C174.323 36.0789 176.031 35.1269 178.355 35.1269C181.099 35.1269 182.779 36.4709 182.779 39.2429V42.5469C182.779 43.6949 184.179 43.1629 184.179 44.0309C184.179 44.8429 182.947 46.0469 181.519 46.0469C180.511 46.0469 179.531 45.4589 179.223 44.1429C178.579 45.3749 177.431 46.0469 176.227 46.0469C174.743 46.0469 173.735 44.9829 173.735 43.2749C173.735 39.3549 179.139 40.5029 179.139 37.5909ZM179.139 40.5309C178.187 41.1749 177.151 41.4829 177.151 42.4909C177.151 43.8909 179.139 43.6389 179.139 41.0629V40.5309Z" fill="#F6631C"/>
<path d="M184.999 42.7989V36.8069H184.383C183.879 36.8069 183.627 36.5269 183.627 36.0229C183.627 35.5469 183.823 35.2389 184.355 35.0149C185.671 34.4269 186.847 33.3629 187.603 32.0189C187.743 31.7669 187.939 31.6549 188.219 31.6549C188.499 31.6549 188.639 31.7949 188.639 32.0749V35.2669H189.255C189.759 35.2669 190.039 35.5189 190.039 36.0229C190.039 36.5269 189.759 36.8069 189.255 36.8069H188.639V42.5469C188.639 43.7509 190.039 43.7229 190.039 44.9549C190.039 45.5989 189.647 45.9069 188.835 45.9069H187.967C186.091 45.9069 184.999 44.7589 184.999 42.7989Z" fill="#F6631C"/>
<path d="M195.254 46.0469C192.51 46.0469 190.466 44.1709 190.466 40.8949C190.466 37.4789 192.706 35.1269 195.926 35.1269C198.25 35.1269 199.454 36.3589 199.454 37.9829C199.454 39.8029 197.942 40.9229 195.73 40.9229C195.114 40.9229 194.47 40.8669 193.798 40.6709C194.106 42.0149 194.918 43.1629 196.402 43.1629C198.11 43.1629 198.726 41.6509 199.258 41.6509C199.51 41.6509 199.65 41.9589 199.65 42.4629C199.65 44.3109 197.886 46.0469 195.254 46.0469ZM193.658 39.2149C195.478 39.0469 196.234 38.2349 196.234 37.5629C196.234 37.0869 195.87 36.7229 195.282 36.7229C194.274 36.7229 193.714 37.8149 193.658 39.2149Z" fill="#F6631C"/>
<path d="M201.677 42.3229C203.105 42.3229 203.357 44.4789 204.869 44.4789C205.429 44.4789 205.793 44.1989 205.793 43.7789C205.793 42.1269 200.501 41.7909 200.501 38.2909C200.501 36.3589 202.125 35.1269 204.645 35.1269C206.913 35.1269 208.705 36.1349 208.705 37.4509C208.705 38.2069 208.145 38.8229 207.389 38.8229C205.989 38.8229 205.737 36.6949 204.337 36.6949C203.889 36.6949 203.581 36.9189 203.581 37.2829C203.581 38.8229 208.957 39.2429 208.957 42.7989C208.957 44.8149 207.249 46.0469 204.449 46.0469C202.013 46.0469 200.361 45.1229 200.361 43.7509C200.361 42.9669 200.893 42.3229 201.677 42.3229Z" fill="#F6631C"/>
<path d="M209.801 44.0869C209.801 42.9109 210.585 42.1269 211.761 42.1269C212.937 42.1269 213.721 42.9109 213.721 44.0869C213.721 45.2629 212.937 46.0469 211.761 46.0469C210.585 46.0469 209.801 45.2629 209.801 44.0869Z" fill="#F6631C"/>
</g>
<defs>
<filter id="filter0_d_17862_129074" x="0.744629" y="0.74292" width="220.579" height="54.7223" filterUnits="userSpaceOnUse" color-interpolation-filters="sRGB">
<feFlood flood-opacity="0" result="BackgroundImageFix"/>
<feColorMatrix in="SourceAlpha" type="matrix" values="0 0 0 0 0 0 0 0 0 0 0 0 0 0 0 0 0 0 127 0" result="hardAlpha"/>
<feOffset dx="3.67824" dy="3.67824"/>
<feComposite in2="hardAlpha" operator="out"/>
<feColorMatrix type="matrix" values="0 0 0 0 0.898039 0 0 0 0 0.847059 0 0 0 0 0.709804 0 0 0 0.5 0"/>
<feBlend mode="normal" in2="BackgroundImageFix" result="effect1_dropShadow_17862_129074"/>
<feBlend mode="normal" in="SourceGraphic" in2="effect1_dropShadow_17862_129074" result="shape"/>
</filter>
</defs>
</svg>
