<svg width="437" height="28" viewBox="0 0 437 28" fill="none" xmlns="http://www.w3.org/2000/svg">
<g filter="url(#filter0_d_17862_129070)">
<path d="M5.632 17.9069H1.6C0.899996 17.9069 0.395996 17.6829 0.395996 16.9549C0.395996 15.7229 1.796 15.7509 1.796 14.5469V5.30692C1.796 4.10292 0.395996 4.13092 0.395996 2.89892C0.395996 2.17092 0.899996 1.94692 1.6 1.94692H6.948C10.868 1.94692 12.94 3.59892 12.94 6.76292C12.94 10.1229 10.644 11.8589 6.5 11.8589H6.136C5.66 11.8589 5.436 12.0829 5.436 12.5589V14.5469C5.436 15.7509 6.836 15.7229 6.836 16.9549C6.836 17.6829 6.332 17.9069 5.632 17.9069ZM5.436 4.69092V9.61892C5.436 10.0949 5.66 10.3189 6.136 10.3189H6.5C8.292 10.3189 9.3 8.97492 9.3 6.76292C9.3 4.74692 8.376 3.48692 6.864 3.48692C5.94 3.48692 5.436 3.90692 5.436 4.69092Z" fill="#F6631C"/>
<path d="M12.5333 12.5869C12.5333 9.05892 14.7733 7.12692 17.9093 7.12692C21.0453 7.12692 23.2853 9.05892 23.2853 12.5869C23.2853 16.1149 21.0453 18.0469 17.9093 18.0469C14.7733 18.0469 12.5333 16.1149 12.5333 12.5869ZM19.7293 13.5389C19.7293 11.3269 18.8893 8.69492 17.4613 8.69492C16.5373 8.69492 16.1173 10.0109 16.1173 11.5509C16.1173 13.7909 16.9573 16.4789 18.3853 16.4789C19.3093 16.4789 19.7293 15.1349 19.7293 13.5389Z" fill="#F6631C"/>
<path d="M25.3031 14.3229C26.7311 14.3229 26.9831 16.4789 28.4951 16.4789C29.0551 16.4789 29.4191 16.1989 29.4191 15.7789C29.4191 14.1269 24.1271 13.7909 24.1271 10.2909C24.1271 8.35892 25.7511 7.12692 28.2711 7.12692C30.5391 7.12692 32.3311 8.13492 32.3311 9.45092C32.3311 10.2069 31.7711 10.8229 31.0151 10.8229C29.6151 10.8229 29.3631 8.69492 27.9631 8.69492C27.5151 8.69492 27.2071 8.91892 27.2071 9.28292C27.2071 10.8229 32.5831 11.2429 32.5831 14.7989C32.5831 16.8149 30.8751 18.0469 28.0751 18.0469C25.6391 18.0469 23.9871 17.1229 23.9871 15.7509C23.9871 14.9669 24.5191 14.3229 25.3031 14.3229Z" fill="#F6631C"/>
<path d="M33.9724 14.7989V8.80692H33.3564C32.8524 8.80692 32.6004 8.52692 32.6004 8.02292C32.6004 7.54692 32.7964 7.23892 33.3284 7.01492C34.6444 6.42692 35.8204 5.36292 36.5764 4.01892C36.7164 3.76692 36.9124 3.65492 37.1924 3.65492C37.4724 3.65492 37.6124 3.79492 37.6124 4.07492V7.26692H38.2284C38.7324 7.26692 39.0124 7.51892 39.0124 8.02292C39.0124 8.52692 38.7324 8.80692 38.2284 8.80692H37.6124V14.5469C37.6124 15.7509 39.0124 15.7229 39.0124 16.9549C39.0124 17.5989 38.6204 17.9069 37.8084 17.9069H36.9404C35.0644 17.9069 33.9724 16.7589 33.9724 14.7989Z" fill="#F6631C"/>
<path d="M45.089 17.9069H41.057C40.357 17.9069 39.853 17.6829 39.853 16.9549C39.853 15.7229 41.253 15.7509 41.253 14.5469V5.30692C41.253 4.10292 39.853 4.13092 39.853 2.89892C39.853 2.17092 40.357 1.94692 41.057 1.94692H45.089C45.789 1.94692 46.293 2.17092 46.293 2.89892C46.293 4.13092 44.893 4.10292 44.893 5.30692V8.52692C44.893 9.00292 45.117 9.22692 45.593 9.22692H48.953C49.429 9.22692 49.653 9.00292 49.653 8.52692V5.30692C49.653 4.10292 48.253 4.13092 48.253 2.89892C48.253 2.17092 48.757 1.94692 49.457 1.94692H53.489C54.189 1.94692 54.693 2.17092 54.693 2.89892C54.693 4.13092 53.293 4.10292 53.293 5.30692V14.5469C53.293 15.7509 54.693 15.7229 54.693 16.9549C54.693 17.6829 54.189 17.9069 53.489 17.9069H49.457C48.757 17.9069 48.253 17.6829 48.253 16.9549C48.253 15.7229 49.653 15.7509 49.653 14.5469V11.4669C49.653 10.9909 49.429 10.7669 48.953 10.7669H45.593C45.117 10.7669 44.893 10.9909 44.893 11.4669V14.5469C44.893 15.7509 46.293 15.7229 46.293 16.9549C46.293 17.6829 45.789 17.9069 45.089 17.9069Z" fill="#F6631C"/>
<path d="M54.8341 12.5869C54.8341 9.05892 57.0741 7.12692 60.2101 7.12692C63.3461 7.12692 65.5861 9.05892 65.5861 12.5869C65.5861 16.1149 63.3461 18.0469 60.2101 18.0469C57.0741 18.0469 54.8341 16.1149 54.8341 12.5869ZM62.0301 13.5389C62.0301 11.3269 61.1901 8.69492 59.7621 8.69492C58.8381 8.69492 58.4181 10.0109 58.4181 11.5509C58.4181 13.7909 59.2581 16.4789 60.6861 16.4789C61.6101 16.4789 62.0301 15.1349 62.0301 13.5389Z" fill="#F6631C"/>
<path d="M66.4246 11.6629C66.4246 8.77892 68.2446 7.12692 71.4086 7.12692C72.5006 7.12692 73.4246 7.32292 74.1806 7.71492C74.7966 7.65892 75.1886 7.35092 75.1886 6.87492C75.1886 6.45492 74.8806 6.11892 74.8806 5.53092C74.8806 4.71892 75.4966 4.24292 76.2806 4.24292C77.2886 4.24292 77.9326 5.02692 77.9326 6.00692C77.9326 7.29492 76.7566 8.49892 75.4126 8.72292C76.0286 9.45092 76.3366 10.4589 76.3366 11.6629C76.3366 14.5469 74.5446 16.1989 71.4086 16.1989C70.5126 16.1989 69.7286 16.0589 69.0566 15.8069C68.2446 17.0109 68.6926 17.8789 69.5046 17.8789C70.5406 17.8789 72.1086 16.4229 73.9566 16.4229C75.7206 16.4229 77.1206 17.7669 77.1206 19.6989C77.1206 22.2189 74.7406 24.0669 72.4446 24.0669C71.0166 24.0669 70.4566 23.3389 70.4566 22.6389C70.4566 21.9669 70.9606 21.5189 71.6886 21.5189C72.3606 21.5189 72.9766 21.8829 73.7606 21.8829C75.5526 21.8829 75.4686 19.9789 74.1246 19.9789C72.9206 19.9789 71.6326 21.5189 69.5326 21.5189C67.6846 21.5189 66.4246 20.3429 66.4246 18.4949C66.4246 17.2069 67.0126 15.9469 67.7406 15.0229C66.9006 14.2669 66.4246 13.1189 66.4246 11.6629ZM71.8286 14.6309C72.3886 14.6309 72.7526 13.8749 72.7526 12.6709C72.7526 10.6269 71.9126 8.69492 71.0166 8.69492C70.4006 8.69492 70.0086 9.47892 70.0086 10.7389C70.0086 12.7549 70.8766 14.6309 71.8286 14.6309Z" fill="#F6631C"/>
<path d="M79.4072 8.30292C79.0152 8.30292 78.7632 8.05092 78.7632 7.71492C78.7632 6.87492 80.5272 6.03492 80.5272 5.19492C80.5272 4.35492 78.7632 4.43892 78.7632 2.70292C78.7632 1.52692 79.5752 0.74292 80.8352 0.74292C82.0952 0.74292 82.9072 1.55492 82.9072 3.09492C82.9072 5.67092 80.6672 8.30292 79.4072 8.30292Z" fill="#F6631C"/>
<path d="M84.8304 14.3229C86.2584 14.3229 86.5104 16.4789 88.0224 16.4789C88.5824 16.4789 88.9464 16.1989 88.9464 15.7789C88.9464 14.1269 83.6544 13.7909 83.6544 10.2909C83.6544 8.35892 85.2784 7.12692 87.7984 7.12692C90.0664 7.12692 91.8584 8.13492 91.8584 9.45092C91.8584 10.2069 91.2984 10.8229 90.5424 10.8229C89.1424 10.8229 88.8904 8.69492 87.4904 8.69492C87.0424 8.69492 86.7344 8.91892 86.7344 9.28292C86.7344 10.8229 92.1104 11.2429 92.1104 14.7989C92.1104 16.8149 90.4024 18.0469 87.6024 18.0469C85.1664 18.0469 83.5144 17.1229 83.5144 15.7509C83.5144 14.9669 84.0464 14.3229 84.8304 14.3229Z" fill="#F6631C"/>
<path d="M99.7186 13.9309L102.379 5.19492C102.771 3.87892 101.903 3.85092 101.903 2.89892C101.903 2.39492 102.127 1.94692 102.827 1.94692H105.879C106.355 1.94692 106.663 2.17092 106.803 2.61892L110.443 13.9309C111.199 16.2549 112.319 15.8069 112.319 16.9829C112.319 17.6829 111.899 17.9069 111.143 17.9069H106.999C106.271 17.9069 105.879 17.7109 105.823 17.1229V17.0109C105.823 15.8069 107.251 15.9189 106.831 14.6589L106.691 14.2389C106.551 13.7909 106.271 13.5669 105.795 13.5669H102.155C101.679 13.5669 101.399 13.7909 101.259 14.2389L101.119 14.6589C100.699 15.9469 102.127 15.8069 102.127 17.0109C102.127 17.6829 101.707 17.9069 100.951 17.9069H99.0186C98.2626 17.9069 97.8426 17.6829 97.8426 16.9829C97.8426 15.8069 98.9906 16.3389 99.7186 13.9309ZM102.631 12.0269H105.319C105.795 12.0269 105.963 11.8029 105.823 11.3549L104.199 6.28692C104.087 5.92292 103.751 5.92292 103.639 6.28692L102.127 11.3549C101.987 11.8029 102.155 12.0269 102.631 12.0269Z" fill="#F6631C"/>
<path d="M118.398 17.9069H114.366C113.666 17.9069 113.162 17.6829 113.162 16.9549C113.162 15.7229 114.562 15.7509 114.562 14.5469V5.30692C114.562 4.10292 113.162 4.13092 113.162 2.89892C113.162 2.17092 113.666 1.94692 114.366 1.94692H118.398C119.098 1.94692 119.602 2.17092 119.602 2.89892C119.602 4.13092 118.202 4.10292 118.202 5.30692V14.5469C118.202 15.7509 119.602 15.7229 119.602 16.9549C119.602 17.6829 119.098 17.9069 118.398 17.9069Z" fill="#F6631C"/>
<path d="M127.08 4.46692C127.08 3.29092 127.892 2.47892 129.096 2.47892C130.272 2.47892 131.084 3.29092 131.084 4.46692C131.084 5.67092 130.272 6.48292 129.096 6.48292C127.892 6.48292 127.08 5.67092 127.08 4.46692ZM130.832 17.9069H127.08C126.268 17.9069 125.876 17.5989 125.876 16.9549C125.876 15.7229 127.276 15.7509 127.276 14.5469V11.0749C127.276 9.92692 125.876 9.89892 125.876 8.77892C125.876 8.21892 126.212 7.93892 127.08 7.71492L128.704 7.32292C129.18 7.21092 129.6 7.12692 129.908 7.12692C130.58 7.12692 130.916 7.54692 130.916 8.41492V14.5469C130.916 15.7509 132.036 15.7229 132.036 16.9549C132.036 17.5989 131.644 17.9069 130.832 17.9069Z" fill="#F6631C"/>
<path d="M133.912 14.3229C135.34 14.3229 135.592 16.4789 137.104 16.4789C137.664 16.4789 138.028 16.1989 138.028 15.7789C138.028 14.1269 132.736 13.7909 132.736 10.2909C132.736 8.35892 134.36 7.12692 136.88 7.12692C139.148 7.12692 140.94 8.13492 140.94 9.45092C140.94 10.2069 140.38 10.8229 139.624 10.8229C138.224 10.8229 137.972 8.69492 136.572 8.69492C136.124 8.69492 135.816 8.91892 135.816 9.28292C135.816 10.8229 141.192 11.2429 141.192 14.7989C141.192 16.8149 139.484 18.0469 136.684 18.0469C134.248 18.0469 132.596 17.1229 132.596 15.7509C132.596 14.9669 133.128 14.3229 133.912 14.3229Z" fill="#F6631C"/>
<path d="M148.409 4.46692C148.409 3.29092 149.221 2.47892 150.425 2.47892C151.601 2.47892 152.413 3.29092 152.413 4.46692C152.413 5.67092 151.601 6.48292 150.425 6.48292C149.221 6.48292 148.409 5.67092 148.409 4.46692ZM152.161 17.9069H148.409C147.597 17.9069 147.205 17.5989 147.205 16.9549C147.205 15.7229 148.605 15.7509 148.605 14.5469V11.0749C148.605 9.92692 147.205 9.89892 147.205 8.77892C147.205 8.21892 147.541 7.93892 148.409 7.71492L150.033 7.32292C150.509 7.21092 150.929 7.12692 151.237 7.12692C151.909 7.12692 152.245 7.54692 152.245 8.41492V14.5469C152.245 15.7509 153.365 15.7229 153.365 16.9549C153.365 17.5989 152.973 17.9069 152.161 17.9069Z" fill="#F6631C"/>
<path d="M159.161 17.9069H155.409C154.597 17.9069 154.205 17.5989 154.205 16.9549C154.205 15.7229 155.605 15.7509 155.605 14.5469V11.0749C155.605 9.92692 154.205 9.89892 154.205 8.77892C154.205 8.21892 154.541 7.93892 155.409 7.71492L157.033 7.32292C157.509 7.21092 157.929 7.12692 158.237 7.12692C158.909 7.12692 159.245 7.54692 159.245 8.41492V8.55492C161.849 6.23092 165.769 6.65092 165.769 10.6829V14.5469C165.769 15.7509 167.169 15.7229 167.169 16.9549C167.169 17.5989 166.777 17.9069 165.965 17.9069H162.213C161.401 17.9069 161.009 17.5989 161.009 16.9549C161.009 15.7229 162.129 15.7509 162.129 14.5469V10.7949C162.129 9.45092 160.365 9.31092 159.245 10.5429V14.5469C159.245 15.7509 160.365 15.7229 160.365 16.9549C160.365 17.5989 159.973 17.9069 159.161 17.9069Z" fill="#F6631C"/>
<path d="M174.301 16.9829V5.30692C174.301 4.15892 172.901 4.13092 172.901 3.01092C172.901 2.45092 173.237 2.17092 174.105 1.94692L175.729 1.55492C176.149 1.44292 176.597 1.38692 176.877 1.38692C177.605 1.38692 177.941 1.77892 177.941 2.64692V7.79892C178.613 7.35092 179.341 7.12692 180.153 7.12692C182.673 7.12692 184.241 9.22692 184.241 12.5309C184.241 15.9469 182.561 18.0469 179.817 18.0469C178.529 18.0469 177.773 17.5709 176.905 17.5709C176.009 17.5709 175.589 18.0469 175.029 18.0469C174.553 18.0469 174.301 17.6829 174.301 16.9829ZM177.941 9.45092V14.4349C177.941 15.6669 178.333 16.3949 179.033 16.3949C180.013 16.3949 180.601 14.9949 180.601 12.6429C180.601 9.70292 179.677 8.55492 177.941 9.45092Z" fill="#F6631C"/>
<path d="M189.997 18.0469C187.253 18.0469 185.209 16.1709 185.209 12.8949C185.209 9.47892 187.449 7.12692 190.669 7.12692C192.993 7.12692 194.197 8.35892 194.197 9.98292C194.197 11.8029 192.685 12.9229 190.473 12.9229C189.857 12.9229 189.213 12.8669 188.541 12.6709C188.849 14.0149 189.661 15.1629 191.145 15.1629C192.853 15.1629 193.469 13.6509 194.001 13.6509C194.253 13.6509 194.393 13.9589 194.393 14.4629C194.393 16.3109 192.629 18.0469 189.997 18.0469ZM188.401 11.2149C190.221 11.0469 190.977 10.2349 190.977 9.56292C190.977 9.08692 190.613 8.72292 190.025 8.72292C189.017 8.72292 188.457 9.81492 188.401 11.2149Z" fill="#F6631C"/>
<path d="M196.203 14.7989V8.80692H195.587C195.083 8.80692 194.831 8.52692 194.831 8.02292C194.831 7.54692 195.027 7.23892 195.559 7.01492C196.875 6.42692 198.051 5.36292 198.807 4.01892C198.947 3.76692 199.143 3.65492 199.423 3.65492C199.703 3.65492 199.843 3.79492 199.843 4.07492V7.26692H200.459C200.963 7.26692 201.243 7.51892 201.243 8.02292C201.243 8.52692 200.963 8.80692 200.459 8.80692H199.843V14.5469C199.843 15.7509 201.243 15.7229 201.243 16.9549C201.243 17.5989 200.851 17.9069 200.039 17.9069H199.171C197.295 17.9069 196.203 16.7589 196.203 14.7989Z" fill="#F6631C"/>
<path d="M207.488 9.59092C207.488 8.97492 207.151 8.69492 206.675 8.69492C205.471 8.69492 206.144 11.1869 204.24 11.1869C203.288 11.1869 202.671 10.5429 202.671 9.61892C202.671 8.07892 204.379 7.12692 206.703 7.12692C209.447 7.12692 211.128 8.47092 211.128 11.2429V14.5469C211.128 15.6949 212.527 15.1629 212.527 16.0309C212.527 16.8429 211.295 18.0469 209.867 18.0469C208.859 18.0469 207.88 17.4589 207.572 16.1429C206.928 17.3749 205.779 18.0469 204.576 18.0469C203.092 18.0469 202.083 16.9829 202.083 15.2749C202.083 11.3549 207.488 12.5029 207.488 9.59092ZM207.488 12.5309C206.536 13.1749 205.499 13.4829 205.499 14.4909C205.499 15.8909 207.488 15.6389 207.488 13.0629V12.5309Z" fill="#F6631C"/>
<path d="M213.376 16.0869C213.376 14.9109 214.16 14.1269 215.336 14.1269C216.512 14.1269 217.296 14.9109 217.296 16.0869C217.296 17.2629 216.512 18.0469 215.336 18.0469C214.16 18.0469 213.376 17.2629 213.376 16.0869Z" fill="#F6631C"/>
<path d="M233.88 2.45092L234.468 6.39892C234.552 6.98692 234.188 7.29492 233.656 7.29492C233.264 7.29492 232.872 7.12692 232.34 6.09092C231.388 4.29892 229.988 3.37492 228.644 3.37492C227.58 3.37492 226.824 3.93492 226.824 4.88692C226.824 7.91092 234.524 8.55492 234.524 13.6229C234.524 16.3949 232.228 18.0469 229.148 18.0469C227.72 18.0469 226.32 17.6829 225.788 17.6829C225.2 17.6829 224.948 18.1029 224.332 18.1029C223.828 18.1029 223.576 17.7949 223.576 17.2349V13.2869C223.576 12.6989 223.856 12.4469 224.332 12.4469C224.808 12.4469 225.088 12.6989 225.452 13.5389C226.264 15.5269 227.608 16.5069 229.064 16.5069C230.324 16.5069 231.276 15.7509 231.276 14.5749C231.276 11.2429 223.576 10.6829 223.576 5.81092C223.576 3.40292 225.452 1.80692 228.336 1.80692C229.848 1.80692 230.828 2.25492 231.5 2.25492C232.228 2.25492 232.396 1.75092 233.096 1.75092C233.544 1.75092 233.796 1.97492 233.88 2.45092Z" fill="#F6631C"/>
<path d="M241.815 7.71492L243.439 7.32292C243.915 7.21092 244.335 7.12692 244.643 7.12692C245.315 7.12692 245.651 7.54692 245.651 8.41492V14.5469C245.651 15.6949 247.051 15.1629 247.051 16.0309C247.051 16.8429 245.819 18.0469 244.391 18.0469C243.495 18.0469 242.655 17.5989 242.235 16.5909L242.179 16.4229C239.575 18.9709 235.907 18.6629 235.907 14.4909V11.0749C235.907 9.92692 234.507 9.89892 234.507 8.77892C234.507 8.21892 234.843 7.93892 235.711 7.71492L237.335 7.32292C237.811 7.21092 238.231 7.12692 238.539 7.12692C239.211 7.12692 239.547 7.54692 239.547 8.41492V14.3789C239.547 15.9189 240.947 15.8909 242.011 14.6589V11.0749C242.011 9.92692 240.611 9.89892 240.611 8.77892C240.611 8.21892 240.947 7.93892 241.815 7.71492Z" fill="#F6631C"/>
<path d="M248.02 16.9829V5.30692C248.02 4.15892 246.62 4.13092 246.62 3.01092C246.62 2.45092 246.956 2.17092 247.824 1.94692L249.448 1.55492C249.868 1.44292 250.316 1.38692 250.596 1.38692C251.324 1.38692 251.66 1.77892 251.66 2.64692V7.79892C252.332 7.35092 253.06 7.12692 253.872 7.12692C256.392 7.12692 257.96 9.22692 257.96 12.5309C257.96 15.9469 256.28 18.0469 253.536 18.0469C252.248 18.0469 251.492 17.5709 250.624 17.5709C249.728 17.5709 249.308 18.0469 248.748 18.0469C248.272 18.0469 248.02 17.6829 248.02 16.9829ZM251.66 9.45092V14.4349C251.66 15.6669 252.052 16.3949 252.752 16.3949C253.732 16.3949 254.32 14.9949 254.32 12.6429C254.32 9.70292 253.396 8.55492 251.66 9.45092Z" fill="#F6631C"/>
<path d="M259.967 14.3229C261.395 14.3229 261.647 16.4789 263.159 16.4789C263.719 16.4789 264.083 16.1989 264.083 15.7789C264.083 14.1269 258.791 13.7909 258.791 10.2909C258.791 8.35892 260.415 7.12692 262.935 7.12692C265.203 7.12692 266.995 8.13492 266.995 9.45092C266.995 10.2069 266.435 10.8229 265.679 10.8229C264.279 10.8229 264.027 8.69492 262.627 8.69492C262.179 8.69492 261.871 8.91892 261.871 9.28292C261.871 10.8229 267.247 11.2429 267.247 14.7989C267.247 16.8149 265.539 18.0469 262.739 18.0469C260.303 18.0469 258.651 17.1229 258.651 15.7509C258.651 14.9669 259.183 14.3229 259.967 14.3229Z" fill="#F6631C"/>
<path d="M267.951 12.8949C267.951 9.47892 270.219 7.12692 273.355 7.12692C275.427 7.12692 276.995 8.13492 276.995 9.70292C276.995 10.8229 276.183 11.6629 275.063 11.6629C273.999 11.6629 273.271 10.9349 273.271 9.64692C273.271 9.03092 273.103 8.72292 272.739 8.72292C271.983 8.72292 271.395 10.1789 271.395 11.8029C271.395 13.5389 272.067 15.3309 273.887 15.3309C275.623 15.3309 276.155 13.6509 276.771 13.6509C276.995 13.6509 277.163 13.8469 277.163 14.4629C277.163 16.4509 275.315 18.0469 272.767 18.0469C269.911 18.0469 267.951 16.0589 267.951 12.8949Z" fill="#F6631C"/>
<path d="M283.116 17.9069H279.084C278.272 17.9069 277.88 17.5989 277.88 16.9549C277.88 15.7229 279.28 15.7509 279.28 14.5469V11.0749C279.28 9.92692 277.88 9.89892 277.88 8.77892C277.88 8.21892 278.216 7.93892 279.084 7.71492L280.708 7.32292C281.296 7.18292 281.66 7.12692 281.912 7.12692C282.584 7.12692 282.92 7.54692 282.92 8.41492V8.94692C283.76 7.82692 284.824 7.12692 285.888 7.12692C287.148 7.12692 288.044 8.07892 288.044 9.47892C288.044 10.7949 287.26 11.8029 286.168 11.8029C284.74 11.8029 284.852 10.0109 284.236 10.0109C283.592 10.0109 282.92 11.8589 282.92 13.8749V14.5469C282.92 15.7509 284.32 15.7229 284.32 16.9549C284.32 17.5989 283.928 17.9069 283.116 17.9069Z" fill="#F6631C"/>
<path d="M289.803 4.46692C289.803 3.29092 290.615 2.47892 291.819 2.47892C292.995 2.47892 293.807 3.29092 293.807 4.46692C293.807 5.67092 292.995 6.48292 291.819 6.48292C290.615 6.48292 289.803 5.67092 289.803 4.46692ZM293.555 17.9069H289.803C288.991 17.9069 288.599 17.5989 288.599 16.9549C288.599 15.7229 289.999 15.7509 289.999 14.5469V11.0749C289.999 9.92692 288.599 9.89892 288.599 8.77892C288.599 8.21892 288.935 7.93892 289.803 7.71492L291.427 7.32292C291.903 7.21092 292.323 7.12692 292.631 7.12692C293.303 7.12692 293.639 7.54692 293.639 8.41492V14.5469C293.639 15.7509 294.759 15.7229 294.759 16.9549C294.759 17.5989 294.367 17.9069 293.555 17.9069Z" fill="#F6631C"/>
<path d="M295.871 16.9829V5.30692C295.871 4.15892 294.471 4.13092 294.471 3.01092C294.471 2.45092 294.807 2.17092 295.675 1.94692L297.299 1.55492C297.719 1.44292 298.167 1.38692 298.447 1.38692C299.175 1.38692 299.511 1.77892 299.511 2.64692V7.79892C300.183 7.35092 300.911 7.12692 301.723 7.12692C304.243 7.12692 305.811 9.22692 305.811 12.5309C305.811 15.9469 304.131 18.0469 301.387 18.0469C300.099 18.0469 299.343 17.5709 298.475 17.5709C297.579 17.5709 297.159 18.0469 296.599 18.0469C296.123 18.0469 295.871 17.6829 295.871 16.9829ZM299.511 9.45092V14.4349C299.511 15.6669 299.903 16.3949 300.603 16.3949C301.583 16.3949 302.171 14.9949 302.171 12.6429C302.171 9.70292 301.247 8.55492 299.511 9.45092Z" fill="#F6631C"/>
<path d="M311.567 18.0469C308.823 18.0469 306.779 16.1709 306.779 12.8949C306.779 9.47892 309.019 7.12692 312.239 7.12692C314.563 7.12692 315.767 8.35892 315.767 9.98292C315.767 11.8029 314.255 12.9229 312.043 12.9229C311.427 12.9229 310.783 12.8669 310.111 12.6709C310.419 14.0149 311.231 15.1629 312.715 15.1629C314.423 15.1629 315.039 13.6509 315.571 13.6509C315.823 13.6509 315.963 13.9589 315.963 14.4629C315.963 16.3109 314.199 18.0469 311.567 18.0469ZM309.971 11.2149C311.791 11.0469 312.547 10.2349 312.547 9.56292C312.547 9.08692 312.183 8.72292 311.595 8.72292C310.587 8.72292 310.027 9.81492 309.971 11.2149Z" fill="#F6631C"/>
<path d="M327.359 17.9069H323.327C322.515 17.9069 322.123 17.5989 322.123 16.9549C322.123 15.7229 323.523 15.7509 323.523 14.5469V8.80692H322.879C322.375 8.80692 322.123 8.52692 322.123 8.02292C322.123 7.51892 322.375 7.26692 322.879 7.26692H323.523C323.075 6.39892 322.879 5.67092 322.879 4.88692C322.879 2.75892 324.363 1.38692 326.715 1.38692C328.619 1.38692 329.963 2.31092 329.963 3.76692C329.963 4.77492 329.319 5.53092 328.255 5.53092C326.351 5.53092 326.659 3.03892 325.819 3.03892C325.483 3.03892 325.231 3.45892 325.231 4.13092C325.231 5.13892 325.819 6.23092 327.163 7.26692H328.199C328.703 7.26692 328.955 7.51892 328.955 8.02292C328.955 8.52692 328.703 8.80692 328.199 8.80692H327.163V14.5469C327.163 15.7509 328.563 15.7229 328.563 16.9549C328.563 17.5989 328.171 17.9069 327.359 17.9069Z" fill="#F6631C"/>
<path d="M328.983 12.5869C328.983 9.05892 331.223 7.12692 334.359 7.12692C337.495 7.12692 339.735 9.05892 339.735 12.5869C339.735 16.1149 337.495 18.0469 334.359 18.0469C331.223 18.0469 328.983 16.1149 328.983 12.5869ZM336.179 13.5389C336.179 11.3269 335.339 8.69492 333.911 8.69492C332.987 8.69492 332.567 10.0109 332.567 11.5509C332.567 13.7909 333.407 16.4789 334.835 16.4789C335.759 16.4789 336.179 15.1349 336.179 13.5389Z" fill="#F6631C"/>
<path d="M345.405 17.9069H341.373C340.561 17.9069 340.169 17.5989 340.169 16.9549C340.169 15.7229 341.569 15.7509 341.569 14.5469V11.0749C341.569 9.92692 340.169 9.89892 340.169 8.77892C340.169 8.21892 340.505 7.93892 341.373 7.71492L342.997 7.32292C343.585 7.18292 343.949 7.12692 344.201 7.12692C344.873 7.12692 345.209 7.54692 345.209 8.41492V8.94692C346.049 7.82692 347.113 7.12692 348.177 7.12692C349.437 7.12692 350.333 8.07892 350.333 9.47892C350.333 10.7949 349.549 11.8029 348.457 11.8029C347.029 11.8029 347.141 10.0109 346.525 10.0109C345.881 10.0109 345.209 11.8589 345.209 13.8749V14.5469C345.209 15.7509 346.609 15.7229 346.609 16.9549C346.609 17.5989 346.217 17.9069 345.405 17.9069Z" fill="#F6631C"/>
<path d="M363.358 7.71492L364.982 7.32292C365.458 7.21092 365.878 7.12692 366.186 7.12692C366.858 7.12692 367.194 7.54692 367.194 8.41492V14.5469C367.194 15.6949 368.594 15.1629 368.594 16.0309C368.594 16.8429 367.362 18.0469 365.934 18.0469C365.038 18.0469 364.198 17.5989 363.778 16.5909L363.722 16.4229C361.118 18.9709 357.45 18.6629 357.45 14.4909V11.0749C357.45 9.92692 356.05 9.89892 356.05 8.77892C356.05 8.21892 356.386 7.93892 357.254 7.71492L358.878 7.32292C359.354 7.21092 359.774 7.12692 360.082 7.12692C360.754 7.12692 361.09 7.54692 361.09 8.41492V14.3789C361.09 15.9189 362.49 15.8909 363.554 14.6589V11.0749C363.554 9.92692 362.154 9.89892 362.154 8.77892C362.154 8.21892 362.49 7.93892 363.358 7.71492Z" fill="#F6631C"/>
<path d="M369.563 20.4269V11.0469C369.563 9.89892 368.163 9.87092 368.163 8.75092C368.163 8.19092 368.499 7.91092 369.367 7.68692L370.991 7.29492C371.439 7.18292 371.887 7.12692 372.167 7.12692C372.671 7.12692 372.979 7.32292 373.119 7.77092C373.847 7.35092 374.631 7.12692 375.415 7.12692C377.907 7.12692 379.503 9.19892 379.503 12.5309C379.503 16.0309 377.767 18.0469 374.939 18.0469C374.267 18.0469 373.707 17.9349 373.203 17.7669V20.4269C373.203 21.6309 374.603 21.6029 374.603 22.8349C374.603 23.4789 374.211 23.7869 373.399 23.7869H369.367C368.555 23.7869 368.163 23.4789 368.163 22.8349C368.163 21.6029 369.563 21.6309 369.563 20.4269ZM373.203 9.33892V14.4349C373.203 15.8349 373.707 16.3949 374.323 16.3949C375.247 16.3949 375.863 15.0789 375.863 12.6709C375.863 9.98292 375.107 8.47092 373.203 9.33892Z" fill="#F6631C"/>
<path d="M386.575 1.94692L388.199 1.55492C388.619 1.44292 389.067 1.38692 389.347 1.38692C390.075 1.38692 390.411 1.77892 390.411 2.64692V14.5469C390.411 15.6949 391.811 15.1629 391.811 16.0309C391.811 16.8429 390.579 18.0469 389.151 18.0469C388.255 18.0469 387.359 17.5709 386.967 16.5069C386.267 17.3749 385.287 18.0469 384.111 18.0469C381.871 18.0469 380.471 15.6669 380.471 12.5589C380.471 9.19892 382.067 7.12692 384.615 7.12692C385.427 7.12692 386.099 7.35092 386.771 7.79892V5.30692C386.771 4.15892 385.371 4.13092 385.371 3.01092C385.371 2.45092 385.707 2.17092 386.575 1.94692ZM386.771 9.45092C385.035 8.55492 384.111 9.67492 384.111 12.1949C384.111 16.4229 386.771 16.5909 386.771 13.4269V9.45092Z" fill="#F6631C"/>
<path d="M398.046 9.59092C398.046 8.97492 397.71 8.69492 397.234 8.69492C396.03 8.69492 396.702 11.1869 394.798 11.1869C393.846 11.1869 393.23 10.5429 393.23 9.61892C393.23 8.07892 394.938 7.12692 397.262 7.12692C400.006 7.12692 401.686 8.47092 401.686 11.2429V14.5469C401.686 15.6949 403.086 15.1629 403.086 16.0309C403.086 16.8429 401.854 18.0469 400.426 18.0469C399.418 18.0469 398.438 17.4589 398.13 16.1429C397.486 17.3749 396.338 18.0469 395.134 18.0469C393.65 18.0469 392.642 16.9829 392.642 15.2749C392.642 11.3549 398.046 12.5029 398.046 9.59092ZM398.046 12.5309C397.094 13.1749 396.058 13.4829 396.058 14.4909C396.058 15.8909 398.046 15.6389 398.046 13.0629V12.5309Z" fill="#F6631C"/>
<path d="M403.906 14.7989V8.80692H403.29C402.786 8.80692 402.534 8.52692 402.534 8.02292C402.534 7.54692 402.73 7.23892 403.262 7.01492C404.578 6.42692 405.754 5.36292 406.51 4.01892C406.65 3.76692 406.846 3.65492 407.126 3.65492C407.406 3.65492 407.546 3.79492 407.546 4.07492V7.26692H408.162C408.666 7.26692 408.946 7.51892 408.946 8.02292C408.946 8.52692 408.666 8.80692 408.162 8.80692H407.546V14.5469C407.546 15.7509 408.946 15.7229 408.946 16.9549C408.946 17.5989 408.554 17.9069 407.742 17.9069H406.874C404.998 17.9069 403.906 16.7589 403.906 14.7989Z" fill="#F6631C"/>
<path d="M414.161 18.0469C411.417 18.0469 409.373 16.1709 409.373 12.8949C409.373 9.47892 411.613 7.12692 414.833 7.12692C417.157 7.12692 418.361 8.35892 418.361 9.98292C418.361 11.8029 416.849 12.9229 414.637 12.9229C414.021 12.9229 413.377 12.8669 412.705 12.6709C413.013 14.0149 413.825 15.1629 415.309 15.1629C417.017 15.1629 417.633 13.6509 418.165 13.6509C418.417 13.6509 418.557 13.9589 418.557 14.4629C418.557 16.3109 416.793 18.0469 414.161 18.0469ZM412.565 11.2149C414.385 11.0469 415.141 10.2349 415.141 9.56292C415.141 9.08692 414.777 8.72292 414.189 8.72292C413.181 8.72292 412.621 9.81492 412.565 11.2149Z" fill="#F6631C"/>
<path d="M420.584 14.3229C422.012 14.3229 422.264 16.4789 423.776 16.4789C424.336 16.4789 424.7 16.1989 424.7 15.7789C424.7 14.1269 419.408 13.7909 419.408 10.2909C419.408 8.35892 421.032 7.12692 423.552 7.12692C425.82 7.12692 427.612 8.13492 427.612 9.45092C427.612 10.2069 427.052 10.8229 426.296 10.8229C424.896 10.8229 424.644 8.69492 423.244 8.69492C422.796 8.69492 422.488 8.91892 422.488 9.28292C422.488 10.8229 427.864 11.2429 427.864 14.7989C427.864 16.8149 426.156 18.0469 423.356 18.0469C420.92 18.0469 419.268 17.1229 419.268 15.7509C419.268 14.9669 419.8 14.3229 420.584 14.3229Z" fill="#F6631C"/>
<path d="M428.708 16.0869C428.708 14.9109 429.492 14.1269 430.668 14.1269C431.844 14.1269 432.629 14.9109 432.629 16.0869C432.629 17.2629 431.844 18.0469 430.668 18.0469C429.492 18.0469 428.708 17.2629 428.708 16.0869Z" fill="#F6631C"/>
</g>
<defs>
<filter id="filter0_d_17862_129070" x="0.395996" y="0.74292" width="435.911" height="27.0022" filterUnits="userSpaceOnUse" color-interpolation-filters="sRGB">
<feFlood flood-opacity="0" result="BackgroundImageFix"/>
<feColorMatrix in="SourceAlpha" type="matrix" values="0 0 0 0 0 0 0 0 0 0 0 0 0 0 0 0 0 0 127 0" result="hardAlpha"/>
<feOffset dx="3.67824" dy="3.67824"/>
<feComposite in2="hardAlpha" operator="out"/>
<feColorMatrix type="matrix" values="0 0 0 0 0.898039 0 0 0 0 0.847059 0 0 0 0 0.709804 0 0 0 0.5 0"/>
<feBlend mode="normal" in2="BackgroundImageFix" result="effect1_dropShadow_17862_129070"/>
<feBlend mode="normal" in="SourceGraphic" in2="effect1_dropShadow_17862_129070" result="shape"/>
</filter>
</defs>
</svg>
