<svg width="619" height="90" viewBox="0 0 619 90" fill="none" xmlns="http://www.w3.org/2000/svg">
<g filter="url(#filter0_d_17862_129071)">
<path d="M40.9615 23.4349V7.59494C40.9615 5.53094 38.5615 5.57894 38.5615 3.46694C38.5615 2.21894 39.4255 1.83494 40.6255 1.83494H45.9535C46.7695 1.83494 47.2495 2.21894 47.5375 2.98694L53.2495 19.3069C53.4415 19.8829 53.8255 19.8829 54.0175 19.3069L59.7775 2.98694C60.0655 2.21894 60.5455 1.83494 61.3615 1.83494H66.4495C67.6495 1.83494 68.5135 2.21894 68.5135 3.46694C68.5135 5.57894 66.1135 5.53094 66.1135 7.59494V23.4349C66.1135 25.4989 68.5135 25.4509 68.5135 27.5629C68.5135 28.8109 67.6495 29.1949 66.4495 29.1949H59.5375C58.3375 29.1949 57.4735 28.8109 57.4735 27.5629C57.4735 25.4509 59.8735 25.4989 59.8735 23.4349V12.1549C59.8735 11.8189 59.5375 11.8189 59.4415 12.0589L53.7295 28.0429C53.4415 28.8109 52.9615 29.1949 52.1455 29.1949H51.2815C50.4655 29.1949 49.9855 28.8109 49.6975 28.0429L44.0335 12.0589C43.9375 11.7709 43.6015 11.8189 43.6015 12.1549V23.4349C43.6015 25.4989 46.0015 25.4509 46.0015 27.5629C46.0015 28.8109 45.1375 29.1949 43.9375 29.1949H40.6255C39.4255 29.1949 38.5615 28.8109 38.5615 27.5629C38.5615 25.4509 40.9615 25.4989 40.9615 23.4349Z" fill="#F6631C"/>
<path d="M78.763 14.9389C78.763 13.8829 78.187 13.4029 77.371 13.4029C75.307 13.4029 76.459 17.6749 73.195 17.6749C71.563 17.6749 70.507 16.5709 70.507 14.9869C70.507 12.3469 73.435 10.7149 77.419 10.7149C82.123 10.7149 85.003 13.0189 85.003 17.7709V23.4349C85.003 25.4029 87.403 24.4909 87.403 25.9789C87.403 27.3709 85.291 29.4349 82.843 29.4349C81.115 29.4349 79.435 28.4269 78.907 26.1709C77.803 28.2829 75.835 29.4349 73.771 29.4349C71.227 29.4349 69.499 27.6109 69.499 24.6829C69.499 17.9629 78.763 19.9309 78.763 14.9389ZM78.763 19.9789C77.131 21.0829 75.355 21.6109 75.355 23.3389C75.355 25.7389 78.763 25.3069 78.763 20.8909V19.9789Z" fill="#F6631C"/>
<path d="M97.5944 24.8269L96.9224 23.7709L96.0584 24.8749C95.0504 26.1709 96.2984 26.6509 96.2984 27.9469C96.2984 28.7629 95.6744 29.1469 94.2824 29.1469H90.3944C89.0024 29.1469 88.3784 28.7629 88.3784 27.8509C88.3784 25.9309 91.3064 26.6989 94.2344 23.0029L95.4344 21.4669L92.6024 17.1469C90.2504 13.4989 88.3784 14.4109 88.3784 12.4429C88.3784 11.3869 89.0024 10.9549 90.3944 10.9549H97.1624C98.5544 10.9549 99.1784 11.3389 99.1784 12.2029C99.1784 13.4509 97.7864 13.7869 98.7464 15.2749L99.4664 16.3789L100.282 15.3229C101.434 13.8829 100.042 13.4989 100.042 12.2509C100.042 11.3869 100.714 11.0029 102.058 11.0029H105.946C107.338 11.0029 107.962 11.3869 107.962 12.2989C107.962 14.2189 105.034 13.4509 102.106 17.1469L100.906 18.6349L103.738 23.0029C106.138 26.6989 107.962 25.7389 107.962 27.7069C107.962 28.7629 107.338 29.1949 105.946 29.1949H99.1784C97.7864 29.1949 97.1624 28.8109 97.1624 27.9469C97.1624 26.6989 98.5544 26.3149 97.5944 24.8269Z" fill="#F6631C"/>
<path d="M120.985 22.3789L125.545 7.40294C126.217 5.14694 124.729 5.09894 124.729 3.46694C124.729 2.60294 125.113 1.83494 126.313 1.83494H131.545C132.361 1.83494 132.889 2.21894 133.129 2.98694L139.369 22.3789C140.665 26.3629 142.585 25.5949 142.585 27.6109C142.585 28.8109 141.865 29.1949 140.569 29.1949H133.465C132.217 29.1949 131.545 28.8589 131.449 27.8509V27.6589C131.449 25.5949 133.897 25.7869 133.177 23.6269L132.937 22.9069C132.697 22.1389 132.217 21.7549 131.401 21.7549H125.161C124.345 21.7549 123.865 22.1389 123.625 22.9069L123.385 23.6269C122.665 25.8349 125.113 25.5949 125.113 27.6589C125.113 28.8109 124.393 29.1949 123.097 29.1949H119.785C118.489 29.1949 117.769 28.8109 117.769 27.6109C117.769 25.5949 119.737 26.5069 120.985 22.3789ZM125.977 19.1149H130.585C131.401 19.1149 131.689 18.7309 131.449 17.9629L128.665 9.27494C128.473 8.65094 127.897 8.65094 127.705 9.27494L125.113 17.9629C124.873 18.7309 125.161 19.1149 125.977 19.1149Z" fill="#F6631C"/>
<path d="M153.006 29.1949H146.094C144.894 29.1949 144.03 28.8109 144.03 27.5629C144.03 25.4509 146.43 25.4989 146.43 23.4349V7.59494C146.43 5.53094 144.03 5.57894 144.03 3.46694C144.03 2.21894 144.894 1.83494 146.094 1.83494H153.006C154.206 1.83494 155.07 2.21894 155.07 3.46694C155.07 5.57894 152.67 5.53094 152.67 7.59494V23.4349C152.67 25.4989 155.07 25.4509 155.07 27.5629C155.07 28.8109 154.206 29.1949 153.006 29.1949Z" fill="#F6631C"/>
<path d="M176.579 29.1949H173.459C172.643 29.1949 172.115 28.8109 171.875 28.0429L168.563 17.7229C167.267 13.7389 165.347 14.5069 165.347 12.4909C165.347 11.2909 166.067 10.9069 167.363 10.9069H174.227C175.523 10.9069 176.243 11.2909 176.243 12.4909C176.243 14.5069 174.083 14.3149 174.755 16.4749L176.339 21.7069C176.531 22.3309 177.107 22.3309 177.299 21.7069L180.179 11.7229C180.371 11.0509 180.851 10.7149 181.523 10.7149C182.195 10.7149 182.627 11.0509 182.819 11.7229L185.795 21.7069C185.987 22.3309 186.563 22.3309 186.755 21.7069L188.291 16.5229C188.963 14.3149 186.803 14.5549 186.803 12.5389C186.803 11.3389 187.523 10.9549 188.819 10.9549H191.891C193.187 10.9549 193.907 11.3389 193.907 12.5389C193.907 14.5549 191.939 13.6429 190.691 17.7709L187.571 28.0429C187.331 28.8109 186.851 29.1949 186.035 29.1949H182.915C182.099 29.1949 181.571 28.8109 181.331 28.0429L180.035 24.0589C179.891 23.5789 179.459 23.5789 179.315 24.0589L178.115 28.0429C177.875 28.8109 177.395 29.1949 176.579 29.1949Z" fill="#F6631C"/>
<path d="M196.954 6.15494C196.954 4.13894 198.346 2.74694 200.41 2.74694C202.426 2.74694 203.818 4.13894 203.818 6.15494C203.818 8.21894 202.426 9.61094 200.41 9.61094C198.346 9.61094 196.954 8.21894 196.954 6.15494ZM203.386 29.1949H196.954C195.562 29.1949 194.89 28.6669 194.89 27.5629C194.89 25.4509 197.29 25.4989 197.29 23.4349V17.4829C197.29 15.5149 194.89 15.4669 194.89 13.5469C194.89 12.5869 195.466 12.1069 196.954 11.7229L199.738 11.0509C200.554 10.8589 201.274 10.7149 201.802 10.7149C202.954 10.7149 203.53 11.4349 203.53 12.9229V23.4349C203.53 25.4989 205.45 25.4509 205.45 27.5629C205.45 28.6669 204.778 29.1949 203.386 29.1949Z" fill="#F6631C"/>
<path d="M215.866 29.1949H208.954C207.562 29.1949 206.89 28.6669 206.89 27.5629C206.89 25.4509 209.29 25.4989 209.29 23.4349V7.59494C209.29 5.62694 206.89 5.57894 206.89 3.65894C206.89 2.69894 207.466 2.21894 208.954 1.83494L211.738 1.16294C212.506 0.970941 213.274 0.874939 213.754 0.874939C214.954 0.874939 215.53 1.54694 215.53 3.03494V23.4349C215.53 25.4989 217.93 25.4509 217.93 27.5629C217.93 28.6669 217.258 29.1949 215.866 29.1949Z" fill="#F6631C"/>
<path d="M228.334 29.1949H221.422C220.03 29.1949 219.358 28.6669 219.358 27.5629C219.358 25.4509 221.758 25.4989 221.758 23.4349V7.59494C221.758 5.62694 219.358 5.57894 219.358 3.65894C219.358 2.69894 219.934 2.21894 221.422 1.83494L224.206 1.16294C224.974 0.970941 225.742 0.874939 226.222 0.874939C227.422 0.874939 227.998 1.54694 227.998 3.03494V23.4349C227.998 25.4989 230.398 25.4509 230.398 27.5629C230.398 28.6669 229.726 29.1949 228.334 29.1949Z" fill="#F6631C"/>
<path d="M242.463 23.0509C244.911 23.0509 245.343 26.7469 247.935 26.7469C248.895 26.7469 249.519 26.2669 249.519 25.5469C249.519 22.7149 240.447 22.1389 240.447 16.1389C240.447 12.8269 243.231 10.7149 247.551 10.7149C251.439 10.7149 254.511 12.4429 254.511 14.6989C254.511 15.9949 253.551 17.0509 252.255 17.0509C249.855 17.0509 249.423 13.4029 247.023 13.4029C246.255 13.4029 245.727 13.7869 245.727 14.4109C245.727 17.0509 254.943 17.7709 254.943 23.8669C254.943 27.3229 252.015 29.4349 247.215 29.4349C243.039 29.4349 240.207 27.8509 240.207 25.4989C240.207 24.1549 241.119 23.0509 242.463 23.0509Z" fill="#800C00"/>
<path d="M264.332 30.1549L264.668 29.1949H263.084C262.268 29.1949 261.74 28.8109 261.5 28.0429L258.188 17.7229C256.892 13.7389 254.972 14.5069 254.972 12.4909C254.972 11.2909 255.692 10.9069 256.988 10.9069H263.852C265.148 10.9069 265.868 11.2909 265.868 12.4429C265.868 14.5069 263.708 14.3149 264.38 16.4749L265.964 21.7069C266.156 22.3309 266.732 22.3309 266.924 21.7069L268.46 16.5229C269.132 14.3149 266.972 14.5549 266.972 12.4909C266.972 11.3389 267.692 10.9549 268.988 10.9549H272.06C273.356 10.9549 274.076 11.3389 274.076 12.5389C274.076 14.5549 272.108 13.6429 270.86 17.7709L267.74 28.0429L265.868 33.9949C263.852 40.3309 256.604 38.5549 256.604 34.8589C256.604 31.3549 262.94 34.2829 264.332 30.1549Z" fill="#800C00"/>
<path d="M283.542 29.1949H277.11C275.718 29.1949 275.046 28.6669 275.046 27.5629C275.046 25.4509 277.446 25.4989 277.446 23.4349V17.4829C277.446 15.5149 275.046 15.4669 275.046 13.5469C275.046 12.5869 275.622 12.1069 277.11 11.7229L279.894 11.0509C280.71 10.8589 281.43 10.7149 281.958 10.7149C283.11 10.7149 283.686 11.4349 283.686 12.9229V13.1629C288.15 9.17894 294.87 9.89894 294.87 16.8109V23.4349C294.87 25.4989 297.27 25.4509 297.27 27.5629C297.27 28.6669 296.598 29.1949 295.206 29.1949H288.774C287.382 29.1949 286.71 28.6669 286.71 27.5629C286.71 25.4509 288.63 25.4989 288.63 23.4349V17.0029C288.63 14.6989 285.606 14.4589 283.686 16.5709V23.4349C283.686 25.4989 285.606 25.4509 285.606 27.5629C285.606 28.6669 284.934 29.1949 283.542 29.1949Z" fill="#800C00"/>
<path d="M297.54 20.6029C297.54 14.7469 301.428 10.7149 306.804 10.7149C310.356 10.7149 313.044 12.4429 313.044 15.1309C313.044 17.0509 311.652 18.4909 309.732 18.4909C307.908 18.4909 306.66 17.2429 306.66 15.0349C306.66 13.9789 306.372 13.4509 305.748 13.4509C304.452 13.4509 303.444 15.9469 303.444 18.7309C303.444 21.7069 304.596 24.7789 307.716 24.7789C310.692 24.7789 311.604 21.8989 312.66 21.8989C313.044 21.8989 313.332 22.2349 313.332 23.2909C313.332 26.6989 310.164 29.4349 305.796 29.4349C300.9 29.4349 297.54 26.0269 297.54 20.6029Z" fill="#800C00"/>
<path d="M334.642 29.1949H331.522C330.706 29.1949 330.178 28.8109 329.938 28.0429L326.626 17.7229C325.33 13.7389 323.41 14.5069 323.41 12.4909C323.41 11.2909 324.13 10.9069 325.426 10.9069H332.29C333.586 10.9069 334.306 11.2909 334.306 12.4909C334.306 14.5069 332.146 14.3149 332.818 16.4749L334.402 21.7069C334.594 22.3309 335.17 22.3309 335.362 21.7069L338.242 11.7229C338.434 11.0509 338.914 10.7149 339.586 10.7149C340.258 10.7149 340.69 11.0509 340.882 11.7229L343.858 21.7069C344.05 22.3309 344.626 22.3309 344.818 21.7069L346.354 16.5229C347.026 14.3149 344.866 14.5549 344.866 12.5389C344.866 11.3389 345.586 10.9549 346.882 10.9549H349.954C351.25 10.9549 351.97 11.3389 351.97 12.5389C351.97 14.5549 350.002 13.6429 348.754 17.7709L345.634 28.0429C345.394 28.8109 344.914 29.1949 344.098 29.1949H340.978C340.162 29.1949 339.634 28.8109 339.394 28.0429L338.098 24.0589C337.954 23.5789 337.522 23.5789 337.378 24.0589L336.178 28.0429C335.938 28.8109 335.458 29.1949 334.642 29.1949Z" fill="#800C00"/>
<path d="M355.016 6.15494C355.016 4.13894 356.408 2.74694 358.472 2.74694C360.488 2.74694 361.88 4.13894 361.88 6.15494C361.88 8.21894 360.488 9.61094 358.472 9.61094C356.408 9.61094 355.016 8.21894 355.016 6.15494ZM361.448 29.1949H355.016C353.624 29.1949 352.952 28.6669 352.952 27.5629C352.952 25.4509 355.352 25.4989 355.352 23.4349V17.4829C355.352 15.5149 352.952 15.4669 352.952 13.5469C352.952 12.5869 353.528 12.1069 355.016 11.7229L357.8 11.0509C358.616 10.8589 359.336 10.7149 359.864 10.7149C361.016 10.7149 361.592 11.4349 361.592 12.9229V23.4349C361.592 25.4989 363.512 25.4509 363.512 27.5629C363.512 28.6669 362.84 29.1949 361.448 29.1949Z" fill="#800C00"/>
<path d="M365.371 23.8669V13.5949H364.315C363.451 13.5949 363.019 13.1149 363.019 12.2509C363.019 11.4349 363.355 10.9069 364.267 10.5229C366.523 9.51494 368.539 7.69094 369.835 5.38694C370.075 4.95494 370.411 4.76294 370.891 4.76294C371.371 4.76294 371.611 5.00294 371.611 5.48294V10.9549H372.667C373.531 10.9549 374.011 11.3869 374.011 12.2509C374.011 13.1149 373.531 13.5949 372.667 13.5949H371.611V23.4349C371.611 25.4989 374.011 25.4509 374.011 27.5629C374.011 28.6669 373.339 29.1949 371.947 29.1949H370.459C367.243 29.1949 365.371 27.2269 365.371 23.8669Z" fill="#800C00"/>
<path d="M383.948 29.1949H377.516C376.124 29.1949 375.452 28.6669 375.452 27.5629C375.452 25.4509 377.852 25.4989 377.852 23.4349V7.64294C377.852 5.67494 375.452 5.62694 375.452 3.70694C375.452 2.74694 376.028 2.26694 377.516 1.88294L380.3 1.21094C381.116 1.01894 381.836 0.874939 382.364 0.874939C383.516 0.874939 384.092 1.59494 384.092 3.08294V13.1629C388.556 9.17894 395.276 9.89894 395.276 16.8109V23.4349C395.276 25.4989 397.676 25.4509 397.676 27.5629C397.676 28.6669 397.004 29.1949 395.612 29.1949H389.18C387.788 29.1949 387.116 28.6669 387.116 27.5629C387.116 25.4509 389.036 25.4989 389.036 23.4349V17.0029C389.036 14.6989 386.012 14.4589 384.092 16.5709V23.4349C384.092 25.4989 386.012 25.4509 386.012 27.5629C386.012 28.6669 385.34 29.1949 383.948 29.1949Z" fill="#800C00"/>
<path d="M416.863 30.1549L417.199 29.1949H415.615C414.799 29.1949 414.271 28.8109 414.031 28.0429L410.719 17.7229C409.423 13.7389 407.503 14.5069 407.503 12.4909C407.503 11.2909 408.223 10.9069 409.519 10.9069H416.383C417.679 10.9069 418.399 11.2909 418.399 12.4429C418.399 14.5069 416.239 14.3149 416.911 16.4749L418.495 21.7069C418.687 22.3309 419.263 22.3309 419.455 21.7069L420.991 16.5229C421.663 14.3149 419.503 14.5549 419.503 12.4909C419.503 11.3389 420.223 10.9549 421.519 10.9549H424.591C425.887 10.9549 426.607 11.3389 426.607 12.5389C426.607 14.5549 424.639 13.6429 423.391 17.7709L420.271 28.0429L418.399 33.9949C416.383 40.3309 409.135 38.5549 409.135 34.8589C409.135 31.3549 415.471 34.2829 416.863 30.1549Z" fill="#800C00"/>
<path d="M426.353 20.0749C426.353 14.0269 430.193 10.7149 435.569 10.7149C440.945 10.7149 444.785 14.0269 444.785 20.0749C444.785 26.1229 440.945 29.4349 435.569 29.4349C430.193 29.4349 426.353 26.1229 426.353 20.0749ZM438.689 21.7069C438.689 17.9149 437.249 13.4029 434.801 13.4029C433.217 13.4029 432.497 15.6589 432.497 18.2989C432.497 22.1389 433.937 26.7469 436.385 26.7469C437.969 26.7469 438.689 24.4429 438.689 21.7069Z" fill="#800C00"/>
<path d="M457.578 11.7229L460.362 11.0509C461.178 10.8589 461.898 10.7149 462.426 10.7149C463.578 10.7149 464.154 11.4349 464.154 12.9229V23.4349C464.154 25.4029 466.554 24.4909 466.554 25.9789C466.554 27.3709 464.442 29.4349 461.994 29.4349C460.458 29.4349 459.018 28.6669 458.298 26.9389L458.202 26.6509C453.738 31.0189 447.45 30.4909 447.45 23.3389V17.4829C447.45 15.5149 445.05 15.4669 445.05 13.5469C445.05 12.5869 445.626 12.1069 447.114 11.7229L449.898 11.0509C450.714 10.8589 451.434 10.7149 451.962 10.7149C453.114 10.7149 453.69 11.4349 453.69 12.9229V23.1469C453.69 25.7869 456.09 25.7389 457.914 23.6269V17.4829C457.914 15.5149 455.514 15.4669 455.514 13.5469C455.514 12.5869 456.09 12.1069 457.578 11.7229Z" fill="#800C00"/>
<path d="M476.725 29.1949H469.813C468.421 29.1949 467.749 28.6669 467.749 27.5629C467.749 25.4509 470.149 25.4989 470.149 23.4349V17.4829C470.149 15.5149 467.749 15.4669 467.749 13.5469C467.749 12.5869 468.325 12.1069 469.813 11.7229L472.597 11.0509C473.605 10.8109 474.229 10.7149 474.661 10.7149C475.813 10.7149 476.389 11.4349 476.389 12.9229V13.8349C477.829 11.9149 479.653 10.7149 481.477 10.7149C483.637 10.7149 485.173 12.3469 485.173 14.7469C485.173 17.0029 483.829 18.7309 481.957 18.7309C479.509 18.7309 479.701 15.6589 478.645 15.6589C477.541 15.6589 476.389 18.8269 476.389 22.2829V23.4349C476.389 25.4989 478.789 25.4509 478.789 27.5629C478.789 28.6669 478.117 29.1949 476.725 29.1949Z" fill="#800C00"/>
<path d="M495.212 20.6029C495.212 14.7469 499.1 10.7149 504.476 10.7149C508.028 10.7149 510.716 12.4429 510.716 15.1309C510.716 17.0509 509.324 18.4909 507.404 18.4909C505.58 18.4909 504.332 17.2429 504.332 15.0349C504.332 13.9789 504.044 13.4509 503.42 13.4509C502.124 13.4509 501.116 15.9469 501.116 18.7309C501.116 21.7069 502.268 24.7789 505.388 24.7789C508.364 24.7789 509.276 21.8989 510.332 21.8989C510.716 21.8989 511.004 22.2349 511.004 23.2909C511.004 26.6989 507.836 29.4349 503.468 29.4349C498.572 29.4349 495.212 26.0269 495.212 20.6029Z" fill="#800C00"/>
<path d="M512.462 20.0749C512.462 14.0269 516.302 10.7149 521.678 10.7149C527.054 10.7149 530.894 14.0269 530.894 20.0749C530.894 26.1229 527.054 29.4349 521.678 29.4349C516.302 29.4349 512.462 26.1229 512.462 20.0749ZM524.798 21.7069C524.798 17.9149 523.358 13.4029 520.91 13.4029C519.326 13.4029 518.606 15.6589 518.606 18.2989C518.606 22.1389 520.046 26.7469 522.494 26.7469C524.078 26.7469 524.798 24.4429 524.798 21.7069Z" fill="#800C00"/>
<path d="M543.036 1.83494L545.82 1.16294C546.539 0.970941 547.308 0.874939 547.788 0.874939C549.036 0.874939 549.612 1.54694 549.612 3.03494V23.4349C549.612 25.4029 552.012 24.4909 552.012 25.9789C552.012 27.3709 549.9 29.4349 547.452 29.4349C545.916 29.4349 544.38 28.6189 543.708 26.7949C542.508 28.2829 540.828 29.4349 538.812 29.4349C534.971 29.4349 532.572 25.3549 532.572 20.0269C532.572 14.2669 535.308 10.7149 539.676 10.7149C541.068 10.7149 542.22 11.0989 543.372 11.8669V7.59494C543.372 5.62694 540.971 5.57894 540.971 3.65894C540.971 2.69894 541.548 2.21894 543.036 1.83494ZM543.372 14.6989C540.396 13.1629 538.812 15.0829 538.812 19.4029C538.812 26.6509 543.372 26.9389 543.372 21.5149V14.6989Z" fill="#800C00"/>
<path d="M560.936 29.4349C556.232 29.4349 552.728 26.2189 552.728 20.6029C552.728 14.7469 556.568 10.7149 562.088 10.7149C566.072 10.7149 568.136 12.8269 568.136 15.6109C568.136 18.7309 565.544 20.6509 561.752 20.6509C560.696 20.6509 559.592 20.5549 558.44 20.2189C558.968 22.5229 560.36 24.4909 562.904 24.4909C565.832 24.4909 566.888 21.8989 567.8 21.8989C568.232 21.8989 568.472 22.4269 568.472 23.2909C568.472 26.4589 565.448 29.4349 560.936 29.4349ZM558.2 17.7229C561.32 17.4349 562.616 16.0429 562.616 14.8909C562.616 14.0749 561.992 13.4509 560.984 13.4509C559.256 13.4509 558.296 15.3229 558.2 17.7229Z" fill="#800C00"/>
<path d="M9.85677 62.9389C9.85677 61.8829 9.28077 61.4029 8.46477 61.4029C6.40077 61.4029 7.55277 65.6749 4.28877 65.6749C2.65677 65.6749 1.60077 64.5709 1.60077 62.9869C1.60077 60.3469 4.52877 58.7149 8.51277 58.7149C13.2168 58.7149 16.0968 61.0189 16.0968 65.7709V71.4349C16.0968 73.4029 18.4968 72.4909 18.4968 73.9789C18.4968 75.3709 16.3848 77.4349 13.9368 77.4349C12.2088 77.4349 10.5288 76.4269 10.0008 74.1709C8.89677 76.2829 6.92877 77.4349 4.86477 77.4349C2.32077 77.4349 0.592773 75.6109 0.592773 72.6829C0.592773 65.9629 9.85677 67.9309 9.85677 62.9389ZM9.85677 67.9789C8.22477 69.0829 6.44877 69.6109 6.44877 71.3389C6.44877 73.7389 9.85677 73.3069 9.85677 68.8909V67.9789Z" fill="#F6631C"/>
<path d="M27.9794 77.1949H21.5474C20.1554 77.1949 19.4834 76.6669 19.4834 75.5629C19.4834 73.4509 21.8834 73.4989 21.8834 71.4349V65.4829C21.8834 63.5149 19.4834 63.4669 19.4834 61.5469C19.4834 60.5869 20.0594 60.1069 21.5474 59.7229L24.3314 59.0509C25.1474 58.8589 25.8674 58.7149 26.3954 58.7149C27.5474 58.7149 28.1234 59.4349 28.1234 60.9229V61.1629C32.5874 57.1789 39.3074 57.8989 39.3074 64.8109V71.4349C39.3074 73.4989 41.7074 73.4509 41.7074 75.5629C41.7074 76.6669 41.0354 77.1949 39.6434 77.1949H33.2114C31.8194 77.1949 31.1474 76.6669 31.1474 75.5629C31.1474 73.4509 33.0674 73.4989 33.0674 71.4349V65.0029C33.0674 62.6989 30.0434 62.4589 28.1234 64.5709V71.4349C28.1234 73.4989 30.0434 73.4509 30.0434 75.5629C30.0434 76.6669 29.3714 77.1949 27.9794 77.1949Z" fill="#F6631C"/>
<path d="M52.4418 49.8349L55.2258 49.1629C55.9458 48.9709 56.7138 48.8749 57.1938 48.8749C58.4418 48.8749 59.0178 49.5469 59.0178 51.0349V71.4349C59.0178 73.4029 61.4178 72.4909 61.4178 73.9789C61.4178 75.3709 59.3058 77.4349 56.8578 77.4349C55.3218 77.4349 53.7858 76.6189 53.1138 74.7949C51.9138 76.2829 50.2338 77.4349 48.2178 77.4349C44.3778 77.4349 41.9778 73.3549 41.9778 68.0269C41.9778 62.2669 44.7138 58.7149 49.0818 58.7149C50.4738 58.7149 51.6258 59.0989 52.7778 59.8669V55.5949C52.7778 53.6269 50.3778 53.5789 50.3778 51.6589C50.3778 50.6989 50.9538 50.2189 52.4418 49.8349ZM52.7778 62.6989C49.8018 61.1629 48.2178 63.0829 48.2178 67.4029C48.2178 74.6509 52.7778 74.9389 52.7778 69.5149V62.6989Z" fill="#F6631C"/>
<path d="M73.5742 71.8669V61.5949H72.5182C71.6542 61.5949 71.2221 61.1149 71.2221 60.2509C71.2221 59.4349 71.5581 58.9069 72.4701 58.5229C74.7261 57.5149 76.7421 55.6909 78.0381 53.3869C78.2781 52.9549 78.6141 52.7629 79.0941 52.7629C79.5742 52.7629 79.8141 53.0029 79.8141 53.4829V58.9549H80.8701C81.7341 58.9549 82.2141 59.3869 82.2141 60.2509C82.2141 61.1149 81.7341 61.5949 80.8701 61.5949H79.8141V71.4349C79.8141 73.4989 82.2141 73.4509 82.2141 75.5629C82.2141 76.6669 81.5421 77.1949 80.1501 77.1949H78.6621C75.4461 77.1949 73.5742 75.2269 73.5742 71.8669Z" fill="#800C00"/>
<path d="M92.6313 77.1949H85.7193C84.3273 77.1949 83.6553 76.6669 83.6553 75.5629C83.6553 73.4509 86.0553 73.4989 86.0553 71.4349V65.4829C86.0553 63.5149 83.6553 63.4669 83.6553 61.5469C83.6553 60.5869 84.2313 60.1069 85.7193 59.7229L88.5033 59.0509C89.5113 58.8109 90.1353 58.7149 90.5673 58.7149C91.7193 58.7149 92.2953 59.4349 92.2953 60.9229V61.8349C93.7353 59.9149 95.5593 58.7149 97.3833 58.7149C99.5433 58.7149 101.079 60.3469 101.079 62.7469C101.079 65.0029 99.7353 66.7309 97.8633 66.7309C95.4153 66.7309 95.6073 63.6589 94.5513 63.6589C93.4473 63.6589 92.2953 66.8269 92.2953 70.2829V71.4349C92.2953 73.4989 94.6953 73.4509 94.6953 75.5629C94.6953 76.6669 94.0233 77.1949 92.6313 77.1949Z" fill="#800C00"/>
<path d="M110.31 62.9389C110.31 61.8829 109.734 61.4029 108.918 61.4029C106.854 61.4029 108.006 65.6749 104.742 65.6749C103.11 65.6749 102.054 64.5709 102.054 62.9869C102.054 60.3469 104.982 58.7149 108.966 58.7149C113.67 58.7149 116.55 61.0189 116.55 65.7709V71.4349C116.55 73.4029 118.95 72.4909 118.95 73.9789C118.95 75.3709 116.838 77.4349 114.39 77.4349C112.662 77.4349 110.982 76.4269 110.454 74.1709C109.35 76.2829 107.382 77.4349 105.318 77.4349C102.774 77.4349 101.046 75.6109 101.046 72.6829C101.046 65.9629 110.31 67.9309 110.31 62.9389ZM110.31 67.9789C108.678 69.0829 106.902 69.6109 106.902 71.3389C106.902 73.7389 110.31 73.3069 110.31 68.8909V67.9789Z" fill="#800C00"/>
<path d="M119.697 68.6029C119.697 62.7469 123.585 58.7149 128.961 58.7149C132.513 58.7149 135.201 60.4429 135.201 63.1309C135.201 65.0509 133.809 66.4909 131.889 66.4909C130.065 66.4909 128.817 65.2429 128.817 63.0349C128.817 61.9789 128.529 61.4509 127.905 61.4509C126.609 61.4509 125.601 63.9469 125.601 66.7309C125.601 69.7069 126.753 72.7789 129.873 72.7789C132.849 72.7789 133.761 69.8989 134.817 69.8989C135.201 69.8989 135.489 70.2349 135.489 71.2909C135.489 74.6989 132.321 77.4349 127.953 77.4349C123.057 77.4349 119.697 74.0269 119.697 68.6029Z" fill="#800C00"/>
<path d="M145.225 77.1949H138.313C136.921 77.1949 136.249 76.6669 136.249 75.5629C136.249 73.4509 138.649 73.4989 138.649 71.4349V55.5949C138.649 53.6269 136.249 53.5789 136.249 51.6589C136.249 50.6989 136.825 50.2189 138.313 49.8349L141.097 49.1629C141.865 48.9709 142.633 48.8749 143.113 48.8749C144.313 48.8749 144.889 49.5469 144.889 51.0349V66.7789L147.337 64.8589C150.169 62.6989 146.857 62.6509 146.857 60.4429C146.857 59.4349 147.577 58.9549 148.921 58.9549H155.737C157.081 58.9549 157.801 59.4349 157.801 60.4429C157.801 61.3549 157.177 61.8349 155.833 62.0269C153.577 62.3149 152.665 63.5629 150.889 65.6269L153.865 70.9069C155.545 73.8349 157.849 73.8349 157.849 75.7069C157.849 76.7149 157.225 77.1949 155.977 77.1949H153.145C151.081 77.1949 149.881 76.5709 148.825 74.6509L144.889 67.5949V71.4349C144.889 73.4989 147.289 73.4509 147.289 75.5629C147.289 76.6669 146.617 77.1949 145.225 77.1949Z" fill="#800C00"/>
<path d="M176.667 77.1949H170.235C168.843 77.1949 168.171 76.6669 168.171 75.5629C168.171 73.4509 170.571 73.4989 170.571 71.4349V65.4829C170.571 63.5149 168.171 63.4669 168.171 61.5469C168.171 60.5869 168.747 60.1069 170.235 59.7229L173.019 59.0509C173.835 58.8589 174.555 58.7149 175.083 58.7149C176.235 58.7149 176.811 59.4349 176.811 60.9229V61.1629C181.275 57.1789 187.995 57.8989 187.995 64.8109V71.4349C187.995 73.4989 190.395 73.4509 190.395 75.5629C190.395 76.6669 189.723 77.1949 188.331 77.1949H181.899C180.507 77.1949 179.835 76.6669 179.835 75.5629C179.835 73.4509 181.755 73.4989 181.755 71.4349V65.0029C181.755 62.6989 178.731 62.4589 176.811 64.5709V71.4349C176.811 73.4989 178.731 73.4509 178.731 75.5629C178.731 76.6669 178.059 77.1949 176.667 77.1949Z" fill="#800C00"/>
<path d="M198.873 77.4349C194.169 77.4349 190.665 74.2189 190.665 68.6029C190.665 62.7469 194.505 58.7149 200.025 58.7149C204.009 58.7149 206.073 60.8269 206.073 63.6109C206.073 66.7309 203.481 68.6509 199.689 68.6509C198.633 68.6509 197.529 68.5549 196.377 68.2189C196.905 70.5229 198.297 72.4909 200.841 72.4909C203.769 72.4909 204.825 69.8989 205.737 69.8989C206.169 69.8989 206.409 70.4269 206.409 71.2909C206.409 74.4589 203.385 77.4349 198.873 77.4349ZM196.137 65.7229C199.257 65.4349 200.553 64.0429 200.553 62.8909C200.553 62.0749 199.929 61.4509 198.921 61.4509C197.193 61.4509 196.233 63.3229 196.137 65.7229Z" fill="#800C00"/>
<path d="M218.392 77.1949H215.272C214.456 77.1949 213.928 76.8109 213.688 76.0429L210.376 65.7229C209.08 61.7389 207.16 62.5069 207.16 60.4909C207.16 59.2909 207.88 58.9069 209.176 58.9069H216.04C217.336 58.9069 218.056 59.2909 218.056 60.4909C218.056 62.5069 215.896 62.3149 216.568 64.4749L218.152 69.7069C218.344 70.3309 218.92 70.3309 219.112 69.7069L221.992 59.7229C222.184 59.0509 222.664 58.7149 223.336 58.7149C224.008 58.7149 224.44 59.0509 224.632 59.7229L227.608 69.7069C227.8 70.3309 228.376 70.3309 228.568 69.7069L230.104 64.5229C230.776 62.3149 228.616 62.5549 228.616 60.5389C228.616 59.3389 229.336 58.9549 230.632 58.9549H233.704C235 58.9549 235.72 59.3389 235.72 60.5389C235.72 62.5549 233.752 61.6429 232.504 65.7709L229.384 76.0429C229.144 76.8109 228.664 77.1949 227.848 77.1949H224.728C223.912 77.1949 223.384 76.8109 223.144 76.0429L221.848 72.0589C221.704 71.5789 221.272 71.5789 221.128 72.0589L219.928 76.0429C219.688 76.8109 219.208 77.1949 218.392 77.1949Z" fill="#800C00"/>
<path d="M255.006 77.1949H248.094C246.702 77.1949 246.03 76.6669 246.03 75.5629C246.03 73.4509 248.43 73.4989 248.43 71.4349V61.5949H247.326C246.462 61.5949 246.03 61.1149 246.03 60.2509C246.03 59.3869 246.462 58.9549 247.326 58.9549H248.43C247.662 57.4669 247.326 56.2189 247.326 54.8749C247.326 51.2269 249.87 48.8749 253.902 48.8749C257.166 48.8749 259.47 50.4589 259.47 52.9549C259.47 54.6829 258.366 55.9789 256.542 55.9789C253.278 55.9789 253.806 51.7069 252.366 51.7069C251.79 51.7069 251.358 52.4269 251.358 53.5789C251.358 55.3069 252.366 57.1789 254.67 58.9549H256.446C257.31 58.9549 257.742 59.3869 257.742 60.2509C257.742 61.1149 257.31 61.5949 256.446 61.5949H254.67V71.4349C254.67 73.4989 257.07 73.4509 257.07 75.5629C257.07 76.6669 256.398 77.1949 255.006 77.1949Z" fill="#800C00"/>
<path d="M266.467 77.4349C261.763 77.4349 258.259 74.2189 258.259 68.6029C258.259 62.7469 262.099 58.7149 267.619 58.7149C271.603 58.7149 273.667 60.8269 273.667 63.6109C273.667 66.7309 271.075 68.6509 267.283 68.6509C266.227 68.6509 265.123 68.5549 263.971 68.2189C264.499 70.5229 265.891 72.4909 268.435 72.4909C271.363 72.4909 272.419 69.8989 273.331 69.8989C273.763 69.8989 274.003 70.4269 274.003 71.2909C274.003 74.4589 270.979 77.4349 266.467 77.4349ZM263.731 65.7229C266.851 65.4349 268.147 64.0429 268.147 62.8909C268.147 62.0749 267.523 61.4509 266.515 61.4509C264.787 61.4509 263.827 63.3229 263.731 65.7229Z" fill="#800C00"/>
<path d="M284.966 62.9389C284.966 61.8829 284.39 61.4029 283.574 61.4029C281.51 61.4029 282.662 65.6749 279.398 65.6749C277.766 65.6749 276.71 64.5709 276.71 62.9869C276.71 60.3469 279.638 58.7149 283.622 58.7149C288.326 58.7149 291.206 61.0189 291.206 65.7709V71.4349C291.206 73.4029 293.606 72.4909 293.606 73.9789C293.606 75.3709 291.494 77.4349 289.046 77.4349C287.318 77.4349 285.638 76.4269 285.11 74.1709C284.006 76.2829 282.038 77.4349 279.974 77.4349C277.43 77.4349 275.702 75.6109 275.702 72.6829C275.702 65.9629 284.966 67.9309 284.966 62.9389ZM284.966 67.9789C283.334 69.0829 281.558 69.6109 281.558 71.3389C281.558 73.7389 284.966 73.3069 284.966 68.8909V67.9789Z" fill="#800C00"/>
<path d="M295.012 71.8669V61.5949H293.956C293.092 61.5949 292.66 61.1149 292.66 60.2509C292.66 59.4349 292.996 58.9069 293.908 58.5229C296.164 57.5149 298.18 55.6909 299.476 53.3869C299.716 52.9549 300.052 52.7629 300.532 52.7629C301.012 52.7629 301.252 53.0029 301.252 53.4829V58.9549H302.308C303.172 58.9549 303.652 59.3869 303.652 60.2509C303.652 61.1149 303.172 61.5949 302.308 61.5949H301.252V71.4349C301.252 73.4989 303.652 73.4509 303.652 75.5629C303.652 76.6669 302.98 77.1949 301.588 77.1949H300.1C296.884 77.1949 295.012 75.2269 295.012 71.8669Z" fill="#800C00"/>
<path d="M316.672 59.7229L319.456 59.0509C320.272 58.8589 320.992 58.7149 321.52 58.7149C322.672 58.7149 323.248 59.4349 323.248 60.9229V71.4349C323.248 73.4029 325.648 72.4909 325.648 73.9789C325.648 75.3709 323.536 77.4349 321.088 77.4349C319.552 77.4349 318.112 76.6669 317.392 74.9389L317.296 74.6509C312.832 79.0189 306.544 78.4909 306.544 71.3389V65.4829C306.544 63.5149 304.144 63.4669 304.144 61.5469C304.144 60.5869 304.72 60.1069 306.208 59.7229L308.992 59.0509C309.808 58.8589 310.528 58.7149 311.056 58.7149C312.208 58.7149 312.784 59.4349 312.784 60.9229V71.1469C312.784 73.7869 315.184 73.7389 317.008 71.6269V65.4829C317.008 63.5149 314.608 63.4669 314.608 61.5469C314.608 60.5869 315.184 60.1069 316.672 59.7229Z" fill="#800C00"/>
<path d="M335.819 77.1949H328.907C327.515 77.1949 326.843 76.6669 326.843 75.5629C326.843 73.4509 329.243 73.4989 329.243 71.4349V65.4829C329.243 63.5149 326.843 63.4669 326.843 61.5469C326.843 60.5869 327.419 60.1069 328.907 59.7229L331.691 59.0509C332.699 58.8109 333.323 58.7149 333.755 58.7149C334.907 58.7149 335.483 59.4349 335.483 60.9229V61.8349C336.923 59.9149 338.747 58.7149 340.571 58.7149C342.731 58.7149 344.267 60.3469 344.267 62.7469C344.267 65.0029 342.923 66.7309 341.051 66.7309C338.603 66.7309 338.795 63.6589 337.739 63.6589C336.635 63.6589 335.483 66.8269 335.483 70.2829V71.4349C335.483 73.4989 337.883 73.4509 337.883 75.5629C337.883 76.6669 337.211 77.1949 335.819 77.1949Z" fill="#800C00"/>
<path d="M352.717 77.4349C348.013 77.4349 344.509 74.2189 344.509 68.6029C344.509 62.7469 348.349 58.7149 353.869 58.7149C357.853 58.7149 359.917 60.8269 359.917 63.6109C359.917 66.7309 357.325 68.6509 353.533 68.6509C352.477 68.6509 351.373 68.5549 350.221 68.2189C350.749 70.5229 352.141 72.4909 354.685 72.4909C357.613 72.4909 358.669 69.8989 359.581 69.8989C360.013 69.8989 360.253 70.4269 360.253 71.2909C360.253 74.4589 357.229 77.4349 352.717 77.4349ZM349.981 65.7229C353.101 65.4349 354.397 64.0429 354.397 62.8909C354.397 62.0749 353.773 61.4509 352.765 61.4509C351.037 61.4509 350.077 63.3229 349.981 65.7229Z" fill="#800C00"/>
<path d="M363.728 71.0509C366.176 71.0509 366.608 74.7469 369.2 74.7469C370.16 74.7469 370.784 74.2669 370.784 73.5469C370.784 70.7149 361.712 70.1389 361.712 64.1389C361.712 60.8269 364.496 58.7149 368.816 58.7149C372.704 58.7149 375.776 60.4429 375.776 62.6989C375.776 63.9949 374.816 65.0509 373.52 65.0509C371.12 65.0509 370.688 61.4029 368.288 61.4029C367.52 61.4029 366.992 61.7869 366.992 62.4109C366.992 65.0509 376.208 65.7709 376.208 71.8669C376.208 75.3229 373.28 77.4349 368.48 77.4349C364.304 77.4349 361.472 75.8509 361.472 73.4989C361.472 72.1549 362.384 71.0509 363.728 71.0509Z" fill="#800C00"/>
<path d="M395.779 62.9389C395.779 61.8829 395.203 61.4029 394.387 61.4029C392.323 61.4029 393.475 65.6749 390.211 65.6749C388.579 65.6749 387.523 64.5709 387.523 62.9869C387.523 60.3469 390.451 58.7149 394.435 58.7149C399.139 58.7149 402.019 61.0189 402.019 65.7709V71.4349C402.019 73.4029 404.419 72.4909 404.419 73.9789C404.419 75.3709 402.307 77.4349 399.859 77.4349C398.131 77.4349 396.451 76.4269 395.923 74.1709C394.819 76.2829 392.851 77.4349 390.787 77.4349C388.243 77.4349 386.515 75.6109 386.515 72.6829C386.515 65.9629 395.779 67.9309 395.779 62.9389ZM395.779 67.9789C394.147 69.0829 392.371 69.6109 392.371 71.3389C392.371 73.7389 395.779 73.3069 395.779 68.8909V67.9789Z" fill="#F77635"/>
<path d="M416 59.7229L418.784 59.0509C419.6 58.8589 420.32 58.7149 420.848 58.7149C422 58.7149 422.576 59.4349 422.576 60.9229V71.4349C422.576 73.4029 424.976 72.4909 424.976 73.9789C424.976 75.3709 422.864 77.4349 420.416 77.4349C418.88 77.4349 417.44 76.6669 416.72 74.9389L416.624 74.6509C412.16 79.0189 405.872 78.4909 405.872 71.3389V65.4829C405.872 63.5149 403.472 63.4669 403.472 61.5469C403.472 60.5869 404.048 60.1069 405.536 59.7229L408.32 59.0509C409.136 58.8589 409.856 58.7149 410.384 58.7149C411.536 58.7149 412.112 59.4349 412.112 60.9229V71.1469C412.112 73.7869 414.512 73.7389 416.336 71.6269V65.4829C416.336 63.5149 413.936 63.4669 413.936 61.5469C413.936 60.5869 414.512 60.1069 416 59.7229Z" fill="#F77635"/>
<path d="M426.59 71.8669V61.5949H425.534C424.67 61.5949 424.238 61.1149 424.238 60.2509C424.238 59.4349 424.574 58.9069 425.486 58.5229C427.742 57.5149 429.758 55.6909 431.054 53.3869C431.294 52.9549 431.63 52.7629 432.11 52.7629C432.59 52.7629 432.83 53.0029 432.83 53.4829V58.9549H433.886C434.75 58.9549 435.23 59.3869 435.23 60.2509C435.23 61.1149 434.75 61.5949 433.886 61.5949H432.83V71.4349C432.83 73.4989 435.23 73.4509 435.23 75.5629C435.23 76.6669 434.558 77.1949 433.166 77.1949H431.678C428.462 77.1949 426.59 75.2269 426.59 71.8669Z" fill="#F77635"/>
<path d="M435.962 68.0749C435.962 62.0269 439.802 58.7149 445.178 58.7149C450.554 58.7149 454.394 62.0269 454.394 68.0749C454.394 74.1229 450.554 77.4349 445.178 77.4349C439.802 77.4349 435.962 74.1229 435.962 68.0749ZM448.298 69.7069C448.298 65.9149 446.858 61.4029 444.41 61.4029C442.826 61.4029 442.106 63.6589 442.106 66.2989C442.106 70.1389 443.546 74.7469 445.994 74.7469C447.578 74.7469 448.298 72.4429 448.298 69.7069Z" fill="#F77635"/>
<path d="M463.636 77.1949H457.204C455.812 77.1949 455.14 76.6669 455.14 75.5629C455.14 73.4509 457.54 73.4989 457.54 71.4349V65.4829C457.54 63.5149 455.14 63.4669 455.14 61.5469C455.14 60.5869 455.716 60.1069 457.204 59.7229L459.988 59.0509C460.804 58.8589 461.524 58.7149 462.052 58.7149C463.204 58.7149 463.78 59.4349 463.78 60.9229V61.3549C466.468 57.8029 471.748 57.6589 473.38 61.4989C476.5 57.0829 483.94 57.6589 483.94 64.1869V71.4349C483.94 73.4989 486.34 73.4509 486.34 75.5629C486.34 76.6669 485.668 77.1949 484.276 77.1949H477.844C476.452 77.1949 475.78 76.6669 475.78 75.5629C475.78 73.4509 477.7 73.4989 477.7 71.4349V65.0029C477.7 63.2749 475.492 62.5069 473.86 64.2829V71.4349C473.86 73.4989 475.06 73.4509 475.06 75.5629C475.06 76.6669 474.388 77.1949 472.996 77.1949H468.484C467.092 77.1949 466.42 76.6669 466.42 75.5629C466.42 73.4509 467.62 73.4989 467.62 71.4349V65.0029C467.62 63.1309 465.364 62.4109 463.78 64.7629V71.4349C463.78 73.4989 465.7 73.4509 465.7 75.5629C465.7 76.6669 465.028 77.1949 463.636 77.1949Z" fill="#F77635"/>
<path d="M496.56 62.9389C496.56 61.8829 495.984 61.4029 495.168 61.4029C493.104 61.4029 494.256 65.6749 490.992 65.6749C489.36 65.6749 488.304 64.5709 488.304 62.9869C488.304 60.3469 491.232 58.7149 495.216 58.7149C499.92 58.7149 502.8 61.0189 502.8 65.7709V71.4349C502.8 73.4029 505.2 72.4909 505.2 73.9789C505.2 75.3709 503.088 77.4349 500.64 77.4349C498.912 77.4349 497.232 76.4269 496.704 74.1709C495.6 76.2829 493.632 77.4349 491.568 77.4349C489.024 77.4349 487.296 75.6109 487.296 72.6829C487.296 65.9629 496.56 67.9309 496.56 62.9389ZM496.56 67.9789C494.928 69.0829 493.152 69.6109 493.152 71.3389C493.152 73.7389 496.56 73.3069 496.56 68.8909V67.9789Z" fill="#F77635"/>
<path d="M506.605 71.8669V61.5949H505.549C504.685 61.5949 504.253 61.1149 504.253 60.2509C504.253 59.4349 504.589 58.9069 505.501 58.5229C507.757 57.5149 509.773 55.6909 511.069 53.3869C511.309 52.9549 511.645 52.7629 512.125 52.7629C512.605 52.7629 512.845 53.0029 512.845 53.4829V58.9549H513.901C514.765 58.9549 515.245 59.3869 515.245 60.2509C515.245 61.1149 514.765 61.5949 513.901 61.5949H512.845V71.4349C512.845 73.4989 515.245 73.4509 515.245 75.5629C515.245 76.6669 514.573 77.1949 513.181 77.1949H511.693C508.477 77.1949 506.605 75.2269 506.605 71.8669Z" fill="#F77635"/>
<path d="M518.751 54.1549C518.751 52.1389 520.143 50.7469 522.207 50.7469C524.223 50.7469 525.615 52.1389 525.615 54.1549C525.615 56.2189 524.223 57.6109 522.207 57.6109C520.143 57.6109 518.751 56.2189 518.751 54.1549ZM525.182 77.1949H518.751C517.359 77.1949 516.687 76.6669 516.687 75.5629C516.687 73.4509 519.087 73.4989 519.087 71.4349V65.4829C519.087 63.5149 516.687 63.4669 516.687 61.5469C516.687 60.5869 517.263 60.1069 518.751 59.7229L521.535 59.0509C522.351 58.8589 523.07 58.7149 523.599 58.7149C524.75 58.7149 525.327 59.4349 525.327 60.9229V71.4349C525.327 73.4989 527.247 73.4509 527.247 75.5629C527.247 76.6669 526.575 77.1949 525.182 77.1949Z" fill="#F77635"/>
<path d="M527.978 68.6029C527.978 62.7469 531.866 58.7149 537.242 58.7149C540.794 58.7149 543.482 60.4429 543.482 63.1309C543.482 65.0509 542.09 66.4909 540.17 66.4909C538.346 66.4909 537.098 65.2429 537.098 63.0349C537.098 61.9789 536.81 61.4509 536.186 61.4509C534.89 61.4509 533.882 63.9469 533.882 66.7309C533.882 69.7069 535.034 72.7789 538.154 72.7789C541.13 72.7789 542.042 69.8989 543.098 69.8989C543.482 69.8989 543.77 70.2349 543.77 71.2909C543.77 74.6989 540.602 77.4349 536.234 77.4349C531.338 77.4349 527.978 74.0269 527.978 68.6029Z" fill="#F77635"/>
<path d="M554.732 62.9389C554.732 61.8829 554.156 61.4029 553.34 61.4029C551.276 61.4029 552.428 65.6749 549.164 65.6749C547.532 65.6749 546.476 64.5709 546.476 62.9869C546.476 60.3469 549.404 58.7149 553.388 58.7149C558.092 58.7149 560.972 61.0189 560.972 65.7709V71.4349C560.972 73.4029 563.372 72.4909 563.372 73.9789C563.372 75.3709 561.26 77.4349 558.812 77.4349C557.084 77.4349 555.404 76.4269 554.876 74.1709C553.772 76.2829 551.804 77.4349 549.74 77.4349C547.196 77.4349 545.468 75.6109 545.468 72.6829C545.468 65.9629 554.732 67.9309 554.732 62.9389ZM554.732 67.9789C553.1 69.0829 551.324 69.6109 551.324 71.3389C551.324 73.7389 554.732 73.3069 554.732 68.8909V67.9789Z" fill="#F77635"/>
<path d="M573.803 77.1949H566.891C565.499 77.1949 564.827 76.6669 564.827 75.5629C564.827 73.4509 567.227 73.4989 567.227 71.4349V55.5949C567.227 53.6269 564.827 53.5789 564.827 51.6589C564.827 50.6989 565.403 50.2189 566.891 49.8349L569.675 49.1629C570.443 48.9709 571.211 48.8749 571.691 48.8749C572.891 48.8749 573.467 49.5469 573.467 51.0349V71.4349C573.467 73.4989 575.867 73.4509 575.867 75.5629C575.867 76.6669 575.195 77.1949 573.803 77.1949Z" fill="#F77635"/>
<path d="M586.272 77.1949H579.36C577.968 77.1949 577.296 76.6669 577.296 75.5629C577.296 73.4509 579.696 73.4989 579.696 71.4349V55.5949C579.696 53.6269 577.296 53.5789 577.296 51.6589C577.296 50.6989 577.872 50.2189 579.36 49.8349L582.144 49.1629C582.912 48.9709 583.68 48.8749 584.16 48.8749C585.36 48.8749 585.936 49.5469 585.936 51.0349V71.4349C585.936 73.4989 588.336 73.4509 588.336 75.5629C588.336 76.6669 587.664 77.1949 586.272 77.1949Z" fill="#F77635"/>
<path d="M597.192 78.1549L597.528 77.1949H595.944C595.128 77.1949 594.599 76.8109 594.359 76.0429L591.048 65.7229C589.752 61.7389 587.832 62.5069 587.832 60.4909C587.832 59.2909 588.552 58.9069 589.848 58.9069H596.712C598.008 58.9069 598.728 59.2909 598.728 60.4429C598.728 62.5069 596.568 62.3149 597.24 64.4749L598.824 69.7069C599.016 70.3309 599.591 70.3309 599.784 69.7069L601.32 64.5229C601.992 62.3149 599.832 62.5549 599.832 60.4909C599.832 59.3389 600.552 58.9549 601.848 58.9549H604.919C606.216 58.9549 606.936 59.3389 606.936 60.5389C606.936 62.5549 604.968 61.6429 603.72 65.7709L600.6 76.0429L598.728 81.9949C596.712 88.3309 589.464 86.5549 589.464 82.8589C589.464 79.3549 595.799 82.2829 597.192 78.1549Z" fill="#F77635"/>
<path d="M608.374 74.0749C608.374 72.0589 609.718 70.7149 611.734 70.7149C613.75 70.7149 615.094 72.0589 615.094 74.0749C615.094 76.0909 613.75 77.4349 611.734 77.4349C609.718 77.4349 608.374 76.0909 608.374 74.0749Z" fill="#F6631C"/>
</g>
<defs>
<filter id="filter0_d_17862_129071" x="0.592773" y="0.874939" width="618.179" height="89" filterUnits="userSpaceOnUse" color-interpolation-filters="sRGB">
<feFlood flood-opacity="0" result="BackgroundImageFix"/>
<feColorMatrix in="SourceAlpha" type="matrix" values="0 0 0 0 0 0 0 0 0 0 0 0 0 0 0 0 0 0 127 0" result="hardAlpha"/>
<feOffset dx="3.67824" dy="3.67824"/>
<feComposite in2="hardAlpha" operator="out"/>
<feColorMatrix type="matrix" values="0 0 0 0 0.898039 0 0 0 0 0.847059 0 0 0 0 0.709804 0 0 0 1 0"/>
<feBlend mode="normal" in2="BackgroundImageFix" result="effect1_dropShadow_17862_129071"/>
<feBlend mode="normal" in="SourceGraphic" in2="effect1_dropShadow_17862_129071" result="shape"/>
</filter>
</defs>
</svg>
