<svg width="412" height="138" viewBox="0 0 412 138" fill="none" xmlns="http://www.w3.org/2000/svg">
<g filter="url(#filter0_d_17862_129073)">
<path d="M27.2692 23.4349V7.59494C27.2692 5.53094 24.8692 5.57894 24.8692 3.46694C24.8692 2.21894 25.7332 1.83494 26.9332 1.83494H32.2612C33.0772 1.83494 33.5572 2.21894 33.8452 2.98694L39.5572 19.3069C39.7492 19.8829 40.1332 19.8829 40.3252 19.3069L46.0852 2.98694C46.3732 2.21894 46.8532 1.83494 47.6692 1.83494H52.7572C53.9572 1.83494 54.8212 2.21894 54.8212 3.46694C54.8212 5.57894 52.4212 5.53094 52.4212 7.59494V23.4349C52.4212 25.4989 54.8212 25.4509 54.8212 27.5629C54.8212 28.8109 53.9572 29.1949 52.7572 29.1949H45.8452C44.6452 29.1949 43.7812 28.8109 43.7812 27.5629C43.7812 25.4509 46.1812 25.4989 46.1812 23.4349V12.1549C46.1812 11.8189 45.8452 11.8189 45.7492 12.0589L40.0372 28.0429C39.7492 28.8109 39.2692 29.1949 38.4532 29.1949H37.5892C36.7732 29.1949 36.2932 28.8109 36.0052 28.0429L30.3412 12.0589C30.2452 11.7709 29.9092 11.8189 29.9092 12.1549V23.4349C29.9092 25.4989 32.3092 25.4509 32.3092 27.5629C32.3092 28.8109 31.4452 29.1949 30.2452 29.1949H26.9332C25.7332 29.1949 24.8692 28.8109 24.8692 27.5629C24.8692 25.4509 27.2692 25.4989 27.2692 23.4349Z" fill="#F6631C"/>
<path d="M65.0707 14.9389C65.0707 13.8829 64.4947 13.4029 63.6787 13.4029C61.6147 13.4029 62.7667 17.6749 59.5027 17.6749C57.8707 17.6749 56.8147 16.5709 56.8147 14.9869C56.8147 12.3469 59.7427 10.7149 63.7267 10.7149C68.4307 10.7149 71.3107 13.0189 71.3107 17.7709V23.4349C71.3107 25.4029 73.7107 24.4909 73.7107 25.9789C73.7107 27.3709 71.5987 29.4349 69.1507 29.4349C67.4227 29.4349 65.7427 28.4269 65.2147 26.1709C64.1107 28.2829 62.1427 29.4349 60.0787 29.4349C57.5347 29.4349 55.8067 27.6109 55.8067 24.6829C55.8067 17.9629 65.0707 19.9309 65.0707 14.9389ZM65.0707 19.9789C63.4387 21.0829 61.6627 21.6109 61.6627 23.3389C61.6627 25.7389 65.0707 25.3069 65.0707 20.8909V19.9789Z" fill="#F6631C"/>
<path d="M83.902 24.8269L83.23 23.7709L82.366 24.8749C81.358 26.1709 82.606 26.6509 82.606 27.9469C82.606 28.7629 81.982 29.1469 80.59 29.1469H76.702C75.31 29.1469 74.686 28.7629 74.686 27.8509C74.686 25.9309 77.614 26.6989 80.542 23.0029L81.742 21.4669L78.91 17.1469C76.558 13.4989 74.686 14.4109 74.686 12.4429C74.686 11.3869 75.31 10.9549 76.702 10.9549H83.47C84.862 10.9549 85.486 11.3389 85.486 12.2029C85.486 13.4509 84.094 13.7869 85.054 15.2749L85.774 16.3789L86.59 15.3229C87.742 13.8829 86.35 13.4989 86.35 12.2509C86.35 11.3869 87.022 11.0029 88.366 11.0029H92.254C93.646 11.0029 94.27 11.3869 94.27 12.2989C94.27 14.2189 91.342 13.4509 88.414 17.1469L87.214 18.6349L90.046 23.0029C92.446 26.6989 94.27 25.7389 94.27 27.7069C94.27 28.7629 93.646 29.1949 92.254 29.1949H85.486C84.094 29.1949 83.47 28.8109 83.47 27.9469C83.47 26.6989 84.862 26.3149 83.902 24.8269Z" fill="#F6631C"/>
<path d="M107.293 22.3789L111.853 7.40294C112.525 5.14694 111.037 5.09894 111.037 3.46694C111.037 2.60294 111.421 1.83494 112.621 1.83494H117.853C118.669 1.83494 119.197 2.21894 119.437 2.98694L125.677 22.3789C126.973 26.3629 128.893 25.5949 128.893 27.6109C128.893 28.8109 128.173 29.1949 126.877 29.1949H119.773C118.525 29.1949 117.853 28.8589 117.757 27.8509V27.6589C117.757 25.5949 120.205 25.7869 119.485 23.6269L119.245 22.9069C119.005 22.1389 118.525 21.7549 117.709 21.7549H111.469C110.653 21.7549 110.173 22.1389 109.933 22.9069L109.693 23.6269C108.973 25.8349 111.421 25.5949 111.421 27.6589C111.421 28.8109 110.701 29.1949 109.405 29.1949H106.093C104.797 29.1949 104.077 28.8109 104.077 27.6109C104.077 25.5949 106.045 26.5069 107.293 22.3789ZM112.285 19.1149H116.893C117.709 19.1149 117.997 18.7309 117.757 17.9629L114.973 9.27494C114.781 8.65094 114.205 8.65094 114.013 9.27494L111.421 17.9629C111.181 18.7309 111.469 19.1149 112.285 19.1149Z" fill="#F6631C"/>
<path d="M139.314 29.1949H132.402C131.202 29.1949 130.338 28.8109 130.338 27.5629C130.338 25.4509 132.738 25.4989 132.738 23.4349V7.59494C132.738 5.53094 130.338 5.57894 130.338 3.46694C130.338 2.21894 131.202 1.83494 132.402 1.83494H139.314C140.514 1.83494 141.378 2.21894 141.378 3.46694C141.378 5.57894 138.978 5.53094 138.978 7.59494V23.4349C138.978 25.4989 141.378 25.4509 141.378 27.5629C141.378 28.8109 140.514 29.1949 139.314 29.1949Z" fill="#F6631C"/>
<path d="M162.887 29.1949H159.767C158.951 29.1949 158.423 28.8109 158.183 28.0429L154.871 17.7229C153.575 13.7389 151.655 14.5069 151.655 12.4909C151.655 11.2909 152.375 10.9069 153.671 10.9069H160.535C161.831 10.9069 162.551 11.2909 162.551 12.4909C162.551 14.5069 160.391 14.3149 161.063 16.4749L162.647 21.7069C162.839 22.3309 163.415 22.3309 163.607 21.7069L166.487 11.7229C166.679 11.0509 167.159 10.7149 167.831 10.7149C168.503 10.7149 168.935 11.0509 169.127 11.7229L172.103 21.7069C172.295 22.3309 172.871 22.3309 173.063 21.7069L174.599 16.5229C175.271 14.3149 173.111 14.5549 173.111 12.5389C173.111 11.3389 173.831 10.9549 175.127 10.9549H178.199C179.495 10.9549 180.215 11.3389 180.215 12.5389C180.215 14.5549 178.247 13.6429 176.999 17.7709L173.879 28.0429C173.639 28.8109 173.159 29.1949 172.343 29.1949H169.223C168.407 29.1949 167.879 28.8109 167.639 28.0429L166.343 24.0589C166.199 23.5789 165.767 23.5789 165.623 24.0589L164.423 28.0429C164.183 28.8109 163.703 29.1949 162.887 29.1949Z" fill="#F6631C"/>
<path d="M183.261 6.15494C183.261 4.13894 184.653 2.74694 186.717 2.74694C188.733 2.74694 190.125 4.13894 190.125 6.15494C190.125 8.21894 188.733 9.61094 186.717 9.61094C184.653 9.61094 183.261 8.21894 183.261 6.15494ZM189.693 29.1949H183.261C181.869 29.1949 181.197 28.6669 181.197 27.5629C181.197 25.4509 183.597 25.4989 183.597 23.4349V17.4829C183.597 15.5149 181.197 15.4669 181.197 13.5469C181.197 12.5869 181.773 12.1069 183.261 11.7229L186.045 11.0509C186.861 10.8589 187.581 10.7149 188.109 10.7149C189.261 10.7149 189.837 11.4349 189.837 12.9229V23.4349C189.837 25.4989 191.757 25.4509 191.757 27.5629C191.757 28.6669 191.085 29.1949 189.693 29.1949Z" fill="#F6631C"/>
<path d="M202.173 29.1949H195.261C193.869 29.1949 193.197 28.6669 193.197 27.5629C193.197 25.4509 195.597 25.4989 195.597 23.4349V7.59494C195.597 5.62694 193.197 5.57894 193.197 3.65894C193.197 2.69894 193.773 2.21894 195.261 1.83494L198.045 1.16294C198.813 0.970941 199.581 0.874939 200.061 0.874939C201.261 0.874939 201.837 1.54694 201.837 3.03494V23.4349C201.837 25.4989 204.237 25.4509 204.237 27.5629C204.237 28.6669 203.565 29.1949 202.173 29.1949Z" fill="#F6631C"/>
<path d="M214.642 29.1949H207.73C206.338 29.1949 205.666 28.6669 205.666 27.5629C205.666 25.4509 208.066 25.4989 208.066 23.4349V7.59494C208.066 5.62694 205.666 5.57894 205.666 3.65894C205.666 2.69894 206.242 2.21894 207.73 1.83494L210.514 1.16294C211.282 0.970941 212.05 0.874939 212.53 0.874939C213.73 0.874939 214.306 1.54694 214.306 3.03494V23.4349C214.306 25.4989 216.706 25.4509 216.706 27.5629C216.706 28.6669 216.034 29.1949 214.642 29.1949Z" fill="#F6631C"/>
<path d="M228.77 23.0509C231.218 23.0509 231.65 26.7469 234.242 26.7469C235.202 26.7469 235.826 26.2669 235.826 25.5469C235.826 22.7149 226.754 22.1389 226.754 16.1389C226.754 12.8269 229.538 10.7149 233.858 10.7149C237.746 10.7149 240.818 12.4429 240.818 14.6989C240.818 15.9949 239.858 17.0509 238.562 17.0509C236.162 17.0509 235.73 13.4029 233.33 13.4029C232.562 13.4029 232.034 13.7869 232.034 14.4109C232.034 17.0509 241.25 17.7709 241.25 23.8669C241.25 27.3229 238.322 29.4349 233.522 29.4349C229.346 29.4349 226.514 27.8509 226.514 25.4989C226.514 24.1549 227.426 23.0509 228.77 23.0509Z" fill="#800C00"/>
<path d="M250.64 30.1549L250.976 29.1949H249.392C248.576 29.1949 248.048 28.8109 247.808 28.0429L244.496 17.7229C243.2 13.7389 241.28 14.5069 241.28 12.4909C241.28 11.2909 242 10.9069 243.296 10.9069H250.16C251.456 10.9069 252.176 11.2909 252.176 12.4429C252.176 14.5069 250.016 14.3149 250.688 16.4749L252.272 21.7069C252.464 22.3309 253.04 22.3309 253.232 21.7069L254.768 16.5229C255.44 14.3149 253.28 14.5549 253.28 12.4909C253.28 11.3389 254 10.9549 255.296 10.9549H258.368C259.664 10.9549 260.384 11.3389 260.384 12.5389C260.384 14.5549 258.416 13.6429 257.168 17.7709L254.048 28.0429L252.176 33.9949C250.16 40.3309 242.912 38.5549 242.912 34.8589C242.912 31.3549 249.248 34.2829 250.64 30.1549Z" fill="#800C00"/>
<path d="M269.85 29.1949H263.418C262.026 29.1949 261.354 28.6669 261.354 27.5629C261.354 25.4509 263.754 25.4989 263.754 23.4349V17.4829C263.754 15.5149 261.354 15.4669 261.354 13.5469C261.354 12.5869 261.93 12.1069 263.418 11.7229L266.202 11.0509C267.018 10.8589 267.738 10.7149 268.266 10.7149C269.418 10.7149 269.994 11.4349 269.994 12.9229V13.1629C274.458 9.17894 281.178 9.89894 281.178 16.8109V23.4349C281.178 25.4989 283.578 25.4509 283.578 27.5629C283.578 28.6669 282.906 29.1949 281.514 29.1949H275.082C273.69 29.1949 273.018 28.6669 273.018 27.5629C273.018 25.4509 274.938 25.4989 274.938 23.4349V17.0029C274.938 14.6989 271.914 14.4589 269.994 16.5709V23.4349C269.994 25.4989 271.914 25.4509 271.914 27.5629C271.914 28.6669 271.242 29.1949 269.85 29.1949Z" fill="#800C00"/>
<path d="M283.848 20.6029C283.848 14.7469 287.736 10.7149 293.112 10.7149C296.664 10.7149 299.352 12.4429 299.352 15.1309C299.352 17.0509 297.96 18.4909 296.04 18.4909C294.216 18.4909 292.968 17.2429 292.968 15.0349C292.968 13.9789 292.68 13.4509 292.056 13.4509C290.76 13.4509 289.752 15.9469 289.752 18.7309C289.752 21.7069 290.904 24.7789 294.024 24.7789C297 24.7789 297.912 21.8989 298.968 21.8989C299.352 21.8989 299.64 22.2349 299.64 23.2909C299.64 26.6989 296.472 29.4349 292.104 29.4349C287.208 29.4349 283.848 26.0269 283.848 20.6029Z" fill="#800C00"/>
<path d="M320.949 29.1949H317.829C317.013 29.1949 316.485 28.8109 316.245 28.0429L312.933 17.7229C311.637 13.7389 309.717 14.5069 309.717 12.4909C309.717 11.2909 310.437 10.9069 311.733 10.9069H318.597C319.893 10.9069 320.613 11.2909 320.613 12.4909C320.613 14.5069 318.453 14.3149 319.125 16.4749L320.709 21.7069C320.901 22.3309 321.477 22.3309 321.669 21.7069L324.549 11.7229C324.741 11.0509 325.221 10.7149 325.893 10.7149C326.565 10.7149 326.997 11.0509 327.189 11.7229L330.165 21.7069C330.357 22.3309 330.933 22.3309 331.125 21.7069L332.661 16.5229C333.333 14.3149 331.173 14.5549 331.173 12.5389C331.173 11.3389 331.893 10.9549 333.189 10.9549H336.261C337.557 10.9549 338.277 11.3389 338.277 12.5389C338.277 14.5549 336.309 13.6429 335.061 17.7709L331.941 28.0429C331.701 28.8109 331.221 29.1949 330.405 29.1949H327.285C326.469 29.1949 325.941 28.8109 325.701 28.0429L324.405 24.0589C324.261 23.5789 323.829 23.5789 323.685 24.0589L322.485 28.0429C322.245 28.8109 321.765 29.1949 320.949 29.1949Z" fill="#800C00"/>
<path d="M341.324 6.15494C341.324 4.13894 342.716 2.74694 344.78 2.74694C346.796 2.74694 348.188 4.13894 348.188 6.15494C348.188 8.21894 346.796 9.61094 344.78 9.61094C342.716 9.61094 341.324 8.21894 341.324 6.15494ZM347.756 29.1949H341.324C339.932 29.1949 339.26 28.6669 339.26 27.5629C339.26 25.4509 341.66 25.4989 341.66 23.4349V17.4829C341.66 15.5149 339.26 15.4669 339.26 13.5469C339.26 12.5869 339.836 12.1069 341.324 11.7229L344.108 11.0509C344.924 10.8589 345.644 10.7149 346.172 10.7149C347.324 10.7149 347.9 11.4349 347.9 12.9229V23.4349C347.9 25.4989 349.82 25.4509 349.82 27.5629C349.82 28.6669 349.148 29.1949 347.756 29.1949Z" fill="#800C00"/>
<path d="M351.679 23.8669V13.5949H350.623C349.759 13.5949 349.327 13.1149 349.327 12.2509C349.327 11.4349 349.663 10.9069 350.575 10.5229C352.831 9.51494 354.847 7.69094 356.143 5.38694C356.383 4.95494 356.719 4.76294 357.199 4.76294C357.679 4.76294 357.919 5.00294 357.919 5.48294V10.9549H358.975C359.839 10.9549 360.319 11.3869 360.319 12.2509C360.319 13.1149 359.839 13.5949 358.975 13.5949H357.919V23.4349C357.919 25.4989 360.319 25.4509 360.319 27.5629C360.319 28.6669 359.647 29.1949 358.255 29.1949H356.767C353.551 29.1949 351.679 27.2269 351.679 23.8669Z" fill="#800C00"/>
<path d="M370.256 29.1949H363.824C362.432 29.1949 361.76 28.6669 361.76 27.5629C361.76 25.4509 364.16 25.4989 364.16 23.4349V7.64294C364.16 5.67494 361.76 5.62694 361.76 3.70694C361.76 2.74694 362.336 2.26694 363.824 1.88294L366.608 1.21094C367.424 1.01894 368.144 0.874939 368.672 0.874939C369.824 0.874939 370.4 1.59494 370.4 3.08294V13.1629C374.864 9.17894 381.584 9.89894 381.584 16.8109V23.4349C381.584 25.4989 383.984 25.4509 383.984 27.5629C383.984 28.6669 383.312 29.1949 381.92 29.1949H375.488C374.096 29.1949 373.424 28.6669 373.424 27.5629C373.424 25.4509 375.344 25.4989 375.344 23.4349V17.0029C375.344 14.6989 372.32 14.4589 370.4 16.5709V23.4349C370.4 25.4989 372.32 25.4509 372.32 27.5629C372.32 28.6669 371.648 29.1949 370.256 29.1949Z" fill="#800C00"/>
<path d="M10.2179 78.1549L10.5539 77.1949H8.96991C8.15391 77.1949 7.62591 76.8109 7.38591 76.0429L4.07391 65.7229C2.77791 61.7389 0.85791 62.5069 0.85791 60.4909C0.85791 59.2909 1.57791 58.9069 2.87391 58.9069H9.73791C11.0339 58.9069 11.7539 59.2909 11.7539 60.4429C11.7539 62.5069 9.59391 62.3149 10.2659 64.4749L11.8499 69.7069C12.0419 70.3309 12.6179 70.3309 12.8099 69.7069L14.3459 64.5229C15.0179 62.3149 12.8579 62.5549 12.8579 60.4909C12.8579 59.3389 13.5779 58.9549 14.8739 58.9549H17.9459C19.2419 58.9549 19.9619 59.3389 19.9619 60.5389C19.9619 62.5549 17.9939 61.6429 16.7459 65.7709L13.6259 76.0429L11.7539 81.9949C9.73791 88.3309 2.48991 86.5549 2.48991 82.8589C2.48991 79.3549 8.82591 82.2829 10.2179 78.1549Z" fill="#800C00"/>
<path d="M19.7073 68.0749C19.7073 62.0269 23.5473 58.7149 28.9233 58.7149C34.2993 58.7149 38.1393 62.0269 38.1393 68.0749C38.1393 74.1229 34.2993 77.4349 28.9233 77.4349C23.5473 77.4349 19.7073 74.1229 19.7073 68.0749ZM32.0433 69.7069C32.0433 65.9149 30.6033 61.4029 28.1553 61.4029C26.5713 61.4029 25.8513 63.6589 25.8513 66.2989C25.8513 70.1389 27.2913 74.7469 29.7393 74.7469C31.3233 74.7469 32.0433 72.4429 32.0433 69.7069Z" fill="#800C00"/>
<path d="M50.9328 59.7229L53.7168 59.0509C54.5328 58.8589 55.2528 58.7149 55.7808 58.7149C56.9328 58.7149 57.5088 59.4349 57.5088 60.9229V71.4349C57.5088 73.4029 59.9088 72.4909 59.9088 73.9789C59.9088 75.3709 57.7968 77.4349 55.3488 77.4349C53.8128 77.4349 52.3728 76.6669 51.6528 74.9389L51.5568 74.6509C47.0928 79.0189 40.8048 78.4909 40.8048 71.3389V65.4829C40.8048 63.5149 38.4048 63.4669 38.4048 61.5469C38.4048 60.5869 38.9808 60.1069 40.4688 59.7229L43.2528 59.0509C44.0688 58.8589 44.7888 58.7149 45.3168 58.7149C46.4688 58.7149 47.0448 59.4349 47.0448 60.9229V71.1469C47.0448 73.7869 49.4448 73.7389 51.2688 71.6269V65.4829C51.2688 63.5149 48.8688 63.4669 48.8688 61.5469C48.8688 60.5869 49.4448 60.1069 50.9328 59.7229Z" fill="#800C00"/>
<path d="M70.0795 77.1949H63.1675C61.7755 77.1949 61.1035 76.6669 61.1035 75.5629C61.1035 73.4509 63.5035 73.4989 63.5035 71.4349V65.4829C63.5035 63.5149 61.1035 63.4669 61.1035 61.5469C61.1035 60.5869 61.6795 60.1069 63.1675 59.7229L65.9515 59.0509C66.9595 58.8109 67.5835 58.7149 68.0155 58.7149C69.1675 58.7149 69.7435 59.4349 69.7435 60.9229V61.8349C71.1835 59.9149 73.0075 58.7149 74.8315 58.7149C76.9915 58.7149 78.5275 60.3469 78.5275 62.7469C78.5275 65.0029 77.1835 66.7309 75.3115 66.7309C72.8635 66.7309 73.0555 63.6589 71.9995 63.6589C70.8955 63.6589 69.7435 66.8269 69.7435 70.2829V71.4349C69.7435 73.4989 72.1435 73.4509 72.1435 75.5629C72.1435 76.6669 71.4715 77.1949 70.0795 77.1949Z" fill="#800C00"/>
<path d="M88.5667 68.6029C88.5667 62.7469 92.4547 58.7149 97.8307 58.7149C101.383 58.7149 104.071 60.4429 104.071 63.1309C104.071 65.0509 102.679 66.4909 100.759 66.4909C98.9347 66.4909 97.6867 65.2429 97.6867 63.0349C97.6867 61.9789 97.3987 61.4509 96.7747 61.4509C95.4787 61.4509 94.4707 63.9469 94.4707 66.7309C94.4707 69.7069 95.6227 72.7789 98.7427 72.7789C101.719 72.7789 102.631 69.8989 103.687 69.8989C104.071 69.8989 104.359 70.2349 104.359 71.2909C104.359 74.6989 101.191 77.4349 96.8227 77.4349C91.9267 77.4349 88.5667 74.0269 88.5667 68.6029Z" fill="#800C00"/>
<path d="M105.817 68.0749C105.817 62.0269 109.657 58.7149 115.033 58.7149C120.409 58.7149 124.249 62.0269 124.249 68.0749C124.249 74.1229 120.409 77.4349 115.033 77.4349C109.657 77.4349 105.817 74.1229 105.817 68.0749ZM118.153 69.7069C118.153 65.9149 116.713 61.4029 114.265 61.4029C112.681 61.4029 111.961 63.6589 111.961 66.2989C111.961 70.1389 113.401 74.7469 115.849 74.7469C117.433 74.7469 118.153 72.4429 118.153 69.7069Z" fill="#800C00"/>
<path d="M136.39 49.8349L139.174 49.1629C139.894 48.9709 140.662 48.8749 141.142 48.8749C142.39 48.8749 142.966 49.5469 142.966 51.0349V71.4349C142.966 73.4029 145.366 72.4909 145.366 73.9789C145.366 75.3709 143.254 77.4349 140.806 77.4349C139.27 77.4349 137.734 76.6189 137.062 74.7949C135.862 76.2829 134.182 77.4349 132.166 77.4349C128.326 77.4349 125.926 73.3549 125.926 68.0269C125.926 62.2669 128.662 58.7149 133.03 58.7149C134.422 58.7149 135.574 59.0989 136.726 59.8669V55.5949C136.726 53.6269 134.326 53.5789 134.326 51.6589C134.326 50.6989 134.902 50.2189 136.39 49.8349ZM136.726 62.6989C133.75 61.1629 132.166 63.0829 132.166 67.4029C132.166 74.6509 136.726 74.9389 136.726 69.5149V62.6989Z" fill="#800C00"/>
<path d="M154.29 77.4349C149.586 77.4349 146.082 74.2189 146.082 68.6029C146.082 62.7469 149.922 58.7149 155.442 58.7149C159.426 58.7149 161.49 60.8269 161.49 63.6109C161.49 66.7309 158.898 68.6509 155.106 68.6509C154.05 68.6509 152.946 68.5549 151.794 68.2189C152.322 70.5229 153.714 72.4909 156.258 72.4909C159.186 72.4909 160.242 69.8989 161.154 69.8989C161.586 69.8989 161.826 70.4269 161.826 71.2909C161.826 74.4589 158.802 77.4349 154.29 77.4349ZM151.554 65.7229C154.674 65.4349 155.97 64.0429 155.97 62.8909C155.97 62.0749 155.346 61.4509 154.338 61.4509C152.61 61.4509 151.65 63.3229 151.554 65.7229Z" fill="#800C00"/>
<path d="M181.649 62.9389C181.649 61.8829 181.073 61.4029 180.257 61.4029C178.193 61.4029 179.345 65.6749 176.081 65.6749C174.449 65.6749 173.393 64.5709 173.393 62.9869C173.393 60.3469 176.321 58.7149 180.305 58.7149C185.009 58.7149 187.889 61.0189 187.889 65.7709V71.4349C187.889 73.4029 190.289 72.4909 190.289 73.9789C190.289 75.3709 188.177 77.4349 185.729 77.4349C184.001 77.4349 182.321 76.4269 181.793 74.1709C180.689 76.2829 178.721 77.4349 176.657 77.4349C174.113 77.4349 172.385 75.6109 172.385 72.6829C172.385 65.9629 181.649 67.9309 181.649 62.9389ZM181.649 67.9789C180.017 69.0829 178.241 69.6109 178.241 71.3389C178.241 73.7389 181.649 73.3069 181.649 68.8909V67.9789Z" fill="#F6631C"/>
<path d="M199.771 77.1949H193.339C191.947 77.1949 191.275 76.6669 191.275 75.5629C191.275 73.4509 193.675 73.4989 193.675 71.4349V65.4829C193.675 63.5149 191.275 63.4669 191.275 61.5469C191.275 60.5869 191.851 60.1069 193.339 59.7229L196.123 59.0509C196.939 58.8589 197.659 58.7149 198.187 58.7149C199.339 58.7149 199.915 59.4349 199.915 60.9229V61.1629C204.379 57.1789 211.099 57.8989 211.099 64.8109V71.4349C211.099 73.4989 213.499 73.4509 213.499 75.5629C213.499 76.6669 212.827 77.1949 211.435 77.1949H205.003C203.611 77.1949 202.939 76.6669 202.939 75.5629C202.939 73.4509 204.859 73.4989 204.859 71.4349V65.0029C204.859 62.6989 201.835 62.4589 199.915 64.5709V71.4349C199.915 73.4989 201.835 73.4509 201.835 75.5629C201.835 76.6669 201.163 77.1949 199.771 77.1949Z" fill="#F6631C"/>
<path d="M224.234 49.8349L227.018 49.1629C227.738 48.9709 228.506 48.8749 228.986 48.8749C230.234 48.8749 230.81 49.5469 230.81 51.0349V71.4349C230.81 73.4029 233.21 72.4909 233.21 73.9789C233.21 75.3709 231.098 77.4349 228.65 77.4349C227.114 77.4349 225.578 76.6189 224.906 74.7949C223.706 76.2829 222.026 77.4349 220.01 77.4349C216.17 77.4349 213.77 73.3549 213.77 68.0269C213.77 62.2669 216.506 58.7149 220.874 58.7149C222.266 58.7149 223.418 59.0989 224.57 59.8669V55.5949C224.57 53.6269 222.17 53.5789 222.17 51.6589C222.17 50.6989 222.746 50.2189 224.234 49.8349ZM224.57 62.6989C221.594 61.1629 220.01 63.0829 220.01 67.4029C220.01 74.6509 224.57 74.9389 224.57 69.5149V62.6989Z" fill="#F6631C"/>
<path d="M245.366 71.8669V61.5949H244.31C243.446 61.5949 243.014 61.1149 243.014 60.2509C243.014 59.4349 243.35 58.9069 244.262 58.5229C246.518 57.5149 248.534 55.6909 249.83 53.3869C250.07 52.9549 250.406 52.7629 250.886 52.7629C251.366 52.7629 251.606 53.0029 251.606 53.4829V58.9549H252.662C253.526 58.9549 254.006 59.3869 254.006 60.2509C254.006 61.1149 253.526 61.5949 252.662 61.5949H251.606V71.4349C251.606 73.4989 254.006 73.4509 254.006 75.5629C254.006 76.6669 253.334 77.1949 251.942 77.1949H250.454C247.238 77.1949 245.366 75.2269 245.366 71.8669Z" fill="#800C00"/>
<path d="M264.423 77.1949H257.511C256.119 77.1949 255.447 76.6669 255.447 75.5629C255.447 73.4509 257.847 73.4989 257.847 71.4349V65.4829C257.847 63.5149 255.447 63.4669 255.447 61.5469C255.447 60.5869 256.023 60.1069 257.511 59.7229L260.295 59.0509C261.303 58.8109 261.927 58.7149 262.359 58.7149C263.511 58.7149 264.087 59.4349 264.087 60.9229V61.8349C265.527 59.9149 267.351 58.7149 269.175 58.7149C271.335 58.7149 272.871 60.3469 272.871 62.7469C272.871 65.0029 271.527 66.7309 269.655 66.7309C267.207 66.7309 267.399 63.6589 266.343 63.6589C265.239 63.6589 264.087 66.8269 264.087 70.2829V71.4349C264.087 73.4989 266.487 73.4509 266.487 75.5629C266.487 76.6669 265.815 77.1949 264.423 77.1949Z" fill="#800C00"/>
<path d="M282.102 62.9389C282.102 61.8829 281.526 61.4029 280.71 61.4029C278.646 61.4029 279.798 65.6749 276.534 65.6749C274.902 65.6749 273.846 64.5709 273.846 62.9869C273.846 60.3469 276.774 58.7149 280.758 58.7149C285.462 58.7149 288.342 61.0189 288.342 65.7709V71.4349C288.342 73.4029 290.742 72.4909 290.742 73.9789C290.742 75.3709 288.63 77.4349 286.182 77.4349C284.454 77.4349 282.774 76.4269 282.246 74.1709C281.142 76.2829 279.174 77.4349 277.11 77.4349C274.566 77.4349 272.838 75.6109 272.838 72.6829C272.838 65.9629 282.102 67.9309 282.102 62.9389ZM282.102 67.9789C280.47 69.0829 278.694 69.6109 278.694 71.3389C278.694 73.7389 282.102 73.3069 282.102 68.8909V67.9789Z" fill="#800C00"/>
<path d="M291.489 68.6029C291.489 62.7469 295.377 58.7149 300.753 58.7149C304.305 58.7149 306.993 60.4429 306.993 63.1309C306.993 65.0509 305.601 66.4909 303.681 66.4909C301.857 66.4909 300.609 65.2429 300.609 63.0349C300.609 61.9789 300.321 61.4509 299.697 61.4509C298.401 61.4509 297.393 63.9469 297.393 66.7309C297.393 69.7069 298.545 72.7789 301.665 72.7789C304.641 72.7789 305.553 69.8989 306.609 69.8989C306.993 69.8989 307.281 70.2349 307.281 71.2909C307.281 74.6989 304.113 77.4349 299.745 77.4349C294.849 77.4349 291.489 74.0269 291.489 68.6029Z" fill="#800C00"/>
<path d="M317.017 77.1949H310.105C308.713 77.1949 308.041 76.6669 308.041 75.5629C308.041 73.4509 310.441 73.4989 310.441 71.4349V55.5949C310.441 53.6269 308.041 53.5789 308.041 51.6589C308.041 50.6989 308.617 50.2189 310.105 49.8349L312.889 49.1629C313.657 48.9709 314.425 48.8749 314.905 48.8749C316.105 48.8749 316.681 49.5469 316.681 51.0349V66.7789L319.129 64.8589C321.961 62.6989 318.649 62.6509 318.649 60.4429C318.649 59.4349 319.369 58.9549 320.713 58.9549H327.529C328.873 58.9549 329.593 59.4349 329.593 60.4429C329.593 61.3549 328.969 61.8349 327.625 62.0269C325.369 62.3149 324.457 63.5629 322.681 65.6269L325.657 70.9069C327.337 73.8349 329.641 73.8349 329.641 75.7069C329.641 76.7149 329.017 77.1949 327.769 77.1949H324.937C322.873 77.1949 321.673 76.5709 320.617 74.6509L316.681 67.5949V71.4349C316.681 73.4989 319.081 73.4509 319.081 75.5629C319.081 76.6669 318.409 77.1949 317.017 77.1949Z" fill="#800C00"/>
<path d="M348.459 77.1949H342.027C340.635 77.1949 339.963 76.6669 339.963 75.5629C339.963 73.4509 342.363 73.4989 342.363 71.4349V65.4829C342.363 63.5149 339.963 63.4669 339.963 61.5469C339.963 60.5869 340.539 60.1069 342.027 59.7229L344.811 59.0509C345.627 58.8589 346.347 58.7149 346.875 58.7149C348.027 58.7149 348.603 59.4349 348.603 60.9229V61.1629C353.067 57.1789 359.787 57.8989 359.787 64.8109V71.4349C359.787 73.4989 362.187 73.4509 362.187 75.5629C362.187 76.6669 361.515 77.1949 360.123 77.1949H353.691C352.299 77.1949 351.627 76.6669 351.627 75.5629C351.627 73.4509 353.547 73.4989 353.547 71.4349V65.0029C353.547 62.6989 350.523 62.4589 348.603 64.5709V71.4349C348.603 73.4989 350.523 73.4509 350.523 75.5629C350.523 76.6669 349.851 77.1949 348.459 77.1949Z" fill="#800C00"/>
<path d="M370.665 77.4349C365.961 77.4349 362.457 74.2189 362.457 68.6029C362.457 62.7469 366.297 58.7149 371.817 58.7149C375.801 58.7149 377.865 60.8269 377.865 63.6109C377.865 66.7309 375.273 68.6509 371.481 68.6509C370.425 68.6509 369.321 68.5549 368.169 68.2189C368.697 70.5229 370.089 72.4909 372.633 72.4909C375.561 72.4909 376.617 69.8989 377.529 69.8989C377.961 69.8989 378.201 70.4269 378.201 71.2909C378.201 74.4589 375.177 77.4349 370.665 77.4349ZM367.929 65.7229C371.049 65.4349 372.345 64.0429 372.345 62.8909C372.345 62.0749 371.721 61.4509 370.713 61.4509C368.985 61.4509 368.025 63.3229 367.929 65.7229Z" fill="#800C00"/>
<path d="M390.184 77.1949H387.064C386.248 77.1949 385.72 76.8109 385.48 76.0429L382.168 65.7229C380.872 61.7389 378.952 62.5069 378.952 60.4909C378.952 59.2909 379.672 58.9069 380.968 58.9069H387.832C389.128 58.9069 389.848 59.2909 389.848 60.4909C389.848 62.5069 387.688 62.3149 388.36 64.4749L389.944 69.7069C390.136 70.3309 390.712 70.3309 390.904 69.7069L393.784 59.7229C393.976 59.0509 394.456 58.7149 395.128 58.7149C395.8 58.7149 396.232 59.0509 396.424 59.7229L399.4 69.7069C399.592 70.3309 400.168 70.3309 400.36 69.7069L401.896 64.5229C402.568 62.3149 400.408 62.5549 400.408 60.5389C400.408 59.3389 401.128 58.9549 402.424 58.9549H405.496C406.792 58.9549 407.512 59.3389 407.512 60.5389C407.512 62.5549 405.544 61.6429 404.296 65.7709L401.176 76.0429C400.936 76.8109 400.456 77.1949 399.64 77.1949H396.52C395.704 77.1949 395.176 76.8109 394.936 76.0429L393.64 72.0589C393.496 71.5789 393.064 71.5789 392.92 72.0589L391.72 76.0429C391.48 76.8109 391 77.1949 390.184 77.1949Z" fill="#800C00"/>
<path d="M28.642 125.195H21.73C20.338 125.195 19.666 124.667 19.666 123.563C19.666 121.451 22.066 121.499 22.066 119.435V109.595H20.962C20.098 109.595 19.666 109.115 19.666 108.251C19.666 107.387 20.098 106.955 20.962 106.955H22.066C21.298 105.467 20.962 104.219 20.962 102.875C20.962 99.2269 23.506 96.8749 27.538 96.8749C30.802 96.8749 33.106 98.4589 33.106 100.955C33.106 102.683 32.002 103.979 30.178 103.979C26.914 103.979 27.442 99.7069 26.002 99.7069C25.426 99.7069 24.994 100.427 24.994 101.579C24.994 103.307 26.002 105.179 28.306 106.955H30.082C30.946 106.955 31.378 107.387 31.378 108.251C31.378 109.115 30.946 109.595 30.082 109.595H28.306V119.435C28.306 121.499 30.706 121.451 30.706 123.563C30.706 124.667 30.034 125.195 28.642 125.195Z" fill="#800C00"/>
<path d="M40.1028 125.435C35.3988 125.435 31.8948 122.219 31.8948 116.603C31.8948 110.747 35.7348 106.715 41.2548 106.715C45.2388 106.715 47.3028 108.827 47.3028 111.611C47.3028 114.731 44.7108 116.651 40.9188 116.651C39.8628 116.651 38.7588 116.555 37.6068 116.219C38.1348 118.523 39.5268 120.491 42.0708 120.491C44.9988 120.491 46.0548 117.899 46.9668 117.899C47.3988 117.899 47.6388 118.427 47.6388 119.291C47.6388 122.459 44.6148 125.435 40.1028 125.435ZM37.3668 113.723C40.4868 113.435 41.7828 112.043 41.7828 110.891C41.7828 110.075 41.1588 109.451 40.1508 109.451C38.4228 109.451 37.4628 111.323 37.3668 113.723Z" fill="#800C00"/>
<path d="M58.6019 110.939C58.6019 109.883 58.0259 109.403 57.2099 109.403C55.1459 109.403 56.2979 113.675 53.0339 113.675C51.4019 113.675 50.3459 112.571 50.3459 110.987C50.3459 108.347 53.2739 106.715 57.2579 106.715C61.9619 106.715 64.8419 109.019 64.8419 113.771V119.435C64.8419 121.403 67.2419 120.491 67.2419 121.979C67.2419 123.371 65.1299 125.435 62.6819 125.435C60.9539 125.435 59.2739 124.427 58.7459 122.171C57.6419 124.283 55.6739 125.435 53.6099 125.435C51.0659 125.435 49.3379 123.611 49.3379 120.683C49.3379 113.963 58.6019 115.931 58.6019 110.939ZM58.6019 115.979C56.9699 117.083 55.1939 117.611 55.1939 119.339C55.1939 121.739 58.6019 121.307 58.6019 116.891V115.979Z" fill="#800C00"/>
<path d="M68.6474 119.867V109.595H67.5914C66.7274 109.595 66.2954 109.115 66.2954 108.251C66.2954 107.435 66.6314 106.907 67.5434 106.523C69.7994 105.515 71.8154 103.691 73.1114 101.387C73.3514 100.955 73.6874 100.763 74.1674 100.763C74.6474 100.763 74.8874 101.003 74.8874 101.483V106.955H75.9434C76.8074 106.955 77.2874 107.387 77.2874 108.251C77.2874 109.115 76.8074 109.595 75.9434 109.595H74.8874V119.435C74.8874 121.499 77.2874 121.451 77.2874 123.563C77.2874 124.667 76.6154 125.195 75.2234 125.195H73.7354C70.5194 125.195 68.6474 123.227 68.6474 119.867Z" fill="#800C00"/>
<path d="M90.3078 107.723L93.0918 107.051C93.9078 106.859 94.6278 106.715 95.1558 106.715C96.3078 106.715 96.8838 107.435 96.8838 108.923V119.435C96.8838 121.403 99.2838 120.491 99.2838 121.979C99.2838 123.371 97.1718 125.435 94.7238 125.435C93.1878 125.435 91.7478 124.667 91.0278 122.939L90.9318 122.651C86.4678 127.019 80.1798 126.491 80.1798 119.339V113.483C80.1798 111.515 77.7798 111.467 77.7798 109.547C77.7798 108.587 78.3558 108.107 79.8438 107.723L82.6278 107.051C83.4438 106.859 84.1638 106.715 84.6918 106.715C85.8438 106.715 86.4198 107.435 86.4198 108.923V119.147C86.4198 121.787 88.8198 121.739 90.6438 119.627V113.483C90.6438 111.515 88.2438 111.467 88.2438 109.547C88.2438 108.587 88.8198 108.107 90.3078 107.723Z" fill="#800C00"/>
<path d="M109.455 125.195H102.543C101.151 125.195 100.479 124.667 100.479 123.563C100.479 121.451 102.879 121.499 102.879 119.435V113.483C102.879 111.515 100.479 111.467 100.479 109.547C100.479 108.587 101.055 108.107 102.543 107.723L105.327 107.051C106.335 106.811 106.959 106.715 107.391 106.715C108.543 106.715 109.119 107.435 109.119 108.923V109.835C110.559 107.915 112.383 106.715 114.207 106.715C116.367 106.715 117.903 108.347 117.903 110.747C117.903 113.003 116.559 114.731 114.687 114.731C112.239 114.731 112.431 111.659 111.375 111.659C110.271 111.659 109.119 114.827 109.119 118.283V119.435C109.119 121.499 111.519 121.451 111.519 123.563C111.519 124.667 110.847 125.195 109.455 125.195Z" fill="#800C00"/>
<path d="M126.353 125.435C121.649 125.435 118.145 122.219 118.145 116.603C118.145 110.747 121.985 106.715 127.505 106.715C131.489 106.715 133.553 108.827 133.553 111.611C133.553 114.731 130.961 116.651 127.169 116.651C126.113 116.651 125.009 116.555 123.857 116.219C124.385 118.523 125.777 120.491 128.321 120.491C131.249 120.491 132.305 117.899 133.217 117.899C133.649 117.899 133.889 118.427 133.889 119.291C133.889 122.459 130.865 125.435 126.353 125.435ZM123.617 113.723C126.737 113.435 128.033 112.043 128.033 110.891C128.033 110.075 127.409 109.451 126.401 109.451C124.673 109.451 123.713 111.323 123.617 113.723Z" fill="#800C00"/>
<path d="M137.364 119.051C139.812 119.051 140.244 122.747 142.836 122.747C143.796 122.747 144.42 122.267 144.42 121.547C144.42 118.715 135.348 118.139 135.348 112.139C135.348 108.827 138.132 106.715 142.452 106.715C146.34 106.715 149.412 108.443 149.412 110.699C149.412 111.995 148.452 113.051 147.156 113.051C144.756 113.051 144.324 109.403 141.924 109.403C141.156 109.403 140.628 109.787 140.628 110.411C140.628 113.051 149.844 113.771 149.844 119.867C149.844 123.323 146.916 125.435 142.116 125.435C137.94 125.435 135.108 123.851 135.108 121.499C135.108 120.155 136.02 119.051 137.364 119.051Z" fill="#800C00"/>
<path d="M169.414 110.939C169.414 109.883 168.838 109.403 168.022 109.403C165.958 109.403 167.11 113.675 163.846 113.675C162.214 113.675 161.158 112.571 161.158 110.987C161.158 108.347 164.086 106.715 168.07 106.715C172.774 106.715 175.654 109.019 175.654 113.771V119.435C175.654 121.403 178.054 120.491 178.054 121.979C178.054 123.371 175.942 125.435 173.494 125.435C171.766 125.435 170.086 124.427 169.558 122.171C168.454 124.283 166.486 125.435 164.422 125.435C161.878 125.435 160.15 123.611 160.15 120.683C160.15 113.963 169.414 115.931 169.414 110.939ZM169.414 115.979C167.782 117.083 166.006 117.611 166.006 119.339C166.006 121.739 169.414 121.307 169.414 116.891V115.979Z" fill="#F77635"/>
<path d="M189.636 107.723L192.42 107.051C193.236 106.859 193.956 106.715 194.484 106.715C195.636 106.715 196.212 107.435 196.212 108.923V119.435C196.212 121.403 198.612 120.491 198.612 121.979C198.612 123.371 196.5 125.435 194.052 125.435C192.516 125.435 191.076 124.667 190.356 122.939L190.26 122.651C185.796 127.019 179.508 126.491 179.508 119.339V113.483C179.508 111.515 177.108 111.467 177.108 109.547C177.108 108.587 177.684 108.107 179.172 107.723L181.956 107.051C182.772 106.859 183.492 106.715 184.02 106.715C185.172 106.715 185.748 107.435 185.748 108.923V119.147C185.748 121.787 188.148 121.739 189.972 119.627V113.483C189.972 111.515 187.572 111.467 187.572 109.547C187.572 108.587 188.148 108.107 189.636 107.723Z" fill="#F77635"/>
<path d="M200.226 119.867V109.595H199.17C198.306 109.595 197.874 109.115 197.874 108.251C197.874 107.435 198.21 106.907 199.122 106.523C201.378 105.515 203.394 103.691 204.69 101.387C204.93 100.955 205.266 100.763 205.746 100.763C206.226 100.763 206.466 101.003 206.466 101.483V106.955H207.522C208.386 106.955 208.866 107.387 208.866 108.251C208.866 109.115 208.386 109.595 207.522 109.595H206.466V119.435C206.466 121.499 208.866 121.451 208.866 123.563C208.866 124.667 208.194 125.195 206.802 125.195H205.314C202.098 125.195 200.226 123.227 200.226 119.867Z" fill="#F77635"/>
<path d="M209.598 116.075C209.598 110.027 213.438 106.715 218.814 106.715C224.19 106.715 228.03 110.027 228.03 116.075C228.03 122.123 224.19 125.435 218.814 125.435C213.438 125.435 209.598 122.123 209.598 116.075ZM221.934 117.707C221.934 113.915 220.494 109.403 218.046 109.403C216.462 109.403 215.742 111.659 215.742 114.299C215.742 118.139 217.182 122.747 219.63 122.747C221.214 122.747 221.934 120.443 221.934 117.707Z" fill="#F77635"/>
<path d="M237.271 125.195H230.839C229.447 125.195 228.775 124.667 228.775 123.563C228.775 121.451 231.175 121.499 231.175 119.435V113.483C231.175 111.515 228.775 111.467 228.775 109.547C228.775 108.587 229.351 108.107 230.839 107.723L233.623 107.051C234.439 106.859 235.159 106.715 235.687 106.715C236.839 106.715 237.415 107.435 237.415 108.923V109.355C240.103 105.803 245.383 105.659 247.015 109.499C250.135 105.083 257.575 105.659 257.575 112.187V119.435C257.575 121.499 259.975 121.451 259.975 123.563C259.975 124.667 259.303 125.195 257.911 125.195H251.479C250.087 125.195 249.415 124.667 249.415 123.563C249.415 121.451 251.335 121.499 251.335 119.435V113.003C251.335 111.275 249.127 110.507 247.495 112.283V119.435C247.495 121.499 248.695 121.451 248.695 123.563C248.695 124.667 248.023 125.195 246.631 125.195H242.119C240.727 125.195 240.055 124.667 240.055 123.563C240.055 121.451 241.255 121.499 241.255 119.435V113.003C241.255 111.131 238.999 110.411 237.415 112.763V119.435C237.415 121.499 239.335 121.451 239.335 123.563C239.335 124.667 238.663 125.195 237.271 125.195Z" fill="#F77635"/>
<path d="M270.196 110.939C270.196 109.883 269.62 109.403 268.804 109.403C266.74 109.403 267.892 113.675 264.628 113.675C262.996 113.675 261.94 112.571 261.94 110.987C261.94 108.347 264.868 106.715 268.852 106.715C273.556 106.715 276.436 109.019 276.436 113.771V119.435C276.436 121.403 278.836 120.491 278.836 121.979C278.836 123.371 276.724 125.435 274.276 125.435C272.548 125.435 270.868 124.427 270.34 122.171C269.236 124.283 267.268 125.435 265.204 125.435C262.66 125.435 260.932 123.611 260.932 120.683C260.932 113.963 270.196 115.931 270.196 110.939ZM270.196 115.979C268.564 117.083 266.788 117.611 266.788 119.339C266.788 121.739 270.196 121.307 270.196 116.891V115.979Z" fill="#F77635"/>
<path d="M280.241 119.867V109.595H279.185C278.321 109.595 277.889 109.115 277.889 108.251C277.889 107.435 278.225 106.907 279.137 106.523C281.393 105.515 283.409 103.691 284.705 101.387C284.945 100.955 285.281 100.763 285.761 100.763C286.241 100.763 286.481 101.003 286.481 101.483V106.955H287.537C288.401 106.955 288.881 107.387 288.881 108.251C288.881 109.115 288.401 109.595 287.537 109.595H286.481V119.435C286.481 121.499 288.881 121.451 288.881 123.563C288.881 124.667 288.209 125.195 286.817 125.195H285.329C282.113 125.195 280.241 123.227 280.241 119.867Z" fill="#F77635"/>
<path d="M292.386 102.155C292.386 100.139 293.778 98.7469 295.842 98.7469C297.858 98.7469 299.25 100.139 299.25 102.155C299.25 104.219 297.858 105.611 295.842 105.611C293.778 105.611 292.386 104.219 292.386 102.155ZM298.818 125.195H292.386C290.994 125.195 290.322 124.667 290.322 123.563C290.322 121.451 292.722 121.499 292.722 119.435V113.483C292.722 111.515 290.322 111.467 290.322 109.547C290.322 108.587 290.898 108.107 292.386 107.723L295.17 107.051C295.986 106.859 296.706 106.715 297.234 106.715C298.386 106.715 298.962 107.435 298.962 108.923V119.435C298.962 121.499 300.882 121.451 300.882 123.563C300.882 124.667 300.21 125.195 298.818 125.195Z" fill="#F77635"/>
<path d="M301.614 116.603C301.614 110.747 305.502 106.715 310.878 106.715C314.43 106.715 317.118 108.443 317.118 111.131C317.118 113.051 315.726 114.491 313.806 114.491C311.982 114.491 310.734 113.243 310.734 111.035C310.734 109.979 310.446 109.451 309.822 109.451C308.526 109.451 307.518 111.947 307.518 114.731C307.518 117.707 308.67 120.779 311.79 120.779C314.766 120.779 315.678 117.899 316.734 117.899C317.118 117.899 317.406 118.235 317.406 119.291C317.406 122.699 314.238 125.435 309.87 125.435C304.974 125.435 301.614 122.027 301.614 116.603Z" fill="#F77635"/>
<path d="M328.368 110.939C328.368 109.883 327.792 109.403 326.976 109.403C324.912 109.403 326.064 113.675 322.8 113.675C321.168 113.675 320.112 112.571 320.112 110.987C320.112 108.347 323.04 106.715 327.024 106.715C331.728 106.715 334.608 109.019 334.608 113.771V119.435C334.608 121.403 337.008 120.491 337.008 121.979C337.008 123.371 334.896 125.435 332.448 125.435C330.72 125.435 329.04 124.427 328.512 122.171C327.408 124.283 325.44 125.435 323.376 125.435C320.832 125.435 319.104 123.611 319.104 120.683C319.104 113.963 328.368 115.931 328.368 110.939ZM328.368 115.979C326.736 117.083 324.96 117.611 324.96 119.339C324.96 121.739 328.368 121.307 328.368 116.891V115.979Z" fill="#F77635"/>
<path d="M347.439 125.195H340.527C339.135 125.195 338.463 124.667 338.463 123.563C338.463 121.451 340.863 121.499 340.863 119.435V103.595C340.863 101.627 338.463 101.579 338.463 99.6589C338.463 98.6989 339.039 98.2189 340.527 97.8349L343.311 97.1629C344.079 96.9709 344.847 96.8749 345.327 96.8749C346.527 96.8749 347.103 97.5469 347.103 99.0349V119.435C347.103 121.499 349.503 121.451 349.503 123.563C349.503 124.667 348.831 125.195 347.439 125.195Z" fill="#F77635"/>
<path d="M359.908 125.195H352.996C351.604 125.195 350.932 124.667 350.932 123.563C350.932 121.451 353.332 121.499 353.332 119.435V103.595C353.332 101.627 350.932 101.579 350.932 99.6589C350.932 98.6989 351.508 98.2189 352.996 97.8349L355.78 97.1629C356.548 96.9709 357.316 96.8749 357.796 96.8749C358.996 96.8749 359.572 97.5469 359.572 99.0349V119.435C359.572 121.499 361.972 121.451 361.972 123.563C361.972 124.667 361.3 125.195 359.908 125.195Z" fill="#F77635"/>
<path d="M370.827 126.155L371.163 125.195H369.579C368.763 125.195 368.235 124.811 367.995 124.043L364.683 113.723C363.387 109.739 361.467 110.507 361.467 108.491C361.467 107.291 362.187 106.907 363.483 106.907H370.347C371.643 106.907 372.363 107.291 372.363 108.443C372.363 110.507 370.203 110.315 370.875 112.475L372.459 117.707C372.651 118.331 373.227 118.331 373.419 117.707L374.955 112.523C375.627 110.315 373.467 110.555 373.467 108.491C373.467 107.339 374.187 106.955 375.483 106.955H378.555C379.851 106.955 380.571 107.339 380.571 108.539C380.571 110.555 378.603 109.643 377.355 113.771L374.235 124.043L372.363 129.995C370.347 136.331 363.099 134.555 363.099 130.859C363.099 127.355 369.435 130.283 370.827 126.155Z" fill="#F77635"/>
<path d="M382.01 122.075C382.01 120.059 383.354 118.715 385.37 118.715C387.386 118.715 388.73 120.059 388.73 122.075C388.73 124.091 387.386 125.435 385.37 125.435C383.354 125.435 382.01 124.091 382.01 122.075Z" fill="#F6631C"/>
</g>
<defs>
<filter id="filter0_d_17862_129073" x="0.85791" y="0.874939" width="410.332" height="137" filterUnits="userSpaceOnUse" color-interpolation-filters="sRGB">
<feFlood flood-opacity="0" result="BackgroundImageFix"/>
<feColorMatrix in="SourceAlpha" type="matrix" values="0 0 0 0 0 0 0 0 0 0 0 0 0 0 0 0 0 0 127 0" result="hardAlpha"/>
<feOffset dx="3.67824" dy="3.67824"/>
<feComposite in2="hardAlpha" operator="out"/>
<feColorMatrix type="matrix" values="0 0 0 0 0.898039 0 0 0 0 0.847059 0 0 0 0 0.709804 0 0 0 1 0"/>
<feBlend mode="normal" in2="BackgroundImageFix" result="effect1_dropShadow_17862_129073"/>
<feBlend mode="normal" in="SourceGraphic" in2="effect1_dropShadow_17862_129073" result="shape"/>
</filter>
</defs>
</svg>
