<svg width="604" height="222" viewBox="0 0 604 222" fill="none" xmlns="http://www.w3.org/2000/svg">
<g filter="url(#filter0_d_17862_129069)">
<path d="M59.2336 16.82C59.2336 8.53998 66.4336 0.0799866 70.4836 0.0799866C71.7436 0.0799866 72.5536 0.889987 72.5536 1.87998C72.5536 4.66999 66.8836 7.36999 66.8836 10.07C66.8836 12.77 72.5536 12.5 72.5536 18.08C72.5536 21.86 69.9436 24.38 65.8936 24.38C61.8436 24.38 59.2336 21.77 59.2336 16.82ZM73.9936 16.82C73.9936 8.53998 81.1936 0.0799866 85.2436 0.0799866C86.5036 0.0799866 87.3136 0.889987 87.3136 1.87998C87.3136 4.66999 81.6436 7.36999 81.6436 10.07C81.6436 12.77 87.3136 12.5 87.3136 18.08C87.3136 21.86 84.7036 24.38 80.6536 24.38C76.6036 24.38 73.9936 21.77 73.9936 16.82Z" fill="#F6631C"/>
<path d="M106.825 55.25H93.8654C91.6154 55.25 89.9954 54.53 89.9954 52.19C89.9954 48.23 94.4954 48.32 94.4954 44.45V14.75C94.4954 10.88 89.9954 10.97 89.9954 7.00999C89.9954 4.66999 91.6154 3.94999 93.8654 3.94999H106.825C109.075 3.94999 110.695 4.66999 110.695 7.00999C110.695 10.97 106.195 10.88 106.195 14.75V25.1C106.195 26.63 106.915 27.35 108.445 27.35H119.245C120.775 27.35 121.495 26.63 121.495 25.1V14.75C121.495 10.88 116.995 10.97 116.995 7.00999C116.995 4.66999 118.615 3.94999 120.865 3.94999H133.825C136.075 3.94999 137.695 4.66999 137.695 7.00999C137.695 10.97 133.195 10.88 133.195 14.75V44.45C133.195 48.32 137.695 48.23 137.695 52.19C137.695 54.53 136.075 55.25 133.825 55.25H120.865C118.615 55.25 116.995 54.53 116.995 52.19C116.995 48.23 121.495 48.32 121.495 44.45V34.55C121.495 33.02 120.775 32.3 119.245 32.3H108.445C106.915 32.3 106.195 33.02 106.195 34.55V44.45C106.195 48.32 110.695 48.23 110.695 52.19C110.695 54.53 109.075 55.25 106.825 55.25Z" fill="#F6631C"/>
<path d="M139.116 29.42C139.116 13.76 148.566 3.49999 163.056 3.49999C177.546 3.49999 186.996 13.76 186.996 29.42C186.996 45.17 177.456 55.7 163.056 55.7C148.656 55.7 139.116 45.17 139.116 29.42ZM165.306 50.57C172.506 50.57 175.746 42.47 175.746 33.38C175.746 21.77 170.436 8.53998 160.806 8.53998C153.606 8.53998 150.366 16.64 150.366 25.73C150.366 37.34 155.676 50.57 165.306 50.57Z" fill="#F6631C"/>
<path d="M191.878 44.45V14.75C191.878 10.88 187.378 10.97 187.378 7.00999C187.378 4.66999 188.998 3.94999 191.248 3.94999H199.618C201.148 3.94999 202.318 4.57999 203.128 5.83999L221.938 33.83C222.388 34.55 223.378 34.37 223.378 33.38V14.75C223.378 10.88 218.878 10.97 218.878 7.00999C218.878 4.66999 220.498 3.94999 222.748 3.94999H228.958C231.208 3.94999 232.828 4.66999 232.828 7.00999C232.828 10.97 228.328 10.88 228.328 14.75V53C228.328 54.53 227.608 55.25 226.078 55.25H224.458C222.928 55.25 221.758 54.62 220.948 53.36L198.268 19.61C197.638 18.71 196.828 18.98 196.828 20.06V44.45C196.828 48.32 201.328 48.23 201.328 52.19C201.328 54.53 199.708 55.25 197.458 55.25H191.248C188.998 55.25 187.378 54.53 187.378 52.19C187.378 48.23 191.878 48.32 191.878 44.45Z" fill="#F6631C"/>
<path d="M254.892 50.3H256.782C262.362 50.3 266.772 47.24 269.112 41.21C270.012 38.87 270.732 38.24 271.992 38.24C273.432 38.24 274.602 39.14 274.422 41.03L273.432 53C273.342 54.53 272.442 55.25 270.912 55.25H239.412C237.162 55.25 235.542 54.53 235.542 52.19C235.542 48.23 240.042 48.32 240.042 44.45V14.75C240.042 10.88 235.542 10.88 235.542 7.00999C235.542 4.66999 237.162 3.94999 239.502 3.94999H269.742C271.902 3.94999 272.982 4.93999 273.252 7.09999L274.422 17.36C274.602 19.16 273.522 20.06 272.082 20.06C270.822 20.06 270.012 19.43 268.662 16.73C266.412 12.41 263.352 8.89999 256.782 8.89999H254.892C252.732 8.89999 251.742 9.88999 251.742 12.05V22.85C251.742 24.38 252.462 25.1 253.902 25.1H255.702C258.312 25.1 259.392 23.93 259.932 21.68C260.382 19.88 261.192 18.8 263.082 18.8C264.612 18.8 265.422 19.52 265.602 21.05L267.042 34.37C267.222 36.08 266.322 36.98 264.702 36.98C263.172 36.98 262.092 36.26 261.282 33.74C260.202 30.68 258.672 30.05 255.702 30.05H253.902C252.462 30.05 251.742 30.77 251.742 32.3V47.15C251.742 49.31 252.732 50.3 254.892 50.3Z" fill="#F6631C"/>
<path d="M294.122 35.81L283.952 16.73C280.082 9.43999 276.302 10.79 276.302 7.00999C276.302 4.84999 277.472 3.94999 280.082 3.94999H293.402C296.012 3.94999 297.182 5.02999 297.182 6.91999C297.182 10.07 294.032 10.88 295.922 14.39L302.852 27.17C303.572 28.52 304.292 28.52 305.012 27.17L311.672 14.39C313.562 10.88 310.412 10.07 310.412 6.91999C310.412 5.02999 311.582 3.94999 314.192 3.94999H319.952C322.562 3.94999 323.732 4.84999 323.732 7.00999C323.732 10.79 319.952 9.43999 316.082 16.73L305.822 36.26V44.45C305.822 48.32 310.322 48.23 310.322 52.19C310.322 54.26 309.062 55.25 306.452 55.25H293.492C290.882 55.25 289.622 54.26 289.622 52.19C289.622 48.23 294.122 48.32 294.122 44.45V35.81Z" fill="#F6631C"/>
<path d="M328.491 67.49C327.231 67.49 326.421 66.68 326.421 65.69C326.421 62.9 332.091 60.2 332.091 57.5C332.091 54.8 326.421 55.07 326.421 49.49C326.421 45.71 329.031 43.19 333.081 43.19C337.131 43.19 339.741 45.8 339.741 50.75C339.741 59.03 332.541 67.49 328.491 67.49Z" fill="#F6631C"/>
<path d="M376.825 55.25H363.865C361.615 55.25 359.995 54.53 359.995 52.19C359.995 48.23 364.495 48.32 364.495 44.45V14.75C364.495 10.88 359.995 10.97 359.995 7.00999C359.995 4.66999 361.615 3.94999 363.865 3.94999H376.825C379.075 3.94999 380.695 4.66999 380.695 7.00999C380.695 10.97 376.195 10.88 376.195 14.75V25.1C376.195 26.63 376.915 27.35 378.445 27.35H389.245C390.775 27.35 391.495 26.63 391.495 25.1V14.75C391.495 10.88 386.995 10.97 386.995 7.00999C386.995 4.66999 388.615 3.94999 390.865 3.94999H403.825C406.075 3.94999 407.695 4.66999 407.695 7.00999C407.695 10.97 403.195 10.88 403.195 14.75V44.45C403.195 48.32 407.695 48.23 407.695 52.19C407.695 54.53 406.075 55.25 403.825 55.25H390.865C388.615 55.25 386.995 54.53 386.995 52.19C386.995 48.23 391.495 48.32 391.495 44.45V34.55C391.495 33.02 390.775 32.3 389.245 32.3H378.445C376.915 32.3 376.195 33.02 376.195 34.55V44.45C376.195 48.32 380.695 48.23 380.695 52.19C380.695 54.53 379.075 55.25 376.825 55.25Z" fill="#800C00"/>
<path d="M409.116 29.42C409.116 13.76 418.566 3.49999 433.056 3.49999C447.546 3.49999 456.996 13.76 456.996 29.42C456.996 45.17 447.456 55.7 433.056 55.7C418.656 55.7 409.116 45.17 409.116 29.42ZM435.306 50.57C442.506 50.57 445.746 42.47 445.746 33.38C445.746 21.77 440.436 8.53998 430.806 8.53998C423.606 8.53998 420.366 16.64 420.366 25.73C420.366 37.34 425.676 50.57 435.306 50.57Z" fill="#800C00"/>
<path d="M481.27 55.25H475.42C473.89 55.25 472.9 54.53 472.45 53.09L460.75 16.73C458.32 9.25999 454.72 10.7 454.72 6.91999C454.72 4.66999 456.07 3.94999 458.5 3.94999H471.82C474.25 3.94999 475.6 4.66999 475.6 6.82999C475.6 10.7 471.1 10.34 472.36 14.39L480.82 41.12C481.18 42.29 482.26 42.29 482.62 41.12L486.58 28.16C487.03 26.72 486.94 25.28 486.49 23.84L484.24 16.73C481.81 9.25999 478.21 10.7 478.21 6.91999C478.21 4.66999 479.56 3.94999 481.99 3.94999H495.31C497.74 3.94999 499.09 4.66999 499.09 6.82999C499.09 10.7 494.59 10.34 495.85 14.39L504.31 41.12C504.67 42.29 505.75 42.29 506.11 41.12L514.21 14.39C515.47 10.25 510.97 10.7 510.97 6.82999C510.97 4.66999 512.32 3.94999 514.75 3.94999H520.96C523.39 3.94999 524.74 4.66999 524.74 6.91999C524.74 10.7 521.05 8.98999 518.71 16.73L507.64 53.09C507.19 54.53 506.29 55.25 504.76 55.25H498.91C497.38 55.25 496.39 54.53 495.94 53.09L490.63 36.44C490.36 35.54 489.55 35.54 489.28 36.44L484.15 53.09C483.7 54.53 482.8 55.25 481.27 55.25Z" fill="#800C00"/>
<path d="M102.419 136.25H88.1085C85.8585 136.25 84.2385 135.53 84.2385 133.19C84.2385 129.23 88.7385 129.32 88.7385 125.45V95.75C88.7385 91.88 84.2385 91.88 84.2385 88.01C84.2385 85.67 85.8585 84.95 88.1985 84.95H102.419C113.669 84.95 126.179 90.44 126.179 109.16C126.179 127.88 114.749 136.25 102.419 136.25ZM103.949 131.3C109.529 131.3 114.479 123.29 114.479 109.16C114.479 97.55 109.529 89.9 103.139 89.9C101.339 89.9 100.439 90.53 100.439 93.05V127.34C100.439 130.22 101.879 131.3 103.949 131.3Z" fill="#800C00"/>
<path d="M142.992 136.25H130.032C127.782 136.25 126.162 135.53 126.162 133.19C126.162 129.23 130.662 129.32 130.662 125.45V95.75C130.662 91.88 126.162 91.97 126.162 88.01C126.162 85.67 127.782 84.95 130.032 84.95H142.992C145.242 84.95 146.862 85.67 146.862 88.01C146.862 91.97 142.362 91.88 142.362 95.75V125.45C142.362 129.32 146.862 129.23 146.862 133.19C146.862 135.53 145.242 136.25 142.992 136.25Z" fill="#800C00"/>
<path d="M168.6 136.25H154.29C152.04 136.25 150.42 135.53 150.42 133.19C150.42 129.23 154.92 129.32 154.92 125.45V95.75C154.92 91.88 150.42 91.88 150.42 88.01C150.42 85.67 152.04 84.95 154.38 84.95H168.6C179.85 84.95 192.36 90.44 192.36 109.16C192.36 127.88 180.93 136.25 168.6 136.25ZM170.13 131.3C175.71 131.3 180.66 123.29 180.66 109.16C180.66 97.55 175.71 89.9 169.32 89.9C167.52 89.9 166.62 90.53 166.62 93.05V127.34C166.62 130.22 168.06 131.3 170.13 131.3Z" fill="#800C00"/>
<path d="M228.6 116.81L218.43 97.73C214.56 90.44 210.78 91.79 210.78 88.01C210.78 85.85 211.95 84.95 214.56 84.95H227.88C230.49 84.95 231.66 86.03 231.66 87.92C231.66 91.07 228.51 91.88 230.4 95.39L237.33 108.17C238.05 109.52 238.77 109.52 239.49 108.17L246.15 95.39C248.04 91.88 244.89 91.07 244.89 87.92C244.89 86.03 246.06 84.95 248.67 84.95H254.43C257.04 84.95 258.21 85.85 258.21 88.01C258.21 91.79 254.43 90.44 250.56 97.73L240.3 117.26V125.45C240.3 129.32 244.8 129.23 244.8 133.19C244.8 135.26 243.54 136.25 240.93 136.25H227.97C225.36 136.25 224.1 135.26 224.1 133.19C224.1 129.23 228.6 129.32 228.6 125.45V116.81Z" fill="#800C00"/>
<path d="M255.087 110.42C255.087 94.76 264.537 84.5 279.027 84.5C293.517 84.5 302.967 94.76 302.967 110.42C302.967 126.17 293.427 136.7 279.027 136.7C264.627 136.7 255.087 126.17 255.087 110.42ZM281.277 131.57C288.477 131.57 291.717 123.47 291.717 114.38C291.717 102.77 286.407 89.54 276.777 89.54C269.577 89.54 266.337 97.64 266.337 106.73C266.337 118.34 271.647 131.57 281.277 131.57Z" fill="#800C00"/>
<path d="M339.71 119.33V95.75C339.71 91.88 335.21 91.97 335.21 88.01C335.21 85.94 336.47 84.95 339.08 84.95H345.29C347.9 84.95 349.16 85.94 349.16 88.01C349.16 91.97 344.66 91.88 344.66 95.75V119.33C344.66 129.77 337.28 136.7 326.3 136.7C315.23 136.7 307.85 129.77 307.85 119.33V95.75C307.85 91.88 303.35 91.97 303.35 88.01C303.35 85.94 304.61 84.95 307.22 84.95H320.18C322.79 84.95 324.05 85.94 324.05 88.01C324.05 91.97 319.55 91.88 319.55 95.75V119.33C319.55 125.72 323.69 130.04 329.63 130.04C335.66 130.04 339.71 125.72 339.71 119.33Z" fill="#800C00"/>
<path d="M412.196 126.08C412.196 127.79 411.746 128.96 410.666 129.95C405.986 134.27 399.056 136.7 392.306 136.7C378.356 136.7 368.906 126.08 368.906 110.24C368.906 94.85 377.906 84.5 391.226 84.5C396.896 84.5 399.956 86.12 402.206 86.12C404.456 86.12 405.356 84.5 407.606 84.5C409.136 84.5 409.946 85.22 410.216 86.75L412.106 99.44C412.376 101.24 411.386 102.32 409.676 102.32C407.876 102.32 406.436 101.24 404.276 97.73C401.126 92.78 397.526 89.54 392.216 89.54C384.656 89.54 380.426 96.02 380.426 107.54C380.426 121.49 386.636 131.48 394.826 131.48C398.156 131.48 400.496 129.77 400.496 126.26V121.94C400.496 118.07 395.996 118.16 395.996 114.2C395.996 111.86 397.616 111.14 399.866 111.14H409.946C411.476 111.14 412.196 111.86 412.196 113.39V126.08Z" fill="#800C00"/>
<path d="M434.233 131.3H436.123C441.703 131.3 446.113 128.24 448.453 122.21C449.353 119.87 450.073 119.24 451.333 119.24C452.773 119.24 453.943 120.14 453.763 122.03L452.773 134C452.683 135.53 451.783 136.25 450.253 136.25H418.753C416.503 136.25 414.883 135.53 414.883 133.19C414.883 129.23 419.383 129.32 419.383 125.45V95.75C419.383 91.88 414.883 91.88 414.883 88.01C414.883 85.67 416.503 84.95 418.843 84.95H449.083C451.243 84.95 452.323 85.94 452.593 88.1L453.763 98.36C453.943 100.16 452.863 101.06 451.423 101.06C450.163 101.06 449.353 100.43 448.003 97.73C445.753 93.41 442.693 89.9 436.123 89.9H434.233C432.073 89.9 431.083 90.89 431.083 93.05V103.85C431.083 105.38 431.803 106.1 433.243 106.1H435.043C437.653 106.1 438.733 104.93 439.273 102.68C439.723 100.88 440.533 99.8 442.423 99.8C443.953 99.8 444.763 100.52 444.943 102.05L446.383 115.37C446.563 117.08 445.663 117.98 444.043 117.98C442.513 117.98 441.433 117.26 440.623 114.74C439.543 111.68 438.013 111.05 435.043 111.05H433.243C431.803 111.05 431.083 111.77 431.083 113.3V128.15C431.083 130.31 432.073 131.3 434.233 131.3Z" fill="#800C00"/>
<path d="M484.173 136.25H471.213C468.603 136.25 467.343 135.26 467.343 133.19C467.343 129.23 471.843 129.32 471.843 125.45V92.15C471.843 90.71 471.123 89.9 469.773 89.9C467.523 89.9 465.903 92.24 462.033 101.69C461.223 103.58 460.143 104.93 458.163 104.93C456.543 104.93 455.463 103.94 455.733 102.14L457.893 87.2C458.163 85.58 458.883 84.95 460.323 84.95H495.063C496.503 84.95 497.223 85.58 497.493 87.2L499.653 102.14C499.923 103.94 498.843 104.93 497.223 104.93C495.243 104.93 494.163 103.58 493.353 101.69C489.483 92.24 487.863 89.9 485.613 89.9C484.263 89.9 483.543 90.71 483.543 92.15V125.45C483.543 129.32 488.043 129.23 488.043 133.19C488.043 135.26 486.783 136.25 484.173 136.25Z" fill="#800C00"/>
<path d="M33.8624 167.57L35.7524 180.26C36.0224 182.15 34.8524 183.14 33.1424 183.14C31.8824 183.14 30.6224 182.6 28.9124 179.27C25.8524 173.51 21.3524 170.54 17.0324 170.54C13.6124 170.54 11.1824 172.34 11.1824 175.4C11.1824 185.12 35.9324 187.19 35.9324 203.48C35.9324 212.39 28.5524 217.7 18.6524 217.7C14.0624 217.7 9.56243 216.53 7.85243 216.53C5.96243 216.53 5.15243 217.88 3.17243 217.88C1.55243 217.88 0.742432 216.89 0.742432 215.09V202.4C0.742432 200.51 1.64243 199.7 3.17243 199.7C4.70243 199.7 5.60243 200.51 6.77243 203.21C9.38243 209.6 13.7024 212.75 18.3824 212.75C22.4324 212.75 25.4924 210.32 25.4924 206.54C25.4924 195.83 0.742432 194.03 0.742432 178.37C0.742432 170.63 6.77243 165.5 16.0424 165.5C20.9024 165.5 24.0524 166.94 26.2124 166.94C28.5524 166.94 29.0924 165.32 31.3424 165.32C32.7824 165.32 33.5924 166.04 33.8624 167.57Z" fill="#F6631C"/>
<path d="M38.1733 191.42C38.1733 175.76 47.6233 165.5 62.1133 165.5C76.6033 165.5 86.0533 175.76 86.0533 191.42C86.0533 207.17 76.5133 217.7 62.1133 217.7C47.7133 217.7 38.1733 207.17 38.1733 191.42ZM64.3633 212.57C71.5633 212.57 74.8033 204.47 74.8033 195.38C74.8033 183.77 69.4933 170.54 59.8633 170.54C52.6633 170.54 49.4233 178.64 49.4233 187.73C49.4233 199.34 54.7333 212.57 64.3633 212.57Z" fill="#F6631C"/>
<path d="M110.272 206.45V176.75C110.272 172.88 105.772 172.97 105.772 169.01C105.772 166.67 107.392 165.95 109.642 165.95H119.632C121.162 165.95 122.062 166.67 122.602 168.11L133.312 198.71C133.672 199.79 134.392 199.79 134.752 198.71L145.552 168.11C146.092 166.67 146.992 165.95 148.522 165.95H158.062C160.312 165.95 161.932 166.67 161.932 169.01C161.932 172.97 157.432 172.88 157.432 176.75V206.45C157.432 210.32 161.932 210.23 161.932 214.19C161.932 216.53 160.312 217.25 158.062 217.25H145.102C142.852 217.25 141.232 216.53 141.232 214.19C141.232 210.23 145.732 210.32 145.732 206.45V185.3C145.732 184.67 145.102 184.67 144.922 185.12L134.212 215.09C133.672 216.53 132.772 217.25 131.242 217.25H129.622C128.092 217.25 127.192 216.53 126.652 215.09L116.032 185.12C115.852 184.58 115.222 184.67 115.222 185.3V206.45C115.222 210.32 119.722 210.23 119.722 214.19C119.722 216.53 118.102 217.25 115.852 217.25H109.642C107.392 217.25 105.772 216.53 105.772 214.19C105.772 210.23 110.272 210.32 110.272 206.45Z" fill="#F6631C"/>
<path d="M170.667 204.47L179.217 176.39C180.477 172.16 177.687 172.07 177.687 169.01C177.687 167.39 178.407 165.95 180.657 165.95H190.467C191.997 165.95 192.987 166.67 193.437 168.11L205.137 204.47C207.567 211.94 211.167 210.5 211.167 214.28C211.167 216.53 209.817 217.25 207.387 217.25H194.067C191.727 217.25 190.467 216.62 190.287 214.73V214.37C190.287 210.5 194.877 210.86 193.527 206.81L193.077 205.46C192.627 204.02 191.727 203.3 190.197 203.3H178.497C176.967 203.3 176.067 204.02 175.617 205.46L175.167 206.81C173.817 210.95 178.407 210.5 178.407 214.37C178.407 216.53 177.057 217.25 174.627 217.25H168.417C165.987 217.25 164.637 216.53 164.637 214.28C164.637 210.5 168.327 212.21 170.667 204.47ZM180.027 198.35H188.667C190.197 198.35 190.737 197.63 190.287 196.19L185.067 179.9C184.707 178.73 183.627 178.73 183.267 179.9L178.407 196.19C177.957 197.63 178.497 198.35 180.027 198.35Z" fill="#F6631C"/>
<path d="M218.377 206.45V176.75C218.377 172.88 213.877 172.97 213.877 169.01C213.877 166.67 215.497 165.95 217.747 165.95H226.117C227.647 165.95 228.817 166.58 229.627 167.84L248.437 195.83C248.887 196.55 249.877 196.37 249.877 195.38V176.75C249.877 172.88 245.377 172.97 245.377 169.01C245.377 166.67 246.997 165.95 249.247 165.95H255.457C257.707 165.95 259.327 166.67 259.327 169.01C259.327 172.97 254.827 172.88 254.827 176.75V215C254.827 216.53 254.107 217.25 252.577 217.25H250.957C249.427 217.25 248.257 216.62 247.447 215.36L224.767 181.61C224.137 180.71 223.327 180.98 223.327 182.06V206.45C223.327 210.32 227.827 210.23 227.827 214.19C227.827 216.53 226.207 217.25 223.957 217.25H217.747C215.497 217.25 213.877 216.53 213.877 214.19C213.877 210.23 218.377 210.32 218.377 206.45Z" fill="#F6631C"/>
<path d="M278.961 197.81L268.791 178.73C264.921 171.44 261.141 172.79 261.141 169.01C261.141 166.85 262.311 165.95 264.921 165.95H278.241C280.851 165.95 282.021 167.03 282.021 168.92C282.021 172.07 278.871 172.88 280.761 176.39L287.691 189.17C288.411 190.52 289.131 190.52 289.851 189.17L296.511 176.39C298.401 172.88 295.251 172.07 295.251 168.92C295.251 167.03 296.421 165.95 299.031 165.95H304.791C307.401 165.95 308.571 166.85 308.571 169.01C308.571 172.79 304.791 171.44 300.921 178.73L290.661 198.26V206.45C290.661 210.32 295.161 210.23 295.161 214.19C295.161 216.26 293.901 217.25 291.291 217.25H278.331C275.721 217.25 274.461 216.26 274.461 214.19C274.461 210.23 278.961 210.32 278.961 206.45V197.81Z" fill="#F6631C"/>
<path d="M364.231 200.33V176.75C364.231 172.88 359.731 172.97 359.731 169.01C359.731 166.94 360.991 165.95 363.601 165.95H369.811C372.421 165.95 373.681 166.94 373.681 169.01C373.681 172.97 369.181 172.88 369.181 176.75V200.33C369.181 210.77 361.801 217.7 350.821 217.7C339.751 217.7 332.371 210.77 332.371 200.33V176.75C332.371 172.88 327.871 172.97 327.871 169.01C327.871 166.94 329.131 165.95 331.741 165.95H344.701C347.311 165.95 348.571 166.94 348.571 169.01C348.571 172.97 344.071 172.88 344.071 176.75V200.33C344.071 206.72 348.211 211.04 354.151 211.04C360.181 211.04 364.231 206.72 364.231 200.33Z" fill="#F6631C"/>
<path d="M407.661 167.57L409.551 180.26C409.821 182.15 408.651 183.14 406.941 183.14C405.681 183.14 404.421 182.6 402.711 179.27C399.651 173.51 395.151 170.54 390.831 170.54C387.411 170.54 384.981 172.34 384.981 175.4C384.981 185.12 409.731 187.19 409.731 203.48C409.731 212.39 402.351 217.7 392.451 217.7C387.861 217.7 383.361 216.53 381.651 216.53C379.761 216.53 378.951 217.88 376.971 217.88C375.351 217.88 374.541 216.89 374.541 215.09V202.4C374.541 200.51 375.441 199.7 376.971 199.7C378.501 199.7 379.401 200.51 380.571 203.21C383.181 209.6 387.501 212.75 392.181 212.75C396.231 212.75 399.291 210.32 399.291 206.54C399.291 195.83 374.541 194.03 374.541 178.37C374.541 170.63 380.571 165.5 389.841 165.5C394.701 165.5 397.851 166.94 400.011 166.94C402.351 166.94 402.891 165.32 405.141 165.32C406.581 165.32 407.391 166.04 407.661 167.57Z" fill="#F6631C"/>
<path d="M430.893 212.3H432.783C438.363 212.3 442.773 209.24 445.113 203.21C446.013 200.87 446.733 200.24 447.993 200.24C449.433 200.24 450.603 201.14 450.423 203.03L449.433 215C449.343 216.53 448.443 217.25 446.913 217.25H415.413C413.163 217.25 411.543 216.53 411.543 214.19C411.543 210.23 416.043 210.32 416.043 206.45V176.75C416.043 172.88 411.543 172.88 411.543 169.01C411.543 166.67 413.163 165.95 415.503 165.95H445.743C447.903 165.95 448.983 166.94 449.253 169.1L450.423 179.36C450.603 181.16 449.523 182.06 448.083 182.06C446.823 182.06 446.013 181.43 444.663 178.73C442.413 174.41 439.353 170.9 432.783 170.9H430.893C428.733 170.9 427.743 171.89 427.743 174.05V184.85C427.743 186.38 428.463 187.1 429.903 187.1H431.703C434.313 187.1 435.393 185.93 435.933 183.68C436.383 181.88 437.193 180.8 439.083 180.8C440.613 180.8 441.423 181.52 441.603 183.05L443.043 196.37C443.223 198.08 442.323 198.98 440.703 198.98C439.173 198.98 438.093 198.26 437.283 195.74C436.203 192.68 434.673 192.05 431.703 192.05H429.903C428.463 192.05 427.743 192.77 427.743 194.3V209.15C427.743 211.31 428.733 212.3 430.893 212.3Z" fill="#F6631C"/>
<path d="M470.033 217.25H457.073C454.463 217.25 453.203 216.26 453.203 214.19C453.203 210.23 457.703 210.32 457.703 206.45V176.75C457.703 172.88 453.203 172.88 453.203 169.01C453.203 166.94 454.463 165.95 457.163 165.95H473.813C486.863 165.95 492.623 171.8 492.623 180.17C492.623 186.74 489.023 191.51 483.803 193.4C487.943 194.66 490.553 197.99 491.003 202.85L491.363 206.63C491.723 210.5 494.513 210.95 494.513 214.37C494.513 216.35 493.523 217.25 491.723 217.25H486.593C482.723 217.25 480.743 215.09 480.113 210.14L479.123 201.77C478.583 197.45 475.703 195.2 472.643 195.2H471.563C470.033 195.2 469.403 195.92 469.403 197.45V206.45C469.403 210.32 473.903 210.23 473.903 214.19C473.903 216.26 472.643 217.25 470.033 217.25ZM469.403 174.77V188C469.403 189.53 470.033 190.25 471.473 190.25H472.553C477.863 190.25 480.923 186.74 480.923 180.8C480.923 174.86 477.773 170.9 473.273 170.9C470.663 170.9 469.403 172.16 469.403 174.77Z" fill="#F6631C"/>
<path d="M530.357 167.57L532.247 180.26C532.517 182.15 531.347 183.14 529.637 183.14C528.377 183.14 527.117 182.6 525.407 179.27C522.347 173.51 517.847 170.54 513.527 170.54C510.107 170.54 507.677 172.34 507.677 175.4C507.677 185.12 532.427 187.19 532.427 203.48C532.427 212.39 525.047 217.7 515.147 217.7C510.557 217.7 506.057 216.53 504.347 216.53C502.457 216.53 501.647 217.88 499.667 217.88C498.047 217.88 497.237 216.89 497.237 215.09V202.4C497.237 200.51 498.137 199.7 499.667 199.7C501.197 199.7 502.097 200.51 503.267 203.21C505.877 209.6 510.197 212.75 514.877 212.75C518.927 212.75 521.987 210.32 521.987 206.54C521.987 195.83 497.237 194.03 497.237 178.37C497.237 170.63 503.267 165.5 512.537 165.5C517.397 165.5 520.547 166.94 522.707 166.94C525.047 166.94 525.587 165.32 527.837 165.32C529.277 165.32 530.087 166.04 530.357 167.57Z" fill="#F6631C"/>
<path d="M550.756 203.48C549.496 203.48 548.776 202.22 548.776 199.97C548.776 191.96 557.506 186.56 557.506 177.92C557.506 173.42 555.166 170.54 551.476 170.54C544.276 170.54 545.986 181.7 539.416 181.7C536.716 181.7 535.096 179.81 535.096 176.75C535.096 170.27 542.476 165.5 552.376 165.5C562.456 165.5 569.926 170.45 569.926 178.1C569.926 188 557.506 191.42 553.456 200.78C552.646 202.67 551.836 203.48 550.756 203.48ZM545.086 211.85C545.086 208.07 547.606 205.55 551.386 205.55C555.166 205.55 557.686 208.07 557.686 211.85C557.686 215.63 555.166 218.15 551.386 218.15C547.606 218.15 545.086 215.63 545.086 211.85Z" fill="#F6631C"/>
<path d="M573.838 186.38C572.578 186.38 571.768 185.57 571.768 184.49C571.768 181.79 577.438 179.09 577.438 176.39C577.438 173.69 571.768 173.96 571.768 168.38C571.768 164.6 574.378 162.08 578.428 162.08C582.478 162.08 585.088 164.69 585.088 169.64C585.088 177.92 577.888 186.38 573.838 186.38ZM588.598 186.38C587.338 186.38 586.528 185.57 586.528 184.49C586.528 181.79 592.198 179.09 592.198 176.39C592.198 173.69 586.528 173.96 586.528 168.38C586.528 164.6 589.138 162.08 593.188 162.08C597.238 162.08 599.848 164.69 599.848 169.64C599.848 177.92 592.648 186.38 588.598 186.38Z" fill="#F6631C"/>
</g>
<defs>
<filter id="filter0_d_17862_129069" x="0.742432" y="0.0799866" width="602.784" height="221.748" filterUnits="userSpaceOnUse" color-interpolation-filters="sRGB">
<feFlood flood-opacity="0" result="BackgroundImageFix"/>
<feColorMatrix in="SourceAlpha" type="matrix" values="0 0 0 0 0 0 0 0 0 0 0 0 0 0 0 0 0 0 127 0" result="hardAlpha"/>
<feOffset dx="3.67824" dy="3.67824"/>
<feComposite in2="hardAlpha" operator="out"/>
<feColorMatrix type="matrix" values="0 0 0 0 0.898039 0 0 0 0 0.847059 0 0 0 0 0.709804 0 0 0 1 0"/>
<feBlend mode="normal" in2="BackgroundImageFix" result="effect1_dropShadow_17862_129069"/>
<feBlend mode="normal" in="SourceGraphic" in2="effect1_dropShadow_17862_129069" result="shape"/>
</filter>
</defs>
</svg>
