<svg width="119" height="23" viewBox="0 0 119 23" fill="none" xmlns="http://www.w3.org/2000/svg">
<g clip-path="url(#clip0_17698_73270)">
<path d="M54.4974 8.01667C54.4974 3.98333 51.8891 0.927778 46.4906 0.927778H35.633V22.0111H40.7282V5.51111H46.4906C48.6136 5.51111 49.4022 6.73333 49.4022 8.13889C49.4022 9.60556 48.6136 10.7667 46.4906 10.7667H41.5774L48.6136 22.0111H54.4367C54.4367 22.0111 49.6448 14.4333 49.7055 14.4333C52.617 13.7611 54.4974 11.6833 54.4974 8.01667ZM27.1409 0.927778H32.2362V22.0111H27.1409V0.927778ZM10.8241 0.927778L0.148438 22.0722H5.91088L7.60929 18.5278H16.2226L14.0996 14.0667H9.79295L12.9471 7.58889H13.0078L20.1653 22.0722H26.0491L15.3734 0.927778H10.8241ZM73.1192 11.0722C74.7569 10.1556 75.6061 8.75 75.6061 6.61111C75.6061 3.18889 73.0585 0.927778 68.8732 0.927778H56.9237V22.0111H69.2978C73.6044 22.0111 76.4553 19.6889 76.4553 16.0833C76.516 13.6389 75.1209 11.8056 73.1192 11.0722ZM62.0189 5.38889H68.8125C69.8437 5.38889 70.6322 6.18333 70.6322 7.22222C70.6322 8.26111 69.8437 9.05556 68.8125 9.05556H62.0189V5.38889ZM68.9945 17.6111H62.0189V13.3333H68.9945C70.2076 13.3333 71.1781 14.25 71.1781 15.4722C71.1781 16.6944 70.2076 17.6111 68.9945 17.6111ZM92.5902 12.7222C92.5902 15.9 91.1344 17.6722 88.2228 17.6722C85.3719 17.6722 83.9162 15.9 83.9162 12.7222V0.927778H78.6996V12.3556C78.6996 18.8944 82.0965 22.5 88.2835 22.5C94.4706 22.5 97.8674 18.8944 97.8674 12.3556V0.927778H92.6508V12.7222H92.5902ZM111.455 9.36111C106.602 8.2 105.571 8.07778 105.571 6.67222C105.571 5.57222 106.784 5.08333 108.846 5.08333C111.576 5.08333 114.427 5.75556 116.065 6.79444L117.702 2.51667C115.519 1.29444 112.486 0.5 108.846 0.5C103.448 0.5 100.415 3.18889 100.415 6.85556C100.415 10.7667 102.659 12.3556 107.876 13.4556C111.94 14.3722 112.789 14.9222 112.789 16.0833C112.789 17.3056 111.697 17.8556 109.453 17.8556C106.238 17.8556 103.387 17.0611 101.082 15.7778L99.5051 20.3C102.053 21.6444 105.813 22.5 109.574 22.5C114.851 22.5 118.006 20.0556 118.006 15.9C118.066 12.5389 115.943 10.4 111.455 9.36111Z" fill="white"/>
</g>
<defs>
<clipPath id="clip0_17698_73270">
<rect width="117.857" height="22" fill="white" transform="translate(0.15625 0.5)"/>
</clipPath>
</defs>
</svg>
