<svg width="151" height="29" viewBox="0 0 151 29" fill="none" xmlns="http://www.w3.org/2000/svg">
<g clip-path="url(#clip0_17698_73273)">
<path d="M40.2851 20.417C40.1906 20.417 40.0488 20.3697 39.9543 20.2751C39.8598 20.1805 39.8125 20.0859 39.8125 19.944C39.8125 19.8494 39.8125 19.8021 39.8125 19.7548L44.7274 6.32238C44.7747 6.1332 44.8692 6.0386 45.011 5.89671C45.1528 5.75482 45.3418 5.70752 45.5781 5.70752H48.6972C48.9335 5.70752 49.1225 5.75482 49.2643 5.89671C49.4061 5.9913 49.5006 6.1332 49.5478 6.32238L54.4628 19.7548L54.51 19.944C54.51 20.0386 54.4628 20.1805 54.3683 20.2751C54.2737 20.3697 54.1792 20.417 54.0375 20.417H51.4382C51.1074 20.417 50.8711 20.2751 50.7766 19.9913L49.9732 17.8629H44.3494L43.546 19.9913C43.4514 20.2751 43.2151 20.417 42.8371 20.417H40.2851ZM49.1225 14.8359L47.1849 9.30211L45.2473 14.8359H49.1225Z" fill="white"/>
<path d="M59.1895 20.6532C58.0553 20.6532 57.1101 20.5113 56.354 20.1803C55.5978 19.8492 55.0307 19.4708 54.6999 19.0451C54.3218 18.6195 54.1328 18.1938 54.1328 17.8627C54.1328 17.7208 54.1801 17.6262 54.2746 17.5316C54.3691 17.437 54.5109 17.3897 54.6527 17.3897H57.0629C57.1574 17.3897 57.2046 17.437 57.2992 17.4843C57.4882 17.5789 57.5827 17.6735 57.6772 17.7681C57.9608 18.0046 58.2443 18.1465 58.4806 18.2884C58.7169 18.383 59.0005 18.4303 59.3313 18.4303C59.7566 18.4303 60.0874 18.3357 60.3237 18.1938C60.6073 18.0046 60.7018 17.8154 60.7018 17.4843C60.7018 17.2478 60.6546 17.0586 60.5128 16.9168C60.371 16.7749 60.1347 16.633 59.7566 16.5384C59.3786 16.3965 58.8114 16.2546 58.0553 16.1127C56.8738 15.8762 56.0232 15.4978 55.3615 14.9776C54.7472 14.41 54.4636 13.7005 54.4636 12.8019C54.4636 12.2343 54.6527 11.6668 55.0307 11.1465C55.4088 10.6262 55.9287 10.2005 56.6375 9.86946C57.3464 9.53838 58.2443 9.39648 59.1895 9.39648C60.182 9.39648 61.0326 9.53838 61.7888 9.86946C62.5449 10.1532 63.0648 10.5316 63.4428 11.0046C63.8209 11.4303 64.0099 11.8559 64.0099 12.187C64.0099 12.3289 63.9627 12.4235 63.8682 12.5181C63.7736 12.6127 63.6791 12.66 63.5373 12.66H61.3634C61.2689 12.66 61.1271 12.6127 61.0326 12.5654C60.8436 12.4708 60.7018 12.3762 60.56 12.2343C60.3237 12.0451 60.0874 11.9032 59.8984 11.8086C59.7094 11.7141 59.4258 11.6668 59.1423 11.6668C58.7642 11.6668 58.4806 11.7613 58.2443 11.9032C58.0553 12.0924 57.9135 12.2816 57.9135 12.5654C57.9135 12.7546 57.9608 12.9438 58.1026 13.0857C58.2443 13.2276 58.4806 13.3695 58.8587 13.5113C59.2368 13.6532 59.8039 13.7478 60.56 13.8897C61.9305 14.1262 62.8757 14.5519 63.4901 15.1668C64.1045 15.7816 64.4353 16.4911 64.4353 17.2951C64.4353 18.3357 63.9627 19.1397 63.0648 19.8019C62.1196 20.3222 60.8436 20.6532 59.1895 20.6532Z" fill="white"/>
<path d="M69.6348 20.6532C68.5006 20.6532 67.5554 20.5113 66.7993 20.1803C66.0432 19.8492 65.4761 19.4708 65.1452 19.0451C64.7672 18.6195 64.5781 18.1938 64.5781 17.8627C64.5781 17.7208 64.6254 17.6262 64.7199 17.5316C64.8144 17.437 64.9562 17.3897 65.098 17.3897H67.5082C67.6027 17.3897 67.65 17.437 67.7445 17.4843C67.9335 17.5789 68.028 17.6735 68.1225 17.7681C68.4061 18.0046 68.6897 18.1465 68.926 18.2884C69.1623 18.383 69.4458 18.4303 69.7766 18.4303C70.2019 18.4303 70.5328 18.3357 70.7691 18.1938C71.0526 18.0046 71.1471 17.8154 71.1471 17.4843C71.1471 17.2478 71.0999 17.0586 70.9581 16.9168C70.8163 16.7749 70.58 16.633 70.2019 16.5384C69.8239 16.3965 69.2568 16.2546 68.5006 16.1127C67.3191 15.8762 66.4685 15.4978 65.8069 14.9776C65.1925 14.41 64.9089 13.7005 64.9089 12.8019C64.9089 12.2343 65.098 11.6668 65.476 11.1465C65.8541 10.6262 66.374 10.2005 67.0829 9.86946C67.7917 9.53838 68.6897 9.39648 69.6348 9.39648C70.6273 9.39648 71.4779 9.53838 72.2341 9.86946C72.9902 10.1532 73.5101 10.5316 73.8881 11.0046C74.2662 11.4303 74.4553 11.8559 74.4553 12.187C74.4553 12.3289 74.408 12.4235 74.3135 12.5181C74.219 12.6127 74.1244 12.66 73.9827 12.66H71.8088C71.7142 12.66 71.5725 12.6127 71.4779 12.5654C71.2889 12.4708 71.1471 12.3762 71.0053 12.2343C70.7691 12.0451 70.5328 11.9032 70.3437 11.8086C70.1547 11.7141 69.8711 11.6668 69.5876 11.6668C69.2095 11.6668 68.926 11.7613 68.6897 11.9032C68.5006 12.0924 68.3588 12.2816 68.3588 12.5654C68.3588 12.7546 68.4061 12.9438 68.5479 13.0857C68.6897 13.2276 68.926 13.3695 69.304 13.5113C69.6821 13.6532 70.2492 13.7478 71.0053 13.8897C72.3759 14.1262 73.321 14.5519 73.9354 15.1668C74.5498 15.7816 74.8806 16.4911 74.8806 17.2951C74.8806 18.3357 74.408 19.1397 73.5101 19.8019C72.5649 20.3222 71.2889 20.6532 69.6348 20.6532Z" fill="white"/>
<path d="M80.5992 20.6535C78.9452 20.6535 77.6219 20.1806 76.6295 19.2819C75.6843 18.3833 75.1644 17.0589 75.1172 15.3089V14.5522C75.1644 12.8968 75.6843 11.6197 76.6295 10.6738C77.6219 9.72786 78.8979 9.25488 80.552 9.25488C81.7334 9.25488 82.7259 9.49137 83.5293 10.0116C84.3327 10.4846 84.9471 11.1468 85.3724 11.9981C85.7977 12.8495 85.9868 13.7954 85.9868 14.8833V15.4035C85.9868 15.5454 85.9395 15.6873 85.845 15.7819C85.7505 15.8765 85.6087 15.9238 85.4669 15.9238H78.7561V16.0657C78.8034 16.7279 78.9452 17.2481 79.2287 17.6738C79.5123 18.0995 79.9376 18.2887 80.5047 18.2887C80.8355 18.2887 81.1191 18.2414 81.3554 18.0995C81.5917 17.9576 81.7807 17.7684 81.9697 17.5319C82.1115 17.39 82.206 17.2954 82.2533 17.2481C82.3478 17.2008 82.4423 17.2008 82.6314 17.2008H85.2306C85.3724 17.2008 85.4669 17.2481 85.5614 17.3427C85.6559 17.39 85.7032 17.5319 85.7032 17.6265C85.7032 18.0049 85.5142 18.4306 85.0888 18.9035C84.6635 19.3765 84.0964 19.8022 83.293 20.1333C82.5368 20.4643 81.6389 20.6535 80.5992 20.6535ZM82.3478 13.8427C82.3478 13.1333 82.206 12.5657 81.8752 12.1873C81.5917 11.7616 81.1191 11.5725 80.5992 11.5725C80.0321 11.5725 79.6068 11.7616 79.3232 12.1873C79.0397 12.5657 78.8507 13.1333 78.8507 13.7954V13.8427H82.3478Z" fill="white"/>
<path d="M87.3558 20.4171C87.214 20.4171 87.0722 20.3698 86.9777 20.2752C86.8832 20.1806 86.8359 20.0387 86.8359 19.8968V10.059C86.8359 9.91711 86.8832 9.77522 86.9777 9.68062C87.0722 9.58603 87.214 9.53873 87.3558 9.53873H89.6242C89.766 9.53873 89.9078 9.58603 90.0023 9.68062C90.0968 9.77522 90.1441 9.91711 90.1441 10.059V10.7685C90.4749 10.3428 90.9002 10.0117 91.4201 9.72792C91.9872 9.44414 92.5543 9.30225 93.2632 9.30225C94.7754 9.30225 95.8624 9.91711 96.4295 11.0995C96.7603 10.5793 97.2329 10.1536 97.8473 9.82252C98.4616 9.49144 99.076 9.30225 99.7849 9.30225C100.919 9.30225 101.864 9.68062 102.573 10.4847C103.282 11.2414 103.66 12.4239 103.66 13.9374V19.8968C103.66 20.0387 103.613 20.1806 103.518 20.2752C103.424 20.3698 103.282 20.4171 103.14 20.4171H100.73C100.588 20.4171 100.447 20.3698 100.352 20.2752C100.257 20.1806 100.21 20.0387 100.21 19.8968V14.0793C100.21 13.3698 100.068 12.8968 99.7849 12.5658C99.5013 12.282 99.1233 12.0928 98.6507 12.0928C98.2254 12.0928 97.8473 12.2347 97.5637 12.5658C97.2802 12.8495 97.1384 13.3698 97.1384 14.032V19.8495C97.1384 19.9914 97.0911 20.1333 96.9966 20.2279C96.9021 20.3225 96.7603 20.3698 96.6185 20.3698H94.2083C94.0666 20.3698 93.9248 20.3225 93.8303 20.2279C93.7357 20.1333 93.6885 19.9914 93.6885 19.8495V14.0793C93.6885 13.4171 93.5467 12.8968 93.2159 12.6131C92.9323 12.282 92.5543 12.1401 92.0817 12.1401C91.6564 12.1401 91.2783 12.282 90.9475 12.6131C90.6639 12.8968 90.5221 13.4171 90.5221 14.0793V19.8968C90.5221 20.0387 90.4749 20.1806 90.3804 20.2752C90.2858 20.3698 90.1441 20.4171 90.0023 20.4171H87.3558Z" fill="white"/>
<path d="M111.507 20.6533C110.089 20.6533 109.05 20.1803 108.246 19.2343V19.8965C108.246 20.0384 108.199 20.1803 108.105 20.2749C108.01 20.3695 107.868 20.4168 107.727 20.4168H105.364C105.222 20.4168 105.08 20.3695 104.986 20.2749C104.891 20.1803 104.844 20.0384 104.844 19.8965V6.0857C104.844 5.94381 104.891 5.80192 104.986 5.70732C105.08 5.61273 105.222 5.56543 105.364 5.56543H107.916C108.057 5.56543 108.199 5.61273 108.294 5.70732C108.388 5.80192 108.435 5.94381 108.435 6.0857V10.5789C109.239 9.77489 110.231 9.34921 111.507 9.34921C112.878 9.34921 113.917 9.77489 114.721 10.6735C115.524 11.5722 115.902 12.7546 115.997 14.2681C115.997 14.4573 115.997 14.6938 115.997 15.0249C115.997 15.3087 115.997 15.5925 115.997 15.7816C115.95 17.3425 115.524 18.5722 114.721 19.4235C113.917 20.2276 112.878 20.6533 111.507 20.6533ZM110.373 17.8154C111.035 17.8154 111.507 17.6262 111.791 17.2479C112.074 16.8695 112.263 16.3019 112.311 15.6398C112.358 15.356 112.358 15.1668 112.358 14.9776C112.358 14.8357 112.358 14.5992 112.311 14.3154C112.263 13.6533 112.122 13.0857 111.791 12.7073C111.507 12.3289 111.035 12.1398 110.373 12.1398C109.759 12.1398 109.286 12.3289 108.955 12.7073C108.624 13.0857 108.483 13.5587 108.435 14.1262V14.883V15.6871C108.483 16.3019 108.624 16.8222 108.955 17.2479C109.239 17.6262 109.711 17.8154 110.373 17.8154Z" fill="white"/>
<path d="M117.41 20.4168C117.269 20.4168 117.127 20.3695 117.032 20.2749C116.938 20.1803 116.891 20.0384 116.891 19.8965V6.0857C116.891 5.94381 116.938 5.80192 117.032 5.70732C117.127 5.61273 117.269 5.56543 117.41 5.56543H119.868C120.01 5.56543 120.151 5.61273 120.246 5.70732C120.341 5.80192 120.388 5.94381 120.388 6.0857V19.8965C120.388 20.0384 120.341 20.1803 120.246 20.2749C120.151 20.3695 120.01 20.4168 119.868 20.4168H117.41Z" fill="white"/>
<path d="M123.75 24.3899C123.608 24.3899 123.513 24.3426 123.419 24.248C123.324 24.1534 123.277 24.0588 123.277 23.9169C123.277 23.8223 123.277 23.7277 123.324 23.6331L124.978 19.7074L120.961 10.2007C120.914 10.1061 120.914 10.0115 120.914 9.96418C120.961 9.82229 121.009 9.7277 121.103 9.6331C121.198 9.53851 121.292 9.49121 121.434 9.49121H123.844C124.128 9.49121 124.317 9.6331 124.458 9.91689L126.869 16.0182L129.326 9.91689C129.468 9.6331 129.657 9.49121 129.941 9.49121H132.303C132.445 9.49121 132.54 9.53851 132.634 9.6331C132.729 9.7277 132.776 9.82229 132.776 9.91689C132.776 9.96418 132.776 10.0588 132.729 10.2007L126.821 23.9169C126.727 24.2007 126.491 24.3426 126.207 24.3426H123.75V24.3899Z" fill="white"/>
<path d="M131.59 20.417C131.495 20.417 131.353 20.3697 131.259 20.2751C131.164 20.1805 131.117 20.0859 131.117 19.944C131.117 19.8494 131.117 19.8021 131.117 19.7548L136.032 6.32238C136.079 6.1332 136.174 6.0386 136.316 5.89671C136.457 5.80211 136.646 5.70752 136.883 5.70752H140.002C140.238 5.70752 140.427 5.75482 140.569 5.89671C140.711 6.0386 140.805 6.1332 140.853 6.32238L145.767 19.7548L145.815 19.944C145.815 20.0386 145.767 20.1805 145.673 20.2751C145.578 20.3697 145.484 20.417 145.342 20.417H142.743C142.412 20.417 142.176 20.2751 142.081 19.9913L141.278 17.8629H135.701L134.898 19.9913C134.803 20.2751 134.567 20.417 134.189 20.417H131.59ZM140.427 14.8359L138.49 9.30211L136.552 14.8359H140.427Z" fill="white"/>
<path d="M146.762 20.417C146.62 20.417 146.478 20.3697 146.384 20.2752C146.289 20.1806 146.242 20.0387 146.242 19.8968V6.27515C146.242 6.13326 146.289 5.99137 146.384 5.89677C146.478 5.80218 146.62 5.75488 146.762 5.75488H149.55C149.692 5.75488 149.834 5.80218 149.928 5.89677C150.023 5.99137 150.117 6.13326 150.117 6.27515V19.8968C150.117 20.0387 150.07 20.1806 149.928 20.2752C149.834 20.3697 149.692 20.417 149.55 20.417H146.762Z" fill="white"/>
<mask id="mask0_17698_73273" style="mask-type:luminance" maskUnits="userSpaceOnUse" x="0" y="-2" width="31" height="31">
<path d="M30.3629 -1.71826H0.117188V28.552H30.3629V-1.71826Z" fill="white"/>
</mask>
<g mask="url(#mask0_17698_73273)">
<path d="M2.95632 18.5254L0.59337 24.1538C-0.0682558 25.7146 -0.210033 27.5119 1.49129 28.1741C1.91662 28.3159 2.29469 28.4105 2.72002 28.4105C3.99602 28.4105 5.27201 27.6538 5.7446 26.4713L6.21719 25.3362L9.90339 16.6335L13.5896 7.97811C14.4875 6.46459 15.0074 4.09973 18.4573 2.8227C15.7635 2.44432 10.376 1.73486 10.3287 1.73486C10.2815 1.78216 9.95065 2.34973 9.90339 2.39703C9.80887 2.53892 9.76161 2.63351 9.71435 2.7754L2.95632 18.5254C3.00358 18.4781 2.95632 18.4781 2.95632 18.5254Z" fill="url(#paint0_radial_17698_73273)"/>
<path d="M26.9187 18.5252L29.3289 24.1536C29.9906 25.7144 30.1323 27.5117 28.431 28.1738C28.0057 28.3157 27.6276 28.4103 27.2023 28.4103C25.9263 28.4103 24.6503 27.6536 24.1777 26.4711L23.7051 25.336L19.9716 16.6333L16.2854 7.9779C15.3875 6.46438 13.9225 3.24817 10 2.25492C10.5198 1.07249 12.2212 0.883301 13.5444 0.883301H17.1834H17.2306C17.3724 0.883301 17.5142 0.883301 17.656 0.930598C17.7505 0.930598 17.7977 0.930598 17.8922 0.977895C17.9868 0.977895 18.0813 1.02519 18.1758 1.07249C18.2703 1.11979 18.4121 1.11979 18.5066 1.16708C18.5539 1.16708 18.6011 1.21438 18.6484 1.21438C18.7902 1.26168 18.9319 1.35627 19.0737 1.40357C19.1682 1.45087 19.2628 1.54546 19.31 1.59276C19.4045 1.64006 19.4518 1.68735 19.5463 1.78195C19.5936 1.82925 19.6881 1.92384 19.7354 1.97114C19.8299 2.06573 19.8771 2.11303 19.9716 2.20763C20.0189 2.25492 20.0189 2.34952 20.0662 2.39681C20.1607 2.53871 20.2079 2.6333 20.2552 2.77519L26.9187 18.5252C26.9187 18.4779 26.9187 18.4779 26.9187 18.5252Z" fill="url(#paint1_radial_17698_73273)"/>
</g>
</g>
<defs>
<radialGradient id="paint0_radial_17698_73273" cx="0" cy="0" r="1" gradientUnits="userSpaceOnUse" gradientTransform="translate(11.4845 4.69415) rotate(112.396) scale(25.9337 17.6922)">
<stop stop-color="#142167"/>
<stop offset="1" stop-color="#263DB5"/>
</radialGradient>
<radialGradient id="paint1_radial_17698_73273" cx="0" cy="0" r="1" gradientUnits="userSpaceOnUse" gradientTransform="translate(27.8447 6.90318) rotate(132.387) scale(24.0659 84.1968)">
<stop stop-color="#4259D4"/>
<stop offset="1" stop-color="#6A81FC"/>
</radialGradient>
<clipPath id="clip0_17698_73273">
<rect width="150" height="28" fill="white" transform="translate(0.117188 0.552246)"/>
</clipPath>
</defs>
</svg>
