<?xml version="1.0" encoding="UTF-8"?>
<svg id="Layer_1" xmlns="http://www.w3.org/2000/svg" version="1.1" viewBox="0 0 394.9 62.8">
  <!-- Generator: Adobe Illustrator 29.8.5, SVG Export Plug-In . SVG Version: 2.1.1 Build 2)  -->
  <defs>
    <style>
      .st0 {
        fill: #262525;
      }
    </style>
  </defs>
  <path class="st0" d="M353.8,49.5c-6.5,0-11.7-3.8-11.7-9h7c.5,2.1,2.1,3.4,4.9,3.4s4.2-.9,4.2-2.3-.7-2-3.7-2.5l-3.5-.6c-5.1-1-7.9-3.1-7.9-7.6s4.5-8.3,11-8.3,11.1,3,11.1,8.9h-6.7c-.4-1.9-1.7-3.3-4.6-3.3s-4,1-4,2.3,1,1.8,3.4,2.3l3.3.6c5.2,1,8.4,3.1,8.4,7.7s-4,8.5-11.4,8.5l.2-.1h0Z"/>
  <path class="st0" d="M377.9,49.5c-6.5,0-11.7-3.8-11.7-9h7c.5,2.1,2.1,3.4,4.9,3.4s4.2-.9,4.2-2.3-.7-2-3.7-2.5l-3.5-.6c-5.1-1-7.9-3.1-7.9-7.6s4.5-8.3,11-8.3,11.1,3,11.1,8.9h-6.7c-.4-1.9-1.7-3.3-4.6-3.3s-4,1-4,2.3,1,1.8,3.4,2.3l3.3.6c5.2,1,8.4,3.1,8.4,7.7s-4,8.5-11.4,8.5l.2-.1h0Z"/>
  <path class="st0" d="M328.8,49.5c-7.6,0-12.5-4.8-12.5-13.5s5.4-13.5,12.8-13.5,11.9,4.5,11.9,12.7q0,2.5,0,2.5h-17.6c.3,3.9,2.4,5.9,5.5,5.9s4.3-1.4,4.9-3.1h7.2c-1.2,4.1-5.3,9-12.3,9,0,0,.1,0,.1,0ZM323.7,33.1h10.5c-.3-2.7-2-4.7-5-4.7s-4.9,1.6-5.5,4.7Z"/>
  <path class="st0" d="M300.1,49v-25.9h7.3v3.2c2-2.6,4.5-3.2,6.9-3.2h2v6.7h-2.4c-3.4,0-6.1,1.3-6.1,4.1v15.2h-7.6l-.1-.1h0Z"/>
  <path class="st0" d="M269.5,49V12.5h16.2c8.2,0,13,3.4,13,11.8s-4.8,12-13,12h-8.2v12.6h-8v.1ZM277.4,29.5h7.3c4.2,0,5.9-1.6,5.9-5s-1.7-5.1-5.9-5.1h-7.3v10.1Z"/>
  <path class="st0" d="M251.8,49v-25.9h7.3v3.2c2-2.6,4.5-3.2,6.9-3.2h2v6.7h-2.4c-3.4,0-6.1,1.3-6.1,4.1v15.2h-7.6l-.1-.1h0Z"/>
  <path class="st0" d="M238,49.5c-7.6,0-12.5-4.8-12.5-13.5s5.4-13.5,12.8-13.5,11.9,4.5,11.9,12.7,0,2-.1,2.5h-17.5c.3,3.9,2.4,5.9,5.5,5.9s4.2-1.5,4.9-3.2l6.5,1.2c-1.2,4.1-4.6,7.9-11.7,7.9h.2ZM232.9,33.1h10.5c-.3-2.7-2-4.7-5-4.7s-4.9,1.6-5.5,4.7Z"/>
  <path class="st0" d="M220.3,49c-7.1,0-10.1-2.6-10.1-10v-9.3h-3.9v-6.5h3.9v-6.3h7.6v6.3h6.9v6.5h-6.9v9.1c0,2.7,1.2,3.6,3.5,3.6h3.5v6.5"/>
  <path class="st0" d="M180.8,49v-25.9h7.4v3.3c1.7-2.2,4.4-3.8,8.2-3.8s9.1,3.2,9.1,9.1v17.3h-7.6v-15.6c0-3-1.7-4.3-4.6-4.3s-5,1.5-5,4.2v15.7h-7.6.1Z"/>
  <path class="st0" d="M162.9,49.6c-5.4,0-9-3.3-9-9.2v-17.3h7.6v15.6c0,3,1.6,4.4,4.6,4.4s4.9-1.8,4.9-4.2v-15.7h7.6v25.9h-7.4v-2.9c-1.8,2-4.6,3.4-8.2,3.4h-.1Z"/>
  <path class="st0" d="M139.5,49.5c-8.1,0-13.1-5-13.1-13.5s5-13.5,13.1-13.5,13.1,5,13.1,13.5-5,13.5-13.1,13.5ZM133.9,36c0,4.8,2.2,7.2,5.6,7.2s5.7-2.5,5.7-7.2-2.2-7.2-5.7-7.2-5.6,2.4-5.6,7.2Z"/>
  <path class="st0" d="M108.5,49.5c-10.5,0-17.5-6.3-17.5-18.5s7.3-18.5,17.5-18.5,16.6,5.2,16.6,13.4h-8.2c-1.1-3.6-3.5-6.3-8.4-6.3s-9.4,4-9.4,11.4,3.7,11.4,9.3,11.4,7.6-2.6,8.5-6.4h8.2c0,8.7-6.9,13.5-16.7,13.5,0,0,.1,0,.1,0Z"/>
  <path class="st0" d="M48.2,7.9c12.4,0,22.5,10.1,22.5,22.3v1.6c0,12.3-10.1,22.3-22.5,22.3h-17.8c-12.4,0-22.5-10.1-22.5-22.3v-1.6c0-12.3,10.1-22.3,22.5-22.3,0,0,17.8,0,17.8,0ZM48.6,0h-17.9c-4.1,0-8.2.8-11.9,2.4-3.7,1.5-6.9,3.8-9.7,6.6s-5,6.1-6.6,9.7C.9,22.5.1,26.5.1,30.6v1.6c0,4.1.8,8.1,2.4,11.9,1.6,3.6,3.8,6.9,6.6,9.7s6.1,5,9.7,6.6c3.8,1.6,7.8,2.4,11.9,2.4h17.9c4.1,0,8.2-.8,11.9-2.4,3.7-1.5,6.9-3.8,9.7-6.6,2.8-2.8,5-6.1,6.6-9.7,1.6-3.8,2.4-7.8,2.4-11.9v-1.6c0-4.1-.8-8.1-2.4-11.9-1.6-3.6-3.8-6.9-6.6-9.7-2.8-2.8-6.1-5-9.7-6.6-3.8-1.6-7.8-2.4-11.9-2.4Z"/>
  <path class="st0" d="M46.1,12.5h-13.8c-9.4,0-17.2,7.1-18.3,16.2h7.8c1-4.8,5.4-8.5,10.5-8.5h13.8c5.9,0,10.8,4.8,10.8,10.8s-4.8,10.8-10.8,10.8h-13.8c-4.9,0-9-3.3-10.3-7.7h-7.9c1.5,8.7,9.1,15.4,18.2,15.4h13.8c10.2,0,18.5-8.3,18.5-18.5h0c0-10.2-8.3-18.5-18.5-18.5Z"/>
  <path class="st0" d="M393.58,20.1c-.88.88-1.94,1.33-3.19,1.33s-2.31-.44-3.19-1.33c-.87-.88-1.31-1.95-1.31-3.2s.44-2.3,1.32-3.18,1.93-1.31,3.17-1.31,2.31.44,3.19,1.31c.88.88,1.32,1.94,1.32,3.18s-.44,2.31-1.32,3.2h0ZM387.65,14.16c-.75.76-1.13,1.67-1.13,2.74s.37,2,1.12,2.76,1.67,1.14,2.74,1.14,1.99-.38,2.74-1.14,1.13-1.68,1.13-2.76-.38-1.99-1.13-2.74c-.76-.76-1.67-1.14-2.74-1.14s-1.98.38-2.74,1.14h.01ZM390.3,14.41c.61,0,1.06.06,1.35.18.51.21.77.63.77,1.25,0,.44-.16.77-.48.98-.17.11-.41.19-.72.24.39.06.67.22.85.48s.27.52.27.77v.36c0,.11,0,.24.01.37,0,.13.02.22.04.26l.03.06h-.82s0-.03-.01-.05,0-.03-.01-.06l-.02-.16v-.39c0-.57-.16-.95-.47-1.13-.18-.11-.51-.16-.97-.16h-.69v1.95h-.87v-4.95h1.74ZM391.24,15.19c-.22-.12-.57-.18-1.06-.18h-.74v1.79h.79c.37,0,.65-.04.83-.11.34-.13.51-.39.51-.77,0-.36-.11-.6-.33-.72h0Z"/>
</svg>