<svg width="138" height="31" viewBox="0 0 138 31" fill="none" xmlns="http://www.w3.org/2000/svg">
<g clip-path="url(#clip0_17698_73107)">
<path d="M137.189 0.35791H0.445312V30.3579H137.189V0.35791Z" fill="#FFCC00"/>
<path d="M0.453125 21.0972H18.9457L17.9355 22.4635H0.453125V21.0972Z" fill="#D40511"/>
<path d="M0.453125 18.561H20.8245L19.8122 19.926H0.453125V18.561Z" fill="#D40511"/>
<path d="M0.453125 23.6348H17.0682L16.0622 24.9914H0.453125V23.6348Z" fill="#D40511"/>
<path d="M137.201 22.4628H118.781L119.791 21.0972H137.201V22.4628Z" fill="#D40511"/>
<path d="M137.2 24.9914L116.906 24.9935L117.912 23.6348H137.2V24.9914Z" fill="#D40511"/>
<path d="M121.666 18.561H137.2V19.9267L120.656 19.9281L121.666 18.561Z" fill="#D40511"/>
<path d="M18.3594 24.9908L27.1347 13.1382H38.0241C39.2277 13.1382 39.212 13.5925 38.6241 14.3849C38.0267 15.1895 37.0102 16.573 36.4017 17.3897C36.0929 17.8046 35.5344 18.5606 37.3847 18.5606H51.9731C50.7598 20.2129 46.8242 24.9908 39.758 24.9908H18.3594Z" fill="#D40511"/>
<path d="M68.6158 18.5596L63.8577 24.9907H51.3047C51.3047 24.9907 56.0609 18.5605 56.0651 18.5605L68.6158 18.5596Z" fill="#D40511"/>
<path d="M86.77 18.5605L82.0091 24.9907H69.4609C69.4609 24.9907 74.2175 18.5605 74.2218 18.5605H86.77Z" fill="#D40511"/>
<path d="M90.8512 18.5608C90.8512 18.5608 89.9343 19.8075 89.4887 20.4058C87.9124 22.5236 89.3055 24.9907 94.4498 24.9907H114.602L119.362 18.5605L90.8512 18.5608Z" fill="#D40511"/>
<path d="M24.4939 5.76807L20.125 11.6691H43.9359C45.1393 11.6691 45.1235 12.1234 44.5353 12.9158C43.938 13.7194 42.938 15.1188 42.3297 15.9356C42.0208 16.3497 41.4623 17.1055 43.3126 17.1055H53.0497C53.0497 17.1055 54.6194 14.982 55.9347 13.2071C57.7246 10.7924 56.0899 5.76807 49.6915 5.76807H24.4939Z" fill="#D40511"/>
<path d="M87.8432 17.1055H57.1406L65.5364 5.76807H78.0848L73.2736 12.2684H78.8746L83.6892 5.76807H96.2362L87.8432 17.1055Z" fill="#D40511"/>
<path d="M113.613 5.76807L105.219 17.1055H91.9219C91.9219 17.1055 100.319 5.76807 100.323 5.76807H113.613Z" fill="#D40511"/>
</g>
<defs>
<clipPath id="clip0_17698_73107">
<rect width="136.744" height="30" fill="white" transform="translate(0.445312 0.35791)"/>
</clipPath>
</defs>
</svg>
