<svg width="138" height="31" viewBox="0 0 138 31" fill="none" xmlns="http://www.w3.org/2000/svg">
<g clip-path="url(#clip0_17698_73292)">
<path d="M137.486 0.35791H0.742188V30.3579H137.486V0.35791Z" fill="#FFCC00"/>
<path d="M0.75 21.0972H19.2426L18.2323 22.4635H0.75V21.0972Z" fill="#D40511"/>
<path d="M0.75 18.561H21.1214L20.1091 19.926H0.75V18.561Z" fill="#D40511"/>
<path d="M0.75 23.6348H17.3651L16.3591 24.9914H0.75V23.6348Z" fill="#D40511"/>
<path d="M137.498 22.4628H119.078L120.088 21.0972H137.498V22.4628Z" fill="#D40511"/>
<path d="M137.496 24.9914L117.203 24.9935L118.208 23.6348H137.496V24.9914Z" fill="#D40511"/>
<path d="M121.963 18.561H137.497V19.9267L120.953 19.9281L121.963 18.561Z" fill="#D40511"/>
<path d="M18.6562 24.9908L27.4315 13.1382H38.321C39.5246 13.1382 39.5088 13.5925 38.921 14.3849C38.3236 15.1895 37.307 16.573 36.6986 17.3897C36.3898 17.8046 35.8313 18.5606 37.6816 18.5606H52.2699C51.0567 20.2129 47.1211 24.9908 40.0549 24.9908H18.6562Z" fill="#D40511"/>
<path d="M68.9127 18.5596L64.1545 24.9907H51.6016C51.6016 24.9907 56.3578 18.5605 56.362 18.5605L68.9127 18.5596Z" fill="#D40511"/>
<path d="M87.0668 18.5605L82.306 24.9907H69.7578C69.7578 24.9907 74.5144 18.5605 74.5187 18.5605H87.0668Z" fill="#D40511"/>
<path d="M91.148 18.5608C91.148 18.5608 90.2312 19.8075 89.7855 20.4058C88.2093 22.5236 89.6023 24.9907 94.7467 24.9907H114.899L119.659 18.5605L91.148 18.5608Z" fill="#D40511"/>
<path d="M24.7908 5.76807L20.4219 11.6691H44.2327C45.4362 11.6691 45.4204 12.1234 44.8322 12.9158C44.2348 13.7194 43.2349 15.1188 42.6265 15.9356C42.3177 16.3497 41.7592 17.1055 43.6095 17.1055H53.3465C53.3465 17.1055 54.9163 14.982 56.2315 13.2071C58.0214 10.7924 56.3868 5.76807 49.9883 5.76807H24.7908Z" fill="#D40511"/>
<path d="M88.1401 17.1055H57.4375L65.8333 5.76807H78.3817L73.5705 12.2684H79.1715L83.9861 5.76807H96.5331L88.1401 17.1055Z" fill="#D40511"/>
<path d="M113.91 5.76807L105.516 17.1055H92.2188C92.2188 17.1055 100.616 5.76807 100.62 5.76807H113.91Z" fill="#D40511"/>
</g>
<defs>
<clipPath id="clip0_17698_73292">
<rect width="136.744" height="30" fill="white" transform="translate(0.742188 0.35791)"/>
</clipPath>
</defs>
</svg>
