<svg width="153" height="26" viewBox="0 0 153 26" fill="none" xmlns="http://www.w3.org/2000/svg">
<path d="M2.10938 22.07H6.03904V3.33252H2.10938V22.07Z" fill="white"/>
<path d="M10.0312 22.0701H13.7499V3.33252H10.0312V22.0701Z" fill="white"/>
<path d="M95.6797 22.0701H99.5902V3.33252H95.6797V22.0701Z" fill="white"/>
<path d="M17.7734 22.0701H21.492V3.33252H17.7734V22.0701Z" fill="white"/>
<path d="M17.75 3.33252V22.0701H29.3808V18.9472H21.6797V14.0397H28.8533V10.9167H21.6797V6.45538H29.3808V3.33252H17.75Z" fill="white"/>
<path d="M31.7812 22.0701H35.4999V3.33252H31.7812V22.0701Z" fill="white"/>
<path d="M37.7344 15.0371C37.7344 9.91967 40.2926 7.71533 44.2751 7.71533C48.2575 7.71533 50.5256 9.89343 50.5256 15.0895V15.9293H41.4003C41.5322 18.9735 42.4553 19.997 44.2223 19.997C45.6201 19.997 46.4905 19.1835 46.6487 17.7663H50.3674C50.13 20.863 47.5454 22.3851 44.2223 22.3851C40.0025 22.3851 37.7344 20.1544 37.7344 15.0371ZM46.8597 13.4887C46.6751 10.9169 45.7784 10.0772 44.2223 10.0772C42.6663 10.0772 41.6904 10.9431 41.4267 13.4887H46.8597Z" fill="white"/>
<path d="M55.1259 8.03027H51.3281L55.9171 22.0704H60.005L64.594 8.03027H60.7962L57.9226 18.6063L55.1259 8.03027Z" fill="white"/>
<path d="M65.3047 15.0371C65.3047 9.91967 67.8629 7.71533 71.8453 7.71533C75.8277 7.71533 78.0962 9.89343 78.0962 15.0895V15.9293H68.9705C69.1024 18.9735 70.0255 19.997 71.7925 19.997C73.1904 19.997 74.0607 19.1835 74.219 17.7663H77.9375C77.7003 20.863 75.1156 22.3851 71.7925 22.3851C67.5728 22.3851 65.3047 20.1544 65.3047 15.0371ZM74.4299 13.4887C74.2453 10.9169 73.3486 10.0772 71.7925 10.0772C70.2365 10.0772 69.2607 10.9431 68.9969 13.4887H74.4299Z" fill="white"/>
<path d="M84.1075 13.8037C84.1075 11.5993 85.1624 10.3921 86.7977 10.3921C88.1428 10.3921 88.9076 11.2319 88.9076 13.0427V22.0703H92.6263V12.4653C92.6263 9.21117 90.7801 7.71533 88.0899 7.71533C86.2703 7.71533 84.7665 8.63385 84.1075 9.84104V8.03023H80.3359V22.0703H84.1075V13.8037Z" fill="white"/>
<path d="M95.6641 3.33252H99.5943V18.9472H106.979V22.0701H95.6641V3.33252Z" fill="white"/>
<path d="M107.945 15.0371C107.945 20.2332 110.135 22.3852 113.51 22.3852C115.225 22.3852 116.781 21.5191 117.335 20.4169V22.0703H121.027V8.03023H117.229V9.5523C116.649 8.60754 115.198 7.71533 113.616 7.71533C110.425 7.71533 107.945 9.68355 107.945 15.0371ZM114.591 10.4708C116.438 10.4708 117.44 11.8617 117.44 15.0371C117.44 18.2125 116.438 19.6297 114.591 19.6297C112.745 19.6297 111.69 18.2125 111.69 15.0371C111.69 11.8617 112.745 10.4708 114.591 10.4708Z" fill="white"/>
<path d="M127.598 20.4167C128.126 21.5189 129.524 22.3849 131.239 22.3849C134.482 22.3849 136.908 20.3905 136.908 15.0369C136.908 9.68333 134.43 7.71511 131.317 7.71511C129.735 7.71511 128.258 8.58108 127.625 9.55208V3.33252H123.906V22.07H127.598V20.4167ZM130.262 10.4968C132.108 10.4968 133.163 11.8615 133.163 15.0369C133.163 18.2123 132.108 19.6294 130.262 19.6294C128.416 19.6294 127.414 18.2123 127.414 15.0369C127.414 11.8615 128.416 10.4968 130.262 10.4968Z" fill="white"/>
<path d="M138.438 17.8976H142.155C142.208 19.3672 143 20.0757 144.398 20.0757C145.796 20.0757 146.587 19.4459 146.587 18.3436C146.587 17.3464 145.98 16.979 144.661 16.6641L143.527 16.3755C140.309 15.562 138.701 14.696 138.701 12.0454C138.701 9.39489 141.18 7.71533 144.345 7.71533C147.509 7.71533 149.909 8.94875 150.015 11.8617H146.297C146.217 10.5758 145.426 10.0247 144.292 10.0247C143.158 10.0247 142.367 10.5758 142.367 11.6255C142.367 12.5965 143 12.9638 144.107 13.2263L145.268 13.5151C148.327 14.2761 150.253 15.0371 150.253 17.8713C150.253 20.7055 147.721 22.3851 144.292 22.3851C140.573 22.3851 138.516 20.9942 138.438 17.8976Z" fill="white"/>
</svg>
