<svg width="116" height="36" viewBox="0 0 116 36" fill="none" xmlns="http://www.w3.org/2000/svg">
<g clip-path="url(#clip0_17698_73313)">
<path d="M33.1207 12.3293C34.1189 9.18999 33.5185 2.92717 31.5843 0.615046C31.331 0.311753 30.8591 0.35508 30.6486 0.689886L28.2661 4.46727C27.6773 5.22354 26.6167 5.39685 25.8174 4.86904C23.2321 3.15956 20.1439 2.16696 16.8256 2.16696C13.5073 2.16696 10.4191 3.15956 7.83389 4.86904C7.03844 5.39685 5.97783 5.2196 5.38514 4.46727L3.00268 0.689886C2.79212 0.35508 2.32031 0.315691 2.06686 0.615046C0.132817 2.93111 -0.467672 9.19393 0.530543 12.3293C0.861982 13.3731 0.951665 14.476 0.756701 15.5473C0.561737 16.6109 0.366773 17.8949 0.366773 18.7891C0.366773 27.9706 7.73641 35.4111 16.8217 35.4111C25.9109 35.4111 33.2767 27.9666 33.2767 18.7891C33.2767 17.8949 33.0817 16.6109 32.8867 15.5473C32.6957 14.476 32.7893 13.3731 33.1207 12.3293ZM16.8217 31.7007C9.79519 31.7007 4.08278 25.9263 4.08278 18.8284C4.08278 18.596 4.09058 18.3676 4.10228 18.1391C4.35574 13.3022 7.2646 9.1703 11.3783 7.20086C13.0277 6.40521 14.876 5.96405 16.8256 5.96405C18.7753 5.96405 20.6196 6.40521 22.2729 7.2048C26.3867 9.17424 29.2955 13.3101 29.549 18.1431C29.5607 18.3716 29.5684 18.6039 29.5684 18.8324C29.5646 25.9263 23.8482 31.7007 16.8217 31.7007Z" fill="#3970FD"/>
<path d="M22.3339 23.7849L19.078 18.0814L16.2861 13.3272C16.2198 13.213 16.0989 13.146 15.9702 13.146H13.3031C13.1706 13.146 13.0497 13.2168 12.9834 13.335C12.9171 13.4493 12.921 13.591 12.9873 13.7053L15.6583 18.239L12.0748 23.7612C12.0008 23.8755 11.9969 24.0212 12.0593 24.1394C12.1216 24.2576 12.2464 24.3324 12.3829 24.3324H15.0695C15.1942 24.3324 15.3113 24.2694 15.3775 24.163L17.3155 21.1065L19.0546 24.1512C19.1209 24.2654 19.2417 24.3363 19.3704 24.3363H22.018C22.1506 24.3363 22.2715 24.2654 22.3339 24.1512C22.4002 24.0409 22.4002 23.8991 22.3339 23.7849Z" fill="#3970FD"/>
<path d="M47.4034 9.16016H50.8062V27.823H47.4034V19.871H43.5591V27.8269H40.1562V9.16016H43.5591V17.2646H47.4034V9.16016Z" fill="white"/>
<path d="M61.302 27.8274L60.591 23.951H56.5084L55.856 27.8274H52.4531L56.2076 9.16455H60.7903L64.7244 27.8274H61.302ZM56.9538 21.3759H60.1183L58.4931 12.443L56.9538 21.3759Z" fill="white"/>
<path d="M72.3095 24.4238V20.4302C72.3095 20.1137 72.2508 19.9027 72.1337 19.7933C72.0164 19.6839 71.7977 19.6292 71.4812 19.6292H69.0864C67.0548 19.6292 66.0391 18.6445 66.0391 16.6711V12.0914C66.0391 10.1375 67.1017 9.16455 69.2309 9.16455H72.4852C74.6145 9.16455 75.6771 10.1414 75.6771 12.0914V14.6938H72.247V12.5641C72.247 12.2477 72.1884 12.0367 72.0711 11.9272C71.954 11.8178 71.7351 11.7631 71.4187 11.7631H70.2936C69.9576 11.7631 69.731 11.8178 69.6138 11.9272C69.4966 12.0367 69.4379 12.2477 69.4379 12.5641V16.3194C69.4379 16.6359 69.4966 16.8469 69.6138 16.9564C69.731 17.0658 69.9576 17.1205 70.2936 17.1205H72.6298C74.7005 17.1205 75.7357 18.0857 75.7357 20.02V24.9005C75.7357 26.8544 74.6614 27.8274 72.5126 27.8274H69.3168C67.1681 27.8274 66.0938 26.8505 66.0938 24.9005V22.3255H69.4926V24.4238C69.4926 24.7404 69.5512 24.9514 69.6685 25.0608C69.7856 25.1702 70.0123 25.2248 70.3482 25.2248H71.4734C71.7898 25.2248 72.0047 25.1702 72.1258 25.0608C72.247 24.9514 72.3095 24.7404 72.3095 24.4238Z" fill="white"/>
<path d="M84.8173 9.16016H88.2162V24.8961C88.2162 26.85 87.1418 27.823 84.9931 27.823H81.3872C79.2384 27.823 78.1641 26.8461 78.1641 24.8961V9.16016H81.5669V24.4234C81.5669 24.7398 81.6255 24.9508 81.7426 25.0603C81.8599 25.1697 82.0786 25.2244 82.3951 25.2244H83.9617C84.2977 25.2244 84.5243 25.1697 84.6415 25.0603C84.7587 24.9508 84.8173 24.7398 84.8173 24.4234V9.16016Z" fill="white"/>
<path d="M94.4225 20.5509V27.8269H91.0234V9.16016H97.8838C100.033 9.16016 101.107 10.1371 101.107 12.087V17.6202C101.107 19.2379 100.388 20.1836 98.9467 20.461L102.052 27.8269H98.3839L95.5434 20.5509H94.4225ZM94.4225 11.7627V18.0344H96.8762C97.1921 18.0344 97.4067 17.9797 97.5283 17.8703C97.6453 17.7608 97.7042 17.5498 97.7042 17.2333V12.5637C97.7042 12.2472 97.6453 12.0362 97.5283 11.9268C97.4113 11.8174 97.1921 11.7627 96.8762 11.7627H94.4225Z" fill="white"/>
<path d="M111.4 27.8274L110.688 23.951H106.605L105.953 27.8274H102.555L106.309 9.16455H110.891L114.826 27.8274H111.4ZM107.055 21.3759H110.22L108.594 12.443L107.055 21.3759Z" fill="white"/>
</g>
<defs>
<clipPath id="clip0_17698_73313">
<rect width="115.132" height="35" fill="white" transform="translate(0.0546875 0.411133)"/>
</clipPath>
</defs>
</svg>
