<svg width="114" height="40" viewBox="0 0 114 40" fill="none" xmlns="http://www.w3.org/2000/svg">
<path d="M25.3724 9.99968V16.6663H22.0391V9.99968H25.3724ZM32.0391 3.33301V9.99968H28.7057V3.33301H32.0391ZM2.03906 3.33301H5.3724V36.6663H2.03906V3.33301ZM15.3724 23.333H18.7057V29.9997H15.3724V23.333ZM28.7057 23.333H32.0391V36.6663H28.7057V23.333Z" fill="black"/>
<path d="M32.0417 3.33301H38.7083V9.99967H32.0417V3.33301ZM5.375 3.33301H12.0417V9.99967H5.375V3.33301Z" fill="#F7D046"/>
<path d="M25.375 16.6662V9.99951H38.7083V16.6662H25.375ZM5.375 16.6662V9.99951H18.7083V16.6662H5.375Z" fill="#F2A73B"/>
<path d="M5.375 23.3332V16.6665H38.7083V23.3332H5.375Z" fill="#EE792F"/>
<path d="M18.7083 23.333H25.375V29.9997H18.7083V23.333ZM32.0417 23.333H38.7083V29.9997H32.0417V23.333ZM5.375 23.333H12.0417V29.9997H5.375V23.333Z" fill="#EB5829"/>
<path d="M32.0417 29.9995H38.7083V36.6662H32.0417V29.9995ZM5.375 29.9995H12.0417V36.6662H5.375V29.9995Z" fill="#EA3326"/>
<path fill-rule="evenodd" clip-rule="evenodd" d="M46.2382 10.0076H48.6873L49.6964 13.6576L50.0441 15.0821H50.1082L50.4491 13.659L51.465 10.0076H53.9141V20.3084H51.9382V16.9539C51.9559 15.7341 52.1468 13.3974 52.2505 12.3348H52.2028L51.4118 15.0998L50.6087 17.5801H49.4768L48.6587 15.0998L47.9223 12.3348H47.8678L47.8923 12.5815C48.0109 13.785 48.1787 16.039 48.1787 17.1206V20.3084H46.2382V10.0076ZM55.9964 18.354H58.4059V11.9621H55.9964V10.0076H63.1487V11.9621H60.7405V18.354H63.1487V20.3098H55.9964V18.354ZM65.1191 19.0114L66.4582 17.4093C67.2382 18.0477 68.2009 18.4855 69.1991 18.4855C70.1905 18.4855 70.6487 18.1019 70.6487 17.5977C70.6487 16.8563 70.035 16.6761 69.06 16.2694L67.7155 15.6961C66.5728 15.2624 65.5296 14.3868 65.5296 12.8878C65.5296 11.1814 67.0678 9.81787 69.3096 9.81787C70.5505 9.81787 71.8037 10.2828 72.735 11.1665L71.5596 12.6357C70.8328 12.1152 70.1891 11.832 69.1814 11.832C68.4137 11.832 67.8914 12.1505 67.8914 12.7509C67.8914 13.3717 68.5828 13.598 69.5714 13.968L70.8341 14.502C72.1841 15.0076 73.0378 15.8493 73.0378 17.3036C73.0378 19.0154 71.5991 20.4982 69.045 20.4982C67.5972 20.4961 66.2015 19.9672 65.1191 19.0114ZM77.3987 11.9634H74.3059V10.0076H82.8246V11.9621H79.7332V20.3098H77.3987V11.9634ZM86.7532 11.8577H87.8905C89.1164 11.8577 89.7737 12.1993 89.7737 13.2171C89.7737 14.2255 89.1164 14.7528 87.8905 14.7528H86.7519L86.7532 11.8577ZM92.5582 20.3098L90.225 16.1881C91.3269 15.6907 92.0632 14.7311 92.0632 13.2171C92.0632 10.791 90.3014 10.0225 88.1455 10.0076H84.4132V20.3084H86.7519V16.6042H87.9778L89.9469 20.3112L92.5582 20.3098ZM96.4323 16.0431L96.6778 15.0943L97.4769 11.771H97.5409C97.6582 12.2887 97.7919 12.8336 97.9268 13.373L98.6059 16.0431H96.4323ZM99.6955 20.3084H102.17L98.9578 10.0076H96.1609L92.9482 20.3084H95.3373L95.9673 17.8593H99.0709L99.6982 20.3084H99.6955ZM103.994 10.0076H106.324V18.354H110.915V20.3084H103.994V10.0076ZM48.9518 32.5691L49.1959 31.6204L49.995 28.297H50.0591C50.1764 28.8148 50.31 29.3596 50.445 29.8991L51.1241 32.5691H48.9518ZM52.2137 36.8386H54.6887L51.4746 26.5337H48.675L45.4609 36.8386H47.85L48.4814 34.3881H51.5864L52.2137 36.8386ZM55.9978 34.8801H58.4073V28.4881H55.9964V26.5337H63.1487V28.4881H60.7405V34.8801H63.1487V36.8359H55.9964V34.8787L55.9978 34.8801ZM65.2255 37.8605H72.8659V39.6361H65.2255V37.8605Z" fill="white"/>
</svg>
