<svg width="158" height="31" viewBox="0 0 158 31" fill="none" xmlns="http://www.w3.org/2000/svg">
<g clip-path="url(#clip0_17698_73370)">
<g clip-path="url(#clip1_17698_73370)">
<path d="M11.636 18.0222C11.2675 18.7593 10.2157 18.7593 9.84716 18.0222L8.96579 16.2595C8.82503 15.978 8.82503 15.6466 8.96579 15.3651L9.84716 13.6023C10.2157 12.8653 11.2675 12.8653 11.636 13.6023L12.5174 15.3651C12.6581 15.6466 12.6581 15.978 12.5174 16.2595L11.636 18.0222Z" fill="#1D4AFF"/>
<path d="M11.636 28.0193C11.2675 28.7563 10.2157 28.7563 9.84716 28.0193L8.96579 26.2566C8.82503 25.975 8.82503 25.6437 8.96579 25.3621L9.84716 23.5994C10.2157 22.8624 11.2675 22.8624 11.636 23.5994L12.5174 25.3621C12.6581 25.6437 12.6581 25.975 12.5174 26.2566L11.636 28.0193Z" fill="#1D4AFF"/>
<path d="M0.742188 24.2246C0.742188 23.3337 1.81933 22.8876 2.44929 23.5175L7.03268 28.1009C7.66264 28.7309 7.21648 29.808 6.32557 29.808H1.74219C1.1899 29.808 0.742188 29.3603 0.742188 28.808V24.2246ZM0.742188 19.3968C0.742188 19.662 0.847544 19.9164 1.03508 20.1039L10.4463 29.5151C10.6338 29.7027 10.8882 29.808 11.1534 29.808H16.3226C17.2135 29.808 17.6596 28.7309 17.0297 28.1009L2.4493 13.5205C1.81933 12.8906 0.742188 13.3367 0.742188 14.2276V19.3968ZM0.742188 9.39979C0.742188 9.66501 0.847544 9.91936 1.03508 10.1069L20.4433 29.5151C20.6308 29.7027 20.8852 29.808 21.1504 29.808H26.3196C27.2105 29.808 27.6566 28.7309 27.0267 28.1009L2.4493 3.52352C1.81933 2.89355 0.742188 3.33971 0.742188 4.23062V9.39979ZM10.7392 9.39979C10.7392 9.66501 10.8445 9.91936 11.0321 10.1069L29.0261 28.1009C29.656 28.7309 30.7332 28.2847 30.7332 27.3938V22.2246C30.7332 21.9594 30.6278 21.7051 30.4403 21.5175L12.4463 3.52351C11.8163 2.89355 10.7392 3.33971 10.7392 4.23062V9.39979ZM22.4433 3.52351C21.8133 2.89355 20.7362 3.33971 20.7362 4.23062V9.39979C20.7362 9.66501 20.8415 9.91936 21.0291 10.1069L29.0261 18.1039C29.656 18.7339 30.7332 18.2877 30.7332 17.3968V12.2276C30.7332 11.9624 30.6278 11.7081 30.4403 11.5205L22.4433 3.52351Z" fill="#F9BD2B"/>
<path d="M43.2683 24.3474L33.8555 14.9346C33.2256 14.3047 32.1484 14.7508 32.1484 15.6418V28.8082C32.1484 29.3605 32.5962 29.8082 33.1484 29.8082H47.7291C48.2814 29.8082 48.7291 29.3605 48.7291 28.8082V27.6091C48.7291 27.0568 48.2795 26.6158 47.7318 26.5445C46.051 26.3257 44.479 25.5581 43.2683 24.3474ZM36.947 26.6091C36.0641 26.6091 35.3475 25.8925 35.3475 25.0096C35.3475 24.1267 36.0641 23.4101 36.947 23.4101C37.8299 23.4101 38.5465 24.1267 38.5465 25.0096C38.5465 25.8925 37.8299 26.6091 36.947 26.6091Z" fill="white"/>
<path d="M0.742188 28.8081C0.742188 29.3604 1.1899 29.8081 1.74219 29.8081H6.32558C7.21648 29.8081 7.66265 28.731 7.03268 28.101L2.4493 23.5177C1.81933 22.8877 0.742188 23.3339 0.742188 24.2248V28.8081Z" fill="#1D4AFF"/>
<path d="M10.7392 11.8134L2.44929 3.52351C1.81933 2.89355 0.742188 3.33971 0.742188 4.23062V9.39979C0.742188 9.66501 0.847544 9.91936 1.03508 10.1069L10.7392 19.811V11.8134Z" fill="#1D4AFF"/>
<path d="M2.44929 13.5206C1.81933 12.8906 0.742188 13.3368 0.742188 14.2277V19.3969C0.742188 19.6621 0.847544 19.9164 1.03508 20.104L10.7392 29.8081V21.8105L2.44929 13.5206Z" fill="#1D4AFF"/>
<path d="M20.7392 12.2276C20.7392 11.9624 20.6338 11.708 20.4463 11.5205L12.4493 3.52352C11.8193 2.89355 10.7422 3.33972 10.7422 4.23062V9.39979C10.7422 9.66501 10.8475 9.91936 11.0351 10.1069L20.7392 19.811V12.2276Z" fill="#F54E00"/>
<path d="M10.7422 29.8081H16.3256C17.2165 29.8081 17.6626 28.731 17.0327 28.101L10.7422 21.8105V29.8081Z" fill="#F54E00"/>
<path d="M10.7422 11.8135V19.3969C10.7422 19.6621 10.8475 19.9164 11.0351 20.104L20.7392 29.8081V22.2247C20.7392 21.9595 20.6338 21.7051 20.4463 21.5176L10.7422 11.8135Z" fill="#F54E00"/>
</g>
<path d="M60.3906 25.8162H64.4986V19.0042H67.9306C71.7006 19.0042 74.1186 16.7682 74.1186 13.3102C74.1186 9.85221 71.7006 7.61621 67.9306 7.61621H60.3906V25.8162ZM64.4986 15.4942V11.1262H67.5146C69.0746 11.1262 70.0106 11.9582 70.0106 13.3102C70.0106 14.6622 69.0746 15.4942 67.5146 15.4942H64.4986Z" fill="white"/>
<path d="M81.5506 26.0242C85.5546 26.0242 88.4666 23.1642 88.4666 19.2642C88.4666 15.3642 85.5546 12.5042 81.5506 12.5042C77.4946 12.5042 74.6346 15.3642 74.6346 19.2642C74.6346 23.1642 77.4946 26.0242 81.5506 26.0242ZM78.4306 19.2642C78.4306 17.1842 79.6786 15.7542 81.5506 15.7542C83.3966 15.7542 84.6446 17.1842 84.6446 19.2642C84.6446 21.3442 83.3966 22.7742 81.5506 22.7742C79.6786 22.7742 78.4306 21.3442 78.4306 19.2642Z" fill="white"/>
<path d="M95.0405 26.0242C98.1085 26.0242 100.188 24.1002 100.188 21.8382C100.188 16.5342 93.1425 18.2502 93.1425 16.1702C93.1425 15.5982 93.7405 15.2342 94.5985 15.2342C95.4825 15.2342 96.5485 15.7802 96.8865 16.9762L99.9545 15.7022C99.3565 13.8042 97.1465 12.5042 94.4685 12.5042C91.5825 12.5042 89.7885 14.2202 89.7885 16.2742C89.7885 21.2402 96.7305 19.8622 96.7305 21.9162C96.7305 22.6442 96.0545 23.1382 95.0405 23.1382C93.5845 23.1382 92.5705 22.1242 92.2585 20.9022L89.1905 22.0982C89.8665 24.0742 91.8425 26.0242 95.0405 26.0242Z" fill="white"/>
<path d="M110.071 25.6862L109.811 22.3842C109.369 22.6182 108.797 22.6962 108.329 22.6962C107.393 22.6962 106.769 22.0202 106.769 20.8502V15.8842H109.941V12.7122H106.769V8.91621H102.947V12.7122H100.867V15.8842H102.947V21.3442C102.947 24.5162 105.105 26.0242 107.939 26.0242C108.719 26.0242 109.447 25.8942 110.071 25.6862Z" fill="white"/>
<path d="M123.397 7.61621V14.6882H116.169V7.61621H112.061V25.8162H116.169V18.1982H123.397V25.8162H127.531V7.61621H123.397Z" fill="white"/>
<path d="M136.649 26.0242C140.653 26.0242 143.565 23.1642 143.565 19.2642C143.565 15.3642 140.653 12.5042 136.649 12.5042C132.593 12.5042 129.733 15.3642 129.733 19.2642C129.733 23.1642 132.593 26.0242 136.649 26.0242ZM133.529 19.2642C133.529 17.1842 134.777 15.7542 136.649 15.7542C138.495 15.7542 139.743 17.1842 139.743 19.2642C139.743 21.3442 138.495 22.7742 136.649 22.7742C134.777 22.7742 133.529 21.3442 133.529 19.2642Z" fill="white"/>
<path d="M150.942 25.4002C152.372 25.4002 153.646 24.9062 154.322 24.0482V25.2962C154.322 26.7522 153.152 27.7662 151.358 27.7662C150.084 27.7662 148.966 27.1422 148.784 26.0762L145.3 26.6222C145.768 29.0922 148.29 30.7562 151.358 30.7562C155.388 30.7562 158.066 28.3902 158.066 24.8802V12.7122H154.296V13.8302C153.594 13.0242 152.398 12.5042 150.864 12.5042C147.224 12.5042 144.936 15.0002 144.936 18.9522C144.936 22.9042 147.224 25.4002 150.942 25.4002ZM148.654 18.9522C148.654 17.0022 149.798 15.7542 151.566 15.7542C153.36 15.7542 154.504 17.0022 154.504 18.9522C154.504 20.9022 153.36 22.1502 151.566 22.1502C149.798 22.1502 148.654 20.9022 148.654 18.9522Z" fill="white"/>
</g>
<defs>
<clipPath id="clip0_17698_73370">
<rect width="157" height="30" fill="white" transform="translate(0.742188 0.816406)"/>
</clipPath>
<clipPath id="clip1_17698_73370">
<rect width="50" height="30" fill="white" transform="translate(0.742188 0.816406)"/>
</clipPath>
</defs>
</svg>
