<svg width="158" height="31" viewBox="0 0 158 31" fill="none" xmlns="http://www.w3.org/2000/svg">
<g clip-path="url(#clip0_17698_73369)">
<g clip-path="url(#clip1_17698_73369)">
<path d="M11.3391 18.0222C10.9706 18.7593 9.91881 18.7593 9.55029 18.0222L8.66892 16.2595C8.52816 15.978 8.52816 15.6466 8.66892 15.3651L9.55029 13.6023C9.91881 12.8653 10.9706 12.8653 11.3391 13.6023L12.2205 15.3651C12.3613 15.6466 12.3613 15.978 12.2205 16.2595L11.3391 18.0222Z" fill="#1D4AFF"/>
<path d="M11.3391 28.0193C10.9706 28.7563 9.91881 28.7563 9.55029 28.0193L8.66892 26.2566C8.52816 25.975 8.52816 25.6437 8.66892 25.3621L9.55029 23.5994C9.91881 22.8624 10.9706 22.8624 11.3391 23.5994L12.2205 25.3621C12.3613 25.6437 12.3613 25.975 12.2205 26.2566L11.3391 28.0193Z" fill="#1D4AFF"/>
<path d="M0.445312 24.2246C0.445312 23.3337 1.52245 22.8876 2.15242 23.5175L6.7358 28.1009C7.36577 28.7309 6.9196 29.808 6.0287 29.808H1.44531C0.893027 29.808 0.445312 29.3603 0.445312 28.808V24.2246ZM0.445312 19.3968C0.445312 19.662 0.550669 19.9164 0.738206 20.1039L10.1494 29.5151C10.337 29.7027 10.5913 29.808 10.8565 29.808H16.0257C16.9166 29.808 17.3628 28.7309 16.7328 28.1009L2.15242 13.5205C1.52246 12.8906 0.445312 13.3367 0.445312 14.2276V19.3968ZM0.445312 9.39979C0.445312 9.66501 0.550669 9.91936 0.738206 10.1069L20.1464 29.5151C20.334 29.7027 20.5883 29.808 20.8535 29.808H26.0227C26.9136 29.808 27.3598 28.7309 26.7298 28.1009L2.15242 3.52352C1.52246 2.89355 0.445312 3.33971 0.445312 4.23062V9.39979ZM10.4423 9.39979C10.4423 9.66501 10.5477 9.91936 10.7352 10.1069L28.7292 28.1009C29.3592 28.7309 30.4363 28.2847 30.4363 27.3938V22.2246C30.4363 21.9594 30.331 21.7051 30.1434 21.5175L12.1494 3.52351C11.5195 2.89355 10.4423 3.33971 10.4423 4.23062V9.39979ZM22.1464 3.52351C21.5165 2.89355 20.4393 3.33971 20.4393 4.23062V9.39979C20.4393 9.66501 20.5447 9.91936 20.7322 10.1069L28.7292 18.1039C29.3592 18.7339 30.4363 18.2877 30.4363 17.3968V12.2276C30.4363 11.9624 30.331 11.7081 30.1434 11.5205L22.1464 3.52351Z" fill="#F9BD2B"/>
<path d="M42.9714 24.3474L33.5587 14.9346C32.9287 14.3047 31.8516 14.7508 31.8516 15.6418V28.8082C31.8516 29.3605 32.2993 29.8082 32.8516 29.8082H47.4322C47.9845 29.8082 48.4322 29.3605 48.4322 28.8082V27.6091C48.4322 27.0568 47.9826 26.6158 47.4349 26.5445C45.7541 26.3257 44.1821 25.5581 42.9714 24.3474ZM36.6501 26.6091C35.7672 26.6091 35.0506 25.8925 35.0506 25.0096C35.0506 24.1267 35.7672 23.4101 36.6501 23.4101C37.5331 23.4101 38.2496 24.1267 38.2496 25.0096C38.2496 25.8925 37.5331 26.6091 36.6501 26.6091Z" fill="black"/>
<path d="M0.445312 28.8081C0.445312 29.3604 0.893028 29.8081 1.44531 29.8081H6.0287C6.91961 29.8081 7.36577 28.731 6.73581 28.101L2.15242 23.5177C1.52246 22.8877 0.445312 23.3339 0.445312 24.2248V28.8081Z" fill="#1D4AFF"/>
<path d="M10.4423 11.8134L2.15242 3.52351C1.52245 2.89355 0.445312 3.33971 0.445312 4.23062V9.39979C0.445312 9.66501 0.550669 9.91936 0.738206 10.1069L10.4423 19.811V11.8134Z" fill="#1D4AFF"/>
<path d="M2.15242 13.5206C1.52245 12.8906 0.445312 13.3368 0.445312 14.2277V19.3969C0.445312 19.6621 0.550669 19.9164 0.738206 20.104L10.4423 29.8081V21.8105L2.15242 13.5206Z" fill="#1D4AFF"/>
<path d="M20.4423 12.2276C20.4423 11.9624 20.337 11.7081 20.1494 11.5205L12.1524 3.52352C11.5225 2.89355 10.4453 3.33972 10.4453 4.23062V9.39979C10.4453 9.66501 10.5507 9.91936 10.7382 10.1069L20.4423 19.811V12.2276Z" fill="#F54E00"/>
<path d="M10.4453 29.8081H16.0287C16.9196 29.8081 17.3658 28.731 16.7358 28.101L10.4453 21.8105V29.8081Z" fill="#F54E00"/>
<path d="M10.4453 11.8135V19.3969C10.4453 19.6621 10.5507 19.9164 10.7382 20.104L20.4423 29.8081V22.2247C20.4423 21.9595 20.337 21.7051 20.1494 21.5176L10.4453 11.8135Z" fill="#F54E00"/>
</g>
<path d="M60.0938 25.8162H64.2018V19.0042H67.6338C71.4038 19.0042 73.8218 16.7682 73.8218 13.3102C73.8218 9.85221 71.4038 7.61621 67.6338 7.61621H60.0938V25.8162ZM64.2018 15.4942V11.1262H67.2178C68.7778 11.1262 69.7138 11.9582 69.7138 13.3102C69.7138 14.6622 68.7778 15.4942 67.2178 15.4942H64.2018Z" fill="black"/>
<path d="M81.2537 26.0242C85.2577 26.0242 88.1697 23.1642 88.1697 19.2642C88.1697 15.3642 85.2577 12.5042 81.2537 12.5042C77.1977 12.5042 74.3377 15.3642 74.3377 19.2642C74.3377 23.1642 77.1977 26.0242 81.2537 26.0242ZM78.1337 19.2642C78.1337 17.1842 79.3817 15.7542 81.2537 15.7542C83.0997 15.7542 84.3477 17.1842 84.3477 19.2642C84.3477 21.3442 83.0997 22.7742 81.2537 22.7742C79.3817 22.7742 78.1337 21.3442 78.1337 19.2642Z" fill="black"/>
<path d="M94.7436 26.0242C97.8116 26.0242 99.8916 24.1002 99.8916 21.8382C99.8916 16.5342 92.8456 18.2502 92.8456 16.1702C92.8456 15.5982 93.4436 15.2342 94.3016 15.2342C95.1856 15.2342 96.2516 15.7802 96.5896 16.9762L99.6576 15.7022C99.0596 13.8042 96.8496 12.5042 94.1716 12.5042C91.2856 12.5042 89.4916 14.2202 89.4916 16.2742C89.4916 21.2402 96.4336 19.8622 96.4336 21.9162C96.4336 22.6442 95.7576 23.1382 94.7436 23.1382C93.2876 23.1382 92.2736 22.1242 91.9616 20.9022L88.8936 22.0982C89.5696 24.0742 91.5456 26.0242 94.7436 26.0242Z" fill="black"/>
<path d="M109.774 25.6862L109.514 22.3842C109.072 22.6182 108.5 22.6962 108.032 22.6962C107.096 22.6962 106.472 22.0202 106.472 20.8502V15.8842H109.644V12.7122H106.472V8.91621H102.65V12.7122H100.57V15.8842H102.65V21.3442C102.65 24.5162 104.808 26.0242 107.642 26.0242C108.422 26.0242 109.15 25.8942 109.774 25.6862Z" fill="black"/>
<path d="M123.1 7.61621V14.6882H115.872V7.61621H111.764V25.8162H115.872V18.1982H123.1V25.8162H127.234V7.61621H123.1Z" fill="black"/>
<path d="M136.352 26.0242C140.356 26.0242 143.268 23.1642 143.268 19.2642C143.268 15.3642 140.356 12.5042 136.352 12.5042C132.296 12.5042 129.436 15.3642 129.436 19.2642C129.436 23.1642 132.296 26.0242 136.352 26.0242ZM133.232 19.2642C133.232 17.1842 134.48 15.7542 136.352 15.7542C138.198 15.7542 139.446 17.1842 139.446 19.2642C139.446 21.3442 138.198 22.7742 136.352 22.7742C134.48 22.7742 133.232 21.3442 133.232 19.2642Z" fill="black"/>
<path d="M150.645 25.4002C152.075 25.4002 153.349 24.9062 154.025 24.0482V25.2962C154.025 26.7522 152.855 27.7662 151.061 27.7662C149.787 27.7662 148.669 27.1422 148.487 26.0762L145.003 26.6222C145.471 29.0922 147.993 30.7562 151.061 30.7562C155.091 30.7562 157.769 28.3902 157.769 24.8802V12.7122H153.999V13.8302C153.297 13.0242 152.101 12.5042 150.567 12.5042C146.927 12.5042 144.639 15.0002 144.639 18.9522C144.639 22.9042 146.927 25.4002 150.645 25.4002ZM148.357 18.9522C148.357 17.0022 149.501 15.7542 151.269 15.7542C153.063 15.7542 154.207 17.0022 154.207 18.9522C154.207 20.9022 153.063 22.1502 151.269 22.1502C149.501 22.1502 148.357 20.9022 148.357 18.9522Z" fill="black"/>
</g>
<defs>
<clipPath id="clip0_17698_73369">
<rect width="157" height="30" fill="white" transform="translate(0.445312 0.816406)"/>
</clipPath>
<clipPath id="clip1_17698_73369">
<rect width="50" height="30" fill="white" transform="translate(0.445312 0.816406)"/>
</clipPath>
</defs>
</svg>
