<svg width="131" height="36" viewBox="0 0 131 36" fill="none" xmlns="http://www.w3.org/2000/svg">
<path d="M127.902 25.9712C126.776 25.9712 125.896 25.6664 125.267 25.0546C124.638 24.4429 124.324 23.5931 124.324 22.5164V15.8425H122.305V13.3443H124.335L124.696 10.0073H127.084V13.3443H130.189V15.8469H127.073V22.1537C127.066 22.4986 127.195 22.8323 127.431 23.0836C127.552 23.212 127.699 23.3127 127.863 23.3792C128.026 23.4456 128.202 23.476 128.379 23.4685H130.177V25.9712H127.902Z" fill="white"/>
<path d="M115.759 26.2067C114.258 26.2067 113.051 25.8493 112.137 25.1345C111.229 24.426 110.607 23.4154 110.383 22.287H113.367C113.498 22.7207 113.788 23.0893 114.179 23.3192C114.658 23.5955 115.206 23.7305 115.759 23.7085C117.351 23.7085 118.151 23.2636 118.151 22.4049C118.151 21.9763 117.9 21.6492 117.4 21.4238C116.818 21.1747 116.209 20.9933 115.585 20.8832C114.876 20.7475 114.165 20.5718 113.443 20.3582C112.725 20.1464 112.087 19.723 111.613 19.1436C111.115 18.5503 110.866 17.7702 110.864 16.8033C110.856 16.2952 110.966 15.7922 111.185 15.3334C111.404 14.8746 111.726 14.4725 112.126 14.1582C112.97 13.4552 114.14 13.1045 115.637 13.106C117.133 13.1074 118.322 13.4411 119.203 14.107C120.079 14.7681 120.681 15.7278 120.895 16.8033H117.903C117.585 16.0135 116.834 15.6109 115.643 15.6087C114.366 15.6087 113.729 16.0069 113.729 16.8033C113.731 16.9859 113.782 17.1645 113.876 17.3209C113.971 17.4773 114.105 17.6058 114.266 17.6931C114.675 17.9397 115.13 18.1016 115.603 18.1692C116.195 18.2697 116.781 18.4049 117.357 18.5741C117.955 18.7447 118.541 18.9543 119.112 19.2014C119.668 19.4524 120.138 19.8608 120.465 20.376C120.843 20.9812 121.032 21.6853 121.006 22.3982C121.018 22.929 120.903 23.4549 120.67 23.9324C120.438 24.4098 120.094 24.825 119.669 25.1434C118.782 25.8508 117.478 26.2053 115.759 26.2067Z" fill="white"/>
<path d="M106.898 14.3695C105.978 13.5434 104.69 13.1304 103.033 13.1304C101.712 13.1304 100.604 13.4856 99.7094 14.196C98.8264 14.8887 98.2029 15.8581 97.9396 16.9478H100.761C100.905 16.5351 101.179 16.1799 101.542 15.9356C101.982 15.6408 102.505 15.4936 103.035 15.5152C103.811 15.5152 104.422 15.7154 104.87 16.1114C105.097 16.3225 105.275 16.5811 105.39 16.8687C105.506 17.1564 105.556 17.466 105.538 17.7754V18.3782H102.308C100.822 18.3782 99.6552 18.7527 98.8067 19.5017C98.401 19.8473 98.0771 20.2783 97.8581 20.7637C97.6392 21.2491 97.5308 21.7769 97.5406 22.3092C97.5254 22.8353 97.6227 23.3586 97.826 23.8442C98.0293 24.3298 98.334 24.7666 98.7197 25.1255C99.5043 25.8671 100.545 26.2378 101.84 26.2378C102.643 26.2561 103.437 26.0717 104.15 25.7017C104.722 25.4221 105.207 24.9903 105.549 24.4537H105.665L105.899 26.0109H108.287V17.7798C108.282 16.3353 107.819 15.1985 106.898 14.3695ZM105.54 21.1145C105.557 21.489 105.491 21.8626 105.346 22.2087C105.202 22.5547 104.983 22.8647 104.705 23.1167C104.15 23.6076 103.394 23.8538 102.435 23.8553C101.738 23.8553 101.203 23.6951 100.835 23.3836C100.656 23.2388 100.513 23.055 100.417 22.8464C100.32 22.6378 100.273 22.4099 100.278 22.1801C100.278 21.0678 101.007 20.5161 102.435 20.5161H105.54V21.1145Z" fill="white"/>
<path d="M90.3833 26.2334C88.5719 26.2334 87.1245 25.6535 86.0412 24.4937C84.9579 23.334 84.4155 21.7293 84.4141 19.6797C84.4141 17.6345 84.9542 16.0313 86.0345 14.87C87.1149 13.7088 88.5644 13.1289 90.3833 13.1304C91.8604 13.1304 93.0848 13.5234 94.0567 14.3094C95.0101 15.0687 95.6894 16.1176 95.9914 17.2971H93.252C92.9839 16.7745 92.571 16.3399 92.0624 16.0449C91.5538 15.7498 90.971 15.6069 90.3833 15.6331C89.9373 15.6171 89.4936 15.7041 89.0869 15.8874C88.6802 16.0707 88.3213 16.3453 88.0384 16.6898C87.444 17.3972 87.1468 18.3938 87.1468 19.6797C87.1468 20.9655 87.444 21.9621 88.0384 22.6695C88.3209 23.0148 88.6795 23.2902 89.0863 23.4743C89.493 23.6584 89.9369 23.7461 90.3833 23.7307C90.9711 23.7558 91.5537 23.6122 92.0622 23.3169C92.5706 23.0215 92.9836 22.5869 93.252 22.0644H95.9892C95.6879 23.2448 95.0085 24.2947 94.0544 25.0543C93.0856 25.8404 91.8619 26.2334 90.3833 26.2334Z" fill="white"/>
<path d="M74.2265 30.7696L76.1367 26L71.0078 13.373H73.9924L77.4541 22.3093H77.57L81.036 13.373H84.0207L77.093 30.7696H74.2265Z" fill="white"/>
<path d="M68.369 14.3695C67.4492 13.5434 66.1609 13.1304 64.504 13.1304C63.1822 13.1304 62.0721 13.4841 61.1805 14.196C60.297 14.8882 59.6734 15.8578 59.4107 16.9478H62.2326C62.375 16.5345 62.649 16.179 63.0128 15.9356C63.453 15.6403 63.9762 15.493 64.5062 15.5152C65.2819 15.5152 65.8934 15.7139 66.3407 16.1114C66.5685 16.3221 66.7467 16.5806 66.8623 16.8684C66.9779 17.1561 67.0282 17.4659 67.0094 17.7754V18.3782H63.7773C62.2913 18.3782 61.1241 18.7527 60.2756 19.5017C59.8695 19.847 59.5453 20.2779 59.3264 20.7634C59.1075 21.2489 58.9992 21.7768 59.0095 22.3092C58.9936 22.8351 59.0903 23.3585 59.2933 23.8442C59.4962 24.3299 59.8007 24.7667 60.1864 25.1255C60.971 25.8671 62.0112 26.2378 63.307 26.2378C64.1097 26.2561 64.904 26.0717 65.6162 25.7017C66.189 25.4221 66.6733 24.9903 67.016 24.4537H67.1319L67.366 26.0109H69.751V17.7798C69.751 16.3353 69.2904 15.1985 68.369 14.3695ZM67.0094 21.1145C67.0263 21.4891 66.9601 21.8627 66.8156 22.2088C66.6711 22.5549 66.4519 22.8649 66.1735 23.1167C65.6207 23.6091 64.8643 23.8553 63.9044 23.8553C63.2067 23.8553 62.6695 23.6973 62.304 23.3836C62.1255 23.2385 61.9825 23.0547 61.886 22.8462C61.7894 22.6376 61.7418 22.4098 61.7467 22.1801C61.7541 21.0723 62.4734 20.5176 63.9044 20.5161H67.0094V21.1145Z" fill="white"/>
<path d="M52.8831 19.6799C53.3086 19.5664 53.7199 19.4052 54.109 19.1994C54.5631 18.9511 54.9878 18.6526 55.3751 18.3096C55.8432 17.8795 56.2042 17.3462 56.4294 16.7523C56.7007 16.0548 56.8346 15.3115 56.824 14.5633C56.824 12.9749 56.3157 11.7025 55.2993 10.7459C54.2829 9.78929 52.9604 9.31248 51.3317 9.31544H44.4062V26.0001H47.3909V19.809H49.6555L53.9575 26.0001H57.301L52.8831 19.6799ZM47.3909 17.1706V11.9427H51.0888C51.9358 11.9427 52.6045 12.1719 53.0949 12.6301C53.5852 13.0884 53.8319 13.7306 53.8349 14.5566C53.8349 15.3827 53.5867 16.0264 53.0904 16.4876C52.5447 16.9619 51.836 17.2067 51.1133 17.1706H47.3909Z" fill="white"/>
<path fill-rule="evenodd" clip-rule="evenodd" d="M34.5833 17.6553L32.8402 19.395L26.2268 12.7946V9.31302L34.5833 17.6553ZM17.8659 0.970703L16.1228 2.71035L22.7362 9.3108H26.2246L17.8659 0.970703ZM14.1234 4.71251L12.3781 6.45439L15.249 9.3197H18.7374L14.1234 4.71251ZM26.2246 16.79V20.2715L29.0955 23.1368L30.8408 21.3949L26.2246 16.79ZM25.226 23.2636L26.2246 22.267H13.2519V9.31302L12.2533 10.3097L10.3809 8.44097L8.63116 10.1851L10.5035 12.0538L9.50492 13.0504V15.0525L6.63398 12.1872L4.88868 13.9291L9.50492 18.5363V22.5095L2.89374 15.9157L1.14844 17.6576L17.8659 34.3422L19.6112 32.6003L12.9977 25.9999H16.9943L21.6106 30.6071L23.3559 28.8652L20.4849 25.9999H22.491L23.4896 25.0033L25.362 26.8719L27.1073 25.1301L25.226 23.2636Z" fill="#FF6363"/>
</svg>
