<svg width="131" height="36" viewBox="0 0 131 36" fill="none" xmlns="http://www.w3.org/2000/svg">
<path d="M127.605 25.9712C126.479 25.9712 125.599 25.6664 124.97 25.0546C124.342 24.4429 124.027 23.5931 124.027 22.5164V15.8425H122.008V13.3443H124.038L124.4 10.0073H126.787V13.3443H129.892V15.8469H126.776V22.1537C126.769 22.4986 126.898 22.8323 127.134 23.0836C127.255 23.2119 127.403 23.3127 127.566 23.3792C127.73 23.4456 127.905 23.476 128.082 23.4685H129.881V25.9712H127.605Z" fill="#202123"/>
<path d="M115.462 26.2067C113.961 26.2067 112.754 25.8493 111.84 25.1345C110.932 24.426 110.31 23.4154 110.086 22.287H113.071C113.201 22.7207 113.491 23.0893 113.882 23.3192C114.361 23.5955 114.909 23.7305 115.462 23.7085C117.054 23.7085 117.854 23.2636 117.854 22.4049C117.854 21.9763 117.604 21.6492 117.103 21.4238C116.521 21.1747 115.912 20.9933 115.288 20.8832C114.58 20.7475 113.869 20.5718 113.146 20.3582C112.428 20.1464 111.79 19.723 111.316 19.1436C110.819 18.5503 110.569 17.7702 110.567 16.8033C110.56 16.2952 110.669 15.7922 110.888 15.3334C111.107 14.8746 111.429 14.4725 111.829 14.1582C112.673 13.4552 113.843 13.1045 115.34 13.106C116.836 13.1074 118.025 13.4411 118.906 14.107C119.782 14.7681 120.385 15.7278 120.598 16.8033H117.607C117.288 16.0135 116.537 15.6109 115.346 15.6087C114.069 15.6087 113.432 16.0069 113.432 16.8033C113.434 16.9859 113.485 17.1645 113.579 17.3209C113.674 17.4773 113.808 17.6058 113.969 17.6931C114.378 17.9397 114.833 18.1016 115.306 18.1692C115.898 18.2697 116.484 18.4049 117.06 18.5741C117.658 18.7447 118.244 18.9543 118.815 19.2014C119.371 19.4524 119.842 19.8608 120.168 20.376C120.546 20.9812 120.735 21.6853 120.709 22.3982C120.721 22.929 120.606 23.4549 120.374 23.9324C120.141 24.4098 119.798 24.825 119.372 25.1434C118.485 25.8508 117.182 26.2053 115.462 26.2067Z" fill="#202123"/>
<path d="M106.601 14.3695C105.681 13.5434 104.393 13.1304 102.736 13.1304C101.415 13.1304 100.307 13.4856 99.4125 14.196C98.5295 14.8887 97.9061 15.8581 97.6427 16.9478H100.465C100.608 16.5351 100.882 16.1799 101.245 15.9356C101.685 15.6408 102.208 15.4936 102.738 15.5152C103.514 15.5152 104.125 15.7154 104.573 16.1114C104.8 16.3225 104.978 16.5811 105.093 16.8687C105.209 17.1564 105.26 17.466 105.241 17.7754V18.3782H102.012C100.526 18.3782 99.3583 18.7527 98.5098 19.5017C98.1041 19.8473 97.7802 20.2783 97.5613 20.7637C97.3424 21.2491 97.2339 21.7769 97.2437 22.3092C97.2285 22.8353 97.3258 23.3586 97.5291 23.8442C97.7324 24.3298 98.0371 24.7666 98.4229 25.1255C99.2075 25.8671 100.248 26.2378 101.543 26.2378C102.346 26.2561 103.14 26.0717 103.853 25.7017C104.425 25.4221 104.91 24.9903 105.252 24.4537H105.368L105.602 26.0109H107.99V17.7798C107.985 16.3353 107.522 15.1985 106.601 14.3695ZM105.244 21.1145C105.26 21.489 105.194 21.8626 105.049 22.2087C104.905 22.5547 104.686 22.8647 104.408 23.1167C103.853 23.6076 103.097 23.8538 102.139 23.8553C101.441 23.8553 100.906 23.6951 100.538 23.3836C100.359 23.2388 100.216 23.055 100.12 22.8464C100.023 22.6378 99.9757 22.4099 99.9809 22.1801C99.9809 21.0678 100.71 20.5161 102.139 20.5161H105.244V21.1145Z" fill="#202123"/>
<path d="M90.0864 26.2334C88.275 26.2334 86.8276 25.6535 85.7443 24.4937C84.6611 23.334 84.1187 21.7293 84.1172 19.6797C84.1172 17.6345 84.6573 16.0313 85.7377 14.87C86.818 13.7088 88.2676 13.1289 90.0864 13.1304C91.5635 13.1304 92.788 13.5234 93.7598 14.3094C94.7132 15.0687 95.3925 16.1176 95.6946 17.2971H92.9551C92.687 16.7745 92.2741 16.3399 91.7655 16.0449C91.2569 15.7498 90.6741 15.6069 90.0864 15.6331C89.6404 15.6171 89.1968 15.7041 88.79 15.8874C88.3833 16.0707 88.0245 16.3453 87.7415 16.6898C87.1471 17.3972 86.8499 18.3938 86.8499 19.6797C86.8499 20.9655 87.1471 21.9621 87.7415 22.6695C88.024 23.0148 88.3826 23.2902 88.7894 23.4743C89.1962 23.6584 89.6401 23.7461 90.0864 23.7307C90.6742 23.7558 91.2568 23.6122 91.7653 23.3169C92.2737 23.0215 92.6867 22.5869 92.9551 22.0644H95.6923C95.391 23.2448 94.7116 24.2947 93.7576 25.0543C92.7887 25.8404 91.565 26.2334 90.0864 26.2334Z" fill="#202123"/>
<path d="M73.9296 30.7696L75.8398 26L70.7109 13.373H73.6956L77.1572 22.3093H77.2731L80.7392 13.373H83.7238L76.7961 30.7696H73.9296Z" fill="#202123"/>
<path d="M68.0722 14.3695C67.1523 13.5434 65.864 13.1304 64.2071 13.1304C62.8853 13.1304 61.7753 13.4841 60.8837 14.196C60.0001 14.8882 59.3765 15.8578 59.1139 16.9478H61.9358C62.0781 16.5345 62.3521 16.179 62.7159 15.9356C63.1561 15.6403 63.6793 15.493 64.2093 15.5152C64.985 15.5152 65.5965 15.7139 66.0438 16.1114C66.2716 16.3221 66.4498 16.5806 66.5654 16.8684C66.6811 17.1561 66.7313 17.4659 66.7125 17.7754V18.3782H63.4804C61.9945 18.3782 60.8272 18.7527 59.9787 19.5017C59.5727 19.847 59.2485 20.2779 59.0295 20.7634C58.8106 21.2489 58.7023 21.7768 58.7126 22.3092C58.6967 22.8351 58.7934 23.3585 58.9964 23.8442C59.1993 24.3299 59.5039 24.7667 59.8895 25.1255C60.6741 25.8671 61.7143 26.2378 63.0101 26.2378C63.8128 26.2561 64.6072 26.0717 65.3194 25.7017C65.8921 25.4221 66.3765 24.9903 66.7192 24.4537H66.8351L67.0691 26.0109H69.4541V17.7798C69.4541 16.3353 68.9935 15.1985 68.0722 14.3695ZM66.7125 21.1145C66.7294 21.4891 66.6632 21.8627 66.5187 22.2088C66.3743 22.5549 66.155 22.8649 65.8766 23.1167C65.3238 23.6091 64.5675 23.8553 63.6075 23.8553C62.9098 23.8553 62.3726 23.6973 62.0071 23.3836C61.8286 23.2385 61.6857 23.0547 61.5891 22.8462C61.4925 22.6376 61.4449 22.4098 61.4498 22.1801C61.4573 21.0723 62.1765 20.5176 63.6075 20.5161H66.7125V21.1145Z" fill="#202123"/>
<path d="M52.5862 19.6799C53.0117 19.5664 53.423 19.4052 53.8122 19.1994C54.2663 18.9511 54.691 18.6526 55.0782 18.3096C55.5463 17.8795 55.9073 17.3462 56.1325 16.7523C56.4038 16.0548 56.5377 15.3115 56.5271 14.5633C56.5271 12.9749 56.0189 11.7025 55.0025 10.7459C53.986 9.78929 52.6635 9.31248 51.0348 9.31544H44.1094V26.0001H47.094V19.809H49.3587L53.6606 26.0001H57.0041L52.5862 19.6799ZM47.094 17.1706V11.9427H50.7919C51.6389 11.9427 52.3076 12.1719 52.798 12.6301C53.2884 13.0884 53.535 13.7306 53.538 14.5566C53.538 15.3827 53.2898 16.0264 52.7935 16.4876C52.2478 16.9619 51.5392 17.2067 50.8164 17.1706H47.094Z" fill="#202123"/>
<path fill-rule="evenodd" clip-rule="evenodd" d="M34.2864 17.6553L32.5433 19.395L25.9299 12.7946V9.31302L34.2864 17.6553ZM17.569 0.970703L15.8259 2.71035L22.4393 9.3108H25.9277L17.569 0.970703ZM13.8265 4.71251L12.0812 6.45439L14.9522 9.3197H18.4405L13.8265 4.71251ZM25.9277 16.79V20.2715L28.7986 23.1368L30.5439 21.3949L25.9277 16.79ZM24.9291 23.2636L25.9277 22.267H12.955V9.31302L11.9564 10.3097L10.084 8.44097L8.33428 10.1851L10.2066 12.0538L9.20805 13.0504V15.0525L6.33711 12.1872L4.59181 13.9291L9.20805 18.5363V22.5095L2.59686 15.9157L0.851562 17.6576L17.569 34.3422L19.3143 32.6003L12.7009 25.9999H16.6975L21.3137 30.6071L23.059 28.8652L20.188 25.9999H22.1941L23.1927 25.0033L25.0651 26.8719L26.8104 25.1301L24.9291 23.2636Z" fill="#FF6363"/>
</svg>
