<svg width="159" height="21" viewBox="0 0 159 21" fill="none" xmlns="http://www.w3.org/2000/svg">
<g clip-path="url(#clip0_17698_73268)">
<path d="M11.5237 18.955C9.92702 16.9725 8.5186 14.8488 7.31626 12.6107H5.14945V17.2389C5.14945 18.955 5.54915 19.319 6.30648 19.423L7.75804 19.6206V20.4214C7.06382 20.4214 5.43345 20.3382 4.17122 20.3382C2.909 20.3382 1.54159 20.3902 0.784262 20.4214V19.6206L1.83611 19.423C2.56189 19.2878 2.98263 18.955 2.98263 17.2389V6.27687C2.95108 4.5192 2.53034 4.21759 1.79404 4.08238L0.742188 3.89517V3.08394H3.68737C4.81285 3.08394 6.23285 3.00074 7.89478 3.00074C11.0503 3.00074 13.5222 4.436 13.5222 7.54572C13.475 8.65143 13.0643 9.71173 12.3524 10.5658C11.6406 11.4198 10.6664 12.0209 9.57774 12.2779C10.7612 14.3813 12.1719 16.3516 13.7852 18.1541C14.4699 18.9806 15.4561 19.5073 16.5305 19.6206V20.3382C16.1169 20.4905 15.678 20.5646 15.2367 20.5566C14.5367 20.5765 13.8409 20.4433 13.199 20.1664C12.5572 19.8895 11.9851 19.4759 11.5237 18.955ZM11.1345 7.71213C11.1345 5.49684 9.73552 4.27999 7.37937 4.27999H5.10737V11.2379C5.75952 11.2899 6.15922 11.3211 7.12693 11.3211C9.61982 11.3731 11.1345 9.89621 11.1345 7.71213ZM16.9933 13.8796C16.9933 9.66741 19.5388 6.59928 23.1782 6.59928C23.871 6.5735 24.5617 6.69118 25.2058 6.94479C25.85 7.19841 26.4334 7.58234 26.9187 8.07197C27.404 8.5616 27.7804 9.14612 28.0239 9.78803C28.2673 10.4299 28.3723 11.1151 28.3323 11.7995C28.341 12.1297 28.3234 12.4601 28.2797 12.7875H19.2337C19.2185 13.0577 19.2185 13.3286 19.2337 13.5988C19.2022 16.5733 20.7274 19.0798 23.8829 19.0798C25.1621 19.1122 26.4308 18.8449 27.5854 18.2998L27.6696 18.9966C27.1332 19.8598 25.366 20.7126 23.357 20.7126C19.2022 20.7022 16.9933 18.0397 16.9933 13.8796ZM25.4081 11.7163C25.8814 11.7163 26.0497 11.4979 26.0497 11.1027C26.0949 10.6854 26.0522 10.2634 25.9242 9.86326C25.7961 9.46315 25.5856 9.09361 25.3059 8.77796C25.0262 8.46232 24.6834 8.20741 24.2991 8.02934C23.9148 7.85126 23.4973 7.75388 23.073 7.74333C20.7169 7.74333 19.5388 9.82341 19.3179 11.6747L25.4081 11.7163ZM30.5727 20.1198C30.6165 18.9095 30.592 17.6977 30.4991 16.4901H31.5509C31.8034 18.4558 32.3924 19.5374 34.7696 19.5374C36.5367 19.5374 37.7674 18.5702 37.7674 17.0205C37.7674 13.5572 30.741 15.242 30.741 10.229C30.741 8.01374 32.7606 6.57848 35.4743 6.57848C36.7486 6.59864 38.0092 6.84159 39.1979 7.29611C39.1461 8.33617 39.1637 9.37846 39.2505 10.4162H38.1986C38.2418 10.0366 38.1971 9.65229 38.0678 9.29233C37.9385 8.93237 37.728 8.60623 37.4523 8.33864C37.1766 8.07104 36.8429 7.86901 36.4765 7.74785C36.1101 7.62669 35.7206 7.58957 35.3376 7.63932C33.6546 7.63932 32.5712 8.35695 32.5712 9.77141C32.5712 12.9851 39.6292 11.6539 39.6292 16.6149C39.6292 18.8302 37.578 20.6814 34.7801 20.6814C33.3565 20.7147 31.9365 20.5252 30.5727 20.1198ZM42.122 13.8796C42.122 9.66741 44.6675 6.59928 48.3069 6.59928C48.9998 6.5735 49.6904 6.69118 50.3346 6.94479C50.9787 7.19841 51.5622 7.58234 52.0475 8.07197C52.5327 8.5616 52.9092 9.14612 53.1526 9.78803C53.396 10.4299 53.5011 11.1151 53.461 11.7995C53.4872 12.1283 53.4872 12.4587 53.461 12.7875H44.4151C44.3998 13.0577 44.3998 13.3286 44.4151 13.5988C44.4151 16.5837 45.9297 19.0798 49.0643 19.0798C50.3434 19.1122 51.6121 18.8449 52.7668 18.2998L52.8509 18.9966C52.3145 19.8598 50.5474 20.7126 48.5383 20.7126C44.3309 20.7022 42.122 18.0397 42.122 13.8796ZM50.5369 11.7163C51.0102 11.7163 51.1785 11.4979 51.1785 11.1027C51.2237 10.6854 51.1809 10.2634 51.0529 9.86326C50.9249 9.46315 50.7144 9.09361 50.4347 8.77796C50.155 8.46232 49.8122 8.20741 49.4278 8.02934C49.0435 7.85126 48.626 7.75388 48.2017 7.74333C45.8456 7.74333 44.6675 9.82341 44.4466 11.6747L50.5369 11.7163ZM55.0072 17.2701C55.0072 14.67 57.3318 13.0059 60.9186 13.0059H62.4333V11.4251C62.4333 9.29299 61.4761 8.15935 59.2777 8.15935C58.1782 8.13559 57.0911 8.39356 56.1222 8.90817L55.9749 8.09694C57.0058 7.10928 58.3789 6.54762 59.8142 6.52648C62.9697 6.52648 64.5475 8.24255 64.5475 10.9259C64.5475 13.0891 64.4423 15.19 64.4423 17.6861C64.4423 19.0382 64.9472 19.4334 66.6512 19.4334V20.203C66.0048 20.5448 65.2804 20.7167 64.5475 20.7022C64.2833 20.7325 64.0156 20.7058 63.7629 20.624C63.5101 20.5422 63.2783 20.4072 63.0833 20.2283C62.8884 20.0494 62.735 19.8308 62.6337 19.5877C62.5324 19.3445 62.4855 19.0825 62.4964 18.8198H62.4438C62.0133 19.3975 61.4527 19.8683 60.8065 20.1951C60.1603 20.5218 59.446 20.6954 58.7203 20.7022C58.2431 20.7415 57.7629 20.6815 57.3106 20.5262C56.8583 20.3708 56.4439 20.1235 56.0941 19.8002C55.7443 19.4769 55.4669 19.0847 55.2797 18.649C55.0925 18.2132 54.9997 17.7435 55.0072 17.2701ZM62.3176 17.8733C62.3176 16.8853 62.3702 14.8052 62.4017 14.2228H61.3499C58.4678 14.2228 57.1425 15.2628 57.1425 16.9373C57.1323 17.2321 57.1857 17.5258 57.2991 17.7987C57.4124 18.0716 57.5832 18.3175 57.8001 18.5201C58.017 18.7227 58.2749 18.8774 58.5569 18.9739C58.8389 19.0704 59.1384 19.1065 59.4355 19.0798C59.9747 19.0901 60.51 18.988 61.0065 18.7801C61.5031 18.5723 61.9498 18.2633 62.3176 17.8733ZM68.7339 19.5998L69.6595 19.4542C70.3011 19.3502 70.5852 19.1838 70.5852 17.2389V10.4786C70.5852 9.07458 70.5852 8.74177 68.7654 8.39855V7.71213C70.0946 7.36527 71.3955 6.92027 72.6573 6.38087V8.46096C73.0872 7.92527 73.6197 7.47866 74.2243 7.14672C74.8289 6.81478 75.4939 6.60401 76.181 6.52648C76.5894 6.5262 76.996 6.57865 77.3906 6.68249L77.1697 8.59616C76.6747 8.41797 76.1502 8.3333 75.6235 8.34655C74.546 8.36142 73.5035 8.72695 72.6573 9.38659V17.2285C72.6573 19.1734 72.9623 19.3606 73.5829 19.4438L74.8662 19.5894V20.359C74.172 20.359 72.6573 20.255 71.5949 20.255C70.5326 20.255 69.4912 20.3278 68.7339 20.359V19.5998ZM78.4846 13.8796C78.4846 9.71941 81.5349 6.59928 85.2059 6.59928C86.4759 6.6052 87.7354 6.82683 88.9294 7.25451C88.8453 8.16974 88.8243 9.501 88.8243 10.3746H87.7724C87.6883 8.79377 87.0466 7.74333 85.0586 7.74333C82.6604 7.71213 80.6829 9.87541 80.6829 13.5572C80.6829 17.2389 82.713 19.0798 85.6266 19.0798C86.7722 19.1131 87.9024 18.813 88.8769 18.2165L89.0136 18.9446C88.5132 19.536 87.8795 20.0031 87.1634 20.3083C86.4473 20.6136 85.6688 20.7485 84.8903 20.7022C80.8617 20.7022 78.4846 18.0397 78.4846 13.8796ZM91.2014 19.5998L92.1271 19.4542C92.7687 19.3502 93.0527 19.1838 93.0527 17.2389V5.02882C93.0527 3.61436 93.0527 3.28155 91.233 2.94874V2.25191C92.5765 1.88373 93.8801 1.38557 95.1249 0.764648V8.32575C96.208 7.28274 97.6254 6.64637 99.1324 6.52648C102.435 6.52648 103.34 8.46096 103.34 11.2587V17.2389C103.34 19.1838 103.645 19.319 104.255 19.4542L105.181 19.5998V20.3694C104.486 20.3694 103.34 20.2862 102.267 20.2862C101.194 20.2862 100.163 20.3382 99.4164 20.3694V19.5998L100.342 19.4542C100.984 19.3502 101.257 19.1838 101.257 17.2389V11.5603C101.257 9.4802 100.7 8.15935 98.3225 8.15935C97.163 8.20399 96.0384 8.56385 95.0723 9.19939V17.1973C95.0723 19.1422 95.3773 19.2774 95.9979 19.4126L96.9235 19.5582V20.3278C96.2188 20.3278 95.0723 20.2446 94.0099 20.2446C92.9475 20.2446 91.9062 20.2966 91.1488 20.3278L91.2014 19.5998ZM107.137 11.9555C107.137 6.75529 110.703 2.75113 115.825 2.75113C117.513 2.73878 119.19 3.02042 120.78 3.58316C120.78 4.86241 120.843 6.07926 120.948 7.54572H119.896C119.888 7.03655 119.774 6.5345 119.56 6.07147C119.345 5.60843 119.036 5.19455 118.651 4.85612C118.266 4.51769 117.814 4.26211 117.324 4.10563C116.834 3.94915 116.317 3.89519 115.804 3.94718C112.018 3.94718 109.609 7.1609 109.609 11.7579C109.609 16.3549 111.997 19.5686 115.773 19.5686C116.92 19.6273 118.064 19.4096 119.107 18.9342V15.8141C119.107 14.098 118.686 13.734 117.961 13.6196L116.909 13.4324V12.6211C117.603 12.6211 118.728 12.7043 120.296 12.7043C121.558 12.7043 122.484 12.7043 123.178 12.6211V13.4324L122.315 13.5988C121.526 13.7652 121.263 14.202 121.263 15.7829V19.8286C119.396 20.4523 117.438 20.7685 115.468 20.7647C110.282 20.7542 107.137 17.2181 107.137 11.9555ZM124.861 17.2701C124.861 14.67 127.185 13.0059 130.772 13.0059H132.276V11.4251C132.276 9.29299 131.33 8.15935 129.121 8.15935C128.021 8.13559 126.934 8.39356 125.965 8.90817L125.818 8.09694C126.849 7.10928 128.222 6.54762 129.657 6.52648C132.813 6.52648 134.39 8.24255 134.39 10.9259C134.39 13.0891 134.285 15.19 134.285 17.6861C134.285 19.0382 134.79 19.4334 136.494 19.4334V20.203C135.848 20.5448 135.123 20.7167 134.39 20.7022C134.122 20.7408 133.849 20.7203 133.589 20.6422C133.33 20.5642 133.091 20.4304 132.891 20.2506C132.69 20.0708 132.531 19.8493 132.427 19.6019C132.323 19.3546 132.275 19.0875 132.287 18.8198C131.856 19.3975 131.296 19.8683 130.649 20.1951C130.003 20.5218 129.289 20.6954 128.563 20.7022C128.087 20.74 127.608 20.6789 127.157 20.5228C126.706 20.3668 126.293 20.1192 125.944 19.7961C125.595 19.4729 125.319 19.0813 125.132 18.6463C124.946 18.2113 124.853 17.7425 124.861 17.2701ZM132.224 17.8733C132.224 16.8853 132.224 14.8052 132.308 14.2228H131.256C128.374 14.2228 127.049 15.2628 127.049 16.9373C127.039 17.2256 127.091 17.5126 127.2 17.7801C127.309 18.0476 127.473 18.2898 127.682 18.4913C127.89 18.6928 128.139 18.8491 128.412 18.9504C128.685 19.0517 128.977 19.0958 129.268 19.0798C129.809 19.0909 130.346 18.9892 130.844 18.7813C131.343 18.5735 131.791 18.2641 132.161 17.8733H132.224ZM139.671 17.4365V8.15935H137.956V7.26491C138.692 6.92197 139.336 6.41299 139.837 5.77893C140.337 5.14487 140.68 4.40345 140.838 3.61436H141.743V6.84889H145.803V8.15935H141.743V16.9997C141.743 18.6534 142.248 19.3502 143.615 19.3502C144.312 19.3382 145.003 19.226 145.666 19.0174L145.772 19.5686C145.377 19.9677 144.901 20.2783 144.375 20.4793C143.848 20.6802 143.284 20.7669 142.721 20.7334C140.449 20.7022 139.671 19.7038 139.671 17.4365ZM147.17 13.8796C147.17 9.66741 149.726 6.59928 153.366 6.59928C154.058 6.5751 154.748 6.69389 155.392 6.94806C156.035 7.20223 156.618 7.58621 157.103 8.0755C157.588 8.56479 157.964 9.14866 158.208 9.78984C158.452 10.431 158.558 11.1155 158.52 11.7995C158.529 12.1297 158.511 12.4601 158.467 12.7875H149.411V13.5988C149.411 16.5837 150.926 19.0798 154.06 19.0798C155.336 19.1126 156.601 18.8452 157.752 18.2998L157.836 18.9966C157.31 19.8598 155.543 20.7126 153.524 20.7126C149.39 20.7022 147.17 18.0397 147.17 13.8796ZM155.585 11.7163C156.059 11.7163 156.227 11.4979 156.227 11.1027C156.272 10.6862 156.23 10.2651 156.102 9.86566C155.975 9.46624 155.765 9.09718 155.487 8.78169C155.208 8.4662 154.867 8.21109 154.483 8.0324C154.1 7.8537 153.684 7.75529 153.261 7.74333C150.915 7.74333 149.737 9.82341 149.506 11.6747L155.585 11.7163Z" fill="#40BA9B"/>
</g>
<defs>
<clipPath id="clip0_17698_73268">
<rect width="157.778" height="20" fill="white" transform="translate(0.742188 0.764648)"/>
</clipPath>
</defs>
</svg>
