<svg width="213" height="27" viewBox="0 0 213 27" fill="none" xmlns="http://www.w3.org/2000/svg">
<g clip-path="url(#clip0_16996_57218)">
<path d="M14.555 24.5569C12.3995 21.8807 10.4982 19.0136 8.875 15.9922H5.9498V22.2403C5.9498 24.5569 6.4894 25.0484 7.5118 25.1888L9.4714 25.4555V26.5367C8.5342 26.5367 6.3332 26.4243 4.6292 26.4243C2.9252 26.4243 1.0792 26.4945 0.0568 26.5367V25.4555L1.4768 25.1888C2.4566 25.0062 3.0246 24.5569 3.0246 22.2403V7.4415C2.982 5.06864 2.414 4.66147 1.42 4.47894L0 4.22621V3.13105H3.976C5.4954 3.13105 7.4124 3.01872 9.656 3.01872C13.916 3.01872 17.253 4.95632 17.253 9.15445C17.1893 10.6472 16.6348 12.0786 15.6738 13.2315C14.7128 14.3844 13.3977 15.1959 11.928 15.5429C13.5256 18.3825 15.4301 21.0424 17.608 23.4758C18.5324 24.5915 19.8638 25.3026 21.3142 25.4555V26.4243C20.7558 26.6299 20.1633 26.7299 19.5676 26.7192C18.6226 26.746 17.6833 26.5661 16.8167 26.1924C15.9502 25.8186 15.1779 25.2601 14.555 24.5569ZM14.0296 9.3791C14.0296 6.38846 12.141 4.74571 8.9602 4.74571H5.893V14.1388C6.7734 14.209 7.313 14.2512 8.6194 14.2512C11.9848 14.3214 14.0296 12.3276 14.0296 9.3791ZM21.939 17.7051C21.939 12.0187 25.3754 7.87676 30.2886 7.87676C31.2239 7.84195 32.1563 8.00082 33.0259 8.3432C33.8955 8.68557 34.6832 9.20388 35.3383 9.86489C35.9934 10.5259 36.5016 11.315 36.8303 12.1816C37.1589 13.0482 37.3007 13.9731 37.2466 14.897C37.2584 15.3428 37.2346 15.7888 37.1756 16.2309H24.9636C24.943 16.5957 24.943 16.9613 24.9636 17.3261C24.921 21.3417 26.98 24.7254 31.24 24.7254C32.9668 24.7692 34.6796 24.4084 36.2384 23.6724L36.352 24.6131C35.6278 25.7785 33.2422 26.9298 30.53 26.9298C24.921 26.9158 21.939 23.3214 21.939 17.7051ZM33.299 14.7847C33.938 14.7847 34.1652 14.4899 34.1652 13.9563C34.2262 13.393 34.1685 12.8233 33.9957 12.2831C33.8228 11.743 33.5387 11.2441 33.1611 10.818C32.7835 10.3919 32.3207 10.0477 31.8018 9.80733C31.283 9.56693 30.7194 9.43546 30.1466 9.42122C26.9658 9.42122 25.3754 12.2293 25.0772 14.7285L33.299 14.7847ZM40.2712 26.1295C40.3304 24.4955 40.2972 22.8596 40.1718 21.2293H41.5918C41.9326 23.883 42.7278 25.3432 45.937 25.3432C48.3226 25.3432 49.984 24.0374 49.984 21.9454C49.984 17.2699 40.4984 19.5445 40.4984 12.7769C40.4984 9.78627 43.2248 7.84867 46.8884 7.84867C48.6087 7.87589 50.3105 8.20388 51.9152 8.81747C51.8453 10.2215 51.869 11.6286 51.9862 13.0296H50.5662C50.6245 12.5172 50.5641 11.9983 50.3895 11.5124C50.215 11.0264 49.9308 10.5861 49.5586 10.2249C49.1864 9.86363 48.7359 9.59089 48.2413 9.42732C47.7467 9.26375 47.2209 9.21365 46.7038 9.28081C44.4318 9.28081 42.9692 10.2496 42.9692 12.1591C42.9692 16.4977 52.4974 14.7005 52.4974 21.3978C52.4974 24.3885 49.7284 26.8877 45.9512 26.8877C44.0293 26.9326 42.1123 26.6767 40.2712 26.1295ZM55.8628 17.7051C55.8628 12.0187 59.2992 7.87676 64.2124 7.87676C65.1478 7.84195 66.0801 8.00082 66.9497 8.3432C67.8193 8.68557 68.607 9.20388 69.2621 9.86489C69.9172 10.5259 70.4254 11.315 70.7541 12.1816C71.0827 13.0482 71.2245 13.9731 71.1704 14.897C71.2058 15.341 71.2058 15.787 71.1704 16.2309H58.9584C58.9378 16.5957 58.9378 16.9613 58.9584 17.3261C58.9584 21.3557 61.0032 24.7254 65.2348 24.7254C66.9616 24.7692 68.6744 24.4084 70.2332 23.6724L70.3468 24.6131C69.6226 25.7785 67.237 26.9298 64.5248 26.9298C58.8448 26.9158 55.8628 23.3214 55.8628 17.7051ZM67.2228 14.7847C67.8618 14.7847 68.089 14.4899 68.089 13.9563C68.15 13.393 68.0923 12.8233 67.9195 12.2831C67.7466 11.743 67.4625 11.2441 67.0849 10.818C66.7073 10.3919 66.2445 10.0477 65.7256 9.80733C65.2068 9.56693 64.6432 9.43546 64.0704 9.42122C60.8896 9.42122 59.2992 12.2293 59.001 14.7285L67.2228 14.7847ZM73.2578 22.2824C73.2578 18.7722 76.396 16.5257 81.2382 16.5257H83.283V14.3916C83.283 11.5133 81.9908 9.98284 79.023 9.98284C77.5386 9.95078 76.071 10.299 74.763 10.9938L74.5642 9.8986C75.9559 8.56526 77.8096 7.80701 79.7472 7.77847C84.0072 7.77847 86.1372 10.0952 86.1372 13.7176C86.1372 16.6381 85.9952 19.4743 85.9952 22.844C85.9952 24.6693 86.6768 25.2028 88.9772 25.2028V26.2418C88.1045 26.7032 87.1266 26.9352 86.1372 26.9158C85.7805 26.9566 85.4192 26.9206 85.0779 26.8101C84.7367 26.6997 84.4237 26.5174 84.1606 26.2759C83.8974 26.0343 83.6903 25.7393 83.5535 25.4111C83.4167 25.0828 83.3535 24.7291 83.3682 24.3744H83.2972C82.716 25.1544 81.9592 25.79 81.0868 26.231C80.2144 26.6721 79.2502 26.9065 78.2704 26.9158C77.6262 26.9688 76.978 26.8878 76.3673 26.6781C75.7567 26.4683 75.1973 26.1345 74.7251 25.698C74.2529 25.2615 73.8784 24.7321 73.6257 24.1438C73.373 23.5555 73.2476 22.9214 73.2578 22.2824ZM83.1268 23.0967C83.1268 21.7629 83.1978 18.9548 83.2404 18.1685H81.8204C77.9296 18.1685 76.1404 19.5725 76.1404 21.8331C76.1267 22.2311 76.1987 22.6275 76.3518 22.9959C76.5048 23.3643 76.7354 23.6963 77.0282 23.9699C77.321 24.2434 77.6692 24.4523 78.0499 24.5825C78.4305 24.7128 78.8349 24.7615 79.236 24.7254C79.9638 24.7393 80.6865 24.6015 81.3569 24.3209C82.0272 24.0403 82.6303 23.6232 83.1268 23.0967ZM91.7888 25.4275L93.0384 25.2309C93.9046 25.0905 94.288 24.8658 94.288 22.2403V13.1139C94.288 11.2184 94.288 10.7691 91.8314 10.3058V9.3791C93.6257 8.91084 95.382 8.31009 97.0854 7.5819V10.39C97.6657 9.66683 98.3846 9.06392 99.2009 8.6158C100.017 8.16767 100.915 7.88313 101.842 7.77847C102.394 7.7781 102.943 7.8489 103.475 7.98908L103.177 10.5725C102.509 10.332 101.801 10.2177 101.09 10.2356C99.6352 10.2556 98.2278 10.7491 97.0854 11.6396V22.2262C97.0854 24.8518 97.4972 25.1045 98.335 25.2168L100.067 25.4134V26.4524C99.1302 26.4524 97.0854 26.312 95.6512 26.312C94.217 26.312 92.8112 26.4103 91.7888 26.4524V25.4275ZM104.952 17.7051C104.952 12.0889 109.07 7.87676 114.026 7.87676C115.74 7.88475 117.441 8.18395 119.053 8.76131C118.939 9.99688 118.911 11.7941 118.911 12.9735H117.491C117.377 10.8393 116.511 9.42122 113.827 9.42122C110.59 9.3791 107.92 12.2995 107.92 17.2699C107.92 22.2403 110.661 24.7254 114.594 24.7254C116.14 24.7705 117.666 24.3652 118.982 23.5601L119.166 24.5429C118.491 25.3413 117.635 25.9719 116.669 26.384C115.702 26.7961 114.651 26.9782 113.6 26.9158C108.161 26.9158 104.952 23.3214 104.952 17.7051ZM122.12 25.4275L123.37 25.2309C124.236 25.0905 124.619 24.8658 124.619 22.2403V5.75663C124.619 3.84711 124.619 3.39782 122.163 2.94852V2.0078C123.976 1.51077 125.736 0.83825 127.417 0V10.2075C128.879 8.79943 130.792 7.94032 132.827 7.77847C137.286 7.77847 138.507 10.39 138.507 14.1669V22.2403C138.507 24.8658 138.919 25.0484 139.742 25.2309L140.992 25.4275V26.4665C140.055 26.4665 138.507 26.3541 137.058 26.3541C135.61 26.3541 134.218 26.4243 133.21 26.4665V25.4275L134.46 25.2309C135.326 25.0905 135.695 24.8658 135.695 22.2403V14.5741C135.695 11.766 134.943 9.98284 131.733 9.98284C130.168 10.0431 128.65 10.5289 127.346 11.3869V22.1841C127.346 24.8097 127.757 24.9922 128.595 25.1747L129.845 25.3713V26.4103C128.893 26.4103 127.346 26.298 125.911 26.298C124.477 26.298 123.071 26.3682 122.049 26.4103L122.12 25.4275ZM143.633 15.1076C143.633 8.08736 148.447 2.68175 155.362 2.68175C157.641 2.66508 159.905 3.0453 162.05 3.80499C162.05 5.53198 162.136 7.17473 162.278 9.15445H160.858C160.847 8.46707 160.693 7.7893 160.403 7.1642C160.114 6.53911 159.696 5.98037 159.177 5.52349C158.657 5.06661 158.047 4.72158 157.386 4.51033C156.724 4.29908 156.025 4.22623 155.334 4.29641C150.222 4.29641 146.97 8.63495 146.97 14.8409C146.97 21.0468 150.193 25.3853 155.291 25.3853C156.84 25.4646 158.384 25.1707 159.793 24.5289V20.3167C159.793 18 159.225 17.5086 158.245 17.3541L156.825 17.1014V16.0062C157.762 16.0062 159.281 16.1186 161.397 16.1186C163.101 16.1186 164.351 16.1186 165.288 16.0062V17.1014L164.124 17.3261C163.059 17.5507 162.704 18.1404 162.704 20.2746V25.7363C160.183 26.5783 157.54 27.0052 154.879 27C147.879 26.986 143.633 22.2122 143.633 15.1076ZM167.56 22.2824C167.56 18.7722 170.698 16.5257 175.54 16.5257H177.571V14.3916C177.571 11.5133 176.293 9.98284 173.311 9.98284C171.827 9.95078 170.359 10.299 169.051 10.9938L168.852 9.8986C170.244 8.56526 172.098 7.80701 174.035 7.77847C178.295 7.77847 180.425 10.0952 180.425 13.7176C180.425 16.6381 180.283 19.4743 180.283 22.844C180.283 24.6693 180.965 25.2028 183.265 25.2028V26.2418C182.393 26.7032 181.415 26.9352 180.425 26.9158C180.063 26.9678 179.694 26.9401 179.344 26.8347C178.994 26.7293 178.672 26.5488 178.4 26.306C178.129 26.0633 177.915 25.7642 177.774 25.4303C177.633 25.0964 177.569 24.7359 177.585 24.3744C177.004 25.1544 176.247 25.79 175.375 26.231C174.502 26.6721 173.538 26.9065 172.558 26.9158C171.915 26.9667 171.269 26.8842 170.66 26.6735C170.051 26.4629 169.493 26.1287 169.023 25.6924C168.552 25.2562 168.179 24.7274 167.927 24.1402C167.675 23.553 167.55 22.9202 167.56 22.2824ZM177.5 23.0967C177.5 21.7629 177.5 18.9548 177.614 18.1685H176.194C172.303 18.1685 170.514 19.5725 170.514 21.8331C170.501 22.2222 170.571 22.6097 170.718 22.9708C170.865 23.332 171.086 23.659 171.368 23.9309C171.65 24.2029 171.986 24.414 172.355 24.5508C172.723 24.6876 173.117 24.747 173.51 24.7254C174.24 24.7405 174.965 24.6032 175.638 24.3225C176.311 24.0419 176.916 23.6242 177.415 23.0967H177.5ZM187.554 22.507V9.98284H185.239V8.77535C186.232 8.31239 187.102 7.62526 187.778 6.76928C188.454 5.9133 188.917 4.91238 189.13 3.84711H190.351V8.21373H195.832V9.98284H190.351V21.9173C190.351 24.1498 191.033 25.0905 192.879 25.0905C193.819 25.0742 194.752 24.9229 195.648 24.6412L195.79 25.3853C195.257 25.9241 194.614 26.3434 193.904 26.6147C193.193 26.886 192.432 27.0031 191.672 26.9579C188.604 26.9158 187.554 25.5679 187.554 22.507ZM197.678 17.7051C197.678 12.0187 201.129 7.87676 206.042 7.87676C206.977 7.84411 207.908 8.00447 208.777 8.3476C209.645 8.69074 210.432 9.20911 211.087 9.86965C211.741 10.5302 212.25 11.3184 212.579 12.184C212.909 13.0496 213.052 13.9736 213 14.897C213.012 15.3428 212.988 15.7888 212.929 16.2309H200.703V17.3261C200.703 21.3557 202.748 24.7254 206.979 24.7254C208.702 24.7697 210.41 24.4087 211.963 23.6724L212.077 24.6131C211.367 25.7785 208.981 26.9298 206.255 26.9298C200.674 26.9158 197.678 23.3214 197.678 17.7051ZM209.038 14.7847C209.677 14.7847 209.904 14.4899 209.904 13.9563C209.965 13.3941 209.908 12.8256 209.736 12.2864C209.564 11.7471 209.281 11.2489 208.905 10.823C208.529 10.3971 208.068 10.0527 207.551 9.81146C207.034 9.57023 206.472 9.43736 205.9 9.42122C202.733 9.42122 201.143 12.2293 200.831 14.7285L209.038 14.7847Z" fill="white"/>
</g>
<defs>
<clipPath id="clip0_16996_57218">
<rect width="213" height="27" fill="white"/>
</clipPath>
</defs>
</svg>
