<svg width="159" height="21" viewBox="0 0 159 21" fill="none" xmlns="http://www.w3.org/2000/svg">
<g clip-path="url(#clip0_16996_57164)">
<path d="M11.2268 18.955C9.63015 16.9725 8.22172 14.8488 7.01939 12.6107H4.85257V17.2389C4.85257 18.955 5.25228 19.319 6.00961 19.423L7.46116 19.6206V20.4214C6.76694 20.4214 5.13657 20.3382 3.87435 20.3382C2.61213 20.3382 1.24472 20.3902 0.487387 20.4214V19.6206L1.53924 19.423C2.26502 19.2878 2.68576 18.955 2.68576 17.2389V6.27687C2.6542 4.5192 2.23346 4.21759 1.49716 4.08238L0.445312 3.89517V3.08394H3.3905C4.51598 3.08394 5.93598 3.00074 7.59791 3.00074C10.7535 3.00074 13.2253 4.436 13.2253 7.54572C13.1781 8.65143 12.7674 9.71173 12.0555 10.5658C11.3437 11.4198 10.3695 12.0209 9.28087 12.2779C10.4643 14.3813 11.875 16.3516 13.4883 18.1541C14.173 18.9806 15.1592 19.5073 16.2336 19.6206V20.3382C15.82 20.4905 15.3811 20.5646 14.9398 20.5566C14.2398 20.5765 13.544 20.4433 12.9022 20.1664C12.2603 19.8895 11.6882 19.4759 11.2268 18.955ZM10.8376 7.71213C10.8376 5.49684 9.43865 4.27999 7.0825 4.27999H4.8105V11.2379C5.46265 11.2899 5.86235 11.3211 6.83005 11.3211C9.32294 11.3731 10.8376 9.89621 10.8376 7.71213ZM16.6964 13.8796C16.6964 9.6674 19.2419 6.59928 22.8813 6.59928C23.5742 6.5735 24.2648 6.69118 24.909 6.94479C25.5531 7.19841 26.1365 7.58234 26.6218 8.07197C27.1071 8.5616 27.4836 9.14612 27.727 9.78803C27.9704 10.4299 28.0755 11.1151 28.0354 11.7995C28.0441 12.1297 28.0265 12.4601 27.9828 12.7875H18.9369C18.9216 13.0577 18.9216 13.3286 18.9369 13.5988C18.9053 16.5733 20.4305 19.0798 23.5861 19.0798C24.8652 19.1122 26.1339 18.8449 27.2886 18.2998L27.3727 18.9966C26.8363 19.8598 25.0692 20.7126 23.0601 20.7126C18.9053 20.7022 16.6964 18.0397 16.6964 13.8796ZM25.1112 11.7163C25.5846 11.7163 25.7529 11.4979 25.7529 11.1027C25.7981 10.6854 25.7553 10.2634 25.6273 9.86326C25.4993 9.46315 25.2888 9.09361 25.0091 8.77796C24.7294 8.46232 24.3865 8.20741 24.0022 8.02934C23.6179 7.85126 23.2004 7.75388 22.7761 7.74333C20.42 7.74333 19.2419 9.82341 19.021 11.6747L25.1112 11.7163ZM30.2758 20.1198C30.3197 18.9095 30.2951 17.6977 30.2022 16.4901H31.2541C31.5065 18.4558 32.0955 19.5374 34.4727 19.5374C36.2398 19.5374 37.4705 18.5702 37.4705 17.0205C37.4705 13.5572 30.4441 15.242 30.4441 10.229C30.4441 8.01374 32.4637 6.57848 35.1775 6.57848C36.4517 6.59864 37.7124 6.84159 38.901 7.29611C38.8492 8.33617 38.8668 9.37846 38.9536 10.4162H37.9018C37.945 10.0366 37.9002 9.65229 37.7709 9.29233C37.6416 8.93237 37.4311 8.60623 37.1554 8.33864C36.8797 8.07104 36.546 7.86901 36.1796 7.74785C35.8132 7.62668 35.4238 7.58957 35.0407 7.63932C33.3578 7.63932 32.2744 8.35695 32.2744 9.77141C32.2744 12.9851 39.3323 11.6539 39.3323 16.6149C39.3323 18.8302 37.2812 20.6814 34.4832 20.6814C33.0596 20.7147 31.6396 20.5252 30.2758 20.1198ZM41.8252 13.8796C41.8252 9.6674 44.3706 6.59928 48.0101 6.59928C48.7029 6.5735 49.3936 6.69118 50.0377 6.94479C50.6819 7.19841 51.2653 7.58234 51.7506 8.07197C52.2359 8.5616 52.6123 9.14612 52.8557 9.78803C53.0991 10.4299 53.2042 11.1151 53.1641 11.7995C53.1903 12.1283 53.1903 12.4587 53.1641 12.7875H44.1182C44.103 13.0577 44.103 13.3286 44.1182 13.5988C44.1182 16.5837 45.6329 19.0798 48.7674 19.0798C50.0465 19.1122 51.3152 18.8449 52.4699 18.2998L52.5541 18.9966C52.0176 19.8598 50.2505 20.7126 48.2415 20.7126C44.0341 20.7022 41.8252 18.0397 41.8252 13.8796ZM50.24 11.7163C50.7133 11.7163 50.8816 11.4979 50.8816 11.1027C50.9268 10.6854 50.884 10.2634 50.756 9.86326C50.628 9.46315 50.4175 9.09361 50.1378 8.77796C49.8581 8.46232 49.5153 8.20741 49.131 8.02934C48.7466 7.85126 48.3292 7.75388 47.9049 7.74333C45.5487 7.74333 44.3706 9.82341 44.1498 11.6747L50.24 11.7163ZM54.7104 17.2701C54.7104 14.67 57.0349 13.0059 60.6218 13.0059H62.1364V11.4251C62.1364 9.29299 61.1792 8.15934 58.9809 8.15934C57.8813 8.13559 56.7942 8.39356 55.8253 8.90817L55.6781 8.09694C56.7089 7.10928 58.082 6.54762 59.5173 6.52648C62.6729 6.52648 64.2506 8.24255 64.2506 10.9259C64.2506 13.0891 64.1455 15.19 64.1455 17.6861C64.1455 19.0382 64.6504 19.4334 66.3544 19.4334V20.203C65.7079 20.5448 64.9835 20.7167 64.2506 20.7022C63.9864 20.7325 63.7188 20.7058 63.466 20.624C63.2132 20.5422 62.9814 20.4072 62.7865 20.2283C62.5915 20.0494 62.4381 19.8308 62.3368 19.5877C62.2355 19.3445 62.1886 19.0825 62.1995 18.8198H62.1469C61.7164 19.3975 61.1558 19.8683 60.5096 20.1951C59.8634 20.5218 59.1492 20.6954 58.4234 20.7022C57.9462 20.7415 57.466 20.6815 57.0137 20.5262C56.5614 20.3708 56.147 20.1235 55.7972 19.8002C55.4475 19.4769 55.17 19.0847 54.9828 18.649C54.7956 18.2132 54.7028 17.7435 54.7104 17.2701ZM62.0207 17.8733C62.0207 16.8853 62.0733 14.8052 62.1049 14.2228H61.053C58.1709 14.2228 56.8456 15.2628 56.8456 16.9373C56.8354 17.2321 56.8888 17.5258 57.0022 17.7987C57.1156 18.0716 57.2864 18.3175 57.5032 18.5201C57.7201 18.7227 57.9781 18.8774 58.26 18.9739C58.542 19.0704 58.8415 19.1065 59.1386 19.0798C59.6778 19.0901 60.2131 18.988 60.7097 18.7801C61.2062 18.5723 61.653 18.2633 62.0207 17.8733ZM68.437 19.5998L69.3626 19.4542C70.0043 19.3502 70.2883 19.1838 70.2883 17.2389V10.4786C70.2883 9.07458 70.2883 8.74177 68.4686 8.39855V7.71213C69.7977 7.36527 71.0987 6.92027 72.3604 6.38087V8.46096C72.7903 7.92527 73.3228 7.47866 73.9274 7.14672C74.5321 6.81478 75.197 6.60401 75.8841 6.52648C76.2925 6.5262 76.6991 6.57865 77.0938 6.68249L76.8729 8.59616C76.3778 8.41797 75.8533 8.3333 75.3266 8.34655C74.2492 8.36142 73.2067 8.72695 72.3604 9.38659V17.2285C72.3604 19.1734 72.6655 19.3606 73.2861 19.4438L74.5693 19.5894V20.359C73.8751 20.359 72.3604 20.255 71.2981 20.255C70.2357 20.255 69.1944 20.3278 68.437 20.359V19.5998ZM78.1877 13.8796C78.1877 9.71941 81.2381 6.59928 84.909 6.59928C86.179 6.6052 87.4385 6.82683 88.6326 7.25451C88.5484 8.16974 88.5274 9.501 88.5274 10.3746H87.4755C87.3914 8.79377 86.7498 7.74333 84.7618 7.74333C82.3635 7.71213 80.3861 9.87541 80.3861 13.5572C80.3861 17.2389 82.4161 19.0798 85.3298 19.0798C86.4753 19.1131 87.6055 18.813 88.58 18.2165L88.7167 18.9446C88.2163 19.536 87.5826 20.0031 86.8665 20.3083C86.1504 20.6136 85.3719 20.7485 84.5935 20.7022C80.5649 20.7022 78.1877 18.0397 78.1877 13.8796ZM90.9046 19.5998L91.8302 19.4542C92.4718 19.3502 92.7558 19.1838 92.7558 17.2389V5.02882C92.7558 3.61436 92.7558 3.28155 90.9361 2.94874V2.25191C92.2797 1.88373 93.5832 1.38557 94.828 0.764648V8.32575C95.9111 7.28274 97.3285 6.64637 98.8355 6.52648C102.138 6.52648 103.043 8.46096 103.043 11.2587V17.2389C103.043 19.1838 103.348 19.319 103.958 19.4542L104.884 19.5998V20.3694C104.189 20.3694 103.043 20.2862 101.97 20.2862C100.897 20.2862 99.8663 20.3382 99.1195 20.3694V19.5998L100.045 19.4542C100.687 19.3502 100.96 19.1838 100.96 17.2389V11.5603C100.96 9.4802 100.403 8.15934 98.0256 8.15934C96.8661 8.20399 95.7415 8.56385 94.7754 9.19939V17.1973C94.7754 19.1422 95.0804 19.2774 95.701 19.4126L96.6266 19.5582V20.3278C95.9219 20.3278 94.7754 20.2446 93.713 20.2446C92.6506 20.2446 91.6093 20.2966 90.852 20.3278L90.9046 19.5998ZM106.84 11.9555C106.84 6.75529 110.406 2.75113 115.528 2.75113C117.216 2.73878 118.893 3.02042 120.483 3.58316C120.483 4.86241 120.546 6.07926 120.651 7.54572H119.599C119.592 7.03655 119.477 6.5345 119.263 6.07147C119.048 5.60843 118.739 5.19455 118.354 4.85612C117.969 4.51769 117.518 4.26211 117.027 4.10563C116.537 3.94915 116.02 3.89519 115.507 3.94718C111.721 3.94718 109.312 7.1609 109.312 11.7579C109.312 16.3549 111.7 19.5686 115.476 19.5686C116.623 19.6273 117.767 19.4096 118.81 18.9342V15.8141C118.81 14.098 118.389 13.734 117.664 13.6196L116.612 13.4324V12.6211C117.306 12.6211 118.432 12.7043 119.999 12.7043C121.261 12.7043 122.187 12.7043 122.881 12.6211V13.4324L122.018 13.5988C121.229 13.7652 120.967 14.202 120.967 15.7828V19.8286C119.099 20.4523 117.141 20.7685 115.171 20.7646C109.985 20.7542 106.84 17.2181 106.84 11.9555ZM124.564 17.2701C124.564 14.67 126.888 13.0059 130.475 13.0059H131.979V11.4251C131.979 9.29299 131.033 8.15934 128.824 8.15934C127.724 8.13559 126.637 8.39356 125.668 8.90817L125.521 8.09694C126.552 7.10928 127.925 6.54762 129.36 6.52648C132.516 6.52648 134.094 8.24255 134.094 10.9259C134.094 13.0891 133.988 15.19 133.988 17.6861C133.988 19.0382 134.493 19.4334 136.197 19.4334V20.203C135.551 20.5448 134.827 20.7167 134.094 20.7022C133.825 20.7408 133.552 20.7203 133.293 20.6422C133.033 20.5642 132.795 20.4304 132.594 20.2506C132.393 20.0708 132.234 19.8493 132.13 19.6019C132.026 19.3546 131.978 19.0875 131.99 18.8198C131.559 19.3975 130.999 19.8683 130.353 20.1951C129.706 20.5218 128.992 20.6954 128.266 20.7022C127.79 20.74 127.311 20.6789 126.86 20.5228C126.409 20.3668 125.996 20.1192 125.647 19.7961C125.299 19.4729 125.022 19.0813 124.836 18.6463C124.649 18.2113 124.556 17.7425 124.564 17.2701ZM131.927 17.8733C131.927 16.8853 131.927 14.8052 132.011 14.2228H130.959C128.077 14.2228 126.752 15.2628 126.752 16.9373C126.742 17.2256 126.794 17.5126 126.903 17.7801C127.012 18.0476 127.176 18.2898 127.385 18.4913C127.593 18.6928 127.842 18.8491 128.115 18.9504C128.388 19.0517 128.68 19.0958 128.971 19.0798C129.512 19.0909 130.049 18.9892 130.547 18.7813C131.046 18.5735 131.494 18.2641 131.864 17.8733H131.927ZM139.374 17.4365V8.15934H137.659V7.26491C138.395 6.92197 139.039 6.41299 139.54 5.77893C140.041 5.14487 140.384 4.40345 140.541 3.61436H141.446V6.84889H145.506V8.15934H141.446V16.9997C141.446 18.6534 141.951 19.3502 143.318 19.3502C144.015 19.3382 144.706 19.226 145.369 19.0174L145.475 19.5686C145.08 19.9677 144.604 20.2783 144.078 20.4793C143.551 20.6802 142.987 20.7669 142.424 20.7334C140.152 20.7022 139.374 19.7038 139.374 17.4365ZM146.874 13.8796C146.874 9.6674 149.43 6.59928 153.069 6.59928C153.761 6.5751 154.451 6.69389 155.095 6.94806C155.738 7.20223 156.321 7.58621 156.806 8.0755C157.291 8.56479 157.667 9.14866 157.911 9.78984C158.155 10.431 158.262 11.1155 158.223 11.7995C158.232 12.1297 158.214 12.4601 158.17 12.7875H149.114V13.5988C149.114 16.5837 150.629 19.0798 153.763 19.0798C155.039 19.1126 156.304 18.8452 157.455 18.2998L157.539 18.9966C157.013 19.8598 155.246 20.7126 153.227 20.7126C149.093 20.7022 146.874 18.0397 146.874 13.8796ZM155.288 11.7163C155.762 11.7163 155.93 11.4979 155.93 11.1027C155.975 10.6862 155.933 10.2651 155.805 9.86566C155.678 9.46624 155.468 9.09718 155.19 8.78169C154.911 8.4662 154.57 8.21109 154.187 8.0324C153.804 7.8537 153.387 7.75529 152.964 7.74333C150.618 7.74333 149.44 9.82341 149.209 11.6747L155.288 11.7163Z" fill="#40BA9B"/>
</g>
<defs>
<clipPath id="clip0_16996_57164">
<rect width="157.778" height="20" fill="white" transform="translate(0.445312 0.764648)"/>
</clipPath>
</defs>
</svg>
