<svg xmlns="http://www.w3.org/2000/svg" fill="none" viewBox="0 0 96 25">
  <path fill-rule="evenodd"
    d="M14.542 2.123C14.542.917 15.575 0 16.79 0s2.196.917 2.196 2.123c0 1.205-.982 2.149-2.196 2.149-1.214 0-2.247-.944-2.247-2.15ZM3.797 13.6H0c0 3.25 2.583 5.582 6.457 5.582 3.15 0 6.353-1.704 6.405-5.294.051-1.73-.568-4.193-4.881-5.45l-2.118-.682c-1.73-.498-1.911-1.363-1.911-1.835 0-1.074.98-1.808 2.298-1.808 1.498 0 2.299.839 2.299 2.044h3.77c0-3.459-2.582-5.53-6.017-5.53C2.892.629.18 2.805.18 6.029c0 1.624.671 3.956 4.597 5.188l2.144.603c1.807.524 2.169 1.231 2.143 2.044-.026 1.179-1.084 1.913-2.608 1.913-1.705 0-2.609-1.022-2.66-2.175Zm14.774 5.293V6.656h-3.564v12.238h3.564Zm8.616-9.04c1.497 0 2.918 1.048 2.918 2.882a2.957 2.957 0 0 1-2.918 2.988c-1.524 0-2.893-1.154-2.893-2.988 0-1.73 1.369-2.882 2.893-2.882Zm-.336 11.87c-1.214 0-2.635-.838-3.048-1.965-.452.223-.949.471-1.446.72-.497.25-.995.498-1.447.721 1.008 2.28 3.28 3.8 5.94 3.8 4.288 0 6.819-2.542 6.819-7.81V6.657h-3.487v1.52c-.594-1.127-2.118-1.782-3.615-1.782-3.1 0-6.018 2.49-6.018 6.42 0 3.853 2.918 6.342 6.018 6.342 1.497 0 3.047-.655 3.615-1.782.155 2.437-.594 4.35-3.331 4.35Zm12.705-9.303v6.473h-3.59V6.656h3.59v1.782c.645-1.232 2.066-2.044 3.486-2.044 2.712 0 4.417 1.703 4.417 5.189v7.311h-3.59V12.37c0-1.625-.878-2.437-2.092-2.437-1.266 0-2.221.629-2.221 2.49Zm13.782 6.473V6.656h-3.565v12.238h3.564Zm-4.03-16.771C49.309.917 50.343 0 51.557 0c1.214 0 2.195.917 2.195 2.123 0 1.205-.981 2.149-2.195 2.149s-2.247-.944-2.247-2.15Zm14.055 1.362V0h-.594c-3.46 0-5.45 2.07-5.45 5.818v.838h-2.272V9.54h2.273v9.355h3.615V9.54h2.428V6.656h-2.428v-.838c0-1.442.594-2.333 1.834-2.333h.594Zm5.376 3.171v12.238h-3.564V6.656h3.564ZM66.957 0c-1.214 0-2.247.917-2.247 2.123 0 1.205 1.033 2.149 2.247 2.149s2.195-.944 2.195-2.15C69.152.918 68.171 0 66.957 0Zm3.57 12.736c0-3.852 3.099-6.342 6.56-6.342 2.143 0 4.08.943 5.242 2.594l-2.918 2.123c-.49-.786-1.395-1.232-2.325-1.232-1.523 0-2.995 1.101-2.995 2.857 0 1.756 1.472 2.935 2.995 2.935.93 0 1.834-.446 2.325-1.232l2.918 2.097c-1.136 1.65-3.073 2.62-5.243 2.62-3.46 0-6.56-2.568-6.56-6.42Zm21.909 4.77v1.388H96V6.656h-3.564V8.02c-.93-1.363-2.738-1.625-3.513-1.625-3.073 0-6.147 2.437-6.147 6.368 0 3.93 3.074 6.368 6.147 6.368.93 0 2.738-.445 3.513-1.625Zm-2.918-1.835c-1.498 0-3.022-1.153-3.022-2.909 0-1.755 1.524-2.908 3.022-2.908 1.472 0 2.918 1.074 2.918 2.908 0 1.835-1.446 2.91-2.918 2.91Z"
    clip-rule="evenodd" />
</svg>