<svg xmlns="http://www.w3.org/2000/svg" id="Layer_1" width="846.666" height="105.333" viewBox="0 0 635 79"><defs><style>.cls-1{fill:#212015}</style></defs><polygon points="469.132 1.204 459.994 1.204 435.372 68.654 435.352 77.997 444.49 77.997 469.132 10.491 469.132 1.204" class="cls-1"/><polygon points="491.235 54.044 487.708 44.38 475.18 44.38 469.457 44.38 469.457 44.381 465.902 54.044 478.707 54.044 487.451 77.998 496.589 77.998 496.569 68.655 491.235 54.044" class="cls-1"/><path d="m31.15283,35.92987l-11.32074-4.12408c-3.07196-1.14313-5.35626-2.56763-6.86157-4.28247-1.50104-1.70593-2.2536-4.00092-2.2536-6.89404,0-3.21826,1.12018-5.86511,3.35626-7.94928,2.23621-2.0752,5.12433-3.12158,8.66461-3.12158,3.87268,0,6.96222,1.16071,9.26392,3.47339,2.30621,2.32147,3.45709,5.28491,3.45709,8.90778v1.20471h10.5155v-1.20471c0-4.2912-.96698-8.09869-2.90131-11.42261-1.93848-3.32391-4.6604-5.90045-8.16559-7.74707-3.50513-1.84662-7.56171-2.7699-12.16962-2.7699-4.40668,0-8.33197.9057-11.77148,2.71722-3.43958,1.8114-6.12646,4.32629-8.06061,7.55359-1.93854,3.21826-2.9057,6.8764-2.9057,10.96527,0,4.56372,1.23407,8.6264,3.70648,12.17889,2.46808,3.55249,6.57715,6.37518,12.31842,8.45038l10.11737,3.52625c3.27325,1.27496,5.69324,2.849,7.26422,4.7309,1.56659,1.87299,2.35431,4.36151,2.35431,7.448,0,2.20709-.53833,4.22076-1.60602,6.03217-1.06781,1.8114-2.55127,3.24481-4.45477,4.28241-1.90363,1.03772-4.026,1.55652-6.36273,1.55652-3.8028,0-6.90979-1.15198-9.31219-3.47351-2.4068-2.31262-3.60577-5.34631-3.60577-9.10107v-1.2135H0v1.01129c0,4.36151.96716,8.23047,2.9057,11.62482,1.93414,3.3855,4.69104,6.01465,8.2619,7.89648,3.5708,1.88177,7.62732,2.8139,12.16968,2.8139s8.56384-.92334,12.0733-2.76111c3.50531-1.84662,6.22272-4.44952,8.16144-7.7998,1.93848-3.35907,2.90558-7.21057,2.90558-11.57208,0-4.76599-1.18579-8.94299-3.55762-12.53064-2.36755-3.58771-6.29279-6.39276-11.76715-8.40649Z" class="cls-1"/><path d="m107.02802,4.17633c-3.57001-1.97852-7.6969-2.97223-12.37048-2.97223h-22.53644v76.79291h10.5155v-29.79224h11.72333c4.73926,0,8.92706-.96716,12.56805-2.91937,3.64105-1.9433,6.46301-4.69562,8.46301-8.24811,2.00403-3.55261,3.00604-7.65039,3.00604-12.2757,0-4.56372-1.00201-8.6438-3.00604-12.23151-2-3.58777-4.79199-6.37524-8.36298-8.35376Zm-3.35602,30.75055c-2.53796,2.47974-5.97748,3.71948-10.31409,3.71948h-10.72131V10.77136h10.72131c4.33661,0,7.77612,1.25745,10.31409,3.77234,2.53802,2.51489,3.80701,5.91797,3.80701,10.2179,0,4.29132-1.26898,7.6767-3.80701,10.16528Z" class="cls-1"/><polygon points="144.339 1.204 144.339 77.997 154.854 77.997 190.313 77.997 190.313 68.438 154.854 68.438 154.854 44.283 183.303 44.283 183.303 34.619 154.854 34.619 154.854 10.771 190.313 10.771 190.313 1.204 154.854 1.204 144.339 1.204" class="cls-1"/><polygon points="315.913 34.619 315.913 34.725 304.593 34.725 304.593 1.204 294.077 1.204 294.077 77.997 304.593 77.997 304.593 44.38 316.23 44.38 334.043 77.997 343.36 77.997 343.36 73.064 324.727 39.253 343.36 6.137 343.36 1.204 334.043 1.204 315.913 34.619" class="cls-1"/><polygon points="367.8 1.204 367.8 77.997 378.315 77.997 413.774 77.997 413.774 68.438 378.315 68.438 378.315 44.283 406.764 44.283 406.764 34.619 378.315 34.619 378.315 10.771 413.774 10.771 413.774 1.204 378.315 1.204 367.8 1.204" class="cls-1"/><path d="m545.95203,35.92987l-11.32104-4.12408c-3.07196-1.14313-5.35596-2.56763-6.862-4.28247-1.50098-1.70593-2.25299-4.00092-2.25299-6.89404,0-3.21826,1.12-5.86511,3.35602-7.94928,2.23596-2.0752,5.12396-3.12158,8.66498-3.12158,3.87201,0,6.96204,1.16071,9.26404,3.47339,2.30597,2.32147,3.45697,5.28491,3.45697,8.90778v1.20471h10.51501v-1.20471c0-4.2912-.96698-8.09869-2.901-11.42261-1.93903-3.32391-4.66101-5.90045-8.16602-7.74707s-7.56201-2.7699-12.16901-2.7699c-4.40698,0-8.33197.9057-11.77197,2.71722-3.44,1.8114-6.12604,4.32629-8.06,7.55359-1.93903,3.21826-2.90601,6.8764-2.90601,10.96527,0,4.56372,1.23401,8.6264,3.70599,12.17889,2.46802,3.55249,6.57697,6.37518,12.31897,8.45038l10.117,3.52625c3.27301,1.27496,5.69299,2.849,7.26404,4.7309,1.56696,1.87299,2.354,4.36151,2.354,7.448,0,2.20709-.53802,4.22076-1.60504,6.03217-1.06799,1.8114-2.552,3.24481-4.45496,4.28241-1.90405,1.03772-4.026,1.55652-6.36304,1.55652-3.80298,0-6.90997-1.15198-9.31201-3.47351-2.40698-2.31262-3.60596-5.34631-3.60596-9.10107v-1.2135h-10.41901v1.01129c0,4.36151.96698,8.23047,2.90601,11.62482,1.93396,3.3855,4.69098,6.01465,8.26099,7.89648,3.57098,1.88177,7.62799,2.8139,12.16998,2.8139s8.56403-.92334,12.073-2.76111c3.50604-1.84662,6.22302-4.44952,8.16199-7.7998,1.93805-3.35907,2.90503-7.21057,2.90503-11.57208,0-4.76599-1.18597-8.94299-3.55701-12.53064-2.36798-3.58771-6.29297-6.39276-11.76697-8.40649Z" class="cls-1"/><polygon points="625.588 1.204 610.862 33.115 609.118 33.115 594.435 1.204 585.018 1.204 585.018 5.935 604.749 47 604.749 77.997 615.37 77.997 615.37 46.701 635 6.041 635 1.204 625.588 1.204" class="cls-1"/><polygon points="245.295 1.204 236.157 1.204 211.535 68.654 211.515 77.997 220.653 77.997 245.295 10.491 245.295 1.204" class="cls-1"/><polygon points="267.398 54.044 263.87 44.38 251.342 44.38 245.619 44.38 245.619 44.381 242.064 54.044 254.87 54.044 263.613 77.998 272.752 77.998 272.731 68.655 267.398 54.044" class="cls-1"/></svg>