<svg width="87" height="41" viewBox="0 0 87 41" fill="none" xmlns="http://www.w3.org/2000/svg">
<path d="M75.288 8.53711C77.2264 9.02436 78.9591 10.0277 80.3292 11.3908C82.3059 13.3582 83.5289 16.0768 83.5289 19.0789C83.5289 22.0809 82.3059 24.7992 80.3292 26.7665C78.3524 28.7338 75.6206 29.9506 72.6041 29.9506C69.588 29.9506 66.8562 28.7338 64.8794 26.7665C62.9026 24.7993 61.6797 22.0809 61.6797 19.0789C61.6797 16.0768 62.9026 13.3582 64.8794 11.3908C66.2494 10.0277 67.9818 9.02476 69.9206 8.53711V11.709C68.8254 12.1041 67.8435 12.7336 67.0364 13.5375C65.6112 14.9555 64.7297 16.9145 64.7297 19.079C64.7297 21.243 65.6116 23.2023 67.0364 24.6203C68.4608 26.0387 70.4297 26.9149 72.6041 26.9149C74.7786 26.9149 76.7479 26.0387 78.1727 24.6203C79.5974 23.2023 80.479 21.2426 80.479 19.079C80.479 16.9145 79.5974 14.9555 78.1727 13.5375C77.3652 12.7336 76.3832 12.104 75.2881 11.709V8.53711H75.288Z" fill="#20C178"/>
<path d="M21.5235 17.4063H24.3275C24.3522 17.9526 24.5598 18.3623 24.9434 18.6385C25.3585 18.9117 25.9071 19.0486 26.5932 19.0486C27.0893 19.0486 27.515 18.9506 27.8706 18.7615C28.2013 18.5686 28.3666 18.3098 28.3666 17.9806C28.3666 17.4869 27.7895 17.1191 26.6353 16.8706C26.1396 16.79 25.7701 16.7097 25.5204 16.6254C24.0636 16.2717 23.0892 15.8445 22.5931 15.3546C22.0442 14.861 21.7697 14.206 21.7697 13.3832C21.7697 12.3435 22.1674 11.4821 22.9661 10.7996C23.7892 10.1693 24.8619 9.8538 26.1819 9.8538C27.6101 9.8538 28.7497 10.1693 29.6048 10.7996C30.3996 11.4821 30.8255 12.3716 30.8821 13.4676H29.1088C28.5883 13.4676 28.1869 13.233 27.9127 12.7673C27.8036 12.6587 27.6946 12.5501 27.582 12.4378C27.2547 12.1929 26.8008 12.0703 26.2241 12.0703C25.6717 12.0703 25.26 12.1509 24.9856 12.3155C24.7392 12.4802 24.616 12.7287 24.616 13.0544C24.616 13.4922 25.3304 13.8629 26.7586 14.1641C26.9239 14.2167 27.0685 14.2587 27.1916 14.2867C27.3148 14.3146 27.4307 14.3287 27.5432 14.3287C28.9433 14.6823 29.918 15.0955 30.47 15.5578C30.9912 16.0515 31.2512 16.7098 31.2512 17.529C31.2512 18.7331 30.8118 19.6646 29.9321 20.3191C29.1087 20.9217 27.8706 21.2229 26.2241 21.2229C24.6548 21.2229 23.487 20.9074 22.7198 20.2774C21.9211 19.6509 21.5234 18.7331 21.5234 17.529V17.4063H21.5235ZM37.1269 21.016C36.219 21.0719 35.2376 21.0583 34.1788 20.9774C33.1197 20.8938 32.592 20.2249 32.592 18.9643V6.90234H34.0765C34.432 6.90234 34.7486 7.03899 35.0232 7.31211C35.2977 7.58532 35.4349 7.91447 35.4349 8.29582V10.1447H37.127V10.7186C37.127 11.1283 36.9897 11.4647 36.7152 11.7239C36.4412 11.9831 36.1104 12.1124 35.7234 12.1124H35.4349V18.1873C35.4349 18.6496 35.7093 18.8842 36.2614 18.8842H37.127V21.016H37.1269ZM44.2794 15.5188C43.8924 15.708 43.3576 15.887 42.6718 16.0515C42.0384 16.1881 41.7218 16.2581 41.7218 16.2581C41.2291 16.3947 40.8702 16.5694 40.6485 16.7901C40.4589 17.0911 40.3604 17.3923 40.3604 17.6935C40.3604 18.1032 40.487 18.432 40.7329 18.6771C40.9796 18.8943 41.3385 19.0067 41.8061 19.0067C42.5732 19.0067 43.1781 18.7861 43.6179 18.348C44.0578 17.9106 44.2794 17.3083 44.2794 16.5452V15.5188ZM44.9375 20.5646C44.3604 20.8658 43.748 21.0512 43.1044 21.1211C42.457 21.1877 41.8871 21.2229 41.3911 21.2229C40.4027 21.2229 39.537 20.9566 38.7946 20.4209C38.0526 19.8886 37.6831 19.0067 37.6831 17.7741C37.6831 16.6254 38.0172 15.8063 38.6927 15.3126C39.3648 14.8189 40.2233 14.4932 41.268 14.3286C41.4052 14.3286 41.5706 14.3078 41.7641 14.2654C41.9575 14.2237 42.1758 14.192 42.4217 14.164C43.6321 13.9994 44.2373 13.6423 44.2373 13.096C44.2373 12.6866 44.0228 12.4203 43.5972 12.2943C43.1714 12.1721 42.7809 12.1123 42.4217 12.1123C42.0385 12.1123 41.6937 12.1649 41.3911 12.2765C41.0884 12.3855 40.8702 12.5886 40.733 12.8894H37.9716C38.0807 12.0419 38.4643 11.3454 39.1258 10.7995C39.8679 10.1692 40.927 9.85372 42.299 9.85372C43.8397 9.85372 44.9938 10.1133 45.7644 10.6346C46.5593 11.1809 46.957 11.9478 46.957 12.9318V16.6674C46.957 17.7601 46.7601 18.6177 46.3589 19.2303C45.9614 19.8466 45.486 20.2914 44.9375 20.5646ZM47.9282 21.016V15.722C47.9282 14.6578 48.0868 13.7615 48.403 13.037C48.72 12.3122 49.1527 11.7307 49.7012 11.2929C50.222 10.8835 50.8341 10.5824 51.5344 10.3899C52.238 10.1973 52.9592 10.1028 53.7016 10.1028C53.7541 10.1028 53.8244 10.1028 53.9058 10.1028C53.9897 10.1028 54.0566 10.1028 54.1129 10.1028V13.0159H53.1633C52.368 13.0159 51.7769 13.2085 51.3903 13.5902C51.0067 13.9716 50.8131 14.5738 50.8131 15.3963V21.0161H47.9282V21.016ZM59.8232 21.016C58.9157 21.0719 57.9338 21.0583 56.8751 20.9774C55.816 20.8938 55.2883 20.2249 55.2883 18.9643V6.90234H56.7728C57.1282 6.90234 57.4448 7.03899 57.7194 7.31211C57.9939 7.58532 58.1311 7.91447 58.1311 8.29582V10.1447H59.8232V10.7186C59.8232 11.1283 59.6859 11.4647 59.4115 11.7239C59.1374 11.9831 58.8063 12.1124 58.4196 12.1124H58.1311V18.1873C58.1311 18.6496 58.4056 18.8842 58.9575 18.8842H59.8232V21.016Z" fill="#20C178"/>
<path d="M74.7296 19.0653C74.7296 19.6601 74.5273 20.1632 74.1229 20.5745C73.7188 20.9854 73.2178 21.1908 72.6201 21.1908C72.0224 21.1908 71.5168 20.9854 71.104 20.5745C70.6908 20.1633 70.4844 19.6601 70.4844 19.0653C70.4844 18.4706 70.6908 17.9723 71.104 17.5697C71.5168 17.1672 72.0224 16.9663 72.6201 16.9663C73.2002 16.9663 73.6967 17.1717 74.1099 17.583C74.5229 17.9939 74.7296 18.4883 74.7296 19.0653Z" fill="#20C178"/>
<path d="M74.3328 15.8831H70.7734V2.26465H74.3328V15.8831Z" fill="#20C178"/>
<path d="M12.0773 31.1618H14.1389C13.8367 32.3096 13.2592 33.1858 12.408 33.7881C11.5562 34.4176 10.4832 34.7325 9.19228 34.7325C7.62302 34.7325 6.40235 34.2255 5.52272 33.2131C4.64302 32.2294 4.20312 30.822 4.20312 28.9872C4.20312 27.2371 4.62934 25.8674 5.4805 24.8834C6.3602 23.8717 7.58465 23.3643 9.15006 23.3643C10.7999 23.3643 12.0773 23.8577 12.9851 24.8414C13.8644 25.8534 14.3043 27.2642 14.3043 29.068C14.3043 29.18 14.3043 29.2739 14.3043 29.3548C14.3043 29.4389 14.3043 29.4918 14.3043 29.5191C14.3043 29.656 14.2902 29.7536 14.262 29.8066H7.13028C7.15843 30.657 7.36297 31.2844 7.74954 31.6967C8.10506 32.1349 8.63986 32.352 9.35725 32.352C9.82216 32.352 10.2229 32.2582 10.5502 32.0645C10.6349 32.0372 10.7087 31.9919 10.779 31.9207C10.846 31.851 10.9231 31.7784 11.0041 31.6967C11.0322 31.6135 11.1341 31.5046 11.3136 31.3683C11.4929 31.2313 11.7465 31.1618 12.0773 31.1618ZM7.13028 27.9618H11.3348C11.2785 27.2226 11.0884 26.6763 10.7582 26.3184C10.399 25.9374 9.89214 25.7449 9.23073 25.7449C8.62933 25.7449 8.13321 25.9374 7.74962 26.3184C7.36297 26.7043 7.15843 27.2505 7.13028 27.9618ZM24.841 34.5266H23.3982C22.9831 34.5266 22.649 34.3964 22.3851 34.1377C22.1243 33.8751 21.9947 33.5422 21.9947 33.1328V27.5517C21.9947 26.8933 21.7974 26.4167 21.3967 26.1156C20.9991 25.8148 20.5521 25.6642 20.0559 25.6642C19.5636 25.6642 19.1238 25.8148 18.7367 26.1156C18.3532 26.4167 18.1597 26.8934 18.1597 27.5517V34.5266H15.2747V28.1252C15.2747 26.263 15.764 25.0202 16.7387 24.3899C17.7131 23.7597 18.793 23.42 19.9753 23.3643C21.1852 23.3643 22.2973 23.6791 23.3142 24.309C24.3308 24.9358 24.8409 26.2109 24.8409 28.1252L24.841 34.5266ZM32.8587 33.8714V33.1707C32.3626 33.9379 31.6939 34.4176 30.8568 34.6099C30.0189 34.799 29.1887 34.7325 28.3618 34.4041C27.5388 34.0742 26.8317 33.4658 26.2405 32.576C25.6493 31.6869 25.3536 30.5171 25.3536 29.0681C25.3536 27.3732 25.744 25.9969 26.529 24.9432C27.3099 23.8892 28.5697 23.3644 30.3006 23.3644C31.6201 23.3644 32.8441 23.7212 33.9701 24.4317C35.0961 25.1429 35.6588 26.4561 35.6588 28.3713V34.159C35.6588 36.0741 35.0961 37.3801 33.9701 38.077C32.8441 38.773 31.6201 39.1241 30.3006 39.1241C27.771 39.1241 26.2055 37.9468 25.6003 35.5951H28.6084C28.83 35.9765 29.1677 36.2701 29.6215 36.4766C30.0717 36.6832 30.5255 36.7361 30.9794 36.6408C31.4333 36.547 31.8451 36.2776 32.218 35.8395C32.5877 35.4013 32.8025 34.7467 32.8587 33.8714ZM28.1581 29.1513C28.1581 31.0392 28.7071 32.0856 29.8045 32.2891C30.9055 32.4958 31.7152 32.243 32.2391 31.5333C32.4855 31.2314 32.6649 30.7585 32.774 30.1153C32.8831 29.4736 32.8903 28.8365 32.7953 28.2069C32.6998 27.5797 32.4714 27.016 32.1164 26.5257C31.7575 26.0323 31.2367 25.7868 30.5471 25.7868C29.6146 25.7868 28.9816 26.13 28.6509 26.8132C28.3196 27.4956 28.1581 28.2766 28.1581 29.1513ZM37.3403 23.613H38.8249C39.2119 23.613 39.5392 23.7491 39.8137 24.0223C40.0912 24.2955 40.2288 24.6245 40.2288 25.006V34.5267H37.3404V23.613H37.3403ZM50.8567 34.5266H49.4143C48.9992 34.5266 48.6648 34.3964 48.4009 34.1377C48.1404 33.8751 48.0104 33.5422 48.0104 33.1328V27.5517C48.0104 26.8933 47.8131 26.4167 47.4125 26.1156C47.0144 25.8148 46.5677 25.6642 46.0717 25.6642C45.5794 25.6642 45.1394 25.8148 44.7521 26.1156C44.369 26.4167 44.1754 26.8934 44.1754 27.5517V34.5266H41.2905V28.1252C41.2905 26.263 41.7798 25.0202 42.7541 24.3899C43.7288 23.7597 44.8084 23.42 45.9911 23.3643C47.2011 23.3643 48.313 23.6791 49.3296 24.309C50.3461 24.9358 50.8566 26.2109 50.8566 28.1252V34.5266H50.8567ZM59.8769 31.1618H61.939C61.636 32.3096 61.0592 33.1858 60.2078 33.7881C59.3562 34.4176 58.2834 34.7325 56.9921 34.7325C55.4228 34.7325 54.2022 34.2255 53.3225 33.2131C52.4428 32.2294 52.003 30.822 52.003 28.9872C52.003 27.2371 52.4288 25.8674 53.2803 24.8834C54.1601 23.8717 55.3841 23.3643 56.9496 23.3643C58.5998 23.3643 59.877 23.8577 60.7845 24.8414C61.6643 25.8534 62.1041 27.2642 62.1041 29.068C62.1041 29.18 62.1041 29.2739 62.1041 29.3548C62.1041 29.4389 62.1041 29.4918 62.1041 29.5191C62.1041 29.656 62.0899 29.7536 62.0619 29.8066H54.9306C54.9583 30.657 55.1626 31.2844 55.5498 31.6967C55.905 32.1349 56.4398 32.352 57.1576 32.352C57.6217 32.352 58.0228 32.2582 58.35 32.0645C58.4344 32.0372 58.5085 31.9919 58.5789 31.9207C58.6454 31.851 58.723 31.7784 58.804 31.6967C58.8321 31.6135 58.9339 31.5046 59.1139 31.3683C59.2931 31.2313 59.5462 31.1618 59.8769 31.1618ZM54.9304 27.9618H59.1346C59.0783 27.2226 58.8883 26.6763 58.5575 26.3184C58.1987 25.9374 57.6919 25.7449 57.0309 25.7449C56.4291 25.7449 55.933 25.9374 55.5498 26.3184C55.1623 26.7043 54.9581 27.2505 54.9304 27.9618Z" fill="#20C178"/>
</svg>
