<svg width="87" height="41" viewBox="0 0 87 41" fill="none" xmlns="http://www.w3.org/2000/svg">
<path d="M74.9911 8.53711C76.9295 9.02436 78.6622 10.0277 80.0323 11.3908C82.0091 13.3582 83.232 16.0768 83.232 19.0789C83.232 22.0809 82.0091 24.7992 80.0323 26.7665C78.0555 28.7338 75.3237 29.9506 72.3072 29.9506C69.2911 29.9506 66.5593 28.7338 64.5825 26.7665C62.6057 24.7993 61.3828 22.0809 61.3828 19.0789C61.3828 16.0768 62.6057 13.3582 64.5825 11.3908C65.9525 10.0277 67.6849 9.02476 69.6237 8.53711V11.709C68.5285 12.1041 67.5466 12.7336 66.7396 13.5375C65.3143 14.9555 64.4328 16.9145 64.4328 19.079C64.4328 21.243 65.3147 23.2023 66.7396 24.6203C68.164 26.0387 70.1328 26.9149 72.3073 26.9149C74.4817 26.9149 76.451 26.0387 77.8758 24.6203C79.3005 23.2023 80.1822 21.2426 80.1822 19.079C80.1822 16.9145 79.3005 14.9555 77.8758 13.5375C77.0683 12.7336 76.0863 12.104 74.9912 11.709V8.53711H74.9911Z" fill="#20C178"/>
<path d="M21.2266 17.4063H24.0307C24.0553 17.9526 24.2629 18.3623 24.6465 18.6385C25.0617 18.9117 25.6102 19.0486 26.2963 19.0486C26.7924 19.0486 27.2182 18.9506 27.5737 18.7615C27.9044 18.5686 28.0697 18.3098 28.0697 17.9806C28.0697 17.4869 27.4926 17.1191 26.3385 16.8706C25.8427 16.79 25.4732 16.7097 25.2235 16.6254C23.7667 16.2717 22.7924 15.8445 22.2963 15.3546C21.7474 14.861 21.4729 14.206 21.4729 13.3832C21.4729 12.3435 21.8705 11.4821 22.6692 10.7996C23.4923 10.1693 24.5651 9.8538 25.885 9.8538C27.3132 9.8538 28.4528 10.1693 29.3079 10.7996C30.1028 11.4821 30.5286 12.3716 30.5852 13.4676H28.8119C28.2914 13.4676 27.89 13.233 27.6158 12.7673C27.5068 12.6587 27.3977 12.5501 27.2851 12.4378C26.9578 12.1929 26.5039 12.0703 25.9272 12.0703C25.3748 12.0703 24.9631 12.1509 24.6887 12.3155C24.4423 12.4802 24.3192 12.7287 24.3192 13.0544C24.3192 13.4922 25.0335 13.8629 26.4617 14.1641C26.6271 14.2167 26.7716 14.2587 26.8947 14.2867C27.0179 14.3146 27.1339 14.3287 27.2463 14.3287C28.6464 14.6823 29.6211 15.0955 30.1732 15.5578C30.6944 16.0515 30.9543 16.7098 30.9543 17.529C30.9543 18.7331 30.5149 19.6646 29.6352 20.3191C28.8118 20.9217 27.5737 21.2229 25.9272 21.2229C24.3579 21.2229 23.1901 20.9074 22.4229 20.2774C21.6242 19.6509 21.2266 18.7331 21.2266 17.529V17.4063H21.2266ZM36.83 21.016C35.9222 21.0719 34.9407 21.0583 33.882 20.9774C32.8228 20.8938 32.2952 20.2249 32.2952 18.9643V6.90234H33.7797C34.1352 6.90234 34.4518 7.03899 34.7264 7.31211C35.0008 7.58532 35.138 7.91447 35.138 8.29582V10.1447H36.8301V10.7186C36.8301 11.1283 36.6928 11.4647 36.4184 11.7239C36.1443 11.9831 35.8135 12.1124 35.4265 12.1124H35.138V18.1873C35.138 18.6496 35.4125 18.8842 35.9645 18.8842H36.8301V21.016H36.83ZM43.9825 15.5188C43.5956 15.708 43.0607 15.887 42.3749 16.0515C41.7416 16.1881 41.4249 16.2581 41.4249 16.2581C40.9322 16.3947 40.5733 16.5694 40.3517 16.7901C40.162 17.0911 40.0635 17.3923 40.0635 17.6935C40.0635 18.1032 40.1901 18.432 40.436 18.6771C40.6827 18.8943 41.0416 19.0067 41.5093 19.0067C42.2764 19.0067 42.8812 18.7861 43.321 18.348C43.7609 17.9106 43.9825 17.3083 43.9825 16.5452V15.5188ZM44.6406 20.5646C44.0635 20.8658 43.4511 21.0512 42.8075 21.1211C42.1601 21.1877 41.5903 21.2229 41.0942 21.2229C40.1058 21.2229 39.2402 20.9566 38.4977 20.4209C37.7557 19.8886 37.3862 19.0067 37.3862 17.7741C37.3862 16.6254 37.7204 15.8063 38.3958 15.3126C39.0679 14.8189 39.9264 14.4932 40.9711 14.3286C41.1083 14.3286 41.2737 14.3078 41.4672 14.2654C41.6607 14.2237 41.8789 14.192 42.1248 14.164C43.3352 13.9994 43.9404 13.6423 43.9404 13.096C43.9404 12.6866 43.726 12.4203 43.3003 12.2943C42.8746 12.1721 42.4841 12.1123 42.1248 12.1123C41.7416 12.1123 41.3968 12.1649 41.0942 12.2765C40.7916 12.3855 40.5733 12.5886 40.4361 12.8894H37.6747C37.7838 12.0419 38.1674 11.3454 38.8289 10.7995C39.571 10.1692 40.6301 9.85372 42.0021 9.85372C43.5428 9.85372 44.697 10.1133 45.4675 10.6346C46.2624 11.1809 46.6601 11.9478 46.6601 12.9318V16.6674C46.6601 17.7601 46.4632 18.6177 46.062 19.2303C45.6645 19.8466 45.1891 20.2914 44.6406 20.5646ZM47.6313 21.016V15.722C47.6313 14.6578 47.79 13.7615 48.1061 13.037C48.4231 12.3122 48.8558 11.7307 49.4044 11.2929C49.9252 10.8835 50.5373 10.5824 51.2375 10.3899C51.9412 10.1973 52.6623 10.1028 53.4047 10.1028C53.4572 10.1028 53.5275 10.1028 53.6089 10.1028C53.6928 10.1028 53.7598 10.1028 53.816 10.1028V13.0159H52.8665C52.0711 13.0159 51.48 13.2085 51.0934 13.5902C50.7098 13.9716 50.5163 14.5738 50.5163 15.3963V21.0161H47.6313V21.016ZM59.5263 21.016C58.6189 21.0719 57.6369 21.0583 56.5782 20.9774C55.5191 20.8938 54.9915 20.2249 54.9915 18.9643V6.90234H56.4759C56.8313 6.90234 57.148 7.03899 57.4225 7.31211C57.697 7.58532 57.8342 7.91447 57.8342 8.29582V10.1447H59.5263V10.7186C59.5263 11.1283 59.389 11.4647 59.1146 11.7239C58.8405 11.9831 58.5094 12.1124 58.1228 12.1124H57.8342V18.1873C57.8342 18.6496 58.1087 18.8842 58.6606 18.8842H59.5263V21.016Z" fill="#20C178"/>
<path d="M74.4327 19.0653C74.4327 19.6601 74.2304 20.1632 73.826 20.5745C73.4219 20.9854 72.9209 21.1908 72.3232 21.1908C71.7256 21.1908 71.22 20.9854 70.8071 20.5745C70.3939 20.1633 70.1875 19.6601 70.1875 19.0653C70.1875 18.4706 70.3939 17.9723 70.8071 17.5697C71.22 17.1672 71.7256 16.9663 72.3232 16.9663C72.9034 16.9663 73.3998 17.1717 73.8131 17.583C74.226 17.9939 74.4327 18.4883 74.4327 19.0653Z" fill="#20C178"/>
<path d="M74.0359 15.8831H70.4766V2.26465H74.0359V15.8831Z" fill="#20C178"/>
<path d="M11.7804 31.1618H13.842C13.5398 32.3096 12.9623 33.1858 12.1112 33.7881C11.2593 34.4176 10.1864 34.7325 8.89541 34.7325C7.32614 34.7325 6.10548 34.2255 5.22585 33.2131C4.34614 32.2294 3.90625 30.822 3.90625 28.9872C3.90625 27.2371 4.33247 25.8674 5.18362 24.8834C6.06333 23.8717 7.28777 23.3643 8.85318 23.3643C10.503 23.3643 11.7804 23.8577 12.6882 24.8414C13.5675 25.8534 14.0074 27.2642 14.0074 29.068C14.0074 29.18 14.0074 29.2739 14.0074 29.3548C14.0074 29.4389 14.0074 29.4918 14.0074 29.5191C14.0074 29.656 13.9933 29.7536 13.9652 29.8066H6.8334C6.86156 30.657 7.0661 31.2844 7.45266 31.6967C7.80818 32.1349 8.34299 32.352 9.06038 32.352C9.52529 32.352 9.92601 32.2582 10.2533 32.0645C10.3381 32.0372 10.4118 31.9919 10.4821 31.9207C10.5491 31.851 10.6263 31.7784 10.7072 31.6967C10.7353 31.6135 10.8372 31.5046 11.0167 31.3683C11.1961 31.2313 11.4497 31.1618 11.7804 31.1618ZM6.8334 27.9618H11.0379C10.9816 27.2226 10.7916 26.6763 10.4613 26.3184C10.1021 25.9374 9.59527 25.7449 8.93386 25.7449C8.33245 25.7449 7.83633 25.9374 7.45275 26.3184C7.0661 26.7043 6.86156 27.2505 6.8334 27.9618ZM24.5441 34.5266H23.1013C22.6862 34.5266 22.3521 34.3964 22.0883 34.1377C21.8274 33.8751 21.6978 33.5422 21.6978 33.1328V27.5517C21.6978 26.8933 21.5005 26.4167 21.0998 26.1156C20.7022 25.8148 20.2552 25.6642 19.7591 25.6642C19.2667 25.6642 18.8269 25.8148 18.4399 26.1156C18.0563 26.4167 17.8628 26.8934 17.8628 27.5517V34.5266H14.9778V28.1252C14.9778 26.263 15.4671 25.0202 16.4418 24.3899C17.4162 23.7597 18.4962 23.42 19.6784 23.3643C20.8884 23.3643 22.0004 23.6791 23.0173 24.309C24.0339 24.9358 24.544 26.2108 24.544 28.1252L24.5441 34.5266ZM32.5618 33.8714V33.1707C32.0657 33.9379 31.3971 34.4176 30.5599 34.6099C29.722 34.799 28.8918 34.7325 28.0649 34.4041C27.2419 34.0742 26.5348 33.4658 25.9436 32.576C25.3524 31.6869 25.0567 30.5171 25.0567 29.0681C25.0567 27.3732 25.4471 25.9969 26.2321 24.9432C27.013 23.8892 28.2728 23.3644 30.0037 23.3644C31.3232 23.3644 32.5473 23.7212 33.6733 24.4317C34.7993 25.1429 35.362 26.4561 35.362 28.3713V34.159C35.362 36.0741 34.7993 37.3801 33.6733 38.077C32.5472 38.773 31.3232 39.1241 30.0037 39.1241C27.4741 39.1241 25.9086 37.9468 25.3034 35.5951H28.3115C28.5331 35.9765 28.8708 36.2701 29.3247 36.4766C29.7748 36.6832 30.2287 36.7361 30.6826 36.6408C31.1365 36.547 31.5482 36.2776 31.9211 35.8395C32.2908 35.4013 32.5056 34.7467 32.5618 33.8714ZM27.8613 29.1513C27.8613 31.0392 28.4102 32.0856 29.5077 32.2891C30.6086 32.4958 31.4183 32.243 31.9422 31.5333C32.1886 31.2314 32.3681 30.7585 32.4771 30.1153C32.5862 29.4736 32.5934 28.8365 32.4984 28.2069C32.403 27.5797 32.1745 27.016 31.8195 26.5257C31.4606 26.0323 30.9398 25.7868 30.2502 25.7868C29.3177 25.7868 28.6847 26.13 28.354 26.8132C28.0228 27.4956 27.8613 28.2766 27.8613 29.1513ZM37.0434 23.613H38.528C38.9151 23.613 39.2423 23.7491 39.5168 24.0223C39.7943 24.2955 39.9319 24.6245 39.9319 25.006V34.5267H37.0435V23.613H37.0434ZM50.5598 34.5266H49.1175C48.7023 34.5266 48.3679 34.3964 48.104 34.1377C47.8436 33.8751 47.7136 33.5422 47.7136 33.1328V27.5517C47.7136 26.8933 47.5163 26.4167 47.1156 26.1156C46.7176 25.8148 46.2708 25.6642 45.7748 25.6642C45.2825 25.6642 44.8426 25.8148 44.4553 26.1156C44.0721 26.4167 43.8786 26.8934 43.8786 27.5517V34.5266H40.9936V28.1252C40.9936 26.263 41.4829 25.0202 42.4572 24.3899C43.4319 23.7597 44.5115 23.42 45.6942 23.3643C46.9042 23.3643 48.0161 23.6791 49.0327 24.309C50.0492 24.9358 50.5597 26.2108 50.5597 28.1252V34.5266H50.5598ZM59.5801 31.1618H61.6421C61.3391 32.3096 60.7624 33.1858 59.9109 33.7881C59.0593 34.4176 57.9865 34.7325 56.6952 34.7325C55.1259 34.7325 53.9053 34.2255 53.0257 33.2131C52.1459 32.2294 51.7062 30.822 51.7062 28.9872C51.7062 27.2371 52.1319 25.8674 52.9834 24.8834C53.8632 23.8717 55.0872 23.3643 56.6527 23.3643C58.3029 23.3643 59.5802 23.8577 60.4876 24.8414C61.3674 25.8534 61.8072 27.2642 61.8072 29.068C61.8072 29.18 61.8072 29.2739 61.8072 29.3548C61.8072 29.4389 61.8072 29.4918 61.8072 29.5191C61.8072 29.656 61.7931 29.7536 61.7651 29.8066H54.6337C54.6615 30.657 54.8657 31.2844 55.253 31.6967C55.6081 32.1349 56.1429 32.352 56.8607 32.352C57.3248 32.352 57.7259 32.2582 58.0531 32.0645C58.1376 32.0372 58.2117 31.9919 58.282 31.9207C58.3485 31.851 58.4261 31.7784 58.5071 31.6967C58.5352 31.6135 58.6371 31.5046 58.817 31.3683C58.9962 31.2313 59.2493 31.1618 59.5801 31.1618ZM54.6335 27.9618H58.8377C58.7814 27.2226 58.5914 26.6763 58.2606 26.3184C57.9018 25.9374 57.395 25.7449 56.734 25.7449C56.1322 25.7449 55.6362 25.9374 55.2529 26.3184C54.8654 26.7043 54.6612 27.2505 54.6335 27.9618Z" fill="#20C178"/>
</svg>
