<svg xmlns="http://www.w3.org/2000/svg" fill="none" viewBox="0 0 151 30"><g clip-path="url(#a)"><path fill="#fff" d="M39.719 17.879c.154 1.446 1.47 3.925 5.287 3.925 3.327 0 4.927-2.118 4.927-4.183 0-1.86-1.264-3.383-3.766-3.9l-1.806-.387c-.696-.13-1.16-.516-1.16-1.136 0-.723.722-1.266 1.625-1.266 1.444 0 1.986.956 2.089 1.705l2.863-.646c-.155-1.368-1.367-3.667-4.978-3.667-2.734 0-4.746 1.885-4.746 4.158 0 1.782 1.109 3.254 3.56 3.796l1.676.387c.98.207 1.367.672 1.367 1.24 0 .671-.542 1.265-1.677 1.265-1.495 0-2.244-.93-2.32-1.937l-2.941.646ZM60.895 21.416h3.276a20.91 20.91 0 0 1-.13-2.298V8.711h-3.43v7.386c0 1.472-.877 2.505-2.398 2.505-1.6 0-2.322-1.137-2.322-2.557V8.711h-3.43v8.031c0 2.764 1.754 5.01 4.823 5.01 1.341 0 2.812-.516 3.508-1.704 0 .516.052 1.11.103 1.369ZM71.133 26.323v-6.146c.62.852 1.909 1.55 3.663 1.55 3.585 0 5.983-2.841 5.983-6.689 0-3.77-2.14-6.61-5.854-6.61-1.909 0-3.327.851-3.895 1.833V8.71h-3.327v17.612h3.43Zm6.268-11.26c0 2.273-1.393 3.59-3.147 3.59-1.754 0-3.172-1.342-3.172-3.59 0-2.246 1.419-3.563 3.172-3.563 1.754 0 3.147 1.317 3.147 3.564ZM82.727 17.956c0 1.989 1.65 3.822 4.359 3.822 1.882 0 3.094-.878 3.739-1.885 0 .49.052 1.188.13 1.524H94.1a14.247 14.247 0 0 1-.155-2.015v-6.249c0-2.556-1.496-4.829-5.52-4.829-3.404 0-5.236 2.195-5.442 4.184l3.044.645c.103-1.11.928-2.066 2.424-2.066 1.445 0 2.141.75 2.141 1.653 0 .439-.232.8-.954.904l-3.12.465c-2.116.31-3.792 1.575-3.792 3.847Zm5.08 1.266c-1.108 0-1.65-.723-1.65-1.472 0-.982.696-1.472 1.573-1.601l2.863-.44v.569c0 2.246-1.341 2.944-2.785 2.944ZM100.726 21.416v-1.55c.67 1.085 2.011 1.86 3.765 1.86 3.612 0 5.985-2.866 5.985-6.714 0-3.77-2.142-6.636-5.856-6.636-1.883 0-3.275.826-3.843 1.73V2.72h-3.379v18.696h3.328Zm6.319-6.378c0 2.324-1.393 3.615-3.147 3.615-1.728 0-3.172-1.317-3.172-3.615 0-2.324 1.444-3.59 3.172-3.59 1.754 0 3.147 1.266 3.147 3.59ZM112.422 17.956c0 1.989 1.65 3.822 4.359 3.822 1.882 0 3.095-.878 3.739-1.885 0 .49.052 1.188.129 1.524h3.147a14.312 14.312 0 0 1-.154-2.015v-6.249c0-2.556-1.496-4.829-5.52-4.829-3.405 0-5.236 2.195-5.442 4.184l3.043.645c.103-1.11.929-2.066 2.424-2.066 1.445 0 2.141.75 2.141 1.653 0 .439-.232.8-.954.904l-3.121.465c-2.115.31-3.791 1.575-3.791 3.847Zm5.081 1.266c-1.109 0-1.651-.723-1.651-1.472 0-.982.696-1.472 1.574-1.601l2.862-.44v.569c0 2.246-1.341 2.944-2.785 2.944ZM126.016 17.879c.154 1.446 1.47 3.925 5.287 3.925 3.327 0 4.926-2.118 4.926-4.183 0-1.86-1.263-3.383-3.765-3.9l-1.806-.387c-.696-.13-1.16-.516-1.16-1.136 0-.723.721-1.266 1.624-1.266 1.445 0 1.986.956 2.09 1.705l2.863-.646c-.155-1.368-1.367-3.667-4.978-3.667-2.735 0-4.746 1.885-4.746 4.158 0 1.782 1.109 3.254 3.559 3.796l1.677.387c.98.207 1.367.672 1.367 1.24 0 .671-.542 1.265-1.677 1.265-1.496 0-2.244-.93-2.321-1.937l-2.94.646ZM141.441 13.618c.077-1.162 1.057-2.505 2.837-2.505 1.96 0 2.786 1.24 2.837 2.505h-5.674Zm6.01 3.305c-.413 1.137-1.29 1.937-2.889 1.937-1.703 0-3.121-1.214-3.198-2.892h9.078c0-.052.052-.568.052-1.059 0-4.08-2.347-6.585-6.268-6.585-3.249 0-6.242 2.634-6.242 6.688 0 4.287 3.07 6.792 6.552 6.792 3.121 0 5.133-1.833 5.778-4.028l-2.863-.853Z"/><path fill="url(#b)" d="M17.083 29.115c-.738.93-2.235.42-2.253-.766l-.26-17.363h11.675c2.114 0 3.294 2.442 1.979 4.098l-11.14 14.031Z"/><path fill="url(#c)" fill-opacity=".2" d="M17.083 29.115c-.738.93-2.235.42-2.253-.766l-.26-17.363h11.675c2.114 0 3.294 2.442 1.979 4.098l-11.14 14.031Z"/><path fill="#3ECF8E" d="M12.334 1.177c.738-.93 2.235-.42 2.253.767l.114 17.363H3.172c-2.114 0-3.294-2.442-1.979-4.099l11.141-14.03Z"/></g><defs><linearGradient id="b" x1="14.57" x2="24.946" y1="14.836" y2="19.187" gradientUnits="userSpaceOnUse"><stop stop-color="#249361"/><stop offset="1" stop-color="#3ECF8E"/></linearGradient><linearGradient id="c" x1="9.97" x2="14.702" y1="8.537" y2="17.445" gradientUnits="userSpaceOnUse"><stop/><stop offset="1" stop-opacity="0"/></linearGradient><clipPath id="a"><path fill="#fff" d="M.633.643h150v29.174h-150z"/></clipPath></defs></svg>