<svg width="118" height="33" viewBox="0 0 118 33" fill="none" xmlns="http://www.w3.org/2000/svg">
<g clip-path="url(#clip0_17698_73322)">
<mask id="mask0_17698_73322" style="mask-type:luminance" maskUnits="userSpaceOnUse" x="1" y="0" width="117" height="33">
<path d="M117.837 0.90625H1.0625V32.5327H117.837V0.90625Z" fill="white"/>
</mask>
<g mask="url(#mask0_17698_73322)">
<path d="M54.125 8.38428H59.6998V11.5068C61.5262 8.70052 63.6282 8.38428 66.705 8.38428V13.9025H65.3038C61.6166 13.9025 59.8518 15.6375 59.8518 19.0743V24.9399H54.125V8.38428Z" fill="white"/>
<path d="M85.3069 24.9399H79.5817V23.3616C78.3313 24.8124 76.6273 25.443 74.5265 25.443C70.5369 25.443 68.2812 23.0775 68.2812 18.7269V8.38428H74.0069V17.4357C74.0069 19.484 75.0121 20.6818 76.7169 20.6818C78.4217 20.6818 79.5805 19.5142 79.5805 17.5291V8.38428H85.3061V24.9399H85.3069Z" fill="white"/>
<path d="M86.7031 19.8288H92.0655C92.3099 21.0266 93.1323 21.5307 95.1103 21.5307C96.7255 21.5307 97.6695 21.1531 97.6695 20.4593C97.6695 19.9222 97.2123 19.5748 95.9043 19.2917L91.5791 18.3137C88.6851 17.653 87.2227 15.9813 87.2227 13.2995C87.2227 9.76635 89.8111 7.93799 94.8371 7.93799C99.8627 7.93799 102.33 9.71967 102.758 13.537H97.4283C97.3379 12.5289 96.3003 11.9119 94.5955 11.9119C93.2255 11.9119 92.3439 12.3527 92.3439 13.0164C92.3439 13.5837 92.9211 14.0245 94.0807 14.3105L98.6183 15.415C101.603 16.1389 103.036 17.654 103.036 20.1129C103.036 23.5196 100.081 25.5378 95.0579 25.5378C90.0347 25.5378 86.7119 23.3619 86.7119 19.8288H86.7059H86.7031Z" fill="white"/>
<path d="M118.281 13.5337V8.38428H104.148V13.5366H108.366V24.9399H114.062V13.5337H118.281Z" fill="white"/>
<path d="M52.5301 13.5337V8.38428H38.3984V13.5366H42.6157V24.9399H48.3129V13.5337H52.5301Z" fill="white"/>
<path d="M1.32812 5.47477L15.384 0.90625V32.5327C5.34393 28.3155 1.32812 20.2332 1.32812 15.6656V5.47477Z" fill="#0500FF"/>
<path d="M29.4387 5.47477L15.3828 0.90625V32.5327C25.4229 28.3155 29.4387 20.2332 29.4387 15.6656V5.47477Z" fill="url(#paint0_linear_17698_73322)"/>
<path d="M29.4387 5.47477L15.3828 0.90625V32.5327C25.4229 28.3155 29.4387 20.2332 29.4387 15.6656V5.47477Z" fill="url(#paint1_linear_17698_73322)"/>
</g>
</g>
<defs>
<linearGradient id="paint0_linear_17698_73322" x1="14.7893" y1="36.5077" x2="26.2947" y2="-5.10531" gradientUnits="userSpaceOnUse">
<stop offset="0.26" stop-color="#48FF91"/>
<stop offset="0.66" stop-color="#0094FF"/>
<stop offset="0.8" stop-color="#0038FF"/>
<stop offset="0.89" stop-color="#0500FF"/>
</linearGradient>
<linearGradient id="paint1_linear_17698_73322" x1="25.4425" y1="-0.921622" x2="14.8254" y2="32.4875" gradientUnits="userSpaceOnUse">
<stop offset="0.02" stop-color="#0000FF"/>
<stop offset="0.08" stop-color="#0094FF"/>
<stop offset="0.16" stop-color="#48FF91"/>
<stop offset="0.42" stop-color="#0094FF"/>
<stop offset="0.68" stop-color="#0038FF"/>
<stop offset="0.9" stop-color="#0500FF"/>
</linearGradient>
<clipPath id="clip0_17698_73322">
<rect width="117.2" height="32" fill="white" transform="translate(0.742188 0.906738)"/>
</clipPath>
</defs>
</svg>
