<svg width="148" height="31" viewBox="0 0 148 31" fill="none" xmlns="http://www.w3.org/2000/svg">
<g clip-path="url(#clip0_17698_73335)">
<path d="M0.382812 0.640137H30.0052V30.6401H0.382812V0.640137Z" fill="#FF5A00"/>
<path d="M83.2173 6.57666C83.4711 6.57666 83.5345 6.89581 83.5345 7.15113C83.5979 8.1724 83.6613 9.12985 83.6613 10.1511C83.7248 11.1086 83.7248 12.066 83.7248 13.0235C84.2957 12.5767 84.8031 12.1299 85.4374 11.9384C86.4523 11.4916 87.6575 11.4916 88.6724 12.0022C89.7507 12.5767 90.4485 13.5979 90.8291 14.683C91.1462 15.7681 91.2731 16.9171 91.2097 18.0022C91.0828 19.3426 90.7656 20.6192 90.0045 21.7043C89.5604 22.3426 88.9896 22.8533 88.2284 23.1086C87.0232 23.5554 85.7546 23.3639 84.6762 22.7256C84.3591 22.5341 84.0419 22.215 83.7882 21.9596C83.6613 22.3426 83.5979 22.7256 83.4711 23.1086C82.9002 23.1086 82.3927 23.1724 81.8218 23.0447C82.0121 22.1511 82.0121 21.1937 82.0756 20.3001C82.139 17.0447 82.0756 13.7894 82.0756 10.5979C82.0121 9.32134 82.0756 8.04474 81.8853 6.83198C82.2659 6.70432 82.7733 6.57666 83.2173 6.57666ZM87.4038 13.2788C86.8963 13.1511 86.3889 13.1511 85.9449 13.215C85.0568 13.3426 84.3591 13.9809 83.7882 14.6192C83.7882 14.8107 83.7882 15.066 83.7882 15.2575V20.4277C83.7882 20.6192 83.9151 20.7469 84.0419 20.8107C84.93 21.6405 86.1986 22.0235 87.3404 21.7681C87.9112 21.6405 88.4187 21.2575 88.6724 20.7469C89.1164 20.0447 89.2433 19.215 89.3067 18.3852C89.3702 17.7469 89.4336 17.1086 89.3702 16.5341C89.3702 15.832 89.1799 15.066 88.7993 14.4277C88.4821 13.7894 87.9747 13.4064 87.4038 13.2788ZM94.6984 7.02347C95.0155 6.89581 95.4595 6.89581 95.7767 7.0873C96.0939 7.27879 96.3476 7.59794 96.4744 7.91709C96.6647 8.68304 96.0939 9.51283 95.3327 9.57666C94.7618 9.64049 94.1275 9.32134 93.9372 8.68304C93.6835 8.10858 94.0641 7.27879 94.6984 7.02347ZM42.2408 8.36389C43.0654 7.78943 44.0803 7.34262 45.0952 7.34262C46.1735 7.34262 47.2518 7.40645 48.2033 7.85326C48.5839 8.04475 48.9645 8.23623 49.3451 8.49155C49.0913 8.93836 48.7742 9.25751 48.457 9.64049C48.0764 9.449 47.6959 9.19368 47.2518 9.00219C46.2369 8.61921 45.0317 8.55538 44.0169 9.00219C43.1288 9.32134 42.4311 10.0235 41.987 10.8533C41.7333 11.4916 41.4796 12.1299 41.3527 12.7681C41.2259 13.4064 41.2259 14.0447 41.1624 14.683C41.1624 15.5128 41.099 16.4064 41.1624 17.2362C41.2893 18.449 41.7333 19.5979 42.4945 20.4916C43.1922 21.3213 44.2071 21.7681 45.2855 21.8958C45.8564 21.8958 46.3638 21.8958 46.9347 21.7681C47.569 21.6405 48.1399 21.2575 48.7742 21.0022C49.0913 21.3213 49.4085 21.7682 49.7257 22.1511C49.2816 22.4064 48.8376 22.6618 48.3302 22.8533C47.0615 23.3639 45.6026 23.4277 44.2706 23.2362C43.2557 23.0447 42.3676 22.5341 41.6065 21.8958C40.7184 21.1299 40.0841 20.1086 39.7035 19.0235C39.4498 18.2575 39.3229 17.4916 39.2595 16.7256C39.2595 16.1511 39.1326 15.5767 39.2595 14.9384C39.2595 13.8533 39.4498 12.7043 39.8938 11.683C40.3378 10.4064 41.099 9.19368 42.2408 8.36389Z" fill="#FF5A00"/>
<path d="M9.14062 8.10811C9.26749 8.10811 9.39435 8.04428 9.52121 8.04428C10.1555 8.04428 10.7898 8.04428 11.4241 8.10811C11.551 8.10811 11.551 8.17194 11.6144 8.23577C12.5659 10.2145 13.5174 12.257 14.5323 14.2996C14.7226 14.7464 14.9129 15.1294 15.1666 15.5124C15.3569 15.1932 15.5472 14.8741 15.7375 14.4911C16.8158 12.3209 17.8941 10.2145 18.9725 8.04428C19.6702 8.04428 20.3679 7.98045 21.1291 8.10811C21.0023 8.55492 20.7485 8.87406 20.5582 9.25704C19.1628 12.0017 17.7038 14.7464 16.2449 17.4911C16.1815 17.6187 16.1815 17.6826 16.1815 17.8102C16.1815 19.789 16.1815 21.7677 16.1815 23.6826C15.4837 23.6826 14.786 23.6826 14.0883 23.6826C14.0883 21.7677 14.0883 19.8528 14.0883 17.9379C14.0883 17.7464 14.0883 17.4911 13.9614 17.2996C12.6293 14.8102 11.3607 12.3209 10.0287 9.76768C9.77494 9.25704 9.45778 8.68258 9.14062 8.10811Z" fill="#FFFEFE"/>
<path d="M123.562 9.00198C124.133 8.8105 124.704 8.68284 125.338 8.55518C125.211 9.64028 125.148 10.7254 125.148 11.8743C126.036 11.8743 126.987 11.8743 127.875 11.9382C127.748 12.385 127.558 12.7679 127.368 13.1509C126.607 13.1509 125.845 13.1509 125.021 13.1509C125.021 14.1722 125.021 15.1935 125.021 16.2148C125.021 16.9807 125.084 17.8105 125.021 18.6403C125.021 19.5339 125.021 20.4913 125.084 21.385C125.084 21.7679 125.465 22.0233 125.782 22.1509C126.353 22.2786 126.924 22.2147 127.495 22.0871C127.621 22.4062 127.685 22.7892 127.685 23.1084C127.177 23.3637 126.607 23.4275 126.036 23.4913C125.274 23.4913 124.386 23.3637 123.816 22.7892C123.372 22.3424 123.372 21.6403 123.308 21.0658C123.245 19.7892 123.308 18.4488 123.245 17.1722C123.245 15.8318 123.245 14.5552 123.245 13.2148C122.737 13.2148 122.23 13.2148 121.786 13.2148C121.786 12.7679 121.786 12.3211 121.786 11.9382C122.293 11.9382 122.737 11.9382 123.245 11.9382C123.435 10.9169 123.435 9.8956 123.562 9.00198ZM56.3247 11.5552C56.7688 11.5552 57.2762 11.5552 57.7202 11.6828C58.7351 12.002 59.6232 12.7679 60.1306 13.6616C60.5746 14.4913 60.8918 15.385 60.9552 16.3424C61.0186 17.619 61.0821 18.8956 60.6381 20.1084C60.2575 21.2573 59.4963 22.2786 58.418 22.853C57.3396 23.4275 56.071 23.4913 54.9293 23.1722C53.9144 22.9169 53.0263 22.2148 52.392 21.3211C51.7577 20.3637 51.504 19.2148 51.504 18.002C51.504 16.9169 51.4405 15.7679 51.8211 14.6828C52.1383 13.6616 52.836 12.7041 53.7875 12.0658C54.2315 11.8105 54.6755 11.5552 55.183 11.4913C55.5636 11.5552 55.9441 11.5552 56.3247 11.5552ZM55.4367 13.0233C54.8658 13.1509 54.2949 13.5339 53.9778 14.0445C53.5338 14.8105 53.4069 15.7041 53.4069 16.5977C53.3435 17.236 53.4069 17.8743 53.4703 18.5126C53.5972 19.2786 53.7241 20.1084 54.1046 20.8105C54.4852 21.5765 55.3098 21.8956 56.1344 21.9594C56.8956 22.0233 57.7202 21.8318 58.2911 21.1935C58.7351 20.6828 58.9888 20.1084 59.0523 19.4062C59.1791 18.5765 59.1791 17.7467 59.1157 16.9807C59.1157 16.1509 58.9888 15.2573 58.6717 14.4275C58.4814 13.9169 58.1008 13.5339 57.6568 13.2786C56.9591 12.8956 56.1979 12.8318 55.4367 13.0233ZM64.0633 11.9382C64.5708 11.7467 65.0782 11.619 65.6491 11.5552C65.8394 12.0658 65.9663 12.5765 66.0297 13.1509C66.4103 12.9594 66.664 12.6403 67.0446 12.4488C67.8058 11.8743 68.7573 11.5552 69.7087 11.5552C69.899 11.5552 70.1527 11.619 70.343 11.7467C70.6602 11.9382 70.9773 12.0658 71.2945 12.3211C71.5482 12.5765 71.7385 12.9594 71.9288 13.2786C72.3728 13.0871 72.69 12.7041 73.0706 12.4488C73.7049 12.002 74.4661 11.619 75.3541 11.5552C76.1153 11.4913 76.8764 11.7467 77.4473 12.2573C77.7011 12.5126 77.9548 12.7679 78.0816 13.0871C78.2085 13.4062 78.2719 13.7254 78.2719 14.1084C78.3988 15.8956 78.3354 17.7467 78.3988 19.5339C78.3988 20.7467 78.3988 21.9594 78.3988 23.1722C77.8279 23.1722 77.1936 23.1722 76.6227 23.1722C76.6227 21.385 76.6227 19.5339 76.6227 17.7467C76.6227 16.5977 76.6227 15.4488 76.5593 14.236C76.4959 13.853 76.3056 13.5339 75.9884 13.2786C75.6713 13.0871 75.2272 13.0871 74.7832 13.0871C74.0855 13.1509 73.5146 13.5977 72.9437 14.0445C72.69 14.236 72.4363 14.4913 72.1825 14.6828C72.1191 14.7467 72.1191 14.8743 72.1191 14.9382C72.1191 17.6828 72.1191 20.3637 72.1191 23.1084C71.5482 23.1084 70.9139 23.1084 70.343 23.1084V16.7254C70.343 16.2148 70.343 15.7041 70.343 15.1935C70.343 14.6828 70.343 14.1084 70.1527 13.6616C69.7722 13.1509 69.0744 13.0233 68.5035 13.2148C67.6155 13.4062 66.8543 13.9807 66.1566 14.619C66.0297 14.6828 66.0297 14.8105 66.0297 14.9382C66.0297 17.6828 66.0297 20.4275 66.0297 23.1722C65.5223 23.1722 65.0148 23.1722 64.5074 23.1722C64.4439 20.3637 64.5074 17.5552 64.3805 14.7467C64.3805 14.1084 64.3805 13.4701 64.2536 12.8318C64.1902 12.5126 64.0633 12.1935 64.0633 11.9382ZM94.32 11.8743C94.8909 11.8105 95.4618 11.6828 96.0327 11.5552C96.0961 13.1509 96.0961 14.7467 96.0961 16.2786C96.0961 18.5765 96.0961 20.8105 96.0961 23.1084C95.5252 23.1084 94.8909 23.1084 94.32 23.1084C94.32 19.853 94.32 16.5977 94.32 13.3424C94.32 12.8956 94.2566 12.3211 94.32 11.8743ZM117.092 11.619C118.297 11.8105 119.312 12.9594 119.375 14.236C119.439 16.0871 119.375 18.002 119.375 19.853V20.4275C119.375 20.8105 119.375 21.1935 119.502 21.5126C119.566 21.8956 119.946 22.0871 120.2 22.2786C119.946 22.5977 119.756 23.0445 119.439 23.2999C119.248 23.4913 118.995 23.2999 118.868 23.1722C118.424 22.853 118.17 22.4062 117.916 21.8956C117.536 22.0871 117.282 22.4701 116.838 22.6616C116.204 23.1084 115.443 23.2999 114.618 23.2999C113.92 23.2999 113.223 23.1722 112.588 22.853C111.573 22.2786 111.002 21.1296 111.066 19.9807C111.066 18.8956 111.637 17.8105 112.461 17.1722C113.476 16.4062 114.808 16.1509 116.077 16.0233C116.648 15.9594 117.219 15.9594 117.853 15.9594C117.853 15.385 117.853 14.8105 117.726 14.236C117.663 13.7892 117.409 13.2786 116.965 13.0233C116.458 12.7679 115.823 12.7041 115.252 12.8318C114.174 12.9594 113.159 13.4062 112.271 14.0445C112.017 13.7254 111.764 13.4062 111.573 13.0233C111.446 12.8318 111.637 12.7041 111.764 12.6403C112.969 12.002 114.237 11.4275 115.633 11.4275H116.204C116.521 11.5552 116.775 11.5552 117.092 11.619ZM116.331 17.2999C115.76 17.3637 115.252 17.3637 114.681 17.4913C114.047 17.6828 113.476 18.0658 113.096 18.6403C112.905 18.9594 112.905 19.3424 112.905 19.7254C112.905 20.1084 112.842 20.5552 113.032 20.9382C113.159 21.3211 113.476 21.7041 113.857 21.8318C114.301 22.0233 114.808 22.0233 115.316 22.0233C115.887 21.9594 116.394 21.6403 116.838 21.2573C117.219 20.9382 117.599 20.5552 117.599 20.0445C117.663 19.1509 117.663 18.1935 117.663 17.2999C117.219 17.3637 116.775 17.236 116.331 17.2999ZM135.614 11.6828C136.629 11.9382 137.517 12.5765 138.151 13.4062C138.658 14.1084 138.976 14.8743 139.102 15.7041C139.229 16.4701 139.293 17.2999 139.229 18.1296C139.229 19.4701 138.785 20.7467 138.024 21.7679C137.39 22.5977 136.375 23.1084 135.423 23.2999C134.218 23.4913 132.886 23.2999 131.808 22.5339C130.92 21.8956 130.349 20.8743 130.032 19.7892C129.841 19.2148 129.841 18.7041 129.778 18.1296C129.778 17.1722 129.778 16.2786 129.905 15.3211C130.159 14.2999 130.666 13.2786 131.427 12.5126C131.998 11.9382 132.759 11.619 133.521 11.4913C134.282 11.4913 134.979 11.5552 135.614 11.6828ZM133.711 13.0233C132.886 13.1509 132.188 13.7892 131.935 14.5552C131.618 15.385 131.618 16.2786 131.618 17.1084C131.618 17.9382 131.618 18.7679 131.808 19.5339C131.935 20.1084 132.062 20.619 132.442 21.0658C132.759 21.5126 133.33 21.7679 133.838 21.8318C134.028 21.8956 134.282 21.8956 134.472 21.8956H134.662H134.853C135.297 21.8318 135.677 21.7041 136.058 21.5126C136.502 21.2573 136.819 20.8105 137.009 20.2999C137.2 19.7254 137.263 19.0871 137.326 18.5126C137.326 17.8105 137.39 17.1084 137.326 16.3424C137.263 15.5765 137.2 14.8105 136.819 14.1722C136.502 13.6616 136.058 13.2786 135.487 13.0233C134.916 12.8956 134.282 12.8956 133.711 13.0233ZM142.274 12.002C142.845 11.8743 143.352 11.6828 143.86 11.5552C144.177 12.1296 144.177 12.7679 144.24 13.3424C144.494 13.1509 144.748 12.8956 145.002 12.6403C145.763 11.8743 146.904 11.4275 147.983 11.619V11.7467C147.729 12.2573 147.602 12.8318 147.349 13.4062C147.349 13.5339 147.158 13.4701 147.095 13.4701C146.651 13.4701 146.08 13.4701 145.699 13.7254C145.255 13.9807 144.938 14.2999 144.621 14.6828C144.304 15.0658 144.367 15.5765 144.367 16.0233C144.367 16.6616 144.304 17.2999 144.367 17.9382C144.367 19.6616 144.367 21.4488 144.367 23.1722C143.796 23.1722 143.162 23.1722 142.591 23.1722C142.591 21.2573 142.591 19.2786 142.591 17.3637C142.591 16.0233 142.591 14.7467 142.528 13.4062C142.464 12.8956 142.337 12.4488 142.274 12.002ZM99.5214 12.002C100.029 11.8105 100.6 11.619 101.107 11.619C101.297 12.1296 101.424 12.7041 101.488 13.2148C101.932 12.8956 102.376 12.5126 102.82 12.2573C103.771 11.6828 104.913 11.2999 105.928 11.6828C106.562 11.8743 107.133 12.2573 107.514 12.8318C107.831 13.2148 107.894 13.7892 107.958 14.236C108.085 16.0233 108.021 17.7467 108.021 19.5339C108.021 20.7467 108.021 21.8956 108.021 23.0445C107.45 23.0445 106.816 23.0445 106.245 23.0445C106.245 21.1296 106.182 19.1509 106.182 17.236C106.182 16.1509 106.182 15.0658 106.055 13.9807C105.865 13.4701 105.42 13.0233 104.85 13.0233C104.469 13.0233 104.025 13.0233 103.644 13.1509C102.82 13.4701 102.059 13.9807 101.361 14.5552C101.361 17.3637 101.361 20.236 101.361 23.0445C100.853 23.0445 100.346 23.0445 99.8385 23.0445C99.8385 21.4488 99.7751 19.853 99.7751 18.1935C99.7751 16.5339 99.7751 14.8743 99.6482 13.2148C99.7751 12.8956 99.6483 12.4488 99.5214 12.002Z" fill="#FF5A00"/>
</g>
<defs>
<clipPath id="clip0_17698_73335">
<rect width="147.541" height="30" fill="white" transform="translate(0.367188 0.640625)"/>
</clipPath>
</defs>
</svg>
