<svg width="148" height="31" viewBox="0 0 148 31" fill="none" xmlns="http://www.w3.org/2000/svg">
<g clip-path="url(#clip0_17698_73206)">
<path d="M0.0859375 0.640137H29.7083V30.6401H0.0859375V0.640137Z" fill="#FF5A00"/>
<path d="M82.9205 6.57666C83.1742 6.57666 83.2376 6.89581 83.2376 7.15113C83.301 8.1724 83.3645 9.12985 83.3645 10.1511C83.4279 11.1086 83.4279 12.066 83.4279 13.0235C83.9988 12.5767 84.5062 12.1299 85.1405 11.9384C86.1554 11.4916 87.3606 11.4916 88.3755 12.0022C89.4539 12.5767 90.1516 13.5979 90.5322 14.683C90.8494 15.7681 90.9762 16.9171 90.9128 18.0022C90.7859 19.3426 90.4688 20.6192 89.7076 21.7043C89.2636 22.3426 88.6927 22.8533 87.9315 23.1086C86.7263 23.5554 85.4577 23.3639 84.3794 22.7256C84.0622 22.5341 83.7451 22.215 83.4913 21.9596C83.3645 22.3426 83.301 22.7256 83.1742 23.1086C82.6033 23.1086 82.0958 23.1724 81.525 23.0447C81.7153 22.1511 81.7153 21.1937 81.7787 20.3001C81.8421 17.0447 81.7787 13.7894 81.7787 10.5979C81.7153 9.32134 81.7787 8.04474 81.5884 6.83198C81.969 6.70432 82.4764 6.57666 82.9205 6.57666ZM87.1069 13.2788C86.5995 13.1511 86.092 13.1511 85.648 13.215C84.76 13.3426 84.0622 13.9809 83.4913 14.6192C83.4913 14.8107 83.4913 15.066 83.4913 15.2575V20.4277C83.4913 20.6192 83.6182 20.7469 83.7451 20.8107C84.6331 21.6405 85.9017 22.0235 87.0435 21.7681C87.6144 21.6405 88.1218 21.2575 88.3755 20.7469C88.8196 20.0447 88.9464 19.215 89.0098 18.3852C89.0733 17.7469 89.1367 17.1086 89.0733 16.5341C89.0733 15.832 88.883 15.066 88.5024 14.4277C88.1852 13.7894 87.6778 13.4064 87.1069 13.2788ZM94.4015 7.02347C94.7187 6.89581 95.1627 6.89581 95.4798 7.0873C95.797 7.27879 96.0507 7.59794 96.1776 7.91709C96.3679 8.68304 95.797 9.51283 95.0358 9.57666C94.4649 9.64049 93.8306 9.32134 93.6403 8.68304C93.3866 8.10858 93.7672 7.27879 94.4015 7.02347ZM41.9439 8.36389C42.7685 7.78943 43.7834 7.34262 44.7983 7.34262C45.8766 7.34262 46.955 7.40645 47.9064 7.85326C48.287 8.04475 48.6676 8.23623 49.0482 8.49155C48.7945 8.93836 48.4773 9.25751 48.1602 9.64049C47.7796 9.449 47.399 9.19368 46.955 9.00219C45.9401 8.61921 44.7349 8.55538 43.72 9.00219C42.8319 9.32134 42.1342 10.0235 41.6902 10.8533C41.4364 11.4916 41.1827 12.1299 41.0559 12.7681C40.929 13.4064 40.929 14.0447 40.8656 14.683C40.8656 15.5128 40.8021 16.4064 40.8656 17.2362C40.9924 18.449 41.4365 19.5979 42.1976 20.4916C42.8954 21.3213 43.9103 21.7681 44.9886 21.8958C45.5595 21.8958 46.0669 21.8958 46.6378 21.7681C47.2721 21.6405 47.843 21.2575 48.4773 21.0022C48.7945 21.3213 49.1116 21.7682 49.4288 22.1511C48.9848 22.4064 48.5407 22.6618 48.0333 22.8533C46.7647 23.3639 45.3058 23.4277 43.9737 23.2362C42.9588 23.0447 42.0708 22.5341 41.3096 21.8958C40.4216 21.1299 39.7872 20.1086 39.4067 19.0235C39.1529 18.2575 39.0261 17.4916 38.9626 16.7256C38.9626 16.1511 38.8358 15.5767 38.9626 14.9384C38.9626 13.8533 39.1529 12.7043 39.5969 11.683C40.041 10.4064 40.8021 9.19368 41.9439 8.36389Z" fill="#FF5A00"/>
<path d="M8.84375 8.10811C8.97061 8.10811 9.09747 8.04428 9.22434 8.04428C9.85865 8.04428 10.493 8.04428 11.1273 8.10811C11.2541 8.10811 11.2541 8.17194 11.3176 8.23577C12.269 10.2145 13.2205 12.257 14.2354 14.2996C14.4257 14.7464 14.616 15.1294 14.8697 15.5124C15.06 15.1932 15.2503 14.8741 15.4406 14.4911C16.5189 12.3209 17.5973 10.2145 18.6756 8.04428C19.3733 8.04428 20.0711 7.98045 20.8322 8.10811C20.7054 8.55492 20.4517 8.87406 20.2614 9.25704C18.8659 12.0017 17.407 14.7464 15.948 17.4911C15.8846 17.6187 15.8846 17.6826 15.8846 17.8102C15.8846 19.789 15.8846 21.7677 15.8846 23.6826C15.1869 23.6826 14.4891 23.6826 13.7914 23.6826C13.7914 21.7677 13.7914 19.8528 13.7914 17.9379C13.7914 17.7464 13.7914 17.4911 13.6645 17.2996C12.3325 14.8102 11.0638 12.3209 9.73179 9.76768C9.47806 9.25704 9.16091 8.68258 8.84375 8.10811Z" fill="#FFFEFE"/>
<path d="M123.265 9.00198C123.836 8.8105 124.407 8.68284 125.041 8.55518C124.914 9.64028 124.851 10.7254 124.851 11.8743C125.739 11.8743 126.69 11.8743 127.578 11.9382C127.451 12.385 127.261 12.7679 127.071 13.1509C126.31 13.1509 125.548 13.1509 124.724 13.1509C124.724 14.1722 124.724 15.1935 124.724 16.2148C124.724 16.9807 124.787 17.8105 124.724 18.6403C124.724 19.5339 124.724 20.4913 124.787 21.385C124.787 21.7679 125.168 22.0233 125.485 22.1509C126.056 22.2786 126.627 22.2147 127.198 22.0871C127.325 22.4062 127.388 22.7892 127.388 23.1084C126.881 23.3637 126.31 23.4275 125.739 23.4913C124.978 23.4913 124.09 23.3637 123.519 22.7892C123.075 22.3424 123.075 21.6403 123.011 21.0658C122.948 19.7892 123.011 18.4488 122.948 17.1722C122.948 15.8318 122.948 14.5552 122.948 13.2148C122.44 13.2148 121.933 13.2148 121.489 13.2148C121.489 12.7679 121.489 12.3211 121.489 11.9382C121.996 11.9382 122.44 11.9382 122.948 11.9382C123.138 10.9169 123.138 9.8956 123.265 9.00198ZM56.0279 11.5552C56.4719 11.5552 56.9793 11.5552 57.4233 11.6828C58.4382 12.002 59.3263 12.7679 59.8337 13.6616C60.2778 14.4913 60.5949 15.385 60.6583 16.3424C60.7218 17.619 60.7852 18.8956 60.3412 20.1084C59.9606 21.2573 59.1994 22.2786 58.1211 22.853C57.0428 23.4275 55.7741 23.4913 54.6324 23.1722C53.6175 22.9169 52.7294 22.2148 52.0951 21.3211C51.4608 20.3637 51.2071 19.2148 51.2071 18.002C51.2071 16.9169 51.1437 15.7679 51.5242 14.6828C51.8414 13.6616 52.5391 12.7041 53.4906 12.0658C53.9346 11.8105 54.3787 11.5552 54.8861 11.4913C55.2667 11.5552 55.6473 11.5552 56.0279 11.5552ZM55.1398 13.0233C54.5689 13.1509 53.9981 13.5339 53.6809 14.0445C53.2369 14.8105 53.11 15.7041 53.11 16.5977C53.0466 17.236 53.11 17.8743 53.1735 18.5126C53.3003 19.2786 53.4272 20.1084 53.8078 20.8105C54.1884 21.5765 55.013 21.8956 55.8376 21.9594C56.5987 22.0233 57.4234 21.8318 57.9942 21.1935C58.4382 20.6828 58.692 20.1084 58.7554 19.4062C58.8823 18.5765 58.8823 17.7467 58.8188 16.9807C58.8188 16.1509 58.692 15.2573 58.3748 14.4275C58.1845 13.9169 57.8039 13.5339 57.3599 13.2786C56.6622 12.8956 55.901 12.8318 55.1398 13.0233ZM63.7665 11.9382C64.2739 11.7467 64.7814 11.619 65.3522 11.5552C65.5425 12.0658 65.6694 12.5765 65.7328 13.1509C66.1134 12.9594 66.3671 12.6403 66.7477 12.4488C67.5089 11.8743 68.4604 11.5552 69.4118 11.5552C69.6021 11.5552 69.8559 11.619 70.0462 11.7467C70.3633 11.9382 70.6805 12.0658 70.9976 12.3211C71.2514 12.5765 71.4416 12.9594 71.6319 13.2786C72.076 13.0871 72.3931 12.7041 72.7737 12.4488C73.408 12.002 74.1692 11.619 75.0572 11.5552C75.8184 11.4913 76.5796 11.7467 77.1505 12.2573C77.4042 12.5126 77.6579 12.7679 77.7848 13.0871C77.9116 13.4062 77.9751 13.7254 77.9751 14.1084C78.1019 15.8956 78.0385 17.7467 78.1019 19.5339C78.1019 20.7467 78.1019 21.9594 78.1019 23.1722C77.531 23.1722 76.8967 23.1722 76.3258 23.1722C76.3258 21.385 76.3258 19.5339 76.3258 17.7467C76.3258 16.5977 76.3258 15.4488 76.2624 14.236C76.199 13.853 76.0087 13.5339 75.6915 13.2786C75.3744 13.0871 74.9304 13.0871 74.4863 13.0871C73.7886 13.1509 73.2177 13.5977 72.6468 14.0445C72.3931 14.236 72.1394 14.4913 71.8857 14.6828C71.8222 14.7467 71.8222 14.8743 71.8222 14.9382C71.8222 17.6828 71.8222 20.3637 71.8222 23.1084C71.2513 23.1084 70.617 23.1084 70.0462 23.1084V16.7254C70.0462 16.2148 70.0462 15.7041 70.0462 15.1935C70.0462 14.6828 70.0462 14.1084 69.8559 13.6616C69.4753 13.1509 68.7775 13.0233 68.2067 13.2148C67.3186 13.4062 66.5574 13.9807 65.8597 14.619C65.7328 14.6828 65.7328 14.8105 65.7328 14.9382C65.7328 17.6828 65.7328 20.4275 65.7328 23.1722C65.2254 23.1722 64.7179 23.1722 64.2105 23.1722C64.1471 20.3637 64.2105 17.5552 64.0836 14.7467C64.0836 14.1084 64.0836 13.4701 63.9568 12.8318C63.8933 12.5126 63.7665 12.1935 63.7665 11.9382ZM94.0232 11.8743C94.594 11.8105 95.1649 11.6828 95.7358 11.5552C95.7992 13.1509 95.7992 14.7467 95.7992 16.2786C95.7992 18.5765 95.7992 20.8105 95.7992 23.1084C95.2283 23.1084 94.594 23.1084 94.0232 23.1084C94.0232 19.853 94.0232 16.5977 94.0232 13.3424C94.0232 12.8956 93.9597 12.3211 94.0232 11.8743ZM116.795 11.619C118 11.8105 119.015 12.9594 119.078 14.236C119.142 16.0871 119.078 18.002 119.078 19.853V20.4275C119.078 20.8105 119.078 21.1935 119.205 21.5126C119.269 21.8956 119.649 22.0871 119.903 22.2786C119.649 22.5977 119.459 23.0445 119.142 23.2999C118.952 23.4913 118.698 23.2999 118.571 23.1722C118.127 22.853 117.873 22.4062 117.62 21.8956C117.239 22.0871 116.985 22.4701 116.541 22.6616C115.907 23.1084 115.146 23.2999 114.321 23.2999C113.623 23.2999 112.926 23.1722 112.291 22.853C111.276 22.2786 110.706 21.1296 110.769 19.9807C110.769 18.8956 111.34 17.8105 112.164 17.1722C113.179 16.4062 114.511 16.1509 115.78 16.0233C116.351 15.9594 116.922 15.9594 117.556 15.9594C117.556 15.385 117.556 14.8105 117.429 14.236C117.366 13.7892 117.112 13.2786 116.668 13.0233C116.161 12.7679 115.526 12.7041 114.955 12.8318C113.877 12.9594 112.862 13.4062 111.974 14.0445C111.72 13.7254 111.467 13.4062 111.276 13.0233C111.15 12.8318 111.34 12.7041 111.467 12.6403C112.672 12.002 113.941 11.4275 115.336 11.4275H115.907C116.224 11.5552 116.478 11.5552 116.795 11.619ZM116.034 17.2999C115.463 17.3637 114.955 17.3637 114.385 17.4913C113.75 17.6828 113.179 18.0658 112.799 18.6403C112.608 18.9594 112.608 19.3424 112.608 19.7254C112.608 20.1084 112.545 20.5552 112.735 20.9382C112.862 21.3211 113.179 21.7041 113.56 21.8318C114.004 22.0233 114.511 22.0233 115.019 22.0233C115.59 21.9594 116.097 21.6403 116.541 21.2573C116.922 20.9382 117.302 20.5552 117.302 20.0445C117.366 19.1509 117.366 18.1935 117.366 17.2999C116.922 17.3637 116.478 17.236 116.034 17.2999ZM135.317 11.6828C136.332 11.9382 137.22 12.5765 137.854 13.4062C138.362 14.1084 138.679 14.8743 138.806 15.7041C138.932 16.4701 138.996 17.2999 138.932 18.1296C138.932 19.4701 138.488 20.7467 137.727 21.7679C137.093 22.5977 136.078 23.1084 135.127 23.2999C133.921 23.4913 132.589 23.2999 131.511 22.5339C130.623 21.8956 130.052 20.8743 129.735 19.7892C129.545 19.2148 129.545 18.7041 129.481 18.1296C129.481 17.1722 129.481 16.2786 129.608 15.3211C129.862 14.2999 130.369 13.2786 131.13 12.5126C131.701 11.9382 132.462 11.619 133.224 11.4913C133.985 11.4913 134.683 11.5552 135.317 11.6828ZM133.414 13.0233C132.589 13.1509 131.892 13.7892 131.638 14.5552C131.321 15.385 131.321 16.2786 131.321 17.1084C131.321 17.9382 131.321 18.7679 131.511 19.5339C131.638 20.1084 131.765 20.619 132.145 21.0658C132.462 21.5126 133.033 21.7679 133.541 21.8318C133.731 21.8956 133.985 21.8956 134.175 21.8956H134.365H134.556C135 21.8318 135.38 21.7041 135.761 21.5126C136.205 21.2573 136.522 20.8105 136.712 20.2999C136.903 19.7254 136.966 19.0871 137.03 18.5126C137.03 17.8105 137.093 17.1084 137.03 16.3424C136.966 15.5765 136.903 14.8105 136.522 14.1722C136.205 13.6616 135.761 13.2786 135.19 13.0233C134.619 12.8956 133.985 12.8956 133.414 13.0233ZM141.977 12.002C142.548 11.8743 143.055 11.6828 143.563 11.5552C143.88 12.1296 143.88 12.7679 143.944 13.3424C144.197 13.1509 144.451 12.8956 144.705 12.6403C145.466 11.8743 146.608 11.4275 147.686 11.619V11.7467C147.432 12.2573 147.305 12.8318 147.052 13.4062C147.052 13.5339 146.861 13.4701 146.798 13.4701C146.354 13.4701 145.783 13.4701 145.402 13.7254C144.958 13.9807 144.641 14.2999 144.324 14.6828C144.007 15.0658 144.07 15.5765 144.07 16.0233C144.07 16.6616 144.007 17.2999 144.07 17.9382C144.07 19.6616 144.07 21.4488 144.07 23.1722C143.499 23.1722 142.865 23.1722 142.294 23.1722C142.294 21.2573 142.294 19.2786 142.294 17.3637C142.294 16.0233 142.294 14.7467 142.231 13.4062C142.167 12.8956 142.041 12.4488 141.977 12.002ZM99.2245 12.002C99.732 11.8105 100.303 11.619 100.81 11.619C101.001 12.1296 101.127 12.7041 101.191 13.2148C101.635 12.8956 102.079 12.5126 102.523 12.2573C103.474 11.6828 104.616 11.2999 105.631 11.6828C106.265 11.8743 106.836 12.2573 107.217 12.8318C107.534 13.2148 107.597 13.7892 107.661 14.236C107.788 16.0233 107.724 17.7467 107.724 19.5339C107.724 20.7467 107.724 21.8956 107.724 23.0445C107.153 23.0445 106.519 23.0445 105.948 23.0445C105.948 21.1296 105.885 19.1509 105.885 17.236C105.885 16.1509 105.885 15.0658 105.758 13.9807C105.568 13.4701 105.124 13.0233 104.553 13.0233C104.172 13.0233 103.728 13.0233 103.348 13.1509C102.523 13.4701 101.762 13.9807 101.064 14.5552C101.064 17.3637 101.064 20.236 101.064 23.0445C100.557 23.0445 100.049 23.0445 99.5417 23.0445C99.5417 21.4488 99.4782 19.853 99.4782 18.1935C99.4782 16.5339 99.4782 14.8743 99.3514 13.2148C99.4782 12.8956 99.3514 12.4488 99.2245 12.002Z" fill="#FF5A00"/>
</g>
<defs>
<clipPath id="clip0_17698_73206">
<rect width="147.541" height="30" fill="white" transform="translate(0.0703125 0.640625)"/>
</clipPath>
</defs>
</svg>
