<svg width="121" height="29" viewBox="0 0 121 29" fill="none" xmlns="http://www.w3.org/2000/svg">
<path d="M79.4094 21.8532C80.912 21.8843 82.3659 21.3165 83.4536 20.2739L85.4512 22.4484C84.1256 23.8159 82.2914 24.8347 79.4367 24.8347C74.5426 24.8347 71.3828 21.5739 71.3828 17.1537C71.3828 12.7718 74.7133 9.47266 78.9936 9.47266C83.8532 9.47266 86.6044 13.1899 86.3683 18.3459H74.8967C75.3035 20.4857 76.7999 21.8532 79.4149 21.8532M82.9143 15.8902C82.6092 13.891 81.4197 12.4213 79.0408 12.4213C76.8326 12.4213 75.3035 13.6829 74.8949 15.8902H82.9143Z" fill="white"/>
<path d="M4 21.6922L12.8402 12.6638H4.20702V9.83203H16.9352V12.7222L8.09504 21.7507H17.0533V24.5824H4V21.6922Z" fill="white"/>
<path d="M26.9798 21.8532C28.4823 21.8843 29.9362 21.3165 31.0239 20.2739L33.0215 22.4484C31.6959 23.8159 29.8617 24.8347 27.007 24.8347C22.1129 24.8347 18.9531 21.5739 18.9531 17.1537C18.9531 12.7718 22.2836 9.47266 26.5639 9.47266C31.4235 9.47266 34.1747 13.1899 33.9386 18.3459H22.4616C22.8684 20.4857 24.3647 21.8532 26.9798 21.8532ZM30.4792 15.8921C30.1741 13.8928 28.9846 12.4231 26.6057 12.4231C24.3974 12.4231 22.8684 13.6847 22.4598 15.8921H30.4792Z" fill="white"/>
<path d="M53.0312 17.1625C53.0312 12.4411 56.5379 9.49426 60.3969 9.49426C62.3418 9.49426 64.1995 10.3505 65.2891 11.7089V3H68.4144V24.5441H65.2891V22.5029C64.1705 23.9489 62.3127 24.8344 60.3678 24.8344C56.6269 24.8344 53.0312 21.8547 53.0312 17.1661M65.4671 17.1369C65.4671 14.5115 63.4931 12.3571 60.8109 12.3571C58.1868 12.3534 56.162 14.4476 56.162 17.1315C56.162 19.8153 58.1941 21.9405 60.8182 21.9405C63.5004 21.9405 65.4743 19.7861 65.4743 17.1315" fill="white"/>
<path d="M88.4099 21.4114L91.2374 19.9362C91.6116 20.6062 92.1607 21.1607 92.8254 21.5401C93.4901 21.9194 94.2451 22.1091 95.0092 22.0888C96.7779 22.0888 97.6914 21.1759 97.6914 20.1425C97.6914 18.9631 95.9825 18.6965 94.1266 18.3167C91.6224 17.7818 89.0309 16.9547 89.0309 13.9166C89.0309 11.5851 91.241 9.43072 94.7186 9.46176C97.4589 9.46176 99.4928 10.5572 100.642 12.3227L98.0201 13.7687C97.3427 12.7354 96.1932 12.0872 94.7204 12.0872C93.0406 12.0872 92.178 12.9143 92.178 13.8582C92.178 14.9208 93.5328 15.2148 95.6556 15.684C98.0709 16.2153 100.811 17.0113 100.811 20.0804C100.811 22.1162 99.0443 24.8603 94.8584 24.8274C91.7949 24.8274 89.6429 23.5877 88.4062 21.4041" fill="white"/>
<path d="M109.302 17.9877L106.827 20.7027V24.5386H103.703V3H106.827V17.1022L113.457 9.78456H117.258L111.512 16.0999L117.405 24.5386H113.869L109.302 17.9877Z" fill="white"/>
<path d="M43.5961 9.4873C39.8824 9.4873 36.7734 11.9064 36.7734 15.9195V24.5371H39.9569V16.3212C39.9569 13.902 41.3406 12.4542 43.6978 12.4542C46.0549 12.4542 47.2353 13.902 47.2353 16.3212V24.5371H50.4187V15.9195C50.4187 11.9028 47.3098 9.4873 43.5961 9.4873Z" fill="white"/>
</svg>
