<svg xmlns="http://www.w3.org/2000/svg" width="1280" height="485" fill="none" viewBox="0 0 1280 485"><path fill="#E5E7E0" d="M0 377.5C0 377.5 62.9238 392.336 104 396.5C196.765 405.905 248.76 377.812 342 377.5C413.182 377.262 453.356 396.244 524 387.5C589.484 379.395 623.422 360.424 686 339.5C884.69 273.066 1017.06 254.407 1173 114.5C1218.45 73.725 1281 0.5 1281 0.5V407C1281 407 1106.17 473.762 985 483C857.7 492.706 790.61 450.412 663 446.5C579.301 443.934 532.727 461.379 449 460C348.012 458.337 293.002 431.177 192 431C116.776 430.868 0 446.5 0 446.5V377.5Z"/></svg>