<svg fill="none" xmlns="http://www.w3.org/2000/svg" viewBox="0 0 50 80"><g clip-path="url(#a)" fill-rule="evenodd" clip-rule="evenodd" fill="#80A5FC"><path d="M.98.305v2.728h6.89v22.561H.98v2.843h17.407v-2.843h-7.143V.305H.98ZM39.31 0c5.92 0 9.716 3.949 9.716 12.792 0 14.203-7.327 15.653-13.554 15.746l-.388.004-.193.001h-4.568v-2.846h4.72c4.212 0 10.528-.586 10.528-11.122h-.151c-1.215 2.125-3.567 3.379-6.72 3.379-3.91 0-8.616-2.468-8.616-8.768C30.084 3.91 33.882 0 39.309 0Zm-.078 2.885c-2.81 0-5.656 1.86-5.656 6.225 0 3.91 2.621 6.034 5.733 6.034 3.378 0 5.882-2.125 5.882-6.034 0-4.137-2.96-6.225-5.959-6.225ZM9.665 50.839c5.649 0 8.908 3.335 8.908 7.542 0 3.45-2.236 5.876-4.587 6.633v.077c2.427.568 5.382 2.69 5.382 6.936 0 4.51-3.373 7.845-9.703 7.921C3.336 80.024 0 76.612 0 72.027c0-4.246 3.033-6.368 5.383-6.936v-.077c-2.35-.757-4.586-3.221-4.586-6.633 0-4.207 3.221-7.542 8.868-7.542Zm0 15.654c-3.183 0-6.14 1.668-6.14 5.382 0 3.714 2.92 5.344 6.14 5.344 3.374 0 6.217-1.63 6.217-5.344 0-3.715-2.88-5.382-6.217-5.382Zm0-12.925c-2.842 0-5.344 1.63-5.344 5.117 0 3.411 2.54 5.116 5.344 5.116 2.768 0 5.345-1.705 5.345-5.116 0-3.487-2.54-5.117-5.345-5.117ZM45.355 69.546V57.47h-3.263v12.12h-8.754V51.214h-3.264v21.219h12.018v6.907h3.263v-6.907h3.68v-2.886h-3.68Z"/></g><defs><clipPath id="a"><path fill="#fff" d="M0 0h50v80H0z"/></clipPath></defs></svg>