<svg fill="none" xmlns="http://www.w3.org/2000/svg" viewBox="0 0 130 81"><path d="M40.317 80.537C18.048 80.537 0 62.513 0 40.27 0 18.024 18.048 0 40.317 0c2.911 0 5.725.315 8.466.898l9 17.878a31.101 31.101 0 0 0-16.374-5.264c-.364-.024-.752-.024-1.116-.024-14.822.024-26.805 12.08-26.805 26.854 0 14.797 12.007 26.878 26.854 26.878 12.541 0 23.045-9.194 26.004-20.013H37.722V33.282H65.23l11.813 23.555c-6.38 13.924-20.425 23.7-36.727 23.7ZM90.072 80.32l-7.836-15.526L114.257.849h15.744l-39.93 79.47Z" fill="#fff"/></svg>