<svg xmlns="http://www.w3.org/2000/svg" width="167" height="22" fill="none" viewBox="0 0 167 22"><path fill="#002FA7" d="M39.1389 13.6167V1.27703H42.8193V21.1165H40.5236V21.1534L30.2477 7.77935V21.1534H26.5673V1.31397H29.5553L39.1389 13.6167ZM64.7195 1.35092H68.3633V12.693C68.3633 15.5378 67.5981 17.7176 66.0313 19.2693C64.5007 20.784 62.4237 21.5599 59.8729 21.5599C57.3951 21.5599 55.3181 20.784 53.6782 19.2693C52.0385 17.7544 51.2003 15.5378 51.2003 12.693V1.35092H54.8443V12.693C54.8443 14.4664 55.3181 15.7964 56.2291 16.757C57.14 17.7176 58.3789 18.1609 59.9095 18.1609C61.4034 18.1609 62.6059 17.6806 63.444 16.72C64.2822 15.7595 64.683 14.4294 64.683 12.693V1.35092H64.7195ZM92.0126 4.56514L89.0975 6.07988C88.7331 5.48876 88.15 4.97154 87.2755 4.52819C86.4373 4.08485 85.4899 3.86318 84.4696 3.86318C83.1578 3.86318 82.1376 4.1218 81.4451 4.60207C80.7528 5.08236 80.4248 5.71043 80.4248 6.48628C80.4248 7.04046 80.6435 7.4838 81.0807 7.8163C81.518 8.1488 82.0281 8.40741 82.5748 8.5552C83.1578 8.70298 83.8866 8.85075 84.7976 8.96159C85.7085 9.07243 86.5103 9.2202 87.2026 9.36799C87.895 9.51577 88.5873 9.73744 89.3161 10.0699C90.045 10.3655 90.628 10.735 91.1017 11.1783C91.5754 11.5847 91.9398 12.1758 92.2313 12.8778C92.5228 13.5797 92.6685 14.3926 92.6685 15.3162C92.6685 16.72 92.2677 17.9392 91.5025 18.8998C90.7373 19.8604 89.7169 20.5623 88.5144 21.0056C87.3119 21.4121 85.9636 21.6337 84.4696 21.6337C80.0969 21.6337 77.2547 20.0082 75.9428 16.757L79.0037 15.1314C79.4046 16.1659 80.1333 16.9417 81.1172 17.4959C82.1011 18.0131 83.2307 18.2717 84.5061 18.2717C85.7814 18.2717 86.8747 18.0131 87.7128 17.5328C88.5509 17.0525 88.9881 16.3137 88.9881 15.2792C88.9881 13.6536 87.4941 12.693 84.4696 12.3605C83.34 12.2128 82.3562 12.065 81.5544 11.8433C80.7528 11.6216 79.9511 11.2891 79.1495 10.8827C78.3843 10.4394 77.7648 9.84828 77.364 9.10938C76.9632 8.37047 76.7809 7.44685 76.7809 6.37544C76.7809 5.08236 77.1817 4.01096 77.947 3.08733C78.7122 2.1637 79.6596 1.53564 80.7528 1.16619C81.8459 0.796742 83.0485 0.612018 84.3239 0.575073C88.1865 0.648963 90.7373 1.94204 92.0126 4.56514ZM113.986 1.35092H117.63V12.693C117.63 15.5378 116.864 17.7176 115.298 19.2693C113.767 20.784 111.69 21.5599 109.139 21.5599C106.661 21.5599 104.584 20.784 102.945 19.2693C101.305 17.7544 100.467 15.5378 100.467 12.693V1.35092H104.111V12.693C104.111 14.4664 104.584 15.7964 105.495 16.757C106.406 17.7176 107.645 18.1609 109.176 18.1609C110.67 18.1609 111.872 17.6806 112.71 16.72C113.548 15.7595 113.949 14.4294 113.949 12.693V1.35092H113.986ZM128.234 21.1165H124.225L133.007 1.31397H137.015L145.797 21.1165H141.789L135.048 5.48876L128.234 21.1165ZM152.211 1.31397H155.892V17.6806H165.948V21.1165H152.211V1.31397ZM13.9956 1.35092H17.6396V12.693C17.6396 15.5378 16.8744 17.7176 15.3074 19.2693C13.777 20.784 11.6999 21.5599 9.14917 21.5599C6.67128 21.5599 4.59422 20.784 2.95445 19.2693C1.31467 17.7544 0.476562 15.5378 0.476562 12.693V1.35092H4.12051V12.693C4.12051 14.4664 4.59422 15.7964 5.50521 16.757C6.41621 17.7176 7.65514 18.1609 9.18561 18.1609C10.6796 18.1609 11.8821 17.6806 12.7202 16.72C13.5583 15.7595 13.9592 14.4294 13.9592 12.693V1.35092H13.9956Z"/></svg>