<svg fill="none" xmlns="http://www.w3.org/2000/svg" viewBox="0 0 81 81"><g clip-path="url(#a)"><path d="M81 0H0v81h81V0Z" fill="#FB651E"/><path d="M37.77 45.798 23.867 19.754h6.354L38.4 36.236c.126.294.273.598.44.912.169.315.315.64.441.975.084.126.147.242.189.346.042.105.084.2.126.284.21.419.398.828.566 1.226.168.399.314.766.44 1.101.336-.713.703-1.478 1.101-2.296.399-.818.808-1.667 1.227-2.548l8.304-16.482h5.914l-14.03 26.36V62.91H37.77V45.799Z" fill="#fff"/></g><defs><clipPath id="a"><path fill="#fff" d="M0 0h81v81H0z"/></clipPath></defs></svg>