<svg xmlns="http://www.w3.org/2000/svg" width="30" height="22" fill="none" viewBox="0 0 30 22"><path fill="#D3986C" d="M3.86983 13.5977H5.53168V12.0904C5.53168 11.258 4.85688 10.5831 4.02437 10.5831H3.86973C3.03733 10.5831 2.36243 11.258 2.36243 12.0904C2.36253 12.9229 3.03743 13.5977 3.86983 13.5977Z"/><path fill="#D3986C" d="M9.6618 18.3555H7.35327V21.5792H9.6618V18.3555Z"/><path fill="#EDB17E" d="M13.5865 18.3555H11.278V21.5792H13.5865V18.3555Z"/><path fill="#D3986C" d="M19.0357 18.3555H16.7272V21.5792H19.0357V18.3555Z"/><path fill="#EDB17E" d="M22.96 17.8399H20.6515V21.5792H22.96V17.8399Z"/><path fill="#BC7D51" d="M28.359 12.4375L29.6054 11.6068L28.7858 10.1936L29.6051 8.52857L28.015 7.42923L28.6599 5.57316L26.9108 4.9181L26.7713 3.03835L24.8192 3.08029L24.0151 1.15466L22.1267 2.0072L21.1297 0.458639L19.5934 1.83391L18.1903 0.395086L16.9217 2.08091L14.8699 0.835515L13.7966 2.73855L11.3939 2.09059L10.9088 4.32678L8.50786 4.15556L8.76128 6.64735H6.29071L6.74752 9.11318L4.3033 9.31272L4.94495 11.3545L0.617431 16.7353C0.0945014 17.3855 0.551609 18.3524 1.38599 18.3608L20.3416 18.5528C22.1426 18.571 23.8139 18.0168 25.1875 17.0628L25.1896 17.0638L27.1124 16.957L27.3364 14.8996L29.1673 14.2983L28.359 12.4375Z"/><path fill="#A3663D" d="M25.7261 3.19196L26.8124 3.59884L26.7709 3.03821L25.7163 3.06081L25.7261 3.19196Z"/><path fill="#A3663D" d="M27.081 4.98181L26.9042 5.49052C26.8606 5.61615 26.9061 5.75559 27.0155 5.83119L28.2687 6.69764L28.6595 5.57302L27.081 4.98181Z"/><path fill="#A3663D" d="M23.6347 1.35425L24.094 1.34428L24.0147 1.15451L23.6248 1.33047L23.6347 1.35425Z"/><path fill="#A3663D" d="M29.6053 11.6067L28.7856 10.1934L29.605 8.52842L28.0877 7.4794L27.6715 8.32533C27.6278 8.41414 27.6313 8.51895 27.681 8.6046L28.2816 9.6401C28.3601 9.7754 28.3198 9.94829 28.1897 10.035L27.3807 10.5742C27.2614 10.6536 27.2161 10.807 27.2733 10.9384L27.8535 12.2744C27.9229 12.4343 27.8398 12.6192 27.6742 12.6736L26.3332 13.114C26.2229 13.1502 26.1438 13.2477 26.1313 13.3633L25.9552 14.9813C25.9395 15.1253 25.8219 15.2368 25.6773 15.2449L24.0849 15.3322C24.0314 15.3352 23.98 15.353 23.9357 15.3831C22.575 16.3085 20.9289 16.8446 19.1573 16.8266L0.693967 16.6396L0.617289 16.7349C0.0943589 17.3852 0.551565 18.3521 1.38594 18.3605L20.3416 18.5524C22.1426 18.5707 23.8139 18.0164 25.1875 17.0625L25.1896 17.0635L27.1123 16.9567L27.3363 14.8993L29.1672 14.2979L28.3591 12.437L29.6053 11.6067Z"/><path fill="#E59D6C" d="M1.56698 18.3625L5.73413 13.1812L5.09249 11.1393L7.21006 10.9664C7.38483 10.9521 7.50898 10.7899 7.4771 10.6175L7.14483 8.82399C7.11108 8.64201 7.25082 8.47405 7.43595 8.47405H9.22283C9.3982 8.47405 9.53507 8.32247 9.51741 8.148L9.33277 6.3326C9.31421 6.14973 9.465 5.99431 9.64836 6.00733L11.4421 6.13523C11.589 6.14569 11.7212 6.04661 11.7524 5.90273L12.1172 4.22144C12.1531 4.05604 12.3201 3.9543 12.4836 3.99841L14.3638 4.50545C14.4945 4.54068 14.6323 4.48285 14.6987 4.36502L15.5089 2.92847C15.591 2.78281 15.7775 2.73406 15.9205 2.82081L17.4819 3.76857C17.612 3.84752 17.7807 3.81505 17.8721 3.69347L18.772 2.49752C18.8812 2.35255 19.0939 2.33893 19.2206 2.4688L20.3827 3.66051L21.6604 2.51666C21.7961 2.39518 22.0082 2.4239 22.1068 2.57696L22.7778 3.61916C22.8571 3.74242 23.0148 3.7891 23.1485 3.7287L24.7818 2.99133L24.0147 1.15442L22.1263 2.00696L21.1293 0.458396L19.593 1.83366L18.1899 0.394842L16.9213 2.08067L14.8695 0.835273L13.7962 2.73831L11.3935 2.09034L10.9084 4.32654L8.50747 4.15532L8.76089 6.6471H6.29032L6.74713 9.11294L4.30281 9.31248L4.94446 11.3543L0.616943 16.7349C0.0940131 17.3852 0.55112 18.3521 1.3855 18.3606L1.56698 18.3625Z"/><path fill="#E59D6C" d="M25.8103 4.90266L26.9075 4.87907L26.771 3.03821L24.8453 3.07956L25.5307 4.72068C25.5776 4.83309 25.6885 4.90522 25.8103 4.90266Z"/><path fill="#EDB17E" d="M10.1634 13.4399H8.50159V11.9326C8.50159 11.1002 9.17639 10.4254 10.0089 10.4254H10.1635C10.9959 10.4254 11.6707 11.1002 11.6707 11.9326C11.6707 12.7651 10.9959 13.4399 10.1634 13.4399Z"/><path fill="#EDB17E" d="M4.94446 11.3544L0.616943 16.7351C0.0940132 17.3854 0.55112 18.3523 1.3855 18.3607L9.69297 18.4447C11.2957 13.1647 7.65927 11.3544 4.94446 11.3544Z"/><path fill="#FFC9A1" d="M2.19027 17.3133L6.51779 11.9326C6.94213 11.9326 7.38898 11.9769 7.83483 12.0717C6.93078 11.5708 5.88265 11.3544 4.94446 11.3544L0.616943 16.7351C0.0940131 17.3854 0.55112 18.3523 1.3855 18.3607L2.06593 18.3676C1.91238 18.0434 1.92866 17.6387 2.19027 17.3133Z"/><path fill="#402943" d="M29.9466 11.4086L29.2329 10.1781L29.9589 8.70271C30.0453 8.52725 29.9901 8.31497 29.8293 8.20376L28.4861 7.27504L29.0325 5.7025C29.1028 5.5 28.9987 5.27845 28.7981 5.20325L27.2855 4.6367L27.1646 3.0088C27.1491 2.79949 26.9748 2.63903 26.7624 2.64337L25.0795 2.67959L24.3789 1.00215C24.3378 0.903762 24.2586 0.826196 24.1593 0.787019C24.0603 0.74794 23.9494 0.750603 23.8522 0.794518L22.274 1.50702L21.4612 0.244548C21.3986 0.147443 21.2967 0.0825079 21.1822 0.0671131C21.0668 0.0514223 20.9521 0.0871463 20.866 0.16412L19.6115 1.28715L18.4724 0.119121C18.392 0.0366204 18.2783 -0.00650528 18.1647 0.000797385C18.0498 0.00810005 17.9438 0.065337 17.8745 0.157311L16.8207 1.55765L15.0743 0.497675C14.9829 0.442214 14.8733 0.426129 14.7696 0.453267C14.6662 0.480307 14.5782 0.548103 14.5256 0.641261L13.6029 2.27725L11.4961 1.70913C11.3918 1.681 11.2805 1.69689 11.1881 1.75314C11.0958 1.80929 11.0305 1.90097 11.0076 2.00656L10.595 3.90831L8.53539 3.76147C8.41963 3.75308 8.30516 3.7967 8.22404 3.88029C8.14292 3.96397 8.10285 4.07923 8.1147 4.19509L8.32391 6.25217H6.29031C6.17308 6.25217 6.06186 6.30428 5.98686 6.39447C5.91186 6.48467 5.88087 6.60349 5.90229 6.71885L6.27936 8.75491L4.27073 8.91893C4.15103 8.9287 4.04238 8.99235 3.97537 9.09192C3.90836 9.19149 3.8903 9.31613 3.92623 9.4307L4.16662 10.1956C4.11935 10.1922 4.07228 10.1882 4.02442 10.1882H3.86988C2.82116 10.1882 1.96793 11.0414 1.96793 12.0902C1.96793 12.6711 2.22697 13.2044 2.66326 13.5608L0.309336 16.4875C-0.00704737 16.8809 -0.0853044 17.4004 0.0956832 17.865C0.107723 17.896 0.120947 17.9267 0.135354 17.9572C0.365586 18.4441 0.84312 18.7499 1.38164 18.7553L6.95851 18.8118V21.5791C6.95851 21.7971 7.13525 21.9738 7.35325 21.9738H9.66177C9.87977 21.9738 10.0565 21.7971 10.0565 21.5791V18.8431L10.8831 18.8515V21.5791C10.8831 21.7971 11.0598 21.9738 11.2778 21.9738H13.5865C13.8045 21.9738 13.9812 21.7971 13.9812 21.5791V18.8828L16.3326 18.9066V21.579C16.3326 21.797 16.5093 21.9737 16.7273 21.9737H19.0358C19.2538 21.9737 19.4306 21.797 19.4306 21.579V18.9382L20.2571 18.9466V21.5793C20.2571 21.7973 20.4339 21.974 20.6519 21.974H22.9604C23.1784 21.974 23.3552 21.7973 23.3552 21.5793V18.4443C24.043 18.1994 24.7017 17.8679 25.3176 17.452L27.1341 17.3511C27.3269 17.3405 27.4837 17.1918 27.5046 16.9997L27.701 15.1953L29.2902 14.6733C29.3957 14.6387 29.4817 14.5612 29.5272 14.4599C29.5727 14.3586 29.5734 14.2429 29.5292 14.141L28.8525 12.5828L29.8243 11.9352C29.9976 11.8196 30.0513 11.589 29.9466 11.4086ZM9.26694 21.1844H7.74789V18.8395H9.26694V21.1844ZM8.50184 13.8346H9.13371C9.77674 14.9188 9.86635 16.3333 9.397 18.0471L3.20316 17.9844C3.58744 16.6403 2.69997 15.9595 1.93625 15.7246L5.13126 11.7522C6.24285 11.787 7.312 12.1327 8.1071 12.7137V13.44C8.1071 13.6579 8.28384 13.8346 8.50184 13.8346ZM8.89657 13.0451V11.9327C8.89657 11.3192 9.39572 10.8202 10.009 10.8202H10.1636C10.777 10.8202 11.2761 11.3192 11.2761 11.9327C11.2761 12.5461 10.7769 13.0451 10.1636 13.0451H8.89657ZM2.75731 12.0904C2.75731 11.4769 3.25645 10.9779 3.86978 10.9779H4.02432C4.1679 10.9779 4.30646 11.006 4.43771 11.0586L4.50461 11.2714L3.15925 12.9441C2.9078 12.7357 2.75731 12.4275 2.75731 12.0904ZM13.1916 21.1844H11.6725V18.8596L13.1916 18.875V21.1844ZM18.641 21.1844H17.1219V18.9148L18.641 18.9302V21.1844ZM22.5655 21.1844H21.0464V18.9256C21.562 18.8896 22.0696 18.8077 22.5655 18.683V21.1844ZM28.444 10.3915L29.0776 11.4838L28.1398 12.1088C27.9808 12.2147 27.9204 12.4193 27.9966 12.5945L28.6322 14.0583L27.2127 14.5246C27.0656 14.573 26.9602 14.7029 26.9434 14.8569L26.7557 16.5814L25.1943 16.668C25.1146 16.6665 25.0313 16.6903 24.9619 16.7385C23.6006 17.6839 22.0042 18.1746 20.3452 18.1579L10.2097 18.0552C10.6266 16.4099 10.5655 14.9945 10.0263 13.8346H10.1636C11.2123 13.8346 12.0655 12.9814 12.0655 11.9327C12.0655 10.8838 11.2123 10.0307 10.1636 10.0307H10.009C9.01253 10.0307 8.19394 10.8016 8.11489 11.7781C7.28426 11.2983 6.27551 11.012 5.23636 10.9666L4.82751 9.66577L6.7791 9.50649C6.89041 9.49741 6.99265 9.44156 7.06055 9.35294C7.12844 9.26422 7.15558 9.15093 7.13515 9.0412L6.76489 7.04204H8.76088C8.8725 7.04204 8.97898 6.99477 9.05378 6.91198C9.12868 6.82918 9.1649 6.71846 9.15365 6.60744L8.94769 4.58272L10.8803 4.72049C11.0745 4.73411 11.2525 4.60236 11.2941 4.41042L11.6913 2.57972L13.6935 3.11963C13.8675 3.1667 14.0515 3.08953 14.1401 2.93242L15.0131 1.38445L16.7165 2.41837C16.8899 2.52367 17.1148 2.48035 17.2367 2.31831L18.2286 1.00028L19.3104 2.10959C19.4579 2.26097 19.6988 2.26916 19.8563 2.12814L21.0479 1.06136L21.7944 2.22081C21.9001 2.38521 22.1105 2.44748 22.2887 2.36686L23.8069 1.6815L24.4546 3.23242C24.5173 3.38232 24.6646 3.47706 24.8273 3.47499L26.4049 3.44104L26.5167 4.94727C26.5282 5.10082 26.6277 5.23375 26.7719 5.28773L28.1601 5.8077L27.6417 7.29971C27.5835 7.46727 27.6442 7.6531 27.7901 7.75395L29.1002 8.65978L28.4312 10.0194C28.3731 10.1376 28.3778 10.2773 28.444 10.3915Z"/><path fill="#402943" d="M6.07272 15.7579C6.29072 15.7579 6.46746 15.5811 6.46746 15.3631C6.46746 15.1451 6.29072 14.9684 6.07272 14.9684C5.85471 14.9684 5.67798 15.1451 5.67798 15.3631C5.67798 15.5811 5.85471 15.7579 6.07272 15.7579Z"/></svg>