<svg width="0" height="0" class="hidden"><symbol xmlns="http://www.w3.org/2000/svg" id="event-pipelines" fill="none" viewBox="0 0 32 31"><path fill="#000" d="M31.0198 20.8178C31.0299 20.8027 31.0374 20.7863 31.0449 20.77C31.0563 20.7499 31.0688 20.7285 31.0789 20.7071C31.0877 20.6857 31.0927 20.6644 31.099 20.643C31.104 20.6241 31.1116 20.6065 31.1153 20.5877C31.1317 20.5047 31.1317 20.4192 31.1153 20.3362C31.1116 20.3174 31.104 20.2998 31.099 20.2809C31.0927 20.2595 31.0877 20.2369 31.0789 20.2168C31.0701 20.1954 31.0575 20.174 31.0449 20.1539C31.0361 20.1376 31.0286 20.1212 31.0198 20.1061C30.9959 20.0709 30.9695 20.037 30.9393 20.0068L29.2496 18.3171C28.9981 18.0656 28.5908 18.0656 28.3393 18.3171C28.0879 18.5685 28.0879 18.9759 28.3393 19.2273L28.9302 19.8182H24.8616L16.1689 13.3785V9.79782H24.6955C25.5832 9.79782 26.3048 9.07615 26.3048 8.18853V2.00919C26.3048 1.12157 25.5832 0.399902 24.6955 0.399902H6.35352C5.4659 0.399902 4.74423 1.12157 4.74423 2.00919V8.18725C4.74423 9.07487 5.4659 9.79653 6.35352 9.79653H14.8802L14.8814 13.3785L6.1887 19.8169H3.20649C2.85068 19.8169 2.56277 20.1048 2.56277 20.4606V27.8721L1.97188 27.2824C1.72042 27.031 1.31306 27.031 1.06163 27.2824C0.810194 27.5339 0.810178 27.9412 1.06163 28.1927L2.75138 29.8812C2.87711 30.0069 3.04181 30.0697 3.20652 30.0697C3.37124 30.0697 3.53591 30.0069 3.66166 29.8812L5.35141 28.1927C5.60287 27.9412 5.60287 27.5338 5.35141 27.2824C5.09996 27.031 4.6926 27.031 4.44117 27.2824L3.85027 27.8733V21.1043H6.19001L15.1415 27.7362C15.2559 27.8204 15.3892 27.8632 15.525 27.8632C15.6595 27.8632 15.794 27.8204 15.9084 27.7362L24.86 21.1043H28.9298L28.3389 21.6952C28.0875 21.9467 28.0875 22.354 28.3389 22.6055C28.4647 22.7312 28.6294 22.7941 28.7941 22.7941C28.9588 22.7941 29.1235 22.7312 29.2492 22.6055L30.939 20.9157C30.9692 20.8868 30.9956 20.8529 31.0194 20.8176L31.0198 20.8178ZM6.03172 8.18871V2.00936C6.03172 1.8346 6.17882 1.68751 6.35358 1.68751H24.6956C24.8704 1.68751 25.0175 1.8346 25.0175 2.00936V8.18742C25.0175 8.36218 24.8704 8.50928 24.6956 8.50928H6.35358C6.18008 8.51054 6.03172 8.36218 6.03172 8.18868V8.18871ZM15.5252 26.4178L7.48395 20.4595L15.5252 14.5039L23.5665 20.4595L15.5252 26.4178Z" opacity=".5"/><path fill="#000" d="M15.525 26.4177L7.48373 20.4595L15.525 14.5038L23.5663 20.4595L15.525 26.4177Z"/></symbol><symbol xmlns="http://www.w3.org/2000/svg" id="data-warehouse" fill="none" viewBox="0 0 24 24"><path fill="#000" d="M0 24.0002H24V17.1431H0V24.0002ZM3.42857 18.8574C4.37544 18.8574 5.14286 19.6248 5.14286 20.5716C5.14286 21.5185 4.37544 22.2859 3.42857 22.2859C2.4817 22.2859 1.71429 21.5185 1.71429 20.5716C1.71429 19.6248 2.4817 18.8574 3.42857 18.8574Z" opacity=".5"/><path fill="#000" d="M0 15.4284H24V8.57129H0V15.4284ZM3.42857 10.2856C4.37544 10.2856 5.14286 11.053 5.14286 11.9999C5.14286 12.9467 4.37544 13.7141 3.42857 13.7141C2.4817 13.7141 1.71429 12.9467 1.71429 11.9999C1.71429 11.053 2.4817 10.2856 3.42857 10.2856Z" opacity=".75"/><path fill="#000" d="M0 0V6.85714H24V0H0ZM3.42857 5.14286C2.4817 5.14286 1.71429 4.37544 1.71429 3.42857C1.71429 2.4817 2.4817 1.71429 3.42857 1.71429C4.37544 1.71429 5.14286 2.4817 5.14286 3.42857C5.14286 4.37544 4.37544 5.14286 3.42857 5.14286Z"/></symbol><symbol xmlns="http://www.w3.org/2000/svg" id="analytics" fill="none" viewBox="0 0 22 23"><path fill="#000" d="M5.83903 20.0215C5.83903 21.496 4.64399 22.6911 3.16952 22.6911C1.69504 22.6911 0.5 21.496 0.5 20.0215V13.3477C0.5 11.8733 1.69504 10.6782 3.16952 10.6782C4.64399 10.6782 5.83903 11.8733 5.83903 13.3477V20.0215Z" opacity=".5"/><path fill="#000" d="M13.8488 20.0214C13.8488 21.4959 12.6538 22.6909 11.1793 22.6909C9.7048 22.6909 8.50977 21.4959 8.50977 20.0214V2.66952C8.50977 1.19504 9.7048 0 11.1793 0C12.6538 0 13.8488 1.19504 13.8488 2.66952V20.0214Z"/><path fill="#000" d="M21.8566 20.0214C21.8566 21.4959 20.6616 22.6909 19.1871 22.6909C17.7126 22.6909 16.5176 21.4959 16.5176 20.0214V9.34335C16.5176 7.86887 17.7126 6.67383 19.1871 6.67383C20.6616 6.67383 21.8566 7.86887 21.8566 9.34335V20.0214Z" opacity=".75"/></symbol><symbol xmlns="http://www.w3.org/2000/svg" id="feature-flags" fill="none" viewBox="0 0 24 24"><path fill="currentColor" d="M5.87513 10.8H19.1229C21.7629 10.8 23.8984 8.64002 23.8984 6.0245C23.8984 3.3845 21.7384 1.24898 19.1229 1.24898L5.87513 1.24805C3.23513 1.24805 1.09961 3.40805 1.09961 6.02357C1.09961 8.64005 3.25961 10.8 5.87513 10.8V10.8ZM19.1238 3.33554C20.6117 3.33554 21.8116 4.55993 21.8116 6.0233C21.8116 7.48769 20.5872 8.71106 19.1238 8.71106C17.636 8.71106 16.4361 7.48668 16.4361 6.0233C16.4352 4.55986 17.6352 3.33554 19.1238 3.33554Z"/><path fill="currentColor" d="M19.1238 13.2002H5.87513C3.23513 13.2002 1.09961 15.3602 1.09961 17.9757C1.09961 20.6157 3.25961 22.7512 5.87513 22.7512H19.1229C21.7629 22.7512 23.8984 20.5912 23.8984 17.9757C23.8993 15.3602 21.7393 13.2002 19.1236 13.2002H19.1238ZM5.87513 20.6647C4.38732 20.6647 3.18737 19.4403 3.18737 17.9769C3.18737 16.4891 4.41175 15.2892 5.87513 15.2892C7.36294 15.2892 8.56289 16.5135 8.56289 17.9769C8.56383 19.4647 7.36383 20.6647 5.87513 20.6647Z" opacity=".5"/></symbol><symbol xmlns="http://www.w3.org/2000/svg" id="heatmaps" fill="none" viewBox="0 0 24 23"><path fill="currentColor" d="M17.6733 12.3008C19.5246 12.3008 21.0254 10.8 21.0254 8.94875C21.0254 7.09745 19.5246 5.59668 17.6733 5.59668C15.8221 5.59668 14.3213 7.09745 14.3213 8.94875C14.3213 10.8 15.8221 12.3008 17.6733 12.3008Z"/><path fill="currentColor" d="M10.5817 19.2626C13.0739 19.2626 15.0941 17.2423 15.0941 14.7502C15.0941 12.2581 13.0739 10.2378 10.5817 10.2378C8.0896 10.2378 6.06934 12.2581 6.06934 14.7502C6.06934 17.2423 8.0896 19.2626 10.5817 19.2626Z"/><path fill="currentColor" d="M5.16638 11.0115C6.51925 11.0115 7.61597 9.91476 7.61597 8.56189C7.61597 7.20902 6.51925 6.1123 5.16638 6.1123C3.81351 6.1123 2.7168 7.20902 2.7168 8.56189C2.7168 9.91476 3.81351 11.0115 5.16638 11.0115Z"/><path fill="currentColor" d="M18.5754 19.0049C19.5011 19.0049 20.2515 18.2545 20.2515 17.3289C20.2515 16.4032 19.5011 15.6528 18.5754 15.6528C17.6498 15.6528 16.8994 16.4032 16.8994 17.3289C16.8994 18.2545 17.6498 19.0049 18.5754 19.0049Z"/><path fill="currentColor" d="M4.90924 1.98694C5.12285 1.98694 5.29601 1.81377 5.29601 1.60016C5.29601 1.38655 5.12285 1.21338 4.90924 1.21338C4.69563 1.21338 4.52246 1.38655 4.52246 1.60016C4.52246 1.81377 4.69563 1.98694 4.90924 1.98694Z"/><path fill="currentColor" d="M2.33013 1.98694C2.54375 1.98694 2.71691 1.81377 2.71691 1.60016C2.71691 1.38655 2.54375 1.21338 2.33013 1.21338C2.11652 1.21338 1.94336 1.38655 1.94336 1.60016C1.94336 1.81377 2.11652 1.98694 2.33013 1.98694Z"/><path fill="currentColor" d="M3.62018 1.98694C3.83379 1.98694 4.00696 1.81377 4.00696 1.60016C4.00696 1.38655 3.83379 1.21338 3.62018 1.21338C3.40657 1.21338 3.2334 1.38655 3.2334 1.60016C3.2334 1.81377 3.40657 1.98694 3.62018 1.98694Z"/><path fill="currentColor" d="M0.783203 3.01814H23.2542V2.50244H0.783203V3.01814Z"/><path fill="currentColor" d="M1.17 0.697343V21.8411H22.8295V0.697343H1.17ZM1.17 0.181641H22.8295C22.9663 0.181641 23.0974 0.235973 23.1942 0.332686C23.2909 0.429399 23.3452 0.56057 23.3452 0.697343V21.8411C23.3452 21.9779 23.2909 22.1091 23.1942 22.2058C23.0974 22.3025 22.9663 22.3568 22.8295 22.3568H1.17C1.03323 22.3568 0.902056 22.3025 0.805343 22.2058C0.70863 22.1091 0.654297 21.9779 0.654297 21.8411V0.697343C0.654297 0.56057 0.70863 0.429399 0.805343 0.332686C0.902056 0.235973 1.03323 0.181641 1.17 0.181641V0.181641Z"/></symbol><symbol xmlns="http://www.w3.org/2000/svg" id="session-recording" fill="none" viewBox="0 0 21 21"><path fill="#000" d="M.104 7.53V1.142c0-.251.204-.455.455-.455h6.388a.456.456 0 0 1 0 .911H1.015v5.93a.456.456 0 0 1-.911.002ZM19.72.687h-6.387a.456.456 0 0 0 0 .911h5.93v5.93a.456.456 0 0 0 .912 0l.001-6.386a.456.456 0 0 0-.456-.455Zm0 12.773a.456.456 0 0 0-.456.456v5.93l-5.93.001a.456.456 0 0 0 0 .912h6.386a.456.456 0 0 0 .456-.456v-6.387a.456.456 0 0 0-.456-.456ZM6.947 19.847H1.015v-5.93a.456.456 0 0 0-.911 0v6.386c0 .252.204.456.455.456h6.388a.456.456 0 0 0 0-.912Z" opacity=".5"/><path fill="#000" d="M14.246 10.722a4.111 4.111 0 0 0-4.106-4.106 4.111 4.111 0 0 0-4.106 4.106 4.111 4.111 0 0 0 4.106 4.106 4.111 4.111 0 0 0 4.106-4.106Z"/></symbol><symbol xmlns="http://www.w3.org/2000/svg" id="experiments" fill="none" viewBox="0 0 22 22"><g fill="#000" clip-path="url(#a)"><path d="M11 21.616H9.671V.384H11v21.23Zm-9.29-2.654V3.039c0-.367.298-.664.664-.664h7.298c.367 0 .664.297.664.664v15.923a.663.663 0 0 1-.664.663H2.374a.663.663 0 0 1-.663-.663ZM4.366 5.029a.663.663 0 1 0-1.327 0 .663.663 0 0 0 1.327 0Zm0 1.99a.663.663 0 1 0-1.327 0 .663.663 0 0 0 1.327 0ZM3.038 17.635h5.971v-1.327H3.038v1.327Zm0-2.654h5.971v-1.327H3.038v1.327Zm0-2.654h5.971V11H3.038v1.327Z"/><path d="M13.653 3.702V9.01h5.308V3.702h-5.308Zm6.635-1.327v7.961h-7.962V2.375h7.962Z" opacity=".6"/><path d="M12.326 11.664h7.962v7.962h-7.962v-7.962Z"/></g><defs><clipPath id="a"><path fill="#fff" d="M0 0h21.231v21.231H0z" transform="translate(.385 .385)"/></clipPath></defs></symbol><symbol xmlns="http://www.w3.org/2000/svg" id="api" fill="none" viewBox="0 0 24 19"><path fill="#000" d="M21.091 0H2.907A2.899 2.899 0 0 0 0 2.907v13.11a2.899 2.899 0 0 0 2.907 2.907h18.186A2.899 2.899 0 0 0 24 16.017l-.001-10.889v-2.22A2.916 2.916 0 0 0 21.092 0Zm1.85 16.018c0 1.03-.82 1.85-1.85 1.85H2.907a1.84 1.84 0 0 1-1.85-1.85V5.128h21.886l-.001 10.89Zm0-11.947H1.058V2.91c0-1.03.82-1.85 1.85-1.85h18.186c1.03 0 1.85.82 1.85 1.85l-.001 1.162Z"/><path fill="#000" d="M3.569 2.59c0 1.2-1.798 1.2-1.798 0 0-1.198 1.798-1.198 1.798 0ZM6.29 2.59c0 1.2-1.796 1.2-1.796 0 0-1.198 1.797-1.198 1.797 0ZM9.042 2.59c0 1.2-1.798 1.2-1.798 0 0-1.198 1.798-1.198 1.798 0ZM3.725 14.986a.522.522 0 0 0 .37.16.518.518 0 0 0 .37-.16l3.383-3.383a.523.523 0 0 0 .159-.37.518.518 0 0 0-.16-.37L4.466 7.48a.51.51 0 0 0-.74 0 .51.51 0 0 0 0 .74l2.987 3.013-2.987 3.014a.51.51 0 0 0 0 .739ZM10.097 11.761h5.339a.53.53 0 0 0 0-1.057h-5.339a.53.53 0 0 0 0 1.057Z"/></symbol><symbol xmlns="http://www.w3.org/2000/svg" id="funnels" width="32" height="32" fill="none" viewBox="0 0 32 32"><rect width="32" height="32" fill="#E5E7E0" rx="6"/><path fill="#000" fill-rule="evenodd" d="M9 11.25C9 10.5596 9.55964 10 10.25 10H21.75C22.4404 10 23 10.5596 23 11.25C23 11.9404 22.4404 12.5 21.75 12.5H10.25C9.55964 12.5 9 11.9404 9 11.25ZM11 15.75C11 15.0596 11.5596 14.5 12.25 14.5H19.75C20.4404 14.5 21 15.0596 21 15.75C21 16.4404 20.4404 17 19.75 17H12.25C11.5596 17 11 16.4404 11 15.75ZM14.25 19C13.5596 19 13 19.5596 13 20.25C13 20.9404 13.5596 21.5 14.25 21.5H17.75C18.4404 21.5 19 20.9404 19 20.25C19 19.5596 18.4404 19 17.75 19H14.25Z" clip-rule="evenodd"/></symbol><symbol xmlns="http://www.w3.org/2000/svg" id="trends" width="32" height="32" fill="none" viewBox="0 0 32 32"><rect width="32" height="32" fill="#E5E7E0" rx="6"/><path fill="#000" fill-rule="evenodd" d="M9.94595 10C10.4684 10 10.8919 10.4235 10.8919 10.9459V19.1155L13.3449 16.0492L16.1557 16.9862L20.7096 11.5785C21.0461 11.1789 21.6428 11.1277 22.0424 11.4642C22.4421 11.8008 22.4932 12.3975 22.1567 12.7971L16.7757 19.1871L13.9981 18.2612L11.9141 20.8663H22.0541C22.5765 20.8663 23 21.2898 23 21.8122C23 22.3346 22.5765 22.7581 22.0541 22.7581H9V10.9459C9 10.4235 9.42351 10 9.94595 10Z" clip-rule="evenodd"/></symbol><symbol xmlns="http://www.w3.org/2000/svg" id="session-recordings-with-bg" width="32" height="32" fill="none" viewBox="0 0 32 32"><rect width="32" height="32" fill="#E5E7E0" rx="6"/><path fill="#000" d="M5 12.7358V5.51539C5 5.23111 5.2311 5 5.51539 5H12.7358C13.02 5 13.2511 5.2311 13.2511 5.51539C13.2511 5.79967 13.02 6.03077 12.7358 6.03077H6.03077V12.7348C6.03077 13.0191 5.79967 13.2502 5.51539 13.2502C5.23111 13.2511 5 13.02 5 12.7358ZM27.1755 5H19.9551C19.6709 5 19.4398 5.2311 19.4398 5.51539C19.4398 5.79967 19.6709 6.03077 19.9551 6.03077H26.6591V12.7348C26.6591 13.0191 26.8903 13.2502 27.1745 13.2502C27.4588 13.2502 27.6899 13.0191 27.6899 12.7348L27.6909 5.51539C27.6909 5.23111 27.4598 5 27.1755 5ZM27.1755 19.4398C26.8912 19.4398 26.6601 19.6709 26.6601 19.9551V26.6591L19.9551 26.6601C19.6709 26.6601 19.4398 26.8912 19.4398 27.1755C19.4398 27.4598 19.6709 27.6909 19.9551 27.6909H27.1755C27.4598 27.6909 27.6909 27.4598 27.6909 27.1755V19.9551C27.6909 19.6708 27.4598 19.4398 27.1755 19.4398ZM12.7358 26.6601H6.03077V19.9551C6.03077 19.6709 5.79967 19.4398 5.51539 19.4398C5.2311 19.4398 5 19.6709 5 19.9551V27.1755C5 27.4598 5.2311 27.6909 5.51539 27.6909H12.7358C13.02 27.6909 13.2511 27.4598 13.2511 27.1755C13.2511 26.8912 13.02 26.6601 12.7358 26.6601Z" opacity=".5"/><path fill="#000" d="M20.9869 16.3456C20.9869 13.7869 18.904 11.7041 16.3454 11.7041C13.7869 11.7041 11.704 13.787 11.704 16.3456C11.704 18.9042 13.7869 20.987 16.3454 20.987C18.904 20.987 20.9869 18.9042 20.9869 16.3456Z"/></symbol><symbol xmlns="http://www.w3.org/2000/svg" id="feature-flags-with-bg" width="32" height="32" fill="none" viewBox="0 0 32 32"><rect width="32" height="32" fill="#E5E7E0" rx="6"/><path fill="#000" d="M12.1092 15.219H20.7344C22.4533 15.219 23.8437 13.8127 23.8437 12.1098C23.8437 10.391 22.4373 9.00061 20.7344 9.00061L12.1092 9C10.3904 9 9 10.4063 9 12.1092C9 13.8127 10.4063 15.219 12.1092 15.219V15.219ZM20.7351 10.3591C21.7037 10.3591 22.485 11.1563 22.485 12.109C22.485 13.0625 21.6878 13.859 20.7351 13.859C19.7664 13.859 18.9851 13.0618 18.9851 12.109C18.9845 11.1562 19.7658 10.3591 20.7351 10.3591V10.3591Z"/><path fill="#000" d="M20.7351 16.7812H12.1092C10.3904 16.7812 9 18.1876 9 19.8905C9 21.6093 10.4063 22.9997 12.1092 22.9997H20.7344C22.4533 22.9997 23.8437 21.5933 23.8437 19.8905C23.8443 18.1876 22.4379 16.7812 20.7349 16.7812H20.7351ZM12.1092 21.6412C11.1405 21.6412 10.3593 20.844 10.3593 19.8912C10.3593 18.9226 11.1564 18.1413 12.1092 18.1413C13.0779 18.1413 13.8591 18.9385 13.8591 19.8912C13.8597 20.8599 13.0785 21.6412 12.1092 21.6412Z" opacity=".5"/></symbol><symbol xmlns="http://www.w3.org/2000/svg" id="bigquery" fill="none" viewBox="0 0 19 18"><g clip-path="url(#clip0)"><path fill="#4387FD" d="M4.74832 15.9755L1.14875 9.74065C1.01036 9.50094 0.9375 9.22903 0.9375 8.95224C0.9375 8.67545 1.01036 8.40353 1.14875 8.16383L4.74832 1.9291C4.88674 1.68936 5.08582 1.49028 5.32557 1.35187C5.56531 1.21347 5.83727 1.14061 6.1141 1.14063H13.3132C13.59 1.14063 13.862 1.2135 14.1017 1.35191C14.3414 1.49031 14.5405 1.68938 14.6789 1.9291L18.2784 8.16383C18.4169 8.40355 18.4897 8.67549 18.4897 8.95231C18.4897 9.22912 18.4169 9.50106 18.2784 9.74078L14.6789 15.9755C14.5405 16.2152 14.3414 16.4142 14.1017 16.5526C13.8619 16.691 13.59 16.7639 13.3132 16.7638H6.1141C5.83727 16.7639 5.56531 16.691 5.32556 16.5526C5.08581 16.4142 4.88673 16.2151 4.74832 15.9754V15.9755Z"/><path fill="#000" d="M17.2878 12.0348L11.9942 6.74093L9.71449 6.13086L7.66678 6.89191L6.87598 8.95223L7.51183 11.2462L13.1255 16.8599L14.3167 16.807L17.2878 12.0348Z" opacity=".07"/><path fill="#000" d="M9.71483 5.77148C7.95824 5.77148 6.53418 7.19554 6.53418 8.95227C6.53418 10.7089 7.95824 12.1329 9.71483 12.1329C11.4714 12.1329 12.8953 10.7089 12.8953 8.95227C12.8953 7.19554 11.4713 5.77148 9.71483 5.77148ZM9.71483 11.3656C8.38196 11.3656 7.3014 10.285 7.3014 8.95213C7.3014 7.61926 8.38196 6.53884 9.71483 6.53884C11.0477 6.53884 12.1283 7.6194 12.1283 8.95227C12.1283 10.2851 11.0477 11.3657 9.71483 11.3657"/><path fill="#000" d="M8.20508 8.82955V9.81823C8.35136 10.0694 8.55775 10.2802 8.80569 10.4319V8.82955H8.20508ZM9.39602 7.99609V10.6579C9.49818 10.6766 9.60267 10.688 9.71004 10.688C9.80795 10.688 9.90339 10.6777 9.99705 10.6621V7.99609H9.39602ZM10.6426 9.24038V10.4145C10.8945 10.2543 11.1014 10.0324 11.2435 9.76996V9.24052L10.6426 9.24038ZM12.0036 10.9115L11.6741 11.2413C11.6462 11.2693 11.6305 11.3072 11.6305 11.3467C11.6305 11.3862 11.6462 11.4241 11.6741 11.4521L12.924 12.7016C12.952 12.7295 12.9899 12.7452 13.0294 12.7452C13.0689 12.7452 13.1068 12.7295 13.1348 12.7016L13.4643 12.3722C13.492 12.3442 13.5076 12.3063 13.5076 12.2669C13.5076 12.2275 13.492 12.1896 13.4643 12.1616L12.2142 10.9115C12.1862 10.8837 12.1484 10.8681 12.1089 10.8681C12.0695 10.8681 12.0316 10.8837 12.0036 10.9115Z"/></g><defs><linearGradient id="paint0_linear" x1="9.714" x2="9.714" y1="1.141" y2="16.74" gradientUnits="userSpaceOnUse"><stop stop-color="#4387FD"/><stop offset="1" stop-color="#4683EA"/></linearGradient><clipPath id="clip0"><rect width="18" height="18" fill="#fff" transform="translate(0.713867)"/></clipPath></defs></symbol><symbol xmlns="http://www.w3.org/2000/svg" id="clicks" fill="none" viewBox="0 0 15 14"><path fill="#000" d="M0.778653 0.965481L6.77088 13.6125C6.88288 13.8552 7.12556 14.0046 7.39158 13.9999C7.66227 13.9952 7.90025 13.8319 8.00294 13.5892L9.89301 9.17907L14.3032 7.28901C14.5459 7.18636 14.7092 6.94367 14.7139 6.67766C14.7139 6.67766 14.7139 6.67299 14.7139 6.66832C14.7139 6.40697 14.5645 6.16896 14.3265 6.05696L1.67936 0.0647859C1.42266 -0.0565558 1.11466 -0.00522615 0.913987 0.200114C0.708641 0.400787 0.657311 0.70881 0.778653 0.965481Z"/></symbol><symbol xmlns="http://www.w3.org/2000/svg" id="forms" fill="none" viewBox="0 0 21 13"><path fill="#000" d="M14.4643 7.20993H9.63833C9.3288 7.20993 9.07812 6.95925 9.07812 6.6481C9.07812 6.33776 9.3288 6.08626 9.63833 6.08626H14.4643C14.8302 6.08626 15.1293 5.78883 15.1293 5.42288V4.73371C15.1293 4.42338 15.38 4.17188 15.6895 4.17188C15.999 4.17188 16.2497 4.42255 16.2497 4.73371V5.42288C16.2505 6.40869 15.4493 7.20993 14.4643 7.20993Z"/><path fill="#000" d="M10.8576 8.42966C10.7141 8.42966 10.5706 8.37485 10.461 8.26522L9.24061 7.04484C9.13501 6.93924 9.07617 6.79738 9.07617 6.64745C9.07617 6.49832 9.13582 6.35565 9.24061 6.25006L10.461 5.02967C10.6794 4.81042 11.0357 4.81042 11.2533 5.02967C11.4718 5.24892 11.4726 5.60521 11.2533 5.82365L10.4304 6.64745L11.2533 7.47044C11.4726 7.68969 11.4726 8.04598 11.2533 8.26442C11.1461 8.37485 11.0018 8.42966 10.8576 8.42966H10.8576Z"/><path fill="#000" d="M18.685 12.602H2.74352C1.6239 12.602 0.713867 11.6904 0.713867 10.5716V2.02965C0.713867 0.910032 1.62472 0 2.74352 0H18.685C19.8038 0 20.7139 0.910857 20.7139 2.02965V10.5716C20.7139 11.6912 19.8038 12.602 18.685 12.602ZM2.74352 1.12208C2.24295 1.12208 1.8359 1.52915 1.8359 2.02889V10.5708C1.8359 11.0714 2.24297 11.4784 2.74352 11.4784H18.685C19.1856 11.4784 19.5918 11.0714 19.5918 10.5708V2.02972C19.5918 1.52915 19.1848 1.1229 18.685 1.1229L2.74352 1.12208Z"/><path fill="#000" d="M17.3421 11.021H4.08396C3.10137 11.021 2.30176 10.2915 2.30176 9.39595V3.20705C2.30176 2.31153 3.10137 1.58203 4.08396 1.58203H17.3421C18.3246 1.58203 19.1243 2.31153 19.1243 3.20705V9.39595C19.1243 10.2915 18.3246 11.021 17.3421 11.021ZM4.08396 2.70479C3.72606 2.70479 3.4238 2.93533 3.4238 3.20697V9.39587C3.4238 9.66831 3.72606 9.89805 4.08396 9.89805H17.3421C17.7 9.89805 18.0022 9.66751 18.0022 9.39587V3.20697C18.0022 2.93452 17.7 2.70479 17.3421 2.70479H4.08396Z"/></symbol><symbol xmlns="http://www.w3.org/2000/svg" id="hubspot-1" fill="none" viewBox="0 0 18 18"><path fill="#FF7A59" d="M13.733 5.84496V3.73108C14.0123 3.60052 14.2489 3.3933 14.415 3.13355C14.5812 2.87379 14.6701 2.57219 14.6716 2.26384V2.21533C14.6716 1.31629 13.9428 0.587469 13.0438 0.587469H12.9952C12.0962 0.587469 11.3673 1.31629 11.3673 2.21533V2.26384C11.3688 2.57219 11.4577 2.87379 11.6239 3.13355C11.7901 3.3933 12.0266 3.60052 12.3059 3.73108V5.84496C11.5031 5.96792 10.7469 6.30083 10.1141 6.80999L4.31663 2.29436C4.35797 2.14512 4.37953 1.99167 4.38197 1.83763C4.38268 1.47484 4.27577 1.11999 4.07478 0.817961C3.87379 0.515933 3.58774 0.2803 3.25281 0.140867C2.91788 0.00143308 2.54912 -0.0355364 2.19318 0.0346345C1.83724 0.104805 1.5101 0.278964 1.25315 0.535081C0.996205 0.791198 0.820986 1.11777 0.749662 1.47348C0.678337 1.82919 0.71411 2.19807 0.852457 2.53345C0.990803 2.86882 1.22551 3.15564 1.52688 3.35761C1.82826 3.55958 2.18276 3.66763 2.54555 3.6681C2.86293 3.66661 3.17436 3.58187 3.44875 3.42237L9.15759 7.86472C8.10803 9.45024 8.13611 11.5166 9.22831 13.0731L7.49198 14.81C7.35156 14.7651 7.2054 14.7413 7.05803 14.7393C6.22648 14.74 5.55282 15.4143 5.55304 16.2459C5.55325 17.0774 6.22734 17.7514 7.05882 17.7516C7.89038 17.7518 8.56475 17.0782 8.56547 16.2466C8.56351 16.0993 8.53965 15.9531 8.49469 15.8128L10.2124 14.0944C11.7472 15.2759 13.8551 15.3777 15.4967 14.3496C17.1382 13.3214 17.9666 11.3803 17.5732 9.48377C17.1799 7.58717 15.648 6.13562 13.733 5.84489V5.84496ZM13.021 12.7974C12.7037 12.8059 12.3878 12.7508 12.0922 12.6353C11.7965 12.5197 11.5269 12.3461 11.2995 12.1247C11.072 11.9032 10.8912 11.6385 10.7678 11.346C10.6443 11.0535 10.5807 10.7393 10.5807 10.4219C10.5807 10.1044 10.6443 9.79017 10.7678 9.49771C10.8912 9.20525 11.072 8.94048 11.2995 8.71905C11.5269 8.49762 11.7965 8.324 12.0922 8.20846C12.3878 8.09292 12.7037 8.03779 13.021 8.04633C14.2998 8.09111 15.3136 9.14046 15.3143 10.4201C15.3149 11.6997 14.3022 12.7501 13.0234 12.7962"/></symbol><symbol xmlns="http://www.w3.org/2000/svg" id="hubspot" fill="none" viewBox="0 0 19 18"><g clip-path="url(#clip0)"><path fill="#FF7A59" d="M14.2301 6.09301V3.97912C14.5094 3.84856 14.7459 3.64135 14.9121 3.38159C15.0783 3.12184 15.1672 2.82023 15.1686 2.51188V2.46338C15.1686 1.56434 14.4398 0.835516 13.5408 0.835516H13.4923C12.5932 0.835516 11.8644 1.56434 11.8644 2.46338V2.51188C11.8658 2.82023 11.9548 3.12184 12.121 3.38159C12.2871 3.64135 12.5237 3.84856 12.803 3.97912V6.09301C12.0001 6.21597 11.244 6.54888 10.6112 7.05804L4.8137 2.5424C4.85504 2.39317 4.8766 2.23971 4.87904 2.08568C4.87975 1.72289 4.77284 1.36804 4.57185 1.06601C4.37086 0.76398 4.08481 0.528347 3.74988 0.388913C3.41495 0.24948 3.04619 0.21251 2.69025 0.282681C2.33431 0.352852 2.00717 0.527011 1.75022 0.783128C1.49328 1.03924 1.31806 1.36581 1.24673 1.72153C1.17541 2.07724 1.21118 2.44611 1.34953 2.78149C1.48787 3.11687 1.72258 3.40369 2.02395 3.60566C2.32533 3.80763 2.67983 3.91568 3.04262 3.91615C3.36 3.91465 3.67143 3.82992 3.94582 3.67042L9.65467 8.11276C8.6051 9.69829 8.63318 11.7647 9.72538 13.3212L7.98905 15.058C7.84863 15.0132 7.70247 14.9893 7.55511 14.9873C6.72355 14.988 6.04989 15.6624 6.05011 16.4939C6.05032 17.3254 6.72441 17.9994 7.55589 17.9997C8.38745 17.9999 9.06182 17.3262 9.06254 16.4947C9.06058 16.3473 9.03672 16.2011 8.99176 16.0608L10.7095 14.3424C12.2443 15.524 14.3522 15.6258 15.9938 14.5976C17.6352 13.5694 18.4636 11.6283 18.0703 9.73181C17.677 7.83522 16.1451 6.38367 14.2301 6.09294V6.09301ZM13.5181 13.0454C13.2007 13.054 12.8849 12.9988 12.5892 12.8833C12.2935 12.7678 12.024 12.5941 11.7965 12.3727C11.5691 12.1513 11.3883 11.8865 11.2648 11.5941C11.1414 11.3016 11.0778 10.9874 11.0778 10.6699C11.0778 10.3525 11.1414 10.0382 11.2648 9.74576C11.3883 9.45329 11.5691 9.18853 11.7965 8.9671C12.024 8.74566 12.2935 8.57205 12.5892 8.45651C12.8849 8.34097 13.2007 8.28584 13.5181 8.29438C14.7969 8.33915 15.8106 9.3885 15.8113 10.6682C15.8119 11.9477 14.7993 12.9981 13.5204 13.0442"/></g><defs><clipPath id="clip0"><rect width="18" height="18" fill="#fff" transform="translate(0.713867)"/></clipPath></defs></symbol><symbol xmlns="http://www.w3.org/2000/svg" id="mobile-sdk" fill="none" viewBox="0 0 19 18"><g clip-path="url(#clip0)"><path fill="#000" d="M2.96457 0.5625C2.03926 0.5625 1.27637 1.32539 1.27637 2.2507V15.7493C1.27637 16.6746 2.03926 17.4375 2.96457 17.4375H9.71385V16.3118H2.96457C2.64323 16.3118 2.40207 16.0706 2.40207 15.7493V2.2507C2.40207 1.92937 2.64323 1.6875 2.96457 1.6875H13.0903C13.4116 1.6875 13.65 1.92938 13.65 2.2507V5.62498H14.7757V2.2507C14.7757 1.32539 14.0149 0.5625 13.0903 0.5625H2.96457Z"/><path fill="#000" d="M11.9646 6.18652C11.0393 6.18652 10.2764 6.94942 10.2764 7.87473V15.7497C10.2764 16.675 11.0393 17.4379 11.9646 17.4379H16.4638C17.3892 17.4379 18.152 16.675 18.152 15.7497V7.87473C18.152 6.94942 17.3892 6.18652 16.4638 6.18652H11.9646ZM11.9646 7.31152H16.4638C16.7852 7.31152 17.0263 7.55269 17.0263 7.87402V15.749C17.0263 16.0704 16.7852 16.3115 16.4638 16.3115H11.9646C11.6432 16.3115 11.4021 16.0704 11.4021 15.749V7.87402C11.4021 7.55269 11.6432 7.31152 11.9646 7.31152V7.31152Z"/><path fill="#000" d="M14.7764 15.1875C14.7764 15.4983 14.5247 15.75 14.2139 15.75C13.9031 15.75 13.6514 15.4983 13.6514 15.1875C13.6514 15.0384 13.7104 14.895 13.8159 14.7895C13.9214 14.6841 14.0648 14.625 14.2139 14.625C14.3629 14.625 14.5064 14.6841 14.6118 14.7895C14.7173 14.895 14.7764 15.0384 14.7764 15.1875H14.7764Z"/><path fill="#000" d="M8.58887 15.1875C8.58887 15.4983 8.33716 15.75 8.02637 15.75C7.71558 15.75 7.46387 15.4983 7.46387 15.1875C7.46387 15.0384 7.52293 14.895 7.6284 14.7895C7.73387 14.6841 7.8773 14.625 8.02636 14.625C8.17542 14.625 8.31886 14.6841 8.42432 14.7895C8.52979 14.895 8.58885 15.0384 8.58885 15.1875H8.58887Z"/></g><defs><clipPath id="clip0"><rect width="18" height="18" fill="#000" transform="translate(0.713867)"/></clipPath></defs></symbol><symbol xmlns="http://www.w3.org/2000/svg" id="pageviews" fill="none" viewBox="0 0 21 13"><path fill="#000" fill-rule="evenodd" d="M10.7139 12.5926C16.6398 12.5926 20.7139 6.2963 20.7139 6.2963C20.7139 6.2963 17.0102 0 10.7139 0C4.41757 0 0.713867 6.2963 0.713867 6.2963C0.713867 6.2963 4.78794 12.5926 10.7139 12.5926ZM10.7147 11.111C13.3738 11.111 15.5295 8.95532 15.5295 6.29617C15.5295 3.63702 13.3738 1.48135 10.7147 1.48135C8.05554 1.48135 5.89988 3.63702 5.89988 6.29617C5.89988 8.95532 8.05554 11.111 10.7147 11.111Z" clip-rule="evenodd"/><circle cx="10.715" cy="6.291" r="1.852" fill="#000"/></symbol><symbol xmlns="http://www.w3.org/2000/svg" id="react" fill="none" viewBox="0 0 19 17"><path fill="#000" fill-rule="evenodd" d="M14.9312 4.9967C17.2206 5.69793 18.7139 6.8287 18.7139 8.02189C18.7139 9.2114 17.2279 10.3422 14.9532 11.0434C15.4852 13.371 15.254 15.2251 14.223 15.8198C13.9809 15.9593 13.702 16.0254 13.3939 16.0254C12.3849 16.0254 11.0641 15.3132 9.72854 14.0723C8.39304 15.3205 7.07221 16.0401 6.06324 16.0401C5.75504 16.0401 5.4762 15.974 5.23772 15.8345C4.20306 15.2397 3.96825 13.382 4.49658 11.0471C2.20714 10.3458 0.713867 9.21507 0.713867 8.02189C0.713867 6.83237 2.1998 5.70527 4.48191 5.00037C3.94991 2.67274 4.18105 0.81871 5.21203 0.223952C5.45419 0.0844409 5.73303 0.0183567 6.04122 0.0183567V0.0146854C7.05019 0.0146854 8.37102 0.726926 9.70653 1.96784C11.042 0.719584 12.3629 0 13.3718 0V0.00367449C13.6749 0.00420356 13.9525 0.070316 14.19 0.209267C15.2247 0.804024 15.4595 2.66173 14.9312 4.9967ZM13.3682 0.818715C12.6051 0.820664 11.4841 1.42993 10.2899 2.54057C10.8072 3.08026 11.3209 3.69704 11.8162 4.37624C12.6417 4.46435 13.4269 4.60019 14.146 4.77642C14.2267 4.40561 14.2928 4.04215 14.3331 3.69704C14.5019 2.29459 14.2854 1.2042 13.7864 0.917836C13.6727 0.855423 13.5369 0.822381 13.3682 0.822381V0.818715ZM9.12316 2.54424C7.92708 1.43917 6.8007 0.833395 6.04122 0.833395V0.837067C5.87245 0.837067 5.72936 0.866437 5.61929 0.932522C5.12398 1.22256 4.91118 2.31295 5.08362 3.7154C5.12765 4.05684 5.19002 4.41296 5.27441 4.78009C5.99353 4.60019 6.77869 4.46435 7.60788 4.37624C8.09585 3.69704 8.60951 3.08393 9.12316 2.54424ZM13.4415 7.02328C13.6323 6.53499 13.8011 6.0467 13.9369 5.5731C13.4562 5.45562 12.9536 5.36016 12.4326 5.28306C12.6124 5.56209 12.7921 5.84845 12.9609 6.14216C13.1334 6.43587 13.2911 6.72957 13.4415 7.02328ZM11.3722 10.8855C11.6768 10.4486 11.9703 9.97871 12.2565 9.48308C12.5316 9.00214 12.7848 8.51018 13.0159 8.01822C12.7848 7.52626 12.5316 7.03797 12.2528 6.55702C11.9666 6.06506 11.6694 5.5988 11.3649 5.16191C10.8219 5.11785 10.2679 5.09215 9.71387 5.09215C9.15618 5.09215 8.60217 5.11785 8.05549 5.16558C7.75097 5.60247 7.45745 6.0724 7.17127 6.56803C6.89609 7.04898 6.63927 7.54094 6.41179 8.0329C6.64293 8.52486 6.89609 9.01315 7.17494 9.4941C7.46112 9.98606 7.7583 10.4523 8.06283 10.8892C8.60584 10.9333 9.15985 10.959 9.71387 10.959C10.2716 10.959 10.8256 10.9333 11.3722 10.8855ZM13.9479 10.467C13.8084 9.98973 13.6397 9.49777 13.4415 9.00581C13.2911 9.29951 13.1334 9.59689 12.9646 9.8906C12.7958 10.188 12.616 10.478 12.4362 10.7607C12.9609 10.6836 13.4672 10.5845 13.9479 10.467ZM8.70123 11.7483C9.03878 12.1778 9.37999 12.5707 9.72121 12.9231C10.0588 12.5707 10.4 12.1778 10.7302 11.7483C10.3963 11.7667 10.0551 11.774 9.7102 11.774C9.36898 11.774 9.03144 11.763 8.70123 11.7483ZM5.48721 10.4707C5.96784 10.5882 6.47049 10.6836 6.99149 10.7607C6.81171 10.4817 6.6356 10.1953 6.46315 9.90162C6.29071 9.60791 6.13295 9.3142 5.98252 9.02049C5.79173 9.50878 5.62296 9.99707 5.48721 10.4707ZM10.7228 4.29547C10.3853 3.86593 10.0441 3.47309 9.70286 3.12064C9.36532 3.47309 9.0241 3.86593 8.69389 4.29547C9.02777 4.27712 9.36899 4.26977 9.71387 4.26977C10.0551 4.26977 10.3926 4.28079 10.7228 4.29547ZM6.45949 6.15317C6.62826 5.85579 6.80804 5.56576 6.98782 5.28306C6.46316 5.36016 5.95684 5.45929 5.4762 5.5731C5.61562 6.05038 5.78439 6.54234 5.98252 7.0343C6.13295 6.74059 6.29071 6.44688 6.45949 6.15317ZM1.52838 8.02189C1.52838 8.59829 2.36858 9.32522 3.66739 9.87959C3.9866 10.0154 4.33148 10.1403 4.69471 10.2541C4.90017 9.53815 5.17167 8.79287 5.50922 8.02923C5.16801 7.26192 4.89283 6.51297 4.6837 5.79338C4.32781 5.90719 3.98293 6.02835 3.66739 6.16419C2.36858 6.71489 1.52838 7.44549 1.52838 8.02189ZM5.09463 12.3467C4.92585 13.7492 5.14232 14.8396 5.6413 15.1259C5.75137 15.1884 5.89079 15.2214 6.0559 15.2251C6.81905 15.2251 7.94175 14.6156 9.13784 13.5032C8.62051 12.9635 8.10686 12.3467 7.61155 11.6675C6.78603 11.5794 6.00086 11.4436 5.28174 11.2674C5.20103 11.6382 5.13498 12.0016 5.09463 12.3467ZM13.8084 15.1113C14.3038 14.8212 14.5166 13.7308 14.3441 12.3284C14.3038 11.9869 14.2377 11.6308 14.1533 11.26C13.4342 11.4399 12.6491 11.5757 11.8199 11.6639C11.3319 12.3431 10.8182 12.9562 10.3046 13.4959C11.5007 14.6009 12.627 15.2067 13.3865 15.2067C13.5553 15.2067 13.6984 15.1773 13.8084 15.1113ZM14.7404 10.2504C15.0963 10.1366 15.4411 10.0154 15.7567 9.87959C17.0555 9.32889 17.8957 8.59829 17.8994 8.02189C17.8994 7.44549 17.0592 6.71856 15.7603 6.16419C15.4375 6.02835 15.0926 5.90352 14.7294 5.78971C14.5239 6.50562 14.2524 7.2509 13.9148 8.01454C14.2561 8.78186 14.5312 9.53081 14.7404 10.2504ZM11.387 8.02191C11.387 8.94854 10.6363 9.69972 9.71029 9.69972C8.78427 9.69972 8.03357 8.94854 8.03357 8.02191C8.03357 7.09529 8.78427 6.34411 9.71029 6.34411C10.6363 6.34411 11.387 7.09529 11.387 8.02191Z" clip-rule="evenodd"/></symbol><symbol xmlns="http://www.w3.org/2000/svg" id="redshift" fill="none" viewBox="0 0 18 18"><g clip-path="url(#clip0)"><path fill="#205B97" d="M8.8623 13.7626L15.7073 15.3924V2.57129L8.8623 4.20105V13.7626Z"/><path fill="#5193CE" d="M15.7076 2.57129L17.0114 3.22319V14.7405L15.7076 15.3924V2.57129ZM8.86256 13.7626L2.01758 15.3924V2.57129L8.86256 4.20105V13.7626Z"/><path fill="#205B97" d="M2.01767 2.57129L0.713867 3.22319V14.7405L2.01767 15.3924V2.57129Z"/><path fill="#5193CE" d="M10.6009 18L13.2085 16.6962V1.30381L10.6009 0L9.80371 8.5474L10.6009 18Z"/><path fill="#205B97" d="M7.12422 18L4.5166 16.6962V1.30381L7.12422 0L7.92143 8.5474L7.12422 18Z"/><path fill="#2E73B7" d="M7.12402 0H10.6368V17.9637H7.12402V0Z"/></g><defs><clipPath id="clip0"><rect width="16.298" height="18" fill="#fff" transform="translate(0.713867)"/></clipPath></defs></symbol><symbol xmlns="http://www.w3.org/2000/svg" id="s3" fill="none" viewBox="0 0 19 11"><g clip-path="url(#clip0)"><path fill="#000" d="M5.82975 3.90449C5.82975 4.12207 5.85343 4.29849 5.89488 4.42786C5.94225 4.55724 6.00146 4.69837 6.08435 4.85127C6.11396 4.89831 6.1258 4.94536 6.1258 4.98652C6.1258 5.04533 6.09028 5.10413 6.0133 5.16294L5.64028 5.40992C5.58699 5.44521 5.5337 5.46285 5.48633 5.46285C5.42712 5.46285 5.36791 5.43345 5.3087 5.38052C5.2258 5.29231 5.15475 5.19822 5.09554 5.10413C5.03633 5.00416 4.97712 4.89243 4.91199 4.75718C4.45014 5.29819 3.86988 5.5687 3.1712 5.5687C2.67383 5.5687 2.27712 5.42757 1.98699 5.1453C1.69685 4.86303 1.54883 4.48667 1.54883 4.01622C1.54883 3.51637 1.72646 3.11061 2.08764 2.80482C2.44883 2.49902 2.92843 2.34613 3.5383 2.34613C3.73962 2.34613 3.94685 2.36377 4.16593 2.39317C4.38501 2.42258 4.61001 2.46962 4.84685 2.52255V2.09326C4.84685 1.64634 4.75212 1.33466 4.56857 1.15237C4.37909 0.970067 4.05935 0.881857 3.60343 0.881857C3.3962 0.881857 3.18304 0.90538 2.96396 0.958305C2.74488 1.01123 2.53172 1.07592 2.32449 1.15825C2.22975 1.19941 2.1587 1.22293 2.11725 1.23469C2.0758 1.24646 2.0462 1.25234 2.02251 1.25234C1.93962 1.25234 1.89817 1.19353 1.89817 1.07004V0.781887C1.89817 0.687797 1.91001 0.61723 1.93962 0.576066C1.96922 0.534902 2.02251 0.493737 2.10541 0.452573C2.31264 0.346722 2.56133 0.258513 2.85146 0.187946C3.14159 0.111498 3.44949 0.0762143 3.77514 0.0762143C4.47975 0.0762143 4.99488 0.234991 5.32646 0.552543C5.65212 0.870096 5.81791 1.35231 5.81791 1.99917V3.90449H5.82975ZM3.4258 4.79834C3.6212 4.79834 3.82251 4.76306 4.03567 4.69249C4.24883 4.62192 4.4383 4.49255 4.59817 4.31613C4.69291 4.2044 4.76396 4.08091 4.79949 3.93977C4.83501 3.79864 4.8587 3.6281 4.8587 3.42816V3.18117C4.68699 3.14001 4.50343 3.10473 4.31396 3.0812C4.12449 3.05768 3.94093 3.04592 3.75738 3.04592C3.36067 3.04592 3.07054 3.12237 2.87514 3.28114C2.67975 3.43992 2.58501 3.66338 2.58501 3.95741C2.58501 4.2338 2.65606 4.43962 2.80409 4.58076C2.9462 4.72777 3.15343 4.79834 3.4258 4.79834ZM8.18041 5.43345C8.07383 5.43345 8.00278 5.41581 7.95541 5.37464C7.90804 5.33936 7.86659 5.25703 7.83107 5.1453L6.43962 0.599588C6.40409 0.481976 6.38633 0.405528 6.38633 0.364364C6.38633 0.270274 6.4337 0.217349 6.52843 0.217349H7.1087C7.2212 0.217349 7.29817 0.234991 7.33962 0.276155C7.38699 0.311439 7.42251 0.393767 7.45804 0.505499L8.45278 4.39846L9.37646 0.505499C9.40606 0.387887 9.44159 0.311439 9.48896 0.276155C9.53633 0.240871 9.61922 0.217349 9.7258 0.217349H10.1995C10.312 0.217349 10.389 0.234991 10.4363 0.276155C10.4837 0.311439 10.5251 0.393767 10.5488 0.505499L11.4844 4.44551L12.5087 0.505499C12.5442 0.387887 12.5857 0.311439 12.6271 0.276155C12.6745 0.240871 12.7515 0.217349 12.858 0.217349H13.4087C13.5034 0.217349 13.5567 0.264394 13.5567 0.364364C13.5567 0.393767 13.5508 0.42317 13.5449 0.458454C13.539 0.493737 13.5271 0.540782 13.5034 0.605469L12.0765 5.15118C12.0409 5.26879 11.9995 5.34524 11.9521 5.38052C11.9047 5.41581 11.8278 5.43933 11.7271 5.43933H11.2179C11.1054 5.43933 11.0284 5.42169 10.9811 5.38052C10.9337 5.33936 10.8922 5.26291 10.8686 5.1453L9.9508 1.35231L9.03896 5.13942C9.00936 5.25703 8.97383 5.33348 8.92646 5.37464C8.87909 5.41581 8.7962 5.43345 8.68962 5.43345H8.18041ZM15.789 5.59222C15.4811 5.59222 15.1732 5.55694 14.8771 5.48637C14.5811 5.41581 14.3501 5.33936 14.1962 5.25115C14.1015 5.19822 14.0363 5.13942 14.0126 5.08649C13.989 5.03357 13.9771 4.97476 13.9771 4.92183V4.62192C13.9771 4.49843 14.0245 4.43962 14.1133 4.43962C14.1488 4.43962 14.1844 4.44551 14.2199 4.45727C14.2554 4.46903 14.3087 4.49255 14.3679 4.51607C14.5692 4.60428 14.7883 4.67485 15.0192 4.72189C15.2561 4.76894 15.487 4.79246 15.7238 4.79246C16.0969 4.79246 16.387 4.72777 16.5883 4.5984C16.7896 4.46903 16.8962 4.28085 16.8962 4.03974C16.8962 3.87509 16.8429 3.73983 16.7363 3.6281C16.6297 3.51637 16.4284 3.4164 16.1383 3.32231L15.2797 3.05768C14.8475 2.92243 14.5278 2.72249 14.3324 2.45786C14.137 2.19911 14.0363 1.91096 14.0363 1.60517C14.0363 1.35819 14.0896 1.1406 14.1962 0.952425C14.3028 0.764245 14.4449 0.599588 14.6225 0.470215C14.8001 0.334961 15.0015 0.234991 15.2383 0.164423C15.4751 0.0938562 15.7238 0.0644531 15.9844 0.0644531C16.1146 0.0644531 16.2508 0.0703337 16.3811 0.0879755C16.5172 0.105617 16.6416 0.12914 16.7659 0.152662C16.8844 0.182065 16.9969 0.211468 17.1034 0.246752C17.21 0.282036 17.2929 0.317319 17.3521 0.352603C17.435 0.399648 17.4942 0.446693 17.5297 0.499618C17.5653 0.546663 17.583 0.61135 17.583 0.693678V0.970067C17.583 1.09356 17.5357 1.15825 17.4469 1.15825C17.3995 1.15825 17.3225 1.13472 17.2219 1.08768C16.8844 0.934783 16.5054 0.858335 16.085 0.858335C15.7475 0.858335 15.4811 0.91126 15.2975 1.02299C15.114 1.13472 15.0192 1.30526 15.0192 1.54637C15.0192 1.71102 15.0784 1.85216 15.1969 1.96389C15.3153 2.07562 15.5344 2.18735 15.8482 2.28732L16.689 2.55195C17.1153 2.6872 17.4232 2.87538 17.6067 3.11649C17.7903 3.35759 17.8791 3.63398 17.8791 3.93977C17.8791 4.19264 17.8258 4.42198 17.7251 4.62192C17.6186 4.82186 17.4765 4.99828 17.2929 5.13942C17.1094 5.28643 16.8903 5.39228 16.6357 5.46873C16.3692 5.55106 16.0909 5.59222 15.789 5.59222Z"/><path fill="#F90" fill-rule="evenodd" d="M16.9078 8.44996C14.9598 9.87895 12.1295 10.6375 9.69597 10.6375C6.28545 10.6375 3.21242 9.38498 0.891369 7.30324C0.707817 7.13859 0.873606 6.91512 1.09269 7.0445C3.60321 8.49113 6.69992 9.36733 9.90321 9.36733C12.0644 9.36733 14.4387 8.92041 16.6236 8.00304C16.9493 7.85602 17.2276 8.21474 16.9078 8.44996Z" clip-rule="evenodd"/><path fill="#F90" fill-rule="evenodd" d="M17.7186 7.53292C17.4699 7.21536 16.0725 7.38002 15.439 7.45647C15.2495 7.47999 15.2199 7.31533 15.3916 7.19184C16.5048 6.4156 18.3344 6.63906 18.5475 6.89781C18.7607 7.16244 18.4883 8.97955 17.4462 9.84987C17.2864 9.98513 17.1324 9.91456 17.2035 9.73814C17.4403 9.15596 17.9673 7.84459 17.7186 7.53292Z" clip-rule="evenodd"/></g><defs><clipPath id="clip0"><rect width="18" height="10.703" fill="#fff" transform="translate(0.713867)"/></clipPath></defs></symbol><symbol xmlns="http://www.w3.org/2000/svg" id="salesforce-1" fill="none" viewBox="0 0 19 13"><mask id="mask0" width="19" height="13" x="0" y="0" maskType="alpha" maskUnits="userSpaceOnUse"><path fill="#fff" d="M0.713867 0H18.7139V12.5978H0.713867V0Z"/></mask><g mask="url(#mask0)"><path fill="#00A1E0" fill-rule="evenodd" d="M8.20211 1.37442C8.78272 0.769537 9.59115 0.394195 10.4852 0.394195C11.6736 0.394195 12.7106 1.0569 13.2626 2.04083C13.7565 1.82012 14.2916 1.70637 14.8326 1.70703C16.9761 1.70703 18.7139 3.45997 18.7139 5.62245C18.7139 7.78494 16.9761 9.53794 14.8326 9.53794C14.5708 9.53794 14.3152 9.51161 14.0679 9.46174C13.5818 10.3289 12.655 10.9149 11.5916 10.9149C11.1614 10.9155 10.7368 10.8178 10.3502 10.6292C9.85741 11.7888 8.70876 12.6018 7.37046 12.6018C5.97645 12.6018 4.78838 11.7199 4.33266 10.483C4.12955 10.5258 3.92253 10.5474 3.71494 10.5473C2.05528 10.5473 0.709961 9.18787 0.709961 7.511C0.709961 6.38709 1.31432 5.40587 2.21258 4.88097C2.02227 4.44273 1.92433 3.96996 1.92489 3.49219C1.92489 1.56355 3.49049 0 5.42171 0C6.55554 0 7.56322 0.539 8.20211 1.37442Z" clip-rule="evenodd"/></g></symbol><symbol xmlns="http://www.w3.org/2000/svg" id="salesforce" fill="none" viewBox="0 0 21 14"><mask id="mask0" width="21" height="14" x="0" y="0" maskType="alpha" maskUnits="userSpaceOnUse"><path fill="#00A1E0" d="M0.713867 0H20.7139V13.9976H0.713867V0Z"/></mask><g mask="url(#mask0)"><path fill="#00A1E0" fill-rule="evenodd" d="M9.03457 1.52714C9.67969 0.855041 10.578 0.437994 11.5713 0.437994C12.8918 0.437994 14.044 1.17433 14.6573 2.26759C15.2062 2.02236 15.8006 1.89596 16.4018 1.8967C18.7835 1.8967 20.7144 3.84441 20.7144 6.24717C20.7144 8.64993 18.7835 10.5977 16.4018 10.5977C16.1109 10.5977 15.8269 10.5685 15.5522 10.513C15.012 11.4766 13.9822 12.1277 12.8006 12.1277C12.3227 12.1284 11.8509 12.0198 11.4214 11.8103C10.8738 13.0987 9.59752 14.002 8.11051 14.002C6.56162 14.002 5.24154 13.0221 4.73519 11.6478C4.50951 11.6954 4.27948 11.7193 4.04883 11.7192C2.20476 11.7192 0.709961 10.2087 0.709961 8.34556C0.709961 7.09677 1.38147 6.00653 2.37954 5.42329C2.16808 4.93636 2.05926 4.41107 2.05989 3.88021C2.05989 1.73728 3.79944 0 5.94524 0C7.20505 0 8.3247 0.598889 9.03457 1.52714Z" clip-rule="evenodd"/></g></symbol><symbol xmlns="http://www.w3.org/2000/svg" id="sendgrid-1" fill="none" viewBox="0 0 19 18"><path fill="#9DE1F3" d="M6.71391 6H0.713867V18H12.7139V6H6.71391Z"/><path fill="#27B4E1" d="M6.71387 0V12H18.7138V0H6.71387Z"/><path fill="#1A82E2" d="M0.713867 18H6.71384V12H0.713867V18ZM12.7139 5.99998H18.7139V0H12.7139V5.99998Z"/><path fill="#239FD7" d="M6.71387 12H12.7138V6H6.71387V12Z"/></symbol><symbol xmlns="http://www.w3.org/2000/svg" id="sendgrid" fill="none" viewBox="0 0 19 18"><g clip-path="url(#clip0)"><path fill="#9DE1F3" d="M6.71391 6H0.713867V18H12.7139V6H6.71391Z"/><path fill="#27B4E1" d="M6.71387 0V12H18.7138V0H6.71387Z"/><path fill="#1A82E2" d="M0.713867 18H6.71384V12H0.713867V18ZM12.7139 5.99998H18.7139V0H12.7139V5.99998Z"/><path fill="#239FD7" d="M6.71387 12H12.7138V6H6.71387V12Z"/></g><defs><clipPath id="clip0"><rect width="18" height="18" fill="#fff" transform="translate(0.713867)"/></clipPath></defs></symbol><symbol xmlns="http://www.w3.org/2000/svg" id="snowflake" fill="none" viewBox="0 0 19 18"><path fill="#31BEF0" d="M8.3893 6.28225C8.61628 6.05542 8.72999 5.79044 8.72999 5.44982V1.09741C8.72999 0.491962 8.23788 0 7.63235 0C7.02675 0 6.53479 0.491962 6.53479 1.09741V3.59546L4.41544 2.3464C3.88562 2.00593 3.20431 2.1572 2.9017 2.68702C2.56108 3.21699 2.71235 3.89815 3.24217 4.20091C3.28002 4.20091 3.28002 4.23869 3.31803 4.23869L7.10261 6.43375C7.48101 6.69865 8.04868 6.6231 8.3893 6.28225ZM6.76192 8.93157C6.76192 8.51524 6.57257 8.13676 6.19409 7.94742L2.40966 5.75236C1.87969 5.41189 1.19853 5.56316 0.895768 6.09298C0.555074 6.62302 0.706569 7.30411 1.23639 7.60687C1.27424 7.60687 1.27424 7.64473 1.31202 7.64473L3.46922 8.89364L1.31202 10.1427C0.782203 10.4453 0.555074 11.0888 0.857913 11.6566C1.16075 12.2243 1.80406 12.4133 2.37166 12.1105C2.40966 12.1105 2.40966 12.1105 2.44729 12.1105L6.2321 9.91564C6.57257 9.72637 6.76192 9.34789 6.76192 8.93157ZM8.72999 12.3756V16.7658C8.72999 17.3713 8.23788 17.8632 7.63235 17.8632C7.02675 17.8632 6.53479 17.3712 6.53479 16.7658V14.3058L4.37759 15.5547C3.84777 15.8952 3.16646 15.7439 2.86384 15.2141C2.52315 14.6842 2.67449 14.003 3.20431 13.7002C3.24209 13.7002 3.24209 13.6624 3.27995 13.6624L7.06476 11.4673C7.59457 11.1645 8.31366 11.3538 8.61635 11.9214C8.69199 12.0348 8.76762 12.2243 8.72999 12.3756ZM10.6978 12.4892V16.7657C10.6978 17.3712 11.1898 17.8631 11.7954 17.8631C12.4009 17.8631 12.8928 17.3712 12.8928 16.7657V14.3057L15.0122 15.5168C15.542 15.8573 16.2233 15.706 16.5261 15.1762C16.8668 14.6461 16.7153 13.9651 16.1854 13.6623C16.1476 13.6623 16.1476 13.6244 16.1098 13.6244L12.3252 11.4294C11.7953 11.1265 11.114 11.3158 10.8113 11.8457C10.7357 12.0348 10.66 12.2999 10.6978 12.4892ZM12.6659 8.93157C12.6659 8.51524 12.855 8.13676 13.2335 7.94742L17.0182 5.75236C17.548 5.41189 18.2293 5.56316 18.5321 6.09298C18.8725 6.62302 18.7213 7.30411 18.1914 7.60687C18.1536 7.60687 18.1536 7.64473 18.1157 7.64473L15.9584 8.89364L18.1157 10.1426C18.6456 10.4452 18.8725 11.0888 18.5698 11.6565C18.2671 12.1863 17.6236 12.4132 17.056 12.1105C17.0182 12.1105 17.0182 12.0726 16.9803 12.0726L13.1957 9.87756C12.855 9.72637 12.6281 9.34789 12.6659 8.93157ZM10.6978 5.37411V1.09741C10.6978 0.491962 11.1898 0 11.7954 0C12.4009 0 12.8928 0.491962 12.8928 1.09741V3.55746L15.0122 2.34633C15.542 2.00586 16.2233 2.15712 16.5261 2.68694C16.8668 3.21691 16.7153 3.89807 16.1854 4.20084C16.1476 4.20084 16.1476 4.23862 16.1098 4.23862L12.3252 6.43367C11.7953 6.73651 11.114 6.54724 10.8113 6.01742C10.7357 5.82829 10.66 5.60109 10.6978 5.37411ZM10.168 6.96356C10.0924 6.88801 10.0165 6.85 9.90304 6.85H9.52457C9.41108 6.85 9.33537 6.88801 9.25974 6.96356L7.74584 8.47746C7.67021 8.55309 7.63235 8.6288 7.63235 8.74222V9.12084C7.63235 9.2344 7.67021 9.31004 7.74584 9.38568L9.25974 10.8996C9.33537 10.9752 9.41108 11.0131 9.52457 11.0131H9.90304C10.0165 11.0131 10.0924 10.9752 10.168 10.8996L11.6818 9.38568C11.7196 9.30997 11.7576 9.19647 11.7576 9.12084V8.74222C11.7576 8.62873 11.7196 8.55302 11.6439 8.47746L10.168 6.96356ZM9.9409 8.28833C9.90304 8.25033 9.82741 8.21247 9.7517 8.21247C9.67584 8.21247 9.6002 8.25033 9.5625 8.28833L9.10824 8.74229C9.07039 8.78014 9.03253 8.85601 9.03253 8.93164C9.03253 9.00735 9.07039 9.08314 9.10824 9.12099L9.5625 9.57502C9.60013 9.6128 9.67584 9.65081 9.7517 9.65081C9.82733 9.65081 9.90304 9.6128 9.9409 9.57502L10.395 9.12099C10.4328 9.08314 10.4708 9.00735 10.4708 8.93164C10.4708 8.85601 10.4328 8.78014 10.395 8.74229L9.9409 8.28833Z"/></symbol><symbol xmlns="http://www.w3.org/2000/svg" id="tap" fill="none" viewBox="0 0 13 18"><path fill="#000" d="M5.31917 0C3.24331 0 1.55173 1.69158 1.55173 3.76744C1.55173 5.07068 2.21561 6.2234 3.22614 6.90049V5.81473C2.70779 5.2874 2.38894 4.56792 2.38894 3.7675C2.38894 2.1446 3.69626 0.837272 5.31917 0.837272C6.94208 0.837272 8.2494 2.1446 8.2494 3.7675C8.2494 4.56792 7.93055 5.2874 7.41219 5.81473V6.90049C8.42272 6.22352 9.08661 5.07073 9.08661 3.76744C9.08661 1.69158 7.39503 0 5.31917 0ZM5.31917 2.93023C4.6234 2.93023 4.06335 3.49028 4.06335 4.18605V11.7209L3.22614 10.0465C2.5402 8.77353 1.86568 8.90598 1.34242 9.2093C0.736598 9.61319 0.510928 10.0302 0.923819 11.093C1.87386 13.4263 3.33331 16.2063 4.90056 18H10.5517C12.5376 16.5284 14.136 9.53058 11.3889 9.2093C11.1371 9.2093 10.7332 9.24936 10.5517 9.4186C10.5517 8.5814 9.8208 8.3672 9.50521 8.37209C9.14302 8.37782 8.87731 8.5814 8.668 9C8.668 8.16279 7.98532 7.95349 7.62149 7.95349C7.22087 7.95349 6.75649 8.20367 6.57498 8.5814V4.18605C6.57498 3.49028 6.01493 2.93023 5.31917 2.93023Z"/></symbol><symbol xmlns="http://www.w3.org/2000/svg" id="bullet" width="20" height="20" fill="none" viewBox="0 0 20 20"><circle cx="10" cy="10" r="9" stroke="#D4D4D4" stroke-dasharray="4 4" stroke-width="2"/><circle cx="10" cy="10" r="6" fill="#BFBFBC"/></symbol><symbol xmlns="http://www.w3.org/2000/svg" id="logo-bullet" width="68" height="68" fill="none" viewBox="0 0 68 68"><circle cx="34" cy="34" r="33" fill="#EEEFE9" stroke="#BFBFBC" stroke-dasharray="4 4" stroke-width="2"/><path fill="#F54E00" d="M32.3944 34.9611C32.0259 35.6982 30.9741 35.6982 30.6056 34.9611L29.9736 33.6972C29.8328 33.4157 29.8328 33.0843 29.9736 32.8028L30.6056 31.5389C30.9741 30.8018 32.0259 30.8018 32.3944 31.5389L33.0264 32.8028C33.1671 33.0843 33.1671 33.4157 33.0264 33.6972L32.3944 34.9611Z"/><path fill="#F54E00" d="M32.3944 43.7111C32.0259 44.4482 30.9741 44.4482 30.6056 43.7111L29.9736 42.4472C29.8328 42.1657 29.8328 41.8343 29.9736 41.5528L30.6056 40.2889C30.9741 39.5518 32.0259 39.5518 32.3944 40.2889L33.0264 41.5528C33.1671 41.8343 33.1671 42.1657 33.0264 42.4472L32.3944 43.7111Z"/><path fill="#1D4AFF" d="M23.6483 34.9611C23.2798 35.6982 22.228 35.6982 21.8595 34.9611L21.2275 33.6972C21.0867 33.4157 21.0867 33.0843 21.2275 32.8028L21.8595 31.5389C22.228 30.8018 23.2798 30.8018 23.6483 31.5389L24.2803 32.8028C24.421 33.0843 24.421 33.4157 24.2803 33.6972L23.6483 34.9611Z"/><path fill="#1D4AFF" d="M23.6483 43.7111C23.2798 44.4482 22.228 44.4482 21.8595 43.7111L21.2275 42.4472C21.0867 42.1657 21.0867 41.8343 21.2275 41.5528L21.8595 40.2889C22.228 39.5518 23.2798 39.5518 23.6483 40.2889L24.2803 41.5528C24.421 41.8343 24.421 42.1657 24.2803 42.4472L23.6483 43.7111Z"/><path fill="#F9BD2B" d="M14 40.9141C14 40.0232 15.0771 39.5771 15.7071 40.207L19.2929 43.7928C19.9228 44.4227 19.4767 45.4999 18.5858 45.4999H15C14.4477 45.4999 14 45.0522 14 44.4999V40.9141ZM14 36.3357C14 36.6009 14.1054 36.8553 14.2929 37.0428L22.4571 45.207C22.6446 45.3945 22.899 45.4999 23.1642 45.4999H27.3357C28.2266 45.4999 28.6728 44.4227 28.0428 43.7928L15.7071 31.4571C15.0771 30.8271 14 31.2733 14 32.1642V36.3357ZM14 27.5858C14 27.851 14.1054 28.1053 14.2929 28.2929L31.207 45.207C31.3946 45.3945 31.6489 45.4999 31.9141 45.4999H36.0857C36.9766 45.4999 37.4227 44.4227 36.7928 43.7928L15.7071 22.7071C15.0771 22.0771 14 22.5233 14 23.4142V27.5858ZM22.75 27.5858C22.75 27.851 22.8553 28.1053 23.0429 28.2929L38.5428 43.7928C39.1727 44.4227 40.2499 43.9766 40.2499 43.0857V38.9141C40.2499 38.6489 40.1445 38.3946 39.957 38.207L24.4571 22.7071C23.8271 22.0771 22.75 22.5233 22.75 23.4142V27.5858ZM33.207 22.7071C32.5771 22.0771 31.4999 22.5233 31.4999 23.4142V27.5858C31.4999 27.851 31.6053 28.1053 31.7928 28.2929L38.5428 35.0428C39.1727 35.6728 40.2499 35.2266 40.2499 34.3357V30.1642C40.2499 29.899 40.1445 29.6446 39.957 29.4571L33.207 22.7071Z"/><path fill="#000" d="M51.221 40.721L43.1954 32.6954C42.5654 32.0654 41.4883 32.5116 41.4883 33.4025V44.5006C41.4883 45.0529 41.936 45.5006 42.4883 45.5006H55.0006C55.5529 45.5006 56.0006 45.0529 56.0006 44.5006V43.7006C56.0006 43.1483 55.5505 42.7082 55.0042 42.6268C53.5797 42.4146 52.251 41.751 51.221 40.721ZM45.6883 42.7006C44.9155 42.7006 44.2883 42.0734 44.2883 41.3006C44.2883 40.5278 44.9155 39.9006 45.6883 39.9006C46.4611 39.9006 47.0883 40.5278 47.0883 41.3006C47.0883 42.0734 46.4611 42.7006 45.6883 42.7006Z"/><path fill="#1D4AFF" d="M14 44.5C14 45.0523 14.4477 45.5 15 45.5H18.5858C19.4767 45.5 19.9228 44.4228 19.2929 43.7929L15.7071 40.2071C15.0771 39.5771 14 40.0233 14 40.9142V44.5Z"/><path fill="#1D4AFF" d="M22.75 30.1642C22.75 29.899 22.6446 29.6446 22.4571 29.4571L15.7071 22.7071C15.0771 22.0771 14 22.5233 14 23.4142V27.5858C14 27.851 14.1054 28.1053 14.2929 28.2929L21.0428 35.0428C21.6728 35.6728 22.75 35.2266 22.75 34.3357V30.1642Z"/><path fill="#1D4AFF" d="M15.7071 31.4571C15.0771 30.8271 14 31.2733 14 32.1642V36.3358C14 36.601 14.1054 36.8553 14.2929 37.0429L21.0428 43.7928C21.6728 44.4228 22.75 43.9766 22.75 43.0857V38.9142C22.75 38.649 22.6446 38.3946 22.4571 38.2071L15.7071 31.4571Z"/><path fill="#F54E00" d="M31.496 30.1642C31.496 29.899 31.3907 29.6446 31.2032 29.4571L24.4532 22.7071C23.8232 22.0771 22.7461 22.5233 22.7461 23.4142V27.5858C22.7461 27.851 22.8515 28.1053 23.039 28.2929L29.7889 35.0428C30.4189 35.6728 31.496 35.2266 31.496 34.3357V30.1642Z"/><path fill="#F54E00" d="M22.7461 44.5C22.7461 45.0523 23.1938 45.5 23.7461 45.5H27.3318C28.2228 45.5 28.6689 44.4228 28.039 43.7929L24.4532 40.2071C23.8232 39.5771 22.7461 40.0233 22.7461 40.9142V44.5Z"/><path fill="#F54E00" d="M24.4532 31.4571C23.8232 30.8271 22.7461 31.2733 22.7461 32.1642V36.3358C22.7461 36.601 22.8515 36.8553 23.039 37.0429L29.7889 43.7928C30.4189 44.4228 31.496 43.9766 31.496 43.0857V38.9142C31.496 38.649 31.3907 38.3946 31.2032 38.2071L24.4532 31.4571Z"/></symbol><symbol xmlns="http://www.w3.org/2000/svg" id="custom-plugins" width="32" height="32" fill="#000" viewBox="0 0 32 32"><rect width="32" height="32" fill="#E5E7E0" rx="6"/><path d="M28.806 14.145a2.957 2.957 0 00-3.625-2.091 2.946 2.946 0 00-2.069 2.044s-.267.332-.718.623l-1.57-5.856a1.973 1.973 0 00-2.419-1.397l-5.857 1.568c.027-.537.18-.936.18-.936a2.95 2.95 0 00.738-2.813A2.962 2.962 0 009.84 3.194a2.958 2.958 0 00-2.093 3.624 2.95 2.95 0 002.044 2.07s.333.267.626.717l-5.858 1.57a1.979 1.979 0 00-1.399 2.421l1.591 5.937c.395-.262.64-.551.64-.551a2.683 2.683 0 011.886-1.863 2.697 2.697 0 013.305 1.906 2.7 2.7 0 01-1.908 3.307 2.691 2.691 0 01-2.565-.672s-.355-.129-.829-.158l1.591 5.939a1.976 1.976 0 002.422 1.398l5.937-1.59c-.263-.396-.552-.639-.552-.639a2.695 2.695 0 01-1.864-1.887 2.698 2.698 0 115.214-1.399 2.696 2.696 0 01-.672 2.567s-.128.354-.158.829l5.94-1.594a1.976 1.976 0 001.398-2.42l-1.569-5.856c.536.027.934.183.934.183a2.952 2.952 0 002.814.736 2.958 2.958 0 002.091-3.624z" transform="translate(4 4) scale(.8)"/></symbol></svg>