<svg xmlns="http://www.w3.org/2000/svg" width="16" height="16" fill="none" viewBox="0 0 16 16"><path fill="#D0D1C9" d="M11.4446 1.97168C8.8364 -0.636476 4.58088 -0.636476 1.97272 1.97168C-0.635438 4.57984 -0.635438 8.83537 1.97272 11.4435C4.30904 13.7798 7.94088 14.0354 10.549 12.1954L14.0372 15.6836C14.4853 16.1317 15.2209 16.1317 15.669 15.6836C16.1172 15.2354 16.1172 14.4998 15.669 14.0517L12.1809 10.5474C14.0209 7.93988 13.7809 4.3074 11.4446 1.97172L11.4446 1.97168ZM9.94081 9.93985C8.14897 11.7317 5.25266 11.7317 3.47714 9.93985C1.6853 8.14801 1.6853 5.25169 3.47714 3.47616C5.26898 1.69984 8.16529 1.68432 9.94081 3.47616C11.7165 5.25185 11.7165 8.14737 9.94081 9.93985Z"/></svg>