<svg width="0" height="0" class="hidden"><symbol xmlns="http://www.w3.org/2000/svg" id="faq2" fill="none" viewBox="0 0 36 36"><path fill="currentColor" d="M18 0a18.002 18.002 0 0 0-3.511 35.654 18.002 18.002 0 0 0 16.24-30.383A18.004 18.004 0 0 0 18 0Zm0 29.455a1.636 1.636 0 1 1 .003-3.272A1.636 1.636 0 0 1 18 29.455Zm2.504-10.31a1.533 1.533 0 0 0-.867 1.457v.67A1.64 1.64 0 0 1 18 22.909a1.635 1.635 0 0 1-1.637-1.637v-.687a4.767 4.767 0 0 1 2.881-4.468 3.274 3.274 0 0 0 .579-5.745 3.286 3.286 0 0 0-1.659-.55 3.278 3.278 0 0 0-2.97 1.586 3.265 3.265 0 0 0-.466 1.683 1.636 1.636 0 0 1-3.274 0 6.54 6.54 0 0 1 4.88-6.339 6.564 6.564 0 0 1 6.302 1.703 6.553 6.553 0 0 1 1.812 3.458 6.55 6.55 0 0 1-3.944 7.216v.017Z"/></symbol><symbol xmlns="http://www.w3.org/2000/svg" id="selfHost" fill="none" viewBox="0 0 36 36"><g fill="currentColor" clipPath="url(#a)"><path d="M.72 14.4h34.56c.54 0 .9-.54.72-1.08L29.52.36C29.34.18 28.98 0 28.8 0H7.2c-.18 0-.54.18-.54.36L0 13.32c-.18.54.18 1.08.72 1.08ZM.72 18c-.18 0-.54 0-.72-.18v5.4c0 1.08.72 1.8 1.8 1.8h32.4c1.08 0 1.8-.72 1.8-1.8v-5.4H.72V18Zm29.88 5.4c-1.08 0-1.8-.72-1.8-1.8s.72-1.8 1.8-1.8 1.8.72 1.8 1.8c0 .9-.72 1.8-1.8 1.8ZM.72 28.8H0v5.4C0 35.28.72 36 1.8 36h32.4c1.08 0 1.8-.72 1.8-1.8v-5.4H.72Zm29.88 5.4c-1.08 0-1.8-.72-1.8-1.8s.72-1.8 1.8-1.8 1.8.72 1.8 1.8c0 .9-.72 1.8-1.8 1.8Z"/></g><defs><clipPath id="a"><path fill="#fff" d="M0 0h36v36H0z"/></clipPath></defs></symbol><symbol xmlns="http://www.w3.org/2000/svg" id="partners" fill="none" viewBox="0 0 36 36"><path fill="currentColor" d="m35.584 14.218-.128-.606h-.024A17.98 17.98 0 0 0 22.359.547V.522l-.607-.127a18.334 18.334 0 0 0-5.675-.297c-.63.065-1.256.162-1.876.297l-.61.127a17.978 17.978 0 0 0-13.08 13.09l-.132.603-.001-.002c-.2.933-.327 1.88-.378 2.83v.96c0 .318 0 .747.038 1.12 0 .258.033.522.06.78v-.002c.068.628.165 1.251.296 1.868l.131.606h.002a17.989 17.989 0 0 0 4.732 8.361 17.985 17.985 0 0 0 8.357 4.737l.612.131c1.24.263 2.505.396 3.774.396h.95a18.595 18.595 0 0 0 2.825-.374l.603-.131a18.016 18.016 0 0 0 8.351-4.75 18.011 18.011 0 0 0 4.717-8.37l.131-.606h.002a18.54 18.54 0 0 0 .402-3.763 17.968 17.968 0 0 0-.399-3.788Zm-1.523-.454-6.145.71a10.624 10.624 0 0 0-6.42-6.406l.705-6.15a16.63 16.63 0 0 1 11.86 11.847Zm-6.93 4.955a9.05 9.05 0 0 1-.34 1.857 9.22 9.22 0 0 1-6.227 6.237 9.13 9.13 0 0 1-5.162 0 9.235 9.235 0 0 1-6.24-6.237 9.035 9.035 0 0 1-.347-1.912c0-.217-.022-.424-.022-.658 0-.233 0-.484.03-.726a9.177 9.177 0 0 1 11.653-8.1h.085a9.221 9.221 0 0 1 6.205 6.23c.257.842.39 1.717.394 2.597 0 .236-.013.475-.03.712ZM13.751 1.918l.713 6.15a10.62 10.62 0 0 0-6.417 6.406l-6.156-.71a16.608 16.608 0 0 1 11.86-11.846Zm-11.876 20.3 6.137-.704a10.603 10.603 0 0 0 6.452 6.43l-.713 6.148A16.616 16.616 0 0 1 1.89 22.218h-.013ZM22.19 34.095l-.693-6.15a10.608 10.608 0 0 0 6.427-6.431l6.142.704a16.629 16.629 0 0 1-11.865 11.873l-.011.004Z"/></symbol><symbol xmlns="http://www.w3.org/2000/svg" id="issue2" fill="none" viewBox="0 0 36 36"><g fill="currentColor" clipPath="url(#a)"><path d="M18 21.375a3.375 3.375 0 1 0 0-6.75 3.375 3.375 0 0 0 0 6.75Z"/><path d="M18 0a18 18 0 1 0 0 36 18 18 0 0 0 0-36ZM3.375 18a14.625 14.625 0 1 1 29.25 0 14.625 14.625 0 0 1-29.25 0Z" clipRule="evenodd" fillRule="evenodd"/></g><defs><clipPath id="a"><path fill="#fff" d="M0 0h36v36H0z"/></clipPath></defs></symbol><symbol xmlns="http://www.w3.org/2000/svg" id="api" fill="none" viewBox="0 0 36 36"><path fill="currentColor" d="M33.3 2H2.7A2.703 2.703 0 0 0 0 4.7v1.8h36V4.7C36 3.211 34.789 2 33.3 2ZM27 5.15a.9.9 0 1 1-.001-1.799A.9.9 0 0 1 27 5.15Zm2.7 0a.9.9 0 1 1-.001-1.799.9.9 0 0 1 .001 1.799Zm2.7 0a.9.9 0 1 1-.001-1.799.9.9 0 0 1 .001 1.799ZM0 30.8c0 1.489 1.211 2.7 2.7 2.7h30.6c1.489 0 2.7-1.211 2.7-2.7V8.3H0v22.5Zm18.9-11.25h5.4a.9.9 0 1 1 0 1.8h-5.4a.9.9 0 1 1 0-1.8Zm-7.836-2.064a.9.9 0 1 1 1.272-1.272l3.6 3.6a.9.9 0 0 1 0 1.272l-3.6 3.6a.897.897 0 0 1-1.272 0 .9.9 0 0 1 0-1.272l2.963-2.964-2.963-2.964Z"/></symbol><symbol xmlns="http://www.w3.org/2000/svg" id="trendz" fill="none" viewBox="0 0 24 24"><path fill="currentColor" fill-rule="evenodd" d="M22.911 6.809a1.5 1.5 0 0 1 .28 2.102l-6.045 7.906a2.5 2.5 0 0 1-2.883.814L9.37 15.75l-6.31 6.31a1.5 1.5 0 1 1-2.122-2.12l6.54-6.541a2.5 2.5 0 0 1 2.666-.566l4.846 1.864 5.817-7.608a1.5 1.5 0 0 1 2.103-.28Z" clip-rule="evenodd"/></symbol><symbol xmlns="http://www.w3.org/2000/svg" id="funnels" fill="none" viewBox="0 0 24 24"><path fill="currentColor" d="M7.147 21.232a2.697 2.697 0 1 1-5.395 0V3.698a2.697 2.697 0 1 1 5.395 0v17.534Z"/><path fill="currentColor" d="M15.57 21.232a2.697 2.697 0 1 1-5.394 0v-10.79a2.697 2.697 0 1 1 5.395 0v10.79Z" opacity=".75"/><path fill="currentColor" d="M24 21.232a2.697 2.697 0 1 1-5.395 0v-6.744a2.697 2.697 0 1 1 5.396 0v6.744Z" opacity=".5"/></symbol><symbol xmlns="http://www.w3.org/2000/svg" id="user-paths" fill="none" viewBox="0 0 24 24"><path fill="currentColor" d="M19.08 11.559h-1.876a2.947 2.947 0 0 1-2.024-.799l-3.117-2.922-2.276-2.133A4.336 4.336 0 0 0 6.81 4.527H4.934c.063.229.095.465.094.702.001.238-.03.476-.094.704h1.875a2.937 2.937 0 0 1 2.017.8l3.236 3.033 2.157 2.022a4.348 4.348 0 0 0 2.978 1.178h1.875a2.561 2.561 0 0 1-.083-.706c0-.237.03-.472.09-.701Z"/><path fill="currentColor" d="m13.168 11.57-1.065-.993-.04.082-1.227 2.292 1.064.998.162-.3 1.106-2.078ZM8.531 17.271a2.484 2.484 0 0 1-2.197 1.32h-1.41c.063.229.095.465.093.701.002.238-.03.476-.093.706h1.41a3.892 3.892 0 0 0 3.44-2.063l.891-1.673-1.061-1-1.073 2.01ZM19.08 4.527h-1.41a3.897 3.897 0 0 0-3.44 2.063l-.892 1.672 1.065.998 1.069-2.007v.001a2.487 2.487 0 0 1 2.197-1.32h1.414a2.699 2.699 0 0 1-.004-1.406Z" opacity=".5"/><path fill="currentColor" d="M19.079 18.59h-1.876c-.75 0-1.47-.285-2.017-.798l-3.123-2.906-2.277-2.134a4.332 4.332 0 0 0-2.978-1.177H4.933c.06.223.09.454.086.686.002.238-.03.476-.093.705H6.8a2.932 2.932 0 0 1 2.025.795l3.236 3.034 2.156 2.021a4.347 4.347 0 0 0 2.978 1.178h1.876a2.595 2.595 0 0 1-.095-.706c.003-.236.038-.47.102-.697ZM4.456 5.23A2.23 2.23 0 0 0 .755 3.557a2.228 2.228 0 0 0 1.196 3.881v2.614a2.227 2.227 0 0 0 0 4.418v2.577a2.228 2.228 0 1 0 .554 0v-2.559a2.227 2.227 0 0 0 0-4.417V7.438a2.228 2.228 0 0 0 1.95-2.208Z" opacity=".5"/><path fill="currentColor" d="M3.145 3.198a2.228 2.228 0 0 1-.64 4.24h-.554a2.228 2.228 0 1 1 1.194-4.24Z"/><path fill="currentColor" d="M23.999 12.26a2.228 2.228 0 0 0-1.95-2.208V7.438a2.229 2.229 0 1 0-.555 0v2.614a2.227 2.227 0 0 0 0 4.418v2.576a2.228 2.228 0 1 0 .554 0v-2.558a2.228 2.228 0 0 0 1.95-2.227Z" opacity=".5"/><path fill="currentColor" d="M22.049 10.052a2.228 2.228 0 0 1 1.95 2.209 2.228 2.228 0 0 1-1.95 2.227l-.555-.018a2.227 2.227 0 0 1 0-4.418h.555Z"/></symbol><symbol xmlns="http://www.w3.org/2000/svg" id="correlation-analysis" fill="none" viewBox="0 0 24 24"><path fill="currentColor" d="M20.936 3.906 21 15.092a.78.78 0 0 1-.777.785.773.773 0 0 1-.778-.777l-.056-9.383L4.34 20.765a.77.77 0 0 1-1.106 0 .77.77 0 0 1 0-1.106L18.283 4.611 8.9 4.563a.785.785 0 0 1-.778-.785A.78.78 0 0 1 8.908 3l11.186.064c.512 0 .817.345.84.842h.002Z"/></symbol><symbol xmlns="http://www.w3.org/2000/svg" id="session-recording" fill="none" viewBox="0 0 24 24"><g clip-path="url(#a)"><path fill="currentColor" fill-rule="evenodd" d="M0 .545v7.637a.544.544 0 1 0 1.09-.001v-7.09h7.092a.546.546 0 0 0 0-1.091H.545C.245 0 0 .244 0 .545ZM15.818 0h7.637c.3 0 .545.244.545.545l-.001 7.636a.546.546 0 0 1-1.09 0v-7.09h-7.091a.546.546 0 0 1 0-1.091Zm7.092 15.818a.546.546 0 0 1 1.09 0v7.637c0 .3-.244.545-.545.545h-7.637a.546.546 0 0 1 0-1.09l7.092-.001v-7.091ZM1.09 22.91h7.092a.546.546 0 0 1 0 1.09H.545A.546.546 0 0 1 0 23.455v-7.637a.546.546 0 0 1 1.09 0v7.092ZM12 7.09A4.916 4.916 0 0 1 16.91 12 4.916 4.916 0 0 1 12 16.91 4.916 4.916 0 0 1 7.09 12 4.916 4.916 0 0 1 12 7.09Z" clip-rule="evenodd"/></g><defs><clipPath id="a"><path fill="#fff" d="M0 0h24v24H0z"/></clipPath></defs></symbol><symbol xmlns="http://www.w3.org/2000/svg" id="feature-flags" fill="none" viewBox="0 0 24 24"><path fill="currentColor" d="M5.375 10.8h13.248c2.64 0 4.775-2.16 4.775-4.776 0-2.64-2.16-4.775-4.775-4.775L5.375 1.248C2.735 1.248.6 3.408.6 6.024.6 8.64 2.76 10.8 5.375 10.8Zm13.249-7.464a2.7 2.7 0 0 1 2.688 2.687c0 1.465-1.225 2.688-2.688 2.688a2.7 2.7 0 0 1-2.688-2.688c0-1.463 1.2-2.687 2.688-2.687Z"/><path fill="currentColor" d="M18.624 13.2H5.375C2.735 13.2.6 15.36.6 17.976c0 2.64 2.16 4.775 4.775 4.775h13.248c2.64 0 4.775-2.16 4.775-4.776.001-2.615-2.159-4.775-4.774-4.775ZM5.375 20.664a2.7 2.7 0 0 1-2.688-2.687 2.7 2.7 0 0 1 2.688-2.688 2.7 2.7 0 0 1 2.688 2.688c0 1.488-1.2 2.687-2.688 2.687Z" opacity=".5"/></symbol><symbol xmlns="http://www.w3.org/2000/svg" id="experimentation" fill="none" viewBox="0 0 24 24"><path fill="currentColor" d="M12 24h-1.714V0H12v24ZM0 21V3c0-.414.384-.75.857-.75h9.429c.473 0 .857.336.857.75v18c0 .414-.384.75-.857.75H.857C.384 21.75 0 21.414 0 21ZM3.429 5.25c0-.414-.384-.75-.858-.75-.473 0-.857.336-.857.75s.384.75.857.75c.474 0 .858-.336.858-.75Zm0 2.25c0-.414-.384-.75-.858-.75-.473 0-.857.336-.857.75s.384.75.857.75c.474 0 .858-.336.858-.75Zm-1.715 12H9.43V18H1.714v1.5Zm0-3H9.43V15H1.714v1.5Zm0-3H9.43V12H1.714v1.5Z"/><path fill="currentColor" d="M15.43 3.75v6h6.856v-6H15.43ZM24 2.25v9H13.716v-9H24Z" opacity=".6"/><path fill="currentColor" d="M13.715 12.75H24v9H13.715v-9Z"/></symbol><symbol xmlns="http://www.w3.org/2000/svg" id="heatmaps" fill="none" viewBox="0 0 24 24"><path fill="currentColor" d="M18 13.116c1.959 0 3.546-1.624 3.546-3.628 0-2.003-1.587-3.628-3.546-3.628-1.958 0-3.545 1.625-3.545 3.628 0 2.004 1.587 3.628 3.545 3.628ZM10.5 20.651c2.635 0 4.772-2.186 4.772-4.883 0-2.698-2.137-4.884-4.773-4.884-2.636 0-4.772 2.186-4.772 4.883 0 2.698 2.136 4.884 4.772 4.884ZM4.773 11.721c1.43 0 2.59-1.187 2.59-2.651 0-1.464-1.16-2.651-2.59-2.651-1.431 0-2.591 1.187-2.591 2.65 0 1.465 1.16 2.652 2.59 2.652ZM18.954 20.372c.98 0 1.773-.812 1.773-1.814s-.794-1.814-1.773-1.814c-.979 0-1.772.812-1.772 1.814s.793 1.814 1.772 1.814ZM4.5 1.953c.227 0 .41-.187.41-.418a.414.414 0 0 0-.41-.419.414.414 0 0 0-.408.419c0 .231.183.418.409.418ZM1.772 1.953c.226 0 .41-.187.41-.418a.414.414 0 0 0-.41-.419.414.414 0 0 0-.409.419c0 .231.183.418.41.418ZM3.136 1.953c.226 0 .409-.187.409-.418a.414.414 0 0 0-.41-.419.414.414 0 0 0-.408.419c0 .231.183.418.409.418ZM.137 3.07h23.767v-.558H.137v.558Z"/><path fill="currentColor" d="M.545.558v22.884h22.91V.558H.544Zm0-.558h22.91a.54.54 0 0 1 .385.163c.102.105.16.247.16.395v22.884c0 .148-.058.29-.16.395a.54.54 0 0 1-.386.163H.546a.54.54 0 0 1-.385-.163.565.565 0 0 1-.16-.395V.558C0 .41.057.268.16.163A.54.54 0 0 1 .545 0Z"/></symbol><symbol xmlns="http://www.w3.org/2000/svg" id="apps" fill="none" viewBox="0 0 24 24"><path fill="currentColor" d="M6.666 13.333a4 4 0 0 1 4 4V20a4 4 0 0 1-4 4H4a4 4 0 0 1-4-4v-2.666a4 4 0 0 1 4-4h2.666Zm12 0c.684 0 1.248.515 1.325 1.179l.009.154v2.668h2.667a1.333 1.333 0 0 1 .155 2.657l-.155.009H20v2.667a1.333 1.333 0 0 1-2.658.155l-.009-.155V20h-2.667a1.333 1.333 0 0 1-.154-2.658l.154-.008h2.667v-2.668c0-.736.598-1.333 1.334-1.333ZM6.666 16H4c-.737 0-1.334.597-1.334 1.333V20c0 .736.597 1.334 1.334 1.334h2.666C7.403 21.334 8 20.736 8 20v-2.667C8 16.597 7.403 16 6.666 16Zm0-16a4 4 0 0 1 4 4v2.666a4 4 0 0 1-4 4H4a4 4 0 0 1-4-4V4a4 4 0 0 1 4-4h2.666ZM20 0a4 4 0 0 1 4 4v2.666a4 4 0 0 1-4 4h-2.666a4 4 0 0 1-4-4V4a4 4 0 0 1 4-4H20ZM6.666 2.666H4c-.737 0-1.334.597-1.334 1.334v2.666C2.666 7.403 3.263 8 4 8h2.666C7.403 8 8 7.403 8 6.666V4c0-.737-.597-1.334-1.334-1.334Zm13.334 0h-2.666C16.597 2.666 16 3.263 16 4v2.666C16 7.403 16.597 8 17.334 8H20c.737 0 1.334-.597 1.334-1.334V4c0-.737-.597-1.334-1.334-1.334Z"/></symbol><symbol xmlns="http://www.w3.org/2000/svg" id="toolbar" fill="none" viewBox="0 0 24 24"><path fill="currentColor" d="M15.418 14.194c0 .101-.04.199-.113.269l-.943.915a.376.376 0 0 1-.53-.007l-1.71-1.758a.376.376 0 1 1 .536-.525l1.452 1.491.402-.393-1.385-1.425a.374.374 0 1 1 .537-.522l1.647 1.692a.37.37 0 0 1 .107.263ZM4.02 8.1a4.125 4.125 0 1 0 4.125-4.125A4.132 4.132 0 0 0 4.021 8.1ZM8.146.975A7.125 7.125 0 1 1 1.021 8.1 7.133 7.133 0 0 1 8.146.975Zm0 2.25A4.877 4.877 0 0 0 3.272 8.1a4.875 4.875 0 0 0 9.75 0 4.88 4.88 0 0 0-4.876-4.875Zm7.77 10.12 6.276 6.45c.342.349.533.819.532 1.307v.026a1.874 1.874 0 0 1-3.218 1.282l-6.276-6.45a.419.419 0 0 1-.105-.266c0-.1.04-.195.112-.263l2.15-2.091v-.001a.375.375 0 0 1 .53.005v.001Zm-.15 2.355a.376.376 0 0 0-.018.53l4.875 5.25a.375.375 0 0 0 .549-.51l-4.875-5.25a.376.376 0 0 0-.53-.02Z"/></symbol><symbol xmlns="http://www.w3.org/2000/svg" id="insights" fill="none" viewBox="0 0 24 24"><path fill="currentColor" d="M21.912 2.352H2.087C1.272 2.352.6 3.024.6 3.84v16.296c0 .815.672 1.487 1.487 1.487h19.825c.816 0 1.488-.672 1.488-1.488V3.866c0-.84-.672-1.513-1.488-1.513ZM7.704 3.888c.408 0 .72.335.72.72 0 .408-.335.72-.72.72a.722.722 0 0 1-.72-.72c0-.384.336-.72.72-.72Zm-2.232 0c.408 0 .72.335.72.72 0 .408-.336.72-.72.72a.722.722 0 0 1-.72-.72c-.024-.384.312-.72.72-.72Zm-2.257 0c.408 0 .72.335.72.72 0 .408-.335.72-.72.72a.722.722 0 0 1-.72-.72c0-.384.313-.72.72-.72ZM21.552 19.8H2.447V6.936h19.105V19.8Z"/><path fill="currentColor" d="M19.343 11.28C19.128 9.984 18.023 9 16.68 9c-.312 0-.6.072-.888.168l1.152 2.135 2.4.001v-.024Z"/><path fill="currentColor" d="M16.68 14.425a2.69 2.69 0 0 0 2.664-2.28H16.68a.455.455 0 0 1-.384-.216l-1.273-2.352c-.647.504-1.08 1.272-1.08 2.16a2.741 2.741 0 0 0 2.737 2.687ZM5.087 14.616a.51.51 0 0 0 .36-.168l1.656-2.208 1.368 1.008c.095.072.216.095.335.072a.448.448 0 0 0 .288-.168l1.633-2.208.455.336a.288.288 0 0 0 .336.024c.12-.047.167-.168.192-.287l.072-1.8c0-.096-.048-.216-.12-.265-.096-.072-.192-.072-.288-.048L9.67 9.48a.345.345 0 0 0-.216.264c-.024.12.025.24.12.313l.456.335-1.39 1.896-1.368-1.033c-.096-.072-.216-.095-.336-.072a.448.448 0 0 0-.288.168l-1.92 2.568a.456.456 0 0 0 .096.624.475.475 0 0 0 .263.073ZM4.945 17.808h1.224a.318.318 0 0 0 .313-.312v-1.728a.318.318 0 0 0-.313-.312H4.945a.318.318 0 0 0-.312.312v1.752c.023.168.143.288.312.288ZM8.927 14.256H7.703a.318.318 0 0 0-.312.312v2.952c0 .168.145.312.313.312h1.224a.318.318 0 0 0 .312-.312v-2.952a.318.318 0 0 0-.313-.312ZM10.44 13.032a.318.318 0 0 0-.313.312v4.176c0 .168.144.312.312.312h1.225a.318.318 0 0 0 .312-.312l-.001-4.176a.318.318 0 0 0-.312-.312h-1.224ZM14.279 17.808h4.776a.318.318 0 0 0 .312-.312V16.27a.318.318 0 0 0-.313-.312H14.28a.318.318 0 0 0-.312.313v1.248c0 .168.12.288.312.288Z"/></symbol><symbol xmlns="http://www.w3.org/2000/svg" id="group-analytics" fill="none" viewBox="0 0 24 24"><path fill="currentColor" d="M7.965 18.828a.928.928 0 0 1-1.28.295 10.13 10.13 0 0 1-4.457-6.163.929.929 0 0 1 1.805-.432 8.26 8.26 0 0 0 3.646 5.02.928.928 0 0 1 .286 1.28Zm.48-15.614a8.208 8.208 0 0 1 7.11 0 .932.932 0 0 0 .807-1.68 10.067 10.067 0 0 0-8.724 0 .931.931 0 0 0 .807 1.68Zm7.615 15.614a.923.923 0 0 0 1.279.295 10.122 10.122 0 0 0 4.457-6.163.929.929 0 0 0-1.805-.434 8.262 8.262 0 0 1-3.636 5.04.928.928 0 0 0-.295 1.262Zm4.08-13.2a2.113 2.113 0 0 0 1.494-3.61 2.115 2.115 0 0 0-3.609 1.496 2.116 2.116 0 0 0 2.108 2.126l.007-.012Zm3.226 1.17h-.001a1.811 1.811 0 0 0-1.349-.604h-.657c-.067 0-.13.03-.17.082l-1.03 1.291c-.036.046-.07.043-.106 0l-1.013-1.28a.218.218 0 0 0-.17-.08h-.614c-.984 0-1.787.787-1.805 1.77V9.84c0 .29.235.526.525.526h6.317c.29 0 .526-.236.526-.526V7.975a1.81 1.81 0 0 0-.459-1.166l.006-.01ZM3.865 5.64A2.116 2.116 0 0 0 5.36 2.03a2.115 2.115 0 1 0-1.495 3.61Zm3.161 4.73a.525.525 0 0 0 .523-.53V7.975a1.805 1.805 0 0 0-1.807-1.77h-.646a.212.212 0 0 0-.17.08l-1.024 1.28c-.036.046-.07.043-.106 0L2.773 6.288a.218.218 0 0 0-.17-.082h-.617c-.983 0-1.786.787-1.804 1.77V9.84c0 .29.235.526.525.526l6.32.005Zm4.985 8.35a2.114 2.114 0 1 0-.001-4.229 2.114 2.114 0 0 0 .001 4.229Zm-3.226 1.17a1.806 1.806 0 0 0-.455 1.167v1.87c0 .29.235.525.525.525h6.316c.291 0 .526-.235.526-.525v-1.87a1.805 1.805 0 0 0-1.807-1.77h-.645c-.067 0-.13.03-.17.08L12.05 20.64c-.036.046-.07.043-.106 0l-1.025-1.27a.213.213 0 0 0-.17-.081h-.615a1.81 1.81 0 0 0-1.349.602Z"/></symbol></svg>