<svg xmlns="http://www.w3.org/2000/svg" width="1259" height="43" fill="none" viewBox="0 0 1259 43"><g filter="url(#filter0_f)"><path fill="url(#paint0_linear)" fill-rule="evenodd" d="M1208.07 26.485L3 23.4291V20.9843L1208.07 17.3171V26.485Z" clip-rule="evenodd"/></g><path fill="#8B4B4B" fill-rule="evenodd" d="M1195.6 4.5422L1195.63 10.51L1193.3 10.5192L1193.27 4.55138L1195.6 4.5422Z" clip-rule="evenodd"/><path fill="#8B4B4B" fill-rule="evenodd" d="M1195.63 31.2044L1195.65 37.1722L1193.32 37.1815L1193.3 31.2137L1195.63 31.2044Z" clip-rule="evenodd"/><path fill="#3259A6" fill-rule="evenodd" d="M1232.44 14.5922L1200.46 14.5922L1200.4 -0.000133293L1205.66 0.0830581C1208.98 0.0466652 1213.55 1.93806 1215.87 4.3076C1215.87 4.3076 1218.99 7.98659 1223.08 10.5577C1227.17 13.1288 1232.44 14.5922 1232.44 14.5922Z" clip-rule="evenodd"/><path fill="url(#paint1_linear)" fill-rule="evenodd" d="M1232.44 14.5922L1200.46 14.5922L1200.4 -0.000133293L1205.66 0.0830581C1208.98 0.0466652 1213.55 1.93806 1215.87 4.3076C1215.87 4.3076 1218.99 7.98659 1223.08 10.5577C1227.17 13.1288 1232.44 14.5922 1232.44 14.5922Z" clip-rule="evenodd"/><path fill="#DD429F" fill-rule="evenodd" d="M1223.98 14.5254L1200.45 14.5254L1200.41 3.08946L1204.3 3.15445C1206.76 3.12672 1209.3 3.78388 1212.46 5.98757C1215.45 8.06423 1215.22 9.4697 1218.25 11.4581C1221.28 13.4468 1223.98 14.5254 1223.98 14.5254Z" clip-rule="evenodd"/><path fill="url(#paint2_linear)" fill-rule="evenodd" d="M1223.98 14.5254L1200.45 14.5254L1200.41 3.08946L1204.3 3.15445C1206.76 3.12672 1209.3 3.78388 1212.46 5.98757C1215.45 8.06423 1215.22 9.4697 1218.25 11.4581C1221.28 13.4468 1223.98 14.5254 1223.98 14.5254Z" clip-rule="evenodd"/><path fill="#365DAB" fill-rule="evenodd" d="M1232.27 27.2038L1200.49 27.2575L1200.55 42.0478L1205.81 41.9231C1209.12 41.9331 1213.68 40.0055 1215.98 37.6176C1215.98 37.6176 1219.07 33.914 1223.14 31.3107C1227.22 28.7072 1232.27 27.2038 1232.27 27.2038Z" clip-rule="evenodd"/><path fill="url(#paint3_linear)" fill-rule="evenodd" d="M1232.27 27.2038L1200.49 27.2575L1200.55 42.0478L1205.81 41.9231C1209.12 41.9331 1213.68 40.0055 1215.98 37.6176C1215.98 37.6176 1219.07 33.914 1223.14 31.3107C1227.22 28.7072 1232.27 27.2038 1232.27 27.2038Z" clip-rule="evenodd"/><path fill="#DD42A8" fill-rule="evenodd" d="M1224.01 27.1888L1200.43 27.2366L1200.48 38.6724L1204.37 38.5767C1206.82 38.5848 1209.36 37.9078 1212.51 35.6791C1215.47 33.5789 1215.24 32.1752 1218.25 30.1626C1221.27 28.1503 1224.01 27.1888 1224.01 27.1888Z" clip-rule="evenodd"/><path fill="url(#paint4_linear)" fill-rule="evenodd" d="M1224.01 27.1888L1200.43 27.2366L1200.48 38.6724L1204.37 38.5767C1206.82 38.5848 1209.36 37.9078 1212.51 35.6791C1215.47 33.5789 1215.24 32.1752 1218.25 30.1626C1221.27 28.1503 1224.01 27.1888 1224.01 27.1888Z" clip-rule="evenodd"/><path fill="#DCDDDE" fill-rule="evenodd" d="M1247.44 26.2929C1246.6 26.7935 1244.13 27.2061 1244.13 27.2061L1198.48 27.2377L1196.87 25.6477L1196.77 16.1203L1198.41 14.5244L1244.02 14.3861C1245.04 14.3822 1246.56 14.8104 1247.42 15.3427L1257.47 18.5964C1259.43 19.8057 1259.41 21.7391 1257.44 22.9146L1247.44 26.2929Z" clip-rule="evenodd"/><path fill="url(#paint5_linear)" fill-rule="evenodd" d="M1247.44 26.2929C1246.6 26.7935 1244.13 27.2061 1244.13 27.2061L1198.48 27.2377L1196.87 25.6477L1196.77 16.1203L1198.41 14.5244L1244.02 14.3861C1245.04 14.3822 1246.56 14.8104 1247.42 15.3427L1257.47 18.5964C1259.43 19.8057 1259.41 21.7391 1257.44 22.9146L1247.44 26.2929Z" clip-rule="evenodd"/><path fill="url(#paint6_linear)" fill-rule="evenodd" d="M1247.44 26.2929C1246.6 26.7935 1244.13 27.2061 1244.13 27.2061L1198.48 27.2377L1196.87 25.6477L1196.77 16.1203L1198.41 14.5244L1244.02 14.3861C1245.04 14.3822 1246.56 14.8104 1247.42 15.3427L1257.47 18.5964C1259.43 19.8057 1259.41 21.7391 1257.44 22.9146L1247.44 26.2929Z" clip-rule="evenodd"/><path fill="#213CA8" fill-rule="evenodd" d="M1248.38 17.5003L1249.25 19.1185L1247.93 19.1674L1247.04 17.5056L1248.38 17.5003Z" clip-rule="evenodd"/><path fill="url(#paint7_linear)" fill-rule="evenodd" d="M1248.38 17.5003L1249.25 19.1185L1247.93 19.1674L1247.04 17.5056L1248.38 17.5003Z" clip-rule="evenodd"/><path fill="#213CA8" fill-rule="evenodd" d="M1249.31 19.5568C1249.31 19.5568 1249.54 20.4654 1249.55 20.8116C1249.55 21.1684 1249.31 22.068 1249.31 22.068L1247.97 22.0517C1247.97 22.0517 1248.21 21.1539 1248.2 20.7993C1248.2 20.4733 1247.99 19.6148 1247.99 19.6148L1249.31 19.5568Z" clip-rule="evenodd"/><path fill="url(#paint8_linear)" fill-rule="evenodd" d="M1249.31 19.5568C1249.31 19.5568 1249.54 20.4654 1249.55 20.8116C1249.55 21.1684 1249.31 22.068 1249.31 22.068L1247.97 22.0517C1247.97 22.0517 1248.21 21.1539 1248.2 20.7993C1248.2 20.4733 1247.99 19.6148 1247.99 19.6148L1249.31 19.5568Z" clip-rule="evenodd"/><path fill="#213CA8" fill-rule="evenodd" d="M1249.21 22.4608L1248.35 23.967L1247.01 23.9723L1247.86 22.4547L1249.21 22.4608Z" clip-rule="evenodd"/><path fill="url(#paint9_linear)" fill-rule="evenodd" d="M1249.21 22.4608L1248.35 23.967L1247.01 23.9723L1247.86 22.4547L1249.21 22.4608Z" clip-rule="evenodd"/><path fill="#9B9B9B" fill-rule="evenodd" d="M1207.91 14.3861L1207.91 27.2397L1204.12 27.2397L1204.04 14.4001L1207.91 14.3861Z" clip-rule="evenodd"/><path fill="url(#paint10_linear)" fill-rule="evenodd" d="M1207.91 14.3861L1207.91 27.2397L1204.12 27.2397L1204.04 14.4001L1207.91 14.3861Z" clip-rule="evenodd"/><path fill="#4570A2" fill-rule="evenodd" d="M1202.4 19.6176L1204.24 20.9534L1204.21 20.9779L1204.21 20.9779L1203.51 21.4847L1202.38 22.3151L1199.3 21.7458L1194.38 20.8622L1194.54 20.864L1194.41 20.8393L1202.4 19.6176Z" clip-rule="evenodd"/><path fill="url(#paint11_linear)" fill-rule="evenodd" d="M1202.4 19.6176L1204.24 20.9534L1204.21 20.9779L1204.21 20.9779L1203.51 21.4847L1202.38 22.3151L1199.3 21.7458L1194.38 20.8622L1194.54 20.864L1194.41 20.8393L1202.4 19.6176Z" clip-rule="evenodd"/><path fill="#003C80" fill-rule="evenodd" d="M1251.27 16.4622L1256.9 18.063C1259.64 19.4437 1259.72 21.7704 1257.01 23.2143L1251.29 24.9657L1251.27 16.4622Z" clip-rule="evenodd"/><path fill="url(#paint12_linear)" fill-rule="evenodd" d="M1251.27 16.4622L1256.9 18.063C1259.64 19.4437 1259.72 21.7704 1257.01 23.2143L1251.29 24.9657L1251.27 16.4622Z" clip-rule="evenodd"/><path fill="#F9CC69" fill-rule="evenodd" d="M1252.88 19.4545L1252.89 22.0874L1252.05 22.0907L1252.04 19.4579L1252.88 19.4545Z" clip-rule="evenodd"/><path fill="url(#paint13_linear)" fill-rule="evenodd" d="M1252.88 19.4545L1252.89 22.0874L1252.05 22.0907L1252.04 19.4579L1252.88 19.4545Z" clip-rule="evenodd"/><path fill="#001462" fill-rule="evenodd" d="M1252.21 16.7326L1252.24 24.6594L1251.29 24.9713L1251.26 16.4579L1252.21 16.7326Z" clip-rule="evenodd"/><path fill="url(#paint14_linear)" fill-rule="evenodd" d="M1252.21 16.7326L1252.24 24.6594L1251.29 24.9713L1251.26 16.4579L1252.21 16.7326Z" clip-rule="evenodd"/><path fill="#9F0000" fill-rule="evenodd" d="M1196.79 17.2147L1196.8 19.4652L1195.42 19.4705L1194.11 20.2177L1194.09 16.4744L1195.42 17.2201L1196.79 17.2147Z" clip-rule="evenodd"/><path fill="url(#paint15_linear)" fill-rule="evenodd" d="M1196.79 17.2147L1196.8 19.4652L1195.42 19.4705L1194.11 20.2177L1194.09 16.4744L1195.42 17.2201L1196.79 17.2147Z" clip-rule="evenodd"/><path fill="#9F0000" fill-rule="evenodd" d="M1196.8 22.4764L1196.81 24.7269L1195.44 24.7324L1194.12 25.4794L1194.1 21.7361L1195.43 22.482L1196.8 22.4764Z" clip-rule="evenodd"/><path fill="url(#paint16_linear)" fill-rule="evenodd" d="M1196.8 22.4764L1196.81 24.7269L1195.44 24.7324L1194.12 25.4794L1194.1 21.7361L1195.43 22.482L1196.8 22.4764Z" clip-rule="evenodd"/><path fill="#F7A501" fill-rule="evenodd" d="M1195.45 17.2294L1195.44 19.4794L1194.09 20.2817L1194.08 16.3982L1195.45 17.2294Z" clip-rule="evenodd"/><path fill="url(#paint17_linear)" fill-rule="evenodd" d="M1195.45 17.2294L1195.44 19.4794L1194.09 20.2817L1194.08 16.3982L1195.45 17.2294Z" clip-rule="evenodd"/><path fill="#F7A501" fill-rule="evenodd" d="M1195.42 22.4759L1195.41 24.753L1194.03 25.5811L1194.05 21.6447L1195.42 22.4759Z" clip-rule="evenodd"/><path fill="url(#paint18_linear)" fill-rule="evenodd" d="M1195.42 22.4759L1195.41 24.753L1194.03 25.5811L1194.05 21.6447L1195.42 22.4759Z" clip-rule="evenodd"/><path fill="#AE2121" fill-rule="evenodd" d="M1196.43 4.15173L1196.45 10.8765L1195.51 10.8801L1195.48 4.15555L1196.43 4.15173Z" clip-rule="evenodd"/><path fill="#AE2121" fill-rule="evenodd" d="M1196.45 30.816L1196.48 37.5407L1195.53 37.5446L1195.5 30.8198L1196.45 30.816Z" clip-rule="evenodd"/><path fill="#C63560" fill-rule="evenodd" d="M1194.7 7.672C1194.76 13.1613 1189.75 13.2677 1189.75 13.2677L1189.73 1.91929C1189.73 1.91929 1194.63 2.16139 1194.7 7.672Z" clip-rule="evenodd"/><path fill="url(#paint19_linear)" fill-rule="evenodd" d="M1194.7 7.672C1194.76 13.1613 1189.75 13.2677 1189.75 13.2677L1189.73 1.91929C1189.73 1.91929 1194.63 2.16139 1194.7 7.672Z" clip-rule="evenodd"/><path fill="#C63560" fill-rule="evenodd" d="M1194.72 34.3344C1194.79 39.8236 1189.78 39.9301 1189.78 39.9301L1189.75 28.5818C1189.75 28.5818 1194.66 28.8237 1194.72 34.3344Z" clip-rule="evenodd"/><path fill="url(#paint20_linear)" fill-rule="evenodd" d="M1194.72 34.3344C1194.79 39.8236 1189.78 39.9301 1189.78 39.9301L1189.75 28.5818C1189.75 28.5818 1194.66 28.8237 1194.72 34.3344Z" clip-rule="evenodd"/><path fill="#D76D31" fill-rule="evenodd" d="M1200.44 3.58395L1200.47 11.3353L1196.11 11.3527L1196.08 3.60128L1200.44 3.58395Z" clip-rule="evenodd"/><path fill="url(#paint21_linear)" fill-rule="evenodd" d="M1200.44 3.58395L1200.47 11.3353L1196.11 11.3527L1196.08 3.60128L1200.44 3.58395Z" clip-rule="evenodd"/><path fill="#D76D31" fill-rule="evenodd" d="M1200.46 30.2466L1200.49 37.9978L1196.13 38.0151L1196.1 30.2637L1200.46 30.2466Z" clip-rule="evenodd"/><path fill="url(#paint22_linear)" fill-rule="evenodd" d="M1200.46 30.2466L1200.49 37.9978L1196.13 38.0151L1196.1 30.2637L1200.46 30.2466Z" clip-rule="evenodd"/><defs><filter id="filter0_f" width="1209.83" height="13.93" x=".619" y="14.936" color-interpolation-filters="sRGB" filterUnits="userSpaceOnUse"><feFlood flood-opacity="0" result="BackgroundImageFix"/><feBlend in="SourceGraphic" in2="BackgroundImageFix" mode="normal" result="shape"/><feGaussianBlur result="effect1_foregroundBlur" stdDeviation="1.191"/></filter><linearGradient id="paint0_linear" x1="1208.07" x2="3" y1="23.572" y2="23.615" gradientUnits="userSpaceOnUse"><stop stop-color="#F7A501"/><stop offset=".172" stop-color="#FF23CF"/><stop offset=".41" stop-color="#FFD47D"/><stop offset=".855" stop-color="#fff" stop-opacity="0"/></linearGradient><linearGradient id="paint1_linear" x1="1216.32" x2="1216.32" y1="14.79" y2="0" gradientUnits="userSpaceOnUse"><stop stop-color="#fff"/><stop offset="1" stop-color="#fff" stop-opacity="0"/></linearGradient><linearGradient id="paint2_linear" x1="1208.33" x2="1210.07" y1="16.542" y2="5.624" gradientUnits="userSpaceOnUse"><stop stop-color="#fff"/><stop offset="1" stop-color="#fff" stop-opacity="0"/></linearGradient><linearGradient id="paint3_linear" x1="1216.38" x2="1216.38" y1="42.048" y2="27.204" gradientUnits="userSpaceOnUse"><stop stop-color="#fff"/><stop offset="1" stop-color="#fff" stop-opacity="0"/></linearGradient><linearGradient id="paint4_linear" x1="1212.22" x2="1212.22" y1="38.672" y2="27.189" gradientUnits="userSpaceOnUse"><stop stop-color="#fff"/><stop offset="1" stop-color="#fff" stop-opacity="0"/></linearGradient><linearGradient id="paint5_linear" x1="1229.91" x2="1202.99" y1="14.438" y2="27.529" gradientUnits="userSpaceOnUse"><stop stop-color="#fff"/><stop offset=".604" stop-color="silver" stop-opacity=".585"/><stop offset="1" stop-color="#686868" stop-opacity="0"/></linearGradient><linearGradient id="paint6_linear" x1="1227.85" x2="1227.85" y1="27.238" y2="14.386" gradientUnits="userSpaceOnUse"><stop stop-color="#560F46"/><stop offset=".401" stop-color="#FF0DCA" stop-opacity=".2"/><stop offset="1" stop-color="#fff" stop-opacity="0"/></linearGradient><linearGradient id="paint7_linear" x1="1248.14" x2="1248.14" y1="19.167" y2="17.5" gradientUnits="userSpaceOnUse"><stop stop-color="#fff" stop-opacity="0"/><stop offset="1" stop-color="#C635A6"/></linearGradient><linearGradient id="paint8_linear" x1="1248.76" x2="1248.76" y1="22.068" y2="19.557" gradientUnits="userSpaceOnUse"><stop stop-color="#fff" stop-opacity="0"/><stop offset="1" stop-color="#C635A6"/></linearGradient><linearGradient id="paint9_linear" x1="1248.11" x2="1248.11" y1="23.972" y2="22.455" gradientUnits="userSpaceOnUse"><stop stop-color="#fff" stop-opacity="0"/><stop offset="1" stop-color="#C635A6"/></linearGradient><linearGradient id="paint10_linear" x1="1206.13" x2="1206" y1="27.136" y2="14.386" gradientUnits="userSpaceOnUse"><stop stop-color="#DD425A"/><stop offset=".458" stop-color="#F7A501"/><stop offset="1" stop-color="#fff"/></linearGradient><linearGradient id="paint11_linear" x1="1201.42" x2="1201.42" y1="19.618" y2="21.906" gradientUnits="userSpaceOnUse"><stop offset=".484" stop-color="#fff"/><stop offset="1" stop-color="#839BFF"/></linearGradient><linearGradient id="paint12_linear" x1="1255.12" x2="1255.12" y1="24.966" y2="16.462" gradientUnits="userSpaceOnUse"><stop stop-color="#fff" stop-opacity="0"/><stop offset="1" stop-color="#fff"/></linearGradient><linearGradient id="paint13_linear" x1="1252.46" x2="1252.46" y1="22.091" y2="19.454" gradientUnits="userSpaceOnUse"><stop stop-color="#fff" stop-opacity="0"/><stop offset="1" stop-color="#fff"/></linearGradient><linearGradient id="paint14_linear" x1="1251.75" x2="1251.75" y1="24.971" y2="16.458" gradientUnits="userSpaceOnUse"><stop stop-color="#fff" stop-opacity="0"/><stop offset="1" stop-color="#fff"/></linearGradient><linearGradient id="paint15_linear" x1="1195.44" x2="1195.44" y1="20.218" y2="16.474" gradientUnits="userSpaceOnUse"><stop stop-color="#F7A501"/><stop offset="1" stop-color="#fff" stop-opacity="0"/></linearGradient><linearGradient id="paint16_linear" x1="1195.46" x2="1195.46" y1="25.479" y2="21.736" gradientUnits="userSpaceOnUse"><stop stop-color="#F7A501"/><stop offset="1" stop-color="#fff" stop-opacity="0"/></linearGradient><linearGradient id="paint17_linear" x1="1194.76" x2="1194.76" y1="20.282" y2="16.398" gradientUnits="userSpaceOnUse"><stop stop-color="#E30000"/><stop offset="1" stop-color="#fff" stop-opacity="0"/></linearGradient><linearGradient id="paint18_linear" x1="1194.72" x2="1194.72" y1="25.581" y2="21.645" gradientUnits="userSpaceOnUse"><stop stop-color="#E40000"/><stop offset="1" stop-color="#fff" stop-opacity="0"/></linearGradient><linearGradient id="paint19_linear" x1="1192.22" x2="1192.22" y1="13.268" y2="1.919" gradientUnits="userSpaceOnUse"><stop stop-color="#720000"/><stop offset="1" stop-color="#fff" stop-opacity="0"/></linearGradient><linearGradient id="paint20_linear" x1="1192.24" x2="1192.24" y1="39.93" y2="28.582" gradientUnits="userSpaceOnUse"><stop stop-color="#5F0000"/><stop offset="1" stop-color="#fff" stop-opacity="0"/></linearGradient><linearGradient id="paint21_linear" x1="1198.28" x2="1198.28" y1="11.353" y2="3.584" gradientUnits="userSpaceOnUse"><stop stop-color="#790000"/><stop offset="1" stop-color="#fff" stop-opacity="0"/></linearGradient><linearGradient id="paint22_linear" x1="1198.3" x2="1198.3" y1="38.015" y2="30.247" gradientUnits="userSpaceOnUse"><stop stop-color="#760000"/><stop offset="1" stop-color="#fff" stop-opacity="0"/></linearGradient></defs></svg>