<svg fill="none" viewBox="0 0 1259 43"><g filter="url(#filter0_f)"><path fill="url(#paint0_linear)" fill-rule="evenodd" d="M1208.07 26.485L3 23.429v-2.445l1205.07-3.667v9.168z" clip-rule="evenodd"/></g><path fill="#8B4B4B" fill-rule="evenodd" d="M1195.6 4.542l.03 5.968-2.33.01-.03-5.969 2.33-.009zm.03 26.662l.02 5.968-2.33.01-.02-5.968 2.33-.01z" clip-rule="evenodd"/><path fill="#3259A6" fill-rule="evenodd" d="M1232.44 14.592h-31.98L1200.4 0l5.26.083c3.32-.036 7.89 1.855 10.21 4.225 0 0 3.12 3.679 7.21 6.25 4.09 2.57 9.36 4.034 9.36 4.034z" clip-rule="evenodd"/><path fill="url(#paint1_linear)" fill-rule="evenodd" d="M1232.44 14.592h-31.98L1200.4 0l5.26.083c3.32-.036 7.89 1.855 10.21 4.225 0 0 3.12 3.679 7.21 6.25 4.09 2.57 9.36 4.034 9.36 4.034z" clip-rule="evenodd"/><path fill="#DD429F" fill-rule="evenodd" d="M1223.98 14.525h-23.53l-.04-11.436 3.89.065c2.46-.027 5 .63 8.16 2.834 2.99 2.076 2.76 3.482 5.79 5.47 3.03 1.989 5.73 3.067 5.73 3.067z" clip-rule="evenodd"/><path fill="url(#paint2_linear)" fill-rule="evenodd" d="M1223.98 14.525h-23.53l-.04-11.436 3.89.065c2.46-.027 5 .63 8.16 2.834 2.99 2.076 2.76 3.482 5.79 5.47 3.03 1.989 5.73 3.067 5.73 3.067z" clip-rule="evenodd"/><path fill="#365DAB" fill-rule="evenodd" d="M1232.27 27.204l-31.78.053.06 14.79 5.26-.124c3.31.01 7.87-1.918 10.17-4.305 0 0 3.09-3.704 7.16-6.307 4.08-2.604 9.13-4.107 9.13-4.107z" clip-rule="evenodd"/><path fill="url(#paint3_linear)" fill-rule="evenodd" d="M1232.27 27.204l-31.78.053.06 14.79 5.26-.124c3.31.01 7.87-1.918 10.17-4.305 0 0 3.09-3.704 7.16-6.307 4.08-2.604 9.13-4.107 9.13-4.107z" clip-rule="evenodd"/><path fill="#DD42A8" fill-rule="evenodd" d="M1224.01 27.189l-23.58.048.05 11.435 3.89-.095c2.45.008 4.99-.67 8.14-2.898 2.96-2.1 2.73-3.504 5.74-5.516 3.02-2.013 5.76-2.974 5.76-2.974z" clip-rule="evenodd"/><path fill="url(#paint4_linear)" fill-rule="evenodd" d="M1224.01 27.189l-23.58.048.05 11.435 3.89-.095c2.45.008 4.99-.67 8.14-2.898 2.96-2.1 2.73-3.504 5.74-5.516 3.02-2.013 5.76-2.974 5.76-2.974z" clip-rule="evenodd"/><path fill="#DCDDDE" fill-rule="evenodd" d="M1247.44 26.293c-.84.5-3.31.913-3.31.913l-45.65.032-1.61-1.59-.1-9.528 1.64-1.596 45.61-.138c1.02-.004 2.54.424 3.4.957l10.05 3.253c1.96 1.21 1.94 3.143-.03 4.319l-10 3.378z" clip-rule="evenodd"/><path fill="url(#paint5_linear)" fill-rule="evenodd" d="M1247.44 26.293c-.84.5-3.31.913-3.31.913l-45.65.032-1.61-1.59-.1-9.528 1.64-1.596 45.61-.138c1.02-.004 2.54.424 3.4.957l10.05 3.253c1.96 1.21 1.94 3.143-.03 4.319l-10 3.378z" clip-rule="evenodd"/><path fill="url(#paint6_linear)" fill-rule="evenodd" d="M1247.44 26.293c-.84.5-3.31.913-3.31.913l-45.65.032-1.61-1.59-.1-9.528 1.64-1.596 45.61-.138c1.02-.004 2.54.424 3.4.957l10.05 3.253c1.96 1.21 1.94 3.143-.03 4.319l-10 3.378z" clip-rule="evenodd"/><path fill="#213CA8" fill-rule="evenodd" d="M1248.38 17.5l.87 1.619-1.32.048-.89-1.661 1.34-.006z" clip-rule="evenodd"/><path fill="url(#paint7_linear)" fill-rule="evenodd" d="M1248.38 17.5l.87 1.619-1.32.048-.89-1.661 1.34-.006z" clip-rule="evenodd"/><path fill="#213CA8" fill-rule="evenodd" d="M1249.31 19.557s.23.908.24 1.255c0 .356-.24 1.256-.24 1.256l-1.34-.016s.24-.898.23-1.253c0-.326-.21-1.184-.21-1.184l1.32-.058z" clip-rule="evenodd"/><path fill="url(#paint8_linear)" fill-rule="evenodd" d="M1249.31 19.557s.23.908.24 1.255c0 .356-.24 1.256-.24 1.256l-1.34-.016s.24-.898.23-1.253c0-.326-.21-1.184-.21-1.184l1.32-.058z" clip-rule="evenodd"/><path fill="#213CA8" fill-rule="evenodd" d="M1249.21 22.46l-.86 1.507-1.34.005.85-1.517 1.35.006z" clip-rule="evenodd"/><path fill="url(#paint9_linear)" fill-rule="evenodd" d="M1249.21 22.46l-.86 1.507-1.34.005.85-1.517 1.35.006z" clip-rule="evenodd"/><path fill="#9B9B9B" fill-rule="evenodd" d="M1207.91 14.386V27.24h-3.79l-.08-12.84 3.87-.014z" clip-rule="evenodd"/><path fill="url(#paint10_linear)" fill-rule="evenodd" d="M1207.91 14.386V27.24h-3.79l-.08-12.84 3.87-.014z" clip-rule="evenodd"/><path fill="#4570A2" fill-rule="evenodd" d="M1202.4 19.618l1.84 1.335-.03.025-.7.507-1.13.83-3.08-.57-4.92-.883.16.002-.13-.025 7.99-1.221z" clip-rule="evenodd"/><path fill="url(#paint11_linear)" fill-rule="evenodd" d="M1202.4 19.618l1.84 1.335-.03.025-.7.507-1.13.83-3.08-.57-4.92-.883.16.002-.13-.025 7.99-1.221z" clip-rule="evenodd"/><path fill="#003C80" fill-rule="evenodd" d="M1251.27 16.462l5.63 1.601c2.74 1.38 2.82 3.707.11 5.151l-5.72 1.752-.02-8.504z" clip-rule="evenodd"/><path fill="url(#paint12_linear)" fill-rule="evenodd" d="M1251.27 16.462l5.63 1.601c2.74 1.38 2.82 3.707.11 5.151l-5.72 1.752-.02-8.504z" clip-rule="evenodd"/><path fill="#F9CC69" fill-rule="evenodd" d="M1252.88 19.454l.01 2.633-.84.004-.01-2.633.84-.003z" clip-rule="evenodd"/><path fill="url(#paint13_linear)" fill-rule="evenodd" d="M1252.88 19.454l.01 2.633-.84.004-.01-2.633.84-.003z" clip-rule="evenodd"/><path fill="#001462" fill-rule="evenodd" d="M1252.21 16.733l.03 7.926-.95.312-.03-8.513.95.275z" clip-rule="evenodd"/><path fill="url(#paint14_linear)" fill-rule="evenodd" d="M1252.21 16.733l.03 7.926-.95.312-.03-8.513.95.275z" clip-rule="evenodd"/><path fill="#9F0000" fill-rule="evenodd" d="M1196.79 17.215l.01 2.25-1.38.006-1.31.747-.02-3.744 1.33.746 1.37-.005z" clip-rule="evenodd"/><path fill="url(#paint15_linear)" fill-rule="evenodd" d="M1196.79 17.215l.01 2.25-1.38.006-1.31.747-.02-3.744 1.33.746 1.37-.005z" clip-rule="evenodd"/><path fill="#9F0000" fill-rule="evenodd" d="M1196.8 22.476l.01 2.25-1.37.006-1.32.747-.02-3.743 1.33.746 1.37-.006z" clip-rule="evenodd"/><path fill="url(#paint16_linear)" fill-rule="evenodd" d="M1196.8 22.476l.01 2.25-1.37.006-1.32.747-.02-3.743 1.33.746 1.37-.006z" clip-rule="evenodd"/><path fill="#F7A501" fill-rule="evenodd" d="M1195.45 17.23l-.01 2.25-1.35.802-.01-3.884 1.37.831z" clip-rule="evenodd"/><path fill="url(#paint17_linear)" fill-rule="evenodd" d="M1195.45 17.23l-.01 2.25-1.35.802-.01-3.884 1.37.831z" clip-rule="evenodd"/><path fill="#F7A501" fill-rule="evenodd" d="M1195.42 22.476l-.01 2.277-1.38.828.02-3.936 1.37.83z" clip-rule="evenodd"/><path fill="url(#paint18_linear)" fill-rule="evenodd" d="M1195.42 22.476l-.01 2.277-1.38.828.02-3.936 1.37.83z" clip-rule="evenodd"/><path fill="#AE2121" fill-rule="evenodd" d="M1196.43 4.152l.02 6.724-.94.004-.03-6.724.95-.004zm.02 26.664l.03 6.725-.95.004-.03-6.725.95-.004z" clip-rule="evenodd"/><path fill="#C63560" fill-rule="evenodd" d="M1194.7 7.672c.06 5.49-4.95 5.596-4.95 5.596l-.02-11.349s4.9.242 4.97 5.753z" clip-rule="evenodd"/><path fill="url(#paint19_linear)" fill-rule="evenodd" d="M1194.7 7.672c.06 5.49-4.95 5.596-4.95 5.596l-.02-11.349s4.9.242 4.97 5.753z" clip-rule="evenodd"/><path fill="#C63560" fill-rule="evenodd" d="M1194.72 34.334c.07 5.49-4.94 5.596-4.94 5.596l-.03-11.348s4.91.242 4.97 5.752z" clip-rule="evenodd"/><path fill="url(#paint20_linear)" fill-rule="evenodd" d="M1194.72 34.334c.07 5.49-4.94 5.596-4.94 5.596l-.03-11.348s4.91.242 4.97 5.752z" clip-rule="evenodd"/><path fill="#D76D31" fill-rule="evenodd" d="M1200.44 3.584l.03 7.751-4.36.018-.03-7.752 4.36-.017z" clip-rule="evenodd"/><path fill="url(#paint21_linear)" fill-rule="evenodd" d="M1200.44 3.584l.03 7.751-4.36.018-.03-7.752 4.36-.017z" clip-rule="evenodd"/><path fill="#D76D31" fill-rule="evenodd" d="M1200.46 30.247l.03 7.75-4.36.018-.03-7.751 4.36-.017z" clip-rule="evenodd"/><path fill="url(#paint22_linear)" fill-rule="evenodd" d="M1200.46 30.247l.03 7.75-4.36.018-.03-7.751 4.36-.017z" clip-rule="evenodd"/><defs><filter id="filter0_f" width="1209.83" height="13.93" x=".619" y="14.936" color-interpolation-filters="sRGB" filterUnits="userSpaceOnUse"><feFlood flood-opacity="0" result="BackgroundImageFix"/><feBlend in="SourceGraphic" in2="BackgroundImageFix" result="shape"/><feGaussianBlur result="effect1_foregroundBlur" stdDeviation="1.191"/></filter><linearGradient id="paint0_linear" x1="1208.07" x2="3" y1="23.572" y2="23.615" gradientUnits="userSpaceOnUse"><stop stop-color="#F7A501"/><stop offset=".172" stop-color="#FF23CF"/><stop offset=".41" stop-color="#FFD47D"/><stop offset=".855" stop-color="#fff" stop-opacity="0"/></linearGradient><linearGradient id="paint1_linear" x1="1216.32" x2="1216.32" y1="14.79" y2="0" gradientUnits="userSpaceOnUse"><stop stop-color="#fff"/><stop offset="1" stop-color="#fff" stop-opacity="0"/></linearGradient><linearGradient id="paint2_linear" x1="1208.33" x2="1210.07" y1="16.542" y2="5.624" gradientUnits="userSpaceOnUse"><stop stop-color="#fff"/><stop offset="1" stop-color="#fff" stop-opacity="0"/></linearGradient><linearGradient id="paint3_linear" x1="1216.38" x2="1216.38" y1="42.048" y2="27.204" gradientUnits="userSpaceOnUse"><stop stop-color="#fff"/><stop offset="1" stop-color="#fff" stop-opacity="0"/></linearGradient><linearGradient id="paint4_linear" x1="1212.22" x2="1212.22" y1="38.672" y2="27.189" gradientUnits="userSpaceOnUse"><stop stop-color="#fff"/><stop offset="1" stop-color="#fff" stop-opacity="0"/></linearGradient><linearGradient id="paint5_linear" x1="1229.91" x2="1202.99" y1="14.438" y2="27.529" gradientUnits="userSpaceOnUse"><stop stop-color="#fff"/><stop offset=".604" stop-color="silver" stop-opacity=".585"/><stop offset="1" stop-color="#686868" stop-opacity="0"/></linearGradient><linearGradient id="paint6_linear" x1="1227.85" x2="1227.85" y1="27.238" y2="14.386" gradientUnits="userSpaceOnUse"><stop stop-color="#560F46"/><stop offset=".401" stop-color="#FF0DCA" stop-opacity=".2"/><stop offset="1" stop-color="#fff" stop-opacity="0"/></linearGradient><linearGradient id="paint7_linear" x1="1248.14" x2="1248.14" y1="19.167" y2="17.5" gradientUnits="userSpaceOnUse"><stop stop-color="#fff" stop-opacity="0"/><stop offset="1" stop-color="#C635A6"/></linearGradient><linearGradient id="paint8_linear" x1="1248.76" x2="1248.76" y1="22.068" y2="19.557" gradientUnits="userSpaceOnUse"><stop stop-color="#fff" stop-opacity="0"/><stop offset="1" stop-color="#C635A6"/></linearGradient><linearGradient id="paint9_linear" x1="1248.11" x2="1248.11" y1="23.972" y2="22.455" gradientUnits="userSpaceOnUse"><stop stop-color="#fff" stop-opacity="0"/><stop offset="1" stop-color="#C635A6"/></linearGradient><linearGradient id="paint10_linear" x1="1206.13" x2="1206" y1="27.136" y2="14.386" gradientUnits="userSpaceOnUse"><stop stop-color="#DD425A"/><stop offset=".458" stop-color="#F7A501"/><stop offset="1" stop-color="#fff"/></linearGradient><linearGradient id="paint11_linear" x1="1201.42" x2="1201.42" y1="19.618" y2="21.906" gradientUnits="userSpaceOnUse"><stop offset=".484" stop-color="#fff"/><stop offset="1" stop-color="#839BFF"/></linearGradient><linearGradient id="paint12_linear" x1="1255.12" x2="1255.12" y1="24.966" y2="16.462" gradientUnits="userSpaceOnUse"><stop stop-color="#fff" stop-opacity="0"/><stop offset="1" stop-color="#fff"/></linearGradient><linearGradient id="paint13_linear" x1="1252.46" x2="1252.46" y1="22.091" y2="19.454" gradientUnits="userSpaceOnUse"><stop stop-color="#fff" stop-opacity="0"/><stop offset="1" stop-color="#fff"/></linearGradient><linearGradient id="paint14_linear" x1="1251.75" x2="1251.75" y1="24.971" y2="16.458" gradientUnits="userSpaceOnUse"><stop stop-color="#fff" stop-opacity="0"/><stop offset="1" stop-color="#fff"/></linearGradient><linearGradient id="paint15_linear" x1="1195.44" x2="1195.44" y1="20.218" y2="16.474" gradientUnits="userSpaceOnUse"><stop stop-color="#F7A501"/><stop offset="1" stop-color="#fff" stop-opacity="0"/></linearGradient><linearGradient id="paint16_linear" x1="1195.46" x2="1195.46" y1="25.479" y2="21.736" gradientUnits="userSpaceOnUse"><stop stop-color="#F7A501"/><stop offset="1" stop-color="#fff" stop-opacity="0"/></linearGradient><linearGradient id="paint17_linear" x1="1194.76" x2="1194.76" y1="20.282" y2="16.398" gradientUnits="userSpaceOnUse"><stop stop-color="#E30000"/><stop offset="1" stop-color="#fff" stop-opacity="0"/></linearGradient><linearGradient id="paint18_linear" x1="1194.72" x2="1194.72" y1="25.581" y2="21.645" gradientUnits="userSpaceOnUse"><stop stop-color="#E40000"/><stop offset="1" stop-color="#fff" stop-opacity="0"/></linearGradient><linearGradient id="paint19_linear" x1="1192.22" x2="1192.22" y1="13.268" y2="1.919" gradientUnits="userSpaceOnUse"><stop stop-color="#720000"/><stop offset="1" stop-color="#fff" stop-opacity="0"/></linearGradient><linearGradient id="paint20_linear" x1="1192.24" x2="1192.24" y1="39.93" y2="28.582" gradientUnits="userSpaceOnUse"><stop stop-color="#5F0000"/><stop offset="1" stop-color="#fff" stop-opacity="0"/></linearGradient><linearGradient id="paint21_linear" x1="1198.28" x2="1198.28" y1="11.353" y2="3.584" gradientUnits="userSpaceOnUse"><stop stop-color="#790000"/><stop offset="1" stop-color="#fff" stop-opacity="0"/></linearGradient><linearGradient id="paint22_linear" x1="1198.3" x2="1198.3" y1="38.015" y2="30.247" gradientUnits="userSpaceOnUse"><stop stop-color="#760000"/><stop offset="1" stop-color="#fff" stop-opacity="0"/></linearGradient></defs></svg>