<svg xmlns="http://www.w3.org/2000/svg" width="49" height="64" fill="none" viewBox="0 0 49 64"><path fill="#000" d="M1.42222 0C0.67776 0 0 0.677774 0 1.42222V62.5778C0 63.2806 0.638891 63.9972 1.42222 64H46.9333C47.6778 64 48.3556 63.3222 48.3556 62.5778V11.3778C48.3556 11.0056 48.1972 10.6389 47.9333 10.3778L37.9778 0.422258C37.7167 0.158372 37.35 0.00281605 36.9778 3.56038e-05L1.42222 0ZM2.84444 2.84444H35.5556V11.3778C35.5639 12.0389 36.1139 12.7972 36.9778 12.8H45.5111V61.1556H2.84444V2.84444ZM38.4 4.8667L43.4889 9.95556H38.4V4.8667Z" opacity=".5"/><path fill="#000" d="M24.1776 12.7998C21.4443 12.7998 19.1999 15.0442 19.1999 17.7776C19.1999 20.511 21.4443 22.7554 24.1776 22.7554C26.911 22.7554 29.1554 20.511 29.1554 17.7776C29.1554 15.0442 26.911 12.7998 24.1776 12.7998ZM24.1776 15.6443C25.3721 15.6443 26.311 16.5831 26.311 17.7776C26.311 18.9721 25.3721 19.9109 24.1776 19.9109C22.9832 19.9109 22.0443 18.9721 22.0443 17.7776C22.0443 16.5831 22.9832 15.6443 24.1776 15.6443ZM24.1776 24.1776C22.1166 24.1776 19.6137 24.7387 17.4665 26.0665C15.3193 27.3942 13.511 29.6803 13.511 32.7109C13.511 33.4943 14.1471 34.1332 14.9332 34.1332H33.4221C34.2082 34.1332 34.8443 33.4943 34.8443 32.7109C34.8443 29.6804 33.036 27.3942 30.8888 26.0665C28.7416 24.7387 26.2387 24.1776 24.1776 24.1776ZM24.1776 27.022C25.6721 27.022 27.7915 27.5054 29.3776 28.4887C30.5443 29.2109 31.4249 30.0943 31.7998 31.2887H16.555C16.93 30.0943 17.8106 29.2109 18.9772 28.4887C20.5634 27.5054 22.6832 27.022 24.1776 27.022ZM9.95543 38.3998C9.16929 38.3998 8.5332 39.0359 8.5332 39.822C8.5332 40.6082 9.16931 41.2443 9.95543 41.2443H38.3999C39.186 41.2443 39.8221 40.6082 39.8221 39.822C39.8221 39.0359 39.186 38.3998 38.3999 38.3998H9.95543ZM9.95543 45.5109C9.16929 45.5109 8.5332 46.147 8.5332 46.9332C8.5332 47.7193 9.16931 48.3554 9.95543 48.3554H38.3999C39.186 48.3554 39.8221 47.7193 39.8221 46.9332C39.8221 46.147 39.186 45.5109 38.3999 45.5109H9.95543ZM9.95543 52.622C9.16929 52.622 8.5332 53.2582 8.5332 54.0443C8.5332 54.8304 9.16931 55.4665 9.95543 55.4665H38.3999C39.186 55.4665 39.8221 54.8304 39.8221 54.0443C39.8221 53.2582 39.186 52.622 38.3999 52.622H9.95543Z"/></svg>