<svg viewBox="0 0 83 42"><g fill="none" fill-rule="evenodd" transform="translate(-12 -33)"><rect width="108.132" height="108.132" rx="9.403"/><rect width="105.132" height="105.132" x="1.5" y="1.5" rx="7.903"/><path fill="#E83DEC" fill-rule="nonzero" d="M22.814 39.066h-1.36v1.44h-5.7v2.86h-2.9v-9.96h8.54v1.36h1.42v4.3zm-2.86 0v-4.24h-4.24v4.24h4.24zm12.117 4.3h-8.54v-9.96h2.82v8.5h5.72v1.46zm13.536 0h-2.82v-2.84h-4.24v2.84h-2.9v-7.12h1.36v-1.42h1.44v-1.42h4.3v1.36h1.44v1.42h1.42v7.18zm-2.86-4.3v-2.88h-1.42v-1.36h-1.46v1.44h-1.36v2.8h4.24zm13.536-1.42h-1.36v1.42h-1.42v4.3h-2.9v-4.22h-1.42v-1.44h-1.44v-4.3h2.82v4.24h2.84v-4.24h2.88v4.24zm12.296 5.64h-10.08v-10.06h10.08v1.4h-7.18v2.86h4.3v1.48h-4.3v2.86h7.18v1.46zm11.216-4.22h-2.82v1.4h1.4v1.44h1.42v1.46h-4.24v-1.36h-1.42v-1.48h-1.4v2.84h-2.9v-9.96h8.54v1.36h1.42v4.3zm-2.86-1.42v-2.82h-4.24v4.24h2.88v-1.42h1.36zm17.075 5.72h-8.54v-1.4h2.82v-5.68h-1.38v-1.46h1.36v-1.42h2.88v8.5h2.86v1.46zm-58.32 29.56h-1.36v1.44h-7.16v-1.36h-1.44v-1.46h2.82v1.38h4.3v-2.78h-5.68v-1.44h-1.44v-2.88h1.36v-1.42h5.74v1.36h1.44v1.44h-2.82v-1.38h-2.86v2.78h5.68v1.44h1.42v2.88zm9.256-7.14h-2.8v8.58h-2.88v-8.5h-2.86v-1.46h8.54v1.38zm13.536 8.58h-2.82v-2.84h-4.24v2.84h-2.9v-7.12h1.36v-1.42h1.44v-1.42h4.3v1.36h1.44v1.42h1.42v7.18zm-2.86-4.3v-2.88h-1.42v-1.36h-1.46v1.44h-1.36v2.8h4.24zm14.256 0h-2.82v1.4h1.4v1.44h1.42v1.46h-4.24v-1.36h-1.42v-1.48h-1.4v2.84h-2.9v-9.96h8.54v1.36h1.42v4.3zm-2.86-1.42v-2.82h-4.24v4.24h2.88v-1.42h1.36zm12.116-2.86h-2.8v8.58h-2.88v-8.5h-2.86v-1.46h8.54v1.38z"/></g></svg>