<svg xmlns:xlink="http://www.w3.org/1999/xlink" viewBox="0 0 80 80"><defs><rect id="a" width="80" height="80" x="0" y="0" rx="2.712"/></defs><g fill="none" fill-rule="evenodd" transform="translate(-14 -14)"><rect width="108.132" height="108.132" rx="9.403"/><rect width="105.132" height="105.132" x="1.5" y="1.5" rx="7.903"/><g transform="translate(14 14)"><mask id="b" fill="#fff"><use xlink:href="#a"/></mask><rect width="80" height="80" fill="#FF2F93" fill-opacity=".2" fill-rule="nonzero" stroke="#FF2F93" stroke-width="8.136" mask="url(#b)" rx="2.712"/></g><rect width="8.438" height="8.438" x="77.203" y="22.359" fill="#FF2F93" fill-rule="nonzero" rx=".286"/><rect width="8.438" height="8.438" x="77.203" y="77.203" fill="#FF2F93" fill-rule="nonzero" rx=".286"/><rect width="8.438" height="8.438" x="22.359" y="77.203" fill="#FF2F93" fill-rule="nonzero" rx=".286"/><rect width="8.438" height="8.438" x="22.359" y="22.359" fill="#FF2F93" fill-rule="nonzero" rx=".286"/><path fill="#FF2F93" fill-opacity=".8" fill-rule="nonzero" d="M46.5 50.5H42V42h4v-4h12.5v4H63v12.5h-4.5v4h-4V63h-4v-8.5h4V50h4v-3.5H54v-4h-3.5v4h-4zm4 21V67h4v4.5z"/></g></svg>