<?xml version="1.0" encoding="UTF-8"?>
<svg width="80px" height="80px" viewBox="0 0 80 80" version="1.1" xmlns="http://www.w3.org/2000/svg" xmlns:xlink="http://www.w3.org/1999/xlink">
    <!-- Generator: Sketch 62 (91390) - https://sketch.com -->
    <title>culture-interview</title>
    <desc>Created with Sketch.</desc>
    <defs>
        <rect id="path-1" x="0" y="0" width="80" height="80" rx="2.71186"></rect>
    </defs>
    <g id="Page-1" stroke="none" stroke-width="1" fill="none" fill-rule="evenodd">
        <g id="culture-interview" transform="translate(-14.000000, -14.000000)">
            <g id="Group">
                <rect id="Rectangle" fill-rule="nonzero" x="0" y="0" width="108.132" height="108.132" rx="9.40278"></rect>
                <rect id="Rectangle" x="1.5" y="1.5" width="105.132" height="105.132" rx="7.90278"></rect>
            </g>
            <g id="Clipped" transform="translate(14.000000, 14.000000)">
                <mask id="mask-2" fill="white">
                    <use xlink:href="#path-1"></use>
                </mask>
                <g id="Rectangle"></g>
                <rect id="Rectangle" stroke="#FF2F93" stroke-width="8.13559" fill-opacity="0.2" fill="#FF2F93" fill-rule="nonzero" mask="url(#mask-2)" x="0" y="0" width="80" height="80" rx="2.71186"></rect>
            </g>
            <rect id="Rectangle" fill="#FF2F93" fill-rule="nonzero" x="77.2031" y="22.3594" width="8.43781" height="8.43781" rx="0.286027"></rect>
            <rect id="Rectangle" fill="#FF2F93" fill-rule="nonzero" x="77.2031" y="77.2031" width="8.43781" height="8.43781" rx="0.286027"></rect>
            <rect id="Rectangle" fill="#FF2F93" fill-rule="nonzero" x="22.3594" y="77.2031" width="8.43781" height="8.43781" rx="0.286027"></rect>
            <rect id="Rectangle" fill="#FF2F93" fill-rule="nonzero" x="22.3594" y="22.3594" width="8.43781" height="8.43781" rx="0.286027"></rect>
            <polygon id="Path" fill-opacity="0.8" fill="#FF2F93" fill-rule="nonzero" points="46.5 50.5 42 50.5 42 42 46 42 46 38 58.5 38 58.5 42 63 42 63 54.5 58.5 54.5 58.5 58.5 54.5 58.5 54.5 63 50.5 63 50.5 54.5 54.5 54.5 54.5 50 58.5 50 58.5 46.5 54 46.5 54 42.5 50.5 42.5 50.5 46.5 46.5 46.5"></polygon>
            <polygon id="Path" fill-opacity="0.8" fill="#FF2F93" fill-rule="nonzero" points="50.5 71.5 50.5 67 54.5 67 54.5 71.5"></polygon>
        </g>
    </g>
</svg>