<svg xmlns="http://www.w3.org/2000/svg" xmlns:xlink="http://www.w3.org/1999/xlink" width="80" height="80" version="1.1" viewBox="0 0 80 80"><title>culture-interview</title><desc>Created with Sketch.</desc><defs><rect id="path-1" width="80" height="80" x="0" y="0" rx="2.712"/></defs><g id="Page-1" fill="none" fill-rule="evenodd" stroke="none" stroke-width="1"><g id="culture-interview" transform="translate(-14.000000, -14.000000)"><g id="Group"><rect id="Rectangle" width="108.132" height="108.132" x="0" y="0" fill-rule="nonzero" rx="9.403"/><rect id="Rectangle" width="105.132" height="105.132" x="1.5" y="1.5" rx="7.903"/></g><g id="Clipped" transform="translate(14.000000, 14.000000)"><mask id="mask-2" fill="#fff"><use xlink:href="#path-1"/></mask><rect id="Rectangle" width="80" height="80" x="0" y="0" fill="#FF2F93" fill-opacity=".2" fill-rule="nonzero" stroke="#FF2F93" stroke-width="8.136" mask="url(#mask-2)" rx="2.712"/></g><rect id="Rectangle" width="8.438" height="8.438" x="77.203" y="22.359" fill="#FF2F93" fill-rule="nonzero" rx=".286"/><rect id="Rectangle" width="8.438" height="8.438" x="77.203" y="77.203" fill="#FF2F93" fill-rule="nonzero" rx=".286"/><rect id="Rectangle" width="8.438" height="8.438" x="22.359" y="77.203" fill="#FF2F93" fill-rule="nonzero" rx=".286"/><rect id="Rectangle" width="8.438" height="8.438" x="22.359" y="22.359" fill="#FF2F93" fill-rule="nonzero" rx=".286"/><polygon id="Path" fill="#FF2F93" fill-opacity=".8" fill-rule="nonzero" points="46.5 50.5 42 50.5 42 42 46 42 46 38 58.5 38 58.5 42 63 42 63 54.5 58.5 54.5 58.5 58.5 54.5 58.5 54.5 63 50.5 63 50.5 54.5 54.5 54.5 54.5 50 58.5 50 58.5 46.5 54 46.5 54 42.5 50.5 42.5 50.5 46.5 46.5 46.5"/><polygon id="Path" fill="#FF2F93" fill-opacity=".8" fill-rule="nonzero" points="50.5 71.5 50.5 67 54.5 67 54.5 71.5"/></g></g></svg>