<svg xmlns="http://www.w3.org/2000/svg" width="74" height="64" fill="none" viewBox="0 0 74 64"><path fill="#000" d="M32.7753 28.5523C32.4844 29.5692 31.9435 30.6126 30.9326 31.1563C28.5784 32.423 23.6908 33.6897 22.4238 36.7698C21.1568 39.8498 19.5288 49.8072 19.5288 49.8072H54.2885C54.2885 49.8072 52.6602 39.8501 51.3906 36.7698C50.1239 33.6896 45.2362 32.4259 42.8818 31.1563C41.8707 30.6125 41.33 29.5692 41.039 28.5523C42.4439 27.3003 43.6753 25.1195 44.4601 21.4163C46.4586 12.0024 38.8671 11.2418 36.9068 11.2418C34.9466 11.2418 27.3522 12.003 29.3536 21.4163C30.1413 25.1195 31.3698 27.3003 32.7746 28.5523H32.7753Z"/><path fill="#000" d="M0.164062 56.773V57.1286C0.164062 60.9229 3.23825 64 7.03549 64H66.7798C70.5741 64 73.6512 60.9229 73.6512 57.1286V56.773H0.164062ZM43.3385 61.4489H30.4771C29.8893 61.4489 29.4132 60.9728 29.4132 60.385C29.4132 59.8001 29.8893 59.3239 30.4771 59.3239H43.3385C43.9263 59.3239 44.4024 59.8001 44.4024 60.385C44.3995 60.9728 43.9263 61.4489 43.3385 61.4489Z" opacity=".5"/><path fill="#000" d="M62.6324 25.0755C63.6552 25.7309 63.9902 26.9712 63.9902 29.1637V54.1017H67.1438V29.1614C67.1438 26.7015 66.6735 24.8705 65.6655 23.595C64.4105 22.0049 62.3238 21.2761 59.2555 21.2761H47.0908C47.0526 21.5024 47.0232 21.7199 46.9762 21.9521C46.7881 22.8426 46.5589 23.6567 46.3149 24.4326H59.2583C60.8219 24.4297 61.9005 24.6031 62.6323 25.0763L62.6324 25.0755Z" opacity=".5"/><path fill="#000" d="M9.82751 29.1609C9.82751 26.9684 10.1626 25.7282 11.1854 25.0698C11.9172 24.5996 12.9928 24.4262 14.5594 24.4262H27.5027C27.2559 23.6532 27.0325 22.8391 26.8415 21.9456C26.7915 21.7134 26.765 21.4959 26.7268 21.2696L14.5592 21.2726C11.4909 21.2726 9.40411 22.0015 8.1492 23.5914C7.14114 24.8699 6.6709 26.698 6.6709 29.1579V54.0959H9.82447L9.82751 29.1609Z" opacity=".5"/><path fill="#000" d="M47.8147 16.2906C47.6266 16.6198 47.6619 17.0312 47.8999 17.3251C48.0792 17.5426 48.3408 17.6631 48.6112 17.6631C48.7052 17.6631 48.8022 17.6455 48.8963 17.619L52.7317 16.3611C54.3923 17.2134 56.288 17.6631 58.2453 17.6631C64.0617 17.6631 68.7961 13.7013 68.7961 8.83156C68.7961 3.96156 64.0613 0 58.2453 0C52.4293 0 47.6946 3.96179 47.6946 8.83156C47.6946 10.5156 48.2677 12.1409 49.364 13.5693L47.8147 16.2906ZM58.2451 1.83641C63.0504 1.83641 66.9623 4.97531 66.9623 8.83424C66.9623 12.6932 63.0505 15.8321 58.2451 15.8321C56.4582 15.8321 54.7388 15.3971 53.2693 14.5712C53.1312 14.4919 52.9754 14.4537 52.8196 14.4537C52.7256 14.4537 52.6257 14.4684 52.5346 14.5007L50.583 15.1385L51.2707 13.9305C51.4647 13.5866 51.4206 13.1605 51.159 12.8665C50.0922 11.6615 49.5279 10.2685 49.5279 8.83418C49.5279 4.97231 53.4397 1.83635 58.2451 1.83635L58.2451 1.83641Z"/></svg>