<svg xmlns:xlink="http://www.w3.org/1999/xlink" viewBox="0 0 79 82"><defs><path id="a" d="M31.538 1.089A26.918 26.918 0 0027.5.786C12.746.786.786 12.746.786 27.5c0 1.372.103 2.72.303 4.037l30.449-30.45zM2.607 37.216a26.677 26.677 0 003.858 6.754L43.97 6.465a26.677 26.677 0 00-6.754-3.858L2.607 37.216zm18.886 16.322a26.524 26.524 0 01-6.216-2.276L51.26 15.276a26.524 26.524 0 012.277 6.216L21.493 53.538zm4.8.651c.4.018.803.027 1.208.027 14.754 0 26.715-11.96 26.715-26.715 0-.405-.009-.808-.027-1.208L26.293 54.189z"/></defs><g fill="none" fill-rule="evenodd" transform="translate(-15 -15)"><rect width="108.132" height="108.132" rx="9.403"/><rect width="105.132" height="105.132" x="1.5" y="1.5" rx="7.903"/><circle cx="53.5" cy="53.5" r="33.5" fill="#F7A501" fill-opacity=".4" fill-rule="nonzero"/><circle cx="53.5" cy="53.5" r="32.212" stroke="#F7A501" stroke-opacity=".4" stroke-width="2.577"/><circle cx="53.501" cy="53.501" r="26.715" fill="#F7A501" fill-opacity=".4" fill-rule="nonzero"/><circle cx="53.501" cy="53.501" r="25.688" stroke="#F7A501" stroke-opacity=".4" stroke-width="2.055"/><path fill="#F7A501" fill-opacity=".4" d="M57.538 27.089a26.918 26.918 0 00-4.037-.303c-14.755 0-26.715 11.96-26.715 26.715 0 1.372.103 2.72.303 4.037l30.449-30.45zM28.607 63.216a26.677 26.677 0 003.858 6.754L69.97 32.465a26.677 26.677 0 00-6.754-3.858L28.607 63.216zm18.886 16.322a26.524 26.524 0 01-6.216-2.276L77.26 41.276a26.524 26.524 0 012.277 6.216L47.493 79.538zm4.8.651c.4.018.803.027 1.208.027 14.754 0 26.715-11.96 26.715-26.715 0-.405-.009-.808-.027-1.208L52.293 80.189z"/><g transform="translate(26 26)"><mask id="b" fill="#fff"><use xlink:href="#a"/></mask><path fill="#F7A501" fill-opacity=".4" fill-rule="nonzero" d="M31.538 1.089l1.453 1.453 2.875-2.876-4.02-.61-.308 2.033zM1.088 31.538l-2.031.308.61 4.02 2.875-2.875-1.453-1.453zM6.466 43.97l-1.617 1.268 1.43 1.825 1.64-1.64-1.453-1.453zm-3.858-6.754l-1.453-1.453-.95.95.489 1.25 1.914-.747zM43.97 6.465l1.453 1.453 1.64-1.64-1.825-1.43-1.268 1.617zm-6.754-3.858l.747-1.914-1.25-.489-.95.95 1.453 1.453zm-21.94 48.654l-1.453-1.453-1.99 1.99 2.502 1.29.942-1.827zm6.217 2.277l-.46 2.003 1.108.254.805-.804-1.453-1.453zM51.26 15.277l1.827-.942-1.29-2.502-1.99 1.99 1.453 1.454zm2.277 6.216l1.453 1.453.804-.805-.255-1.109-2.002.46zM26.293 54.189l-1.453-1.453-3.299 3.299 4.66.207.092-2.053zm27.896-27.896l2.053-.091-.207-4.661-3.299 3.299 1.453 1.453zM27.501 2.84c1.269 0 2.514.095 3.729.28l.616-4.064A28.974 28.974 0 0027.5-1.27v4.11zM2.84 27.5c0-13.62 11.04-24.66 24.66-24.66v-4.11C11.61-1.27-1.27 11.61-1.27 27.5h4.11zm.28 3.729a24.865 24.865 0 01-.28-3.73h-4.11c0 1.477.11 2.928.326 4.346l4.064-.616zM30.084-.365l-30.45 30.45 2.907 2.906L32.99 2.54 30.085-.363zM8.082 42.703a24.623 24.623 0 01-3.56-6.235l-3.83 1.495a28.736 28.736 0 004.155 7.275l3.235-2.535zM42.517 5.011L5.012 42.517l2.906 2.906L45.423 7.918l-2.906-2.906zm-6.049-.49a24.623 24.623 0 016.234 3.56l2.536-3.235A28.736 28.736 0 0037.963.694L36.468 4.52zM4.06 38.668L38.67 4.06l-2.906-2.906-34.61 34.609 2.907 2.906zm10.275 14.42a28.583 28.583 0 006.697 2.452l.92-4.006a24.473 24.473 0 01-5.734-2.1l-1.883 3.653zm35.473-39.266L13.824 49.808l2.906 2.907L52.715 16.73l-2.907-2.907zm5.733 7.21a28.583 28.583 0 00-2.453-6.698l-3.653 1.883a24.473 24.473 0 012.1 5.735l4.006-.92zM22.946 54.99L54.99 22.946l-2.906-2.907-32.046 32.046 2.907 2.906zm3.255 1.251c.431.02.864.029 1.3.029v-4.11c-.375 0-.747-.008-1.117-.025l-.183 4.106zm1.3.029c15.89 0 28.77-12.88 28.77-28.77h-4.11c0 13.62-11.04 24.66-24.66 24.66v4.11zm28.77-28.77c0-.436-.01-.869-.029-1.3l-4.106.183c.017.37.025.742.025 1.117h4.11zm-3.535-2.661L24.84 52.736l2.906 2.906 27.896-27.896-2.906-2.906z" mask="url(#b)"/></g><path fill="#F7A501" fill-opacity=".4" fill-rule="nonzero" d="M85.5 15l2.296 6.204L94 23.5l-6.204 2.296L85.5 32l-2.296-6.204L77 23.5l6.204-2.296zm-62 65l2.296 6.204L32 88.5l-6.204 2.296L23.5 97l-2.296-6.204L15 88.5l6.204-2.296z"/></g></svg>