<svg xmlns="http://www.w3.org/2000/svg" width="64" height="64" fill="none" viewBox="0 0 64 64"><path fill="#000" d="M18.0164 18.7226C17.7889 18.1151 18.0964 17.4376 18.7039 17.21C19.3114 16.9825 19.9889 17.29 20.2164 17.8975C21.8089 22.1425 25.4539 27.1379 31.1566 32.8428C36.8616 38.5453 41.8567 42.19 46.1018 43.783C46.7093 44.0105 47.0168 44.688 46.7893 45.2955C46.5618 45.903 45.8843 46.2105 45.2768 45.983C40.6643 44.253 35.417 40.423 29.497 34.5027C23.577 28.5823 19.7472 23.3353 18.0167 18.7228L18.0164 18.7226Z"/><path fill="#000" d="M3.77204 60.2272L44.6373 44.0345C44.7548 41.407 41.4073 36.4473 34.4799 29.5193C27.5525 22.5913 22.5925 19.2441 19.9647 19.3619L3.77204 60.2272ZM18.8095 17.1769C22.447 16.1844 28.0722 19.7894 36.1394 27.8592C44.2092 35.9264 47.8143 41.552 46.8216 45.1891C46.7241 45.5466 46.4641 45.8366 46.1216 45.9716L2.11137 63.4091C1.15637 63.7891 0.208845 62.8416 0.588877 61.8866L18.0263 17.8763C18.1613 17.5338 18.4513 17.2738 18.8088 17.1763L18.8095 17.1769Z"/><path fill="#000" d="M58.1947 12.5574C58.8397 12.4724 59.4297 12.9249 59.5147 13.5674C59.5997 14.2099 59.1472 14.7999 58.5047 14.8849C54.7872 15.3774 51.2772 16.7349 48.2173 18.8349C47.6823 19.2024 46.9498 19.0649 46.5848 18.5299C46.2173 17.9949 46.3523 17.2649 46.8873 16.8974C50.2498 14.5899 54.1097 13.0974 58.1948 12.5575L58.1947 12.5574Z"/><path fill="#000" d="M49.3871 31.3453C50.0321 31.2603 50.6221 31.7128 50.7071 32.3553C50.7921 33.0003 50.3396 33.5903 49.6971 33.6753C45.9796 34.1653 42.4696 35.5252 39.4097 37.6228C38.8747 37.9903 38.1422 37.8553 37.7772 37.3203C37.4097 36.7853 37.5447 36.0553 38.0797 35.6878C41.4422 33.3802 45.3021 31.8853 49.3872 31.3452L49.3871 31.3453Z"/><path fill="#000" d="M28.4193 24.2649C28.0018 24.7624 27.2618 24.8274 26.7643 24.4099C26.2668 23.9949 26.2018 23.2524 26.6168 22.755C31.5818 16.8275 34.3467 9.36231 34.3467 1.46727C34.3467 0.819785 34.8742 0.292297 35.5217 0.292297C36.1717 0.292297 36.6967 0.819798 36.6967 1.46727C36.6967 9.91975 33.7342 17.9172 28.4189 24.2647L28.4193 24.2649Z"/><path fill="#000" d="M10.6146 59.8701L8.48715 58.8776C9.27467 57.1876 9.68715 55.3401 9.68715 53.4301C9.68715 50.7251 8.85464 48.1476 7.32715 45.9875L9.24715 44.6325C11.0521 47.1875 12.0372 50.2375 12.0372 53.4299C12.0372 55.6849 11.5472 57.87 10.6146 59.8696V59.8701Z"/><path fill="#000" d="M17.6394 56.9651L15.5144 55.9651C16.6994 53.4501 17.3194 50.6976 17.3194 47.8525C17.3194 42.9124 15.4369 38.2697 12.1094 34.7497L13.8169 33.1373C17.5519 37.0873 19.6694 42.3046 19.6694 47.8521C19.6694 51.0447 18.9693 54.1396 17.6394 56.9645V56.9651Z"/><path fill="#000" d="M22.9323 55.0649L21.0322 53.685C24.0997 49.46 25.7748 44.38 25.7748 39.045C25.7748 34.3475 24.4773 29.8424 22.0597 25.9352L24.0573 24.7002C26.7022 28.9752 28.1248 33.9079 28.1248 39.0452C28.1248 44.8802 26.2873 50.4429 22.9323 55.065V55.0649Z"/><path fill="#000" d="M33.272 50.9497L31.2695 49.7222C33.2971 46.4197 34.5296 42.6848 34.8521 38.7673L37.192 38.9574C36.8395 43.2448 35.4895 47.3349 33.272 50.9497V50.9497Z"/><path fill="#000" d="M21.5898 32.6502C21.8798 33.2302 21.6423 33.9352 21.0623 34.2252C20.4823 34.5127 19.7773 34.2777 19.4873 33.6977C18.4173 31.5502 17.0423 29.5652 15.3973 27.8077C14.9548 27.3327 14.9798 26.5903 15.4523 26.1477C15.9273 25.7027 16.6698 25.7277 17.1124 26.2027C18.9149 28.1277 20.4199 30.3002 21.5899 32.6501L21.5898 32.6502Z"/><path fill="#000" fill-rule="evenodd" d="M23.1922 37.2851C23.1922 38.8501 20.8447 38.8501 20.8447 37.2851C20.8447 35.7176 23.1922 35.7176 23.1922 37.2851Z" clip-rule="evenodd"/><path fill="#000" d="M24.0718 12.3302C21.9643 12.3302 20.2568 10.6227 20.2568 8.51526C20.2568 6.40524 21.9644 4.69778 24.0718 4.69778C26.1793 4.69778 27.8893 6.40531 27.8893 8.51526C27.8893 10.6228 26.1793 12.3302 24.0718 12.3302ZM24.0718 9.98271C24.8843 9.98271 25.5418 9.32524 25.5418 8.51519C25.5418 7.70271 24.8844 7.04518 24.0718 7.04518C23.2618 7.04518 22.6043 7.70265 22.6043 8.51519C22.6043 9.32518 23.2618 9.98271 24.0718 9.98271Z" opacity=".5"/><path fill="#000" d="M48.1466 7.63263C46.0391 7.63263 44.3291 5.92511 44.3291 3.81765C44.3291 1.70764 46.0391 0.000183105 48.1466 0.000183105C50.254 0.000183105 51.9616 1.7077 51.9616 3.81765C51.9616 5.92517 50.254 7.63263 48.1466 7.63263ZM48.1466 5.28511C48.9566 5.28511 49.6141 4.62764 49.6141 3.81759C49.6141 3.00511 48.9566 2.34758 48.1466 2.34758C47.3341 2.34758 46.6791 3.00505 46.6791 3.81759C46.6791 4.62757 47.334 5.28511 48.1466 5.28511Z" opacity=".5"/><path fill="#000" d="M56.3673 29.3574C54.2598 29.3574 52.5498 27.6499 52.5498 25.5424C52.5498 23.4324 54.2598 21.725 56.3673 21.725C58.4747 21.725 60.1823 23.4325 60.1823 25.5424C60.1823 27.65 58.4747 29.3574 56.3673 29.3574ZM56.3673 27.0099C57.1773 27.0099 57.8348 26.3524 57.8348 25.5424C57.8348 24.7299 57.1773 24.0724 56.3673 24.0724C55.5572 24.0724 54.8998 24.7298 54.8998 25.5424C54.8998 26.3524 55.5572 27.0099 56.3673 27.0099Z" opacity=".5"/><path fill="#000" fill-rule="evenodd" d="M40.2194 18.2022C39.5719 18.2022 39.0444 18.7272 39.0444 19.3747V20.5499H37.8722C37.2223 20.5499 36.6973 21.0749 36.6973 21.7248C36.6973 22.3723 37.2223 22.8998 37.8722 22.8998H39.0444V24.0722C39.0444 24.7222 39.5719 25.2472 40.2194 25.2472C40.8669 25.2472 41.3944 24.7222 41.3944 24.0722V22.8998H42.5697C43.2172 22.8998 43.7422 22.3723 43.7422 21.7248C43.7422 21.0749 43.2172 20.5499 42.5697 20.5499H41.3944V19.3747C41.3944 18.7272 40.8669 18.2022 40.2194 18.2022Z" clip-rule="evenodd" opacity=".5"/><path fill="#000" fill-rule="evenodd" d="M53.1369 50.4948C52.4894 50.4948 51.9619 51.0198 51.9619 51.6698V52.8448H50.7892C50.1393 52.8448 49.6143 53.3698 49.6143 54.0173C49.6143 54.6673 50.1392 55.1923 50.7892 55.1923H51.9619V56.3672C51.9619 57.0147 52.4894 57.5422 53.1369 57.5422C53.7844 57.5422 54.3119 57.0147 54.3119 56.3672V55.1923H55.4842C56.1342 55.1923 56.6592 54.6673 56.6592 54.0173C56.6592 53.3698 56.1342 52.8448 55.4842 52.8448H54.3119V51.6698C54.3119 51.0198 53.7844 50.4948 53.1369 50.4948Z" clip-rule="evenodd" opacity=".5"/><path fill="#000" fill-rule="evenodd" d="M10.862 5.87262C10.2145 5.87262 9.68701 6.39761 9.68701 7.0451V8.22028H8.51482C7.86484 8.22028 7.33984 8.74527 7.33984 9.39525C7.33984 10.0427 7.86484 10.5702 8.51482 10.5702H9.68701V11.7426C9.68701 12.3925 10.2145 12.9175 10.862 12.9175C11.5095 12.9175 12.037 12.3926 12.037 11.7426V10.5702H13.2098C13.8598 10.5702 14.3848 10.0427 14.3848 9.39525C14.3848 8.74527 13.8598 8.22028 13.2098 8.22028H12.037V7.0451C12.037 6.39762 11.5095 5.87262 10.862 5.87262Z" clip-rule="evenodd" opacity=".5"/><path fill="#000" fill-rule="evenodd" d="M55.4842 37.5776C55.4842 39.1426 53.1367 39.1426 53.1367 37.5776C53.1367 36.0126 55.4842 36.0126 55.4842 37.5776Z" clip-rule="evenodd" opacity=".5"/><path fill="#000" fill-rule="evenodd" d="M59.5971 46.9728C59.5971 48.5378 57.2471 48.5378 57.2471 46.9728C57.2471 45.4078 59.5971 45.4078 59.5971 46.9728Z" clip-rule="evenodd" opacity=".5"/><path fill="#000" fill-rule="evenodd" d="M42.5697 11.1552C42.5697 12.7227 40.2197 12.7227 40.2197 11.1552C40.2197 9.5902 42.5697 9.5902 42.5697 11.1552Z" clip-rule="evenodd" opacity=".5"/><path fill="#000" fill-rule="evenodd" d="M63.7074 14.0928C63.7074 15.6578 61.3574 15.6578 61.3574 14.0928C61.3574 12.5253 63.7074 12.5253 63.7074 14.0928Z" clip-rule="evenodd" opacity=".5"/><path fill="#000" fill-rule="evenodd" d="M17.9071 2.93494C17.9071 4.50243 15.5596 4.50243 15.5596 2.93494C15.5596 1.36995 17.9071 1.36995 17.9071 2.93494Z" clip-rule="evenodd" opacity=".5"/></svg>