<svg width="109" height="109" viewBox="0 0 109 109" fill="none" xmlns="http://www.w3.org/2000/svg">
<g filter="url(#filter0_b)">
<rect width="108.132" height="108.132" rx="9.40278" fill="url(#paint0_linear)" fill-opacity="0.15"/>
<rect x="1.5" y="1.5" width="105.132" height="105.132" rx="7.90278" stroke="white" stroke-opacity="0.4" stroke-width="3"/>
</g>
<circle cx="53.5" cy="53.5" r="33.5" fill="#F7A501" fill-opacity="0.4"/>
<circle cx="53.5" cy="53.5" r="32.2115" stroke="#F7A501" stroke-opacity="0.4" stroke-width="2.57692"/>
<circle cx="53.5008" cy="53.5008" r="26.7152" fill="#F7A501" fill-opacity="0.4"/>
<circle cx="53.5008" cy="53.5008" r="25.6877" stroke="#F7A501" stroke-opacity="0.4" stroke-width="2.05501"/>
<mask id="path-7-inside-1" fill="white">
<path fill-rule="evenodd" clip-rule="evenodd" d="M57.5377 27.0887C56.2212 26.8891 54.8731 26.7856 53.5008 26.7856C38.7464 26.7856 26.7856 38.7464 26.7856 53.5008C26.7856 54.8731 26.8891 56.2212 27.0887 57.5377L57.5377 27.0887ZM28.607 63.2158C29.5629 65.6635 30.8694 67.9356 32.4648 69.9704L69.9704 32.4648C67.9356 30.8694 65.6635 29.5629 63.2158 28.607L28.607 63.2158ZM47.4926 79.5377C45.3059 79.0352 43.2218 78.2643 41.2766 77.2615L77.2615 41.2766C78.2643 43.2218 79.0352 45.3059 79.5377 47.4926L47.4926 79.5377ZM52.2929 80.1892C52.6933 80.207 53.096 80.216 53.5008 80.216C68.2552 80.216 80.216 68.2552 80.216 53.5008C80.216 53.096 80.207 52.6933 80.1892 52.2929L52.2929 80.1892Z"/>
</mask>
<path fill-rule="evenodd" clip-rule="evenodd" d="M57.5377 27.0887C56.2212 26.8891 54.8731 26.7856 53.5008 26.7856C38.7464 26.7856 26.7856 38.7464 26.7856 53.5008C26.7856 54.8731 26.8891 56.2212 27.0887 57.5377L57.5377 27.0887ZM28.607 63.2158C29.5629 65.6635 30.8694 67.9356 32.4648 69.9704L69.9704 32.4648C67.9356 30.8694 65.6635 29.5629 63.2158 28.607L28.607 63.2158ZM47.4926 79.5377C45.3059 79.0352 43.2218 78.2643 41.2766 77.2615L77.2615 41.2766C78.2643 43.2218 79.0352 45.3059 79.5377 47.4926L47.4926 79.5377ZM52.2929 80.1892C52.6933 80.207 53.096 80.216 53.5008 80.216C68.2552 80.216 80.216 68.2552 80.216 53.5008C80.216 53.096 80.207 52.6933 80.1892 52.2929L52.2929 80.1892Z" fill="#F7A501" fill-opacity="0.4"/>
<path d="M57.5377 27.0887L58.9909 28.5418L61.8664 25.6663L57.8457 25.0569L57.5377 27.0887ZM27.0887 57.5377L25.0569 57.8457L25.6663 61.8664L28.5418 58.9909L27.0887 57.5377ZM32.4648 69.9704L30.8475 71.2383L32.2782 73.0632L33.9179 71.4235L32.4648 69.9704ZM28.607 63.2158L27.1539 61.7627L26.2042 62.7124L26.6928 63.9634L28.607 63.2158ZM69.9704 32.4648L71.4235 33.9179L73.0632 32.2782L71.2383 30.8475L69.9704 32.4648ZM63.2158 28.607L63.9634 26.6928L62.7124 26.2042L61.7627 27.1539L63.2158 28.607ZM41.2766 77.2615L39.8235 75.8084L37.8334 77.7985L40.335 79.0881L41.2766 77.2615ZM47.4926 79.5377L47.0323 81.5405L48.1412 81.7953L48.9457 80.9908L47.4926 79.5377ZM77.2615 41.2766L79.0881 40.335L77.7985 37.8334L75.8084 39.8235L77.2615 41.2766ZM79.5377 47.4926L80.9908 48.9457L81.7953 48.1412L81.5405 47.0323L79.5377 47.4926ZM52.2929 80.1892L50.8397 78.7361L47.541 82.0348L52.2015 82.2422L52.2929 80.1892ZM80.1892 52.2929L82.2422 52.2015L82.0348 47.541L78.7361 50.8398L80.1892 52.2929ZM53.5008 28.8407C54.7697 28.8407 56.0148 28.9363 57.2298 29.1205L57.8457 25.0569C56.4276 24.8419 54.9765 24.7306 53.5008 24.7306V28.8407ZM28.8407 53.5008C28.8407 39.8814 39.8814 28.8407 53.5008 28.8407V24.7306C37.6115 24.7306 24.7306 37.6115 24.7306 53.5008H28.8407ZM29.1205 57.2298C28.9363 56.0148 28.8407 54.7697 28.8407 53.5008H24.7306C24.7306 54.9765 24.8419 56.4276 25.0569 57.8457L29.1205 57.2298ZM56.0846 25.6355L25.6355 56.0846L28.5418 58.9909L58.9909 28.5418L56.0846 25.6355ZM34.082 68.7025C32.6087 66.8234 31.403 64.7262 30.5212 62.4682L26.6928 63.9634C27.7228 66.6007 29.1301 69.0478 30.8475 71.2383L34.082 68.7025ZM68.5173 31.0116L31.0116 68.5173L33.9179 71.4235L71.4235 33.9179L68.5173 31.0116ZM62.4682 30.5212C64.7262 31.403 66.8234 32.6087 68.7025 34.082L71.2383 30.8475C69.0478 29.1301 66.6007 27.7228 63.9634 26.6928L62.4682 30.5212ZM30.0601 64.6689L64.6689 30.0601L61.7627 27.1539L27.1539 61.7627L30.0601 64.6689ZM40.335 79.0881C42.4304 80.1683 44.6761 80.999 47.0323 81.5405L47.9529 77.5349C45.9358 77.0713 44.0132 76.3602 42.2183 75.4349L40.335 79.0881ZM75.8084 39.8235L39.8235 75.8084L42.7297 78.7146L78.7146 42.7297L75.8084 39.8235ZM81.5405 47.0323C80.999 44.6761 80.1683 42.4304 79.0881 40.335L75.4349 42.2183C76.3602 44.0132 77.0713 45.9358 77.5349 47.9529L81.5405 47.0323ZM48.9457 80.9908L80.9908 48.9457L78.0846 46.0395L46.0395 78.0846L48.9457 80.9908ZM52.2015 82.2422C52.6323 82.2614 53.0655 82.271 53.5008 82.271V78.161C53.1265 78.161 52.7542 78.1527 52.3842 78.1362L52.2015 82.2422ZM53.5008 82.271C69.3902 82.271 82.271 69.3902 82.271 53.5008H78.161C78.161 67.1203 67.1203 78.161 53.5008 78.161V82.271ZM82.271 53.5008C82.271 53.0655 82.2614 52.6323 82.2422 52.2015L78.1362 52.3842C78.1527 52.7542 78.161 53.1265 78.161 53.5008H82.271ZM78.7361 50.8398L50.8397 78.7361L53.746 81.6423L81.6423 53.746L78.7361 50.8398Z" fill="#F7A501" fill-opacity="0.4" mask="url(#path-7-inside-1)"/>
<path d="M85.5 15L87.7958 21.2042L94 23.5L87.7958 25.7958L85.5 32L83.2042 25.7958L77 23.5L83.2042 21.2042L85.5 15Z" fill="#F7A501" fill-opacity="0.4"/>
<path d="M23.5 80L25.7958 86.2042L32 88.5L25.7958 90.7958L23.5 97L21.2042 90.7958L15 88.5L21.2042 86.2042L23.5 80Z" fill="#F7A501" fill-opacity="0.4"/>
<defs>
<filter id="filter0_b" x="-10" y="-10" width="128.132" height="128.132" filterUnits="userSpaceOnUse" color-interpolation-filters="sRGB">
<feFlood flood-opacity="0" result="BackgroundImageFix"/>
<feGaussianBlur in="BackgroundImage" stdDeviation="5"/>
<feComposite in2="SourceAlpha" operator="in" result="effect1_backgroundBlur"/>
<feBlend mode="normal" in="SourceGraphic" in2="effect1_backgroundBlur" result="shape"/>
</filter>
<linearGradient id="paint0_linear" x1="54.066" y1="0" x2="54.066" y2="108.132" gradientUnits="userSpaceOnUse">
<stop stop-color="white"/>
<stop offset="1" stop-color="white" stop-opacity="0.5"/>
</linearGradient>
</defs>
</svg>
