<svg xmlns:xlink="http://www.w3.org/1999/xlink" viewBox="0 0 65 81"><defs><path id="a" d="M29.764 1.556c1.082-2.016 3.845-2.089 5.022-.127 3.181 5.302 8.49 14.866 11.512 24.24.266.825.618 1.62 1.072 2.357l17.318 28.149c.608.987-.868 2.277-1.805 1.595-2.708-1.97-6.013-4.06-8.97-5.04-2.716-.902-6.787-1.413-8.585-1.607-.18-.02-.376.028-.481.176a13.978 13.978 0 01-2.28 2.497c-1.231 1.052-2.15 2.5-2.15 4.12v2.313a2 2 0 01-2 2h-12a2 2 0 01-2-2V58.51c0-1.851-1.082-3.49-2.466-4.72a13.378 13.378 0 01-2.228-2.575.232.232 0 00-.22-.094c-1.799.194-5.869.705-8.586 1.606-2.956.981-6.262 3.07-8.97 5.041-.937.682-2.412-.608-1.805-1.595l18.419-29.936c.054-.088.115-.172.175-.257.124-.171.247-.342.313-.54 3.004-8.955 7.831-18.51 10.715-23.883zM32.5 41a6.5 6.5 0 100-13 6.5 6.5 0 000 13z"/></defs><g fill="none" fill-rule="evenodd" transform="translate(-22 -15)"><rect width="108.132" height="108.132" rx="9.403"/><rect width="105.132" height="105.132" x="1.5" y="1.5" rx="7.903"/><path fill="#FB7F0D" fill-opacity=".4" d="M51.764 16.556c1.082-2.016 3.845-2.089 5.022-.127 3.181 5.302 8.49 14.866 11.512 24.24.266.825.618 1.62 1.072 2.357l17.318 28.149c.608.987-.868 2.277-1.805 1.595-2.707-1.97-6.013-4.06-8.97-5.04-2.716-.902-6.787-1.413-8.585-1.607-.18-.02-.376.028-.481.176a13.978 13.978 0 01-2.28 2.497c-1.231 1.052-2.15 2.5-2.15 4.12v2.313a2 2 0 01-2 2h-12a2 2 0 01-2-2V73.51c0-1.851-1.082-3.49-2.466-4.72a13.378 13.378 0 01-2.228-2.575.232.232 0 00-.22-.094c-1.799.194-5.869.705-8.586 1.606-2.956.981-6.262 3.07-8.97 5.041-.936.682-2.412-.608-1.805-1.595l18.419-29.936c.054-.088.115-.172.175-.257.124-.171.247-.342.313-.54 3.004-8.957 7.831-18.511 10.715-23.885zM54.5 56a6.5 6.5 0 100-13 6.5 6.5 0 000 13z"/><g transform="translate(22 15)"><mask id="b" fill="#fff"><use xlink:href="#a"/></mask><path fill="#FB7F0D" fill-opacity=".4" fill-rule="nonzero" d="M34.786 1.429L37.36-.115 34.786 1.43zm-5.022.127l2.643 1.419-2.643-1.419zM46.298 25.67l-2.855.92 2.855-.92zm1.072 2.356l2.555-1.572-2.555 1.572zm17.318 28.149l-2.555 1.572 2.555-1.572zm-1.805 1.595l-1.765 2.426 1.765-2.426zm-8.97-5.04l.945-2.848-.945 2.847zm-8.585-1.607l-.322 2.983.322-2.983zm-.481.176l2.438 1.747-2.438-1.747zm-2.28 2.497l1.95 2.28-1.95-2.28zM21.95 53.79l1.994-2.242-1.994 2.242zm-2.228-2.575l2.494-1.667-2.494 1.667zm-.22-.094l-.318-2.983h-.003l.321 2.983zm-8.586 1.606l-.944-2.847.944 2.847zm-8.97 5.041l1.766 2.426-1.766-2.426zM.142 56.174l2.555 1.572-2.555-1.572zm18.419-29.936l-2.555-1.573 2.555 1.573zm.175-.257l-2.433-1.754 2.433 1.754zm.313-.54l2.844.954-2.844-.953zM37.36-.114c-2.383-3.97-8.063-3.802-10.239.253l5.287 2.837c.01-.02.016-.023.01-.018a.154.154 0 01-.101.043.164.164 0 01-.111-.042c-.007-.006-.002-.004.009.014L37.36-.114zM49.153 24.75c-3.13-9.708-8.58-19.508-11.794-24.864l-5.145 3.088c3.148 5.247 8.314 14.575 11.229 23.617l5.71-1.84zm.772 1.705a7.826 7.826 0 01-.772-1.705l-5.71 1.841a13.82 13.82 0 001.372 3.008l5.11-3.144zm17.318 28.149l-17.318-28.15-5.11 3.144 17.318 28.149 5.11-3.144zm-6.125 5.593c2.02 1.47 4.206.554 5.228-.345 1.022-.898 2.262-3.03.897-5.248l-5.11 3.144a2.056 2.056 0 01-.234-1.596c.11-.408.322-.663.485-.806a1.56 1.56 0 01.802-.362c.421-.066.977.008 1.462.361l-3.53 4.852zm-8.15-4.62c2.498.83 5.496 2.688 8.15 4.62l3.53-4.852c-2.761-2.01-6.375-4.33-9.79-5.462l-1.89 5.695zm-7.962-1.47c1.822.196 5.59.684 7.963 1.47l1.889-5.694c-3.061-1.015-7.433-1.55-9.209-1.742l-.643 5.965zm2.28-1.06c-.382.533-.88.816-1.282.95a2.36 2.36 0 01-.998.11l.643-5.966c-.755-.081-2.258.04-3.241 1.412l4.877 3.494zm-2.77 3.03a16.979 16.979 0 002.77-3.03l-4.878-3.494a10.973 10.973 0 01-1.79 1.963l3.898 4.561zm-1.099 1.84c0-.451.275-1.136 1.1-1.84l-3.9-4.56c-1.638 1.4-3.2 3.61-3.2 6.4h6zm0 2.313v-2.313h-6v2.313h6zm-5 5a5 5 0 005-5h-6a1 1 0 011-1v6zm-12 0h12v-6h-12v6zm-5-5a5 5 0 005 5v-6a1 1 0 011 1h-6zm0-1.718v1.717h6v-1.717h-6zm-1.46-2.478c1.056.938 1.46 1.828 1.46 2.478h6c0-3.052-1.76-5.44-3.472-6.962l-3.987 4.484zm-2.728-3.15a16.376 16.376 0 002.729 3.15l3.987-4.484a10.374 10.374 0 01-1.728-2l-4.988 3.335zm2.592 1.222a2.769 2.769 0 01-2.592-1.221l4.988-3.335c-.785-1.173-2.064-1.513-3.032-1.41l.636 5.966zm-7.96 1.47c2.373-.786 6.142-1.274 7.963-1.47l-.642-5.966c-1.776.192-6.148.727-9.21 1.742l1.89 5.695zm-8.148 4.62c2.654-1.931 5.651-3.79 8.149-4.62l-1.89-5.694c-3.415 1.133-7.028 3.453-9.79 5.462l3.53 4.852zm-6.126-5.593c-1.365 2.218-.124 4.35.898 5.248 1.022.899 3.208 1.815 5.228.345l-3.53-4.852a1.995 1.995 0 011.462-.361c.378.058.638.218.802.362.162.143.374.398.485.806a2.055 2.055 0 01-.235 1.596l-5.11-3.144zm18.419-29.936L-2.413 54.602l5.11 3.144L21.116 27.81l-5.11-3.144zm.297-.439c-.05.07-.176.242-.297.438l5.11 3.145c-.011.018-.015.022-.005.008l.022-.03.038-.053-4.868-3.508zm-.098.26c.061-.182.131-.3.152-.334.011-.018.015-.024.005-.01a5.297 5.297 0 01-.06.084l4.869 3.508c.073-.102.487-.638.722-1.34l-5.688-1.907zM27.12.138c-2.905 5.412-7.83 15.147-10.916 24.35l5.688 1.908c2.921-8.71 7.651-18.085 10.514-23.42L27.121.138zM36 34.5a3.5 3.5 0 01-3.5 3.5v6a9.5 9.5 0 009.5-9.5h-6zM32.5 31a3.5 3.5 0 013.5 3.5h6a9.5 9.5 0 00-9.5-9.5v6zM29 34.5a3.5 3.5 0 013.5-3.5v-6a9.5 9.5 0 00-9.5 9.5h6zm3.5 3.5a3.5 3.5 0 01-3.5-3.5h-6a9.5 9.5 0 009.5 9.5v-6z" mask="url(#b)"/></g><g opacity=".4"><path fill="#FB7F0D" fill-opacity=".4" fill-rule="nonzero" d="M55.366 94.5a1 1 0 01-1.732 0l-7.361-12.75a1 1 0 01.866-1.5H61.86a1 1 0 01.866 1.5l-7.36 12.75z"/><path stroke="#FB7F0D" stroke-opacity=".4" stroke-width="3" d="M60.995 81.75L54.5 93l-6.495-11.25z"/></g></g></svg>