<svg width="109" height="109" viewBox="0 0 109 109" fill="none" xmlns="http://www.w3.org/2000/svg">
<g filter="url(#filter0_b)">
<rect width="108.132" height="108.132" rx="9.40278" fill="url(#paint0_linear)" fill-opacity="0.15"/>
<rect x="1.5" y="1.5" width="105.132" height="105.132" rx="7.90278" stroke="white" stroke-opacity="0.4" stroke-width="3"/>
</g>
<mask id="path-3-inside-1" fill="white">
<path fill-rule="evenodd" clip-rule="evenodd" d="M51.7639 16.5564C52.8458 14.5404 55.609 14.467 56.7862 16.4289C59.9673 21.7305 65.2754 31.2946 68.2978 40.6697C68.5636 41.4941 68.9157 42.2883 69.3696 43.0261L86.6883 71.1749C87.2956 72.1619 85.8201 73.4518 84.8831 72.7699C82.1755 70.7995 78.8699 68.7101 75.9133 67.7294C73.1966 66.8282 69.1264 66.3166 67.3276 66.1228C67.1471 66.1033 66.9525 66.1514 66.8468 66.2989C66.1916 67.2135 65.4354 68.0534 64.5669 68.7958C63.3356 69.8482 62.4172 71.2958 62.4172 72.9155V75.2285C62.4172 76.3331 61.5218 77.2285 60.4172 77.2285H48.4172C47.3127 77.2285 46.4172 76.3331 46.4172 75.2285V73.5112C46.4172 71.66 45.3347 70.0212 43.9513 68.7911C43.0919 68.0269 42.354 67.16 41.7229 66.2163C41.6753 66.145 41.5883 66.1128 41.503 66.1219C39.7042 66.3158 35.634 66.8274 32.9172 67.7285C29.9607 68.7092 26.6551 70.7987 23.9475 72.769C23.0105 73.4509 21.535 72.161 22.1423 71.1739L40.5606 41.2379C40.6146 41.1501 40.6756 41.0655 40.7365 40.9809C40.8597 40.81 40.9829 40.6391 41.0491 40.4416C44.0529 31.4843 48.8801 21.9297 51.7639 16.5564ZM54.5 56C58.0899 56 61 53.0899 61 49.5C61 45.9101 58.0899 43 54.5 43C50.9101 43 48 45.9101 48 49.5C48 53.0899 50.9101 56 54.5 56Z"/>
</mask>
<path fill-rule="evenodd" clip-rule="evenodd" d="M51.7639 16.5564C52.8458 14.5404 55.609 14.467 56.7862 16.4289C59.9673 21.7305 65.2754 31.2946 68.2978 40.6697C68.5636 41.4941 68.9157 42.2883 69.3696 43.0261L86.6883 71.1749C87.2956 72.1619 85.8201 73.4518 84.8831 72.7699C82.1755 70.7995 78.8699 68.7101 75.9133 67.7294C73.1966 66.8282 69.1264 66.3166 67.3276 66.1228C67.1471 66.1033 66.9525 66.1514 66.8468 66.2989C66.1916 67.2135 65.4354 68.0534 64.5669 68.7958C63.3356 69.8482 62.4172 71.2958 62.4172 72.9155V75.2285C62.4172 76.3331 61.5218 77.2285 60.4172 77.2285H48.4172C47.3127 77.2285 46.4172 76.3331 46.4172 75.2285V73.5112C46.4172 71.66 45.3347 70.0212 43.9513 68.7911C43.0919 68.0269 42.354 67.16 41.7229 66.2163C41.6753 66.145 41.5883 66.1128 41.503 66.1219C39.7042 66.3158 35.634 66.8274 32.9172 67.7285C29.9607 68.7092 26.6551 70.7987 23.9475 72.769C23.0105 73.4509 21.535 72.161 22.1423 71.1739L40.5606 41.2379C40.6146 41.1501 40.6756 41.0655 40.7365 40.9809C40.8597 40.81 40.9829 40.6391 41.0491 40.4416C44.0529 31.4843 48.8801 21.9297 51.7639 16.5564ZM54.5 56C58.0899 56 61 53.0899 61 49.5C61 45.9101 58.0899 43 54.5 43C50.9101 43 48 45.9101 48 49.5C48 53.0899 50.9101 56 54.5 56Z" fill="#FB7F0D" fill-opacity="0.4"/>
<path d="M56.7862 16.4289L59.3586 14.8854L59.3586 14.8854L56.7862 16.4289ZM51.7639 16.5564L54.4072 17.975L54.4072 17.975L51.7639 16.5564ZM68.2978 40.6697L65.4425 41.5902L65.4425 41.5902L68.2978 40.6697ZM69.3696 43.0261L71.9247 41.454L71.9247 41.454L69.3696 43.0261ZM86.6883 71.1749L84.1331 72.747L84.1332 72.7471L86.6883 71.1749ZM84.8831 72.7699L83.1178 75.1956L83.1179 75.1956L84.8831 72.7699ZM75.9133 67.7294L76.8579 64.8819L76.8578 64.8819L75.9133 67.7294ZM67.3276 66.1228L67.0058 69.1055L67.0061 69.1055L67.3276 66.1228ZM66.8468 66.2989L69.2855 68.0461L69.2855 68.046L66.8468 66.2989ZM64.5669 68.7958L66.5161 71.0763L64.5669 68.7958ZM43.9513 68.7911L45.9447 66.5492L43.9513 68.7911ZM41.7229 66.2163L44.2169 64.5488L44.2168 64.5488L41.7229 66.2163ZM41.503 66.1219L41.185 63.1388L41.1816 63.1392L41.503 66.1219ZM32.9172 67.7285L31.9728 64.8811L31.9727 64.8811L32.9172 67.7285ZM23.9475 72.769L25.7127 75.1947L25.7127 75.1947L23.9475 72.769ZM22.1423 71.1739L24.6974 72.746L24.6974 72.746L22.1423 71.1739ZM40.5606 41.2379L38.0057 39.6654L38.0055 39.6659L40.5606 41.2379ZM40.7365 40.9809L38.3026 39.2271L38.3026 39.2271L40.7365 40.9809ZM41.0491 40.4416L43.8934 41.3955L43.8934 41.3954L41.0491 40.4416ZM59.3586 14.8854C56.9758 10.9142 51.2964 11.0833 49.1205 15.1377L54.4072 17.975C54.4178 17.9554 54.4228 17.9518 54.4179 17.9569C54.4133 17.9618 54.4045 17.9696 54.3916 17.9774C54.3662 17.9927 54.3399 17.9994 54.3167 18C54.2934 18.0006 54.2648 17.9953 54.2357 17.9796C54.221 17.9718 54.2105 17.9634 54.2045 17.9577C54.1983 17.9518 54.2027 17.9541 54.2138 17.9725L59.3586 14.8854ZM71.1531 39.7492C68.0234 30.0412 62.5724 20.2415 59.3586 14.8854L54.2138 17.9725C57.3621 23.2195 62.5275 32.5479 65.4425 41.5902L71.1531 39.7492ZM71.9247 41.454C71.6114 40.9449 71.3545 40.3739 71.1531 39.7492L65.4425 41.5902C65.7727 42.6143 66.2199 43.6318 66.8145 44.5981L71.9247 41.454ZM89.2434 69.6029L71.9247 41.454L66.8145 44.5981L84.1331 72.747L89.2434 69.6029ZM83.1179 75.1956C85.1379 76.6656 87.3238 75.7498 88.3459 74.8511C89.3675 73.9527 90.6082 71.8209 89.2433 69.6027L84.1332 72.7471C83.8069 72.2168 83.7727 71.6159 83.8988 71.1509C84.0096 70.7426 84.2215 70.488 84.3837 70.3454C84.5478 70.2011 84.8081 70.0413 85.1856 69.9826C85.6074 69.9172 86.1626 69.9908 86.6483 70.3442L83.1179 75.1956ZM74.9688 70.5768C77.4665 71.4053 80.464 73.2643 83.1178 75.1956L86.6483 70.3442C83.887 68.3348 80.2732 66.0148 76.8579 64.8819L74.9688 70.5768ZM67.0061 69.1055C68.828 69.3019 72.5965 69.7899 74.9688 70.5768L76.8578 64.8819C73.7968 63.8666 69.4247 63.3314 67.649 63.1401L67.0061 69.1055ZM69.2855 68.046C68.9039 68.5788 68.4054 68.8623 68.0042 68.9955C67.6182 69.1236 67.2717 69.1342 67.0058 69.1055L67.6494 63.1401C66.8943 63.0586 65.3908 63.18 64.408 64.5518L69.2855 68.046ZM66.5161 71.0763C67.5819 70.1653 68.4997 69.1429 69.2855 68.0461L64.408 64.5518C63.8834 65.2841 63.289 65.9416 62.6177 66.5153L66.5161 71.0763ZM65.4172 72.9155C65.4172 72.4646 65.6924 71.7803 66.5161 71.0763L62.6177 66.5153C60.9788 67.9161 59.4172 70.1269 59.4172 72.9155H65.4172ZM65.4172 75.2285V72.9155H59.4172V75.2285H65.4172ZM60.4172 80.2285C63.1786 80.2285 65.4172 77.99 65.4172 75.2285H59.4172C59.4172 74.6762 59.865 74.2285 60.4172 74.2285V80.2285ZM48.4172 80.2285H60.4172V74.2285H48.4172V80.2285ZM43.4172 75.2285C43.4172 77.99 45.6558 80.2285 48.4172 80.2285V74.2285C48.9695 74.2285 49.4172 74.6762 49.4172 75.2285H43.4172ZM43.4172 73.5112V75.2285H49.4172V73.5112H43.4172ZM41.9578 71.033C43.0133 71.9715 43.4172 72.8608 43.4172 73.5112H49.4172C49.4172 70.4592 47.6561 68.0709 45.9447 66.5492L41.9578 71.033ZM39.229 67.8837C39.9896 69.0212 40.8922 70.0854 41.9578 71.033L45.9447 66.5492C45.2916 65.9684 44.7183 65.2988 44.2169 64.5488L39.229 67.8837ZM41.821 69.105C41.0233 69.1901 39.9182 68.9144 39.229 67.8837L44.2168 64.5488C43.4324 63.3755 42.1532 63.0356 41.185 63.1388L41.821 69.105ZM33.8617 70.5759C36.2341 69.789 40.0026 69.301 41.8244 69.1047L41.1816 63.1392C39.4058 63.3306 35.0338 63.8657 31.9728 64.8811L33.8617 70.5759ZM25.7127 75.1947C28.3666 73.2635 31.364 71.4045 33.8618 70.5759L31.9727 64.8811C28.5574 66.014 24.9436 68.3339 22.1823 70.3433L25.7127 75.1947ZM19.5872 69.6019C18.2225 71.82 19.463 73.9517 20.4847 74.8502C21.5068 75.749 23.6927 76.6647 25.7127 75.1947L22.1823 70.3433C22.668 69.9899 23.2232 69.9163 23.645 69.9818C24.0226 70.0404 24.2828 70.2002 24.4469 70.3445C24.6091 70.4872 24.821 70.7417 24.9318 71.1501C25.0579 71.615 25.0236 72.2158 24.6974 72.746L19.5872 69.6019ZM38.0055 39.6659L19.5872 69.6019L24.6974 72.746L43.1157 42.81L38.0055 39.6659ZM38.3026 39.2271C38.2528 39.2962 38.1266 39.469 38.0057 39.6654L43.1154 42.8104C43.1049 42.8276 43.1011 42.8323 43.1111 42.8179C43.1158 42.8111 43.1226 42.8015 43.1327 42.7873C43.1433 42.7725 43.1546 42.7568 43.1705 42.7347L38.3026 39.2271ZM38.2048 39.4878C38.2661 39.3049 38.3361 39.1865 38.357 39.1525C38.368 39.1345 38.3721 39.1292 38.3622 39.1435C38.3507 39.1602 38.3361 39.1806 38.3026 39.2271L43.1705 42.7347C43.2442 42.6325 43.658 42.0974 43.8934 41.3955L38.2048 39.4878ZM49.1205 15.1377C46.2162 20.5493 41.2913 30.2837 38.2048 39.4878L43.8934 41.3954C46.8145 32.6848 51.544 23.3101 54.4072 17.975L49.1205 15.1377ZM58 49.5C58 51.433 56.433 53 54.5 53V59C59.7467 59 64 54.7467 64 49.5H58ZM54.5 46C56.433 46 58 47.567 58 49.5H64C64 44.2533 59.7467 40 54.5 40V46ZM51 49.5C51 47.567 52.567 46 54.5 46V40C49.2533 40 45 44.2533 45 49.5H51ZM54.5 53C52.567 53 51 51.433 51 49.5H45C45 54.7467 49.2533 59 54.5 59V53Z" fill="#FB7F0D" fill-opacity="0.4" mask="url(#path-3-inside-1)"/>
<g opacity="0.4">
<path d="M55.366 94.5C54.9811 95.1667 54.0189 95.1667 53.634 94.5L46.2728 81.75C45.8879 81.0833 46.369 80.25 47.1388 80.25L61.8612 80.25C62.631 80.25 63.1121 81.0833 62.7272 81.75L55.366 94.5Z" fill="#FB7F0D" fill-opacity="0.4"/>
<path d="M60.9952 81.75L54.5 93L48.0048 81.75L60.9952 81.75ZM47.5718 81C47.5719 81.0002 47.572 81.0004 47.5722 81.0006L47.5718 81Z" stroke="#FB7F0D" stroke-opacity="0.4" stroke-width="3"/>
</g>
<defs>
<filter id="filter0_b" x="-10" y="-10" width="128.132" height="128.132" filterUnits="userSpaceOnUse" color-interpolation-filters="sRGB">
<feFlood flood-opacity="0" result="BackgroundImageFix"/>
<feGaussianBlur in="BackgroundImage" stdDeviation="5"/>
<feComposite in2="SourceAlpha" operator="in" result="effect1_backgroundBlur"/>
<feBlend mode="normal" in="SourceGraphic" in2="effect1_backgroundBlur" result="shape"/>
</filter>
<linearGradient id="paint0_linear" x1="54.066" y1="0" x2="54.066" y2="108.132" gradientUnits="userSpaceOnUse">
<stop stop-color="white"/>
<stop offset="1" stop-color="white" stop-opacity="0.5"/>
</linearGradient>
</defs>
</svg>
