<?xml version="1.0" encoding="UTF-8"?>
<svg width="108px" height="82px" viewBox="0 0 108 82" version="1.1" xmlns="http://www.w3.org/2000/svg" xmlns:xlink="http://www.w3.org/1999/xlink">
    <!-- Generator: Sketch 62 (91390) - https://sketch.com -->
    <title>technical-interview</title>
    <desc>Created with Sketch.</desc>
    <g id="Page-1" stroke="none" stroke-width="1" fill="none" fill-rule="evenodd">
        <g id="technical-interview" transform="translate(0.000000, -13.000000)">
            <g id="Group">
                <rect id="Rectangle" fill-rule="nonzero" x="0" y="0" width="108.132" height="108.132" rx="9.40278"></rect>
                <rect id="Rectangle" x="1.5" y="1.5" width="105.132" height="105.132" rx="7.90278"></rect>
            </g>
            <path d="M0,13 L67,13 C69.7614,13 72,15.2386 72,18 L72,28 C72,30.7614 69.7614,33 67,33 L0,33 L0,13 Z" id="Path" fill-opacity="0.4" fill="#FB4F0D" fill-rule="nonzero"></path>
            <path d="M1.5,14.5 L67,14.5 C68.933,14.5 70.5,16.067 70.5,18 L70.5,28 C70.5,29.933 68.933,31.5 67,31.5 L1.5,31.5 L1.5,14.5 Z" id="Path" stroke-opacity="0.4" stroke="#FB4F0D" stroke-width="3"></path>
            <path d="M108,75 L41,75 C38.2386,75 36,77.2386 36,80 L36,90 C36,92.7614 38.2386,95 41,95 L108,95 L108,75 Z" id="Path" fill-opacity="0.4" fill="#FB4F0D" fill-rule="nonzero"></path>
            <path d="M106.5,76.5 L41,76.5 C39.067,76.5 37.5,78.067 37.5,80 L37.5,90 C37.5,91.933 39.067,93.5 41,93.5 L106.5,93.5 L106.5,76.5 Z" id="Path" stroke-opacity="0.4" stroke="#FB4F0D" stroke-width="3"></path>
            <rect id="Rectangle" fill-opacity="0.9" fill="#FB4F0D" fill-rule="nonzero" x="57.582" y="23" width="2.4898" height="61" rx="1.2449"></rect>
            <rect id="Rectangle" fill-opacity="0.9" fill="#FB4F0D" fill-rule="nonzero" x="47" y="23" width="2.4898" height="61" rx="1.2449"></rect>
            <rect id="Rectangle" fill-opacity="0.9" fill="#FB4F0D" fill-rule="nonzero" transform="translate(53.536600, 29.224600) rotate(90.000000) translate(-53.536600, -29.224600) " x="52.2917" y="23.9338" width="2.4898" height="10.5816"></rect>
            <rect id="Rectangle" fill-opacity="0.9" fill="#FB4F0D" fill-rule="nonzero" transform="translate(53.536600, 34.826700) rotate(90.000000) translate(-53.536600, -34.826700) " x="52.2917" y="29.5359" width="2.4898" height="10.5816"></rect>
            <rect id="Rectangle" fill-opacity="0.9" fill="#FB4F0D" fill-rule="nonzero" transform="translate(53.536600, 40.428700) rotate(90.000000) translate(-53.536600, -40.428700) " x="52.2917" y="35.1379" width="2.4898" height="10.5816"></rect>
            <rect id="Rectangle" fill-opacity="0.9" fill="#FB4F0D" fill-rule="nonzero" transform="translate(53.536600, 46.030800) rotate(90.000000) translate(-53.536600, -46.030800) " x="52.2917" y="40.74" width="2.4898" height="10.5816"></rect>
            <rect id="Rectangle" fill-opacity="0.9" fill="#FB4F0D" fill-rule="nonzero" transform="translate(53.536600, 51.632800) rotate(90.000000) translate(-53.536600, -51.632800) " x="52.2917" y="46.342" width="2.4898" height="10.5816"></rect>
            <rect id="Rectangle" fill-opacity="0.9" fill="#FB4F0D" fill-rule="nonzero" transform="translate(53.536600, 57.234900) rotate(90.000000) translate(-53.536600, -57.234900) " x="52.2917" y="51.9441" width="2.4898" height="10.5816"></rect>
            <rect id="Rectangle" fill-opacity="0.9" fill="#FB4F0D" fill-rule="nonzero" transform="translate(53.536600, 62.836900) rotate(90.000000) translate(-53.536600, -62.836900) " x="52.2917" y="57.5461" width="2.4898" height="10.5816"></rect>
            <rect id="Rectangle" fill-opacity="0.9" fill="#FB4F0D" fill-rule="nonzero" transform="translate(53.536600, 68.439000) rotate(90.000000) translate(-53.536600, -68.439000) " x="52.2917" y="63.1482" width="2.4898" height="10.5816"></rect>
            <rect id="Rectangle" fill-opacity="0.9" fill="#FB4F0D" fill-rule="nonzero" transform="translate(53.536600, 74.041000) rotate(90.000000) translate(-53.536600, -74.041000) " x="52.2917" y="68.7502" width="2.4898" height="10.5816"></rect>
            <rect id="Rectangle" fill-opacity="0.9" fill="#FB4F0D" fill-rule="nonzero" transform="translate(53.536600, 79.643100) rotate(90.000000) translate(-53.536600, -79.643100) " x="52.2917" y="74.3523" width="2.4898" height="10.5816"></rect>
        </g>
    </g>
</svg>