<svg xmlns="http://www.w3.org/2000/svg" width="65" height="65" fill="none" viewBox="0 0 65 65"><path fill="#000" d="M1.65771 3.67599L7.42018 13.7606H11.1675L13.76 11.1681V7.42079L3.67538 1.65833L1.65771 3.67599Z" opacity=".5"/><path fill="#000" d="M13.2866 14.9092L14.9091 13.2867L28.6514 27.029L27.0289 28.6515L13.2866 14.9092Z" opacity=".5"/><path fill="#000" d="M36.8271 38.4501L38.4525 36.8247L40.7621 39.1343L39.1367 40.7597L36.8271 38.4501Z" opacity=".5"/><path fill="#000" d="M50.3698 21.6414C50.6065 21.4017 50.9385 21.2805 51.2764 21.3065L56.7963 21.7453L64.6342 13.9074L63.8547 9.7877L57.7169 15.9255C57.4773 16.1651 57.1482 16.2863 56.8104 16.2604L50.7535 15.7869C50.1876 15.7436 49.7372 15.2932 49.6911 14.7245L49.2176 8.66756C49.1916 8.32979 49.3157 8.00067 49.5525 7.76102L55.6903 1.62325L51.5705 0.84375L43.7327 8.68161L44.1715 14.2016C44.1975 14.5394 44.0762 14.8685 43.8366 15.1081L15.1081 43.8366C14.8685 44.0733 14.5394 44.1975 14.2016 44.1715L8.68161 43.7327L0.84375 51.5705L1.62325 55.6903L7.76102 49.5525C7.99775 49.3129 8.32976 49.1887 8.66756 49.2176L14.7245 49.6911C15.2932 49.7344 15.7436 50.1847 15.7869 50.7535L16.2604 56.8104C16.2863 57.1482 16.1651 57.4773 15.9255 57.7169L9.7877 63.8547L13.9074 64.6342L21.7453 56.7963L21.3065 51.2764C21.2805 50.9386 21.4046 50.6095 21.6414 50.3698L50.3698 21.6414Z"/><path fill="#000" d="M57.9134 64.8431C60.7167 64.8431 63.2428 63.1541 64.3168 60.5645C65.3879 57.9777 64.7961 54.9954 62.8127 53.0149L49.7459 39.9481L39.9473 49.7467L53.0141 62.8135C54.3103 64.1184 56.0743 64.8488 57.9133 64.8431H57.9134ZM49.267 46.0026C49.4836 45.7861 49.778 45.6649 50.0841 45.6649C50.3901 45.6649 50.6846 45.7861 50.9011 46.0026L61.1787 56.2802C61.629 56.7305 61.629 57.4639 61.1787 57.9142C60.7283 58.3645 59.995 58.3646 59.5446 57.9142L49.2671 47.6367C49.0506 47.4201 48.9293 47.1257 48.9293 46.8196C48.9293 46.5136 49.0506 46.2191 49.2671 46.0026L49.267 46.0026ZM46.0018 49.2707C46.4522 48.8175 47.1826 48.8175 47.6358 49.2707L57.9134 59.5483C58.1357 59.7619 58.2627 60.0593 58.2656 60.3682C58.2685 60.6771 58.1443 60.9745 57.9278 61.1939C57.7084 61.4133 57.411 61.5346 57.0992 61.5317C56.7903 61.5288 56.4958 61.4018 56.2793 61.1795L46.0018 50.9019C45.5514 50.4515 45.5514 49.7211 46.0018 49.2708L46.0018 49.2707Z" opacity=".5"/><path fill="#000" d="M38.314 44.8475L44.8472 38.3142L46.4812 39.9482L39.948 46.4815L38.314 44.8475Z" opacity=".5"/></svg>