<svg width="109" height="109" viewBox="0 0 109 109" fill="none" xmlns="http://www.w3.org/2000/svg">
<g filter="url(#filter0_b)">
<rect width="108.132" height="108.132" rx="9.40278" fill="url(#paint0_linear)" fill-opacity="0.15"/>
<rect x="1.5" y="1.5" width="105.132" height="105.132" rx="7.90278" stroke="white" stroke-opacity="0.6" stroke-width="3"/>
</g>
<path d="M0 13H67C69.7614 13 72 15.2386 72 18V28C72 30.7614 69.7614 33 67 33H0V13Z" fill="#FB4F0D" fill-opacity="0.4"/>
<path d="M1.5 14.5H67C68.933 14.5 70.5 16.067 70.5 18V28C70.5 29.933 68.933 31.5 67 31.5H1.5V14.5Z" stroke="#FB4F0D" stroke-opacity="0.4" stroke-width="3"/>
<path d="M108 75H41C38.2386 75 36 77.2386 36 80V90C36 92.7614 38.2386 95 41 95H108V75Z" fill="#FB4F0D" fill-opacity="0.4"/>
<path d="M106.5 76.5H41C39.067 76.5 37.5 78.067 37.5 80V90C37.5 91.933 39.067 93.5 41 93.5H106.5V76.5Z" stroke="#FB4F0D" stroke-opacity="0.4" stroke-width="3"/>
<rect x="57.582" y="23" width="2.4898" height="61" rx="1.2449" fill="#FB4F0D" fill-opacity="0.9"/>
<rect x="47" y="23" width="2.4898" height="61" rx="1.2449" fill="#FB4F0D" fill-opacity="0.9"/>
<rect x="58.8274" y="27.9797" width="2.4898" height="10.5816" transform="rotate(90 58.8274 27.9797)" fill="#FB4F0D" fill-opacity="0.9"/>
<rect x="58.8274" y="33.5818" width="2.4898" height="10.5816" transform="rotate(90 58.8274 33.5818)" fill="#FB4F0D" fill-opacity="0.9"/>
<rect x="58.8274" y="39.1838" width="2.4898" height="10.5816" transform="rotate(90 58.8274 39.1838)" fill="#FB4F0D" fill-opacity="0.9"/>
<rect x="58.8274" y="44.7859" width="2.4898" height="10.5816" transform="rotate(90 58.8274 44.7859)" fill="#FB4F0D" fill-opacity="0.9"/>
<rect x="58.8274" y="50.3879" width="2.4898" height="10.5816" transform="rotate(90 58.8274 50.3879)" fill="#FB4F0D" fill-opacity="0.9"/>
<rect x="58.8274" y="55.99" width="2.4898" height="10.5816" transform="rotate(90 58.8274 55.99)" fill="#FB4F0D" fill-opacity="0.9"/>
<rect x="58.8274" y="61.592" width="2.4898" height="10.5816" transform="rotate(90 58.8274 61.592)" fill="#FB4F0D" fill-opacity="0.9"/>
<rect x="58.8274" y="67.1941" width="2.4898" height="10.5816" transform="rotate(90 58.8274 67.1941)" fill="#FB4F0D" fill-opacity="0.9"/>
<rect x="58.8274" y="72.7961" width="2.4898" height="10.5816" transform="rotate(90 58.8274 72.7961)" fill="#FB4F0D" fill-opacity="0.9"/>
<rect x="58.8274" y="78.3982" width="2.4898" height="10.5816" transform="rotate(90 58.8274 78.3982)" fill="#FB4F0D" fill-opacity="0.9"/>
<defs>
<filter id="filter0_b" x="-10" y="-10" width="128.132" height="128.132" filterUnits="userSpaceOnUse" color-interpolation-filters="sRGB">
<feFlood flood-opacity="0" result="BackgroundImageFix"/>
<feGaussianBlur in="BackgroundImage" stdDeviation="5"/>
<feComposite in2="SourceAlpha" operator="in" result="effect1_backgroundBlur"/>
<feBlend mode="normal" in="SourceGraphic" in2="effect1_backgroundBlur" result="shape"/>
</filter>
<linearGradient id="paint0_linear" x1="54.066" y1="0" x2="54.066" y2="108.132" gradientUnits="userSpaceOnUse">
<stop stop-color="white"/>
<stop offset="1" stop-color="white" stop-opacity="0.5"/>
</linearGradient>
</defs>
</svg>
