<svg viewBox="0 0 108 82"><g fill="none" fill-rule="evenodd" transform="translate(0 -13)"><rect width="108.132" height="108.132" rx="9.403"/><rect width="105.132" height="105.132" x="1.5" y="1.5" rx="7.903"/><path fill="#FB4F0D" fill-opacity=".4" fill-rule="nonzero" d="M0 13h67a5 5 0 015 5v10a5 5 0 01-5 5H0V13z"/><path stroke="#FB4F0D" stroke-opacity=".4" stroke-width="3" d="M1.5 14.5H67a3.5 3.5 0 013.5 3.5v10a3.5 3.5 0 01-3.5 3.5H1.5v-17z"/><path fill="#FB4F0D" fill-opacity=".4" fill-rule="nonzero" d="M108 75H41a5 5 0 00-5 5v10a5 5 0 005 5h67V75z"/><path stroke="#FB4F0D" stroke-opacity=".4" stroke-width="3" d="M106.5 76.5H41a3.5 3.5 0 00-3.5 3.5v10a3.5 3.5 0 003.5 3.5h65.5v-17z"/><rect width="2.49" height="61" x="57.582" y="23" fill="#FB4F0D" fill-opacity=".9" fill-rule="nonzero" rx="1.245"/><rect width="2.49" height="61" x="47" y="23" fill="#FB4F0D" fill-opacity=".9" fill-rule="nonzero" rx="1.245"/><path fill="#FB4F0D" fill-opacity=".9" fill-rule="nonzero" d="M58.828 27.98v2.49H48.246v-2.49zm0 5.602v2.49H48.246v-2.49zm0 5.602v2.49H48.246v-2.49zm-.001 5.601v2.49H48.245v-2.49zm.001 5.603v2.49H48.246v-2.49zm0 5.602v2.49H48.246v-2.49zm0 5.602v2.49H48.246v-2.49zm0 5.602v2.49H48.246v-2.49zm0 5.602v2.49H48.246v-2.49zm0 5.602v2.49H48.246v-2.49z"/></g></svg>