<svg xmlns="http://www.w3.org/2000/svg" width="19" height="18" fill="none" viewBox="0 0 19 18"><path fill="#fff" fill-rule="evenodd" d="M4.06018 9C4.06018 10.1046 3.16475 11 2.06018 11C0.955611 11 0.0601807 10.1046 0.0601807 9C0.0601807 7.89543 0.955611 7 2.06018 7C3.16475 7 4.06018 7.89543 4.06018 9ZM11.0602 9C11.0602 10.1046 10.1648 11 9.06018 11C7.95561 11 7.06018 10.1046 7.06018 9C7.06018 7.89543 7.95561 7 9.06018 7C10.1648 7 11.0602 7.89543 11.0602 9ZM16.0602 11C17.1648 11 18.0602 10.1046 18.0602 9C18.0602 7.89543 17.1648 7 16.0602 7C14.9556 7 14.0602 7.89543 14.0602 9C14.0602 10.1046 14.9556 11 16.0602 11Z" clip-rule="evenodd"/></svg>