<svg fill="none" viewBox="0 0 21 18"><path fill="#fff" d="M13.375 5.385h.61l1.739-1.738.085-.738A7.814 7.814 0 003.097 6.721a.947.947 0 01.61-.037l3.477-.573s.177-.293.268-.275a4.337 4.337 0 015.935-.45h-.012z"/><path fill="#fff" d="M18.203 6.72a7.832 7.832 0 00-2.36-3.806l-2.44 2.44a4.337 4.337 0 011.592 3.44v.433a2.171 2.171 0 110 4.342H10.65l-.433.44v2.604l.433.434h4.344A5.65 5.65 0 0018.203 6.72z"/><path fill="#fff" d="M6.302 17.022h4.344v-3.477H6.302c-.309 0-.615-.066-.897-.195l-.61.189-1.75 1.738-.153.61a5.622 5.622 0 003.41 1.135z"/><path fill="#fff" d="M6.3 5.743a5.647 5.647 0 00-3.409 10.125l2.52-2.52a2.171 2.171 0 112.873-2.872l2.519-2.52A5.646 5.646 0 006.3 5.744z"/></svg>