<svg fill="none" viewBox="0 0 17 14"><path fill="#fff" d="M1.704 6.817l-.565-.492a.75.75 0 00-.015.967l.58-.475zm3.853-3.281a.75.75 0 00-1.131-.985l1.13.985zM4.41 11.309a.75.75 0 101.16-.95l-1.16.95zm-2.141-4l3.287-3.773-1.131-.985-3.287 3.774 1.131.985zm-1.146-.017l3.287 4.017 1.16-.95-3.286-4.017-1.161.95zm14.936-.475l.566-.492a.75.75 0 01.015.967l-.58-.475zm-3.852-3.281a.75.75 0 111.131-.985l-1.131.985zm1.146 7.773a.75.75 0 11-1.161-.95l1.161.95zm2.14-4l-3.286-3.773 1.131-.985 3.287 3.774-1.131.985zm1.147-.017l-3.287 4.017-1.161-.95 3.287-4.017 1.16.95zm-5.19-5.688a.75.75 0 10-1.443-.408l1.444.408zM6.843 12.396a.75.75 0 001.444.408l-1.444-.408zm3.165-11.2l-3.165 11.2 1.444.408 3.164-11.2-1.443-.408z"/></svg>