<svg width="0" height="0" class="hidden"><symbol xmlns="http://www.w3.org/2000/svg" id="hosting-aws" fill="none" viewBox="0 0 21 12"><g fill="#fff" clip-path="url(#clip0)"><path d="M6.32 4.364c0 .246.028.445.074.592.053.146.12.306.213.479a.29.29 0 01.046.153c0 .066-.04.133-.126.199l-.419.28a.32.32 0 01-.173.06c-.066 0-.133-.034-.2-.094a2.058 2.058 0 01-.239-.312 5.148 5.148 0 01-.206-.393c-.519.612-1.17.918-1.955.918-.56 0-1.005-.16-1.33-.479-.327-.32-.493-.745-.493-1.277 0-.565.2-1.024.605-1.37.406-.346.945-.519 1.63-.519.226 0 .459.02.705.053.246.034.499.087.765.147v-.486c0-.505-.107-.858-.313-1.064-.213-.206-.572-.306-1.084-.306-.233 0-.472.027-.718.086a5.3 5.3 0 00-.719.227 1.91 1.91 0 01-.232.086.408.408 0 01-.107.02c-.093 0-.14-.066-.14-.206V.832c0-.106.014-.186.047-.233a.498.498 0 01.186-.14C2.37.34 2.65.24 2.975.16A4.032 4.032 0 014.013.034c.791 0 1.37.18 1.743.539.365.359.552.904.552 1.636v2.155h.013zm-2.7 1.01c.22 0 .446-.04.686-.119.24-.08.452-.226.631-.426a1.05 1.05 0 00.227-.425c.04-.16.066-.353.066-.579v-.28a5.553 5.553 0 00-.612-.112 5.01 5.01 0 00-.625-.04c-.446 0-.772.086-.991.266-.22.18-.326.432-.326.765 0 .312.08.545.246.705.16.166.393.246.699.246zm5.341.719c-.12 0-.2-.02-.252-.067-.054-.04-.1-.133-.14-.259L7.006.626c-.04-.133-.06-.22-.06-.266 0-.107.053-.167.16-.167h.652c.126 0 .212.02.259.067.053.04.093.133.133.26l1.117 4.402L10.305.52c.033-.133.073-.22.126-.26a.458.458 0 01.266-.066h.533c.126 0 .212.02.265.067.054.04.1.133.127.26l1.05 4.456L13.824.519c.04-.133.087-.22.133-.26a.434.434 0 01.26-.066h.618c.107 0 .167.054.167.167 0 .033-.007.066-.014.106a.952.952 0 01-.046.166l-1.603 5.142c-.04.133-.087.22-.14.26a.426.426 0 01-.253.066h-.572c-.126 0-.212-.02-.266-.067-.053-.046-.1-.133-.126-.266l-1.03-4.29L9.925 5.76c-.033.133-.073.22-.127.266-.053.047-.146.067-.266.067H8.96zm8.547.18c-.346 0-.692-.04-1.024-.12-.333-.08-.592-.166-.765-.266-.106-.06-.18-.127-.206-.186a.47.47 0 01-.04-.187v-.339c0-.14.053-.206.153-.206.04 0 .08.007.12.02.04.013.1.04.166.066.226.1.472.18.731.233.267.053.526.08.792.08.419 0 .745-.073.971-.22a.716.716 0 00.346-.631c0-.187-.06-.34-.18-.466s-.345-.24-.671-.346l-.965-.3c-.485-.152-.845-.378-1.064-.677a1.585 1.585 0 01-.333-.965c0-.28.06-.525.18-.738.12-.213.28-.4.479-.546a2.1 2.1 0 01.692-.345 2.89 2.89 0 01.838-.113c.146 0 .299.006.445.026.153.02.293.047.433.073.133.034.259.067.379.107.12.04.213.08.28.12a.58.58 0 01.199.166c.04.053.06.126.06.22v.312c0 .14-.054.213-.154.213a.692.692 0 01-.252-.08 3.043 3.043 0 00-1.277-.26c-.38 0-.679.06-.885.187-.206.126-.313.319-.313.592a.63.63 0 00.2.472c.133.126.38.253.732.366l.944.299c.479.153.825.366 1.031.638.206.273.306.586.306.932 0 .286-.06.545-.173.771a1.8 1.8 0 01-.485.585 2.143 2.143 0 01-.739.373c-.299.093-.612.14-.95.14zm1.257 3.232c-2.189 1.617-5.368 2.475-8.102 2.475-3.83 0-7.283-1.417-9.89-3.772-.206-.186-.02-.439.226-.292 2.82 1.636 6.299 2.627 9.897 2.627A19.75 19.75 0 0018.446 9c.365-.166.678.24.319.505z"/><path d="M19.676 8.467c-.28-.359-1.85-.173-2.561-.086-.213.026-.246-.16-.053-.3 1.25-.878 3.305-.625 3.545-.332.24.3-.067 2.354-1.237 3.339-.18.153-.353.073-.273-.127.266-.658.858-2.141.579-2.494z"/></g><defs><clipPath id="clip0"><path fill="#fff" d="M0 0h20v11.96H0z" transform="translate(.687 .02)"/></clipPath></defs></symbol><symbol xmlns="http://www.w3.org/2000/svg" id="hosting-azure" fill="none" viewBox="0 0 17 16"><path fill="#fff" d="M.687 2.202L7.248 1.3v6.33H.688L.687 2.2zm6.561 6.24v6.26L.688 13.8V8.44h6.56zM7.974 1.2l8.73-1.2v7.631h-8.73v-6.43zm8.73 7.241V16l-8.73-1.2V8.442h8.73z"/></symbol><symbol xmlns="http://www.w3.org/2000/svg" id="hosting-google-cloud" fill="none" viewBox="0 0 21 18"><path fill="#fff" d="M13.3749 5.38538H13.9852L15.7239 3.64672L15.8094 2.90901C12.5743 0.0537174 7.63585 0.361378 4.78056 3.59642C3.98668 4.49509 3.41076 5.56394 3.09723 6.72081C3.29088 6.64117 3.50549 6.6286 3.70752 6.68392L7.184 6.11052C7.184 6.11052 7.36088 5.81795 7.45226 5.83639C8.99894 4.13797 11.6019 3.94013 13.3875 5.38538H13.3749Z"/><path fill="#fff" d="M18.2028 6.71951C17.8029 5.24827 16.9831 3.92542 15.8421 2.91357L13.4026 5.35306C14.4329 6.19473 15.0197 7.46309 14.9946 8.79349V9.2269C16.1942 9.2269 17.1658 10.1993 17.1658 11.3981C17.1658 12.5978 16.1934 13.5694 14.9946 13.5694H10.6513L10.2179 14.0086V16.6133L10.6513 17.0467H14.9946C17.4844 17.066 19.6933 15.4522 20.4327 13.0748C21.1704 10.6965 20.2651 8.11446 18.2028 6.71951Z"/><path fill="#fff" d="M6.30246 17.0219H10.6458V13.5454H6.30246C5.99313 13.5454 5.68714 13.4792 5.40547 13.3501L4.79518 13.5387L3.04478 15.2774L2.89221 15.8877C3.87387 16.6287 5.07182 17.0269 6.30246 17.0219Z"/><path fill="#fff" d="M6.30089 5.74271C3.88823 5.75696 1.75137 7.30197 0.981802 9.58804C0.212232 11.8741 0.979287 14.3974 2.89148 15.8678L5.4106 13.3487C4.31744 12.8549 3.83206 11.569 4.32583 10.4758C4.81959 9.38266 6.10556 8.89727 7.19872 9.39104C7.67991 9.609 8.06554 9.99462 8.2835 10.4758L10.8026 7.95669C9.73042 6.55587 8.0647 5.73684 6.30089 5.74271Z"/></symbol><symbol xmlns="http://www.w3.org/2000/svg" id="hosting-heroku" width="17" height="16" fill="none" viewBox="0 0 17 16"><path fill="#fff" d="M0.686279 0H16.6863V16H0.686279V0Z"/><path fill="#150230" d="M9.75674 12.606V7.56662C9.75674 7.56662 10.0844 6.36086 5.71898 8.06006C5.7113 8.08182 5.7113 3.39959 5.7113 3.39959L7.13786 3.39062V6.39031C7.13786 6.39031 11.1315 4.81718 11.1315 7.58326V12.606H9.75674ZM10.5695 5.20631H9.05658C9.60122 4.54071 10.094 3.39959 10.094 3.39959H11.6582C11.6588 3.39959 11.3907 4.14327 10.5695 5.20631ZM5.7369 12.5977V9.7279L7.17178 11.1628L5.7369 12.5977Z"/></symbol><symbol xmlns="http://www.w3.org/2000/svg" id="hosting-source-code" width="17" height="14" fill="none" viewBox="0 0 17 14"><path fill="#fff" d="M1.70447 6.81711L1.13891 6.32452C0.89874 6.60027 0.892443 7.00902 1.124 7.29204L1.70447 6.81711ZM5.55676 3.53604C5.8288 3.22369 5.79613 2.74994 5.48378 2.4779C5.17143 2.20585 4.69768 2.23852 4.42563 2.55087L5.55676 3.53604ZM4.41073 11.3091C4.67302 11.6297 5.14554 11.677 5.46612 11.4147C5.78671 11.1524 5.83396 10.6799 5.57166 10.3593L4.41073 11.3091ZM2.27003 7.30969L5.55676 3.53604L4.42563 2.55087L1.13891 6.32452L2.27003 7.30969ZM1.124 7.29204L4.41073 11.3091L5.57166 10.3593L2.28494 6.34218L1.124 7.29204Z"/><path fill="#fff" d="M16.0602 6.81711L16.6258 6.32452C16.866 6.60027 16.8723 7.00902 16.6407 7.29204L16.0602 6.81711ZM12.208 3.53604C11.9359 3.22369 11.9686 2.74994 12.2809 2.4779C12.5933 2.20585 13.067 2.23852 13.3391 2.55087L12.208 3.53604ZM13.354 11.3091C13.0917 11.6297 12.6192 11.677 12.2986 11.4147C11.978 11.1524 11.9308 10.6799 12.193 10.3593L13.354 11.3091ZM15.4947 7.30969L12.208 3.53604L13.3391 2.55087L16.6258 6.32452L15.4947 7.30969ZM16.6407 7.29204L13.354 11.3091L12.193 10.3593L15.4798 6.34218L16.6407 7.29204Z"/><path fill="#fff" d="M11.4515 1.60436C11.5642 1.20576 11.3324 0.791307 10.9338 0.678659C10.5352 0.56601 10.1207 0.797821 10.0081 1.19642L11.4515 1.60436ZM6.84309 12.3956C6.73044 12.7942 6.96225 13.2087 7.36085 13.3213C7.75945 13.434 8.1739 13.2022 8.28655 12.8036L6.84309 12.3956ZM10.0081 1.19642L6.84309 12.3956L8.28655 12.8036L11.4515 1.60436L10.0081 1.19642Z"/></symbol><symbol xmlns="http://www.w3.org/2000/svg" id="hosting-more" fill="none" viewBox="0 0 19 4"><path fill="#fff" fill-rule="evenodd" d="M4.06 2a2 2 0 11-4 0 2 2 0 014 0zm7 0a2 2 0 11-4 0 2 2 0 014 0zm5 2a2 2 0 100-4 2 2 0 000 4z" clip-rule="evenodd"/></symbol></svg>