<svg xmlns="http://www.w3.org/2000/svg" width="160" height="33" viewBox="0 0 160 33" fill="none">
<path d="M42.8539 23.6181C42.7348 23.6181 42.6231 23.5735 42.5189 23.4842C42.4296 23.3799 42.3849 23.2683 42.3849 23.1492C42.3849 23.0598 42.3923 22.9928 42.4072 22.9482L47.6554 8.6106C47.7001 8.43194 47.7968 8.28306 47.9457 8.16395C48.0946 8.04484 48.2882 7.98529 48.5264 7.98529H51.8316C52.0698 7.98529 52.2634 8.04484 52.4123 8.16395C52.5611 8.28306 52.6579 8.43194 52.7026 8.6106L57.9284 22.9482L57.9731 23.1492C57.9731 23.2683 57.921 23.3799 57.8168 23.4842C57.7274 23.5735 57.6158 23.6181 57.4818 23.6181H54.7348C54.3775 23.6181 54.1393 23.4618 54.0202 23.1492L53.1492 20.8712H47.1864L46.3378 23.1492C46.2187 23.4618 45.973 23.6181 45.6008 23.6181H42.8539ZM52.2559 17.6553L50.179 11.7595L48.102 17.6553H52.2559Z" fill="white"/>
<path d="M63.0262 23.8415C61.8202 23.8415 60.8078 23.6703 59.9889 23.3278C59.185 22.9854 58.5894 22.576 58.2023 22.0995C57.8152 21.6231 57.6217 21.1988 57.6217 20.8266C57.6217 20.6777 57.6738 20.5586 57.778 20.4692C57.8971 20.365 58.0237 20.3129 58.1577 20.3129H60.7036C60.7929 20.3129 60.8748 20.3501 60.9492 20.4246C61.1279 20.5437 61.2619 20.6405 61.3512 20.7149C61.6788 20.9531 61.9617 21.1318 62.1999 21.2509C62.453 21.3551 62.7582 21.4072 63.1155 21.4072C63.5473 21.4072 63.8971 21.3253 64.1651 21.1616C64.448 20.9829 64.5895 20.7372 64.5895 20.4246C64.5895 20.1715 64.515 19.9705 64.3661 19.8216C64.2321 19.6727 63.9641 19.5313 63.5622 19.3973C63.1602 19.2484 62.5497 19.0921 61.7309 18.9283C60.4951 18.6752 59.5423 18.2658 58.8723 17.7C58.2172 17.1193 57.8897 16.3451 57.8897 15.3774C57.8897 14.767 58.0832 14.1863 58.4703 13.6355C58.8574 13.0846 59.4306 12.6379 60.1899 12.2955C60.9641 11.9531 61.8798 11.7818 62.9368 11.7818C63.9939 11.7818 64.917 11.9456 65.7061 12.2732C66.4952 12.6007 67.0907 13.0027 67.4927 13.4791C67.9096 13.9407 68.118 14.365 68.118 14.7521C68.118 14.8861 68.0659 15.0052 67.9617 15.1094C67.8724 15.2136 67.7607 15.2657 67.6267 15.2657H65.3041C65.185 15.2657 65.0733 15.2285 64.9691 15.1541C64.7756 15.0499 64.6043 14.9382 64.4555 14.8191C64.2024 14.6255 63.9641 14.4766 63.7408 14.3724C63.5175 14.2682 63.2421 14.2161 62.9145 14.2161C62.5274 14.2161 62.2148 14.3054 61.9765 14.4841C61.7532 14.6628 61.6416 14.8935 61.6416 15.1764C61.6416 15.3997 61.7011 15.5858 61.8202 15.7347C61.9542 15.8836 62.2222 16.0325 62.6242 16.1814C63.0411 16.3154 63.6515 16.4568 64.4555 16.6057C65.8996 16.8588 66.9493 17.3055 67.6044 17.9457C68.2743 18.5859 68.6093 19.3377 68.6093 20.2013C68.6093 21.303 68.118 22.1889 67.1354 22.8588C66.1527 23.5139 64.783 23.8415 63.0262 23.8415Z" fill="white"/>
<path d="M74.1295 23.8415C72.9235 23.8415 71.9111 23.6703 71.0923 23.3278C70.2883 22.9854 69.6927 22.576 69.3056 22.0995C68.9185 21.6231 68.725 21.1988 68.725 20.8266C68.725 20.6777 68.7771 20.5586 68.8813 20.4692C69.0004 20.365 69.127 20.3129 69.261 20.3129H71.8069C71.8962 20.3129 71.9781 20.3501 72.0526 20.4246C72.2312 20.5437 72.3652 20.6405 72.4545 20.7149C72.7821 20.9531 73.065 21.1318 73.3032 21.2509C73.5563 21.3551 73.8615 21.4072 74.2188 21.4072C74.6506 21.4072 75.0005 21.3253 75.2685 21.1616C75.5513 20.9829 75.6928 20.7372 75.6928 20.4246C75.6928 20.1715 75.6183 19.9705 75.4695 19.8216C75.3355 19.6727 75.0675 19.5313 74.6655 19.3973C74.2635 19.2484 73.6531 19.0921 72.8342 18.9283C71.5985 18.6752 70.6456 18.2658 69.9756 17.7C69.3205 17.1193 68.993 16.3451 68.993 15.3774C68.993 14.767 69.1865 14.1863 69.5736 13.6355C69.9607 13.0846 70.5339 12.6379 71.2933 12.2955C72.0675 11.9531 72.9831 11.7818 74.0402 11.7818C75.0972 11.7818 76.0203 11.9456 76.8094 12.2732C77.5985 12.6007 78.194 13.0027 78.596 13.4791C79.0129 13.9407 79.2213 14.365 79.2213 14.7521C79.2213 14.8861 79.1692 15.0052 79.065 15.1094C78.9757 15.2136 78.864 15.2657 78.73 15.2657H76.4074C76.2883 15.2657 76.1767 15.2285 76.0724 15.1541C75.8789 15.0499 75.7077 14.9382 75.5588 14.8191C75.3057 14.6255 75.0675 14.4766 74.8441 14.3724C74.6208 14.2682 74.3454 14.2161 74.0178 14.2161C73.6307 14.2161 73.3181 14.3054 73.0799 14.4841C72.8565 14.6628 72.7449 14.8935 72.7449 15.1764C72.7449 15.3997 72.8044 15.5858 72.9235 15.7347C73.0575 15.8836 73.3255 16.0325 73.7275 16.1814C74.1444 16.3154 74.7548 16.4568 75.5588 16.6057C77.003 16.8588 78.0526 17.3055 78.7077 17.9457C79.3777 18.5859 79.7127 19.3377 79.7127 20.2013C79.7127 21.303 79.2213 22.1889 78.2387 22.8588C77.2561 23.5139 75.8863 23.8415 74.1295 23.8415Z" fill="white"/>
<path d="M85.8135 23.8415C84.0269 23.8415 82.6199 23.3576 81.5926 22.3899C80.5653 21.4221 80.0293 20.0151 79.9846 18.169V17.3873C80.0442 15.6305 80.5876 14.2608 81.6149 13.2781C82.6571 12.2806 84.0492 11.7818 85.7911 11.7818C87.0567 11.7818 88.1212 12.0424 88.9847 12.5635C89.8631 13.0697 90.5182 13.7694 90.95 14.6628C91.3966 15.5561 91.62 16.5834 91.62 17.7447V18.2806C91.62 18.4295 91.5679 18.5635 91.4636 18.6826C91.3594 18.7869 91.2254 18.839 91.0616 18.839H83.9152V18.9953C83.945 19.695 84.1162 20.2608 84.4288 20.6926C84.7415 21.1243 85.1956 21.3402 85.7911 21.3402C86.1633 21.3402 86.4686 21.2658 86.7068 21.1169C86.945 20.9531 87.1609 20.7596 87.3544 20.5362C87.4884 20.3725 87.5926 20.2757 87.6671 20.2459C87.7564 20.2013 87.8904 20.1789 88.0691 20.1789H90.8383C90.9723 20.1789 91.084 20.2236 91.1733 20.3129C91.2775 20.3874 91.3296 20.4916 91.3296 20.6256C91.3296 21.0127 91.1063 21.4593 90.6597 21.9655C90.2279 22.4717 89.5951 22.9109 88.7614 23.2832C87.9276 23.6554 86.945 23.8415 85.8135 23.8415ZM87.6894 16.628V16.5834C87.6894 15.8538 87.5182 15.2806 87.1758 14.8637C86.8482 14.432 86.3867 14.2161 85.7911 14.2161C85.2105 14.2161 84.7489 14.432 84.4065 14.8637C84.079 15.2806 83.9152 15.8538 83.9152 16.5834V16.628H87.6894Z" fill="white"/>
<path d="M93.0313 23.6181C92.8675 23.6181 92.7335 23.566 92.6293 23.4618C92.5251 23.3576 92.4729 23.2236 92.4729 23.0598V12.5635C92.4729 12.3997 92.5251 12.2657 92.6293 12.1615C92.7335 12.0573 92.8675 12.0052 93.0313 12.0052H95.4655C95.6293 12.0052 95.7633 12.0573 95.8675 12.1615C95.9717 12.2657 96.0238 12.3997 96.0238 12.5635V13.3228C96.3663 12.8761 96.8204 12.5114 97.3861 12.2285C97.9668 11.9307 98.6144 11.7818 99.3291 11.7818C100.967 11.7818 102.098 12.422 102.724 13.7024C103.081 13.1367 103.58 12.6751 104.22 12.3178C104.86 11.9605 105.545 11.7818 106.275 11.7818C107.495 11.7818 108.485 12.1987 109.245 13.0325C110.019 13.8513 110.406 15.0796 110.406 16.7174V23.0598C110.406 23.2087 110.354 23.3427 110.25 23.4618C110.146 23.566 110.012 23.6181 109.848 23.6181H107.257C107.093 23.6181 106.952 23.566 106.833 23.4618C106.729 23.3576 106.677 23.2236 106.677 23.0598V16.8737C106.677 16.1293 106.52 15.5933 106.208 15.2657C105.91 14.9382 105.5 14.7744 104.979 14.7744C104.503 14.7744 104.108 14.9456 103.796 15.2881C103.483 15.6156 103.327 16.1442 103.327 16.8737V23.0598C103.327 23.2087 103.275 23.3427 103.17 23.4618C103.066 23.566 102.932 23.6181 102.768 23.6181H100.178C100.014 23.6181 99.8799 23.566 99.7757 23.4618C99.6715 23.3576 99.6194 23.2236 99.6194 23.0598V16.8737C99.6194 16.1442 99.4556 15.6156 99.1281 15.2881C98.8154 14.9456 98.4134 14.7744 97.9221 14.7744C97.4457 14.7744 97.0437 14.9456 96.7162 15.2881C96.4035 15.6156 96.2472 16.1367 96.2472 16.8514V23.0598C96.2472 23.2087 96.1951 23.3427 96.0908 23.4618C95.9866 23.566 95.8526 23.6181 95.6888 23.6181H93.0313Z" fill="white"/>
<path d="M118.791 23.8415C117.302 23.8415 116.148 23.3427 115.33 22.3452V23.0598C115.33 23.2087 115.277 23.3427 115.173 23.4618C115.069 23.566 114.935 23.6181 114.771 23.6181H112.248C112.099 23.6181 111.965 23.566 111.846 23.4618C111.741 23.3427 111.689 23.2087 111.689 23.0598V8.32028C111.689 8.15651 111.741 8.02251 111.846 7.91829C111.965 7.81407 112.099 7.76196 112.248 7.76196H114.972C115.136 7.76196 115.27 7.81407 115.374 7.91829C115.478 8.02251 115.531 8.15651 115.531 8.32028V13.0995C116.364 12.2211 117.451 11.7818 118.791 11.7818C120.235 11.7818 121.374 12.2508 122.208 13.1888C123.042 14.1268 123.488 15.3997 123.548 17.0077C123.563 17.2012 123.57 17.4692 123.57 17.8117C123.57 18.1392 123.563 18.3998 123.548 18.5933C123.474 20.2608 123.027 21.5561 122.208 22.4792C121.389 23.3874 120.25 23.8415 118.791 23.8415ZM117.585 20.8489C118.285 20.8489 118.784 20.6405 119.081 20.2236C119.394 19.8067 119.573 19.2335 119.617 18.504C119.647 18.2062 119.662 17.9754 119.662 17.8117C119.662 17.6479 119.647 17.4171 119.617 17.1193C119.573 16.3898 119.394 15.8166 119.081 15.3997C118.784 14.9829 118.285 14.7744 117.585 14.7744C116.93 14.7744 116.431 14.9754 116.089 15.3774C115.746 15.7794 115.56 16.2856 115.531 16.896L115.508 17.7223L115.531 18.571C115.575 19.2409 115.754 19.7918 116.067 20.2236C116.394 20.6405 116.9 20.8489 117.585 20.8489Z" fill="white"/>
<path d="M125.096 23.6181C124.947 23.6181 124.813 23.566 124.694 23.4618C124.589 23.3427 124.537 23.2087 124.537 23.0598V8.32028C124.537 8.15651 124.589 8.02251 124.694 7.91829C124.813 7.81407 124.947 7.76196 125.096 7.76196H127.731C127.895 7.76196 128.029 7.81407 128.133 7.91829C128.237 8.02251 128.289 8.15651 128.289 8.32028V23.0598C128.289 23.2236 128.237 23.3576 128.133 23.4618C128.029 23.566 127.895 23.6181 127.731 23.6181H125.096Z" fill="white"/>
<path d="M131.853 27.8614C131.719 27.8614 131.607 27.8167 131.518 27.7274C131.429 27.638 131.384 27.5264 131.384 27.3924C131.384 27.2881 131.406 27.1914 131.451 27.102L133.193 22.9035L128.905 12.7645C128.86 12.6454 128.838 12.556 128.838 12.4965C128.868 12.3625 128.927 12.2508 129.017 12.1615C129.106 12.0573 129.218 12.0052 129.352 12.0052H131.898C132.21 12.0052 132.426 12.1615 132.545 12.4742L135.091 18.973L137.704 12.4742C137.853 12.1615 138.076 12.0052 138.374 12.0052H140.875C141.009 12.0052 141.121 12.0573 141.21 12.1615C141.315 12.2508 141.367 12.355 141.367 12.4742C141.367 12.5337 141.344 12.6305 141.3 12.7645L134.98 27.3924C134.861 27.705 134.637 27.8614 134.31 27.8614H131.853Z" fill="white"/>
<path d="M140.23 23.6181C140.111 23.6181 139.999 23.5735 139.895 23.4842C139.805 23.3799 139.761 23.2683 139.761 23.1492C139.761 23.0598 139.768 22.9928 139.783 22.9482L145.031 8.6106C145.076 8.43194 145.173 8.28306 145.322 8.16395C145.47 8.04484 145.664 7.98529 145.902 7.98529H149.207C149.446 7.98529 149.639 8.04484 149.788 8.16395C149.937 8.28306 150.034 8.43194 150.078 8.6106L155.304 22.9482L155.349 23.1492C155.349 23.2683 155.297 23.3799 155.193 23.4842C155.103 23.5735 154.992 23.6181 154.858 23.6181H152.111C151.753 23.6181 151.515 23.4618 151.396 23.1492L150.525 20.8712H144.562L143.714 23.1492C143.594 23.4618 143.349 23.6181 142.977 23.6181H140.23ZM149.632 17.6553L147.555 11.7595L145.478 17.6553H149.632Z" fill="white"/>
<path d="M156.427 23.6181C156.278 23.6181 156.144 23.566 156.025 23.4618C155.921 23.3427 155.868 23.2087 155.868 23.0598V8.54361C155.868 8.37983 155.921 8.24584 156.025 8.14162C156.144 8.0374 156.278 7.98529 156.427 7.98529H159.419C159.583 7.98529 159.717 8.0374 159.821 8.14162C159.94 8.24584 160 8.37983 160 8.54361V23.0598C160 23.2236 159.94 23.3576 159.821 23.4618C159.717 23.566 159.583 23.6181 159.419 23.6181H156.427Z" fill="white"/>
<g clip-path="url(#clip0)">
<path d="M3.04788 21.5735L0.495235 27.5739C-0.220976 29.2537 -0.355661 31.1695 1.43793 31.8368C1.86643 31.9979 2.30105 32.0727 2.73568 32.0727C4.11913 32.0727 5.43524 31.2903 5.98005 30.0074L6.49426 28.7992L10.4304 19.5542L14.3481 10.3437C15.2831 8.70652 15.8565 6.18712 19.5269 4.83237C16.6734 4.46642 10.9212 3.71338 10.8637 3.71338C10.8269 3.77091 10.4426 4.35487 10.4059 4.4124C10.3263 4.53897 10.2467 4.67129 10.1855 4.80936C10.1794 4.82086 10.1794 4.82662 10.1733 4.83237L3.054 21.562C3.054 21.562 3.04788 21.5678 3.04788 21.5735Z" fill="url(#paint0_radial)"/>
<path d="M28.5675 21.5733L31.1201 27.5736C31.8363 29.2535 31.971 31.1693 30.1774 31.8366C29.7489 31.9977 29.3143 32.0725 28.8797 32.0725C27.4962 32.0725 26.1801 31.2901 25.6353 30.0072L25.1211 28.799L21.185 19.554L17.2673 10.3435C16.3323 8.70631 14.7539 5.32206 10.5386 4.2281C11.0711 2.97971 12.8965 2.76685 14.3228 2.76685H18.1916H18.2222C18.3752 2.7726 18.5222 2.78986 18.6813 2.81287C18.7609 2.82438 18.8466 2.82438 18.9262 2.84163C19.0302 2.86465 19.1282 2.90492 19.2323 2.93368C19.3486 2.9682 19.4649 2.99121 19.5751 3.03724C19.624 3.06025 19.673 3.08901 19.722 3.11202C19.875 3.18106 20.0219 3.2501 20.1627 3.33639C20.2607 3.39392 20.3402 3.47446 20.4321 3.5435C20.5116 3.60678 20.6035 3.66431 20.6769 3.73334C20.7443 3.80238 20.8055 3.88292 20.8728 3.95771C20.9524 4.04976 21.0381 4.1303 21.1054 4.2281C21.1421 4.28563 21.1728 4.35467 21.2095 4.41219C21.2891 4.53876 21.3686 4.67108 21.4299 4.80915C21.436 4.82066 21.436 4.82641 21.4421 4.83216L28.5614 21.5618C28.5614 21.5618 28.5675 21.5675 28.5675 21.5733Z" fill="url(#paint1_radial)"/>
</g>
<defs>
<radialGradient id="paint0_radial" cx="0" cy="0" r="1" gradientUnits="userSpaceOnUse" gradientTransform="translate(12.1197 6.8554) rotate(112.412) scale(27.6399 18.8671)">
<stop stop-color="white"/>
<stop offset="1" stop-color="white"/>
</radialGradient>
<radialGradient id="paint1_radial" cx="0" cy="0" r="1" gradientUnits="userSpaceOnUse" gradientTransform="translate(29.5677 9.20504) rotate(132.41) scale(25.6557 89.7655)">
<stop stop-color="white"/>
<stop offset="1" stop-color="white"/>
</radialGradient>
<clipPath id="clip0">
<rect width="32.2583" height="32.2583" fill="white"/>
</clipPath>
</defs>
</svg>