<svg fill="none" viewBox="0 0 21 17"><path fill="#fff" fill-rule="evenodd" d="M2.51.115C5.088-.48 10.506 1.37 10.506 2.69c0-1.321 5.35-3.171 7.993-2.576.463.132.793.594.793 1.057V3.22c1.057 0 1.652.132 1.652 1.123v9.91c0 .462-.396.858-.925.858h-3.37c-2.444 0-3.567.727-4.888 1.52-.33.198-1.255.066-1.255-.132 0 .198-.991.33-1.322.132-1.321-.793-2.444-1.52-4.889-1.52H.924c-.528 0-.924-.396-.924-.858l.066-9.91c0-.991.529-1.123 1.586-1.123V1.172c0-.463.396-.925.859-1.057zm7.995 13.543c-.727 0-.661-.33-.661-.727V3.682c0-.198-.198-.33-.33-.462C7.73 1.766 5.616 1.172 3.237 1.304c-.198 0-.33.198-.33.33v10.769c0 .198.132.33.33.33 2.51.066 5.22.727 7.268 2.378 1.981-1.651 4.69-2.312 7.267-2.378.132 0 .33-.132.33-.33V1.634c0-.132-.198-.33-.33-.33-2.445-.132-4.559.462-6.343 1.916-.132.132-.264.264-.264.462v9.25c0 .396 0 .726-.66.726z" clip-rule="evenodd"/></svg>