<svg fill="none" viewBox="0 0 20 20"><g clip-path="url(#clip0)"><path fill="#fff" d="M10 0C4.478 0 0 4.477 0 10c0 4.418 2.865 8.167 6.839 9.49.5.092.683-.218.683-.482 0-.238-.01-1.026-.014-1.862-2.782.605-3.369-1.18-3.369-1.18-.455-1.155-1.11-1.463-1.11-1.463-.907-.62.068-.608.068-.608 1.005.07 1.533 1.03 1.533 1.03.892 1.53 2.34 1.088 2.91.832.09-.646.35-1.087.635-1.337-2.221-.253-4.556-1.11-4.556-4.942a3.87 3.87 0 011.03-2.684c-.103-.252-.446-1.27.097-2.647 0 0 .84-.269 2.751 1.025A9.585 9.585 0 0110 4.836a9.61 9.61 0 012.505.336c1.909-1.294 2.747-1.025 2.747-1.025.545 1.378.202 2.395.098 2.647.642.7 1.03 1.592 1.03 2.684 0 3.84-2.34 4.686-4.566 4.934.358.31.678.919.678 1.852 0 1.338-.012 2.415-.012 2.744 0 .266.18.578.687.48A10.001 10.001 0 0020 10c0-5.523-4.477-10-10-10zM3.745 14.245c-.022.05-.1.065-.171.03-.073-.032-.113-.1-.09-.15.022-.05.1-.065.172-.03.073.032.115.1.09.15zm.492.44c-.047.043-.14.023-.204-.047-.065-.07-.078-.163-.03-.208.05-.044.14-.023.206.046.065.071.078.163.028.208zm.338.56c-.062.043-.162.004-.224-.085-.061-.09-.061-.196.002-.239.062-.042.16-.004.223.084.061.09.061.197-.001.24zm.57.651c-.054.06-.171.044-.257-.038-.087-.08-.111-.195-.056-.256.055-.06.173-.043.259.039.086.08.113.195.054.255zm.738.22c-.024.078-.137.114-.25.08-.113-.034-.187-.126-.164-.205.023-.079.136-.116.25-.08.113.034.188.125.164.205zm.84.093c.002.082-.094.15-.213.152-.12.003-.216-.064-.217-.145 0-.083.094-.151.213-.153.119-.002.216.064.216.146zm.824-.032c.014.08-.068.163-.186.185-.116.022-.224-.028-.239-.108-.014-.082.07-.165.186-.186.118-.02.224.027.239.11z"/></g><defs><clipPath id="clip0"><path fill="#fff" d="M0 0h20v19.531H0z"/></clipPath></defs></svg>