<svg xmlns="http://www.w3.org/2000/svg" width="18" height="15" fill="none" viewBox="0 0 18 15"><path fill="#1A1841" fill-rule="evenodd" d="M0 1.28571C0 0.575634 0.575634 0 1.28571 0H16.7143C17.4244 0 18 0.575634 18 1.28571C18 1.99579 17.4244 2.57143 16.7143 2.57143H1.28571C0.575634 2.57143 0 1.99579 0 1.28571ZM0 7.28541C0 6.57533 0.575634 5.99969 1.28571 5.99969H10.7143C11.4244 5.99969 12 6.57533 12 7.28541C12 7.99549 11.4244 8.57112 10.7143 8.57112H1.28571C0.575634 8.57112 0 7.99549 0 7.28541ZM1.28571 12.0003C0.575634 12.0003 0 12.5759 0 13.286C0 13.9961 0.575633 14.5717 1.28571 14.5717H13.2857C13.9958 14.5717 14.5714 13.9961 14.5714 13.286C14.5714 12.5759 13.9958 12.0003 13.2857 12.0003H1.28571Z" clip-rule="evenodd"/></svg>