<svg fill="none" viewBox="0 0 20 20"><path fill="#fff" d="M17.04 10.861c.9-1.56 2.46-4.44 2.46-5.64a3.08 3.08 0 00-6.159 0c0 1.2 1.56 4.08 2.46 5.64.28.48.96.48 1.24 0zm-2.06-5.64c0-.8.64-1.44 1.44-1.44.8 0 1.44.64 1.44 1.44 0 .8-.64 1.44-1.44 1.44-.8 0-1.44-.66-1.44-1.44z"/><path fill="#fff" d="M16.72 12.6H11c-.78 0-1.4-.62-1.4-1.4 0-.78.62-1.4 1.4-1.4h1.56c.34 0 .62-.28.62-.62 0-.34-.279-.62-.62-.62H11a2.63 2.63 0 00-2.62 2.62c0 1.44 1.18 2.64 2.62 2.64h5.7c.78 0 1.4.62 1.4 1.4 0 .78-.62 1.4-1.4 1.4H6.5c-.34 0-.62.28-.62.62 0 .34.28.62.62.62h10.22a2.63 2.63 0 002.621-2.62c0-1.44-1.18-2.64-2.62-2.64zM3.58 8.721A3.08 3.08 0 00.5 11.8c0 1.2 1.56 4.08 2.46 5.64.28.479.96.479 1.24 0 .9-1.56 2.46-4.44 2.46-5.64 0-1.72-1.38-3.08-3.08-3.08zm0 4.5c-.8 0-1.44-.64-1.44-1.44 0-.8.64-1.44 1.44-1.44.8 0 1.44.64 1.44 1.44 0 .8-.64 1.44-1.44 1.44z"/></svg>