<svg fill="none" viewBox="0 0 20 20"><path fill="#fff" d="M2.523 8.71l2.32.961a13.36 13.36 0 00-.624 2.035l-.089.4 3.327 3.328.4-.086a13.304 13.304 0 002.034-.624l.961 2.32h.001a.15.15 0 00.245.048l1.454-1.454h.001a2.4 2.4 0 00.7-1.818l-.052-.934c2.692-1.988 5.415-5.474 6.158-11.558A.998.998 0 0018.237.2c-6.082.747-9.57 3.474-11.558 6.158l-.932-.048A2.398 2.398 0 003.929 7L2.475 8.454a.151.151 0 00-.05.142.15.15 0 00.098.114zm9.328-3.545a1.8 1.8 0 112.54 2.552 1.8 1.8 0 01-2.54-2.552zM2.089 15.7a2.364 2.364 0 00-1.2-.096.216.216 0 01-.2-.06.218.218 0 01-.045-.247c.427-.915 1.557-2.758 3.603-1.27a.1.1 0 01.033.077.1.1 0 01-.033.075A2.223 2.223 0 003.4 16a.162.162 0 00.156.157 2.22 2.22 0 001.82-.828.1.1 0 01.078-.038c.032 0 .06.014.08.038.284.338 1.066 1.442.2 2.508-.378.454-.92.742-1.508.8-.84.09-2.392.364-3.026 1.088a.218.218 0 01-.376-.08C.6 18.878.253 17.171 2.089 15.7z"/></svg>