<svg fill="none" viewBox="0 0 36 79"><mask id="a" fill="#fff"><path fill-rule="evenodd" d="M20.215 8.718a10 10 0 00-3.386 3.667l-1.667 3.102a5.001 5.001 0 00.304 5.231c.131.188.213.408.213.637v15.321c0 .51-.684.678-.92.226a7.22 7.22 0 00-2.992-3.03l-9.716-5.21c-.621-.332-1.303.33-.987.96l5.103 10.185a7.222 7.222 0 002.368 2.718l2.096 1.44a3.61 3.61 0 004.562-.388l.093-.091c.136-.133.393-.042.393.147v12.138a10.004 10.004 0 00-7 9.543v4a1 1 0 001 1h4v6.5a1.5 1.5 0 003 0v-6.5h4v6.5a1.5 1.5 0 003 0v-6.5h4a1 1 0 001-1v-4c0-4.838-3.436-8.874-8-9.8V23.696c0-.478.342-.878.789-1.047a4.996 4.996 0 001.013-.52l3.023-2.019a10 10 0 003.72-4.574L34.94 1.38c.366-.905-.65-1.744-1.47-1.214L20.216 8.718z" clip-rule="evenodd"/></mask><path fill="#F7A501" fill-opacity=".4" fill-rule="evenodd" d="M20.215 8.718a10 10 0 00-3.386 3.667l-1.667 3.102a5.001 5.001 0 00.304 5.231c.131.188.213.408.213.637v15.321c0 .51-.684.678-.92.226a7.22 7.22 0 00-2.992-3.03l-9.716-5.21c-.621-.332-1.303.33-.987.96l5.103 10.185a7.222 7.222 0 002.368 2.718l2.096 1.44a3.61 3.61 0 004.562-.388l.093-.091c.136-.133.393-.042.393.147v12.138a10.004 10.004 0 00-7 9.543v4a1 1 0 001 1h4v6.5a1.5 1.5 0 003 0v-6.5h4v6.5a1.5 1.5 0 003 0v-6.5h4a1 1 0 001-1v-4c0-4.838-3.436-8.874-8-9.8V23.696c0-.478.342-.878.789-1.047a4.996 4.996 0 001.013-.52l3.023-2.019a10 10 0 003.72-4.574L34.94 1.38c.366-.905-.65-1.744-1.47-1.214L20.216 8.718z" clip-rule="evenodd"/><path fill="#F7A501" fill-opacity=".8" d="M16.83 12.385l1.32.71-1.32-.71zm3.385-3.667l.813 1.26-.813-1.26zm-5.053 6.769l1.32.71-1.32-.71zm.304 5.231l-1.23.859 1.23-.859zm-.707 16.184l-1.33.692 1.33-.692zm-2.992-3.03l-.71 1.323.71-1.322zm-9.716-5.21l-.71 1.323.71-1.322zm-.987.96l-1.341.672 1.34-.672zm5.103 10.185l1.34-.672-1.34.672zm2.368 2.718l-.85 1.236.85-1.236zm2.096 1.44L9.78 45.2l.85-1.236zm4.562-.388L14.147 42.5l1.046 1.076zm.093-.091l1.046 1.075-1.046-1.075zm.393 12.285l.45 1.431 1.05-.33v-1.1h-1.5zm-2 14.543h1.5v-1.5h-1.5v1.5zm3 0v-1.5h-1.5v1.5h1.5zm4 0h1.5v-1.5h-1.5v1.5zm3 0v-1.5h-1.5v1.5h1.5zm-3-14.8h-1.5v1.226l1.201.244.299-1.47zm.789-32.865l-.53-1.403.53 1.403zm1.013-.52l-.833-1.248.833 1.247zm3.023-2.019l-.833-1.247.833 1.247zm3.72-4.574l-1.39-.561 1.39.561zM34.94 1.38L33.55.818l1.39.561zM33.47.165l-.813-1.26.814 1.26zm-15.32 12.93a8.5 8.5 0 012.878-3.117l-1.626-2.52a11.5 11.5 0 00-3.894 4.217l2.643 1.42zm-1.667 3.102l1.668-3.102-2.643-1.42-1.668 3.102 2.643 1.42zm.212 3.662a3.501 3.501 0 01-.212-3.662l-2.643-1.42a6.501 6.501 0 00.396 6.8l2.46-1.718zm.484 1.496c0-.59-.21-1.104-.484-1.496l-2.459 1.718a.393.393 0 01-.057-.222h3zm0 15.321v-15.32h-3v15.32h3zm-3.75.918c.96 1.845 3.75 1.162 3.75-.918h-3c0-1.059 1.421-1.407 1.91-.467l-2.66 1.385zm-2.371-2.4a5.721 5.721 0 012.37 2.4l2.661-1.385a8.721 8.721 0 00-3.613-3.658l-1.418 2.644zm-9.716-5.21l9.716 5.21 1.418-2.643-9.716-5.21-1.418 2.644zm1.063-1.033c.34.678-.394 1.392-1.063 1.034L2.76 27.34c-1.912-1.024-4.01 1.015-3.037 2.954l2.682-1.343zm5.103 10.184L2.405 28.951l-2.682 1.343L4.826 40.48l2.682-1.344zm1.876 2.153a5.721 5.721 0 01-1.876-2.153L4.826 40.48a8.721 8.721 0 002.86 3.282l1.698-2.473zm2.096 1.44l-2.096-1.44-1.699 2.473 2.097 1.44 1.698-2.473zm2.667-.227a2.11 2.11 0 01-2.667.227l-1.698 2.473a5.11 5.11 0 006.456-.549l-2.091-2.15zm.093-.09l-.093.09 2.091 2.151.094-.091-2.092-2.15zm2.939 1.222c0-.864-.601-1.409-1.13-1.602a1.736 1.736 0 00-1.809.38l2.092 2.15c-.42.409-.96.416-1.315.286a1.292 1.292 0 01-.838-1.214h3zm0 12.138V43.633h-3v12.138h3zm-7 9.543c0-3.804 2.5-7.028 5.95-8.112l-.9-2.862c-4.664 1.465-8.05 5.822-8.05 10.974h3zm0 4v-4h-3v4h3zm-.5-.5a.5.5 0 01.5.5h-3a2.5 2.5 0 002.5 2.5v-3zm4 0h-4v3h4v-3zm1.5 8v-6.5h-3v6.5h3zm0 0h-3a3 3 0 003 3v-3zm0 0v3a3 3 0 003-3h-3zm0-6.5v6.5h3v-6.5h-3zm5.5-1.5h-4v3h4v-3zm1.5 8v-6.5h-3v6.5h3zm0 0h-3a3 3 0 003 3v-3zm0 0v3a3 3 0 003-3h-3zm0-6.5v6.5h3v-6.5h-3zm5.5-1.5h-4v3h4v-3zm-.5.5a.5.5 0 01.5-.5v3a2.5 2.5 0 002.5-2.5h-3zm0-4v4h3v-4h-3zm-6.799-8.33a8.503 8.503 0 016.799 8.33h3c0-5.566-3.952-10.204-9.202-11.27l-.597 2.94zm-1.2-33.288v31.818h3V23.696h-3zm1.76-2.45c-.893.336-1.76 1.213-1.76 2.45h3c0 .131-.05.23-.091.284a.21.21 0 01-.091.073l-1.058-2.807zm.71-.365a3.504 3.504 0 01-.71.365l1.058 2.807a6.49 6.49 0 001.317-.677l-1.666-2.495zm3.022-2.018l-3.023 2.018 1.666 2.495 3.023-2.018-1.666-2.495zm3.163-3.888a8.5 8.5 0 01-3.163 3.888l1.666 2.495a11.5 11.5 0 004.279-5.26l-2.782-1.123zM33.548.818l-5.714 14.157 2.782 1.123L36.33 1.94 33.548.818zm.735.607a.5.5 0 01-.735-.607L36.33 1.94c.913-2.263-1.623-4.36-3.674-3.037l1.627 2.52zM21.028 9.978l13.255-8.553-1.627-2.52-13.254 8.552 1.626 2.521z" mask="url(#a)"/></svg>