<svg fill="none" xmlns="http://www.w3.org/2000/svg" viewBox="0 0 56 64"><path d="M55.667 62.142A1.861 1.861 0 0153.812 64H1.854a1.857 1.857 0 010-3.712H6.18c2.154-4.676 7.143-9.28 12.376-9.28 1.558 0 3.103.276 4.564.818a16.862 16.862 0 014.436-2.932c-.201-4.617-.15-9.245.15-13.861a1.468 1.468 0 01-.15-.258 38.659 38.659 0 00-1.614-3.694c-7.07.556-11.969-.056-14.567-1.82-5.9-4.005-5.806-14.86-5.806-15.305a1.855 1.855 0 013.34-1.096 15.765 15.765 0 005.883 3.302 33.232 33.232 0 017.94 4.23 24.992 24.992 0 015.771 7.554c.185-1.058.39-2.078.63-3.024a17.728 17.728 0 012.08-5.198c5.271-7.977 9.464-15.531 10.205-18.352v.004A1.884 1.884 0 0143.142 0a1.858 1.858 0 011.82 1.225c.557 1.503 5.194 14.846-.428 20.468-2.968 2.95-7.977 4.491-12.079 5.288a99.482 99.482 0 00-1.225 20.687 16.953 16.953 0 013.507-.368c7.533 0 14.251 6.513 16.7 12.987h2.377a1.86 1.86 0 011.854 1.855h-.001z" fill="#BFBFBC"/></svg>