<svg fill="none" viewBox="0 0 75 77"><path fill="#F7A501" fill-opacity=".2" d="M6.056 36.337c0 14.708 11.506 16.006 6.489 16.006S0 50.18 0 36.337C0 21.63 7.528 19.9 12.545 19.9s-6.489 1.73-6.489 16.438z"/><path stroke="#F7A501" stroke-opacity=".8" stroke-width="1.264" d="M5.424 36.337c0 7.55 2.964 11.709 5.32 13.974a19.606 19.606 0 001.564 1.344l.07.055c-2.398-.024-5.27-.573-7.563-2.648C2.481 46.95.632 43.147.632 36.337c0-7.255 1.856-11.16 4.183-13.266 2.334-2.112 5.274-2.539 7.723-2.54l-.248.207c-.435.365-.975.832-1.557 1.42-2.346 2.368-5.31 6.631-5.31 14.18z"/><ellipse cx="14.244" cy="36.337" fill="#F7A501" fill-opacity=".2" rx="9.084" ry="16.438"/><path stroke="#F7A501" stroke-opacity=".8" stroke-width="1.264" d="M22.696 36.337c0 4.453-.999 8.453-2.582 11.318-1.595 2.886-3.697 4.488-5.87 4.488s-4.275-1.602-5.87-4.488C6.79 44.79 5.792 40.79 5.792 36.337c0-4.453.999-8.453 2.582-11.318 1.595-2.886 3.697-4.488 5.87-4.488s4.275 1.602 5.87 4.488c1.583 2.865 2.582 6.865 2.582 11.318z"/><ellipse cx="14.244" cy="36.337" fill="#F7A501" fill-opacity=".2" rx="7.244" ry="13.109"/><path stroke="#F7A501" stroke-opacity=".8" stroke-width="1.008" d="M20.984 36.337c0 3.552-.796 6.742-2.059 9.026-1.272 2.302-2.948 3.58-4.68 3.58-1.734 0-3.41-1.278-4.682-3.58-1.263-2.284-2.06-5.474-2.06-9.026 0-3.55.797-6.74 2.06-9.025 1.272-2.302 2.948-3.58 4.681-3.58s3.41 1.278 4.681 3.58c1.263 2.284 2.06 5.474 2.06 9.025z"/><mask id="a" fill="#fff"><path fill-rule="evenodd" d="M15.339 23.377a4.125 4.125 0 00-1.095-.148c-4 0-7.244 5.869-7.244 13.108 0 .674.028 1.335.082 1.981l8.257-14.94zM7.494 41.104a17.792 17.792 0 001.046 3.315l10.17-18.404c-.552-.783-1.168-1.424-1.832-1.893L7.494 41.104zm5.12 8.01c-.592-.247-1.157-.625-1.685-1.117l9.758-17.658c.272.954.481 1.977.618 3.05l-8.69 15.724zm1.302.32c.109.008.218.012.328.012 4.001 0 7.245-5.869 7.245-13.108 0-.2-.003-.397-.008-.594l-7.565 13.69z" clip-rule="evenodd"/></mask><path fill="#F7A501" fill-opacity=".2" fill-rule="evenodd" d="M15.339 23.377a4.125 4.125 0 00-1.095-.148c-4 0-7.244 5.869-7.244 13.108 0 .674.028 1.335.082 1.981l8.257-14.94zM7.494 41.104a17.792 17.792 0 001.046 3.315l10.17-18.404c-.552-.783-1.168-1.424-1.832-1.893L7.494 41.104zm5.12 8.01c-.592-.247-1.157-.625-1.685-1.117l9.758-17.658c.272.954.481 1.977.618 3.05l-8.69 15.724zm1.302.32c.109.008.218.012.328.012 4.001 0 7.245-5.869 7.245-13.108 0-.2-.003-.397-.008-.594l-7.565 13.69z" clip-rule="evenodd"/><path fill="#F7A501" fill-opacity=".8" d="M15.339 23.377l.882.488.62-1.121-1.236-.34-.266.973zM7.082 38.318l-1.005.084.278 3.317 1.61-2.913-.883-.488zm1.458 6.1l-.926.402.816 1.882.992-1.795-.882-.488zm-1.046-3.314l-.883-.487-.183.33.08.37.986-.213zM18.71 26.015l.883.488.305-.553-.364-.516-.824.581zm-1.832-1.893l.582-.823-.92-.65-.544.985.882.488zM10.93 47.996l-.882-.487-.38.688.574.537.688-.738zm1.686 1.117l-.388.931.834.347.436-.79-.882-.487zm8.072-18.774l.97-.276-.67-2.352-1.182 2.14.882.488zm.618 3.05l.882.488.16-.289-.042-.326-1 .127zm-7.389 16.044l-.882-.487-.756 1.367 1.557.125.081-1.005zm7.565-13.689l1.008-.025-.091-3.718-1.8 3.256.883.487zm-7.237-11.507c.28 0 .556.038.828.113l.533-1.945a5.135 5.135 0 00-1.36-.185v2.017zm-6.236 12.1c0-3.482.782-6.585 1.996-8.781 1.234-2.232 2.775-3.32 4.24-3.32V22.22c-2.535 0-4.616 1.848-6.005 4.36-1.408 2.548-2.248 6-2.248 9.758h2.017zm.079 1.897a22.731 22.731 0 01-.079-1.897H5.991c0 .702.03 1.391.086 2.065l2.01-.168zm6.37-15.345L6.198 37.83l1.765.976 8.257-14.941-1.765-.976zM9.464 44.018a16.812 16.812 0 01-.986-3.126l-1.971.425c.272 1.26.645 2.438 1.106 3.503l1.851-.802zm8.363-18.49L7.658 43.93l1.764.976 10.17-18.404-1.764-.976zm-1.531-.582c.552.39 1.09.942 1.589 1.65l1.648-1.162c-.604-.857-1.298-1.587-2.074-2.135l-1.163 1.647zm-7.92 16.646L17.76 24.61l-1.765-.976L6.61 40.617l1.765.975zm1.864 7.142a6.73 6.73 0 001.986 1.31l.775-1.862c-.465-.193-.93-.5-1.385-.923l-1.376 1.475zm9.564-18.883L10.047 47.51l1.765.975 9.758-17.657-1.765-.976zm2.5 3.41a21.66 21.66 0 00-.648-3.198l-1.94.552c.258.904.457 1.876.587 2.9l2-.253zm-8.808 16.34l8.69-15.724-1.765-.976-8.69 15.725 1.765.975zm.338.837c.136.011.272.017.41.017v-2.017c-.084 0-.166-.003-.248-.01l-.162 2.01zm.41.017c2.535 0 4.616-1.848 6.004-4.36 1.409-2.548 2.248-6 2.248-9.758H20.48c0 3.483-.782 6.586-1.996 8.782-1.233 2.232-2.775 3.319-4.24 3.319v2.017zm8.252-14.117c0-.208-.003-.414-.008-.619l-2.016.05c.005.188.007.378.007.569h2.017zm-1.898-1.081l-7.565 13.689 1.765.975 7.565-13.689-1.765-.975z" mask="url(#a)"/><circle cx="57.966" cy="16.438" r="16.438" fill="#F7A501" fill-opacity=".2"/><circle cx="57.966" cy="16.438" r="15.806" stroke="#F7A501" stroke-opacity=".8" stroke-width="1.264"/><circle cx="57.967" cy="16.439" r="13.109" fill="#F7A501" fill-opacity=".2"/><circle cx="57.967" cy="16.439" r="12.605" stroke="#F7A501" stroke-opacity=".8" stroke-width="1.008"/><mask id="b" fill="#fff"><path fill-rule="evenodd" d="M59.947 3.478a13.211 13.211 0 00-1.98-.148c-7.24 0-13.11 5.869-13.11 13.109 0 .673.052 1.334.15 1.98l14.94-14.94zM45.751 21.205a13.093 13.093 0 001.894 3.315L66.047 6.116a13.094 13.094 0 00-3.314-1.893L45.75 21.205zm9.267 8.01a13.017 13.017 0 01-3.05-1.117L69.626 10.44c.492.955.87 1.977 1.117 3.05L55.018 29.215zm2.356.32c.196.008.394.012.593.012 7.24 0 13.109-5.869 13.109-13.108 0-.2-.005-.397-.013-.594l-13.69 13.69z" clip-rule="evenodd"/></mask><path fill="#F7A501" fill-opacity=".2" fill-rule="evenodd" d="M59.947 3.478a13.211 13.211 0 00-1.98-.148c-7.24 0-13.11 5.869-13.11 13.109 0 .673.052 1.334.15 1.98l14.94-14.94zM45.751 21.205a13.093 13.093 0 001.894 3.315L66.047 6.116a13.094 13.094 0 00-3.314-1.893L45.75 21.205zm9.267 8.01a13.017 13.017 0 01-3.05-1.117L69.626 10.44c.492.955.87 1.977 1.117 3.05L55.018 29.215zm2.356.32c.196.008.394.012.593.012 7.24 0 13.109-5.869 13.109-13.108 0-.2-.005-.397-.013-.594l-13.69 13.69z" clip-rule="evenodd"/><path fill="#F7A501" fill-opacity=".8" d="M59.947 3.478l.713.713 1.412-1.41-1.974-.3-.15.997zM45.007 18.42l-.997.151.299 1.973 1.41-1.41-.712-.714zm2.638 6.1l-.794.623.702.896.805-.805-.713-.713zm-1.894-3.314l-.712-.713-.467.466.24.614.94-.367zm20.298-15.09l.713.713.805-.804-.896-.702-.622.793zm-3.314-1.893l.366-.94-.613-.239-.466.466.713.713zM51.968 28.098l-.713-.713-.976.976 1.227.633.462-.896zm3.05 1.117l-.226.982.545.125.394-.394-.713-.713zM69.626 10.44l.896-.462-.633-1.227-.976.976.713.713zm1.117 3.05l.713.713.395-.395-.125-.544-.983.226zm-13.37 16.044l-.712-.713-1.619 1.619 2.287.102.045-1.008zm13.69-13.689l1.007-.044-.102-2.287-1.618 1.618.713.713zM57.967 4.338c.622 0 1.233.047 1.83.137l.302-1.994a14.22 14.22 0 00-2.132-.16v2.017zm-12.1 12.1c0-6.682 5.417-12.1 12.1-12.1V2.321c-7.797 0-14.117 6.32-14.117 14.117h2.016zm.137 1.83a12.209 12.209 0 01-.138-1.83H43.85c0 .725.055 1.436.16 2.132l1.995-.302zm13.23-15.503l-14.94 14.941 1.426 1.426 14.94-14.94-1.426-1.427zM48.438 23.898a12.083 12.083 0 01-1.747-3.06l-1.879.734a14.1 14.1 0 002.039 3.57l1.587-1.244zM65.335 5.403L46.932 23.807l1.426 1.426L66.76 6.829l-1.426-1.426zm-2.968-.24a12.083 12.083 0 013.06 1.747l1.243-1.587a14.1 14.1 0 00-3.57-2.04l-.733 1.88zM46.465 21.917L63.447 4.936 62.02 3.51 45.038 20.492l1.427 1.426zm5.041 7.076c1.029.53 2.13.938 3.286 1.203l.452-1.965a12.01 12.01 0 01-2.813-1.03l-.925 1.792zM68.913 9.727L51.255 27.385l1.426 1.426L70.34 11.153l-1.426-1.426zm2.813 3.537a14.026 14.026 0 00-1.204-3.286l-1.792.924c.454.88.803 1.824 1.03 2.814l1.966-.452zM55.73 29.928l15.725-15.725-1.426-1.426-15.725 15.725 1.426 1.426zm1.598.614c.211.01.424.014.638.014v-2.017c-.184 0-.367-.004-.548-.012l-.09 2.015zm.638.014c7.797 0 14.117-6.32 14.117-14.117h-2.017c0 6.683-5.417 12.1-12.1 12.1v2.017zm14.117-14.117c0-.214-.005-.427-.014-.638l-2.015.09c.008.181.012.364.012.548h2.017zm-1.734-1.307l-13.69 13.69 1.427 1.425 13.689-13.689-1.426-1.426z" mask="url(#b)"/><circle cx="44.989" cy="60.562" r="16.438" fill="#F7A501" fill-opacity=".2"/><circle cx="44.989" cy="60.562" r="15.806" stroke="#F7A501" stroke-opacity=".8" stroke-width="1.264"/><circle cx="44.989" cy="60.562" r="13.109" fill="#F7A501" fill-opacity=".2"/><circle cx="44.989" cy="60.562" r="12.605" stroke="#F7A501" stroke-opacity=".8" stroke-width="1.008"/><mask id="c" fill="#fff"><path fill-rule="evenodd" d="M46.97 47.602a13.21 13.21 0 00-1.98-.149c-7.24 0-13.11 5.87-13.11 13.11 0 .672.051 1.334.149 1.98l14.94-14.941zM32.774 65.329a13.094 13.094 0 001.893 3.315L53.071 50.24a13.092 13.092 0 00-3.315-1.893L32.774 65.329zm9.267 8.01a13.017 13.017 0 01-3.05-1.118l17.657-17.657c.492.954.87 1.977 1.117 3.05L42.041 73.338zm2.355.319c.197.009.395.013.593.013 7.24 0 13.11-5.87 13.11-13.109 0-.199-.005-.396-.014-.593L44.396 73.658z" clip-rule="evenodd"/></mask><path fill="#F7A501" fill-opacity=".2" fill-rule="evenodd" d="M46.97 47.602a13.21 13.21 0 00-1.98-.149c-7.24 0-13.11 5.87-13.11 13.11 0 .672.051 1.334.149 1.98l14.94-14.941zM32.774 65.329a13.094 13.094 0 001.893 3.315L53.071 50.24a13.092 13.092 0 00-3.315-1.893L32.774 65.329zm9.267 8.01a13.017 13.017 0 01-3.05-1.118l17.657-17.657c.492.954.87 1.977 1.117 3.05L42.041 73.338zm2.355.319c.197.009.395.013.593.013 7.24 0 13.11-5.87 13.11-13.109 0-.199-.005-.396-.014-.593L44.396 73.658z" clip-rule="evenodd"/><path fill="#F7A501" fill-opacity=".8" d="M46.97 47.602l.713.713 1.411-1.411-1.973-.3-.151.998zm-14.941 14.94l-.997.152.299 1.973 1.411-1.411-.713-.713zm2.638 6.102l-.794.622.703.895.804-.805-.713-.712zm-1.893-3.315l-.713-.713-.466.466.24.614.939-.367zm20.297-15.09l.713.714.804-.805-.895-.702-.622.794zm-3.315-1.892l.367-.94-.614-.24-.466.467.713.713zM38.991 72.22l-.713-.713-.977.977 1.228.633.462-.897zm3.05 1.117l-.226.983.544.125.395-.395-.713-.713zm14.607-18.774l.897-.462-.633-1.228-.977.977.713.713zm1.117 3.05l.713.713.395-.395-.125-.544-.983.226zM44.396 73.658l-.713-.713-1.618 1.618 2.286.102.045-1.007zm13.69-13.689l1.007-.045-.102-2.287-1.619 1.619.713.713zM44.988 48.461c.623 0 1.234.047 1.83.138l.302-1.994a14.214 14.214 0 00-2.132-.16v2.017zm-12.1 12.101c0-6.683 5.417-12.1 12.1-12.1v-2.017c-7.796 0-14.117 6.32-14.117 14.117h2.017zm.137 1.83a12.209 12.209 0 01-.137-1.83h-2.017c0 .724.055 1.436.16 2.132l1.994-.302zm13.23-15.503l-14.94 14.94 1.426 1.427 14.94-14.941-1.425-1.426zM35.462 68.02a12.082 12.082 0 01-1.748-3.059l-1.878.734a14.1 14.1 0 002.038 3.57l1.588-1.245zm16.897-18.494L33.954 67.93l1.426 1.426 18.404-18.403-1.426-1.426zm-2.969-.241a12.088 12.088 0 013.06 1.747l1.244-1.587a14.103 14.103 0 00-3.57-2.039l-.734 1.879zM33.487 66.042L50.469 49.06l-1.426-1.426-16.982 16.982 1.426 1.426zm5.042 7.076c1.028.53 2.13.937 3.286 1.203l.452-1.966a12.006 12.006 0 01-2.814-1.03l-.924 1.793zM55.935 53.85L38.278 71.508l1.426 1.426L57.36 55.277l-1.426-1.426zm2.813 3.537a14.02 14.02 0 00-1.203-3.286l-1.793.924c.454.88.803 1.824 1.03 2.813l1.966-.451zM42.754 74.05l15.724-15.724-1.426-1.426-15.724 15.724 1.426 1.426zm1.597.614c.212.01.425.014.638.014v-2.016c-.183 0-.366-.004-.548-.013l-.09 2.015zm.638.014c7.797 0 14.118-6.32 14.118-14.117H57.09c0 6.683-5.418 12.1-12.1 12.1v2.017zm14.118-14.117c0-.214-.005-.426-.014-.638l-2.015.09c.008.181.012.364.012.548h2.017zm-1.735-1.306l-13.689 13.69 1.426 1.426L58.8 60.682l-1.427-1.426z" mask="url(#c)"/><path fill="url(#paint0_radial)" d="M29.29 3l1.7 4.591 4.59 1.7-4.59 1.698-1.7 4.592-1.699-4.592L23 9.29l4.591-1.699L29.291 3z"/><path fill="url(#paint1_radial)" d="M64.29 36l1.7 4.591 4.59 1.7-4.59 1.698-1.7 4.592-1.699-4.592L58 42.29l4.591-1.699 1.7-4.591z"/><path fill="url(#paint2_radial)" d="M16.29 57.89l1.7 4.592 4.59 1.7-4.59 1.698-1.7 4.592-1.699-4.592L10 64.181l4.591-1.699 1.7-4.591z"/><defs><radialGradient id="paint0_radial" cx="0" cy="0" r="1" gradientTransform="rotate(90 10 19.29) scale(6.29032)" gradientUnits="userSpaceOnUse"><stop stop-color="#F7A501"/><stop offset="1" stop-color="#F7A501" stop-opacity="0"/></radialGradient><radialGradient id="paint1_radial" cx="0" cy="0" r="1" gradientTransform="rotate(90 11 53.29) scale(6.29032)" gradientUnits="userSpaceOnUse"><stop stop-color="#F7A501"/><stop offset="1" stop-color="#F7A501" stop-opacity="0"/></radialGradient><radialGradient id="paint2_radial" cx="0" cy="0" r="1" gradientTransform="rotate(90 -23.945 40.236) scale(6.29032)" gradientUnits="userSpaceOnUse"><stop stop-color="#F7A501"/><stop offset="1" stop-color="#F7A501" stop-opacity="0"/></radialGradient></defs></svg>