<svg width="75" height="77" viewBox="0 0 75 77" fill="none" xmlns="http://www.w3.org/2000/svg">
<path d="M6.05618 36.3371C6.05618 51.045 17.562 52.3427 12.5449 52.3427C7.52784 52.3427 0 50.1798 0 36.3371C0 21.6293 7.52784 19.8989 12.5449 19.8989C17.562 19.8989 6.05618 21.6293 6.05618 36.3371Z" fill="#F7A501" fill-opacity="0.2"/>
<path d="M5.42394 36.3371C5.42394 43.8861 8.38814 48.046 10.7438 50.3111C11.3278 50.8727 11.8696 51.3134 12.3079 51.6552C12.3318 51.6737 12.3551 51.6919 12.378 51.7097C9.98015 51.6857 7.10722 51.1367 4.81533 49.0622C2.48142 46.9497 0.632239 43.1471 0.632239 36.3371C0.632239 29.082 2.4881 25.1778 4.81533 23.0713C7.14924 20.9588 10.089 20.532 12.5377 20.5312C12.4615 20.5945 12.3792 20.6631 12.2904 20.7376C11.8545 21.1031 11.3147 21.5701 10.7328 22.1577C8.38701 24.5261 5.42394 28.7892 5.42394 36.3371Z" stroke="#F7A501" stroke-opacity="0.8" stroke-width="1.26448"/>
<ellipse cx="14.2439" cy="36.3371" rx="9.08427" ry="16.4382" fill="#F7A501" fill-opacity="0.2"/>
<path d="M22.696 36.3371C22.696 40.7902 21.6971 44.7904 20.1141 47.6549C18.5189 50.5415 16.4169 52.1431 14.2439 52.1431C12.071 52.1431 9.96899 50.5415 8.37375 47.6549C6.79074 44.7904 5.79191 40.7902 5.79191 36.3371C5.79191 31.8841 6.79074 27.8839 8.37375 25.0194C9.96899 22.1328 12.071 20.5312 14.2439 20.5312C16.4169 20.5312 18.5189 22.1328 20.1141 25.0194C21.6971 27.8839 22.696 31.8841 22.696 36.3371Z" stroke="#F7A501" stroke-opacity="0.8" stroke-width="1.26448"/>
<ellipse cx="14.2442" cy="36.3375" rx="7.24442" ry="13.1089" fill="#F7A501" fill-opacity="0.2"/>
<path d="M20.9844 36.3375C20.9844 39.8886 20.1879 43.0787 18.9255 45.363C17.6533 47.665 15.9771 48.9422 14.2442 48.9422C12.5113 48.9422 10.835 47.665 9.56289 45.363C8.30048 43.0787 7.50395 39.8886 7.50395 36.3375C7.50395 32.7863 8.30048 29.5963 9.56289 27.3119C10.835 25.0099 12.5113 23.7327 14.2442 23.7327C15.9771 23.7327 17.6533 25.0099 18.9255 27.3119C20.1879 29.5963 20.9844 32.7863 20.9844 36.3375Z" stroke="#F7A501" stroke-opacity="0.8" stroke-width="1.00838"/>
<mask id="path-7-inside-1" fill="white">
<path fill-rule="evenodd" clip-rule="evenodd" d="M15.3387 23.3772C14.9818 23.2793 14.6162 23.2285 14.2442 23.2285C10.2432 23.2285 6.99976 29.0976 6.99976 36.3375C6.99976 37.0107 7.0278 37.6721 7.0819 38.3181L15.3387 23.3772ZM7.4936 41.1043C7.75281 42.3054 8.10709 43.4203 8.5397 44.4188L18.7102 26.0151C18.1584 25.2323 17.5422 24.5912 16.8785 24.1221L7.4936 41.1043ZM12.6147 49.1135C12.0218 48.8669 11.4566 48.4886 10.9292 47.9965L20.6874 30.3389C20.9593 31.2933 21.1683 32.316 21.3046 33.3888L12.6147 49.1135ZM13.9163 49.4332C14.025 49.442 14.1343 49.4464 14.2442 49.4464C18.2452 49.4464 21.4886 43.5773 21.4886 36.3375C21.4886 36.1387 21.4861 35.9409 21.4813 35.7442L13.9163 49.4332Z"/>
</mask>
<path fill-rule="evenodd" clip-rule="evenodd" d="M15.3387 23.3772C14.9818 23.2793 14.6162 23.2285 14.2442 23.2285C10.2432 23.2285 6.99976 29.0976 6.99976 36.3375C6.99976 37.0107 7.0278 37.6721 7.0819 38.3181L15.3387 23.3772ZM7.4936 41.1043C7.75281 42.3054 8.10709 43.4203 8.5397 44.4188L18.7102 26.0151C18.1584 25.2323 17.5422 24.5912 16.8785 24.1221L7.4936 41.1043ZM12.6147 49.1135C12.0218 48.8669 11.4566 48.4886 10.9292 47.9965L20.6874 30.3389C20.9593 31.2933 21.1683 32.316 21.3046 33.3888L12.6147 49.1135ZM13.9163 49.4332C14.025 49.442 14.1343 49.4464 14.2442 49.4464C18.2452 49.4464 21.4886 43.5773 21.4886 36.3375C21.4886 36.1387 21.4861 35.9409 21.4813 35.7442L13.9163 49.4332Z" fill="#F7A501" fill-opacity="0.2"/>
<path d="M15.3387 23.3772L16.2213 23.8649L16.841 22.7435L15.6054 22.4047L15.3387 23.3772ZM7.0819 38.3181L6.07704 38.4022L6.35479 41.7186L7.96448 38.8058L7.0819 38.3181ZM8.5397 44.4188L7.61443 44.8197L8.43 46.7021L9.42228 44.9065L8.5397 44.4188ZM7.4936 41.1043L6.61103 40.6166L6.42816 40.9475L6.50792 41.317L7.4936 41.1043ZM18.7102 26.0151L19.5928 26.5028L19.8982 25.9502L19.5344 25.4341L18.7102 26.0151ZM16.8785 24.1221L17.4604 23.2986L16.5407 22.6487L15.9959 23.6344L16.8785 24.1221ZM10.9292 47.9965L10.0466 47.5088L9.66614 48.1973L10.2413 48.7339L10.9292 47.9965ZM12.6147 49.1135L12.2274 50.0445L13.0607 50.3911L13.4973 49.6012L12.6147 49.1135ZM20.6874 30.3389L21.6571 30.0626L20.9873 27.7114L19.8048 29.8512L20.6874 30.3389ZM21.3046 33.3888L22.1872 33.8766L22.3464 33.5884L22.3049 33.2618L21.3046 33.3888ZM13.9163 49.4332L13.0338 48.9455L12.2781 50.3128L13.8353 50.4383L13.9163 49.4332ZM21.4813 35.7442L22.4894 35.7194L22.3979 32.0009L20.5987 35.2565L21.4813 35.7442ZM14.2442 24.2369C14.5236 24.2369 14.7995 24.2749 15.072 24.3496L15.6054 22.4047C15.1641 22.2837 14.7089 22.2201 14.2442 22.2201V24.2369ZM8.00814 36.3375C8.00814 32.8551 8.79035 29.7522 10.0042 27.5558C11.2375 25.3241 12.7789 24.2369 14.2442 24.2369V22.2201C11.7085 22.2201 9.62767 24.0675 8.23902 26.5803C6.83088 29.1284 5.99138 32.58 5.99138 36.3375H8.00814ZM8.08677 38.2339C8.03502 37.6161 8.00814 36.9828 8.00814 36.3375H5.99138C5.99138 37.0387 6.02059 37.7282 6.07704 38.4022L8.08677 38.2339ZM14.4561 22.8894L6.19933 37.8303L7.96448 38.8058L16.2213 23.8649L14.4561 22.8894ZM9.46497 44.0179C9.06097 43.0854 8.72588 42.0342 8.47929 40.8916L6.50792 41.317C6.77975 42.5766 7.15321 43.7552 7.61443 44.8197L9.46497 44.0179ZM17.8276 25.5273L7.65713 43.9311L9.42228 44.9065L19.5928 26.5028L17.8276 25.5273ZM16.2965 24.9457C16.8486 25.3358 17.3867 25.8878 17.886 26.5961L19.5344 25.4341C18.93 24.5767 18.2359 23.8466 17.4604 23.2986L16.2965 24.9457ZM8.37618 41.592L17.7611 24.6099L15.9959 23.6344L6.61103 40.6166L8.37618 41.592ZM10.2413 48.7339C10.8421 49.2944 11.5066 49.7447 12.2274 50.0445L13.0019 48.1824C12.5369 47.989 12.0711 47.6828 11.6171 47.2592L10.2413 48.7339ZM19.8048 29.8512L10.0466 47.5088L11.8118 48.4843L21.5699 30.8267L19.8048 29.8512ZM22.3049 33.2618C22.1625 32.1408 21.9436 31.0682 21.6571 30.0626L19.7176 30.6152C19.9749 31.5185 20.1741 32.4911 20.3043 33.5159L22.3049 33.2618ZM13.4973 49.6012L22.1872 33.8766L20.422 32.9011L11.7321 48.6257L13.4973 49.6012ZM13.8353 50.4383C13.9709 50.4493 14.1072 50.4548 14.2442 50.4548V48.438C14.1614 48.438 14.0791 48.4347 13.9973 48.4281L13.8353 50.4383ZM14.2442 50.4548C16.7799 50.4548 18.8607 48.6074 20.2493 46.0946C21.6575 43.5466 22.497 40.0949 22.497 36.3375H20.4802C20.4802 39.8199 19.698 42.9227 18.4842 45.1191C17.2509 47.3509 15.7094 48.438 14.2442 48.438V50.4548ZM22.497 36.3375C22.497 36.1304 22.4944 35.9243 22.4894 35.7194L20.4732 35.769C20.4779 35.9574 20.4802 36.1469 20.4802 36.3375H22.497ZM20.5987 35.2565L13.0338 48.9455L14.7989 49.921L22.3639 36.232L20.5987 35.2565Z" fill="#F7A501" fill-opacity="0.8" mask="url(#path-7-inside-1)"/>
<circle cx="57.9663" cy="16.4382" r="16.4382" fill="#F7A501" fill-opacity="0.2"/>
<circle cx="57.9663" cy="16.4382" r="15.806" stroke="#F7A501" stroke-opacity="0.8" stroke-width="1.26448"/>
<circle cx="57.9669" cy="16.4385" r="13.1089" fill="#F7A501" fill-opacity="0.2"/>
<circle cx="57.9669" cy="16.4385" r="12.6048" stroke="#F7A501" stroke-opacity="0.8" stroke-width="1.00838"/>
<mask id="path-13-inside-2" fill="white">
<path fill-rule="evenodd" clip-rule="evenodd" d="M59.9474 3.47823C59.3015 3.38034 58.6401 3.32959 57.9669 3.32959C50.727 3.32959 44.8579 9.19867 44.8579 16.4385C44.8579 17.1118 44.9087 17.7732 45.0066 18.4191L59.9474 3.47823ZM45.7515 21.2053C46.2206 22.4065 46.8617 23.5214 47.6445 24.5199L66.0483 6.11621C65.0497 5.33337 63.9348 4.69227 62.7337 4.22321L45.7515 21.2053ZM55.0183 29.2146C53.9454 28.968 52.9228 28.5897 51.9684 28.0977L69.626 10.4401C70.118 11.3945 70.4963 12.4171 70.7429 13.49L55.0183 29.2146ZM57.3737 29.5343C57.5704 29.5431 57.7681 29.5475 57.9669 29.5475C65.2067 29.5475 71.0758 23.6784 71.0758 16.4385C71.0758 16.2398 71.0714 16.042 71.0626 15.8454L57.3737 29.5343Z"/>
</mask>
<path fill-rule="evenodd" clip-rule="evenodd" d="M59.9474 3.47823C59.3015 3.38034 58.6401 3.32959 57.9669 3.32959C50.727 3.32959 44.8579 9.19867 44.8579 16.4385C44.8579 17.1118 44.9087 17.7732 45.0066 18.4191L59.9474 3.47823ZM45.7515 21.2053C46.2206 22.4065 46.8617 23.5214 47.6445 24.5199L66.0483 6.11621C65.0497 5.33337 63.9348 4.69227 62.7337 4.22321L45.7515 21.2053ZM55.0183 29.2146C53.9454 28.968 52.9228 28.5897 51.9684 28.0977L69.626 10.4401C70.118 11.3945 70.4963 12.4171 70.7429 13.49L55.0183 29.2146ZM57.3737 29.5343C57.5704 29.5431 57.7681 29.5475 57.9669 29.5475C65.2067 29.5475 71.0758 23.6784 71.0758 16.4385C71.0758 16.2398 71.0714 16.042 71.0626 15.8454L57.3737 29.5343Z" fill="#F7A501" fill-opacity="0.2"/>
<path d="M59.9474 3.47823L60.6605 4.19126L62.0715 2.78023L60.0985 2.48123L59.9474 3.47823ZM45.0066 18.4191L44.0096 18.5702L44.3086 20.5432L45.7196 19.1321L45.0066 18.4191ZM47.6445 24.5199L46.851 25.1421L47.553 26.0375L48.3576 25.233L47.6445 24.5199ZM45.7515 21.2053L45.0385 20.4923L44.5725 20.9583L44.8122 21.5722L45.7515 21.2053ZM66.0483 6.11621L66.7613 6.82925L67.5659 6.02468L66.6704 5.32265L66.0483 6.11621ZM62.7337 4.22321L63.1005 3.28391L62.4866 3.04418L62.0206 3.51017L62.7337 4.22321ZM51.9684 28.0977L51.2554 27.3846L50.2789 28.3611L51.5064 28.994L51.9684 28.0977ZM55.0183 29.2146L54.7925 30.1973L55.3366 30.3224L55.7314 29.9276L55.0183 29.2146ZM69.626 10.4401L70.5223 9.97803L69.8895 8.75054L68.9129 9.72706L69.626 10.4401ZM70.7429 13.49L71.4559 14.2031L71.8507 13.8083L71.7256 13.2641L70.7429 13.49ZM57.3737 29.5343L56.6607 28.8213L55.0421 30.4399L57.3289 30.5417L57.3737 29.5343ZM71.0626 15.8454L72.07 15.8006L71.9682 13.5138L70.3496 15.1324L71.0626 15.8454ZM57.9669 4.33797C58.5894 4.33797 59.2002 4.38489 59.7963 4.47523L60.0985 2.48123C59.4028 2.37579 58.6909 2.32121 57.9669 2.32121V4.33797ZM45.8663 16.4385C45.8663 9.75558 51.2839 4.33797 57.9669 4.33797V2.32121C50.1701 2.32121 43.8495 8.64175 43.8495 16.4385H45.8663ZM46.0035 18.268C45.9132 17.6719 45.8663 17.061 45.8663 16.4385H43.8495C43.8495 17.1625 43.9041 17.8744 44.0096 18.5702L46.0035 18.268ZM59.2344 2.7652L44.2935 17.7061L45.7196 19.1321L60.6605 4.19126L59.2344 2.7652ZM48.4381 23.8978C47.7152 22.9757 47.1235 21.9466 46.6908 20.8385L44.8122 21.5722C45.3176 22.8664 46.0082 24.0671 46.851 25.1421L48.4381 23.8978ZM65.3352 5.40318L46.9315 23.8069L48.3576 25.233L66.7613 6.82925L65.3352 5.40318ZM62.3668 5.1625C63.4749 5.59521 64.504 6.18685 65.4261 6.90978L66.6704 5.32265C65.5955 4.47988 64.3947 3.78932 63.1005 3.28391L62.3668 5.1625ZM46.4646 21.9184L63.4467 4.93624L62.0206 3.51017L45.0385 20.4923L46.4646 21.9184ZM51.5064 28.994C52.5345 29.524 53.6363 29.9316 54.7925 30.1973L55.2442 28.2318C54.2545 28.0043 53.3112 27.6554 52.4305 27.2014L51.5064 28.994ZM68.9129 9.72706L51.2554 27.3846L52.6814 28.8107L70.339 11.1531L68.9129 9.72706ZM71.7256 13.2641C71.4599 12.108 71.0523 11.0062 70.5223 9.97803L68.7297 10.9022C69.1837 11.7828 69.5326 12.7262 69.7601 13.7159L71.7256 13.2641ZM55.7314 29.9276L71.4559 14.2031L70.0298 12.777L54.3053 28.5015L55.7314 29.9276ZM57.3289 30.5417C57.5404 30.5511 57.7531 30.5559 57.9669 30.5559V28.5391C57.7831 28.5391 57.6003 28.535 57.4186 28.5269L57.3289 30.5417ZM57.9669 30.5559C65.7636 30.5559 72.0842 24.2353 72.0842 16.4385H70.0674C70.0674 23.1215 64.6498 28.5391 57.9669 28.5391V30.5559ZM72.0842 16.4385C72.0842 16.2248 72.0794 16.0121 72.07 15.8006L70.0552 15.8903C70.0633 16.072 70.0674 16.2547 70.0674 16.4385H72.0842ZM70.3496 15.1324L56.6607 28.8213L58.0868 30.2473L71.7757 16.5585L70.3496 15.1324Z" fill="#F7A501" fill-opacity="0.8" mask="url(#path-13-inside-2)"/>
<circle cx="44.9887" cy="60.5617" r="16.4382" fill="#F7A501" fill-opacity="0.2"/>
<circle cx="44.9887" cy="60.5617" r="15.806" stroke="#F7A501" stroke-opacity="0.8" stroke-width="1.26448"/>
<circle cx="44.9893" cy="60.5621" r="13.1089" fill="#F7A501" fill-opacity="0.2"/>
<circle cx="44.9893" cy="60.5621" r="12.6048" stroke="#F7A501" stroke-opacity="0.8" stroke-width="1.00838"/>
<mask id="path-19-inside-3" fill="white">
<path fill-rule="evenodd" clip-rule="evenodd" d="M46.9699 47.6018C46.324 47.5039 45.6626 47.4531 44.9893 47.4531C37.7494 47.4531 31.8804 53.3222 31.8804 60.5621C31.8804 61.2353 31.9311 61.8967 32.029 62.5427L46.9699 47.6018ZM32.774 65.3289C33.2431 66.53 33.8842 67.645 34.667 68.6435L53.0707 50.2398C52.0722 49.4569 50.9572 48.8158 49.7561 48.3467L32.774 65.3289ZM42.0408 73.3381C40.9679 73.0915 39.9453 72.7132 38.9909 72.2212L56.6484 54.5636C57.1405 55.518 57.5187 56.5407 57.7653 57.6136L42.0408 73.3381ZM44.3962 73.6578C44.5928 73.6666 44.7906 73.671 44.9893 73.671C52.2292 73.671 58.0983 67.8019 58.0983 60.5621C58.0983 60.3633 58.0938 60.1656 58.0851 59.969L44.3962 73.6578Z"/>
</mask>
<path fill-rule="evenodd" clip-rule="evenodd" d="M46.9699 47.6018C46.324 47.5039 45.6626 47.4531 44.9893 47.4531C37.7494 47.4531 31.8804 53.3222 31.8804 60.5621C31.8804 61.2353 31.9311 61.8967 32.029 62.5427L46.9699 47.6018ZM32.774 65.3289C33.2431 66.53 33.8842 67.645 34.667 68.6435L53.0707 50.2398C52.0722 49.4569 50.9572 48.8158 49.7561 48.3467L32.774 65.3289ZM42.0408 73.3381C40.9679 73.0915 39.9453 72.7132 38.9909 72.2212L56.6484 54.5636C57.1405 55.518 57.5187 56.5407 57.7653 57.6136L42.0408 73.3381ZM44.3962 73.6578C44.5928 73.6666 44.7906 73.671 44.9893 73.671C52.2292 73.671 58.0983 67.8019 58.0983 60.5621C58.0983 60.3633 58.0938 60.1656 58.0851 59.969L44.3962 73.6578Z" fill="#F7A501" fill-opacity="0.2"/>
<path d="M46.9699 47.6018L47.6829 48.3148L49.094 46.9038L47.121 46.6048L46.9699 47.6018ZM32.029 62.5427L31.032 62.6937L31.331 64.6667L32.742 63.2557L32.029 62.5427ZM34.667 68.6435L33.8734 69.2656L34.5755 70.1611L35.38 69.3565L34.667 68.6435ZM32.774 65.3289L32.061 64.6159L31.595 65.0818L31.8347 65.6957L32.774 65.3289ZM53.0707 50.2398L53.7838 50.9528L54.5883 50.1482L53.6929 49.4462L53.0707 50.2398ZM49.7561 48.3467L50.1229 47.4074L49.5091 47.1677L49.0431 47.6337L49.7561 48.3467ZM38.9909 72.2212L38.2778 71.5082L37.3013 72.4847L38.5288 73.1175L38.9909 72.2212ZM42.0408 73.3381L41.8149 74.3209L42.3591 74.4459L42.7538 74.0511L42.0408 73.3381ZM56.6484 54.5636L57.5447 54.1016L56.9119 52.8741L55.9354 53.8506L56.6484 54.5636ZM57.7653 57.6136L58.4784 58.3266L58.8732 57.9318L58.7481 57.3877L57.7653 57.6136ZM44.3962 73.6578L43.6832 72.9448L42.0646 74.5634L44.3514 74.6652L44.3962 73.6578ZM58.0851 59.969L59.0925 59.9241L58.9906 57.6374L57.3721 59.2559L58.0851 59.969ZM44.9893 48.4615C45.6118 48.4615 46.2227 48.5084 46.8188 48.5988L47.121 46.6048C46.4252 46.4993 45.7133 46.4447 44.9893 46.4447V48.4615ZM32.8888 60.5621C32.8888 53.8791 38.3064 48.4615 44.9893 48.4615V46.4447C37.1925 46.4447 30.872 52.7653 30.872 60.5621H32.8888ZM33.026 62.3916C32.9357 61.7955 32.8888 61.1846 32.8888 60.5621H30.872C30.872 61.2861 30.9266 61.998 31.032 62.6937L33.026 62.3916ZM46.2569 46.8887L31.316 61.8296L32.742 63.2557L47.6829 48.3148L46.2569 46.8887ZM35.4606 68.0213C34.7376 67.0992 34.146 66.0701 33.7133 64.9621L31.8347 65.6957C32.3401 66.9899 33.0307 68.1907 33.8734 69.2656L35.4606 68.0213ZM52.3577 49.5267L33.954 67.9304L35.38 69.3565L53.7838 50.9528L52.3577 49.5267ZM49.3893 49.286C50.4973 49.7188 51.5265 50.3104 52.4486 51.0333L53.6929 49.4462C52.6179 48.6034 51.4171 47.9129 50.1229 47.4074L49.3893 49.286ZM33.487 66.0419L50.4692 49.0598L49.0431 47.6337L32.061 64.6159L33.487 66.0419ZM38.5288 73.1175C39.557 73.6475 40.6588 74.0551 41.8149 74.3209L42.2667 72.3553C41.277 72.1279 40.3336 71.7789 39.4529 71.3249L38.5288 73.1175ZM55.9354 53.8506L38.2778 71.5082L39.7039 72.9342L57.3615 55.2767L55.9354 53.8506ZM58.7481 57.3877C58.4824 56.2316 58.0748 55.1297 57.5447 54.1016L55.7522 55.0257C56.2062 55.9064 56.5551 56.8498 56.7826 57.8394L58.7481 57.3877ZM42.7538 74.0511L58.4784 58.3266L57.0523 56.9005L41.3278 72.6251L42.7538 74.0511ZM44.3514 74.6652C44.5629 74.6746 44.7756 74.6794 44.9893 74.6794V72.6626C44.8055 72.6626 44.6227 72.6585 44.4411 72.6505L44.3514 74.6652ZM44.9893 74.6794C52.7861 74.6794 59.1066 68.3589 59.1066 60.5621H57.0899C57.0899 67.245 51.6723 72.6626 44.9893 72.6626V74.6794ZM59.1066 60.5621C59.1066 60.3483 59.1019 60.1357 59.0925 59.9241L57.0777 60.0138C57.0858 60.1955 57.0899 60.3783 57.0899 60.5621H59.1066ZM57.3721 59.2559L43.6832 72.9448L45.1093 74.3709L58.7981 60.682L57.3721 59.2559Z" fill="#F7A501" fill-opacity="0.8" mask="url(#path-19-inside-3)"/>
<path d="M29.2903 3L30.9893 7.59136L35.5806 9.29032L30.9893 10.9893L29.2903 15.5806L27.5914 10.9893L23 9.29032L27.5914 7.59136L29.2903 3Z" fill="url(#paint0_radial)"/>
<path d="M64.2903 36L65.9893 40.5914L70.5806 42.2903L65.9893 43.9893L64.2903 48.5806L62.5914 43.9893L58 42.2903L62.5914 40.5914L64.2903 36Z" fill="url(#paint1_radial)"/>
<path d="M16.2903 57.8909L17.9893 62.4822L22.5806 64.1812L17.9893 65.8801L16.2903 70.4715L14.5914 65.8801L10 64.1812L14.5914 62.4822L16.2903 57.8909Z" fill="url(#paint2_radial)"/>
<defs>
<radialGradient id="paint0_radial" cx="0" cy="0" r="1" gradientUnits="userSpaceOnUse" gradientTransform="translate(29.2903 9.29032) rotate(90) scale(6.29032)">
<stop stop-color="#F7A501"/>
<stop offset="1" stop-color="#F7A501" stop-opacity="0"/>
</radialGradient>
<radialGradient id="paint1_radial" cx="0" cy="0" r="1" gradientUnits="userSpaceOnUse" gradientTransform="translate(64.2903 42.2903) rotate(90) scale(6.29032)">
<stop stop-color="#F7A501"/>
<stop offset="1" stop-color="#F7A501" stop-opacity="0"/>
</radialGradient>
<radialGradient id="paint2_radial" cx="0" cy="0" r="1" gradientUnits="userSpaceOnUse" gradientTransform="translate(16.2903 64.1812) rotate(90) scale(6.29032)">
<stop stop-color="#F7A501"/>
<stop offset="1" stop-color="#F7A501" stop-opacity="0"/>
</radialGradient>
</defs>
</svg>
