<svg fill="none" viewBox="0 0 60 61"><path fill="#FF1794" fill-opacity=".2" d="M34.206 15.966a3 3 0 003.007-.745L47.558 4.876a3.01 3.01 0 01.858-.6l7.108-3.3c2.401-1.115 4.964 1.2 4.098 3.702l-2 5.78a3 3 0 01-.563.977L45.98 24.287a3 3 0 00-.62 2.757l7.05 25.55a3 3 0 01-1.018 3.14l-.928.743a3 3 0 01-4.353-.652L34.974 39.492a3 3 0 00-4.6-.432l-5.605 5.605a3 3 0 00-.877 2.015l-.388 10.867a3 3 0 01-1.884 2.679l-.4.16a3 3 0 01-3.9-1.671L14.434 51.5l-.542-1.898a3 3 0 00-2.06-2.06L9.934 47 2.49 43.81a3 3 0 01-1.44-4.215l.028-.052A3 3 0 013.699 38h9.447a3 3 0 002.175-.934l6.13-6.453a3 3 0 00-.538-4.58L5.535 16.02a3 3 0 01-.485-4.635L7.155 9.28a3 3 0 013.007-.745l24.044 7.432z"/><path stroke="#FF1794" stroke-opacity=".6" stroke-width="2" d="M33.91 16.921a4 4 0 004.01-.993L48.265 5.583a2 2 0 01.572-.4l7.108-3.3c1.601-.743 3.31.8 2.732 2.468l-2 5.78c-.083.238-.21.46-.375.65l-11.08 12.853a4 4 0 00-.826 3.676l7.048 25.55a2 2 0 01-.678 2.094l-.928.742a2 2 0 01-2.902-.435L35.8 38.928a4 4 0 00-6.133-.575l-5.605 5.605a4 4 0 00-1.17 2.686l-.387 10.868a2 2 0 01-1.256 1.785l-.4.16a2 2 0 01-2.6-1.114l-2.867-7.167-.528-1.848a4 4 0 00-2.748-2.747l-1.836-.525-7.387-3.166a2 2 0 01-.96-2.81l.028-.051A2 2 0 013.699 39h9.447a4 4 0 002.9-1.245l6.13-6.453a4 4 0 00-.717-6.107L6.08 15.181a2 2 0 01-.322-3.09l2.104-2.105a2 2 0 012.005-.496l24.044 7.431z"/></svg>