<svg fill="none" xmlns="http://www.w3.org/2000/svg" viewBox="0 0 74 74"><g clip-path="url(#clip0)" fill="#BFBFBC"><path d="M49.64 14.49l-10.174-4.162L21.122 27.75l-2.469 25.747 10.794 5.087 2.466-26.056L49.64 14.491z"/><path d="M61.822 22.047c-1.697 1.85-.31 4.625 3.237 6.165l-8.634 9.866c-3.7-1.697-8.172-1.234-10.328 1.078l-12.488-5.859-.153.31-.309 2.928 17.422 8.478c2.312 1.078 5.24.772 6.322-.616L72 26.36c.925-1.235 0-2.776-2.16-3.7l-18.502-7.55-1.85 1.85 12.334 5.087zM1.388 21.122l18.037 8.634.31-2.928.153-.153-10.791-5.088c2.313-1.85 1.697-4.315-1.078-5.55l9.712-7.553c2.62 1.075 6.472.766 8.478-.775l9.56 3.854 1.85-1.85L23.28 4.009c-1.54-.615-3.853-.462-4.934.463L.925 17.728c-1.387 1.081-1.234 2.622.463 3.394z"/><path d="M30.834 16.188c-1.54.462-3.084 1.078-4.162 2.003-1.234 1.078-1.85 2.312-1.697 3.547l5.86-5.55zM45.325 21.428l-6.628 6.784c2.16-.462 4.01-1.234 5.24-2.465 1.388-1.388 1.698-2.931 1.388-4.319zM57.197 31.297c1.54-1.697.31-3.853-2.313-5.088-2.775-1.078-6.165-.771-7.709.772-1.54 1.54-.616 3.853 2.16 5.088 2.774 1.231 6.318.922 7.862-.772zM15.725 13.413c-1.697 1.387-1.234 3.237 1.078 4.162 2.313 1.078 5.55.772 7.247-.616 1.697-1.387 1.078-3.237-1.234-4.162-2.313-1.081-5.394-.772-7.09.616zM71.534 29.29L58.122 45.326c-1.388 1.697-4.163 2.313-6.784 1.54-.463-.153-18.347-8.787-18.347-8.787l-.463 4.01 18.347 8.787c2.313 1.078 5.24.772 6.322-.616L72.46 32.375c.768-.925.462-2.16-.925-3.084zM1.697 27.288l16.96 8.171.462-4.009-16.96-8.172-.925.616c-1.387 1.081-1.08 2.622.463 3.394zM1.697 30.063C.31 31.14.463 32.528 2.16 33.453l16.034 7.71.463-4.01-16.035-7.71-.925.62z"/><path d="M71.997 35.46L58.585 51.49c-1.388 1.698-4.163 2.313-6.784 1.541-.463-.153-19.425-9.247-19.425-9.247l-.463 4.01 19.272 9.25c2.312 1.078 5.24.772 6.322-.616l15.415-17.887c.77-.925.307-2.157-.925-3.082z"/><path d="M72.303 41.778L58.891 57.813c-1.388 1.696-4.163 2.312-6.784 1.54-.463-.153-20.197-9.56-20.197-9.56l-.463 4.01 20.197 9.713c2.313 1.078 5.24.772 6.322-.616l15.262-18.19c.772-.926.31-2.16-.925-2.932zM2.003 36.384c-1.387 1.078-1.234 2.622.463 3.391l15.11 7.247.462-4.01-15.11-7.246-.925.618zM2.466 42.55c-1.388 1.078-1.235 2.466.462 3.39l14.184 6.785.463-4.01-14.184-6.784-.925.619z"/><path d="M72.766 47.947L59.353 63.98c-1.387 1.697-4.162 2.313-6.784 1.54C52.107 65.37 31.447 55.5 31.447 55.5l-.462 4.01 21.122 10.174c2.312 1.079 5.24.772 6.322-.615l15.109-18.194c.772-.925.462-2.16-.772-2.928z"/></g><defs><clipPath id="clip0"><path fill="#fff" d="M0 0h74v74H0z"/></clipPath></defs></svg>