<svg fill="none" xmlns="http://www.w3.org/2000/svg" viewBox="0 0 74 50"><path d="M71.533 0H2.467A2.474 2.474 0 000 2.467a2.474 2.474 0 002.467 2.466h2.466v44.4h4.934v-44.4h29.6v29.6h24.666v14.8h4.934v-44.4h2.466A2.474 2.474 0 0074 2.467 2.474 2.474 0 0071.533 0zm-7.4 4.933v12.334h-22.2V4.933h22.2zm-22.2 27.134V19.733h22.2v12.334h-22.2z" fill="#BFBFBC"/><path d="M61.667 7.4H44.4v7.4h17.267V7.4zm-8.634 4.933c-.74 0-1.233-.493-1.233-1.233 0-.74.493-1.233 1.233-1.233.74 0 1.234.493 1.234 1.233 0 .74-.494 1.233-1.234 1.233zM44.4 29.6h17.267v-7.4H44.4v7.4zm8.634-4.933c.74 0 1.233.493 1.233 1.233 0 .74-.493 1.234-1.233 1.234-.74 0-1.233-.494-1.233-1.234s.493-1.233 1.233-1.233z" fill="#BFBFBC"/></svg>