<svg fill="none" viewBox="0 0 64 65"><mask id="a" fill="#fff"><path fill-rule="evenodd" d="M28.073 7.595C12.55 7.701 0 20.316 0 35.863c0 15.612 12.656 28.269 28.269 28.269 15.471 0 28.04-12.429 28.265-27.847H28.073V7.595z" clip-rule="evenodd"/></mask><path fill="#FF8A00" fill-opacity=".4" fill-rule="evenodd" d="M28.073 7.595C12.55 7.701 0 20.316 0 35.863c0 15.612 12.656 28.269 28.269 28.269 15.471 0 28.04-12.429 28.265-27.847H28.073V7.595z" clip-rule="evenodd"/><path fill="#FF7A00" fill-opacity=".8" d="M28.073 7.595h2.531V5.046l-2.549.018.018 2.531zm28.461 28.69l2.531.037.038-2.568h-2.569v2.531zm-28.461 0H25.54v2.532h2.532v-2.532zm-25.541-.422c0-14.154 11.426-25.64 25.558-25.736l-.035-5.063c-16.912.115-30.587 13.86-30.587 30.8h5.064zM28.269 61.6c-14.215 0-25.737-11.523-25.737-25.737h-5.064c0 17.01 13.79 30.8 30.8 30.8V61.6zm25.734-25.352C53.797 50.285 42.354 61.6 28.269 61.6v5.063c16.857 0 30.55-13.541 30.796-30.34l-5.062-.075zm2.531-2.494H28.073v5.063h28.461v-5.063zm-25.93 2.531V7.595h-5.063v28.69h5.063z" mask="url(#a)"/><path fill="#FF8A00" fill-opacity=".4" d="M35.441 0c16.028 0 28.69 10.62 28.69 28.797h-28.69V0z"/><path stroke="#FF7A00" stroke-opacity=".8" stroke-width="2.451" d="M36.667 1.247c7.24.256 13.634 2.79 18.285 7.222 4.67 4.453 7.663 10.898 7.934 19.103h-26.22V1.247z"/></svg>