<svg width="64" height="65" viewBox="0 0 64 65" fill="none" xmlns="http://www.w3.org/2000/svg">
<mask id="path-1-inside-1" fill="white">
<path fill-rule="evenodd" clip-rule="evenodd" d="M28.0725 7.59521C12.5504 7.70068 0 20.3163 0 35.8632C0 51.4755 12.6563 64.1318 28.2686 64.1318C43.74 64.1318 56.3085 51.703 56.5342 36.2853H28.0725V7.59521Z"/>
</mask>
<path fill-rule="evenodd" clip-rule="evenodd" d="M28.0725 7.59521C12.5504 7.70068 0 20.3163 0 35.8632C0 51.4755 12.6563 64.1318 28.2686 64.1318C43.74 64.1318 56.3085 51.703 56.5342 36.2853H28.0725V7.59521Z" fill="#FF8A00" fill-opacity="0.4"/>
<path d="M28.0725 7.59521H30.604V5.04644L28.0553 5.06375L28.0725 7.59521ZM56.5342 36.2853L59.0654 36.3223L59.103 33.7537H56.5342V36.2853ZM28.0725 36.2853H25.541V38.8168H28.0725V36.2853ZM2.53152 35.8632C2.53152 21.7086 13.9581 10.2227 28.0897 10.1267L28.0553 5.06375C11.1428 5.17867 -2.53152 18.9239 -2.53152 35.8632H2.53152ZM28.2686 61.6003C14.0544 61.6003 2.53152 50.0774 2.53152 35.8632H-2.53152C-2.53152 52.8736 11.2582 66.6633 28.2686 66.6633V61.6003ZM54.0029 36.2482C53.7975 50.2845 42.3543 61.6003 28.2686 61.6003V66.6633C45.1258 66.6633 58.8196 53.1215 59.0654 36.3223L54.0029 36.2482ZM56.5342 33.7537H28.0725V38.8168H56.5342V33.7537ZM30.604 36.2853V7.59521H25.541V36.2853H30.604Z" fill="#FF7A00" fill-opacity="0.8" mask="url(#path-1-inside-1)"/>
<path d="M35.4412 0C51.4692 0 64.1317 10.6202 64.1317 28.7971H35.4412V0Z" fill="#FF8A00" fill-opacity="0.4"/>
<path d="M36.6666 1.247C43.9074 1.50344 50.3013 4.03677 54.9515 8.46921C59.6226 12.9217 62.6155 19.3673 62.8862 27.5717H36.6666V1.247Z" stroke="#FF7A00" stroke-opacity="0.8" stroke-width="2.45081"/>
</svg>
