<svg fill="none" xmlns="http://www.w3.org/2000/svg" viewBox="0 0 64 64"><path d="M62.4 32c0-2.113-.895-4.16-2.433-5.567-.96-.895-1.345-2.305-.96-3.585.64-2.048.385-4.226-.64-6.08a7.596 7.596 0 00-4.927-3.586c-1.28-.255-2.305-1.28-2.625-2.625-.448-2.047-1.793-3.84-3.585-4.927-1.855-1.088-4.033-1.28-6.08-.64-1.28.385-2.688 0-3.585-.96a7.602 7.602 0 00-5.568-2.433c-2.112 0-4.16.895-5.567 2.433-.895.96-2.305 1.345-3.585.96-2.048-.64-4.225-.385-6.08.64a7.596 7.596 0 00-3.585 4.927c-.255 1.28-1.28 2.305-2.625 2.625-2.048.448-3.84 1.793-4.928 3.585-1.087 1.855-1.28 4.033-.64 6.08.385 1.28 0 2.688-.96 3.585A7.602 7.602 0 001.595 32c0 2.112.895 4.16 2.432 5.568.96.894 1.345 2.305.96 3.585-.64 2.047-.385 4.224.64 6.08a7.596 7.596 0 004.928 3.585c1.28.255 2.305 1.28 2.625 2.625.447 2.047 1.792 3.84 3.585 4.927 1.855 1.088 4.032 1.28 6.08.64 1.28-.385 2.687 0 3.585.96a7.602 7.602 0 005.567 2.433c2.113 0 4.16-.895 5.568-2.433.895-.96 2.305-1.345 3.585-.96 2.047.64 4.225.385 6.08-.64a7.596 7.596 0 003.585-4.927c.255-1.28 1.28-2.305 2.625-2.625 2.047-.448 3.84-1.793 4.927-3.585 1.088-1.855 1.28-4.033.64-6.08-.385-1.28 0-2.688.96-3.585C61.505 36.16 62.4 34.111 62.4 32zm-5.248 2.495a7.56 7.56 0 00-2.112 7.873c.32.895.192 1.92-.32 2.752a3.701 3.701 0 01-2.24 1.665 7.576 7.576 0 00-5.76 5.76c-.193.96-.768 1.728-1.6 2.24-.833.513-1.793.575-2.753.32a7.556 7.556 0 00-7.872 2.113c-1.28 1.407-3.713 1.407-5.055 0a7.57 7.57 0 00-5.568-2.433c-.767 0-1.535.128-2.24.32-.96.32-1.92.193-2.752-.32a3.701 3.701 0 01-1.665-2.24 7.576 7.576 0 00-5.76-5.76c-.96-.192-1.728-.767-2.24-1.665-.513-.832-.575-1.792-.32-2.752a7.556 7.556 0 00-2.113-7.873A3.54 3.54 0 015.76 32c0-.96.385-1.855 1.087-2.495a7.559 7.559 0 002.113-7.873c-.32-.895-.193-1.92.32-2.752.512-.833 1.28-1.408 2.24-1.6a7.576 7.576 0 005.76-5.76c.192-.96.767-1.728 1.6-2.24.832-.513 1.792-.575 2.752-.32a7.556 7.556 0 007.873-2.113A3.344 3.344 0 0132 5.76c.96 0 1.855.385 2.495 1.087a7.559 7.559 0 007.872 2.113c.895-.32 1.92-.193 2.753.32.832.512 1.407 1.28 1.6 2.24a7.576 7.576 0 005.76 5.76c.96.192 1.727.767 2.24 1.6.512.832.575 1.792.32 2.752a7.556 7.556 0 002.112 7.873A3.335 3.335 0 0158.24 32c0 .96-.385 1.855-1.088 2.495z" fill="#BFBFBC"/><path d="M32 13.695c-10.113 0-18.306 8.192-18.306 18.305S21.887 50.305 32 50.305c10.112 0 18.305-8.192 18.305-18.305S42.112 13.695 32 13.695zm7.487 15.745l-8.063 8.065c-.385.385-.96.575-1.472.575-.513 0-1.088-.192-1.473-.575l-4.032-4.032a2.049 2.049 0 010-2.945 2.049 2.049 0 012.945 0l2.56 2.56 6.592-6.593a2.049 2.049 0 012.945 0 2.05 2.05 0 01-.002 2.945z" fill="#BFBFBC"/></svg>