<svg xmlns="http://www.w3.org/2000/svg" width="64" height="64" fill="none" viewBox="0 0 64 64"><g clip-path="url(#clip0_3884_87179)"><line x1="32.5" x2="32.5" y1="0" y2="64" stroke="#BFBFBC"/><line x2="64" y1="31.5" y2="31.5" stroke="#BFBFBC"/><path fill="#BFBFBC" fill-rule="evenodd" d="M23.9219 22.4375H17.6719V16.1875H11.4219V22.4375H5.17188V13.0625C4.3086 13.0625 3.60938 12.3633 3.60938 11.5L14.5469 2.125L19.2344 6.1425V3.68743H22.3594V8.82117L25.4844 11.4999C25.4844 12.3632 24.7842 13.0624 23.9219 13.0624V22.4375Z" clip-rule="evenodd"/><path fill="#BFBFBC" d="M5.11812 41.3799C4.54228 41.3799 4.07812 41.844 4.07812 42.4199V55.4199C4.07812 55.9957 4.54228 56.4599 5.11812 56.4599H24.8781C25.454 56.4599 25.9181 55.9957 25.9181 55.4199V42.4199C25.9181 41.844 25.454 41.3799 24.8781 41.3799H5.11812ZM15.9731 44.7679C16.3174 44.7202 16.6424 45.0858 16.5419 45.4179L14.4619 52.6979C14.3877 52.962 14.078 53.1326 13.8119 53.0636C13.5468 52.9945 13.3802 52.6776 13.4544 52.4136L15.5344 45.1336C15.5872 44.9345 15.769 44.7933 15.9731 44.7679ZM12.0892 45.7917C12.3259 45.7612 12.5737 45.9156 12.6499 46.1411C12.726 46.3666 12.6204 46.6398 12.4142 46.7586L8.96117 48.9198L12.4142 51.0729C12.6458 51.2172 12.7291 51.5564 12.5849 51.7879C12.4406 52.0195 12.0933 52.1028 11.8617 51.9586L7.70174 49.3586C7.35134 49.1321 7.40113 48.6578 7.70174 48.473L11.8617 45.873C11.9298 45.8283 12.008 45.8008 12.0892 45.7917V45.7917ZM17.8337 45.7917C17.9393 45.7876 18.046 45.8161 18.1343 45.8729L22.2943 48.4729C22.5949 48.6578 22.6426 49.1402 22.2943 49.3586L18.1343 51.9586C17.9027 52.1028 17.5635 52.0195 17.4193 51.7879C17.2751 51.5564 17.3502 51.2171 17.5818 51.0729L21.0349 48.9198L17.5818 46.7586C17.3898 46.6448 17.2903 46.398 17.3462 46.1817C17.402 45.9653 17.6102 45.7978 17.8337 45.7917L17.8337 45.7917ZM13.1781 56.9797V59.0597H16.8181V56.9797H13.1781ZM11.6181 59.5797C11.3307 59.5797 11.0981 59.8123 11.0981 60.0997C11.0981 60.3872 11.3307 60.6197 11.6181 60.6197H18.3781C18.6656 60.6197 18.8981 60.3872 18.8981 60.0997C18.8981 59.8123 18.6655 59.5797 18.3781 59.5797H11.6181Z"/><path fill="#BFBFBC" d="M61.8269 44.5522C61.3973 44.5552 60.9717 44.6365 60.5716 44.7939V42.9546H41.3906V47.4123C41.3937 49.7868 42.2793 52.0762 43.8759 53.834H58.0906C58.8899 52.9545 59.5185 51.9338 59.9481 50.8258C60.8521 51.421 61.9855 51.554 63.0042 51.1843C64.0219 50.8136 64.8049 49.9839 65.1167 48.9469C65.4275 47.9089 65.2294 46.7857 64.5835 45.9164C63.9365 45.047 62.9179 44.5341 61.8342 44.5341L61.8269 44.5522ZM55.7546 53.0204L55.2752 52.4557C56.7519 51.2034 57.603 49.364 57.6 47.4273H58.3434C58.3465 49.5814 57.3989 51.6289 55.7546 53.0204V53.0204ZM61.8269 50.6692C61.2328 50.6692 60.6559 50.4711 60.1857 50.1086C60.4365 49.2382 60.5614 48.3363 60.5564 47.4303V45.6103C61.2866 45.2244 62.1549 45.1949 62.9086 45.5321C63.6632 45.8693 64.2208 46.5356 64.4198 47.3369C64.6189 48.1392 64.4371 48.9883 63.9283 49.6393C63.4184 50.2893 62.6384 50.6702 61.8117 50.6691L61.8269 50.6692Z"/><path fill="#BFBFBC" d="M51.0473 37.777C51.1763 37.846 51.3002 37.9232 51.419 38.0075C51.8466 38.3802 52.0822 38.9267 52.0619 39.4934C52.0294 40.1271 51.9045 40.7527 51.6902 41.3499C51.6303 41.5459 51.7399 41.7541 51.9349 41.8151C51.9715 41.8202 52.007 41.8202 52.0426 41.8151C52.2112 41.8222 52.3646 41.7155 52.4143 41.5551C52.656 40.8807 52.7942 40.1748 52.8226 39.4598C52.8338 38.6717 52.4905 37.9201 51.8872 37.4134C51.7369 37.3067 51.5795 37.2112 51.4149 37.1269C51.2606 37.0508 51.1153 36.9573 50.9812 36.8487C50.8248 36.7146 50.7436 36.4769 50.8137 36.3957C50.9416 36.2312 50.9132 35.9945 50.7487 35.8665C50.5841 35.7376 50.3475 35.767 50.2195 35.9315C49.9067 36.419 50.0194 37.065 50.4795 37.4174C50.6522 37.5606 50.8431 37.6814 51.0473 37.7769L51.0473 37.777Z"/><path fill="#BFBFBC" d="M49.8115 41.0578C49.7943 41.1543 49.8166 41.2548 49.8725 41.3351C49.9293 41.4163 50.0157 41.4712 50.1122 41.4884H50.1792C50.361 41.4915 50.5184 41.3625 50.5509 41.1837C50.7855 40.1062 50.5113 38.9798 49.8085 38.1308C49.6663 37.9947 49.4439 37.9927 49.2997 38.1258C49.1554 38.2578 49.1392 38.4792 49.2621 38.6315C49.8044 39.315 50.0065 40.2078 49.8115 41.0578L49.8115 41.0578Z"/><path fill="#BFBFBC" d="M60.7481 54.9371C60.4516 54.7116 60.0879 54.5917 59.7152 54.5958H42.2575H42.2585C41.8858 54.5917 41.5222 54.7126 41.2256 54.9371C40.9281 55.1503 40.7483 55.4926 40.7422 55.8582C40.7422 56.5529 41.4186 57.1207 42.2504 57.1207L43.5951 57.1217C43.8439 58.2104 45.2109 58.2104 45.8234 58.2104L55.8079 58.2094C57.2937 58.2094 58.155 57.8377 58.3632 57.1207H59.715C60.5468 57.1207 61.2262 56.5519 61.2262 55.8582H61.2272C61.2211 55.4926 61.0434 55.1513 60.7479 54.9371H60.7481Z"/><path fill="#BFBFBC" d="M38.2617 6.75977V19.2398H40.3417V6.75977H38.2617ZM48.9217 8.83977C47.0489 8.83977 45.5417 10.347 45.5417 12.2198C45.5417 12.3071 45.5448 12.3945 45.5498 12.4798H60.6137C60.6198 12.3945 60.6218 12.3071 60.6218 12.2198C60.6218 10.347 59.1147 8.83977 57.2418 8.83977H48.9217ZM42.9417 9.35977C42.0805 9.35977 41.3817 10.0585 41.3817 10.9198C41.3817 11.781 42.0805 12.4798 42.9417 12.4798C43.803 12.4798 44.5017 11.781 44.5017 10.9198C44.5017 10.0585 43.803 9.35977 42.9417 9.35977ZM61.6617 11.9598V19.2398H63.7417V11.9598H61.6617ZM40.8617 13.5198V16.6398H61.1417V13.5198H40.8617Z"/></g><defs><clipPath id="clip0_3884_87179"><rect width="64" height="64" fill="#fff"/></clipPath></defs></svg>