<svg width="64" height="64" viewBox="0 0 64 64" fill="none" xmlns="http://www.w3.org/2000/svg">
<line opacity="0.5" x1="32.5" y1="4" x2="32.5" y2="60" stroke="#BFBFBC"/>
<line opacity="0.5" x1="4" y1="31.5" x2="60" y2="31.5" stroke="#BFBFBC"/>
<path fill-rule="evenodd" clip-rule="evenodd" d="M25.293 26.625H19.793V21.125H14.293V26.625H8.79297V18.375C8.03329 18.375 7.41797 17.7597 7.41797 17L17.043 8.75L21.168 12.2854V10.1249H23.918V14.6426L26.668 16.9999C26.668 17.7596 26.0518 18.3749 25.293 18.3749V26.625Z" fill="#BFBFBC"/>
<path d="M8.64172 39.8599C8.15446 39.8599 7.76172 40.2526 7.76172 40.7399V51.7399C7.76172 52.2271 8.15446 52.6199 8.64172 52.6199H25.3617C25.849 52.6199 26.2417 52.2271 26.2417 51.7399V40.7399C26.2417 40.2526 25.849 39.8599 25.3617 39.8599H8.64172ZM17.8267 42.7267C18.118 42.6863 18.393 42.9957 18.308 43.2767L16.548 49.4367C16.4852 49.6601 16.2231 49.8045 15.998 49.746C15.7737 49.6876 15.6327 49.4195 15.6955 49.196L17.4555 43.036C17.5002 42.8676 17.654 42.7482 17.8267 42.7267ZM14.5404 43.5929C14.7406 43.5672 14.9503 43.6978 15.0147 43.8886C15.0792 44.0794 14.9898 44.3105 14.8153 44.4111L11.8935 46.2398L14.8153 48.0617C15.0113 48.1837 15.0817 48.4707 14.9597 48.6667C14.8377 48.8626 14.5438 48.9331 14.3479 48.8111L10.8279 46.6111C10.5314 46.4194 10.5735 46.0181 10.8279 45.8617L14.3479 43.6617C14.4054 43.6239 14.4716 43.6007 14.5404 43.5929V43.5929ZM19.401 43.5929C19.4904 43.5895 19.5806 43.6136 19.6554 43.6617L23.1754 45.8617C23.4298 46.0181 23.4702 46.4263 23.1754 46.611L19.6554 48.811C19.4595 48.9331 19.1724 48.8626 19.0504 48.6667C18.9284 48.4707 18.992 48.1837 19.1879 48.0617L22.1097 46.2398L19.1879 44.4111C19.0255 44.3148 18.9413 44.106 18.9885 43.9229C19.0358 43.7399 19.212 43.5981 19.401 43.5929L19.401 43.5929ZM15.4617 53.0597V54.8197H18.5417V53.0597H15.4617ZM14.1417 55.2597C13.8985 55.2597 13.7017 55.4565 13.7017 55.6997C13.7017 55.943 13.8985 56.1397 14.1417 56.1397H19.8617C20.1049 56.1397 20.3017 55.943 20.3017 55.6997C20.3017 55.4565 20.1049 55.2597 19.8617 55.2597H14.1417Z" fill="#BFBFBC"/>
<path d="M56.4719 42.9289C56.1084 42.9315 55.7483 43.0003 55.4097 43.1335V41.5771H39.1797V45.349C39.1823 47.3583 39.9316 49.2954 41.2826 50.7828H53.3104C53.9867 50.0386 54.5187 49.1749 54.8822 48.2374C55.6471 48.741 56.6061 48.8536 57.4681 48.5408C58.3292 48.2271 58.9918 47.525 59.2556 46.6476C59.5185 45.7693 59.351 44.8188 58.8044 44.0833C58.257 43.3476 57.395 42.9136 56.4781 42.9136L56.4719 42.9289ZM51.3338 50.0943L50.9282 49.6165C52.1777 48.5569 52.8979 47.0005 52.8953 45.3617H53.5244C53.5269 47.1845 52.7251 48.9169 51.3338 50.0944V50.0943ZM56.4719 48.1049C55.9692 48.1049 55.4811 47.9373 55.0832 47.6305C55.2954 46.894 55.4011 46.1309 55.3969 45.3643V43.8243C56.0147 43.4977 56.7495 43.4728 57.3872 43.7581C58.0257 44.0434 58.4975 44.6072 58.6659 45.2852C58.8344 45.9641 58.6805 46.6826 58.25 47.2334C57.8186 47.7834 57.1586 48.1057 56.4591 48.1048L56.4719 48.1049Z" fill="#BFBFBC"/>
<path d="M47.3459 37.1958C47.455 37.2542 47.5599 37.3195 47.6604 37.3909C48.0222 37.7062 48.2216 38.1686 48.2044 38.6481C48.1769 39.1844 48.0712 39.7137 47.8899 40.219C47.8392 40.3849 47.932 40.5611 48.097 40.6126C48.1279 40.6169 48.158 40.6169 48.1881 40.6126C48.3307 40.6187 48.4605 40.5284 48.5026 40.3926C48.7072 39.822 48.824 39.2248 48.8481 38.6198C48.8575 37.9529 48.5671 37.3169 48.0566 36.8881C47.9294 36.7979 47.7962 36.7171 47.657 36.6458C47.5264 36.5813 47.4035 36.5022 47.29 36.4103C47.1577 36.2969 47.0889 36.0958 47.1482 36.027C47.2565 35.8878 47.2324 35.6875 47.0932 35.5793C46.954 35.4701 46.7538 35.495 46.6455 35.6343C46.3808 36.0468 46.4762 36.5933 46.8655 36.8915C47.0116 37.0127 47.1731 37.115 47.3459 37.1957L47.3459 37.1958Z" fill="#BFBFBC"/>
<path d="M46.3042 39.972C46.2896 40.0536 46.3085 40.1387 46.3557 40.2066C46.4039 40.2753 46.4769 40.3217 46.5585 40.3363H46.6153C46.7691 40.3389 46.9023 40.2298 46.9298 40.0785C47.1283 39.1667 46.8963 38.2137 46.3016 37.4953C46.1813 37.3801 45.9931 37.3784 45.871 37.491C45.749 37.6027 45.7353 37.79 45.8392 37.9189C46.2981 38.4973 46.4692 39.2527 46.3042 39.972L46.3042 39.972Z" fill="#BFBFBC"/>
<path d="M55.557 51.7156C55.3061 51.5248 54.9984 51.4234 54.683 51.4268H39.9111H39.912C39.5966 51.4234 39.2889 51.5257 39.038 51.7156C38.7862 51.8961 38.6341 52.1857 38.6289 52.4951C38.6289 53.0829 39.2013 53.5633 39.9051 53.5633L41.0429 53.5641C41.2534 54.4854 42.4102 54.4854 42.9284 54.4854L51.3768 54.4845C52.6341 54.4845 53.3628 54.17 53.539 53.5633H54.6828C55.3866 53.5633 55.9616 53.082 55.9616 52.4951H55.9624C55.9573 52.1857 55.8069 51.8969 55.5568 51.7156H55.557Z" fill="#BFBFBC"/>
<path d="M37.2188 12.7202V23.2802H38.9787V12.7202H37.2188ZM46.2387 14.4802C44.6541 14.4802 43.3787 15.7555 43.3787 17.3402C43.3787 17.4141 43.3813 17.488 43.3856 17.5602H56.132C56.1371 17.488 56.1389 17.4141 56.1389 17.3402C56.1389 15.7555 54.8635 14.4802 53.2789 14.4802H46.2387ZM41.1787 14.9202C40.45 14.9202 39.8587 15.5115 39.8587 16.2402C39.8587 16.969 40.45 17.5602 41.1787 17.5602C41.9075 17.5602 42.4987 16.969 42.4987 16.2402C42.4987 15.5115 41.9075 14.9202 41.1787 14.9202ZM57.0187 17.1202V23.2802H58.7787V17.1202H57.0187ZM39.4187 18.4402V21.0802H56.5787V18.4402H39.4187Z" fill="#BFBFBC"/>
</svg>
