<svg fill="none" viewBox="0 0 70 69"><path fill="#FF1794" fill-opacity=".2" d="M7.061 36.509c0-.382.142-.751.4-1.034L33.606 6.676l26.857 26.478c.293.29.458.684.458 1.096v33.211c0 .85-.689 1.54-1.539 1.54H8.6a1.54 1.54 0 01-1.539-1.54V36.51z"/><mask id="a" fill="#fff"><path fill-rule="evenodd" d="M35.334.685a2.75 2.75 0 00-3.85.217L1.11 34.493a2.672 2.672 0 00.214 3.805 2.75 2.75 0 003.852-.217L33.602 6.644l30.832 30.462a2.749 2.749 0 003.855 0 2.67 2.67 0 000-3.808L35.755 1.154a2.71 2.71 0 00-.42-.469z" clip-rule="evenodd"/></mask><path fill="#FF1794" fill-opacity=".4" fill-rule="evenodd" d="M35.334.685a2.75 2.75 0 00-3.85.217L1.11 34.493a2.672 2.672 0 00.214 3.805 2.75 2.75 0 003.852-.217L33.602 6.644l30.832 30.462a2.749 2.749 0 003.855 0 2.67 2.67 0 000-3.808L35.755 1.154a2.71 2.71 0 00-.42-.469z" clip-rule="evenodd"/><path fill="#FF1794" fill-opacity=".6" d="M31.483.902L30.342-.13 31.483.902zm3.851-.217L34.316 1.84 35.334.685zM1.111 34.493L-.03 33.461l1.141 1.032zm.214 3.805L.307 39.452l1.018-1.154zm3.852-.217L4.035 37.05l1.142 1.032zM33.602 6.644l1.082-1.095-1.145-1.13-1.078 1.192 1.141 1.033zm30.832 30.462l1.082-1.094-1.082 1.094zm3.855 0l-1.082-1.094 1.082 1.094zm0-3.808l1.082-1.095-1.082 1.095zM35.755 1.154l-1.257.887.079.112.096.095 1.082-1.094zm-3.13.78a1.212 1.212 0 011.691-.095l2.037-2.307a4.29 4.29 0 00-6.011.338l2.283 2.064zM2.253 35.525l30.372-33.59L30.342-.13-.03 33.461l2.283 2.064zm.09 1.62a1.133 1.133 0 01-.09-1.62L-.03 33.461a4.211 4.211 0 00.337 5.991l2.037-2.307zm1.692-.096c-.439.486-1.2.529-1.691.096L.307 39.452a4.29 4.29 0 006.011-.339L4.035 37.05zM32.461 5.611L4.035 37.05l2.283 2.064L34.743 7.676 32.462 5.61zm33.055 30.4L34.684 5.55l-2.163 2.19L63.352 38.2l2.163-2.19zm1.691 0a1.21 1.21 0 01-1.691 0l-2.163 2.19a4.288 4.288 0 006.018 0l-2.164-2.19zm0-1.619c.455.45.455 1.17 0 1.62l2.164 2.189a4.21 4.21 0 000-5.998l-2.164 2.19zM34.674 2.248l32.533 32.145 2.164-2.19L36.837.06l-2.164 2.19zm-.358-.409c.072.063.132.131.182.202L37.012.266a4.25 4.25 0 00-.66-.734l-2.036 2.307z" mask="url(#a)"/><rect width="29.238" height="5.386" x="19.372" y="47.456" fill="#FF1794" fill-opacity=".4" rx="2.693"/><rect width="27.7" height="3.847" x="20.141" y="48.225" stroke="#FF1794" stroke-opacity=".4" stroke-width="1.539" rx="1.924"/><path fill="#FF1794" fill-opacity=".4" d="M23.989 52.842h2.308v12.311h-2.308zm17.697 0h2.308v12.311h-2.308z"/><rect width="6.925" height="1.539" x="30.144" y="43.917" fill="#FF1794" fill-opacity=".4" rx=".769"/><rect width="18.466" height="12.311" x="24.758" y="29.837" fill="#FF1794" fill-opacity=".4" rx="1.539"/><rect width="17.697" height="11.541" x="25.142" y="30.222" stroke="#FF1794" stroke-opacity=".4" stroke-width=".769" rx="1.154"/><rect width="15" height="8" x="26.434" y="32" fill="#FF1794" fill-opacity=".4" rx="1.044"/><rect width="14.478" height="7.478" x="26.695" y="32.261" stroke="#FF1794" stroke-opacity=".4" stroke-width=".522" rx=".783"/></svg>