<svg fill="none" xmlns="http://www.w3.org/2000/svg" viewBox="0 0 64 61"><path d="M35.661 56.993h11.93v3.82H35.66v-3.82zM46.53 37.433v-14.02H25.87v14.02h20.66zM37.97 39.434h-3.54v2.758h3.54v-2.758z" fill="#BFBFBC"/><path d="M7.25 24.514v36.308h7.16v-16.63H12a.999.999 0 01-.998-1c0-.551.445-1 .997-1h3.52l.002-6.329a1 1 0 011-1h5c.265 0 .52.105.706.294.188.185.293.44.293.706v6.33h10v-2.78H24.87a.999.999 0 01-.998-1v-16c0-.552.446-1 .998-1H47.54c.266 0 .519.105.707.294.188.185.294.44.294.706v16c0 .265-.106.52-.294.706a.997.997 0 01-.707.294h-7.54v2.761l12.05-.002a1.001 1.001 0 010 2h-2.46v16.65h7.16V24.514L32 6.674 7.25 24.514z" fill="#BFBFBC"/><path d="M17.47 36.863h2.98v5.34h-2.98v-5.34zM21.471 44.193h-5.06v16.629h17.25v-16.63H21.47zM0 59.814c0 .265.106.518.291.706.189.188.444.294.71.294h4.248v-2H1a1 1 0 00-1 1zM63 58.813H58.75v2H63a1.001 1.001 0 000-2zM17.438 7.344V.012H9.06v13.37l5.079-3.669 3.3-2.37zM35.661 50.592h11.93v4.4H35.66v-4.4zM35.661 44.193v4.4h11.93v-4.4H35.66zM62 20.933L33.79.592a3.001 3.001 0 00-3.579 0L13.42 12.704l-4.78 3.45-6.639 4.78v4.89l3.65-2.62 25.77-18.572c.35-.25.819-.25 1.17 0l25.75 18.552L62 25.824v-4.891z" fill="#BFBFBC"/></svg>