<svg fill="none" xmlns="http://www.w3.org/2000/svg" viewBox="0 0 59 64"><path fill-rule="evenodd" clip-rule="evenodd" d="M29 64C19.18 59.556 1.406 45.992 1.014 35.546L0 8.496S13.564 0 28.998 0c15.434 0 29.077 8.496 29.077 8.496l-1.09 27.05C56.594 45.992 38.898 59.556 28.997 64H29zM14.423 24.399h10.603v-10.68h8.03v10.68h10.602v7.952H33.055v10.68h-8.029v-10.68H14.423v-7.952zm-9.667-13.41l.936 24.4C6.004 43.495 21.596 54.877 29 58.853c7.406-3.975 23.074-15.357 23.386-23.465l.936-24.322C46.307 7.324 36.795 4.596 29 4.596c-6.079 0-12.238 1.48-17.85 3.585-2.104.856-4.366 1.792-6.391 2.806l-.003.002zM29 61.036c8.419-4.132 25.023-16.447 25.336-25.57l1.013-25.49c-7.484-4.367-18.007-7.328-26.348-7.328-6.314 0-12.708 1.48-18.553 3.743-2.182.779-5.457 2.104-7.717 3.507l.936 25.57c.39 9.12 16.917 21.439 25.336 25.571L29 61.036z" fill="#BFBFBC"/></svg>