<svg fill="none" viewBox="0 0 46 68"><path fill="#F7A501" fill-opacity=".4" d="M28.959 34.694v-18.55s13.211-7.739 15.324-6.05c3.495 2.797-4.219 6.502-6.337 7.44 1.598-.647 6.337-2.255 6.337 1.433 0 3.267-4.903 4.247-5.88 4.41 1.038-.148 6.459-.73 4.267 3.655-1.552 3.103-13.711 7.662-13.711 7.662z"/><path stroke="#F7A501" stroke-linejoin="round" stroke-opacity=".8" stroke-width="1.613" d="M38.338 24.18l.002.022h.006l.012-.002.038-.006.129-.02c.53-.075 1.967-.222 2.979.1.49.155.726.37.817.607.098.252.132.782-.373 1.79-.126.252-.396.581-.845.974-.439.386-1.004.794-1.663 1.213-1.317.837-2.948 1.682-4.552 2.44a90.214 90.214 0 01-5.123 2.216V16.61l.165-.094a113.217 113.217 0 016.25-3.303c1.772-.857 3.58-1.646 5.061-2.116.744-.236 1.37-.38 1.848-.423.238-.021.415-.015.538.006.114.02.152.046.153.046.347.278.494.518.553.701.057.176.055.371-.03.612-.185.53-.733 1.165-1.585 1.841-1.663 1.32-4.028 2.443-5.087 2.912a14.826 14.826 0 00-.503.216l-.031.014-.009.004-.003.001h0v.001h-.001 0l.106.226s0 0 0 0l-.106-.226a.806.806 0 00.648 1.477l-.091-.224s0 0 0 0l.09.224h.001l.003-.002.008-.003.029-.012.107-.045.382-.165c.791-.32 2.248-.827 3.465-.846.611-.01 1.04.107 1.302.306.222.17.448.493.448 1.23 0 1.157-.856 2.012-2.127 2.647-1.232.616-2.599.886-3.07.965a7.885 7.885 0 00-.13.02l-.038.006-.012.002-.003.001h-.002 0l.003.022s0 0 0 0l-.003-.022a.806.806 0 00.246 1.594l-.003-.021s0 0 0 0z"/><path fill="#F7A501" fill-opacity=".4" d="M16.22 34.694v-18.55S3.008 8.405.896 10.094c-3.495 2.797 4.218 6.502 6.336 7.44-1.598-.647-6.336-2.255-6.336 1.433 0 3.267 4.903 4.247 5.88 4.41-1.038-.148-6.459-.73-4.267 3.655 1.551 3.103 13.711 7.662 13.711 7.662z"/><path stroke="#F7A501" stroke-linejoin="round" stroke-opacity=".8" stroke-width="1.613" d="M6.9 22.58l.129.019.039.006.011.002.004.001h.002l-.004.022s0 0 0 0l.004-.022a.807.807 0 01-.247 1.594l.003-.021s0 0 0 0l-.003.021h0-.005L6.82 24.2l-.039-.006a7.71 7.71 0 01-.128-.02c-.53-.075-1.967-.222-2.979.1-.491.155-.726.37-.818.607-.097.252-.13.782.373 1.79.126.252.396.581.845.974.44.386 1.005.794 1.664 1.213 1.317.837 2.948 1.682 4.552 2.44a90.214 90.214 0 005.122 2.216V16.61l-.164-.094a113.217 113.217 0 00-6.25-3.303c-1.772-.857-3.581-1.646-5.062-2.116-.743-.236-1.368-.38-1.847-.423a2.177 2.177 0 00-.539.006c-.113.02-.15.046-.152.046-.347.278-.495.518-.553.701-.057.176-.056.371.029.612.186.53.733 1.165 1.585 1.841 1.664 1.32 4.029 2.443 5.087 2.912a14.674 14.674 0 01.504.216l.03.014.01.004.002.001h.001v.001h0l-.106.226s0 0 0 0l.107-.226a.806.806 0 01-.648 1.477l.091-.224s0 0 0 0l-.09.224h0-.001 0-.001l-.002-.002-.008-.003-.03-.012-.107-.045c-.09-.038-.22-.094-.381-.165-.791-.32-2.248-.827-3.466-.846-.61-.01-1.04.107-1.302.306-.221.17-.447.493-.447 1.23 0 1.157.856 2.012 2.127 2.647 1.232.616 2.599.886 3.07.965z"/><mask id="a" fill="#fff"><path fill-rule="evenodd" d="M25.673 13.3A6.94 6.94 0 0022.898 0a6.939 6.939 0 00-2.776 13.3v29.72a2.775 2.775 0 105.551 0V13.3zm-9.58 38.471l-3.738 1.917c-3.045 1.562-3.563 5.7-.997 7.964l2.083 1.838a1.388 1.388 0 001.836-2.082l-2.082-1.837a2.082 2.082 0 01.427-3.413l2.471-1.268v-3.119zm11.334-2.693l4.623-2.37c2.877-1.476 3.536-5.297 1.32-7.651l-2.388-2.539a1.388 1.388 0 10-2.021 1.902l2.389 2.539a2.082 2.082 0 01-.567 3.279l-3.356 1.721v3.12zm-4.53 7.82a2.775 2.775 0 00-2.775 2.775v5.552a2.775 2.775 0 105.551 0v-5.551a2.775 2.775 0 00-2.775-2.776z" clip-rule="evenodd"/></mask><path fill="#F7A501" fill-opacity=".4" fill-rule="evenodd" d="M25.673 13.3A6.94 6.94 0 0022.898 0a6.939 6.939 0 00-2.776 13.3v29.72a2.775 2.775 0 105.551 0V13.3zm-9.58 38.471l-3.738 1.917c-3.045 1.562-3.563 5.7-.997 7.964l2.083 1.838a1.388 1.388 0 001.836-2.082l-2.082-1.837a2.082 2.082 0 01.427-3.413l2.471-1.268v-3.119zm11.334-2.693l4.623-2.37c2.877-1.476 3.536-5.297 1.32-7.651l-2.388-2.539a1.388 1.388 0 10-2.021 1.902l2.389 2.539a2.082 2.082 0 01-.567 3.279l-3.356 1.721v3.12zm-4.53 7.82a2.775 2.775 0 00-2.775 2.775v5.552a2.775 2.775 0 105.551 0v-5.551a2.775 2.775 0 00-2.775-2.776z" clip-rule="evenodd"/><path fill="#F7A501" fill-opacity=".8" d="M25.673 13.3l-.555-1.272-.832.364v.908h1.387zm-5.55 0h1.387v-.908l-.832-.364-.556 1.272zm-7.768 40.388l.634 1.235-.634-1.235zm3.738-1.917h1.388V49.5l-2.02 1.036.632 1.235zm-4.735 9.881l.918-1.04-.918 1.04zm2.083 1.838l.918-1.041-.918 1.04zm1.958-.123l-1.04-.918 1.04.918zm-.122-1.959l.918-1.04-.918 1.04zm-2.082-1.837l.918-1.04-.918 1.04zm.427-3.413l-.633-1.235.633 1.235zm2.471-1.268l.634 1.235.754-.387v-.848h-1.388zm15.957-8.182l.633 1.234-.633-1.234zm-4.623 2.37h-1.388v2.272l2.021-1.037-.633-1.235zm5.944-10.021l-1.01.95 1.01-.95zm-2.39-2.539l-1.01.951 1.01-.95zm-1.961-.06l.951 1.011-.951-1.01zm-.06 1.962l-1.01.952 1.01-.952zm2.39 2.539l1.01-.951-1.01.95zm-.567 3.279l-.633-1.235.634 1.235zm-3.356 1.721l-.633-1.235-.755.387v.848h1.388zm1.022-39.02a5.553 5.553 0 01-3.331 5.09l1.11 2.543a8.328 8.328 0 004.996-7.633H28.45zm-5.551-5.551a5.551 5.551 0 015.55 5.55h2.776a8.327 8.327 0 00-8.326-8.326v2.776zm-5.551 5.55a5.551 5.551 0 015.55-5.55v-2.776a8.327 8.327 0 00-8.326 8.327h2.776zm3.33 5.09a5.553 5.553 0 01-3.33-5.09H14.57a8.328 8.328 0 004.996 7.634l1.11-2.543zm.833 30.992V13.3h-2.776v29.72h2.776zm1.388 1.388a1.388 1.388 0 01-1.388-1.388h-2.776c0 2.3 1.864 4.164 4.164 4.164v-2.776zm1.387-1.388c0 .767-.62 1.388-1.387 1.388v2.776c2.3 0 4.163-1.864 4.163-4.164h-2.776zm0-29.72v29.72h2.776V13.3h-2.776zM12.99 54.923l3.738-1.917-1.267-2.47-3.738 1.917 1.267 2.47zm-.713 5.688c-1.833-1.617-1.463-4.572.713-5.688l-1.267-2.47c-3.916 2.008-4.582 7.328-1.282 10.24l1.836-2.081zm2.083 1.838l-2.083-1.837-1.836 2.08 2.083 1.838 1.836-2.081zm0 0l-1.836 2.081a2.776 2.776 0 003.917-.245l-2.081-1.836zm0 0l2.081 1.836a2.775 2.775 0 00-.245-3.917l-1.836 2.081zm-2.083-1.837l2.083 1.837 1.836-2.081-2.082-1.838-1.837 2.081zm.713-5.69c-2.176 1.117-2.546 4.072-.713 5.69l1.837-2.082a.694.694 0 01.142-1.137l-1.266-2.47zm2.471-1.266l-2.471 1.267 1.266 2.47 2.472-1.268-1.267-2.47zm-.754-1.885v3.12h2.775v-3.12h-2.775zm16.71-6.298l-4.622 2.37 1.266 2.47 4.623-2.37-1.266-2.47zm.944-5.465a3.47 3.47 0 01-.943 5.465l1.266 2.47c3.699-1.897 4.547-6.81 1.698-9.837l-2.02 1.902zm-2.389-2.539l2.39 2.539 2.02-1.903-2.389-2.538-2.02 1.902zm0 0l2.021-1.902a2.775 2.775 0 00-3.923-.119l1.902 2.021zm0 0l-1.902-2.02a2.776 2.776 0 00-.12 3.923l2.022-1.903zm2.39 2.539l-2.39-2.539-2.021 1.903 2.389 2.538 2.021-1.902zm-.944 5.465a3.47 3.47 0 00.943-5.465L30.34 41.91a.694.694 0 01-.189 1.093l1.267 2.47zm-3.357 1.721l3.357-1.721-1.267-2.47-3.356 1.721 1.266 2.47zm.755 1.884V45.96H26.04v3.12h2.776zM21.51 59.673c0-.766.621-1.387 1.388-1.387V55.51a4.163 4.163 0 00-4.163 4.163h2.775zm0 5.552v-5.551h-2.776v5.55h2.776zm1.388 1.387a1.388 1.388 0 01-1.388-1.387h-2.776a4.163 4.163 0 004.164 4.163v-2.776zm1.387-1.387c0 .766-.62 1.387-1.387 1.387v2.776c2.3 0 4.163-1.864 4.163-4.163h-2.776zm0-5.551v5.55h2.776v-5.55h-2.776zm-1.387-1.388c.766 0 1.387.621 1.387 1.387h2.776a4.163 4.163 0 00-4.163-4.163v2.776z" mask="url(#a)"/><path stroke="#F7A501" stroke-linecap="round" stroke-linejoin="round" stroke-opacity=".8" stroke-width="2.776" d="M14.224 37.816l-2.389 2.539a3.47 3.47 0 00.944 5.465l18.428 9.45c2.175 1.116 2.545 4.071.712 5.689l-2.082 1.837"/></svg>