<svg fill="none" xmlns="http://www.w3.org/2000/svg" viewBox="0 0 54 54"><path d="M5.046 43.737v3.533h15.14c0 3.7 3.03 6.73 6.73 6.73 3.701 0 6.73-3.03 6.73-6.73h6.391L10.598 17.663c-.674 2.523-.504 3.365-.504 13.795 0 4.71-1.851 8.915-5.048 12.28zM48.786 46.431v-2.69s0-.169-.168-.169c-3.029-3.029-4.878-7.4-4.878-12.111 0-6.898 2.187-23.048-13.457-26.242l-.002-1.854c0-1.01-.336-1.851-1.01-2.355C28.597.336 27.758 0 26.916 0a3.374 3.374 0 00-3.365 3.365v1.852c-4.036.84-7.568 3.194-9.756 6.055L2.355 0 0 2.355l51.477 51.478 2.356-2.356-5.047-5.046z" fill="#BFBFBC"/></svg>