<svg fill="none" xmlns="http://www.w3.org/2000/svg" viewBox="0 0 64 64"><path d="M63.11 47.805a1.777 1.777 0 01-1.777 1.777 5.778 5.778 0 00-3.91 1.405l-.57.41v-.002a9.709 9.709 0 01-3.163 1.422c-.705.123-1.42.178-2.135.16a9.252 9.252 0 01-5.92-2.045 5.788 5.788 0 00-3.91-1.402 5.679 5.679 0 00-3.875 1.402A9.272 9.272 0 0132 52.977a9.134 9.134 0 01-5.885-2.045 5.798 5.798 0 00-3.892-1.402 5.799 5.799 0 00-3.913 1.402 9.245 9.245 0 01-5.865 2.045c-.718 0-1.433-.072-2.135-.212a8.887 8.887 0 01-3.2-1.423l-.587-.41h.002A5.774 5.774 0 002.63 49.53a1.778 1.778 0 010-3.468 9.176 9.176 0 015.885 2.045c.098.075.198.148.303.213a27.665 27.665 0 0121.05-12.445c-1.263-5.332-4.25-14.703-8.41-18.72-3.788 2.633-1.903 7.735-1.903 8.035a1.778 1.778 0 01-1.03 2.205 1.441 1.441 0 01-.587.108 1.778 1.778 0 01-1.636-1.138 11.54 11.54 0 01.835-9.742 8.88 8.88 0 00-4.23 4.124c-.3.593-.902.968-1.565.978a1.652 1.652 0 01-.675-.16 1.776 1.776 0 01-.817-2.295 11.499 11.499 0 017.465-6.31 8.685 8.685 0 00-5.938 0 1.778 1.778 0 01-2.204-1.05c-.29-.89.16-1.855 1.032-2.203a11.855 11.855 0 019.013.373 11.83 11.83 0 015.154-7.377 1.778 1.778 0 012.383.532c.485.805.26 1.85-.515 2.383a8.904 8.904 0 00-3.555 4.747 11.62 11.62 0 019.583-2.115 1.778 1.778 0 01-.748 3.378c-.25 0-5.617-1.12-7.823 2.915 4 3.75 6.738 10.863 8.32 16.107a34.676 34.676 0 016.223-12.18 6.512 6.512 0 00-6.863-.177 1.777 1.777 0 01-1.778-2.968 10.111 10.111 0 019.796-.215 8.086 8.086 0 00-4.445-5.332 1.776 1.776 0 01-.817-2.31 1.78 1.78 0 012.312-.89 11.81 11.81 0 016.08 6.632 11.81 11.81 0 018.888-1.547 1.78 1.78 0 011.797 2.162 1.774 1.774 0 01-2.542 1.198 8.89 8.89 0 00-5.868.852 11.557 11.557 0 018.268 5.335c.492.813.257 1.87-.535 2.4-.283.158-.6.243-.923.248a1.781 1.781 0 01-1.46-.783 8.89 8.89 0 00-4.745-3.555 11.628 11.628 0 012.115 9.583 1.775 1.775 0 01-1.69 1.35 1.328 1.328 0 01-.372 0 1.775 1.775 0 01-1.315-2.063c0-.285 1.155-5.76-3.058-7.875a22.014 22.014 0 00-4.32 7.235 60.647 60.647 0 00-2.615 8.125A27.707 27.707 0 0155.2 48.32l.268-.195a9.31 9.31 0 015.92-2.045c.94.028 1.695.785 1.723 1.725h-.001zM61.388 54.703a9.353 9.353 0 00-2.97.445c-1.055.387-2.05.925-2.95 1.6l-.143.107v-.002a5.587 5.587 0 01-3.735 1.297 5.759 5.759 0 01-3.91-1.402 9.542 9.542 0 00-11.805 0 6.118 6.118 0 01-7.804 0 9.103 9.103 0 00-5.865-2.045 9.19 9.19 0 00-5.903 2.045 5.818 5.818 0 01-3.857 1.402 5.552 5.552 0 01-3.77-1.26l-.178-.125a11.175 11.175 0 00-2.915-1.655 8.879 8.879 0 00-2.97-.46 1.776 1.776 0 000 3.448 5.33 5.33 0 012.17.392 7.215 7.215 0 011.778 1.03c.47.348.962.663 1.475.943a8.634 8.634 0 004.41 1.155 9.219 9.219 0 005.885-2.045 5.711 5.711 0 013.91-1.423 5.748 5.748 0 013.892 1.423 9.128 9.128 0 005.868 2.045c2.145.022 4.23-.7 5.902-2.045a5.625 5.625 0 013.875-1.423 5.722 5.722 0 013.913 1.423 9.244 9.244 0 005.865 2.045 8.455 8.455 0 004.462-1.173c.505-.275.993-.585 1.458-.925a8.593 8.593 0 011.777-1.05 5.647 5.647 0 012.17-.372 1.779 1.779 0 000-3.448l-.035.053z" fill="#BFBFBC"/></svg>