<svg fill="none" viewBox="0 0 49 60"><path fill="#F73C01" fill-opacity=".4" d="M48.232 59.775H.599S3.464 39.36 25.31 39.36c21.846 0 22.92 20.414 22.92 20.414z"/><path stroke="#F73C01" stroke-opacity=".6" stroke-width="2.149" d="M47.031 58.7H1.911a25.16 25.16 0 01.5-1.789c.588-1.844 1.59-4.296 3.242-6.742 3.277-4.852 9.141-9.734 19.658-9.734 10.505 0 15.9 4.868 18.726 9.677 1.43 2.433 2.214 4.875 2.639 6.715.17.739.282 1.377.355 1.873z"/><path fill="#F75A01" fill-opacity=".4" d="M15.896 8.366l4.234 1.408s9.452 10.99 9.988 14.304c.84 5.203.832 12.732.832 12.732h-9.41s2.303-7.53 1.413-12.732c-.919-5.362-7.057-15.712-7.057-15.712z"/><path stroke="#F73C01" stroke-opacity=".6" stroke-width="1.544" d="M22.558 36.038l.076-.294c.206-.8.47-1.922.706-3.21.468-2.553.843-5.846.374-8.586-.482-2.811-2.3-6.837-3.945-10.085a115.702 115.702 0 00-2.2-4.127l2.114.703.265.312a151.58 151.58 0 014.363 5.403c1.21 1.574 2.426 3.239 3.37 4.709.473.735.87 1.411 1.164 1.995.3.598.463 1.048.51 1.344.413 2.554.62 5.7.723 8.224a127.787 127.787 0 01.094 3.612h-7.614z"/><mask id="a" fill="#fff"><path fill-rule="evenodd" d="M16.124 6.191c-1.175-.224-3.561-.651-4.866-.683-2.878-.07-7.643 2.97-7.643 2.97l-2.678 3.96 4.587-1.344s4.078-1.897 6.94-3.397c.62-.325 1.391-.6 2.112-.816-1.061.454-2.272 1.007-3.002 1.451-2.459 1.497-4.824 6.63-4.824 6.63l-.112 4.78 3.132-3.61s2.405-3.801 4.002-6.611c.35-.616.86-1.273 1.355-1.85.202-.12.535-.312.942-.53.92.073 2.64.26 3.863.692 3.047 1.077 7.354 2.372 7.354 2.372l4.733.675-3.217-3.536s-5.15-2.329-7.988-1.85c-.767.13-1.892.453-2.916.776a9.58 9.58 0 011.152-.395c3.125-.823 7.415-2.173 7.415-2.173L30.76 1.6 26.11.483s-5.568.97-7.645 2.962c-.667.64-1.599 1.789-2.34 2.746z" clip-rule="evenodd"/></mask><path fill="#F73C01" fill-opacity=".4" fill-rule="evenodd" d="M16.124 6.191c-1.175-.224-3.561-.651-4.866-.683-2.878-.07-7.643 2.97-7.643 2.97l-2.678 3.96 4.587-1.344s4.078-1.897 6.94-3.397c.62-.325 1.391-.6 2.112-.816-1.061.454-2.272 1.007-3.002 1.451-2.459 1.497-4.824 6.63-4.824 6.63l-.112 4.78 3.132-3.61s2.405-3.801 4.002-6.611c.35-.616.86-1.273 1.355-1.85.202-.12.535-.312.942-.53.92.073 2.64.26 3.863.692 3.047 1.077 7.354 2.372 7.354 2.372l4.733.675-3.217-3.536s-5.15-2.329-7.988-1.85c-.767.13-1.892.453-2.916.776a9.58 9.58 0 011.152-.395c3.125-.823 7.415-2.173 7.415-2.173L30.76 1.6 26.11.483s-5.568.97-7.645 2.962c-.667.64-1.599 1.789-2.34 2.746z" clip-rule="evenodd"/><path fill="#F73C01" fill-opacity=".6" d="M11.258 5.508l-.026 1.08.026-1.08zm4.866.683l-.202 1.06.65.125.406-.523-.854-.662zM3.615 8.478l-.58-.91-.189.12-.125.186.894.604zm-2.678 3.96l-.894-.605-1.68 2.483 2.877-.843-.303-1.035zm4.587-1.344l.304 1.036.078-.023.074-.034-.456-.979zm6.94-3.397l-.5-.956.5.956zm2.112-.816l.424.993-.734-2.026.31 1.033zm-3.002 1.451l.561.922-.561-.922zm-4.824 6.63l-.98-.45-.093.202-.006.223 1.08.026zm-.112 4.78l-1.08-.026-.07 2.998 1.965-2.265-.815-.707zm3.132-3.61l.816.707.053-.062.044-.069-.913-.577zm4.002-6.611l.939.533-.939-.533zm1.355-1.85l-.55-.929-.153.09-.116.136.819.703zm.942-.53l.086-1.076-.316-.025-.28.15.51.951zm3.863.692l-.36 1.018.36-1.018zm7.354 2.372l-.31 1.034.077.024.08.011.153-1.069zm4.733.675l-.153 1.069 2.968.423-2.017-2.218-.798.726zm-3.217-3.536l.799-.726-.15-.166-.204-.092-.445.984zm-7.988-1.85l.18 1.065-.18-1.064zm-2.916.776l-.408-1 .732 2.03-.324-1.03zm1.152-.395l-.275-1.044.275 1.044zm7.415-2.173l.325 1.03.077-.025.073-.036-.475-.969zM30.76 1.6l.474.969 2.693-1.319-2.915-.7-.252 1.05zM26.11.483l.253-1.05-.218-.051-.22.038.185 1.063zm-7.645 2.962l.747.78-.747-.78zm-7.233 3.142c1.198.03 3.49.435 4.69.665l.405-2.12c-1.152-.221-3.631-.669-5.043-.703l-.052 2.158zM3.615 8.478l.58.91h.002l.009-.006a8.257 8.257 0 01.182-.113 29.883 29.883 0 012.44-1.33 18.832 18.832 0 012.354-.97c.801-.258 1.506-.395 2.05-.382l.052-2.158c-.894-.022-1.865.195-2.766.487-.915.295-1.828.69-2.631 1.08A32.04 32.04 0 003.04 7.565l-.003.002-.001.001.58.91zm-1.784 4.564l2.678-3.959-1.788-1.21-2.678 3.96 1.788 1.21zm3.39-2.984L.633 11.402l.607 2.072 4.588-1.344-.607-2.072zm6.742-3.317a154.605 154.605 0 01-4.51 2.244 256.95 256.95 0 01-2.205 1.047l-.134.062a4.289 4.289 0 01-.034.016l-.008.004-.002.001h-.001l.455.98.456.978.003-.002.009-.004.035-.016a69.902 69.902 0 00.64-.3c.428-.202 1.03-.488 1.722-.82 1.38-.663 3.129-1.52 4.577-2.278L11.963 6.74zm2.303-.893c-.746.223-1.594.521-2.303.893l1.003 1.912c.53-.278 1.225-.53 1.92-.738l-.62-2.067zm-2.13 3.406c.655-.4 1.799-.924 2.864-1.38l-.848-1.985c-1.057.452-2.335 1.031-3.14 1.521l1.123 1.844zM6.75 14.963l.98.452.001-.002.005-.009a6.447 6.447 0 01.092-.194 29.872 29.872 0 011.333-2.439 18.81 18.81 0 011.457-2.087c.534-.651 1.052-1.147 1.517-1.43L11.012 7.41c-.764.465-1.463 1.173-2.064 1.905-.61.743-1.164 1.57-1.629 2.331a32.045 32.045 0 00-1.54 2.846l-.006.013a.58.58 0 00-.002.004v.001c0 .001-.001.001.98.453zm.967 4.804l.112-4.779-2.158-.05-.113 4.778 2.159.051zm1.238-4.343l-3.133 3.61 1.63 1.415 3.134-3.61-1.63-1.415zm3.879-6.436a154.77 154.77 0 01-2.58 4.326 255.191 255.191 0 01-1.29 2.073l-.079.125-.02.032-.005.008-.001.002.911.577.913.577s0-.002.002-.002l.005-.009.02-.033a67.357 67.357 0 00.376-.598c.252-.402.604-.967 1.006-1.62a156.85 156.85 0 002.619-4.392l-1.877-1.066zm1.474-2.02c-.513.597-1.074 1.315-1.474 2.02l1.877 1.066c.299-.527.756-1.123 1.235-1.68l-1.638-1.406zM15.677 8.6c.192-.114.51-.298.901-.507L15.56 6.189c-.424.227-.77.428-.983.553l1.1 1.858zm4.615-1.784c-1.37-.484-3.217-.678-4.137-.75l-.171 2.151c.919.073 2.511.254 3.589.634l.719-2.035zm6.994 3.39l.311-1.034-.003-.001-.009-.003a22.83 22.83 0 00-.036-.01l-.14-.043-.527-.16c-.45-.139-1.08-.333-1.806-.562a154.664 154.664 0 01-4.784-1.577l-.72 2.035c1.542.545 3.395 1.142 4.856 1.602a260.654 260.654 0 002.354.728l.143.043.037.011.01.003h.002l.001.001.311-1.034zm4.885-.394l-4.732-.675-.305 2.137 4.732.675.305-2.137zM28.004 8.07l3.216 3.537 1.597-1.453-3.216-3.536-1.597 1.452zm-7.01-1.51c.536-.091 1.253-.057 2.083.085.817.14 1.676.371 2.468.623a29.895 29.895 0 012.802 1.055l.009.004h.002l.444-.983.445-.984h-.002l-.004-.002-.013-.006a14.339 14.339 0 00-.227-.1A32.043 32.043 0 0026.2 5.21c-.85-.27-1.811-.53-2.759-.693-.933-.16-1.925-.236-2.807-.086l.36 2.128zm-2.772.74c1.025-.323 2.087-.625 2.772-.74l-.36-2.13c-.848.144-2.038.488-3.06.81l.648 2.06zm.083-.03a8.4 8.4 0 011.02-.351l-.55-2.088c-.428.113-.866.269-1.285.44l.815 1.999zm1.02-.351c1.58-.417 3.45-.964 4.916-1.406a258.535 258.535 0 002.498-.766l.038-.011.01-.003.002-.001-.324-1.03-.323-1.03h-.001l-.002.001-.01.003-.035.011a73.463 73.463 0 01-.666.208c-.45.138-1.08.332-1.81.551-1.46.44-3.299.978-4.843 1.385l.55 2.088zM26.94 4.67l4.293-2.102-.95-1.939-4.292 2.103.95 1.938zM31.01.55L26.364-.566l-.505 2.099 4.648 1.116.505-2.099zm-4.9-.067a279.747 279.747 0 00-.185-1.063h-.002l-.004.001-.015.003a13.103 13.103 0 00-.243.045 32.04 32.04 0 00-2.902.713c-.855.255-1.796.58-2.671.978-.862.393-1.725.887-2.37 1.506l1.494 1.558c.393-.377 1.005-.75 1.771-1.1a18.83 18.83 0 012.391-.872 29.883 29.883 0 012.869-.696l.042-.007.009-.002h.002L26.11.483zm-8.393 2.183c-.731.702-1.709 1.913-2.446 2.864l1.707 1.323c.746-.964 1.633-2.053 2.234-2.629l-1.495-1.558z" mask="url(#a)"/></svg>