<svg fill="none" xmlns="http://www.w3.org/2000/svg" viewBox="0 0 60 64"><path d="M29.574 0c-4.452 0-8.072 3.62-8.072 8.072 0 4.452 3.623 8.073 8.072 8.073 4.452 0 8.075-3.62 8.075-8.073C37.65 3.62 34.026 0 29.574 0zm12.35 15.054c-1.763 0-5.517 2.204-8.406 5.45a28.445 28.445 0 00-3.944-.272c-6.232 0-12.106 2.002-16.534 5.635-4.018 3.294-6.43 7.577-6.915 12.206a4.53 4.53 0 01-3.107-4.298 1.51 1.51 0 00-3.018 0c0 3.664 2.625 6.725 6.094 7.405.405 4.81 2.933 9.342 7.105 12.7L11.9 61.233a1.508 1.508 0 001.227 1.747l5.647.998a1.51 1.51 0 001.75-1.227l.811-4.595a27.646 27.646 0 008.244 1.235c2.854 0 5.62-.413 8.248-1.235l.808 4.596a1.51 1.51 0 001.747 1.227l5.648-.999a1.506 1.506 0 001.224-1.747l-1.296-7.351c2.443-1.965 4.344-4.352 5.57-6.977h4.137a3.46 3.46 0 003.456-3.453v-7.277a3.458 3.458 0 00-3.454-3.454h-4.136c-1.237-2.648-3.161-5.055-5.632-7.028-.049-2.943-.262-5.175-.642-6.812-.59-2.535-1.711-3.82-3.328-3.82l-.005-.006zm-12.35 10.854c2.033 0 4.018.302 5.904.9.796.252 1.235 1.101.98 1.894a1.514 1.514 0 01-1.895.983 16.45 16.45 0 00-4.991-.76c-1.722 0-3.4.257-4.988.76a1.508 1.508 0 11-.916-2.877 19.51 19.51 0 015.904-.9h.002zm12.322 5.396c1.398 0 2.73 1.077 2.73 2.594 0 1.516-1.332 2.591-2.73 2.591s-2.728-1.075-2.728-2.591c0-1.517 1.33-2.594 2.728-2.594zm0 2.17c-.051 0-.288.106-.288.426 0 .319.237.424.288.424.051 0 .29-.105.29-.424 0-.318-.239-.426-.29-.426z" fill="#BFBFBC"/></svg>