<svg fill="none" xmlns="http://www.w3.org/2000/svg" viewBox="0 0 56 55"><path d="M38.346 20.847c-1.13 1.061-9.373 9.312-10.34 14.887-.967-5.57-9.214-13.826-10.341-14.88 1.066-7.917 4.83-14.978 10.34-20.227 5.507 5.242 9.276 12.302 10.341 20.22z" fill="#BFBFBC"/><path d="M37.909 20.408c-1.327 1.246-2.56 2.603-3.75 3.977-1.911 2.207-3.75 4.539-5.16 7.104-.703 1.27-1.332 2.64-1.584 4.075h1.19c-.228-1.27-.746-2.479-1.338-3.614-.666-1.282-1.46-2.496-2.314-3.675-1.583-2.19-3.342-4.255-5.205-6.211a49.326 49.326 0 00-1.64-1.658c.054.197.104.4.16.597.802-5.916 3.158-11.594 6.853-16.293a34.725 34.725 0 013.33-3.664h-.868c4.273 4.083 7.455 9.25 9.115 14.93a34.58 34.58 0 011.066 5.027c.044.333.468.513.76.431.357-.098.473-.424.431-.76-.834-6.112-3.318-11.909-7.11-16.761A34.047 34.047 0 0028.455.176a.624.624 0 00-.868 0 35.262 35.262 0 00-6.162 7.82 34.812 34.812 0 00-3.738 9.398 31.572 31.572 0 00-.493 2.529c-.069.439-.271 1.016.07 1.376.06.07.135.128.196.192a54.804 54.804 0 011.505 1.53c1.658 1.751 3.244 3.582 4.675 5.526 1.475 1.998 2.955 4.198 3.606 6.566.074.259.128.518.178.784.103.587 1.085.592 1.189 0 .222-1.226.686-2.306 1.253-3.384.666-1.27 1.46-2.48 2.299-3.639 1.524-2.109 3.236-4.082 5.027-5.97a52.425 52.425 0 011.604-1.622c.562-.546-.306-1.416-.886-.874z" fill="#BFBFBC"/><path d="M48.694 43.264C43.411 49.788 35.947 53.506 28.2 54.228c-.054.005-.103.013-.16.013-.012 0-.024 0-.044.005-.012 0-.025 0-.045-.005-.054-.005-.103-.013-.16-.013A29.87 29.87 0 017.297 43.264C1.924 36.628-.148 28.394.863 20.55c6.607.53 13.03 3.236 18.102 8.004.981.925 1.919 1.925 2.787 2.998a29.776 29.776 0 016.241 13.695 29.758 29.758 0 016.241-13.695 30.55 30.55 0 012.788-3.005 29.863 29.863 0 0118.1-7.997c1.022 7.844-1.05 16.078-6.428 22.714z" fill="#BFBFBC"/><path d="M48.263 42.825A29.648 29.648 0 0137.3 51.242a29.3 29.3 0 01-6.359 1.979c-.535.103-1.073.192-1.608.266-.498.069-1.031.172-1.53.128a28.85 28.85 0 01-3.243-.493c-4.411-.933-8.615-2.862-12.142-5.669A29.874 29.874 0 013.64 36.044c-1.88-4.316-2.659-9.09-2.326-13.776a33.9 33.9 0 01.173-1.722l-.617.617a29.525 29.525 0 0113.646 4.662c4.374 2.849 7.936 6.882 10.267 11.55a29.582 29.582 0 012.627 8.036c.104.587 1.085.592 1.19 0 .887-5.057 3.083-9.842 6.376-13.784 3.251-3.893 7.48-6.927 12.24-8.696a29.626 29.626 0 017.924-1.77l-.617-.617c.777 6.105-.333 12.378-3.276 17.798a28.984 28.984 0 01-2.985 4.484c-.21.26-.251.617 0 .868.217.218.661.26.869 0 4.114-5.093 6.537-11.372 6.837-17.913a30.448 30.448 0 00-.217-5.235c-.037-.308-.251-.646-.616-.616-5.062.414-10.003 2.052-14.271 4.83a30.856 30.856 0 00-10.71 11.993 30.628 30.628 0 00-2.751 8.333h1.189c-.925-5.274-3.261-10.225-6.697-14.328a30.618 30.618 0 00-12.783-9.016A30.818 30.818 0 00.862 19.93c-.365-.03-.58.309-.617.617-.617 4.847-.069 9.837 1.633 14.418a30.834 30.834 0 008.412 12.314 30.663 30.663 0 0012.412 6.666c1.098.29 2.208.518 3.335.686.597.086 1.197.16 1.801.217.513.049 1.073-.074 1.579-.141a30.394 30.394 0 006.764-1.69c4.47-1.69 8.53-4.41 11.754-7.943a28.4 28.4 0 001.189-1.381c.21-.26.252-.617 0-.868-.205-.215-.649-.257-.861.002z" fill="#BFBFBC"/></svg>