<svg fill="none" viewBox="0 0 59 74"><path fill="#F73C01" fill-opacity=".2" d="M6.673 28.197a3.998 3.998 0 00.663-1.897c.846-10.257 3.538-15.225 11.17-21.973.3-.265.65-.482 1.02-.635 10.817-4.489 15.436-4.847 25.353-1.28.2.072.4.163.584.27 12.631 7.394 17.268 22.186 7.83 41.676a3.88 3.88 0 00-.298 2.582l3.527 14.811a3.746 3.746 0 01-2.645 4.478L30.684 72.65a3.746 3.746 0 01-4.648-2.758l-1.528-6.55c-.474-2.033-2.523-3.294-4.585-2.963-4.836.775-12.666 1.349-12.666-3.075v-9.882c0-2.385-2.305-3.958-4.596-4.62-1.098-.316-1.959-.997-1.959-2.354 0-3.057 4.364-9.853 5.97-12.252z"/><path stroke="#F73C01" stroke-opacity=".6" stroke-width="1.873" d="M8.269 26.377c.418-5.062 1.285-8.733 2.94-11.95 1.658-3.221 4.143-6.06 7.918-9.398a2.73 2.73 0 01.757-.472C25.273 2.32 29.01 1.162 32.591.967c3.564-.196 7.061.56 11.971 2.326.15.054.297.122.427.198 6.112 3.577 10.253 8.915 11.75 15.695 1.501 6.798.366 15.15-4.29 24.764a4.816 4.816 0 00-.365 3.207l3.526 14.811a2.81 2.81 0 01-1.983 3.358L30.434 71.75a2.81 2.81 0 01-3.486-2.07l-1.528-6.548c-.595-2.553-3.139-4.078-5.645-3.676-2.4.385-5.46.703-7.885.407-1.218-.148-2.174-.441-2.803-.873-.578-.397-.893-.913-.893-1.684v-9.883c0-1.526-.746-2.752-1.75-3.653-.995-.892-2.281-1.508-3.524-1.866-.45-.13-.766-.311-.964-.525-.18-.193-.317-.47-.317-.93 0-.582.217-1.445.641-2.524.415-1.055.992-2.23 1.628-3.402 1.271-2.344 2.746-4.615 3.543-5.805a4.941 4.941 0 00.818-2.341z"/><path fill="#F73C01" fill-opacity=".2" d="M47.699 30.963c7.278-10.917-3.12-21.315-14.557-12.477-10.397-8.838-21.834 1.56-13.517 12.477L33.142 45 47.7 30.963z"/><path stroke="#F73C01" stroke-opacity=".6" stroke-width="2.08" d="M32.469 19.278l.642.546.667-.515c5.44-4.204 10.315-3.649 12.958-1.226 2.64 2.42 3.51 7.111.159 12.211L33.169 43.53 20.417 30.286c-3.864-5.108-2.981-9.79-.349-12.203 2.655-2.434 7.515-2.957 12.4 1.195z"/></svg>