<svg fill="none" viewBox="0 0 89 91"><rect width="35.438" height="9.42" x="9.866" y="46.46" fill="#FF8A00" fill-opacity=".6" rx="2.243" transform="rotate(-33.467 9.866 46.46)"/><rect width="34.313" height="8.295" x="10.646" y="46.62" stroke="#FF8A00" stroke-opacity=".4" stroke-width="1.125" rx="1.68" transform="rotate(-33.467 10.646 46.62)"/><path fill="#FF8A00" fill-opacity=".4" d="M22.63 17.068L11.087 45.6c-.207.512.371.985.832.68l26.716-17.66a.563.563 0 00.224-.292l8.897-26.785a.562.562 0 00-.844-.647L22.841 16.809a.562.562 0 00-.211.259z"/><path stroke="#FF8A00" stroke-opacity=".4" stroke-width="1.125" d="M11.609 45.812L23.15 17.28 47.222 1.366l-8.897 26.785-26.716 17.661z"/><path fill="#FF8A00" fill-opacity=".4" d="M52.3 8.139l-4.504-6.815L38.88 27.11l4.963 7.508 8.584-25.499c.11-.328.064-.69-.127-.979z"/><path stroke="#FF8A00" stroke-opacity=".4" stroke-width="1.125" d="M39.503 27.03l8.452-24.445L51.83 8.45a.56.56 0 01.064.49l-8.217 24.407-4.175-6.315z"/><rect width="35.438" height="9.42" x="29.307" y="56.795" fill="#FF8A00" fill-opacity=".6" rx="2.243" transform="rotate(26.039 29.307 56.795)"/><rect width="34.313" height="8.295" x="29.566" y="57.548" stroke="#FF8A00" stroke-opacity=".4" stroke-width="1.125" rx="1.68" transform="rotate(26.039 29.566 57.548)"/><path fill="#FF8A00" fill-opacity=".4" d="M61.11 52.878l-30.443 4.534c-.546.08-.66.819-.164 1.061l28.775 14.06a.562.562 0 00.365.044l27.595-5.925a.563.563 0 00.129-1.056L61.44 52.93a.562.562 0 00-.33-.05z"/><path stroke="#FF8A00" stroke-opacity=".4" stroke-width="1.125" d="M30.75 57.968l30.444-4.533L87.12 66.102l-27.595 5.925-28.775-14.06z"/><path fill="#FF8A00" fill-opacity=".4" d="M83.86 73.914l3.587-7.34-26.742 5.403-3.951 8.087 26.328-5.543a1.12 1.12 0 00.779-.607z"/><path stroke="#FF8A00" stroke-opacity=".4" stroke-width="1.125" d="M61.088 72.473l25.353-5.122-3.085 6.316a.562.562 0 01-.39.304l-25.201 5.305 3.323-6.803z"/><path stroke="#FF8A00" stroke-linecap="round" stroke-opacity=".4" d="M25.172 22.5l13-8.5m21 44.476l14.071 6.576M27.672 24l7-4.5m24.541 41.891l7.512 3.581"/></svg>