<svg width="89" height="91" viewBox="0 0 89 91" fill="none" xmlns="http://www.w3.org/2000/svg">
<rect x="9.86633" y="46.4604" width="35.4375" height="9.4201" rx="2.24288" transform="rotate(-33.4671 9.86633 46.4604)" fill="#FF8A00" fill-opacity="0.6"/>
<rect x="10.6458" y="46.6195" width="34.3125" height="8.2951" rx="1.68038" transform="rotate(-33.4671 10.6458 46.6195)" stroke="#FF8A00" stroke-opacity="0.4" stroke-width="1.125"/>
<path d="M22.6297 17.0677L11.0874 45.6011C10.8802 46.1132 11.4582 46.5859 11.919 46.2813L38.6349 28.6205C38.74 28.551 38.8187 28.4482 38.8585 28.3286L47.756 1.54356C47.9244 1.0366 47.3576 0.602409 46.912 0.896996L22.841 16.8094C22.746 16.8722 22.6724 16.9622 22.6297 17.0677Z" fill="#FF8A00" fill-opacity="0.4"/>
<path d="M11.6088 45.8121L23.1512 17.2787L47.2222 1.36623L38.3247 28.1513L11.6088 45.8121Z" stroke="#FF8A00" stroke-opacity="0.4" stroke-width="1.125"/>
<path d="M52.3005 8.13905L47.7956 1.32432L38.8806 27.1094L43.8438 34.6172L52.4282 9.11839C52.5389 8.7897 52.4918 8.42836 52.3005 8.13905Z" fill="#FF8A00" fill-opacity="0.4"/>
<path d="M39.503 27.0308L47.9548 2.58521L51.8313 8.44924C51.9269 8.5939 51.9505 8.77457 51.8951 8.93891L43.678 33.3465L39.503 27.0308Z" stroke="#FF8A00" stroke-opacity="0.4" stroke-width="1.125"/>
<rect x="29.307" y="56.7954" width="35.4375" height="9.4201" rx="2.24288" transform="rotate(26.039 29.307 56.7954)" fill="#FF8A00" fill-opacity="0.6"/>
<rect x="29.5655" y="57.5477" width="34.3125" height="8.2951" rx="1.68038" transform="rotate(26.039 29.5655 57.5477)" stroke="#FF8A00" stroke-opacity="0.4" stroke-width="1.125"/>
<path d="M61.1109 52.8783L30.667 57.4116C30.1206 57.4929 30.0066 58.2309 30.5029 58.4733L59.2778 72.5321C59.391 72.5874 59.5196 72.6031 59.6428 72.5766L87.238 66.6516C87.7603 66.5394 87.8468 65.8307 87.3669 65.5962L61.4406 52.9293C61.3384 52.8793 61.2234 52.8615 61.1109 52.8783Z" fill="#FF8A00" fill-opacity="0.4"/>
<path d="M30.7498 57.9679L61.1937 53.4347L87.1199 66.1016L59.5247 72.0267L30.7498 57.9679Z" stroke="#FF8A00" stroke-opacity="0.4" stroke-width="1.125"/>
<path d="M83.8609 73.9143L87.447 66.5744L60.7046 71.977L56.7538 80.0635L83.0819 74.5213C83.4212 74.4499 83.7087 74.2259 83.8609 73.9143Z" fill="#FF8A00" fill-opacity="0.4"/>
<path d="M61.0882 72.4734L86.4414 67.3514L83.3555 73.6674C83.2794 73.8232 83.1357 73.9352 82.966 73.9709L57.7646 79.2759L61.0882 72.4734Z" stroke="#FF8A00" stroke-opacity="0.4" stroke-width="1.125"/>
<path d="M25.1718 22.5L38.1718 14" stroke="#FF8A00" stroke-opacity="0.4" stroke-linecap="round"/>
<path d="M59.1718 58.4758L73.2433 65.0518" stroke="#FF8A00" stroke-opacity="0.4" stroke-linecap="round"/>
<path d="M27.6718 24L34.6718 19.5" stroke="#FF8A00" stroke-opacity="0.4" stroke-linecap="round"/>
<path d="M59.213 61.391L66.7245 64.9724" stroke="#FF8A00" stroke-opacity="0.4" stroke-linecap="round"/>
</svg>
