<svg fill="none" xmlns="http://www.w3.org/2000/svg" viewBox="0 0 64 53"><path d="M63.97 22.96a.943.943 0 00-.72-.69l-.43-.089v-6.016l.702-.6a.94.94 0 00-.447-1.644l-3.944-.717.002-5.067-.002-.105.725-.62a.944.944 0 00-.447-1.647L27.538.015a.936.936 0 00-.705.155L2.142 17.396c-.467.258-2.175 1.43-2.142 4.688.037 3.54 2.131 5.148 2.22 5.214.011.009.025.014.039.023l.064.041c.022.014.047.025.072.036.022.011.044.02.07.028.027.011.052.017.08.025.017.006.03.011.047.014l1.458.306c-.236.644-.397 1.45-.386 2.463.017 1.753.542 3.034 1.075 3.886l-1.13.787c-.47.26-2.175 1.436-2.142 4.691.036 3.54 2.128 5.15 2.22 5.214.077.053.236.136.37.167l33.432 7.014.012.002 1.194.25a.939.939 0 00.806-.206L61.472 33.27a.94.94 0 00-.42-1.639l-.39-.08v-5.072l3.008-2.57a.939.939 0 00.3-.95zm-26.698 3.45a.939.939 0 00.611-.226L57.255 9.637v5.991l-20.16 17.147.005-6.386c.058.011.116.02.172.02zM3.603 19.364l31.608 6.633v6.378l-31.608-6.62v-6.391zM5.07 43.262v-6.386l31.608 6.633v6.386L5.07 43.262zm2.21-9.356v-5.458l28.745 6.03c.003 0 .006.003.011.003l1.195.25a.939.939 0 00.806-.206l.521-.447.317.067v6.386L7.281 33.906zm51.495-.81l-20.203 17.2-.005-6.392a.934.934 0 00.786-.209l1.066-.91.473.1a.938.938 0 00.803-.206l17.08-14.597v5.013zm2.191-9.359L40.77 40.929l-.009-6.39a.939.939 0 00.783-.208L60.967 17.74v5.997z" fill="#BFBFBC"/></svg>