<svg width="75" height="75" viewBox="0 0 75 75" fill="none" xmlns="http://www.w3.org/2000/svg">
<circle cx="37.4402" cy="37.1741" r="31" fill="#FF14A1" fill-opacity="0.2"/>
<circle cx="37.4402" cy="37.1741" r="29.8519" stroke="#FF14A1" stroke-opacity="0.8" stroke-width="2.2963"/>
<path opacity="0.8" fill-rule="evenodd" clip-rule="evenodd" d="M28.1347 18.0453C27.6326 18.2753 27.0391 18.0548 26.809 17.5527L25.143 13.9162C24.9129 13.4141 25.1335 12.8206 25.6356 12.5906C26.1377 12.3605 26.7312 12.5811 26.9612 13.0832L28.6273 16.7197C28.8573 17.2218 28.6368 17.8153 28.1347 18.0453ZM18.9288 26.3021C18.5702 26.7222 17.939 26.772 17.5189 26.4134L14.4766 23.8165C14.0565 23.4579 14.0067 22.8267 14.3653 22.4067C14.7238 21.9866 15.355 21.9367 15.7751 22.2953L18.8174 24.8923C19.2375 25.2508 19.2873 25.882 18.9288 26.3021ZM38.44 15.174C37.8877 15.174 37.44 14.7263 37.44 14.174L37.44 10.174C37.44 9.62174 37.8877 9.17402 38.44 9.17402C38.9923 9.17402 39.44 9.62174 39.44 10.174L39.44 14.174C39.44 14.7263 38.9923 15.174 38.44 15.174ZM14.4406 39.174C14.9929 39.174 15.4406 38.7262 15.4406 38.174C15.4406 37.6217 14.9929 37.174 14.4406 37.174L10.4406 37.174C9.88831 37.174 9.44059 37.6217 9.44059 38.174C9.44059 38.7262 9.88831 39.174 10.4406 39.174L14.4406 39.174ZM28.5613 29.8331C28.1708 29.4426 27.5376 29.4426 27.1471 29.8331C26.7566 30.2237 26.7566 30.8568 27.1471 31.2474L36.7329 40.8331C36.9795 41.0798 37.3229 41.1706 37.6408 41.1058C37.7535 41.1498 37.8762 41.174 38.0046 41.174C38.5569 41.174 39.0046 40.7263 39.0046 40.174L39.0046 18.174C39.0046 17.6217 38.5569 17.174 38.0046 17.174C37.4523 17.174 37.0046 17.6217 37.0046 18.174L37.0046 38.2764L28.5613 29.8331ZM64.4406 39.1739C64.9929 39.1739 65.4406 38.7262 65.4406 38.1739C65.4406 37.6217 64.9929 37.1739 64.4406 37.1739L60.4406 37.1739C59.8883 37.1739 59.4406 37.6217 59.4406 38.1739C59.4406 38.7262 59.8883 39.1739 60.4406 39.1739L64.4406 39.1739ZM37.4397 65.174C36.8874 65.174 36.4397 64.7263 36.4397 64.174L36.4397 60.174C36.4397 59.6217 36.8874 59.174 37.4397 59.174C37.992 59.174 38.4397 59.6217 38.4397 60.174L38.4397 64.174C38.4397 64.7263 37.992 65.174 37.4397 65.174ZM48.6259 18.4533C48.2759 18.8805 48.3384 19.5106 48.7656 19.8606C49.1928 20.2107 49.8229 20.1481 50.1729 19.7209L52.7081 16.627C53.0581 16.1998 52.9956 15.5697 52.5684 15.2197C52.1412 14.8696 51.5112 14.9322 51.1611 15.3594L48.6259 18.4533ZM27.938 56.2231C28.3926 56.5366 28.507 57.1594 28.1934 57.614L25.9224 60.9068C25.6089 61.3615 24.9861 61.4759 24.5315 61.1623C24.0768 60.8487 23.9625 60.226 24.276 59.7714L26.547 56.4785C26.8606 56.0239 27.4833 55.9095 27.938 56.2231ZM57.9653 47.3021C57.5453 46.9435 56.9141 46.9934 56.5555 47.4134C56.1969 47.8335 56.2468 48.4647 56.6669 48.8233L59.7092 51.4202C60.1293 51.7788 60.7605 51.7289 61.119 51.3089C61.4776 50.8888 61.4277 50.2576 61.0077 49.899L57.9653 47.3021ZM57.6718 27.5629C57.1744 27.8029 56.9658 28.4008 57.2059 28.8981C57.446 29.3955 58.0438 29.6041 58.5412 29.364L62.1435 27.6251C62.6408 27.385 62.8494 26.7871 62.6093 26.2898C62.3692 25.7924 61.7714 25.5838 61.274 25.8239L57.6718 27.5629ZM18.7796 47.9136C19.06 48.3895 18.9015 49.0025 18.4257 49.2828L14.9794 51.3134C14.5035 51.5937 13.8905 51.4353 13.6102 50.9594C13.3298 50.4836 13.4883 49.8706 13.9641 49.5902L17.4104 47.5597C17.8862 47.2793 18.4992 47.4378 18.7796 47.9136ZM48.6752 56.1628C48.4452 55.6607 47.8517 55.4402 47.3496 55.6702C46.8475 55.9002 46.6269 56.4938 46.857 56.9959L48.5231 60.6324C48.7531 61.1345 49.3466 61.355 49.8487 61.125C50.3508 60.8949 50.5714 60.3014 50.3413 59.7993L48.6752 56.1628Z" fill="#FF1794"/>
</svg>
