<svg xmlns="http://www.w3.org/2000/svg" width="144" height="30" fill="none" viewBox="0 0 144 30"><g clip-path="url(#clip0)"><path fill="#5757F5" d="M10.6879 16.3747L19.2298 29.5368C19.3307 29.6874 19.4696 29.8097 19.6329 29.8917C19.7962 29.9737 19.9783 30.0127 20.1615 30.0048H23.326C23.4688 30.0065 23.6105 29.98 23.7427 29.9271C23.875 29.8742 23.9952 29.7958 24.0963 29.6966C24.1974 29.5974 24.2773 29.4794 24.3314 29.3494C24.3855 29.2194 24.4127 29.0801 24.4114 28.9397V1.06511C24.4092 0.842807 24.3371 0.626611 24.2051 0.446172C24.0731 0.265734 23.8875 0.129889 23.6739 0.057269C23.4603 -0.0153513 23.2291 -0.0211912 23.0119 0.0405503C22.7948 0.102292 22.6024 0.228591 22.4611 0.402127L10.6879 15.095C10.5603 15.2848 10.4923 15.5073 10.4923 15.7348C10.4923 15.9624 10.5603 16.1849 10.6879 16.3747Z"/><path fill="#5757F5" d="M1.08536 30H6.72047C6.86326 30.0016 7.00493 29.9752 7.13721 29.9223C7.26948 29.8693 7.38968 29.791 7.49076 29.6918C7.59185 29.5926 7.67179 29.4745 7.7259 29.3445C7.78 29.2146 7.80719 29.0753 7.80586 28.9348V21.8662C7.80238 21.6442 7.7294 21.4287 7.59687 21.2489C7.46434 21.0692 7.27869 20.934 7.06522 20.8618C6.85175 20.7896 6.62085 20.7839 6.40395 20.8454C6.18705 20.9069 5.99472 21.0328 5.85315 21.2057L0.218042 28.2743C0.0977584 28.4342 0.0246208 28.6237 0.00666455 28.8218C-0.0112917 29.02 0.0266283 29.2191 0.116258 29.3975C0.205888 29.5758 0.34376 29.7264 0.514725 29.8327C0.685691 29.939 0.883134 29.9969 1.08536 30Z"/><path fill="#242A35" d="M101.734 14.1079C101.67 14.0304 101.599 13.9578 101.524 13.891L101.407 13.7935L101.348 13.7423C101.079 13.52 100.787 13.3256 100.478 13.1622C100.142 12.9643 99.7869 12.8009 99.4173 12.6747C99.0393 12.5418 98.6505 12.4407 98.2551 12.3724C97.2339 12.1938 96.1847 12.2463 95.1873 12.526C94.5912 12.6919 94.0185 12.9301 93.4824 13.2353C92.9553 13.5389 92.4698 13.9075 92.0376 14.3321C91.6069 14.7605 91.227 15.2356 90.9052 15.7483C90.578 16.2647 90.3277 16.8245 90.1618 17.4106C89.8099 18.623 89.8099 19.908 90.1618 21.1204C90.3317 21.7044 90.5818 22.2628 90.9052 22.7803C91.227 23.293 91.6069 23.768 92.0376 24.1965C92.4718 24.6216 92.9588 24.991 93.4873 25.2957C94.0249 25.5922 94.5942 25.8293 95.1848 26.0026C96.2076 26.3028 97.2889 26.3555 98.3369 26.1562C98.7398 26.0906 99.1339 25.9802 99.5115 25.8271C99.8735 25.6818 100.224 25.5098 100.56 25.3128C100.893 25.1172 101.215 24.9015 101.521 24.6669C101.609 24.5913 101.692 24.5098 101.769 24.4231L101.809 24.3793C101.882 24.2931 101.937 24.1938 101.972 24.0868L101.987 23.999C101.995 23.8586 101.961 23.719 101.89 23.5968L101.856 23.5432C101.829 23.5001 101.798 23.4593 101.764 23.4213L101.672 23.2995C101.489 23.0557 101.316 22.812 101.13 22.5877C101.051 22.4988 100.953 22.4287 100.842 22.383C100.732 22.3464 100.613 22.3464 100.503 22.383C100.345 22.4522 100.202 22.5488 100.079 22.6682L99.9154 22.8047C99.7543 22.9363 99.6676 23.0216 99.4421 23.1776C99.239 23.3297 99.0196 23.4597 98.7879 23.5652C98.538 23.6905 98.2721 23.7823 97.9974 23.8382C97.0932 24.0307 96.15 23.9334 95.3062 23.5603C94.7637 23.3199 94.2707 22.9837 93.8516 22.5682C93.4216 22.1435 93.0777 21.6423 92.8381 21.0912C92.5833 20.5319 92.4516 19.9259 92.4516 19.313C92.4516 18.7002 92.5833 18.0942 92.8381 17.5349C93.0794 16.981 93.4221 16.4754 93.8491 16.0432C94.2738 15.6251 94.7673 15.2807 95.3087 15.0244C96.0928 14.6585 96.9772 14.5557 97.8264 14.7319C98.1105 14.796 98.3889 14.8824 98.659 14.9902C98.9165 15.0978 99.1651 15.2249 99.4024 15.3705C99.8981 15.6581 100.458 16.482 101.001 15.8287L101.786 14.7904C101.823 14.7406 101.849 14.6842 101.863 14.6243C101.877 14.5644 101.879 14.5023 101.868 14.4418C101.854 14.3208 101.808 14.2056 101.734 14.1079Z"/><path fill="#242A35" d="M53.4121 25.1569L44.8182 5.92304C44.7606 5.78022 44.6609 5.65756 44.532 5.57072C44.4031 5.48389 44.2509 5.43682 44.0946 5.43555H42.7168C42.5628 5.43495 42.412 5.47933 42.2837 5.56308C42.1553 5.64682 42.0551 5.76616 41.9957 5.90598L33.3845 25.1349C33.3253 25.2526 33.2987 25.3835 33.3074 25.5144C33.3161 25.6454 33.3598 25.7718 33.434 25.8808C33.5043 25.9922 33.6025 26.0839 33.7193 26.1471C33.836 26.2103 33.9674 26.2428 34.1006 26.2415H35.3719C35.5268 26.2446 35.679 26.2013 35.8082 26.1173C35.9374 26.0332 36.0376 25.9125 36.0955 25.7711L38.1622 21.0254H48.6072L50.6615 25.7711C50.7193 25.9143 50.8193 26.0372 50.9487 26.1241C51.0781 26.211 51.2309 26.2578 51.3876 26.2586H52.6266C52.7551 26.2666 52.8836 26.243 53.0004 26.1898C53.1173 26.1366 53.2188 26.0555 53.2957 25.9539C53.3862 25.8437 53.4448 25.7114 53.4653 25.5712C53.4858 25.4309 53.4675 25.2877 53.4121 25.1569ZM39.2624 18.5758L39.2971 18.5002L43.4379 9.02103L47.5912 18.5758H39.2624Z"/><path fill="#242A35" d="M132.098 17.1181C131.884 16.3739 131.549 15.6685 131.107 15.0292C130.78 14.5991 130.404 14.2073 129.987 13.8617C129.591 13.5151 129.142 13.2321 128.656 13.0232C128.182 12.7903 127.683 12.6089 127.169 12.4821C126.02 12.2039 124.817 12.2266 123.68 12.5479C123.096 12.7075 122.537 12.9453 122.02 13.2548C121.508 13.5685 121.034 13.9399 120.61 14.3614C120.192 14.7825 119.839 15.2602 119.559 15.78C119.262 16.3092 119.035 16.8736 118.882 17.4594C118.617 18.3921 118.565 19.3708 118.729 20.3258C118.771 20.699 118.844 21.0682 118.947 21.4299C119.16 22.1759 119.495 22.883 119.938 23.5237C120.265 23.9531 120.641 24.3441 121.058 24.6888C121.455 25.0359 121.905 25.3196 122.391 25.5297C122.865 25.7629 123.364 25.9436 123.878 26.0684C125.63 26.4897 127.481 26.2119 129.025 25.2957C129.537 24.9826 130.01 24.6121 130.435 24.1916C130.84 23.7871 131.182 23.3254 131.449 22.8217L131.471 22.773C131.521 22.7067 131.551 22.628 131.558 22.5457C131.565 22.4635 131.549 22.381 131.511 22.3074C131.48 22.2515 131.434 22.2045 131.379 22.1712C131.324 22.1378 131.261 22.1193 131.196 22.1173H129.142C129.055 22.1153 128.969 22.1329 128.89 22.1689C128.812 22.2048 128.742 22.258 128.688 22.3245C128.429 22.6332 128.127 22.904 127.791 23.1288C127.431 23.355 127.04 23.5282 126.629 23.6431C125.717 23.9029 124.746 23.8756 123.851 23.5651C123.374 23.395 122.927 23.155 122.523 22.8534C122.13 22.547 121.804 22.1667 121.564 21.7346C121.353 21.2676 121.204 20.7762 121.12 20.2722L121.108 20.2088H121.177L131.734 20.1868C132.167 20.1868 132.413 19.9236 132.413 19.4556C132.441 18.6646 132.335 17.8745 132.098 17.1181ZM129.85 18.037L121.308 18.076L121.331 18.0053C121.473 17.5309 121.686 17.0799 121.963 16.6672C122.3 16.1772 122.729 15.7546 123.226 15.4217C123.589 15.1929 123.984 15.018 124.399 14.9025C125.31 14.6427 126.281 14.67 127.176 14.9805C127.653 15.1507 128.101 15.3906 128.505 15.6922C128.899 16.0003 129.226 16.3833 129.466 16.8183C129.675 17.1771 129.825 17.5662 129.91 17.9712L129.925 18.037H129.85Z"/><path fill="#242A35" d="M68.5778 24.1794C69.0031 23.7513 69.3764 23.276 69.6904 22.7633C70.0011 22.2361 70.2434 21.6727 70.4115 21.0863C70.761 19.8744 70.761 18.5908 70.4115 17.379C70.2434 16.7925 70.0011 16.2291 69.6904 15.702C69.0683 14.6611 68.1864 13.7936 67.1281 13.1817C66.5982 12.8797 66.0333 12.6416 65.4455 12.4724C63.9294 12.0408 62.308 12.1407 60.8586 12.7551C60.2486 13.0281 59.6792 13.3815 59.1661 13.8057L59.0744 13.8812V13.1305C59.0851 13.0375 59.0744 12.9432 59.0429 12.8549C59.0114 12.7665 58.96 12.6863 58.8926 12.6202C58.8251 12.5541 58.7434 12.5039 58.6534 12.4732C58.5635 12.4425 58.4677 12.4323 58.3731 12.4431H57.2927C57.1972 12.4319 57.1003 12.4418 57.0092 12.472C56.918 12.5022 56.8349 12.5521 56.7658 12.618C56.6967 12.6838 56.6434 12.764 56.6098 12.8526C56.5762 12.9413 56.5632 13.0362 56.5716 13.1305V29.3102C56.5686 29.3997 56.5839 29.489 56.6167 29.5725C56.6495 29.6561 56.699 29.7323 56.7624 29.7967C56.8257 29.8611 56.9016 29.9122 56.9855 29.9472C57.0693 29.9821 57.1595 30.0001 57.2506 30H58.3533C58.5473 30.0057 58.7358 29.9366 58.8786 29.8074C58.9431 29.7435 58.9937 29.6673 59.0274 29.5835C59.061 29.4997 59.077 29.41 59.0744 29.32V24.5913L59.1661 24.6669C59.672 25.0857 60.235 25.4328 60.8388 25.6979C62.2874 26.3122 63.908 26.4121 65.4232 25.9807C66.0194 25.8153 66.5922 25.577 67.1281 25.2714C67.6573 24.9706 68.1446 24.6036 68.5778 24.1794ZM65.2993 23.5018C64.7505 23.7529 64.1526 23.8831 63.5473 23.8831C62.942 23.8831 62.3441 23.7529 61.7953 23.5018C61.2443 23.2578 60.7494 22.9062 60.3407 22.4683C59.921 22.0353 59.5851 21.5306 59.3495 20.979C59.1115 20.4206 58.989 19.8211 58.989 19.2156C58.989 18.61 59.1115 18.0106 59.3495 17.4521C59.5887 16.9104 59.9244 16.4151 60.3407 15.9896C60.7573 15.5657 61.2506 15.2218 61.7953 14.9756C62.3439 14.7252 62.9413 14.5954 63.5461 14.5954C64.1508 14.5954 64.7483 14.7252 65.2968 14.9756C65.8335 15.2244 66.3197 15.5672 66.7316 15.9872C67.141 16.4141 67.47 16.9093 67.703 17.4496C67.9422 18.0074 68.0655 18.6066 68.0655 19.2119C68.0655 19.8172 67.9422 20.4164 67.703 20.9742C67.4653 21.5228 67.1361 22.0286 66.7291 22.4708C66.325 22.9024 65.8394 23.2526 65.2993 23.5018Z"/><path fill="#242A35" d="M75.3851 12.4626H74.3047C74.208 12.451 74.1099 12.4611 74.0178 12.492C73.9256 12.5229 73.8418 12.5739 73.7724 12.6412C73.7031 12.7084 73.6501 12.7902 73.6174 12.8804C73.5847 12.9706 73.5731 13.0669 73.5835 13.1621V29.3199C73.5813 29.4099 73.5975 29.4995 73.6312 29.5832C73.6648 29.6669 73.7152 29.7432 73.7793 29.8074C73.8427 29.8696 73.9182 29.9186 74.0011 29.9517C74.0841 29.9848 74.173 30.0012 74.2625 30H75.3628C75.5567 30.0057 75.7453 29.9366 75.8881 29.8074C75.9531 29.7438 76.004 29.6676 76.0377 29.5837C76.0714 29.4999 76.0871 29.4101 76.0839 29.3199V24.5913L76.1756 24.6668C76.6819 25.0863 77.2459 25.4334 77.8508 25.6979C79.2993 26.3123 80.9199 26.4123 82.4351 25.9806C83.0312 25.8148 83.6039 25.5765 84.1401 25.2713C84.6689 24.9652 85.156 24.5942 85.5897 24.1672C86.0143 23.739 86.3868 23.2638 86.6999 22.751C87.0106 22.2239 87.2528 21.6605 87.421 21.0741C87.7728 19.8625 87.7728 18.5783 87.421 17.3667C87.2533 16.7801 87.011 16.2167 86.6999 15.6898C86.0794 14.6485 85.1981 13.7808 84.1401 13.1694C83.609 12.8679 83.0433 12.6298 82.455 12.4602C80.9389 12.0287 79.3175 12.1287 77.8681 12.7429C77.258 13.0159 76.6886 13.3693 76.1756 13.7934L76.0765 13.8934V13.1621C76.0889 13.0691 76.0798 12.9744 76.0498 12.8853C76.0198 12.7962 75.9696 12.7149 75.9031 12.6476C75.8365 12.5803 75.7554 12.5287 75.6657 12.4966C75.576 12.4646 75.48 12.453 75.3851 12.4626ZM76.3614 17.4691C76.6011 16.9277 76.9367 16.4325 77.3527 16.0066C77.7671 15.5799 78.2587 15.2328 78.8023 14.9829C79.3509 14.7325 79.9483 14.6027 80.5531 14.6027C81.1578 14.6027 81.7553 14.7325 82.3038 14.9829C82.8475 15.2309 83.3404 15.5745 83.7584 15.9969C84.1678 16.4239 84.4967 16.9191 84.7298 17.4593C84.9696 18.0169 85.0931 18.6162 85.0931 19.2216C85.0931 19.827 84.9696 20.4263 84.7298 20.9839C84.4946 21.5346 84.1652 22.0416 83.7559 22.4829C83.3515 22.9142 82.8659 23.2643 82.3261 23.5139C81.7767 23.7645 81.1784 23.8943 80.5729 23.8943C79.9673 23.8943 79.3691 23.7645 78.8197 23.5139C78.2699 23.2691 77.776 22.9176 77.3675 22.4805C76.9473 22.0478 76.6113 21.5431 76.3763 20.9912C76.137 20.4343 76.0124 19.8362 76.0099 19.2316C76.0073 18.627 76.1268 18.0279 76.3614 17.4691Z"/><path fill="#242A35" d="M115.973 12.9623C115.983 12.8677 115.971 12.7722 115.938 12.6829C115.905 12.5935 115.851 12.5128 115.782 12.4466C115.713 12.3804 115.629 12.3306 115.537 12.3009C115.445 12.2711 115.348 12.2623 115.252 12.2749H114.164C114.07 12.2641 113.974 12.2743 113.884 12.305C113.794 12.3356 113.712 12.3859 113.645 12.452C113.577 12.5181 113.526 12.5983 113.494 12.6867C113.463 12.775 113.452 12.8693 113.463 12.9623V20.7182C113.472 21.1727 113.372 21.6228 113.17 22.032C112.998 22.4063 112.744 22.739 112.427 23.007C112.118 23.2579 111.769 23.4565 111.394 23.5944C110.973 23.7478 110.525 23.8152 110.076 23.7926C109.628 23.77 109.189 23.6578 108.787 23.4628C108.405 23.2685 108.074 22.9898 107.82 22.6487C107.567 22.324 107.387 21.9501 107.292 21.5518C107.189 21.1468 107.134 20.7312 107.129 20.3136V13.1622C107.141 12.9283 107.085 12.6959 106.968 12.4919C106.88 12.4028 106.772 12.3346 106.653 12.2923C106.534 12.2501 106.407 12.235 106.281 12.2481H105.498C105.382 12.2443 105.266 12.264 105.157 12.3059C105.048 12.3478 104.949 12.4111 104.866 12.4919C104.78 12.5871 104.713 12.6985 104.67 12.8195C104.628 12.9404 104.61 13.0685 104.619 13.1963V20.3355C104.61 21.1153 104.728 21.8915 104.971 22.634C105.199 23.3257 105.559 23.9678 106.034 24.5255C106.507 25.0713 107.1 25.5046 107.768 25.793C108.93 26.2587 110.205 26.3782 111.436 26.1366C111.768 26.0579 112.093 25.9494 112.405 25.8125C112.696 25.6796 112.965 25.5055 113.205 25.2957L113.376 25.1397L113.47 25.0495V25.5931C113.468 25.6732 113.482 25.7529 113.512 25.8274C113.542 25.902 113.587 25.9699 113.644 26.027C113.709 26.1069 113.793 26.1707 113.888 26.213C113.983 26.2553 114.087 26.2751 114.191 26.2707H115.292C115.381 26.2725 115.47 26.2566 115.553 26.2239C115.636 26.1913 115.711 26.1425 115.775 26.0806C115.844 26.0201 115.898 25.9446 115.933 25.8599C115.967 25.7753 115.981 25.6839 115.973 25.5931V12.9623Z"/><path fill="#242A35" d="M143.636 20.5526C143.406 20.0813 143.075 19.6653 142.664 19.3339C142.215 18.9737 141.714 18.6805 141.178 18.4637C140.571 18.216 139.942 18.025 139.299 17.8933C138.986 17.8234 138.677 17.7314 138.377 17.6179C138.106 17.5206 137.848 17.3913 137.609 17.2328C137.286 17.041 137.036 16.7509 136.895 16.4065C136.814 16.1536 136.814 15.8819 136.895 15.629C136.982 15.3438 137.349 14.5589 138.766 14.4712C140.122 14.3883 140.803 15.0878 141.039 15.3998C141.073 15.4437 141.405 15.8654 141.643 16.1311C141.686 16.1692 141.734 16.2019 141.785 16.2286C141.882 16.2656 141.987 16.2781 142.091 16.2649C142.194 16.2517 142.292 16.2133 142.377 16.153L143.205 15.5485C143.295 15.4957 143.369 15.4207 143.421 15.331C143.473 15.2412 143.5 15.1398 143.499 15.0367V15.0123C143.463 14.8557 143.399 14.7064 143.311 14.5711C143.067 14.2264 142.802 13.896 142.518 13.5815C142.266 13.2889 141.97 13.035 141.641 12.8283C141.3 12.6203 140.929 12.4634 140.541 12.3628C139.435 12.0873 138.271 12.1313 137.19 12.4895C136.645 12.6501 136.138 12.9198 135.703 13.2817C135.288 13.6208 134.955 14.0473 134.73 14.5297C134.505 15.0125 134.385 15.5359 134.378 16.0667C134.37 16.5976 134.475 17.1242 134.685 17.613C134.888 18.0571 135.189 18.4516 135.565 18.7684C135.97 19.1096 136.415 19.4017 136.89 19.6385C137.448 19.8962 138.029 20.1035 138.625 20.2577C138.801 20.2967 138.977 20.343 139.16 20.3917C139.344 20.4405 139.522 20.4868 139.703 20.5282C140.023 20.6044 140.334 20.7173 140.627 20.8646C140.874 20.9805 141.093 21.1467 141.269 21.3521C141.424 21.5756 141.504 21.8406 141.499 22.1107C141.494 22.3808 141.404 22.6429 141.242 22.8608C141.062 23.0879 140.84 23.2797 140.588 23.4263C140.33 23.5739 140.052 23.6855 139.763 23.7578C139.273 23.8664 138.765 23.8664 138.276 23.7578C138.019 23.6925 137.77 23.601 137.532 23.4848C137.292 23.3667 137.068 23.2193 136.866 23.0461C136.681 22.8438 136.521 22.6213 136.387 22.3831C136.325 22.2411 136.231 22.1146 136.112 22.0126C136.018 21.9353 135.903 21.8869 135.781 21.8735C135.659 21.86 135.535 21.8821 135.426 21.9371L134.435 22.3977C134.351 22.4325 134.275 22.4821 134.209 22.544C134.155 22.5968 134.112 22.6587 134.08 22.7268C134.042 22.8238 134.033 22.9297 134.056 23.0315C134.066 23.1339 134.091 23.2341 134.132 23.3288C134.304 23.7708 134.548 24.1825 134.854 24.5475C135.193 24.9458 135.607 25.2766 136.073 25.5225C136.507 25.778 136.981 25.9631 137.475 26.0709C138.611 26.3356 139.798 26.2986 140.915 25.9637C141.505 25.8018 142.056 25.5268 142.538 25.1545C143.002 24.8096 143.376 24.3598 143.626 23.8431C143.871 23.3285 143.999 22.7673 144.001 22.1989C144.003 21.6305 143.878 21.0686 143.636 20.5526Z"/></g><defs><clipPath id="clip0"><rect width="144" height="30" fill="#fff"/></clipPath></defs></svg>