<svg xmlns="http://www.w3.org/2000/svg" height="50" fill="#61C685" display="block" role="img" viewBox="0 0 403 158"><title>Feedr Logo</title><defs><radialGradient id="rainbow" gradientTransform="translate(-67 -600) scale(2.2 8)" gradientUnits="userSpaceOnUse"><stop offset="13%" stop-color="#86328b"/><stop offset="13%" stop-color="#2c72b6"/><stop offset="40%" stop-color="#2c72b6"/><stop offset="40%" stop-color="#90c054"/><stop offset="55%" stop-color="#90c054"/><stop offset="55%" stop-color="#fbdd4b"/><stop offset="73%" stop-color="#fbdd4b"/><stop offset="73%" stop-color="#ea983f"/><stop offset="100%" stop-color="#ea983f"/><stop offset="100%" stop-color="#db3832"/></radialGradient></defs><g><path fill-rule="evenodd" d="M33.9115 1.34128C36.2962 0.446585 38.8753 0 41.4578 0C44.442 0 47.4278 0.594937 50.1188 1.77717C67.6678 9.00052 78.5823 48.566 79.7715 62.4102C79.9238 64.1888 80 65.94 80 67.653C80 84.3097 72.8522 97.7025 59.9383 104.876C46.937 112.099 30.4315 111.654 17.8887 103.744C4.14535 95.0767 -2.14064 79.2352 0.649168 60.2767C2.67266 46.5212 15.9575 7.60723 33.9115 1.34128ZM22.2693 97.5435C27.5525 100.875 33.7153 102.552 39.8847 102.552C45.4417 102.552 51.0052 101.191 55.9383 98.4505C62.7168 94.6867 73.8032 85.0728 71.906 63.0128C71.3455 56.4502 68.4988 43.9243 63.5852 31.9308C58.4105 19.304 52.3433 10.7991 46.9387 8.59828C46.8982 8.58298 46.8608 8.56617 46.8237 8.55087C43.7682 7.19582 39.9268 7.09182 36.7952 8.28017C36.7563 8.29393 36.7175 8.30922 36.677 8.32298C31.1492 10.2286 24.5763 18.391 18.6502 30.7195C13.0202 42.4285 9.42363 54.7815 8.46453 61.3013C8.05301 64.1108 7.86346 66.7277 7.86346 69.164C7.86346 85.7412 16.5683 93.9478 22.2693 97.5435ZM38.681 46.5595C39.2577 46.3117 39.8945 46.1893 40.5328 46.1893C41.2618 46.1893 41.9892 46.35 42.6292 46.6665L42.754 46.7247C46.8608 48.592 51.3762 55.378 52.0613 64.744C52.6317 72.5042 50.1448 78.501 45.2423 81.1988C41.7105 83.1427 37.3978 83.028 33.9908 80.896C30.0458 78.4307 27.9155 73.766 27.9155 67.8135C27.9155 66.6252 28.0013 65.3833 28.1747 64.1017C29.4237 54.7892 34.3423 48.254 38.5562 46.61C38.5983 46.5947 38.6405 46.5778 38.681 46.5595Z" clip-rule="evenodd"/><path fill-rule="evenodd" d="M116.602 41.1534H132.481V49.3839H116.602V105.353H107.162V49.3839H93V41.1534H107.162V23.5949C107.162 15.0893 109.211 9.03218 113.312 5.41751C117.412 1.80732 122.847 0 129.621 0C130.953 0 132.314 0.0922257 133.696 0.273702C135.078 0.458154 136.437 0.685743 137.774 0.959444L136.057 9.19134C134.913 8.91615 133.719 8.68856 132.481 8.50559C131.24 8.32262 129.999 8.2304 128.762 8.2304C126.187 8.2304 124.088 8.64245 122.467 9.46504C120.844 10.2876 119.607 11.4538 118.749 12.9637C117.89 14.472 117.317 16.2332 117.032 18.2443C116.745 20.2569 116.602 22.4064 116.602 24.6912V41.1534ZM342.043 1.6449H351.486V105.353H342.043V94.6531H341.758C340.231 96.8486 338.419 98.7229 336.321 100.277C334.223 101.833 332.031 103.114 329.741 104.118C327.454 105.127 325.092 105.854 322.661 106.314C320.227 106.77 317.916 106.999 315.724 106.999C310.477 106.999 305.684 106.153 301.346 104.462C297.006 102.77 293.265 100.414 290.117 97.3959C286.97 94.3794 284.514 90.8123 282.75 86.6963C280.984 82.5803 280.105 78.1016 280.105 73.2521C280.105 68.4074 280.984 63.9241 282.75 59.8096C284.514 55.6937 286.97 52.1281 290.117 49.1098C293.265 46.0918 297.006 43.7385 301.346 42.0442C305.684 40.3544 310.477 39.5065 315.724 39.5065C317.916 39.5065 320.227 39.7372 322.661 40.1923C325.092 40.6519 327.454 41.3823 329.741 42.3879C332.031 43.3949 334.223 44.6742 336.321 46.2285C338.419 47.7845 340.231 49.6587 341.758 51.8529H342.043V1.6449ZM374.961 105.353H365.521V61.1817C365.521 58.3481 365.451 55.4666 365.308 52.5393C365.165 49.6134 365.043 45.8188 364.95 41.1539H374.248V53.0882H374.535C375.2 51.3523 376.155 49.6833 377.395 48.0811C378.633 46.4822 380.135 45.0422 381.9 43.76C383.665 42.4807 385.715 41.4513 388.052 40.6734C390.387 39.8983 393.033 39.5071 395.992 39.5071C398.658 39.5071 400.998 39.7823 403 40.3314L401.14 49.2474C399.9 48.7907 398.088 48.5616 395.705 48.5616C392.078 48.5616 388.982 49.2265 386.407 50.5505C383.831 51.8773 381.686 53.5687 379.97 55.6258C378.253 57.6845 376.988 59.9024 376.18 62.2795C375.366 64.6596 374.961 66.9428 374.961 69.1385V105.353ZM292.192 63.2383C293.384 60.131 295.077 57.4326 297.272 55.1463C299.464 52.86 302.111 51.0541 305.211 49.7258C308.307 48.402 311.814 47.7384 315.726 47.7384C319.537 47.7384 323.092 48.402 326.381 49.7258C329.671 51.0541 332.508 52.86 334.893 55.1463C337.276 57.4326 339.134 60.131 340.473 63.2383C341.806 66.3487 342.474 69.6867 342.474 73.2523C342.474 76.8192 341.806 80.1588 340.473 83.2676C339.134 86.378 337.276 89.0764 334.893 91.3612C332.508 93.6474 329.671 95.4549 326.381 96.7787C323.092 98.1057 319.537 98.7691 315.726 98.7691C311.814 98.7691 308.307 98.1057 305.211 96.7787C302.111 95.4549 299.464 93.6474 297.272 91.3612C295.077 89.0764 293.384 86.378 292.192 83.2676C291 80.1588 290.404 76.8192 290.404 73.2523C290.404 69.6867 291 66.3487 292.192 63.2383ZM273.522 71.6077V75.7237H217.735C218.021 78.9248 218.83 81.9429 220.166 84.7767C221.5 87.6133 223.263 90.0588 225.458 92.116C227.651 94.1733 230.18 95.7991 233.04 96.9862C235.903 98.1747 239 98.7697 242.338 98.7697C247.392 98.7697 251.755 97.6496 255.427 95.4079C259.098 93.1691 261.887 90.5854 263.795 87.658L271.092 93.4191C267.087 98.2668 262.673 101.742 257.858 103.845C253.042 105.947 247.868 107 242.338 107C237.38 107 232.777 106.154 228.535 104.462C224.29 102.771 220.643 100.415 217.591 97.3966C214.538 94.3801 212.131 90.813 210.368 86.697C208.601 82.581 207.721 78.1022 207.721 73.2528C207.721 68.4081 208.58 63.9248 210.296 59.8103C212.013 55.6943 214.395 52.1287 217.448 49.1105C220.5 46.0924 224.075 43.7391 228.178 42.0449C232.277 40.3551 236.71 39.5071 241.48 39.5071C246.533 39.5071 251.065 40.3773 255.07 42.1134C259.075 43.8521 262.438 46.1608 265.154 49.0421C267.874 51.9219 269.947 55.3061 271.377 59.1929C272.807 63.0813 273.522 67.218 273.522 71.6077ZM218.021 68.3153C218.021 65.663 218.665 63.1015 219.951 60.6337C221.24 58.163 222.955 55.9689 225.101 54.0485C227.246 52.1281 229.75 50.5975 232.612 49.4521C235.473 48.3097 238.427 47.7384 241.48 47.7384C248.347 47.7384 253.687 49.6365 257.502 53.4311C261.315 57.2258 263.223 62.1882 263.223 68.3153H218.021ZM200.001 71.6077V75.7237H144.213C144.498 78.9248 145.308 81.9429 146.645 84.7767C147.979 87.6133 149.742 90.0588 151.937 92.116C154.129 94.1733 156.657 95.7991 159.518 96.9862C162.38 98.1747 165.477 98.7697 168.817 98.7697C173.871 98.7697 178.233 97.6496 181.906 95.4079C185.576 93.1691 188.366 90.5854 190.274 87.658L197.569 93.4191C193.564 98.2668 189.151 101.742 184.338 103.845C179.519 105.947 174.346 107 168.817 107C163.856 107 159.256 106.154 155.013 104.462C150.768 102.771 147.121 100.415 144.07 97.3966C141.016 94.3801 138.608 90.813 136.846 86.697C135.079 82.581 134.198 78.1022 134.198 73.2528C134.198 68.4081 135.058 63.9248 136.773 59.8103C138.49 55.6943 140.873 52.1287 143.926 49.1105C146.978 46.0924 150.554 43.7391 154.655 42.0449C158.755 40.3551 163.189 39.5071 167.957 39.5071C173.013 39.5071 177.543 40.3773 181.549 42.1134C185.554 43.8521 188.914 46.1608 191.633 49.0421C194.349 51.9219 196.424 55.3061 197.856 59.1929C199.286 63.0813 200.001 67.218 200.001 71.6077ZM144.498 68.3153C144.498 65.663 145.142 63.1015 146.429 60.6337C147.717 58.163 149.434 55.9689 151.579 54.0485C153.726 52.1281 156.228 50.5975 159.09 49.4521C161.95 48.3097 164.905 47.7384 167.957 47.7384C174.824 47.7384 180.164 49.6365 183.979 53.4311C187.793 57.2258 189.701 62.1882 189.701 68.3153H144.498Z" clip-rule="evenodd"/></g><path d="M246.042 151.001V148.157C247.05 150.029 249.066 151.505 251.946 151.505C256.95 151.505 259.866 147.509 259.866 142.361C259.866 137.321 257.13 133.253 252.018 133.253C248.922 133.253 246.906 134.945 246.114 136.565V124.973H243.234V151.001H246.042ZM251.514 148.913C248.202 148.913 246.042 146.177 246.042 142.361C246.042 138.545 248.166 135.845 251.514 135.845C254.862 135.845 256.986 138.545 256.986 142.361C256.986 146.177 254.826 148.913 251.514 148.913Z"/><path d="M268.052 157.841L279.104 133.757H275.972L270.608 145.961L264.92 133.757H261.608L269.024 148.949L264.848 157.841H268.052Z"/><path d="M292.602 140.705C292.782 138.149 294.798 135.809 297.786 135.809C301.062 135.809 302.826 137.969 302.898 140.705H292.602ZM303.294 145.205C302.61 147.257 301.026 148.913 298.11 148.913C295.014 148.913 292.53 146.573 292.53 143.297V143.153H305.814C305.85 142.901 305.886 142.505 305.886 142.145C305.886 136.889 302.97 133.253 297.75 133.253C293.394 133.253 289.578 136.889 289.578 142.325C289.578 148.121 293.502 151.505 298.11 151.505C302.106 151.505 304.806 149.093 305.778 146.105L303.294 145.205Z"/><path d="M309.018 146.429C309.018 149.057 311.142 151.505 314.706 151.505C317.802 151.505 319.674 149.813 320.43 148.409C320.43 149.741 320.574 150.605 320.646 151.001H323.454C323.346 150.461 323.238 149.561 323.238 148.121V139.409C323.238 136.061 321.186 133.253 316.29 133.253C312.582 133.253 309.702 135.485 309.342 138.761L312.078 139.409C312.33 137.213 313.842 135.701 316.362 135.701C319.062 135.701 320.358 137.177 320.358 139.121C320.358 139.877 320.07 140.417 318.81 140.597L314.166 141.281C311.142 141.713 309.018 143.405 309.018 146.429ZM315.066 149.057C313.086 149.057 311.898 147.689 311.898 146.285C311.898 144.593 313.086 143.657 314.742 143.405L320.358 142.577V143.729C320.358 147.401 318.054 149.057 315.066 149.057Z"/><path d="M332.699 128.285H329.999V131.129C329.999 132.749 329.243 133.757 327.479 133.757H326.363V136.349H329.819V146.285C329.819 149.417 331.655 151.181 334.499 151.181C335.615 151.181 336.443 150.965 336.767 150.857V148.409C336.479 148.481 335.831 148.589 335.327 148.589C333.491 148.589 332.699 147.689 332.699 145.889V136.349H336.767V133.757H332.699V128.285Z"/><path d="M349.363 136.349V133.757H344.899V130.625C344.899 128.141 346.483 127.385 347.887 127.385C348.715 127.385 349.183 127.529 349.435 127.637V125.153C349.183 125.009 348.499 124.793 347.455 124.793C344.395 124.793 342.019 126.773 342.019 130.553V133.757H338.635V136.349H342.019V151.001H344.899V136.349H349.363Z"/><path d="M355.767 151.001V133.757H352.887V151.001H355.767ZM352.167 126.953C352.167 128.141 353.139 129.113 354.327 129.113C355.515 129.113 356.487 128.141 356.487 126.953C356.487 125.765 355.515 124.793 354.327 124.793C353.139 124.793 352.167 125.765 352.167 126.953Z"/><path d="M370.647 133.649C370.395 133.577 369.891 133.505 369.423 133.505C367.515 133.505 365.319 134.333 364.203 136.853V133.757H361.395V151.001H364.275V142.073C364.275 138.185 366.255 136.529 369.135 136.529C369.639 136.529 370.179 136.565 370.647 136.709V133.649Z"/><path d="M372.647 146.465C372.935 148.625 374.987 151.505 379.523 151.505C383.627 151.505 385.751 148.769 385.751 146.285C385.751 143.729 384.095 141.965 381.071 141.281L378.263 140.633C376.751 140.273 375.995 139.517 375.995 138.293C375.995 136.853 377.399 135.701 379.199 135.701C381.935 135.701 382.835 137.609 383.051 138.797L385.607 137.861C385.211 136.097 383.663 133.253 379.199 133.253C375.923 133.253 373.187 135.593 373.187 138.473C373.187 140.957 374.843 142.649 377.471 143.261L380.279 143.909C381.863 144.269 382.907 145.133 382.907 146.429C382.907 147.905 381.611 149.057 379.559 149.057C376.967 149.057 375.491 147.545 375.239 145.565L372.647 146.465Z"/><path d="M394.363 128.285H391.663V131.129C391.663 132.749 390.907 133.757 389.143 133.757H388.027V136.349H391.484V146.285C391.484 149.417 393.319 151.181 396.163 151.181C397.279 151.181 398.108 150.965 398.432 150.857V148.409C398.144 148.481 397.496 148.589 396.992 148.589C395.156 148.589 394.363 147.689 394.363 145.889V136.349H398.432V133.757H394.363V128.285Z"/></svg>