<svg fill="none" xmlns="http://www.w3.org/2000/svg" viewBox="0 0 158 54"><g clip-path="url(#a)" fill="currentColor"><path d="M51.501 18.387c1.553-4.84.62-14.507-2.392-18.073-.393-.467-1.133-.4-1.46.113l-3.71 5.827a2.854 2.854 0 0 1-3.812.62A25.494 25.494 0 0 0 26.12 2.707c-5.171 0-9.982 1.533-14.006 4.167a2.861 2.861 0 0 1-3.812-.62L4.592.427c-.327-.513-1.067-.58-1.46-.113C.121 3.88-.812 13.547.74 18.387c.513 1.607.66 3.307.353 4.966-.3 1.64-.606 3.627-.606 5C.487 42.514 11.967 54 26.121 54c14.16 0 25.634-11.48 25.634-25.646 0-1.38-.3-3.36-.607-5-.306-1.66-.16-3.36.353-4.967Zm-25.38 29.88c-10.941 0-19.844-8.907-19.844-19.854 0-.36.014-.713.027-1.066.4-7.46 4.924-13.84 11.334-16.88a19.654 19.654 0 0 1 8.483-1.907c3.032 0 5.91.687 8.489 1.914 6.41 3.04 10.934 9.42 11.334 16.873.02.353.027.707.027 1.066-.007 10.947-8.91 19.854-19.85 19.854Z"/><path d="m34.716 36.053-5.07-8.793-4.352-7.333a.565.565 0 0 0-.493-.28h-4.158a.569.569 0 0 0-.486.86l4.157 7-5.583 8.52a.578.578 0 0 0-.027.586c.1.187.293.3.5.3h4.184c.194 0 .373-.1.48-.26l3.019-4.72 2.705 4.694c.1.18.293.286.493.286h4.125a.557.557 0 0 0 .492-.286c.12-.18.12-.394.014-.574ZM71.29 15.973h4.372v24.013h-4.371v-10.24h-4.944V39.98h-4.371V15.973h4.37V26.4h4.945V15.973ZM89.168 39.98l-.913-4.987h-5.25l-.84 4.987h-4.371l4.83-24.007h5.898l5.057 24.014h-4.411v-.007Zm-5.59-8.293h4.07l-2.091-11.494-1.98 11.494ZM103.315 35.606v-5.14c0-.406-.074-.68-.227-.82-.153-.14-.433-.206-.839-.206h-3.08c-2.61 0-3.917-1.267-3.917-3.807v-5.9c0-2.513 1.366-3.766 4.105-3.766h4.184c2.739 0 4.105 1.253 4.105 3.766v3.347h-4.411v-2.74c0-.407-.074-.68-.227-.82-.153-.14-.433-.207-.839-.207h-1.446c-.434 0-.72.074-.873.207-.153.133-.227.413-.227.82v4.833c0 .407.073.68.227.82.153.14.446.207.873.207h3.005c2.665 0 3.991 1.247 3.991 3.727v6.28c0 2.513-1.379 3.766-4.145 3.766h-4.11c-2.766 0-4.145-1.253-4.145-3.766v-3.314h4.37v2.7c0 .407.074.68.227.82.154.14.447.207.873.207h1.446c.406 0 .686-.067.84-.207.16-.127.24-.4.24-.806ZM119.399 15.973h4.372V36.22c0 2.513-1.38 3.767-4.145 3.767h-4.637c-2.766 0-4.145-1.254-4.145-3.767V15.973h4.371v19.633c0 .407.073.68.227.82.153.14.433.207.839.207h2.019c.433 0 .72-.066.873-.206.153-.14.226-.414.226-.82V15.972ZM131.761 30.62v9.36h-4.371V15.973h8.822c2.765 0 4.144 1.254 4.144 3.767v7.113c0 2.08-.926 3.3-2.778 3.654l3.991 9.473h-4.718l-3.651-9.36h-1.439Zm0-11.3v8.067h3.158c.406 0 .686-.067.84-.207.153-.14.226-.413.226-.82v-6.013c0-.407-.073-.68-.226-.82-.154-.14-.434-.207-.84-.207h-3.158ZM153.589 39.98l-.913-4.987h-5.25l-.833 4.987h-4.371l4.83-24.013h5.897l5.058 24.013h-4.418Zm-5.59-8.293h4.071l-2.092-11.494-1.979 11.494Z"/></g><defs><clipPath id="a"><path fill="currentColor" d="M0 0h158v54H0z"/></clipPath></defs></svg>