<svg xmlns="http://www.w3.org/2000/svg" width="145" height="52" fill="none" viewBox="0 0 145 52"><path fill="#000" fill-rule="evenodd" d="M53.8778 30.6193C53.8778 31.1482 53.4883 31.583 52.9342 31.583C52.3952 31.583 52.0057 31.1472 52.0057 30.6193V21.4307C52.0057 20.9017 52.3952 20.4669 52.9493 20.4669C53.4883 20.4669 53.8778 20.9027 53.8778 21.4307V30.6193Z" clip-rule="evenodd"/><path fill="#000" fill-rule="evenodd" d="M65.978 21.4306V29.8269C65.978 30.962 65.3942 31.5998 64.4657 31.5998H64.3913C63.5079 31.5998 63.088 31.0709 62.714 30.2934L60.8269 26.484L59.1496 22.5508L59.1947 26.3602L59.2098 30.6044C59.2098 31.1333 58.8207 31.5681 58.2662 31.5681C57.7272 31.5681 57.3381 31.1323 57.3381 30.6044V22.2081C57.3381 21.1662 57.9219 20.4352 58.9407 20.4352H59.0155C59.959 20.4352 60.348 20.9641 60.7229 21.7416L62.5794 25.5203L64.1669 29.19L64.1222 25.6758L64.1072 21.4316C64.1072 20.9027 64.4962 20.4679 65.0507 20.4679C65.5885 20.4669 65.978 20.9017 65.978 21.4306Z" clip-rule="evenodd"/><path fill="#000" fill-rule="evenodd" d="M73.4812 30.6046C73.4812 31.1335 73.0922 31.5683 72.5377 31.5683C71.999 31.5683 71.6096 31.1325 71.6096 30.6046V22.2865H69.2883C68.8094 22.2865 68.4204 21.9131 68.4204 21.3693C68.4204 20.8404 68.8094 20.468 69.2883 20.468H75.8025C76.2813 20.468 76.6708 20.8414 76.6708 21.3852C76.6708 21.9141 76.2813 22.2865 75.8025 22.2865H73.4812V30.6046Z" clip-rule="evenodd"/><path fill="#000" fill-rule="evenodd" d="M79.1119 30.2935V21.6645C79.1119 20.8562 79.546 20.4056 80.34 20.4363H85.7313C86.2102 20.4363 86.5992 20.8245 86.5992 21.3535C86.5992 21.8824 86.2102 22.2548 85.7313 22.2548H80.9685V24.9291H85.1768C85.6415 24.9291 86.0155 25.2866 86.0155 25.7997C86.0155 26.3128 85.6415 26.6703 85.1768 26.6703H80.9685V29.7487H85.7313C86.2102 29.7487 86.5992 30.137 86.5992 30.6659C86.5992 31.1948 86.2102 31.5673 85.7313 31.5673H80.2948C79.5164 31.5682 79.0826 31.1176 79.1119 30.2935Z" clip-rule="evenodd"/><path fill="#000" fill-rule="evenodd" d="M96.799 31.6148C97.323 31.3345 97.4881 30.759 97.2332 30.3084L95.3611 26.8575C96.9039 26.5465 97.8027 25.3649 97.8027 23.7633C97.8027 22.0844 96.7848 20.4363 94.3432 20.4363H90.7942C90.0007 20.4056 89.5665 20.8562 89.5665 21.6645V30.6204C89.5665 31.1483 89.9556 31.5841 90.4946 31.5841C91.0491 31.5841 91.4382 31.1493 91.4382 30.6204L91.4231 27.2309H93.3996L95.4815 31.2265C95.7351 31.6772 96.2896 31.8793 96.799 31.6148ZM94.3871 25.4729H91.4219V22.2538H94.372C95.3603 22.2538 95.9148 22.9065 95.9148 23.8554C95.9148 24.8043 95.3908 25.4729 94.3871 25.4729Z" clip-rule="evenodd"/><path fill="#000" fill-rule="evenodd" d="M101.666 30.7441C100.543 29.7021 100.033 28.0698 100.033 26.0176C100.033 23.9494 100.528 22.333 101.636 21.3068C102.325 20.6848 103.253 20.2649 104.601 20.2649C105.784 20.2649 106.698 20.5452 107.387 21.1513C107.986 21.6486 108.42 22.3488 108.675 23.3284C108.809 23.8415 108.465 24.3545 107.896 24.4635C107.357 24.5566 106.924 24.199 106.758 23.686C106.579 23.1888 106.339 22.8312 106.054 22.5816C105.665 22.224 105.186 22.0685 104.556 22.0685C103.883 22.0685 103.298 22.2706 102.864 22.7212C102.235 23.374 101.965 24.5408 101.965 26.0176C101.965 27.4795 102.22 28.6453 102.879 29.298C103.313 29.7487 103.883 29.9507 104.541 29.9507C105.23 29.9507 105.754 29.7645 106.189 29.3446C106.413 29.1267 106.608 28.8473 106.743 28.5205C106.938 28.0381 107.342 27.6806 107.866 27.8054C108.39 27.9302 108.72 28.4581 108.555 28.9712C108.285 29.8259 107.821 30.5104 107.192 30.9769C106.504 31.4899 105.65 31.7544 104.572 31.7544C103.194 31.7544 102.325 31.3344 101.666 30.7441Z" clip-rule="evenodd"/><path fill="#000" fill-rule="evenodd" d="M115.414 20.2649C112.164 20.2649 110.786 22.535 110.786 26.0176C110.786 29.609 112.15 31.7702 115.414 31.7702C118.619 31.7702 120.027 29.609 120.027 26.0176C120.027 22.4726 118.634 20.2649 115.414 20.2649ZM115.399 22.0844C117.181 22.0844 118.109 23.374 118.109 26.0176C118.109 28.6601 117.166 29.9507 115.399 29.9507C113.617 29.9507 112.718 28.6611 112.718 26.0176C112.718 23.375 113.647 22.0844 115.399 22.0844Z" clip-rule="evenodd"/><path fill="#000" fill-rule="evenodd" d="M134.553 30.6045C134.553 31.1335 134.164 31.5683 133.61 31.5683C133.071 31.5683 132.681 31.1325 132.681 30.6045V26.4376L132.726 22.3796L131.423 26.5L130.106 30.558C129.882 31.2731 129.417 31.5534 128.833 31.5534C128.218 31.5534 127.769 31.2583 127.53 30.5431L126.182 26.501L124.939 22.443L124.983 26.4386V30.6055C124.983 31.1345 124.594 31.5693 124.04 31.5693C123.501 31.5693 123.112 31.1335 123.112 30.6055V22.2875C123.112 21.1366 123.711 20.468 124.759 20.468C125.748 20.468 126.302 21.0118 126.616 22.0072L127.993 26.2514L128.832 29.1436L129.686 26.2514L131.063 22.0072C131.378 21.0118 131.917 20.468 132.906 20.468C133.954 20.468 134.538 21.1207 134.538 22.2875L134.553 30.6045Z" clip-rule="evenodd"/><path fill="#000" d="M36.8903 27.6061C36.8903 27.8842 36.7833 28.151 36.5928 28.3476C36.4023 28.5443 36.144 28.6548 35.8746 28.6548C35.6052 28.6548 35.3468 28.5443 35.1563 28.3476C34.9658 28.151 34.8588 27.8842 34.8588 27.6061V18.2375C34.8588 17.9593 34.9658 17.6926 35.1563 17.4959C35.3468 17.2993 35.6052 17.1888 35.8746 17.1888C36.144 17.1888 36.4023 17.2993 36.5928 17.4959C36.7833 17.6926 36.8903 17.9593 36.8903 18.2375V27.6061ZM36.5378 34.0974C36.4034 34.2361 32.6258 37.4861 25.7 37.4861C18.7743 37.4861 15.0218 34.2534 14.8623 34.1148C14.7618 34.0273 14.679 33.9202 14.6187 33.7996C14.5583 33.6789 14.5217 33.5472 14.5108 33.412C14.4998 33.2767 14.5149 33.1405 14.555 33.0113C14.5952 32.882 14.6597 32.7622 14.7448 32.6588C14.9201 32.4494 15.1685 32.32 15.4359 32.2989C15.7032 32.2778 15.9678 32.3667 16.1719 32.5461C16.2307 32.5894 19.6054 35.4148 25.6916 35.4148C31.7779 35.4148 35.1778 32.5721 35.2114 32.5461C35.4177 32.3683 35.6832 32.2805 35.9513 32.3016C36.2193 32.3226 36.4689 32.4508 36.6469 32.6588C36.8181 32.8651 36.9036 33.1328 36.8848 33.4038C36.8659 33.6749 36.7442 33.9272 36.5462 34.1061L36.5378 34.0974ZM14.5013 18.2375C14.5165 17.9585 14.6381 17.697 14.8394 17.5102C15.0408 17.3235 15.3056 17.2266 15.5759 17.2408C15.8265 17.2555 16.063 17.3654 16.2397 17.5495C16.4164 17.7335 16.5209 17.9786 16.5329 18.2375V27.5888C16.5329 27.8669 16.4259 28.1336 16.2354 28.3303C16.0449 28.527 15.7865 28.6374 15.5171 28.6374C15.2477 28.6374 14.9894 28.527 14.7989 28.3303C14.6084 28.1336 14.5013 27.8669 14.5013 27.5888V18.2375ZM19.597 16.1575C19.6122 15.8785 19.7337 15.617 19.9351 15.4302C20.1364 15.2435 20.4012 15.1466 20.6715 15.1608C20.9221 15.1755 21.1586 15.2854 21.3353 15.4695C21.512 15.6535 21.6165 15.8986 21.6285 16.1575V30.0241C21.6285 30.3022 21.5215 30.569 21.3311 30.7656C21.1406 30.9623 20.8822 31.0728 20.6128 31.0728C20.3434 31.0728 20.085 30.9623 19.8945 30.7656C19.704 30.569 19.597 30.3022 19.597 30.0241V16.1575ZM24.7178 15.6375C24.7178 15.3593 24.8248 15.0926 25.0154 14.8959C25.2059 14.6993 25.4642 14.5888 25.7336 14.5888C26.003 14.5888 26.2614 14.6993 26.4519 14.8959C26.6424 15.0926 26.7494 15.3593 26.7494 15.6375V30.7174C26.7494 30.9956 26.6424 31.2623 26.4519 31.4589C26.2614 31.6556 26.003 31.7661 25.7336 31.7661C25.4642 31.7661 25.2059 31.6556 25.0154 31.4589C24.8248 31.2623 24.7178 30.9956 24.7178 30.7174V15.6375ZM29.7547 16.1575C29.7547 15.8793 29.8617 15.6126 30.0522 15.4159C30.2427 15.2193 30.5011 15.1088 30.7705 15.1088C31.0399 15.1088 31.2983 15.2193 31.4887 15.4159C31.6793 15.6126 31.7863 15.8793 31.7863 16.1575V30.0241C31.7863 30.3022 31.6793 30.569 31.4887 30.7656C31.2983 30.9623 31.0399 31.0728 30.7705 31.0728C30.5011 31.0728 30.2427 30.9623 30.0522 30.7656C29.8617 30.569 29.7547 30.3022 29.7547 30.0241V16.1575ZM37.1674 10.4375H14.2663C13.7673 10.434 13.2725 10.5322 12.8104 10.7265C12.3482 10.9207 11.9277 11.2072 11.5729 11.5694C11.218 11.9317 10.9359 12.3627 10.7427 12.8377C10.5495 13.3126 10.4489 13.8223 10.4467 14.3375V37.7374C10.4489 38.2526 10.5495 38.7623 10.7427 39.2372C10.9359 39.7122 11.218 40.1432 11.5729 40.5054C11.9277 40.8677 12.3482 41.1542 12.8104 41.3484C13.2725 41.5427 13.7673 41.6408 14.2663 41.6374H37.1674C37.6657 41.6408 38.1597 41.543 38.6214 41.3492C39.083 41.1555 39.5032 40.8698 39.8578 40.5085C40.2125 40.1471 40.4948 39.7172 40.6886 39.2433C40.8823 38.7693 40.9837 38.2605 40.987 37.7461V14.3375C40.9848 13.823 40.8845 13.3141 40.6917 12.8397C40.499 12.3653 40.2177 11.9347 39.8638 11.5725C39.5098 11.2104 39.0903 10.9238 38.6291 10.729C38.1679 10.5342 37.6741 10.4352 37.1758 10.4375"/></svg>