<svg xmlns="http://www.w3.org/2000/svg" width="225" height="35" fill="none" viewBox="0 0 225 35"><path fill="#000" d="M6.56 10.9098H0V29.3998H6.56V20.5698C6.56 18.5198 6.56 15.3798 9.48 15.3798C12.4 15.3798 12.4 18.5198 12.4 20.5698V29.3998H18.96V20.5698C18.96 18.3698 19.07 15.5198 22.1 15.5198C24.88 15.5198 24.8 18.6598 24.8 20.5698V29.3998H31.36V17.6198C31.36 13.3698 29.74 10.2998 25.05 10.2998C22.53 10.2998 20.04 11.5298 18.78 13.8298C17.45 11.3798 15.14 10.2998 12.47 10.2998C10.09 10.2998 8.18 11.1698 6.63 13.2198H6.56V10.9098Z"/><path fill="#000" d="M39.52 17.4798C39.92 15.5698 41.5 14.5598 43.41 14.5598C45.18 14.5598 46.8 15.7098 47.12 17.4798H39.52ZM53.22 20.5798C53.22 14.2698 49.51 10.3098 43.09 10.3098C37.07 10.3098 32.85 14.0198 32.85 20.1898C32.85 26.5698 37.43 30.0298 43.56 30.0298C45.69 30.0298 47.78 29.5298 49.47 28.4798C51.16 27.4298 52.46 25.8498 52.97 23.6898H46.66C45.94 24.9198 44.93 25.3798 43.52 25.3798C40.82 25.3798 39.41 23.9398 39.41 21.2698H53.22V20.5798Z"/><path fill="#000" d="M61.33 10.9098H54.77V29.3998H61.33V19.8098C61.33 17.4998 62.09 15.5198 64.75 15.5198C67.99 15.5198 67.71 18.6198 67.71 20.3898V29.3998H74.27V17.9798C74.27 13.4398 72.29 10.2998 67.31 10.2998C64.75 10.2998 62.91 11.0598 61.4 13.2898H61.33V10.9098Z"/><path fill="#000" d="M84.33 16.3199H88.04V10.9099H84.33V5.35986H77.77V10.9099H75.64V16.3199H77.77V29.4099H84.33V16.3199Z"/><path fill="#000" d="M96.34 10.9099H89.78V29.3999H96.34V10.9099ZM93.06 0.129883C91.04 0.129883 89.38 1.78988 89.38 3.80988C89.38 5.82988 91.04 7.48988 93.06 7.48988C95.08 7.48988 96.74 5.82988 96.74 3.80988C96.74 1.78988 95.08 0.129883 93.06 0.129883Z"/><path fill="#000" d="M108.99 10.2998C103.04 10.2998 97.85 13.8698 97.85 20.1798C97.85 26.4898 103.08 30.0198 108.99 30.0198C114.94 30.0198 120.13 26.4498 120.13 20.1798C120.13 13.8698 114.94 10.2998 108.99 10.2998ZM108.99 15.9998C111.66 15.9998 113.21 17.9098 113.21 20.1798C113.21 22.5198 111.66 24.3298 108.99 24.3298C106.32 24.3298 104.77 22.5298 104.77 20.1798C104.78 17.9098 106.33 15.9998 108.99 15.9998Z"/><path fill="#000" d="M128.21 10.9098H121.65V29.3998H128.21V19.8098C128.21 17.4998 128.97 15.5198 131.63 15.5198C134.87 15.5198 134.59 18.6198 134.59 20.3898V29.3998H141.15V17.9798C141.15 13.4398 139.17 10.2998 134.19 10.2998C131.63 10.2998 129.79 11.0598 128.28 13.2898H128.21V10.9098Z"/><path fill="#000" d="M225 0H151.58V34.52H225V0Z"/><path fill="#fff" d="M216.75 19.51C216.72 19.37 216.62 19.36 216.46 19.47C215.68 20.47 214.94 21.32 214.25 22.01C213.55 22.71 212.62 23.55 211.46 24.55C210.74 25.22 209.79 26 208.62 26.89C207.45 27.78 206.26 28.49 205.03 29.02C203.81 29.55 202.64 29.73 201.53 29.56C200.42 29.39 199.58 28.59 199.03 27.14C201.42 25.42 203.49 23.61 205.24 21.72C206.99 19.83 208.39 17.47 209.45 14.63C210.17 12.07 210.1 10.35 209.24 9.45997C208.38 8.56997 207.14 8.14997 205.53 8.20997C205.03 8.03997 204.39 8.07997 203.61 8.33997C202.83 8.58997 202.36 8.73997 202.19 8.79997C201.08 9.40997 200.1 10.26 199.27 11.34C198.44 12.42 197.66 13.75 196.93 15.3C195.87 18.3 195.32 20.75 195.26 22.64C195.24 23.37 195.24 24.03 195.27 24.64C195.19 24.64 195.1 24.64 195.01 24.64C193.79 24.81 192.81 24.57 192.09 23.93C191.37 23.29 190.81 22.44 190.42 21.39C190.03 20.33 189.77 19.15 189.63 17.85C189.49 16.54 189.37 15.31 189.25 14.14C189.14 12.97 189 11.96 188.83 11.1C188.66 10.24 188.36 9.71997 187.91 9.55997C186.96 9.16997 186.07 9.30997 185.24 9.97997C184.41 10.65 183.63 11.58 182.9 12.77C182.18 13.97 181.5 15.3 180.86 16.77C180.22 18.24 179.65 19.59 179.15 20.82C179.04 19.26 178.95 17.73 178.9 16.23C178.84 14.73 178.8 13.37 178.77 12.14C178.74 10.92 178.69 9.86997 178.6 9.00997C178.52 8.14997 178.42 7.57997 178.31 7.29997C177.81 6.35997 177.25 5.87997 176.64 5.87997C176.03 5.87997 175.39 6.19997 174.72 6.83997C174.05 7.47997 173.37 8.33997 172.68 9.42997C171.98 10.51 171.35 11.68 170.76 12.93C170.18 14.18 169.66 15.42 169.22 16.64C168.77 17.86 168.44 18.92 168.22 19.81C168.22 16.09 168.33 12.97 168.55 10.47C168.77 7.96997 168.83 5.98997 168.72 4.54997C168.61 4.43997 168.4 4.25997 168.09 4.00997C167.78 3.75997 167.48 3.57997 167.17 3.46997C166.86 3.35997 166.57 3.33997 166.29 3.42997C166.01 3.50997 165.87 3.80997 165.87 4.30997C165.81 6.36997 165.74 8.78997 165.66 11.57C165.58 14.35 165.49 17.08 165.41 19.74C165.33 22.41 165.24 24.79 165.16 26.87C165.08 28.96 164.98 30.36 164.87 31.08C165.15 31.58 165.48 32.07 165.87 32.54C166.26 33.01 166.93 33.14 167.87 32.92C167.98 31.31 168.25 29.51 168.66 27.54C169.08 25.57 169.59 23.59 170.2 21.62C170.81 19.65 171.52 17.74 172.33 15.91C173.14 14.08 174.01 12.44 174.96 10.99C175.4 10.49 175.71 10.41 175.88 10.74C176.05 11.07 176.16 11.69 176.21 12.58C176.26 13.47 176.26 14.54 176.21 15.79C176.15 17.04 176.11 18.33 176.08 19.67C176.05 21 176.05 22.33 176.08 23.63C176.11 24.94 176.23 26.04 176.46 26.92C176.63 27.53 177.02 27.95 177.63 28.17C178.24 28.39 178.69 28.25 178.96 27.75C179.18 27.03 179.5 26.1 179.92 24.96C180.34 23.82 180.82 22.64 181.38 21.42C181.94 20.2 182.52 19.04 183.13 17.96C183.74 16.88 184.31 15.97 184.84 15.25C185.37 14.53 185.81 14.11 186.17 14C186.53 13.89 186.77 14.2 186.88 14.92C186.99 16.59 187.2 18.27 187.51 19.97C187.82 21.67 188.34 23.11 189.09 24.31C189.84 25.51 190.87 26.28 192.18 26.65C193.08 26.9 194.15 26.81 195.4 26.39C195.45 26.67 195.5 26.94 195.56 27.19C195.61 27.47 195.73 27.8 195.89 28.19C196.06 28.58 196.32 29.01 196.68 29.48C197.04 29.95 197.56 30.41 198.22 30.86C198.89 31.31 199.78 31.72 200.89 32.11C202.22 32.33 203.41 32.33 204.43 32.11C205.46 31.89 206.4 31.5 207.27 30.94C208.13 30.38 208.95 29.73 209.73 28.98C210.51 28.23 211.31 27.47 212.15 26.69C212.87 25.86 213.48 25.19 213.98 24.69C214.48 24.19 214.88 23.76 215.19 23.4C215.49 23.04 215.73 22.71 215.9 22.4C216.07 22.1 216.23 21.75 216.4 21.36C216.51 20.86 216.59 20.47 216.65 20.19C216.77 19.85 216.78 19.65 216.75 19.51ZM199.32 18.92C199.85 17.28 200.5 15.79 201.28 14.46C202.06 13.13 202.92 12.1 203.87 11.37C204.81 10.65 205.76 10.51 206.71 10.95C206.82 10.95 206.93 11.03 207.04 11.2C207.26 11.53 207.29 12.12 207.12 12.95C207.06 14.17 206.72 15.34 206.08 16.45C205.44 17.56 204.69 18.58 203.83 19.49C202.97 20.41 202.05 21.21 201.08 21.91C200.11 22.61 199.26 23.15 198.54 23.54C198.53 22.11 198.79 20.56 199.32 18.92Z"/></svg>