<svg width="193" height="30" viewBox="0 0 193 30" fill="none" xmlns="http://www.w3.org/2000/svg">
<path d="M5.62702 9.35123H0V25.1998H5.62702V17.6312C5.62702 15.8741 5.62702 13.1827 8.13173 13.1827C10.6364 13.1827 10.6364 15.8741 10.6364 17.6312V25.1998H16.2635V17.6312C16.2635 15.7455 16.3578 13.3027 18.9569 13.3027C21.3415 13.3027 21.2729 15.9941 21.2729 17.6312V25.1998H26.8999V15.1027C26.8999 11.4598 25.5103 8.82837 21.4873 8.82837C19.3257 8.82837 17.1899 9.88265 16.1091 11.8541C14.9682 9.75408 12.9868 8.82837 10.6965 8.82837C8.65498 8.82837 7.01662 9.57408 5.68707 11.3312H5.62702V9.35123Z" fill="black"/>
<path d="M33.8994 14.9829C34.2425 13.3457 35.5978 12.48 37.2361 12.48C38.7544 12.48 40.144 13.4657 40.4185 14.9829H33.8994ZM45.6509 17.64C45.6509 12.2314 42.4686 8.83716 36.9617 8.83716C31.7978 8.83716 28.178 12.0172 28.178 17.3057C28.178 22.7743 32.1066 25.74 37.3648 25.74C39.1919 25.74 40.9846 25.3114 42.4343 24.4114C43.8839 23.5114 44.999 22.1572 45.4365 20.3057H40.0239C39.4063 21.36 38.54 21.7543 37.3305 21.7543C35.0145 21.7543 33.805 20.52 33.805 18.2314H45.6509V17.64Z" fill="black"/>
<path d="M52.6075 9.35123H46.9805V25.1998H52.6075V16.9798C52.6075 14.9998 53.2594 13.3027 55.5411 13.3027C58.3203 13.3027 58.0801 15.9598 58.0801 17.4769V25.1998H63.7072V15.4112C63.7072 11.5198 62.0088 8.82837 57.737 8.82837C55.5411 8.82837 53.9628 9.4798 52.6676 11.3912H52.6075V9.35123Z" fill="black"/>
<path d="M72.3364 13.9885H75.5188V9.35138H72.3364V4.59424H66.7094V9.35138H64.8823V13.9885H66.7094V25.2085H72.3364V13.9885Z" fill="black"/>
<path d="M82.6383 9.35133H77.0113V25.1999H82.6383V9.35133ZM79.8248 0.111328C78.0921 0.111328 76.6682 1.53419 76.6682 3.26561C76.6682 4.99704 78.0921 6.4199 79.8248 6.4199C81.5575 6.4199 82.9814 4.99704 82.9814 3.26561C82.9814 1.53419 81.5575 0.111328 79.8248 0.111328Z" fill="black"/>
<path d="M93.4892 8.82837C88.3854 8.82837 83.9336 11.8884 83.9336 17.2969C83.9336 22.7055 88.4197 25.7312 93.4892 25.7312C98.593 25.7312 103.045 22.6712 103.045 17.2969C103.045 11.8884 98.593 8.82837 93.4892 8.82837ZM93.4892 13.7141C95.7795 13.7141 97.109 15.3512 97.109 17.2969C97.109 19.3027 95.7795 20.8541 93.4892 20.8541C91.1989 20.8541 89.8694 19.3112 89.8694 17.2969C89.878 15.3512 91.2075 13.7141 93.4892 13.7141Z" fill="black"/>
<path d="M109.976 9.35123H104.349V25.1998H109.976V16.9798C109.976 14.9998 110.628 13.3027 112.909 13.3027C115.688 13.3027 115.448 15.9598 115.448 17.4769V25.1998H121.075V15.4112C121.075 11.5198 119.377 8.82837 115.105 8.82837C112.909 8.82837 111.331 9.4798 110.036 11.3912H109.976V9.35123Z" fill="black"/>
<path d="M193 0H130.022V29.5886H193V0Z" fill="black"/>
<path d="M185.923 16.7228C185.898 16.6028 185.812 16.5942 185.675 16.6885C185.006 17.5457 184.371 18.2742 183.779 18.8657C183.178 19.4657 182.381 20.1857 181.386 21.0428C180.768 21.6171 179.953 22.2857 178.95 23.0485C177.946 23.8114 176.925 24.4199 175.87 24.8742C174.824 25.3285 173.82 25.4828 172.868 25.3371C171.916 25.1914 171.195 24.5057 170.724 23.2628C172.774 21.7885 174.549 20.2371 176.05 18.6171C177.551 16.9971 178.752 14.9742 179.662 12.5399C180.279 10.3457 180.219 8.87137 179.481 8.10851C178.744 7.34565 177.68 6.98565 176.299 7.03708C175.87 6.89137 175.321 6.92565 174.652 7.14851C173.983 7.3628 173.58 7.49137 173.434 7.5428C172.482 8.06565 171.641 8.79423 170.929 9.71994C170.217 10.6457 169.548 11.7857 168.922 13.1142C168.013 15.6857 167.541 17.7857 167.49 19.4057C167.473 20.0314 167.473 20.5971 167.498 21.1199C167.43 21.1199 167.352 21.1199 167.275 21.1199C166.229 21.2657 165.388 21.0599 164.771 20.5114C164.153 19.9628 163.673 19.2342 163.338 18.3342C163.004 17.4257 162.78 16.4142 162.66 15.2999C162.54 14.1771 162.437 13.1228 162.334 12.1199C162.24 11.1171 162.12 10.2514 161.974 9.51423C161.828 8.77708 161.571 8.33137 161.185 8.19423C160.37 7.85994 159.607 7.97994 158.895 8.55422C158.183 9.12851 157.514 9.92565 156.888 10.9457C156.27 11.9742 155.687 13.1142 155.138 14.3742C154.589 15.6342 154.1 16.7914 153.671 17.8457C153.577 16.5085 153.499 15.1971 153.456 13.9114C153.405 12.6257 153.371 11.4599 153.345 10.4057C153.319 9.35994 153.276 8.45994 153.199 7.7228C153.13 6.98565 153.045 6.49708 152.95 6.25708C152.521 5.45137 152.041 5.03994 151.518 5.03994C150.995 5.03994 150.446 5.31423 149.871 5.8628C149.296 6.41137 148.713 7.14851 148.121 8.0828C147.521 9.00851 146.98 10.0114 146.474 11.0828C145.977 12.1542 145.531 13.2171 145.153 14.2628C144.767 15.3085 144.484 16.2171 144.295 16.9799C144.295 13.7914 144.39 11.1171 144.578 8.97423C144.767 6.83137 144.819 5.13423 144.724 3.89994C144.63 3.80565 144.45 3.65137 144.184 3.43708C143.918 3.2228 143.661 3.06851 143.395 2.97423C143.129 2.87994 142.88 2.8628 142.64 2.93994C142.4 3.00851 142.28 3.26565 142.28 3.69423C142.228 5.45994 142.168 7.53423 142.099 9.91708C142.031 12.2999 141.954 14.6399 141.885 16.9199C141.816 19.2085 141.739 21.2485 141.671 23.0314C141.602 24.8228 141.516 26.0228 141.422 26.6399C141.662 27.0685 141.945 27.4885 142.28 27.8914C142.614 28.2942 143.189 28.4057 143.995 28.2171C144.09 26.8371 144.321 25.2942 144.673 23.6057C145.033 21.9171 145.471 20.2199 145.994 18.5314C146.517 16.8428 147.126 15.2057 147.821 13.6371C148.516 12.0685 149.262 10.6628 150.077 9.41994C150.454 8.99137 150.72 8.9228 150.866 9.20565C151.012 9.48851 151.106 10.0199 151.149 10.7828C151.192 11.5457 151.192 12.4628 151.149 13.5342C151.098 14.6057 151.063 15.7114 151.038 16.8599C151.012 17.9999 151.012 19.1399 151.038 20.2542C151.063 21.3771 151.166 22.3199 151.363 23.0742C151.509 23.5971 151.844 23.9571 152.367 24.1457C152.89 24.3342 153.276 24.2142 153.508 23.7857C153.697 23.1685 153.971 22.3714 154.331 21.3942C154.692 20.4171 155.103 19.4057 155.584 18.3599C156.064 17.3142 156.562 16.3199 157.085 15.3942C157.608 14.4685 158.097 13.6885 158.552 13.0714C159.006 12.4542 159.384 12.0942 159.692 11.9999C160.001 11.9057 160.207 12.1714 160.302 12.7885C160.396 14.2199 160.576 15.6599 160.842 17.1171C161.108 18.5742 161.554 19.8085 162.197 20.8371C162.841 21.8657 163.724 22.5257 164.848 22.8428C165.62 23.0571 166.538 22.9799 167.61 22.6199C167.653 22.8599 167.696 23.0914 167.747 23.3057C167.79 23.5457 167.893 23.8285 168.03 24.1628C168.176 24.4971 168.399 24.8657 168.708 25.2685C169.017 25.6714 169.463 26.0657 170.029 26.4514C170.603 26.8371 171.367 27.1885 172.319 27.5228C173.46 27.7114 174.481 27.7114 175.356 27.5228C176.239 27.3342 177.045 26.9999 177.792 26.5199C178.529 26.0399 179.233 25.4828 179.902 24.8399C180.571 24.1971 181.257 23.5457 181.978 22.8771C182.595 22.1657 183.118 21.5914 183.547 21.1628C183.976 20.7342 184.319 20.3657 184.585 20.0571C184.843 19.7485 185.048 19.4657 185.194 19.1999C185.34 18.9428 185.477 18.6428 185.623 18.3085C185.717 17.8799 185.786 17.5457 185.838 17.3057C185.941 17.0142 185.949 16.8428 185.923 16.7228ZM170.972 16.2171C171.427 14.8114 171.984 13.5342 172.654 12.3942C173.323 11.2542 174.06 10.3714 174.875 9.74565C175.681 9.12851 176.496 9.00851 177.311 9.38565C177.406 9.38565 177.5 9.45423 177.594 9.59994C177.783 9.8828 177.809 10.3885 177.663 11.0999C177.611 12.1457 177.32 13.1485 176.771 14.0999C176.222 15.0514 175.579 15.9257 174.841 16.7057C174.103 17.4942 173.314 18.1799 172.482 18.7799C171.65 19.3799 170.921 19.8428 170.303 20.1771C170.295 18.9514 170.518 17.6228 170.972 16.2171Z" fill="white"/>
</svg>
