<svg fill="none" xmlns="http://www.w3.org/2000/svg" viewBox="0 0 175 41"><g clip-path="url(#a)"><path d="M58.922 19.64v-6.075h3.263c2.065 0 3.322 1.167 3.322 3.053 0 1.825-1.257 3.023-3.322 3.023h-3.263Zm3.772 3.563c4.19 0 6.974-2.754 6.974-6.615 0-3.832-2.784-6.615-6.974-6.615h-7.932v21.221h4.13v-7.991h3.802ZM76.391 22.544c.09-1.617 1.078-2.874 2.754-2.874 1.915 0 2.724 1.287 2.724 2.934v8.59h3.98v-9.279c0-3.232-1.736-5.836-5.477-5.836-1.407 0-3.023.479-3.98 1.616V9.523H72.41v21.671h3.981v-8.65ZM88.992 27.184c0 2.305 1.916 4.43 5.059 4.43 2.185 0 3.591-1.018 4.34-2.185 0 .569.06 1.377.15 1.766h3.651c-.09-.509-.179-1.556-.179-2.335v-7.243c0-2.963-1.736-5.598-6.406-5.598-3.95 0-6.076 2.545-6.316 4.85l3.532.748c.12-1.287 1.078-2.395 2.814-2.395 1.676 0 2.484.868 2.484 1.916 0 .509-.269.928-1.107 1.047l-3.622.54c-2.454.358-4.4 1.825-4.4 4.46Zm5.897 1.467c-1.287 0-1.916-.838-1.916-1.706 0-1.138.808-1.706 1.826-1.856l3.322-.509v.659c0 2.604-1.556 3.412-3.232 3.412ZM110.006 22.724c0-1.706 1.018-3.053 2.754-3.053 1.916 0 2.724 1.287 2.724 2.933v8.59h3.981v-9.278c0-3.233-1.676-5.837-5.328-5.837-1.586 0-3.352.689-4.25 2.215v-1.826h-3.862v14.727h3.981v-8.471ZM128.414 12.068h-3.593v2.066c0 1.317-.717 2.334-2.273 2.334h-.749V20h2.664v6.855c0 2.843 1.795 4.55 4.669 4.55 1.168 0 1.886-.21 2.245-.36v-3.292c-.209.06-.748.12-1.227.12-1.138 0-1.736-.42-1.736-1.707V20h2.963v-3.532h-2.963v-4.4ZM141.228 28.022c-1.946 0-3.742-1.436-3.742-4.19 0-2.784 1.796-4.19 3.742-4.19 1.945 0 3.741 1.406 3.741 4.19 0 2.784-1.796 4.19-3.741 4.19Zm0-12.002c-4.4 0-7.723 3.262-7.723 7.812 0 4.52 3.323 7.812 7.723 7.812s7.722-3.292 7.722-7.812c0-4.55-3.322-7.813-7.722-7.813ZM156.073 31.194v-8.62c0-1.616 1.018-2.903 2.754-2.903 1.796 0 2.604 1.197 2.604 2.783v8.74h3.951v-8.62c0-1.586 1.018-2.903 2.724-2.903 1.826 0 2.604 1.197 2.604 2.783v8.74h3.862v-9.548c0-3.95-2.605-5.597-5.329-5.597-1.945 0-3.501.658-4.669 2.454-.749-1.586-2.364-2.454-4.37-2.454-1.616 0-3.501.778-4.31 2.215v-1.796h-3.802v14.726h3.981ZM20.238 40.476c11.177 0 20.238-9.06 20.238-20.238C40.476 9.061 31.416 0 20.238 0 9.061 0 0 9.06 0 20.238c0 11.177 9.06 20.238 20.238 20.238Z" fill="#000"/><path d="M34.726 20.485h-3.568c0-7.27-5.914-13.165-13.21-13.165-7.207 0-13.066 5.75-13.21 12.896-.148 7.387 6.807 13.801 14.221 13.801h.933c6.536 0 15.297-5.098 16.666-11.31.253-1.146-.655-2.222-1.832-2.222Zm-22.08.324c0 .972-.799 1.767-1.775 1.767a1.776 1.776 0 0 1-1.773-1.767v-2.86c0-.972.798-1.767 1.773-1.767.976 0 1.774.795 1.774 1.767v2.86Zm6.159 0c0 .972-.798 1.767-1.774 1.767a1.776 1.776 0 0 1-1.774-1.767v-2.86c0-.972.798-1.767 1.774-1.767s1.774.795 1.774 1.767v2.86Z" fill="url(#b)"/></g><defs><linearGradient id="b" x1="20.668" y1="7.32" x2="20.668" y2="34.017" gradientUnits="userSpaceOnUse"><stop stop-color="#fff"/><stop offset="1" stop-color="#fff" stop-opacity=".82"/></linearGradient><clipPath id="a"><path fill="#fff" d="M0 0h175v40.476H0z"/></clipPath></defs></svg>