<svg xmlns="http://www.w3.org/2000/svg" width="165" height="32" fill="none" viewBox="0 0 165 32"><path fill="#000" d="M59.6496 24H63.7576V17.188H67.1896C70.9596 17.188 73.3776 14.952 73.3776 11.494C73.3776 8.036 70.9596 5.8 67.1896 5.8H59.6496V24ZM63.7576 13.678V9.31H66.7736C68.3336 9.31 69.2696 10.142 69.2696 11.494C69.2696 12.846 68.3336 13.678 66.7736 13.678H63.7576ZM80.8095 24.208C84.8135 24.208 87.7255 21.348 87.7255 17.448C87.7255 13.548 84.8135 10.688 80.8095 10.688C76.7535 10.688 73.8935 13.548 73.8935 17.448C73.8935 21.348 76.7535 24.208 80.8095 24.208ZM77.6895 17.448C77.6895 15.368 78.9375 13.938 80.8095 13.938C82.6555 13.938 83.9035 15.368 83.9035 17.448C83.9035 19.528 82.6555 20.958 80.8095 20.958C78.9375 20.958 77.6895 19.528 77.6895 17.448ZM94.2995 24.208C97.3675 24.208 99.4475 22.284 99.4475 20.022C99.4475 14.718 92.4015 16.434 92.4015 14.354C92.4015 13.782 92.9995 13.418 93.8575 13.418C94.7415 13.418 95.8075 13.964 96.1455 15.16L99.2135 13.886C98.6155 11.988 96.4055 10.688 93.7275 10.688C90.8415 10.688 89.0475 12.404 89.0475 14.458C89.0475 19.424 95.9895 18.046 95.9895 20.1C95.9895 20.828 95.3135 21.322 94.2995 21.322C92.8435 21.322 91.8295 20.308 91.5175 19.086L88.4495 20.282C89.1255 22.258 91.1015 24.208 94.2995 24.208ZM109.33 23.87L109.07 20.568C108.628 20.802 108.056 20.88 107.588 20.88C106.652 20.88 106.028 20.204 106.028 19.034V14.068H109.2V10.896H106.028V7.1H102.206V10.896H100.126V14.068H102.206V19.528C102.206 22.7 104.364 24.208 107.198 24.208C107.978 24.208 108.706 24.078 109.33 23.87ZM122.656 5.8V12.872H115.428V5.8H111.32V24H115.428V16.382H122.656V24H126.79V5.8H122.656ZM135.908 24.208C139.912 24.208 142.824 21.348 142.824 17.448C142.824 13.548 139.912 10.688 135.908 10.688C131.852 10.688 128.992 13.548 128.992 17.448C128.992 21.348 131.852 24.208 135.908 24.208ZM132.788 17.448C132.788 15.368 134.036 13.938 135.908 13.938C137.754 13.938 139.002 15.368 139.002 17.448C139.002 19.528 137.754 20.958 135.908 20.958C134.036 20.958 132.788 19.528 132.788 17.448ZM150.201 23.584C151.631 23.584 152.905 23.09 153.581 22.232V23.48C153.581 24.936 152.411 25.95 150.617 25.95C149.343 25.95 148.225 25.326 148.043 24.26L144.559 24.806C145.027 27.276 147.549 28.94 150.617 28.94C154.647 28.94 157.325 26.574 157.325 23.064V10.896H153.555V12.014C152.853 11.208 151.657 10.688 150.123 10.688C146.483 10.688 144.195 13.184 144.195 17.136C144.195 21.088 146.483 23.584 150.201 23.584ZM147.913 17.136C147.913 15.186 149.057 13.938 150.825 13.938C152.619 13.938 153.763 15.186 153.763 17.136C153.763 19.086 152.619 20.334 150.825 20.334C149.057 20.334 147.913 19.086 147.913 17.136Z"/><path fill="#F54E00" d="M20.8885 16.2057C20.5199 16.9427 19.4681 16.9427 19.0996 16.2057L18.2182 14.443C18.0775 14.1614 18.0775 13.8301 18.2182 13.5485L19.0996 11.7858C19.4681 11.0488 20.5199 11.0488 20.8885 11.7858L21.7698 13.5485C21.9106 13.8301 21.9106 14.1614 21.7698 14.443L20.8885 16.2057Z"/><path fill="#F54E00" d="M20.8885 26.2028C20.5199 26.9398 19.4681 26.9398 19.0996 26.2028L18.2182 24.44C18.0775 24.1585 18.0775 23.8271 18.2182 23.5456L19.0996 21.7829C19.4681 21.0458 20.5199 21.0458 20.8885 21.7829L21.7698 23.5456C21.9106 23.8271 21.9106 24.1585 21.7698 24.44L20.8885 26.2028Z"/><path fill="#1D4AFF" d="M10.8914 16.2057C10.5229 16.9427 9.47106 16.9427 9.10253 16.2057L8.22117 14.443C8.0804 14.1614 8.0804 13.8301 8.22117 13.5485L9.10253 11.7858C9.47106 11.0488 10.5229 11.0488 10.8914 11.7858L11.7728 13.5485C11.9135 13.8301 11.9135 14.1614 11.7728 14.443L10.8914 16.2057Z"/><path fill="#1D4AFF" d="M10.8914 26.2028C10.5229 26.9398 9.47106 26.9398 9.10253 26.2028L8.22117 24.44C8.0804 24.1585 8.0804 23.8271 8.22117 23.5456L9.10253 21.7829C9.47106 21.0458 10.5229 21.0458 10.8914 21.7829L11.7728 23.5456C11.9135 23.8271 11.9135 24.1585 11.7728 24.44L10.8914 26.2028Z"/><path fill="#F9BD2B" d="M0 22.4082C0 21.5173 1.07714 21.0711 1.70711 21.7011L6.29049 26.2845C6.92046 26.9145 6.47429 27.9916 5.58339 27.9916H0.999999C0.447715 27.9916 0 27.5439 0 26.9916V22.4082ZM0 17.5804C0 17.8456 0.105357 18.1 0.292893 18.2875L9.70411 27.6987C9.89164 27.8862 10.146 27.9916 10.4112 27.9916H15.5804C16.4713 27.9916 16.9175 26.9145 16.2875 26.2845L1.70711 11.7041C1.07714 11.0741 0 11.5203 0 12.4112V17.5804ZM0 7.58339C0 7.8486 0.105357 8.10296 0.292893 8.29049L19.7011 27.6987C19.8886 27.8862 20.143 27.9916 20.4082 27.9916H25.5774C26.4683 27.9916 26.9145 26.9145 26.2845 26.2845L1.70711 1.70711C1.07715 1.07715 0 1.52331 0 2.41421V7.58339ZM9.997 7.58339C9.997 7.8486 10.1024 8.10296 10.2899 8.29049L28.2839 26.2845C28.9139 26.9145 29.991 26.4683 29.991 25.5774V20.4082C29.991 20.143 29.8856 19.8886 29.6981 19.7011L11.7041 1.7071C11.0741 1.07714 9.997 1.52331 9.997 2.41421V7.58339ZM21.7011 1.70711C21.0711 1.07714 19.994 1.52331 19.994 2.41421V7.58339C19.994 7.8486 20.0994 8.10296 20.2869 8.29049L28.2839 16.2875C28.9139 16.9175 29.991 16.4713 29.991 15.5804V10.4112C29.991 10.146 29.8856 9.89164 29.6981 9.70411L21.7011 1.70711Z"/><path fill="#000" d="M42.5249 22.5309L33.1121 13.1181C32.4822 12.4882 31.405 12.9343 31.405 13.8252V26.9916C31.405 27.5439 31.8527 27.9916 32.405 27.9916H46.9857C47.5379 27.9916 47.9857 27.5439 47.9857 26.9916V25.7926C47.9857 25.2403 47.5361 24.7993 46.9884 24.728C45.3076 24.5092 43.7356 23.7415 42.5249 22.5309ZM36.2036 24.7926C35.3207 24.7926 34.6041 24.076 34.6041 23.1931C34.6041 22.3101 35.3207 21.5936 36.2036 21.5936C37.0865 21.5936 37.8031 22.3101 37.8031 23.1931C37.8031 24.076 37.0865 24.7926 36.2036 24.7926Z"/><path fill="#1D4AFF" d="M0 26.9916C0 27.5439 0.447715 27.9916 1 27.9916H5.58339C6.47429 27.9916 6.92046 26.9145 6.29049 26.2845L1.70711 21.7011C1.07714 21.0712 0 21.5173 0 22.4082V26.9916Z"/><path fill="#1D4AFF" d="M9.997 10.4112C9.997 10.146 9.89164 9.89164 9.70411 9.70411L1.70711 1.70711C1.07714 1.07714 0 1.52331 0 2.41421V7.58339C0 7.8486 0.105357 8.10296 0.292893 8.29049L8.2899 16.2875C8.91986 16.9175 9.997 16.4713 9.997 15.5804V10.4112Z"/><path fill="#1D4AFF" d="M1.70711 11.7041C1.07714 11.0741 0 11.5203 0 12.4112V17.5803C0 17.8456 0.105357 18.0999 0.292893 18.2874L8.2899 26.2844C8.91986 26.9144 9.997 26.4682 9.997 25.5773V20.4082C9.997 20.1429 9.89164 19.8886 9.70411 19.7011L1.70711 11.7041Z"/><path fill="#F54E00" d="M19.9939 10.4112C19.9939 10.146 19.8886 9.89164 19.7011 9.70411L11.7041 1.70711C11.0741 1.07714 9.99695 1.52331 9.99695 2.41421V7.58339C9.99695 7.8486 10.1023 8.10296 10.2898 8.29049L18.2868 16.2875C18.9168 16.9175 19.9939 16.4713 19.9939 15.5804V10.4112Z"/><path fill="#F54E00" d="M9.99695 26.9916C9.99695 27.5439 10.4447 27.9916 10.9969 27.9916H15.5803C16.4712 27.9916 16.9174 26.9145 16.2874 26.2845L11.7041 21.7011C11.0741 21.0712 9.99695 21.5173 9.99695 22.4082V26.9916Z"/><path fill="#F54E00" d="M11.7041 11.7041C11.0741 11.0741 9.99695 11.5203 9.99695 12.4112V17.5803C9.99695 17.8456 10.1023 18.0999 10.2898 18.2874L18.2868 26.2844C18.9168 26.9144 19.9939 26.4682 19.9939 25.5773V20.4082C19.9939 20.1429 19.8886 19.8886 19.7011 19.7011L11.7041 11.7041Z"/></svg>