<svg xmlns="http://www.w3.org/2000/svg" width="90" height="32" fill="none" viewBox="0 0 90 32"><g clip-path="url(#clip0)"><path fill="#101010" d="M43.3385 17.3933V19.9439H47.0137L43.3385 17.3933Z"/><path fill="#101010" d="M22.0063 17.5168V17.5281C22.0063 19.8202 20.9386 21.9887 19.1178 23.382C17.3758 24.7303 15.0155 25.4382 12.2732 25.4382C9.46338 25.4382 6.92333 24.6292 5.0801 23.2921C4.21469 22.6629 -0.460813 19.618 0.123624 12.7528C0.696822 12.7528 2.46137 12.7753 2.46137 12.7753C1.02276 11.5056 0.382125 9.80897 0.382125 7.74155C0.382125 5.44942 1.37117 3.41571 3.16944 2.03369C4.85532 0.730315 7.14811 0.0449219 9.8118 0.0449219C12.453 0.0449219 14.7346 0.764023 16.4204 2.11234C17.2297 2.76402 21.3207 5.71908 21.6691 12.3258C20.7475 12.3258 19.8259 12.3258 19.8259 12.3258C21.2758 13.5618 22.0063 15.3033 22.0063 17.5168Z"/><path fill="#101010" d="M9.84557 22.7416C7.03577 22.7416 4.63059 22 2.92223 20.5618C-0.752979 17.4607 0.123677 12.7528 0.123677 12.7528L2.46143 12.7753C1.02281 11.5056 0.382178 9.80897 0.382178 7.74155C0.382178 5.43818 1.37123 3.41571 3.16949 2.03369C4.85537 0.730315 7.14816 0.0449219 9.81185 0.0449219C12.4531 0.0449219 14.7346 0.764023 16.4205 2.11234C18.1738 3.51683 19.1628 5.55054 19.2078 7.85391L19.2415 9.62919H17.3983C18.8369 10.8651 19.5675 12.6067 19.5675 14.8202V14.8314C19.5675 17.1236 18.4997 19.2921 16.679 20.6854C14.9482 22.0337 12.5767 22.7416 9.84557 22.7416Z"/><path fill="#101010" d="M9.84552 21C4.92276 21 1.9219 18.4157 1.88818 14.4944H7.87867C7.87867 15.7977 8.81152 16.4269 9.98039 16.4269C10.8795 16.4269 11.7337 15.9775 11.7337 15.0112C11.7337 13.9775 10.3513 13.6629 8.63169 13.3932C5.81066 12.9438 2.12421 12.1236 2.12421 7.74156C2.12421 4.12358 5.1925 1.7865 9.81181 1.7865C14.3974 1.7865 17.387 4.23594 17.4657 7.88762H11.6326C11.6326 6.75279 10.8795 6.20223 9.73313 6.20223C8.73285 6.20223 8.08097 6.68538 8.08097 7.55054C8.08097 8.58425 9.46339 8.82021 11.183 9.13481C14.0377 9.65167 17.8366 10.2359 17.8366 14.8202C17.8029 18.5505 14.6334 21 9.84552 21Z"/><path fill="#FEE002" d="M9.84552 21C4.92276 21 1.9219 18.4157 1.88818 14.4944H7.87867C7.87867 15.7977 8.81152 16.4269 9.98039 16.4269C10.8795 16.4269 11.7337 15.9775 11.7337 15.0112C11.7337 13.9775 10.3513 13.6629 8.63169 13.3932C5.81066 12.9438 2.12421 12.1236 2.12421 7.74156C2.12421 4.12358 5.1925 1.7865 9.81181 1.7865C14.3974 1.7865 17.387 4.23594 17.4657 7.88762H11.6326C11.6326 6.75279 10.8795 6.20223 9.73313 6.20223C8.73285 6.20223 8.08097 6.68538 8.08097 7.55054C8.08097 8.58425 9.46339 8.82021 11.183 9.13481C14.0377 9.65167 17.8366 10.2359 17.8366 14.8202C17.8029 18.5505 14.6334 21 9.84552 21Z"/><path fill="#101010" d="M44.1027 3.30322L44.0914 24.8088H36.3814C36.3814 24.8088 33.1894 25.4381 31.5935 25.4381C24.6589 25.4381 17.9491 20.483 17.9491 11.3594C17.9491 4.80884 22.6696 0.0560303 29.1658 0.0560303C30.818 0.0560303 32.4364 0.449289 33.9087 1.19086L34.201 0.606592H41.675L44.1027 3.30322Z"/><path fill="#101010" d="M29.1769 22.7414C26.0412 22.7414 23.1752 21.5954 21.1297 19.5055C19.0841 17.4156 17.9602 14.5392 17.9602 11.3594C17.9602 4.80884 22.6807 0.0560303 29.1769 0.0560303C30.8291 0.0560303 32.4475 0.449289 33.9198 1.19086L34.2008 0.606592H41.6749L41.6636 22.1122H33.9536L33.785 21.6852C32.3464 22.3931 30.7729 22.7527 29.1769 22.7414ZM29.9974 9.03356C28.6262 9.03356 27.7046 9.97738 27.7046 11.3931C27.7046 12.7864 28.6487 13.7527 29.9974 13.7527C31.3461 13.7527 32.2902 12.7751 32.2902 11.3931C32.2902 10.0111 31.3461 9.03356 29.9974 9.03356Z"/><path fill="#101010" d="M39.9216 2.35958V20.3708H35.1337L34.6167 19.1012C33.0769 20.3483 31.155 21.0225 29.1769 21C23.6585 21 19.7023 16.9663 19.7023 11.3596C19.7023 5.77531 23.6247 1.78655 29.1769 1.78655C31.1887 1.76407 33.1331 2.44947 34.6953 3.71913L35.3135 2.3034L39.9216 2.35958ZM34.0322 11.3933C34.0322 9.05621 32.3126 7.29216 29.9974 7.29216C27.6596 7.29216 25.9625 9.04497 25.9625 11.3933C25.9625 13.7416 27.6821 15.4944 29.9974 15.4944C32.3126 15.4944 34.0322 13.7304 34.0322 11.3933Z"/><path fill="#FEE002" d="M39.9216 2.35958V20.3708H35.1337L34.6167 19.1012C33.0769 20.3483 31.155 21.0225 29.1769 21C23.6585 21 19.7023 16.9663 19.7023 11.3596C19.7023 5.77531 23.6247 1.78655 29.1769 1.78655C31.1887 1.76407 33.1331 2.44947 34.6953 3.71913L35.3135 2.3034L39.9216 2.35958ZM34.0322 11.3933C34.0322 9.05621 32.3126 7.29216 29.9974 7.29216C27.6596 7.29216 25.9625 9.04497 25.9625 11.3933C25.9625 13.7416 27.6821 15.4944 29.9974 15.4944C32.3126 15.4944 34.0322 13.7304 34.0322 11.3933Z"/><path fill="#101010" d="M66.6935 21.1234C66.6935 27.7639 62.209 32.056 55.2745 32.056C50.7226 32.056 43.035 29.6066 41.1918 19.0223C42.5854 19.0223 44.5748 19.0223 44.5748 19.0223C42.3831 17.0785 41.0344 14.2021 41.0344 10.8875C41.0344 7.93243 42.1246 5.21333 44.114 3.21333C46.1033 1.21333 48.8344 0.0672607 51.8016 0.0672607C53.5661 0.0672607 55.3082 0.516699 56.8592 1.37063L57.2413 0.65153H64.2096L66.6373 3.34816L66.6935 21.1234Z"/><path fill="#101010" d="M52.8468 29.3594C46.89 29.3594 42.4168 25.9661 41.1918 19.0223C42.7877 19.0223 44.5748 19.0223 44.5748 19.0223C42.3831 17.0785 41.0344 14.2021 41.0344 10.8875C41.0344 7.93243 42.1246 5.21333 44.114 3.21333C46.1033 1.21333 48.8344 0.0672607 51.8016 0.0672607C53.5661 0.0672607 55.3082 0.516699 56.8592 1.37063L57.2413 0.65153H64.2096L64.2658 18.4268C64.2658 25.0673 59.7814 29.3594 52.8468 29.3594ZM52.8805 8.68524C51.6217 8.68524 50.7676 9.56164 50.7676 10.865C50.7676 11.5616 50.9699 12.1234 51.3632 12.5279C51.7341 12.8987 52.2624 13.0897 52.8805 13.0897C54.1393 13.0897 54.9598 12.2133 54.9598 10.865C54.9598 9.53917 54.1393 8.68524 52.8805 8.68524Z"/><path fill="#101010" d="M62.5236 2.35914V18.4153C62.5236 24.1007 58.8034 27.6176 52.8466 27.6176C47.7104 27.6176 44.1251 25.0333 43.3046 20.7636H49.2951C49.7109 21.9659 51.2619 22.6288 52.7792 22.6288C54.8472 22.6288 56.5331 21.3254 56.5331 19.1457V18.5951C55.117 19.494 53.4873 19.9547 51.8126 19.9434C46.6426 19.9434 42.7876 16.0895 42.7876 10.8872C42.7876 5.7524 46.6426 1.83105 51.8126 1.83105C53.9031 1.83105 55.9149 2.57263 57.4997 3.93218L58.2976 2.41532L62.5236 2.35914ZM52.8804 14.8311C55.117 14.8311 56.7017 13.1794 56.7017 10.8648C56.7017 8.5951 55.117 6.94342 52.8804 6.94342C50.6438 6.94342 49.0253 8.5951 49.0253 10.8648C49.0141 13.1794 50.5988 14.8311 52.8804 14.8311Z"/><path fill="#FEE002" d="M62.5236 2.35914V18.4153C62.5236 24.1007 58.8034 27.6176 52.8466 27.6176C47.7104 27.6176 44.1251 25.0333 43.3046 20.7636H49.2951C49.7109 21.9659 51.2619 22.6288 52.7792 22.6288C54.8472 22.6288 56.5331 21.3254 56.5331 19.1457V18.5951C55.117 19.494 53.4873 19.9547 51.8126 19.9434C46.6426 19.9434 42.7876 16.0895 42.7876 10.8872C42.7876 5.7524 46.6426 1.83105 51.8126 1.83105C53.9031 1.83105 55.9149 2.57263 57.4997 3.93218L58.2976 2.41532L62.5236 2.35914ZM52.8804 14.8311C55.117 14.8311 56.7017 13.1794 56.7017 10.8648C56.7017 8.5951 55.117 6.94342 52.8804 6.94342C50.6438 6.94342 49.0253 8.5951 49.0253 10.8648C49.0141 13.1794 50.5988 14.8311 52.8804 14.8311Z"/><path fill="#101010" d="M89.8234 3.30322L89.8121 24.8088H82.1021C82.1021 24.8088 78.9101 25.4381 77.3142 25.4381C70.3796 25.4381 63.6698 20.483 63.6698 11.3594C63.6698 4.80884 68.3903 0.0560303 74.8865 0.0560303C76.5387 0.0560303 78.1571 0.449289 79.6294 1.19086L79.9104 0.606592H87.3845L89.8234 3.30322Z"/><path fill="#101010" d="M74.8976 22.7415C71.7619 22.7415 68.8959 21.5955 66.8504 19.5056C64.8048 17.4157 63.6809 14.5393 63.6809 11.3595C63.6809 4.80896 68.4014 0.0449219 74.8976 0.0449219C76.5498 0.0449219 78.1682 0.43818 79.6405 1.19099L79.9215 0.606719H87.3956L87.3843 22.1123H79.6855L79.5169 21.6854C78.0671 22.3932 76.4936 22.7528 74.8976 22.7415ZM75.7181 9.03368C74.3469 9.03368 73.4253 9.9775 73.4253 11.3932C73.4253 12.7865 74.3694 13.7528 75.7181 13.7528C77.0668 13.7528 78.0109 12.7753 78.0109 11.3932C78.0109 10.0112 77.0668 9.03368 75.7181 9.03368Z"/><path fill="#101010" d="M85.6423 2.35958V20.3708H80.8544L80.3374 19.1012C78.7976 20.3483 76.8757 21.0225 74.8976 21C69.3792 21 65.423 16.9663 65.423 11.3596C65.423 5.77531 69.3454 1.78655 74.8976 1.78655C76.9094 1.76407 78.8538 2.44947 80.4161 3.71913L81.0342 2.3034L85.6423 2.35958ZM79.7529 11.3933C79.7529 9.05621 78.0333 7.29216 75.7181 7.29216C73.3803 7.29216 71.6832 9.04497 71.6832 11.3933C71.6832 13.7416 73.4028 15.4944 75.7181 15.4944C78.0333 15.4944 79.7529 13.7304 79.7529 11.3933Z"/><path fill="#FEE002" d="M85.6423 2.35958V20.3708H80.8544L80.3374 19.1012C78.7976 20.3483 76.8757 21.0225 74.8976 21C69.3792 21 65.423 16.9663 65.423 11.3596C65.423 5.77531 69.3454 1.78655 74.8976 1.78655C76.9094 1.76407 78.8538 2.44947 80.4161 3.71913L81.0342 2.3034L85.6423 2.35958ZM79.7529 11.3933C79.7529 9.05621 78.0333 7.29216 75.7181 7.29216C73.3803 7.29216 71.6832 9.04497 71.6832 11.3933C71.6832 13.7416 73.4028 15.4944 75.7181 15.4944C78.0333 15.4944 79.7529 13.7304 79.7529 11.3933Z"/></g><defs><clipPath id="clip0"><rect width="89.756" height="32" fill="#fff"/></clipPath></defs></svg>