
<svg width="88px" height="88px" viewBox="0 0 88 88" version="1.1" xmlns="http://www.w3.org/2000/svg" xmlns:xlink="http://www.w3.org/1999/xlink">
    <g id="Page-1" stroke="none" stroke-width="1" fill="none" fill-rule="evenodd">
        <g id="Group" fill-rule="nonzero">
            <path d="M20.709375,38.61875 L20.709375,50.15 C22.521875,53.26875 25.084375,55.88125 28.153125,57.759375 L28.153125,38.61875 L20.6875,38.61875 L20.709375,38.61875 Z" id="Path" fill="#424242"></path>
            <path d="M34.5125,28.0375 L34.5125,60.975 C36.053125,61.203125 37.63125,61.35 39.25,61.35 C40.728125,61.35 42.16875,61.21875 43.58125,61.025 L43.58125,28.0375 L34.5125,28.0375 Z" id="Path" fill="#616161"></path>
            <path d="M50.91875,43.15625 L50.91875,57.54375 C54.0416101,55.5589364 56.6059419,52.8095941 58.36875,49.55625 L58.36875,43.15 L50.91875,43.15 L50.91875,43.15625 Z M68.85625,62.634375 L62.6375,68.859375 C61.9175565,69.5814087 61.9175565,70.7498413 62.6375,71.471875 L78.125,86.96875 C78.84375,87.6875 80.01875,87.6875 80.7375,86.96875 L86.9625,80.75 C87.6810943,80.0261903 87.6810943,78.8581847 86.9625,78.134375 L71.471875,62.646875 C70.7513757,61.9409779 69.5986243,61.9409779 68.878125,62.646875" id="Shape" fill="#424242"></path>
            <path d="M39.421875,0 C17.65,0 0,17.65 0,39.421875 C0,61.19375 17.65,78.84375 39.421875,78.84375 C61.190625,78.84375 78.840625,61.19375 78.840625,39.421875 C78.84375,17.65 61.1875,0 39.40625,0 M39.40625,68.625 C23.2773038,68.6250001 10.2017258,55.5508211 10.2,39.421875 C10.1987361,27.607217 17.3149085,16.9552622 28.2299875,12.4334044 C39.1450664,7.91154662 51.7092971,10.4103782 60.063522,18.764603 C68.4177468,27.1188279 70.9165784,39.6830586 66.3947206,50.5981375 C61.8728628,61.5132165 51.220908,68.6293889 39.40625,68.628125" id="Shape" fill="#757575"></path>
        </g>
    </g>
</svg>