<svg width="32" height="32" viewBox="0 0 32 32" fill="none" xmlns="http://www.w3.org/2000/svg">
<path d="M7.16741 14.4001H24.8311C28.3511 14.4001 31.1984 11.5201 31.1984 8.0327C31.1984 4.5127 28.3184 1.66534 24.8311 1.66534L7.16741 1.66409C3.64741 1.66409 0.800049 4.54409 0.800049 8.03145C0.800049 11.5201 3.68005 14.4001 7.16741 14.4001V14.4001ZM24.8324 4.44742C26.8161 4.44742 28.416 6.07994 28.416 8.0311C28.416 9.98362 26.7835 11.6148 24.8324 11.6148C22.8486 11.6148 21.2487 9.98227 21.2487 8.0311C21.2474 6.07984 22.8474 4.44742 24.8324 4.44742V4.44742Z" fill="black"/>
<path opacity="0.5" d="M24.8329 17.6H7.1679C3.6479 17.6 0.800537 20.48 0.800537 23.9674C0.800537 27.4874 3.68054 30.3348 7.1679 30.3348H24.8316C28.3516 30.3348 31.1989 27.4548 31.1989 23.9674C31.2002 20.48 28.3202 17.6 24.8325 17.6H24.8329ZM7.1679 27.5527C5.18415 27.5527 3.58422 25.9202 3.58422 23.969C3.58422 21.9853 5.21673 20.3853 7.1679 20.3853C9.15164 20.3853 10.7516 22.0178 10.7516 23.969C10.7528 25.9527 9.15283 27.5527 7.1679 27.5527Z" fill="black"/>
</svg>
