<svg width="32" height="32" viewBox="0 0 32 32" fill="none" xmlns="http://www.w3.org/2000/svg">
<path d="M7.52943 28.2353C7.52943 30.3147 5.84412 32 3.76471 32C1.68531 32 0 30.3147 0 28.2353V3.76471C0 1.68531 1.68531 0 3.76471 0C5.84412 0 7.52943 1.68531 7.52943 3.76471V28.2353Z" fill="black"/>
<path opacity="0.75" d="M19.2909 28.2352C19.2909 30.3146 17.6056 31.9999 15.5262 31.9999C13.4468 31.9999 11.7615 30.3146 11.7615 28.2352V13.1764C11.7615 11.097 13.4468 9.41167 15.5262 9.41167C17.6056 9.41167 19.2909 11.097 19.2909 13.1764V28.2352Z" fill="black"/>
<path opacity="0.5" d="M31.0494 28.2352C31.0494 30.3146 29.3641 31.9999 27.2847 31.9999C25.2053 31.9999 23.52 30.3146 23.52 28.2352V18.8234C23.52 16.744 25.2053 15.0587 27.2847 15.0587C29.3641 15.0587 31.0494 16.744 31.0494 18.8234V28.2352Z" fill="black"/>
</svg>
