<svg width="32" height="32" viewBox="0 0 32 32" fill="none" xmlns="http://www.w3.org/2000/svg">
<g clip-path="url(#clip0_4069_88312)">
<path fill-rule="evenodd" clip-rule="evenodd" d="M0 0.726828V10.9094C0 11.3103 0.325921 11.6362 0.726828 11.6348C1.12774 11.6348 1.45366 11.3089 1.45366 10.908V1.45366H10.9094C11.3103 1.45366 11.6362 1.12774 11.6362 0.726828C11.6362 0.325917 11.3103 0 10.9094 0H0.726828C0.325917 0 0 0.325921 0 0.726828ZM21.0906 0H31.2732C31.6741 0 32 0.325921 32 0.726828L31.9986 10.908C31.9986 11.3089 31.6727 11.6348 31.2718 11.6348C30.8709 11.6348 30.5449 11.3089 30.5449 10.908V1.45366H21.0906C20.6897 1.45366 20.3638 1.12774 20.3638 0.726828C20.3638 0.325917 20.6897 0 21.0906 0ZM30.5463 21.0906C30.5463 20.6897 30.8723 20.3638 31.2732 20.3638C31.6741 20.3638 32 20.6897 32 21.0906V31.2731C32 31.6741 31.6741 32 31.2732 32H21.0906C20.6897 32 20.3638 31.6741 20.3638 31.2731C20.3638 30.8722 20.6897 30.5463 21.0906 30.5463L30.5463 30.545V21.0906ZM1.45366 30.5463H10.9094C11.3103 30.5463 11.6362 30.8723 11.6362 31.2732C11.6362 31.6741 11.3103 32 10.9094 32H0.726828C0.325917 32 0 31.6741 0 31.2732V21.0906C0 20.6897 0.325917 20.3638 0.726828 20.3638C1.12774 20.3638 1.45366 20.6897 1.45366 21.0906V30.5463ZM16 9.45436C19.6083 9.45436 22.5456 12.3917 22.5456 16C22.5456 19.6083 19.6083 22.5457 16 22.5457C12.3917 22.5457 9.45435 19.6083 9.45435 16C9.45435 12.3917 12.3917 9.45436 16 9.45436Z" fill="black"/>
</g>
<defs>
<clipPath id="clip0_4069_88312">
<rect width="32" height="32" fill="white"/>
</clipPath>
</defs>
</svg>
