<svg width="32" height="32" viewBox="0 0 32 32" fill="none" xmlns="http://www.w3.org/2000/svg">
<path d="M25.4383 15.4118H22.9376C21.9354 15.4146 20.9701 15.0331 20.2386 14.3467L16.0836 10.4514L13.0483 7.60617C11.9736 6.59578 10.5531 6.03382 9.07772 6.03655H6.57703C6.6618 6.34145 6.70418 6.65591 6.70282 6.97176C6.70418 7.28896 6.6618 7.60617 6.57703 7.91107H9.07772C10.0772 7.9097 11.0397 8.29115 11.7671 8.97616L16.0821 13.022L18.9574 15.7168C20.0334 16.7272 21.4526 17.2878 22.928 17.2878H25.4287C25.348 16.9802 25.3111 16.6644 25.3179 16.3472C25.3166 16.0313 25.3576 15.7168 25.4382 15.4119L25.4383 15.4118Z" fill="black"/>
<path opacity="0.5" d="M17.5574 15.4276L16.1382 14.1028L16.0835 14.2121L14.4482 17.268L15.8675 18.5983L16.0835 18.1977L17.5574 15.4276Z" fill="black"/>
<path opacity="0.5" d="M11.3752 23.0284C10.7996 24.1126 9.67294 24.7894 8.44516 24.788H6.56519C6.64996 25.0929 6.69234 25.4073 6.68961 25.7232C6.69234 26.0404 6.64996 26.3576 6.56519 26.6639H8.44516C9.38719 26.6652 10.3114 26.4096 11.1195 25.9255C11.9275 25.4402 12.5879 24.7456 13.0309 23.913L14.2204 21.683L12.8053 20.3485L11.3752 23.0284Z" fill="black"/>
<path opacity="0.5" d="M25.4385 6.03654H23.5586C22.6165 6.03654 21.6923 6.29222 20.8856 6.77623C20.0775 7.26024 19.4172 7.95617 18.9728 8.78609L17.7833 11.0161L19.2039 12.3464L20.6286 9.67072V9.67209C21.2042 8.58785 22.3308 7.91109 23.5586 7.91109H25.444C25.3593 7.6062 25.3169 7.28901 25.3182 6.97179C25.3169 6.65596 25.3579 6.34148 25.4386 6.03658L25.4385 6.03654Z" fill="black"/>
<path opacity="0.5" d="M25.4388 24.7876H22.9381C21.9387 24.7876 20.9775 24.4062 20.2487 23.7226L16.0843 19.8479L13.049 17.0026C11.9743 15.9909 10.5537 15.4303 9.07837 15.433H6.57768C6.65835 15.7311 6.69663 16.0387 6.69254 16.3477C6.69527 16.6649 6.65289 16.9821 6.56812 17.2884H9.0688C10.071 17.2829 11.0376 17.6616 11.7677 18.348L16.0827 22.3938L18.9581 25.0887C20.0341 26.0977 21.4533 26.6596 22.9286 26.6583H25.4293C25.3446 26.352 25.3022 26.0362 25.3035 25.7176C25.3076 25.4031 25.3541 25.0914 25.4389 24.7879L25.4388 24.7876Z" fill="black"/>
<path opacity="0.5" d="M5.94103 6.97269C5.94103 5.80507 5.25742 4.74543 4.19369 4.26416C3.12995 3.78289 1.88165 3.9702 1.00662 4.7427C0.13021 5.51519 -0.211615 6.72932 0.131575 7.845C0.476124 8.96067 1.4414 9.77282 2.60083 9.91776V9.94237V13.3783V13.4029C1.12146 13.5957 0.0153701 14.8562 0.0153701 16.3479C0.0153701 17.8396 1.12149 19.1002 2.60083 19.293V22.7289C1.04491 22.9231 -0.0912797 24.2958 0.00577967 25.8613C0.104222 27.4254 1.40175 28.645 2.96999 28.645C4.53961 28.645 5.83711 27.4254 5.93557 25.8613C6.03265 24.2958 4.89645 22.9231 3.34052 22.7289V19.3176C4.8199 19.1248 5.92598 17.8643 5.92598 16.3726C5.92598 14.8809 4.81986 13.6203 3.34052 13.4275V13.4029V9.94237V9.91776C4.82536 9.73181 5.93967 8.46848 5.94103 6.97269V6.97269Z" fill="black"/>
<path d="M4.19378 4.26423C5.25751 4.74551 5.94113 5.80514 5.94113 6.97276C5.93976 8.46856 4.82545 9.73189 3.34061 9.91783H2.60092C1.4415 9.77289 0.476214 8.96075 0.131665 7.84507C-0.211526 6.7294 0.1303 5.51526 1.00671 4.74278C1.88175 3.97028 3.13004 3.78296 4.19378 4.26423Z" fill="black"/>
<path opacity="0.5" d="M31.9995 16.3476C31.9982 14.8505 30.8838 13.5885 29.399 13.4026V13.3779V9.94205V9.91744C30.9549 9.72192 32.0911 8.35056 31.9941 6.78508C31.8956 5.21956 30.5981 4 29.0298 4C27.4602 4 26.1627 5.2196 26.0643 6.78508C25.9672 8.35059 27.1034 9.72192 28.6593 9.91744V9.94205V13.3779V13.4026C27.1799 13.5953 26.0738 14.8559 26.0738 16.3476C26.0738 17.8393 27.18 19.0999 28.6593 19.2927V22.7286C27.1034 22.9227 25.9672 24.2955 26.0643 25.861C26.1627 27.4251 27.4602 28.6447 29.0298 28.6447C30.5981 28.6447 31.8956 27.4251 31.9941 25.861C32.0911 24.2954 30.9549 22.9227 29.399 22.7286V19.3173C30.8934 19.13 32.0104 17.8543 31.9995 16.3476V16.3476Z" fill="black"/>
<path d="M29.3985 13.4025C30.8834 13.5885 31.9977 14.8505 31.999 16.3476C32.0099 17.8543 30.8929 19.13 29.3985 19.3173L28.6588 19.2927C27.1795 19.0999 26.0734 17.8393 26.0734 16.3476C26.0734 14.8559 27.1794 13.5953 28.6588 13.4025H29.3985Z" fill="black"/>
</svg>
