<svg width="32" height="32" viewBox="0 0 32 32" fill="none" xmlns="http://www.w3.org/2000/svg">
<path d="M6.95231 12.4138V23.6576C6.95231 25.7263 8.67855 27.3939 10.8525 27.3939H21.1161C23.0361 27.3939 24.6073 26.0914 24.9475 24.3614V24.3602C24.9488 24.3552 24.9488 24.3502 24.95 24.3452C24.98 24.1789 25.0038 24.0101 25.0113 23.8377C25.0138 23.7764 25.0163 23.7177 25.0163 23.6577V22.5389C25 22.4989 24.9925 22.4552 24.9925 22.4102V15.789V15.7903C24.9925 15.7465 25 15.7028 25.0163 15.6615V12.4151L6.95231 12.4138ZM25.6886 14.1263V15.4525H28.7824C28.8711 15.4525 28.9574 15.4875 29.0199 15.5513C29.0836 15.6138 29.1186 15.7 29.1186 15.7888V22.4099C29.1186 22.4986 29.0836 22.5849 29.0199 22.6474C28.9574 22.7099 28.8711 22.7461 28.7824 22.7461H25.6886V23.6574C25.6886 23.7974 25.6811 23.9361 25.6661 24.0724H28.2836C29.3811 24.0724 30.2561 23.1912 30.2561 22.0811V16.1173C30.2561 15.0073 29.3811 14.126 28.2836 14.126L25.6886 14.1263ZM23.4699 18.9237C23.5611 18.9212 23.6486 18.9575 23.7124 19.0212C23.7761 19.0862 23.8124 19.1737 23.8111 19.2637V20.4225C23.8136 20.5137 23.7799 20.6025 23.7161 20.6675C23.6524 20.7325 23.5661 20.77 23.4749 20.77C23.3836 20.77 23.2961 20.7325 23.2336 20.6675C23.1699 20.6025 23.1361 20.5137 23.1386 20.4225V19.2637C23.1361 19.0787 23.2849 18.9262 23.4699 18.9237ZM23.4699 21.2425V21.2412C23.5599 21.24 23.6474 21.2762 23.7124 21.34C23.7761 21.4037 23.8111 21.4912 23.8111 21.5812V22.7412C23.8111 23.2525 23.7036 23.7412 23.5086 24.1837C23.3136 24.6262 23.0324 25.0237 22.6861 25.3575C22.3386 25.69 21.9261 25.9587 21.4686 26.1437C21.0111 26.3287 20.5074 26.4312 19.9799 26.4312H19.9811C19.8899 26.4337 19.8024 26.3987 19.7374 26.3362C19.6724 26.2725 19.6349 26.1862 19.6349 26.095C19.6349 26.0037 19.6724 25.9175 19.7374 25.8537C19.8024 25.7912 19.8899 25.7562 19.9811 25.7587C20.4224 25.7587 20.8386 25.6737 21.2174 25.5212C21.5961 25.3674 21.9361 25.1462 22.2211 24.8737C22.5061 24.6 22.7349 24.275 22.8936 23.915C23.0511 23.555 23.1386 23.16 23.1386 22.7424V21.5824H23.1399C23.1374 21.3975 23.2849 21.245 23.4699 21.2425ZM1.01611 28.1036C1.09861 28.1948 1.19111 28.2886 1.34987 28.3923C1.73237 28.6411 2.31487 28.8848 3.01362 29.0898C4.41112 29.4973 6.27474 29.7561 8.03474 29.7561H24.0971C25.9934 29.7561 27.8133 29.4986 29.1333 29.0923C29.7933 28.8898 30.3271 28.6473 30.672 28.4011C30.8195 28.2961 30.9096 28.1986 30.9845 28.1061L1.01611 28.1036ZM8.93995 30.4298C8.35247 30.4298 7.88619 30.8236 7.73995 31.3611H24.2299C24.0824 30.8248 23.6174 30.4298 23.0299 30.4298H8.93995Z" fill="black"/>
<path opacity="0.5" d="M9.96734 0.639987C9.87734 0.637488 9.78984 0.672487 9.72484 0.734989C9.65984 0.798739 9.62359 0.884989 9.62359 0.97624C9.62359 1.06624 9.65984 1.15249 9.72484 1.21624C9.78984 1.27999 9.87734 1.31374 9.96734 1.31124C10.5574 1.31124 11.1948 1.55499 11.5098 1.98251C11.8236 2.40999 11.9136 3.04875 11.2898 4.09876L9.95732 6.33876C9.24107 7.54375 9.35108 8.64625 9.86107 9.39252C10.3711 10.1388 11.2161 10.5513 11.9761 10.5513V10.5525C12.1573 10.5475 12.3023 10.3988 12.3023 10.2163C12.3023 10.035 12.1573 9.88628 11.9761 9.88126C11.4761 9.88126 10.7886 9.56126 10.4161 9.01502C10.0436 8.46878 9.91982 7.72001 10.5348 6.68375L11.8673 4.44376C12.5748 3.25249 12.5374 2.245 12.0511 1.585C11.5649 0.925004 10.7323 0.64126 9.9686 0.64126L9.96734 0.639987ZM15.3011 0.639987C15.2111 0.637488 15.1236 0.672487 15.0586 0.734989C14.9936 0.798739 14.9573 0.884989 14.9573 0.97624C14.9573 1.06624 14.9936 1.15249 15.0586 1.21624C15.1236 1.27999 15.2111 1.31374 15.3011 1.31124C15.8911 1.31124 16.5286 1.55499 16.8436 1.98251C17.1573 2.40999 17.2486 3.04875 16.6236 4.09876L15.2911 6.33876C14.5748 7.54375 14.6848 8.64625 15.1948 9.39252C15.7048 10.1388 16.5486 10.5513 17.3098 10.5513V10.5525C17.4923 10.5475 17.6361 10.3988 17.6361 10.2163C17.6361 10.035 17.4923 9.88628 17.3098 9.88126C16.8086 9.88126 16.1224 9.56126 15.7498 9.01502C15.3773 8.46878 15.2523 7.72001 15.8686 6.68375L17.2011 4.44376C17.9086 3.25249 17.8698 2.245 17.3836 1.585C16.8974 0.925004 16.0648 0.64126 15.3011 0.64126L15.3011 0.639987ZM20.0787 0.639987C19.9887 0.637488 19.9012 0.672487 19.8362 0.734989C19.7712 0.798739 19.7349 0.884989 19.7349 0.97624C19.7349 1.06624 19.7712 1.15249 19.8362 1.21624C19.9012 1.27999 19.9887 1.31374 20.0787 1.31124C20.6687 1.31124 21.3062 1.55499 21.6199 1.98251C21.9337 2.40999 22.0237 3.04875 21.3999 4.09876L20.0674 6.33876C19.3512 7.54375 19.4612 8.64625 19.9712 9.39252C20.4812 10.1388 21.3262 10.5513 22.0862 10.5513L22.0874 10.5525C22.2687 10.5475 22.4137 10.3988 22.4137 10.2163C22.4137 10.035 22.2687 9.88628 22.0874 9.88126C21.5862 9.88126 20.9 9.56126 20.5262 9.01502C20.1537 8.46878 20.0299 7.72001 20.6449 6.68375L21.9775 4.44376C22.6849 3.25249 22.6475 2.245 22.1612 1.585C21.675 0.925004 20.8425 0.64126 20.0787 0.64126L20.0787 0.639987Z" fill="black"/>
</svg>
