<svg class="" width="23" height="23" fill="none" xmlns="http://www.w3.org/2000/svg" viewBox="0 0 23 23"><path d="M13.924 11.144c0 .803-.145 1.6-.428 2.351a6.679 6.679 0 01-2.352.429h-.01c-.803 0-1.6-.145-2.352-.428a6.663 6.663 0 01-.429-2.352v-.01c0-.829.152-1.621.427-2.353a6.656 6.656 0 012.353-.428h.009c.828 0 1.62.152 2.352.428a6.66 6.66 0 01.428 2.352v.01l.002.001zm8.199-1.862H15.62l4.597-4.597a11.184 11.184 0 00-2.626-2.625l-4.597 4.597V.155A11.191 11.191 0 0011.145 0h-.012c-.63 0-1.249.054-1.85.155v6.502l-4.6-4.598c-.506.36-.981.763-1.42 1.203l-.002.002c-.44.44-.842.915-1.202 1.421l4.599 4.597H.155S0 10.504 0 11.135v.008c0 .631.054 1.25.155 1.852h6.503l-4.6 4.597a11.217 11.217 0 002.627 2.625l4.598-4.596v6.502c.601.1 1.218.154 1.848.154h.015c.62 0 1.238-.052 1.848-.154V15.62l4.599 4.598a11.163 11.163 0 002.624-2.624l-4.597-4.599h6.503c.1-.601.154-1.218.154-1.848v-.016c0-.62-.052-1.238-.154-1.849z" fill="#FF4A00"></path></svg>