<svg xmlns="http://www.w3.org/2000/svg" width="36" height="36" viewBox="0 0 512 512"><defs><radialGradient id="m" cx="42%" cy="12%" r="74%"><stop offset="0%" stop-color="#08c5a3"/><stop offset="100%" stop-color="#08a9c5"/></radialGradient></defs><circle cx="256" cy="256" r="256" fill="url(#m)"/><path fill="#fff" d="M363.279 344.309v-95.746c0-34.76-18.012-54.983-47.715-54.983-27.176 0-50.875 20.856-50.875 56.879v93.85h-15.484v-96.695c0-33.5-18.327-54.035-47.083-54.035s-51.507 25.28-51.507 57.827v92.9h-15.483V183.151h15.483v28.756c10.428-16.748 24.964-32.548 53.719-32.548 28.124 0 45.5 16.116 54.352 34.76 10.428-18.012 27.807-34.76 58.143-34.76 38.235 0 61.935 26.86 61.935 67.307v97.642z"/></svg>