<svg width="0" height="0" class="hidden"><symbol xmlns="http://www.w3.org/2000/svg" id="faq" fill="none" viewBox="0 0 36 36"><path fill="currentColor" d="M18 0a18.002 18.002 0 0 0-3.511 35.654 18.002 18.002 0 0 0 16.24-30.383A18.004 18.004 0 0 0 18 0Zm0 29.455a1.636 1.636 0 1 1 .003-3.272A1.636 1.636 0 0 1 18 29.455Zm2.504-10.31a1.533 1.533 0 0 0-.867 1.457v.67A1.64 1.64 0 0 1 18 22.909a1.635 1.635 0 0 1-1.637-1.637v-.687a4.767 4.767 0 0 1 2.881-4.468 3.274 3.274 0 0 0 .579-5.745 3.286 3.286 0 0 0-1.659-.55 3.278 3.278 0 0 0-2.97 1.586 3.265 3.265 0 0 0-.466 1.683 1.636 1.636 0 0 1-3.274 0 6.54 6.54 0 0 1 4.88-6.339 6.564 6.564 0 0 1 6.302 1.703 6.553 6.553 0 0 1 1.812 3.458 6.55 6.55 0 0 1-3.944 7.216v.017Z"/></symbol></svg>