<svg class="LemonSticker" width="512" fill="currentColor" xmlns="http://www.w3.org/2000/svg" viewBox="0 0 100 100" height="512"><path d="M100,55.5v-16c0-5.79-4.71-10.5-10.5-10.5H85v-3.5c0-3.584-2.916-6.5-6.5-6.5H70V6 c0-2.209-1.791-4-4-4H35c-2.209,0-4,1.791-4,4v13h-7.5c-3.584,0-6.5,2.916-6.5,6.5v41c0,1.185,0.129,2.358,0.378,3.5H12.5 C8.916,70,6,72.916,6,76.5C6,86.149,13.851,94,23.5,94h55.949c9.649,0,17.5-7.851,17.5-17.5c0-3.584-2.916-6.5-6.5-6.5h-1.247 C95.151,67.644,100,63.063,100,55.5z" opacity=".35"></path><path fill="#f2f2f2" d="M98,53.5v-16C98,31.71,93.29,27,87.5,27H83v-3.5c0-3.584-2.916-6.5-6.5-6.5H68V4 c0-2.209-1.791-4-4-4H33c-2.209,0-4,1.791-4,4v13h-7.5c-3.584,0-6.5,2.916-6.5,6.5v41c0,1.185,0.129,2.358,0.378,3.5H10.5 C6.916,68,4,70.916,4,74.5C4,84.149,11.851,92,21.5,92h55.949c9.649,0,17.5-7.851,17.5-17.5c0-3.584-2.916-6.5-6.5-6.5h-1.247 C93.151,65.644,98,61.063,98,53.5z"></path><path fill="#d9eeff" d="M87.5,33.5h-11v-10h-55v41c0,5.523,4.477,11.5,10,11.5h35c5.523,0,10-5.977,10-11.5v-1 c0,0,15,0,15-10v-16C91.5,35.291,89.709,33.5,87.5,33.5z M85.5,52.5c0,4.043-5.446,4.906-9,5.04V39.5h9 C85.5,39.5,85.5,48.5,85.5,52.5z"></path><path fill="#94cfff" d="M77.449,85.5H21.5c-6.075,0-11-4.925-11-11v0h18.124L31,76h36l0.105-2.057L88.449,74.5v0 C88.449,80.575,83.525,85.5,77.449,85.5z"></path><path fill="none" stroke="#40396e" stroke-linecap="round" stroke-linejoin="round" stroke-miterlimit="10" stroke-width="3" d="M87.5,33.5h-11v-10h-55v41c0,5.523,4.477,10,10,10h-21c0,6.075,4.925,11,11,11h55.949c6.075,0,11-4.925,11-11H66.5 c5.523,0,10-4.477,10-10v-1c0,0,15,0,15-10v-16C91.5,35.291,89.709,33.5,87.5,33.5z M85.5,52.5c0,4.043-5.446,4.906-9,5.04V39.5h9 C85.5,39.5,85.5,48.5,85.5,52.5z"></path><path fill="#f2f2f2" d="M68,21H29V4c0-2.209,1.791-4,4-4h31c2.209,0,4,1.791,4,4V21z"></path><g><path fill="none" stroke="#40396e" stroke-linecap="round" stroke-linejoin="round" stroke-miterlimit="10" stroke-width="3" d="M43.489,6.539c-0.006,0,2,1.998,2,3.996c0,2.001-2,2.001-2,4.002s1.994,4.002,2,4.002"></path><path fill="none" stroke="#40396e" stroke-linecap="round" stroke-linejoin="round" stroke-miterlimit="10" stroke-width="3" d="M51.489,6.539c-0.006,0,2,1.998,2,3.996c0,2.001-2,2.001-2,4.002s1.994,4.002,2,4.002"></path><path fill="none" stroke="#40396e" stroke-linecap="round" stroke-linejoin="round" stroke-miterlimit="10" stroke-width="3" d="M59.489,6.539c-0.006,0,2,1.998,2,3.996c0,2.001-2,2.001-2,4.002s1.994,4.002,2,4.002"></path><g><path fill="none" stroke="#40396e" stroke-linecap="round" stroke-linejoin="round" stroke-miterlimit="10" stroke-width="3" d="M35.489,6.539c-0.006,0,2,1.998,2,3.996c0,2.001-2,2.001-2,4.002s1.994,4.002,2,4.002"></path></g></g></svg>