<svg xmlns="http://www.w3.org/2000/svg" viewBox="0 0 94 122"><path fill="#fff" d="M8.1 89.9 47.6 110l38-20.1V11.3H8.1z"/><path fill="#f2f3f2" d="M86.4 11.6 7.3 91.3l41 20.3 38.1-19.5z"/><path fill="#dcdedc" d="M5.5 37.5v54.1l1.4.7 39.5 20.1 1.2.6 1.2-.6 38.1-20.1 1.4-.7V8.7H5.5v28.8zm2.6 52.6V11.3h77.6v78.8l-38.1 20.1L8.1 90.1z"/><path fill="#ff492c" d="M46.9 12.6c.4 0 .8 0 1.2.1L46.9 15c-1.8-.1-3.4 1.3-3.5 3.1-.1 1.8 1.3 3.4 3.1 3.5h.4c.8 0 1.6-.3 2.2-.8l1.3 2.2c-1 .7-2.2 1.1-3.5 1.1-3.2.1-5.9-2.3-6-5.5-.1-3.2 2.3-5.9 5.5-6h.5zm4.1 4.9 1.5 2.5-1.5 2.4-1.4-2.4h-2.9l1.5-2.5H51zm-2.4-.9c0-.4.1-.8.3-1.1.2-.3.6-.6.9-.8l.2-.1c.4-.2.5-.3.5-.5s-.3-.4-.5-.4c-.4 0-.7.2-.9.6l-.5-.5c.1-.2.3-.4.5-.6.3-.2.6-.2.9-.2.3 0 .7.1.9.3.2.2.4.5.4.8 0 .5-.3.9-.9 1.1l-.3.2c-.3.2-.5.3-.6.6h1.8v.7l-2.7-.1zm-1.7 12.5 9.5-5.4v-15H37.3v14.9l9.6 5.5zM90.2 64.5H3.6l-3.2 7 3.2 7h86.6l3.1-7z"/><path fill="#252530" d="M25.3 60q-.07 0-.12-.05-.05-.05-.05-.12v-9.46q0-.07.05-.12.05-.05.12-.05h1.64q.07 0 .12.05.05.05.05.12v7.87q0 .07.07.07h4.58q.07 0 .11.04.05.05.05.12v1.36q0 .07-.05.12-.04.05-.11.05H25.3Zm14.09-4.34q.08.53.05 1.19-.01.17-.18.17h-4.33q-.08 0-.05.07.04.28.15.56.37.78 1.49.78.89-.01 1.41-.73.06-.08.13-.08.04 0 .09.06l1.01.99q.07.07.07.13 0 .02-.05.11-.47.57-1.19.89-.73.31-1.6.31-1.2 0-2.04-.54-.83-.55-1.19-1.53-.3-.7-.3-1.83 0-.77.21-1.36.32-1 1.13-1.58.8-.59 1.91-.59 1.4 0 2.25.81.84.81 1.03 2.17Zm-3.27-1.27q-.88 0-1.16.82-.05.18-.1.45 0 .07.07.07h2.43q.08 0 .05-.07-.07-.41-.07-.39-.12-.42-.44-.65-.31-.23-.78-.23Zm7.34-1.7q.91 0 1.62.32.72.31 1.12.86.4.54.4 1.22v4.74q0 .07-.05.12-.05.05-.12.05h-1.64q-.07 0-.12-.05-.05-.05-.05-.12v-.46q0-.04-.03-.06-.02-.01-.05.03-.59.77-1.89.77-1.09 0-1.77-.53-.67-.53-.67-1.57 0-1.08.76-1.67.75-.6 2.15-.6h1.43q.07 0 .07-.07v-.3q0-.47-.28-.73-.28-.25-.84-.25-.43 0-.72.15t-.37.43q-.04.16-.18.14l-1.7-.22q-.16-.03-.15-.13.06-.58.47-1.06.41-.48 1.09-.74.68-.27 1.52-.27Zm-.28 5.95q.6 0 1.02-.32.42-.32.42-.83v-.5q0-.07-.07-.07h-1.01q-.63 0-.98.24-.36.24-.36.67 0 .38.27.6.26.21.71.21Zm9.27-8.27q0-.07.05-.12.05-.05.12-.05h1.63q.07 0 .12.05.05.05.05.12v9.46q0 .07-.05.12-.05.05-.12.05h-1.63q-.07 0-.12-.05-.05-.05-.05-.12v-.46q0-.04-.03-.05-.03-.01-.06.02-.58.77-1.61.77-.98 0-1.68-.54-.71-.55-1.02-1.5-.24-.73-.24-1.7 0-.99.26-1.73.32-.9 1.01-1.42.69-.53 1.72-.53 1 0 1.56.7.03.04.06.03.03-.01.03-.06v-2.99Zm-.3 7.45q.28-.52.28-1.42 0-.94-.3-1.47-.33-.54-.94-.54-.66 0-1 .54-.35.55-.35 1.49 0 .84.3 1.4.35.6 1.03.6.63 0 .98-.6Zm10.13-2.16q.08.53.05 1.19-.01.17-.18.17h-4.33q-.08 0-.05.07.04.28.15.56.37.78 1.49.78.89-.01 1.41-.73.06-.08.13-.08.04 0 .09.06l1.01.99q.07.07.07.13 0 .02-.05.11-.47.57-1.19.89-.73.31-1.6.31-1.2 0-2.04-.54-.83-.55-1.19-1.53-.3-.7-.3-1.83 0-.77.21-1.36.32-1 1.13-1.58.8-.59 1.91-.59 1.4 0 2.25.81.84.81 1.03 2.17Zm-3.27-1.27q-.88 0-1.16.82-.05.18-.1.45 0 .07.07.07h2.43q.08 0 .05-.07-.07-.41-.07-.39-.12-.42-.44-.65-.31-.23-.78-.23Zm8.12-1.68q.51 0 .8.19.11.06.09.21l-.3 1.6q-.01.17-.19.1-.21-.07-.49-.07-.12 0-.31.02-.51.05-.86.37-.35.33-.35.88v3.82q0 .07-.04.12-.05.05-.12.05h-1.64q-.07 0-.12-.05-.05-.05-.05-.12v-6.86q0-.07.05-.12.05-.05.12-.05h1.64q.07 0 .12.05.04.05.04.12v.53q0 .05.03.06.03.01.04-.01.58-.84 1.54-.84ZM18.93 36.31q.07-.11.2-.11h1.64q.07 0 .12.05.05.05.05.12v9.46q0 .07-.05.12-.05.05-.12.05h-1.64q-.07 0-.12-.05-.05-.05-.05-.12v-6.17q0-.06-.03-.06-.02 0-.05.04l-1.49 2.33q-.07.11-.19.11h-.83q-.12 0-.19-.11l-1.49-2.33q-.03-.04-.05-.03-.03.01-.03.06v6.16q0 .07-.05.12-.05.05-.12.05H12.8q-.07 0-.12-.05-.05-.05-.05-.12v-9.46q0-.07.05-.12.05-.05.12-.05h1.64q.13 0 .2.11l2.1 3.26q.04.09.08 0l2.11-3.26Zm6.77 9.8q-1.18 0-2.02-.61-.84-.62-1.15-1.68-.19-.66-.19-1.43 0-.83.19-1.49.32-1.03 1.16-1.62.84-.59 2.02-.59 1.15 0 1.96.58t1.15 1.62q.22.7.22 1.47 0 .76-.19 1.41-.31 1.1-1.14 1.72-.84.62-2.01.62Zm0-1.69q.46 0 .78-.28t.46-.77q.11-.45.11-.98 0-.59-.11-1-.15-.47-.47-.74-.33-.26-.79-.26-.47 0-.79.26-.31.27-.45.74-.12.34-.12 1 0 .63.1.98.14.49.47.77.33.28.81.28Zm12.6-5.73q1.09 0 1.7.66.62.66.62 1.85v4.63q0 .07-.05.12-.05.05-.12.05h-1.64q-.07 0-.12-.05-.04-.05-.04-.12v-4.2q0-.57-.3-.91-.29-.33-.78-.33-.49 0-.8.33-.31.34-.31.9v4.21q0 .07-.05.12-.05.05-.12.05h-1.62q-.07 0-.12-.05-.05-.05-.05-.12v-4.2q0-.56-.31-.9-.3-.34-.79-.34-.45 0-.75.26-.3.27-.36.74v4.44q0 .07-.05.12-.05.05-.12.05h-1.64q-.07 0-.11-.05-.05-.05-.05-.12v-6.86q0-.07.05-.12.04-.05.11-.05h1.64q.07 0 .12.05.05.05.05.12v.55q0 .04.03.05.03.02.05-.02.58-.86 1.78-.86.7 0 1.23.3.52.29.8.84.04.08.1 0 .31-.58.83-.86.53-.28 1.19-.28Zm10.03 2.97q.09.53.06 1.19-.01.17-.18.17h-4.33q-.08 0-.05.07.04.28.15.56.36.78 1.48.78.9-.01 1.42-.73.05-.08.12-.08.05 0 .1.06l1.01.99q.07.07.07.13 0 .02-.06.11-.46.57-1.19.89-.72.31-1.59.31-1.21 0-2.04-.54-.83-.55-1.2-1.53-.29-.7-.29-1.83 0-.77.21-1.36.32-1 1.13-1.58.8-.59 1.91-.59 1.4 0 2.24.81.85.81 1.03 2.17Zm-3.26-1.27q-.88 0-1.16.82-.06.18-.1.45 0 .07.07.07h2.42q.09 0 .06-.07-.07-.41-.07-.39-.13-.42-.44-.65-.32-.23-.78-.23Zm8.29-1.7q1.12 0 1.81.69.68.68.68 1.86v4.59q0 .07-.05.12-.05.05-.12.05h-1.63q-.07 0-.12-.05-.05-.05-.05-.12v-4.18q0-.56-.32-.91-.31-.35-.83-.35t-.83.35q-.32.35-.32.91v4.18q0 .07-.05.12-.05.05-.12.05h-1.63q-.07 0-.12-.05-.05-.05-.05-.12v-6.86q0-.07.05-.12.05-.05.12-.05h1.63q.07 0 .12.05.05.05.05.12v.49q0 .04.03.06.03.01.04-.02.58-.81 1.71-.81Zm8.04 1.53q0 .07-.05.12-.05.05-.12.05h-1.35q-.07 0-.07.07v2.96q0 .47.19.69.19.22.61.22h.46q.07 0 .12.05.05.05.05.12v1.33q0 .16-.17.18-.58.03-.84.03-1.16 0-1.73-.38-.58-.39-.59-1.45v-3.75q0-.07-.07-.07h-.8q-.07 0-.12-.05-.05-.05-.05-.12v-1.25q0-.07.05-.12.05-.05.12-.05h.8q.07 0 .07-.07v-1.66q0-.07.05-.12.05-.05.12-.05h1.57q.07 0 .11.05.05.05.05.12v1.66q0 .07.07.07h1.35q.07 0 .12.05.05.05.05.12v1.25Zm5.39-1.25q0-.07.04-.12.05-.05.12-.05h1.64q.07 0 .12.05.05.05.05.12v6.86q0 .07-.05.12-.05.05-.12.05h-1.64q-.07 0-.12-.05-.04-.05-.04-.12v-.47q0-.05-.03-.05-.03-.01-.06.03-.56.76-1.73.76-1.07 0-1.75-.65-.69-.64-.69-1.8v-4.68q0-.07.05-.12.05-.05.12-.05h1.62q.07 0 .12.05.05.05.05.12v4.19q0 .56.3.91t.83.35q.48 0 .79-.29.31-.29.38-.75v-4.41Zm11.41-.28q1.09 0 1.7.66.62.66.62 1.85v4.63q0 .07-.05.12-.05.05-.12.05h-1.64q-.07 0-.12-.05-.04-.05-.04-.12v-4.2q0-.57-.3-.91-.29-.33-.78-.33-.49 0-.8.33-.31.34-.31.9v4.21q0 .07-.05.12-.05.05-.12.05h-1.62q-.07 0-.12-.05-.05-.05-.05-.12v-4.2q0-.56-.31-.9-.3-.34-.79-.34-.45 0-.75.26-.3.27-.36.74v4.44q0 .07-.05.12-.05.05-.12.05h-1.64q-.07 0-.12-.05-.04-.05-.04-.12v-6.86q0-.07.04-.12.05-.05.12-.05h1.64q.07 0 .12.05.05.05.05.12v.55q0 .04.03.05.03.02.05-.02.58-.86 1.78-.86.7 0 1.23.3.52.29.8.84.04.08.1 0 .31-.58.83-.86.53-.28 1.19-.28Z"/><path fill="#fff" d="M31.2 75.4q-.11 0-.14-.1l-1.82-6.77-.01-.04q0-.09.11-.09h.98q.11 0 .14.1l1.14 4.56q.01.03.03.03.02 0 .03-.03l1.09-4.56q.03-.1.13-.1h.96q.11 0 .14.1l1.16 4.57q.01.03.03.03.02 0 .03-.03l1.12-4.57q.03-.1.14-.1h.93q.14 0 .11.13l-1.73 6.77q-.03.1-.14.1h-.93q-.11 0-.14-.1l-1.17-4.77q-.01-.03-.03-.04-.02 0-.03.04l-1.12 4.77q-.03.1-.13.1h-.88Zm7.41 0q-.05 0-.09-.04-.03-.03-.03-.08v-6.76q0-.05.03-.08.04-.04.09-.04h.92q.05 0 .08.04.04.03.04.08v6.76q0 .05-.04.08-.03.04-.08.04h-.92Zm6.57-6.88q0-.05.03-.08.04-.04.09-.04h.92q.05 0 .08.04.04.03.04.08v6.76q0 .05-.04.08-.03.04-.08.04h-.89q-.1 0-.14-.08l-2.88-4.72q-.02-.03-.04-.03-.02.01-.02.05l.02 4.66q0 .05-.04.08-.03.04-.08.04h-.92q-.05 0-.09-.04-.03-.03-.03-.08v-6.76q0-.05.03-.08.04-.04.09-.04h.89q.1 0 .14.08l2.87 4.72q.02.03.04.02.02 0 .02-.04l-.01-4.66Zm7.22-.12q.05 0 .08.04.04.03.04.08v.77q0 .05-.04.08-.03.04-.08.04h-1.84q-.05 0-.05.05v5.82q0 .05-.03.08-.04.04-.09.04h-.92q-.05 0-.08-.04-.04-.03-.04-.08v-5.82q0-.05-.05-.05h-1.77q-.05 0-.09-.04-.03-.03-.03-.08v-.77q0-.05.03-.08.04-.04.09-.04h4.87Zm5.93.88q0 .05-.04.08-.03.04-.08.04H54.8q-.05 0-.05.05v1.87q0 .05.05.05h2.29q.05 0 .09.03.03.04.03.09v.76q0 .05-.03.09-.04.03-.09.03H54.8q-.05 0-.05.05v1.93q0 .05.05.05h3.41q.05 0 .08.04.04.03.04.08v.76q0 .05-.04.08-.03.04-.08.04h-4.5q-.05 0-.09-.04-.03-.03-.03-.08v-6.76q0-.05.03-.08.04-.04.09-.04h4.5q.05 0 .08.04.04.03.04.08v.76Zm5.11 6.12q-.1 0-.14-.09l-1.32-2.88q-.02-.04-.06-.04h-1.2q-.05 0-.05.05v2.84q0 .05-.04.08-.03.04-.08.04h-.92q-.05 0-.09-.04-.03-.03-.03-.08v-6.76q0-.05.03-.08.04-.04.09-.04h2.75q.61 0 1.08.25.47.26.73.72.26.47.26 1.07 0 .69-.36 1.17-.35.49-.98.68-.02 0-.03.02-.01.02 0 .04l1.41 2.91q.02.04.02.06 0 .08-.11.08h-.96Zm-2.72-6q-.05 0-.05.05v1.99q0 .05.05.05h1.5q.48 0 .78-.29.29-.28.29-.75t-.29-.76q-.3-.29-.78-.29h-1.5Z"/><path fill="#252530" d="M33.49 93.46q-.03.03-.02.06.02.03.06.03h3.93q.07 0 .12.05.06.05.06.12v1.41q0 .07-.06.12-.05.05-.12.05h-6.52q-.08 0-.13-.05t-.05-.12v-1.34q0-.13.09-.22.71-.69 1.45-1.51.74-.82.93-1.02.4-.48.82-.92 1.32-1.46 1.32-2.17 0-.51-.36-.84-.36-.32-.94-.32t-.94.32q-.37.33-.37.87v.36q0 .07-.05.12-.05.05-.12.05h-1.71q-.07 0-.12-.05-.06-.05-.06-.12v-.68q.05-.78.5-1.39.45-.6 1.19-.92.75-.32 1.68-.32 1.03 0 1.79.39.76.38 1.17 1.03.42.66.42 1.45 0 .61-.31 1.25-.3.64-.91 1.38-.45.56-.97 1.12-.52.55-1.55 1.59l-.22.22Zm8.86 2q-1.6 0-2.52-.89-.93-.89-.93-2.43v-3.83q0-1.51.93-2.39.92-.89 2.52-.89 1.59 0 2.53.89.93.88.93 2.39v3.83q0 1.54-.93 2.43-.94.89-2.53.89Zm0-1.75q.65 0 1.03-.4.39-.4.39-1.07v-3.99q0-.66-.39-1.06-.38-.4-1.03-.4-.64 0-1.02.4-.39.4-.39 1.06v3.99q0 .67.39 1.07.38.4 1.02.4Zm7.52-.25q-.03.03-.01.06.01.03.06.03h3.93q.07 0 .12.05.05.05.05.12v1.41q0 .07-.05.12-.05.05-.12.05h-6.53q-.07 0-.12-.05-.05-.05-.05-.12v-1.34q0-.13.08-.22.72-.69 1.45-1.51.74-.82.93-1.02.41-.48.83-.92 1.32-1.46 1.32-2.17 0-.51-.36-.84-.37-.32-.95-.32t-.94.32q-.36.33-.36.87v.36q0 .07-.05.12-.05.05-.13.05h-1.71q-.07 0-.12-.05-.05-.05-.05-.12v-.68q.04-.78.49-1.39.45-.6 1.2-.92.75-.32 1.67-.32 1.03 0 1.79.39.77.38 1.18 1.03.41.66.41 1.45 0 .61-.3 1.25-.31.64-.92 1.38-.45.56-.97 1.12-.52.55-1.55 1.59l-.22.22Zm12.66-2.58q.07 0 .13.05.05.05.05.12v1.47q0 .07-.05.12-.06.05-.13.05h-.62q-.07 0-.07.07v2.37q0 .07-.05.12-.06.05-.13.05h-1.69q-.08 0-.13-.05t-.05-.12v-2.37q0-.07-.07-.07h-4.45q-.07 0-.13-.05-.05-.05-.05-.12v-1.16q0-.09.05-.22l2.61-5.86q.06-.13.2-.13h1.81q.1 0 .14.05.04.05-.01.15l-2.42 5.44q-.01.03 0 .06.02.03.05.03h2.2q.07 0 .07-.08v-1.79q0-.08.05-.13t.13-.05h1.69q.07 0 .13.05.05.05.05.13v1.79q0 .08.07.08h.62Z"/></svg>
