<svg xmlns="http://www.w3.org/2000/svg" viewBox="0 0 94 122"><path fill="#fff" d="M8.1 89.9 47.6 110l38-20.1V11.3H8.1z"/><path fill="#f2f3f2" d="M86.4 11.6 7.3 91.3l41 20.3 38.1-19.5z"/><path fill="#dcdedc" d="M5.5 37.5v54.1l1.4.7 39.5 20.1 1.2.6 1.2-.6 38.1-20.1 1.4-.7V8.7H5.5v28.8zm2.6 52.6V11.3h77.6v78.8l-38.1 20.1L8.1 90.1z"/><path fill="#ff492c" d="M46.9 12.6c.4 0 .8 0 1.2.1L46.9 15c-1.8-.1-3.4 1.3-3.5 3.1-.1 1.8 1.3 3.4 3.1 3.5h.4c.8 0 1.6-.3 2.2-.8l1.3 2.2c-1 .7-2.2 1.1-3.5 1.1-3.2.1-5.9-2.3-6-5.5-.1-3.2 2.3-5.9 5.5-6h.5zm4.1 4.9 1.5 2.5-1.5 2.4-1.4-2.4h-2.9l1.5-2.5H51zm-2.4-.9c0-.4.1-.8.3-1.1.2-.3.6-.6.9-.8l.2-.1c.4-.2.5-.3.5-.5s-.3-.4-.5-.4c-.4 0-.7.2-.9.6l-.5-.5c.1-.2.3-.4.5-.6.3-.2.6-.2.9-.2.3 0 .7.1.9.3.2.2.4.5.4.8 0 .5-.3.9-.9 1.1l-.3.2c-.3.2-.5.3-.6.6h1.8v.7l-2.7-.1zm-1.7 12.5 9.5-5.4v-15H37.3v14.9l9.6 5.5z"/><path fill="#2690ce" d="M90.2 64.5H3.6l-3.2 7 3.2 7h86.6l3.1-7z"/><path fill="#252530" d="M10.77 60q-.05 0-.09-.04-.04-.04-.04-.09v-7.44q0-.05.04-.09.04-.04.09-.04h1.29q.06 0 .09.04.04.04.04.09v7.44q0 .05-.04.09-.03.04-.09.04h-1.29Zm8.93-5.74q.86 0 1.35.52.48.51.48 1.45v3.64q0 .05-.04.09-.04.04-.09.04h-1.29q-.05 0-.09-.04-.04-.04-.04-.09v-3.3q0-.45-.23-.72-.23-.26-.62-.26-.38 0-.62.26-.25.27-.25.71v3.31q0 .05-.03.09-.04.04-.1.04h-1.27q-.06 0-.1-.04-.04-.04-.04-.09v-3.3q0-.44-.24-.71-.24-.27-.63-.27-.35 0-.58.21-.24.21-.28.58v3.49q0 .05-.04.09-.04.04-.1.04h-1.28q-.06 0-.1-.04-.04-.04-.04-.09v-5.39q0-.06.04-.1.04-.03.1-.03h1.28q.06 0 .1.03.04.04.04.1v.43q0 .03.02.04.02.01.04-.02.45-.67 1.4-.67.55 0 .96.23.41.23.63.66.04.06.08 0 .24-.45.66-.67.41-.22.92-.22Zm7.97 1.6q.2.57.2 1.32 0 .76-.21 1.38-.26.7-.8 1.12-.54.41-1.35.41-.79 0-1.23-.55-.02-.03-.04-.02-.03.01-.03.04v2.35q0 .06-.03.1-.04.04-.1.04H22.8q-.06 0-.1-.04-.04-.04-.04-.1v-7.43q0-.06.04-.1.04-.03.1-.03h1.28q.06 0 .1.03.03.04.03.1v.36q0 .03.03.04.02.01.04-.02.46-.6 1.28-.6.76 0 1.31.42.56.43.8 1.18Zm-1.68 2.47q.27-.43.27-1.17 0-.69-.23-1.1-.25-.47-.81-.47-.51 0-.76.47-.23.4-.23 1.11 0 .74.24 1.15.25.44.75.44.49 0 .77-.43ZM29 60q-.05 0-.09-.04-.04-.04-.04-.09v-7.44q0-.05.04-.09.04-.04.09-.04h1.29q.05 0 .09.04.04.04.04.09v7.44q0 .05-.04.09-.04.04-.09.04H29Zm7.56-3.41q.06.42.04.94-.01.13-.14.13h-3.4q-.07 0-.04.05.03.22.12.44.28.62 1.16.62.71-.01 1.11-.57.05-.07.1-.07.04 0 .08.04l.79.79q.06.05.06.09 0 .03-.05.09-.36.45-.93.7-.57.25-1.26.25-.94 0-1.6-.43-.65-.43-.94-1.2-.23-.55-.23-1.44 0-.61.17-1.07.25-.78.88-1.24.63-.46 1.5-.46 1.1 0 1.77.64.66.63.81 1.7Zm-2.57-1q-.69 0-.91.65-.04.14-.08.35 0 .06.06.06h1.9q.07 0 .05-.06-.06-.32-.06-.31-.1-.33-.35-.51-.24-.18-.61-.18Zm9.84-1.33q.86 0 1.34.52.48.51.48 1.45v3.64q0 .05-.03.09-.04.04-.1.04h-1.28q-.06 0-.1-.04-.04-.04-.04-.09v-3.3q0-.45-.23-.72-.23-.26-.61-.26-.39 0-.63.26-.24.27-.24.71v3.31q0 .05-.04.09-.04.04-.09.04h-1.28q-.06 0-.09-.04-.04-.04-.04-.09v-3.3q0-.44-.24-.71-.25-.27-.63-.27-.35 0-.59.21t-.28.58v3.49q0 .05-.04.09-.04.04-.09.04h-1.29q-.05 0-.09-.04-.04-.04-.04-.09v-5.39q0-.06.04-.1.04-.03.09-.03h1.29q.05 0 .09.03.04.04.04.1v.43q0 .03.02.04.02.01.05-.02.45-.67 1.39-.67.55 0 .96.23.42.23.64.66.03.06.07 0 .25-.45.66-.67.41-.22.93-.22Zm7.88 2.33q.07.42.05.94-.01.13-.14.13h-3.4q-.07 0-.05.05.04.22.12.44.29.62 1.17.62.7-.01 1.11-.57.04-.07.1-.07.03 0 .08.04l.79.79q.05.05.05.09 0 .03-.04.09-.36.45-.94.7-.57.25-1.25.25-.94 0-1.6-.43-.65-.43-.94-1.2-.23-.55-.23-1.44 0-.61.16-1.07.26-.78.89-1.24.63-.46 1.5-.46 1.1 0 1.77.64.66.63.8 1.7Zm-2.56-1q-.69 0-.91.65-.04.14-.08.35 0 .06.06.06h1.9q.07 0 .04-.06-.05-.32-.05-.31-.1-.33-.35-.51-.24-.18-.61-.18Zm6.51-1.33q.88 0 1.42.54.54.54.54 1.46v3.61q0 .05-.04.09-.03.04-.09.04H56.2q-.05 0-.09-.04-.04-.04-.04-.09v-3.29q0-.44-.25-.72-.24-.27-.65-.27-.41 0-.66.27-.24.28-.24.72v3.29q0 .05-.04.09-.04.04-.1.04h-1.28q-.06 0-.1-.04-.03-.04-.03-.09v-5.39q0-.06.03-.1.04-.03.1-.03h1.28q.06 0 .1.03.04.04.04.1v.38q0 .04.02.05.02.01.03-.01.45-.64 1.34-.64Zm6.32 1.2q0 .05-.04.09-.04.04-.09.04h-1.06q-.05 0-.05.05v2.34q0 .36.14.54.15.17.48.17h.37q.05 0 .09.04.04.04.04.09v1.05q0 .12-.13.14-.47.02-.67.02-.91 0-1.36-.3-.45-.3-.46-1.14v-2.95q0-.05-.06-.05h-.62q-.06 0-.1-.04-.03-.04-.03-.09v-.98q0-.06.03-.1.04-.03.1-.03h.62q.06 0 .06-.06v-1.31q0-.05.04-.09.04-.04.09-.04h1.23q.06 0 .1.04.04.04.04.09v1.31q0 .06.05.06h1.06q.05 0 .09.03.04.04.04.1v.98Zm3.19-1.2q.71 0 1.27.25.57.24.88.67.31.43.31.96v3.73q0 .05-.04.09-.03.04-.09.04h-1.29q-.05 0-.09-.04-.04-.04-.04-.09v-.36q0-.04-.02-.05-.02-.01-.04.02-.47.61-1.49.61-.86 0-1.39-.42-.52-.42-.52-1.23 0-.85.59-1.32.59-.46 1.69-.46h1.13q.05 0 .05-.06v-.24q0-.36-.22-.57-.22-.2-.66-.2-.34 0-.57.12-.22.12-.29.34-.03.12-.14.11l-1.33-.17q-.13-.03-.12-.1.04-.47.37-.84.32-.37.85-.58.54-.21 1.2-.21Zm-.22 4.67q.47 0 .8-.25.33-.25.33-.65v-.39q0-.06-.05-.06h-.8q-.49 0-.77.19-.28.18-.28.53 0 .29.21.46.21.17.56.17Zm8.78-3.14q.21.57.21 1.36 0 .76-.19 1.33-.25.75-.81 1.18-.56.43-1.31.43-.81 0-1.27-.61-.02-.02-.04-.01-.03 0-.03.04v.36q0 .05-.03.09-.04.04-.1.04h-1.28q-.06 0-.1-.04-.04-.04-.04-.09v-7.44q0-.05.04-.09.04-.04.1-.04h1.28q.06 0 .1.04.03.04.03.09v2.36q0 .03.03.04.02.01.04-.02.43-.55 1.22-.55.8 0 1.35.41.54.41.8 1.12Zm-1.63 2.49q.23-.41.23-1.1 0-.75-.27-1.16-.26-.43-.78-.43-.48 0-.73.43-.24.42-.24 1.15 0 .74.21 1.11.27.48.78.48.53 0 .8-.48ZM75.08 60q-.06 0-.09-.04-.04-.04-.04-.09v-7.44q0-.05.04-.09.03-.04.09-.04h1.29q.05 0 .09.04.04.04.04.09v7.44q0 .05-.04.09-.04.04-.09.04h-1.29Zm7.56-3.41q.06.42.04.94-.01.13-.14.13h-3.4q-.07 0-.05.05.04.22.13.44.28.62 1.16.62.7-.01 1.11-.57.05-.07.1-.07.03 0 .08.04l.79.79q.06.05.06.09 0 .03-.05.09-.36.45-.93.7-.58.25-1.26.25-.94 0-1.6-.43-.65-.43-.94-1.2-.23-.55-.23-1.44 0-.61.16-1.07.26-.78.89-1.24.63-.46 1.5-.46 1.1 0 1.77.64.66.63.81 1.7Zm-2.57-1q-.69 0-.91.65-.04.14-.08.35 0 .06.06.06h1.9q.07 0 .04-.06-.05-.32-.05-.31-.1-.33-.35-.51-.24-.18-.61-.18ZM40.29 41.39q.06-.09.15-.09h1.29q.06 0 .1.04.03.04.03.09v7.44q0 .05-.03.09-.04.04-.1.04h-1.29q-.05 0-.09-.04-.04-.04-.04-.09v-4.85q0-.05-.02-.05t-.04.04l-1.17 1.82q-.05.09-.15.09h-.65q-.1 0-.16-.09l-1.16-1.82q-.02-.04-.05-.03-.02 0-.02.05v4.84q0 .05-.04.09-.03.04-.09.04h-1.29q-.05 0-.09-.04-.04-.04-.04-.09v-7.44q0-.05.04-.09.04-.04.09-.04h1.29q.1 0 .15.09l1.65 2.56q.04.07.07 0l1.66-2.56Zm5.31 7.7q-.92 0-1.58-.49-.66-.48-.9-1.32-.16-.51-.16-1.12 0-.65.16-1.16.25-.82.91-1.28.66-.46 1.58-.46.91 0 1.54.45.64.46.91 1.28.17.55.17 1.15 0 .59-.15 1.11-.24.86-.9 1.35-.65.49-1.58.49Zm0-1.33q.37 0 .62-.22t.36-.61q.09-.35.09-.77 0-.46-.09-.78-.12-.37-.37-.58-.25-.21-.62-.21t-.62.21q-.25.21-.36.58-.08.27-.08.78 0 .5.07.77.11.39.37.61.26.22.63.22Zm5.89 1.32q-.74 0-1.29-.21t-.85-.58q-.3-.38-.3-.85v-.11q0-.06.04-.1.03-.03.09-.03h1.22q.05 0 .09.03.04.04.04.1v.01q0 .24.27.41.27.17.68.17.37 0 .6-.15.23-.15.23-.36 0-.2-.19-.3-.2-.1-.65-.21-.52-.13-.82-.25-.7-.25-1.12-.6-.42-.35-.42-1.01 0-.81.64-1.29.63-.48 1.67-.48.71 0 1.23.22.53.23.82.64.3.4.3.92 0 .06-.04.09-.04.04-.1.04h-1.17q-.06 0-.1-.04-.04-.03-.04-.09 0-.24-.24-.41-.25-.16-.66-.16-.36 0-.59.13-.23.13-.23.36 0 .22.22.33.23.11.76.24.12.03.27.07.16.04.33.09.78.23 1.23.59.46.37.46 1.06 0 .81-.65 1.27-.64.46-1.73.46Zm6.5-4.62q0 .05-.04.09-.04.04-.09.04H56.8q-.05 0-.05.05v2.34q0 .36.15.54.14.17.47.17h.37q.05 0 .09.04.04.04.04.09v1.05q0 .12-.13.14-.46.02-.66.02-.92 0-1.37-.3-.45-.3-.46-1.14v-2.95q0-.05-.05-.05h-.63q-.06 0-.09-.04-.04-.04-.04-.09v-.98q0-.06.04-.1.03-.03.09-.03h.63q.05 0 .05-.06v-1.31q0-.05.04-.09.04-.04.09-.04h1.24q.05 0 .09.04.04.04.04.09v1.31q0 .06.05.06h1.06q.05 0 .09.03.04.04.04.1v.98Z"/><path fill="#fff" d="M31.2 75.4q-.11 0-.14-.1l-1.82-6.77-.01-.04q0-.09.11-.09h.98q.11 0 .14.1l1.14 4.56q.01.03.03.03.02 0 .03-.03l1.09-4.56q.03-.1.13-.1h.96q.11 0 .14.1l1.16 4.57q.01.03.03.03.02 0 .03-.03l1.12-4.57q.03-.1.14-.1h.93q.14 0 .11.13l-1.73 6.77q-.03.1-.14.1h-.93q-.11 0-.14-.1l-1.17-4.77q-.01-.03-.03-.04-.02 0-.03.04l-1.12 4.77q-.03.1-.13.1h-.88Zm7.41 0q-.05 0-.09-.04-.03-.03-.03-.08v-6.76q0-.05.03-.08.04-.04.09-.04h.92q.05 0 .08.04.04.03.04.08v6.76q0 .05-.04.08-.03.04-.08.04h-.92Zm6.57-6.88q0-.05.03-.08.04-.04.09-.04h.92q.05 0 .08.04.04.03.04.08v6.76q0 .05-.04.08-.03.04-.08.04h-.89q-.1 0-.14-.08l-2.88-4.72q-.02-.03-.04-.03-.02.01-.02.05l.02 4.66q0 .05-.04.08-.03.04-.08.04h-.92q-.05 0-.09-.04-.03-.03-.03-.08v-6.76q0-.05.03-.08.04-.04.09-.04h.89q.1 0 .14.08l2.87 4.72q.02.03.04.02.02 0 .02-.04l-.01-4.66Zm7.22-.12q.05 0 .08.04.04.03.04.08v.77q0 .05-.04.08-.03.04-.08.04h-1.84q-.05 0-.05.05v5.82q0 .05-.03.08-.04.04-.09.04h-.92q-.05 0-.08-.04-.04-.03-.04-.08v-5.82q0-.05-.05-.05h-1.77q-.05 0-.09-.04-.03-.03-.03-.08v-.77q0-.05.03-.08.04-.04.09-.04h4.87Zm5.93.88q0 .05-.04.08-.03.04-.08.04H54.8q-.05 0-.05.05v1.87q0 .05.05.05h2.29q.05 0 .09.03.03.04.03.09v.76q0 .05-.03.09-.04.03-.09.03H54.8q-.05 0-.05.05v1.93q0 .05.05.05h3.41q.05 0 .08.04.04.03.04.08v.76q0 .05-.04.08-.03.04-.08.04h-4.5q-.05 0-.09-.04-.03-.03-.03-.08v-6.76q0-.05.03-.08.04-.04.09-.04h4.5q.05 0 .08.04.04.03.04.08v.76Zm5.11 6.12q-.1 0-.14-.09l-1.32-2.88q-.02-.04-.06-.04h-1.2q-.05 0-.05.05v2.84q0 .05-.04.08-.03.04-.08.04h-.92q-.05 0-.09-.04-.03-.03-.03-.08v-6.76q0-.05.03-.08.04-.04.09-.04h2.75q.61 0 1.08.25.47.26.73.72.26.47.26 1.07 0 .69-.36 1.17-.35.49-.98.68-.02 0-.03.02-.01.02 0 .04l1.41 2.91q.02.04.02.06 0 .08-.11.08h-.96Zm-2.72-6q-.05 0-.05.05v1.99q0 .05.05.05h1.5q.48 0 .78-.29.29-.28.29-.75t-.29-.76q-.3-.29-.78-.29h-1.5Z"/><path fill="#252530" d="M33.49 93.46q-.03.03-.02.06.02.03.06.03h3.93q.07 0 .12.05.06.05.06.12v1.41q0 .07-.06.12-.05.05-.12.05h-6.52q-.08 0-.13-.05t-.05-.12v-1.34q0-.13.09-.22.71-.69 1.45-1.51.74-.82.93-1.02.4-.48.82-.92 1.32-1.46 1.32-2.17 0-.51-.36-.84-.36-.32-.94-.32t-.94.32q-.37.33-.37.87v.36q0 .07-.05.12-.05.05-.12.05h-1.71q-.07 0-.12-.05-.06-.05-.06-.12v-.68q.05-.78.5-1.39.45-.6 1.19-.92.75-.32 1.68-.32 1.03 0 1.79.39.76.38 1.17 1.03.42.66.42 1.45 0 .61-.31 1.25-.3.64-.91 1.38-.45.56-.97 1.12-.52.55-1.55 1.59l-.22.22Zm8.86 2q-1.6 0-2.52-.89-.93-.89-.93-2.43v-3.83q0-1.51.93-2.39.92-.89 2.52-.89 1.59 0 2.53.89.93.88.93 2.39v3.83q0 1.54-.93 2.43-.94.89-2.53.89Zm0-1.75q.65 0 1.03-.4.39-.4.39-1.07v-3.99q0-.66-.39-1.06-.38-.4-1.03-.4-.64 0-1.02.4-.39.4-.39 1.06v3.99q0 .67.39 1.07.38.4 1.02.4Zm7.52-.25q-.03.03-.01.06.01.03.06.03h3.93q.07 0 .12.05.05.05.05.12v1.41q0 .07-.05.12-.05.05-.12.05h-6.53q-.07 0-.12-.05-.05-.05-.05-.12v-1.34q0-.13.08-.22.72-.69 1.45-1.51.74-.82.93-1.02.41-.48.83-.92 1.32-1.46 1.32-2.17 0-.51-.36-.84-.37-.32-.95-.32t-.94.32q-.36.33-.36.87v.36q0 .07-.05.12-.05.05-.13.05h-1.71q-.07 0-.12-.05-.05-.05-.05-.12v-.68q.04-.78.49-1.39.45-.6 1.2-.92.75-.32 1.67-.32 1.03 0 1.79.39.77.38 1.18 1.03.41.66.41 1.45 0 .61-.3 1.25-.31.64-.92 1.38-.45.56-.97 1.12-.52.55-1.55 1.59l-.22.22Zm12.66-2.58q.07 0 .13.05.05.05.05.12v1.47q0 .07-.05.12-.06.05-.13.05h-.62q-.07 0-.07.07v2.37q0 .07-.05.12-.06.05-.13.05h-1.69q-.08 0-.13-.05t-.05-.12v-2.37q0-.07-.07-.07h-4.45q-.07 0-.13-.05-.05-.05-.05-.12v-1.16q0-.09.05-.22l2.61-5.86q.06-.13.2-.13h1.81q.1 0 .14.05.04.05-.01.15l-2.42 5.44q-.01.03 0 .06.02.03.05.03h2.2q.07 0 .07-.08v-1.79q0-.08.05-.13t.13-.05h1.69q.07 0 .13.05.05.05.05.13v1.79q0 .08.07.08h.62Z"/></svg>
