<svg xmlns="http://www.w3.org/2000/svg" viewBox="0 0 94 122"><path fill="#fff" d="M8.1 89.9 47.6 110l38-20.1V11.3H8.1z"/><path fill="#f2f3f2" d="M86.4 11.6 7.3 91.3l41 20.3 38.1-19.5z"/><path fill="#dcdedc" d="M5.5 37.5v54.1l1.4.7 39.5 20.1 1.2.6 1.2-.6 38.1-20.1 1.4-.7V8.7H5.5v28.8zm2.6 52.6V11.3h77.6v78.8l-38.1 20.1L8.1 90.1z"/><path fill="#ff492c" d="M46.9 12.6c.4 0 .8 0 1.2.1L46.9 15c-1.8-.1-3.4 1.3-3.5 3.1-.1 1.8 1.3 3.4 3.1 3.5h.4c.8 0 1.6-.3 2.2-.8l1.3 2.2c-1 .7-2.2 1.1-3.5 1.1-3.2.1-5.9-2.3-6-5.5-.1-3.2 2.3-5.9 5.5-6h.5zm4.1 4.9 1.5 2.5-1.5 2.4-1.4-2.4h-2.9l1.5-2.5H51zm-2.4-.9c0-.4.1-.8.3-1.1.2-.3.6-.6.9-.8l.2-.1c.4-.2.5-.3.5-.5s-.3-.4-.5-.4c-.4 0-.7.2-.9.6l-.5-.5c.1-.2.3-.4.5-.6.3-.2.6-.2.9-.2.3 0 .7.1.9.3.2.2.4.5.4.8 0 .5-.3.9-.9 1.1l-.3.2c-.3.2-.5.3-.6.6h1.8v.7l-2.7-.1zm-1.7 12.5 9.5-5.4v-15H37.3v14.9l9.6 5.5zM90.2 64.5H3.6l-3.2 7 3.2 7h86.6l3.1-7z"/><path fill="#252530" d="M19.09 60q-.09 0-.15-.06-.06-.07-.06-.16V47.62q0-.09.06-.16.06-.06.15-.06h2.11q.09 0 .15.06.07.07.07.16v10.11q0 .09.09.09h5.88q.09 0 .16.06.06.07.06.16v1.74q0 .09-.06.16-.07.06-.16.06h-8.3Zm18.11-5.58q.11.68.07 1.53-.01.22-.23.22h-5.56q-.11 0-.07.09.05.36.19.72.47 1 1.91 1 1.15-.01 1.82-.93.07-.11.16-.11.06 0 .13.07l1.29 1.28q.09.09.09.16 0 .04-.07.15-.59.73-1.53 1.14-.93.4-2.05.4-1.55 0-2.62-.7t-1.54-1.96q-.38-.9-.38-2.36 0-.99.27-1.74.42-1.28 1.45-2.04 1.04-.75 2.46-.75 1.8 0 2.89 1.04t1.32 2.79Zm-4.19-1.64q-1.14 0-1.5 1.06-.07.24-.12.58 0 .09.09.09h3.11q.11 0 .07-.09-.09-.52-.09-.5-.16-.54-.56-.84-.41-.3-1-.3Zm9.43-2.18q1.17 0 2.09.41.92.4 1.43 1.11.51.7.51 1.56v6.1q0 .09-.06.16-.06.06-.15.06h-2.11q-.09 0-.15-.06-.07-.07-.07-.16v-.59q0-.05-.03-.07-.04-.02-.07.03-.76.99-2.43.99-1.41 0-2.27-.68-.87-.68-.87-2.02 0-1.38.98-2.15.97-.76 2.77-.76h1.83q.09 0 .09-.09v-.4q0-.59-.36-.93-.36-.33-1.08-.33-.55 0-.92.2t-.48.56q-.05.2-.23.18l-2.18-.29q-.22-.04-.2-.16.07-.76.6-1.37.53-.61 1.41-.95.87-.35 1.95-.35Zm-.36 7.65q.77 0 1.31-.41t.54-1.06v-.65q0-.09-.09-.09h-1.29q-.81 0-1.27.31-.46.3-.46.86 0 .49.34.76.34.28.92.28ZM54 47.62q0-.09.06-.16.06-.06.15-.06h2.11q.09 0 .15.06.06.07.06.16v12.16q0 .09-.06.16-.06.06-.15.06h-2.11q-.09 0-.15-.06-.06-.07-.06-.16v-.59q0-.05-.04-.06-.04-.01-.07.02-.76.99-2.07.99-1.26 0-2.17-.7-.91-.7-1.31-1.92-.3-.94-.3-2.18 0-1.28.32-2.23.42-1.16 1.31-1.83.89-.68 2.2-.68 1.3 0 2.02.9.03.06.07.04.04-.02.04-.07v-3.85Zm-.38 9.57q.36-.66.36-1.82 0-1.2-.4-1.89-.41-.7-1.2-.7-.85 0-1.28.7-.45.71-.45 1.91 0 1.08.38 1.8.45.78 1.33.78.81 0 1.26-.78Zm13.01-2.77q.11.68.07 1.53-.01.22-.23.22h-5.56q-.11 0-.07.09.05.36.19.72.47 1 1.91 1 1.15-.01 1.82-.93.07-.11.16-.11.06 0 .13.07l1.29 1.28q.09.09.09.16 0 .04-.07.15-.59.73-1.53 1.14-.93.4-2.05.4-1.55 0-2.62-.7t-1.54-1.96q-.38-.9-.38-2.36 0-.99.27-1.74.42-1.28 1.45-2.04 1.04-.75 2.46-.75 1.8 0 2.89 1.04t1.32 2.79Zm-4.19-1.64q-1.14 0-1.5 1.06-.07.24-.12.58 0 .09.09.09h3.11q.11 0 .07-.09-.09-.52-.09-.5-.16-.54-.56-.84-.41-.3-1-.3Zm10.44-2.16q.65 0 1.02.25.15.08.11.27l-.38 2.06q-.01.21-.25.12-.27-.09-.63-.09-.14 0-.39.04-.65.05-1.1.47-.45.43-.45 1.13v4.91q0 .09-.06.16-.07.06-.16.06h-2.1q-.09 0-.16-.06-.06-.07-.06-.16v-8.82q0-.09.06-.15.07-.06.16-.06h2.1q.09 0 .16.06.06.06.06.15v.69q0 .05.03.07.04.02.06-.02.74-1.08 1.98-1.08Z"/><path fill="#fff" d="M31.2 75.4q-.11 0-.14-.1l-1.82-6.77-.01-.04q0-.09.11-.09h.98q.11 0 .14.1l1.14 4.56q.01.03.03.03.02 0 .03-.03l1.09-4.56q.03-.1.13-.1h.96q.11 0 .14.1l1.16 4.57q.01.03.03.03.02 0 .03-.03l1.12-4.57q.03-.1.14-.1h.93q.14 0 .11.13l-1.73 6.77q-.03.1-.14.1h-.93q-.11 0-.14-.1l-1.17-4.77q-.01-.03-.03-.04-.02 0-.03.04l-1.12 4.77q-.03.1-.13.1h-.88Zm7.41 0q-.05 0-.09-.04-.03-.03-.03-.08v-6.76q0-.05.03-.08.04-.04.09-.04h.92q.05 0 .08.04.04.03.04.08v6.76q0 .05-.04.08-.03.04-.08.04h-.92Zm6.57-6.88q0-.05.03-.08.04-.04.09-.04h.92q.05 0 .08.04.04.03.04.08v6.76q0 .05-.04.08-.03.04-.08.04h-.89q-.1 0-.14-.08l-2.88-4.72q-.02-.03-.04-.03-.02.01-.02.05l.02 4.66q0 .05-.04.08-.03.04-.08.04h-.92q-.05 0-.09-.04-.03-.03-.03-.08v-6.76q0-.05.03-.08.04-.04.09-.04h.89q.1 0 .14.08l2.87 4.72q.02.03.04.02.02 0 .02-.04l-.01-4.66Zm7.22-.12q.05 0 .08.04.04.03.04.08v.77q0 .05-.04.08-.03.04-.08.04h-1.84q-.05 0-.05.05v5.82q0 .05-.03.08-.04.04-.09.04h-.92q-.05 0-.08-.04-.04-.03-.04-.08v-5.82q0-.05-.05-.05h-1.77q-.05 0-.09-.04-.03-.03-.03-.08v-.77q0-.05.03-.08.04-.04.09-.04h4.87Zm5.93.88q0 .05-.04.08-.03.04-.08.04H54.8q-.05 0-.05.05v1.87q0 .05.05.05h2.29q.05 0 .09.03.03.04.03.09v.76q0 .05-.03.09-.04.03-.09.03H54.8q-.05 0-.05.05v1.93q0 .05.05.05h3.41q.05 0 .08.04.04.03.04.08v.76q0 .05-.04.08-.03.04-.08.04h-4.5q-.05 0-.09-.04-.03-.03-.03-.08v-6.76q0-.05.03-.08.04-.04.09-.04h4.5q.05 0 .08.04.04.03.04.08v.76Zm5.11 6.12q-.1 0-.14-.09l-1.32-2.88q-.02-.04-.06-.04h-1.2q-.05 0-.05.05v2.84q0 .05-.04.08-.03.04-.08.04h-.92q-.05 0-.09-.04-.03-.03-.03-.08v-6.76q0-.05.03-.08.04-.04.09-.04h2.75q.61 0 1.08.25.47.26.73.72.26.47.26 1.07 0 .69-.36 1.17-.35.49-.98.68-.02 0-.03.02-.01.02 0 .04l1.41 2.91q.02.04.02.06 0 .08-.11.08h-.96Zm-2.72-6q-.05 0-.05.05v1.99q0 .05.05.05h1.5q.48 0 .78-.29.29-.28.29-.75t-.29-.76q-.3-.29-.78-.29h-1.5Z"/><path fill="#252530" d="M33.49 93.46q-.03.03-.02.06.02.03.06.03h3.93q.07 0 .12.05.06.05.06.12v1.41q0 .07-.06.12-.05.05-.12.05h-6.52q-.08 0-.13-.05t-.05-.12v-1.34q0-.13.09-.22.71-.69 1.45-1.51.74-.82.93-1.02.4-.48.82-.92 1.32-1.46 1.32-2.17 0-.51-.36-.84-.36-.32-.94-.32t-.94.32q-.37.33-.37.87v.36q0 .07-.05.12-.05.05-.12.05h-1.71q-.07 0-.12-.05-.06-.05-.06-.12v-.68q.05-.78.5-1.39.45-.6 1.19-.92.75-.32 1.68-.32 1.03 0 1.79.39.76.38 1.17 1.03.42.66.42 1.45 0 .61-.31 1.25-.3.64-.91 1.38-.45.56-.97 1.12-.52.55-1.55 1.59l-.22.22Zm8.86 2q-1.6 0-2.52-.89-.93-.89-.93-2.43v-3.83q0-1.51.93-2.39.92-.89 2.52-.89 1.59 0 2.53.89.93.88.93 2.39v3.83q0 1.54-.93 2.43-.94.89-2.53.89Zm0-1.75q.65 0 1.03-.4.39-.4.39-1.07v-3.99q0-.66-.39-1.06-.38-.4-1.03-.4-.64 0-1.02.4-.39.4-.39 1.06v3.99q0 .67.39 1.07.38.4 1.02.4Zm7.52-.25q-.03.03-.01.06.01.03.06.03h3.93q.07 0 .12.05.05.05.05.12v1.41q0 .07-.05.12-.05.05-.12.05h-6.53q-.07 0-.12-.05-.05-.05-.05-.12v-1.34q0-.13.08-.22.72-.69 1.45-1.51.74-.82.93-1.02.41-.48.83-.92 1.32-1.46 1.32-2.17 0-.51-.36-.84-.37-.32-.95-.32t-.94.32q-.36.33-.36.87v.36q0 .07-.05.12-.05.05-.13.05h-1.71q-.07 0-.12-.05-.05-.05-.05-.12v-.68q.04-.78.49-1.39.45-.6 1.2-.92.75-.32 1.67-.32 1.03 0 1.79.39.77.38 1.18 1.03.41.66.41 1.45 0 .61-.3 1.25-.31.64-.92 1.38-.45.56-.97 1.12-.52.55-1.55 1.59l-.22.22Zm12.66-2.58q.07 0 .13.05.05.05.05.12v1.47q0 .07-.05.12-.06.05-.13.05h-.62q-.07 0-.07.07v2.37q0 .07-.05.12-.06.05-.13.05h-1.69q-.08 0-.13-.05t-.05-.12v-2.37q0-.07-.07-.07h-4.45q-.07 0-.13-.05-.05-.05-.05-.12v-1.16q0-.09.05-.22l2.61-5.86q.06-.13.2-.13h1.81q.1 0 .14.05.04.05-.01.15l-2.42 5.44q-.01.03 0 .06.02.03.05.03h2.2q.07 0 .07-.08v-1.79q0-.08.05-.13t.13-.05h1.69q.07 0 .13.05.05.05.05.13v1.79q0 .08.07.08h.62Z"/></svg>
