<svg xmlns="http://www.w3.org/2000/svg" id="Layer_1" data-name="Layer 1" viewBox="0 0 94 105.99"><g id="container"><defs><clipPath id="clip-path"><path d="M90.79 56.99H3.21L0 64.49l3.21 7.5h87.58l3.21-7.5-3.21-7.5z" class="cls-1"/></clipPath><clipPath id="clip-path-2"><path d="M0-1.01h94v122H0z" style="fill:none"/></clipPath><clipPath id="clip-path-3"><path d="m47 21 10-5.6V0H37v15.4Zm2-13.14a2.15 2.15 0 0 1 .3-1.18 2.61 2.61 0 0 1 1.06-.84l.24-.1c.41-.2.51-.37.51-.57s-.22-.41-.57-.41a1 1 0 0 0-1 .62L49 4.85a1.49 1.49 0 0 1 .6-.62 1.72 1.72 0 0 1 .89-.23 1.77 1.77 0 0 1 1.06.31 1 1 0 0 1 .45.86c0 .58-.34.93-1 1.25l-.37.17c-.38.19-.57.35-.63.64h2V8h-3ZM51.5 9l1.5 2.5-1.5 2.5-1.5-2.51h-3L48.5 9Zm-4.21-5a6.36 6.36 0 0 1 1.24.12l-1.24 2.44A3.52 3.52 0 0 0 43.7 10a3.52 3.52 0 0 0 3.59 3.43 3.68 3.68 0 0 0 2.35-.83L51 14.84A6.5 6.5 0 0 1 47.29 16 6.16 6.16 0 0 1 41 10a6.16 6.16 0 0 1 6.29-6Z" class="cls-1"/></clipPath><style>.cls-1{fill:none;clip-rule:evenodd}.cls-7{clip-path:url(#clip-path-2)}</style></defs><path d="M47.82 103 6.63 82.45V13.88A17.67 17.67 0 0 0 21.29 2h51.34A17.69 17.69 0 0 0 87.5 13.92v68.53Z" style="fill:#fff"/><path d="M7 82.45 47.74 103 87 82.43V13.92a19.46 19.46 0 0 1-9-3.69Z" style="fill:#f7f8f7"/><path d="M89 12h-.13A15.51 15.51 0 0 1 73.79 0H20A15.53 15.53 0 0 1 5 12v72.22l1.42.72 40.14 20.44 1.2.61 1.19-.63 38.66-20.44 1.39-.73V14Zm-41.26 91L7 82.45V13.88A17.5 17.5 0 0 0 21.49 2h50.79A17.52 17.52 0 0 0 87 13.92v68.53Z" style="fill:#e9e9ea"/><g class="cls-7" style="clip-path:url(#clip-path)"><path id="banner" fill="#9132a2" d="M-5 51.99H99v25H-5z" class="cls-8"/></g><g class="cls-7" style="clip-path:url(#clip-path-3)"><path id="logo" fill="#9132a2" d="M32-5.01h30v31H32z" class="cls-10"/></g><path fill="#252530" d="M5.25-10.51q.99 0 1.74.4t1.16 1.15q.41.74.41 1.7 0 .95-.42 1.67-.43.71-1.2 1.11-.77.4-1.78.4H3.03q-.07 0-.07.08v3.82q0 .08-.06.13-.05.05-.13.05H1.02Q.94 0 .89-.05T.84-.18v-10.15q0-.08.05-.13t.13-.05h4.23Zm-.32 4.74q.7 0 1.11-.4.42-.4.42-1.04 0-.67-.42-1.07-.41-.41-1.11-.41h-1.9q-.07 0-.07.08v2.76q0 .08.07.08h1.9Zm11.2 1.12q.08.57.05 1.27-.01.19-.19.19h-4.63q-.09 0-.07.07.05.3.17.6.39.84 1.59.84.96-.01 1.51-.78.07-.09.14-.09.04 0 .1.06l1.08 1.06q.08.08.08.14 0 .03-.06.12-.5.62-1.27.95-.79.34-1.72.34-1.28 0-2.18-.58-.89-.59-1.28-1.64-.32-.75-.32-1.96 0-.83.23-1.46.35-1.06 1.21-1.69.86-.63 2.04-.63 1.5 0 2.41.87.91.87 1.11 2.32Zm-3.5-1.36q-.95 0-1.25.88-.06.2-.1.48 0 .07.08.07h2.59q.09 0 .06-.07-.08-.43-.08-.42-.13-.45-.47-.7-.33-.24-.83-.24Zm8.7-1.8q.54 0 .86.21.11.06.08.22l-.31 1.71q-.01.18-.21.11-.23-.08-.52-.08-.12 0-.34.03-.53.05-.91.4-.37.35-.37.94v4.09q0 .08-.06.13-.05.05-.12.05h-1.76q-.07 0-.13-.05-.05-.05-.05-.13v-7.35q0-.07.05-.13.06-.05.13-.05h1.76q.07 0 .12.05.06.06.06.13v.57q0 .04.03.06.02.02.04-.02.62-.89 1.65-.89Zm6.39.09q.08 0 .13.05t.05.13v1.42q0 .08-.05.13t-.13.05h-1.45q-.08 0-.08.07v5.69q0 .08-.05.13t-.13.05h-1.75q-.08 0-.13-.05t-.05-.13v-5.69q0-.07-.08-.07h-.88q-.08 0-.13-.05t-.05-.13v-1.42q0-.08.05-.13t.13-.05H24q.08 0 .08-.08v-.33q0-.93.28-1.45.29-.51.92-.73.64-.22 1.77-.19h.57q.07 0 .12.05.06.06.06.13v1.21q0 .08-.06.13-.05.06-.12.06h-.5q-.52.01-.73.21-.2.21-.2.75v.16q0 .08.08.08h1.45ZM32.07.12q-1.26 0-2.16-.66-.9-.66-1.23-1.8-.21-.7-.21-1.53 0-.88.21-1.59.35-1.11 1.25-1.74.9-.63 2.16-.63 1.22 0 2.1.62.86.63 1.22 1.74.25.75.25 1.57 0 .81-.21 1.52-.33 1.17-1.23 1.83-.89.67-2.15.67Zm0-1.81q.49 0 .84-.3t.5-.83q.11-.48.11-1.05 0-.63-.11-1.06-.17-.51-.51-.8-.35-.28-.85-.28t-.84.28q-.34.29-.49.8-.12.35-.12 1.06 0 .68.11 1.05.15.53.5.83.35.3.86.3Zm8.79-6.12q.54 0 .86.21.12.06.08.22l-.31 1.71q-.01.18-.21.11-.23-.08-.52-.08-.12 0-.33.03-.54.05-.92.4-.37.35-.37.94v4.09q0 .08-.06.13-.05.05-.13.05H37.2q-.07 0-.13-.05-.05-.05-.05-.13v-7.35q0-.07.05-.13.06-.05.13-.05h1.75q.08 0 .13.05.06.06.06.13v.57q0 .04.02.06.04.02.05-.02.62-.89 1.65-.89Zm10.45-.02q1.17 0 1.83.7.66.71.66 1.99v4.96q0 .08-.05.13t-.12.05h-1.76q-.07 0-.13-.05-.05-.05-.05-.13v-4.5q0-.61-.31-.97-.32-.36-.85-.36-.52 0-.85.36-.33.36-.33.96v4.51q0 .08-.05.13-.06.05-.13.05h-1.74q-.08 0-.13-.05t-.05-.13v-4.5q0-.6-.33-.97-.33-.36-.86-.36-.47 0-.8.28-.32.29-.38.8v4.75q0 .08-.05.13-.06.05-.13.05h-1.75q-.08 0-.13-.05t-.05-.13v-7.35q0-.07.05-.13.05-.05.13-.05h1.75q.07 0 .13.05.05.06.05.13v.59q0 .04.03.06.03.01.06-.04.62-.91 1.91-.91.75 0 1.31.32.56.31.86.9.04.09.11 0 .32-.62.89-.92.56-.3 1.26-.3Zm10.76 3.18q.09.57.06 1.27-.02.19-.2.19H57.3q-.09 0-.06.07.04.3.16.6.39.84 1.59.84.96-.01 1.52-.78.06-.09.13-.09.05 0 .11.06l1.08 1.06q.07.08.07.14 0 .03-.06.12-.49.62-1.27.95-.78.34-1.71.34-1.29 0-2.18-.58-.9-.59-1.29-1.64-.31-.75-.31-1.96 0-.83.22-1.46.35-1.06 1.21-1.69.86-.63 2.05-.63 1.5 0 2.41.87.91.87 1.1 2.32Zm-3.5-1.36q-.94 0-1.24.88-.06.2-.11.48 0 .07.08.07h2.59q.09 0 .06-.07-.07-.43-.07-.42-.14-.45-.47-.7-.34-.24-.84-.24Zm8.7-1.8q.54 0 .86.21.12.06.09.22l-.31 1.71q-.02.18-.22.11-.22-.08-.52-.08-.12 0-.33.03-.54.05-.92.4-.37.35-.37.94v4.09q0 .08-.05.13-.06.05-.13.05h-1.76q-.07 0-.12-.05-.06-.05-.06-.13v-7.35q0-.07.06-.13.05-.05.12-.05h1.76q.07 0 .13.05.05.06.05.13v.57q0 .04.03.06.03.02.05-.02.61-.89 1.64-.89Z" transform="translate(12.05 52.1)"/><path fill="#252530" d="M6.5-10.32q0-.07.05-.13.05-.05.12-.05h1.76q.07 0 .13.05.05.06.05.13V-.18q0 .08-.05.13Q8.5 0 8.43 0H6.67q-.07 0-.12-.05Q6.5-.1 6.5-.18v-4.14q0-.07-.08-.07H3.1q-.07 0-.07.07v4.14q0 .08-.05.13-.06.05-.13.05H1.09q-.07 0-.12-.05Q.91-.1.91-.18v-10.14q0-.07.06-.13.05-.05.12-.05h1.76q.07 0 .13.05.05.06.05.13v4.03q0 .08.07.08h3.32q.08 0 .08-.08v-4.03Zm4.84 1.74q-.51 0-.85-.34-.34-.33-.34-.84 0-.53.33-.86.33-.33.86-.33t.86.33q.33.33.33.86 0 .51-.34.84-.34.34-.85.34ZM10.44 0q-.07 0-.13-.05-.05-.05-.05-.13v-7.36q0-.08.05-.13.06-.05.13-.05h1.76q.07 0 .12.05.06.05.06.13v7.36q0 .08-.06.13-.05.05-.12.05h-1.76Zm8.29-7.53q0-.07.06-.13.05-.05.12-.05h1.76q.07 0 .13.05.05.06.05.13v6.84q0 1.96-1.13 2.8-1.13.85-2.92.85-.53 0-1.17-.08-.15-.02-.15-.19l.06-1.55q0-.2.21-.17.54.09.99.09.96 0 1.48-.41.51-.43.51-1.35 0-.05-.03-.06-.03-.01-.06.03-.57.61-1.66.61-.98 0-1.79-.47-.82-.47-1.17-1.52-.22-.69-.22-1.79 0-1.17.27-1.9.31-.92 1.06-1.47.75-.56 1.75-.56 1.15 0 1.76.69.03.03.06.02.03-.01.03-.05v-.36Zm-.12 4.84q.12-.44.12-1.23 0-.46-.03-.71-.03-.26-.1-.49-.14-.4-.45-.65-.31-.24-.78-.24-.45 0-.76.24-.32.25-.47.65-.21.45-.21 1.22 0 .84.18 1.2.13.41.47.65.34.25.8.25.48 0 .8-.25.31-.24.43-.64Zm7.78-5.14q1.2 0 1.93.74.73.73.73 1.99v4.92q0 .08-.05.13t-.12.05h-1.76q-.07 0-.13-.05-.05-.05-.05-.13v-4.49q0-.59-.34-.97-.33-.37-.89-.37-.55 0-.89.37-.34.38-.34.97v4.49q0 .08-.05.13T24.3 0h-1.75q-.08 0-.13-.05t-.05-.13v-10.14q0-.07.05-.13.05-.05.13-.05h1.75q.08 0 .13.05.05.06.05.13V-7q0 .04.03.06.03.01.04-.02.62-.87 1.84-.87Z" transform="translate(31.56 37.1)"/><path fill="#fff" d="M3.18.08q-.74 0-1.31-.29Q1.3-.5.98-1.03.67-1.57.67-2.27v-4.61q0-.05.03-.08Q.74-7 .79-7h.92q.05 0 .08.04.04.03.04.08v4.63q0 .59.37.96t.98.37q.61 0 .98-.37t.37-.96v-4.63q0-.05.04-.08Q4.6-7 4.65-7h.92q.05 0 .09.04.03.03.03.08v4.61q0 .7-.31 1.24-.31.53-.88.82-.57.29-1.32.29Zm6.25-5.27q.81 0 1.3.48.48.48.48 1.31v3.28q0 .05-.03.08-.04.04-.09.04h-.92q-.05 0-.08-.04-.04-.03-.04-.08v-3.04q0-.46-.26-.75-.26-.28-.69-.28-.43 0-.69.28-.27.28-.27.74v3.05q0 .05-.03.08-.04.04-.09.04H7.1q-.05 0-.08-.04-.04-.03-.04-.08v-4.87q0-.05.04-.09.03-.03.08-.03h.92q.05 0 .09.03.03.04.03.09v.32q0 .03.02.04.02.01.03-.02.41-.54 1.24-.54Zm3.65-.62q-.31 0-.51-.2t-.2-.51q0-.31.2-.51t.51-.2q.31 0 .51.2t.2.51q0 .31-.2.51t-.51.2ZM12.6 0q-.05 0-.08-.04-.04-.03-.04-.08V-5q0-.05.04-.08.03-.04.08-.04h.92q.05 0 .09.04.03.03.03.08v4.88q0 .05-.03.08-.04.04-.09.04h-.92Zm5.08-4.29q0 .05-.03.08-.04.04-.09.04h-1.02q-.05 0-.05.05v2.41q0 .38.17.55.16.17.52.17h.3q.05 0 .09.03.03.04.03.09v.75q0 .11-.12.13l-.52.01q-.79 0-1.18-.27-.39-.27-.4-1.02v-2.85q0-.05-.05-.05h-.57q-.05 0-.08-.04-.04-.03-.04-.08v-.7q0-.05.04-.09.03-.03.08-.03h.57q.05 0 .05-.05v-1.17q0-.05.04-.09.03-.03.08-.03h.87q.05 0 .09.03.03.04.03.09v1.17q0 .05.05.05h1.02q.05 0 .09.03.03.04.03.09v.7Zm5.24 1.16q.04.25.04.56l-.01.31q0 .12-.12.12H19.7q-.05 0-.05.05.03.33.09.45.24.72 1.17.73.68 0 1.08-.56.04-.06.1-.06.04 0 .07.03l.62.51q.09.07.03.16-.31.44-.82.68-.52.24-1.15.24-.78 0-1.32-.35-.55-.35-.8-.98-.23-.54-.23-1.5 0-.58.12-.94.2-.7.76-1.11.55-.4 1.33-.4 1.97 0 2.22 2.06ZM20.7-4.19q-.37 0-.61.19-.25.18-.35.51-.06.17-.08.44-.02.05.04.05h2.03q.05 0 .05-.05-.02-.25-.06-.38-.09-.36-.35-.56-.27-.2-.67-.2Zm6.49-2.69q0-.05.04-.08.03-.04.08-.04h.92q.05 0 .09.04.03.03.03.08v6.76q0 .05-.03.08-.04.04-.09.04h-.92q-.05 0-.08-.04-.04-.03-.04-.08v-.3q0-.03-.02-.04-.02-.01-.04.02-.44.52-1.15.52t-1.2-.37q-.49-.37-.71-1.03-.18-.56-.18-1.25 0-.71.17-1.22.22-.66.71-1.03T26-5.19q.69 0 1.13.5.02.02.04.02.02-.01.02-.04v-2.17Zm-.24 5.48q.23-.41.23-1.16 0-.78-.25-1.19-.27-.44-.76-.44-.51 0-.8.42-.3.44-.3 1.22 0 .7.24 1.15.28.48.85.48.51 0 .79-.48ZM31.84 0q-.05 0-.08-.04-.04-.03-.04-.08v-6.76q0-.05.04-.08.03-.04.08-.04h.92q.05 0 .08.04.04.03.04.08v2.99q0 .03.02.04.02.01.04-.01l2.6-3.07q.06-.07.15-.07h1.04q.1 0 .1.07 0 .03-.03.08l-2.29 2.81q-.03.04-.01.07l2.46 3.83q.02.06.02.07 0 .07-.1.07h-1.05q-.09 0-.14-.08l-1.98-3.08q-.04-.06-.07-.01l-.74.86q-.02.04-.02.07v2.12q0 .05-.04.08-.03.04-.08.04h-.92Zm6.63-5.81q-.31 0-.51-.2t-.2-.51q0-.31.2-.51t.51-.2q.31 0 .51.2t.2.51q0 .31-.2.51t-.51.2ZM37.99 0q-.05 0-.08-.04-.04-.03-.04-.08V-5q0-.05.04-.08.03-.04.08-.04h.92q.05 0 .09.04.03.03.03.08v4.88q0 .05-.03.08-.04.04-.09.04h-.92Zm4.82-5.19q.81 0 1.3.48.48.48.48 1.31v3.28q0 .05-.04.08-.03.04-.08.04h-.92q-.05 0-.08-.04-.04-.03-.04-.08v-3.04q0-.46-.26-.75-.26-.28-.69-.28-.43 0-.69.28-.27.28-.27.74v3.05q0 .05-.04.08-.03.04-.08.04h-.92q-.05 0-.08-.04-.04-.03-.04-.08v-4.87q0-.05.04-.09.03-.03.08-.03h.92q.05 0 .08.03.04.04.04.09v.32q0 .03.02.04.02.01.03-.02.41-.54 1.24-.54Zm6.12.2q0-.05.04-.09.03-.03.08-.03h.92q.05 0 .08.03.04.04.04.09v4.65q0 1.25-.71 1.79-.72.53-1.88.53-.31 0-.61-.03-.11-.01-.11-.13l.03-.82q0-.11.14-.11.29.03.52.03.75 0 1.11-.29.35-.3.35-1v-.08q0-.03-.02-.03-.02-.01-.04.01-.41.44-1.16.44-.65 0-1.19-.33-.54-.33-.75-1.01-.13-.47-.13-1.21 0-.83.16-1.27.2-.61.69-.98.49-.36 1.15-.36.79 0 1.23.46.02.03.04.02.02-.01.02-.04v-.24Zm-.07 3.29q.04-.15.05-.32.02-.18.02-.57 0-.38-.02-.55-.01-.16-.06-.32-.08-.33-.33-.53-.24-.2-.62-.2-.36 0-.61.2t-.36.53q-.12.28-.12.88 0 .62.1.87.1.32.36.52.27.21.64.21.39 0 .63-.2t.32-.52Zm5.6-5.18q0-.05.04-.08.03-.04.08-.04h.92q.05 0 .09.04.03.03.03.08v6.76q0 .05-.03.08-.04.04-.09.04h-.92q-.05 0-.08-.04-.04-.03-.04-.08v-.3q0-.03-.02-.04-.02-.01-.04.02-.44.52-1.15.52t-1.2-.37q-.49-.37-.71-1.03-.18-.56-.18-1.25 0-.71.17-1.22.22-.66.71-1.03t1.23-.37q.69 0 1.13.5.02.02.04.02.02-.01.02-.04v-2.17Zm-.24 5.48q.23-.41.23-1.16 0-.78-.25-1.19-.27-.44-.76-.44-.51 0-.8.42-.3.44-.3 1.22 0 .7.24 1.15.28.48.85.48.51 0 .79-.48ZM59.05.08q-.79 0-1.35-.4-.57-.4-.8-1.11-.17-.54-.17-1.14 0-.64.16-1.14.23-.7.8-1.09.57-.39 1.37-.39.76 0 1.32.39.55.39.78 1.08.18.48.18 1.14 0 .63-.17 1.14-.23.71-.79 1.11-.56.41-1.33.41Zm0-1q.37 0 .64-.21.26-.21.38-.59.1-.33.1-.84 0-.54-.1-.84-.11-.38-.38-.58-.27-.21-.66-.21-.37 0-.64.21-.27.2-.39.58-.1.35-.1.84t.1.84q.11.38.39.59.27.21.66.21Zm8.86-4.27q.77 0 1.21.46.43.47.43 1.3v3.31q0 .05-.03.08-.04.04-.09.04h-.91q-.05 0-.08-.04-.04-.03-.04-.08v-3.07q0-.46-.24-.73-.25-.27-.66-.27-.41 0-.67.27-.26.27-.26.72v3.08q0 .05-.03.08-.04.04-.09.04h-.91q-.05 0-.08-.04-.04-.03-.04-.08v-3.07q0-.46-.25-.73-.25-.27-.66-.27-.38 0-.62.22-.25.22-.29.6v3.25q0 .05-.03.08-.04.04-.09.04h-.92q-.05 0-.08-.04-.04-.03-.04-.08v-4.87q0-.05.04-.09.03-.03.08-.03h.92q.05 0 .09.03.03.04.03.09v.33q0 .03.02.04.02.01.04-.02.22-.28.55-.41.32-.14.72-.14.49 0 .86.2t.57.58q.03.04.07 0 .22-.4.61-.59.39-.19.87-.19Z" transform="translate(11.55 68.3)"/><path fill="#252530" d="M2.16 0q-.11 0-.14-.1L.25-6.87l-.01-.04Q.24-7 .35-7h1.24q.1 0 .13.1l.95 4.07q.01.04.03.04.02 0 .03-.04l.92-4.06Q3.68-7 3.78-7h1.21q.11 0 .14.1l1 4.07q.01.03.03.04.02 0 .03-.04l.92-4.06Q7.14-7 7.24-7h1.18q.14 0 .11.13L6.89-.1q-.03.1-.14.1H5.56q-.1 0-.13-.1L4.41-4.43q-.01-.04-.03-.04-.02 0-.03.04L3.4-.11Q3.38 0 3.27 0H2.16ZM9.5 0q-.05 0-.09-.04-.03-.03-.03-.08v-6.76q0-.05.03-.08Q9.45-7 9.5-7h1.17q.05 0 .08.04.04.03.04.08v6.76q0 .05-.04.08-.03.04-.08.04H9.5Zm6.53-6.88q0-.05.03-.08.04-.04.09-.04h1.17q.05 0 .08.04.04.03.04.08v6.76q0 .05-.04.08-.03.04-.08.04h-1.13q-.1 0-.14-.08l-2.59-4.28q-.02-.03-.04-.02-.02 0-.02.04l.02 4.22q0 .05-.04.08-.03.04-.08.04h-1.17q-.05 0-.09-.04-.03-.03-.03-.08v-6.76q0-.05.03-.08.04-.04.09-.04h1.13q.1 0 .14.08l2.58 4.26q.02.03.04.02.02 0 .02-.04l-.01-4.2ZM23.49-7q.05 0 .08.04.04.03.04.08v.98q0 .05-.04.08-.03.04-.08.04H21.7q-.05 0-.05.05v5.61q0 .05-.04.08-.03.04-.08.04h-1.17q-.05 0-.09-.04-.03-.03-.03-.08v-5.61q0-.05-.05-.05h-1.74q-.05 0-.09-.04-.03-.03-.03-.08v-.98q0-.05.03-.08.04-.04.09-.04h5.04Zm5.88 1.09q0 .05-.03.08-.04.04-.09.04h-3.28q-.05 0-.05.05v1.55q0 .05.05.05h2.15q.05 0 .08.03.04.04.04.09v.97q0 .05-.04.09-.03.03-.08.03h-2.15q-.05 0-.05.05v1.62q0 .05.05.05h3.28q.05 0 .09.03.03.04.03.09v.97q0 .05-.03.08-.04.04-.09.04h-4.62q-.05 0-.09-.04-.03-.03-.03-.08v-6.76q0-.05.03-.08.04-.04.09-.04h4.62q.05 0 .09.04.03.03.03.08v.97ZM34.19 0q-.1 0-.14-.09L32.8-2.86q-.02-.04-.06-.04h-.93q-.05 0-.05.05v2.73q0 .05-.04.08-.03.04-.08.04h-1.17q-.05 0-.09-.04-.03-.03-.03-.08v-6.76q0-.05.03-.08.04-.04.09-.04h2.86q.64 0 1.12.26.49.26.75.74.27.48.27 1.11 0 .68-.34 1.16-.34.49-.95.69-.05.02-.03.07l1.36 2.83q.02.04.02.06 0 .08-.11.08h-1.23Zm-2.38-5.79q-.05 0-.05.05v1.71q0 .05.05.05h1.31q.42 0 .68-.25.27-.25.27-.65t-.27-.66q-.26-.25-.68-.25h-1.31Z" transform="translate(29 82.4)"/><path fill="#252530" d="M2.33-1.27q-.02.02-.01.04t.04.02h2.71q.05 0 .09.03.03.04.03.09v.97q0 .05-.03.08-.04.04-.09.04H.57Q.52 0 .48-.04.45-.07.45-.12v-.92q0-.09.06-.15.49-.48 1-1.04.51-.57.64-.71.28-.33.57-.63.91-1.01.91-1.5 0-.35-.25-.58-.25-.22-.65-.22t-.65.22q-.25.23-.25.6v.25q0 .05-.04.09-.03.03-.08.03H.53q-.05 0-.08-.03-.04-.04-.04-.09v-.47q.03-.54.34-.96.31-.41.82-.63.52-.22 1.16-.22.71 0 1.24.26.52.27.81.72.28.45.28 1 0 .42-.21.86t-.63.95q-.31.39-.67.77-.36.38-1.07 1.1l-.15.15ZM8.44.11q-1.1 0-1.74-.62-.64-.61-.64-1.67v-2.64q0-1.04.64-1.65.64-.61 1.74-.61t1.75.61q.64.61.64 1.65v2.64q0 1.06-.64 1.67-.65.62-1.75.62Zm0-1.21q.45 0 .72-.28.26-.27.26-.73v-2.75q0-.46-.26-.73-.27-.28-.72-.28-.44 0-.7.28-.27.27-.27.73v2.75q0 .46.27.73.26.28.7.28Zm5.19-.17q-.02.02-.01.04t.04.02h2.71q.05 0 .09.03.03.04.03.09v.97q0 .05-.03.08-.04.04-.09.04h-4.5q-.05 0-.08-.04-.04-.03-.04-.08v-.92q0-.09.06-.15.49-.48 1-1.04.51-.57.64-.71.28-.33.57-.63.91-1.01.91-1.5 0-.35-.25-.58-.25-.22-.65-.22t-.65.22q-.25.23-.25.6v.25q0 .05-.03.09-.04.03-.09.03h-1.18q-.05 0-.08-.03-.04-.04-.04-.09v-.47q.03-.54.34-.96.31-.41.83-.63.51-.22 1.15-.22.71 0 1.24.26.52.27.81.72.28.45.28 1 0 .42-.21.86t-.63.95q-.31.39-.67.77-.36.38-1.07 1.1l-.15.15Zm8.73-1.78q.05 0 .09.03.03.04.03.09v1.01q0 .05-.03.09-.04.03-.09.03h-.43q-.05 0-.05.05v1.63q0 .05-.03.08-.04.04-.09.04h-1.17q-.05 0-.08-.04-.04-.03-.04-.08v-1.63q0-.05-.05-.05h-3.07q-.05 0-.08-.03-.04-.04-.04-.09v-.8q0-.06.03-.15l1.8-4.04Q19.1-7 19.2-7h1.25q.07 0 .1.04.02.03-.01.1l-1.67 3.75q-.01.02 0 .04t.03.02h1.52q.05 0 .05-.05v-1.24q0-.05.04-.08.03-.04.08-.04h1.17q.05 0 .09.04.03.03.03.08v1.24q0 .05.05.05h.43Z" transform="translate(35.35 91.8)"/></g></svg>
