<svg xmlns="http://www.w3.org/2000/svg" id="Layer_1" data-name="Layer 1" viewBox="0 0 94 105.99"><g id="container"><defs><clipPath id="clip-path"><path d="M90.79 56.99H3.21L0 64.49l3.21 7.5h87.58l3.21-7.5-3.21-7.5z" class="cls-1"/></clipPath><clipPath id="clip-path-2"><path d="M0-1.01h94v122H0z" style="fill:none"/></clipPath><clipPath id="clip-path-3"><path d="m47 21 10-5.6V0H37v15.4Zm2-13.14a2.15 2.15 0 0 1 .3-1.18 2.61 2.61 0 0 1 1.06-.84l.24-.1c.41-.2.51-.37.51-.57s-.22-.41-.57-.41a1 1 0 0 0-1 .62L49 4.85a1.49 1.49 0 0 1 .6-.62 1.72 1.72 0 0 1 .89-.23 1.77 1.77 0 0 1 1.06.31 1 1 0 0 1 .45.86c0 .58-.34.93-1 1.25l-.37.17c-.38.19-.57.35-.63.64h2V8h-3ZM51.5 9l1.5 2.5-1.5 2.5-1.5-2.51h-3L48.5 9Zm-4.21-5a6.36 6.36 0 0 1 1.24.12l-1.24 2.44A3.52 3.52 0 0 0 43.7 10a3.52 3.52 0 0 0 3.59 3.43 3.68 3.68 0 0 0 2.35-.83L51 14.84A6.5 6.5 0 0 1 47.29 16 6.16 6.16 0 0 1 41 10a6.16 6.16 0 0 1 6.29-6Z" class="cls-1"/></clipPath><style>.cls-1{fill:none;clip-rule:evenodd}.cls-7{clip-path:url(#clip-path-2)}</style></defs><path d="M47.82 103 6.63 82.45V13.88A17.67 17.67 0 0 0 21.29 2h51.34A17.69 17.69 0 0 0 87.5 13.92v68.53Z" style="fill:#fff"/><path d="M7 82.45 47.74 103 87 82.43V13.92a19.46 19.46 0 0 1-9-3.69Z" style="fill:#f7f8f7"/><path d="M89 12h-.13A15.51 15.51 0 0 1 73.79 0H20A15.53 15.53 0 0 1 5 12v72.22l1.42.72 40.14 20.44 1.2.61 1.19-.63 38.66-20.44 1.39-.73V14Zm-41.26 91L7 82.45V13.88A17.5 17.5 0 0 0 21.49 2h50.79A17.52 17.52 0 0 0 87 13.92v68.53Z" style="fill:#e9e9ea"/><g class="cls-7" style="clip-path:url(#clip-path)"><path id="banner" fill="#9132a2" d="M-5 51.99H99v25H-5z" class="cls-8"/></g><g class="cls-7" style="clip-path:url(#clip-path-3)"><path id="logo" fill="#9132a2" d="M32-5.01h30v31H32z" class="cls-10"/></g><path fill="#252530" d="M1.31 0q-.09 0-.15-.06-.06-.07-.06-.16v-12.16q0-.09.06-.16.06-.06.15-.06h2.11q.09 0 .15.06.07.07.07.16v10.11q0 .09.09.09h5.88q.09 0 .16.06.06.07.06.16v1.74q0 .09-.06.16Q9.7 0 9.61 0h-8.3Zm18.11-5.58q.11.68.07 1.53-.01.22-.23.22H13.7q-.11 0-.07.09.05.36.19.72.47 1 1.91 1 1.15-.01 1.82-.93.07-.11.16-.11.06 0 .13.07l1.29 1.28q.09.09.09.16 0 .04-.07.15-.59.73-1.53 1.14-.93.4-2.05.4-1.55 0-2.62-.7t-1.54-1.96q-.38-.9-.38-2.36 0-.99.27-1.74.42-1.28 1.45-2.04 1.04-.75 2.46-.75 1.8 0 2.89 1.04t1.32 2.79Zm-4.19-1.64q-1.14 0-1.5 1.06-.07.24-.12.58 0 .09.09.09h3.11q.11 0 .07-.09-.09-.52-.09-.5-.16-.54-.56-.84-.41-.3-1-.3Zm9.43-2.18q1.17 0 2.09.41.92.4 1.43 1.11.51.7.51 1.56v6.1q0 .09-.06.16-.06.06-.15.06h-2.11q-.09 0-.15-.06-.07-.07-.07-.16v-.59q0-.05-.03-.07-.04-.02-.07.03-.76.99-2.43.99-1.41 0-2.27-.68-.87-.68-.87-2.02 0-1.38.98-2.15.97-.76 2.77-.76h1.83q.09 0 .09-.09v-.4q0-.59-.36-.93-.36-.33-1.08-.33-.55 0-.92.2t-.48.56q-.05.2-.23.18l-2.18-.29q-.22-.04-.2-.16.07-.76.6-1.37.53-.61 1.41-.95.87-.35 1.95-.35Zm-.36 7.65q.77 0 1.31-.41t.54-1.06v-.65q0-.09-.09-.09h-1.29q-.81 0-1.27.31-.46.3-.46.86 0 .49.34.76.34.28.92.28Zm11.92-10.63q0-.09.06-.16.06-.06.15-.06h2.11q.09 0 .15.06.06.07.06.16V-.22q0 .09-.06.16-.06.06-.15.06h-2.11q-.09 0-.15-.06-.06-.07-.06-.16v-.59q0-.05-.04-.06-.04-.01-.07.02-.76.99-2.07.99-1.26 0-2.17-.7-.91-.7-1.31-1.92-.3-.94-.3-2.18 0-1.28.32-2.23.42-1.16 1.31-1.83.89-.68 2.2-.68 1.3 0 2.02.9.03.06.07.04.04-.02.04-.07v-3.85Zm-.38 9.57q.36-.66.36-1.82 0-1.2-.4-1.89-.41-.7-1.2-.7-.85 0-1.28.7-.45.71-.45 1.91 0 1.08.38 1.8.45.78 1.33.78.81 0 1.26-.78Zm13.01-2.77q.11.68.07 1.53-.01.22-.23.22h-5.56q-.11 0-.07.09.05.36.19.72.47 1 1.91 1 1.15-.01 1.82-.93.07-.11.16-.11.06 0 .13.07l1.29 1.28q.09.09.09.16 0 .04-.07.15-.59.73-1.53 1.14-.93.4-2.05.4-1.55 0-2.62-.7t-1.54-1.96q-.38-.9-.38-2.36 0-.99.27-1.74.42-1.28 1.45-2.04 1.04-.75 2.46-.75 1.8 0 2.89 1.04t1.32 2.79Zm-4.19-1.64q-1.14 0-1.5 1.06-.07.24-.12.58 0 .09.09.09h3.11q.11 0 .07-.09-.09-.52-.09-.5-.16-.54-.56-.84-.41-.3-1-.3ZM55.1-9.38q.65 0 1.02.25.15.08.11.27l-.38 2.06q-.01.21-.25.12-.27-.09-.63-.09-.14 0-.39.04-.65.05-1.1.47-.45.43-.45 1.13v4.91q0 .09-.06.16-.07.06-.16.06h-2.1q-.09 0-.16-.06-.06-.07-.06-.16v-8.82q0-.09.06-.15.07-.06.16-.06h2.1q.09 0 .16.06.06.06.06.15v.69q0 .05.03.07.04.02.06-.02.74-1.08 1.98-1.08Z" transform="translate(17.78 53.5)"/><path fill="#252530" d="M2.69.07q-.7 0-1.22-.22Q.95-.38.66-.78q-.28-.41-.28-.96v-.22q0-.05.03-.08t.08-.03h.8q.04 0 .07.03.04.03.04.08v.17q0 .41.36.69.37.27 1.01.27.55 0 .83-.23.28-.24.28-.61 0-.25-.15-.42-.16-.18-.44-.32-.28-.15-.85-.36-.64-.24-1.04-.44-.39-.21-.66-.57-.26-.35-.26-.88 0-.79.57-1.25.58-.46 1.54-.46.68 0 1.19.23.52.24.81.65.29.42.29.97v.15q0 .05-.03.08t-.08.03h-.81q-.04 0-.08-.03-.03-.03-.03-.08v-.09q0-.43-.34-.72-.35-.29-.96-.29-.5 0-.77.2-.28.21-.28.59 0 .27.15.44.14.17.43.31.29.14.89.36.64.24 1.02.44t.66.55q.27.36.27.89 0 .81-.6 1.28-.59.48-1.63.48Zm8.11-4.74q.69 0 1.08.42.4.42.4 1.16v2.98q0 .05-.04.08-.03.03-.07.03h-.82q-.05 0-.08-.03t-.03-.08v-2.76q0-.42-.22-.66-.22-.24-.59-.24t-.6.24q-.24.24-.24.65v2.77q0 .05-.03.08T9.49 0h-.82q-.05 0-.08-.03t-.03-.08v-2.76q0-.42-.23-.66-.22-.24-.59-.24-.34 0-.56.2-.22.19-.26.54v2.92q0 .05-.03.08T6.81 0h-.82q-.05 0-.08-.03t-.03-.08v-4.38q0-.05.03-.08t.08-.03h.82q.05 0 .08.03t.03.08v.3q0 .02.02.03.02.01.04-.02.19-.25.49-.37.29-.12.65-.12.44 0 .77.18.34.18.52.52.02.04.06 0 .2-.36.55-.53.35-.17.78-.17Zm4.29 0q.57 0 1 .2.43.19.67.54.23.35.23.79v3.03q0 .05-.03.08t-.08.03h-.82q-.05 0-.08-.03t-.03-.08V-.4q0-.02-.02-.03-.02 0-.04.02-.44.48-1.27.48-.68 0-1.12-.34-.43-.34-.43-1.02 0-.7.49-1.09.49-.39 1.38-.39h.96q.05 0 .05-.05v-.21q0-.35-.21-.55-.21-.19-.62-.19-.34 0-.55.12-.21.12-.27.34-.03.11-.12.09l-.88-.11q-.04-.01-.07-.03-.04-.02-.03-.06.08-.55.59-.9.52-.35 1.3-.35Zm-.21 3.91q.44 0 .75-.23.32-.23.32-.59v-.43q0-.04-.05-.04h-.75q-.48 0-.75.18-.28.18-.28.51 0 .29.21.45.21.15.55.15Zm3.26.76q-.04 0-.07-.03-.03-.03-.03-.08v-6.08q0-.05.03-.08t.07-.03h.83q.05 0 .08.03t.03.08v6.08q0 .05-.03.08t-.08.03h-.83Zm2.16 0q-.05 0-.08-.03t-.03-.08v-6.08q0-.05.03-.08t.08-.03h.82q.05 0 .08.03t.03.08v6.08q0 .05-.03.08t-.08.03h-.82Zm7.46-3.29q-.06.03 0 .06.91.43.91 1.48 0 .86-.57 1.3-.57.45-1.49.45h-2.26q-.05 0-.08-.03t-.03-.08v-6.08q0-.05.03-.08t.08-.03h2.19q.98 0 1.51.42.53.43.53 1.28 0 .95-.82 1.31ZM25.33-5.4q-.05 0-.05.04v1.67q0 .04.05.04h1.21q.48 0 .75-.22.28-.23.28-.64 0-.41-.28-.65-.27-.24-.75-.24h-1.21Zm1.28 4.49q.47 0 .75-.25.27-.25.27-.69 0-.44-.28-.68-.28-.25-.75-.25h-1.27q-.05 0-.05.04v1.79q0 .04.05.04h1.28Zm5.76-3.58q0-.05.03-.08.04-.03.08-.03h.82q.05 0 .08.03t.03.08v4.38q0 .05-.03.08T33.3 0h-.82q-.04 0-.08-.03-.03-.03-.03-.08V-.4q0-.02-.01-.03-.02-.01-.04.02-.37.47-1.11.47-.68 0-1.15-.39-.46-.4-.46-1.13v-3.03q0-.05.03-.08t.08-.03h.83q.04 0 .07.03.04.03.04.08v2.73q0 .43.22.68.22.25.61.25.41 0 .65-.25.24-.25.24-.68v-2.73ZM36.23.05q-.56 0-.99-.16-.43-.17-.66-.46-.24-.29-.24-.65v-.09q0-.04.04-.07.03-.03.07-.03h.79q.05 0 .08.03t.03.07v.02q0 .23.25.39.25.17.63.17.36 0 .58-.15.23-.15.23-.37 0-.21-.19-.31-.18-.11-.6-.22l-.34-.11q-.46-.14-.77-.29-.32-.15-.53-.42-.22-.26-.22-.68 0-.63.49-1 .5-.37 1.31-.37.55 0 .96.17.42.18.64.49.23.31.23.7 0 .05-.04.08-.03.03-.07.03h-.77q-.04 0-.07-.03-.03-.03-.03-.08 0-.23-.23-.39-.23-.15-.63-.15-.35 0-.57.13-.22.13-.22.36 0 .22.21.33.21.11.71.25l.19.05q.48.14.81.29.32.15.54.42.23.26.23.69 0 .63-.5 1-.51.36-1.35.36Zm3.33-5.28q-.28 0-.46-.18t-.18-.46q0-.28.18-.46t.46-.18q.27 0 .45.18t.18.46q0 .28-.18.46t-.45.18ZM39.12 0q-.04 0-.07-.03-.03-.03-.03-.08V-4.5q0-.05.03-.08t.07-.03h.83q.05 0 .08.03t.03.08v4.39q0 .05-.03.08t-.08.03h-.83Zm4.34-4.67q.73 0 1.17.43.43.43.43 1.18v2.95q0 .05-.03.08t-.07.03h-.83q-.05 0-.08-.03t-.03-.08v-2.73q0-.42-.23-.67-.24-.26-.63-.26-.38 0-.62.25t-.24.67v2.74q0 .05-.03.08t-.08.03h-.83q-.04 0-.07-.03-.03-.03-.03-.08v-4.38q0-.05.03-.08t.07-.03h.83q.05 0 .08.03t.03.08v.29q0 .02.02.03.02.01.03-.02.36-.48 1.11-.48ZM50-2.82q.03.23.03.51l-.01.28q0 .1-.11.1H47.1q-.05 0-.05.05.03.3.08.4.22.65 1.06.66.61 0 .97-.5.03-.06.09-.06.03 0 .06.03l.56.46q.08.06.03.14-.28.4-.75.61-.46.22-1.03.22-.7 0-1.19-.31-.49-.32-.71-.89-.21-.48-.21-1.35 0-.52.11-.84.18-.63.68-1 .5-.36 1.2-.36 1.77 0 2 1.85Zm-2-.95q-.34 0-.56.17-.22.16-.31.46-.05.15-.07.39-.02.05.04.05h1.82q.05 0 .05-.05-.02-.22-.05-.34-.09-.32-.32-.5-.24-.18-.6-.18ZM52.62.05q-.56 0-.99-.16-.43-.17-.66-.46-.24-.29-.24-.65v-.09q0-.04.03-.07.04-.03.08-.03h.79q.05 0 .08.03t.03.07v.02q0 .23.25.39.25.17.62.17.36 0 .59-.15.22-.15.22-.37 0-.21-.18-.31-.18-.11-.6-.22l-.34-.11q-.46-.14-.77-.29-.32-.15-.54-.42-.21-.26-.21-.68 0-.63.49-1 .5-.37 1.31-.37.55 0 .96.17.42.18.64.49.23.31.23.7 0 .05-.04.08-.03.03-.07.03h-.77q-.04 0-.07-.03-.04-.03-.04-.08 0-.23-.23-.39-.22-.15-.62-.15-.35 0-.57.13-.22.13-.22.36 0 .22.21.33.21.11.71.25l.19.05q.48.14.8.29.33.15.55.42.23.26.23.69 0 .63-.51 1-.5.36-1.34.36Zm4.35 0q-.57 0-.99-.16-.43-.17-.67-.46-.23-.29-.23-.65v-.09q0-.04.03-.07.03-.03.08-.03h.79q.04 0 .08.03.03.03.03.07v.02q0 .23.25.39.24.17.62.17.36 0 .59-.15.22-.15.22-.37 0-.21-.18-.31-.19-.11-.6-.22l-.34-.11q-.46-.14-.78-.29-.31-.15-.53-.42-.21-.26-.21-.68 0-.63.49-1t1.3-.37q.55 0 .97.17.41.18.64.49.22.31.22.7 0 .05-.03.08t-.08.03h-.76q-.05 0-.08-.03t-.03-.08q0-.23-.23-.39-.23-.15-.62-.15-.36 0-.58.13-.22.13-.22.36 0 .22.22.33.21.11.7.25l.2.05q.48.14.8.29.32.15.55.42.22.26.22.69 0 .63-.5 1-.5.36-1.34.36Z" transform="translate(17.21 35.5)"/><path fill="#fff" d="M5.07 0q-.1 0-.13-.1l-.33-1.07q-.02-.04-.05-.04H1.92q-.03 0-.05.04L1.54-.1q-.03.1-.13.1h-1Q.35 0 .32-.04.29-.07.31-.14L2.48-6.9q.03-.1.13-.1h1.25q.1 0 .13.1L6.17-.14q.01.02.01.05 0 .09-.11.09h-1ZM2.18-2.18q-.01.06.04.06h2.03q.06 0 .04-.06L3.26-5.53q-.01-.04-.03-.04-.02 0-.03.04L2.18-2.18ZM9 .06q-.63 0-1.1-.19-.48-.18-.74-.51-.26-.32-.26-.72v-.09q0-.05.04-.09.03-.03.08-.03h.88q.05 0 .09.03.03.04.03.09v.02q0 .25.27.44.28.18.7.18.4 0 .65-.16.25-.17.25-.42 0-.23-.2-.35-.21-.11-.67-.24l-.38-.12q-.51-.15-.86-.32t-.59-.47q-.24-.29-.24-.75 0-.7.55-1.11.55-.42 1.45-.42.61 0 1.07.19.46.2.71.54.25.35.25.79 0 .05-.03.09-.04.03-.09.03h-.85q-.05 0-.08-.03-.04-.04-.04-.09 0-.26-.25-.43-.26-.18-.7-.18-.39 0-.64.14-.24.15-.24.41 0 .24.23.36.24.13.79.28l.22.06q.53.16.89.32.36.17.61.46.25.3.25.77 0 .71-.56 1.11Q9.93.06 9 .06Zm3.69-5.87q-.31 0-.51-.2t-.2-.51q0-.31.2-.51t.51-.2q.31 0 .51.2t.2.51q0 .31-.2.51t-.51.2ZM12.21 0q-.05 0-.08-.04-.04-.03-.04-.08V-5q0-.05.04-.08.03-.04.08-.04h.92q.05 0 .08.04.04.03.04.08v4.88q0 .05-.04.08-.03.04-.08.04h-.92Zm4.32-5.19q.63 0 1.11.22.48.22.74.6.26.39.26.88v3.37q0 .05-.03.08-.04.04-.09.04h-.92q-.05 0-.08-.04-.04-.03-.04-.08v-.32q0-.03-.02-.04-.02 0-.04.02-.49.54-1.42.54-.75 0-1.23-.38-.49-.38-.49-1.13 0-.78.55-1.22.54-.43 1.53-.43h1.07q.05 0 .05-.05v-.24q0-.39-.23-.61-.23-.21-.69-.21-.38 0-.61.14-.24.13-.3.37-.03.12-.14.1l-.97-.12q-.05-.01-.08-.03-.04-.03-.03-.07.08-.61.66-1 .57-.39 1.44-.39Zm-.24 4.35q.49 0 .84-.26t.35-.66v-.47q0-.05-.05-.05h-.84q-.53 0-.83.2-.31.2-.31.57 0 .32.24.49.23.18.6.18Zm8.43-6.17q.63 0 1.11.26.48.26.74.73.27.48.27 1.1 0 .61-.27 1.08-.27.47-.77.72-.49.26-1.14.26h-1.6q-.05 0-.05.05v2.69q0 .05-.03.08-.04.04-.09.04h-.92q-.05 0-.09-.04-.03-.03-.03-.08v-6.77q0-.05.03-.09.04-.03.09-.03h2.75Zm-.17 3.21q.51 0 .82-.3.31-.3.31-.79 0-.5-.31-.81-.31-.31-.82-.31h-1.49q-.05 0-.05.05v2.11q0 .05.05.05h1.49Zm5.09-1.39q.63 0 1.11.22.48.22.74.6.26.39.26.88v3.37q0 .05-.04.08-.03.04-.08.04h-.92q-.05 0-.08-.04-.04-.03-.04-.08v-.32q0-.03-.02-.04-.02 0-.04.02-.49.54-1.42.54-.75 0-1.23-.38-.49-.38-.49-1.13 0-.78.54-1.22.55-.43 1.54-.43h1.07q.05 0 .05-.05v-.24q0-.39-.23-.61-.23-.21-.69-.21-.38 0-.62.14-.23.13-.29.37-.03.12-.14.1l-.97-.12q-.05-.01-.08-.03-.04-.03-.03-.07.08-.61.66-1 .57-.39 1.44-.39ZM29.4-.84q.49 0 .84-.26t.35-.66v-.47q0-.05-.05-.05h-.84q-.53 0-.83.2-.31.2-.31.57 0 .32.24.49.23.18.6.18Zm5.64.92q-.77 0-1.33-.4-.56-.39-.78-1.06-.16-.45-.16-1.2 0-.72.16-1.18.21-.66.77-1.04.57-.39 1.34-.39.78 0 1.36.39.58.39.77.98.05.16.07.32v.02q0 .1-.11.12l-.9.13h-.02q-.09 0-.12-.1 0-.05-.01-.08-.02-.08-.04-.14-.09-.28-.36-.46t-.64-.18q-.38 0-.65.19-.26.2-.35.54-.1.32-.1.89 0 .55.09.89.1.35.36.55.26.21.65.21.38 0 .66-.19.27-.2.35-.53.01-.02.01-.05.01-.01.01-.03.03-.12.14-.1l.9.14q.05.01.09.04.03.04.02.1-.03.16-.05.23-.19.64-.77 1.02-.58.37-1.36.37Zm3.84-5.89q-.31 0-.51-.2t-.2-.51q0-.31.2-.51t.51-.2q.31 0 .51.2t.2.51q0 .31-.2.51t-.51.2ZM38.4 0q-.05 0-.08-.04-.04-.03-.04-.08V-5q0-.05.04-.08.03-.04.08-.04h.92q.05 0 .09.04.03.03.03.08v4.88q0 .05-.03.08-.04.04-.09.04h-.92Zm5.03-5.12q.05 0 .09.04.03.03.03.08v.79q0 .05-.03.08-.04.04-.09.04h-.99q-.05 0-.05.05v3.92q0 .05-.04.08-.03.04-.08.04h-.92q-.05 0-.08-.04-.04-.03-.04-.08v-3.92q0-.05-.05-.05h-.62q-.05 0-.08-.04-.04-.03-.04-.08V-5q0-.05.04-.08.03-.04.08-.04h.62q.05 0 .05-.05v-.18q0-.65.17-1.01.17-.35.56-.5.39-.15 1.1-.14h.35q.05 0 .08.04.04.03.04.08v.7q0 .05-.04.09-.03.03-.08.03h-.26q-.43 0-.6.17-.16.17-.16.62v.1q0 .05.05.05h.99Zm1.76-.69q-.31 0-.51-.2t-.2-.51q0-.31.2-.51t.51-.2q.31 0 .51.2t.2.51q0 .31-.2.51t-.51.2ZM44.71 0q-.05 0-.08-.04-.04-.03-.04-.08V-5q0-.05.04-.08.03-.04.08-.04h.92q.05 0 .08.04.04.03.04.08v4.88q0 .05-.04.08-.03.04-.08.04h-.92Zm4.5.08q-.77 0-1.33-.4-.56-.39-.78-1.06-.16-.45-.16-1.2 0-.72.16-1.18.21-.66.77-1.04.57-.39 1.34-.39.78 0 1.36.39.58.39.77.98.05.16.07.32v.02q0 .1-.11.12l-.9.13h-.02q-.09 0-.12-.1 0-.05-.01-.08-.02-.08-.04-.14-.09-.28-.36-.46t-.64-.18q-.38 0-.65.19-.26.2-.35.54-.1.32-.1.89 0 .55.09.89.1.35.36.55.26.21.65.21.38 0 .65-.19.28-.2.36-.53.01-.02.01-.05.01-.01.01-.03.03-.12.14-.1l.9.14q.05.01.08.04.04.04.03.1-.03.16-.05.23-.19.64-.77 1.02-.58.37-1.36.37Z" transform="translate(20.99 68.3)"/><path fill="#252530" d="M2.16 0q-.11 0-.14-.1L.25-6.87l-.01-.04Q.24-7 .35-7h1.24q.1 0 .13.1l.95 4.07q.01.04.03.04.02 0 .03-.04l.92-4.06Q3.68-7 3.78-7h1.21q.11 0 .14.1l1 4.07q.01.03.03.04.02 0 .03-.04l.92-4.06Q7.14-7 7.24-7h1.18q.14 0 .11.13L6.89-.1q-.03.1-.14.1H5.56q-.1 0-.13-.1L4.41-4.43q-.01-.04-.03-.04-.02 0-.03.04L3.4-.11Q3.38 0 3.27 0H2.16ZM9.5 0q-.05 0-.09-.04-.03-.03-.03-.08v-6.76q0-.05.03-.08Q9.45-7 9.5-7h1.17q.05 0 .08.04.04.03.04.08v6.76q0 .05-.04.08-.03.04-.08.04H9.5Zm6.53-6.88q0-.05.03-.08.04-.04.09-.04h1.17q.05 0 .08.04.04.03.04.08v6.76q0 .05-.04.08-.03.04-.08.04h-1.13q-.1 0-.14-.08l-2.59-4.28q-.02-.03-.04-.02-.02 0-.02.04l.02 4.22q0 .05-.04.08-.03.04-.08.04h-1.17q-.05 0-.09-.04-.03-.03-.03-.08v-6.76q0-.05.03-.08.04-.04.09-.04h1.13q.1 0 .14.08l2.58 4.26q.02.03.04.02.02 0 .02-.04l-.01-4.2ZM23.49-7q.05 0 .08.04.04.03.04.08v.98q0 .05-.04.08-.03.04-.08.04H21.7q-.05 0-.05.05v5.61q0 .05-.04.08-.03.04-.08.04h-1.17q-.05 0-.09-.04-.03-.03-.03-.08v-5.61q0-.05-.05-.05h-1.74q-.05 0-.09-.04-.03-.03-.03-.08v-.98q0-.05.03-.08.04-.04.09-.04h5.04Zm5.88 1.09q0 .05-.03.08-.04.04-.09.04h-3.28q-.05 0-.05.05v1.55q0 .05.05.05h2.15q.05 0 .08.03.04.04.04.09v.97q0 .05-.04.09-.03.03-.08.03h-2.15q-.05 0-.05.05v1.62q0 .05.05.05h3.28q.05 0 .09.03.03.04.03.09v.97q0 .05-.03.08-.04.04-.09.04h-4.62q-.05 0-.09-.04-.03-.03-.03-.08v-6.76q0-.05.03-.08.04-.04.09-.04h4.62q.05 0 .09.04.03.03.03.08v.97ZM34.19 0q-.1 0-.14-.09L32.8-2.86q-.02-.04-.06-.04h-.93q-.05 0-.05.05v2.73q0 .05-.04.08-.03.04-.08.04h-1.17q-.05 0-.09-.04-.03-.03-.03-.08v-6.76q0-.05.03-.08.04-.04.09-.04h2.86q.64 0 1.12.26.49.26.75.74.27.48.27 1.11 0 .68-.34 1.16-.34.49-.95.69-.05.02-.03.07l1.36 2.83q.02.04.02.06 0 .08-.11.08h-1.23Zm-2.38-5.79q-.05 0-.05.05v1.71q0 .05.05.05h1.31q.42 0 .68-.25.27-.25.27-.65t-.27-.66q-.26-.25-.68-.25h-1.31Z" transform="translate(29 82.4)"/><path fill="#252530" d="M2.33-1.27q-.02.02-.01.04t.04.02h2.71q.05 0 .09.03.03.04.03.09v.97q0 .05-.03.08-.04.04-.09.04H.57Q.52 0 .48-.04.45-.07.45-.12v-.92q0-.09.06-.15.49-.48 1-1.04.51-.57.64-.71.28-.33.57-.63.91-1.01.91-1.5 0-.35-.25-.58-.25-.22-.65-.22t-.65.22q-.25.23-.25.6v.25q0 .05-.04.09-.03.03-.08.03H.53q-.05 0-.08-.03-.04-.04-.04-.09v-.47q.03-.54.34-.96.31-.41.82-.63.52-.22 1.16-.22.71 0 1.24.26.52.27.81.72.28.45.28 1 0 .42-.21.86t-.63.95q-.31.39-.67.77-.36.38-1.07 1.1l-.15.15ZM8.44.11q-1.1 0-1.74-.62-.64-.61-.64-1.67v-2.64q0-1.04.64-1.65.64-.61 1.74-.61t1.75.61q.64.61.64 1.65v2.64q0 1.06-.64 1.67-.65.62-1.75.62Zm0-1.21q.45 0 .72-.28.26-.27.26-.73v-2.75q0-.46-.26-.73-.27-.28-.72-.28-.44 0-.7.28-.27.27-.27.73v2.75q0 .46.27.73.26.28.7.28Zm5.19-.17q-.02.02-.01.04t.04.02h2.71q.05 0 .09.03.03.04.03.09v.97q0 .05-.03.08-.04.04-.09.04h-4.5q-.05 0-.08-.04-.04-.03-.04-.08v-.92q0-.09.06-.15.49-.48 1-1.04.51-.57.64-.71.28-.33.57-.63.91-1.01.91-1.5 0-.35-.25-.58-.25-.22-.65-.22t-.65.22q-.25.23-.25.6v.25q0 .05-.03.09-.04.03-.09.03h-1.18q-.05 0-.08-.03-.04-.04-.04-.09v-.47q.03-.54.34-.96.31-.41.83-.63.51-.22 1.15-.22.71 0 1.24.26.52.27.81.72.28.45.28 1 0 .42-.21.86t-.63.95q-.31.39-.67.77-.36.38-1.07 1.1l-.15.15Zm8.73-1.78q.05 0 .09.03.03.04.03.09v1.01q0 .05-.03.09-.04.03-.09.03h-.43q-.05 0-.05.05v1.63q0 .05-.03.08-.04.04-.09.04h-1.17q-.05 0-.08-.04-.04-.03-.04-.08v-1.63q0-.05-.05-.05h-3.07q-.05 0-.08-.03-.04-.04-.04-.09v-.8q0-.06.03-.15l1.8-4.04Q19.1-7 19.2-7h1.25q.07 0 .1.04.02.03-.01.1l-1.67 3.75q-.01.02 0 .04t.03.02h1.52q.05 0 .05-.05v-1.24q0-.05.04-.08.03-.04.08-.04h1.17q.05 0 .09.04.03.03.03.08v1.24q0 .05.05.05h.43Z" transform="translate(35.35 91.8)"/></g></svg>
