<svg xmlns="http://www.w3.org/2000/svg" id="Layer_1" data-name="Layer 1" viewBox="0 0 94 105.99"><g id="container"><defs><clipPath id="clip-path"><path d="M90.79 56.99H3.21L0 64.49l3.21 7.5h87.58l3.21-7.5-3.21-7.5z" class="cls-1"/></clipPath><clipPath id="clip-path-2"><path d="M0-1.01h94v122H0z" style="fill:none"/></clipPath><clipPath id="clip-path-3"><path d="m47 21 10-5.6V0H37v15.4Zm2-13.14a2.15 2.15 0 0 1 .3-1.18 2.61 2.61 0 0 1 1.06-.84l.24-.1c.41-.2.51-.37.51-.57s-.22-.41-.57-.41a1 1 0 0 0-1 .62L49 4.85a1.49 1.49 0 0 1 .6-.62 1.72 1.72 0 0 1 .89-.23 1.77 1.77 0 0 1 1.06.31 1 1 0 0 1 .45.86c0 .58-.34.93-1 1.25l-.37.17c-.38.19-.57.35-.63.64h2V8h-3ZM51.5 9l1.5 2.5-1.5 2.5-1.5-2.51h-3L48.5 9Zm-4.21-5a6.36 6.36 0 0 1 1.24.12l-1.24 2.44A3.52 3.52 0 0 0 43.7 10a3.52 3.52 0 0 0 3.59 3.43 3.68 3.68 0 0 0 2.35-.83L51 14.84A6.5 6.5 0 0 1 47.29 16 6.16 6.16 0 0 1 41 10a6.16 6.16 0 0 1 6.29-6Z" class="cls-1"/></clipPath><style>.cls-1{fill:none;clip-rule:evenodd}.cls-7{clip-path:url(#clip-path-2)}</style></defs><path d="M47.82 103 6.63 82.45V13.88A17.67 17.67 0 0 0 21.29 2h51.34A17.69 17.69 0 0 0 87.5 13.92v68.53Z" style="fill:#fff"/><path d="M7 82.45 47.74 103 87 82.43V13.92a19.46 19.46 0 0 1-9-3.69Z" style="fill:#f7f8f7"/><path d="M89 12h-.13A15.51 15.51 0 0 1 73.79 0H20A15.53 15.53 0 0 1 5 12v72.22l1.42.72 40.14 20.44 1.2.61 1.19-.63 38.66-20.44 1.39-.73V14Zm-41.26 91L7 82.45V13.88A17.5 17.5 0 0 0 21.49 2h50.79A17.52 17.52 0 0 0 87 13.92v68.53Z" style="fill:#e9e9ea"/><g class="cls-7" style="clip-path:url(#clip-path)"><path id="banner" fill="#9132a2" d="M-5 51.99H99v25H-5z" class="cls-8"/></g><g class="cls-7" style="clip-path:url(#clip-path-3)"><path id="logo" fill="#9132a2" d="M32-5.01h30v31H32z" class="cls-10"/></g><path fill="#252530" d="M1.31 0q-.09 0-.15-.06-.06-.07-.06-.16v-12.16q0-.09.06-.16.06-.06.15-.06h2.11q.09 0 .15.06.07.07.07.16v10.11q0 .09.09.09h5.88q.09 0 .16.06.06.07.06.16v1.74q0 .09-.06.16Q9.7 0 9.61 0h-8.3Zm18.11-5.58q.11.68.07 1.53-.01.22-.23.22H13.7q-.11 0-.07.09.05.36.19.72.47 1 1.91 1 1.15-.01 1.82-.93.07-.11.16-.11.06 0 .13.07l1.29 1.28q.09.09.09.16 0 .04-.07.15-.59.73-1.53 1.14-.93.4-2.05.4-1.55 0-2.62-.7t-1.54-1.96q-.38-.9-.38-2.36 0-.99.27-1.74.42-1.28 1.45-2.04 1.04-.75 2.46-.75 1.8 0 2.89 1.04t1.32 2.79Zm-4.19-1.64q-1.14 0-1.5 1.06-.07.24-.12.58 0 .09.09.09h3.11q.11 0 .07-.09-.09-.52-.09-.5-.16-.54-.56-.84-.41-.3-1-.3Zm9.43-2.18q1.17 0 2.09.41.92.4 1.43 1.11.51.7.51 1.56v6.1q0 .09-.06.16-.06.06-.15.06h-2.11q-.09 0-.15-.06-.07-.07-.07-.16v-.59q0-.05-.03-.07-.04-.02-.07.03-.76.99-2.43.99-1.41 0-2.27-.68-.87-.68-.87-2.02 0-1.38.98-2.15.97-.76 2.77-.76h1.83q.09 0 .09-.09v-.4q0-.59-.36-.93-.36-.33-1.08-.33-.55 0-.92.2t-.48.56q-.05.2-.23.18l-2.18-.29q-.22-.04-.2-.16.07-.76.6-1.37.53-.61 1.41-.95.87-.35 1.95-.35Zm-.36 7.65q.77 0 1.31-.41t.54-1.06v-.65q0-.09-.09-.09h-1.29q-.81 0-1.27.31-.46.3-.46.86 0 .49.34.76.34.28.92.28Zm11.92-10.63q0-.09.06-.16.06-.06.15-.06h2.11q.09 0 .15.06.06.07.06.16V-.22q0 .09-.06.16-.06.06-.15.06h-2.11q-.09 0-.15-.06-.06-.07-.06-.16v-.59q0-.05-.04-.06-.04-.01-.07.02-.76.99-2.07.99-1.26 0-2.17-.7-.91-.7-1.31-1.92-.3-.94-.3-2.18 0-1.28.32-2.23.42-1.16 1.31-1.83.89-.68 2.2-.68 1.3 0 2.02.9.03.06.07.04.04-.02.04-.07v-3.85Zm-.38 9.57q.36-.66.36-1.82 0-1.2-.4-1.89-.41-.7-1.2-.7-.85 0-1.28.7-.45.71-.45 1.91 0 1.08.38 1.8.45.78 1.33.78.81 0 1.26-.78Zm13.01-2.77q.11.68.07 1.53-.01.22-.23.22h-5.56q-.11 0-.07.09.05.36.19.72.47 1 1.91 1 1.15-.01 1.82-.93.07-.11.16-.11.06 0 .13.07l1.29 1.28q.09.09.09.16 0 .04-.07.15-.59.73-1.53 1.14-.93.4-2.05.4-1.55 0-2.62-.7t-1.54-1.96q-.38-.9-.38-2.36 0-.99.27-1.74.42-1.28 1.45-2.04 1.04-.75 2.46-.75 1.8 0 2.89 1.04t1.32 2.79Zm-4.19-1.64q-1.14 0-1.5 1.06-.07.24-.12.58 0 .09.09.09h3.11q.11 0 .07-.09-.09-.52-.09-.5-.16-.54-.56-.84-.41-.3-1-.3ZM55.1-9.38q.65 0 1.02.25.15.08.11.27l-.38 2.06q-.01.21-.25.12-.27-.09-.63-.09-.14 0-.39.04-.65.05-1.1.47-.45.43-.45 1.13v4.91q0 .09-.06.16-.07.06-.16.06h-2.1q-.09 0-.16-.06-.06-.07-.06-.16v-8.82q0-.09.06-.15.07-.06.16-.06h2.1q.09 0 .16.06.06.06.06.15v.69q0 .05.03.07.04.02.06-.02.74-1.08 1.98-1.08Z" transform="translate(17.78 52.1)"/><path fill="#fff" d="M.85 0Q.8 0 .77-.04.73-.07.73-.12v-6.76q0-.05.04-.08Q.8-7 .85-7h.92q.05 0 .08.04.04.03.04.08v6.76q0 .05-.04.08-.03.04-.08.04H.85Zm4.84-5.19q.81 0 1.3.48.48.48.48 1.31v3.28q0 .05-.03.08Q7.4 0 7.35 0h-.92q-.05 0-.08-.04-.04-.03-.04-.08v-3.04q0-.46-.26-.75-.26-.28-.69-.28-.43 0-.69.28-.27.28-.27.74v3.05q0 .05-.03.08-.04.04-.09.04h-.92q-.05 0-.08-.04-.04-.03-.04-.08v-4.87q0-.05.04-.09.03-.03.08-.03h.92q.05 0 .09.03.03.04.03.09v.32q0 .03.02.04.02.01.03-.02.41-.54 1.24-.54Zm6.12-1.69q0-.05.04-.08.03-.04.08-.04h.92q.05 0 .09.04.03.03.03.08v6.76q0 .05-.03.08-.04.04-.09.04h-.92q-.05 0-.08-.04-.04-.03-.04-.08v-.3q0-.03-.02-.04-.02-.01-.04.02-.44.52-1.15.52T9.4-.29q-.49-.37-.71-1.03-.18-.56-.18-1.25 0-.71.17-1.22.22-.66.71-1.03t1.23-.37q.69 0 1.13.5.02.02.04.02.02-.01.02-.04v-2.17Zm-.24 5.48q.23-.41.23-1.16 0-.78-.25-1.19-.27-.44-.76-.44-.51 0-.8.42-.3.44-.3 1.22 0 .7.24 1.15.28.48.85.48.51 0 .79-.48Zm3.32-4.41q-.31 0-.51-.2t-.2-.51q0-.31.2-.51t.51-.2q.31 0 .51.2t.2.51q0 .31-.2.51t-.51.2ZM14.41 0q-.05 0-.08-.04-.04-.03-.04-.08V-5q0-.05.04-.08.03-.04.08-.04h.92q.05 0 .09.04.03.03.03.08v4.88q0 .05-.03.08-.04.04-.09.04h-.92Zm4.32-5.19q.63 0 1.11.22.48.22.74.6.26.39.26.88v3.37q0 .05-.04.08-.03.04-.08.04h-.92q-.05 0-.09-.04-.03-.03-.03-.08v-.32q0-.03-.02-.04-.02 0-.04.02-.49.54-1.42.54-.75 0-1.24-.38-.48-.38-.48-1.13 0-.78.54-1.22.55-.43 1.54-.43h1.07q.05 0 .05-.05v-.24q0-.39-.23-.61-.23-.21-.69-.21-.38 0-.62.14-.23.13-.29.37-.03.12-.14.1l-.97-.12q-.05-.01-.08-.03-.04-.03-.03-.07.08-.61.66-1 .57-.39 1.44-.39Zm-.24 4.35q.49 0 .84-.26t.35-.66v-.47q0-.05-.05-.05h-.84q-.53 0-.84.2-.3.2-.3.57 0 .32.24.49.23.18.6.18Z" transform="translate(35.85 68.3)"/><path fill="#252530" d="M2.16 0q-.11 0-.14-.1L.25-6.87l-.01-.04Q.24-7 .35-7h1.24q.1 0 .13.1l.95 4.07q.01.04.03.04.02 0 .03-.04l.92-4.06Q3.68-7 3.78-7h1.21q.11 0 .14.1l1 4.07q.01.03.03.04.02 0 .03-.04l.92-4.06Q7.14-7 7.24-7h1.18q.14 0 .11.13L6.89-.1q-.03.1-.14.1H5.56q-.1 0-.13-.1L4.41-4.43q-.01-.04-.03-.04-.02 0-.03.04L3.4-.11Q3.38 0 3.27 0H2.16ZM9.5 0q-.05 0-.09-.04-.03-.03-.03-.08v-6.76q0-.05.03-.08Q9.45-7 9.5-7h1.17q.05 0 .08.04.04.03.04.08v6.76q0 .05-.04.08-.03.04-.08.04H9.5Zm6.53-6.88q0-.05.03-.08.04-.04.09-.04h1.17q.05 0 .08.04.04.03.04.08v6.76q0 .05-.04.08-.03.04-.08.04h-1.13q-.1 0-.14-.08l-2.59-4.28q-.02-.03-.04-.02-.02 0-.02.04l.02 4.22q0 .05-.04.08-.03.04-.08.04h-1.17q-.05 0-.09-.04-.03-.03-.03-.08v-6.76q0-.05.03-.08.04-.04.09-.04h1.13q.1 0 .14.08l2.58 4.26q.02.03.04.02.02 0 .02-.04l-.01-4.2ZM23.49-7q.05 0 .08.04.04.03.04.08v.98q0 .05-.04.08-.03.04-.08.04H21.7q-.05 0-.05.05v5.61q0 .05-.04.08-.03.04-.08.04h-1.17q-.05 0-.09-.04-.03-.03-.03-.08v-5.61q0-.05-.05-.05h-1.74q-.05 0-.09-.04-.03-.03-.03-.08v-.98q0-.05.03-.08.04-.04.09-.04h5.04Zm5.88 1.09q0 .05-.03.08-.04.04-.09.04h-3.28q-.05 0-.05.05v1.55q0 .05.05.05h2.15q.05 0 .08.03.04.04.04.09v.97q0 .05-.04.09-.03.03-.08.03h-2.15q-.05 0-.05.05v1.62q0 .05.05.05h3.28q.05 0 .09.03.03.04.03.09v.97q0 .05-.03.08-.04.04-.09.04h-4.62q-.05 0-.09-.04-.03-.03-.03-.08v-6.76q0-.05.03-.08.04-.04.09-.04h4.62q.05 0 .09.04.03.03.03.08v.97ZM34.19 0q-.1 0-.14-.09L32.8-2.86q-.02-.04-.06-.04h-.93q-.05 0-.05.05v2.73q0 .05-.04.08-.03.04-.08.04h-1.17q-.05 0-.09-.04-.03-.03-.03-.08v-6.76q0-.05.03-.08.04-.04.09-.04h2.86q.64 0 1.12.26.49.26.75.74.27.48.27 1.11 0 .68-.34 1.16-.34.49-.95.69-.05.02-.03.07l1.36 2.83q.02.04.02.06 0 .08-.11.08h-1.23Zm-2.38-5.79q-.05 0-.05.05v1.71q0 .05.05.05h1.31q.42 0 .68-.25.27-.25.27-.65t-.27-.66q-.26-.25-.68-.25h-1.31Z" transform="translate(29 82.4)"/><path fill="#252530" d="M2.33-1.27q-.02.02-.01.04t.04.02h2.71q.05 0 .09.03.03.04.03.09v.97q0 .05-.03.08-.04.04-.09.04H.57Q.52 0 .48-.04.45-.07.45-.12v-.92q0-.09.06-.15.49-.48 1-1.04.51-.57.64-.71.28-.33.57-.63.91-1.01.91-1.5 0-.35-.25-.58-.25-.22-.65-.22t-.65.22q-.25.23-.25.6v.25q0 .05-.04.09-.03.03-.08.03H.53q-.05 0-.08-.03-.04-.04-.04-.09v-.47q.03-.54.34-.96.31-.41.82-.63.52-.22 1.16-.22.71 0 1.24.26.52.27.81.72.28.45.28 1 0 .42-.21.86t-.63.95q-.31.39-.67.77-.36.38-1.07 1.1l-.15.15ZM8.44.11q-1.1 0-1.74-.62-.64-.61-.64-1.67v-2.64q0-1.04.64-1.65.64-.61 1.74-.61t1.75.61q.64.61.64 1.65v2.64q0 1.06-.64 1.67-.65.62-1.75.62Zm0-1.21q.45 0 .72-.28.26-.27.26-.73v-2.75q0-.46-.26-.73-.27-.28-.72-.28-.44 0-.7.28-.27.27-.27.73v2.75q0 .46.27.73.26.28.7.28Zm5.19-.17q-.02.02-.01.04t.04.02h2.71q.05 0 .09.03.03.04.03.09v.97q0 .05-.03.08-.04.04-.09.04h-4.5q-.05 0-.08-.04-.04-.03-.04-.08v-.92q0-.09.06-.15.49-.48 1-1.04.51-.57.64-.71.28-.33.57-.63.91-1.01.91-1.5 0-.35-.25-.58-.25-.22-.65-.22t-.65.22q-.25.23-.25.6v.25q0 .05-.03.09-.04.03-.09.03h-1.18q-.05 0-.08-.03-.04-.04-.04-.09v-.47q.03-.54.34-.96.31-.41.83-.63.51-.22 1.15-.22.71 0 1.24.26.52.27.81.72.28.45.28 1 0 .42-.21.86t-.63.95q-.31.39-.67.77-.36.38-1.07 1.1l-.15.15Zm8.73-1.78q.05 0 .09.03.03.04.03.09v1.01q0 .05-.03.09-.04.03-.09.03h-.43q-.05 0-.05.05v1.63q0 .05-.03.08-.04.04-.09.04h-1.17q-.05 0-.08-.04-.04-.03-.04-.08v-1.63q0-.05-.05-.05h-3.07q-.05 0-.08-.03-.04-.04-.04-.09v-.8q0-.06.03-.15l1.8-4.04Q19.1-7 19.2-7h1.25q.07 0 .1.04.02.03-.01.1l-1.67 3.75q-.01.02 0 .04t.03.02h1.52q.05 0 .05-.05v-1.24q0-.05.04-.08.03-.04.08-.04h1.17q.05 0 .09.04.03.03.03.08v1.24q0 .05.05.05h.43Z" transform="translate(35.35 91.8)"/></g></svg>
