<svg width="99" height="99" viewBox="0 0 99 99" fill="none" xmlns="http://www.w3.org/2000/svg">
<circle cx="49.5" cy="49.5" r="45.5" stroke="url(#paint0_angular)" stroke-width="7.64706"/>
<rect x="24.4432" y="30.1444" width="34.7072" height="42.0945" rx="2.21621" stroke="white" stroke-opacity="0.1" stroke-width="0.886483"/>
<circle opacity="0.4" r="1.34316" transform="matrix(-1 0 0 1 45.1554 31.0443)" fill="white" fill-opacity="0.4"/>
<path d="M46.0414 31.0443C46.0414 31.5339 45.6445 31.9308 45.1549 31.9308C44.6653 31.9308 44.2684 31.5339 44.2684 31.0443L46.0414 31.0443ZM41.0046 27.6863L41.0045 28.5728L39.2316 28.5728L39.2316 27.6863L41.0046 27.6863ZM44.2684 31.0443C44.2685 29.0489 44.0981 27.6725 43.7792 26.8223C43.6234 26.4068 43.4541 26.1781 43.309 26.0558C43.1809 25.948 43.0303 25.8865 42.8044 25.8865V24.1135C43.418 24.1135 43.9809 24.3038 44.451 24.6997C44.904 25.0811 45.2174 25.608 45.4393 26.1998C45.8761 27.3644 46.0414 29.0102 46.0414 31.0443L44.2684 31.0443ZM42.8044 25.8865C42.0573 25.8865 41.6516 26.0403 41.428 26.2436C41.2215 26.4312 41.0046 26.8143 41.0046 27.6863L39.2316 27.6863C39.2316 26.5435 39.5184 25.5834 40.2354 24.9316C40.9351 24.2955 41.8725 24.1135 42.8044 24.1135V25.8865Z" fill="white" fill-opacity="0.4"/>
<circle opacity="0.4" r="1.34316" transform="matrix(-1 0 0 1 36.4255 31.0443)" fill="white" fill-opacity="0.4"/>
<path d="M37.3114 31.0443C37.3114 31.5339 36.9145 31.9308 36.4249 31.9308C35.9353 31.9308 35.5384 31.5339 35.5384 31.0443L37.3114 31.0443ZM32.2746 27.6863L32.2746 28.5728L30.5016 28.5728L30.5016 27.6863L32.2746 27.6863ZM35.5384 31.0443C35.5385 29.0489 35.3681 27.6725 35.0493 26.8223C34.8934 26.4068 34.7241 26.1781 34.579 26.0558C34.4509 25.948 34.3003 25.8865 34.0744 25.8865V24.1135C34.688 24.1135 35.2509 24.3038 35.721 24.6997C36.174 25.0811 36.4874 25.608 36.7093 26.1998C37.1461 27.3644 37.3115 29.0102 37.3114 31.0443L35.5384 31.0443ZM34.0744 25.8865C33.3274 25.8865 32.9216 26.0403 32.698 26.2436C32.4915 26.4312 32.2746 26.8143 32.2746 27.6863L30.5016 27.6863C30.5016 26.5435 30.7884 25.5834 31.5054 24.9316C32.2052 24.2955 33.1426 24.1135 34.0744 24.1135V25.8865Z" fill="white" fill-opacity="0.4"/>
<circle opacity="0.4" r="1.34316" transform="matrix(-1 0 0 1 53.8861 31.0443)" fill="white" fill-opacity="0.3"/>
<path d="M54.7709 31.0443C54.7709 31.5339 54.374 31.9308 53.8844 31.9308C53.3948 31.9308 52.9979 31.5339 52.9979 31.0443L54.7709 31.0443ZM49.734 27.6863L49.734 28.5728L47.9611 28.5728L47.9611 27.6863L49.734 27.6863ZM52.9979 31.0443C52.998 29.0489 52.8276 27.6725 52.5087 26.8223C52.3529 26.4068 52.1836 26.1781 52.0385 26.0558C51.9104 25.948 51.7598 25.8865 51.5339 25.8865V24.1135C52.1475 24.1135 52.7104 24.3038 53.1805 24.6997C53.6335 25.0811 53.9469 25.608 54.1688 26.1998C54.6055 27.3644 54.7709 29.0102 54.7709 31.0443L52.9979 31.0443ZM51.5339 25.8865C50.7868 25.8865 50.3811 26.0403 50.1574 26.2436C49.951 26.4312 49.7341 26.8143 49.734 27.6863L47.9611 27.6863C47.9611 26.5435 48.2479 25.5834 48.9648 24.9316C49.6646 24.2955 50.602 24.1135 51.5339 24.1135V25.8865Z" fill="white" fill-opacity="0.4"/>
<path fill-rule="evenodd" clip-rule="evenodd" d="M29.3458 28.3579C27.877 28.3579 26.6863 29.5486 26.6863 31.0174V67.3363C26.6863 68.8051 27.877 69.9958 29.3458 69.9958H58.2774C59.7462 69.9958 60.9368 68.8051 60.9368 67.3363V31.0174C60.9368 29.5486 59.7462 28.3579 58.2774 28.3579H29.3458ZM33.4046 37.5309H54.5593V36.6444H33.4046V37.5309ZM33.4046 41.5604H54.5593V40.6739H33.4046V41.5604ZM33.4046 45.5899H54.5593V44.7034H33.4046V45.5899ZM33.4046 49.6193H54.5593V48.7329H33.4046V49.6193ZM33.4046 53.6488H54.5593V52.7623H33.4046V53.6488ZM33.4046 57.6783H54.5593V56.7918H33.4046V57.6783ZM33.4046 61.7078H54.5593V60.8213H33.4046V61.7078Z" fill="white" fill-opacity="0.6"/>
<rect x="71.0117" y="29.7012" width="4.02947" height="31.5642" fill="white" fill-opacity="0.4"/>
<path d="M71.4545 28.358C71.4545 27.4901 72.1581 26.7865 73.026 26.7865C73.8939 26.7865 74.5975 27.4901 74.5975 28.358V29.2579H71.4545V28.358Z" stroke="white" stroke-opacity="0.4" stroke-width="0.886483"/>
<path d="M71.4549 61.7086H74.5979V61.8686L73.0264 66.845L71.4549 61.8686V61.7086Z" stroke="white" stroke-opacity="0.4" stroke-width="0.886483"/>
<path d="M72.2855 65.9666H73.7701L73.0278 68.3171L72.2855 65.9666Z" fill="white" fill-opacity="0.4"/>
<defs>
<radialGradient id="paint0_angular" cx="0" cy="0" r="1" gradientUnits="userSpaceOnUse" gradientTransform="translate(49.5 49.5) rotate(90) scale(45.5)">
<stop stop-color="#EE55DB"/>
<stop offset="0.171875" stop-color="#FF4D86"/>
<stop offset="0.359375" stop-color="#FF6C55"/>
<stop offset="0.505208" stop-color="#FFB05E"/>
<stop offset="0.614583" stop-color="#FF6C55"/>
<stop offset="0.807292" stop-color="#FF4D86"/>
<stop offset="1" stop-color="#EE55DB"/>
</radialGradient>
</defs>
</svg>
