<svg width="99" height="99" viewBox="0 0 99 99" fill="none" xmlns="http://www.w3.org/2000/svg">
<circle cx="49.5" cy="49.5" r="45.5" stroke="url(#paint0_angular)" stroke-width="7.64706"/>
<path fill-rule="evenodd" clip-rule="evenodd" d="M57.963 39.9463C57.963 35.5577 61.628 32 66.1491 32C70.6701 32 74.3352 35.5577 74.3352 39.9463C74.3352 44.3349 70.6701 47.8927 66.1491 47.8927C61.628 47.8927 57.963 44.3349 57.963 39.9463Z" fill="white" fill-opacity="0.4"/>
<path fill-rule="evenodd" clip-rule="evenodd" d="M52.3 60.7366C52.3 54.438 58.4928 49.332 66.1319 49.332C73.771 49.332 79.9637 54.438 79.9637 60.7366C79.9637 61.4169 80 62.7059 80 62.7059L52.3704 62.6352C52.3704 62.6352 52.3 61.5161 52.3 60.7366Z" fill="white" fill-opacity="0.4"/>
<path d="M55.1032 51.7279C52.5758 54.0183 51.0106 57.193 51.0106 60.7015C51.0106 61.3139 51.046 62.1154 51.0666 62.5303L36.2472 62.4924C36.2472 62.4924 36.183 61.4706 36.183 60.7589C36.183 55.008 41.8372 50.346 48.8121 50.346C51.1028 50.346 53.251 50.8489 55.1032 51.7279Z" fill="white" fill-opacity="0.4"/>
<path d="M48.8277 34.5212C44.6998 34.5212 41.3535 37.7695 41.3535 41.7765C41.3535 45.7835 44.6998 49.0319 48.8277 49.0319C52.9556 49.0319 56.302 45.7835 56.302 41.7765C56.302 37.7695 52.9556 34.5212 48.8277 34.5212Z" fill="white" fill-opacity="0.4"/>
<path d="M38.884 53.1509C36.4287 55.1165 34.8936 57.9169 34.8936 61.0249C34.8936 61.5363 34.9245 62.2026 34.9433 62.5616L22.0566 62.5286C22.0566 62.5286 22 61.6285 22 61.0014C22 55.9352 26.9811 51.8282 33.1257 51.8282C35.2333 51.8282 37.2041 52.3115 38.884 53.1509Z" fill="white" fill-opacity="0.4"/>
<path d="M33.1393 37.8875C29.5028 37.8875 26.5548 40.749 26.5548 44.2791C26.5548 47.809 29.5028 50.6707 33.1393 50.6707C36.7758 50.6707 39.7237 47.809 39.7237 44.2791C39.7237 40.749 36.7758 37.8875 33.1393 37.8875Z" fill="white" fill-opacity="0.4"/>
<path d="M78.9759 61.7033L53.3214 61.6377C53.3094 61.3352 53.3 61.0106 53.3 60.7366C53.3 55.1622 58.8559 50.332 66.1319 50.332C73.4079 50.332 78.9637 55.1622 78.9637 60.7366C78.9637 61.0074 78.9692 61.3666 78.9759 61.7033ZM33.1257 52.8282C34.5225 52.8282 35.8489 53.057 37.0534 53.468C35.0966 55.496 33.8936 58.1263 33.8936 61.0249C33.8936 61.1932 33.8967 61.3761 33.9016 61.5589L23.0102 61.5311C23.0041 61.3475 23 61.163 23 61.0014C23 56.6594 27.3442 52.8282 33.1257 52.8282ZM53.3414 52.0887C51.2672 54.4283 50.0106 57.4244 50.0106 60.7015C50.0106 60.9599 50.0166 61.2483 50.0251 61.5276L37.1992 61.4948C37.1899 61.244 37.183 60.9826 37.183 60.7589C37.183 55.7322 42.2003 51.346 48.8121 51.346C50.4228 51.346 51.9526 51.6116 53.3414 52.0887ZM58.963 39.9463C58.963 36.1378 62.1521 33 66.1491 33C70.1461 33 73.3352 36.1378 73.3352 39.9463C73.3352 43.7548 70.1461 46.8927 66.1491 46.8927C62.1521 46.8927 58.963 43.7548 58.963 39.9463ZM42.3535 41.7765C42.3535 38.3496 45.2239 35.5212 48.8277 35.5212C52.4316 35.5212 55.302 38.3496 55.302 41.7765C55.302 45.2034 52.4316 48.0319 48.8277 48.0319C45.2239 48.0319 42.3535 45.2034 42.3535 41.7765ZM27.5548 44.2791C27.5548 41.3291 30.0268 38.8875 33.1393 38.8875C36.2517 38.8875 38.7237 41.3292 38.7237 44.2791C38.7237 47.2289 36.2517 49.6707 33.1393 49.6707C30.0268 49.6707 27.5548 47.2289 27.5548 44.2791Z" stroke="white" stroke-opacity="0.4" stroke-width="2" stroke-linecap="round" stroke-linejoin="round"/>
<defs>
<radialGradient id="paint0_angular" cx="0" cy="0" r="1" gradientUnits="userSpaceOnUse" gradientTransform="translate(49.5 49.5) rotate(90) scale(45.5)">
<stop stop-color="#EE55DB"/>
<stop offset="0.171875" stop-color="#FF4D86"/>
<stop offset="0.359375" stop-color="#FF6C55"/>
<stop offset="0.505208" stop-color="#FFB05E"/>
<stop offset="0.614583" stop-color="#FF6C55"/>
<stop offset="0.807292" stop-color="#FF4D86"/>
<stop offset="1" stop-color="#EE55DB"/>
</radialGradient>
</defs>
</svg>
