<svg width="715" height="379" viewBox="0 0 715 379" fill="none" xmlns="http://www.w3.org/2000/svg">
<rect y="50" width="218.239" height="327.839" rx="14.4211" fill="#150A2F" fill-opacity="0.5"/>
<rect x="2.40351" y="52.4035" width="213.432" height="323.032" rx="12.0176" stroke="white" stroke-opacity="0.25" stroke-width="4.80702"/>
<g filter="url(#filter0_b)">
<rect x="78.3926" y="76.6045" width="61.4536" height="61.4536" rx="5.34379" fill="url(#paint0_linear)" fill-opacity="0.15"/>
<rect x="79.2451" y="77.457" width="59.7486" height="59.7486" rx="4.49131" stroke="white" stroke-opacity="0.6" stroke-width="1.70496"/>
</g>
<g opacity="0.8">
<path d="M128.673 103.607H125.448C125.036 101.766 124.31 100.01 123.302 98.4147L125.579 96.1378C125.666 96.0514 125.734 95.9487 125.781 95.8358C125.828 95.7228 125.852 95.6018 125.852 95.4795C125.852 95.3572 125.828 95.2361 125.781 95.1232C125.734 95.0102 125.666 94.9076 125.579 94.8212L121.629 90.8712C121.543 90.7847 121.44 90.7161 121.327 90.6693C121.214 90.6225 121.093 90.5984 120.971 90.5984C120.849 90.5984 120.728 90.6225 120.615 90.6693C120.502 90.7161 120.399 90.7847 120.313 90.8712L118.036 93.1481C116.44 92.1413 114.684 91.4155 112.844 91.0022V87.7778C112.844 87.6555 112.82 87.5344 112.773 87.4214C112.726 87.3084 112.658 87.2057 112.571 87.1192C112.485 87.0328 112.382 86.9642 112.269 86.9174C112.156 86.8706 112.035 86.8466 111.913 86.8467H106.326C106.204 86.8466 106.083 86.8706 105.969 86.9174C105.856 86.9642 105.754 87.0328 105.667 87.1192C105.581 87.2057 105.512 87.3084 105.466 87.4214C105.419 87.5344 105.395 87.6555 105.395 87.7778V91.0022C103.554 91.4155 101.798 92.1413 100.203 93.1481L97.9259 90.8712C97.8394 90.7847 97.7368 90.7161 97.6238 90.6693C97.5109 90.6225 97.3898 90.5984 97.2675 90.5984C97.1453 90.5984 97.0242 90.6225 96.9112 90.6693C96.7983 90.7161 96.6957 90.7847 96.6092 90.8712L92.6592 94.8212C92.5728 94.9076 92.5042 95.0102 92.4574 95.1232C92.4106 95.2361 92.3865 95.3572 92.3865 95.4795C92.3865 95.6018 92.4106 95.7228 92.4574 95.8358C92.5042 95.9487 92.5728 96.0514 92.6592 96.1378L94.9361 98.4147C93.9288 100.01 93.2029 101.766 92.7902 103.607H89.5658C89.4436 103.607 89.3224 103.631 89.2094 103.677C89.0964 103.724 88.9938 103.793 88.9073 103.879C88.8208 103.966 88.7522 104.068 88.7055 104.181C88.6587 104.294 88.6347 104.416 88.6347 104.538V110.125C88.6347 110.247 88.6587 110.368 88.7055 110.481C88.7522 110.594 88.8208 110.697 88.9073 110.783C88.9938 110.87 89.0964 110.938 89.2094 110.985C89.3224 111.032 89.4436 111.056 89.5658 111.056H92.7902C93.2035 112.896 93.9294 114.652 94.9361 116.248L92.6592 118.525C92.5728 118.611 92.5042 118.714 92.4574 118.827C92.4106 118.94 92.3865 119.061 92.3865 119.183C92.3865 119.305 92.4106 119.426 92.4574 119.539C92.5042 119.652 92.5728 119.755 92.6592 119.841L96.6092 123.791C96.6957 123.878 96.7983 123.946 96.9112 123.993C97.0242 124.04 97.1453 124.064 97.2675 124.064C97.3898 124.064 97.5109 124.04 97.6238 123.993C97.7368 123.946 97.8394 123.878 97.9259 123.791L100.203 121.514C101.798 122.521 103.554 123.247 105.395 123.66V126.885C105.395 127.007 105.419 127.128 105.466 127.241C105.512 127.354 105.581 127.457 105.667 127.543C105.754 127.63 105.856 127.698 105.969 127.745C106.083 127.792 106.204 127.816 106.326 127.816H111.913C112.035 127.816 112.156 127.792 112.269 127.745C112.382 127.698 112.485 127.63 112.571 127.543C112.658 127.457 112.726 127.354 112.773 127.241C112.82 127.128 112.844 127.007 112.844 126.885V123.66C114.684 123.247 116.44 122.521 118.036 121.514L120.313 123.791C120.399 123.878 120.502 123.946 120.615 123.993C120.728 124.04 120.849 124.064 120.971 124.064C121.093 124.064 121.214 124.04 121.327 123.993C121.44 123.946 121.543 123.878 121.629 123.791L125.579 119.841C125.666 119.755 125.734 119.652 125.781 119.539C125.828 119.426 125.852 119.305 125.852 119.183C125.852 119.061 125.828 118.94 125.781 118.827C125.734 118.714 125.666 118.611 125.579 118.525L123.302 116.248C124.309 114.652 125.035 112.896 125.448 111.056H128.673C128.795 111.056 128.916 111.032 129.029 110.985C129.142 110.938 129.245 110.87 129.331 110.783C129.418 110.697 129.486 110.594 129.533 110.481C129.58 110.368 129.604 110.247 129.604 110.125V104.538C129.604 104.416 129.58 104.294 129.533 104.181C129.486 104.068 129.418 103.966 129.331 103.879C129.245 103.793 129.142 103.724 129.029 103.677C128.916 103.631 128.795 103.607 128.673 103.607ZM109.119 118.505C106.909 118.505 104.749 117.849 102.912 116.622C101.074 115.394 99.6421 113.649 98.7964 111.607C97.9507 109.565 97.7294 107.319 98.1606 105.151C98.5917 102.984 99.6559 100.993 101.218 99.4304C102.781 97.8678 104.772 96.8036 106.939 96.3725C109.107 95.9414 111.353 96.1627 113.395 97.0083C115.437 97.854 117.182 99.2862 118.41 101.124C119.637 102.961 120.293 105.121 120.293 107.331C120.289 110.294 119.111 113.134 117.016 115.228C114.922 117.323 112.082 118.501 109.119 118.505Z" fill="white"/>
</g>
<path d="M82.6439 152.442V150.362H74.8787V162.149H82.6439V160.069H77.132V157.209H81.4306V155.129H77.132V152.442H82.6439ZM92.7033 153.222H84.5567V162.149H86.81V155.302H90.45V162.149H92.7033V153.222ZM100.715 153.222V154.176C100.195 153.517 99.4323 153.049 98.1843 153.049C95.5843 153.049 94.3364 155.008 94.3364 157.244C94.3364 159.497 95.5843 161.456 98.1843 161.456C99.4323 161.456 100.195 160.988 100.715 160.416V162.842H95.8617V164.922H102.968V153.222H100.715ZM98.6523 159.376C97.127 159.376 96.5897 158.596 96.5897 157.244C96.5897 155.909 97.127 155.129 98.6523 155.129C100.178 155.129 100.715 155.909 100.715 157.244C100.715 158.682 100.178 159.376 98.6523 159.376ZM105.144 150.016V151.749H107.397V150.016H105.144ZM105.144 153.222V162.149H107.397V153.222H105.144ZM117.62 153.222H109.473V162.149H111.726V155.302H115.366V162.149H117.62V153.222ZM127.003 157.504C127.003 154.904 125.928 153.049 123.12 153.049C120.243 153.049 119.168 155.042 119.168 157.694C119.168 159.497 119.74 162.322 123.744 162.322C124.403 162.322 125.061 162.322 126.413 162.01V159.965C125.217 160.242 124.437 160.242 123.917 160.242C122.184 160.242 121.647 159.601 121.491 158.509H127.003V157.504ZM123.085 155.129C124.195 155.129 124.68 155.649 124.749 156.862H121.439C121.508 155.701 122.011 155.129 123.085 155.129ZM136.126 157.504C136.126 154.904 135.051 153.049 132.243 153.049C129.366 153.049 128.292 155.042 128.292 157.694C128.292 159.497 128.864 162.322 132.867 162.322C133.526 162.322 134.185 162.322 135.537 162.01V159.965C134.341 160.242 133.561 160.242 133.041 160.242C131.307 160.242 130.77 159.601 130.614 158.509H136.126V157.504ZM132.209 155.129C133.318 155.129 133.803 155.649 133.873 156.862H130.562C130.632 155.701 131.134 155.129 132.209 155.129ZM143.339 153.222H137.758V162.149H140.011V155.302H143.339V153.222Z" fill="white"/>
<path opacity="0.8" d="M30.4615 194.004C32.5533 194.004 34.3378 192.669 34.7041 190.483H33.2151C32.9669 191.806 31.8324 192.633 30.3669 192.633C28.4879 192.633 27.2234 191.251 27.2234 189.1C27.2234 187.067 28.4997 185.767 30.4142 185.779C31.7615 185.791 32.8724 186.559 33.1087 187.764H34.5978C34.2905 185.684 32.5887 184.408 30.4378 184.408C27.6724 184.408 25.7225 186.346 25.7225 189.159C25.7225 192.031 27.6843 194.004 30.4615 194.004ZM39.1038 194.004C40.9592 194.004 42.2828 192.645 42.2828 190.731C42.2828 188.828 40.9592 187.481 39.1038 187.481C37.2483 187.481 35.9247 188.828 35.9247 190.731C35.9247 192.645 37.2483 194.004 39.1038 194.004ZM39.1038 192.811C38.0638 192.811 37.3311 191.948 37.3311 190.731C37.3311 189.525 38.0638 188.674 39.1038 188.674C40.1437 188.674 40.8883 189.525 40.8883 190.731C40.8883 191.948 40.1437 192.811 39.1038 192.811ZM46.2022 194.004C47.124 194.016 47.8213 193.602 48.2467 192.905V193.815H49.6413V184.479H48.2467V188.58C47.8213 187.894 47.124 187.481 46.2022 187.481C44.6186 187.481 43.4959 188.828 43.4959 190.719C43.4959 192.645 44.6186 194.004 46.2022 194.004ZM46.5804 192.811C45.5759 192.811 44.8786 191.948 44.8786 190.731C44.8786 189.525 45.5759 188.674 46.5804 188.674C47.5731 188.674 48.2822 189.525 48.2822 190.731C48.2822 191.948 47.5731 192.811 46.5804 192.811ZM51.9999 186.795C52.5199 186.795 52.9453 186.393 52.9453 185.862C52.9453 185.33 52.5435 184.928 51.9999 184.928C51.4681 184.928 51.0544 185.33 51.0544 185.862C51.0544 186.393 51.4681 186.795 51.9999 186.795ZM51.3144 193.815H52.6971V187.67H51.3144V193.815ZM54.3612 193.815H55.7558V190.743C55.7558 189.525 56.4058 188.674 57.4221 188.674C58.273 188.674 58.7457 189.289 58.7457 190.27V193.815H60.1521V190.211C60.1521 188.414 59.3957 187.481 57.883 187.481C56.8785 187.481 56.1812 187.953 55.7558 188.663V187.67H54.3612V193.815ZM64.655 196.368C66.5931 196.368 67.6922 195.399 67.6922 193.437V187.67H66.3095V188.521C65.8959 187.871 65.2341 187.481 64.265 187.481C62.6223 187.481 61.5587 188.816 61.5587 190.743C61.5587 192.645 62.6223 193.886 64.265 193.886C65.2341 193.898 65.8959 193.532 66.3095 192.905V193.437C66.3213 194.69 65.7423 195.292 64.7023 195.292C63.8159 195.292 63.1659 194.985 63.095 194.312H61.7005C61.8423 195.682 62.9178 196.368 64.655 196.368ZM64.6432 192.74C63.6386 192.74 62.9414 191.924 62.9414 190.695C62.9414 189.478 63.6386 188.627 64.6432 188.627C65.6477 188.627 66.345 189.478 66.345 190.695C66.345 191.924 65.6477 192.74 64.6432 192.74Z" fill="white"/>
<path opacity="0.8" d="M179.564 194.004C181.632 194.004 183.015 192.905 183.015 191.227C183.015 190.057 182.212 189.1 181.266 188.804C181.963 188.532 182.649 187.681 182.649 186.689C182.649 185.235 181.396 184.29 179.564 184.29C177.721 184.29 176.468 185.235 176.468 186.689C176.468 187.681 177.153 188.532 177.851 188.804C176.905 189.1 176.102 190.057 176.102 191.227C176.102 192.905 177.484 194.004 179.564 194.004ZM179.564 188.26C178.631 188.26 177.957 187.693 177.957 186.878C177.957 186.121 178.631 185.613 179.564 185.613C180.486 185.613 181.16 186.121 181.16 186.878C181.16 187.693 180.486 188.26 179.564 188.26ZM179.564 192.68C178.418 192.68 177.65 192.066 177.65 191.144C177.65 190.187 178.418 189.549 179.564 189.549C180.711 189.549 181.467 190.187 181.467 191.144C181.467 192.066 180.711 192.68 179.564 192.68ZM188.358 194.004C190.816 194.004 192.258 192.184 192.258 189.1C192.258 186.074 190.816 184.29 188.358 184.29C185.865 184.29 184.376 186.074 184.376 189.1C184.376 192.184 185.865 194.004 188.358 194.004ZM188.358 192.633C186.798 192.633 185.877 191.298 185.877 189.04C185.877 186.925 186.798 185.661 188.358 185.661C189.871 185.661 190.769 186.925 190.769 189.04C190.769 191.298 189.871 192.633 188.358 192.633Z" fill="white"/>
<rect x="25.1193" y="202.663" width="129.998" height="5.51506" rx="2.75753" fill="url(#paint1_linear)"/>
<path opacity="0.8" d="M172.071 227.693H173.501V218.357H172.52L169.329 220.106V221.678L172.071 220.177V227.693ZM179.136 227.882C181.595 227.882 183.036 226.062 183.036 222.978C183.036 219.952 181.595 218.168 179.136 218.168C176.643 218.168 175.154 219.952 175.154 222.978C175.154 226.062 176.643 227.882 179.136 227.882ZM179.136 226.511C177.576 226.511 176.655 225.176 176.655 222.919C176.655 220.803 177.576 219.539 179.136 219.539C180.649 219.539 181.547 220.803 181.547 222.919C181.547 225.176 180.649 226.511 179.136 226.511ZM188.358 227.882C190.816 227.882 192.258 226.062 192.258 222.978C192.258 219.952 190.816 218.168 188.358 218.168C185.864 218.168 184.375 219.952 184.375 222.978C184.375 226.062 185.864 227.882 188.358 227.882ZM188.358 226.511C186.798 226.511 185.876 225.176 185.876 222.919C185.876 220.803 186.798 219.539 188.358 219.539C189.87 219.539 190.769 220.803 190.769 222.919C190.769 225.176 189.87 226.511 188.358 226.511Z" fill="white"/>
<path opacity="0.8" d="M31.7729 222.86C32.5765 222.577 33.0847 221.832 33.0847 220.816C33.0847 219.327 31.9974 218.476 30.2129 218.476H26.112V227.694H30.5201C32.2574 227.694 33.4746 226.642 33.4746 225.153C33.4746 223.995 32.8719 223.108 31.7729 222.86ZM27.5538 219.847H29.7283C30.9692 219.847 31.6074 220.201 31.6074 221.064C31.6074 221.927 30.981 222.352 29.7874 222.352H27.5538V219.847ZM30.0711 226.323H27.5538V223.617H30.1183C31.3356 223.617 31.9738 224.03 31.9738 224.881C31.9738 225.815 31.3238 226.323 30.0711 226.323ZM40.7144 221.548H39.3317V224.621C39.3317 225.838 38.6699 226.689 37.6653 226.689C36.8144 226.689 36.3299 226.075 36.3299 225.094V221.548H34.9354V225.153C34.9354 226.949 35.6917 227.883 37.1926 227.883C38.1971 227.883 38.9062 227.41 39.3317 226.701V227.694H40.7144V221.548ZM45.3234 230.247C47.2615 230.247 48.3606 229.277 48.3606 227.316V221.548H46.9779V222.399C46.5643 221.749 45.9025 221.359 44.9334 221.359C43.2907 221.359 42.2271 222.695 42.2271 224.621C42.2271 226.524 43.2907 227.765 44.9334 227.765C45.9025 227.777 46.5643 227.41 46.9779 226.784V227.316C46.9897 228.568 46.4106 229.171 45.3707 229.171C44.4843 229.171 43.8343 228.864 43.7634 228.19H42.3689C42.5107 229.561 43.5861 230.247 45.3234 230.247ZM45.3116 226.618C44.307 226.618 43.6098 225.803 43.6098 224.574C43.6098 223.357 44.307 222.506 45.3116 222.506C46.3161 222.506 47.0134 223.357 47.0134 224.574C47.0134 225.803 46.3161 226.618 45.3116 226.618ZM54.4264 227.694H55.8091V222.789H57.5463V221.548H55.8091V220.863C55.8091 219.882 56.1636 219.575 57.0263 219.575H57.4872V218.369L56.8491 218.358C55.2064 218.31 54.4027 219.185 54.4264 220.875V221.548H52.9728V222.789H54.4264V227.694ZM59.3049 220.674C59.8249 220.674 60.2503 220.272 60.2503 219.74C60.2503 219.209 59.8485 218.807 59.3049 218.807C58.7731 218.807 58.3595 219.209 58.3595 219.74C58.3595 220.272 58.7731 220.674 59.3049 220.674ZM58.6195 227.694H60.0022V221.548H58.6195V227.694ZM61.6663 227.694H63.0608V224.621C63.0608 223.404 63.7108 222.553 64.7271 222.553C65.578 222.553 66.0508 223.168 66.0508 224.148V227.694H67.4571V224.089C67.4571 222.293 66.7007 221.359 65.188 221.359C64.1835 221.359 63.4862 221.832 63.0608 222.541V221.548H61.6663V227.694ZM71.5228 227.883C72.4446 227.895 73.1418 227.481 73.5673 226.784V227.694H74.9618V218.358H73.5673V222.458C73.1418 221.773 72.4446 221.359 71.5228 221.359C69.9391 221.359 68.8164 222.707 68.8164 224.598C68.8164 226.524 69.9391 227.883 71.5228 227.883ZM71.9009 226.689C70.8964 226.689 70.1991 225.827 70.1991 224.609C70.1991 223.404 70.8964 222.553 71.9009 222.553C72.8936 222.553 73.6027 223.404 73.6027 224.609C73.6027 225.827 72.8936 226.689 71.9009 226.689ZM77.3204 220.674C77.8404 220.674 78.2658 220.272 78.2658 219.74C78.2658 219.209 77.864 218.807 77.3204 218.807C76.7886 218.807 76.375 219.209 76.375 219.74C76.375 220.272 76.7886 220.674 77.3204 220.674ZM76.635 227.694H78.0177V221.548H76.635V227.694ZM79.6818 227.694H81.0763V224.621C81.0763 223.404 81.7263 222.553 82.7426 222.553C83.5935 222.553 84.0663 223.168 84.0663 224.148V227.694H85.4726V224.089C85.4726 222.293 84.7163 221.359 83.2036 221.359C82.199 221.359 81.5018 221.832 81.0763 222.541V221.548H79.6818V227.694ZM89.9755 230.247C91.9137 230.247 93.0128 229.277 93.0128 227.316V221.548H91.6301V222.399C91.2164 221.749 90.5546 221.359 89.5855 221.359C87.9428 221.359 86.8792 222.695 86.8792 224.621C86.8792 226.524 87.9428 227.765 89.5855 227.765C90.5546 227.777 91.2164 227.41 91.6301 226.784V227.316C91.6419 228.568 91.0628 229.171 90.0228 229.171C89.1365 229.171 88.4865 228.864 88.4156 228.19H87.021C87.1629 229.561 88.2383 230.247 89.9755 230.247ZM89.9637 226.618C88.9592 226.618 88.2619 225.803 88.2619 224.574C88.2619 223.357 88.9592 222.506 89.9637 222.506C90.9682 222.506 91.6655 223.357 91.6655 224.574C91.6655 225.803 90.9682 226.618 89.9637 226.618Z" fill="white"/>
<rect x="25.1193" y="238.118" width="168" height="6" rx="3" fill="url(#paint2_linear)"/>
<path opacity="0.8" d="M179.352 263.822C181.502 263.822 182.98 261.955 182.98 258.622C182.98 255.857 181.798 254.108 179.422 254.108C177.543 254.108 176.125 255.419 176.125 257.192C176.125 259.13 177.366 260.312 179.281 260.312C180.226 260.312 181.112 259.875 181.55 259.213C181.384 261.269 180.592 262.451 179.399 262.451C178.43 262.451 177.768 261.919 177.626 261.021L176.137 261.033C176.326 262.794 177.52 263.822 179.352 263.822ZM179.387 259.036C178.335 259.036 177.591 258.291 177.591 257.263C177.591 256.223 178.347 255.478 179.411 255.478C180.474 255.478 181.231 256.211 181.231 257.251C181.231 258.291 180.462 259.036 179.387 259.036ZM188.358 263.822C190.816 263.822 192.258 262.002 192.258 258.917C192.258 255.892 190.816 254.108 188.358 254.108C185.864 254.108 184.375 255.892 184.375 258.917C184.375 262.002 185.864 263.822 188.358 263.822ZM188.358 262.451C186.798 262.451 185.876 261.116 185.876 258.858C185.876 256.743 186.798 255.478 188.358 255.478C189.871 255.478 190.769 256.743 190.769 258.858C190.769 261.116 189.871 262.451 188.358 262.451Z" fill="white"/>
<path opacity="0.8" d="M30.4611 263.822C32.5528 263.822 34.3374 262.486 34.7037 260.3H33.2146C32.9665 261.624 31.8319 262.451 30.3665 262.451C28.4875 262.451 27.2229 261.068 27.2229 258.917C27.2229 256.885 28.4993 255.585 30.4138 255.597C31.761 255.608 32.8719 256.377 33.1083 257.582H34.5974C34.2901 255.502 32.5883 254.226 30.4374 254.226C27.672 254.226 25.722 256.164 25.722 258.977C25.722 261.848 27.6838 263.822 30.4611 263.822ZM39.1033 263.822C40.9588 263.822 42.2824 262.463 42.2824 260.548C42.2824 258.646 40.9588 257.298 39.1033 257.298C37.2479 257.298 35.9243 258.646 35.9243 260.548C35.9243 262.463 37.2479 263.822 39.1033 263.822ZM39.1033 262.628C38.0633 262.628 37.3306 261.766 37.3306 260.548C37.3306 259.343 38.0633 258.492 39.1033 258.492C40.1433 258.492 40.8878 259.343 40.8878 260.548C40.8878 261.766 40.1433 262.628 39.1033 262.628ZM43.6046 263.633H44.9991V260.56C44.9991 259.343 45.6491 258.492 46.6655 258.492C47.5164 258.492 47.9891 259.107 47.9891 260.087V263.633H49.3954V260.56C49.3954 259.343 50.0572 258.492 51.0618 258.492C51.9126 258.492 52.3972 259.107 52.3972 260.087V263.633H53.7917V260.028C53.7917 258.232 53.0354 257.298 51.5345 257.298C50.5299 257.298 49.7027 257.736 49.1591 258.587C48.84 257.736 48.1545 257.298 47.1264 257.298C46.1218 257.298 45.4246 257.771 44.9991 258.48V257.487H43.6046V263.633ZM55.388 265.996H56.7825V262.723C57.2079 263.408 57.9052 263.822 58.827 263.822C60.4106 263.822 61.5333 262.475 61.5333 260.584C61.5333 258.657 60.4106 257.298 58.827 257.298C57.9052 257.287 57.2079 257.7 56.7825 258.397V257.487H55.388V265.996ZM58.4488 262.628C57.4561 262.628 56.747 261.777 56.747 260.572C56.747 259.355 57.4561 258.492 58.4488 258.492C59.4534 258.492 60.1506 259.355 60.1506 260.572C60.1506 261.777 59.4534 262.628 58.4488 262.628ZM68.6782 257.487H67.2955V260.56C67.2955 261.777 66.6337 262.628 65.6292 262.628C64.7783 262.628 64.2938 262.014 64.2938 261.033V257.487H62.8992V261.092C62.8992 262.888 63.6556 263.822 65.1565 263.822C66.161 263.822 66.8701 263.349 67.2955 262.64V263.633H68.6782V257.487ZM73.9507 263.621V262.404C72.5798 262.51 72.5326 262.392 72.5326 261.376V258.728H74.2343V257.487H72.5326V255.833H71.138V257.487H69.8262V258.728H71.138V261.978C71.1026 263.716 72.0362 263.786 73.9507 263.621ZM78.2828 263.822C79.7601 263.822 80.8473 262.947 81.0364 261.777H79.6537C79.5474 262.25 79.051 262.687 78.2947 262.687C77.231 262.687 76.711 262.002 76.6283 260.986H81.0955V260.477C81.0955 258.468 79.831 257.298 78.2828 257.298C76.4392 257.298 75.1983 258.646 75.1983 260.548C75.1983 262.463 76.4392 263.822 78.2828 263.822ZM76.6283 260.028C76.7701 259.107 77.2665 258.492 78.2356 258.492C79.0983 258.492 79.6537 259.13 79.701 260.028H76.6283ZM82.544 263.633H83.8912V260.217C83.8912 259.107 84.943 258.728 86.3257 258.728V257.417C85.1203 257.417 84.293 257.83 83.8912 258.657V257.487H82.544V263.633ZM93.5227 263.822C95.2008 263.822 96.229 263.077 96.229 261.907C96.229 259.272 92.2463 260.596 92.2463 259.201C92.2463 258.681 92.6954 258.315 93.4754 258.315C94.3263 258.315 94.8463 258.74 94.8818 259.449H96.2172C96.1227 258.126 95.1181 257.298 93.5818 257.298C91.8918 257.298 90.8636 258.09 90.8636 259.26C90.8636 261.825 94.8463 260.477 94.8463 261.943C94.8463 262.427 94.3736 262.806 93.57 262.806C92.6718 262.806 92.0691 262.404 92.0336 261.706H90.6864C90.7218 263.018 91.7973 263.822 93.5227 263.822ZM97.6742 263.633H99.0687V261.269L99.7306 260.714L102.118 263.633H103.82L100.688 259.91L103.583 257.487H101.775L99.0687 259.792V254.297H97.6742V263.633ZM105.434 256.613C105.954 256.613 106.38 256.211 106.38 255.679C106.38 255.147 105.978 254.746 105.434 254.746C104.902 254.746 104.489 255.147 104.489 255.679C104.489 256.211 104.902 256.613 105.434 256.613ZM104.749 263.633H106.132V257.487H104.749V263.633ZM107.796 263.633H109.19V254.297H107.796V263.633ZM110.866 263.633H112.26V254.297H110.866V263.633ZM116.535 263.822C118.214 263.822 119.242 263.077 119.242 261.907C119.242 259.272 115.259 260.596 115.259 259.201C115.259 258.681 115.708 258.315 116.488 258.315C117.339 258.315 117.859 258.74 117.895 259.449H119.23C119.135 258.126 118.131 257.298 116.595 257.298C114.905 257.298 113.876 258.09 113.876 259.26C113.876 261.825 117.859 260.477 117.859 261.943C117.859 262.427 117.386 262.806 116.583 262.806C115.685 262.806 115.082 262.404 115.046 261.706H113.699C113.735 263.018 114.81 263.822 116.535 263.822Z" fill="white"/>
<rect x="25.1193" y="274.057" width="148" height="6" rx="3" fill="url(#paint3_linear)"/>
<path opacity="0.8" d="M181.293 299.572H182.723V290.236H181.742L178.551 291.985V293.556L181.293 292.056V299.572ZM188.359 299.761C190.817 299.761 192.258 297.941 192.258 294.856C192.258 291.831 190.817 290.046 188.359 290.046C185.865 290.046 184.376 291.831 184.376 294.856C184.376 297.941 185.865 299.761 188.359 299.761ZM188.359 298.39C186.799 298.39 185.877 297.055 185.877 294.797C185.877 292.682 186.799 291.417 188.359 291.417C189.871 291.417 190.769 292.682 190.769 294.797C190.769 297.055 189.871 298.39 188.359 298.39Z" fill="white"/>
<path opacity="0.8" d="M26.112 299.572H29.8111C32.6828 299.572 34.5855 297.859 34.5855 294.951C34.5855 292.009 32.7301 290.354 29.8111 290.354H26.112V299.572ZM27.5538 298.272V291.654H29.8111C31.8674 291.654 33.0847 292.836 33.0847 294.94C33.0847 297.079 31.8674 298.272 29.8111 298.272H27.5538ZM38.0549 299.761C39.1539 299.761 39.8748 299.277 40.2057 298.45C40.3003 299.371 40.8557 299.844 42.0612 299.525L42.073 298.544C41.5884 298.591 41.4939 298.414 41.4939 297.906V295.495C41.4939 294.077 40.5603 293.238 38.8348 293.238C37.1331 293.238 36.1522 294.089 36.1522 295.531H37.4758C37.4758 294.845 37.9603 294.431 38.8112 294.431C39.7094 294.431 40.123 294.821 40.1112 295.495V295.802L38.5867 295.968C36.8731 296.157 35.9276 296.807 35.9276 297.941C35.9276 298.875 36.5894 299.761 38.0549 299.761ZM38.3503 298.698C37.6058 298.698 37.3103 298.296 37.3103 297.894C37.3103 297.35 37.9249 297.102 39.1303 296.96L40.0757 296.854C40.0166 297.894 39.3194 298.698 38.3503 298.698ZM45.7632 299.761C46.685 299.773 47.3823 299.36 47.8077 298.662V299.572H49.2023V290.236H47.8077V294.337C47.3823 293.651 46.685 293.238 45.7632 293.238C44.1796 293.238 43.0569 294.585 43.0569 296.476C43.0569 298.402 44.1796 299.761 45.7632 299.761ZM46.1414 298.568C45.1369 298.568 44.4396 297.705 44.4396 296.488C44.4396 295.282 45.1369 294.431 46.1414 294.431C47.1341 294.431 47.8432 295.282 47.8432 296.488C47.8432 297.705 47.1341 298.568 46.1414 298.568ZM55.1158 292.552C55.6358 292.552 56.0494 292.151 56.0494 291.619C56.0494 291.087 55.6476 290.685 55.1158 290.685C54.5722 290.685 54.1703 291.087 54.1703 291.619C54.1703 292.151 54.5722 292.552 55.1158 292.552ZM53.0122 301.936H53.2722C54.8912 301.936 55.813 301.333 55.813 299.584V293.427H54.4303V299.383C54.4303 300.411 54.0403 300.778 53.2722 300.778H53.0122V301.936ZM60.408 299.761C62.2635 299.761 63.5871 298.402 63.5871 296.488C63.5871 294.585 62.2635 293.238 60.408 293.238C58.5526 293.238 57.229 294.585 57.229 296.488C57.229 298.402 58.5526 299.761 60.408 299.761ZM60.408 298.568C59.368 298.568 58.6353 297.705 58.6353 296.488C58.6353 295.282 59.368 294.431 60.408 294.431C61.448 294.431 62.1925 295.282 62.1925 296.488C62.1925 297.705 61.448 298.568 60.408 298.568ZM64.9093 299.572H66.3038V297.209L66.9656 296.653L69.3529 299.572H71.0547L67.9229 295.85L70.8183 293.427H69.0101L66.3038 295.731V290.236H64.9093V299.572ZM74.2319 299.761C75.7092 299.761 76.7964 298.887 76.9855 297.717H75.6028C75.4965 298.19 75.0001 298.627 74.2438 298.627C73.1801 298.627 72.6601 297.941 72.5774 296.925H77.0446V296.417C77.0446 294.408 75.7801 293.238 74.2319 293.238C72.3883 293.238 71.1474 294.585 71.1474 296.488C71.1474 298.402 72.3883 299.761 74.2319 299.761ZM72.5774 295.968C72.7192 295.046 73.2156 294.431 74.1847 294.431C75.0474 294.431 75.6028 295.07 75.6501 295.968H72.5774ZM81.093 299.761C82.7712 299.761 83.7993 299.017 83.7993 297.847C83.7993 295.211 79.8167 296.535 79.8167 295.141C79.8167 294.621 80.2658 294.254 81.0458 294.254C81.8966 294.254 82.4166 294.68 82.4521 295.389H83.7875C83.693 294.065 82.6885 293.238 81.1521 293.238C79.4621 293.238 78.434 294.03 78.434 295.2C78.434 297.764 82.4166 296.417 82.4166 297.882C82.4166 298.367 81.9439 298.745 81.1403 298.745C80.2421 298.745 79.6394 298.343 79.604 297.646H78.2567C78.2922 298.958 79.3676 299.761 81.093 299.761Z" fill="white"/>
<rect x="25.1193" y="309.996" width="23" height="6" rx="3" fill="url(#paint4_linear)"/>
<path opacity="0.8" d="M179.635 335.7C181.514 335.7 182.932 334.389 182.932 332.486C182.932 330.678 181.691 329.496 179.777 329.496C178.831 329.496 177.945 329.933 177.508 330.595C177.673 328.539 178.453 327.357 179.659 327.357C180.628 327.357 181.289 327.889 181.431 328.787L182.92 328.775C182.731 327.014 181.538 325.986 179.706 325.986C177.555 325.986 176.125 327.806 176.125 330.997C176.125 333.892 177.259 335.7 179.635 335.7ZM179.647 334.329C178.583 334.329 177.827 333.597 177.827 332.557C177.827 331.517 178.595 330.772 179.67 330.772C180.722 330.772 181.467 331.517 181.467 332.545C181.467 333.585 180.71 334.329 179.647 334.329ZM188.358 335.7C190.816 335.7 192.258 333.88 192.258 330.796C192.258 327.77 190.816 325.986 188.358 325.986C185.864 325.986 184.375 327.77 184.375 330.796C184.375 333.88 185.864 335.7 188.358 335.7ZM188.358 334.329C186.798 334.329 185.876 332.994 185.876 330.737C185.876 328.621 186.798 327.357 188.358 327.357C189.87 327.357 190.769 328.621 190.769 330.737C190.769 332.994 189.87 334.329 188.358 334.329Z" fill="white"/>
<path opacity="0.8" d="M26.112 335.512H27.5538V331.955H30.2956C32.3401 331.955 33.4274 330.808 33.4274 329.071C33.4274 327.334 32.3401 326.294 30.2956 326.294H26.112V335.512ZM27.5538 330.572V327.665H29.9647C31.2883 327.665 31.9383 328.208 31.9383 329.118C31.9383 330.028 31.312 330.572 30.0238 330.572H27.5538ZM35.4727 328.492C35.9927 328.492 36.4182 328.09 36.4182 327.558C36.4182 327.027 36.0163 326.625 35.4727 326.625C34.9409 326.625 34.5273 327.027 34.5273 327.558C34.5273 328.09 34.9409 328.492 35.4727 328.492ZM34.7873 335.512H36.17V329.367H34.7873V335.512ZM37.8341 335.512H39.2286V332.439C39.2286 331.222 39.8786 330.371 40.895 330.371C41.7459 330.371 42.2186 330.986 42.2186 331.967V335.512H43.6249V331.907C43.6249 330.111 42.8686 329.178 41.3559 329.178C40.3513 329.178 39.6541 329.65 39.2286 330.359V329.367H37.8341V335.512ZM48.0569 335.701C49.5342 335.701 50.6214 334.827 50.8105 333.657H49.4278C49.3215 334.129 48.8251 334.567 48.0688 334.567C47.0051 334.567 46.4851 333.881 46.4024 332.865H50.8696V332.357C50.8696 330.348 49.6051 329.178 48.0569 329.178C46.2133 329.178 44.9724 330.525 44.9724 332.427C44.9724 334.342 46.2133 335.701 48.0569 335.701ZM46.4024 331.907C46.5442 330.986 47.0406 330.371 48.0097 330.371C48.8724 330.371 49.4278 331.009 49.4751 331.907H46.4024ZM54.2353 335.701C55.3344 335.701 56.0553 335.217 56.3862 334.389C56.4808 335.311 57.0362 335.784 58.2416 335.465L58.2535 334.484C57.7689 334.531 57.6744 334.354 57.6744 333.846V331.435C57.6744 330.017 56.7408 329.178 55.0153 329.178C53.3135 329.178 52.3327 330.028 52.3327 331.47H53.6563C53.6563 330.785 54.1408 330.371 54.9917 330.371C55.8899 330.371 56.3035 330.761 56.2917 331.435V331.742L54.7672 331.907C53.0535 332.097 52.1081 332.747 52.1081 333.881C52.1081 334.815 52.7699 335.701 54.2353 335.701ZM54.5308 334.637C53.7863 334.637 53.4908 334.236 53.4908 333.834C53.4908 333.29 54.1053 333.042 55.3108 332.9L56.2562 332.794C56.1971 333.834 55.4999 334.637 54.5308 334.637ZM59.4042 337.876H60.7988V334.602C61.2242 335.287 61.9215 335.701 62.8433 335.701C64.4269 335.701 65.5496 334.354 65.5496 332.463C65.5496 330.537 64.4269 329.178 62.8433 329.178C61.9215 329.166 61.2242 329.579 60.7988 330.277V329.367H59.4042V337.876ZM62.4651 334.507C61.4724 334.507 60.7633 333.657 60.7633 332.451C60.7633 331.234 61.4724 330.371 62.4651 330.371C63.4696 330.371 64.1669 331.234 64.1669 332.451C64.1669 333.657 63.4696 334.507 62.4651 334.507ZM66.8828 337.876H68.2773V334.602C68.7028 335.287 69.4 335.701 70.3218 335.701C71.9055 335.701 73.0282 334.354 73.0282 332.463C73.0282 330.537 71.9055 329.178 70.3218 329.178C69.4 329.166 68.7028 329.579 68.2773 330.277V329.367H66.8828V337.876ZM69.9437 334.507C68.951 334.507 68.2419 333.657 68.2419 332.451C68.2419 331.234 68.951 330.371 69.9437 330.371C70.9482 330.371 71.6455 331.234 71.6455 332.451C71.6455 333.657 70.9482 334.507 69.9437 334.507ZM74.3614 335.512H75.7559V326.176H74.3614V335.512ZM80.2794 335.701C81.7567 335.701 82.8439 334.827 83.033 333.657H81.6503C81.544 334.129 81.0476 334.567 80.2912 334.567C79.2276 334.567 78.7076 333.881 78.6249 332.865H83.0921V332.357C83.0921 330.348 81.8276 329.178 80.2794 329.178C78.4358 329.178 77.1949 330.525 77.1949 332.427C77.1949 334.342 78.4358 335.701 80.2794 335.701ZM78.6249 331.907C78.7667 330.986 79.2631 330.371 80.2322 330.371C81.0949 330.371 81.6503 331.009 81.6976 331.907H78.6249ZM91.0263 335.701C92.8817 335.701 94.2054 334.342 94.2054 332.427C94.2054 330.525 92.8817 329.178 91.0263 329.178C89.1709 329.178 87.8473 330.525 87.8473 332.427C87.8473 334.342 89.1709 335.701 91.0263 335.701ZM91.0263 334.507C89.9863 334.507 89.2536 333.645 89.2536 332.427C89.2536 331.222 89.9863 330.371 91.0263 330.371C92.0663 330.371 92.8108 331.222 92.8108 332.427C92.8108 333.645 92.0663 334.507 91.0263 334.507ZM95.5276 335.512H96.9221V332.439C96.9221 331.222 97.5721 330.371 98.5885 330.371C99.4393 330.371 99.9121 330.986 99.9121 331.967V335.512H101.318V331.907C101.318 330.111 100.562 329.178 99.0494 329.178C98.0448 329.178 97.3476 329.65 96.9221 330.359V329.367H95.5276V335.512ZM106.445 337.876H107.84V334.602C108.265 335.287 108.963 335.701 109.884 335.701C111.468 335.701 112.591 334.354 112.591 332.463C112.591 330.537 111.468 329.178 109.884 329.178C108.963 329.166 108.265 329.579 107.84 330.277V329.367H106.445V337.876ZM109.506 334.507C108.514 334.507 107.804 333.657 107.804 332.451C107.804 331.234 108.514 330.371 109.506 330.371C110.511 330.371 111.208 331.234 111.208 332.451C111.208 333.657 110.511 334.507 109.506 334.507ZM114.656 328.492C115.176 328.492 115.601 328.09 115.601 327.558C115.601 327.027 115.199 326.625 114.656 326.625C114.124 326.625 113.71 327.027 113.71 327.558C113.71 328.09 114.124 328.492 114.656 328.492ZM113.97 335.512H115.353V329.367H113.97V335.512ZM116.721 335.512H122.347V334.224H118.813L122.311 330.194V329.367H116.946V330.655H120.35L116.721 334.767V335.512ZM123.577 335.512H129.202V334.224H125.669L129.167 330.194V329.367H123.801V330.655H127.205L123.577 334.767V335.512ZM132.449 335.701C133.548 335.701 134.269 335.217 134.6 334.389C134.694 335.311 135.25 335.784 136.455 335.465L136.467 334.484C135.982 334.531 135.888 334.354 135.888 333.846V331.435C135.888 330.017 134.954 329.178 133.229 329.178C131.527 329.178 130.546 330.028 130.546 331.47H131.87C131.87 330.785 132.354 330.371 133.205 330.371C134.103 330.371 134.517 330.761 134.505 331.435V331.742L132.981 331.907C131.267 332.097 130.322 332.747 130.322 333.881C130.322 334.815 130.983 335.701 132.449 335.701ZM132.744 334.637C132 334.637 131.704 334.236 131.704 333.834C131.704 333.29 132.319 333.042 133.524 332.9L134.47 332.794C134.411 333.834 133.713 334.637 132.744 334.637Z" fill="white"/>
<rect x="25.1193" y="345.936" width="109" height="6" rx="3" fill="url(#paint5_linear)"/>
<rect x="248.239" width="218.239" height="327.839" rx="14.4211" fill="#150A2F" fill-opacity="0.5"/>
<rect x="250.642" y="2.40351" width="213.432" height="323.032" rx="12.0176" stroke="white" stroke-opacity="0.25" stroke-width="4.80702"/>
<g filter="url(#filter1_b)">
<rect x="326.631" y="27.1501" width="61.4536" height="61.4536" rx="5.34379" fill="url(#paint6_linear)" fill-opacity="0.15"/>
<rect x="327.484" y="28.0026" width="59.7486" height="59.7486" rx="4.49131" stroke="white" stroke-opacity="0.6" stroke-width="1.70496"/>
</g>
<g opacity="0.8">
<path d="M370.772 39.8931C370.804 39.7441 370.79 39.5892 370.733 39.4481C370.676 39.3069 370.578 39.186 370.452 39.1005C370.326 39.015 370.178 38.9689 370.025 38.968C369.873 38.9671 369.724 39.0115 369.597 39.0955L361.427 44.4897V44.495H361.422C361.339 44.5512 361.268 44.6224 361.212 44.7049L356.982 50.944L352.753 44.7049C352.697 44.6224 352.626 44.5512 352.543 44.495H352.538V44.4897L344.368 39.0955C344.241 39.0115 344.092 38.9671 343.94 38.968C343.787 38.9689 343.639 39.015 343.513 39.1005C343.387 39.186 343.289 39.3069 343.232 39.4481C343.175 39.5892 343.161 39.7441 343.192 39.8931L345.181 49.48L345.186 49.4852C345.205 49.5834 345.244 49.6765 345.302 49.7581L351.541 58.9672L343.308 71.1095C343.195 71.2783 343.153 71.4848 343.191 71.6842C343.23 71.8835 343.345 72.0598 343.513 72.1747L349.699 76.3674C349.782 76.4245 349.876 76.4645 349.975 76.4851C350.074 76.5057 350.175 76.5066 350.274 76.4875C350.374 76.4685 350.468 76.43 350.552 76.3742C350.636 76.3185 350.708 76.2466 350.764 76.1627L356.982 66.9904L363.201 76.1627C363.257 76.2466 363.329 76.3184 363.413 76.3742C363.497 76.43 363.591 76.4685 363.69 76.4875C363.789 76.5065 363.891 76.5057 363.99 76.4851C364.089 76.4645 364.183 76.4245 364.266 76.3674L370.452 72.1747C370.62 72.0598 370.735 71.8835 370.773 71.6841C370.812 71.4847 370.77 71.2783 370.657 71.1095L362.424 58.9672L368.663 49.7581C368.721 49.6765 368.76 49.5834 368.778 49.4852L368.784 49.48L370.772 39.8931ZM367.131 72.5683L360.168 62.294L361.495 60.3315L368.952 71.3352L367.131 72.5683ZM357.911 65.6208L359.239 63.6636L365.861 73.4341L364.04 74.6672L357.911 65.6208ZM348.104 73.4341L354.726 63.6635L355.655 62.294L356.982 60.3367L357.911 58.9672L359.239 57.0047L360.168 55.6404L365.751 47.402C365.996 48.182 366.427 48.8913 367.005 49.4695L361.495 57.5976L360.566 58.9672L359.239 60.9244L358.31 62.294L356.982 64.2565L356.054 65.6208L349.925 74.6672L348.104 73.4341ZM346.96 49.4695C347.538 48.8913 347.969 48.182 348.214 47.402L353.797 55.6404L352.47 57.5976L346.96 49.4695ZM346.278 42.1967L345.37 42.8106L345.076 41.3991L346.278 42.1967ZM350.46 44.9621C349.656 45.1165 348.824 45.0118 348.083 44.663C347.904 44.579 347.699 44.5677 347.511 44.6315C347.446 44.6526 347.384 44.6826 347.327 44.7207C347.218 44.7949 347.129 44.8963 347.07 45.0149C347.011 45.1335 346.984 45.2653 346.992 45.3976C347 46.2155 346.792 47.0212 346.388 47.7326L345.706 44.4373L347.663 43.1097L350.46 44.9621ZM356.054 52.3083L354.726 54.2708L349.5 46.5625C350.311 46.5938 351.119 46.4451 351.866 46.1269L356.054 52.3083ZM362.099 46.1269C362.846 46.4451 363.654 46.5938 364.465 46.5625L359.239 54.2708L358.31 55.6404L356.982 57.5976L356.054 58.9672L354.726 60.9244L353.797 62.294L346.834 72.5683L345.013 71.3352L352.47 60.3315L353.398 58.9672L354.726 57.0047L355.655 55.6404L356.982 53.6779L357.911 52.3083L362.099 46.1269ZM366.302 43.1097L368.259 44.4373L367.577 47.7326C367.173 47.0212 366.965 46.2155 366.973 45.3976C366.981 45.2653 366.953 45.1335 366.895 45.0149C366.836 44.8963 366.747 44.7949 366.638 44.7207C366.581 44.6826 366.519 44.6526 366.454 44.6315C366.266 44.5677 366.061 44.579 365.882 44.663C365.141 45.0118 364.309 45.1165 363.505 44.9621L366.302 43.1097ZM368.889 41.3991L368.595 42.8106L367.687 42.1967L368.889 41.3991Z" fill="white"/>
</g>
<path d="M326.866 102.484H322.723V114.27H326.866C330.783 114.27 332.413 112.26 332.413 108.377C332.413 104.477 330.783 102.484 326.866 102.484ZM326.866 112.19H324.977V104.564H326.866C329.57 104.564 330.159 105.517 330.159 108.377C330.159 111.168 329.57 112.19 326.866 112.19ZM341.823 109.625C341.823 107.025 340.748 105.17 337.94 105.17C335.063 105.17 333.989 107.164 333.989 109.816C333.989 111.618 334.561 114.444 338.564 114.444C339.223 114.444 339.882 114.444 341.234 114.132V112.086C340.038 112.364 339.258 112.364 338.738 112.364C337.004 112.364 336.467 111.722 336.311 110.63H341.823V109.625ZM337.906 107.25C339.015 107.25 339.5 107.77 339.57 108.984H336.259C336.328 107.822 336.831 107.25 337.906 107.25ZM343.285 113.334C344.551 114.184 345.781 114.444 347.133 114.444C349.161 114.444 350.739 113.421 350.739 111.653C350.739 109.937 349.751 109.382 347.151 108.845C345.764 108.55 345.539 108.308 345.539 107.874C345.539 107.476 345.833 107.25 346.457 107.25C347.411 107.25 348.78 107.528 350.045 108.152V106.072C349.196 105.482 347.792 105.17 346.631 105.17C344.776 105.17 343.285 105.985 343.285 107.77C343.285 109.14 344.065 110.214 346.787 110.63C348.173 110.856 348.485 111.098 348.485 111.601C348.485 112.034 348.139 112.364 347.307 112.364C346.024 112.364 344.863 112.052 343.285 111.064V113.334ZM352.548 102.137V103.87H354.802V102.137H352.548ZM352.548 105.344V114.27H354.802V105.344H352.548ZM362.998 105.344V106.297C362.478 105.638 361.716 105.17 360.468 105.17C357.868 105.17 356.62 107.129 356.62 109.365C356.62 111.618 357.868 113.577 360.468 113.577C361.716 113.577 362.478 113.109 362.998 112.537V114.964H358.145V117.044H365.252V105.344H362.998ZM360.936 111.497C359.41 111.497 358.873 110.717 358.873 109.365C358.873 108.03 359.41 107.25 360.936 107.25C362.461 107.25 362.998 108.03 362.998 109.365C362.998 110.804 362.461 111.497 360.936 111.497ZM375.4 105.344H367.254V114.27H369.507V107.424H373.147V114.27H375.4V105.344ZM384.783 109.625C384.783 107.025 383.709 105.17 380.901 105.17C378.023 105.17 376.949 107.164 376.949 109.816C376.949 111.618 377.521 114.444 381.525 114.444C382.183 114.444 382.842 114.444 384.194 114.132V112.086C382.998 112.364 382.218 112.364 381.698 112.364C379.965 112.364 379.427 111.722 379.271 110.63H384.783V109.625ZM380.866 107.25C381.975 107.25 382.461 107.77 382.53 108.984H379.219C379.289 107.822 379.791 107.25 380.866 107.25ZM391.996 105.344H386.415V114.27H388.668V107.424H391.996V105.344Z" fill="white"/>
<path opacity="0.8" d="M278.7 146.125C280.791 146.125 282.576 144.79 282.942 142.604H281.453C281.205 143.927 280.071 144.754 278.605 144.754C276.726 144.754 275.462 143.372 275.462 141.221C275.462 139.188 276.738 137.888 278.652 137.9C280 137.912 281.111 138.68 281.347 139.885H282.836C282.529 137.806 280.827 136.529 278.676 136.529C275.911 136.529 273.961 138.467 273.961 141.28C273.961 144.152 275.922 146.125 278.7 146.125ZM284.399 145.936H285.747V142.521C285.747 141.41 286.798 141.032 288.181 141.032V139.72C286.976 139.72 286.148 140.134 285.747 140.961V139.791H284.399V145.936ZM291.714 146.125C293.191 146.125 294.278 145.251 294.467 144.081H293.085C292.978 144.554 292.482 144.991 291.726 144.991C290.662 144.991 290.142 144.305 290.059 143.289H294.526V142.781C294.526 140.772 293.262 139.602 291.714 139.602C289.87 139.602 288.629 140.949 288.629 142.852C288.629 144.766 289.87 146.125 291.714 146.125ZM290.059 142.332C290.201 141.41 290.697 140.795 291.667 140.795C292.529 140.795 293.085 141.434 293.132 142.332H290.059ZM297.892 146.125C298.991 146.125 299.712 145.641 300.043 144.814C300.138 145.735 300.693 146.208 301.899 145.889L301.91 144.908C301.426 144.955 301.331 144.778 301.331 144.27V141.859C301.331 140.441 300.398 139.602 298.672 139.602C296.97 139.602 295.99 140.453 295.99 141.895H297.313C297.313 141.209 297.798 140.795 298.649 140.795C299.547 140.795 299.96 141.185 299.949 141.859V142.166L298.424 142.332C296.71 142.521 295.765 143.171 295.765 144.305C295.765 145.239 296.427 146.125 297.892 146.125ZM298.188 145.062C297.443 145.062 297.148 144.66 297.148 144.258C297.148 143.714 297.762 143.466 298.968 143.325L299.913 143.218C299.854 144.258 299.157 145.062 298.188 145.062ZM306.447 145.924V144.707C305.077 144.814 305.029 144.695 305.029 143.679V141.032H306.731V139.791H305.029V138.136H303.635V139.791H302.323V141.032H303.635V144.282C303.599 146.019 304.533 146.09 306.447 145.924ZM308.778 138.916C309.298 138.916 309.724 138.515 309.724 137.983C309.724 137.451 309.322 137.049 308.778 137.049C308.247 137.049 307.833 137.451 307.833 137.983C307.833 138.515 308.247 138.916 308.778 138.916ZM308.093 145.936H309.476V139.791H308.093V145.936ZM312.791 145.936H314.316L316.797 139.791H315.344L313.547 144.364L311.763 139.791H310.309L312.791 145.936ZM318.334 138.916C318.854 138.916 319.28 138.515 319.28 137.983C319.28 137.451 318.878 137.049 318.334 137.049C317.803 137.049 317.389 137.451 317.389 137.983C317.389 138.515 317.803 138.916 318.334 138.916ZM317.649 145.936H319.032V139.791H317.649V145.936ZM324.348 145.924V144.707C322.977 144.814 322.929 144.695 322.929 143.679V141.032H324.631V139.791H322.929V138.136H321.535V139.791H320.223V141.032H321.535V144.282C321.499 146.019 322.433 146.09 324.348 145.924ZM325.958 148.3H326.608C328.12 148.3 329.089 147.863 329.692 146.397L332.198 139.791H330.744L329.042 144.388L327.128 139.791H325.639L328.321 146.09C327.884 146.834 327.482 147.094 326.655 147.094H325.958V148.3Z" fill="white"/>
<path opacity="0.8" d="M420.309 145.936H421.739V136.6H420.758L417.567 138.349V139.921L420.309 138.42V145.936ZM427.375 146.125C429.833 146.125 431.275 144.305 431.275 141.221C431.275 138.195 429.833 136.411 427.375 136.411C424.881 136.411 423.392 138.195 423.392 141.221C423.392 144.305 424.881 146.125 427.375 146.125ZM427.375 144.754C425.815 144.754 424.893 143.419 424.893 141.162C424.893 139.046 425.815 137.782 427.375 137.782C428.887 137.782 429.785 139.046 429.785 141.162C429.785 143.419 428.887 144.754 427.375 144.754ZM436.596 146.125C439.054 146.125 440.496 144.305 440.496 141.221C440.496 138.195 439.054 136.411 436.596 136.411C434.102 136.411 432.613 138.195 432.613 141.221C432.613 144.305 434.102 146.125 436.596 146.125ZM436.596 144.754C435.036 144.754 434.114 143.419 434.114 141.162C434.114 139.046 435.036 137.782 436.596 137.782C438.109 137.782 439.007 139.046 439.007 141.162C439.007 143.419 438.109 144.754 436.596 144.754Z" fill="white"/>
<rect x="273.358" y="156.36" width="168" height="6" rx="3" fill="url(#paint7_linear)"/>
<path opacity="0.8" d="M428.747 182.064C430.839 182.064 432.233 180.812 432.233 178.755C432.233 176.959 430.993 175.683 429.125 175.683C428.345 175.683 427.707 175.895 427.223 176.25L427.483 173.91H431.867V172.539H426.277L425.781 177.408L426.667 177.845C427.152 177.349 427.896 177.018 428.629 177.018C429.929 177.018 430.744 177.727 430.744 178.779C430.744 179.913 429.964 180.693 428.735 180.693C427.672 180.693 426.939 180.02 426.844 179.015H425.344C425.403 180.859 426.738 182.064 428.747 182.064ZM437.011 182.064C439.102 182.064 440.497 180.812 440.497 178.755C440.497 176.959 439.256 175.683 437.389 175.683C436.609 175.683 435.971 175.895 435.486 176.25L435.746 173.91H440.13V172.539H434.541L434.044 177.408L434.931 177.845C435.415 177.349 436.16 177.018 436.892 177.018C438.192 177.018 439.008 177.727 439.008 178.779C439.008 179.913 438.228 180.693 436.999 180.693C435.935 180.693 435.202 180.02 435.108 179.015H433.607C433.666 180.859 435.001 182.064 437.011 182.064Z" fill="white"/>
<path opacity="0.8" d="M278.7 182.065C280.791 182.065 282.576 180.729 282.942 178.543H281.453C281.205 179.866 280.071 180.694 278.605 180.694C276.726 180.694 275.462 179.311 275.462 177.16C275.462 175.127 276.738 173.827 278.652 173.839C280 173.851 281.111 174.619 281.347 175.825H282.836C282.529 173.745 280.827 172.468 278.676 172.468C275.911 172.468 273.961 174.407 273.961 177.219C273.961 180.091 275.922 182.065 278.7 182.065ZM287.342 182.065C289.197 182.065 290.521 180.706 290.521 178.791C290.521 176.888 289.197 175.541 287.342 175.541C285.487 175.541 284.163 176.888 284.163 178.791C284.163 180.706 285.487 182.065 287.342 182.065ZM287.342 180.871C286.302 180.871 285.569 180.008 285.569 178.791C285.569 177.586 286.302 176.735 287.342 176.735C288.382 176.735 289.126 177.586 289.126 178.791C289.126 180.008 288.382 180.871 287.342 180.871ZM294.44 182.065C295.362 182.076 296.06 181.663 296.485 180.966V181.875H297.879V172.539H296.485V176.64C296.06 175.955 295.362 175.541 294.44 175.541C292.857 175.541 291.734 176.888 291.734 178.779C291.734 180.706 292.857 182.065 294.44 182.065ZM294.819 180.871C293.814 180.871 293.117 180.008 293.117 178.791C293.117 177.586 293.814 176.735 294.819 176.735C295.811 176.735 296.52 177.586 296.52 178.791C296.52 180.008 295.811 180.871 294.819 180.871ZM300.238 174.856C300.758 174.856 301.184 174.454 301.184 173.922C301.184 173.39 300.782 172.988 300.238 172.988C299.706 172.988 299.293 173.39 299.293 173.922C299.293 174.454 299.706 174.856 300.238 174.856ZM299.553 181.875H300.935V175.73H299.553V181.875ZM302.599 181.875H303.994V178.803C303.994 177.586 304.644 176.735 305.66 176.735C306.511 176.735 306.984 177.349 306.984 178.33V181.875H308.39V178.271C308.39 176.475 307.634 175.541 306.121 175.541C305.117 175.541 304.419 176.014 303.994 176.723V175.73H302.599V181.875ZM312.893 184.428C314.831 184.428 315.93 183.459 315.93 181.497V175.73H314.548V176.581C314.134 175.931 313.472 175.541 312.503 175.541C310.861 175.541 309.797 176.876 309.797 178.803C309.797 180.706 310.861 181.946 312.503 181.946C313.472 181.958 314.134 181.592 314.548 180.966V181.497C314.56 182.75 313.98 183.353 312.94 183.353C312.054 183.353 311.404 183.045 311.333 182.372H309.939C310.081 183.743 311.156 184.428 312.893 184.428ZM312.881 180.8C311.877 180.8 311.18 179.985 311.18 178.756C311.18 177.538 311.877 176.687 312.881 176.687C313.886 176.687 314.583 177.538 314.583 178.756C314.583 179.985 313.886 180.8 312.881 180.8Z" fill="white"/>
<rect x="273.358" y="192.299" width="91" height="6" rx="3" fill="url(#paint8_linear)"/>
<path opacity="0.8" d="M427.356 217.815H429.082L432.863 209.282V208.478H425.796V209.849H431.032L427.356 217.815ZM437.024 218.004C439.092 218.004 440.474 216.905 440.474 215.227C440.474 214.057 439.671 213.099 438.725 212.804C439.423 212.532 440.108 211.681 440.108 210.688C440.108 209.235 438.855 208.289 437.024 208.289C435.18 208.289 433.927 209.235 433.927 210.688C433.927 211.681 434.613 212.532 435.31 212.804C434.365 213.099 433.561 214.057 433.561 215.227C433.561 216.905 434.944 218.004 437.024 218.004ZM437.024 212.26C436.09 212.26 435.416 211.693 435.416 210.878C435.416 210.121 436.09 209.613 437.024 209.613C437.945 209.613 438.619 210.121 438.619 210.878C438.619 211.693 437.945 212.26 437.024 212.26ZM437.024 216.68C435.877 216.68 435.109 216.066 435.109 215.144C435.109 214.187 435.877 213.548 437.024 213.548C438.17 213.548 438.926 214.187 438.926 215.144C438.926 216.066 438.17 216.68 437.024 216.68Z" fill="white"/>
<path opacity="0.8" d="M278.262 217.968C280.768 217.992 282.245 216.479 282.245 213.903V208.596H280.815V213.891C280.815 215.593 279.87 216.597 278.262 216.597C276.655 216.597 275.71 215.593 275.71 213.891V208.596H274.268V213.903C274.268 216.432 275.757 217.944 278.262 217.968ZM283.512 217.814H285.285L287.897 214.375L290.485 217.814H292.258L288.771 213.205L292.258 208.596H290.473L287.897 212.024L285.297 208.596H283.512L286.999 213.205L283.512 217.814Z" fill="white"/>
<rect x="273.358" y="228.238" width="118" height="6" rx="3" fill="url(#paint9_linear)"/>
<path opacity="0.8" d="M425.704 253.753H432.464V252.347H427.489C427.702 250.291 432.37 250.468 432.37 247.194C432.37 245.327 431.164 244.228 429.061 244.228C426.744 244.228 425.492 245.564 425.692 247.821H427.182C426.969 246.426 427.666 245.599 429.025 245.599C430.219 245.599 430.881 246.284 430.881 247.277C430.881 249.475 425.704 249.263 425.704 253.068V253.753ZM437.011 253.943C439.103 253.943 440.497 252.69 440.497 250.633C440.497 248.837 439.256 247.561 437.389 247.561C436.609 247.561 435.971 247.774 435.486 248.128L435.746 245.788H440.131V244.417H434.541L434.045 249.286L434.931 249.723C435.416 249.227 436.16 248.896 436.893 248.896C438.193 248.896 439.008 249.605 439.008 250.657C439.008 251.792 438.228 252.572 436.999 252.572C435.936 252.572 435.203 251.898 435.108 250.893H433.607C433.666 252.737 435.002 253.943 437.011 253.943Z" fill="white"/>
<path opacity="0.8" d="M274.351 253.754H278.05C280.922 253.754 282.824 252.04 282.824 249.133C282.824 246.19 280.969 244.536 278.05 244.536H274.351V253.754ZM275.793 252.454V245.836H278.05C280.106 245.836 281.323 247.017 281.323 249.121C281.323 251.26 280.106 252.454 278.05 252.454H275.793ZM286.294 253.943C287.393 253.943 288.114 253.458 288.444 252.631C288.539 253.553 289.094 254.025 290.3 253.706L290.312 252.725C289.827 252.773 289.733 252.595 289.733 252.087V249.676C289.733 248.258 288.799 247.419 287.074 247.419C285.372 247.419 284.391 248.27 284.391 249.712H285.714C285.714 249.026 286.199 248.613 287.05 248.613C287.948 248.613 288.362 249.003 288.35 249.676V249.984L286.825 250.149C285.112 250.338 284.166 250.988 284.166 252.123C284.166 253.056 284.828 253.943 286.294 253.943ZM286.589 252.879C285.844 252.879 285.549 252.477 285.549 252.076C285.549 251.532 286.164 251.284 287.369 251.142L288.314 251.036C288.255 252.076 287.558 252.879 286.589 252.879ZM294.002 253.943C294.924 253.955 295.621 253.541 296.046 252.844V253.754H297.441V244.417H296.046V248.518C295.621 247.833 294.924 247.419 294.002 247.419C292.418 247.419 291.296 248.766 291.296 250.657C291.296 252.584 292.418 253.943 294.002 253.943ZM294.38 252.749C293.376 252.749 292.678 251.886 292.678 250.669C292.678 249.464 293.376 248.613 294.38 248.613C295.373 248.613 296.082 249.464 296.082 250.669C296.082 251.886 295.373 252.749 294.38 252.749ZM303.354 246.734C303.874 246.734 304.288 246.332 304.288 245.8C304.288 245.268 303.886 244.867 303.354 244.867C302.811 244.867 302.409 245.268 302.409 245.8C302.409 246.332 302.811 246.734 303.354 246.734ZM301.251 256.117H301.511C303.13 256.117 304.052 255.515 304.052 253.765V247.608H302.669V253.565C302.669 254.593 302.279 254.959 301.511 254.959H301.251V256.117ZM308.647 253.943C310.502 253.943 311.826 252.584 311.826 250.669C311.826 248.766 310.502 247.419 308.647 247.419C306.791 247.419 305.468 248.766 305.468 250.669C305.468 252.584 306.791 253.943 308.647 253.943ZM308.647 252.749C307.607 252.749 306.874 251.886 306.874 250.669C306.874 249.464 307.607 248.613 308.647 248.613C309.687 248.613 310.431 249.464 310.431 250.669C310.431 251.886 309.687 252.749 308.647 252.749ZM313.148 253.754H314.543V251.39L315.204 250.835L317.592 253.754H319.293L316.162 250.031L319.057 247.608H317.249L314.543 249.913V244.417H313.148V253.754ZM322.471 253.943C323.948 253.943 325.035 253.068 325.224 251.898H323.842C323.735 252.371 323.239 252.808 322.482 252.808C321.419 252.808 320.899 252.123 320.816 251.106H325.283V250.598C325.283 248.589 324.019 247.419 322.471 247.419C320.627 247.419 319.386 248.766 319.386 250.669C319.386 252.584 320.627 253.943 322.471 253.943ZM320.816 250.149C320.958 249.227 321.454 248.613 322.423 248.613C323.286 248.613 323.842 249.251 323.889 250.149H320.816ZM329.332 253.943C331.01 253.943 332.038 253.198 332.038 252.028C332.038 249.393 328.055 250.716 328.055 249.322C328.055 248.802 328.504 248.436 329.284 248.436C330.135 248.436 330.655 248.861 330.691 249.57H332.026C331.932 248.246 330.927 247.419 329.391 247.419C327.701 247.419 326.673 248.211 326.673 249.381C326.673 251.946 330.655 250.598 330.655 252.064C330.655 252.548 330.183 252.926 329.379 252.926C328.481 252.926 327.878 252.525 327.843 251.827H326.495C326.531 253.139 327.606 253.943 329.332 253.943Z" fill="white"/>
<rect x="273.358" y="264.177" width="43" height="6" rx="3" fill="url(#paint10_linear)"/>
<path opacity="0.8" d="M428.714 289.882C430.782 289.882 432.165 288.783 432.165 287.105C432.165 285.935 431.361 284.977 430.416 284.682C431.113 284.41 431.799 283.559 431.799 282.567C431.799 281.113 430.546 280.168 428.714 280.168C426.87 280.168 425.618 281.113 425.618 282.567C425.618 283.559 426.303 284.41 427 284.682C426.055 284.977 425.251 285.935 425.251 287.105C425.251 288.783 426.634 289.882 428.714 289.882ZM428.714 284.138C427.78 284.138 427.107 283.571 427.107 282.756C427.107 281.999 427.78 281.491 428.714 281.491C429.636 281.491 430.309 281.999 430.309 282.756C430.309 283.571 429.636 284.138 428.714 284.138ZM428.714 288.558C427.568 288.558 426.8 287.944 426.8 287.022C426.8 286.065 427.568 285.427 428.714 285.427C429.86 285.427 430.617 286.065 430.617 287.022C430.617 287.944 429.86 288.558 428.714 288.558ZM437.024 289.882C439.092 289.882 440.474 288.783 440.474 287.105C440.474 285.935 439.671 284.977 438.725 284.682C439.423 284.41 440.108 283.559 440.108 282.567C440.108 281.113 438.855 280.168 437.024 280.168C435.18 280.168 433.927 281.113 433.927 282.567C433.927 283.559 434.613 284.41 435.31 284.682C434.365 284.977 433.561 285.935 433.561 287.105C433.561 288.783 434.944 289.882 437.024 289.882ZM437.024 284.138C436.09 284.138 435.416 283.571 435.416 282.756C435.416 281.999 436.09 281.491 437.024 281.491C437.945 281.491 438.619 281.999 438.619 282.756C438.619 283.571 437.945 284.138 437.024 284.138ZM437.024 288.558C435.877 288.558 435.109 287.944 435.109 287.022C435.109 286.065 435.877 285.427 437.024 285.427C438.17 285.427 438.926 286.065 438.926 287.022C438.926 287.944 438.17 288.558 437.024 288.558Z" fill="white"/>
<path opacity="0.8" d="M274.351 289.693H275.792V286.135H278.534C280.579 286.135 281.666 284.989 281.666 283.252C281.666 281.515 280.579 280.475 278.534 280.475H274.351V289.693ZM275.792 284.753V281.845H278.203C279.527 281.845 280.177 282.389 280.177 283.299C280.177 284.209 279.551 284.753 278.262 284.753H275.792ZM283.711 282.673C284.231 282.673 284.657 282.271 284.657 281.739C284.657 281.207 284.255 280.805 283.711 280.805C283.18 280.805 282.766 281.207 282.766 281.739C282.766 282.271 283.18 282.673 283.711 282.673ZM283.026 289.693H284.409V283.547H283.026V289.693ZM286.073 289.693H287.467V286.62C287.467 285.403 288.117 284.552 289.134 284.552C289.984 284.552 290.457 285.166 290.457 286.147V289.693H291.864V286.088C291.864 284.292 291.107 283.358 289.595 283.358C288.59 283.358 287.893 283.831 287.467 284.54V283.547H286.073V289.693ZM296.296 289.882C297.773 289.882 298.86 289.007 299.049 287.837H297.666C297.56 288.31 297.064 288.747 296.307 288.747C295.244 288.747 294.724 288.062 294.641 287.045H299.108V286.537C299.108 284.528 297.844 283.358 296.296 283.358C294.452 283.358 293.211 284.705 293.211 286.608C293.211 288.523 294.452 289.882 296.296 289.882ZM294.641 286.088C294.783 285.166 295.279 284.552 296.248 284.552C297.111 284.552 297.666 285.19 297.714 286.088H294.641ZM302.474 289.882C303.573 289.882 304.294 289.397 304.625 288.57C304.719 289.492 305.275 289.964 306.48 289.645L306.492 288.664C306.008 288.712 305.913 288.534 305.913 288.026V285.615C305.913 284.197 304.979 283.358 303.254 283.358C301.552 283.358 300.571 284.209 300.571 285.651H301.895C301.895 284.965 302.379 284.552 303.23 284.552C304.129 284.552 304.542 284.942 304.53 285.615V285.923L303.006 286.088C301.292 286.277 300.347 286.927 300.347 288.062C300.347 288.995 301.009 289.882 302.474 289.882ZM302.769 288.818C302.025 288.818 301.729 288.416 301.729 288.014C301.729 287.471 302.344 287.223 303.549 287.081L304.495 286.974C304.436 288.014 303.739 288.818 302.769 288.818ZM307.643 292.056H309.037V288.783C309.463 289.468 310.16 289.882 311.082 289.882C312.666 289.882 313.788 288.534 313.788 286.644C313.788 284.717 312.666 283.358 311.082 283.358C310.16 283.346 309.463 283.76 309.037 284.457V283.547H307.643V292.056ZM310.704 288.688C309.711 288.688 309.002 287.837 309.002 286.632C309.002 285.415 309.711 284.552 310.704 284.552C311.708 284.552 312.406 285.415 312.406 286.632C312.406 287.837 311.708 288.688 310.704 288.688ZM315.121 292.056H316.516V288.783C316.941 289.468 317.639 289.882 318.56 289.882C320.144 289.882 321.267 288.534 321.267 286.644C321.267 284.717 320.144 283.358 318.56 283.358C317.639 283.346 316.941 283.76 316.516 284.457V283.547H315.121V292.056ZM318.182 288.688C317.19 288.688 316.481 287.837 316.481 286.632C316.481 285.415 317.19 284.552 318.182 284.552C319.187 284.552 319.884 285.415 319.884 286.632C319.884 287.837 319.187 288.688 318.182 288.688ZM322.6 289.693H323.995V280.356H322.6V289.693ZM328.518 289.882C329.995 289.882 331.083 289.007 331.272 287.837H329.889C329.783 288.31 329.286 288.747 328.53 288.747C327.466 288.747 326.946 288.062 326.864 287.045H331.331V286.537C331.331 284.528 330.066 283.358 328.518 283.358C326.674 283.358 325.434 284.705 325.434 286.608C325.434 288.523 326.674 289.882 328.518 289.882ZM326.864 286.088C327.005 285.166 327.502 284.552 328.471 284.552C329.334 284.552 329.889 285.19 329.936 286.088H326.864ZM339.265 289.882C341.12 289.882 342.444 288.523 342.444 286.608C342.444 284.705 341.12 283.358 339.265 283.358C337.41 283.358 336.086 284.705 336.086 286.608C336.086 288.523 337.41 289.882 339.265 289.882ZM339.265 288.688C338.225 288.688 337.492 287.825 337.492 286.608C337.492 285.403 338.225 284.552 339.265 284.552C340.305 284.552 341.049 285.403 341.049 286.608C341.049 287.825 340.305 288.688 339.265 288.688ZM343.766 289.693H345.161V286.62C345.161 285.403 345.811 284.552 346.827 284.552C347.678 284.552 348.151 285.166 348.151 286.147V289.693H349.557V286.088C349.557 284.292 348.801 283.358 347.288 283.358C346.283 283.358 345.586 283.831 345.161 284.54V283.547H343.766V289.693ZM354.684 292.056H356.079V288.783C356.504 289.468 357.201 289.882 358.123 289.882C359.707 289.882 360.829 288.534 360.829 286.644C360.829 284.717 359.707 283.358 358.123 283.358C357.201 283.346 356.504 283.76 356.079 284.457V283.547H354.684V292.056ZM357.745 288.688C356.752 288.688 356.043 287.837 356.043 286.632C356.043 285.415 356.752 284.552 357.745 284.552C358.749 284.552 359.447 285.415 359.447 286.632C359.447 287.837 358.749 288.688 357.745 288.688ZM362.894 282.673C363.414 282.673 363.84 282.271 363.84 281.739C363.84 281.207 363.438 280.805 362.894 280.805C362.362 280.805 361.949 281.207 361.949 281.739C361.949 282.271 362.362 282.673 362.894 282.673ZM362.209 289.693H363.591V283.547H362.209V289.693ZM364.96 289.693H370.586V288.404H367.052L370.55 284.375V283.547H365.185V284.835H368.588L364.96 288.948V289.693ZM371.816 289.693H377.441V288.404H373.907L377.405 284.375V283.547H372.04V284.835H375.444L371.816 288.948V289.693ZM380.687 289.882C381.786 289.882 382.507 289.397 382.838 288.57C382.933 289.492 383.488 289.964 384.694 289.645L384.706 288.664C384.221 288.712 384.126 288.534 384.126 288.026V285.615C384.126 284.197 383.193 283.358 381.467 283.358C379.766 283.358 378.785 284.209 378.785 285.651H380.108C380.108 284.965 380.593 284.552 381.444 284.552C382.342 284.552 382.756 284.942 382.744 285.615V285.923L381.219 286.088C379.506 286.277 378.56 286.927 378.56 288.062C378.56 288.995 379.222 289.882 380.687 289.882ZM380.983 288.818C380.238 288.818 379.943 288.416 379.943 288.014C379.943 287.471 380.557 287.223 381.763 287.081L382.708 286.974C382.649 288.014 381.952 288.818 380.983 288.818Z" fill="white"/>
<rect x="273.358" y="300.117" width="139" height="6" rx="3" fill="url(#paint11_linear)"/>
<rect x="496.478" y="51" width="218.239" height="327.839" rx="14.4211" fill="#150A2F" fill-opacity="0.5"/>
<rect x="498.881" y="53.4035" width="213.432" height="323.032" rx="12.0176" stroke="white" stroke-opacity="0.25" stroke-width="4.80702"/>
<g filter="url(#filter2_b)">
<rect x="574.87" y="78.1506" width="61.4536" height="61.4536" rx="5.34379" fill="url(#paint12_linear)" fill-opacity="0.15"/>
<rect x="575.722" y="79.0031" width="59.7486" height="59.7486" rx="4.49131" stroke="white" stroke-opacity="0.6" stroke-width="1.70496"/>
</g>
<path d="M617.858 117.839C617.61 117.839 617.372 117.938 617.197 118.113C617.021 118.289 616.922 118.527 616.922 118.775V128.131C616.922 128.379 616.824 128.617 616.648 128.792C616.473 128.968 616.235 129.067 615.987 129.067H587.919C587.671 129.067 587.433 128.968 587.258 128.792C587.082 128.617 586.984 128.379 586.984 128.131V95.3852H591.662C592.406 95.3852 593.12 95.0895 593.646 94.5631C594.173 94.0368 594.468 93.3229 594.468 92.5785V87.9005H615.987C616.235 87.9005 616.473 87.9991 616.648 88.1745C616.824 88.35 616.922 88.588 616.922 88.8361C616.922 89.0842 617.021 89.3222 617.197 89.4976C617.372 89.6731 617.61 89.7717 617.858 89.7717C618.106 89.7717 618.344 89.6731 618.52 89.4976C618.695 89.3222 618.794 89.0842 618.794 88.8361C618.794 88.0917 618.498 87.3778 617.972 86.8514C617.445 86.325 616.731 86.0293 615.987 86.0293H593.533C593.41 86.0286 593.288 86.0522 593.174 86.0988C593.06 86.1453 592.956 86.2139 592.868 86.3006L585.384 93.7854C585.297 93.8728 585.228 93.9765 585.182 94.0905C585.135 94.2044 585.112 94.3265 585.112 94.4496V128.131C585.112 128.875 585.408 129.589 585.934 130.116C586.461 130.642 587.175 130.938 587.919 130.938H615.987C616.731 130.938 617.445 130.642 617.972 130.116C618.498 129.589 618.794 128.875 618.794 128.131V118.775C618.794 118.527 618.695 118.289 618.52 118.113C618.344 117.938 618.106 117.839 617.858 117.839ZM591.662 93.514H588.303L592.597 89.2197V92.5785C592.597 92.8266 592.499 93.0646 592.323 93.24C592.148 93.4155 591.91 93.514 591.662 93.514Z" fill="white" fill-opacity="0.8"/>
<path d="M617.858 91.6428C614.633 91.6428 611.539 92.9242 609.258 95.2052C606.977 97.4861 605.696 100.58 605.696 103.806C605.696 104.054 605.794 104.292 605.97 104.467C606.145 104.643 606.383 104.741 606.631 104.741C606.879 104.741 607.117 104.643 607.293 104.467C607.468 104.292 607.567 104.054 607.567 103.806C607.568 101.239 608.528 98.765 610.259 96.8696C611.99 94.9743 614.367 93.7941 616.923 93.5608V103.422L612.797 107.548H601.953C601.705 107.548 601.467 107.449 601.292 107.274C601.116 107.098 601.018 106.86 601.018 106.612V96.7044L602.225 97.9113C602.404 98.0646 602.634 98.1446 602.869 98.1356C603.105 98.1265 603.328 98.0288 603.495 97.8622C603.661 97.6956 603.759 97.4722 603.768 97.2368C603.777 97.0013 603.697 96.7711 603.544 96.5921L600.737 93.7853C600.656 93.7065 600.56 93.6431 600.456 93.5982H600.363C600.288 93.5892 600.213 93.5892 600.138 93.5982H600.082C599.983 93.6014 599.885 93.6204 599.792 93.6543C599.691 93.7002 599.599 93.7635 599.521 93.8415L596.714 96.6482C596.616 96.7321 596.536 96.8353 596.48 96.9514C596.424 97.0675 596.393 97.1939 596.388 97.3227C596.383 97.4516 596.404 97.5801 596.451 97.7001C596.498 97.8202 596.57 97.9292 596.661 98.0204C596.752 98.1116 596.861 98.1829 596.981 98.23C597.101 98.277 597.23 98.2987 597.359 98.2938C597.487 98.2888 597.614 98.2572 597.73 98.2011C597.846 98.1449 597.949 98.0654 598.033 97.9674L599.146 96.7044V106.612C599.146 107.357 599.442 108.071 599.969 108.597C600.495 109.123 601.209 109.419 601.953 109.419H613.18C613.303 109.42 613.426 109.396 613.54 109.35C613.654 109.303 613.757 109.234 613.845 109.148L618.242 104.741L628.103 104.741C627.87 107.297 626.69 109.674 624.794 111.405C622.899 113.136 620.425 114.096 617.858 114.097C617.61 114.097 617.372 114.196 617.197 114.371C617.021 114.546 616.923 114.784 616.923 115.033C616.923 115.281 617.021 115.519 617.197 115.694C617.372 115.87 617.61 115.968 617.858 115.968C621.084 115.968 624.178 114.687 626.459 112.406C628.74 110.125 630.021 107.031 630.021 103.806C630.021 100.58 628.74 97.4861 626.459 95.2052C624.178 92.9242 621.084 91.6428 617.858 91.6428ZM618.794 93.5608C621.189 93.7803 623.431 94.8316 625.132 96.5321C626.832 98.2327 627.883 100.475 628.103 102.87L618.794 102.87V93.5608Z" fill="white" fill-opacity="0.8"/>
<path d="M590.726 115.968C590.478 115.968 590.24 116.067 590.065 116.242C589.889 116.418 589.791 116.655 589.791 116.904V125.324C589.791 125.572 589.889 125.81 590.065 125.985C590.24 126.161 590.478 126.26 590.726 126.26H594.469C594.717 126.26 594.955 126.161 595.13 125.985C595.306 125.81 595.404 125.572 595.404 125.324V116.904C595.404 116.655 595.306 116.418 595.13 116.242C594.955 116.067 594.717 115.968 594.469 115.968H590.726ZM593.533 124.388H591.662V117.839H593.533V124.388Z" fill="white" fill-opacity="0.8"/>
<path d="M601.953 126.26C602.201 126.26 602.439 126.161 602.615 125.986C602.79 125.81 602.889 125.572 602.889 125.324V114.097C602.889 113.849 602.79 113.611 602.615 113.435C602.439 113.26 602.201 113.161 601.953 113.161H598.211C597.963 113.161 597.725 113.26 597.549 113.435C597.374 113.611 597.275 113.849 597.275 114.097V125.324C597.275 125.572 597.374 125.81 597.549 125.986C597.725 126.161 597.963 126.26 598.211 126.26H601.953ZM599.147 115.033H601.018V124.388H599.147V115.033Z" fill="white" fill-opacity="0.8"/>
<path d="M609.438 126.26C609.686 126.26 609.924 126.161 610.1 125.986C610.275 125.81 610.374 125.572 610.374 125.324V116.904C610.374 116.656 610.275 116.418 610.1 116.242C609.924 116.067 609.686 115.968 609.438 115.968H605.696C605.448 115.968 605.21 116.067 605.034 116.242C604.859 116.418 604.76 116.656 604.76 116.904V125.324C604.76 125.572 604.859 125.81 605.034 125.986C605.21 126.161 605.448 126.26 605.696 126.26H609.438ZM606.631 117.839H608.503V124.389H606.631V117.839Z" fill="white" fill-opacity="0.8"/>
<path d="M553.587 156.636L549.358 165.008H549.081L544.851 156.636H542.598V168.422H544.851V161.853H545.129L547.971 167.538H550.467L553.31 161.853H553.587V168.422H555.841V156.636H553.587ZM565.352 166.255V159.496H558.592V161.489H563.099V163.396C562.666 162.754 561.99 162.356 560.69 162.356C558.575 162.356 557.587 163.881 557.587 165.475C557.587 167.07 558.575 168.595 560.69 168.595C561.99 168.595 562.666 168.179 563.099 167.555V168.422H566.479V166.255H565.352ZM561.47 166.723C560.291 166.723 559.84 166.169 559.84 165.475C559.84 164.782 560.291 164.228 561.47 164.228C562.648 164.228 563.099 164.782 563.099 165.475C563.099 166.169 562.648 166.723 561.47 166.723ZM573.701 159.496H568.12V168.422H570.373V161.576H573.701V159.496ZM583.897 159.496H581.193L578.853 162.928H577.588V156.289H575.335V168.422H577.588V165.008H578.853L581.193 168.422H583.897L580.829 163.968L583.897 159.496ZM592.166 163.777C592.166 161.177 591.091 159.322 588.283 159.322C585.406 159.322 584.332 161.316 584.332 163.968C584.332 165.77 584.903 168.595 588.907 168.595C589.566 168.595 590.225 168.595 591.577 168.283V166.238C590.381 166.515 589.601 166.515 589.081 166.515C587.347 166.515 586.81 165.874 586.654 164.782H592.166V163.777ZM588.249 161.402C589.358 161.402 589.843 161.922 589.913 163.136H586.602C586.671 161.974 587.174 161.402 588.249 161.402ZM599.216 161.576V159.496H596.841V156.289H594.588V159.496H593.201V161.576H594.588V168.422H599.216V166.342H596.841V161.576H599.216ZM601.47 156.289V158.022H603.723V156.289H601.47ZM601.47 159.496V168.422H603.723V159.496H601.47ZM613.945 159.496H605.799V168.422H608.052V161.576H611.692V168.422H613.945V159.496ZM621.957 159.496V160.449C621.437 159.79 620.674 159.322 619.426 159.322C616.826 159.322 615.578 161.281 615.578 163.517C615.578 165.77 616.826 167.729 619.426 167.729C620.674 167.729 621.437 167.261 621.957 166.689V169.115H617.104V171.195H624.21V159.496L621.957 159.496ZM619.894 165.649C618.369 165.649 617.832 164.869 617.832 163.517C617.832 162.182 618.369 161.402 619.894 161.402C621.42 161.402 621.957 162.182 621.957 163.517C621.957 164.956 621.42 165.649 619.894 165.649ZM635.139 166.342V156.636H632.886V168.422H639.611V166.342H635.139ZM648.735 163.777C648.735 161.177 647.661 159.322 644.853 159.322C641.976 159.322 640.901 161.316 640.901 163.968C640.901 165.77 641.473 168.595 645.477 168.595C646.135 168.595 646.794 168.595 648.146 168.283V166.238C646.95 166.515 646.17 166.515 645.65 166.515C643.917 166.515 643.38 165.874 643.224 164.782H648.735V163.777ZM644.818 161.402C645.927 161.402 646.413 161.922 646.482 163.136H643.172C643.241 161.974 643.744 161.402 644.818 161.402ZM657.705 166.255V159.496H650.945V161.489H655.452V163.396C655.018 162.754 654.342 162.356 653.042 162.356C650.928 162.356 649.94 163.881 649.94 165.475C649.94 167.07 650.928 168.595 653.042 168.595C654.342 168.595 655.018 168.179 655.452 167.555V168.422H658.832V166.255H657.705ZM653.822 166.723C652.644 166.723 652.193 166.169 652.193 165.475C652.193 164.782 652.644 164.228 653.822 164.228C655.001 164.228 655.452 164.782 655.452 165.475C655.452 166.169 655.001 166.723 653.822 166.723ZM666.339 156.289V160.57C665.75 159.704 664.883 159.322 663.808 159.322C661.122 159.322 659.96 161.402 659.96 163.95C659.96 166.498 661.122 168.595 663.808 168.595C664.883 168.595 665.75 168.214 666.339 167.33V168.422H668.592V156.289H666.339ZM664.276 166.515C662.838 166.515 662.214 165.735 662.214 163.95C662.214 162.182 662.838 161.402 664.276 161.402C665.715 161.402 666.339 162.182 666.339 163.95C666.339 165.735 665.715 166.515 664.276 166.515Z" fill="white"/>
<path opacity="0.8" d="M524.764 200.088H526.442L528.64 192.915L530.957 200.088H532.635L535.436 190.87H533.84L531.784 198.304L529.515 190.87H527.754L525.615 198.28L523.558 190.87H521.963L524.764 200.088ZM536.17 200.088H537.517V196.673C537.517 195.562 538.569 195.184 539.951 195.184V193.872C538.746 193.872 537.919 194.286 537.517 195.113V193.943H536.17V200.088ZM541.575 193.068C542.095 193.068 542.521 192.666 542.521 192.135C542.521 191.603 542.119 191.201 541.575 191.201C541.043 191.201 540.63 191.603 540.63 192.135C540.63 192.666 541.043 193.068 541.575 193.068ZM540.89 200.088H542.273V193.943H540.89V200.088ZM547.588 200.076V198.859C546.218 198.965 546.17 198.847 546.17 197.831V195.184H547.872V193.943H546.17V192.288H544.776V193.943H543.464V195.184H544.776V198.434C544.74 200.171 545.674 200.242 547.588 200.076ZM549.919 193.068C550.439 193.068 550.865 192.666 550.865 192.135C550.865 191.603 550.463 191.201 549.919 191.201C549.388 191.201 548.974 191.603 548.974 192.135C548.974 192.666 549.388 193.068 549.919 193.068ZM549.234 200.088H550.617V193.943H549.234V200.088ZM552.281 200.088H553.675V197.015C553.675 195.798 554.325 194.947 555.342 194.947C556.193 194.947 556.665 195.562 556.665 196.543V200.088H558.072V196.484C558.072 194.687 557.315 193.754 555.803 193.754C554.798 193.754 554.101 194.226 553.675 194.935V193.943H552.281V200.088ZM562.575 202.641C564.513 202.641 565.612 201.672 565.612 199.71V193.943H564.229V194.794C563.815 194.144 563.154 193.754 562.185 193.754C560.542 193.754 559.478 195.089 559.478 197.015C559.478 198.918 560.542 200.159 562.185 200.159C563.154 200.171 563.815 199.805 564.229 199.178V199.71C564.241 200.963 563.662 201.565 562.622 201.565C561.735 201.565 561.085 201.258 561.015 200.584H559.62C559.762 201.955 560.837 202.641 562.575 202.641ZM562.563 199.013C561.558 199.013 560.861 198.197 560.861 196.968C560.861 195.751 561.558 194.9 562.563 194.9C563.567 194.9 564.265 195.751 564.265 196.968C564.265 198.197 563.567 199.013 562.563 199.013Z" fill="white"/>
<path opacity="0.8" d="M676.041 200.277C678.109 200.277 679.492 199.178 679.492 197.5C679.492 196.33 678.688 195.373 677.743 195.077C678.44 194.805 679.126 193.955 679.126 192.962C679.126 191.508 677.873 190.563 676.041 190.563C674.198 190.563 672.945 191.508 672.945 192.962C672.945 193.955 673.63 194.805 674.328 195.077C673.382 195.373 672.579 196.33 672.579 197.5C672.579 199.178 673.961 200.277 676.041 200.277ZM676.041 194.534C675.108 194.534 674.434 193.966 674.434 193.151C674.434 192.395 675.108 191.886 676.041 191.886C676.963 191.886 677.637 192.395 677.637 193.151C677.637 193.966 676.963 194.534 676.041 194.534ZM676.041 198.954C674.895 198.954 674.127 198.339 674.127 197.417C674.127 196.46 674.895 195.822 676.041 195.822C677.188 195.822 677.944 196.46 677.944 197.417C677.944 198.339 677.188 198.954 676.041 198.954ZM684.835 200.277C687.293 200.277 688.735 198.457 688.735 195.373C688.735 192.347 687.293 190.563 684.835 190.563C682.342 190.563 680.853 192.347 680.853 195.373C680.853 198.457 682.342 200.277 684.835 200.277ZM684.835 198.906C683.275 198.906 682.353 197.571 682.353 195.314C682.353 193.198 683.275 191.934 684.835 191.934C686.348 191.934 687.246 193.198 687.246 195.314C687.246 197.571 686.348 198.906 684.835 198.906Z" fill="white"/>
<rect x="521.597" y="210.512" width="130" height="6" rx="3" fill="url(#paint13_linear)"/>
<path opacity="0.8" d="M668.549 236.027H669.979V226.691H668.998L665.807 228.44V230.012L668.549 228.511V236.027ZM675.614 236.216C678.072 236.216 679.514 234.396 679.514 231.312C679.514 228.286 678.072 226.502 675.614 226.502C673.121 226.502 671.632 228.286 671.632 231.312C671.632 234.396 673.121 236.216 675.614 236.216ZM675.614 234.845C674.054 234.845 673.133 233.51 673.133 231.253C673.133 229.137 674.054 227.873 675.614 227.873C677.127 227.873 678.025 229.137 678.025 231.253C678.025 233.51 677.127 234.845 675.614 234.845ZM684.836 236.216C687.294 236.216 688.736 234.396 688.736 231.312C688.736 228.286 687.294 226.502 684.836 226.502C682.342 226.502 680.853 228.286 680.853 231.312C680.853 234.396 682.342 236.216 684.836 236.216ZM684.836 234.845C683.276 234.845 682.354 233.51 682.354 231.253C682.354 229.137 683.276 227.873 684.836 227.873C686.348 227.873 687.246 229.137 687.246 231.253C687.246 233.51 686.348 234.845 684.836 234.845Z" fill="white"/>
<path opacity="0.8" d="M526.206 236.216C528.581 236.216 529.94 234.987 529.94 233.297C529.94 229.362 524.079 231.773 524.079 229.444C524.079 228.499 524.799 227.944 526.111 227.944C527.423 227.944 528.179 228.57 528.274 229.634H529.834C529.834 227.814 528.309 226.62 526.147 226.62C523.984 226.62 522.589 227.731 522.589 229.362C522.589 233.333 528.439 230.839 528.439 233.309C528.439 234.29 527.659 234.893 526.253 234.893C524.799 234.893 523.96 234.16 523.913 232.919H522.318C522.318 234.999 523.889 236.216 526.206 236.216ZM533.355 236.216C534.454 236.216 535.175 235.732 535.506 234.904C535.601 235.826 536.156 236.299 537.361 235.98L537.373 234.999C536.889 235.046 536.794 234.869 536.794 234.361V231.95C536.794 230.532 535.861 229.693 534.135 229.693C532.433 229.693 531.452 230.544 531.452 231.985H532.776C532.776 231.3 533.261 230.886 534.111 230.886C535.01 230.886 535.423 231.276 535.411 231.95V232.257L533.887 232.423C532.173 232.612 531.228 233.262 531.228 234.396C531.228 235.33 531.89 236.216 533.355 236.216ZM533.651 235.153C532.906 235.153 532.611 234.751 532.611 234.349C532.611 233.805 533.225 233.557 534.431 233.415L535.376 233.309C535.317 234.349 534.62 235.153 533.651 235.153ZM538.651 236.027H540.045V226.691H538.651V236.027ZM544.569 236.216C546.046 236.216 547.133 235.342 547.323 234.172H545.94C545.834 234.644 545.337 235.082 544.581 235.082C543.517 235.082 542.997 234.396 542.914 233.38H547.382V232.872C547.382 230.863 546.117 229.693 544.569 229.693C542.725 229.693 541.484 231.04 541.484 232.943C541.484 234.857 542.725 236.216 544.569 236.216ZM542.914 232.423C543.056 231.501 543.553 230.886 544.522 230.886C545.384 230.886 545.94 231.524 545.987 232.423H542.914ZM551.43 236.216C553.108 236.216 554.136 235.472 554.136 234.302C554.136 231.666 550.154 232.99 550.154 231.595C550.154 231.075 550.603 230.709 551.383 230.709C552.234 230.709 552.754 231.134 552.789 231.844H554.125C554.03 230.52 553.025 229.693 551.489 229.693C549.799 229.693 548.771 230.484 548.771 231.654C548.771 234.219 552.754 232.872 552.754 234.337C552.754 234.822 552.281 235.2 551.477 235.2C550.579 235.2 549.976 234.798 549.941 234.101H548.594C548.629 235.413 549.705 236.216 551.43 236.216Z" fill="white"/>
<rect x="521.597" y="246.451" width="168" height="6" rx="3" fill="url(#paint14_linear)"/>
<path opacity="0.8" d="M675.829 272.155C677.979 272.155 679.457 270.288 679.457 266.955C679.457 264.19 678.275 262.441 675.899 262.441C674.02 262.441 672.602 263.753 672.602 265.525C672.602 267.463 673.843 268.645 675.758 268.645C676.703 268.645 677.589 268.208 678.027 267.546C677.861 269.602 677.069 270.784 675.876 270.784C674.907 270.784 674.245 270.252 674.103 269.354L672.614 269.366C672.803 271.127 673.997 272.155 675.829 272.155ZM675.864 267.369C674.812 267.369 674.068 266.624 674.068 265.596C674.068 264.556 674.824 263.812 675.888 263.812C676.951 263.812 677.708 264.544 677.708 265.584C677.708 266.624 676.939 267.369 675.864 267.369ZM684.835 272.155C687.293 272.155 688.735 270.335 688.735 267.251C688.735 264.225 687.293 262.441 684.835 262.441C682.341 262.441 680.852 264.225 680.852 267.251C680.852 270.335 682.341 272.155 684.835 272.155ZM684.835 270.784C683.275 270.784 682.353 269.449 682.353 267.192C682.353 265.076 683.275 263.812 684.835 263.812C686.348 263.812 687.246 265.076 687.246 267.192C687.246 269.449 686.348 270.784 684.835 270.784Z" fill="white"/>
<path opacity="0.8" d="M526.938 272.155C529.03 272.155 530.815 270.82 531.181 268.633H529.692C529.444 269.957 528.309 270.784 526.844 270.784C524.965 270.784 523.7 269.402 523.7 267.251C523.7 265.218 524.977 263.918 526.891 263.93C528.238 263.942 529.349 264.71 529.586 265.915H531.075C530.767 263.835 529.066 262.559 526.915 262.559C524.149 262.559 522.199 264.497 522.199 267.31C522.199 270.182 524.161 272.155 526.938 272.155ZM535.581 272.155C537.436 272.155 538.76 270.796 538.76 268.882C538.76 266.979 537.436 265.632 535.581 265.632C533.725 265.632 532.402 266.979 532.402 268.882C532.402 270.796 533.725 272.155 535.581 272.155ZM535.581 270.962C534.541 270.962 533.808 270.099 533.808 268.882C533.808 267.676 534.541 266.825 535.581 266.825C536.621 266.825 537.365 267.676 537.365 268.882C537.365 270.099 536.621 270.962 535.581 270.962ZM540.082 271.966H541.476V268.893C541.476 267.676 542.126 266.825 543.143 266.825C543.994 266.825 544.466 267.44 544.466 268.421V271.966H545.873V268.893C545.873 267.676 546.535 266.825 547.539 266.825C548.39 266.825 548.875 267.44 548.875 268.421V271.966H550.269V268.362C550.269 266.565 549.513 265.632 548.012 265.632C547.007 265.632 546.18 266.069 545.636 266.92C545.317 266.069 544.632 265.632 543.604 265.632C542.599 265.632 541.902 266.104 541.476 266.813V265.821H540.082V271.966ZM551.865 274.33H553.26V271.056C553.685 271.742 554.383 272.155 555.304 272.155C556.888 272.155 558.011 270.808 558.011 268.917C558.011 266.991 556.888 265.632 555.304 265.632C554.383 265.62 553.685 266.033 553.26 266.731V265.821H551.865V274.33ZM554.926 270.962C553.933 270.962 553.224 270.111 553.224 268.905C553.224 267.688 553.933 266.825 554.926 266.825C555.931 266.825 556.628 267.688 556.628 268.905C556.628 270.111 555.931 270.962 554.926 270.962ZM565.156 265.821H563.773V268.893C563.773 270.111 563.111 270.962 562.107 270.962C561.256 270.962 560.771 270.347 560.771 269.366V265.821H559.377V269.425C559.377 271.222 560.133 272.155 561.634 272.155C562.638 272.155 563.347 271.682 563.773 270.973V271.966H565.156V265.821ZM570.428 271.954V270.737C569.057 270.843 569.01 270.725 569.01 269.709V267.062H570.712V265.821H569.01V264.166H567.615V265.821H566.304V267.062H567.615V270.312C567.58 272.049 568.514 272.12 570.428 271.954ZM574.76 272.155C576.237 272.155 577.325 271.281 577.514 270.111H576.131C576.025 270.583 575.528 271.021 574.772 271.021C573.708 271.021 573.188 270.335 573.106 269.319H577.573V268.811C577.573 266.802 576.308 265.632 574.76 265.632C572.917 265.632 571.676 266.979 571.676 268.882C571.676 270.796 572.917 272.155 574.76 272.155ZM573.106 268.362C573.247 267.44 573.744 266.825 574.713 266.825C575.576 266.825 576.131 267.463 576.178 268.362H573.106ZM579.021 271.966H580.369V268.551C580.369 267.44 581.42 267.062 582.803 267.062V265.75C581.598 265.75 580.77 266.163 580.369 266.991V265.821H579.021V271.966ZM590 272.155C591.678 272.155 592.706 271.411 592.706 270.241C592.706 267.605 588.724 268.929 588.724 267.534C588.724 267.014 589.173 266.648 589.953 266.648C590.804 266.648 591.324 267.073 591.359 267.782H592.695C592.6 266.459 591.595 265.632 590.059 265.632C588.369 265.632 587.341 266.423 587.341 267.593C587.341 270.158 591.324 268.811 591.324 270.276C591.324 270.761 590.851 271.139 590.047 271.139C589.149 271.139 588.546 270.737 588.511 270.04H587.164C587.199 271.352 588.275 272.155 590 272.155ZM594.152 271.966H595.546V269.602L596.208 269.047L598.595 271.966H600.297L597.165 268.243L600.061 265.821H598.252L595.546 268.125V262.63H594.152V271.966ZM601.912 264.946C602.432 264.946 602.857 264.544 602.857 264.013C602.857 263.481 602.455 263.079 601.912 263.079C601.38 263.079 600.966 263.481 600.966 264.013C600.966 264.544 601.38 264.946 601.912 264.946ZM601.226 271.966H602.609V265.821H601.226V271.966ZM604.273 271.966H605.668V262.63H604.273V271.966ZM607.343 271.966H608.737V262.63H607.343V271.966ZM613.013 272.155C614.691 272.155 615.719 271.411 615.719 270.241C615.719 267.605 611.736 268.929 611.736 267.534C611.736 267.014 612.186 266.648 612.966 266.648C613.816 266.648 614.336 267.073 614.372 267.782H615.707C615.613 266.459 614.608 265.632 613.072 265.632C611.382 265.632 610.354 266.423 610.354 267.593C610.354 270.158 614.336 268.811 614.336 270.276C614.336 270.761 613.864 271.139 613.06 271.139C612.162 271.139 611.559 270.737 611.524 270.04H610.176C610.212 271.352 611.287 272.155 613.013 272.155Z" fill="white"/>
<rect x="521.597" y="282.39" width="156" height="6" rx="3" fill="url(#paint15_linear)"/>
<path opacity="0.8" d="M676.212 308.094C678.245 308.094 679.64 306.841 679.64 305.057C679.64 303.284 678.34 302.351 676.78 302.303L679.533 299.491V298.569H672.986V299.94H677.229L674.688 302.705L675.444 303.509C675.657 303.414 676 303.367 676.283 303.367C677.453 303.367 678.21 304.005 678.21 304.986C678.21 306.05 677.43 306.723 676.201 306.723C674.995 306.723 674.203 305.955 674.168 304.797H672.702C672.702 306.723 674.132 308.094 676.212 308.094ZM684.835 308.094C687.294 308.094 688.735 306.274 688.735 303.19C688.735 300.164 687.294 298.38 684.835 298.38C682.342 298.38 680.853 300.164 680.853 303.19C680.853 306.274 682.342 308.094 684.835 308.094ZM684.835 306.723C683.276 306.723 682.354 305.388 682.354 303.131C682.354 301.015 683.276 299.751 684.835 299.751C686.348 299.751 687.246 301.015 687.246 303.131C687.246 305.388 686.348 306.723 684.835 306.723Z" fill="white"/>
<path opacity="0.8" d="M522.589 307.905H526.288C529.16 307.905 531.063 306.192 531.063 303.284C531.063 300.342 529.207 298.687 526.288 298.687H522.589V307.905ZM524.031 306.605V299.987H526.288C528.345 299.987 529.562 301.169 529.562 303.273C529.562 305.412 528.345 306.605 526.288 306.605H524.031ZM534.532 308.094C535.631 308.094 536.352 307.61 536.683 306.783C536.778 307.704 537.333 308.177 538.539 307.858L538.55 306.877C538.066 306.924 537.971 306.747 537.971 306.239V303.828C537.971 302.41 537.038 301.571 535.312 301.571C533.61 301.571 532.63 302.422 532.63 303.864H533.953C533.953 303.178 534.438 302.764 535.289 302.764C536.187 302.764 536.6 303.154 536.589 303.828V304.135L535.064 304.301C533.35 304.49 532.405 305.14 532.405 306.274C532.405 307.208 533.067 308.094 534.532 308.094ZM534.828 307.031C534.083 307.031 533.788 306.629 533.788 306.227C533.788 305.683 534.402 305.435 535.608 305.293L536.553 305.187C536.494 306.227 535.797 307.031 534.828 307.031ZM542.241 308.094C543.162 308.106 543.86 307.693 544.285 306.995V307.905H545.68V298.569H544.285V302.67C543.86 301.984 543.162 301.571 542.241 301.571C540.657 301.571 539.534 302.918 539.534 304.809C539.534 306.735 540.657 308.094 542.241 308.094ZM542.619 306.901C541.614 306.901 540.917 306.038 540.917 304.821C540.917 303.615 541.614 302.764 542.619 302.764C543.611 302.764 544.321 303.615 544.321 304.821C544.321 306.038 543.611 306.901 542.619 306.901ZM551.593 300.885C552.113 300.885 552.527 300.484 552.527 299.952C552.527 299.42 552.125 299.018 551.593 299.018C551.05 299.018 550.648 299.42 550.648 299.952C550.648 300.484 551.05 300.885 551.593 300.885ZM549.49 310.269H549.75C551.369 310.269 552.29 309.666 552.29 307.917V301.76H550.908V307.716C550.908 308.744 550.518 309.111 549.75 309.111H549.49V310.269ZM556.885 308.094C558.741 308.094 560.064 306.735 560.064 304.821C560.064 302.918 558.741 301.571 556.885 301.571C555.03 301.571 553.706 302.918 553.706 304.821C553.706 306.735 555.03 308.094 556.885 308.094ZM556.885 306.901C555.845 306.901 555.113 306.038 555.113 304.821C555.113 303.615 555.845 302.764 556.885 302.764C557.925 302.764 558.67 303.615 558.67 304.821C558.67 306.038 557.925 306.901 556.885 306.901ZM561.387 307.905H562.781V305.542L563.443 304.986L565.83 307.905H567.532L564.4 304.183L567.296 301.76H565.487L562.781 304.064V298.569H561.387V307.905ZM570.709 308.094C572.187 308.094 573.274 307.22 573.463 306.05H572.08C571.974 306.523 571.477 306.96 570.721 306.96C569.657 306.96 569.138 306.274 569.055 305.258H573.522V304.75C573.522 302.741 572.257 301.571 570.709 301.571C568.866 301.571 567.625 302.918 567.625 304.821C567.625 306.735 568.866 308.094 570.709 308.094ZM569.055 304.301C569.197 303.379 569.693 302.764 570.662 302.764C571.525 302.764 572.08 303.403 572.127 304.301H569.055ZM577.57 308.094C579.249 308.094 580.277 307.35 580.277 306.18C580.277 303.544 576.294 304.868 576.294 303.474C576.294 302.954 576.743 302.587 577.523 302.587C578.374 302.587 578.894 303.013 578.929 303.722H580.265C580.17 302.398 579.166 301.571 577.629 301.571C575.939 301.571 574.911 302.363 574.911 303.533C574.911 306.097 578.894 304.75 578.894 306.215C578.894 306.7 578.421 307.078 577.618 307.078C576.719 307.078 576.117 306.676 576.081 305.979H574.734C574.77 307.291 575.845 308.094 577.57 308.094Z" fill="white"/>
<rect x="521.597" y="318.329" width="52" height="6" rx="3" fill="url(#paint16_linear)"/>
<path opacity="0.8" d="M677.075 343.844H678.422V341.374H679.758V340.003H678.422V334.508H676.425L672.1 340.169V341.374H677.075V343.844ZM673.991 340.003L677.075 335.903V340.003H673.991ZM684.835 344.033C687.293 344.033 688.735 342.213 688.735 339.129C688.735 336.103 687.293 334.319 684.835 334.319C682.341 334.319 680.852 336.103 680.852 339.129C680.852 342.213 682.341 344.033 684.835 344.033ZM684.835 342.662C683.275 342.662 682.353 341.327 682.353 339.07C682.353 336.954 683.275 335.69 684.835 335.69C686.347 335.69 687.246 336.954 687.246 339.07C687.246 341.327 686.347 342.662 684.835 342.662Z" fill="white"/>
<path opacity="0.8" d="M522.589 343.844H524.031V340.287H526.773C528.817 340.287 529.905 339.141 529.905 337.403C529.905 335.666 528.817 334.626 526.773 334.626H522.589V343.844ZM524.031 338.904V335.997H526.442C527.766 335.997 528.416 336.541 528.416 337.451C528.416 338.361 527.789 338.904 526.501 338.904H524.031ZM531.95 336.824C532.47 336.824 532.896 336.423 532.896 335.891C532.896 335.359 532.494 334.957 531.95 334.957C531.418 334.957 531.005 335.359 531.005 335.891C531.005 336.423 531.418 336.824 531.95 336.824ZM531.265 343.844H532.647V337.699H531.265V343.844ZM534.311 343.844H535.706V340.772C535.706 339.554 536.356 338.703 537.372 338.703C538.223 338.703 538.696 339.318 538.696 340.299V343.844H540.102V340.24C540.102 338.443 539.346 337.51 537.833 337.51C536.829 337.51 536.131 337.983 535.706 338.692V337.699H534.311V343.844ZM544.534 344.033C546.012 344.033 547.099 343.159 547.288 341.989H545.905C545.799 342.462 545.302 342.899 544.546 342.899C543.482 342.899 542.963 342.213 542.88 341.197H547.347V340.689C547.347 338.68 546.082 337.51 544.534 337.51C542.691 337.51 541.45 338.857 541.45 340.76C541.45 342.674 542.691 344.033 544.534 344.033ZM542.88 340.24C543.022 339.318 543.518 338.703 544.487 338.703C545.35 338.703 545.905 339.342 545.952 340.24H542.88ZM550.713 344.033C551.812 344.033 552.533 343.549 552.864 342.722C552.958 343.643 553.514 344.116 554.719 343.797L554.731 342.816C554.246 342.863 554.152 342.686 554.152 342.178V339.767C554.152 338.349 553.218 337.51 551.493 337.51C549.791 337.51 548.81 338.361 548.81 339.802H550.134C550.134 339.117 550.618 338.703 551.469 338.703C552.367 338.703 552.781 339.093 552.769 339.767V340.074L551.245 340.24C549.531 340.429 548.585 341.079 548.585 342.213C548.585 343.147 549.247 344.033 550.713 344.033ZM551.008 342.97C550.264 342.97 549.968 342.568 549.968 342.166C549.968 341.622 550.583 341.374 551.788 341.232L552.734 341.126C552.674 342.166 551.977 342.97 551.008 342.97ZM555.882 346.208H557.276V342.934C557.702 343.62 558.399 344.033 559.321 344.033C560.904 344.033 562.027 342.686 562.027 340.795C562.027 338.869 560.904 337.51 559.321 337.51C558.399 337.498 557.702 337.912 557.276 338.609V337.699H555.882V346.208ZM558.942 342.84C557.95 342.84 557.241 341.989 557.241 340.783C557.241 339.566 557.95 338.703 558.942 338.703C559.947 338.703 560.644 339.566 560.644 340.783C560.644 341.989 559.947 342.84 558.942 342.84ZM563.36 346.208H564.755V342.934C565.18 343.62 565.877 344.033 566.799 344.033C568.383 344.033 569.506 342.686 569.506 340.795C569.506 338.869 568.383 337.51 566.799 337.51C565.877 337.498 565.18 337.912 564.755 338.609V337.699H563.36V346.208ZM566.421 342.84C565.428 342.84 564.719 341.989 564.719 340.783C564.719 339.566 565.428 338.703 566.421 338.703C567.426 338.703 568.123 339.566 568.123 340.783C568.123 341.989 567.426 342.84 566.421 342.84ZM570.839 343.844H572.233V334.508H570.839V343.844ZM576.757 344.033C578.234 344.033 579.321 343.159 579.51 341.989H578.128C578.021 342.462 577.525 342.899 576.769 342.899C575.705 342.899 575.185 342.213 575.102 341.197H579.569V340.689C579.569 338.68 578.305 337.51 576.757 337.51C574.913 337.51 573.672 338.857 573.672 340.76C573.672 342.674 574.913 344.033 576.757 344.033ZM575.102 340.24C575.244 339.318 575.74 338.703 576.71 338.703C577.572 338.703 578.128 339.342 578.175 340.24H575.102ZM587.504 344.033C589.359 344.033 590.683 342.674 590.683 340.76C590.683 338.857 589.359 337.51 587.504 337.51C585.648 337.51 584.325 338.857 584.325 340.76C584.325 342.674 585.648 344.033 587.504 344.033ZM587.504 342.84C586.464 342.84 585.731 341.977 585.731 340.76C585.731 339.554 586.464 338.703 587.504 338.703C588.544 338.703 589.288 339.554 589.288 340.76C589.288 341.977 588.544 342.84 587.504 342.84ZM592.005 343.844H593.399V340.772C593.399 339.554 594.049 338.703 595.066 338.703C595.917 338.703 596.389 339.318 596.389 340.299V343.844H597.796V340.24C597.796 338.443 597.039 337.51 595.527 337.51C594.522 337.51 593.825 337.983 593.399 338.692V337.699H592.005V343.844ZM602.923 346.208H604.317V342.934C604.743 343.62 605.44 344.033 606.362 344.033C607.945 344.033 609.068 342.686 609.068 340.795C609.068 338.869 607.945 337.51 606.362 337.51C605.44 337.498 604.743 337.912 604.317 338.609V337.699H602.923V346.208ZM605.984 342.84C604.991 342.84 604.282 341.989 604.282 340.783C604.282 339.566 604.991 338.703 605.984 338.703C606.988 338.703 607.685 339.566 607.685 340.783C607.685 341.989 606.988 342.84 605.984 342.84ZM611.133 336.824C611.653 336.824 612.078 336.423 612.078 335.891C612.078 335.359 611.677 334.957 611.133 334.957C610.601 334.957 610.187 335.359 610.187 335.891C610.187 336.423 610.601 336.824 611.133 336.824ZM610.447 343.844H611.83V337.699H610.447V343.844ZM613.199 343.844H618.824V342.556H615.291L618.789 338.526V337.699H613.423V338.987H616.827L613.199 343.1V343.844ZM620.054 343.844L625.68 343.844V342.556H622.146L625.644 338.526V337.699L620.279 337.699V338.987L623.682 338.987L620.054 343.1V343.844ZM628.926 344.033C630.025 344.033 630.746 343.549 631.077 342.722C631.172 343.643 631.727 344.116 632.932 343.797L632.944 342.816C632.46 342.863 632.365 342.686 632.365 342.178V339.767C632.365 338.349 631.432 337.51 629.706 337.51C628.004 337.51 627.023 338.361 627.023 339.802H628.347C628.347 339.117 628.832 338.703 629.682 338.703C630.581 338.703 630.994 339.093 630.982 339.767V340.074L629.458 340.24C627.744 340.429 626.799 341.079 626.799 342.213C626.799 343.147 627.461 344.033 628.926 344.033ZM629.222 342.97C628.477 342.97 628.182 342.568 628.182 342.166C628.182 341.622 628.796 341.374 630.002 341.232L630.947 341.126C630.888 342.166 630.191 342.97 629.222 342.97Z" fill="white"/>
<rect x="521.597" y="354.268" width="66" height="6" rx="3" fill="url(#paint17_linear)"/>
<defs>
<filter id="filter0_b" x="72.7094" y="70.9213" width="72.82" height="72.82" filterUnits="userSpaceOnUse" color-interpolation-filters="sRGB">
<feFlood flood-opacity="0" result="BackgroundImageFix"/>
<feGaussianBlur in="BackgroundImage" stdDeviation="2.8416"/>
<feComposite in2="SourceAlpha" operator="in" result="effect1_backgroundBlur"/>
<feBlend mode="normal" in="SourceGraphic" in2="effect1_backgroundBlur" result="shape"/>
</filter>
<filter id="filter1_b" x="320.948" y="21.4669" width="72.82" height="72.82" filterUnits="userSpaceOnUse" color-interpolation-filters="sRGB">
<feFlood flood-opacity="0" result="BackgroundImageFix"/>
<feGaussianBlur in="BackgroundImage" stdDeviation="2.8416"/>
<feComposite in2="SourceAlpha" operator="in" result="effect1_backgroundBlur"/>
<feBlend mode="normal" in="SourceGraphic" in2="effect1_backgroundBlur" result="shape"/>
</filter>
<filter id="filter2_b" x="569.187" y="72.4674" width="72.82" height="72.82" filterUnits="userSpaceOnUse" color-interpolation-filters="sRGB">
<feFlood flood-opacity="0" result="BackgroundImageFix"/>
<feGaussianBlur in="BackgroundImage" stdDeviation="2.8416"/>
<feComposite in2="SourceAlpha" operator="in" result="effect1_backgroundBlur"/>
<feBlend mode="normal" in="SourceGraphic" in2="effect1_backgroundBlur" result="shape"/>
</filter>
<linearGradient id="paint0_linear" x1="109.119" y1="76.6045" x2="109.119" y2="138.058" gradientUnits="userSpaceOnUse">
<stop stop-color="white"/>
<stop offset="1" stop-color="white" stop-opacity="0.5"/>
</linearGradient>
<linearGradient id="paint1_linear" x1="26.4084" y1="208.241" x2="154.908" y2="208.241" gradientUnits="userSpaceOnUse">
<stop stop-color="#FFC700"/>
<stop offset="0.255208" stop-color="#FF7F00"/>
<stop offset="0.536458" stop-color="#FF5874"/>
<stop offset="1" stop-color="#C01691"/>
</linearGradient>
<linearGradient id="paint2_linear" x1="26.7852" y1="244.187" x2="192.849" y2="244.187" gradientUnits="userSpaceOnUse">
<stop stop-color="#FFC700"/>
<stop offset="0.255208" stop-color="#FF7F00"/>
<stop offset="0.536458" stop-color="#FF5874"/>
<stop offset="1" stop-color="#C01691"/>
</linearGradient>
<linearGradient id="paint3_linear" x1="26.5869" y1="280.126" x2="172.882" y2="280.125" gradientUnits="userSpaceOnUse">
<stop stop-color="#FFC700"/>
<stop offset="0.255208" stop-color="#FF7F00"/>
<stop offset="0.536458" stop-color="#FF5874"/>
<stop offset="1" stop-color="#C01691"/>
</linearGradient>
<linearGradient id="paint4_linear" x1="25.3474" y1="316.065" x2="48.0824" y2="316.065" gradientUnits="userSpaceOnUse">
<stop stop-color="#FFC700"/>
<stop offset="0.255208" stop-color="#FF7F00"/>
<stop offset="0.536458" stop-color="#FF5874"/>
<stop offset="1" stop-color="#C01691"/>
</linearGradient>
<linearGradient id="paint5_linear" x1="26.2002" y1="352.005" x2="133.944" y2="352.005" gradientUnits="userSpaceOnUse">
<stop stop-color="#FFC700"/>
<stop offset="0.255208" stop-color="#FF7F00"/>
<stop offset="0.536458" stop-color="#FF5874"/>
<stop offset="1" stop-color="#C01691"/>
</linearGradient>
<linearGradient id="paint6_linear" x1="357.358" y1="27.1501" x2="357.358" y2="88.6037" gradientUnits="userSpaceOnUse">
<stop stop-color="white"/>
<stop offset="1" stop-color="white" stop-opacity="0.5"/>
</linearGradient>
<linearGradient id="paint7_linear" x1="275.024" y1="162.429" x2="441.088" y2="162.429" gradientUnits="userSpaceOnUse">
<stop stop-color="#FFC700"/>
<stop offset="0.255208" stop-color="#FF7F00"/>
<stop offset="0.536458" stop-color="#FF5874"/>
<stop offset="1" stop-color="#C01691"/>
</linearGradient>
<linearGradient id="paint8_linear" x1="274.26" y1="198.368" x2="364.212" y2="198.368" gradientUnits="userSpaceOnUse">
<stop stop-color="#FFC700"/>
<stop offset="0.255208" stop-color="#FF7F00"/>
<stop offset="0.536458" stop-color="#FF5874"/>
<stop offset="1" stop-color="#C01691"/>
</linearGradient>
<linearGradient id="paint9_linear" x1="274.528" y1="234.307" x2="391.168" y2="234.307" gradientUnits="userSpaceOnUse">
<stop stop-color="#FFC700"/>
<stop offset="0.255208" stop-color="#FF7F00"/>
<stop offset="0.536458" stop-color="#FF5874"/>
<stop offset="1" stop-color="#C01691"/>
</linearGradient>
<linearGradient id="paint10_linear" x1="273.784" y1="270.246" x2="316.289" y2="270.246" gradientUnits="userSpaceOnUse">
<stop stop-color="#FFC700"/>
<stop offset="0.255208" stop-color="#FF7F00"/>
<stop offset="0.536458" stop-color="#FF5874"/>
<stop offset="1" stop-color="#C01691"/>
</linearGradient>
<linearGradient id="paint11_linear" x1="274.736" y1="306.186" x2="412.135" y2="306.186" gradientUnits="userSpaceOnUse">
<stop stop-color="#FFC700"/>
<stop offset="0.255208" stop-color="#FF7F00"/>
<stop offset="0.536458" stop-color="#FF5874"/>
<stop offset="1" stop-color="#C01691"/>
</linearGradient>
<linearGradient id="paint12_linear" x1="605.597" y1="78.1506" x2="605.597" y2="139.604" gradientUnits="userSpaceOnUse">
<stop stop-color="white"/>
<stop offset="1" stop-color="white" stop-opacity="0.5"/>
</linearGradient>
<linearGradient id="paint13_linear" x1="522.886" y1="216.581" x2="651.388" y2="216.581" gradientUnits="userSpaceOnUse">
<stop stop-color="#FFC700"/>
<stop offset="0.255208" stop-color="#FF7F00"/>
<stop offset="0.536458" stop-color="#FF5874"/>
<stop offset="1" stop-color="#C01691"/>
</linearGradient>
<linearGradient id="paint14_linear" x1="523.263" y1="252.52" x2="689.327" y2="252.52" gradientUnits="userSpaceOnUse">
<stop stop-color="#FFC700"/>
<stop offset="0.255208" stop-color="#FF7F00"/>
<stop offset="0.536458" stop-color="#FF5874"/>
<stop offset="1" stop-color="#C01691"/>
</linearGradient>
<linearGradient id="paint15_linear" x1="523.144" y1="288.459" x2="677.346" y2="288.459" gradientUnits="userSpaceOnUse">
<stop stop-color="#FFC700"/>
<stop offset="0.255208" stop-color="#FF7F00"/>
<stop offset="0.536458" stop-color="#FF5874"/>
<stop offset="1" stop-color="#C01691"/>
</linearGradient>
<linearGradient id="paint16_linear" x1="522.112" y1="324.398" x2="573.513" y2="324.398" gradientUnits="userSpaceOnUse">
<stop stop-color="#FFC700"/>
<stop offset="0.255208" stop-color="#FF7F00"/>
<stop offset="0.536458" stop-color="#FF5874"/>
<stop offset="1" stop-color="#C01691"/>
</linearGradient>
<linearGradient id="paint17_linear" x1="522.251" y1="360.337" x2="587.491" y2="360.337" gradientUnits="userSpaceOnUse">
<stop stop-color="#FFC700"/>
<stop offset="0.255208" stop-color="#FF7F00"/>
<stop offset="0.536458" stop-color="#FF5874"/>
<stop offset="1" stop-color="#C01691"/>
</linearGradient>
</defs>
</svg>
