<svg width="99" height="99" viewBox="0 0 99 99" fill="none" xmlns="http://www.w3.org/2000/svg">
<circle cx="50" cy="49" r="22" fill="white" fill-opacity="0.2"/>
<circle cx="50" cy="49" r="21" stroke="white" stroke-opacity="0.4" stroke-width="2"/>
<path fill-rule="evenodd" clip-rule="evenodd" d="M49.8046 71.2352C61.8469 71.2352 71.6092 61.4729 71.6092 49.4306C71.6092 37.3882 61.8469 27.626 49.8046 27.626C37.7622 27.626 28 37.3882 28 49.4306C28 61.4729 37.7622 71.2352 49.8046 71.2352ZM44.6909 30.4606L43.2062 29.9521C43.2062 29.9521 38.3845 31.0855 33.919 36.2627C29.6542 41.2076 29.3199 46.5805 29.2751 47.3008L29.2725 47.3412C29.0176 51.2077 29.2842 51.0536 29.2842 51.0536L30.8689 48.8423L31.6523 46.9114C31.6523 46.9114 33.0038 46.8895 33.3728 45.8598C33.742 44.8299 34.2626 45.0359 34.2626 45.0359L35.0388 45.3227L35.2653 44.489L35.7877 45.5935L36.4235 44.9803L36.4147 44.1496L37.9266 43.8495L37.2472 43.0461L38.4553 42.3365C38.4553 42.3365 38.4008 43.1615 38.6469 43.3061C38.7759 43.382 38.8707 43.2944 38.9929 43.1816C39.1039 43.0791 39.2376 42.9557 39.4401 42.915C39.8654 42.8295 40.3482 42.9644 40.3482 42.9644L42.2466 41.5284C42.2466 41.5284 42.1062 40.1755 42.2626 39.6817C42.3791 39.3148 42.154 39.2032 41.9461 39.1C41.8142 39.0347 41.6893 38.9727 41.6627 38.8513C41.5507 38.3414 42.512 38.5924 42.512 38.5924L43.5736 39.2717L43.5228 38.5666L44.5679 38.0113L43.5014 35.4108L44.3482 34.1385C44.3482 34.1385 43.6874 33.8522 43.7096 33.414C43.7211 33.1828 43.874 33.0463 44.0415 32.8968C44.1916 32.7628 44.3534 32.6184 44.4359 32.3859C44.6105 31.8938 44.4078 31.4461 44.4078 31.4461L44.6909 30.4606ZM30.5586 53.5608L29.5843 53.0475C29.5843 53.0475 29.8248 56.5536 32.9573 61.0257C36.4653 66.0339 39.5868 66.9144 39.5882 66.689C39.5898 66.4636 39.2269 65.0037 39.2269 65.0037L40.7399 63.2734L41.3992 59.6521L39.0367 58.6536L38.0211 58.9937L38.6167 58.2934L38.8586 57.1489L37.8384 57.0986L38.4074 56.1506L37.8991 55.7229L38.2756 54.6539L37.1364 55.3311L36.1787 55.2778L35.6968 54.0937L34.9462 54.341L34.3411 53.569C34.3411 53.569 34.0121 52.7057 33.6241 52.9078C33.236 53.1101 32.9671 53.928 32.9671 53.928L32.1941 53.6065L31.919 54.5228L31.2904 52.7791L30.5586 53.5608ZM61.8128 45.3843C61.8128 45.3843 60.4549 45.0389 59.752 45.0898C59.0492 45.1411 59.0019 45.589 59.0019 45.589L57.9016 45.0642C57.9016 45.0642 57.0221 44.843 56.7071 44.5597C56.3921 44.2762 56.6417 43.9304 56.6417 43.9304L51.6374 44.3618L50.8496 45.4172L50.3584 46.5663L49.4544 46.9646L48.7003 48.1781L48.4817 49.1449L47.9884 50.1928L47.0932 50.8591L47.4454 52.0492L47.8943 53.393L48.9403 54.7542C48.9403 54.7542 49.6881 54.3666 50.4412 54.4362C51.1944 54.5058 51.9529 55.0324 51.9529 55.0324L53.6009 54.5396L54.8137 55.4215L56.4496 54.7645L56.7099 56.5241L58.5181 58.9714L57.7903 60.0297L56.7541 62.0584L57.1697 64.424L58.3286 66.5982L58.5181 68.0376L61.1198 66.4902L63.0747 64.9576C63.0747 64.9576 64.3435 63.971 65.4214 62.8125C66.5016 61.654 67.4311 60.0297 67.4311 60.0297L67.0348 58.0536L68.2477 56.003L69.4164 54.239L69.747 52.3055C69.747 52.3055 70.1568 49.5949 70.187 49.3042C70.2173 49.0134 68.3804 50.3623 68.3804 50.3623L66.6041 49.865L62.7441 45.003L61.8128 45.3843ZM50.7029 41.1312L52.7684 39.8917L52.6864 38.9901L52.7604 37.9787V37.2882L53.0563 36.326L54.3638 36.1041L55.153 36.0054L55.7944 35.4627L56.2384 34.772L56.6824 34.1553L56.2137 33.4648L55.5476 34.1553L55.1284 34.9941L54.635 35.5861L53.8705 35.1175L53.969 34.2787L54.5363 33.3661L55.2024 32.774L55.9425 32.1573H57.3731L56.7564 31.22L57.1058 30.243C57.1058 30.243 63.0606 32.2677 66.3503 36.2129C69.6375 40.1578 70.2312 45.7425 70.2312 45.7425L67.7727 44.2008L70.1008 47.2841L67.051 49.9081L66.4271 48.4321L65.8683 47.0052L64.2945 45.644L62.8185 45.0373L62.9 44.5617L63.1305 43.7086L62.1457 43.1511L62.0316 42.6426L61.4901 42.3311L61.1293 42.6591L60.9654 43.3971L60.375 43.43L60.0961 42.3639L58.7839 40.9042L59.2596 42.3802L59.112 43.348L57.5212 43.4463L58.2934 42.577L57.1058 40.2533L54.3175 41.9058L53.5946 43.9196L51.0642 43.6614L50.7029 41.1312Z" fill="white" fill-opacity="0.6"/>
<circle cx="49.5" cy="49.5" r="45.5" stroke="url(#paint0_angular)" stroke-width="7.64706"/>
<defs>
<radialGradient id="paint0_angular" cx="0" cy="0" r="1" gradientUnits="userSpaceOnUse" gradientTransform="translate(49.5 49.5) rotate(90) scale(45.5)">
<stop stop-color="#EE55DB"/>
<stop offset="0.171875" stop-color="#FF4D86"/>
<stop offset="0.359375" stop-color="#FF6C55"/>
<stop offset="0.505208" stop-color="#FFB05E"/>
<stop offset="0.614583" stop-color="#FF6C55"/>
<stop offset="0.807292" stop-color="#FF4D86"/>
<stop offset="1" stop-color="#EE55DB"/>
</radialGradient>
</defs>
</svg>
