<?xml version="1.0" encoding="UTF-8"?>
<svg xmlns="http://www.w3.org/2000/svg" xmlns:xlink="http://www.w3.org/1999/xlink" width="150pt" height="149.999998pt" viewBox="0 0 150 149.999998" version="1.2">
<defs>
<clipPath id="clip1">
  <path d="M 11.621094 11.621094 L 90 11.621094 L 90 90 L 11.621094 90 Z M 11.621094 11.621094 "/>
</clipPath>
<clipPath id="clip2">
  <path d="M 11.621094 92 L 41 92 L 41 123 L 11.621094 123 Z M 11.621094 92 "/>
</clipPath>
<clipPath id="clip3">
  <path d="M 109 27 L 138.371094 27 L 138.371094 58 L 109 58 Z M 109 27 "/>
</clipPath>
<clipPath id="clip4">
  <path d="M 60 60 L 138.371094 60 L 138.371094 138.371094 L 60 138.371094 Z M 60 60 "/>
</clipPath>
</defs>
<g id="surface1">
<rect x="0" y="0" width="150" height="149.999998" style="fill:rgb(100%,100%,100%);fill-opacity:1;stroke:none;"/>
<rect x="0" y="0" width="150" height="149.999998" style="fill:rgb(100%,100%,100%);fill-opacity:1;stroke:none;"/>
<g clip-path="url(#clip1)" clip-rule="nonzero">
<path style=" stroke:none;fill-rule:nonzero;fill:rgb(29.798889%,68.629456%,31.369019%);fill-opacity:1;" d="M 50.582031 89.734375 C 72.121094 89.734375 89.582031 72.273438 89.582031 50.734375 C 89.582031 29.199219 72.121094 11.734375 50.582031 11.734375 C 29.046875 11.734375 11.582031 29.199219 11.582031 50.734375 C 11.582031 72.277344 29.042969 89.734375 50.582031 89.734375 Z M 50.582031 89.734375 "/>
</g>
<path style=" stroke:none;fill-rule:nonzero;fill:rgb(100%,100%,100%);fill-opacity:1;" d="M 57.40625 60.644531 C 57.40625 59.019531 57.074219 57.726562 56.109375 57.078125 C 55.132812 56.097656 53.828125 55.453125 51.554688 54.472656 C 49.609375 53.828125 47.65625 52.847656 46.03125 52.203125 C 44.40625 51.542969 43.113281 50.578125 42.136719 49.597656 C 41.15625 48.621094 40.179688 47.328125 39.53125 46.015625 C 38.886719 44.722656 38.554688 43.097656 38.554688 41.140625 C 38.554688 37.890625 39.53125 35.289062 41.484375 33.347656 C 43.429688 31.390625 46.359375 30.097656 49.609375 29.765625 L 49.609375 23.601562 L 54.15625 23.601562 L 54.15625 29.769531 C 57.40625 30.101562 60.007812 31.726562 61.949219 33.996094 C 63.90625 36.269531 64.878906 39.203125 64.878906 43.101562 L 56.753906 43.101562 C 56.753906 40.828125 56.421875 39.203125 55.449219 37.894531 C 54.484375 36.601562 53.175781 36.269531 51.550781 36.269531 C 49.925781 36.269531 48.632812 36.601562 47.984375 37.578125 C 47.003906 38.542969 46.675781 39.519531 46.675781 41.144531 C 46.675781 42.453125 47.007812 43.746094 47.984375 44.726562 C 48.949219 45.703125 50.253906 46.351562 52.527344 47.328125 C 54.796875 48.292969 56.753906 48.953125 58.046875 49.917969 C 59.671875 50.578125 60.652344 51.542969 61.628906 52.523438 C 62.609375 53.5 63.253906 54.792969 63.902344 56.105469 C 64.546875 57.398438 64.546875 59.023438 64.546875 60.648438 C 64.546875 63.898438 63.570312 66.5 61.628906 68.453125 C 59.671875 70.398438 56.753906 71.703125 53.171875 72.023438 L 53.171875 77.875 L 48.628906 77.875 L 48.628906 72.355469 C 44.734375 72.023438 41.796875 70.398438 39.527344 68.125 C 37.253906 65.855469 36.277344 62.605469 36.277344 58.707031 L 44.402344 58.707031 C 44.402344 60.980469 45.046875 62.605469 46.027344 63.902344 C 47.003906 65.207031 48.628906 65.859375 50.570312 65.859375 C 52.195312 65.859375 53.5 65.527344 54.480469 64.550781 C 56.757812 63.578125 57.40625 62.269531 57.40625 60.644531 Z M 57.40625 60.644531 "/>
<path style=" stroke:none;fill-rule:nonzero;fill:rgb(27.059937%,35.289001%,39.219666%);fill-opacity:1;" d="M 53.871094 117.246094 L 34.371094 102.621094 L 34.371094 131.871094 Z M 53.871094 117.246094 "/>
<g clip-path="url(#clip2)" clip-rule="nonzero">
<path style=" stroke:none;fill-rule:nonzero;fill:rgb(27.059937%,35.289001%,39.219666%);fill-opacity:1;" d="M 40.871094 122.121094 L 26.246094 122.121094 C 18.1875 122.121094 11.621094 115.558594 11.621094 107.496094 L 11.621094 92.871094 L 21.371094 92.871094 L 21.371094 107.496094 C 21.371094 110.1875 23.554688 112.371094 26.246094 112.371094 L 40.871094 112.371094 Z M 40.871094 122.121094 "/>
</g>
<path style=" stroke:none;fill-rule:nonzero;fill:rgb(27.059937%,35.289001%,39.219666%);fill-opacity:1;" d="M 96.121094 32.746094 L 115.621094 47.371094 L 115.621094 18.121094 Z M 96.121094 32.746094 "/>
<g clip-path="url(#clip3)" clip-rule="nonzero">
<path style=" stroke:none;fill-rule:nonzero;fill:rgb(27.059937%,35.289001%,39.219666%);fill-opacity:1;" d="M 109.121094 27.871094 L 123.746094 27.871094 C 131.808594 27.871094 138.371094 34.4375 138.371094 42.496094 L 138.371094 57.121094 L 128.621094 57.121094 L 128.621094 42.496094 C 128.621094 39.804688 126.4375 37.621094 123.746094 37.621094 L 109.121094 37.621094 Z M 109.121094 27.871094 "/>
</g>
<g clip-path="url(#clip4)" clip-rule="nonzero">
<path style=" stroke:none;fill-rule:nonzero;fill:rgb(24.708557%,31.759644%,70.979309%);fill-opacity:1;" d="M 99.339844 138.390625 C 120.878906 138.390625 138.339844 120.929688 138.339844 99.390625 C 138.339844 77.855469 120.878906 60.390625 99.339844 60.390625 C 77.800781 60.390625 60.339844 77.855469 60.339844 99.390625 C 60.339844 120.933594 77.796875 138.390625 99.339844 138.390625 Z M 99.339844 138.390625 "/>
</g>
<path style=" stroke:none;fill-rule:nonzero;fill:rgb(100%,83.918762%,0%);fill-opacity:1;" d="M 103.890625 113.203125 L 100.640625 113.203125 C 96.269531 113.203125 92.75 110.542969 91.453125 106.703125 L 103.890625 106.703125 L 103.890625 100.203125 L 90.890625 100.203125 L 90.890625 96.953125 L 103.890625 96.953125 L 103.890625 90.453125 L 91.453125 90.453125 C 92.75 86.617188 96.269531 83.953125 100.640625 83.953125 L 103.890625 83.953125 C 106.160156 83.953125 108.117188 84.601562 109.742188 85.910156 L 111.6875 79.730469 C 109.414062 78.433594 106.8125 77.457031 103.890625 77.457031 L 100.640625 77.457031 C 92.691406 77.457031 86.230469 83.164062 84.726562 90.457031 L 77.890625 90.457031 L 77.890625 96.957031 L 84.390625 96.957031 L 84.390625 100.207031 L 77.890625 100.207031 L 77.890625 106.707031 L 84.722656 106.707031 C 86.25 114.203125 92.941406 119.707031 100.640625 119.707031 L 103.890625 119.707031 C 106.808594 119.707031 109.410156 118.730469 111.683594 117.433594 L 109.738281 111.253906 C 108.117188 112.558594 106.160156 113.203125 103.890625 113.203125 Z M 103.890625 113.203125 "/>
</g>
</svg>
