<?xml version="1.0" encoding="UTF-8"?>
<svg xmlns="http://www.w3.org/2000/svg" xmlns:xlink="http://www.w3.org/1999/xlink" width="150pt" height="149.999998pt" viewBox="0 0 150 149.999998" version="1.2">
<g id="surface1">
<rect x="0" y="0" width="150" height="149.999998" style="fill:rgb(100%,100%,100%);fill-opacity:1;stroke:none;"/>
<rect x="0" y="0" width="150" height="149.999998" style="fill:rgb(100%,100%,100%);fill-opacity:1;stroke:none;"/>
<rect x="0" y="0" width="150" height="149.999998" style="fill:rgb(100%,100%,100%);fill-opacity:1;stroke:none;"/>
<path style="fill:none;stroke-width:1.5;stroke-linecap:butt;stroke-linejoin:miter;stroke:rgb(79.60968%,83.918762%,88.62915%);stroke-opacity:1;stroke-miterlimit:4;" d="M 0.748892 0.748854 L 247.247908 0.748854 L 247.247908 245.251495 L 0.748892 245.251495 Z M 0.748892 0.748854 " transform="matrix(0.794929,0,0,0.795684,-25.634378,-22.884914)"/>
<path style=" stroke:none;fill-rule:evenodd;fill:rgb(100%,56.079102%,34.899902%);fill-opacity:1;" d="M 99.167969 101.242188 C 90.390625 101.242188 83.269531 94.117188 83.269531 85.328125 C 83.269531 76.539062 90.390625 69.414062 99.167969 69.414062 C 107.949219 69.414062 115.066406 76.539062 115.066406 85.328125 C 115.066406 94.117188 107.949219 101.242188 99.167969 101.242188 M 103.847656 54.863281 L 103.847656 40.839844 C 107.550781 39.113281 110.144531 35.410156 110.144531 31.113281 L 110.144531 30.789062 C 110.144531 24.859375 105.238281 20.011719 99.238281 20.011719 L 98.914062 20.011719 C 92.914062 20.011719 88.007812 24.859375 88.007812 30.789062 L 88.007812 31.113281 C 88.007812 35.410156 90.601562 39.113281 94.300781 40.84375 L 94.300781 54.863281 C 88.789062 55.703125 83.753906 57.953125 79.601562 61.257812 L 40.660156 31.3125 C 40.917969 30.339844 41.097656 29.335938 41.101562 28.277344 C 41.105469 21.566406 35.609375 16.113281 28.8125 16.105469 C 22.019531 16.097656 16.503906 21.53125 16.496094 28.25 C 16.488281 34.964844 21.988281 40.417969 28.78125 40.425781 C 30.996094 40.425781 33.046875 39.804688 34.839844 38.796875 L 73.144531 68.253906 C 69.886719 73.113281 67.980469 78.9375 67.980469 85.203125 C 67.980469 91.765625 70.078125 97.835938 73.621094 102.828125 L 61.972656 114.34375 C 61.050781 114.070312 60.097656 113.878906 59.082031 113.878906 C 53.5 113.878906 48.976562 118.351562 48.976562 123.871094 C 48.976562 129.390625 53.5 133.863281 59.082031 133.863281 C 64.667969 133.863281 69.191406 129.390625 69.191406 123.871094 C 69.191406 122.875 69 121.929688 68.722656 121.019531 L 80.246094 109.628906 C 85.476562 113.574219 91.988281 115.945312 99.078125 115.945312 C 116.25 115.945312 130.171875 102.179688 130.171875 85.203125 C 130.171875 69.835938 118.75 57.136719 103.847656 54.863281 "/>
</g>
</svg>
