<?xml version="1.0" encoding="UTF-8"?>
<svg xmlns="http://www.w3.org/2000/svg" xmlns:xlink="http://www.w3.org/1999/xlink" width="150pt" height="149.999998pt" viewBox="0 0 150 149.999998" version="1.2">
<defs>
<clipPath id="clip1">
  <path d="M 17.523438 6.0625 L 132.273438 6.0625 L 132.273438 144.0625 L 17.523438 144.0625 Z M 17.523438 6.0625 "/>
</clipPath>
</defs>
<g id="surface1">
<rect x="0" y="0" width="150" height="149.999998" style="fill:rgb(100%,100%,100%);fill-opacity:1;stroke:none;"/>
<rect x="0" y="0" width="150" height="149.999998" style="fill:rgb(100%,100%,100%);fill-opacity:1;stroke:none;"/>
<rect x="0" y="0" width="150" height="149.999998" style="fill:rgb(100%,100%,100%);fill-opacity:1;stroke:none;"/>
<path style=" stroke:none;fill-rule:nonzero;fill:rgb(32.548523%,45.878601%,100%);fill-opacity:1;" d="M 47.371094 109.5625 L 51.957031 109.5625 C 53.222656 109.5625 54.253906 108.527344 54.253906 107.261719 C 54.253906 105.996094 53.222656 104.960938 51.957031 104.960938 L 47.371094 104.960938 C 46.109375 104.960938 45.078125 105.996094 45.078125 107.261719 C 45.078125 108.527344 46.109375 109.5625 47.371094 109.5625 "/>
<path style=" stroke:none;fill-rule:nonzero;fill:rgb(32.548523%,45.878601%,100%);fill-opacity:1;" d="M 116.1875 104.960938 L 61.132812 104.960938 C 59.871094 104.960938 58.839844 105.996094 58.839844 107.261719 C 58.839844 108.527344 59.871094 109.5625 61.132812 109.5625 L 116.1875 109.5625 C 117.449219 109.5625 118.480469 108.527344 118.480469 107.261719 C 118.480469 105.996094 117.449219 104.960938 116.1875 104.960938 "/>
<path style=" stroke:none;fill-rule:nonzero;fill:rgb(32.548523%,45.878601%,100%);fill-opacity:1;" d="M 47.371094 95.761719 L 51.957031 95.761719 C 53.222656 95.761719 54.253906 94.726562 54.253906 93.460938 C 54.253906 92.195312 53.222656 91.160156 51.957031 91.160156 L 47.371094 91.160156 C 46.109375 91.160156 45.078125 92.195312 45.078125 93.460938 C 45.078125 94.726562 46.109375 95.761719 47.371094 95.761719 "/>
<path style=" stroke:none;fill-rule:nonzero;fill:rgb(32.548523%,45.878601%,100%);fill-opacity:1;" d="M 116.1875 91.160156 L 61.132812 91.160156 C 59.871094 91.160156 58.839844 92.195312 58.839844 93.460938 C 58.839844 94.726562 59.871094 95.761719 61.132812 95.761719 L 116.1875 95.761719 C 117.449219 95.761719 118.480469 94.726562 118.480469 93.460938 C 118.480469 92.195312 117.449219 91.160156 116.1875 91.160156 "/>
<path style=" stroke:none;fill-rule:nonzero;fill:rgb(32.548523%,45.878601%,100%);fill-opacity:1;" d="M 47.371094 81.960938 L 51.957031 81.960938 C 53.222656 81.960938 54.253906 80.929688 54.253906 79.660156 C 54.253906 78.394531 53.222656 77.363281 51.957031 77.363281 L 47.371094 77.363281 C 46.109375 77.363281 45.078125 78.394531 45.078125 79.660156 C 45.078125 80.929688 46.109375 81.960938 47.371094 81.960938 "/>
<path style=" stroke:none;fill-rule:nonzero;fill:rgb(32.548523%,45.878601%,100%);fill-opacity:1;" d="M 116.1875 77.363281 L 61.132812 77.363281 C 59.871094 77.363281 58.839844 78.394531 58.839844 79.660156 C 58.839844 80.929688 59.871094 81.960938 61.132812 81.960938 L 116.1875 81.960938 C 117.449219 81.960938 118.480469 80.929688 118.480469 79.660156 C 118.480469 78.394531 117.449219 77.363281 116.1875 77.363281 "/>
<path style=" stroke:none;fill-rule:nonzero;fill:rgb(32.548523%,45.878601%,100%);fill-opacity:1;" d="M 47.371094 68.160156 L 51.957031 68.160156 C 53.222656 68.160156 54.253906 67.128906 54.253906 65.863281 C 54.253906 64.59375 53.222656 63.5625 51.957031 63.5625 L 47.371094 63.5625 C 46.109375 63.5625 45.078125 64.59375 45.078125 65.863281 C 45.078125 67.128906 46.109375 68.160156 47.371094 68.160156 "/>
<path style=" stroke:none;fill-rule:nonzero;fill:rgb(32.548523%,45.878601%,100%);fill-opacity:1;" d="M 116.1875 63.5625 L 61.132812 63.5625 C 59.871094 63.5625 58.839844 64.59375 58.839844 65.863281 C 58.839844 67.128906 59.871094 68.160156 61.132812 68.160156 L 116.1875 68.160156 C 117.449219 68.160156 118.480469 67.128906 118.480469 65.863281 C 118.480469 64.59375 117.449219 63.5625 116.1875 63.5625 "/>
<path style=" stroke:none;fill-rule:nonzero;fill:rgb(32.548523%,45.878601%,100%);fill-opacity:1;" d="M 47.371094 54.363281 L 51.957031 54.363281 C 53.222656 54.363281 54.253906 53.328125 54.253906 52.0625 C 54.253906 50.792969 53.222656 49.761719 51.957031 49.761719 L 47.371094 49.761719 C 46.109375 49.761719 45.078125 50.792969 45.078125 52.0625 C 45.078125 53.328125 46.109375 54.363281 47.371094 54.363281 "/>
<path style=" stroke:none;fill-rule:nonzero;fill:rgb(32.548523%,45.878601%,100%);fill-opacity:1;" d="M 58.839844 52.0625 C 58.839844 53.328125 59.871094 54.363281 61.132812 54.363281 L 116.1875 54.363281 C 117.449219 54.363281 118.480469 53.328125 118.480469 52.0625 C 118.480469 50.792969 117.449219 49.761719 116.1875 49.761719 L 61.132812 49.761719 C 59.871094 49.761719 58.839844 50.792969 58.839844 52.0625 "/>
<g clip-path="url(#clip1)" clip-rule="nonzero">
<path style=" stroke:none;fill-rule:nonzero;fill:rgb(32.548523%,45.878601%,100%);fill-opacity:1;" d="M 22.136719 19.863281 L 31.3125 19.863281 L 31.3125 127.960938 C 31.3125 129.226562 32.34375 130.261719 33.609375 130.261719 L 113.894531 130.261719 L 113.894531 139.460938 L 22.136719 139.460938 Z M 35.902344 10.660156 L 95.542969 10.660156 L 95.542969 40.5625 C 95.542969 41.828125 96.574219 42.863281 97.835938 42.863281 L 127.65625 42.863281 L 127.65625 125.660156 L 35.902344 125.660156 Z M 124.414062 38.261719 L 100.128906 38.261719 L 100.128906 13.914062 Z M 19.84375 144.0625 L 116.1875 144.0625 C 117.449219 144.0625 118.480469 143.027344 118.480469 141.761719 L 118.480469 130.261719 L 129.949219 130.261719 C 131.214844 130.261719 132.246094 129.226562 132.246094 127.960938 L 132.246094 40.5625 C 132.246094 40.507812 132.21875 40.460938 132.21875 40.417969 C 132.199219 40.210938 132.164062 40.023438 132.101562 39.824219 C 132.074219 39.753906 132.054688 39.679688 132.019531 39.609375 C 131.914062 39.367188 131.769531 39.132812 131.574219 38.933594 L 99.457031 6.734375 C 99.261719 6.539062 99.027344 6.394531 98.785156 6.285156 C 98.714844 6.25 98.644531 6.230469 98.570312 6.207031 C 98.375 6.140625 98.1875 6.105469 97.980469 6.089844 C 97.925781 6.089844 97.890625 6.0625 97.835938 6.0625 L 33.609375 6.0625 C 32.34375 6.0625 31.3125 7.09375 31.3125 8.363281 L 31.3125 15.261719 L 19.84375 15.261719 C 18.582031 15.261719 17.550781 16.292969 17.550781 17.5625 L 17.550781 141.761719 C 17.550781 143.027344 18.582031 144.0625 19.84375 144.0625 "/>
</g>
<path style=" stroke:none;fill-rule:nonzero;fill:rgb(32.548523%,45.878601%,100%);fill-opacity:1;" d="M 49.664062 31.363281 L 58.839844 31.363281 L 58.839844 40.5625 L 49.664062 40.5625 Z M 47.371094 45.160156 L 61.132812 45.160156 C 62.398438 45.160156 63.429688 44.128906 63.429688 42.863281 L 63.429688 29.0625 C 63.429688 27.792969 62.398438 26.761719 61.132812 26.761719 L 47.371094 26.761719 C 46.109375 26.761719 45.078125 27.792969 45.078125 29.0625 L 45.078125 42.863281 C 45.078125 44.128906 46.109375 45.160156 47.371094 45.160156 "/>
</g>
</svg>
