<svg width="923" height="557" viewBox="0 0 923 557" fill="none" xmlns="http://www.w3.org/2000/svg">
<rect width="666" height="557" rx="100" fill="#F7A501"/>
<rect width="13.3814" height="46.5163" rx="6.6907" transform="matrix(-0.647795 -0.761815 -0.761815 0.647795 904.694 153.584)" fill="#F7A501"/>
<rect width="13.3814" height="46.5163" rx="6.6907" transform="matrix(-0.912642 -0.408759 -0.408759 0.912642 872.227 126.47)" fill="#F7A501"/>
<rect width="13.3814" height="46.5163" rx="6.6907" transform="matrix(-0.28111 -0.959676 -0.959676 0.28111 922.376 188.924)" fill="#F7A501"/>
<path fill-rule="evenodd" clip-rule="evenodd" d="M275.803 73.3118H767.064C768.364 73.3118 769.611 73.8291 770.53 74.7499C771.449 75.6708 771.965 76.9197 771.965 78.222V415.516C771.965 416.818 771.449 418.067 770.53 418.988C769.611 419.909 768.364 420.426 767.064 420.426H275.803C275.159 420.427 274.521 420.301 273.926 420.054C273.33 419.808 272.79 419.446 272.334 418.99C271.878 418.534 271.517 417.992 271.271 417.396C271.024 416.8 270.898 416.161 270.898 415.516V78.222C270.898 77.5769 271.025 76.938 271.272 76.3421C271.518 75.7461 271.88 75.2046 272.335 74.7486C272.791 74.2926 273.331 73.931 273.926 73.6844C274.521 73.4379 275.159 73.3113 275.803 73.3118Z" fill="#E6E6E6" stroke="#E6E6E6" stroke-width="2" stroke-linecap="round" stroke-linejoin="round"/>
<path fill-rule="evenodd" clip-rule="evenodd" d="M269.438 423.559L271.238 88.4094L346.483 88.7915L366.074 72.4368H437.436L451.013 89.4717L773.105 90.683L774.558 421.798L269.438 423.559Z" fill="#DCDCDC" stroke="#DCDCDC" stroke-width="2" stroke-linecap="round" stroke-linejoin="round"/>
<path fill-rule="evenodd" clip-rule="evenodd" d="M350.88 94.8557H738.378C741.86 94.8557 744.686 97.0529 744.686 99.7621V102.731C744.686 105.444 741.86 107.641 738.378 107.641H350.88C347.398 107.641 344.576 105.444 344.576 102.731V99.7621C344.576 97.0529 347.398 94.8557 350.88 94.8557Z" fill="white" stroke="white" stroke-width="2" stroke-linecap="round" stroke-linejoin="round"/>
<path fill-rule="evenodd" clip-rule="evenodd" d="M275.322 79.2385C275.296 78.8459 275.387 78.4543 275.586 78.1147C275.784 77.775 276.08 77.5031 276.435 77.3342C276.79 77.1653 277.187 77.1073 277.575 77.1678C277.963 77.2283 278.324 77.4044 278.611 77.6732C278.898 77.9421 279.097 78.2912 279.183 78.6752C279.269 79.0591 279.238 79.4602 279.094 79.8261C278.949 80.192 278.698 80.5059 278.373 80.7269C278.048 80.9479 277.664 81.0657 277.271 81.0651C276.773 81.0766 276.289 80.8917 275.925 80.5503C275.561 80.2088 275.344 79.7379 275.322 79.2385Z" fill="white" stroke="white" stroke-width="2" stroke-linecap="round" stroke-linejoin="round"/>
<path fill-rule="evenodd" clip-rule="evenodd" d="M285.436 79.3034C285.41 78.9118 285.503 78.5214 285.701 78.183C285.899 77.8445 286.195 77.5737 286.548 77.4056C286.902 77.2375 287.299 77.1799 287.686 77.2404C288.073 77.3009 288.433 77.4766 288.719 77.7447C289.005 78.0128 289.204 78.3609 289.29 78.7438C289.376 79.1267 289.345 79.5267 289.201 79.8917C289.057 80.2568 288.807 80.5701 288.483 80.7909C288.16 81.0117 287.777 81.1299 287.385 81.13C286.887 81.1414 286.403 80.9566 286.039 80.6152C285.675 80.2737 285.458 79.8028 285.436 79.3034Z" fill="white" stroke="white" stroke-width="2" stroke-linecap="round" stroke-linejoin="round"/>
<path fill-rule="evenodd" clip-rule="evenodd" d="M295.405 79.3762C295.379 78.9846 295.472 78.5942 295.67 78.2557C295.868 77.9173 296.163 77.6464 296.517 77.4783C296.871 77.3102 297.268 77.2527 297.655 77.3132C298.042 77.3736 298.402 77.5494 298.688 77.8175C298.974 78.0856 299.173 78.4337 299.259 78.8166C299.345 79.1995 299.314 79.5994 299.17 79.9645C299.026 80.3295 298.776 80.6428 298.452 80.8637C298.129 81.0845 297.746 81.2026 297.354 81.2027C296.856 81.2142 296.372 81.0294 296.008 80.6879C295.644 80.3465 295.427 79.8755 295.405 79.3762Z" fill="white" stroke="white" stroke-width="2" stroke-linecap="round" stroke-linejoin="round"/>
<path d="M429.931 79.655L435.606 85.8568" stroke="white" stroke-width="2" stroke-linecap="round" stroke-linejoin="round"/>
<path d="M429.58 85.5244L435.549 79.6091" stroke="white" stroke-width="2" stroke-linecap="round" stroke-linejoin="round"/>
<path fill-rule="evenodd" clip-rule="evenodd" d="M449.629 75.6963L455.929 83.1247H470.509L463.927 75.788L449.629 75.6963Z" fill="#DCDCDC" stroke="#DCDCDC" stroke-width="2" stroke-linecap="round" stroke-linejoin="round"/>
<path fill-rule="evenodd" clip-rule="evenodd" d="M274.907 113.935H768.59C769.889 113.936 771.135 114.454 772.053 115.375C772.971 116.295 773.487 117.544 773.487 118.845V417.725C773.487 418.369 773.361 419.008 773.115 419.603C772.869 420.199 772.509 420.74 772.054 421.196C771.599 421.652 771.059 422.014 770.465 422.261C769.87 422.508 769.233 422.635 768.59 422.635H274.907C274.263 422.635 273.626 422.508 273.031 422.261C272.437 422.014 271.897 421.653 271.441 421.197C270.986 420.741 270.625 420.199 270.379 419.604C270.133 419.008 270.006 418.369 270.006 417.725V118.845C270.006 117.543 270.522 116.294 271.441 115.373C272.361 114.452 273.607 113.935 274.907 113.935Z" fill="#C8C8C8" stroke="#C8C8C8" stroke-linecap="round" stroke-linejoin="round"/>
<path fill-rule="evenodd" clip-rule="evenodd" d="M348.927 100.542C348.942 99.9558 349.129 99.3872 349.465 98.9073C349.801 98.4273 350.271 98.0572 350.815 97.8432C351.36 97.6293 351.956 97.5811 352.527 97.7046C353.099 97.8281 353.622 98.1178 354.031 98.5375C354.439 98.9572 354.715 99.4883 354.824 100.064C354.932 100.64 354.869 101.236 354.642 101.776C354.415 102.316 354.034 102.777 353.546 103.101C353.059 103.426 352.487 103.599 351.902 103.599C351.506 103.594 351.115 103.512 350.751 103.355C350.387 103.199 350.058 102.973 349.781 102.689C349.505 102.405 349.287 102.069 349.141 101.701C348.994 101.332 348.922 100.938 348.927 100.542V100.542Z" stroke="#C8C8C8" stroke-width="2" stroke-linecap="round" stroke-linejoin="round"/>
<path d="M353.896 102.854L356.41 105.146" stroke="#C8C8C8" stroke-width="2" stroke-linecap="round" stroke-linejoin="round"/>
<path d="M752.877 97.1334L763.827 97.0723" stroke="#BEBEBE" stroke-width="2" stroke-linecap="round" stroke-linejoin="round"/>
<path d="M752.877 101.623L763.827 101.562" stroke="#BEBEBE" stroke-width="2" stroke-linecap="round" stroke-linejoin="round"/>
<path d="M752.812 106.361L763.762 106.3" stroke="#BEBEBE" stroke-width="2" stroke-linecap="round" stroke-linejoin="round"/>
<path d="M285.631 101.367L278.32 101.222L281.081 103.859L278.32 101.222L280.829 98.7039" stroke="#BEBEBE" stroke-width="2" stroke-linecap="round" stroke-linejoin="round"/>
<path d="M290.997 101.436L298.304 101.539L295.531 98.9177L298.304 101.539L295.81 104.073" stroke="#BEBEBE" stroke-width="2" stroke-linecap="round" stroke-linejoin="round"/>
<path d="M316.049 104.329C314.989 105.59 314.074 106.105 311.999 106.002C310.031 105.903 307.827 104.474 307.979 101.745C308.12 99.2999 309.665 97.1295 313.04 97.4428C315.13 97.6377 316.743 100.84 316.743 100.84C316.743 100.84 314.787 100.916 314.81 100.939C314.832 100.962 316.838 100.939 316.838 100.939L317.536 99.0783" stroke="#BEBEBE" stroke-width="2" stroke-linecap="round" stroke-linejoin="round"/>
<path fill-rule="evenodd" clip-rule="evenodd" d="M327.342 106.358V101.581L325.911 101.516L328.268 99.0783V97.4848L329.126 97.4275L329.107 98.3293L330.984 96.3538L335.602 101.627L333.966 101.589L334.191 106.384L331.853 106.312V103.912C331.863 103.767 331.841 103.622 331.791 103.487C331.74 103.351 331.661 103.227 331.56 103.124C331.458 103.021 331.336 102.94 331.201 102.888C331.067 102.835 330.922 102.812 330.778 102.819C329.965 102.762 329.74 103.966 329.74 103.966L329.672 106.308L327.342 106.358Z" fill="#BEBEBE" stroke="#BEBEBE" stroke-linecap="round" stroke-linejoin="round"/>
<path fill-rule="evenodd" clip-rule="evenodd" d="M286.447 118.142H756.988C762.648 118.142 767.236 122.831 767.236 128.616V404.645C767.236 410.43 762.659 415.119 756.988 415.119H286.447C280.787 415.119 276.199 410.43 276.199 404.645V128.616C276.199 122.831 280.787 118.142 286.447 118.142Z" fill="#35416B" stroke="#BEBEBE" stroke-width="2" stroke-linecap="round" stroke-linejoin="round"/>
<line x1="299.461" y1="157.743" x2="624.248" y2="157.743" stroke="#F7A501" stroke-width="10"/>
<line x1="299.461" y1="221.686" x2="386.441" y2="221.686" stroke="#F7A501" stroke-width="10"/>
<line x1="299.461" y1="285.628" x2="372.561" y2="285.628" stroke="white" stroke-width="10"/>
<line x1="299.461" y1="173.497" x2="462.317" y2="173.497" stroke="#F96132" stroke-width="10"/>
<line x1="299.461" y1="237.44" x2="596.488" y2="237.44" stroke="#F7A501" stroke-width="10"/>
<line x1="299.461" y1="350.497" x2="528.94" y2="350.497" stroke="white" stroke-width="10"/>
<line x1="299.461" y1="368.105" x2="596.488" y2="368.105" stroke="#F7A501" stroke-width="10"/>
<line x1="299.461" y1="386.639" x2="521.537" y2="386.639" stroke="#F96132" stroke-width="10"/>
<line x1="299.461" y1="301.382" x2="391.993" y2="301.382" stroke="white" stroke-width="10"/>
<line x1="299.461" y1="189.251" x2="484.525" y2="189.251" stroke="white" stroke-width="10"/>
<line x1="299.461" y1="253.194" x2="472.496" y2="253.194" stroke="white" stroke-width="10"/>
<line x1="299.461" y1="317.136" x2="351.279" y2="317.136" stroke="#F96132" stroke-width="10"/>
<line x1="299.461" y1="205.932" x2="539.118" y2="205.932" stroke="#F96132" stroke-width="10"/>
<line x1="299.461" y1="269.874" x2="551.148" y2="269.874" stroke="#F7A501" stroke-width="10"/>
<line x1="299.461" y1="333.817" x2="458.616" y2="333.817" stroke="#F7A501" stroke-width="10"/>
<g clip-path="url(#clip0)">
<path fill-rule="evenodd" clip-rule="evenodd" d="M686.603 193.346H827.383C830.899 193.346 834.271 194.739 836.757 197.218C839.243 199.697 840.639 203.06 840.639 206.566V507.42C840.639 510.926 839.243 514.289 836.757 516.768C834.271 519.247 830.899 520.64 827.383 520.64H686.603C683.09 520.64 679.72 519.249 677.234 516.773C674.749 514.297 673.35 510.938 673.347 507.434V206.58C673.345 204.843 673.686 203.122 674.352 201.516C675.017 199.911 675.993 198.452 677.224 197.223C678.456 195.994 679.918 195.019 681.527 194.353C683.136 193.688 684.861 193.346 686.603 193.346Z" fill="#F0F0F0" stroke="#E6E6E6" stroke-width="2" stroke-linecap="round" stroke-linejoin="round"/>
<path fill-rule="evenodd" clip-rule="evenodd" d="M740.529 497.097C740.529 488.622 747.516 481.75 756.133 481.75C764.75 481.75 771.737 488.622 771.737 497.097C771.737 505.573 764.75 512.441 756.133 512.441C747.516 512.441 740.529 505.57 740.529 497.097Z" fill="#BEBEBE"/>
<path fill-rule="evenodd" clip-rule="evenodd" d="M687.563 218.936H828.132C830.993 218.936 833.309 220.889 833.309 223.3V471.324C833.309 473.745 830.993 475.688 828.132 475.688H687.563C684.706 475.688 682.39 473.735 682.39 471.324V223.3C682.404 220.889 684.72 218.936 687.563 218.936Z" fill="#35416B" stroke="white" stroke-width="2" stroke-linecap="round" stroke-linejoin="round"/>
<path fill-rule="evenodd" clip-rule="evenodd" d="M686.631 218.59H829.269C829.862 218.594 830.449 218.716 830.995 218.947C831.541 219.178 832.036 219.514 832.452 219.936C832.867 220.358 833.195 220.858 833.417 221.407C833.638 221.955 833.749 222.542 833.742 223.134V251.144H682.157V223.134C682.151 222.542 682.262 221.955 682.483 221.407C682.705 220.858 683.033 220.358 683.448 219.936C683.864 219.514 684.359 219.178 684.905 218.947C685.451 218.716 686.037 218.594 686.631 218.59Z" fill="#BEBEBE" stroke="#C8C8C8" stroke-width="0.1" stroke-linecap="round" stroke-linejoin="round"/>
<path fill-rule="evenodd" clip-rule="evenodd" d="M744.049 205.753H776.546C776.826 205.753 777.104 205.808 777.363 205.914C777.622 206.021 777.858 206.178 778.056 206.375C778.255 206.573 778.412 206.807 778.519 207.065C778.627 207.324 778.682 207.601 778.682 207.88C778.682 208.445 778.457 208.987 778.057 209.386C777.656 209.786 777.113 210.01 776.546 210.01H744.049C743.482 210.01 742.939 209.786 742.538 209.386C742.138 208.987 741.913 208.445 741.913 207.88C741.913 207.601 741.968 207.324 742.076 207.065C742.183 206.807 742.34 206.573 742.539 206.375C742.737 206.178 742.973 206.021 743.232 205.914C743.491 205.808 743.768 205.753 744.049 205.753Z" fill="#BEBEBE" stroke="#BEBEBE" stroke-width="2" stroke-linecap="round" stroke-linejoin="round"/>
<path fill-rule="evenodd" clip-rule="evenodd" d="M729.759 208.215C729.757 207.77 729.886 207.334 730.132 206.963C730.378 206.591 730.729 206.301 731.141 206.129C731.553 205.957 732.006 205.91 732.444 205.995C732.882 206.081 733.285 206.294 733.602 206.607C733.919 206.921 734.135 207.322 734.223 207.758C734.311 208.194 734.267 208.647 734.097 209.059C733.927 209.47 733.638 209.822 733.267 210.07C732.896 210.317 732.46 210.449 732.013 210.449C731.718 210.45 731.426 210.393 731.153 210.281C730.88 210.17 730.632 210.005 730.422 209.798C730.213 209.591 730.047 209.344 729.933 209.072C729.819 208.801 729.76 208.51 729.759 208.215Z" fill="#BEBEBE" stroke="#BEBEBE" stroke-width="2" stroke-linecap="round" stroke-linejoin="round"/>
<path fill-rule="evenodd" clip-rule="evenodd" d="M706.173 229.853H805.625C805.698 229.852 805.771 229.865 805.839 229.893C805.907 229.92 805.969 229.96 806.021 230.011C806.074 230.062 806.116 230.123 806.145 230.19C806.173 230.257 806.189 230.33 806.19 230.403V240.11C806.189 240.183 806.173 240.255 806.145 240.322C806.116 240.389 806.074 240.45 806.021 240.501C805.969 240.552 805.907 240.593 805.839 240.62C805.771 240.647 805.698 240.66 805.625 240.659H706.173C706.1 240.661 706.027 240.648 705.958 240.621C705.89 240.594 705.827 240.554 705.774 240.502C705.721 240.451 705.679 240.39 705.65 240.323C705.621 240.256 705.606 240.183 705.605 240.11V230.403C705.606 230.329 705.621 230.257 705.65 230.189C705.679 230.122 705.721 230.061 705.774 230.01C705.827 229.959 705.89 229.919 705.958 229.892C706.027 229.865 706.1 229.852 706.173 229.853Z" fill="white" stroke="white" stroke-width="0.1" stroke-linecap="round" stroke-linejoin="round"/>
<path fill-rule="evenodd" clip-rule="evenodd" d="M685.202 221.228C685.202 221.091 685.243 220.958 685.319 220.844C685.395 220.73 685.503 220.642 685.63 220.589C685.757 220.537 685.896 220.523 686.031 220.55C686.165 220.577 686.289 220.642 686.386 220.739C686.483 220.836 686.549 220.959 686.576 221.093C686.602 221.227 686.589 221.367 686.536 221.493C686.484 221.619 686.395 221.727 686.281 221.803C686.167 221.879 686.033 221.92 685.896 221.92C685.712 221.92 685.535 221.847 685.405 221.717C685.275 221.588 685.202 221.412 685.202 221.228Z" fill="white" stroke="white" stroke-width="0.1" stroke-linecap="round" stroke-linejoin="round"/>
<path fill-rule="evenodd" clip-rule="evenodd" d="M687.144 221.215C687.14 221.077 687.178 220.942 687.252 220.826C687.326 220.71 687.433 220.618 687.56 220.563C687.686 220.508 687.826 220.492 687.962 220.517C688.097 220.542 688.223 220.606 688.321 220.702C688.42 220.798 688.488 220.921 688.516 221.056C688.544 221.19 688.532 221.33 688.48 221.458C688.428 221.585 688.339 221.694 688.224 221.771C688.11 221.848 687.975 221.889 687.837 221.889C687.656 221.889 687.483 221.818 687.353 221.692C687.223 221.566 687.148 221.395 687.144 221.215Z" fill="white" stroke="white" stroke-width="0.1" stroke-linecap="round" stroke-linejoin="round"/>
<path fill-rule="evenodd" clip-rule="evenodd" d="M688.968 221.215C688.964 221.077 689.002 220.942 689.076 220.826C689.15 220.71 689.257 220.618 689.384 220.563C689.51 220.508 689.65 220.492 689.786 220.517C689.921 220.542 690.046 220.606 690.145 220.702C690.244 220.798 690.312 220.921 690.34 221.056C690.368 221.19 690.355 221.33 690.303 221.458C690.252 221.585 690.163 221.694 690.048 221.771C689.934 221.848 689.799 221.889 689.661 221.889C689.48 221.889 689.306 221.818 689.177 221.692C689.047 221.566 688.972 221.395 688.968 221.215Z" fill="white" stroke="white" stroke-width="0.1" stroke-linecap="round" stroke-linejoin="round"/>
<path fill-rule="evenodd" clip-rule="evenodd" d="M690.833 221.225C690.83 221.087 690.868 220.952 690.942 220.836C691.016 220.72 691.123 220.629 691.249 220.574C691.375 220.519 691.515 220.502 691.651 220.527C691.787 220.552 691.912 220.616 692.011 220.712C692.109 220.808 692.177 220.931 692.205 221.066C692.234 221.201 692.221 221.341 692.169 221.468C692.117 221.595 692.028 221.704 691.914 221.781C691.799 221.858 691.665 221.899 691.527 221.899C691.346 221.899 691.172 221.829 691.042 221.703C690.913 221.577 690.838 221.405 690.833 221.225Z" fill="white" stroke="white" stroke-width="0.1" stroke-linecap="round" stroke-linejoin="round"/>
<path fill-rule="evenodd" clip-rule="evenodd" d="M692.744 221.284C692.74 221.146 692.777 221.01 692.85 220.894C692.924 220.777 693.031 220.686 693.157 220.63C693.284 220.575 693.424 220.558 693.559 220.582C693.695 220.606 693.821 220.671 693.92 220.766C694.019 220.862 694.087 220.985 694.116 221.12C694.144 221.255 694.132 221.395 694.08 221.523C694.028 221.65 693.939 221.759 693.825 221.836C693.71 221.913 693.575 221.954 693.437 221.955C693.257 221.955 693.084 221.885 692.954 221.759C692.825 221.634 692.749 221.463 692.744 221.284Z" fill="white" stroke="white" stroke-width="0.1" stroke-linecap="round" stroke-linejoin="round"/>
<path fill-rule="evenodd" clip-rule="evenodd" d="M696.468 220.986H696.177V221.425H696.468C696.529 221.43 696.589 221.411 696.638 221.374C696.66 221.352 696.677 221.325 696.688 221.296C696.699 221.267 696.703 221.235 696.7 221.204C696.703 221.173 696.699 221.142 696.688 221.112C696.678 221.083 696.66 221.056 696.638 221.035C696.588 221 696.528 220.983 696.468 220.986ZM696.492 221.678H696.177V222.214H695.865V220.72H696.516C696.642 220.716 696.766 220.758 696.863 220.838C696.909 220.882 696.945 220.936 696.967 220.996C696.99 221.056 696.999 221.12 696.995 221.183C697.003 221.252 696.995 221.321 696.972 221.385C696.949 221.45 696.912 221.509 696.863 221.557C696.76 221.646 696.629 221.697 696.492 221.702V221.678Z" fill="white"/>
<path fill-rule="evenodd" clip-rule="evenodd" d="M697.245 222.221V220.727H697.553V221.297H698.139V220.727H698.448V222.221H698.139V221.553H697.553V222.221H697.245Z" fill="white"/>
<path fill-rule="evenodd" clip-rule="evenodd" d="M699.814 221.474C699.823 221.335 699.785 221.198 699.707 221.083C699.67 221.041 699.624 221.006 699.573 220.983C699.522 220.96 699.466 220.948 699.41 220.948C699.354 220.948 699.298 220.96 699.247 220.983C699.196 221.006 699.15 221.041 699.114 221.083C699.041 221.2 699.003 221.335 699.003 221.472C699.003 221.609 699.041 221.744 699.114 221.861C699.15 221.905 699.195 221.94 699.246 221.964C699.297 221.988 699.353 222 699.41 222C699.467 222 699.523 221.988 699.574 221.964C699.625 221.94 699.67 221.905 699.707 221.861C699.785 221.748 699.823 221.611 699.814 221.474ZM699.901 222.089C699.762 222.201 699.589 222.262 699.41 222.262C699.231 222.262 699.058 222.201 698.919 222.089C698.84 222.008 698.779 221.912 698.74 221.806C698.7 221.7 698.683 221.587 698.691 221.474C698.682 221.36 698.698 221.246 698.737 221.139C698.777 221.033 698.839 220.935 698.919 220.855C699.058 220.743 699.231 220.682 699.41 220.682C699.589 220.682 699.762 220.743 699.901 220.855C699.981 220.936 700.042 221.033 700.081 221.14C700.12 221.247 700.135 221.36 700.126 221.474C700.134 221.586 700.118 221.699 700.079 221.805C700.04 221.911 699.979 222.008 699.901 222.089Z" fill="white"/>
<path fill-rule="evenodd" clip-rule="evenodd" d="M700.362 220.727H700.688L701.284 221.764V220.727H701.576V222.221H701.263L700.653 221.159V222.221H700.362V220.727Z" fill="white"/>
<path fill-rule="evenodd" clip-rule="evenodd" d="M702.976 221.01H702.182V221.325H702.91V221.584H702.182V221.968H703.011V222.238H701.877V220.744H702.976V221.01Z" fill="white"/>
<path fill-rule="evenodd" clip-rule="evenodd" d="M706.049 222.193C706.064 222.1 706.112 222.015 706.184 221.954C706.256 221.893 706.348 221.859 706.442 221.859C706.537 221.859 706.628 221.893 706.7 221.954C706.773 222.015 706.82 222.1 706.836 222.193C706.836 222.376 706.44 222.539 706.44 222.539C706.44 222.539 706.049 222.394 706.049 222.193Z" fill="white"/>
<path d="M705.137 221.702C705.206 221.412 705.374 221.154 705.611 220.972C705.848 220.79 706.141 220.695 706.44 220.703C706.535 220.701 706.63 220.712 706.721 220.737C706.963 220.811 707.185 220.939 707.37 221.112C707.554 221.284 707.697 221.497 707.786 221.733" stroke="white" stroke-width="0.5" stroke-linecap="round" stroke-linejoin="round"/>
<path d="M704.648 221.405C704.754 221.029 704.986 220.702 705.306 220.477C705.625 220.253 706.012 220.144 706.402 220.17C706.528 220.166 706.654 220.178 706.777 220.208C707.095 220.29 707.39 220.444 707.639 220.658C707.888 220.872 708.084 221.141 708.212 221.443" stroke="white" stroke-width="0.5" stroke-linecap="round" stroke-linejoin="round"/>
<path d="M705.594 222.027C705.641 221.832 705.751 221.658 705.908 221.532C706.065 221.407 706.26 221.338 706.461 221.335C706.667 221.346 706.864 221.424 707.02 221.559C707.176 221.694 707.282 221.877 707.321 222.079" stroke="white" stroke-width="0.5" stroke-linecap="round" stroke-linejoin="round"/>
<path fill-rule="evenodd" clip-rule="evenodd" d="M753.127 221.01V220.748C753.212 220.745 753.296 220.737 753.38 220.723C753.453 220.71 753.52 220.674 753.571 220.62C753.606 220.58 753.633 220.533 753.647 220.481C753.65 220.455 753.65 220.428 753.647 220.402H753.969V222.359H753.574V221.01H753.127Z" fill="#F0F0F0"/>
<path fill-rule="evenodd" clip-rule="evenodd" d="M754.652 221.961C754.744 221.791 754.879 221.648 755.044 221.546C755.167 221.464 755.283 221.373 755.391 221.273C755.469 221.206 755.517 221.112 755.526 221.01C755.53 220.935 755.505 220.861 755.457 220.803C755.427 220.773 755.391 220.75 755.351 220.736C755.311 220.722 755.269 220.717 755.227 220.722C755.185 220.727 755.144 220.741 755.109 220.763C755.073 220.786 755.043 220.816 755.02 220.851C754.991 220.929 754.976 221.011 754.975 221.093H754.6C754.602 220.954 754.633 220.816 754.691 220.689C754.744 220.592 754.824 220.512 754.922 220.46C755.02 220.407 755.131 220.385 755.242 220.395C755.424 220.385 755.602 220.448 755.738 220.568C755.799 220.627 755.847 220.698 755.879 220.776C755.911 220.855 755.925 220.94 755.922 221.024C755.923 221.164 755.876 221.299 755.79 221.408C755.71 221.506 755.615 221.591 755.509 221.661L755.356 221.768C755.259 221.837 755.193 221.889 755.159 221.916C755.122 221.946 755.092 221.983 755.069 222.024H755.925V222.369H754.58C754.573 222.23 754.598 222.09 754.652 221.961Z" fill="#F0F0F0"/>
<path fill-rule="evenodd" clip-rule="evenodd" d="M756.334 220.931H756.743V221.336H756.334V220.931ZM756.334 221.944H756.743V222.345H756.334V221.944Z" fill="#F0F0F0"/>
<path fill-rule="evenodd" clip-rule="evenodd" d="M757.707 222.082C757.76 222.084 757.812 222.067 757.853 222.034C757.895 222.001 757.923 221.955 757.933 221.903C758.002 221.56 758.002 221.208 757.933 220.865C757.922 220.815 757.893 220.77 757.852 220.738C757.81 220.707 757.759 220.692 757.707 220.696C757.655 220.693 757.604 220.708 757.562 220.739C757.52 220.77 757.491 220.815 757.478 220.865C757.405 221.207 757.405 221.561 757.478 221.903C757.49 221.954 757.519 222.001 757.56 222.034C757.602 222.066 757.654 222.084 757.707 222.082ZM758.401 221.391C758.415 221.648 758.362 221.904 758.248 222.134C758.195 222.223 758.117 222.295 758.025 222.341C757.932 222.388 757.828 222.407 757.725 222.397C757.621 222.407 757.516 222.388 757.423 222.341C757.33 222.295 757.252 222.223 757.198 222.134C757.084 221.904 757.031 221.648 757.045 221.391C757.031 221.132 757.084 220.874 757.198 220.64C757.252 220.552 757.33 220.48 757.423 220.433C757.516 220.387 757.621 220.368 757.725 220.378C757.828 220.367 757.932 220.387 758.025 220.433C758.117 220.48 758.195 220.552 758.248 220.64C758.356 220.874 758.402 221.131 758.383 221.387L758.401 221.391Z" fill="#F0F0F0"/>
<path fill-rule="evenodd" clip-rule="evenodd" d="M759.25 222.082C759.303 222.084 759.354 222.066 759.396 222.033C759.437 222 759.465 221.954 759.476 221.903C759.545 221.56 759.545 221.208 759.476 220.865C759.464 220.815 759.435 220.77 759.394 220.739C759.353 220.708 759.302 220.693 759.25 220.696C759.198 220.693 759.147 220.708 759.105 220.739C759.063 220.77 759.034 220.815 759.021 220.865C758.948 221.207 758.948 221.561 759.021 221.903C759.033 221.954 759.062 222.001 759.103 222.034C759.145 222.066 759.197 222.084 759.25 222.082ZM759.944 221.391C759.958 221.648 759.905 221.904 759.791 222.134C759.738 222.223 759.66 222.295 759.568 222.341C759.475 222.388 759.371 222.407 759.268 222.397C759.164 222.407 759.059 222.388 758.966 222.341C758.873 222.295 758.795 222.223 758.741 222.134C758.627 221.904 758.574 221.648 758.588 221.391C758.574 221.132 758.627 220.874 758.741 220.64C758.795 220.552 758.873 220.48 758.966 220.433C759.059 220.387 759.164 220.368 759.268 220.378C759.371 220.367 759.475 220.387 759.568 220.433C759.66 220.48 759.738 220.552 759.791 220.64C759.899 220.874 759.945 221.131 759.926 221.387L759.944 221.391Z" fill="#F0F0F0"/>
<path fill-rule="evenodd" clip-rule="evenodd" d="M761.823 220.699H761.421V221.287H761.809C761.892 221.291 761.973 221.265 762.038 221.214C762.068 221.186 762.091 221.15 762.105 221.112C762.12 221.073 762.125 221.031 762.121 220.99C762.126 220.949 762.121 220.908 762.106 220.869C762.092 220.831 762.068 220.796 762.038 220.768C761.976 220.722 761.901 220.698 761.823 220.699ZM761.858 221.629H761.421V222.345H761.005V220.353H761.875C762.049 220.344 762.219 220.399 762.354 220.509C762.417 220.57 762.467 220.645 762.498 220.727C762.529 220.81 762.541 220.898 762.534 220.986C762.544 221.077 762.533 221.17 762.502 221.256C762.471 221.342 762.42 221.42 762.354 221.484C762.21 221.587 762.035 221.638 761.858 221.629Z" fill="#F0F0F0"/>
<path fill-rule="evenodd" clip-rule="evenodd" d="M764.195 220.354H764.795V222.345H764.407V220.665L764.029 222.335H763.626L763.238 220.665C763.238 220.703 763.238 220.755 763.238 220.827V222.335H762.85V220.354H763.456L763.803 221.92L764.195 220.354Z" fill="#F0F0F0"/>
<path fill-rule="evenodd" clip-rule="evenodd" d="M824.425 221.086H830.206C830.341 221.098 830.466 221.162 830.554 221.265C830.643 221.368 830.687 221.501 830.677 221.636V223.054C830.687 223.189 830.643 223.323 830.554 223.425C830.466 223.528 830.341 223.592 830.206 223.604H824.425C824.29 223.592 824.165 223.528 824.076 223.425C823.988 223.323 823.944 223.189 823.954 223.054V222.674H823.26V221.982H823.954V221.636C823.944 221.501 823.988 221.368 824.076 221.265C824.165 221.162 824.29 221.098 824.425 221.086Z" fill="white" stroke="white" stroke-linecap="round" stroke-linejoin="round"/>
<path fill-rule="evenodd" clip-rule="evenodd" d="M826.239 221.335H829.911C830.057 221.335 830.197 221.393 830.301 221.496C830.404 221.6 830.462 221.739 830.462 221.885V222.961C830.462 223.107 830.404 223.246 830.301 223.35C830.197 223.453 830.057 223.511 829.911 223.511H826.239C826.093 223.511 825.952 223.453 825.849 223.35C825.746 223.246 825.688 223.107 825.688 222.961V221.885C825.688 221.739 825.746 221.6 825.849 221.496C825.952 221.393 826.093 221.335 826.239 221.335Z" fill="#BEBEBE"/>
<path fill-rule="evenodd" clip-rule="evenodd" d="M819.924 222.643C819.944 222.643 819.963 222.64 819.981 222.633C819.999 222.625 820.015 222.615 820.029 222.601C820.042 222.586 820.052 222.569 820.059 222.55C820.065 222.531 820.068 222.511 820.067 222.491C820.068 222.47 820.066 222.449 820.058 222.429C820.051 222.409 820.04 222.391 820.025 222.376C820.012 222.364 819.996 222.354 819.979 222.347C819.961 222.341 819.943 222.338 819.924 222.338C819.905 222.337 819.886 222.34 819.869 222.347C819.851 222.353 819.834 222.363 819.82 222.376C819.807 222.392 819.796 222.41 819.79 222.43C819.783 222.449 819.781 222.47 819.782 222.491C819.781 222.511 819.784 222.531 819.79 222.55C819.797 222.569 819.807 222.586 819.82 222.601C819.834 222.615 819.85 222.626 819.868 222.634C819.886 222.641 819.905 222.644 819.924 222.643ZM819.73 222.252C819.69 222.229 819.657 222.194 819.637 222.152C819.624 222.119 819.617 222.083 819.616 222.048C819.616 222.014 819.623 221.979 819.637 221.948C819.65 221.916 819.67 221.888 819.696 221.865C819.761 221.814 819.842 221.788 819.924 221.792C820.006 221.786 820.087 221.812 820.15 221.865C820.176 221.887 820.197 221.915 820.212 221.947C820.226 221.979 820.233 222.013 820.233 222.048C820.233 222.084 820.224 222.119 820.209 222.152C820.19 222.192 820.159 222.225 820.119 222.245C820.163 222.271 820.2 222.308 820.226 222.352C820.251 222.399 820.264 222.451 820.264 222.504C820.264 222.544 820.256 222.583 820.24 222.62C820.224 222.656 820.2 222.689 820.171 222.715C820.136 222.746 820.095 222.77 820.051 222.785C820.007 222.799 819.96 222.805 819.914 222.802C819.823 222.807 819.733 222.776 819.664 222.715C819.61 222.658 819.58 222.583 819.581 222.504C819.581 222.451 819.594 222.399 819.619 222.352C819.646 222.309 819.684 222.274 819.73 222.252ZM819.924 222.19C819.957 222.192 819.99 222.18 820.015 222.159C820.036 222.134 820.047 222.101 820.046 222.069C820.048 222.052 820.047 222.035 820.041 222.02C820.036 222.004 820.027 221.99 820.015 221.978C820.004 221.966 819.989 221.957 819.974 221.952C819.958 221.947 819.941 221.945 819.924 221.948C819.89 221.946 819.857 221.957 819.831 221.979C819.809 222.003 819.798 222.036 819.8 222.069C819.798 222.101 819.809 222.134 819.831 222.159C819.857 222.18 819.89 222.191 819.924 222.19Z" fill="white"/>
<path fill-rule="evenodd" clip-rule="evenodd" d="M820.715 222.643C820.742 222.644 820.768 222.636 820.789 222.619C820.81 222.603 820.825 222.579 820.83 222.553C820.849 222.468 820.857 222.381 820.854 222.293C820.858 222.206 820.849 222.119 820.83 222.034C820.825 222.008 820.81 221.985 820.789 221.969C820.768 221.953 820.742 221.945 820.715 221.948C820.689 221.947 820.663 221.955 820.643 221.971C820.622 221.986 820.607 222.009 820.601 222.034C820.579 222.119 820.57 222.206 820.573 222.293C820.57 222.381 820.58 222.468 820.601 222.553C820.607 222.578 820.622 222.601 820.642 222.618C820.663 222.634 820.689 222.643 820.715 222.643ZM821.062 222.297C821.07 222.426 821.044 222.555 820.986 222.67C820.959 222.715 820.92 222.751 820.873 222.774C820.826 222.798 820.774 222.807 820.722 222.802C820.67 222.807 820.618 222.797 820.571 222.774C820.525 222.751 820.486 222.715 820.459 222.67C820.402 222.554 820.376 222.426 820.382 222.297C820.376 222.168 820.403 222.04 820.459 221.923C820.486 221.879 820.525 221.844 820.572 221.821C820.618 221.797 820.67 221.787 820.722 221.792C820.774 221.787 820.826 221.797 820.873 221.82C820.919 221.843 820.958 221.879 820.986 221.923C821.034 222.04 821.052 222.168 821.038 222.293L821.062 222.297Z" fill="white"/>
<path fill-rule="evenodd" clip-rule="evenodd" d="M821.478 222.048C821.478 222.019 821.467 221.992 821.447 221.972C821.426 221.952 821.399 221.941 821.371 221.941C821.356 221.941 821.342 221.943 821.329 221.949C821.316 221.954 821.304 221.962 821.294 221.972C821.284 221.982 821.276 221.994 821.271 222.007C821.265 222.02 821.263 222.034 821.263 222.048C821.263 222.062 821.265 222.076 821.271 222.089C821.276 222.102 821.284 222.114 821.294 222.124C821.304 222.134 821.316 222.142 821.329 222.147C821.342 222.152 821.356 222.155 821.371 222.155C821.399 222.155 821.426 222.144 821.447 222.124C821.467 222.104 821.478 222.076 821.478 222.048ZM821.371 222.3C821.337 222.301 821.304 222.294 821.274 222.281C821.243 222.268 821.216 222.249 821.194 222.224C821.149 222.178 821.124 222.116 821.124 222.051C821.124 221.987 821.149 221.925 821.194 221.878C821.216 221.854 821.243 221.834 821.274 221.821C821.304 221.808 821.337 221.802 821.371 221.802C821.404 221.802 821.438 221.808 821.469 221.821C821.5 221.834 821.528 221.854 821.551 221.878C821.586 221.914 821.609 221.959 821.618 222.007C821.628 222.056 821.622 222.107 821.603 222.152C821.584 222.198 821.552 222.237 821.51 222.265C821.469 222.292 821.42 222.307 821.371 222.307V222.3ZM822.029 222.432C822.001 222.432 821.974 222.443 821.953 222.463C821.933 222.483 821.922 222.51 821.922 222.539C821.921 222.553 821.924 222.567 821.929 222.58C821.935 222.593 821.943 222.605 821.953 222.615C821.963 222.625 821.975 222.633 821.988 222.638C822.001 222.643 822.015 222.646 822.029 222.646C822.058 222.646 822.085 222.635 822.105 222.615C822.126 222.595 822.137 222.567 822.137 222.539C822.137 222.525 822.134 222.511 822.129 222.498C822.124 222.485 822.116 222.473 822.106 222.463C822.096 222.453 822.084 222.446 822.071 222.441C822.057 222.436 822.043 222.434 822.029 222.435V222.432ZM822.029 222.777C821.997 222.778 821.964 222.772 821.933 222.76C821.903 222.747 821.875 222.728 821.853 222.705C821.804 222.657 821.777 222.593 821.776 222.525C821.776 222.492 821.783 222.459 821.796 222.429C821.809 222.399 821.828 222.371 821.853 222.349C821.899 222.304 821.961 222.279 822.026 222.279C822.091 222.279 822.153 222.304 822.199 222.349C822.224 222.371 822.243 222.398 822.257 222.429C822.27 222.459 822.276 222.492 822.276 222.525C822.276 222.559 822.27 222.592 822.256 222.623C822.243 222.654 822.224 222.682 822.199 222.705C822.179 222.731 822.153 222.752 822.124 222.768C822.095 222.783 822.062 222.792 822.029 222.795V222.777ZM821.922 221.778H822.026L821.478 222.784H821.374L821.922 221.778Z" fill="white"/>
<path d="M698.521 235.88L691.877 235.749L694.384 238.138L691.877 235.749L694.155 233.473" stroke="#454545" stroke-linecap="round" stroke-linejoin="round"/>
<path fill-rule="evenodd" clip-rule="evenodd" d="M812.306 231.554H817.123C817.541 231.579 817.932 231.768 818.211 232.08C818.489 232.391 818.633 232.801 818.61 233.218V237.841C818.632 238.258 818.488 238.666 818.21 238.978C817.931 239.289 817.54 239.478 817.123 239.504H812.306C811.889 239.478 811.498 239.289 811.22 238.978C810.941 238.666 810.797 238.258 810.819 237.841V233.218C810.796 232.801 810.94 232.391 811.219 232.08C811.497 231.768 811.888 231.579 812.306 231.554Z" fill="#BEBEBE" stroke="#454545" stroke-linecap="round" stroke-linejoin="round"/>
<path fill-rule="evenodd" clip-rule="evenodd" d="M813.368 236.672C813.562 236.311 813.848 236.007 814.196 235.79C814.455 235.616 814.701 235.423 814.931 235.213C815.091 235.054 815.183 234.84 815.188 234.615C815.194 234.455 815.141 234.299 815.039 234.175C814.975 234.112 814.899 234.063 814.814 234.033C814.729 234.003 814.638 233.993 814.549 234.003C814.46 234.013 814.374 234.043 814.298 234.091C814.221 234.139 814.157 234.203 814.11 234.279C814.046 234.442 814.015 234.616 814.019 234.791H813.222C813.221 234.493 813.287 234.2 813.413 233.93C813.525 233.724 813.696 233.555 813.903 233.444C814.111 233.334 814.347 233.286 814.581 233.307C814.963 233.29 815.336 233.421 815.621 233.674C815.752 233.798 815.855 233.949 815.923 234.116C815.99 234.283 816.021 234.462 816.013 234.642C816.017 234.939 815.921 235.229 815.739 235.465C815.567 235.669 815.366 235.848 815.143 235.994L814.796 236.226C814.592 236.375 814.449 236.478 814.377 236.544C814.3 236.608 814.235 236.684 814.182 236.769H816.006V237.492H813.149C813.16 237.206 813.235 236.926 813.368 236.672Z" fill="#454545"/>
<path fill-rule="evenodd" clip-rule="evenodd" d="M824.876 232.422C824.871 232.263 824.914 232.106 824.999 231.972C825.084 231.837 825.208 231.731 825.353 231.667C825.499 231.603 825.661 231.584 825.818 231.612C825.975 231.64 826.12 231.714 826.234 231.824C826.349 231.935 826.428 232.077 826.46 232.233C826.493 232.389 826.479 232.55 826.419 232.698C826.359 232.845 826.257 232.971 826.125 233.06C825.992 233.149 825.837 233.197 825.677 233.197C825.468 233.2 825.266 233.12 825.116 232.974C824.966 232.829 824.88 232.631 824.876 232.422Z" fill="#454545"/>
<path fill-rule="evenodd" clip-rule="evenodd" d="M824.914 234.964C824.911 234.806 824.954 234.65 825.04 234.517C825.126 234.384 825.249 234.28 825.394 234.217C825.54 234.154 825.701 234.136 825.856 234.164C826.012 234.193 826.156 234.267 826.269 234.378C826.382 234.488 826.46 234.63 826.492 234.785C826.525 234.94 826.51 235.1 826.45 235.247C826.39 235.393 826.288 235.518 826.156 235.607C826.025 235.695 825.87 235.742 825.712 235.742C825.503 235.744 825.301 235.663 825.152 235.517C825.002 235.371 824.917 235.172 824.914 234.964Z" fill="#454545"/>
<path fill-rule="evenodd" clip-rule="evenodd" d="M824.952 237.564C824.949 237.406 824.993 237.251 825.078 237.118C825.164 236.985 825.287 236.88 825.432 236.817C825.578 236.754 825.739 236.736 825.895 236.765C826.05 236.794 826.194 236.868 826.307 236.979C826.421 237.089 826.498 237.231 826.531 237.385C826.563 237.54 826.548 237.701 826.488 237.847C826.428 237.994 826.326 238.119 826.195 238.207C826.063 238.295 825.908 238.342 825.75 238.342C825.541 238.344 825.339 238.263 825.19 238.118C825.041 237.972 824.955 237.773 824.952 237.564Z" fill="#454545"/>
<line x1="691.563" y1="274.169" x2="764.889" y2="274.169" stroke="#F96132" stroke-width="10"/>
<line x1="691.563" y1="321.424" x2="764.889" y2="321.424" stroke="#F96132" stroke-width="10"/>
<line x1="691.563" y1="368.678" x2="764.889" y2="368.678" stroke="#F96132" stroke-width="10"/>
<line x1="691.563" y1="415.932" x2="764.889" y2="415.932" stroke="white" stroke-width="10"/>
<line x1="691.563" y1="289.921" x2="784.381" y2="289.921" stroke="#F7A501" stroke-width="10"/>
<line x1="691.563" y1="337.175" x2="784.381" y2="337.175" stroke="#F7A501" stroke-width="10"/>
<line x1="691.563" y1="384.429" x2="784.381" y2="384.429" stroke="#F96132" stroke-width="10"/>
<line x1="691.563" y1="431.684" x2="784.381" y2="431.684" stroke="#F7A501" stroke-width="10"/>
<line x1="691.563" y1="305.672" x2="743.541" y2="305.672" stroke="#F7A501" stroke-width="10"/>
<line x1="691.563" y1="352.927" x2="743.541" y2="352.927" stroke="white" stroke-width="10"/>
<line x1="691.563" y1="400.181" x2="743.541" y2="400.181" stroke="#F7A501" stroke-width="10"/>
<line x1="691.563" y1="447.435" x2="743.541" y2="447.435" stroke="white" stroke-width="10"/>
</g>
<defs>
<clipPath id="clip0">
<rect width="168" height="328" fill="white" transform="translate(673 193)"/>
</clipPath>
</defs>
</svg>
