<svg xmlns="http://www.w3.org/2000/svg" width="621" height="413" fill="none" viewBox="0 0 621 413"><rect width="468.865" height="392.129" fill="#F7A501" rx="33.558"/><rect width="11.229" height="39.034" fill="#F7A501" rx="5.614" transform="matrix(-0.647794 -0.761816 -0.761814 0.647796 606.162 103.878)"/><rect width="11.229" height="39.034" fill="#F7A501" rx="5.614" transform="matrix(-0.912645 -0.408753 -0.408765 0.91264 578.918 81.126)"/><rect width="11.229" height="39.034" fill="#F7A501" rx="5.614" transform="matrix(-0.281112 -0.959675 -0.959676 0.281107 621 133.533)"/><g clip-path="url(#clip0)"><path fill="#E6E6E6" fill-rule="evenodd" stroke="#E6E6E6" stroke-linecap="round" stroke-linejoin="round" stroke-width="1.678" d="M78.4363 36.5195H490.672C491.763 36.5195 492.809 36.9536 493.58 37.7264C494.351 38.4991 494.784 39.5471 494.784 40.6399V323.676C494.784 324.768 494.351 325.816 493.58 326.589C492.809 327.362 491.763 327.796 490.672 327.796H78.4363C77.8959 327.797 77.3606 327.691 76.8611 327.484C76.3616 327.277 75.9077 326.974 75.5255 326.591C75.1432 326.208 74.84 325.754 74.6333 325.254C74.4266 324.753 74.3204 324.217 74.3208 323.676V40.6399C74.3208 40.0985 74.4273 39.5625 74.6341 39.0624C74.841 38.5622 75.1442 38.1079 75.5264 37.7252C75.9086 37.3426 76.3623 37.0391 76.8616 36.8323C77.3609 36.6254 77.896 36.5191 78.4363 36.5195Z" clip-rule="evenodd"/><path fill="#DCDCDC" fill-rule="evenodd" stroke="#DCDCDC" stroke-linecap="round" stroke-linejoin="round" stroke-width="1.678" d="M73.0952 330.425L74.6057 49.1884L137.746 49.509L154.186 35.7852H214.069L225.462 50.0798L495.741 51.0963L496.961 328.947L73.0952 330.425Z" clip-rule="evenodd"/><path fill="#fff" fill-rule="evenodd" stroke="#fff" stroke-linecap="round" stroke-linejoin="round" stroke-width="1.678" d="M141.436 54.5977H466.6C469.522 54.5977 471.893 56.4414 471.893 58.7148V61.2063C471.893 63.4829 469.522 65.3267 466.6 65.3267H141.436C138.515 65.3267 136.146 63.4829 136.146 61.2063V58.7148C136.146 56.4414 138.515 54.5977 141.436 54.5977Z" clip-rule="evenodd"/><path fill="#fff" fill-rule="evenodd" stroke="#fff" stroke-linecap="round" stroke-linejoin="round" stroke-width="1.678" d="M78.0331 41.4925C78.0106 41.1631 78.0876 40.8344 78.2541 40.5494C78.4206 40.2644 78.6688 40.0362 78.9665 39.8945C79.2642 39.7528 79.5976 39.7041 79.9233 39.7549C80.2489 39.8056 80.5518 39.9534 80.7925 40.179C81.0332 40.4046 81.2006 40.6976 81.2728 41.0198C81.3451 41.342 81.3188 41.6785 81.1976 41.9856C81.0763 42.2926 80.8656 42.556 80.5929 42.7414C80.3201 42.9269 79.998 43.0258 79.6684 43.0252C79.2499 43.0349 78.8443 42.8798 78.5386 42.5932C78.2329 42.3067 78.0514 41.9116 78.0331 41.4925Z" clip-rule="evenodd"/><path fill="#fff" fill-rule="evenodd" stroke="#fff" stroke-linecap="round" stroke-linejoin="round" stroke-width="1.678" d="M86.5202 41.5471C86.4984 41.2185 86.5757 40.8909 86.7421 40.6069C86.9085 40.3229 87.1563 40.0956 87.4534 39.9546C87.7504 39.8135 88.0829 39.7652 88.4076 39.816C88.7324 39.8668 89.0344 40.0142 89.2745 40.2392C89.5145 40.4642 89.6815 40.7563 89.7537 41.0776C89.8258 41.3989 89.7999 41.7345 89.6793 42.0408C89.5586 42.3472 89.3488 42.6101 89.077 42.7953C88.8053 42.9806 88.4842 43.0798 88.1555 43.0799C87.737 43.0895 87.3314 42.9344 87.0257 42.6479C86.72 42.3613 86.5385 41.9662 86.5202 41.5471Z" clip-rule="evenodd"/><path fill="#fff" fill-rule="evenodd" stroke="#fff" stroke-linecap="round" stroke-linejoin="round" stroke-width="1.678" d="M94.8855 41.6082C94.8636 41.2796 94.9409 40.952 95.1073 40.668C95.2738 40.384 95.5216 40.1567 95.8186 40.0156C96.1156 39.8746 96.4481 39.8263 96.7729 39.877C97.0976 39.9278 97.3996 40.0752 97.6397 40.3002C97.8797 40.5252 98.0467 40.8173 98.1189 41.1386C98.1911 41.4599 98.1651 41.7955 98.0445 42.1018C97.9238 42.4082 97.714 42.6711 97.4423 42.8564C97.1705 43.0417 96.8495 43.1408 96.5208 43.1409C96.1023 43.1505 95.6967 42.9954 95.3909 42.7089C95.0852 42.4224 94.9038 42.0272 94.8855 41.6082Z" clip-rule="evenodd"/><path stroke="#fff" stroke-linecap="round" stroke-linejoin="round" stroke-width="1.678" d="M207.771 41.8423L212.533 47.0465"/><path stroke="#fff" stroke-linecap="round" stroke-linejoin="round" stroke-width="1.678" d="M207.477 46.7674L212.485 41.8037"/><path fill="#DCDCDC" fill-rule="evenodd" stroke="#DCDCDC" stroke-linecap="round" stroke-linejoin="round" stroke-width="1.678" d="M224.3 38.52L229.587 44.7535H241.822L236.298 38.597L224.3 38.52Z" clip-rule="evenodd"/><path fill="#C8C8C8" fill-rule="evenodd" stroke="#C8C8C8" stroke-linecap="round" stroke-linejoin="round" stroke-width=".839" d="M77.6846 70.6074H491.953C493.043 70.6083 494.088 71.0428 494.858 71.8154C495.629 72.588 496.062 73.6356 496.062 74.7278V325.528C496.062 326.069 495.956 326.605 495.75 327.105C495.543 327.605 495.241 328.059 494.859 328.442C494.478 328.824 494.025 329.128 493.526 329.335C493.027 329.542 492.492 329.649 491.953 329.649H77.6846C77.1445 329.649 76.6098 329.542 76.1109 329.335C75.6119 329.128 75.1586 328.825 74.7767 328.442C74.3949 328.059 74.092 327.605 73.8853 327.105C73.6786 326.605 73.5723 326.07 73.5723 325.528V74.7278C73.5723 73.635 74.0055 72.587 74.7767 71.8142C75.5479 71.0415 76.5939 70.6074 77.6846 70.6074Z" clip-rule="evenodd"/><path fill-rule="evenodd" stroke="#C8C8C8" stroke-linecap="round" stroke-linejoin="round" stroke-width="1.678" d="M139.798 59.3681C139.81 58.8764 139.967 58.3993 140.249 57.9965C140.531 57.5937 140.925 57.2831 141.382 57.1036C141.839 56.9241 142.339 56.8837 142.819 56.9873C143.299 57.0909 143.738 57.334 144.08 57.6862C144.423 58.0384 144.654 58.4841 144.746 58.9674C144.837 59.4507 144.784 59.9503 144.593 60.4036C144.403 60.8569 144.083 61.2438 143.674 61.5159C143.265 61.7879 142.785 61.9332 142.294 61.9333C141.962 61.9296 141.634 61.8602 141.328 61.7291C141.023 61.5981 140.746 61.408 140.514 61.1697C140.283 60.9314 140.1 60.6496 139.977 60.3405C139.854 60.0313 139.793 59.7009 139.798 59.3681V59.3681Z" clip-rule="evenodd"/><path stroke="#C8C8C8" stroke-linecap="round" stroke-linejoin="round" stroke-width="1.678" d="M143.968 61.3086L146.077 63.2325"/><path stroke="#BEBEBE" stroke-linecap="round" stroke-linejoin="round" stroke-width="1.678" d="M478.767 56.5078L487.955 56.4565"/><path stroke="#BEBEBE" stroke-linecap="round" stroke-linejoin="round" stroke-width="1.678" d="M478.767 60.2759L487.955 60.2246"/><path stroke="#BEBEBE" stroke-linecap="round" stroke-linejoin="round" stroke-width="1.678" d="M478.713 64.252L487.901 64.2007"/><path stroke="#BEBEBE" stroke-linecap="round" stroke-linejoin="round" stroke-width="1.678" d="M86.6832 60.0611L80.5483 59.9393L82.8653 62.1517L80.5483 59.9393L82.6541 57.8262"/><path stroke="#BEBEBE" stroke-linecap="round" stroke-linejoin="round" stroke-width="1.678" d="M91.186 60.1185L97.3177 60.205L94.9911 58.0054L97.3177 60.205L95.2247 62.331"/><path stroke="#BEBEBE" stroke-linecap="round" stroke-linejoin="round" stroke-width="1.678" d="M112.208 62.5457C111.319 63.6038 110.55 64.0367 108.81 63.9501C107.158 63.8668 105.308 62.6675 105.436 60.3781C105.555 58.3259 106.851 56.5046 109.683 56.7676C111.437 56.9311 112.791 59.6181 112.791 59.6181C112.791 59.6181 111.149 59.6823 111.168 59.7015C111.187 59.7207 112.871 59.7015 112.871 59.7015L113.456 58.1399"/><path fill="#BEBEBE" fill-rule="evenodd" stroke="#BEBEBE" stroke-linecap="round" stroke-linejoin="round" stroke-width=".839" d="M121.684 64.2487V60.2405L120.484 60.186L122.462 58.1402V56.8031L123.182 56.755L123.166 57.5118L124.741 55.854L128.616 60.279L127.243 60.2469L127.432 64.2711L125.47 64.2102V62.1965C125.478 62.0751 125.46 61.9535 125.418 61.8395C125.375 61.7256 125.309 61.6219 125.224 61.5353C125.139 61.4487 125.037 61.3811 124.923 61.337C124.81 61.2929 124.689 61.2733 124.568 61.2794C123.886 61.2313 123.697 62.2414 123.697 62.2414L123.64 64.207L121.684 64.2487Z" clip-rule="evenodd"/><path fill="#35416B" fill-rule="evenodd" stroke="#BEBEBE" stroke-linecap="round" stroke-linejoin="round" stroke-width="1.678" d="M87.3681 74.1377H482.217C486.966 74.1377 490.816 78.0721 490.816 82.9267V314.552C490.816 319.407 486.976 323.341 482.217 323.341H87.3681C82.6189 323.341 78.769 319.407 78.769 314.552V82.9267C78.769 78.0721 82.6189 74.1377 87.3681 74.1377Z" clip-rule="evenodd"/><line x1="98.289" x2="370.829" y1="107.369" y2="107.369" stroke="#F7A501" stroke-width="8.391"/><line x1="98.289" x2="171.277" y1="161.026" y2="161.026" stroke="#F7A501" stroke-width="8.391"/><line x1="98.289" x2="159.63" y1="214.682" y2="214.682" stroke="#fff" stroke-width="8.391"/><line x1="98.289" x2="234.947" y1="120.589" y2="120.589" stroke="#F96132" stroke-width="8.391"/><line x1="98.289" x2="347.535" y1="174.245" y2="174.245" stroke="#F7A501" stroke-width="8.391"/><line x1="98.289" x2="290.853" y1="269.116" y2="269.116" stroke="#fff" stroke-width="8.391"/><line x1="98.289" x2="347.535" y1="283.891" y2="283.891" stroke="#F7A501" stroke-width="8.391"/><line x1="98.289" x2="284.641" y1="299.443" y2="299.443" stroke="#F96132" stroke-width="8.391"/><line x1="98.289" x2="175.936" y1="227.901" y2="227.901" stroke="#fff" stroke-width="8.391"/><line x1="98.289" x2="253.582" y1="133.808" y2="133.808" stroke="#fff" stroke-width="8.391"/><line x1="98.289" x2="243.488" y1="187.465" y2="187.465" stroke="#fff" stroke-width="8.391"/><line x1="98.289" x2="141.771" y1="241.121" y2="241.121" stroke="#F96132" stroke-width="8.391"/><line x1="98.289" x2="299.394" y1="147.806" y2="147.806" stroke="#F96132" stroke-width="8.391"/><line x1="98.289" x2="309.488" y1="201.462" y2="201.462" stroke="#F7A501" stroke-width="8.391"/><line x1="98.289" x2="231.841" y1="255.119" y2="255.119" stroke="#F7A501" stroke-width="8.391"/></g><g clip-path="url(#clip1)"><path fill="#F0F0F0" fill-rule="evenodd" stroke="#E6E6E6" stroke-linecap="round" stroke-linejoin="round" stroke-width="1.678" d="M423.154 137.244H541.288C544.238 137.244 547.068 138.413 549.154 140.493C551.24 142.574 552.412 145.396 552.412 148.338V400.796C552.412 403.738 551.24 406.559 549.154 408.64C547.068 410.72 544.238 411.889 541.288 411.889H423.154C420.206 411.889 417.378 410.722 415.292 408.644C413.207 406.566 412.033 403.747 412.03 400.807V148.349C412.029 146.892 412.315 145.448 412.874 144.1C413.432 142.753 414.251 141.529 415.284 140.497C416.317 139.466 417.544 138.648 418.894 138.09C420.245 137.531 421.692 137.244 423.154 137.244Z" clip-rule="evenodd"/><path fill="#BEBEBE" fill-rule="evenodd" d="M468.406 392.134C468.406 385.021 474.269 379.255 481.499 379.255C488.73 379.255 494.593 385.021 494.593 392.134C494.593 399.246 488.73 405.009 481.499 405.009C474.269 405.009 468.406 399.243 468.406 392.134Z" clip-rule="evenodd"/><path fill="#35416B" fill-rule="evenodd" stroke="#fff" stroke-linecap="round" stroke-linejoin="round" stroke-width="1.678" d="M423.96 158.717H541.916C544.317 158.717 546.261 160.357 546.261 162.379V370.506C546.261 372.537 544.317 374.168 541.916 374.168H423.96C421.562 374.168 419.619 372.529 419.619 370.506V162.379C419.63 160.357 421.574 158.717 423.96 158.717Z" clip-rule="evenodd"/><path fill="#BEBEBE" fill-rule="evenodd" stroke="#C8C8C8" stroke-linecap="round" stroke-linejoin="round" stroke-width=".084" d="M423.177 158.427H542.871C543.368 158.431 543.86 158.533 544.319 158.727C544.777 158.92 545.192 159.203 545.541 159.557C545.89 159.911 546.165 160.33 546.351 160.791C546.537 161.251 546.629 161.744 546.624 162.24V185.745H419.424V162.24C419.418 161.744 419.511 161.251 419.697 160.791C419.883 160.33 420.158 159.911 420.507 159.557C420.855 159.203 421.271 158.92 421.729 158.727C422.187 158.533 422.679 158.431 423.177 158.427Z" clip-rule="evenodd"/><path fill="#BEBEBE" fill-rule="evenodd" stroke="#BEBEBE" stroke-linecap="round" stroke-linejoin="round" stroke-width="1.678" d="M471.359 147.656H498.629C498.864 147.655 499.097 147.701 499.315 147.791C499.532 147.88 499.73 148.012 499.896 148.177C500.063 148.343 500.195 148.54 500.285 148.757C500.375 148.973 500.421 149.206 500.421 149.44C500.421 149.914 500.233 150.369 499.896 150.704C499.56 151.04 499.104 151.228 498.629 151.228H471.359C470.884 151.228 470.428 151.04 470.092 150.704C469.756 150.369 469.567 149.914 469.567 149.44C469.567 149.206 469.613 148.973 469.703 148.757C469.794 148.54 469.926 148.343 470.092 148.177C470.259 148.012 470.456 147.88 470.674 147.791C470.891 147.701 471.124 147.655 471.359 147.656Z" clip-rule="evenodd"/><path fill="#BEBEBE" fill-rule="evenodd" stroke="#BEBEBE" stroke-linecap="round" stroke-linejoin="round" stroke-width="1.678" d="M459.368 149.722C459.366 149.348 459.475 148.983 459.681 148.671C459.888 148.359 460.182 148.116 460.528 147.971C460.873 147.827 461.254 147.788 461.621 147.859C461.989 147.931 462.327 148.109 462.593 148.373C462.858 148.636 463.04 148.972 463.114 149.338C463.187 149.704 463.151 150.084 463.008 150.429C462.865 150.775 462.623 151.07 462.311 151.278C462 151.486 461.634 151.597 461.26 151.597C461.012 151.597 460.767 151.549 460.538 151.456C460.308 151.362 460.1 151.224 459.925 151.05C459.749 150.876 459.609 150.669 459.514 150.441C459.418 150.213 459.369 149.969 459.368 149.722Z" clip-rule="evenodd"/><path fill="#fff" fill-rule="evenodd" stroke="#fff" stroke-linecap="round" stroke-linejoin="round" stroke-width=".084" d="M439.576 167.878H523.029C523.091 167.878 523.152 167.889 523.209 167.912C523.266 167.935 523.318 167.968 523.362 168.011C523.406 168.054 523.442 168.105 523.466 168.162C523.49 168.218 523.503 168.279 523.504 168.34V176.485C523.503 176.547 523.49 176.607 523.466 176.664C523.442 176.72 523.406 176.771 523.362 176.814C523.318 176.857 523.266 176.891 523.209 176.913C523.152 176.936 523.091 176.947 523.029 176.947H439.576C439.515 176.948 439.453 176.937 439.396 176.914C439.338 176.892 439.286 176.858 439.241 176.815C439.197 176.772 439.162 176.721 439.137 176.664C439.113 176.608 439.1 176.547 439.099 176.485V168.34C439.1 168.278 439.113 168.217 439.137 168.161C439.162 168.104 439.197 168.053 439.241 168.01C439.286 167.967 439.338 167.934 439.396 167.911C439.453 167.888 439.515 167.877 439.576 167.878Z" clip-rule="evenodd"/><path fill="#fff" fill-rule="evenodd" stroke="#fff" stroke-linecap="round" stroke-linejoin="round" stroke-width=".084" d="M421.979 160.641C421.979 160.527 422.013 160.414 422.077 160.319C422.141 160.224 422.231 160.149 422.338 160.105C422.444 160.061 422.561 160.05 422.674 160.072C422.787 160.095 422.891 160.15 422.972 160.231C423.053 160.312 423.109 160.416 423.131 160.528C423.154 160.641 423.142 160.757 423.098 160.863C423.054 160.97 422.979 161.06 422.884 161.124C422.788 161.188 422.676 161.222 422.56 161.222C422.406 161.222 422.258 161.161 422.149 161.052C422.04 160.943 421.979 160.795 421.979 160.641Z" clip-rule="evenodd"/><path fill="#fff" fill-rule="evenodd" stroke="#fff" stroke-linecap="round" stroke-linejoin="round" stroke-width=".084" d="M423.608 160.63C423.605 160.514 423.637 160.401 423.699 160.303C423.761 160.206 423.851 160.129 423.957 160.083C424.063 160.037 424.181 160.023 424.294 160.044C424.408 160.065 424.513 160.119 424.596 160.199C424.679 160.28 424.736 160.383 424.76 160.496C424.783 160.609 424.773 160.727 424.729 160.834C424.685 160.941 424.611 161.032 424.515 161.096C424.419 161.161 424.306 161.195 424.19 161.195C424.038 161.195 423.892 161.136 423.784 161.031C423.675 160.925 423.612 160.781 423.608 160.63Z" clip-rule="evenodd"/><path fill="#fff" fill-rule="evenodd" stroke="#fff" stroke-linecap="round" stroke-linejoin="round" stroke-width=".084" d="M425.138 160.63C425.135 160.514 425.167 160.401 425.229 160.303C425.291 160.206 425.381 160.129 425.487 160.083C425.593 160.037 425.711 160.023 425.825 160.044C425.938 160.065 426.044 160.119 426.126 160.199C426.209 160.28 426.266 160.383 426.29 160.496C426.313 160.609 426.303 160.727 426.259 160.834C426.216 160.941 426.141 161.032 426.045 161.096C425.949 161.161 425.836 161.195 425.72 161.195C425.568 161.195 425.423 161.136 425.314 161.031C425.205 160.925 425.142 160.781 425.138 160.63Z" clip-rule="evenodd"/><path fill="#fff" fill-rule="evenodd" stroke="#fff" stroke-linecap="round" stroke-linejoin="round" stroke-width=".084" d="M426.704 160.639C426.701 160.523 426.733 160.41 426.795 160.313C426.857 160.215 426.947 160.139 427.053 160.092C427.159 160.046 427.276 160.033 427.39 160.053C427.504 160.074 427.609 160.128 427.692 160.209C427.775 160.289 427.832 160.393 427.855 160.506C427.879 160.619 427.868 160.736 427.825 160.843C427.781 160.95 427.706 161.041 427.611 161.106C427.515 161.17 427.401 161.205 427.286 161.205C427.134 161.205 426.988 161.146 426.879 161.04C426.771 160.934 426.708 160.79 426.704 160.639Z" clip-rule="evenodd"/><path fill="#fff" fill-rule="evenodd" stroke="#fff" stroke-linecap="round" stroke-linejoin="round" stroke-width=".084" d="M428.307 160.688C428.303 160.572 428.335 160.458 428.396 160.361C428.458 160.263 428.548 160.186 428.654 160.139C428.76 160.093 428.877 160.079 428.991 160.099C429.105 160.119 429.211 160.173 429.294 160.254C429.377 160.334 429.434 160.437 429.458 160.55C429.482 160.663 429.471 160.781 429.428 160.888C429.384 160.995 429.31 161.087 429.214 161.151C429.118 161.216 429.005 161.251 428.889 161.251C428.737 161.251 428.592 161.192 428.483 161.087C428.375 160.982 428.311 160.838 428.307 160.688Z" clip-rule="evenodd"/><path fill="#fff" fill-rule="evenodd" d="M431.432 160.439H431.188V160.807H431.432C431.483 160.81 431.534 160.795 431.575 160.764C431.593 160.745 431.608 160.723 431.617 160.698C431.626 160.674 431.629 160.647 431.627 160.621C431.63 160.595 431.626 160.569 431.617 160.544C431.608 160.52 431.594 160.497 431.575 160.479C431.533 160.45 431.483 160.436 431.432 160.439ZM431.452 161.019H431.188V161.469H430.926V160.215H431.473C431.579 160.212 431.682 160.247 431.764 160.314C431.802 160.351 431.832 160.397 431.851 160.447C431.87 160.497 431.878 160.55 431.874 160.604C431.881 160.661 431.874 160.719 431.855 160.773C431.836 160.828 431.805 160.877 431.764 160.917C431.677 160.992 431.567 161.035 431.452 161.039V161.019Z" clip-rule="evenodd"/><path fill="#fff" fill-rule="evenodd" d="M432.084 161.474V160.221H432.343V160.7H432.835V160.221H433.094V161.474H432.835V160.914H432.343V161.474H432.084Z" clip-rule="evenodd"/><path fill="#fff" fill-rule="evenodd" d="M434.24 160.847C434.248 160.731 434.216 160.616 434.15 160.519C434.119 160.484 434.081 160.455 434.038 160.436C433.995 160.416 433.948 160.406 433.901 160.406C433.854 160.406 433.807 160.416 433.764 160.436C433.721 160.455 433.683 160.484 433.652 160.519C433.592 160.618 433.559 160.731 433.559 160.846C433.559 160.961 433.592 161.074 433.652 161.172C433.683 161.209 433.721 161.238 433.764 161.258C433.807 161.279 433.854 161.289 433.901 161.289C433.949 161.289 433.996 161.279 434.039 161.258C434.082 161.238 434.12 161.209 434.15 161.172C434.216 161.077 434.248 160.963 434.24 160.847ZM434.313 161.364C434.196 161.458 434.051 161.509 433.901 161.509C433.751 161.509 433.606 161.458 433.489 161.364C433.423 161.296 433.372 161.215 433.338 161.126C433.305 161.037 433.291 160.942 433.297 160.847C433.29 160.752 433.303 160.656 433.337 160.567C433.37 160.477 433.422 160.396 433.489 160.328C433.606 160.234 433.751 160.183 433.901 160.183C434.051 160.183 434.196 160.234 434.313 160.328C434.38 160.396 434.432 160.477 434.464 160.567C434.497 160.657 434.51 160.752 434.502 160.847C434.508 160.942 434.495 161.037 434.462 161.126C434.43 161.215 434.379 161.296 434.313 161.364Z" clip-rule="evenodd"/><path fill="#fff" fill-rule="evenodd" d="M434.7 160.221H434.973L435.474 161.091V160.221H435.718V161.474H435.456L434.944 160.583V161.474H434.7V160.221Z" clip-rule="evenodd"/><path fill="#fff" fill-rule="evenodd" d="M436.894 160.459H436.227V160.723H436.838V160.94H436.227V161.263H436.923V161.489H435.971V160.235H436.894V160.459Z" clip-rule="evenodd"/><path fill="#fff" fill-rule="evenodd" d="M439.472 161.451C439.484 161.373 439.525 161.302 439.585 161.25C439.646 161.199 439.723 161.171 439.802 161.171C439.881 161.171 439.958 161.199 440.019 161.25C440.079 161.302 440.119 161.373 440.132 161.451C440.132 161.605 439.8 161.741 439.8 161.741C439.8 161.741 439.472 161.619 439.472 161.451Z" clip-rule="evenodd"/><path stroke="#fff" stroke-linecap="round" stroke-linejoin="round" stroke-width=".42" d="M438.707 161.039C438.765 160.795 438.906 160.579 439.105 160.426C439.304 160.274 439.55 160.194 439.801 160.2C439.88 160.198 439.96 160.208 440.036 160.229C440.239 160.291 440.425 160.398 440.58 160.543C440.735 160.688 440.855 160.867 440.93 161.065"/><path stroke="#fff" stroke-linecap="round" stroke-linejoin="round" stroke-width=".42" d="M438.296 160.79C438.385 160.475 438.58 160.2 438.848 160.012C439.116 159.823 439.441 159.732 439.768 159.754C439.874 159.75 439.98 159.761 440.082 159.786C440.349 159.855 440.597 159.984 440.806 160.163C441.015 160.343 441.179 160.568 441.287 160.821"/><path stroke="#fff" stroke-linecap="round" stroke-linejoin="round" stroke-width=".42" d="M439.09 161.312C439.129 161.148 439.222 161.002 439.354 160.897C439.486 160.792 439.649 160.733 439.818 160.731C439.991 160.74 440.156 160.806 440.287 160.919C440.417 161.032 440.506 161.186 440.539 161.355"/><path fill="#F0F0F0" fill-rule="evenodd" d="M478.977 160.458V160.238C479.048 160.236 479.119 160.229 479.189 160.218C479.25 160.206 479.306 160.176 479.349 160.131C479.379 160.097 479.401 160.058 479.413 160.014C479.416 159.992 479.416 159.97 479.413 159.948H479.684V161.59H479.352V160.458H478.977Z" clip-rule="evenodd"/><path fill="#F0F0F0" fill-rule="evenodd" d="M480.257 161.256C480.334 161.113 480.447 160.993 480.586 160.908C480.689 160.839 480.786 160.763 480.877 160.679C480.942 160.623 480.983 160.544 480.99 160.458C480.994 160.395 480.973 160.333 480.932 160.284C480.907 160.259 480.877 160.24 480.843 160.228C480.81 160.217 480.774 160.213 480.739 160.216C480.704 160.22 480.67 160.232 480.64 160.251C480.61 160.27 480.584 160.295 480.566 160.325C480.541 160.39 480.528 160.459 480.528 160.528H480.214C480.215 160.411 480.24 160.295 480.289 160.189C480.334 160.107 480.401 160.04 480.483 159.996C480.566 159.952 480.659 159.933 480.752 159.942C480.904 159.934 481.054 159.986 481.168 160.087C481.219 160.136 481.26 160.196 481.286 160.262C481.313 160.328 481.325 160.399 481.322 160.47C481.323 160.587 481.284 160.701 481.212 160.792C481.144 160.874 481.065 160.946 480.976 161.004L480.848 161.094C480.766 161.152 480.711 161.195 480.682 161.219C480.651 161.244 480.626 161.274 480.606 161.309H481.325V161.599H480.196C480.191 161.482 480.212 161.365 480.257 161.256Z" clip-rule="evenodd"/><path fill="#F0F0F0" fill-rule="evenodd" d="M481.668 160.392H482.011V160.731H481.668V160.392ZM481.668 161.242H482.011V161.578H481.668V161.242Z" clip-rule="evenodd"/><path fill="#F0F0F0" fill-rule="evenodd" d="M482.82 161.358C482.865 161.36 482.908 161.345 482.943 161.318C482.977 161.29 483.001 161.251 483.009 161.207C483.067 160.92 483.067 160.624 483.009 160.337C483 160.294 482.976 160.256 482.941 160.23C482.907 160.204 482.864 160.191 482.82 160.194C482.777 160.192 482.733 160.205 482.698 160.231C482.663 160.257 482.638 160.294 482.628 160.337C482.567 160.624 482.567 160.92 482.628 161.207C482.638 161.251 482.662 161.29 482.697 161.317C482.732 161.345 482.776 161.359 482.82 161.358ZM483.402 160.778C483.414 160.993 483.37 161.208 483.274 161.402C483.229 161.476 483.164 161.536 483.087 161.575C483.009 161.614 482.921 161.631 482.835 161.622C482.748 161.631 482.66 161.614 482.582 161.575C482.504 161.536 482.438 161.476 482.393 161.402C482.297 161.208 482.253 160.993 482.265 160.778C482.253 160.56 482.297 160.344 482.393 160.148C482.438 160.074 482.504 160.013 482.582 159.974C482.66 159.935 482.748 159.919 482.835 159.928C482.921 159.919 483.009 159.935 483.087 159.974C483.164 160.013 483.229 160.074 483.274 160.148C483.364 160.344 483.403 160.56 483.388 160.775L483.402 160.778Z" clip-rule="evenodd"/><path fill="#F0F0F0" fill-rule="evenodd" d="M484.115 161.358C484.159 161.359 484.203 161.344 484.237 161.317C484.272 161.289 484.295 161.25 484.304 161.207C484.362 160.92 484.362 160.624 484.304 160.337C484.295 160.294 484.271 160.257 484.236 160.231C484.201 160.205 484.158 160.192 484.115 160.194C484.072 160.192 484.028 160.205 483.993 160.231C483.958 160.257 483.933 160.294 483.923 160.337C483.862 160.624 483.862 160.92 483.923 161.207C483.933 161.251 483.957 161.29 483.992 161.317C484.027 161.345 484.071 161.359 484.115 161.358ZM484.697 160.778C484.709 160.993 484.665 161.208 484.569 161.402C484.524 161.476 484.459 161.536 484.381 161.575C484.304 161.614 484.216 161.631 484.13 161.622C484.043 161.631 483.955 161.614 483.877 161.575C483.799 161.536 483.733 161.476 483.687 161.402C483.592 161.208 483.548 160.993 483.559 160.778C483.548 160.56 483.592 160.344 483.687 160.148C483.733 160.074 483.799 160.013 483.877 159.974C483.955 159.935 484.043 159.919 484.13 159.928C484.216 159.919 484.304 159.935 484.381 159.974C484.459 160.013 484.524 160.074 484.569 160.148C484.659 160.344 484.698 160.56 484.683 160.775L484.697 160.778Z" clip-rule="evenodd"/><path fill="#F0F0F0" fill-rule="evenodd" d="M486.274 160.198H485.937V160.691H486.262C486.332 160.694 486.4 160.673 486.455 160.63C486.48 160.606 486.499 160.576 486.511 160.544C486.523 160.511 486.528 160.476 486.524 160.442C486.528 160.407 486.524 160.373 486.512 160.34C486.499 160.308 486.48 160.279 486.455 160.256C486.403 160.217 486.339 160.197 486.274 160.198ZM486.303 160.978H485.937V161.579H485.587V159.908H486.318C486.463 159.899 486.607 159.946 486.719 160.038C486.773 160.09 486.814 160.152 486.84 160.221C486.866 160.291 486.877 160.365 486.871 160.439C486.879 160.515 486.87 160.593 486.843 160.665C486.817 160.738 486.775 160.803 486.719 160.857C486.598 160.943 486.452 160.986 486.303 160.978Z" clip-rule="evenodd"/><path fill="#F0F0F0" fill-rule="evenodd" d="M488.264 159.907H488.768V161.579H488.442V160.168L488.125 161.57H487.787L487.461 160.168C487.461 160.2 487.461 160.244 487.461 160.305V161.57H487.135V159.907H487.644L487.935 161.222L488.264 159.907Z" clip-rule="evenodd"/><path fill="#fff" fill-rule="evenodd" stroke="#fff" stroke-linecap="round" stroke-linejoin="round" stroke-width=".839" d="M538.806 160.522H543.656C543.77 160.532 543.875 160.586 543.949 160.672C544.023 160.759 544.06 160.871 544.052 160.984V162.174C544.06 162.287 544.023 162.399 543.949 162.485C543.875 162.572 543.77 162.625 543.656 162.635H538.806C538.692 162.625 538.587 162.572 538.513 162.485C538.439 162.399 538.402 162.287 538.41 162.174V161.854H537.828V161.274H538.41V160.984C538.402 160.871 538.439 160.759 538.513 160.672C538.587 160.586 538.692 160.532 538.806 160.522Z" clip-rule="evenodd"/><path fill="#BEBEBE" fill-rule="evenodd" d="M540.328 160.731H543.409C543.532 160.731 543.65 160.78 543.736 160.867C543.823 160.953 543.872 161.07 543.872 161.193V162.095C543.872 162.218 543.823 162.335 543.736 162.422C543.65 162.508 543.532 162.557 543.409 162.557H540.328C540.205 162.557 540.087 162.508 540.001 162.422C539.914 162.335 539.865 162.218 539.865 162.095V161.193C539.865 161.07 539.914 160.953 540.001 160.867C540.087 160.78 540.205 160.731 540.328 160.731Z" clip-rule="evenodd"/><path fill="#fff" fill-rule="evenodd" d="M535.029 161.828C535.045 161.829 535.062 161.826 535.077 161.82C535.092 161.814 535.105 161.805 535.117 161.793C535.128 161.781 535.136 161.766 535.142 161.75C535.147 161.734 535.15 161.717 535.149 161.701C535.15 161.683 535.148 161.665 535.142 161.649C535.136 161.632 535.126 161.617 535.114 161.605C535.102 161.594 535.089 161.586 535.075 161.58C535.06 161.575 535.045 161.572 535.029 161.573C535.013 161.572 534.997 161.575 534.982 161.58C534.967 161.585 534.954 161.594 534.942 161.605C534.931 161.618 534.922 161.633 534.916 161.649C534.911 161.666 534.909 161.683 534.91 161.701C534.909 161.717 534.911 161.734 534.917 161.75C534.922 161.766 534.931 161.781 534.942 161.793C534.953 161.805 534.967 161.815 534.982 161.821C534.997 161.827 535.013 161.829 535.029 161.828ZM534.866 161.5C534.832 161.481 534.805 161.452 534.788 161.416C534.777 161.388 534.771 161.359 534.77 161.329C534.77 161.3 534.776 161.272 534.788 161.245C534.799 161.219 534.816 161.195 534.837 161.175C534.892 161.133 534.96 161.111 535.029 161.114C535.098 161.11 535.166 161.132 535.218 161.175C535.241 161.194 535.258 161.218 535.27 161.245C535.282 161.271 535.289 161.3 535.288 161.329C535.288 161.359 535.281 161.389 535.268 161.416C535.252 161.45 535.226 161.478 535.192 161.495C535.23 161.516 535.261 161.547 535.282 161.584C535.303 161.624 535.314 161.668 535.314 161.712C535.315 161.746 535.308 161.779 535.294 161.809C535.281 161.839 535.261 161.867 535.236 161.889C535.207 161.915 535.173 161.935 535.136 161.947C535.099 161.96 535.059 161.965 535.021 161.962C534.944 161.966 534.869 161.94 534.811 161.889C534.766 161.842 534.74 161.778 534.741 161.712C534.741 161.668 534.752 161.624 534.773 161.584C534.795 161.548 534.828 161.519 534.866 161.5ZM535.029 161.448C535.057 161.45 535.084 161.44 535.105 161.422C535.123 161.401 535.132 161.374 535.131 161.347C535.133 161.333 535.132 161.319 535.127 161.305C535.123 161.292 535.115 161.28 535.106 161.27C535.096 161.261 535.084 161.253 535.07 161.249C535.057 161.244 535.043 161.243 535.029 161.245C535.001 161.244 534.973 161.253 534.951 161.271C534.932 161.292 534.923 161.319 534.925 161.347C534.923 161.374 534.933 161.401 534.951 161.422C534.973 161.44 535.001 161.449 535.029 161.448Z" clip-rule="evenodd"/><path fill="#fff" fill-rule="evenodd" d="M535.693 161.828C535.715 161.829 535.737 161.822 535.755 161.808C535.772 161.795 535.785 161.775 535.789 161.753C535.805 161.681 535.812 161.608 535.809 161.535C535.812 161.462 535.805 161.389 535.789 161.317C535.784 161.296 535.772 161.276 535.755 161.263C535.737 161.249 535.715 161.243 535.693 161.245C535.671 161.244 535.649 161.251 535.632 161.264C535.614 161.278 535.602 161.296 535.597 161.317C535.579 161.389 535.571 161.462 535.573 161.535C535.571 161.608 535.579 161.682 535.597 161.753C535.602 161.774 535.614 161.793 535.632 161.807C535.649 161.821 535.671 161.828 535.693 161.828ZM535.984 161.538C535.99 161.646 535.968 161.754 535.92 161.851C535.897 161.889 535.864 161.919 535.825 161.939C535.786 161.958 535.742 161.966 535.699 161.962C535.655 161.966 535.611 161.958 535.572 161.938C535.533 161.919 535.5 161.889 535.477 161.851C535.43 161.754 535.408 161.646 535.413 161.538C535.408 161.43 535.43 161.322 535.477 161.225C535.5 161.188 535.533 161.158 535.572 161.138C535.611 161.119 535.655 161.111 535.699 161.114C535.742 161.11 535.786 161.118 535.825 161.138C535.864 161.157 535.897 161.187 535.92 161.225C535.96 161.323 535.975 161.43 535.963 161.535L535.984 161.538Z" clip-rule="evenodd"/><path fill="#fff" fill-rule="evenodd" d="M536.333 161.329C536.333 161.306 536.323 161.283 536.307 161.266C536.29 161.249 536.267 161.239 536.243 161.239C536.231 161.239 536.219 161.242 536.208 161.246C536.197 161.251 536.187 161.257 536.179 161.266C536.17 161.274 536.164 161.284 536.159 161.295C536.154 161.306 536.152 161.317 536.152 161.329C536.152 161.341 536.154 161.353 536.159 161.364C536.164 161.375 536.17 161.385 536.179 161.393C536.187 161.402 536.197 161.408 536.208 161.413C536.219 161.417 536.231 161.419 536.243 161.419C536.267 161.419 536.29 161.41 536.307 161.393C536.323 161.376 536.333 161.353 536.333 161.329ZM536.243 161.541C536.215 161.542 536.187 161.536 536.162 161.525C536.136 161.514 536.113 161.498 536.094 161.477C536.057 161.438 536.036 161.386 536.036 161.332C536.036 161.278 536.057 161.226 536.094 161.187C536.113 161.167 536.136 161.15 536.162 161.139C536.187 161.128 536.215 161.123 536.243 161.123C536.271 161.123 536.299 161.128 536.325 161.139C536.351 161.15 536.375 161.167 536.394 161.187C536.423 161.217 536.443 161.255 536.451 161.296C536.459 161.336 536.454 161.379 536.438 161.417C536.422 161.455 536.395 161.488 536.36 161.511C536.325 161.534 536.285 161.547 536.243 161.547V161.541ZM536.796 161.651C536.772 161.651 536.749 161.661 536.732 161.678C536.715 161.695 536.705 161.718 536.705 161.741C536.705 161.753 536.707 161.765 536.712 161.776C536.716 161.787 536.723 161.797 536.732 161.805C536.74 161.814 536.75 161.82 536.761 161.825C536.772 161.829 536.784 161.831 536.796 161.831C536.82 161.831 536.842 161.822 536.859 161.805C536.876 161.788 536.886 161.765 536.886 161.741C536.886 161.73 536.884 161.718 536.879 161.707C536.875 161.696 536.868 161.686 536.86 161.678C536.851 161.669 536.841 161.663 536.83 161.659C536.819 161.655 536.807 161.654 536.796 161.654V161.651ZM536.796 161.942C536.768 161.942 536.741 161.937 536.715 161.927C536.689 161.916 536.666 161.9 536.647 161.881C536.607 161.841 536.584 161.787 536.583 161.73C536.583 161.702 536.589 161.675 536.6 161.649C536.611 161.624 536.627 161.601 536.647 161.582C536.686 161.544 536.738 161.523 536.793 161.523C536.847 161.523 536.899 161.544 536.938 161.582C536.959 161.6 536.975 161.623 536.986 161.649C536.997 161.674 537.003 161.702 537.002 161.73C537.003 161.758 536.997 161.786 536.986 161.812C536.975 161.838 536.959 161.861 536.938 161.881C536.921 161.902 536.899 161.92 536.875 161.933C536.85 161.946 536.823 161.954 536.796 161.956V161.942ZM536.705 161.103H536.793L536.333 161.947H536.246L536.705 161.103Z" clip-rule="evenodd"/><path stroke="#454545" stroke-linecap="round" stroke-linejoin="round" stroke-width=".839" d="M433.155 172.937L427.58 172.826L429.683 174.832L427.58 172.826L429.491 170.917"/><path fill="#BEBEBE" fill-rule="evenodd" stroke="#454545" stroke-linecap="round" stroke-linejoin="round" stroke-width=".839" d="M528.636 169.306H532.678C533.029 169.327 533.357 169.486 533.591 169.747C533.825 170.009 533.945 170.352 533.926 170.702V174.582C533.945 174.931 533.824 175.274 533.59 175.536C533.356 175.797 533.029 175.956 532.678 175.977H528.636C528.286 175.956 527.958 175.797 527.724 175.536C527.491 175.274 527.37 174.931 527.388 174.582V170.702C527.369 170.352 527.49 170.009 527.724 169.747C527.957 169.486 528.286 169.327 528.636 169.306Z" clip-rule="evenodd"/><path fill="#454545" fill-rule="evenodd" d="M529.527 173.601C529.69 173.298 529.93 173.043 530.222 172.861C530.44 172.715 530.646 172.553 530.839 172.376C530.973 172.243 531.051 172.063 531.055 171.874C531.06 171.74 531.015 171.609 530.93 171.506C530.876 171.452 530.812 171.412 530.741 171.387C530.669 171.362 530.594 171.353 530.519 171.361C530.443 171.37 530.371 171.395 530.308 171.435C530.244 171.475 530.19 171.529 530.15 171.593C530.096 171.73 530.071 171.876 530.074 172.022H529.405C529.405 171.773 529.459 171.526 529.565 171.3C529.659 171.127 529.803 170.985 529.977 170.893C530.151 170.8 530.349 170.76 530.545 170.778C530.866 170.763 531.179 170.873 531.418 171.085C531.528 171.189 531.615 171.316 531.671 171.456C531.728 171.596 531.754 171.747 531.747 171.898C531.75 172.147 531.669 172.39 531.517 172.588C531.373 172.76 531.204 172.909 531.017 173.032L530.726 173.227C530.554 173.351 530.435 173.439 530.374 173.494C530.31 173.547 530.255 173.611 530.211 173.682H531.741V174.289H529.344C529.353 174.049 529.416 173.814 529.527 173.601Z" clip-rule="evenodd"/><path fill="#454545" fill-rule="evenodd" d="M539.184 170.034C539.18 169.901 539.216 169.769 539.288 169.657C539.359 169.544 539.462 169.455 539.585 169.401C539.707 169.347 539.843 169.331 539.975 169.354C540.106 169.378 540.228 169.44 540.324 169.533C540.42 169.626 540.486 169.745 540.514 169.876C540.541 170.006 540.529 170.142 540.479 170.266C540.429 170.389 540.343 170.495 540.232 170.57C540.121 170.644 539.99 170.684 539.857 170.684C539.681 170.687 539.512 170.62 539.386 170.498C539.26 170.376 539.187 170.209 539.184 170.034Z" clip-rule="evenodd"/><path fill="#454545" fill-rule="evenodd" d="M539.216 172.168C539.213 172.035 539.25 171.905 539.322 171.793C539.393 171.681 539.497 171.594 539.619 171.541C539.741 171.488 539.876 171.473 540.007 171.497C540.137 171.521 540.258 171.583 540.353 171.676C540.448 171.769 540.513 171.888 540.54 172.018C540.567 172.147 540.555 172.282 540.505 172.405C540.455 172.528 540.369 172.633 540.258 172.707C540.148 172.781 540.018 172.821 539.885 172.821C539.71 172.822 539.541 172.754 539.415 172.632C539.29 172.51 539.218 172.343 539.216 172.168Z" clip-rule="evenodd"/><path fill="#454545" fill-rule="evenodd" d="M539.248 174.349C539.245 174.217 539.282 174.086 539.354 173.975C539.426 173.863 539.529 173.775 539.651 173.723C539.773 173.67 539.908 173.654 540.039 173.679C540.17 173.703 540.29 173.765 540.385 173.858C540.48 173.951 540.546 174.069 540.573 174.199C540.6 174.329 540.587 174.464 540.537 174.587C540.487 174.71 540.401 174.815 540.291 174.889C540.18 174.963 540.05 175.002 539.917 175.002C539.742 175.004 539.573 174.936 539.448 174.814C539.322 174.691 539.251 174.524 539.248 174.349Z" clip-rule="evenodd"/><line x1="427.316" x2="488.847" y1="205.066" y2="205.066" stroke="#F96132" stroke-width="8.391"/><line x1="427.316" x2="488.847" y1="244.719" y2="244.719" stroke="#F96132" stroke-width="8.391"/><line x1="427.316" x2="488.847" y1="284.372" y2="284.372" stroke="#F96132" stroke-width="8.391"/><line x1="427.316" x2="488.847" y1="324.025" y2="324.025" stroke="#fff" stroke-width="8.391"/><line x1="427.316" x2="505.203" y1="218.284" y2="218.284" stroke="#F7A501" stroke-width="8.391"/><line x1="427.316" x2="505.203" y1="257.937" y2="257.937" stroke="#F7A501" stroke-width="8.391"/><line x1="427.316" x2="505.203" y1="297.589" y2="297.589" stroke="#F96132" stroke-width="8.391"/><line x1="427.316" x2="505.203" y1="337.242" y2="337.242" stroke="#F7A501" stroke-width="8.391"/><line x1="427.316" x2="470.933" y1="231.502" y2="231.502" stroke="#F7A501" stroke-width="8.391"/><line x1="427.316" x2="470.933" y1="271.154" y2="271.154" stroke="#fff" stroke-width="8.391"/><line x1="427.316" x2="470.933" y1="310.807" y2="310.807" stroke="#F7A501" stroke-width="8.391"/><line x1="427.316" x2="470.933" y1="350.46" y2="350.46" stroke="#fff" stroke-width="8.391"/></g><defs><clipPath id="clip0"><rect width="426.282" height="297.055" fill="#fff" transform="translate(71.8887 34.5791)"/></clipPath><clipPath id="clip1"><rect width="140.975" height="275.237" fill="#fff" transform="translate(411.739 136.954)"/></clipPath></defs></svg>