<svg fill="none" viewBox="0 0 119 119"><rect width="119" height="119" fill="#F96132" rx="8"/><path fill="#35416B" fill-rule="evenodd" d="M44.894 49.825h7.916a1.033 1.033 0 01.708.28.928.928 0 01.293.68V71.34a.929.929 0 01-.293.68 1.035 1.035 0 01-.707.28h-7.917a1.034 1.034 0 01-.707-.28.927.927 0 01-.292-.679V50.784a.928.928 0 01.292-.68 1.034 1.034 0 01.707-.281zm11.412-7.806h7.825c.262 0 .513.1.699.278a.93.93 0 01.289.67V69.9a.93.93 0 01-.29.67 1.008 1.008 0 01-.698.278h-7.825a1.023 1.023 0 01-.699-.277.915.915 0 01-.289-.67V42.967a.915.915 0 01.289-.671.99.99 0 01.699-.277zm11.453-3.442h8.064c.27 0 .529.103.72.286.19.183.298.432.298.691V70.52c0 .26-.108.508-.298.692a1.04 1.04 0 01-.72.286h-8.064a1.02 1.02 0 01-.72-.286.943.943 0 01-.298-.691V39.553c0-.259.107-.508.298-.69.191-.184.45-.287.72-.287zm11.684 3.725h7.464a.96.96 0 01.665.265c.177.17.276.4.276.64V66.76c0 .24-.1.47-.276.64a.962.962 0 01-.665.264h-7.464a.978.978 0 01-.667-.264.873.873 0 01-.276-.64V43.206a.873.873 0 01.276-.64.976.976 0 01.666-.264z" clip-rule="evenodd"/><path fill="#F7A501" fill-rule="evenodd" d="M51.74 37.71h14.089a.975.975 0 01.666.264.9.9 0 01.277.64v8.83c0 .24-.1.47-.275.639a.96.96 0 01-.665.264H51.74a.96.96 0 01-.664-.264.884.884 0 01-.275-.638v-8.832c0-.24.099-.469.275-.638a.96.96 0 01.664-.264z" clip-rule="evenodd"/><path stroke="#F7A501" stroke-linecap="round" stroke-linejoin="round" stroke-width="1.094" d="M52.74 46.617l-3.863 5.28"/><path fill="#fff" fill-rule="evenodd" d="M53.833 43.696h7.632c.241 0 .437.238.437.531 0 .294-.196.532-.437.532h-7.632c-.24 0-.436-.238-.436-.532 0-.293.195-.531.436-.531zm.07-1.994h9.678c.146 0 .287.056.391.156.104.1.162.235.162.376a.521.521 0 01-.162.376.566.566 0 01-.392.156h-9.677a.571.571 0 01-.392-.156.53.53 0 01-.163-.376c0-.141.059-.276.163-.376a.566.566 0 01.392-.156zm-.105-1.889h9.677a.57.57 0 01.392.156c.104.1.162.236.162.377a.523.523 0 01-.162.376.566.566 0 01-.392.156h-9.677a.566.566 0 01-.392-.156.522.522 0 01-.163-.376c0-.141.059-.277.163-.377a.566.566 0 01.392-.156zm9.915 4.994h4.916c.093 0 .182.036.247.099a.33.33 0 01.102.238v4.977a.33.33 0 01-.102.237.358.358 0 01-.247.1h-4.916a.36.36 0 01-.247-.1.336.336 0 01-.101-.237v-4.977a.325.325 0 01.101-.238.352.352 0 01.247-.1z" clip-rule="evenodd"/><path stroke="#F96132" stroke-linecap="round" stroke-linejoin="round" stroke-width="1.094" d="M64.67 47.688l1.101 1.035 1.89-2.091"/><path fill="#BEBEBE" fill-rule="evenodd" d="M47.595 68.731a6.63 6.63 0 0110.42 8.192l-16.342 22.2a8.131 8.131 0 01-11.118 1.907l-2.724-1.85a4.016 4.016 0 01-.821-5.902l20.585-24.547z" clip-rule="evenodd"/><path fill="#BEBEBE" fill-rule="evenodd" d="M66.552 21.57c-9.596-.193-19.116 4.04-25.073 12.133-9.531 12.946-6.329 30.865 7.152 40.019 13.481 9.153 32.14 6.076 41.67-6.872 9.53-12.948 6.327-30.863-7.155-40.016-4.858-3.311-10.639-5.145-16.594-5.265zm-.38 8.74a20.906 20.906 0 0111.347 3.6c9.22 6.26 11.411 18.511 4.893 27.363-6.518 8.851-19.275 10.958-28.491 4.698-9.217-6.26-11.411-18.503-4.897-27.362a20.218 20.218 0 017.497-6.206 21.127 21.127 0 019.655-2.092h-.003z" clip-rule="evenodd"/><path fill="#fff" fill-rule="evenodd" d="M44.394 67.176a6.434 6.434 0 1110.364 7.629L37.326 98.486a6.435 6.435 0 01-10.364-7.628l17.432-23.682z" clip-rule="evenodd"/><path fill="#fff" fill-rule="evenodd" d="M66.07 18.006c-9.595-.195-19.12 4.041-25.072 12.134-9.531 12.948-6.33 30.865 7.152 40.018 13.482 9.153 32.139 6.076 41.67-6.873 9.533-12.948 6.328-30.862-7.154-40.016-4.86-3.31-10.64-5.143-16.596-5.262zm-.378 8.741a20.918 20.918 0 0111.35 3.6c9.22 6.259 11.41 18.511 4.893 27.363-6.518 8.852-19.275 10.958-28.492 4.699C44.227 56.15 42.03 43.9 48.55 35.046a20.218 20.218 0 017.494-6.204 21.128 21.128 0 019.65-2.095h-.002z" clip-rule="evenodd"/></svg>