<svg xmlns="http://www.w3.org/2000/svg" width="209" height="183" fill="none" viewBox="0 0 209 183"><rect width="4.111" height="14.291" fill="#F7A501" rx="2.055" transform="matrix(-0.647795 -0.761815 -0.761815 0.647795 203.568 56.3613)"/><rect width="4.111" height="14.291" fill="#F7A501" rx="2.055" transform="matrix(-0.912642 -0.408759 -0.408759 0.912642 193.593 48.0312)"/><rect width="4.111" height="14.291" fill="#F7A501" rx="2.055" transform="matrix(-0.28111 -0.959676 -0.959676 0.28111 209 67.2183)"/><rect width="203" height="170" x="-75" fill="#F7A501" rx="20"/><g clip-path="url(#clip0)"><path fill="#E6E6E6" fill-rule="evenodd" stroke="#E6E6E6" stroke-linecap="round" stroke-linejoin="round" stroke-width="2" d="M12.6419 20.7837H178.975C179.415 20.7837 179.837 20.9591 180.148 21.2712C180.459 21.5834 180.634 22.0067 180.634 22.4482V136.785C180.634 137.226 180.459 137.65 180.148 137.962C179.837 138.274 179.415 138.45 178.975 138.45H12.6419C12.4239 138.45 12.2079 138.407 12.0064 138.324C11.8048 138.24 11.6217 138.117 11.4675 137.963C11.3132 137.808 11.1909 137.625 11.1075 137.423C11.0241 137.22 10.9812 137.004 10.9814 136.785V22.4482C10.9814 22.2295 11.0243 22.0129 11.1078 21.8109C11.1913 21.6089 11.3136 21.4253 11.4678 21.2708C11.622 21.1162 11.8051 20.9936 12.0066 20.91C12.208 20.8264 12.4239 20.7835 12.6419 20.7837V20.7837Z" clip-rule="evenodd"/><path fill="#DCDCDC" fill-rule="evenodd" stroke="#DCDCDC" stroke-linecap="round" stroke-linejoin="round" stroke-width=".5" d="M10.4868 139.511L11.0963 25.9013L36.5729 26.0308L43.2061 20.4868H67.3682L71.9651 26.2614L181.02 26.672L181.512 138.914L10.4868 139.511Z" clip-rule="evenodd"/><path fill="#fff" fill-rule="evenodd" stroke="#fff" stroke-linecap="round" stroke-linejoin="round" stroke-width="2" d="M38.0617 28.0864H169.262C170.441 28.0864 171.397 28.8312 171.397 29.7496V30.7561C171.397 31.6758 170.441 32.4206 169.262 32.4206H38.0617C36.8828 32.4206 35.9272 31.6758 35.9272 30.7561V29.7496C35.9272 28.8312 36.8828 28.0864 38.0617 28.0864Z" clip-rule="evenodd"/><path fill="#fff" fill-rule="evenodd" stroke="#fff" stroke-linecap="round" stroke-linejoin="round" d="M12.4792 22.7928C12.4701 22.6598 12.5012 22.527 12.5684 22.4119C12.6355 22.2967 12.7357 22.2045 12.8558 22.1473C12.9759 22.0901 13.1105 22.0704 13.2419 22.0909C13.3733 22.1114 13.4955 22.1711 13.5926 22.2622C13.6897 22.3534 13.7572 22.4717 13.7864 22.6019C13.8155 22.732 13.805 22.868 13.756 22.992C13.7071 23.1161 13.6221 23.2225 13.512 23.2974C13.402 23.3723 13.272 23.4122 13.139 23.412C12.9702 23.4159 12.8065 23.3533 12.6832 23.2375C12.5598 23.1218 12.4866 22.9621 12.4792 22.7928V22.7928Z" clip-rule="evenodd"/><path fill="#fff" fill-rule="evenodd" stroke="#fff" stroke-linecap="round" stroke-linejoin="round" d="M15.9036 22.8147C15.8948 22.6819 15.926 22.5496 15.9932 22.4349C16.0603 22.3201 16.1603 22.2283 16.2801 22.1713C16.4 22.1143 16.5341 22.0948 16.6652 22.1153C16.7962 22.1358 16.9181 22.1954 17.0149 22.2863C17.1118 22.3772 17.1791 22.4952 17.2083 22.625C17.2374 22.7548 17.2269 22.8903 17.1783 23.0141C17.1296 23.1378 17.0449 23.244 16.9353 23.3189C16.8256 23.3938 16.6961 23.4338 16.5635 23.4338C16.3946 23.4377 16.2309 23.3751 16.1076 23.2593C15.9842 23.1436 15.911 22.9839 15.9036 22.8147V22.8147Z" clip-rule="evenodd"/><path fill="#fff" fill-rule="evenodd" stroke="#fff" stroke-linecap="round" stroke-linejoin="round" d="M19.2791 22.8391C19.2703 22.7063 19.3015 22.574 19.3686 22.4593C19.4358 22.3445 19.5357 22.2527 19.6556 22.1957C19.7754 22.1388 19.9096 22.1193 20.0406 22.1398C20.1717 22.1603 20.2935 22.2198 20.3904 22.3107C20.4872 22.4016 20.5546 22.5196 20.5837 22.6494C20.6129 22.7792 20.6024 22.9148 20.5537 23.0385C20.505 23.1623 20.4204 23.2685 20.3107 23.3433C20.2011 23.4182 20.0715 23.4582 19.9389 23.4582C19.77 23.4621 19.6064 23.3995 19.483 23.2837C19.3597 23.168 19.2865 23.0084 19.2791 22.8391V22.8391Z" clip-rule="evenodd"/><path stroke="#fff" stroke-linecap="round" stroke-linejoin="round" d="M64.827 22.9336L66.7484 25.0359"/><path stroke="#fff" stroke-linecap="round" stroke-linejoin="round" d="M64.7081 24.9231L66.729 22.918"/><path fill="#DCDCDC" fill-rule="evenodd" stroke="#DCDCDC" stroke-linecap="round" stroke-linejoin="round" stroke-width="2" d="M71.4964 21.5918L73.6296 24.1099H78.566L76.3373 21.6229L71.4964 21.5918Z" clip-rule="evenodd"/><path fill="#C8C8C8" fill-rule="evenodd" stroke="#C8C8C8" stroke-linecap="round" stroke-linejoin="round" d="M12.3384 34.5542H179.491C179.931 34.5545 180.353 34.7301 180.663 35.0422C180.974 35.3543 181.149 35.7775 181.149 36.2187V137.534C181.149 137.752 181.106 137.969 181.023 138.171C180.94 138.372 180.818 138.556 180.664 138.711C180.51 138.865 180.327 138.988 180.126 139.071C179.925 139.155 179.709 139.198 179.491 139.198H12.3384C12.1205 139.198 11.9048 139.155 11.7035 139.071C11.5022 138.988 11.3192 138.865 11.1652 138.711C11.0111 138.556 10.8889 138.373 10.8055 138.171C10.7221 137.969 10.6792 137.752 10.6792 137.534V36.2187C10.6792 35.7772 10.854 35.3539 11.1652 35.0417C11.4763 34.7296 11.8984 34.5542 12.3384 34.5542Z" clip-rule="evenodd"/><path fill-rule="evenodd" stroke="#C8C8C8" stroke-linecap="round" stroke-linejoin="round" stroke-width=".5" d="M37.4006 30.0147C37.4057 29.8161 37.4691 29.6233 37.5828 29.4606C37.6965 29.2979 37.8555 29.1725 38.0399 29.0999C38.2244 29.0274 38.426 29.0111 38.6196 29.0529C38.8133 29.0948 38.9903 29.193 39.1286 29.3353C39.2669 29.4776 39.3603 29.6576 39.3971 29.8529C39.4339 30.0481 39.4125 30.2499 39.3356 30.433C39.2587 30.6161 39.1296 30.7724 38.9646 30.8823C38.7996 30.9923 38.6059 31.0509 38.4078 31.051C38.2738 31.0495 38.1414 31.0214 38.0182 30.9685C37.895 30.9156 37.7834 30.8388 37.6899 30.7425C37.5963 30.6462 37.5226 30.5324 37.473 30.4075C37.4233 30.2826 37.3987 30.1492 37.4006 30.0147V30.0147Z" clip-rule="evenodd"/><path stroke="#C8C8C8" stroke-linecap="round" stroke-linejoin="round" stroke-width=".5" d="M39.0832 30.7979L39.9342 31.575"/><path stroke="#BEBEBE" stroke-linecap="round" stroke-linejoin="round" stroke-width=".5" d="M174.171 28.8591L177.878 28.8384"/><path stroke="#BEBEBE" stroke-linecap="round" stroke-linejoin="round" stroke-width=".5" d="M174.171 30.3811L177.878 30.3604"/><path stroke="#BEBEBE" stroke-linecap="round" stroke-linejoin="round" stroke-width=".5" d="M174.149 31.987L177.856 31.9663"/><path stroke="#BEBEBE" stroke-linecap="round" stroke-linejoin="round" stroke-width=".5" d="M15.9696 30.294L13.4943 30.2447L14.4291 31.1385L13.4943 30.2447L14.3439 29.3911"/><path stroke="#BEBEBE" stroke-linecap="round" stroke-linejoin="round" stroke-width=".5" d="M17.7863 30.3175L20.2603 30.3525L19.3216 29.4639L20.2603 30.3525L19.4159 31.2113"/><path stroke="#BEBEBE" stroke-linecap="round" stroke-linejoin="round" stroke-width=".5" d="M26.2687 31.298C25.9097 31.7255 25.5998 31.9004 24.8973 31.8654C24.231 31.8317 23.4847 31.3473 23.5364 30.4224C23.5841 29.5934 24.1071 28.8576 25.2499 28.9639C25.9575 29.0299 26.5037 30.1154 26.5037 30.1154C26.5037 30.1154 25.8413 30.1413 25.849 30.1491C25.8567 30.1569 26.536 30.1491 26.536 30.1491L26.7723 29.5183"/><path fill="#BEBEBE" fill-rule="evenodd" stroke="#BEBEBE" stroke-linecap="round" stroke-linejoin="round" stroke-width=".5" d="M30.092 31.9859V30.3667L29.6078 30.3447L30.4058 29.5183V28.9781L30.6964 28.9587L30.6899 29.2644L31.3252 28.5947L32.8889 30.3823L32.335 30.3693L32.4112 31.9949L31.6196 31.9703V31.1569C31.6228 31.1078 31.6156 31.0587 31.5984 31.0127C31.5813 30.9666 31.5547 30.9247 31.5203 30.8898C31.4859 30.8548 31.4446 30.8275 31.3989 30.8097C31.3533 30.7919 31.3044 30.7839 31.2555 30.7864C30.9804 30.767 30.9042 31.175 30.9042 31.175L30.881 31.969L30.092 31.9859Z" clip-rule="evenodd"/><path fill="#35416B" fill-rule="evenodd" stroke="#BEBEBE" stroke-linecap="round" stroke-linejoin="round" stroke-width=".5" d="M16.2459 35.9805H175.563C177.479 35.9805 179.033 37.5698 179.033 39.5309V133.1C179.033 135.061 177.483 136.65 175.563 136.65H16.2459C14.3296 136.65 12.7762 135.061 12.7762 133.1V39.5309C12.7762 37.5698 14.3296 35.9805 16.2459 35.9805Z" clip-rule="evenodd"/><line x1="20.652" x2="130.619" y1="49.6" y2="49.6" stroke="#F7A501" stroke-width="3"/><line x1="20.652" x2="50.102" y1="71.275" y2="71.275" stroke="#F7A501" stroke-width="3"/><line x1="20.652" x2="45.403" y1="92.95" y2="92.95" stroke="#fff" stroke-width="3"/><line x1="20.652" x2="75.792" y1="54.94" y2="54.94" stroke="#F96132" stroke-width="3"/><line x1="20.652" x2="121.22" y1="76.615" y2="76.615" stroke="#F7A501" stroke-width="3"/><line x1="20.652" x2="98.35" y1="114.939" y2="114.939" stroke="#fff" stroke-width="3"/><line x1="20.652" x2="121.22" y1="120.909" y2="120.909" stroke="#F7A501" stroke-width="3"/><line x1="20.652" x2="95.843" y1="127.191" y2="127.191" stroke="#F96132" stroke-width="3"/><line x1="20.652" x2="51.982" y1="98.29" y2="98.29" stroke="#fff" stroke-width="3"/><line x1="20.652" x2="83.311" y1="60.28" y2="60.28" stroke="#fff" stroke-width="3"/><line x1="20.652" x2="79.239" y1="81.956" y2="81.956" stroke="#fff" stroke-width="3"/><line x1="20.652" x2="38.197" y1="103.631" y2="103.631" stroke="#F96132" stroke-width="3"/><line x1="20.652" x2="101.796" y1="65.935" y2="65.935" stroke="#F96132" stroke-width="3"/><line x1="20.652" x2="105.869" y1="87.61" y2="87.61" stroke="#F7A501" stroke-width="3"/><line x1="20.652" x2="74.539" y1="109.285" y2="109.285" stroke="#F7A501" stroke-width="3"/></g><path fill="#F0F0F0" fill-rule="evenodd" stroke="#E6E6E6" stroke-linecap="round" stroke-linejoin="round" d="M135.655 67H185.096C186.331 67 187.515 67.4883 188.388 68.3576C189.261 69.2269 189.752 70.4058 189.752 71.6352V177.118C189.752 178.347 189.261 179.526 188.388 180.395C187.515 181.264 186.331 181.753 185.096 181.753H135.655C134.422 181.753 133.238 181.265 132.365 180.397C131.492 179.529 131.001 178.351 131 177.122V71.64C130.999 71.0309 131.119 70.4276 131.353 69.8647C131.587 69.3018 131.929 68.7903 132.362 68.3593C132.794 67.9284 133.308 67.5865 133.873 67.3533C134.438 67.1201 135.044 67 135.655 67V67Z" clip-rule="evenodd"/><path fill="#BEBEBE" fill-rule="evenodd" d="M154.594 173.498C154.594 170.527 157.048 168.118 160.074 168.118C163.1 168.118 165.554 170.527 165.554 173.498C165.554 176.47 163.1 178.878 160.074 178.878C157.048 178.878 154.594 176.469 154.594 173.498Z" clip-rule="evenodd"/><path fill="#35416B" fill-rule="evenodd" d="M135.993 75.9722H185.359C186.364 75.9722 187.177 76.6572 187.177 77.5023V164.462C187.177 165.311 186.364 165.992 185.359 165.992H135.993C134.989 165.992 134.176 165.307 134.176 164.462V77.5023C134.181 76.6572 134.994 75.9722 135.993 75.9722Z" clip-rule="evenodd"/><path fill="#BEBEBE" fill-rule="evenodd" d="M135.665 75.8506H185.759C185.967 75.8522 186.173 75.8947 186.365 75.9757C186.556 76.0566 186.73 76.1745 186.876 76.3225C187.022 76.4705 187.137 76.6457 187.215 76.8381C187.293 77.0305 187.332 77.2363 187.329 77.4437V87.2645H134.094V77.4437C134.092 77.2363 134.131 77.0305 134.209 76.8381C134.287 76.6457 134.402 76.4705 134.548 76.3225C134.694 76.1745 134.867 76.0566 135.059 75.9757C135.251 75.8947 135.457 75.8522 135.665 75.8506V75.8506Z" clip-rule="evenodd"/><path fill="#BEBEBE" fill-rule="evenodd" stroke="#BEBEBE" stroke-linecap="round" stroke-linejoin="round" d="M155.83 71.3501H167.243C167.341 71.3499 167.439 71.3691 167.53 71.4065C167.621 71.4439 167.703 71.4988 167.773 71.5681C167.843 71.6373 167.898 71.7196 167.936 71.8101C167.973 71.9007 167.993 71.9977 167.993 72.0957V72.0957C167.993 72.2938 167.914 72.4838 167.773 72.6239C167.632 72.7639 167.442 72.8426 167.243 72.8426H155.83C155.631 72.8426 155.44 72.7639 155.299 72.6239C155.159 72.4838 155.08 72.2938 155.08 72.0957V72.0957C155.08 71.9977 155.099 71.9007 155.137 71.8101C155.175 71.7196 155.23 71.6373 155.3 71.5681C155.369 71.4988 155.452 71.4439 155.543 71.4065C155.634 71.3691 155.731 71.3499 155.83 71.3501V71.3501Z" clip-rule="evenodd"/><path fill="#BEBEBE" fill-rule="evenodd" stroke="#BEBEBE" stroke-linecap="round" stroke-linejoin="round" d="M150.812 72.2133C150.811 72.0573 150.856 71.9044 150.943 71.7742C151.029 71.644 151.152 71.5422 151.297 71.4818C151.441 71.4214 151.601 71.4051 151.755 71.435C151.908 71.4648 152.05 71.5395 152.161 71.6495C152.272 71.7595 152.348 71.9 152.379 72.053C152.41 72.206 152.395 72.3647 152.335 72.509C152.275 72.6532 152.174 72.7766 152.043 72.8634C151.913 72.9502 151.76 72.9966 151.603 72.9966C151.499 72.9969 151.397 72.9769 151.301 72.9377C151.205 72.8985 151.118 72.8409 151.044 72.7682C150.971 72.6955 150.913 72.609 150.873 72.5138C150.833 72.4186 150.812 72.3165 150.812 72.2133V72.2133Z" clip-rule="evenodd"/><path fill="#fff" fill-rule="evenodd" stroke="#fff" stroke-linecap="round" stroke-linejoin="round" d="M142.528 79.7998H177.455C177.48 79.7995 177.506 79.8042 177.53 79.8138C177.554 79.8233 177.576 79.8374 177.594 79.8553C177.612 79.8732 177.627 79.8945 177.637 79.9181C177.647 79.9417 177.653 79.967 177.653 79.9926V83.3959C177.653 83.4216 177.647 83.4469 177.637 83.4705C177.627 83.494 177.612 83.5154 177.594 83.5333C177.576 83.5512 177.554 83.5653 177.53 83.5748C177.506 83.5843 177.48 83.589 177.455 83.5887H142.528C142.503 83.5892 142.477 83.5846 142.453 83.5751C142.429 83.5657 142.407 83.5516 142.388 83.5337C142.37 83.5158 142.355 83.4944 142.345 83.4707C142.334 83.4471 142.329 83.4217 142.329 83.3959V79.9926C142.329 79.9669 142.334 79.9415 142.345 79.9178C142.355 79.8942 142.37 79.8728 142.388 79.8549C142.407 79.8369 142.429 79.8229 142.453 79.8134C142.477 79.804 142.503 79.7994 142.528 79.7998V79.7998Z" clip-rule="evenodd"/><path fill="#fff" fill-rule="evenodd" d="M135.163 76.7757C135.163 76.7277 135.178 76.6808 135.204 76.641C135.231 76.6011 135.269 76.57 135.314 76.5517C135.358 76.5333 135.407 76.5285 135.455 76.5379C135.502 76.5472 135.545 76.5703 135.579 76.6042C135.613 76.6381 135.636 76.6813 135.646 76.7284C135.655 76.7754 135.65 76.8242 135.632 76.8685C135.614 76.9128 135.582 76.9507 135.542 76.9773C135.502 77.004 135.455 77.0182 135.407 77.0182C135.342 77.0182 135.28 76.9926 135.235 76.9472C135.189 76.9017 135.163 76.84 135.163 76.7757Z" clip-rule="evenodd"/><path fill="#fff" fill-rule="evenodd" d="M135.845 76.771C135.844 76.7228 135.858 76.6753 135.884 76.6347C135.91 76.594 135.947 76.562 135.992 76.5427C136.036 76.5234 136.085 76.5177 136.133 76.5264C136.18 76.5351 136.224 76.5577 136.259 76.5913C136.294 76.625 136.317 76.6682 136.327 76.7154C136.337 76.7626 136.333 76.8116 136.315 76.8563C136.296 76.901 136.265 76.9392 136.225 76.9661C136.185 76.993 136.137 77.0074 136.089 77.0074C136.025 77.0075 135.964 76.9827 135.919 76.9386C135.873 76.8944 135.847 76.8343 135.845 76.771Z" clip-rule="evenodd"/><path fill="#fff" fill-rule="evenodd" d="M136.486 76.771C136.485 76.7228 136.498 76.6753 136.524 76.6347C136.55 76.594 136.588 76.562 136.632 76.5427C136.676 76.5234 136.726 76.5177 136.773 76.5264C136.821 76.5351 136.865 76.5577 136.899 76.5913C136.934 76.625 136.958 76.6682 136.968 76.7154C136.978 76.7626 136.973 76.8116 136.955 76.8563C136.937 76.901 136.906 76.9392 136.865 76.9661C136.825 76.993 136.778 77.0074 136.729 77.0074C136.666 77.0075 136.605 76.9827 136.559 76.9386C136.514 76.8944 136.488 76.8343 136.486 76.771Z" clip-rule="evenodd"/><path fill="#fff" fill-rule="evenodd" d="M137.141 76.7744C137.14 76.7262 137.153 76.6788 137.179 76.6381C137.205 76.5974 137.243 76.5654 137.287 76.5461C137.332 76.5268 137.381 76.5212 137.428 76.5298C137.476 76.5385 137.52 76.5611 137.555 76.5947C137.589 76.6284 137.613 76.6716 137.623 76.7188C137.633 76.766 137.628 76.815 137.61 76.8597C137.592 76.9044 137.561 76.9426 137.521 76.9695C137.48 76.9965 137.433 77.0108 137.385 77.0109C137.321 77.0109 137.26 76.9862 137.215 76.942C137.169 76.8978 137.143 76.8377 137.141 76.7744Z" clip-rule="evenodd"/><path fill="#fff" fill-rule="evenodd" d="M137.812 76.7952C137.811 76.7469 137.824 76.6994 137.849 76.6585C137.875 76.6177 137.913 76.5855 137.957 76.566C138.002 76.5466 138.051 76.5407 138.098 76.5492C138.146 76.5577 138.19 76.5802 138.225 76.6138C138.26 76.6474 138.284 76.6906 138.294 76.7379C138.304 76.7851 138.299 76.8342 138.281 76.8789C138.263 76.9237 138.232 76.962 138.192 76.989C138.151 77.0159 138.104 77.0304 138.056 77.0304C137.992 77.0304 137.931 77.0059 137.886 76.962C137.84 76.918 137.814 76.8582 137.812 76.7952V76.7952Z" clip-rule="evenodd"/><path fill="#fff" fill-rule="evenodd" d="M139.12 76.6911H139.018V76.8451H139.12C139.141 76.8465 139.163 76.84 139.18 76.8269C139.188 76.8192 139.194 76.8099 139.197 76.7996C139.201 76.7894 139.203 76.7784 139.202 76.7675C139.203 76.7566 139.201 76.7456 139.197 76.7353C139.194 76.725 139.188 76.7157 139.18 76.7081C139.162 76.6958 139.141 76.6899 139.12 76.6911ZM139.129 76.9336H139.018V77.1215H138.908V76.5977H139.137C139.181 76.5963 139.225 76.611 139.259 76.639C139.275 76.6546 139.287 76.6736 139.295 76.6945C139.303 76.7154 139.307 76.7379 139.305 76.7602C139.308 76.7841 139.305 76.8083 139.297 76.831C139.289 76.8537 139.276 76.8742 139.259 76.8912C139.222 76.9224 139.177 76.9404 139.129 76.9421V76.9336Z" clip-rule="evenodd"/><path fill="#fff" fill-rule="evenodd" d="M139.393 77.1239V76.6001H139.501V76.8002H139.707V76.6001H139.815V77.1239H139.707V76.8899H139.501V77.1239H139.393Z" clip-rule="evenodd"/><path fill="#fff" fill-rule="evenodd" d="M140.295 76.8622C140.298 76.8136 140.285 76.7654 140.257 76.7252C140.244 76.7103 140.228 76.6984 140.21 76.6902C140.192 76.682 140.173 76.6778 140.153 76.6778C140.133 76.6778 140.114 76.682 140.096 76.6902C140.078 76.6984 140.062 76.7103 140.049 76.7252C140.024 76.7662 140.01 76.8134 140.01 76.8616C140.01 76.9098 140.024 76.957 140.049 76.998C140.062 77.0132 140.078 77.0255 140.096 77.034C140.114 77.0424 140.133 77.0468 140.153 77.0468C140.173 77.0468 140.193 77.0424 140.211 77.034C140.229 77.0255 140.245 77.0132 140.257 76.998C140.285 76.9583 140.298 76.9104 140.295 76.8622V76.8622ZM140.325 77.078C140.277 77.1173 140.216 77.1387 140.153 77.1387C140.09 77.1387 140.03 77.1173 139.981 77.078C139.953 77.0496 139.932 77.0158 139.918 76.9786C139.904 76.9414 139.898 76.9018 139.901 76.8622C139.897 76.8224 139.903 76.7824 139.917 76.745C139.931 76.7075 139.953 76.6735 139.981 76.6452C140.03 76.6059 140.09 76.5845 140.153 76.5845C140.216 76.5845 140.277 76.6059 140.325 76.6452C140.354 76.6735 140.375 76.7076 140.389 76.7451C140.403 76.7825 140.408 76.8225 140.405 76.8622C140.407 76.9017 140.402 76.9413 140.388 76.9785C140.374 77.0157 140.353 77.0496 140.325 77.078V77.078Z" clip-rule="evenodd"/><path fill="#fff" fill-rule="evenodd" d="M140.488 76.6001H140.602L140.811 76.9638V76.6001H140.914V77.1239H140.804L140.59 76.7517V77.1239H140.488V76.6001Z" clip-rule="evenodd"/><path fill="#fff" fill-rule="evenodd" d="M141.406 76.6993H141.127V76.8096H141.383V76.9006H141.127V77.0352H141.418V77.1297H141.02V76.606H141.406V76.6993Z" clip-rule="evenodd"/><path fill="#fff" fill-rule="evenodd" d="M142.485 77.1141C142.49 77.0814 142.507 77.0517 142.532 77.0303C142.557 77.0088 142.59 76.9971 142.623 76.9971C142.656 76.9971 142.688 77.0088 142.713 77.0303C142.739 77.0517 142.756 77.0814 142.761 77.1141C142.761 77.1783 142.622 77.2353 142.622 77.2353C142.622 77.2353 142.485 77.1844 142.485 77.1141Z" clip-rule="evenodd"/><path stroke="#fff" stroke-linecap="round" stroke-linejoin="round" stroke-width=".2" d="M142.164 76.9418C142.189 76.8401 142.248 76.7498 142.331 76.686C142.414 76.6222 142.517 76.5888 142.622 76.5915C142.655 76.5908 142.689 76.5948 142.721 76.6036C142.806 76.6294 142.884 76.6743 142.948 76.7349C143.013 76.7954 143.063 76.87 143.095 76.9528"/><path fill="#F0F0F0" fill-rule="evenodd" d="M159.018 76.6997V76.6076C159.048 76.6066 159.078 76.6038 159.107 76.5991C159.133 76.5944 159.156 76.5817 159.174 76.5627C159.187 76.5488 159.196 76.5322 159.201 76.5142C159.202 76.505 159.202 76.4956 159.201 76.4863H159.314V77.1726H159.175V76.6997H159.018Z" clip-rule="evenodd"/><path fill="#F0F0F0" fill-rule="evenodd" d="M159.554 77.033C159.586 76.9732 159.633 76.923 159.691 76.8875C159.734 76.8587 159.775 76.8267 159.813 76.7917C159.84 76.7683 159.857 76.7352 159.861 76.6995C159.862 76.6731 159.853 76.6471 159.836 76.6268C159.826 76.6163 159.813 76.6083 159.799 76.6034C159.785 76.5985 159.77 76.5968 159.755 76.5984C159.741 76.6001 159.727 76.605 159.714 76.6129C159.701 76.6207 159.691 76.6313 159.683 76.6438C159.673 76.6709 159.667 76.6997 159.667 76.7286H159.535C159.536 76.6797 159.547 76.6314 159.567 76.5868C159.586 76.5527 159.614 76.5247 159.648 76.5064C159.683 76.4881 159.722 76.4802 159.761 76.4837C159.825 76.4804 159.887 76.5022 159.935 76.5444C159.956 76.565 159.973 76.5899 159.984 76.6175C159.996 76.6451 160.001 76.6747 159.999 76.7044C160 76.7532 159.984 76.8007 159.953 76.839C159.925 76.8734 159.892 76.9032 159.855 76.9275L159.801 76.9651C159.767 76.9893 159.744 77.0075 159.732 77.0172C159.719 77.0277 159.708 77.0404 159.7 77.0548H160.001V77.176H159.528C159.526 77.1271 159.535 77.0782 159.554 77.033V77.033Z" clip-rule="evenodd"/><path fill="#F0F0F0" fill-rule="evenodd" d="M160.144 76.6719H160.288V76.8137H160.144V76.6719ZM160.144 77.0271H160.288V77.1678H160.144V77.0271Z" clip-rule="evenodd"/><path fill="#F0F0F0" fill-rule="evenodd" d="M160.627 77.0752C160.645 77.0758 160.663 77.0698 160.678 77.0583C160.692 77.0467 160.702 77.0304 160.706 77.0122C160.73 76.8921 160.73 76.7685 160.706 76.6484C160.702 76.6307 160.692 76.6149 160.677 76.604C160.663 76.5931 160.645 76.5878 160.627 76.589C160.608 76.588 160.59 76.5933 160.576 76.6042C160.561 76.6151 160.551 76.6307 160.546 76.6484C160.521 76.7683 160.521 76.8923 160.546 77.0122C160.55 77.0303 160.56 77.0466 160.575 77.0581C160.59 77.0696 160.608 77.0756 160.627 77.0752V77.0752ZM160.87 76.8327C160.875 76.9228 160.857 77.0125 160.817 77.0934C160.798 77.1245 160.771 77.1497 160.738 77.166C160.706 77.1823 160.669 77.1891 160.633 77.1855C160.596 77.1891 160.56 77.1823 160.527 77.166C160.494 77.1497 160.467 77.1245 160.448 77.0934C160.408 77.0125 160.389 76.9228 160.394 76.8327C160.389 76.7419 160.408 76.6514 160.448 76.5696C160.467 76.5385 160.494 76.5134 160.527 76.4971C160.56 76.4808 160.596 76.474 160.633 76.4775C160.669 76.4739 160.706 76.4807 160.738 76.497C160.771 76.5133 160.798 76.5385 160.817 76.5696C160.854 76.6516 160.871 76.7416 160.864 76.8315L160.87 76.8327Z" clip-rule="evenodd"/><path fill="#F0F0F0" fill-rule="evenodd" d="M161.168 77.0752C161.187 77.0756 161.205 77.0695 161.22 77.058C161.234 77.0464 161.244 77.0302 161.248 77.0122C161.272 76.8921 161.272 76.7685 161.248 76.6484C161.244 76.6308 161.233 76.6152 161.219 76.6043C161.204 76.5934 161.187 76.588 161.168 76.589C161.15 76.588 161.132 76.5933 161.117 76.6042C161.103 76.6151 161.092 76.6307 161.088 76.6484C161.062 76.7683 161.062 76.8923 161.088 77.0122C161.092 77.0303 161.102 77.0466 161.117 77.0581C161.132 77.0696 161.15 77.0756 161.168 77.0752V77.0752ZM161.412 76.8327C161.417 76.9228 161.398 77.0125 161.358 77.0934C161.34 77.1245 161.312 77.1497 161.28 77.166C161.247 77.1823 161.211 77.1891 161.175 77.1855C161.138 77.1891 161.101 77.1823 161.069 77.166C161.036 77.1497 161.009 77.1245 160.989 77.0934C160.949 77.0125 160.931 76.9228 160.936 76.8327C160.931 76.7419 160.949 76.6514 160.989 76.5696C161.009 76.5385 161.036 76.5134 161.069 76.4971C161.101 76.4808 161.138 76.474 161.175 76.4775C161.211 76.4739 161.247 76.4807 161.28 76.497C161.312 76.5133 161.34 76.5385 161.358 76.5696C161.396 76.6516 161.412 76.7416 161.406 76.8315L161.412 76.8327Z" clip-rule="evenodd"/><path fill="#F0F0F0" fill-rule="evenodd" d="M162.072 76.5904H161.931V76.7965H162.067C162.096 76.7978 162.125 76.7888 162.148 76.771C162.158 76.7609 162.166 76.7486 162.171 76.7349C162.176 76.7213 162.178 76.7067 162.177 76.6922C162.178 76.6779 162.177 76.6634 162.171 76.65C162.166 76.6365 162.158 76.6244 162.148 76.6146C162.126 76.5984 162.099 76.5898 162.072 76.5904V76.5904ZM162.084 76.9165H161.931V77.1675H161.785V76.4691H162.09C162.151 76.4657 162.211 76.4852 162.258 76.5237C162.281 76.5452 162.298 76.5713 162.309 76.6002C162.32 76.6292 162.324 76.6602 162.322 76.691C162.325 76.723 162.321 76.7553 162.31 76.7856C162.299 76.8159 162.282 76.8432 162.258 76.8656C162.208 76.9017 162.146 76.9196 162.084 76.9165V76.9165Z" clip-rule="evenodd"/><path fill="#F0F0F0" fill-rule="evenodd" d="M162.905 76.4692H163.116V77.1676H162.979V76.5784L162.847 77.164H162.705L162.569 76.5784C162.569 76.5917 162.569 76.6099 162.569 76.6353V77.164H162.433V76.4692H162.646L162.767 77.0185L162.905 76.4692Z" clip-rule="evenodd"/><path fill="#fff" fill-rule="evenodd" stroke="#fff" stroke-linecap="round" stroke-linejoin="round" stroke-width=".2" d="M184.057 76.7261H186.087C186.135 76.7301 186.179 76.7526 186.21 76.7887C186.241 76.8247 186.256 76.8715 186.253 76.9189V77.416C186.256 77.4633 186.241 77.5101 186.21 77.5462C186.179 77.5822 186.135 77.6047 186.087 77.6087H184.057C184.01 77.6047 183.966 77.5822 183.935 77.5462C183.904 77.5101 183.888 77.4633 183.892 77.416V77.2826H183.648V77.0401H183.892V76.9189C183.888 76.8715 183.904 76.8247 183.935 76.7887C183.966 76.7526 184.01 76.7301 184.057 76.7261Z" clip-rule="evenodd"/><path fill="#BEBEBE" fill-rule="evenodd" d="M184.694 76.8135H185.984C186.035 76.8135 186.084 76.8338 186.121 76.8699C186.157 76.9061 186.177 76.9551 186.177 77.0063V77.3833C186.177 77.4345 186.157 77.4835 186.121 77.5196C186.084 77.5558 186.035 77.5761 185.984 77.5761H184.694C184.643 77.5761 184.594 77.5558 184.557 77.5196C184.521 77.4835 184.501 77.4345 184.501 77.3833V77.0063C184.501 76.9551 184.521 76.9061 184.557 76.8699C184.594 76.8338 184.643 76.8135 184.694 76.8135V76.8135Z" clip-rule="evenodd"/><path fill="#fff" fill-rule="evenodd" d="M182.477 77.2722C182.483 77.2723 182.49 77.2711 182.496 77.2686C182.503 77.2661 182.508 77.2624 182.513 77.2576C182.518 77.2523 182.522 77.2462 182.524 77.2395C182.526 77.2329 182.527 77.2258 182.527 77.2188C182.527 77.2115 182.526 77.2041 182.524 77.1972C182.521 77.1903 182.517 77.184 182.512 77.1788C182.507 77.1743 182.502 77.1709 182.496 77.1686C182.49 77.1663 182.483 77.1652 182.477 77.1655C182.47 77.1651 182.463 77.1661 182.457 77.1684C182.451 77.1707 182.445 77.1742 182.44 77.1788C182.435 77.1842 182.432 77.1906 182.429 77.1975C182.427 77.2043 182.426 77.2116 182.427 77.2188C182.426 77.2258 182.427 77.2329 182.43 77.2395C182.432 77.2462 182.435 77.2523 182.44 77.2576C182.445 77.2626 182.45 77.2664 182.457 77.2689C182.463 77.2714 182.47 77.2725 182.477 77.2722ZM182.409 77.1351C182.394 77.1271 182.383 77.1148 182.376 77.1C182.371 77.0884 182.369 77.0761 182.368 77.0636C182.368 77.0516 182.371 77.0396 182.376 77.0286C182.38 77.0175 182.387 77.0076 182.396 76.9994C182.419 76.9816 182.448 76.9726 182.477 76.9739C182.505 76.9719 182.534 76.9811 182.556 76.9994C182.565 77.0073 182.573 77.0172 182.578 77.0283C182.583 77.0394 182.585 77.0514 182.585 77.0636C182.585 77.0762 182.582 77.0886 182.577 77.1C182.57 77.1142 182.559 77.1258 182.545 77.1327C182.561 77.1417 182.574 77.1547 182.583 77.1703C182.591 77.1867 182.596 77.205 182.596 77.2237C182.596 77.2376 182.593 77.2514 182.588 77.2641C182.582 77.2769 182.574 77.2883 182.563 77.2976C182.551 77.3084 182.537 77.3167 182.521 77.3219C182.506 77.3271 182.489 77.3291 182.473 77.3279C182.441 77.3297 182.409 77.3188 182.385 77.2976C182.366 77.2777 182.356 77.2512 182.356 77.2237C182.356 77.205 182.361 77.1867 182.37 77.1703C182.379 77.155 182.392 77.1428 182.409 77.1351V77.1351ZM182.477 77.1133C182.488 77.114 182.5 77.1101 182.508 77.1024C182.516 77.0937 182.52 77.0824 182.519 77.0709C182.52 77.0651 182.52 77.0593 182.518 77.0537C182.516 77.0482 182.513 77.0432 182.509 77.0391C182.505 77.035 182.499 77.0319 182.494 77.03C182.488 77.0282 182.482 77.0276 182.477 77.0285C182.465 77.028 182.453 77.0318 182.444 77.0394C182.436 77.048 182.432 77.0593 182.433 77.0709C182.432 77.0824 182.436 77.0937 182.444 77.1024C182.453 77.1099 182.465 77.1138 182.477 77.1133Z" clip-rule="evenodd"/><path fill="#fff" fill-rule="evenodd" d="M182.754 77.2719C182.764 77.2723 182.773 77.2694 182.78 77.2636C182.788 77.2578 182.793 77.2495 182.795 77.2403C182.801 77.2105 182.804 77.18 182.803 77.1494C182.804 77.1188 182.802 77.0882 182.795 77.0585C182.793 77.0494 182.788 77.0412 182.78 77.0357C182.773 77.0301 182.764 77.0274 182.754 77.0282C182.745 77.0279 182.736 77.0307 182.729 77.0363C182.722 77.0418 182.716 77.0496 182.714 77.0585C182.707 77.0882 182.703 77.1188 182.704 77.1494C182.704 77.18 182.707 77.2106 182.714 77.2403C182.716 77.2493 182.722 77.2573 182.729 77.263C182.736 77.2687 182.745 77.2718 182.754 77.2719V77.2719ZM182.876 77.1506C182.879 77.1958 182.87 77.241 182.849 77.2816C182.84 77.2972 182.826 77.3099 182.81 77.318C182.793 77.3262 182.775 77.3295 182.757 77.3276C182.739 77.3294 182.72 77.326 182.704 77.3178C182.688 77.3097 182.674 77.2971 182.664 77.2816C182.644 77.2408 182.635 77.1958 182.637 77.1506C182.635 77.1054 182.645 77.0604 182.664 77.0197C182.674 77.0042 182.688 76.9917 182.704 76.9836C182.72 76.9754 182.739 76.972 182.757 76.9736C182.775 76.9718 182.793 76.9752 182.81 76.9834C182.826 76.9915 182.84 77.0041 182.849 77.0197C182.866 77.0607 182.873 77.1053 182.868 77.1494L182.876 77.1506Z" clip-rule="evenodd"/><path fill="#fff" fill-rule="evenodd" d="M183.022 77.0633C183.022 77.0534 183.018 77.0438 183.011 77.0367C183.004 77.0297 182.995 77.0257 182.985 77.0257C182.98 77.0257 182.975 77.0267 182.97 77.0285C182.965 77.0304 182.961 77.0332 182.958 77.0366C182.954 77.0401 182.951 77.0443 182.949 77.0489C182.948 77.0535 182.947 77.0584 182.947 77.0633C182.947 77.0683 182.948 77.0732 182.949 77.0778C182.951 77.0823 182.954 77.0865 182.958 77.09C182.961 77.0935 182.965 77.0962 182.97 77.0981C182.975 77.1 182.98 77.1009 182.985 77.1009C182.995 77.1009 183.004 77.0969 183.011 77.0899C183.018 77.0828 183.022 77.0733 183.022 77.0633V77.0633ZM182.985 77.1518C182.973 77.1521 182.961 77.1498 182.951 77.1452C182.94 77.1406 182.93 77.1338 182.922 77.1252C182.907 77.1089 182.898 77.0871 182.898 77.0645C182.898 77.0419 182.907 77.0202 182.922 77.0039C182.93 76.9953 182.94 76.9885 182.951 76.9839C182.961 76.9793 182.973 76.977 182.985 76.9772C182.996 76.9771 183.008 76.9793 183.019 76.9839C183.03 76.9885 183.04 76.9953 183.048 77.0039C183.06 77.0164 183.068 77.0321 183.072 77.0492C183.075 77.0663 183.073 77.0839 183.066 77.1C183.059 77.116 183.048 77.1297 183.034 77.1394C183.019 77.149 183.002 77.1542 182.985 77.1543V77.1518ZM183.216 77.1979C183.206 77.1979 183.196 77.2019 183.189 77.2089C183.182 77.216 183.178 77.2255 183.178 77.2355C183.178 77.2404 183.179 77.2454 183.181 77.25C183.183 77.2546 183.186 77.2587 183.189 77.2622C183.193 77.2656 183.197 77.2684 183.201 77.2703C183.206 77.2721 183.211 77.2731 183.216 77.2731C183.226 77.2731 183.236 77.2691 183.243 77.2621C183.25 77.255 183.254 77.2455 183.254 77.2355C183.254 77.2305 183.253 77.2256 183.251 77.2211C183.249 77.2165 183.246 77.2123 183.243 77.2088C183.239 77.2054 183.235 77.2028 183.23 77.2012C183.226 77.1995 183.221 77.1988 183.216 77.1991V77.1979ZM183.216 77.3191C183.204 77.3194 183.193 77.3172 183.182 77.3129C183.172 77.3085 183.162 77.3019 183.154 77.2937C183.137 77.277 183.127 77.2544 183.127 77.2306C183.127 77.2191 183.129 77.2076 183.134 77.197C183.139 77.1863 183.145 77.1767 183.154 77.1688C183.17 77.1531 183.192 77.1443 183.215 77.1443C183.237 77.1443 183.259 77.1531 183.276 77.1688C183.284 77.1766 183.291 77.1862 183.296 77.1968C183.3 77.2075 183.303 77.219 183.302 77.2306C183.303 77.2424 183.3 77.2541 183.296 77.265C183.291 77.2758 183.284 77.2856 183.276 77.2937C183.268 77.3028 183.259 77.3103 183.249 77.3157C183.239 77.3211 183.228 77.3243 183.216 77.3252V77.3191ZM183.178 76.9688H183.215L183.022 77.3216H182.986L183.178 76.9688Z" clip-rule="evenodd"/><path stroke="#454545" stroke-linecap="round" stroke-linejoin="round" stroke-width=".5" d="M139.841 81.9127L137.508 81.8666M137.508 81.8666L138.388 82.7044M137.508 81.8666L138.308 81.0688"/><path fill="#BEBEBE" fill-rule="evenodd" stroke="#454545" stroke-linecap="round" stroke-linejoin="round" stroke-width=".2" d="M179.801 80.396H181.493C181.64 80.4048 181.777 80.471 181.875 80.5803C181.973 80.6896 182.023 80.833 182.015 80.9792V82.6002C182.023 82.7463 181.972 82.8896 181.874 82.9988C181.777 83.108 181.639 83.1743 181.493 83.1834H179.801C179.655 83.1743 179.517 83.108 179.42 82.9988C179.322 82.8896 179.271 82.7463 179.279 82.6002V80.9792C179.271 80.833 179.321 80.6896 179.419 80.5803C179.517 80.471 179.654 80.4048 179.801 80.396Z" clip-rule="evenodd"/><path fill="#454545" fill-rule="evenodd" d="M180.174 82.1907C180.242 82.0642 180.343 81.9576 180.465 81.8815C180.556 81.8204 180.642 81.7527 180.723 81.6791C180.779 81.6234 180.812 81.5482 180.813 81.4693C180.815 81.4133 180.797 81.3585 180.761 81.3153C180.739 81.293 180.712 81.276 180.682 81.2655C180.652 81.2551 180.62 81.2514 180.589 81.2549C180.558 81.2584 180.527 81.269 180.501 81.2857C180.474 81.3025 180.451 81.325 180.435 81.3517C180.412 81.4089 180.402 81.4698 180.403 81.5311H180.123C180.123 81.4268 180.146 81.3238 180.19 81.2292C180.229 81.157 180.289 81.0978 180.362 81.059C180.435 81.0203 180.518 81.0036 180.6 81.011C180.734 81.0047 180.865 81.0509 180.966 81.1395C181.012 81.183 181.048 81.2358 181.071 81.2944C181.095 81.353 181.106 81.4159 181.103 81.479C181.105 81.5832 181.071 81.6849 181.007 81.7676C180.946 81.8391 180.876 81.9016 180.797 81.9531L180.676 82.0343C180.604 82.0864 180.554 82.1228 180.528 82.1458C180.502 82.1683 180.479 82.1949 180.46 82.2247H181.101V82.4781H180.097C180.101 82.3778 180.128 82.2797 180.174 82.1907Z" clip-rule="evenodd"/><path fill="#454545" fill-rule="evenodd" d="M184.216 80.7007C184.214 80.6449 184.229 80.59 184.259 80.5428C184.289 80.4957 184.332 80.4585 184.383 80.4359C184.435 80.4134 184.491 80.4067 184.546 80.4165C184.602 80.4263 184.652 80.4523 184.693 80.4911C184.733 80.5299 184.761 80.5798 184.772 80.6343C184.784 80.6889 184.779 80.7456 184.758 80.7973C184.737 80.849 184.701 80.8932 184.654 80.9244C184.608 80.9556 184.553 80.9722 184.497 80.9723C184.424 80.9732 184.353 80.9452 184.3 80.8943C184.247 80.8434 184.217 80.7738 184.216 80.7007V80.7007Z" clip-rule="evenodd"/><path fill="#454545" fill-rule="evenodd" d="M184.229 81.5916C184.228 81.5362 184.243 81.4817 184.273 81.435C184.303 81.3884 184.347 81.3517 184.398 81.3296C184.449 81.3076 184.505 81.3012 184.56 81.3113C184.615 81.3213 184.665 81.3474 184.705 81.3862C184.745 81.4249 184.772 81.4746 184.783 81.5288C184.795 81.5831 184.789 81.6395 184.768 81.6908C184.747 81.7421 184.711 81.786 184.665 81.8169C184.619 81.8478 184.565 81.8644 184.509 81.8644C184.436 81.865 184.365 81.8367 184.312 81.7855C184.26 81.7344 184.23 81.6647 184.229 81.5916Z" clip-rule="evenodd"/><path fill="#454545" fill-rule="evenodd" d="M184.242 82.5037C184.241 82.4483 184.257 82.3938 184.287 82.3471C184.317 82.3005 184.36 82.2638 184.411 82.2418C184.462 82.2197 184.519 82.2133 184.573 82.2234C184.628 82.2335 184.679 82.2595 184.718 82.2983C184.758 82.337 184.785 82.3867 184.797 82.4409C184.808 82.4952 184.803 82.5516 184.782 82.6029C184.761 82.6542 184.725 82.6981 184.679 82.729C184.633 82.7599 184.578 82.7765 184.523 82.7765C184.449 82.7771 184.378 82.7488 184.326 82.6977C184.273 82.6465 184.243 82.5768 184.242 82.5037V82.5037Z" clip-rule="evenodd"/><line x1="137.397" x2="163.149" y1="96.091" y2="96.091" stroke="#F96132" stroke-width="2"/><line x1="137.397" x2="163.149" y1="112.658" y2="112.658" stroke="#F96132" stroke-width="2"/><line x1="137.397" x2="163.149" y1="129.227" y2="129.227" stroke="#F96132" stroke-width="2"/><line x1="137.397" x2="163.149" y1="145.794" y2="145.794" stroke="#fff" stroke-width="2"/><line x1="137.397" x2="169.994" y1="101.613" y2="101.613" stroke="#F7A501" stroke-width="2"/><line x1="137.397" x2="169.994" y1="118.181" y2="118.181" stroke="#F7A501" stroke-width="2"/><line x1="137.397" x2="169.994" y1="134.749" y2="134.749" stroke="#F96132" stroke-width="2"/><line x1="137.397" x2="169.994" y1="151.317" y2="151.317" stroke="#F7A501" stroke-width="2"/><line x1="137.397" x2="155.652" y1="107.136" y2="107.136" stroke="#F7A501" stroke-width="2"/><line x1="137.397" x2="155.652" y1="123.704" y2="123.704" stroke="#fff" stroke-width="2"/><line x1="137.397" x2="155.652" y1="140.271" y2="140.271" stroke="#F7A501" stroke-width="2"/><line x1="137.397" x2="155.652" y1="156.839" y2="156.839" stroke="#fff" stroke-width="2"/><defs><clipPath id="clip0"><rect width="172" height="120" fill="#fff" transform="translate(10 20)"/></clipPath></defs></svg>