<svg width="733" height="557" viewBox="0 0 733 557" fill="none" xmlns="http://www.w3.org/2000/svg">
<rect x="-190" width="666" height="557" rx="100" fill="#F7A501"/>
<rect width="13.3814" height="46.5163" rx="6.6907" transform="matrix(-0.647795 -0.761815 -0.761815 0.647795 714.694 153.584)" fill="#F7A501"/>
<rect width="13.3814" height="46.5163" rx="6.6907" transform="matrix(-0.912642 -0.408759 -0.408759 0.912642 682.227 126.47)" fill="#F7A501"/>
<rect width="13.3814" height="46.5163" rx="6.6907" transform="matrix(-0.28111 -0.959676 -0.959676 0.28111 732.376 188.924)" fill="#F7A501"/>
<path fill-rule="evenodd" clip-rule="evenodd" d="M85.8029 73.3118H577.064C578.364 73.3118 579.611 73.8291 580.53 74.7499C581.449 75.6708 581.965 76.9197 581.965 78.222V415.516C581.965 416.818 581.449 418.067 580.53 418.988C579.611 419.909 578.364 420.426 577.064 420.426H85.8029C85.1589 420.427 84.521 420.301 83.9257 420.054C83.3305 419.808 82.7896 419.446 82.334 418.99C81.8785 418.534 81.5172 417.992 81.2708 417.396C81.0245 416.8 80.8979 416.161 80.8984 415.516V78.222C80.8984 77.5769 81.0253 76.938 81.2718 76.3421C81.5184 75.7461 81.8797 75.2046 82.3352 74.7486C82.7906 74.2926 83.3313 73.931 83.9263 73.6844C84.5213 73.4379 85.159 73.3113 85.8029 73.3118Z" fill="#E6E6E6" stroke="#E6E6E6" stroke-width="2" stroke-linecap="round" stroke-linejoin="round"/>
<path fill-rule="evenodd" clip-rule="evenodd" d="M79.4377 423.559L81.2378 88.4094L156.483 88.7915L176.074 72.4368H247.436L261.013 89.4717L583.105 90.683L584.558 421.798L79.4377 423.559Z" fill="#DCDCDC" stroke="#DCDCDC" stroke-width="2" stroke-linecap="round" stroke-linejoin="round"/>
<path fill-rule="evenodd" clip-rule="evenodd" d="M160.88 94.8557H548.378C551.86 94.8557 554.686 97.0529 554.686 99.7621V102.731C554.686 105.444 551.86 107.641 548.378 107.641H160.88C157.398 107.641 154.576 105.444 154.576 102.731V99.7621C154.576 97.0529 157.398 94.8557 160.88 94.8557Z" fill="white" stroke="white" stroke-width="2" stroke-linecap="round" stroke-linejoin="round"/>
<path fill-rule="evenodd" clip-rule="evenodd" d="M85.3224 79.2385C85.2956 78.8459 85.3874 78.4543 85.5858 78.1147C85.7842 77.775 86.08 77.5031 86.4348 77.3342C86.7895 77.1653 87.1868 77.1073 87.5749 77.1678C87.963 77.2283 88.324 77.4044 88.6108 77.6732C88.8977 77.9421 89.0971 78.2912 89.1832 78.6752C89.2693 79.0591 89.238 79.4602 89.0935 79.8261C88.949 80.192 88.6979 80.5059 88.3729 80.7269C88.0479 80.9479 87.664 81.0657 87.2712 81.0651C86.7725 81.0766 86.2892 80.8917 85.9248 80.5503C85.5605 80.2088 85.3442 79.7379 85.3224 79.2385Z" fill="white" stroke="white" stroke-width="2" stroke-linecap="round" stroke-linejoin="round"/>
<path fill-rule="evenodd" clip-rule="evenodd" d="M95.4364 79.3034C95.4104 78.9118 95.5026 78.5214 95.7009 78.183C95.8992 77.8445 96.1945 77.5737 96.5485 77.4056C96.9024 77.2375 97.2986 77.1799 97.6857 77.2404C98.0727 77.3009 98.4326 77.4766 98.7187 77.7447C99.0047 78.0128 99.2037 78.3609 99.2897 78.7438C99.3757 79.1267 99.3449 79.5267 99.2011 79.8917C99.0573 80.2568 98.8072 80.5701 98.4834 80.7909C98.1596 81.0117 97.777 81.1299 97.3853 81.13C96.8865 81.1414 96.4032 80.9566 96.0388 80.6152C95.6745 80.2737 95.4583 79.8028 95.4364 79.3034Z" fill="white" stroke="white" stroke-width="2" stroke-linecap="round" stroke-linejoin="round"/>
<path fill-rule="evenodd" clip-rule="evenodd" d="M105.405 79.3762C105.379 78.9846 105.472 78.5942 105.67 78.2557C105.868 77.9173 106.163 77.6464 106.517 77.4783C106.871 77.3102 107.268 77.2527 107.655 77.3132C108.042 77.3736 108.402 77.5494 108.688 77.8175C108.974 78.0856 109.173 78.4337 109.259 78.8166C109.345 79.1995 109.314 79.5994 109.17 79.9645C109.026 80.3295 108.776 80.6428 108.452 80.8637C108.129 81.0845 107.746 81.2026 107.354 81.2027C106.856 81.2142 106.372 81.0294 106.008 80.6879C105.644 80.3465 105.427 79.8755 105.405 79.3762Z" fill="white" stroke="white" stroke-width="2" stroke-linecap="round" stroke-linejoin="round"/>
<path d="M239.931 79.655L245.606 85.8568" stroke="white" stroke-width="2" stroke-linecap="round" stroke-linejoin="round"/>
<path d="M239.58 85.5244L245.549 79.6091" stroke="white" stroke-width="2" stroke-linecap="round" stroke-linejoin="round"/>
<path fill-rule="evenodd" clip-rule="evenodd" d="M259.629 75.6963L265.929 83.1247H280.509L273.927 75.788L259.629 75.6963Z" fill="#DCDCDC" stroke="#DCDCDC" stroke-width="2" stroke-linecap="round" stroke-linejoin="round"/>
<path fill-rule="evenodd" clip-rule="evenodd" d="M84.9067 113.935H578.59C579.889 113.936 581.135 114.454 582.053 115.375C582.971 116.295 583.487 117.544 583.487 118.845V417.725C583.487 418.369 583.361 419.008 583.115 419.603C582.869 420.199 582.509 420.74 582.054 421.196C581.599 421.652 581.059 422.014 580.465 422.261C579.87 422.508 579.233 422.635 578.59 422.635H84.9067C84.2632 422.635 83.6259 422.508 83.0314 422.261C82.4368 422.014 81.8965 421.653 81.4415 421.197C80.9864 420.741 80.6254 420.199 80.3791 419.604C80.1329 419.008 80.0061 418.369 80.0061 417.725V118.845C80.0061 117.543 80.5224 116.294 81.4415 115.373C82.3605 114.452 83.607 113.935 84.9067 113.935Z" fill="#C8C8C8" stroke="#C8C8C8" stroke-linecap="round" stroke-linejoin="round"/>
<path fill-rule="evenodd" clip-rule="evenodd" d="M158.927 100.542C158.942 99.9558 159.129 99.3872 159.465 98.9073C159.801 98.4273 160.271 98.0572 160.815 97.8432C161.36 97.6293 161.956 97.5811 162.527 97.7046C163.099 97.8281 163.622 98.1178 164.031 98.5375C164.439 98.9572 164.715 99.4883 164.824 100.064C164.932 100.64 164.869 101.236 164.642 101.776C164.415 102.316 164.034 102.777 163.546 103.101C163.059 103.426 162.487 103.599 161.902 103.599C161.506 103.594 161.115 103.512 160.751 103.355C160.387 103.199 160.058 102.973 159.781 102.689C159.505 102.405 159.287 102.069 159.141 101.701C158.994 101.332 158.922 100.938 158.927 100.542V100.542Z" stroke="#C8C8C8" stroke-width="2" stroke-linecap="round" stroke-linejoin="round"/>
<path d="M163.896 102.854L166.41 105.146" stroke="#C8C8C8" stroke-width="2" stroke-linecap="round" stroke-linejoin="round"/>
<path d="M562.877 97.1334L573.827 97.0723" stroke="#BEBEBE" stroke-width="2" stroke-linecap="round" stroke-linejoin="round"/>
<path d="M562.877 101.623L573.827 101.562" stroke="#BEBEBE" stroke-width="2" stroke-linecap="round" stroke-linejoin="round"/>
<path d="M562.812 106.361L573.762 106.3" stroke="#BEBEBE" stroke-width="2" stroke-linecap="round" stroke-linejoin="round"/>
<path d="M95.6307 101.367L88.3198 101.222L91.081 103.859L88.3198 101.222L90.8293 98.7039" stroke="#BEBEBE" stroke-width="2" stroke-linecap="round" stroke-linejoin="round"/>
<path d="M100.997 101.436L108.304 101.539L105.531 98.9177L108.304 101.539L105.81 104.073" stroke="#BEBEBE" stroke-width="2" stroke-linecap="round" stroke-linejoin="round"/>
<path d="M126.049 104.329C124.989 105.59 124.074 106.105 121.999 106.002C120.031 105.903 117.827 104.474 117.979 101.745C118.12 99.2999 119.665 97.1295 123.04 97.4428C125.13 97.6377 126.743 100.84 126.743 100.84C126.743 100.84 124.787 100.916 124.81 100.939C124.832 100.962 126.838 100.939 126.838 100.939L127.536 99.0783" stroke="#BEBEBE" stroke-width="2" stroke-linecap="round" stroke-linejoin="round"/>
<path fill-rule="evenodd" clip-rule="evenodd" d="M137.342 106.358V101.581L135.911 101.516L138.268 99.0783V97.4848L139.126 97.4275L139.107 98.3293L140.984 96.3538L145.602 101.627L143.966 101.589L144.191 106.384L141.853 106.312V103.912C141.863 103.767 141.841 103.622 141.791 103.487C141.74 103.351 141.661 103.227 141.56 103.124C141.458 103.021 141.336 102.94 141.201 102.888C141.067 102.835 140.922 102.812 140.778 102.819C139.965 102.762 139.74 103.966 139.74 103.966L139.672 106.308L137.342 106.358Z" fill="#BEBEBE" stroke="#BEBEBE" stroke-linecap="round" stroke-linejoin="round"/>
<path fill-rule="evenodd" clip-rule="evenodd" d="M96.4469 118.142H566.988C572.648 118.142 577.236 122.831 577.236 128.616V404.645C577.236 410.43 572.659 415.119 566.988 415.119H96.4469C90.7874 415.119 86.1995 410.43 86.1995 404.645V128.616C86.1995 122.831 90.7874 118.142 96.4469 118.142Z" fill="#35416B" stroke="#BEBEBE" stroke-width="2" stroke-linecap="round" stroke-linejoin="round"/>
<line x1="109.461" y1="157.743" x2="434.248" y2="157.743" stroke="#F7A501" stroke-width="10"/>
<line x1="109.461" y1="221.686" x2="196.441" y2="221.686" stroke="#F7A501" stroke-width="10"/>
<line x1="109.461" y1="285.628" x2="182.561" y2="285.628" stroke="white" stroke-width="10"/>
<line x1="109.461" y1="173.497" x2="272.317" y2="173.497" stroke="#F96132" stroke-width="10"/>
<line x1="109.461" y1="237.44" x2="406.488" y2="237.44" stroke="#F7A501" stroke-width="10"/>
<line x1="109.461" y1="350.497" x2="338.94" y2="350.497" stroke="white" stroke-width="10"/>
<line x1="109.461" y1="368.105" x2="406.488" y2="368.105" stroke="#F7A501" stroke-width="10"/>
<line x1="109.461" y1="386.639" x2="331.537" y2="386.639" stroke="#F96132" stroke-width="10"/>
<line x1="109.461" y1="301.382" x2="201.993" y2="301.382" stroke="white" stroke-width="10"/>
<line x1="109.461" y1="189.251" x2="294.525" y2="189.251" stroke="white" stroke-width="10"/>
<line x1="109.461" y1="253.194" x2="282.496" y2="253.194" stroke="white" stroke-width="10"/>
<line x1="109.461" y1="317.136" x2="161.279" y2="317.136" stroke="#F96132" stroke-width="10"/>
<line x1="109.461" y1="205.932" x2="349.118" y2="205.932" stroke="#F96132" stroke-width="10"/>
<line x1="109.461" y1="269.874" x2="361.148" y2="269.874" stroke="#F7A501" stroke-width="10"/>
<line x1="109.461" y1="333.817" x2="268.616" y2="333.817" stroke="#F7A501" stroke-width="10"/>
<g clip-path="url(#clip0)">
<path fill-rule="evenodd" clip-rule="evenodd" d="M496.603 193.346H637.383C640.899 193.346 644.271 194.739 646.757 197.218C649.243 199.697 650.639 203.06 650.639 206.566V507.42C650.639 510.926 649.243 514.289 646.757 516.768C644.271 519.247 640.899 520.64 637.383 520.64H496.603C493.09 520.64 489.72 519.249 487.234 516.773C484.749 514.297 483.35 510.938 483.347 507.434V206.58C483.345 204.843 483.686 203.122 484.352 201.516C485.017 199.911 485.993 198.452 487.224 197.223C488.456 195.994 489.918 195.019 491.527 194.353C493.136 193.688 494.861 193.346 496.603 193.346Z" fill="#F0F0F0" stroke="#E6E6E6" stroke-width="2" stroke-linecap="round" stroke-linejoin="round"/>
<path fill-rule="evenodd" clip-rule="evenodd" d="M550.529 497.097C550.529 488.622 557.516 481.75 566.133 481.75C574.75 481.75 581.737 488.622 581.737 497.097C581.737 505.573 574.75 512.441 566.133 512.441C557.516 512.441 550.529 505.57 550.529 497.097Z" fill="#BEBEBE"/>
<path fill-rule="evenodd" clip-rule="evenodd" d="M497.563 218.936H638.132C640.993 218.936 643.309 220.889 643.309 223.3V471.324C643.309 473.745 640.993 475.688 638.132 475.688H497.563C494.706 475.688 492.39 473.735 492.39 471.324V223.3C492.404 220.889 494.72 218.936 497.563 218.936Z" fill="#35416B" stroke="white" stroke-width="2" stroke-linecap="round" stroke-linejoin="round"/>
<path fill-rule="evenodd" clip-rule="evenodd" d="M496.631 218.59H639.269C639.862 218.594 640.449 218.716 640.995 218.947C641.541 219.178 642.036 219.514 642.452 219.936C642.867 220.358 643.195 220.858 643.417 221.407C643.638 221.955 643.749 222.542 643.742 223.134V251.144H492.157V223.134C492.151 222.542 492.262 221.955 492.483 221.407C492.705 220.858 493.033 220.358 493.448 219.936C493.864 219.514 494.359 219.178 494.905 218.947C495.451 218.716 496.037 218.594 496.631 218.59Z" fill="#BEBEBE" stroke="#C8C8C8" stroke-width="0.1" stroke-linecap="round" stroke-linejoin="round"/>
<path fill-rule="evenodd" clip-rule="evenodd" d="M554.049 205.753H586.546C586.826 205.753 587.104 205.808 587.363 205.914C587.622 206.021 587.858 206.178 588.056 206.375C588.255 206.573 588.412 206.807 588.519 207.065C588.627 207.324 588.682 207.601 588.682 207.88C588.682 208.445 588.457 208.987 588.057 209.386C587.656 209.786 587.113 210.01 586.546 210.01H554.049C553.482 210.01 552.939 209.786 552.538 209.386C552.138 208.987 551.913 208.445 551.913 207.88C551.913 207.601 551.968 207.324 552.076 207.065C552.183 206.807 552.34 206.573 552.539 206.375C552.737 206.178 552.973 206.021 553.232 205.914C553.491 205.808 553.768 205.753 554.049 205.753Z" fill="#BEBEBE" stroke="#BEBEBE" stroke-width="2" stroke-linecap="round" stroke-linejoin="round"/>
<path fill-rule="evenodd" clip-rule="evenodd" d="M539.759 208.215C539.757 207.77 539.886 207.334 540.132 206.963C540.378 206.591 540.729 206.301 541.141 206.129C541.553 205.957 542.006 205.91 542.444 205.995C542.882 206.081 543.285 206.294 543.602 206.607C543.919 206.921 544.135 207.322 544.223 207.758C544.311 208.194 544.267 208.647 544.097 209.059C543.927 209.47 543.638 209.822 543.267 210.07C542.896 210.317 542.46 210.449 542.013 210.449C541.718 210.45 541.426 210.393 541.153 210.281C540.88 210.17 540.632 210.005 540.422 209.798C540.213 209.591 540.047 209.344 539.933 209.072C539.819 208.801 539.76 208.51 539.759 208.215Z" fill="#BEBEBE" stroke="#BEBEBE" stroke-width="2" stroke-linecap="round" stroke-linejoin="round"/>
<path fill-rule="evenodd" clip-rule="evenodd" d="M516.173 229.853H615.625C615.698 229.852 615.771 229.865 615.839 229.893C615.907 229.92 615.969 229.96 616.021 230.011C616.074 230.062 616.116 230.123 616.145 230.19C616.173 230.257 616.189 230.33 616.19 230.403V240.11C616.189 240.183 616.173 240.255 616.145 240.322C616.116 240.389 616.074 240.45 616.021 240.501C615.969 240.552 615.907 240.593 615.839 240.62C615.771 240.647 615.698 240.66 615.625 240.659H516.173C516.1 240.661 516.027 240.648 515.958 240.621C515.89 240.594 515.827 240.554 515.774 240.502C515.721 240.451 515.679 240.39 515.65 240.323C515.621 240.256 515.606 240.183 515.605 240.11V230.403C515.606 230.329 515.621 230.257 515.65 230.189C515.679 230.122 515.721 230.061 515.774 230.01C515.827 229.959 515.89 229.919 515.958 229.892C516.027 229.865 516.1 229.852 516.173 229.853Z" fill="white" stroke="white" stroke-width="0.1" stroke-linecap="round" stroke-linejoin="round"/>
<path fill-rule="evenodd" clip-rule="evenodd" d="M495.202 221.228C495.202 221.091 495.243 220.958 495.319 220.844C495.395 220.73 495.503 220.642 495.63 220.589C495.757 220.537 495.896 220.523 496.031 220.55C496.165 220.577 496.289 220.642 496.386 220.739C496.483 220.836 496.549 220.959 496.576 221.093C496.602 221.227 496.589 221.367 496.536 221.493C496.484 221.619 496.395 221.727 496.281 221.803C496.167 221.879 496.033 221.92 495.896 221.92C495.712 221.92 495.535 221.847 495.405 221.717C495.275 221.588 495.202 221.412 495.202 221.228Z" fill="white" stroke="white" stroke-width="0.1" stroke-linecap="round" stroke-linejoin="round"/>
<path fill-rule="evenodd" clip-rule="evenodd" d="M497.144 221.215C497.14 221.077 497.178 220.942 497.252 220.826C497.326 220.71 497.433 220.618 497.56 220.563C497.686 220.508 497.826 220.492 497.962 220.517C498.097 220.542 498.223 220.606 498.321 220.702C498.42 220.798 498.488 220.921 498.516 221.056C498.544 221.19 498.532 221.33 498.48 221.458C498.428 221.585 498.339 221.694 498.224 221.771C498.11 221.848 497.975 221.889 497.837 221.889C497.656 221.889 497.483 221.818 497.353 221.692C497.223 221.566 497.148 221.395 497.144 221.215Z" fill="white" stroke="white" stroke-width="0.1" stroke-linecap="round" stroke-linejoin="round"/>
<path fill-rule="evenodd" clip-rule="evenodd" d="M498.968 221.215C498.964 221.077 499.002 220.942 499.076 220.826C499.15 220.71 499.257 220.618 499.384 220.563C499.51 220.508 499.65 220.492 499.786 220.517C499.921 220.542 500.046 220.606 500.145 220.702C500.244 220.798 500.312 220.921 500.34 221.056C500.368 221.19 500.355 221.33 500.303 221.458C500.252 221.585 500.163 221.694 500.048 221.771C499.934 221.848 499.799 221.889 499.661 221.889C499.48 221.889 499.306 221.818 499.177 221.692C499.047 221.566 498.972 221.395 498.968 221.215Z" fill="white" stroke="white" stroke-width="0.1" stroke-linecap="round" stroke-linejoin="round"/>
<path fill-rule="evenodd" clip-rule="evenodd" d="M500.833 221.225C500.83 221.087 500.868 220.952 500.942 220.836C501.016 220.72 501.123 220.629 501.249 220.574C501.375 220.519 501.515 220.502 501.651 220.527C501.787 220.552 501.912 220.616 502.011 220.712C502.109 220.808 502.177 220.931 502.205 221.066C502.234 221.201 502.221 221.341 502.169 221.468C502.117 221.595 502.028 221.704 501.914 221.781C501.799 221.858 501.665 221.899 501.527 221.899C501.346 221.899 501.172 221.829 501.042 221.703C500.913 221.577 500.838 221.405 500.833 221.225Z" fill="white" stroke="white" stroke-width="0.1" stroke-linecap="round" stroke-linejoin="round"/>
<path fill-rule="evenodd" clip-rule="evenodd" d="M502.744 221.284C502.74 221.146 502.777 221.01 502.85 220.894C502.924 220.777 503.031 220.686 503.157 220.63C503.284 220.575 503.424 220.558 503.559 220.582C503.695 220.606 503.821 220.671 503.92 220.766C504.019 220.862 504.087 220.985 504.116 221.12C504.144 221.255 504.132 221.395 504.08 221.523C504.028 221.65 503.939 221.759 503.825 221.836C503.71 221.913 503.575 221.954 503.437 221.955C503.257 221.955 503.084 221.885 502.954 221.759C502.825 221.634 502.749 221.463 502.744 221.284Z" fill="white" stroke="white" stroke-width="0.1" stroke-linecap="round" stroke-linejoin="round"/>
<path fill-rule="evenodd" clip-rule="evenodd" d="M506.468 220.986H506.177V221.425H506.468C506.529 221.43 506.589 221.411 506.638 221.374C506.66 221.352 506.677 221.325 506.688 221.296C506.699 221.267 506.703 221.235 506.7 221.204C506.703 221.173 506.699 221.142 506.688 221.112C506.678 221.083 506.66 221.056 506.638 221.035C506.588 221 506.528 220.983 506.468 220.986ZM506.492 221.678H506.177V222.214H505.865V220.72H506.516C506.642 220.716 506.766 220.758 506.863 220.838C506.909 220.882 506.945 220.936 506.967 220.996C506.99 221.056 506.999 221.12 506.995 221.183C507.003 221.252 506.995 221.321 506.972 221.385C506.949 221.45 506.912 221.509 506.863 221.557C506.76 221.646 506.629 221.697 506.492 221.702V221.678Z" fill="white"/>
<path fill-rule="evenodd" clip-rule="evenodd" d="M507.245 222.221V220.727H507.553V221.297H508.139V220.727H508.448V222.221H508.139V221.553H507.553V222.221H507.245Z" fill="white"/>
<path fill-rule="evenodd" clip-rule="evenodd" d="M509.814 221.474C509.823 221.335 509.785 221.198 509.707 221.083C509.67 221.041 509.624 221.006 509.573 220.983C509.522 220.96 509.466 220.948 509.41 220.948C509.354 220.948 509.298 220.96 509.247 220.983C509.196 221.006 509.15 221.041 509.114 221.083C509.041 221.2 509.003 221.335 509.003 221.472C509.003 221.609 509.041 221.744 509.114 221.861C509.15 221.905 509.195 221.94 509.246 221.964C509.297 221.988 509.353 222 509.41 222C509.467 222 509.523 221.988 509.574 221.964C509.625 221.94 509.67 221.905 509.707 221.861C509.785 221.748 509.823 221.611 509.814 221.474ZM509.901 222.089C509.762 222.201 509.589 222.262 509.41 222.262C509.231 222.262 509.058 222.201 508.919 222.089C508.84 222.008 508.779 221.912 508.74 221.806C508.7 221.7 508.683 221.587 508.691 221.474C508.682 221.36 508.698 221.246 508.737 221.139C508.777 221.033 508.839 220.935 508.919 220.855C509.058 220.743 509.231 220.682 509.41 220.682C509.589 220.682 509.762 220.743 509.901 220.855C509.981 220.936 510.042 221.033 510.081 221.14C510.12 221.247 510.135 221.36 510.126 221.474C510.134 221.586 510.118 221.699 510.079 221.805C510.04 221.911 509.979 222.008 509.901 222.089Z" fill="white"/>
<path fill-rule="evenodd" clip-rule="evenodd" d="M510.362 220.727H510.688L511.284 221.764V220.727H511.576V222.221H511.263L510.653 221.159V222.221H510.362V220.727Z" fill="white"/>
<path fill-rule="evenodd" clip-rule="evenodd" d="M512.976 221.01H512.182V221.325H512.91V221.584H512.182V221.968H513.011V222.238H511.877V220.744H512.976V221.01Z" fill="white"/>
<path fill-rule="evenodd" clip-rule="evenodd" d="M516.049 222.193C516.064 222.1 516.112 222.015 516.184 221.954C516.256 221.893 516.348 221.859 516.442 221.859C516.537 221.859 516.628 221.893 516.7 221.954C516.773 222.015 516.82 222.1 516.836 222.193C516.836 222.376 516.44 222.539 516.44 222.539C516.44 222.539 516.049 222.394 516.049 222.193Z" fill="white"/>
<path d="M515.137 221.702C515.206 221.412 515.374 221.154 515.611 220.972C515.848 220.79 516.141 220.695 516.44 220.703C516.535 220.701 516.63 220.712 516.721 220.737C516.963 220.811 517.185 220.939 517.37 221.112C517.554 221.284 517.697 221.497 517.786 221.733" stroke="white" stroke-width="0.5" stroke-linecap="round" stroke-linejoin="round"/>
<path d="M514.648 221.405C514.754 221.029 514.986 220.702 515.306 220.477C515.625 220.253 516.012 220.144 516.402 220.17C516.528 220.166 516.654 220.178 516.777 220.208C517.095 220.29 517.39 220.444 517.639 220.658C517.888 220.872 518.084 221.141 518.212 221.443" stroke="white" stroke-width="0.5" stroke-linecap="round" stroke-linejoin="round"/>
<path d="M515.594 222.027C515.641 221.832 515.751 221.658 515.908 221.532C516.065 221.407 516.26 221.338 516.461 221.335C516.667 221.346 516.864 221.424 517.02 221.559C517.176 221.694 517.282 221.877 517.321 222.079" stroke="white" stroke-width="0.5" stroke-linecap="round" stroke-linejoin="round"/>
<path fill-rule="evenodd" clip-rule="evenodd" d="M563.127 221.01V220.748C563.212 220.745 563.296 220.737 563.38 220.723C563.453 220.71 563.52 220.674 563.571 220.62C563.606 220.58 563.633 220.533 563.647 220.481C563.65 220.455 563.65 220.428 563.647 220.402H563.969V222.359H563.574V221.01H563.127Z" fill="#F0F0F0"/>
<path fill-rule="evenodd" clip-rule="evenodd" d="M564.652 221.961C564.744 221.791 564.879 221.648 565.044 221.546C565.167 221.464 565.283 221.373 565.391 221.273C565.469 221.206 565.517 221.112 565.526 221.01C565.53 220.935 565.505 220.861 565.457 220.803C565.427 220.773 565.391 220.75 565.351 220.736C565.311 220.722 565.269 220.717 565.227 220.722C565.185 220.727 565.144 220.741 565.109 220.763C565.073 220.786 565.043 220.816 565.02 220.851C564.991 220.929 564.976 221.011 564.975 221.093H564.6C564.602 220.954 564.633 220.816 564.691 220.689C564.744 220.592 564.824 220.512 564.922 220.46C565.02 220.407 565.131 220.385 565.242 220.395C565.424 220.385 565.602 220.448 565.738 220.568C565.799 220.627 565.847 220.698 565.879 220.776C565.911 220.855 565.925 220.94 565.922 221.024C565.923 221.164 565.876 221.299 565.79 221.408C565.71 221.506 565.615 221.591 565.509 221.661L565.356 221.768C565.259 221.837 565.193 221.889 565.159 221.916C565.122 221.946 565.092 221.983 565.069 222.024H565.925V222.369H564.58C564.573 222.23 564.598 222.09 564.652 221.961Z" fill="#F0F0F0"/>
<path fill-rule="evenodd" clip-rule="evenodd" d="M566.334 220.931H566.743V221.336H566.334V220.931ZM566.334 221.944H566.743V222.345H566.334V221.944Z" fill="#F0F0F0"/>
<path fill-rule="evenodd" clip-rule="evenodd" d="M567.707 222.082C567.76 222.084 567.812 222.067 567.853 222.034C567.895 222.001 567.923 221.955 567.933 221.903C568.002 221.56 568.002 221.208 567.933 220.865C567.922 220.815 567.893 220.77 567.852 220.738C567.81 220.707 567.759 220.692 567.707 220.696C567.655 220.693 567.604 220.708 567.562 220.739C567.52 220.77 567.491 220.815 567.478 220.865C567.405 221.207 567.405 221.561 567.478 221.903C567.49 221.954 567.519 222.001 567.56 222.034C567.602 222.066 567.654 222.084 567.707 222.082ZM568.401 221.391C568.415 221.648 568.362 221.904 568.248 222.134C568.195 222.223 568.117 222.295 568.025 222.341C567.932 222.388 567.828 222.407 567.725 222.397C567.621 222.407 567.516 222.388 567.423 222.341C567.33 222.295 567.252 222.223 567.198 222.134C567.084 221.904 567.031 221.648 567.045 221.391C567.031 221.132 567.084 220.874 567.198 220.64C567.252 220.552 567.33 220.48 567.423 220.433C567.516 220.387 567.621 220.368 567.725 220.378C567.828 220.367 567.932 220.387 568.025 220.433C568.117 220.48 568.195 220.552 568.248 220.64C568.356 220.874 568.402 221.131 568.383 221.387L568.401 221.391Z" fill="#F0F0F0"/>
<path fill-rule="evenodd" clip-rule="evenodd" d="M569.25 222.082C569.303 222.084 569.354 222.066 569.396 222.033C569.437 222 569.465 221.954 569.476 221.903C569.545 221.56 569.545 221.208 569.476 220.865C569.464 220.815 569.435 220.77 569.394 220.739C569.353 220.708 569.302 220.693 569.25 220.696C569.198 220.693 569.147 220.708 569.105 220.739C569.063 220.77 569.034 220.815 569.021 220.865C568.948 221.207 568.948 221.561 569.021 221.903C569.033 221.954 569.062 222.001 569.103 222.034C569.145 222.066 569.197 222.084 569.25 222.082ZM569.944 221.391C569.958 221.648 569.905 221.904 569.791 222.134C569.738 222.223 569.66 222.295 569.568 222.341C569.475 222.388 569.371 222.407 569.268 222.397C569.164 222.407 569.059 222.388 568.966 222.341C568.873 222.295 568.795 222.223 568.741 222.134C568.627 221.904 568.574 221.648 568.588 221.391C568.574 221.132 568.627 220.874 568.741 220.64C568.795 220.552 568.873 220.48 568.966 220.433C569.059 220.387 569.164 220.368 569.268 220.378C569.371 220.367 569.475 220.387 569.568 220.433C569.66 220.48 569.738 220.552 569.791 220.64C569.899 220.874 569.945 221.131 569.926 221.387L569.944 221.391Z" fill="#F0F0F0"/>
<path fill-rule="evenodd" clip-rule="evenodd" d="M571.823 220.699H571.421V221.287H571.809C571.892 221.291 571.973 221.265 572.038 221.214C572.068 221.186 572.091 221.15 572.105 221.112C572.12 221.073 572.125 221.031 572.121 220.99C572.126 220.949 572.121 220.908 572.106 220.869C572.092 220.831 572.068 220.796 572.038 220.768C571.976 220.722 571.901 220.698 571.823 220.699ZM571.858 221.629H571.421V222.345H571.005V220.353H571.875C572.049 220.344 572.219 220.399 572.354 220.509C572.417 220.57 572.467 220.645 572.498 220.727C572.529 220.81 572.541 220.898 572.534 220.986C572.544 221.077 572.533 221.17 572.502 221.256C572.471 221.342 572.42 221.42 572.354 221.484C572.21 221.587 572.035 221.638 571.858 221.629Z" fill="#F0F0F0"/>
<path fill-rule="evenodd" clip-rule="evenodd" d="M574.195 220.354H574.795V222.345H574.407V220.665L574.029 222.335H573.626L573.238 220.665C573.238 220.703 573.238 220.755 573.238 220.827V222.335H572.85V220.354H573.456L573.803 221.92L574.195 220.354Z" fill="#F0F0F0"/>
<path fill-rule="evenodd" clip-rule="evenodd" d="M634.425 221.086H640.206C640.341 221.098 640.466 221.162 640.554 221.265C640.643 221.368 640.687 221.501 640.677 221.636V223.054C640.687 223.189 640.643 223.323 640.554 223.425C640.466 223.528 640.341 223.592 640.206 223.604H634.425C634.29 223.592 634.165 223.528 634.076 223.425C633.988 223.323 633.944 223.189 633.954 223.054V222.674H633.26V221.982H633.954V221.636C633.944 221.501 633.988 221.368 634.076 221.265C634.165 221.162 634.29 221.098 634.425 221.086Z" fill="white" stroke="white" stroke-linecap="round" stroke-linejoin="round"/>
<path fill-rule="evenodd" clip-rule="evenodd" d="M636.239 221.335H639.911C640.057 221.335 640.197 221.393 640.301 221.496C640.404 221.6 640.462 221.739 640.462 221.885V222.961C640.462 223.107 640.404 223.246 640.301 223.35C640.197 223.453 640.057 223.511 639.911 223.511H636.239C636.093 223.511 635.952 223.453 635.849 223.35C635.746 223.246 635.688 223.107 635.688 222.961V221.885C635.688 221.739 635.746 221.6 635.849 221.496C635.952 221.393 636.093 221.335 636.239 221.335Z" fill="#BEBEBE"/>
<path fill-rule="evenodd" clip-rule="evenodd" d="M629.924 222.643C629.944 222.643 629.963 222.64 629.981 222.633C629.999 222.625 630.015 222.615 630.029 222.601C630.042 222.586 630.052 222.569 630.059 222.55C630.065 222.531 630.068 222.511 630.067 222.491C630.068 222.47 630.066 222.449 630.058 222.429C630.051 222.409 630.04 222.391 630.025 222.376C630.012 222.364 629.996 222.354 629.979 222.347C629.961 222.341 629.943 222.338 629.924 222.338C629.905 222.337 629.886 222.34 629.869 222.347C629.851 222.353 629.834 222.363 629.82 222.376C629.807 222.392 629.796 222.41 629.79 222.43C629.783 222.449 629.781 222.47 629.782 222.491C629.781 222.511 629.784 222.531 629.79 222.55C629.797 222.569 629.807 222.586 629.82 222.601C629.834 222.615 629.85 222.626 629.868 222.634C629.886 222.641 629.905 222.644 629.924 222.643ZM629.73 222.252C629.69 222.229 629.657 222.194 629.637 222.152C629.624 222.119 629.617 222.083 629.616 222.048C629.616 222.014 629.623 221.979 629.637 221.948C629.65 221.916 629.67 221.888 629.696 221.865C629.761 221.814 629.842 221.788 629.924 221.792C630.006 221.786 630.087 221.812 630.15 221.865C630.176 221.887 630.197 221.915 630.212 221.947C630.226 221.979 630.233 222.013 630.233 222.048C630.233 222.084 630.224 222.119 630.209 222.152C630.19 222.192 630.159 222.225 630.119 222.245C630.163 222.271 630.2 222.308 630.226 222.352C630.251 222.399 630.264 222.451 630.264 222.504C630.264 222.544 630.256 222.583 630.24 222.62C630.224 222.656 630.2 222.689 630.171 222.715C630.136 222.746 630.095 222.77 630.051 222.785C630.007 222.799 629.96 222.805 629.914 222.802C629.823 222.807 629.733 222.776 629.664 222.715C629.61 222.658 629.58 222.583 629.581 222.504C629.581 222.451 629.594 222.399 629.619 222.352C629.646 222.309 629.684 222.274 629.73 222.252ZM629.924 222.19C629.957 222.192 629.99 222.18 630.015 222.159C630.036 222.134 630.047 222.101 630.046 222.069C630.048 222.052 630.047 222.035 630.041 222.02C630.036 222.004 630.027 221.99 630.015 221.978C630.004 221.966 629.989 221.957 629.974 221.952C629.958 221.947 629.941 221.945 629.924 221.948C629.89 221.946 629.857 221.957 629.831 221.979C629.809 222.003 629.798 222.036 629.8 222.069C629.798 222.101 629.809 222.134 629.831 222.159C629.857 222.18 629.89 222.191 629.924 222.19Z" fill="white"/>
<path fill-rule="evenodd" clip-rule="evenodd" d="M630.715 222.643C630.742 222.644 630.768 222.636 630.789 222.619C630.81 222.603 630.825 222.579 630.83 222.553C630.849 222.468 630.857 222.381 630.854 222.293C630.858 222.206 630.849 222.119 630.83 222.034C630.825 222.008 630.81 221.985 630.789 221.969C630.768 221.953 630.742 221.945 630.715 221.948C630.689 221.947 630.663 221.955 630.643 221.971C630.622 221.986 630.607 222.009 630.601 222.034C630.579 222.119 630.57 222.206 630.573 222.293C630.57 222.381 630.58 222.468 630.601 222.553C630.607 222.578 630.622 222.601 630.642 222.618C630.663 222.634 630.689 222.643 630.715 222.643ZM631.062 222.297C631.07 222.426 631.044 222.555 630.986 222.67C630.959 222.715 630.92 222.751 630.873 222.774C630.826 222.798 630.774 222.807 630.722 222.802C630.67 222.807 630.618 222.797 630.571 222.774C630.525 222.751 630.486 222.715 630.459 222.67C630.402 222.554 630.376 222.426 630.382 222.297C630.376 222.168 630.403 222.04 630.459 221.923C630.486 221.879 630.525 221.844 630.572 221.821C630.618 221.797 630.67 221.787 630.722 221.792C630.774 221.787 630.826 221.797 630.873 221.82C630.919 221.843 630.958 221.879 630.986 221.923C631.034 222.04 631.052 222.168 631.038 222.293L631.062 222.297Z" fill="white"/>
<path fill-rule="evenodd" clip-rule="evenodd" d="M631.478 222.048C631.478 222.019 631.467 221.992 631.447 221.972C631.426 221.952 631.399 221.941 631.371 221.941C631.356 221.941 631.342 221.943 631.329 221.949C631.316 221.954 631.304 221.962 631.294 221.972C631.284 221.982 631.276 221.994 631.271 222.007C631.265 222.02 631.263 222.034 631.263 222.048C631.263 222.062 631.265 222.076 631.271 222.089C631.276 222.102 631.284 222.114 631.294 222.124C631.304 222.134 631.316 222.142 631.329 222.147C631.342 222.152 631.356 222.155 631.371 222.155C631.399 222.155 631.426 222.144 631.447 222.124C631.467 222.104 631.478 222.076 631.478 222.048ZM631.371 222.3C631.337 222.301 631.304 222.294 631.274 222.281C631.243 222.268 631.216 222.249 631.194 222.224C631.149 222.178 631.124 222.116 631.124 222.051C631.124 221.987 631.149 221.925 631.194 221.878C631.216 221.854 631.243 221.834 631.274 221.821C631.304 221.808 631.337 221.802 631.371 221.802C631.404 221.802 631.438 221.808 631.469 221.821C631.5 221.834 631.528 221.854 631.551 221.878C631.586 221.914 631.609 221.959 631.618 222.007C631.628 222.056 631.622 222.107 631.603 222.152C631.584 222.198 631.552 222.237 631.51 222.265C631.469 222.292 631.42 222.307 631.371 222.307V222.3ZM632.029 222.432C632.001 222.432 631.974 222.443 631.953 222.463C631.933 222.483 631.922 222.51 631.922 222.539C631.921 222.553 631.924 222.567 631.929 222.58C631.935 222.593 631.943 222.605 631.953 222.615C631.963 222.625 631.975 222.633 631.988 222.638C632.001 222.643 632.015 222.646 632.029 222.646C632.058 222.646 632.085 222.635 632.105 222.615C632.126 222.595 632.137 222.567 632.137 222.539C632.137 222.525 632.134 222.511 632.129 222.498C632.124 222.485 632.116 222.473 632.106 222.463C632.096 222.453 632.084 222.446 632.071 222.441C632.057 222.436 632.043 222.434 632.029 222.435V222.432ZM632.029 222.777C631.997 222.778 631.964 222.772 631.933 222.76C631.903 222.747 631.875 222.728 631.853 222.705C631.804 222.657 631.777 222.593 631.776 222.525C631.776 222.492 631.783 222.459 631.796 222.429C631.809 222.399 631.828 222.371 631.853 222.349C631.899 222.304 631.961 222.279 632.026 222.279C632.091 222.279 632.153 222.304 632.199 222.349C632.224 222.371 632.243 222.398 632.257 222.429C632.27 222.459 632.276 222.492 632.276 222.525C632.276 222.559 632.27 222.592 632.256 222.623C632.243 222.654 632.224 222.682 632.199 222.705C632.179 222.731 632.153 222.752 632.124 222.768C632.095 222.783 632.062 222.792 632.029 222.795V222.777ZM631.922 221.778H632.026L631.478 222.784H631.374L631.922 221.778Z" fill="white"/>
<path d="M508.521 235.88L501.877 235.749L504.384 238.138L501.877 235.749L504.155 233.473" stroke="#454545" stroke-linecap="round" stroke-linejoin="round"/>
<path fill-rule="evenodd" clip-rule="evenodd" d="M622.306 231.554H627.123C627.541 231.579 627.932 231.768 628.211 232.08C628.489 232.391 628.633 232.801 628.61 233.218V237.841C628.632 238.258 628.488 238.666 628.21 238.978C627.931 239.289 627.54 239.478 627.123 239.504H622.306C621.889 239.478 621.498 239.289 621.22 238.978C620.941 238.666 620.797 238.258 620.819 237.841V233.218C620.796 232.801 620.94 232.391 621.219 232.08C621.497 231.768 621.888 231.579 622.306 231.554Z" fill="#BEBEBE" stroke="#454545" stroke-linecap="round" stroke-linejoin="round"/>
<path fill-rule="evenodd" clip-rule="evenodd" d="M623.368 236.672C623.562 236.311 623.848 236.007 624.196 235.79C624.455 235.616 624.701 235.423 624.931 235.213C625.091 235.054 625.183 234.84 625.188 234.615C625.194 234.455 625.141 234.299 625.039 234.175C624.975 234.112 624.899 234.063 624.814 234.033C624.729 234.003 624.638 233.993 624.549 234.003C624.46 234.013 624.374 234.043 624.298 234.091C624.221 234.139 624.157 234.203 624.11 234.279C624.046 234.442 624.015 234.616 624.019 234.791H623.222C623.221 234.493 623.287 234.2 623.413 233.93C623.525 233.724 623.696 233.555 623.903 233.444C624.111 233.334 624.347 233.286 624.581 233.307C624.963 233.29 625.336 233.421 625.621 233.674C625.752 233.798 625.855 233.949 625.923 234.116C625.99 234.283 626.021 234.462 626.013 234.642C626.017 234.939 625.921 235.229 625.739 235.465C625.567 235.669 625.366 235.848 625.143 235.994L624.796 236.226C624.592 236.375 624.449 236.478 624.377 236.544C624.3 236.608 624.235 236.684 624.182 236.769H626.006V237.492H623.149C623.16 237.206 623.235 236.926 623.368 236.672Z" fill="#454545"/>
<path fill-rule="evenodd" clip-rule="evenodd" d="M634.876 232.422C634.871 232.263 634.914 232.106 634.999 231.972C635.084 231.837 635.208 231.731 635.353 231.667C635.499 231.603 635.661 231.584 635.818 231.612C635.975 231.64 636.12 231.714 636.234 231.824C636.349 231.935 636.428 232.077 636.46 232.233C636.493 232.389 636.479 232.55 636.419 232.698C636.359 232.845 636.257 232.971 636.125 233.06C635.992 233.149 635.837 233.197 635.677 233.197C635.468 233.2 635.266 233.12 635.116 232.974C634.966 232.829 634.88 232.631 634.876 232.422Z" fill="#454545"/>
<path fill-rule="evenodd" clip-rule="evenodd" d="M634.914 234.964C634.911 234.806 634.954 234.65 635.04 234.517C635.126 234.384 635.249 234.28 635.394 234.217C635.54 234.154 635.701 234.136 635.856 234.164C636.012 234.193 636.156 234.267 636.269 234.378C636.382 234.488 636.46 234.63 636.492 234.785C636.525 234.94 636.51 235.1 636.45 235.247C636.39 235.393 636.288 235.518 636.156 235.607C636.025 235.695 635.87 235.742 635.712 235.742C635.503 235.744 635.301 235.663 635.152 235.517C635.002 235.371 634.917 235.172 634.914 234.964Z" fill="#454545"/>
<path fill-rule="evenodd" clip-rule="evenodd" d="M634.952 237.564C634.949 237.406 634.993 237.251 635.078 237.118C635.164 236.985 635.287 236.88 635.432 236.817C635.578 236.754 635.739 236.736 635.895 236.765C636.05 236.794 636.194 236.868 636.307 236.979C636.421 237.089 636.498 237.231 636.531 237.385C636.563 237.54 636.548 237.701 636.488 237.847C636.428 237.994 636.326 238.119 636.195 238.207C636.063 238.295 635.908 238.342 635.75 238.342C635.541 238.344 635.339 238.263 635.19 238.118C635.041 237.972 634.955 237.773 634.952 237.564Z" fill="#454545"/>
<line x1="501.563" y1="274.169" x2="574.889" y2="274.169" stroke="#F96132" stroke-width="10"/>
<line x1="501.563" y1="321.424" x2="574.889" y2="321.424" stroke="#F96132" stroke-width="10"/>
<line x1="501.563" y1="368.678" x2="574.889" y2="368.678" stroke="#F96132" stroke-width="10"/>
<line x1="501.563" y1="415.932" x2="574.889" y2="415.932" stroke="white" stroke-width="10"/>
<line x1="501.563" y1="289.921" x2="594.381" y2="289.921" stroke="#F7A501" stroke-width="10"/>
<line x1="501.563" y1="337.175" x2="594.381" y2="337.175" stroke="#F7A501" stroke-width="10"/>
<line x1="501.563" y1="384.429" x2="594.381" y2="384.429" stroke="#F96132" stroke-width="10"/>
<line x1="501.563" y1="431.684" x2="594.381" y2="431.684" stroke="#F7A501" stroke-width="10"/>
<line x1="501.563" y1="305.672" x2="553.541" y2="305.672" stroke="#F7A501" stroke-width="10"/>
<line x1="501.563" y1="352.927" x2="553.541" y2="352.927" stroke="white" stroke-width="10"/>
<line x1="501.563" y1="400.181" x2="553.541" y2="400.181" stroke="#F7A501" stroke-width="10"/>
<line x1="501.563" y1="447.435" x2="553.541" y2="447.435" stroke="white" stroke-width="10"/>
</g>
<defs>
<clipPath id="clip0">
<rect width="168" height="328" fill="white" transform="translate(483 193)"/>
</clipPath>
</defs>
</svg>
