<svg fill="none" viewBox="0 0 621 413"><rect width="468.865" height="392.129" fill="#F7A501" rx="33.558"/><rect width="11.229" height="39.034" fill="#F7A501" rx="5.614" transform="matrix(-.6478 -.76182 -.76181 .6478 606.162 103.878)"/><rect width="11.229" height="39.034" fill="#F7A501" rx="5.614" transform="matrix(-.91265 -.40875 -.40876 .91264 578.918 81.126)"/><rect width="11.229" height="39.034" fill="#F7A501" rx="5.614" transform="matrix(-.28111 -.95967 -.95968 .2811 621 133.533)"/><g clip-path="url(#clip0)"><path fill="#E6E6E6" fill-rule="evenodd" stroke="#E6E6E6" stroke-linecap="round" stroke-linejoin="round" stroke-width="1.678" d="M78.436 36.52h412.236a4.11 4.11 0 012.908 1.206 4.125 4.125 0 011.204 2.914v283.036c0 1.092-.433 2.14-1.204 2.913a4.107 4.107 0 01-2.908 1.207H78.436a4.094 4.094 0 01-2.91-1.205 4.12 4.12 0 01-1.205-2.915V40.64a4.128 4.128 0 011.205-2.915 4.111 4.111 0 012.91-1.206z" clip-rule="evenodd"/><path fill="#DCDCDC" fill-rule="evenodd" stroke="#DCDCDC" stroke-linecap="round" stroke-linejoin="round" stroke-width="1.678" d="M73.095 330.425l1.51-281.237 63.141.321 16.44-13.724h59.883l11.393 14.295 270.279 1.016 1.22 277.851-423.866 1.478z" clip-rule="evenodd"/><path fill="#fff" fill-rule="evenodd" stroke="#fff" stroke-linecap="round" stroke-linejoin="round" stroke-width="1.678" d="M141.436 54.598H466.6c2.922 0 5.293 1.843 5.293 4.117v2.491c0 2.277-2.371 4.12-5.293 4.12H141.436c-2.921 0-5.29-1.843-5.29-4.12v-2.491c0-2.274 2.369-4.117 5.29-4.117zM78.033 41.493a1.647 1.647 0 01.933-1.599 1.639 1.639 0 012.307 1.126 1.648 1.648 0 01-.68 1.721 1.639 1.639 0 01-.925.284 1.598 1.598 0 01-1.635-1.532zm8.487.054a1.645 1.645 0 01.933-1.592 1.635 1.635 0 011.822.284 1.643 1.643 0 01-1.12 2.84 1.599 1.599 0 01-1.635-1.532zm8.365.061a1.644 1.644 0 01.934-1.592 1.637 1.637 0 012.3 1.123 1.645 1.645 0 01-.677 1.717 1.637 1.637 0 01-.921.285 1.599 1.599 0 01-1.636-1.533z" clip-rule="evenodd"/><path stroke="#fff" stroke-linecap="round" stroke-linejoin="round" stroke-width="1.678" d="M207.771 41.842l4.762 5.205m-5.056-.28l5.008-4.963"/><path fill="#DCDCDC" fill-rule="evenodd" stroke="#DCDCDC" stroke-linecap="round" stroke-linejoin="round" stroke-width="1.678" d="M224.3 38.52l5.287 6.233h12.235l-5.524-6.156-11.998-.077z" clip-rule="evenodd"/><path fill="#C8C8C8" fill-rule="evenodd" stroke="#C8C8C8" stroke-linecap="round" stroke-linejoin="round" stroke-width=".839" d="M77.685 70.607h414.268a4.109 4.109 0 012.905 1.208 4.123 4.123 0 011.204 2.913v250.8a4.127 4.127 0 01-2.536 3.807 4.108 4.108 0 01-1.573.314H77.685a4.107 4.107 0 01-2.908-1.207 4.127 4.127 0 01-1.205-2.914v-250.8c0-1.093.433-2.141 1.205-2.914a4.108 4.108 0 012.908-1.207z" clip-rule="evenodd"/><path stroke="#C8C8C8" stroke-linecap="round" stroke-linejoin="round" stroke-width="1.678" d="M139.798 59.368a2.498 2.498 0 013.021-2.38c.48.103.919.346 1.261.698a2.507 2.507 0 01.513 2.718 2.495 2.495 0 01-2.299 1.53 2.524 2.524 0 01-2.496-2.566v0z" clip-rule="evenodd"/><path stroke="#C8C8C8" stroke-linecap="round" stroke-linejoin="round" stroke-width="1.678" d="M143.968 61.309l2.109 1.924"/><path stroke="#BEBEBE" stroke-linecap="round" stroke-linejoin="round" stroke-width="1.678" d="M478.767 56.508l9.188-.052m-9.188 3.82l9.188-.051m-9.242 4.027l9.188-.051M86.683 60.06l-6.135-.122 2.317 2.213-2.317-2.213 2.106-2.113m8.532 2.292l6.132.087-2.327-2.2 2.327 2.2-2.093 2.126m16.983.215c-.889 1.058-1.658 1.49-3.398 1.404-1.652-.083-3.502-1.283-3.374-3.572.119-2.052 1.415-3.873 4.247-3.61 1.754.163 3.108 2.85 3.108 2.85s-1.642.064-1.623.084c.019.019 1.703 0 1.703 0l.585-1.562"/><path fill="#BEBEBE" fill-rule="evenodd" stroke="#BEBEBE" stroke-linecap="round" stroke-linejoin="round" stroke-width=".839" d="M121.684 64.249V60.24l-1.2-.055 1.978-2.046v-1.337l.72-.048-.016.757 1.575-1.658 3.875 4.425-1.373-.032.189 4.024-1.962-.06v-2.014a.868.868 0 00-.246-.662.851.851 0 00-.656-.256c-.682-.048-.871.962-.871.962l-.057 1.966-1.956.042z" clip-rule="evenodd"/><path fill="#35416B" fill-rule="evenodd" stroke="#BEBEBE" stroke-linecap="round" stroke-linejoin="round" stroke-width="1.678" d="M87.368 74.138h394.849c4.749 0 8.599 3.934 8.599 8.789v231.625c0 4.855-3.84 8.789-8.599 8.789H87.368c-4.75 0-8.599-3.934-8.599-8.789V82.927c0-4.855 3.85-8.79 8.6-8.79z" clip-rule="evenodd"/><path stroke="#F7A501" stroke-width="8.391" d="M98.289 107.369h272.54m-272.54 53.657h72.988"/><path stroke="#fff" stroke-width="8.391" d="M98.289 214.682h61.341"/><path stroke="#F96132" stroke-width="8.391" d="M98.289 120.589h136.658"/><path stroke="#F7A501" stroke-width="8.391" d="M98.289 174.245h249.246"/><path stroke="#fff" stroke-width="8.391" d="M98.289 269.116h192.564"/><path stroke="#F7A501" stroke-width="8.391" d="M98.289 283.891h249.246"/><path stroke="#F96132" stroke-width="8.391" d="M98.289 299.443h186.352"/><path stroke="#fff" stroke-width="8.391" d="M98.289 227.901h77.647m-77.647-94.093h155.293M98.289 187.465h145.199"/><path stroke="#F96132" stroke-width="8.391" d="M98.289 241.121h43.482m-43.482-93.315h201.105"/><path stroke="#F7A501" stroke-width="8.391" d="M98.289 201.462h211.199M98.289 255.119h133.552"/></g><g clip-path="url(#clip1)"><path fill="#F0F0F0" fill-rule="evenodd" stroke="#E6E6E6" stroke-linecap="round" stroke-linejoin="round" stroke-width="1.678" d="M423.154 137.244h118.134c2.95 0 5.78 1.169 7.866 3.249a11.082 11.082 0 013.258 7.845v252.458a11.08 11.08 0 01-3.258 7.844 11.142 11.142 0 01-7.866 3.249H423.154a11.14 11.14 0 01-7.862-3.245 11.082 11.082 0 01-3.262-7.837V148.349a11.072 11.072 0 013.254-7.852 11.14 11.14 0 017.87-3.253z" clip-rule="evenodd"/><path fill="#BEBEBE" fill-rule="evenodd" d="M468.406 392.134c0-7.113 5.863-12.879 13.093-12.879 7.231 0 13.094 5.766 13.094 12.879 0 7.112-5.863 12.875-13.094 12.875-7.23 0-13.093-5.766-13.093-12.875z" clip-rule="evenodd"/><path fill="#35416B" fill-rule="evenodd" stroke="#fff" stroke-linecap="round" stroke-linejoin="round" stroke-width="1.678" d="M423.96 158.717h117.956c2.401 0 4.345 1.64 4.345 3.662v208.127c0 2.031-1.944 3.662-4.345 3.662H423.96c-2.398 0-4.341-1.639-4.341-3.662V162.379c.011-2.022 1.955-3.662 4.341-3.662z" clip-rule="evenodd"/><path fill="#BEBEBE" fill-rule="evenodd" stroke="#C8C8C8" stroke-linecap="round" stroke-linejoin="round" stroke-width=".084" d="M423.177 158.427h119.694a3.798 3.798 0 012.67 1.13 3.761 3.761 0 011.083 2.683v23.505h-127.2V162.24a3.761 3.761 0 011.083-2.683 3.79 3.79 0 012.67-1.13z" clip-rule="evenodd"/><path fill="#BEBEBE" fill-rule="evenodd" stroke="#BEBEBE" stroke-linecap="round" stroke-linejoin="round" stroke-width="1.678" d="M471.359 147.656h27.27a1.778 1.778 0 011.267.521 1.778 1.778 0 01.525 1.263 1.791 1.791 0 01-1.792 1.788h-27.27a1.791 1.791 0 01-1.656-2.471 1.793 1.793 0 011.656-1.101zm-11.991 2.066a1.888 1.888 0 012.253-1.863 1.894 1.894 0 011.493 1.479 1.886 1.886 0 01-1.854 2.259 1.875 1.875 0 01-1.746-1.156 1.87 1.87 0 01-.146-.719z" clip-rule="evenodd"/><path fill="#fff" fill-rule="evenodd" stroke="#fff" stroke-linecap="round" stroke-linejoin="round" stroke-width=".084" d="M439.576 167.878h83.453a.48.48 0 01.333.133.464.464 0 01.142.329v8.145a.479.479 0 01-.142.329.48.48 0 01-.333.133h-83.453a.463.463 0 01-.335-.132.48.48 0 01-.142-.33v-8.145a.475.475 0 01.142-.33.477.477 0 01.335-.132zm-17.597-7.237a.578.578 0 01.359-.536.585.585 0 01.634.126.58.58 0 11-.823.821.581.581 0 01-.17-.411zm1.629-.011a.582.582 0 11.907.466.583.583 0 01-.907-.466zm1.53 0a.582.582 0 11.907.466.585.585 0 01-.907-.466zm1.566.009a.577.577 0 01.349-.547.583.583 0 01.772.751.589.589 0 01-.946.197.584.584 0 01-.175-.401zm1.603.049a.578.578 0 01.684-.589.577.577 0 01.467.451.583.583 0 01-.975.537.58.58 0 01-.176-.399z" clip-rule="evenodd"/><path fill="#fff" fill-rule="evenodd" d="M431.432 160.439h-.244v.368h.244a.216.216 0 00.143-.043.182.182 0 00.052-.143.173.173 0 00-.052-.142.227.227 0 00-.143-.04zm.02.58h-.264v.45h-.262v-1.254h.547a.44.44 0 01.291.099.37.37 0 01.11.29.373.373 0 01-.11.313.504.504 0 01-.312.122v-.02zm.632.455v-1.253h.259v.479h.492v-.479h.259v1.253h-.259v-.56h-.492v.56h-.259zm2.156-.627a.52.52 0 00-.09-.328.328.328 0 00-.249-.113.325.325 0 00-.249.113.626.626 0 000 .653.324.324 0 00.498 0 .507.507 0 00.09-.325zm.073.517a.657.657 0 01-.824 0 .68.68 0 01-.192-.517.668.668 0 01.192-.519.657.657 0 01.824 0 .652.652 0 01.189.519.679.679 0 01-.189.517zm.387-1.143h.273l.501.87v-.87h.244v1.253h-.262l-.512-.891v.891h-.244v-1.253zm2.194.238h-.667v.264h.611v.217h-.611v.323h.696v.226h-.952v-1.254h.923v.224zm2.578.992a.335.335 0 01.66 0c0 .154-.332.29-.332.29s-.328-.122-.328-.29z" clip-rule="evenodd"/><path stroke="#fff" stroke-linecap="round" stroke-linejoin="round" stroke-width=".42" d="M438.707 161.039a1.093 1.093 0 011.094-.839.81.81 0 01.235.029 1.39 1.39 0 01.894.836"/><path stroke="#fff" stroke-linecap="round" stroke-linejoin="round" stroke-width=".42" d="M438.296 160.79a1.43 1.43 0 011.472-1.036 1.14 1.14 0 01.314.032 1.8 1.8 0 011.205 1.035"/><path stroke="#fff" stroke-linecap="round" stroke-linejoin="round" stroke-width=".42" d="M439.09 161.312a.76.76 0 01.728-.581.776.776 0 01.721.624"/><path fill="#F0F0F0" fill-rule="evenodd" d="M478.977 160.458v-.22c.071-.002.142-.009.212-.02a.301.301 0 00.16-.087.292.292 0 00.064-.117.243.243 0 000-.066h.271v1.642h-.332v-1.132h-.375zm1.28.798a.916.916 0 01.329-.348c.103-.069.2-.145.291-.229a.327.327 0 00.113-.221.247.247 0 00-.058-.174.236.236 0 00-.366.041.567.567 0 00-.038.203h-.314a.825.825 0 01.075-.339.48.48 0 01.463-.247.582.582 0 01.416.145.497.497 0 01.154.383.513.513 0 01-.11.322 1.058 1.058 0 01-.236.212l-.128.09a2.893 2.893 0 00-.166.125.314.314 0 00-.076.09h.719v.29h-1.129a.809.809 0 01.061-.343zm1.411-.864h.343v.339h-.343v-.339zm0 .85h.343v.336h-.343v-.336zm1.152.116a.188.188 0 00.123-.04.188.188 0 00.066-.111 2.197 2.197 0 000-.87.18.18 0 00-.189-.143.192.192 0 00-.122.037.184.184 0 00-.07.106 2.09 2.09 0 000 .87.192.192 0 00.192.151zm.582-.58a1.25 1.25 0 01-.128.624.465.465 0 01-.439.22.461.461 0 01-.442-.22 1.25 1.25 0 01-.128-.624 1.27 1.27 0 01.128-.63.466.466 0 01.442-.22.459.459 0 01.439.22c.09.196.129.412.114.627l.014.003zm.713.58a.19.19 0 00.189-.151 2.197 2.197 0 000-.87.176.176 0 00-.068-.106.189.189 0 00-.121-.037.192.192 0 00-.122.037.184.184 0 00-.07.106 2.09 2.09 0 000 .87.192.192 0 00.192.151zm.582-.58a1.25 1.25 0 01-.128.624.461.461 0 01-.439.22.473.473 0 01-.443-.22 1.272 1.272 0 01-.128-.624 1.293 1.293 0 01.128-.63.46.46 0 01.443-.22.454.454 0 01.439.22c.09.196.129.412.114.627l.014.003zm1.577-.58h-.337v.493h.325a.291.291 0 00.193-.061.233.233 0 00.069-.188.221.221 0 00-.012-.102.232.232 0 00-.057-.084.294.294 0 00-.181-.058zm.029.78h-.366v.601h-.35v-1.671h.731a.577.577 0 01.401.13.496.496 0 01.152.401.497.497 0 01-.028.226.497.497 0 01-.124.192.656.656 0 01-.416.121zm1.961-1.071h.504v1.672h-.326v-1.411l-.317 1.402h-.338l-.326-1.402v1.402h-.326v-1.663h.509l.291 1.315.329-1.315z" clip-rule="evenodd"/><path fill="#fff" fill-rule="evenodd" stroke="#fff" stroke-linecap="round" stroke-linejoin="round" stroke-width=".839" d="M538.806 160.522h4.85a.437.437 0 01.396.462v1.19a.43.43 0 01-.396.461h-4.85a.433.433 0 01-.396-.461v-.32h-.582v-.58h.582v-.29a.434.434 0 01.396-.462z" clip-rule="evenodd"/><path fill="#BEBEBE" fill-rule="evenodd" d="M540.328 160.731h3.081a.46.46 0 01.327.136.458.458 0 01.136.326v.902a.462.462 0 01-.463.462h-3.081a.463.463 0 01-.463-.462v-.902c0-.123.049-.24.136-.326a.46.46 0 01.327-.136z" clip-rule="evenodd"/><path fill="#fff" fill-rule="evenodd" d="M535.029 161.828a.113.113 0 00.088-.035.131.131 0 00.032-.092.129.129 0 00-.007-.052.118.118 0 00-.028-.044.136.136 0 00-.039-.025.12.12 0 00-.046-.007.125.125 0 00-.047.007.112.112 0 00-.04.025.15.15 0 00-.026.044.151.151 0 00-.006.052.12.12 0 00.007.049.116.116 0 00.065.071.108.108 0 00.047.007zm-.163-.328a.187.187 0 01-.078-.084.26.26 0 01-.018-.087.211.211 0 01.067-.154.296.296 0 01.192-.061.273.273 0 01.189.061c.023.019.04.043.052.07a.202.202 0 01-.002.171.166.166 0 01-.076.079.233.233 0 01.09.089c.021.04.032.084.032.128a.214.214 0 01-.02.097.229.229 0 01-.058.08.28.28 0 01-.1.058.283.283 0 01-.115.015.294.294 0 01-.21-.073.252.252 0 01-.07-.177c0-.044.011-.088.032-.128a.229.229 0 01.093-.084zm.163-.052a.105.105 0 00.076-.026.11.11 0 00.026-.075.096.096 0 00-.025-.077.093.093 0 00-.036-.021.081.081 0 00-.041-.004.117.117 0 00-.078.026.101.101 0 00-.026.076.105.105 0 00.026.075c.022.018.05.027.078.026zm.664.38a.094.094 0 00.096-.075.844.844 0 00.02-.218.844.844 0 00-.02-.218.097.097 0 00-.034-.054.087.087 0 00-.062-.018.094.094 0 00-.096.072.806.806 0 00-.024.218.801.801 0 00.024.218c.005.021.017.04.035.054a.096.096 0 00.061.021zm.291-.29a.628.628 0 01-.064.313.237.237 0 01-.095.088.239.239 0 01-.126.023.232.232 0 01-.127-.024.228.228 0 01-.095-.087.65.65 0 01-.064-.313.65.65 0 01.064-.313.241.241 0 01.095-.087.251.251 0 01.127-.024.23.23 0 01.126.024.228.228 0 01.095.087c.04.098.055.205.043.31l.021.003zm.349-.209a.09.09 0 00-.125-.083.084.084 0 00-.029.02.084.084 0 00-.02.029.08.08 0 00-.007.034c0 .012.002.024.007.035a.084.084 0 00.02.029.084.084 0 00.029.02.103.103 0 00.035.006.09.09 0 00.064-.026.094.094 0 00.026-.064zm-.09.212a.186.186 0 01-.081-.016.211.211 0 010-.386.21.21 0 01.163 0 .217.217 0 01.126.157.21.21 0 01-.091.215.212.212 0 01-.117.036v-.006zm.553.11a.09.09 0 00-.064.027.09.09 0 00-.027.063c0 .012.002.024.007.035a.072.072 0 00.02.029.084.084 0 00.029.02.103.103 0 00.035.006.09.09 0 00.09-.09.083.083 0 00-.007-.034.081.081 0 00-.049-.048.1.1 0 00-.034-.005v-.003zm0 .291a.224.224 0 01-.081-.015.219.219 0 01-.132-.197.206.206 0 01.064-.148.208.208 0 01.291 0 .18.18 0 01.048.067.186.186 0 01.016.081.205.205 0 01-.064.151.205.205 0 01-.142.075v-.014zm-.091-.839h.088l-.46.844h-.087l.459-.844z" clip-rule="evenodd"/><path stroke="#454545" stroke-linecap="round" stroke-linejoin="round" stroke-width=".839" d="M433.155 172.937l-5.575-.111 2.103 2.006-2.103-2.006 1.911-1.909"/><path fill="#BEBEBE" fill-rule="evenodd" stroke="#454545" stroke-linecap="round" stroke-linejoin="round" stroke-width=".839" d="M528.636 169.306h4.042a1.325 1.325 0 011.248 1.396v3.88a1.325 1.325 0 01-1.248 1.395h-4.042a1.333 1.333 0 01-.912-.441 1.333 1.333 0 01-.336-.954v-3.88a1.326 1.326 0 011.248-1.396z" clip-rule="evenodd"/><path fill="#454545" fill-rule="evenodd" d="M529.527 173.601c.163-.303.403-.558.695-.74.218-.146.424-.308.617-.485a.73.73 0 00.216-.502.547.547 0 00-.125-.368.501.501 0 00-.78.087 1.107 1.107 0 00-.076.429h-.669c0-.249.054-.496.16-.722a1.01 1.01 0 01.98-.522c.321-.015.634.095.873.307a1.048 1.048 0 01.329.813c.003.249-.078.492-.23.69a2.299 2.299 0 01-.5.444l-.291.195a5.114 5.114 0 00-.352.267.772.772 0 00-.163.188h1.53v.607h-2.397c.009-.24.072-.475.183-.688zm9.657-3.567a.666.666 0 01.791-.68.677.677 0 01.539.522.676.676 0 01-.282.694.678.678 0 01-.375.114.66.66 0 01-.673-.65zm.032 2.134a.665.665 0 01.403-.627.67.67 0 01.886.864.669.669 0 01-1.289-.237zm.032 2.181a.661.661 0 01.403-.626.665.665 0 01.922.476.67.67 0 01-.656.803.662.662 0 01-.669-.653z" clip-rule="evenodd"/><path stroke="#F96132" stroke-width="8.391" d="M427.316 205.066h61.531m-61.531 39.653h61.531m-61.531 39.653h61.531"/><path stroke="#fff" stroke-width="8.391" d="M427.316 324.025h61.531"/><path stroke="#F7A501" stroke-width="8.391" d="M427.316 218.284h77.887m-77.887 39.653h77.887"/><path stroke="#F96132" stroke-width="8.391" d="M427.316 297.589h77.887"/><path stroke="#F7A501" stroke-width="8.391" d="M427.316 337.242h77.887m-77.887-105.74h43.617"/><path stroke="#fff" stroke-width="8.391" d="M427.316 271.154h43.617"/><path stroke="#F7A501" stroke-width="8.391" d="M427.316 310.807h43.617"/><path stroke="#fff" stroke-width="8.391" d="M427.316 350.46h43.617"/></g><defs><clipPath id="clip0"><path fill="#fff" d="M0 0h426.282v297.055H0z" transform="translate(71.889 34.58)"/></clipPath><clipPath id="clip1"><path fill="#fff" d="M0 0h140.975v275.237H0z" transform="translate(411.739 136.954)"/></clipPath></defs></svg>