<svg fill="none" viewBox="0 0 209 183"><rect width="4.111" height="14.291" fill="#F7A501" rx="2.055" transform="scale(-1 1) rotate(-49.624 -40.83 248.338)"/><rect width="4.111" height="14.291" fill="#F7A501" rx="2.055" transform="scale(-1 1) rotate(-24.127 15.576 476.94)"/><rect width="4.111" height="14.291" fill="#F7A501" rx="2.055" transform="scale(-1 1) rotate(-73.674 -59.634 173.11)"/><rect width="203" height="170" x="-75" fill="#F7A501" rx="20"/><g clip-path="url(#clip0)"><path fill="#E6E6E6" fill-rule="evenodd" stroke="#E6E6E6" stroke-linecap="round" stroke-linejoin="round" stroke-width="2" d="M12.642 20.784h166.333c.44 0 .862.175 1.173.487.311.312.486.736.486 1.177v114.337c0 .441-.175.865-.486 1.177a1.657 1.657 0 01-1.173.488H12.642a1.67 1.67 0 01-1.175-.487 1.666 1.666 0 01-.486-1.178V22.448a1.668 1.668 0 011.026-1.538c.201-.084.417-.127.635-.126v0z" clip-rule="evenodd"/><path fill="#DCDCDC" fill-rule="evenodd" stroke="#DCDCDC" stroke-linecap="round" stroke-linejoin="round" stroke-width=".5" d="M10.487 139.511l.61-113.61 25.476.13 6.633-5.544h24.162l4.597 5.774 109.055.411.492 112.242-171.025.597z" clip-rule="evenodd"/><path fill="#fff" fill-rule="evenodd" stroke="#fff" stroke-linecap="round" stroke-linejoin="round" stroke-width="2" d="M38.062 28.086h131.2c1.179 0 2.135.745 2.135 1.664v1.006c0 .92-.956 1.665-2.135 1.665h-131.2c-1.18 0-2.135-.745-2.135-1.665V29.75c0-.919.956-1.664 2.135-1.664z" clip-rule="evenodd"/><path fill="#fff" fill-rule="evenodd" stroke="#fff" stroke-linecap="round" stroke-linejoin="round" d="M12.48 22.793a.666.666 0 01.762-.702.662.662 0 01.514.901.663.663 0 01-.617.42.644.644 0 01-.66-.62v0zm3.424.022a.664.664 0 01.761-.7.66.66 0 01.543.51.666.666 0 01-.273.694.66.66 0 01-.371.115.644.644 0 01-.66-.62v0zm3.375.024a.665.665 0 01.377-.643.66.66 0 01.928.453.664.664 0 01-1.101.635.648.648 0 01-.204-.445v0z" clip-rule="evenodd"/><path stroke="#fff" stroke-linecap="round" stroke-linejoin="round" d="M64.827 22.934l1.921 2.102m-2.04-.113l2.021-2.005"/><path fill="#DCDCDC" fill-rule="evenodd" stroke="#DCDCDC" stroke-linecap="round" stroke-linejoin="round" stroke-width="2" d="M71.496 21.592l2.134 2.518h4.936l-2.229-2.487-4.84-.031z" clip-rule="evenodd"/><path fill="#C8C8C8" fill-rule="evenodd" stroke="#C8C8C8" stroke-linecap="round" stroke-linejoin="round" d="M12.338 34.554h167.153c.44 0 .862.176 1.172.488.311.312.486.736.486 1.177v101.315a1.679 1.679 0 01-.485 1.177 1.656 1.656 0 01-1.173.487H12.338a1.648 1.648 0 01-1.173-.487 1.669 1.669 0 01-.486-1.177V36.219c0-.442.175-.865.486-1.177a1.657 1.657 0 011.173-.488z" clip-rule="evenodd"/><path stroke="#C8C8C8" stroke-linecap="round" stroke-linejoin="round" stroke-width=".5" d="M37.4 30.015a1.013 1.013 0 01.64-.915 1.005 1.005 0 011.357.753 1.013 1.013 0 01-.432 1.03c-.165.11-.36.168-.557.168a1.016 1.016 0 01-.935-.643 1.023 1.023 0 01-.072-.393v0z" clip-rule="evenodd"/><path stroke="#C8C8C8" stroke-linecap="round" stroke-linejoin="round" stroke-width=".5" d="M39.083 30.798l.851.777"/><path stroke="#BEBEBE" stroke-linecap="round" stroke-linejoin="round" stroke-width=".5" d="M174.171 28.86l3.707-.022m-3.707 1.543l3.707-.02m-3.729 1.626l3.707-.02M15.97 30.293l-2.476-.05.935.895-.935-.894.85-.854m3.442.927l2.474.034-.938-.888.938.889-.844.858m6.853.087c-.36.428-.67.602-1.372.567-.666-.033-1.412-.518-1.36-1.443.047-.829.57-1.564 1.713-1.458.707.066 1.254 1.151 1.254 1.151s-.663.026-.655.034c.008.008.687 0 .687 0l.236-.63"/><path fill="#BEBEBE" fill-rule="evenodd" stroke="#BEBEBE" stroke-linecap="round" stroke-linejoin="round" stroke-width=".5" d="M30.092 31.986v-1.62l-.484-.021.798-.827v-.54l.29-.02-.006.306.635-.67 1.564 1.788-.554-.013.076 1.626-.791-.025v-.813a.347.347 0 00-.364-.37c-.276-.02-.352.388-.352.388l-.023.794-.789.017z" clip-rule="evenodd"/><path fill="#35416B" fill-rule="evenodd" stroke="#BEBEBE" stroke-linecap="round" stroke-linejoin="round" stroke-width=".5" d="M16.246 35.98h159.317c1.916 0 3.47 1.59 3.47 3.55v93.57c0 1.961-1.55 3.55-3.47 3.55H16.246c-1.916 0-3.47-1.589-3.47-3.55V39.53c0-1.96 1.554-3.55 3.47-3.55z" clip-rule="evenodd"/><path stroke="#F7A501" stroke-width="3" d="M20.652 49.6h109.967M20.652 71.275h29.45"/><path stroke="#fff" stroke-width="3" d="M20.652 92.95h24.751"/><path stroke="#F96132" stroke-width="3" d="M20.652 54.94h55.14"/><path stroke="#F7A501" stroke-width="3" d="M20.652 76.615H121.22"/><path stroke="#fff" stroke-width="3" d="M20.652 114.939H98.35"/><path stroke="#F7A501" stroke-width="3" d="M20.652 120.909H121.22"/><path stroke="#F96132" stroke-width="3" d="M20.652 127.191h75.191"/><path stroke="#fff" stroke-width="3" d="M20.652 98.29h31.33m-31.33-38.01h62.659M20.652 81.956h58.587"/><path stroke="#F96132" stroke-width="3" d="M20.652 103.631h17.545M20.652 65.935h81.144"/><path stroke="#F7A501" stroke-width="3" d="M20.652 87.61h85.217m-85.217 21.675h53.887"/></g><path fill="#F0F0F0" fill-rule="evenodd" stroke="#E6E6E6" stroke-linecap="round" stroke-linejoin="round" d="M135.655 67h49.441c1.235 0 2.419.488 3.292 1.358a4.626 4.626 0 011.364 3.277v105.483a4.624 4.624 0 01-1.364 3.277 4.667 4.667 0 01-3.292 1.358h-49.441a4.668 4.668 0 01-3.29-1.356 4.623 4.623 0 01-1.365-3.275V71.64a4.63 4.63 0 012.873-4.287 4.673 4.673 0 011.782-.353v0z" clip-rule="evenodd"/><path fill="#BEBEBE" fill-rule="evenodd" d="M154.594 173.498c0-2.971 2.454-5.38 5.48-5.38 3.026 0 5.48 2.409 5.48 5.38 0 2.972-2.454 5.38-5.48 5.38-3.026 0-5.48-2.409-5.48-5.38z" clip-rule="evenodd"/><path fill="#35416B" fill-rule="evenodd" d="M135.993 75.972h49.366c1.005 0 1.818.685 1.818 1.53v86.96c0 .849-.813 1.53-1.818 1.53h-49.366c-1.004 0-1.817-.685-1.817-1.53v-86.96c.005-.845.818-1.53 1.817-1.53z" clip-rule="evenodd"/><path fill="#BEBEBE" fill-rule="evenodd" d="M135.665 75.85h50.094a1.59 1.59 0 011.117.473 1.578 1.578 0 01.453 1.12v9.822h-53.235v-9.821a1.571 1.571 0 01.454-1.121 1.578 1.578 0 011.117-.472z" clip-rule="evenodd"/><path fill="#BEBEBE" fill-rule="evenodd" stroke="#BEBEBE" stroke-linecap="round" stroke-linejoin="round" d="M155.83 71.35h11.413a.753.753 0 01.693.46c.037.09.057.188.057.286v0a.752.752 0 01-.75.747H155.83a.748.748 0 01-.75-.747v0a.738.738 0 01.22-.528.74.74 0 01.53-.218v0zm-5.018.863a.786.786 0 01.943-.778.793.793 0 01.624.618.782.782 0 01-.336.81.792.792 0 01-1.231-.65v0z" clip-rule="evenodd"/><path fill="#fff" fill-rule="evenodd" stroke="#fff" stroke-linecap="round" stroke-linejoin="round" d="M142.528 79.8h34.927a.198.198 0 01.182.118c.01.024.016.049.016.075v3.403a.192.192 0 01-.059.137.19.19 0 01-.139.056h-34.927a.195.195 0 01-.199-.193v-3.403a.199.199 0 01.059-.138.203.203 0 01.14-.055v0z" clip-rule="evenodd"/><path fill="#fff" fill-rule="evenodd" d="M135.163 76.776a.243.243 0 01.292-.238.242.242 0 01-.048.48.242.242 0 01-.172-.07.241.241 0 01-.072-.172zm.682-.005a.244.244 0 01.482-.056.242.242 0 01-.102.251.245.245 0 01-.306-.027.242.242 0 01-.074-.168zm.641 0a.243.243 0 11.486-.011.243.243 0 01-.486.011zm.655.003a.243.243 0 11.38.195.242.242 0 01-.38-.195zm.671.021a.252.252 0 01.037-.136.247.247 0 01.249-.11.245.245 0 01.196.189.243.243 0 01-.408.224.24.24 0 01-.074-.167zm1.308-.104h-.102v.154h.102a.09.09 0 00.06-.018.062.062 0 00.017-.027.07.07 0 00.005-.032.071.071 0 00-.005-.033.062.062 0 00-.017-.027.096.096 0 00-.06-.017zm.009.243h-.111v.188h-.11v-.524h.229a.184.184 0 01.122.041.154.154 0 01.046.121.16.16 0 01-.046.131.212.212 0 01-.13.051v-.008zm.264.19V76.6h.108v.2h.206v-.2h.108v.524h-.108v-.234h-.206v.234h-.108zm.902-.262a.216.216 0 00-.038-.137.138.138 0 00-.208 0 .263.263 0 00-.039.137c0 .048.014.095.039.136a.141.141 0 00.047.036.133.133 0 00.115 0 .128.128 0 00.046-.036.212.212 0 00.038-.136zm.03.216a.272.272 0 01-.344 0 .282.282 0 01-.08-.216.26.26 0 01.016-.117.283.283 0 01.064-.1.274.274 0 01.344 0 .27.27 0 01.08.217.288.288 0 01-.08.216zm.163-.478h.114l.209.364V76.6h.103v.524h-.11l-.214-.372v.372h-.102V76.6zm.918.1h-.279v.11h.256v.09h-.256v.135h.291v.095h-.398v-.524h.386v.093zm1.079.414a.138.138 0 01.138-.117.14.14 0 01.09.033.135.135 0 01.048.084c0 .064-.139.121-.139.121s-.137-.05-.137-.12z" clip-rule="evenodd"/><path stroke="#fff" stroke-linecap="round" stroke-linejoin="round" stroke-width=".2" d="M142.164 76.942a.462.462 0 01.557-.338.586.586 0 01.374.35"/><path fill="#F0F0F0" fill-rule="evenodd" d="M159.018 76.7v-.092a.706.706 0 00.089-.009.121.121 0 00.067-.036.116.116 0 00.027-.049.13.13 0 000-.028h.113v.687h-.139V76.7h-.157zm.536.333a.38.38 0 01.137-.145c.043-.03.084-.061.122-.096a.143.143 0 00.048-.093.107.107 0 00-.025-.072.1.1 0 00-.081-.028.103.103 0 00-.041.014.094.094 0 00-.031.03.246.246 0 00-.016.086h-.132a.365.365 0 01.032-.142.203.203 0 01.081-.08.204.204 0 01.113-.023.244.244 0 01.174.06.214.214 0 01.064.16.207.207 0 01-.046.135.432.432 0 01-.098.088l-.054.038a1.402 1.402 0 00-.069.052.13.13 0 00-.032.038h.301v.121h-.473a.334.334 0 01.026-.143zm.59-.361h.144v.142h-.144v-.142zm0 .355h.144v.14h-.144v-.14zm.483.048a.08.08 0 00.051-.017.083.083 0 00.028-.046.928.928 0 000-.364.075.075 0 00-.029-.044.074.074 0 00-.05-.015.076.076 0 00-.051.015.08.08 0 00-.03.044.892.892 0 000 .364.079.079 0 00.029.046.082.082 0 00.052.017zm.243-.242a.522.522 0 01-.053.26.192.192 0 01-.184.093.195.195 0 01-.185-.093.523.523 0 01-.054-.26.533.533 0 01.054-.263.192.192 0 01.185-.092.191.191 0 01.184.092.536.536 0 01.047.262h.006zm.298.242a.082.082 0 00.052-.017.083.083 0 00.028-.046.928.928 0 000-.364.078.078 0 00-.08-.06.08.08 0 00-.051.016.08.08 0 00-.029.044.858.858 0 000 .364.081.081 0 00.08.063zm.244-.242a.523.523 0 01-.054.26.19.19 0 01-.183.093.193.193 0 01-.106-.02.201.201 0 01-.08-.073.522.522 0 01-.053-.26.532.532 0 01.053-.263.201.201 0 01.08-.073.194.194 0 01.106-.02.193.193 0 01.183.093.537.537 0 01.048.262h.006zm.66-.243h-.141v.206h.136a.124.124 0 00.081-.025.1.1 0 00.029-.079.097.097 0 00-.029-.078.124.124 0 00-.076-.024zm.012.326h-.153v.252h-.146v-.699h.305a.244.244 0 01.168.055c.023.021.04.047.051.076.011.03.015.06.013.091a.218.218 0 01-.064.175.275.275 0 01-.174.05zm.821-.447h.211v.699h-.137v-.59l-.132.586h-.142l-.136-.586v.586h-.136v-.695h.213l.121.55.138-.55z" clip-rule="evenodd"/><path fill="#fff" fill-rule="evenodd" stroke="#fff" stroke-linecap="round" stroke-linejoin="round" stroke-width=".2" d="M184.057 76.726h2.03a.182.182 0 01.166.193v.497a.182.182 0 01-.166.193h-2.03a.182.182 0 01-.165-.193v-.133h-.244v-.243h.244v-.121a.181.181 0 01.165-.193z" clip-rule="evenodd"/><path fill="#BEBEBE" fill-rule="evenodd" d="M184.694 76.814h1.29c.051 0 .1.02.137.056a.193.193 0 01.056.136v.377a.193.193 0 01-.193.193h-1.29a.193.193 0 01-.193-.193v-.377a.193.193 0 01.193-.192z" clip-rule="evenodd"/><path fill="#fff" fill-rule="evenodd" d="M182.477 77.272a.05.05 0 00.019-.003.046.046 0 00.028-.03.072.072 0 000-.042.062.062 0 00-.012-.018.049.049 0 00-.035-.013.049.049 0 00-.037.013.064.064 0 00-.011.019.051.051 0 00-.002.02.037.037 0 00.003.022.044.044 0 00.027.029.047.047 0 00.02.003zm-.068-.137a.076.076 0 01-.033-.035.114.114 0 01-.008-.036c0-.012.003-.024.008-.035a.074.074 0 01.02-.03.124.124 0 01.081-.025.113.113 0 01.079.025.087.087 0 01.022.03.091.091 0 01-.001.072.07.07 0 01-.032.032.1.1 0 01.038.037.111.111 0 01.005.094.116.116 0 01-.067.058.122.122 0 01-.048.006.123.123 0 01-.088-.03.106.106 0 01-.029-.074c0-.019.005-.037.014-.054a.086.086 0 01.039-.035zm.068-.022a.042.042 0 00.031-.01.041.041 0 00.011-.032.033.033 0 00-.001-.017.04.04 0 00-.009-.015.038.038 0 00-.032-.01.048.048 0 00-.033.01.04.04 0 00-.011.032.041.041 0 00.011.031.049.049 0 00.033.011zm.277.159c.01 0 .019-.003.026-.008a.038.038 0 00.015-.024.395.395 0 00.008-.09.346.346 0 00-.008-.092.037.037 0 00-.015-.022.036.036 0 00-.026-.008.04.04 0 00-.04.03.396.396 0 000 .182.042.042 0 00.04.032zm.122-.121a.249.249 0 01-.027.13.094.094 0 01-.092.047.097.097 0 01-.053-.01.104.104 0 01-.04-.036.27.27 0 01-.027-.131.281.281 0 01.027-.131.099.099 0 01.093-.046.099.099 0 01.053.01.09.09 0 01.039.036.262.262 0 01.019.13h.008zm.146-.088c0-.01-.004-.02-.011-.026a.036.036 0 00-.026-.011.044.044 0 00-.015.002.03.03 0 00-.012.009.035.035 0 00-.009.012.068.068 0 00-.002.014l.002.015a.035.035 0 00.009.012.029.029 0 00.012.008l.015.003a.038.038 0 00.037-.038zm-.037.089a.084.084 0 01-.063-.027.09.09 0 01-.024-.06.09.09 0 01.024-.061.084.084 0 01.063-.027.088.088 0 01.081.123.093.093 0 01-.032.04.092.092 0 01-.049.014v-.002zm.231.046c-.01 0-.02.004-.027.01a.038.038 0 00-.008.042.05.05 0 00.008.012.056.056 0 00.012.008l.015.003c.01 0 .02-.004.027-.01a.038.038 0 00.008-.042.05.05 0 00-.008-.012.037.037 0 00-.013-.008.032.032 0 00-.014-.002v-.001zm0 .121a.086.086 0 01-.034-.006.09.09 0 01-.028-.02.089.089 0 01-.027-.062.083.083 0 01.027-.062.087.087 0 01.061-.025.09.09 0 01.081.053c.004.01.007.022.006.034a.081.081 0 01-.006.034.103.103 0 01-.02.029.099.099 0 01-.027.022.081.081 0 01-.033.01v-.007zm-.038-.35h.037l-.193.353h-.036l.192-.353z" clip-rule="evenodd"/><path stroke="#454545" stroke-linecap="round" stroke-linejoin="round" stroke-width=".5" d="M139.841 81.913l-2.333-.046m0 0l.88.837m-.88-.837l.8-.798"/><path fill="#BEBEBE" fill-rule="evenodd" stroke="#454545" stroke-linecap="round" stroke-linejoin="round" stroke-width=".2" d="M179.801 80.396h1.692a.557.557 0 01.522.583V82.6a.557.557 0 01-.522.583h-1.692a.557.557 0 01-.522-.583v-1.62a.552.552 0 01.522-.584z" clip-rule="evenodd"/><path fill="#454545" fill-rule="evenodd" d="M180.174 82.19a.827.827 0 01.291-.308c.091-.062.177-.13.258-.203a.302.302 0 00.09-.21.227.227 0 00-.052-.154.207.207 0 00-.172-.06.208.208 0 00-.154.097.46.46 0 00-.032.18h-.28a.72.72 0 01.067-.303.418.418 0 01.41-.218.518.518 0 01.366.129.43.43 0 01.105.154.433.433 0 01.032.185.457.457 0 01-.096.289.978.978 0 01-.21.185l-.121.081a2.456 2.456 0 00-.148.112.361.361 0 00-.068.079h.641v.253h-1.004a.687.687 0 01.077-.287zm4.042-1.49a.283.283 0 01.477-.21c.04.04.068.09.079.144a.276.276 0 01-.118.29.281.281 0 01-.157.048.28.28 0 01-.197-.078.273.273 0 01-.084-.193zm.013.892a.28.28 0 11.56-.012.28.28 0 01-.56.012zm.013.912a.28.28 0 01.555-.063.28.28 0 11-.555.063z" clip-rule="evenodd"/><path stroke="#F96132" stroke-width="2" d="M137.397 96.091h25.752m-25.752 16.567h25.752m-25.752 16.569h25.752"/><path stroke="#fff" stroke-width="2" d="M137.397 145.794h25.752"/><path stroke="#F7A501" stroke-width="2" d="M137.397 101.613h32.597m-32.597 16.568h32.597"/><path stroke="#F96132" stroke-width="2" d="M137.397 134.749h32.597"/><path stroke="#F7A501" stroke-width="2" d="M137.397 151.317h32.597m-32.597-44.181h18.255"/><path stroke="#fff" stroke-width="2" d="M137.397 123.704h18.255"/><path stroke="#F7A501" stroke-width="2" d="M137.397 140.271h18.255"/><path stroke="#fff" stroke-width="2" d="M137.397 156.839h18.255"/><defs><clipPath id="clip0"><path fill="#fff" d="M0 0h172v120H0z" transform="translate(10 20)"/></clipPath></defs></svg>