<?xml version="1.0" encoding="UTF-8"?>
<svg version="1.1" xmlns="http://www.w3.org/2000/svg" width="1222" height="177">
<path d="M0 0 C0.969375 -0.00128906 1.93875 -0.00257812 2.9375 -0.00390625 C4.4534375 0.00189453 4.4534375 0.00189453 6 0.0078125 C7.010625 0.00394531 8.02125 0.00007813 9.0625 -0.00390625 C10.031875 -0.00261719 11.00125 -0.00132813 12 0 C13.3303125 0.00169189 13.3303125 0.00169189 14.6875 0.00341797 C17 0.1328125 17 0.1328125 20 1.1328125 C20 46.0128125 20 90.8928125 20 137.1328125 C-2.52518356 142.13840885 -29.0150141 147.29721377 -50.5 135.3828125 C-60.75275242 128.4673654 -68.20511428 118.79206421 -70.69140625 106.4375 C-73.09965137 88.45187187 -71.4323818 72.24451754 -60.63671875 57.15234375 C-52.8291418 47.51865095 -40.87970389 40.99815479 -28.59375 39.3359375 C-21.79285555 38.80333733 -15.79114231 39.16264931 -9 40.1328125 C-8.67 27.2628125 -8.34 14.3928125 -8 1.1328125 C-5.04086588 0.14643446 -3.08601102 0.0039248 0 0 Z M-36.3125 68.4453125 C-43.4711402 77.52978254 -43.62739452 88.02222595 -43 99.1328125 C-41.90682986 105.72626392 -39.84757356 110.51070748 -35 115.1328125 C-29.40044005 118.51587997 -24.40006707 119.27415275 -17.9375 119.2578125 C-16.91527344 119.26039063 -15.89304687 119.26296875 -14.83984375 119.265625 C-11.7732434 119.21562902 -11.7732434 119.21562902 -8 118.1328125 C-8 99.6528125 -8 81.1728125 -8 62.1328125 C-18.35034915 58.68269612 -28.93001749 60.47007591 -36.3125 68.4453125 Z " fill="#FFFFFF" transform="translate(183,21.8671875)"/>
<path d="M0 0 C7.45410461 4.38476742 10.7189809 11.57271722 13.05297852 19.63916016 C14.61376814 26.86432587 14.2459753 34.27707306 14.1953125 41.62890625 C14.19157605 43.2302991 14.18873207 44.83169425 14.18673706 46.43309021 C14.17915029 50.62027448 14.15954517 54.80731701 14.1373291 58.9944458 C14.11676311 63.27817875 14.10771249 67.5619349 14.09765625 71.84570312 C14.07629394 80.23053334 14.04221886 88.61524897 14 97 C9.29253606 97.83930881 4.77421816 98.15192228 0 98.125 C-0.68578125 98.12886719 -1.3715625 98.13273437 -2.078125 98.13671875 C-6.16568032 98.12891807 -9.98381854 97.71605785 -14 97 C-14.00586624 96.20566055 -14.01173248 95.41132111 -14.01777649 94.59291077 C-14.0758866 87.07555756 -14.14806668 79.5585289 -14.23571491 72.04146671 C-14.28027942 68.17764977 -14.31956529 64.31393489 -14.34643555 60.44995117 C-14.37260865 56.71499516 -14.41310746 52.98043488 -14.46318626 49.24572563 C-14.47976099 47.82696932 -14.49133339 46.40814472 -14.49761391 44.9893055 C-14.19626206 33.5401408 -14.19626206 33.5401408 -18 23 C-24.02651362 20.78136382 -31.6887861 21.00947976 -37.5 23.5 C-46.0515665 32.0515665 -45.1534448 43.48424873 -45.31640625 54.8125 C-45.33718735 56.02196289 -45.35796844 57.23142578 -45.37937927 58.47753906 C-45.44445043 62.3183049 -45.50356152 66.15913564 -45.5625 70 C-45.60572561 72.6132878 -45.64934116 75.22656918 -45.69335938 77.83984375 C-45.80008804 84.22649509 -45.90193112 90.61321013 -46 97 C-50.56829737 97.81047841 -54.85413487 98.13444282 -59.5 98.125 C-61.40265625 98.12886719 -61.40265625 98.12886719 -63.34375 98.1328125 C-67 98 -67 98 -73 97 C-73 64.33 -73 31.66 -73 -2 C-68.93102742 -2.81379452 -65.60191488 -3.16354022 -61.5 -3.1875 C-60.3965625 -3.20167969 -59.293125 -3.21585938 -58.15625 -3.23046875 C-54.89059614 -2.99201135 -52.80202788 -2.70105409 -50 -1 C-48.85546875 1.6015625 -48.85546875 1.6015625 -48.1875 4.625 C-47.95417969 5.62789062 -47.72085938 6.63078125 -47.48046875 7.6640625 C-47.32191406 8.43492188 -47.16335938 9.20578125 -47 10 C-46.67128906 9.55269531 -46.34257813 9.10539062 -46.00390625 8.64453125 C-34.79847716 -5.59759949 -15.87456405 -7.55931622 0 0 Z " fill="#FFFFFF" transform="translate(745,65)"/>
<path d="M0 0 C9.38942668 6.6818517 14.92750645 16.35545663 17.31640625 27.6484375 C18.70745886 36.27296369 18.40339773 43.95250569 17.31640625 52.6484375 C-3.47359375 52.6484375 -24.26359375 52.6484375 -45.68359375 52.6484375 C-43.36253513 62.56839815 -43.36253513 62.56839815 -36.63671875 68.796875 C-23.65407394 74.93967003 -11.1660854 72.4434116 2.31640625 69.6484375 C3.98290469 69.31426416 5.64949203 68.98053066 7.31640625 68.6484375 C10.58964099 75.66686175 12.02231118 81.91373717 12.31640625 89.6484375 C-5.73527617 97.89997479 -28.06809205 98.36665767 -46.68359375 91.6484375 C-50.33250068 89.9802284 -53.49802257 88.0820244 -56.68359375 85.6484375 C-57.31523437 85.17019531 -57.946875 84.69195312 -58.59765625 84.19921875 C-67.17551892 76.69831241 -71.98260325 64.33629056 -72.88452148 53.15820312 C-72.98636089 50.5467321 -73.01285989 47.9492992 -72.99609375 45.3359375 C-72.9904541 44.41240479 -72.98481445 43.48887207 -72.97900391 42.53735352 C-72.74041417 29.09010511 -68.95637986 15.29116368 -59.48828125 5.234375 C-42.56695934 -9.63587759 -19.00015232 -12.19102105 0 0 Z M-40.55859375 19.2734375 C-43.25424954 23.55477316 -45.68359375 28.47522453 -45.68359375 33.6484375 C-33.47359375 33.6484375 -21.26359375 33.6484375 -8.68359375 33.6484375 C-9.66607677 24.80609036 -10.22651173 22.41055617 -15.80859375 16.3359375 C-23.91590517 11.57729819 -33.7450887 13.05241115 -40.55859375 19.2734375 Z " fill="#FFFFFF" transform="translate(295.68359375,68.3515625)"/>
<path d="M0 0 C1.3303125 0.86625 1.3303125 0.86625 2.6875 1.75 C13.22323322 12.00098368 17.52400429 25.98597803 18.06640625 40.43359375 C17.76944844 56.38197502 14.7008509 71.3625111 3 83 C-8.9591199 92.99471573 -22.85693378 94.99917592 -38 94 C-50.05778506 92.34555972 -60.45985331 86.63192932 -68 77 C-77.59355644 61.64160806 -79.37488913 43.65510029 -75.9375 26.0625 C-72.52055292 13.59786206 -66.06215979 3.80768398 -55.3125 -3.25 C-37.96151042 -13.00830091 -16.09886094 -11.12013913 0 0 Z M-43.6875 18.5 C-50.6451218 27.76934776 -49.87196276 40.99208593 -49 52 C-47.84813895 59.38693502 -45.72300737 65.82449371 -39.875 70.8125 C-34.30188345 73.11443944 -28.49161302 73.79525587 -22.6875 71.9375 C-17.92516482 69.78676798 -15.07680376 66.67293458 -13.14550781 61.87890625 C-11.07711404 55.36065628 -10.49163805 49.38225427 -10.5625 42.5625 C-10.56934814 41.55203613 -10.57619629 40.54157227 -10.58325195 39.50048828 C-10.77207586 30.7523543 -11.85963659 23.84694518 -17.5 16.9375 C-25.85834072 10.45978594 -36.01669604 11.36436841 -43.6875 18.5 Z " fill="#FFFFFF" transform="translate(634,70)"/>
<path d="M0 0 C7.70298364 6.6869038 11.40006478 14.54327989 12.34313965 24.69299316 C12.46015084 28.81773418 12.45159941 32.92191945 12.390625 37.046875 C12.38314451 38.55429322 12.37746016 40.06172132 12.37347412 41.56915283 C12.35835956 45.49511599 12.31920487 49.42046665 12.2746582 53.34619141 C12.2333951 57.36873087 12.21539755 61.39137142 12.1953125 65.4140625 C12.15269285 73.2763196 12.08461927 81.13808315 12 89 C10.58105909 89.48215785 9.16130125 89.9619119 7.74121094 90.44067383 C6.95067322 90.70809891 6.1601355 90.97552399 5.34564209 91.25105286 C-12.59259289 96.97860605 -36.11637676 98.14821073 -53.5 90.125 C-61.00154712 85.85439642 -65.80393952 80.3935938 -68.6171875 72.203125 C-70.60026702 60.79030003 -69.27692106 51.41538159 -62.875 41.8125 C-54.90692426 33.06705102 -42.46476949 29.63807514 -31 29 C-19.4762652 28.65712044 -19.4762652 28.65712044 -15 30 C-15.25620684 28.3934324 -15.53055871 26.7897517 -15.8125 25.1875 C-15.96332031 24.29417969 -16.11414063 23.40085937 -16.26953125 22.48046875 C-17.10431923 19.64576091 -17.58621957 18.685092 -20 17 C-32.14845608 12.63414859 -44.82352439 15.09837177 -57 18 C-57.6509259 16.75264433 -58.29551669 15.50198168 -58.9375 14.25 C-59.29714844 13.55390625 -59.65679687 12.8578125 -60.02734375 12.140625 C-61.70885452 8.43995069 -62.12205095 5.29946487 -62.0625 1.25 C-62.05347656 0.45078125 -62.04445313 -0.3484375 -62.03515625 -1.171875 C-62.02355469 -1.77515625 -62.01195312 -2.3784375 -62 -3 C-59.48025747 -3.65035371 -56.95934065 -4.29537493 -54.4375 -4.9375 C-53.73302734 -5.11990234 -53.02855469 -5.30230469 -52.30273438 -5.49023438 C-35.48389581 -9.75307364 -14.61852392 -10.86180828 0 0 Z M-40.4375 52.0625 C-43.70098826 56.10922544 -43.47025885 59.97519713 -43 65 C-41.64875671 68.45317731 -40.56017395 69.64755013 -37.4296875 71.6171875 C-33.18189604 73.32985057 -29.77125374 73.37408244 -25.25 73.25 C-24.09951172 73.24226563 -24.09951172 73.24226563 -22.92578125 73.234375 C-18.82996633 73.25327533 -18.82996633 73.25327533 -15 72 C-15 64.08 -15 56.16 -15 48 C-23.4676408 45.17745307 -33.54303646 46.22872316 -40.4375 52.0625 Z " fill="#FFFFFF" transform="translate(397,69)"/>
<path d="M0 0 C1.48831242 0.00667405 2.97660807 0.01863442 4.46484375 0.03515625 C5.22345703 0.03966797 5.98207031 0.04417969 6.76367188 0.04882812 C8.64326246 0.06064945 10.52281274 0.07858547 12.40234375 0.09765625 C21.95748882 27.94457469 31.38559482 55.83244695 40.703125 83.75976562 C42.46531937 89.04071504 44.23314969 94.3197619 46.00201988 99.59847832 C47.38097947 103.716839 48.75597377 107.8365153 50.12984085 111.9565773 C50.78144244 113.90836421 51.43453835 115.85965292 52.08918381 117.81042099 C52.9899436 120.49576352 53.88508743 123.18291366 54.77880859 125.87060547 C55.04668686 126.66502548 55.31456512 127.4594455 55.59056091 128.27793884 C56.60061636 131.33148424 57.40234375 133.85879264 57.40234375 137.09765625 C52.45234375 137.09765625 47.50234375 137.09765625 42.40234375 137.09765625 C38.77234375 125.87765625 35.14234375 114.65765625 31.40234375 103.09765625 C13.25234375 102.76765625 -4.89765625 102.43765625 -23.59765625 102.09765625 C-24.58765625 106.05765625 -25.57765625 110.01765625 -26.59765625 114.09765625 C-27.16959891 116.08790701 -27.75895981 118.07351867 -28.38671875 120.046875 C-28.68835938 120.99626953 -28.99 121.94566406 -29.30078125 122.92382812 C-29.605 123.86806641 -29.90921875 124.81230469 -30.22265625 125.78515625 C-30.53460937 126.77193359 -30.8465625 127.75871094 -31.16796875 128.77539062 C-33.46802574 135.96802574 -33.46802574 135.96802574 -34.59765625 137.09765625 C-37.12815027 137.17079192 -39.63070462 137.19013152 -42.16015625 137.16015625 C-42.87107422 137.15564453 -43.58199219 137.15113281 -44.31445312 137.14648438 C-46.07555638 137.13466489 -47.83661661 137.11672888 -49.59765625 137.09765625 C-40.77946336 109.69805667 -31.75116946 82.3701531 -22.64819336 55.06396484 C-20.75103193 49.37258452 -18.85808855 43.67981 -16.9660387 37.98672867 C-15.49517147 33.56307641 -14.02161968 29.14032201 -12.54727745 24.71782684 C-11.8465616 22.61449998 -11.14681766 20.51084906 -10.44806862 18.40686798 C-9.48488282 15.5076006 -8.51796856 12.60960384 -7.55004883 9.71191406 C-7.26392227 8.84791489 -6.97779572 7.98391571 -6.68299866 7.09373474 C-4.34524708 0.11794916 -4.34524708 0.11794916 0 0 Z M3.40234375 16.09765625 C1.13919317 23.10471147 -1.12151332 30.11255057 -3.3793211 37.12132931 C-4.42841558 40.37772404 -5.47826974 43.63386926 -6.5300293 46.8894043 C-7.7464198 50.65465058 -8.95920195 54.42105473 -10.171875 58.1875 C-10.5397966 59.32468979 -10.9077182 60.46187958 -11.28678894 61.63352966 C-14.21765952 70.75090546 -16.89266816 79.90069674 -19.59765625 89.09765625 C-4.08765625 89.09765625 11.42234375 89.09765625 27.40234375 89.09765625 C24.95099805 80.0734613 24.95099805 80.0734613 22.22583008 71.1574707 C21.82564163 69.91701492 21.42545319 68.67655914 21.01313782 67.39851379 C20.58693818 66.08597062 20.16068266 64.77344559 19.734375 63.4609375 C19.29003885 62.08667456 18.84592565 60.71233953 18.40202332 59.3379364 C17.24526382 55.75840602 16.08552217 52.17984906 14.92510986 48.60150146 C13.73664598 44.93479881 12.55106978 41.26716276 11.36523438 37.59960938 C9.04706111 30.43138642 6.72572966 23.26419159 4.40234375 16.09765625 C4.07234375 16.09765625 3.74234375 16.09765625 3.40234375 16.09765625 Z " fill="#FFFFFF" transform="translate(863.59765625,24.90234375)"/>
<path d="M0 0 C1.65 0 3.3 0 5 0 C5 9.24 5 18.48 5 28 C12.59 28 20.18 28 28 28 C28.97369271 31.89477082 29.13346407 35.00495813 29.125 39 C29.12886719 40.8253125 29.12886719 40.8253125 29.1328125 42.6875 C29 46 29 46 28 50 C20.41 50 12.82 50 5 50 C5.07427285 55.95975622 5.15734968 61.91808651 5.26245117 67.87719727 C5.29555228 69.90120874 5.32362957 71.92530924 5.34643555 73.94946289 C5.38025537 76.87163973 5.43258341 79.79301158 5.48828125 82.71484375 C5.49467117 83.60896469 5.5010611 84.50308563 5.50764465 85.42430115 C5.64107661 91.22297375 6.30128277 96.77639532 9 102 C15.30405347 106.20270232 22.80353918 105.02806583 30 104 C31.99118241 108.97011673 32.24845695 113.12333135 32.125 118.375 C32.11597656 119.11105469 32.10695313 119.84710938 32.09765625 120.60546875 C32.07430144 122.4037888 32.03843836 124.20193911 32 126 C18.15265878 129.22432893 3.29794636 130.00335358 -9.375 122.6875 C-15.89156046 118.22318967 -19.71210433 112.37014948 -21.57102966 104.61897278 C-22.01406461 101.914132 -22.1201915 99.39870714 -22.11352539 96.65893555 C-22.11344986 95.6182341 -22.11337433 94.57753265 -22.11329651 93.5052948 C-22.10813522 92.3936647 -22.10297394 91.28203461 -22.09765625 90.13671875 C-22.0962413 88.98959915 -22.09482635 87.84247955 -22.09336853 86.66059875 C-22.08777861 83.00287246 -22.07522789 79.34520775 -22.0625 75.6875 C-22.0574837 73.20507901 -22.05292102 70.72265706 -22.04882812 68.24023438 C-22.03781247 62.1601353 -22.0210843 56.08007205 -22 50 C-23.28197266 50.01740234 -23.28197266 50.01740234 -24.58984375 50.03515625 C-25.69457031 50.04417969 -26.79929687 50.05320313 -27.9375 50.0625 C-29.03964844 50.07410156 -30.14179688 50.08570313 -31.27734375 50.09765625 C-34 50 -34 50 -35 49 C-35.52786071 46.36558404 -35.4058634 44.65096023 -33.97070312 42.34912109 C-32.45004564 40.41097595 -30.86700127 38.54605163 -29.25 36.6875 C-28.04940966 35.26266526 -26.85156079 33.8355167 -25.65625 32.40625 C-24.73972656 31.31376953 -24.73972656 31.31376953 -23.8046875 30.19921875 C-21.00104656 26.78266064 -18.37339324 23.24320881 -15.75 19.6875 C-4.48226471 4.48226471 -4.48226471 4.48226471 0 0 Z " fill="#FFFFFF" transform="translate(457,35)"/>
<path d="M0 0 C0.7734375 -0.00128906 1.546875 -0.00257812 2.34375 -0.00390625 C3.53484375 0.00189453 3.53484375 0.00189453 4.75 0.0078125 C5.5440625 0.00394531 6.338125 0.00007813 7.15625 -0.00390625 C7.9296875 -0.00261719 8.703125 -0.00132813 9.5 0 C10.54414062 0.00169189 10.54414062 0.00169189 11.609375 0.00341797 C13.75 0.1328125 13.75 0.1328125 18.75 1.1328125 C18.75 46.3428125 18.75 91.5528125 18.75 138.1328125 C13.94904421 138.9329718 9.57062684 139.28499649 4.75 139.2578125 C3.72132812 139.26361328 3.72132812 139.26361328 2.671875 139.26953125 C-1.49308018 139.26158286 -5.08816122 138.8264523 -9.25 138.1328125 C-9.25 92.9228125 -9.25 47.7128125 -9.25 1.1328125 C-5.83790741 0.45039398 -3.34936871 0.00542722 0 0 Z " fill="#FFFFFF" transform="translate(72.25,23.8671875)"/>
<path d="M0 0 C13.2 0 26.4 0 40 0 C40 32.67 40 65.34 40 99 C35.26442935 99.78926177 31.25035374 100.13465519 26.5 100.125 C24.59734375 100.12886719 24.59734375 100.12886719 22.65625 100.1328125 C19 100 19 100 13 99 C13 73.59 13 48.18 13 22 C8.71 22 4.42 22 0 22 C-0.97369271 18.10522918 -1.13346407 14.99504187 -1.125 11 C-1.12886719 9.1746875 -1.12886719 9.1746875 -1.1328125 7.3125 C-1 4 -1 4 0 0 Z " fill="#FFFFFF" transform="translate(497,63)"/>
<path d="M0 0 C-0.14168137 1.43791516 -0.28851043 2.8753237 -0.4375 4.3125 C-0.51871094 5.11300781 -0.59992188 5.91351563 -0.68359375 6.73828125 C-1 9 -1 9 -2 12 C-2.71285156 11.86722656 -3.42570312 11.73445313 -4.16015625 11.59765625 C-7.10497642 11.05466787 -10.05199988 10.52542587 -13 10 C-14.155 9.79375 -15.31 9.5875 -16.5 9.375 C-24.90552903 8.4744076 -33.22688939 8.19276215 -41 12 C-44.93902815 15.93902815 -45.45517305 19.41901037 -45.53125 24.75390625 C-44.77072442 27.96936365 -43.28304304 29.63930243 -41 32 C-38.54904638 33.44762058 -38.54904638 33.44762058 -35.75 34.4375 C-34.69683594 34.85 -33.64367188 35.2625 -32.55859375 35.6875 C-30.03413276 36.6185855 -27.50720863 37.53493148 -24.97265625 38.4375 C-13.49004481 42.55135962 -3.66512127 46.36626882 2 58 C4.26886167 66.89559791 3.26842247 75.11036743 -1.18359375 83.1328125 C-6.43647397 90.96005044 -14.64874128 95.38064149 -23.69921875 97.53125 C-36.04848095 99.28499138 -49.03733941 98.62706538 -61 95 C-61.66 94.34 -62.32 93.68 -63 93 C-62.60446947 91.3489597 -62.18286103 89.7041485 -61.75 88.0625 C-61.51796875 87.14597656 -61.2859375 86.22945313 -61.046875 85.28515625 C-60 83 -60 83 -58.3359375 82.09375 C-55.01655811 81.96053076 -52.10836297 82.69057324 -48.875 83.4375 C-38.47944366 85.68054023 -28.20603377 86.44779654 -18.625 81.125 C-15.16995657 78.32806008 -13.40394793 76.2118438 -12 72 C-11.59919502 66.68933397 -12.41995216 63.62258572 -15 59 C-15 58.34 -15 57.68 -15 57 C-18.64896264 55.03659878 -22.49221887 53.66651497 -26.375 52.25 C-53.52445148 42.15389514 -53.52445148 42.15389514 -59 31 C-61.33859594 24.95862716 -60.28799654 18.15391353 -58.1015625 12.23828125 C-55.11664357 6.17318003 -50.49815994 1.45117596 -44.2890625 -1.2578125 C-29.96624146 -5.90173058 -14.16290705 -4.72096902 0 0 Z " fill="#FFFFFF" transform="translate(1141,66)"/>
<path d="M0 0 C1.93166016 0.01740234 1.93166016 0.01740234 3.90234375 0.03515625 C5.19269531 0.04417969 6.48304688 0.05320313 7.8125 0.0625 C8.81152344 0.07410156 9.81054688 0.08570313 10.83984375 0.09765625 C9.58811284 4.12978061 8.10435043 7.73797946 6.08203125 11.44140625 C5.27209717 12.93051514 5.27209717 12.93051514 4.44580078 14.44970703 C3.87458496 15.48853027 3.30336914 16.52735352 2.71484375 17.59765625 C2.13460449 18.66612793 1.55436523 19.73459961 0.95654297 20.83544922 C-1.56566418 25.46148128 -4.10451696 30.06559969 -6.83203125 34.57421875 C-7.40026611 35.52071289 -7.40026611 35.52071289 -7.97998047 36.48632812 C-8.95943913 38.09806113 -9.96124768 39.69615396 -10.96484375 41.29296875 C-12.46602819 44.81535576 -12.04371676 46.40142813 -11.16015625 50.09765625 C-9.86496061 52.99894068 -9.86496061 52.99894068 -8.16796875 55.88671875 C-7.54994385 56.9845166 -6.93191895 58.08231445 -6.29516602 59.21337891 C-5.62522822 60.38317551 -4.95522366 61.55293388 -4.28515625 62.72265625 C-3.60570385 63.92441074 -2.9272448 65.12672736 -2.24975586 66.32958984 C-0.88249167 68.75563111 0.48860396 71.17943742 1.86279297 73.6015625 C4.70626925 78.6205786 7.49550525 83.66927947 10.27734375 88.72265625 C10.74317871 89.5626416 11.20901367 90.40262695 11.68896484 91.26806641 C14.83984375 96.98077315 14.83984375 96.98077315 14.83984375 98.09765625 C9.88984375 98.09765625 4.93984375 98.09765625 -0.16015625 98.09765625 C-1.09214844 96.41542969 -2.02414062 94.73320312 -2.984375 93 C-3.59547119 91.89873779 -4.20656738 90.79747559 -4.83618164 89.6628418 C-6.18616153 87.22982953 -7.53250012 84.79484742 -8.87670898 82.35864258 C-12.21409516 76.32182803 -15.59281399 70.32289272 -19.12109375 64.39453125 C-19.72864502 63.36207275 -20.33619629 62.32961426 -20.9621582 61.26586914 C-22.11592361 59.31241998 -23.28584079 57.36840083 -24.47338867 55.43530273 C-28.2681358 48.96476478 -28.2681358 48.96476478 -27.7734375 44.9921875 C-27.24105469 44.03699219 -26.70867188 43.08179688 -26.16015625 42.09765625 C-25.50623106 40.77487765 -24.85261255 39.45194742 -24.19921875 38.12890625 C-23.39965782 36.61576951 -22.59465508 35.10549979 -21.78515625 33.59765625 C-21.35468994 32.78828613 -20.92422363 31.97891602 -20.48071289 31.14501953 C-19.04772083 28.45863776 -17.60544848 25.77743978 -16.16015625 23.09765625 C-15.62342285 22.10217773 -15.08668945 21.10669922 -14.53369141 20.08105469 C-12.8923735 17.042717 -11.24644564 14.00694538 -9.59765625 10.97265625 C-8.81092529 9.52342773 -8.81092529 9.52342773 -8.00830078 8.04492188 C-7.52087402 7.15224609 -7.03344727 6.25957031 -6.53125 5.33984375 C-5.88047485 4.14657471 -5.88047485 4.14657471 -5.21655273 2.92919922 C-3.59105703 0.1109721 -3.59105703 0.1109721 0 0 Z " fill="#FFFFFF" transform="translate(999.16015625,63.90234375)"/>
<path d="M0 0 C4.62 0 9.24 0 14 0 C17.43784287 6.24785274 20.85367855 12.50704626 24.24951172 18.77783203 C25.41466735 20.92256342 26.58555615 23.0641903 27.76220703 25.20263672 C29.46127519 28.29354035 31.13879212 31.39530702 32.8125 34.5 C33.61252441 35.9396814 33.61252441 35.9396814 34.42871094 37.40844727 C34.91243164 38.31522217 35.39615234 39.22199707 35.89453125 40.15625 C36.54192261 41.34444336 36.54192261 41.34444336 37.20239258 42.55664062 C38.57703922 46.76767938 37.50143366 49.91694051 35.68408203 53.84228516 C35.13091309 54.81472168 34.57774414 55.7871582 34.0078125 56.7890625 C33.3897876 57.88694092 32.7717627 58.98481934 32.13500977 60.1159668 C31.46511592 61.2857072 30.7951105 62.45538371 30.125 63.625 C29.4455727 64.82603592 28.76711339 66.02761993 28.08959961 67.22973633 C26.72210156 69.65491104 25.3508448 72.07789864 23.97705078 74.49951172 C21.12534498 79.5363425 18.3426786 84.61093691 15.5625 89.6875 C14.66804742 91.31644945 13.77352482 92.94536045 12.87890625 94.57421875 C12.25886719 95.70472656 11.63882813 96.83523437 11 98 C6.05 98 1.1 98 -4 98 C-2.46043831 94.15109578 -0.87546331 90.80046977 1.125 87.203125 C2.05505859 85.52899536 2.05505859 85.52899536 3.00390625 83.82104492 C3.49334717 82.94565567 3.49334717 82.94565567 3.99267578 82.05258179 C5.00810097 80.23550351 6.01800017 78.41543293 7.02734375 76.5949707 C10.01322113 71.22589596 13.02857338 65.8851334 16.25 60.65234375 C16.72050781 59.88438477 17.19101562 59.11642578 17.67578125 58.32519531 C18.53302333 56.9413436 19.40460468 55.56623012 20.29296875 54.20214844 C22.08396324 51.31241244 23.0448093 49.54003163 22.75952148 46.10180664 C21.9995469 42.99814958 21.01144582 40.76751095 19.41015625 38.015625 C18.87729004 37.08838623 18.34442383 36.16114746 17.79541016 35.20581055 C17.2235498 34.23039307 16.65168945 33.25497559 16.0625 32.25 C14.88376461 30.19941988 13.70538379 28.14863592 12.52734375 26.09765625 C11.93679199 25.07687988 11.34624023 24.05610352 10.73779297 23.00439453 C8.17752096 18.57805184 5.63985203 14.13978411 3.125 9.6875 C2.6906665 8.9356543 2.25633301 8.18380859 1.80883789 7.40917969 C0.81070862 5.63960859 -0.10429363 3.82355532 -1 2 C-0.67 1.34 -0.34 0.68 0 0 Z " fill="#FFFFFF" transform="translate(932,64)"/>
<path d="M0 0 C8.25 0 16.5 0 25 0 C25 32.01 25 64.02 25 97 C20.71 97 16.42 97 12 97 C12 68.62 12 40.24 12 11 C8.04 11 4.08 11 0 11 C0 7.37 0 3.74 0 0 Z " fill="#FFFFFF" transform="translate(1027,65)"/>
<path d="M0 0 C0.70656738 0.02618408 1.41313477 0.05236816 2.14111328 0.0793457 C4.15625 0.203125 4.15625 0.203125 7.5 0.75 C9.68475322 4.02712983 9.7479325 4.98867384 9.73046875 8.78515625 C9.72853516 9.75904297 9.72660156 10.73292969 9.72460938 11.73632812 C9.70624023 13.2590332 9.70624023 13.2590332 9.6875 14.8125 C9.68685547 15.83150391 9.68621094 16.85050781 9.68554688 17.90039062 C9.64040493 25.46919014 9.64040493 25.46919014 8.5 27.75 C3.86531742 28.86628025 -0.75838344 28.90173844 -5.5 28.875 C-6.18578125 28.87886719 -6.8715625 28.88273437 -7.578125 28.88671875 C-11.64708917 28.87895355 -15.53627743 28.70467708 -19.5 27.75 C-21.50149936 23.74700128 -20.68485209 18.65083269 -20.6875 14.25 C-20.69974609 13.17878906 -20.71199219 12.10757813 -20.72460938 11.00390625 C-20.72654297 9.98167969 -20.72847656 8.95945312 -20.73046875 7.90625 C-20.73457764 6.96587891 -20.73868652 6.02550781 -20.74291992 5.05664062 C-20.5 2.75 -20.5 2.75 -18.5 0.75 C-12.5111224 -0.7279419 -6.11358421 -0.29422567 0 0 Z " fill="#FFFFFF" transform="translate(525.5,20.25)"/>
<path d="M0 0 C5.61 0 11.22 0 17 0 C17 5.61 17 11.22 17 17 C11.39 17 5.78 17 0 17 C-1.21233752 10.9383124 -1.51730662 6.0692265 0 0 Z " fill="#FFFFFF" transform="translate(1033,25)"/>
</svg>
