<svg xmlns="http://www.w3.org/2000/svg" width="396" height="301" fill="none" viewBox="0 0 396 301"><rect width="396" height="300.536" fill="#F96132" rx="20"/><g clip-path="url(#clip0)"><path fill="#F0F0F0" fill-rule="evenodd" stroke="#E6E6E6" stroke-linecap="round" stroke-linejoin="round" stroke-width="2" d="M56.0486 65.4966H139.178C141.254 65.4966 143.245 66.322 144.713 67.7912C146.181 69.2604 147.005 71.2531 147.005 73.3309V251.616C147.005 253.693 146.181 255.686 144.713 257.155C143.245 258.625 141.254 259.45 139.178 259.45H56.0486C53.974 259.45 51.9843 258.626 50.5166 257.158C49.0488 255.691 48.2232 253.7 48.221 251.624V73.3391C48.2199 72.3096 48.4216 71.2899 48.8145 70.3385C49.2074 69.387 49.7838 68.5224 50.5108 67.7941C51.2378 67.0657 52.101 66.4879 53.0513 66.0937C54.0015 65.6995 55.02 65.4966 56.0486 65.4966Z" clip-rule="evenodd"/><path fill="#BEBEBE" fill-rule="evenodd" d="M87.892 245.499C87.892 240.476 92.0177 236.405 97.1058 236.405C102.194 236.405 106.32 240.476 106.32 245.499C106.32 250.522 102.194 254.592 97.1058 254.592C92.0177 254.592 87.892 250.52 87.892 245.499Z" clip-rule="evenodd"/><path fill="#fff" fill-rule="evenodd" stroke="#fff" stroke-linecap="round" stroke-linejoin="round" stroke-width="2" d="M56.6162 80.6616H139.62C141.31 80.6616 142.677 81.8194 142.677 83.2478V230.226C142.677 231.661 141.31 232.812 139.62 232.812H56.6162C54.9291 232.812 53.5613 231.654 53.5613 230.226V83.2478C53.5695 81.8194 54.9373 80.6616 56.6162 80.6616Z" clip-rule="evenodd"/><path fill="#BEBEBE" fill-rule="evenodd" stroke="#C8C8C8" stroke-linecap="round" stroke-linejoin="round" stroke-width=".1" d="M56.0655 80.4565H140.292C140.642 80.4592 140.988 80.5311 141.311 80.6679C141.633 80.8048 141.926 81.004 142.171 81.2542C142.416 81.5043 142.61 81.8005 142.741 82.1257C142.872 82.4509 142.937 82.7987 142.933 83.1493V99.7482H53.4242V83.1493C53.4204 82.7987 53.4858 82.4509 53.6166 82.1257C53.7474 81.8005 53.941 81.5043 54.1864 81.2542C54.4318 81.004 54.7241 80.8048 55.0466 80.6679C55.369 80.5311 55.7153 80.4592 56.0655 80.4565Z" clip-rule="evenodd"/><path fill="#BEBEBE" fill-rule="evenodd" stroke="#BEBEBE" stroke-linecap="round" stroke-linejoin="round" stroke-width=".1" d="M89.9702 72.8499H109.159C109.325 72.8496 109.489 72.882 109.642 72.9452C109.795 73.0084 109.934 73.1012 110.051 73.2183C110.168 73.3353 110.261 73.4743 110.325 73.6274C110.388 73.7804 110.421 73.9445 110.421 74.1101C110.421 74.4449 110.288 74.766 110.051 75.0028C109.815 75.2395 109.494 75.3725 109.159 75.3725H89.9702C89.6357 75.3725 89.3149 75.2395 89.0783 75.0028C88.8418 74.766 88.7089 74.4449 88.7089 74.1101C88.7089 73.9445 88.7416 73.7804 88.805 73.6274C88.8684 73.4743 88.9613 73.3353 89.0785 73.2183C89.1956 73.1012 89.3347 73.0084 89.4877 72.9452C89.6407 72.882 89.8047 72.8496 89.9702 72.8499Z" clip-rule="evenodd"/><path fill="#BEBEBE" fill-rule="evenodd" stroke="#BEBEBE" stroke-linecap="round" stroke-linejoin="round" stroke-width=".1" d="M81.5326 74.309C81.531 74.0452 81.6077 73.7868 81.7529 73.5667C81.8982 73.3466 82.1055 73.1746 82.3485 73.0725C82.5915 72.9704 82.8594 72.9429 83.1181 72.9934C83.3768 73.0438 83.6147 73.17 83.8016 73.356C83.9886 73.5419 84.1162 73.7793 84.1682 74.0379C84.2202 74.2965 84.1943 74.5647 84.0938 74.8086C83.9934 75.0525 83.8228 75.261 83.6037 75.4077C83.3847 75.5544 83.1271 75.6328 82.8635 75.6328C82.6893 75.6333 82.5166 75.5995 82.3554 75.5333C82.1943 75.467 82.0477 75.3697 81.9241 75.2467C81.8005 75.1238 81.7024 74.9777 81.6352 74.8168C81.568 74.6559 81.5332 74.4833 81.5326 74.309Z" clip-rule="evenodd"/><path fill="#fff" fill-rule="evenodd" stroke="#fff" stroke-linecap="round" stroke-linejoin="round" stroke-width=".1" d="M67.6053 87.1312H126.33C126.373 87.1306 126.416 87.1386 126.456 87.1547C126.497 87.1708 126.533 87.1946 126.564 87.2249C126.595 87.2551 126.62 87.2912 126.637 87.331C126.654 87.3709 126.663 87.4137 126.664 87.457V93.2092C126.663 93.2526 126.654 93.2954 126.637 93.3352C126.62 93.375 126.595 93.4111 126.564 93.4413C126.533 93.4716 126.497 93.4955 126.456 93.5115C126.416 93.5276 126.373 93.5356 126.33 93.5351H67.6053C67.5619 93.5359 67.5187 93.5281 67.4782 93.5121C67.4378 93.4962 67.4009 93.4724 67.3697 93.4421C67.3385 93.4118 67.3136 93.3756 67.2964 93.3357C67.2792 93.2957 67.2701 93.2527 67.2695 93.2092V87.457C67.2701 87.4135 67.2792 87.3705 67.2964 87.3306C67.3136 87.2906 67.3385 87.2544 67.3697 87.2242C67.4009 87.1939 67.4378 87.1701 67.4782 87.1541C67.5187 87.1381 67.5619 87.1303 67.6053 87.1312Z" clip-rule="evenodd"/><path fill="#fff" fill-rule="evenodd" stroke="#fff" stroke-linecap="round" stroke-linejoin="round" stroke-width=".1" d="M55.222 82.0202C55.222 81.9391 55.246 81.8599 55.291 81.7925C55.336 81.7251 55.3999 81.6726 55.4748 81.6416C55.5496 81.6105 55.6319 81.6024 55.7114 81.6182C55.7908 81.634 55.8638 81.6731 55.921 81.7304C55.9783 81.7877 56.0173 81.8607 56.0331 81.9402C56.0489 82.0197 56.0408 82.1022 56.0098 82.177C55.9788 82.2519 55.9263 82.3159 55.859 82.361C55.7917 82.406 55.7125 82.4301 55.6315 82.4301C55.5229 82.4301 55.4187 82.3869 55.3419 82.31C55.2651 82.2331 55.222 82.1289 55.222 82.0202Z" clip-rule="evenodd"/><path fill="#fff" fill-rule="evenodd" stroke="#fff" stroke-linecap="round" stroke-linejoin="round" stroke-width=".1" d="M56.3686 82.0121C56.3666 81.9307 56.3889 81.8504 56.4326 81.7817C56.4764 81.713 56.5396 81.6589 56.6142 81.6263C56.6888 81.5937 56.7715 81.5841 56.8516 81.5987C56.9317 81.6133 57.0056 81.6516 57.0639 81.7084C57.1222 81.7653 57.1622 81.8383 57.1789 81.9181C57.1955 81.9979 57.188 82.0808 57.1573 82.1563C57.1267 82.2318 57.0742 82.2964 57.0067 82.3419C56.9391 82.3874 56.8596 82.4117 56.7781 82.4117C56.6713 82.4118 56.5686 82.37 56.4921 82.2953C56.4156 82.2207 56.3713 82.1191 56.3686 82.0121Z" clip-rule="evenodd"/><path fill="#fff" fill-rule="evenodd" stroke="#fff" stroke-linecap="round" stroke-linejoin="round" stroke-width=".1" d="M57.4457 82.0121C57.4436 81.9307 57.4659 81.8504 57.5097 81.7817C57.5534 81.713 57.6166 81.6589 57.6913 81.6263C57.7659 81.5937 57.8485 81.5841 57.9286 81.5987C58.0087 81.6133 58.0826 81.6516 58.1409 81.7084C58.1992 81.7653 58.2393 81.8383 58.2559 81.9181C58.2726 81.9979 58.2651 82.0808 58.2344 82.1563C58.2037 82.2318 58.1513 82.2964 58.0837 82.3419C58.0162 82.3874 57.9366 82.4117 57.8552 82.4117C57.7483 82.4118 57.6457 82.37 57.5692 82.2953C57.4927 82.2207 57.4484 82.1191 57.4457 82.0121Z" clip-rule="evenodd"/><path fill="#fff" fill-rule="evenodd" stroke="#fff" stroke-linecap="round" stroke-linejoin="round" stroke-width=".1" d="M58.547 82.018C58.545 81.9365 58.5673 81.8563 58.611 81.7876C58.6548 81.7188 58.718 81.6647 58.7926 81.6321C58.8672 81.5995 58.9499 81.5899 59.03 81.6046C59.1101 81.6192 59.184 81.6574 59.2423 81.7143C59.3006 81.7712 59.3406 81.8442 59.3573 81.9239C59.3739 82.0037 59.3664 82.0866 59.3357 82.1621C59.3051 82.2376 59.2526 82.3022 59.1851 82.3478C59.1175 82.3933 59.038 82.4176 58.9565 82.4176C58.8497 82.4176 58.7471 82.3759 58.6705 82.3012C58.594 82.2265 58.5497 82.1249 58.547 82.018Z" clip-rule="evenodd"/><path fill="#fff" fill-rule="evenodd" stroke="#fff" stroke-linecap="round" stroke-linejoin="round" stroke-width=".1" d="M59.6752 82.053C59.6728 81.9715 59.6947 81.891 59.7382 81.8221C59.7817 81.7531 59.8447 81.6986 59.9193 81.6657C59.9939 81.6328 60.0766 81.6229 60.1568 81.6373C60.2371 81.6517 60.3112 81.6897 60.3697 81.7465C60.4282 81.8033 60.4684 81.8763 60.4852 81.9561C60.5021 82.0359 60.4947 82.119 60.4641 82.1946C60.4335 82.2702 60.3811 82.3349 60.3135 82.3805C60.2459 82.4261 60.1662 82.4505 60.0847 82.4506C59.9782 82.4506 59.8759 82.4091 59.7994 82.3349C59.723 82.2607 59.6784 82.1596 59.6752 82.053Z" clip-rule="evenodd"/><path fill="#fff" fill-rule="evenodd" d="M61.8742 81.8767H61.7023V82.137H61.8742C61.9103 82.1394 61.946 82.1284 61.9746 82.1062C61.9877 82.0933 61.9979 82.0775 62.0043 82.0602C62.0106 82.0428 62.0131 82.0242 62.0114 82.0058C62.0132 81.9874 62.0109 81.9688 62.0045 81.9514C61.9981 81.934 61.9879 81.9183 61.9746 81.9054C61.9453 81.8847 61.91 81.8746 61.8742 81.8767ZM61.8886 82.2865H61.7023V82.6042H61.518V81.7189H61.9029C61.9773 81.7165 62.0501 81.7413 62.1077 81.7886C62.1347 81.815 62.1557 81.8471 62.1692 81.8824C62.1826 81.9178 62.1882 81.9557 62.1855 81.9935C62.1901 82.0339 62.1855 82.0748 62.172 82.1131C62.1585 82.1515 62.1365 82.1862 62.1077 82.2148C62.0466 82.2677 61.9693 82.298 61.8886 82.3009V82.2865Z" clip-rule="evenodd"/><path fill="#fff" fill-rule="evenodd" d="M62.3331 82.6084V81.7231H62.5153V82.0613H62.8614V81.7231H63.0436V82.6084H62.8614V82.2129H62.5153V82.6084H62.3331Z" clip-rule="evenodd"/><path fill="#fff" fill-rule="evenodd" d="M63.8503 82.1657C63.8557 82.0836 63.8333 82.002 63.7868 81.9341C63.7651 81.909 63.7382 81.8888 63.708 81.875C63.6778 81.8611 63.645 81.854 63.6118 81.854C63.5785 81.854 63.5457 81.8611 63.5155 81.875C63.4853 81.8888 63.4584 81.909 63.4367 81.9341C63.3939 82.0034 63.3713 82.0832 63.3713 82.1647C63.3713 82.2461 63.3939 82.3259 63.4367 82.3952C63.458 82.421 63.4848 82.4417 63.515 82.456C63.5453 82.4702 63.5783 82.4776 63.6118 82.4776C63.6452 82.4776 63.6782 82.4702 63.7085 82.456C63.7388 82.4417 63.7655 82.421 63.7868 82.3952C63.8333 82.3281 63.8557 82.2472 63.8503 82.1657ZM63.9015 82.5305C63.8195 82.5968 63.7172 82.6331 63.6118 82.6331C63.5063 82.6331 63.404 82.5968 63.322 82.5305C63.2753 82.4825 63.2391 82.4252 63.2159 82.3624C63.1926 82.2996 63.1827 82.2326 63.1869 82.1657C63.1818 82.0984 63.1912 82.0308 63.2145 81.9675C63.2378 81.9042 63.2745 81.8467 63.322 81.7989C63.404 81.7325 63.5063 81.6963 63.6118 81.6963C63.7172 81.6963 63.8195 81.7325 63.9015 81.7989C63.9488 81.8468 63.9852 81.9044 64.0081 81.9677C64.0311 82.031 64.0401 82.0986 64.0346 82.1657C64.0392 82.2324 64.0297 82.2994 64.0068 82.3622C63.9838 82.4251 63.948 82.4824 63.9015 82.5305Z" clip-rule="evenodd"/><path fill="#fff" fill-rule="evenodd" d="M64.1735 81.7231H64.366L64.7182 82.3379V81.7231H64.8902V82.6084H64.7059L64.3455 81.9793V82.6084H64.1735V81.7231Z" clip-rule="evenodd"/><path fill="#fff" fill-rule="evenodd" d="M65.7175 81.8909H65.2486V82.0774H65.6786V82.2311H65.2486V82.4586H65.738V82.6184H65.0685V81.7332H65.7175V81.8909Z" clip-rule="evenodd"/><path fill="#fff" fill-rule="evenodd" d="M67.5316 82.592C67.5406 82.5368 67.5689 82.4866 67.6115 82.4504C67.6541 82.4142 67.7081 82.3943 67.764 82.3943C67.8199 82.3943 67.8739 82.4142 67.9165 82.4504C67.9591 82.4866 67.9874 82.5368 67.9964 82.592C67.9964 82.7006 67.763 82.7969 67.763 82.7969C67.763 82.7969 67.5316 82.7109 67.5316 82.592Z" clip-rule="evenodd"/><path stroke="#fff" stroke-linecap="round" stroke-linejoin="round" stroke-width=".1" d="M66.9932 82.301C67.0344 82.129 67.1333 81.9763 67.2734 81.8685C67.4135 81.7607 67.5864 81.7043 67.763 81.7087C67.819 81.7076 67.8749 81.7145 67.9289 81.7292C68.0718 81.7729 68.2028 81.8489 68.3117 81.9512C68.4207 82.0535 68.5048 82.1795 68.5575 82.3194"/><path stroke="#fff" stroke-linecap="round" stroke-linejoin="round" stroke-width=".1" d="M66.7046 82.1249C66.7674 81.9026 66.9046 81.7087 67.0932 81.5755C67.2817 81.4423 67.5103 81.378 67.7406 81.3933C67.815 81.3907 67.8894 81.3983 67.9617 81.4159C68.1496 81.4646 68.3238 81.5559 68.4708 81.6827C68.6178 81.8096 68.7336 81.9686 68.8094 82.1474"/><path stroke="#fff" stroke-linecap="round" stroke-linejoin="round" stroke-width=".1" d="M67.2634 82.4936C67.2908 82.3779 67.3561 82.2747 67.4488 82.2005C67.5416 82.1262 67.6565 82.0851 67.7753 82.0837C67.897 82.0898 68.0131 82.1364 68.1052 82.2163C68.1972 82.2962 68.2598 82.4046 68.2831 82.5243"/><path fill="#F0F0F0" fill-rule="evenodd" d="M95.3308 81.8909V81.7352C95.3809 81.7336 95.4308 81.7288 95.4803 81.7209C95.5234 81.713 95.5629 81.6914 95.5929 81.6594C95.614 81.6359 95.6295 81.6078 95.638 81.5774C95.6399 81.5618 95.6399 81.5459 95.638 81.5303H95.8284V82.6901H95.595V81.8909H95.3308Z" clip-rule="evenodd"/><path fill="#F0F0F0" fill-rule="evenodd" d="M96.2316 82.4546C96.2856 82.3536 96.3654 82.2687 96.4629 82.2087C96.5352 82.16 96.6037 82.1059 96.6677 82.0468C96.7135 82.0072 96.7421 81.9514 96.7475 81.8911C96.7498 81.8464 96.7352 81.8025 96.7066 81.7681C96.689 81.7504 96.6676 81.7369 96.6441 81.7286C96.6206 81.7203 96.5955 81.7174 96.5707 81.7202C96.5459 81.7229 96.522 81.7313 96.5009 81.7445C96.4798 81.7578 96.4619 81.7757 96.4486 81.7968C96.4315 81.8427 96.4225 81.8912 96.422 81.9402H96.2009C96.2017 81.8575 96.2198 81.7758 96.2541 81.7005C96.2854 81.6428 96.3329 81.5956 96.3908 81.5646C96.4487 81.5336 96.5143 81.5203 96.5796 81.5263C96.6869 81.5207 96.792 81.5575 96.8724 81.6288C96.9087 81.6636 96.9371 81.7057 96.9558 81.7523C96.9745 81.799 96.9831 81.849 96.981 81.8993C96.9818 81.9818 96.9543 82.062 96.9032 82.1267C96.8559 82.1848 96.8 82.2353 96.7373 82.2763L96.6472 82.3398C96.5899 82.3808 96.551 82.4116 96.5305 82.428C96.509 82.4457 96.4909 82.4672 96.4773 82.4915H96.983V82.6964H96.1886C96.1849 82.6136 96.1996 82.531 96.2316 82.4546Z" clip-rule="evenodd"/><path fill="#F0F0F0" fill-rule="evenodd" d="M97.2246 81.844H97.4662V82.0838H97.2246V81.844ZM97.2246 82.4444H97.4662V82.6821H97.2246V82.4444Z" clip-rule="evenodd"/><path fill="#F0F0F0" fill-rule="evenodd" d="M98.0355 82.5262C98.0668 82.5273 98.0973 82.5171 98.1217 82.4976C98.1462 82.478 98.1628 82.4504 98.1686 82.4197C98.2093 82.2168 98.2093 82.0078 98.1686 81.8049C98.1623 81.7749 98.1453 81.7482 98.1208 81.7298C98.0964 81.7113 98.0661 81.7023 98.0355 81.7045C98.0048 81.7027 97.9744 81.7118 97.9497 81.7301C97.925 81.7485 97.9076 81.775 97.9004 81.8049C97.857 82.0075 97.857 82.2171 97.9004 82.4197C97.9071 82.4504 97.9242 82.4778 97.9488 82.4973C97.9735 82.5167 98.0041 82.527 98.0355 82.5262ZM98.445 82.1164C98.4532 82.2686 98.4222 82.4203 98.3549 82.557C98.3234 82.6096 98.2777 82.6521 98.2229 82.6797C98.1682 82.7073 98.1068 82.7187 98.0458 82.7127C97.9845 82.7186 97.9228 82.7072 97.8678 82.6796C97.8128 82.6521 97.7666 82.6096 97.7346 82.557C97.6673 82.4203 97.6363 82.2686 97.6445 82.1164C97.6363 81.9629 97.6673 81.8099 97.7346 81.6717C97.7666 81.6191 97.8128 81.5766 97.8678 81.5491C97.9228 81.5215 97.9845 81.51 98.0458 81.516C98.1068 81.51 98.1682 81.5214 98.2229 81.549C98.2777 81.5765 98.3234 81.6191 98.3549 81.6717C98.4183 81.8102 98.4458 81.9624 98.4348 82.1143L98.445 82.1164Z" clip-rule="evenodd"/><path fill="#F0F0F0" fill-rule="evenodd" d="M98.9466 82.5262C98.9778 82.5269 99.0082 82.5166 99.0325 82.4971C99.0568 82.4776 99.0735 82.4502 99.0797 82.4197C99.1204 82.2168 99.1204 82.0078 99.0797 81.8049C99.073 81.7751 99.0559 81.7487 99.0316 81.7303C99.0072 81.7119 98.9771 81.7028 98.9466 81.7045C98.9159 81.7027 98.8855 81.7118 98.8608 81.7301C98.8361 81.7485 98.8187 81.775 98.8115 81.8049C98.7681 82.0075 98.7681 82.2171 98.8115 82.4197C98.8182 82.4504 98.8353 82.4778 98.86 82.4973C98.8846 82.5167 98.9153 82.527 98.9466 82.5262ZM99.3561 82.1164C99.3643 82.2686 99.3333 82.4203 99.2661 82.557C99.2345 82.6096 99.1888 82.6521 99.134 82.6797C99.0793 82.7073 99.0179 82.7187 98.9569 82.7127C98.8956 82.7186 98.834 82.7072 98.7789 82.6796C98.7239 82.6521 98.6777 82.6096 98.6457 82.557C98.5784 82.4203 98.5474 82.2686 98.5556 82.1164C98.5474 81.9629 98.5784 81.8099 98.6457 81.6717C98.6777 81.6191 98.7239 81.5766 98.7789 81.5491C98.834 81.5215 98.8956 81.51 98.9569 81.516C99.0179 81.51 99.0793 81.5214 99.134 81.549C99.1888 81.5765 99.2345 81.6191 99.2661 81.6717C99.3294 81.8102 99.3569 81.9624 99.3459 82.1143L99.3561 82.1164Z" clip-rule="evenodd"/><path fill="#F0F0F0" fill-rule="evenodd" d="M100.466 81.7065H100.228V82.0549H100.458C100.506 82.0571 100.554 82.0419 100.593 82.0119C100.61 81.9948 100.624 81.9739 100.633 81.9509C100.641 81.9278 100.644 81.9032 100.642 81.8787C100.645 81.8545 100.641 81.83 100.633 81.8073C100.624 81.7845 100.611 81.764 100.593 81.7475C100.556 81.7201 100.512 81.7056 100.466 81.7065ZM100.486 82.2578H100.228V82.682H99.9827V81.5016H100.497C100.599 81.4959 100.7 81.5288 100.779 81.5938C100.817 81.6301 100.846 81.6743 100.864 81.7232C100.883 81.7721 100.89 81.8245 100.886 81.8766C100.892 81.9307 100.885 81.9854 100.867 82.0365C100.848 82.0877 100.818 82.1339 100.779 82.1717C100.694 82.2327 100.591 82.2631 100.486 82.2578Z" clip-rule="evenodd"/><path fill="#F0F0F0" fill-rule="evenodd" d="M101.866 81.5017H102.22V82.6821H101.991V81.6861L101.768 82.6759H101.53L101.301 81.6861C101.301 81.7087 101.301 81.7394 101.301 81.7825V82.6759H101.072V81.5017H101.43L101.635 82.43L101.866 81.5017Z" clip-rule="evenodd"/><path fill="#fff" fill-rule="evenodd" stroke="#fff" stroke-linecap="round" stroke-linejoin="round" stroke-width=".5" d="M137.432 81.9363H140.845C140.925 81.9431 140.999 81.9811 141.051 82.042C141.103 82.103 141.129 82.1821 141.123 82.2621V83.1023C141.129 83.1823 141.103 83.2614 141.051 83.3224C140.999 83.3833 140.925 83.4213 140.845 83.4281H137.432C137.352 83.4213 137.278 83.3833 137.226 83.3224C137.174 83.2614 137.148 83.1823 137.153 83.1023V82.8769H136.744V82.467H137.153V82.2621C137.148 82.1821 137.174 82.103 137.226 82.042C137.278 81.9811 137.352 81.9431 137.432 81.9363Z" clip-rule="evenodd"/><path fill="#BEBEBE" fill-rule="evenodd" d="M138.502 82.0837H140.671C140.757 82.0837 140.84 82.1181 140.901 82.1792C140.962 82.2403 140.996 82.3232 140.996 82.4096V83.0469C140.996 83.1333 140.962 83.2162 140.901 83.2773C140.84 83.3384 140.757 83.3727 140.671 83.3727H138.502C138.416 83.3727 138.333 83.3384 138.272 83.2773C138.211 83.2162 138.177 83.1333 138.177 83.0469V82.4096C138.177 82.3232 138.211 82.2403 138.272 82.1792C138.333 82.1181 138.416 82.0837 138.502 82.0837Z" clip-rule="evenodd"/><path fill="#fff" fill-rule="evenodd" d="M134.774 82.8583C134.785 82.8586 134.797 82.8566 134.807 82.8523C134.818 82.8481 134.827 82.8418 134.835 82.8337C134.843 82.8248 134.849 82.8144 134.853 82.8032C134.857 82.7919 134.859 82.78 134.858 82.7681C134.859 82.7558 134.857 82.7433 134.853 82.7316C134.849 82.72 134.842 82.7093 134.833 82.7005C134.826 82.693 134.816 82.6871 134.806 82.6833C134.796 82.6794 134.785 82.6776 134.774 82.678C134.763 82.6774 134.752 82.6791 134.741 82.683C134.73 82.6869 134.721 82.6928 134.713 82.7005C134.705 82.7097 134.698 82.7205 134.695 82.7321C134.691 82.7437 134.689 82.7559 134.69 82.7681C134.689 82.78 134.691 82.7919 134.695 82.8032C134.699 82.8144 134.705 82.8248 134.713 82.8337C134.72 82.8421 134.73 82.8486 134.741 82.8529C134.751 82.8571 134.763 82.859 134.774 82.8583ZM134.659 82.6267C134.635 82.6131 134.616 82.5923 134.604 82.5673C134.596 82.5477 134.592 82.5269 134.592 82.5058C134.592 82.4855 134.596 82.4653 134.604 82.4466C134.612 82.4279 134.624 82.4111 134.639 82.3972C134.677 82.3672 134.725 82.352 134.774 82.3542C134.822 82.3509 134.87 82.3663 134.907 82.3972C134.923 82.4107 134.935 82.4273 134.944 82.4461C134.952 82.4649 134.956 82.4852 134.956 82.5058C134.956 82.5271 134.951 82.5481 134.942 82.5673C134.931 82.5913 134.912 82.6109 134.889 82.6226C134.915 82.6378 134.937 82.6598 134.952 82.6862C134.967 82.7139 134.975 82.7449 134.975 82.7763C134.975 82.7999 134.97 82.8232 134.96 82.8447C134.951 82.8663 134.937 82.8855 134.919 82.9013C134.899 82.9196 134.875 82.9336 134.849 82.9424C134.823 82.9512 134.795 82.9546 134.768 82.9526C134.714 82.9556 134.661 82.9372 134.62 82.9013C134.588 82.8677 134.571 82.8228 134.571 82.7763C134.571 82.7449 134.579 82.7139 134.594 82.6862C134.609 82.6604 134.632 82.6397 134.659 82.6267ZM134.774 82.5899C134.794 82.591 134.813 82.5844 134.827 82.5714C134.84 82.5567 134.847 82.5376 134.846 82.5181C134.847 82.5084 134.846 82.4985 134.843 82.4892C134.84 82.4798 134.835 82.4714 134.828 82.4644C134.821 82.4575 134.812 82.4522 134.803 82.4491C134.794 82.446 134.784 82.445 134.774 82.4464C134.754 82.4456 134.734 82.4521 134.719 82.4649C134.706 82.4795 134.699 82.4986 134.7 82.5181C134.699 82.5376 134.706 82.5567 134.719 82.5714C134.734 82.5841 134.754 82.5907 134.774 82.5899Z" clip-rule="evenodd"/><path fill="#fff" fill-rule="evenodd" d="M135.241 82.8584C135.257 82.8592 135.272 82.8542 135.285 82.8444C135.297 82.8346 135.305 82.8207 135.308 82.8051C135.32 82.7547 135.325 82.7031 135.323 82.6514C135.325 82.5998 135.32 82.5481 135.308 82.4977C135.305 82.4824 135.297 82.4686 135.284 82.4592C135.272 82.4497 135.256 82.4452 135.241 82.4465C135.225 82.446 135.21 82.4509 135.198 82.4602C135.186 82.4695 135.177 82.4827 135.173 82.4977C135.161 82.5479 135.155 82.5997 135.157 82.6514C135.155 82.7032 135.161 82.7549 135.173 82.8051C135.177 82.8203 135.186 82.8338 135.198 82.8434C135.21 82.8531 135.225 82.8584 135.241 82.8584ZM135.446 82.6535C135.45 82.7299 135.435 82.8063 135.401 82.8748C135.385 82.9013 135.362 82.9226 135.334 82.9364C135.307 82.9502 135.276 82.9559 135.245 82.9527C135.214 82.9556 135.183 82.9499 135.156 82.9361C135.128 82.9223 135.105 82.9011 135.089 82.8748C135.056 82.8059 135.041 82.7298 135.044 82.6535C135.041 82.5771 135.056 82.5011 135.089 82.4321C135.106 82.406 135.129 82.3849 135.156 82.3711C135.184 82.3574 135.214 82.3516 135.245 82.3543C135.276 82.3513 135.306 82.3571 135.334 82.3708C135.361 82.3846 135.385 82.4058 135.401 82.4321C135.429 82.5014 135.44 82.5769 135.431 82.6514L135.446 82.6535Z" clip-rule="evenodd"/><path fill="#fff" fill-rule="evenodd" d="M135.691 82.506C135.691 82.4892 135.685 82.473 135.673 82.4611C135.661 82.4492 135.645 82.4425 135.628 82.4425C135.62 82.4425 135.611 82.4441 135.604 82.4472C135.596 82.4504 135.589 82.4551 135.583 82.4609C135.577 82.4669 135.572 82.4739 135.569 82.4816C135.566 82.4894 135.564 82.4977 135.564 82.506C135.564 82.5144 135.566 82.5227 135.569 82.5305C135.572 82.5382 135.577 82.5452 135.583 82.5511C135.589 82.557 135.596 82.5617 135.604 82.5648C135.611 82.568 135.62 82.5696 135.628 82.5696C135.645 82.5696 135.661 82.5629 135.673 82.551C135.685 82.539 135.691 82.5229 135.691 82.506ZM135.628 82.6556C135.608 82.656 135.589 82.6522 135.571 82.6444C135.553 82.6366 135.537 82.6251 135.524 82.6105C135.497 82.583 135.482 82.5463 135.482 82.5081C135.482 82.4699 135.497 82.4331 135.524 82.4056C135.537 82.3911 135.553 82.3795 135.571 82.3717C135.589 82.364 135.608 82.3601 135.628 82.3605C135.648 82.3602 135.668 82.3641 135.686 82.3719C135.704 82.3796 135.721 82.3911 135.734 82.4056C135.755 82.4266 135.769 82.4533 135.774 82.4821C135.78 82.511 135.777 82.5409 135.765 82.568C135.754 82.5951 135.735 82.6183 135.71 82.6346C135.686 82.6509 135.657 82.6596 135.628 82.6597V82.6556ZM136.017 82.7335C136 82.7335 135.984 82.7402 135.972 82.7521C135.96 82.764 135.954 82.7802 135.954 82.797C135.953 82.8054 135.955 82.8138 135.958 82.8215C135.961 82.8293 135.966 82.8363 135.972 82.8421C135.978 82.848 135.985 82.8527 135.993 82.8558C136 82.859 136.009 82.8606 136.017 82.8606C136.034 82.8606 136.05 82.8539 136.062 82.8419C136.074 82.83 136.08 82.8139 136.08 82.797C136.081 82.7887 136.079 82.7804 136.076 82.7726C136.073 82.7649 136.068 82.7579 136.062 82.7519C136.056 82.7462 136.049 82.7418 136.041 82.739C136.033 82.7362 136.025 82.735 136.017 82.7355V82.7335ZM136.017 82.9384C135.998 82.9388 135.978 82.9352 135.96 82.9278C135.942 82.9204 135.926 82.9094 135.913 82.8954C135.884 82.8672 135.868 82.8289 135.868 82.7888C135.868 82.7693 135.872 82.7499 135.879 82.7319C135.887 82.7139 135.898 82.6977 135.913 82.6843C135.94 82.6578 135.977 82.6429 136.015 82.6429C136.053 82.6429 136.09 82.6578 136.117 82.6843C136.132 82.6975 136.143 82.7137 136.151 82.7317C136.159 82.7497 136.163 82.7692 136.162 82.7888C136.163 82.8087 136.159 82.8285 136.151 82.8469C136.143 82.8652 136.132 82.8817 136.117 82.8954C136.105 82.9107 136.09 82.9234 136.073 82.9326C136.055 82.9417 136.036 82.9472 136.017 82.9487V82.9384ZM135.954 82.3462H136.015L135.691 82.9425H135.63L135.954 82.3462Z" clip-rule="evenodd"/><path stroke="#454545" stroke-linecap="round" stroke-linejoin="round" stroke-width=".5" d="M63.0865 90.7029L59.1635 90.625L60.6439 92.0411L59.1635 90.625L60.5087 89.2766"/><path fill="#BEBEBE" fill-rule="evenodd" stroke="#454545" stroke-linecap="round" stroke-linejoin="round" stroke-width=".5" d="M130.276 88.1394H133.12C133.366 88.1542 133.597 88.2662 133.762 88.4509C133.927 88.6356 134.011 88.878 133.998 89.1251V91.8649C134.011 92.1119 133.926 92.354 133.761 92.5386C133.597 92.7232 133.366 92.8353 133.12 92.8506H130.276C130.029 92.8353 129.798 92.7232 129.634 92.5386C129.469 92.354 129.384 92.1119 129.397 91.8649V89.1251C129.384 88.878 129.469 88.6356 129.633 88.4509C129.798 88.2662 130.029 88.1542 130.276 88.1394Z" clip-rule="evenodd"/><path fill="#454545" fill-rule="evenodd" d="M130.902 91.1721C131.017 90.9582 131.186 90.7781 131.391 90.6496C131.544 90.5462 131.689 90.4318 131.825 90.3074C131.92 90.2132 131.974 90.0861 131.977 89.9528C131.981 89.8582 131.949 89.7655 131.889 89.6926C131.852 89.6548 131.806 89.6261 131.756 89.6084C131.706 89.5907 131.652 89.5846 131.6 89.5905C131.547 89.5964 131.496 89.6142 131.451 89.6425C131.406 89.6708 131.368 89.709 131.34 89.7541C131.303 89.8507 131.285 89.9537 131.287 90.0573H130.816C130.816 89.8811 130.854 89.7069 130.929 89.5471C130.995 89.4249 131.096 89.3249 131.219 89.2594C131.341 89.1939 131.48 89.1656 131.619 89.1782C131.844 89.1676 132.064 89.2456 132.233 89.3954C132.31 89.4689 132.371 89.5582 132.411 89.6572C132.451 89.7562 132.469 89.8626 132.464 89.9692C132.467 90.1454 132.41 90.3171 132.303 90.4569C132.201 90.5779 132.082 90.6835 131.95 90.7705L131.746 90.9078C131.625 90.9959 131.541 91.0574 131.498 91.0963C131.453 91.1343 131.414 91.1792 131.383 91.2295H132.46V91.6578H130.773C130.78 91.4884 130.824 91.3225 130.902 91.1721Z" clip-rule="evenodd"/><path fill="#454545" fill-rule="evenodd" d="M137.698 88.6535C137.695 88.5593 137.72 88.4664 137.77 88.3867C137.821 88.307 137.893 88.2441 137.979 88.2061C138.066 88.168 138.161 88.1566 138.254 88.1732C138.346 88.1898 138.432 88.2337 138.5 88.2993C138.567 88.3649 138.614 88.4492 138.633 88.5414C138.653 88.6336 138.644 88.7295 138.609 88.8168C138.573 88.9042 138.513 88.979 138.435 89.0316C138.357 89.0843 138.265 89.1125 138.171 89.1125C138.047 89.1142 137.928 89.0668 137.839 88.9808C137.751 88.8947 137.7 88.7771 137.698 88.6535Z" clip-rule="evenodd"/><path fill="#454545" fill-rule="evenodd" d="M137.72 90.1598C137.718 90.0662 137.744 89.9741 137.795 89.8952C137.845 89.8164 137.918 89.7544 138.004 89.7171C138.09 89.6799 138.185 89.6691 138.277 89.6861C138.369 89.7031 138.454 89.7471 138.521 89.8126C138.587 89.8781 138.633 89.9621 138.652 90.0538C138.671 90.1455 138.663 90.2407 138.627 90.3275C138.592 90.4142 138.532 90.4884 138.454 90.5407C138.376 90.5929 138.285 90.6209 138.191 90.6209C138.068 90.622 137.949 90.5741 137.861 90.4877C137.773 90.4012 137.722 90.2834 137.72 90.1598Z" clip-rule="evenodd"/><path fill="#454545" fill-rule="evenodd" d="M137.743 91.7008C137.741 91.6072 137.767 91.5151 137.817 91.4362C137.868 91.3574 137.941 91.2954 138.026 91.2581C138.112 91.2209 138.207 91.2101 138.299 91.2271C138.391 91.2441 138.476 91.2882 138.543 91.3536C138.61 91.4191 138.656 91.5031 138.675 91.5948C138.694 91.6865 138.685 91.7818 138.65 91.8685C138.615 91.9552 138.554 92.0294 138.477 92.0817C138.399 92.1339 138.307 92.1619 138.214 92.1619C138.09 92.163 137.972 92.1151 137.883 92.0287C137.795 91.9423 137.745 91.8244 137.743 91.7008Z" clip-rule="evenodd"/><path fill="#fff" fill-rule="evenodd" stroke="#35416B" stroke-linecap="round" stroke-linejoin="round" d="M63.752 107.849H129.905C131.38 107.849 132.576 109.461 132.576 111.449V201.26C132.576 203.246 131.38 204.858 129.905 204.858H63.752C62.2761 204.858 61.0804 203.246 61.0804 201.26V111.449C61.0804 109.461 62.2761 107.849 63.752 107.849Z" clip-rule="evenodd"/><path fill="#35416B" fill-rule="evenodd" d="M66.0765 113.603H66.5698L67.4687 115.181V113.603H67.9077V115.865H67.4395L66.5176 114.257V115.865H66.0786L66.0765 113.603Z" clip-rule="evenodd"/><path fill="#35416B" fill-rule="evenodd" d="M69.2332 115.051C69.2069 115.068 69.1789 115.082 69.1496 115.093C69.1119 115.106 69.0735 115.116 69.0346 115.125L68.9364 115.141C68.8676 115.152 68.8008 115.173 68.7378 115.202C68.706 115.222 68.68 115.249 68.6624 115.282C68.6447 115.315 68.6361 115.352 68.6374 115.389C68.6349 115.419 68.6393 115.449 68.6502 115.477C68.661 115.505 68.6781 115.53 68.7002 115.55C68.7428 115.585 68.7961 115.602 68.8507 115.601C68.9437 115.601 69.0343 115.571 69.1099 115.517C69.1532 115.48 69.187 115.434 69.2085 115.381C69.23 115.328 69.2385 115.271 69.2332 115.215V115.051ZM68.9677 114.842C69.0272 114.837 69.0856 114.823 69.1413 114.802C69.168 114.794 69.1915 114.778 69.2084 114.755C69.2253 114.733 69.2347 114.706 69.2353 114.678C69.2379 114.65 69.2326 114.622 69.2201 114.597C69.2075 114.571 69.1882 114.55 69.1642 114.536C69.0986 114.506 69.0269 114.493 68.9552 114.498C68.917 114.495 68.8788 114.5 68.8428 114.513C68.8068 114.526 68.7739 114.547 68.7462 114.573C68.7128 114.619 68.6919 114.672 68.6855 114.728H68.2674C68.271 114.598 68.314 114.471 68.3908 114.366C68.4668 114.287 68.56 114.227 68.6631 114.191C68.7661 114.154 68.8761 114.143 68.9845 114.156C69.1533 114.152 69.3205 114.189 69.4715 114.265C69.5441 114.306 69.6027 114.368 69.64 114.443C69.6772 114.517 69.6913 114.602 69.6806 114.684V115.647C69.6801 115.687 69.6894 115.726 69.7078 115.762C69.7241 115.784 69.7456 115.802 69.7705 115.815V115.877H69.2959C69.285 115.847 69.2759 115.815 69.2688 115.783C69.2682 115.749 69.264 115.715 69.2562 115.682C69.1952 115.748 69.1248 115.804 69.0472 115.848C68.9498 115.904 68.8393 115.932 68.7273 115.93C68.5906 115.936 68.4567 115.89 68.3531 115.8C68.3029 115.754 68.2637 115.697 68.2384 115.633C68.2131 115.57 68.2023 115.501 68.2068 115.433C68.2009 115.344 68.2198 115.255 68.2616 115.176C68.3033 115.097 68.3661 115.031 68.443 114.986C68.5623 114.926 68.6923 114.889 68.8256 114.879L68.9677 114.842Z" clip-rule="evenodd"/><path fill="#35416B" fill-rule="evenodd" d="M72.3333 114.349C72.3818 114.41 72.4148 114.482 72.4294 114.559C72.4395 114.641 72.4444 114.723 72.4441 114.806V115.854H71.9988V114.789C72.0009 114.735 71.9902 114.681 71.9674 114.632C71.9485 114.594 71.9183 114.562 71.8809 114.541C71.8436 114.521 71.8008 114.512 71.7584 114.517C71.7067 114.513 71.6552 114.525 71.6107 114.552C71.5662 114.578 71.5309 114.618 71.5096 114.666C71.4842 114.727 71.4721 114.792 71.4741 114.858V115.854H71.0351V114.869C71.0394 114.798 71.0287 114.726 71.0037 114.659C70.9857 114.62 70.956 114.587 70.9185 114.565C70.8811 114.543 70.8378 114.534 70.7947 114.538C70.7456 114.532 70.6959 114.54 70.6514 114.561C70.6069 114.583 70.5696 114.617 70.5438 114.659C70.5166 114.726 70.5044 114.797 70.5083 114.869V115.875H70.0651V114.198H70.4832V114.443C70.5239 114.373 70.5754 114.31 70.6358 114.257C70.7321 114.188 70.8482 114.154 70.9661 114.158C71.0756 114.154 71.1838 114.184 71.2755 114.244C71.3407 114.3 71.3904 114.373 71.4197 114.454C71.4694 114.366 71.5416 114.294 71.6288 114.244C71.7214 114.197 71.824 114.173 71.9277 114.175C71.9994 114.177 72.0702 114.192 72.1368 114.219C72.2117 114.246 72.2791 114.29 72.3333 114.349Z" clip-rule="evenodd"/><path fill="#35416B" fill-rule="evenodd" d="M73.1633 114.86H73.8427C73.842 114.763 73.8038 114.669 73.7361 114.598C73.7053 114.569 73.6689 114.545 73.6291 114.53C73.5893 114.514 73.5468 114.507 73.504 114.508C73.4602 114.505 73.4162 114.512 73.3754 114.529C73.3345 114.545 73.2978 114.57 73.2678 114.603C73.2086 114.676 73.1722 114.766 73.1633 114.86ZM74.1542 114.473C74.2213 114.577 74.2648 114.695 74.2817 114.819C74.2943 114.928 74.2984 115.039 74.2942 115.15H73.1529C73.149 115.217 73.1612 115.284 73.1885 115.345C73.2157 115.406 73.2573 115.46 73.3096 115.502C73.3709 115.545 73.4441 115.567 73.5187 115.565C73.5951 115.566 73.6694 115.539 73.7277 115.49C73.7626 115.457 73.7904 115.418 73.8092 115.374H74.2545C74.2359 115.489 74.1818 115.594 74.0998 115.676C74.0242 115.759 73.9311 115.824 73.8273 115.866C73.7236 115.909 73.6117 115.928 73.4999 115.921C73.2933 115.922 73.0936 115.847 72.9375 115.712C72.8504 115.625 72.7835 115.519 72.7416 115.403C72.6997 115.287 72.6838 115.164 72.695 115.041C72.6764 114.8 72.7513 114.561 72.9041 114.374C72.9776 114.297 73.0665 114.237 73.1649 114.198C73.2632 114.158 73.3688 114.139 73.4748 114.143C73.6037 114.141 73.7314 114.168 73.849 114.221C73.9742 114.271 74.0808 114.359 74.1542 114.473Z" clip-rule="evenodd"/><path fill="#35416B" fill-rule="evenodd" d="M65.9615 123.82H66.4255V124.751L67.2952 123.82H67.9056L66.9795 124.751L67.9537 126.082H67.3453L66.6492 125.095L66.4255 125.326V126.082H65.9615V123.82Z" clip-rule="evenodd"/><path fill="#35416B" fill-rule="evenodd" d="M68.5014 125.078H69.1787C69.1788 124.98 69.1414 124.887 69.0742 124.816C69.0431 124.786 69.0064 124.763 68.9662 124.747C68.926 124.732 68.8831 124.724 68.8401 124.726C68.7965 124.723 68.7529 124.73 68.7124 124.746C68.6718 124.763 68.6355 124.788 68.606 124.82C68.5467 124.894 68.5104 124.984 68.5014 125.078ZM69.4923 124.69C69.5588 124.795 69.6016 124.913 69.6177 125.036C69.6321 125.146 69.637 125.257 69.6324 125.367H68.4847C68.4805 125.435 68.4925 125.502 68.5198 125.564C68.5471 125.626 68.5889 125.68 68.6415 125.722C68.7033 125.763 68.7762 125.785 68.8505 125.785C68.9272 125.785 69.0014 125.757 69.0596 125.707C69.0931 125.674 69.1206 125.635 69.1411 125.592H69.5864C69.5678 125.706 69.5136 125.812 69.4317 125.894C69.356 125.977 69.263 126.042 69.1592 126.084C69.0555 126.126 68.9436 126.145 68.8317 126.139C68.6249 126.141 68.4245 126.067 68.2694 125.929C68.1819 125.842 68.1146 125.737 68.0723 125.621C68.03 125.505 68.0138 125.381 68.0248 125.258C68.0181 125.014 68.1083 124.776 68.2757 124.598C68.3492 124.521 68.4381 124.461 68.5364 124.421C68.6348 124.382 68.7404 124.363 68.8464 124.367C68.976 124.365 69.1046 124.391 69.2227 124.445C69.3336 124.5 69.427 124.585 69.4923 124.69Z" clip-rule="evenodd"/><path fill="#35416B" fill-rule="evenodd" d="M69.9941 126.403H70.0485C70.0895 126.407 70.1308 126.407 70.1718 126.403C70.2069 126.399 70.2405 126.387 70.2701 126.368C70.3028 126.338 70.3273 126.3 70.3412 126.259C70.3578 126.228 70.3664 126.193 70.3662 126.158L69.7558 124.409H70.2408L70.6046 125.644L70.9495 124.409H71.4115L70.8387 126.066C70.7781 126.273 70.6902 126.472 70.5774 126.657C70.524 126.701 70.4621 126.734 70.3956 126.753C70.3291 126.773 70.2594 126.779 70.1906 126.77H69.9921L69.9941 126.403Z" clip-rule="evenodd"/><path fill="#35416B" fill-rule="evenodd" d="M66.1079 138.747H67.7071V139.145H66.5762V139.665H67.5671V140.06H66.5762V141.009H66.1079V138.747Z" clip-rule="evenodd"/><path fill="#35416B" fill-rule="evenodd" d="M68.307 140.005H68.9843C68.9842 139.907 68.9469 139.812 68.8798 139.741C68.8487 139.711 68.812 139.688 68.7718 139.672C68.7316 139.657 68.6887 139.649 68.6456 139.651C68.6021 139.648 68.5584 139.655 68.5179 139.671C68.4774 139.688 68.441 139.713 68.4115 139.745C68.3513 139.819 68.3149 139.91 68.307 140.005ZM69.2958 139.615C69.3638 139.719 69.4074 139.838 69.4233 139.961C69.4376 140.071 69.4425 140.182 69.4379 140.292H68.2944C68.2905 140.36 68.3028 140.427 68.3305 140.489C68.3581 140.551 68.4003 140.605 68.4533 140.647C68.5152 140.688 68.588 140.71 68.6624 140.71C68.739 140.709 68.8131 140.682 68.8714 140.632C68.905 140.599 68.932 140.56 68.9508 140.517H69.3982C69.3796 140.631 69.3254 140.737 69.2435 140.819C69.1674 140.902 69.074 140.967 68.9699 141.009C68.8658 141.051 68.7536 141.07 68.6415 141.064C68.5283 141.068 68.4157 141.047 68.3114 141.003C68.207 140.959 68.1134 140.893 68.037 140.809C67.9605 140.726 67.903 140.627 67.8684 140.518C67.8338 140.41 67.823 140.296 67.8366 140.183C67.818 139.942 67.8929 139.703 68.0457 139.517C68.1192 139.44 68.2081 139.38 68.3064 139.34C68.4048 139.3 68.5104 139.282 68.6164 139.286C68.7459 139.284 68.8743 139.311 68.9927 139.364C69.1135 139.416 69.2156 139.503 69.2853 139.615H69.2958Z" clip-rule="evenodd"/><path fill="#35416B" fill-rule="evenodd" d="M70.6525 140.194C70.6262 140.211 70.5981 140.225 70.5689 140.236C70.5311 140.25 70.4918 140.261 70.4518 140.267L70.3557 140.286C70.283 140.293 70.2122 140.313 70.1466 140.345C70.0963 140.38 70.0619 140.434 70.0509 140.494C70.04 140.555 70.0533 140.617 70.0881 140.668L70.1069 140.693C70.1504 140.727 70.2043 140.745 70.2595 140.743C70.3526 140.743 70.4433 140.714 70.5187 140.659C70.562 140.623 70.5959 140.576 70.6173 140.524C70.6388 140.471 70.6473 140.414 70.642 140.357L70.6525 140.194ZM70.387 139.984C70.446 139.978 70.5042 139.965 70.5605 139.946C70.587 139.938 70.6101 139.921 70.6266 139.898C70.6431 139.876 70.6521 139.849 70.6525 139.821C70.6556 139.793 70.6505 139.764 70.6379 139.739C70.6253 139.714 70.6057 139.692 70.5814 139.678C70.5158 139.649 70.4441 139.636 70.3724 139.64C70.334 139.637 70.2953 139.642 70.2592 139.656C70.2231 139.669 70.1903 139.69 70.1633 139.718C70.129 139.762 70.1073 139.815 70.1006 139.871H69.6825C69.6855 139.741 69.7286 139.615 69.8059 139.51C69.8807 139.429 69.9734 139.367 70.0765 139.329C70.1795 139.29 70.2902 139.276 70.3995 139.288C70.5681 139.286 70.7348 139.323 70.8866 139.397C70.9591 139.438 71.0178 139.5 71.055 139.575C71.0923 139.649 71.1064 139.734 71.0957 139.816V140.779C71.0934 140.82 71.1021 140.86 71.1207 140.896C71.1385 140.918 71.1606 140.935 71.1856 140.947V141.012H70.711C70.6988 140.98 70.6897 140.948 70.6839 140.915C70.6776 140.882 70.6734 140.848 70.6713 140.815C70.6098 140.88 70.5395 140.936 70.4623 140.982C70.3653 141.037 70.2556 141.064 70.1445 141.062C70.0078 141.068 69.8739 141.022 69.7703 140.932C69.7199 140.886 69.6803 140.829 69.6547 140.765C69.629 140.702 69.6178 140.633 69.6219 140.565C69.6157 140.476 69.6348 140.386 69.6769 140.307C69.7191 140.228 69.7826 140.163 69.8602 140.118C69.9795 140.058 70.1095 140.021 70.2428 140.011L70.387 139.984Z" clip-rule="evenodd"/><path fill="#35416B" fill-rule="evenodd" d="M71.3047 139.661V139.351H71.5368V138.883H71.9695V139.351H72.2475V139.661H71.9778V140.546C71.9725 140.59 71.9812 140.635 72.0029 140.674C72.0526 140.697 72.1076 140.706 72.1618 140.699H72.2475V141.026H72.0385C71.9651 141.037 71.8902 141.033 71.8184 141.014C71.7466 140.995 71.6793 140.962 71.6204 140.917C71.5677 140.852 71.5415 140.77 71.5472 140.687V139.655L71.3047 139.661Z" clip-rule="evenodd"/><path fill="#35416B" fill-rule="evenodd" d="M72.9543 139.334V140.343C72.9517 140.414 72.9631 140.485 72.9877 140.552C73.0094 140.595 73.0433 140.63 73.0851 140.653C73.1268 140.675 73.1745 140.685 73.2218 140.68C73.2856 140.686 73.3495 140.671 73.4046 140.638C73.4597 140.606 73.5032 140.557 73.5291 140.498C73.5606 140.415 73.5748 140.326 73.571 140.238V139.328H74.0141V141.005H73.596V140.768C73.5837 140.782 73.5732 140.798 73.5647 140.814C73.55 140.84 73.5309 140.863 73.5082 140.882C73.4474 140.937 73.3764 140.98 73.2992 141.007C73.227 141.031 73.1514 141.042 73.0755 141.041C72.9751 141.053 72.8735 141.034 72.7843 140.986C72.695 140.938 72.6223 140.865 72.5759 140.775C72.5194 140.637 72.4944 140.488 72.5027 140.339V139.33L72.9543 139.334Z" clip-rule="evenodd"/><path fill="#35416B" fill-rule="evenodd" d="M75.4 139.299V139.745H75.2745C75.2053 139.736 75.1349 139.747 75.0721 139.778C75.0092 139.808 74.9568 139.857 74.9213 139.917C74.881 140.011 74.8632 140.113 74.869 140.215V141.016H74.43V139.338H74.8481V139.63C74.8958 139.545 74.9557 139.468 75.0258 139.401C75.1161 139.33 75.2288 139.294 75.3435 139.299H75.4Z" clip-rule="evenodd"/><path fill="#35416B" fill-rule="evenodd" d="M75.9748 140.005H76.6521C76.6521 139.907 76.6147 139.812 76.5476 139.741C76.5165 139.711 76.4798 139.688 76.4396 139.672C76.3994 139.657 76.3565 139.649 76.3135 139.651C76.2699 139.648 76.2262 139.655 76.1857 139.671C76.1452 139.688 76.1089 139.713 76.0793 139.745C76.0192 139.819 75.9827 139.91 75.9748 140.005ZM76.9636 139.615C77.0316 139.719 77.0752 139.838 77.0911 139.961C77.1054 140.071 77.1103 140.182 77.1057 140.292H75.9623C75.9583 140.36 75.9707 140.427 75.9983 140.489C76.026 140.551 76.0681 140.605 76.1212 140.647C76.183 140.688 76.2558 140.71 76.3302 140.71C76.4069 140.71 76.4811 140.682 76.5392 140.632C76.5729 140.599 76.5998 140.56 76.6187 140.517H77.066C77.0474 140.631 76.9933 140.737 76.9113 140.819C76.8353 140.902 76.7418 140.967 76.6377 141.009C76.5336 141.051 76.4215 141.07 76.3093 141.064C76.1962 141.068 76.0836 141.047 75.9792 141.003C75.8749 140.959 75.7813 140.893 75.7048 140.809C75.6283 140.726 75.5708 140.627 75.5362 140.518C75.5017 140.41 75.4908 140.296 75.5045 140.183C75.4858 139.942 75.5607 139.703 75.7135 139.517C75.7871 139.44 75.8759 139.38 75.9743 139.34C76.0726 139.3 76.1782 139.282 76.2842 139.286C76.4137 139.284 76.5421 139.311 76.6605 139.364C76.7851 139.414 76.891 139.502 76.9636 139.615Z" clip-rule="evenodd"/><path fill="#35416B" fill-rule="evenodd" d="M79.3323 138.745H79.7733V141.009H79.3385L79.3323 138.745ZM79.0647 138.73V139.087H78.9372C78.8703 139.087 78.8285 139.106 78.8118 139.143C78.7951 139.201 78.7887 139.262 78.7929 139.322V139.353H79.0793V139.661H78.7929V141.012H78.3581V139.661H78.101V139.353H78.3414V139.244C78.3288 139.102 78.3707 138.96 78.4585 138.848C78.5177 138.798 78.5866 138.762 78.6608 138.74C78.7349 138.719 78.8127 138.713 78.8891 138.724H78.9706L79.0647 138.73Z" clip-rule="evenodd"/><path fill="#35416B" fill-rule="evenodd" d="M81.1069 140.194C81.0806 140.211 81.0526 140.225 81.0233 140.236C80.9855 140.25 80.9463 140.261 80.9063 140.267L80.8101 140.286C80.7374 140.293 80.6666 140.312 80.601 140.345C80.5507 140.38 80.5163 140.433 80.5054 140.494C80.4944 140.554 80.5078 140.617 80.5425 140.668L80.5613 140.693C80.604 140.727 80.6573 140.745 80.7118 140.743C80.8056 140.743 80.897 140.714 80.9732 140.659C81.0163 140.622 81.0501 140.576 81.0715 140.523C81.093 140.471 81.1015 140.414 81.0965 140.357L81.1069 140.194ZM80.8415 139.984C80.9005 139.978 80.9586 139.965 81.015 139.946C81.0414 139.937 81.0646 139.921 81.081 139.898C81.0975 139.876 81.1066 139.848 81.1069 139.82C81.1101 139.792 81.105 139.764 81.0924 139.739C81.0798 139.713 81.0602 139.692 81.0359 139.678C80.9702 139.649 80.8985 139.636 80.8268 139.64C80.7884 139.637 80.7498 139.642 80.7136 139.655C80.6775 139.669 80.6448 139.69 80.6178 139.718C80.5835 139.762 80.5618 139.815 80.5551 139.871H80.137C80.1407 139.741 80.1829 139.616 80.2582 139.51C80.3337 139.429 80.4268 139.367 80.5301 139.329C80.6335 139.29 80.7443 139.276 80.854 139.288C81.0226 139.286 81.1893 139.323 81.3411 139.397C81.4136 139.438 81.4722 139.5 81.5095 139.575C81.5467 139.649 81.5609 139.733 81.5501 139.816V140.779C81.5479 140.819 81.5566 140.86 81.5752 140.896C81.5929 140.917 81.6151 140.934 81.64 140.946V141.011H81.1655C81.1533 140.98 81.1442 140.948 81.1383 140.915C81.1321 140.882 81.1279 140.848 81.1258 140.814C81.0643 140.88 80.9939 140.936 80.9167 140.982C80.8197 141.036 80.71 141.064 80.599 141.062C80.4622 141.068 80.3284 141.021 80.2248 140.932C80.1743 140.886 80.1348 140.829 80.1091 140.765C80.0834 140.702 80.0722 140.633 80.0763 140.565C80.0701 140.475 80.0892 140.386 80.1314 140.307C80.1735 140.228 80.2371 140.163 80.3147 140.118C80.4339 140.058 80.5639 140.021 80.6972 140.011L80.8415 139.984Z" clip-rule="evenodd"/><path fill="#35416B" fill-rule="evenodd" d="M83.0114 140.164C83.0197 140.036 82.9843 139.908 82.9111 139.802C82.8789 139.761 82.8378 139.729 82.7909 139.708C82.7441 139.686 82.6929 139.676 82.6414 139.678C82.5732 139.674 82.5057 139.692 82.4487 139.73C82.3918 139.768 82.3487 139.823 82.3257 139.888C82.2927 139.978 82.2771 140.074 82.2797 140.171C82.2778 140.26 82.2942 140.348 82.3278 140.431C82.3514 140.495 82.395 140.55 82.4522 140.588C82.5094 140.626 82.5772 140.644 82.6456 140.64C82.6946 140.643 82.7437 140.635 82.7893 140.617C82.8349 140.598 82.8758 140.57 82.909 140.533C82.9877 140.428 83.0243 140.296 83.0114 140.164ZM82.7564 139.326C82.8678 139.374 82.9588 139.46 83.0135 139.569V139.328H83.4316V140.917C83.4432 141.086 83.4054 141.256 83.3229 141.404C83.1995 141.592 82.9592 141.687 82.6059 141.687C82.424 141.695 82.2436 141.651 82.0853 141.561C82.0197 141.522 81.9649 141.467 81.9258 141.402C81.8868 141.336 81.8647 141.262 81.8616 141.186H82.3362C82.3427 141.228 82.3634 141.266 82.3947 141.295C82.4654 141.341 82.5491 141.362 82.633 141.355C82.6952 141.363 82.7582 141.352 82.8142 141.324C82.8703 141.296 82.917 141.252 82.9487 141.198C82.9896 141.089 83.0074 140.973 83.0009 140.856V140.743C82.9662 140.805 82.9201 140.86 82.8651 140.905C82.7663 140.974 82.6471 141.009 82.5264 141.003C82.4292 141.007 82.3325 140.988 82.2435 140.949C82.1544 140.91 82.0753 140.851 82.0121 140.777C81.8766 140.603 81.809 140.385 81.8219 140.164C81.8146 139.94 81.8791 139.72 82.0059 139.535C82.0653 139.453 82.1445 139.386 82.2361 139.342C82.3278 139.297 82.429 139.277 82.5306 139.282C82.608 139.282 82.6847 139.297 82.7564 139.326Z" clip-rule="evenodd"/><path fill="#35416B" fill-rule="evenodd" d="M85.1646 139.135H84.7236V138.73H85.1646V139.135ZM84.7236 139.334H85.1646V141.012H84.7236V139.334Z" clip-rule="evenodd"/><path fill="#35416B" fill-rule="evenodd" d="M85.9275 140.475C85.9295 140.535 85.9507 140.593 85.9881 140.64C86.0296 140.674 86.0775 140.699 86.1289 140.714C86.1802 140.729 86.2341 140.733 86.2871 140.726C86.3588 140.731 86.4304 140.718 86.4961 140.689C86.5175 140.679 86.5358 140.664 86.5492 140.645C86.5626 140.626 86.5704 140.603 86.5719 140.58C86.5735 140.557 86.5685 140.533 86.5578 140.512C86.547 140.492 86.5307 140.474 86.5108 140.462C86.36 140.402 86.2039 140.355 86.0446 140.324C85.8994 140.297 85.7627 140.235 85.6453 140.146C85.6052 140.107 85.5739 140.06 85.5537 140.009C85.5335 139.957 85.5248 139.901 85.5282 139.846C85.5277 139.77 85.5437 139.695 85.5751 139.626C85.6065 139.557 85.6526 139.496 85.7101 139.447C85.8536 139.329 86.0365 139.269 86.2223 139.28C86.4001 139.272 86.5766 139.315 86.7303 139.405C86.7993 139.454 86.8559 139.519 86.8951 139.594C86.9344 139.669 86.9552 139.753 86.956 139.837H86.5191C86.5166 139.79 86.5006 139.744 86.4731 139.705C86.4418 139.672 86.4031 139.647 86.3603 139.631C86.3175 139.615 86.2717 139.61 86.2265 139.615C86.1539 139.608 86.0811 139.624 86.0174 139.659C86.0001 139.671 85.9857 139.686 85.9756 139.704C85.9654 139.723 85.9597 139.743 85.9589 139.764C85.9579 139.786 85.9633 139.808 85.9744 139.828C85.9855 139.847 86.0019 139.863 86.0216 139.873C86.1699 139.926 86.3223 139.967 86.4773 139.995C86.6217 140.021 86.7565 140.086 86.8682 140.181C86.9102 140.222 86.9432 140.271 86.9651 140.325C86.9871 140.379 86.9975 140.437 86.9958 140.496C86.9981 140.573 86.9827 140.65 86.9508 140.721C86.9189 140.791 86.8714 140.853 86.8118 140.903C86.6374 141.007 86.4376 141.062 86.2344 141.06C86.0311 141.058 85.8324 141 85.6599 140.892C85.5999 140.84 85.5519 140.776 85.5194 140.703C85.4869 140.631 85.4707 140.552 85.4718 140.473L85.9275 140.475Z" clip-rule="evenodd"/><path fill="#35416B" fill-rule="evenodd" d="M89.1239 140.194C89.0975 140.211 89.0695 140.225 89.0403 140.236C89.0025 140.25 88.9632 140.261 88.9232 140.267L88.825 140.286C88.7566 140.294 88.69 140.314 88.6284 140.345C88.5781 140.38 88.5437 140.433 88.5328 140.494C88.5218 140.554 88.5352 140.617 88.5699 140.668L88.5887 140.693C88.6314 140.727 88.6847 140.745 88.7392 140.743C88.833 140.743 88.9244 140.714 89.0006 140.659C89.0437 140.622 89.0775 140.576 89.0989 140.523C89.1204 140.471 89.1289 140.414 89.1239 140.357V140.194ZM88.8584 139.984C88.9174 139.978 88.9756 139.965 89.0319 139.946C89.0584 139.937 89.0815 139.921 89.098 139.898C89.1145 139.876 89.1235 139.848 89.1239 139.82C89.127 139.792 89.1219 139.764 89.1093 139.739C89.0967 139.713 89.0771 139.692 89.0528 139.678C88.9872 139.649 88.9155 139.636 88.8438 139.64C88.8054 139.637 88.7667 139.642 88.7306 139.655C88.6944 139.669 88.6617 139.69 88.6347 139.718C88.6004 139.762 88.5787 139.815 88.572 139.871H88.1539C88.1577 139.741 88.1999 139.616 88.2752 139.51C88.3507 139.429 88.4437 139.367 88.5471 139.329C88.6504 139.29 88.7613 139.276 88.8709 139.288C89.0388 139.286 89.2049 139.323 89.3559 139.397C89.4284 139.438 89.4871 139.5 89.5243 139.575C89.5616 139.649 89.5757 139.733 89.565 139.816V140.779C89.5627 140.819 89.5714 140.86 89.59 140.896C89.6078 140.917 89.6299 140.934 89.6549 140.946V141.011H89.1803C89.1681 140.98 89.159 140.948 89.1531 140.915C89.1469 140.882 89.1427 140.848 89.1406 140.814C89.0791 140.88 89.0088 140.936 88.9316 140.982C88.8346 141.036 88.7249 141.064 88.6138 141.062C88.4771 141.068 88.3432 141.021 88.2396 140.932C88.1892 140.886 88.1496 140.829 88.1239 140.765C88.0983 140.702 88.0871 140.633 88.0912 140.565C88.085 140.475 88.104 140.386 88.1462 140.307C88.1884 140.228 88.2519 140.163 88.3295 140.118C88.4488 140.058 88.5788 140.021 88.7121 140.011L88.8584 139.984Z" clip-rule="evenodd"/><path fill="#35416B" fill-rule="evenodd" d="M90.9426 139.934C90.9357 139.874 90.9142 139.816 90.8799 139.766C90.853 139.732 90.8182 139.705 90.7785 139.687C90.7387 139.67 90.6953 139.662 90.6521 139.665C90.5859 139.662 90.5205 139.681 90.466 139.719C90.4116 139.757 90.3712 139.812 90.351 139.875C90.3178 139.975 90.3029 140.08 90.3071 140.185C90.3037 140.287 90.3186 140.387 90.351 140.483C90.3697 140.546 90.4088 140.601 90.4623 140.639C90.5157 140.677 90.5803 140.696 90.6458 140.693C90.6844 140.695 90.7231 140.689 90.7591 140.675C90.7952 140.661 90.8278 140.639 90.8548 140.611C90.899 140.55 90.9258 140.477 90.9322 140.401H91.3774C91.3668 140.539 91.3167 140.67 91.2332 140.779C91.1646 140.875 91.0728 140.952 90.9663 141.002C90.8598 141.052 90.7423 141.074 90.6249 141.066C90.5145 141.075 90.4036 141.058 90.3009 141.017C90.1982 140.975 90.1066 140.91 90.0332 140.827C89.8975 140.647 89.8302 140.424 89.843 140.198C89.8279 139.956 89.9024 139.717 90.0521 139.527C90.1245 139.447 90.2139 139.384 90.3137 139.342C90.4135 139.301 90.5212 139.282 90.6291 139.288C90.8112 139.28 90.9912 139.33 91.1433 139.431C91.2169 139.491 91.2762 139.567 91.3171 139.653C91.3579 139.738 91.3793 139.832 91.3795 139.928L90.9426 139.934Z" clip-rule="evenodd"/><path fill="#35416B" fill-rule="evenodd" d="M91.5196 139.661V139.351H91.7517V138.883H92.1844V139.351H92.4541V139.661H92.1844V140.546C92.179 140.59 92.1878 140.635 92.2095 140.674C92.2591 140.697 92.3141 140.706 92.3683 140.699H92.4541V141.026H92.245C92.1716 141.037 92.0968 141.033 92.025 141.014C91.9532 140.995 91.8858 140.962 91.8269 140.917C91.7742 140.852 91.7481 140.77 91.7538 140.687V139.655L91.5196 139.661Z" clip-rule="evenodd"/><path fill="#35416B" fill-rule="evenodd" d="M93.1834 139.135H92.734V138.73H93.1771L93.1834 139.135ZM92.7402 139.334H93.1834V141.012H92.734L92.7402 139.334Z" clip-rule="evenodd"/><path fill="#35416B" fill-rule="evenodd" d="M94.6342 139.334H95.1025L94.5025 141.012H94.0405L93.4427 139.334H93.9318L94.2788 140.569L94.6342 139.334Z" clip-rule="evenodd"/><path fill="#35416B" fill-rule="evenodd" d="M95.6608 140.005H96.3381C96.338 139.907 96.3007 139.812 96.2336 139.741C96.2025 139.711 96.1658 139.688 96.1256 139.672C96.0854 139.657 96.0425 139.649 95.9994 139.651C95.9559 139.648 95.9122 139.655 95.8717 139.671C95.8312 139.688 95.7949 139.713 95.7653 139.745C95.7051 139.819 95.6687 139.91 95.6608 140.005ZM96.6517 139.615C96.7181 139.72 96.7609 139.838 96.7771 139.961C96.7914 140.071 96.7963 140.182 96.7917 140.292H95.6608C95.6566 140.36 95.6686 140.427 95.6959 140.489C95.7232 140.551 95.7649 140.605 95.8176 140.647C95.8794 140.688 95.9522 140.71 96.0266 140.71C96.1033 140.71 96.1775 140.682 96.2357 140.632C96.2692 140.599 96.2967 140.56 96.3172 140.517H96.7625C96.7438 140.631 96.6897 140.737 96.6078 140.819C96.5321 140.902 96.439 140.967 96.3353 141.009C96.2315 141.051 96.1197 141.07 96.0078 141.064C95.801 141.066 95.6006 140.992 95.4455 140.854C95.358 140.767 95.2907 140.662 95.2484 140.546C95.2061 140.43 95.1899 140.306 95.2009 140.183C95.1823 139.942 95.2572 139.704 95.4099 139.517C95.4835 139.44 95.5724 139.38 95.6707 139.34C95.7691 139.3 95.8747 139.282 95.9806 139.286C96.1102 139.284 96.2385 139.311 96.3569 139.364C96.4811 139.414 96.5869 139.502 96.66 139.615H96.6517Z" clip-rule="evenodd"/><path fill="#35416B" fill-rule="evenodd" d="M66.733 152.89V153.5H67.2682C67.3494 153.504 67.4306 153.491 67.5065 153.462C67.5535 153.439 67.5922 153.402 67.6173 153.357C67.6424 153.311 67.6526 153.258 67.6466 153.206C67.6534 153.152 67.6442 153.097 67.62 153.048C67.5959 152.999 67.5578 152.959 67.5107 152.932C67.4383 152.9 67.3596 152.886 67.2808 152.89H66.733ZM67.9602 152.714C68.0086 152.771 68.048 152.835 68.0772 152.904C68.1084 152.98 68.1234 153.061 68.1211 153.143C68.1207 153.254 68.0926 153.363 68.0396 153.46C67.982 153.565 67.8862 153.644 67.772 153.68C67.8644 153.712 67.9427 153.775 67.9936 153.858C68.0431 153.97 68.0653 154.091 68.0584 154.213V154.372C68.0563 154.442 68.0605 154.512 68.071 154.582C68.0747 154.608 68.0841 154.633 68.0986 154.655C68.113 154.677 68.1321 154.696 68.1546 154.71V154.768H67.6361C67.6215 154.718 67.6131 154.676 67.6069 154.647C67.5947 154.582 67.5878 154.517 67.586 154.452V154.242C67.5955 154.14 67.5672 154.038 67.5065 153.955C67.4237 153.897 67.3227 153.871 67.2222 153.881H66.7351V154.77H66.2752V152.506H67.3811C67.5055 152.504 67.6292 152.524 67.7469 152.565C67.8286 152.597 67.9016 152.648 67.9602 152.714Z" clip-rule="evenodd"/><path fill="#35416B" fill-rule="evenodd" d="M69.6366 153.928C69.6458 153.788 69.6083 153.649 69.53 153.534C69.4971 153.495 69.4568 153.463 69.4116 153.439C69.3663 153.416 69.317 153.402 69.2663 153.398C69.2156 153.394 69.1646 153.4 69.1163 153.416C69.0679 153.431 69.0231 153.456 68.9844 153.49C68.9682 153.503 68.9535 153.517 68.9405 153.534C68.8736 153.652 68.8384 153.785 68.8384 153.921C68.8384 154.057 68.8736 154.191 68.9405 154.309C68.9734 154.348 69.0136 154.38 69.0589 154.403C69.1041 154.427 69.1535 154.441 69.2042 154.445C69.2549 154.449 69.3058 154.443 69.3542 154.427C69.4026 154.412 69.4474 154.386 69.4861 154.353C69.5022 154.34 69.517 154.326 69.53 154.309C69.6056 154.197 69.643 154.063 69.6366 153.928ZM69.2415 154.819C69.1218 154.828 69.0015 154.81 68.8902 154.764C68.7789 154.719 68.6794 154.649 68.5997 154.559C68.464 154.377 68.3907 154.157 68.3907 153.93C68.3907 153.703 68.464 153.482 68.5997 153.301C68.7707 153.132 69.0013 153.037 69.2415 153.037C69.4817 153.037 69.7123 153.132 69.8833 153.301C70.019 153.482 70.0923 153.703 70.0923 153.93C70.0923 154.157 70.019 154.377 69.8833 154.559C69.8036 154.649 69.7042 154.719 69.5928 154.764C69.4815 154.81 69.3612 154.828 69.2415 154.819Z" clip-rule="evenodd"/><path fill="#35416B" fill-rule="evenodd" d="M70.8512 154.762H70.4164V152.498H70.8512V154.762Z" clip-rule="evenodd"/><path fill="#35416B" fill-rule="evenodd" d="M71.7229 154.762H71.2859V152.498H71.7229V154.762Z" clip-rule="evenodd"/><path fill="#35416B" fill-rule="evenodd" d="M74.1646 153.928C74.1736 153.791 74.1376 153.654 74.0622 153.54C74.0282 153.495 73.9837 153.459 73.9327 153.435C73.8817 153.412 73.8257 153.401 73.7695 153.404C73.7131 153.401 73.6568 153.412 73.6055 153.436C73.5542 153.459 73.5093 153.495 73.4748 153.54C73.406 153.658 73.3698 153.791 73.3698 153.928C73.3698 154.064 73.406 154.198 73.4748 154.316C73.509 154.361 73.5538 154.397 73.6052 154.421C73.6566 154.445 73.713 154.455 73.7695 154.452C73.8257 154.455 73.8819 154.445 73.933 154.421C73.984 154.397 74.0284 154.361 74.0622 154.316C74.1376 154.201 74.1736 154.065 74.1646 153.928ZM73.7695 154.819C73.6498 154.828 73.5295 154.81 73.4182 154.764C73.3069 154.719 73.2074 154.649 73.1277 154.559C72.9921 154.377 72.9187 154.157 72.9187 153.93C72.9187 153.703 72.9921 153.482 73.1277 153.301C73.2987 153.132 73.5293 153.037 73.7695 153.037C74.0098 153.037 74.2403 153.132 74.4113 153.301C74.547 153.482 74.6203 153.703 74.6203 153.93C74.6203 154.157 74.547 154.377 74.4113 154.559C74.3316 154.649 74.2322 154.719 74.1208 154.764C74.0095 154.81 73.8892 154.828 73.7695 154.819Z" clip-rule="evenodd"/><path fill="#35416B" fill-rule="evenodd" d="M75.3707 153.087V154.095C75.3671 154.167 75.3785 154.238 75.4042 154.305C75.4256 154.348 75.4595 154.383 75.5013 154.406C75.5432 154.429 75.5909 154.438 75.6383 154.433C75.7018 154.438 75.7652 154.423 75.8199 154.391C75.8745 154.358 75.9177 154.309 75.9435 154.251C75.9768 154.169 75.9918 154.081 75.9874 153.993V153.081H76.4285V154.758H76.0104V154.521L75.9791 154.567C75.963 154.592 75.9433 154.615 75.9205 154.634C75.8597 154.69 75.7887 154.732 75.7115 154.76C75.6393 154.784 75.5637 154.795 75.4878 154.794C75.3875 154.805 75.286 154.786 75.1968 154.738C75.1076 154.691 75.0349 154.617 74.9882 154.527C74.9334 154.389 74.9092 154.24 74.9171 154.091V153.083L75.3707 153.087Z" clip-rule="evenodd"/><path fill="#35416B" fill-rule="evenodd" d="M76.6795 153.414V153.114H76.9115V152.646H77.3443V153.114H77.6139V153.424H77.3443V154.309C77.3389 154.353 77.3477 154.398 77.3694 154.437C77.419 154.46 77.474 154.469 77.5282 154.462H77.6139V154.792H77.4049C77.3315 154.802 77.2568 154.797 77.185 154.779C77.1133 154.76 77.0459 154.727 76.9868 154.682C76.9331 154.618 76.9068 154.535 76.9136 154.452V153.42L76.6795 153.414Z" clip-rule="evenodd"/><path fill="#35416B" fill-rule="evenodd" d="M79.5473 152.485V152.842H79.424C79.4026 152.838 79.3807 152.84 79.3601 152.847C79.3395 152.853 79.3206 152.864 79.3048 152.879C79.284 152.905 79.2729 152.937 79.2735 152.969V153.114H79.564V153.422H79.2776V154.773H78.8428V153.422H78.5982V153.114H78.8366V153.005C78.8235 152.875 78.856 152.745 78.9285 152.636C78.9913 152.535 79.1439 152.485 79.3864 152.485H79.5473Z" clip-rule="evenodd"/><path fill="#35416B" fill-rule="evenodd" d="M80.1286 153.758H80.8185C80.8177 153.659 80.7795 153.565 80.7119 153.494C80.6811 153.464 80.6447 153.441 80.6049 153.425C80.5651 153.41 80.5225 153.402 80.4798 153.403C80.4357 153.4 80.3915 153.408 80.3506 153.424C80.3097 153.441 80.2731 153.467 80.2436 153.5C80.1809 153.573 80.1409 153.662 80.1286 153.758ZM81.1195 153.368C81.1858 153.473 81.2292 153.591 81.247 153.714C81.2596 153.824 81.2638 153.934 81.2596 154.045H80.1182C80.114 154.112 80.126 154.18 80.1533 154.241C80.1806 154.303 80.2223 154.357 80.275 154.399C80.3368 154.441 80.4096 154.463 80.484 154.462C80.5609 154.463 80.6354 154.436 80.6931 154.385C80.7285 154.353 80.7563 154.313 80.7746 154.269H81.2366C81.2188 154.384 81.1645 154.49 81.0819 154.571C81.0062 154.654 80.9132 154.719 80.8094 154.762C80.7056 154.804 80.5938 154.823 80.4819 154.817C80.2754 154.817 80.0756 154.743 79.9196 154.607C79.8327 154.52 79.766 154.415 79.7241 154.3C79.6822 154.184 79.6662 154.061 79.6771 153.938C79.6574 153.697 79.7324 153.458 79.8862 153.271C79.9594 153.194 80.0482 153.134 80.1466 153.094C80.245 153.053 80.3507 153.035 80.4568 153.039C80.5857 153.037 80.7135 153.063 80.831 153.116C80.949 153.171 81.0491 153.258 81.1195 153.368Z" clip-rule="evenodd"/><path fill="#35416B" fill-rule="evenodd" d="M82.474 153.953C82.4473 153.969 82.4193 153.984 82.3904 153.997C82.353 154.01 82.3145 154.02 82.2754 154.026L82.1772 154.045C82.1087 154.053 82.0422 154.073 81.9807 154.104C81.9485 154.123 81.9221 154.15 81.9041 154.183C81.8861 154.216 81.8771 154.253 81.8782 154.29C81.8757 154.32 81.8801 154.35 81.891 154.378C81.9018 154.406 81.9189 154.431 81.941 154.452C81.9836 154.486 82.0369 154.504 82.0915 154.502C82.1845 154.502 82.2753 154.473 82.3507 154.418C82.394 154.382 82.4278 154.335 82.4493 154.282C82.4708 154.23 82.4793 154.173 82.474 154.116V153.953ZM82.2085 153.743C82.2675 153.737 82.3257 153.724 82.382 153.705C82.4091 153.697 82.4328 153.681 82.4498 153.658C82.4667 153.635 82.476 153.608 82.4761 153.579C82.4783 153.552 82.4728 153.524 82.4603 153.499C82.4478 153.474 82.4286 153.454 82.405 153.439C82.3399 153.408 82.2679 153.394 82.196 153.399C82.1576 153.396 82.1191 153.402 82.083 153.415C82.047 153.428 82.0142 153.449 81.9869 153.477C81.9533 153.521 81.9323 153.574 81.9263 153.63H81.5082C81.5112 153.5 81.5543 153.374 81.6316 153.269C81.7066 153.189 81.7993 153.127 81.9023 153.088C82.0054 153.049 82.1159 153.035 82.2253 153.047C82.3938 153.045 82.5606 153.082 82.7123 153.156C82.7849 153.197 82.8435 153.259 82.8807 153.334C82.918 153.408 82.9322 153.492 82.9214 153.575V154.536C82.9209 154.576 82.9302 154.617 82.9485 154.653C82.9663 154.674 82.9884 154.691 83.0134 154.703V154.768H82.5367C82.5255 154.737 82.5164 154.705 82.5096 154.672C82.509 154.638 82.5048 154.604 82.497 154.571C82.4361 154.637 82.3656 154.694 82.288 154.739C82.1906 154.794 82.0801 154.823 81.9681 154.821C81.8317 154.825 81.6985 154.779 81.5939 154.691C81.5441 154.644 81.5053 154.586 81.48 154.522C81.4547 154.459 81.4436 154.39 81.4476 154.322C81.4417 154.233 81.4606 154.144 81.5024 154.065C81.5441 153.986 81.6069 153.92 81.6838 153.875C81.8031 153.815 81.9331 153.778 82.0664 153.768L82.2085 153.743Z" clip-rule="evenodd"/><path fill="#35416B" fill-rule="evenodd" d="M83.118 153.414V153.114H83.35V152.646H83.7828V153.114H84.0545V153.424H83.7828V154.309C83.7774 154.353 83.7862 154.398 83.8079 154.437C83.8582 154.46 83.9139 154.469 83.9688 154.462H84.0545V154.791H83.8455C83.772 154.803 83.6971 154.799 83.6252 154.78C83.5533 154.762 83.486 154.728 83.4274 154.682C83.4003 154.651 83.3797 154.614 83.3668 154.575C83.3539 154.535 83.3489 154.493 83.3521 154.452V153.42L83.118 153.414Z" clip-rule="evenodd"/><path fill="#35416B" fill-rule="evenodd" d="M84.7778 153.087V154.095C84.7742 154.167 84.7856 154.238 84.8113 154.305C84.8327 154.348 84.8666 154.383 84.9084 154.406C84.9503 154.429 84.9981 154.438 85.0454 154.433C85.1089 154.438 85.1723 154.423 85.227 154.391C85.2817 154.358 85.3249 154.309 85.3507 154.251C85.3839 154.169 85.3989 154.081 85.3945 153.993V153.081H85.8356V154.758H85.4175V154.521L85.3862 154.567C85.3701 154.592 85.3504 154.615 85.3276 154.634C85.2668 154.69 85.1958 154.732 85.1186 154.76C85.0464 154.784 84.9708 154.795 84.8949 154.794C84.7946 154.805 84.6931 154.786 84.6039 154.738C84.5147 154.691 84.442 154.617 84.3953 154.527C84.3405 154.389 84.3163 154.24 84.3242 154.091V153.083L84.7778 153.087Z" clip-rule="evenodd"/><path fill="#35416B" fill-rule="evenodd" d="M87.2215 153.051V153.5H87.0898C87.0206 153.491 86.9503 153.502 86.8875 153.533C86.8247 153.563 86.7723 153.612 86.7365 153.672C86.697 153.766 86.6798 153.868 86.6863 153.969V154.77H86.2536V153.093H86.6717V153.384C86.7187 153.3 86.7778 153.223 86.8473 153.156C86.9387 153.085 87.0518 153.049 87.1671 153.053H87.2215V153.051Z" clip-rule="evenodd"/><path fill="#35416B" fill-rule="evenodd" d="M87.7965 153.758H88.4738C88.4738 153.66 88.4364 153.565 88.3693 153.494C88.3385 153.464 88.3022 153.441 88.2623 153.425C88.2225 153.41 88.18 153.402 88.1373 153.403C88.0932 153.4 88.049 153.408 88.008 153.424C87.9671 153.441 87.9305 153.467 87.901 153.5C87.8418 153.574 87.8054 153.663 87.7965 153.758ZM88.7874 153.368C88.8536 153.473 88.8971 153.591 88.9149 153.714C88.9275 153.824 88.9317 153.934 88.9275 154.045H87.7861C87.7818 154.112 87.7939 154.18 87.8212 154.241C87.8485 154.303 87.8902 154.357 87.9428 154.399C88.0047 154.441 88.0775 154.463 88.1519 154.462C88.2324 154.467 88.3113 154.439 88.3714 154.385C88.4068 154.353 88.4346 154.313 88.4529 154.269H88.8982C88.8875 154.385 88.8398 154.495 88.7623 154.582C88.6866 154.665 88.5936 154.73 88.4898 154.772C88.3861 154.815 88.2742 154.833 88.1623 154.827C87.9558 154.828 87.756 154.753 87.6 154.617C87.5132 154.531 87.4464 154.426 87.4045 154.31C87.3626 154.195 87.3466 154.071 87.3575 153.949C87.3378 153.708 87.4128 153.468 87.5666 153.282C87.6399 153.205 87.7286 153.144 87.827 153.104C87.9254 153.064 88.0311 153.045 88.1373 153.049C88.2661 153.047 88.3939 153.074 88.5115 153.127C88.6241 153.18 88.7196 153.263 88.7874 153.368Z" clip-rule="evenodd"/><path fill="#35416B" fill-rule="evenodd" d="M89.9226 153.414V153.114H90.1546V152.646H90.5853V153.114H90.857V153.424H90.5853V154.309C90.5805 154.354 90.59 154.399 90.6124 154.437C90.6621 154.46 90.7171 154.469 90.7713 154.462H90.857V154.791H90.648C90.5746 154.802 90.4997 154.798 90.4279 154.779C90.3561 154.761 90.2888 154.728 90.2299 154.682C90.1762 154.618 90.1499 154.535 90.1567 154.452V153.42L89.9226 153.414Z" clip-rule="evenodd"/><path fill="#35416B" fill-rule="evenodd" d="M92.2827 153.928C92.2917 153.791 92.2557 153.654 92.1803 153.54C92.1474 153.501 92.1071 153.469 92.0619 153.446C92.0166 153.423 91.9673 153.408 91.9166 153.404C91.8659 153.4 91.8149 153.406 91.7666 153.422C91.7182 153.438 91.6734 153.463 91.6347 153.496C91.6185 153.509 91.6038 153.524 91.5908 153.54C91.5239 153.658 91.4887 153.792 91.4887 153.928C91.4887 154.064 91.5239 154.197 91.5908 154.316C91.6237 154.355 91.664 154.386 91.7092 154.41C91.7545 154.433 91.8038 154.447 91.8545 154.451C91.9052 154.455 91.9562 154.449 92.0045 154.434C92.0529 154.418 92.0977 154.393 92.1364 154.36C92.1526 154.347 92.1673 154.332 92.1803 154.316C92.2557 154.201 92.2917 154.065 92.2827 153.928ZM91.8876 154.819C91.7679 154.828 91.6477 154.81 91.5363 154.764C91.425 154.719 91.3256 154.649 91.2459 154.559C91.1102 154.377 91.0368 154.157 91.0368 153.93C91.0368 153.703 91.1102 153.482 91.2459 153.301C91.4168 153.132 91.6474 153.037 91.8876 153.037C92.1279 153.037 92.3584 153.132 92.5294 153.301C92.6651 153.482 92.7385 153.703 92.7385 153.93C92.7385 154.157 92.6651 154.377 92.5294 154.559C92.4513 154.647 92.3542 154.716 92.2456 154.761C92.137 154.806 92.0196 154.826 91.9023 154.819H91.8876Z" clip-rule="evenodd"/><path fill="#35416B" fill-rule="evenodd" d="M94.7013 153.433C94.6293 153.429 94.558 153.449 94.4987 153.49C94.4393 153.531 94.3951 153.59 94.373 153.659C94.3418 153.758 94.327 153.86 94.3291 153.963C94.3209 154.039 94.3304 154.115 94.3569 154.186C94.3834 154.257 94.4262 154.321 94.4817 154.372C94.5452 154.419 94.6225 154.443 94.7013 154.441C94.7555 154.444 94.8095 154.433 94.858 154.408C94.9064 154.384 94.9475 154.347 94.9772 154.301C95.0379 154.191 95.0698 154.067 95.0698 153.941C95.0698 153.816 95.0379 153.692 94.9772 153.582C94.9487 153.534 94.9081 153.496 94.8595 153.469C94.811 153.443 94.7563 153.431 94.7013 153.433ZM95.5249 153.903C95.5411 154.144 95.4707 154.384 95.3263 154.578C95.2634 154.652 95.1848 154.711 95.0962 154.751C95.0076 154.791 94.9112 154.811 94.8141 154.808C94.6963 154.812 94.5805 154.777 94.4838 154.71C94.4291 154.664 94.3818 154.609 94.3438 154.548V155.421H93.9111V153.087H94.3291V153.334C94.3702 153.27 94.4209 153.212 94.4797 153.162C94.5798 153.088 94.7019 153.048 94.8267 153.051C94.9191 153.049 95.0109 153.066 95.096 153.103C95.1811 153.139 95.2574 153.193 95.32 153.261C95.4709 153.439 95.546 153.669 95.5291 153.903H95.5249Z" clip-rule="evenodd"/><path fill="#35416B" fill-rule="evenodd" d="M96.1582 153.758H96.8355C96.8355 153.66 96.7981 153.565 96.731 153.494C96.6999 153.464 96.6632 153.44 96.623 153.425C96.5828 153.409 96.5399 153.402 96.4969 153.403C96.4532 153.401 96.4094 153.408 96.3689 153.425C96.3284 153.442 96.2921 153.467 96.2628 153.5C96.2026 153.573 96.1662 153.663 96.1582 153.758ZM97.1491 153.368C97.2156 153.473 97.2584 153.591 97.2745 153.714C97.2888 153.824 97.2937 153.934 97.2892 154.045H96.1478C96.1436 154.112 96.1556 154.18 96.1829 154.241C96.2102 154.303 96.2519 154.357 96.3046 154.399C96.3664 154.441 96.4392 154.463 96.5136 154.462C96.5941 154.467 96.673 154.439 96.7331 154.385C96.7666 154.351 96.7942 154.312 96.8146 154.269H97.2599C97.2488 154.385 97.2012 154.495 97.124 154.582C97.0484 154.665 96.9553 154.73 96.8515 154.772C96.7478 154.815 96.6359 154.833 96.5241 154.827C96.3175 154.828 96.1178 154.753 95.9617 154.617C95.8745 154.531 95.8074 154.426 95.7651 154.31C95.7229 154.195 95.7065 154.071 95.7172 153.949C95.7004 153.706 95.7801 153.466 95.9387 153.282C96.0117 153.205 96.1001 153.144 96.1982 153.104C96.2962 153.064 96.4016 153.045 96.5074 153.049C96.6369 153.047 96.7652 153.074 96.8836 153.127C96.9923 153.181 97.0841 153.265 97.1491 153.368Z" clip-rule="evenodd"/><path fill="#35416B" fill-rule="evenodd" d="M98.5476 153.051V153.5H98.4222C98.353 153.491 98.2827 153.502 98.2199 153.533C98.1571 153.563 98.1046 153.612 98.0689 153.672C98.0293 153.766 98.0122 153.868 98.0187 153.969V154.77H97.5777V153.093H97.9957V153.384C98.0427 153.3 98.1019 153.223 98.1713 153.156C98.2617 153.085 98.3744 153.048 98.4891 153.053H98.5476V153.051Z" clip-rule="evenodd"/><path fill="#35416B" fill-rule="evenodd" d="M99.8 153.689C99.7921 153.628 99.7706 153.57 99.7373 153.519C99.7104 153.485 99.6756 153.458 99.6358 153.44C99.5961 153.423 99.5527 153.415 99.5094 153.418C99.4432 153.415 99.3778 153.434 99.3234 153.472C99.269 153.51 99.2285 153.565 99.2084 153.628C99.1761 153.728 99.1613 153.833 99.1645 153.938C99.1611 154.039 99.1759 154.14 99.2084 154.236C99.2266 154.299 99.2654 154.354 99.3185 154.392C99.3716 154.43 99.4359 154.449 99.501 154.446C99.5398 154.449 99.5788 154.443 99.615 154.429C99.6512 154.415 99.6838 154.393 99.7101 154.364C99.7558 154.303 99.7834 154.23 99.7895 154.154H100.235C100.222 154.292 100.172 154.423 100.091 154.534C100.021 154.629 99.9291 154.705 99.8228 154.754C99.7165 154.804 99.5994 154.826 99.4822 154.819C99.3718 154.828 99.2608 154.812 99.158 154.77C99.0552 154.729 98.9636 154.663 98.8906 154.58C98.7549 154.399 98.6875 154.176 98.7004 153.951C98.6853 153.709 98.7597 153.47 98.9094 153.28C98.9821 153.199 99.0717 153.136 99.1719 153.094C99.272 153.052 99.3802 153.033 99.4885 153.039C99.6706 153.031 99.8506 153.081 100.003 153.181C100.076 153.242 100.135 153.318 100.176 153.405C100.217 153.491 100.238 153.585 100.239 153.68L99.8 153.689Z" clip-rule="evenodd"/><path fill="#35416B" fill-rule="evenodd" d="M100.866 153.758H101.543C101.543 153.66 101.506 153.565 101.439 153.494C101.408 153.464 101.372 153.441 101.332 153.425C101.292 153.41 101.25 153.402 101.207 153.403C101.163 153.4 101.119 153.408 101.078 153.424C101.037 153.441 101 153.467 100.971 153.5C100.911 153.574 100.875 153.663 100.866 153.758ZM101.857 153.368C101.923 153.473 101.967 153.591 101.984 153.714C101.997 153.824 102.001 153.934 101.997 154.045H100.856C100.851 154.112 100.863 154.18 100.891 154.241C100.918 154.303 100.96 154.357 101.012 154.399C101.074 154.441 101.147 154.463 101.221 154.462C101.298 154.463 101.373 154.436 101.43 154.385C101.466 154.353 101.494 154.313 101.512 154.269H101.957C101.94 154.384 101.886 154.491 101.803 154.571C101.727 154.654 101.634 154.719 101.53 154.762C101.426 154.804 101.314 154.823 101.203 154.817C100.996 154.817 100.796 154.743 100.64 154.607C100.553 154.52 100.487 154.415 100.445 154.3C100.403 154.184 100.387 154.061 100.398 153.938C100.378 153.697 100.453 153.458 100.607 153.271C100.68 153.194 100.769 153.134 100.867 153.094C100.966 153.053 101.071 153.035 101.178 153.039C101.306 153.037 101.434 153.063 101.552 153.116C101.676 153.168 101.782 153.255 101.857 153.368Z" clip-rule="evenodd"/><path fill="#35416B" fill-rule="evenodd" d="M103.813 153.634V154.762H103.368V153.743C103.372 153.672 103.36 153.6 103.333 153.534C103.309 153.491 103.273 153.455 103.23 153.433C103.186 153.41 103.137 153.401 103.088 153.406C103.024 153.401 102.96 153.416 102.905 153.45C102.85 153.484 102.807 153.535 102.783 153.594C102.751 153.676 102.736 153.763 102.739 153.85V154.756H102.304V153.079H102.722V153.324C102.765 153.254 102.818 153.192 102.881 153.139C102.98 153.068 103.1 153.032 103.222 153.037C103.373 153.033 103.52 153.081 103.64 153.173C103.702 153.231 103.75 153.303 103.78 153.383C103.81 153.463 103.822 153.549 103.813 153.634Z" clip-rule="evenodd"/><path fill="#35416B" fill-rule="evenodd" d="M104.035 153.414V153.114H104.267V152.646H104.7V153.114H104.972V153.424H104.7V154.309C104.694 154.353 104.703 154.398 104.725 154.437C104.775 154.46 104.831 154.469 104.886 154.462H104.972V154.791H104.763C104.689 154.803 104.614 154.799 104.542 154.78C104.47 154.762 104.403 154.728 104.345 154.682C104.317 154.651 104.297 154.614 104.284 154.575C104.271 154.535 104.266 154.493 104.269 154.452V153.42L104.035 153.414Z" clip-rule="evenodd"/><path fill="#35416B" fill-rule="evenodd" d="M106.172 153.953C106.145 153.969 106.117 153.984 106.088 153.997C106.05 154.009 106.012 154.019 105.973 154.026L105.875 154.045C105.806 154.053 105.739 154.073 105.676 154.104C105.645 154.123 105.618 154.15 105.601 154.183C105.583 154.216 105.575 154.253 105.576 154.29C105.573 154.32 105.578 154.35 105.589 154.378C105.6 154.406 105.617 154.431 105.639 154.452C105.681 154.486 105.735 154.504 105.789 154.502C105.882 154.502 105.973 154.473 106.048 154.418C106.092 154.382 106.126 154.335 106.147 154.282C106.168 154.23 106.177 154.173 106.172 154.116V153.953ZM105.906 153.743C105.965 153.737 106.023 153.724 106.08 153.705C106.107 153.697 106.131 153.681 106.147 153.658C106.164 153.635 106.174 153.608 106.174 153.579C106.176 153.552 106.17 153.523 106.157 153.499C106.144 153.474 106.125 153.453 106.101 153.439C106.036 153.408 105.964 153.394 105.892 153.399C105.853 153.396 105.815 153.402 105.779 153.415C105.743 153.428 105.71 153.449 105.683 153.477C105.648 153.521 105.627 153.574 105.62 153.63H105.202C105.205 153.5 105.248 153.374 105.325 153.269C105.4 153.189 105.493 153.127 105.596 153.088C105.699 153.049 105.809 153.035 105.919 153.047C106.087 153.045 106.254 153.082 106.406 153.156C106.478 153.197 106.537 153.259 106.574 153.334C106.611 153.408 106.626 153.492 106.615 153.575V154.536C106.615 154.576 106.623 154.616 106.64 154.653C106.658 154.674 106.68 154.691 106.705 154.703V154.768H106.23C106.218 154.737 106.209 154.705 106.203 154.672C106.203 154.638 106.198 154.604 106.191 154.571C106.129 154.637 106.059 154.693 105.981 154.739C105.884 154.794 105.774 154.823 105.662 154.821C105.525 154.825 105.392 154.779 105.287 154.691C105.237 154.644 105.197 154.587 105.172 154.523C105.146 154.459 105.135 154.39 105.139 154.322C105.133 154.232 105.152 154.143 105.194 154.064C105.236 153.985 105.3 153.919 105.377 153.875C105.497 153.815 105.627 153.778 105.76 153.768L105.906 153.743Z" clip-rule="evenodd"/><path fill="#35416B" fill-rule="evenodd" d="M108.076 153.917C108.084 153.789 108.049 153.661 107.976 153.555C107.944 153.514 107.902 153.482 107.856 153.461C107.809 153.439 107.757 153.429 107.706 153.431C107.638 153.427 107.57 153.445 107.513 153.483C107.456 153.521 107.413 153.576 107.39 153.641C107.357 153.731 107.342 153.827 107.344 153.924C107.342 154.013 107.359 154.101 107.392 154.184C107.417 154.248 107.461 154.303 107.518 154.341C107.576 154.379 107.644 154.397 107.712 154.393C107.761 154.394 107.809 154.385 107.854 154.365C107.898 154.345 107.938 154.315 107.969 154.278C108.047 154.174 108.085 154.047 108.076 153.917ZM107.821 153.079C107.932 153.128 108.022 153.214 108.078 153.322V153.081H108.496V154.67C108.508 154.839 108.47 155.008 108.387 155.157C108.264 155.345 108.024 155.44 107.673 155.44C107.49 155.448 107.309 155.404 107.15 155.314C107.085 155.274 107.031 155.219 106.992 155.154C106.953 155.089 106.93 155.015 106.926 154.939H107.401C107.409 154.981 107.429 155.019 107.459 155.05C107.53 155.096 107.614 155.117 107.698 155.108C107.76 155.116 107.823 155.105 107.879 155.077C107.935 155.049 107.982 155.005 108.013 154.951C108.054 154.842 108.072 154.726 108.066 154.609V154.502C108.032 154.565 107.986 154.62 107.93 154.664C107.831 154.734 107.712 154.768 107.591 154.762C107.494 154.767 107.397 154.749 107.308 154.71C107.219 154.67 107.141 154.611 107.079 154.536C106.943 154.362 106.874 154.144 106.887 153.924C106.879 153.7 106.944 153.479 107.071 153.295C107.131 153.213 107.211 153.147 107.303 153.103C107.394 153.058 107.496 153.037 107.597 153.041C107.674 153.041 107.75 153.056 107.821 153.085V153.079Z" clip-rule="evenodd"/><path fill="#35416B" fill-rule="evenodd" d="M109.228 153.758H109.907C109.907 153.66 109.87 153.565 109.803 153.494C109.772 153.464 109.735 153.44 109.695 153.425C109.654 153.409 109.612 153.402 109.569 153.403C109.525 153.4 109.481 153.408 109.44 153.424C109.4 153.441 109.363 153.467 109.334 153.5C109.274 153.573 109.237 153.663 109.228 153.758ZM110.219 153.368C110.286 153.472 110.329 153.59 110.346 153.714C110.358 153.824 110.363 153.934 110.361 154.045H109.217C109.213 154.113 109.226 154.18 109.253 154.242C109.281 154.304 109.323 154.358 109.376 154.399C109.438 154.441 109.511 154.463 109.585 154.462C109.662 154.463 109.737 154.436 109.794 154.385C109.828 154.352 109.855 154.313 109.874 154.269H110.319C110.301 154.384 110.247 154.49 110.164 154.571C110.089 154.654 109.996 154.719 109.892 154.762C109.788 154.804 109.676 154.823 109.564 154.817C109.358 154.818 109.159 154.744 109.004 154.607C108.917 154.52 108.85 154.415 108.807 154.3C108.765 154.184 108.749 154.061 108.76 153.938C108.74 153.697 108.815 153.458 108.969 153.271C109.042 153.194 109.131 153.134 109.229 153.094C109.327 153.053 109.433 153.035 109.539 153.039C109.668 153.037 109.796 153.063 109.913 153.116C110.039 153.166 110.145 153.254 110.219 153.368Z" clip-rule="evenodd"/><path fill="#35416B" fill-rule="evenodd" d="M112.671 153.928C112.68 153.791 112.644 153.654 112.568 153.54C112.536 153.501 112.495 153.469 112.45 153.446C112.405 153.423 112.355 153.408 112.305 153.404C112.254 153.4 112.203 153.406 112.155 153.422C112.106 153.438 112.062 153.463 112.023 153.496C112.007 153.509 111.992 153.524 111.979 153.54C111.912 153.658 111.877 153.792 111.877 153.928C111.877 154.064 111.912 154.197 111.979 154.316C112.012 154.355 112.052 154.386 112.097 154.41C112.143 154.433 112.192 154.447 112.243 154.451C112.293 154.455 112.344 154.449 112.393 154.434C112.441 154.418 112.486 154.393 112.525 154.36C112.541 154.347 112.555 154.332 112.568 154.316C112.644 154.201 112.68 154.065 112.671 153.928ZM112.276 154.819C112.156 154.828 112.036 154.81 111.924 154.764C111.813 154.719 111.714 154.649 111.634 154.559C111.498 154.377 111.425 154.157 111.425 153.93C111.425 153.703 111.498 153.482 111.634 153.301C111.805 153.132 112.036 153.037 112.276 153.037C112.516 153.037 112.747 153.132 112.918 153.301C113.053 153.482 113.127 153.703 113.127 153.93C113.127 154.157 113.053 154.377 112.918 154.559C112.838 154.649 112.738 154.719 112.627 154.764C112.516 154.81 112.396 154.828 112.276 154.819Z" clip-rule="evenodd"/><path fill="#35416B" fill-rule="evenodd" d="M114.224 152.485V152.842H114.101C114.068 152.835 114.034 152.841 114.006 152.859C113.978 152.877 113.958 152.905 113.95 152.938C113.949 152.948 113.949 152.959 113.95 152.969V153.114H114.237V153.422H113.95V154.773H113.515V153.422H113.271V153.114H113.511V153.005C113.497 152.875 113.529 152.745 113.601 152.636C113.664 152.535 113.816 152.485 114.059 152.485H114.226H114.224Z" clip-rule="evenodd"/><path fill="#35416B" fill-rule="evenodd" d="M115.792 153.087V154.095C115.788 154.167 115.8 154.238 115.825 154.305C115.847 154.348 115.881 154.383 115.922 154.406C115.964 154.429 116.012 154.438 116.059 154.433C116.123 154.438 116.186 154.423 116.241 154.391C116.296 154.358 116.339 154.309 116.365 154.251C116.398 154.169 116.413 154.081 116.409 153.993V153.081H116.85V154.758H116.432V154.521L116.4 154.567C116.384 154.592 116.364 154.615 116.342 154.634C116.281 154.69 116.21 154.732 116.133 154.76C116.06 154.784 115.985 154.795 115.909 154.794C115.809 154.805 115.707 154.786 115.618 154.738C115.529 154.691 115.456 154.617 115.409 154.527C115.354 154.389 115.33 154.24 115.338 154.091V153.083L115.792 153.087Z" clip-rule="evenodd"/><path fill="#35416B" fill-rule="evenodd" d="M117.61 154.228C117.613 154.288 117.635 154.345 117.671 154.393C117.713 154.427 117.761 154.453 117.813 154.468C117.864 154.483 117.919 154.488 117.972 154.481C118.044 154.485 118.116 154.471 118.181 154.441C118.203 154.433 118.222 154.418 118.236 154.398C118.25 154.379 118.258 154.356 118.26 154.333C118.261 154.309 118.256 154.285 118.245 154.265C118.233 154.244 118.216 154.227 118.196 154.215C118.049 154.156 117.897 154.112 117.742 154.083C117.597 154.055 117.461 153.995 117.343 153.907C117.302 153.868 117.271 153.821 117.251 153.769C117.23 153.717 117.222 153.661 117.226 153.605C117.225 153.529 117.241 153.454 117.273 153.385C117.304 153.317 117.35 153.255 117.408 153.206C117.551 153.088 117.733 153.029 117.918 153.041C118.096 153.034 118.272 153.077 118.428 153.164C118.496 153.214 118.552 153.279 118.591 153.354C118.63 153.429 118.652 153.512 118.654 153.596H118.217C118.213 153.549 118.196 153.503 118.169 153.464C118.138 153.431 118.1 153.406 118.057 153.39C118.015 153.374 117.969 153.369 117.924 153.374C117.852 153.367 117.779 153.383 117.715 153.418C117.697 153.43 117.683 153.445 117.672 153.463C117.662 153.482 117.656 153.502 117.654 153.523C117.653 153.546 117.659 153.568 117.67 153.588C117.682 153.607 117.699 153.622 117.719 153.632C117.866 153.686 118.018 153.727 118.173 153.754C118.317 153.78 118.452 153.845 118.564 153.94C118.606 153.981 118.639 154.03 118.662 154.084C118.684 154.138 118.695 154.196 118.693 154.255C118.695 154.332 118.68 154.409 118.647 154.48C118.615 154.55 118.567 154.613 118.507 154.662C118.341 154.78 118.139 154.835 117.937 154.819C117.729 154.837 117.523 154.777 117.358 154.651C117.297 154.599 117.25 154.535 117.217 154.462C117.184 154.39 117.168 154.311 117.169 154.232L117.61 154.228Z" clip-rule="evenodd"/><path fill="#35416B" fill-rule="evenodd" d="M119.333 153.758H120.013C120.012 153.66 119.975 153.565 119.908 153.494C119.877 153.464 119.84 153.44 119.8 153.425C119.76 153.409 119.717 153.402 119.674 153.403C119.63 153.4 119.586 153.408 119.546 153.424C119.505 153.441 119.469 153.467 119.44 153.5C119.379 153.573 119.342 153.663 119.333 153.758ZM120.324 153.368C120.391 153.472 120.435 153.59 120.451 153.714C120.464 153.824 120.469 153.934 120.466 154.045H119.323C119.319 154.113 119.331 154.18 119.359 154.242C119.386 154.304 119.429 154.358 119.482 154.399C119.543 154.441 119.616 154.463 119.691 154.462C119.768 154.465 119.843 154.437 119.9 154.385C119.935 154.353 119.963 154.313 119.981 154.269H120.426C120.409 154.384 120.354 154.49 120.272 154.571C120.196 154.654 120.103 154.719 119.999 154.762C119.895 154.804 119.784 154.823 119.672 154.817C119.466 154.818 119.266 154.744 119.112 154.607C119.024 154.52 118.957 154.415 118.915 154.3C118.873 154.184 118.856 154.061 118.867 153.938C118.847 153.697 118.922 153.458 119.076 153.271C119.149 153.194 119.238 153.134 119.336 153.094C119.435 153.053 119.541 153.035 119.647 153.039C119.776 153.037 119.903 153.063 120.021 153.116C120.143 153.168 120.246 153.256 120.318 153.368H120.324Z" clip-rule="evenodd"/><path fill="#35416B" fill-rule="evenodd" d="M121.725 153.051V153.5H121.599C121.53 153.492 121.46 153.503 121.397 153.534C121.334 153.564 121.281 153.612 121.244 153.672C121.204 153.766 121.187 153.868 121.194 153.969V154.77H120.746V153.093H121.164V153.384C121.212 153.3 121.272 153.223 121.342 153.156C121.433 153.085 121.545 153.048 121.66 153.053H121.725V153.051Z" clip-rule="evenodd"/><path fill="#35416B" fill-rule="evenodd" d="M122.32 154.228C122.323 154.287 122.343 154.345 122.379 154.393C122.421 154.427 122.469 154.453 122.52 154.468C122.572 154.483 122.626 154.488 122.68 154.481C122.752 154.484 122.823 154.47 122.889 154.441C122.91 154.432 122.929 154.417 122.942 154.398C122.955 154.378 122.963 154.356 122.965 154.333C122.966 154.309 122.961 154.286 122.951 154.265C122.94 154.244 122.924 154.227 122.904 154.215C122.756 154.158 122.603 154.113 122.448 154.083C122.303 154.055 122.167 153.995 122.049 153.907C122.008 153.868 121.977 153.821 121.956 153.769C121.936 153.717 121.928 153.661 121.932 153.605C121.931 153.529 121.947 153.454 121.978 153.385C122.01 153.317 122.056 153.255 122.113 153.206C122.256 153.088 122.439 153.029 122.623 153.041C122.802 153.034 122.978 153.077 123.134 153.164C123.202 153.214 123.258 153.279 123.297 153.354C123.336 153.429 123.357 153.512 123.359 153.596H122.922C122.92 153.548 122.904 153.502 122.874 153.464C122.843 153.431 122.805 153.406 122.763 153.39C122.72 153.374 122.675 153.369 122.63 153.374C122.557 153.367 122.484 153.383 122.421 153.418C122.403 153.43 122.388 153.445 122.378 153.463C122.367 153.482 122.361 153.502 122.36 153.523C122.359 153.546 122.364 153.568 122.376 153.588C122.387 153.607 122.404 153.622 122.425 153.632C122.572 153.686 122.724 153.727 122.879 153.754C123.023 153.78 123.158 153.845 123.269 153.94C123.312 153.981 123.345 154.03 123.367 154.084C123.39 154.138 123.401 154.196 123.399 154.255C123.401 154.332 123.385 154.409 123.353 154.48C123.321 154.55 123.273 154.613 123.213 154.662C123.039 154.766 122.84 154.821 122.637 154.819C122.434 154.817 122.235 154.759 122.063 154.651C122.003 154.599 121.955 154.535 121.923 154.462C121.89 154.39 121.874 154.311 121.875 154.232L122.32 154.228Z" clip-rule="evenodd"/><path fill-rule="evenodd" stroke="#35416B" stroke-linecap="round" stroke-linejoin="round" d="M66.1854 117.492H99.1644V121.618H66.1854V117.492Z" clip-rule="evenodd"/><path fill-rule="evenodd" stroke="#35416B" stroke-linecap="round" stroke-linejoin="round" d="M66.1185 128.372H99.0976V132.499H66.1185V128.372Z" clip-rule="evenodd"/><path fill="#35416B" fill-rule="evenodd" d="M67.5629 143.203H73.5939C74.5618 143.203 75.3457 144.173 75.3457 145.371C75.3457 146.568 74.5618 147.539 73.5939 147.539H67.5629C66.5971 147.539 65.8132 146.568 65.8132 145.371C65.8132 144.173 66.6034 143.203 67.5629 143.203Z" clip-rule="evenodd"/><path fill="#35416B" fill-rule="evenodd" d="M67.8075 158.26H73.8385C74.8043 158.26 75.5882 159.231 75.5882 160.428C75.5882 161.625 74.8043 162.596 73.8385 162.596H67.8075C66.8396 162.596 66.0557 161.625 66.0557 160.428C66.0557 159.231 66.8396 158.26 67.8075 158.26Z" clip-rule="evenodd"/><path fill="#fff" fill-rule="evenodd" d="M71.1397 145.438C71.1215 145.058 71.216 144.681 71.4113 144.355C71.6066 144.029 71.8938 143.769 72.2367 143.607C72.5796 143.444 72.9628 143.388 73.3378 143.444C73.7127 143.5 74.0627 143.667 74.3433 143.922C74.6239 144.178 74.8227 144.511 74.9144 144.88C75.0061 145.249 74.9867 145.637 74.8586 145.995C74.7305 146.353 74.4995 146.665 74.1947 146.891C73.89 147.117 73.5252 147.248 73.1465 147.266H73.0545C72.5597 147.275 72.0813 147.088 71.7229 146.746C71.3645 146.404 71.155 145.934 71.1397 145.438Z" clip-rule="evenodd"/><path fill="#fff" fill-rule="evenodd" d="M71.3822 160.493C71.364 160.113 71.4585 159.736 71.6538 159.41C71.8491 159.084 72.1364 158.824 72.4793 158.661C72.8222 158.499 73.2053 158.443 73.5803 158.499C73.9553 158.555 74.3052 158.722 74.5858 158.977C74.8665 159.233 75.0652 159.566 75.1569 159.935C75.2487 160.304 75.2292 160.692 75.1011 161.05C74.973 161.408 74.742 161.72 74.4373 161.946C74.1325 162.172 73.7677 162.303 73.389 162.321H73.2929C72.7988 162.329 72.3215 162.142 71.964 161.8C71.6065 161.457 71.3975 160.988 71.3822 160.493Z" clip-rule="evenodd"/><path fill="#35416B" fill-rule="evenodd" d="M67.1658 165.936H126.903C127.197 165.936 127.479 166.054 127.688 166.262C127.896 166.471 128.014 166.754 128.015 167.049C128.015 167.345 127.898 167.629 127.689 167.838C127.481 168.047 127.198 168.165 126.903 168.165H67.1658C66.8713 168.164 66.5893 168.046 66.3813 167.837C66.1733 167.628 66.0563 167.344 66.0557 167.049C66.0557 166.754 66.1727 166.471 66.3808 166.262C66.589 166.053 66.8714 165.936 67.1658 165.936Z" clip-rule="evenodd"/><path fill="#F7A501" fill-rule="evenodd" d="M87.7943 165.936H126.976C127.27 165.936 127.553 166.053 127.761 166.262C127.969 166.471 128.086 166.754 128.086 167.049C128.086 167.195 128.058 167.34 128.002 167.475C127.947 167.611 127.865 167.734 127.762 167.837C127.659 167.941 127.537 168.023 127.403 168.079C127.268 168.135 127.124 168.164 126.978 168.165H87.7943C87.4999 168.164 87.2179 168.046 87.0099 167.837C86.8019 167.628 86.6849 167.344 86.6843 167.049C86.6843 166.754 86.8012 166.471 87.0094 166.262C87.2176 166.053 87.4999 165.936 87.7943 165.936Z" clip-rule="evenodd"/><path fill="#fff" fill-rule="evenodd" stroke="#35416B" stroke-linecap="round" stroke-linejoin="round" stroke-width="2.5" d="M86.0948 167.056C86.0928 166.832 86.1568 166.613 86.2789 166.426C86.401 166.239 86.5756 166.093 86.7807 166.005C86.9858 165.918 87.2122 165.893 87.4311 165.935C87.6501 165.976 87.8518 166.082 88.0108 166.239C88.1699 166.395 88.2791 166.596 88.3246 166.814C88.3701 167.033 88.3499 167.261 88.2665 167.468C88.1831 167.675 88.0404 167.853 87.8562 167.979C87.6721 168.105 87.4549 168.173 87.232 168.175H87.2195C87.0723 168.176 86.9265 168.147 86.7904 168.091C86.6542 168.035 86.5304 167.953 86.426 167.849C86.3215 167.745 86.2385 167.622 86.1817 167.485C86.1249 167.349 86.0954 167.203 86.0948 167.056Z" clip-rule="evenodd"/><path fill="#35416B" fill-rule="evenodd" d="M83.4022 170.578H86.3038L87.5455 169.513L88.7224 170.578H91.7076V177.078H83.4022V170.578Z" clip-rule="evenodd"/><path fill="#fff" fill-rule="evenodd" d="M85.0873 174.252C85.0833 174.327 85.0976 174.403 85.1291 174.472C85.1546 174.525 85.1961 174.57 85.2478 174.598C85.2994 174.627 85.3587 174.64 85.4176 174.633C85.5007 174.634 85.581 174.603 85.6412 174.545C85.6743 174.512 85.7 174.473 85.7166 174.429C85.7332 174.385 85.7403 174.338 85.7374 174.292C85.7428 174.23 85.7284 174.169 85.6964 174.116C85.6645 174.064 85.6165 174.023 85.5597 174C85.4573 173.966 85.3496 173.952 85.242 173.958V173.646C85.3426 173.65 85.4432 173.636 85.5388 173.604C85.5869 173.581 85.6266 173.544 85.6525 173.497C85.6783 173.45 85.689 173.397 85.683 173.344C85.6857 173.267 85.6596 173.192 85.6099 173.134C85.5825 173.107 85.5498 173.086 85.5138 173.072C85.4778 173.058 85.4393 173.052 85.4008 173.054C85.358 173.051 85.315 173.058 85.2757 173.075C85.2363 173.093 85.2017 173.119 85.1751 173.153C85.123 173.23 85.098 173.322 85.104 173.415H84.6985C84.7025 173.308 84.7214 173.202 84.7549 173.101C84.7941 173.01 84.851 172.929 84.9221 172.862C84.9827 172.807 85.0539 172.767 85.1312 172.742C85.2241 172.711 85.3218 172.697 85.4196 172.7C85.6047 172.691 85.7867 172.75 85.9318 172.866C85.9957 172.919 86.0464 172.987 86.0801 173.063C86.1138 173.14 86.1296 173.223 86.1262 173.306C86.1303 173.427 86.0885 173.546 86.0091 173.637C85.969 173.688 85.9164 173.728 85.8565 173.753C85.9234 173.767 85.9837 173.803 86.028 173.855C86.0838 173.909 86.1275 173.975 86.1564 174.047C86.1852 174.119 86.1984 174.197 86.1952 174.275C86.1966 174.459 86.127 174.637 86.0008 174.772C85.9249 174.846 85.8343 174.903 85.7348 174.939C85.6353 174.975 85.5293 174.989 85.4238 174.981C85.2971 174.995 85.1692 174.973 85.0539 174.918C84.9387 174.864 84.8403 174.779 84.7695 174.673C84.6991 174.541 84.6624 174.393 84.6629 174.243L85.0873 174.252Z" clip-rule="evenodd"/><path fill="#fff" fill-rule="evenodd" d="M87.1776 174.633C87.2381 174.636 87.2972 174.615 87.3439 174.577C87.3905 174.538 87.4214 174.484 87.4305 174.424C87.5121 174.034 87.5121 173.632 87.4305 173.243C87.4178 173.186 87.3854 173.136 87.3392 173.1C87.2929 173.065 87.2357 173.047 87.1776 173.05C87.119 173.047 87.0612 173.065 87.0142 173.1C86.9673 173.135 86.9341 173.186 86.9205 173.243C86.8369 173.632 86.8369 174.035 86.9205 174.424C86.931 174.484 86.9628 174.538 87.01 174.577C87.0573 174.615 87.1168 174.635 87.1776 174.633ZM87.9406 173.845C87.9554 174.135 87.8964 174.423 87.7692 174.684C87.7003 174.776 87.6108 174.851 87.508 174.903C87.4051 174.954 87.2916 174.981 87.1766 174.981C87.0615 174.981 86.948 174.954 86.8451 174.903C86.7423 174.851 86.6528 174.776 86.5839 174.684C86.4712 174.415 86.4131 174.127 86.4131 173.835C86.4131 173.544 86.4712 173.256 86.5839 172.987C86.6421 172.908 86.7155 172.841 86.7998 172.79C86.8841 172.739 86.9776 172.706 87.0749 172.692C87.1723 172.678 87.2714 172.683 87.3665 172.708C87.4617 172.733 87.5509 172.777 87.6291 172.836C87.6852 172.88 87.7352 172.93 87.7776 172.987C87.9079 173.253 87.967 173.549 87.949 173.845H87.9406Z" clip-rule="evenodd"/><path fill="#fff" fill-rule="evenodd" d="M88.9378 173.293C88.9379 173.261 88.9317 173.23 88.9195 173.2C88.9073 173.171 88.8893 173.144 88.8667 173.122C88.8206 173.076 88.7587 173.051 88.6943 173.051C88.6298 173.051 88.5679 173.076 88.5218 173.122C88.4763 173.167 88.4508 173.229 88.4508 173.293C88.4508 173.358 88.4763 173.42 88.5218 173.465C88.5679 173.511 88.6298 173.536 88.6943 173.536C88.7587 173.536 88.8206 173.511 88.8667 173.465C88.8893 173.443 88.9073 173.416 88.9195 173.387C88.9317 173.357 88.9379 173.325 88.9378 173.293ZM88.6953 173.864C88.6205 173.865 88.5463 173.85 88.4773 173.822C88.4083 173.793 88.3459 173.75 88.2939 173.696C88.2415 173.643 88.1998 173.581 88.1714 173.512C88.1431 173.444 88.1284 173.37 88.1284 173.296C88.1284 173.221 88.1431 173.148 88.1714 173.079C88.1998 173.01 88.2415 172.948 88.2939 172.895C88.36 172.829 88.4414 172.779 88.531 172.752C88.6205 172.725 88.7154 172.72 88.8072 172.738C88.8991 172.756 88.985 172.797 89.0573 172.857C89.1297 172.916 89.1863 172.993 89.2221 173.08C89.2579 173.166 89.2718 173.261 89.2625 173.354C89.2532 173.447 89.2211 173.537 89.169 173.615C89.1169 173.693 89.0464 173.757 88.9638 173.801C88.8811 173.845 88.7889 173.868 88.6953 173.868V173.864ZM90.1795 174.166C90.117 174.165 90.0566 174.188 90.0112 174.231C89.9659 174.274 89.9392 174.334 89.937 174.396V174.409C89.9365 174.441 89.9424 174.472 89.9542 174.502C89.9661 174.531 89.9837 174.558 90.006 174.581C90.0288 174.604 90.0559 174.622 90.0857 174.634C90.1155 174.646 90.1474 174.652 90.1795 174.652C90.2114 174.652 90.2429 174.646 90.2723 174.634C90.3017 174.621 90.3285 174.604 90.351 174.581C90.3735 174.558 90.3914 174.532 90.4036 174.502C90.4157 174.473 90.422 174.441 90.422 174.409C90.4222 174.377 90.416 174.345 90.4038 174.315C90.3916 174.285 90.3736 174.258 90.3509 174.235C90.3284 174.213 90.3016 174.195 90.2722 174.183C90.2427 174.171 90.2113 174.165 90.1795 174.166ZM90.1795 174.977C90.1049 174.979 90.0307 174.965 89.9617 174.936C89.8927 174.908 89.8302 174.865 89.7782 174.812C89.6718 174.704 89.6121 174.559 89.6121 174.408C89.6121 174.257 89.6718 174.112 89.7782 174.004C89.8847 173.898 90.0291 173.838 90.1795 173.838C90.33 173.838 90.4743 173.898 90.5809 174.004C90.687 174.111 90.7465 174.255 90.7465 174.406C90.7465 174.556 90.687 174.701 90.5809 174.807C90.4738 174.914 90.3287 174.975 90.1774 174.975L90.1795 174.977ZM89.937 172.713H90.1691L88.9336 174.992H88.6974L89.937 172.713Z" clip-rule="evenodd"/><path fill="#35416B" fill-rule="evenodd" stroke="#35416B" stroke-linecap="round" stroke-linejoin="round" stroke-width="2.5" d="M69.7119 181.238H119.256V194.867H69.7119V181.238Z" clip-rule="evenodd"/><path stroke="#F96132" stroke-linecap="round" stroke-linejoin="round" d="M74.5868 185.939L113.38 185.973"/><path stroke="#F96132" stroke-linecap="round" stroke-linejoin="round" d="M74.7166 189.388L101.056 189.422"/></g><path fill="#F7A501" fill-rule="evenodd" stroke="#35416B" stroke-linecap="round" stroke-linejoin="round" stroke-width=".5" d="M172.954 53.5974H239.385C240.539 53.5967 241.683 53.8237 242.75 54.2652C243.817 54.7068 244.787 55.3544 245.604 56.171C246.421 56.9875 247.069 57.9572 247.512 59.0244C247.954 60.0917 248.182 61.2358 248.183 62.3913V185.531C248.184 186.687 247.957 187.831 247.515 188.899C247.074 189.966 246.427 190.937 245.611 191.754C244.795 192.572 243.826 193.221 242.759 193.663C241.693 194.106 240.549 194.335 239.395 194.335H172.954C171.799 194.336 170.656 194.109 169.588 193.667C168.521 193.226 167.552 192.578 166.735 191.762C165.918 190.945 165.269 189.975 164.827 188.908C164.384 187.841 164.156 186.697 164.156 185.541V62.3964C164.156 61.2409 164.383 60.0967 164.825 59.0292C165.267 57.9616 165.914 56.9916 166.731 56.1746C167.548 55.3575 168.517 54.7094 169.584 54.2672C170.651 53.825 171.794 53.5974 172.949 53.5974H172.954Z" clip-rule="evenodd"/><path fill="#F7A501" fill-rule="evenodd" stroke="#35416B" stroke-linecap="round" stroke-linejoin="round" stroke-width=".5" d="M198.816 91.3625H214.629C216.96 91.3653 219.195 92.2942 220.842 93.9452C222.489 95.5961 223.413 97.8339 223.412 100.167V147.161C223.412 149.495 222.486 151.733 220.837 153.383C219.188 155.033 216.951 155.96 214.619 155.96H198.816C197.66 155.961 196.517 155.734 195.449 155.292C194.382 154.85 193.412 154.202 192.595 153.385C191.778 152.568 191.129 151.598 190.687 150.53C190.245 149.462 190.017 148.317 190.017 147.161V100.167C190.017 97.8317 190.944 95.5923 192.594 93.9412C194.244 92.2901 196.482 91.3625 198.816 91.3625Z" clip-rule="evenodd"/><path fill-rule="evenodd" stroke="#35416B" stroke-linecap="round" stroke-linejoin="round" stroke-width=".5" d="M197.34 88.7676H215.818C221.495 88.7676 226.097 93.0594 226.097 98.3562V149.53C226.097 154.822 221.485 159.113 215.818 159.113H197.34C191.662 159.113 187.06 154.822 187.06 149.53V98.3562C187.06 93.0594 191.641 88.7676 197.34 88.7676Z" clip-rule="evenodd"/><path fill="#35416B" fill-rule="evenodd" stroke="#35416B" stroke-linecap="round" stroke-linejoin="round" stroke-width=".5" d="M198.908 146.3H215.449C223.504 146.187 223.412 133.163 223.412 133.163C223.412 133.163 223.494 148.151 223.494 149.059C223.494 149.059 222.981 155.648 215.444 155.509H198.021C191.36 155.586 190.038 149.228 190.038 149.228C190.038 148.336 189.991 133.132 189.991 133.132C189.991 133.132 192.702 146.377 198.908 146.3Z" clip-rule="evenodd"/><path fill="#fff" fill-rule="evenodd" d="M204.888 71.9238C204.932 71.1736 204.725 70.4301 204.298 69.8113C204.12 69.6004 203.902 69.4268 203.657 69.3003C203.411 69.1739 203.144 69.097 202.869 69.0741C202.593 69.0513 202.317 69.0829 202.054 69.1671C201.791 69.2514 201.547 69.3866 201.337 69.5651C201.25 69.642 201.168 69.7242 201.091 69.8113C200.699 70.4471 200.491 71.1794 200.491 71.9264C200.491 72.6734 200.699 73.4057 201.091 74.0415C201.269 74.2524 201.487 74.426 201.732 74.5525C201.978 74.6789 202.246 74.7558 202.521 74.7787C202.796 74.8015 203.073 74.7699 203.335 74.6857C203.598 74.6014 203.842 74.4662 204.053 74.2877C204.14 74.2108 204.222 74.1286 204.298 74.0415C204.727 73.4221 204.935 72.676 204.888 71.9238ZM205.354 75.2722C204.605 75.8866 203.666 76.2224 202.697 76.2224C201.728 76.2224 200.79 75.8866 200.04 75.2722C199.215 74.4979 198.805 73.3852 198.805 71.9238C198.805 70.4625 199.215 69.3241 200.04 68.5755C200.79 67.961 201.728 67.6252 202.697 67.6252C203.666 67.6252 204.605 67.961 205.354 68.5755C206.174 69.3241 206.584 70.4368 206.584 71.9238C206.625 72.537 206.536 73.1519 206.324 73.7287C206.112 74.3055 205.782 74.8313 205.354 75.2722Z" clip-rule="evenodd"/><path fill="#fff" fill-rule="evenodd" d="M207.85 67.8779H209.628L212.856 73.5439V67.8779H214.44V75.9949H212.743L209.428 70.2469V76.0155H207.85V67.8779Z" clip-rule="evenodd"/><path fill="#35416B" fill-rule="evenodd" d="M202.853 173.343C202.898 172.594 202.691 171.852 202.264 171.236C201.907 170.81 201.395 170.544 200.841 170.496C200.288 170.448 199.738 170.622 199.313 170.979C199.22 171.057 199.134 171.143 199.056 171.236C198.665 171.871 198.457 172.604 198.457 173.351C198.457 174.098 198.665 174.83 199.056 175.466C199.235 175.677 199.453 175.85 199.698 175.977C199.943 176.103 200.211 176.18 200.486 176.203C200.761 176.226 201.038 176.194 201.301 176.11C201.564 176.026 201.808 175.891 202.018 175.712C202.105 175.635 202.187 175.553 202.264 175.466C202.693 174.845 202.901 174.097 202.853 173.343ZM203.32 176.696C202.568 177.306 201.63 177.639 200.663 177.639C199.695 177.639 198.757 177.306 198.006 176.696C197.576 176.256 197.244 175.729 197.031 175.151C196.819 174.574 196.73 173.957 196.771 173.343C196.771 171.856 197.181 170.743 198.006 169.995C198.755 169.38 199.694 169.044 200.663 169.044C201.632 169.044 202.57 169.38 203.32 169.995C204.14 170.743 204.55 171.856 204.55 173.343C204.59 173.957 204.502 174.573 204.29 175.15C204.078 175.728 203.748 176.255 203.32 176.696Z" clip-rule="evenodd"/><path fill="#35416B" fill-rule="evenodd" d="M205.841 169.307H211.596V170.748H207.527V172.614H211.114V174.025H207.527V177.414H205.841V169.307Z" clip-rule="evenodd"/><path fill="#35416B" fill-rule="evenodd" d="M212.728 169.307H218.483V170.748H214.414V172.614H217.975V174.025H214.414V177.414H212.728V169.307Z" clip-rule="evenodd"/><rect width="6.564" height="22.817" x="22.816" y="47.805" fill="#F7A501" rx="3.282" transform="rotate(-49.6244 22.8161 47.8047)"/><rect width="6.564" height="22.817" x="38.742" y="34.505" fill="#F7A501" rx="3.282" transform="rotate(-24.1269 38.7415 34.5046)"/><rect width="6.564" height="22.817" x="14.143" y="65.139" fill="#F7A501" rx="3.282" transform="rotate(-73.6736 14.1428 65.1392)"/><defs><clipPath id="clip0"><rect width="99.202" height="194.371" fill="#fff" transform="translate(48.0167 65.292)"/></clipPath></defs></svg>