<svg fill="none" viewBox="0 0 396 301"><rect width="396" height="300.536" fill="#F96132" rx="20"/><g clip-path="url(#clip0)"><path fill="#F0F0F0" fill-rule="evenodd" stroke="#E6E6E6" stroke-linecap="round" stroke-linejoin="round" stroke-width="2" d="M56.049 65.497h83.129c2.076 0 4.067.825 5.535 2.294a7.837 7.837 0 012.292 5.54v178.285c0 2.077-.824 4.07-2.292 5.539a7.821 7.821 0 01-5.535 2.295h-83.13a7.822 7.822 0 01-5.531-2.292 7.837 7.837 0 01-2.296-5.534V73.339a7.84 7.84 0 014.83-7.245 7.822 7.822 0 012.998-.597z" clip-rule="evenodd"/><path fill="#BEBEBE" fill-rule="evenodd" d="M87.892 245.499c0-5.023 4.126-9.094 9.214-9.094s9.214 4.071 9.214 9.094-4.126 9.093-9.214 9.093-9.214-4.072-9.214-9.093z" clip-rule="evenodd"/><path fill="#fff" fill-rule="evenodd" stroke="#fff" stroke-linecap="round" stroke-linejoin="round" stroke-width="2" d="M56.616 80.662h83.004c1.69 0 3.057 1.157 3.057 2.586v146.978c0 1.435-1.367 2.586-3.057 2.586H56.616c-1.687 0-3.055-1.158-3.055-2.586V83.248c.008-1.429 1.376-2.586 3.055-2.586z" clip-rule="evenodd"/><path fill="#BEBEBE" fill-rule="evenodd" stroke="#C8C8C8" stroke-linecap="round" stroke-linejoin="round" stroke-width=".1" d="M56.066 80.457h84.226a2.665 2.665 0 012.641 2.692v16.6H53.424v-16.6a2.666 2.666 0 012.642-2.692z" clip-rule="evenodd"/><path fill="#BEBEBE" fill-rule="evenodd" stroke="#BEBEBE" stroke-linecap="round" stroke-linejoin="round" stroke-width=".1" d="M89.97 72.85h19.189a1.259 1.259 0 011.262 1.26 1.262 1.262 0 01-1.262 1.263H89.97a1.261 1.261 0 010-2.523zm-8.437 1.459a1.333 1.333 0 011.585-1.316 1.33 1.33 0 01.976 1.816 1.33 1.33 0 01-2.561-.5z" clip-rule="evenodd"/><path fill="#fff" fill-rule="evenodd" stroke="#fff" stroke-linecap="round" stroke-linejoin="round" stroke-width=".1" d="M67.605 87.131h58.725a.326.326 0 01.234.094.329.329 0 01.1.232v5.752a.34.34 0 01-.1.232.32.32 0 01-.234.094H67.605a.33.33 0 01-.336-.326v-5.752a.33.33 0 01.336-.326zm-12.383-5.11a.41.41 0 11.82 0 .41.41 0 01-.82 0zm1.147-.009a.41.41 0 01.695-.304.41.41 0 11-.695.304zm1.077 0a.41.41 0 11.818-.02.41.41 0 01-.818.02zm1.101.006a.41.41 0 11.82-.02.41.41 0 01-.82.02zm1.128.035a.41.41 0 11.82-.024.41.41 0 01-.82.024z" clip-rule="evenodd"/><path fill="#fff" fill-rule="evenodd" d="M61.874 81.877h-.172v.26h.172a.148.148 0 00.1-.03.126.126 0 00.037-.101.123.123 0 00-.036-.1.158.158 0 00-.1-.03zm.015.41h-.187v.317h-.184v-.885h.385a.307.307 0 01.205.07.262.262 0 01.078.204.268.268 0 01-.078.222.354.354 0 01-.22.086v-.014zm.444.321v-.885h.182v.338h.346v-.338h.183v.885h-.183v-.395h-.346v.395h-.182zm1.517-.442a.367.367 0 00-.063-.232.231.231 0 00-.35 0 .439.439 0 000 .461.228.228 0 00.35 0 .361.361 0 00.063-.23zm.051.365a.461.461 0 01-.579 0 .48.48 0 01-.135-.365.47.47 0 01.135-.367.46.46 0 01.58 0 .466.466 0 01.133.367.478.478 0 01-.133.365zm.273-.808h.192l.352.615v-.615h.172v.885h-.184l-.36-.629v.63h-.172v-.886zm1.543.168h-.468v.186h.43v.154h-.43v.228h.489v.16h-.67v-.886h.65v.158zm1.815.701a.236.236 0 01.464 0c0 .109-.233.205-.233.205s-.231-.086-.231-.205z" clip-rule="evenodd"/><path stroke="#fff" stroke-linecap="round" stroke-linejoin="round" stroke-width=".1" d="M66.993 82.301a.773.773 0 01.936-.572.976.976 0 01.629.59"/><path stroke="#fff" stroke-linecap="round" stroke-linejoin="round" stroke-width=".1" d="M66.705 82.125a1.008 1.008 0 011.036-.732.815.815 0 01.22.023 1.266 1.266 0 01.848.731"/><path stroke="#fff" stroke-linecap="round" stroke-linejoin="round" stroke-width=".1" d="M67.263 82.494a.533.533 0 01.512-.41.545.545 0 01.508.44"/><path fill="#F0F0F0" fill-rule="evenodd" d="M95.33 81.89v-.155c.05-.001.1-.006.15-.014a.205.205 0 00.113-.062.206.206 0 00.045-.082.195.195 0 000-.047h.19v1.16h-.233v-.8h-.264zm.902.565a.647.647 0 01.23-.246 1.71 1.71 0 00.206-.162.233.233 0 00.08-.156.178.178 0 00-.041-.123.166.166 0 00-.258.029.423.423 0 00-.027.143h-.221a.59.59 0 01.053-.24.336.336 0 01.326-.174.409.409 0 01.292.103.353.353 0 01.109.27.361.361 0 01-.078.228.727.727 0 01-.166.15l-.09.063a2.64 2.64 0 00-.117.088.224.224 0 00-.053.064h.506v.204h-.794a.561.561 0 01.043-.241zm.993-.611h.241v.24h-.241v-.24zm0 .6h.241v.238h-.241v-.238zm.81.082a.13.13 0 00.134-.106 1.59 1.59 0 000-.615.126.126 0 00-.133-.1.131.131 0 00-.136.1 1.468 1.468 0 000 .615.136.136 0 00.135.106zm.41-.41a.89.89 0 01-.09.441.323.323 0 01-.31.156.327.327 0 01-.31-.156.89.89 0 01-.09-.44.905.905 0 01.09-.445.327.327 0 01.31-.156.323.323 0 01.31.156c.063.138.09.29.08.442l.01.002zm.502.41a.132.132 0 00.133-.106 1.59 1.59 0 000-.615.13.13 0 00-.133-.1.131.131 0 00-.136.1 1.468 1.468 0 000 .615.136.136 0 00.136.106zm.41-.41a.89.89 0 01-.09.441.324.324 0 01-.31.156.327.327 0 01-.311-.156.89.89 0 01-.09-.44.905.905 0 01.09-.445.327.327 0 01.31-.156.323.323 0 01.31.156c.063.138.09.29.08.442l.01.002zm1.109-.41h-.238v.349h.23a.207.207 0 00.135-.043.18.18 0 00.04-.061.177.177 0 00.009-.072.158.158 0 00-.049-.132.205.205 0 00-.127-.04zm.02.552h-.258v.424h-.245v-1.18h.514a.409.409 0 01.282.092c.038.036.067.08.085.13a.35.35 0 01.022.153.362.362 0 01-.107.295.462.462 0 01-.293.086zm1.38-.756h.354v1.18h-.229v-.996l-.223.99h-.238l-.229-.99v.99h-.229v-1.174h.358l.205.928.231-.928z" clip-rule="evenodd"/><path fill="#fff" fill-rule="evenodd" stroke="#fff" stroke-linecap="round" stroke-linejoin="round" stroke-width=".5" d="M137.432 81.936h3.413a.305.305 0 01.278.326v.84a.304.304 0 01-.278.326h-3.413a.305.305 0 01-.279-.326v-.225h-.409v-.41h.409v-.205a.305.305 0 01.279-.326z" clip-rule="evenodd"/><path fill="#BEBEBE" fill-rule="evenodd" d="M138.502 82.084h2.169a.326.326 0 01.325.326v.637a.326.326 0 01-.325.326h-2.169a.325.325 0 01-.325-.326v-.637a.326.326 0 01.325-.326z" clip-rule="evenodd"/><path fill="#fff" fill-rule="evenodd" d="M134.774 82.858a.08.08 0 00.033-.006.078.078 0 00.046-.049.084.084 0 00.005-.035.09.09 0 00-.005-.036.08.08 0 00-.079-.054.084.084 0 00-.061.023.08.08 0 00-.018.031.088.088 0 00-.005.036.091.091 0 00.023.066.07.07 0 00.028.019c.01.004.022.006.033.005zm-.115-.231a.135.135 0 01-.055-.06.162.162 0 010-.12.146.146 0 01.035-.05.203.203 0 01.135-.043.188.188 0 01.133.043c.016.014.028.03.037.05a.145.145 0 01-.002.121.117.117 0 01-.053.055.173.173 0 01.086.153.162.162 0 01-.015.069.154.154 0 01-.041.056.198.198 0 01-.151.052.207.207 0 01-.148-.052.18.18 0 01-.049-.125.19.19 0 01.023-.09.15.15 0 01.065-.06zm.115-.037a.072.072 0 00.053-.019.075.075 0 00.019-.053.07.07 0 00-.003-.029.06.06 0 00-.04-.04.063.063 0 00-.029-.003.08.08 0 00-.055.019.074.074 0 00-.019.053.075.075 0 00.019.053.08.08 0 00.055.019zm.467.268a.067.067 0 00.044-.014.067.067 0 00.023-.039.568.568 0 00.015-.154.568.568 0 00-.015-.153.061.061 0 00-.024-.039.062.062 0 00-.043-.013.066.066 0 00-.043.014.07.07 0 00-.025.038.568.568 0 00-.016.153.568.568 0 00.016.154.073.073 0 00.025.038c.012.01.027.015.043.015zm.205-.205a.445.445 0 01-.045.222.161.161 0 01-.156.078.163.163 0 01-.156-.078.47.47 0 01-.045-.222.47.47 0 01.045-.22.167.167 0 01.156-.078.164.164 0 01.156.077c.028.07.039.145.03.22l.015.001zm.245-.147a.063.063 0 00-.087-.059.065.065 0 00-.035.035.069.069 0 00-.005.024c0 .008.002.017.005.025a.06.06 0 00.014.02c.006.006.013.01.021.014a.064.064 0 00.069-.014.063.063 0 00.018-.045zm-.063.15a.135.135 0 01-.104-.046.146.146 0 010-.204.135.135 0 01.104-.046.141.141 0 01.106.046.143.143 0 01.04.076.14.14 0 01-.009.086.148.148 0 01-.137.092v-.004zm.389.078a.063.063 0 00-.063.063.058.058 0 00.018.045c.006.006.013.01.021.014a.063.063 0 00.069-.014.062.062 0 00.018-.045.051.051 0 00-.004-.024.058.058 0 00-.035-.034.06.06 0 00-.024-.003v-.002zm0 .204a.144.144 0 01-.057-.01.133.133 0 01-.047-.033.148.148 0 01-.034-.163.138.138 0 01.034-.048.146.146 0 01.204 0 .135.135 0 01.045.105.141.141 0 01-.045.107.142.142 0 01-.1.053v-.01zm-.063-.592h.061l-.324.596h-.061l.324-.596z" clip-rule="evenodd"/><path stroke="#454545" stroke-linecap="round" stroke-linejoin="round" stroke-width=".5" d="M63.087 90.703l-3.924-.078 1.48 1.416-1.48-1.416 1.346-1.348"/><path fill="#BEBEBE" fill-rule="evenodd" stroke="#454545" stroke-linecap="round" stroke-linejoin="round" stroke-width=".5" d="M130.276 88.14h2.844a.937.937 0 01.878.985v2.74a.937.937 0 01-.878.986h-2.844a.936.936 0 01-.879-.986v-2.74a.937.937 0 01.879-.986z" clip-rule="evenodd"/><path fill="#454545" fill-rule="evenodd" d="M130.902 91.172a1.4 1.4 0 01.489-.522 3.78 3.78 0 00.434-.343.515.515 0 00.152-.354.385.385 0 00-.088-.26.35.35 0 00-.438-.05.35.35 0 00-.111.111.804.804 0 00-.053.303h-.471c0-.176.038-.35.113-.51a.707.707 0 01.69-.369.864.864 0 01.614.217.752.752 0 01.231.574.78.78 0 01-.161.488 1.648 1.648 0 01-.353.314l-.204.137a4.22 4.22 0 00-.248.188.557.557 0 00-.115.133h1.077v.429h-1.687a1.16 1.16 0 01.129-.486zm6.796-2.519a.474.474 0 11.473.46.468.468 0 01-.473-.46zm.022 1.507a.469.469 0 01.284-.443.472.472 0 11-.284.443zm.023 1.54a.476.476 0 01.283-.442.472.472 0 11-.283.443z" clip-rule="evenodd"/><path fill="#fff" fill-rule="evenodd" stroke="#35416B" stroke-linecap="round" stroke-linejoin="round" d="M63.752 107.849h66.153c1.475 0 2.671 1.612 2.671 3.6v89.811c0 1.986-1.196 3.598-2.671 3.598H63.752c-1.476 0-2.672-1.612-2.672-3.598v-89.811c0-1.988 1.196-3.6 2.672-3.6z" clip-rule="evenodd"/><path fill="#35416B" fill-rule="evenodd" d="M66.076 113.603h.494l.899 1.578v-1.578h.439v2.262h-.469l-.921-1.608v1.608h-.44l-.002-2.262zm3.157 1.448a.436.436 0 01-.083.042 1.138 1.138 0 01-.115.032l-.099.016a.764.764 0 00-.198.061.213.213 0 00-.1.187.197.197 0 00.062.161.229.229 0 00.15.051c.094 0 .184-.03.26-.084a.353.353 0 00.123-.302v-.164zm-.265-.209a.646.646 0 00.173-.04.128.128 0 00.067-.047.13.13 0 00.027-.077.15.15 0 00-.07-.142.43.43 0 00-.21-.038.268.268 0 00-.209.075.326.326 0 00-.06.155h-.419a.645.645 0 01.124-.362.697.697 0 01.593-.21c.17-.004.337.033.488.109a.418.418 0 01.209.419v.963c0 .04.008.079.027.115a.18.18 0 00.063.053v.062h-.475a.76.76 0 01-.027-.094.476.476 0 00-.013-.101.867.867 0 01-.209.166.619.619 0 01-.32.082.534.534 0 01-.374-.13.451.451 0 01-.146-.367.481.481 0 01.236-.447c.12-.06.25-.097.383-.107l.142-.037zm3.365-.493a.481.481 0 01.096.21c.01.082.015.164.015.247v1.048H72v-1.065a.341.341 0 00-.032-.157.208.208 0 00-.209-.115.247.247 0 00-.147.035.248.248 0 00-.101.114.461.461 0 00-.036.192v.996h-.439v-.985a.514.514 0 00-.031-.21.206.206 0 00-.209-.121.262.262 0 00-.144.023.263.263 0 00-.107.098.486.486 0 00-.036.21v1.006h-.443v-1.677h.418v.245a.747.747 0 01.153-.186.535.535 0 01.33-.099.53.53 0 01.31.086.503.503 0 01.144.21.558.558 0 01.209-.21.601.601 0 01.704.105zm.83.511h.68a.385.385 0 00-.107-.262.325.325 0 00-.232-.09.284.284 0 00-.129.021.285.285 0 00-.107.074.48.48 0 00-.105.257zm.991-.387a.85.85 0 01.128.346c.012.109.016.22.012.331h-1.141a.418.418 0 00.157.352.348.348 0 00.209.063.319.319 0 00.209-.075.347.347 0 00.081-.116h.445a.55.55 0 01-.154.302.749.749 0 01-.6.245.854.854 0 01-.563-.209.84.84 0 01-.242-.671.94.94 0 01.21-.667.748.748 0 01.57-.231.878.878 0 01.374.078.65.65 0 01.305.252zm-8.192 9.347h.463v.931l.87-.931h.61l-.925.931.974 1.331h-.609l-.696-.987-.224.231v.756h-.463v-2.262zm2.54 1.258h.677a.38.38 0 00-.105-.262.32.32 0 00-.234-.09.293.293 0 00-.234.094.487.487 0 00-.105.258zm.99-.388c.067.105.11.223.126.346.014.11.019.221.014.331h-1.147a.422.422 0 00.156.355.379.379 0 00.21.063c.076 0 .15-.028.209-.078a.407.407 0 00.081-.115h.445a.554.554 0 01-.154.302.75.75 0 01-.6.245.833.833 0 01-.563-.21.84.84 0 01-.244-.671.927.927 0 01.25-.66.751.751 0 01.571-.231.872.872 0 01.377.078c.11.055.204.14.27.245zm.502 1.713h.055a.635.635 0 00.123 0 .23.23 0 00.098-.035.264.264 0 00.071-.109.212.212 0 00.025-.101l-.61-1.749h.485l.364 1.235.344-1.235h.463l-.573 1.657a2.44 2.44 0 01-.262.591.504.504 0 01-.386.113h-.199l.002-.367zm-3.886 12.344h1.6v.398h-1.132v.52h.991v.395h-.99v.949h-.47v-2.262zm2.199 1.258h.677a.386.386 0 00-.104-.264.32.32 0 00-.234-.09.293.293 0 00-.234.094.475.475 0 00-.105.26zm.989-.39a.828.828 0 01.127.346c.015.11.02.221.015.331h-1.144a.422.422 0 00.16.355.379.379 0 00.208.063.327.327 0 00.21-.078.368.368 0 00.079-.115h.447a.554.554 0 01-.154.302.754.754 0 01-.603.245.779.779 0 01-.604-.255.774.774 0 01-.2-.626.936.936 0 01.209-.666.751.751 0 01.57-.231.888.888 0 01.377.078c.12.052.223.139.292.251h.01zm1.356.579a.591.591 0 01-.2.073l-.096.019a.61.61 0 00-.21.059.233.233 0 00-.058.323l.019.025a.234.234 0 00.153.05.44.44 0 00.259-.084.349.349 0 00.123-.302l.01-.163zm-.265-.21a.795.795 0 00.174-.038.127.127 0 00.066-.048.131.131 0 00.026-.077.148.148 0 00-.072-.143.455.455 0 00-.209-.038.257.257 0 00-.113.016.251.251 0 00-.096.062.309.309 0 00-.062.153h-.418a.634.634 0 01.123-.361.696.696 0 01.27-.181.697.697 0 01.324-.041c.168-.002.335.035.487.109a.418.418 0 01.209.419v.963a.226.226 0 00.025.117.18.18 0 00.065.051v.065h-.475a.813.813 0 01-.04-.197.973.973 0 01-.209.167.62.62 0 01-.318.08.534.534 0 01-.374-.13.455.455 0 01-.148-.367.48.48 0 01.238-.447c.12-.06.25-.097.383-.107l.144-.027zm.918-.323v-.31h.232v-.468h.432v.468h.279v.31h-.27v.885a.212.212 0 00.025.128.29.29 0 00.159.025h.085v.327h-.209a.545.545 0 01-.418-.109.33.33 0 01-.073-.23v-1.032l-.242.006zm1.65-.327v1.009a.548.548 0 00.033.209.237.237 0 00.097.101.24.24 0 00.137.027.301.301 0 00.183-.042.302.302 0 00.124-.14.655.655 0 00.042-.26v-.91h.443v1.677h-.418v-.237a.243.243 0 00-.031.046.247.247 0 01-.057.068.615.615 0 01-.432.159.491.491 0 01-.5-.266 1.004 1.004 0 01-.073-.436v-1.009l.451.004zm2.445-.035v.446h-.126a.354.354 0 00-.353.172.66.66 0 00-.052.298v.801h-.439v-1.678h.418v.292a.98.98 0 01.178-.229.48.48 0 01.318-.102h.056zm.575.706h.677a.385.385 0 00-.104-.264.32.32 0 00-.234-.09.293.293 0 00-.235.094.476.476 0 00-.104.26zm.989-.39a.828.828 0 01.127.346c.014.11.02.221.015.331h-1.144a.422.422 0 00.16.355.378.378 0 00.208.063.325.325 0 00.21-.078.368.368 0 00.079-.115h.447a.554.554 0 01-.155.302.753.753 0 01-.602.245.78.78 0 01-.604-.255.774.774 0 01-.2-.626.936.936 0 01.209-.666.752.752 0 01.57-.231.888.888 0 01.376.078.65.65 0 01.304.251zm2.368-.87h.441v2.264h-.434l-.007-2.264zm-.267-.015v.357h-.128c-.067 0-.108.019-.125.056a.518.518 0 00-.02.179v.031h.287v.308h-.286v1.351h-.435v-1.351h-.257v-.308h.24v-.109a.562.562 0 01.118-.396.558.558 0 01.43-.124h.082l.094.006zm2.042 1.464a.59.59 0 01-.2.073l-.097.019a.589.589 0 00-.209.059.235.235 0 00-.058.323l.018.025a.228.228 0 00.15.05.446.446 0 00.262-.084.353.353 0 00.124-.302l.01-.163zm-.266-.21a.796.796 0 00.174-.038.132.132 0 00.092-.126.143.143 0 00-.015-.081.14.14 0 00-.056-.061.455.455 0 00-.21-.038.272.272 0 00-.112.015.266.266 0 00-.096.063.309.309 0 00-.063.153h-.418a.654.654 0 01.121-.361.704.704 0 01.596-.222 1.08 1.08 0 01.487.109.418.418 0 01.21.419v.963a.23.23 0 00.024.117c.018.021.04.038.065.05v.065h-.475a.504.504 0 01-.027-.096.824.824 0 01-.012-.101.948.948 0 01-.21.168.63.63 0 01-.317.08.539.539 0 01-.374-.13.455.455 0 01-.149-.367.477.477 0 01.239-.447 1.02 1.02 0 01.382-.107l.144-.027zm2.17.18a.573.573 0 00-.1-.362.317.317 0 00-.12-.094.321.321 0 00-.15-.03.314.314 0 00-.315.21.762.762 0 00-.046.283.654.654 0 00.048.26.323.323 0 00.318.209.33.33 0 00.263-.107.53.53 0 00.102-.369zm-.255-.838a.517.517 0 01.257.243v-.241h.419v1.589a.879.879 0 01-.11.487c-.123.188-.363.283-.716.283a.968.968 0 01-.52-.126.462.462 0 01-.224-.375h.474c.007.042.027.08.059.109.07.046.154.067.238.06a.324.324 0 00.316-.157.84.84 0 00.052-.342v-.113a.568.568 0 01-.136.162.545.545 0 01-.339.098.64.64 0 01-.514-.226.911.911 0 01-.19-.613 1.051 1.051 0 01.184-.629.613.613 0 01.525-.253c.077 0 .154.015.225.044zm2.409-.191h-.441v-.405h.44v.405zm-.441.199h.44v1.678h-.44v-1.678zm1.203 1.141a.28.28 0 00.061.165.398.398 0 00.3.086.441.441 0 00.208-.037.128.128 0 00.015-.227 2.613 2.613 0 00-.466-.138.95.95 0 01-.4-.178.386.386 0 01-.117-.3.523.523 0 01.182-.399.738.738 0 01.512-.167.923.923 0 01.508.125.537.537 0 01.226.432h-.437a.253.253 0 00-.046-.132.3.3 0 00-.246-.09.363.363 0 00-.21.044.136.136 0 00-.041.045.137.137 0 00-.017.06.116.116 0 00.063.109c.148.053.3.094.455.122.145.026.28.091.391.186a.424.424 0 01.128.315.512.512 0 01-.184.407 1.107 1.107 0 01-1.152-.011.54.54 0 01-.188-.419l.456.002zm3.197-.281a.591.591 0 01-.2.073l-.099.019a.59.59 0 00-.197.059.235.235 0 00-.058.323l.019.025a.228.228 0 00.15.05.446.446 0 00.262-.084.353.353 0 00.123-.302v-.163zm-.266-.21a.795.795 0 00.174-.038.133.133 0 00.092-.126.144.144 0 00-.015-.081.14.14 0 00-.056-.061.455.455 0 00-.21-.038.272.272 0 00-.112.015.265.265 0 00-.096.063.309.309 0 00-.063.153h-.418a.655.655 0 01.121-.361.703.703 0 01.596-.222c.168-.002.334.035.485.109a.418.418 0 01.209.419v.963a.228.228 0 00.025.117c.018.021.04.038.065.05v.065h-.475a.504.504 0 01-.027-.096.824.824 0 01-.012-.101.947.947 0 01-.21.168.63.63 0 01-.317.08.539.539 0 01-.374-.13.456.456 0 01-.149-.367.477.477 0 01.239-.447 1.02 1.02 0 01.382-.107l.146-.027zm2.085-.05a.373.373 0 00-.063-.168.273.273 0 00-.102-.079.274.274 0 00-.126-.022.302.302 0 00-.301.21.873.873 0 00-.044.31.84.84 0 00.044.298.294.294 0 00.295.21.274.274 0 00.209-.082.418.418 0 00.077-.21h.445a.71.71 0 01-.144.378.688.688 0 01-.608.287.717.717 0 01-.592-.239.955.955 0 01-.19-.629.985.985 0 01.21-.671.725.725 0 01.577-.239.861.861 0 01.513.143.642.642 0 01.236.497l-.436.006zm.577-.273v-.31h.232v-.468h.432v.468h.27v.31h-.27v.885a.211.211 0 00.026.128.29.29 0 00.158.025h.086v.327h-.209a.544.544 0 01-.418-.109.33.33 0 01-.073-.23v-1.032l-.234.006zm1.663-.526h-.449v-.405h.443l.006.405zm-.443.199h.443v1.678h-.449l.006-1.678zm1.894 0h.469l-.6 1.678h-.463l-.597-1.678h.489l.347 1.235.355-1.235zm1.027.671h.677a.386.386 0 00-.104-.264.32.32 0 00-.234-.09.293.293 0 00-.235.094.475.475 0 00-.104.26zm.99-.39c.067.105.11.223.126.346.014.11.02.221.015.331H95.66a.422.422 0 00.157.355.378.378 0 00.209.063c.076 0 .15-.028.209-.078a.407.407 0 00.081-.115h.446a.555.555 0 01-.155.302.75.75 0 01-.6.245.833.833 0 01-.563-.21.84.84 0 01-.244-.671.938.938 0 01.209-.666.753.753 0 01.57-.231.888.888 0 01.377.078c.124.05.23.138.303.251h-.008zM66.734 152.89v.61h.535a.587.587 0 00.239-.038.256.256 0 00.11-.105.255.255 0 00.03-.151.278.278 0 00-.136-.274.505.505 0 00-.23-.042h-.548zm1.227-.176a.737.737 0 01.117.19.666.666 0 01-.038.556.465.465 0 01-.267.22c.092.032.17.095.222.178a.76.76 0 01.064.355v.159c-.002.07.002.14.013.21a.178.178 0 00.084.128v.058h-.519c-.014-.05-.023-.092-.03-.121a1.242 1.242 0 01-.02-.195v-.21a.42.42 0 00-.08-.287.423.423 0 00-.284-.074h-.487v.889h-.46v-2.264h1.106a1.06 1.06 0 01.366.059.557.557 0 01.213.149zm1.677 1.214a.627.627 0 00-.107-.394.388.388 0 00-.59 0 .784.784 0 000 .775.38.38 0 00.264.136.382.382 0 00.282-.092.257.257 0 00.044-.044.629.629 0 00.107-.381zm-.395.891a.777.777 0 01-.642-.26 1.051 1.051 0 010-1.258.913.913 0 011.283 0 1.049 1.049 0 010 1.258.776.776 0 01-.641.26zm1.61-.057h-.436v-2.264h.435v2.264zm.87 0h-.436v-2.264h.437v2.264zm2.443-.834a.63.63 0 00-.103-.388.348.348 0 00-.293-.136.344.344 0 00-.163.032.341.341 0 00-.131.104.768.768 0 000 .776.35.35 0 00.294.136.341.341 0 00.293-.136.632.632 0 00.103-.388zm-.396.891a.777.777 0 01-.642-.26 1.052 1.052 0 010-1.258.913.913 0 011.284 0 1.049 1.049 0 010 1.258.776.776 0 01-.642.26zm1.602-1.732v1.008a.513.513 0 00.033.21.234.234 0 00.234.128.312.312 0 00.182-.042.312.312 0 00.124-.14.605.605 0 00.043-.258v-.912h.442v1.677h-.419v-.237l-.03.046a.295.295 0 01-.06.067.618.618 0 01-.432.16.499.499 0 01-.5-.267 1.034 1.034 0 01-.07-.436v-1.008l.453.004zm1.309.327v-.3h.231v-.468h.433v.468h.27v.31h-.27v.885a.211.211 0 00.025.128.29.29 0 00.16.025h.085v.33h-.21a.567.567 0 01-.418-.11.318.318 0 01-.072-.23v-1.032l-.234-.006zm2.867-.929v.357h-.123a.126.126 0 00-.064.005.135.135 0 00-.055.032.14.14 0 00-.032.09v.145h.291v.308h-.286v1.351h-.435v-1.351h-.245v-.308h.239v-.109a.563.563 0 01.091-.369c.063-.101.216-.151.458-.151h.161zm.582 1.273h.69a.387.387 0 00-.107-.264.328.328 0 00-.232-.091.296.296 0 00-.236.097.49.49 0 00-.115.258zm.99-.39c.067.105.11.223.128.346.013.11.017.22.013.331h-1.142a.418.418 0 00.157.354.363.363 0 00.209.063.309.309 0 00.29-.193h.463a.538.538 0 01-.155.302.764.764 0 01-.6.246.855.855 0 01-.562-.21.843.843 0 01-.243-.669.93.93 0 01.21-.667.747.747 0 01.57-.232.877.877 0 01.374.077.686.686 0 01.288.252zm1.355.585a.81.81 0 01-.084.044.652.652 0 01-.115.029l-.098.019a.588.588 0 00-.196.059.206.206 0 00-.103.186.197.197 0 00.063.162.228.228 0 00.15.05.44.44 0 00.26-.084.35.35 0 00.123-.302v-.163zm-.266-.21a.795.795 0 00.174-.038.129.129 0 00.068-.047.133.133 0 00.026-.079.152.152 0 00-.071-.14.419.419 0 00-.209-.04.272.272 0 00-.21.078.306.306 0 00-.06.153h-.418a.634.634 0 01.124-.361.721.721 0 01.593-.222c.169-.002.336.035.487.109a.417.417 0 01.21.419v.961a.25.25 0 00.026.117c.018.021.04.038.065.05v.065h-.476a.695.695 0 01-.027-.096.476.476 0 00-.013-.101.898.898 0 01-.209.168.629.629 0 01-.32.082.556.556 0 01-.374-.13.47.47 0 01-.146-.369.481.481 0 01.236-.447c.12-.06.25-.097.382-.107l.142-.025zm.91-.329v-.3h.232v-.468h.433v.468h.272v.31h-.272v.885a.211.211 0 00.025.128c.05.023.106.032.16.025h.087v.329h-.21a.528.528 0 01-.418-.109.312.312 0 01-.075-.23v-1.032l-.234-.006zm1.66-.327v1.008a.513.513 0 00.033.21.234.234 0 00.234.128.312.312 0 00.182-.042.312.312 0 00.124-.14.607.607 0 00.043-.258v-.912h.442v1.677h-.418v-.237l-.032.046a.295.295 0 01-.058.067.618.618 0 01-.433.16.499.499 0 01-.5-.267 1.034 1.034 0 01-.07-.436v-1.008l.453.004zm2.444-.036v.449h-.132a.353.353 0 00-.353.172.659.659 0 00-.05.297v.801h-.433v-1.677h.418v.291a.984.984 0 01.175-.228.493.493 0 01.32-.103h.055v-.002zm.575.707h.677a.385.385 0 00-.105-.264.327.327 0 00-.232-.091.296.296 0 00-.236.097.484.484 0 00-.105.258zm.99-.39c.067.105.11.223.128.346.012.11.017.22.012.331h-1.14a.417.417 0 00.156.354.363.363 0 00.209.063.3.3 0 00.22-.077.325.325 0 00.08-.116h.446a.547.547 0 01-.136.313.75.75 0 01-.6.245.85.85 0 01-.562-.21.828.828 0 01-.242-.668.929.929 0 01.209-.667.75.75 0 01.57-.233.878.878 0 01.374.078.665.665 0 01.276.241zm1.136.046v-.3h.232v-.468h.43v.468h.272v.31h-.272v.885a.209.209 0 00.027.128.29.29 0 00.16.025h.085v.329h-.209a.545.545 0 01-.418-.109.318.318 0 01-.073-.23v-1.032l-.234-.006zm2.36.514a.63.63 0 00-.103-.388.381.381 0 00-.263-.136.381.381 0 00-.326.136.787.787 0 000 .776.396.396 0 00.264.135.393.393 0 00.326-.135.632.632 0 00.102-.388zm-.395.891a.776.776 0 01-.642-.26 1.051 1.051 0 010-1.258.913.913 0 011.283 0 1.049 1.049 0 010 1.258.777.777 0 01-.627.26h-.014zm2.813-1.386a.325.325 0 00-.328.226.944.944 0 00-.044.304.487.487 0 00.153.409c.063.047.14.071.22.069a.305.305 0 00.275-.14.746.746 0 000-.719.31.31 0 00-.118-.113.31.31 0 00-.158-.036zm.824.47c.016.241-.054.481-.199.675a.656.656 0 01-.512.23.548.548 0 01-.33-.098.685.685 0 01-.14-.162v.873h-.433v-2.334h.418v.247a.777.777 0 01.15-.172.562.562 0 01.348-.111.64.64 0 01.493.21c.15.178.226.408.21.642h-.005zm.633-.145h.677a.385.385 0 00-.104-.264.32.32 0 00-.234-.091.295.295 0 00-.234.097.467.467 0 00-.105.258zm.991-.39c.067.105.11.223.126.346.014.11.019.22.014.331h-1.141a.418.418 0 00.157.354.363.363 0 00.209.063.3.3 0 00.22-.077.425.425 0 00.08-.116h.446a.551.551 0 01-.136.313.749.749 0 01-.6.245.85.85 0 01-.562-.21.83.83 0 01-.245-.668.924.924 0 01.222-.667.747.747 0 01.568-.233.887.887 0 01.377.078c.108.054.2.138.265.241zm1.399-.317v.449h-.126a.353.353 0 00-.353.172.657.657 0 00-.05.297v.801h-.441v-1.677h.418v.291a.987.987 0 01.175-.228.481.481 0 01.318-.103h.059v-.002zm1.252.638a.406.406 0 00-.063-.17.272.272 0 00-.101-.079.274.274 0 00-.127-.022.301.301 0 00-.3.21.918.918 0 00-.044.31.841.841 0 00.043.298.291.291 0 00.293.21.26.26 0 00.21-.082.405.405 0 00.079-.21h.445a.766.766 0 01-.144.38.696.696 0 01-.609.285.705.705 0 01-.591-.239.958.958 0 01-.19-.629.985.985 0 01.208-.671.732.732 0 01.58-.241.869.869 0 01.514.142.656.656 0 01.236.499l-.439.009zm1.066.069h.677a.385.385 0 00-.104-.264.328.328 0 00-.232-.091.29.29 0 00-.236.097.48.48 0 00-.105.258zm.991-.39c.066.105.11.223.127.346.013.11.017.22.013.331h-1.141a.418.418 0 00.156.354.364.364 0 00.209.063.307.307 0 00.291-.193h.445a.527.527 0 01-.154.302.767.767 0 01-.6.246.856.856 0 01-.563-.21.842.842 0 01-.242-.669.928.928 0 01.209-.667.747.747 0 01.571-.232.88.88 0 01.374.077c.124.052.23.139.305.252zm1.956.266v1.128h-.445v-1.019a.483.483 0 00-.035-.209.25.25 0 00-.245-.128.303.303 0 00-.305.188.643.643 0 00-.044.256v.906h-.435v-1.677h.418v.245a.76.76 0 01.159-.185.547.547 0 01.341-.102.657.657 0 01.418.136.554.554 0 01.173.461zm.222-.22v-.3h.232v-.468h.433v.468h.272v.31h-.272v.885a.205.205 0 00.025.128c.05.023.106.032.161.025h.086v.329h-.209a.531.531 0 01-.418-.109.323.323 0 01-.076-.23v-1.032l-.234-.006zm2.137.539a.837.837 0 01-.084.044.922.922 0 01-.115.029l-.098.019a.609.609 0 00-.199.059.211.211 0 00-.1.186.19.19 0 00.013.088.206.206 0 00.05.074.227.227 0 00.15.05.438.438 0 00.259-.084.36.36 0 00.124-.302v-.163zm-.266-.21a.808.808 0 00.174-.038.124.124 0 00.067-.047.132.132 0 00.027-.079.149.149 0 00-.017-.08.147.147 0 00-.056-.06.418.418 0 00-.209-.04.27.27 0 00-.209.078.305.305 0 00-.063.153h-.418a.635.635 0 01.123-.361.722.722 0 01.594-.222c.168-.002.335.035.487.109a.418.418 0 01.209.419v.961c0 .04.008.08.025.117.018.021.04.038.065.05v.065h-.475a.526.526 0 01-.027-.096.49.49 0 00-.012-.101.946.946 0 01-.21.168.625.625 0 01-.319.082.557.557 0 01-.375-.13.463.463 0 01-.148-.369.48.48 0 01.238-.447c.12-.06.25-.097.383-.107l.146-.025zm2.17.174a.576.576 0 00-.1-.362.325.325 0 00-.27-.124.315.315 0 00-.316.21.775.775 0 00-.046.283.663.663 0 00.048.26.32.32 0 00.32.209.328.328 0 00.257-.115.537.537 0 00.107-.361zm-.255-.838a.532.532 0 01.257.243v-.241h.418v1.589a.873.873 0 01-.109.487c-.123.188-.363.283-.714.283a.975.975 0 01-.523-.126.474.474 0 01-.224-.375h.475c.008.042.028.08.058.111a.367.367 0 00.239.058.315.315 0 00.315-.157.846.846 0 00.053-.342v-.107a.519.519 0 01-.136.162.54.54 0 01-.339.098.625.625 0 01-.512-.226.909.909 0 01-.192-.612 1.043 1.043 0 01.184-.629.618.618 0 01.526-.254c.077 0 .153.015.224.044v-.006zm1.407.679h.679a.385.385 0 00-.104-.264.316.316 0 00-.234-.091.3.3 0 00-.129.021.296.296 0 00-.106.076.477.477 0 00-.106.258zm.991-.39c.067.104.11.222.127.346.012.11.017.22.015.331h-1.144a.412.412 0 00.159.354.364.364 0 00.209.063.307.307 0 00.209-.077.36.36 0 00.08-.116h.445a.537.537 0 01-.155.302.755.755 0 01-.6.246.838.838 0 01-.56-.21.84.84 0 01-.244-.669.928.928 0 01.209-.667.747.747 0 01.57-.232.874.874 0 01.374.077.65.65 0 01.306.252zm2.452.56a.627.627 0 00-.103-.388.39.39 0 00-.413-.118.39.39 0 00-.176.118.786.786 0 000 .776.394.394 0 00.546.044.298.298 0 00.043-.044.628.628 0 00.103-.388zm-.395.891a.772.772 0 01-.642-.26 1.05 1.05 0 010-1.258.914.914 0 011.284 0 1.054 1.054 0 010 1.258.783.783 0 01-.642.26zm1.948-2.334v.357h-.123a.127.127 0 00-.151.096.16.16 0 000 .031v.145h.287v.308h-.287v1.351h-.435v-1.351h-.244v-.308h.24v-.109a.56.56 0 01.09-.369c.063-.101.215-.151.458-.151h.167-.002zm1.568.602v1.008a.517.517 0 00.033.21.234.234 0 00.234.128.313.313 0 00.182-.042.312.312 0 00.124-.14.616.616 0 00.044-.258v-.912h.441v1.677h-.418v-.237l-.032.046a.31.31 0 01-.058.067.622.622 0 01-.209.126.685.685 0 01-.224.034.499.499 0 01-.5-.267 1.03 1.03 0 01-.071-.436v-1.008l.454.004zm1.818 1.141a.3.3 0 00.061.165.404.404 0 00.301.088.441.441 0 00.209-.04.129.129 0 00.079-.108.13.13 0 00-.015-.068.138.138 0 00-.049-.05 2.406 2.406 0 00-.454-.132.976.976 0 01-.399-.176.376.376 0 01-.117-.302.514.514 0 01.182-.399.727.727 0 01.51-.165.968.968 0 01.51.123.553.553 0 01.226.432h-.437a.275.275 0 00-.048-.132.293.293 0 00-.112-.074.286.286 0 00-.133-.016.364.364 0 00-.209.044.142.142 0 00-.043.045.16.16 0 00-.018.06.123.123 0 00.016.065.122.122 0 00.049.044c.147.054.299.095.454.122a.836.836 0 01.391.186.415.415 0 01.129.315.502.502 0 01-.186.407.866.866 0 01-.57.157.834.834 0 01-.579-.168.536.536 0 01-.189-.419l.441-.004zm1.723-.47h.68a.39.39 0 00-.105-.264.316.316 0 00-.234-.091.293.293 0 00-.234.097.471.471 0 00-.107.258zm.991-.39a.837.837 0 01.127.346c.013.11.018.22.015.331h-1.143a.417.417 0 00.159.354.36.36 0 00.209.063.294.294 0 00.209-.077.325.325 0 00.081-.116h.445a.536.536 0 01-.154.302.767.767 0 01-.6.246.836.836 0 01-.56-.21.834.834 0 01-.245-.669.928.928 0 01.209-.667.747.747 0 01.571-.232.877.877 0 01.374.077c.122.052.225.14.297.252h.006zm1.401-.317v.449h-.126a.362.362 0 00-.355.172.645.645 0 00-.05.297v.801h-.448v-1.677h.418v.291c.048-.084.108-.161.178-.228a.482.482 0 01.318-.103h.065v-.002zm.595 1.177a.3.3 0 00.059.165.393.393 0 00.301.088.47.47 0 00.209-.04.124.124 0 00.053-.043.141.141 0 00.023-.065.126.126 0 00-.061-.118 2.7 2.7 0 00-.456-.132.976.976 0 01-.399-.176.381.381 0 01-.117-.302.52.52 0 01.181-.399.728.728 0 01.51-.165.97.97 0 01.511.123.553.553 0 01.225.432h-.437a.227.227 0 00-.048-.132.288.288 0 00-.244-.09.36.36 0 00-.209.044.132.132 0 00-.061.105.114.114 0 00.016.065.11.11 0 00.049.044c.147.054.299.095.454.122a.828.828 0 01.39.186.414.414 0 01.13.315.516.516 0 01-.186.407 1.102 1.102 0 01-1.15-.011.537.537 0 01-.188-.419l.445-.004z" clip-rule="evenodd"/><path stroke="#35416B" stroke-linecap="round" stroke-linejoin="round" d="M66.185 117.492h32.98v4.126h-32.98v-4.126zm-.067 10.88h32.98v4.127h-32.98v-4.127z" clip-rule="evenodd"/><path fill="#35416B" fill-rule="evenodd" d="M67.563 143.203h6.03c.969 0 1.753.97 1.753 2.168 0 1.197-.784 2.168-1.752 2.168h-6.031c-.966 0-1.75-.971-1.75-2.168 0-1.198.79-2.168 1.75-2.168zm.245 15.057h6.03c.966 0 1.75.971 1.75 2.168s-.784 2.168-1.75 2.168h-6.03c-.968 0-1.752-.971-1.752-2.168s.784-2.168 1.752-2.168z" clip-rule="evenodd"/><path fill="#fff" fill-rule="evenodd" d="M71.14 145.438a1.928 1.928 0 011.097-1.831 1.907 1.907 0 012.106.315 1.925 1.925 0 01-1.197 3.344h-.091a1.88 1.88 0 01-1.915-1.828zm.242 15.055a1.928 1.928 0 011.097-1.832c.343-.162.726-.218 1.101-.162a1.917 1.917 0 011.577 1.436 1.928 1.928 0 01-.72 2.011c-.305.226-.67.357-1.048.375h-.096a1.878 1.878 0 01-1.329-.521 1.892 1.892 0 01-.582-1.307z" clip-rule="evenodd"/><path fill="#35416B" fill-rule="evenodd" d="M67.166 165.936h59.737a1.114 1.114 0 010 2.229H67.166a1.112 1.112 0 01-1.11-1.116 1.116 1.116 0 011.11-1.113z" clip-rule="evenodd"/><path fill="#F7A501" fill-rule="evenodd" d="M87.794 165.936h39.182a1.108 1.108 0 011.11 1.113 1.112 1.112 0 01-1.108 1.116H87.794a1.112 1.112 0 01-1.11-1.116 1.115 1.115 0 011.11-1.113z" clip-rule="evenodd"/><path fill="#fff" fill-rule="evenodd" stroke="#35416B" stroke-linecap="round" stroke-linejoin="round" stroke-width="2.5" d="M86.095 167.056a1.133 1.133 0 01.686-1.051 1.124 1.124 0 011.23.234 1.13 1.13 0 01-.779 1.936h-.013a1.108 1.108 0 01-.793-.326 1.115 1.115 0 01-.331-.793z" clip-rule="evenodd"/><path fill="#35416B" fill-rule="evenodd" d="M83.402 170.578h2.902l1.242-1.065 1.176 1.065h2.986v6.5h-8.306v-6.5z" clip-rule="evenodd"/><path fill="#fff" fill-rule="evenodd" d="M85.087 174.252a.471.471 0 00.042.22.283.283 0 00.119.126.28.28 0 00.17.035.316.316 0 00.32-.341.29.29 0 00-.178-.292.856.856 0 00-.318-.042v-.312a.83.83 0 00.297-.042.255.255 0 00.144-.26.306.306 0 00-.073-.21.283.283 0 00-.21-.08.268.268 0 00-.124.021.267.267 0 00-.1.078.419.419 0 00-.072.262h-.406c.005-.107.023-.213.057-.314a.718.718 0 01.167-.239.57.57 0 01.21-.12.83.83 0 01.288-.042.76.76 0 01.512.166.541.541 0 01.194.44.48.48 0 01-.27.447c.067.014.128.05.172.102a.556.556 0 01.167.42.72.72 0 01-.194.497.743.743 0 01-.577.209.7.7 0 01-.654-.308.908.908 0 01-.107-.43l.424.009zm2.09.381a.245.245 0 00.253-.209 2.88 2.88 0 000-1.181.247.247 0 00-.253-.193.252.252 0 00-.257.193 2.812 2.812 0 000 1.181.254.254 0 00.257.209zm.764-.788c.014.29-.045.578-.172.839a.748.748 0 01-.592.297.747.747 0 01-.593-.297 2.195 2.195 0 010-1.697.751.751 0 01.49-.295.735.735 0 01.704.295c.13.266.189.562.171.858h-.008zm.997-.552a.243.243 0 00-.071-.171.243.243 0 00-.345.343.243.243 0 00.345 0 .238.238 0 00.07-.172zm-.243.571a.552.552 0 01-.401-.168.57.57 0 010-.801.57.57 0 01.763-.038.565.565 0 01.206.497.573.573 0 01-.568.514v-.004zm1.485.302a.239.239 0 00-.243.23v.013a.242.242 0 00.069.172.237.237 0 00.174.071.245.245 0 00.171-.071.243.243 0 00.053-.266.245.245 0 00-.132-.132.227.227 0 00-.093-.017zm0 .811a.546.546 0 01-.401-.165.576.576 0 010-.808.57.57 0 01.802 0 .57.57 0 01-.404.971l.002.002zm-.243-2.264h.232l-1.235 2.279h-.237l1.24-2.279z" clip-rule="evenodd"/><path fill="#35416B" fill-rule="evenodd" stroke="#35416B" stroke-linecap="round" stroke-linejoin="round" stroke-width="2.5" d="M69.712 181.238h49.544v13.629H69.712v-13.629z" clip-rule="evenodd"/><path stroke="#F96132" stroke-linecap="round" stroke-linejoin="round" d="M74.587 185.939l38.793.034m-38.663 3.415l26.339.034"/></g><path fill="#F7A501" fill-rule="evenodd" stroke="#35416B" stroke-linecap="round" stroke-linejoin="round" stroke-width=".5" d="M172.954 53.597h66.431a8.79 8.79 0 018.127 5.427 8.82 8.82 0 01.671 3.367v123.14a8.794 8.794 0 01-8.788 8.804h-66.441a8.78 8.78 0 01-6.219-2.573 8.801 8.801 0 01-2.579-6.221V62.396a8.801 8.801 0 015.428-8.129 8.788 8.788 0 013.365-.67h.005z" clip-rule="evenodd"/><path fill="#F7A501" fill-rule="evenodd" stroke="#35416B" stroke-linecap="round" stroke-linejoin="round" stroke-width=".5" d="M198.816 91.362h15.813a8.791 8.791 0 016.213 2.583 8.803 8.803 0 012.57 6.222v46.994a8.791 8.791 0 01-8.793 8.799h-15.803a8.78 8.78 0 01-6.221-2.575 8.795 8.795 0 01-2.578-6.224v-46.994c0-2.335.927-4.575 2.577-6.226a8.796 8.796 0 016.222-2.579z" clip-rule="evenodd"/><path stroke="#35416B" stroke-linecap="round" stroke-linejoin="round" stroke-width=".5" d="M197.34 88.768h18.478c5.677 0 10.279 4.291 10.279 9.588v51.174c0 5.292-4.612 9.583-10.279 9.583H197.34c-5.678 0-10.28-4.291-10.28-9.583V98.356c0-5.297 4.581-9.588 10.28-9.588z" clip-rule="evenodd"/><path fill="#35416B" fill-rule="evenodd" stroke="#35416B" stroke-linecap="round" stroke-linejoin="round" stroke-width=".5" d="M198.908 146.3h16.541c8.055-.113 7.963-13.137 7.963-13.137s.082 14.988.082 15.896c0 0-.513 6.589-8.05 6.45h-17.423c-6.661.077-7.983-6.281-7.983-6.281 0-.892-.047-16.096-.047-16.096s2.711 13.245 8.917 13.168z" clip-rule="evenodd"/><path fill="#fff" fill-rule="evenodd" d="M204.888 71.924a3.371 3.371 0 00-.59-2.113 2.099 2.099 0 00-3.207 0 4.03 4.03 0 000 4.23 2.099 2.099 0 003.207 0 3.35 3.35 0 00.59-2.117zm.466 3.348a4.19 4.19 0 01-5.314 0c-.825-.774-1.235-1.887-1.235-3.348 0-1.462.41-2.6 1.235-3.349a4.191 4.191 0 015.314 0c.82.75 1.23 1.862 1.23 3.349a4.384 4.384 0 01-1.23 3.348zm2.496-7.394h1.778l3.228 5.666v-5.666h1.584v8.117h-1.697l-3.315-5.748v5.769h-1.578v-8.138z" clip-rule="evenodd"/><path fill="#35416B" fill-rule="evenodd" d="M202.853 173.343a3.345 3.345 0 00-.589-2.107 2.092 2.092 0 00-3.208 0 4.036 4.036 0 000 4.23 2.108 2.108 0 002.245.644 2.081 2.081 0 00.963-.644 3.36 3.36 0 00.589-2.123zm.467 3.353a4.218 4.218 0 01-5.314 0 4.374 4.374 0 01-1.235-3.353c0-1.487.41-2.6 1.235-3.348a4.187 4.187 0 015.314 0c.82.748 1.23 1.861 1.23 3.348a4.41 4.41 0 01-1.23 3.353zm2.521-7.389h5.755v1.441h-4.069v1.866h3.587v1.411h-3.587v3.389h-1.686v-8.107zm6.887 0h5.755v1.441h-4.069v1.866h3.561v1.411h-3.561v3.389h-1.686v-8.107z" clip-rule="evenodd"/><rect width="6.564" height="22.817" x="22.816" y="47.805" fill="#F7A501" rx="3.282" transform="rotate(-49.624 22.816 47.805)"/><rect width="6.564" height="22.817" x="38.742" y="34.505" fill="#F7A501" rx="3.282" transform="rotate(-24.127 38.742 34.505)"/><rect width="6.564" height="22.817" x="14.143" y="65.139" fill="#F7A501" rx="3.282" transform="rotate(-73.674 14.143 65.14)"/><defs><clipPath id="clip0"><path fill="#fff" d="M0 0h99.202v194.371H0z" transform="translate(48.017 65.292)"/></clipPath></defs></svg>