<svg fill="none" viewBox="0 0 611 435"><path fill="#F96132" d="M527.456.13H181.18c-45.899 0-83.107 37.209-83.107 83.107v262.401c0 45.898 37.208 83.106 83.107 83.106h346.276c45.899 0 83.107-37.208 83.107-83.106V83.237c0-45.898-37.208-83.106-83.107-83.106z"/><path fill="#F0F0F0" fill-rule="evenodd" stroke="#E6E6E6" stroke-linecap="round" stroke-linejoin="round" stroke-width="1.539" d="M78.774 63.622h158.625a14.94 14.94 0 0114.937 14.952v340.205a14.939 14.939 0 01-14.937 14.944H78.774a14.938 14.938 0 01-14.936-14.929V78.589a14.938 14.938 0 014.37-10.58 14.912 14.912 0 0110.566-4.387z" clip-rule="evenodd"/><path fill="#BEBEBE" fill-rule="evenodd" d="M139.542 407.106a17.578 17.578 0 0110.692-16.409 17.587 17.587 0 0119.24 3.663 17.579 17.579 0 013.916 19.189 17.585 17.585 0 01-16.265 10.909 17.47 17.47 0 01-17.583-17.352z" clip-rule="evenodd"/><path fill="#fff" fill-rule="evenodd" stroke="#fff" stroke-linecap="round" stroke-linejoin="round" stroke-width="1.539" d="M79.859 92.564h158.387c3.224 0 5.832 2.208 5.832 4.932v280.461c0 2.739-2.608 4.94-5.832 4.94H79.859c-3.217 0-5.833-2.208-5.833-4.94V97.496c.015-2.724 2.632-4.932 5.833-4.932z" clip-rule="evenodd"/><path fill="#BEBEBE" fill-rule="evenodd" stroke="#C8C8C8" stroke-linecap="round" stroke-linejoin="round" stroke-width=".077" d="M78.805 92.17h160.718c.67.002 1.332.138 1.947.4a5.063 5.063 0 013.078 4.741v31.673H73.718V97.311c-.005-.67.12-1.333.37-1.955a5.217 5.217 0 011.085-1.662c.47-.478 1.03-.86 1.647-1.123a4.97 4.97 0 011.985-.4z" clip-rule="evenodd"/><path fill="#BEBEBE" fill-rule="evenodd" stroke="#BEBEBE" stroke-linecap="round" stroke-linejoin="round" stroke-width="1.539" d="M143.504 77.65h36.621a2.31 2.31 0 01.916.185 2.48 2.48 0 011.292 1.293c.117.294.177.607.178.923a2.405 2.405 0 01-1.481 2.225 2.398 2.398 0 01-.92.184h-36.621a2.413 2.413 0 01-2.003-1.072 2.4 2.4 0 01-.393-1.102c-.039-.395.02-.792.172-1.158a2.445 2.445 0 011.301-1.3c.297-.122.617-.183.938-.178zm-16.098 2.786a2.517 2.517 0 012.649-2.544 2.544 2.544 0 011.912 1.02 2.536 2.536 0 01-.939 3.806 2.538 2.538 0 01-1.082.25 2.539 2.539 0 01-2.309-1.54 2.47 2.47 0 01-.231-.992z" clip-rule="evenodd"/><path fill="#fff" fill-rule="evenodd" stroke="#fff" stroke-linecap="round" stroke-linejoin="round" stroke-width=".077" d="M100.805 104.906H212.86c.082 0 .163.015.238.046a.777.777 0 01.208.131c.12.118.19.278.192.446v10.973a.595.595 0 01-.053.239.623.623 0 01-.139.208.803.803 0 01-.208.131.642.642 0 01-.238.046H100.805a.63.63 0 01-.447-.177.925.925 0 01-.146-.2.672.672 0 01-.046-.247v-10.973c0-.084.015-.167.046-.246a.64.64 0 01.146-.2.512.512 0 01.2-.131.672.672 0 01.247-.046zm-23.609-9.75a.77.77 0 01.485-.723.77.77 0 011.062.57.77.77 0 010 .446.77.77 0 01-.292.354.769.769 0 01-.985-.1.77.77 0 01-.27-.546zm2.194-.015a.769.769 0 01.115-.446.77.77 0 01.346-.292.77.77 0 01.454-.054.83.83 0 01.408.207.77.77 0 01.216.4.708.708 0 01-.039.454.808.808 0 01-.284.355.77.77 0 01-.985-.085.77.77 0 01-.231-.539zm2.054 0a.769.769 0 01.115-.446.77.77 0 01.347-.292.77.77 0 01.454-.054.77.77 0 01.407.207c.11.111.187.25.224.4a.77.77 0 01-.046.454.716.716 0 01-.285.355.77.77 0 01-.985-.085.77.77 0 01-.231-.539zm2.1.008a.769.769 0 01.124-.439.769.769 0 01.346-.3.77.77 0 01.454-.046.77.77 0 01.577 1.062.715.715 0 01-.284.354.815.815 0 01-.44.13.77.77 0 01-.545-.222.77.77 0 01-.231-.54zm2.155.069a.77.77 0 01.116-.446.77.77 0 01.346-.293.717.717 0 01.454-.054.77.77 0 01.623.608.77.77 0 01-.761.94.77.77 0 01-.547-.216.77.77 0 01-.23-.539z" clip-rule="evenodd"/><path fill="#fff" fill-rule="evenodd" d="M89.893 94.88h-.33v.538h.33a.338.338 0 00.193-.061.267.267 0 00.054-.093.206.206 0 000-.1.261.261 0 000-.108.2.2 0 00-.054-.084.293.293 0 00-.193-.093zm0 .769h-.353v.6h-.355v-1.685h.77a.577.577 0 01.392.13.636.636 0 01.116.178.521.521 0 010 .215.59.59 0 010 .231.63.63 0 01-.123.192.7.7 0 01-.424.162l-.023-.023zm.908.623v-1.685h.346v.647h.662v-.647h.347v1.685h-.347v-.77h-.662v.77h-.346zm2.863-.854a.7.7 0 00-.124-.446.4.4 0 00-.146-.108.408.408 0 00-.184-.046.37.37 0 00-.185.046.432.432 0 00-.154.108.877.877 0 00-.123.438.913.913 0 00.123.447.578.578 0 00.154.115.463.463 0 00.37 0 .539.539 0 00.145-.115.692.692 0 00.124-.439zm.092.693a.854.854 0 01-1.1 0 .9.9 0 01-.262-.693.87.87 0 01.262-.7.854.854 0 011.1 0 .9.9 0 01.208.323c.046.12.062.25.046.377a.901.901 0 01-.254.708v-.015zm.523-1.524h.37l.67 1.17v-1.17h.33v1.685h-.354l-.685-1.2v1.2h-.33v-1.685zm2.948.323h-.893v.354h.816v.293h-.816v.43h.931v.309h-1.277v-1.694h1.239v.308zm3.462 1.331a.442.442 0 01.154-.269.425.425 0 01.285-.108.454.454 0 01.446.377c0 .208-.446.393-.446.393s-.439-.162-.439-.393z" clip-rule="evenodd"/><path stroke="#fff" stroke-linecap="round" stroke-linejoin="round" stroke-width=".385" d="M99.658 95.688c.081-.328.27-.618.539-.824.265-.208.594-.317.931-.308.106.001.212.014.315.039.287.078.55.223.77.423.208.198.368.44.469.708"/><path stroke="#fff" stroke-linecap="round" stroke-linejoin="round" stroke-width=".385" d="M99.112 95.35a1.916 1.916 0 011.97-1.394c.142-.008.285.008.423.046.361.091.696.265.977.508.277.251.492.562.631.908"/><path stroke="#fff" stroke-linecap="round" stroke-linejoin="round" stroke-width=".385" d="M100.174 96.057a1.04 1.04 0 01.354-.562c.179-.138.397-.216.623-.223.233.013.454.102.631.254.175.154.295.363.339.592"/><path fill="#F0F0F0" fill-rule="evenodd" d="M153.731 94.91v-.261c.095.008.19.008.285 0a.371.371 0 00.3-.27.18.18 0 000-.092h.37v2.216h-.447v-1.539l-.508-.054zm1.709 1.07a1.23 1.23 0 01.438-.47 2.85 2.85 0 00.393-.308.494.494 0 00.154-.292.367.367 0 00-.077-.238.417.417 0 00-.123-.077.287.287 0 00-.139 0 .383.383 0 00-.131.046.26.26 0 00-.1.1.73.73 0 00-.054.277h-.423c.002-.16.036-.316.1-.462a.67.67 0 01.624-.33.814.814 0 01.561.192.658.658 0 01.154.238.713.713 0 01-.1.716 1.253 1.253 0 01-.315.284l-.17.124-.223.169a.366.366 0 00-.1.115h.962v.393h-1.539a1.08 1.08 0 01.108-.477zm1.908-1.162h.462v.454h-.462v-.454zm0 1.146h.462v.454h-.462v-.454zm1.547.154a.238.238 0 00.161-.053.256.256 0 00.093-.147 3.069 3.069 0 000-1.177.248.248 0 00-.093-.139.267.267 0 00-.323 0 .214.214 0 00-.092.139 2.75 2.75 0 000 1.177c.004.03.015.058.031.083a.2.2 0 00.061.063.239.239 0 00.162.054zm.769-.77c.015.294-.046.585-.177.847a.614.614 0 01-.254.231.546.546 0 01-.331.062.592.592 0 01-.346-.062.666.666 0 01-.254-.23 2.196 2.196 0 010-1.694.666.666 0 01.254-.23.593.593 0 01.346-.062.547.547 0 01.331.062.615.615 0 01.254.23c.124.264.177.556.154.847h.023zm.97.77a.236.236 0 00.161-.054.299.299 0 00.093-.146 3.029 3.029 0 000-1.177.248.248 0 00-.093-.139.267.267 0 00-.323 0 .262.262 0 00-.1.139 3.029 3.029 0 000 1.177.299.299 0 00.093.146.276.276 0 00.169.054zm.769-.77c.016.293-.045.585-.177.847a.614.614 0 01-.254.231.56.56 0 01-.338.062.578.578 0 01-.339-.062.667.667 0 01-.254-.23 2.215 2.215 0 010-1.694.667.667 0 01.254-.23.578.578 0 01.339-.062.56.56 0 01.338.062.614.614 0 01.254.23c.124.264.177.556.154.847h.023zm2.132-.792h-.454v.662h.438a.37.37 0 00.254-.077.302.302 0 00.077-.123.27.27 0 000-.138.231.231 0 00-.077-.246.383.383 0 00-.238-.078zm0 1.047h-.493v.816h-.469v-2.255h.977a.77.77 0 01.539.177c.074.067.13.152.161.246a.623.623 0 01.046.293.695.695 0 010 .307.691.691 0 01-.169.254.839.839 0 01-.554.162h-.038zm2.678-1.44h.677v2.255h-.439v-1.9l-.423 1.885h-.454l-.438-1.885v1.885h-.462v-2.24h.685l.392 1.77.462-1.77z" clip-rule="evenodd"/><path fill="#fff" fill-rule="evenodd" stroke="#fff" stroke-linecap="round" stroke-linejoin="round" stroke-width=".77" d="M234.068 94.995h6.51a.551.551 0 01.392.2.561.561 0 01.138.423v1.6a.59.59 0 01-.53.624h-6.51a.576.576 0 01-.393-.208.573.573 0 01-.138-.415v-.431h-.77v-.77h.77v-.384a.598.598 0 01.138-.424.556.556 0 01.393-.215z" clip-rule="evenodd"/><path fill="#BEBEBE" fill-rule="evenodd" d="M236.115 95.272h4.132a.62.62 0 01.438.185.63.63 0 01.185.438v1.216a.629.629 0 01-.623.623h-4.132a.622.622 0 01-.624-.623v-1.216a.625.625 0 01.177-.438.647.647 0 01.447-.185z" clip-rule="evenodd"/><path fill="#fff" fill-rule="evenodd" d="M228.997 96.75h.061a.2.2 0 00.093-.093.323.323 0 000-.139.211.211 0 000-.061h-.231a.211.211 0 000 .061.295.295 0 000 .139c.019.04.052.073.092.092h-.015zm-.216-.44a.26.26 0 01-.131-.23.29.29 0 01.024-.116.352.352 0 01.061-.092.463.463 0 01.262-.085.378.378 0 01.254.085.27.27 0 01.069.092.305.305 0 010 .231.246.246 0 01-.108.108.31.31 0 01.123.123c.031.051.047.11.046.17a.242.242 0 010 .13.329.329 0 01-.077.108.315.315 0 01-.13.077.586.586 0 01-.162 0 .38.38 0 01-.277-.1.341.341 0 01-.092-.239c0-.058.014-.116.038-.169a.276.276 0 01.1-.092zm.216-.069a.13.13 0 00.13-.084.143.143 0 00.008-.054.122.122 0 000-.054v-.046c0-.008 0 0-.046 0h-.054a.186.186 0 00-.108.038.178.178 0 000 .2.187.187 0 00.07 0zm.892.508h.084a.106.106 0 00.039-.077 1.406 1.406 0 00-.011-.627.106.106 0 00-.028-.034.173.173 0 00-.084 0 .116.116 0 00-.085 0 .116.116 0 00-.046.069.897.897 0 000 .292 1.192 1.192 0 000 .293c.008.03.024.056.046.077.027.01.056.013.085.007zm.385-.384a.716.716 0 01-.085.415.316.316 0 01-.123.123.33.33 0 01-.169 0 .396.396 0 01-.17 0 .34.34 0 01-.131-.123.864.864 0 01-.084-.415.895.895 0 01.084-.424.273.273 0 01.131-.115.325.325 0 01.17 0 .437.437 0 01.169 0 .316.316 0 01.123.123.844.844 0 01.061.416h.024z" clip-rule="evenodd"/><path fill="#fff" d="M230.52 96.365a.246.246 0 00.108 0l.015.03a.275.275 0 00.154-.046.302.302 0 00.108-.13.296.296 0 000-.162.274.274 0 00-.077-.146.192.192 0 00-.092-.062.264.264 0 00-.216 0 .192.192 0 00-.092.062.265.265 0 00-.077.192.25.25 0 00.018.108.263.263 0 00.059.092c.024.03.056.05.092.062z"/><path stroke="#454545" stroke-linecap="round" stroke-linejoin="round" stroke-width=".77" d="M92.202 111.724l-7.48-.154 2.824 2.709-2.824-2.701 2.563-2.57"/><path fill="#BEBEBE" fill-rule="evenodd" stroke="#454545" stroke-linecap="round" stroke-linejoin="round" stroke-width=".77" d="M220.409 106.83h5.432a1.793 1.793 0 011.678 1.877v5.233a1.795 1.795 0 01-1.678 1.878h-5.432a1.775 1.775 0 01-1.67-1.878v-5.233a1.747 1.747 0 01.446-1.285 1.785 1.785 0 011.224-.592z" clip-rule="evenodd"/><path fill="#454545" fill-rule="evenodd" d="M221.617 112.617c.217-.41.538-.755.931-1.001.292-.196.569-.411.831-.646a.984.984 0 00.285-.677.77.77 0 00-.162-.5.893.893 0 00-.254-.162.66.66 0 00-.3 0 .7.7 0 00-.5.308 1.663 1.663 0 00-.1.585h-.9c.001-.338.075-.671.215-.978.129-.231.321-.42.554-.546.234-.131.503-.185.77-.154.428-.022.848.124 1.169.408.145.143.26.313.339.5.075.191.109.395.1.6.006.337-.102.665-.308.931a3.08 3.08 0 01-.67.593l-.392.262a7.524 7.524 0 00-.469.361 1.154 1.154 0 00-.224.254h2.055v.816h-3.216c.007-.333.091-.66.246-.954zm12.958-4.81a.931.931 0 01.139-.508.908.908 0 01.4-.338.873.873 0 01.993.177.887.887 0 01.254.461.903.903 0 01-.885 1.085.878.878 0 01-.631-.246.925.925 0 01-.27-.631zm.046 2.878a.871.871 0 01.139-.508.946.946 0 01.4-.338.919.919 0 01.985.185.88.88 0 01.254.461.948.948 0 01-.054.524.862.862 0 01-.323.4.917.917 0 01-1.138-.098.884.884 0 01-.263-.626zm.077 2.94a.894.894 0 01.146-.5.905.905 0 01.393-.347.877.877 0 01.523-.054c.177.032.34.115.47.239a.921.921 0 01.2.985.962.962 0 01-.331.408.888.888 0 01-.5.146.84.84 0 01-.631-.254.89.89 0 01-.27-.623z" clip-rule="evenodd"/><path fill="#fff" fill-rule="evenodd" stroke="#35416B" stroke-linecap="round" stroke-linejoin="round" stroke-width="1.924" d="M93.472 144.443H219.67c2.817 0 5.102 3.078 5.102 6.864v171.384c0 3.786-2.309 6.864-5.102 6.864H93.472c-2.817 0-5.095-3.078-5.095-6.864V151.307c0-3.793 2.278-6.864 5.095-6.864z" clip-rule="evenodd"/><path fill="#35416B" fill-rule="evenodd" d="M97.912 155.439h.938l1.716 3.017v-3.017h.839v4.317h-.892l-1.763-3.078v3.078h-.838v-4.317zm6.025 2.747l-.162.077-.223.062h-.185a1.55 1.55 0 00-.377.115.407.407 0 00-.146.154.435.435 0 00-.046.2.307.307 0 000 .17.439.439 0 00.092.138.445.445 0 00.292.1.824.824 0 00.493-.161.721.721 0 00.192-.262.772.772 0 00.047-.316l.023-.277zm-.508-.4c.113-.014.223-.039.331-.077a.293.293 0 00.13-.092.234.234 0 00.047-.146.215.215 0 000-.154.257.257 0 00-.1-.116.92.92 0 00-.401-.077.705.705 0 00-.215 0 .789.789 0 00-.185.116.595.595 0 00-.115.3h-.77c.008-.25.091-.491.239-.693a1.304 1.304 0 011.131-.4c.323-.008.643.063.931.208a.806.806 0 01.323.339.841.841 0 01.077.461v1.832a.452.452 0 00.046.223.402.402 0 00.124.1v.123h-.908c0-.061 0-.123-.054-.185a.88.88 0 000-.192c-.115.124-.247.23-.393.316a1.25 1.25 0 01-.615.161 1.025 1.025 0 01-.716-.254.82.82 0 01-.215-.315.923.923 0 01-.062-.385.881.881 0 01.108-.485.86.86 0 01.346-.361 1.99 1.99 0 01.77-.208l.146-.039zm6.418-.946a.9.9 0 01.184.4c.012.159.012.318 0 .477v2.001h-.846v-2.032a.757.757 0 00-.062-.3.403.403 0 00-.4-.223.461.461 0 00-.285.069.44.44 0 00-.192.216.99.99 0 00-.069.369v1.901h-.831v-1.886a1.029 1.029 0 00-.062-.4.45.45 0 00-.161-.177.443.443 0 00-.239-.054.56.56 0 00-.277.047.513.513 0 00-.2.184.903.903 0 00-.069.4v1.924h-.847v-3.201h.77v.469a1.46 1.46 0 01.292-.354c.181-.132.4-.199.623-.192.21-.006.416.05.593.162a.955.955 0 01.277.4c.097-.166.234-.304.4-.4.178-.086.372-.131.57-.131.136.009.271.037.4.084.162.045.31.13.431.247zm1.585.977h1.3a.766.766 0 00-.208-.5.593.593 0 00-.2-.131.862.862 0 00-.238 0 .542.542 0 00-.247 0 .619.619 0 00-.207.139.919.919 0 00-.2.492zm1.893-.769c.128.2.212.426.246.661a4.43 4.43 0 010 .631h-2.178a.92.92 0 00.062.378.776.776 0 00.238.292.612.612 0 00.393.123.587.587 0 00.554-.362h.854a1.079 1.079 0 01-.3.578 1.407 1.407 0 01-1.139.461 1.58 1.58 0 01-1.077-.4 1.531 1.531 0 01-.37-.585 1.537 1.537 0 01-.092-.692 1.799 1.799 0 01.4-1.27 1.413 1.413 0 011.085-.439c.247-.006.491.044.716.147.253.097.467.275.608.507v-.03zm-15.598 17.868h.885v1.777l1.662-1.777h1.162l-1.762 1.777 1.854 2.539h-1.154l-1.331-1.885-.431.439v1.446h-.885v-4.316zm4.809 2.401h1.293a.723.723 0 00-.2-.501.635.635 0 00-.446-.169.489.489 0 00-.239.039.494.494 0 00-.208.138.908.908 0 00-.2.493zm1.893-.77c.126.201.207.427.239.662a3.5 3.5 0 010 .631h-2.193a.766.766 0 00.069.377.87.87 0 00.231.3.717.717 0 00.4.115.598.598 0 00.4-.146.767.767 0 00.154-.223h.846a1.013 1.013 0 01-.292.577c-.145.16-.324.286-.523.37a1.43 1.43 0 01-.624.1 1.541 1.541 0 01-1.069-.401 1.465 1.465 0 01-.377-.584 1.544 1.544 0 01-.093-.693 1.772 1.772 0 01.478-1.262c.141-.146.312-.261.5-.339.188-.076.39-.11.592-.1.247-.006.491.044.716.147.228.108.418.282.546.5v-.031zm.993 3.301h.338a.444.444 0 00.193-.069.457.457 0 00.131-.208.342.342 0 00.053-.192l-1.169-3.34h.931l.692 2.355.654-2.355h.885l-1.092 3.163a4.634 4.634 0 01-.501 1.131 1.007 1.007 0 01-.346.185c-.13.022-.262.022-.392 0h-.377v-.67zm-7.449 23.555h3.078v.769h-2.154v.993h1.893v.769h-1.893v1.816h-.893l-.03-4.347zm4.194 2.4h1.292a.634.634 0 00-.407-.638.484.484 0 00-.239 0 .538.538 0 00-.246 0 .525.525 0 00-.2.138.92.92 0 00-.2.5zm1.885-.769c.132.198.217.425.246.662.02.21.02.421 0 .631h-2.177a.755.755 0 00.069.377.88.88 0 00.231.3c.12.074.258.114.4.115a.623.623 0 00.4-.146.862.862 0 00.154-.215h.854a1.033 1.033 0 01-.3.569 1.416 1.416 0 01-1.147.469 1.479 1.479 0 01-1.154-.484 1.554 1.554 0 01-.323-.554 1.625 1.625 0 01-.062-.639c-.033-.459.11-.913.4-1.27a1.48 1.48 0 011.093-.446 1.64 1.64 0 01.716.154c.232.096.429.263.562.477h.038zm2.593 1.123a.751.751 0 01-.161.085l-.223.062h-.185a1.193 1.193 0 00-.4.115.48.48 0 00-.185.285.463.463 0 00.077.331v.046a.462.462 0 00.293.1.854.854 0 00.492-.162.638.638 0 00.192-.261.775.775 0 00.047-.316l.053-.285zm-.507-.4c.113-.008.224-.031.33-.069a.239.239 0 00.124-.092.245.245 0 00.053-.147.33.33 0 000-.153.22.22 0 00-.107-.116.768.768 0 00-.4-.077.524.524 0 00-.216 0 .595.595 0 00-.185.116.606.606 0 00-.115.292h-.769c.009-.247.092-.486.238-.685.14-.157.317-.276.516-.346.195-.076.407-.102.615-.077.323-.005.641.067.931.208a.77.77 0 01.316.338.78.78 0 01.085.462v1.839a.378.378 0 00.046.223.374.374 0 00.123.093v.123h-.908a1.004 1.004 0 01-.054-.185v-.192c-.114.13-.249.239-.4.323-.185.1-.391.153-.6.154a1.025 1.025 0 01-.716-.254.847.847 0 01-.223-.316.948.948 0 01-.062-.384.89.89 0 01.108-.485.869.869 0 01.346-.362c.241-.119.502-.19.77-.208l.154-.023zm1.746-.615v-.593h.447v-.893h.823v.893h.531v.593h-.516v1.693a.4.4 0 00.054.246.642.642 0 00.3.046h.162v.639h-.416a.968.968 0 01-.415 0 1.08 1.08 0 01-.377-.185.618.618 0 01-.139-.439v-1.97l-.454-.03zm3.147-.624v1.924c0 .137.023.272.07.4a.376.376 0 00.184.193.45.45 0 00.262.054.581.581 0 00.585-.347c.06-.159.086-.33.077-.5v-1.731h.846v3.201h-.769v-.454a.218.218 0 00-.062.085.612.612 0 01-.108.13 1.165 1.165 0 01-.4.239 1.37 1.37 0 01-.431.069.996.996 0 01-.554-.108.913.913 0 01-.392-.407 1.91 1.91 0 01-.146-.831v-1.924l.838.007zm4.671-.069v.854h-.238a.781.781 0 00-.385.062.702.702 0 00-.292.269c-.076.18-.111.375-.1.57v1.539h-.801v-3.201h.77v.561c.093-.16.206-.308.338-.438a.912.912 0 01.608-.2l.1-.016zm1.093 1.354h1.293a.774.774 0 00-.193-.508.784.784 0 00-.207-.13.542.542 0 00-.247 0 .504.504 0 00-.238 0 .606.606 0 00-.208.138.918.918 0 00-.2.5zm1.893-.769c.129.199.211.426.238.662.02.209.02.421 0 .631h-2.185a.778.778 0 00.308.677.717.717 0 00.4.115.565.565 0 00.392-.146.684.684 0 00.154-.215h.854a1.072 1.072 0 01-.292.569 1.405 1.405 0 01-1.154.469 1.416 1.416 0 01-.623-.115 1.412 1.412 0 01-.524-.369 1.448 1.448 0 01-.323-.554 1.4 1.4 0 01-.062-.639 1.765 1.765 0 01.401-1.27 1.426 1.426 0 011.085-.446c.249-.003.496.05.723.154.251.096.465.272.608.5v-.023zm4.517-1.639h.839v4.325h-.824l-.015-4.325zm-.508 0v.677h-.246c-.131 0-.208.039-.239.108a1.01 1.01 0 000 .338v.062h.547v.585h-.547v2.578h-.831v-2.578h-.485v-.585h.454v-.208c-.024-.275.056-.55.224-.769a.992.992 0 01.384-.208c.145-.031.294-.031.439 0h.3zm3.894 2.762a.524.524 0 01-.162.085l-.223.062h-.177a1.122 1.122 0 00-.4.115.446.446 0 00-.185.285.466.466 0 00.07.331l.038.046c.08.066.181.102.285.1a.897.897 0 00.5-.162.628.628 0 00.185-.261.647.647 0 00.054-.316l.015-.285zm-.508-.4c.113-.007.224-.031.331-.069a.242.242 0 00.177-.239.264.264 0 00-.131-.269.823.823 0 00-.4-.077.52.52 0 00-.215 0 .567.567 0 00-.185.116.603.603 0 00-.123.292h-.77c.006-.246.087-.485.231-.685.142-.154.319-.273.516-.346a1.29 1.29 0 01.615-.077c.323-.005.642.066.931.208a.767.767 0 01.324.338.777.777 0 01.076.462v1.839a.442.442 0 00.047.223.449.449 0 00.123.093v.123h-.901a.784.784 0 01-.053-.185.771.771 0 010-.192 1.646 1.646 0 01-.401.323 1.273 1.273 0 01-.607.154 1.025 1.025 0 01-.716-.254.883.883 0 01-.277-.701.894.894 0 01.454-.846c.239-.121.501-.192.769-.208l.185-.023zm4.14.347a1.106 1.106 0 00-.185-.693.638.638 0 00-.515-.231.62.62 0 00-.37.093.663.663 0 00-.238.307 1.417 1.417 0 00-.085.539c-.004.169.027.337.093.492a.615.615 0 00.607.401.534.534 0 00.27-.047.53.53 0 00.231-.153.981.981 0 00.192-.708zm-.485-1.601c.214.095.388.261.493.469v-.461H131v3.032c.018.321-.054.64-.208.923a1.541 1.541 0 01-1.369.546 1.8 1.8 0 01-.993-.246.821.821 0 01-.308-.3.872.872 0 01-.123-.416h.908a.385.385 0 00.108.208.77.77 0 00.462.123.636.636 0 00.6-.3 1.73 1.73 0 00.1-.654v-.215a1.138 1.138 0 01-.262.308 1.012 1.012 0 01-.646.184 1.279 1.279 0 01-.539-.1 1.229 1.229 0 01-.438-.331 1.726 1.726 0 01-.37-1.169 2.094 2.094 0 01.354-1.201 1.24 1.24 0 011.431-.4h.031zm4.594-.362h-.839v-.769h.839v.769zm-.839.377h.839v3.202h-.839v-3.202zm2.301 2.178a.476.476 0 00.116.316.616.616 0 00.261.138.84.84 0 00.308 0 .915.915 0 00.4-.077.25.25 0 00.1-.085.215.215 0 000-.123.217.217 0 00-.021-.13.222.222 0 00-.094-.093 4.474 4.474 0 00-.885-.261 1.841 1.841 0 01-.77-.339.836.836 0 01-.177-.262.784.784 0 01-.046-.315.879.879 0 01.085-.416c.062-.132.151-.25.262-.346.274-.225.623-.338.977-.315.339-.014.675.069.969.238a.922.922 0 01.308.362c.076.142.118.3.123.461h-.838a.435.435 0 00-.085-.253.626.626 0 00-.216-.139.569.569 0 00-.253 0 .662.662 0 00-.401.085.418.418 0 00-.084.084.562.562 0 000 .116.233.233 0 000 .123.34.34 0 00.092.085c.283.1.574.177.87.23.282.051.547.172.769.354.077.081.14.175.185.277a.779.779 0 01.054.324.967.967 0 01-.347.769 2.05 2.05 0 01-1.1.3 2.116 2.116 0 01-1.1-.315 1.045 1.045 0 01-.27-.362.962.962 0 01-.084-.439l.892.008zm6.095-.539a.535.535 0 01-.162.085l-.223.062h-.185a1.114 1.114 0 00-.377.115.432.432 0 00-.177.285.415.415 0 00.069.331v.046a.451.451 0 00.293.1.897.897 0 00.5-.162.708.708 0 00.185-.261.774.774 0 00.046-.316l.031-.285zm-.508-.4c.113-.007.224-.031.331-.069a.23.23 0 00.13-.092.243.243 0 00.047-.147.262.262 0 00-.131-.269.825.825 0 00-.4-.077.524.524 0 00-.216 0 .578.578 0 00-.185.116.623.623 0 00-.123.292h-.769c.006-.246.086-.485.231-.685.142-.154.318-.273.515-.346.196-.075.407-.102.616-.077.322-.005.641.067.931.208a.763.763 0 01.315.338.765.765 0 01.085.462v1.839a.378.378 0 00.046.223.374.374 0 00.123.093v.123h-.908a1.455 1.455 0 01-.054-.185v-.192c-.113.13-.248.239-.4.323-.184.1-.39.153-.6.154a1.025 1.025 0 01-.715-.254.85.85 0 01-.285-.701.88.88 0 01.108-.484.863.863 0 01.346-.362c.228-.114.476-.185.731-.208l.231-.023zm3.978-.092a.808.808 0 00-.115-.323.547.547 0 00-.439-.193.59.59 0 00-.354.108.563.563 0 00-.223.292 1.73 1.73 0 00-.077.593 1.59 1.59 0 00.077.569c.039.12.114.225.215.301a.565.565 0 00.354.1.524.524 0 00.216 0 .498.498 0 00.177-.124.817.817 0 00.154-.4h.846a1.394 1.394 0 01-.277.724 1.445 1.445 0 01-.508.423 1.362 1.362 0 01-.654.123 1.403 1.403 0 01-.615-.092 1.412 1.412 0 01-.508-.37 1.81 1.81 0 01-.37-1.192 1.935 1.935 0 01.4-1.286c.14-.152.311-.273.501-.353.189-.079.395-.113.6-.101.348-.016.693.078.985.27.139.115.252.26.331.423.074.165.116.343.123.523l-.839-.015zm1.1-.523v-.593h.447v-.893h.839v.893h.515v.593h-.515v1.693a.456.456 0 00.046.246.703.703 0 00.308.046h.161v.639h-.4a.973.973 0 01-.416 0 1.197 1.197 0 01-.384-.185.656.656 0 01-.139-.439v-1.97l-.462-.03zm3.179-1.001h-.862v-.769h.846l.016.769zm-.847.377h.847v3.202h-.862l.015-3.202zm3.617.001h.892l-1.146 3.201h-.885l-1.139-3.201h.931l.67 2.362.677-2.362zm1.954 1.284h1.293a.634.634 0 00-.408-.638.48.48 0 00-.238 0 .538.538 0 00-.246 0 .528.528 0 00-.201.138.936.936 0 00-.2.5zm1.893-.769c.126.201.207.427.239.662a3.5 3.5 0 010 .631h-2.162a.766.766 0 00.069.377.88.88 0 00.231.3.717.717 0 00.4.115.598.598 0 00.4-.146.862.862 0 00.154-.215h.846a1.012 1.012 0 01-.292.569 1.416 1.416 0 01-1.147.469 1.536 1.536 0 01-1.069-.4 1.462 1.462 0 01-.377-.585 1.538 1.538 0 01-.093-.692 1.768 1.768 0 01.4-1.27c.141-.147.311-.263.501-.338a1.38 1.38 0 01.585-.108c.249-.003.496.049.723.154.238.094.44.261.577.477h.015zm-57.09 25.355v1.162h1.016c.155.009.31-.015.454-.069a.492.492 0 00.216-.2.489.489 0 00.054-.293.51.51 0 00-.047-.3.57.57 0 00-.207-.223.979.979 0 00-.447-.077h-1.038zm2.309-.339c.093.108.169.231.223.362a1.269 1.269 0 01-.069 1.062.906.906 0 01-.516.423.77.77 0 01.424.339c.097.212.14.445.123.677v.3a3.336 3.336 0 000 .4c.01.052.028.101.054.147.03.039.066.072.107.1v.115h-.985c0-.1-.046-.177-.061-.231a2.964 2.964 0 010-.377v-.4a.769.769 0 00-.154-.546.767.767 0 00-.539-.139h-.93v1.693h-.878v-4.317h2.108c.238-.007.476.03.701.108.163.071.308.179.423.315l-.031-.031zm3.232 2.34a1.204 1.204 0 00-.208-.77.834.834 0 00-.223-.177.722.722 0 00-.815.1.417.417 0 00-.085.077 1.545 1.545 0 000 1.485.81.81 0 00.223.177.772.772 0 00.57.047.732.732 0 00.33-.224c.142-.211.214-.461.208-.715zm-.769 1.7a1.451 1.451 0 01-1.224-.492 1.999 1.999 0 010-2.401 1.735 1.735 0 011.224-.508c.458.003.897.185 1.223.508a2 2 0 010 2.401 1.64 1.64 0 01-.554.392 1.53 1.53 0 01-.654.077l-.015.023zm3.085-.161h-.831v-4.317h.831v4.317zm1.663 0h-.831v-4.317h.831v4.317zm4.663-1.539a1.194 1.194 0 00-.2-.77.646.646 0 00-.554-.261.777.777 0 00-.316.061.738.738 0 00-.254.2 1.464 1.464 0 000 1.478.58.58 0 00.254.2.65.65 0 00.316.061.62.62 0 00.308-.061c.1-.04.186-.11.246-.2.139-.209.209-.457.2-.708zm-.77 1.7a1.536 1.536 0 01-.677-.1 1.65 1.65 0 01-.554-.392 2.032 2.032 0 010-2.401 1.738 1.738 0 012.455 0 1.997 1.997 0 010 2.401 1.65 1.65 0 01-.554.392 1.53 1.53 0 01-.654.077l-.016.023zm3.071-3.324v1.924c-.006.136.014.272.061.4.043.08.107.146.185.192a.43.43 0 00.261.047.584.584 0 00.585-.347c.063-.156.092-.324.085-.492v-1.739h.839v3.178h-.77v-.454l-.054.092a.435.435 0 01-.115.123 1.202 1.202 0 01-.4.247c-.138.04-.28.06-.424.061a.922.922 0 01-.554-.108.915.915 0 01-.4-.4 1.919 1.919 0 01-.138-.831v-1.924l.839.031zm2.493.623v-.538h.446v-.893h.823v.893h.516v.592h-.516v1.693a.454.454 0 00.046.246.69.69 0 00.308.046h.162v.624h-.4a.942.942 0 01-.801-.185.638.638 0 01-.138-.439v-1.969l-.446-.07zm5.471-1.777v.685h-.231a.318.318 0 00-.123 0l-.108.061a.3.3 0 00-.062.177v.316h.562v.592h-.531v2.578h-.831v-2.578h-.469v-.592h.454v-.208a1.071 1.071 0 01.177-.7c.123-.193.408-.293.869-.293l.293-.038zm1.116 2.431h1.316a.776.776 0 00-.208-.5.484.484 0 00-.2-.131.651.651 0 00-.239-.046.531.531 0 00-.246.039.595.595 0 00-.208.146.886.886 0 00-.215.492zm1.885-.769c.127.201.211.426.246.662.016.21.016.42 0 .631h-2.177a.766.766 0 00.069.377.78.78 0 00.231.3.728.728 0 00.4.123.6.6 0 00.554-.37h.877a1.04 1.04 0 01-.292.578 1.556 1.556 0 01-.524.361 1.43 1.43 0 01-.623.108 1.45 1.45 0 01-1.446-.993 1.564 1.564 0 01-.085-.685c-.04-.46.101-.918.392-1.277a1.419 1.419 0 011.093-.439c.246-.006.491.044.716.147.234.107.432.281.569.5v-.023zm2.586 1.116a.532.532 0 01-.162.084.945.945 0 01-.215.062h-.185a1.08 1.08 0 00-.377.115.362.362 0 00-.146.154.363.363 0 00-.054.2.406.406 0 000 .17.277.277 0 00.092.138.443.443 0 00.285.1.904.904 0 00.5-.161.711.711 0 00.185-.262.771.771 0 00.046-.316l.031-.284zm-.508-.4c.113-.008.224-.031.331-.07a.235.235 0 00.131-.092.244.244 0 00.053-.146.334.334 0 000-.154.314.314 0 00-.107-.116.769.769 0 00-.4-.076.524.524 0 00-.216 0 .575.575 0 00-.185.115.686.686 0 00-.115.292h-.77c.003-.247.084-.487.231-.684.145-.152.321-.27.516-.347.196-.075.407-.101.615-.077.323-.005.642.066.932.208.14.077.253.195.323.339.073.142.1.303.077.461v1.832a.446.446 0 00.054.223.387.387 0 00.123.1v.123h-.908a1.455 1.455 0 01-.054-.185.771.771 0 000-.192c-.118.124-.252.23-.4.315a1.204 1.204 0 01-.608.162 1.06 1.06 0 01-.716-.254.883.883 0 01-.277-.7.927.927 0 01.1-.493.982.982 0 01.346-.361 1.88 1.88 0 01.77-.2l.154-.023zm1.739-.601v-.538h.438v-.893h.831v.893h.516v.592h-.516v1.693a.397.397 0 00.046.246.678.678 0 00.308.046h.162v.624h-.4a1.078 1.078 0 01-.416 0 .98.98 0 01-.377-.193.514.514 0 01-.115-.2.504.504 0 010-.238v-1.97l-.477-.062zm3.162-.623v1.924c-.003.137.021.272.07.4a.433.433 0 00.446.239.55.55 0 00.346-.077.569.569 0 00.231-.27c.067-.155.096-.324.085-.492v-1.739h.846v3.178h-.769v-.454l-.062.092a.552.552 0 01-.108.123 1.182 1.182 0 01-.4.247 1.65 1.65 0 01-.431.061.946.946 0 01-.946-.508 1.92 1.92 0 01-.139-.831v-1.924l.831.031zm4.663-.069v.854h-.246a.761.761 0 00-.385.062.708.708 0 00-.292.269 1.181 1.181 0 00-.092.569v1.539h-.831v-3.216h.769v.562c.089-.164.203-.312.339-.439a.909.909 0 01.608-.2h.13zm1.101 1.346h1.293a.712.712 0 00-.2-.5.512.512 0 00-.208-.131.613.613 0 00-.239-.046.573.573 0 00-.246.039.63.63 0 00-.2.146.893.893 0 00-.2.492zm1.893-.769c.124.202.205.427.238.662.016.21.016.421 0 .631h-2.177a.766.766 0 00.069.377c.051.117.13.221.231.3.119.077.258.12.4.123a.606.606 0 00.423-.146.78.78 0 00.154-.223h.847a.96.96 0 01-.262.592 1.379 1.379 0 01-1.139.47 1.621 1.621 0 01-1.077-.401 1.535 1.535 0 01-.37-.584 1.544 1.544 0 01-.092-.693 1.779 1.779 0 01.4-1.27 1.41 1.41 0 01.5-.338c.185-.078.385-.115.585-.108a1.64 1.64 0 01.716.154c.227.101.42.267.554.477v-.023zm2.162.115v-.538h.446v-.893h.808v.893h.516v.592h-.516v1.693a.391.391 0 00.047.246.685.685 0 00.307.046h.162v.624h-.4c-.14.03-.284.03-.423 0a.95.95 0 01-.377-.185.634.634 0 01-.139-.439v-1.969l-.431-.07zm4.502 1.001a1.136 1.136 0 00-.193-.77.622.622 0 00-.223-.177.768.768 0 00-.277-.084.742.742 0 00-.292.038.695.695 0 00-.247.139l-.084.084a1.541 1.541 0 000 1.478.776.776 0 00.223.184.86.86 0 00.277.077c.094.02.191.02.285 0a.768.768 0 00.338-.231c.147-.216.215-.477.193-.738zm-.77 1.7a1.527 1.527 0 01-.669-.1 1.64 1.64 0 01-.554-.392 2.002 2.002 0 010-2.401 1.737 1.737 0 012.454 0 2.032 2.032 0 010 2.401 1.533 1.533 0 01-.546.385 1.464 1.464 0 01-.654.107h-.031zm5.387-2.67a.586.586 0 00-.385.116.593.593 0 00-.239.323 1.613 1.613 0 00-.084.577.86.86 0 00.054.423.767.767 0 00.238.354.694.694 0 00.716.069.636.636 0 00.231-.2 1.428 1.428 0 000-1.377.559.559 0 00-.231-.208.584.584 0 00-.3-.077zm1.539.901a1.93 1.93 0 01-.377 1.285 1.174 1.174 0 01-.439.331 1.315 1.315 0 01-.539.115 1.101 1.101 0 01-.631-.192 1.263 1.263 0 01-.261-.308v1.662h-.831v-4.448h.769v.47a1.64 1.64 0 01.285-.331 1.07 1.07 0 01.662-.208 1.269 1.269 0 01.946.4 1.67 1.67 0 01.393 1.224h.023zm1.246-.278h1.285a.77.77 0 00-.192-.5.505.505 0 00-.208-.131.671.671 0 00-.484 0 .623.623 0 00-.208.139.89.89 0 00-.193.492zm1.886-.769c.127.2.209.426.238.662a3.5 3.5 0 010 .631h-2.177a.755.755 0 00.069.377c.051.117.13.221.231.3a.728.728 0 00.4.123.585.585 0 00.415-.146.871.871 0 00.154-.223h.854c-.022.22-.114.427-.261.592a1.425 1.425 0 01-1.147.47 1.61 1.61 0 01-1.069-.401 1.538 1.538 0 01-.378-.584 1.773 1.773 0 01-.092-.693c-.03-.462.122-.918.423-1.27a1.443 1.443 0 011.085-.446 1.64 1.64 0 01.716.154c.222.103.409.269.539.477v-.023zm2.67-.577v.854h-.239a.761.761 0 00-.385.062.708.708 0 00-.292.269c-.074.18-.105.375-.092.569v1.539h-.839v-3.216h.769v.562c.091-.162.205-.31.339-.439a.912.912 0 01.608-.2h.131zm2.393 1.216a.772.772 0 00-.123-.324.544.544 0 00-.192-.154.536.536 0 00-.239 0 .604.604 0 00-.362.1.614.614 0 00-.215.301 1.723 1.723 0 00-.085.592c-.006.193.022.386.085.569a.564.564 0 00.554.401.558.558 0 00.223 0 .415.415 0 00.177-.123.771.771 0 00.154-.401h.846a1.426 1.426 0 01-.269.724c-.132.183-.31.329-.515.423a1.247 1.247 0 01-.647.123 1.326 1.326 0 01-.623-.092 1.31 1.31 0 01-.508-.362 1.82 1.82 0 01-.362-1.2 1.872 1.872 0 01.4-1.278c.137-.157.309-.28.501-.361.189-.079.395-.114.6-.1a1.66 1.66 0 01.985.269 1.224 1.224 0 01.446.954l-.831-.061zm2.032.131h1.292a.709.709 0 00-.2-.501.49.49 0 00-.207-.13.596.596 0 00-.239-.047.573.573 0 00-.246.039.63.63 0 00-.2.146.893.893 0 00-.2.493zm1.893-.77c.124.202.205.427.238.662.016.21.016.421 0 .631h-2.178a.767.767 0 00.07.377c.051.118.13.221.231.3.119.077.258.12.4.123a.623.623 0 00.4-.146.557.557 0 00.154-.223h.854a1.059 1.059 0 01-.3.577 1.622 1.622 0 01-.516.362 1.48 1.48 0 01-.631.107 1.453 1.453 0 01-1.446-.992 1.566 1.566 0 01-.085-.685 1.794 1.794 0 01.4-1.278c.138-.147.307-.263.494-.339.187-.076.389-.11.591-.099.247-.006.491.044.716.146.257.097.478.272.631.5l-.023-.023zm3.731.531v2.124h-.854v-1.947a1.047 1.047 0 00-.061-.4.544.544 0 00-.2-.193.484.484 0 00-.27-.046.5.5 0 00-.346.085.56.56 0 00-.238.277c-.06.155-.088.319-.085.485v1.739h-.824v-3.201h.77v.461c.084-.131.187-.248.308-.346.186-.138.414-.208.646-.2.279-.001.55.091.77.262a1.056 1.056 0 01.331.877l.053.023zm.424-.416v-.538h.438v-.893h.816v.893h.516v.592h-.516v1.693a.39.39 0 00.046.246.676.676 0 00.308.046h.162v.624h-.401a1.073 1.073 0 01-.415 0 .98.98 0 01-.377-.193.529.529 0 01-.116-.2.531.531 0 010-.238v-1.97l-.461-.062zm4.078 1.001a.822.822 0 01-.161.084l-.224.062h-.184a1.06 1.06 0 00-.377.116.343.343 0 00-.146.153.452.452 0 00-.047.2.327.327 0 000 .17.442.442 0 00.093.138.443.443 0 00.292.1.881.881 0 00.493-.161.62.62 0 00.184-.262.632.632 0 00.054-.315l.023-.285zm-.508-.4c.113-.009.224-.032.331-.07a.245.245 0 00.177-.238.253.253 0 000-.154.303.303 0 00-.107-.115.763.763 0 00-.401-.077.52.52 0 00-.215 0 .575.575 0 00-.185.115.6.6 0 00-.115.292h-.77c.009-.247.092-.485.239-.684a1.339 1.339 0 011.131-.424 2.07 2.07 0 01.931.208.773.773 0 01.316.339.769.769 0 01.084.461v1.832a.452.452 0 00.046.223.41.41 0 00.123.1v.123h-.907a1.455 1.455 0 01-.054-.185.771.771 0 000-.192 1.632 1.632 0 01-.4.316 1.203 1.203 0 01-.608.161 1.06 1.06 0 01-.716-.254.883.883 0 01-.277-.7.894.894 0 01.454-.854c.239-.123.501-.191.769-.2l.154-.023zm4.14.4a1.096 1.096 0 00-.192-.693.593.593 0 00-.515-.238.6.6 0 00-.601.4 1.593 1.593 0 00-.092.538c0 .171.031.341.092.5a.629.629 0 00.616.401.642.642 0 00.269-.062.507.507 0 00.216-.161c.15-.196.224-.439.207-.685zm-.484-1.601a.976.976 0 01.484.462v-.462h.77v3.032c.024.324-.048.648-.208.931a1.534 1.534 0 01-1.362.539 1.907 1.907 0 01-1-.239.95.95 0 01-.3-.308.838.838 0 01-.123-.407h.9a.376.376 0 00.115.207.684.684 0 00.454.116.613.613 0 00.601-.3c.08-.209.114-.432.1-.654v-.201a.97.97 0 01-.254.308 1.024 1.024 0 01-.647.185 1.183 1.183 0 01-.538-.1 1.112 1.112 0 01-.439-.331 1.73 1.73 0 01-.369-1.17 1.975 1.975 0 01.354-1.2 1.109 1.109 0 01.935-.465c.17 0 .339.035.496.103l.031-.046zm2.685 1.254h1.293a.708.708 0 00-.2-.5.505.505 0 00-.208-.131.631.631 0 00-.239-.046.547.547 0 00-.246.039.636.636 0 00-.2.146.9.9 0 00-.2.492zm1.885-.769c.13.199.215.425.247.662.015.21.015.421 0 .631h-2.178a.778.778 0 00.069.377.78.78 0 00.231.3c.119.077.258.12.4.123a.621.621 0 00.4-.146.86.86 0 00.154-.224h.847a1.042 1.042 0 01-.293.578 1.542 1.542 0 01-.523.361 1.43 1.43 0 01-.623.108 1.607 1.607 0 01-1.07-.4 1.645 1.645 0 01-.377-.593 1.71 1.71 0 01-.092-.685 1.791 1.791 0 01.4-1.277 1.425 1.425 0 011.093-.439c.246-.005.491.045.715.147.25.095.461.271.6.5v-.023zm4.679 1.116a1.194 1.194 0 00-.2-.77.63.63 0 00-.223-.177.697.697 0 00-.277-.084.706.706 0 00-.285.038.828.828 0 00-.254.139l-.085.084a1.541 1.541 0 000 1.478.7.7 0 00.231.184.812.812 0 00.277.077.72.72 0 00.285 0 .848.848 0 00.254-.146.417.417 0 00.077-.085c.146-.217.216-.477.2-.738zm-.77 1.7a1.46 1.46 0 01-1.223-.492 2 2 0 010-2.401 1.731 1.731 0 012.447 0 1.999 1.999 0 010 2.401 1.581 1.581 0 01-.554.392 1.53 1.53 0 01-.654.077l-.016.023zm3.732-4.478v.685h-.238a.236.236 0 00-.177 0 .266.266 0 00-.108.154v.4h.547v.592h-.508v2.578h-.831v-2.578h-.462v-.592h.454v-.208a1.077 1.077 0 01.177-.7c.115-.193.408-.293.869-.293h.316l-.039-.038zm2.994 1.154v1.924c-.006.136.015.272.061.4.043.08.107.146.185.192a.45.45 0 00.262.047.538.538 0 00.346-.077.591.591 0 00.239-.27c.062-.156.091-.324.084-.492v-1.739h.839v3.178h-.77v-.454l-.053.092a.453.453 0 01-.116.123 1.202 1.202 0 01-.4.247c-.137.04-.28.06-.423.061a.92.92 0 01-.554-.108 1 1 0 01-.4-.4 1.905 1.905 0 01-.139-.831v-1.924l.839.031zm3.447 2.178a.6.6 0 00.116.315c.08.063.171.11.269.139a.66.66 0 00.3 0 .884.884 0 00.4-.069.31.31 0 00.108-.085.347.347 0 00.046-.123.264.264 0 000-.131.285.285 0 00-.092-.1 4.711 4.711 0 00-.87-.246 1.928 1.928 0 01-.769-.339.775.775 0 01-.224-.577 1.019 1.019 0 01.355-.769 1.37 1.37 0 01.969-.316c.339-.011.674.072.97.239.132.093.24.217.315.361a.957.957 0 01.116.462h-.831a.516.516 0 00-.093-.254.545.545 0 00-.208-.139.6.6 0 00-.253 0 .668.668 0 00-.401.085.296.296 0 00-.084.085.205.205 0 000 .115.185.185 0 000 .123.2.2 0 00.092.085c.281.1.569.177.862.231.282.05.547.172.769.354a.828.828 0 01.247.6.917.917 0 01-.085.431.92.92 0 01-.269.346c-.316.224-.7.33-1.085.3a1.583 1.583 0 01-1.108-.315 1.033 1.033 0 01-.362-.8l.8-.008zm3.309-.901h1.308a.768.768 0 00-.192-.5.512.512 0 00-.208-.131.688.688 0 00-.246-.046.515.515 0 00-.239.039.752.752 0 00-.208.146.9.9 0 00-.215.492zm1.893-.769c.124.202.206.427.238.662.016.21.016.42 0 .631h-2.185a.778.778 0 00.308.677.728.728 0 00.4.123.574.574 0 00.393-.146.689.689 0 00.161-.224h.847a1.042 1.042 0 01-.293.578 1.542 1.542 0 01-.523.361 1.43 1.43 0 01-.623.108 1.607 1.607 0 01-1.07-.4 1.645 1.645 0 01-.377-.593 1.71 1.71 0 01-.092-.685c-.033-.461.11-.917.4-1.277a1.425 1.425 0 011.092-.439 1.65 1.65 0 01.716.147c.229.101.424.267.562.477h.046zm2.67-.577v.854h-.238a.668.668 0 00-.385.069.65.65 0 00-.292.262c-.076.18-.11.375-.1.569v1.539h-.854v-3.216h.769v.562c.091-.162.205-.31.339-.439a.91.91 0 01.608-.2h.153zm1.139 2.247c.002.114.04.224.108.315.082.06.173.107.269.139a.696.696 0 00.308 0 .898.898 0 00.4-.069.356.356 0 00.1-.085.418.418 0 00.047-.123.264.264 0 000-.131.288.288 0 00-.093-.1 4.68 4.68 0 00-.869-.246 1.886 1.886 0 01-.77-.339.774.774 0 01-.177-.261.774.774 0 01-.046-.316 1.049 1.049 0 01.346-.762 1.41 1.41 0 01.978-.315c.338-.011.674.072.969.238a1.03 1.03 0 01.431.824h-.831a.45.45 0 00-.092-.254.59.59 0 00-.216-.139.573.573 0 00-.254 0 .634.634 0 00-.392.085.287.287 0 00-.085.085.224.224 0 000 .115.233.233 0 000 .123c.026.036.06.065.1.085.281.1.569.177.862.231.283.05.548.172.77.354a.841.841 0 01.246.6.905.905 0 01-.085.431.92.92 0 01-.269.346 2.062 2.062 0 01-1.101.3 2.128 2.128 0 01-1.092-.315 1.058 1.058 0 01-.27-.362 1.104 1.104 0 01-.092-.439l.8-.015z" clip-rule="evenodd"/><path stroke="#35416B" stroke-linecap="round" stroke-linejoin="round" stroke-width=".77" d="M98.12 162.842h62.929v7.872h-62.93v-7.872zm-.132 20.761h62.93v7.872h-62.93v-7.872z"/><path fill="#35416B" fill-rule="evenodd" d="M100.743 211.906h11.543c1.847 0 3.339 1.846 3.339 4.132 0 2.285-1.492 4.14-3.339 4.14h-11.543c-1.839 0-3.332-1.855-3.332-4.14 0-2.286 1.508-4.132 3.332-4.132zm.47 28.725h11.542c1.839 0 3.34 1.855 3.34 4.14 0 2.285-1.501 4.14-3.34 4.14h-11.542c-1.847 0-3.34-1.855-3.34-4.14 0-2.285 1.493-4.14 3.34-4.14z" clip-rule="evenodd"/><path fill="#fff" fill-rule="evenodd" d="M107.569 216.168a3.7 3.7 0 01.523-2.07 3.657 3.657 0 011.539-1.423 3.767 3.767 0 012.108-.316 3.685 3.685 0 011.916.916 3.629 3.629 0 011.086 1.832c.175.702.14 1.44-.101 2.123a3.666 3.666 0 01-3.27 2.424h-.177a3.563 3.563 0 01-2.539-.992 3.611 3.611 0 01-1.085-2.494zm.469 28.726a3.658 3.658 0 015.684-3.202 3.656 3.656 0 01.145 5.977 3.663 3.663 0 01-2.004.719h-.185a3.606 3.606 0 01-2.534-1.003 3.608 3.608 0 01-1.106-2.491z" clip-rule="evenodd"/><path fill="#35416B" fill-rule="evenodd" d="M99.99 255.283h113.986a2.13 2.13 0 01.833 4.1c-.265.107-.548.16-.833.155H99.989a2.135 2.135 0 01-1.988-1.3 2.13 2.13 0 01.45-2.332 2.12 2.12 0 011.538-.623z" clip-rule="evenodd"/><path fill="#F7A501" fill-rule="evenodd" d="M139.349 255.283h74.765a2.11 2.11 0 011.539.623 2.17 2.17 0 01.462 2.308c-.106.257-.263.49-.462.685a1.967 1.967 0 01-.684.462 2.086 2.086 0 01-.77.169h-74.773a2.135 2.135 0 01-1.492-.631 2.1 2.1 0 01-.624-1.5 2.121 2.121 0 01.624-1.501 2.09 2.09 0 011.415-.615z" clip-rule="evenodd"/><path fill="#fff" fill-rule="evenodd" stroke="#35416B" stroke-linecap="round" stroke-linejoin="round" stroke-width="1.924" d="M136.11 257.422a2.07 2.07 0 01.354-1.201c.23-.359.562-.64.954-.808a2.17 2.17 0 012.347.447c.306.298.515.681.6 1.1.084.417.046.85-.108 1.247-.162.39-.428.728-.769.977a2.14 2.14 0 01-2.709-.254 2.19 2.19 0 01-.631-1.539l-.038.031z" clip-rule="evenodd"/><path fill="#35416B" fill-rule="evenodd" d="M130.969 264.139h5.541l2.37-2.031 2.247 2.031h5.694v12.405h-15.852v-12.405z" clip-rule="evenodd"/><path fill="#fff" fill-rule="evenodd" d="M134.186 271.15a.883.883 0 00.085.423.505.505 0 00.223.238.587.587 0 00.323.07c.16 0 .314-.061.431-.17a.65.65 0 00.177-.484.508.508 0 00-.077-.331.525.525 0 00-.262-.223 1.607 1.607 0 00-.608-.085v-.593c.194.007.387-.022.57-.084a.424.424 0 00.215-.2.491.491 0 00.062-.293.575.575 0 00-.139-.4.466.466 0 00-.184-.115.534.534 0 00-.216-.039.499.499 0 00-.238.039.518.518 0 00-.193.154.821.821 0 00-.138.5h-.77c.005-.205.041-.407.108-.6a1.37 1.37 0 01.315-.462c.117-.101.253-.177.401-.223.178-.059.365-.088.554-.085.352-.01.697.102.977.316.118.104.212.233.277.377.069.146.1.307.092.469a.944.944 0 01-.223.631.78.78 0 01-.292.216.617.617 0 01.323.2c.108.1.192.224.246.361.056.139.082.289.077.439.002.351-.13.689-.369.946a1.407 1.407 0 01-.508.316c-.189.07-.391.099-.593.084a1.3 1.3 0 01-.708-.123c-.221-.1-.41-.26-.546-.461a1.802 1.802 0 01-.2-.824l.808.016zm3.994.731a.526.526 0 00.315-.108.486.486 0 00.162-.293 5.556 5.556 0 000-2.254.471.471 0 00-.477-.37.474.474 0 00-.316.1.437.437 0 00-.177.27 5.32 5.32 0 000 2.254c.018.116.078.22.17.293a.522.522 0 00.323.108zm1.454-1.539a3.27 3.27 0 01-.331 1.6 1.39 1.39 0 01-1.131.57 1.551 1.551 0 01-.631-.147 1.467 1.467 0 01-.5-.423 4.207 4.207 0 010-3.232c.111-.152.253-.281.415-.377.161-.098.338-.163.524-.192.183-.035.371-.035.554 0a1.442 1.442 0 01.785.538c.25.506.364 1.068.331 1.632l-.016.031zm1.901-1.016a.574.574 0 000-.185.405.405 0 00-.1-.146.46.46 0 00-.324-.138.467.467 0 00-.292.775.469.469 0 00.292.156.466.466 0 00.324-.139.389.389 0 00.1-.146.526.526 0 000-.177zm-.462 1.085a.95.95 0 01-.416-.085.988.988 0 01-.354-.238 1.058 1.058 0 01-.23-.346 1.064 1.064 0 010-.831c.053-.13.131-.248.23-.347.127-.127.283-.222.454-.277.174-.046.357-.046.531 0 .176.033.34.11.477.223.137.115.246.26.316.424.064.169.09.35.077.531a1.122 1.122 0 01-.185.492 1.02 1.02 0 01-.392.354c-.156.085-.331.13-.508.131v-.031zm2.832.577a.446.446 0 00-.462.439.44.44 0 000 .177.487.487 0 00.1.154.524.524 0 00.154.1.525.525 0 00.354 0 .487.487 0 00.146-.1.402.402 0 00.1-.154.354.354 0 000-.177.44.44 0 000-.177.426.426 0 00-.108-.154.378.378 0 00-.146-.1.448.448 0 00-.146-.008h.008zm0 1.539a1.074 1.074 0 01-.416-.077 1.088 1.088 0 01-.669-1.008 1.077 1.077 0 011.085-1.085 1.092 1.092 0 011.085 1.078 1.086 1.086 0 01-.324.769 1.125 1.125 0 01-.769.323h.008zm-.462-4.324h.439l-2.355 4.355h-.454l2.37-4.355z" clip-rule="evenodd"/><path fill="#35416B" fill-rule="evenodd" stroke="#35416B" stroke-linecap="round" stroke-linejoin="round" stroke-width="1.924" d="M104.845 284.485h94.541v26.002h-94.541v-26.002z" clip-rule="evenodd"/><path stroke="#F96132" stroke-linecap="round" stroke-linejoin="round" stroke-width="1.924" d="M114.148 293.45l74.026.069m-73.779 6.518l50.279.069"/><path fill="#F7A501" fill-rule="evenodd" d="M301.853 40.914h126.76a16.829 16.829 0 0115.514 10.358 16.924 16.924 0 011.277 6.425v234.976a16.81 16.81 0 01-10.35 15.521 16.687 16.687 0 01-6.417 1.277H301.853a16.817 16.817 0 01-15.513-10.35 16.923 16.923 0 01-1.277-6.425V57.713a16.76 16.76 0 0110.357-15.514 16.775 16.775 0 016.425-1.277l.008-.008z" clip-rule="evenodd"/><path fill="#F7A501" fill-rule="evenodd" stroke="#35416B" stroke-linecap="round" stroke-linejoin="round" stroke-width="1.924" d="M351.201 112.979h30.172a16.788 16.788 0 0116.76 16.805v89.671a16.777 16.777 0 01-10.352 15.512 16.774 16.774 0 01-6.423 1.278h-30.157a16.831 16.831 0 01-11.873-4.909 16.8 16.8 0 01-4.917-11.881v-89.671a16.805 16.805 0 014.914-11.88 16.795 16.795 0 0111.876-4.925z" clip-rule="evenodd"/><path stroke="#35416B" stroke-linecap="round" stroke-linejoin="round" stroke-width="1.924" d="M348.385 108.031h35.258c10.835 0 19.615 8.187 19.615 18.298v97.65c0 10.096-8.795 18.284-19.615 18.284h-35.258c-10.835 0-19.615-8.188-19.615-18.284v-97.65c0-10.134 8.742-18.298 19.615-18.298z"/><path fill="#35416B" fill-rule="evenodd" stroke="#35416B" stroke-linecap="round" stroke-linejoin="round" stroke-width="1.924" d="M351.378 217.816h31.55c15.39-.216 15.19-25.071 15.19-25.071s.162 28.603.162 30.334c0 0-.978 12.574-15.39 12.312h-33.243c-12.712.146-15.236-11.981-15.236-11.981 0-1.708-.085-30.719-.085-30.719s5.21 25.271 17.052 25.125z" clip-rule="evenodd"/><path fill="#fff" fill-rule="evenodd" d="M362.79 75.888a6.48 6.48 0 00-1.123-4.032 4.286 4.286 0 00-1.224-.977 4.14 4.14 0 00-1.539-.431 4.004 4.004 0 00-2.924.939 5.288 5.288 0 00-.469.47 7.691 7.691 0 000 8.071 3.975 3.975 0 002.731 1.408 3.937 3.937 0 001.539-.177 4.133 4.133 0 001.37-.77 5.19 5.19 0 00.469-.469 6.406 6.406 0 001.17-4.032zm.885 6.387a7.98 7.98 0 01-10.134 0c-1.539-1.477-2.355-3.601-2.355-6.387 0-2.785.769-4.963 2.355-6.387a7.98 7.98 0 0110.134 0c1.539 1.424 2.347 3.548 2.347 6.387a8.357 8.357 0 01-2.347 6.387zm4.763-14.105h3.394l6.156 10.812V68.17h3.016v15.483h-3.232l-6.325-10.966V83.7h-3.016l.007-15.529z" clip-rule="evenodd"/><path fill="#35416B" fill-rule="evenodd" d="M358.904 269.418a6.39 6.39 0 00-1.124-4.024 4.003 4.003 0 00-5.632-.485 3.585 3.585 0 00-.485.485 7.69 7.69 0 000 8.072 3.998 3.998 0 002.724 1.408 3.914 3.914 0 001.539-.177 3.999 3.999 0 001.37-.769c.167-.145.324-.302.469-.47a6.368 6.368 0 001.139-4.04zm.893 6.395a8.042 8.042 0 01-10.142 0 8.392 8.392 0 01-2.355-6.395c0-2.839.769-4.963 2.355-6.394a8.014 8.014 0 0110.142 0c1.539 1.431 2.308 3.555 2.308 6.394a8.351 8.351 0 01-2.308 6.395zm4.809-14.097h10.981v2.747h-7.764v3.563h6.848v2.693h-6.848v6.464h-3.217v-15.467zm13.143 0h10.981v2.747h-7.765v3.563h6.795v2.693h-6.795v6.464h-3.216v-15.467z" clip-rule="evenodd"/><path fill="#F7A501" d="M19.415 25.093a6.265 6.265 0 018.834-.715l23.623 20.091a6.264 6.264 0 01.716 8.826 6.264 6.264 0 01-8.826.716L20.13 33.92a6.264 6.264 0 01-.715-8.826zm32.05-23.17a6.272 6.272 0 018.28 3.156L72.417 33.38a6.263 6.263 0 01-10.014 7.118 6.258 6.258 0 01-1.413-1.993l-12.682-28.31a6.256 6.256 0 013.155-8.272zM.568 56.944a6.272 6.272 0 017.772-4.248l29.765 8.719a6.263 6.263 0 01-3.525 12.02l-29.764-8.72a6.264 6.264 0 01-4.248-7.771z"/></svg>