<svg width="794" height="565" viewBox="0 0 794 565" fill="none" xmlns="http://www.w3.org/2000/svg">
<path d="M685.45 0.169922H235.45C175.803 0.169922 127.45 48.5232 127.45 108.17V449.17C127.45 508.817 175.803 557.17 235.45 557.17H685.45C745.097 557.17 793.45 508.817 793.45 449.17V108.17C793.45 48.5232 745.097 0.169922 685.45 0.169922Z" fill="#F96132"/>
<path fill-rule="evenodd" clip-rule="evenodd" d="M102.37 82.6799H308.51C311.061 82.6799 313.586 83.1827 315.943 84.1594C318.299 85.1361 320.439 86.5676 322.242 88.3721C324.045 90.1766 325.474 92.3187 326.448 94.6759C327.423 97.0331 327.923 99.5593 327.92 102.11V544.22C327.921 546.77 327.42 549.295 326.445 551.651C325.47 554.007 324.041 556.148 322.239 557.951C320.436 559.755 318.296 561.185 315.94 562.161C313.585 563.138 311.06 563.64 308.51 563.64H102.37C97.2239 563.64 92.2884 561.596 88.6486 557.958C85.0088 554.321 82.9626 549.386 82.96 544.24V102.13C82.956 99.5771 83.4558 97.0486 84.4304 94.6891C85.4051 92.3297 86.8356 90.1857 88.64 88.3799C90.4408 86.5729 92.5807 85.1392 94.9368 84.1611C97.2929 83.1829 99.8189 82.6796 102.37 82.6799Z" fill="#F0F0F0" stroke="#E6E6E6" stroke-width="2" stroke-linecap="round" stroke-linejoin="round"/>
<path fill-rule="evenodd" clip-rule="evenodd" d="M181.34 529.05C181.28 524.518 182.57 520.071 185.044 516.275C187.519 512.478 191.066 509.502 195.236 507.727C199.406 505.951 204.009 505.456 208.461 506.303C212.913 507.151 217.013 509.303 220.238 512.486C223.464 515.67 225.67 519.74 226.577 524.181C227.483 528.621 227.048 533.231 225.328 537.424C223.608 541.616 220.679 545.203 216.915 547.727C213.152 550.252 208.722 551.6 204.19 551.6C201.209 551.62 198.253 551.052 195.492 549.93C192.73 548.807 190.216 547.151 188.095 545.058C185.973 542.964 184.284 540.472 183.125 537.726C181.966 534.979 181.36 532.031 181.34 529.05Z" fill="#BEBEBE"/>
<path fill-rule="evenodd" clip-rule="evenodd" d="M103.78 120.29H309.61C313.8 120.29 317.19 123.16 317.19 126.7V491.17C317.19 494.73 313.8 497.59 309.61 497.59H103.78C99.6 497.59 96.2 494.72 96.2 491.17V126.7C96.22 123.16 99.62 120.29 103.78 120.29Z" fill="white" stroke="white" stroke-width="2" stroke-linecap="round" stroke-linejoin="round"/>
<path fill-rule="evenodd" clip-rule="evenodd" d="M102.41 119.78H311.27C312.14 119.781 313 119.958 313.8 120.3C315.004 120.813 316.027 121.673 316.739 122.77C317.452 123.867 317.821 125.152 317.8 126.46V167.62H95.8V126.46C95.7929 125.59 95.9559 124.727 96.28 123.92C96.6075 123.116 97.086 122.383 97.6899 121.76C98.301 121.138 99.028 120.642 99.8299 120.3C100.645 119.951 101.523 119.774 102.41 119.78Z" fill="#BEBEBE" stroke="#C8C8C8" stroke-width="0.1" stroke-linecap="round" stroke-linejoin="round"/>
<path fill-rule="evenodd" clip-rule="evenodd" d="M186.49 100.91H234.08C234.489 100.908 234.894 100.99 235.27 101.15C235.644 101.311 235.983 101.542 236.27 101.83C236.559 102.116 236.79 102.456 236.95 102.83C237.101 103.212 237.179 103.619 237.18 104.03C237.181 104.44 237.102 104.847 236.945 105.227C236.789 105.607 236.56 105.952 236.27 106.243C235.98 106.533 235.635 106.764 235.256 106.921C234.877 107.079 234.471 107.16 234.06 107.16H186.47C185.955 107.16 185.448 107.033 184.994 106.79C184.54 106.547 184.153 106.196 183.867 105.768C183.582 105.339 183.406 104.847 183.356 104.335C183.306 103.822 183.383 103.305 183.58 102.83C183.902 102.068 184.508 101.462 185.27 101.14C185.657 100.982 186.072 100.904 186.49 100.91Z" fill="#BEBEBE" stroke="#BEBEBE" stroke-width="2" stroke-linecap="round" stroke-linejoin="round"/>
<path fill-rule="evenodd" clip-rule="evenodd" d="M165.57 104.53C165.562 103.876 165.75 103.235 166.11 102.69C166.473 102.147 166.988 101.723 167.59 101.47C168.04 101.284 168.526 101.2 169.012 101.224C169.498 101.248 169.974 101.379 170.403 101.608C170.833 101.838 171.206 102.159 171.497 102.55C171.788 102.94 171.988 103.391 172.085 103.868C172.181 104.345 172.17 104.838 172.054 105.311C171.937 105.784 171.717 106.225 171.41 106.602C171.102 106.98 170.715 107.285 170.276 107.496C169.837 107.706 169.357 107.817 168.87 107.82C168.23 107.813 167.605 107.621 167.073 107.266C166.54 106.911 166.122 106.408 165.87 105.82C165.681 105.416 165.578 104.976 165.57 104.53Z" fill="#BEBEBE" stroke="#BEBEBE" stroke-width="2" stroke-linecap="round" stroke-linejoin="round"/>
<path fill-rule="evenodd" clip-rule="evenodd" d="M131 136.33H276.62C276.726 136.329 276.832 136.35 276.93 136.39C277.029 136.432 277.12 136.489 277.2 136.56C277.356 136.713 277.446 136.921 277.45 137.14V151.4C277.448 151.507 277.424 151.613 277.38 151.71C277.339 151.811 277.278 151.903 277.2 151.98C277.12 152.051 277.029 152.108 276.93 152.15C276.832 152.19 276.726 152.211 276.62 152.21H131C130.891 152.21 130.782 152.19 130.68 152.15C130.583 152.111 130.494 152.054 130.42 151.98C130.345 151.903 130.281 151.815 130.23 151.72C130.19 151.618 130.17 151.509 130.17 151.4V137.14C130.17 137.031 130.19 136.922 130.23 136.82C130.276 136.722 130.34 136.633 130.42 136.56C130.492 136.483 130.581 136.425 130.68 136.39C130.782 136.35 130.891 136.33 131 136.33Z" fill="white" stroke="white" stroke-width="0.1" stroke-linecap="round" stroke-linejoin="round"/>
<path fill-rule="evenodd" clip-rule="evenodd" d="M100.32 123.66C100.317 123.457 100.377 123.258 100.49 123.09C100.599 122.92 100.76 122.79 100.95 122.72C101.136 122.641 101.342 122.62 101.54 122.66C101.738 122.699 101.919 122.796 102.06 122.94C102.2 123.082 102.294 123.264 102.33 123.46C102.387 123.649 102.387 123.851 102.33 124.04C102.253 124.228 102.12 124.389 101.95 124.5C101.755 124.632 101.52 124.692 101.286 124.668C101.052 124.644 100.834 124.539 100.67 124.37C100.566 124.282 100.482 124.173 100.422 124.051C100.362 123.929 100.327 123.796 100.32 123.66Z" fill="white" stroke="white" stroke-width="0.1" stroke-linecap="round" stroke-linejoin="round"/>
<path fill-rule="evenodd" clip-rule="evenodd" d="M103.17 123.64C103.16 123.436 103.212 123.233 103.32 123.06C103.428 122.891 103.585 122.759 103.77 122.68C103.955 122.597 104.161 122.573 104.36 122.61C104.558 122.649 104.742 122.742 104.89 122.88C105.034 123.021 105.131 123.202 105.17 123.4C105.219 123.597 105.201 123.804 105.12 123.99C105.043 124.176 104.915 124.335 104.75 124.45C104.583 124.567 104.384 124.629 104.18 124.63C103.915 124.626 103.662 124.523 103.47 124.34C103.282 124.155 103.174 123.904 103.17 123.64Z" fill="white" stroke="white" stroke-width="0.1" stroke-linecap="round" stroke-linejoin="round"/>
<path fill-rule="evenodd" clip-rule="evenodd" d="M105.84 123.64C105.829 123.436 105.882 123.233 105.99 123.06C106.098 122.891 106.255 122.759 106.44 122.68C106.625 122.597 106.831 122.573 107.03 122.61C107.23 122.644 107.415 122.738 107.56 122.88C107.702 123.024 107.802 123.204 107.85 123.4C107.89 123.598 107.869 123.804 107.79 123.99C107.72 124.179 107.59 124.341 107.42 124.45C107.253 124.567 107.054 124.629 106.85 124.63C106.585 124.626 106.332 124.523 106.14 124.34C105.952 124.155 105.844 123.904 105.84 123.64Z" fill="white" stroke="white" stroke-width="0.1" stroke-linecap="round" stroke-linejoin="round"/>
<path fill-rule="evenodd" clip-rule="evenodd" d="M108.57 123.65C108.565 123.448 108.62 123.249 108.73 123.08C108.837 122.907 108.994 122.771 109.18 122.69C109.366 122.611 109.572 122.59 109.77 122.63C109.969 122.664 110.153 122.758 110.297 122.899C110.442 123.04 110.541 123.222 110.58 123.42C110.62 123.618 110.599 123.824 110.52 124.01C110.45 124.199 110.32 124.361 110.15 124.47C109.98 124.58 109.782 124.639 109.58 124.64C109.448 124.641 109.318 124.616 109.196 124.566C109.074 124.516 108.963 124.443 108.87 124.35C108.682 124.165 108.574 123.914 108.57 123.65Z" fill="white" stroke="white" stroke-width="0.1" stroke-linecap="round" stroke-linejoin="round"/>
<path fill-rule="evenodd" clip-rule="evenodd" d="M111.37 123.74C111.36 123.536 111.412 123.333 111.52 123.16C111.628 122.991 111.785 122.859 111.97 122.78C112.154 122.693 112.361 122.668 112.56 122.71C112.76 122.744 112.945 122.838 113.09 122.98C113.233 123.121 113.331 123.302 113.37 123.5C113.414 123.697 113.398 123.903 113.323 124.09C113.248 124.277 113.118 124.438 112.95 124.55C112.78 124.66 112.582 124.719 112.38 124.72C112.116 124.724 111.86 124.623 111.67 124.44C111.482 124.255 111.374 124.004 111.37 123.74Z" fill="white" stroke="white" stroke-width="0.1" stroke-linecap="round" stroke-linejoin="round"/>
<path fill-rule="evenodd" clip-rule="evenodd" d="M116.82 123.3H116.39V124H116.82C116.909 123.999 116.997 123.971 117.07 123.92C117.101 123.885 117.125 123.844 117.14 123.8C117.151 123.757 117.151 123.713 117.14 123.67C117.15 123.624 117.15 123.576 117.14 123.53C117.126 123.488 117.102 123.45 117.07 123.42C117.005 123.35 116.915 123.307 116.82 123.3ZM116.82 124.3H116.36V125.08H115.9V122.89H116.9C117.085 122.882 117.267 122.942 117.41 123.06C117.472 123.128 117.523 123.205 117.56 123.29C117.579 123.382 117.579 123.478 117.56 123.57C117.58 123.669 117.58 123.771 117.56 123.87C117.522 123.962 117.468 124.047 117.4 124.12C117.245 124.249 117.052 124.323 116.85 124.33L116.82 124.3Z" fill="white"/>
<path fill-rule="evenodd" clip-rule="evenodd" d="M118 125.11V122.92H118.45V123.76H119.31V122.92H119.76V125.11H119.31V124.11H118.45V125.11H118Z" fill="white"/>
<path fill-rule="evenodd" clip-rule="evenodd" d="M121.72 124C121.734 123.794 121.678 123.59 121.56 123.42C121.508 123.359 121.443 123.311 121.37 123.28C121.296 123.241 121.214 123.221 121.13 123.22C121.046 123.219 120.963 123.239 120.89 123.28C120.814 123.311 120.745 123.359 120.69 123.42C120.587 123.593 120.532 123.789 120.53 123.99C120.532 124.194 120.587 124.394 120.69 124.57C120.748 124.631 120.815 124.681 120.89 124.72C120.966 124.753 121.047 124.77 121.13 124.77C121.212 124.768 121.294 124.751 121.37 124.72C121.442 124.681 121.506 124.631 121.56 124.57C121.676 124.403 121.732 124.203 121.72 124ZM121.84 124.9C121.64 125.068 121.387 125.161 121.125 125.161C120.863 125.161 120.61 125.068 120.41 124.9C120.291 124.781 120.199 124.638 120.14 124.48C120.087 124.326 120.063 124.163 120.07 124C120.055 123.833 120.078 123.664 120.137 123.507C120.196 123.349 120.289 123.207 120.41 123.09C120.61 122.921 120.863 122.829 121.125 122.829C121.387 122.829 121.64 122.921 121.84 123.09C121.959 123.209 122.051 123.352 122.11 123.51C122.171 123.666 122.191 123.834 122.17 124C122.185 124.162 122.165 124.326 122.11 124.48C122.054 124.645 121.962 124.795 121.84 124.92V124.9Z" fill="white"/>
<path fill-rule="evenodd" clip-rule="evenodd" d="M122.52 122.92H123L123.87 124.44V122.92H124.3V125.11H123.84L122.95 123.55V125.11H122.52V122.92Z" fill="white"/>
<path fill-rule="evenodd" clip-rule="evenodd" d="M126.35 123.34H125.19V123.8H126.25V124.18H125.19V124.74H126.4V125.14H124.74V122.94H126.35V123.34Z" fill="white"/>
<path fill-rule="evenodd" clip-rule="evenodd" d="M130.85 125.07C130.872 124.933 130.943 124.808 131.05 124.72C131.152 124.629 131.284 124.579 131.42 124.58C131.559 124.58 131.693 124.63 131.799 124.719C131.905 124.809 131.976 124.933 132 125.07C132 125.34 131.42 125.58 131.42 125.58C131.42 125.58 130.85 125.37 130.85 125.07Z" fill="white"/>
<path d="M129.51 124.35C129.615 123.924 129.862 123.547 130.21 123.28C130.554 123.01 130.982 122.868 131.42 122.88C131.558 122.881 131.696 122.898 131.83 122.93C132.202 123.032 132.545 123.22 132.83 123.48C133.1 123.737 133.309 124.051 133.44 124.4" stroke="white" stroke-width="0.5" stroke-linecap="round" stroke-linejoin="round"/>
<path d="M128.8 123.91C128.955 123.361 129.293 122.881 129.759 122.551C130.225 122.222 130.79 122.063 131.36 122.1C131.545 122.09 131.731 122.11 131.91 122.16C132.379 122.278 132.814 122.504 133.18 122.82C133.539 123.146 133.82 123.55 134 124" stroke="white" stroke-width="0.5" stroke-linecap="round" stroke-linejoin="round"/>
<path d="M130.18 124.83C130.249 124.543 130.411 124.286 130.64 124.1C130.873 123.921 131.156 123.819 131.45 123.81C131.752 123.827 132.04 123.943 132.27 124.14C132.498 124.341 132.653 124.612 132.71 124.91" stroke="white" stroke-width="0.5" stroke-linecap="round" stroke-linejoin="round"/>
<path fill-rule="evenodd" clip-rule="evenodd" d="M199.78 123.34V123C199.903 123.01 200.027 123.01 200.15 123C200.258 122.983 200.356 122.93 200.43 122.85C200.484 122.794 200.522 122.725 200.54 122.65C200.55 122.611 200.55 122.569 200.54 122.53H201.02V125.41H200.44V123.41L199.78 123.34Z" fill="#F0F0F0"/>
<path fill-rule="evenodd" clip-rule="evenodd" d="M202 124.73C202.132 124.479 202.329 124.269 202.57 124.12C202.751 124.001 202.921 123.867 203.08 123.72C203.188 123.62 203.259 123.486 203.28 123.34C203.284 123.228 203.249 123.118 203.18 123.03C203.133 122.987 203.079 122.954 203.02 122.93C202.961 122.915 202.899 122.915 202.84 122.93C202.78 122.939 202.723 122.96 202.67 122.99C202.615 123.02 202.57 123.065 202.54 123.12C202.493 123.234 202.469 123.356 202.47 123.48H201.92C201.923 123.273 201.967 123.069 202.05 122.88C202.129 122.739 202.247 122.624 202.39 122.55C202.534 122.473 202.697 122.438 202.86 122.45C203.126 122.439 203.387 122.528 203.59 122.7C203.678 122.788 203.746 122.893 203.79 123.01C203.838 123.127 203.862 123.253 203.86 123.38C203.86 123.584 203.789 123.782 203.66 123.94C203.546 124.086 203.407 124.211 203.25 124.31L203.03 124.47L202.74 124.69C202.687 124.73 202.642 124.781 202.61 124.84H203.86V125.35H201.86C201.858 125.135 201.906 124.923 202 124.73Z" fill="#F0F0F0"/>
<path fill-rule="evenodd" clip-rule="evenodd" d="M204.48 123.22H205.08V123.81H204.48V123.22ZM204.48 124.71H205.08V125.3H204.48V124.71Z" fill="#F0F0F0"/>
<path fill-rule="evenodd" clip-rule="evenodd" d="M206.49 124.91C206.566 124.913 206.641 124.888 206.7 124.84C206.761 124.793 206.803 124.725 206.82 124.65C206.92 124.145 206.92 123.625 206.82 123.12C206.802 123.048 206.76 122.984 206.7 122.94C206.639 122.894 206.566 122.87 206.49 122.87C206.414 122.87 206.341 122.894 206.28 122.94C206.249 122.96 206.223 122.987 206.202 123.018C206.181 123.049 206.167 123.083 206.16 123.12C206.05 123.624 206.05 124.146 206.16 124.65C206.166 124.688 206.179 124.725 206.2 124.757C206.221 124.79 206.248 124.818 206.28 124.84C206.339 124.888 206.414 124.913 206.49 124.91ZM207.49 123.91C207.51 124.29 207.431 124.669 207.26 125.01C207.181 125.139 207.066 125.243 206.93 125.31C206.799 125.381 206.648 125.409 206.5 125.39C206.345 125.409 206.188 125.381 206.05 125.31C205.916 125.241 205.802 125.137 205.72 125.01C205.575 124.661 205.5 124.287 205.5 123.91C205.5 123.532 205.575 123.158 205.72 122.81C205.802 122.683 205.916 122.579 206.05 122.51C206.188 122.438 206.345 122.41 206.5 122.43C206.648 122.411 206.799 122.439 206.93 122.51C207.066 122.577 207.181 122.681 207.26 122.81C207.421 123.153 207.49 123.532 207.46 123.91H207.49Z" fill="#F0F0F0"/>
<path fill-rule="evenodd" clip-rule="evenodd" d="M208.75 124.91C208.826 124.913 208.901 124.888 208.96 124.84C209.018 124.79 209.059 124.724 209.08 124.65C209.18 124.145 209.18 123.625 209.08 123.12C209.062 123.048 209.02 122.984 208.96 122.94C208.899 122.894 208.826 122.87 208.75 122.87C208.674 122.87 208.601 122.894 208.54 122.94C208.478 122.984 208.432 123.047 208.41 123.12C208.31 123.625 208.31 124.145 208.41 124.65C208.431 124.724 208.472 124.79 208.53 124.84C208.594 124.887 208.671 124.911 208.75 124.91ZM209.75 123.91C209.77 124.29 209.691 124.669 209.52 125.01C209.441 125.139 209.326 125.243 209.19 125.31C209.055 125.382 208.901 125.41 208.75 125.39C208.599 125.409 208.445 125.381 208.31 125.31C208.176 125.241 208.062 125.137 207.98 125.01C207.835 124.661 207.76 124.287 207.76 123.91C207.76 123.532 207.835 123.158 207.98 122.81C208.062 122.683 208.176 122.579 208.31 122.51C208.445 122.439 208.599 122.411 208.75 122.43C208.901 122.41 209.055 122.438 209.19 122.51C209.326 122.577 209.441 122.681 209.52 122.81C209.681 123.153 209.75 123.532 209.72 123.91H209.75Z" fill="#F0F0F0"/>
<path fill-rule="evenodd" clip-rule="evenodd" d="M212.52 122.88H211.93V123.74H212.5C212.619 123.749 212.736 123.713 212.83 123.64C212.876 123.596 212.91 123.541 212.93 123.48C212.946 123.421 212.946 123.359 212.93 123.3C212.945 123.244 212.945 123.186 212.93 123.13C212.912 123.071 212.877 123.019 212.83 122.98C212.741 122.913 212.632 122.878 212.52 122.88ZM212.52 124.24H211.88V125.3H211.27V122.37H212.54C212.794 122.355 213.044 122.437 213.24 122.6C213.336 122.687 213.409 122.797 213.45 122.92C213.5 123.04 213.52 123.17 213.51 123.3C213.539 123.432 213.539 123.568 213.51 123.7C213.462 123.825 213.387 123.937 213.29 124.03C213.082 124.183 212.827 124.257 212.57 124.24H212.52Z" fill="#F0F0F0"/>
<path fill-rule="evenodd" clip-rule="evenodd" d="M216 122.37H216.88V125.3H216.31V122.83L215.76 125.28H215.17L214.6 122.83V125.28H214V122.37H214.89L215.4 124.67L216 122.37Z" fill="#F0F0F0"/>
<path fill-rule="evenodd" clip-rule="evenodd" d="M304.18 123.45H312.64C312.738 123.456 312.835 123.482 312.922 123.526C313.01 123.571 313.088 123.634 313.15 123.71C313.215 123.785 313.265 123.872 313.296 123.967C313.327 124.061 313.338 124.161 313.33 124.26V126.34C313.341 126.538 313.276 126.732 313.147 126.883C313.019 127.034 312.837 127.13 312.64 127.15H304.18C304.081 127.141 303.985 127.113 303.898 127.067C303.81 127.02 303.733 126.957 303.67 126.88C303.541 126.731 303.477 126.537 303.49 126.34V125.78H302.49V124.78H303.49V124.28C303.477 124.08 303.542 123.883 303.67 123.73C303.731 123.651 303.808 123.585 303.896 123.537C303.984 123.489 304.08 123.459 304.18 123.45Z" fill="white" stroke="white" stroke-linecap="round" stroke-linejoin="round"/>
<path fill-rule="evenodd" clip-rule="evenodd" d="M306.84 123.81H312.21C312.316 123.81 312.421 123.831 312.519 123.873C312.617 123.914 312.706 123.974 312.78 124.05C312.931 124.201 313.017 124.406 313.02 124.62V126.2C313.017 126.414 312.931 126.618 312.78 126.77C312.629 126.921 312.424 127.007 312.21 127.01H306.84C306.623 127.008 306.415 126.922 306.26 126.77C306.186 126.695 306.127 126.606 306.087 126.508C306.048 126.41 306.028 126.306 306.03 126.2V124.62C306.029 124.407 306.111 124.202 306.26 124.05C306.415 123.898 306.623 123.812 306.84 123.81Z" fill="#BEBEBE"/>
<path fill-rule="evenodd" clip-rule="evenodd" d="M297.59 125.73H297.67C297.722 125.704 297.765 125.662 297.79 125.61C297.803 125.551 297.803 125.489 297.79 125.43C297.795 125.403 297.795 125.376 297.79 125.35H297.72H297.56H297.49C297.487 125.376 297.487 125.403 297.49 125.43C297.477 125.489 297.477 125.551 297.49 125.61C297.515 125.662 297.558 125.704 297.61 125.73C297.603 125.729 297.597 125.729 297.59 125.73ZM297.31 125.16C297.249 125.126 297.2 125.073 297.17 125.01C297.15 124.962 297.14 124.911 297.14 124.86C297.14 124.808 297.15 124.757 297.17 124.71C297.191 124.666 297.218 124.626 297.25 124.59C297.35 124.52 297.468 124.481 297.59 124.48C297.71 124.475 297.827 124.514 297.92 124.59C297.959 124.623 297.989 124.664 298.01 124.71C298.03 124.757 298.04 124.808 298.04 124.86C298.04 124.911 298.03 124.962 298.01 125.01C297.979 125.07 297.93 125.119 297.87 125.15C297.937 125.187 297.993 125.243 298.03 125.31C298.07 125.376 298.09 125.452 298.09 125.53C298.105 125.586 298.105 125.644 298.09 125.7C298.066 125.753 298.032 125.8 297.99 125.84C297.942 125.886 297.884 125.921 297.82 125.94C297.75 125.95 297.68 125.95 297.61 125.94C297.544 125.943 297.479 125.934 297.417 125.911C297.355 125.889 297.298 125.855 297.25 125.81C297.21 125.769 297.179 125.72 297.159 125.667C297.138 125.614 297.128 125.557 297.13 125.5C297.131 125.424 297.148 125.349 297.18 125.28C297.212 125.229 297.257 125.188 297.31 125.16ZM297.59 125.07C297.614 125.071 297.638 125.068 297.661 125.059C297.683 125.051 297.704 125.037 297.721 125.02C297.738 125.003 297.751 124.983 297.759 124.96C297.768 124.938 297.772 124.914 297.77 124.89C297.775 124.867 297.775 124.843 297.77 124.82C297.77 124.82 297.77 124.77 297.77 124.76C297.77 124.75 297.77 124.76 297.71 124.76H297.64C297.589 124.761 297.54 124.779 297.5 124.81C297.474 124.848 297.46 124.893 297.46 124.94C297.46 124.986 297.474 125.032 297.5 125.07C297.53 125.076 297.56 125.076 297.59 125.07Z" fill="white"/>
<path fill-rule="evenodd" clip-rule="evenodd" d="M298.75 125.73C298.75 125.73 298.82 125.73 298.86 125.73C298.875 125.718 298.887 125.702 298.895 125.685C298.904 125.668 298.909 125.649 298.91 125.63C298.963 125.379 298.963 125.12 298.91 124.87C298.909 124.851 298.904 124.832 298.895 124.815C298.887 124.798 298.875 124.782 298.86 124.77C298.824 124.761 298.786 124.761 298.75 124.77C298.715 124.756 298.675 124.756 298.64 124.77C298.61 124.791 298.588 124.823 298.58 124.86C298.56 124.986 298.56 125.114 298.58 125.24C298.565 125.366 298.565 125.494 298.58 125.62C298.59 125.658 298.611 125.693 298.64 125.72C298.675 125.734 298.713 125.737 298.75 125.73ZM299.25 125.23C299.269 125.417 299.23 125.605 299.14 125.77C299.103 125.837 299.047 125.893 298.98 125.93C298.908 125.949 298.832 125.949 298.76 125.93C298.688 125.946 298.613 125.946 298.54 125.93C298.47 125.893 298.411 125.838 298.37 125.77C298.289 125.602 298.251 125.416 298.26 125.23C298.251 125.04 298.289 124.851 298.37 124.68C298.408 124.612 298.468 124.56 298.54 124.53C298.612 124.51 298.688 124.51 298.76 124.53C298.833 124.516 298.907 124.516 298.98 124.53C299.047 124.567 299.103 124.623 299.14 124.69C299.211 124.86 299.239 125.046 299.22 125.23H299.25Z" fill="white"/>
<path d="M299.57 125.23C299.616 125.24 299.664 125.24 299.71 125.23L299.73 125.27C299.801 125.27 299.871 125.249 299.93 125.21C299.992 125.168 300.041 125.109 300.07 125.04C300.09 124.971 300.09 124.898 300.07 124.83C300.057 124.758 300.022 124.691 299.97 124.64C299.939 124.602 299.897 124.574 299.85 124.56C299.806 124.54 299.758 124.53 299.71 124.53C299.662 124.53 299.614 124.54 299.57 124.56C299.523 124.574 299.481 124.602 299.45 124.64C299.418 124.673 299.392 124.712 299.375 124.755C299.358 124.798 299.349 124.844 299.35 124.89C299.348 124.938 299.356 124.986 299.373 125.03C299.39 125.075 299.416 125.116 299.45 125.15C299.481 125.188 299.523 125.216 299.57 125.23Z" fill="white"/>
<path d="M119.82 145.19L110.1 144.99L113.77 148.51L110.1 145L113.43 141.66" stroke="#454545" stroke-linecap="round" stroke-linejoin="round"/>
<path fill-rule="evenodd" clip-rule="evenodd" d="M286.43 138.83H293.49C294.101 138.869 294.672 139.146 295.08 139.603C295.488 140.06 295.7 140.658 295.67 141.27V148.07C295.7 148.682 295.488 149.28 295.08 149.737C294.672 150.194 294.101 150.471 293.49 150.51H286.43C285.819 150.474 285.247 150.197 284.84 149.739C284.433 149.282 284.224 148.681 284.26 148.07V141.27C284.241 140.967 284.283 140.663 284.382 140.377C284.482 140.09 284.637 139.826 284.84 139.6C285.248 139.144 285.819 138.867 286.43 138.83Z" fill="#BEBEBE" stroke="#454545" stroke-linecap="round" stroke-linejoin="round"/>
<path fill-rule="evenodd" clip-rule="evenodd" d="M288 146.35C288.282 145.818 288.699 145.369 289.21 145.05C289.589 144.795 289.95 144.515 290.29 144.21C290.522 143.975 290.655 143.66 290.66 143.33C290.668 143.095 290.594 142.865 290.45 142.68C290.353 142.592 290.241 142.521 290.12 142.47C289.992 142.44 289.858 142.44 289.73 142.47C289.598 142.483 289.471 142.527 289.36 142.6C289.248 142.668 289.152 142.761 289.08 142.87C288.992 143.113 288.948 143.371 288.95 143.63H287.78C287.782 143.191 287.878 142.759 288.06 142.36C288.228 142.06 288.478 141.814 288.78 141.65C289.084 141.48 289.434 141.41 289.78 141.45C290.337 141.421 290.882 141.611 291.3 141.98C291.488 142.165 291.638 142.386 291.74 142.63C291.838 142.878 291.882 143.144 291.87 143.41C291.878 143.847 291.737 144.274 291.47 144.62C291.219 144.918 290.926 145.177 290.6 145.39L290.09 145.73C289.79 145.95 289.58 146.11 289.48 146.2C289.368 146.295 289.27 146.406 289.19 146.53H291.86V147.59H287.68C287.689 147.157 287.799 146.733 288 146.35Z" fill="#454545"/>
<path fill-rule="evenodd" clip-rule="evenodd" d="M304.84 140.1C304.835 139.867 304.897 139.638 305.02 139.44C305.146 139.245 305.327 139.092 305.54 139C305.752 138.901 305.989 138.869 306.22 138.91C306.45 138.955 306.662 139.066 306.83 139.23C306.998 139.392 307.113 139.601 307.16 139.83C307.211 140.057 307.19 140.295 307.1 140.51C307.012 140.727 306.861 140.912 306.667 141.042C306.473 141.172 306.244 141.241 306.01 141.24C305.859 141.243 305.709 141.216 305.568 141.161C305.427 141.107 305.299 141.024 305.19 140.92C304.972 140.702 304.847 140.408 304.84 140.1Z" fill="#454545"/>
<path fill-rule="evenodd" clip-rule="evenodd" d="M304.9 143.84C304.89 143.607 304.953 143.376 305.08 143.18C305.208 142.987 305.389 142.835 305.6 142.74C305.814 142.647 306.052 142.623 306.28 142.67C306.506 142.714 306.714 142.821 306.88 142.98C307.048 143.142 307.163 143.351 307.21 143.58C307.251 143.809 307.227 144.044 307.14 144.26C307.056 144.472 306.91 144.653 306.72 144.78C306.525 144.91 306.295 144.98 306.06 144.98C305.909 144.983 305.758 144.955 305.618 144.899C305.477 144.843 305.349 144.759 305.241 144.653C305.133 144.547 305.047 144.42 304.989 144.281C304.93 144.141 304.9 143.991 304.9 143.84Z" fill="#454545"/>
<path fill-rule="evenodd" clip-rule="evenodd" d="M305 147.66C304.997 147.429 305.063 147.203 305.19 147.01C305.312 146.813 305.489 146.656 305.7 146.56C305.914 146.468 306.152 146.443 306.38 146.49C306.609 146.531 306.821 146.639 306.99 146.8C307.152 146.965 307.263 147.174 307.309 147.401C307.356 147.629 307.335 147.864 307.25 148.08C307.159 148.293 307.01 148.477 306.82 148.61C306.627 148.737 306.401 148.803 306.17 148.8C306.018 148.805 305.866 148.778 305.725 148.721C305.584 148.664 305.456 148.579 305.35 148.47C305.131 148.257 305.005 147.966 305 147.66Z" fill="#454545"/>
<path fill-rule="evenodd" clip-rule="evenodd" d="M121.47 187.71H285.47C289.13 187.71 292.1 191.71 292.1 196.63V419.35C292.1 424.27 289.1 428.27 285.47 428.27H121.47C117.81 428.27 114.85 424.27 114.85 419.35V196.63C114.85 191.7 117.81 187.71 121.47 187.71Z" fill="white" stroke="#35416B" stroke-width="2.5" stroke-linecap="round" stroke-linejoin="round"/>
<path fill-rule="evenodd" clip-rule="evenodd" d="M127.24 202H128.46L130.69 205.92V202H131.78V207.61H130.62L128.33 203.61V207.61H127.24V202Z" fill="#35416B"/>
<path fill-rule="evenodd" clip-rule="evenodd" d="M135.07 205.57L134.86 205.67L134.57 205.75H134.33C134.161 205.779 133.996 205.829 133.84 205.9C133.76 205.948 133.694 206.017 133.65 206.1C133.61 206.181 133.59 206.27 133.59 206.36C133.57 206.432 133.57 206.508 133.59 206.58C133.618 206.647 133.659 206.708 133.71 206.76C133.817 206.847 133.952 206.893 134.09 206.89C134.32 206.891 134.545 206.817 134.73 206.68C134.838 206.587 134.924 206.471 134.98 206.34C135.028 206.209 135.049 206.069 135.04 205.93L135.07 205.57ZM134.41 205.05C134.557 205.032 134.701 204.998 134.84 204.95C134.907 204.926 134.966 204.885 135.01 204.83C135.05 204.775 135.071 204.708 135.07 204.64C135.095 204.575 135.095 204.504 135.07 204.44C135.044 204.377 134.998 204.325 134.94 204.29C134.776 204.218 134.599 204.183 134.42 204.19C134.327 204.175 134.233 204.175 134.14 204.19C134.053 204.228 133.973 204.279 133.9 204.34C133.816 204.454 133.764 204.589 133.75 204.73H132.75C132.76 204.405 132.868 204.091 133.06 203.83C133.246 203.633 133.475 203.482 133.73 203.39C133.986 203.299 134.261 203.271 134.53 203.31C134.949 203.299 135.365 203.392 135.74 203.58C135.92 203.682 136.067 203.835 136.16 204.02C136.249 204.207 136.283 204.414 136.26 204.62V207C136.255 207.1 136.275 207.2 136.32 207.29C136.364 207.344 136.418 207.388 136.48 207.42V207.58H135.3C135.3 207.5 135.3 207.42 135.23 207.34C135.24 207.257 135.24 207.173 135.23 207.09C135.081 207.251 134.909 207.389 134.72 207.5C134.476 207.638 134.2 207.71 133.92 207.71C133.579 207.723 133.246 207.605 132.99 207.38C132.866 207.267 132.77 207.127 132.71 206.97C132.649 206.811 132.621 206.64 132.63 206.47C132.616 206.251 132.664 206.032 132.77 205.84C132.871 205.642 133.027 205.479 133.22 205.37C133.532 205.214 133.872 205.122 134.22 205.1L134.41 205.05Z" fill="#35416B"/>
<path fill-rule="evenodd" clip-rule="evenodd" d="M142.75 203.82C142.871 203.971 142.954 204.15 142.99 204.34C143.005 204.546 143.005 204.754 142.99 204.96V207.56H141.89V204.92C141.89 204.786 141.863 204.653 141.81 204.53C141.764 204.431 141.687 204.35 141.59 204.3C141.498 204.25 141.394 204.229 141.29 204.24C141.16 204.229 141.03 204.261 140.92 204.33C140.807 204.392 140.719 204.491 140.67 204.61C140.61 204.763 140.579 204.926 140.58 205.09V207.56H139.5V205.11C139.508 204.933 139.481 204.756 139.42 204.59C139.372 204.496 139.3 204.416 139.21 204.36C139.115 204.308 139.008 204.283 138.9 204.29C138.777 204.28 138.653 204.3 138.54 204.35C138.433 204.405 138.344 204.488 138.28 204.59C138.211 204.754 138.181 204.932 138.19 205.11V207.61H137.09V203.45H138.09V204.06C138.191 203.887 138.32 203.732 138.47 203.6C138.704 203.428 138.99 203.34 139.28 203.35C139.552 203.342 139.82 203.415 140.05 203.56C140.213 203.7 140.337 203.879 140.41 204.08C140.535 203.865 140.715 203.685 140.93 203.56C141.161 203.449 141.414 203.39 141.67 203.39C141.848 203.402 142.023 203.439 142.19 203.5C142.4 203.558 142.593 203.668 142.75 203.82Z" fill="#35416B"/>
<path fill-rule="evenodd" clip-rule="evenodd" d="M144.81 205.09H146.5C146.492 204.848 146.396 204.617 146.23 204.44C146.156 204.366 146.067 204.309 145.97 204.27C145.867 204.255 145.763 204.255 145.66 204.27C145.555 204.245 145.445 204.245 145.34 204.27C145.239 204.311 145.147 204.372 145.07 204.45C144.922 204.633 144.832 204.856 144.81 205.09ZM147.27 204.09C147.437 204.351 147.546 204.644 147.59 204.95C147.61 205.223 147.61 205.497 147.59 205.77H144.76C144.752 205.937 144.779 206.104 144.84 206.26C144.91 206.41 145.017 206.541 145.15 206.64C145.296 206.751 145.477 206.807 145.66 206.8C145.851 206.804 146.037 206.736 146.18 206.61C146.269 206.535 146.338 206.439 146.38 206.33H147.49C147.44 206.614 147.304 206.876 147.1 207.08C146.915 207.285 146.685 207.446 146.429 207.55C146.173 207.654 145.896 207.698 145.62 207.68C145.105 207.688 144.605 207.502 144.22 207.16C144.004 206.946 143.84 206.686 143.74 206.4C143.632 206.113 143.59 205.805 143.62 205.5C143.576 204.904 143.762 204.313 144.14 203.85C144.322 203.658 144.544 203.508 144.79 203.41C145.031 203.312 145.29 203.267 145.55 203.28C145.87 203.272 146.188 203.337 146.48 203.47C146.809 203.596 147.087 203.828 147.27 204.13V204.09Z" fill="#35416B"/>
<path fill-rule="evenodd" clip-rule="evenodd" d="M127 227.31H128.15V229.62L130.31 227.31H131.82L129.53 229.62L131.94 232.92H130.44L128.71 230.47L128.15 231.04V232.92H127V227.31Z" fill="#35416B"/>
<path fill-rule="evenodd" clip-rule="evenodd" d="M133.25 230.43H134.93C134.93 230.188 134.837 229.955 134.67 229.78C134.592 229.706 134.5 229.649 134.4 229.61C134.303 229.567 134.196 229.55 134.09 229.56C133.984 229.551 133.878 229.568 133.78 229.61C133.676 229.646 133.583 229.708 133.51 229.79C133.361 229.972 133.27 230.195 133.25 230.43ZM135.71 229.43C135.873 229.691 135.979 229.985 136.02 230.29C136.045 230.563 136.045 230.837 136.02 231.11H133.17C133.158 231.278 133.189 231.447 133.26 231.6C133.33 231.75 133.433 231.883 133.56 231.99C133.715 232.09 133.896 232.143 134.08 232.14C134.271 232.142 134.456 232.075 134.6 231.95C134.683 231.866 134.751 231.768 134.8 231.66H135.9C135.859 231.945 135.725 232.208 135.52 232.41C135.331 232.618 135.099 232.782 134.84 232.89C134.583 232.994 134.306 233.038 134.03 233.02C133.517 233.031 133.02 232.845 132.64 232.5C132.419 232.289 132.251 232.029 132.15 231.74C132.042 231.453 132.001 231.145 132.03 230.84C132.012 230.233 132.235 229.643 132.65 229.2C132.834 229.01 133.055 228.86 133.3 228.76C133.544 228.661 133.807 228.617 134.07 228.63C134.39 228.622 134.708 228.687 135 228.82C135.296 228.961 135.543 229.188 135.71 229.47V229.43Z" fill="#35416B"/>
<path fill-rule="evenodd" clip-rule="evenodd" d="M137 233.72H137.44C137.529 233.71 137.615 233.679 137.69 233.63C137.77 233.557 137.829 233.464 137.86 233.36C137.907 233.285 137.932 233.198 137.93 233.11L136.41 228.77H137.62L138.52 231.83L139.37 228.77H140.52L139.1 232.88C138.95 233.397 138.732 233.891 138.45 234.35C138.317 234.459 138.164 234.54 138 234.59C137.831 234.62 137.659 234.62 137.49 234.59H137V233.72Z" fill="#35416B"/>
<path fill-rule="evenodd" clip-rule="evenodd" d="M127.32 264.33H131.32V265.33H128.52V266.62H130.98V267.62H128.52V269.98H127.36L127.32 264.33Z" fill="#35416B"/>
<path fill-rule="evenodd" clip-rule="evenodd" d="M132.77 267.45H134.45C134.462 267.273 134.417 267.097 134.321 266.948C134.226 266.798 134.085 266.684 133.92 266.62C133.818 266.595 133.712 266.595 133.61 266.62C133.505 266.595 133.395 266.595 133.29 266.62C133.19 266.659 133.101 266.72 133.03 266.8C132.881 266.986 132.79 267.212 132.77 267.45ZM135.22 266.45C135.392 266.708 135.501 267.002 135.54 267.31C135.565 267.583 135.565 267.857 135.54 268.13H132.71C132.698 268.298 132.729 268.467 132.8 268.62C132.87 268.77 132.973 268.903 133.1 269.01C133.256 269.107 133.436 269.159 133.62 269.16C133.81 269.16 133.994 269.092 134.14 268.97C134.221 268.888 134.288 268.793 134.34 268.69H135.45C135.402 268.972 135.266 269.231 135.06 269.43C134.871 269.638 134.639 269.802 134.38 269.91C134.123 270.014 133.846 270.058 133.57 270.04C133.289 270.05 133.01 269.998 132.751 269.89C132.492 269.781 132.259 269.617 132.07 269.41C131.881 269.202 131.738 268.957 131.65 268.69C131.569 268.421 131.541 268.139 131.57 267.86C131.526 267.264 131.712 266.673 132.09 266.21C132.273 266.02 132.494 265.87 132.739 265.77C132.983 265.67 133.246 265.623 133.51 265.63C133.831 265.626 134.149 265.694 134.44 265.83C134.742 265.955 134.997 266.172 135.17 266.45H135.22Z" fill="#35416B"/>
<path fill-rule="evenodd" clip-rule="evenodd" d="M138.59 267.91C138.524 267.954 138.454 267.991 138.38 268.02L138.09 268.1H137.85C137.669 268.119 137.493 268.17 137.33 268.25C137.207 268.34 137.122 268.471 137.09 268.62C137.067 268.771 137.103 268.925 137.19 269.05V269.11C137.298 269.196 137.432 269.242 137.57 269.24C137.8 269.238 138.024 269.165 138.21 269.03C138.321 268.94 138.407 268.823 138.46 268.69C138.508 268.559 138.529 268.419 138.52 268.28L138.59 267.91ZM137.93 267.39C138.077 267.379 138.221 267.349 138.36 267.3C138.425 267.279 138.481 267.237 138.52 267.18C138.563 267.126 138.588 267.059 138.59 266.99C138.605 266.924 138.605 266.856 138.59 266.79C138.563 266.725 138.513 266.671 138.45 266.64C138.289 266.56 138.109 266.526 137.93 266.54C137.838 266.52 137.742 266.52 137.65 266.54C137.561 266.574 137.48 266.625 137.41 266.69C137.327 266.801 137.275 266.932 137.26 267.07H136.26C136.272 266.749 136.38 266.439 136.57 266.18C136.752 265.976 136.982 265.821 137.24 265.73C137.495 265.632 137.769 265.597 138.04 265.63C138.459 265.624 138.873 265.717 139.25 265.9C139.429 266.001 139.572 266.155 139.66 266.34C139.758 266.524 139.797 266.733 139.77 266.94V269.33C139.76 269.43 139.781 269.532 139.83 269.62C139.874 269.671 139.929 269.712 139.99 269.74V269.9H138.81C138.78 269.822 138.756 269.742 138.74 269.66V269.41C138.593 269.579 138.417 269.721 138.22 269.83C137.981 269.96 137.713 270.029 137.44 270.03C137.099 270.043 136.766 269.925 136.51 269.7C136.383 269.588 136.283 269.447 136.22 269.29C136.159 269.131 136.131 268.96 136.14 268.79C136.126 268.571 136.174 268.352 136.28 268.16C136.381 267.963 136.537 267.799 136.73 267.69C137.042 267.535 137.382 267.443 137.73 267.42L137.93 267.39Z" fill="#35416B"/>
<path fill-rule="evenodd" clip-rule="evenodd" d="M140.2 266.59V265.82H140.78V264.66H141.85V265.82H142.54V266.59H141.87V268.79C141.858 268.901 141.883 269.014 141.94 269.11C142.063 269.161 142.197 269.181 142.33 269.17H142.54V270H142C141.822 270.04 141.638 270.04 141.46 270C141.282 269.953 141.116 269.871 140.97 269.76C140.839 269.6 140.774 269.396 140.79 269.19V266.63L140.2 266.59Z" fill="#35416B"/>
<path fill-rule="evenodd" clip-rule="evenodd" d="M144.29 265.78V268.28C144.289 268.457 144.32 268.633 144.38 268.8C144.427 268.91 144.512 268.999 144.62 269.05C144.723 269.108 144.842 269.133 144.96 269.12C145.117 269.132 145.273 269.097 145.41 269.02C145.548 268.939 145.657 268.817 145.72 268.67C145.798 268.463 145.832 268.241 145.82 268.02V265.77H146.92V269.93H145.92V269.34C145.885 269.37 145.857 269.407 145.84 269.45C145.802 269.513 145.754 269.57 145.7 269.62C145.549 269.757 145.372 269.862 145.18 269.93C144.999 269.99 144.81 270.02 144.62 270.02C144.372 270.043 144.122 269.995 143.9 269.88C143.678 269.762 143.5 269.576 143.39 269.35C143.247 269.009 143.182 268.64 143.2 268.27V265.77L144.29 265.78Z" fill="#35416B"/>
<path fill-rule="evenodd" clip-rule="evenodd" d="M150.36 265.69V266.8H150.05C149.879 266.783 149.707 266.811 149.55 266.88C149.393 266.958 149.261 267.079 149.17 267.23C149.071 267.464 149.027 267.717 149.04 267.97V269.97H148V265.81H149V266.54C149.121 266.331 149.269 266.139 149.44 265.97C149.663 265.791 149.944 265.699 150.23 265.71L150.36 265.69Z" fill="#35416B"/>
<path fill-rule="evenodd" clip-rule="evenodd" d="M151.78 267.45H153.46C153.46 267.207 153.371 266.972 153.21 266.79C153.13 266.719 153.039 266.662 152.94 266.62C152.835 266.595 152.725 266.595 152.62 266.62C152.518 266.596 152.412 266.596 152.31 266.62C152.209 266.661 152.117 266.722 152.04 266.8C151.891 266.986 151.8 267.212 151.78 267.45ZM154.24 266.45C154.408 266.709 154.515 267.003 154.55 267.31C154.575 267.583 154.575 267.857 154.55 268.13H151.71C151.698 268.298 151.729 268.467 151.8 268.62C151.874 268.771 151.98 268.904 152.11 269.01C152.265 269.11 152.446 269.162 152.63 269.16C152.818 269.164 153 269.096 153.14 268.97C153.224 268.89 153.292 268.795 153.34 268.69H154.45C154.402 268.97 154.269 269.228 154.07 269.43C153.884 269.64 153.651 269.804 153.391 269.91C153.131 270.016 152.85 270.06 152.57 270.04C152.292 270.051 152.015 270 151.76 269.89C151.5 269.784 151.267 269.62 151.08 269.41C150.888 269.204 150.744 268.958 150.66 268.69C150.569 268.423 150.541 268.139 150.58 267.86C150.531 267.263 150.718 266.671 151.1 266.21C151.281 266.019 151.5 265.869 151.743 265.769C151.986 265.669 152.247 265.621 152.51 265.63C152.834 265.627 153.155 265.695 153.45 265.83C153.777 265.956 154.054 266.184 154.24 266.48V266.45Z" fill="#35416B"/>
<path fill-rule="evenodd" clip-rule="evenodd" d="M160.11 264.32H161.2V269.94H160.13L160.11 264.32ZM159.45 264.32V265.2H159.13C158.96 265.2 158.86 265.25 158.82 265.34C158.795 265.486 158.795 265.634 158.82 265.78V265.86H159.53V266.62H158.82V269.97H157.74V266.62H157.11V265.86H157.7V265.59C157.669 265.232 157.772 264.876 157.99 264.59C158.135 264.464 158.305 264.372 158.49 264.32C158.678 264.28 158.872 264.28 159.06 264.32H159.26H159.45Z" fill="#35416B"/>
<path fill-rule="evenodd" clip-rule="evenodd" d="M164.51 267.91C164.447 267.958 164.376 267.995 164.3 268.02L164.01 268.1H163.78C163.599 268.118 163.423 268.169 163.26 268.25C163.134 268.337 163.048 268.47 163.02 268.62C162.995 268.769 163.027 268.923 163.11 269.05L163.16 269.11C163.264 269.196 163.395 269.243 163.53 269.24C163.763 269.236 163.989 269.163 164.18 269.03C164.288 268.939 164.371 268.822 164.42 268.69C164.478 268.561 164.502 268.42 164.49 268.28L164.51 267.91ZM163.85 267.39C163.997 267.38 164.142 267.35 164.28 267.3C164.349 267.281 164.409 267.239 164.45 267.18C164.49 267.125 164.511 267.058 164.51 266.99C164.521 266.921 164.51 266.851 164.48 266.788C164.45 266.726 164.401 266.674 164.34 266.64C164.178 266.564 163.999 266.529 163.82 266.54C163.728 266.52 163.632 266.52 163.54 266.54C163.451 266.574 163.37 266.625 163.3 266.69C163.214 266.8 163.159 266.931 163.14 267.07H162.14C162.148 266.75 162.253 266.44 162.44 266.18C162.625 265.979 162.854 265.825 163.11 265.73C163.365 265.632 163.639 265.598 163.91 265.63C164.329 265.623 164.744 265.715 165.12 265.9C165.302 265.999 165.449 266.153 165.54 266.34C165.635 266.525 165.67 266.734 165.64 266.94V269.33C165.635 269.43 165.655 269.53 165.7 269.62C165.746 269.668 165.8 269.709 165.86 269.74V269.9H164.69C164.657 269.823 164.633 269.742 164.62 269.66C164.61 269.577 164.61 269.493 164.62 269.41C164.47 269.577 164.295 269.719 164.1 269.83C163.857 269.961 163.586 270.03 163.31 270.03C162.969 270.043 162.636 269.925 162.38 269.7C162.257 269.584 162.161 269.442 162.098 269.285C162.036 269.128 162.009 268.959 162.02 268.79C162.002 268.572 162.047 268.353 162.15 268.16C162.255 267.962 162.414 267.799 162.61 267.69C162.921 267.532 163.262 267.44 163.61 267.42L163.85 267.39Z" fill="#35416B"/>
<path fill-rule="evenodd" clip-rule="evenodd" d="M169.23 267.84C169.252 267.522 169.168 267.205 168.99 266.94C168.909 266.841 168.806 266.763 168.69 266.71C168.574 266.658 168.447 266.634 168.32 266.64C168.151 266.628 167.983 266.67 167.84 266.76C167.699 266.86 167.591 266.999 167.53 267.16C167.448 267.384 167.411 267.622 167.42 267.86C167.414 268.079 167.455 268.298 167.54 268.5C167.599 268.66 167.708 268.796 167.85 268.89C167.99 268.987 168.16 269.033 168.33 269.02C168.45 269.03 168.57 269.01 168.68 268.96C168.796 268.921 168.899 268.852 168.98 268.76C169.18 268.497 169.269 268.167 169.23 267.84ZM168.6 265.76C168.878 265.883 169.104 266.099 169.24 266.37V265.77H170.24V269.71C170.263 270.127 170.169 270.543 169.97 270.91C169.756 271.168 169.482 271.368 169.171 271.492C168.86 271.616 168.522 271.66 168.19 271.62C167.738 271.64 167.29 271.529 166.9 271.3C166.735 271.208 166.596 271.073 166.5 270.91C166.402 270.746 166.347 270.561 166.34 270.37H167.52C167.538 270.472 167.586 270.567 167.66 270.64C167.838 270.756 168.048 270.812 168.26 270.8C168.411 270.814 168.563 270.786 168.7 270.72C168.84 270.65 168.957 270.543 169.04 270.41C169.137 270.138 169.182 269.849 169.17 269.56V269.28C169.082 269.433 168.967 269.568 168.83 269.68C168.586 269.854 168.289 269.938 167.99 269.92C167.75 269.927 167.511 269.883 167.29 269.79C167.07 269.691 166.876 269.544 166.72 269.36C166.38 268.929 166.209 268.388 166.24 267.84C166.231 267.285 166.391 266.741 166.7 266.28C166.912 266.004 167.208 265.804 167.543 265.71C167.879 265.616 168.236 265.634 168.56 265.76H168.6Z" fill="#35416B"/>
<path fill-rule="evenodd" clip-rule="evenodd" d="M174.57 265.29H173.48V264.29H174.57V265.29ZM173.48 265.78H174.57V269.94H173.48V265.78Z" fill="#35416B"/>
<path fill-rule="evenodd" clip-rule="evenodd" d="M176.47 268.61C176.468 268.76 176.521 268.907 176.62 269.02C176.717 269.107 176.834 269.169 176.96 269.2C177.092 269.225 177.228 269.225 177.36 269.2C177.539 269.206 177.716 269.172 177.88 269.1C177.932 269.075 177.977 269.037 178.01 268.99C178.026 268.938 178.026 268.882 178.01 268.83C178.018 268.772 178.009 268.713 177.982 268.661C177.955 268.609 177.912 268.567 177.86 268.54C177.489 268.387 177.104 268.273 176.71 268.2C176.347 268.132 176.005 267.982 175.71 267.76C175.612 267.662 175.534 267.547 175.48 267.42C175.432 267.289 175.411 267.149 175.42 267.01C175.411 266.824 175.449 266.638 175.53 266.47C175.61 266.298 175.726 266.144 175.87 266.02C176.226 265.727 176.68 265.581 177.14 265.61C177.581 265.592 178.018 265.7 178.4 265.92C178.572 266.039 178.71 266.201 178.8 266.39C178.898 266.575 178.953 266.78 178.96 266.99H177.87C177.869 266.871 177.83 266.756 177.76 266.66C177.68 266.582 177.584 266.521 177.48 266.48C177.371 266.455 177.259 266.455 177.15 266.48C176.969 266.461 176.787 266.499 176.63 266.59C176.588 266.621 176.551 266.658 176.52 266.7C176.515 266.75 176.515 266.8 176.52 266.85C176.506 266.902 176.506 266.958 176.52 267.01C176.553 267.054 176.593 267.091 176.64 267.12C177.008 267.25 177.386 267.351 177.77 267.42C178.137 267.485 178.482 267.644 178.77 267.88C178.87 267.985 178.951 268.107 179.01 268.24C179.063 268.373 179.087 268.517 179.08 268.66C179.085 268.85 179.047 269.038 178.969 269.212C178.892 269.385 178.776 269.538 178.63 269.66C178.199 269.922 177.704 270.057 177.2 270.05C176.695 270.047 176.2 269.905 175.77 269.64C175.62 269.511 175.501 269.35 175.42 269.17C175.34 268.991 175.302 268.796 175.31 268.6L176.47 268.61Z" fill="#35416B"/>
<path fill-rule="evenodd" clip-rule="evenodd" d="M184.39 267.91C184.327 267.958 184.256 267.995 184.18 268.02L183.89 268.1H183.65C183.479 268.121 183.313 268.171 183.16 268.25C183.099 268.293 183.047 268.348 183.008 268.412C182.968 268.475 182.942 268.546 182.93 268.62C182.915 268.694 182.915 268.77 182.93 268.844C182.946 268.918 182.976 268.988 183.02 269.05V269.11C183.127 269.197 183.262 269.243 183.4 269.24C183.633 269.236 183.859 269.163 184.05 269.03C184.155 268.936 184.237 268.82 184.29 268.69C184.338 268.559 184.359 268.419 184.35 268.28L184.39 267.91ZM183.73 267.39C183.877 267.38 184.022 267.35 184.16 267.3C184.229 267.281 184.289 267.239 184.33 267.18C184.37 267.125 184.392 267.058 184.39 266.99C184.401 266.921 184.39 266.851 184.36 266.788C184.33 266.726 184.281 266.674 184.22 266.64C184.058 266.564 183.879 266.529 183.7 266.54C183.608 266.52 183.512 266.52 183.42 266.54C183.331 266.574 183.25 266.625 183.18 266.69C183.094 266.8 183.039 266.931 183.02 267.07H182.02C182.028 266.75 182.133 266.44 182.32 266.18C182.505 265.979 182.734 265.825 182.99 265.73C183.245 265.632 183.519 265.598 183.79 265.63C184.209 265.624 184.623 265.717 185 265.9C185.179 266.001 185.322 266.155 185.41 266.34C185.508 266.524 185.547 266.733 185.52 266.94V269.33C185.51 269.43 185.531 269.532 185.58 269.62C185.624 269.671 185.679 269.712 185.74 269.74V269.9H184.56C184.531 269.822 184.507 269.741 184.49 269.66V269.41C184.343 269.579 184.167 269.721 183.97 269.83C183.731 269.96 183.463 270.029 183.19 270.03C182.849 270.043 182.516 269.925 182.26 269.7C182.133 269.588 182.033 269.447 181.97 269.29C181.909 269.131 181.881 268.96 181.89 268.79C181.876 268.571 181.924 268.352 182.03 268.16C182.131 267.962 182.287 267.799 182.48 267.69C182.777 267.541 183.099 267.45 183.43 267.42L183.73 267.39Z" fill="#35416B"/>
<path fill-rule="evenodd" clip-rule="evenodd" d="M188.9 267.27C188.88 267.121 188.829 266.978 188.75 266.85C188.679 266.767 188.59 266.702 188.49 266.66C188.392 266.619 188.286 266.599 188.18 266.6C188.016 266.596 187.854 266.645 187.72 266.74C187.583 266.83 187.481 266.964 187.43 267.12C187.352 267.369 187.318 267.629 187.33 267.89C187.318 268.141 187.352 268.391 187.43 268.63C187.481 268.786 187.578 268.922 187.71 269.02C187.844 269.114 188.006 269.16 188.17 269.15C188.262 269.169 188.358 269.169 188.45 269.15C188.538 269.115 188.616 269.06 188.68 268.99C188.791 268.837 188.86 268.658 188.88 268.47H189.98C189.951 268.811 189.826 269.137 189.62 269.41C189.446 269.642 189.22 269.831 188.96 269.96C188.694 270.083 188.402 270.138 188.11 270.12C187.838 270.14 187.564 270.099 187.31 270C187.057 269.891 186.831 269.727 186.65 269.52C186.311 269.077 186.141 268.527 186.17 267.97C186.137 267.369 186.321 266.776 186.69 266.3C186.871 266.102 187.093 265.945 187.34 265.84C187.587 265.738 187.853 265.694 188.12 265.71C188.573 265.688 189.021 265.811 189.4 266.06C189.581 266.21 189.728 266.398 189.83 266.61C189.926 266.824 189.981 267.055 189.99 267.29L188.9 267.27Z" fill="#35416B"/>
<path fill-rule="evenodd" clip-rule="evenodd" d="M190.33 266.59V265.82H190.91V264.66H192V265.82H192.67V266.59H192V268.79C191.99 268.9 192.01 269.011 192.06 269.11C192.187 269.16 192.324 269.18 192.46 269.17H192.67V270H192.15C191.972 270.04 191.788 270.04 191.61 270C191.43 269.951 191.261 269.87 191.11 269.76C190.983 269.598 190.919 269.395 190.93 269.19V266.63L190.33 266.59Z" fill="#35416B"/>
<path fill-rule="evenodd" clip-rule="evenodd" d="M194.46 265.29H193.34V264.29H194.44L194.46 265.29ZM193.36 265.78H194.46V269.94H193.34L193.36 265.78Z" fill="#35416B"/>
<path fill-rule="evenodd" clip-rule="evenodd" d="M198.06 265.78H199.22L197.73 269.94H196.58L195.1 265.78H196.31L197.18 268.85L198.06 265.78Z" fill="#35416B"/>
<path fill-rule="evenodd" clip-rule="evenodd" d="M200.6 267.45H202.28C202.292 267.273 202.247 267.097 202.151 266.948C202.056 266.798 201.915 266.684 201.75 266.62C201.648 266.595 201.542 266.595 201.44 266.62C201.335 266.596 201.225 266.596 201.12 266.62C201.02 266.659 200.931 266.72 200.86 266.8C200.711 266.986 200.62 267.212 200.6 267.45ZM203.06 266.45C203.223 266.711 203.329 267.005 203.37 267.31C203.395 267.583 203.395 267.857 203.37 268.13H200.56C200.548 268.298 200.579 268.467 200.65 268.62C200.72 268.77 200.823 268.903 200.95 269.01C201.105 269.11 201.286 269.163 201.47 269.16C201.661 269.162 201.846 269.095 201.99 268.97C202.071 268.888 202.138 268.793 202.19 268.69H203.29C203.246 268.971 203.113 269.231 202.91 269.43C202.721 269.638 202.489 269.802 202.23 269.91C201.973 270.014 201.696 270.058 201.42 270.04C200.907 270.051 200.41 269.865 200.03 269.52C199.809 269.309 199.641 269.049 199.54 268.76C199.432 268.473 199.391 268.165 199.42 267.86C199.371 267.263 199.558 266.671 199.94 266.21C200.122 266.018 200.344 265.868 200.59 265.77C200.83 265.669 201.09 265.621 201.35 265.63C201.674 265.626 201.996 265.694 202.29 265.83C202.599 265.952 202.862 266.169 203.04 266.45H203.06Z" fill="#35416B"/>
<path fill-rule="evenodd" clip-rule="evenodd" d="M128.87 299.4V300.91H130.19C130.391 300.922 130.592 300.891 130.78 300.82C130.898 300.764 130.995 300.673 131.06 300.56C131.123 300.444 131.147 300.311 131.13 300.18C131.15 300.047 131.129 299.911 131.07 299.79C131.008 299.671 130.914 299.571 130.8 299.5C130.617 299.422 130.418 299.388 130.22 299.4H128.87ZM131.87 298.96C131.991 299.1 132.089 299.259 132.16 299.43C132.237 299.621 132.274 299.825 132.27 300.03C132.269 300.303 132.2 300.571 132.07 300.81C131.924 301.072 131.685 301.268 131.4 301.36C131.631 301.435 131.826 301.591 131.95 301.8C132.077 302.075 132.132 302.378 132.11 302.68V303.07C132.1 303.243 132.1 303.417 132.11 303.59C132.123 303.657 132.146 303.721 132.18 303.78C132.219 303.831 132.266 303.875 132.32 303.91V304.06H131.04C131.04 303.93 130.98 303.83 130.96 303.76C130.95 303.597 130.95 303.433 130.96 303.27V302.75C130.986 302.497 130.915 302.243 130.76 302.04C130.557 301.895 130.308 301.831 130.06 301.86H128.85V304.06H127.71V298.45H130.45C130.759 298.441 131.068 298.489 131.36 298.59C131.573 298.682 131.761 298.823 131.91 299L131.87 298.96Z" fill="#35416B"/>
<path fill-rule="evenodd" clip-rule="evenodd" d="M136.07 302C136.096 301.646 136.001 301.293 135.8 301C135.717 300.907 135.619 300.83 135.51 300.77C135.341 300.682 135.149 300.647 134.96 300.67C134.77 300.693 134.593 300.773 134.45 300.9C134.409 300.928 134.372 300.962 134.34 301C134.177 301.296 134.092 301.628 134.092 301.965C134.092 302.302 134.177 302.634 134.34 302.93C134.423 303.023 134.521 303.1 134.63 303.16C134.86 303.274 135.125 303.296 135.37 303.22C135.488 303.182 135.596 303.121 135.69 303.04C135.729 303.006 135.766 302.969 135.8 302.93C135.984 302.655 136.078 302.33 136.07 302ZM135.07 304.21C134.773 304.235 134.475 304.191 134.199 304.079C133.923 303.968 133.676 303.794 133.48 303.57C133.142 303.12 132.96 302.573 132.96 302.01C132.96 301.447 133.142 300.9 133.48 300.45C133.902 300.028 134.473 299.79 135.07 299.79C135.666 299.794 136.237 300.031 136.66 300.45C136.998 300.9 137.18 301.447 137.18 302.01C137.18 302.573 136.998 303.12 136.66 303.57C136.458 303.788 136.213 303.962 135.94 304.08C135.667 304.174 135.377 304.208 135.09 304.18L135.07 304.21Z" fill="#35416B"/>
<path fill-rule="evenodd" clip-rule="evenodd" d="M139.08 304H138V298.39H139.08V304Z" fill="#35416B"/>
<path fill-rule="evenodd" clip-rule="evenodd" d="M141.24 304H140.16V298.39H141.24V304Z" fill="#35416B"/>
<path fill-rule="evenodd" clip-rule="evenodd" d="M147.3 302C147.33 301.647 147.239 301.294 147.04 301C146.957 300.887 146.847 300.798 146.72 300.74C146.596 300.679 146.458 300.652 146.32 300.66C146.179 300.657 146.04 300.685 145.91 300.74C145.782 300.8 145.669 300.889 145.58 301C145.409 301.291 145.32 301.622 145.32 301.96C145.32 302.297 145.409 302.629 145.58 302.92C145.663 303.036 145.778 303.126 145.91 303.18C146.038 303.241 146.179 303.268 146.32 303.26C146.458 303.268 146.596 303.241 146.72 303.18C146.851 303.128 146.963 303.038 147.04 302.92C147.221 302.648 147.312 302.326 147.3 302ZM146.3 304.21C146.001 304.233 145.7 304.189 145.42 304.08C145.147 303.961 144.902 303.788 144.7 303.57C144.368 303.117 144.19 302.571 144.19 302.01C144.19 301.449 144.368 300.902 144.7 300.45C145.124 300.028 145.697 299.791 146.295 299.791C146.893 299.791 147.466 300.028 147.89 300.45C148.228 300.9 148.41 301.447 148.41 302.01C148.41 302.572 148.228 303.12 147.89 303.57C147.688 303.788 147.443 303.961 147.17 304.08C146.897 304.174 146.607 304.208 146.32 304.18L146.3 304.21Z" fill="#35416B"/>
<path fill-rule="evenodd" clip-rule="evenodd" d="M150.29 299.89V302.39C150.282 302.567 150.309 302.743 150.37 302.91C150.425 303.014 150.508 303.1 150.61 303.16C150.714 303.215 150.833 303.236 150.95 303.22C151.107 303.237 151.265 303.202 151.4 303.12C151.538 303.039 151.646 302.916 151.71 302.77C151.792 302.567 151.829 302.349 151.82 302.13V299.87H152.91V304H151.91V303.41L151.84 303.53C151.801 303.592 151.75 303.647 151.69 303.69C151.539 303.83 151.363 303.939 151.17 304.01C150.991 304.062 150.806 304.089 150.62 304.09C150.371 304.12 150.119 304.071 149.9 303.95C149.676 303.836 149.494 303.654 149.38 303.43C149.241 303.088 149.179 302.719 149.2 302.35V299.85L150.29 299.89Z" fill="#35416B"/>
<path fill-rule="evenodd" clip-rule="evenodd" d="M153.53 300.7V300H154.11V298.84H155.18V300H155.85V300.77H155.18V302.97C155.17 303.08 155.19 303.191 155.24 303.29C155.367 303.34 155.504 303.36 155.64 303.35H155.85V304.16H155.33C155.152 304.2 154.968 304.2 154.79 304.16C154.609 304.115 154.438 304.033 154.29 303.92C154.161 303.759 154.097 303.556 154.11 303.35V300.79L153.53 300.7Z" fill="#35416B"/>
<path fill-rule="evenodd" clip-rule="evenodd" d="M160.64 298.39V299.28H160.34C160.287 299.27 160.233 299.27 160.18 299.28L160.04 299.36C159.989 299.426 159.961 299.507 159.96 299.59V300H160.69V300.77H160V304.12H158.92V300.77H158.31V300H158.9V299.73C158.87 299.409 158.951 299.088 159.13 298.82C159.29 298.57 159.66 298.44 160.26 298.44L160.64 298.39Z" fill="#35416B"/>
<path fill-rule="evenodd" clip-rule="evenodd" d="M162.09 301.55H163.8C163.792 301.308 163.696 301.077 163.53 300.9C163.459 300.822 163.37 300.764 163.27 300.73C163.171 300.691 163.066 300.67 162.96 300.67C162.851 300.661 162.741 300.678 162.64 300.72C162.537 300.763 162.445 300.828 162.37 300.91C162.213 301.089 162.115 301.313 162.09 301.55ZM164.54 300.55C164.705 300.811 164.814 301.104 164.86 301.41C164.88 301.683 164.88 301.957 164.86 302.23H162.03C162.018 302.398 162.049 302.567 162.12 302.72C162.186 302.873 162.289 303.007 162.42 303.11C162.574 303.213 162.755 303.269 162.94 303.27C163.127 303.27 163.308 303.202 163.45 303.08C163.54 302.999 163.611 302.9 163.66 302.79H164.8C164.756 303.074 164.623 303.337 164.42 303.54C164.229 303.742 163.997 303.902 163.74 304.01C163.484 304.117 163.207 304.165 162.93 304.15C162.519 304.169 162.113 304.053 161.774 303.82C161.434 303.588 161.18 303.25 161.05 302.86C160.949 302.575 160.911 302.271 160.94 301.97C160.889 301.371 161.072 300.776 161.45 300.31C161.635 300.122 161.856 299.972 162.1 299.87C162.344 299.772 162.607 299.728 162.87 299.74C163.19 299.732 163.508 299.797 163.8 299.93C164.105 300.069 164.362 300.295 164.54 300.58V300.55Z" fill="#35416B"/>
<path fill-rule="evenodd" clip-rule="evenodd" d="M167.9 302C167.837 302.048 167.766 302.085 167.69 302.11C167.6 302.147 167.506 302.174 167.41 302.19H167.17C166.999 302.209 166.833 302.26 166.68 302.34C166.598 302.386 166.531 302.455 166.49 302.54C166.442 302.618 166.418 302.708 166.42 302.8C166.405 302.873 166.405 302.947 166.42 303.02C166.441 303.091 166.483 303.154 166.54 303.2C166.645 303.285 166.775 303.331 166.91 303.33C167.143 303.326 167.369 303.253 167.56 303.12C167.665 303.026 167.747 302.91 167.8 302.78C167.848 302.649 167.869 302.509 167.86 302.37L167.9 302ZM167.24 301.48C167.387 301.47 167.532 301.44 167.67 301.39C167.739 301.372 167.799 301.329 167.84 301.27C167.883 301.216 167.908 301.149 167.91 301.08C167.925 301.014 167.925 300.946 167.91 300.88C167.877 300.819 167.829 300.767 167.77 300.73C167.609 300.651 167.429 300.616 167.25 300.63C167.158 300.611 167.062 300.611 166.97 300.63C166.881 300.664 166.8 300.715 166.73 300.78C166.651 300.893 166.6 301.023 166.58 301.16H165.58C165.583 300.839 165.688 300.527 165.88 300.27C166.068 300.074 166.297 299.92 166.55 299.82C166.805 299.723 167.079 299.688 167.35 299.72C167.769 299.713 168.184 299.806 168.56 299.99C168.742 300.089 168.889 300.243 168.98 300.43C169.075 300.615 169.11 300.824 169.08 301.03V303.41C169.078 303.511 169.102 303.611 169.15 303.7C169.194 303.754 169.248 303.798 169.31 303.83V303.99H168.13C168.102 303.911 168.079 303.831 168.06 303.75C168.071 303.667 168.071 303.583 168.06 303.5C167.908 303.661 167.732 303.799 167.54 303.91C167.3 304.048 167.027 304.12 166.75 304.12C166.41 304.128 166.079 304.011 165.82 303.79C165.697 303.674 165.601 303.532 165.538 303.375C165.476 303.218 165.449 303.049 165.46 302.88C165.443 302.659 165.488 302.437 165.59 302.24C165.697 302.047 165.852 301.885 166.04 301.77C166.351 301.613 166.692 301.525 167.04 301.51L167.24 301.48Z" fill="#35416B"/>
<path fill-rule="evenodd" clip-rule="evenodd" d="M169.5 300.7V300H170.07V298.84H171.15V300H171.82V300.77H171.15V302.97C171.135 303.08 171.156 303.193 171.21 303.29C171.337 303.34 171.474 303.361 171.61 303.35H171.82V304.16H171.3C171.122 304.195 170.938 304.195 170.76 304.16C170.58 304.113 170.413 304.028 170.27 303.91C170.201 303.836 170.15 303.747 170.12 303.65C170.096 303.548 170.096 303.442 170.12 303.34V300.78L169.5 300.7Z" fill="#35416B"/>
<path fill-rule="evenodd" clip-rule="evenodd" d="M173.61 299.89V302.39C173.606 302.567 173.636 302.744 173.7 302.91C173.753 303.016 173.836 303.103 173.94 303.16C174.044 303.215 174.163 303.236 174.28 303.22C174.437 303.237 174.595 303.202 174.73 303.12C174.865 303.038 174.97 302.916 175.03 302.77C175.116 302.568 175.154 302.349 175.14 302.13V299.87H176.24V304H175.24V303.41L175.16 303.53C175.121 303.59 175.074 303.644 175.02 303.69C174.869 303.83 174.693 303.939 174.5 304.01C174.318 304.062 174.129 304.089 173.94 304.09C173.692 304.117 173.442 304.069 173.222 303.951C173.003 303.833 172.824 303.652 172.71 303.43C172.571 303.088 172.509 302.719 172.53 302.35V299.85L173.61 299.89Z" fill="#35416B"/>
<path fill-rule="evenodd" clip-rule="evenodd" d="M179.67 299.8V300.91H179.35C179.179 300.893 179.007 300.921 178.85 300.99C178.692 301.068 178.561 301.189 178.47 301.34C178.37 301.573 178.328 301.827 178.35 302.08V304.08H177.27V299.9H178.27V300.63C178.385 300.417 178.533 300.225 178.71 300.06C178.933 299.88 179.214 299.788 179.5 299.8H179.67Z" fill="#35416B"/>
<path fill-rule="evenodd" clip-rule="evenodd" d="M181.1 301.55H182.78C182.782 301.307 182.689 301.074 182.52 300.9C182.446 300.822 182.353 300.763 182.25 300.73C182.152 300.689 182.046 300.669 181.94 300.67C181.831 300.663 181.722 300.68 181.62 300.72C181.522 300.766 181.433 300.83 181.36 300.91C181.211 301.092 181.12 301.315 181.1 301.55ZM183.56 300.55C183.722 300.812 183.827 301.105 183.87 301.41C183.89 301.683 183.89 301.957 183.87 302.23H181.04C181.028 302.398 181.059 302.567 181.13 302.72C181.196 302.873 181.299 303.007 181.43 303.11C181.585 303.21 181.765 303.266 181.95 303.27C182.151 303.279 182.348 303.211 182.5 303.08C182.583 302.996 182.651 302.898 182.7 302.79H183.8C183.78 303.078 183.66 303.351 183.46 303.56C183.277 303.77 183.048 303.934 182.79 304.04C182.533 304.142 182.256 304.186 181.98 304.17C181.466 304.173 180.968 303.988 180.58 303.65C180.364 303.436 180.2 303.176 180.1 302.89C179.992 302.603 179.95 302.295 179.98 301.99C179.933 301.393 180.119 300.802 180.5 300.34C180.682 300.148 180.904 299.998 181.15 299.9C181.39 299.799 181.65 299.751 181.91 299.76C182.231 299.756 182.549 299.824 182.84 299.96C183.136 300.092 183.386 300.307 183.56 300.58V300.55Z" fill="#35416B"/>
<path fill-rule="evenodd" clip-rule="evenodd" d="M186.37 300.7V300H186.95V298.84H188V300H188.67V300.77H188V302.97C187.985 303.08 188.006 303.193 188.06 303.29C188.187 303.34 188.324 303.36 188.46 303.35H188.67V304.16H188.15C187.969 304.2 187.781 304.2 187.6 304.16C187.421 304.117 187.253 304.035 187.11 303.92C186.981 303.759 186.917 303.556 186.93 303.35V300.79L186.37 300.7Z" fill="#35416B"/>
<path fill-rule="evenodd" clip-rule="evenodd" d="M192.22 302C192.259 301.647 192.17 301.292 191.97 301C191.893 300.902 191.793 300.823 191.68 300.77C191.568 300.711 191.446 300.673 191.32 300.66C191.191 300.652 191.062 300.669 190.94 300.71C190.822 300.748 190.713 300.809 190.62 300.89L190.51 301C190.349 301.294 190.265 301.624 190.265 301.96C190.265 302.295 190.349 302.626 190.51 302.92C190.591 303.017 190.689 303.099 190.8 303.16C190.914 303.213 191.035 303.247 191.16 303.26C191.282 303.285 191.408 303.285 191.53 303.26C191.651 303.218 191.763 303.154 191.86 303.07C191.902 303.038 191.939 303.001 191.97 302.96C192.161 302.678 192.25 302.339 192.22 302ZM191.22 304.21C190.924 304.232 190.627 304.187 190.35 304.08C190.077 303.961 189.832 303.788 189.63 303.57C189.292 303.12 189.11 302.572 189.11 302.01C189.11 301.447 189.292 300.9 189.63 300.45C190.054 300.028 190.627 299.791 191.225 299.791C191.823 299.791 192.396 300.028 192.82 300.45C193.151 300.902 193.33 301.449 193.33 302.01C193.33 302.571 193.151 303.117 192.82 303.57C192.623 303.787 192.38 303.957 192.11 304.07C191.841 304.181 191.55 304.229 191.26 304.21H191.22Z" fill="#35416B"/>
<path fill-rule="evenodd" clip-rule="evenodd" d="M198.22 300.74C198.041 300.729 197.864 300.782 197.72 300.89C197.571 300.99 197.461 301.138 197.41 301.31C197.328 301.551 197.291 301.805 197.3 302.06C197.277 302.246 197.301 302.435 197.37 302.61C197.428 302.789 197.535 302.949 197.68 303.07C197.836 303.187 198.025 303.25 198.22 303.25C198.355 303.251 198.489 303.22 198.61 303.16C198.73 303.099 198.833 303.01 198.91 302.9C199.061 302.626 199.14 302.318 199.14 302.005C199.14 301.692 199.061 301.384 198.91 301.11C198.838 300.993 198.734 300.899 198.61 300.84C198.491 300.772 198.357 300.738 198.22 300.74ZM200.22 301.91C200.262 302.507 200.088 303.1 199.73 303.58C199.577 303.767 199.382 303.914 199.16 304.01C198.94 304.109 198.701 304.16 198.46 304.16C198.167 304.163 197.881 304.076 197.64 303.91C197.506 303.796 197.391 303.661 197.3 303.51V305.67H196.22V299.89H197.22V300.5C197.324 300.341 197.448 300.196 197.59 300.07C197.839 299.888 198.141 299.793 198.45 299.8C198.68 299.793 198.909 299.837 199.12 299.93C199.332 300.02 199.522 300.153 199.68 300.32C199.865 300.538 200.006 300.791 200.093 301.064C200.181 301.337 200.214 301.624 200.19 301.91H200.22Z" fill="#35416B"/>
<path fill-rule="evenodd" clip-rule="evenodd" d="M201.84 301.55H203.51C203.507 301.31 203.419 301.08 203.26 300.9C203.186 300.822 203.093 300.763 202.99 300.73C202.891 300.691 202.786 300.67 202.68 300.67C202.57 300.665 202.46 300.685 202.36 300.73C202.259 300.771 202.167 300.832 202.09 300.91C201.944 301.093 201.857 301.316 201.84 301.55ZM204.29 300.55C204.456 300.81 204.562 301.104 204.6 301.41C204.625 301.683 204.625 301.957 204.6 302.23H201.77C201.758 302.398 201.789 302.567 201.86 302.72C201.926 302.873 202.029 303.007 202.16 303.11C202.314 303.213 202.495 303.269 202.68 303.27C202.878 303.279 203.072 303.211 203.22 303.08C203.301 302.994 203.369 302.896 203.42 302.79H204.53C204.501 303.076 204.382 303.346 204.19 303.56C204.001 303.768 203.769 303.932 203.51 304.04C203.253 304.144 202.976 304.188 202.7 304.17C202.189 304.173 201.694 303.988 201.31 303.65C201.091 303.437 200.923 303.177 200.82 302.89C200.72 302.601 200.679 302.295 200.7 301.99C200.661 301.389 200.859 300.797 201.25 300.34C201.431 300.149 201.65 299.999 201.893 299.899C202.136 299.799 202.397 299.752 202.66 299.76C202.981 299.756 203.299 299.824 203.59 299.96C203.879 300.094 204.122 300.31 204.29 300.58V300.55Z" fill="#35416B"/>
<path fill-rule="evenodd" clip-rule="evenodd" d="M207.76 299.8V300.91H207.45C207.279 300.893 207.107 300.921 206.95 300.99C206.792 301.068 206.661 301.189 206.57 301.34C206.474 301.574 206.433 301.827 206.45 302.08V304.08H205.36V299.9H206.36V300.63C206.478 300.42 206.626 300.227 206.8 300.06C207.023 299.88 207.304 299.788 207.59 299.8H207.76Z" fill="#35416B"/>
<path fill-rule="evenodd" clip-rule="evenodd" d="M210.87 301.38C210.849 301.23 210.794 301.086 210.71 300.96C210.643 300.875 210.558 300.806 210.46 300.76C210.358 300.736 210.252 300.736 210.15 300.76C209.983 300.752 209.819 300.797 209.68 300.89C209.549 300.988 209.451 301.124 209.4 301.28C209.319 301.528 209.282 301.789 209.29 302.05C209.282 302.301 209.319 302.552 209.4 302.79C209.443 302.944 209.539 303.078 209.67 303.17C209.8 303.265 209.959 303.314 210.12 303.31C210.216 303.33 210.314 303.33 210.41 303.31C210.5 303.278 210.579 303.223 210.64 303.15C210.755 302.999 210.824 302.819 210.84 302.63H211.94C211.912 302.969 211.79 303.295 211.59 303.57C211.418 303.808 211.187 303.998 210.92 304.12C210.659 304.248 210.369 304.303 210.08 304.28C209.804 304.306 209.526 304.265 209.27 304.16C209.016 304.058 208.789 303.897 208.61 303.69C208.273 303.242 208.107 302.689 208.14 302.13C208.103 301.531 208.288 300.94 208.66 300.47C208.838 300.266 209.06 300.105 209.31 300C209.557 299.897 209.823 299.853 210.09 299.87C210.543 299.849 210.991 299.972 211.37 300.22C211.553 300.37 211.701 300.559 211.801 300.774C211.902 300.988 211.952 301.223 211.95 301.46L210.87 301.38Z" fill="#35416B"/>
<path fill-rule="evenodd" clip-rule="evenodd" d="M213.51 301.55H215.19C215.192 301.308 215.099 301.074 214.93 300.9C214.856 300.822 214.763 300.763 214.66 300.73C214.562 300.689 214.456 300.669 214.35 300.67C214.241 300.663 214.132 300.68 214.03 300.72C213.932 300.766 213.843 300.83 213.77 300.91C213.621 301.092 213.53 301.315 213.51 301.55ZM215.97 300.55C216.132 300.812 216.237 301.105 216.28 301.41C216.3 301.683 216.3 301.957 216.28 302.23H213.45C213.438 302.398 213.469 302.567 213.54 302.72C213.606 302.873 213.709 303.007 213.84 303.11C213.995 303.21 214.175 303.266 214.36 303.27C214.55 303.27 214.734 303.202 214.88 303.08C214.97 303.001 215.038 302.902 215.08 302.79H216.19C216.142 303.075 216.006 303.337 215.8 303.54C215.61 303.739 215.382 303.899 215.13 304.01C214.87 304.116 214.59 304.164 214.31 304.15C213.899 304.169 213.493 304.053 213.154 303.82C212.814 303.588 212.56 303.25 212.43 302.86C212.329 302.575 212.291 302.271 212.32 301.97C212.273 301.37 212.459 300.775 212.84 300.31C213.019 300.118 213.238 299.967 213.482 299.869C213.725 299.77 213.988 299.726 214.25 299.74C214.57 299.732 214.888 299.797 215.18 299.93C215.515 300.056 215.801 300.283 216 300.58L215.97 300.55Z" fill="#35416B"/>
<path fill-rule="evenodd" clip-rule="evenodd" d="M220.82 301.24V304H219.71V301.47C219.718 301.293 219.691 301.116 219.63 300.95C219.567 300.845 219.477 300.759 219.37 300.7C219.262 300.646 219.14 300.625 219.02 300.64C218.862 300.62 218.701 300.659 218.57 300.75C218.429 300.832 218.32 300.959 218.26 301.11C218.183 301.311 218.146 301.525 218.15 301.74V304H217.08V299.84H218.08V300.44C218.189 300.27 218.324 300.118 218.48 299.99C218.722 299.811 219.019 299.719 219.32 299.73C219.682 299.728 220.034 299.848 220.32 300.07C220.475 300.213 220.595 300.391 220.67 300.589C220.744 300.787 220.772 301 220.75 301.21L220.82 301.24Z" fill="#35416B"/>
<path fill-rule="evenodd" clip-rule="evenodd" d="M221.37 300.7V300H221.94V298.84H223V300H223.67V300.77H223V302.97C222.985 303.08 223.006 303.193 223.06 303.29C223.187 303.34 223.324 303.361 223.46 303.35H223.67V304.16H223.15C222.972 304.195 222.788 304.195 222.61 304.16C222.43 304.113 222.263 304.028 222.12 303.91C222.051 303.836 222 303.747 221.97 303.65C221.946 303.548 221.946 303.442 221.97 303.34V300.78L221.37 300.7Z" fill="#35416B"/>
<path fill-rule="evenodd" clip-rule="evenodd" d="M226.67 302C226.604 302.044 226.534 302.081 226.46 302.11L226.17 302.19H225.93C225.759 302.209 225.593 302.26 225.44 302.34C225.358 302.386 225.291 302.455 225.25 302.54C225.21 302.621 225.19 302.71 225.19 302.8C225.17 302.872 225.17 302.948 225.19 303.02C225.218 303.087 225.259 303.148 225.31 303.2C225.417 303.287 225.552 303.333 225.69 303.33C225.92 303.326 226.143 303.253 226.33 303.12C226.438 303.029 226.521 302.912 226.57 302.78C226.628 302.651 226.652 302.51 226.64 302.37L226.67 302ZM226.01 301.48C226.157 301.469 226.301 301.439 226.44 301.39C226.508 301.369 226.568 301.327 226.61 301.27C226.65 301.215 226.672 301.148 226.67 301.08C226.69 301.015 226.69 300.945 226.67 300.88C226.637 300.819 226.589 300.767 226.53 300.73C226.369 300.65 226.189 300.616 226.01 300.63C225.918 300.611 225.822 300.611 225.73 300.63C225.641 300.664 225.56 300.715 225.49 300.78C225.407 300.891 225.355 301.022 225.34 301.16H224.34C224.352 300.839 224.46 300.529 224.65 300.27C224.835 300.069 225.064 299.915 225.32 299.82C225.574 299.722 225.849 299.687 226.12 299.72C226.539 299.714 226.953 299.807 227.33 299.99C227.509 300.091 227.652 300.245 227.74 300.43C227.838 300.614 227.877 300.823 227.85 301.03V303.41C227.845 303.51 227.865 303.61 227.91 303.7C227.954 303.754 228.008 303.798 228.07 303.83V303.99H226.89C226.862 303.911 226.839 303.831 226.82 303.75C226.83 303.667 226.83 303.583 226.82 303.5C226.67 303.663 226.494 303.802 226.3 303.91C226.06 304.049 225.787 304.121 225.51 304.12C225.17 304.128 224.839 304.011 224.58 303.79C224.457 303.674 224.361 303.532 224.298 303.375C224.236 303.218 224.209 303.049 224.22 302.88C224.203 302.659 224.248 302.437 224.35 302.24C224.455 302.042 224.615 301.879 224.81 301.77C225.12 301.61 225.462 301.522 225.81 301.51L226.01 301.48Z" fill="#35416B"/>
<path fill-rule="evenodd" clip-rule="evenodd" d="M231.39 302C231.41 301.68 231.322 301.363 231.14 301.1C231.059 300.999 230.956 300.917 230.84 300.86C230.724 300.806 230.597 300.782 230.47 300.79C230.3 300.782 230.132 300.827 229.99 300.92C229.851 301.014 229.745 301.151 229.69 301.31C229.61 301.535 229.569 301.771 229.57 302.01C229.57 302.232 229.611 302.452 229.69 302.66C229.752 302.819 229.863 302.955 230.007 303.048C230.15 303.141 230.319 303.187 230.49 303.18C230.611 303.178 230.73 303.151 230.84 303.1C230.951 303.057 231.048 302.984 231.12 302.89C231.316 302.636 231.412 302.32 231.39 302ZM230.76 299.92C231.034 300.039 231.257 300.252 231.39 300.52V299.92H232.39V303.86C232.421 304.281 232.327 304.702 232.12 305.07C231.906 305.324 231.633 305.522 231.324 305.644C231.015 305.766 230.68 305.809 230.35 305.77C229.896 305.787 229.447 305.68 229.05 305.46C228.891 305.358 228.758 305.221 228.66 305.06C228.562 304.9 228.507 304.717 228.5 304.53H229.67C229.69 304.634 229.742 304.728 229.82 304.8C229.993 304.918 230.202 304.972 230.41 304.95C230.565 304.968 230.721 304.94 230.86 304.87C230.997 304.8 231.111 304.692 231.19 304.56C231.294 304.289 231.339 303.999 231.32 303.71V303.45C231.239 303.605 231.127 303.741 230.99 303.85C230.745 304.022 230.449 304.107 230.15 304.09C229.91 304.102 229.67 304.058 229.45 303.96C229.227 303.867 229.031 303.719 228.88 303.53C228.54 303.099 228.369 302.558 228.4 302.01C228.38 301.454 228.542 300.906 228.86 300.45C229.006 300.246 229.202 300.084 229.43 299.98C229.634 299.892 229.853 299.846 230.075 299.846C230.297 299.846 230.516 299.892 230.72 299.98L230.76 299.92Z" fill="#35416B"/>
<path fill-rule="evenodd" clip-rule="evenodd" d="M234.25 301.55H235.93C235.932 301.307 235.839 301.074 235.67 300.9C235.596 300.822 235.503 300.763 235.4 300.73C235.302 300.69 235.196 300.669 235.09 300.67C234.981 300.661 234.871 300.678 234.77 300.72C234.672 300.766 234.583 300.83 234.51 300.91C234.361 301.092 234.27 301.315 234.25 301.55ZM236.7 300.55C236.869 300.809 236.978 301.103 237.02 301.41C237.04 301.683 237.04 301.957 237.02 302.23H234.19C234.178 302.398 234.209 302.567 234.28 302.72C234.346 302.873 234.449 303.007 234.58 303.11C234.735 303.21 234.915 303.266 235.1 303.27C235.29 303.27 235.474 303.202 235.62 303.08C235.701 302.994 235.769 302.896 235.82 302.79H236.92C236.876 303.074 236.743 303.337 236.54 303.54C236.349 303.742 236.117 303.902 235.86 304.01C235.604 304.116 235.327 304.164 235.05 304.15C234.539 304.153 234.044 303.968 233.66 303.63C233.443 303.411 233.276 303.149 233.17 302.86C233.07 302.574 233.029 302.272 233.05 301.97C233.003 301.37 233.189 300.775 233.57 300.31C233.752 300.119 233.973 299.969 234.218 299.87C234.463 299.772 234.726 299.728 234.99 299.74C235.31 299.733 235.628 299.798 235.92 299.93C236.245 300.054 236.519 300.283 236.7 300.58V300.55Z" fill="#35416B"/>
<path fill-rule="evenodd" clip-rule="evenodd" d="M242.78 302C242.81 301.647 242.719 301.294 242.52 301C242.443 300.902 242.343 300.823 242.23 300.77C242.119 300.708 241.996 300.671 241.87 300.66C241.745 300.651 241.619 300.668 241.5 300.71C241.38 300.75 241.268 300.811 241.17 300.89L241.06 301C240.899 301.294 240.815 301.624 240.815 301.96C240.815 302.296 240.899 302.626 241.06 302.92C241.141 303.021 241.244 303.103 241.36 303.16C241.473 303.214 241.595 303.248 241.72 303.26C241.842 303.285 241.968 303.285 242.09 303.26C242.21 303.217 242.322 303.152 242.42 303.07C242.458 303.038 242.492 303.001 242.52 302.96C242.71 302.677 242.801 302.34 242.78 302ZM241.78 304.21C241.483 304.235 241.185 304.191 240.909 304.079C240.633 303.968 240.386 303.794 240.19 303.57C239.852 303.12 239.67 302.573 239.67 302.01C239.67 301.447 239.852 300.9 240.19 300.45C240.612 300.029 241.184 299.792 241.78 299.792C242.376 299.792 242.948 300.029 243.37 300.45C243.708 300.9 243.89 301.447 243.89 302.01C243.89 302.573 243.708 303.12 243.37 303.57C243.17 303.79 242.924 303.964 242.65 304.08C242.377 304.174 242.087 304.208 241.8 304.18L241.78 304.21Z" fill="#35416B"/>
<path fill-rule="evenodd" clip-rule="evenodd" d="M246.63 298.39V299.28H246.32C246.246 299.25 246.164 299.25 246.09 299.28C246.021 299.328 245.971 299.399 245.95 299.48V300H246.66V300.77H246V304.12H244.92V300.77H244.32V300H244.91V299.73C244.88 299.409 244.961 299.088 245.14 298.82C245.29 298.57 245.67 298.44 246.27 298.44H246.68L246.63 298.39Z" fill="#35416B"/>
<path fill-rule="evenodd" clip-rule="evenodd" d="M250.52 299.89V302.39C250.512 302.567 250.539 302.743 250.6 302.91C250.655 303.014 250.738 303.1 250.84 303.16C250.945 303.214 251.063 303.235 251.18 303.22C251.337 303.238 251.496 303.203 251.63 303.12C251.767 303.039 251.876 302.916 251.94 302.77C252.022 302.567 252.059 302.349 252.05 302.13V299.87H253.14V304H252.14V303.41L252.07 303.53C252.031 303.592 251.98 303.647 251.92 303.69C251.769 303.83 251.593 303.939 251.4 304.01C251.221 304.062 251.036 304.089 250.85 304.09C250.601 304.12 250.349 304.071 250.13 303.95C249.91 303.83 249.73 303.65 249.61 303.43C249.471 303.088 249.409 302.719 249.43 302.35V299.85L250.52 299.89Z" fill="#35416B"/>
<path fill-rule="evenodd" clip-rule="evenodd" d="M255 302.72C255.01 302.868 255.063 303.01 255.15 303.13C255.254 303.211 255.373 303.272 255.5 303.31C255.628 303.34 255.762 303.34 255.89 303.31C256.068 303.321 256.246 303.29 256.41 303.22C256.465 303.195 256.513 303.157 256.55 303.11C256.58 303.061 256.601 303.007 256.61 302.95C256.625 302.894 256.625 302.836 256.61 302.78C256.581 302.728 256.54 302.683 256.49 302.65C256.124 302.507 255.746 302.4 255.36 302.33C254.998 302.258 254.657 302.108 254.36 301.89C254.264 301.793 254.189 301.677 254.14 301.55C254.088 301.42 254.064 301.28 254.07 301.14C254.069 300.95 254.11 300.762 254.19 300.589C254.269 300.417 254.385 300.263 254.53 300.14C254.882 299.847 255.333 299.7 255.79 299.73C256.23 299.716 256.666 299.823 257.05 300.04C257.222 300.162 257.362 300.323 257.46 300.51C257.56 300.694 257.611 300.9 257.61 301.11H256.53C256.521 300.991 256.479 300.877 256.41 300.78C256.335 300.7 256.243 300.638 256.14 300.6C256.031 300.575 255.919 300.575 255.81 300.6C255.629 300.581 255.447 300.619 255.29 300.71C255.246 300.739 255.209 300.776 255.18 300.82C255.166 300.869 255.166 300.921 255.18 300.97C255.162 301.022 255.162 301.078 255.18 301.13C255.207 301.179 255.249 301.217 255.3 301.24C255.665 301.37 256.039 301.471 256.42 301.54C256.787 301.605 257.132 301.764 257.42 302C257.523 302.102 257.604 302.223 257.659 302.357C257.714 302.491 257.742 302.635 257.74 302.78C257.75 302.973 257.712 303.165 257.63 303.34C257.552 303.516 257.431 303.67 257.28 303.79C256.87 304.081 256.371 304.219 255.87 304.18C255.356 304.229 254.842 304.082 254.43 303.77C254.28 303.641 254.161 303.48 254.08 303.3C254.001 303.12 253.96 302.926 253.96 302.73L255 302.72Z" fill="#35416B"/>
<path fill-rule="evenodd" clip-rule="evenodd" d="M259.3 301.55H261C260.997 301.31 260.908 301.08 260.75 300.9C260.675 300.822 260.583 300.763 260.48 300.73C260.378 300.69 260.269 300.67 260.16 300.67C260.054 300.662 259.948 300.679 259.85 300.72C259.75 300.768 259.659 300.832 259.58 300.91C259.424 301.09 259.326 301.313 259.3 301.55ZM261.76 300.55C261.922 300.812 262.027 301.105 262.07 301.41C262.09 301.683 262.09 301.957 262.07 302.23H259.23C259.218 302.398 259.249 302.567 259.32 302.72C259.391 302.873 259.497 303.006 259.63 303.11C259.784 303.213 259.965 303.269 260.15 303.27C260.338 303.274 260.52 303.206 260.66 303.08C260.75 302.999 260.821 302.9 260.87 302.79H261.97C261.926 303.074 261.793 303.337 261.59 303.54C261.398 303.742 261.167 303.902 260.91 304.01C260.654 304.116 260.377 304.164 260.1 304.15C259.589 304.153 259.094 303.968 258.71 303.63C258.493 303.411 258.326 303.149 258.22 302.86C258.12 302.574 258.079 302.272 258.1 301.97C258.058 301.371 258.243 300.778 258.62 300.31C258.802 300.119 259.023 299.969 259.268 299.87C259.513 299.772 259.776 299.728 260.04 299.74C260.36 299.733 260.678 299.798 260.97 299.93C261.268 300.062 261.521 300.277 261.7 300.55H261.76Z" fill="#35416B"/>
<path fill-rule="evenodd" clip-rule="evenodd" d="M265.23 299.8V300.91H264.92C264.748 300.889 264.574 300.92 264.42 301C264.261 301.071 264.128 301.19 264.04 301.34C263.941 301.574 263.897 301.827 263.91 302.08V304.08H262.8V299.9H263.8V300.63C263.918 300.42 264.066 300.228 264.24 300.06C264.463 299.881 264.744 299.789 265.03 299.8H265.23Z" fill="#35416B"/>
<path fill-rule="evenodd" clip-rule="evenodd" d="M266.71 302.72C266.712 302.868 266.761 303.012 266.85 303.13C266.957 303.208 267.075 303.268 267.2 303.31C267.332 303.34 267.468 303.34 267.6 303.31C267.778 303.32 267.956 303.289 268.12 303.22C268.17 303.192 268.214 303.154 268.25 303.11C268.279 303.06 268.299 303.006 268.31 302.95C268.325 302.894 268.325 302.836 268.31 302.78C268.281 302.728 268.24 302.683 268.19 302.65C267.824 302.507 267.446 302.4 267.06 302.33C266.698 302.26 266.356 302.11 266.06 301.89C265.961 301.794 265.882 301.678 265.83 301.55C265.782 301.419 265.761 301.279 265.77 301.14C265.769 300.953 265.81 300.769 265.89 300.6C265.967 300.429 266.08 300.275 266.22 300.15C266.577 299.858 267.03 299.712 267.49 299.74C267.93 299.726 268.366 299.833 268.75 300.05C268.922 300.172 269.063 300.333 269.16 300.52C269.26 300.704 269.312 300.911 269.31 301.12H268.23C268.225 301 268.183 300.885 268.11 300.79C268.031 300.71 267.936 300.648 267.83 300.61C267.721 300.584 267.609 300.584 267.5 300.61C267.323 300.59 267.143 300.629 266.99 300.72C266.946 300.749 266.909 300.786 266.88 300.83C266.866 300.879 266.866 300.931 266.88 300.98C266.866 301.032 266.866 301.088 266.88 301.14C266.914 301.187 266.958 301.225 267.01 301.25C267.375 301.38 267.749 301.481 268.13 301.55C268.497 301.615 268.842 301.774 269.13 302.01C269.233 302.112 269.314 302.233 269.369 302.367C269.424 302.501 269.452 302.645 269.45 302.79C269.46 302.983 269.422 303.175 269.34 303.35C269.261 303.526 269.141 303.681 268.99 303.8C268.559 304.062 268.064 304.197 267.56 304.19C267.058 304.185 266.567 304.043 266.14 303.78C265.99 303.651 265.871 303.49 265.79 303.31C265.711 303.13 265.67 302.936 265.67 302.74L266.71 302.72Z" fill="#35416B"/>
<path d="M127.51 211.62H209.29V221.85H127.51V211.62Z" stroke="#35416B" stroke-linecap="round" stroke-linejoin="round"/>
<path d="M127.34 238.6H209.12V248.83H127.34V238.6Z" stroke="#35416B" stroke-linecap="round" stroke-linejoin="round"/>
<path fill-rule="evenodd" clip-rule="evenodd" d="M130.92 275.38H145.92C148.32 275.38 150.26 277.78 150.26 280.75C150.26 283.72 148.32 286.13 145.92 286.13H130.92C128.53 286.13 126.59 283.72 126.59 280.75C126.59 277.78 128.55 275.38 130.92 275.38Z" fill="#35416B"/>
<path fill-rule="evenodd" clip-rule="evenodd" d="M131.53 312.71H146.53C148.92 312.71 150.87 315.12 150.87 318.09C150.87 321.06 148.92 323.47 146.53 323.47H131.53C129.13 323.47 127.19 321.06 127.19 318.09C127.19 315.12 129.13 312.71 131.53 312.71Z" fill="#35416B"/>
<path fill-rule="evenodd" clip-rule="evenodd" d="M139.79 280.92C139.747 279.976 139.983 279.04 140.47 278.23C140.941 277.431 141.637 276.788 142.47 276.38C143.325 275.982 144.276 275.84 145.21 275.97C146.139 276.114 147.005 276.528 147.7 277.16C148.397 277.795 148.888 278.624 149.11 279.54C149.338 280.453 149.292 281.412 148.98 282.3C148.661 283.186 148.088 283.958 147.332 284.518C146.575 285.079 145.67 285.403 144.73 285.45H144.5C143.272 285.475 142.085 285.01 141.2 284.16C140.326 283.305 139.82 282.142 139.79 280.92Z" fill="white"/>
<path fill-rule="evenodd" clip-rule="evenodd" d="M140.4 318.25C140.369 317.549 140.493 316.851 140.763 316.204C141.034 315.557 141.444 314.978 141.965 314.508C142.486 314.039 143.104 313.691 143.776 313.488C144.447 313.286 145.155 313.235 145.848 313.339C146.542 313.443 147.204 313.699 147.787 314.089C148.369 314.479 148.859 314.993 149.219 315.594C149.58 316.196 149.803 316.869 149.872 317.567C149.941 318.265 149.855 318.969 149.62 319.63C149.304 320.518 148.732 321.293 147.975 321.856C147.218 322.418 146.312 322.743 145.37 322.79H145.13C143.904 322.804 142.722 322.336 141.837 321.487C140.953 320.638 140.437 319.475 140.4 318.25Z" fill="white"/>
<path fill-rule="evenodd" clip-rule="evenodd" d="M129.94 331.75H278.07C278.441 331.744 278.809 331.812 279.152 331.951C279.496 332.091 279.808 332.297 280.07 332.56C280.327 332.816 280.531 333.121 280.671 333.457C280.81 333.792 280.882 334.152 280.882 334.515C280.882 334.878 280.81 335.238 280.671 335.573C280.531 335.909 280.327 336.213 280.07 336.47C279.808 336.732 279.496 336.939 279.152 337.078C278.809 337.218 278.441 337.286 278.07 337.28H129.94C129.39 337.286 128.851 337.129 128.391 336.829C127.931 336.528 127.571 336.097 127.357 335.591C127.142 335.085 127.083 334.526 127.187 333.987C127.291 333.447 127.553 332.95 127.94 332.56C128.202 332.297 128.514 332.091 128.858 331.951C129.201 331.812 129.569 331.744 129.94 331.75Z" fill="#35416B"/>
<path fill-rule="evenodd" clip-rule="evenodd" d="M181.09 331.75H278.25C278.621 331.744 278.989 331.812 279.332 331.951C279.676 332.091 279.988 332.297 280.25 332.56C280.628 332.949 280.886 333.439 280.992 333.971C281.099 334.504 281.049 335.055 280.85 335.56C280.712 335.894 280.508 336.197 280.25 336.45C279.999 336.711 279.696 336.915 279.36 337.05C279.044 337.186 278.704 337.261 278.36 337.27H181.19C180.461 337.262 179.764 336.967 179.25 336.45C178.993 336.194 178.789 335.891 178.65 335.556C178.511 335.221 178.439 334.862 178.439 334.5C178.439 334.137 178.511 333.779 178.65 333.444C178.789 333.109 178.993 332.805 179.25 332.55C179.739 332.058 180.397 331.772 181.09 331.75Z" fill="#F7A501"/>
<path fill-rule="evenodd" clip-rule="evenodd" d="M176.88 334.53C176.869 333.975 177.029 333.43 177.34 332.97C177.639 332.503 178.071 332.137 178.58 331.92C179.089 331.706 179.65 331.647 180.192 331.75C180.735 331.854 181.235 332.114 181.63 332.5C182.027 332.888 182.299 333.386 182.41 333.93C182.519 334.472 182.47 335.034 182.27 335.55C182.059 336.057 181.713 336.496 181.27 336.82C180.813 337.13 180.273 337.298 179.72 337.3C179.353 337.301 178.989 337.229 178.65 337.09C178.312 336.953 178.006 336.749 177.75 336.49C177.224 335.957 176.929 335.239 176.93 334.49L176.88 334.53Z" fill="white" stroke="#35416B" stroke-width="2.5" stroke-linecap="round" stroke-linejoin="round"/>
<path fill-rule="evenodd" clip-rule="evenodd" d="M170.2 343.26H177.4L180.48 340.62L183.4 343.26H190.8V359.38H170.2V343.26Z" fill="#35416B"/>
<path fill-rule="evenodd" clip-rule="evenodd" d="M174.38 352.37C174.371 352.56 174.408 352.748 174.49 352.92C174.551 353.052 174.652 353.161 174.78 353.23C174.908 353.3 175.054 353.331 175.2 353.32C175.408 353.32 175.608 353.242 175.76 353.1C175.84 353.016 175.901 352.917 175.941 352.809C175.98 352.7 175.997 352.585 175.99 352.47C176.007 352.319 175.972 352.168 175.89 352.04C175.812 351.908 175.692 351.806 175.55 351.75C175.296 351.663 175.028 351.626 174.76 351.64V350.87C175.011 350.878 175.262 350.841 175.5 350.76C175.621 350.71 175.721 350.617 175.78 350.5C175.845 350.385 175.873 350.252 175.86 350.12C175.868 349.93 175.804 349.744 175.68 349.6C175.613 349.532 175.531 349.48 175.44 349.45C175.351 349.414 175.256 349.397 175.16 349.4C175.054 349.391 174.948 349.408 174.85 349.45C174.752 349.496 174.666 349.565 174.6 349.65C174.471 349.842 174.408 350.07 174.42 350.3H173.42C173.426 350.034 173.473 349.771 173.56 349.52C173.654 349.294 173.793 349.09 173.97 348.92C174.122 348.789 174.299 348.69 174.49 348.63C174.722 348.553 174.965 348.516 175.21 348.52C175.668 348.507 176.116 348.652 176.48 348.93C176.633 349.066 176.756 349.233 176.84 349.42C176.929 349.61 176.971 349.82 176.96 350.03C176.966 350.329 176.863 350.621 176.67 350.85C176.568 350.972 176.437 351.068 176.29 351.13C176.454 351.171 176.6 351.262 176.71 351.39C176.851 351.52 176.96 351.681 177.03 351.86C177.103 352.041 177.137 352.235 177.13 352.43C177.133 352.886 176.961 353.326 176.65 353.66C176.462 353.842 176.237 353.982 175.99 354.07C175.744 354.161 175.482 354.198 175.22 354.18C174.904 354.214 174.586 354.158 174.3 354.02C174.013 353.889 173.767 353.681 173.59 353.42C173.42 353.089 173.331 352.722 173.33 352.35L174.38 352.37Z" fill="white"/>
<path fill-rule="evenodd" clip-rule="evenodd" d="M179.57 353.32C179.718 353.319 179.862 353.27 179.98 353.18C180.093 353.082 180.167 352.947 180.19 352.8C180.39 351.833 180.39 350.836 180.19 349.87C180.161 349.73 180.083 349.606 179.97 349.52C179.857 349.43 179.715 349.384 179.57 349.39C179.422 349.382 179.276 349.428 179.16 349.52C179.041 349.602 178.959 349.728 178.93 349.87C178.72 350.835 178.72 351.834 178.93 352.8C178.953 352.95 179.031 353.086 179.15 353.18C179.27 353.272 179.418 353.321 179.57 353.32ZM181.46 351.32C181.495 352.038 181.347 352.754 181.03 353.4C180.86 353.632 180.637 353.821 180.38 353.95C180.124 354.074 179.844 354.139 179.56 354.14C179.276 354.135 178.997 354.071 178.74 353.95C178.485 353.818 178.262 353.63 178.09 353.4C177.813 352.734 177.67 352.021 177.67 351.3C177.67 350.579 177.813 349.865 178.09 349.2C178.235 349.001 178.418 348.835 178.63 348.71C178.838 348.583 179.069 348.498 179.31 348.46C179.548 348.415 179.792 348.415 180.03 348.46C180.265 348.523 180.486 348.632 180.68 348.78C180.823 348.886 180.948 349.014 181.05 349.16C181.376 349.817 181.524 350.548 181.48 351.28L181.46 351.32Z" fill="white"/>
<path fill-rule="evenodd" clip-rule="evenodd" d="M183.93 350C183.944 349.921 183.944 349.839 183.93 349.76C183.902 349.687 183.858 349.622 183.8 349.57C183.689 349.457 183.538 349.392 183.38 349.39C183.233 349.409 183.098 349.481 183 349.592C182.902 349.703 182.848 349.847 182.848 349.995C182.848 350.143 182.902 350.286 183 350.398C183.098 350.509 183.233 350.581 183.38 350.6C183.538 350.598 183.689 350.533 183.8 350.42C183.858 350.368 183.902 350.303 183.93 350.23C183.943 350.154 183.943 350.076 183.93 350ZM183.33 351.41C183.144 351.414 182.96 351.377 182.79 351.3C182.616 351.231 182.459 351.125 182.33 350.99C182.201 350.861 182.099 350.708 182.03 350.54C181.957 350.369 181.92 350.186 181.92 350C181.92 349.814 181.957 349.631 182.03 349.46C182.099 349.292 182.201 349.139 182.33 349.01C182.495 348.844 182.697 348.721 182.92 348.65C183.146 348.59 183.384 348.59 183.61 348.65C183.838 348.692 184.051 348.792 184.23 348.94C184.408 349.088 184.549 349.277 184.64 349.49C184.723 349.71 184.757 349.945 184.74 350.18C184.711 350.409 184.629 350.628 184.5 350.82C184.373 351.015 184.197 351.174 183.99 351.28C183.788 351.391 183.561 351.449 183.33 351.45V351.41ZM187.01 352.16C186.933 352.157 186.856 352.17 186.784 352.197C186.712 352.225 186.646 352.266 186.59 352.319C186.535 352.372 186.49 352.436 186.459 352.506C186.428 352.577 186.411 352.653 186.41 352.73C186.395 352.806 186.395 352.884 186.41 352.96C186.44 353.034 186.484 353.102 186.54 353.16C186.599 353.215 186.666 353.259 186.74 353.29C186.889 353.343 187.051 353.343 187.2 353.29C187.271 353.258 187.335 353.214 187.39 353.16C187.448 353.104 187.492 353.036 187.52 352.96C187.539 352.885 187.539 352.805 187.52 352.73C187.535 352.654 187.535 352.576 187.52 352.5C187.489 352.424 187.441 352.355 187.38 352.3C187.328 352.242 187.263 352.198 187.19 352.17C187.128 352.156 187.063 352.153 187 352.16H187.01ZM187.01 354.16C186.825 354.163 186.642 354.129 186.47 354.06C186.212 353.952 185.992 353.769 185.837 353.536C185.682 353.303 185.6 353.03 185.6 352.75C185.599 352.564 185.634 352.38 185.705 352.209C185.775 352.037 185.879 351.881 186.01 351.75C186.141 351.619 186.297 351.515 186.469 351.445C186.641 351.374 186.824 351.339 187.01 351.34C187.381 351.343 187.737 351.491 188.001 351.752C188.264 352.014 188.415 352.369 188.42 352.74C188.42 352.926 188.383 353.111 188.311 353.282C188.239 353.454 188.133 353.61 188 353.74C187.732 354.002 187.375 354.152 187 354.16H187.01ZM186.41 348.54H186.98L183.92 354.2H183.33L186.41 348.54Z" fill="white"/>
<path fill-rule="evenodd" clip-rule="evenodd" d="M136.25 369.7H259.11V403.49H136.25V369.7Z" fill="#35416B" stroke="#35416B" stroke-width="2.5" stroke-linecap="round" stroke-linejoin="round"/>
<path d="M148.34 381.35L244.54 381.44" stroke="#F96132" stroke-width="2.5" stroke-linecap="round" stroke-linejoin="round"/>
<path d="M148.66 389.91L214 390" stroke="#F96132" stroke-width="2.5" stroke-linecap="round" stroke-linejoin="round"/>
<path fill-rule="evenodd" clip-rule="evenodd" d="M392.27 53.1699H557C561.313 53.1755 565.528 54.4563 569.115 56.8513C572.703 59.2463 575.501 62.6484 577.16 66.6299C578.252 69.2786 578.816 72.1151 578.82 74.9799V380.34C578.82 384.654 577.542 388.872 575.149 392.461C572.755 396.051 569.353 398.851 565.37 400.51C562.727 401.608 559.892 402.172 557.03 402.17H392.27C387.957 402.168 383.742 400.889 380.154 398.496C376.567 396.103 373.768 392.701 372.11 388.72C371.018 386.071 370.454 383.235 370.45 380.37V74.9999C370.447 72.1346 371.01 69.2968 372.105 66.649C373.2 64.0011 374.806 61.5951 376.832 59.5685C378.857 57.5419 381.262 55.9346 383.91 54.8384C386.557 53.7422 389.395 53.1786 392.26 53.1799L392.27 53.1699Z" fill="#F7A501"/>
<path fill-rule="evenodd" clip-rule="evenodd" d="M456.4 146.82H495.61C501.394 146.831 506.936 149.137 511.02 153.232C515.104 157.327 517.395 162.877 517.39 168.66V285.19C517.393 288.055 516.831 290.891 515.736 293.539C514.642 296.186 513.037 298.591 511.012 300.618C508.987 302.644 506.583 304.252 503.937 305.349C501.291 306.445 498.454 307.01 495.59 307.01H456.4C450.615 307.008 445.067 304.714 440.97 300.63C438.943 298.603 437.335 296.195 436.238 293.546C435.142 290.897 434.578 288.057 434.58 285.19V168.66C434.579 165.793 435.142 162.954 436.238 160.305C437.334 157.656 438.941 155.249 440.967 153.221C442.993 151.193 445.399 149.584 448.047 148.486C450.695 147.387 453.533 146.821 456.4 146.82Z" fill="#F7A501" stroke="#35416B" stroke-width="2.5" stroke-linecap="round" stroke-linejoin="round"/>
<path d="M452.74 140.39H498.56C512.64 140.39 524.05 151.03 524.05 164.17V291.07C524.05 304.19 512.62 314.83 498.56 314.83H452.74C438.66 314.83 427.25 304.19 427.25 291.07V164.17C427.25 151 438.61 140.39 452.74 140.39Z" stroke="#35416B" stroke-width="2.5" stroke-linecap="round" stroke-linejoin="round"/>
<path fill-rule="evenodd" clip-rule="evenodd" d="M456.63 283.06H497.63C517.63 282.78 517.37 250.48 517.37 250.48C517.37 250.48 517.58 287.65 517.58 289.9C517.58 289.9 516.31 306.24 497.58 305.9H454.38C437.86 306.09 434.58 290.33 434.58 290.33C434.58 288.11 434.47 250.41 434.47 250.41C434.47 250.41 441.24 283.25 456.63 283.06Z" fill="#35416B" stroke="#35416B" stroke-width="2.5" stroke-linecap="round" stroke-linejoin="round"/>
<path fill-rule="evenodd" clip-rule="evenodd" d="M471.46 98.62C471.566 96.7599 471.053 94.9171 470 93.38C469.552 92.8627 469.014 92.4321 468.41 92.11C467.786 91.7952 467.107 91.605 466.41 91.55C465.728 91.4931 465.04 91.5716 464.388 91.7809C463.736 91.9903 463.132 92.3264 462.61 92.77C462.394 92.9606 462.191 93.1644 462 93.38C461.029 94.957 460.514 96.7728 460.514 98.625C460.514 100.477 461.029 102.293 462 103.87C462.441 104.395 462.982 104.827 463.592 105.141C464.201 105.455 464.867 105.645 465.55 105.7C466.225 105.756 466.905 105.678 467.55 105.47C468.202 105.253 468.806 104.914 469.33 104.47C469.546 104.279 469.749 104.076 469.94 103.86C471.02 102.334 471.556 100.488 471.46 98.62ZM472.61 106.92C470.754 108.445 468.427 109.279 466.025 109.279C463.623 109.279 461.295 108.445 459.44 106.92C457.44 105 456.38 102.24 456.38 98.62C456.38 95 457.38 92.17 459.44 90.32C461.295 88.7948 463.623 87.9609 466.025 87.9609C468.427 87.9609 470.754 88.7948 472.61 90.32C474.61 92.17 475.66 94.93 475.66 98.62C475.762 100.14 475.544 101.665 475.018 103.095C474.493 104.524 473.672 105.828 472.61 106.92Z" fill="white"/>
<path fill-rule="evenodd" clip-rule="evenodd" d="M478.8 88.5901H483.21L491.21 102.64V88.5901H495.13V108.71H490.93L482.71 94.4601V108.77H478.79L478.8 88.5901Z" fill="white"/>
<path fill-rule="evenodd" clip-rule="evenodd" d="M466.41 350.12C466.523 348.262 466.009 346.421 464.95 344.89C464.062 343.837 462.793 343.179 461.42 343.061C460.048 342.943 458.685 343.374 457.63 344.26C457.4 344.45 457.19 344.66 457 344.89C456.029 346.467 455.514 348.283 455.514 350.135C455.514 351.987 456.029 353.803 457 355.38C457.44 355.903 457.98 356.334 458.587 356.648C459.195 356.962 459.859 357.153 460.54 357.21C461.215 357.267 461.895 357.189 462.54 356.98C463.194 356.768 463.799 356.428 464.32 355.98C464.538 355.792 464.742 355.588 464.93 355.37C466.002 353.837 466.524 351.987 466.41 350.12ZM467.57 358.43C465.707 359.944 463.38 360.77 460.98 360.77C458.58 360.77 456.253 359.944 454.39 358.43C453.328 357.335 452.507 356.03 451.98 354.599C451.453 353.168 451.231 351.642 451.33 350.12C451.33 346.43 452.33 343.67 454.39 341.81C456.25 340.291 458.578 339.461 460.98 339.461C463.382 339.461 465.71 340.291 467.57 341.81C469.57 343.67 470.57 346.43 470.57 350.12C470.68 351.638 470.47 353.162 469.953 354.594C469.436 356.025 468.624 357.332 467.57 358.43Z" fill="#35416B"/>
<path fill-rule="evenodd" clip-rule="evenodd" d="M473.82 340.11H488.09V343.68H478V348.31H486.9V351.81H478V360.21H473.82V340.11Z" fill="#35416B"/>
<path fill-rule="evenodd" clip-rule="evenodd" d="M490.9 340.11H505.17V343.68H495.08V348.31H503.91V351.81H495.08V360.21H490.9V340.11Z" fill="#35416B"/>
<path d="M25.2299 32.6099C25.9223 31.7946 26.7687 31.1237 27.7205 30.6357C28.6723 30.1476 29.711 29.852 30.7771 29.7656C31.8433 29.6792 32.9161 29.8038 33.9341 30.1323C34.952 30.4608 35.8953 30.9867 36.7099 31.6799L67.4099 57.7899C69.0536 59.188 70.0749 61.1816 70.2493 63.3324C70.4237 65.4832 69.7368 67.6153 68.3399 69.2599C66.9418 70.9036 64.9482 71.9249 62.7974 72.0992C60.6466 72.2736 58.5146 71.5869 56.8699 70.1899L26.1599 44.0799C24.5162 42.6818 23.495 40.6882 23.3206 38.5374C23.1462 36.3866 23.8329 34.2546 25.2299 32.6099Z" fill="#F7A501"/>
<path d="M66.88 2.50009C68.8508 1.61909 71.0907 1.55601 73.108 2.32468C75.1253 3.09335 76.7552 4.63098 77.64 6.6001L94.11 43.3801C94.5476 44.3558 94.7887 45.4081 94.8194 46.477C94.8502 47.5459 94.67 48.6103 94.2893 49.6095C93.9085 50.6088 93.3346 51.5232 92.6003 52.3006C91.8661 53.0779 90.9859 53.703 90.01 54.1401C89.035 54.5775 87.9834 54.8184 86.9153 54.849C85.8471 54.8796 84.7834 54.6994 83.785 54.3186C82.7866 53.9378 81.8731 53.3639 81.0967 52.6298C80.3202 51.8956 79.6961 51.0156 79.26 50.0401L62.78 13.2501C62.3426 12.2751 62.1017 11.2235 62.0711 10.1554C62.0405 9.08727 62.2207 8.02357 62.6015 7.02515C62.9823 6.02673 63.5561 5.11315 64.2903 4.3367C65.0244 3.56025 65.9044 2.93616 66.88 2.50009Z" fill="#F7A501"/>
<path d="M0.739918 73.9999C1.34985 71.9303 2.75559 70.187 4.64891 69.1522C6.54224 68.1175 8.76865 67.8757 10.84 68.4799L49.5199 79.8099C51.5911 80.4176 53.3361 81.8229 54.3713 83.7169C55.4064 85.611 55.6469 87.8386 55.0399 89.9099C54.4323 91.9811 53.027 93.7261 51.1329 94.7613C49.2389 95.7964 47.0113 96.0369 44.9399 95.4299L6.25994 84.0999C4.18878 83.4923 2.44371 82.087 1.40856 80.1929C0.373403 78.2989 0.132902 76.0713 0.739918 73.9999Z" fill="#F7A501"/>
</svg>
