<svg width="1032" height="442" viewBox="0 0 1032 442" fill="none" xmlns="http://www.w3.org/2000/svg">
<rect x="1.00006" y="-12.8379" width="1036.08" height="449.169" fill="#F96132"/>
<path fill-rule="evenodd" clip-rule="evenodd" d="M885.608 148.46C893.178 147.448 900.82 147.056 908.456 147.286C920.795 147.695 934.977 150.094 934.977 150.094C937.581 150.18 939.587 151.681 939.462 153.42C939.336 155.182 937.118 156.541 934.514 156.456C926.046 155.182 917.515 154.356 908.957 153.98C901.011 153.769 893.06 154.053 885.15 154.831C882.546 154.745 880.536 153.249 880.666 151.505C880.791 149.733 883.004 148.374 885.608 148.46Z" fill="#F96132" stroke="#F96132" stroke-width="3.11" stroke-linecap="round" stroke-linejoin="round"/>
<path fill-rule="evenodd" clip-rule="evenodd" d="M795.86 300.182V236.695L859.498 237.188L795.86 300.182Z" fill="white"/>
<path fill-rule="evenodd" clip-rule="evenodd" d="M971.153 184.191L1034.6 183.834L1034.42 247.51L971.153 184.191Z" fill="white"/>
<path fill-rule="evenodd" clip-rule="evenodd" d="M914.078 305.301L914.686 368.788L851.048 368.851L914.078 305.301Z" fill="white"/>
<path fill-rule="evenodd" clip-rule="evenodd" d="M1034.36 314.952L1034.7 378.439L971.059 378.24L1034.36 314.952Z" fill="white"/>
<path fill-rule="evenodd" clip-rule="evenodd" d="M1034.49 244.29L1034.7 307.777L971.059 307.452L1034.49 244.29Z" fill="white"/>
<path fill-rule="evenodd" clip-rule="evenodd" d="M913.984 183.792L977.433 183.844L976.857 247.51L913.984 183.792Z" fill="white"/>
<path fill-rule="evenodd" clip-rule="evenodd" d="M796.563 236.946L795.797 173.47L859.446 173.228L796.563 236.946Z" fill="white"/>
<path fill-rule="evenodd" clip-rule="evenodd" d="M1034.55 378.439L1034.75 441.927L971.111 441.601L1034.55 378.439Z" fill="white"/>
<path fill-rule="evenodd" clip-rule="evenodd" d="M851.237 177.529L913.921 177.078L913.984 114.21L851.237 177.529Z" fill="white"/>
<path fill-rule="evenodd" clip-rule="evenodd" d="M912.023 436.765L974.708 436.524L975.033 373.666L912.023 436.765Z" fill="white"/>
<path fill-rule="evenodd" clip-rule="evenodd" d="M977.434 177.729L976.888 115.007H914.057L977.434 177.729Z" fill="white"/>
<path fill-rule="evenodd" clip-rule="evenodd" d="M976.353 368.484L975.871 305.752L913.04 305.668L976.353 368.484Z" fill="white"/>
<path fill-rule="evenodd" clip-rule="evenodd" d="M977.098 243.954L914.403 244.583L914.466 307.441L977.098 243.954Z" fill="white"/>
<path fill-rule="evenodd" clip-rule="evenodd" d="M127.648 34.5035L195.396 34.7835L194.534 102.773L127.648 34.5035Z" fill="white"/>
<path fill-rule="evenodd" clip-rule="evenodd" d="M263.121 -35.1662L263.345 32.6218L195.396 32.2633L263.121 -35.1662Z" fill="white"/>
<path fill-rule="evenodd" clip-rule="evenodd" d="M263.121 35.1083L263.345 102.896L195.396 102.538L263.121 35.1083Z" fill="white"/>
<path fill-rule="evenodd" clip-rule="evenodd" d="M59.3407 101.485L126.271 102.247L127.648 35.142L59.3407 101.485Z" fill="white"/>
<path fill-rule="evenodd" clip-rule="evenodd" d="M0 35.1532L0.761133 102.123L67.8484 101.967L0 35.1532Z" fill="white"/>
<path fill-rule="evenodd" clip-rule="evenodd" d="M261.912 34.8059L328.854 34.5483L329.201 -32.5676L261.912 34.8059Z" fill="white"/>
<path fill-rule="evenodd" clip-rule="evenodd" d="M67.6357 -25.3879L0.559703 -25.1302L0.212616 41.8401L67.6357 -25.3879Z" fill="white"/>
<path fill-rule="evenodd" clip-rule="evenodd" d="M59.3407 101.485L59.6877 168.455L126.764 168.713L59.3407 101.485Z" fill="white"/>
<path fill-rule="evenodd" clip-rule="evenodd" d="M195.53 169.508L194.601 102.538L127.514 102.863L195.53 169.508Z" fill="white"/>
</svg>
