<svg width="1032" height="467" viewBox="0 0 1032 467" fill="none" xmlns="http://www.w3.org/2000/svg">
<rect width="1036" height="449" fill="#F96132"/>
<path fill-rule="evenodd" clip-rule="evenodd" d="M584.9 194.832L584.9 127.089L652.864 127.705L584.9 194.832Z" fill="white"/>
<path fill-rule="evenodd" clip-rule="evenodd" d="M781.324 330.362L781.604 262.619L849.568 263.481L781.324 330.362Z" fill="white"/>
<path fill-rule="evenodd" clip-rule="evenodd" d="M711.68 194.899L779.443 194.675L779.084 262.619L711.68 194.899Z" fill="white"/>
<path fill-rule="evenodd" clip-rule="evenodd" d="M377.693 262.519L377.313 194.776L445.277 194.966L377.693 262.519Z" fill="white"/>
<path fill-rule="evenodd" clip-rule="evenodd" d="M517.26 195.033L585.023 194.675L584.81 262.619L517.26 195.033Z" fill="white"/>
<path fill-rule="evenodd" clip-rule="evenodd" d="M441.839 194.899L509.602 194.675L509.255 262.619L441.839 194.899Z" fill="white"/>
<path fill-rule="evenodd" clip-rule="evenodd" d="M377.268 323.556L377.324 255.814L445.277 256.429L377.268 323.556Z" fill="white"/>
<path fill-rule="evenodd" clip-rule="evenodd" d="M781.928 194.899L849.691 194.675L849.333 262.619L781.928 194.899Z" fill="white"/>
<path fill-rule="evenodd" clip-rule="evenodd" d="M585.023 194.832L652.785 194.619L652.438 262.563L585.023 194.832Z" fill="white"/>
<path fill-rule="evenodd" clip-rule="evenodd" d="M848.28 398.664L849.041 331.739L781.962 330.362L848.28 398.664Z" fill="white"/>
<path fill-rule="evenodd" clip-rule="evenodd" d="M647.4 194.832L714.345 194.082L714.199 127L647.4 194.832Z" fill="white"/>
<path fill-rule="evenodd" clip-rule="evenodd" d="M647.277 325.649L647.019 258.724L579.928 258.377L647.277 325.649Z" fill="white"/>
<path fill-rule="evenodd" clip-rule="evenodd" d="M781.973 458L848.918 457.239L848.761 390.157L781.973 458Z" fill="white"/>
<path fill-rule="evenodd" clip-rule="evenodd" d="M781.626 196.108L781.369 129.172L714.278 128.825L781.626 196.108Z" fill="white"/>
<path fill-rule="evenodd" clip-rule="evenodd" d="M370.796 255.814L303.851 256.396L303.851 323.478L370.796 255.814Z" fill="white"/>
<path fill-rule="evenodd" clip-rule="evenodd" d="M310 54L310.258 121.071L377.203 121.418L310 54Z" fill="white"/>
<path fill-rule="evenodd" clip-rule="evenodd" d="M574.397 256.967L507.441 257.482L507.351 324.564L574.397 256.967Z" fill="white"/>
<path fill-rule="evenodd" clip-rule="evenodd" d="M848.28 398.664L915.225 398.317L915.483 331.246L848.28 398.664Z" fill="white"/>
<path fill-rule="evenodd" clip-rule="evenodd" d="M916.278 262.485L849.333 263.414L849.657 330.496L916.278 262.485Z" fill="white"/>
<path fill-rule="evenodd" clip-rule="evenodd" d="M441.481 256.172L442.153 323.108L509.243 323.041L441.481 256.172Z" fill="white"/>
<path fill-rule="evenodd" clip-rule="evenodd" d="M169.323 187.362L169.603 119.619L237.567 120.481L169.323 187.362Z" fill="white"/>
<path fill-rule="evenodd" clip-rule="evenodd" d="M99.6801 51.8991L167.443 51.6752L167.084 119.619L99.6801 51.8991Z" fill="white"/>
<path fill-rule="evenodd" clip-rule="evenodd" d="M169.928 51.8991L237.691 51.6752L237.332 119.619L169.928 51.8991Z" fill="white"/>
<path fill-rule="evenodd" clip-rule="evenodd" d="M236.28 255.664L237.041 188.739L169.962 187.362L236.28 255.664Z" fill="white"/>
<path fill-rule="evenodd" clip-rule="evenodd" d="M850 466.832L916.945 466.082L916.8 399L850 466.832Z" fill="white"/>
<path fill-rule="evenodd" clip-rule="evenodd" d="M169.973 315L236.918 314.239L236.761 247.157L169.973 315Z" fill="white"/>
<path fill-rule="evenodd" clip-rule="evenodd" d="M169.626 53.108L169.368 -13.8285L102.278 -14.1754L169.626 53.108Z" fill="white"/>
<path fill-rule="evenodd" clip-rule="evenodd" d="M236.28 255.664L303.225 255.317L303.483 188.246L236.28 255.664Z" fill="white"/>
<path fill-rule="evenodd" clip-rule="evenodd" d="M304.278 119.485L237.332 120.414L237.657 187.496L304.278 119.485Z" fill="white"/>
</svg>
