<svg fill="none" viewBox="0 0 28 30"><path fill="#2542b9" d="M27.069 28.125h-1.242V1.406C25.827.63 25.16 0 24.337 0H3.477c-.823 0-1.49.63-1.49 1.406v26.719H.745c-.411 0-.745.315-.745.703V30h27.814v-1.172c0-.388-.334-.703-.745-.703zM7.947 4.453c0-.388.333-.703.745-.703h2.483c.412 0 .745.315.745.703v2.344c0 .388-.333.703-.745.703H8.692c-.412 0-.745-.315-.745-.703V4.453zm0 5.625c0-.388.333-.703.745-.703h2.483c.412 0 .745.315.745.703v2.344c0 .388-.333.703-.745.703H8.692c-.412 0-.745-.315-.745-.703v-2.344zm3.228 8.672H8.692c-.412 0-.745-.315-.745-.703v-2.344c0-.388.333-.703.745-.703h2.483c.412 0 .745.315.745.703v2.344c0 .388-.333.703-.745.703zm4.719 9.375H11.92v-4.922c0-.388.334-.703.745-.703h2.484c.411 0 .745.315.745.703v4.922zm3.973-10.078c0 .388-.334.703-.745.703H16.64c-.412 0-.745-.315-.745-.703v-2.344c0-.388.333-.703.745-.703h2.483c.412 0 .745.315.745.703v2.344zm0-5.625c0 .388-.334.703-.745.703H16.64c-.412 0-.745-.315-.745-.703v-2.344c0-.388.333-.703.745-.703h2.483c.412 0 .745.315.745.703v2.344zm0-5.625c0 .388-.334.703-.745.703H16.64c-.412 0-.745-.315-.745-.703V4.453c0-.388.333-.703.745-.703h2.483c.412 0 .745.315.745.703v2.344z"/></svg>