<svg width="800" height="221" viewBox="0 0 800 221" fill="none" xmlns="http://www.w3.org/2000/svg">
<path d="M707.948 1.3877H730.403L754.183 41.0064L778.242 1.3877H800L763.458 60.0179V95.6123H744.699V60.0179L707.948 1.3877Z" fill="#FFFFFF"/>
<path d="M637.034 95.5429H618.136V1.3877H659.908C680.48 1.3877 693.8 13.5994 693.8 31.6395C693.8 43.6431 687.175 53.4957 676.156 58.2139L697.565 95.6123H676.924L657.607 61.3362H637.034V95.5429ZM637.034 17.6237V45.1001H658.722C669.113 45.1001 674.483 38.7861 674.483 31.6395C674.483 23.799 669.113 17.6237 658.722 17.6237H637.034Z" fill="#FFFFFF"/>
<path d="M546.695 97C518.033 97 497.112 77.1559 497.112 48.7082C497.112 20.191 518.033 0 546.695 0C575.496 0 596.347 20.2604 596.347 48.7082C596.347 77.1559 575.496 97 546.695 97ZM516.499 48.6388C516.499 67.0951 529.261 79.5844 546.765 79.5844C564.478 79.5844 577.03 67.0951 577.03 48.6388C577.03 30.3212 564.478 17.485 546.765 17.485C529.191 17.485 516.499 30.3212 516.499 48.6388Z" fill="#FFFFFF"/>
<path d="M431.708 97C404.092 97 382.613 76.0458 382.613 48.5C382.613 20.9542 403.534 0 431.22 0C447.608 0 462.74 7.7711 472.713 22.1338L457.859 32.6803C450.467 21.5787 440.843 17.3462 431.22 17.3462C413.995 17.3462 401.93 30.2518 401.93 48.5C401.93 66.8176 414.483 79.6538 431.708 79.6538C447.468 79.6538 456.325 70.4256 458.487 60.4342H429.825V44.2675H477.525C477.804 46.696 477.873 49.4714 477.873 51.8305C477.873 76.0458 460.718 97 431.708 97Z" fill="#FFFFFF"/>
<path d="M296.985 95.6123V1.3877H364.351V17.6237H315.814V39.3412H357.935V55.5773H315.814V79.4456H365.397V95.6123H296.985Z" fill="#FFFFFF"/>
<path d="M199.918 18.0401V1.3877H277.883V18.0401H248.315V95.6123H229.556V18.0401H199.918Z" fill="#FFFFFF"/>
<path d="M123.704 95.6123H103.62L141.836 1.3877H163.454L201.739 95.6123H181.655L174.681 77.1559H130.747L123.704 95.6123ZM136.047 62.2382H169.242L152.714 20.9542L136.047 62.2382Z" fill="#FFFFFF"/>
<path d="M49.0945 97C21.5486 97 0 76.0458 0 48.5C0 20.9542 20.9209 0 48.6063 0C66.0404 0 81.7311 8.81187 91.0061 23.5215L76.1522 34.068C69.8062 23.6602 60.6707 17.3462 48.6063 17.3462C31.3814 17.3462 19.317 30.2518 19.317 48.5C19.317 66.8176 31.8696 79.6538 49.0945 79.6538C60.7405 79.6538 69.8759 74.3805 77.7562 63.4177L91.6337 73.4092C82.4982 88.6738 66.2496 97 49.0945 97Z" fill="#FFFFFF"/>
<path d="M646.398 203.104L656.876 195.276C660.246 202.397 666.669 207.29 675.252 207.29C682.097 207.29 687.52 203.865 687.52 199.081C687.52 194.188 682.202 191.579 673.672 188.806C659.93 184.349 648.714 180 648.714 165.756C648.714 151.839 661.931 144.555 674.041 144.555C686.994 144.555 695.945 152.383 700.473 160.592L689.521 168.638C686.415 163.256 681.254 157.819 673.672 157.819C668.144 157.819 663.247 160.864 663.247 165.702C663.247 171.628 668.46 172.497 677.411 175.759C690.837 180.652 702 184.403 702 198.972C702 213.433 687.836 220.555 675.094 220.555C661.299 220.555 650.663 213.107 646.398 203.104Z" fill="#FFFFFF"/>
<path d="M579.481 219.467V145.642H630.345V158.363H593.698V175.379H625.5V188.1H593.698V206.801H631.134V219.467H579.481Z" fill="#FFFFFF"/>
<path d="M515.671 219.413H501.402V145.642H532.941C548.474 145.642 558.531 155.21 558.531 169.344C558.531 178.749 553.529 186.469 545.21 190.166L561.374 219.467H545.789L531.204 192.612H515.671V219.413ZM515.671 158.363V179.891H532.046C539.892 179.891 543.946 174.944 543.946 169.344C543.946 163.201 539.892 158.363 532.046 158.363H515.671Z" fill="#FFFFFF"/>
<path d="M449.384 220.555C431.061 220.555 418.792 209.138 418.792 191.416V145.642H432.956V191.09C432.956 201.093 439.906 207.399 449.384 207.399C458.862 207.399 465.812 201.093 465.812 191.09V145.642H479.976V191.416C479.976 209.138 467.708 220.555 449.384 220.555Z" fill="#FFFFFF"/>
<path d="M344.136 158.689V145.642H403.003V158.689H380.677V219.467H366.513V158.689H344.136Z" fill="#FFFFFF"/>
<path d="M275.113 219.467H260.896V145.642H273.797L313.34 196.309V145.642H327.556V219.467H314.445L275.113 169.344V219.467Z" fill="#FFFFFF"/>
<path d="M189.557 219.467V145.642H240.42V158.363H203.773V175.379H235.576V188.1H203.773V206.801H241.21V219.467H189.557Z" fill="#FFFFFF"/>
<path d="M128.906 219.467L102 145.642H117.217L137.857 204.409L158.392 145.642H173.609L146.808 219.467H128.906Z" fill="#FFFFFF"/>
</svg>
