<svg fill="none" viewBox="0 0 275 294"><g fill-rule="evenodd" clip-path="url(#clip0)" clip-rule="evenodd"><path fill="#1D49FF" d="M44.56 70.687c6.175-1.779 22.082-20.878 44.969-22.06 22.887-1.182 36.315 7.266 48.077 17.705 27.002 23.947 29.79 64.909 6.232 91.491-23.558 26.582-64.55 28.707-91.553 4.768-7.353-6.52-31.4-31.004-37.168-41.353-6.552-11.74-17.144-45.66-9.068-55.972 3.432-4.377-.26-.649 10.402 3.575 10.663 4.224 16.193 5.276 28.108 1.846z"/><path fill="#1D49FF" d="M32.484 103.894c3.44-5.428 8.866-35.906 14.807-44.493 5.94-8.586 11.319-23.909 17.241-33.255C72.877 12.978 84.859 8.623 85.455 9.152c2.158 1.969-1.025 18.34.861 18.884 1.088.313 4.886-10.476 11.848-18.843C103.725 2.516 111.245.1 111.648.786c2.236 3.773-.965 19.883.183 20.423 2.035.959 6.82-7.486 12.649-12.303 5.59-4.623 13.044-7.15 13.234-5.249.373 4.284-4.647 12.352-1.23 18.048.582.97 6.362-5.644 12.486-10.088 6.123-4.444 17.334-4.828 17.047-3.482-1.118 5.256-5.613 18.387-4.704 19.76.664.99 5.736-5.66 11.397-7.871 5.292-2.07 19.753-.231 18.143 2.356-1.61 2.588-5.33 13.097-8.572 20.554-.794 1.834 8.851-1.842 16.343-1.432 6.976.373 12.783 5.28 11.594 6.633-1.189 1.353-14.535 12.22-14.14 19.275.395 7.053-31.537 31.108-31.537 35.817 0 35.522-23.23 67.619-59.318 67.619-9.828 0-35.011 1.085-46.196-2.826-12.671-4.441-48.774-49.556-49.568-62.635-.335-5.555-4.1-33.554-4.1-33.554s20.491 42.536 27.125 32.063z"/><path fill="#1D49FF" d="M258.784 293.754c7.431-3.575 13.879-7.397 13.879-12.094 0-8.538-52.498-38.621-37.437-42.741 7.677-2.102 37.769 3.81 39.066-3.519.931-5.287-47.094-37.73-45.316-43.706 1.323-4.444 42.289-10.872 42.237-15.64-.082-7.557-46.985-37.458-46.587-44.843.373-7.009 23.804-3.822 24.155-5.745.82-4.474-3.418-12.039-9.079-18.642-6.138-7.165-19.153-9.607-19.436-12.985-.6-7.132 9.805-6.364 12.865-7.904 3.06-1.54-5.415-14.868-12.981-17.455-8.322-2.849-20.393.782-22.857-3.02-5.963-9.198-20.904 26.35-28.504 23.212-9.112-3.766-28.619 52.407-38.726 52.407-15.765 0-55.904 11.886-65.471 19.712-3.135 2.561 6.186 4.921 7.767 7.02 3.794 5.033-16.257 17.761-25.165 40.637-8.907 22.877-10.435 39.945-10.435 70.945a141.57 141.57 0 00.715 14.368l221.31-.007z"/><path fill="#5C87FF" d="M185.792 293.754c.54-5.177.811-10.379.812-15.584 0-60.856-36.337-110.191-81.161-110.191S24.281 217.303 24.281 278.17c0 5.205.271 10.407.813 15.584h160.698z"/><path fill="#92BBFF" d="M158.115 293.754c.563-5.303.846-10.632.846-15.964 0-55.551-28.72-108.298-65.818-108.298s-68.53 52.766-68.53 108.298c-.002 5.333.28 10.662.845 15.964h132.657z"/><path fill="#C5E4FF" d="M138.538 293.754c.231-3.648.355-7.354.372-11.117 0-55.551-25.749-100.551-57.514-100.551-31.765 0-57.51 45.019-57.51 100.551 0 3.758.117 7.464.35 11.117h114.302z"/><path fill="#fff" d="M127.595 293.754c.122-2.642.186-5.315.191-8.019 0-52.356-23.387-94.802-52.237-94.802S23.3 233.379 23.3 285.735c0 2.704.063 5.377.19 8.019h104.104z"/><path fill="#5C87FF" d="M41.928 70.784c4.942-1.424 17.67-16.699 35.984-17.653 1.673-.09 2.72-1.581 6.146-2.394 3.425-.813 8.165-.037 6.313 1.514-3.514 2.938 1.689 4.992 1.689 4.992s2.187-.787 6.604-1.984c4.416-1.196 7.323-.018 5.165 2.372-3.403 3.769 2.337 6.293 2.337 6.293l9.422.115s11.926 2.454 6.239 4.24c-5.688 1.785 1.091 10.696 1.091 10.696a83.238 83.238 0 018.364 4.041c2.344 1.327 8.754 7.908 4.822 7.374-6.708-.906-5.046 7.256-5.046 7.256s4.417 2.512 6.265 5.51c1.849 2.997 2.162 10.215-.809 8.47-6.224-3.646-5.918 1.119-5.918 1.119s4.916 3.281 6.787 6.886c1.919 3.706-2.646 14.212-3.727 8.907-1.081-5.306-10.655-1.081-10.655-1.081s4.912 2.427 6.913 6.185c2.091 3.914-.652 11.333-1.893 10.208-6.966-6.312-5.647-4.474-6.657-3.356-18.854 21.273-51.655 22.981-73.26 3.818-5.885-5.22-25.127-24.812-29.745-33.092-5.24-9.395-10.14-46.74-10.14-46.74s2.79 2.646 11.475 5.61c5.806 2.002 12.7 3.445 22.234.694z"/><path fill="#92BBFF" d="M41.504 70.784c3.808-.727 15.697-12.65 30.14-12.005 14.441.645 25.983 6.427 34.075 13.604 18.567 16.468 17.74 38.99 3.018 52.673-15.578 14.48-26.23 19.066-56.097 6.285-6.213-2.658-24.505-21.795-28.787-28.554-4.845-7.67-14.886-37.655-14.886-37.655s4.719 1.912 11.822 4.865c4.74 1.969 13.369 2.196 20.715.787z"/><path fill="#C5E4FF" d="M38.451 71.481c2.945-.522 12.042-9.615 23.245-8.97a43.57 43.57 0 0126.562 10.883c14.565 12.914 14.163 30.314 2.877 40.742-11.926 11.028-20.125 14.465-43.433 4.283-4.845-2.117-19.22-17.097-22.612-22.369-3.85-5.965-11.926-29.26-11.926-29.26s3.679 1.53 9.217 3.882c3.697 1.558 10.39 1.82 16.07.809z"/><path fill="#fff" d="M41.049 72.13c8.218-2.062 14.185-4.355 15.612-4.474 10.846-.88 13.156 8.377 13.57 10.722.682 3.844-1.744 9.835-8.281 13.358-6.538 3.524-19.008 4.523-26.089.108-11.151-6.923-20.446-24.352-20.446-24.352s7.413 4.433 11.81 5.592c4.398 1.16 9.14.22 13.824-.954z"/><path fill="#0316F0" d="M141.478 126.032c7.953 6.64 9.754 17.594 4.021 24.461-5.732 6.868-16.823 7.058-24.78.414a21.065 21.065 0 01-5.59-7.229c-1.159-2.487-3.656-5.559-6.187-6.148-1.219-.28-3.399-.485-2.3-1.428 1.1-.943 26.883-16.713 34.836-10.07z"/><path fill="#5C87FF" d="M87.43 108.204c7.25 3.128 8.341 8.854 6.202 13.496-2.14 4.642-7.513 8.202-14.762 5.082-7.25-3.121-14.718-16.032-14.24-17.59.353-1.156 15.548-4.109 22.8-.988z"/><path fill="#1D49FF" d="M78.552 113.39a8.247 8.247 0 018.973-2.065 8.254 8.254 0 015.304 7.529 8.26 8.26 0 01-4.964 7.757 8.25 8.25 0 01-9.056-1.664 8.183 8.183 0 01-.257-11.557z"/><path fill="#3541D1" d="M80.74 115.724a6.46 6.46 0 0111.115 4.386 6.467 6.467 0 01-3.904 6.037 6.456 6.456 0 01-7.069-1.308 6.45 6.45 0 01-.141-9.115z"/><path fill="#35416B" d="M83.107 117.737a4.503 4.503 0 014.891-.875 4.5 4.5 0 012.718 4.161 4.504 4.504 0 01-5.346 4.398 4.5 4.5 0 01-2.3-1.201 4.574 4.574 0 01-.967-5.002 4.579 4.579 0 011.004-1.481z"/><path fill="#fff" d="M85.987 117.565a.872.872 0 01.95-.131.875.875 0 11-.987 1.418.908.908 0 01.037-1.287zm2.103 1.033a.61.61 0 01.66-.126.609.609 0 11-.66.995.618.618 0 010-.869z"/><path fill="#3541D1" d="M1.107 58.898a8.353 8.353 0 0112.673-2.527A8.355 8.355 0 014.513 70.18a8.332 8.332 0 01-3.406-11.282z"/><path fill="#1D49FF" d="M1.796 58.313a6.71 6.71 0 0110.18-1.916A6.711 6.711 0 014.49 67.454a6.74 6.74 0 01-2.695-9.141z"/><path fill="#5C87FF" d="M2.743 57.504a5.036 5.036 0 117.609 6.298 5.034 5.034 0 01-8.004-2.464 5.035 5.035 0 01.395-3.834z"/><path fill="#92BBFF" d="M3.377 56.78a3.355 3.355 0 115.903 3.188 3.355 3.355 0 01-5.903-3.188z"/><path fill="#C5E4FF" d="M3.757 56.523a2.647 2.647 0 111.118 3.49 2.61 2.61 0 01-1.118-3.49z"/><path fill="#fff" d="M3.652 57.235a2.148 2.148 0 112.143 2.047 2.091 2.091 0 01-2.143-2.047z"/><path fill="#92BBFF" d="M144.568 123.654c7.737 6.457 9.362 17.261 3.63 24.132-5.732 6.872-16.648 7.203-24.386.746a20.003 20.003 0 01-5.422-7.084c-1.342-2.96-9.243-9.473-9.243-9.473s27.687-14.779 35.421-8.321z"/><path fill="#C5E4FF" d="M121.491 125.756c3.034-1.655 14.285-3.191 18.675-2.125 5.904 1.432 8.077 6.04 9.534 10.283 1.457 4.242-1.357 12.676-2.236 12.023-.88-.652-.172-6.912-1.219-11.837-.745-3.538-4.174-7.62-11.326-7.531-3.783.049-16.462.843-13.428-.813z"/><path fill="#5C87FF" d="M138.456 132.672c5.911 2.957 6.518 7.803 4.472 11.599-2.046 3.795-6.738 6.528-12.646 3.571-5.907-2.956-11.475-14.13-10.99-15.401.365-.951 13.256-2.725 19.164.231z"/><path fill="#1D49FF" d="M132.496 137.62c4.506 4.022 5.27 7.605 4.029 9.574-1.241 1.968-4.506 2.341-8.993-1.704-5.59-5.052-8.356-12.475-8.087-13.198.201-.544 8.542 1.309 13.051 5.328z"/><path fill="#0316F0" d="M129.533 139.879c3.701 4.026 4.51 6.752 3.686 7.807-.824 1.055-3.298.455-6.984-3.583-4.607-5.048-7.178-11.002-7.018-11.438.119-.328 6.612 3.187 10.316 7.214z"/><path fill="#35416B" d="M126.205 140.438c2.575 3.598 3.265 5.499 2.825 5.876-.44.376-2.016-.772-4.584-4.373-3.209-4.504-5.218-8.907-5.143-9.12.074-.212 4.327 4.016 6.902 7.617z"/><path fill="#0316F0" d="M57.95 50.883c-1.524 5.514.112 6.766.786 7.102 1.491.745 2.881-6.875 5.83-12.191 2.235-4.042 9.857-9.094 7.598-4.612-2.258 4.481 1.54 11.434 3.5 11.121 1.118-.175 4.472-6.084 9.59-8.616 6.07-3.009 16.957-5.883 14.34-3.613-3.767 3.278-2.116 13.862-.931 14.235 1.316.41 7.268-6.79 13.212-7.945 4.845-.943 15.135-.03 10.808 1.98-3.831 1.785 1.006 14.913 2.311 15.613 1.304.701 9.783-4.019 17.349-5.185 6.887-1.063 23.424 8.418 17.449 8.537-8.389.172-11.945 13.317-10.853 17.642.563 2.237 8.326-1.6 16.097.261 5.389 1.286 17.919 8.31 11.74 8.71-3.261.208-24.822 15.285-21.359 24.404.421 1.119 12.671-2.188 19.425 1.167 8.296 4.12 18.217 19.107 11.359 14.891-7.081-4.344-25.839 8.086-25.458 10.346.205 1.23 13.081-2.334 23.017 2.091 9.936 4.425 19.142 18.939 12.131 15.774-6.708-3.027-25.831 9.608-26.297 11.558-.466 1.95 15.184.891 25.209 6.666 7.499 4.321 18.635 31.537 10.857 24.472-7.778-7.065-19.675-4.101-19.753-3.132-.209 2.904 11.002 6.648 19.007 13.683 6.858 6.036 17.383 17.03 10.663 15.692-9.776-1.95-14.762 11.423-14.762 11.423s10.7 2.069 17.207 8.269c6.507 6.2 15.258 20.047 8.825 16.524-8.62-4.724-23.901 4.612-23.901 4.612s21.128 4.328 28.236 12.81a31.154 31.154 0 014.998 8.575h14.423c3.089-4.135 8.821-8.676 17.114-2.699 6.969 5.022-1.468-19.182-9.91-25.546-8.442-6.364-22.503-7.997-22.503-7.997s10.666-5.153 16.242.421c11.926 11.93 4.278-19.282-1.927-24.849-9.515-8.534-17.822-10.972-17.822-10.972s15.776-7.303 22.794.47c4.785 5.301 7.081-14.969-8.114-21.922-5.493-2.513-21.519-8.814-21.519-8.814s21.452-3.21 26.364.899c11.464 9.581-4.144-18.742-7.912-21.724-8.833-6.995-22.835-12.587-22.835-12.587s7.513-11.602 16.618-9.25c9.567 2.476-.119-12.075-8.199-16.825s-16.372-8.474-16.372-8.474-4.939-15.484 7.856-15.845c13.674-.373-2.024-9.004-8.617-14.835-6.593-5.831-17.759-8.504-17.759-8.504s-4.23-14.391 12.713-18.153c7.789-1.73-7.704-10.864-16.358-11.423-8.653-.56-19.275 1.864-19.275 1.864s-7.491-7.565-.373-16.442c3.66-4.574-9.899-3.877-17.558-.898-6.906 2.688-12.869 5.473-14.587 5.126-3.913-.786-2.799-6.796 2.236-12.24 4.204-4.537-7.454-4.16-14.054-1.927-5.885 1.998-10.871 10.439-12.299 9.94-2.393-.85-4.099-15.864-2.687-20.189.6-1.823-7.226-.48-13.141 3.557-5.475 3.728-8.758 12.989-10.722 12.717-2.14-.302-1.592-13.765-3.023-16.885-.544-1.182-18.482 4.496-27.628 18.898s-14.278 28.67-14.278 28.67 1.543-1.816 6.712-9.347c4.305-6.267 8.945-9.887 8.17-7.08z"/><path fill="#5C87FF" d="M72.4 23.827a26.153 26.153 0 0112.57-4.303c.35 0-3.354 9.429-7.454 12.117-6.13 4.012-15.19 1.238-15.19 1.238a46.43 46.43 0 0110.073-9.052z"/><path fill="#C5E4FF" d="M76.58 12.892c6.132-4.012 8.264-3.822 8.849-3.844.35 0 2.02 3.132-2.08 5.816-2.557 1.674-6.302 4.474-9.343 5.894-4.253 1.987-11.353 8.642-11.353 8.642s1.152-3.355 2.527-5.186c2.698-3.571 7.346-8.664 11.4-11.322z"/><path fill="#92BBFF" d="M55.292 51.024c6.127-4.011 2.237 3.419-1.863 6.107-2.553 1.67-5.069 3.128-5.069 3.128s2.859-6.57 6.932-9.235z"/><path fill="#C5E4FF" d="M51.16 60.013c1.952-1.737 3.227-1.413 3.316-.91.16.902-2.374 3.59-3.44 4.41a32.93 32.93 0 00-4.49 4.352s.443-4.165 4.613-7.852zm13.867-6.085c1.733-1.256 2.863-1.021 2.941-.66.142.657-2.102 2.61-3.049 3.203a27.216 27.216 0 00-3.98 3.154s.391-3.009 4.088-5.697zm21.639-5.234c2.024-.496 2.814.164 2.695.533-.217.664-2.982 1.603-4.06 1.786a27.607 27.607 0 00-4.788 1.38s1.833-2.648 6.153-3.7z"/><path fill="#92BBFF" d="M69.492 40.503c6.131-4.015 2.236 3.419-1.863 6.103-2.557 1.674-5.069 3.128-5.069 3.128s2.877-6.577 6.932-9.231zm27.423-1.737c6.973-.496.313 3.21-4.39 4.626-2.922.88-8.945.869-8.945.869s8.498-5.167 13.335-5.495zm26.469 9.343c-2.769.055-3.056 2.154-6.891 2.024-3.835-.13-7.946-2.815-7.946-2.815s5.818-2.099 9.656-1.968c3.839.13 7.95 2.691 5.181 2.758z"/><path fill="#C5E4FF" d="M102.699 4.462C108.83.447 110.962.637 111.551.615c.346 0 2.34 5.014-1.759 7.699-2.557 1.674-6.44.727-9.478 2.147-4.252 1.987-8.17 8.064-7.398 5.913 1.223-3.4 5.728-9.257 9.783-11.912zm25.75 1.193c4.271-2.807 8.669-2.8 9.157-2.471 1.196.801.339 4.72-3.761 7.408-2.553 1.67-4.494 1.838-7.536 3.254-4.252 1.987-10.182 4.038-10.182 4.038s2.464-2.83 3.839-4.657c2.699-3.568 3.809-4.503 8.483-7.572zM166.471 7.9c.347 0-1.207 2.237-5.307 4.936-2.553 1.67-7.432 1.006-10.469 2.427-4.252 1.987-10.309 3.96-10.309 3.96s6.955-7.513 10.495-9.079c11.323-5.022 15.001-2.218 15.59-2.244zm8.482 10.845c6.958-2.285 15.307 1.66 16.052 2.744.746 1.085-6.638-.15-13.081 1.6a132.93 132.93 0 01-14.122 2.818s4.842-5.082 11.151-7.162zm27.337 22.742c4.599 1.529 9.612 4.008 8.296 6.23-1.315 2.222-2.858-1.726-7.599-3.05a69.588 69.588 0 01-8.616-3.05s3.317-1.662 7.919-.13z"/><path fill="#5C87FF" d="M126.514 30.217c6.127-4.015 15.56-.336 15.56-.336s.116 3.076-3.984 5.76c-6.131 4.012-21.761 3.516-21.761 3.516a50.27 50.27 0 0110.185-8.94zm34.392 7.557c8.438-1.454 10.656.775 10.656.775s-.701 4.142-5.404 5.898c-4.704 1.756-20.279-1.812-20.279-1.812s4.644-3.072 15.027-4.861zM201.41 58.48c8.2 3.9 7.76 6.893 7.76 6.893s-2.49 3.005-7.256 1.435c-1.719-.566-7.73 1.596-12.273-.119-8.054-3.042-22.101-5.167-22.101-5.167a90.933 90.933 0 0112.627-4.907c3.652-1.07 7.454-1.815 10.435-1.543 3.82.358 7.823 1.983 10.808 3.408zm22.496 43.676c1.864 1.349 1.957 3.978 1.957 3.978s-.239 2.173-5.348 1.789c-2.121-.16-12.415-.421-17.398-5.148-6.779-6.428-17.237-14.589-17.237-14.589s14.357-3.094 21.989 1.331c2.587 1.491 4.432 3.937 7.32 6.383s6.787 4.865 8.717 6.256zm8.718 32.432c5.27 3.866 4.744 3.836 6.98 7.367 2.237 3.53 2.382 4.865 1.965 6.751-.418 1.887-1.353 1.607-3.634.795-10.756-3.837-37.598-20.472-37.598-20.472s10.372-5.018 18.18-2.55c1.991.63 8.837 4.239 14.107 8.109zm15.515 41.648c6.664 9.745 9.317 21.828 6.213 19.193-2.911-2.476-5.848-4.143-8.147-4.776-.477-.131-9.765-4.963-13.451-7.584-8.944-6.36-16.354-17.366-16.354-17.366s12.549-2.662 23.003 2.539c2.732 1.357 7.32 5.924 8.736 7.994zM100.255 22.898c5.791-3.918 11.084-3.75 11.613-3.728.317 0-6.649 9.477-10.521 12.098-5.792 3.922-9.817 1.749-9.817 1.749s2.933-6.2 8.725-10.119z"/></g><defs><clipPath id="clip0"><path fill="#fff" d="M0 0h274.4v293.37H0z" transform="translate(0 .499)"/></clipPath></defs></svg>