<svg xmlns="http://www.w3.org/2000/svg" width="275" height="294" fill="none" viewBox="0 0 275 294"><g clip-path="url(#clip0)"><path fill="#1D49FF" fill-rule="evenodd" d="M44.5595 70.6868C50.735 68.9084 66.6416 49.8087 89.5287 48.6269C112.416 47.445 125.844 55.8932 137.606 66.3322C164.608 90.2786 167.396 131.241 143.838 157.823C120.28 184.405 79.2871 186.53 52.2854 162.591C44.9321 156.071 20.8859 131.587 15.1166 121.238C8.56467 109.498 -2.0273 75.5782 6.04898 65.266C9.48149 60.889 5.78811 64.6173 16.4509 68.8413C27.1137 73.0654 32.6444 74.1168 44.5595 70.6868Z" clip-rule="evenodd"/><path fill="#1D49FF" fill-rule="evenodd" d="M32.484 103.894C35.924 98.4658 41.3504 67.9876 47.2912 59.4015C53.2319 50.8154 58.6099 35.4923 64.532 26.1457C72.8766 12.9776 84.8587 8.62301 85.455 9.15242C87.6129 11.1209 84.4301 27.4916 86.316 28.0359C87.4042 28.3491 91.202 17.5596 98.1639 9.19342C103.725 2.51617 111.245 0.100279 111.648 0.786273C113.884 4.55924 110.683 20.6689 111.831 21.2095C113.866 22.1677 118.651 13.7232 124.48 8.90635C130.07 4.28335 137.524 1.75562 137.714 3.65701C138.087 7.94075 133.067 16.0086 136.484 21.7054C137.066 22.6747 142.846 16.0608 148.97 11.6168C155.093 7.17272 166.304 6.78872 166.017 8.13461C164.899 13.3914 160.404 26.5222 161.313 27.8942C161.977 28.8859 167.049 22.2348 172.71 20.0239C178.002 17.9548 192.463 19.7928 190.853 22.3802C189.243 24.9676 185.523 35.4774 182.281 42.9339C181.487 44.7682 191.132 41.0921 198.624 41.5022C205.6 41.8751 211.407 46.7814 210.218 48.1348C209.029 49.4881 195.683 60.3559 196.078 67.4097C196.473 74.4635 164.541 98.5181 164.541 103.227C164.541 138.749 141.311 170.846 105.223 170.846C95.3948 170.846 70.2119 171.931 59.0273 168.02C46.3557 163.579 10.2528 118.464 9.45901 105.385C9.12359 99.8304 5.35938 71.8314 5.35938 71.8314C5.35938 71.8314 25.8501 114.367 32.484 103.894Z" clip-rule="evenodd"/><path fill="#1D49FF" fill-rule="evenodd" d="M258.784 293.754C266.215 290.179 272.663 286.357 272.663 281.66C272.663 273.122 220.165 243.039 235.226 238.919C242.903 236.817 272.995 242.729 274.292 235.4C275.223 230.113 227.198 197.67 228.976 191.694C230.299 187.25 271.265 180.822 271.213 176.054C271.131 168.497 224.228 138.596 224.626 131.211C224.999 124.202 248.43 127.389 248.781 125.466C249.601 120.992 245.363 113.427 239.702 106.824C233.564 99.6588 220.549 97.2168 220.266 93.839C219.666 86.7069 230.071 87.4749 233.131 85.9352C236.191 84.3954 227.716 71.067 220.15 68.4796C211.828 65.6312 199.757 69.2625 197.293 65.4597C191.33 56.2622 176.389 91.8108 168.789 88.6717C159.677 84.9062 140.17 141.079 130.063 141.079C114.298 141.079 74.1587 152.965 64.5916 160.791C61.4573 163.352 70.7784 165.712 72.3586 167.811C76.1526 172.844 56.1017 185.572 47.1943 208.448C38.2869 231.325 36.7589 248.393 36.7589 279.393C36.7536 284.191 36.9924 288.987 37.4744 293.761L258.784 293.754Z" clip-rule="evenodd"/><path fill="#5C87FF" fill-rule="evenodd" d="M185.792 293.754C186.332 288.577 186.603 283.375 186.604 278.17C186.604 217.314 150.267 167.979 105.443 167.979C60.6189 167.979 24.2813 217.303 24.2813 278.17C24.281 283.375 24.5522 288.577 25.0937 293.754H185.792Z" clip-rule="evenodd"/><path fill="#92BBFF" fill-rule="evenodd" d="M158.115 293.754C158.678 288.451 158.961 283.122 158.961 277.79C158.961 222.239 130.241 169.492 93.1433 169.492C56.0453 169.492 24.6123 222.258 24.6123 277.79C24.6109 283.123 24.8933 288.452 25.4583 293.754H158.115Z" clip-rule="evenodd"/><path fill="#C5E4FF" fill-rule="evenodd" d="M138.538 293.754C138.769 290.106 138.893 286.4 138.91 282.637C138.91 227.086 113.161 182.086 81.3961 182.086C49.6314 182.086 23.8857 227.105 23.8857 282.637C23.8857 286.395 24.0025 290.101 24.2361 293.754H138.538Z" clip-rule="evenodd"/><path fill="#fff" fill-rule="evenodd" d="M127.595 293.754C127.717 291.112 127.781 288.439 127.786 285.735C127.786 233.379 104.399 190.933 75.5487 190.933C46.6985 190.933 23.3008 233.379 23.3008 285.735C23.3008 288.439 23.3641 291.112 23.4909 293.754H127.595Z" clip-rule="evenodd"/><path fill="#5C87FF" fill-rule="evenodd" d="M41.9284 70.7837C46.8703 69.3596 59.5978 54.085 77.912 53.1306C79.5854 53.0411 80.6327 51.5498 84.0577 50.7371C87.4828 49.9243 92.2234 50.6998 90.3712 52.2507C86.8567 55.1886 92.0595 57.2428 92.0595 57.2428C92.0595 57.2428 94.2472 56.4562 98.6636 55.2594C103.08 54.0626 105.987 55.2408 103.829 57.6306C100.426 61.3998 106.166 63.9238 106.166 63.9238L115.588 64.0394C115.588 64.0394 127.514 66.4925 121.827 68.2784C116.139 70.0642 122.918 78.9747 122.918 78.9747C125.779 80.165 128.571 81.5142 131.282 83.0161C133.626 84.3433 140.036 90.9236 136.104 90.3905C129.396 89.4845 131.058 97.6456 131.058 97.6456C131.058 97.6456 135.475 100.158 137.323 103.156C139.172 106.153 139.485 113.371 136.514 111.626C130.29 107.98 130.596 112.745 130.596 112.745C130.596 112.745 135.512 116.026 137.383 119.631C139.302 123.337 134.737 133.843 133.656 128.538C132.575 123.232 123.001 127.457 123.001 127.457C123.001 127.457 127.913 129.884 129.914 133.642C132.005 137.556 129.262 144.975 128.021 143.85C121.055 137.538 122.374 139.376 121.364 140.494C102.51 161.767 69.709 163.475 48.104 144.312C42.2191 139.092 22.9769 119.5 18.3593 111.22C13.1192 101.825 8.21826 64.4793 8.21826 64.4793C8.21826 64.4793 11.0097 67.1264 19.6935 70.0903C25.5001 72.0924 32.3949 73.5352 41.9284 70.7837Z" clip-rule="evenodd"/><path fill="#92BBFF" fill-rule="evenodd" d="M41.5035 70.7838C45.3124 70.0568 57.2013 58.1339 71.6432 58.7789C86.0851 59.4239 97.6274 65.2063 105.719 72.3832C124.286 88.8508 123.459 111.373 108.737 125.056C93.1589 139.536 82.5072 144.122 52.6396 131.341C46.4268 128.683 28.1349 109.546 23.8527 102.787C19.0077 95.1179 8.96729 65.1318 8.96729 65.1318C8.96729 65.1318 13.6856 67.0444 20.7891 69.9971C25.5298 71.9656 34.1577 72.193 41.5035 70.7838Z" clip-rule="evenodd"/><path fill="#C5E4FF" fill-rule="evenodd" d="M38.4513 71.481C41.3956 70.959 50.4931 61.8659 61.6963 62.5109C71.5247 63.0338 80.8867 66.8695 88.2582 73.3936C102.823 86.3081 102.421 103.708 91.1354 114.136C79.2092 125.164 71.0099 128.601 47.7016 118.419C42.8566 116.302 28.4818 101.322 25.0903 96.05C21.2403 90.0848 13.1641 66.7909 13.1641 66.7909C13.1641 66.7909 16.8425 68.3194 22.3808 70.672C26.0779 72.2304 32.7715 72.4913 38.4513 71.481Z" clip-rule="evenodd"/><path fill="#fff" fill-rule="evenodd" d="M41.0489 72.1297C49.2668 70.068 55.2337 67.7751 56.6611 67.6558C67.5065 66.7759 69.8172 76.0331 70.2309 78.3782C70.9129 82.222 68.4867 88.2133 61.9496 91.7364C55.4125 95.2596 42.9422 96.2588 35.861 91.8445C24.71 84.9212 15.415 67.4918 15.415 67.4918C15.415 67.4918 22.8279 71.9246 27.2257 73.0841C31.6235 74.2436 36.3642 73.3041 41.0489 72.1297Z" clip-rule="evenodd"/><path fill="#0316F0" fill-rule="evenodd" d="M141.478 126.032C149.431 132.672 151.232 143.626 145.499 150.493C139.767 157.361 128.676 157.551 120.719 150.907C118.349 148.935 116.441 146.468 115.129 143.678C113.97 141.191 111.473 138.119 108.942 137.53C107.723 137.25 105.543 137.045 106.642 136.102C107.742 135.159 133.525 119.389 141.478 126.032Z" clip-rule="evenodd"/><path fill="#5C87FF" fill-rule="evenodd" d="M87.4305 108.204C94.6794 111.332 95.7714 117.058 93.6322 121.7C91.4929 126.342 86.1187 129.902 78.8698 126.782C71.6209 123.661 64.1521 110.75 64.6291 109.192C64.9832 108.036 80.1779 105.083 87.4305 108.204Z" clip-rule="evenodd"/><path fill="#1D49FF" fill-rule="evenodd" d="M78.5525 113.39C79.674 112.193 81.1263 111.357 82.7244 110.99C84.3224 110.622 85.9937 110.738 87.5253 111.325C89.0568 111.911 90.3792 112.94 91.3237 114.281C92.2682 115.622 92.7921 117.214 92.8286 118.854C92.8651 120.494 92.4125 122.107 91.5286 123.489C90.6446 124.87 89.3694 125.957 87.8654 126.611C86.3615 127.265 84.697 127.456 83.0842 127.159C81.4713 126.863 79.9833 126.093 78.8097 124.947C77.2457 123.448 76.3403 121.388 76.2921 119.222C76.2439 117.055 77.0568 114.958 78.5525 113.39Z" clip-rule="evenodd"/><path fill="#3541D1" fill-rule="evenodd" d="M80.7406 115.724C81.6287 114.802 82.7704 114.165 84.0209 113.893C85.2714 113.621 86.5745 113.727 87.765 114.197C88.9554 114.666 89.9796 115.479 90.7078 116.532C91.436 117.585 91.8353 118.83 91.8552 120.11C91.8751 121.39 91.5146 122.647 90.8195 123.722C90.1244 124.797 89.1259 125.641 87.9506 126.147C86.7754 126.654 85.4762 126.8 84.2178 126.567C82.9595 126.334 81.7985 125.733 80.8822 124.839C79.6559 123.649 78.9521 122.02 78.9256 120.311C78.899 118.602 79.5518 116.952 80.7406 115.724Z" clip-rule="evenodd"/><path fill="#35416B" fill-rule="evenodd" d="M83.1073 117.737C83.7467 117.127 84.5514 116.719 85.4211 116.563C86.2908 116.408 87.187 116.511 87.9982 116.862C88.8093 117.212 89.4995 117.793 89.9828 118.533C90.466 119.273 90.721 120.139 90.7159 121.023C90.7108 121.906 90.4459 122.769 89.9542 123.503C89.4624 124.238 88.7656 124.811 87.9505 125.152C87.1354 125.493 86.238 125.586 85.3702 125.421C84.5023 125.255 83.7024 124.838 83.07 124.22C82.6461 123.793 82.3108 123.285 82.0832 122.728C81.8556 122.17 81.7403 121.573 81.7437 120.971C81.7472 120.369 81.8694 119.773 82.1034 119.218C82.3374 118.663 82.6785 118.16 83.1073 117.737Z" clip-rule="evenodd"/><path fill="#fff" fill-rule="evenodd" d="M85.9875 117.565C86.1159 117.453 86.2741 117.381 86.4427 117.358C86.6114 117.335 86.7833 117.361 86.9372 117.434C87.0912 117.506 87.2206 117.622 87.3097 117.768C87.3987 117.913 87.4435 118.081 87.4386 118.251C87.4337 118.421 87.3792 118.587 87.2819 118.726C87.1846 118.866 87.0487 118.975 86.8907 119.038C86.7328 119.102 86.5597 119.118 86.3927 119.085C86.2257 119.052 86.0719 118.971 85.9503 118.852C85.8683 118.765 85.8042 118.663 85.7617 118.551C85.7192 118.439 85.6991 118.32 85.7025 118.201C85.706 118.081 85.7329 117.964 85.7818 117.855C85.8308 117.746 85.9006 117.647 85.9875 117.565Z" clip-rule="evenodd"/><path fill="#fff" fill-rule="evenodd" d="M88.0896 118.598C88.1751 118.514 88.2834 118.458 88.4008 118.435C88.5183 118.413 88.6398 118.426 88.75 118.472C88.8603 118.519 88.9544 118.596 89.0205 118.696C89.0867 118.796 89.122 118.913 89.122 119.032C89.122 119.152 89.0867 119.269 89.0205 119.369C88.9544 119.468 88.8603 119.546 88.75 119.593C88.6398 119.639 88.5183 119.652 88.4008 119.629C88.2834 119.607 88.1751 119.55 88.0896 119.467C87.9747 119.351 87.9102 119.195 87.9102 119.032C87.9102 118.87 87.9747 118.713 88.0896 118.598Z" clip-rule="evenodd"/><path fill="#3541D1" fill-rule="evenodd" d="M1.10671 58.8981C1.88423 57.438 3.07754 56.2417 4.53541 55.4608C5.99328 54.6798 7.65007 54.3494 9.29586 54.5114C10.9416 54.6734 12.5023 55.3204 13.7801 56.3706C15.0579 57.4208 15.9953 58.8268 16.4734 60.4104C16.9516 61.994 16.949 63.684 16.4661 65.2662C15.9831 66.8484 15.0415 68.2515 13.7605 69.2978C12.4796 70.3441 10.917 70.9865 9.2707 71.1435C7.62443 71.3004 5.96864 70.965 4.51314 70.1797C3.5489 69.6627 2.6959 68.9608 2.00285 68.1141C1.3098 67.2673 0.790295 66.2923 0.473972 65.2447C0.157649 64.1971 0.0507162 63.0974 0.159284 62.0084C0.267852 60.9195 0.589788 59.8626 1.10671 58.8981Z" clip-rule="evenodd"/><path fill="#1D49FF" fill-rule="evenodd" d="M1.796 58.3127C2.43432 57.1519 3.40183 56.2061 4.57662 55.5944C5.75141 54.9827 7.08089 54.7326 8.39755 54.8755C9.71421 55.0184 10.9591 55.548 11.9754 56.3975C12.9917 57.247 13.7339 58.3784 14.1085 59.6492C14.483 60.9199 14.4732 62.2732 14.0802 63.5383C13.6873 64.8035 12.9288 65.924 11.9002 66.7587C10.8717 67.5934 9.61927 68.1048 8.30067 68.2286C6.98208 68.3524 5.65635 68.083 4.49057 67.4543C2.92168 66.5992 1.75649 65.1559 1.2512 63.4416C0.745896 61.7273 0.941862 59.8825 1.796 58.3127Z" clip-rule="evenodd"/><path fill="#5C87FF" fill-rule="evenodd" d="M2.7425 57.5037C3.2153 56.6267 3.93746 55.9098 4.81764 55.4435C5.69781 54.9772 6.69645 54.7825 7.68725 54.884C8.67804 54.9856 9.61649 55.3788 10.3839 56.0139C11.1512 56.6491 11.7131 57.4976 11.9983 58.4522C12.2836 59.4068 12.2794 60.4246 11.9863 61.3768C11.6932 62.329 11.1244 63.1729 10.3519 63.8017C9.57929 64.4305 8.63765 64.816 7.64605 64.9093C6.65445 65.0027 5.65744 64.7998 4.78113 64.3263C4.19924 64.0124 3.68491 63.5869 3.26749 63.0741C2.85007 62.5613 2.53778 61.9712 2.34845 61.3376C2.15912 60.704 2.09646 60.0393 2.16408 59.3814C2.2317 58.7235 2.42825 58.0855 2.7425 57.5037Z" clip-rule="evenodd"/><path fill="#92BBFF" fill-rule="evenodd" d="M3.37656 56.7804C3.69174 56.1966 4.17287 55.7194 4.75913 55.4091C5.34538 55.0988 6.01043 54.9693 6.67023 55.037C7.33003 55.1047 7.95496 55.3666 8.466 55.7896C8.97705 56.2125 9.35128 56.7775 9.54139 57.4132C9.7315 58.0488 9.72894 58.7266 9.53406 59.3608C9.33918 59.995 8.96072 60.5572 8.44651 60.9762C7.9323 61.3953 7.30545 61.6525 6.64516 61.7153C5.98487 61.778 5.32079 61.6436 4.73688 61.3288C4.34885 61.1197 4.00584 60.8361 3.72744 60.4943C3.44904 60.1524 3.24071 59.7591 3.11437 59.3367C2.98804 58.9142 2.94616 58.471 2.99115 58.0324C3.03614 57.5938 3.1671 57.1684 3.37656 56.7804Z" clip-rule="evenodd"/><path fill="#C5E4FF" fill-rule="evenodd" d="M3.75675 56.5233C3.98851 56.0486 4.35693 55.6542 4.81462 55.3907C5.27231 55.1272 5.79834 55.0068 6.32503 55.0448C6.85172 55.0829 7.35499 55.2777 7.77008 55.6042C8.18518 55.9307 8.49313 56.374 8.6543 56.877C8.81547 57.3801 8.82251 57.9199 8.6745 58.4269C8.52649 58.934 8.2302 59.3852 7.82375 59.7224C7.4173 60.0596 6.91927 60.2675 6.39375 60.3193C5.86823 60.371 5.33923 60.2643 4.87484 60.0129C4.26754 59.6948 3.8098 59.1504 3.60057 58.4974C3.39134 57.8444 3.44744 57.1352 3.75675 56.5233Z" clip-rule="evenodd"/><path fill="#fff" fill-rule="evenodd" d="M3.65177 57.2352C3.63167 56.8066 3.74037 56.3818 3.96387 56.0156C4.18737 55.6494 4.51542 55.3585 4.9057 55.1805C5.29599 55.0026 5.73062 54.9456 6.15356 55.0171C6.5765 55.0885 6.96835 55.2851 7.27858 55.5814C7.58881 55.8777 7.80321 56.2601 7.8941 56.6795C7.985 57.0988 7.94823 57.5357 7.78855 57.934C7.62888 58.3322 7.35361 58.6735 6.99824 58.9137C6.64287 59.154 6.22369 59.2823 5.79476 59.282C5.51956 59.2889 5.2457 59.2414 4.98889 59.1422C4.73208 59.043 4.49739 58.8941 4.29828 58.7039C4.09917 58.5137 3.93956 58.2861 3.82861 58.034C3.71767 57.782 3.65758 57.5105 3.65177 57.2352Z" clip-rule="evenodd"/><path fill="#92BBFF" fill-rule="evenodd" d="M144.568 123.654C152.305 130.111 153.93 140.915 148.198 147.786C142.466 154.658 131.55 154.989 123.812 148.532C121.495 146.609 119.641 144.188 118.39 141.448C117.048 138.488 109.147 131.975 109.147 131.975C109.147 131.975 136.834 117.196 144.568 123.654Z" clip-rule="evenodd"/><path fill="#C5E4FF" fill-rule="evenodd" d="M121.491 125.756C124.525 124.101 135.776 122.565 140.166 123.631C146.07 125.063 148.243 129.671 149.7 133.914C151.157 138.156 148.343 146.59 147.464 145.937C146.584 145.285 147.292 139.025 146.245 134.1C145.5 130.562 142.071 126.48 134.919 126.569C131.136 126.618 118.457 127.412 121.491 125.756Z" clip-rule="evenodd"/><path fill="#5C87FF" fill-rule="evenodd" d="M138.456 132.672C144.367 135.629 144.974 140.475 142.928 144.271C140.882 148.066 136.19 150.799 130.282 147.842C124.375 144.886 118.807 133.712 119.292 132.441C119.657 131.49 132.548 129.716 138.456 132.672Z" clip-rule="evenodd"/><path fill="#1D49FF" fill-rule="evenodd" d="M132.496 137.62C137.002 141.642 137.766 145.225 136.525 147.194C135.284 149.162 132.019 149.535 127.532 145.49C121.942 140.438 119.176 133.015 119.445 132.292C119.646 131.748 127.987 133.601 132.496 137.62Z" clip-rule="evenodd"/><path fill="#0316F0" fill-rule="evenodd" d="M129.533 139.879C133.234 143.905 134.043 146.631 133.219 147.686C132.395 148.741 129.921 148.141 126.235 144.103C121.628 139.055 119.057 133.101 119.217 132.665C119.336 132.337 125.829 135.852 129.533 139.879Z" clip-rule="evenodd"/><path fill="#35416B" fill-rule="evenodd" d="M126.205 140.438C128.78 144.036 129.47 145.937 129.03 146.314C128.59 146.69 127.014 145.542 124.446 141.941C121.237 137.437 119.228 133.034 119.303 132.821C119.377 132.609 123.63 136.837 126.205 140.438Z" clip-rule="evenodd"/><path fill="#0316F0" fill-rule="evenodd" d="M57.9499 50.8825C56.4256 56.3966 58.0617 57.6493 58.7363 57.9848C60.227 58.7305 61.6172 51.11 64.5652 45.7935C66.8014 41.7521 74.423 36.7004 72.1644 41.1817C69.9059 45.663 73.7036 52.6162 75.664 52.303C76.7821 52.1278 80.1363 46.2185 85.2534 43.6871C91.3246 40.6784 102.211 37.8039 99.5947 40.0744C95.8268 43.3515 97.4778 53.936 98.663 54.3088C99.9786 54.7189 105.931 47.5197 111.875 46.3639C116.72 45.4207 127.01 46.3341 122.683 48.3436C118.852 50.1294 123.689 63.2565 124.994 63.9574C126.298 64.6584 134.777 59.9384 142.343 58.7715C149.23 57.7089 165.767 67.1898 159.792 67.3091C151.403 67.4806 147.847 80.6264 148.939 84.9511C149.502 87.188 157.265 83.3517 165.036 85.2121C170.425 86.4983 182.955 93.5223 176.776 93.9212C173.515 94.13 151.954 109.207 155.417 118.326C155.838 119.445 168.088 116.138 174.842 119.493C183.138 123.613 193.059 138.6 186.201 134.384C179.12 130.04 160.362 142.47 160.743 144.73C160.948 145.96 173.824 142.396 183.76 146.821C193.696 151.246 202.902 165.76 195.891 162.595C189.183 159.568 170.06 172.203 169.594 174.153C169.128 176.103 184.778 175.044 194.803 180.819C202.302 185.14 213.438 212.356 205.66 205.291C197.882 198.226 185.985 201.19 185.907 202.159C185.698 205.063 196.909 208.807 204.914 215.842C211.772 221.878 222.297 232.872 215.577 231.534C205.801 229.584 200.815 242.957 200.815 242.957C200.815 242.957 211.515 245.026 218.022 251.226C224.529 257.426 233.28 271.273 226.847 267.75C218.227 263.026 202.946 272.362 202.946 272.362C202.946 272.362 224.074 276.69 231.182 285.172C233.295 287.744 234.983 290.64 236.18 293.747H250.603C253.692 289.612 259.424 285.071 267.717 291.048C274.686 296.07 266.249 271.866 257.807 265.502C249.365 259.138 235.304 257.505 235.304 257.505C235.304 257.505 245.97 252.352 251.546 257.926C263.472 269.856 255.824 238.644 249.619 233.077C240.104 224.543 231.797 222.105 231.797 222.105C231.797 222.105 247.573 214.802 254.591 222.575C259.376 227.876 261.672 207.606 246.477 200.653C240.984 198.14 224.958 191.839 224.958 191.839C224.958 191.839 246.41 188.629 251.322 192.738C262.786 202.319 247.178 173.996 243.41 171.014C234.577 164.019 220.575 158.427 220.575 158.427C220.575 158.427 228.088 146.825 237.193 149.177C246.76 151.653 237.074 137.102 228.994 132.352C220.914 127.602 212.622 123.878 212.622 123.878C212.622 123.878 207.683 108.394 220.478 108.033C234.152 107.66 218.454 99.0289 211.861 93.1979C205.268 87.367 194.102 84.6938 194.102 84.6938C194.102 84.6938 189.872 70.3029 206.815 66.5411C214.604 64.8112 199.111 55.6771 190.457 55.1178C181.804 54.5586 171.182 56.9819 171.182 56.9819C171.182 56.9819 163.691 49.4174 170.809 40.5404C174.469 35.9659 160.91 36.6631 153.251 39.6419C146.345 42.33 140.382 45.115 138.664 44.7683C134.751 43.9816 135.865 37.9717 140.9 32.5285C145.104 27.9912 133.446 28.3678 126.846 30.601C120.961 32.5993 115.975 41.04 114.547 40.5404C112.154 39.6904 110.448 24.6768 111.86 20.3521C112.46 18.529 104.634 19.8711 98.7189 23.9088C93.244 27.637 89.9606 36.898 87.9965 36.6258C85.8572 36.3238 86.4051 22.8612 84.9739 19.7407C84.4298 18.5588 66.492 24.2369 57.3461 38.639C48.2002 53.0412 43.0679 67.3091 43.0679 67.3091C43.0679 67.3091 44.6112 65.4935 49.7804 57.9624C54.085 51.6953 58.7251 48.0752 57.9499 50.8825Z" clip-rule="evenodd"/><path fill="#5C87FF" fill-rule="evenodd" d="M72.3991 23.8267C76.1495 21.3342 80.4794 19.8523 84.9701 19.5243C85.3204 19.5243 81.6158 28.953 77.5162 31.641C71.3854 35.6526 62.3252 32.8788 62.3252 32.8788C65.2229 29.3851 68.6169 26.3353 72.3991 23.8267Z" clip-rule="evenodd"/><path fill="#C5E4FF" fill-rule="evenodd" d="M76.5809 12.8917C82.7117 8.88011 84.8435 9.07025 85.4287 9.04788C85.779 9.04788 87.4487 12.1796 83.349 14.8639C80.7924 16.5379 77.0468 19.3378 74.0056 20.7582C69.7532 22.7454 62.6533 29.4003 62.6533 29.4003C62.6533 29.4003 63.805 26.0449 65.1802 24.2143C67.8785 20.6427 72.526 15.5499 76.5809 12.8917Z" clip-rule="evenodd"/><path fill="#92BBFF" fill-rule="evenodd" d="M55.2924 51.0241C61.4195 47.0125 57.5286 54.4429 53.429 57.131C50.876 58.8012 48.3604 60.2589 48.3604 60.2589C48.3604 60.2589 51.2189 53.6898 55.2924 51.0241Z" clip-rule="evenodd"/><path fill="#C5E4FF" fill-rule="evenodd" d="M51.1593 60.0129C53.1123 58.2755 54.3869 58.5999 54.4763 59.1032C54.6366 60.0054 52.1023 62.6935 51.0364 63.5137C49.4048 64.8182 47.9011 66.275 46.5454 67.8645C46.5454 67.8645 46.9889 63.7001 51.1593 60.0129Z" clip-rule="evenodd"/><path fill="#C5E4FF" fill-rule="evenodd" d="M65.0274 53.9284C66.7604 52.672 67.8897 52.9068 67.968 53.2685C68.1096 53.9246 65.866 55.8782 64.9193 56.471C63.4972 57.396 62.1646 58.4519 60.939 59.6251C60.939 59.6251 61.3303 56.6164 65.0274 53.9284Z" clip-rule="evenodd"/><path fill="#C5E4FF" fill-rule="evenodd" d="M86.6659 48.6939C88.6896 48.1981 89.4797 48.858 89.3605 49.2271C89.1443 49.8907 86.3789 50.8302 85.3018 51.0129C83.6672 51.3274 82.0642 51.7891 80.5127 52.3924C80.5127 52.3924 82.3464 49.7453 86.6659 48.6939Z" clip-rule="evenodd"/><path fill="#92BBFF" fill-rule="evenodd" d="M69.4922 40.503C75.623 36.4877 71.7283 43.9218 67.6287 46.6061C65.072 48.2801 62.5601 49.7341 62.5601 49.7341C62.5601 49.7341 65.4372 43.1575 69.4922 40.503Z" clip-rule="evenodd"/><path fill="#92BBFF" fill-rule="evenodd" d="M96.915 38.7656C103.888 38.2697 97.2281 41.9756 92.5247 43.3923C89.6028 44.2722 83.5801 44.261 83.5801 44.261C83.5801 44.261 92.0775 39.0937 96.915 38.7656Z" clip-rule="evenodd"/><path fill="#92BBFF" fill-rule="evenodd" d="M123.384 48.1085C120.615 48.1645 120.328 50.2634 116.493 50.133C112.658 50.0025 108.547 47.3182 108.547 47.3182C108.547 47.3182 114.365 45.2192 118.203 45.3497C122.042 45.4801 126.153 48.0414 123.384 48.1085Z" clip-rule="evenodd"/><path fill="#C5E4FF" fill-rule="evenodd" d="M102.699 4.46227C108.83 0.446967 110.962 0.637115 111.551 0.614746C111.897 0.614746 113.891 5.62921 109.792 8.31353C107.235 9.98751 103.352 9.04054 100.314 10.461C96.0617 12.4481 92.1447 18.5251 92.9161 16.374C94.1386 12.9738 98.6444 7.11677 102.699 4.46227Z" clip-rule="evenodd"/><path fill="#C5E4FF" fill-rule="evenodd" d="M128.449 5.65534C132.72 2.84798 137.118 2.85544 137.606 3.18352C138.802 3.98509 137.945 7.90346 133.845 10.5915C131.292 12.2618 129.351 12.4295 126.309 13.8463C122.057 15.8334 116.127 17.8839 116.127 17.8839C116.127 17.8839 118.591 15.0542 119.966 13.2274C122.665 9.65946 123.775 8.72367 128.449 5.65534Z" clip-rule="evenodd"/><path fill="#C5E4FF" fill-rule="evenodd" d="M166.471 7.89971C166.818 7.89971 165.264 10.1367 161.164 12.8359C158.611 14.5061 153.732 13.8425 150.695 15.263C146.443 17.2501 140.386 19.2224 140.386 19.2224C140.386 19.2224 147.341 11.71 150.881 10.1441C162.204 5.12219 165.882 7.92581 166.471 7.89971Z" clip-rule="evenodd"/><path fill="#C5E4FF" fill-rule="evenodd" d="M174.953 18.7451C181.911 16.4596 190.26 20.4041 191.005 21.489C191.751 22.5739 184.367 21.3399 177.924 23.0884C173.271 24.2824 168.557 25.2233 163.802 25.907C163.802 25.907 168.644 20.8254 174.953 18.7451Z" clip-rule="evenodd"/><path fill="#C5E4FF" fill-rule="evenodd" d="M202.29 41.4872C206.889 43.0158 211.902 45.4951 210.586 47.7171C209.271 49.9391 207.728 45.9909 202.987 44.6674C200.051 43.8407 197.173 42.8219 194.371 41.6177C194.371 41.6177 197.688 39.9549 202.29 41.4872Z" clip-rule="evenodd"/><path fill="#5C87FF" fill-rule="evenodd" d="M126.514 30.2168C132.641 26.2015 142.074 29.8813 142.074 29.8813C142.074 29.8813 142.19 32.9571 138.09 35.6414C131.959 39.653 116.329 39.1571 116.329 39.1571C119.305 35.7309 122.731 32.7235 126.514 30.2168Z" clip-rule="evenodd"/><path fill="#5C87FF" fill-rule="evenodd" d="M160.906 37.7738C169.344 36.3198 171.562 38.5493 171.562 38.5493C171.562 38.5493 170.861 42.6914 166.158 44.4474C161.454 46.2034 145.879 42.6355 145.879 42.6355C145.879 42.6355 150.523 39.5634 160.906 37.7738Z" clip-rule="evenodd"/><path fill="#5C87FF" fill-rule="evenodd" d="M201.41 58.4806C209.61 62.3803 209.17 65.3741 209.17 65.3741C209.17 65.3741 206.68 68.379 201.914 66.8094C200.195 66.2427 194.184 68.4051 189.641 66.6901C181.587 63.6479 167.54 61.5228 167.54 61.5228C171.621 59.5757 175.842 57.9357 180.167 56.6165C183.819 55.5465 187.621 54.8008 190.602 55.073C194.422 55.4309 198.425 57.0564 201.41 58.4806Z" clip-rule="evenodd"/><path fill="#5C87FF" fill-rule="evenodd" d="M223.906 102.157C225.77 103.506 225.863 106.135 225.863 106.135C225.863 106.135 225.624 108.308 220.515 107.924C218.394 107.764 208.1 107.503 203.117 102.776C196.338 96.3481 185.88 88.187 185.88 88.187C185.88 88.187 200.237 85.0926 207.869 89.518C210.456 91.0093 212.301 93.455 215.189 95.9007C218.077 98.3465 221.976 100.766 223.906 102.157Z" clip-rule="evenodd"/><path fill="#5C87FF" fill-rule="evenodd" d="M232.624 134.589C237.894 138.455 237.368 138.425 239.604 141.956C241.841 145.486 241.986 146.821 241.569 148.707C241.151 150.594 240.216 150.314 237.935 149.502C227.179 145.665 200.337 129.03 200.337 129.03C200.337 129.03 210.709 124.012 218.517 126.48C220.508 127.11 227.354 130.719 232.624 134.589Z" clip-rule="evenodd"/><path fill="#5C87FF" fill-rule="evenodd" d="M248.139 176.237C254.803 185.982 257.456 198.065 254.352 195.43C251.441 192.954 248.504 191.287 246.205 190.654C245.728 190.523 236.44 185.691 232.754 183.07C223.81 176.71 216.4 165.704 216.4 165.704C216.4 165.704 228.949 163.042 239.403 168.243C242.135 169.6 246.723 174.167 248.139 176.237Z" clip-rule="evenodd"/><path fill="#5C87FF" fill-rule="evenodd" d="M100.255 22.8984C106.046 18.98 111.339 19.1478 111.868 19.1701C112.185 19.1701 105.219 28.6473 101.347 31.2682C95.5549 35.1903 91.5298 33.0168 91.5298 33.0168C91.5298 33.0168 94.4629 26.8167 100.255 22.8984Z" clip-rule="evenodd"/></g><defs><clipPath id="clip0"><rect width="274.4" height="293.37" fill="#fff" transform="translate(0 0.499023)"/></clipPath></defs></svg>