<svg fill="none" viewBox="0 0 115 114"><rect width="115" height="114" fill="#F96132" rx="10"/><path fill="#fff" fill-rule="evenodd" stroke="#fff" stroke-linecap="round" stroke-linejoin="round" stroke-width="2.17" d="M60.183 21.389l25.49 12.698a3.001 3.001 0 011.421 1.843l5.337 26.43c.118.8-.078 1.615-.55 2.275l-16.9 21.104a3.008 3.008 0 01-2.11 1.004l-27.826-.112a3.252 3.252 0 01-2.149-.98L24.55 64.38a2.721 2.721 0 01-.495-2.226l7.282-26.843a3.227 3.227 0 011.485-1.813l25.015-12.12a2.996 2.996 0 012.346.01z" clip-rule="evenodd"/><path fill="#fff" fill-rule="evenodd" d="M60.347 30.064l-2.614.107.06 6.602a17.71 17.71 0 00-6.229 1.622c-3.138 1.505-6.312 4.411-6.312 4.411l-5.569-5.391-2.153 2.068 5.554 5.573a16.491 16.491 0 00-2.307 5.636c-.628 3.234-.213 7.292-.213 7.292l-6.87.598.123 2.559 7.242-.368s1.13 3.568 3.184 6.004a37.088 37.088 0 004.985 4.67l-2.416 6.097 2.381.931 2.678-6.018a44.58 44.58 0 006.466.98c3.341.177 7.396-.857 7.396-.857l2.861 6.067 2.54-1.181-.62-1.27-2.306-4.72a21.83 21.83 0 005.01-4.253 32.029 32.029 0 003.633-6.078l6.713 1.01L84 59.26l-6.485-.98a19.524 19.524 0 00-.213-6.676 23.817 23.817 0 00-2.861-6.494l5.584-4.013-1.659-2.054-5.514 3.705s-2.867-2.783-5.817-4.2a24.215 24.215 0 00-6.669-1.838l-.02-6.646zm-3.778 10.919a.697.697 0 01.263.662l-.292 6.954c-.03.642-.495.887-1.055.554l-5.94-3.632c-.55-.333-.495-.858.05-1.161l6.276-3.338a.713.713 0 01.698-.04zm5.124.108l6.574 2.74a.62.62 0 01.486.526.608.608 0 01-.347.625l-5.663 4.136a.635.635 0 01-.714.154.633.633 0 01-.385-.614l-.882-6.862c-.079-.637.332-.955.931-.705zM46.56 47.98a.704.704 0 01.654.28l4.807 5.082c.445.49.307.98-.322 1.132l-6.792 1.672c-.629.151-.99-.23-.807-.843l1.98-6.783a.688.688 0 01.48-.54zm25.421.618a.715.715 0 01.357.613l.816 7.018c.075.632-.336.95-.925.686l-6.436-2.862a.63.63 0 01-.478-.54.617.617 0 01.354-.627l5.6-4.131a.735.735 0 01.712-.157zm-13.228 5.019c.392 0 .775.115 1.1.33.326.215.58.522.73.88a1.941 1.941 0 01-.43 2.136 1.999 1.999 0 01-2.158.425 1.976 1.976 0 01-.888-.722 1.946 1.946 0 01-.334-1.089 1.918 1.918 0 01.577-1.387 1.955 1.955 0 011.404-.564v-.01zm-5.678 5.827c.639-.088.946.314.698.902L51.07 66.79a.626.626 0 01-.535.482.639.639 0 01-.643-.33l-4.317-5.45c-.396-.49-.188-.98.45-1.073l7.05-.975zm11.817 0l7.134.446c.643.04.876.49.495 1.024l-3.96 5.759a.62.62 0 01-.615.371.627.627 0 01-.559-.45l-3.129-6.185c-.287-.539-.01-.994.634-.955v-.01zm-5.94 2.343a.717.717 0 01.589.411l3.495 6.053c.322.554.06 1.02-.584 1.024l-6.995.079c-.644 0-.907-.441-.59-.98l3.515-6.161a.687.687 0 01.555-.417l.014-.01z" clip-rule="evenodd"/><path fill="#F96132" fill-rule="evenodd" d="M60.347 30.064l-2.614.107.06 6.602a17.71 17.71 0 00-6.229 1.622c-3.138 1.505-6.312 4.411-6.312 4.411l-5.569-5.391-2.153 2.068 5.554 5.573a16.491 16.491 0 00-2.307 5.636c-.628 3.234-.213 7.292-.213 7.292l-6.87.598.123 2.559 7.242-.368s1.13 3.568 3.184 6.004a37.088 37.088 0 004.985 4.67l-2.416 6.097 2.381.931 2.678-6.018a44.58 44.58 0 006.466.98c3.341.177 7.396-.857 7.396-.857l2.861 6.067 2.54-1.181-.62-1.27-2.306-4.72a21.83 21.83 0 005.01-4.253 32.029 32.029 0 003.633-6.078l6.713 1.01L84 59.26l-6.485-.98a19.524 19.524 0 00-.213-6.676 23.817 23.817 0 00-2.861-6.494l5.584-4.013-1.659-2.054-5.514 3.705s-2.867-2.783-5.817-4.2a24.215 24.215 0 00-6.669-1.838l-.02-6.646zm-3.778 10.919a.697.697 0 01.263.662l-.292 6.954c-.03.642-.495.887-1.055.554l-5.94-3.632c-.55-.333-.495-.858.05-1.161l6.276-3.338a.713.713 0 01.698-.04zm5.124.108l6.574 2.74a.62.62 0 01.486.526.608.608 0 01-.347.625l-5.663 4.136a.635.635 0 01-.714.154.633.633 0 01-.385-.614l-.882-6.862c-.079-.637.332-.955.931-.705zM46.56 47.98a.704.704 0 01.654.28l4.807 5.082c.445.49.307.98-.322 1.132l-6.792 1.672c-.629.151-.99-.23-.807-.843l1.98-6.783a.688.688 0 01.48-.54zm25.421.618a.715.715 0 01.357.613l.816 7.018c.075.632-.336.95-.925.686l-6.436-2.862a.63.63 0 01-.478-.54.617.617 0 01.354-.627l5.6-4.131a.734.734 0 01.712-.157zm-13.228 5.019c.392 0 .775.115 1.1.33.326.215.58.522.73.88a1.942 1.942 0 01-.43 2.136 1.999 1.999 0 01-2.158.425 1.976 1.976 0 01-.888-.722 1.946 1.946 0 01-.334-1.089 1.918 1.918 0 01.577-1.387 1.955 1.955 0 011.404-.564v-.01zm-5.678 5.827c.639-.088.946.314.698.902L51.07 66.79a.626.626 0 01-.535.482.639.639 0 01-.643-.33l-4.317-5.45c-.396-.49-.188-.98.45-1.073l7.05-.975zm11.817 0l7.134.446c.643.04.876.49.495 1.024l-3.96 5.759a.62.62 0 01-.615.371.627.627 0 01-.559-.45l-3.129-6.185c-.287-.539-.01-.994.634-.955v-.01zm-5.94 2.343a.717.717 0 01.589.411l3.495 6.053c.322.554.06 1.02-.584 1.024l-6.995.079c-.644 0-.907-.441-.59-.98l3.515-6.161a.686.686 0 01.555-.417l.014-.01z" clip-rule="evenodd"/><path fill="#F96132" fill-rule="evenodd" stroke="#F96132" stroke-linecap="round" stroke-linejoin="round" stroke-width="2.17" d="M58.03 31.646a.974.974 0 01.647-.866 1 1 0 011.06.246.976.976 0 01-.717 1.655 1.024 1.024 0 01-.71-.315 1.004 1.004 0 01-.28-.72zm18.975 9.263a.975.975 0 01.647-.866 1 1 0 011.06.246.977.977 0 01-.717 1.654 1.029 1.029 0 01-.71-.316 1.01 1.01 0 01-.28-.718zm4.287 19.614a.974.974 0 01.647-.866 1 1 0 011.06.246.977.977 0 01.192 1.06.998.998 0 01-.908.594 1.025 1.025 0 01-.712-.314 1.004 1.004 0 01-.279-.72zM68.13 76.535a.975.975 0 01.647-.867 1 1 0 011.06.246.976.976 0 01-.717 1.655 1.024 1.024 0 01-.71-.315 1.004 1.004 0 01-.28-.72zm-20.476-.123a.974.974 0 01.193-.529.99.99 0 011.022-.371.977.977 0 01-.224 1.935 1.024 1.024 0 01-.711-.315 1.004 1.004 0 01-.28-.72zM34.52 59.734a.974.974 0 01.644-.87.999.999 0 011.061.243.977.977 0 01-.715 1.656 1.025 1.025 0 01-.71-.313 1.004 1.004 0 01-.28-.716zm4.203-20.158a.975.975 0 01.647-.866 1 1 0 011.06.246.977.977 0 01-.717 1.654 1.024 1.024 0 01-.71-.314 1.004 1.004 0 01-.28-.72z" clip-rule="evenodd"/></svg>