<svg fill="none" viewBox="0 0 115 114"><rect width="115" height="114" fill="#1D4AFF" rx="10"/><path fill="#fff" fill-rule="evenodd" stroke="#fff" stroke-linecap="round" stroke-linejoin="round" stroke-width="2.75" d="M56.994 19C36.004 19 19 35.607 19 56.09 19 73.418 31.188 87.923 47.639 92l.147-8.409s-7.936 2.611-12.402-2.615c-1.212-1.417-.976-3.75-2.571-5.255a33.76 33.76 0 01-4.196-4.575s3.377-.15 5.158.841c1.782.993 3.88 6.307 6.755 7.017s7.307-.878 7.307-.878l2.03-4.848c-9.439 0-17.202-7.614-17.202-16.346 0-4.81.6-9.948 4.264-12.849a10.842 10.842 0 01-1.507-4.625c-.211-2.661 1.507-5.52 1.507-5.52 1.81-.102 3.623.144 5.34.723 2.5.95 4.644 3.078 4.644 3.078s5.26-1.569 10.292-1.657c3.33.007 6.644.461 9.853 1.35a36.14 36.14 0 014.525-2.447 23.222 23.222 0 014.568-1.3 9.553 9.553 0 012.056 4.903c.262 2.842-1.018 6.475-1.018 6.475 3.31 2.884 4.475 6.777 4.475 11.314 0 8.728-8.088 16.308-17.772 17.2-.596.054 1.84.9 2.402 2.48 1.22 3.422.722 11.381.371 15.859C82.965 87.736 95 73.308 95 56.086 95 35.608 77.983 19 56.994 19z" clip-rule="evenodd"/></svg>