<svg fill="none" viewBox="0 0 114 114"><rect width="114" height="114" fill="#F7A501" rx="10"/><path fill="#fff" fill-rule="evenodd" stroke="#fff" stroke-linecap="round" stroke-linejoin="round" stroke-width="2.17" d="M36.979 88.196l40.173.278a5.282 5.282 0 005.318-5.252l.287-51.505a5.252 5.252 0 00-5.256-5.287H37.064a5.298 5.298 0 00-5.312 5.322l-.07 51.142a5.322 5.322 0 005.297 5.302z" clip-rule="evenodd"/><path fill="#F7A501" fill-rule="evenodd" stroke="#F7A501" stroke-linecap="round" stroke-linejoin="round" stroke-width="2.17" d="M43.705 58.045l.05-23.273 7.07.03-.177 14.644s9.442-4.918 17.168-.172c2.262 1.389 2.272 5.635 2.272 5.635l-.096 24.814H63.64l-.222-24.743s-1.192-3.126-8.398-1.197c-4.953 1.318-11.315 4.262-11.315 4.262z" clip-rule="evenodd"/><path fill="#F7A501" fill-rule="evenodd" stroke="#F7A501" stroke-linecap="round" stroke-linejoin="round" stroke-width="2.17" d="M60.353 43.31l4.575-8.079 7.62-.096-4.944 8.176h-7.251zm-16.38 22.476l.095 14.285 7.07-6.857-7.166-7.428z" clip-rule="evenodd"/></svg>