<svg fill="none" viewBox="0 0 115 114"><rect width="115" height="114" fill="#1D4AFF" rx="10"/><path stroke="#fff" stroke-linecap="round" stroke-linejoin="round" stroke-width="3.5" d="M33.467 69.165s-.063 6.363-.063 12.966c0 .302-1.941 2.52-5.095 2.76-3.153.24-4.725-1.257-5.03-4.259-.306-3 1.848-5.19 4.671-5.483 3.096-.298 5.279 2.28 5.279 2.28"/><path stroke="#fff" stroke-linecap="round" stroke-linejoin="round" stroke-width="3.5" d="M37.28 80.397a4.828 4.828 0 01.797-2.72 4.901 4.901 0 012.193-1.818 4.96 4.96 0 012.844-.303c.958.18 1.84.64 2.533 1.317a4.85 4.85 0 011.363 2.49 4.818 4.818 0 01-.27 2.818 4.88 4.88 0 01-1.809 2.194 4.95 4.95 0 01-2.736.824 4.925 4.925 0 01-1.872-.355 4.884 4.884 0 01-1.591-1.038 4.828 4.828 0 01-1.069-1.561 4.79 4.79 0 01-.383-1.848v0z" clip-rule="evenodd"/><path stroke="#fff" stroke-linecap="round" stroke-linejoin="round" stroke-width="3.5" d="M59.398 76.464s-3.134-1.618-5.23-.62c-2.096 1-3.139 2.344-3.149 4.616-.01 2.27 1.02 3.433 3.1 4.465 2.082 1.033 5.216-.35 5.216-.35m3.405 1.186l.064-16.154m.373 10.915l8.437-5.614-5.798 4.116 4.978 6.175m4.041-4.927l9.14-.125s-.63-5.114-4.366-5.052c-1.892.03-5.22 1.057-5.42 4.802-.188 3.492 2 5.09 4.41 5.364 3.276.375 4.474-1.498 4.474-1.498m4.492 1.249l.059-10.344.567 3.304s1.17-2.233 2.911-2.814c1.742-.581 4.08.509 4.08.509"/><path fill="#fff" fill-rule="evenodd" d="M34.447 43.033s-.97 10.463 5.545 17.287c6.423 6.723 21.152 3.986 27.348 1.31 10.838-4.676 14.113-16.652 14.113-16.652s2.843.48 5.026-.51c2.183-.989 3.716-3.52 3.881-4.292.165-.918-2.023-2.137-4.06-2.305-1.403-.12-2.635.816-3.397.432-.538-.274-.238-2.026-.922-3.457-.94-1.984-2.91-3.708-3.803-3.155-.713.437-1.98 2.079-2.251 4.475-.32 2.833.422 6.444.422 6.444l-41.902.423z" clip-rule="evenodd"/><path fill="#fff" fill-rule="evenodd" d="M38.764 36.757h5.963v5.373h-5.963v-5.373zm6.923-.154h5.963v5.373h-5.962v-5.373zm.17-6.113h5.963v5.373h-5.963V30.49zm6.647-.22h5.962v5.378h-5.962v-5.379zm.213 6.247h5.963v5.373h-5.963v-5.373zm6.768.11h5.963v5.388h-5.963v-5.388zm-.034-6.175h5.963v5.378H59.45v-5.378zm-.034-6.339h5.968v5.373h-5.968v-5.373zm6.86 12.404h5.963v5.373h-5.963v-5.373z" clip-rule="evenodd"/></svg>