<svg width="300" height="300" viewBox="0 0 300 300" fill="none" xmlns="http://www.w3.org/2000/svg">
<path fill-rule="evenodd" clip-rule="evenodd" d="M60.9385 38.4972H238.156C241.433 38.4994 244.575 39.8026 246.891 42.1204C249.207 44.4382 250.508 47.5808 250.508 50.8575V228.846C250.509 230.47 250.191 232.077 249.571 233.577C248.951 235.077 248.041 236.44 246.894 237.589C245.747 238.737 244.385 239.649 242.886 240.271C241.387 240.893 239.78 241.214 238.156 241.215H60.9385C59.3153 241.214 57.7083 240.893 56.2091 240.271C54.7099 239.649 53.3479 238.737 52.2009 237.589C51.0539 236.44 50.1444 235.077 49.5242 233.577C48.9041 232.077 48.5854 230.47 48.5866 228.846V50.8575C48.5865 47.5808 49.8877 44.4382 52.2039 42.1204C54.5201 39.8026 57.6618 38.4994 60.9385 38.4972V38.4972Z" fill="#F7A501"/>
<path d="M211.048 130.215C206.295 117.658 197.832 106.846 186.785 99.2157C175.738 91.5853 162.63 87.4984 149.204 87.4984C135.778 87.4984 122.67 91.5853 111.623 99.2157C100.576 106.846 92.1133 117.658 87.3604 130.215C77.6846 132.806 69.2786 138.822 63.7042 147.144C58.1298 155.467 55.7661 165.53 57.0524 175.463C58.3386 185.397 63.1874 194.526 70.6976 201.154C78.2078 207.782 87.8689 211.459 97.8855 211.5H200.439C210.462 211.479 220.137 207.817 227.662 201.195C235.188 194.574 240.052 185.444 241.349 175.505C242.646 165.565 240.289 155.493 234.715 147.162C229.141 138.831 220.73 132.808 211.048 130.215V130.215ZM218.589 188.304C216.221 190.699 213.401 192.599 210.292 193.894C207.183 195.188 203.848 195.852 200.48 195.846H97.8855C93.0856 195.841 88.3837 194.488 84.3146 191.942C80.2456 189.396 76.9727 185.759 74.8685 181.445C72.7643 177.131 71.9132 172.313 72.412 167.539C72.9107 162.765 74.7394 158.227 77.6899 154.441C81.15 150.036 85.9413 146.868 91.3492 145.408L99.1844 143.363L102.059 135.821C103.841 131.105 106.328 126.687 109.433 122.715C112.523 118.749 116.183 115.261 120.293 112.366C128.764 106.427 138.859 103.241 149.204 103.241C159.549 103.241 169.644 106.427 178.115 112.366C182.215 115.248 185.866 118.722 188.95 122.673C192.052 126.647 194.538 131.065 196.324 135.779L199.173 143.321L206.992 145.383C211.343 146.548 215.311 148.838 218.498 152.023C221.685 155.207 223.977 159.174 225.145 163.525C226.314 167.876 226.317 172.458 225.154 176.81C223.992 181.162 221.705 185.132 218.522 188.321L218.589 188.304Z" fill="white"/>
<path fill-rule="evenodd" clip-rule="evenodd" d="M204.092 146.212C206.598 150.382 209.311 154.423 212.221 158.321C212.866 159.159 219.955 155.405 221.388 157.844C222.821 160.282 220.383 163.265 221.028 164.606C224.07 170.908 222.461 185.229 222.461 185.229L228.075 186.36L234.444 180.134L228.913 174.503L232.022 168.318L239.288 167.48L239.179 157.492L233.397 155.866L231.385 158.33L228.813 153.872L234.335 147.369L227.908 141.008L222.427 139.466L221.933 147.654L214.818 145.659L213.645 137.38L207.922 136.014L203.447 138.704L204.092 146.212Z" fill="white" stroke="#35416B" stroke-linecap="round" stroke-linejoin="round"/>
<path fill-rule="evenodd" clip-rule="evenodd" d="M198.386 144.813C198.386 144.813 203.799 146.355 209.472 154.173C210.117 155.011 214.224 154.031 215.648 156.452C217.073 158.874 214.651 161.883 215.296 163.215C220.131 173.271 222.335 185.003 222.335 185.003L228.712 178.777L223.173 173.145L226.291 166.961L233.564 166.073L233.455 156.084L225.654 156.922L223.089 152.464L228.612 145.953L222.193 139.559L216.184 146.263L209.12 144.209L207.939 135.939L197.749 137.237L198.386 144.813Z" fill="#35416B" stroke="#35416B" stroke-linecap="round" stroke-linejoin="round"/>
<path fill-rule="evenodd" clip-rule="evenodd" d="M91.0056 131.07L84.8715 131.179L82.4414 133.358L84.9553 136.709L79.9274 138.126L76.0559 135.008L70.9609 140.036L74.8492 144.017L73.7095 147.629H69.1173L67.1481 149.866L69.1508 153.788L74.4805 153.93L75.6788 156.444L71.338 161.137L74.7654 168.31L79.8855 162.184L83.2375 163.659L83.3883 168.989L87.1676 171.034L89.5391 168.955L89.8659 163.844L92.581 162.168L95.933 165.729L100.852 161.112L97.5 157.198L98.8157 154.425L102.092 156.008L104.472 154.24V148.006L99.1509 147.352L97.8436 142.835L101.774 139.249L97.014 134.992L93.2682 138.545L91.4581 137.648L91.0056 131.07ZM86.6648 143.941C87.4739 143.909 88.2801 144.057 89.0252 144.373C89.7703 144.69 90.4358 145.169 90.9737 145.774C91.5116 146.379 91.9085 147.096 92.1357 147.873C92.3629 148.651 92.4149 149.468 92.2877 150.268C92.1028 151.635 91.4085 152.882 90.3438 153.758C89.2791 154.635 87.9226 155.078 86.5457 154.997C85.1688 154.917 83.8731 154.319 82.9179 153.324C81.9626 152.329 81.4183 151.01 81.3939 149.631V149.405C81.3794 148.702 81.5037 148.003 81.7595 147.347C82.0153 146.692 82.3977 146.094 82.8849 145.586C83.372 145.079 83.9544 144.673 84.5986 144.39C85.2429 144.108 85.9365 143.955 86.6397 143.941H86.6648Z" fill="white" stroke="white" stroke-linecap="round" stroke-linejoin="round"/>
<path fill-rule="evenodd" clip-rule="evenodd" d="M88.4916 133.316L82.3659 133.425L82.4497 138.989L77.4218 140.413L73.5502 137.288L68.4553 142.316L72.3436 146.304L71.2039 149.908H66.6117V156.059L71.9329 156.201L73.1312 158.715L68.7737 163.433L73.9189 168.461L77.3212 164.48L80.6731 165.955L80.8156 171.277H86.958L87.2849 166.165L90.0083 164.489L93.3603 168.05L98.2961 163.433L94.9441 159.528L96.2597 156.737L101.908 156.561V150.327L96.5866 149.673L95.296 145.148L99.2346 141.545L94.4999 137.254L90.729 140.79L88.9273 139.952L88.4916 133.316ZM84.1508 146.179C85.5092 146.127 86.838 146.583 87.8786 147.458C88.9192 148.333 89.597 149.563 89.78 150.91C89.963 152.257 89.6382 153.624 88.8687 154.745C88.0992 155.865 86.9401 156.659 85.6173 156.972C84.8323 157.153 84.0173 157.158 83.2301 156.987C82.4429 156.817 81.703 156.475 81.0629 155.986C80.4228 155.498 79.8983 154.874 79.5268 154.159C79.1553 153.444 78.9458 152.657 78.9134 151.852V151.651C78.8886 150.231 79.4262 148.859 80.4088 147.834C81.3915 146.809 82.7396 146.214 84.1592 146.179H84.1508Z" fill="#35416B" stroke="white" stroke-linecap="round" stroke-linejoin="round"/>
<path fill-rule="evenodd" clip-rule="evenodd" d="M138.796 197.003L139.634 181.735L123.017 157.123L122.749 94.391L108.126 79.3492L107.598 163.844L138.796 197.003Z" fill="#F7A501" stroke="white" stroke-linecap="round" stroke-linejoin="round"/>
<path fill-rule="evenodd" clip-rule="evenodd" d="M186.067 93.9302H122.807V157.073H186.084L186.067 93.9302Z" fill="white" stroke="white" stroke-linecap="round" stroke-linejoin="round"/>
<path fill-rule="evenodd" clip-rule="evenodd" d="M186.746 157.349L202.584 181.475L139.617 182.17L122.48 157.265L186.746 157.349Z" fill="white" stroke="#F7A501" stroke-linecap="round" stroke-linejoin="round"/>
<path fill-rule="evenodd" clip-rule="evenodd" d="M202.676 181.416L202.408 196.844L139.19 196.978L139.324 181.827L202.676 181.416Z" fill="#F7A501" stroke="white" stroke-linecap="round" stroke-linejoin="round"/>
<path fill-rule="evenodd" clip-rule="evenodd" d="M186.746 94.3408L170.573 78.662L108.168 79.1899L122.589 94.2737L186.746 94.3408Z" fill="white"/>
<path fill-rule="evenodd" clip-rule="evenodd" d="M130.408 98.4134H178.466C178.856 98.4074 179.244 98.4786 179.606 98.6229C179.97 98.768 180.3 98.9846 180.578 99.2598C180.859 99.5352 181.084 99.8624 181.24 100.223C181.389 100.585 181.469 100.972 181.475 101.363V149.673C181.469 150.064 181.389 150.451 181.24 150.813C181.084 151.174 180.859 151.501 180.578 151.777C180.302 152.054 179.971 152.271 179.606 152.413C179.243 152.556 178.857 152.63 178.466 152.631H130.408C129.622 152.64 128.864 152.338 128.3 151.79C127.737 151.242 127.413 150.493 127.399 149.707V101.355C127.405 100.963 127.485 100.577 127.634 100.215C127.787 99.8544 128.009 99.5271 128.288 99.2514C128.854 98.7052 129.613 98.4042 130.399 98.4134H130.408Z" fill="#35416B" stroke="#F7A501" stroke-linecap="round" stroke-linejoin="round"/>
<path fill-rule="evenodd" clip-rule="evenodd" d="M144.972 100.76H176.439C176.834 100.759 177.226 100.836 177.591 100.987C177.957 101.137 178.289 101.359 178.568 101.638C178.848 101.918 179.069 102.25 179.22 102.616C179.371 102.981 179.448 103.373 179.447 103.768V147.561C179.447 148.36 179.13 149.126 178.566 149.692C178.002 150.257 177.237 150.576 176.439 150.578H144.972C144.173 150.576 143.408 150.257 142.844 149.692C142.28 149.126 141.964 148.36 141.964 147.561V103.735C141.963 103.339 142.04 102.948 142.19 102.582C142.341 102.217 142.563 101.885 142.842 101.605C143.122 101.325 143.454 101.104 143.819 100.953C144.185 100.802 144.577 100.725 144.972 100.726V100.76Z" fill="white" stroke="white" stroke-linecap="round" stroke-linejoin="round"/>
<path fill-rule="evenodd" clip-rule="evenodd" d="M145.433 107.288L168.059 107.237L145.433 107.288Z" fill="white"/>
<path d="M145.433 107.288L168.059 107.237" stroke="#F7A501" stroke-linecap="round" stroke-linejoin="round"/>
<path fill-rule="evenodd" clip-rule="evenodd" d="M145.567 110.003L168.193 109.953L145.567 110.003Z" fill="white"/>
<path d="M145.567 110.003L168.193 109.953" stroke="#F7A501" stroke-linecap="round" stroke-linejoin="round"/>
<path fill-rule="evenodd" clip-rule="evenodd" d="M145.433 113.011L168.059 112.944L145.433 113.011Z" fill="white"/>
<path d="M145.433 113.011L168.059 112.944" stroke="#F7A501" stroke-linecap="round" stroke-linejoin="round"/>
<path fill-rule="evenodd" clip-rule="evenodd" d="M145.433 116.087L168.059 116.028L145.433 116.087Z" fill="white"/>
<path d="M145.433 116.087L168.059 116.028" stroke="#F7A501" stroke-linecap="round" stroke-linejoin="round"/>
<path fill-rule="evenodd" clip-rule="evenodd" d="M148.676 118.668H165.436C165.831 118.666 166.223 118.744 166.588 118.894C166.954 119.045 167.286 119.267 167.565 119.546C167.845 119.826 168.067 120.158 168.217 120.523C168.368 120.889 168.445 121.281 168.444 121.676V140.682C168.444 141.48 168.127 142.246 167.563 142.812C167 143.377 166.234 143.696 165.436 143.698H148.676C147.877 143.696 147.112 143.377 146.548 142.812C145.984 142.246 145.668 141.48 145.668 140.682V121.651C145.674 120.857 145.994 120.099 146.558 119.54C147.121 118.981 147.882 118.668 148.676 118.668V118.668Z" fill="white" stroke="#F7A501" stroke-linecap="round" stroke-linejoin="round"/>
<path fill-rule="evenodd" clip-rule="evenodd" d="M131.321 111.804H138.025C138.225 111.806 138.417 111.884 138.561 112.022C138.632 112.092 138.688 112.175 138.727 112.266C138.765 112.357 138.785 112.455 138.785 112.554C138.785 112.654 138.765 112.752 138.727 112.843C138.688 112.934 138.632 113.017 138.561 113.087C138.493 113.157 138.411 113.213 138.32 113.25C138.229 113.288 138.132 113.306 138.033 113.304H131.33C131.232 113.305 131.134 113.285 131.044 113.248C130.953 113.211 130.871 113.156 130.802 113.087C130.665 112.944 130.588 112.756 130.584 112.559C130.588 112.361 130.668 112.173 130.806 112.033C130.945 111.893 131.132 111.811 131.33 111.804H131.321Z" fill="white" stroke="#F7A501" stroke-linecap="round" stroke-linejoin="round"/>
<path fill-rule="evenodd" clip-rule="evenodd" d="M131.497 115.324H138.201C138.302 115.322 138.402 115.342 138.494 115.383C138.586 115.418 138.669 115.472 138.737 115.542C138.804 115.613 138.858 115.695 138.897 115.785C138.937 115.877 138.957 115.977 138.955 116.078C138.955 116.276 138.877 116.466 138.737 116.606C138.597 116.745 138.407 116.824 138.209 116.824H131.506C131.308 116.824 131.118 116.745 130.978 116.606C130.838 116.466 130.76 116.276 130.76 116.078C130.755 115.981 130.772 115.883 130.81 115.793C130.842 115.7 130.893 115.614 130.961 115.542C131.024 115.467 131.104 115.409 131.195 115.374C131.284 115.332 131.382 115.309 131.48 115.307L131.497 115.324Z" fill="white" stroke="#F7A501" stroke-linecap="round" stroke-linejoin="round"/>
<path fill-rule="evenodd" clip-rule="evenodd" d="M131.497 119.237H138.201C138.4 119.242 138.589 119.323 138.73 119.463C138.87 119.604 138.951 119.793 138.955 119.992C138.953 120.191 138.871 120.38 138.729 120.52C138.661 120.59 138.578 120.646 138.488 120.683C138.397 120.72 138.299 120.739 138.201 120.737H131.497C131.299 120.737 131.11 120.659 130.97 120.519C130.83 120.379 130.751 120.189 130.751 119.992C130.75 119.894 130.77 119.796 130.81 119.707C130.842 119.614 130.897 119.53 130.969 119.464C131.038 119.391 131.12 119.334 131.212 119.296C131.303 119.259 131.399 119.239 131.497 119.237V119.237Z" fill="white" stroke="#F7A501" stroke-linecap="round" stroke-linejoin="round"/>
<path fill-rule="evenodd" clip-rule="evenodd" d="M131.388 122.933H138.092C138.287 122.936 138.473 123.014 138.612 123.151C138.755 123.293 138.837 123.486 138.838 123.687C138.834 123.884 138.756 124.073 138.62 124.215C138.551 124.284 138.468 124.339 138.378 124.377C138.287 124.414 138.19 124.433 138.092 124.433H131.388C131.29 124.433 131.193 124.414 131.103 124.377C131.012 124.339 130.93 124.284 130.86 124.215C130.724 124.073 130.647 123.884 130.642 123.687C130.642 123.588 130.661 123.489 130.698 123.397C130.735 123.305 130.791 123.221 130.86 123.151C131.002 123.013 131.191 122.935 131.388 122.933V122.933Z" fill="white" stroke="#F7A501" stroke-linecap="round" stroke-linejoin="round"/>
<path fill-rule="evenodd" clip-rule="evenodd" d="M131.388 126.972H138.092C138.19 126.972 138.287 126.991 138.378 127.028C138.468 127.066 138.551 127.121 138.62 127.19C138.756 127.332 138.834 127.521 138.838 127.718C138.838 127.916 138.76 128.107 138.62 128.248C138.48 128.389 138.291 128.47 138.092 128.472H131.388C131.19 128.47 131 128.389 130.86 128.248C130.721 128.107 130.642 127.916 130.642 127.718C130.642 127.62 130.662 127.523 130.701 127.433C130.737 127.342 130.791 127.259 130.86 127.19C130.93 127.121 131.012 127.067 131.103 127.031C131.193 126.99 131.29 126.97 131.388 126.972V126.972Z" fill="white" stroke="#F7A501" stroke-linecap="round" stroke-linejoin="round"/>
</svg>
