<svg fill="none" viewBox="0 0 250 291"><path fill="#F96132" fill-rule="evenodd" d="M19.703 11.257h210.595a14.72 14.72 0 0110.39 4.33 14.703 14.703 0 014.288 10.402v212.042a14.783 14.783 0 01-4.285 10.412 14.732 14.732 0 01-10.381 4.32H19.702a14.713 14.713 0 01-14.678-14.732V25.989a14.705 14.705 0 014.289-10.403 14.718 14.718 0 0110.39-4.329zm66.892-4.51l5.667 3.725-5.667-3.725z" clip-rule="evenodd"/><path stroke="#F7A501" stroke-linecap="round" stroke-linejoin="round" stroke-width="2.5" d="M86.595 6.747l5.667 3.725m-14.06 222.514l-.476-214.387 8.988-11.9 8.465 12.067.38 216.064-17.357-1.844z"/><path stroke="#F7A501" stroke-linecap="round" stroke-linejoin="round" stroke-width="2.5" d="M94.762 216.243l-16.56-11.46 16.43-11.757-16.227-12.209 16.774-11.733-16.976-12.031 16.666-11.971-16.666-12.257 16.785-11.638-16.285-12.625L94.81 96.805 77.929 85.083l16.666-11.519-16.392-.57L94.464 84.75 78.203 96.77l16.5 11.793-16.667 11.507 16.786 12.566-16.786 11.531L94.13 157.41l-15.976 11.412 16.667 12.495-15.739 11.781 15.965 11.756-16.226 11.972 15.94-.583zM77.798 42.673l17.035-.25L77.941 31.13l16.761-11.983-17.047-.702 17.06 12.423-16.917 11.805z"/><path fill="#F96132" fill-rule="evenodd" stroke="#F7A501" stroke-linecap="round" stroke-linejoin="round" stroke-width="2.5" d="M66.762 41.173h38.095l6.179 4.57-6.226 23.383H66.714l.048-27.953z" clip-rule="evenodd"/><path stroke="#fff" stroke-linecap="round" stroke-linejoin="round" stroke-width="2.5" d="M83.988 236.913l-.476-214.399 8.988-11.9 8.416 12.103.381 216.052-17.31-1.856z"/><path stroke="#fff" stroke-linecap="round" stroke-linejoin="round" stroke-width="2.5" d="M100.524 220.122l-16.536-11.531 16.453-11.686-16.25-12.221 16.666-11.709-16.869-12.054 16.667-12.019-16.667-12.221 16.786-11.626-16.321-12.638 16.107-11.757-16.917-11.757 16.667-11.471-16.393-.571 16.262 11.697-16.286 12.066 16.488 11.841-16.571 11.531 16.785 12.542-16.785 11.531 16.154 13.256-15.976 11.424 16.667 12.471-15.726 11.792 15.976 11.757-16.238 11.972 15.857-.619zM83.584 46.516l17.035-.238-16.881-11.28 16.809-11.9-17.035-.726 17.035 12.4-16.964 11.744z"/><path fill="#F7A501" fill-rule="evenodd" stroke="#F7A501" stroke-linecap="round" stroke-linejoin="round" stroke-width="2.5" d="M66.595 41.447l5.953 5.093-.262 27.643-5.857-4.986.166-27.75z" clip-rule="evenodd"/><path fill="#F96132" fill-rule="evenodd" stroke="#fff" stroke-linecap="round" stroke-linejoin="round" stroke-width="2.5" d="M72.774 46.052h38.095V73.97H72.774V46.052z" clip-rule="evenodd"/><path stroke="#35416B" stroke-linecap="round" stroke-linejoin="round" stroke-width="2.5" d="M189.167 90.724l14.595 8.33m-14.595-8.33l21.428 12.209"/><path stroke="#F7A501" stroke-linecap="round" stroke-linejoin="round" stroke-width="2.5" d="M66.94 47.92l-24.178-.214-.357 12.388h24.607L66.94 47.92z"/><path fill="#F96132" fill-rule="evenodd" stroke="#F7A501" stroke-linecap="round" stroke-linejoin="round" stroke-width="2.5" d="M21.107 44.303h23.488l4.084 3.486-4.084 17.85-19.833 4.51-3.678-4.51.023-21.336z" clip-rule="evenodd"/><path stroke="#F7A501" stroke-linecap="round" stroke-linejoin="round" stroke-width="2.5" d="M112.762 53.751l7.262 6.902L133 48.337l10.214 11.9 12.702-11.793 12.429 11.031 11.071-10.174 12.286 10.531 6.631-11.376.834 11.376-10.084-11.376-10.488 11.638-10.345-11.198-13.405 11.364-10.786-11.9-12.702 11.627-12.845-11.614-5.75 5.378zm-46.536-5.105L54.18 59.356l-10.715-10.96-.774 11.353 12.06-11.293 11.44 10.71.036-10.52z"/><path stroke="#fff" stroke-linecap="round" stroke-linejoin="round" stroke-width="2.5" d="M111.202 54.096l92.214.44 10.905 12.21-102.976.583-.143-13.233z"/><path stroke="#F7A501" stroke-linecap="round" stroke-linejoin="round" stroke-width="2.5" d="M112.274 47.516l85.595.392 10.905 12.21-96.429.238-.071-12.84z"/><path stroke="#fff" stroke-linecap="round" stroke-linejoin="round" stroke-width="2.5" d="M111.476 53.81l14.083 13.436 12.977-12.328 10.202 11.9 12.69-11.758 12.429 11.055 10.976-10.246 12.274 10.532 6.655-11.364.809 11.364L194.5 55.037l-10.476 11.625-10.298-11.185-13.393 11.364-10.786-11.995-12.702 11.662L124 55l-12.274 11.661-.25-12.851zm-39.024.68l-24.178-.18-.37 12.376h24.62l-.072-12.197z"/><path stroke="#fff" stroke-linecap="round" stroke-linejoin="round" stroke-width="2.5" d="M71.726 55.275l-12.06 10.71-10.713-10.972-.774 11.364L60.19 55.048l11.547 10.71-.012-10.483z"/><path fill="#fff" fill-rule="evenodd" stroke="#fff" stroke-linecap="round" stroke-linejoin="round" stroke-width="2.5" d="M24.893 48.61h23.488v21.337H24.893V48.61z" clip-rule="evenodd"/><path fill="#F7A501" fill-rule="evenodd" stroke="#F7A501" stroke-linecap="round" stroke-linejoin="round" stroke-width="2.5" d="M24.31 48.515l-3.131-3.879-.215 20.825 3.12 4.165.226-21.11z" clip-rule="evenodd"/><path stroke="#F7A501" stroke-linejoin="round" stroke-width="2.5" d="M185.595 67.615v13.708"/><path stroke="#fff" stroke-linecap="round" stroke-linejoin="round" stroke-width="2.5" d="M187.476 67.103v13.732"/><path stroke="#fff" stroke-linejoin="round" stroke-width="2.5" d="M189.369 83.132a2.2 2.2 0 00-1.476-1.987 2.24 2.24 0 00-1.31-.096c-.43.1-.82.329-1.119.655a2.382 2.382 0 00-.595 1.19c-.075.438-.021.889.155 1.297.17.41.461.758.833 1a2.24 2.24 0 001.191.38c.307-.013.609-.082.892-.202a2.25 2.25 0 00.738-.524 2.13 2.13 0 00.489-.761c.106-.285.155-.589.142-.893l.06-.06z"/><path stroke="#fff" stroke-linecap="round" stroke-linejoin="round" stroke-width="2.5" d="M187.131 85.619s-1.75 4.367-1.309 6.212c.44 1.844 2.773 1.332 3.631.32.857-1.01-.274-3.486-.274-3.486"/><path fill="#F7A501" fill-rule="evenodd" stroke="#F7A501" stroke-linecap="round" stroke-linejoin="round" stroke-width="2.5" d="M168.964 100.363h33.679l7.726 4.153-7.726 13.53-26.274 4.141-7.429-4.141.024-17.683z" clip-rule="evenodd"/><path fill="#F7A501" fill-rule="evenodd" stroke="#F7A501" stroke-linecap="round" stroke-linejoin="round" stroke-width="2.5" d="M164.476 97.947h33.667l12.035 5.688-12.059 11.971-23.036 6.914-10.857-3.701.25-20.872zM82.203 212.244l40.738.31.178-17.457 40.679.785.178-64.818 34.762-.452 11.322 5.95-11.465 64.258h29.762l11.441 5.605-11.476 19.04c-.834 13.78-12.298 14.053-12.572 14.03L8.607 236.401c-1.404 0-1-7.783-1-7.783l74.655 1.452-.06-17.826z" clip-rule="evenodd"/><path fill="#F96132" fill-rule="evenodd" stroke="#F7A501" stroke-linecap="round" stroke-linejoin="round" stroke-width="2.5" d="M176.643 104.682h33.691v17.671h-33.691v-17.671z" clip-rule="evenodd"/><path fill="#F96132" fill-rule="evenodd" stroke="#F7A501" stroke-linecap="round" stroke-linejoin="round" stroke-width="2.5" d="M175.131 104.349h33.69v17.636h-33.69v-17.636z" clip-rule="evenodd"/><path fill="#F96132" fill-rule="evenodd" stroke="#F7A501" stroke-linecap="round" stroke-linejoin="round" stroke-width="2.5" d="M175.131 103.968h35.155v18.421h-35.155v-18.421z" clip-rule="evenodd"/><path fill="#fff" fill-rule="evenodd" stroke="#fff" stroke-linecap="round" stroke-linejoin="round" stroke-width="2.5" d="M164.453 97.876l11.631 6.092 34.357-.202-12.31-5.748-33.678-.142zm-41.286 97.137l12.464 6.307 39.714.893-12.631-6.593-39.547-.607zM7.345 228.583l.155 6.699 86.25 1-12.464-6.878-73.94-.821zm74.667-16.148l12.845 6.211 39.417.286-12.084-6.759-40.178.262zm81.976-81.228l11.774 5.95 34.357-.369-11.143-6.093-34.988.512z" clip-rule="evenodd"/><path stroke="#35416B" stroke-linecap="round" stroke-linejoin="round" stroke-width="2.5" d="M187.857 91.295l-21.345 8.496v20.23"/><path stroke="#35416B" stroke-linecap="round" stroke-linejoin="round" stroke-width="2.5" d="M187.857 91.295l-13.095 13.185-.833 18.694"/><path fill="#F96132" d="M92.881 236.615H7.048l2.988 11.9h229.559l4-4.915.989-27.012h-3.572v-11.472h-28.107v-67.198h-38.167v64.259H134.56v16.957H92.893l-.012 17.481z"/></svg>