<svg xmlns="http://www.w3.org/2000/svg" width="250" height="291" fill="none" viewBox="0 0 250 291"><path fill="#F96132" fill-rule="evenodd" d="M19.7025 11.2572H230.298C234.198 11.2667 237.935 12.8237 240.688 15.5861C243.44 18.3485 244.983 22.0903 244.976 25.9891V238.031C244.977 241.931 243.437 245.673 240.691 248.443C237.938 251.199 234.205 252.752 230.31 252.763H19.7025C15.8021 252.754 12.065 251.197 9.31261 248.434C6.56018 245.672 5.01762 241.93 5.02395 238.031V25.9891C5.01762 22.0903 6.56018 18.3485 9.31261 15.5861C12.065 12.8237 15.8021 11.2667 19.7025 11.2572V11.2572Z" clip-rule="evenodd"/><path fill="#F96132" fill-rule="evenodd" d="M86.5952 6.74719L92.2619 10.4718L86.5952 6.74719Z" clip-rule="evenodd"/><path stroke="#F7A501" stroke-linecap="round" stroke-linejoin="round" stroke-width="2.5" d="M86.5952 6.74719L92.2619 10.4718"/><path stroke="#F7A501" stroke-linecap="round" stroke-linejoin="round" stroke-width="2.5" d="M78.2023 232.986L77.7261 18.5994L86.7141 6.69958L95.1785 18.7659L95.5594 234.83L78.2023 232.986Z"/><path stroke="#F7A501" stroke-linecap="round" stroke-linejoin="round" stroke-width="2.5" d="M94.7621 216.243L78.2026 204.783L94.6311 193.026L78.4049 180.817L95.1788 169.084L78.2026 157.053L94.8692 145.082L78.2026 132.825L94.9883 121.187L78.7025 108.562L94.8097 96.8046L77.9287 85.0833L94.5954 73.5644L78.2026 72.9932L94.4644 84.7501L78.2026 96.7689L94.7026 108.562L78.0359 120.069L94.8216 132.635L78.0359 144.166L94.1311 157.41L78.1549 168.822L94.8216 181.317L79.0835 193.098L95.0478 204.854L78.8216 216.826L94.7621 216.243Z"/><path stroke="#F7A501" stroke-linecap="round" stroke-linejoin="round" stroke-width="2.5" d="M77.7976 42.6725L94.8333 42.4226L77.9405 31.1297L94.7024 19.1467L77.6548 18.4446L94.7143 30.8679L77.7976 42.6725Z"/><path fill="#F96132" fill-rule="evenodd" stroke="#F7A501" stroke-linecap="round" stroke-linejoin="round" stroke-width="2.5" d="M66.762 41.1732H104.857L111.036 45.7427L104.81 69.1258H66.7144L66.762 41.1732Z" clip-rule="evenodd"/><path stroke="#fff" stroke-linecap="round" stroke-linejoin="round" stroke-width="2.5" d="M83.9879 236.913L83.5117 22.5144L92.4999 10.6146L100.916 22.7167L101.297 238.769L83.9879 236.913Z"/><path stroke="#fff" stroke-linecap="round" stroke-linejoin="round" stroke-width="2.5" d="M100.524 220.122L83.9883 208.591L100.441 196.905L84.1906 184.684L100.857 172.975L83.9883 160.921L100.655 148.902L83.9883 136.681L100.774 125.055L84.4526 112.417L100.56 100.66L83.6431 88.9032L100.31 77.4318L83.9169 76.8606L100.179 88.558L83.893 100.624L100.381 112.465L83.8097 123.996L100.595 136.538L83.8097 148.069L99.9644 161.325L83.9883 172.749L100.655 185.22L84.9287 197.012L100.905 208.769L84.6669 220.741L100.524 220.122Z"/><path stroke="#fff" stroke-linecap="round" stroke-linejoin="round" stroke-width="2.5" d="M83.5831 46.5162L100.619 46.2782L83.7379 34.9973L100.547 23.0975L83.5117 22.3716L100.547 34.7712L83.5831 46.5162Z"/><path fill="#F7A501" fill-rule="evenodd" stroke="#F7A501" stroke-linecap="round" stroke-linejoin="round" stroke-width="2.5" d="M66.5954 41.4469L72.5478 46.54L72.2858 74.1832L66.4287 69.1972L66.5954 41.4469Z" clip-rule="evenodd"/><path fill="#F96132" fill-rule="evenodd" stroke="#fff" stroke-linecap="round" stroke-linejoin="round" stroke-width="2.5" d="M72.7739 46.0521H110.869V73.969H72.7739V46.0521Z" clip-rule="evenodd"/><path stroke="#35416B" stroke-linecap="round" stroke-linejoin="round" stroke-width="2.5" d="M189.167 90.7239L203.762 99.0537"/><path stroke="#35416B" stroke-linecap="round" stroke-linejoin="round" stroke-width="2.5" d="M189.167 90.7239L210.595 102.933"/><path stroke="#F7A501" stroke-linecap="round" stroke-linejoin="round" stroke-width="2.5" d="M66.9405 47.9204L42.7619 47.7062L42.4048 60.0938H67.0119L66.9405 47.9204Z"/><path fill="#F96132" fill-rule="evenodd" stroke="#F7A501" stroke-linecap="round" stroke-linejoin="round" stroke-width="2.5" d="M21.1073 44.3029H44.5954L48.6788 47.7895L44.5954 65.6391L24.7621 70.1491L21.0835 65.6391L21.1073 44.3029Z" clip-rule="evenodd"/><path stroke="#F7A501" stroke-linecap="round" stroke-linejoin="round" stroke-width="2.5" d="M112.762 53.7513L120.024 60.6532L133 48.3369L143.214 60.2367L155.916 48.444L168.345 59.4751L179.416 49.3008L191.702 59.8321L198.333 48.4559L199.167 59.8321L189.083 48.4559L178.595 60.0939L168.25 48.8962L154.845 60.2605L144.059 48.3607L131.357 59.9868L118.512 48.3726L112.762 53.7513Z"/><path stroke="#F7A501" stroke-linecap="round" stroke-linejoin="round" stroke-width="2.5" d="M66.2262 48.6463L54.1786 59.3561L43.4643 48.3964L42.6904 59.7487L54.75 48.4559L66.1904 59.1657L66.2262 48.6463Z"/><path stroke="#fff" stroke-linecap="round" stroke-linejoin="round" stroke-width="2.5" d="M111.202 54.0963L203.416 54.5366L214.321 66.7458L111.345 67.3288L111.202 54.0963Z"/><path stroke="#F7A501" stroke-linecap="round" stroke-linejoin="round" stroke-width="2.5" d="M112.274 47.5157L197.869 47.9085L208.774 60.1176L112.345 60.3556L112.274 47.5157Z"/><path stroke="#fff" stroke-linecap="round" stroke-linejoin="round" stroke-width="2.5" d="M111.476 53.8108L125.559 67.2456L138.536 54.9175L148.738 66.8172L161.428 55.0603L173.857 66.1151L184.833 55.8694L197.107 66.4007L203.762 55.0365L204.571 66.4007L194.5 55.0365L184.024 66.6625L173.726 55.4768L160.333 66.841L149.547 54.8461L136.845 66.5078L124 55.0008L111.726 66.6625L111.476 53.8108Z"/><path stroke="#fff" stroke-linecap="round" stroke-linejoin="round" stroke-width="2.5" d="M72.4524 54.4891L48.2738 54.3105L47.9048 66.6863H72.5238L72.4524 54.4891Z"/><path stroke="#fff" stroke-linecap="round" stroke-linejoin="round" stroke-width="2.5" d="M71.7264 55.2745L59.6668 65.9843L48.9525 55.0127L48.1787 66.377L60.1907 55.0484L71.7383 65.7582L71.7264 55.2745Z"/><path fill="#fff" fill-rule="evenodd" stroke="#fff" stroke-linecap="round" stroke-linejoin="round" stroke-width="2.5" d="M24.8931 48.6106H48.3812V69.9469H24.8931V48.6106Z" clip-rule="evenodd"/><path fill="#F7A501" fill-rule="evenodd" stroke="#F7A501" stroke-linecap="round" stroke-linejoin="round" stroke-width="2.5" d="M24.3096 48.5153L21.1786 44.636L20.9644 65.4606L24.0834 69.6255L24.3096 48.5153Z" clip-rule="evenodd"/><path stroke="#F7A501" stroke-linejoin="round" stroke-width="2.5" d="M185.595 67.6145V81.323"/><path stroke="#fff" stroke-linecap="round" stroke-linejoin="round" stroke-width="2.5" d="M187.476 67.1028V80.8351"/><path stroke="#fff" stroke-linejoin="round" stroke-width="2.5" d="M189.369 83.1318C189.351 82.6908 189.2 82.2656 188.937 81.9112C188.673 81.5568 188.31 81.2897 187.893 81.1446C187.476 80.9827 187.019 80.9495 186.583 81.0494C186.153 81.1496 185.763 81.3778 185.464 81.7039C185.157 82.0359 184.95 82.4487 184.869 82.8938C184.794 83.3321 184.848 83.7826 185.024 84.1909C185.194 84.6004 185.485 84.9488 185.857 85.1905C186.21 85.4279 186.623 85.56 187.048 85.5713C187.355 85.5578 187.657 85.4893 187.94 85.369C188.219 85.2459 188.47 85.0678 188.678 84.8454C188.894 84.6292 189.06 84.3695 189.167 84.0838C189.273 83.7989 189.322 83.4954 189.309 83.1913L189.369 83.1318Z"/><path stroke="#fff" stroke-linecap="round" stroke-linejoin="round" stroke-width="2.5" d="M187.131 85.6188C187.131 85.6188 185.381 89.986 185.822 91.8305C186.262 93.6749 188.595 93.1633 189.453 92.1518C190.31 91.1403 189.179 88.6652 189.179 88.6652"/><path fill="#F7A501" fill-rule="evenodd" stroke="#F7A501" stroke-linecap="round" stroke-linejoin="round" stroke-width="2.5" d="M168.964 100.363H202.643L210.369 104.516L202.643 118.046L176.369 122.187L168.94 118.046L168.964 100.363Z" clip-rule="evenodd"/><path fill="#F7A501" fill-rule="evenodd" stroke="#F7A501" stroke-linecap="round" stroke-linejoin="round" stroke-width="2.5" d="M164.476 97.947H198.143L210.178 103.635L198.119 115.606L175.083 122.52L164.226 118.819L164.476 97.947Z" clip-rule="evenodd"/><path fill="#F7A501" fill-rule="evenodd" stroke="#F7A501" stroke-linecap="round" stroke-linejoin="round" stroke-width="2.5" d="M82.2025 212.244L122.941 212.554L123.119 195.097L163.798 195.882L163.976 131.064L198.738 130.612L210.06 136.562L198.595 200.82H228.357L239.798 206.425L228.322 225.465C227.488 239.245 216.024 239.518 215.75 239.495L8.60729 236.401C7.20253 236.401 7.60733 228.618 7.60733 228.618L82.262 230.07L82.2025 212.244Z" clip-rule="evenodd"/><path fill="#F96132" fill-rule="evenodd" stroke="#F7A501" stroke-linecap="round" stroke-linejoin="round" stroke-width="2.5" d="M176.643 104.682H210.334V122.353H176.643V104.682Z" clip-rule="evenodd"/><path fill="#F96132" fill-rule="evenodd" stroke="#F7A501" stroke-linecap="round" stroke-linejoin="round" stroke-width="2.5" d="M175.131 104.349H208.821V121.985H175.131V104.349Z" clip-rule="evenodd"/><path fill="#F96132" fill-rule="evenodd" stroke="#F7A501" stroke-linecap="round" stroke-linejoin="round" stroke-width="2.5" d="M175.131 103.968H210.286V122.389H175.131V103.968Z" clip-rule="evenodd"/><path fill="#fff" fill-rule="evenodd" stroke="#fff" stroke-linecap="round" stroke-linejoin="round" stroke-width="2.5" d="M164.453 97.8756L176.084 103.968L210.441 103.766L198.131 98.0184L164.453 97.8756Z" clip-rule="evenodd"/><path fill="#fff" fill-rule="evenodd" stroke="#fff" stroke-linecap="round" stroke-linejoin="round" stroke-width="2.5" d="M123.167 195.013L135.631 201.32L175.345 202.213L162.714 195.62L123.167 195.013Z" clip-rule="evenodd"/><path fill="#fff" fill-rule="evenodd" stroke="#fff" stroke-linecap="round" stroke-linejoin="round" stroke-width="2.5" d="M7.34521 228.583L7.49998 235.282L93.75 236.282L81.2857 229.404L7.34521 228.583Z" clip-rule="evenodd"/><path fill="#fff" fill-rule="evenodd" stroke="#fff" stroke-linecap="round" stroke-linejoin="round" stroke-width="2.5" d="M82.0117 212.435L94.8569 218.646L134.274 218.932L122.19 212.173L82.0117 212.435Z" clip-rule="evenodd"/><path fill="#fff" fill-rule="evenodd" stroke="#fff" stroke-linecap="round" stroke-linejoin="round" stroke-width="2.5" d="M163.988 131.207L175.762 137.157L210.119 136.788L198.976 130.695L163.988 131.207Z" clip-rule="evenodd"/><path stroke="#35416B" stroke-linecap="round" stroke-linejoin="round" stroke-width="2.5" d="M187.857 91.295L166.512 99.7915V120.021"/><path stroke="#35416B" stroke-linecap="round" stroke-linejoin="round" stroke-width="2.5" d="M187.857 91.295L174.762 104.48L173.929 123.174"/><path fill="#F96132" d="M92.8812 236.615H7.04785L10.036 248.515H239.595L243.595 243.6L244.584 216.588H241.012V205.116H212.905V137.918H174.738V202.177H134.56V219.134H92.8931L92.8812 236.615Z"/></svg>