<svg fill="none" viewBox="0 0 250 291"><path fill="#1D4AFF" fill-rule="evenodd" d="M20.584 13.91h209.381a14.565 14.565 0 0110.334 4.274 14.505 14.505 0 013.154 4.747 14.464 14.464 0 011.107 5.58V238.77a14.802 14.802 0 01-1.107 5.593 14.576 14.576 0 01-13.488 8.972H20.584a14.595 14.595 0 01-14.596-14.613V28.511c0-3.87 1.538-7.582 4.274-10.32a14.61 14.61 0 0110.322-4.28z" clip-rule="evenodd"/><path fill="#1D4AFF" fill-rule="evenodd" stroke="#fff" stroke-linecap="round" stroke-linejoin="round" d="M61.607 198.191h49.762c5.834 0 15.167 11.233 15.167 17.79l-4.619 42.22c0 6.569-4.762 11.9-10.536 11.9l-47.88 8.663c-5.846 0-12.406-14.018-12.406-20.551v-48.146c-.035-6.557 4.69-11.876 10.512-11.876z" clip-rule="evenodd"/><path fill="#F96132" fill-rule="evenodd" stroke="#1D4AFF" stroke-linecap="round" stroke-linejoin="round" stroke-width="2" d="M67.012 206.616h49.75c5.833 0 10.535 5.331 10.535 11.959v48.301c0 6.593-4.761 11.971-10.535 11.971h-49.75c-5.834 0-10.536-5.343-10.536-11.971v-48.349c.024-6.604 4.702-11.911 10.536-11.911z" clip-rule="evenodd"/><path fill="#1D4AFF" fill-rule="evenodd" stroke="#fff" stroke-linecap="round" stroke-linejoin="round" d="M72.464 212.697h38.988a8.829 8.829 0 018.81 8.829v33.534a8.862 8.862 0 01-.667 3.379 8.854 8.854 0 01-8.143 5.45H72.464a8.927 8.927 0 01-6.238-2.582 8.757 8.757 0 01-1.905-2.868 8.656 8.656 0 01-.678-3.379v-33.617a8.823 8.823 0 018.822-8.782v.036z" clip-rule="evenodd"/><path stroke="#F96132" stroke-linecap="round" stroke-linejoin="round" stroke-width="2" d="M70.084 220.669l24.75.119m-25.06 7.973l16.667.428m-16.846 7.569l33.226.119m-33.345 8.722h8.69m-8.464 7.973l25 .44"/><path fill="#1D4AFF" fill-rule="evenodd" stroke="#fff" stroke-linecap="round" stroke-linejoin="round" d="M149.464 199.916h49.762c5.846 0 15.167 11.233 15.167 17.85l-4.643 42.22c0 6.557-4.762 11.9-10.524 11.9l-47.892 8.687c-5.834 0-12.393-14.018-12.393-20.551V211.78c-.036-6.557 4.666-11.864 10.523-11.864z" clip-rule="evenodd"/><path fill="#F96132" fill-rule="evenodd" stroke="#1D4AFF" stroke-linecap="round" stroke-linejoin="round" stroke-width="2" d="M154.845 208.353h49.75c5.834 0 10.548 5.343 10.548 11.9v48.253c0 6.581-4.762 11.9-10.548 11.9h-49.75c-5.821 0-10.535-5.331-10.535-11.9v-48.253c-.024-6.557 4.714-11.9 10.535-11.9z" clip-rule="evenodd"/><path fill="#1D4AFF" fill-rule="evenodd" stroke="#fff" stroke-linecap="round" stroke-linejoin="round" stroke-width="2" d="M179.583 175.414h-48.809v-47.17h-5.453v47.17H86.202v28.75h5.453v-22.931h82.619v22.931h5.452v-28.75h-.143z" clip-rule="evenodd"/><path fill="#1D4AFF" fill-rule="evenodd" stroke="#fff" stroke-linecap="round" stroke-linejoin="round" d="M160.31 214.362h38.964a8.839 8.839 0 018.155 5.439 8.923 8.923 0 01.678 3.379v33.546a8.84 8.84 0 01-8.821 8.817H160.31a8.858 8.858 0 01-8.822-8.817v-33.534a8.696 8.696 0 01.679-3.379 8.574 8.574 0 011.905-2.856 8.781 8.781 0 012.869-1.916 8.643 8.643 0 013.369-.679v0z" clip-rule="evenodd"/><path stroke="#F96132" stroke-linecap="round" stroke-linejoin="round" stroke-width="2" d="M157.917 222.383l24.75.119m-25.06 7.973l16.667.428m-16.834 7.568l33.215.119m-33.31 8.711h8.679m-8.488 7.949l25 .428"/><path fill="#fff" d="M179.226 69.185a54.56 54.56 0 00-20.041-25.423 54.597 54.597 0 00-61.847 0 54.564 54.564 0 00-20.04 25.423 33.916 33.916 0 00-19.599 13.837 33.892 33.892 0 005.764 44.495 33.926 33.926 0 0022.477 8.39h84.524a33.925 33.925 0 0022.32-8.446 33.898 33.898 0 0011.228-21.05 33.888 33.888 0 00-5.422-23.232 33.916 33.916 0 00-19.388-13.91l.024-.084zm6.191 47.599a21.091 21.091 0 01-14.965 6.153H85.929a20.996 20.996 0 01-18.97-11.727 20.971 20.971 0 012.303-22.176 21.43 21.43 0 0111.262-7.402l6.452-1.69 2.381-6.2a40.898 40.898 0 016.083-10.709 41.746 41.746 0 0132.798-15.91 41.763 41.763 0 0132.798 15.91 41.25 41.25 0 016.083 10.71l2.381 6.188 6.428 1.701a21.032 21.032 0 0112.846 9.77 21.01 21.01 0 012.131 15.993 21.162 21.162 0 01-5.465 9.449l-.023-.06z"/></svg>