<svg width="300" height="300" viewBox="0 0 300 300" fill="none" xmlns="http://www.w3.org/2000/svg">
<path fill-rule="evenodd" clip-rule="evenodd" d="M59.1201 38.3296H234.997C236.609 38.3296 238.204 38.6473 239.693 39.2644C241.181 39.8816 242.534 40.7861 243.672 41.9263C244.811 43.0666 245.714 44.42 246.329 45.9094C246.944 47.3987 247.259 48.9948 247.257 50.6061V227.296C247.255 228.909 246.939 230.505 246.327 231.997C245.393 234.232 243.819 236.14 241.803 237.482C239.787 238.824 237.419 239.54 234.997 239.539H59.1201C57.5084 239.538 55.9126 239.219 54.424 238.601C52.9354 237.983 51.5833 237.078 50.4447 235.937C49.3062 234.796 48.4036 233.442 47.7886 231.952C47.1736 230.462 46.8582 228.866 46.8604 227.254V50.6061C46.8604 47.3531 48.1515 44.233 50.4502 41.9312C52.7488 39.6294 55.8671 38.334 59.1201 38.3296V38.3296Z" fill="#1D4AFF"/>
<path fill-rule="evenodd" clip-rule="evenodd" d="M93.5784 193.198H135.377C140.279 193.198 148.115 202.634 148.115 208.148L144.235 243.628C144.235 249.142 140.254 253.601 135.386 253.601L95.1622 260.883C90.2599 260.883 84.746 249.109 84.746 243.612V203.17C84.7208 197.665 88.6845 193.198 93.5784 193.198Z" fill="#1D4AFF" stroke="white" stroke-linecap="round" stroke-linejoin="round"/>
<path fill-rule="evenodd" clip-rule="evenodd" d="M98.1117 200.271H139.902C144.804 200.271 148.751 204.754 148.751 210.327V250.919C148.751 256.458 144.771 260.975 139.902 260.975H98.1117C93.2178 260.975 89.2625 256.483 89.2625 250.919V210.285C89.2876 204.754 93.2178 200.271 98.1117 200.271Z" fill="#F96132" stroke="#1D4AFF" stroke-width="2" stroke-linecap="round" stroke-linejoin="round"/>
<path fill-rule="evenodd" clip-rule="evenodd" d="M102.695 205.383H135.444C136.416 205.384 137.378 205.574 138.276 205.944C139.63 206.51 140.786 207.463 141.599 208.685C142.411 209.906 142.844 211.34 142.843 212.807V240.989C142.845 241.962 142.654 242.925 142.283 243.824C141.912 244.723 141.367 245.541 140.68 246.229C139.993 246.918 139.177 247.465 138.278 247.838C137.38 248.211 136.417 248.404 135.444 248.405H102.695C100.733 248.396 98.8516 247.617 97.458 246.235C96.7709 245.543 96.227 244.723 95.8575 243.821C95.4809 242.924 95.2871 241.961 95.2876 240.989V212.765C95.2986 210.806 96.0835 208.931 97.4711 207.548C98.8586 206.165 100.736 205.387 102.695 205.383Z" fill="#1D4AFF" stroke="white" stroke-linecap="round" stroke-linejoin="round"/>
<path d="M100.693 212.087L121.483 212.187" stroke="#F96132" stroke-width="2" stroke-linecap="round" stroke-linejoin="round"/>
<path d="M100.441 218.883L114.419 219.243" stroke="#F96132" stroke-width="2" stroke-linecap="round" stroke-linejoin="round"/>
<path d="M100.282 225.603L128.196 225.704" stroke="#F96132" stroke-width="2" stroke-linecap="round" stroke-linejoin="round"/>
<path d="M100.182 233.036H107.489" stroke="#F96132" stroke-width="2" stroke-linecap="round" stroke-linejoin="round"/>
<path d="M100.374 239.74L121.391 240.117" stroke="#F96132" stroke-width="2" stroke-linecap="round" stroke-linejoin="round"/>
<path fill-rule="evenodd" clip-rule="evenodd" d="M167.363 194.64H209.17C214.073 194.64 221.908 204.084 221.908 209.598L218.011 245.078C218.011 250.584 214.031 255.042 209.162 255.042L168.938 262.341C164.036 262.341 158.531 250.567 158.531 245.07V204.612C158.505 199.106 162.461 194.64 167.363 194.64Z" fill="#1D4AFF" stroke="white" stroke-linecap="round" stroke-linejoin="round"/>
<path fill-rule="evenodd" clip-rule="evenodd" d="M171.897 201.712H213.687C218.589 201.712 222.545 206.204 222.545 211.768V252.31C222.545 257.841 218.564 262.366 213.687 262.366H171.897C167.003 262.366 163.047 257.883 163.047 252.31V211.726C163.031 206.221 167.011 201.712 171.897 201.712Z" fill="#F96132" stroke="#1D4AFF" stroke-width="2" stroke-linecap="round" stroke-linejoin="round"/>
<path fill-rule="evenodd" clip-rule="evenodd" d="M192.679 174.05H151.684V134.413H147.109V174.05H114.235V198.218H118.818V178.944H188.212V198.218H192.796V174.05H192.679Z" fill="#1D4AFF" stroke="white" stroke-width="2" stroke-linecap="round" stroke-linejoin="round"/>
<path fill-rule="evenodd" clip-rule="evenodd" d="M176.489 206.782H209.221C210.686 206.783 212.119 207.218 213.337 208.032C214.556 208.847 215.506 210.004 216.067 211.358C216.439 212.259 216.632 213.223 216.637 214.198V242.38C216.635 244.345 215.854 246.228 214.465 247.619C213.077 249.009 211.194 249.792 209.229 249.796H176.489C174.524 249.792 172.641 249.009 171.253 247.619C169.864 246.228 169.083 244.345 169.081 242.38V214.207C169.079 213.232 169.269 212.267 169.642 211.367C170.014 210.467 170.561 209.649 171.251 208.961C171.938 208.271 172.754 207.724 173.653 207.35C174.552 206.976 175.516 206.783 176.489 206.782V206.782Z" fill="#1D4AFF" stroke="white" stroke-linecap="round" stroke-linejoin="round"/>
<path d="M174.478 213.528L195.268 213.628" stroke="#F96132" stroke-width="2" stroke-linecap="round" stroke-linejoin="round"/>
<path d="M174.218 220.324L188.204 220.684" stroke="#F96132" stroke-width="2" stroke-linecap="round" stroke-linejoin="round"/>
<path d="M174.075 227.045L201.98 227.145" stroke="#F96132" stroke-width="2" stroke-linecap="round" stroke-linejoin="round"/>
<path d="M173.992 234.461H181.282" stroke="#F96132" stroke-width="2" stroke-linecap="round" stroke-linejoin="round"/>
<path d="M174.159 241.14L195.167 241.508" stroke="#F96132" stroke-width="2" stroke-linecap="round" stroke-linejoin="round"/>
<path d="M192.36 84.7877C189.038 76.1275 183.168 68.6783 175.524 63.4237C167.881 58.1691 158.823 55.3561 149.547 55.3561C140.272 55.3561 131.214 58.1691 123.571 63.4237C115.927 68.6783 110.057 76.1275 106.735 84.7877C100.017 86.5308 94.1659 90.6662 90.2808 96.4174C86.3958 102.169 84.7436 109.14 85.6344 116.023C86.5253 122.906 89.8979 129.227 95.1191 133.8C100.34 138.373 107.051 140.882 113.992 140.858H184.994C191.914 140.864 198.599 138.351 203.802 133.789C209.005 129.228 212.37 122.928 213.269 116.067C214.168 109.206 212.54 102.253 208.687 96.5044C204.835 90.7562 199.023 86.6064 192.335 84.8296L192.36 84.7877ZM197.556 124.818C195.904 126.465 193.943 127.769 191.786 128.656C189.629 129.544 187.318 129.997 184.986 129.989H113.992C110.49 129.994 107.066 128.963 104.15 127.024C101.234 125.085 98.9582 122.326 97.6089 119.095C96.421 116.21 96.0177 113.063 96.4402 109.972C96.8626 106.881 98.0956 103.957 100.014 101.497C102.414 98.4561 105.732 96.2721 109.475 95.271L114.897 93.8548L116.883 88.6425C118.118 85.3894 119.842 82.3434 121.994 79.6089C127.514 72.5723 135.518 67.9154 144.363 66.5939C153.208 65.2725 162.223 67.3867 169.559 72.5028C172.408 74.4878 174.95 76.8823 177.101 79.6089C179.248 82.3449 180.969 85.3906 182.204 88.6425L184.182 93.8464L189.587 95.271C192.596 96.0593 195.343 97.6285 197.551 99.8199C199.758 102.011 201.348 104.747 202.158 107.75C202.969 110.753 202.972 113.917 202.167 116.922C201.361 119.927 199.776 122.665 197.573 124.86L197.556 124.818Z" fill="white"/>
</svg>
