<svg fill="none" viewBox="0 0 250 291"><path fill="#F7A501" fill-rule="evenodd" d="M19.179 10.9h210.964a14.706 14.706 0 0114.714 14.708v211.816a14.74 14.74 0 01-4.316 10.398 14.751 14.751 0 01-10.398 4.322H19.179a14.72 14.72 0 01-14.714-14.72V25.608a14.703 14.703 0 019.083-13.588 14.72 14.72 0 015.63-1.12z" clip-rule="evenodd"/><path fill="#fff" d="M197.881 120.045a78.702 78.702 0 00-28.886-36.886 78.75 78.75 0 00-89.478 0 78.7 78.7 0 00-28.886 36.886 49.212 49.212 0 00-28.18 20.136 49.175 49.175 0 008.323 64.285 49.226 49.226 0 0032.38 12.3H185.25a49.22 49.22 0 0032.427-12.248 49.175 49.175 0 008.399-64.315 49.212 49.212 0 00-28.195-20.158zm8.976 69.126a30.241 30.241 0 01-21.559 8.972H63.155a30.528 30.528 0 01-27.415-17.142 30.5 30.5 0 013.38-32.147 30.955 30.955 0 0116.297-10.71l9.321-2.439 3.429-8.973a59.481 59.481 0 018.774-15.588A59.966 59.966 0 0197.919 94.09a60 60 0 0152.688-.033 59.97 59.97 0 0129.774 32.628l3.393 8.972 9.31 2.452a30.567 30.567 0 0121.607 21.591 30.548 30.548 0 01-7.881 29.506l.047-.035z"/><path fill="#fff" fill-rule="evenodd" stroke="#35416B" stroke-linecap="round" stroke-linejoin="round" d="M189.595 139.073a172.399 172.399 0 009.679 14.41c.762 1 9.202-3.463 10.917-.559 1.714 2.903-1.191 6.45-.429 8.044 3.571 7.497 1.702 24.538 1.702 24.538l6.679 1.344 7.583-7.401-6.583-6.712 3.702-7.354 8.655-1-.131-11.899-6.893-1.928-2.381 2.927-3.059-5.307 6.571-7.735-7.643-7.568-6.595-1.868-.583 9.746-8.464-2.38-1.405-9.853-6.81-1.619-5.333 3.201.821 8.973z" clip-rule="evenodd"/><path fill="#35416B" fill-rule="evenodd" stroke="#35416B" stroke-linecap="round" stroke-linejoin="round" d="M182.797 137.407s6.453 1.844 13.203 11.138c.762.999 5.655-.167 7.357 2.713s-1.191 6.461-.429 8.056a119.663 119.663 0 018.334 25.918l7.595-7.402-6.595-6.7 3.714-7.365 8.655-1.06-.131-11.899-9.286.987-3.047-5.295 6.571-7.759-7.643-7.604-7.143 7.973-8.405-2.439-1.404-9.841-12.131 1.547.785 9.032z" clip-rule="evenodd"/><path fill="#fff" fill-rule="evenodd" stroke="#fff" stroke-linecap="round" stroke-linejoin="round" d="M54.964 121.056l-7.297.131-2.893 2.594 2.988 3.987-5.952 1.69-4.608-3.713-6.06 5.95 4.632 4.76-1.357 4.296H28.94l-2.38 2.665 2.38 4.665 6.346.166 1.428 2.999-5.107 5.593 4.072 8.532 6.095-7.283 3.988 1.75.19 6.342 4.489 2.44 2.833-2.475.38-6.081 3.239-1.999 3.988 4.236 5.857-5.498-3.988-4.652 1.56-3.297 3.904 1.88 2.834-2.106v-7.413l-6.334-.786-1.56-5.367 4.68-4.272-5.667-5.069-4.453 4.236-2.154-1.071-.596-7.83zm-5.166 15.315a6.664 6.664 0 012.81.512c.91.372 1.724.946 2.38 1.678a6.327 6.327 0 011.381 2.487c.27.927.336 1.901.19 2.856a6.521 6.521 0 01-6.837 5.565 6.52 6.52 0 01-6.139-6.327v-.238a6.384 6.384 0 016.202-6.485l.013-.048z" clip-rule="evenodd"/><path fill="#35416B" fill-rule="evenodd" stroke="#fff" stroke-linecap="round" stroke-linejoin="round" d="M51.976 123.734l-7.274.131.108 6.616-6.06 1.713-4.607-3.712-6.072 5.95 4.631 4.76-1.357 4.283h-5.464v7.319l6.333.166 1.429 2.999-5.143 5.605 6.13 5.95 4.048-4.76 3.989 1.761.166 6.331h7.322l.38-6.081 3.25-1.999 3.989 4.236 5.869-5.498-3.988-4.64 1.571-3.32 6.726-.215v-7.354l-6.345-.785-1.536-5.379 4.69-4.284-5.63-5.105-4.488 4.201-2.155-1-.512-7.889zm-5.166 15.303a6.512 6.512 0 016.69 5.373 6.51 6.51 0 01-10.37 6.301 6.628 6.628 0 01-1.833-2.178 6.471 6.471 0 01-.726-2.749v-.238a6.423 6.423 0 016.25-6.509h-.011z" clip-rule="evenodd"/><path fill="#F7A501" fill-rule="evenodd" stroke="#fff" stroke-linecap="round" stroke-linejoin="round" d="M111.857 199.512l1-18.16-19.786-29.297-.31-74.6-17.416-17.849-.619 100.553 37.131 39.353z" clip-rule="evenodd"/><path fill="#fff" fill-rule="evenodd" stroke="#fff" stroke-linecap="round" stroke-linejoin="round" d="M168.131 76.86h-75.31v75.136h75.334l-.024-75.135z" clip-rule="evenodd"/><path fill="#fff" fill-rule="evenodd" stroke="#F7A501" stroke-linecap="round" stroke-linejoin="round" d="M168.94 152.329l18.858 28.714-75 .821-20.393-29.63 76.535.095z" clip-rule="evenodd"/><path fill="#F7A501" fill-rule="evenodd" stroke="#fff" stroke-linecap="round" stroke-linejoin="round" d="M187.905 180.984l-.31 18.361-75.262.155.155-18.029 75.417-.487z" clip-rule="evenodd"/><path fill="#fff" fill-rule="evenodd" d="M168.941 77.349l-19.25-18.66-74.298.631 17.179 17.957 76.369.072z" clip-rule="evenodd"/><path fill="#35416B" fill-rule="evenodd" stroke="#F7A501" stroke-linecap="round" stroke-linejoin="round" d="M101.845 82.216h57.203c.464-.002.924.083 1.357.25.442.174.847.432 1.19.76.336.344.602.748.786 1.19.179.43.272.892.274 1.358v57.487c0 .466-.093.927-.274 1.357a3.689 3.689 0 01-.786 1.19 3.277 3.277 0 01-1.19.75 3.585 3.585 0 01-1.357.261h-57.203a3.567 3.567 0 01-3.571-3.474V85.702c0-.466.093-.927.274-1.356a3.57 3.57 0 013.297-2.13v0z" clip-rule="evenodd"/><path fill="#fff" fill-rule="evenodd" stroke="#fff" stroke-linecap="round" stroke-linejoin="round" d="M119.214 84.988h37.465a3.57 3.57 0 012.535 1.047c.335.341.599.746.774 1.19.183.433.272.9.262 1.369v52.109a3.57 3.57 0 01-3.571 3.57h-37.465a3.57 3.57 0 01-3.571-3.57V88.534c.001-.473.094-.942.274-1.38.176-.444.439-.85.774-1.19a3.715 3.715 0 011.19-.785c.435-.177.9-.266 1.369-.262l-.036.071z" clip-rule="evenodd"/><path fill="#fff" fill-rule="evenodd" d="M119.762 92.759l26.94-.06-26.94.06z" clip-rule="evenodd"/><path stroke="#F7A501" stroke-linecap="round" stroke-linejoin="round" d="M119.762 92.759l26.94-.06"/><path fill="#fff" fill-rule="evenodd" d="M119.917 95.984l26.94-.06-26.94.06z" clip-rule="evenodd"/><path stroke="#F7A501" stroke-linecap="round" stroke-linejoin="round" d="M119.917 95.984l26.94-.06"/><path fill="#fff" fill-rule="evenodd" d="M119.762 99.565l26.94-.071-26.94.071z" clip-rule="evenodd"/><path stroke="#F7A501" stroke-linecap="round" stroke-linejoin="round" d="M119.762 99.565l26.94-.071"/><path fill="#fff" fill-rule="evenodd" d="M119.762 103.23l26.94-.071-26.94.071z" clip-rule="evenodd"/><path stroke="#F7A501" stroke-linecap="round" stroke-linejoin="round" d="M119.762 103.23l26.94-.071"/><path fill="#fff" fill-rule="evenodd" stroke="#F7A501" stroke-linecap="round" stroke-linejoin="round" d="M123.619 106.301h19.952a3.576 3.576 0 013.584 3.582v22.609a3.567 3.567 0 01-1.048 2.535 3.583 3.583 0 01-2.536 1.059h-19.952a3.573 3.573 0 01-3.572-3.57v-22.61a3.57 3.57 0 013.572-3.57v-.035zm-20.655-8.163h7.977a.991.991 0 01.643.25c.084.083.15.185.19.297a.837.837 0 010 .678.72.72 0 01-.19.298.936.936 0 01-.286.19.858.858 0 01-.345.071h-7.917a.925.925 0 01-.631-.262.94.94 0 01-.262-.63 1.01 1.01 0 01.262-.63.892.892 0 01.631-.263h-.072zm.203 4.188h7.988a.694.694 0 01.345.06c.11.045.211.109.298.19a.93.93 0 01.178.298.85.85 0 01.072.345.893.893 0 01-.881.892h-7.988a.893.893 0 01-.881-.892.695.695 0 010-.345.86.86 0 01.178-.298.624.624 0 01.274-.19.704.704 0 01.345-.084l.072.024zm0 4.653h7.988a.893.893 0 010 1.785h-7.988a.894.894 0 01-.881-.893.797.797 0 01.071-.333.579.579 0 01.191-.285.852.852 0 01.619-.274v0zm-.131 4.391h7.976a.998.998 0 01.619.262.983.983 0 01.274.642 1.035 1.035 0 01-.262.631.916.916 0 01-.286.19.871.871 0 01-.345 0h-7.976a.836.836 0 01-.345 0 .916.916 0 01-.286-.19.92.92 0 01-.262-.631c0-.118.024-.236.071-.345a.799.799 0 01.191-.297.936.936 0 01.631-.262v0zm0 4.807h7.976a.934.934 0 01.631.262c.158.174.25.397.262.631a.89.89 0 01-.893.892h-7.976a.892.892 0 110-1.785v0z" clip-rule="evenodd"/></svg>