<svg width="300" height="300" viewBox="0 0 300 300" fill="none" xmlns="http://www.w3.org/2000/svg">
<path fill-rule="evenodd" clip-rule="evenodd" d="M59.178 39.1592H236.08C239.357 39.1681 242.497 40.4766 244.809 42.7972C247.121 45.1179 248.418 48.261 248.413 51.5363V229.726C248.41 233.006 247.115 236.152 244.808 238.483C243.664 239.631 242.306 240.542 240.81 241.165C239.314 241.787 237.709 242.109 236.089 242.112H59.1864C55.911 242.101 52.7738 240.791 50.4632 238.471C48.1527 236.15 46.8575 233.008 46.8619 229.735V51.5363C46.8575 48.2625 48.1527 45.1206 50.4632 42.8002C52.7738 40.4798 55.911 39.1703 59.1864 39.1592H59.178Z" fill="#F96132"/>
<path fill-rule="evenodd" clip-rule="evenodd" d="M115.334 35.3715L120.096 38.4972L115.334 35.3715Z" fill="#F96132"/>
<path d="M115.334 35.3715L120.096 38.4972" stroke="#F7A501" stroke-width="2.5" stroke-linecap="round" stroke-linejoin="round"/>
<path d="M108.291 225.494L107.889 45.3268L115.435 35.3296L122.544 45.4693L122.871 227.036L108.291 225.494Z" stroke="#F7A501" stroke-width="2.5" stroke-linecap="round" stroke-linejoin="round"/>
<path d="M122.2 211.425L108.291 201.737L122.092 191.858L108.459 181.601L122.544 171.763L108.291 161.648L122.251 151.592L108.291 141.293L122.393 131.514L108.711 120.905L122.242 111.025L108.057 101.17L122.05 91.4916L108.275 91.0139L121.941 100.894L108.275 110.992L122.117 120.93L108.191 130.601L122.293 141.159L108.191 150.846L121.706 161.983L108.291 171.57L122.268 182.07L109.046 191.975L122.46 201.855L108.828 211.911L122.2 211.425Z" stroke="#F7A501" stroke-width="2.5" stroke-linecap="round" stroke-linejoin="round"/>
<path d="M107.948 65.5559L122.259 65.3547L108.073 55.8603L122.184 45.8045L107.872 45.2095L122.2 55.6508L107.948 65.5559Z" stroke="#F7A501" stroke-width="2.5" stroke-linecap="round" stroke-linejoin="round"/>
<path fill-rule="evenodd" clip-rule="evenodd" d="M98.6749 64.2989H130.643L135.824 68.1369L130.643 87.7793H98.6749V64.2989Z" fill="#F96132" stroke="#F7A501" stroke-width="2.5" stroke-linecap="round" stroke-linejoin="round"/>
<path d="M113.112 228.746L112.71 48.5782L120.255 38.5978L127.365 48.7458L127.692 230.313L113.112 228.746Z" stroke="white" stroke-width="2.5" stroke-linecap="round" stroke-linejoin="round"/>
<path d="M127.038 214.676L113.146 204.989L126.971 195.168L113.322 184.902L127.348 175.056L113.095 164.933L127.063 154.827L113.112 144.561L127.248 134.79L113.54 124.173L127.072 114.293L112.861 104.413L126.845 94.7681L113.079 94.2905L126.736 104.12L113.062 114.26L126.904 124.207L112.986 133.902L127.088 144.436L112.986 154.131L126.56 165.268L113.146 174.872L127.105 185.346L113.9 195.26L127.315 205.14L113.674 215.196L127.038 214.676Z" stroke="white" stroke-width="2.5" stroke-linecap="round" stroke-linejoin="round"/>
<path d="M112.81 68.8324L127.122 68.6313L112.936 59.1452L127.055 49.1313L112.752 48.5195L127.063 58.9441L112.81 68.8324Z" stroke="white" stroke-width="2.5" stroke-linecap="round" stroke-linejoin="round"/>
<path fill-rule="evenodd" clip-rule="evenodd" d="M98.5409 64.5251L103.571 68.8072L103.345 92.0363L98.4319 87.8464L98.5409 64.5251Z" fill="#F7A501" stroke="#F7A501" stroke-width="2.5" stroke-linecap="round" stroke-linejoin="round"/>
<path fill-rule="evenodd" clip-rule="evenodd" d="M103.73 68.3966H135.715V91.8603H103.73V68.3966Z" fill="#F96132" stroke="white" stroke-width="2.5" stroke-linecap="round" stroke-linejoin="round"/>
<path d="M201.496 105.939L213.762 112.919" stroke="#35416B" stroke-width="2.5" stroke-linecap="round" stroke-linejoin="round"/>
<path d="M201.496 105.939L219.522 116.204" stroke="#35416B" stroke-width="2.5" stroke-linecap="round" stroke-linejoin="round"/>
<path d="M98.8259 69.9721L78.5198 69.7877L78.218 80.1955H98.8846L98.8259 69.9721Z" stroke="#F7A501" stroke-width="2.5" stroke-linecap="round" stroke-linejoin="round"/>
<path fill-rule="evenodd" clip-rule="evenodd" d="M60.3265 66.9302H80.0541L83.4915 69.8631L80.0541 84.8715L63.4035 88.6592L60.3098 84.8715L60.3265 66.9302Z" fill="#F96132" stroke="#F7A501" stroke-width="2.5" stroke-linecap="round" stroke-linejoin="round"/>
<path d="M137.317 74.8659L143.42 80.6732L154.32 70.3156L162.896 80.3212L173.569 70.4078L184.007 79.6844L193.305 71.1285L203.626 79.9777L209.201 70.4246L209.897 79.9777L201.429 70.4246L192.618 80.2039L183.923 70.7681L172.672 80.3212L163.609 70.2654L152.936 80.0363L142.179 70.3491L137.317 74.8659Z" stroke="#F7A501" stroke-width="2.5" stroke-linecap="round" stroke-linejoin="round"/>
<path d="M98.2306 70.5838L88.1111 79.5838L79.1403 70.3659L78.4863 79.9106L88.6142 70.4162L98.2306 79.3827V70.5838Z" stroke="#F7A501" stroke-width="2.5" stroke-linecap="round" stroke-linejoin="round"/>
<path d="M136.009 75.1592L213.469 75.5279L222.632 85.7933L136.126 86.2793L136.009 75.1592Z" stroke="white" stroke-width="2.5" stroke-linecap="round" stroke-linejoin="round"/>
<path d="M136.906 69.6285L208.807 69.9553L217.971 80.2207L136.948 80.4218L136.906 69.6285Z" stroke="#F7A501" stroke-width="2.5" stroke-linecap="round" stroke-linejoin="round"/>
<path d="M136.235 74.9246L148.065 86.2123L158.964 75.8464L167.541 85.8603L178.197 75.9804L188.635 85.2738L197.858 76.6592L208.17 85.5084L213.754 75.9553L214.441 85.5084L205.982 75.9553L197.178 85.7262L188.526 76.3324L177.275 85.8771L168.22 75.8212L157.547 85.5922L146.757 75.9218L136.453 85.7179L136.235 74.9246Z" stroke="white" stroke-width="2.5" stroke-linecap="round" stroke-linejoin="round"/>
<path d="M103.454 75.4944L83.1394 75.3352L82.8292 85.743H103.513L103.454 75.4944Z" stroke="white" stroke-width="2.5" stroke-linecap="round" stroke-linejoin="round"/>
<path d="M102.85 76.148L92.7224 85.148L83.7599 75.9301L83.106 85.4832L93.2003 75.9637L102.901 84.9637L102.85 76.148Z" stroke="white" stroke-width="2.5" stroke-linecap="round" stroke-linejoin="round"/>
<path fill-rule="evenodd" clip-rule="evenodd" d="M63.5125 70.5503H83.24V88.4832H63.5125V70.5503Z" fill="white" stroke="white" stroke-width="2.5" stroke-linecap="round" stroke-linejoin="round"/>
<path fill-rule="evenodd" clip-rule="evenodd" d="M63.0178 70.4665L60.3937 67.2067L60.2092 84.7123L62.8334 88.2067L63.0178 70.4665Z" fill="#F7A501" stroke="#F7A501" stroke-width="2.5" stroke-linecap="round" stroke-linejoin="round"/>
<path d="M198.503 86.5223V98.0447" stroke="#F7A501" stroke-width="2.5" stroke-linejoin="round"/>
<path d="M200.079 86.095V97.6257" stroke="white" stroke-width="2.5" stroke-linecap="round" stroke-linejoin="round"/>
<path d="M201.672 99.5614C201.653 99.1911 201.525 98.8345 201.305 98.5364C201.084 98.2383 200.78 98.0119 200.431 97.8855C200.081 97.7517 199.699 97.7255 199.333 97.81C198.969 97.8946 198.638 98.0874 198.386 98.3631C198.128 98.6356 197.955 98.9776 197.89 99.347C197.824 99.7163 197.868 100.097 198.017 100.441C198.162 100.785 198.408 101.077 198.721 101.279C199.031 101.487 199.396 101.598 199.769 101.598C200.026 101.589 200.279 101.532 200.515 101.43C200.749 101.328 200.96 101.18 201.136 100.994C201.314 100.809 201.454 100.59 201.546 100.349C201.638 100.112 201.681 99.8579 201.672 99.6033V99.5614Z" stroke="white" stroke-width="2.5" stroke-linejoin="round"/>
<path d="M199.786 101.648C199.786 101.648 198.319 105.318 198.688 106.869C199.057 108.419 201.018 107.992 201.739 107.145C202.46 106.299 201.513 104.212 201.513 104.212" stroke="white" stroke-width="2.5" stroke-linecap="round" stroke-linejoin="round"/>
<path fill-rule="evenodd" clip-rule="evenodd" d="M184.527 114.042H212.815L219.312 117.528L212.815 128.899L190.748 132.385L184.51 128.899L184.527 114.042Z" fill="#F7A501" stroke="#F7A501" stroke-width="2.5" stroke-linecap="round" stroke-linejoin="round"/>
<path fill-rule="evenodd" clip-rule="evenodd" d="M180.754 112.014H209.042L219.17 116.79L209.042 126.846L189.692 132.662L180.57 129.553L180.754 112.014Z" fill="#F7A501" stroke="#F7A501" stroke-width="2.5" stroke-linecap="round" stroke-linejoin="round"/>
<path fill-rule="evenodd" clip-rule="evenodd" d="M111.645 208.056L145.868 208.324L146.019 193.651L180.184 194.313L180.343 139.844L209.536 139.458L219.044 144.427L209.419 198.427L234.454 198.377L244.07 203.087L234.429 219.109C233.724 230.69 224.099 230.916 223.865 230.899L49.8549 228.302C48.6812 228.302 49.0165 221.765 49.0165 221.765L111.729 222.98L111.645 208.056Z" fill="#F7A501" stroke="#F7A501" stroke-width="2.5" stroke-linecap="round" stroke-linejoin="round"/>
<path fill-rule="evenodd" clip-rule="evenodd" d="M190.983 117.67H219.279V132.52H190.983V117.67Z" fill="#F96132" stroke="#F7A501" stroke-width="2.5" stroke-linecap="round" stroke-linejoin="round"/>
<path fill-rule="evenodd" clip-rule="evenodd" d="M189.708 117.394H218.004V132.209H189.708V117.394Z" fill="#F96132" stroke="#F7A501" stroke-width="2.5" stroke-linecap="round" stroke-linejoin="round"/>
<path fill-rule="evenodd" clip-rule="evenodd" d="M189.708 117.075H219.237V132.553H189.708V117.075Z" fill="#F96132" stroke="#F7A501" stroke-width="2.5" stroke-linecap="round" stroke-linejoin="round"/>
<path fill-rule="evenodd" clip-rule="evenodd" d="M180.737 111.947L190.513 117.075L219.371 116.899L209.025 112.073L180.737 111.947Z" fill="white" stroke="white" stroke-width="2.5" stroke-linecap="round" stroke-linejoin="round"/>
<path fill-rule="evenodd" clip-rule="evenodd" d="M146.061 193.584L156.525 198.88L189.893 199.634L179.279 194.095L146.061 193.584Z" fill="white" stroke="white" stroke-width="2.5" stroke-linecap="round" stroke-linejoin="round"/>
<path fill-rule="evenodd" clip-rule="evenodd" d="M48.765 221.791L48.8991 227.422L121.345 228.26L110.882 222.478L48.765 221.791Z" fill="white" stroke="white" stroke-width="2.5" stroke-linecap="round" stroke-linejoin="round"/>
<path fill-rule="evenodd" clip-rule="evenodd" d="M111.486 208.223L122.276 213.436L155.384 213.679L145.24 207.997L111.486 208.223Z" fill="white" stroke="white" stroke-width="2.5" stroke-linecap="round" stroke-linejoin="round"/>
<path fill-rule="evenodd" clip-rule="evenodd" d="M180.344 139.961L190.237 144.989L219.103 144.679L209.738 139.559L180.344 139.961Z" fill="white" stroke="white" stroke-width="2.5" stroke-linecap="round" stroke-linejoin="round"/>
<path d="M200.398 106.416L182.473 113.564V130.584" stroke="#35416B" stroke-width="2.5" stroke-linecap="round" stroke-linejoin="round"/>
<path d="M200.398 106.416L189.398 117.503L188.702 133.207" stroke="#35416B" stroke-width="2.5" stroke-linecap="round" stroke-linejoin="round"/>
<path d="M120.616 228.536H48.5135L51.0287 238.592H243.861L247.214 234.461L248.053 211.76H245.093V202.123H221.475V145.601H189.415V199.634H155.627V213.88H120.616V228.536Z" fill="#F96132"/>
</svg>
