<svg xmlns:xlink="http://www.w3.org/1999/xlink" fill="none" viewBox="0 0 350 341"><rect width="349" height="340.446" y=".243" fill="url(#pattern0)" rx="31.935"/><path fill="#35416B" fill-rule="evenodd" d="M79.984 230.187l266.924-11.421 2.432 11.421-77.468 55.627H2.51L.25 274.312l79.734-44.125z" clip-rule="evenodd"/><path fill="#9ABCE6" fill-rule="evenodd" d="M77.47 218.694h269.366l-77.474 55.636H0l77.47-55.636z" clip-rule="evenodd"/><path fill="url(#pattern1)" d="M12.859 211.501h307.244v70.992H12.859z"/><path fill="#35416B" fill-rule="evenodd" d="M279.83 245.543c-.328-3.128 4.457-6.183 10.686-6.843 6.23-.66 11.565 1.338 11.878 4.46.312 3.121-4.457 6.186-10.687 6.842-6.229.657-11.546-1.338-11.877-4.459zm-240.479 9.666c-1.694.132-3.126-.625-3.213-1.663-.088-1.039 1.225-2.008 2.916-2.14 1.691-.131 3.126.626 3.213 1.664.088 1.038-1.225 2.008-2.916 2.139zm25.705-20.987a1.346 1.346 0 01.267 1.005 1.362 1.362 0 01-.523.899l-18.163 13.842a1.356 1.356 0 01-2.167-1.262 1.362 1.362 0 01.523-.899l18.147-13.836a1.344 1.344 0 011.01-.277 1.342 1.342 0 01.905.528z" clip-rule="evenodd"/><path fill="#fff" fill-rule="evenodd" d="M204.513 86.55a2.515 2.515 0 012.518 2.52v152.21a2.507 2.507 0 01-.738 1.779 2.501 2.501 0 01-1.78.735A2.515 2.515 0 01202 241.28V89.07a2.52 2.52 0 012.513-2.52z" clip-rule="evenodd"/><path fill="#fff" fill-rule="evenodd" d="M206.037 91.17l-1.529 52.741s5.133 7.631 18.073 4.873c12.941-2.758 20.421-12.758 33.688-15.876 13.266-3.119 19.383 3.382 19.383 3.382l2.547-53.555s-6.609-5.394-20.396-1.905c-13.788 3.489-21.809 13.274-34.749 15.857-12.94 2.582-17.017-5.517-17.017-5.517z" clip-rule="evenodd"/><path fill="#F7C455" fill-rule="evenodd" d="M82.072 61.628h85.271c3.393 0 6.146 3.119 6.146 6.965v56.679c0 3.847-2.753 6.969-6.146 6.969h-85.27c-3.413 0-6.146-3.122-6.146-6.969V68.593c0-3.846 2.752-6.965 6.145-6.965z" clip-rule="evenodd"/><path fill="#fff" fill-rule="evenodd" d="M138.328 90.975l.042 24.07 23.366-.171.379-4.882-6.752-1.214-7.875-8.471-9.16-9.332z" clip-rule="evenodd"/><path fill="#F7C455" fill-rule="evenodd" d="M142.313 108.368a2.093 2.093 0 011.353-1.874 2.094 2.094 0 012.804 1.584 2.096 2.096 0 01-2.061 2.476 2.147 2.147 0 01-1.951-1.362 2.145 2.145 0 01-.145-.824z" clip-rule="evenodd"/><path fill="#fff" fill-rule="evenodd" d="M121.714 74.75l.107 11.567 13.88 13.763.106-11.464-14.093-13.866zm-.674 13.543l-.125 11.089 14.998 15.238-.212-11.213-14.661-15.114zm.549 15.072l.027 11.506 11.654.208-11.681-11.714z" clip-rule="evenodd"/><path fill="#fff" fill-rule="evenodd" d="M107.698 74.466l-.106 11.76 13.982 13.907.178-11.04-.826-.86-13.228-13.767zm-.178 14.506l-.053 11.051 14.179 14.795.034-11.427-14.16-14.419zm-.069 14.647v11.46l11.553-.106-11.553-11.354z" clip-rule="evenodd"/><path fill="#fff" fill-rule="evenodd" d="M93.31 74.856l-.027 11.419 14.256 13.896V88.938l-14.23-14.082zm.155 14.12l14.127 14.871-.137 11.134-14.27-15.019.28-10.986zm-.31 14.84l.018 11.172 11.693-.019-11.712-11.153z" clip-rule="evenodd"/><path fill="#F7A501" fill-rule="evenodd" d="M157.213 39h13.353a1.515 1.515 0 011.516 1.517v13.369a1.52 1.52 0 01-1.516 1.517h-13.353a1.517 1.517 0 01-1.517-1.517V40.529a1.524 1.524 0 01.934-1.412c.184-.077.383-.117.583-.117zm-4.061 100.047h16.709a1.891 1.891 0 011.895 1.896v16.715a1.895 1.895 0 01-1.895 1.896h-16.709a1.893 1.893 0 01-1.895-1.896v-16.699a1.887 1.887 0 01.549-1.351 1.9 1.9 0 011.346-.561z" clip-rule="evenodd"/><path fill="#FBDD99" fill-rule="evenodd" d="M31.716 63.077h34.687a1.683 1.683 0 011.596 1.76v25.474a1.685 1.685 0 01-1.596 1.76H31.716a1.687 1.687 0 01-1.597-1.76V64.838a1.689 1.689 0 011.597-1.76zM31.9 96.92h34.687a1.683 1.683 0 011.597 1.76v25.473a1.686 1.686 0 01-1.597 1.761H31.902a1.687 1.687 0 01-1.597-1.761V98.68a1.688 1.688 0 011.596-1.76zm-.03 33.807h34.687a1.691 1.691 0 011.596 1.764v25.47a1.69 1.69 0 01-1.596 1.76H31.871a1.68 1.68 0 01-1.596-1.76v-25.47a1.686 1.686 0 011.596-1.764zm-.273 33.589h34.687a1.686 1.686 0 011.596 1.764v25.469a1.689 1.689 0 01-1.596 1.761H31.598a1.685 1.685 0 01-1.596-1.761V166.08a1.686 1.686 0 011.596-1.764z" clip-rule="evenodd"/><path stroke="#F7A501" stroke-linecap="round" stroke-linejoin="round" stroke-width="2.557" d="M38.995 103.304l6.203 17.913m-5.126-15.072l11.241-4.954 3.135 7.268-11.31 4.803"/><rect width="9.685" height="33.653" fill="#fff" rx="4.843" transform="matrix(-.63454 -.78097 -.77116 .6267 323.022 46.105)"/><rect width="9.7" height="33.601" fill="#fff" rx="4.85" transform="matrix(-.90666 -.43291 -.42507 .89989 300.039 26.047)"/><rect width="9.755" height="33.569" fill="#fff" rx="4.877" transform="matrix(-.26282 -.96836 -.963 .25633 335.222 71.898)"/><defs><pattern id="pattern0" width="1" height="1" patternContentUnits="objectBoundingBox"><use transform="matrix(.00156 0 0 .00201 -.072 -.082)" xlink:href="#image0"/></pattern><pattern id="pattern1" width="1" height="1" patternContentUnits="objectBoundingBox"><use transform="scale(.00102 .0044)" xlink:href="#image1"/></pattern></defs></svg>