<svg width="232" height="293" viewBox="0 0 232 293" fill="none" xmlns="http://www.w3.org/2000/svg">
<path d="M189.944 21.45H41.9666C30.9226 21.45 21.9697 30.4043 21.9697 41.45V252.45C21.9697 263.496 30.9226 272.45 41.9666 272.45H189.944C200.988 272.45 209.941 263.496 209.941 252.45V41.45C209.941 30.4043 200.988 21.45 189.944 21.45Z" fill="#F96132"/>
<path fill-rule="evenodd" clip-rule="evenodd" d="M50.9653 122.07C50.9653 84.2999 80.5108 53.6899 116.955 53.6899C153.4 53.6899 182.945 84.2999 182.945 122.07C182.945 159.84 153.39 190.44 116.955 190.44C80.5208 190.44 50.9653 159.83 50.9653 122.07Z" fill="#F96132" stroke="#F96132" stroke-width="8.86" stroke-linecap="round" stroke-linejoin="round"/>
<path fill-rule="evenodd" clip-rule="evenodd" d="M72.8019 129.8H92.2689C92.5908 129.8 92.9098 129.861 93.2087 129.98C93.5071 130.108 93.7785 130.291 94.0086 130.52C94.2377 130.748 94.418 131.02 94.5385 131.32C94.6675 131.616 94.7322 131.937 94.7285 132.26V184.87C94.7322 185.193 94.6675 185.514 94.5385 185.81C94.418 186.11 94.2377 186.382 94.0086 186.61C93.7785 186.839 93.5071 187.022 93.2087 187.15C92.9098 187.269 92.5908 187.33 92.2689 187.33H72.8019C72.1503 187.326 71.5261 187.068 71.0622 186.61C70.8363 186.379 70.6565 186.108 70.5323 185.81C70.4081 185.512 70.3436 185.193 70.3423 184.87V132.26C70.3436 131.937 70.4081 131.618 70.5323 131.32C70.6565 131.022 70.8363 130.751 71.0622 130.52C71.5261 130.062 72.1503 129.804 72.8019 129.8V129.8Z" fill="#35416B"/>
<path fill-rule="evenodd" clip-rule="evenodd" d="M100.868 109.82H120.105C120.424 109.819 120.741 109.881 121.036 110.002C121.331 110.124 121.6 110.303 121.826 110.529C122.051 110.755 122.23 111.023 122.352 111.319C122.474 111.614 122.536 111.93 122.534 112.25V181.19C122.534 181.509 122.471 181.824 122.349 182.118C122.227 182.413 122.048 182.68 121.822 182.905C121.596 183.13 121.328 183.308 121.034 183.429C120.739 183.55 120.423 183.611 120.105 183.61H100.868C100.549 183.611 100.233 183.55 99.9378 183.43C99.6396 183.312 99.3702 183.131 99.1479 182.9C98.9193 182.679 98.7389 182.414 98.618 182.12C98.4988 181.824 98.4377 181.509 98.438 181.19V112.25C98.4367 111.931 98.4978 111.615 98.618 111.32C98.7387 111.023 98.919 110.754 99.1479 110.53C99.3756 110.305 99.6436 110.126 99.9378 110C100.233 109.88 100.549 109.819 100.868 109.82V109.82Z" fill="#35416B"/>
<path fill-rule="evenodd" clip-rule="evenodd" d="M129.023 101.01H148.85C149.179 101.009 149.504 101.073 149.808 101.198C150.112 101.323 150.388 101.508 150.62 101.74C151.09 102.209 151.356 102.846 151.36 103.51V182.77C151.357 183.434 151.092 184.07 150.621 184.538C150.151 185.007 149.514 185.27 148.85 185.27H129.023C128.529 185.272 128.045 185.126 127.634 184.852C127.223 184.578 126.902 184.187 126.714 183.73C126.58 183.414 126.515 183.073 126.524 182.73V103.51C126.522 103.181 126.586 102.856 126.711 102.552C126.836 102.248 127.02 101.972 127.253 101.739C127.485 101.507 127.761 101.323 128.065 101.198C128.369 101.072 128.695 101.009 129.023 101.01Z" fill="#35416B"/>
<path fill-rule="evenodd" clip-rule="evenodd" d="M157.759 110.54H176.106C176.41 110.54 176.712 110.6 176.993 110.717C177.275 110.833 177.531 111.004 177.746 111.219C177.961 111.435 178.132 111.691 178.249 111.972C178.365 112.254 178.425 112.555 178.425 112.86V173.14C178.421 173.754 178.177 174.343 177.745 174.78C177.308 175.211 176.719 175.451 176.106 175.45H157.759C157.454 175.455 157.151 175.397 156.869 175.28C156.589 175.162 156.335 174.993 156.119 174.78C155.902 174.565 155.729 174.31 155.609 174.03C155.491 173.748 155.427 173.446 155.419 173.14V112.86C155.419 112.555 155.477 112.253 155.589 111.97C155.709 111.69 155.882 111.435 156.099 111.22C156.315 111.007 156.569 110.838 156.849 110.72C157.136 110.597 157.446 110.536 157.759 110.54V110.54Z" fill="#35416B"/>
<path fill-rule="evenodd" clip-rule="evenodd" d="M89.6393 98.79H124.284C124.586 98.7879 124.886 98.8461 125.166 98.9611C125.446 99.0761 125.7 99.2457 125.914 99.46C126.13 99.675 126.303 99.9296 126.424 100.21C126.534 100.494 126.591 100.795 126.594 101.1V123.71C126.594 124.321 126.354 124.907 125.924 125.34C125.488 125.773 124.899 126.018 124.284 126.02H89.6393C89.0246 126.018 88.4356 125.773 87.9995 125.34C87.5696 124.907 87.3288 124.321 87.3296 123.71V101.14C87.3283 100.836 87.3871 100.535 87.5027 100.254C87.6183 99.9736 87.7884 99.7184 88.0032 99.5036C88.2179 99.2889 88.473 99.1187 88.7538 99.0031C89.0346 98.8875 89.3356 98.8287 89.6393 98.83V98.79Z" fill="#F7A501"/>
<path d="M92.0986 121.59L82.6001 135.14" stroke="#F7A501" stroke-width="2.69" stroke-linecap="round" stroke-linejoin="round"/>
<path fill-rule="evenodd" clip-rule="evenodd" d="M94.7785 114.14H113.546C113.85 114.214 114.121 114.389 114.314 114.635C114.508 114.882 114.613 115.186 114.613 115.5C114.613 115.814 114.508 116.118 114.314 116.365C114.121 116.611 113.85 116.786 113.546 116.86H94.7785C94.474 116.786 94.2033 116.611 94.0097 116.365C93.8162 116.118 93.7109 115.814 93.7109 115.5C93.7109 115.186 93.8162 114.882 94.0097 114.635C94.2033 114.389 94.474 114.214 94.7785 114.14Z" fill="white"/>
<path fill-rule="evenodd" clip-rule="evenodd" d="M94.9585 109.01H118.755C118.94 109.004 119.124 109.037 119.296 109.106C119.468 109.175 119.624 109.278 119.755 109.41C119.882 109.536 119.982 109.685 120.051 109.85C120.12 110.015 120.155 110.191 120.155 110.37C120.155 110.549 120.12 110.725 120.051 110.89C119.982 111.055 119.882 111.204 119.755 111.33C119.624 111.462 119.468 111.565 119.296 111.634C119.124 111.703 118.94 111.736 118.755 111.73H94.9585C94.7771 111.732 94.597 111.698 94.4286 111.63C94.2645 111.558 94.1153 111.457 93.9887 111.33C93.8609 111.206 93.7619 111.056 93.6987 110.89C93.6269 110.726 93.5895 110.549 93.5888 110.37C93.5844 110.185 93.6176 110.001 93.6863 109.829C93.7551 109.657 93.8579 109.501 93.9887 109.37C94.1187 109.249 94.2714 109.155 94.4378 109.093C94.6042 109.032 94.7812 109.003 94.9585 109.01V109.01Z" fill="white"/>
<path fill-rule="evenodd" clip-rule="evenodd" d="M94.6983 104.14H118.495C118.679 104.137 118.863 104.17 119.035 104.239C119.206 104.308 119.363 104.41 119.494 104.54C119.622 104.666 119.723 104.817 119.792 104.982C119.861 105.148 119.896 105.326 119.896 105.505C119.896 105.684 119.861 105.862 119.792 106.028C119.723 106.193 119.622 106.344 119.494 106.47C119.363 106.6 119.206 106.702 119.035 106.771C118.863 106.839 118.679 106.873 118.495 106.87H94.6983C94.3252 106.874 93.9656 106.73 93.6984 106.47C93.4408 106.201 93.2974 105.842 93.2985 105.47C93.2958 105.285 93.3298 105.102 93.3985 104.93C93.4671 104.758 93.569 104.602 93.6984 104.47C93.9766 104.235 94.3349 104.117 94.6983 104.14V104.14Z" fill="white"/>
<path fill-rule="evenodd" clip-rule="evenodd" d="M119.075 116.95H131.163C131.391 116.958 131.609 117.05 131.773 117.21C131.852 117.29 131.915 117.385 131.958 117.49C132.001 117.595 132.023 117.707 132.023 117.82V130.56C132.021 130.785 131.931 131 131.773 131.16C131.694 131.243 131.6 131.309 131.495 131.354C131.39 131.398 131.277 131.421 131.163 131.42H119.075C118.961 131.421 118.848 131.397 118.745 131.35C118.624 131.305 118.514 131.233 118.425 131.14C118.35 131.06 118.29 130.969 118.245 130.87C118.201 130.766 118.18 130.653 118.185 130.54V117.82C118.178 117.707 118.199 117.594 118.245 117.49C118.287 117.386 118.348 117.291 118.425 117.21C118.505 117.129 118.6 117.064 118.705 117.02C118.824 116.979 118.949 116.955 119.075 116.95V116.95Z" fill="white"/>
<path d="M121.424 124.33L124.124 126.98L128.773 121.62" stroke="#F96132" stroke-width="2.69" stroke-linecap="round" stroke-linejoin="round"/>
<path fill-rule="evenodd" clip-rule="evenodd" d="M79.161 178.54C81.8575 175.19 85.752 173.021 90.0196 172.493C94.2871 171.965 98.5926 173.12 102.024 175.712C105.455 178.304 107.743 182.13 108.402 186.38C109.062 190.63 108.041 194.97 105.557 198.48L65.0131 255.81C61.9508 260.138 57.2952 263.074 52.0698 263.97C46.8444 264.866 41.4769 263.651 37.1475 260.59L30.9784 256.23C29.8019 255.398 28.8082 254.335 28.0586 253.104C27.309 251.874 26.8193 250.503 26.6197 249.076C26.4202 247.649 26.515 246.196 26.8984 244.807C27.2818 243.418 27.9455 242.122 28.8488 241L79.161 178.54Z" fill="#35416B"/>
<path fill-rule="evenodd" clip-rule="evenodd" d="M126.054 57.47C108.445 57.0753 91.2791 63.0176 77.6817 74.2152C64.0844 85.4128 54.959 101.121 51.9667 118.481C48.9744 135.841 52.314 153.699 61.3776 168.804C70.4413 183.909 84.6265 195.257 101.351 200.782C118.076 206.307 136.228 205.642 152.504 198.909C168.78 192.175 182.098 179.821 190.033 164.093C197.968 148.366 199.993 130.312 195.74 113.217C191.486 96.1223 181.237 81.1232 166.857 70.95C154.903 62.491 140.694 57.7969 126.054 57.47V57.47ZM125.124 79.85C137.375 80.124 149.104 84.8706 158.098 93.1953C167.093 101.52 172.732 112.848 173.954 125.043C175.175 137.239 171.894 149.46 164.729 159.404C157.564 169.347 147.01 176.326 135.056 179.025C123.102 181.724 110.574 179.957 99.8326 174.056C89.0914 168.155 80.8793 158.528 76.744 146.991C72.6086 135.453 72.8357 122.801 77.3824 111.419C81.9291 100.037 90.4814 90.7114 101.427 85.2C108.776 81.4935 116.925 79.656 125.154 79.85H125.124Z" fill="#35416B"/>
<path fill-rule="evenodd" clip-rule="evenodd" d="M71.3421 174.54C72.5579 172.82 74.1007 171.356 75.8822 170.232C77.6637 169.108 79.6492 168.346 81.7252 167.989C83.8012 167.633 85.9271 167.688 87.9815 168.154C90.0359 168.619 91.9786 169.484 93.6986 170.7C95.4187 171.916 96.8824 173.459 98.0062 175.241C99.1301 177.023 99.892 179.008 100.249 181.085C100.605 183.161 100.549 185.287 100.084 187.342C99.619 189.397 98.7539 191.34 97.538 193.06L54.4347 254.04C53.2182 255.76 51.6748 257.224 49.8926 258.348C48.1105 259.472 46.1245 260.233 44.048 260.589C41.9716 260.946 39.8453 260.889 37.7907 260.423C35.736 259.958 33.7932 259.092 32.0732 257.875C30.3531 256.658 28.8895 255.115 27.7659 253.332C26.6423 251.55 25.8808 249.564 25.5247 247.487C25.1687 245.41 25.2251 243.283 25.6907 241.228C26.1564 239.173 27.0222 237.23 28.2387 235.51L71.3421 174.54Z" fill="#6371A3"/>
<path fill-rule="evenodd" clip-rule="evenodd" d="M124.874 48.35C107.267 47.9596 90.1057 53.9051 76.5129 65.1043C62.9201 76.3035 53.7997 92.0118 50.8118 109.37C47.8239 126.728 51.1671 144.583 60.2329 159.683C69.2987 174.784 83.4844 186.127 100.208 191.648C116.931 197.168 135.081 196.5 151.353 189.764C167.626 183.028 180.939 170.672 188.869 154.945C196.8 139.219 198.821 121.167 194.565 104.075C190.308 86.9836 180.057 71.9888 165.678 61.82C153.723 53.3617 139.514 48.6709 124.874 48.35V48.35ZM123.944 70.73C136.202 70.9815 147.945 75.7083 156.96 84.0198C165.975 92.3313 171.64 103.654 172.886 115.853C174.132 128.052 170.874 140.286 163.726 150.249C156.578 160.212 146.034 167.217 134.079 169.943C122.125 172.668 109.587 170.927 98.8276 165.047C88.0681 159.167 79.8304 149.554 75.6667 138.02C71.5031 126.486 71.701 113.827 76.2232 102.429C80.7454 91.0311 89.2797 81.6806 100.218 76.14C107.566 72.43 115.715 70.5891 123.944 70.78V70.73Z" fill="#6371A3"/>
</svg>
