<svg xmlns:xlink="http://www.w3.org/1999/xlink" fill="none" viewBox="0 0 375 364"><rect width="340.93" height="320.357" x="16.859" y="19.839" fill="#F7A501" rx="41.147"/><path fill="url(#pattern0)" d="M-4 0h383.546v363.238H-4z" opacity=".2"/><path fill="#35416B" fill-rule="evenodd" d="M36.739 147.233l303.088-11.257 11.901 11.257v122.381H36.738V147.233z" clip-rule="evenodd"/><path fill="#535F89" fill-rule="evenodd" d="M24.772 136.037h314.99v122.381H24.772V136.037z" clip-rule="evenodd"/><path fill="#1F2B54" fill-rule="evenodd" d="M24.967 258.359l11.87 11.249 314.901.068-11.735-11.737-315.036.42z" clip-rule="evenodd"/><path fill="#E24F0D" fill-rule="evenodd" d="M51.481 178.862l75.743-5.046 6.318 5.04v41.969h-82.06v-41.963zm185.406-1.087l75.739-5.043 6.331 5.043v41.96h-82.07v-41.96z" clip-rule="evenodd"/><path fill="#F96132" fill-rule="evenodd" d="M45.222 174.035h82.061v41.963H45.222v-41.963zm185.414-1.087h82.061v41.96h-82.061v-41.96z" clip-rule="evenodd"/><path fill="#C14F0D" fill-rule="evenodd" d="M45.222 216.001l6.265 4.858 82.027-.043-6.213-4.864-82.08.049zm185.414-1.09l6.263 4.858 82.027-.043-6.213-4.862-82.077.047z" clip-rule="evenodd"/><path fill="#fff" fill-rule="evenodd" d="M55.125 195.611l8.527-3.243v2.02l-6.087 2.162 6.087 2.162v2.013l-8.527-3.242v-1.872zm20.23-2.214c.205.265.342.577.399.908.06.505.085 1.013.074 1.522v4.633h-2.11v-4.8a2.118 2.118 0 00-.215-1.028 1.093 1.093 0 00-1.072-.55 1.487 1.487 0 00-1.235.547 2.512 2.512 0 00-.423 1.559v4.272h-2.054v-10.634h2.054v3.771a2.527 2.527 0 011.038-.957c.387-.18.808-.272 1.235-.272.455-.006.907.08 1.328.253.392.163.732.432.982.776zm3.9 2.328h3.21a1.805 1.805 0 00-.498-1.235 1.54 1.54 0 00-1.102-.423 1.398 1.398 0 00-1.112.451 2.234 2.234 0 00-.497 1.207zm4.695-1.834c.318.492.522 1.049.599 1.63a9.85 9.85 0 01.065 1.563h-5.407c.027.791.277 1.347.744 1.665a1.77 1.77 0 001.028.309 1.48 1.48 0 001.035-.362 1.72 1.72 0 00.386-.543h2.106a2.625 2.625 0 01-.732 1.427c-.675.766-1.621 1.149-2.838 1.149a3.986 3.986 0 01-2.656-.97c-.766-.645-1.15-1.696-1.152-3.154 0-1.367.347-2.415 1.04-3.144a3.541 3.541 0 012.694-1.115 4.134 4.134 0 011.772.371c.543.256 1 .664 1.316 1.174zm6.395 2.733a2.25 2.25 0 01-.395.198c-.177.064-.36.111-.546.142l-.464.086a3.01 3.01 0 00-.926.284.95.95 0 00-.479.874.929.929 0 00.294.763c.202.16.455.244.713.238a2.11 2.11 0 001.235-.392c.373-.26.567-.735.584-1.427l-.016-.766zm-1.25-.964a3.17 3.17 0 00.815-.179.616.616 0 00.442-.587.695.695 0 00-.337-.67 2.075 2.075 0 00-.985-.185 1.294 1.294 0 00-1.038.361 1.485 1.485 0 00-.287.726h-1.992a3.027 3.027 0 01.58-1.702c.544-.694 1.48-1.042 2.808-1.044a4.984 4.984 0 012.3.516c.67.342 1.005.988 1.007 1.94v3.619c0 .251 0 .556.016.927-.007.191.035.38.123.55a.72.72 0 00.31.241v.308H90.61a2.362 2.362 0 01-.13-.447 4.671 4.671 0 01-.055-.479 4.39 4.39 0 01-.985.791 3 3 0 01-1.507.383 2.594 2.594 0 01-1.77-.618 2.187 2.187 0 01-.698-1.736 2.253 2.253 0 011.121-2.106 5.038 5.038 0 011.81-.507l.698-.102zm10.234-2.078v-3.777h2.091v10.655h-2.005v-1.093c-.245.419-.591.77-1.006 1.022a2.853 2.853 0 01-1.406.309 2.934 2.934 0 01-2.325-1.118 4.304 4.304 0 01-.945-2.873c0-1.346.309-2.406.927-3.178a3.024 3.024 0 012.47-1.158 2.47 2.47 0 012.199 1.211zm.055 3.06c0-.963-.24-1.655-.728-2.069a1.588 1.588 0 00-1.044-.377 1.456 1.456 0 00-1.328.683 3.185 3.185 0 00-.423 1.699 3.14 3.14 0 00.43 1.748 1.466 1.466 0 001.309.654 1.52 1.52 0 001.33-.651 2.878 2.878 0 00.46-1.699l-.006.012zm15.756.822l-8.526 3.243v-2.014l6.093-2.162-6.093-2.162v-2.019l8.526 3.273v1.841zm124.971-2.338l8.526-3.243v2.02l-6.087 2.162 6.087 2.162v2.014l-8.526-3.262v-1.853zm15.931-6.14h1.714l-4.147 10.995h-1.699l4.132-10.995zm8.419 3.932c.204.266.341.577.398.908.057.505.081 1.014.071 1.522v4.633h-2.106v-4.799a2.128 2.128 0 00-.216-1.029 1.1 1.1 0 00-1.072-.55 1.476 1.476 0 00-1.235.547 2.511 2.511 0 00-.423 1.544v4.272h-2.066v-10.619h2.057v3.772a2.52 2.52 0 011.037-.958c.387-.18.809-.273 1.235-.272.456-.006.908.08 1.328.254.396.162.739.43.992.775zm3.9 2.329h3.206a1.81 1.81 0 00-.495-1.236 1.548 1.548 0 00-1.105-.423 1.392 1.392 0 00-1.109.451 2.218 2.218 0 00-.497 1.208zm4.682-1.832c.322.492.533 1.048.617 1.631.06.518.082 1.041.065 1.563h-5.413c.026.79.274 1.345.744 1.664.302.208.662.316 1.028.309.379.016.749-.113 1.035-.361.162-.155.292-.339.383-.544h2.106a2.621 2.621 0 01-.729 1.427c-.677.766-1.623 1.15-2.838 1.152a3.99 3.99 0 01-2.656-.973c-.77-.644-1.154-1.695-1.152-3.153 0-1.369.346-2.417 1.038-3.144a3.547 3.547 0 012.696-1.094 4.152 4.152 0 011.776.371c.534.253.985.652 1.3 1.152zm6.407 2.73a2.146 2.146 0 01-.395.198c-.177.064-.36.111-.546.142l-.464.086c-.322.044-.635.14-.926.285a1.078 1.078 0 00-.185 1.64c.203.158.455.241.713.234.443.002.875-.135 1.235-.392.375-.259.569-.735.584-1.427l-.016-.766zm-1.253-.963c.279-.024.554-.084.818-.18a.622.622 0 00.442-.586.701.701 0 00-.337-.671 2.102 2.102 0 00-.988-.185 1.288 1.288 0 00-1.035.362 1.52 1.52 0 00-.29.725h-1.989a3.021 3.021 0 01.578-1.701c.545-.694 1.482-1.041 2.81-1.041a4.983 4.983 0 012.301.512c.671.342 1.006.989 1.006 1.94v4.531c-.005.19.037.379.124.55a.738.738 0 00.309.24v.309h-2.245a2.301 2.301 0 01-.13-.448 6.064 6.064 0 01-.059-.478 4.246 4.246 0 01-.985.79 2.968 2.968 0 01-1.504.383 2.592 2.592 0 01-1.769-.617 2.184 2.184 0 01-.698-1.736 2.245 2.245 0 011.121-2.106 5.038 5.038 0 011.809-.507l.711-.086zm10.234-2.091v-3.765h2.094v10.655h-2.008v-1.093c-.244.419-.589.77-1.003 1.022a2.855 2.855 0 01-1.405.309 2.94 2.94 0 01-2.329-1.118 4.294 4.294 0 01-.926-2.872c0-1.347.308-2.405.926-3.175a3.013 3.013 0 012.471-1.159c.443-.009.882.097 1.272.309.374.212.687.517.908.887zm.058 3.06c0-.963-.244-1.655-.731-2.069a1.58 1.58 0 00-1.041-.377 1.45 1.45 0 00-1.328.686 3.691 3.691 0 000 3.444c.14.215.335.388.565.503.229.115.485.168.741.151a1.512 1.512 0 001.331-.651c.327-.5.489-1.09.463-1.687zm15.756.828l-8.526 3.243v-2.008l6.096-2.161-6.096-2.162v-2.02l8.526 3.258v1.85z" clip-rule="evenodd"/><path fill="#E6E6E6" fill-rule="evenodd" d="M149.968 96.437l72.948-7.412 7.72 7.412v50.2h-80.668v-50.2z" clip-rule="evenodd"/><path fill="#fff" fill-rule="evenodd" d="M142.248 89h80.668v50.188h-80.668V89z" clip-rule="evenodd"/><path fill="#C8C8C8" fill-rule="evenodd" d="M142.291 139.166l7.72 7.397 80.638.031-7.745-7.412-80.613-.016z" clip-rule="evenodd"/><path fill="#080808" fill-rule="evenodd" d="M193.038 110.125l.034 19.6 19.032-.142.309-3.975-5.503-.986-6.414-6.896-7.458-7.601z" clip-rule="evenodd"/><path fill="#fff" fill-rule="evenodd" d="M196.284 124.289a1.71 1.71 0 011.101-1.529 1.702 1.702 0 011.837.414 1.706 1.706 0 01-.291 2.608c-.28.185-.607.283-.942.283a1.747 1.747 0 01-1.587-1.107 1.737 1.737 0 01-.118-.669z" clip-rule="evenodd"/><path fill="#F1AA04" fill-rule="evenodd" d="M179.506 96.913l.087 9.419 11.305 11.205.087-9.333-11.479-11.291zm-.55 11.041l-.102 9.034 12.214 12.397-.17-9.133-11.942-12.298zm.448 12.261l.022 9.364 9.493.173-9.515-9.537z" clip-rule="evenodd"/><path fill="#FB4F0D" fill-rule="evenodd" d="M168.089 96.687l-.086 9.575 11.389 11.319.145-8.988-.676-.698-10.772-11.208zm-.142 11.807l-.046 8.997 11.553 12.061.027-9.306-11.534-11.752zm-.058 11.925v9.333l9.409-.086-9.409-9.247z" clip-rule="evenodd"/><path fill="#0316F0" fill-rule="evenodd" d="M156.367 97.002l-.022 9.297 11.602 11.307v-9.139l-11.58-11.465zm.129 11.499l11.513 12.091-.111 9.059-11.646-12.215.244-8.935zm-.253 12.079v9.095l9.543-.024-9.543-9.071z" clip-rule="evenodd"/><path fill="#DCDCDC" fill-rule="evenodd" d="M177.554 165.563l6.794-3.24 2.61 3.24.136 18.584 6.229-3.617 2.609 3.478-13.835 18.883-13.458-18.883h8.983l-.068-18.445z" clip-rule="evenodd"/><path fill="#fff" fill-rule="evenodd" d="M175.05 162.218h9.394l.136 18.584 8.847-.139-13.837 18.886-13.455-18.886h8.983l-.068-18.445z" clip-rule="evenodd"/><defs><pattern id="pattern0" width="1" height="1" patternContentUnits="objectBoundingBox"><use transform="matrix(.00161 0 0 .00172 0 -.005)" xlink:href="#image0"/></pattern></defs></svg>