<svg xmlns:xlink="http://www.w3.org/1999/xlink" fill="none" viewBox="0 0 663 597"><rect width="612" height="597" x="31" fill="url(#pattern0)" rx="56"/><path fill="#35416B" fill-rule="evenodd" d="M151.76 386.274l506.429-21.669 4.613 21.669-146.977 105.539H4.771L.484 469.99l151.276-83.716z" clip-rule="evenodd"/><path fill="#9ABCE6" fill-rule="evenodd" d="M146.992 364.468h511.06L511.063 470.025H.009l146.983-105.557z" clip-rule="evenodd"/><path fill="url(#pattern1)" d="M24.406 350.821h582.926v134.691H24.406z"/><path fill="#35416B" fill-rule="evenodd" d="M530.923 415.408c-.622-5.934 8.457-11.731 20.275-12.983 11.819-1.252 21.942 2.54 22.535 8.461.593 5.922-8.457 11.737-20.275 12.983-11.819 1.246-21.906-2.54-22.535-8.461zm-456.254 18.34c-3.214.249-5.93-1.187-6.096-3.157-.166-1.97 2.324-3.809 5.533-4.058 3.208-.249 5.93 1.186 6.096 3.156.166 1.97-2.325 3.81-5.533 4.059zm48.769-39.82a2.568 2.568 0 01.506 1.908 2.578 2.578 0 01-.992 1.706l-34.46 26.261a2.572 2.572 0 01-4.048-1.39 2.575 2.575 0 01.929-2.71l34.43-26.249a2.57 2.57 0 011.917-.527 2.584 2.584 0 011.718 1.001z" clip-rule="evenodd"/><path fill="#fff" fill-rule="evenodd" d="M307.508 222.141a3.067 3.067 0 013.065 3.068v185.333a3.064 3.064 0 01-1.893 2.83 3.062 3.062 0 01-4.232-2.83V225.209a3.066 3.066 0 013.06-3.068z" clip-rule="evenodd"/><path fill="#fff" fill-rule="evenodd" d="M309.364 227.766l-1.862 64.219s6.25 9.291 22.006 5.933c15.756-3.358 24.865-15.534 41.019-19.331 16.153-3.798 23.601 4.118 23.601 4.118l3.102-65.21s-8.047-6.568-24.836-2.32c-16.788 4.249-26.554 16.163-42.311 19.308-15.756 3.145-20.719-6.717-20.719-6.717z" clip-rule="evenodd"/><path fill="#F7C455" fill-rule="evenodd" d="M137.447 87.393H270.82c5.308 0 9.613 4.878 9.613 10.894v88.653c0 6.016-4.305 10.9-9.613 10.9H137.447c-5.337 0-9.613-4.884-9.613-10.9V98.287c0-6.016 4.305-10.894 9.613-10.894z" clip-rule="evenodd"/><path fill="#fff" fill-rule="evenodd" d="M225.437 133.295l.065 37.648 36.548-.267.593-7.636-10.562-1.899-12.317-13.25-14.327-14.596z" clip-rule="evenodd"/><path fill="#F7C455" fill-rule="evenodd" d="M231.67 160.5a3.278 3.278 0 013.998-3.064 3.281 3.281 0 01-.719 6.482 3.358 3.358 0 01-2.348-1.028 3.352 3.352 0 01-.931-2.39z" clip-rule="evenodd"/><path fill="#fff" fill-rule="evenodd" d="M199.452 107.917l.166 18.092 21.71 21.527.166-17.932-22.042-21.687zm-1.056 21.183l-.196 17.344 23.46 23.835-.332-17.54-22.932-23.639zm.86 23.574l.041 17.996 18.23.326-18.271-18.322z" clip-rule="evenodd"/><path fill="#fff" fill-rule="evenodd" d="M177.528 107.472l-.166 18.394 21.87 21.753.279-17.267-1.293-1.347-20.69-21.533zm-.279 22.69l-.083 17.284 22.179 23.141.053-17.872-22.149-22.553zm-.106 22.909v17.925l18.069-.166-18.069-17.759z" clip-rule="evenodd"/><path fill="#fff" fill-rule="evenodd" d="M155.024 108.083l-.042 17.86 22.297 21.735v-17.569l-22.255-22.026zm.243 22.085l22.095 23.259-.213 17.415-22.321-23.491.439-17.183zm-.487 23.212l.03 17.474 18.288-.03-18.318-17.444z" clip-rule="evenodd"/><path fill="#F7A501" fill-rule="evenodd" d="M254.975 52h20.886a2.371 2.371 0 012.372 2.373v20.91a2.374 2.374 0 01-2.372 2.373h-20.886a2.371 2.371 0 01-2.372-2.373V54.391a2.383 2.383 0 01.688-1.69 2.378 2.378 0 011.684-.701zm-6.351 156.484h26.134a2.965 2.965 0 012.965 2.967v26.143a2.968 2.968 0 01-2.965 2.967h-26.134a2.966 2.966 0 01-2.965-2.967v-26.119a2.965 2.965 0 012.965-2.991z" clip-rule="evenodd"/><path fill="#FBDD99" fill-rule="evenodd" d="M58.684 89.66h54.254a2.633 2.633 0 012.496 2.753v39.844a2.63 2.63 0 01-2.496 2.753H58.683a2.638 2.638 0 01-2.496-2.753V92.413a2.641 2.641 0 012.497-2.753zm.29 52.933h54.254a2.631 2.631 0 012.497 2.753v39.843a2.637 2.637 0 01-2.497 2.754H58.974a2.638 2.638 0 01-2.496-2.754v-39.843a2.643 2.643 0 012.496-2.753zm-.047 52.879h54.254a2.64 2.64 0 012.496 2.759v39.838a2.644 2.644 0 01-.681 1.891 2.642 2.642 0 01-1.815.862H58.927a2.631 2.631 0 01-2.497-2.753v-39.838a2.635 2.635 0 012.497-2.759zm-.427 52.536h54.254a2.635 2.635 0 011.817.864c.467.517.712 1.198.68 1.895v39.837a2.647 2.647 0 01-.682 1.891 2.634 2.634 0 01-1.815.862H58.5a2.63 2.63 0 01-2.497-2.753v-39.837a2.635 2.635 0 012.497-2.759z" clip-rule="evenodd"/><path stroke="#F7A501" stroke-linecap="round" stroke-linejoin="round" stroke-width="4" d="M70.07 152.579l9.7 28.018m-8.017-23.574l17.583-7.749 4.904 11.369-17.69 7.511"/><rect width="11.793" height="40.976" fill="#fff" rx="5.896" transform="matrix(-.63454 -.78097 -.77116 .6267 451.807 172.893)"/><rect width="11.811" height="40.913" fill="#fff" rx="5.905" transform="matrix(-.90666 -.43291 -.42507 .89989 423.823 148.47)"/><rect width="11.878" height="40.874" fill="#fff" rx="5.939" transform="matrix(-.26282 -.96836 -.963 .25633 466.663 204.3)"/><defs><pattern id="pattern0" width="1" height="1" patternContentUnits="objectBoundingBox"><use transform="matrix(.00156 0 0 .00201 -.072 -.082)" xlink:href="#image0"/></pattern><pattern id="pattern1" width="1" height="1" patternContentUnits="objectBoundingBox"><use transform="scale(.00102 .0044)" xlink:href="#image1"/></pattern></defs></svg>