<svg xmlns:xlink="http://www.w3.org/1999/xlink" fill="none" viewBox="0 0 353 340"><rect width="352.011" height="340" x=".01" fill="#35416B" rx="49.118"/><path fill="#1D4AFF" fill-rule="evenodd" d="M10 126.465L164.128 77v92.704L10 219.169v-92.704z" clip-rule="evenodd"/><path stroke="#fff" stroke-linecap="round" stroke-linejoin="round" stroke-width="1.972" d="M27.574 135.875l-.287 63.731 124.923-40.839"/><path fill="#fff" fill-rule="evenodd" d="M29.6 149.604l15.9-5.483v46.874l-15.9 5.481v-46.872zm17.859 9.92l15.9-5.483-.028 31.106-15.9 5.481.028-31.104zm17.404-31.662l15.9-5.483-.172 57.066-15.9 5.481.172-57.064zm17.118 12.406l15.9-5.484.115 39.092-15.9 5.483-.115-39.091zm17.831 9.27l15.9-5.481.259 23.686-15.899 5.481-.26-23.686zm17.405-13.692l15.899-5.483-.027 31.532-15.899 5.481.027-31.53zm17.831-13.411l15.899-5.481.26 38.663-15.9 5.483-.259-38.665z" clip-rule="evenodd"/><path fill="url(#pattern0)" d="M85.624 95.752h172.084V255.57H85.624z"/><path stroke="#fff" stroke-linecap="round" stroke-linejoin="round" stroke-width="1.972" d="M112.01 164.834l-.287 63.731 124.923-40.83"/><path stroke="#fff" stroke-linecap="round" stroke-linejoin="round" stroke-width="1.972" d="M112.726 227.967l16.747-34.19 13.267 19.536 6.969-15.347 13.259 5.93 14.654-35.935 15.701 14.306 11.862-17.446 8.725 5.582 14.654-31.4"/><path fill="#FB4F0D" fill-rule="evenodd" stroke="#fff" stroke-linecap="round" stroke-linejoin="round" stroke-width="1.972" d="M127.453 194.966c0-1.392.966-2.522 2.16-2.522 1.194 0 2.157 1.13 2.157 2.522s-.966 2.522-2.157 2.522-2.16-1.127-2.16-2.522zm49.069-26.875c0-1.394.966-2.524 2.159-2.524 1.194 0 2.16 1.13 2.16 2.524 0 1.395-.968 2.523-2.16 2.523-1.191 0-2.159-1.13-2.159-2.523zm50.47-29.186c0-1.392.966-2.522 2.158-2.522 1.191 0 2.159 1.13 2.159 2.522s-.966 2.525-2.159 2.525c-1.194 0-2.158-1.13-2.158-2.525zm-86.262 73.707c0-1.394.981-2.522 2.16-2.522 1.179 0 2.159 1.128 2.159 2.522 0 1.395-.966 2.513-2.159 2.513-1.194 0-2.16-1.12-2.16-2.513zm20.449-9.295c0-1.394.966-2.524 2.159-2.524 1.194 0 2.16 1.13 2.16 2.524 0 1.395-.98 2.523-2.16 2.523-1.179 0-2.159-1.13-2.159-2.523zm42.452-38.537c0-1.393.968-2.523 2.16-2.523 1.191 0 2.159 1.13 2.159 2.523 0 1.392-.965 2.524-2.159 2.524s-2.16-1.13-2.16-2.524zm-11.05 17.896c0-1.395.965-2.522 2.159-2.522s2.157 1.127 2.157 2.522c0 1.395-.965 2.522-2.157 2.522-1.191 0-2.159-1.127-2.159-2.522z" clip-rule="evenodd"/><path fill="#F9BD2B" fill-rule="evenodd" d="M191.382 182.264l154.128-49.467v92.704l-154.128 49.465v-92.702z" clip-rule="evenodd"/><path stroke="#fff" stroke-linecap="round" stroke-linejoin="round" stroke-width="1.972" d="M207.96 192.395l-.287 63.731 124.923-40.839"/><path stroke="#fff" stroke-dasharray="1.23 1.23" stroke-linecap="round" stroke-linejoin="round" stroke-width=".491" d="M238.886 184.75l.682 60.88m29.931-68.874l.681 60.881m28.401-72.271l.679 60.88m28.742-69.555l.679 60.885"/><path fill="#fff" fill-rule="evenodd" d="M211.412 197.805l-.804 55.012s30.641-24.983 60.825-42.161c13.612-7.743 60.057-22.676 60.057-22.676l-.125-3.865s-30.859 10.859-60.849 14.28c-29.99 3.422-59.104-.59-59.104-.59z" clip-rule="evenodd"/><defs><pattern id="pattern0" width="1" height="1" patternContentUnits="objectBoundingBox"><use transform="scale(.00142 .00153)" xlink:href="#image0"/></pattern></defs></svg>