<svg xmlns:xlink="http://www.w3.org/1999/xlink" fill="none" viewBox="0 0 637 626"><rect width="587.556" height="552.1" x="35.948" y="34.19" fill="#F7A501" rx="70.912"/><path fill="url(#pattern0)" d="M0 0h661v626H0z" opacity=".2"/><path fill="#35416B" fill-rule="evenodd" d="M23.41 242.016l556.987-20.688 21.872 20.688v224.899H23.409V242.016z" clip-rule="evenodd"/><path fill="#535F89" fill-rule="evenodd" d="M1.419 221.441h578.859v224.9H1.418v-224.9z" clip-rule="evenodd"/><path fill="#1F2B54" fill-rule="evenodd" d="M1.776 446.233l21.815 20.671 578.695.125-21.566-21.568-578.944.772z" clip-rule="evenodd"/><path fill="#E24F0D" fill-rule="evenodd" d="M50.503 300.14l139.192-9.274 11.612 9.263v77.127H50.503V300.14zm340.72-1.998l139.188-9.268 11.633 9.268v77.111H391.223v-77.111z" clip-rule="evenodd"/><path fill="#F96132" fill-rule="evenodd" d="M39 291.269h150.803v77.116H38.999v-77.116zm340.737-1.998h150.804v77.11H379.737v-77.11z" clip-rule="evenodd"/><path fill="#C14F0D" fill-rule="evenodd" d="M39 368.391l11.514 8.927 150.742-.079-11.419-8.939-150.838.091zm340.737-2.004l11.509 8.928 150.742-.079-11.418-8.934-150.833.085z" clip-rule="evenodd"/><path fill="#fff" fill-rule="evenodd" d="M57.2 330.92l15.668-5.96v3.712l-11.185 3.973 11.185 3.973v3.701l-15.669-5.96v-3.439zm37.177-4.07c.375.489.626 1.062.732 1.669.11.928.156 1.863.136 2.798v8.514h-3.876v-8.821a3.896 3.896 0 00-.397-1.89 2.008 2.008 0 00-1.97-1.01 2.712 2.712 0 00-2.27 1.005 4.62 4.62 0 00-.777 2.866v7.85H82.18v-19.542h3.774v6.93a4.64 4.64 0 011.907-1.759c.711-.33 1.486-.5 2.27-.5a6.169 6.169 0 012.44.466 4.237 4.237 0 011.805 1.424zm7.167 4.28h5.897a3.322 3.322 0 00-.914-2.271 2.837 2.837 0 00-2.026-.777 2.577 2.577 0 00-2.043.828 4.109 4.109 0 00-.914 2.22zm8.626-3.372a7.26 7.26 0 011.101 2.997c.116.953.156 1.913.12 2.872h-9.937c.051 1.453.51 2.474 1.367 3.059.556.38 1.216.579 1.89.568a2.717 2.717 0 001.901-.664c.3-.284.541-.623.71-.999h3.87a4.822 4.822 0 01-1.345 2.622c-1.241 1.407-2.979 2.111-5.215 2.111a7.33 7.33 0 01-4.881-1.782c-1.407-1.184-2.113-3.116-2.117-5.795 0-2.512.638-4.438 1.913-5.778a6.52 6.52 0 014.948-2.049 7.59 7.59 0 013.258.681 5.736 5.736 0 012.417 2.157zm11.754 5.023c-.23.145-.473.267-.727.364a5.788 5.788 0 01-1.004.261l-.852.158a5.495 5.495 0 00-1.702.523 1.741 1.741 0 00-.88 1.606 1.704 1.704 0 00.539 1.402c.373.294.837.449 1.311.437a3.87 3.87 0 002.27-.721c.685-.477 1.043-1.351 1.073-2.622l-.028-1.408zm-2.299-1.771a5.827 5.827 0 001.498-.329 1.134 1.134 0 00.812-1.078 1.281 1.281 0 00-.619-1.232 3.821 3.821 0 00-1.81-.34 2.387 2.387 0 00-1.907.664c-.292.389-.474.85-.528 1.334h-3.66a5.552 5.552 0 011.067-3.128c.999-1.275 2.718-1.914 5.158-1.918a9.15 9.15 0 014.228.948c1.23.628 1.847 1.816 1.851 3.564v6.652c0 .46 0 1.022.028 1.703-.013.35.066.698.227 1.01.144.198.341.351.567.443v.567h-4.125a4.357 4.357 0 01-.239-.823 8.664 8.664 0 01-.102-.879 8.05 8.05 0 01-1.81 1.452 5.482 5.482 0 01-2.77.704 4.762 4.762 0 01-3.252-1.135 4.003 4.003 0 01-1.282-3.19 4.135 4.135 0 012.06-3.87 9.216 9.216 0 013.326-.931l1.282-.188zm18.807-3.819v-6.942h3.842v19.582h-3.683v-2.01a5.377 5.377 0 01-1.85 1.879 5.244 5.244 0 01-2.582.568 5.393 5.393 0 01-4.273-2.055 7.903 7.903 0 01-1.737-5.278c0-2.475.568-4.422 1.703-5.841a5.565 5.565 0 014.54-2.128 4.543 4.543 0 014.04 2.225zm.103 5.624c0-1.771-.443-3.042-1.34-3.802a2.909 2.909 0 00-1.918-.693 2.664 2.664 0 00-2.44 1.255 5.85 5.85 0 00-.778 3.121 5.772 5.772 0 00.789 3.213 2.684 2.684 0 002.406 1.203 2.797 2.797 0 002.446-1.198 5.286 5.286 0 00.846-3.121l-.011.022zm28.954 1.51l-15.669 5.96v-3.701l11.197-3.973-11.197-3.973v-3.712l15.669 6.016v3.383zm229.659-4.296l15.669-5.96v3.712l-11.186 3.973 11.186 3.973v3.701l-15.669-5.994v-3.405zm29.278-11.284h3.15l-7.622 20.206h-3.121l7.593-20.206zm15.47 7.225c.376.489.627 1.062.732 1.669.105.929.149 1.864.131 2.798v8.514h-3.871v-8.82a3.884 3.884 0 00-.397-1.89 2.014 2.014 0 00-1.969-1.011 2.699 2.699 0 00-2.27 1.005 4.617 4.617 0 00-.778 2.838v7.849h-3.796v-19.513h3.779v6.93a4.647 4.647 0 011.907-1.759 5.347 5.347 0 012.27-.5 6.155 6.155 0 012.441.466 4.274 4.274 0 011.821 1.424zm7.168 4.28h5.891a3.316 3.316 0 00-.908-2.27 2.847 2.847 0 00-2.032-.778 2.566 2.566 0 00-2.037.829 4.07 4.07 0 00-.914 2.219zm8.603-3.366a7.368 7.368 0 011.135 2.997c.11.953.15 1.913.12 2.872h-9.949c.049 1.453.505 2.473 1.368 3.059.555.382 1.216.58 1.89.568a2.728 2.728 0 001.901-.664c.297-.284.536-.623.703-.999h3.871a4.814 4.814 0 01-1.339 2.622c-1.245 1.407-2.984 2.113-5.216 2.117a7.332 7.332 0 01-4.88-1.788c-1.415-1.184-2.121-3.116-2.117-5.795 0-2.516.635-4.442 1.907-5.778a6.526 6.526 0 014.954-2.009 7.598 7.598 0 013.263.681 5.709 5.709 0 012.389 2.117zm11.776 5.017a3.943 3.943 0 01-.726.364 5.71 5.71 0 01-1.005.261l-.851.159a5.44 5.44 0 00-1.702.522 1.988 1.988 0 00-.87 1.428 1.997 1.997 0 00.529 1.586 2.05 2.05 0 001.311.431 3.88 3.88 0 002.27-.721c.689-.476 1.046-1.351 1.073-2.622l-.029-1.408zm-2.304-1.77a5.873 5.873 0 001.504-.33 1.131 1.131 0 00.812-1.078 1.285 1.285 0 00-.619-1.232 3.848 3.848 0 00-1.816-.34 2.365 2.365 0 00-1.901.664c-.292.39-.475.85-.534 1.334h-3.654a5.55 5.55 0 011.061-3.128c1.002-1.275 2.724-1.912 5.164-1.912a9.16 9.16 0 014.228.942c1.233.628 1.85 1.816 1.85 3.564v8.327c-.01.35.068.697.227 1.01.146.195.342.348.568.442v.568h-4.126a4.355 4.355 0 01-.238-.823c-.046-.255-.08-.567-.108-.88a7.792 7.792 0 01-1.811 1.453 5.466 5.466 0 01-2.763.704 4.758 4.758 0 01-3.252-1.135 4.014 4.014 0 01-1.283-3.19 4.14 4.14 0 012.06-3.871 9.24 9.24 0 013.326-.93l1.305-.159zm18.807-3.843v-6.918h3.848v19.581h-3.689v-2.009a5.366 5.366 0 01-1.844 1.878 5.244 5.244 0 01-2.582.568 5.405 5.405 0 01-4.279-2.055 7.898 7.898 0 01-1.703-5.278c0-2.475.568-4.42 1.703-5.835a5.552 5.552 0 014.54-2.128 4.666 4.666 0 012.338.567 4.54 4.54 0 011.668 1.629zm.108 5.625c0-1.771-.448-3.042-1.345-3.803a2.898 2.898 0 00-1.912-.692 2.65 2.65 0 00-2.441 1.26 6.785 6.785 0 000 6.328 2.67 2.67 0 002.401 1.203 2.785 2.785 0 002.446-1.197 5.251 5.251 0 00.851-3.099zm28.954 1.521l-15.669 5.959v-3.689l11.203-3.973-11.203-3.973v-3.712l15.669 5.988v3.4z" clip-rule="evenodd"/><path fill="#E6E6E6" fill-rule="evenodd" d="M231.492 148.667l134.057-13.621 14.188 13.621v92.253H231.492v-92.253z" clip-rule="evenodd"/><path fill="#fff" fill-rule="evenodd" d="M217.305 135h148.244v92.23H217.305V135z" clip-rule="evenodd"/><path fill="#C8C8C8" fill-rule="evenodd" d="M217.384 227.19l14.188 13.594 148.188.057-14.233-13.622-148.143-.029z" clip-rule="evenodd"/><path fill="#080808" fill-rule="evenodd" d="M310.643 173.822l.062 36.018 34.976-.261.567-7.305-10.113-1.81-11.787-12.674-13.705-13.968z" clip-rule="evenodd"/><path fill="#fff" fill-rule="evenodd" d="M316.607 199.851a3.144 3.144 0 012.023-2.81 3.136 3.136 0 013.377.761 3.136 3.136 0 01-.536 4.793 3.13 3.13 0 01-1.731.519 3.2 3.2 0 01-2.243-.982 3.194 3.194 0 01-.89-2.281z" clip-rule="evenodd"/><path fill="#F1AA04" fill-rule="evenodd" d="M285.775 149.541l.159 17.311 20.776 20.591.159-17.151-21.094-20.751zm-1.011 20.291l-.187 16.601 22.445 22.783-.312-16.784-21.946-22.6zm.823 22.532l.04 17.209 17.445.318-17.485-17.527z" clip-rule="evenodd"/><path fill="#FB4F0D" fill-rule="evenodd" d="M264.794 149.127l-.159 17.595 20.93 20.801.266-16.516-1.242-1.283-19.795-20.597zm-.261 21.698l-.085 16.533 21.23 22.164.051-17.101-21.196-21.596zm-.108 21.914v17.152l17.292-.159-17.292-16.993z" clip-rule="evenodd"/><path fill="#0316F0" fill-rule="evenodd" d="M243.251 149.706l-.039 17.084 21.321 20.778v-16.794l-21.282-21.068zm.239 21.13l21.156 22.221-.204 16.647-21.401-22.448.449-16.42zm-.466 22.198v16.715l17.536-.045-17.536-16.67z" clip-rule="evenodd"/><path fill="#DCDCDC" fill-rule="evenodd" d="M282.188 275.701l12.485-5.954 4.796 5.954.249 34.151 11.447-6.647 4.796 6.391-25.425 34.701-24.732-34.701h16.509l-.125-33.895z" clip-rule="evenodd"/><path fill="#fff" fill-rule="evenodd" d="M277.586 269.554h17.263l.25 34.151 16.259-.256-25.43 34.707-24.726-34.707h16.508l-.124-33.895z" clip-rule="evenodd"/><defs><pattern id="pattern0" width="1" height="1" patternContentUnits="objectBoundingBox"><use transform="matrix(.00161 0 0 .00172 0 -.005)" xlink:href="#image0"/></pattern></defs></svg>