<svg xmlns:xlink="http://www.w3.org/1999/xlink" fill="none" viewBox="0 0 590 533"><rect width="550" height="533" fill="#35416B" rx="77"/><path fill="#1D4AFF" fill-rule="evenodd" d="M0 175.858L270.641 89v162.784L0 338.643V175.858z" clip-rule="evenodd"/><path stroke="#fff" stroke-linecap="round" stroke-linejoin="round" stroke-width="3.463" d="M30.858 192.382l-.503 111.909 219.358-71.712"/><path fill="#fff" fill-rule="evenodd" d="M34.418 216.49l27.919-9.629v82.309l-27.919 9.624V216.49zm31.358 17.419l27.919-9.629-.048 54.621-27.918 9.624.047-54.616zm30.562-55.597l27.918-9.629-.301 100.206-27.919 9.624.302-100.201zm30.057 21.783l27.919-9.628.202 68.643-27.918 9.628-.203-68.643zm31.311 16.279l27.918-9.624.457 41.591-27.919 9.624-.456-41.591zm30.561-24.043l27.919-9.629-.048 55.369-27.918 9.624.047-55.364zm31.311-23.549l27.918-9.624.457 67.89-27.919 9.629-.456-67.895z" clip-rule="evenodd"/><path fill="url(#pattern0)" d="M132.792 121.927h302.171V402.56H132.792z"/><path stroke="#fff" stroke-linecap="round" stroke-linejoin="round" stroke-width="3.463" d="M179.125 243.232l-.504 111.909 219.358-71.695"/><path stroke="#fff" stroke-linecap="round" stroke-linejoin="round" stroke-width="3.463" d="M180.381 354.09l29.408-60.034 23.296 34.304 12.237-26.949 23.283 10.412 25.732-63.099 27.57 25.119 20.829-30.633 15.32 9.801 25.731-55.137"/><path fill="#FB4F0D" fill-rule="evenodd" stroke="#fff" stroke-linecap="round" stroke-linejoin="round" stroke-width="3.463" d="M206.243 296.143c0-2.445 1.695-4.429 3.792-4.429 2.096 0 3.788 1.984 3.788 4.429 0 2.445-1.696 4.429-3.788 4.429-2.092 0-3.792-1.98-3.792-4.429zm86.161-47.191c0-2.449 1.696-4.433 3.793-4.433 2.096 0 3.792 1.984 3.792 4.433s-1.7 4.429-3.792 4.429c-2.092 0-3.793-1.984-3.793-4.429zm88.624-51.25c0-2.445 1.696-4.429 3.788-4.429 2.092 0 3.792 1.984 3.792 4.429 0 2.445-1.695 4.433-3.792 4.433-2.096 0-3.788-1.984-3.788-4.433zM229.555 327.129c0-2.449 1.722-4.429 3.793-4.429 2.07 0 3.792 1.98 3.792 4.429 0 2.449-1.696 4.412-3.792 4.412-2.097 0-3.793-1.967-3.793-4.412zm35.908-16.322c0-2.449 1.696-4.433 3.792-4.433s3.792 1.984 3.792 4.433c0 2.45-1.721 4.429-3.792 4.429-2.07 0-3.792-1.984-3.792-4.429zm74.544-67.67c0-2.445 1.7-4.429 3.792-4.429 2.092 0 3.792 1.984 3.792 4.429 0 2.445-1.695 4.433-3.792 4.433-2.096 0-3.792-1.984-3.792-4.433zm-19.404 31.425c0-2.449 1.696-4.429 3.792-4.429s3.788 1.98 3.788 4.429c0 2.449-1.696 4.429-3.788 4.429-2.092 0-3.792-1.98-3.792-4.429z" clip-rule="evenodd"/><path fill="#F9BD2B" fill-rule="evenodd" d="M318.498 273.839l270.641-86.863V349.76l-270.641 86.859v-162.78z" clip-rule="evenodd"/><path stroke="#fff" stroke-linecap="round" stroke-linejoin="round" stroke-width="3.463" d="M347.609 291.628l-.504 111.909 219.358-71.712"/><path stroke="#fff" stroke-dasharray="2.16 2.16" stroke-linecap="round" stroke-linejoin="round" stroke-width=".863" d="M401.913 278.203l1.197 106.903m52.557-120.939l1.197 106.903m49.871-126.904l1.192 106.903m50.47-122.136l1.192 106.912"/><path fill="#fff" fill-rule="evenodd" d="M353.669 301.127l-1.412 96.599s53.806-43.868 106.806-74.032c23.903-13.597 105.459-39.818 105.459-39.818l-.22-6.788s-54.188 19.068-106.849 25.077c-52.66 6.008-103.784-1.038-103.784-1.038z" clip-rule="evenodd"/><defs><pattern id="pattern0" width="1" height="1" patternContentUnits="objectBoundingBox"><use transform="scale(.00142 .00153)" xlink:href="#image0"/></pattern></defs></svg>