<svg xmlns="http://www.w3.org/2000/svg" width="156" height="60" fill="none" viewBox="0 0 156 60"><rect width="153" height="36" y="9.078" fill="#C4C4C4" rx="12" transform="rotate(-3.4015 0 9.07812)"/><path fill="#C4C4C4" d="M10.014 59.5732L12.754 44.3839L29.0888 43.413C29.0888 43.413 22.1651 47.9617 18.6177 51.1066C15.0704 54.2516 10.014 59.5732 10.014 59.5732Z"/><path fill="#000" d="M20.5885 31.7369C23.112 31.5869 24.7262 30.1607 24.6085 28.1802C24.3389 23.6442 18.4547 25.5006 18.3341 23.4721C18.2895 22.7215 18.9168 22.2194 19.9869 22.1558C21.1529 22.0865 22.0082 22.7248 22.2964 23.7976L24.1975 22.8832C23.7455 21.2111 22.0011 20.1768 19.8768 20.303C17.6727 20.434 16.0716 21.8115 16.1779 23.6003C16.419 27.6571 22.2639 25.9473 22.4072 28.3591C22.4576 29.2056 21.7241 29.8102 20.5582 29.8795C19.3124 29.9535 18.2201 29.1048 17.9647 27.7736L16.0672 28.4795C16.4593 30.4917 18.3843 31.8679 20.5885 31.7369ZM30.6686 30.9294L30.4204 29.1811C30.1414 29.3419 29.7929 29.4107 29.4894 29.4288C28.8665 29.4658 28.4266 29.0752 28.381 28.3085L28.1712 24.7788L30.1996 24.6582L30.099 22.9652L28.0706 23.0858L27.9301 20.7219L25.9176 20.8416L26.0581 23.2054L24.7005 23.2861L24.8012 24.9791L26.1588 24.8984L26.38 28.6198C26.492 30.5045 27.7581 31.3108 29.3872 31.214C29.8504 31.1864 30.2778 31.0969 30.6686 30.9294ZM31.7393 30.9459L33.7517 30.8263L33.2733 22.7765L31.2608 22.8961L31.7393 30.9459ZM31.1267 21.718L33.2989 21.5889L33.1755 19.5126L31.0033 19.6417L31.1267 21.718ZM35.3816 30.7295L37.3941 30.6098L36.7219 19.3018L34.7095 19.4214L35.3816 30.7295ZM39.0239 30.513L41.0364 30.3933L40.3643 19.0853L38.3518 19.2049L39.0239 30.513ZM48.0685 29.9754L49.8573 29.8691L51.2061 24.5156L53.1475 29.6735L54.9523 29.5662L56.9655 21.3683L54.9371 21.4889L53.8749 26.8093L51.9503 21.6664L50.1136 21.7756L48.8118 27.1102L47.1109 21.9541L45.0824 22.0746L48.0685 29.9754ZM63.2797 22.9485L63.2917 20.9923C63.0474 20.9267 62.6931 20.8997 62.4056 20.9168C61.4314 20.9747 60.418 21.7241 60.0729 22.6582L59.9855 21.1888L57.9731 21.3084L58.4515 29.3582L60.464 29.2386L60.2884 26.2838C60.146 23.8881 61.1121 22.885 62.2461 22.8176C62.5975 22.7967 62.9846 22.8378 63.2797 22.9485ZM64.6206 28.9916L66.6331 28.8719L66.1546 20.8222L64.1422 20.9418L64.6206 28.9916ZM64.008 19.7637L66.1802 19.6345L66.0568 17.5582L63.8846 17.6873L64.008 19.7637ZM73.0338 28.4114L72.7856 26.663C72.5067 26.8238 72.1581 26.8926 71.8547 26.9107C71.2318 26.9477 70.7918 26.5571 70.7463 25.7905L70.5365 22.2607L72.5649 22.1401L72.4642 20.4471L70.4358 20.5677L70.2953 18.2039L68.2829 18.3235L68.4234 20.6873L67.0658 20.768L67.1664 22.461L68.524 22.3803L68.7452 26.1018C68.8572 27.9864 70.1233 28.7927 71.7524 28.6959C72.2156 28.6684 72.643 28.5788 73.0338 28.4114ZM74.1045 28.4279L76.117 28.3083L75.6385 20.2585L73.6261 20.3781L74.1045 28.4279ZM73.4919 19.2L75.6641 19.0708L75.5407 16.9945L73.3685 17.1236L73.4919 19.2ZM77.7468 28.2114L79.7593 28.0918L79.5495 24.562C79.4422 22.7572 80.0983 21.6603 81.3281 21.5872C82.2705 21.5312 82.9003 22.1509 82.9564 23.0933L83.2412 27.8848L85.2536 27.7652L84.9403 22.4945C84.8359 20.7376 83.5856 19.6579 81.8287 19.7623C80.6947 19.8297 79.8176 20.4428 79.353 21.2558L79.2808 20.042L77.2684 20.1616L77.7468 28.2114ZM90.1874 27.2315C91.1457 27.1746 92.0023 26.755 92.3674 26.1563L92.4196 27.0347C92.4813 28.0729 91.7236 28.8072 90.5097 28.8793C89.5674 28.9353 88.7742 28.5337 88.6337 27.7887L86.783 28.2032C87.1438 29.6884 88.7209 30.6045 90.6056 30.4925C93.0014 30.3501 94.5141 28.8336 94.3878 26.7094L93.9397 19.1707L91.9433 19.2894L91.9917 20.1039C91.5112 19.5715 90.6579 19.2375 89.6677 19.2964C87.3517 19.434 86.0571 21.1138 86.1986 23.4936C86.3391 25.8574 87.8236 27.372 90.1874 27.2315ZM88.1951 23.3749C88.1144 22.0173 88.8767 21.0905 90.1065 21.0174C91.3523 20.9433 92.2191 21.7734 92.2998 23.131C92.3796 24.4726 91.6172 25.3995 90.3714 25.4735C89.1416 25.5466 88.2748 24.7166 88.1951 23.3749ZM103.337 26.8186C105.861 26.6686 107.475 25.2423 107.357 23.2618C107.088 18.7258 101.204 20.5822 101.083 18.5538C101.038 17.8031 101.666 17.301 102.736 17.2374C103.902 17.1681 104.757 17.8065 105.045 18.8792L106.946 17.9648C106.494 16.2927 104.75 15.2584 102.626 15.3847C100.422 15.5157 98.8206 16.8931 98.9269 18.6819C99.168 22.7388 105.013 21.029 105.156 23.4407C105.207 24.2872 104.473 24.8918 103.307 24.9611C102.061 25.0351 100.969 24.1865 100.714 22.8553L98.8162 23.5611C99.2083 25.5734 101.133 26.9496 103.337 26.8186ZM113.113 21.99L115.17 23.9675C114.78 24.1509 114.323 24.2743 113.844 24.3028C111.815 24.4233 110.266 22.8966 110.134 20.6765C110.002 18.4564 111.359 16.7409 113.387 16.6203C115.416 16.4998 116.95 18.0434 117.082 20.2635C117.138 21.2059 116.932 22.0516 116.507 22.734L114.415 20.6945L113.113 21.99ZM107.946 20.8065C108.142 24.1127 110.682 26.3821 113.956 26.1874C114.962 26.1276 115.875 25.849 116.648 25.3703L118.11 26.774L119.381 25.5123L118.021 24.1987C118.904 23.1365 119.364 21.7147 119.27 20.1335C119.073 16.8273 116.534 14.558 113.276 14.7516C110.002 14.9462 107.749 17.5004 107.946 20.8065ZM120.932 25.6446L128.295 25.2069L128.183 23.3223L122.992 23.6308L122.44 14.3352L120.267 14.4643L120.932 25.6446ZM129.651 21.6643L131.599 21.5484C131.384 19.5417 134.628 19.6534 134.453 16.7146C134.339 14.782 132.793 13.5916 130.573 13.7235C128.273 13.8602 126.887 15.3531 127.094 17.4726L129.022 17.5503C128.854 16.3582 129.511 15.5338 130.677 15.4645C131.635 15.4075 132.31 15.9765 132.362 16.8549C132.48 18.8354 129.256 18.8026 129.651 21.6643ZM129.792 25.118L131.932 24.9908L131.807 22.8825L129.667 23.0097L129.792 25.118ZM136.483 21.1139L138.048 21.0209L138.045 13.4077L135.569 13.5548L136.483 21.1139ZM136.409 24.7246L138.55 24.5974L138.424 22.4892L136.284 22.6164L136.409 24.7246Z"/></svg>