<svg xmlns:xlink="http://www.w3.org/1999/xlink" fill="none" viewBox="0 0 630 540"><rect width="630" height="540" fill="url(#pattern0)" rx="43.215"/><g clip-path="url(#clip0)"><path fill="#E24F0D" fill-rule="evenodd" d="M389.788 56.29c13.617 6.11 12.593 11.494 12.593 13.44v181.118c0 1.944-1.162 3.524-2.593 3.524h-10.08c-1.452 0-2.596-1.58-2.596-3.524V69.73c0-1.965-.324-14.805 2.676-13.44z" clip-rule="evenodd"/><path fill="#E24F0D" fill-rule="evenodd" d="M575.978 241.462v10.08c0 1.453-1.572 2.601-3.519 2.605l-181.073.24c-1.947 0-3.675.726-8.192-3.502-3.403-3.186-6.471-7.991-6.471-7.991 0-1.435 12.709-3.767 14.641-3.767l171.738-10.008c14.024 9.426 12.873 10.909 12.876 12.343z" clip-rule="evenodd"/><path fill="#FF8D69" fill-rule="evenodd" d="M378.596 56h10.066c1.453 0 2.597 1.577 2.597 3.523V240.66c0 1.943-1.162 3.523-2.597 3.523h-10.08c-1.453 0-2.597-1.58-2.597-3.523V59.523C376 57.576 377.162 56 378.596 56z" clip-rule="evenodd"/><path fill="#FF8D69" fill-rule="evenodd" d="M564.866 231.273v10.084c0 1.431-1.576 2.597-3.522 2.601l-181.074.24c-1.946 0-3.526-1.156-3.526-2.59v-10.084c0-1.435 1.573-2.597 3.519-2.601l181.077-.243c1.947 0 3.523 1.158 3.526 2.593z" clip-rule="evenodd"/><path fill="#E24F0D" fill-rule="evenodd" d="M400.26 190.034h28.412v38.649H400.26v-38.649z" clip-rule="evenodd"/><path fill="#E24F0D" fill-rule="evenodd" d="M427.909 167.509h28.411v61.222h-28.411v-61.222z" clip-rule="evenodd"/><path fill="#E24F0D" fill-rule="evenodd" d="M456.012 143.23h28.411v85.602h-28.411V143.23z" clip-rule="evenodd"/><path fill="#E24F0D" fill-rule="evenodd" d="M484.288 120.276h28.411v108.477h-28.411V120.276z" clip-rule="evenodd"/><path fill="#E24F0D" fill-rule="evenodd" d="M512.376 97.246l14.79-12.927 13.621 12.927v131.459h-28.411V97.246z" clip-rule="evenodd"/><path stroke="#E24F0D" stroke-dasharray="3.91 3.91" stroke-linecap="round" stroke-linejoin="round" stroke-width="1.563" d="M484.503 140.683l.221 75.221"/><path fill="#FF8D69" fill-rule="evenodd" d="M387.177 188.686h28.415v43.554h-28.415v-43.554z" clip-rule="evenodd"/><path fill="#FF8D69" fill-rule="evenodd" d="M414.826 163.303h28.411v68.987h-28.411v-68.987z" clip-rule="evenodd"/><path fill="#FF8D69" fill-rule="evenodd" d="M442.928 135.943h28.411v96.453h-28.411v-96.453z" clip-rule="evenodd"/><path fill="#FF8D69" fill-rule="evenodd" d="M471.205 110.08h28.411v122.236h-28.411V110.08z" clip-rule="evenodd"/><path fill="#FF8D69" fill-rule="evenodd" d="M499.293 84.126h28.411v148.139h-28.411V84.126z" clip-rule="evenodd"/><path stroke="#E24F0D" stroke-dasharray="3.91 3.91" stroke-linecap="round" stroke-linejoin="round" stroke-width="1.563" d="M391.614 189.3l.222 38.544m23.153-38.278l.222 37.109m27.866-62.864l.221 64.186m56.078-116.944l.222 116.602m-28.041-91.566l.222 91.319"/><path stroke="#E24F0D" stroke-linecap="round" stroke-linejoin="round" stroke-width="1.563" d="M392.065 227.616l141.039.726"/><path fill="#FFB59E" fill-rule="evenodd" d="M397.414 190.176h12.6a3.23 3.23 0 012.969 2.028c.159.394.238.816.234 1.241v28.086a3.224 3.224 0 01-.924 2.299 3.223 3.223 0 01-2.279.97h-12.6a3.228 3.228 0 01-2.97-2.027 3.224 3.224 0 01-.233-1.242v-28.09a3.235 3.235 0 013.203-3.265zm22.84-24.116h17.067a3.449 3.449 0 013.436 3.461v52.199a3.467 3.467 0 01-.995 2.454 3.46 3.46 0 01-2.441 1.026h-17.067a3.449 3.449 0 01-3.435-3.462v-52.217a3.449 3.449 0 013.435-3.461zm28.662-27.527h16.816c1.743 0 3.156 1.533 3.156 3.422v79.002c0 1.893-1.413 3.426-3.156 3.426h-16.816c-1.743 0-3.156-1.533-3.156-3.426v-79.002c0-1.889 1.413-3.422 3.156-3.422zm28.041-25.823h16.958a3.408 3.408 0 013.373 3.443v104.978a3.407 3.407 0 01-3.373 3.444h-16.958a3.408 3.408 0 01-3.374-3.444V116.153a3.413 3.413 0 013.374-3.443zm28.371-26.037h16.936a3.417 3.417 0 013.37 3.462v130.542a3.418 3.418 0 01-3.37 3.462h-16.936a3.419 3.419 0 01-3.374-3.462V90.134a3.423 3.423 0 013.374-3.462z" clip-rule="evenodd"/></g><g fill-rule="evenodd" clip-path="url(#clip1)" clip-rule="evenodd"><path fill="#F7A501" d="M56.133 423.736h539.836v22.276H56.132l-11.884-12.039 11.885-10.237z"/><path fill="#C8C8C8" d="M190.614 433.161c0-8.841 7.409-16.018 16.535-16.018 2.909 0 7.208-3.855 7.208-3.855l9.006 19.289-.103 1.483s.439-.32.424-.036c-.455 8.449-7.679 15.166-16.535 15.166-9.126-.01-16.535-7.182-16.535-16.029z"/><path fill="#F9CC69" d="M44.227 411.717H584.06v22.292H44.227v-22.292z"/><path fill="#F78A01" d="M583.981 411.593l.145 22.343 11.884 11.942v-22.441l-12.029-11.844z"/><path fill="#E2E2E2" d="M44.243 411.702l152.478-.103.047 22.792H44.072l.17-22.689z"/><path fill="#C8C8C8" d="M44 433.823l12.742 13.435 151.301-.967-11.368-12.112L44 433.823z"/><path fill="#F9CC69" stroke="#E2E2E2" stroke-linecap="round" stroke-linejoin="round" stroke-width="10.771" d="M191.027 420.931a11.807 11.807 0 017.115-11.076 11.803 11.803 0 114.687 22.635 11.687 11.687 0 01-11.802-11.559z"/><path fill="#C8C8C8" d="M191.136 386.77h16.535l1.477 7.151 11.286 8.966 13.134-16.117h15.735a4.133 4.133 0 004.133-4.134v-53.615c0-2.284-3.658-5.42-3.658-5.42l-9.363-6.805-49.3 8.092a4.134 4.134 0 00-4.134 4.133l-10.825 46.655s6.65 7.26 8.267 8.371c3.865 2.671 4.424 2.723 6.713 2.723z"/><path fill="#E6E6E6" d="M179.763 377.908h16.535l12.763 16.117 13.14-16.117h15.734a4.134 4.134 0 004.134-4.133V320.16a4.133 4.133 0 00-4.134-4.134h-58.172a4.13 4.13 0 00-2.923 1.211 4.13 4.13 0 00-1.211 2.923v53.615a4.133 4.133 0 004.134 4.133z"/><path fill="#454545" stroke="#454545" stroke-linecap="round" stroke-linejoin="round" stroke-width=".086" d="M186.134 351.044c.492-1.168 1.655-2.406 3.488-3.715a25.584 25.584 0 003.1-2.449 3.617 3.617 0 001.08-2.517 2.788 2.788 0 00-.62-1.855 2.522 2.522 0 00-2.061-.725 2.527 2.527 0 00-1.851 1.159 5.905 5.905 0 00-.387 2.16h-3.354c0-1.251.277-2.486.811-3.617.92-1.75 2.555-2.627 4.904-2.63a6.201 6.201 0 014.434 1.55 5.338 5.338 0 011.648 4.087 5.522 5.522 0 01-1.163 3.462 11.415 11.415 0 01-2.506 2.243l-1.379.982c-.869.615-1.458 1.033-1.778 1.333a3.996 3.996 0 00-.806.956h7.668v3.038h-12.039a8.179 8.179 0 01.811-3.462zm19.036 1.08a1.97 1.97 0 002.015-1.607c.373-1.521.535-3.086.48-4.651.061-1.582-.1-3.165-.48-4.702a1.949 1.949 0 00-2.015-1.524 1.987 1.987 0 00-2.036 1.524 16.38 16.38 0 00-.517 4.702 16.535 16.535 0 00.517 4.651 2.002 2.002 0 002.036 1.607zm6.056-6.237c0 2.897-.45 5.136-1.349 6.718-.899 1.581-2.468 2.363-4.707 2.345-2.239 0-3.807-.782-4.702-2.345-.896-1.564-1.347-3.804-1.354-6.718 0-2.9.451-5.139 1.354-6.717.902-1.578 2.469-2.365 4.702-2.362 2.235 0 3.804.788 4.707 2.362s1.352 3.813 1.349 6.717zm7.905-4.361a1.911 1.911 0 10-.558 1.364c.181-.177.323-.39.419-.625.096-.234.144-.486.139-.739zm-1.922 4.506a4.507 4.507 0 113.188-1.323 4.334 4.334 0 01-3.188 1.323zm11.771 2.382a1.922 1.922 0 101.364.563 1.88 1.88 0 00-1.364-.563zm0 6.433a4.508 4.508 0 01-4.42-3.627 4.499 4.499 0 01.446-3.003 4.5 4.5 0 015.282-2.187 4.508 4.508 0 013.175 4.755 4.508 4.508 0 01-1.3 2.745 4.347 4.347 0 01-3.183 1.317zm-1.927-17.909h1.844l-9.786 18.018h-1.881l9.823-18.018z"/><path fill="#E6E6E6" d="M214.476 438.158l13.522 51.259 7.565 10.541 13.016-10.303 10.061 12.344 9.74-7.859-7.4-10.531-2.516-1.778 13.574-10.742-7.575-10.738-49.987-22.193z"/><path fill="#fff" d="M207.268 427.643l21.087 61.81 13.011-10.335 10.065 12.366 9.756-7.849-9.936-12.304 13.553-10.752-57.536-32.936z"/></g><g fill-rule="evenodd" clip-path="url(#clip2)" clip-rule="evenodd"><path fill="#F96132" d="M74.963 99.566L280.34 84.953l12.573 10.255a13.42 13.42 0 013.942 4.725 13.39 13.39 0 011.416 5.986v138.423c0 3.501-3.677 6.343-8.236 6.343H74.964c-4.54 0-7.801-2.004-10.553-4.668-2.752-2.663-12.675-15.01-12.675-15.01l15.02-125.108c-.01-3.491 3.668-6.333 8.207-6.333z"/><path fill="#FF8D69" d="M59.236 83.224h215.071c4.54 0 8.237 2.842 8.237 6.348v138.433c0 3.501-3.678 6.343-8.237 6.343H59.237c-4.54 0-8.237-2.842-8.237-6.343V89.572c0-3.506 3.677-6.348 8.236-6.348z"/><path fill="#E24F0D" d="M282.781 88.594l-.107 137.29a16.44 16.44 0 01-.421 4.034 5.557 5.557 0 01-1.454 2.498l14.327 16.875s2.955-2.024 3.067-4.77c1.512-36.14-.116-139.895-.116-139.895 0-2.838-1.745-6.585-3.949-8.372l-14.211-11.505 2.864 3.845z"/><path fill="#FFAE96" d="M71.877 95.426h190.894a8.239 8.239 0 018.324 8.139v111.144a8.24 8.24 0 01-8.324 8.135H71.877a8.242 8.242 0 01-5.846-2.346 8.23 8.23 0 01-2.478-5.789V103.565a8.228 8.228 0 012.476-5.791 8.24 8.24 0 015.848-2.348z"/><path fill="#fff" d="M96.015 144.693c0-9.306 7.655-16.85 17.098-16.85 9.443 0 17.093 7.544 17.093 16.85 0 9.307-7.655 16.851-17.093 16.851-9.438 0-17.098-7.544-17.098-16.851z"/><path fill="#fff" d="M81.257 188.659l63.126.658s5.237-29.676-31.672-29.831c-32.675-.15-31.454 29.173-31.454 29.173zm89.25-61.668h67.404a4.993 4.993 0 014.991 4.987 4.993 4.993 0 01-4.991 4.988h-67.404a4.991 4.991 0 01-4.99-4.988 4.991 4.991 0 014.99-4.987zm.596 23.489h67.399a4.994 4.994 0 014.991 4.992 4.99 4.99 0 01-4.991 4.987h-67.399a4.991 4.991 0 01-4.99-4.987 4.993 4.993 0 014.99-4.992zm.596 24.089h67.399a4.992 4.992 0 014.995 4.987 4.996 4.996 0 01-4.995 4.992h-67.399a4.996 4.996 0 01-4.99-4.992 4.99 4.99 0 014.99-4.987z"/><path fill="#FB4F0D" d="M149.761 93.969l11.894 19.126s1.895 2.362 4.148 1.118c2.253-1.244 1.061-3.631 1.061-3.631l-7.859-20.337-9.244 3.724z"/><path fill="#F96132" d="M128.036 89.214c-3.75-9.268 3.561-20.966 16.332-26.147 12.772-5.181 26.164-1.835 29.918 7.432 3.755 9.268-3.556 20.966-16.332 26.147-12.776 5.181-26.149 1.835-29.918-7.432z"/><path fill="#FFC8B7" d="M124.78 83.587c-3.755-9.267 3.556-20.966 16.332-26.147 12.777-5.18 26.164-1.835 29.918 7.433 3.755 9.268-3.561 20.966-16.332 26.147-12.772 5.18-26.178 1.81-29.918-7.433z"/></g><defs><pattern id="pattern0" width="1" height="1" patternContentUnits="objectBoundingBox"><use transform="matrix(.00157 0 0 .00197 -.06 -.079)" xlink:href="#image0"/></pattern><clipPath id="clip0"><path fill="#fff" d="M0 0h200v198.438H0z" transform="translate(376 56)"/></clipPath><clipPath id="clip1"><path fill="#fff" d="M0 0h552v186.009H0z" transform="translate(44 316)"/></clipPath><clipPath id="clip2"><path fill="#fff" d="M0 0h247.813v195.69H0z" transform="translate(51 55)"/></clipPath></defs></svg>