<svg fill="none" viewBox="0 0 119 119"><rect width="119" height="119" fill="#F7A501" rx="8"/><g fill-rule="evenodd" clip-path="url(#clip0)" clip-rule="evenodd"><path fill="#F96132" d="M25.327 38.486l71.366-5.078 4.368 3.564a4.657 4.657 0 011.863 3.722v48.1c0 1.217-1.278 2.204-2.863 2.204H25.327c-1.578 0-2.71-.696-3.667-1.622-.956-.925-4.404-5.216-4.404-5.216l5.219-43.473c-.003-1.213 1.274-2.2 2.852-2.2z"/><path fill="#FF8D69" d="M19.862 32.807h74.735c1.577 0 2.862.988 2.862 2.206v48.104c0 1.217-1.278 2.204-2.862 2.204H19.862c-1.577 0-2.862-.987-2.862-2.204V35.013c0-1.218 1.278-2.206 2.862-2.206z"/><path fill="#E24F0D" d="M97.541 34.673l-.037 47.707c.01.472-.04.943-.146 1.402a1.933 1.933 0 01-.505.868l4.978 5.864s1.027-.704 1.066-1.658c.525-12.558-.041-48.612-.041-48.612 0-.986-.606-2.288-1.372-2.909l-4.938-3.998.995 1.336z"/><path fill="#FFAE96" d="M24.255 37.048H90.59a2.863 2.863 0 012.892 2.828v38.621a2.86 2.86 0 01-2.892 2.827H24.255a2.863 2.863 0 01-2.892-2.827V39.876a2.86 2.86 0 012.892-2.828z"/><path fill="#fff" d="M32.643 54.167c0-3.233 2.66-5.855 5.941-5.855 3.281 0 5.94 2.622 5.94 5.855 0 3.234-2.66 5.856-5.94 5.856-3.28 0-5.941-2.622-5.941-5.856z"/><path fill="#fff" d="M27.515 69.445l21.935.229s1.82-10.313-11.006-10.367c-11.354-.052-10.93 10.138-10.93 10.138zm31.013-21.429H81.95a1.735 1.735 0 011.226 2.959 1.735 1.735 0 01-1.226.507H58.528a1.735 1.735 0 01-1.226-2.958 1.735 1.735 0 011.226-.508zm.207 8.162h23.42a1.736 1.736 0 011.734 1.735 1.732 1.732 0 01-1.734 1.733h-23.42a1.735 1.735 0 110-3.468zm.207 8.37h23.42a1.736 1.736 0 011.736 1.734 1.736 1.736 0 01-1.736 1.734h-23.42a1.736 1.736 0 01-1.227-2.96 1.735 1.735 0 011.227-.507z"/><path fill="#FB4F0D" d="M51.318 36.541l4.134 6.646s.658.821 1.44.389c.784-.433.37-1.262.37-1.262l-2.731-7.067-3.213 1.294z"/><path fill="#F96132" d="M43.769 34.889c-1.303-3.22 1.237-7.286 5.675-9.086 4.438-1.8 9.092-.638 10.396 2.583 1.305 3.22-1.235 7.285-5.675 9.085-4.44 1.8-9.086.638-10.396-2.582z"/><path fill="#FFC8B7" d="M42.638 32.934c-1.305-3.22 1.235-7.286 5.675-9.086 4.44-1.8 9.091-.638 10.396 2.583 1.305 3.22-1.237 7.285-5.675 9.085-4.438 1.8-9.097.63-10.396-2.582z"/></g><defs><clipPath id="clip0"><path fill="#fff" d="M0 0h86.112v68H0z" transform="translate(17 23)"/></clipPath></defs></svg>