<svg xmlns="http://www.w3.org/2000/svg" width="231" height="292" fill="none" viewBox="0 0 231 292"><path fill="#F7A501" d="M189.756 20.5H41.7791C30.7351 20.5 21.7822 29.4543 21.7822 40.5V251.5C21.7822 262.546 30.7351 271.5 41.7791 271.5H189.756C200.8 271.5 209.753 262.546 209.753 251.5V40.5C209.753 29.4543 200.8 20.5 189.756 20.5Z"/><path fill="#F96132" fill-rule="evenodd" d="M43.9189 103.38L190.826 92.9299L199.825 100.26C201.015 101.153 201.981 102.311 202.645 103.643C203.31 104.974 203.655 106.442 203.654 107.93V206.93C203.654 209.43 201.025 211.46 197.765 211.46H43.9189C42.4999 211.445 41.0989 211.141 39.8012 210.566C38.5034 209.992 37.3359 209.16 36.3701 208.12C34.3704 206.22 27.3115 197.39 27.3115 197.39L38.0499 107.88C38.0499 105.41 40.6794 103.38 43.9189 103.38Z" clip-rule="evenodd"/><path fill="#FF8D69" fill-rule="evenodd" d="M32.6708 91.6899H186.517C189.767 91.6899 192.406 93.6899 192.406 96.2299V195.23C192.406 197.73 189.777 199.77 186.517 199.77H32.6708C29.4213 199.77 26.7817 197.77 26.7817 195.23V96.2299C26.7817 93.7199 29.4113 91.6899 32.6708 91.6899Z" clip-rule="evenodd"/><path fill="#E24F0D" fill-rule="evenodd" d="M192.576 95.53L192.496 193.75C192.516 194.722 192.416 195.693 192.196 196.64C192.025 197.311 191.681 197.925 191.196 198.42L201.445 210.5C201.445 210.5 203.564 209.05 203.644 207.08C204.724 181.23 203.554 107 203.554 107C203.445 104.706 202.431 102.548 200.735 101L190.566 92.77L192.576 95.53Z" clip-rule="evenodd"/><path fill="#FFAE96" fill-rule="evenodd" d="M41.7193 100.42H178.268C179.045 100.405 179.817 100.545 180.539 100.83C181.262 101.115 181.921 101.54 182.479 102.081C183.036 102.622 183.482 103.268 183.789 103.982C184.095 104.696 184.258 105.463 184.267 106.24V185.76C184.258 186.537 184.095 187.304 183.789 188.018C183.482 188.732 183.036 189.378 182.479 189.919C181.921 190.46 181.262 190.885 180.539 191.17C179.817 191.455 179.045 191.595 178.268 191.58H41.7193C40.9426 191.595 40.1706 191.455 39.4479 191.17C38.7252 190.885 38.0661 190.46 37.5085 189.919C36.9509 189.378 36.5058 188.732 36.1989 188.018C35.892 187.304 35.7293 186.537 35.7202 185.76V106.24C35.7293 105.463 35.892 104.696 36.1989 103.982C36.5058 103.268 36.9509 102.622 37.5085 102.081C38.0661 101.54 38.7252 101.115 39.4479 100.83C40.1706 100.545 40.9426 100.405 41.7193 100.42V100.42Z" clip-rule="evenodd"/><path fill="#fff" fill-rule="evenodd" d="M58.9867 135.67C58.951 133.244 59.6378 130.862 60.9595 128.827C62.2813 126.792 64.1782 125.197 66.4092 124.243C68.6403 123.29 71.1045 123.022 73.4882 123.473C75.872 123.925 78.0676 125.075 79.7957 126.778C81.5239 128.481 82.7066 130.66 83.1932 133.037C83.6798 135.414 83.4483 137.882 82.5284 140.128C81.6084 142.373 80.0413 144.294 78.0267 145.646C76.0121 146.998 73.641 147.72 71.2149 147.72C69.6209 147.732 68.0401 147.43 66.5629 146.83C65.0857 146.231 63.7409 145.347 62.6054 144.228C61.4699 143.109 60.5659 141.777 59.945 140.309C59.3241 138.841 58.9984 137.264 58.9867 135.67V135.67Z" clip-rule="evenodd"/><path fill="#fff" fill-rule="evenodd" d="M48.4281 167.14L93.5812 167.61C93.5812 167.61 97.3306 146.38 70.9247 146.27C47.5483 146.14 48.4281 167.14 48.4281 167.14Z" clip-rule="evenodd"/><path fill="#fff" fill-rule="evenodd" d="M112.278 123H160.491C161.438 123 162.346 123.376 163.015 124.046C163.684 124.715 164.06 125.623 164.06 126.57C164.06 127.517 163.684 128.425 163.015 129.094C162.346 129.764 161.438 130.14 160.491 130.14H112.278C111.81 130.14 111.345 130.048 110.912 129.868C110.479 129.689 110.086 129.426 109.754 129.094C109.423 128.763 109.16 128.369 108.981 127.936C108.801 127.503 108.709 127.039 108.709 126.57C108.709 126.101 108.801 125.637 108.981 125.204C109.16 124.771 109.423 124.377 109.754 124.046C110.086 123.714 110.479 123.451 110.912 123.272C111.345 123.092 111.81 123 112.278 123Z" clip-rule="evenodd"/><path fill="#fff" fill-rule="evenodd" d="M112.689 139.81H160.901C161.385 139.784 161.869 139.858 162.324 140.025C162.779 140.193 163.194 140.451 163.546 140.785C163.898 141.118 164.178 141.52 164.369 141.965C164.561 142.411 164.659 142.89 164.659 143.375C164.659 143.86 164.561 144.339 164.369 144.785C164.178 145.23 163.898 145.632 163.546 145.965C163.194 146.299 162.779 146.557 162.324 146.725C161.869 146.892 161.385 146.966 160.901 146.94H112.689C112.205 146.966 111.72 146.892 111.266 146.725C110.811 146.557 110.395 146.299 110.043 145.965C109.692 145.632 109.412 145.23 109.22 144.785C109.029 144.339 108.93 143.86 108.93 143.375C108.93 142.89 109.029 142.411 109.22 141.965C109.412 141.52 109.692 141.118 110.043 140.785C110.395 140.451 110.811 140.193 111.266 140.025C111.72 139.858 112.205 139.784 112.689 139.81V139.81Z" clip-rule="evenodd"/><path fill="#fff" fill-rule="evenodd" d="M113.118 157.04H161.331C162.278 157.04 163.185 157.416 163.855 158.086C164.524 158.755 164.9 159.663 164.9 160.61C164.9 161.557 164.524 162.465 163.855 163.134C163.185 163.804 162.278 164.18 161.331 164.18H113.118C112.172 164.18 111.264 163.804 110.594 163.134C109.925 162.465 109.549 161.557 109.549 160.61C109.549 159.663 109.925 158.755 110.594 158.086C111.264 157.416 112.172 157.04 113.118 157.04V157.04Z" clip-rule="evenodd"/><path fill="#FB4F0D" fill-rule="evenodd" d="M97.4307 99.3799L105.929 113.06C105.929 113.06 107.289 114.75 108.929 113.86C109.359 113.601 109.675 113.19 109.816 112.708C109.957 112.227 109.911 111.71 109.689 111.26L104.07 96.71L97.4307 99.3799Z" clip-rule="evenodd"/><path fill="#F96132" fill-rule="evenodd" d="M81.8834 95.98C79.2038 89.34 84.433 80.98 93.5716 77.27C102.71 73.56 112.279 75.96 114.968 82.59C117.658 89.22 112.429 97.59 103.29 101.29C94.1515 104.99 84.5829 102.61 81.8834 95.98Z" clip-rule="evenodd"/><path fill="#FFC8B7" fill-rule="evenodd" d="M79.5538 91.95C76.8742 85.32 82.1033 76.95 91.2419 73.24C100.38 69.53 109.959 71.93 112.639 78.56C115.318 85.19 110.089 93.56 100.96 97.27C91.8319 100.98 82.2833 98.56 79.5538 91.95Z" clip-rule="evenodd"/></svg>