<svg xmlns:xlink="http://www.w3.org/1999/xlink" fill="none" viewBox="0 0 346 337"><path fill="url(#pattern0)" d="M0 0h346v337H0z"/><g fill-rule="evenodd" clip-path="url(#clip0)" clip-rule="evenodd"><path fill="#F96132" d="M48.262 67.804l105.088-7.478 6.433 5.248a6.861 6.861 0 012.742 5.48v70.83c0 1.791-1.881 3.246-4.214 3.246H48.261c-2.322 0-3.99-1.026-5.399-2.389-1.408-1.362-6.485-7.68-6.485-7.68l7.685-64.017c-.005-1.786 1.877-3.24 4.2-3.24z"/><path fill="#FF8D69" d="M40.215 59.442h110.048c2.323 0 4.215 1.454 4.215 3.248v70.835c0 1.791-1.882 3.245-4.215 3.245H40.214c-2.322 0-4.214-1.454-4.214-3.245V62.69c0-1.794 1.882-3.248 4.215-3.248z"/><path fill="#E24F0D" d="M154.599 62.19l-.054 70.25a8.422 8.422 0 01-.216 2.063 2.837 2.837 0 01-.744 1.279l7.331 8.634s1.512-1.035 1.57-2.44c.773-18.493-.06-71.583-.06-71.583 0-1.452-.892-3.37-2.02-4.284l-7.272-5.886 1.465 1.967z"/><path fill="#FFAE96" d="M46.682 65.686h97.679a4.216 4.216 0 014.259 4.164v56.871a4.22 4.22 0 01-4.259 4.163H46.683a4.218 4.218 0 01-4.26-4.163v-56.87a4.21 4.21 0 014.26-4.165z"/><path fill="#fff" d="M59.034 90.895c0-4.762 3.917-8.622 8.748-8.622 4.832 0 8.747 3.86 8.747 8.622 0 4.762-3.917 8.622-8.746 8.622-4.83 0-8.75-3.86-8.75-8.622z"/><path fill="#fff" d="M51.482 113.392l32.3.337s2.68-15.186-16.205-15.265c-16.72-.077-16.095 14.928-16.095 14.928zM97.15 81.837h34.49a2.556 2.556 0 012.554 2.552 2.55 2.55 0 01-2.554 2.552H97.15a2.554 2.554 0 01-2.553-2.552 2.55 2.55 0 012.553-2.552zm.305 12.019h34.488a2.556 2.556 0 012.553 2.554 2.55 2.55 0 01-2.553 2.552H97.455a2.554 2.554 0 01-2.553-2.552 2.553 2.553 0 012.553-2.554zm.305 12.326h34.487a2.553 2.553 0 012.556 2.552 2.553 2.553 0 01-2.556 2.554H97.76a2.554 2.554 0 01-2.553-2.554 2.553 2.553 0 012.553-2.552z"/><path fill="#FB4F0D" d="M86.535 64.94l6.086 9.786s.97 1.21 2.122.573c1.153-.637.543-1.859.543-1.859l-4.021-10.406-4.73 1.906z"/><path fill="#F96132" d="M75.418 62.507c-1.919-4.742 1.822-10.728 8.357-13.38 6.535-2.65 13.388-.938 15.31 3.804 1.92 4.742-1.82 10.728-8.358 13.379-6.538 2.65-13.38.939-15.309-3.803z"/><path fill="#FFC8B7" d="M73.752 59.628c-1.921-4.742 1.82-10.728 8.358-13.38 6.537-2.65 13.387-.938 15.308 3.804 1.921 4.742-1.822 10.728-8.357 13.379-6.535 2.651-13.395.927-15.309-3.803z"/></g><g clip-path="url(#clip1)"><path fill="#E24F0D" fill-rule="evenodd" d="M211.205 47.905c7.005 3.143 6.478 5.913 6.478 6.914v93.175c0 1-.597 1.813-1.333 1.813h-5.186c-.747 0-1.336-.813-1.336-1.813V54.82c0-1.011-.166-7.617 1.377-6.915z" clip-rule="evenodd"/><path fill="#E24F0D" fill-rule="evenodd" d="M306.989 143.165v5.186c0 .747-.809 1.338-1.81 1.34l-93.152.123c-1.001 0-1.891.374-4.215-1.801-1.75-1.639-3.328-4.111-3.328-4.111 0-.739 6.538-1.938 7.532-1.938l88.349-5.148c7.214 4.849 6.622 5.611 6.624 6.349z" clip-rule="evenodd"/><path fill="#FF8D69" fill-rule="evenodd" d="M205.446 47.756h5.178c.748 0 1.336.811 1.336 1.813v93.183c0 1-.598 1.813-1.336 1.813h-5.185c-.748 0-1.336-.813-1.336-1.813V49.569c.007-1.002.605-1.813 1.343-1.813z" clip-rule="evenodd"/><path fill="#FF8D69" fill-rule="evenodd" d="M301.273 137.924v5.187c0 .736-.811 1.336-1.813 1.338l-93.151.123c-1.002 0-1.814-.594-1.814-1.332v-5.187c0-.738.809-1.336 1.81-1.338l93.154-.126c1.001 0 1.812.597 1.814 1.335z" clip-rule="evenodd"/><path fill="#E24F0D" fill-rule="evenodd" d="M216.593 116.708h14.615v19.883h-14.615v-19.883z" clip-rule="evenodd"/><path fill="#E24F0D" fill-rule="evenodd" d="M230.816 105.121h14.616v31.495h-14.616v-31.495z" clip-rule="evenodd"/><path fill="#E24F0D" fill-rule="evenodd" d="M245.273 92.63h14.616v44.038h-14.616V92.63z" clip-rule="evenodd"/><path fill="#E24F0D" fill-rule="evenodd" d="M259.82 80.822h14.616v55.805H259.82V80.822z" clip-rule="evenodd"/><path fill="#E24F0D" fill-rule="evenodd" d="M274.269 68.975l7.609-6.65 7.007 6.65v67.628h-14.616V68.975z" clip-rule="evenodd"/><path stroke="#E24F0D" stroke-dasharray="2.01 2.01" stroke-linecap="round" stroke-linejoin="round" stroke-width=".804" d="M259.93 91.32l.114 38.697"/><path fill="#FF8D69" fill-rule="evenodd" d="M209.862 116.015h14.618v22.406h-14.618v-22.406z" clip-rule="evenodd"/><path fill="#FF8D69" fill-rule="evenodd" d="M224.085 102.957h14.616v35.49h-14.616v-35.49z" clip-rule="evenodd"/><path fill="#FF8D69" fill-rule="evenodd" d="M238.542 88.882h14.616v49.619h-14.616V88.882z" clip-rule="evenodd"/><path fill="#FF8D69" fill-rule="evenodd" d="M253.089 75.577h14.616v62.883h-14.616V75.577z" clip-rule="evenodd"/><path fill="#FF8D69" fill-rule="evenodd" d="M267.539 62.225h14.615v76.209h-14.615V62.225z" clip-rule="evenodd"/><path stroke="#E24F0D" stroke-dasharray="2.01 2.01" stroke-linecap="round" stroke-linejoin="round" stroke-width=".804" d="M212.145 116.331l.113 19.829m11.911-19.692l.114 19.09m14.336-32.34l.114 33.02m28.849-60.16l.114 59.985M253.27 88.957l.114 46.978"/><path stroke="#E24F0D" stroke-linecap="round" stroke-linejoin="round" stroke-width=".804" d="M212.376 136.042l72.556.374"/><path fill="#FFB59E" fill-rule="evenodd" d="M215.128 116.781h6.482a1.673 1.673 0 011.172.5 1.67 1.67 0 01.476 1.182v14.449a1.659 1.659 0 01-.475 1.183 1.675 1.675 0 01-1.173.499h-6.482a1.654 1.654 0 01-1.173-.499 1.683 1.683 0 01-.475-1.183v-14.451a1.666 1.666 0 011.648-1.68zm11.75-12.406h8.78a1.774 1.774 0 011.767 1.781v26.853a1.768 1.768 0 01-.512 1.262 1.765 1.765 0 01-1.255.528h-8.78a1.773 1.773 0 01-1.767-1.781v-26.862a1.775 1.775 0 011.767-1.781zm14.745-14.16h8.651c.897 0 1.623.788 1.623 1.76v40.642c0 .973-.726 1.762-1.623 1.762h-8.651c-.897 0-1.623-.789-1.623-1.762V91.975c0-.972.726-1.76 1.623-1.76zm14.425-13.285h8.724a1.753 1.753 0 011.735 1.771v54.005a1.742 1.742 0 01-.5 1.246 1.738 1.738 0 01-1.235.526h-8.724a1.755 1.755 0 01-1.609-1.099 1.742 1.742 0 01-.126-.673V78.701a1.75 1.75 0 011.735-1.771zm14.595-13.395h8.713a1.756 1.756 0 011.734 1.781v67.157a1.76 1.76 0 01-1.734 1.781h-8.713a1.768 1.768 0 01-1.236-.531 1.772 1.772 0 01-.499-1.25V65.316a1.77 1.77 0 01.499-1.25 1.756 1.756 0 011.236-.53z" clip-rule="evenodd"/></g><g fill-rule="evenodd" clip-path="url(#clip2)" clip-rule="evenodd"><path fill="#F7A501" d="M26.682 247.333h297.301v12.268H26.682l-6.545-6.631 6.545-5.637z"/><path fill="#C8C8C8" d="M100.744 252.524c0-4.869 4.081-8.822 9.106-8.822 1.602 0 3.97-2.123 3.97-2.123l4.96 10.623-.057.817s.242-.177.233-.02c-.25 4.653-4.228 8.352-9.106 8.352-5.025-.006-9.106-3.955-9.106-8.827z"/><path fill="#F9CC69" d="M20.125 240.714h297.299v12.276H20.125v-12.276z"/><path fill="#F78A01" d="M317.381 240.646l.08 12.305 6.545 6.576v-12.359l-6.625-6.522z"/><path fill="#E2E2E2" d="M20.134 240.705l83.973-.057.026 12.553H20.04l.094-12.496z"/><path fill="#C8C8C8" d="M20 252.888l7.017 7.399 83.325-.532-6.26-6.671L20 252.888z"/><path fill="#F9CC69" stroke="#E2E2E2" stroke-linecap="round" stroke-linejoin="round" stroke-width="5.932" d="M100.971 245.788a6.5 6.5 0 116.5 6.366 6.435 6.435 0 01-6.5-6.366z"/><path fill="#C8C8C8" d="M101.031 226.975h9.106l.814 3.938 6.215 4.938 7.234-8.876h8.665a2.277 2.277 0 002.277-2.277v-29.527c0-1.258-2.015-2.985-2.015-2.985l-5.156-3.748-27.151 4.457a2.276 2.276 0 00-2.277 2.276l-5.962 25.694s3.663 3.998 4.554 4.61c2.128 1.471 2.436 1.5 3.696 1.5z"/><path fill="#E6E6E6" d="M94.768 222.095h9.106l7.029 8.875 7.237-8.875h8.665a2.274 2.274 0 002.276-2.277v-29.527a2.277 2.277 0 00-2.276-2.277H94.768a2.276 2.276 0 00-2.277 2.277v29.527a2.277 2.277 0 002.277 2.277z"/><path fill="#454545" stroke="#454545" stroke-linecap="round" stroke-linejoin="round" stroke-width=".047" d="M98.276 207.3c.272-.643.912-1.325 1.921-2.046a14.141 14.141 0 001.708-1.349c.372-.366.586-.864.595-1.386a1.535 1.535 0 00-.342-1.022 1.387 1.387 0 00-2.154.239 3.25 3.25 0 00-.214 1.19h-1.846c0-.689.152-1.369.446-1.992.507-.964 1.407-1.447 2.701-1.449a3.419 3.419 0 012.442.854 2.944 2.944 0 01.907 2.251 3.04 3.04 0 01-.64 1.907 6.34 6.34 0 01-1.38 1.235l-.76.54c-.478.339-.802.57-.979.735a2.22 2.22 0 00-.444.526h4.223v1.673h-6.63a4.51 4.51 0 01.447-1.906zm10.484.594a1.084 1.084 0 001.11-.885 9.434 9.434 0 00.265-2.561 9.326 9.326 0 00-.265-2.589 1.071 1.071 0 00-1.11-.84 1.093 1.093 0 00-1.121.84 9.005 9.005 0 00-.285 2.589 9.094 9.094 0 00.285 2.561 1.107 1.107 0 001.121.885zm3.335-3.434c0 1.595-.247 2.828-.742 3.699-.496.871-1.36 1.302-2.593 1.292-1.233 0-2.096-.431-2.59-1.292-.493-.861-.741-2.094-.745-3.699 0-1.598.248-2.831.745-3.7.498-.869 1.361-1.302 2.59-1.3 1.231 0 2.095.433 2.593 1.3.497.867.744 2.1.742 3.7zm4.354-2.402a1.053 1.053 0 10-2.104.016 1.053 1.053 0 002.104-.016zm-1.058 2.481a2.484 2.484 0 01-2.435-1.996 2.486 2.486 0 011.483-2.777 2.484 2.484 0 013.421 2.533 2.481 2.481 0 01-.714 1.512 2.382 2.382 0 01-1.755.728zm6.482 1.312a1.06 1.06 0 00-.93 1.559 1.056 1.056 0 001.986-.604 1.062 1.062 0 00-1.056-.955zm0 3.543a2.48 2.48 0 111.753-.726 2.385 2.385 0 01-1.753.726zm-1.061-9.863h1.016l-5.39 9.923h-1.036l5.41-9.923z"/><path fill="#E6E6E6" d="M113.885 255.276l7.447 28.229 4.166 5.805 7.169-5.674 5.54 6.798 5.364-4.328-4.075-5.8-1.385-.979 7.475-5.916-4.172-5.913-27.529-12.222z"/><path fill="#fff" d="M109.915 249.484l11.614 34.041 7.165-5.692 5.544 6.81 5.372-4.322-5.472-6.776 7.464-5.922-31.687-18.139z"/></g><defs><pattern id="pattern0" width="1" height="1" patternContentUnits="objectBoundingBox"><use transform="translate(-.06 -.062) scale(.00042)" xlink:href="#image0"/></pattern><clipPath id="clip0"><path fill="#fff" d="M0 0h126.803v100.132H0z" transform="translate(36 45)"/></clipPath><clipPath id="clip1"><path fill="#fff" d="M0 0h102.888v102.084H0z" transform="translate(204.112 47.756)"/></clipPath><clipPath id="clip2"><path fill="#fff" d="M0 0h304v102.44H0z" transform="translate(20 188)"/></clipPath></defs></svg>