<svg xmlns:xlink="http://www.w3.org/1999/xlink" fill="none" viewBox="0 0 348 343"><rect width="348" height="342.465" fill="#F96132" rx="45.998"/><g clip-path="url(#clip0)"><path fill="url(#pattern0)" d="M79.982 37h205.131v201.386H79.982z"/><path fill="url(#pattern1)" d="M57.463 225.711h248.761v99.637H57.463z"/><path fill="#D3E7FF" fill-rule="evenodd" d="M117.279 69.919h131.277a3.412 3.412 0 013.413 3.415V194.13a3.416 3.416 0 01-3.413 3.415H117.279a3.41 3.41 0 01-3.413-3.415V73.334a3.416 3.416 0 013.413-3.415z" clip-rule="evenodd"/><path fill="#222A46" fill-rule="evenodd" d="M121.219 76.96h27.92a3.411 3.411 0 013.413 3.415V189.29a3.416 3.416 0 01-3.413 3.415h-27.92a3.416 3.416 0 01-3.413-3.415V80.375a3.417 3.417 0 013.413-3.415z" clip-rule="evenodd"/><path fill="#4D5F9C" fill-rule="evenodd" d="M163.442 80.921h55.188a3.412 3.412 0 013.413 3.415v2.852a3.416 3.416 0 01-3.413 3.415h-55.188a3.411 3.411 0 01-3.413-3.415v-2.852a3.408 3.408 0 011-2.415 3.403 3.403 0 012.413-1zm3.642 17.164h73.484c2.682 0 4.853 1.528 4.853 3.415v37.619c0 1.887-2.171 3.415-4.853 3.415h-73.484c-2.682 0-4.856-1.528-4.856-3.415V101.5c0-1.887 2.174-3.415 4.856-3.415zm.316 51.49h74.981a3.423 3.423 0 012.413 1.001 3.414 3.414 0 011 2.415v36.298a3.424 3.424 0 01-1 2.415 3.423 3.423 0 01-1.107.741 3.422 3.422 0 01-1.306.259H167.4a3.416 3.416 0 01-3.413-3.415v-36.298a3.416 3.416 0 013.413-3.416z" clip-rule="evenodd"/><path fill="#222A46" fill-rule="evenodd" d="M78.662 254.976a7.703 7.703 0 019.202-7.555 7.7 7.7 0 015.608 10.505 7.693 7.693 0 01-10.06 4.167 7.706 7.706 0 01-4.75-7.117zm98.372-4.62h96.908c2.67 0 4.838 1.194 4.838 2.666v4.626c0 1.472-2.168 2.665-4.838 2.665h-96.908c-2.671 0-4.834-1.193-4.834-2.665v-4.626c0-1.472 2.163-2.666 4.834-2.666zm-.88 17.164h96.908c2.671 0 4.838 1.194 4.838 2.665v4.627c0 1.471-2.167 2.665-4.838 2.665h-96.908c-2.67 0-4.834-1.194-4.834-2.665v-4.627c0-1.471 2.164-2.665 4.834-2.665zm0 18.044h96.908c2.671 0 4.838 1.193 4.838 2.665v4.626c0 1.472-2.167 2.665-4.838 2.665h-96.908c-2.67 0-4.834-1.193-4.834-2.665v-4.626c0-1.472 2.164-2.665 4.834-2.665z" clip-rule="evenodd"/><path fill="#7B99FF" fill-rule="evenodd" d="M171.359 105.566h28.359a3.423 3.423 0 012.414 1.001 3.411 3.411 0 01.999 2.414v22.656a3.405 3.405 0 01-.999 2.415 3.409 3.409 0 01-2.414 1h-28.359a3.4 3.4 0 01-1.306-.26 3.398 3.398 0 01-1.848-1.848 3.423 3.423 0 01-.259-1.307v-22.656a3.422 3.422 0 01.999-2.414 3.401 3.401 0 012.414-1.001z" clip-rule="evenodd"/><path fill="#F7A501" fill-rule="evenodd" d="M128.679 238.231c.078-.006.157-.006.235 0 0 0-52.957 74.224-55.079 74.242-2.463.021-3.582-1.338-3.589-3.074l-.243-67.091a4.035 4.035 0 011.174-2.857 4.03 4.03 0 012.852-1.185l54.65-.035z" clip-rule="evenodd"/><path fill="#FFC44E" fill-rule="evenodd" d="M79.77 255.014a8.098 8.098 0 015.09-7.382 8.085 8.085 0 018.773 1.842 8.101 8.101 0 01-1.288 12.42 8.093 8.093 0 01-4.481 1.355 8.158 8.158 0 01-5.75-2.44 8.173 8.173 0 01-2.343-5.795z" clip-rule="evenodd" opacity=".83"/><path fill="#F7A501" fill-rule="evenodd" d="M98.363 49.594h168.454a5.627 5.627 0 013.782 1.45c1.123 1.018-132.533 174.629-132.533 174.629H98.363a5.582 5.582 0 01-5.63-5.553V55.146A5.588 5.588 0 0196.22 50a5.578 5.578 0 012.144-.407z" clip-rule="evenodd"/><path fill="#FFE6B2" fill-rule="evenodd" d="M115.815 69.36h133.233a2.902 2.902 0 012.9 2.901v4.333l-91.835 120.913h-44.298a2.887 2.887 0 01-2.05-.848 2.902 2.902 0 01-.849-2.05V72.26a2.9 2.9 0 012.899-2.9z" clip-rule="evenodd"/><path fill="#F7C455" fill-rule="evenodd" d="M120.466 77.136h28.979a2.815 2.815 0 012.815 2.817v109.805a2.819 2.819 0 01-2.815 2.816h-28.979a2.815 2.815 0 01-2.814-2.816V79.953a2.816 2.816 0 012.814-2.817z" clip-rule="evenodd"/><path fill="#F9CC69" fill-rule="evenodd" d="M165.17 80.9h57.683a2.814 2.814 0 012.814 2.817v6.305a2.816 2.816 0 01-2.814 2.817H165.17a2.815 2.815 0 01-2.815-2.817v-6.305a2.816 2.816 0 012.815-2.817zm1.988 17.417l68.657-.289-33.926 44.502-34.731.064a2.816 2.816 0 01-2.815-2.817V101.13a2.816 2.816 0 012.815-2.813zm-.834 51.16l30.259.095-31.804 41.876s-1.453-.86-1.439-2.338l.176-36.88a2.78 2.78 0 012.808-2.753z" clip-rule="evenodd"/><path fill="#FFECC2" fill-rule="evenodd" d="M173.224 105.14h26.368a2.815 2.815 0 012.814 2.817v25.082a2.815 2.815 0 01-2.814 2.816h-26.368a2.816 2.816 0 01-2.815-2.816v-25.082a2.817 2.817 0 012.815-2.817z" clip-rule="evenodd"/><path fill="url(#pattern2)" d="M17 69.039h121.038v86.61H17z"/><path fill="#E5F1FF" fill-rule="evenodd" d="M331.185 129.173h-78.323a2.815 2.815 0 00-2.815 2.816v19.241l-11.628 6.739 11.628 8.115v21.184a2.818 2.818 0 002.815 2.817h78.323a2.818 2.818 0 002.815-2.817v-55.275a2.832 2.832 0 00-.823-1.994 2.805 2.805 0 00-1.992-.826z" clip-rule="evenodd"/><path fill="#769FD1" fill-rule="evenodd" d="M310.018 155.026h-6.865a.733.733 0 00-.732.732v20.42a.736.736 0 00.732.736h6.865a.734.734 0 00.731-.736v-20.42a.733.733 0 00-.731-.732zm9.957 11.083h-6.865c-.404 0-.732.162-.732.352v9.999c0 .2.328.352.732.352h6.865c.405 0 .732-.159.732-.352v-9.999c0-.19-.327-.352-.732-.352zm-20.182-9.341h-6.862a.697.697 0 00-.507.184.699.699 0 00-.228.489v18.691a.706.706 0 00.735.673h6.862a.704.704 0 00.732-.673v-18.691a.706.706 0 00-.732-.673zm-10.457-6.157h-6.862a.814.814 0 00-.731.88v24.434a.817.817 0 00.731.88h6.862a.817.817 0 00.731-.88v-24.434a.814.814 0 00-.731-.88zm-10.479-8.57h-6.861c-.405 0-.732.528-.732 1.176v32.796c0 .651.327 1.179.732 1.179h6.861c.405 0 .736-.528.736-1.179v-32.796c0-.648-.331-1.176-.736-1.176z" clip-rule="evenodd"/><path stroke="#6C8BB1" stroke-linecap="round" stroke-linejoin="round" stroke-width="2.438" d="M264.653 140.643l.039 36.398 57.44.031"/><path fill="#FFBD38" fill-rule="evenodd" d="M62.39 105.031h6.86a.736.736 0 01.736.732v20.421a.739.739 0 01-.736.736h-6.86a.735.735 0 01-.733-.736v-20.421a.73.73 0 01.732-.732zm-9.951 5.718h6.86c.406 0 .736.243.736.538v15.006c0 .299-.33.539-.735.539h-6.861c-.405 0-.732-.24-.732-.539v-15.006c0-.295.327-.538.732-.538zm20.179-9.393h6.864a.8.8 0 01.732.852v23.75a.802.802 0 01-.732.852h-6.864a.8.8 0 01-.732-.852v-23.75a.801.801 0 01.732-.852zm10.446-3.8h6.865c.404 0 .732.44.732.983v27.286c0 .542-.328.982-.732.982h-6.865c-.404 0-.732-.44-.732-.982V98.543c0-.543.328-.986.732-.986zm10.489-5.51h6.865c.404 0 .731.529.731 1.177v32.795c0 .652-.327 1.18-.731 1.18h-6.865c-.405 0-.732-.528-.732-1.18V93.223c0-.648.327-1.176.732-1.176z" clip-rule="evenodd"/><path stroke="#F7A501" stroke-linecap="round" stroke-linejoin="round" stroke-width="2.438" d="M45.096 90.649l.052 36.397 57.441.032"/></g><defs><pattern id="pattern0" width="1" height="1" patternContentUnits="objectBoundingBox"><use transform="scale(.00172)" xlink:href="#image0"/></pattern><pattern id="pattern1" width="1" height="1" patternContentUnits="objectBoundingBox"><use transform="scale(.00141 .00353)" xlink:href="#image1"/></pattern><pattern id="pattern2" width="1" height="1" patternContentUnits="objectBoundingBox"><use transform="scale(.0029 .00407)" xlink:href="#image2"/></pattern><clipPath id="clip0"><path fill="#fff" d="M0 0h317v288.348H0z" transform="translate(17 37)"/></clipPath></defs></svg>