<svg fill="none" viewBox="0 0 324 167"><path fill="#F96132" fill-rule="evenodd" d="M236.368 18h26.382a1.184 1.184 0 011.188 1.176v145.776a1.173 1.173 0 01-.735 1.088 1.175 1.175 0 01-.453.088h-26.382a1.177 1.177 0 01-.839-.342 1.183 1.183 0 01-.35-.834V19.176a1.19 1.19 0 01.35-.834 1.188 1.188 0 01.839-.342z" clip-rule="evenodd"/><path fill="#F96132" fill-rule="evenodd" d="M209.563 39.758h26.382c.657 0 1.189.447 1.189 1.005v124.47c0 .555-.532 1.004-1.189 1.004h-26.382c-.657 0-1.188-.446-1.188-1.004V40.763c0-.554.531-1.005 1.188-1.005z" clip-rule="evenodd"/><path fill="#F96132" fill-rule="evenodd" d="M182.479 57.89h26.382c.657 0 1.189.387 1.189.862v106.583c0 .476-.532.862-1.189.862h-26.382c-.657 0-1.188-.386-1.188-.862V58.752c0-.475.531-.861 1.188-.861z" clip-rule="evenodd"/><path fill="#F96132" fill-rule="evenodd" d="M156.512 79.091h26.382c.657 0 1.188.31 1.188.692v85.695c0 .382-.531.692-1.188.692h-26.382c-.657 0-1.189-.31-1.189-.692V79.783c0-.382.532-.692 1.189-.692z" clip-rule="evenodd"/><path fill="#F96132" fill-rule="evenodd" d="M128.59 100.571h26.382c.657 0 1.189.223 1.189.522v64.693c0 .288-.532.522-1.189.522H128.59c-.657 0-1.189-.234-1.189-.522v-64.693c0-.288.532-.522 1.189-.522z" clip-rule="evenodd"/><path fill="#F96132" fill-rule="evenodd" d="M100.11 120.656h26.383c.656 0 1.188.163 1.188.361v44.856c0 .201-.532.364-1.188.364H100.11c-.656 0-1.188-.163-1.188-.364v-44.856c0-.194.532-.361 1.188-.361z" clip-rule="evenodd"/><path fill="#F96132" fill-rule="evenodd" d="M72.188 137.114h26.383c.657 0 1.188.103 1.188.223v28.614c0 .13-.531.223-1.188.223H72.188c-.656 0-1.188-.102-1.188-.223v-28.614c0-.12.532-.223 1.188-.223z" clip-rule="evenodd"/><path stroke="#FFA387" stroke-dasharray="1.36 1.36" stroke-linecap="round" stroke-linejoin="round" stroke-width="1.017" d="M235.042 39.576l.021 126.395m-26.559-108.04l.31 108.011m-27.115-87.13l.447 87.34m-26.887-65.356l.583 65.307m-28.498-45.47l.051 45.662m-28.542-28.886l.174 28.654"/><path fill="#F7A501" fill-rule="evenodd" d="M243.592 82.857h69.915v55.122h-69.915V82.857zm-9.013 58.673h88.679v24.793h-88.679V141.53z" clip-rule="evenodd"/><path stroke="#F7A501" stroke-linecap="round" stroke-linejoin="round" stroke-width="11.254" d="M259.642 82.06c0-9.986 8.41-18.076 18.783-18.076 10.373 0 18.781 8.097 18.781 18.077 0 9.98-8.41 18.076-18.781 18.076-10.371 0-18.783-8.09-18.783-18.076z" clip-rule="evenodd"/><path fill="#35416B" fill-rule="evenodd" d="M255.759 89.684h45.792c2.155 0 3.902 1.812 3.902 4.046v30.772c0 2.232-1.747 4.044-3.902 4.044h-45.792c-2.153 0-3.902-1.81-3.902-4.044V93.73c0-2.234 1.749-4.046 3.902-4.046z" clip-rule="evenodd"/><path fill="#F96132" fill-rule="evenodd" d="M272.812 105.357c0-3.151 2.627-5.704 5.866-5.704s5.866 2.553 5.866 5.704a5.681 5.681 0 01-3.056 5.003c-.262.141-.255.223-.536.328-.061.023-.123 8.019-.123 8.019s-.177 1.606-1.075 1.923c-.898.317-1.237.308-2.108.016s-1.052-1.89-1.052-1.89.154-7.954.062-7.981c-.279-.082-.223-.14-.487-.259a5.692 5.692 0 01-3.357-5.159z" clip-rule="evenodd"/><path fill="#fff" fill-rule="evenodd" stroke="#769FD1" stroke-linecap="round" stroke-linejoin="round" stroke-width="3.505" d="M2 95.787a4.014 4.014 0 012.456-3.739 4.025 4.025 0 015.505 2.903 4.014 4.014 0 01-1.702 4.135 4.025 4.025 0 01-2.238.68A4.007 4.007 0 012 95.785zm80.597-24.854a4.014 4.014 0 012.456-3.738 4.024 4.024 0 015.505 2.902 4.014 4.014 0 01-1.702 4.135 4.025 4.025 0 01-2.238.68 4.007 4.007 0 01-4.02-3.98zm101.821-5.705a4.013 4.013 0 012.454-3.74 4.023 4.023 0 015.507 2.902 4.018 4.018 0 01-3.941 4.815 4.007 4.007 0 01-4.02-3.977zM34.99 62.345a4.014 4.014 0 012.456-3.738 4.024 4.024 0 015.506 2.903 4.014 4.014 0 01-1.703 4.135 4.025 4.025 0 01-2.238.68 4.007 4.007 0 01-4.02-3.98zm80.495-49.29a4.017 4.017 0 014.781-3.982 4.02 4.02 0 013.18 3.146 4.016 4.016 0 01-3.941 4.815 4.007 4.007 0 01-2.834-1.159 3.994 3.994 0 01-1.186-2.82z" clip-rule="evenodd"/><path stroke="#769FD1" stroke-linecap="round" stroke-linejoin="round" stroke-width="3.505" d="M8.326 92.56l27.596-27.106m7.75-3.716l38.137 9.447m7.289-3.872l26.818-50.335m6.831-1.613l62.044 47.679"/><path stroke="#769FD1" stroke-linecap="round" stroke-linejoin="round" stroke-width="2.285" d="M192.027 61.863l32.354-41.473"/><path fill="#F7A501" fill-rule="evenodd" d="M42.251 6.813h50.194a5.285 5.285 0 015.292 5.287v29.368a5.285 5.285 0 01-1.55 3.738 5.295 5.295 0 01-3.742 1.549H42.251a5.294 5.294 0 01-3.742-1.549 5.284 5.284 0 01-1.55-3.738V12.099c0-1.402.558-2.746 1.55-3.738a5.294 5.294 0 013.742-1.548z" clip-rule="evenodd"/><path fill="#FFD072" fill-rule="evenodd" d="M57.905 6.84c-.467-2.678 1.981-5.356 5.468-5.963 3.487-.607 6.701 1.08 7.161 3.767.46 2.687-1.979 5.356-5.468 5.963-3.489.607-6.692-1.08-7.161-3.767z" clip-rule="evenodd"/><path fill="#FFD072" fill-rule="evenodd" d="M64.376 9.47l2.53 5.83-1.28-7.653-1.25 1.824z" clip-rule="evenodd"/><path fill="#FFE1A6" fill-rule="evenodd" d="M57.822 6.045C57.31 3.472 59.642.84 63.038.16c3.395-.678 6.563.86 7.079 3.433s-1.82 5.206-5.216 5.884c-3.395.679-6.565-.859-7.079-3.432z" clip-rule="evenodd"/><path fill="#fff" fill-rule="evenodd" d="M46.343 22.791a5.079 5.079 0 013.175-4.657 5.09 5.09 0 015.525 1.134 5.08 5.08 0 01-3.614 8.656 5.115 5.115 0 01-3.607-1.514 5.106 5.106 0 01-1.48-3.619z" clip-rule="evenodd"/><path fill="#fff" fill-rule="evenodd" d="M43.022 34.646s.81-7.757 8.653-7.693c8.102.067 8.651 7.693 8.651 7.693H43.022z" clip-rule="evenodd"/><path fill="#769FD1" fill-rule="evenodd" d="M27.832 75.38h7.653l3.114-3.928 3.27 3.928h8.013a2.836 2.836 0 012.834 2.83v12.44a2.829 2.829 0 01-1.75 2.623 2.836 2.836 0 01-1.087.216H27.832A2.836 2.836 0 0125 90.658V78.21a2.828 2.828 0 012.832-2.83z" clip-rule="evenodd"/><path fill="#fff" fill-rule="evenodd" d="M30.185 79.986h17.07a.67.67 0 01.67.67v.48a.67.67 0 01-.67.669h-17.07a.67.67 0 01-.67-.67v-.48a.669.669 0 01.67-.669zm39.273-62.372h17.07a.67.67 0 01.67.67v.48a.669.669 0 01-.67.669h-17.07a.67.67 0 01-.67-.67v-.48a.67.67 0 01.67-.669zm.18 3.347H86.71a.67.67 0 01.67.67v.48a.67.67 0 01-.67.67H69.64a.67.67 0 01-.67-.67v-.48a.669.669 0 01.67-.67zm-.18 7.311h17.07a.67.67 0 01.67.67v.482a.669.669 0 01-.67.67h-17.07a.67.67 0 01-.67-.67v-.482a.67.67 0 01.67-.67zm0 3.073h17.07a.67.67 0 01.67.67v.48a.669.669 0 01-.67.669h-17.07a.67.67 0 01-.67-.67v-.48a.67.67 0 01.67-.669zm.18 3.165H86.71a.67.67 0 01.67.67v.48a.67.67 0 01-.67.669H69.64a.67.67 0 01-.67-.67v-.482a.669.669 0 01.67-.667zM30.273 83.48h17.07a.67.67 0 01.67.67v.48a.67.67 0 01-.67.67h-17.07a.67.67 0 01-.67-.67v-.48a.67.67 0 01.67-.67zm-.045 3.538h17.07a.67.67 0 01.67.67v.48a.67.67 0 01-.67.669h-17.07a.67.67 0 01-.67-.67v-.48a.669.669 0 01.67-.669z" clip-rule="evenodd"/><path fill="#E6E6E6" fill-rule="evenodd" d="M37.731 113.006l11.097-.446a2.176 2.176 0 012.265 2.084l1.921 47.014a2.173 2.173 0 01-2.086 2.263l-11.097.446c-1.202.049-2.875-.589-3.737-1.426l-.031-.029c-.865-.837-1.541-2.488-1.517-3.691l.963-43.95a2.346 2.346 0 012.222-2.265z" clip-rule="evenodd"/><path fill="#E6E6E6" fill-rule="evenodd" d="M21.501 56.387A35.397 35.397 0 007.227 76.49a35.365 35.365 0 002.323 24.54 35.415 35.415 0 0017.793 17.075 35.463 35.463 0 0024.636 1.329 35.427 35.427 0 0019.531-15.059 35.37 35.37 0 00-7.067-45.67 35.449 35.449 0 00-23.171-8.464 35.414 35.414 0 00-19.77 6.146zm5.908 9.025a24.244 24.244 0 0129.77 1.92 24.184 24.184 0 015.338 29.322 24.215 24.215 0 01-11.48 10.81 24.25 24.25 0 01-15.707 1.458 24.226 24.226 0 01-13.276-8.512 24.19 24.19 0 01-5.217-14.873 24.062 24.062 0 012.76-11.388 24.087 24.087 0 017.812-8.737z" clip-rule="evenodd"/><path fill="#fff" fill-rule="evenodd" d="M18.479 53.146A35.4 35.4 0 004.203 73.252a35.368 35.368 0 002.323 24.54 35.417 35.417 0 0017.794 17.076 35.468 35.468 0 0024.637 1.331 35.428 35.428 0 0019.533-15.06 35.372 35.372 0 00-7.066-45.673A35.45 35.45 0 0038.252 47a35.415 35.415 0 00-19.773 6.145zm5.91 9.023a24.241 24.241 0 0129.765 1.924 24.182 24.182 0 015.335 29.319A24.216 24.216 0 0148.01 104.22a24.243 24.243 0 01-28.98-7.053 24.188 24.188 0 01-5.216-14.87 24.085 24.085 0 0110.574-20.128z" clip-rule="evenodd"/><path fill="#fff" fill-rule="evenodd" d="M18.479 53.146A35.4 35.4 0 004.203 73.252a35.368 35.368 0 002.323 24.54 35.417 35.417 0 0017.794 17.076 35.468 35.468 0 0024.637 1.331 35.428 35.428 0 0019.533-15.06 35.372 35.372 0 00-7.066-45.673A35.45 35.45 0 0038.252 47a35.415 35.415 0 00-19.773 6.145zm5.91 9.023a24.241 24.241 0 0129.765 1.924 24.182 24.182 0 015.335 29.319A24.216 24.216 0 0148.01 104.22a24.243 24.243 0 01-28.98-7.053 24.188 24.188 0 01-5.216-14.87 24.085 24.085 0 0110.574-20.128z" clip-rule="evenodd"/><path fill="#fff" fill-rule="evenodd" d="M37.7 114.936h7.466a3.455 3.455 0 012.438 1.01 3.43 3.43 0 011.006 2.438v40.839a3.438 3.438 0 01-3.442 3.439H37.7a3.443 3.443 0 01-3.442-3.439v-40.839a3.44 3.44 0 013.442-3.448z" clip-rule="evenodd"/></svg>