<svg xmlns:xlink="http://www.w3.org/1999/xlink" fill="none" viewBox="0 0 628 588"><rect width="549" height="561" fill="#F96132" rx="71.743"/><g clip-path="url(#clip0)"><path fill="url(#pattern0)" d="M135.99 29h397.321v390.066H135.99z"/><path fill="url(#pattern1)" d="M92.374 394.517h481.828v192.987H92.374z"/><path fill="#D3E7FF" fill-rule="evenodd" d="M208.23 92.76h254.272a6.617 6.617 0 016.611 6.615v233.972a6.615 6.615 0 01-6.611 6.615H208.23a6.614 6.614 0 01-6.61-6.615V99.376a6.616 6.616 0 016.61-6.615z" clip-rule="evenodd"/><path fill="#222A46" fill-rule="evenodd" d="M215.863 106.399h54.078c1.754 0 3.435.697 4.675 1.938a6.619 6.619 0 011.936 4.677V323.97a6.61 6.61 0 01-6.611 6.615h-54.078a6.61 6.61 0 01-6.61-6.615V113.014a6.614 6.614 0 016.61-6.615z" clip-rule="evenodd"/><path fill="#4D5F9C" fill-rule="evenodd" d="M297.645 114.071h106.894a6.614 6.614 0 016.611 6.615v5.524a6.616 6.616 0 01-1.936 4.677 6.607 6.607 0 01-4.675 1.937H297.645a6.607 6.607 0 01-4.675-1.937 6.616 6.616 0 01-1.936-4.677v-5.524a6.617 6.617 0 014.081-6.111 6.594 6.594 0 012.53-.504zm7.053 33.245h142.334c5.193 0 9.398 2.959 9.398 6.614v72.865c0 3.655-4.205 6.615-9.398 6.615H304.698c-5.193 0-9.405-2.96-9.405-6.615V153.93c0-3.655 4.212-6.614 9.405-6.614zm.614 99.732h145.23a6.611 6.611 0 016.61 6.615v70.308a6.625 6.625 0 01-1.936 4.677 6.61 6.61 0 01-4.674 1.937h-145.23a6.61 6.61 0 01-6.611-6.614v-70.308c0-1.754.697-3.437 1.936-4.677a6.608 6.608 0 014.675-1.938z" clip-rule="evenodd"/><path fill="#222A46" fill-rule="evenodd" d="M133.435 451.199a14.926 14.926 0 019.206-13.786 14.908 14.908 0 0120.331 10.879 14.917 14.917 0 01-20.338 16.692 14.92 14.92 0 01-9.199-13.785zm190.536-8.947h187.702c5.173 0 9.371 2.312 9.371 5.162v8.961c0 2.85-4.198 5.162-9.371 5.162H323.971c-5.172 0-9.364-2.312-9.364-5.162v-8.961c0-2.85 4.192-5.162 9.364-5.162zm-1.703 33.244h187.701c5.173 0 9.371 2.312 9.371 5.162v8.961c0 2.851-4.198 5.162-9.371 5.162H322.268c-5.173 0-9.364-2.311-9.364-5.162v-8.961c0-2.85 4.191-5.162 9.364-5.162zm0 34.949h187.701c5.173 0 9.371 2.312 9.371 5.163v8.96c0 2.851-4.198 5.162-9.371 5.162H322.268c-5.173 0-9.364-2.311-9.364-5.162v-8.96c0-2.851 4.191-5.163 9.364-5.163z" clip-rule="evenodd"/><path fill="#7B99FF" fill-rule="evenodd" d="M312.979 161.807h54.929a6.616 6.616 0 014.675 1.937 6.613 6.613 0 011.936 4.677v43.883a6.617 6.617 0 01-4.081 6.111 6.598 6.598 0 01-2.53.504h-54.929a6.611 6.611 0 01-6.611-6.615v-43.883a6.625 6.625 0 011.936-4.677 6.612 6.612 0 014.675-1.937z" clip-rule="evenodd"/><path fill="#F7A501" fill-rule="evenodd" d="M230.311 418.766c.152-.011.305-.011.457 0 0 0-102.574 143.765-106.684 143.8-4.77.04-6.937-2.592-6.951-5.954l-.47-129.949a7.802 7.802 0 014.806-7.232 7.79 7.79 0 012.99-.597l105.852-.068z" clip-rule="evenodd"/><path fill="#FFC44E" fill-rule="evenodd" d="M135.581 451.274a15.681 15.681 0 019.859-14.3 15.667 15.667 0 0116.99 3.569 15.699 15.699 0 013.281 17.059 15.684 15.684 0 01-14.455 9.622 15.808 15.808 0 01-11.138-4.727 15.832 15.832 0 01-4.537-11.223z" clip-rule="evenodd" opacity=".83"/><path fill="#F7A501" fill-rule="evenodd" d="M171.592 53.393h326.28a10.904 10.904 0 017.327 2.81c2.174 1.97-256.705 338.238-256.705 338.238h-76.902a10.792 10.792 0 01-7.683-3.112 10.82 10.82 0 01-3.221-7.642V64.147a10.816 10.816 0 0110.904-10.754z" clip-rule="evenodd"/><path fill="#FFE6B2" fill-rule="evenodd" d="M205.395 91.677h258.061a5.615 5.615 0 015.616 5.619v8.394L291.198 339.887h-85.803a5.613 5.613 0 01-5.188-3.463 5.623 5.623 0 01-.427-2.149V97.295a5.617 5.617 0 015.615-5.618z" clip-rule="evenodd"/><path fill="#F7C455" fill-rule="evenodd" d="M214.405 106.74h56.129a5.456 5.456 0 015.452 5.456v212.682a5.455 5.455 0 01-5.452 5.455h-56.129a5.455 5.455 0 01-5.452-5.455V112.196a5.456 5.456 0 015.452-5.456z" clip-rule="evenodd"/><path fill="#F9CC69" fill-rule="evenodd" d="M300.991 114.03h111.727a5.451 5.451 0 015.452 5.456v12.213a5.451 5.451 0 01-5.452 5.456H300.991a5.456 5.456 0 01-5.452-5.456v-12.213a5.456 5.456 0 015.452-5.456zm3.85 33.736l132.984-.56-65.712 86.197-67.272.123a5.451 5.451 0 01-5.452-5.456v-74.856a5.457 5.457 0 015.452-5.448zm-1.615 99.091l58.61.185-61.602 81.109s-2.814-1.664-2.787-4.528l.341-71.433a5.395 5.395 0 015.438-5.333z" clip-rule="evenodd"/><path fill="#FFECC2" fill-rule="evenodd" d="M316.591 160.982h51.072a5.449 5.449 0 015.452 5.455v48.581a5.449 5.449 0 01-5.452 5.455h-51.072a5.453 5.453 0 01-5.452-5.455v-48.581a5.453 5.453 0 015.452-5.455z" clip-rule="evenodd"/><path fill="url(#pattern2)" d="M14 91.056h234.44v167.756H14z"/><path fill="#E5F1FF" fill-rule="evenodd" d="M622.548 207.53H470.844a5.456 5.456 0 00-5.452 5.456v37.267l-22.524 13.053 22.524 15.718v41.032a5.456 5.456 0 005.452 5.456h151.704a5.456 5.456 0 005.452-5.456V212.993a5.466 5.466 0 00-1.595-3.863 5.455 5.455 0 00-3.857-1.6z" clip-rule="evenodd"/><path fill="#769FD1" fill-rule="evenodd" d="M581.548 257.605h-13.296a1.42 1.42 0 00-1.418 1.418v39.552a1.43 1.43 0 001.418 1.426h13.296a1.426 1.426 0 001.418-1.426v-39.552a1.418 1.418 0 00-1.418-1.418zm19.287 21.467h-13.296c-.784 0-1.418.314-1.418.682v19.367c0 .389.634.682 1.418.682h13.296c.784 0 1.418-.307 1.418-.682v-19.367c0-.368-.634-.682-1.418-.682zm-39.091-18.092h-13.29a1.364 1.364 0 00-1.424 1.303v36.204a1.361 1.361 0 001.424 1.302h13.29a1.36 1.36 0 001.417-1.302v-36.204a1.366 1.366 0 00-1.417-1.303zm-20.255-11.927H528.2a1.586 1.586 0 00-1.058.562c-.265.319-.394.73-.36 1.143v47.326a1.585 1.585 0 001.418 1.705h13.289a1.58 1.58 0 001.418-1.705v-47.326a1.582 1.582 0 00-1.418-1.705zm-20.295-16.598h-13.29c-.784 0-1.417 1.023-1.417 2.278v63.522c0 1.261.633 2.284 1.417 2.284h13.29c.783 0 1.424-1.023 1.424-2.284v-63.522c0-1.255-.641-2.278-1.424-2.278z" clip-rule="evenodd"/><path stroke="#6C8BB1" stroke-linecap="round" stroke-linejoin="round" stroke-width="4.723" d="M493.681 229.748l.075 70.498 111.257.061"/><path fill="#FFBD38" fill-rule="evenodd" d="M101.915 160.77h13.289a1.423 1.423 0 011.425 1.419v39.552a1.434 1.434 0 01-1.425 1.425h-13.289a1.426 1.426 0 01-1.418-1.425v-39.552a1.42 1.42 0 011.418-1.419zm-19.273 11.075h13.29c.783 0 1.424.47 1.424 1.043v29.064c0 .58-.641 1.043-1.425 1.043h-13.29c-.783 0-1.417-.463-1.417-1.043v-29.064c0-.573.634-1.043 1.418-1.043zm39.084-18.194h13.297a1.546 1.546 0 011.417 1.65v46.003a1.552 1.552 0 01-1.417 1.651h-13.297a1.55 1.55 0 01-1.417-1.651v-46.003a1.55 1.55 0 011.417-1.65zm20.234-7.358h13.297c.783 0 1.417.852 1.417 1.902v52.85c0 1.05-.634 1.903-1.417 1.903H141.96c-.783 0-1.417-.853-1.417-1.903v-52.843c0-1.05.634-1.909 1.417-1.909zm20.316-10.673h13.296c.784 0 1.418 1.023 1.418 2.278v63.522c0 1.262-.634 2.285-1.418 2.285h-13.296c-.784 0-1.417-1.023-1.417-2.285v-63.522c0-1.255.633-2.278 1.417-2.278z" clip-rule="evenodd"/><path stroke="#F7A501" stroke-linecap="round" stroke-linejoin="round" stroke-width="4.723" d="M68.419 132.913l.102 70.498 111.256.062"/></g><defs><pattern id="pattern0" width="1" height="1" patternContentUnits="objectBoundingBox"><use transform="scale(.00172)" xlink:href="#image0"/></pattern><pattern id="pattern1" width="1" height="1" patternContentUnits="objectBoundingBox"><use transform="scale(.00141 .00353)" xlink:href="#image1"/></pattern><pattern id="pattern2" width="1" height="1" patternContentUnits="objectBoundingBox"><use transform="scale(.0029 .00407)" xlink:href="#image2"/></pattern><clipPath id="clip0"><path fill="#fff" d="M0 0h614v558.504H0z" transform="translate(14 29)"/></clipPath></defs></svg>