<svg xmlns:xlink="http://www.w3.org/1999/xlink" fill="none" viewBox="0 0 348 357"><rect width="344.606" height="342.029" x="2.533" y=".238" fill="#F7A501" rx="43.93"/><path fill="url(#pattern0)" d="M0 0h346.983v342.255H0z" opacity=".2"/><path fill="#C14F0D" fill-rule="evenodd" d="M51.531 28.446l93.181-9.047 10.971 6.915c2.008 1.097 3.098 3.423 3.098 5.01v103.969a2.93 2.93 0 01-2.926 2.878H51.531c-1.616 0-4.352-1.13-5.631-2.063-1.28-.932-9.509-8.688-9.509-8.688l12.215-96.096a2.903 2.903 0 012.925-2.878z" clip-rule="evenodd"/><path fill="#FB4F0D" fill-rule="evenodd" d="M38.926 19h104.316a2.904 2.904 0 012.696 1.77c.149.35.227.727.23 1.108v103.965a2.893 2.893 0 01-.867 2.046 2.9 2.9 0 01-2.059.832H38.926a2.886 2.886 0 01-2.06-.832 2.898 2.898 0 01-.866-2.046V21.878A2.901 2.901 0 0138.926 19z" clip-rule="evenodd"/><path fill="#FFCEBB" fill-rule="evenodd" d="M53.096 30.56h74.94a5.85 5.85 0 015.851 5.85v72.407c0 1.552-.616 3.04-1.714 4.137a5.847 5.847 0 01-4.137 1.714h-74.94a5.849 5.849 0 01-5.85-5.851V36.411a5.851 5.851 0 015.85-5.852z" clip-rule="evenodd"/><path fill="#F96132" fill-rule="evenodd" d="M63.735 71.44a27.425 27.425 0 0132.814-26.834 27.425 27.425 0 01-5.387 54.32A27.454 27.454 0 0163.735 71.44z" clip-rule="evenodd"/><path fill="#fff" fill-rule="evenodd" d="M102.221 55.51L91.108 66.254 80.55 55.39l-5.42 5.357L85.688 71.67 74.929 82.231l5.251 5.727 11.004-10.854 10.503 10.869 5.486-5.332-10.584-11.004 10.843-10.693-5.211-5.434z" clip-rule="evenodd"/><path fill="#E24F0D" fill-rule="evenodd" d="M144.91 19.476l.435 108.792 10.748 8.21c1.375 1.053 2.494.501 2.501-1.229L159 31.971c0-1.85-1.247-4.165-2.798-5.17l-11.292-7.325z" clip-rule="evenodd"/><path fill="#35416B" fill-rule="evenodd" d="M195.016 113.148l7.506 4.922.369 100.539 114.878-5.938 7.391 5.107-.44 11.681-133.3.037-7.42-5.174 11.016-111.174z" clip-rule="evenodd"/><path fill="#828EB7" fill-rule="evenodd" d="M203.168 133.768l8.5-6.582 8.33 6.582v80.329h-16.819l-.011-80.329zm29.882 11.278l8.241-6.389 8.577 6.389v69.207H233.05v-69.207zm33.544 18.518l8.219-6.526 8.588 6.526v50.216h-16.818l.011-50.216zm33.806 15.849l8.163-6.519 8.659 6.519v34.115H300.4v-34.115z" clip-rule="evenodd"/><path fill="#A2AACA" fill-rule="evenodd" d="M194.71 126.525h16.818v87.68H194.71v-87.68z" clip-rule="evenodd"/><path fill="#A1AACA" fill-rule="evenodd" d="M224.739 138.539h16.818v78.341h-16.818v-78.341zm33.533 18.521h16.818v57.351h-16.818V157.06zm33.817 15.849H308.9v42.951h-16.819l.008-42.951z" clip-rule="evenodd"/><path fill="#707FB1" fill-rule="evenodd" d="M184.163 113.292l10.949-.292.37 100.539 122.287-.816-.44 11.677-133.303.041.137-111.149z" clip-rule="evenodd"/><path fill="#E24F0D" fill-rule="evenodd" d="M49.396 167.182l94.026-5.899c2.723 0 11.052 8.107 11.052 10.833v147.528a4.938 4.938 0 01-4.934 4.934H49.396c-2.726 0-13.008-7.488-13.008-10.21l8.074-142.252a4.933 4.933 0 014.934-4.934z" clip-rule="evenodd"/><path fill="#F96132" fill-rule="evenodd" d="M40.934 160h100.144a4.934 4.934 0 014.934 4.934v147.519a4.934 4.934 0 01-4.934 4.934H40.934A4.932 4.932 0 0136 312.453V164.934A4.933 4.933 0 0140.934 160z" clip-rule="evenodd"/><path fill="#E24F0D" fill-rule="evenodd" d="M73.25 190.415l39.805-5.693c2.726 0 10.908 8.193 10.908 11.283v89.397c0 3.084-2.208 5.591-4.934 5.591h-45.78c-2.726 0-12.797-7.555-12.797-10.645l7.863-84.343c0-3.09 2.208-5.59 4.934-5.59z" clip-rule="evenodd"/><path fill="#FFE0D6" fill-rule="evenodd" d="M65.376 184.17h45.78c2.726 0 4.934 2.504 4.934 5.591v89.397c0 3.083-2.208 5.59-4.934 5.59h-45.78c-2.726 0-4.934-2.501-4.934-5.59v-89.397c0-3.087 2.208-5.591 4.934-5.591z" clip-rule="evenodd"/><path fill="#FFB39C" fill-rule="evenodd" d="M51.037 183.812l50.503-.067a4.32 4.32 0 014.037 3.234l9.862 44.255c.398 1.788-.765 3.238-2.596 3.238h-48.95a4.49 4.49 0 01-4.135-3.214l-11.222-44.226c-.45-1.776.669-3.217 2.5-3.22z" clip-rule="evenodd"/><path fill="#FF7E56" fill-rule="evenodd" d="M102.398 183.871s1.881.749 2.812 2.331c.931 1.582 2.806 11.771 2.806 11.771l7.328 32.881.69 2.267.13-43.826a5.051 5.051 0 00-4.854-5.103l-8.912-.321z" clip-rule="evenodd"/><path fill="#FF531E" fill-rule="evenodd" d="M82.899 258.201a3.276 3.276 0 00-.583-2.079 1.903 1.903 0 00-1.576-.734 1.937 1.937 0 00-1.582.731c-.395.487-.592 1.181-.592 2.082 0 .9.197 1.594.592 2.081a1.938 1.938 0 001.582.734 1.918 1.918 0 001.576-.734c.388-.487.583-1.181.583-2.081zm.447 3.296c-.617.617-1.477.925-2.618.925-1.141 0-2.014-.308-2.619-.925-.81-.763-1.215-1.861-1.215-3.296 0-1.462.404-2.563 1.215-3.294.605-.616 1.478-.925 2.619-.925 1.14 0 2.013.309 2.618.925.805.731 1.209 1.832 1.209 3.294 0 1.461-.392 2.535-1.21 3.296zm2.495-7.268h5.665v1.403h-4.01v1.85h3.507v1.388H87.5v3.349h-1.66v-7.99zm6.78 0h5.666v1.403h-4.01v1.85h3.507v1.388h-3.503v3.349h-1.66v-7.99z" clip-rule="evenodd"/><path fill="#C14F0D" fill-rule="evenodd" d="M80.937 209.836a3.278 3.278 0 00-.841-1.989 1.91 1.91 0 00-1.657-.527 1.93 1.93 0 00-1.477.925 3.96 3.96 0 00.525 4.132 1.939 1.939 0 001.665.524 1.915 1.915 0 001.468-.925c.347-.656.46-1.411.317-2.14zm.867 3.204c-.518.695-1.34 1.114-2.467 1.258-1.127.144-2.031-.053-2.714-.592-.9-.652-1.442-1.69-1.625-3.115-.183-1.424.078-2.565.783-3.423.518-.692 1.34-1.112 2.467-1.258 1.127-.146 2.031.052 2.714.592.894.617 1.434 1.655 1.619 3.115.193 1.425-.066 2.566-.777 3.423zm1.517-7.527l1.74-.226 3.866 5.126-.712-5.53 1.542-.2 1.02 7.925-1.655.213-3.96-5.212.722 5.628-1.542.198-1.02-7.922z" clip-rule="evenodd"/><path fill="#C8C8C8" fill-rule="evenodd" d="M113.524 275.125l-15.238-5.911 15.058 76.776 15.362 6.187 16.507-9.843-6.345 8.604 15.676 5.549 11.211-6.719-9.339-14.253 16.481-9.67-59.373-50.72z" clip-rule="evenodd"/><path fill="#fff" fill-rule="evenodd" d="M98.334 269.386l15.194 77.047 16.507-9.843 8.888 14.446 11.358-6.715-9.056-14.558 16.481-9.671-59.372-50.706z" clip-rule="evenodd"/><path fill="#ABABAB" fill-rule="evenodd" d="M113.464 346.502l15.646 5.464 7.585-4.607-6.66-10.781-16.571 9.924zm25.356 4.526l15.608 5.567 11.34-6.802-15.582-5.403-11.366 6.638zm2.388-21.29l15.182 5.777 1.622-.933L173 325.879l-15.487-5.885-16.305 9.744z" clip-rule="evenodd"/><defs><pattern id="pattern0" width="1" height="1" patternContentUnits="objectBoundingBox"><use transform="matrix(.0018 0 0 .00193 -.053 -.061)" xlink:href="#image0"/></pattern></defs></svg>