<svg xmlns="http://www.w3.org/2000/svg" width="324" height="167" fill="none" viewBox="0 0 324 167"><path fill="#F96132" fill-rule="evenodd" d="M236.368 18H262.75C262.905 17.9991 263.059 18.0289 263.203 18.0875C263.347 18.1462 263.478 18.2326 263.588 18.3418C263.699 18.4511 263.786 18.581 263.847 18.7241C263.907 18.8673 263.938 19.0209 263.938 19.1761V164.952C263.938 165.107 263.907 165.26 263.847 165.404C263.786 165.547 263.699 165.677 263.588 165.786C263.478 165.895 263.347 165.981 263.203 166.04C263.059 166.099 262.905 166.129 262.75 166.128H236.368C236.212 166.129 236.058 166.099 235.914 166.04C235.77 165.981 235.64 165.895 235.529 165.786C235.419 165.677 235.331 165.547 235.271 165.404C235.211 165.26 235.18 165.107 235.179 164.952V19.1761C235.18 19.0209 235.211 18.8673 235.271 18.7241C235.331 18.581 235.419 18.4511 235.529 18.3418C235.64 18.2326 235.77 18.1462 235.914 18.0875C236.058 18.0289 236.212 17.9991 236.368 18Z" clip-rule="evenodd"/><path fill="#F96132" fill-rule="evenodd" d="M209.563 39.7585H235.945C236.602 39.7585 237.134 40.2049 237.134 40.7628V165.233C237.134 165.788 236.602 166.237 235.945 166.237H209.563C208.906 166.237 208.375 165.791 208.375 165.233V40.7628C208.375 40.2093 208.906 39.7585 209.563 39.7585Z" clip-rule="evenodd"/><path fill="#F96132" fill-rule="evenodd" d="M182.479 57.8906H208.861C209.518 57.8906 210.05 58.2767 210.05 58.752V165.335C210.05 165.811 209.518 166.197 208.861 166.197H182.479C181.822 166.197 181.291 165.811 181.291 165.335V58.752C181.291 58.2767 181.822 57.8906 182.479 57.8906Z" clip-rule="evenodd"/><path fill="#F96132" fill-rule="evenodd" d="M156.512 79.0913H182.894C183.551 79.0913 184.082 79.4015 184.082 79.7831V165.478C184.082 165.86 183.551 166.17 182.894 166.17H156.512C155.855 166.17 155.323 165.86 155.323 165.478V79.7831C155.323 79.4015 155.855 79.0913 156.512 79.0913Z" clip-rule="evenodd"/><path fill="#F96132" fill-rule="evenodd" d="M128.59 100.571H154.972C155.629 100.571 156.161 100.794 156.161 101.093V165.786C156.161 166.074 155.629 166.308 154.972 166.308H128.59C127.933 166.308 127.401 166.074 127.401 165.786V101.093C127.401 100.805 127.933 100.571 128.59 100.571Z" clip-rule="evenodd"/><path fill="#F96132" fill-rule="evenodd" d="M100.11 120.656H126.493C127.149 120.656 127.681 120.819 127.681 121.017V165.873C127.681 166.074 127.149 166.237 126.493 166.237H100.11C99.4535 166.237 98.9219 166.074 98.9219 165.873V121.017C98.9219 120.823 99.4535 120.656 100.11 120.656Z" clip-rule="evenodd"/><path fill="#F96132" fill-rule="evenodd" d="M72.1883 137.114H98.5709C99.2276 137.114 99.7592 137.217 99.7592 137.337V165.951C99.7592 166.081 99.2276 166.174 98.5709 166.174H72.1883C71.5316 166.174 71 166.072 71 165.951V137.337C71 137.217 71.5316 137.114 72.1883 137.114Z" clip-rule="evenodd"/><path stroke="#FFA387" stroke-dasharray="1.36 1.36" stroke-linecap="round" stroke-linejoin="round" stroke-width="1.017" d="M235.042 39.5756L235.063 165.971"/><path stroke="#FFA387" stroke-dasharray="1.36 1.36" stroke-linecap="round" stroke-linejoin="round" stroke-width="1.017" d="M208.504 57.9308L208.814 165.942"/><path stroke="#FFA387" stroke-dasharray="1.36 1.36" stroke-linecap="round" stroke-linejoin="round" stroke-width="1.017" d="M181.699 78.8123L182.146 166.152"/><path stroke="#FFA387" stroke-dasharray="1.36 1.36" stroke-linecap="round" stroke-linejoin="round" stroke-width="1.017" d="M155.259 100.796L155.842 166.103"/><path stroke="#FFA387" stroke-dasharray="1.36 1.36" stroke-linecap="round" stroke-linejoin="round" stroke-width="1.017" d="M127.344 120.633L127.395 166.295"/><path stroke="#FFA387" stroke-dasharray="1.36 1.36" stroke-linecap="round" stroke-linejoin="round" stroke-width="1.017" d="M98.8525 137.409L99.0268 166.063"/><path fill="#F7A501" fill-rule="evenodd" d="M243.592 82.8574H313.507V137.979H243.592V82.8574Z" clip-rule="evenodd"/><path fill="#F7A501" fill-rule="evenodd" d="M234.579 141.53H323.258V166.323H234.579V141.53Z" clip-rule="evenodd"/><path fill-rule="evenodd" stroke="#F7A501" stroke-linecap="round" stroke-linejoin="round" stroke-width="11.254" d="M259.642 82.0607C259.642 72.0741 268.052 63.9844 278.425 63.9844C288.798 63.9844 297.206 72.0808 297.206 82.0607C297.206 92.0406 288.796 100.137 278.425 100.137C268.054 100.137 259.642 92.0473 259.642 82.0607Z" clip-rule="evenodd"/><path fill="#35416B" fill-rule="evenodd" d="M255.759 89.6841H301.551C303.706 89.6841 305.453 91.4962 305.453 93.7301V124.502C305.453 126.734 303.706 128.546 301.551 128.546H255.759C253.606 128.546 251.857 126.736 251.857 124.502V93.7301C251.857 91.4962 253.606 89.6841 255.759 89.6841Z" clip-rule="evenodd"/><path fill="#F96132" fill-rule="evenodd" d="M272.812 105.357C272.812 102.206 275.439 99.6528 278.678 99.6528C281.917 99.6528 284.544 102.206 284.544 105.357C284.538 106.39 284.25 107.401 283.712 108.283C283.173 109.165 282.404 109.883 281.488 110.36C281.226 110.501 281.233 110.583 280.952 110.688C280.891 110.711 280.829 118.707 280.829 118.707C280.829 118.707 280.652 120.313 279.754 120.63C278.856 120.947 278.517 120.938 277.646 120.646C276.775 120.354 276.594 118.756 276.594 118.756C276.594 118.756 276.748 110.802 276.656 110.775C276.377 110.693 276.433 110.635 276.169 110.516C275.174 110.068 274.329 109.343 273.733 108.429C273.138 107.514 272.818 106.448 272.812 105.357Z" clip-rule="evenodd"/><path fill="#fff" fill-rule="evenodd" stroke="#769FD1" stroke-linecap="round" stroke-linejoin="round" stroke-width="3.505" d="M2.00018 95.7865C1.99265 94.9904 2.22205 94.2101 2.65925 93.5445C3.09646 92.879 3.72173 92.3582 4.45573 92.0483C5.18972 91.7385 5.99933 91.6535 6.78175 91.8042C7.56418 91.9549 8.28414 92.3344 8.85026 92.8947C9.41637 93.4549 9.8031 94.1706 9.96134 94.9508C10.1196 95.731 10.0422 96.5406 9.73903 97.2769C9.43586 98.0131 8.92057 98.6427 8.25857 99.0858C7.59657 99.5289 6.81772 99.7655 6.02089 99.7655C4.95983 99.7696 3.94048 99.353 3.18664 98.6069C2.4328 97.8609 2.00609 96.8465 2.00018 95.7865Z" clip-rule="evenodd"/><path fill="#fff" fill-rule="evenodd" stroke="#769FD1" stroke-linecap="round" stroke-linejoin="round" stroke-width="3.505" d="M82.5973 70.9327C82.5898 70.1367 82.8192 69.3563 83.2564 68.6908C83.6936 68.0252 84.3189 67.5044 85.0529 67.1946C85.7869 66.8847 86.5965 66.7997 87.3789 66.9504C88.1613 67.1011 88.8813 67.4807 89.4474 68.0409C90.0135 68.6011 90.4002 69.3168 90.5585 70.097C90.7167 70.8773 90.6394 71.6869 90.3362 72.4231C90.033 73.1593 89.5177 73.7889 88.8557 74.232C88.1937 74.6751 87.4149 74.9117 86.6181 74.9117C85.557 74.9159 84.5376 74.4992 83.7838 73.7532C83.03 73.0072 82.6033 71.9928 82.5973 70.9327Z" clip-rule="evenodd"/><path fill="#fff" fill-rule="evenodd" stroke="#769FD1" stroke-linecap="round" stroke-linejoin="round" stroke-width="3.505" d="M184.418 65.2285C184.41 64.4324 184.639 63.6518 185.076 62.986C185.513 62.3201 186.138 61.799 186.872 61.4888C187.606 61.1786 188.415 61.0933 189.198 61.2437C189.98 61.3942 190.701 61.7735 191.267 62.3337C191.833 62.8938 192.22 63.6095 192.379 64.3898C192.537 65.1701 192.46 65.9798 192.157 66.7161C191.854 67.4525 191.338 68.0822 190.676 68.5254C190.014 68.9686 189.235 69.2053 188.438 69.2053C187.378 69.2095 186.359 68.7931 185.605 68.0475C184.851 67.302 184.424 66.2882 184.418 65.2285Z" clip-rule="evenodd"/><path fill="#fff" fill-rule="evenodd" stroke="#769FD1" stroke-linecap="round" stroke-linejoin="round" stroke-width="3.505" d="M34.9904 62.3453C34.9829 61.5493 35.2123 60.7689 35.6495 60.1034C36.0867 59.4378 36.712 58.917 37.446 58.6072C38.18 58.2973 38.9896 58.2123 39.772 58.363C40.5544 58.5137 41.2744 58.8933 41.8405 59.4535C42.4066 60.0137 42.7933 60.7294 42.9516 61.5096C43.1098 62.2899 43.0324 63.0995 42.7293 63.8357C42.4261 64.5719 41.9108 65.2015 41.2488 65.6446C40.5868 66.0877 39.808 66.3243 39.0111 66.3243C37.9501 66.3285 36.9307 65.9118 36.1769 65.1658C35.423 64.4198 34.9963 63.4054 34.9904 62.3453Z" clip-rule="evenodd"/><path fill="#fff" fill-rule="evenodd" stroke="#769FD1" stroke-linecap="round" stroke-linejoin="round" stroke-width="3.505" d="M115.485 13.0549C115.477 12.2588 115.706 11.4785 116.144 10.813C116.581 10.1474 117.206 9.62663 117.94 9.31677C118.674 9.00691 119.484 8.92193 120.266 9.07262C121.049 9.2233 121.769 9.60286 122.335 10.1631C122.901 10.7233 123.287 11.439 123.446 12.2192C123.604 12.9995 123.527 13.8091 123.223 14.5453C122.92 15.2815 122.405 15.9111 121.743 16.3542C121.081 16.7973 120.302 17.0339 119.505 17.0339C118.444 17.0381 117.425 16.6214 116.671 15.8754C115.917 15.1294 115.49 14.115 115.485 13.0549Z" clip-rule="evenodd"/><path stroke="#769FD1" stroke-linecap="round" stroke-linejoin="round" stroke-width="3.505" d="M8.32617 92.5595L35.9216 65.454"/><path stroke="#769FD1" stroke-linecap="round" stroke-linejoin="round" stroke-width="3.505" d="M43.6724 61.7383L81.8088 71.1848"/><path stroke="#769FD1" stroke-linecap="round" stroke-linejoin="round" stroke-width="3.505" d="M89.0977 67.3129L115.916 16.9781"/><path stroke="#769FD1" stroke-linecap="round" stroke-linejoin="round" stroke-width="3.505" d="M122.747 15.3647L184.791 63.0438"/><path stroke="#769FD1" stroke-linecap="round" stroke-linejoin="round" stroke-width="2.285" d="M192.027 61.8633L224.381 20.3904"/><path fill="#F7A501" fill-rule="evenodd" d="M42.2512 6.81274H92.4453C93.8487 6.81274 95.1947 7.36974 96.1871 8.3612C97.1794 9.35266 97.7369 10.6974 97.7369 12.0995V41.468C97.7369 42.8701 97.1794 44.2148 96.1871 45.2063C95.1947 46.1977 93.8487 46.7547 92.4453 46.7547H42.2512C40.8477 46.7547 39.5018 46.1977 38.5094 45.2063C37.517 44.2148 36.9595 42.8701 36.9595 41.468V12.0995C36.9595 10.6974 37.517 9.35266 38.5094 8.3612C39.5018 7.36974 40.8477 6.81274 42.2512 6.81274Z" clip-rule="evenodd"/><path fill="#FFD072" fill-rule="evenodd" d="M57.9047 6.83964C57.4379 4.16167 59.886 1.48369 63.3729 0.876687C66.8597 0.26968 70.0741 1.9568 70.5342 4.6437C70.9944 7.3306 68.5552 9.99965 65.0661 10.6067C61.577 11.2137 58.3738 9.52654 57.9047 6.83964Z" clip-rule="evenodd"/><path fill="#FFD072" fill-rule="evenodd" d="M64.376 9.47059L66.9068 15.2996L65.6269 7.64734L64.376 9.47059Z" clip-rule="evenodd"/><path fill="#FFE1A6" fill-rule="evenodd" d="M57.8223 6.04513C57.3086 3.47205 59.6428 0.838707 63.0381 0.160287C66.4334 -0.518133 69.6008 1.01947 70.1168 3.59256C70.6328 6.16564 68.2963 8.79898 64.901 9.4774C61.5057 10.1558 58.3361 8.61822 57.8223 6.04513Z" clip-rule="evenodd"/><path fill="#fff" fill-rule="evenodd" d="M46.3428 22.7914C46.353 21.7886 46.6599 20.8112 47.2249 19.9824C47.7899 19.1535 48.5877 18.5102 49.518 18.1335C50.4482 17.7567 51.4692 17.6634 52.4524 17.8652C53.4357 18.067 54.3371 18.555 55.0433 19.2677C55.7495 19.9803 56.2288 20.8858 56.421 21.8701C56.6131 22.8544 56.5094 23.8734 56.123 24.7989C55.7365 25.7245 55.0846 26.5151 54.2494 27.0712C53.4141 27.6273 52.4328 27.9241 51.429 27.9241C50.0734 27.9171 48.776 27.3724 47.8222 26.4099C46.8684 25.4473 46.3363 24.1458 46.3428 22.7914Z" clip-rule="evenodd"/><path fill="#fff" fill-rule="evenodd" d="M43.0215 34.6458C43.0215 34.6458 43.8323 26.8886 51.6749 26.9533C59.7767 27.0202 60.3262 34.6458 60.3262 34.6458H43.0215Z" clip-rule="evenodd"/><path fill="#769FD1" fill-rule="evenodd" d="M27.8324 75.3801H35.4851L38.5989 71.4524L41.8691 75.3801H49.8815C50.6329 75.3801 51.3535 75.6781 51.8851 76.2088C52.4166 76.7394 52.7155 77.4591 52.7161 78.2098V90.6512C52.717 91.0239 52.6442 91.393 52.502 91.7375C52.3598 92.0821 52.151 92.3951 51.8874 92.6588C51.6239 92.9226 51.3109 93.1317 50.9662 93.2743C50.6216 93.4169 50.2523 93.4902 49.8793 93.4899H27.8324C27.081 93.4893 26.3605 93.1907 25.8294 92.6596C25.2983 92.1286 25 91.4086 25 90.6579V78.2098C25 77.4593 25.2984 76.7396 25.8296 76.2089C26.3607 75.6782 27.0812 75.3801 27.8324 75.3801Z" clip-rule="evenodd"/><path fill="#fff" fill-rule="evenodd" d="M30.1848 79.9861H47.2549C47.4326 79.9861 47.6031 80.0566 47.7288 80.1822C47.8544 80.3077 47.925 80.478 47.925 80.6556V81.1354C47.925 81.3129 47.8544 81.4832 47.7288 81.6088C47.6031 81.7343 47.4326 81.8049 47.2549 81.8049H30.1848C30.007 81.8049 29.8366 81.7343 29.7109 81.6088C29.5852 81.4832 29.5146 81.3129 29.5146 81.1354V80.6556C29.5146 80.478 29.5852 80.3077 29.7109 80.1822C29.8366 80.0566 30.007 79.9861 30.1848 79.9861Z" clip-rule="evenodd"/><path fill="#fff" fill-rule="evenodd" d="M69.4577 17.614H86.5279C86.7056 17.614 86.876 17.6845 87.0017 17.8101C87.1274 17.9357 87.198 18.1059 87.198 18.2835V18.7633C87.198 18.9409 87.1274 19.1112 87.0017 19.2367C86.876 19.3623 86.7056 19.4328 86.5279 19.4328H69.4577C69.28 19.4328 69.1095 19.3623 68.9839 19.2367C68.8582 19.1112 68.7876 18.9409 68.7876 18.7633V18.2835C68.7876 18.1059 68.8582 17.9357 68.9839 17.8101C69.1095 17.6845 69.28 17.614 69.4577 17.614Z" clip-rule="evenodd"/><path fill="#fff" fill-rule="evenodd" d="M69.6389 20.9613H86.709C86.8867 20.9613 87.0572 21.0318 87.1829 21.1574C87.3085 21.2829 87.3791 21.4532 87.3791 21.6308V22.1106C87.3791 22.2882 87.3085 22.4584 87.1829 22.584C87.0572 22.7096 86.8867 22.7801 86.709 22.7801H69.6389C69.4611 22.7801 69.2907 22.7096 69.165 22.584C69.0393 22.4584 68.9688 22.2882 68.9688 22.1106V21.6308C68.9688 21.4532 69.0393 21.2829 69.165 21.1574C69.2907 21.0318 69.4611 20.9613 69.6389 20.9613Z" clip-rule="evenodd"/><path fill="#fff" fill-rule="evenodd" d="M69.4577 28.2722H86.5279C86.7056 28.2722 86.876 28.3428 87.0017 28.4683C87.1274 28.5939 87.198 28.7641 87.198 28.9417V29.4237C87.198 29.6013 87.1274 29.7716 87.0017 29.8971C86.876 30.0227 86.7056 30.0932 86.5279 30.0932H69.4577C69.28 30.0932 69.1095 30.0227 68.9839 29.8971C68.8582 29.7716 68.7876 29.6013 68.7876 29.4237V28.9417C68.7876 28.7641 68.8582 28.5939 68.9839 28.4683C69.1095 28.3428 69.28 28.2722 69.4577 28.2722Z" clip-rule="evenodd"/><path fill="#fff" fill-rule="evenodd" d="M69.4577 31.3452H86.5279C86.7056 31.3452 86.876 31.4158 87.0017 31.5413C87.1274 31.6669 87.198 31.8371 87.198 32.0147V32.4945C87.198 32.6721 87.1274 32.8424 87.0017 32.9679C86.876 33.0935 86.7056 33.164 86.5279 33.164H69.4577C69.28 33.164 69.1095 33.0935 68.9839 32.9679C68.8582 32.8424 68.7876 32.6721 68.7876 32.4945V32.0147C68.7876 31.8371 68.8582 31.6669 68.9839 31.5413C69.1095 31.4158 69.28 31.3452 69.4577 31.3452Z" clip-rule="evenodd"/><path fill="#fff" fill-rule="evenodd" d="M69.6389 34.5098H86.709C86.8867 34.5098 87.0572 34.5803 87.1829 34.7059C87.3085 34.8314 87.3791 35.0017 87.3791 35.1793V35.6591C87.3791 35.8366 87.3085 36.0069 87.1829 36.1325C87.0572 36.258 86.8867 36.3286 86.709 36.3286H69.6389C69.4611 36.3286 69.2907 36.258 69.165 36.1325C69.0393 36.0069 68.9688 35.8366 68.9688 35.6591V35.177C68.9693 34.9999 69.0402 34.8301 69.1658 34.7051C69.2914 34.58 69.4615 34.5098 69.6389 34.5098Z" clip-rule="evenodd"/><path fill="#fff" fill-rule="evenodd" d="M30.2717 83.4808H47.3418C47.5196 83.4808 47.69 83.5514 47.8157 83.6769C47.9413 83.8025 48.012 83.9728 48.012 84.1503V84.6301C48.012 84.8077 47.9413 84.978 47.8157 85.1035C47.69 85.2291 47.5196 85.2996 47.3418 85.2996H30.2717C30.094 85.2996 29.9235 85.2291 29.7978 85.1035C29.6722 84.978 29.6016 84.8077 29.6016 84.6301V84.1503C29.6016 83.9728 29.6722 83.8025 29.7978 83.6769C29.9235 83.5514 30.094 83.4808 30.2717 83.4808Z" clip-rule="evenodd"/><path fill="#fff" fill-rule="evenodd" d="M30.2268 87.0181H47.2969C47.4746 87.0181 47.6451 87.0886 47.7708 87.2142C47.8964 87.3397 47.967 87.51 47.967 87.6876V88.1674C47.967 88.3449 47.8964 88.5152 47.7708 88.6408C47.6451 88.7663 47.4746 88.8369 47.2969 88.8369H30.2268C30.049 88.8369 29.8786 88.7663 29.7529 88.6408C29.6272 88.5152 29.5566 88.3449 29.5566 88.1674V87.6876C29.5566 87.51 29.6272 87.3397 29.7529 87.2142C29.8786 87.0886 30.049 87.0181 30.2268 87.0181Z" clip-rule="evenodd"/><path fill="#E6E6E6" fill-rule="evenodd" d="M37.7314 113.006L48.8285 112.56C49.4055 112.536 49.9683 112.742 50.393 113.133C50.8177 113.524 51.0697 114.068 51.0935 114.644L53.0145 161.658C53.0381 162.235 52.8316 162.797 52.4404 163.221C52.0491 163.645 51.5052 163.897 50.9282 163.921L39.8311 164.367C38.6293 164.416 36.9562 163.778 36.094 162.941L36.0628 162.912C35.1983 162.075 34.5215 160.424 34.5461 159.221L35.5088 115.271C35.5281 114.684 35.7672 114.126 36.1787 113.706C36.5902 113.287 37.1443 113.037 37.7314 113.006Z" clip-rule="evenodd"/><path fill="#E6E6E6" fill-rule="evenodd" d="M21.5011 56.3868C14.4858 61.1632 9.42041 68.2975 7.22695 76.4911C5.0335 84.6846 5.85782 93.3927 9.54988 101.03C13.2419 108.668 19.5563 114.727 27.3435 118.105C35.1307 121.482 43.873 121.954 51.9792 119.434C60.0853 116.914 67.0163 111.57 71.5105 104.375C76.0048 97.1791 77.7634 88.6105 76.4663 80.2285C75.1693 71.8465 70.9027 64.2085 64.4433 58.7047C57.984 53.201 49.7612 50.1974 41.2719 50.2408C34.2157 50.2746 27.3308 52.4148 21.5011 56.3868ZM27.4093 65.4115C31.8746 62.3678 37.2304 60.9034 42.6247 61.2514C48.019 61.5993 53.1418 63.7396 57.1782 67.3317C61.2146 70.9238 63.9326 75.7614 64.8998 81.0747C65.867 86.3881 65.0278 91.8719 62.5157 96.6538C60.0037 101.436 55.963 105.241 51.0367 107.464C46.1104 109.687 40.5815 110.2 35.3296 108.922C30.0776 107.644 25.4044 104.648 22.0535 100.41C18.7025 96.1724 16.8664 90.9369 16.8371 85.5365C16.8047 81.5717 17.7527 77.6602 19.597 74.1494C21.4413 70.6386 24.1249 67.6371 27.4093 65.4115Z" clip-rule="evenodd"/><path fill="#fff" fill-rule="evenodd" d="M18.4787 53.1464C11.4629 57.923 6.39708 65.0576 4.20331 73.2516C2.00954 81.4456 2.8337 90.1542 6.52578 97.7922C10.2179 105.43 16.5324 111.49 24.3199 114.868C32.1075 118.246 40.8503 118.718 48.957 116.199C57.0637 113.679 63.9953 108.335 68.4901 101.139C72.9848 93.9429 74.7438 85.3739 73.447 76.9913C72.1502 68.6088 67.8837 60.9702 61.4242 55.4658C54.9647 49.9615 46.7416 46.9574 38.2517 47.0005C31.1948 47.0338 24.309 49.1741 18.4787 53.1464ZM24.3892 62.1689C28.8543 59.1263 34.2096 57.6629 39.6031 58.0116C44.9966 58.3602 50.1185 60.5007 54.1539 64.0928C58.1894 67.6848 60.9066 72.5219 61.8733 77.8346C62.84 83.1472 62.0006 88.6303 59.4886 93.4114C56.9767 98.1926 52.9366 101.997 48.0109 104.22C43.0853 106.443 37.5571 106.956 32.3059 105.678C27.0547 104.4 22.382 101.404 19.0313 97.1673C15.6806 92.9305 13.8444 87.6958 13.8147 82.2961C13.7841 78.3311 14.7332 74.4198 16.5777 70.9088C18.4223 67.3979 21.1054 64.3959 24.3892 62.1689Z" clip-rule="evenodd"/><path fill="#fff" fill-rule="evenodd" d="M18.4787 53.1464C11.4629 57.923 6.39708 65.0576 4.20331 73.2516C2.00954 81.4456 2.8337 90.1542 6.52578 97.7922C10.2179 105.43 16.5324 111.49 24.3199 114.868C32.1075 118.246 40.8503 118.718 48.957 116.199C57.0637 113.679 63.9953 108.335 68.4901 101.139C72.9848 93.9429 74.7438 85.3739 73.447 76.9913C72.1502 68.6088 67.8837 60.9702 61.4242 55.4658C54.9647 49.9615 46.7416 46.9574 38.2517 47.0005C31.1948 47.0338 24.309 49.1741 18.4787 53.1464ZM24.3892 62.1689C28.8543 59.1263 34.2096 57.6629 39.6031 58.0116C44.9966 58.3602 50.1185 60.5007 54.1539 64.0928C58.1894 67.6848 60.9066 72.5219 61.8733 77.8346C62.84 83.1472 62.0006 88.6303 59.4886 93.4114C56.9767 98.1926 52.9366 101.997 48.0109 104.22C43.0853 106.443 37.5571 106.956 32.3059 105.678C27.0547 104.4 22.382 101.404 19.0313 97.1673C15.6806 92.9305 13.8444 87.6958 13.8147 82.2961C13.7841 78.3311 14.7332 74.4198 16.5777 70.9088C18.4223 67.3979 21.1054 64.3959 24.3892 62.1689Z" clip-rule="evenodd"/><path fill="#fff" fill-rule="evenodd" d="M37.7005 114.936H45.1656C45.6186 114.936 46.0672 115.025 46.4856 115.198C46.9041 115.372 47.2842 115.626 47.6042 115.946C47.9242 116.266 48.1778 116.646 48.3504 117.065C48.523 117.483 48.6112 117.932 48.61 118.384V159.223C48.61 160.135 48.2474 161.01 47.6018 161.655C46.9563 162.3 46.0808 162.662 45.1678 162.662H37.7005C36.7876 162.662 35.912 162.3 35.2665 161.655C34.621 161.01 34.2583 160.135 34.2583 159.223V118.384C34.2571 117.932 34.3453 117.484 34.5178 117.065C34.6902 116.647 34.9436 116.267 35.2633 115.947C35.5831 115.626 35.963 115.372 36.3812 115.199C36.7994 115.026 37.2477 114.936 37.7005 114.936Z" clip-rule="evenodd"/></svg>