<svg xmlns:xlink="http://www.w3.org/1999/xlink" fill="none" viewBox="0 0 551 643"><rect width="546.98" height="542.889" x="4.02" y="1.255" fill="#F7A501" rx="69.729"/><path fill="url(#pattern0)" d="M0 .877h550.753v543.248H0z" opacity=".2"/><path fill="#C14F0D" fill-rule="evenodd" d="M74.238 48.566l163.415-15.867 19.241 12.128c3.521 1.924 5.432 6.003 5.432 8.786v182.335a5.13 5.13 0 01-5.131 5.047H74.238c-2.835 0-7.632-1.981-9.877-3.617-2.244-1.635-16.675-15.238-16.675-15.238L69.107 53.613a5.092 5.092 0 015.131-5.047z" clip-rule="evenodd"/><path fill="#FB4F0D" fill-rule="evenodd" d="M52.13 32h182.945a5.081 5.081 0 013.612 1.46 5.097 5.097 0 011.519 3.587v182.329a5.093 5.093 0 01-1.519 3.588 5.092 5.092 0 01-3.612 1.46H52.131a5.076 5.076 0 01-3.612-1.46A5.085 5.085 0 0147 219.376V37.047A5.086 5.086 0 0152.13 32z" clip-rule="evenodd"/><path fill="#FFCEBB" fill-rule="evenodd" d="M76.983 52.273h131.425a10.262 10.262 0 0110.261 10.26v126.983a10.261 10.261 0 01-10.261 10.261H76.983a10.263 10.263 0 01-10.262-10.261V62.534a10.261 10.261 0 0110.262-10.261z" clip-rule="evenodd"/><path fill="#F96132" fill-rule="evenodd" d="M95.64 123.966a48.1 48.1 0 1148.101 48.202 48.142 48.142 0 01-44.457-29.77 48.145 48.145 0 01-3.644-18.432z" clip-rule="evenodd"/><path fill="#fff" fill-rule="evenodd" d="M163.135 96.03l-19.49 18.842-18.516-19.054-9.505 9.396 18.516 19.156-18.869 18.522 9.21 10.043 19.298-19.035 18.42 19.06 9.62-9.35-18.561-19.298 19.016-18.752-9.139-9.53z" clip-rule="evenodd"/><path fill="#E24F0D" fill-rule="evenodd" d="M238 32.834l.763 190.794 18.849 14.398c2.412 1.847 4.374.879 4.387-2.155l.712-181.123c0-3.245-2.187-7.305-4.906-9.068L238 32.834z" clip-rule="evenodd"/><path fill="#35416B" fill-rule="evenodd" d="M326.406 168.22l11.178 7.331.551 149.732 171.085-8.844 11.007 7.606-.655 17.396-198.521.055L310 333.791l16.406-165.571z" clip-rule="evenodd"/><path fill="#828EB7" fill-rule="evenodd" d="M338.547 198.929l12.659-9.801 12.405 9.801v119.634h-25.047l-.017-119.634zm44.503 16.797l12.273-9.516 12.774 9.516v103.068H383.05V215.726zm49.956 27.578l12.24-9.72 12.79 9.72v74.786H432.99l.016-74.786zm50.347 23.604l12.158-9.708 12.895 9.708v50.808h-25.053v-50.808z" clip-rule="evenodd"/><path fill="#A2AACA" fill-rule="evenodd" d="M325.95 188.143h25.047v130.58H325.95v-130.58z" clip-rule="evenodd"/><path fill="#A1AACA" fill-rule="evenodd" d="M370.672 206.034h25.047v116.673h-25.047V206.034zm49.94 27.583h25.047v85.414h-25.047v-85.414zm50.363 23.605h25.036v63.966h-25.047l.011-63.966z" clip-rule="evenodd"/><path fill="#707FB1" fill-rule="evenodd" d="M310.242 168.435l16.307-.435.551 149.732 182.12-1.216-.655 17.391-198.526.06.203-165.532z" clip-rule="evenodd"/><path fill="#E24F0D" fill-rule="evenodd" d="M73.054 301.896l168.835-10.593c4.889 0 19.845 14.558 19.845 19.453V575.66a8.856 8.856 0 01-8.859 8.859H73.055c-4.896 0-23.357-13.444-23.357-18.333l14.497-255.43a8.859 8.859 0 018.86-8.86z" clip-rule="evenodd"/><path fill="#F96132" fill-rule="evenodd" d="M57.86 289h179.82a8.859 8.859 0 018.86 8.859v264.888a8.862 8.862 0 01-8.86 8.859H57.86a8.86 8.86 0 01-8.86-8.859V297.859A8.858 8.858 0 0157.86 289z" clip-rule="evenodd"/><path fill="#E24F0D" fill-rule="evenodd" d="M115.886 343.613l71.476-10.222c4.895 0 19.586 14.713 19.586 20.261v160.523c0 5.537-3.965 10.039-8.86 10.039h-82.202c-4.895 0-22.98-13.567-22.98-19.115l14.12-151.447c0-5.548 3.965-10.039 8.86-10.039z" clip-rule="evenodd"/><path fill="#FFE0D6" fill-rule="evenodd" d="M101.749 332.4h82.202c4.895 0 8.86 4.496 8.86 10.039v160.523c0 5.537-3.965 10.039-8.86 10.039h-82.202c-4.895 0-8.86-4.491-8.86-10.039V342.439c0-5.543 3.965-10.039 8.86-10.039z" clip-rule="evenodd"/><path fill="#FFB39C" fill-rule="evenodd" d="M76 331.758l90.686-.122a7.756 7.756 0 017.248 5.809l17.708 79.464c.715 3.211-1.373 5.814-4.662 5.814H99.085a8.063 8.063 0 01-7.425-5.77l-20.15-79.414c-.81-3.19 1.2-5.775 4.49-5.781z" clip-rule="evenodd"/><path fill="#FF7E56" fill-rule="evenodd" d="M168.225 331.863s3.378 1.346 5.05 4.186c1.672 2.841 5.039 21.136 5.039 21.136l13.157 59.043 1.24 4.07.233-78.695a9.073 9.073 0 00-8.716-9.164l-16.003-.576z" clip-rule="evenodd"/><path fill="#FF531E" fill-rule="evenodd" d="M133.212 465.331a5.884 5.884 0 00-1.046-3.732 3.423 3.423 0 00-2.83-1.318 3.473 3.473 0 00-2.841 1.313c-.708.874-1.063 2.12-1.063 3.737s.355 2.863 1.063 3.738a3.474 3.474 0 002.841 1.318 3.442 3.442 0 002.83-1.318c.697-.875 1.046-2.121 1.046-3.738zm.803 5.919c-1.107 1.108-2.652 1.662-4.701 1.662-2.049 0-3.616-.554-4.701-1.662-1.455-1.369-2.182-3.342-2.182-5.919 0-2.624.725-4.601 2.182-5.914 1.085-1.107 2.652-1.661 4.701-1.661 2.049 0 3.616.554 4.701 1.661 1.445 1.313 2.171 3.29 2.171 5.914 0 2.625-.704 4.552-2.171 5.919zm4.48-13.051h10.172v2.52h-7.199v3.322h6.296v2.492h-6.29v6.013h-2.979v-14.347zm12.177 0h10.172v2.52h-7.199v3.322h6.296v2.492h-6.29v6.013h-2.979v-14.347z" clip-rule="evenodd"/><path fill="#C14F0D" fill-rule="evenodd" d="M129.69 378.486a5.882 5.882 0 00-1.511-3.571 3.423 3.423 0 00-2.974-.947 3.476 3.476 0 00-2.652 1.661 7.112 7.112 0 00.941 7.42 3.47 3.47 0 002.99.941 3.432 3.432 0 002.636-1.661 5.828 5.828 0 00.57-3.843zm1.556 5.753c-.93 1.248-2.406 2.001-4.429 2.259-2.023.259-3.648-.096-4.873-1.063-1.617-1.17-2.59-3.034-2.919-5.592-.328-2.558.141-4.607 1.407-6.147.93-1.244 2.407-1.997 4.43-2.259 2.023-.262 3.647.093 4.873 1.063 1.606 1.108 2.575 2.972 2.907 5.593.347 2.558-.118 4.607-1.396 6.146zm2.725-13.516l3.123-.404 6.944 9.203-1.279-9.928 2.768-.36 1.833 14.23-2.973.382-7.11-9.358 1.295 10.106-2.768.354-1.833-14.225z" clip-rule="evenodd"/><path fill="#C8C8C8" fill-rule="evenodd" d="M188.204 495.721l-27.361-10.613 27.037 137.86 27.585 11.108 29.64-17.674-11.394 15.45 28.149 9.964 20.131-12.066-16.77-25.591 29.594-17.365-106.611-91.073z" clip-rule="evenodd"/><path fill="#fff" fill-rule="evenodd" d="M160.927 485.416l27.285 138.347 29.64-17.674 15.959 25.939 20.394-12.058-16.261-26.14 29.594-17.365-106.611-91.049z" clip-rule="evenodd"/><path fill="#ABABAB" fill-rule="evenodd" d="M188.096 623.887l28.095 9.811 13.619-8.273-11.958-19.358-29.756 17.82zm45.53 8.127l28.026 9.995 20.363-12.212-27.98-9.702-20.409 11.919zm4.287-38.229l27.261 10.374 2.913-1.676L295 586.856l-27.809-10.567-29.278 17.496z" clip-rule="evenodd"/><defs><pattern id="pattern0" width="1" height="1" patternContentUnits="objectBoundingBox"><use transform="matrix(.0018 0 0 .00193 -.053 -.061)" xlink:href="#image0"/></pattern></defs></svg>