<svg xmlns:xlink="http://www.w3.org/1999/xlink" fill="none" viewBox="0 0 342 339"><rect width="341.805" height="338" fill="url(#pattern0)" rx="35.512"/><path fill="#35416B" fill-rule="evenodd" stroke="#35416B" stroke-linecap="round" stroke-linejoin="round" stroke-width="1.298" d="M308.23 121.964c-11.036-3.67-37.479-12.341-37.479-12.341l-148.159 12.341a5.484 5.484 0 00-5.083 3.359 5.488 5.488 0 00-.428 2.096l-.1 210.037 196.473-.03.298-210.007c-.019-3.014-1.949-4.266-5.522-5.455z" clip-rule="evenodd"/><path fill="#F7A501" fill-rule="evenodd" stroke="#35416B" stroke-linecap="round" stroke-linejoin="round" stroke-width="1.298" d="M268.94 109.59H83.29a5.48 5.48 0 00-5.51 5.455v217.504A5.487 5.487 0 0083.29 338h185.65a5.482 5.482 0 005.51-5.455V115.03a5.478 5.478 0 00-5.51-5.44z" clip-rule="evenodd"/><path fill="#35416B" fill-rule="evenodd" stroke="#35416B" stroke-linecap="round" stroke-linejoin="round" stroke-width="1.298" d="M254.517 120.898H96.164a6.395 6.395 0 00-6.394 6.394v159.601a6.393 6.393 0 006.405 6.394h158.353a6.394 6.394 0 006.394-6.394V127.292a6.393 6.393 0 00-6.405-6.394z" clip-rule="evenodd"/><rect width="74.738" height="74.738" x="144.683" y="167.463" fill="#F96132" rx="4.822"/><path fill="#fff" fill-rule="evenodd" d="M42.846 21h114.488c2.675 0 4.846 3.036 4.846 6.788v236.556c0 3.746-2.171 6.788-4.846 6.788H42.846c-2.678 0-4.846-3.037-4.846-6.788V27.783C38 24.036 40.168 21 42.846 21z" clip-rule="evenodd"/><path fill="#454545" fill-rule="evenodd" d="M76.225 35.586h5.332v1.305h-3.772v1.729h3.302v1.305h-3.302v3.164h-1.567l.007-7.503zm7.822 7.503h-1.568V35.57h1.568v7.52zm1.463-7.519h1.567v6.164h3.726v1.35H85.51V35.57zm11.08 0v1.33h-2.253v6.19H92.77v-6.186h-2.26V35.57h6.08zm6.478 1.334H99.09v1.598h3.657v1.306H99.09v1.932h4.164v1.35h-5.7v-7.52h5.514v1.334zm2.986-.028v2.018h1.779c.271.013.542-.028.797-.123a.837.837 0 00.47-.846c0-.457-.151-.762-.454-.919a1.718 1.718 0 00-.763-.13h-1.829zm4.091-.588c.163.189.294.402.389.632a2.237 2.237 0 01-.12 1.828 1.497 1.497 0 01-.893.731c.307.107.567.318.736.595.169.367.243.771.217 1.175v.506c-.008.233.006.467.042.697a.62.62 0 00.285.428v.188h-1.743a3.607 3.607 0 01-.167-1.05v-.696c0-.48-.094-.8-.261-.961-.167-.162-.483-.237-.946-.237h-1.63v2.965h-1.541V35.57h3.688a3.41 3.41 0 011.218.194c.28.115.527.297.721.53l.005-.006zm3.015 4.483c.021.282.118.553.282.783.261.308.692.465 1.306.465.306.009.611-.033.904-.123a.88.88 0 00.658-.872.648.648 0 00-.326-.577 3.534 3.534 0 00-1.027-.352l-.797-.178a5.102 5.102 0 01-1.622-.577c-.507-.347-.76-.887-.76-1.626a2.173 2.173 0 01.734-1.679c.491-.444 1.209-.665 2.16-.665a3.28 3.28 0 012.028.629 2.258 2.258 0 01.88 1.827h-1.51a1.084 1.084 0 00-.593-.963 1.996 1.996 0 00-.914-.188 1.728 1.728 0 00-.97.243.782.782 0 00-.36.684.646.646 0 00.355.603c.314.14.643.244.98.31l1.306.311c.462.09.9.276 1.285.546a1.824 1.824 0 01.674 1.535 2.15 2.15 0 01-.196.944 2.18 2.18 0 01-.587.766c-.523.454-1.27.681-2.229.681-.959 0-1.75-.224-2.312-.67a2.238 2.238 0 01-.841-1.844l1.492-.013zM84.2 156.272c.023.278.12.544.28.771.262.308.695.464 1.307.464.306.009.611-.032.904-.122a.873.873 0 00.658-.872.65.65 0 00-.327-.577 3.463 3.463 0 00-1.026-.353l-.784-.177a5.003 5.003 0 01-1.625-.577c-.507-.348-.76-.888-.76-1.627a2.169 2.169 0 01.734-1.676c.491-.445 1.21-.668 2.158-.668.727-.021 1.44.2 2.027.629a2.244 2.244 0 01.88 1.828h-1.512a1.079 1.079 0 00-.59-.964 2.003 2.003 0 00-.915-.188 1.695 1.695 0 00-.97.246.78.78 0 00-.362.681.652.652 0 00.358.603c.313.141.642.245.98.311l1.306.31c.462.089.9.275 1.285.546a1.831 1.831 0 01.674 1.535 2.158 2.158 0 01-.784 1.71c-.522.454-1.264.682-2.226.682-.961 0-1.732-.224-2.312-.671a2.225 2.225 0 01-.84-1.844H84.2zm11.297-5.195v1.332h-2.244v6.184H91.67v-6.184h-2.26v-1.332h6.087zm6.482 1.332h-3.982v1.595h3.658v1.305h-3.658v1.922h4.165v1.352h-5.7v-7.506h5.517v1.332zm4.47-.027h-1.466v2.212h1.466c.31.022.618-.071.865-.261a1.088 1.088 0 00.308-.857 1.028 1.028 0 00-.308-.835 1.342 1.342 0 00-.865-.259zm.133 3.507h-1.599v2.704h-1.567v-7.516h3.276a2.677 2.677 0 011.808.58c.449.39.674.99.674 1.801 0 .888-.225 1.515-.674 1.882-.45.368-1.091.55-1.923.549h.005zm4.911.384c.023.277.121.543.282.77.262.308.693.464 1.307.464.305.009.609-.032.901-.122a.874.874 0 00.658-.872.63.63 0 00-.083-.334.63.63 0 00-.243-.243 3.514 3.514 0 00-1.024-.353l-.797-.177a5.034 5.034 0 01-1.622-.577c-.507-.347-.761-.888-.761-1.627a2.169 2.169 0 01.734-1.676c.492-.445 1.211-.668 2.158-.668.728-.021 1.442.2 2.03.629a2.256 2.256 0 01.881 1.828h-1.5a1.086 1.086 0 00-.593-.964 2.003 2.003 0 00-.914-.188 1.698 1.698 0 00-.97.246.789.789 0 00-.36.681.647.647 0 00.355.603c.314.141.642.245.98.311l1.306.31c.463.09.902.276 1.288.546a1.834 1.834 0 01.671 1.535 2.152 2.152 0 01-.783 1.71c-.523.455-1.266.682-2.229.682-.963 0-1.733-.224-2.312-.671a2.235 2.235 0 01-.841-1.843h1.481z" clip-rule="evenodd"/><path fill="#F7A501" fill-rule="evenodd" d="M64.54 57.015h25.863c1.905 0 3.733.756 5.08 2.103a7.177 7.177 0 01-5.08 12.256H64.54a7.187 7.187 0 01-5.08-2.103 7.177 7.177 0 015.08-12.256z" clip-rule="evenodd"/><path fill="#fff" fill-rule="evenodd" d="M60.274 64.179a4.83 4.83 0 013.072-4.373 4.839 4.839 0 016.514 3.606 4.83 4.83 0 01-4.753 5.727 4.902 4.902 0 01-4.833-4.96z" clip-rule="evenodd"/><path fill="#C6CBCD" fill-rule="evenodd" d="M64.6 78.16h25.863a7.177 7.177 0 110 14.359H64.6a7.187 7.187 0 01-5.08-2.103 7.177 7.177 0 015.08-12.257z" clip-rule="evenodd"/><path fill="#fff" fill-rule="evenodd" d="M84.076 85.435a4.83 4.83 0 013.072-4.372 4.839 4.839 0 016.514 3.605 4.83 4.83 0 01-2.08 4.923 4.838 4.838 0 01-2.673.805 4.903 4.903 0 01-4.833-4.96z" clip-rule="evenodd"/><path fill="#F7A501" fill-rule="evenodd" d="M64.662 101.285h25.864a7.19 7.19 0 015.08 2.103 7.177 7.177 0 01-5.08 12.256H64.662a7.184 7.184 0 01-7.184-7.179 7.18 7.18 0 012.105-5.076 7.192 7.192 0 015.08-2.104z" clip-rule="evenodd"/><path fill="#fff" fill-rule="evenodd" d="M60.396 108.452a4.834 4.834 0 018.299-3.244 4.833 4.833 0 01-3.466 8.204 4.898 4.898 0 01-4.833-4.96z" clip-rule="evenodd"/><path fill="#C6CBCD" fill-rule="evenodd" d="M65.345 124.536h25.863a7.18 7.18 0 110 14.359H65.345a7.18 7.18 0 110-14.359z" clip-rule="evenodd"/><path fill="#fff" fill-rule="evenodd" d="M85.891 131.739a4.83 4.83 0 013.073-4.372 4.839 4.839 0 016.513 3.605 4.831 4.831 0 01-4.753 5.728 4.904 4.904 0 01-4.833-4.961z" clip-rule="evenodd"/><path fill="#35416B" fill-rule="evenodd" d="M109.73 59.09h33.277a2.233 2.233 0 012.231 2.23 2.233 2.233 0 01-2.231 2.232H109.73a2.233 2.233 0 01-1.579-3.809 2.236 2.236 0 011.579-.653zm1.115 20.886h23.131c1.4 0 2.537.964 2.537 2.152 0 1.19-1.137 2.153-2.537 2.153h-23.131c-1.403 0-2.536-.963-2.536-2.153 0-1.188 1.141-2.152 2.536-2.152zm-.292-13.753h23.13c1.401 0 2.537.963 2.537 2.151 0 1.19-1.136 2.154-2.537 2.154h-23.13c-1.403 0-2.537-.963-2.537-2.154 0-1.188 1.134-2.151 2.537-2.151zm.483 36.112h30.639a2.236 2.236 0 012.234 2.232 2.218 2.218 0 01-.655 1.577 2.22 2.22 0 01-1.579.652h-30.639a2.226 2.226 0 01-1.577-.653 2.226 2.226 0 01-.001-3.154 2.217 2.217 0 011.578-.654zm.504 22.818h28.998a2.028 2.028 0 110 4.054H111.54a2.033 2.033 0 01-2.03-2.029 2.028 2.028 0 012.03-2.025zm.053 6.25h21.915a2.008 2.008 0 011.435.592 2.03 2.03 0 01-1.435 3.462h-21.915a2.028 2.028 0 110-4.054z" clip-rule="evenodd"/><path fill="#F96132" fill-rule="evenodd" d="M63.814 169.271h44.837a6.785 6.785 0 014.803 11.588 6.796 6.796 0 01-4.803 1.988H63.814a6.794 6.794 0 01-6.793-6.788 6.787 6.787 0 016.793-6.788z" clip-rule="evenodd"/><path fill="#35416B" fill-rule="evenodd" d="M63.424 188.28h44.84a6.794 6.794 0 016.793 6.788 6.794 6.794 0 01-6.793 6.788h-44.84a6.794 6.794 0 01-6.792-6.788 6.787 6.787 0 016.792-6.788z" clip-rule="evenodd"/><path fill="#F7A501" fill-rule="evenodd" d="M64.2 207.291h44.84a6.795 6.795 0 016.793 6.788 6.794 6.794 0 01-6.793 6.788H64.2a6.794 6.794 0 01-4.803-1.988 6.785 6.785 0 010-9.599 6.795 6.795 0 014.803-1.989z" clip-rule="evenodd"/><path fill="#0316F0" fill-rule="evenodd" d="M80.264 234.247h37.097a2.967 2.967 0 012.095.849 2.943 2.943 0 01.88 2.081v9.21a2.942 2.942 0 01-1.843 2.715c-.359.146-.744.22-1.132.217H80.264a2.95 2.95 0 01-2.095-.85 2.95 2.95 0 01-.88-2.082v-9.203a2.947 2.947 0 011.841-2.72 2.96 2.96 0 011.134-.217z" clip-rule="evenodd"/><path fill="#fff" fill-rule="evenodd" d="M92.885 242.079a.745.745 0 00.133.366.772.772 0 00.622.222c.146.004.291-.016.43-.06a.413.413 0 00.312-.413.312.312 0 00-.154-.261 1.658 1.658 0 00-.489-.167l-.376-.086a2.418 2.418 0 01-.77-.261.874.874 0 01-.364-.783 1.043 1.043 0 01.35-.799c.29-.23.655-.343 1.024-.316.346-.01.684.095.964.297a1.082 1.082 0 01.418.87h-.716a.524.524 0 00-.282-.457.942.942 0 00-.433-.091.792.792 0 00-.46.117.366.366 0 00-.173.324.31.31 0 00.17.287c.149.067.305.116.465.146l.617.149c.219.044.426.133.608.261a.88.88 0 01.322.731 1.042 1.042 0 01-.374.812c-.303.232-.68.347-1.06.324a1.72 1.72 0 01-1.098-.319 1.057 1.057 0 01-.4-.877l.714-.016zm3.746-.248h.907l-.444-1.407-.463 1.407zm.047-2.221h.844l1.264 3.569h-.81l-.23-.734H96.44l-.245.734h-.784l1.267-3.569zm4.653 0h.783l-1.22 3.569h-.705l-1.207-3.569h.802l.784 2.71.763-2.71zm3.861.642h-1.891v.757h1.737v.621h-1.737v.919h1.969v.64h-2.698v-3.579h2.612l.008.642z" clip-rule="evenodd"/><path fill="#8C8C8C" fill-rule="evenodd" d="M144.683 129.866l10.618 34.487 7.306-5.373 5.073 6.59 6.153-4.984 2.932-5.096-8.391-1.404 7.285-5.742 2.861-5.011-30.923-18.664-2.914 5.197z" clip-rule="evenodd"/><path fill="#E4E4E4" fill-rule="evenodd" d="M147.57 124.787l10.619 34.487 7.309-5.37 5.07 6.591 6.153-4.985-5.463-6.505 7.283-5.739-30.971-18.479z" clip-rule="evenodd"/><path fill="#3F3F3F" fill-rule="evenodd" d="M155.266 164.4l2.881-5.108 7.212-5.285-2.861 5.114-7.232 5.279zm15.302-3.846l6.224-5.112-3.109 5.48-5.994 4.669 2.879-5.037zm.649-11.443l7.265-5.754-2.782 5.226-2.988 2.117-1.495-1.589z" clip-rule="evenodd"/><path fill="#fff" d="M175.301 213.235h6.269v-24.109h-6.269v24.109zm0 3.858v4.821h6.269v-4.821h-6.269z"/><defs><pattern id="pattern0" width="1" height="1" patternContentUnits="objectBoundingBox"><use transform="translate(-.102 -.098) scale(.00221)" xlink:href="#image0"/></pattern></defs></svg>