<svg xmlns="http://www.w3.org/2000/svg" width="119" height="119" fill="none" viewBox="0 0 119 119"><rect width="119" height="119" fill="#769FD1" rx="8"/><path fill="#FF8964" fill-rule="evenodd" d="M90.7972 88.6752L100.996 81.7717L100.732 49.5107L90.4033 55.9002L90.7972 88.6752Z" clip-rule="evenodd"/><path fill="#F96132" fill-rule="evenodd" d="M90.4039 55.9424L90.8687 88.6397L19.9556 69.0981L19.906 38.0664L90.4039 55.9424Z" clip-rule="evenodd"/><path fill="#EB9E86" fill-rule="evenodd" d="M100.595 49.6383L90.3447 56.0227L19.8867 38.3493L28.2746 32.0034L100.595 49.6383Z" clip-rule="evenodd"/><path stroke="#35416B" stroke-linecap="round" stroke-linejoin="round" stroke-width=".275" d="M42.4917 44.1226L42.6143 75.0381"/><path stroke="#35416B" stroke-linecap="round" stroke-linejoin="round" stroke-width=".275" d="M66.2612 50.4967L66.3797 81.4086"/><path fill="#F7A501" fill-rule="evenodd" d="M21.8672 43.109L19.8909 44.8676L21.6909 64.7824L42.4819 64.7199L66.1086 67.7694L86.1683 73.1424L88.022 71.3824L66.4611 64.6553L42.6582 55.0667L21.8672 43.109Z" clip-rule="evenodd"/><path fill="#FFD480" fill-rule="evenodd" d="M19.904 44.8138L19.7263 66.4872L40.5173 66.4247L64.144 69.4743C64.144 69.4743 87.1792 73.9585 86.0574 73.0865C84.9357 72.2145 64.498 66.3601 64.498 66.3601L40.695 56.7716L19.904 44.8138Z" clip-rule="evenodd"/></svg>