<svg xmlns:xlink="http://www.w3.org/1999/xlink" fill="none" viewBox="0 0 348 343"><rect width="348" height="342.465" fill="#F7A501" rx="45.998"/><g clip-path="url(#clip0)"><path fill="#35416B" fill-rule="evenodd" d="M122.958 128.404h101.599a1.16 1.16 0 011.157 1.156v88.355a1.159 1.159 0 01-1.157 1.155H122.958a1.154 1.154 0 01-1.156-1.155V129.56a1.161 1.161 0 011.156-1.156z" clip-rule="evenodd"/><path fill="#fff" fill-rule="evenodd" d="M129.121 134.767H217.7a1.16 1.16 0 011.157 1.156v68.036a1.159 1.159 0 01-1.157 1.155h-88.579a1.158 1.158 0 01-1.07-.713 1.153 1.153 0 01-.087-.442v-68.043a1.153 1.153 0 011.157-1.155v.006z" clip-rule="evenodd"/><path fill="#35416B" fill-rule="evenodd" d="M233.894 127.632H335.49a1.156 1.156 0 01.82.335 1.147 1.147 0 01.337.817v88.362c0 .151-.03.3-.087.44a1.16 1.16 0 01-1.07.712H233.894a1.161 1.161 0 01-1.156-1.152v-88.362a1.153 1.153 0 011.156-1.152z" clip-rule="evenodd"/><path fill="#fff" fill-rule="evenodd" d="M240.053 133.989h88.583a1.163 1.163 0 011.157 1.155v68.055a1.157 1.157 0 01-1.157 1.155h-88.583a1.16 1.16 0 01-1.156-1.155v-68.055a1.159 1.159 0 011.156-1.155z" clip-rule="evenodd"/><path fill="#35416B" fill-rule="evenodd" d="M12.792 128.015H114.38c.306.001.6.123.817.339.216.217.338.51.339.816v88.359a1.162 1.162 0 01-.339.816 1.164 1.164 0 01-.817.339H12.792a1.163 1.163 0 01-1.156-1.155V129.17a1.16 1.16 0 011.156-1.155z" clip-rule="evenodd"/><path fill="#fff" fill-rule="evenodd" d="M18.955 134.375h88.579a1.162 1.162 0 011.16 1.155v68.043a1.158 1.158 0 01-1.16 1.155h-88.58a1.163 1.163 0 01-1.156-1.155V135.53a1.16 1.16 0 011.157-1.155z" clip-rule="evenodd"/><path fill="#35416B" fill-rule="evenodd" d="M249.05 225.954h93.9a1.048 1.048 0 011.047 1.049v39.812a1.05 1.05 0 01-1.047 1.049h-93.9a1.053 1.053 0 01-.744-.314 1.064 1.064 0 01-.315-.741v-39.806a1.064 1.064 0 011.059-1.049zm-245 .22h100.436a1.043 1.043 0 011.05 1.048v39.81a1.107 1.107 0 01-.079.402c-.053.126-.13.241-.226.339a1 1 0 01-.343.226 1.047 1.047 0 01-.402.082H4.05A1.047 1.047 0 013 267.032v-39.819a1.044 1.044 0 01.314-.735c.196-.193.46-.303.736-.304zm109.669-.336h125.979a.928.928 0 01.378.078 1 1 0 01.314.23.974.974 0 01.214.342c.05.129.075.266.075.405v40.133c.001.276-.101.542-.286.747a.957.957 0 01-.698.314H113.719a.94.94 0 01-.694-.314 1.09 1.09 0 01-.289-.747v-40.133a1.098 1.098 0 01.289-.747.977.977 0 01.314-.23.937.937 0 01.38-.078z" clip-rule="evenodd"/><path fill="url(#pattern0)" d="M6.275 122.839H120.35v93.544H6.275z"/><path fill="url(#pattern1)" d="M116.264 135.709h114.075v65.921H116.264z"/><path fill="url(#pattern2)" d="M227.511 152.974h113.447v34.216H227.511z"/><path fill="#35416B" fill-rule="evenodd" d="M148.454 73h52.371a4.976 4.976 0 013.491 1.475 4.964 4.964 0 011.424 3.497v33.755a4.939 4.939 0 01-1.422 3.513 4.95 4.95 0 01-3.493 1.478h-52.371a4.96 4.96 0 01-4.915-4.985V77.985A4.947 4.947 0 01148.454 73z" clip-rule="evenodd"/><path fill="#35416B" fill-rule="evenodd" stroke="#fff" stroke-linecap="round" stroke-linejoin="round" stroke-width="1.85" d="M150.716 79.31h34.336v7.505h-34.336v-7.506z" clip-rule="evenodd"/><path fill="#9ABCE6" fill-rule="evenodd" d="M150.374 94.484l27.309-.343-27.309.343z" clip-rule="evenodd"/><path stroke="#fff" stroke-linecap="round" stroke-linejoin="round" stroke-width="1.85" d="M150.374 94.484l27.309-.343"/><path fill="#9ABCE6" fill-rule="evenodd" d="M150.374 99.261l27.293-.172-27.293.172z" clip-rule="evenodd"/><path stroke="#fff" stroke-linecap="round" stroke-linejoin="round" stroke-width="1.85" d="M150.374 99.261l27.293-.172"/><path fill="#9ABCE6" fill-rule="evenodd" d="M150.374 104.887l27.34-.176-27.34.176z" clip-rule="evenodd"/><path stroke="#fff" stroke-linecap="round" stroke-linejoin="round" stroke-width="1.85" d="M150.374 104.887l27.34-.176"/><path fill="#35416B" fill-rule="evenodd" stroke="#fff" stroke-linecap="round" stroke-linejoin="round" stroke-width="1.85" d="M184.091 96.056h13.88v12.855h-13.88V96.056z" clip-rule="evenodd"/><path fill="#9ABCE6" fill-rule="evenodd" d="M188.817 99.67l5.069 5.169-5.069-5.17z" clip-rule="evenodd"/><path stroke="#FB4F0D" stroke-linecap="round" stroke-linejoin="round" stroke-width="1.85" d="M188.817 99.67l5.069 5.169"/><path fill="#9ABCE6" fill-rule="evenodd" d="M193.886 99.672l-5.135 5.08 5.135-5.08z" clip-rule="evenodd"/><path stroke="#FB4F0D" stroke-linecap="round" stroke-linejoin="round" stroke-width="1.85" d="M193.886 99.672l-5.135 5.08"/><path stroke="#35416B" stroke-linecap="round" stroke-linejoin="round" stroke-width="1.85" d="M173.773 115.679v41.712"/></g><defs><pattern id="pattern0" width="1" height="1" patternContentUnits="objectBoundingBox"><use transform="scale(.00275 .00336)" xlink:href="#image0"/></pattern><pattern id="pattern1" width="1" height="1" patternContentUnits="objectBoundingBox"><use transform="scale(.00275 .00476)" xlink:href="#image1"/></pattern><pattern id="pattern2" width="1" height="1" patternContentUnits="objectBoundingBox"><use transform="scale(.00277 .00917)" xlink:href="#image2"/></pattern><clipPath id="clip0"><path fill="#fff" d="M0 0h341v195.084H0z" transform="translate(3 73)"/></clipPath></defs></svg>