<svg width="232" height="293" viewBox="0 0 232 293" fill="none" xmlns="http://www.w3.org/2000/svg">
<path d="M190.6 22.55H42.6229C31.5789 22.55 22.626 31.5044 22.626 42.55V253.55C22.626 264.596 31.5789 273.55 42.6229 273.55H190.6C201.644 273.55 210.597 264.596 210.597 253.55V42.55C210.597 31.5044 201.644 22.55 190.6 22.55Z" fill="#35416B"/>
<path fill-rule="evenodd" clip-rule="evenodd" d="M175.672 220.61L199.589 205.25L198.969 133.5L174.752 147.71L175.672 220.61Z" fill="#FF8964"/>
<path fill-rule="evenodd" clip-rule="evenodd" d="M174.752 147.8L175.842 220.53L9.55796 177.06L9.43799 108.06L174.752 147.8Z" fill="#F96132"/>
<path fill-rule="evenodd" clip-rule="evenodd" d="M198.649 133.78L174.653 147.98L9.36816 108.67L29.0351 94.5601L198.649 133.78Z" fill="#EB9E86"/>
<path d="M62.3599 121.51L62.6498 190.28" stroke="#35416B" stroke-width="0.65" stroke-linecap="round" stroke-linejoin="round"/>
<path d="M118.141 135.69L118.411 204.44" stroke="#35416B" stroke-width="0.65" stroke-linecap="round" stroke-linejoin="round"/>
<path fill-rule="evenodd" clip-rule="evenodd" d="M14.0374 119.26L9.36816 123.14L13.5875 167.43L62.3399 167.3L117.781 174.14L164.774 186.09L169.123 182.17L118.571 167.17L62.7499 145.84L14.0374 119.26Z" fill="#F7A501"/>
<path fill-rule="evenodd" clip-rule="evenodd" d="M9.43798 123.05L9.01807 171.26L57.7705 171.12L113.172 177.9C113.172 177.9 167.164 187.9 164.554 185.9C161.944 183.9 114.002 170.9 114.002 170.9L58.1904 149.58L9.43798 123.05Z" fill="#FFD480"/>
</svg>
