<svg xmlns:xlink="http://www.w3.org/1999/xlink" fill="none" viewBox="0 0 346 338"><rect width="346" height="337.52" fill="url(#pattern0)" rx="31.66"/><g clip-path="url(#clip0)"><path fill="#35416B" fill-rule="evenodd" d="M298.085 271.011l40.229-25.824-1.041-120.683-40.741 23.902 1.553 122.605z" clip-rule="evenodd"/><path fill="#769FD1" fill-rule="evenodd" d="M296.532 148.564l1.833 122.314-279.707-73.101-.196-116.084 278.07 66.871z" clip-rule="evenodd"/><path fill="#AED0FB" fill-rule="evenodd" d="M336.73 124.982l-40.432 23.883L18.386 82.752l33.085-23.738 285.259 65.968z" clip-rule="evenodd"/><path stroke="#35416B" stroke-linecap="round" stroke-linejoin="round" stroke-width="1.086" d="M107.55 104.348l.484 115.649m93.271-91.804l.467 115.635"/><path fill="#5C7DB2" fill-rule="evenodd" d="M26.198 100.557l-7.796 6.578 7.1 74.497 82.008-.233 93.192 11.407 79.123 20.1 7.312-6.584-85.044-25.165-93.888-35.869-82.007-44.731z" clip-rule="evenodd"/><path fill="#35416B" fill-rule="evenodd" d="M18.454 106.934l-.7 81.076 82.007-.234 93.192 11.408s90.859 16.774 86.435 13.512c-4.425-3.262-85.039-25.162-85.039-25.162l-93.888-35.869-82.007-44.731z" clip-rule="evenodd"/><path fill="#E24F0D" fill-rule="evenodd" d="M75.218 274.933L99 259.995l-.622-69.875-24.094 13.828.934 70.985z" clip-rule="evenodd"/><path fill="#FF9574" fill-rule="evenodd" d="M74.297 204.046l1.087 70.8-68.37-17.489.56-69.019 66.723 15.708z" clip-rule="evenodd"/><path fill="#F96132" fill-rule="evenodd" d="M98.096 190.791l-23.902 13.825-66.887-15.582 23.424-13.502 67.365 15.259z" clip-rule="evenodd"/><path fill="#C14F0D" fill-rule="evenodd" d="M159.868 297.626l23.782-14.938-.622-69.861-24.097 13.83.937 70.969z" clip-rule="evenodd"/><path fill="#FF9574" fill-rule="evenodd" d="M158.947 226.736l1.087 70.804-68.367-17.492.554-69.014 66.726 15.702z" clip-rule="evenodd"/><path fill="#F96132" fill-rule="evenodd" d="M182.727 213.093l-23.902 13.825-66.9-15.577 23.423-13.502 67.379 15.254z" clip-rule="evenodd"/><path fill="#C14F0D" fill-rule="evenodd" d="M248.362 317.986l23.782-14.938-.622-69.861-24.095 13.83.935 70.969z" clip-rule="evenodd"/><path fill="#FF9574" fill-rule="evenodd" d="M247.441 247.099l1.086 70.803-68.367-17.492.554-69.005 66.727 15.694z" clip-rule="evenodd"/><path fill="#F96132" fill-rule="evenodd" d="M271.207 233.453l-23.902 13.828-66.887-15.58 23.424-13.499 67.365 15.251z" clip-rule="evenodd"/><path fill="#fff" fill-rule="evenodd" d="M15.3 197.182l51.063 11.584a1.664 1.664 0 011.233 1.538l.3 49.321a.942.942 0 01-1.218.967l-51.687-12.323a1.655 1.655 0 01-1.217-1.548l.283-48.561a.97.97 0 011.244-.978zm84.382 23.044l51.063 11.581a1.667 1.667 0 011.233 1.537l.298 49.322a.935.935 0 01-.353.804.94.94 0 01-.863.163l-51.688-12.32a1.661 1.661 0 01-1.217-1.548l.29-48.562a.967.967 0 011.237-.977zm89.02 20.05l51.063 11.584a1.663 1.663 0 011.233 1.537l.299 49.322a.947.947 0 01-.354.804.941.941 0 01-.863.163l-51.674-12.32a1.658 1.658 0 01-1.217-1.551l.291-48.559a.962.962 0 01.77-.995.96.96 0 01.452.015z" clip-rule="evenodd"/><path fill="url(#pattern1)" d="M29.419 219.047h21.865v19.866H29.419z"/><path fill="#F7A501" d="M118.745 246.608c-4.361 0-5.613 3.129-5.613 6.845 0 3.715 1.252 6.844 5.613 6.844 4.361 0 5.612-3.129 5.612-6.844 0-3.716-1.251-6.845-5.612-6.845zm3.07 6.845c0 .919-.059 1.701-.215 2.346l-4.576-6.473c.43-.234.997-.371 1.721-.371 2.503 0 3.07 1.545 3.07 4.498zm-6.141 0c0-.92.059-1.702.196-2.347l4.576 6.473c-.43.254-.978.371-1.701.371-2.523 0-3.071-1.545-3.071-4.497zm17.343 1.975c1.779-1.565 2.464-2.699 2.464-4.518 0-2.092-1.115-4.302-4.576-4.302-3.462 0-4.576 2.21-4.576 4.693h2.542c0-1.369.411-2.346 2.034-2.346 1.623 0 2.033.841 2.033 1.857 0 1.291-.958 2.113-2.776 3.657l-3.833 3.286v2.347h8.956v-2.347h-4.83l2.562-2.327zm74.748 10.605c-4.361 0-5.613 3.129-5.613 6.845 0 3.716 1.252 6.845 5.613 6.845 4.361 0 5.612-3.129 5.612-6.845 0-3.716-1.251-6.845-5.612-6.845zm3.07 6.845c0 .919-.058 1.701-.215 2.347l-4.576-6.473c.43-.235.997-.372 1.721-.372 2.503 0 3.07 1.545 3.07 4.498zm-6.14 0c0-.919.058-1.701.195-2.347l4.576 6.473c-.43.255-.977.372-1.701.372-2.523 0-3.07-1.545-3.07-4.498zm16.02-1.076l3.48-3.226v-2.347h-8.565v2.347h5.202l-3.07 3.031.88 1.76h1.329c1.369 0 2.073.43 2.073 1.858 0 1.271-.547 2.151-2.229 2.151-1.662 0-2.229-.88-2.229-2.151h-2.543c0 2.288 1.408 4.498 4.772 4.498 3.364 0 4.772-2.21 4.772-4.303 0-2.679-1.917-3.813-3.872-3.618z"/></g><defs><pattern id="pattern0" width="1" height="1" patternContentUnits="objectBoundingBox"><use transform="matrix(.00156 0 0 .00201 -.072 -.082)" xlink:href="#image0"/></pattern><pattern id="pattern1" width="1" height="1" patternContentUnits="objectBoundingBox"><use transform="scale(.00286 .00314)" xlink:href="#image1"/></pattern><clipPath id="clip0"><path fill="#fff" d="M0 0h331.327v259H0z" transform="translate(7 59)"/></clipPath></defs></svg>