<svg fill="none" viewBox="0 0 303 377"><path fill="#fff" d="M0 0h303v377H0z"/><path fill="#353F6F" fill-rule="evenodd" d="M60.9.5h181.2a60.366 60.366 0 0142.709 17.693A60.436 60.436 0 01302.5 60.919v255.142a60.429 60.429 0 01-17.677 42.752A60.373 60.373 0 01242.1 376.52H60.9a60.36 60.36 0 01-42.712-17.696A60.426 60.426 0 01.5 316.091V60.919a60.445 60.445 0 0117.69-42.726A60.388 60.388 0 0160.9.5z" clip-rule="evenodd"/><path fill="#fff" fill-rule="evenodd" d="M92.963 275.555a15.268 15.268 0 00.69 4.798 10.9 10.9 0 001.878 3.519 7.982 7.982 0 002.768 2.169 7.604 7.604 0 003.327.75 6.1 6.1 0 002.838-.72 9.292 9.292 0 002.508-1.899 10.91 10.91 0 001.878-2.739 9.989 9.989 0 00.939-3.229h-8.622v-4.159h13.508v16.145h-3.727l-.589-3.489a14.701 14.701 0 01-1.859 1.649c-.668.507-1.38.952-2.128 1.33-.738.378-1.511.682-2.308.91a8.899 8.899 0 01-2.368.33 13.33 13.33 0 01-5.675-1.16 12.667 12.667 0 01-4.317-3.219 14.533 14.533 0 01-2.737-4.878 19.006 19.006 0 01-1-6.108 18.006 18.006 0 011.6-7.398c.54-1.13 1.21-2.194 1.997-3.168a13.43 13.43 0 012.638-2.53 12.406 12.406 0 013.328-1.679c1.29-.417 2.64-.623 3.996-.61a14.258 14.258 0 014.876.78 12.332 12.332 0 013.767 2.149 12.885 12.885 0 012.718 3.269 18.374 18.374 0 011.748 4.129h-5.145a10.09 10.09 0 00-3.058-4.669 7.65 7.65 0 00-4.906-1.539 6.883 6.883 0 00-3.437.889 8.658 8.658 0 00-2.688 2.44 11.79 11.79 0 00-1.768 3.588 14.668 14.668 0 00-.67 4.349zm32.104-14.595v4.928h-4.996v-4.928h4.996zm0 7.887v21.373h-4.996v-21.373h4.996zm10.881-5.868v5.868h3.927v4.059h-3.927v11.646a2.518 2.518 0 00.409 1.47 1.344 1.344 0 001.15.589c.149 0 .459 0 .919-.08a7.924 7.924 0 001.908-.549v3.898c-.789.317-1.615.532-2.458.64-.639.083-1.283.129-1.928.14a4.623 4.623 0 01-1.889-.4 4.893 4.893 0 01-1.578-1.119 5.206 5.206 0 01-1.079-1.76 6.171 6.171 0 01-.4-2.289v-12.186h-3.068v-4.059h3.068v-5.868h4.946zm13.429-2.039v12.066h13.239V260.94h4.946v29.28h-4.946v-13.096h-13.239v13.096h-4.996v-29.28h4.996zm42.415 29.28h-4.946v-2.419c-.475.501-.993.96-1.549 1.369a9.01 9.01 0 01-1.489.87 6.336 6.336 0 01-1.498.46 8.853 8.853 0 01-1.549.14 8.142 8.142 0 01-2.888-.48 6.243 6.243 0 01-2.168-1.38 5.828 5.828 0 01-1.369-2.139 7.742 7.742 0 01-.479-2.799v-14.995h4.995v14.635c-.012.476.063.95.22 1.4.13.355.338.676.61.939.257.246.568.428.909.53.368.102.748.153 1.129.15a4.176 4.176 0 001.898-.46 5.726 5.726 0 001.659-1.229 5.991 5.991 0 001.169-1.78c.291-.679.441-1.41.44-2.149v-11.996h4.946l-.04 21.333zm5.056-29.26h4.995v10.536a6.277 6.277 0 011.09-1.309c.405-.39.858-.726 1.348-1a6.887 6.887 0 011.449-.59c.483-.129.98-.196 1.479-.2a7.312 7.312 0 013.667.9 7.8 7.8 0 012.638 2.409 11.213 11.213 0 011.599 3.549c.366 1.407.548 2.855.539 4.309a15.098 15.098 0 01-.609 4.328 11.136 11.136 0 01-1.749 3.509 8.357 8.357 0 01-2.768 2.349 7.831 7.831 0 01-3.687.86 6.02 6.02 0 01-1.289-.15 5.705 5.705 0 01-2.617-1.33 6.31 6.31 0 01-1.09-1.289v2.349h-4.995v-29.23zm4.995 18.633c-.004.915.093 1.827.29 2.72.178.785.471 1.539.869 2.239a4.49 4.49 0 001.389 1.499 3.337 3.337 0 001.869.55 3.46 3.46 0 001.908-.55 4.424 4.424 0 001.409-1.499 8.153 8.153 0 00.859-2.229c.387-1.789.387-3.64 0-5.429a7.984 7.984 0 00-.859-2.219 4.61 4.61 0 00-1.409-1.499 3.393 3.393 0 00-1.908-.56 3.244 3.244 0 00-1.829.53 4.608 4.608 0 00-1.429 1.409 7.33 7.33 0 00-.869 2.13c-.212.85-.329 1.722-.349 2.599l.059.309zM84.45 330.116a11.642 11.642 0 00.54 3.749 8.26 8.26 0 001.409 2.669 5.69 5.69 0 001.998 1.549 5.33 5.33 0 002.248.51 4.63 4.63 0 002.118-.48 5.746 5.746 0 001.67-1.259 7.125 7.125 0 001.188-1.8 9.199 9.199 0 00.68-2.059h3.627a13.057 13.057 0 01-1.11 3.349 9.83 9.83 0 01-1.938 2.709 8.56 8.56 0 01-2.738 1.819 9.064 9.064 0 01-3.497.65 10.215 10.215 0 01-3.996-.76 8.21 8.21 0 01-3.068-2.229 9.992 9.992 0 01-1.998-3.579 15.538 15.538 0 01-.69-4.818 12.46 12.46 0 01.65-4.048 10.536 10.536 0 011.898-3.449 9.051 9.051 0 017.164-3.279 10.33 10.33 0 013.507.56 8.636 8.636 0 012.718 1.549 9.084 9.084 0 011.999 2.349 13.6 13.6 0 011.268 2.999h-3.706a7.252 7.252 0 00-2.209-3.369 5.548 5.548 0 00-3.537-1.109 4.99 4.99 0 00-2.478.62 6.077 6.077 0 00-1.938 1.679 8.375 8.375 0 00-1.28 2.489 9.998 9.998 0 00-.499 2.989zm17.396 3.179a9.88 9.88 0 01.48-3.099 7.544 7.544 0 011.408-2.549 6.353 6.353 0 012.279-1.739 7.6 7.6 0 016.154 0 6.543 6.543 0 012.279 1.739 7.765 7.765 0 011.428 2.549 9.918 9.918 0 01.49 3.099 9.505 9.505 0 01-.49 3.089 7.49 7.49 0 01-1.408 2.539 6.564 6.564 0 01-2.289 1.72 7.838 7.838 0 01-6.154 0 6.595 6.595 0 01-2.279-1.72 7.523 7.523 0 01-1.418-2.539 9.785 9.785 0 01-.48-3.089zm3.567 0a7.14 7.14 0 00.25 1.94 5.27 5.27 0 00.729 1.589c.299.438.691.803 1.149 1.07a3.244 3.244 0 003.078 0 3.75 3.75 0 001.179-1.07 5.284 5.284 0 00.739-1.589 7.183 7.183 0 00.26-1.94 7.296 7.296 0 00-.26-1.999 5.061 5.061 0 00-.739-1.59 3.678 3.678 0 00-1.179-1.079 3.102 3.102 0 00-3.078 0c-.46.267-.853.636-1.149 1.079a5.08 5.08 0 00-.729 1.59 7.253 7.253 0 00-.25 1.999zm13.719-7.757h3.567v1.819a6.285 6.285 0 012.098-1.629 5.546 5.546 0 012.258-.49 5.983 5.983 0 012.108.35 4.323 4.323 0 011.579.999c.433.446.772.972.999 1.55.239.639.358 1.317.35 1.999v10.817h-3.577v-10.227a3.072 3.072 0 00-.16-1.05 2.327 2.327 0 00-.46-.769 1.902 1.902 0 00-.679-.48 2.306 2.306 0 00-.829-.16c-.476 0-.946.102-1.379.3-.433.193-.828.46-1.169.79-.34.323-.617.706-.819 1.129a2.994 2.994 0 00-.31 1.34v9.137h-3.567l-.01-15.425zm21.022-4.209v4.209h2.828v2.999h-2.828v8.377c-.013.374.088.744.29 1.059a1.004 1.004 0 00.829.43l.66-.06a5.358 5.358 0 001.379-.4v2.819a7.47 7.47 0 01-1.769.46c-.461.057-.924.09-1.389.1a3.303 3.303 0 01-1.359-.29 3.43 3.43 0 01-1.149-.809 4.21 4.21 0 01-.779-1.26 4.613 4.613 0 01-.28-1.649v-8.777h-2.208v-2.999h2.208v-4.229l3.567.02zm5.126 4.209h2.628l.589 1.899a6.193 6.193 0 011.449-1.649 2.762 2.762 0 011.639-.55 5.01 5.01 0 012.328.7v3.088c-.37-.139-.689-.259-.999-.339a6.264 6.264 0 00-.66-.17 2.02 2.02 0 00-.409-.06h-.21a2.446 2.446 0 00-1.189.28 2.984 2.984 0 00-.899.739 3.506 3.506 0 00-.5 1.06c-.13.407-.194.832-.19 1.26v9.146H145.3l-.02-15.404zm13.539-5.668v3.558h-3.577v-3.558h3.577zm0 5.688v15.404h-3.577v-15.424l3.577.02zm3.387-5.688h3.567v7.597c.216-.35.482-.667.79-.94.301-.276.637-.511.999-.699.314-.182.649-.323.999-.42a3.91 3.91 0 011.059-.15 5.323 5.323 0 012.648.65 5.531 5.531 0 011.898 1.739 7.826 7.826 0 011.149 2.549c.266 1.015.397 2.06.39 3.109a10.83 10.83 0 01-.44 3.119 7.77 7.77 0 01-1.259 2.529 5.98 5.98 0 01-1.998 1.699 5.696 5.696 0 01-2.668.62 4.475 4.475 0 01-.929-.11 3.956 3.956 0 01-.999-.34 4.056 4.056 0 01-.909-.619 4.236 4.236 0 01-.79-.93v1.689h-3.567l.06-21.092zm3.567 13.435a8.897 8.897 0 00.21 1.999 5.59 5.59 0 00.62 1.6c.246.431.588.8.999 1.079a2.37 2.37 0 001.349.4c.488.003.967-.136 1.378-.4a3.19 3.19 0 001-1.079 5.617 5.617 0 00.619-1.6 9.289 9.289 0 000-3.928 5.477 5.477 0 00-.619-1.59 3.19 3.19 0 00-1-1.079 2.447 2.447 0 00-1.378-.41 2.353 2.353 0 00-1.319.38c-.4.259-.741.599-1 .999a5.544 5.544 0 00-.629 1.54 8.543 8.543 0 00-.25 1.869l.02.22zm25.709 7.657h-3.567v-1.739a8.852 8.852 0 01-1.119 1 6.336 6.336 0 01-1.069.629 5.512 5.512 0 01-1.079.33c-.37.064-.744.098-1.119.1a5.821 5.821 0 01-2.079-.35 4.467 4.467 0 01-1.568-.999 4.38 4.38 0 01-1-1.55 5.585 5.585 0 01-.339-1.999v-10.846h3.567v10.556c-.004.34.05.678.16 1 .091.258.241.491.439.679.186.179.412.31.66.38.265.079.542.116.819.11a3.086 3.086 0 001.369-.33 4.28 4.28 0 001.189-.879c.354-.377.638-.814.839-1.29a3.91 3.91 0 00.32-1.549v-8.677h3.567l.01 15.424zm8.093-19.633v4.209h2.828v2.999h-2.828v8.377c-.015.376.09.747.3 1.059a.996.996 0 00.819.43l.67-.06a5.448 5.448 0 001.369-.4v2.819a7.47 7.47 0 01-1.769.46c-.461.057-.924.09-1.389.1a3.351 3.351 0 01-1.359-.29 3.299 3.299 0 01-1.139-.809 3.834 3.834 0 01-.779-1.26 4.402 4.402 0 01-.29-1.649v-8.777H193.8v-2.999h2.208v-4.229l3.567.02zm8.014 12.886c.047.542.175 1.075.379 1.579.188.477.447.922.77 1.32.302.366.672.672 1.089.899a2.83 2.83 0 001.339.34 3.302 3.302 0 002.178-.72 4.9 4.9 0 001.389-2.159h3.297a7.529 7.529 0 01-.999 2.449 7.205 7.205 0 01-1.599 1.82 6.843 6.843 0 01-1.998 1.129 6.905 6.905 0 01-5.286-.269 6.872 6.872 0 01-2.268-1.79 7.9 7.9 0 01-1.449-2.609 9.603 9.603 0 01-.509-3.139 8.681 8.681 0 01.509-2.999 7.74 7.74 0 011.449-2.489 6.61 6.61 0 012.278-1.719 6.793 6.793 0 012.998-.64 7.17 7.17 0 012.907.58 6.75 6.75 0 012.219 1.599 6.985 6.985 0 011.418 2.399c.331.965.497 1.979.49 2.999v1.39l-10.601.03zm6.994-2.709a3.916 3.916 0 00-.37-1.31 3.362 3.362 0 00-.739-1 3.179 3.179 0 00-1.069-.669 3.787 3.787 0 00-1.369-.24 3.1 3.1 0 00-1.259.26c-.372.172-.71.409-.999.699-.301.29-.551.628-.74 1a3.895 3.895 0 00-.389 1.25l6.934.01zm9.202-11.636v8.777l-.589 5.998h-2.678l-.59-5.928v-8.827l3.857-.02zm0 17.234v3.858h-3.857v-3.858h3.857z" clip-rule="evenodd"/><path fill="#fff" fill-rule="evenodd" stroke="#fff" stroke-linecap="round" stroke-linejoin="round" stroke-width="2.75" d="M152.544 46.794c-49.679 0-89.926 39.486-89.926 88.19 0 41.195 28.847 75.683 67.784 85.38l.35-19.993s-18.784 6.208-29.356-6.218c-2.867-3.369-2.308-8.917-6.085-12.496a80.076 80.076 0 01-9.931-10.876s7.993-.36 12.21 1.999c4.216 2.36 9.182 14.995 15.986 16.685 6.805 1.689 17.296-2.09 17.296-2.09l4.806-11.526c-22.342 0-40.716-18.103-40.716-38.866 0-11.436 1.418-23.652 10.091-30.55a25.864 25.864 0 01-3.567-10.996c-.499-6.328 3.567-13.125 3.567-13.125a33.476 33.476 0 0112.64 1.72c5.915 2.258 10.991 7.317 10.991 7.317s12.45-3.73 24.36-3.94a87.7 87.7 0 0123.321 3.21 85.333 85.333 0 0110.711-5.818 54.765 54.765 0 0110.811-3.09 22.779 22.779 0 014.866 11.657c.619 6.758-2.408 15.395-2.408 15.395 7.833 6.857 10.591 16.114 10.591 26.9 0 20.753-19.144 38.777-42.065 40.896-1.409.13 4.356 2.139 5.685 5.898 2.888 8.137 1.709 27.061.879 37.707 38.578-9.936 67.065-44.245 67.065-85.19 0-48.694-40.277-88.18-89.956-88.18z" clip-rule="evenodd"/></svg>