<svg xmlns="http://www.w3.org/2000/svg" width="303" height="377" fill="none" viewBox="0 0 303 377"><rect width="303" height="377" fill="#fff"/><path fill="#353F6F" fill-rule="evenodd" d="M60.8998 0.500001H242.1C250.032 0.498688 257.886 2.0605 265.214 5.09625C272.542 8.13201 279.2 12.5822 284.809 18.1928C290.418 23.8034 294.867 30.4644 297.902 37.7954C300.938 45.1265 302.5 52.984 302.5 60.9192V316.061C302.506 324 300.947 331.862 297.914 339.197C294.881 346.533 290.432 353.199 284.823 358.813C279.214 364.428 272.554 368.882 265.223 371.92C257.892 374.958 250.035 376.522 242.1 376.52H60.8998C52.9675 376.522 45.1127 374.959 37.784 371.923C30.4553 368.887 23.7964 364.436 18.1875 358.824C12.5785 353.212 8.12956 346.55 5.09463 339.218C2.0597 331.886 0.498292 324.027 0.499604 316.091V60.9192C0.499604 52.984 2.06198 45.1265 5.0975 37.7954C8.13301 30.4644 12.5822 23.8034 18.191 18.1928C23.7998 12.5822 30.4583 8.13201 37.7863 5.09625C45.1144 2.0605 52.9684 0.498688 60.8998 0.500001Z" clip-rule="evenodd"/><path fill="#fff" fill-rule="evenodd" d="M92.9633 275.555C92.9362 277.181 93.1689 278.801 93.6527 280.353C94.0573 281.632 94.6941 282.825 95.5312 283.872C96.2814 284.792 97.2269 285.533 98.2989 286.041C99.3371 286.54 100.475 286.796 101.626 286.791C102.616 286.785 103.59 286.538 104.464 286.071C105.402 285.585 106.25 284.943 106.972 284.172C107.734 283.36 108.368 282.436 108.85 281.433C109.343 280.417 109.661 279.326 109.789 278.204H101.167V274.045H114.675V290.19H110.948L110.359 286.701C109.787 287.302 109.165 287.854 108.5 288.35C107.832 288.857 107.12 289.302 106.372 289.68C105.634 290.058 104.861 290.362 104.064 290.59C103.293 290.806 102.497 290.917 101.696 290.92C99.7423 290.954 97.8048 290.558 96.0208 289.76C94.3681 289.009 92.896 287.911 91.7043 286.541C90.4846 285.108 89.5548 283.451 88.9666 281.663C88.302 279.695 87.9645 277.632 87.9674 275.555C87.9701 273.004 88.515 270.482 89.5661 268.157C90.1064 267.027 90.777 265.963 91.5644 264.989C92.3246 264.029 93.2121 263.178 94.2023 262.459C95.2204 261.735 96.3422 261.169 97.5295 260.78C98.8204 260.363 100.17 260.157 101.526 260.17C103.185 260.145 104.835 260.408 106.402 260.95C107.775 261.438 109.05 262.166 110.169 263.099C111.25 264.031 112.168 265.135 112.887 266.368C113.636 267.668 114.223 269.054 114.635 270.497H109.49C108.93 268.684 107.87 267.066 106.432 265.828C105.023 264.764 103.29 264.221 101.526 264.289C100.322 264.28 99.1373 264.586 98.0891 265.178C97.0309 265.792 96.1148 266.624 95.4013 267.618C94.6118 268.704 94.0137 269.918 93.6327 271.206C93.1921 272.614 92.9665 274.08 92.9633 275.555Z" clip-rule="evenodd"/><path fill="#fff" fill-rule="evenodd" d="M125.067 260.96V265.888H120.071V260.96H125.067ZM125.067 268.847V290.22H120.071V268.847H125.067Z" clip-rule="evenodd"/><path fill="#fff" fill-rule="evenodd" d="M135.948 262.979V268.847H139.875V272.906H135.948V284.552C135.929 285.073 136.072 285.586 136.357 286.022C136.484 286.209 136.655 286.361 136.856 286.464C137.057 286.567 137.281 286.618 137.507 286.611C137.656 286.611 137.966 286.611 138.426 286.531C139.082 286.429 139.724 286.244 140.334 285.982V289.88C139.545 290.197 138.719 290.412 137.876 290.52C137.237 290.603 136.593 290.649 135.948 290.66C135.297 290.661 134.654 290.525 134.059 290.26C133.464 289.996 132.927 289.615 132.481 289.141C132.007 288.632 131.641 288.034 131.402 287.381C131.125 286.65 130.989 285.873 131.002 285.092V272.906H127.934V268.847H131.002V262.979H135.948Z" clip-rule="evenodd"/><path fill="#fff" fill-rule="evenodd" d="M149.377 260.94V273.006H162.616V260.94H167.562V290.22H162.616V277.124H149.377V290.22H144.381V260.94H149.377Z" clip-rule="evenodd"/><path fill="#fff" fill-rule="evenodd" d="M191.792 290.22H186.846V287.801C186.371 288.302 185.853 288.761 185.297 289.17C184.83 289.507 184.331 289.798 183.808 290.04C183.33 290.255 182.826 290.409 182.31 290.5C181.798 290.592 181.28 290.639 180.761 290.64C179.777 290.656 178.799 290.493 177.873 290.16C177.063 289.855 176.324 289.386 175.705 288.78C175.097 288.177 174.63 287.446 174.336 286.641C174.005 285.746 173.843 284.797 173.857 283.842V268.847H178.852V283.482C178.84 283.958 178.915 284.432 179.072 284.882C179.202 285.237 179.41 285.558 179.682 285.821C179.939 286.067 180.25 286.249 180.591 286.351C180.959 286.453 181.339 286.504 181.72 286.501C182.38 286.5 183.031 286.342 183.618 286.041C184.241 285.735 184.803 285.319 185.277 284.812C185.77 284.293 186.166 283.69 186.446 283.032C186.737 282.353 186.887 281.622 186.886 280.883V268.887H191.832L191.792 290.22Z" clip-rule="evenodd"/><path fill="#fff" fill-rule="evenodd" d="M196.848 260.96H201.843V271.496C202.145 271.012 202.512 270.572 202.933 270.187C203.338 269.797 203.791 269.461 204.281 269.187C204.74 268.936 205.226 268.738 205.73 268.597C206.213 268.468 206.71 268.401 207.209 268.397C208.489 268.371 209.754 268.681 210.876 269.297C211.93 269.885 212.833 270.71 213.514 271.706C214.25 272.787 214.791 273.988 215.113 275.255C215.479 276.662 215.661 278.11 215.652 279.564C215.66 281.028 215.455 282.486 215.043 283.892C214.672 285.156 214.08 286.344 213.294 287.401C212.555 288.377 211.61 289.179 210.526 289.75C209.386 290.334 208.12 290.629 206.839 290.61C206.406 290.607 205.973 290.556 205.55 290.46C205.083 290.36 204.63 290.203 204.202 289.99C203.743 289.76 203.317 289.471 202.933 289.13C202.513 288.751 202.147 288.317 201.843 287.841V290.19H196.848V260.96ZM201.843 279.593C201.839 280.508 201.936 281.42 202.133 282.313C202.311 283.098 202.604 283.852 203.002 284.552C203.344 285.152 203.819 285.665 204.391 286.051C204.946 286.416 205.596 286.608 206.26 286.601C206.936 286.608 207.599 286.417 208.168 286.051C208.749 285.669 209.232 285.155 209.577 284.552C209.971 283.855 210.261 283.104 210.436 282.323C210.823 280.534 210.823 278.683 210.436 276.894C210.262 276.116 209.973 275.368 209.577 274.675C209.226 274.076 208.745 273.563 208.168 273.176C207.602 272.803 206.938 272.608 206.26 272.616C205.611 272.606 204.974 272.79 204.431 273.146C203.857 273.505 203.369 273.986 203.002 274.555C202.602 275.215 202.309 275.933 202.133 276.685C201.921 277.535 201.804 278.407 201.784 279.284L201.843 279.593Z" clip-rule="evenodd"/><path fill="#fff" fill-rule="evenodd" d="M84.4503 330.116C84.4243 331.387 84.6066 332.653 84.9899 333.865C85.2916 334.834 85.7692 335.738 86.3987 336.534C86.9404 337.194 87.6233 337.723 88.3971 338.083C89.1004 338.415 89.8676 338.589 90.6452 338.593C91.3793 338.603 92.1052 338.439 92.7635 338.113C93.392 337.799 93.9576 337.372 94.4321 336.854C94.9174 336.318 95.3183 335.711 95.6211 335.054C95.9279 334.397 96.156 333.706 96.3006 332.995H99.9276C99.711 334.157 99.3379 335.283 98.8185 336.344C98.331 337.351 97.6754 338.267 96.88 339.053C96.0933 339.831 95.1636 340.448 94.1423 340.872C93.0308 341.318 91.8423 341.538 90.6452 341.522C89.2756 341.539 87.9165 341.281 86.6485 340.762C85.4662 340.269 84.4158 339.505 83.581 338.533C82.675 337.491 81.9945 336.273 81.5827 334.954C81.1012 333.395 80.8686 331.768 80.8932 330.136C80.8845 328.76 81.104 327.392 81.5427 326.088C81.9533 324.829 82.5974 323.659 83.4412 322.639C84.3117 321.588 85.408 320.747 86.6484 320.18C87.8889 319.612 89.2415 319.332 90.6053 319.36C91.7978 319.343 92.9844 319.532 94.1124 319.92C95.105 320.266 96.0259 320.792 96.8301 321.469C97.6252 322.132 98.301 322.927 98.8285 323.818C99.3701 324.763 99.7962 325.77 100.097 326.817H96.3905C95.9874 325.508 95.2218 324.34 94.1823 323.448C93.1654 322.684 91.9165 322.292 90.6452 322.339C89.7795 322.327 88.9256 322.541 88.1673 322.959C87.4092 323.374 86.7484 323.947 86.2289 324.638C85.6659 325.39 85.2335 326.232 84.9499 327.127C84.6325 328.092 84.464 329.1 84.4503 330.116Z" clip-rule="evenodd"/><path fill="#fff" fill-rule="evenodd" d="M101.846 333.295C101.84 332.243 102.002 331.197 102.326 330.196C102.625 329.263 103.104 328.397 103.734 327.647C104.352 326.901 105.131 326.306 106.013 325.908C106.982 325.479 108.03 325.258 109.09 325.258C110.15 325.258 111.198 325.479 112.167 325.908C113.046 326.312 113.824 326.906 114.446 327.647C115.079 328.399 115.564 329.264 115.874 330.196C116.201 331.197 116.366 332.243 116.364 333.295C116.372 334.345 116.207 335.389 115.874 336.384C115.575 337.314 115.096 338.177 114.466 338.923C113.839 339.658 113.057 340.245 112.177 340.643C111.205 341.058 110.158 341.273 109.1 341.273C108.042 341.273 106.995 341.058 106.023 340.643C105.147 340.243 104.369 339.656 103.744 338.923C103.111 338.177 102.629 337.315 102.326 336.384C102.001 335.387 101.84 334.344 101.846 333.295ZM105.413 333.295C105.407 333.95 105.491 334.603 105.663 335.235C105.816 335.801 106.062 336.339 106.392 336.824C106.691 337.262 107.083 337.627 107.541 337.894C108.014 338.149 108.543 338.283 109.08 338.283C109.617 338.283 110.146 338.149 110.619 337.894C111.084 337.626 111.486 337.261 111.798 336.824C112.131 336.339 112.381 335.802 112.537 335.235C112.712 334.603 112.799 333.951 112.797 333.295C112.803 332.62 112.716 331.947 112.537 331.296C112.385 330.727 112.135 330.189 111.798 329.706C111.489 329.264 111.086 328.896 110.619 328.627C110.15 328.359 109.62 328.217 109.08 328.217C108.54 328.217 108.01 328.359 107.541 328.627C107.081 328.894 106.688 329.263 106.392 329.706C106.059 330.19 105.812 330.728 105.663 331.296C105.487 331.948 105.403 332.62 105.413 333.295Z" clip-rule="evenodd"/><path fill="#fff" fill-rule="evenodd" d="M119.132 325.538H122.699V327.357C123.274 326.671 123.99 326.115 124.797 325.728C125.507 325.408 126.276 325.241 127.055 325.238C127.773 325.227 128.487 325.346 129.163 325.588C129.756 325.802 130.295 326.143 130.742 326.587C131.175 327.033 131.514 327.559 131.741 328.137C131.98 328.776 132.099 329.454 132.091 330.136V340.953H128.514V330.726C128.522 330.37 128.468 330.014 128.354 329.676C128.252 329.393 128.096 329.131 127.894 328.907C127.706 328.699 127.474 328.535 127.215 328.427C126.951 328.323 126.67 328.269 126.386 328.267C125.91 328.267 125.44 328.369 125.007 328.567C124.574 328.76 124.179 329.027 123.838 329.357C123.498 329.68 123.221 330.063 123.019 330.486C122.813 330.903 122.707 331.361 122.709 331.826V340.963H119.142L119.132 325.538Z" clip-rule="evenodd"/><path fill="#fff" fill-rule="evenodd" d="M140.154 321.329V325.538H142.982V328.537H140.154V336.914C140.141 337.288 140.242 337.658 140.444 337.973C140.537 338.107 140.661 338.216 140.805 338.291C140.95 338.366 141.111 338.405 141.273 338.403L141.933 338.343C142.408 338.272 142.872 338.138 143.312 337.943V340.762C142.743 340.987 142.149 341.142 141.543 341.222C141.082 341.279 140.619 341.312 140.154 341.322C139.686 341.323 139.223 341.224 138.795 341.032C138.361 340.845 137.969 340.569 137.646 340.223C137.314 339.852 137.05 339.426 136.867 338.963C136.674 338.435 136.579 337.876 136.587 337.314V328.537H134.379V325.538H136.587V321.309L140.154 321.329Z" clip-rule="evenodd"/><path fill="#fff" fill-rule="evenodd" d="M145.28 325.538H147.908L148.497 327.437C148.878 326.805 149.369 326.247 149.946 325.788C150.42 325.434 150.994 325.241 151.585 325.238C151.881 325.252 152.175 325.292 152.464 325.358C152.975 325.473 153.464 325.669 153.913 325.938V329.026C153.543 328.887 153.224 328.767 152.914 328.687C152.697 328.618 152.477 328.562 152.254 328.517C152.12 328.483 151.983 328.463 151.845 328.457H151.635C151.221 328.448 150.812 328.545 150.446 328.737C150.101 328.922 149.795 329.173 149.547 329.476C149.322 329.799 149.153 330.157 149.047 330.536C148.917 330.943 148.853 331.368 148.857 331.796V340.942H145.3L145.28 325.538Z" clip-rule="evenodd"/><path fill="#fff" fill-rule="evenodd" d="M158.819 319.87V323.428H155.242V319.87H158.819ZM158.819 325.558V340.962H155.242V325.538L158.819 325.558Z" clip-rule="evenodd"/><path fill="#fff" fill-rule="evenodd" d="M162.206 319.87H165.773V327.467C165.989 327.117 166.255 326.8 166.563 326.527C166.864 326.251 167.2 326.016 167.562 325.828C167.876 325.646 168.211 325.505 168.561 325.408C168.905 325.31 169.262 325.259 169.62 325.258C170.544 325.241 171.456 325.465 172.268 325.908C173.028 326.33 173.679 326.926 174.166 327.647C174.699 328.421 175.088 329.284 175.315 330.196C175.581 331.211 175.712 332.256 175.705 333.305C175.711 334.361 175.563 335.411 175.265 336.424C175.003 337.337 174.577 338.194 174.006 338.953C173.474 339.66 172.791 340.241 172.008 340.652C171.182 341.073 170.267 341.285 169.34 341.272C169.028 341.268 168.716 341.231 168.411 341.162C168.064 341.094 167.728 340.979 167.412 340.822C167.082 340.658 166.776 340.449 166.503 340.203C166.196 339.933 165.93 339.619 165.713 339.273V340.962H162.146L162.206 319.87ZM165.773 333.305C165.767 333.977 165.838 334.648 165.983 335.304C166.106 335.866 166.315 336.405 166.603 336.904C166.849 337.335 167.191 337.704 167.602 337.983C168.001 338.25 168.471 338.389 168.951 338.383C169.439 338.386 169.918 338.247 170.329 337.983C170.742 337.706 171.084 337.337 171.329 336.904C171.616 336.405 171.825 335.866 171.948 335.304C172.228 334.01 172.228 332.67 171.948 331.376C171.826 330.817 171.617 330.28 171.329 329.786C171.084 329.353 170.742 328.984 170.329 328.707C169.921 328.435 169.441 328.293 168.951 328.297C168.483 328.29 168.024 328.422 167.632 328.677C167.232 328.936 166.891 329.276 166.632 329.676C166.346 330.155 166.134 330.674 166.003 331.216C165.851 331.828 165.767 332.455 165.753 333.085L165.773 333.305Z" clip-rule="evenodd"/><path fill="#fff" fill-rule="evenodd" d="M191.482 340.962H187.915V339.223C187.571 339.587 187.197 339.922 186.796 340.223C186.461 340.467 186.103 340.678 185.727 340.852C185.379 340.999 185.018 341.109 184.648 341.182C184.278 341.246 183.904 341.28 183.529 341.282C182.82 341.293 182.116 341.174 181.45 340.932C180.863 340.713 180.329 340.372 179.882 339.933C179.442 339.493 179.102 338.965 178.882 338.383C178.648 337.743 178.533 337.065 178.543 336.384V325.538H182.11V336.094C182.106 336.434 182.16 336.772 182.27 337.094C182.361 337.352 182.511 337.585 182.709 337.773C182.895 337.952 183.121 338.083 183.369 338.153C183.634 338.232 183.911 338.269 184.188 338.263C184.664 338.26 185.132 338.147 185.557 337.933C186.001 337.711 186.404 337.414 186.746 337.054C187.1 336.677 187.384 336.24 187.585 335.764C187.796 335.275 187.905 334.748 187.905 334.215V325.538H191.472L191.482 340.962Z" clip-rule="evenodd"/><path fill="#fff" fill-rule="evenodd" d="M199.575 321.329V325.538H202.403V328.537H199.575V336.914C199.56 337.29 199.665 337.661 199.875 337.973C199.967 338.106 200.089 338.214 200.232 338.289C200.375 338.364 200.533 338.403 200.694 338.403L201.364 338.343C201.836 338.27 202.296 338.136 202.733 337.943V340.762C202.164 340.987 201.57 341.142 200.964 341.222C200.503 341.279 200.04 341.312 199.575 341.322C199.107 341.321 198.644 341.223 198.216 341.032C197.783 340.847 197.395 340.571 197.077 340.223C196.738 339.857 196.473 339.43 196.298 338.963C196.097 338.437 195.998 337.877 196.008 337.314V328.537H193.8V325.538H196.008V321.309L199.575 321.329Z" clip-rule="evenodd"/><path fill="#fff" fill-rule="evenodd" d="M207.589 334.215C207.636 334.757 207.764 335.29 207.968 335.794C208.156 336.271 208.415 336.716 208.738 337.114C209.04 337.48 209.41 337.786 209.827 338.013C210.238 338.235 210.698 338.352 211.166 338.353C211.954 338.381 212.727 338.126 213.344 337.633C213.99 337.05 214.47 336.305 214.733 335.474H218.03C217.844 336.343 217.506 337.172 217.031 337.923C216.604 338.616 216.064 339.231 215.432 339.743C214.834 340.229 214.159 340.611 213.434 340.872C212.578 341.177 211.671 341.31 210.764 341.263C209.857 341.217 208.968 340.993 208.148 340.603C207.274 340.174 206.501 339.564 205.88 338.813C205.236 338.044 204.744 337.158 204.431 336.204C204.088 335.193 203.916 334.132 203.922 333.065C203.914 332.043 204.086 331.028 204.431 330.066C204.754 329.153 205.246 328.308 205.88 327.577C206.505 326.845 207.283 326.258 208.158 325.858C209.096 325.419 210.121 325.2 211.156 325.218C212.155 325.207 213.145 325.404 214.063 325.798C214.904 326.174 215.659 326.718 216.282 327.397C216.911 328.093 217.393 328.909 217.7 329.796C218.031 330.761 218.197 331.775 218.19 332.795V334.185L207.589 334.215ZM214.583 331.506C214.537 331.051 214.412 330.608 214.213 330.196C214.031 329.82 213.781 329.481 213.474 329.196C213.166 328.904 212.802 328.676 212.405 328.527C211.967 328.363 211.503 328.282 211.036 328.287C210.603 328.285 210.174 328.373 209.777 328.547C209.405 328.719 209.067 328.956 208.778 329.246C208.477 329.536 208.227 329.874 208.038 330.246C207.839 330.638 207.707 331.06 207.649 331.496L214.583 331.506Z" clip-rule="evenodd"/><path fill="#fff" fill-rule="evenodd" d="M223.785 319.87V328.647L223.196 334.645H220.518L219.928 328.717V319.89L223.785 319.87ZM223.785 337.104V340.962H219.928V337.104H223.785Z" clip-rule="evenodd"/><path fill="#fff" fill-rule="evenodd" stroke="#fff" stroke-linecap="round" stroke-linejoin="round" stroke-width="2.75" d="M152.544 46.7939C102.865 46.7939 62.6183 86.2803 62.6183 134.984C62.6183 176.179 91.4646 210.667 130.402 220.364L130.752 200.371C130.752 200.371 111.968 206.579 101.396 194.153C98.5287 190.784 99.0882 185.236 95.3113 181.657C91.674 178.345 88.3494 174.704 85.3796 170.781C85.3796 170.781 93.373 170.421 97.5895 172.78C101.806 175.14 106.772 187.775 113.576 189.465C120.381 191.154 130.872 187.375 130.872 187.375L135.678 175.849C113.336 175.849 94.9616 157.746 94.9616 136.983C94.9616 125.547 96.3804 113.331 105.053 106.433C103.05 103.084 101.83 99.325 101.486 95.4372C100.987 89.1094 105.053 82.3117 105.053 82.3117C109.338 82.0694 113.629 82.6531 117.693 84.0311C123.608 86.2903 128.684 91.3486 128.684 91.3486C128.684 91.3486 141.134 87.6199 153.044 87.4099C160.926 87.4265 168.77 88.5059 176.365 90.6188C179.792 88.4268 183.371 86.4825 187.076 84.8008C190.564 83.403 194.187 82.3679 197.887 81.7119C200.575 85.0601 202.262 89.1011 202.753 93.3679C203.372 100.126 200.345 108.763 200.345 108.763C208.178 115.62 210.936 124.877 210.936 135.663C210.936 156.416 191.792 174.44 168.871 176.559C167.462 176.689 173.227 178.698 174.556 182.457C177.444 190.594 176.265 209.518 175.435 220.164C214.013 210.228 242.5 175.919 242.5 134.974C242.5 86.2803 202.223 46.7939 152.544 46.7939Z" clip-rule="evenodd"/></svg>