<svg fill="none" viewBox="0 0 134 200"><path fill="#fff" fill-rule="evenodd" stroke="#fff" stroke-linecap="round" stroke-linejoin="round" stroke-width="2.002" d="M67.481 1.6C31.307 1.6 2 30.352 2 65.817c0 29.997 21.005 55.11 49.358 62.171l.255-14.558s-13.678 4.52-21.376-4.528c-2.088-2.453-1.68-6.493-4.43-9.099a58.344 58.344 0 01-7.233-7.92s5.82-.262 8.89 1.456c3.071 1.718 6.687 10.919 11.642 12.149 4.955 1.23 12.594-1.521 12.594-1.521l3.5-8.393c-16.269 0-29.649-13.183-29.649-28.302 0-8.327 1.034-17.222 7.349-22.245a18.83 18.83 0 01-2.598-8.007c-.363-4.608 2.598-9.557 2.598-9.557 3.12-.177 6.244.248 9.204 1.252 4.307 1.645 8.003 5.328 8.003 5.328s9.065-2.715 17.738-2.868a63.85 63.85 0 0116.982 2.337 62.175 62.175 0 017.8-4.237 39.885 39.885 0 017.871-2.25 16.578 16.578 0 013.544 8.488c.451 4.921-1.754 11.21-1.754 11.21C107.992 51.717 110 58.457 110 66.312c0 15.111-13.94 28.236-30.63 29.779-1.026.094 3.172 1.558 4.14 4.294 2.102 5.926 1.244 19.705.64 27.458 28.091-7.236 48.834-32.218 48.834-62.034 0-35.457-29.328-64.21-65.503-64.21z" clip-rule="evenodd"/><path fill="#fff" d="M22.1 186.312v3.67h8.108c-.49 2.901-2.481 5.033-5.837 5.033-4.509 0-6.71-2.063-6.71-8.039 0-5.977 2.027-8.039 6.29-8.039 3.426 0 4.964 1.607 5.418 4.159h4.51c-.35-4.893-4.055-8.354-9.927-8.354-7.55 0-10.835 5.418-10.835 12.234 0 6.815 3.285 12.233 10.206 12.233 4.159 0 5.697-2.307 6.326-3.67h.56v3.32h4.543v-12.547H22.099zm16.667-11.919v3.495h4.544v-3.495h-4.544zm0 6.466v18h4.544v-18h-4.544zm19.45 4.194v-4.194H53.43v-6.466h-4.544v6.466H46.09v4.194h2.796v13.806h9.333v-4.194H53.43v-9.612h4.788zm20.46-4.194H66.795v-6.466H62.25v24.466h4.544v-13.806h7.34v13.806h4.544v-18zM99.95 191.17v-10.311h-4.543v9.961c0 3.146-1.084 4.195-3.985 4.195s-3.985-1.049-3.985-4.195v-9.961h-4.543v10.311c0 5.837 3.215 8.039 8.528 8.039 5.313 0 8.528-2.202 8.528-8.039zm13.317-10.661c-2.167 0-3.914.769-5.103 2.517v-8.633h-4.543v24.466h4.543v-2.202c1.189 1.783 2.936 2.552 5.103 2.552 5.418 0 7.76-4.229 7.76-9.367 0-5.138-2.342-9.333-7.76-9.333zm-.943 14.506c-2.901 0-4.16-1.573-4.16-5.173 0-3.565 1.259-5.138 4.16-5.138 2.901 0 4.159 1.573 4.159 5.138 0 3.6-1.258 5.173-4.159 5.173z"/></svg>