<svg width="666" height="557" viewBox="0 0 666 557" fill="none" xmlns="http://www.w3.org/2000/svg">
<rect width="666" height="557" rx="108" fill="#1D4AFF"/>
<g clip-path="url(#clip0)">
<path fill-rule="evenodd" clip-rule="evenodd" d="M217.544 125.794C167.865 125.794 127.618 165.28 127.618 213.984C127.618 255.179 156.465 289.667 195.403 299.364L195.752 279.371C195.752 279.371 176.968 285.579 166.396 273.153C163.529 269.784 164.088 264.236 160.311 260.657C156.674 257.345 153.349 253.704 150.38 249.781C150.38 249.781 158.373 249.421 162.59 251.78C166.806 254.14 171.772 266.775 178.576 268.465C185.381 270.154 195.872 266.375 195.872 266.375L200.678 254.849C178.337 254.849 159.962 236.746 159.962 215.983C159.962 204.547 161.381 192.331 170.053 185.433C168.05 182.084 166.83 178.325 166.486 174.437C165.987 168.109 170.053 161.312 170.053 161.312C174.338 161.069 178.629 161.653 182.693 163.031C188.608 165.29 193.684 170.349 193.684 170.349C193.684 170.349 206.134 166.62 218.044 166.41C225.926 166.427 233.77 167.506 241.365 169.619C244.792 167.427 248.371 165.483 252.076 163.801C255.564 162.403 259.187 161.368 262.887 160.712C265.575 164.06 267.262 168.101 267.753 172.368C268.372 179.126 265.345 187.763 265.345 187.763C273.178 194.62 275.936 203.877 275.936 214.663C275.936 235.416 256.792 253.44 233.871 255.559C232.462 255.689 238.227 257.698 239.556 261.457C242.444 269.594 241.265 288.518 240.435 299.164C279.013 289.228 307.5 254.919 307.5 213.974C307.5 165.28 267.223 125.794 217.544 125.794Z" fill="white" stroke="white" stroke-width="2.75" stroke-linecap="round" stroke-linejoin="round"/>
<path d="M158.077 379.728H175.453V396H170.653V391.44H169.885C168.349 394.8 165.453 396.48 161.197 396.48C158.797 396.48 156.669 396.016 154.813 395.088C152.957 394.16 151.485 392.896 150.397 391.296C149.341 389.696 148.541 387.92 147.997 385.968C147.453 384.016 147.181 381.92 147.181 379.68C147.181 377.44 147.453 375.344 147.997 373.392C148.541 371.44 149.357 369.664 150.445 368.064C151.565 366.464 153.085 365.2 155.005 364.272C156.925 363.344 159.149 362.88 161.677 362.88C165.549 362.88 168.589 363.92 170.797 366C173.005 368.08 174.237 370.864 174.493 374.352H169.741C169.293 369.584 166.605 367.2 161.677 367.2C158.189 367.2 155.693 368.144 154.189 370.032C152.717 371.92 151.981 375.136 151.981 379.68C151.981 384.192 152.797 387.408 154.429 389.328C156.061 391.216 158.637 392.16 162.157 392.16C164.749 392.16 166.749 391.392 168.157 389.856C169.565 388.32 170.397 386.384 170.653 384.048H158.077V379.728ZM181.235 362.4H186.035V367.2H181.235V362.4ZM181.235 372H186.035V396H181.235V372ZM204.86 376.32H198.524V391.68H204.86V396H193.724V376.32H189.884V372H193.724V362.4H198.524V372H204.86V376.32ZM230.786 372V396H225.986V376.32H215.426V396H210.626V362.4H215.426V372H230.786ZM258.04 385.44C258.04 389.344 257.144 392.16 255.352 393.888C253.592 395.616 250.904 396.48 247.288 396.48C243.672 396.48 240.968 395.616 239.176 393.888C237.416 392.16 236.536 389.344 236.536 385.44V372H241.336V386.4C241.336 388.544 241.784 390.048 242.68 390.912C243.608 391.744 245.144 392.16 247.288 392.16C249.432 392.16 250.952 391.744 251.848 390.912C252.776 390.048 253.24 388.544 253.24 386.4V372H258.04V385.44ZM275.312 371.52C278.992 371.52 281.664 372.656 283.328 374.928C284.992 377.168 285.824 380.192 285.824 384C285.824 387.808 284.992 390.848 283.328 393.12C281.664 395.36 278.992 396.48 275.312 396.48C272.112 396.48 269.728 395.36 268.16 393.12V396H263.36V362.4H268.16V374.88C269.728 372.64 272.112 371.52 275.312 371.52ZM269.6 390.288C270.592 391.536 272.256 392.16 274.592 392.16C276.928 392.16 278.576 391.536 279.536 390.288C280.528 389.008 281.024 386.912 281.024 384C281.024 381.088 280.528 379.008 279.536 377.76C278.576 376.48 276.928 375.84 274.592 375.84C272.256 375.84 270.592 376.48 269.6 377.76C268.64 379.008 268.16 381.088 268.16 384C268.16 386.912 268.64 389.008 269.6 390.288Z" fill="white"/>
<path d="M159.178 441.03H162.028C161.868 439.89 161.528 438.89 161.008 438.03C160.488 437.15 159.838 436.42 159.058 435.84C158.278 435.26 157.388 434.82 156.388 434.52C155.388 434.22 154.328 434.07 153.208 434.07C151.568 434.07 150.108 434.37 148.828 434.97C147.568 435.55 146.508 436.35 145.648 437.37C144.808 438.39 144.168 439.59 143.728 440.97C143.288 442.33 143.068 443.79 143.068 445.35C143.068 446.91 143.268 448.37 143.668 449.73C144.088 451.09 144.708 452.27 145.528 453.27C146.348 454.27 147.378 455.06 148.618 455.64C149.858 456.2 151.308 456.48 152.968 456.48C155.708 456.48 157.868 455.73 159.448 454.23C161.028 452.73 161.958 450.63 162.238 447.93H159.388C159.328 448.81 159.148 449.63 158.848 450.39C158.548 451.15 158.128 451.81 157.588 452.37C157.068 452.91 156.438 453.34 155.698 453.66C154.978 453.96 154.148 454.11 153.208 454.11C151.928 454.11 150.828 453.87 149.908 453.39C148.988 452.91 148.228 452.27 147.628 451.47C147.048 450.65 146.618 449.7 146.338 448.62C146.058 447.52 145.918 446.36 145.918 445.14C145.918 444.02 146.058 442.94 146.338 441.9C146.618 440.86 147.048 439.94 147.628 439.14C148.228 438.32 148.978 437.67 149.878 437.19C150.798 436.71 151.898 436.47 153.178 436.47C154.678 436.47 155.968 436.85 157.048 437.61C158.148 438.37 158.858 439.51 159.178 441.03ZM167.209 448.26C167.209 447.32 167.329 446.49 167.569 445.77C167.829 445.03 168.179 444.41 168.619 443.91C169.059 443.41 169.569 443.03 170.149 442.77C170.749 442.51 171.379 442.38 172.039 442.38C172.699 442.38 173.319 442.51 173.899 442.77C174.499 443.03 175.019 443.41 175.459 443.91C175.899 444.41 176.239 445.03 176.479 445.77C176.739 446.49 176.869 447.32 176.869 448.26C176.869 449.2 176.739 450.04 176.479 450.78C176.239 451.5 175.899 452.11 175.459 452.61C175.019 453.09 174.499 453.46 173.899 453.72C173.319 453.98 172.699 454.11 172.039 454.11C171.379 454.11 170.749 453.98 170.149 453.72C169.569 453.46 169.059 453.09 168.619 452.61C168.179 452.11 167.829 451.5 167.569 450.78C167.329 450.04 167.209 449.2 167.209 448.26ZM164.509 448.26C164.509 449.4 164.669 450.46 164.989 451.44C165.309 452.42 165.789 453.28 166.429 454.02C167.069 454.74 167.859 455.31 168.799 455.73C169.739 456.13 170.819 456.33 172.039 456.33C173.279 456.33 174.359 456.13 175.279 455.73C176.219 455.31 177.009 454.74 177.649 454.02C178.289 453.28 178.769 452.42 179.089 451.44C179.409 450.46 179.569 449.4 179.569 448.26C179.569 447.12 179.409 446.06 179.089 445.08C178.769 444.08 178.289 443.22 177.649 442.5C177.009 441.76 176.219 441.18 175.279 440.76C174.359 440.34 173.279 440.13 172.039 440.13C170.819 440.13 169.739 440.34 168.799 440.76C167.859 441.18 167.069 441.76 166.429 442.5C165.789 443.22 165.309 444.08 164.989 445.08C164.669 446.06 164.509 447.12 164.509 448.26ZM182.575 440.49V456H185.125V447.24C185.125 446.54 185.215 445.9 185.395 445.32C185.595 444.72 185.885 444.2 186.265 443.76C186.645 443.32 187.115 442.98 187.675 442.74C188.255 442.5 188.935 442.38 189.715 442.38C190.695 442.38 191.465 442.66 192.025 443.22C192.585 443.78 192.865 444.54 192.865 445.5V456H195.415V445.8C195.415 444.96 195.325 444.2 195.145 443.52C194.985 442.82 194.695 442.22 194.275 441.72C193.855 441.22 193.305 440.83 192.625 440.55C191.945 440.27 191.095 440.13 190.075 440.13C187.775 440.13 186.095 441.07 185.035 442.95H184.975V440.49H182.575ZM202.785 440.49V435.84H200.235V440.49H197.595V442.74H200.235V452.61C200.235 453.33 200.305 453.91 200.445 454.35C200.585 454.79 200.795 455.13 201.075 455.37C201.375 455.61 201.755 455.78 202.215 455.88C202.695 455.96 203.265 456 203.925 456H205.875V453.75H204.705C204.305 453.75 203.975 453.74 203.715 453.72C203.475 453.68 203.285 453.61 203.145 453.51C203.005 453.41 202.905 453.27 202.845 453.09C202.805 452.91 202.785 452.67 202.785 452.37V442.74H205.875V440.49H202.785ZM208.618 440.49V456H211.168V449.1C211.168 448.1 211.268 447.22 211.468 446.46C211.668 445.68 211.988 445.02 212.428 444.48C212.868 443.94 213.448 443.53 214.168 443.25C214.888 442.97 215.758 442.83 216.778 442.83V440.13C215.398 440.09 214.258 440.37 213.358 440.97C212.458 441.57 211.698 442.5 211.078 443.76H211.018V440.49H208.618ZM221.398 437.7V434.58H218.848V437.7H221.398ZM218.848 440.49V456H221.398V440.49H218.848ZM225.439 434.58V456H227.989V453.93H228.049C228.329 454.39 228.669 454.78 229.069 455.1C229.489 455.4 229.929 455.64 230.389 455.82C230.849 456 231.309 456.13 231.769 456.21C232.249 456.29 232.679 456.33 233.059 456.33C234.239 456.33 235.269 456.12 236.149 455.7C237.049 455.28 237.789 454.71 238.369 453.99C238.969 453.25 239.409 452.39 239.689 451.41C239.989 450.43 240.139 449.39 240.139 448.29C240.139 447.19 239.989 446.15 239.689 445.17C239.389 444.19 238.939 443.33 238.339 442.59C237.759 441.83 237.019 441.23 236.119 440.79C235.239 440.35 234.199 440.13 232.999 440.13C231.919 440.13 230.929 440.33 230.029 440.73C229.129 441.11 228.469 441.73 228.049 442.59H227.989V434.58H225.439ZM237.439 448.11C237.439 448.87 237.359 449.61 237.199 450.33C237.039 451.05 236.779 451.69 236.419 452.25C236.059 452.81 235.579 453.26 234.979 453.6C234.399 453.94 233.669 454.11 232.789 454.11C231.909 454.11 231.159 453.95 230.539 453.63C229.919 453.29 229.409 452.85 229.009 452.31C228.629 451.77 228.349 451.15 228.169 450.45C227.989 449.73 227.899 448.99 227.899 448.23C227.899 447.51 227.979 446.8 228.139 446.1C228.319 445.4 228.599 444.78 228.979 444.24C229.359 443.68 229.849 443.23 230.449 442.89C231.049 442.55 231.779 442.38 232.639 442.38C233.459 442.38 234.169 442.54 234.769 442.86C235.389 443.18 235.889 443.61 236.269 444.15C236.669 444.69 236.959 445.31 237.139 446.01C237.339 446.69 237.439 447.39 237.439 448.11ZM255.972 456V440.49H253.422V449.25C253.422 449.95 253.322 450.6 253.122 451.2C252.942 451.78 252.662 452.29 252.282 452.73C251.902 453.17 251.422 453.51 250.842 453.75C250.282 453.99 249.612 454.11 248.832 454.11C247.852 454.11 247.082 453.83 246.522 453.27C245.962 452.71 245.682 451.95 245.682 450.99V440.49H243.132V450.69C243.132 451.53 243.212 452.3 243.372 453C243.552 453.68 243.852 454.27 244.272 454.77C244.692 455.27 245.242 455.66 245.922 455.94C246.602 456.2 247.452 456.33 248.472 456.33C249.612 456.33 250.602 456.11 251.442 455.67C252.282 455.21 252.972 454.5 253.512 453.54H253.572V456H255.972ZM263.342 440.49V435.84H260.792V440.49H258.152V442.74H260.792V452.61C260.792 453.33 260.862 453.91 261.002 454.35C261.142 454.79 261.352 455.13 261.632 455.37C261.932 455.61 262.312 455.78 262.772 455.88C263.252 455.96 263.822 456 264.482 456H266.432V453.75H265.262C264.862 453.75 264.532 453.74 264.272 453.72C264.032 453.68 263.842 453.61 263.702 453.51C263.562 453.41 263.462 453.27 263.402 453.09C263.362 452.91 263.342 452.67 263.342 452.37V442.74H266.432V440.49H263.342ZM280.035 446.76H271.125C271.165 446.16 271.295 445.6 271.515 445.08C271.735 444.54 272.035 444.07 272.415 443.67C272.795 443.27 273.245 442.96 273.765 442.74C274.305 442.5 274.905 442.38 275.565 442.38C276.205 442.38 276.785 442.5 277.305 442.74C277.845 442.96 278.305 443.27 278.685 443.67C279.085 444.05 279.395 444.51 279.615 445.05C279.855 445.59 279.995 446.16 280.035 446.76ZM282.495 451.08H279.975C279.755 452.1 279.295 452.86 278.595 453.36C277.915 453.86 277.035 454.11 275.955 454.11C275.115 454.11 274.385 453.97 273.765 453.69C273.145 453.41 272.635 453.04 272.235 452.58C271.835 452.1 271.545 451.56 271.365 450.96C271.185 450.34 271.105 449.69 271.125 449.01H282.735C282.775 448.07 282.685 447.08 282.465 446.04C282.265 445 281.885 444.04 281.325 443.16C280.785 442.28 280.055 441.56 279.135 441C278.235 440.42 277.095 440.13 275.715 440.13C274.655 440.13 273.675 440.33 272.775 440.73C271.895 441.13 271.125 441.69 270.465 442.41C269.825 443.13 269.325 443.98 268.965 444.96C268.605 445.94 268.425 447.02 268.425 448.2C268.465 449.38 268.635 450.47 268.935 451.47C269.255 452.47 269.725 453.33 270.345 454.05C270.965 454.77 271.725 455.33 272.625 455.73C273.545 456.13 274.625 456.33 275.865 456.33C277.625 456.33 279.085 455.89 280.245 455.01C281.405 454.13 282.155 452.82 282.495 451.08ZM285.678 452.67V456H289.008V452.67H285.678ZM288.768 441.18V434.58H285.918V441.18L286.668 450.51H288.018L288.768 441.18Z" fill="white"/>
</g>
<defs>
<clipPath id="clip0">
<rect width="303" height="377" fill="white" transform="translate(65 79)"/>
</clipPath>
</defs>
</svg>
