<svg xmlns:xlink="http://www.w3.org/1999/xlink" fill="none" viewBox="0 0 272 270"><path fill="#F96132" fill-rule="evenodd" stroke="#35416B" stroke-linecap="round" stroke-linejoin="round" stroke-width="2.5" d="M13.1 2.13h245.867a11.091 11.091 0 017.852 3.25 11.116 11.116 0 013.253 7.856v244.358a11.118 11.118 0 01-3.253 7.856 11.098 11.098 0 01-7.852 3.251H13.1c-2.944 0-5.767-1.17-7.849-3.253a11.11 11.11 0 01-3.25-7.854V13.282A11.113 11.113 0 018.84 2.98c1.35-.561 2.797-.85 4.259-.85z" clip-rule="evenodd"/><path fill="#fff" fill-rule="evenodd" d="M30.904 17.137H240.83c2.944 0 5.767 1.17 7.848 3.253a11.11 11.11 0 013.251 7.854v189.465c0 2.946-1.169 5.771-3.251 7.854a11.093 11.093 0 01-7.848 3.253H30.903c-2.943 0-5.767-1.17-7.848-3.253a11.11 11.11 0 01-3.251-7.854V28.244c0-2.946 1.17-5.77 3.25-7.854a11.096 11.096 0 017.85-3.253z" clip-rule="evenodd"/><path fill="#35416B" fill-rule="evenodd" d="M27.302 17.003h53.166V228.6H27.302c-4.406 0-7.98-5.025-7.98-11.22V28.218c0-6.21 3.574-11.215 7.98-11.215z" clip-rule="evenodd"/><path fill="#F96132" fill-rule="evenodd" d="M54.406 34.29v11.235l10.946-.077.185-2.279-3.165-.57-3.693-3.951-4.273-4.358z" clip-rule="evenodd"/><path fill="#fff" fill-rule="evenodd" d="M56.273 42.41a.987.987 0 011.696-.64.986.986 0 01-.716 1.666.993.993 0 01-.98-1.026z" clip-rule="evenodd"/><path fill="#F96132" fill-rule="evenodd" d="M46.62 26.714l.05 5.405 6.505 6.42.051-5.347-6.606-6.478zm.02 6.524l.03 5.353 6.602 6.74-.097-5.236-6.535-6.857zm-.067 6.985l.082 5.236 5.38.087-5.462-5.323zm-6.519-13.637l-.051 5.482 6.555 6.487.082-5.132-6.586-6.837z" clip-rule="evenodd"/><path fill="#F96132" fill-rule="evenodd" d="M39.972 33.356v5.369l6.617 6.703v-5.333l-6.617-6.739zm-.035 6.837v5.353l5.416-.051-5.416-5.302z" clip-rule="evenodd"/><path fill="#F96132" fill-rule="evenodd" d="M33.31 26.766v5.332l6.667 6.483v-5.24l-6.668-6.575zm.076 6.59l6.545 6.775v5.358l-6.668-7.006.123-5.127zm-.149 6.929V45.5h5.478l-5.478-5.215zm-.287 26.412a2.169 2.169 0 012.17 2.166v.231a2.177 2.177 0 01-2.17 2.171 2.17 2.17 0 01-2.17-2.17v-.232a2.167 2.167 0 012.17-2.166zm.344 20.705a2.17 2.17 0 012.17 2.171v.226a2.172 2.172 0 01-2.17 2.171 2.17 2.17 0 01-2.17-2.17v-.227a2.172 2.172 0 012.17-2.17zm-.196 20.279a2.16 2.16 0 012.004 1.336c.11.263.166.545.166.83v.231a2.17 2.17 0 01-2.17 2.171 2.172 2.172 0 01-2.17-2.171v-.231a2.172 2.172 0 012.17-2.166zm.041 20.13a2.17 2.17 0 012.17 2.171v.231a2.166 2.166 0 01-2.17 2.166 2.17 2.17 0 01-2.17-2.166v-.231a2.176 2.176 0 012.17-2.171zm-.296 20.351a2.17 2.17 0 012.17 2.171v.226a2.17 2.17 0 11-4.34 0v-.236a2.173 2.173 0 012.17-2.161zm-.196 20.787a2.166 2.166 0 012.165 2.171v.247a2.161 2.161 0 01-.634 1.531 2.17 2.17 0 01-1.53.635 2.177 2.177 0 01-1.548-.626 2.155 2.155 0 01-.643-1.54v-.231a2.173 2.173 0 012.19-2.187zm6.53-101.57h32.73a1.405 1.405 0 011.405 1.407 1.412 1.412 0 01-1.405 1.412h-32.73a1.41 1.41 0 01-.994-2.406c.264-.264.621-.412.994-.412zm.359 20.711h32.725a1.405 1.405 0 011.405 1.406 1.407 1.407 0 01-1.405 1.412H39.536a1.41 1.41 0 010-2.818zm-.195 20.274h32.725a1.412 1.412 0 011.41 1.406 1.413 1.413 0 01-1.41 1.412H39.34a1.406 1.406 0 01-1.405-1.412 1.404 1.404 0 011.405-1.406zm.041 20.135h32.725a1.409 1.409 0 011.41 1.406 1.41 1.41 0 01-1.41 1.427H39.382a1.404 1.404 0 01-1.405-1.411 1.407 1.407 0 011.405-1.422zm-.303 20.346h32.73a1.406 1.406 0 011.406 1.411 1.408 1.408 0 01-1.406 1.407H39.08a1.408 1.408 0 010-2.818zm-.194 20.792H71.61a1.409 1.409 0 110 2.818H38.885a1.414 1.414 0 01-.994-2.406c.264-.264.621-.412.994-.412z" clip-rule="evenodd"/><path fill="#35416B" fill-rule="evenodd" d="M92.994 30.092h5.231v1.298h-3.703v1.699h3.242v1.283h-3.242v3.08h-1.539l.01-7.36zm7.57 1.914v3.29c-.013.24.025.48.113.703a.756.756 0 00.764.416.993.993 0 001.026-.59 2.06 2.06 0 00.144-.847v-2.972h1.446v5.461h-1.39v-.77l-.097.15a1.17 1.17 0 01-.19.22c-.188.178-.41.318-.652.41a2.221 2.221 0 01-.733.113 1.641 1.641 0 01-1.631-.872 3.327 3.327 0 01-.236-1.422v-3.29h1.436zm9.792 1.807v3.68h-1.461v-3.321a1.547 1.547 0 00-.113-.662.816.816 0 00-.8-.421.995.995 0 00-1.001.616 2.126 2.126 0 00-.138.831v2.957h-1.426v-5.477h1.38v.796a2.38 2.38 0 01.513-.606 1.794 1.794 0 011.113-.334c.5-.02.991.138 1.385.447a1.793 1.793 0 01.548 1.494zm6.273 0v3.68h-1.462v-3.321c.01-.227-.03-.453-.118-.662a.808.808 0 00-.8-.421.996.996 0 00-.995.616 2.145 2.145 0 00-.139.831v2.957h-1.426v-5.477h1.38v.796a2.4 2.4 0 01.513-.606 1.82 1.82 0 011.118-.334c.5-.02.992.138 1.385.447a1.795 1.795 0 01.544 1.494zm2.354.374h2.221a1.253 1.253 0 00-.343-.857 1.072 1.072 0 00-.765-.292.968.968 0 00-.769.308c-.197.24-.316.533-.344.842zm3.242-1.267c.218.342.36.727.415 1.129.042.36.057.721.047 1.083h-3.74a1.374 1.374 0 00.513 1.155c.21.14.457.21.708.205.263.011.52-.079.718-.252a1.18 1.18 0 00.267-.374h1.457c-.063.374-.242.72-.513.985a2.492 2.492 0 01-1.965.796 2.754 2.754 0 01-1.836-.672 2.714 2.714 0 01-.795-2.182 3.038 3.038 0 01.718-2.176 2.444 2.444 0 011.867-.76 2.88 2.88 0 011.226.257c.375.175.692.455.913.806zm2.878 4.547h-1.426v-7.386h1.426v7.386zm2.508-1.745a.95.95 0 00.195.544 1.31 1.31 0 00.98.282c.23.01.46-.032.672-.123a.403.403 0 00.246-.374.423.423 0 00-.2-.37 8.462 8.462 0 00-1.488-.431 3.007 3.007 0 01-1.308-.575 1.246 1.246 0 01-.379-.98 1.702 1.702 0 01.59-1.304 2.41 2.41 0 011.672-.544 3.076 3.076 0 011.667.41 1.77 1.77 0 01.738 1.411h-1.431a.81.81 0 00-.154-.435.963.963 0 00-.8-.293 1.12 1.12 0 00-.661.149.413.413 0 00-.201.339.367.367 0 00.211.354c.483.175.981.307 1.487.395.472.089.912.3 1.277.61a1.367 1.367 0 01.421 1.027 1.663 1.663 0 01-.605 1.325 3.615 3.615 0 01-3.765-.031 1.756 1.756 0 01-.616-1.386h1.452z" clip-rule="evenodd"/><path fill="url(#pattern0)" d="M66.875 72.821h187.219v120.616H66.875z"/><path stroke="#F96132" stroke-linecap="round" stroke-linejoin="round" stroke-width="2.5" d="M117.491 82.716l-.205 102.688m51.621-102.061l-.211 102.682m46.857-102.893l-.211 102.683"/><path fill="#F96132" fill-rule="evenodd" d="M92.25 42.78h61.485v5.178H92.25V42.78zm-.241 8.75h72.271v5.133H92.009v-5.132zm-2.94 24.278h13.444v4.234H89.069v-4.234zm58.125.22h13.439v4.24h-13.439v-4.24zm44.323.257h13.443v4.234h-13.443v-4.234zm36.93-.385h13.439v4.24h-13.439V75.9zM98.338 203h133.018c2.831 0 5.129 1.38 5.129 3.079v7.412c0 1.704-2.298 3.079-5.129 3.079H98.338c-2.831 0-5.129-1.38-5.129-3.079v-7.407c0-1.704 2.298-3.084 5.13-3.084z" clip-rule="evenodd"/><defs><pattern id="pattern0" width="1" height="1" patternContentUnits="objectBoundingBox"><use transform="scale(.00274 .00426)" xlink:href="#image0"/></pattern></defs></svg>