<svg fill="none" viewBox="0 0 272 270"><path fill="#F7A501" fill-rule="evenodd" stroke="#F96132" stroke-linecap="round" stroke-linejoin="round" stroke-width="2.5" d="M13.1 1.253h245.867c2.944 0 5.767 1.17 7.849 3.253a11.113 11.113 0 013.251 7.854v244.338c0 2.946-1.17 5.771-3.251 7.854a11.097 11.097 0 01-7.849 3.253H13.1A11.1 11.1 0 012 256.698V12.386A11.113 11.113 0 018.846 2.1a11.093 11.093 0 014.254-.848z" clip-rule="evenodd"/><path fill="#fff" fill-rule="evenodd" d="M35.243 21.327h209.926c2.944 0 5.767 1.17 7.849 3.253a11.113 11.113 0 013.251 7.854v189.465a11.102 11.102 0 01-3.249 7.857 11.11 11.11 0 01-7.851 3.255H35.243a11.11 11.11 0 01-7.854-3.253 11.114 11.114 0 01-3.251-7.859V32.434a11.114 11.114 0 013.253-7.856 11.098 11.098 0 017.852-3.251z" clip-rule="evenodd"/><path fill="#F96132" fill-rule="evenodd" d="M28.595 21.25H81.76v212.023H28.595c-4.406 0-7.98-5.03-7.98-11.241V32.49c0-6.205 3.574-11.24 7.98-11.24z" clip-rule="evenodd"/><path fill="#F7A501" fill-rule="evenodd" d="M55.765 38.886V50.12l10.946-.082.18-2.28-3.165-.564-3.688-3.952-4.273-4.358z" clip-rule="evenodd"/><path fill="#fff" fill-rule="evenodd" d="M57.627 47.005a.985.985 0 11.985 1.027 1.025 1.025 0 01-.985-1.027z" clip-rule="evenodd"/><path fill="#F7A501" fill-rule="evenodd" d="M47.979 31.3l.051 5.399 6.5 6.426.05-5.353-6.601-6.473zm.015 6.533l.036 5.354 6.602 6.733-.103-5.235-6.535-6.852zm-.066 6.986l.082 5.235 5.38.082-5.462-5.317zm-6.52-13.643l-.046 5.487 6.55 6.488.082-5.133-6.586-6.842z" clip-rule="evenodd"/><path fill="#F7A501" fill-rule="evenodd" d="M41.326 37.972v5.364l6.622 6.708v-5.338l-6.622-6.734zm-.03 6.816v5.348l5.411-.046-5.411-5.302z" clip-rule="evenodd"/><path fill="#F7A501" fill-rule="evenodd" d="M34.669 31.361v5.328l6.668 6.487v-5.245l-6.669-6.57zm.071 6.61l6.545 6.77v5.36l-6.683-6.996.138-5.133zm-.143 6.91v5.214h5.478l-5.478-5.215zm-2.868 21.105a2.169 2.169 0 012.17 2.17v.232a2.172 2.172 0 01-2.17 2.17 2.168 2.168 0 01-2.164-2.17v-.231a2.172 2.172 0 012.164-2.171zm.35 20.71a2.169 2.169 0 012.169 2.17v.227a2.172 2.172 0 01-2.17 2.17 2.17 2.17 0 01-2.17-2.17v-.226a2.172 2.172 0 012.17-2.171zm-.196 20.273a2.17 2.17 0 012.17 2.172v.231a2.173 2.173 0 01-.636 1.533 2.158 2.158 0 01-1.534.633 2.17 2.17 0 01-2.17-2.166v-.231a2.177 2.177 0 012.17-2.172zm.041 20.136a2.17 2.17 0 012.17 2.171v.226a2.172 2.172 0 01-2.17 2.171 2.17 2.17 0 01-2.17-2.171v-.226a2.17 2.17 0 012.17-2.171zm-.302 20.345a2.17 2.17 0 012.17 2.171v.242a2.166 2.166 0 01-1.34 2.005 2.171 2.171 0 01-.83.166 2.177 2.177 0 01-2.17-2.171v-.231a2.182 2.182 0 01.633-1.541 2.183 2.183 0 011.537-.641zm-.195 20.792a2.17 2.17 0 012.17 2.172v.225a2.169 2.169 0 11-4.34 0v-.246a2.173 2.173 0 012.17-2.151zm6.56-101.569h32.725a1.41 1.41 0 010 2.818H37.987a1.41 1.41 0 010-2.818zm.328 20.705h32.73a1.41 1.41 0 010 2.818h-32.73a1.405 1.405 0 01-1.405-1.406 1.412 1.412 0 011.405-1.412zm-.19 20.279H70.85a1.409 1.409 0 110 2.818H38.126a1.413 1.413 0 01-1.41-1.411 1.41 1.41 0 011.41-1.407zm.042 20.135H70.89a1.41 1.41 0 010 2.818H38.167a1.405 1.405 0 01-.998-2.404 1.41 1.41 0 01.998-.414zm-.303 20.346H70.59a1.41 1.41 0 010 2.818H37.864a1.404 1.404 0 01-1.405-1.406 1.408 1.408 0 011.405-1.412zm-.195 20.792h32.725a1.406 1.406 0 011.41 1.407 1.413 1.413 0 01-1.41 1.411H37.669a1.413 1.413 0 01-1.303-1.951 1.409 1.409 0 011.303-.867z" clip-rule="evenodd"/><path fill="#F96132" fill-rule="evenodd" d="M92.245 38.09h-1.426v2.171h1.441c.305.018.605-.075.846-.262a1.072 1.072 0 00.303-.842 1.027 1.027 0 00-.303-.826 1.338 1.338 0 00-.861-.241zm.113 3.475h-1.54v2.653H89.28v-7.411h3.216a2.625 2.625 0 011.775.57 2.212 2.212 0 01.662 1.77 2.26 2.26 0 01-.662 1.848 2.922 2.922 0 01-1.913.57zm6.616 0c-.085.055-.176.1-.272.133-.122.046-.25.078-.379.098l-.318.061c-.224.03-.443.096-.646.195a.664.664 0 00-.334.606.627.627 0 00.205.513.733.733 0 00.513.165c.304.003.601-.093.847-.273a1.145 1.145 0 00.405-.985l-.02-.513zm-.867-.667a2.2 2.2 0 00.565-.129.43.43 0 00.308-.405.477.477 0 00-.231-.462 1.45 1.45 0 00-.688-.129.876.876 0 00-.713.252.98.98 0 00-.2.513h-1.38c.013-.423.152-.832.4-1.175a2.333 2.333 0 011.945-.724c.553-.011 1.1.112 1.595.36a1.358 1.358 0 01.692 1.34v3.139a.82.82 0 00.087.38.515.515 0 00.211.164v.21h-1.539a1.67 1.67 0 01-.087-.307 2.808 2.808 0 01-.041-.334c-.2.215-.43.4-.682.55a2.076 2.076 0 01-1.026.261 1.8 1.8 0 01-1.226-.42 1.509 1.509 0 01-.482-1.202 1.541 1.541 0 01.774-1.457 3.492 3.492 0 011.252-.355l.466-.072zm3.001-1.099v-1.027h.759v-1.54h1.416v1.54h.872V39.8h-.887v2.885a.665.665 0 00.082.42c.16.075.337.104.513.083h.282v1.067h-.677a1.815 1.815 0 01-1.385-.354 1.022 1.022 0 01-.241-.755v-3.361l-.734.015zm8.586-.498c.141.186.236.402.277.631.038.35.053.701.047 1.053v3.207h-1.457v-3.32a1.491 1.491 0 00-.149-.714.764.764 0 00-.744-.38 1.027 1.027 0 00-.856.38 1.732 1.732 0 00-.293 1.078v2.956h-1.425v-7.36h1.425v2.608c.171-.286.42-.516.719-.662.268-.125.56-.19.856-.19.317-.004.631.057.923.18.271.112.505.297.677.533zm2.77 3.146a.95.95 0 00.195.544 1.33 1.33 0 00.98.283c.23.01.46-.033.672-.123a.4.4 0 00.246-.375.412.412 0 00-.2-.37 8.427 8.427 0 00-1.487-.43 3.077 3.077 0 01-1.308-.576 1.253 1.253 0 01-.38-.98 1.707 1.707 0 01.595-1.304 2.39 2.39 0 011.667-.544 3.076 3.076 0 011.667.41 1.736 1.736 0 01.739 1.412h-1.436a.822.822 0 00-.16-.436.962.962 0 00-.8-.293 1.142 1.142 0 00-.661.15.414.414 0 00-.2.338.366.366 0 00.21.354c.484.174.981.306 1.487.395.472.089.912.3 1.278.611a1.372 1.372 0 01.42 1.027 1.659 1.659 0 01-.6 1.324 3.624 3.624 0 01-3.77-.03 1.774 1.774 0 01-.61-1.387h1.456z" clip-rule="evenodd"/><path fill="#F7A501" fill-rule="evenodd" d="M117.822 103.232v4.702s4.39.159 5.555 2.222c5.898 10.435 7.519 22.584 8.719 30.103 3.155 19.843 3.934 32.335 6.412 48.76 2.375 15.726 6.837 14.279 6.837 14.279l-.343-5.046s-.462 3.593-2.565-7.011c-5.381-27.203-5.806-72.76-17.409-84.98-1.564-1.663-7.206-3.029-7.206-3.029z" clip-rule="evenodd" opacity=".3"/><path fill="#F7A501" fill-rule="evenodd" d="M117.437 118.435h27.595l-.092 22.255-27.596-.462.093-21.793z" clip-rule="evenodd" opacity=".3"/><path fill="#F7A501" fill-rule="evenodd" d="M116.232 164.839l-.236-24.431a42.74 42.74 0 007.694-19.576c1.2-9.326 5.349-25.304 9.042-31.673 2.981-5.133 12.737-13.581 12.737-13.581l-.739 30.113s-4.242 2.674-6.668 12.005c-2.426 9.331-1.908 22.024-6.053 32.335-4.616 11.616-15.777 14.808-15.777 14.808z" clip-rule="evenodd" opacity=".3"/><path fill="#F7A501" fill-rule="evenodd" d="M117.139 163.571l-.302 15.198s5.129-2.315 7.694-4.789c5.683-5.507 8.904-8.366 13.592-13.678 2.888-3.265 7.289-3.116 7.289-3.116l-.149-12.831s-6.914 3.418-10.079 5.646c-4.052 2.823-7.022 6.965-9.669 9.87-4.103 4.439-8.376 3.7-8.376 3.7z" clip-rule="evenodd" opacity=".3"/><path fill="#F7A501" fill-rule="evenodd" d="M144.91 163.325l.164 6.631s-3.56-1.391-7.694 1.879c-2.878 2.279-7.351 8.966-10.208 10.583-2.857 1.617-9.745 1.94-9.745 1.94l-.057-6.2s3.237.975 8.171-1.54c3.365-1.729 5.13-8.176 10.587-10.296 5.17-2.027 8.782-2.997 8.782-2.997z" clip-rule="evenodd" opacity=".3"/><path fill="#F7A501" fill-rule="evenodd" d="M145.771 175.946l.215 2.91s-2.564.108-7.222 2.32c-4.657 2.212-8.55 6.457-12.31 6.703-5.519.365-9.617.201-9.617.201l.646-3.773s1.482.421 8.679.051c1.195-.061 6.765-4.342 11.479-6.472 4.714-2.13 8.13-1.94 8.13-1.94z" clip-rule="evenodd" opacity=".3"/><path fill="#F7A501" fill-rule="evenodd" d="M146.289 184.574l-.415 2.91s-2.288-.76-6.971 1.453c-4.683 2.212-7.427 2.946-12.9 3.536-5.473.59-9.002-1.186-9.002-1.186l.344-3.741a16.007 16.007 0 008.519 1.386c5.13-.478 7.181-1.166 11.905-3.296 4.725-2.13 8.52-1.062 8.52-1.062z" clip-rule="evenodd" opacity=".3"/><path fill="#F7A501" fill-rule="evenodd" d="M146.915 191.801l-.626 2.843s-5.006-.841-8.376.97c-2.842 1.54-11.982 1.73-11.982 1.73l-9.346-.831.483-5.405s3.59 2.797 10.802 2.428c1.195-.062 4.493.811 9.233-1.319 4.739-2.13 9.812-.416 9.812-.416z" clip-rule="evenodd" opacity=".3"/><path fill="#F7A501" fill-rule="evenodd" d="M145.981 199.294l-.107 3.593s-3.078-2.125-8.587-1.247c-3.462.554-8.509.842-12.254.349a33.778 33.778 0 01-9.279-2.633l1.385-3.398s2.216 1.386 8.376 2.428c1.18.195 6.479.077 11.634-.349a19.64 19.64 0 018.832 1.257z" clip-rule="evenodd" opacity=".3"/><path fill="#F7A501" fill-rule="evenodd" d="M146.361 207.994l-.692 3.259a36.65 36.65 0 00-9.556-3.464c-2.442-.514-7.93-1.222-11.705-.97a9.863 9.863 0 01-8.31-3.326l.488-5.133a11.303 11.303 0 008.237 4.501c1.195.093 8.325.052 11.772.832 3.673.836 9.766 4.301 9.766 4.301z" clip-rule="evenodd" opacity=".3"/><path fill="#F7A501" fill-rule="evenodd" d="M147.058 214.718l-.692 3.254a36.675 36.675 0 00-9.556-3.465c-2.441-.513-7.93-1.221-11.705-.97a9.841 9.841 0 01-8.309-3.326l.513-5.132a11.329 11.329 0 008.237 4.506c1.195.088 8.325.046 11.798.832 3.616.836 9.714 4.301 9.714 4.301zm.698-137.95l.703 8.028s4.534-5.974 8.489-2.987c5.678 4.29 4.673 15.367 10.258 22.542 5.586 7.176 12.993 5.749 12.993 5.749l.292-8.258s-3.59 2.669-8.956-3.752c-5.365-6.421-4.359-15.988-9.658-22.024-5.299-6.036-14.121.703-14.121.703z" clip-rule="evenodd" opacity=".3"/><path fill="#F7A501" fill-rule="evenodd" d="M148.526 119.01v20.336s11.5 1.267 16.157-8.695 5.457-15.157 6.668-21.696c1.539-8.243 9.402-12.143 9.402-12.143V76.05s-9.048 2.874-12.49 7.904c-6.622 9.66-8.135 18.38-12.567 28.882-1.343 3.208-7.17 6.174-7.17 6.174zm34.438-16.414l37.31-.539.067 3.372-37.716.811.339-3.644zm-.072-26.448l37.274-.421.082 10.265-37.515.826.159-10.67zm-34.997 87.079l32.94.293.097 2.438-33.181-.293.144-2.438z" clip-rule="evenodd" opacity=".3"/><path fill="#F96132" fill-rule="evenodd" d="M148.525 83.457l-.159 20.771s4.524-.703 4.75-10.82c.246-11.076-4.591-9.951-4.591-9.951zm-.21 82.111v4.573s2.211 0 2.114-2.499c-.118-2.408-2.114-2.074-2.114-2.074z" clip-rule="evenodd" opacity=".5"/><path fill="#F7A501" fill-rule="evenodd" d="M89.25 49.495h66.167v5.06H89.249v-5.06zm.107 8.371h92.491v5.466H89.357v-5.466z" clip-rule="evenodd"/><path fill="#F96132" fill-rule="evenodd" d="M115.575 118.174c1.052 0 1.908.698 1.908 1.539v98.11c0 .862-.856 1.54-1.908 1.54-1.026 0-1.903-.698-1.903-1.54v-98.089c0-.862.852-1.56 1.903-1.56zm.303-15.896a1.825 1.825 0 011.826 1.827v3.521a1.835 1.835 0 01-1.826 1.827 1.828 1.828 0 01-1.831-1.827v-3.531a1.82 1.82 0 01.54-1.287 1.82 1.82 0 011.291-.53zm30.704-27.157a1.958 1.958 0 011.964 1.96v26.839a1.957 1.957 0 01-1.213 1.813 1.963 1.963 0 01-2.711-1.813V77.082a1.963 1.963 0 011.96-1.96zm.251 42.77a1.943 1.943 0 011.939 1.94v19.104a1.94 1.94 0 01-3.31 1.372 1.94 1.94 0 01-.568-1.372v-19.099a1.938 1.938 0 011.939-1.945zm34.982-42.847a1.93 1.93 0 011.938 1.935v19.094a1.94 1.94 0 11-3.877 0V76.979c0-.254.05-.506.147-.741a1.945 1.945 0 011.05-1.048c.235-.097.487-.146.742-.146zm-34.972 68.269a1.867 1.867 0 011.867 1.868v11.205a1.865 1.865 0 01-3.187 1.321 1.87 1.87 0 01-.547-1.321v-11.189a1.87 1.87 0 011.867-1.884zm73.472-68.35a1.866 1.866 0 011.867 1.867v11.19a1.862 1.862 0 01-1.867 1.863 1.858 1.858 0 01-1.725-1.15 1.862 1.862 0 01-.142-.714V76.83a1.87 1.87 0 011.867-1.868zm-73.477 86.92a1.833 1.833 0 011.826 1.832v5.759a1.825 1.825 0 01-2.526 1.689 1.827 1.827 0 01-1.131-1.689v-5.759a1.833 1.833 0 011.831-1.832zm34.859-60.585a1.827 1.827 0 011.831 1.827v5.759c0 .486-.193.952-.537 1.295a1.828 1.828 0 01-1.294.537 1.83 1.83 0 01-1.826-1.832v-5.759a1.824 1.824 0 011.826-1.827zm-34.864 73.565a1.734 1.734 0 011.233.511 1.756 1.756 0 01.511 1.234v1.638a1.75 1.75 0 01-1.744 1.75 1.75 1.75 0 01-1.749-1.75v-1.638a1.747 1.747 0 011.08-1.613c.212-.088.439-.133.669-.132zm35.064-12.318a1.746 1.746 0 011.749 1.75v1.637a1.749 1.749 0 01-3.498 0v-1.637a1.752 1.752 0 011.079-1.617c.213-.088.44-.133.67-.133zm38.618-61.247a1.749 1.749 0 011.749 1.745v1.637a1.75 1.75 0 01-1.749 1.75 1.746 1.746 0 01-1.744-1.75v-1.637a1.745 1.745 0 011.744-1.745zm-73.579 82.008a1.75 1.75 0 011.749 1.751v1.637a1.749 1.749 0 01-1.749 1.75 1.748 1.748 0 01-1.744-1.75v-1.637a1.75 1.75 0 011.744-1.751zm-.052 7.54a1.75 1.75 0 011.749 1.745v1.637a1.75 1.75 0 11-3.498 0v-1.637a1.748 1.748 0 011.749-1.745zm-.051 8.058a1.751 1.751 0 011.744 1.75v1.638a1.754 1.754 0 01-1.744 1.75 1.746 1.746 0 01-1.749-1.75v-1.638a1.75 1.75 0 011.749-1.75zm.103 8.12a1.75 1.75 0 011.749 1.745v1.637a1.75 1.75 0 01-1.749 1.751 1.753 1.753 0 01-1.744-1.751v-1.637a1.756 1.756 0 011.076-1.612c.212-.088.439-.133.668-.133zm0 7.478a1.75 1.75 0 011.749 1.751v1.637a1.75 1.75 0 01-1.749 1.75 1.748 1.748 0 01-1.744-1.75v-1.637a1.75 1.75 0 011.744-1.751z" clip-rule="evenodd"/></svg>