<svg fill="none" viewBox="0 0 272 270"><path fill="#35416B" fill-rule="evenodd" stroke="#F7A501" stroke-linecap="round" stroke-linejoin="round" stroke-width="2.5" d="M13.1 2h245.847a11.091 11.091 0 017.852 3.251 11.108 11.108 0 013.252 7.856v244.312a11.116 11.116 0 01-3.242 7.875 11.094 11.094 0 01-7.862 3.263H13.1c-2.944 0-5.767-1.17-7.849-3.253A11.11 11.11 0 012 257.45V13.138a11.114 11.114 0 016.845-10.29A11.094 11.094 0 0113.1 2z" clip-rule="evenodd"/><path fill="#fff" fill-rule="evenodd" d="M32.022 23.403h209.926a11.094 11.094 0 017.852 3.251 11.11 11.11 0 013.253 7.856v189.465a11.109 11.109 0 01-6.856 10.263 11.102 11.102 0 01-4.249.844H32.022a11.098 11.098 0 01-7.832-3.262 11.113 11.113 0 01-3.242-7.845V34.51a11.11 11.11 0 013.242-7.845 11.096 11.096 0 017.832-3.262z" clip-rule="evenodd"/><path fill="#F7A501" fill-rule="evenodd" d="M26.59 23.439h53.17V235.02H26.59c-4.411 0-7.986-5.025-7.986-11.215V34.654c.005-6.196 3.58-11.215 7.986-11.215z" clip-rule="evenodd"/><path fill="#35416B" fill-rule="evenodd" d="M51.647 40.017v11.235l10.945-.077.18-2.284-3.165-.564-3.688-3.952-4.272-4.358z" clip-rule="evenodd"/><path fill="#fff" fill-rule="evenodd" d="M53.513 48.137a.986.986 0 11.98 1.026.994.994 0 01-.98-1.026z" clip-rule="evenodd"/><path fill="#35416B" fill-rule="evenodd" d="M43.86 32.441l.052 5.4 6.504 6.426.046-5.348-6.602-6.478zm.02 6.514l.032 5.353 6.601 6.739-.097-5.235-6.535-6.857zm-.066 6.995l.082 5.236 5.38.082-5.462-5.318zm-6.52-13.642l-.05 5.487 6.55 6.487.087-5.132-6.587-6.842z" clip-rule="evenodd"/><path fill="#35416B" fill-rule="evenodd" d="M37.213 39.083v5.369l6.617 6.703v-5.333l-6.617-6.739zm-.036 6.837v5.353l5.411-.046-5.411-5.307z" clip-rule="evenodd"/><path fill="#35416B" fill-rule="evenodd" d="M30.55 32.493v5.332l6.668 6.483v-5.24l-6.668-6.575zm.076 6.59l6.54 6.775v5.359l-6.683-7.006.143-5.128zm-.149 6.929v5.215h5.479l-5.479-5.215zm80.92 38.35h15.814v104.09h-15.814V84.362z" clip-rule="evenodd"/><path fill="#F7A501" fill-rule="evenodd" d="M129.966 84.635h14.29a2.673 2.673 0 012.473 1.654c.135.325.204.673.204 1.025v14.412a2.675 2.675 0 01-1.653 2.476 2.684 2.684 0 01-1.024.204h-14.29a2.68 2.68 0 01-2.678-2.68V87.329a2.675 2.675 0 01.779-1.904 2.686 2.686 0 011.899-.79zm0 40.121h14.29a2.684 2.684 0 011.893.785 2.675 2.675 0 01.784 1.895v14.397a2.684 2.684 0 01-2.677 2.684h-14.29a2.682 2.682 0 01-2.678-2.684v-14.397a2.682 2.682 0 012.678-2.68zm41.111 1.391h14.29a2.682 2.682 0 012.677 2.685v14.371a2.684 2.684 0 01-2.677 2.684h-14.29a2.685 2.685 0 01-2.683-2.684v-14.371a2.685 2.685 0 012.683-2.685z" clip-rule="evenodd"/><path fill="#F7C455" fill-rule="evenodd" d="M212.952 84.553h14.29a2.682 2.682 0 012.678 2.684v14.371a2.686 2.686 0 01-2.678 2.685h-14.29a2.686 2.686 0 01-2.678-2.685v-14.37a2.685 2.685 0 012.678-2.685z" clip-rule="evenodd"/><path fill="#F7E09F" fill-rule="evenodd" d="M191.271 84.814h14.29a2.676 2.676 0 012.677 2.685v14.397a2.68 2.68 0 01-2.677 2.679h-14.29a2.67 2.67 0 01-1.894-.785 2.697 2.697 0 01-.784-1.894V87.499a2.685 2.685 0 012.678-2.684z" clip-rule="evenodd"/><path fill="#F7C455" fill-rule="evenodd" d="M191.271 104.98h14.29a2.678 2.678 0 012.677 2.68v14.397a2.682 2.682 0 01-1.651 2.48 2.675 2.675 0 01-1.026.204h-14.29a2.682 2.682 0 01-2.678-2.684V107.66a2.694 2.694 0 01.784-1.895 2.684 2.684 0 011.894-.785z" clip-rule="evenodd"/><path fill="#F7E09F" fill-rule="evenodd" d="M171.625 106.428h14.286a2.675 2.675 0 011.896.786 2.669 2.669 0 01.786 1.898v14.397a2.683 2.683 0 01-2.682 2.68h-14.286a2.685 2.685 0 01-2.682-2.68v-14.397a2.686 2.686 0 012.682-2.684z" clip-rule="evenodd"/><path fill="#F7C455" fill-rule="evenodd" d="M150.954 85.148h14.291a2.68 2.68 0 012.682 2.685v14.397a2.68 2.68 0 01-2.682 2.679h-14.291a2.688 2.688 0 01-1.893-.785 2.674 2.674 0 01-.784-1.894V87.807a2.688 2.688 0 012.677-2.659zm-20.522 60.796h14.291a2.678 2.678 0 012.677 2.679v14.397a2.682 2.682 0 01-1.652 2.48 2.67 2.67 0 01-1.025.204h-14.291a2.684 2.684 0 01-2.677-2.684v-14.397a2.678 2.678 0 012.677-2.679zm41.194-60.93h14.285a2.683 2.683 0 012.682 2.68v14.392a2.684 2.684 0 01-2.682 2.684h-14.285a2.682 2.682 0 01-2.683-2.684V87.714a2.685 2.685 0 012.683-2.7z" clip-rule="evenodd"/><path fill="#F7E09F" fill-rule="evenodd" d="M150.754 145.944h14.285a2.684 2.684 0 012.683 2.679v14.397a2.685 2.685 0 01-2.683 2.684h-14.285a2.682 2.682 0 01-2.682-2.684v-14.397a2.685 2.685 0 012.682-2.679z" clip-rule="evenodd"/><path fill="#F1AA04" fill-rule="evenodd" d="M150.447 105.576h14.285a2.684 2.684 0 012.682 2.684v14.397a2.683 2.683 0 01-2.682 2.679h-14.285a2.682 2.682 0 01-2.683-2.679v-14.412a2.687 2.687 0 012.683-2.669zm-20.44 60.154h14.29a2.67 2.67 0 011.893.785 2.684 2.684 0 01.785 1.894v14.397a2.677 2.677 0 01-2.678 2.679h-14.29a2.682 2.682 0 01-2.683-2.679v-14.417a2.676 2.676 0 012.683-2.659z" clip-rule="evenodd"/><path stroke="#35416B" stroke-linecap="round" stroke-linejoin="round" d="M87.864 63.889h140.948a2.716 2.716 0 012.749 2.684v128.315a2.72 2.72 0 01-1.708 2.487 2.728 2.728 0 01-1.041.193H87.864a2.722 2.722 0 01-2.754-2.68V66.573a2.719 2.719 0 012.754-2.684v0z" clip-rule="evenodd"/><path fill="#35416B" fill-rule="evenodd" d="M27.739 71.47a2.17 2.17 0 012.17 2.17v.216a2.172 2.172 0 11-4.345 0v-.23a2.171 2.171 0 012.175-2.156zm.349 20.71a2.169 2.169 0 012.17 2.17v.227a2.172 2.172 0 01-2.17 2.17 2.169 2.169 0 01-2.17-2.17v-.226a2.172 2.172 0 012.17-2.171zm-.196 20.274a2.17 2.17 0 012.17 2.171v.231a2.176 2.176 0 01-.636 1.535 2.175 2.175 0 01-1.534.636 2.177 2.177 0 01-2.17-2.171v-.231a2.177 2.177 0 012.17-2.171zm.042 20.135a2.17 2.17 0 012.17 2.171v.226a2.17 2.17 0 11-4.34 0v-.226a2.171 2.171 0 012.17-2.171zm-.318 20.345a2.17 2.17 0 012.17 2.171v.231a2.172 2.172 0 01-2.17 2.182 2.177 2.177 0 01-2.17-2.171v-.231a2.182 2.182 0 01.634-1.541 2.182 2.182 0 011.536-.641zm-.18 20.793a2.17 2.17 0 012.17 2.171v.225a2.173 2.173 0 01-2.17 2.172 2.17 2.17 0 01-2.17-2.172v-.225a2.17 2.17 0 012.17-2.171zm6.545-101.57h32.725a1.41 1.41 0 110 2.818H33.98a1.41 1.41 0 010-2.817zm.344 20.69h32.73a1.41 1.41 0 01.994 2.406 1.405 1.405 0 01-.994.412h-32.73a1.405 1.405 0 01-1.406-1.407 1.412 1.412 0 011.406-1.411zm-.19 20.294H66.86a1.409 1.409 0 110 2.818H34.135a1.408 1.408 0 010-2.818zm.041 20.13h32.725a1.41 1.41 0 010 2.818H34.176a1.4 1.4 0 01-1.32-.863 1.41 1.41 0 01.31-1.549 1.42 1.42 0 011.01-.406zm-.303 20.351h32.725a1.408 1.408 0 110 2.818H33.873a1.404 1.404 0 01-1.405-1.411 1.409 1.409 0 011.405-1.407zm-.194 20.787h32.724a1.41 1.41 0 010 2.818H33.68a1.409 1.409 0 110-2.818z" clip-rule="evenodd"/><path fill="#F7A501" fill-rule="evenodd" d="M96.348 39.879v1.986h1.749c.266.014.531-.028.78-.123a.822.822 0 00.461-.832.919.919 0 00-.446-.903 1.677 1.677 0 00-.749-.128h-1.795zm4.016-.58c.159.187.287.398.38.626.097.247.146.51.143.775-.006.358-.097.71-.266 1.026a1.54 1.54 0 01-.878.719c.301.116.552.334.708.616.166.363.24.761.216 1.16v.513c-.008.23.004.46.036.688a.613.613 0 00.282.42v.186h-1.698a5.967 5.967 0 01-.103-.396 3.724 3.724 0 01-.061-.636v-.688a1.3 1.3 0 00-.262-.94c-.27-.189-.6-.273-.928-.235h-1.585v2.895H94.84v-7.432h3.621c.407-.01.812.054 1.195.19.27.114.511.29.703.513h.005zm2.77 3.403h2.221a1.253 1.253 0 00-.343-.858 1.074 1.074 0 00-.765-.292.951.951 0 00-.769.313 1.502 1.502 0 00-.344.837zm3.242-1.268c.22.34.362.726.415 1.129.042.36.057.721.047 1.083h-3.74a1.368 1.368 0 00.513 1.155c.21.14.457.21.708.205.263.011.52-.079.718-.252a1.18 1.18 0 00.267-.374h1.457c-.063.374-.242.72-.513.985a2.464 2.464 0 01-1.949.775 2.754 2.754 0 01-1.842-.672 2.714 2.714 0 01-.795-2.181 3.053 3.053 0 01.718-2.177 2.475 2.475 0 011.867-.76 2.88 2.88 0 011.226.257c.375.183.688.47.903.827zm.861.154V40.56h.759v-1.54h1.416v1.54h.887v1.027h-.887v2.884a.665.665 0 00.082.421.985.985 0 00.513.082h.282v1.068h-.677a1.81 1.81 0 01-1.385-.354 1.022 1.022 0 01-.241-.755v-3.362l-.749.016zm5.012 1.114h2.221a1.26 1.26 0 00-.344-.858 1.071 1.071 0 00-.764-.292.967.967 0 00-.77.313c-.195.238-.315.53-.343.837zm3.241-1.268c.221.34.363.726.416 1.129.041.36.056.721.046 1.083h-3.703a1.356 1.356 0 00.513 1.155c.211.138.46.21.713.205.262.011.519-.079.718-.252.109-.107.197-.234.261-.374h1.457a1.815 1.815 0 01-.513.985 2.471 2.471 0 01-1.965.796 2.744 2.744 0 01-1.836-.672 2.708 2.708 0 01-.8-2.182 3.048 3.048 0 01.718-2.176 2.475 2.475 0 011.867-.76c.423-.006.842.081 1.226.257.366.18.674.459.887.806h-.005zm6.376.867v3.68h-1.462v-3.32a1.546 1.546 0 00-.112-.663.823.823 0 00-.806-.42.992.992 0 00-.995.615 2.126 2.126 0 00-.138.832v2.956h-1.426v-5.45h1.38v.795c.136-.23.309-.434.512-.606a1.797 1.797 0 011.114-.333c.5-.022.991.137 1.384.446a1.79 1.79 0 01.549 1.468zm.759-.713V40.56h.76v-1.54h1.415v1.54h.888v1.027h-.888v2.884a.671.671 0 00.082.421.985.985 0 00.513.082h.282v1.068H125a1.811 1.811 0 01-1.385-.354 1.038 1.038 0 01-.241-.755v-3.362l-.749.016zm5.443-1.72h-1.457V38.55h1.446l.011 1.32zm-1.457.652h1.446v5.461h-1.446V40.52zm6.586 2.74a2.054 2.054 0 00-.334-1.267 1.135 1.135 0 00-.959-.441 1.148 1.148 0 00-.969.441 2.562 2.562 0 000 2.536 1.14 1.14 0 00.969.446 1.134 1.134 0 00.959-.446c.247-.375.364-.82.334-1.268zm-1.293 2.911a2.565 2.565 0 01-2.098-.852 3.422 3.422 0 010-4.106 2.992 2.992 0 014.201 0 3.417 3.417 0 010 4.106 2.556 2.556 0 01-2.103.852zm8.761-3.87v3.68h-1.462v-3.32a1.532 1.532 0 00-.113-.663.805.805 0 00-.8-.42.996.996 0 00-1 .615 2.145 2.145 0 00-.139.832v2.956h-1.421v-5.45h1.375v.795c.136-.23.31-.434.513-.606.324-.23.715-.348 1.113-.333a2.11 2.11 0 011.39.446 1.806 1.806 0 01.544 1.468z" clip-rule="evenodd"/><path fill="#35416B" fill-rule="evenodd" stroke="#35416B" stroke-linecap="round" stroke-linejoin="round" d="M91.255 56.406h89.511v3.7H91.255v-3.7z" clip-rule="evenodd"/><path stroke="#35416B" stroke-linecap="round" stroke-linejoin="round" d="M167.81 64.156V197.45m21.014-133.284l-.513 133.171m20.85-133.402l-.513 133.622M111.31 63.863l-.087 133.381m15.742-133.34l-.108 133.489M147.2 63.909l-.103 133.381"/><path fill="#35416B" fill-rule="evenodd" d="M92.137 72.358a1.4 1.4 0 012.006.123c.118.162.19.354.205.554h-.616a.863.863 0 00-.154-.323.635.635 0 00-.513-.19.61.61 0 00-.513.267c-.141.23-.209.5-.194.77-.02.266.052.53.205.749a.646.646 0 00.513.246.589.589 0 00.513-.215.896.896 0 00.159-.344h.61a1.36 1.36 0 01-.41.79 1.215 1.215 0 01-.847.303 1.266 1.266 0 01-1-.41 1.92 1.92 0 01.051-2.32h-.015zm4.129 1.555a.837.837 0 00-.133-.513.515.515 0 00-.775 0 1.028 1.028 0 000 1.026.515.515 0 00.775 0 .843.843 0 00.133-.513zm-.513 1.165a1.026 1.026 0 01-.841-.339 1.356 1.356 0 010-1.642 1.19 1.19 0 011.682 0 1.356 1.356 0 010 1.642 1.026 1.026 0 01-.846.339h.005zm3.365-2.032c.055.074.092.16.108.251.01.142.01.284 0 .426v1.283h-.585v-1.33a.652.652 0 00-.057-.287.307.307 0 00-.297-.148.395.395 0 00-.344.148.709.709 0 00-.118.431v1.186h-.57V72.06h.57v1.027a.687.687 0 01.287-.262.8.8 0 01.344-.077.877.877 0 01.37.072.682.682 0 01.292.226zm2.159.867a.832.832 0 00-.133-.513.506.506 0 00-.385-.174.517.517 0 00-.384.174.99.99 0 000 1.026.513.513 0 00.769 0 .839.839 0 00.133-.513zm-.513 1.165a1.025 1.025 0 01-.836-.339 1.356 1.356 0 010-1.642 1.177 1.177 0 01.839-.348 1.183 1.183 0 01.839.348 1.36 1.36 0 010 1.642 1.031 1.031 0 01-.847.339h.005zm2.765-2.31v.575h-.164a.484.484 0 00-.467.22.93.93 0 00-.067.39v1.028h-.574V72.83h.549v.38a1.16 1.16 0 01.23-.298.597.597 0 01.416-.133h.077v-.01zm.128.478v-.416h.308v-.611h.59v.61h.354v.406h-.354v1.155a.301.301 0 00.031.17.407.407 0 00.21.03h.113v.426h-.272a.763.763 0 01-.595-.133.42.42 0 01-.092-.303v-1.345l-.293.01zm9.449-1.165h.631v1.816a.966.966 0 00.071.442.603.603 0 00.761.184.603.603 0 00.214-.184c.056-.14.08-.29.072-.442v-1.816h.625v1.816c.014.253-.036.505-.143.734a1.373 1.373 0 01-2.083 0 1.537 1.537 0 01-.148-.734v-1.816zm3.364 2.253c.002.08.029.157.077.22a.512.512 0 00.39.113.588.588 0 00.272-.051.154.154 0 00.097-.149.17.17 0 00-.02-.086.168.168 0 00-.062-.063 3.626 3.626 0 00-.595-.17 1.251 1.251 0 01-.513-.23.525.525 0 01-.149-.395.673.673 0 01.236-.513.955.955 0 01.667-.216c.233-.011.464.044.667.159a.701.701 0 01.297.565h-.569a.348.348 0 00-.067-.175.386.386 0 00-.318-.113.443.443 0 00-.266.057.167.167 0 00-.077.139.146.146 0 00.019.081.147.147 0 00.063.057c.193.07.392.124.595.159.188.037.364.12.513.241a.558.558 0 01.164.416.664.664 0 01-.241.513 1.45 1.45 0 01-1.503 0 .72.72 0 01-.246-.56h.569zm2.252-.611h.888a.517.517 0 00-.139-.344.417.417 0 00-.303-.118.381.381 0 00-.307.123.64.64 0 00-.139.339zm1.298-.513c.088.136.144.29.164.451.01.144.01.288 0 .432h-1.498a.543.543 0 00.211.462.459.459 0 00.282.082.406.406 0 00.287-.098.46.46 0 00.108-.154h.579a.729.729 0 01-.2.395.98.98 0 01-.785.319 1.117 1.117 0 01-.738-.267 1.09 1.09 0 01-.318-.873c-.021-.317.082-.63.287-.872a.996.996 0 01.749-.303c.176-.005.352.03.513.102a.9.9 0 01.359.329v-.005zm1.831-.41v.584h-.164a.468.468 0 00-.462.226.869.869 0 00-.067.39v1.027h-.574V72.83h.544v.38c.058-.112.136-.213.231-.298a.612.612 0 01.415-.139h.077v.026zm.779 1.534a.39.39 0 00.077.22.518.518 0 00.395.113.56.56 0 00.267-.051.15.15 0 00.072-.059.144.144 0 00.025-.09.16.16 0 00-.082-.149 3.448 3.448 0 00-.595-.17 1.2 1.2 0 01-.513-.23.509.509 0 01-.153-.395.657.657 0 01.236-.514.965.965 0 01.671-.215c.232-.011.461.044.662.159a.702.702 0 01.298.565h-.57a.355.355 0 00-.066-.175.385.385 0 00-.318-.113.456.456 0 00-.267.057.168.168 0 00-.077.139.14.14 0 00.02.081.14.14 0 00.062.057c.193.07.392.124.595.159.189.036.365.119.513.241a.564.564 0 01.169.416.662.662 0 01-.241.513 1.454 1.454 0 01-1.508 0 .706.706 0 01-.185-.252.707.707 0 01-.061-.307h.574zm10.649-.816v1.447h.426a.463.463 0 00.456-.323c.05-.136.075-.281.072-.426a1.026 1.026 0 00-.108-.513.447.447 0 00-.42-.18l-.426-.005zm.846-.339c.153.05.284.15.375.282a.9.9 0 01.159.36c.028.119.042.241.041.364.009.26-.051.52-.175.75a.796.796 0 01-.743.415h-.954v-2.217h.964c.108 0 .215.015.318.046h.015zm1.78 1.376l-.082.04a.507.507 0 01-.113.026h-.097a.693.693 0 00-.195.057.197.197 0 00-.075.078.206.206 0 00-.023.106.212.212 0 00.013.087.21.21 0 00.049.073.22.22 0 00.144.046.423.423 0 00.256-.082.333.333 0 00.097-.132.331.331 0 00.026-.16v-.14zm-.261-.2a.618.618 0 00.169-.042.133.133 0 00.067-.046.133.133 0 00.025-.077.147.147 0 00-.015-.08.147.147 0 00-.057-.058.43.43 0 00-.205-.036.258.258 0 00-.21.077.302.302 0 00-.062.148h-.415a.63.63 0 01.123-.354.699.699 0 01.58-.215c.167-.003.332.034.482.108a.405.405 0 01.205.4v.944a.18.18 0 00.026.113.189.189 0 00.061.052v.061h-.467c0-.036 0-.067-.025-.092a.587.587 0 010-.103.787.787 0 01-.205.164.598.598 0 01-.313.082.56.56 0 01-.37-.128.439.439 0 01-.112-.163.438.438 0 01-.031-.196.466.466 0 01.231-.436.989.989 0 01.379-.108l.139-.016zm1.133 1.308h.174a.244.244 0 00.098-.036.21.21 0 00.067-.108c0-.051.035-.087.03-.097l-.605-1.715h.477l.359 1.212.339-1.212h.456l-.564 1.617a2.251 2.251 0 01-.257.575.475.475 0 01-.379.113h-.195v-.349zm3.17-.61a.248.248 0 00.252-.196c.042-.188.061-.382.056-.575a2.258 2.258 0 00-.056-.585.262.262 0 00-.513 0c-.049.191-.07.388-.062.585-.007.194.014.387.062.575a.244.244 0 00.261.195zm.749-.77c.017.286-.039.572-.164.83a.741.741 0 01-.911.213.741.741 0 01-.259-.212 2.152 2.152 0 010-1.668.727.727 0 011.17 0c.118.262.168.55.144.836h.02zm.308-.427v-.292c.094-.002.189-.01.282-.026a.374.374 0 00.298-.272.424.424 0 000-.087h.359v2.181h-.442v-1.504h-.497z" clip-rule="evenodd"/><path fill="#fff" fill-rule="evenodd" d="M116.168 94.156v-.21c.141-.005.281-.037.41-.093a.516.516 0 00.175-.318h.21v2.145h-.287v-1.54l-.508.016zm2.236-.631a.646.646 0 01.605.343c.105.229.154.478.144.73.007.249-.038.497-.133.728a.64.64 0 01-.616.41.627.627 0 01-.58-.333 1.605 1.605 0 01-.153-.76 1.874 1.874 0 01.092-.626.65.65 0 01.641-.492zm0 1.965a.382.382 0 00.339-.184c.101-.218.143-.459.123-.698a1.68 1.68 0 00-.093-.601.335.335 0 00-.348-.236.364.364 0 00-.349.22 1.61 1.61 0 00-.108.663c-.004.173.018.346.067.513a.385.385 0 00.369.323zm1.728-1.966a.65.65 0 01.606.344c.104.229.153.478.143.73.008.249-.038.497-.133.728a.638.638 0 01-.621.41.617.617 0 01-.574-.333 1.536 1.536 0 01-.159-.76 1.755 1.755 0 01.097-.626.65.65 0 01.641-.493zm0 1.966a.38.38 0 00.334-.185c.106-.216.15-.458.128-.698a1.68 1.68 0 00-.092-.6.34.34 0 00-.349-.236.365.365 0 00-.349.22 1.55 1.55 0 00-.113.663c-.002.173.022.347.072.513a.383.383 0 00.364.323h.005zm2.975-.857a.511.511 0 01.45.755.514.514 0 01-.877.046.508.508 0 01-.086-.334.508.508 0 01.513-.467zm-.215-1.098h.164l-1.205 2.202h-.164l1.205-2.202zm-1.262.888a.289.289 0 00.221-.087.316.316 0 00.093-.221.308.308 0 00-.314-.308.294.294 0 00-.215.087.3.3 0 00-.093.22.308.308 0 00.308.309zm0-.832a.511.511 0 01.45.756.513.513 0 11-.45-.756zm1.477 1.874a.295.295 0 00.221-.093.303.303 0 00.087-.215.313.313 0 00-.087-.22.311.311 0 00-.456.06.31.31 0 00-.057.16.28.28 0 00.092.215.299.299 0 00.2.093z" clip-rule="evenodd"/><path fill="#35416B" fill-rule="evenodd" d="M132.807 94.15v-.21c.141-.007.28-.038.41-.092a.479.479 0 00.17-.319h.215v2.146h-.287v-1.54l-.508.016zm1.498 1.525c.004-.168.043-.334.113-.487a.98.98 0 01.389-.375l.293-.164c.098-.055.189-.12.272-.195a.388.388 0 00.123-.282.386.386 0 00-.252-.39.379.379 0 00-.164-.021.394.394 0 00-.384.21.718.718 0 00-.062.313h-.277a.965.965 0 01.103-.457.639.639 0 01.62-.313.679.679 0 01.544.2.66.66 0 01.124.683.627.627 0 01-.134.205 2.25 2.25 0 01-.38.257l-.205.113a1.794 1.794 0 00-.231.154.553.553 0 00-.19.292h1.175v.257h-1.477zm1.892-.328h.313v.328h-.313v-.328zm1.39.385a.684.684 0 01-.553-.21.782.782 0 01-.17-.514h.282c.001.106.028.21.077.303a.42.42 0 00.38.17.517.517 0 00.344-.114.374.374 0 00.128-.297.329.329 0 00-.134-.308.669.669 0 00-.379-.093h-.113v-.241h.133a.514.514 0 00.252-.051.297.297 0 00.169-.298.27.27 0 00-.032-.114.269.269 0 00-.076-.091.403.403 0 00-.266-.088.394.394 0 00-.375.18.587.587 0 00-.061.282h-.272a.85.85 0 01.097-.41.612.612 0 01.585-.303.8.8 0 01.513.149.512.512 0 01.179.426.432.432 0 01-.277.441c.106.027.199.09.262.18a.513.513 0 01.097.323.646.646 0 01-.044.278.644.644 0 01-.156.235.813.813 0 01-.59.165zm3.011-1.104a.511.511 0 01.5.414.517.517 0 01-.305.573.515.515 0 01-.709-.52.515.515 0 01.514-.467zm-.215-1.099h.164l-1.2 2.202h-.17l1.206-2.201zm-1.262.889a.306.306 0 00.289-.189.309.309 0 000-.24.312.312 0 00-.068-.1.318.318 0 00-.221-.087.312.312 0 00-.284.188.309.309 0 000 .24.312.312 0 00.284.188zm0-.832a.512.512 0 11-.369.893.508.508 0 01-.116-.57.508.508 0 01.116-.169.505.505 0 01.369-.154zm1.477 1.873a.298.298 0 00.221-.092.28.28 0 00.092-.216.31.31 0 00-.189-.268.31.31 0 00-.324.048.293.293 0 00-.087.22.276.276 0 00.087.216.298.298 0 00.2.092zm13.131-1.36v-.225c.141-.006.278-.04.406-.098a.456.456 0 00.174-.318h.216v2.145h-.288v-1.54l-.508.036zm1.514 1.525a1.24 1.24 0 01.113-.483.917.917 0 01.389-.374l.288-.17c.099-.05.19-.114.271-.19a.397.397 0 00.129-.287.414.414 0 00-.113-.298.432.432 0 00-.303-.113.39.39 0 00-.385.216.71.71 0 00-.061.308h-.277a.978.978 0 01.103-.457.64.64 0 01.62-.313.686.686 0 01.544.2.673.673 0 01.169.447.598.598 0 01-.185.441c-.111.103-.237.19-.374.257l-.205.118a1.116 1.116 0 00-.231.154.554.554 0 00-.19.287h1.175v.257h-1.477zm3.713-1.047a.512.512 0 01.443.758.513.513 0 11-.443-.758zm-.221-1.099h.19l-1.205 2.202h-.164l1.179-2.202zm-1.256.909a.312.312 0 00.289-.43.304.304 0 00-.069-.099.3.3 0 00-.22-.093.31.31 0 00-.286.192.309.309 0 00-.022.117.313.313 0 00.188.29.298.298 0 00.12.023zm0-.837a.51.51 0 01.513.513.511.511 0 01-.154.37.51.51 0 01-.57.116.51.51 0 01-.169-.116.506.506 0 01-.154-.37.51.51 0 01.513-.513h.021zm1.477 1.874a.293.293 0 00.215-.088.299.299 0 00.093-.22.287.287 0 00-.093-.216.29.29 0 00-.215-.092.298.298 0 00-.221.092.298.298 0 00-.069.098.297.297 0 00-.023.118.291.291 0 00.313.297v.01zm16.414-.221a.364.364 0 00.174.313.35.35 0 00.185.04.406.406 0 00.328-.158c.122-.198.19-.425.195-.657a.457.457 0 01-.221.2.686.686 0 01-.287.062.653.653 0 01-.513-.195.72.72 0 01-.179-.514.774.774 0 01.179-.513.637.637 0 01.513-.226.65.65 0 01.652.426 1.5 1.5 0 01.097.585c.006.238-.034.475-.118.698a.683.683 0 01-.667.514.628.628 0 01-.477-.165.541.541 0 01-.164-.415l.303.005zm.41-.442a.445.445 0 00.292-.107.43.43 0 00.134-.37.479.479 0 00-.118-.354.422.422 0 00-.303-.113.405.405 0 00-.318.128.543.543 0 00-.118.36.513.513 0 00.103.333.405.405 0 00.328.123zm1.155.652h.318v.329h-.318v-.329zm2.2-1.806v.236a3.878 3.878 0 00-.58.888 3.915 3.915 0 00-.195.513 6.31 6.31 0 00-.113.482h-.302c.13-.682.436-1.32.887-1.847h-1.19v-.272h1.493zm2.2 1.072a.513.513 0 110 1.027.513.513 0 010-1.027zm-.215-1.098h.164l-1.2 2.202h-.17l1.206-2.202zm-1.257.888a.324.324 0 00.221-.087.323.323 0 000-.442.324.324 0 00-.441 0 .309.309 0 00-.069.34.311.311 0 00.289.188zm0-.831a.513.513 0 11-.006 1.026.513.513 0 01.006-1.026zm1.472 1.873a.298.298 0 00.221-.093.301.301 0 00.092-.215.312.312 0 00-.43-.29.285.285 0 00-.098.07.298.298 0 00-.068.337c.015.037.039.07.068.099a.285.285 0 00.215.092zm14.788-2.197a.59.59 0 01.513.185c.09.108.141.244.144.385h-.267a.517.517 0 00-.077-.2.348.348 0 00-.298-.134.41.41 0 00-.359.21c-.1.185-.151.392-.148.601a.565.565 0 01.236-.205.714.714 0 01.759.113.65.65 0 01.2.513.798.798 0 01-.19.513.68.68 0 01-.544.226.701.701 0 01-.513-.23 1.113 1.113 0 01-.22-.77c-.005-.232.03-.463.102-.683a.691.691 0 01.662-.524zm0 1.976a.367.367 0 00.318-.144.557.557 0 00.108-.338.601.601 0 00-.098-.318.376.376 0 00-.343-.15.451.451 0 00-.308.119.446.446 0 00-.128.349.513.513 0 00.118.344.42.42 0 00.313.138h.02zm1.072-.144h.313v.329h-.313v-.328zm1.493-1.832a.597.597 0 01.513.185c.086.11.135.245.138.385h-.267a.501.501 0 00-.077-.2.33.33 0 00-.292-.134.418.418 0 00-.364.21c-.1.185-.151.391-.149.601a.602.602 0 01.523-.267.712.712 0 01.472.175.637.637 0 01.205.513.795.795 0 01-.195.513.666.666 0 01-.543.226.684.684 0 01-.513-.23 1.087 1.087 0 01-.221-.77 2.053 2.053 0 01.098-.683.688.688 0 01.672-.524zm0 1.976a.365.365 0 00.318-.144.55.55 0 00.107-.338.556.556 0 00-.097-.319.375.375 0 00-.344-.148.448.448 0 00-.302.118.447.447 0 00-.134.349.512.512 0 00.118.343.425.425 0 00.313.14h.021zm2.908-.862a.515.515 0 01.5.414.511.511 0 01-.65.591.51.51 0 01-.364-.538.52.52 0 01.313-.428.518.518 0 01.201-.039zm-.216-1.098h.164l-1.205 2.201h-.164l1.205-2.201zm-1.262.893a.315.315 0 00.222-.092.316.316 0 00.068-.34.284.284 0 00-.069-.097.295.295 0 00-.221-.092.312.312 0 00-.284.188.308.308 0 00.069.34.3.3 0 00.215.093zm0-.837a.511.511 0 01.501.414.511.511 0 01-.65.591.51.51 0 01-.364-.538.508.508 0 01.513-.467zm1.478 1.874a.313.313 0 00.268-.19c.022-.052.03-.111.022-.168a.32.32 0 00-.07-.156.322.322 0 00-.441 0 .316.316 0 00-.093.22.308.308 0 00.093.222.315.315 0 00.221.072zm14.608-1.967a.583.583 0 01.513.19.61.61 0 01.144.385h-.267a.442.442 0 00-.077-.2.342.342 0 00-.297-.138.41.41 0 00-.359.21c-.1.184-.151.391-.149.6a.513.513 0 01.236-.2.656.656 0 01.287-.061.713.713 0 01.472.17.655.655 0 01.2.513.768.768 0 01-.19.513.663.663 0 01-.543.226.719.719 0 01-.513-.226 1.122 1.122 0 01-.221-.775c-.004-.232.03-.463.103-.683a.69.69 0 01.661-.523zm0 1.977a.369.369 0 00.318-.144.51.51 0 00.103-.339.58.58 0 00-.092-.313.38.38 0 00-.344-.149.448.448 0 00-.308.113.443.443 0 00-.128.35.513.513 0 00.118.343.418.418 0 00.318.139h.015zm1.077-.139h.313v.323h-.313v-.323zm1.493-1.837a.592.592 0 01.513.19.631.631 0 01.138.385h-.266a.466.466 0 00-.077-.2.333.333 0 00-.293-.14.42.42 0 00-.364.211c-.099.185-.15.391-.149.6a.591.591 0 01.236-.2.672.672 0 01.288-.061.701.701 0 01.471.17.643.643 0 01.206.513.781.781 0 01-.195.513.66.66 0 01-.544.226.698.698 0 01-.513-.226 1.1 1.1 0 01-.221-.775 2.053 2.053 0 01.098-.683.693.693 0 01.672-.523zm0 1.976a.361.361 0 00.318-.144.517.517 0 00.108-.339.59.59 0 00-.093-.313.386.386 0 00-.348-.149.416.416 0 00-.324.132.427.427 0 00-.112.33.517.517 0 00.117.344.425.425 0 00.313.139h.021zm2.908-.857a.515.515 0 01.474.716.501.501 0 01-.115.171.51.51 0 01-.57.117.52.52 0 01-.169-.117.521.521 0 010-.744.524.524 0 01.38-.143zm-.221-1.099h.17l-1.206 2.202h-.164l1.2-2.202zm-1.256.888a.298.298 0 00.22-.092.297.297 0 00.069-.335.32.32 0 00-.17-.17.31.31 0 00-.236 0 .293.293 0 00-.099.069.296.296 0 00-.092.22.28.28 0 00.092.216.295.295 0 00.216.092zm0-.831a.518.518 0 01.374.154.517.517 0 01.1.556.516.516 0 01-.754.226.514.514 0 01-.09-.782.483.483 0 01.37-.165v.01zm1.477 1.873a.298.298 0 00.22-.092.314.314 0 00-.1-.505.31.31 0 00-.341.068.301.301 0 00-.092.216.312.312 0 00.313.313zm-89.393 19.114v-.205c.142-.006.281-.039.41-.098a.448.448 0 00.17-.313h.215v2.145h-.287v-1.539l-.508.01zm1.713 0v-.205a1.07 1.07 0 00.405-.098.454.454 0 00.175-.313h.236v2.145h-.293v-1.539l-.523.01zm1.678 1.201h.313v.328h-.313v-.328zm.887-1.201v-.205c.142-.006.281-.039.41-.098a.448.448 0 00.17-.313h.235v2.145h-.287v-1.539l-.528.01zm3.513.482a.522.522 0 01.37.149.511.511 0 01-.087.784.51.51 0 01-.755-.227.52.52 0 01.103-.557.524.524 0 01.369-.149zm-.215-1.098h.164l-1.2 2.202h-.169l1.205-2.202zm-1.257.888a.31.31 0 00.286-.192.307.307 0 00.022-.116.313.313 0 00-.087-.221.316.316 0 00-.221-.092.312.312 0 00-.289.431c.016.037.039.07.069.098a.303.303 0 00.22.092zm0-.832a.51.51 0 01.513.514.516.516 0 01-.513.513.51.51 0 01-.369-.154.505.505 0 01-.157-.37.508.508 0 01.328-.473.516.516 0 01.198-.03zm1.472 1.874a.288.288 0 00.221-.093.293.293 0 00.092-.215.317.317 0 00-.091-.222.317.317 0 00-.341-.067.316.316 0 00-.168.169.289.289 0 00-.02.12.292.292 0 00.087.215.303.303 0 00.22.093zm14.434-.016a.34.34 0 00.359.354.4.4 0 00.328-.164c.123-.196.19-.421.195-.652a.537.537 0 01-.22.2.77.77 0 01-.288.057.644.644 0 01-.513-.195.695.695 0 01-.179-.513.811.811 0 01.174-.514.728.728 0 01.645-.21.724.724 0 01.535.416c.071.184.104.382.097.58a1.96 1.96 0 01-.118.703.683.683 0 01-.666.513.668.668 0 01-.482-.164.59.59 0 01-.165-.416l.298.005zm.41-.441a.451.451 0 00.293-.108.461.461 0 00.133-.369.482.482 0 00-.118-.355.439.439 0 00-.308-.118.42.42 0 00-.313.134.517.517 0 00-.118.354.52.52 0 00.103.334.393.393 0 00.328.128zm1.155.631h.313v.329h-.313v-.329zm2.2-1.786v.236a2.653 2.653 0 00-.277.349 3.439 3.439 0 00-.498 1.027 5.934 5.934 0 00-.113.477h-.302c.076-.433.229-.848.451-1.227a4.1 4.1 0 01.431-.616h-1.185v-.272l1.493.026zm2.185 1.068a.51.51 0 01.501.414.512.512 0 01-.928.387.508.508 0 01-.086-.334.506.506 0 01.313-.428.513.513 0 01.2-.039zm-.215-1.099h.164l-1.2 2.202h-.169l1.205-2.202zm-1.246.888a.29.29 0 00.22-.092.31.31 0 00.093-.221.296.296 0 00-.093-.215.292.292 0 00-.22-.093.296.296 0 00-.216.093.285.285 0 00-.092.215.303.303 0 00.092.221.303.303 0 00.216.092zm0-.836a.512.512 0 01.473.713.5.5 0 01-.114.169.518.518 0 01-.372.16.522.522 0 01-.203-.041.524.524 0 01-.169-.119.477.477 0 01-.149-.369.514.514 0 01.513-.513h.021zm1.461 1.863a.314.314 0 00.29-.431.291.291 0 00-.069-.098.306.306 0 00-.441 0 .285.285 0 00-.087.216.284.284 0 00.087.22.296.296 0 00.22.093zm16.475-1.981v.236a3.349 3.349 0 00-.579.888c-.08.165-.146.336-.195.513a5.618 5.618 0 00-.113.477h-.303c.076-.432.229-.848.452-1.226.125-.218.269-.424.43-.616h-1.19v-.272h1.498zm.365 1.786h.318v.328h-.318v-.328zm.692.328a1.25 1.25 0 01.113-.482.91.91 0 01.39-.375l.287-.169a1.23 1.23 0 00.272-.19.396.396 0 00.123-.288.386.386 0 00-.113-.297.41.41 0 00-.297-.108.39.39 0 00-.385.21.643.643 0 00-.062.308h-.277a.993.993 0 01.103-.457.658.658 0 01.621-.313.676.676 0 01.538.2.66.66 0 01.128.687.606.606 0 01-.138.201c-.112.104-.238.19-.375.257l-.205.118c-.085.04-.164.092-.236.154a.576.576 0 00-.184.287h1.174v.257h-1.477zm3.714-1.047a.51.51 0 01.443.758.517.517 0 01-.6.246.512.512 0 01.157-1.004zm-.221-1.098h.17l-1.19 2.202h-.17l1.19-2.202zm-1.256.893a.292.292 0 00.22-.093.288.288 0 00.087-.22.292.292 0 00-.087-.216.308.308 0 00-.441 0 .282.282 0 00-.092.216.314.314 0 00.313.313zm0-.837a.514.514 0 11-.008 1.028.514.514 0 01.008-1.028zm1.477 1.879a.295.295 0 00.215-.093.292.292 0 00.093-.22.284.284 0 00-.093-.216.293.293 0 00-.215-.092.303.303 0 00-.221.092.295.295 0 00-.068.335.32.32 0 00.169.17.31.31 0 00.12.024zm15.47-1.792v.242a2.24 2.24 0 00-.272.349 3.027 3.027 0 00-.308.539 3.343 3.343 0 00-.195.513 6.54 6.54 0 00-.113.482h-.302c.078-.432.231-.847.451-1.226.125-.221.271-.429.436-.621h-1.19v-.272l1.493-.006zm.369 1.792h.313v.328h-.313v-.328zm.872-1.196v-.211c.142-.002.281-.033.41-.092a.515.515 0 00.175-.318h.21v2.145h-.282v-1.54l-.513.016zm3.529.477a.513.513 0 11-.018 1.027.513.513 0 01.018-1.027zm-.22-1.098h.169l-1.205 2.202h-.165l1.201-2.202zm-1.257.893a.312.312 0 00.289-.43.318.318 0 00-.169-.168.31.31 0 00-.341.069.285.285 0 00-.087.216.288.288 0 00.087.22.292.292 0 00.221.093zm0-.837a.518.518 0 01.5.414.51.51 0 01-.306.573.509.509 0 01-.622-.186.513.513 0 01.428-.801zm1.477 1.874a.293.293 0 00.216-.088.305.305 0 00.068-.101.302.302 0 00-.068-.34.31.31 0 00-.216-.087.31.31 0 00-.314.308c0 .041.009.082.025.119a.293.293 0 00.069.101.302.302 0 00.22.088zm-69.102 39.829v-.206a1.07 1.07 0 00.405-.097.457.457 0 00.175-.313h.215v2.145h-.292v-1.54l-.503.011zm1.513 1.529c.005-.168.043-.334.113-.487a.916.916 0 01.39-.375l.287-.164c.1-.052.191-.118.272-.195a.411.411 0 00.123-.283.412.412 0 00-.024-.163.412.412 0 00-.089-.14.402.402 0 00-.297-.107.39.39 0 00-.385.21.65.65 0 00-.061.313h-.277a.939.939 0 01.102-.462.654.654 0 01.621-.313.695.695 0 01.538.2.656.656 0 01.129.687.585.585 0 01-.139.201 1.678 1.678 0 01-.374.262l-.205.113a1.162 1.162 0 00-.231.154.545.545 0 00-.19.293h1.18v.256h-1.483zm1.877-.333h.313v.328h-.313v-.328zm.688.333c.005-.168.043-.334.113-.487a.928.928 0 01.395-.375l.287-.164c.098-.053.19-.119.272-.195a.4.4 0 00.123-.283.395.395 0 00-.113-.302.419.419 0 00-.303-.108.38.38 0 00-.224.046.384.384 0 00-.16.164.784.784 0 00-.062.313h-.277a.99.99 0 01.108-.462.646.646 0 01.615-.313.7.7 0 01.544.2.676.676 0 01.125.686.602.602 0 01-.135.202c-.116.102-.243.19-.38.262l-.205.113a1.366 1.366 0 00-.231.154.551.551 0 00-.19.293h1.18v.256h-1.482zm3.713-1.047a.522.522 0 01.488.723.53.53 0 01-.118.17.505.505 0 01-.37.157.511.511 0 01-.369-.157.517.517 0 01.17-.856.52.52 0 01.199-.037zm-.22-1.098h.169l-1.205 2.202h-.164l1.2-2.202zm-1.257.888a.328.328 0 00.12-.023.306.306 0 00.101-.07.295.295 0 00.068-.335.316.316 0 00-.169-.17.328.328 0 00-.12-.023.295.295 0 00-.215.092.296.296 0 00-.093.221.295.295 0 00.093.215.306.306 0 00.098.069.314.314 0 00.117.024zm0-.832a.503.503 0 01.203.039.5.5 0 01.271.671.508.508 0 01-.471.311.51.51 0 01-.472-.311.515.515 0 01.268-.673.479.479 0 01.201-.037zm1.477 1.874a.306.306 0 00.308-.314.31.31 0 00-.308-.308.305.305 0 00-.22.093.303.303 0 00-.001.437.312.312 0 00.221.092zm-7.735-21.999v-.19c.142-.006.281-.039.411-.097a.475.475 0 00.169-.313h.215v2.14h-.287v-1.54h-.508zm1.514 1.525a1.26 1.26 0 01.113-.483.943.943 0 01.39-.374l.292-.17c.098-.051.19-.115.272-.19a.386.386 0 00.123-.287.372.372 0 00-.024-.162.371.371 0 00-.229-.224.392.392 0 00-.163-.02.386.386 0 00-.384.211.798.798 0 00-.062.313h-.277c-.001-.16.034-.318.103-.462a.641.641 0 01.265-.246.643.643 0 01.355-.067.633.633 0 01.662.381.622.622 0 01.051.266.59.59 0 01-.045.238.599.599 0 01-.134.203 1.752 1.752 0 01-.38.257l-.205.118c-.083.041-.16.093-.231.154a.553.553 0 00-.189.287h1.174v.257h-1.477zm1.877-.329h.313v.329h-.313v-.329zm.687.329c.007-.168.047-.332.118-.483a.928.928 0 01.39-.375l.287-.169c.099-.052.19-.115.272-.19a.42.42 0 000-.585.413.413 0 00-.297-.108.383.383 0 00-.385.211.706.706 0 00-.067.313h-.271a.936.936 0 01.102-.462.644.644 0 01.621-.313.626.626 0 01.501.162.635.635 0 01.207.484.598.598 0 01-.18.442 1.62 1.62 0 01-.379.256l-.206.119c-.083.041-.16.093-.23.154a.578.578 0 00-.19.287h1.174v.257h-1.467zm3.714-1.047a.511.511 0 01.449.755.515.515 0 01-.599.25.514.514 0 01.15-1.005zm-.216-1.094h.165l-1.211 2.197h-.169l1.215-2.197zm-1.256.888a.305.305 0 00.308-.308.312.312 0 00-.189-.289.301.301 0 00-.119-.024.292.292 0 00-.221.093.292.292 0 00-.092.22.3.3 0 00.092.216.303.303 0 00.221.092zm0-.836a.509.509 0 01.53.629.51.51 0 01-.161.269.507.507 0 01-.569.114.514.514 0 01-.17-.114.521.521 0 01.17-.859.506.506 0 01.2-.039zm1.472 1.878a.312.312 0 00.289-.43.295.295 0 00-.069-.099.303.303 0 00-.34-.068.316.316 0 00-.101.068.316.316 0 000 .437.316.316 0 00.221.092zm33.643-1.062v-.205c.142-.006.281-.039.41-.098a.474.474 0 00.175-.313h.21v2.14h-.308v-1.539l-.487.015zm1.513 1.524c.007-.167.047-.331.118-.482a.91.91 0 01.39-.375l.287-.164a1.31 1.31 0 00.272-.195.4.4 0 00.123-.283.399.399 0 00-.113-.302.413.413 0 00-.297-.108.378.378 0 00-.385.21.734.734 0 00-.067.313h-.272a.94.94 0 01.103-.462.654.654 0 01.621-.313.676.676 0 01.538.206c.11.12.17.278.17.441a.597.597 0 01-.18.441 1.824 1.824 0 01-.374.262l-.211.113a1.784 1.784 0 00-.231.154.58.58 0 00-.189.293h1.174v.251h-1.477zm1.882-.323h.313v.323h-.313v-.323zm.683.323a1.25 1.25 0 01.113-.482.91.91 0 01.39-.375l.287-.164c.099-.052.191-.118.272-.195a.404.404 0 00.128-.283.427.427 0 00-.113-.302.425.425 0 00-.302-.108.382.382 0 00-.225.046.384.384 0 00-.16.164.751.751 0 00-.062.313h-.277a1 1 0 01.103-.462.658.658 0 01.621-.313.686.686 0 01.543.206c.11.12.17.278.169.441a.582.582 0 01-.184.441 1.707 1.707 0 01-.375.262l-.205.113a1.784 1.784 0 00-.231.154.544.544 0 00-.189.293h1.174v.251h-1.477zm3.719-1.042a.51.51 0 01.369.154.514.514 0 01.154.37.514.514 0 11-.989-.2.516.516 0 01.466-.324zm-.221-1.098h.169l-1.205 2.228h-.164l1.2-2.228zm-1.257.888a.308.308 0 00.221-.092.291.291 0 00.092-.216.312.312 0 00-.513-.221.32.32 0 000 .437.3.3 0 00.2.092zm0-.832a.516.516 0 01.45.756.515.515 0 11-.65-.716.514.514 0 01.2-.04zm1.478 1.874a.318.318 0 00.307-.308.292.292 0 00-.023-.12.289.289 0 00-.069-.101.303.303 0 00-.437 0 .313.313 0 00-.067.338.293.293 0 00.068.098.292.292 0 00.221.093zm-27.037 19.098v-.205c.14-.006.277-.039.405-.098a.453.453 0 00.174-.318h.216v2.145h-.293v-1.539l-.502.015zm1.708 0v-.205c.142-.006.281-.039.41-.098a.474.474 0 00.175-.318h.21v2.145h-.287v-1.539l-.508.015zm3.519.477a.513.513 0 11-.018 1.027.513.513 0 01.018-1.027zm-.221-1.098h.169l-1.205 2.202h-.144l1.18-2.202zm-1.257.893a.293.293 0 00.221-.092.307.307 0 00.092-.216.312.312 0 00-.513-.221.297.297 0 00-.087.221.292.292 0 00.087.216.3.3 0 00.2.092zm0-.837a.516.516 0 01.45.756.515.515 0 11-.65-.716.514.514 0 01.2-.04zm1.478 1.879a.295.295 0 00.215-.092.289.289 0 00.069-.101.292.292 0 00.023-.12.32.32 0 00-.307-.308.308.308 0 00-.221.092.307.307 0 00-.092.216.313.313 0 00.313.313zm-5.294-21.87v-.21c.14-.005.278-.036.405-.093a.443.443 0 00.175-.318h.236v2.146h-.287v-1.54l-.529.015zm1.708 0v-.21a1.1 1.1 0 00.411-.093.508.508 0 00.174-.318h.215v2.146h-.292v-1.54l-.508.015zm3.519.477a.513.513 0 010 1.027.52.52 0 01-.491-.323.512.512 0 01.116-.57.526.526 0 01.375-.134zm-.221-1.098h.169l-1.205 2.202h-.164l1.2-2.202zm-1.257.893a.306.306 0 00.222-.092.316.316 0 00.068-.101.328.328 0 00.001-.238.284.284 0 00-.07-.098.308.308 0 00-.529.216.31.31 0 00.093.221.275.275 0 00.215.092zm0-.836a.512.512 0 11.002 1.024.512.512 0 01-.002-1.024zm1.478 1.873a.318.318 0 00.307-.308.292.292 0 00-.023-.12.289.289 0 00-.069-.101.295.295 0 00-.215-.092.314.314 0 00-.29.431c.016.037.039.07.069.098a.318.318 0 00.101.069.292.292 0 00.12.023zm-27.298 39.716v-.205c.142-.006.281-.039.41-.098a.515.515 0 00.175-.318h.21v2.145h-.287v-1.539l-.508.015zm1.513 1.524a1.26 1.26 0 01.113-.482.94.94 0 01.395-.375l.287-.169c.098-.052.19-.116.272-.19a.396.396 0 00.123-.288.381.381 0 00-.025-.16.375.375 0 00-.088-.137.415.415 0 00-.302-.108.396.396 0 00-.385.205.864.864 0 00-.062.313h-.277a.99.99 0 01.108-.456.637.637 0 01.621-.313.625.625 0 01.501.162.635.635 0 01.207.484.631.631 0 01-.18.442 1.766 1.766 0 01-.379.256l-.206.118c-.083.042-.16.094-.23.154a.548.548 0 00-.19.288h1.174v.256h-1.477zm1.882-.328h.318v.328h-.318v-.328zm.97-.221a.375.375 0 00.216.324c.07.027.145.041.22.041a.44.44 0 00.359-.149.555.555 0 00.113-.344.44.44 0 00-.138-.349.479.479 0 00-.329-.123.52.52 0 00-.241.056.525.525 0 00-.169.149h-.236l.164-1.155h1.124v.262h-.913l-.113.564a.992.992 0 01.143-.087.75.75 0 01.277-.046.702.702 0 01.513.19.632.632 0 01.205.482.817.817 0 01-.189.514.727.727 0 01-.6.236.79.79 0 01-.467-.149.59.59 0 01-.226-.457l.287.041zm3.426-.498a.51.51 0 01.375.154.515.515 0 010 .739.517.517 0 01-.456.121.51.51 0 01-.361-.303.5.5 0 01-.038-.239.502.502 0 01.249-.4.513.513 0 01.231-.072zm-.215-1.098h.169l-1.205 2.202h-.169l1.205-2.202zm-1.257.873a.31.31 0 00.221-.093.311.311 0 00.087-.221.31.31 0 00-.428-.284.276.276 0 00-.1.069.295.295 0 00-.093.215.325.325 0 00.092.222.32.32 0 00.221.092zm0-.837a.517.517 0 01.506.317.513.513 0 01-.136.581.515.515 0 01-.739 0 .509.509 0 01-.136-.581.515.515 0 01.505-.317zm1.472 1.878a.324.324 0 00.12-.023.32.32 0 00.17-.17.328.328 0 000-.237.282.282 0 00-.069-.098.296.296 0 00-.221-.093.305.305 0 00-.285.192.288.288 0 00-.022.116.311.311 0 00.087.221c.027.033.06.06.098.08.038.019.08.03.122.033v-.021z" clip-rule="evenodd"/><path fill="#fff" fill-rule="evenodd" d="M116.204 114.712v-.205a1.1 1.1 0 00.41-.098.459.459 0 00.169-.318h.216v2.145h-.288v-1.54l-.507.016zm2.251-.626a.627.627 0 01.6.344c.107.227.156.477.144.729.009.247-.034.494-.128.723a.638.638 0 01-.621.416.617.617 0 01-.559-.354 1.541 1.541 0 01-.159-.755 1.762 1.762 0 01.098-.631.646.646 0 01.625-.472zm0 1.966a.386.386 0 00.334-.19c.106-.215.15-.455.128-.693a1.71 1.71 0 00-.092-.606.35.35 0 00-.134-.178.35.35 0 00-.215-.058.37.37 0 00-.21.058.368.368 0 00-.139.168 1.501 1.501 0 00-.113.662c-.003.174.021.347.072.513a.386.386 0 00.364.324h.005zm1.708-1.966a.63.63 0 01.606.344c.106.227.156.477.143.728a1.74 1.74 0 01-.128.724.638.638 0 01-.621.416.625.625 0 01-.579-.339 1.573 1.573 0 01-.154-.754 1.906 1.906 0 01.092-.632.651.651 0 01.641-.487zm0 1.965a.382.382 0 00.334-.189c.101-.217.144-.456.123-.693a1.706 1.706 0 00-.087-.606.356.356 0 00-.354-.236.368.368 0 00-.349.226c-.083.21-.12.436-.108.662-.006.174.019.347.072.513a.383.383 0 00.369.323zm2.981-.862a.512.512 0 01.473.714.51.51 0 01-.114.169.515.515 0 01-.744 0 .528.528 0 01-.115-.169.512.512 0 01.474-.714h.026zm-.221-1.098h.169l-1.205 2.202h-.169l1.205-2.202zm-1.257.893a.292.292 0 00.12-.023.318.318 0 00.169-.168.295.295 0 00.024-.117.312.312 0 00-.513-.221.312.312 0 00-.087.221c0 .08.032.158.087.216a.3.3 0 00.2.092zm0-.837a.516.516 0 01.45.755.51.51 0 01-.6.25.512.512 0 01-.364-.538.516.516 0 01.514-.467zm1.478 1.879a.284.284 0 00.215-.093.29.29 0 00.092-.22.316.316 0 00-.307-.308.293.293 0 00-.221.092.291.291 0 00-.092.216c0 .041.008.082.023.12a.316.316 0 00.29.193zm-7.038 19.175v-.205a1.12 1.12 0 00.411-.097.47.47 0 00.169-.319h.215v2.146h-.287v-1.54l-.508.015zm2.247-.626a.636.636 0 01.605.344c.107.228.156.478.144.729.009.248-.035.494-.129.724a.64.64 0 01-.62.415.613.613 0 01-.575-.338 1.541 1.541 0 01-.159-.755 1.905 1.905 0 01.093-.631.647.647 0 01.641-.488zm0 1.961a.387.387 0 00.333-.185c.104-.215.148-.455.128-.693a1.68 1.68 0 00-.092-.605.342.342 0 00-.349-.237.368.368 0 00-.349.226c-.087.21-.125.436-.112.662-.004.174.02.347.071.514a.382.382 0 00.37.318zm1.713-1.961a.632.632 0 01.605.344c.107.228.156.478.144.729a1.76 1.76 0 01-.128.724.642.642 0 01-.621.415.618.618 0 01-.58-.338 1.588 1.588 0 01-.153-.755 1.904 1.904 0 01.092-.631.647.647 0 01.641-.488zm0 1.961a.384.384 0 00.333-.185c.102-.216.144-.455.124-.693a1.826 1.826 0 00-.088-.605.343.343 0 00-.354-.237.371.371 0 00-.348.226c-.083.211-.12.436-.108.662-.006.174.018.348.072.514a.377.377 0 00.369.318zm2.98-.857a.512.512 0 11-.015 1.025.512.512 0 01.015-1.025zm-.221-1.099h.195l-1.205 2.202h-.17l1.18-2.202zm-1.257.893a.293.293 0 00.221-.092.287.287 0 00.087-.216.287.287 0 00-.087-.22.303.303 0 00-.221-.093.305.305 0 00-.22.093.286.286 0 00-.087.22.292.292 0 00.087.216.299.299 0 00.22.092zm0-.836a.51.51 0 01.506.317.513.513 0 01-.136.581.505.505 0 01-.37.157.511.511 0 01-.369-.157.516.516 0 01.066-.821.508.508 0 01.303-.077zm1.478 1.878a.295.295 0 00.215-.092.28.28 0 00.069-.101.292.292 0 00.023-.12.278.278 0 00-.023-.117.273.273 0 00-.069-.098.291.291 0 00-.215-.093.288.288 0 00-.221.093.273.273 0 00-.069.098.278.278 0 00-.023.117.293.293 0 00.092.221.296.296 0 00.221.092zm-6.801 19.366v-.206a1.08 1.08 0 00.41-.097.47.47 0 00.174-.313h.211v2.14h-.288v-1.54l-.507.016zm2.251-.627a.634.634 0 01.605.344c.107.228.156.478.144.729.007.25-.038.498-.133.729a.64.64 0 01-.616.411.619.619 0 01-.58-.339 1.553 1.553 0 01-.159-.755 1.91 1.91 0 01.098-.631.656.656 0 01.641-.488zm0 1.966a.379.379 0 00.339-.19c.101-.216.143-.455.123-.693a1.657 1.657 0 00-.093-.6.336.336 0 00-.348-.241.36.36 0 00-.349.225c-.083.211-.12.437-.108.663-.005.173.018.346.067.513a.386.386 0 00.364.323h.005zm1.713-1.966a.644.644 0 01.606.344c.104.229.153.478.143.729.008.25-.038.498-.133.729a.645.645 0 01-.621.411.618.618 0 01-.574-.339 1.496 1.496 0 01-.159-.755 1.784 1.784 0 01.097-.631.646.646 0 01.641-.488zm0 1.966a.382.382 0 00.334-.19c.106-.214.15-.454.128-.693a1.635 1.635 0 00-.092-.6.346.346 0 00-.349-.241.365.365 0 00-.349.226 1.499 1.499 0 00-.113.662c-.003.173.021.347.072.513a.382.382 0 00.364.323h.005zm2.976-.857a.52.52 0 01.369.893.505.505 0 01-.369.157.512.512 0 01-.37-.157.512.512 0 01.07-.814.519.519 0 01.3-.079zm-.216-1.098h.164l-1.205 2.202h-.164l1.205-2.202zm-1.262.888a.288.288 0 00.221-.093.282.282 0 00.092-.215.293.293 0 00-.092-.221.296.296 0 00-.221-.092.295.295 0 00-.215.092.28.28 0 00-.069.101.288.288 0 00-.023.12.282.282 0 00.092.215.306.306 0 00.098.069.314.314 0 00.117.024zm0-.832a.51.51 0 01.501.414.51.51 0 01-.651.591.512.512 0 01-.364-.538.516.516 0 01.514-.467zm1.478 1.874a.31.31 0 00.22-.093.31.31 0 00.087-.215.311.311 0 00-.087-.221.318.318 0 00-.155-.07.324.324 0 00-.169.022.316.316 0 00-.189.269.295.295 0 00.093.215.303.303 0 00.2.093zm-7.033 19.144v-.205c.14-.007.277-.039.406-.093a.48.48 0 00.174-.318h.215v2.146h-.287v-1.54l-.508.01zm2.252-.626a.626.626 0 01.605.344c.107.227.156.478.144.729.009.249-.035.497-.128.728a.65.65 0 01-.621.411.63.63 0 01-.58-.339 1.547 1.547 0 01-.154-.754 1.897 1.897 0 01.093-.626.647.647 0 01.641-.493zm0 1.966a.385.385 0 00.333-.185c.101-.218.143-.459.123-.698a1.657 1.657 0 00-.087-.601.346.346 0 00-.349-.241.369.369 0 00-.211.059.367.367 0 00-.142.167 1.61 1.61 0 00-.108.662c-.006.174.018.348.072.513a.385.385 0 00.369.324zm1.708-1.966a.633.633 0 01.606.344c.106.227.155.478.143.729.007.249-.038.498-.133.728a.631.631 0 01-.616.411.62.62 0 01-.579-.339 1.538 1.538 0 01-.159-.754c-.003-.213.03-.425.097-.626a.651.651 0 01.641-.493zm0 1.966a.385.385 0 00.339-.185c.1-.218.143-.459.123-.698a1.801 1.801 0 00-.087-.601.355.355 0 00-.136-.181.346.346 0 00-.218-.06.368.368 0 00-.349.226 1.61 1.61 0 00-.108.662c-.004.174.018.347.067.513a.386.386 0 00.364.324h.005zm2.975-.857a.502.502 0 01.375.154.501.501 0 01.148.369.514.514 0 11-.872-.369.509.509 0 01.349-.154zm-.215-1.099h.148l-1.2 2.202h-.169l1.221-2.202zm-1.257.888a.324.324 0 00.221-.087.324.324 0 000-.442.314.314 0 00-.221-.087.301.301 0 00-.289.188.31.31 0 00-.025.12.31.31 0 00.314.308zm0-.831a.511.511 0 01.449.755.51.51 0 01-.877.046.513.513 0 01.428-.801zm1.472 1.873a.292.292 0 00.12-.023.318.318 0 00.169-.168.31.31 0 00-.068-.338.31.31 0 00-.441 0 .316.316 0 000 .437.305.305 0 00.22.092z" clip-rule="evenodd"/><path fill="#35416B" fill-rule="evenodd" d="M153.145 72.927v1.443h.425a.458.458 0 00.457-.324 1.336 1.336 0 00-.031-.944.45.45 0 00-.426-.18l-.425.005zm.846-.339a.717.717 0 01.379.283c.076.108.13.23.159.36.026.119.04.241.041.364.008.26-.054.52-.179.749a.796.796 0 01-.744.416h-.949v-2.218h.949c.116-.003.232.013.344.046zm1.795 1.371a.309.309 0 01-.082.041l-.113.03h-.097a.758.758 0 00-.195.057.206.206 0 00-.098.185.203.203 0 00.012.085.2.2 0 00.05.07.222.222 0 00.149.05.409.409 0 00.251-.082.338.338 0 00.123-.297v-.139zm-.261-.2a.619.619 0 00.169-.036.124.124 0 00.068-.045.127.127 0 00.024-.078.143.143 0 00-.066-.139.449.449 0 00-.206-.036.273.273 0 00-.215.072.322.322 0 00-.062.154h-.415c0-.128.042-.252.118-.354a.703.703 0 01.585-.216c.164-.002.327.033.477.103a.42.42 0 01.21.406v.939a.261.261 0 000 .118c.016.02.037.037.061.046v.067h-.425a.416.416 0 01-.031-.098v-.097a.803.803 0 01-.205.164.63.63 0 01-.313.082.542.542 0 01-.364-.128.457.457 0 01-.149-.36.462.462 0 01.236-.44 1.04 1.04 0 01.374-.104l.129-.02zm1.139 1.314h.051a.335.335 0 00.123 0 .177.177 0 00.092-.031.201.201 0 00.072-.108c0-.056.031-.087.026-.097l-.6-1.715h.477l.359 1.212.333-1.212h.457l-.559 1.612c-.06.205-.148.4-.262.58a.468.468 0 01-.374.113h-.195v-.354zm3.144-.61a.239.239 0 00.163-.053.239.239 0 00.088-.148 2.06 2.06 0 00.061-.575 1.988 1.988 0 00-.061-.58.237.237 0 00-.091-.142.239.239 0 00-.16-.048.246.246 0 00-.252.19c-.049.19-.069.385-.061.58a2.06 2.06 0 00.061.575.252.252 0 00.252.2zm.754-.776c.015.287-.043.573-.17.832a.616.616 0 01-.584.292.607.607 0 01-.58-.293 2.12 2.12 0 010-1.662.61.61 0 01.58-.293.615.615 0 01.584.293c.127.258.185.544.17.831zm.307.642c.103-.19.253-.35.436-.462a2.92 2.92 0 00.38-.303.44.44 0 00.133-.313.346.346 0 00-.077-.231.306.306 0 00-.482.056.643.643 0 00-.051.267h-.415c.002-.156.037-.31.102-.452a.631.631 0 01.611-.323.77.77 0 01.548.19.679.679 0 01.206.513.702.702 0 01-.149.431c-.089.107-.192.2-.308.278l-.174.123c-.076.05-.148.104-.216.164a.442.442 0 00-.102.118h.954v.38h-1.493a.997.997 0 01.097-.436zm13.198-1.458v1.447h.426a.454.454 0 00.456-.323c.05-.136.075-.28.072-.426a1.025 1.025 0 00-.108-.513.442.442 0 00-.42-.18l-.426-.005zm.846-.339a.718.718 0 01.38.282c.076.108.128.23.154.36.03.119.045.241.046.364.007.261-.055.52-.18.75a.787.787 0 01-.743.415h-.954v-2.217h.954c.116-.003.232.013.343.046zm1.796 1.37a.306.306 0 01-.082.042l-.113.03h-.098a.591.591 0 00-.194.057.2.2 0 00-.098.18.182.182 0 00.062.16.218.218 0 00.148.05.412.412 0 00.252-.082.325.325 0 00.1-.133.322.322 0 00.023-.165v-.138zm-.262-.2a.603.603 0 00.169-.035.125.125 0 00.067-.047.127.127 0 00.026-.077.153.153 0 00-.013-.079.147.147 0 00-.054-.06.446.446 0 00-.205-.035.275.275 0 00-.215.072.322.322 0 00-.062.154h-.41c0-.128.041-.252.118-.355a.694.694 0 01.584-.215 1.09 1.09 0 01.477.103.413.413 0 01.211.405v.94a.267.267 0 00.025.117c.018.02.038.035.062.047v.066h-.462a.471.471 0 01-.031-.097v-.098a.9.9 0 01-.205.165.628.628 0 01-.313.076.513.513 0 01-.364-.123.455.455 0 01-.149-.359.468.468 0 01.236-.441 1.07 1.07 0 01.375-.103l.133-.02zm1.139 1.314h.169a.363.363 0 00.098-.036.274.274 0 00.051-.097c0-.057.031-.087 0-.098l-.6-1.714h.477l.354 1.211.338-1.211h.457l-.513 1.601a2.13 2.13 0 01-.262.58.512.512 0 01-.374.113h-.195v-.349zm3.144-.61a.246.246 0 00.251-.2c.048-.189.068-.382.062-.576a1.99 1.99 0 00-.062-.58.24.24 0 00-.251-.19.245.245 0 00-.251.19 1.99 1.99 0 00-.062.58c-.007.194.014.388.062.575a.25.25 0 00.251.2zm.754-.776c.016.288-.043.574-.169.832a.626.626 0 01-.585.292.602.602 0 01-.58-.292 2.14 2.14 0 010-1.663.606.606 0 01.58-.293.62.62 0 01.585.293c.13.257.192.543.179.831h-.01zm.616.4a.457.457 0 00.041.216.28.28 0 00.282.16.298.298 0 00.293-.2.318.318 0 00.02-.134.277.277 0 00-.175-.288.88.88 0 00-.307-.04v-.308a.718.718 0 00.287-.042.242.242 0 00.144-.251.296.296 0 00-.072-.205.278.278 0 00-.205-.077.256.256 0 00-.221.092.41.41 0 00-.072.257h-.4c.006-.105.024-.209.057-.308a.85.85 0 01.164-.236.548.548 0 01.2-.113.785.785 0 01.287-.041.758.758 0 01.513.159.516.516 0 01.19.436.472.472 0 01-.113.323.371.371 0 01-.149.113.308.308 0 01.169.103.499.499 0 01.159.41.694.694 0 01-.189.488.74.74 0 01-.565.21.691.691 0 01-.646-.302.906.906 0 01-.103-.421h.411zm12.002-1.02v1.447h.431a.463.463 0 00.456-.323 1.12 1.12 0 00.072-.421 1.025 1.025 0 00-.108-.514.443.443 0 00-.42-.18l-.431-.01zm.851-.334a.725.725 0 01.375.277c.077.108.131.23.159.36.025.12.039.241.041.364.009.26-.051.52-.174.749a.805.805 0 01-.744.416h-.954v-2.218h.954c.116.002.232.019.343.052zm1.791 1.37l-.077.041-.113.031h-.098a.653.653 0 00-.195.056.202.202 0 00-.097.185.207.207 0 00.012.086.23.23 0 00.044.073.249.249 0 00.149.047.459.459 0 00.257-.077.35.35 0 00.118-.298v-.144zm-.257-.2a.669.669 0 00.169-.041.125.125 0 00.065-.044.148.148 0 00-.044-.213.427.427 0 00-.205-.04.27.27 0 00-.216.076.362.362 0 00-.056.15h-.416a.645.645 0 01.123-.355.697.697 0 01.58-.216c.165-.003.329.034.477.108a.41.41 0 01.21.4v.945a.194.194 0 00.026.113.128.128 0 00.062.051v.062h-.467a.71.71 0 010-.093.53.53 0 010-.097.894.894 0 01-.205.159.596.596 0 01-.313.082.516.516 0 01-.37-.128.45.45 0 01-.143-.36.466.466 0 01.231-.436.984.984 0 01.374-.108l.118-.015zm1.134 1.309h.174a.189.189 0 00.098-.036.203.203 0 00.066-.108.163.163 0 000-.097l-.564-1.71h.477l.359 1.207.339-1.206h.456l-.564 1.611a2.25 2.25 0 01-.257.575.475.475 0 01-.379.113h-.195l-.01-.349zm3.149-.606a.246.246 0 00.252-.2 3.018 3.018 0 000-1.16.261.261 0 00-.513 0 2.765 2.765 0 000 1.16.246.246 0 00.261.2zm.749-.775a1.74 1.74 0 01-.164.832.742.742 0 01-.911.211.742.742 0 01-.259-.211 1.683 1.683 0 01-.169-.832 1.714 1.714 0 01.169-.836.737.737 0 01.912-.215c.101.05.19.124.258.215.115.263.165.55.144.836h.02zm1.723.596h-.246v.467h-.42v-.467h-.862v-.375l.81-1.319h.482v1.36h.247l-.011.334zm-.666-.339v-.94l-.565.945.565-.005zm11.874-.888v1.447h.426a.458.458 0 00.456-.323 1.16 1.16 0 00.072-.42 1.026 1.026 0 00-.108-.514.442.442 0 00-.42-.18l-.426-.01zm.846-.339a.77.77 0 01.38.282c.075.11.128.231.159.36.025.12.039.242.041.364.008.262-.054.52-.18.75a.787.787 0 01-.743.415h-.954v-2.217h.954c.117.005.233.03.343.072v-.026zm1.796 1.376l-.082.04a.474.474 0 01-.113.026h-.098a.762.762 0 00-.195.057.202.202 0 00-.097.185.197.197 0 00.013.086c.01.028.027.052.048.073a.237.237 0 00.149.046.407.407 0 00.251-.082.331.331 0 00.124-.293v-.138zm-.262-.2a.568.568 0 00.169-.041.124.124 0 00.065-.045.126.126 0 00.028-.074.156.156 0 00-.067-.144.511.511 0 00-.205-.035.263.263 0 00-.216.077.301.301 0 00-.061.149h-.416a.645.645 0 01.123-.355.707.707 0 01.585-.215c.165-.003.329.034.477.108a.401.401 0 01.205.4v.945c0 .039.008.077.026.112a.204.204 0 00.062.052v.061h-.462a.5.5 0 01-.031-.092.586.586 0 010-.103.789.789 0 01-.205.165.579.579 0 01-.313.082.512.512 0 01-.369-.129.513.513 0 01-.12-.193c-.025-.073-.034-.15-.025-.227a.516.516 0 01.237-.375.96.96 0 01.374-.108l.139-.015zm1.138 1.308h.175a.187.187 0 00.092-.036.208.208 0 00.072-.107.221.221 0 00.026-.098l-.601-1.704h.477l.354 1.211.339-1.211h.456l-.559 1.617a2.21 2.21 0 01-.261.575.468.468 0 01-.375.113h-.195v-.36zm3.145-.61a.24.24 0 00.251-.195 2.03 2.03 0 00.062-.575 2.024 2.024 0 00-.062-.585.265.265 0 00-.09-.151.264.264 0 00-.332 0 .261.261 0 00-.091.15 2.023 2.023 0 00-.061.586c-.007.193.014.387.061.575a.243.243 0 00.262.195zm.754-.77c.016.287-.043.573-.169.831a.742.742 0 01-.911.212.742.742 0 01-.259-.212 2.21 2.21 0 010-1.668.743.743 0 01.585-.29.73.73 0 01.585.29c.127.26.185.548.169.837zm.621.462c.009.08.043.155.097.215a.28.28 0 00.21.077.276.276 0 00.241-.113.451.451 0 00.082-.282.503.503 0 00-.077-.282.262.262 0 00-.241-.113.372.372 0 00-.138 0 .243.243 0 00-.149.133h-.385l.154-1.2h1.201v.364h-.893l-.077.472a.593.593 0 01.38-.118.693.693 0 01.472.18.694.694 0 01.2.513.836.836 0 01-.19.544.71.71 0 01-.58.236.764.764 0 01-.513-.17.651.651 0 01-.225-.472l.431.016zM92.04 115.63a1.66 1.66 0 01.148-.647c.117-.218.296-.396.513-.513l.385-.226c.131-.071.254-.157.364-.257a.564.564 0 000-.775.542.542 0 00-.4-.149.515.515 0 00-.513.283.97.97 0 00-.082.415h-.37a1.29 1.29 0 01.14-.61.869.869 0 01.83-.421.892.892 0 01.718.272.866.866 0 01.226.59.818.818 0 01-.241.59 2.408 2.408 0 01-.513.344l-.272.154a1.764 1.764 0 00-.313.205.779.779 0 00-.251.385h1.564v.344l-1.933.016zm2.698-.714a.46.46 0 00.23.411c.076.041.16.062.247.062a.565.565 0 00.44-.216c.162-.265.25-.568.257-.878a.653.653 0 01-.297.272c-.12.05-.25.076-.38.077a.838.838 0 01-.656-.261.946.946 0 01-.241-.668 1.103 1.103 0 01.236-.687.957.957 0 01.856-.279.966.966 0 01.713.551c.095.247.14.51.133.775.008.318-.046.635-.158.934a.92.92 0 01-.888.682.855.855 0 01-.641-.225.752.752 0 01-.215-.55h.364zm.543-.59a.602.602 0 00.395-.144.587.587 0 00.175-.513.632.632 0 00-.16-.472.543.543 0 00-.405-.154.546.546 0 00-.42.174.705.705 0 00-.154.478.683.683 0 00.138.446.512.512 0 00.431.206v-.021zm4.088.426c.01.199-.027.398-.107.58a.805.805 0 01-.78.375.916.916 0 01-.564-.18.764.764 0 01-.236-.636v-.211h.374v.236a.516.516 0 00.108.36.423.423 0 00.334.123.41.41 0 00.42-.221c.048-.167.067-.34.056-.513v-1.961h.395v2.048zm.918-1.273v1.437a.594.594 0 00.057.272.358.358 0 00.359.19.512.512 0 00.513-.339c.055-.165.08-.339.071-.513v-1.047h.359v2.151h-.338v-.319a.752.752 0 01-.687.375.649.649 0 01-.626-.308.894.894 0 01-.087-.436v-1.463h.379zm1.924 0h.344v.308a.965.965 0 01.323-.272.828.828 0 01.379-.082.625.625 0 01.616.318c.067.163.097.338.087.513v1.381h-.364v-1.355a.712.712 0 00-.062-.318.352.352 0 00-.142-.156.354.354 0 00-.206-.044.627.627 0 00-.211.03.519.519 0 00-.256.175.51.51 0 00-.118.221 1.252 1.252 0 00-.031.323v1.124h-.359v-2.166zm3.175-.046c.155 0 .308.037.446.108.13.062.242.158.323.277a.912.912 0 01.144.38c.029.155.041.314.036.472h-1.575a.884.884 0 00.154.513.508.508 0 00.446.2.564.564 0 00.451-.19.654.654 0 00.139-.246h.354a.812.812 0 01-.093.262.98.98 0 01-.179.236.816.816 0 01-.405.215.998.998 0 01-.298.036.905.905 0 01-.677-.292 1.142 1.142 0 01-.277-.816 1.243 1.243 0 01.277-.842.929.929 0 01.734-.313zm.574.949a.91.91 0 00-.103-.374.509.509 0 00-.512-.262.551.551 0 00-.416.18.67.67 0 00-.179.456h1.21zM92.399 136.53a.91.91 0 01-.739-.283 1.025 1.025 0 01-.23-.682h.379c0 .141.036.28.102.405a.541.541 0 00.513.226.663.663 0 00.457-.149.518.518 0 00.17-.395.465.465 0 00-.18-.416.928.928 0 00-.513-.118h-.15v-.318h.175a.71.71 0 00.334-.067.402.402 0 00.23-.4.39.39 0 00-.153-.329.579.579 0 00-.354-.118.54.54 0 00-.513.241.889.889 0 00-.082.38h-.36a1.072 1.072 0 01.129-.549.809.809 0 01.774-.4 1.08 1.08 0 01.683.195.701.701 0 01.24.57.638.638 0 01-.143.426.587.587 0 01-.23.159.629.629 0 01.353.241.7.7 0 01.128.436.868.868 0 01-.271.667 1.057 1.057 0 01-.75.278zm2.323-2.952a.85.85 0 01.805.457c.144.304.21.639.195.975.01.332-.05.662-.174.97a.864.864 0 01-.826.55.836.836 0 01-.77-.452 2.083 2.083 0 01-.21-1.027c-.006-.285.036-.57.123-.841a.865.865 0 01.857-.632zm0 2.618a.509.509 0 00.451-.246 1.83 1.83 0 00.164-.924 2.367 2.367 0 00-.118-.806.465.465 0 00-.466-.318.516.516 0 00-.467.302c-.114.28-.165.582-.149.883-.008.239.025.477.097.703a.512.512 0 00.483.406h.005zm4.073-.626c.011.2-.028.399-.113.58a.796.796 0 01-.775.38.931.931 0 01-.569-.18.775.775 0 01-.23-.642v-.21h.374v.21c-.01.131.029.26.107.365a.437.437 0 00.333.118.407.407 0 00.415-.216c.053-.166.074-.339.063-.513v-1.966h.395v2.074zm.918-1.268v1.427a.59.59 0 00.051.267.373.373 0 00.359.195.516.516 0 00.513-.339 1.3 1.3 0 00.077-.513v-1.052h.359v2.186h-.343v-.313a.758.758 0 01-.688.375.642.642 0 01-.625-.308.9.9 0 01-.093-.442v-1.457l.39-.026zm1.924 0h.354v.303a.949.949 0 01.323-.267.828.828 0 01.379-.082.613.613 0 01.616.318c.072.161.104.337.092.513v1.386h-.385v-1.35a.772.772 0 00-.056-.318.352.352 0 00-.349-.2.747.747 0 00-.21.026.571.571 0 00-.239.15.57.57 0 00-.141.245 1.751 1.751 0 00-.025.323v1.124h-.359v-2.171zm3.175-.046a.908.908 0 01.441.108.767.767 0 01.328.277.986.986 0 01.144.375c.024.157.035.317.03.477h-1.574c.003.182.056.36.154.513a.507.507 0 00.451.195.564.564 0 00.446-.185.576.576 0 00.139-.251h.354a.768.768 0 01-.093.262 1.057 1.057 0 01-.174.241.831.831 0 01-.41.215 1.252 1.252 0 01-.293.031.916.916 0 01-.682-.292 1.14 1.14 0 01-.277-.816 1.227 1.227 0 01.282-.842.939.939 0 01.734-.308zm.574.949a.957.957 0 00-.102-.374.517.517 0 00-.513-.262.55.55 0 00-.416.18.692.692 0 00-.179.456h1.21zm-12.259 18.899a.841.841 0 01.805.457c.143.304.21.639.195.975.012.332-.047.663-.174.97a.854.854 0 01-.826.544.833.833 0 01-.77-.447 2.079 2.079 0 01-.21-1.026 2.422 2.422 0 01.129-.842.854.854 0 01.851-.631zm0 2.622a.514.514 0 00.446-.251c.135-.288.191-.607.165-.924a2.37 2.37 0 00-.118-.806.465.465 0 00-.467-.318.509.509 0 00-.467.303c-.114.28-.165.581-.149.883a2.07 2.07 0 00.098.703.516.516 0 00.492.41zm1.564-1.775v-.278c.19-.007.375-.049.55-.123a.65.65 0 00.23-.426h.282v2.859h-.385v-2.053l-.677.021zm4.791 1.144a1.2 1.2 0 01-.113.58.794.794 0 01-.774.375.93.93 0 01-.57-.175.775.775 0 01-.23-.641v-.211h.374v.211c-.009.13.03.259.108.364a.428.428 0 00.333.118.404.404 0 00.242-.043.405.405 0 00.174-.172 1.42 1.42 0 00.061-.514v-1.96h.395v2.068zm.918-1.268v1.427a.598.598 0 00.052.267.362.362 0 00.359.19.51.51 0 00.513-.334c.059-.164.085-.338.077-.513v-1.026h.359v2.145h-.344v-.313a.76.76 0 01-.687.375.645.645 0 01-.626-.308.912.912 0 01-.092-.442v-1.457l.389-.011zm1.929-.795h.364v2.941h-.364v-2.941zm2.226.795h.395l-.339.94c-.128.369-.241.672-.328.903a5.887 5.887 0 01-.441 1.026.52.52 0 01-.441.18h-.216v-.359l.134.036h.076a.237.237 0 00.131-.025.236.236 0 00.095-.093s.031-.062.072-.165l.092-.22-.795-2.207h.411l.574 1.75.58-1.766zm-11.797 19.848a.85.85 0 01.805.457c.144.304.21.639.195.975.01.331-.05.659-.174.965a.845.845 0 01-.826.549.823.823 0 01-.77-.446 2.026 2.026 0 01-.21-1.027c-.006-.285.036-.57.123-.841a.866.866 0 01.857-.632zm0 2.618a.52.52 0 00.446-.247 1.79 1.79 0 00.17-.929 2.217 2.217 0 00-.124-.8.45.45 0 00-.462-.318.508.508 0 00-.466.302 1.983 1.983 0 00-.149.883c-.008.238.023.476.092.703a.513.513 0 00.493.406zm1.282.241c.004-.222.057-.441.154-.642.115-.219.294-.397.513-.513l.385-.221a1.92 1.92 0 00.364-.256.513.513 0 00.164-.38.511.511 0 00-.339-.516.544.544 0 00-.215-.033.508.508 0 00-.513.282 1.026 1.026 0 00-.082.416h-.37a1.326 1.326 0 01.14-.611.882.882 0 01.83-.416.839.839 0 01.876.509.85.85 0 01.068.354.786.786 0 01-.241.585 2.406 2.406 0 01-.513.349l-.272.149c-.11.058-.215.127-.313.205a.765.765 0 00-.251.39h1.57v.349H94.04zm5.053-.867c.008.199-.03.398-.113.58a.81.81 0 01-.78.374.913.913 0 01-.564-.174.782.782 0 01-.23-.642v-.21h.373v.21a.573.573 0 00.103.365.44.44 0 00.339.118.414.414 0 00.415-.216c.05-.166.069-.34.056-.513v-1.966h.4v2.074zm.918-1.268v1.427a.584.584 0 00.051.267.366.366 0 00.359.195.518.518 0 00.513-.339c.057-.165.082-.339.072-.513v-1.027h.364v2.125h-.344v-.313a.765.765 0 01-.687.375.643.643 0 01-.62-.308.902.902 0 01-.093-.442v-1.457l.385.01zm1.928-.801h.364v2.936h-.364v-2.936zm2.241.801h.4l-.338.939c-.128.37-.241.673-.328.904a5.887 5.887 0 01-.441 1.026.518.518 0 01-.442.18h-.118l-.097-.026v-.375a.476.476 0 00.133.031h.077a.25.25 0 00.226-.118s.031-.061.072-.164c.041-.103.072-.169.087-.221l-.79-2.207h.395l.58 1.745.584-1.714zM91.573 95.413a1.58 1.58 0 01.154-.647 1.21 1.21 0 01.513-.513l.384-.22c.13-.073.252-.16.364-.257a.544.544 0 00.165-.385.514.514 0 00-.34-.51.543.543 0 00-.214-.034.513.513 0 00-.513.282.976.976 0 00-.082.416h-.37a1.31 1.31 0 01.139-.61 1.052 1.052 0 011.539-.15.868.868 0 01.225.59.797.797 0 01-.24.59 2.398 2.398 0 01-.514.345l-.272.154a1.739 1.739 0 00-.313.205.765.765 0 00-.25.39h1.569v.354h-1.944zm3.267-1.663a.513.513 0 00.374-.133.436.436 0 00.1-.478.402.402 0 00-.094-.133.514.514 0 00-.41-.159.478.478 0 00-.38.139.452.452 0 00-.113.313.385.385 0 00.149.318.604.604 0 00.374.133zm0 1.422a.66.66 0 00.42-.133.514.514 0 00.165-.406.515.515 0 00-.17-.426.692.692 0 00-.44-.143.61.61 0 00-.421.148.513.513 0 00-.164.406.545.545 0 00.374.526.59.59 0 00.257.028h-.02zm-.513-1.283a.65.65 0 01-.23-.154.544.544 0 01-.16-.416.755.755 0 01.539-.731.903.903 0 01.354-.049.918.918 0 01.646.216.692.692 0 01.236.513.652.652 0 01-.138.436.856.856 0 01-.236.185c.104.047.199.111.282.19a.74.74 0 01.19.513.894.894 0 01-.257.642.939.939 0 01-.718.267 1.123 1.123 0 01-.708-.226.794.794 0 01-.292-.662.744.744 0 01.513-.724h-.02zm4.586.652c.01.199-.028.398-.108.58a.805.805 0 01-.78.375.913.913 0 01-.564-.18.765.765 0 01-.23-.637v-.21h.374v.21a.513.513 0 00.102.36.425.425 0 00.339.123.405.405 0 00.415-.22c.05-.167.07-.341.057-.514v-1.966h.395v2.079zm.913-1.268v1.422a.601.601 0 00.051.272.36.36 0 00.359.19.513.513 0 00.513-.334c.055-.165.079-.34.072-.513v-1.052h.364v2.155h-.343v-.318a.764.764 0 01-.688.375.65.65 0 01-.626-.308.942.942 0 01-.087-.437v-1.457l.385.005zm1.918 0h.344v.303a.972.972 0 01.323-.272.913.913 0 01.38-.082.623.623 0 01.615.318c.07.162.099.338.087.513v1.36h-.364v-1.355a.664.664 0 00-.062-.313.342.342 0 00-.343-.205.645.645 0 00-.216.03.511.511 0 00-.256.175.507.507 0 00-.118.221 1.3 1.3 0 00-.026.323v1.124h-.364v-2.14zm3.175-.051c.155 0 .308.037.446.108a.787.787 0 01.323.277 1 1 0 01.149.38c.025.156.035.314.031.472h-1.575a.919.919 0 00.154.513.514.514 0 00.446.2.569.569 0 00.452-.19.599.599 0 00.138-.246h.354a.812.812 0 01-.092.262 1.01 1.01 0 01-.18.236.87.87 0 01-.405.22 1.3 1.3 0 01-.298.031.9.9 0 01-.677-.292 1.142 1.142 0 01-.277-.817 1.232 1.232 0 01.282-.841.926.926 0 01.729-.313zm.579.95a1.02 1.02 0 00-.102-.375.513.513 0 00-.513-.257.552.552 0 00-.416.174.683.683 0 00-.179.457h1.21z" clip-rule="evenodd"/></svg>