<svg xmlns:xlink="http://www.w3.org/1999/xlink" fill="none" viewBox="0 0 229 227"><path fill="#35416B" fill-rule="evenodd" stroke="#F7A501" stroke-linecap="round" stroke-linejoin="round" d="M5.68 1h103.663a4.677 4.677 0 014.326 2.89c.235.569.356 1.178.356 1.793V108.7a4.67 4.67 0 01-.353 1.796 4.669 4.669 0 01-2.535 2.543 4.68 4.68 0 01-1.794.357H5.68A4.68 4.68 0 011 108.712V5.696a4.686 4.686 0 012.886-4.338A4.678 4.678 0 015.68 1z" clip-rule="evenodd"/><path fill="#fff" fill-rule="evenodd" d="M13.659 10.024h88.516a4.678 4.678 0 014.326 2.891c.235.568.357 1.178.357 1.793v79.889a4.693 4.693 0 01-1.372 3.312 4.682 4.682 0 01-3.311 1.37H13.659a4.679 4.679 0 01-4.67-4.682v-79.89a4.685 4.685 0 014.67-4.683z" clip-rule="evenodd"/><path fill="#F7A501" fill-rule="evenodd" d="M11.368 10.04h22.42v89.214h-22.42c-1.86 0-3.367-2.119-3.367-4.729V14.768c.002-2.612 1.51-4.728 3.367-4.728z" clip-rule="evenodd"/><path fill="#35416B" fill-rule="evenodd" d="M21.934 17.03v4.737l4.615-.032.076-.963-1.335-.238-1.555-1.667-1.801-1.837z" clip-rule="evenodd"/><path fill="#fff" fill-rule="evenodd" d="M22.72 20.454a.416.416 0 11.832.035.416.416 0 01-.831-.035z" clip-rule="evenodd"/><path fill="#35416B" fill-rule="evenodd" d="M18.65 13.836l.022 2.277 2.743 2.71.02-2.256-2.784-2.731zm.01 2.746l.012 2.258 2.784 2.841-.041-2.207-2.755-2.892zm-.029 2.95l.035 2.207 2.268.035-2.303-2.242zm-2.75-5.753l-.02 2.314 2.761 2.735.037-2.164-2.777-2.885z" clip-rule="evenodd"/><path fill="#35416B" fill-rule="evenodd" d="M15.848 16.636V18.9l2.79 2.826v-2.248l-2.79-2.842zm-.016 2.883v2.258l2.282-.02-2.282-2.238z" clip-rule="evenodd"/><path fill="#35416B" fill-rule="evenodd" d="M13.038 13.857v2.249l2.812 2.733v-2.21l-2.812-2.772zm.032 2.779l2.758 2.857v2.26l-2.818-2.955.06-2.162zm-.062 2.922v2.199h2.31l-2.31-2.2zm34.12 16.17h6.668v43.89h-6.668v-43.89z" clip-rule="evenodd"/><path fill="#F7A501" fill-rule="evenodd" d="M54.957 35.843h6.026a1.128 1.128 0 011.129 1.13v6.077a1.131 1.131 0 01-1.13 1.13h-6.025a1.129 1.129 0 01-1.129-1.13v-6.07a1.13 1.13 0 011.13-1.137zm0 16.917h6.026a1.128 1.128 0 011.129 1.13v6.07a1.132 1.132 0 01-1.13 1.133h-6.025a1.13 1.13 0 01-1.129-1.132v-6.07a1.13 1.13 0 011.13-1.13zm17.335.588h6.025a1.13 1.13 0 011.13 1.132v6.06a1.132 1.132 0 01-1.13 1.131h-6.025a1.13 1.13 0 01-1.131-1.132v-6.06a1.132 1.132 0 011.13-1.131z" clip-rule="evenodd"/><path fill="#F7C455" fill-rule="evenodd" d="M89.949 35.81h6.025a1.131 1.131 0 011.13 1.131v6.06a1.133 1.133 0 01-1.13 1.132H89.95A1.13 1.13 0 0188.819 43v-6.06a1.132 1.132 0 011.13-1.132z" clip-rule="evenodd"/><path fill="#F7E09F" fill-rule="evenodd" d="M80.807 35.92h6.025a1.129 1.129 0 011.13 1.131v6.07a1.13 1.13 0 01-1.13 1.13h-6.025a1.127 1.127 0 01-1.13-1.13v-6.07a1.132 1.132 0 011.13-1.132z" clip-rule="evenodd"/><path fill="#F7C455" fill-rule="evenodd" d="M80.807 44.423h6.025a1.128 1.128 0 011.13 1.13v6.07a1.13 1.13 0 01-1.13 1.132h-6.025a1.13 1.13 0 01-1.13-1.132v-6.07a1.13 1.13 0 011.13-1.13z" clip-rule="evenodd"/><path fill="#F7E09F" fill-rule="evenodd" d="M72.523 45.032h6.024a1.132 1.132 0 011.13 1.132v6.07a1.132 1.132 0 01-1.13 1.13h-6.024a1.131 1.131 0 01-1.13-1.13v-6.07a1.132 1.132 0 011.13-1.132z" clip-rule="evenodd"/><path fill="#F7C455" fill-rule="evenodd" d="M63.807 36.06h6.026a1.13 1.13 0 011.13 1.132v6.07a1.132 1.132 0 01-1.13 1.13h-6.026a1.128 1.128 0 01-1.129-1.13v-6.081a1.132 1.132 0 011.13-1.121zm-8.653 25.634h6.026a1.129 1.129 0 011.129 1.13v6.07a1.13 1.13 0 01-1.13 1.132h-6.025a1.13 1.13 0 01-1.129-1.131v-6.071a1.13 1.13 0 011.13-1.13zm17.37-25.69h6.023a1.13 1.13 0 011.13 1.13v6.068a1.131 1.131 0 01-1.13 1.132h-6.024a1.13 1.13 0 01-1.13-1.132v-6.06a1.131 1.131 0 011.13-1.138z" clip-rule="evenodd"/><path fill="#F7E09F" fill-rule="evenodd" d="M63.723 61.694h6.023a1.13 1.13 0 011.132 1.13v6.07a1.132 1.132 0 01-1.132 1.132h-6.023a1.13 1.13 0 01-1.131-1.131v-6.071a1.132 1.132 0 011.131-1.13z" clip-rule="evenodd"/><path fill="#F1AA04" fill-rule="evenodd" d="M63.593 44.674h6.024a1.13 1.13 0 011.131 1.132v6.07a1.132 1.132 0 01-1.131 1.13h-6.024a1.13 1.13 0 01-1.13-1.13v-6.077a1.132 1.132 0 011.13-1.125zm-8.618 25.364H61a1.128 1.128 0 011.13 1.13v6.07a1.13 1.13 0 01-1.13 1.13h-6.025a1.131 1.131 0 01-1.132-1.13v-6.08a1.13 1.13 0 011.132-1.12z" clip-rule="evenodd"/><path stroke="#35416B" stroke-linecap="round" stroke-linejoin="round" stroke-width=".5" d="M37.205 27.096h59.431a1.146 1.146 0 011.16 1.132v54.104a1.146 1.146 0 01-1.16 1.13H37.205a1.146 1.146 0 01-1.162-1.13V28.228a1.147 1.147 0 011.162-1.132v0z" clip-rule="evenodd"/><path fill="#35416B" fill-rule="evenodd" d="M11.853 30.292a.915.915 0 01.915.915v.091a.916.916 0 11-1.832 0v-.097a.916.916 0 01.917-.91zM12 39.025a.915.915 0 01.915.916v.095a.916.916 0 11-1.83 0v-.095a.916.916 0 01.915-.916zm-.083 8.549a.915.915 0 01.915.915v.098a.916.916 0 11-1.83 0v-.098a.918.918 0 01.915-.915zm.018 8.49a.915.915 0 01.915.915v.095a.916.916 0 11-1.83 0v-.095a.915.915 0 01.915-.916zm-.134 8.578a.914.914 0 01.915.916v.097a.915.915 0 11-1.83.004v-.097a.916.916 0 01.915-.92zm-.076 8.768a.915.915 0 01.915.915v.095a.916.916 0 01-1.562.648.916.916 0 01-.268-.648v-.095a.917.917 0 01.915-.915zm2.76-42.828h13.799a.595.595 0 110 1.188H14.485a.594.594 0 010-1.188zm.145 8.724h13.8a.595.595 0 010 1.189h-13.8a.592.592 0 01-.42-1.014.595.595 0 01.42-.175zm-.08 8.558h13.8a.595.595 0 110 1.188h-13.8a.595.595 0 010-1.188zm.017 8.488h13.799a.594.594 0 010 1.188H14.567a.596.596 0 01-.557-.823.596.596 0 01.557-.365zm-.127 8.58h13.798a.595.595 0 010 1.189H14.44a.592.592 0 01-.42-1.015.592.592 0 01.42-.174zm-.083 8.765h13.799a.594.594 0 010 1.188H14.357a.594.594 0 110-1.188z" clip-rule="evenodd"/><path fill="#F7A501" fill-rule="evenodd" d="M40.782 16.972v.837h.738a.807.807 0 00.328-.052.346.346 0 00.195-.35.388.388 0 00-.188-.381.709.709 0 00-.316-.054h-.757zm1.694-.245a.97.97 0 01.16.264.866.866 0 01.06.327.953.953 0 01-.112.433.649.649 0 01-.37.303.58.58 0 01.299.26c.07.153.1.32.09.488v.217c-.003.097.002.194.015.29a.262.262 0 00.12.177v.078h-.716a2.44 2.44 0 01-.044-.166 1.568 1.568 0 01-.026-.269v-.29a.547.547 0 00-.11-.396.569.569 0 00-.391-.1h-.669v1.221h-.636v-3.133h1.527a1.41 1.41 0 01.504.08.804.804 0 01.297.216h.002zm1.168 1.435h.936a.529.529 0 00-.145-.362.452.452 0 00-.322-.123.401.401 0 00-.324.132.634.634 0 00-.145.353zm1.367-.535c.092.144.152.306.175.476.017.152.024.304.02.457h-1.577a.574.574 0 00.216.487.517.517 0 00.298.086.43.43 0 00.303-.106.501.501 0 00.113-.158h.614a.756.756 0 01-.217.416 1.038 1.038 0 01-.821.327 1.16 1.16 0 01-.777-.284 1.142 1.142 0 01-.335-.92 1.286 1.286 0 01.303-.917 1.042 1.042 0 01.787-.32c.178-.003.355.034.517.108.158.077.29.198.38.348zm.363.065v-.433h.32v-.65h.597v.65h.374v.433h-.374v1.216a.282.282 0 00.034.178c.068.03.143.042.217.034h.119v.45h-.286a.764.764 0 01-.584-.149.432.432 0 01-.101-.318v-1.418l-.316.007zm2.113.47h.936a.529.529 0 00-.145-.362.452.452 0 00-.322-.123.408.408 0 00-.324.132.65.65 0 00-.145.353zm1.367-.535c.093.144.153.307.175.476.017.152.024.305.02.457h-1.562a.574.574 0 00.216.487.53.53 0 00.3.087.438.438 0 00.304-.107.535.535 0 00.11-.158h.614a.766.766 0 01-.216.416 1.042 1.042 0 01-.828.335 1.157 1.157 0 01-.775-.283 1.137 1.137 0 01-.337-.92 1.286 1.286 0 01.303-.917 1.043 1.043 0 01.787-.32 1.2 1.2 0 01.517.108.909.909 0 01.374.34h-.002zm2.688.366v1.552h-.616v-1.4a.65.65 0 00-.048-.28.344.344 0 00-.34-.177.42.42 0 00-.419.26.899.899 0 00-.058.35v1.247h-.602v-2.299h.582v.336a1.01 1.01 0 01.216-.256.757.757 0 01.47-.14.884.884 0 01.584.188.758.758 0 01.231.62zm.32-.301v-.433h.32v-.65h.597v.65h.374v.433h-.374v1.216a.282.282 0 00.035.178.42.42 0 00.216.034h.119v.45h-.285a.764.764 0 01-.584-.149.434.434 0 01-.102-.318v-1.418l-.316.007zm2.295-.724h-.614v-.557h.61l.004.557zm-.614.274h.61v2.303h-.61v-2.303zm2.777 1.156a.866.866 0 00-.14-.535.48.48 0 00-.405-.186.486.486 0 00-.409.186 1.082 1.082 0 000 1.07.483.483 0 00.409.188.479.479 0 00.404-.189.866.866 0 00.14-.534zm-.545 1.227a1.08 1.08 0 01-.885-.36 1.442 1.442 0 010-1.73 1.26 1.26 0 011.771 0 1.442 1.442 0 010 1.73 1.08 1.08 0 01-.886.36zm3.694-1.632v1.552h-.617v-1.4a.65.65 0 00-.047-.28.342.342 0 00-.338-.177.42.42 0 00-.422.26.898.898 0 00-.058.35v1.247h-.6v-2.299h.58v.336c.058-.097.131-.183.217-.256a.762.762 0 01.47-.14.89.89 0 01.585.188.765.765 0 01.23.62z" clip-rule="evenodd"/><path fill="#35416B" fill-rule="evenodd" stroke="#35416B" stroke-linecap="round" stroke-linejoin="round" d="M38.635 23.94h37.742v1.56H38.635v-1.56z" clip-rule="evenodd"/><path stroke="#35416B" stroke-linecap="round" stroke-linejoin="round" stroke-width=".5" d="M70.914 27.208v56.204m8.861-56.2l-.216 56.152m8.792-56.248l-.217 56.342M47.091 27.085l-.037 56.24m6.638-56.223l-.045 56.286m8.577-56.284l-.043 56.241"/><path fill="#35416B" fill-rule="evenodd" d="M39.007 30.667a.587.587 0 01.845.052c.05.068.08.149.087.233h-.26a.365.365 0 00-.065-.136.267.267 0 00-.216-.08.258.258 0 00-.216.113.563.563 0 00-.082.324.487.487 0 00.086.316.272.272 0 00.217.104.25.25 0 00.216-.09.379.379 0 00.067-.146h.257a.573.573 0 01-.173.333.513.513 0 01-.357.128.534.534 0 01-.421-.173.81.81 0 01.021-.978h-.006zm1.74.655a.353.353 0 00-.056-.216.216.216 0 00-.326 0 .433.433 0 000 .432.216.216 0 00.326 0 .355.355 0 00.056-.216zm-.216.491a.432.432 0 01-.355-.142.572.572 0 010-.693.502.502 0 01.71 0 .571.571 0 010 .693.433.433 0 01-.357.142h.002zm1.42-.857a.251.251 0 01.045.107c.004.06.004.12 0 .18v.54h-.247v-.56a.276.276 0 00-.024-.121.131.131 0 00-.125-.063.165.165 0 00-.145.063.299.299 0 00-.05.181v.5h-.24v-1.242h.24v.433a.29.29 0 01.121-.11.37.37 0 01.3-.002c.05.02.093.052.124.095zm.91.367a.353.353 0 00-.057-.217.217.217 0 00-.324 0 .418.418 0 000 .433.218.218 0 00.251.054.217.217 0 00.073-.054.355.355 0 00.057-.216zm-.217.49a.432.432 0 01-.352-.142.572.572 0 010-.692.5.5 0 01.707 0 .572.572 0 010 .692.432.432 0 01-.357.143h.002zm1.166-.973v.242h-.07a.204.204 0 00-.196.093.394.394 0 00-.028.165v.432h-.242v-.906h.231v.16a.482.482 0 01.097-.126.25.25 0 01.176-.056h.032v-.004zm.054.2v-.175h.13v-.257h.249v.257h.149v.171h-.15v.487a.128.128 0 00.014.072.174.174 0 00.088.013h.048v.18h-.115a.32.32 0 01-.25-.057.18.18 0 01-.04-.128v-.567l-.123.005zm3.984-.49h.266v.766a.41.41 0 00.03.186.253.253 0 00.411 0 .432.432 0 00.03-.186v-.766h.264v.766a.65.65 0 01-.06.31.58.58 0 01-.878 0 .65.65 0 01-.063-.31v-.766zm1.419.95c0 .034.012.066.032.093a.214.214 0 00.165.048.247.247 0 00.114-.022.066.066 0 00.041-.063.07.07 0 00-.034-.063 1.528 1.528 0 00-.251-.071.527.527 0 01-.216-.097.217.217 0 01-.063-.167.283.283 0 01.1-.216.402.402 0 01.28-.091.52.52 0 01.282.067.295.295 0 01.125.238h-.24a.15.15 0 00-.028-.074.163.163 0 00-.134-.047.189.189 0 00-.113.023.072.072 0 00-.024.093.06.06 0 00.027.024c.081.03.165.053.25.067a.49.49 0 01.217.102.234.234 0 01.069.175.276.276 0 01-.102.217.61.61 0 01-.633 0 .304.304 0 01-.104-.236h.24zm.95-.258h.373a.217.217 0 00-.058-.145.176.176 0 00-.127-.05.162.162 0 00-.13.052.27.27 0 00-.059.143zm.547-.216c.036.057.06.122.069.19.004.06.004.121 0 .182H50.2a.226.226 0 00.089.195.195.195 0 00.119.034.17.17 0 00.12-.04.189.189 0 00.046-.066h.245a.307.307 0 01-.085.167.413.413 0 01-.33.134.472.472 0 01-.312-.113.464.464 0 01-.134-.367.52.52 0 01.121-.368.42.42 0 01.316-.128.502.502 0 01.216.043.38.38 0 01.151.139v-.002zm.772-.173v.247h-.07a.2.2 0 00-.194.095.36.36 0 00-.028.165v.432H51v-.926h.23v.16a.449.449 0 01.097-.125.26.26 0 01.175-.059h.033v.011zm.328.647a.157.157 0 00.033.093.215.215 0 00.166.048.236.236 0 00.113-.022.065.065 0 00.04-.063.069.069 0 00-.034-.063 1.456 1.456 0 00-.25-.071.504.504 0 01-.217-.097.216.216 0 01-.065-.167.285.285 0 01.1-.216.41.41 0 01.283-.091.513.513 0 01.279.067.297.297 0 01.125.238h-.24a.15.15 0 00-.028-.074.163.163 0 00-.134-.047.193.193 0 00-.112.023.072.072 0 00-.024.093.06.06 0 00.026.024c.081.03.165.053.25.067a.48.48 0 01.217.102.235.235 0 01.071.175.283.283 0 01-.101.217.614.614 0 01-.636 0 .303.303 0 01-.104-.236h.242zm4.49-.344v.61h.18a.194.194 0 00.192-.136.496.496 0 00.03-.18.434.434 0 00-.045-.216.191.191 0 00-.177-.076l-.18-.002zm.357-.143a.31.31 0 01.158.119.38.38 0 01.067.151c.012.05.018.102.017.154a.622.622 0 01-.073.316.337.337 0 01-.314.175h-.402v-.935h.407c.045 0 .09.007.134.02h.006zm.75.58l-.034.017a.22.22 0 01-.048.011h-.04a.294.294 0 00-.083.024.085.085 0 00-.041.078.085.085 0 00.026.067.1.1 0 00.06.02.18.18 0 00.109-.035.144.144 0 00.052-.123v-.059zm-.11-.084a.259.259 0 00.072-.018.053.053 0 00.038-.052.06.06 0 00-.03-.058.18.18 0 00-.086-.015.109.109 0 00-.089.032.127.127 0 00-.026.063h-.175a.268.268 0 01.052-.15.294.294 0 01.244-.09c.07-.001.14.014.203.045a.168.168 0 01.087.17v.397a.08.08 0 00.01.048.087.087 0 00.027.021v.026h-.197c0-.015 0-.028-.01-.038a.24.24 0 010-.044.329.329 0 01-.087.07.25.25 0 01-.132.034.236.236 0 01-.156-.054.189.189 0 01-.06-.152.197.197 0 01.097-.183.417.417 0 01.16-.046l.058-.006zm.478.551h.074a.102.102 0 00.04-.015.087.087 0 00.03-.045c0-.022.014-.037.012-.041l-.255-.723h.201l.151.51.143-.51h.193l-.238.682a.955.955 0 01-.108.242.203.203 0 01-.16.048h-.083v-.148zm1.337-.258a.103.103 0 00.106-.082.988.988 0 00.024-.242.957.957 0 00-.024-.247.11.11 0 00-.178-.064.11.11 0 00-.038.064.85.85 0 00-.026.247.868.868 0 00.026.242.104.104 0 00.11.082zm.316-.324a.712.712 0 01-.07.35.312.312 0 01-.493 0 .904.904 0 010-.703.308.308 0 01.494 0c.05.11.07.232.06.353h.009zm.13-.18v-.123c.04 0 .079-.004.118-.01a.154.154 0 00.125-.115.162.162 0 000-.037h.152v.92h-.186v-.634h-.21z" clip-rule="evenodd"/><path fill="#fff" fill-rule="evenodd" d="M49.14 39.858v-.089a.474.474 0 00.173-.039.217.217 0 00.073-.134h.089v.905h-.121v-.65l-.215.007zm.942-.266a.272.272 0 01.255.145.674.674 0 01.061.307.749.749 0 01-.056.308.268.268 0 01-.26.173.263.263 0 01-.244-.141.673.673 0 01-.065-.32.796.796 0 01.039-.264.274.274 0 01.27-.208zm0 .829a.162.162 0 00.143-.078.58.58 0 00.052-.294.71.71 0 00-.039-.254.141.141 0 00-.147-.1.154.154 0 00-.147.094.68.68 0 00-.046.279.714.714 0 00.029.217.162.162 0 00.155.136zm.73-.83a.274.274 0 01.254.146.673.673 0 01.06.307.75.75 0 01-.055.308.27.27 0 01-.262.173.262.262 0 01-.242-.141.65.65 0 01-.067-.32.746.746 0 01.04-.264.273.273 0 01.271-.208zm0 .83a.16.16 0 00.14-.078.555.555 0 00.054-.295.705.705 0 00-.04-.253.143.143 0 00-.146-.1.153.153 0 00-.147.094.649.649 0 00-.048.279.705.705 0 00.03.216.163.163 0 00.154.137h.002zm1.254-.362a.216.216 0 11-.003.432.216.216 0 01.003-.432zm-.091-.463h.069l-.508.928h-.07l.509-.928zm-.532.374a.12.12 0 00.093-.036.13.13 0 000-.187.13.13 0 00-.093-.036.124.124 0 00-.091.036.13.13 0 000 .187.125.125 0 00.09.036zm0-.35a.216.216 0 11-.002.432.216.216 0 01.002-.432zm.623.79a.125.125 0 00.093-.04.127.127 0 00.036-.09.132.132 0 00-.036-.093.132.132 0 00-.217.093.12.12 0 00.04.09.126.126 0 00.084.04z" clip-rule="evenodd"/><path fill="#35416B" fill-rule="evenodd" d="M56.155 39.856v-.09a.524.524 0 00.173-.038.2.2 0 00.072-.134h.09v.904h-.12v-.649l-.215.007zm.632.642a.533.533 0 01.047-.205.413.413 0 01.165-.158l.123-.07a.615.615 0 00.115-.082.163.163 0 00.051-.119.16.16 0 00-.175-.173.166.166 0 00-.162.089.31.31 0 00-.026.132h-.117a.409.409 0 01.044-.193.273.273 0 01.261-.132.286.286 0 01.23.085.28.28 0 01.052.288.264.264 0 01-.057.086.93.93 0 01-.16.108l-.086.048a.735.735 0 00-.098.065.232.232 0 00-.08.123h.496v.108h-.623zm.798-.138h.132v.139h-.132v-.139zm.586.162a.29.29 0 01-.234-.089.33.33 0 01-.071-.216h.119c0 .044.011.088.032.127a.176.176 0 00.16.072.216.216 0 00.145-.048.159.159 0 00.054-.125.14.14 0 00-.056-.13.283.283 0 00-.16-.04h-.048v-.1h.058a.216.216 0 00.106-.023.125.125 0 00.071-.125.12.12 0 00-.045-.087.17.17 0 00-.113-.036.165.165 0 00-.158.075.248.248 0 00-.026.12h-.114a.36.36 0 01.04-.174.257.257 0 01.247-.127.337.337 0 01.217.062.218.218 0 01.075.18.185.185 0 01-.117.186.193.193 0 01.11.076.21.21 0 01.042.136.28.28 0 01-.084.217.343.343 0 01-.25.069zm1.27-.465a.216.216 0 11-.003.432.216.216 0 01.002-.432zm-.091-.463h.069l-.506.928h-.072l.509-.928zm-.532.374a.13.13 0 100-.26.13.13 0 00-.09.223.133.133 0 00.09.037zm0-.35a.215.215 0 01.205.197.217.217 0 01-.169.23.217.217 0 01-.192-.05.218.218 0 01.071-.36.215.215 0 01.085-.017zm.622.79a.125.125 0 00.093-.04.12.12 0 00.016-.158.132.132 0 00-.193-.025.123.123 0 00-.037.093.121.121 0 00.037.09.125.125 0 00.084.04zm5.537-.574v-.095a.451.451 0 00.171-.04.187.187 0 00.074-.135h.09v.905h-.12v-.65l-.215.015zm.638.643a.531.531 0 01.048-.203.387.387 0 01.165-.158l.12-.072a.499.499 0 00.115-.08.168.168 0 00.054-.12.175.175 0 00-.047-.126.181.181 0 00-.128-.048.164.164 0 00-.162.09.299.299 0 00-.026.13h-.117a.415.415 0 01.043-.192.273.273 0 01.262-.132.29.29 0 01.23.084.283.283 0 01.051.29.256.256 0 01-.058.085.662.662 0 01-.158.108l-.087.05a.47.47 0 00-.097.065.234.234 0 00-.08.121h.495v.108h-.623zm1.566-.441a.216.216 0 11-.007.432.216.216 0 01.007-.432zm-.093-.464h.08l-.508.929h-.07l.498-.928zm-.53.384a.132.132 0 00.122-.182.125.125 0 00-.029-.041.128.128 0 00-.093-.04.129.129 0 00-.12.081.127.127 0 00-.01.05.132.132 0 00.08.122c.016.007.033.01.05.01zm0-.353a.216.216 0 01.2.3.217.217 0 01-.048.072.214.214 0 01-.24.049.215.215 0 01-.072-.049.215.215 0 01-.065-.156.216.216 0 01.216-.216h.01zm.623.79a.124.124 0 00.09-.037.126.126 0 00.04-.093.12.12 0 00-.04-.091.126.126 0 00-.09-.039.125.125 0 00-.093.039.12.12 0 00-.039.09.126.126 0 00.039.094.123.123 0 00.093.032v.005zm6.921-.094a.153.153 0 00.074.132c.023.013.05.019.077.018a.172.172 0 00.139-.067.55.55 0 00.082-.278.192.192 0 01-.093.085.289.289 0 01-.121.026.274.274 0 01-.216-.082.304.304 0 01-.076-.217.327.327 0 01.076-.216.267.267 0 01.216-.096.275.275 0 01.275.18c.03.079.044.163.04.247.003.1-.014.2-.05.294a.288.288 0 01-.28.217.263.263 0 01-.201-.07.23.23 0 01-.07-.175l.128.002zm.173-.186a.188.188 0 00.123-.045.18.18 0 00.057-.156.205.205 0 00-.05-.15.175.175 0 00-.128-.047.17.17 0 00-.134.054.227.227 0 00-.05.151c-.002.051.013.1.044.141a.174.174 0 00.138.052zm.487.275h.134v.138h-.134v-.138zm.928-.762v.1a1.686 1.686 0 00-.326.59 2.51 2.51 0 00-.049.204h-.127c.055-.288.184-.556.374-.78h-.502v-.114h.63zm.928.453a.216.216 0 110 .432.216.216 0 010-.432zm-.091-.463h.069l-.506.928h-.072l.509-.928zm-.53.374a.137.137 0 00.093-.036.137.137 0 000-.187.136.136 0 00-.186 0 .13.13 0 00-.03.144.131.131 0 00.123.08zm0-.35a.216.216 0 11-.003.433.216.216 0 01.003-.433zm.62.79a.125.125 0 00.093-.04.127.127 0 00.04-.09.132.132 0 00-.182-.122.121.121 0 00-.041.029.126.126 0 00-.04.093.125.125 0 00.04.09.12.12 0 00.09.04zm6.236-.927a.249.249 0 01.216.078c.038.046.06.103.06.162h-.112a.216.216 0 00-.032-.084.147.147 0 00-.126-.056.173.173 0 00-.15.088.518.518 0 00-.064.253.24.24 0 01.1-.086.301.301 0 01.32.048.272.272 0 01.084.216c0 .08-.028.156-.08.216a.286.286 0 01-.229.096.296.296 0 01-.216-.098.47.47 0 01-.093-.324.866.866 0 01.043-.288.29.29 0 01.28-.221zm0 .833a.157.157 0 00.134-.06.234.234 0 00.046-.143.256.256 0 00-.041-.134.16.16 0 00-.145-.063.19.19 0 00-.13.05.187.187 0 00-.054.147.217.217 0 00.05.145.178.178 0 00.131.058h.01zm.452-.06h.132v.138h-.132v-.139zm.63-.773a.254.254 0 01.216.078.273.273 0 01.058.162h-.112a.217.217 0 00-.033-.084.14.14 0 00-.123-.057.177.177 0 00-.154.089.517.517 0 00-.062.253.253.253 0 01.22-.112.3.3 0 01.2.073.27.27 0 01.086.217.338.338 0 01-.082.216.283.283 0 01-.23.095.289.289 0 01-.216-.097.459.459 0 01-.093-.325.862.862 0 01.041-.288.29.29 0 01.284-.22zm0 .833a.153.153 0 00.134-.06.234.234 0 00.045-.144.238.238 0 00-.041-.134.158.158 0 00-.145-.062.19.19 0 00-.128.05.189.189 0 00-.056.147.216.216 0 00.05.145.177.177 0 00.132.058h.008zm1.225-.363a.216.216 0 11-.002.431.216.216 0 01.002-.431zm-.09-.463h.069l-.508.928h-.07l.509-.928zm-.532.376a.132.132 0 00.122-.181.12.12 0 00-.03-.042.126.126 0 00-.092-.039.132.132 0 00-.12.08.13.13 0 00.029.143.126.126 0 00.09.04zm0-.353a.217.217 0 11-.003.433.217.217 0 01.003-.433zm.623.79a.132.132 0 00.093-.216.137.137 0 00-.187 0 .13.13 0 000 .186c.026.022.06.032.094.03zm6.16-.828a.244.244 0 01.216.08c.038.045.06.102.06.162h-.112a.19.19 0 00-.033-.084.145.145 0 00-.125-.059.174.174 0 00-.152.089.523.523 0 00-.062.253.216.216 0 01.1-.084.3.3 0 01.32.045.275.275 0 01.084.216.33.33 0 01-.08.217.279.279 0 01-.23.095.305.305 0 01-.216-.095.472.472 0 01-.093-.327.866.866 0 01.043-.288.293.293 0 01.28-.22zm0 .833a.155.155 0 00.133-.06.216.216 0 00.044-.144.247.247 0 00-.04-.132.16.16 0 00-.144-.063.188.188 0 00-.13.048.186.186 0 00-.054.147.217.217 0 00.05.145.177.177 0 00.134.059h.006zm.453-.059h.132v.136h-.132v-.136zm.63-.775a.248.248 0 01.216.08.266.266 0 01.058.163h-.112a.19.19 0 00-.033-.085.138.138 0 00-.123-.058.178.178 0 00-.153.088.524.524 0 00-.063.254.247.247 0 01.1-.085.283.283 0 01.12-.026.297.297 0 01.2.072.276.276 0 01.086.216c0 .08-.03.157-.082.217a.278.278 0 01-.23.095.293.293 0 01-.216-.095.462.462 0 01-.093-.327.867.867 0 01.041-.288.291.291 0 01.284-.22zm0 .833a.152.152 0 00.134-.06.217.217 0 00.045-.143.246.246 0 00-.039-.132.164.164 0 00-.147-.063.18.18 0 00-.136.056.177.177 0 00-.048.139.217.217 0 00.05.145.177.177 0 00.132.058h.009zm1.226-.36a.216.216 0 01.216.216.215.215 0 01-.065.158.216.216 0 01-.311 0 .216.216 0 010-.314.214.214 0 01.16-.06zm-.093-.464h.071l-.508.929h-.07l.507-.929zm-.53.375a.125.125 0 00.093-.04.12.12 0 00.039-.09.13.13 0 00-.081-.122.13.13 0 00-.1 0 .126.126 0 00-.042.029.124.124 0 00-.039.093.12.12 0 00.04.09.126.126 0 00.09.04zm0-.351a.215.215 0 01.158.065.216.216 0 01-.157.365.216.216 0 01-.157-.365.203.203 0 01.156-.07v.005zm.623.79a.125.125 0 00.093-.04.132.132 0 00.037-.092.132.132 0 00-.08-.12.13.13 0 00-.143.029.126.126 0 00-.039.09.132.132 0 00.132.133zm-37.693 8.06v-.087a.464.464 0 00.173-.041.19.19 0 00.072-.133h.09v.905h-.12v-.65l-.215.005zm.722 0v-.087a.454.454 0 00.171-.041.191.191 0 00.074-.133h.1v.905h-.124v-.65l-.22.005zm.708.505h.132v.139h-.132v-.139zm.374-.506v-.086a.464.464 0 00.173-.041.19.19 0 00.071-.133h.1v.905h-.121v-.65l-.223.005zm1.481.204a.217.217 0 01.156.062.216.216 0 01-.036.331.216.216 0 01-.332-.22.216.216 0 01.057-.11.216.216 0 01.155-.063zm-.09-.463h.069l-.506.928h-.072l.509-.928zm-.53.374a.13.13 0 00.13-.13.132.132 0 00-.08-.122.132.132 0 00-.173.172c.007.015.017.03.03.04a.125.125 0 00.093.04zm0-.35a.216.216 0 11-.085.416.218.218 0 01-.071-.049.216.216 0 010-.312.218.218 0 01.156-.056zm.62.79a.125.125 0 00.093-.04.126.126 0 00.04-.09.132.132 0 00-.226-.094.123.123 0 00-.036.093.124.124 0 00.036.091.13.13 0 00.093.04zm6.086-.007a.142.142 0 00.072.13.173.173 0 00.219-.05.54.54 0 00.081-.275.23.23 0 01-.093.085.325.325 0 01-.12.023.267.267 0 01-.277-.182.293.293 0 01-.016-.116.341.341 0 01.074-.217.305.305 0 01.497.087.62.62 0 01.041.245.835.835 0 01-.05.296.29.29 0 01-.28.216.281.281 0 01-.204-.069.245.245 0 01-.07-.175l.126.002zm.173-.186a.188.188 0 00.124-.045.194.194 0 00.056-.156.203.203 0 00-.05-.15.184.184 0 00-.13-.05.172.172 0 00-.132.057.216.216 0 00-.05.15c-.002.05.013.1.044.14a.166.166 0 00.138.054zm.487.265h.132v.139h-.132v-.139zm.928-.753v.1a1.141 1.141 0 00-.117.147 1.447 1.447 0 00-.21.433 2.455 2.455 0 00-.047.201h-.128a1.692 1.692 0 01.372-.777h-.5v-.114l.63.01zm.921.45a.216.216 0 11-.002.433.216.216 0 01.002-.432zm-.09-.463h.069l-.507.929h-.07l.507-.928zm-.526.375a.124.124 0 00.093-.039.127.127 0 000-.184.124.124 0 00-.093-.039.125.125 0 00-.091.039.122.122 0 00-.039.09.126.126 0 00.039.094.125.125 0 00.09.039zm0-.353a.216.216 0 01.2.301.215.215 0 01-.049.071.215.215 0 01-.313 0 .202.202 0 01-.063-.155.216.216 0 01.216-.217h.009zm.616.786a.131.131 0 00.122-.182.12.12 0 00-.029-.041.13.13 0 00-.186 0 .117.117 0 00-.037.09.124.124 0 00.037.094.125.125 0 00.093.039zm6.947-.836v.1a1.428 1.428 0 00-.244.374 1.3 1.3 0 00-.083.217 2.44 2.44 0 00-.047.2h-.128c.032-.181.097-.357.19-.516.053-.092.114-.179.182-.26h-.502v-.115h.632zm.154.754h.134v.138h-.134v-.138zm.292.138a.53.53 0 01.047-.203.387.387 0 01.165-.158l.12-.072a.5.5 0 00.115-.08.167.167 0 00.052-.12.165.165 0 00-.047-.126.17.17 0 00-.126-.046.164.164 0 00-.162.089.27.27 0 00-.026.13h-.117a.416.416 0 01.044-.193.278.278 0 01.261-.132.28.28 0 01.227.085.277.277 0 01.054.289.254.254 0 01-.058.085.66.66 0 01-.158.108l-.086.05a.435.435 0 00-.1.065.243.243 0 00-.078.121h.496v.108h-.623zm1.566-.441a.217.217 0 11-.007.433.217.217 0 01.007-.433zm-.093-.463h.071l-.502.928h-.071l.502-.928zm-.53.376a.125.125 0 00.093-.039.125.125 0 00.037-.093.124.124 0 00-.037-.09.13.13 0 00-.144-.03.13.13 0 00-.042.03.122.122 0 00-.04.09.132.132 0 00.133.132zm0-.352a.216.216 0 11-.003.432.216.216 0 01.003-.432zm.623.792a.125.125 0 00.09-.04.125.125 0 00.04-.092.122.122 0 00-.04-.091.126.126 0 00-.09-.04.126.126 0 00-.093.04.12.12 0 00-.04.09.133.133 0 00.133.133zm6.523-.756v.102a.994.994 0 00-.115.147 1.523 1.523 0 00-.212.443c-.013.044-.028.11-.048.204h-.127a1.69 1.69 0 01.374-.78h-.502v-.114l.63-.002zm.155.756h.132v.138h-.132v-.139zm.368-.505v-.088a.417.417 0 00.173-.04.216.216 0 00.073-.133h.089v.904h-.119v-.649l-.216.006zm1.488.202a.216.216 0 11-.007.432.216.216 0 01.007-.432zm-.093-.463h.071l-.508.928h-.07l.507-.928zm-.53.376a.132.132 0 00.122-.181.127.127 0 00-.03-.042.13.13 0 00-.143-.029.13.13 0 00-.042.03.117.117 0 00-.037.09.124.124 0 00.037.093.125.125 0 00.093.04zm0-.353a.216.216 0 11-.003.433.216.216 0 01.003-.433zm.623.79a.122.122 0 00.09-.037.129.129 0 00.03-.143.131.131 0 00-.12-.08.132.132 0 00-.122.08.128.128 0 000 .101.13.13 0 00.122.08zM56.173 65.854v-.087a.453.453 0 00.17-.04.19.19 0 00.074-.133h.09v.905h-.122v-.65l-.212.005zm.638.645a.533.533 0 01.047-.205.387.387 0 01.165-.158l.12-.07a.49.49 0 00.115-.082.167.167 0 00.052-.119.169.169 0 00-.047-.127.171.171 0 00-.126-.046.165.165 0 00-.162.089.274.274 0 00-.026.132h-.116a.393.393 0 01.043-.195.277.277 0 01.261-.132.29.29 0 01.227.085.277.277 0 01.055.29.25.25 0 01-.059.084.724.724 0 01-.158.11l-.086.048a.504.504 0 00-.097.065.232.232 0 00-.08.123h.497v.108h-.625zm.791-.14h.132v.138h-.132v-.138zm.29.14a.53.53 0 01.048-.205.393.393 0 01.166-.158l.121-.07a.546.546 0 00.115-.082.166.166 0 00.052-.119.168.168 0 00-.048-.127.177.177 0 00-.127-.046.164.164 0 00-.163.089.338.338 0 00-.025.132h-.117a.411.411 0 01.045-.195.272.272 0 01.26-.132.29.29 0 01.229.085.284.284 0 01.053.289.256.256 0 01-.057.085.814.814 0 01-.16.11l-.087.048a.58.58 0 00-.097.065.23.23 0 00-.08.123h.497v.108h-.625zm1.566-.442a.216.216 0 01.156.063.216.216 0 010 .314.216.216 0 01-.312 0 .217.217 0 010-.314.216.216 0 01.156-.063zm-.093-.463h.071l-.508.929h-.07l.507-.929zm-.53.375a.126.126 0 00.093-.04.121.121 0 00.039-.09.133.133 0 00-.132-.132.125.125 0 00-.09.039.127.127 0 00-.03.142c.007.016.017.03.03.042a.125.125 0 00.09.039zm0-.35a.215.215 0 01.158.064.216.216 0 11-.243-.05.202.202 0 01.085-.015zm.623.789a.125.125 0 00.093-.039.132.132 0 00-.043-.213.13.13 0 00-.143.03.126.126 0 00-.04.09.132.132 0 00.133.132zm-3.262-9.275v-.08a.464.464 0 00.173-.042.195.195 0 00.072-.132h.09v.903h-.12v-.65h-.215zm.638.642a.53.53 0 01.048-.203.4.4 0 01.164-.158l.124-.072a.552.552 0 00.114-.08.167.167 0 00.052-.12.16.16 0 00-.175-.172.164.164 0 00-.162.089.336.336 0 00-.026.132h-.117c0-.068.014-.134.043-.195a.275.275 0 01.262-.132.27.27 0 01.279.16.268.268 0 01.022.113.258.258 0 01-.076.186.736.736 0 01-.16.108l-.087.05a.475.475 0 00-.097.065.233.233 0 00-.08.121h.495v.108h-.623zm.792-.139h.132v.139h-.132v-.139zm.29.139c.003-.07.02-.14.05-.203a.387.387 0 01.164-.159l.12-.07a.553.553 0 00.115-.081.177.177 0 000-.247.175.175 0 00-.125-.045.16.16 0 00-.162.089.299.299 0 00-.028.132h-.115a.393.393 0 01.043-.195.273.273 0 01.262-.132.267.267 0 01.299.273.248.248 0 01-.076.186.686.686 0 01-.16.108l-.087.05a.47.47 0 00-.097.064.248.248 0 00-.08.122h.495v.108h-.618zm1.566-.441a.216.216 0 11-.003.432.216.216 0 01.003-.432zm-.091-.461h.069l-.51.926h-.072l.513-.926zm-.53.374a.129.129 0 00.13-.13.13.13 0 00-.13-.132.125.125 0 00-.093.04.125.125 0 00-.04.093.125.125 0 00.04.09.125.125 0 00.093.04zm0-.352a.216.216 0 01.156.378.218.218 0 01-.312 0 .217.217 0 010-.313.217.217 0 01.156-.065zm.62.792a.132.132 0 00.122-.182.126.126 0 00-.028-.041.126.126 0 00-.093-.04.13.13 0 00-.093.04.132.132 0 00.043.213.13.13 0 00.05.01zm14.186-.448v-.087a.464.464 0 00.173-.041.2.2 0 00.074-.132h.089v.902h-.13v-.649l-.206.007zm.639.642a.51.51 0 01.05-.203.388.388 0 01.164-.158l.12-.07a.54.54 0 00.115-.082.166.166 0 00.052-.119.17.17 0 00-.047-.127.175.175 0 00-.126-.046.16.16 0 00-.162.089.308.308 0 00-.028.132h-.115a.393.393 0 01.044-.195.277.277 0 01.261-.132.285.285 0 01.227.087c.047.05.072.117.072.186a.247.247 0 01-.076.186.779.779 0 01-.158.11l-.088.048a.753.753 0 00-.098.065.244.244 0 00-.08.123h.495v.106h-.622zm.793-.136h.132v.137H75.1v-.137zm.288.136a.53.53 0 01.047-.203.388.388 0 01.165-.158l.121-.07a.495.495 0 00.115-.082.168.168 0 00.054-.119.178.178 0 00-.048-.127.182.182 0 00-.127-.046.164.164 0 00-.163.089.31.31 0 00-.026.132h-.117a.418.418 0 01.044-.195.278.278 0 01.261-.132.289.289 0 01.23.087.275.275 0 01.052.287.247.247 0 01-.059.085.72.72 0 01-.158.11l-.086.048a.747.747 0 00-.097.065.232.232 0 00-.08.123h.495v.106h-.623zm1.568-.44a.217.217 0 01.156.066.216.216 0 01.064.156.216.216 0 11-.416-.085.217.217 0 01.196-.136zm-.093-.462h.071l-.508.939h-.07l.507-.94zm-.53.374a.124.124 0 00.093-.039.121.121 0 00.039-.09.133.133 0 00-.15-.123.131.131 0 00-.066.03.131.131 0 00-.037.092.127.127 0 00.037.091.126.126 0 00.084.04zm0-.35a.216.216 0 11-.002.432.216.216 0 01.002-.432zm.623.79a.134.134 0 00.13-.13.126.126 0 00-.04-.093.126.126 0 00-.09-.04.132.132 0 00-.122.182c.007.016.017.03.029.041a.125.125 0 00.093.04zm-11.4 8.052v-.087a.45.45 0 00.17-.04.19.19 0 00.074-.135h.091v.905h-.123v-.65l-.212.007zm.72 0v-.087a.464.464 0 00.173-.04.2.2 0 00.073-.135h.09v.905h-.122v-.65l-.214.007zm1.484.201a.216.216 0 11-.007.433.216.216 0 01.007-.433zm-.093-.463h.071l-.508.929h-.06l.497-.929zm-.53.377a.125.125 0 00.093-.04.125.125 0 00.039-.09.132.132 0 00-.217-.093.12.12 0 00-.036.093.124.124 0 00.036.09.125.125 0 00.085.04zm0-.353a.216.216 0 11-.003.432.216.216 0 01.003-.432zm.623.792a.126.126 0 00.09-.039.127.127 0 00.04-.093.134.134 0 00-.13-.13.125.125 0 00-.093.04.125.125 0 00-.04.09.132.132 0 00.133.132zm-2.232-9.22v-.09a.46.46 0 00.17-.038.192.192 0 00.074-.135h.1v.905h-.121v-.65l-.223.007zm.72 0v-.09a.462.462 0 00.173-.038.216.216 0 00.073-.135h.091v.905h-.123v-.65l-.214.007zm1.484.2a.216.216 0 110 .434.218.218 0 01-.158-.066.214.214 0 01-.05-.24.216.216 0 01.05-.071.218.218 0 01.158-.056zm-.093-.462h.07l-.507.928h-.07l.507-.928zm-.53.376a.13.13 0 00.093-.039.131.131 0 00.039-.093.118.118 0 00-.04-.09.125.125 0 00-.092-.04.124.124 0 00-.091.037.13.13 0 000 .186.116.116 0 00.09.04zm0-.353a.216.216 0 110 .433.216.216 0 010-.433zm.623.79a.134.134 0 00.13-.13.125.125 0 00-.04-.093.12.12 0 00-.09-.039.132.132 0 00-.123.182c.007.016.017.03.03.041a.125.125 0 00.093.04zM56.22 74.477v-.087a.464.464 0 00.172-.041.217.217 0 00.074-.134h.089v.904h-.122v-.649l-.214.007zm.637.642a.53.53 0 01.048-.204.393.393 0 01.166-.158l.121-.07a.559.559 0 00.115-.081.166.166 0 00.052-.121.166.166 0 00-.048-.126.177.177 0 00-.127-.045.166.166 0 00-.163.086.36.36 0 00-.026.132h-.116c0-.066.015-.133.045-.192a.27.27 0 01.262-.132.267.267 0 01.298.273.261.261 0 01-.075.186.738.738 0 01-.16.108l-.087.05a.47.47 0 00-.097.064.234.234 0 00-.08.122h.495v.108h-.623zm.794-.138h.134v.138h-.134v-.138zm.409-.094a.159.159 0 00.09.137c.03.011.062.017.094.017a.183.183 0 00.151-.063.234.234 0 00.048-.145.187.187 0 00-.059-.147.2.2 0 00-.138-.052.216.216 0 00-.102.024.215.215 0 00-.071.063h-.1l.07-.487h.473v.11h-.385l-.047.238a.37.37 0 01.06-.037.312.312 0 01.117-.02.3.3 0 01.216.08.263.263 0 01.087.204.35.35 0 01-.08.217.305.305 0 01-.253.1.333.333 0 01-.197-.064.248.248 0 01-.095-.192l.12.017zm1.445-.21a.217.217 0 01.157.066.217.217 0 010 .311.216.216 0 11-.157-.376zm-.091-.462h.071l-.508.928h-.072l.509-.928zm-.53.367a.129.129 0 00.093-.038.133.133 0 00-.043-.213.13.13 0 00-.143.029.12.12 0 00-.04.09.13.13 0 00.04.094.133.133 0 00.093.038zm0-.352a.215.215 0 01.224.265.217.217 0 01-.068.114.218.218 0 01-.24.049.217.217 0 01-.072-.05.217.217 0 01.156-.378zm.62.792a.133.133 0 00.122-.082.132.132 0 000-.1.122.122 0 00-.028-.041.127.127 0 00-.093-.039.13.13 0 00-.12.08.127.127 0 00-.01.05c0 .034.013.068.037.093a.13.13 0 00.093.047v-.008z" clip-rule="evenodd"/><path fill="#fff" fill-rule="evenodd" d="M49.154 48.526v-.087a.464.464 0 00.173-.041.192.192 0 00.072-.134h.09v.904h-.12v-.649l-.215.007zm.95-.265a.264.264 0 01.253.145.648.648 0 01.06.307.733.733 0 01-.053.306.27.27 0 01-.262.175.26.26 0 01-.236-.15.65.65 0 01-.067-.318.75.75 0 01.041-.266.273.273 0 01.264-.199zm0 .829a.16.16 0 00.14-.08.546.546 0 00.055-.292.713.713 0 00-.04-.256.145.145 0 00-.146-.1.154.154 0 00-.147.096.631.631 0 00-.048.28.693.693 0 00.03.216.162.162 0 00.154.136h.002zm.72-.829a.266.266 0 01.255.145.649.649 0 01.06.307.733.733 0 01-.053.306.27.27 0 01-.262.175.264.264 0 01-.244-.143.664.664 0 01-.065-.318.804.804 0 01.039-.266.275.275 0 01.27-.206zm0 .829a.16.16 0 00.14-.08.572.572 0 00.053-.292.716.716 0 00-.037-.256.149.149 0 00-.15-.1.156.156 0 00-.146.096.667.667 0 00-.046.28.637.637 0 00.03.216.162.162 0 00.156.136zm1.257-.363a.216.216 0 01.15.372.217.217 0 01-.313 0 .215.215 0 01-.065-.156.216.216 0 01.217-.216h.01zm-.094-.463h.072l-.508.928h-.072l.508-.928zm-.53.376a.126.126 0 00.094-.039.125.125 0 00.039-.09.132.132 0 00-.217-.094.13.13 0 00-.036.093c0 .034.013.067.036.091a.125.125 0 00.085.04zm0-.352a.216.216 0 11-.002.432.216.216 0 01.003-.432zm.623.792a.122.122 0 00.091-.04.125.125 0 00.04-.093.135.135 0 00-.13-.13.125.125 0 00-.094.04.12.12 0 00-.038.09.13.13 0 00.081.122c.016.007.033.01.05.01zm-2.967 8.085v-.087a.464.464 0 00.173-.041.194.194 0 00.072-.134h.09v.904h-.12v-.649l-.215.007zm.948-.264a.267.267 0 01.255.145.65.65 0 01.06.308.734.734 0 01-.053.305.27.27 0 01-.262.175.26.26 0 01-.242-.143.65.65 0 01-.068-.318.805.805 0 01.04-.266.273.273 0 01.27-.206zm0 .827a.163.163 0 00.14-.078.568.568 0 00.054-.292.713.713 0 00-.038-.255.145.145 0 00-.148-.1.153.153 0 00-.147.095.63.63 0 00-.047.28.687.687 0 00.03.216.16.16 0 00.156.134zm.722-.827a.267.267 0 01.255.145.65.65 0 01.06.308.733.733 0 01-.053.305.27.27 0 01-.262.175.261.261 0 01-.244-.143.669.669 0 01-.065-.318.805.805 0 01.039-.266.273.273 0 01.27-.206zm0 .827a.164.164 0 00.14-.078.571.571 0 00.052-.292.768.768 0 00-.036-.255.145.145 0 00-.15-.1.155.155 0 00-.147.095.665.665 0 00-.045.28.635.635 0 00.03.216.16.16 0 00.156.134zm1.256-.362a.216.216 0 11-.007.432.216.216 0 01.007-.432zm-.093-.463h.082l-.508.928h-.071l.497-.928zm-.53.376a.125.125 0 00.093-.039.122.122 0 00.037-.09.124.124 0 00-.037-.093.13.13 0 00-.222.093.122.122 0 00.036.09.126.126 0 00.093.04zm0-.352a.216.216 0 01.156.378.217.217 0 01-.311 0 .217.217 0 01.155-.378zm.623.792a.125.125 0 00.091-.04.126.126 0 00.039-.092.121.121 0 00-.039-.091.126.126 0 00-.09-.04.122.122 0 00-.094.04.122.122 0 00-.039.09.125.125 0 00.04.094.123.123 0 00.092.039zm-2.867 8.166v-.087a.452.452 0 00.173-.041.199.199 0 00.073-.132h.089v.903h-.121v-.65l-.214.007zm.95-.265a.268.268 0 01.254.145.65.65 0 01.06.308.75.75 0 01-.055.307.269.269 0 01-.26.173.262.262 0 01-.244-.143.649.649 0 01-.067-.318.81.81 0 01.04-.266.275.275 0 01.271-.206zm0 .829a.16.16 0 00.142-.08.57.57 0 00.052-.292.692.692 0 00-.04-.253.143.143 0 00-.146-.102.153.153 0 00-.147.095.667.667 0 00-.046.28.695.695 0 00.028.216.162.162 0 00.154.136h.002zm.721-.828a.27.27 0 01.256.145.673.673 0 01.06.307.749.749 0 01-.056.307.27.27 0 01-.262.174.262.262 0 01-.242-.143.632.632 0 01-.067-.318.753.753 0 01.041-.267.273.273 0 01.27-.205zm0 .829a.16.16 0 00.141-.08.546.546 0 00.054-.293.695.695 0 00-.039-.253.145.145 0 00-.147-.102.154.154 0 00-.147.096.631.631 0 00-.048.279.692.692 0 00.03.216.162.162 0 00.154.137h.002zm1.255-.362a.216.216 0 01.156.063.217.217 0 010 .314.217.217 0 01-.312 0 .217.217 0 01.156-.377zm-.091-.463h.07l-.509.928h-.07l.509-.928zm-.532.374a.124.124 0 00.093-.038.122.122 0 00.039-.091.126.126 0 00-.039-.094.123.123 0 00-.093-.038.125.125 0 00-.09.038.127.127 0 00-.04.094.121.121 0 00.04.09.125.125 0 00.09.04zm0-.35a.216.216 0 11-.002.432.216.216 0 01.002-.432zm.623.79a.125.125 0 00.093-.04.133.133 0 000-.184.132.132 0 00-.216.094.125.125 0 00.038.09.125.125 0 00.085.04zm-2.965 8.072v-.087a.508.508 0 00.17-.039.202.202 0 00.074-.134h.09v.905h-.12v-.65l-.214.005zm.95-.264a.266.266 0 01.254.145.649.649 0 01.06.307.75.75 0 01-.053.307.272.272 0 01-.262.174.264.264 0 01-.244-.143.649.649 0 01-.065-.319.796.796 0 01.039-.264.275.275 0 01.27-.207zm0 .829a.163.163 0 00.14-.078.587.587 0 00.052-.295.705.705 0 00-.037-.253.148.148 0 00-.147-.102.159.159 0 00-.15.096.68.68 0 00-.045.279.637.637 0 00.03.216.162.162 0 00.156.137zm.72-.83a.268.268 0 01.255.146.65.65 0 01.06.307.749.749 0 01-.056.307.268.268 0 01-.26.173.263.263 0 01-.244-.142.65.65 0 01-.067-.319.794.794 0 01.041-.264.274.274 0 01.27-.207zm0 .83a.162.162 0 00.142-.078.587.587 0 00.052-.295.758.758 0 00-.036-.253.148.148 0 00-.15-.102.156.156 0 00-.147.096.678.678 0 00-.045.279.699.699 0 00.028.216.162.162 0 00.154.137h.002zm1.254-.362a.218.218 0 11-.149.374.216.216 0 01.002-.309.217.217 0 01.147-.065zm-.091-.463h.063l-.507.928h-.07l.514-.928zm-.53.374a.136.136 0 00.093-.036.137.137 0 000-.186.128.128 0 00-.093-.037.124.124 0 00-.093.037.13.13 0 000 .186.132.132 0 00.093.036zm0-.35a.216.216 0 11-.002.432.216.216 0 01.002-.432zm.62.79a.126.126 0 00.094-.04.127.127 0 00.039-.09.132.132 0 00-.183-.122.13.13 0 00-.08.122.131.131 0 00.13.13z" clip-rule="evenodd"/><path fill="#35416B" fill-rule="evenodd" d="M64.73 30.907v.608h.18a.192.192 0 00.193-.137.563.563 0 00-.013-.398.19.19 0 00-.18-.076l-.18.003zm.358-.143c.065.02.121.062.16.119a.432.432 0 01.067.151c.01.05.016.102.017.154a.62.62 0 01-.076.316.335.335 0 01-.313.175h-.4v-.935h.4a.458.458 0 01.145.02zm.757.578a.132.132 0 01-.035.017l-.047.013h-.041a.319.319 0 00-.083.024.086.086 0 00-.04.078.075.075 0 00.025.065.09.09 0 00.063.021.173.173 0 00.106-.034.14.14 0 00.052-.126v-.058zm-.11-.084a.26.26 0 00.07-.016.052.052 0 00.04-.052.06.06 0 00-.028-.058.188.188 0 00-.087-.015.116.116 0 00-.09.03.136.136 0 00-.027.065h-.175a.25.25 0 01.05-.15.297.297 0 01.246-.09.458.458 0 01.202.043.177.177 0 01.088.171v.396a.113.113 0 000 .05.058.058 0 00.026.02v.028h-.18a.18.18 0 01-.012-.041v-.042a.34.34 0 01-.087.07.266.266 0 01-.132.034.229.229 0 01-.153-.054.191.191 0 01-.063-.151.197.197 0 01.1-.186.453.453 0 01.157-.044l.054-.008zm.48.554h.021a.137.137 0 00.052 0 .075.075 0 00.039-.013.087.087 0 00.03-.046c0-.024.013-.037.011-.04l-.253-.724h.201l.151.511.141-.51h.193l-.236.679a.96.96 0 01-.11.244.197.197 0 01-.158.048h-.083v-.15zm1.325-.258a.101.101 0 00.106-.084.867.867 0 00.026-.243.843.843 0 00-.026-.244.102.102 0 00-.106-.08.104.104 0 00-.106.08.84.84 0 00-.026.244.864.864 0 00.026.242.106.106 0 00.106.085zm.318-.327a.709.709 0 01-.071.35.26.26 0 01-.247.124.255.255 0 01-.244-.123.897.897 0 010-.701.256.256 0 01.244-.124.26.26 0 01.247.124c.053.108.078.23.071.35zm.13.27a.517.517 0 01.184-.194 1.2 1.2 0 00.16-.128.186.186 0 00.056-.132.148.148 0 00-.032-.097.13.13 0 00-.203.024.27.27 0 00-.022.112h-.175c0-.066.015-.13.043-.19a.266.266 0 01.257-.136.324.324 0 01.232.08.286.286 0 01.086.216c0 .066-.022.13-.062.182a.6.6 0 01-.13.117l-.074.052a.835.835 0 00-.09.069.187.187 0 00-.044.05h.402v.16h-.629a.43.43 0 01.041-.184zm5.565-.614v.61h.18a.193.193 0 00.192-.136.498.498 0 00.03-.18.433.433 0 00-.045-.216.187.187 0 00-.177-.076l-.18-.002zm.357-.143c.065.02.121.063.16.12a.393.393 0 01.065.15.739.739 0 01.02.154.624.624 0 01-.076.316.335.335 0 01-.314.176h-.402v-.935h.402a.46.46 0 01.145.02zm.757.578a.129.129 0 01-.035.018l-.048.013h-.04a.25.25 0 00-.083.023.085.085 0 00-.041.076.077.077 0 00.026.067.09.09 0 00.063.022.173.173 0 00.106-.035.138.138 0 00.052-.125v-.059zm-.11-.084a.256.256 0 00.07-.015.054.054 0 00.039-.052.06.06 0 00-.028-.058.187.187 0 00-.086-.016.116.116 0 00-.09.03.136.136 0 00-.027.065h-.173c0-.053.018-.106.05-.149a.297.297 0 01.246-.09.458.458 0 01.202.042.176.176 0 01.088.172v.395c0 .018.004.035.011.05a.083.083 0 00.026.02v.028h-.195a.178.178 0 01-.013-.041v-.041a.383.383 0 01-.086.069.266.266 0 01-.132.032.216.216 0 01-.154-.052.19.19 0 01-.062-.151.197.197 0 01.1-.186.453.453 0 01.157-.044l.056-.008zm.48.553h.071a.152.152 0 00.041-.015.112.112 0 00.022-.04c0-.025.013-.038 0-.042l-.253-.723h.2l.15.511.143-.51h.192l-.216.674a.891.891 0 01-.11.245.216.216 0 01-.158.048h-.082v-.147zm1.325-.257a.104.104 0 00.106-.084c.02-.08.029-.16.026-.243a.843.843 0 00-.026-.244.101.101 0 00-.106-.08.104.104 0 00-.106.08.84.84 0 00-.026.244.865.865 0 00.026.243.106.106 0 00.106.084zm.318-.327a.708.708 0 01-.071.351.262.262 0 01-.247.123.254.254 0 01-.244-.123.897.897 0 010-.701.256.256 0 01.244-.123.262.262 0 01.247.123c.055.108.08.229.075.35h-.004zm.26.17a.19.19 0 00.017.09.12.12 0 00.119.067.124.124 0 00.093-.037.134.134 0 00.039-.103.117.117 0 00-.074-.122.371.371 0 00-.13-.017v-.13a.303.303 0 00.122-.017.102.102 0 00.06-.106.124.124 0 00-.03-.087.118.118 0 00-.087-.032.109.109 0 00-.093.039.173.173 0 00-.03.108h-.168a.512.512 0 01.023-.13.361.361 0 01.07-.1.23.23 0 01.084-.047.332.332 0 01.121-.017.32.32 0 01.216.067.218.218 0 01.08.184.197.197 0 01-.11.184.129.129 0 01.071.043.216.216 0 01.067.173.293.293 0 01-.08.206.31.31 0 01-.237.088.292.292 0 01-.273-.127.376.376 0 01-.043-.178h.173zM82 30.94v.61h.182a.194.194 0 00.193-.136.484.484 0 00.03-.177.434.434 0 00-.045-.217.19.19 0 00-.178-.076l-.181-.004zm.36-.14c.064.02.12.061.157.116a.414.414 0 01.068.152c.01.05.016.102.017.154a.622.622 0 01-.074.315.34.34 0 01-.313.176h-.403v-.935h.403c.049 0 .097.008.145.021zm.755.578l-.033.017-.047.013h-.041a.274.274 0 00-.083.024.084.084 0 00-.04.078.09.09 0 00.023.067c.018.013.04.02.063.02a.191.191 0 00.108-.033.146.146 0 00.05-.125v-.061zm-.108-.084a.278.278 0 00.07-.018.054.054 0 00.04-.05.06.06 0 00-.03-.058.18.18 0 00-.087-.017.112.112 0 00-.09.032.152.152 0 00-.025.063h-.175a.27.27 0 01.052-.15.292.292 0 01.245-.09.433.433 0 01.2.045.173.173 0 01.09.17v.397a.08.08 0 00.01.048.05.05 0 00.026.021v.027h-.197a.254.254 0 010-.04.235.235 0 010-.04.373.373 0 01-.086.066.25.25 0 01-.132.035.216.216 0 01-.156-.054.189.189 0 01-.06-.151.197.197 0 01.097-.184.418.418 0 01.158-.046l.05-.006zm.477.551h.074a.079.079 0 00.04-.015.087.087 0 00.029-.045.067.067 0 000-.041l-.238-.721h.201l.152.508.142-.508h.193l-.238.68a.951.951 0 01-.108.242.201.201 0 01-.16.047h-.082l-.005-.147zm1.328-.256a.103.103 0 00.106-.084 1.27 1.27 0 000-.489.11.11 0 00-.216 0 1.165 1.165 0 000 .49.104.104 0 00.11.083zm.316-.326a.735.735 0 01-.069.35.31.31 0 01-.493 0 .707.707 0 01-.072-.35.717.717 0 01.072-.353.31.31 0 01.493 0c.049.11.07.232.06.353h.01zm.727.251h-.104v.197h-.178v-.197h-.363v-.158l.342-.556h.203v.573h.104l-.004.141zm-.282-.143v-.396l-.237.398.237-.002zm5.008-.374v.61h.179a.196.196 0 00.192-.136.49.49 0 00.03-.178.433.433 0 00-.045-.216.188.188 0 00-.177-.076l-.18-.004zm.356-.143c.065.022.12.064.16.119a.451.451 0 01.068.151.8.8 0 01.017.154.616.616 0 01-.076.316.335.335 0 01-.313.175h-.403v-.935h.403a.5.5 0 01.144.03v-.01zm.757.58l-.035.017a.196.196 0 01-.047.011h-.041a.319.319 0 00-.082.024.084.084 0 00-.041.078.084.084 0 00.026.067.1.1 0 00.062.02.173.173 0 00.106-.035.14.14 0 00.052-.124v-.058zm-.11-.084a.237.237 0 00.071-.018.064.064 0 00.028-.018.054.054 0 00.011-.032.065.065 0 00-.028-.06.216.216 0 00-.087-.015.11.11 0 00-.09.032.128.128 0 00-.026.063h-.175a.268.268 0 01.051-.15.297.297 0 01.247-.09.432.432 0 01.201.045.17.17 0 01.087.169v.398c0 .017.003.033.01.048a.087.087 0 00.026.021v.026h-.194a.205.205 0 01-.013-.039.24.24 0 010-.043.327.327 0 01-.087.07.243.243 0 01-.132.034.216.216 0 01-.155-.054.216.216 0 01.039-.335.405.405 0 01.157-.046l.059-.006zm.48.551h.074a.078.078 0 00.039-.015.086.086 0 00.03-.045.089.089 0 00.01-.041l-.252-.719h.2l.15.51.143-.51h.192l-.236.682a.933.933 0 01-.11.242.196.196 0 01-.158.048h-.082v-.152zm1.326-.257a.101.101 0 00.106-.082.867.867 0 00.026-.243.85.85 0 00-.026-.246.11.11 0 00-.216 0 .847.847 0 00-.026.246.865.865 0 00.026.243.102.102 0 00.11.082zm.318-.325a.709.709 0 01-.071.351.313.313 0 01-.384.09.312.312 0 01-.11-.09.929.929 0 010-.703.31.31 0 01.494 0c.053.11.078.23.071.352zm.262.195a.163.163 0 00.04.091.115.115 0 00.09.033.117.117 0 00.101-.048.191.191 0 00.035-.119.216.216 0 00-.033-.119.112.112 0 00-.101-.048.155.155 0 00-.059 0 .1.1 0 00-.063.057h-.162l.065-.507h.506v.154h-.376l-.032.199a.251.251 0 01.16-.05c.073 0 .144.027.198.076a.287.287 0 01.085.216.353.353 0 01-.08.23.298.298 0 01-.245.1.322.322 0 01-.216-.072.271.271 0 01-.095-.2l.182.007zM38.965 48.913a.702.702 0 01.063-.273.532.532 0 01.217-.216l.162-.096a.773.773 0 00.153-.108.238.238 0 000-.327.23.23 0 00-.168-.062.216.216 0 00-.217.119.413.413 0 00-.034.175h-.156a.545.545 0 01.058-.258.37.37 0 01.35-.177.377.377 0 01.303.115.366.366 0 01-.006.498 1.012 1.012 0 01-.216.145l-.115.064a.728.728 0 00-.132.087.327.327 0 00-.106.162h.66v.145l-.816.007zm1.138-.301a.193.193 0 00.201.199.235.235 0 00.186-.091.747.747 0 00.108-.37.278.278 0 01-.125.115.43.43 0 01-.31.007.356.356 0 01-.127-.085.398.398 0 01-.102-.282.47.47 0 01.1-.29.407.407 0 01.662.115c.04.104.06.215.056.327a1.05 1.05 0 01-.067.394.387.387 0 01-.374.288.362.362 0 01-.27-.096.316.316 0 01-.091-.231h.153zm.23-.25c.06.001.12-.02.166-.06a.248.248 0 00.073-.216.262.262 0 00-.067-.2.236.236 0 00-.17-.064.228.228 0 00-.178.073.296.296 0 00-.065.202.288.288 0 00.059.188.215.215 0 00.181.087v-.01zm1.723.18a.541.541 0 01-.045.245.34.34 0 01-.33.158.385.385 0 01-.237-.075.323.323 0 01-.1-.269v-.089h.158v.1a.217.217 0 00.046.151.177.177 0 00.14.052.173.173 0 00.178-.093.65.65 0 00.023-.216v-.827h.167v.864zm.387-.536v.606a.25.25 0 00.024.115.15.15 0 00.151.08.216.216 0 00.217-.143.585.585 0 00.03-.216v-.442h.151v.907h-.142v-.134a.317.317 0 01-.29.158.272.272 0 01-.264-.13.377.377 0 01-.037-.184v-.617h.16zm.811 0h.145v.13a.353.353 0 01.296-.15.264.264 0 01.26.135.498.498 0 01.037.216v.582h-.154v-.571a.304.304 0 00-.026-.134.147.147 0 00-.147-.085c-.03 0-.06.004-.088.013a.216.216 0 00-.109.074.216.216 0 00-.05.093.534.534 0 00-.012.136v.474h-.152v-.913zm1.339-.02c.065.001.13.017.188.046a.345.345 0 01.136.117.384.384 0 01.06.16.886.886 0 01.016.2h-.664a.373.373 0 00.065.216.218.218 0 00.188.084.24.24 0 00.19-.08.273.273 0 00.059-.104h.15a.415.415 0 01-.115.21.347.347 0 01-.171.091.436.436 0 01-.126.015.379.379 0 01-.285-.123.482.482 0 01-.117-.344.524.524 0 01.117-.355.392.392 0 01.309-.132zm.242.401a.381.381 0 00-.043-.158.216.216 0 00-.216-.11.233.233 0 00-.176.076.286.286 0 00-.075.192h.51zm-5.718 9.339a.385.385 0 01-.312-.12.433.433 0 01-.097-.287h.16c0 .06.015.118.043.17a.228.228 0 00.217.096.28.28 0 00.192-.063.216.216 0 00.072-.166.197.197 0 00-.076-.176.39.39 0 00-.216-.05h-.063v-.134h.073a.296.296 0 00.141-.028.169.169 0 00.097-.169.163.163 0 00-.065-.138.242.242 0 00-.149-.05.227.227 0 00-.216.102.375.375 0 00-.035.16h-.151a.453.453 0 01.054-.232.342.342 0 01.327-.168.454.454 0 01.287.082.294.294 0 01.102.24.268.268 0 01-.06.18.245.245 0 01-.098.067c.06.015.113.051.15.102a.3.3 0 01.053.184.364.364 0 01-.114.28.445.445 0 01-.316.118zm.98-1.245a.356.356 0 01.34.192c.06.129.088.27.082.411.003.14-.022.28-.074.41a.364.364 0 01-.348.231.352.352 0 01-.325-.19.876.876 0 01-.088-.433c-.003-.12.015-.24.052-.355a.366.366 0 01.36-.266zm0 1.103a.216.216 0 00.19-.103.77.77 0 00.07-.39 1 1 0 00-.05-.34.195.195 0 00-.197-.134.216.216 0 00-.197.128.867.867 0 00-.063.372c-.003.1.01.2.041.297a.216.216 0 00.204.17h.002zm1.717-.264a.508.508 0 01-.047.245.338.338 0 01-.327.16.391.391 0 01-.24-.076.328.328 0 01-.098-.27v-.089h.158v.089a.23.23 0 00.046.154.182.182 0 00.14.05.172.172 0 00.176-.092.598.598 0 00.026-.216v-.829h.166v.874zm.387-.534v.601a.248.248 0 00.022.113.156.156 0 00.151.082.216.216 0 00.217-.143.554.554 0 00.032-.216v-.444h.151v.922h-.145v-.132a.315.315 0 01-.29.158.27.27 0 01-.263-.13.379.379 0 01-.04-.186v-.614l.165-.011zm.811 0h.15v.128a.355.355 0 01.296-.147.26.26 0 01.26.134.46.46 0 01.038.217v.584h-.162v-.57A.33.33 0 0043.57 57a.149.149 0 00-.147-.085.32.32 0 00-.089.011.244.244 0 00-.16.167.716.716 0 00-.01.136v.474h-.152v-.916zm1.339-.02c.065 0 .129.015.186.046a.322.322 0 01.138.117.408.408 0 01.06.157c.011.067.016.135.014.202h-.664a.415.415 0 00.065.216.216.216 0 00.19.083.24.24 0 00.188-.079.244.244 0 00.059-.105h.149a.433.433 0 01-.112.212.353.353 0 01-.174.09.544.544 0 01-.123.014.388.388 0 01-.288-.124.481.481 0 01-.116-.344.518.518 0 01.119-.355.395.395 0 01.309-.13zm.242.4a.405.405 0 00-.043-.157.217.217 0 00-.216-.11.233.233 0 00-.176.075.292.292 0 00-.075.193h.51zm-5.169 7.97a.357.357 0 01.34.192c.06.129.088.27.082.411.005.14-.02.28-.073.41a.362.362 0 01-.349.229.35.35 0 01-.324-.189.876.876 0 01-.089-.432 1.02 1.02 0 01.054-.355.36.36 0 01.36-.267zm0 1.105a.216.216 0 00.188-.106.77.77 0 00.07-.39.997.997 0 00-.05-.339.195.195 0 00-.197-.134.217.217 0 00-.197.127.867.867 0 00-.062.373c-.004.1.01.2.04.296a.216.216 0 00.208.173zm.66-.748v-.117a.666.666 0 00.231-.052.275.275 0 00.098-.18h.119v1.206h-.163v-.866l-.285.009zm2.02.482a.507.507 0 01-.048.244.335.335 0 01-.326.158.39.39 0 01-.24-.073.326.326 0 01-.098-.27v-.09h.158v.09a.23.23 0 00.046.153.182.182 0 00.14.05.173.173 0 00.175-.091.6.6 0 00.026-.217v-.826h.167v.872zm.387-.534v.601a.25.25 0 00.022.113.154.154 0 00.151.08.217.217 0 00.216-.14.554.554 0 00.033-.217v-.433h.151v.905h-.145v-.132a.315.315 0 01-.29.158.27.27 0 01-.263-.13.382.382 0 01-.04-.186v-.615l.165-.004zm.813-.336h.154v1.24h-.154v-1.24zm.939.336h.166l-.143.396c-.054.156-.101.283-.138.38-.048.15-.11.296-.186.433a.216.216 0 01-.186.076h-.091v-.151l.056.015h.033a.098.098 0 00.095-.05s.013-.026.03-.07l.04-.092-.336-.93h.173l.242.737.245-.744zm-4.975 8.368a.357.357 0 01.34.193.87.87 0 01.082.411.998.998 0 01-.073.407.36.36 0 01-.349.232.35.35 0 01-.324-.189.853.853 0 01-.089-.432c-.002-.12.015-.24.052-.355a.365.365 0 01.361-.266zm0 1.104a.216.216 0 00.188-.104.75.75 0 00.072-.391.938.938 0 00-.052-.338.19.19 0 00-.195-.134.217.217 0 00-.197.128.835.835 0 00-.062.372.9.9 0 00.039.296.217.217 0 00.207.171zm.541.102a.65.65 0 01.065-.27.518.518 0 01.216-.217l.163-.093a.803.803 0 00.153-.108.217.217 0 00.07-.16.216.216 0 00-.143-.218.23.23 0 00-.091-.014.216.216 0 00-.216.119.434.434 0 00-.035.175h-.156a.559.559 0 01.059-.257.37.37 0 01.35-.176.357.357 0 01.398.364.331.331 0 01-.102.247 1.004 1.004 0 01-.216.147l-.115.063a.864.864 0 00-.132.086.322.322 0 00-.105.165h.661v.147h-.824zm2.13-.365a.535.535 0 01-.047.244.34.34 0 01-.329.158.385.385 0 01-.238-.074.328.328 0 01-.097-.27v-.089h.158v.089a.24.24 0 00.043.154.188.188 0 00.143.05.172.172 0 00.175-.092.611.611 0 00.024-.216v-.829h.169v.874zm.388-.535v.602a.249.249 0 00.021.112.154.154 0 00.152.082.216.216 0 00.216-.142.56.56 0 00.03-.217v-.433h.154v.896h-.145v-.132a.315.315 0 01-.29.158.268.268 0 01-.262-.13.38.38 0 01-.039-.186v-.614l.163.004zm.813-.338h.153v1.238h-.153v-1.238zm.945.338h.169l-.143.396a14.18 14.18 0 01-.139.38 2.46 2.46 0 01-.186.434.216.216 0 01-.186.075h-.05l-.04-.01v-.159a.218.218 0 00.056.014h.032a.109.109 0 00.06-.016.088.088 0 00.035-.034s.013-.026.03-.07c.018-.043.03-.07.037-.093l-.333-.93h.167l.244.736.247-.723zm-5.316-33.727a.666.666 0 01.065-.273.512.512 0 01.216-.216l.162-.093a.906.906 0 00.154-.109.227.227 0 00.07-.162.216.216 0 00-.144-.215.232.232 0 00-.09-.014.217.217 0 00-.217.119.41.41 0 00-.034.175h-.156a.553.553 0 01.058-.258.443.443 0 01.65-.062.366.366 0 01.094.248.334.334 0 01-.101.25 1.012 1.012 0 01-.217.144l-.114.065a.74.74 0 00-.132.087.322.322 0 00-.106.164h.662v.15h-.82zm1.377-.701a.217.217 0 00.158-.056.184.184 0 00.042-.202.168.168 0 00-.04-.056.216.216 0 00-.173-.067.2.2 0 00-.16.058.19.19 0 00-.047.132.162.162 0 00.062.134c.045.036.1.056.158.057zm0 .6a.282.282 0 00.178-.057.216.216 0 00.069-.171.215.215 0 00-.072-.18.291.291 0 00-.185-.06.257.257 0 00-.178.063.215.215 0 00-.07.17.228.228 0 00.159.222.249.249 0 00.108.012h-.009zm-.216-.542a.274.274 0 01-.097-.065.23.23 0 01-.067-.175.318.318 0 01.227-.309.383.383 0 01.149-.02c.1-.006.197.027.272.09a.293.293 0 01.1.217.275.275 0 01-.059.184.361.361 0 01-.099.078c.044.02.084.047.119.08.053.06.082.137.08.217a.377.377 0 01-.41.383.474.474 0 01-.3-.095.337.337 0 01-.123-.28.313.313 0 01.217-.305h-.009zm1.933.276a.54.54 0 01-.045.244.34.34 0 01-.329.158.385.385 0 01-.238-.076.322.322 0 01-.097-.268v-.089h.158v.089a.216.216 0 00.043.151.18.18 0 00.143.052.17.17 0 00.175-.093.589.589 0 00.024-.216v-.829h.166v.877zm.386-.535v.6a.254.254 0 00.021.114.151.151 0 00.152.08.216.216 0 00.216-.14.609.609 0 00.03-.217v-.443h.154v.909h-.145v-.135a.323.323 0 01-.29.158.274.274 0 01-.264-.13.397.397 0 01-.036-.183v-.615l.162.002zm.808 0h.145v.127a.411.411 0 01.137-.114.384.384 0 01.16-.035.263.263 0 01.26.134.471.471 0 01.036.217v.573h-.154v-.571a.287.287 0 00-.026-.132.145.145 0 00-.145-.087.269.269 0 00-.09.013.216.216 0 00-.108.074.216.216 0 00-.05.093.547.547 0 00-.011.136v.474h-.154v-.902zm1.34-.022c.065 0 .13.016.188.046a.334.334 0 01.136.117.42.42 0 01.063.16c.01.066.014.132.013.199h-.664c0 .077.022.152.064.216a.217.217 0 00.189.085.242.242 0 00.19-.08.249.249 0 00.058-.104h.15a.341.341 0 01-.04.11.415.415 0 01-.075.1.366.366 0 01-.171.093.545.545 0 01-.125.013.378.378 0 01-.286-.124.48.48 0 01-.117-.344.518.518 0 01.12-.355.388.388 0 01.306-.132zm.244.4a.435.435 0 00-.044-.157.216.216 0 00-.216-.109.232.232 0 00-.175.074.286.286 0 00-.076.193h.51z" clip-rule="evenodd"/><path fill="#F96132" fill-rule="evenodd" stroke="#35416B" stroke-linecap="round" stroke-linejoin="round" d="M5.664 114h103.3a4.657 4.657 0 013.299 1.366 4.663 4.663 0 011.367 3.301v102.666a4.663 4.663 0 01-4.666 4.667H5.664A4.663 4.663 0 011 221.333V118.686a4.674 4.674 0 011.36-3.312A4.66 4.66 0 015.663 114z" clip-rule="evenodd"/><path fill="#fff" fill-rule="evenodd" d="M13.144 120.306h88.2a4.663 4.663 0 014.664 4.666v79.604a4.663 4.663 0 01-4.664 4.666h-88.2a4.662 4.662 0 01-4.664-4.666v-79.604a4.662 4.662 0 014.664-4.666z" clip-rule="evenodd"/><path fill="#35416B" fill-rule="evenodd" d="M11.63 120.249h22.338v88.902H11.631c-1.851 0-3.353-2.111-3.353-4.714v-79.476c0-2.609 1.502-4.712 3.353-4.712z" clip-rule="evenodd"/><path fill="#F96132" fill-rule="evenodd" d="M23.019 127.513v4.719l4.598-.032.077-.957-1.33-.24-1.55-1.66-1.795-1.83z" clip-rule="evenodd"/><path fill="#fff" fill-rule="evenodd" d="M23.803 130.923a.414.414 0 11.827.035.414.414 0 01-.827-.035z" clip-rule="evenodd"/><path fill="#F96132" fill-rule="evenodd" d="M19.747 124.329l.021 2.271 2.733 2.697.021-2.247-2.775-2.721zm.009 2.741l.012 2.249 2.774 2.831-.041-2.199-2.745-2.881zm-.029 2.935l.035 2.199 2.26.037-2.295-2.236zm-2.739-5.729l-.021 2.303 2.754 2.725.034-2.156-2.767-2.872z" clip-rule="evenodd"/><path fill="#F96132" fill-rule="evenodd" d="M16.954 127.12v2.255l2.78 2.816v-2.24l-2.78-2.831zm-.015 2.872v2.249l2.275-.022-2.275-2.227z" clip-rule="evenodd"/><path fill="#F96132" fill-rule="evenodd" d="M14.154 124.351v2.24l2.802 2.723v-2.201l-2.802-2.762zm.033 2.769l2.75 2.846v2.251l-2.802-2.943.052-2.154zm-.063 2.911v2.19h2.302l-2.301-2.19zm-.12 11.097a.91.91 0 01.91.91v.097a.913.913 0 01-1.555.645.912.912 0 01-.267-.645v-.097a.913.913 0 01.563-.841.907.907 0 01.348-.069zm.144 8.699a.912.912 0 01.912.912v.095a.912.912 0 11-1.824 0v-.095a.912.912 0 01.912-.912zm-.082 8.52a.907.907 0 01.842.561.91.91 0 01.07.349v.097a.912.912 0 01-1.556.644.914.914 0 01-.268-.644v-.097a.911.911 0 01.912-.91zm.017 8.458a.911.911 0 01.911.912v.097a.911.911 0 01-1.823 0v-.097a.915.915 0 01.912-.912zm-.124 8.551a.911.911 0 01.911.912v.095a.914.914 0 01-.911.912.911.911 0 01-.912-.912v-.1a.912.912 0 01.912-.907zm-.082 8.733a.908.908 0 01.91.912v.103a.915.915 0 01-.563.841.904.904 0 01-.348.069.9.9 0 01-.65-.262.916.916 0 01-.27-.648v-.097a.913.913 0 01.92-.918zm2.743-42.674h13.75a.59.59 0 01.418 1.009.596.596 0 01-.418.175H16.62a.595.595 0 01-.59-.593.591.591 0 01.59-.591zm.15 8.701h13.75a.59.59 0 01.546.818.592.592 0 01-.546.366H16.77a.593.593 0 110-1.184zm-.081 8.519h13.749a.595.595 0 01.593.59.593.593 0 01-.593.593h-13.75a.587.587 0 01-.546-.366.592.592 0 01.547-.817zm.017 8.459h13.75a.591.591 0 01.592.591.594.594 0 01-.593.6H16.706a.588.588 0 01-.418-.174.592.592 0 01-.172-.419.595.595 0 01.17-.422.583.583 0 01.42-.176zm-.127 8.548H30.33a.596.596 0 01.59.593.591.591 0 01-.59.591H16.58a.59.59 0 01-.418-1.009.595.595 0 01.418-.175zm-.082 8.736h13.75a.591.591 0 110 1.184h-13.75a.59.59 0 01-.59-.593.592.592 0 01.59-.591z" clip-rule="evenodd"/><path fill="#35416B" fill-rule="evenodd" d="M39.23 125.749h2.199v.545h-1.556v.714h1.362v.539h-1.362v1.293h-.646l.004-3.091zm3.181.804v1.382a.695.695 0 00.048.295.315.315 0 00.32.175.417.417 0 00.432-.248.863.863 0 00.06-.356v-1.248h.608v2.294h-.584v-.323l-.041.062a.473.473 0 01-.08.093.827.827 0 01-.273.172.948.948 0 01-.309.048.684.684 0 01-.685-.367 1.395 1.395 0 01-.099-.597v-1.382h.603zm4.114.759v1.546h-.614v-1.395a.652.652 0 00-.047-.279.339.339 0 00-.336-.176.421.421 0 00-.42.258.903.903 0 00-.058.35v1.242h-.6v-2.301h.58v.334a.992.992 0 01.216-.254.752.752 0 01.467-.14.88.88 0 01.582.187.756.756 0 01.23.628zm2.636 0v1.546h-.614v-1.395a.649.649 0 00-.05-.279.338.338 0 00-.336-.176.418.418 0 00-.418.258.903.903 0 00-.058.35v1.242h-.6v-2.301h.58v.334a.992.992 0 01.216-.254.765.765 0 01.47-.14.88.88 0 01.581.187.753.753 0 01.229.628zm.99.157h.932a.526.526 0 00-.144-.36.45.45 0 00-.321-.123.394.394 0 00-.176.029.392.392 0 00-.147.101.643.643 0 00-.145.353zm1.361-.532c.092.143.151.305.175.474.017.151.023.303.019.455h-1.57a.576.576 0 00.215.485.507.507 0 00.297.086.432.432 0 00.302-.105.51.51 0 00.112-.158h.612a.748.748 0 01-.216.414 1.049 1.049 0 01-.825.334 1.155 1.155 0 01-.771-.282 1.14 1.14 0 01-.334-.916 1.279 1.279 0 01.301-.915 1.026 1.026 0 01.785-.319c.177-.002.353.035.515.108a.91.91 0 01.383.339zm1.21 1.909h-.6v-3.102h.6v3.102zm1.053-.732a.399.399 0 00.082.229.548.548 0 00.412.118.637.637 0 00.282-.052.167.167 0 00.103-.157.174.174 0 00-.084-.155 3.487 3.487 0 00-.624-.181 1.256 1.256 0 01-.55-.242.525.525 0 01-.16-.412.725.725 0 01.248-.547c.197-.162.448-.244.703-.229.245-.01.488.05.7.173a.736.736 0 01.31.593h-.6a.347.347 0 00-.065-.184.412.412 0 00-.336-.123.474.474 0 00-.278.063.172.172 0 00-.084.142.155.155 0 00.088.149c.203.073.412.129.625.166.198.037.383.126.536.257a.567.567 0 01.177.431.694.694 0 01-.254.556 1.525 1.525 0 01-1.582-.013.73.73 0 01-.258-.582h.61z" clip-rule="evenodd"/><path fill="url(#pattern0)" d="M28.257 143.701h78.66v50.677h-78.66z"/><path stroke="#F96132" stroke-linecap="round" stroke-linejoin="round" d="M49.523 147.858l-.086 43.144m21.689-42.881l-.089 43.142m19.687-43.23l-.088 43.142"/><path fill="#F96132" fill-rule="evenodd" d="M38.918 131.079h25.833v2.176H38.918v-2.176zm-.1 3.677h30.364v2.156H38.817v-2.156zm-1.236 10.2h5.648v1.779h-5.648v-1.779zm24.421.093h5.646v1.781h-5.646v-1.781zm18.622.108h5.648v1.779h-5.648v-1.779zm15.517-.162h5.645v1.781h-5.645v-1.781zm-54.666 53.4h55.888c1.19 0 2.155.58 2.155 1.294v3.114c0 .716-.966 1.294-2.155 1.294H41.476c-1.19 0-2.155-.58-2.155-1.294v-3.112c0-.716.966-1.296 2.155-1.296z" clip-rule="evenodd"/><path fill="#F7A501" fill-rule="evenodd" stroke="#F96132" stroke-linecap="round" stroke-linejoin="round" d="M118.72 113.021h104.56a4.722 4.722 0 014.72 4.724v103.908a4.72 4.72 0 01-4.72 4.724H118.72a4.705 4.705 0 01-3.337-1.384 4.72 4.72 0 01-1.383-3.34V117.756a4.708 4.708 0 011.379-3.347 4.713 4.713 0 013.341-1.388z" clip-rule="evenodd"/><path fill="#fff" fill-rule="evenodd" d="M128.137 121.558h89.275a4.723 4.723 0 014.72 4.723v80.574a4.718 4.718 0 01-1.382 3.341 4.71 4.71 0 01-3.338 1.384h-89.275a4.715 4.715 0 01-4.364-2.917 4.713 4.713 0 01-.358-1.808v-80.574a4.733 4.733 0 011.383-3.34 4.704 4.704 0 013.339-1.383z" clip-rule="evenodd"/><path fill="#F96132" fill-rule="evenodd" d="M125.31 121.525h22.61v90.166h-22.61c-1.874 0-3.394-2.139-3.394-4.78v-80.606c0-2.639 1.52-4.78 3.394-4.78z" clip-rule="evenodd"/><path fill="#F7A501" fill-rule="evenodd" d="M136.865 129.025v4.778l4.655-.035.076-.969-1.346-.24-1.568-1.681-1.817-1.853z" clip-rule="evenodd"/><path fill="#fff" fill-rule="evenodd" d="M137.656 132.478a.423.423 0 01.271-.375.418.418 0 01.533.556.424.424 0 01-.154.186.422.422 0 01-.231.069.435.435 0 01-.419-.436z" clip-rule="evenodd"/><path fill="#F7A501" fill-rule="evenodd" d="M133.553 125.799l.022 2.296 2.764 2.733.022-2.277-2.808-2.752zm.007 2.778l.015 2.277 2.807 2.864-.043-2.227-2.779-2.914zm-.028 2.971l.034 2.226 2.289.035-2.323-2.261zm-2.773-5.802l-.02 2.334 2.786 2.759.035-2.183-2.801-2.91z" clip-rule="evenodd"/><path fill="#F7A501" fill-rule="evenodd" d="M130.724 128.636v2.281l2.816 2.853v-2.27l-2.816-2.864zm-.013 2.899v2.274l2.301-.019-2.301-2.255z" clip-rule="evenodd"/><path fill="#F7A501" fill-rule="evenodd" d="M127.893 125.825v2.266l2.835 2.759v-2.231l-2.835-2.794zm.03 2.811l2.784 2.879v2.279l-2.842-2.975.058-2.183zm-.061 2.938v2.218h2.33l-2.33-2.218zm-1.219 8.976a.921.921 0 01.923.923v.098a.924.924 0 01-.923.923.92.92 0 01-.921-.923v-.098a.921.921 0 01.921-.923zm.148 8.807a.923.923 0 01.923.923v.096a.923.923 0 11-1.846 0v-.096a.924.924 0 01.923-.923zm-.083 8.622a.923.923 0 01.923.923V159a.93.93 0 01-.27.652.917.917 0 01-.653.269.924.924 0 01-.922-.921v-.098a.922.922 0 01.922-.923zm.018 8.563a.921.921 0 01.923.923v.096a.924.924 0 01-1.576.653.923.923 0 01-.27-.653v-.096a.923.923 0 01.923-.923zm-.129 8.652a.925.925 0 01.923.923v.103a.93.93 0 01-.27.653.93.93 0 01-.653.27.928.928 0 01-.923-.923v-.098a.94.94 0 01.27-.656.921.921 0 01.653-.272zm-.083 8.842a.92.92 0 01.923.923v.096a.923.923 0 11-1.845 0v-.104a.923.923 0 01.922-.915zm2.79-43.194h13.917a.598.598 0 110 1.198h-13.917a.599.599 0 010-1.198zm.14 8.805h13.919a.6.6 0 010 1.198h-13.919a.598.598 0 110-1.198zm-.081 8.624h13.917a.6.6 0 110 1.199h-13.917a.597.597 0 01-.6-.6.6.6 0 01.6-.599zm.018 8.563h13.916a.601.601 0 01.424 1.024.593.593 0 01-.424.174h-13.916a.586.586 0 01-.424-.174.604.604 0 01-.001-.848.6.6 0 01.425-.176zm-.129 8.652h13.917a.603.603 0 01.6.601.6.6 0 01-.6.598h-13.917a.597.597 0 01-.229-1.153.596.596 0 01.229-.046zm-.083 8.843h13.917a.584.584 0 01.229.045.577.577 0 01.195.129.605.605 0 01.176.424.601.601 0 01-.6.6h-13.917a.597.597 0 01-.6-.6.605.605 0 01.176-.424.577.577 0 01.195-.129.577.577 0 01.229-.045z" clip-rule="evenodd"/><path fill="#F96132" fill-rule="evenodd" d="M152.378 128.686h-.606v.924h.613a.534.534 0 00.36-.112.45.45 0 00.128-.358.426.426 0 00-.025-.19.428.428 0 00-.103-.161.572.572 0 00-.367-.103zm.048 1.478h-.654v1.129h-.655v-3.152h1.368c.273-.015.541.072.755.242a.928.928 0 01.281.753.959.959 0 01-.281.786 1.245 1.245 0 01-.814.242zm2.814 0a.5.5 0 01-.116.057.886.886 0 01-.161.042l-.135.026a.876.876 0 00-.275.083.278.278 0 00-.142.257.272.272 0 00.018.12.295.295 0 00.069.099c.062.05.14.075.219.069a.594.594 0 00.359-.115.487.487 0 00.173-.419l-.009-.219zm-.369-.283a.94.94 0 00.24-.055.183.183 0 00.131-.172.21.21 0 00-.02-.113.198.198 0 00-.078-.084.611.611 0 00-.292-.054.366.366 0 00-.303.107.413.413 0 00-.086.218h-.586a.892.892 0 01.17-.5 1 1 0 01.827-.308c.235-.005.468.048.678.153a.573.573 0 01.294.57v1.336a.335.335 0 00.038.161.211.211 0 00.089.07v.089h-.654a.73.73 0 01-.038-.131 1.323 1.323 0 01-.017-.141 1.331 1.331 0 01-.29.233.876.876 0 01-.436.111.76.76 0 01-.522-.179.644.644 0 01-.205-.51.65.65 0 01.33-.62c.166-.083.347-.134.532-.151l.198-.03zm1.276-.468v-.436h.323v-.655h.602v.655h.371v.436h-.377v1.227a.28.28 0 00.035.179.398.398 0 00.218.035h.12v.454h-.288a.772.772 0 01-.589-.151.436.436 0 01-.103-.321v-1.429l-.312.006zm3.652-.211c.06.079.1.171.118.268.016.149.022.298.019.448v1.364h-.619v-1.412a.652.652 0 00-.063-.304.326.326 0 00-.317-.161.433.433 0 00-.364.161.732.732 0 00-.124.459v1.257h-.607v-3.13h.607v1.109a.722.722 0 01.305-.282.882.882 0 01.364-.081.998.998 0 01.393.077.676.676 0 01.288.227zm1.178 1.337a.407.407 0 00.083.232.583.583 0 00.196.102c.072.02.146.026.22.018a.653.653 0 00.286-.053.175.175 0 00.077-.063.173.173 0 00.028-.096.178.178 0 00-.085-.157 3.58 3.58 0 00-.633-.183 1.314 1.314 0 01-.556-.245.525.525 0 01-.161-.417.715.715 0 01.253-.554c.198-.164.451-.247.708-.232.249-.01.494.051.709.175a.743.743 0 01.315.6h-.611a.346.346 0 00-.068-.185.407.407 0 00-.34-.125.497.497 0 00-.282.064.167.167 0 00-.06.061.175.175 0 00-.025.083.154.154 0 00.09.15c.205.074.417.131.632.168.201.038.388.128.544.26a.59.59 0 01.178.437.696.696 0 01-.255.563 1.537 1.537 0 01-1.603-.013.758.758 0 01-.26-.59h.62z" clip-rule="evenodd"/><path fill="#F7A501" fill-rule="evenodd" d="M163.255 156.389v2s1.867.067 2.362.945c2.509 4.437 3.198 9.604 3.709 12.802 1.341 8.438 1.673 13.751 2.726 20.736 1.01 6.687 2.908 6.072 2.908 6.072l-.146-2.146s-.196 1.528-1.091-2.981c-2.288-11.569-2.469-30.943-7.403-36.14-.665-.707-3.065-1.288-3.065-1.288z" clip-rule="evenodd" opacity=".3"/><path fill="#F7A501" fill-rule="evenodd" d="M163.091 162.855h11.736l-.039 9.464-11.736-.196.039-9.268z" clip-rule="evenodd" opacity=".3"/><path fill="#F7A501" fill-rule="evenodd" d="M162.579 182.589l-.1-10.39a18.172 18.172 0 003.272-8.325c.51-3.966 2.275-10.761 3.845-13.47 1.268-2.182 5.416-5.775 5.416-5.775l-.314 12.806s-1.804 1.137-2.835 5.105c-1.032 3.969-.812 9.366-2.574 13.752-1.963 4.939-6.71 6.297-6.71 6.297z" clip-rule="evenodd" opacity=".3"/><path fill="#F7A501" fill-rule="evenodd" d="M162.965 182.05l-.129 6.463s2.182-.985 3.272-2.037c2.417-2.342 3.787-3.558 5.781-5.817 1.228-1.388 3.099-1.325 3.099-1.325l-.063-5.457s-2.94 1.454-4.286 2.401c-1.723 1.201-2.986 2.962-4.112 4.198-1.745 1.888-3.562 1.574-3.562 1.574z" clip-rule="evenodd" opacity=".3"/><path fill="#F7A501" fill-rule="evenodd" d="M174.775 181.945l.07 2.82s-1.514-.591-3.272.799c-1.224.969-3.126 3.813-4.341 4.501-1.215.687-4.145.825-4.145.825l-.024-2.637s1.377.415 3.475-.655c1.431-.735 2.181-3.477 4.502-4.378 2.199-.862 3.735-1.275 3.735-1.275z" clip-rule="evenodd" opacity=".3"/><path fill="#F7A501" fill-rule="evenodd" d="M175.141 187.312l.092 1.238s-1.091.046-3.072.986c-1.98.941-3.636 2.746-5.235 2.851-2.347.155-4.09.085-4.09.085l.275-1.604s.63.179 3.691.022c.508-.027 2.877-1.847 4.882-2.753 2.004-.906 3.457-.825 3.457-.825z" clip-rule="evenodd" opacity=".3"/><path fill="#F7A501" fill-rule="evenodd" d="M175.361 190.981l-.176 1.238s-.973-.323-2.965.618c-1.991.94-3.158 1.252-5.486 1.503-2.327.251-3.828-.504-3.828-.504l.146-1.591a6.804 6.804 0 003.623.589c2.182-.203 3.054-.495 5.063-1.401s3.623-.452 3.623-.452z" clip-rule="evenodd" opacity=".3"/><path fill="#F7A501" fill-rule="evenodd" d="M175.628 194.054l-.267 1.21s-2.129-.358-3.562.412c-1.208.655-5.095.736-5.095.736l-3.975-.354.205-2.298s1.527 1.189 4.594 1.032c.509-.026 1.911.345 3.927-.561 2.015-.906 4.173-.177 4.173-.177z" clip-rule="evenodd" opacity=".3"/><path fill="#F7A501" fill-rule="evenodd" d="M175.231 197.242l-.046 1.527s-1.309-.903-3.652-.53c-1.472.236-3.619.358-5.211.148a14.348 14.348 0 01-3.946-1.119l.589-1.445s.942.589 3.562 1.032c.502.083 2.755.033 4.947-.148a8.332 8.332 0 013.757.535z" clip-rule="evenodd" opacity=".3"/><path fill="#F7A501" fill-rule="evenodd" d="M175.392 200.941l-.294 1.386a15.616 15.616 0 00-4.064-1.473c-1.039-.218-3.373-.52-4.978-.413a4.199 4.199 0 01-3.534-1.414l.208-2.183a4.803 4.803 0 003.503 1.914c.508.04 3.54.022 5.006.354 1.562.356 4.153 1.829 4.153 1.829z" clip-rule="evenodd" opacity=".3"/><path fill="#F7A501" fill-rule="evenodd" d="M175.689 203.801l-.295 1.383a15.603 15.603 0 00-4.064-1.473c-1.038-.218-3.372-.519-4.978-.412a4.186 4.186 0 01-3.533-1.415l.218-2.183a4.81 4.81 0 003.503 1.917c.508.037 3.54.02 5.017.353 1.538.356 4.132 1.83 4.132 1.83zm.296-58.665l.299 3.413s1.928-2.54 3.61-1.27c2.415 1.825 1.987 6.535 4.363 9.586 2.375 3.052 5.525 2.445 5.525 2.445l.124-3.512s-1.527 1.135-3.808-1.595c-2.282-2.731-1.854-6.8-4.108-9.367-2.253-2.566-6.005.3-6.005.3z" clip-rule="evenodd" opacity=".3"/><path fill="#F7A501" fill-rule="evenodd" d="M176.313 163.099v8.648s4.89.539 6.871-3.697c1.98-4.237 2.321-6.446 2.835-9.227.655-3.505 3.999-5.164 3.999-5.164v-8.829s-3.848 1.222-5.312 3.361c-2.816 4.108-3.459 7.817-5.344 12.282-.571 1.365-3.049 2.626-3.049 2.626zm14.645-6.98l15.867-.229.028 1.434-16.039.345.144-1.55zm-.031-11.248l15.852-.179.035 4.366-15.954.351.067-4.538zm-14.883 37.033l14.009.124.041 1.037-14.111-.125.061-1.036z" clip-rule="evenodd" opacity=".3"/><path fill="#F96132" fill-rule="evenodd" d="M176.312 147.98l-.067 8.833s1.924-.299 2.02-4.601c.104-4.71-1.953-4.232-1.953-4.232zm-.089 34.919v1.945s.94 0 .899-1.063c-.05-1.024-.899-.882-.899-.882z" clip-rule="evenodd" opacity=".5"/><path fill="#F7A501" fill-rule="evenodd" d="M151.104 133.536h28.139v2.153h-28.139v-2.153zm.046 3.561h39.334v2.325H151.15v-2.325z" clip-rule="evenodd"/><path fill="#F96132" fill-rule="evenodd" d="M162.3 162.743c.447 0 .811.297.811.655v41.723c0 .367-.364.655-.811.655-.436 0-.809-.297-.809-.655v-41.714c0-.367.362-.664.809-.664zm.129-6.759a.78.78 0 01.776.777v1.497a.774.774 0 01-.228.549.774.774 0 01-1.098.001.777.777 0 01-.229-.55v-1.501a.778.778 0 01.779-.773zm13.057-11.549a.829.829 0 01.591.243.837.837 0 01.244.591v11.413a.834.834 0 11-1.668 0v-11.413a.833.833 0 01.833-.834zm.107 18.189a.823.823 0 01.824.825v8.124a.823.823 0 01-1.407.583.823.823 0 01-.242-.583v-8.122a.835.835 0 01.509-.764.814.814 0 01.316-.063zm14.876-18.222a.832.832 0 01.583.24.819.819 0 01.242.583v8.12a.827.827 0 01-.825.825.825.825 0 01-.824-.825v-8.12a.813.813 0 01.242-.583.817.817 0 01.582-.24zm-14.872 29.033a.794.794 0 01.794.794v4.765a.794.794 0 11-1.588 0v-4.758a.783.783 0 01.231-.566.783.783 0 01.563-.235zm31.245-29.068a.795.795 0 01.794.795v4.758a.796.796 0 01-.49.733.788.788 0 01-.304.059.786.786 0 01-.733-.488.797.797 0 01-.061-.304v-4.758a.795.795 0 01.794-.795zm-31.247 36.965a.778.778 0 01.777.779v2.449a.774.774 0 01-.228.549.774.774 0 01-1.099.001.765.765 0 01-.229-.55v-2.449a.779.779 0 01.779-.779zm14.824-25.765a.78.78 0 01.72.479.78.78 0 01.059.298v2.449a.779.779 0 01-1.328.55.777.777 0 01-.227-.55v-2.449a.78.78 0 01.776-.777zm-14.826 31.285a.749.749 0 01.524.217.739.739 0 01.218.525v.696a.747.747 0 01-.742.745.746.746 0 01-.744-.745v-.696a.736.736 0 01.218-.526.736.736 0 01.526-.216zm14.911-5.239a.744.744 0 01.744.745v.696a.743.743 0 01-1.487 0v-.696a.75.75 0 01.218-.527.739.739 0 01.525-.218zm16.424-26.046a.746.746 0 01.743.742v.696a.744.744 0 01-1.268.526.747.747 0 01-.217-.526v-.696a.742.742 0 01.742-.742zm-31.291 34.875a.747.747 0 01.743.744v.697a.747.747 0 01-.743.744.744.744 0 01-.742-.744v-.697a.742.742 0 01.742-.744zm-.022 3.207a.742.742 0 01.744.742v.696a.746.746 0 01-1.27.526.742.742 0 01-.218-.526v-.696a.744.744 0 01.744-.742zm-.022 3.427a.742.742 0 01.742.744v.697a.743.743 0 01-1.486 0v-.697a.743.743 0 01.744-.744zm.044 3.453a.746.746 0 01.743.742v.696a.747.747 0 01-.217.527.747.747 0 01-.526.218.747.747 0 01-.742-.745v-.696a.745.745 0 01.458-.686.745.745 0 01.284-.056zm0 3.18a.743.743 0 01.743.744v.697a.747.747 0 01-.743.744.744.744 0 01-.742-.744v-.697a.742.742 0 01.742-.744z" clip-rule="evenodd"/><defs><pattern id="pattern0" width="1" height="1" patternContentUnits="objectBoundingBox"><use transform="scale(.00274 .00426)" xlink:href="#image0"/></pattern></defs></svg>