<svg width="1000" height="245" viewBox="0 0 1000 245" fill="none" xmlns="http://www.w3.org/2000/svg">
<g clip-path="url(#clip0_1361_12505)">
<path fill-rule="evenodd" clip-rule="evenodd" d="M48.7336 139.642V163C20.7585 156.323 0 131.711 0 102.372C0 85.4557 7.15792 72.0354 18.1053 58.8703C27.1831 47.9534 49.5985 19.0426 56.6543 3.08954C58.3673 -0.783473 62.7348 -0.633805 64.6182 1.44721C70.6432 8.10421 78.0694 22.6432 80.4983 39.135C80.9932 42.4953 81.1969 45.2388 81.3587 47.4184C81.706 52.0954 81.8604 54.1748 84.2854 54.1748C88.0955 54.1748 90.588 48.3977 91.1358 42.4345C91.4869 38.6136 95.2774 37.3346 97.8914 38.6136C110.463 44.7644 123.292 74.0426 126.393 88.4102C127.366 92.9158 128 97.5719 128 102.372C128 131.646 107.335 156.214 79.4537 162.955V139.642H48.7336ZM64.0002 130.333C73.8316 130.333 81.8016 122.789 81.8016 113.483C81.8016 98.6407 70.8577 88.0345 65.4048 84.8105C65.0364 84.5928 64.8523 84.4839 64.3512 84.4974C63.9843 84.5073 63.4429 84.7369 63.181 84.9935C62.8232 85.3441 62.7283 85.743 62.5387 86.5409C61.5721 90.6065 58.5292 93.5054 55.327 96.556C50.9141 100.76 46.1988 105.252 46.1988 113.483C46.1988 122.789 54.1688 130.333 64.0002 130.333Z" fill="#F25533"/>
<path d="M158.432 137C144.819 137 134.506 141.949 128.937 149.58V139.888H98V243H128.937V186.701C128.937 172.059 136.775 165.46 148.119 165.46C158.018 165.46 166.062 171.44 166.062 184.226V243H197V179.689C197 151.848 179.262 137 158.432 137Z" fill="#161618"/>
<path d="M262.51 245C282.67 245 300.154 234.567 309 218.614L282.053 203.273C278.762 210.431 271.15 214.727 262.099 214.727C248.729 214.727 238.855 205.114 238.855 191C238.855 176.886 248.729 167.273 262.099 167.273C271.15 167.273 278.556 171.568 282.053 178.727L309 163.182C300.154 147.432 282.464 137 262.51 137C231.245 137 208 160.523 208 191C208 221.477 231.245 245 262.51 245Z" fill="#161618"/>
<path d="M332.5 131.045C342.571 131.045 351 122.607 351 112.522C351 102.438 342.571 94 332.5 94C322.427 94 314 102.438 314 112.522C314 122.607 322.427 131.045 332.5 131.045ZM317.083 243H347.917V140.1H317.083V243Z" fill="#161618"/>
<path d="M441.331 99V149.507C434.584 141.737 424.565 137.033 410.866 137.033C384.082 137.033 362 160.549 362 191.016C362 221.484 384.082 245 410.866 245C424.565 245 434.584 240.297 441.331 232.526V242.138H472V99H441.331ZM417 215.964C402.892 215.964 392.669 206.353 392.669 191.016C392.669 175.68 402.892 166.07 417 166.07C431.108 166.07 441.331 175.68 441.331 191.016C441.331 206.353 431.108 215.964 417 215.964Z" fill="#161618"/>
<path d="M517.717 203.273H590.766C591.589 199.386 592 195.296 592 191C592 160.114 569.777 137 539.735 137C507.223 137 485 160.523 485 191C485 221.477 506.811 245 541.998 245C561.547 245 576.773 237.841 586.856 223.932L562.163 209.818C558.048 214.318 550.846 217.591 542.409 217.591C531.093 217.591 521.627 213.908 517.717 203.273ZM517.1 180.364C519.981 169.932 527.799 164.205 539.529 164.205C548.788 164.205 558.048 168.5 561.34 180.364H517.1Z" fill="#161618"/>
<path d="M665.431 137C651.819 137 641.506 141.949 635.938 149.58V139.888H605V243H635.938V186.701C635.938 172.059 643.775 165.46 655.119 165.46C665.018 165.46 673.062 171.44 673.062 184.226V243H704V179.689C704 151.848 686.262 137 665.431 137Z" fill="#161618"/>
<path d="M781 169.23V139.705H759.966V111L729.338 120.227V139.705H713V169.23H729.338V205.521C729.338 234.226 740.977 246.323 781 242.222V214.337C767.522 215.158 759.966 214.337 759.966 205.521V169.23H781Z" fill="#161618"/>
<path d="M813.501 245C824.174 245 833 236.174 833 225.5C833 214.827 824.174 206 813.501 206C802.827 206 794 214.827 794 225.5C794 236.174 802.827 245 813.501 245Z" fill="#161618"/>
<path d="M862.5 131.045C872.572 131.045 881 122.607 881 112.522C881 102.438 872.572 94 862.5 94C852.427 94 844 102.438 844 112.522C844 122.607 852.427 131.045 862.5 131.045ZM847.082 243H877.918V140.1H847.082V243Z" fill="#161618"/>
<path d="M945.5 245C975.731 245 1000 221.477 1000 191C1000 160.523 975.731 137 945.5 137C915.267 137 891 160.523 891 191C891 221.477 915.267 245 945.5 245ZM945.5 215.136C932.132 215.136 921.849 205.522 921.849 191C921.849 176.477 932.132 166.864 945.5 166.864C958.868 166.864 969.151 176.477 969.151 191C969.151 205.522 958.868 215.136 945.5 215.136Z" fill="#161618"/>
<path d="M48 243H79V164C79 164 48 169.546 48 199.128V243Z" fill="#161618"/>
</g>
<defs>
<clipPath id="clip0_1361_12505">
<rect width="1000" height="245" fill="white"/>
</clipPath>
</defs>
</svg>
