<svg fill="none" viewBox="0 0 1289 520"><g clip-path="url(#clip0)"><path fill="#fff" d="M0 0h1289v520H0z"/><path fill="#35416B" fill-rule="evenodd" stroke="#F96132" stroke-linecap="round" stroke-linejoin="round" stroke-width="2.75" d="M176.811 214.554l153.525 23.674c8.916 0 16.151 6.465 16.151 14.445v164.96c0 7.98-7.235 14.437-16.151 14.437H147.181c-8.924 0-16.159-6.457-16.159-14.437V252.656c-.008-7.963 36.872-38.102 45.789-38.102zm252.603-.433l148.538 21.743c8.925 0 16.151 6.474 16.151 14.471v165.359c0 7.988-7.226 14.47-16.151 14.47H394.798c-8.916 0-16.151-6.482-16.151-14.47V250.335c.017-7.997 41.842-36.214 50.767-36.214zm244.561 3.753l160.127 22.875c9.158 0 16.518 6.332 16.518 14.146v161.606c0 7.805-7.393 14.146-16.518 14.146H646.785c-9.157 0-16.517-6.341-16.517-14.146V254.895c-.033-7.814 34.583-37.021 43.707-37.021zm253.311-1.074l157.964 25.588c9.09 0 16.47 6.374 16.47 14.238v162.662c0 7.864-7.38 14.238-16.47 14.238H898.473c-9.1 0-16.476-6.374-16.476-14.238V256.626c-.016-7.864 36.182-39.826 45.289-39.826z" clip-rule="evenodd"/><path fill="#F96132" fill-rule="evenodd" stroke="#F96132" stroke-linecap="round" stroke-linejoin="round" stroke-width="2.75" d="M179.824 214.462h183.155a16.167 16.167 0 0111.421 4.734 16.147 16.147 0 014.73 11.418v184.473a16.15 16.15 0 01-16.151 16.143H179.824a16.145 16.145 0 01-14.923-9.964 16.12 16.12 0 01-1.227-6.179V230.614a16.1 16.1 0 011.227-6.18 16.158 16.158 0 0114.923-9.972v0zm251.097-.491h183.155a16.155 16.155 0 0111.426 4.731 16.156 16.156 0 014.733 11.421v184.472a16.149 16.149 0 01-4.739 11.41 16.161 16.161 0 01-11.42 4.725H430.921a16.163 16.163 0 01-11.41-4.731 16.15 16.15 0 01-4.733-11.404V230.123a16.15 16.15 0 014.727-11.415 16.165 16.165 0 0111.416-4.737v0zm251.746 2.755h183.154a16.16 16.16 0 0111.418 4.73 16.145 16.145 0 014.733 11.413V417.35a16.144 16.144 0 01-4.733 11.412 16.161 16.161 0 01-11.418 4.731H682.667a16.144 16.144 0 01-16.151-16.143V232.869a16.151 16.151 0 014.73-11.415 16.175 16.175 0 015.24-3.5 16.165 16.165 0 016.181-1.228zm251.488.1h183.155a16.143 16.143 0 0111.42 4.725 15.98 15.98 0 013.51 5.238 16.177 16.177 0 011.23 6.18v184.447c0 4.284-1.7 8.392-4.73 11.421a16.181 16.181 0 01-11.43 4.731H934.155a16.166 16.166 0 01-11.427-4.731 16.15 16.15 0 01-4.733-11.421V232.969a16.132 16.132 0 014.734-11.418 16.154 16.154 0 0111.426-4.725z" clip-rule="evenodd"/><path fill="#F96132" fill-rule="evenodd" d="M1.923 430.272l1285.167 3.62z" clip-rule="evenodd"/><path stroke="#F96132" stroke-linecap="round" stroke-linejoin="round" stroke-width="4.61" d="M1.923 430.272l1285.167 3.62"/><path fill="#F96132" fill-rule="evenodd" stroke="#F96132" stroke-linecap="round" stroke-linejoin="round" stroke-width="2.75" d="M214.973 475.382l39.961 5.758c8.825 1.273 15.685-1.165 14.411 7.664l-.915 11.824a16.143 16.143 0 01-6.324 10.629 16.152 16.152 0 01-11.992 3.043l-39.961-5.758a16.171 16.171 0 01-10.631-6.323 16.154 16.154 0 01-3.047-11.984l1.016-11.3c1.282-8.821 8.674-4.835 17.482-3.553z" clip-rule="evenodd"/><path stroke="#F96132" stroke-linecap="round" stroke-linejoin="round" stroke-width="6.22" d="M134.452 428.484s-15.56-13.797-27.015-4.91c-12.421 9.653-23.086 22.717-13.587 35.448 7.168 9.62 47.812-7.705 65.977 3.836a312.03 312.03 0 0046.155 23.716"/><path fill="#fff" fill-rule="evenodd" stroke="#F96132" stroke-linecap="round" stroke-linejoin="round" stroke-width="2.75" d="M215.481 464.564l39.961 5.767a16.156 16.156 0 0113.679 18.306l-.175 1.207a16.143 16.143 0 01-6.324 10.629 16.17 16.17 0 01-11.992 3.043l-39.961-5.767a16.162 16.162 0 01-13.349-12.011 16.154 16.154 0 01-.329-6.296l.175-1.206a16.143 16.143 0 016.324-10.629 16.164 16.164 0 0111.991-3.043v0z" clip-rule="evenodd"/><path fill="#F96132" fill-rule="evenodd" d="M221.634 497.791l5.353-30.498z" clip-rule="evenodd"/><path stroke="#F96132" stroke-linecap="round" stroke-linejoin="round" stroke-width="2.75" d="M221.634 497.791l5.353-30.498"/><path fill="#F96132" fill-rule="evenodd" d="M199.156 477.753l24.934 3.853z" clip-rule="evenodd"/><path stroke="#F96132" stroke-linecap="round" stroke-linejoin="round" stroke-width="2.75" d="M199.156 477.753l24.934 3.853"/><path fill="#F96132" d="M492.987 120h5.032V87.589h-5.032V120zm10.422 0h4.852v-13.769c0-3.683 2.201-6.154 5.615-6.154 3.369 0 5.031 1.999 5.031 5.548V120h4.874v-15.296c0-5.435-2.987-8.782-8.176-8.782-3.571 0-5.997 1.617-7.232 4.02h-.112v-3.57h-4.852V120zm33.916.472c5.571 0 9.613-2.965 9.613-7.278v-.022c0-3.392-1.841-5.301-6.67-6.424l-3.841-.876c-2.538-.606-3.504-1.595-3.504-3.055v-.022c0-1.887 1.639-3.122 4.245-3.122 2.74 0 4.357 1.437 4.649 3.504l.023.157h4.559l-.022-.27c-.247-4.02-3.616-7.142-9.209-7.142-5.436 0-9.119 2.897-9.119 7.12v.022c0 3.437 2.223 5.593 6.716 6.626l3.863.876c2.538.607 3.392 1.483 3.392 3.01v.023c0 1.909-1.752 3.122-4.672 3.122-2.988 0-4.605-1.281-5.054-3.459l-.045-.225h-4.807l.023.202c.494 4.313 3.953 7.233 9.86 7.233zm21.675 0c.988 0 1.909-.113 2.471-.202v-3.751c-.36.044-.786.089-1.303.089-2.044 0-3.122-.718-3.122-3.122v-13.252h4.425v-3.863h-4.425v-6.154h-4.964v6.154h-3.392v3.863h3.392v13.544c0 4.717 2.246 6.694 6.918 6.694zm13.072-.045c3.122 0 5.863-1.617 7.233-4.156h.09V120h4.874v-16.284c0-4.74-3.662-7.794-9.434-7.794-5.817 0-9.344 3.122-9.681 7.187l-.022.247h4.582l.045-.202c.404-1.886 2.134-3.212 4.941-3.212 3.01 0 4.695 1.573 4.695 4.178v1.775l-6.424.381c-5.593.337-8.783 2.853-8.783 6.963v.045c0 4.245 3.167 7.143 7.884 7.143zm-2.987-7.255v-.045c0-1.999 1.617-3.279 4.537-3.459l5.773-.359v1.841c0 3.078-2.583 5.391-5.998 5.391-2.605 0-4.312-1.303-4.312-3.369zm20.08 6.828h4.852V87.589h-4.852V120zm10.018 0h4.851V87.589h-4.851V120zm19.181 0h4.852v-13.769c0-3.683 2.201-6.154 5.615-6.154 3.369 0 5.031 1.999 5.031 5.548V120h4.874v-15.296c0-5.435-2.987-8.782-8.175-8.782-3.572 0-5.998 1.617-7.233 4.02h-.112v-3.57h-4.852V120zm35.219.472c6.761 0 11.208-4.672 11.208-12.286v-.045c0-7.57-4.492-12.22-11.23-12.22-6.716 0-11.186 4.673-11.186 12.22v.045c0 7.591 4.425 12.286 11.208 12.286zm.022-4.066c-3.795 0-6.266-2.987-6.266-8.22v-.045c0-5.166 2.493-8.154 6.222-8.154 3.795 0 6.266 2.988 6.266 8.154v.045c0 5.21-2.426 8.22-6.222 8.22zM673.102 120h5.008l4.919-17.699h.113L688.105 120h5.054l6.469-23.629h-4.807l-4.312 18.598h-.113l-4.941-18.598h-4.672l-4.919 18.598h-.09l-4.312-18.598h-4.852L673.102 120zm25.336 6.514h3.414l3.279-11.5h-4.852l-1.841 11.5zM718.63 120h6.558v-19.137h4.627v-4.941h-4.784v-1.685c0-1.73.966-2.65 3.145-2.65.606 0 1.235.022 1.684.112v-4.335c-.763-.157-2.089-.27-3.301-.27-5.683 0-7.929 2.18-7.929 6.896v1.932h-3.279v4.941h3.279V120zm14.644 0h6.559v-13.566c0-3.392 1.887-5.346 5.121-5.346.943 0 1.842.135 2.381.359v-5.772a7.395 7.395 0 00-1.887-.247c-2.852 0-4.896 1.684-5.593 4.604h-.134v-4.11h-6.447V120zm26.909.494c6.873 0 10.197-4.065 10.938-7.614l.067-.247h-6.019l-.045.135c-.472 1.347-2.111 2.83-4.807 2.83-3.346 0-5.435-2.246-5.503-6.087h16.577v-2.022c0-7.277-4.425-12.061-11.478-12.061s-11.567 4.896-11.567 12.555v.023c0 7.704 4.469 12.488 11.837 12.488zm-.158-20.17c2.718 0 4.672 1.73 5.077 5.054h-10.22c.427-3.257 2.448-5.054 5.143-5.054zm25.718 20.17c6.873 0 10.197-4.065 10.939-7.614l.067-.247h-6.02l-.044.135c-.472 1.347-2.112 2.83-4.807 2.83-3.347 0-5.436-2.246-5.503-6.087h16.576v-2.022c0-7.277-4.425-12.061-11.477-12.061-7.053 0-11.568 4.896-11.568 12.555v.023c0 7.704 4.47 12.488 11.837 12.488zm-.157-20.17c2.718 0 4.672 1.73 5.076 5.054h-10.22c.427-3.257 2.449-5.054 5.144-5.054z"/></g><defs><clipPath id="clip0"><path fill="#fff" d="M0 0h1289v520H0z"/></clipPath></defs></svg>