<svg xmlns="http://www.w3.org/2000/svg" width="1331" height="557" fill="none" viewBox="0 0 1331 557"><rect width="666" height="557" fill="#1D4AFF" rx="108"/><rect width="666" height="557" x="388" fill="#F96132" rx="108"/><rect width="666" height="557" x="817" fill="#F7A501" rx="108"/><path fill="#fff" fill-rule="evenodd" d="M638.356 128.921C642.755 128.921 646.974 130.669 650.084 133.781C653.195 136.893 654.942 141.114 654.942 145.515V185.053C654.942 187.232 654.513 189.39 653.68 191.403C652.846 193.417 651.625 195.246 650.084 196.787C648.544 198.328 646.716 199.55 644.703 200.384C642.691 201.218 640.534 201.648 638.356 201.648C636.178 201.648 634.021 201.218 632.009 200.384C629.997 199.55 628.168 198.328 626.628 196.787C625.088 195.246 623.866 193.417 623.032 191.403C622.199 189.39 621.77 187.232 621.77 185.053V145.515C621.77 141.114 623.517 136.893 626.628 133.781C629.738 130.669 633.957 128.921 638.356 128.921Z" clip-rule="evenodd"/><path fill="#fff" fill-rule="evenodd" d="M598.259 211.174C602.658 211.174 606.877 212.923 609.988 216.035C613.098 219.147 614.846 223.368 614.846 227.769V267.306C614.846 271.708 613.098 275.929 609.988 279.041C606.877 282.153 602.658 283.901 598.259 283.901C593.86 283.901 589.641 282.153 586.531 279.041C583.42 275.929 581.673 271.708 581.673 267.306V227.769C581.673 223.368 583.42 219.147 586.531 216.035C589.641 212.923 593.86 211.174 598.259 211.174Z" clip-rule="evenodd"/><path fill="#fff" fill-rule="evenodd" d="M614.126 186.352C614.126 190.753 612.379 194.974 609.268 198.087C606.158 201.199 601.939 202.947 597.54 202.947H558.012C553.613 202.947 549.395 201.199 546.284 198.087C543.174 194.974 541.426 190.753 541.426 186.352C541.426 184.173 541.855 182.015 542.689 180.002C543.522 177.988 544.744 176.159 546.284 174.618C547.824 173.077 549.653 171.855 551.665 171.021C553.677 170.187 555.834 169.758 558.012 169.758H597.54C599.718 169.758 601.875 170.187 603.887 171.021C605.899 171.855 607.728 173.077 609.268 174.618C610.808 176.159 612.03 177.988 612.864 180.002C613.697 182.015 614.126 184.173 614.126 186.352Z" clip-rule="evenodd"/><path fill="#fff" fill-rule="evenodd" d="M621.91 227.049C621.91 224.87 622.339 222.712 623.172 220.699C624.006 218.685 625.228 216.856 626.768 215.315C628.308 213.774 630.136 212.552 632.149 211.718C634.161 210.884 636.318 210.455 638.496 210.455H677.993C682.392 210.455 686.611 212.203 689.722 215.315C692.832 218.427 694.58 222.648 694.58 227.049C694.58 231.451 692.832 235.671 689.722 238.784C686.611 241.896 682.392 243.644 677.993 243.644H638.496C634.097 243.644 629.878 241.896 626.768 238.784C623.657 235.671 621.91 231.451 621.91 227.049Z" clip-rule="evenodd"/><path fill="#fff" fill-rule="evenodd" d="M663.296 186.342C663.299 183.195 664.236 180.12 665.986 177.506C667.736 174.891 670.222 172.854 673.129 171.653C676.036 170.451 679.234 170.139 682.318 170.756C685.402 171.372 688.235 172.889 690.457 175.116C692.68 177.342 694.193 180.178 694.805 183.265C695.417 186.351 695.101 189.55 693.897 192.457C692.692 195.364 690.653 197.848 688.038 199.596C685.422 201.344 682.348 202.277 679.202 202.277C674.366 202.277 662.966 202.917 662.966 202.917C662.966 202.917 663.296 190.301 663.296 186.342Z" clip-rule="evenodd" opacity=".97"/><path fill="#fff" fill-rule="evenodd" d="M598.059 161.39C594.918 161.533 591.804 160.741 589.112 159.114C586.42 157.487 584.271 155.098 582.935 152.249C581.6 149.4 581.139 146.219 581.61 143.107C582.081 139.996 583.464 137.095 585.583 134.769C587.702 132.444 590.462 130.799 593.515 130.043C596.568 129.287 599.776 129.453 602.735 130.521C605.693 131.589 608.269 133.51 610.136 136.042C612.004 138.574 613.079 141.602 613.227 144.746C613.447 149.574 614.626 160.931 614.626 160.931C614.626 160.931 602.056 161.2 598.059 161.39Z" clip-rule="evenodd" opacity=".97"/><path fill="#fff" fill-rule="evenodd" d="M573.08 227.249C573.084 230.394 572.156 233.47 570.414 236.088C568.672 238.706 566.194 240.749 563.293 241.959C560.391 243.169 557.196 243.492 554.111 242.886C551.027 242.281 548.19 240.775 545.961 238.558C543.731 236.341 542.208 233.513 541.583 230.43C540.959 227.348 541.261 224.149 542.452 221.239C543.644 218.328 545.67 215.836 548.276 214.077C550.881 212.317 553.95 211.37 557.093 211.354C561.919 211.354 573.32 210.675 573.32 210.675C573.32 210.675 573.08 223.281 573.08 227.249Z" clip-rule="evenodd" opacity=".97"/><path fill="#fff" fill-rule="evenodd" d="M639.026 251.912C642.172 251.927 645.244 252.877 647.851 254.64C650.459 256.402 652.485 258.899 653.674 261.815C654.862 264.73 655.16 267.932 654.529 271.017C653.898 274.102 652.367 276.93 650.129 279.143C647.892 281.357 645.048 282.857 641.958 283.453C638.868 284.049 635.671 283.715 632.77 282.493C629.87 281.271 627.398 279.216 625.665 276.587C623.933 273.958 623.019 270.875 623.039 267.727C623.039 262.898 622.489 251.492 622.489 251.492C622.489 251.492 635.029 251.882 639.026 251.912Z" clip-rule="evenodd" opacity=".97"/><path fill="#fff" d="M559.263 392.208V387.456C563.871 390.592 568.479 392.16 573.087 392.16C575.487 392.16 577.327 391.808 578.607 391.104C579.919 390.368 580.575 389.04 580.575 387.12C580.575 385.488 579.887 384.304 578.511 383.568C577.167 382.832 574.879 382.096 571.647 381.36C567.071 380.304 563.935 379.072 562.239 377.664C560.575 376.224 559.743 374.208 559.743 371.616C559.743 365.792 563.615 362.88 571.359 362.88C575.263 362.88 579.071 363.792 582.783 365.616V369.936C577.567 368.112 573.551 367.2 570.735 367.2C568.719 367.2 567.183 367.552 566.127 368.256C565.071 368.96 564.543 370.128 564.543 371.76C564.543 373.136 565.135 374.192 566.319 374.928C567.535 375.632 569.647 376.336 572.655 377.04C577.519 378.16 580.847 379.392 582.639 380.736C584.463 382.048 585.375 384.208 585.375 387.216C585.375 393.392 581.279 396.48 573.087 396.48C570.751 396.48 568.271 396.08 565.647 395.28C563.023 394.48 560.895 393.456 559.263 392.208ZM591.149 362.4H595.949V396H591.149V362.4ZM620.847 391.2H623.727V396H616.047V393.6C614.607 395.52 612.383 396.48 609.375 396.48C606.623 396.48 604.495 395.648 602.991 393.984C601.519 392.288 600.783 390.24 600.783 387.84C600.783 385.44 601.519 383.408 602.991 381.744C604.495 380.048 606.623 379.2 609.375 379.2C612.383 379.2 614.607 380.16 616.047 382.08V376.32H603.567V372H620.847V391.2ZM606.879 391.008C607.775 391.776 609.087 392.16 610.815 392.16C612.543 392.16 613.839 391.776 614.703 391.008C615.599 390.24 616.047 389.184 616.047 387.84C616.047 386.496 615.599 385.44 614.703 384.672C613.839 383.904 612.543 383.52 610.815 383.52C609.087 383.52 607.775 383.904 606.879 384.672C606.015 385.44 605.583 386.496 605.583 387.84C605.583 389.184 606.015 390.24 606.879 391.008ZM629.395 393.12C627.539 390.88 626.611 387.84 626.611 384C626.611 380.16 627.539 377.12 629.395 374.88C631.251 372.64 633.907 371.52 637.363 371.52C640.467 371.52 642.899 372.4 644.659 374.16C646.451 375.888 647.347 378.208 647.347 381.12H642.547C642.451 379.456 642.035 378.16 641.299 377.232C640.563 376.304 639.331 375.84 637.603 375.84C635.331 375.84 633.731 376.432 632.803 377.616C631.875 378.8 631.411 380.928 631.411 384C631.411 387.072 631.875 389.2 632.803 390.384C633.731 391.568 635.331 392.16 637.603 392.16C639.331 392.16 640.563 391.696 641.299 390.768C642.035 389.84 642.451 388.544 642.547 386.88H647.347C647.347 389.792 646.451 392.128 644.659 393.888C642.899 395.616 640.467 396.48 637.363 396.48C633.907 396.48 631.251 395.36 629.395 393.12ZM673.721 372L665.513 384.048L673.721 396H667.913L661.193 386.208H657.449V396H652.649V362.4H657.449V381.888H661.193L667.913 372H673.721Z"/><path fill="#fff" fill-rule="evenodd" d="M1079.1 197.855V187.609V197.855Z" clip-rule="evenodd"/><path stroke="#fff" stroke-linecap="round" stroke-linejoin="round" stroke-width="4.87" d="M1079.1 197.855V187.609"/><path fill="#fff" fill-rule="evenodd" d="M995.712 268.281L1004.55 267.761L995.712 268.281Z" clip-rule="evenodd"/><path stroke="#fff" stroke-linecap="round" stroke-linejoin="round" stroke-width="4.87" d="M995.712 268.281L1004.55 267.761"/><path fill="#fff" fill-rule="evenodd" stroke="#fff" stroke-linecap="round" stroke-linejoin="round" stroke-width="4.87" d="M961.041 208.781C960.934 204.443 961.695 200.127 963.28 196.088C964.865 192.048 967.242 188.367 970.271 185.261C973.299 182.154 976.919 179.686 980.916 178C984.913 176.315 989.206 175.446 993.543 175.446C997.881 175.446 1002.17 176.315 1006.17 178C1010.17 179.686 1013.79 182.154 1016.82 185.261C1019.84 188.367 1022.22 192.048 1023.81 196.088C1025.39 200.127 1026.15 204.443 1026.05 208.781C1025.53 239.481 995.542 267.931 995.542 267.931C995.542 267.931 961.741 241.22 961.041 208.781Z" clip-rule="evenodd"/><path fill="#fff" fill-rule="evenodd" stroke="#fff" stroke-linecap="round" stroke-linejoin="round" stroke-width="4.87" d="M1102.33 146.093C1102.46 142.927 1101.95 139.766 1100.83 136.802C1099.71 133.838 1098 131.131 1095.81 128.845C1093.61 126.558 1090.98 124.738 1088.07 123.495C1085.15 122.253 1082.02 121.612 1078.85 121.612C1075.68 121.612 1072.55 122.253 1069.63 123.495C1066.72 124.738 1064.09 126.558 1061.89 128.845C1059.7 131.131 1057.99 133.838 1056.87 136.802C1055.75 139.766 1055.24 142.927 1055.37 146.093C1055.74 168.275 1077.42 188.838 1077.42 188.838C1077.42 188.838 1101.83 169.535 1102.33 146.093Z" clip-rule="evenodd"/><path fill="#fff" fill-rule="evenodd" d="M1012.01 265.332L1026.74 257.335L1012.01 265.332Z" clip-rule="evenodd"/><path stroke="#fff" stroke-linecap="round" stroke-linejoin="round" stroke-width="4.87" d="M1012.01 265.332L1026.74 257.335"/><path fill="#fff" fill-rule="evenodd" d="M1033.33 251.587L1039.39 236.672L1033.33 251.587Z" clip-rule="evenodd"/><path stroke="#fff" stroke-linecap="round" stroke-linejoin="round" stroke-width="4.87" d="M1033.33 251.587L1039.39 236.672"/><path fill="#fff" fill-rule="evenodd" d="M1044.04 225.786L1052.18 215.379L1044.04 225.786Z" clip-rule="evenodd"/><path stroke="#fff" stroke-linecap="round" stroke-linejoin="round" stroke-width="4.87" d="M1044.04 225.786L1052.18 215.379"/><path fill="#fff" fill-rule="evenodd" d="M1064.88 212.08L1075.11 207.402L1064.88 212.08Z" clip-rule="evenodd"/><path stroke="#fff" stroke-linecap="round" stroke-linejoin="round" stroke-width="4.87" d="M1064.88 212.08L1075.11 207.402"/><path fill="#F7A501" fill-rule="evenodd" stroke="#fff" stroke-linecap="round" stroke-linejoin="round" stroke-width="4.87" d="M978.037 210.951C977.969 207.833 978.832 204.766 980.514 202.14C982.196 199.515 984.621 197.451 987.481 196.211C990.341 194.97 993.505 194.611 996.57 195.177C999.635 195.744 1002.46 197.211 1004.69 199.392C1006.92 201.573 1008.45 204.368 1009.08 207.422C1009.71 210.475 1009.42 213.648 1008.25 216.536C1007.07 219.423 1005.06 221.895 1002.47 223.635C999.886 225.375 996.84 226.304 993.723 226.305C991.685 226.329 989.662 225.951 987.771 225.191C985.879 224.432 984.155 223.308 982.698 221.882C981.241 220.455 980.08 218.756 979.28 216.88C978.48 215.005 978.058 212.99 978.037 210.951Z" clip-rule="evenodd"/><path fill="#F7A501" fill-rule="evenodd" stroke="#fff" stroke-linecap="round" stroke-linejoin="round" stroke-width="4.87" d="M1087.26 148.322C1087.26 146.679 1086.78 145.074 1085.86 143.708C1084.95 142.343 1083.65 141.28 1082.13 140.653C1080.62 140.026 1078.95 139.864 1077.34 140.188C1075.73 140.511 1074.25 141.305 1073.09 142.47C1071.93 143.634 1071.15 145.116 1070.83 146.728C1070.52 148.34 1070.69 150.01 1071.32 151.525C1071.95 153.041 1073.02 154.334 1074.39 155.241C1075.76 156.147 1077.37 156.627 1079.01 156.619C1081.2 156.611 1083.3 155.733 1084.85 154.178C1086.4 152.623 1087.27 150.517 1087.26 148.322Z" clip-rule="evenodd"/><path fill="#fff" d="M948.729 384.04H958.281V397H953.481V386.056H939.129V397H934.329V364.36H945.081C947.577 364.36 949.689 364.616 951.417 365.128C953.145 365.64 954.457 366.408 955.353 367.432C956.249 368.424 956.873 369.512 957.225 370.696C957.609 371.848 957.801 373.224 957.801 374.824C957.801 377.576 957.145 379.608 955.833 380.92C954.553 382.232 952.185 383.016 948.729 383.272V384.04ZM939.129 381.736H945.081C948.249 381.736 950.361 381.288 951.417 380.392C952.473 379.464 953.001 377.768 953.001 375.304C953.001 372.744 952.473 371 951.417 370.072C950.361 369.144 948.249 368.68 945.081 368.68H939.129V381.736ZM982.539 394.12C980.523 396.36 977.707 397.48 974.091 397.48C970.475 397.48 967.659 396.36 965.643 394.12C963.627 391.848 962.619 388.808 962.619 385C962.619 381.192 963.627 378.168 965.643 375.928C967.659 373.656 970.475 372.52 974.091 372.52C977.707 372.52 980.523 373.656 982.539 375.928C984.555 378.168 985.563 381.192 985.563 385C985.563 388.808 984.555 391.848 982.539 394.12ZM968.859 391.432C969.851 392.584 971.595 393.16 974.091 393.16C976.587 393.16 978.315 392.584 979.275 391.432C980.267 390.248 980.763 388.104 980.763 385C980.763 381.896 980.267 379.768 979.275 378.616C978.315 377.432 976.587 376.84 974.091 376.84C971.595 376.84 969.851 377.432 968.859 378.616C967.899 379.768 967.419 381.896 967.419 385C967.419 388.104 967.899 390.248 968.859 391.432ZM1009.5 392.2H1012.38V397H1004.7V394.6C1003.26 396.52 1001.03 397.48 998.023 397.48C995.271 397.48 993.143 396.648 991.639 394.984C990.167 393.288 989.431 391.24 989.431 388.84C989.431 386.44 990.167 384.408 991.639 382.744C993.143 381.048 995.271 380.2 998.023 380.2C1001.03 380.2 1003.26 381.16 1004.7 383.08V377.32H992.215V373H1009.5V392.2ZM995.527 392.008C996.423 392.776 997.735 393.16 999.463 393.16C1001.19 393.16 1002.49 392.776 1003.35 392.008C1004.25 391.24 1004.7 390.184 1004.7 388.84C1004.7 387.496 1004.25 386.44 1003.35 385.672C1002.49 384.904 1001.19 384.52 999.463 384.52C997.735 384.52 996.423 384.904 995.527 385.672C994.663 386.44 994.231 387.496 994.231 388.84C994.231 390.184 994.663 391.24 995.527 392.008ZM1033.39 363.4H1038.19V397H1033.39V394.12C1031.82 396.36 1029.44 397.48 1026.24 397.48C1022.56 397.48 1019.89 396.36 1018.22 394.12C1016.56 391.848 1015.73 388.808 1015.73 385C1015.73 381.192 1016.56 378.168 1018.22 375.928C1019.89 373.656 1022.56 372.52 1026.24 372.52C1029.44 372.52 1031.82 373.64 1033.39 375.88V363.4ZM1021.97 391.288C1022.96 392.536 1024.62 393.16 1026.96 393.16C1029.3 393.16 1030.94 392.536 1031.9 391.288C1032.9 390.008 1033.39 387.912 1033.39 385C1033.39 382.088 1032.9 380.008 1031.9 378.76C1030.94 377.48 1029.3 376.84 1026.96 376.84C1024.62 376.84 1022.96 377.48 1021.97 378.76C1021.01 380.008 1020.53 382.088 1020.53 385C1020.53 387.912 1021.01 390.008 1021.97 391.288ZM1076.12 373V397H1071.32V377.32H1062.68V397H1057.88V377.32H1049.24V397H1044.44V373H1076.12ZM1101 392.2H1103.88V397H1096.2V394.6C1094.76 396.52 1092.53 397.48 1089.52 397.48C1086.77 397.48 1084.64 396.648 1083.14 394.984C1081.67 393.288 1080.93 391.24 1080.93 388.84C1080.93 386.44 1081.67 384.408 1083.14 382.744C1084.64 381.048 1086.77 380.2 1089.52 380.2C1092.53 380.2 1094.76 381.16 1096.2 383.08V377.32H1083.72V373H1101V392.2ZM1087.03 392.008C1087.92 392.776 1089.24 393.16 1090.96 393.16C1092.69 393.16 1093.99 392.776 1094.85 392.008C1095.75 391.24 1096.2 390.184 1096.2 388.84C1096.2 387.496 1095.75 386.44 1094.85 385.672C1093.99 384.904 1092.69 384.52 1090.96 384.52C1089.24 384.52 1087.92 384.904 1087.03 385.672C1086.16 386.44 1085.73 387.496 1085.73 388.84C1085.73 390.184 1086.16 391.24 1087.03 392.008ZM1121.12 372.52C1124.8 372.52 1127.48 373.656 1129.14 375.928C1130.8 378.168 1131.64 381.192 1131.64 385C1131.64 388.808 1130.8 391.848 1129.14 394.12C1127.48 396.36 1124.8 397.48 1121.12 397.48C1117.92 397.48 1115.54 396.36 1113.97 394.12V404.68H1109.17V373H1113.97V375.88C1115.54 373.64 1117.92 372.52 1121.12 372.52ZM1115.41 391.288C1116.4 392.536 1118.07 393.16 1120.4 393.16C1122.74 393.16 1124.39 392.536 1125.35 391.288C1126.34 390.008 1126.84 387.912 1126.84 385C1126.84 382.088 1126.34 380.008 1125.35 378.76C1124.39 377.48 1122.74 376.84 1120.4 376.84C1118.07 376.84 1116.4 377.48 1115.41 378.76C1114.45 380.008 1113.97 382.088 1113.97 385C1113.97 387.912 1114.45 390.008 1115.41 391.288Z"/><g clip-path="url(#clip0)"><path fill="#fff" fill-rule="evenodd" stroke="#fff" stroke-linecap="round" stroke-linejoin="round" stroke-width="2.75" d="M217.544 125.794C167.865 125.794 127.618 165.28 127.618 213.984C127.618 255.179 156.465 289.667 195.402 299.364L195.752 279.371C195.752 279.371 176.968 285.579 166.396 273.153C163.529 269.784 164.088 264.236 160.311 260.657C156.674 257.345 153.349 253.704 150.38 249.781C150.38 249.781 158.373 249.421 162.589 251.78C166.806 254.14 171.772 266.775 178.576 268.465C185.381 270.154 195.872 266.375 195.872 266.375L200.678 254.849C178.336 254.849 159.962 236.746 159.962 215.983C159.962 204.547 161.38 192.331 170.053 185.433C168.05 182.084 166.83 178.325 166.486 174.437C165.987 168.109 170.053 161.312 170.053 161.312C174.338 161.069 178.629 161.653 182.693 163.031C188.608 165.29 193.684 170.349 193.684 170.349C193.684 170.349 206.134 166.62 218.044 166.41C225.926 166.427 233.77 167.506 241.365 169.619C244.792 167.427 248.371 165.483 252.076 163.801C255.564 162.403 259.187 161.368 262.887 160.712C265.575 164.06 267.262 168.101 267.753 172.368C268.372 179.126 265.345 187.763 265.345 187.763C273.178 194.62 275.936 203.877 275.936 214.663C275.936 235.416 256.792 253.44 233.871 255.559C232.462 255.689 238.227 257.698 239.556 261.457C242.444 269.594 241.265 288.518 240.435 299.164C279.013 289.228 307.5 254.919 307.5 213.974C307.5 165.28 267.223 125.794 217.544 125.794Z" clip-rule="evenodd"/><path fill="#fff" d="M158.077 379.728H175.453V396H170.653V391.44H169.885C168.349 394.8 165.453 396.48 161.197 396.48C158.797 396.48 156.669 396.016 154.813 395.088C152.957 394.16 151.485 392.896 150.397 391.296C149.341 389.696 148.541 387.92 147.997 385.968C147.453 384.016 147.181 381.92 147.181 379.68C147.181 377.44 147.453 375.344 147.997 373.392C148.541 371.44 149.357 369.664 150.445 368.064C151.565 366.464 153.085 365.2 155.005 364.272C156.925 363.344 159.149 362.88 161.677 362.88C165.549 362.88 168.589 363.92 170.797 366C173.005 368.08 174.237 370.864 174.493 374.352H169.741C169.293 369.584 166.605 367.2 161.677 367.2C158.189 367.2 155.693 368.144 154.189 370.032C152.717 371.92 151.981 375.136 151.981 379.68C151.981 384.192 152.797 387.408 154.429 389.328C156.061 391.216 158.637 392.16 162.157 392.16C164.749 392.16 166.749 391.392 168.157 389.856C169.565 388.32 170.397 386.384 170.653 384.048H158.077V379.728ZM181.235 362.4H186.035V367.2H181.235V362.4ZM181.235 372H186.035V396H181.235V372ZM204.86 376.32H198.524V391.68H204.86V396H193.724V376.32H189.884V372H193.724V362.4H198.524V372H204.86V376.32ZM230.786 372V396H225.986V376.32H215.426V396H210.626V362.4H215.426V372H230.786ZM258.04 385.44C258.04 389.344 257.144 392.16 255.352 393.888C253.592 395.616 250.904 396.48 247.288 396.48C243.672 396.48 240.968 395.616 239.176 393.888C237.416 392.16 236.536 389.344 236.536 385.44V372H241.336V386.4C241.336 388.544 241.784 390.048 242.68 390.912C243.608 391.744 245.144 392.16 247.288 392.16C249.432 392.16 250.952 391.744 251.848 390.912C252.776 390.048 253.24 388.544 253.24 386.4V372H258.04V385.44ZM275.312 371.52C278.992 371.52 281.664 372.656 283.328 374.928C284.992 377.168 285.824 380.192 285.824 384C285.824 387.808 284.992 390.848 283.328 393.12C281.664 395.36 278.992 396.48 275.312 396.48C272.112 396.48 269.728 395.36 268.16 393.12V396H263.36V362.4H268.16V374.88C269.728 372.64 272.112 371.52 275.312 371.52ZM269.6 390.288C270.592 391.536 272.256 392.16 274.592 392.16C276.928 392.16 278.576 391.536 279.536 390.288C280.528 389.008 281.024 386.912 281.024 384C281.024 381.088 280.528 379.008 279.536 377.76C278.576 376.48 276.928 375.84 274.592 375.84C272.256 375.84 270.592 376.48 269.6 377.76C268.64 379.008 268.16 381.088 268.16 384C268.16 386.912 268.64 389.008 269.6 390.288Z"/><path fill="#fff" d="M159.178 441.03H162.028C161.868 439.89 161.528 438.89 161.008 438.03C160.488 437.15 159.838 436.42 159.058 435.84C158.278 435.26 157.388 434.82 156.388 434.52C155.388 434.22 154.328 434.07 153.208 434.07C151.568 434.07 150.108 434.37 148.828 434.97C147.568 435.55 146.508 436.35 145.648 437.37C144.808 438.39 144.168 439.59 143.728 440.97C143.288 442.33 143.068 443.79 143.068 445.35C143.068 446.91 143.268 448.37 143.668 449.73C144.088 451.09 144.708 452.27 145.528 453.27C146.348 454.27 147.378 455.06 148.618 455.64C149.858 456.2 151.308 456.48 152.968 456.48C155.708 456.48 157.868 455.73 159.448 454.23C161.028 452.73 161.958 450.63 162.238 447.93H159.388C159.328 448.81 159.148 449.63 158.848 450.39C158.548 451.15 158.128 451.81 157.588 452.37C157.068 452.91 156.438 453.34 155.698 453.66C154.978 453.96 154.148 454.11 153.208 454.11C151.928 454.11 150.828 453.87 149.908 453.39C148.988 452.91 148.228 452.27 147.628 451.47C147.048 450.65 146.618 449.7 146.338 448.62C146.058 447.52 145.918 446.36 145.918 445.14C145.918 444.02 146.058 442.94 146.338 441.9C146.618 440.86 147.048 439.94 147.628 439.14C148.228 438.32 148.978 437.67 149.878 437.19C150.798 436.71 151.898 436.47 153.178 436.47C154.678 436.47 155.968 436.85 157.048 437.61C158.148 438.37 158.858 439.51 159.178 441.03ZM167.209 448.26C167.209 447.32 167.329 446.49 167.569 445.77C167.829 445.03 168.179 444.41 168.619 443.91C169.059 443.41 169.569 443.03 170.149 442.77C170.749 442.51 171.379 442.38 172.039 442.38C172.699 442.38 173.319 442.51 173.899 442.77C174.499 443.03 175.019 443.41 175.459 443.91C175.899 444.41 176.239 445.03 176.479 445.77C176.739 446.49 176.869 447.32 176.869 448.26C176.869 449.2 176.739 450.04 176.479 450.78C176.239 451.5 175.899 452.11 175.459 452.61C175.019 453.09 174.499 453.46 173.899 453.72C173.319 453.98 172.699 454.11 172.039 454.11C171.379 454.11 170.749 453.98 170.149 453.72C169.569 453.46 169.059 453.09 168.619 452.61C168.179 452.11 167.829 451.5 167.569 450.78C167.329 450.04 167.209 449.2 167.209 448.26ZM164.509 448.26C164.509 449.4 164.669 450.46 164.989 451.44C165.309 452.42 165.789 453.28 166.429 454.02C167.069 454.74 167.859 455.31 168.799 455.73C169.739 456.13 170.819 456.33 172.039 456.33C173.279 456.33 174.359 456.13 175.279 455.73C176.219 455.31 177.009 454.74 177.649 454.02C178.289 453.28 178.769 452.42 179.089 451.44C179.409 450.46 179.569 449.4 179.569 448.26C179.569 447.12 179.409 446.06 179.089 445.08C178.769 444.08 178.289 443.22 177.649 442.5C177.009 441.76 176.219 441.18 175.279 440.76C174.359 440.34 173.279 440.13 172.039 440.13C170.819 440.13 169.739 440.34 168.799 440.76C167.859 441.18 167.069 441.76 166.429 442.5C165.789 443.22 165.309 444.08 164.989 445.08C164.669 446.06 164.509 447.12 164.509 448.26ZM182.575 440.49V456H185.125V447.24C185.125 446.54 185.215 445.9 185.395 445.32C185.595 444.72 185.885 444.2 186.265 443.76C186.645 443.32 187.115 442.98 187.675 442.74C188.255 442.5 188.935 442.38 189.715 442.38C190.695 442.38 191.465 442.66 192.025 443.22C192.585 443.78 192.865 444.54 192.865 445.5V456H195.415V445.8C195.415 444.96 195.325 444.2 195.145 443.52C194.985 442.82 194.695 442.22 194.275 441.72C193.855 441.22 193.305 440.83 192.625 440.55C191.945 440.27 191.095 440.13 190.075 440.13C187.775 440.13 186.095 441.07 185.035 442.95H184.975V440.49H182.575ZM202.785 440.49V435.84H200.235V440.49H197.595V442.74H200.235V452.61C200.235 453.33 200.305 453.91 200.445 454.35C200.585 454.79 200.795 455.13 201.075 455.37C201.375 455.61 201.755 455.78 202.215 455.88C202.695 455.96 203.265 456 203.925 456H205.875V453.75H204.705C204.305 453.75 203.975 453.74 203.715 453.72C203.475 453.68 203.285 453.61 203.145 453.51C203.005 453.41 202.905 453.27 202.845 453.09C202.805 452.91 202.785 452.67 202.785 452.37V442.74H205.875V440.49H202.785ZM208.618 440.49V456H211.168V449.1C211.168 448.1 211.268 447.22 211.468 446.46C211.668 445.68 211.988 445.02 212.428 444.48C212.868 443.94 213.448 443.53 214.168 443.25C214.888 442.97 215.758 442.83 216.778 442.83V440.13C215.398 440.09 214.258 440.37 213.358 440.97C212.458 441.57 211.698 442.5 211.078 443.76H211.018V440.49H208.618ZM221.398 437.7V434.58H218.848V437.7H221.398ZM218.848 440.49V456H221.398V440.49H218.848ZM225.439 434.58V456H227.989V453.93H228.049C228.329 454.39 228.669 454.78 229.069 455.1C229.489 455.4 229.929 455.64 230.389 455.82C230.849 456 231.309 456.13 231.769 456.21C232.249 456.29 232.679 456.33 233.059 456.33C234.239 456.33 235.269 456.12 236.149 455.7C237.049 455.28 237.789 454.71 238.369 453.99C238.969 453.25 239.409 452.39 239.689 451.41C239.989 450.43 240.139 449.39 240.139 448.29C240.139 447.19 239.989 446.15 239.689 445.17C239.389 444.19 238.939 443.33 238.339 442.59C237.759 441.83 237.019 441.23 236.119 440.79C235.239 440.35 234.199 440.13 232.999 440.13C231.919 440.13 230.929 440.33 230.029 440.73C229.129 441.11 228.469 441.73 228.049 442.59H227.989V434.58H225.439ZM237.439 448.11C237.439 448.87 237.359 449.61 237.199 450.33C237.039 451.05 236.779 451.69 236.419 452.25C236.059 452.81 235.579 453.26 234.979 453.6C234.399 453.94 233.669 454.11 232.789 454.11C231.909 454.11 231.159 453.95 230.539 453.63C229.919 453.29 229.409 452.85 229.009 452.31C228.629 451.77 228.349 451.15 228.169 450.45C227.989 449.73 227.899 448.99 227.899 448.23C227.899 447.51 227.979 446.8 228.139 446.1C228.319 445.4 228.599 444.78 228.979 444.24C229.359 443.68 229.849 443.23 230.449 442.89C231.049 442.55 231.779 442.38 232.639 442.38C233.459 442.38 234.169 442.54 234.769 442.86C235.389 443.18 235.889 443.61 236.269 444.15C236.669 444.69 236.959 445.31 237.139 446.01C237.339 446.69 237.439 447.39 237.439 448.11ZM255.972 456V440.49H253.422V449.25C253.422 449.95 253.322 450.6 253.122 451.2C252.942 451.78 252.662 452.29 252.282 452.73C251.902 453.17 251.422 453.51 250.842 453.75C250.282 453.99 249.612 454.11 248.832 454.11C247.852 454.11 247.082 453.83 246.522 453.27C245.962 452.71 245.682 451.95 245.682 450.99V440.49H243.132V450.69C243.132 451.53 243.212 452.3 243.372 453C243.552 453.68 243.852 454.27 244.272 454.77C244.692 455.27 245.242 455.66 245.922 455.94C246.602 456.2 247.452 456.33 248.472 456.33C249.612 456.33 250.602 456.11 251.442 455.67C252.282 455.21 252.972 454.5 253.512 453.54H253.572V456H255.972ZM263.342 440.49V435.84H260.792V440.49H258.152V442.74H260.792V452.61C260.792 453.33 260.862 453.91 261.002 454.35C261.142 454.79 261.352 455.13 261.632 455.37C261.932 455.61 262.312 455.78 262.772 455.88C263.252 455.96 263.822 456 264.482 456H266.432V453.75H265.262C264.862 453.75 264.532 453.74 264.272 453.72C264.032 453.68 263.842 453.61 263.702 453.51C263.562 453.41 263.462 453.27 263.402 453.09C263.362 452.91 263.342 452.67 263.342 452.37V442.74H266.432V440.49H263.342ZM280.035 446.76H271.125C271.165 446.16 271.295 445.6 271.515 445.08C271.735 444.54 272.035 444.07 272.415 443.67C272.795 443.27 273.245 442.96 273.765 442.74C274.305 442.5 274.905 442.38 275.565 442.38C276.205 442.38 276.785 442.5 277.305 442.74C277.845 442.96 278.305 443.27 278.685 443.67C279.085 444.05 279.395 444.51 279.615 445.05C279.855 445.59 279.995 446.16 280.035 446.76ZM282.495 451.08H279.975C279.755 452.1 279.295 452.86 278.595 453.36C277.915 453.86 277.035 454.11 275.955 454.11C275.115 454.11 274.385 453.97 273.765 453.69C273.145 453.41 272.635 453.04 272.235 452.58C271.835 452.1 271.545 451.56 271.365 450.96C271.185 450.34 271.105 449.69 271.125 449.01H282.735C282.775 448.07 282.685 447.08 282.465 446.04C282.265 445 281.885 444.04 281.325 443.16C280.785 442.28 280.055 441.56 279.135 441C278.235 440.42 277.095 440.13 275.715 440.13C274.655 440.13 273.675 440.33 272.775 440.73C271.895 441.13 271.125 441.69 270.465 442.41C269.825 443.13 269.325 443.98 268.965 444.96C268.605 445.94 268.425 447.02 268.425 448.2C268.465 449.38 268.635 450.47 268.935 451.47C269.255 452.47 269.725 453.33 270.345 454.05C270.965 454.77 271.725 455.33 272.625 455.73C273.545 456.13 274.625 456.33 275.865 456.33C277.625 456.33 279.085 455.89 280.245 455.01C281.405 454.13 282.155 452.82 282.495 451.08ZM285.678 452.67V456H289.008V452.67H285.678ZM288.768 441.18V434.58H285.918V441.18L286.668 450.51H288.018L288.768 441.18Z"/></g><defs><clipPath id="clip0"><rect width="303" height="377" fill="#fff" transform="translate(65 79)"/></clipPath></defs></svg>