<svg fill="none" viewBox="0 0 61 56"><path fill="#F7A501" fill-rule="evenodd" d="M0 0h60.181v55.898H0V0z" clip-rule="evenodd"/><path fill="#fff" fill-rule="evenodd" stroke="#F96132" stroke-linecap="round" stroke-linejoin="round" stroke-width="6.29" d="M8.547 8.024H51.12V47.56H8.547V8.024z" clip-rule="evenodd"/><path fill="#63709E" fill-rule="evenodd" d="M19.703 15.459h12.919v24.82H19.703V15.46z" clip-rule="evenodd"/><path fill="#35416B" fill-rule="evenodd" d="M32.586 15.459l5.689 4.189-.154 20.756-5.528-.11-.007-24.835z" clip-rule="evenodd"/><path fill="#fff" fill-rule="evenodd" d="M21.456 17.212h9.308a.4.4 0 01.403.398v2.37a.402.402 0 01-.403.398h-9.308a.401.401 0 01-.403-.398v-2.37a.402.402 0 01.403-.398zm-.036 4.447h9.308a.4.4 0 01.403.397v2.37a.397.397 0 01-.403.397H21.42a.398.398 0 01-.403-.397v-2.37a.398.398 0 01.403-.397z" clip-rule="evenodd"/><path stroke="#fff" stroke-linecap="round" stroke-linejoin="round" stroke-width=".933" d="M33.561 23.322l3.693 1.612c.221 0 .4.397.4.397v2.371c0 .219-.4.397-.4.397l-3.693-1.612a.401.401 0 01-.403-.397v-2.371a.401.401 0 01.403-.397v0z" clip-rule="evenodd"/><path fill="#fff" fill-rule="evenodd" d="M21.492 25.744h9.31a.4.4 0 01.4.398v2.369a.399.399 0 01-.4.397h-9.31a.398.398 0 01-.402-.397v-2.37a.4.4 0 01.402-.397zm-.036 4.194h9.308a.397.397 0 01.403.397v2.37a.4.4 0 01-.403.397h-9.308a.399.399 0 01-.403-.398v-2.37a.4.4 0 01.403-.396zm.036 4.157h9.31a.4.4 0 01.4.397v2.37a.399.399 0 01-.4.397h-9.31a.398.398 0 01-.402-.397v-2.37a.4.4 0 01.402-.397z" clip-rule="evenodd"/><path fill="#F96132" fill-rule="evenodd" d="M22.227 23.293a.397.397 0 11.794.014.397.397 0 01-.794-.014zm-.084-4.38a.397.397 0 11.795.012.397.397 0 01-.795-.011z" clip-rule="evenodd"/><path fill="#F7A501" fill-rule="evenodd" d="M22.102 27.36a.397.397 0 11.794.01.397.397 0 01-.794-.01z" clip-rule="evenodd"/><path fill="#F96132" fill-rule="evenodd" d="M22.352 31.537a.397.397 0 11.795.014.397.397 0 01-.795-.014zm.14 4.133a.399.399 0 01.68-.273.397.397 0 11-.68.273z" clip-rule="evenodd"/><path fill="#0316F0" fill-rule="evenodd" d="M23.856 23.278a.398.398 0 11.795.015.398.398 0 01-.795-.015z" clip-rule="evenodd"/><path fill="#F7A501" fill-rule="evenodd" d="M23.772 18.892a.397.397 0 11.794.011.397.397 0 01-.794-.01z" clip-rule="evenodd"/><path fill="#0316F0" fill-rule="evenodd" d="M23.73 27.345a.398.398 0 11.796.015.398.398 0 01-.796-.015z" clip-rule="evenodd"/><path fill="#F7A501" fill-rule="evenodd" d="M23.98 31.524a.398.398 0 11.797.012.398.398 0 01-.796-.012zm.14 4.131a.397.397 0 11.794.014.397.397 0 01-.794-.014zm1.521-12.68h3.917a.298.298 0 01.25.328c0 .181-.113.33-.25.33h-3.917c-.143 0-.247-.144-.247-.33 0-.181.11-.328.247-.328z" clip-rule="evenodd"/><path fill="#0316F0" fill-rule="evenodd" d="M25.558 18.588h3.917a.298.298 0 01.249.329.298.298 0 01-.25.328h-3.916c-.144 0-.247-.144-.247-.328 0-.182.11-.329.247-.329z" clip-rule="evenodd"/><path fill="#F96132" fill-rule="evenodd" d="M25.516 27.041h3.917a.298.298 0 01.249.328c0 .182-.112.33-.25.33h-3.916c-.144 0-.247-.144-.247-.33 0-.18.11-.328.247-.328z" clip-rule="evenodd"/><path fill="#0316F0" fill-rule="evenodd" d="M25.767 31.219h3.916c.144 0 .25.144.25.33a.298.298 0 01-.25.328h-3.916c-.144 0-.248-.144-.248-.329 0-.181.11-.33.248-.33z" clip-rule="evenodd"/><path fill="#F96132" fill-rule="evenodd" d="M25.9 35.352h3.917a.298.298 0 01.249.328.298.298 0 01-.249.328H25.9a.298.298 0 01-.248-.328.298.298 0 01.248-.328z" clip-rule="evenodd"/><path fill="#fff" fill-rule="evenodd" d="M33.584 24.14l.521.214v2.111l-.52-.21V24.14z" clip-rule="evenodd"/><path fill="#F7A501" fill-rule="evenodd" d="M34.276 25.14l.52.214.016 1.422-.521-.214-.015-1.422z" clip-rule="evenodd"/><path fill="#0316F0" fill-rule="evenodd" d="M34.997 25.823l.521.215v1.022l-.52-.214v-1.023z" clip-rule="evenodd"/><path fill="#fff" fill-rule="evenodd" d="M35.71 25.497l.52.214v1.65l-.52-.215v-1.65z" clip-rule="evenodd"/><path fill="#F96132" fill-rule="evenodd" d="M36.416 25.338l.52.215v2.113l-.52-.215v-2.113z" clip-rule="evenodd"/></svg>