<svg width="108" height="36" viewBox="0 0 108 36" fill="none" xmlns="http://www.w3.org/2000/svg">
  <path fill-rule="evenodd" clip-rule="evenodd"
    d="M25.2527 11.3273H18.3585C17.9921 11.3273 17.6951 11.0302 17.6951 10.6638V9.00537C17.6951 8.639 17.9921 8.34196 18.3585 8.34196C21.0773 8.34196 23.5281 9.48976 25.2527 11.3273ZM25.2527 24.2634C23.5281 26.1009 21.0773 27.2487 18.3585 27.2487C17.9921 27.2487 17.6951 26.9516 17.6951 26.5852V24.9268C17.6951 24.5604 17.9921 24.2634 18.3585 24.2634H25.2527ZM27.4811 20.283C27.1858 21.3682 26.7021 22.3757 26.0673 23.2683H18.3585C17.9921 23.2683 17.6951 22.9713 17.6951 22.6049V20.9464C17.6951 20.58 17.9921 20.283 18.3585 20.283H27.4811ZM27.6946 16.3027C27.7717 16.7889 27.8118 17.2874 27.8118 17.7953C27.8118 18.3032 27.7717 18.8018 27.6946 19.2879H18.3585C17.9921 19.2879 17.6951 18.991 17.6951 18.6246V16.9661C17.6951 16.5997 17.9921 16.3027 18.3585 16.3027H27.6946ZM26.0673 12.3223C26.7021 13.2149 27.1858 14.2224 27.4811 15.3076H18.3032C17.9368 15.3076 17.6398 15.0106 17.6398 14.6442V12.9857C17.6398 12.6194 17.9368 12.3223 18.3032 12.3223H26.0673Z"
    fill="#FFF5EC" />
  <path fill-rule="evenodd" clip-rule="evenodd"
    d="M18.3032 35.2093C8.68566 35.2093 0.88916 27.4128 0.88916 17.7953C0.88916 8.17779 8.68566 0.381287 18.3032 0.381287C27.9207 0.381287 35.7172 8.17779 35.7172 17.7953C35.7172 27.4128 27.9207 35.2093 18.3032 35.2093ZM18.3032 31.229C25.7224 31.229 31.7368 25.2145 31.7368 17.7953C31.7368 10.3761 25.7224 4.36163 18.3032 4.36163C10.884 4.36163 4.86951 10.3761 4.86951 17.7953C4.86951 25.2145 10.884 31.229 18.3032 31.229Z"
    fill="#FFF5EC" />
  <path fill-rule="evenodd" clip-rule="evenodd"
    d="M52.6188 28.7221L52.6218 28.724C54.3693 29.8176 56.3481 30.3532 58.5223 30.3532C60.6957 30.3532 62.6704 29.8179 64.4093 28.723C66.1448 27.6366 67.4962 26.1269 68.4631 24.2271C69.4483 22.3111 69.922 20.1246 69.922 17.7009C69.922 15.2592 69.449 13.0624 68.4632 11.145C67.4963 9.24516 66.1448 7.73538 64.4093 6.6489C62.6704 5.55406 60.6957 5.01877 58.5223 5.01877C56.3481 5.01877 54.3693 5.55437 52.6218 6.64799L52.6188 6.64985C50.8936 7.73649 49.5437 9.24536 48.5677 11.1425L48.5652 11.1474C47.5902 13.0642 47.1226 15.2601 47.1226 17.7009C47.1226 20.1236 47.5909 22.3091 48.5652 24.2246L48.5677 24.2295C49.5437 26.1266 50.8936 27.6355 52.6188 28.7221ZM61.3388 11.2433L61.3502 11.2504C62.1749 11.7609 62.862 12.5304 63.3937 13.6196C63.9104 14.678 64.1966 16.0233 64.1966 17.7009C64.1966 19.3665 63.9111 20.7066 63.3946 21.7656C62.8635 22.8443 62.1751 23.6175 61.3446 24.14C60.5103 24.6611 59.5796 24.9261 58.5223 24.9261C57.4689 24.9261 56.5341 24.6582 55.6885 24.1272C54.8668 23.6052 54.1815 22.831 53.6491 21.749C53.1338 20.7018 52.8479 19.3678 52.8479 17.7009C52.8479 16.0229 53.1342 14.6842 53.6491 13.6379L53.6508 13.6345C54.184 12.5423 54.8693 11.7652 55.6886 11.2446C56.5342 10.7137 57.469 10.4459 58.5223 10.4459C59.5764 10.4459 60.5049 10.7141 61.3388 11.2433Z"
    fill="#FFF5EC" />
  <path fill-rule="evenodd" clip-rule="evenodd"
    d="M90.8751 28.7953C90.8751 29.458 91.4123 29.9953 92.0751 29.9953H95.4004C96.0632 29.9953 96.6004 29.458 96.6004 28.7953V20.243H105.63C106.293 20.243 106.83 19.7057 106.83 19.043V16.1799C106.83 15.5171 106.293 14.9799 105.63 14.9799H96.6004V10.6845H106.48C107.143 10.6845 107.68 10.1472 107.68 9.48446V6.57665C107.68 5.91391 107.143 5.37665 106.48 5.37665H92.0751C91.4123 5.37665 90.8751 5.91391 90.8751 6.57665V28.7953Z"
    fill="#FFF5EC" />
  <path fill-rule="evenodd" clip-rule="evenodd"
    d="M85.0611 6.8747C86.8433 7.8793 88.2139 9.32863 89.1619 11.1906C90.1113 13.0455 90.5605 15.2147 90.5605 17.6562C90.5605 20.1084 90.106 22.288 89.1462 24.1529C88.1957 26.0191 86.8082 27.476 85.0003 28.4979L84.9953 28.5007C83.1783 29.5164 81.0328 29.9953 78.6091 29.9953H71.4216C70.7589 29.9953 70.2216 29.458 70.2216 28.7953V6.57665C70.2216 5.91391 70.7589 5.37665 71.4216 5.37665H78.8477C81.1896 5.37665 83.2762 5.85862 85.0611 6.8747ZM75.9469 24.7024H78.4153C79.9906 24.7024 81.189 24.406 82.0801 23.8939C82.9864 23.3688 83.6561 22.6212 84.1032 21.6133L84.105 21.6093C84.5769 20.5559 84.8352 19.2499 84.8352 17.6562C84.8352 16.059 84.5808 14.7636 84.1196 13.7321C83.6698 12.7262 83.0102 11.9878 82.1333 11.4743L82.1292 11.4719C81.268 10.9631 80.1223 10.6695 78.624 10.6695H75.9469V24.7024Z"
    fill="#FFF5EC" />
</svg>