<svg width="1023" height="414" viewBox="0 0 1023 414" fill="none" xmlns="http://www.w3.org/2000/svg">
<rect x="486.5" y="51.5" width="536" height="282" rx="4.5" stroke="white" stroke-opacity="0.5"/>
<line x1="487" y1="91.5" x2="1022" y2="91.5" stroke="white" stroke-opacity="0.5"/>
<line x1="487" y1="131.5" x2="1022" y2="131.5" stroke="white" stroke-opacity="0.5"/>
<line x1="487" y1="171.5" x2="1022" y2="171.5" stroke="white" stroke-opacity="0.5"/>
<line x1="487" y1="211.5" x2="1022" y2="211.5" stroke="white" stroke-opacity="0.5"/>
<line x1="487" y1="251.5" x2="1022" y2="251.5" stroke="white" stroke-opacity="0.5"/>
<line x1="487" y1="291.5" x2="1022" y2="291.5" stroke="white" stroke-opacity="0.5"/>
<path d="M487 252L600.028 291L696.102 211L794.06 171L903.32 211L1022 132" stroke="white" stroke-width="3"/>
<path d="M224.162 62.1362V60.6102H220.522V61.8982H222.65V62.4582C222.65 63.1022 222.51 63.6062 222.146 64.0262C221.754 64.4742 221.18 64.7262 220.522 64.7262C219.934 64.7262 219.402 64.5022 219.052 64.1242C218.562 63.5922 218.45 63.0182 218.45 61.0162C218.45 59.0142 218.562 58.4542 219.052 57.9222C219.402 57.5442 219.934 57.3062 220.522 57.3062C221.642 57.3062 222.37 57.9502 222.622 59.0422H224.148C223.868 57.3342 222.636 55.9482 220.522 55.9482C219.458 55.9482 218.59 56.3262 217.904 57.0122C216.924 57.9922 216.938 59.0982 216.938 61.0162C216.938 62.9342 216.924 64.0402 217.904 65.0202C218.59 65.7062 219.486 66.0842 220.522 66.0842C221.572 66.0842 222.51 65.7482 223.266 64.9502C223.924 64.2502 224.162 63.4242 224.162 62.1362Z" fill="white"/>
<path d="M233.66 66.0002L231.364 61.5902C232.484 61.2822 233.352 60.3722 233.352 58.9442C233.352 57.2502 232.148 56.0322 230.258 56.0322H226.394V66.0002H227.906V61.8002H229.796L231.896 66.0002H233.66ZM231.84 58.9582C231.84 59.9382 231.154 60.5122 230.146 60.5122H227.906V57.3902H230.146C231.154 57.3902 231.84 57.9782 231.84 58.9582Z" fill="white"/>
<path d="M242.904 66.0002L239.25 56.0322H238.032L234.378 66.0002H235.988L236.674 63.9982H240.608L241.294 66.0002H242.904ZM240.188 62.7102H237.122L238.676 58.2862L240.188 62.7102Z" fill="white"/>
<path d="M251.29 59.0562C251.29 57.3202 250.044 56.0322 248.098 56.0322H244.318V66.0002H245.83V62.0802H248.098C250.044 62.0802 251.29 60.7922 251.29 59.0562ZM249.778 59.0562C249.778 60.1062 249.064 60.7082 248.014 60.7082H245.83V57.3902H248.014C249.064 57.3902 249.778 58.0062 249.778 59.0562Z" fill="white"/>
<path d="M260.193 66.0002V56.0322H258.681V60.2882H254.635V56.0322H253.123V66.0002H254.635V61.6462H258.681V66.0002H260.193Z" fill="white"/>
<path d="M272.284 57.3902V56.0322H265.284V57.3902H268.028V66.0002H269.54V57.3902H272.284Z" fill="white"/>
<path d="M280.244 56.0322H278.592L276.506 60.4142L274.42 56.0322H272.768L275.75 61.8982V66.0002H277.262V61.8982L280.244 56.0322Z" fill="white"/>
<path d="M288.587 59.0562C288.587 57.3202 287.341 56.0322 285.395 56.0322H281.615V66.0002H283.127V62.0802H285.395C287.341 62.0802 288.587 60.7922 288.587 59.0562ZM287.075 59.0562C287.075 60.1062 286.361 60.7082 285.311 60.7082H283.127V57.3902H285.311C286.361 57.3902 287.075 58.0062 287.075 59.0562Z" fill="white"/>
<path d="M296.79 66.0002V64.6422H291.932V61.6462H296.076V60.3022H291.932V57.3902H296.79V56.0322H290.42V66.0002H296.79Z" fill="white"/>
<path d="M233.07 97.052V87.084H231.558V91.34H227.512V87.084H226V97.052H227.512V92.698H231.558V97.052H233.07Z" fill="white"/>
<path d="M237.192 97.052V87.084H235.68V97.052H237.192Z" fill="white"/>
<path d="M246.025 94.21C246.025 93.356 245.759 92.642 245.213 92.166C244.793 91.788 244.275 91.564 243.351 91.424L242.217 91.256C241.755 91.186 241.349 91.018 241.097 90.794C240.831 90.556 240.719 90.234 240.719 89.87C240.719 88.988 241.363 88.316 242.539 88.316C243.379 88.316 244.093 88.498 244.709 89.086L245.675 88.134C244.821 87.336 243.897 87 242.581 87C240.509 87 239.249 88.19 239.249 89.926C239.249 90.738 239.487 91.368 239.977 91.83C240.411 92.236 241.055 92.516 241.867 92.628L243.043 92.796C243.631 92.88 243.883 92.978 244.135 93.216C244.401 93.454 244.527 93.818 244.527 94.252C244.527 95.218 243.771 95.778 242.469 95.778C241.447 95.778 240.649 95.554 239.921 94.826L238.913 95.82C239.865 96.786 240.943 97.136 242.441 97.136C244.527 97.136 246.025 96.044 246.025 94.21Z" fill="white"/>
<path d="M254.171 88.442V87.084H247.171V88.442H249.915V97.052H251.427V88.442H254.171Z" fill="white"/>
<path d="M262.417 92.068C262.417 90.15 262.445 89.044 261.465 88.064C260.779 87.378 259.897 87 258.833 87C257.769 87 256.901 87.378 256.215 88.064C255.235 89.044 255.249 90.15 255.249 92.068C255.249 93.986 255.235 95.092 256.215 96.072C256.901 96.758 257.769 97.136 258.833 97.136C259.897 97.136 260.779 96.758 261.465 96.072C262.445 95.092 262.417 93.986 262.417 92.068ZM260.905 92.068C260.905 94.07 260.807 94.63 260.317 95.162C259.967 95.54 259.421 95.778 258.833 95.778C258.245 95.778 257.699 95.54 257.349 95.162C256.859 94.63 256.761 94.07 256.761 92.068C256.761 90.066 256.859 89.506 257.349 88.974C257.699 88.596 258.245 88.358 258.833 88.358C259.421 88.358 259.967 88.596 260.317 88.974C260.807 89.506 260.905 90.066 260.905 92.068Z" fill="white"/>
<path d="M271.93 97.052L269.634 92.642C270.754 92.334 271.622 91.424 271.622 89.996C271.622 88.302 270.418 87.084 268.528 87.084H264.664V97.052H266.176V92.852H268.066L270.166 97.052H271.93ZM270.11 90.01C270.11 90.99 269.424 91.564 268.416 91.564H266.176V88.442H268.416C269.424 88.442 270.11 89.03 270.11 90.01Z" fill="white"/>
<path d="M275.35 97.052V87.084H273.838V97.052H275.35Z" fill="white"/>
<path d="M284.729 94.07H283.203C282.965 95.078 282.279 95.778 281.173 95.778C280.585 95.778 280.053 95.554 279.703 95.176C279.213 94.644 279.101 94.07 279.101 92.068C279.101 90.066 279.213 89.492 279.703 88.96C280.053 88.582 280.585 88.358 281.173 88.358C282.279 88.358 282.951 89.058 283.189 90.066H284.729C284.379 88.078 283.007 87 281.173 87C280.137 87 279.241 87.378 278.555 88.064C277.575 89.044 277.589 90.15 277.589 92.068C277.589 93.986 277.575 95.092 278.555 96.072C279.241 96.758 280.137 97.136 281.173 97.136C282.979 97.136 284.393 96.058 284.729 94.07Z" fill="white"/>
<path d="M293.943 97.052L290.289 87.084H289.071L285.417 97.052H287.027L287.713 95.05H291.647L292.333 97.052H293.943ZM291.227 93.762H288.161L289.715 89.338L291.227 93.762Z" fill="white"/>
<path d="M301.671 97.052V95.694H296.869V87.084H295.357V97.052H301.671Z" fill="white"/>
<path d="M312.878 88.442V87.084H305.878V88.442H308.622V97.052H310.134V88.442H312.878Z" fill="white"/>
<path d="M321.86 97.052L319.564 92.642C320.684 92.334 321.552 91.424 321.552 89.996C321.552 88.302 320.348 87.084 318.458 87.084H314.594V97.052H316.106V92.852H317.996L320.096 97.052H321.86ZM320.04 90.01C320.04 90.99 319.354 91.564 318.346 91.564H316.106V88.442H318.346C319.354 88.442 320.04 89.03 320.04 90.01Z" fill="white"/>
<path d="M330.138 97.052V95.694H325.28V92.698H329.424V91.354H325.28V88.442H330.138V87.084H323.768V97.052H330.138Z" fill="white"/>
<path d="M339.707 97.052V87.084H338.195V94.084L333.589 87.084H332.203V97.052H333.715V90.038L338.321 97.052H339.707Z" fill="white"/>
<path d="M349.391 91.998C349.391 90.556 349.461 89.1 348.383 88.022C347.753 87.392 346.843 87.084 345.807 87.084H342.307V97.052H345.807C346.843 97.052 347.753 96.744 348.383 96.114C349.461 95.036 349.391 93.44 349.391 91.998ZM347.879 91.998C347.879 93.37 347.865 94.448 347.347 95.022C346.927 95.484 346.367 95.694 345.653 95.694H343.819V88.442H345.653C346.367 88.442 346.927 88.652 347.347 89.114C347.865 89.688 347.879 90.626 347.879 91.998Z" fill="white"/>
<path d="M357.861 94.21C357.861 93.356 357.595 92.642 357.049 92.166C356.629 91.788 356.111 91.564 355.187 91.424L354.053 91.256C353.591 91.186 353.185 91.018 352.933 90.794C352.667 90.556 352.555 90.234 352.555 89.87C352.555 88.988 353.199 88.316 354.375 88.316C355.215 88.316 355.929 88.498 356.545 89.086L357.511 88.134C356.657 87.336 355.733 87 354.417 87C352.345 87 351.085 88.19 351.085 89.926C351.085 90.738 351.323 91.368 351.813 91.83C352.247 92.236 352.891 92.516 353.703 92.628L354.879 92.796C355.467 92.88 355.719 92.978 355.971 93.216C356.237 93.454 356.363 93.818 356.363 94.252C356.363 95.218 355.607 95.778 354.305 95.778C353.283 95.778 352.485 95.554 351.757 94.826L350.749 95.82C351.701 96.786 352.779 97.136 354.277 97.136C356.363 97.136 357.861 96.044 357.861 94.21Z" fill="white"/>
<rect x="216.5" y="79.5" width="230" height="25.136" rx="3.5" stroke="white" stroke-opacity="0.5"/>
<path d="M223.532 152.158C223.532 151.304 223.266 150.59 222.72 150.114C222.3 149.736 221.782 149.512 220.858 149.372L219.724 149.204C219.262 149.134 218.856 148.966 218.604 148.742C218.338 148.504 218.226 148.182 218.226 147.818C218.226 146.936 218.87 146.264 220.046 146.264C220.886 146.264 221.6 146.446 222.216 147.034L223.182 146.082C222.328 145.284 221.404 144.948 220.088 144.948C218.016 144.948 216.756 146.138 216.756 147.874C216.756 148.686 216.994 149.316 217.484 149.778C217.918 150.184 218.562 150.464 219.374 150.576L220.55 150.744C221.138 150.828 221.39 150.926 221.642 151.164C221.908 151.402 222.034 151.766 222.034 152.2C222.034 153.166 221.278 153.726 219.976 153.726C218.954 153.726 218.156 153.502 217.428 152.774L216.42 153.768C217.372 154.734 218.45 155.084 219.948 155.084C222.034 155.084 223.532 153.992 223.532 152.158ZM231.678 146.39V145.032H224.678V146.39H227.422V155H228.934V146.39H231.678ZM239.764 155V153.642H234.906V150.646H239.05V149.302H234.906V146.39H239.764V145.032H233.394V155H239.764ZM248.801 148.056C248.801 146.32 247.555 145.032 245.609 145.032H241.829V155H243.341V151.08H245.609C247.555 151.08 248.801 149.792 248.801 148.056ZM247.289 148.056C247.289 149.106 246.575 149.708 245.525 149.708H243.341V146.39H245.525C246.575 146.39 247.289 147.006 247.289 148.056ZM256.864 152.158C256.864 151.304 256.598 150.59 256.052 150.114C255.632 149.736 255.114 149.512 254.19 149.372L253.056 149.204C252.594 149.134 252.188 148.966 251.936 148.742C251.67 148.504 251.558 148.182 251.558 147.818C251.558 146.936 252.202 146.264 253.378 146.264C254.218 146.264 254.932 146.446 255.548 147.034L256.514 146.082C255.66 145.284 254.736 144.948 253.42 144.948C251.348 144.948 250.088 146.138 250.088 147.874C250.088 148.686 250.326 149.316 250.816 149.778C251.25 150.184 251.894 150.464 252.706 150.576L253.882 150.744C254.47 150.828 254.722 150.926 254.974 151.164C255.24 151.402 255.366 151.766 255.366 152.2C255.366 153.166 254.61 153.726 253.308 153.726C252.286 153.726 251.488 153.502 250.76 152.774L249.752 153.768C250.704 154.734 251.782 155.084 253.28 155.084C255.366 155.084 256.864 153.992 256.864 152.158Z" fill="white"/>
<path d="M235.26 189V180.456H234.036L232.368 181.896V183.252L234.036 181.788V189H235.26Z" fill="white"/>
<rect x="225" y="175" width="18" height="18" rx="9" stroke="white" stroke-width="2"/>
<path d="M259.154 185.624V179.016H257.642V185.554C257.642 186.884 256.816 187.71 255.57 187.71C254.324 187.71 253.512 186.884 253.512 185.554V179.016H252V185.624C252 187.682 253.54 189.068 255.57 189.068C257.6 189.068 259.154 187.682 259.154 185.624Z" fill="white"/>
<path d="M267.831 186.142C267.831 185.288 267.565 184.574 267.019 184.098C266.599 183.72 266.081 183.496 265.157 183.356L264.023 183.188C263.561 183.118 263.155 182.95 262.903 182.726C262.637 182.488 262.525 182.166 262.525 181.802C262.525 180.92 263.169 180.248 264.345 180.248C265.185 180.248 265.899 180.43 266.515 181.018L267.481 180.066C266.627 179.268 265.703 178.932 264.387 178.932C262.315 178.932 261.055 180.122 261.055 181.858C261.055 182.67 261.293 183.3 261.783 183.762C262.217 184.168 262.861 184.448 263.673 184.56L264.849 184.728C265.437 184.812 265.689 184.91 265.941 185.148C266.207 185.386 266.333 185.75 266.333 186.184C266.333 187.15 265.577 187.71 264.275 187.71C263.253 187.71 262.455 187.486 261.727 186.758L260.719 187.752C261.671 188.718 262.749 189.068 264.247 189.068C266.333 189.068 267.831 187.976 267.831 186.142Z" fill="white"/>
<path d="M276.229 188.984V187.626H271.371V184.63H275.515V183.286H271.371V180.374H276.229V179.016H269.859V188.984H276.229Z" fill="white"/>
<path d="M285.561 188.984L283.265 184.574C284.385 184.266 285.253 183.356 285.253 181.928C285.253 180.234 284.049 179.016 282.159 179.016H278.295V188.984H279.807V184.784H281.697L283.797 188.984H285.561ZM283.741 181.942C283.741 182.922 283.055 183.496 282.047 183.496H279.807V180.374H282.047C283.055 180.374 283.741 180.962 283.741 181.942Z" fill="white"/>
<path d="M297.062 186.142C297.062 185.288 296.796 184.574 296.25 184.098C295.83 183.72 295.312 183.496 294.388 183.356L293.254 183.188C292.792 183.118 292.386 182.95 292.134 182.726C291.868 182.488 291.756 182.166 291.756 181.802C291.756 180.92 292.4 180.248 293.576 180.248C294.416 180.248 295.13 180.43 295.746 181.018L296.712 180.066C295.858 179.268 294.934 178.932 293.618 178.932C291.546 178.932 290.286 180.122 290.286 181.858C290.286 182.67 290.524 183.3 291.014 183.762C291.448 184.168 292.092 184.448 292.904 184.56L294.08 184.728C294.668 184.812 294.92 184.91 295.172 185.148C295.438 185.386 295.564 185.75 295.564 186.184C295.564 187.15 294.808 187.71 293.506 187.71C292.484 187.71 291.686 187.486 290.958 186.758L289.95 187.752C290.902 188.718 291.98 189.068 293.478 189.068C295.564 189.068 297.062 187.976 297.062 186.142Z" fill="white"/>
<path d="M300.602 188.984V179.016H299.09V188.984H300.602Z" fill="white"/>
<path d="M310.065 185.12V183.594H306.425V184.882H308.553V185.442C308.553 186.086 308.413 186.59 308.049 187.01C307.657 187.458 307.083 187.71 306.425 187.71C305.837 187.71 305.305 187.486 304.955 187.108C304.465 186.576 304.353 186.002 304.353 184C304.353 181.998 304.465 181.438 304.955 180.906C305.305 180.528 305.837 180.29 306.425 180.29C307.545 180.29 308.273 180.934 308.525 182.026H310.051C309.771 180.318 308.539 178.932 306.425 178.932C305.361 178.932 304.493 179.31 303.807 179.996C302.827 180.976 302.841 182.082 302.841 184C302.841 185.918 302.827 187.024 303.807 188.004C304.493 188.69 305.389 189.068 306.425 189.068C307.475 189.068 308.413 188.732 309.169 187.934C309.827 187.234 310.065 186.408 310.065 185.12Z" fill="white"/>
<path d="M319.801 188.984V179.016H318.289V186.016L313.683 179.016H312.297V188.984H313.809V181.97L318.415 188.984H319.801Z" fill="white"/>
<path d="M328.77 188.984V187.626H323.912V184.63H328.056V183.286H323.912V180.374H328.77V179.016H322.4V188.984H328.77Z" fill="white"/>
<path d="M337.92 183.93C337.92 182.488 337.99 181.032 336.912 179.954C336.282 179.324 335.372 179.016 334.336 179.016H330.836V188.984H334.336C335.372 188.984 336.282 188.676 336.912 188.046C337.99 186.968 337.92 185.372 337.92 183.93ZM336.408 183.93C336.408 185.302 336.394 186.38 335.876 186.954C335.456 187.416 334.896 187.626 334.182 187.626H332.348V180.374H334.182C334.896 180.374 335.456 180.584 335.876 181.046C336.394 181.62 336.408 182.558 336.408 183.93Z" fill="white"/>
<path d="M350.523 185.624V179.016H349.011V185.554C349.011 186.884 348.185 187.71 346.939 187.71C345.693 187.71 344.881 186.884 344.881 185.554V179.016H343.369V185.624C343.369 187.682 344.909 189.068 346.939 189.068C348.969 189.068 350.523 187.682 350.523 185.624Z" fill="white"/>
<path d="M359.942 182.04C359.942 180.304 358.696 179.016 356.75 179.016H352.97V188.984H354.482V185.064H356.75C358.696 185.064 359.942 183.776 359.942 182.04ZM358.43 182.04C358.43 183.09 357.716 183.692 356.666 183.692H354.482V180.374H356.666C357.716 180.374 358.43 180.99 358.43 182.04Z" fill="white"/>
<rect x="216.5" y="168.5" width="230" height="31" rx="3.5" stroke="white" stroke-opacity="0.5"/>
<path d="M236.724 229V227.908H233.244L235.92 224.632C236.448 223.984 236.724 223.54 236.724 222.784C236.724 221.308 235.716 220.384 234.252 220.384C232.8 220.384 231.768 221.344 231.768 222.796H232.992C232.992 221.836 233.604 221.476 234.252 221.476C235.044 221.476 235.5 222.004 235.5 222.772C235.5 223.204 235.368 223.516 235.044 223.912L231.756 227.908V229H236.724Z" fill="white"/>
<rect x="225" y="215" width="18" height="18" rx="9" stroke="white" stroke-width="2"/>
<path d="M259.154 225.624V219.016H257.642V225.554C257.642 226.884 256.816 227.71 255.57 227.71C254.324 227.71 253.512 226.884 253.512 225.554V219.016H252V225.624C252 227.682 253.54 229.068 255.57 229.068C257.6 229.068 259.154 227.682 259.154 225.624Z" fill="white"/>
<path d="M267.831 226.142C267.831 225.288 267.565 224.574 267.019 224.098C266.599 223.72 266.081 223.496 265.157 223.356L264.023 223.188C263.561 223.118 263.155 222.95 262.903 222.726C262.637 222.488 262.525 222.166 262.525 221.802C262.525 220.92 263.169 220.248 264.345 220.248C265.185 220.248 265.899 220.43 266.515 221.018L267.481 220.066C266.627 219.268 265.703 218.932 264.387 218.932C262.315 218.932 261.055 220.122 261.055 221.858C261.055 222.67 261.293 223.3 261.783 223.762C262.217 224.168 262.861 224.448 263.673 224.56L264.849 224.728C265.437 224.812 265.689 224.91 265.941 225.148C266.207 225.386 266.333 225.75 266.333 226.184C266.333 227.15 265.577 227.71 264.275 227.71C263.253 227.71 262.455 227.486 261.727 226.758L260.719 227.752C261.671 228.718 262.749 229.068 264.247 229.068C266.333 229.068 267.831 227.976 267.831 226.142Z" fill="white"/>
<path d="M276.229 228.984V227.626H271.371V224.63H275.515V223.286H271.371V220.374H276.229V219.016H269.859V228.984H276.229Z" fill="white"/>
<path d="M285.561 228.984L283.265 224.574C284.385 224.266 285.253 223.356 285.253 221.928C285.253 220.234 284.049 219.016 282.159 219.016H278.295V228.984H279.807V224.784H281.697L283.797 228.984H285.561ZM283.741 221.942C283.741 222.922 283.055 223.496 282.047 223.496H279.807V220.374H282.047C283.055 220.374 283.741 220.962 283.741 221.942Z" fill="white"/>
<path d="M297.832 225.624V219.016H296.32V225.554C296.32 226.884 295.494 227.71 294.248 227.71C293.002 227.71 292.19 226.884 292.19 225.554V219.016H290.678V225.624C290.678 227.682 292.218 229.068 294.248 229.068C296.278 229.068 297.832 227.682 297.832 225.624Z" fill="white"/>
<path d="M307.251 222.04C307.251 220.304 306.005 219.016 304.059 219.016H300.279V228.984H301.791V225.064H304.059C306.005 225.064 307.251 223.776 307.251 222.04ZM305.739 222.04C305.739 223.09 305.025 223.692 303.975 223.692H301.791V220.374H303.975C305.025 220.374 305.739 220.99 305.739 222.04Z" fill="white"/>
<path d="M315.944 225.12V223.594H312.304V224.882H314.432V225.442C314.432 226.086 314.292 226.59 313.928 227.01C313.536 227.458 312.962 227.71 312.304 227.71C311.716 227.71 311.184 227.486 310.834 227.108C310.344 226.576 310.232 226.002 310.232 224C310.232 221.998 310.344 221.438 310.834 220.906C311.184 220.528 311.716 220.29 312.304 220.29C313.424 220.29 314.152 220.934 314.404 222.026H315.93C315.65 220.318 314.418 218.932 312.304 218.932C311.24 218.932 310.372 219.31 309.686 219.996C308.706 220.976 308.72 222.082 308.72 224C308.72 225.918 308.706 227.024 309.686 228.004C310.372 228.69 311.268 229.068 312.304 229.068C313.354 229.068 314.292 228.732 315.048 227.934C315.706 227.234 315.944 226.408 315.944 225.12Z" fill="white"/>
<path d="M325.441 228.984L323.145 224.574C324.265 224.266 325.133 223.356 325.133 221.928C325.133 220.234 323.929 219.016 322.039 219.016H318.175V228.984H319.687V224.784H321.577L323.677 228.984H325.441ZM323.621 221.942C323.621 222.922 322.935 223.496 321.927 223.496H319.687V220.374H321.927C322.935 220.374 323.621 220.962 323.621 221.942Z" fill="white"/>
<path d="M334.685 228.984L331.031 219.016H329.813L326.159 228.984H327.769L328.455 226.982H332.389L333.075 228.984H334.685ZM331.969 225.694H328.903L330.457 221.27L331.969 225.694Z" fill="white"/>
<path d="M343.183 223.93C343.183 222.488 343.253 221.032 342.175 219.954C341.545 219.324 340.635 219.016 339.599 219.016H336.099V228.984H339.599C340.635 228.984 341.545 228.676 342.175 228.046C343.253 226.968 343.183 225.372 343.183 223.93ZM341.671 223.93C341.671 225.302 341.657 226.38 341.139 226.954C340.719 227.416 340.159 227.626 339.445 227.626H337.611V220.374H339.445C340.159 220.374 340.719 220.584 341.139 221.046C341.657 221.62 341.671 222.558 341.671 223.93Z" fill="white"/>
<path d="M351.794 228.984V227.626H346.936V224.63H351.08V223.286H346.936V220.374H351.794V219.016H345.424V228.984H351.794Z" fill="white"/>
<path d="M360.943 223.93C360.943 222.488 361.013 221.032 359.935 219.954C359.305 219.324 358.395 219.016 357.359 219.016H353.859V228.984H357.359C358.395 228.984 359.305 228.676 359.935 228.046C361.013 226.968 360.943 225.372 360.943 223.93ZM359.431 223.93C359.431 225.302 359.417 226.38 358.899 226.954C358.479 227.416 357.919 227.626 357.205 227.626H355.371V220.374H357.205C357.919 220.374 358.479 220.584 358.899 221.046C359.417 221.62 359.431 222.558 359.431 223.93Z" fill="white"/>
<rect x="216.5" y="208.5" width="230" height="31" rx="3.5" stroke="white" stroke-opacity="0.5"/>
<path fill-rule="evenodd" clip-rule="evenodd" d="M229 264C229 263.448 229.448 263 230 263H238C238.552 263 239 263.448 239 264C239 264.552 238.552 265 238 265H230C229.448 265 229 264.552 229 264Z" fill="white"/>
<path fill-rule="evenodd" clip-rule="evenodd" d="M234 269C233.448 269 233 268.552 233 268V260C233 259.448 233.448 259 234 259C234.552 259 235 259.448 235 260V268C235 268.552 234.552 269 234 269Z" fill="white"/>
<rect x="225" y="255" width="18" height="18" rx="9" stroke="white" stroke-width="2"/>
<g opacity="0.75">
<path d="M260.526 268.984L256.872 259.016H255.654L252 268.984H253.61L254.296 266.982H258.23L258.916 268.984H260.526ZM257.81 265.694H254.744L256.298 261.27L257.81 265.694Z" fill="white"/>
<path d="M269.024 263.93C269.024 262.488 269.094 261.032 268.016 259.954C267.386 259.324 266.476 259.016 265.44 259.016H261.94V268.984H265.44C266.476 268.984 267.386 268.676 268.016 268.046C269.094 266.968 269.024 265.372 269.024 263.93ZM267.512 263.93C267.512 265.302 267.498 266.38 266.98 266.954C266.56 267.416 266 267.626 265.286 267.626H263.452V260.374H265.286C266 260.374 266.56 260.584 266.98 261.046C267.498 261.62 267.512 262.558 267.512 263.93Z" fill="white"/>
<path d="M278.348 263.93C278.348 262.488 278.418 261.032 277.34 259.954C276.71 259.324 275.8 259.016 274.764 259.016H271.264V268.984H274.764C275.8 268.984 276.71 268.676 277.34 268.046C278.418 266.968 278.348 265.372 278.348 263.93ZM276.836 263.93C276.836 265.302 276.822 266.38 276.304 266.954C275.884 267.416 275.324 267.626 274.61 267.626H272.776V260.374H274.61C275.324 260.374 275.884 260.584 276.304 261.046C276.822 261.62 276.836 262.558 276.836 263.93Z" fill="white"/>
<path d="M290.182 266.142C290.182 265.288 289.916 264.574 289.37 264.098C288.95 263.72 288.432 263.496 287.508 263.356L286.374 263.188C285.912 263.118 285.506 262.95 285.254 262.726C284.988 262.488 284.876 262.166 284.876 261.802C284.876 260.92 285.52 260.248 286.696 260.248C287.536 260.248 288.25 260.43 288.866 261.018L289.832 260.066C288.978 259.268 288.054 258.932 286.738 258.932C284.666 258.932 283.406 260.122 283.406 261.858C283.406 262.67 283.644 263.3 284.134 263.762C284.568 264.168 285.212 264.448 286.024 264.56L287.2 264.728C287.788 264.812 288.04 264.91 288.292 265.148C288.558 265.386 288.684 265.75 288.684 266.184C288.684 267.15 287.928 267.71 286.626 267.71C285.604 267.71 284.806 267.486 284.078 266.758L283.07 267.752C284.022 268.718 285.1 269.068 286.598 269.068C288.684 269.068 290.182 267.976 290.182 266.142Z" fill="white"/>
<path d="M298.328 260.374V259.016H291.328V260.374H294.072V268.984H295.584V260.374H298.328Z" fill="white"/>
<path d="M306.414 268.984V267.626H301.556V264.63H305.7V263.286H301.556V260.374H306.414V259.016H300.044V268.984H306.414Z" fill="white"/>
<path d="M315.451 262.04C315.451 260.304 314.205 259.016 312.259 259.016H308.479V268.984H309.991V265.064H312.259C314.205 265.064 315.451 263.776 315.451 262.04ZM313.939 262.04C313.939 263.09 313.225 263.692 312.175 263.692H309.991V260.374H312.175C313.225 260.374 313.939 260.99 313.939 262.04Z" fill="white"/>
</g>
<rect x="216.5" y="248.5" width="230" height="31" rx="3.5" stroke="white" stroke-opacity="0.5"/>
<path d="M225.984 13.8881V10.9121H213.72V13.8881H218.184V28.0001H221.52V13.8881H225.984Z" fill="white"/>
<path d="M241.639 28.0001L237.823 20.6321C239.479 20.0321 240.943 18.5441 240.943 16.1441C240.943 13.2881 238.879 10.9121 235.399 10.9121H228.703V28.0001H232.039V21.1841H234.439L237.775 28.0001H241.639ZM237.607 16.1441C237.607 17.4641 236.647 18.4001 235.183 18.4001H232.039V13.8881H235.183C236.647 13.8881 237.607 14.8241 237.607 16.1441Z" fill="white"/>
<path d="M255.662 28.0001V25.0241H247.742V20.8721H254.486V17.8961H247.742V13.8881H255.662V10.9121H244.406V28.0001H255.662Z" fill="white"/>
<path d="M272.017 28.0001V10.9121H268.681V21.3761L261.913 10.9121H258.937V28.0001H262.273V17.5121L269.041 28.0001H272.017Z" fill="white"/>
<path d="M288.408 19.3841C288.408 16.8161 288.6 14.4641 286.68 12.5441C285.552 11.4161 283.944 10.9121 282.168 10.9121H276V28.0001H282.168C283.944 28.0001 285.552 27.4961 286.68 26.3681C288.6 24.4481 288.408 21.9521 288.408 19.3841ZM285.072 19.3841C285.072 21.9761 284.976 23.2001 284.352 23.9681C283.776 24.6641 283.008 25.0241 281.856 25.0241H279.336V13.8881H281.856C283.008 13.8881 283.776 14.2481 284.352 14.9441C284.976 15.7121 285.072 16.7921 285.072 19.3841Z" fill="white"/>
<path d="M302.86 22.9601C302.86 21.4481 302.452 20.2001 301.54 19.3361C300.82 18.6641 299.836 18.2321 298.276 18.0161L296.26 17.7281C295.564 17.6321 295.012 17.3681 294.676 17.0561C294.316 16.7201 294.172 16.2641 294.172 15.8321C294.172 14.6561 295.036 13.6721 296.812 13.6721C297.94 13.6721 299.236 13.8161 300.316 14.8481L302.428 12.7601C300.964 11.3441 299.26 10.7681 296.908 10.7681C293.212 10.7681 290.956 12.9041 290.956 15.9521C290.956 17.3921 291.364 18.4961 292.18 19.3121C292.948 20.0561 294.028 20.5121 295.492 20.7281L297.556 21.0161C298.348 21.1361 298.732 21.3041 299.068 21.6161C299.428 21.9521 299.596 22.4561 299.596 23.0561C299.596 24.4241 298.54 25.1681 296.572 25.1681C294.988 25.1681 293.524 24.8081 292.444 23.7281L290.284 25.8881C291.964 27.5921 293.932 28.1441 296.524 28.1441C300.1 28.1441 302.86 26.2721 302.86 22.9601Z" fill="white"/>
<path d="M570.037 15.07H568.511C568.273 16.078 567.587 16.778 566.481 16.778C565.893 16.778 565.361 16.554 565.011 16.176C564.521 15.644 564.409 15.07 564.409 13.068C564.409 11.066 564.521 10.492 565.011 9.96C565.361 9.582 565.893 9.358 566.481 9.358C567.587 9.358 568.259 10.058 568.497 11.066H570.037C569.687 9.078 568.315 8 566.481 8C565.445 8 564.549 8.378 563.863 9.064C562.883 10.044 562.897 11.15 562.897 13.068C562.897 14.986 562.883 16.092 563.863 17.072C564.549 17.758 565.445 18.136 566.481 18.136C568.287 18.136 569.701 17.058 570.037 15.07Z" fill="white"/>
<path d="M578.856 13.068C578.856 11.15 578.884 10.044 577.904 9.064C577.218 8.378 576.336 8 575.272 8C574.208 8 573.34 8.378 572.654 9.064C571.674 10.044 571.688 11.15 571.688 13.068C571.688 14.986 571.674 16.092 572.654 17.072C573.34 17.758 574.208 18.136 575.272 18.136C576.336 18.136 577.218 17.758 577.904 17.072C578.884 16.092 578.856 14.986 578.856 13.068ZM577.344 13.068C577.344 15.07 577.246 15.63 576.756 16.162C576.406 16.54 575.86 16.778 575.272 16.778C574.684 16.778 574.138 16.54 573.788 16.162C573.298 15.63 573.2 15.07 573.2 13.068C573.2 11.066 573.298 10.506 573.788 9.974C574.138 9.596 574.684 9.358 575.272 9.358C575.86 9.358 576.406 9.596 576.756 9.974C577.246 10.506 577.344 11.066 577.344 13.068Z" fill="white"/>
<path d="M588.607 18.052V8.084H587.095V15.084L582.489 8.084H581.103V18.052H582.615V11.038L587.221 18.052H588.607Z" fill="white"/>
<path d="M597.731 8.084H596.135L593.839 15.336L591.543 8.084H589.975L593.251 18.052H594.427L597.731 8.084Z" fill="white"/>
<path d="M605.479 18.052V16.694H600.621V13.698H604.765V12.354H600.621V9.442H605.479V8.084H599.109V18.052H605.479Z" fill="white"/>
<path d="M614.811 18.052L612.515 13.642C613.635 13.334 614.503 12.424 614.503 10.996C614.503 9.302 613.299 8.084 611.409 8.084H607.545V18.052H609.057V13.852H610.947L613.047 18.052H614.811ZM612.991 11.01C612.991 11.99 612.305 12.564 611.297 12.564H609.057V9.442H611.297C612.305 9.442 612.991 10.03 612.991 11.01Z" fill="white"/>
<path d="M622.949 15.21C622.949 14.356 622.683 13.642 622.137 13.166C621.717 12.788 621.199 12.564 620.275 12.424L619.141 12.256C618.679 12.186 618.273 12.018 618.021 11.794C617.755 11.556 617.643 11.234 617.643 10.87C617.643 9.988 618.287 9.316 619.463 9.316C620.303 9.316 621.017 9.498 621.633 10.086L622.599 9.134C621.745 8.336 620.821 8 619.505 8C617.433 8 616.173 9.19 616.173 10.926C616.173 11.738 616.411 12.368 616.901 12.83C617.335 13.236 617.979 13.516 618.791 13.628L619.967 13.796C620.555 13.88 620.807 13.978 621.059 14.216C621.325 14.454 621.451 14.818 621.451 15.252C621.451 16.218 620.695 16.778 619.393 16.778C618.371 16.778 617.573 16.554 616.845 15.826L615.837 16.82C616.789 17.786 617.867 18.136 619.365 18.136C621.451 18.136 622.949 17.044 622.949 15.21Z" fill="white"/>
<path d="M626.488 18.052V8.084H624.976V18.052H626.488Z" fill="white"/>
<path d="M635.896 13.068C635.896 11.15 635.924 10.044 634.944 9.064C634.258 8.378 633.376 8 632.312 8C631.248 8 630.38 8.378 629.694 9.064C628.714 10.044 628.728 11.15 628.728 13.068C628.728 14.986 628.714 16.092 629.694 17.072C630.38 17.758 631.248 18.136 632.312 18.136C633.376 18.136 634.258 17.758 634.944 17.072C635.924 16.092 635.896 14.986 635.896 13.068ZM634.384 13.068C634.384 15.07 634.286 15.63 633.796 16.162C633.446 16.54 632.9 16.778 632.312 16.778C631.724 16.778 631.178 16.54 630.828 16.162C630.338 15.63 630.24 15.07 630.24 13.068C630.24 11.066 630.338 10.506 630.828 9.974C631.178 9.596 631.724 9.358 632.312 9.358C632.9 9.358 633.446 9.596 633.796 9.974C634.286 10.506 634.384 11.066 634.384 13.068Z" fill="white"/>
<path d="M645.646 18.052V8.084H644.134V15.084L639.528 8.084H638.142V18.052H639.654V11.038L644.26 18.052H645.646Z" fill="white"/>
<path d="M662.347 8.084H660.751L659.015 15.21L657.013 8.084H655.795L653.793 15.21L652.057 8.084H650.461L653.065 18.052H654.381L656.397 11.066L658.427 18.052H659.743L662.347 8.084Z" fill="white"/>
<path d="M665.316 18.052V8.084H663.804V18.052H665.316Z" fill="white"/>
<path d="M675.424 18.052V8.084H673.912V15.084L669.306 8.084H667.92V18.052H669.432V11.038L674.038 18.052H675.424Z" fill="white"/>
<path d="M685.107 12.998C685.107 11.556 685.177 10.1 684.099 9.022C683.469 8.392 682.559 8.084 681.523 8.084H678.023V18.052H681.523C682.559 18.052 683.469 17.744 684.099 17.114C685.177 16.036 685.107 14.44 685.107 12.998ZM683.595 12.998C683.595 14.37 683.581 15.448 683.063 16.022C682.643 16.484 682.083 16.694 681.369 16.694H679.535V9.442H681.369C682.083 9.442 682.643 9.652 683.063 10.114C683.581 10.688 683.595 11.626 683.595 12.998Z" fill="white"/>
<path d="M694.151 13.068C694.151 11.15 694.179 10.044 693.199 9.064C692.513 8.378 691.631 8 690.567 8C689.503 8 688.635 8.378 687.949 9.064C686.969 10.044 686.983 11.15 686.983 13.068C686.983 14.986 686.969 16.092 687.949 17.072C688.635 17.758 689.503 18.136 690.567 18.136C691.631 18.136 692.513 17.758 693.199 17.072C694.179 16.092 694.151 14.986 694.151 13.068ZM692.639 13.068C692.639 15.07 692.541 15.63 692.051 16.162C691.701 16.54 691.155 16.778 690.567 16.778C689.979 16.778 689.433 16.54 689.083 16.162C688.593 15.63 688.495 15.07 688.495 13.068C688.495 11.066 688.593 10.506 689.083 9.974C689.433 9.596 689.979 9.358 690.567 9.358C691.155 9.358 691.701 9.596 692.051 9.974C692.541 10.506 692.639 11.066 692.639 13.068Z" fill="white"/>
<path d="M706.999 8.084H705.403L703.667 15.21L701.665 8.084H700.447L698.445 15.21L696.709 8.084H695.113L697.717 18.052H699.033L701.049 11.066L703.079 18.052H704.395L706.999 8.084Z" fill="white"/>
<path d="M731.373 18.052V8.084H729.945L727.999 9.764V11.346L729.945 9.638V18.052H731.373Z" fill="white"/>
<path d="M740.84 16.554V15.224H739.776V12.9H738.39V15.224H735.912L739.412 8.084H737.872L734.358 15.224V16.554H738.39V18.052H739.776V16.554H740.84Z" fill="white"/>
<path d="M753.082 12.998C753.082 11.556 753.152 10.1 752.074 9.022C751.444 8.392 750.534 8.084 749.498 8.084H745.998V18.052H749.498C750.534 18.052 751.444 17.744 752.074 17.114C753.152 16.036 753.082 14.44 753.082 12.998ZM751.57 12.998C751.57 14.37 751.556 15.448 751.038 16.022C750.618 16.484 750.058 16.694 749.344 16.694H747.51V9.442H749.344C750.058 9.442 750.618 9.652 751.038 10.114C751.556 10.688 751.57 11.626 751.57 12.998Z" fill="white"/>
<path d="M762.521 18.052L758.867 8.084H757.649L753.995 18.052H755.605L756.291 16.05H760.225L760.911 18.052H762.521ZM759.805 14.762H756.739L758.293 10.338L759.805 14.762Z" fill="white"/>
<path d="M769.687 8.084H768.035L765.949 12.466L763.863 8.084H762.211L765.193 13.95V18.052H766.705V13.95L769.687 8.084Z" fill="white"/>
<path d="M777.289 15.21C777.289 14.356 777.023 13.642 776.477 13.166C776.057 12.788 775.539 12.564 774.615 12.424L773.481 12.256C773.019 12.186 772.613 12.018 772.361 11.794C772.095 11.556 771.983 11.234 771.983 10.87C771.983 9.988 772.627 9.316 773.803 9.316C774.643 9.316 775.357 9.498 775.973 10.086L776.939 9.134C776.085 8.336 775.161 8 773.845 8C771.773 8 770.513 9.19 770.513 10.926C770.513 11.738 770.751 12.368 771.241 12.83C771.675 13.236 772.319 13.516 773.131 13.628L774.307 13.796C774.895 13.88 775.147 13.978 775.399 14.216C775.665 14.454 775.791 14.818 775.791 15.252C775.791 16.218 775.035 16.778 773.733 16.778C772.711 16.778 771.913 16.554 771.185 15.826L770.177 16.82C771.129 17.786 772.207 18.136 773.705 18.136C775.791 18.136 777.289 17.044 777.289 15.21Z" fill="white"/>
<rect x="718.499" y="0.5" width="70" height="25.136" rx="3.5" stroke="white" stroke-opacity="0.5"/>
<path d="M826.491 9.45616V8.09816H819.491V9.45616H822.235V18.0662H823.747V9.45616H826.491Z" fill="white"/>
<path d="M829.719 18.0662V8.09816H828.207V18.0662H829.719Z" fill="white"/>
<path d="M841.114 18.0662V8.09816H839.602L836.746 14.3002L833.834 8.09816H832.322V18.0662H833.834V11.4022L836.186 16.2602H837.306L839.602 11.4022V18.0662H841.114Z" fill="white"/>
<path d="M850.081 18.0662V16.7082H845.223V13.7122H849.367V12.3682H845.223V9.45616H850.081V8.09816H843.711V18.0662H850.081Z" fill="white"/>
<path d="M862.776 18.0662L860.48 13.6562C861.6 13.3482 862.468 12.4382 862.468 11.0102C862.468 9.31616 861.264 8.09816 859.374 8.09816H855.51V18.0662H857.022V13.8662H858.912L861.012 18.0662H862.776ZM860.956 11.0242C860.956 12.0042 860.27 12.5782 859.262 12.5782H857.022V9.45616H859.262C860.27 9.45616 860.956 10.0442 860.956 11.0242Z" fill="white"/>
<path d="M872.02 18.0662L868.366 8.09816H867.148L863.494 18.0662H865.104L865.79 16.0642H869.724L870.41 18.0662H872.02ZM869.304 14.7762H866.238L867.792 10.3522L869.304 14.7762Z" fill="white"/>
<path d="M880.938 18.0662V8.09816H879.426V15.0982L874.82 8.09816H873.434V18.0662H874.946V11.0522L879.552 18.0662H880.938Z" fill="white"/>
<path d="M890.397 14.2022V12.6762H886.757V13.9642H888.885V14.5242C888.885 15.1682 888.745 15.6722 888.381 16.0922C887.989 16.5402 887.415 16.7922 886.757 16.7922C886.169 16.7922 885.637 16.5682 885.287 16.1902C884.797 15.6582 884.685 15.0842 884.685 13.0822C884.685 11.0802 884.797 10.5202 885.287 9.98816C885.637 9.61016 886.169 9.37216 886.757 9.37216C887.877 9.37216 888.605 10.0162 888.857 11.1082H890.383C890.103 9.40016 888.871 8.01416 886.757 8.01416C885.693 8.01416 884.825 8.39216 884.139 9.07816C883.159 10.0582 883.173 11.1642 883.173 13.0822C883.173 15.0002 883.159 16.1062 884.139 17.0862C884.825 17.7722 885.721 18.1502 886.757 18.1502C887.807 18.1502 888.745 17.8142 889.501 17.0162C890.159 16.3162 890.397 15.4902 890.397 14.2022Z" fill="white"/>
<path d="M898.999 18.0662V16.7082H894.141V13.7122H898.285V12.3682H894.141V9.45616H898.999V8.09816H892.629V18.0662H898.999Z" fill="white"/>
<path d="M926.971 11.122C926.971 9.386 925.725 8.098 923.779 8.098H919.999V18.066H921.511V14.146H923.779C925.725 14.146 926.971 12.858 926.971 11.122ZM925.459 11.122C925.459 12.172 924.745 12.774 923.695 12.774H921.511V9.456H923.695C924.745 9.456 925.459 10.072 925.459 11.122Z" fill="white"/>
<path d="M935.442 18.066L931.788 8.098H930.57L926.916 18.066H928.526L929.212 16.064H933.146L933.832 18.066H935.442ZM932.726 14.776H929.66L931.214 10.352L932.726 14.776Z" fill="white"/>
<path d="M943.086 15.224C943.086 14.37 942.82 13.656 942.274 13.18C941.854 12.802 941.336 12.578 940.412 12.438L939.278 12.27C938.816 12.2 938.41 12.032 938.158 11.808C937.892 11.57 937.78 11.248 937.78 10.884C937.78 10.002 938.424 9.33 939.6 9.33C940.44 9.33 941.154 9.512 941.77 10.1L942.736 9.148C941.882 8.35 940.958 8.014 939.642 8.014C937.57 8.014 936.31 9.204 936.31 10.94C936.31 11.752 936.548 12.382 937.038 12.844C937.472 13.25 938.116 13.53 938.928 13.642L940.104 13.81C940.692 13.894 940.944 13.992 941.196 14.23C941.462 14.468 941.588 14.832 941.588 15.266C941.588 16.232 940.832 16.792 939.53 16.792C938.508 16.792 937.71 16.568 936.982 15.84L935.974 16.834C936.926 17.8 938.004 18.15 939.502 18.15C941.588 18.15 943.086 17.058 943.086 15.224Z" fill="white"/>
<path d="M951.232 9.456V8.098H944.232V9.456H946.976V18.066H948.488V9.456H951.232Z" fill="white"/>
<path d="M961.702 15.266C961.702 14.034 961.156 13.292 960.302 12.914C961.072 12.536 961.548 11.85 961.548 10.786C961.548 9.134 960.344 8 958.65 8C957.054 8 955.808 9.022 955.724 10.716H957.152C957.222 9.834 957.782 9.288 958.65 9.288C959.462 9.288 960.12 9.82 960.12 10.828C960.12 11.738 959.644 12.34 958.608 12.34H958.37V13.586H958.608C959.728 13.586 960.274 14.216 960.274 15.224C960.274 16.274 959.574 16.876 958.65 16.876C957.824 16.876 957.082 16.428 957.026 15.364H955.598C955.654 17.31 957.054 18.164 958.65 18.164C960.316 18.164 961.702 17.184 961.702 15.266Z" fill="white"/>
<path d="M969.082 15.294V10.87C969.082 9.092 967.78 8.014 966.198 8.014C964.616 8.014 963.328 9.092 963.328 10.87V15.294C963.328 17.072 964.616 18.15 966.198 18.15C967.78 18.15 969.082 17.072 969.082 15.294ZM967.654 15.252C967.654 16.218 967.108 16.876 966.198 16.876C965.288 16.876 964.756 16.218 964.756 15.252V10.912C964.756 9.946 965.288 9.288 966.198 9.288C967.108 9.288 967.654 9.946 967.654 10.912V15.252Z" fill="white"/>
<path d="M981.688 13.012C981.688 11.57 981.758 10.114 980.68 9.036C980.05 8.406 979.14 8.098 978.104 8.098H974.604V18.066H978.104C979.14 18.066 980.05 17.758 980.68 17.128C981.758 16.05 981.688 14.454 981.688 13.012ZM980.176 13.012C980.176 14.384 980.162 15.462 979.644 16.036C979.224 16.498 978.664 16.708 977.95 16.708H976.116V9.456H977.95C978.664 9.456 979.224 9.666 979.644 10.128C980.162 10.702 980.176 11.64 980.176 13.012Z" fill="white"/>
<path d="M991.128 18.066L987.474 8.098H986.256L982.602 18.066H984.212L984.898 16.064H988.832L989.518 18.066H991.128ZM988.412 14.776H985.346L986.9 10.352L988.412 14.776Z" fill="white"/>
<path d="M998.294 8.098H996.642L994.556 12.48L992.47 8.098H990.818L993.8 13.964V18.066H995.312V13.964L998.294 8.098Z" fill="white"/>
<path d="M1005.9 15.224C1005.9 14.37 1005.63 13.656 1005.08 13.18C1004.66 12.802 1004.15 12.578 1003.22 12.438L1002.09 12.27C1001.63 12.2 1001.22 12.032 1000.97 11.808C1000.7 11.57 1000.59 11.248 1000.59 10.884C1000.59 10.002 1001.23 9.33 1002.41 9.33C1003.25 9.33 1003.96 9.512 1004.58 10.1L1005.55 9.148C1004.69 8.35 1003.77 8.014 1002.45 8.014C1000.38 8.014 999.119 9.204 999.119 10.94C999.119 11.752 999.357 12.382 999.847 12.844C1000.28 13.25 1000.93 13.53 1001.74 13.642L1002.91 13.81C1003.5 13.894 1003.75 13.992 1004.01 14.23C1004.27 14.468 1004.4 14.832 1004.4 15.266C1004.4 16.232 1003.64 16.792 1002.34 16.792C1001.32 16.792 1000.52 16.568 999.791 15.84L998.783 16.834C999.735 17.8 1000.81 18.15 1002.31 18.15C1004.4 18.15 1005.9 17.058 1005.9 15.224Z" fill="white"/>
<rect x="910.499" y="0.5" width="111" height="25.164" rx="3.5" stroke="white" stroke-opacity="0.5"/>
<path fill-rule="evenodd" clip-rule="evenodd" d="M0 29.4081C0 28.5172 1.07714 28.071 1.70711 28.701L6.29049 33.2844C6.48799 33.4819 6.57972 33.7233 6.58513 33.9618C6.59707 34.4839 6.19504 34.9916 5.58339 34.9916H1C0.447715 34.9916 0 34.5439 0 33.9916V33.9915V29.4083V29.4081ZM9.997 34.9017L9.99707 34.9017V34.9916H15.5805C16.3557 34.9916 16.7942 34.1761 16.4799 33.5492C16.433 33.4556 16.3693 33.3662 16.2875 33.2844L1.70711 18.704C1.07714 18.074 0 18.5202 0 19.4111V19.4112V24.5803V24.5804C0 24.8456 0.105357 25.0999 0.292893 25.2875L9.997 34.9916V34.9017ZM0 14.5833C0 14.8485 0.105357 15.1029 0.292893 15.2904L9.997 24.9945L10.29 25.2875L19.7011 34.6986C19.7012 34.6987 19.7012 34.6987 19.7013 34.6988L19.9941 34.9916V34.9017C20.1229 34.9603 20.264 34.9915 20.4082 34.9915H25.5774C26.4683 34.9915 26.9145 33.9144 26.2845 33.2844L19.7012 26.7011L9.99707 16.997L9.997 16.9969L1.70711 8.70701L1.70711 8.70701C1.15589 8.15579 0.262298 8.42848 0.047514 9.10211C0.0168304 9.19834 0 9.30275 0 9.41412V14.5833ZM9.997 14.5833C9.997 14.8485 10.1024 15.1029 10.2899 15.2904L28.2839 33.2844C28.9139 33.9144 29.991 33.4682 29.991 32.5773V27.4081C29.991 27.1429 29.8856 26.8885 29.6981 26.701L19.7081 16.711L19.7012 16.704L11.7042 8.70701C11.5128 8.51567 11.2803 8.42361 11.0491 8.41313C10.5192 8.38906 9.997 8.79377 9.997 9.41412V14.5833ZM21.7011 8.70701C21.0711 8.07704 19.994 8.52321 19.994 9.41412V14.5833C19.994 14.8485 20.0994 15.1029 20.2869 15.2904L28.2839 23.2874C28.9139 23.9174 29.991 23.4712 29.991 22.5803V17.4111C29.991 17.1459 29.8856 16.8915 29.6981 16.704L21.7011 8.70701ZM33.1124 20.1181L42.5251 29.5309C43.7358 30.7416 45.3079 31.5092 46.9886 31.728C47.5363 31.7993 47.9859 32.2403 47.9859 32.7926V33.9917C47.9859 34.5439 47.5382 34.9917 46.9859 34.9917H32.4053C31.853 34.9917 31.4053 34.5439 31.4053 33.9917V20.8252C31.4053 19.9343 32.4824 19.4882 33.1124 20.1181ZM34.6043 30.1931C34.6043 31.076 35.3209 31.7926 36.2038 31.7926C37.0868 31.7926 37.8034 31.076 37.8034 30.1931C37.8034 29.3102 37.0868 28.5936 36.2038 28.5936C35.3209 28.5936 34.6043 29.3102 34.6043 30.1931Z" fill="white"/>
<path d="M17.238 95.026C17.238 93.528 17.35 92.156 16.23 91.036C15.572 90.378 14.634 90.084 13.598 90.084H10V100.052H13.598C14.634 100.052 15.572 99.758 16.23 99.1C17.35 97.98 17.238 96.524 17.238 95.026ZM15.292 95.026C15.292 96.538 15.236 97.252 14.872 97.7C14.536 98.106 14.088 98.316 13.416 98.316H11.946V91.82H13.416C14.088 91.82 14.536 92.03 14.872 92.436C15.236 92.884 15.292 93.514 15.292 95.026Z" fill="white"/>
<path d="M26.7918 100.052L23.1518 90.084H21.6258L17.9998 100.052H20.0298L20.6318 98.288H24.1738L24.7618 100.052H26.7918ZM23.6558 96.65H21.1778L22.4378 93.024L23.6558 96.65Z" fill="white"/>
<path d="M34.4595 97.112C34.4595 96.23 34.2215 95.502 33.6895 94.998C33.2695 94.606 32.6955 94.354 31.7855 94.228L30.6095 94.06C30.2035 94.004 29.8815 93.85 29.6855 93.668C29.4755 93.472 29.3915 93.206 29.3915 92.954C29.3915 92.268 29.8955 91.694 30.9315 91.694C31.5895 91.694 32.3455 91.778 32.9755 92.38L34.2075 91.162C33.3535 90.336 32.3595 90 30.9875 90C28.8315 90 27.5155 91.246 27.5155 93.024C27.5155 93.864 27.7535 94.508 28.2295 94.984C28.6775 95.418 29.3075 95.684 30.1615 95.81L31.3655 95.978C31.8275 96.048 32.0515 96.146 32.2475 96.328C32.4575 96.524 32.5555 96.818 32.5555 97.168C32.5555 97.966 31.9395 98.4 30.7915 98.4C29.8675 98.4 29.0135 98.19 28.3835 97.56L27.1235 98.82C28.1035 99.814 29.2515 100.136 30.7635 100.136C32.8495 100.136 34.4595 99.044 34.4595 97.112Z" fill="white"/>
<path d="M43.557 100.052V90.084H41.611V94.158H38.237V90.084H36.291V100.052H38.237V95.88H41.611V100.052H43.557Z" fill="white"/>
<path d="M53.099 97.182C53.099 95.852 52.329 95.222 51.727 94.942C52.231 94.704 52.959 93.99 52.959 92.884C52.959 91.176 51.825 90.084 49.879 90.084H45.875V100.052H50.047C51.825 100.052 53.099 99.044 53.099 97.182ZM51.013 92.968C51.013 93.654 50.551 94.116 49.725 94.116H47.821V91.82H49.725C50.551 91.82 51.013 92.282 51.013 92.968ZM51.153 97.084C51.153 97.756 50.733 98.316 49.851 98.316H47.821V95.866H49.851C50.733 95.866 51.153 96.412 51.153 97.084Z" fill="white"/>
<path d="M62.1178 95.068C62.1178 93.346 62.1318 92.1 61.1238 91.092C60.4238 90.392 59.5698 90 58.4358 90C57.3018 90 56.4338 90.392 55.7338 91.092C54.7258 92.1 54.7538 93.346 54.7538 95.068C54.7538 96.79 54.7258 98.036 55.7338 99.044C56.4338 99.744 57.3018 100.136 58.4358 100.136C59.5698 100.136 60.4238 99.744 61.1238 99.044C62.1318 98.036 62.1178 96.79 62.1178 95.068ZM60.1718 95.068C60.1718 96.986 60.0598 97.448 59.6818 97.868C59.4018 98.19 58.9678 98.4 58.4358 98.4C57.9038 98.4 57.4558 98.19 57.1758 97.868C56.7978 97.448 56.6998 96.986 56.6998 95.068C56.6998 93.15 56.7978 92.688 57.1758 92.268C57.4558 91.946 57.9038 91.736 58.4358 91.736C58.9678 91.736 59.4018 91.946 59.6818 92.268C60.0598 92.688 60.1718 93.15 60.1718 95.068Z" fill="white"/>
<path d="M71.6629 100.052L68.0229 90.084H66.4969L62.8709 100.052H64.9009L65.5029 98.288H69.0449L69.6329 100.052H71.6629ZM68.5269 96.65H66.0489L67.3089 93.024L68.5269 96.65Z" fill="white"/>
<path d="M80.4366 100.052L78.2106 95.754C79.1766 95.404 80.0306 94.536 80.0306 93.136C80.0306 91.47 78.8266 90.084 76.7966 90.084H72.8906V100.052H74.8366V96.076H76.2366L78.1826 100.052H80.4366ZM78.0846 93.136C78.0846 93.906 77.5246 94.452 76.6706 94.452H74.8366V91.82H76.6706C77.5246 91.82 78.0846 92.366 78.0846 93.136Z" fill="white"/>
<path d="M89.2888 95.026C89.2888 93.528 89.4008 92.156 88.2808 91.036C87.6228 90.378 86.6848 90.084 85.6488 90.084H82.0508V100.052H85.6488C86.6848 100.052 87.6228 99.758 88.2808 99.1C89.4008 97.98 89.2888 96.524 89.2888 95.026ZM87.3428 95.026C87.3428 96.538 87.2868 97.252 86.9228 97.7C86.5868 98.106 86.1388 98.316 85.4668 98.316H83.9968V91.82H85.4668C86.1388 91.82 86.5868 92.03 86.9228 92.436C87.2868 92.884 87.3428 93.514 87.3428 95.026Z" fill="white"/>
<path d="M97.7193 97.112C97.7193 96.23 97.4813 95.502 96.9493 94.998C96.5293 94.606 95.9553 94.354 95.0453 94.228L93.8693 94.06C93.4633 94.004 93.1413 93.85 92.9453 93.668C92.7353 93.472 92.6513 93.206 92.6513 92.954C92.6513 92.268 93.1553 91.694 94.1913 91.694C94.8493 91.694 95.6053 91.778 96.2353 92.38L97.4673 91.162C96.6133 90.336 95.6193 90 94.2473 90C92.0913 90 90.7753 91.246 90.7753 93.024C90.7753 93.864 91.0133 94.508 91.4893 94.984C91.9373 95.418 92.5673 95.684 93.4213 95.81L94.6253 95.978C95.0873 96.048 95.3113 96.146 95.5073 96.328C95.7173 96.524 95.8153 96.818 95.8153 97.168C95.8153 97.966 95.1993 98.4 94.0513 98.4C93.1273 98.4 92.2733 98.19 91.6433 97.56L90.3833 98.82C91.3633 99.814 92.5113 100.136 94.0233 100.136C96.1093 100.136 97.7193 99.044 97.7193 97.112Z" fill="white"/>
<rect x="0.5" y="80.5" width="177" height="29.136" rx="3.5" stroke="white" stroke-opacity="0.5"/>
<path d="M17.154 131.956V130.22H10V131.956H12.604V140.188H14.55V131.956H17.154Z" fill="white"/>
<path d="M26.286 140.188L24.06 135.89C25.026 135.54 25.88 134.672 25.88 133.272C25.88 131.606 24.676 130.22 22.646 130.22H18.74V140.188H20.686V136.212H22.086L24.032 140.188H26.286ZM23.934 133.272C23.934 134.042 23.374 134.588 22.52 134.588H20.686V131.956H22.52C23.374 131.956 23.934 132.502 23.934 133.272Z" fill="white"/>
<path d="M34.4662 140.188V138.452H29.8462V136.03H33.7802V134.294H29.8462V131.956H34.4662V130.22H27.9002V140.188H34.4662Z" fill="white"/>
<path d="M44.0068 140.188V130.22H42.0608V136.324L38.1128 130.22H36.3768V140.188H38.3228V134.07L42.2708 140.188H44.0068Z" fill="white"/>
<path d="M53.5679 135.162C53.5679 133.664 53.6799 132.292 52.5599 131.172C51.9019 130.514 50.9639 130.22 49.9279 130.22H46.3299V140.188H49.9279C50.9639 140.188 51.9019 139.894 52.5599 139.236C53.6799 138.116 53.5679 136.66 53.5679 135.162ZM51.6219 135.162C51.6219 136.674 51.5659 137.388 51.2019 137.836C50.8659 138.242 50.4179 138.452 49.7459 138.452H48.2759V131.956H49.7459C50.4179 131.956 50.8659 132.166 51.2019 132.572C51.5659 133.02 51.6219 133.65 51.6219 135.162Z" fill="white"/>
<path d="M61.9984 137.248C61.9984 136.366 61.7604 135.638 61.2284 135.134C60.8084 134.742 60.2344 134.49 59.3244 134.364L58.1484 134.196C57.7424 134.14 57.4204 133.986 57.2244 133.804C57.0144 133.608 56.9304 133.342 56.9304 133.09C56.9304 132.404 57.4344 131.83 58.4704 131.83C59.1284 131.83 59.8844 131.914 60.5144 132.516L61.7464 131.298C60.8924 130.472 59.8984 130.136 58.5264 130.136C56.3704 130.136 55.0544 131.382 55.0544 133.16C55.0544 134 55.2924 134.644 55.7684 135.12C56.2164 135.554 56.8464 135.82 57.7004 135.946L58.9044 136.114C59.3664 136.184 59.5904 136.282 59.7864 136.464C59.9964 136.66 60.0944 136.954 60.0944 137.304C60.0944 138.102 59.4784 138.536 58.3304 138.536C57.4064 138.536 56.5524 138.326 55.9224 137.696L54.6624 138.956C55.6424 139.95 56.7904 140.272 58.3024 140.272C60.3884 140.272 61.9984 139.18 61.9984 137.248Z" fill="white"/>
<rect x="0.5" y="120.636" width="177" height="29.136" rx="3.5" stroke="white" stroke-opacity="0.5"/>
<path d="M16.566 172.092V170.356H10V180.324H11.946V176.278H15.88V174.542H11.946V172.092H16.566Z" fill="white"/>
<path d="M25.4398 176.908V170.356H23.5078V176.838C23.5078 177.986 22.8218 178.672 21.7718 178.672C20.7218 178.672 20.0498 177.986 20.0498 176.838V170.356H18.1038V176.908C18.1038 179.022 19.7278 180.408 21.7718 180.408C23.8158 180.408 25.4398 179.022 25.4398 176.908Z" fill="white"/>
<path d="M35.2394 180.324V170.356H33.2934V176.46L29.3454 170.356H27.6094V180.324H29.5554V174.206L33.5034 180.324H35.2394Z" fill="white"/>
<path d="M45.1925 180.324V170.356H43.2465V176.46L39.2985 170.356H37.5625V180.324H39.5085V174.206L43.4565 180.324H45.1925Z" fill="white"/>
<path d="M54.0816 180.324V178.588H49.4616V176.166H53.3956V174.43H49.4616V172.092H54.0816V170.356H47.5156V180.324H54.0816Z" fill="white"/>
<path d="M62.4602 180.324V178.588H57.9382V170.356H55.9922V180.324H62.4602Z" fill="white"/>
<path d="M70.4849 177.384C70.4849 176.502 70.2469 175.774 69.7149 175.27C69.2949 174.878 68.7209 174.626 67.8109 174.5L66.6349 174.332C66.2289 174.276 65.9069 174.122 65.7109 173.94C65.5009 173.744 65.4169 173.478 65.4169 173.226C65.4169 172.54 65.9209 171.966 66.9569 171.966C67.6149 171.966 68.3709 172.05 69.0009 172.652L70.2329 171.434C69.3789 170.608 68.3849 170.272 67.0129 170.272C64.8569 170.272 63.5409 171.518 63.5409 173.296C63.5409 174.136 63.7789 174.78 64.2549 175.256C64.7029 175.69 65.3329 175.956 66.1869 176.082L67.3909 176.25C67.8529 176.32 68.0769 176.418 68.2729 176.6C68.4829 176.796 68.5809 177.09 68.5809 177.44C68.5809 178.238 67.9649 178.672 66.8169 178.672C65.8929 178.672 65.0389 178.462 64.4089 177.832L63.1489 179.092C64.1289 180.086 65.2769 180.408 66.7889 180.408C68.8749 180.408 70.4849 179.316 70.4849 177.384Z" fill="white"/>
<rect x="0.5" y="160.772" width="177" height="29.136" rx="3.5" stroke="white" stroke-opacity="0.5"/>
<path d="M17.546 220.46L15.32 216.162C16.286 215.812 17.14 214.944 17.14 213.544C17.14 211.878 15.936 210.492 13.906 210.492H10V220.46H11.946V216.484H13.346L15.292 220.46H17.546ZM15.194 213.544C15.194 214.314 14.634 214.86 13.78 214.86H11.946V212.228H13.78C14.634 212.228 15.194 212.774 15.194 213.544Z" fill="white"/>
<path d="M25.7262 220.46V218.724H21.1062V216.302H25.0402V214.566H21.1062V212.228H25.7262V210.492H19.1602V220.46H25.7262Z" fill="white"/>
<path d="M34.0487 212.228V210.492H26.8947V212.228H29.4987V220.46H31.4447V212.228H34.0487Z" fill="white"/>
<path d="M42.2008 220.46V218.724H37.5808V216.302H41.5148V214.566H37.5808V212.228H42.2008V210.492H35.6348V220.46H42.2008Z" fill="white"/>
<path d="M51.7413 220.46V210.492H49.7953V216.596L45.8473 210.492H44.1113V220.46H46.0573V214.342L50.0053 220.46H51.7413Z" fill="white"/>
<path d="M60.4765 212.228V210.492H53.3225V212.228H55.9265V220.46H57.8725V212.228H60.4765Z" fill="white"/>
<path d="M64.0085 220.46V210.492H62.0625V220.46H64.0085Z" fill="white"/>
<path d="M73.3561 215.476C73.3561 213.754 73.3701 212.508 72.3621 211.5C71.6621 210.8 70.8081 210.408 69.6741 210.408C68.5401 210.408 67.6721 210.8 66.9721 211.5C65.9641 212.508 65.9921 213.754 65.9921 215.476C65.9921 217.198 65.9641 218.444 66.9721 219.452C67.6721 220.152 68.5401 220.544 69.6741 220.544C70.8081 220.544 71.6621 220.152 72.3621 219.452C73.3701 218.444 73.3561 217.198 73.3561 215.476ZM71.4101 215.476C71.4101 217.394 71.2981 217.856 70.9201 218.276C70.6401 218.598 70.2061 218.808 69.6741 218.808C69.1421 218.808 68.6941 218.598 68.4141 218.276C68.0361 217.856 67.9381 217.394 67.9381 215.476C67.9381 213.558 68.0361 213.096 68.4141 212.676C68.6941 212.354 69.1421 212.144 69.6741 212.144C70.2061 212.144 70.6401 212.354 70.9201 212.676C71.2981 213.096 71.4101 213.558 71.4101 215.476Z" fill="white"/>
<path d="M82.9679 220.46V210.492H81.0219V216.596L77.0739 210.492H75.3379V220.46H77.2839V214.342L81.2319 220.46H82.9679Z" fill="white"/>
<rect x="0.5" y="200.908" width="177" height="29.136" rx="3.5" stroke="white" stroke-opacity="0.5"/>
<path d="M17.336 257.18V250.628H15.404V257.11C15.404 258.258 14.718 258.944 13.668 258.944C12.618 258.944 11.946 258.258 11.946 257.11V250.628H10V257.18C10 259.294 11.624 260.68 13.668 260.68C15.712 260.68 17.336 259.294 17.336 257.18Z" fill="white"/>
<path d="M25.9456 257.656C25.9456 256.774 25.7076 256.046 25.1756 255.542C24.7556 255.15 24.1816 254.898 23.2716 254.772L22.0956 254.604C21.6896 254.548 21.3676 254.394 21.1716 254.212C20.9616 254.016 20.8776 253.75 20.8776 253.498C20.8776 252.812 21.3816 252.238 22.4176 252.238C23.0756 252.238 23.8316 252.322 24.4616 252.924L25.6936 251.706C24.8396 250.88 23.8456 250.544 22.4736 250.544C20.3176 250.544 19.0016 251.79 19.0016 253.568C19.0016 254.408 19.2396 255.052 19.7156 255.528C20.1636 255.962 20.7936 256.228 21.6476 256.354L22.8516 256.522C23.3136 256.592 23.5376 256.69 23.7336 256.872C23.9436 257.068 24.0416 257.362 24.0416 257.712C24.0416 258.51 23.4256 258.944 22.2776 258.944C21.3536 258.944 20.4996 258.734 19.8696 258.104L18.6096 259.364C19.5896 260.358 20.7376 260.68 22.2496 260.68C24.3356 260.68 25.9456 259.588 25.9456 257.656Z" fill="white"/>
<path d="M34.343 260.596V258.86H29.723V256.438H33.657V254.702H29.723V252.364H34.343V250.628H27.777V260.596H34.343Z" fill="white"/>
<path d="M43.7996 260.596L41.5736 256.298C42.5396 255.948 43.3936 255.08 43.3936 253.68C43.3936 252.014 42.1896 250.628 40.1596 250.628H36.2536V260.596H38.1996V256.62H39.5996L41.5456 260.596H43.7996ZM41.4476 253.68C41.4476 254.45 40.8876 254.996 40.0336 254.996H38.1996V252.364H40.0336C40.8876 252.364 41.4476 252.91 41.4476 253.68Z" fill="white"/>
<path d="M55.8217 253.736C55.8217 252.042 54.5897 250.628 52.5317 250.628H48.6677V260.596H50.6137V256.844H52.5317C54.5897 256.844 55.8217 255.43 55.8217 253.736ZM53.8757 253.736C53.8757 254.548 53.3157 255.094 52.4337 255.094H50.6137V252.364H52.4337C53.3157 252.364 53.8757 252.924 53.8757 253.736Z" fill="white"/>
<path d="M64.4614 260.596L60.8214 250.628H59.2954L55.6694 260.596H57.6994L58.3014 258.832H61.8434L62.4314 260.596H64.4614ZM61.3254 257.194H58.8474L60.1074 253.568L61.3254 257.194Z" fill="white"/>
<path d="M71.2672 252.364V250.628H64.1132V252.364H66.7172V260.596H68.6632V252.364H71.2672Z" fill="white"/>
<path d="M80.1192 260.596V250.628H78.1732V254.702H74.7992V250.628H72.8532V260.596H74.7992V256.424H78.1732V260.596H80.1192Z" fill="white"/>
<path d="M88.8772 257.656C88.8772 256.774 88.6392 256.046 88.1072 255.542C87.6872 255.15 87.1132 254.898 86.2032 254.772L85.0272 254.604C84.6212 254.548 84.2992 254.394 84.1032 254.212C83.8932 254.016 83.8092 253.75 83.8092 253.498C83.8092 252.812 84.3132 252.238 85.3492 252.238C86.0072 252.238 86.7632 252.322 87.3932 252.924L88.6252 251.706C87.7712 250.88 86.7772 250.544 85.4052 250.544C83.2492 250.544 81.9332 251.79 81.9332 253.568C81.9332 254.408 82.1712 255.052 82.6472 255.528C83.0952 255.962 83.7252 256.228 84.5792 256.354L85.7832 256.522C86.2452 256.592 86.4692 256.69 86.6652 256.872C86.8752 257.068 86.9732 257.362 86.9732 257.712C86.9732 258.51 86.3572 258.944 85.2092 258.944C84.2852 258.944 83.4312 258.734 82.8012 258.104L81.5412 259.364C82.5212 260.358 83.6692 260.68 85.1812 260.68C87.2672 260.68 88.8772 259.588 88.8772 257.656Z" fill="white"/>
<rect x="0.5" y="241.044" width="177" height="29.136" rx="3.5" stroke="white" stroke-opacity="0.5"/>
<path d="M17.336 297.792C17.336 296.91 17.098 296.182 16.566 295.678C16.146 295.286 15.572 295.034 14.662 294.908L13.486 294.74C13.08 294.684 12.758 294.53 12.562 294.348C12.352 294.152 12.268 293.886 12.268 293.634C12.268 292.948 12.772 292.374 13.808 292.374C14.466 292.374 15.222 292.458 15.852 293.06L17.084 291.842C16.23 291.016 15.236 290.68 13.864 290.68C11.708 290.68 10.392 291.926 10.392 293.704C10.392 294.544 10.63 295.188 11.106 295.664C11.554 296.098 12.184 296.364 13.038 296.49L14.242 296.658C14.704 296.728 14.928 296.826 15.124 297.008C15.334 297.204 15.432 297.498 15.432 297.848C15.432 298.646 14.816 299.08 13.668 299.08C12.744 299.08 11.89 298.87 11.26 298.24L10 299.5C10.98 300.494 12.128 300.816 13.64 300.816C15.726 300.816 17.336 299.724 17.336 297.792Z" fill="white"/>
<path d="M25.7335 300.732V298.996H21.1135V296.574H25.0475V294.838H21.1135V292.5H25.7335V290.764H19.1675V300.732H25.7335Z" fill="white"/>
<path d="M34.084 297.792C34.084 296.91 33.846 296.182 33.314 295.678C32.894 295.286 32.32 295.034 31.41 294.908L30.234 294.74C29.828 294.684 29.506 294.53 29.31 294.348C29.1 294.152 29.016 293.886 29.016 293.634C29.016 292.948 29.52 292.374 30.556 292.374C31.214 292.374 31.97 292.458 32.6 293.06L33.832 291.842C32.978 291.016 31.984 290.68 30.612 290.68C28.456 290.68 27.14 291.926 27.14 293.704C27.14 294.544 27.378 295.188 27.854 295.664C28.302 296.098 28.932 296.364 29.786 296.49L30.99 296.658C31.452 296.728 31.676 296.826 31.872 297.008C32.082 297.204 32.18 297.498 32.18 297.848C32.18 298.646 31.564 299.08 30.416 299.08C29.492 299.08 28.638 298.87 28.008 298.24L26.748 299.5C27.728 300.494 28.876 300.816 30.388 300.816C32.474 300.816 34.084 299.724 34.084 297.792Z" fill="white"/>
<path d="M42.2735 297.792C42.2735 296.91 42.0355 296.182 41.5035 295.678C41.0835 295.286 40.5095 295.034 39.5995 294.908L38.4235 294.74C38.0175 294.684 37.6955 294.53 37.4995 294.348C37.2895 294.152 37.2055 293.886 37.2055 293.634C37.2055 292.948 37.7095 292.374 38.7455 292.374C39.4035 292.374 40.1595 292.458 40.7895 293.06L42.0215 291.842C41.1675 291.016 40.1735 290.68 38.8015 290.68C36.6455 290.68 35.3295 291.926 35.3295 293.704C35.3295 294.544 35.5675 295.188 36.0435 295.664C36.4915 296.098 37.1215 296.364 37.9755 296.49L39.1795 296.658C39.6415 296.728 39.8655 296.826 40.0615 297.008C40.2715 297.204 40.3695 297.498 40.3695 297.848C40.3695 298.646 39.7535 299.08 38.6055 299.08C37.6815 299.08 36.8275 298.87 36.1975 298.24L34.9375 299.5C35.9175 300.494 37.0655 300.816 38.5775 300.816C40.6635 300.816 42.2735 299.724 42.2735 297.792Z" fill="white"/>
<path d="M46.051 300.732V290.764H44.105V300.732H46.051Z" fill="white"/>
<path d="M55.3986 295.748C55.3986 294.026 55.4126 292.78 54.4046 291.772C53.7046 291.072 52.8506 290.68 51.7166 290.68C50.5826 290.68 49.7146 291.072 49.0146 291.772C48.0066 292.78 48.0346 294.026 48.0346 295.748C48.0346 297.47 48.0066 298.716 49.0146 299.724C49.7146 300.424 50.5826 300.816 51.7166 300.816C52.8506 300.816 53.7046 300.424 54.4046 299.724C55.4126 298.716 55.3986 297.47 55.3986 295.748ZM53.4526 295.748C53.4526 297.666 53.3406 298.128 52.9626 298.548C52.6826 298.87 52.2486 299.08 51.7166 299.08C51.1846 299.08 50.7366 298.87 50.4566 298.548C50.0786 298.128 49.9806 297.666 49.9806 295.748C49.9806 293.83 50.0786 293.368 50.4566 292.948C50.7366 292.626 51.1846 292.416 51.7166 292.416C52.2486 292.416 52.6826 292.626 52.9626 292.948C53.3406 293.368 53.4526 293.83 53.4526 295.748Z" fill="white"/>
<path d="M65.0104 300.732V290.764H63.0644V296.868L59.1164 290.764H57.3804V300.732H59.3264V294.614L63.2744 300.732H65.0104Z" fill="white"/>
<path d="M73.7735 297.792C73.7735 296.91 73.5355 296.182 73.0035 295.678C72.5835 295.286 72.0095 295.034 71.0995 294.908L69.9235 294.74C69.5175 294.684 69.1955 294.53 68.9995 294.348C68.7895 294.152 68.7055 293.886 68.7055 293.634C68.7055 292.948 69.2095 292.374 70.2455 292.374C70.9035 292.374 71.6595 292.458 72.2895 293.06L73.5215 291.842C72.6675 291.016 71.6735 290.68 70.3015 290.68C68.1455 290.68 66.8295 291.926 66.8295 293.704C66.8295 294.544 67.0675 295.188 67.5435 295.664C67.9915 296.098 68.6215 296.364 69.4755 296.49L70.6795 296.658C71.1415 296.728 71.3655 296.826 71.5615 297.008C71.7715 297.204 71.8695 297.498 71.8695 297.848C71.8695 298.646 71.2535 299.08 70.1055 299.08C69.1815 299.08 68.3275 298.87 67.6975 298.24L66.4375 299.5C67.4175 300.494 68.5655 300.816 70.0775 300.816C72.1635 300.816 73.7735 299.724 73.7735 297.792Z" fill="white"/>
<rect x="0.5" y="281.18" width="177" height="29.136" rx="3.5" stroke="white" stroke-opacity="0.5"/>
<path d="M17.336 337.928C17.336 337.046 17.098 336.318 16.566 335.814C16.146 335.422 15.572 335.17 14.662 335.044L13.486 334.876C13.08 334.82 12.758 334.666 12.562 334.484C12.352 334.288 12.268 334.022 12.268 333.77C12.268 333.084 12.772 332.51 13.808 332.51C14.466 332.51 15.222 332.594 15.852 333.196L17.084 331.978C16.23 331.152 15.236 330.816 13.864 330.816C11.708 330.816 10.392 332.062 10.392 333.84C10.392 334.68 10.63 335.324 11.106 335.8C11.554 336.234 12.184 336.5 13.038 336.626L14.242 336.794C14.704 336.864 14.928 336.962 15.124 337.144C15.334 337.34 15.432 337.634 15.432 337.984C15.432 338.782 14.816 339.216 13.668 339.216C12.744 339.216 11.89 339.006 11.26 338.376L10 339.636C10.98 340.63 12.128 340.952 13.64 340.952C15.726 340.952 17.336 339.86 17.336 337.928Z" fill="white"/>
<path d="M25.5795 332.636V330.9H18.4255V332.636H21.0295V340.868H22.9755V332.636H25.5795Z" fill="white"/>
<path d="M29.1115 340.868V330.9H27.1655V340.868H29.1115Z" fill="white"/>
<path d="M38.4312 337.802H36.4572C36.2612 338.6 35.7572 339.216 34.7772 339.216C34.2452 339.216 33.8112 339.02 33.5312 338.698C33.1532 338.278 33.0412 337.802 33.0412 335.884C33.0412 333.966 33.1532 333.49 33.5312 333.07C33.8112 332.748 34.2452 332.552 34.7772 332.552C35.7572 332.552 36.2612 333.168 36.4572 333.966H38.4312C38.0812 331.88 36.6252 330.816 34.7632 330.816C33.6712 330.816 32.7752 331.208 32.0752 331.908C31.0672 332.916 31.0952 334.162 31.0952 335.884C31.0952 337.606 31.0672 338.852 32.0752 339.86C32.7752 340.56 33.6712 340.952 34.7632 340.952C36.6112 340.952 38.0812 339.888 38.4312 337.802Z" fill="white"/>
<path d="M48.1768 340.868L44.6348 334.862L47.9388 330.9H45.5728L42.0588 335.24V330.9H40.1128V340.868H42.0588V337.872L43.3468 336.332L45.9088 340.868H48.1768Z" fill="white"/>
<path d="M51.3693 340.868V330.9H49.4233V340.868H51.3693Z" fill="white"/>
<path d="M61.319 340.868V330.9H59.373V337.004L55.425 330.9H53.689V340.868H55.635V334.75L59.583 340.868H61.319Z" fill="white"/>
<path d="M70.2081 340.868V339.132H65.5881V336.71H69.5221V334.974H65.5881V332.636H70.2081V330.9H63.6421V340.868H70.2081Z" fill="white"/>
<path d="M78.5587 337.928C78.5587 337.046 78.3207 336.318 77.7887 335.814C77.3687 335.422 76.7947 335.17 75.8847 335.044L74.7087 334.876C74.3027 334.82 73.9807 334.666 73.7847 334.484C73.5747 334.288 73.4907 334.022 73.4907 333.77C73.4907 333.084 73.9947 332.51 75.0307 332.51C75.6887 332.51 76.4447 332.594 77.0747 333.196L78.3067 331.978C77.4527 331.152 76.4587 330.816 75.0867 330.816C72.9307 330.816 71.6147 332.062 71.6147 333.84C71.6147 334.68 71.8527 335.324 72.3287 335.8C72.7767 336.234 73.4067 336.5 74.2607 336.626L75.4647 336.794C75.9267 336.864 76.1507 336.962 76.3467 337.144C76.5567 337.34 76.6547 337.634 76.6547 337.984C76.6547 338.782 76.0387 339.216 74.8907 339.216C73.9667 339.216 73.1127 339.006 72.4827 338.376L71.2227 339.636C72.2027 340.63 73.3507 340.952 74.8627 340.952C76.9487 340.952 78.5587 339.86 78.5587 337.928Z" fill="white"/>
<path d="M86.7481 337.928C86.7481 337.046 86.5101 336.318 85.9781 335.814C85.5581 335.422 84.9841 335.17 84.0741 335.044L82.8981 334.876C82.4921 334.82 82.1701 334.666 81.9741 334.484C81.7641 334.288 81.6801 334.022 81.6801 333.77C81.6801 333.084 82.1841 332.51 83.2201 332.51C83.8781 332.51 84.6341 332.594 85.2641 333.196L86.4961 331.978C85.6421 331.152 84.6481 330.816 83.2761 330.816C81.1201 330.816 79.8041 332.062 79.8041 333.84C79.8041 334.68 80.0421 335.324 80.5181 335.8C80.9661 336.234 81.5961 336.5 82.4501 336.626L83.6541 336.794C84.1161 336.864 84.3401 336.962 84.5361 337.144C84.7461 337.34 84.8441 337.634 84.8441 337.984C84.8441 338.782 84.2281 339.216 83.0801 339.216C82.1561 339.216 81.3021 339.006 80.6721 338.376L79.4121 339.636C80.3921 340.63 81.5401 340.952 83.0521 340.952C85.1381 340.952 86.7481 339.86 86.7481 337.928Z" fill="white"/>
<rect x="0.5" y="321.316" width="177" height="29.136" rx="3.5" stroke="white" stroke-opacity="0.5"/>
<path d="M16.468 381.004V379.268H11.946V371.036H10V381.004H16.468Z" fill="white"/>
<path d="M19.9987 381.004V371.036H18.0527V381.004H19.9987Z" fill="white"/>
<path d="M28.8844 372.772V371.036H22.3184V381.004H24.2644V376.958H28.1984V375.222H24.2644V372.772H28.8844Z" fill="white"/>
<path d="M37.1422 381.004V379.268H32.5222V376.846H36.4562V375.11H32.5222V372.772H37.1422V371.036H30.5762V381.004H37.1422Z" fill="white"/>
<path d="M46.0527 377.938H44.0787C43.8827 378.736 43.3787 379.352 42.3987 379.352C41.8667 379.352 41.4327 379.156 41.1527 378.834C40.7747 378.414 40.6627 377.938 40.6627 376.02C40.6627 374.102 40.7747 373.626 41.1527 373.206C41.4327 372.884 41.8667 372.688 42.3987 372.688C43.3787 372.688 43.8827 373.304 44.0787 374.102H46.0527C45.7027 372.016 44.2467 370.952 42.3847 370.952C41.2927 370.952 40.3967 371.344 39.6967 372.044C38.6887 373.052 38.7167 374.298 38.7167 376.02C38.7167 377.742 38.6887 378.988 39.6967 379.996C40.3967 380.696 41.2927 381.088 42.3847 381.088C44.2327 381.088 45.7027 380.024 46.0527 377.938Z" fill="white"/>
<path d="M54.4017 371.036H52.2877L50.4537 375.054L48.5917 371.036H46.4777L49.4737 376.916V381.004H51.4057V376.916L54.4017 371.036Z" fill="white"/>
<path d="M62.4727 377.938H60.4987C60.3027 378.736 59.7987 379.352 58.8187 379.352C58.2867 379.352 57.8527 379.156 57.5727 378.834C57.1947 378.414 57.0827 377.938 57.0827 376.02C57.0827 374.102 57.1947 373.626 57.5727 373.206C57.8527 372.884 58.2867 372.688 58.8187 372.688C59.7987 372.688 60.3027 373.304 60.4987 374.102H62.4727C62.1227 372.016 60.6667 370.952 58.8047 370.952C57.7127 370.952 56.8167 371.344 56.1167 372.044C55.1087 373.052 55.1367 374.298 55.1367 376.02C55.1367 377.742 55.1087 378.988 56.1167 379.996C56.8167 380.696 57.7127 381.088 58.8047 381.088C60.6527 381.088 62.1227 380.024 62.4727 377.938Z" fill="white"/>
<path d="M70.6223 381.004V379.268H66.1003V371.036H64.1543V381.004H70.6223Z" fill="white"/>
<path d="M78.773 381.004V379.268H74.153V376.846H78.087V375.11H74.153V372.772H78.773V371.036H72.207V381.004H78.773Z" fill="white"/>
<rect x="0.5" y="361.452" width="177" height="29.136" rx="3.5" stroke="white" stroke-opacity="0.5"/>
</svg>
