<svg width="1023" height="414" fill="none" xmlns="http://www.w3.org/2000/svg" viewBox="0 0 1023 414"><path d="M494.42 58.39v-1.358h-7v1.358h2.744V67h1.512v-8.61h2.744zM502.666 62.016c0-1.918.028-3.024-.952-4.004-.686-.686-1.568-1.064-2.632-1.064s-1.932.378-2.618 1.064c-.98.98-.966 2.086-.966 4.004 0 1.918-.014 3.024.966 4.004.686.686 1.554 1.064 2.618 1.064 1.064 0 1.946-.378 2.632-1.064.98-.98.952-2.086.952-4.004zm-1.512 0c0 2.002-.098 2.562-.588 3.094-.35.378-.896.616-1.484.616s-1.134-.238-1.484-.616c-.49-.532-.588-1.092-.588-3.094s.098-2.562.588-3.094c.35-.378.896-.616 1.484-.616s1.134.238 1.484.616c.49.532.588 1.092.588 3.094zM510.758 58.39v-1.358h-7v1.358h2.744V67h1.512v-8.61h2.744zM518.976 67l-3.654-9.968h-1.218L510.45 67h1.61l.686-2.002h3.934l.686 2.002h1.61zm-2.716-3.29h-3.066l1.554-4.424 1.512 4.424zM526.704 67v-1.358h-4.802v-8.61h-1.512V67h6.314zM538.568 64.018h-1.526c-.238 1.008-.924 1.708-2.03 1.708-.588 0-1.12-.224-1.47-.602-.49-.532-.602-1.106-.602-3.108s.112-2.576.602-3.108c.35-.378.882-.602 1.47-.602 1.106 0 1.778.7 2.016 1.708h1.54c-.35-1.988-1.722-3.066-3.556-3.066-1.036 0-1.932.378-2.618 1.064-.98.98-.966 2.086-.966 4.004 0 1.918-.014 3.024.966 4.004.686.686 1.582 1.064 2.618 1.064 1.806 0 3.22-1.078 3.556-3.066zM547.387 62.016c0-1.918.028-3.024-.952-4.004-.686-.686-1.568-1.064-2.632-1.064s-1.932.378-2.618 1.064c-.98.98-.966 2.086-.966 4.004 0 1.918-.014 3.024.966 4.004.686.686 1.554 1.064 2.618 1.064 1.064 0 1.946-.378 2.632-1.064.98-.98.952-2.086.952-4.004zm-1.512 0c0 2.002-.098 2.562-.588 3.094-.35.378-.896.616-1.484.616s-1.134-.238-1.484-.616c-.49-.532-.588-1.092-.588-3.094s.098-2.562.588-3.094c.35-.378.896-.616 1.484-.616s1.134.238 1.484.616c.49.532.588 1.092.588 3.094zM557.138 67v-9.968h-1.512v7l-4.606-7h-1.386V67h1.512v-7.014L555.752 67h1.386zM566.261 57.032h-1.596l-2.296 7.252-2.296-7.252h-1.568L561.781 67h1.176l3.304-9.968zM574.01 67v-1.358h-4.858v-2.996h4.144v-1.344h-4.144V58.39h4.858v-1.358h-6.37V67h6.37zM583.341 67l-2.296-4.41c1.12-.308 1.988-1.218 1.988-2.646 0-1.694-1.204-2.912-3.094-2.912h-3.864V67h1.512v-4.2h1.89l2.1 4.2h1.764zm-1.82-7.042c0 .98-.686 1.554-1.694 1.554h-2.24V58.39h2.24c1.008 0 1.694.588 1.694 1.568zM591.479 64.158c0-.854-.266-1.568-.812-2.044-.42-.378-.938-.602-1.862-.742l-1.134-.168c-.462-.07-.868-.238-1.12-.462-.266-.238-.378-.56-.378-.924 0-.882.644-1.554 1.82-1.554.84 0 1.554.182 2.17.77l.966-.952c-.854-.798-1.778-1.134-3.094-1.134-2.072 0-3.332 1.19-3.332 2.926 0 .812.238 1.442.728 1.904.434.406 1.078.686 1.89.798l1.176.168c.588.084.84.182 1.092.42.266.238.392.602.392 1.036 0 .966-.756 1.526-2.058 1.526-1.022 0-1.82-.224-2.548-.952l-1.008.994c.952.966 2.03 1.316 3.528 1.316 2.086 0 3.584-1.092 3.584-2.926zM595.019 67v-9.968h-1.512V67h1.512zM604.426 62.016c0-1.918.028-3.024-.952-4.004-.686-.686-1.568-1.064-2.632-1.064s-1.932.378-2.618 1.064c-.98.98-.966 2.086-.966 4.004 0 1.918-.014 3.024.966 4.004.686.686 1.554 1.064 2.618 1.064 1.064 0 1.946-.378 2.632-1.064.98-.98.952-2.086.952-4.004zm-1.512 0c0 2.002-.098 2.562-.588 3.094-.35.378-.896.616-1.484.616s-1.134-.238-1.484-.616c-.49-.532-.588-1.092-.588-3.094s.098-2.562.588-3.094c.35-.378.896-.616 1.484-.616s1.134.238 1.484.616c.49.532.588 1.092.588 3.094zM614.177 67v-9.968h-1.512v7l-4.606-7h-1.386V67h1.512v-7.014L612.791 67h1.386zM627.406 67l-2.296-4.41c1.12-.308 1.988-1.218 1.988-2.646 0-1.694-1.204-2.912-3.094-2.912h-3.864V67h1.512v-4.2h1.89l2.1 4.2h1.764zm-1.82-7.042c0 .98-.686 1.554-1.694 1.554h-2.24V58.39h2.24c1.008 0 1.694.588 1.694 1.568zM636.65 67l-3.654-9.968h-1.218L628.124 67h1.61l.686-2.002h3.934L635.04 67h1.61zm-2.716-3.29h-3.066l1.554-4.424 1.512 4.424zM643.348 58.39v-1.358h-7v1.358h2.744V67h1.512v-8.61h2.744zM651.434 67v-1.358h-4.858v-2.996h4.144v-1.344h-4.144V58.39h4.858v-1.358h-6.37V67h6.37zM655.347 63.01v-1.708h-1.694v1.708h1.694zm0 3.99v-1.708h-1.694V67h1.694zM666.841 58.67v-1.638h-6.342v3.206h1.736V58.67h2.632L661.633 67h1.974l3.234-8.33zM670.438 67v-2.072h-2.086V67h2.086zM678.281 67v-1.638h-3.851l2.787-3.234c.686-.798 1.064-1.316 1.064-2.282 0-1.792-1.26-2.898-3.024-2.898-1.708 0-3.038 1.092-3.038 2.912h1.819c0-.966.617-1.274 1.219-1.274.77 0 1.203.504 1.203 1.246 0 .462-.153.77-.517 1.204l-3.724 4.326V67h6.062zM690.138 65.166V63.78c0-1.26-.938-1.918-2.03-1.918-1.106 0-2.03.658-2.03 1.918v1.386c0 1.26.924 1.918 2.03 1.918 1.092 0 2.03-.658 2.03-1.918zm-2.128-8.134h-1.428L681.864 67h1.428l4.718-9.968zm-4.228 3.22v-1.386c0-1.26-.938-1.918-2.03-1.918-1.106 0-2.03.658-2.03 1.918v1.386c0 1.26.924 1.918 2.03 1.918 1.092 0 2.03-.658 2.03-1.918zm5.04 4.858c0 .532-.266.798-.714.798-.462 0-.714-.266-.714-.798v-1.274c0-.532.252-.798.714-.798.448 0 .714.266.714.798v1.274zm-6.356-4.914c0 .532-.266.798-.714.798-.448 0-.714-.266-.714-.798v-1.274c0-.532.252-.798.714-.798.448 0 .714.266.714.798v1.274zM502.048 109V97.608h-2.08l-2.32 2.016v2.24l2.32-2.016V109h2.08z" fill="#fff"/><rect x="486" y="90" width="28" height="28" rx="14" stroke="#fff" stroke-width="2"/><path d="M534.344 105.584v-6.552h-1.932v6.482c0 1.148-.686 1.834-1.736 1.834-1.05 0-1.722-.686-1.722-1.834v-6.482h-1.946v6.552c0 2.114 1.624 3.5 3.668 3.5s3.668-1.386 3.668-3.5zM542.953 106.06c0-.882-.238-1.61-.77-2.114-.42-.392-.994-.644-1.904-.77l-1.176-.168c-.406-.056-.728-.21-.924-.392a.962.962 0 01-.294-.714c0-.686.504-1.26 1.54-1.26.658 0 1.414.084 2.044.686l1.232-1.218c-.854-.826-1.848-1.162-3.22-1.162-2.156 0-3.472 1.246-3.472 3.024 0 .84.238 1.484.714 1.96.448.434 1.078.7 1.932.826l1.204.168c.462.07.686.168.882.35.21.196.308.49.308.84 0 .798-.616 1.232-1.764 1.232-.924 0-1.778-.21-2.408-.84l-1.26 1.26c.98.994 2.128 1.316 3.64 1.316 2.086 0 3.696-1.092 3.696-3.024zM551.351 109v-1.736h-4.62v-2.422h3.934v-1.736h-3.934v-2.338h4.62v-1.736h-6.566V109h6.566zM560.807 109l-2.226-4.298c.966-.35 1.82-1.218 1.82-2.618 0-1.666-1.204-3.052-3.234-3.052h-3.906V109h1.946v-3.976h1.4l1.946 3.976h2.254zm-2.352-6.916c0 .77-.56 1.316-1.414 1.316h-1.834v-2.632h1.834c.854 0 1.414.546 1.414 1.316zM572.115 106.06c0-.882-.238-1.61-.77-2.114-.42-.392-.994-.644-1.904-.77l-1.176-.168c-.406-.056-.728-.21-.924-.392a.962.962 0 01-.294-.714c0-.686.504-1.26 1.54-1.26.658 0 1.414.084 2.044.686l1.232-1.218c-.854-.826-1.848-1.162-3.22-1.162-2.156 0-3.472 1.246-3.472 3.024 0 .84.238 1.484.714 1.96.448.434 1.078.7 1.932.826l1.204.168c.462.07.686.168.882.35.21.196.308.49.308.84 0 .798-.616 1.232-1.764 1.232-.924 0-1.778-.21-2.408-.84l-1.26 1.26c.98.994 2.128 1.316 3.64 1.316 2.086 0 3.696-1.092 3.696-3.024zM575.893 109v-9.968h-1.946V109h1.946zM585.311 104.912v-1.456h-3.766v1.624h1.834v.378c0 .518-.126.966-.448 1.33-.322.35-.798.56-1.386.56-.532 0-.966-.196-1.246-.518-.378-.42-.476-.896-.476-2.814 0-1.918.098-2.38.476-2.8.28-.322.714-.532 1.246-.532.994 0 1.568.518 1.792 1.456h1.96c-.266-1.68-1.442-3.192-3.752-3.192-1.12 0-1.988.392-2.688 1.092-1.008 1.008-.98 2.254-.98 3.976s-.028 2.968.98 3.976c.7.7 1.596 1.092 2.688 1.092 1.064 0 2.016-.308 2.814-1.134.7-.728.952-1.596.952-3.038zM594.921 109v-9.968h-1.946v6.104l-3.948-6.104h-1.736V109h1.946v-6.118l3.948 6.118h1.736zM603.81 109v-1.736h-4.62v-2.422h3.934v-1.736h-3.934v-2.338h4.62v-1.736h-6.566V109h6.566zM612.958 103.974c0-1.498.112-2.87-1.008-3.99-.658-.658-1.596-.952-2.632-.952h-3.598V109h3.598c1.036 0 1.974-.294 2.632-.952 1.12-1.12 1.008-2.576 1.008-4.074zm-1.946 0c0 1.512-.056 2.226-.42 2.674-.336.406-.784.616-1.456.616h-1.47v-6.496h1.47c.672 0 1.12.21 1.456.616.364.448.42 1.078.42 2.59zM625.385 105.584v-6.552h-1.932v6.482c0 1.148-.686 1.834-1.736 1.834-1.05 0-1.722-.686-1.722-1.834v-6.482h-1.946v6.552c0 2.114 1.624 3.5 3.668 3.5s3.668-1.386 3.668-3.5zM634.708 102.14c0-1.694-1.232-3.108-3.29-3.108h-3.864V109h1.946v-3.752h1.918c2.058 0 3.29-1.414 3.29-3.108zm-1.946 0c0 .812-.56 1.358-1.442 1.358h-1.82v-2.73h1.82c.882 0 1.442.56 1.442 1.372z" fill="#fff"/><path opacity=".25" stroke="#fff" d="M500.5 117v294"/><path d="M531 255.5h142a3.5 3.5 0 013.5 3.5v152.5h-149V259a3.5 3.5 0 013.5-3.5z" fill="#fff" stroke="#fff"/><path d="M584.794 280.001v-14.24h-2.6l-2.9 2.52v2.8l2.9-2.52v11.44h2.6zM597.853 275.881v-6c0-2.72-2-4.24-4.32-4.24-2.32 0-4.34 1.52-4.34 4.24v6c0 2.72 2.02 4.24 4.34 4.24s4.32-1.52 4.32-4.24zm-2.6-.02c0 1.2-.7 1.92-1.72 1.92s-1.74-.72-1.74-1.92v-5.94c0-1.2.72-1.94 1.74-1.94s1.72.74 1.72 1.94v5.94zM608.713 275.881v-6c0-2.72-2-4.24-4.32-4.24-2.32 0-4.34 1.52-4.34 4.24v6c0 2.72 2.02 4.24 4.34 4.24s4.32-1.52 4.32-4.24zm-2.6-.02c0 1.2-.7 1.92-1.72 1.92s-1.74-.72-1.74-1.92v-5.94c0-1.2.72-1.94 1.74-1.94s1.72.74 1.72 1.94v5.94zM625.732 277.381v-1.98c0-1.8-1.34-2.74-2.9-2.74-1.58 0-2.9.94-2.9 2.74v1.98c0 1.8 1.32 2.74 2.9 2.74 1.56 0 2.9-.94 2.9-2.74zm-3.04-11.62h-2.04l-6.74 14.24h2.04l6.74-14.24zm-6.04 4.6v-1.98c0-1.8-1.34-2.74-2.9-2.74-1.58 0-2.9.94-2.9 2.74v1.98c0 1.8 1.32 2.74 2.9 2.74 1.56 0 2.9-.94 2.9-2.74zm7.2 6.94c0 .76-.38 1.14-1.02 1.14-.66 0-1.02-.38-1.02-1.14v-1.82c0-.76.36-1.14 1.02-1.14.64 0 1.02.38 1.02 1.14v1.82zm-9.08-7.02c0 .76-.38 1.14-1.02 1.14s-1.02-.38-1.02-1.14v-1.82c0-.76.36-1.14 1.02-1.14.64 0 1.02.38 1.02 1.14v1.82z" fill="#000"/><path d="M533.804 166v-12.816h-2.34l-2.61 2.268v2.52l2.61-2.268V166h2.34zM540.572 166.99v-3.546h-2.574v5.526l2.574-1.98zM550.657 166v-2.106h-4.95l3.582-4.158c.882-1.026 1.368-1.692 1.368-2.934 0-2.304-1.62-3.726-3.888-3.726-2.196 0-3.906 1.404-3.906 3.744h2.34c0-1.242.792-1.638 1.566-1.638.99 0 1.548.648 1.548 1.602 0 .594-.198.99-.666 1.548l-4.788 5.562V166h7.794zM558.378 166v-12.816h-2.34l-2.61 2.268v2.52l2.61-2.268V166h2.34zM570.348 162.274c0-1.566-.918-2.412-1.62-2.88.648-.45 1.44-1.296 1.44-2.664 0-2.268-1.782-3.654-3.924-3.654s-3.942 1.386-3.942 3.654c0 1.368.792 2.214 1.44 2.664-.702.468-1.602 1.314-1.602 2.88 0 2.484 1.836 3.834 4.104 3.834s4.104-1.35 4.104-3.834zm-2.52-5.472c0 .936-.666 1.62-1.584 1.62s-1.602-.684-1.602-1.62c0-.918.684-1.62 1.602-1.62s1.584.702 1.584 1.62zm.18 5.436c0 .99-.774 1.764-1.764 1.764s-1.764-.774-1.764-1.764.774-1.782 1.764-1.782 1.764.792 1.764 1.782zM580.107 166.45c-.432-.432-.738-.684-1.008-1.188-.18-.342-.27-.828-.27-1.476v-8.388c0-.648.09-1.134.27-1.476.27-.504.576-.756 1.008-1.188l-1.242-1.242c-.576.576-1.098 1.062-1.458 1.71-.378.666-.414 1.368-.414 2.088v8.604c0 .72.036 1.422.414 2.088.36.648.882 1.134 1.458 1.71l1.242-1.242zM587.548 166v-12.816h-1.836l-2.502 2.16v2.034l2.502-2.196V166h1.836zM599.252 162.436v-5.688c0-2.286-1.674-3.672-3.708-3.672-2.034 0-3.69 1.386-3.69 3.672v5.688c0 2.286 1.656 3.672 3.69 3.672s3.708-1.386 3.708-3.672zm-1.836-.054c0 1.242-.702 2.088-1.872 2.088-1.17 0-1.854-.846-1.854-2.088v-5.58c0-1.242.684-2.088 1.854-2.088s1.872.846 1.872 2.088v5.58zM608.85 162.436v-5.688c0-2.286-1.674-3.672-3.708-3.672-2.034 0-3.69 1.386-3.69 3.672v5.688c0 2.286 1.656 3.672 3.69 3.672s3.708-1.386 3.708-3.672zm-1.836-.054c0 1.242-.702 2.088-1.872 2.088-1.17 0-1.854-.846-1.854-2.088v-5.58c0-1.242.684-2.088 1.854-2.088s1.872.846 1.872 2.088v5.58zM624.063 163.66v-1.818c0-1.548-1.116-2.466-2.52-2.466s-2.52.918-2.52 2.466v1.818c0 1.548 1.116 2.466 2.52 2.466s2.52-.918 2.52-2.466zm-2.79-10.476h-1.458L613.767 166h1.476l6.03-12.816zm-5.238 4.158v-1.818c0-1.548-1.116-2.466-2.52-2.466s-2.52.918-2.52 2.466v1.818c0 1.548 1.116 2.448 2.52 2.448s2.52-.9 2.52-2.448zm6.642 6.264c0 .81-.36 1.296-1.134 1.296-.774 0-1.134-.468-1.134-1.296v-1.71c0-.828.36-1.296 1.134-1.296.774 0 1.134.486 1.134 1.296v1.71zm-8.028-6.318c0 .81-.36 1.278-1.134 1.278-.774 0-1.134-.45-1.134-1.278v-1.71c0-.828.36-1.296 1.134-1.296.774 0 1.134.486 1.134 1.296v1.71zM629.28 163.894v-8.604c0-.72-.054-1.422-.432-2.088-.36-.648-.864-1.134-1.44-1.71l-1.26 1.26c.432.432.72.684.99 1.188.18.342.27.828.27 1.458v8.388c0 .63-.09 1.116-.27 1.458-.27.504-.558.756-.99 1.188l1.26 1.26c.576-.576 1.08-1.062 1.44-1.71.378-.666.432-1.368.432-2.088zM534.501 180.231h-1.417c-.221.936-.858 1.586-1.885 1.586-.546 0-1.04-.208-1.365-.559-.455-.494-.559-1.027-.559-2.886 0-1.859.104-2.392.559-2.886.325-.351.819-.559 1.365-.559 1.027 0 1.651.65 1.872 1.586h1.43c-.325-1.846-1.599-2.847-3.302-2.847-.962 0-1.794.351-2.431.988-.91.91-.897 1.937-.897 3.718s-.013 2.808.897 3.718c.637.637 1.469.988 2.431.988 1.677 0 2.99-1.001 3.302-2.847zM542.69 178.372c0-1.781.026-2.808-.884-3.718-.637-.637-1.456-.988-2.444-.988s-1.794.351-2.431.988c-.91.91-.897 1.937-.897 3.718s-.013 2.808.897 3.718c.637.637 1.443.988 2.431.988s1.807-.351 2.444-.988c.91-.91.884-1.937.884-3.718zm-1.404 0c0 1.859-.091 2.379-.546 2.873-.325.351-.832.572-1.378.572-.546 0-1.053-.221-1.378-.572-.455-.494-.546-1.014-.546-2.873 0-1.859.091-2.379.546-2.873.325-.351.832-.572 1.378-.572.546 0 1.053.221 1.378.572.455.494.546 1.014.546 2.873zM552.94 183v-9.256h-1.404l-2.652 5.759-2.704-5.759h-1.404V183h1.404v-6.188l2.184 4.511h1.04l2.132-4.511V183h1.404zM561.826 176.552c0-1.612-1.157-2.808-2.964-2.808h-3.51V183h1.404v-3.64h2.106c1.807 0 2.964-1.196 2.964-2.808zm-1.404 0c0 .975-.663 1.534-1.638 1.534h-2.028v-3.081h2.028c.975 0 1.638.572 1.638 1.547zM569.39 183v-1.261h-4.459v-7.995h-1.404V183h5.863zM576.907 183v-1.261h-4.511v-2.782h3.848v-1.248h-3.848v-2.704h4.511v-1.261h-5.915V183h5.915zM584.506 175.005v-1.261h-6.5v1.261h2.548V183h1.404v-7.995h2.548zM592.015 183v-1.261h-4.511v-2.782h3.848v-1.248h-3.848v-2.704h4.511v-1.261H586.1V183h5.915zM600.511 178.307c0-1.339.065-2.691-.936-3.692-.585-.585-1.43-.871-2.392-.871h-3.25V183h3.25c.962 0 1.807-.286 2.392-.871 1.001-1.001.936-2.483.936-3.822zm-1.404 0c0 1.274-.013 2.275-.494 2.808-.39.429-.91.624-1.573.624h-1.703v-6.734h1.703c.663 0 1.183.195 1.573.624.481.533.494 1.404.494 2.678zM611.499 180.361c0-.793-.247-1.456-.754-1.898-.39-.351-.871-.559-1.729-.689l-1.053-.156c-.429-.065-.806-.221-1.04-.429-.247-.221-.351-.52-.351-.858 0-.819.598-1.443 1.69-1.443.78 0 1.443.169 2.015.715l.897-.884c-.793-.741-1.651-1.053-2.873-1.053-1.924 0-3.094 1.105-3.094 2.717 0 .754.221 1.339.676 1.768.403.377 1.001.637 1.755.741l1.092.156c.546.078.78.169 1.014.39.247.221.364.559.364.962 0 .897-.702 1.417-1.911 1.417-.949 0-1.69-.208-2.366-.884l-.936.923c.884.897 1.885 1.222 3.276 1.222 1.937 0 3.328-1.014 3.328-2.717zM619.063 175.005v-1.261h-6.5v1.261h2.548V183h1.404v-7.995h2.548zM626.571 183v-1.261h-4.511v-2.782h3.848v-1.248h-3.848v-2.704h4.511v-1.261h-5.915V183h5.915zM634.963 176.552c0-1.612-1.157-2.808-2.964-2.808h-3.51V183h1.404v-3.64h2.106c1.807 0 2.964-1.196 2.964-2.808zm-1.404 0c0 .975-.663 1.534-1.638 1.534h-2.028v-3.081h2.028c.975 0 1.638.572 1.638 1.547zM507.172 157.1l-5.274-5.275a1.27 1.27 0 00-1.781 0 1.271 1.271 0 000 1.782l3.113 3.132h-11.52c-.702 0-1.26.559-1.26 1.26 0 .702.558 1.26 1.26 1.26h11.52l-3.114 3.115a1.27 1.27 0 00.9 2.16c.324 0 .648-.126.9-.379l5.256-5.256c.234-.234.378-.558.378-.9 0-.341-.126-.665-.378-.9v.001zM716.872 109v-1.872h-4.4l3.184-3.696c.784-.912 1.216-1.504 1.216-2.608 0-2.048-1.44-3.312-3.456-3.312-1.952 0-3.472 1.248-3.472 3.328h2.08c0-1.104.704-1.456 1.392-1.456.88 0 1.376.576 1.376 1.424 0 .528-.176.88-.592 1.376l-4.256 4.944V109h6.928z" fill="#fff"/><rect x="700" y="90" width="28" height="28" rx="14" stroke="#fff" stroke-width="2"/><path d="M748.345 105.584v-6.552h-1.932v6.482c0 1.148-.686 1.834-1.736 1.834-1.05 0-1.722-.686-1.722-1.834v-6.482h-1.946v6.552c0 2.114 1.624 3.5 3.668 3.5s3.668-1.386 3.668-3.5zM756.954 106.06c0-.882-.238-1.61-.77-2.114-.42-.392-.994-.644-1.904-.77l-1.176-.168c-.406-.056-.728-.21-.924-.392a.962.962 0 01-.294-.714c0-.686.504-1.26 1.54-1.26.658 0 1.414.084 2.044.686l1.232-1.218c-.854-.826-1.848-1.162-3.22-1.162-2.156 0-3.472 1.246-3.472 3.024 0 .84.238 1.484.714 1.96.448.434 1.078.7 1.932.826l1.204.168c.462.07.686.168.882.35.21.196.308.49.308.84 0 .798-.616 1.232-1.764 1.232-.924 0-1.778-.21-2.408-.84l-1.26 1.26c.98.994 2.128 1.316 3.64 1.316 2.086 0 3.696-1.092 3.696-3.024zM765.352 109v-1.736h-4.62v-2.422h3.934v-1.736h-3.934v-2.338h4.62v-1.736h-6.566V109h6.566zM774.808 109l-2.226-4.298c.966-.35 1.82-1.218 1.82-2.618 0-1.666-1.204-3.052-3.234-3.052h-3.906V109h1.946v-3.976h1.4l1.946 3.976h2.254zm-2.352-6.916c0 .77-.56 1.316-1.414 1.316h-1.834v-2.632h1.834c.854 0 1.414.546 1.414 1.316zM786.858 105.584v-6.552h-1.932v6.482c0 1.148-.686 1.834-1.736 1.834-1.05 0-1.722-.686-1.722-1.834v-6.482h-1.946v6.552c0 2.114 1.624 3.5 3.668 3.5s3.668-1.386 3.668-3.5zM796.182 102.14c0-1.694-1.232-3.108-3.29-3.108h-3.864V109h1.946v-3.752h1.918c2.058 0 3.29-1.414 3.29-3.108zm-1.946 0c0 .812-.56 1.358-1.442 1.358h-1.82v-2.73h1.82c.882 0 1.442.56 1.442 1.372zM804.917 104.912v-1.456h-3.766v1.624h1.834v.378c0 .518-.126.966-.448 1.33-.322.35-.798.56-1.386.56-.532 0-.966-.196-1.246-.518-.378-.42-.476-.896-.476-2.814 0-1.918.098-2.38.476-2.8.28-.322.714-.532 1.246-.532.994 0 1.568.518 1.792 1.456h1.96c-.266-1.68-1.442-3.192-3.752-3.192-1.12 0-1.988.392-2.688 1.092-1.008 1.008-.98 2.254-.98 3.976s-.028 2.968.98 3.976c.7.7 1.596 1.092 2.688 1.092 1.064 0 2.016-.308 2.814-1.134.7-.728.952-1.596.952-3.038zM814.443 109l-2.226-4.298c.966-.35 1.82-1.218 1.82-2.618 0-1.666-1.204-3.052-3.234-3.052h-3.906V109h1.946v-3.976h1.4l1.946 3.976h2.254zm-2.352-6.916c0 .77-.56 1.316-1.414 1.316h-1.834v-2.632h1.834c.854 0 1.414.546 1.414 1.316zM823.757 109l-3.64-9.968h-1.526L814.965 109h2.03l.602-1.764h3.542l.588 1.764h2.03zm-3.136-3.402h-2.478l1.26-3.626 1.218 3.626zM832.223 103.974c0-1.498.112-2.87-1.008-3.99-.658-.658-1.596-.952-2.632-.952h-3.598V109h3.598c1.036 0 1.974-.294 2.632-.952 1.12-1.12 1.008-2.576 1.008-4.074zm-1.946 0c0 1.512-.056 2.226-.42 2.674-.336.406-.784.616-1.456.616h-1.47v-6.496h1.47c.672 0 1.12.21 1.456.616.364.448.42 1.078.42 2.59zM840.78 109v-1.736h-4.62v-2.422h3.934v-1.736h-3.934v-2.338h4.62v-1.736h-6.566V109h6.566zM849.928 103.974c0-1.498.112-2.87-1.008-3.99-.658-.658-1.596-.952-2.632-.952h-3.598V109h3.598c1.036 0 1.974-.294 2.632-.952 1.12-1.12 1.008-2.576 1.008-4.074zm-1.946 0c0 1.512-.056 2.226-.42 2.674-.336.406-.784.616-1.456.616h-1.47v-6.496h1.47c.672 0 1.12.21 1.456.616.364.448.42 1.078.42 2.59zM748.638 131l-3.654-9.968h-1.218L740.112 131h1.61l.686-2.002h3.934l.686 2.002h1.61zm-2.716-3.29h-3.066l1.554-4.424 1.512 4.424zM756.084 121.032h-1.596l-2.296 7.252-2.296-7.252h-1.568l3.276 9.968h1.176l3.304-9.968zM764.186 127.136v-1.526h-3.64v1.288h2.128v.56c0 .644-.14 1.148-.504 1.568-.392.448-.966.7-1.624.7-.588 0-1.12-.224-1.47-.602-.49-.532-.602-1.106-.602-3.108s.112-2.562.602-3.094c.35-.378.882-.616 1.47-.616 1.12 0 1.848.644 2.1 1.736h1.526c-.28-1.708-1.512-3.094-3.626-3.094-1.064 0-1.932.378-2.618 1.064-.98.98-.966 2.086-.966 4.004 0 1.918-.014 3.024.966 4.004.686.686 1.582 1.064 2.618 1.064 1.05 0 1.988-.336 2.744-1.134.658-.7.896-1.526.896-2.814zM775.899 122.39v-1.358h-7v1.358h2.744V131h1.512v-8.61h2.744zM779.127 131v-9.968h-1.512V131h1.512zM790.522 131v-9.968h-1.512l-2.856 6.202-2.912-6.202h-1.512V131h1.512v-6.664l2.352 4.858h1.12l2.296-4.858V131h1.512zM799.489 131v-1.358h-4.858v-2.996h4.144v-1.344h-4.144v-2.912h4.858v-1.358h-6.37V131h6.37zM803.402 127.01v-1.708h-1.694v1.708h1.694zm0 3.99v-1.708h-1.694V131h1.694zM814.896 122.67v-1.638h-6.342v3.206h1.736v-1.568h2.632l-3.234 8.33h1.974l3.234-8.33zM823.883 131v-9.968h-1.946v4.074h-3.374v-4.074h-1.946V131h1.946v-4.172h3.374V131h1.946zM835.461 129.586v-1.722h-.91v-1.862h-1.75v1.862h-2.086l3.416-6.832h-1.988l-3.416 6.832v1.722h4.074V131h1.75v-1.414h.91zM842.937 122.67v-1.638h-6.342v3.206h1.736v-1.568h2.632l-3.234 8.33h1.974l3.234-8.33zM853.688 131v-9.968h-1.918l-2.59 5.39-2.604-5.39h-1.918V131h1.946v-5.81l1.918 3.78h1.316l1.904-3.78V131h1.946z" fill="#fff"/><path opacity=".25" stroke="#fff" d="M714.5 117v294"/><path opacity=".5" d="M745 255.5h142a3.5 3.5 0 013.5 3.5v152.5h-149V259a3.5 3.5 0 013.5-3.5z" stroke="#fff"/><path fill="#fff" stroke="#fff" d="M741.5 401.5h149v10h-149z"/><path d="M804.373 376.1v-2.34h-9.061v4.58h2.481v-2.24h3.76l-4.62 11.9h2.82l4.62-11.9zM809.512 388v-2.96h-2.98V388h2.98zM820.775 383.88c0-1.72-.82-2.7-1.84-3.24.94-.5 1.64-1.38 1.64-2.92 0-2.4-1.82-4.08-4.34-4.08-2.4 0-4.3 1.52-4.36 4.06h2.6c.06-1.08.78-1.72 1.76-1.72.94 0 1.74.62 1.74 1.82 0 1-.54 1.78-1.8 1.78h-.38v2.26h.38c1.28 0 2 .78 2 1.96 0 1.28-.8 1.98-1.92 1.98-1.02 0-1.9-.58-1.94-1.86h-2.6c.04 2.98 2.22 4.2 4.54 4.2 2.44 0 4.52-1.4 4.52-4.24zM837.654 385.38v-1.98c0-1.8-1.34-2.74-2.9-2.74-1.58 0-2.9.94-2.9 2.74v1.98c0 1.8 1.32 2.74 2.9 2.74 1.56 0 2.9-.94 2.9-2.74zm-3.04-11.62h-2.04l-6.74 14.24h2.04l6.74-14.24zm-6.04 4.6v-1.98c0-1.8-1.34-2.74-2.9-2.74-1.58 0-2.9.94-2.9 2.74v1.98c0 1.8 1.32 2.74 2.9 2.74 1.56 0 2.9-.94 2.9-2.74zm7.2 6.94c0 .76-.38 1.14-1.02 1.14-.66 0-1.02-.38-1.02-1.14v-1.82c0-.76.36-1.14 1.02-1.14.64 0 1.02.38 1.02 1.14v1.82zm-9.08-7.02c0 .76-.38 1.14-1.02 1.14s-1.02-.38-1.02-1.14v-1.82c0-.76.36-1.14 1.02-1.14.64 0 1.02.38 1.02 1.14v1.82zM750 162.274c0-1.566-.918-2.412-1.62-2.88.648-.45 1.44-1.296 1.44-2.664 0-2.268-1.782-3.654-3.924-3.654s-3.942 1.386-3.942 3.654c0 1.368.792 2.214 1.44 2.664-.702.468-1.602 1.314-1.602 2.88 0 2.484 1.836 3.834 4.104 3.834s4.104-1.35 4.104-3.834zm-2.52-5.472c0 .936-.666 1.62-1.584 1.62s-1.602-.684-1.602-1.62c0-.918.684-1.62 1.602-1.62s1.584.702 1.584 1.62zm.18 5.436c0 .99-.774 1.764-1.764 1.764s-1.764-.774-1.764-1.764.774-1.782 1.764-1.782 1.764.792 1.764 1.782zM759.683 157.036c0-2.538-1.728-3.96-3.996-3.96s-3.996 1.476-3.996 3.996c0 2.376 1.656 3.798 3.384 3.798.306 0 .648-.036.954-.162L753.365 166h2.538l2.718-5.544c.576-1.17 1.062-2.25 1.062-3.42zm-2.34.018c0 1.188-.702 1.872-1.656 1.872-.99 0-1.656-.738-1.656-1.872 0-1.188.702-1.872 1.656-1.872s1.656.684 1.656 1.872zM769.533 166.45c-.432-.432-.738-.684-1.008-1.188-.18-.342-.27-.828-.27-1.476v-8.388c0-.648.09-1.134.27-1.476.27-.504.576-.756 1.008-1.188l-1.242-1.242c-.576.576-1.098 1.062-1.458 1.71-.378.666-.414 1.368-.414 2.088v8.604c0 .72.036 1.422.414 2.088.36.648.882 1.134 1.458 1.71l1.242-1.242zM779.35 154.822v-1.638h-7.632v3.654h1.764v-2.016h3.906L773.086 166h1.98l4.284-11.178zM783.782 166v-2.196h-2.196V166h2.196zM793.795 162.4c0-1.584-.702-2.538-1.8-3.024.99-.486 1.602-1.368 1.602-2.736 0-2.124-1.548-3.582-3.726-3.582-2.052 0-3.654 1.314-3.762 3.492h1.836c.09-1.134.81-1.836 1.926-1.836 1.044 0 1.89.684 1.89 1.98 0 1.17-.612 1.944-1.944 1.944h-.306v1.602h.306c1.44 0 2.142.81 2.142 2.106 0 1.35-.9 2.124-2.088 2.124-1.062 0-2.016-.576-2.088-1.944h-1.836c.072 2.502 1.872 3.6 3.924 3.6 2.142 0 3.924-1.26 3.924-3.726zM808.901 163.66v-1.818c0-1.548-1.116-2.466-2.52-2.466s-2.52.918-2.52 2.466v1.818c0 1.548 1.116 2.466 2.52 2.466s2.52-.918 2.52-2.466zm-2.79-10.476h-1.458L798.605 166h1.476l6.03-12.816zm-5.238 4.158v-1.818c0-1.548-1.116-2.466-2.52-2.466s-2.52.918-2.52 2.466v1.818c0 1.548 1.116 2.448 2.52 2.448s2.52-.9 2.52-2.448zm6.642 6.264c0 .81-.36 1.296-1.134 1.296-.774 0-1.134-.468-1.134-1.296v-1.71c0-.828.36-1.296 1.134-1.296.774 0 1.134.486 1.134 1.296v1.71zm-8.028-6.318c0 .81-.36 1.278-1.134 1.278-.774 0-1.134-.45-1.134-1.278v-1.71c0-.828.36-1.296 1.134-1.296.774 0 1.134.486 1.134 1.296v1.71zM814.117 163.894v-8.604c0-.72-.054-1.422-.432-2.088-.36-.648-.864-1.134-1.44-1.71l-1.26 1.26c.432.432.72.684.99 1.188.18.342.27.828.27 1.458v8.388c0 .63-.09 1.116-.27 1.458-.27.504-.558.756-.99 1.188l1.26 1.26c.576-.576 1.08-1.062 1.44-1.71.378-.666.432-1.368.432-2.088zM748.501 180.231h-1.417c-.221.936-.858 1.586-1.885 1.586-.546 0-1.04-.208-1.365-.559-.455-.494-.559-1.027-.559-2.886 0-1.859.104-2.392.559-2.886.325-.351.819-.559 1.365-.559 1.027 0 1.651.65 1.872 1.586h1.43c-.325-1.846-1.599-2.847-3.302-2.847-.962 0-1.794.351-2.431.988-.91.91-.897 1.937-.897 3.718s-.013 2.808.897 3.718c.637.637 1.469.988 2.431.988 1.677 0 2.99-1.001 3.302-2.847zM756.69 178.372c0-1.781.026-2.808-.884-3.718-.637-.637-1.456-.988-2.444-.988s-1.794.351-2.431.988c-.91.91-.897 1.937-.897 3.718s-.013 2.808.897 3.718c.637.637 1.443.988 2.431.988s1.807-.351 2.444-.988c.91-.91.884-1.937.884-3.718zm-1.404 0c0 1.859-.091 2.379-.546 2.873-.325.351-.832.572-1.378.572-.546 0-1.053-.221-1.378-.572-.455-.494-.546-1.014-.546-2.873 0-1.859.091-2.379.546-2.873.325-.351.832-.572 1.378-.572.546 0 1.053.221 1.378.572.455.494.546 1.014.546 2.873zM766.94 183v-9.256h-1.404l-2.652 5.759-2.704-5.759h-1.404V183h1.404v-6.188l2.184 4.511h1.04l2.132-4.511V183h1.404zM775.826 176.552c0-1.612-1.157-2.808-2.964-2.808h-3.51V183h1.404v-3.64h2.106c1.807 0 2.964-1.196 2.964-2.808zm-1.404 0c0 .975-.663 1.534-1.638 1.534h-2.028v-3.081h2.028c.975 0 1.638.572 1.638 1.547zM783.39 183v-1.261h-4.459v-7.995h-1.404V183h5.863zM790.907 183v-1.261h-4.511v-2.782h3.848v-1.248h-3.848v-2.704h4.511v-1.261h-5.915V183h5.915zM798.506 175.005v-1.261h-6.5v1.261h2.548V183h1.404v-7.995h2.548zM806.015 183v-1.261h-4.511v-2.782h3.848v-1.248h-3.848v-2.704h4.511v-1.261H800.1V183h5.915zM814.511 178.307c0-1.339.065-2.691-.936-3.692-.585-.585-1.43-.871-2.392-.871h-3.25V183h3.25c.962 0 1.807-.286 2.392-.871 1.001-1.001.936-2.483.936-3.822zm-1.404 0c0 1.274-.013 2.275-.494 2.808-.39.429-.91.624-1.573.624h-1.703v-6.734h1.703c.663 0 1.183.195 1.573.624.481.533.494 1.404.494 2.678zM825.499 180.361c0-.793-.247-1.456-.754-1.898-.39-.351-.871-.559-1.729-.689l-1.053-.156c-.429-.065-.806-.221-1.04-.429-.247-.221-.351-.52-.351-.858 0-.819.598-1.443 1.69-1.443.78 0 1.443.169 2.015.715l.897-.884c-.793-.741-1.651-1.053-2.873-1.053-1.924 0-3.094 1.105-3.094 2.717 0 .754.221 1.339.676 1.768.403.377 1.001.637 1.755.741l1.092.156c.546.078.78.169 1.014.39.247.221.364.559.364.962 0 .897-.702 1.417-1.911 1.417-.949 0-1.69-.208-2.366-.884l-.936.923c.884.897 1.885 1.222 3.276 1.222 1.937 0 3.328-1.014 3.328-2.717zM833.063 175.005v-1.261h-6.5v1.261h2.548V183h1.404v-7.995h2.548zM840.571 183v-1.261h-4.511v-2.782h3.848v-1.248h-3.848v-2.704h4.511v-1.261h-5.915V183h5.915zM848.963 176.552c0-1.612-1.157-2.808-2.964-2.808h-3.51V183h1.404v-3.64h2.106c1.807 0 2.964-1.196 2.964-2.808zm-1.404 0c0 .975-.663 1.534-1.638 1.534h-2.028v-3.081h2.028c.975 0 1.638.572 1.638 1.547zM721.172 157.1l-5.274-5.275a1.27 1.27 0 00-1.781 0 1.271 1.271 0 000 1.782l3.113 3.132h-11.52c-.702 0-1.26.559-1.26 1.26 0 .702.558 1.26 1.26 1.26h11.52l-3.114 3.115a1.27 1.27 0 00.9 2.16c.324 0 .648-.126.9-.379l5.256-5.256c.234-.234.378-.558.378-.9 0-.341-.126-.665-.378-.9v.001zM749.856 216v-2.106h-4.949l3.581-4.158c.883-1.026 1.368-1.692 1.368-2.934 0-2.304-1.619-3.726-3.887-3.726-2.196 0-3.907 1.404-3.907 3.744h2.341c0-1.242.792-1.638 1.566-1.638.99 0 1.548.648 1.548 1.602 0 .594-.199.99-.666 1.548l-4.789 5.562V216h7.794zM759.558 212.292v-5.4c0-2.448-1.8-3.816-3.888-3.816s-3.906 1.368-3.906 3.816v5.4c0 2.448 1.818 3.816 3.906 3.816s3.888-1.368 3.888-3.816zm-2.34-.018c0 1.08-.63 1.728-1.548 1.728s-1.566-.648-1.566-1.728v-5.346c0-1.08.648-1.746 1.566-1.746s1.548.666 1.548 1.746v5.346zM769.403 216v-2.106h-4.95l3.582-4.158c.882-1.026 1.368-1.692 1.368-2.934 0-2.304-1.62-3.726-3.888-3.726-2.196 0-3.906 1.404-3.906 3.744h2.34c0-1.242.792-1.638 1.566-1.638.99 0 1.548.648 1.548 1.602 0 .594-.198.99-.666 1.548l-4.788 5.562V216h7.794zM779.307 216.45c-.432-.432-.738-.684-1.008-1.188-.18-.342-.27-.828-.27-1.476v-8.388c0-.648.09-1.134.27-1.476.27-.504.576-.756 1.008-1.188l-1.242-1.242c-.576.576-1.098 1.062-1.458 1.71-.378.666-.414 1.368-.414 2.088v8.604c0 .72.036 1.422.414 2.088.36.648.882 1.134 1.458 1.71l1.242-1.242zM788.944 206.91c0-2.376-1.584-3.834-3.798-3.834s-3.78 1.548-3.78 3.906c0 2.25 1.494 3.708 3.348 3.708.396 0 .81-.054 1.152-.198L783.112 216h1.962l2.916-5.94c.558-1.116.954-2.106.954-3.15zm-1.836.036c0 1.386-.81 2.214-1.962 2.214-1.224 0-1.944-.954-1.944-2.214 0-1.368.792-2.232 1.944-2.232s1.962.864 1.962 2.232zM798.542 216v-1.638h-5.22l4.014-4.914c.792-.972 1.206-1.638 1.206-2.772 0-2.214-1.512-3.6-3.708-3.6-2.178 0-3.726 1.44-3.726 3.618h1.836c0-1.44.918-1.98 1.89-1.98 1.188 0 1.872.792 1.872 1.944 0 .648-.198 1.116-.684 1.71l-4.932 5.994V216h7.452zM803.153 216v-2.196h-2.196V216h2.196zM813.329 204.822v-1.638h-7.632v3.654h1.764v-2.016h3.906L807.065 216h1.98l4.284-11.178zM828.273 213.66v-1.818c0-1.548-1.116-2.466-2.52-2.466s-2.52.918-2.52 2.466v1.818c0 1.548 1.116 2.466 2.52 2.466s2.52-.918 2.52-2.466zm-2.79-10.476h-1.458L817.977 216h1.476l6.03-12.816zm-5.238 4.158v-1.818c0-1.548-1.116-2.466-2.52-2.466s-2.52.918-2.52 2.466v1.818c0 1.548 1.116 2.448 2.52 2.448s2.52-.9 2.52-2.448zm6.642 6.264c0 .81-.36 1.296-1.134 1.296-.774 0-1.134-.468-1.134-1.296v-1.71c0-.828.36-1.296 1.134-1.296.774 0 1.134.486 1.134 1.296v1.71zm-8.028-6.318c0 .81-.36 1.278-1.134 1.278-.774 0-1.134-.45-1.134-1.278v-1.71c0-.828.36-1.296 1.134-1.296.774 0 1.134.486 1.134 1.296v1.71zM833.489 213.894v-8.604c0-.72-.054-1.422-.432-2.088-.36-.648-.864-1.134-1.44-1.71l-1.26 1.26c.432.432.72.684.99 1.188.18.342.27.828.27 1.458v8.388c0 .63-.09 1.116-.27 1.458-.27.504-.558.756-.99 1.188l1.26 1.26c.576-.576 1.08-1.062 1.44-1.71.378-.666.432-1.368.432-2.088zM748.788 228.307c0-1.339.065-2.691-.936-3.692-.585-.585-1.43-.871-2.392-.871h-3.251V233h3.251c.962 0 1.807-.286 2.392-.871 1.001-1.001.936-2.483.936-3.822zm-1.404 0c0 1.274-.014 2.275-.495 2.808-.39.429-.91.624-1.573.624h-1.702v-6.734h1.702c.663 0 1.183.195 1.573.624.481.533.495 1.404.495 2.678zM757.615 233l-2.132-4.095c1.04-.286 1.846-1.131 1.846-2.457 0-1.573-1.118-2.704-2.873-2.704h-3.588V233h1.404v-3.9h1.755l1.95 3.9h1.638zm-1.69-6.539c0 .91-.637 1.443-1.573 1.443h-2.08v-2.899h2.08c.936 0 1.573.546 1.573 1.456zM765.704 228.372c0-1.781.026-2.808-.884-3.718-.637-.637-1.456-.988-2.444-.988s-1.794.351-2.431.988c-.91.91-.897 1.937-.897 3.718s-.013 2.808.897 3.718c.637.637 1.443.988 2.431.988s1.807-.351 2.444-.988c.91-.91.884-1.937.884-3.718zm-1.404 0c0 1.859-.091 2.379-.546 2.873-.325.351-.832.572-1.378.572-.546 0-1.053-.221-1.378-.572-.455-.494-.546-1.014-.546-2.873 0-1.859.091-2.379.546-2.873.325-.351.832-.572 1.378-.572.546 0 1.053.221 1.378.572.455.494.546 1.014.546 2.873zM774.265 226.552c0-1.612-1.157-2.808-2.964-2.808h-3.51V233h1.404v-3.64h2.106c1.807 0 2.964-1.196 2.964-2.808zm-1.404 0c0 .975-.663 1.534-1.638 1.534h-2.028v-3.081h2.028c.975 0 1.638.572 1.638 1.547zM782.44 226.552c0-1.612-1.157-2.808-2.964-2.808h-3.51V233h1.404v-3.64h2.106c1.807 0 2.964-1.196 2.964-2.808zm-1.404 0c0 .975-.663 1.534-1.638 1.534h-2.028v-3.081h2.028c.975 0 1.638.572 1.638 1.547zM790.057 233v-1.261h-4.511v-2.782h3.848v-1.248h-3.848v-2.704h4.511v-1.261h-5.915V233h5.915zM798.553 228.307c0-1.339.065-2.691-.936-3.692-.585-.585-1.43-.871-2.392-.871h-3.25V233h3.25c.962 0 1.807-.286 2.392-.871 1.001-1.001.936-2.483.936-3.822zm-1.404 0c0 1.274-.013 2.275-.494 2.808-.39.429-.91.624-1.573.624h-1.703v-6.734h1.703c.663 0 1.183.195 1.573.624.481.533.494 1.404.494 2.678zM810.074 228.372c0-1.781.026-2.808-.884-3.718-.637-.637-1.456-.988-2.444-.988s-1.794.351-2.431.988c-.91.91-.897 1.937-.897 3.718s-.013 2.808.897 3.718c.637.637 1.443.988 2.431.988s1.807-.351 2.444-.988c.91-.91.884-1.937.884-3.718zm-1.404 0c0 1.859-.091 2.379-.546 2.873-.325.351-.832.572-1.378.572-.546 0-1.053-.221-1.378-.572-.455-.494-.546-1.014-.546-2.873 0-1.859.091-2.379.546-2.873.325-.351.832-.572 1.378-.572.546 0 1.053.221 1.378.572.455.494.546 1.014.546 2.873zM818.076 225.005v-1.261h-5.915V233h1.404v-3.913h3.848v-1.261h-3.848v-2.821h4.511zM825.68 225.005v-1.261h-5.915V233h1.404v-3.913h3.848v-1.261h-3.848v-2.821h4.511z" fill="#fff"/><g clip-path="url(#clip0)"><path d="M719.414 213.141l.001-7.458c0-.687-.573-1.26-1.26-1.26s-1.26.573-1.26 1.26l-.013 4.416-8.146-8.146a1.253 1.253 0 00-1.782 0 1.253 1.253 0 000 1.782l8.146 8.146h-4.404a1.27 1.27 0 00-.891 2.164c.229.229.547.369.903.369h7.433c.331 0 .663-.127.904-.369.242-.242.382-.56.369-.904z" fill="#fff"/></g><g opacity=".75" fill="#fff"><path d="M226.162 60.135V58.61h-3.64v1.288h2.128v.56c0 .644-.14 1.148-.504 1.568-.392.448-.966.7-1.624.7-.588 0-1.12-.224-1.47-.602-.49-.532-.602-1.106-.602-3.108s.112-2.562.602-3.094c.35-.378.882-.616 1.47-.616 1.12 0 1.848.644 2.1 1.736h1.526c-.28-1.708-1.512-3.094-3.626-3.094-1.064 0-1.932.378-2.618 1.064-.98.98-.966 2.086-.966 4.004 0 1.918-.014 3.024.966 4.004.686.686 1.582 1.064 2.618 1.064 1.05 0 1.988-.336 2.744-1.134.658-.7.896-1.526.896-2.814zM235.659 64l-2.296-4.41c1.12-.309 1.988-1.219 1.988-2.647 0-1.694-1.204-2.912-3.094-2.912h-3.864V64h1.512v-4.2h1.89l2.1 4.2h1.764zm-1.82-7.043c0 .98-.686 1.554-1.694 1.554h-2.24V55.39h2.24c1.008 0 1.694.588 1.694 1.568zM244.903 64l-3.654-9.969h-1.218L236.377 64h1.61l.686-2.002h3.934l.686 2.002h1.61zm-2.716-3.29h-3.066l1.554-4.425 1.512 4.424zM253.289 57.055c0-1.736-1.246-3.024-3.192-3.024h-3.78V64h1.512v-3.92h2.268c1.946 0 3.192-1.288 3.192-3.024zm-1.512 0c0 1.05-.714 1.652-1.764 1.652h-2.184V55.39h2.184c1.05 0 1.764.616 1.764 1.666zM262.192 64V54.03h-1.512v4.256h-4.046v-4.256h-1.512V64h1.512v-4.354h4.046V64h1.512zM274.283 55.39V54.03h-7v1.358h2.744V64h1.512v-8.61h2.744zM282.243 54.031h-1.652l-2.086 4.382-2.086-4.382h-1.652l2.982 5.866V64h1.512v-4.102l2.982-5.866zM290.586 57.055c0-1.736-1.246-3.024-3.192-3.024h-3.78V64h1.512v-3.92h2.268c1.946 0 3.192-1.288 3.192-3.024zm-1.512 0c0 1.05-.714 1.652-1.764 1.652h-2.184V55.39h2.184c1.05 0 1.764.616 1.764 1.666zM298.789 64V62.64h-4.858v-2.996h4.144v-1.344h-4.144V55.39h4.858v-1.358h-6.37V64h6.37z"/></g><path d="M235.07 99.051v-9.968h-1.512v4.256h-4.046v-4.256H228v9.968h1.512v-4.354h4.046v4.354h1.512zM239.192 99.051v-9.968h-1.512v9.968h1.512zM248.025 96.209c0-.854-.266-1.568-.812-2.044-.42-.378-.938-.602-1.862-.742l-1.134-.168c-.462-.07-.868-.238-1.12-.462-.266-.238-.378-.56-.378-.924 0-.882.644-1.554 1.82-1.554.84 0 1.554.182 2.17.77l.966-.952c-.854-.798-1.778-1.134-3.094-1.134-2.072 0-3.332 1.19-3.332 2.926 0 .812.238 1.442.728 1.904.434.406 1.078.686 1.89.798l1.176.168c.588.084.84.182 1.092.42.266.238.392.602.392 1.036 0 .966-.756 1.526-2.058 1.526-1.022 0-1.82-.224-2.548-.952l-1.008.994c.952.966 2.03 1.316 3.528 1.316 2.086 0 3.584-1.092 3.584-2.926zM256.171 90.441v-1.358h-7v1.358h2.744v8.61h1.512v-8.61h2.744zM264.417 94.067c0-1.918.028-3.024-.952-4.004-.686-.686-1.568-1.064-2.632-1.064s-1.932.378-2.618 1.064c-.98.98-.966 2.086-.966 4.004 0 1.918-.014 3.024.966 4.004.686.686 1.554 1.064 2.618 1.064 1.064 0 1.946-.378 2.632-1.064.98-.98.952-2.086.952-4.004zm-1.512 0c0 2.002-.098 2.562-.588 3.094-.35.378-.896.616-1.484.616s-1.134-.238-1.484-.616c-.49-.532-.588-1.092-.588-3.094s.098-2.562.588-3.094c.35-.378.896-.616 1.484-.616s1.134.238 1.484.616c.49.532.588 1.092.588 3.094zM273.93 99.051l-2.296-4.41c1.12-.308 1.988-1.218 1.988-2.646 0-1.694-1.204-2.912-3.094-2.912h-3.864v9.968h1.512v-4.2h1.89l2.1 4.2h1.764zm-1.82-7.042c0 .98-.686 1.554-1.694 1.554h-2.24v-3.122h2.24c1.008 0 1.694.588 1.694 1.568zM277.35 99.051v-9.968h-1.512v9.968h1.512zM286.729 96.069h-1.526c-.238 1.008-.924 1.708-2.03 1.708-.588 0-1.12-.224-1.47-.602-.49-.532-.602-1.106-.602-3.108s.112-2.576.602-3.108c.35-.378.882-.602 1.47-.602 1.106 0 1.778.7 2.016 1.708h1.54c-.35-1.988-1.722-3.066-3.556-3.066-1.036 0-1.932.378-2.618 1.064-.98.98-.966 2.086-.966 4.004 0 1.918-.014 3.024.966 4.004.686.686 1.582 1.064 2.618 1.064 1.806 0 3.22-1.078 3.556-3.066zM295.943 99.051l-3.654-9.968h-1.218l-3.654 9.968h1.61l.686-2.002h3.934l.686 2.002h1.61zm-2.716-3.29h-3.066l1.554-4.424 1.512 4.424zM303.671 99.051v-1.358h-4.802v-8.61h-1.512v9.968h6.314zM314.878 90.441v-1.358h-7v1.358h2.744v8.61h1.512v-8.61h2.744zM323.86 99.051l-2.296-4.41c1.12-.308 1.988-1.218 1.988-2.646 0-1.694-1.204-2.912-3.094-2.912h-3.864v9.968h1.512v-4.2h1.89l2.1 4.2h1.764zm-1.82-7.042c0 .98-.686 1.554-1.694 1.554h-2.24v-3.122h2.24c1.008 0 1.694.588 1.694 1.568zM332.138 99.051v-1.358h-4.858v-2.996h4.144v-1.344h-4.144v-2.912h4.858v-1.358h-6.37v9.968h6.37zM341.707 99.051v-9.968h-1.512v7l-4.606-7h-1.386v9.968h1.512v-7.014l4.606 7.014h1.386zM351.391 93.997c0-1.442.07-2.898-1.008-3.976-.63-.63-1.54-.938-2.576-.938h-3.5v9.968h3.5c1.036 0 1.946-.308 2.576-.938 1.078-1.078 1.008-2.674 1.008-4.116zm-1.512 0c0 1.372-.014 2.45-.532 3.024-.42.462-.98.672-1.694.672h-1.834v-7.252h1.834c.714 0 1.274.21 1.694.672.518.574.532 1.512.532 2.884zM359.861 96.209c0-.854-.266-1.568-.812-2.044-.42-.378-.938-.602-1.862-.742l-1.134-.168c-.462-.07-.868-.238-1.12-.462-.266-.238-.378-.56-.378-.924 0-.882.644-1.554 1.82-1.554.84 0 1.554.182 2.17.77l.966-.952c-.854-.798-1.778-1.134-3.094-1.134-2.072 0-3.332 1.19-3.332 2.926 0 .812.238 1.442.728 1.904.434.406 1.078.686 1.89.798l1.176.168c.588.084.84.182 1.092.42.266.238.392.602.392 1.036 0 .966-.756 1.526-2.058 1.526-1.022 0-1.82-.224-2.548-.952l-1.008.994c.952.966 2.03 1.316 3.528 1.316 2.086 0 3.584-1.092 3.584-2.926z" fill="#fff"/><rect x="218.5" y="77.499" width="230" height="33.136" rx="3.5" stroke="#fff" stroke-opacity=".5"/><g opacity=".75" fill="#fff"><path d="M225.532 150.157c0-.854-.266-1.568-.812-2.044-.42-.378-.938-.602-1.862-.742l-1.134-.168c-.462-.07-.868-.238-1.12-.462-.266-.238-.378-.56-.378-.924 0-.882.644-1.554 1.82-1.554.84 0 1.554.182 2.17.77l.966-.952c-.854-.798-1.778-1.134-3.094-1.134-2.072 0-3.332 1.19-3.332 2.926 0 .812.238 1.442.728 1.904.434.406 1.078.686 1.89.798l1.176.168c.588.084.84.182 1.092.42.266.238.392.602.392 1.036 0 .966-.756 1.526-2.058 1.526-1.022 0-1.82-.224-2.548-.952l-1.008.994c.952.966 2.03 1.316 3.528 1.316 2.086 0 3.584-1.092 3.584-2.926zM233.678 144.389v-1.358h-7v1.358h2.744v8.61h1.512v-8.61h2.744zM241.764 152.999v-1.358h-4.858v-2.996h4.144v-1.344h-4.144v-2.912h4.858v-1.358h-6.37v9.968h6.37zM250.801 146.055c0-1.736-1.246-3.024-3.192-3.024h-3.78v9.968h1.512v-3.92h2.268c1.946 0 3.192-1.288 3.192-3.024zm-1.512 0c0 1.05-.714 1.652-1.764 1.652h-2.184v-3.318h2.184c1.05 0 1.764.616 1.764 1.666zM258.864 150.157c0-.854-.266-1.568-.812-2.044-.42-.378-.938-.602-1.862-.742l-1.134-.168c-.462-.07-.868-.238-1.12-.462-.266-.238-.378-.56-.378-.924 0-.882.644-1.554 1.82-1.554.84 0 1.554.182 2.17.77l.966-.952c-.854-.798-1.778-1.134-3.094-1.134-2.072 0-3.332 1.19-3.332 2.926 0 .812.238 1.442.728 1.904.434.406 1.078.686 1.89.798l1.176.168c.588.084.84.182 1.092.42.266.238.392.602.392 1.036 0 .966-.756 1.526-2.058 1.526-1.022 0-1.82-.224-2.548-.952l-1.008.994c.952.966 2.03 1.316 3.528 1.316 2.086 0 3.584-1.092 3.584-2.926z"/></g><path d="M237.26 190.999v-8.544h-1.224l-1.668 1.44v1.356l1.668-1.464v7.212h1.224z" fill="#fff"/><rect x="227" y="176.999" width="18" height="18" rx="9" stroke="#fff" stroke-width="2"/><path d="M261.154 187.623v-6.608h-1.512v6.538c0 1.33-.826 2.156-2.072 2.156s-2.058-.826-2.058-2.156v-6.538H254v6.608c0 2.058 1.54 3.444 3.57 3.444s3.584-1.386 3.584-3.444zM269.831 188.141c0-.854-.266-1.568-.812-2.044-.42-.378-.938-.602-1.862-.742l-1.134-.168c-.462-.07-.868-.238-1.12-.462-.266-.238-.378-.56-.378-.924 0-.882.644-1.554 1.82-1.554.84 0 1.554.182 2.17.77l.966-.952c-.854-.798-1.778-1.134-3.094-1.134-2.072 0-3.332 1.19-3.332 2.926 0 .812.238 1.442.728 1.904.434.406 1.078.686 1.89.798l1.176.168c.588.084.84.182 1.092.42.266.238.392.602.392 1.036 0 .966-.756 1.526-2.058 1.526-1.022 0-1.82-.224-2.548-.952l-1.008.994c.952.966 2.03 1.316 3.528 1.316 2.086 0 3.584-1.092 3.584-2.926zM278.229 190.983v-1.358h-4.858v-2.996h4.144v-1.344h-4.144v-2.912h4.858v-1.358h-6.37v9.968h6.37zM287.561 190.983l-2.296-4.41c1.12-.308 1.988-1.218 1.988-2.646 0-1.694-1.204-2.912-3.094-2.912h-3.864v9.968h1.512v-4.2h1.89l2.1 4.2h1.764zm-1.82-7.042c0 .98-.686 1.554-1.694 1.554h-2.24v-3.122h2.24c1.008 0 1.694.588 1.694 1.568zM299.062 188.141c0-.854-.266-1.568-.812-2.044-.42-.378-.938-.602-1.862-.742l-1.134-.168c-.462-.07-.868-.238-1.12-.462-.266-.238-.378-.56-.378-.924 0-.882.644-1.554 1.82-1.554.84 0 1.554.182 2.17.77l.966-.952c-.854-.798-1.778-1.134-3.094-1.134-2.072 0-3.332 1.19-3.332 2.926 0 .812.238 1.442.728 1.904.434.406 1.078.686 1.89.798l1.176.168c.588.084.84.182 1.092.42.266.238.392.602.392 1.036 0 .966-.756 1.526-2.058 1.526-1.022 0-1.82-.224-2.548-.952l-1.008.994c.952.966 2.03 1.316 3.528 1.316 2.086 0 3.584-1.092 3.584-2.926zM302.602 190.983v-9.968h-1.512v9.968h1.512zM312.065 187.119v-1.526h-3.64v1.288h2.128v.56c0 .644-.14 1.148-.504 1.568-.392.448-.966.7-1.624.7-.588 0-1.12-.224-1.47-.602-.49-.532-.602-1.106-.602-3.108s.112-2.562.602-3.094c.35-.378.882-.616 1.47-.616 1.12 0 1.848.644 2.1 1.736h1.526c-.28-1.708-1.512-3.094-3.626-3.094-1.064 0-1.932.378-2.618 1.064-.98.98-.966 2.086-.966 4.004 0 1.918-.014 3.024.966 4.004.686.686 1.582 1.064 2.618 1.064 1.05 0 1.988-.336 2.744-1.134.658-.7.896-1.526.896-2.814zM321.801 190.983v-9.968h-1.512v7l-4.606-7h-1.386v9.968h1.512v-7.014l4.606 7.014h1.386zM330.77 190.983v-1.358h-4.858v-2.996h4.144v-1.344h-4.144v-2.912h4.858v-1.358h-6.37v9.968h6.37zM339.92 185.929c0-1.442.07-2.898-1.008-3.976-.63-.63-1.54-.938-2.576-.938h-3.5v9.968h3.5c1.036 0 1.946-.308 2.576-.938 1.078-1.078 1.008-2.674 1.008-4.116zm-1.512 0c0 1.372-.014 2.45-.532 3.024-.42.462-.98.672-1.694.672h-1.834v-7.252h1.834c.714 0 1.274.21 1.694.672.518.574.532 1.512.532 2.884zM352.523 187.623v-6.608h-1.512v6.538c0 1.33-.826 2.156-2.072 2.156s-2.058-.826-2.058-2.156v-6.538h-1.512v6.608c0 2.058 1.54 3.444 3.57 3.444s3.584-1.386 3.584-3.444zM361.942 184.039c0-1.736-1.246-3.024-3.192-3.024h-3.78v9.968h1.512v-3.92h2.268c1.946 0 3.192-1.288 3.192-3.024zm-1.512 0c0 1.05-.714 1.652-1.764 1.652h-2.184v-3.318h2.184c1.05 0 1.764.616 1.764 1.666z" fill="#fff"/><rect x="218.5" y="166.499" width="230" height="39" rx="3.5" stroke="#fff" stroke-opacity=".5"/><path d="M238.724 238.999v-1.092h-3.48l2.676-3.276c.528-.648.804-1.092.804-1.848 0-1.476-1.008-2.4-2.472-2.4-1.452 0-2.484.96-2.484 2.412h1.224c0-.96.612-1.32 1.26-1.32.792 0 1.248.528 1.248 1.296 0 .432-.132.744-.456 1.14l-3.288 3.996v1.092h4.968z" fill="#fff"/><rect x="227" y="224.999" width="18" height="18" rx="9" stroke="#fff" stroke-width="2"/><path d="M261.154 235.623v-6.608h-1.512v6.538c0 1.33-.826 2.156-2.072 2.156s-2.058-.826-2.058-2.156v-6.538H254v6.608c0 2.058 1.54 3.444 3.57 3.444s3.584-1.386 3.584-3.444zM269.831 236.141c0-.854-.266-1.568-.812-2.044-.42-.378-.938-.602-1.862-.742l-1.134-.168c-.462-.07-.868-.238-1.12-.462-.266-.238-.378-.56-.378-.924 0-.882.644-1.554 1.82-1.554.84 0 1.554.182 2.17.77l.966-.952c-.854-.798-1.778-1.134-3.094-1.134-2.072 0-3.332 1.19-3.332 2.926 0 .812.238 1.442.728 1.904.434.406 1.078.686 1.89.798l1.176.168c.588.084.84.182 1.092.42.266.238.392.602.392 1.036 0 .966-.756 1.526-2.058 1.526-1.022 0-1.82-.224-2.548-.952l-1.008.994c.952.966 2.03 1.316 3.528 1.316 2.086 0 3.584-1.092 3.584-2.926zM278.229 238.983v-1.358h-4.858v-2.996h4.144v-1.344h-4.144v-2.912h4.858v-1.358h-6.37v9.968h6.37zM287.561 238.983l-2.296-4.41c1.12-.308 1.988-1.218 1.988-2.646 0-1.694-1.204-2.912-3.094-2.912h-3.864v9.968h1.512v-4.2h1.89l2.1 4.2h1.764zm-1.82-7.042c0 .98-.686 1.554-1.694 1.554h-2.24v-3.122h2.24c1.008 0 1.694.588 1.694 1.568zM299.832 235.623v-6.608h-1.512v6.538c0 1.33-.826 2.156-2.072 2.156s-2.058-.826-2.058-2.156v-6.538h-1.512v6.608c0 2.058 1.54 3.444 3.57 3.444s3.584-1.386 3.584-3.444zM309.251 232.039c0-1.736-1.246-3.024-3.192-3.024h-3.78v9.968h1.512v-3.92h2.268c1.946 0 3.192-1.288 3.192-3.024zm-1.512 0c0 1.05-.714 1.652-1.764 1.652h-2.184v-3.318h2.184c1.05 0 1.764.616 1.764 1.666zM317.944 235.119v-1.526h-3.64v1.288h2.128v.56c0 .644-.14 1.148-.504 1.568-.392.448-.966.7-1.624.7-.588 0-1.12-.224-1.47-.602-.49-.532-.602-1.106-.602-3.108s.112-2.562.602-3.094c.35-.378.882-.616 1.47-.616 1.12 0 1.848.644 2.1 1.736h1.526c-.28-1.708-1.512-3.094-3.626-3.094-1.064 0-1.932.378-2.618 1.064-.98.98-.966 2.086-.966 4.004 0 1.918-.014 3.024.966 4.004.686.686 1.582 1.064 2.618 1.064 1.05 0 1.988-.336 2.744-1.134.658-.7.896-1.526.896-2.814zM327.441 238.983l-2.296-4.41c1.12-.308 1.988-1.218 1.988-2.646 0-1.694-1.204-2.912-3.094-2.912h-3.864v9.968h1.512v-4.2h1.89l2.1 4.2h1.764zm-1.82-7.042c0 .98-.686 1.554-1.694 1.554h-2.24v-3.122h2.24c1.008 0 1.694.588 1.694 1.568zM336.685 238.983l-3.654-9.968h-1.218l-3.654 9.968h1.61l.686-2.002h3.934l.686 2.002h1.61zm-2.716-3.29h-3.066l1.554-4.424 1.512 4.424zM345.183 233.929c0-1.442.07-2.898-1.008-3.976-.63-.63-1.54-.938-2.576-.938h-3.5v9.968h3.5c1.036 0 1.946-.308 2.576-.938 1.078-1.078 1.008-2.674 1.008-4.116zm-1.512 0c0 1.372-.014 2.45-.532 3.024-.42.462-.98.672-1.694.672h-1.834v-7.252h1.834c.714 0 1.274.21 1.694.672.518.574.532 1.512.532 2.884zM353.794 238.983v-1.358h-4.858v-2.996h4.144v-1.344h-4.144v-2.912h4.858v-1.358h-6.37v9.968h6.37zM362.943 233.929c0-1.442.07-2.898-1.008-3.976-.63-.63-1.54-.938-2.576-.938h-3.5v9.968h3.5c1.036 0 1.946-.308 2.576-.938 1.078-1.078 1.008-2.674 1.008-4.116zm-1.512 0c0 1.372-.014 2.45-.532 3.024-.42.462-.98.672-1.694.672h-1.834v-7.252h1.834c.714 0 1.274.21 1.694.672.518.574.532 1.512.532 2.884z" fill="#fff"/><rect x="218.5" y="214.499" width="230" height="39" rx="3.5" stroke="#fff" stroke-opacity=".5"/><path fill-rule="evenodd" clip-rule="evenodd" d="M231 281.999a1 1 0 011-1h8a1 1 0 010 2h-8a1 1 0 01-1-1z" fill="#fff"/><path fill-rule="evenodd" clip-rule="evenodd" d="M236 286.999a1 1 0 01-1-1v-8a1 1 0 012 0v8a1 1 0 01-1 1z" fill="#fff"/><rect x="227" y="272.999" width="18" height="18" rx="9" stroke="#fff" stroke-width="2"/><g opacity=".75" fill="#fff"><path d="M262.526 286.983l-3.654-9.968h-1.218L254 286.983h1.61l.686-2.002h3.934l.686 2.002h1.61zm-2.716-3.29h-3.066l1.554-4.424 1.512 4.424zM271.024 281.929c0-1.442.07-2.898-1.008-3.976-.63-.63-1.54-.938-2.576-.938h-3.5v9.968h3.5c1.036 0 1.946-.308 2.576-.938 1.078-1.078 1.008-2.674 1.008-4.116zm-1.512 0c0 1.372-.014 2.45-.532 3.024-.42.462-.98.672-1.694.672h-1.834v-7.252h1.834c.714 0 1.274.21 1.694.672.518.574.532 1.512.532 2.884zM280.348 281.929c0-1.442.07-2.898-1.008-3.976-.63-.63-1.54-.938-2.576-.938h-3.5v9.968h3.5c1.036 0 1.946-.308 2.576-.938 1.078-1.078 1.008-2.674 1.008-4.116zm-1.512 0c0 1.372-.014 2.45-.532 3.024-.42.462-.98.672-1.694.672h-1.834v-7.252h1.834c.714 0 1.274.21 1.694.672.518.574.532 1.512.532 2.884zM292.182 284.141c0-.854-.266-1.568-.812-2.044-.42-.378-.938-.602-1.862-.742l-1.134-.168c-.462-.07-.868-.238-1.12-.462-.266-.238-.378-.56-.378-.924 0-.882.644-1.554 1.82-1.554.84 0 1.554.182 2.17.77l.966-.952c-.854-.798-1.778-1.134-3.094-1.134-2.072 0-3.332 1.19-3.332 2.926 0 .812.238 1.442.728 1.904.434.406 1.078.686 1.89.798l1.176.168c.588.084.84.182 1.092.42.266.238.392.602.392 1.036 0 .966-.756 1.526-2.058 1.526-1.022 0-1.82-.224-2.548-.952l-1.008.994c.952.966 2.03 1.316 3.528 1.316 2.086 0 3.584-1.092 3.584-2.926zM300.328 278.373v-1.358h-7v1.358h2.744v8.61h1.512v-8.61h2.744zM308.414 286.983v-1.358h-4.858v-2.996h4.144v-1.344h-4.144v-2.912h4.858v-1.358h-6.37v9.968h6.37zM317.451 280.039c0-1.736-1.246-3.024-3.192-3.024h-3.78v9.968h1.512v-3.92h2.268c1.946 0 3.192-1.288 3.192-3.024zm-1.512 0c0 1.05-.714 1.652-1.764 1.652h-2.184v-3.318h2.184c1.05 0 1.764.616 1.764 1.666z"/></g><rect x="218.5" y="262.499" width="230" height="39" rx="3.5" stroke="#fff" stroke-opacity=".5"/><path d="M227.984 11.888V8.912H215.72v2.976h4.464V26h3.336V11.888h4.464zM243.639 26l-3.816-7.368c1.656-.6 3.12-2.088 3.12-4.488 0-2.856-2.064-5.232-5.544-5.232h-6.696V26h3.336v-6.816h2.4L239.775 26h3.864zm-4.032-11.856c0 1.32-.96 2.256-2.424 2.256h-3.144v-4.512h3.144c1.464 0 2.424.936 2.424 2.256zM257.662 26v-2.976h-7.92v-4.152h6.744v-2.976h-6.744v-4.008h7.92V8.912h-11.256V26h11.256zM274.017 26V8.912h-3.336v10.464l-6.768-10.464h-2.976V26h3.336V15.512L271.041 26h2.976zM290.408 17.384c0-2.568.192-4.92-1.728-6.84-1.128-1.128-2.736-1.632-4.512-1.632H278V26h6.168c1.776 0 3.384-.504 4.512-1.632 1.92-1.92 1.728-4.416 1.728-6.984zm-3.336 0c0 2.592-.096 3.816-.72 4.584-.576.696-1.344 1.056-2.496 1.056h-2.52V11.888h2.52c1.152 0 1.92.36 2.496 1.056.624.768.72 1.848.72 4.44zM304.86 20.96c0-1.512-.408-2.76-1.32-3.624-.72-.672-1.704-1.104-3.264-1.32l-2.016-.288c-.696-.096-1.248-.36-1.584-.672-.36-.336-.504-.792-.504-1.224 0-1.176.864-2.16 2.64-2.16 1.128 0 2.424.144 3.504 1.176l2.112-2.088c-1.464-1.416-3.168-1.992-5.52-1.992-3.696 0-5.952 2.136-5.952 5.184 0 1.44.408 2.544 1.224 3.36.768.744 1.848 1.2 3.312 1.416l2.064.288c.792.12 1.176.288 1.512.6.36.336.528.84.528 1.44 0 1.368-1.056 2.112-3.024 2.112-1.584 0-3.048-.36-4.128-1.44l-2.16 2.16c1.68 1.704 3.648 2.256 6.24 2.256 3.576 0 6.336-1.872 6.336-5.184zM570.14 20.07h-1.526c-.238 1.008-.924 1.708-2.03 1.708-.588 0-1.12-.224-1.47-.602-.49-.532-.602-1.106-.602-3.108s.112-2.576.602-3.108c.35-.378.882-.602 1.47-.602 1.106 0 1.778.7 2.016 1.708h1.54c-.35-1.988-1.722-3.066-3.556-3.066-1.036 0-1.932.378-2.618 1.064-.98.98-.966 2.086-.966 4.004 0 1.918-.014 3.024.966 4.004.686.686 1.582 1.064 2.618 1.064 1.806 0 3.22-1.078 3.556-3.066zM578.959 18.068c0-1.918.028-3.024-.952-4.004-.686-.686-1.568-1.064-2.632-1.064s-1.932.378-2.618 1.064c-.98.98-.966 2.086-.966 4.004 0 1.918-.014 3.024.966 4.004.686.686 1.554 1.064 2.618 1.064 1.064 0 1.946-.378 2.632-1.064.98-.98.952-2.086.952-4.004zm-1.512 0c0 2.002-.098 2.562-.588 3.094-.35.378-.896.616-1.484.616s-1.134-.238-1.484-.616c-.49-.532-.588-1.092-.588-3.094s.098-2.562.588-3.094c.35-.378.896-.616 1.484-.616s1.134.238 1.484.616c.49.532.588 1.092.588 3.094zM588.71 23.052v-9.968h-1.512v7l-4.606-7h-1.386v9.968h1.512v-7.014l4.606 7.014h1.386zM597.833 13.084h-1.596l-2.296 7.252-2.296-7.252h-1.568l3.276 9.968h1.176l3.304-9.968zM605.582 23.052v-1.358h-4.858v-2.996h4.144v-1.344h-4.144v-2.912h4.858v-1.358h-6.37v9.968h6.37zM614.913 23.052l-2.296-4.41c1.12-.308 1.988-1.218 1.988-2.646 0-1.694-1.204-2.912-3.094-2.912h-3.864v9.968h1.512v-4.2h1.89l2.1 4.2h1.764zm-1.82-7.042c0 .98-.686 1.554-1.694 1.554h-2.24v-3.122h2.24c1.008 0 1.694.588 1.694 1.568zM623.051 20.21c0-.854-.266-1.568-.812-2.044-.42-.378-.938-.602-1.862-.742l-1.134-.168c-.462-.07-.868-.238-1.12-.462-.266-.238-.378-.56-.378-.924 0-.882.644-1.554 1.82-1.554.84 0 1.554.182 2.17.77l.966-.952c-.854-.798-1.778-1.134-3.094-1.134-2.072 0-3.332 1.19-3.332 2.926 0 .812.238 1.442.728 1.904.434.406 1.078.686 1.89.798l1.176.168c.588.084.84.182 1.092.42.266.238.392.602.392 1.036 0 .966-.756 1.526-2.058 1.526-1.022 0-1.82-.224-2.548-.952l-1.008.994c.952.966 2.03 1.316 3.528 1.316 2.086 0 3.584-1.092 3.584-2.926zM626.591 23.052v-9.968h-1.512v9.968h1.512zM635.998 18.068c0-1.918.028-3.024-.952-4.004-.686-.686-1.568-1.064-2.632-1.064s-1.932.378-2.618 1.064c-.98.98-.966 2.086-.966 4.004 0 1.918-.014 3.024.966 4.004.686.686 1.554 1.064 2.618 1.064 1.064 0 1.946-.378 2.632-1.064.98-.98.952-2.086.952-4.004zm-1.512 0c0 2.002-.098 2.562-.588 3.094-.35.378-.896.616-1.484.616s-1.134-.238-1.484-.616c-.49-.532-.588-1.092-.588-3.094s.098-2.562.588-3.094c.35-.378.896-.616 1.484-.616s1.134.238 1.484.616c.49.532.588 1.092.588 3.094zM645.749 23.052v-9.968h-1.512v7l-4.606-7h-1.386v9.968h1.512v-7.014l4.606 7.014h1.386zM662.45 13.084h-1.596l-1.736 7.126-2.002-7.126h-1.218l-2.002 7.126-1.736-7.126h-1.596l2.604 9.968h1.316l2.016-6.986 2.03 6.986h1.316l2.604-9.968zM665.419 23.052v-9.968h-1.512v9.968h1.512zM675.526 23.052v-9.968h-1.512v7l-4.606-7h-1.386v9.968h1.512v-7.014l4.606 7.014h1.386zM685.21 17.998c0-1.442.07-2.898-1.008-3.976-.63-.63-1.54-.938-2.576-.938h-3.5v9.968h3.5c1.036 0 1.946-.308 2.576-.938 1.078-1.078 1.008-2.674 1.008-4.116zm-1.512 0c0 1.372-.014 2.45-.532 3.024-.42.462-.98.672-1.694.672h-1.834v-7.252h1.834c.714 0 1.274.21 1.694.672.518.574.532 1.512.532 2.884zM694.254 18.068c0-1.918.028-3.024-.952-4.004-.686-.686-1.568-1.064-2.632-1.064s-1.932.378-2.618 1.064c-.98.98-.966 2.086-.966 4.004 0 1.918-.014 3.024.966 4.004.686.686 1.554 1.064 2.618 1.064 1.064 0 1.946-.378 2.632-1.064.98-.98.952-2.086.952-4.004zm-1.512 0c0 2.002-.098 2.562-.588 3.094-.35.378-.896.616-1.484.616s-1.134-.238-1.484-.616c-.49-.532-.588-1.092-.588-3.094s.098-2.562.588-3.094c.35-.378.896-.616 1.484-.616s1.134.238 1.484.616c.49.532.588 1.092.588 3.094zM707.102 13.084h-1.596l-1.736 7.126-2.002-7.126h-1.218l-2.002 7.126-1.736-7.126h-1.596l2.604 9.968h1.316l2.016-6.986 2.03 6.986h1.316l2.604-9.968zM731.476 23.052v-9.968h-1.428l-1.946 1.68v1.582l1.946-1.708v8.414h1.428zM740.942 21.554v-1.33h-1.064V17.9h-1.386v2.324h-2.478l3.5-7.14h-1.54l-3.514 7.14v1.33h4.032v1.498h1.386v-1.498h1.064zM753.185 17.998c0-1.442.07-2.898-1.008-3.976-.63-.63-1.54-.938-2.576-.938h-3.5v9.968h3.5c1.036 0 1.946-.308 2.576-.938 1.078-1.078 1.008-2.674 1.008-4.116zm-1.512 0c0 1.372-.014 2.45-.532 3.024-.42.462-.98.672-1.694.672h-1.834v-7.252h1.834c.714 0 1.274.21 1.694.672.518.574.532 1.512.532 2.884zM762.624 23.052l-3.654-9.968h-1.218l-3.654 9.968h1.61l.686-2.002h3.934l.686 2.002h1.61zm-2.716-3.29h-3.066l1.554-4.424 1.512 4.424zM769.79 13.084h-1.652l-2.086 4.382-2.086-4.382h-1.652l2.982 5.866v4.102h1.512V18.95l2.982-5.866zM777.391 20.21c0-.854-.266-1.568-.812-2.044-.42-.378-.938-.602-1.862-.742l-1.134-.168c-.462-.07-.868-.238-1.12-.462-.266-.238-.378-.56-.378-.924 0-.882.644-1.554 1.82-1.554.84 0 1.554.182 2.17.77l.966-.952c-.854-.798-1.778-1.134-3.094-1.134-2.072 0-3.332 1.19-3.332 2.926 0 .812.238 1.442.728 1.904.434.406 1.078.686 1.89.798l1.176.168c.588.084.84.182 1.092.42.266.238.392.602.392 1.036 0 .966-.756 1.526-2.058 1.526-1.022 0-1.82-.224-2.548-.952l-1.008.994c.952.966 2.03 1.316 3.528 1.316 2.086 0 3.584-1.092 3.584-2.926z" fill="#fff"/><rect x="718.602" y="1.5" width="70" height="33.136" rx="3.5" stroke="#fff" stroke-opacity=".5"/><path d="M827 14.442v-1.358h-7v1.358h2.744v8.61h1.512v-8.61H827zM830.228 23.052v-9.968h-1.512v9.968h1.512zM841.623 23.052v-9.968h-1.512l-2.856 6.202-2.912-6.202h-1.512v9.968h1.512v-6.664l2.352 4.858h1.12l2.296-4.858v6.664h1.512zM850.59 23.052v-1.358h-4.858v-2.996h4.144v-1.344h-4.144v-2.912h4.858v-1.358h-6.37v9.968h6.37zM863.285 23.052l-2.296-4.41c1.12-.308 1.988-1.218 1.988-2.646 0-1.694-1.204-2.912-3.094-2.912h-3.864v9.968h1.512v-4.2h1.89l2.1 4.2h1.764zm-1.82-7.042c0 .98-.686 1.554-1.694 1.554h-2.24v-3.122h2.24c1.008 0 1.694.588 1.694 1.568zM872.529 23.052l-3.654-9.968h-1.218l-3.654 9.968h1.61l.686-2.002h3.934l.686 2.002h1.61zm-2.716-3.29h-3.066l1.554-4.424 1.512 4.424zM881.447 23.052v-9.968h-1.512v7l-4.606-7h-1.386v9.968h1.512v-7.014l4.606 7.014h1.386zM890.906 19.188v-1.526h-3.64v1.288h2.128v.56c0 .644-.14 1.148-.504 1.568-.392.448-.966.7-1.624.7-.588 0-1.12-.224-1.47-.602-.49-.532-.602-1.106-.602-3.108s.112-2.562.602-3.094c.35-.378.882-.616 1.47-.616 1.12 0 1.848.644 2.1 1.736h1.526c-.28-1.708-1.512-3.094-3.626-3.094-1.064 0-1.932.378-2.618 1.064-.98.98-.966 2.086-.966 4.004 0 1.918-.014 3.024.966 4.004.686.686 1.582 1.064 2.618 1.064 1.05 0 1.988-.336 2.744-1.134.658-.7.896-1.526.896-2.814zM899.508 23.052v-1.358h-4.858v-2.996h4.144v-1.344h-4.144v-2.912h4.858v-1.358h-6.37v9.968h6.37zM930.532 16.108c0-1.736-1.246-3.024-3.192-3.024h-3.78v9.968h1.512v-3.92h2.268c1.946 0 3.192-1.288 3.192-3.024zm-1.512 0c0 1.05-.714 1.652-1.764 1.652h-2.184v-3.318h2.184c1.05 0 1.764.616 1.764 1.666zM939.003 23.052l-3.654-9.968h-1.218l-3.654 9.968h1.61l.686-2.002h3.934l.686 2.002h1.61zm-2.716-3.29h-3.066l1.554-4.424 1.512 4.424zM946.647 20.21c0-.854-.266-1.568-.812-2.044-.42-.378-.938-.602-1.862-.742l-1.134-.168c-.462-.07-.868-.238-1.12-.462-.266-.238-.378-.56-.378-.924 0-.882.644-1.554 1.82-1.554.84 0 1.554.182 2.17.77l.966-.952c-.854-.798-1.778-1.134-3.094-1.134-2.072 0-3.332 1.19-3.332 2.926 0 .812.238 1.442.728 1.904.434.406 1.078.686 1.89.798l1.176.168c.588.084.84.182 1.092.42.266.238.392.602.392 1.036 0 .966-.756 1.526-2.058 1.526-1.022 0-1.82-.224-2.548-.952l-1.008.994c.952.966 2.03 1.316 3.528 1.316 2.086 0 3.584-1.092 3.584-2.926zM954.793 14.442v-1.358h-7v1.358h2.744v8.61h1.512v-8.61h2.744zM963.54 23.052v-9.968h-1.428l-1.946 1.68v1.582l1.946-1.708v8.414h1.428zM973.007 21.554v-1.33h-1.064V17.9h-1.386v2.324h-2.478l3.5-7.14h-1.54l-3.514 7.14v1.33h4.032v1.498h1.386v-1.498h1.064zM985.249 17.998c0-1.442.07-2.898-1.008-3.976-.63-.63-1.54-.938-2.576-.938h-3.5v9.968h3.5c1.036 0 1.946-.308 2.576-.938 1.078-1.078 1.008-2.674 1.008-4.116zm-1.512 0c0 1.372-.014 2.45-.532 3.024-.42.462-.98.672-1.694.672h-1.834v-7.252h1.834c.714 0 1.274.21 1.694.672.518.574.532 1.512.532 2.884zM994.689 23.052l-3.654-9.968h-1.218l-3.654 9.968h1.61l.686-2.002h3.934l.686 2.002h1.61zm-2.716-3.29h-3.066l1.554-4.424 1.512 4.424zM1001.85 13.084h-1.65l-2.084 4.382-2.086-4.382h-1.652l2.982 5.866v4.102h1.512V18.95l2.978-5.866zM1009.46 20.21c0-.854-.27-1.568-.82-2.044-.42-.378-.93-.602-1.86-.742l-1.13-.168c-.46-.07-.87-.238-1.12-.462-.27-.238-.38-.56-.38-.924 0-.882.64-1.554 1.82-1.554.84 0 1.55.182 2.17.77l.97-.952c-.86-.798-1.78-1.134-3.1-1.134-2.07 0-3.33 1.19-3.33 2.926 0 .812.24 1.442.73 1.904.43.406 1.08.686 1.89.798l1.17.168c.59.084.84.182 1.1.42.26.238.39.602.39 1.036 0 .966-.76 1.526-2.06 1.526-1.02 0-1.82-.224-2.55-.952l-1.01.994c.96.966 2.03 1.316 3.53 1.316 2.09 0 3.59-1.092 3.59-2.926z" fill="#fff"/><rect x="911.008" y="1.5" width="111" height="33.136" rx="3.5" stroke="#fff" stroke-opacity=".5"/><path fill-rule="evenodd" clip-rule="evenodd" d="M12 35.996c0-.89 1.077-1.337 1.707-.707l4.584 4.583a1 1 0 01-.707 1.707H13a1 1 0 01-1-1v-4.583zm9.997 5.494v.09h5.584c.775 0 1.213-.816.899-1.443a1.021 1.021 0 00-.192-.265l-14.58-14.58c-.63-.63-1.708-.184-1.708.707v5.17a1 1 0 00.293.706l9.704 9.705v-.09zM12 21.17a1 1 0 00.293.707l9.704 9.704.293.293 9.411 9.411.293.294v-.09a1 1 0 00.414.09h5.17c.89 0 1.336-1.078.706-1.708l-6.583-6.583-9.704-9.704-8.29-8.29c-.551-.551-1.445-.279-1.66.395-.03.096-.047.2-.047.312v5.17zm9.997 0a1 1 0 00.293.707l17.994 17.994c.63.63 1.707.184 1.707-.707v-5.169a1 1 0 00-.293-.707l-9.99-9.99-.007-.007-7.997-7.997a1 1 0 00-1.707.707v5.17zm11.704-5.876c-.63-.63-1.707-.184-1.707.707v5.17a1 1 0 00.293.706l7.997 7.997c.63.63 1.707.184 1.707-.707V24a1 1 0 00-.293-.707l-7.997-7.997zm11.411 11.411l9.413 9.413a7.723 7.723 0 004.464 2.197c.547.071.997.512.997 1.064v1.2a1 1 0 01-1 1h-14.58a1 1 0 01-1-1V27.413c0-.89 1.076-1.337 1.706-.707zm1.492 10.075a1.6 1.6 0 103.2-.001 1.6 1.6 0 00-3.2.001z" fill="#fff"/><path d="M19.238 95.026c0-1.498.112-2.87-1.008-3.99-.658-.658-1.596-.952-2.632-.952H12v9.968h3.598c1.036 0 1.974-.294 2.632-.952 1.12-1.12 1.008-2.576 1.008-4.074zm-1.946 0c0 1.512-.056 2.226-.42 2.674-.336.406-.784.616-1.456.616h-1.47V91.82h1.47c.672 0 1.12.21 1.456.616.364.448.42 1.078.42 2.59zM28.792 100.052l-3.64-9.968h-1.526L20 100.052h2.03l.602-1.764h3.542l.588 1.764h2.03zm-3.136-3.402h-2.478l1.26-3.626 1.218 3.626zM36.46 97.112c0-.882-.239-1.61-.77-2.114-.42-.392-.994-.644-1.904-.77l-1.177-.168c-.406-.056-.728-.21-.924-.392a.962.962 0 01-.293-.714c0-.686.503-1.26 1.54-1.26.657 0 1.413.084 2.043.686l1.233-1.218c-.855-.826-1.849-1.162-3.22-1.162-2.157 0-3.473 1.246-3.473 3.024 0 .84.238 1.484.715 1.96.447.434 1.078.7 1.931.826l1.204.168c.462.07.686.168.883.35.21.196.308.49.308.84 0 .798-.616 1.232-1.764 1.232-.925 0-1.779-.21-2.409-.84l-1.26 1.26c.98.994 2.128 1.316 3.64 1.316 2.087 0 3.697-1.092 3.697-3.024zM45.557 100.052v-9.968h-1.946v4.074h-3.374v-4.074h-1.946v9.968h1.946V95.88h3.374v4.172h1.946zM55.099 97.182c0-1.33-.77-1.96-1.372-2.24.504-.238 1.232-.952 1.232-2.058 0-1.708-1.134-2.8-3.08-2.8h-4.004v9.968h4.172c1.778 0 3.052-1.008 3.052-2.87zm-2.086-4.214c0 .686-.462 1.148-1.288 1.148h-1.904V91.82h1.904c.826 0 1.288.462 1.288 1.148zm.14 4.116c0 .672-.42 1.232-1.302 1.232h-2.03v-2.45h2.03c.882 0 1.302.546 1.302 1.218zM64.118 95.068c0-1.722.014-2.968-.994-3.976-.7-.7-1.554-1.092-2.688-1.092-1.134 0-2.002.392-2.702 1.092-1.008 1.008-.98 2.254-.98 3.976s-.028 2.968.98 3.976c.7.7 1.568 1.092 2.702 1.092s1.988-.392 2.688-1.092c1.008-1.008.994-2.254.994-3.976zm-1.946 0c0 1.918-.112 2.38-.49 2.8-.28.322-.714.532-1.246.532s-.98-.21-1.26-.532c-.378-.42-.476-.882-.476-2.8 0-1.918.098-2.38.476-2.8.28-.322.728-.532 1.26-.532s.966.21 1.246.532c.378.42.49.882.49 2.8zM73.663 100.052l-3.64-9.968h-1.526l-3.626 9.968h2.03l.602-1.764h3.542l.588 1.764h2.03zm-3.136-3.402h-2.478l1.26-3.626 1.218 3.626zM82.437 100.052l-2.226-4.298c.966-.35 1.82-1.218 1.82-2.618 0-1.666-1.204-3.052-3.234-3.052H74.89v9.968h1.946v-3.976h1.4l1.946 3.976h2.254zm-2.352-6.916c0 .77-.56 1.316-1.414 1.316h-1.834V91.82h1.834c.854 0 1.414.546 1.414 1.316zM91.289 95.026c0-1.498.112-2.87-1.008-3.99-.658-.658-1.596-.952-2.632-.952H84.05v9.968h3.598c1.036 0 1.974-.294 2.632-.952 1.12-1.12 1.008-2.576 1.008-4.074zm-1.946 0c0 1.512-.056 2.226-.42 2.674-.336.406-.784.616-1.456.616h-1.47V91.82h1.47c.672 0 1.12.21 1.456.616.364.448.42 1.078.42 2.59zM99.72 97.112c0-.882-.239-1.61-.77-2.114-.42-.392-.995-.644-1.905-.77l-1.176-.168c-.406-.056-.728-.21-.924-.392a.962.962 0 01-.294-.714c0-.686.504-1.26 1.54-1.26.658 0 1.414.084 2.044.686l1.232-1.218C98.613 90.336 97.62 90 96.247 90c-2.156 0-3.472 1.246-3.472 3.024 0 .84.238 1.484.714 1.96.448.434 1.078.7 1.932.826l1.204.168c.462.07.686.168.882.35.21.196.308.49.308.84 0 .798-.616 1.232-1.764 1.232-.924 0-1.778-.21-2.408-.84l-1.26 1.26c.98.994 2.128 1.316 3.64 1.316 2.086 0 3.696-1.092 3.696-3.024z" fill="#fff"/><rect x="2.5" y="78.5" width="177" height="33.136" rx="3.5" stroke="#fff" stroke-opacity=".5"/><path d="M19.154 134.82v-1.736H12v1.736h2.604v8.232h1.946v-8.232h2.604zM28.286 143.052l-2.226-4.298c.966-.35 1.82-1.218 1.82-2.618 0-1.666-1.204-3.052-3.234-3.052H20.74v9.968h1.946v-3.976h1.4l1.946 3.976h2.254zm-2.352-6.916c0 .77-.56 1.316-1.414 1.316h-1.834v-2.632h1.834c.854 0 1.414.546 1.414 1.316zM36.466 143.052v-1.736h-4.62v-2.422h3.934v-1.736h-3.934v-2.338h4.62v-1.736H29.9v9.968h6.566zM46.007 143.052v-9.968H44.06v6.104l-3.948-6.104h-1.736v9.968h1.946v-6.118l3.948 6.118h1.736zM55.568 138.026c0-1.498.112-2.87-1.008-3.99-.658-.658-1.596-.952-2.632-.952H48.33v9.968h3.598c1.036 0 1.974-.294 2.632-.952 1.12-1.12 1.008-2.576 1.008-4.074zm-1.946 0c0 1.512-.056 2.226-.42 2.674-.336.406-.784.616-1.456.616h-1.47v-6.496h1.47c.672 0 1.12.21 1.456.616.364.448.42 1.078.42 2.59zM63.998 140.112c0-.882-.238-1.61-.77-2.114-.42-.392-.994-.644-1.904-.77l-1.176-.168c-.406-.056-.728-.21-.924-.392a.962.962 0 01-.294-.714c0-.686.504-1.26 1.54-1.26.658 0 1.414.084 2.044.686l1.232-1.218c-.854-.826-1.848-1.162-3.22-1.162-2.156 0-3.472 1.246-3.472 3.024 0 .84.238 1.484.714 1.96.448.434 1.078.7 1.932.826l1.204.168c.462.07.686.168.882.35.21.196.308.49.308.84 0 .798-.616 1.232-1.764 1.232-.924 0-1.778-.21-2.408-.84l-1.26 1.26c.98.994 2.128 1.316 3.64 1.316 2.086 0 3.696-1.092 3.696-3.024z" fill="#fff"/><rect x="2.5" y="121.5" width="177" height="33.136" rx="3.5" stroke="#fff" stroke-opacity=".5"/><path d="M18.566 177.82v-1.736H12v9.968h1.946v-4.046h3.934v-1.736h-3.934v-2.45h4.62zM27.44 182.636v-6.552h-1.932v6.482c0 1.148-.686 1.834-1.736 1.834-1.05 0-1.722-.686-1.722-1.834v-6.482h-1.946v6.552c0 2.114 1.624 3.5 3.668 3.5s3.668-1.386 3.668-3.5zM37.24 186.052v-9.968h-1.947v6.104l-3.948-6.104H29.61v9.968h1.946v-6.118l3.948 6.118h1.736zM47.193 186.052v-9.968h-1.947v6.104l-3.948-6.104h-1.736v9.968h1.947v-6.118l3.947 6.118h1.736zM56.082 186.052v-1.736h-4.62v-2.422h3.934v-1.736h-3.934v-2.338h4.62v-1.736h-6.566v9.968h6.566zM64.46 186.052v-1.736h-4.522v-8.232h-1.946v9.968h6.468zM72.485 183.112c0-.882-.238-1.61-.77-2.114-.42-.392-.994-.644-1.904-.77l-1.176-.168c-.406-.056-.728-.21-.924-.392a.962.962 0 01-.294-.714c0-.686.504-1.26 1.54-1.26.658 0 1.414.084 2.044.686l1.232-1.218c-.854-.826-1.848-1.162-3.22-1.162-2.156 0-3.472 1.246-3.472 3.024 0 .84.238 1.484.714 1.96.448.434 1.078.7 1.932.826l1.204.168c.462.07.686.168.882.35.21.196.308.49.308.84 0 .798-.616 1.232-1.764 1.232-.924 0-1.778-.21-2.408-.84l-1.26 1.26c.98.994 2.128 1.316 3.64 1.316 2.086 0 3.696-1.092 3.696-3.024z" fill="#fff"/><rect x="2.5" y="164.5" width="177" height="33.136" rx="3.5" stroke="#fff" stroke-opacity=".5"/><path d="M19.546 229.052l-2.226-4.298c.966-.35 1.82-1.218 1.82-2.618 0-1.666-1.204-3.052-3.234-3.052H12v9.968h1.946v-3.976h1.4l1.946 3.976h2.254zm-2.352-6.916c0 .77-.56 1.316-1.414 1.316h-1.834v-2.632h1.834c.854 0 1.414.546 1.414 1.316zM27.726 229.052v-1.736h-4.62v-2.422h3.934v-1.736h-3.934v-2.338h4.62v-1.736H21.16v9.968h6.566zM36.049 220.82v-1.736h-7.154v1.736h2.604v8.232h1.946v-8.232h2.604zM44.2 229.052v-1.736h-4.62v-2.422h3.935v-1.736H39.58v-2.338h4.62v-1.736h-6.566v9.968H44.2zM53.741 229.052v-9.968h-1.946v6.104l-3.948-6.104h-1.736v9.968h1.946v-6.118l3.948 6.118h1.736zM62.477 220.82v-1.736h-7.154v1.736h2.603v8.232h1.947v-8.232h2.604zM66.008 229.052v-9.968h-1.945v9.968h1.945zM75.356 224.068c0-1.722.014-2.968-.994-3.976-.7-.7-1.554-1.092-2.688-1.092-1.134 0-2.002.392-2.702 1.092-1.008 1.008-.98 2.254-.98 3.976s-.028 2.968.98 3.976c.7.7 1.568 1.092 2.702 1.092s1.988-.392 2.688-1.092c1.008-1.008.994-2.254.994-3.976zm-1.946 0c0 1.918-.112 2.38-.49 2.8-.28.322-.714.532-1.246.532s-.98-.21-1.26-.532c-.378-.42-.476-.882-.476-2.8 0-1.918.098-2.38.476-2.8.28-.322.728-.532 1.26-.532s.966.21 1.246.532c.378.42.49.882.49 2.8zM84.968 229.052v-9.968h-1.946v6.104l-3.948-6.104h-1.736v9.968h1.946v-6.118l3.948 6.118h1.736z" fill="#fff"/><rect x="2.5" y="207.5" width="177" height="33.136" rx="3.5" stroke="#fff" stroke-opacity=".5"/><path d="M19.336 268.636v-6.552h-1.932v6.482c0 1.148-.686 1.834-1.736 1.834-1.05 0-1.722-.686-1.722-1.834v-6.482H12v6.552c0 2.114 1.624 3.5 3.668 3.5s3.668-1.386 3.668-3.5zM27.946 269.112c0-.882-.238-1.61-.77-2.114-.42-.392-.994-.644-1.904-.77l-1.176-.168c-.406-.056-.728-.21-.924-.392a.962.962 0 01-.294-.714c0-.686.504-1.26 1.54-1.26.658 0 1.414.084 2.044.686l1.232-1.218c-.854-.826-1.848-1.162-3.22-1.162-2.156 0-3.472 1.246-3.472 3.024 0 .84.238 1.484.714 1.96.448.434 1.078.7 1.932.826l1.204.168c.462.07.686.168.882.35.21.196.308.49.308.84 0 .798-.616 1.232-1.764 1.232-.924 0-1.778-.21-2.408-.84l-1.26 1.26c.98.994 2.128 1.316 3.64 1.316 2.086 0 3.696-1.092 3.696-3.024zM36.343 272.052v-1.736h-4.62v-2.422h3.934v-1.736h-3.934v-2.338h4.62v-1.736h-6.566v9.968h6.566zM45.8 272.052l-2.226-4.298c.966-.35 1.82-1.218 1.82-2.618 0-1.666-1.204-3.052-3.234-3.052h-3.906v9.968H40.2v-3.976h1.4l1.946 3.976H45.8zm-2.352-6.916c0 .77-.56 1.316-1.414 1.316H40.2v-2.632h1.834c.854 0 1.414.546 1.414 1.316zM57.822 265.192c0-1.694-1.232-3.108-3.29-3.108h-3.864v9.968h1.946V268.3h1.918c2.058 0 3.29-1.414 3.29-3.108zm-1.946 0c0 .812-.56 1.358-1.442 1.358h-1.82v-2.73h1.82c.882 0 1.442.56 1.442 1.372zM66.461 272.052l-3.64-9.968h-1.526l-3.626 9.968h2.03l.602-1.764h3.542l.588 1.764h2.03zm-3.136-3.402h-2.478l1.26-3.626 1.218 3.626zM73.267 263.82v-1.736h-7.154v1.736h2.604v8.232h1.946v-8.232h2.604zM82.12 272.052v-9.968h-1.947v4.074H76.8v-4.074h-1.946v9.968H76.8v-4.172h3.374v4.172h1.946zM90.877 269.112c0-.882-.238-1.61-.77-2.114-.42-.392-.994-.644-1.904-.77l-1.176-.168c-.406-.056-.728-.21-.924-.392a.962.962 0 01-.294-.714c0-.686.504-1.26 1.54-1.26.658 0 1.414.084 2.044.686l1.232-1.218c-.854-.826-1.848-1.162-3.22-1.162-2.156 0-3.472 1.246-3.472 3.024 0 .84.238 1.484.714 1.96.448.434 1.078.7 1.932.826l1.204.168c.462.07.686.168.882.35.21.196.308.49.308.84 0 .798-.616 1.232-1.764 1.232-.924 0-1.778-.21-2.408-.84l-1.26 1.26c.98.994 2.128 1.316 3.64 1.316 2.086 0 3.696-1.092 3.696-3.024z" fill="#fff"/><rect x="2.5" y="250.5" width="177" height="33.136" rx="3.5" stroke="#fff" stroke-opacity=".5"/><path d="M19.336 312.112c0-.882-.238-1.61-.77-2.114-.42-.392-.994-.644-1.904-.77l-1.176-.168c-.406-.056-.728-.21-.924-.392a.962.962 0 01-.294-.714c0-.686.504-1.26 1.54-1.26.658 0 1.414.084 2.044.686l1.232-1.218c-.854-.826-1.848-1.162-3.22-1.162-2.156 0-3.472 1.246-3.472 3.024 0 .84.238 1.484.714 1.96.448.434 1.078.7 1.932.826l1.204.168c.462.07.686.168.882.35.21.196.308.49.308.84 0 .798-.616 1.232-1.764 1.232-.924 0-1.778-.21-2.408-.84L12 313.82c.98.994 2.128 1.316 3.64 1.316 2.086 0 3.696-1.092 3.696-3.024zM27.733 315.052v-1.736h-4.62v-2.422h3.934v-1.736h-3.934v-2.338h4.62v-1.736h-6.566v9.968h6.566zM36.084 312.112c0-.882-.238-1.61-.77-2.114-.42-.392-.994-.644-1.904-.77l-1.176-.168c-.406-.056-.728-.21-.924-.392a.962.962 0 01-.294-.714c0-.686.504-1.26 1.54-1.26.658 0 1.414.084 2.044.686l1.232-1.218c-.854-.826-1.848-1.162-3.22-1.162-2.156 0-3.472 1.246-3.472 3.024 0 .84.238 1.484.714 1.96.448.434 1.078.7 1.932.826l1.204.168c.462.07.686.168.882.35.21.196.308.49.308.84 0 .798-.616 1.232-1.764 1.232-.924 0-1.778-.21-2.408-.84l-1.26 1.26c.98.994 2.128 1.316 3.64 1.316 2.086 0 3.696-1.092 3.696-3.024zM44.273 312.112c0-.882-.238-1.61-.77-2.114-.42-.392-.993-.644-1.904-.77l-1.175-.168c-.407-.056-.728-.21-.925-.392a.962.962 0 01-.294-.714c0-.686.505-1.26 1.54-1.26.659 0 1.415.084 2.044.686l1.233-1.218c-.855-.826-1.849-1.162-3.22-1.162-2.157 0-3.472 1.246-3.472 3.024 0 .84.238 1.484.714 1.96.448.434 1.078.7 1.931.826l1.204.168c.462.07.686.168.883.35.21.196.308.49.308.84 0 .798-.616 1.232-1.764 1.232-.925 0-1.779-.21-2.409-.84l-1.26 1.26c.98.994 2.129 1.316 3.64 1.316 2.087 0 3.697-1.092 3.697-3.024zM48.051 315.052v-9.968h-1.946v9.968h1.946zM57.399 310.068c0-1.722.014-2.968-.994-3.976-.7-.7-1.554-1.092-2.688-1.092-1.134 0-2.002.392-2.702 1.092-1.008 1.008-.98 2.254-.98 3.976s-.028 2.968.98 3.976c.7.7 1.568 1.092 2.702 1.092s1.988-.392 2.688-1.092c1.008-1.008.994-2.254.994-3.976zm-1.946 0c0 1.918-.112 2.38-.49 2.8-.28.322-.714.532-1.246.532s-.98-.21-1.26-.532c-.378-.42-.476-.882-.476-2.8 0-1.918.098-2.38.476-2.8.28-.322.728-.532 1.26-.532s.966.21 1.246.532c.378.42.49.882.49 2.8zM67.01 315.052v-9.968h-1.946v6.104l-3.948-6.104H59.38v9.968h1.946v-6.118l3.948 6.118h1.736zM75.773 312.112c0-.882-.237-1.61-.77-2.114-.42-.392-.993-.644-1.903-.77l-1.176-.168c-.407-.056-.729-.21-.925-.392a.962.962 0 01-.293-.714c0-.686.504-1.26 1.54-1.26.657 0 1.413.084 2.044.686l1.231-1.218c-.853-.826-1.847-1.162-3.22-1.162-2.156 0-3.472 1.246-3.472 3.024 0 .84.239 1.484.715 1.96.448.434 1.078.7 1.931.826l1.205.168c.461.07.685.168.881.35.21.196.308.49.308.84 0 .798-.615 1.232-1.763 1.232-.924 0-1.778-.21-2.408-.84l-1.26 1.26c.98.994 2.127 1.316 3.64 1.316 2.085 0 3.695-1.092 3.695-3.024z" fill="#fff"/><rect x="2.5" y="293.5" width="177" height="33.136" rx="3.5" stroke="#fff" stroke-opacity=".5"/><path d="M19.336 355.112c0-.882-.238-1.61-.77-2.114-.42-.392-.994-.644-1.904-.77l-1.176-.168c-.406-.056-.728-.21-.924-.392a.962.962 0 01-.294-.714c0-.686.504-1.26 1.54-1.26.658 0 1.414.084 2.044.686l1.232-1.218c-.854-.826-1.848-1.162-3.22-1.162-2.156 0-3.472 1.246-3.472 3.024 0 .84.238 1.484.714 1.96.448.434 1.078.7 1.932.826l1.204.168c.462.07.686.168.882.35.21.196.308.49.308.84 0 .798-.616 1.232-1.764 1.232-.924 0-1.778-.21-2.408-.84L12 356.82c.98.994 2.128 1.316 3.64 1.316 2.086 0 3.696-1.092 3.696-3.024zM27.58 349.82v-1.736h-7.154v1.736h2.604v8.232h1.945v-8.232h2.604zM31.111 358.052v-9.968h-1.945v9.968h1.945zM40.431 354.986h-1.974c-.196.798-.7 1.414-1.68 1.414-.532 0-.966-.196-1.246-.518-.378-.42-.49-.896-.49-2.814 0-1.918.112-2.394.49-2.814.28-.322.714-.518 1.246-.518.98 0 1.484.616 1.68 1.414h1.974c-.35-2.086-1.806-3.15-3.668-3.15-1.092 0-1.988.392-2.688 1.092-1.008 1.008-.98 2.254-.98 3.976s-.028 2.968.98 3.976c.7.7 1.596 1.092 2.688 1.092 1.848 0 3.318-1.064 3.668-3.15zM50.177 358.052l-3.542-6.006 3.304-3.962h-2.366l-3.514 4.34v-4.34h-1.946v9.968h1.946v-2.996l1.288-1.54 2.562 4.536h2.268zM53.37 358.052v-9.968h-1.947v9.968h1.946zM63.319 358.052v-9.968h-1.946v6.104l-3.948-6.104h-1.736v9.968h1.946v-6.118l3.948 6.118h1.736zM72.208 358.052v-1.736h-4.62v-2.422h3.934v-1.736h-3.934v-2.338h4.62v-1.736h-6.566v9.968h6.566zM80.559 355.112c0-.882-.238-1.61-.77-2.114-.42-.392-.994-.644-1.904-.77l-1.176-.168c-.406-.056-.728-.21-.924-.392a.962.962 0 01-.294-.714c0-.686.504-1.26 1.54-1.26.658 0 1.414.084 2.044.686l1.232-1.218c-.854-.826-1.848-1.162-3.22-1.162-2.156 0-3.472 1.246-3.472 3.024 0 .84.238 1.484.714 1.96.448.434 1.078.7 1.932.826l1.204.168c.462.07.686.168.882.35.21.196.308.49.308.84 0 .798-.616 1.232-1.764 1.232-.924 0-1.778-.21-2.408-.84l-1.26 1.26c.98.994 2.128 1.316 3.64 1.316 2.086 0 3.696-1.092 3.696-3.024zM88.748 355.112c0-.882-.238-1.61-.77-2.114-.42-.392-.994-.644-1.904-.77l-1.176-.168c-.406-.056-.728-.21-.924-.392a.962.962 0 01-.294-.714c0-.686.504-1.26 1.54-1.26.658 0 1.414.084 2.044.686l1.232-1.218c-.854-.826-1.848-1.162-3.22-1.162-2.156 0-3.472 1.246-3.472 3.024 0 .84.238 1.484.714 1.96.448.434 1.078.7 1.932.826l1.204.168c.462.07.686.168.882.35.21.196.308.49.308.84 0 .798-.616 1.232-1.764 1.232-.924 0-1.778-.21-2.408-.84l-1.26 1.26c.98.994 2.128 1.316 3.64 1.316 2.086 0 3.696-1.092 3.696-3.024z" fill="#fff"/><rect x="2.5" y="336.5" width="177" height="33.136" rx="3.5" stroke="#fff" stroke-opacity=".5"/><path d="M18.468 401.052v-1.736h-4.522v-8.232H12v9.968h6.468zM21.999 401.052v-9.968h-1.946v9.968h1.946zM30.884 392.82v-1.736h-6.566v9.968h1.946v-4.046h3.934v-1.736h-3.934v-2.45h4.62zM39.142 401.052v-1.736h-4.62v-2.422h3.934v-1.736h-3.934v-2.338h4.62v-1.736h-6.566v9.968h6.566zM48.053 397.986h-1.974c-.196.798-.7 1.414-1.68 1.414-.532 0-.966-.196-1.246-.518-.378-.42-.49-.896-.49-2.814 0-1.918.112-2.394.49-2.814.28-.322.714-.518 1.246-.518.98 0 1.484.616 1.68 1.414h1.974c-.35-2.086-1.806-3.15-3.668-3.15-1.092 0-1.988.392-2.688 1.092-1.008 1.008-.98 2.254-.98 3.976s-.028 2.968.98 3.976c.7.7 1.596 1.092 2.688 1.092 1.848 0 3.318-1.064 3.668-3.15zM56.402 391.084h-2.114l-1.834 4.018-1.862-4.018h-2.114l2.996 5.88v4.088h1.932v-4.088l2.996-5.88zM64.473 397.986h-1.974c-.196.798-.7 1.414-1.68 1.414-.532 0-.966-.196-1.246-.518-.378-.42-.49-.896-.49-2.814 0-1.918.112-2.394.49-2.814.28-.322.714-.518 1.246-.518.98 0 1.484.616 1.68 1.414h1.974c-.35-2.086-1.806-3.15-3.668-3.15-1.092 0-1.988.392-2.688 1.092-1.008 1.008-.98 2.254-.98 3.976s-.028 2.968.98 3.976c.7.7 1.596 1.092 2.688 1.092 1.848 0 3.318-1.064 3.668-3.15zM72.622 401.052v-1.736H68.1v-8.232h-1.946v9.968h6.468zM80.773 401.052v-1.736h-4.62v-2.422h3.934v-1.736h-3.934v-2.338h4.62v-1.736h-6.566v9.968h6.566z" fill="#fff"/><rect x="2.5" y="379.5" width="177" height="33.136" rx="3.5" stroke="#fff" stroke-opacity=".5"/><defs><clipPath id="clip0"><path fill="#fff" transform="rotate(45 120.788 958.302)" d="M0 0h18v18H0z"/></clipPath></defs></svg>