<svg fill="none" viewBox="0 0 255 253"><path fill="#F7A501" fill-rule="evenodd" d="M8 .011h238.86a8.002 8.002 0 017.962 8.002v236.072a7.993 7.993 0 01-7.993 7.993H8.001A8.003 8.003 0 010 244.085V8.012a8.001 8.001 0 018-8z" clip-rule="evenodd"/><path fill="#35416B" d="M252.512 248.162a7.995 7.995 0 002.341-5.652V124.473H0V242.51a8.001 8.001 0 008 7.993h238.86c2.12 0 4.153-.842 5.652-2.341z"/><g fill-rule="evenodd" clip-path="url(#clip0)" clip-rule="evenodd"><path fill="#FF9878" d="M78.065 65.49l57.958 16.984v126.463l-57.958-16.983V65.49z"/><path fill="#F96132" d="M135.965 82.5l36.383-30.024V178.88l-36.383 30.025V82.499z"/><path fill="#FFC3B0" d="M78.113 65.522l57.884 17.013L172.38 52.52l-55.373-13.455-38.894 26.457z"/><path stroke="#fff" stroke-linecap="round" stroke-linejoin="round" stroke-width="1.079" d="M143.632 116.425l23.562-18.215c.666-.514 1.203-.251 1.203.59v15.321a3.498 3.498 0 01-1.203 2.452l-23.562 18.215c-.664.514-1.203.251-1.203-.589v-15.32a3.502 3.502 0 011.203-2.454v0z"/><path fill="#3541D1" d="M144.645 117.928l1.694-1.346c.209-.161.368-.082.368.177v13.083a1.105 1.105 0 01-.368.761l-1.694 1.349c-.209.16-.365.081-.365-.178v-13.096c.018-.288.149-.558.365-.75z"/><path fill="#fff" d="M148.455 121.199l1.694-1.346c.208-.161.367-.082.369.177l.042 6.999a1.08 1.08 0 01-.365.761l-1.694 1.346c-.209.163-.368.083-.37-.176l-.042-7a1.094 1.094 0 01.366-.761z"/><path fill="#F7A501" d="M152.302 115.678l1.698-1.35c.209-.161.365.176.365.176l.161 9.312a1.102 1.102 0 01-.363.755l-1.7 1.35c-.209.161-.364.081-.364-.176l-.163-9.312c0-.257.366-.755.366-.755z"/><path fill="#3541D1" d="M156.157 115.91l1.694-1.346c.209-.161.368.178.368.178l.044 5.819a1.09 1.09 0 01-.366.759l-1.694 1.348c-.208.161-.367.082-.367-.177l-.044-5.82c0-.259.365-.761.365-.761z"/><path fill="#F7A501" d="M160.101 109.37l1.694-1.346c.209-.161.365.177.365.177l.044 9.478a1.1 1.1 0 01-.368.761l-1.693 1.346c-.209.161-.366.081-.366-.178l-.044-9.477c0-.259.368-.761.368-.761z"/><path fill="#fff" d="M164.146 102.779l1.694-1.346c.209-.161.368-.081.368.178v13.1a1.1 1.1 0 01-.368.761l-1.694 1.346c-.208.161-.365.081-.365-.178v-13.1a1.1 1.1 0 01.365-.761zM87.413 75.687l39.093 10.763a2.79 2.79 0 011.942 2.548v15.316c0 1.114-.871 1.776-1.942 1.479L87.413 95.03a2.789 2.789 0 01-1.94-2.548V77.167c0-1.114.871-1.777 1.94-1.48zm-.188 24.415l39.093 10.762a2.797 2.797 0 011.942 2.551v15.315c0 1.112-.869 1.775-1.942 1.48l-39.093-10.763a2.79 2.79 0 01-1.94-2.55v-15.316c0-1.112.869-1.774 1.94-1.479zm-.376 23.47l39.095 10.771a2.792 2.792 0 011.94 2.548v15.318c0 1.114-.869 1.774-1.94 1.48l-39.095-10.765a2.789 2.789 0 01-1.94-2.549V125.06c0-1.114.869-1.777 1.94-1.488zm.188 23.672l39.093 10.763a2.79 2.79 0 011.942 2.548v15.316c0 1.114-.869 1.777-1.942 1.48l-39.093-10.763a2.79 2.79 0 01-1.946-2.548v-15.316c0-1.114.875-1.775 1.946-1.48zm-.188 22.732l39.095 10.757a2.786 2.786 0 011.94 2.548v15.315c0 1.115-.869 1.777-1.94 1.482l-39.095-10.765a2.792 2.792 0 01-1.94-2.548V171.45c0-1.114.869-1.777 1.94-1.474z"/><path fill="#F96132" d="M91.885 88.973a2.22 2.22 0 01-1.872-2.896 2.221 2.221 0 014.311.985 2.193 2.193 0 01-2.439 1.91z"/><path fill="#F7A501" d="M90.6 112.953a2.222 2.222 0 111.346-4.136 2.22 2.22 0 011.094 2.227 2.186 2.186 0 01-1.587 1.845 2.188 2.188 0 01-.852.064z"/><path fill="#3541D1" d="M90.38 136.397a2.222 2.222 0 111.344-4.136 2.22 2.22 0 011.095 2.226 2.194 2.194 0 01-1.588 1.847 2.17 2.17 0 01-.852.063z"/><path fill="#F96132" d="M89.782 159.943a2.223 2.223 0 01.078-4.426 2.216 2.216 0 012.15 1.235c.196.396.268.842.21 1.28a2.192 2.192 0 01-2.438 1.911z"/><path fill="#F7A501" d="M89.55 182.781a2.217 2.217 0 01-1.9-1.595 2.225 2.225 0 011.972-2.831 2.218 2.218 0 012.153 1.235c.195.396.268.842.208 1.281a2.192 2.192 0 01-2.433 1.91z"/><path fill="#3541D1" d="M98.754 90.754a2.22 2.22 0 01-1.872-2.896 2.222 2.222 0 013.217-1.24 2.227 2.227 0 011.095 2.225 2.194 2.194 0 01-2.44 1.91z"/><path fill="#F96132" d="M97.472 114.729a2.215 2.215 0 01-1.889-1.604 2.224 2.224 0 011.982-2.82 2.22 2.22 0 012.355 2.516 2.196 2.196 0 01-1.594 1.847 2.18 2.18 0 01-.854.061z"/><path fill="#F7A501" d="M97.249 138.174a2.222 2.222 0 111.344-4.136 2.223 2.223 0 011.095 2.226 2.191 2.191 0 01-2.44 1.91zm-.598 23.554a2.219 2.219 0 01-1.9-1.596 2.225 2.225 0 01.763-2.362 2.218 2.218 0 013.57 2.047 2.19 2.19 0 01-2.433 1.911z"/><path fill="#F96132" d="M96.421 184.558a2.215 2.215 0 01-1.897-1.598 2.223 2.223 0 013.24-2.539 2.22 2.22 0 011.095 2.227 2.192 2.192 0 01-2.438 1.91zm6.644-94.505a1.9 1.9 0 012.333-1.319l19.51 5.435a1.892 1.892 0 01.996 2.986 1.903 1.903 0 01-1.263.715c-.247.03-.498.011-.738-.055l-19.507-5.435a1.896 1.896 0 01-1.331-2.327z"/><path fill="#3541D1" d="M101.781 114.035a1.895 1.895 0 012.333-1.319l19.509 5.421a1.887 1.887 0 011.143.894 1.896 1.896 0 01-.718 2.584 1.877 1.877 0 01-1.44.175l-19.507-5.424a1.897 1.897 0 01-1.32-2.331z"/><path fill="#F7A501" d="M101.559 137.478a1.896 1.896 0 012.329-1.319l19.51 5.435a1.904 1.904 0 011.142.894 1.904 1.904 0 01.176 1.441 1.898 1.898 0 01-2.333 1.319l-19.51-5.435a1.896 1.896 0 01-1.314-2.335z"/><path fill="#F96132" d="M100.964 161.032a1.892 1.892 0 012.333-1.319l19.51 5.434a1.9 1.9 0 011.315 2.321 1.896 1.896 0 01-2.332 1.319l-19.51-5.435a1.896 1.896 0 01-1.316-2.32z"/><path fill="#3541D1" d="M100.732 183.862a1.897 1.897 0 012.331-1.319l19.51 5.435a1.895 1.895 0 01-1.015 3.654l-19.508-5.435a1.904 1.904 0 01-1.143-.894 1.904 1.904 0 01-.175-1.441z"/></g><defs><clipPath id="clip0"><path fill="#fff" d="M0 0h94.444v170H0z" transform="translate(78 39)"/></clipPath></defs></svg>