<svg fill="none" viewBox="0 0 257 253"><path fill="#35416B" fill-rule="evenodd" d="M8.446 0h238.86a7.998 7.998 0 017.993 8.001v236.073a7.995 7.995 0 01-7.993 7.993H8.446a8 8 0 01-8-7.993V8.001a8.001 8.001 0 018-8.001z" clip-rule="evenodd"/><path fill="#F96132" fill-rule="evenodd" d="M.484 187.39h255.368v55.954a8.688 8.688 0 01-5.359 8.03 8.682 8.682 0 01-3.325.662l-238.068.73a8.44 8.44 0 01-6.018-2.454 8.462 8.462 0 01-2.498-6l-.1-56.922z" clip-rule="evenodd"/><path fill="#F7A501" fill-rule="evenodd" d="M82.681 49.298h93.241v92.745h-93.24V49.298zm-17.907 98.325h130.9v40.351h-130.9v-40.351z" clip-rule="evenodd"/><path fill="#F96132" fill-rule="evenodd" d="M94.371 61.718h69.109v65.722H94.371V61.718z" clip-rule="evenodd"/><path fill="#fff" fill-rule="evenodd" d="M.008 171.396l26.661-.054 22.657 46.154L0 218.103l.008-46.707z" clip-rule="evenodd"/><path fill="#BEBEBE" fill-rule="evenodd" d="M49.357 217.465l-.054 13.543L.115 233.06v-15.026l49.242-.569z" clip-rule="evenodd"/><path fill="#fff" fill-rule="evenodd" d="M144.581 198.289h31.849l19.744 39.49h-31.849l-19.744-39.49z" clip-rule="evenodd"/><path fill="#F7A501" fill-rule="evenodd" d="M114.062 222.622l28.09-15.003 36.022 25.533-28.09 15.003-36.022-25.533z" clip-rule="evenodd"/><path fill="#35416B" fill-rule="evenodd" d="M204.282 227.356s2.46 1.538 1.253 3.267c-1.36 1.991-3.635.177-3.635.177l-30.973-21.459-5.956-6.841 8.346 3.397 30.965 21.459zm-108.013 12.79s-1.89 2.183-.207 3.497c1.906 1.483 3.52-.938 3.52-.938l22.995-29.852 3.604-8.323-6.917 5.764-22.995 29.852z" clip-rule="evenodd"/><path fill="#F96132" fill-rule="evenodd" d="M197.542 34.848H236.9v49.85h-39.358v-49.85zM23.656 33.103h39.358v37.761H23.656v-37.76zm182.24 64.823h39.35v49.851h-39.35V97.926z" clip-rule="evenodd"/><path fill="#fff" fill-rule="evenodd" d="M213.428 34.84a2.015 2.015 0 112.006 2.083 2.052 2.052 0 01-1.434-.626 2.034 2.034 0 01-.572-1.457zM39.542 33.095a2.014 2.014 0 112.006 2.083 2.052 2.052 0 01-2.006-2.083zM221.79 97.918a2.019 2.019 0 012.447-1.897 2.014 2.014 0 01-.433 3.98 2.039 2.039 0 01-1.872-1.296 2.038 2.038 0 01-.142-.787z" clip-rule="evenodd"/><path stroke="#fff" stroke-linecap="round" stroke-linejoin="round" stroke-width="1.111" d="M215.957 35.662l1.537 2.13"/><path fill="#F96132" fill-rule="evenodd" d="M42.07 33.918l1.538 2.129z" clip-rule="evenodd"/><path stroke="#fff" stroke-linecap="round" stroke-linejoin="round" stroke-width="1.111" d="M42.07 33.918l1.538 2.129m180.734 62.686l1.537 2.137"/><path fill="#F7A501" fill-rule="evenodd" d="M13.158 209.679l.607 34.686s5.38 6.764 17.208 6.426c12.627-.361 16.393-7.417 16.393-7.417l.246-32.504s-.592-2.305-1.683-3.205c-3.79-3.036-6.702-4.611-15.54-4.719-6.771-.054-11.713 1.906-14.388 3.72a10.374 10.374 0 00-2.843 3.013z" clip-rule="evenodd"/><path stroke="#F7A501" stroke-linecap="round" stroke-linejoin="round" stroke-width="6.997" d="M47.497 216.596s11.428.07 11.428 1.445c0 14.342-12.35 19.984-12.35 19.984"/><path fill="#35416B" fill-rule="evenodd" d="M15.794 211.255c0-3.497 6.517-6.326 14.556-6.326 8.04 0 14.557 2.829 14.557 6.326 0 3.497-6.518 6.341-14.557 6.341-8.039 0-14.556-2.837-14.556-6.341z" clip-rule="evenodd"/><path fill="#fff" fill-rule="evenodd" d="M204.813 159.083l21.734 29.122h28.714l.822-29.122h-51.27z" clip-rule="evenodd"/><path fill="#BEBEBE" fill-rule="evenodd" d="M226.363 186.475v42.888l30.412-.308-.607-42.58h-29.805z" clip-rule="evenodd"/><path fill="#E7E7E7" fill-rule="evenodd" d="M204.989 159.014l-1.222 38.906 22.88 31.781-.2-43.495-21.458-27.192z" clip-rule="evenodd"/></svg>