<svg fill="none" viewBox="0 0 257 253"><path fill="#35416B" fill-rule="evenodd" d="M8.68.436h238.86a7.998 7.998 0 017.993 8V244.51a7.995 7.995 0 01-7.993 7.994H8.68a8 8 0 01-8-7.994V8.437a8.001 8.001 0 018-8.001z" clip-rule="evenodd"/><path fill="#F96132" d="M253.512 250.162a7.995 7.995 0 002.341-5.652V126.473H1V244.51a8.001 8.001 0 008 7.993h238.86c2.12 0 4.153-.842 5.652-2.341z"/><g fill-rule="evenodd" clip-path="url(#clip0)" clip-rule="evenodd"><path fill="#596590" d="M1.065 40.49l57.958 16.984v126.463L1.065 166.954V40.49z"/><path fill="#35416B" d="M58.965 57.5l36.383-30.024V153.88l-36.383 30.025V57.499z"/><path fill="#A1AEDA" d="M1.113 40.522l57.884 17.013L95.38 27.52 40.007 14.065 1.113 40.522z"/><path stroke="#fff" stroke-linecap="round" stroke-linejoin="round" stroke-width="1.079" d="M66.632 91.425L90.194 73.21c.666-.514 1.203-.251 1.203.59v15.32a3.493 3.493 0 01-1.203 2.452l-23.562 18.215c-.664.514-1.203.251-1.203-.589v-15.32a3.502 3.502 0 011.203-2.454v0z"/><path fill="#F96132" d="M67.645 92.928l1.694-1.346c.209-.161.368-.082.368.177v13.083a1.105 1.105 0 01-.368.761l-1.694 1.349c-.209.16-.365.081-.365-.178V93.678a1.1 1.1 0 01.365-.75z"/><path fill="#fff" d="M71.455 96.199l1.694-1.346c.208-.161.367-.082.37.178l.041 6.998a1.09 1.09 0 01-.365.761l-1.694 1.346c-.21.163-.368.083-.37-.176l-.042-7a1.097 1.097 0 01.366-.761z"/><path fill="#F7A501" d="M75.302 90.678L77 89.329c.209-.16.365.176.365.176l.161 9.312a1.091 1.091 0 01-.363.755l-1.7 1.35c-.21.161-.364.081-.364-.176l-.163-9.312c0-.257.366-.755.366-.755z"/><path fill="#F96132" d="M79.157 90.91l1.694-1.346c.21-.16.368.178.368.178l.044 5.82a1.095 1.095 0 01-.366.758l-1.694 1.348c-.208.161-.367.082-.367-.177l-.044-5.82c0-.259.365-.76.365-.76z"/><path fill="#0316F0" d="M83.1 84.37l1.695-1.346c.209-.161.365.177.365.177l.044 9.478a1.102 1.102 0 01-.367.76l-1.694 1.347c-.21.16-.366.081-.366-.178l-.044-9.477c0-.26.368-.761.368-.761z"/><path fill="#fff" d="M87.146 77.78l1.694-1.347c.21-.16.368-.081.368.178v13.1a1.1 1.1 0 01-.368.76l-1.694 1.347c-.209.16-.365.081-.365-.178v-13.1a1.098 1.098 0 01.365-.76zM10.413 50.686L49.506 61.45a2.791 2.791 0 011.942 2.548v15.316c0 1.114-.87 1.776-1.942 1.48L10.413 70.03a2.789 2.789 0 01-1.94-2.549V52.167c0-1.114.871-1.777 1.94-1.48zm-.188 24.415l39.093 10.763a2.792 2.792 0 011.942 2.55v15.315c0 1.112-.869 1.775-1.942 1.48L10.225 94.447a2.79 2.79 0 01-1.94-2.55V76.581c0-1.112.869-1.774 1.94-1.48zm-.376 23.47l39.095 10.771a2.794 2.794 0 011.94 2.548v15.318c0 1.114-.869 1.774-1.94 1.48L9.849 117.924a2.79 2.79 0 01-1.94-2.549V100.06c0-1.114.869-1.777 1.94-1.489zm.188 23.672l39.093 10.763a2.785 2.785 0 011.942 2.548v15.316c0 1.114-.869 1.777-1.942 1.48l-39.093-10.763a2.79 2.79 0 01-1.946-2.548v-15.316c0-1.114.875-1.775 1.946-1.48zm-.188 22.732l39.095 10.757a2.787 2.787 0 011.94 2.548v15.315c0 1.115-.869 1.777-1.94 1.482L9.849 164.313a2.793 2.793 0 01-1.94-2.548V146.45c0-1.114.869-1.777 1.94-1.474z"/><path fill="#F96132" d="M14.885 63.973a2.22 2.22 0 01-1.872-2.896 2.221 2.221 0 014.312.985 2.193 2.193 0 01-2.44 1.91z"/><path fill="#F7A501" d="M13.6 87.953a2.22 2.22 0 01-1.87-2.898 2.222 2.222 0 013.216-1.238 2.22 2.22 0 011.094 2.227 2.192 2.192 0 01-2.44 1.909z"/><path fill="#3541D1" d="M13.38 111.397a2.222 2.222 0 111.344-4.136 2.22 2.22 0 011.095 2.226 2.194 2.194 0 01-1.588 1.847 2.17 2.17 0 01-.852.063z"/><path fill="#F96132" d="M12.782 134.943a2.223 2.223 0 01.078-4.426 2.216 2.216 0 012.15 1.235c.196.396.268.842.21 1.28a2.192 2.192 0 01-2.438 1.911z"/><path fill="#F7A501" d="M12.55 157.781a2.217 2.217 0 01-1.9-1.595 2.225 2.225 0 011.972-2.831 2.218 2.218 0 012.153 1.235c.195.396.268.842.208 1.281a2.192 2.192 0 01-2.433 1.91z"/><path fill="#3541D1" d="M21.754 65.754a2.22 2.22 0 01-1.872-2.896 2.222 2.222 0 013.216-1.24 2.222 2.222 0 011.096 2.225 2.193 2.193 0 01-2.44 1.91z"/><path fill="#F96132" d="M20.472 89.73a2.218 2.218 0 01-1.889-1.605 2.224 2.224 0 011.982-2.82 2.219 2.219 0 012.355 2.516 2.194 2.194 0 01-2.448 1.908z"/><path fill="#F7A501" d="M20.249 113.174a2.222 2.222 0 111.344-4.136 2.223 2.223 0 011.095 2.226 2.191 2.191 0 01-2.44 1.91zm-.598 23.554a2.219 2.219 0 01-1.9-1.596 2.225 2.225 0 01.763-2.362 2.218 2.218 0 013.57 2.047 2.19 2.19 0 01-2.433 1.911z"/><path fill="#F96132" d="M19.421 159.558a2.215 2.215 0 01-1.897-1.598 2.223 2.223 0 013.24-2.539 2.22 2.22 0 011.095 2.227 2.192 2.192 0 01-2.438 1.91zm6.644-94.505a1.898 1.898 0 012.333-1.319l19.51 5.435a1.892 1.892 0 01.995 2.986 1.894 1.894 0 01-2 .66L27.396 67.38a1.894 1.894 0 01-1.33-2.327z"/><path fill="#3541D1" d="M24.78 89.035a1.898 1.898 0 012.334-1.319l19.51 5.42a1.894 1.894 0 011.317 2.336 1.896 1.896 0 01-2.333 1.319l-19.507-5.425a1.897 1.897 0 01-1.32-2.33z"/><path fill="#F7A501" d="M24.56 112.478a1.897 1.897 0 012.328-1.319l19.51 5.435a1.906 1.906 0 011.142.894 1.9 1.9 0 01.176 1.441 1.897 1.897 0 01-2.333 1.319l-19.51-5.435a1.896 1.896 0 01-1.314-2.335z"/><path fill="#F96132" d="M23.964 136.032a1.899 1.899 0 012.333-1.319l19.51 5.434a1.9 1.9 0 011.316 2.321 1.898 1.898 0 01-2.334 1.319l-19.51-5.435a1.895 1.895 0 01-1.315-2.32z"/><path fill="#3541D1" d="M23.732 158.862a1.894 1.894 0 012.331-1.319l19.51 5.435a1.888 1.888 0 011.373 1.597 1.897 1.897 0 01-2.388 2.057l-19.508-5.435a1.908 1.908 0 01-1.143-.894 1.897 1.897 0 01-.175-1.441z"/></g><g fill-rule="evenodd" clip-path="url(#clip1)" clip-rule="evenodd"><path fill="#596590" d="M77.065 67.49l57.958 16.984v126.463l-57.958-16.983V67.49z"/><path fill="#35416B" d="M134.965 84.5l36.383-30.024V180.88l-36.383 30.025V84.499z"/><path fill="#A1AEDA" d="M77.113 67.522l57.884 17.013L171.38 54.52l-55.373-13.455-38.894 26.457z"/><path stroke="#fff" stroke-linecap="round" stroke-linejoin="round" stroke-width="1.079" d="M142.632 118.425l23.562-18.215c.666-.514 1.203-.251 1.203.589v15.322a3.498 3.498 0 01-1.203 2.452l-23.562 18.215c-.664.514-1.203.251-1.203-.589v-15.32a3.502 3.502 0 011.203-2.454v0z"/><path fill="#F96132" d="M143.645 119.928l1.694-1.346c.209-.161.368-.082.368.177v13.083a1.105 1.105 0 01-.368.761l-1.694 1.349c-.209.16-.365.081-.365-.178v-13.096c.018-.288.149-.558.365-.75z"/><path fill="#fff" d="M147.455 123.199l1.694-1.346c.208-.161.367-.082.369.177l.042 6.999a1.08 1.08 0 01-.365.761l-1.694 1.346c-.209.163-.368.083-.37-.176l-.042-7a1.094 1.094 0 01.366-.761z"/><path fill="#F7A501" d="M151.302 117.678l1.698-1.35c.209-.161.365.176.365.176l.161 9.312a1.102 1.102 0 01-.363.755l-1.7 1.35c-.209.161-.364.081-.364-.176l-.163-9.312c0-.257.366-.755.366-.755z"/><path fill="#F96132" d="M155.157 117.91l1.694-1.346c.209-.161.368.178.368.178l.044 5.819a1.09 1.09 0 01-.366.759l-1.694 1.348c-.208.161-.367.082-.367-.177l-.044-5.82c0-.259.365-.761.365-.761z"/><path fill="#0316F0" d="M159.101 111.37l1.694-1.346c.209-.161.365.177.365.177l.044 9.478a1.1 1.1 0 01-.368.761l-1.693 1.346c-.209.161-.366.081-.366-.178l-.044-9.477c0-.259.368-.761.368-.761z"/><path fill="#fff" d="M163.146 104.779l1.694-1.346c.209-.161.368-.081.368.178v13.1a1.1 1.1 0 01-.368.761l-1.694 1.346c-.208.161-.365.081-.365-.178v-13.1a1.1 1.1 0 01.365-.761zM86.413 77.687l39.093 10.763a2.79 2.79 0 011.942 2.548v15.316c0 1.114-.871 1.776-1.942 1.479L86.413 97.03a2.789 2.789 0 01-1.94-2.548V79.167c0-1.114.871-1.777 1.94-1.48zm-.188 24.415l39.093 10.762a2.797 2.797 0 011.942 2.551v15.315c0 1.112-.869 1.775-1.942 1.48l-39.093-10.763a2.79 2.79 0 01-1.94-2.55v-15.316c0-1.112.869-1.774 1.94-1.479zm-.376 23.47l39.095 10.771a2.792 2.792 0 011.94 2.548v15.318c0 1.114-.869 1.774-1.94 1.48l-39.095-10.765a2.789 2.789 0 01-1.94-2.549V127.06c0-1.114.869-1.777 1.94-1.488zm.188 23.672l39.093 10.763a2.79 2.79 0 011.942 2.548v15.316c0 1.114-.869 1.777-1.942 1.48l-39.093-10.763a2.79 2.79 0 01-1.946-2.548v-15.316c0-1.114.875-1.775 1.946-1.48zm-.188 22.732l39.095 10.757a2.786 2.786 0 011.94 2.548v15.315c0 1.115-.869 1.777-1.94 1.482l-39.095-10.765a2.792 2.792 0 01-1.94-2.548V173.45c0-1.114.869-1.777 1.94-1.474z"/><path fill="#F96132" d="M90.885 90.973a2.22 2.22 0 01-1.872-2.896 2.221 2.221 0 014.311.985 2.193 2.193 0 01-2.439 1.91z"/><path fill="#F7A501" d="M89.6 114.953a2.222 2.222 0 111.346-4.136 2.22 2.22 0 011.094 2.227 2.186 2.186 0 01-1.587 1.845 2.188 2.188 0 01-.852.064z"/><path fill="#3541D1" d="M89.38 138.397a2.222 2.222 0 111.344-4.136 2.22 2.22 0 011.095 2.226 2.194 2.194 0 01-1.588 1.847 2.17 2.17 0 01-.852.063z"/><path fill="#F96132" d="M88.782 161.943a2.223 2.223 0 01.078-4.426 2.216 2.216 0 012.15 1.235c.196.396.268.842.21 1.28a2.192 2.192 0 01-2.438 1.911z"/><path fill="#F7A501" d="M88.55 184.781a2.217 2.217 0 01-1.9-1.595 2.225 2.225 0 011.972-2.831 2.218 2.218 0 012.153 1.235c.195.396.268.842.208 1.281a2.192 2.192 0 01-2.433 1.91z"/><path fill="#3541D1" d="M97.754 92.754a2.22 2.22 0 01-1.872-2.896 2.222 2.222 0 013.216-1.24 2.222 2.222 0 011.096 2.225 2.196 2.196 0 01-2.44 1.91z"/><path fill="#F96132" d="M96.472 116.729a2.215 2.215 0 01-1.889-1.604 2.224 2.224 0 011.982-2.82 2.22 2.22 0 012.355 2.516 2.196 2.196 0 01-1.594 1.847 2.18 2.18 0 01-.854.061z"/><path fill="#F7A501" d="M96.249 140.174a2.222 2.222 0 111.344-4.136 2.223 2.223 0 011.095 2.226 2.191 2.191 0 01-2.44 1.91zm-.598 23.554a2.219 2.219 0 01-1.9-1.596 2.225 2.225 0 01.763-2.362 2.218 2.218 0 013.57 2.047 2.19 2.19 0 01-2.433 1.911z"/><path fill="#F96132" d="M95.421 186.558a2.215 2.215 0 01-1.897-1.598 2.223 2.223 0 013.24-2.539 2.22 2.22 0 011.095 2.227 2.192 2.192 0 01-2.438 1.91zm6.644-94.505a1.9 1.9 0 012.333-1.319l19.51 5.435a1.892 1.892 0 01.996 2.986 1.903 1.903 0 01-1.263.715c-.247.03-.498.011-.738-.055l-19.507-5.435a1.896 1.896 0 01-1.331-2.327z"/><path fill="#3541D1" d="M100.781 116.035a1.895 1.895 0 012.333-1.319l19.509 5.421a1.887 1.887 0 011.143.894 1.896 1.896 0 01-.718 2.584 1.877 1.877 0 01-1.44.175l-19.507-5.424a1.897 1.897 0 01-1.32-2.331z"/><path fill="#F7A501" d="M100.559 139.478a1.896 1.896 0 012.329-1.319l19.51 5.435a1.904 1.904 0 011.142.894 1.904 1.904 0 01.176 1.441 1.898 1.898 0 01-2.333 1.319l-19.51-5.435a1.896 1.896 0 01-1.314-2.335z"/><path fill="#F96132" d="M99.964 163.032a1.892 1.892 0 012.333-1.319l19.51 5.434a1.9 1.9 0 011.315 2.321 1.896 1.896 0 01-2.332 1.319l-19.51-5.435a1.896 1.896 0 01-1.316-2.32z"/><path fill="#3541D1" d="M99.732 185.862a1.895 1.895 0 012.331-1.319l19.51 5.435a1.895 1.895 0 01-1.015 3.654l-19.508-5.435a1.904 1.904 0 01-1.143-.894 1.897 1.897 0 01-.175-1.441z"/></g><g fill-rule="evenodd" clip-path="url(#clip2)" clip-rule="evenodd"><path fill="#596590" d="M162.065 94.49l57.958 16.984v126.463l-57.958-16.983V94.49z"/><path fill="#35416B" d="M219.965 111.499l36.383-30.023V207.88l-36.383 30.025V111.499z"/><path fill="#A1AEDA" d="M162.113 94.522l57.884 17.013L256.38 81.52l-55.373-13.455-38.894 26.457z"/><path stroke="#fff" stroke-linecap="round" stroke-linejoin="round" stroke-width="1.079" d="M227.632 145.425l23.562-18.215c.666-.514 1.203-.251 1.203.589v15.322a3.498 3.498 0 01-1.203 2.452l-23.562 18.215c-.664.514-1.203.251-1.203-.589v-15.32a3.502 3.502 0 011.203-2.454v0z"/><path fill="#F96132" d="M228.645 146.928l1.694-1.346c.209-.161.368-.082.368.177v13.083a1.105 1.105 0 01-.368.761l-1.694 1.349c-.209.16-.365.081-.365-.178v-13.096c.018-.288.149-.558.365-.75z"/><path fill="#fff" d="M232.455 150.199l1.694-1.346c.208-.161.367-.082.369.177l.042 6.999a1.08 1.08 0 01-.365.761l-1.694 1.346c-.209.163-.368.083-.37-.176l-.042-7a1.094 1.094 0 01.366-.761z"/><path fill="#F7A501" d="M236.302 144.678l1.698-1.35c.209-.161.365.176.365.176l.161 9.312a1.102 1.102 0 01-.363.755l-1.7 1.35c-.209.161-.364.081-.364-.176l-.163-9.312c0-.257.366-.755.366-.755z"/><path fill="#F96132" d="M240.157 144.91l1.694-1.346c.209-.161.368.178.368.178l.044 5.819a1.09 1.09 0 01-.366.759l-1.694 1.348c-.208.161-.367.082-.367-.177l-.044-5.82c0-.259.365-.761.365-.761z"/><path fill="#0316F0" d="M244.101 138.37l1.694-1.346c.209-.161.365.177.365.177l.044 9.478a1.1 1.1 0 01-.368.761l-1.693 1.346c-.209.161-.366.081-.366-.178l-.044-9.477c0-.259.368-.761.368-.761z"/><path fill="#fff" d="M248.146 131.779l1.694-1.346c.209-.161.368-.081.368.178v13.1a1.1 1.1 0 01-.368.761l-1.694 1.346c-.208.161-.365.081-.365-.178v-13.1a1.1 1.1 0 01.365-.761zm-76.733-27.092l39.093 10.763a2.79 2.79 0 011.942 2.548v15.316c0 1.114-.871 1.776-1.942 1.479l-39.093-10.763a2.788 2.788 0 01-1.94-2.548v-15.315c0-1.114.871-1.777 1.94-1.48zm-.188 24.415l39.093 10.762a2.797 2.797 0 011.942 2.551v15.315c0 1.112-.869 1.775-1.942 1.48l-39.093-10.763a2.788 2.788 0 01-1.94-2.55v-15.316c0-1.112.869-1.774 1.94-1.479zm-.376 23.47l39.095 10.771a2.792 2.792 0 011.94 2.548v15.318c0 1.114-.869 1.774-1.94 1.48l-39.095-10.765a2.797 2.797 0 01-1.94-2.549V154.06c0-1.114.869-1.777 1.94-1.488zm.188 23.672l39.093 10.763a2.79 2.79 0 011.942 2.548v15.316c0 1.114-.869 1.777-1.942 1.48l-39.093-10.763a2.786 2.786 0 01-1.946-2.548v-15.316c0-1.114.875-1.775 1.946-1.48zm-.188 22.732l39.095 10.757a2.786 2.786 0 011.94 2.548v15.315c0 1.115-.869 1.777-1.94 1.482l-39.095-10.765a2.788 2.788 0 01-1.94-2.548V200.45c0-1.114.869-1.777 1.94-1.474z"/><path fill="#F96132" d="M175.885 117.973a2.23 2.23 0 01-1.192-.51 2.227 2.227 0 01.063-3.449 2.22 2.22 0 013.569 2.048 2.191 2.191 0 01-2.44 1.911z"/><path fill="#F7A501" d="M174.601 141.953a2.221 2.221 0 112.232-3.189c.195.396.267.842.207 1.28a2.197 2.197 0 01-.825 1.46 2.185 2.185 0 01-1.614.449z"/><path fill="#3541D1" d="M174.379 165.397a2.216 2.216 0 01-1.895-1.599 2.222 2.222 0 011.976-2.826 2.222 2.222 0 012.359 2.515 2.208 2.208 0 01-.824 1.461 2.18 2.18 0 01-1.616.449z"/><path fill="#F96132" d="M173.782 188.943a2.226 2.226 0 01-1.897-1.598 2.225 2.225 0 01.765-2.361 2.214 2.214 0 012.473-.178 2.216 2.216 0 011.096 2.226 2.19 2.19 0 01-2.437 1.911z"/><path fill="#F7A501" d="M173.55 211.781a2.218 2.218 0 01-1.879-2.893 2.22 2.22 0 014.312.983 2.19 2.19 0 01-2.433 1.91z"/><path fill="#3541D1" d="M182.754 119.754a2.225 2.225 0 01-1.895-1.6 2.219 2.219 0 01.767-2.359 2.213 2.213 0 012.473-.178 2.225 2.225 0 011.095 2.226 2.194 2.194 0 01-2.44 1.911z"/><path fill="#F96132" d="M181.472 143.729a2.216 2.216 0 01-1.889-1.604 2.227 2.227 0 01.773-2.357 2.222 2.222 0 013.564 2.053 2.197 2.197 0 01-1.594 1.847 2.178 2.178 0 01-.854.061z"/><path fill="#F7A501" d="M181.249 167.174a2.216 2.216 0 01-1.896-1.599 2.222 2.222 0 013.24-2.537 2.223 2.223 0 011.095 2.226 2.19 2.19 0 01-2.439 1.91zm-.598 23.554a2.222 2.222 0 111.337-4.138 2.216 2.216 0 011.096 2.227 2.19 2.19 0 01-2.433 1.911z"/><path fill="#F96132" d="M180.421 213.558a2.214 2.214 0 01-1.897-1.598 2.23 2.23 0 01.766-2.361 2.218 2.218 0 013.36.768c.196.397.268.842.209 1.281a2.194 2.194 0 01-2.438 1.91zm6.644-94.505a1.898 1.898 0 012.333-1.319l19.51 5.435a1.892 1.892 0 11-1.005 3.646l-19.507-5.435a1.894 1.894 0 01-1.331-2.327z"/><path fill="#3541D1" d="M185.781 143.035a1.895 1.895 0 012.333-1.319l19.509 5.421a1.887 1.887 0 011.143.894 1.896 1.896 0 01-.718 2.584 1.877 1.877 0 01-1.44.175l-19.507-5.424a1.897 1.897 0 01-1.32-2.331z"/><path fill="#F7A501" d="M185.559 166.478a1.896 1.896 0 012.329-1.319l19.51 5.435a1.904 1.904 0 011.142.894 1.904 1.904 0 01.176 1.441 1.898 1.898 0 01-2.333 1.319l-19.51-5.435a1.896 1.896 0 01-1.314-2.335z"/><path fill="#F96132" d="M184.964 190.032a1.892 1.892 0 012.333-1.319l19.51 5.434a1.9 1.9 0 011.315 2.321 1.896 1.896 0 01-2.332 1.319l-19.51-5.435a1.896 1.896 0 01-1.316-2.32z"/><path fill="#3541D1" d="M184.732 212.862a1.897 1.897 0 012.331-1.319l19.51 5.435a1.895 1.895 0 01-1.015 3.654l-19.508-5.435a1.904 1.904 0 01-1.143-.894 1.904 1.904 0 01-.175-1.441z"/></g><defs><clipPath id="clip0"><path fill="#fff" d="M0 0h94.444v170H0z" transform="translate(1 14)"/></clipPath><clipPath id="clip1"><path fill="#fff" d="M0 0h94.444v170H0z" transform="translate(77 41)"/></clipPath><clipPath id="clip2"><path fill="#fff" d="M0 0h94.444v170H0z" transform="translate(162 68)"/></clipPath></defs></svg>