<svg xmlns="http://www.w3.org/2000/svg" width="256" height="253" fill="none" viewBox="0 0 256 253"><path fill="#F96132" fill-rule="evenodd" d="M8.40556 0.435913H247.265C249.38 0.446073 251.406 1.29352 252.898 2.7929C254.39 4.29228 255.227 6.32157 255.227 8.43693V244.509C255.227 246.629 254.385 248.663 252.886 250.162C251.387 251.661 249.354 252.503 247.234 252.503H8.40556C6.28498 252.503 4.25116 251.661 2.75096 250.162C1.25077 248.663 0.406944 246.63 0.404907 244.509V8.43693C0.404907 6.31493 1.24783 4.27984 2.74824 2.77936C4.24866 1.27888 6.28365 0.435913 8.40556 0.435913Z" clip-rule="evenodd"/><path fill="#F7A501" d="M253.512 250.162C255.011 248.663 255.853 246.629 255.853 244.51V126.473H1V244.51C1.00204 246.63 1.84581 248.663 3.34601 250.162C4.84621 251.661 6.88002 252.503 9.0006 252.503H247.86C249.98 252.503 252.013 251.661 253.512 250.162Z"/><g clip-path="url(#clip0)"><path fill="#596590" fill-rule="evenodd" d="M41.0647 58.4904L99.0234 75.4741V201.937L41.0647 184.954V58.4904Z" clip-rule="evenodd"/><path fill="#35416B" fill-rule="evenodd" d="M98.9648 75.4991L135.348 45.4761V171.879L98.9648 201.904V75.4991Z" clip-rule="evenodd"/><path fill="#A1AEDA" fill-rule="evenodd" d="M41.1133 58.522L98.9968 75.535L135.38 45.5203L80.0072 32.0651L41.1133 58.522Z" clip-rule="evenodd"/><path fill-rule="evenodd" stroke="#fff" stroke-linecap="round" stroke-linejoin="round" stroke-width="1.079" d="M106.632 109.425L130.194 91.2098C130.86 90.6956 131.397 90.959 131.397 91.7993V107.121C131.371 107.59 131.251 108.049 131.045 108.47C130.838 108.891 130.549 109.266 130.194 109.573L106.632 127.788C105.968 128.302 105.429 128.039 105.429 127.199V111.879C105.455 111.41 105.575 110.951 105.781 110.529C105.988 110.108 106.277 109.732 106.632 109.425V109.425Z" clip-rule="evenodd"/><path fill="#F96132" fill-rule="evenodd" d="M107.645 110.928L109.339 109.582C109.548 109.421 109.707 109.5 109.707 109.759V122.842C109.699 122.987 109.662 123.129 109.599 123.26C109.536 123.39 109.447 123.507 109.339 123.603L107.645 124.952C107.436 125.112 107.28 125.033 107.28 124.774V111.678C107.298 111.39 107.429 111.12 107.645 110.928Z" clip-rule="evenodd"/><path fill="#fff" fill-rule="evenodd" d="M111.455 114.199L113.149 112.853C113.357 112.692 113.516 112.771 113.518 113.03L113.56 120.029C113.553 120.174 113.517 120.315 113.454 120.446C113.391 120.577 113.303 120.694 113.195 120.79L111.501 122.136C111.292 122.299 111.133 122.219 111.131 121.96L111.089 114.96C111.097 114.815 111.133 114.673 111.196 114.543C111.259 114.412 111.347 114.295 111.455 114.199Z" clip-rule="evenodd"/><path fill="#F7A501" fill-rule="evenodd" d="M115.302 108.678L117 107.328C117.209 107.167 117.365 107.504 117.365 107.504L117.526 116.816C117.518 116.96 117.482 117.1 117.42 117.23C117.358 117.359 117.27 117.475 117.163 117.571L115.463 118.921C115.254 119.082 115.099 119.002 115.099 118.745L114.936 109.433C114.936 109.176 115.302 108.678 115.302 108.678Z" clip-rule="evenodd"/><path fill="#F96132" fill-rule="evenodd" d="M119.157 108.91L120.851 107.564C121.06 107.403 121.219 107.742 121.219 107.742L121.263 113.561C121.255 113.706 121.219 113.847 121.156 113.977C121.093 114.108 121.005 114.224 120.897 114.32L119.203 115.668C118.995 115.829 118.836 115.75 118.836 115.491L118.792 109.671C118.792 109.412 119.157 108.91 119.157 108.91Z" clip-rule="evenodd"/><path fill="#0316F0" fill-rule="evenodd" d="M123.101 102.37L124.795 101.024C125.004 100.863 125.16 101.201 125.16 101.201L125.204 110.679C125.196 110.824 125.159 110.965 125.096 111.096C125.033 111.227 124.945 111.343 124.836 111.44L123.143 112.786C122.934 112.947 122.777 112.867 122.777 112.608L122.733 103.131C122.733 102.872 123.101 102.37 123.101 102.37Z" clip-rule="evenodd"/><path fill="#fff" fill-rule="evenodd" d="M127.146 95.7793L128.84 94.4331C129.049 94.2722 129.208 94.3516 129.208 94.6108V107.711C129.2 107.856 129.163 107.997 129.1 108.128C129.037 108.258 128.949 108.375 128.84 108.472L127.146 109.818C126.938 109.979 126.781 109.899 126.781 109.64V96.5401C126.789 96.3954 126.825 96.2537 126.888 96.1231C126.95 95.9925 127.038 95.8757 127.146 95.7793Z" clip-rule="evenodd"/><path fill="#fff" fill-rule="evenodd" d="M50.4133 68.6868L89.5057 79.4498C90.0516 79.6236 90.5309 79.9613 90.8785 80.4172C91.226 80.8731 91.4249 81.425 91.4481 81.9979V97.3135C91.4481 98.4276 90.5771 99.0903 89.5057 98.7934L50.4133 88.0305C49.8676 87.8566 49.3886 87.5188 49.0414 87.0629C48.6943 86.607 48.4958 86.0551 48.473 85.4824V70.1668C48.473 69.0526 49.344 68.39 50.4133 68.6868Z" clip-rule="evenodd"/><path fill="#fff" fill-rule="evenodd" d="M50.2253 93.1015L89.3177 103.864C89.8638 104.039 90.3432 104.377 90.6907 104.833C91.0382 105.289 91.237 105.841 91.2601 106.415V121.73C91.2601 122.842 90.3912 123.505 89.3177 123.21L50.2253 112.447C49.6794 112.273 49.2004 111.935 48.8532 111.479C48.5061 111.022 48.3077 110.47 48.285 109.897V94.5815C48.285 93.4694 49.1539 92.8068 50.2253 93.1015Z" clip-rule="evenodd"/><path fill="#fff" fill-rule="evenodd" d="M49.8494 116.572L88.9438 127.343C89.4895 127.517 89.9686 127.855 90.3157 128.31C90.6629 128.766 90.8613 129.318 90.8841 129.891V145.209C90.8841 146.323 90.0152 146.983 88.9438 146.689L49.8494 135.924C49.3036 135.75 48.8246 135.412 48.4775 134.956C48.1303 134.5 47.9318 133.948 47.9091 133.375V118.06C47.9091 116.946 48.7779 116.283 49.8494 116.572Z" clip-rule="evenodd"/><path fill="#fff" fill-rule="evenodd" d="M50.0373 140.244L89.1296 151.007C89.6759 151.18 90.1555 151.518 90.5031 151.974C90.8507 152.43 91.0494 152.982 91.072 153.555V168.871C91.072 169.985 90.2032 170.648 89.1296 170.351L50.0373 159.588C49.4904 159.415 49.01 159.078 48.6616 158.622C48.3133 158.166 48.1139 157.613 48.0907 157.04V141.724C48.0907 140.61 48.9658 139.949 50.0373 140.244Z" clip-rule="evenodd"/><path fill="#fff" fill-rule="evenodd" d="M49.8494 162.976L88.9438 173.733C89.4895 173.907 89.9686 174.244 90.3157 174.7C90.6629 175.156 90.8613 175.708 90.8841 176.281V191.596C90.8841 192.711 90.0152 193.373 88.9438 193.078L49.8494 182.313C49.3036 182.14 48.8246 181.802 48.4775 181.346C48.1303 180.89 47.9318 180.338 47.9091 179.765V164.45C47.9091 163.336 48.7779 162.673 49.8494 162.976Z" clip-rule="evenodd"/><path fill="#F96132" fill-rule="evenodd" d="M54.8851 81.9728C54.446 81.9251 54.0311 81.7475 53.6935 81.4626C53.3558 81.1777 53.1107 80.7985 52.9895 80.3735C52.8683 79.9484 52.8766 79.4969 53.0131 79.0766C53.1497 78.6562 53.4084 78.2862 53.7562 78.0139C54.104 77.7415 54.5251 77.5791 54.9656 77.5474C55.4061 77.5158 55.846 77.6164 56.2291 77.8363C56.6122 78.0562 56.9211 78.3855 57.1162 78.782C57.3113 79.1785 57.3839 79.6242 57.3245 80.0622C57.254 80.6393 56.9575 81.1647 56.5 81.523C56.0425 81.8812 55.4617 82.043 54.8851 81.9728Z" clip-rule="evenodd"/><path fill="#F7A501" fill-rule="evenodd" d="M53.6006 105.953C53.1615 105.905 52.7465 105.727 52.4089 105.442C52.0712 105.157 51.8262 104.778 51.7051 104.353C51.5841 103.927 51.5925 103.476 51.7292 103.056C51.866 102.635 52.125 102.265 52.473 101.993C52.821 101.721 53.2422 101.559 53.6828 101.527C54.1234 101.496 54.5634 101.597 54.9464 101.817C55.3294 102.037 55.638 102.367 55.8328 102.764C56.0277 103.16 56.0998 103.606 56.0401 104.044C56.0052 104.33 55.9144 104.606 55.7729 104.856C55.6314 105.107 55.442 105.327 55.2154 105.504C54.9889 105.681 54.7297 105.812 54.4526 105.889C54.1755 105.966 53.886 105.988 53.6006 105.953Z" clip-rule="evenodd"/><path fill="#3541D1" fill-rule="evenodd" d="M53.3791 129.397C52.94 129.35 52.5251 129.172 52.1875 128.887C51.8498 128.602 51.6047 128.223 51.4835 127.798C51.3624 127.373 51.3706 126.922 51.5072 126.501C51.6437 126.081 51.9025 125.711 52.2503 125.439C52.5981 125.166 53.0191 125.004 53.4596 124.972C53.9001 124.941 54.3401 125.041 54.7232 125.261C55.1062 125.481 55.4151 125.81 55.6102 126.207C55.8054 126.603 55.8779 127.049 55.8186 127.487C55.7839 127.773 55.6933 128.049 55.5519 128.3C55.4105 128.55 55.2211 128.771 54.9946 128.948C54.768 129.126 54.5087 129.257 54.2315 129.334C53.9543 129.411 53.6646 129.433 53.3791 129.397Z" clip-rule="evenodd"/><path fill="#F96132" fill-rule="evenodd" d="M52.7818 152.943C52.3426 152.895 51.9274 152.718 51.5895 152.433C51.2515 152.149 51.0061 151.77 50.8846 151.345C50.7631 150.92 50.771 150.468 50.9074 150.047C51.0438 149.627 51.3024 149.257 51.6502 148.984C51.9979 148.712 52.419 148.549 52.8596 148.517C53.3002 148.485 53.7403 148.586 54.1235 148.806C54.5067 149.026 54.8156 149.355 55.0108 149.752C55.206 150.148 55.2785 150.594 55.2192 151.032C55.1486 151.609 54.8524 152.134 54.3954 152.492C53.9384 152.85 53.3581 153.012 52.7818 152.943Z" clip-rule="evenodd"/><path fill="#F7A501" fill-rule="evenodd" d="M52.5499 175.781C52.1104 175.735 51.6948 175.558 51.3562 175.274C51.0177 174.99 50.7716 174.611 50.6494 174.186C50.5273 173.761 50.5347 173.309 50.6707 172.888C50.8067 172.467 51.0651 172.096 51.4128 171.823C51.7605 171.55 52.1816 171.387 52.6224 171.355C53.0632 171.323 53.5035 171.424 53.8869 171.644C54.2704 171.864 54.5795 172.193 54.7748 172.59C54.9701 172.986 55.0426 173.432 54.9831 173.871C54.9126 174.447 54.6169 174.971 54.1609 175.329C53.7048 175.687 53.1255 175.85 52.5499 175.781Z" clip-rule="evenodd"/><path fill="#3541D1" fill-rule="evenodd" d="M61.7544 83.7538C61.3154 83.7061 60.9005 83.5285 60.5628 83.2436C60.2252 82.9587 59.9801 82.5795 59.8589 82.1545C59.7377 81.7294 59.7459 81.2779 59.8825 80.8576C60.0191 80.4373 60.2778 80.0672 60.6256 79.7949C60.9734 79.5225 61.3945 79.3601 61.835 79.3285C62.2755 79.2968 62.7154 79.3974 63.0985 79.6173C63.4816 79.8372 63.7904 80.1665 63.9856 80.563C64.1807 80.9595 64.2532 81.4053 64.1939 81.8432C64.1234 82.4203 63.8268 82.9457 63.3694 83.304C62.9119 83.6622 62.331 83.824 61.7544 83.7538Z" clip-rule="evenodd"/><path fill="#F96132" fill-rule="evenodd" d="M60.472 107.729C60.0334 107.68 59.6195 107.501 59.2831 107.215C58.9466 106.929 58.703 106.55 58.5831 106.125C58.4633 105.699 58.4728 105.248 58.6104 104.829C58.748 104.409 59.0074 104.04 59.3555 103.768C59.7037 103.497 60.1248 103.336 60.565 103.305C61.0052 103.274 61.4447 103.375 61.8272 103.595C62.2097 103.816 62.518 104.145 62.7126 104.541C62.9072 104.938 62.9794 105.383 62.9198 105.821C62.8847 106.107 62.7935 106.384 62.6514 106.635C62.5093 106.886 62.319 107.106 62.0917 107.284C61.8643 107.461 61.6041 107.592 61.3262 107.668C61.0483 107.745 60.758 107.765 60.472 107.729Z" clip-rule="evenodd"/><path fill="#F7A501" fill-rule="evenodd" d="M60.2486 131.174C59.8095 131.127 59.3946 130.949 59.057 130.664C58.7193 130.379 58.4742 130 58.353 129.575C58.2319 129.15 58.2401 128.698 58.3767 128.278C58.5132 127.858 58.772 127.488 59.1198 127.215C59.4676 126.943 59.8886 126.78 60.3291 126.749C60.7697 126.717 61.2096 126.818 61.5927 127.038C61.9758 127.258 62.2846 127.587 62.4797 127.983C62.6749 128.38 62.7474 128.826 62.6881 129.264C62.6176 129.841 62.321 130.366 61.8635 130.724C61.4061 131.083 60.8252 131.244 60.2486 131.174Z" clip-rule="evenodd"/><path fill="#F7A501" fill-rule="evenodd" d="M59.6511 154.728C59.2116 154.681 58.796 154.505 58.4574 154.22C58.1189 153.936 57.8728 153.557 57.7506 153.132C57.6285 152.707 57.6359 152.255 57.7719 151.834C57.9079 151.414 58.1663 151.043 58.514 150.77C58.8616 150.497 59.2828 150.334 59.7236 150.302C60.1644 150.27 60.6047 150.37 60.9881 150.59C61.3715 150.81 61.6807 151.139 61.876 151.536C62.0713 151.933 62.1438 152.379 62.0843 152.817C62.0143 153.393 61.7188 153.918 61.2626 154.276C60.8064 154.634 60.2268 154.797 59.6511 154.728Z" clip-rule="evenodd"/><path fill="#F96132" fill-rule="evenodd" d="M59.4214 177.558C58.9822 177.511 58.5671 177.334 58.2291 177.049C57.8912 176.764 57.6457 176.385 57.5242 175.96C57.4027 175.535 57.4107 175.083 57.5471 174.663C57.6834 174.242 57.942 173.872 58.2898 173.599C58.6376 173.327 59.0587 173.164 59.4993 173.133C59.9399 173.101 60.3799 173.201 60.7631 173.421C61.1463 173.641 61.4553 173.97 61.6505 174.367C61.8457 174.764 61.9182 175.209 61.8588 175.648C61.7883 176.224 61.492 176.749 61.035 177.107C60.578 177.466 59.9977 177.628 59.4214 177.558Z" clip-rule="evenodd"/><path fill="#F96132" fill-rule="evenodd" d="M66.0652 83.0534C66.2002 82.5691 66.5217 82.1583 66.9591 81.911C67.3965 81.6637 67.914 81.6002 68.3982 81.7344L87.9078 87.1692C88.3919 87.3012 88.8037 87.6203 89.0528 88.0561C89.3019 88.492 89.3679 89.0091 89.2361 89.4936C89.1697 89.7337 89.0567 89.9584 88.9035 90.1548C88.7503 90.3512 88.5599 90.5154 88.3432 90.6381C88.1266 90.7608 87.8879 90.8395 87.6408 90.8698C87.3937 90.9001 87.143 90.8814 86.9032 90.8147L67.3956 85.3799C66.911 85.2479 66.4986 84.9286 66.2491 84.4923C65.9997 84.0561 65.9335 83.5385 66.0652 83.0534Z" clip-rule="evenodd"/><path fill="#3541D1" fill-rule="evenodd" d="M64.7808 107.035C64.9158 106.551 65.2373 106.14 65.6747 105.893C66.112 105.646 66.6296 105.582 67.1137 105.716L86.6233 111.137C86.8631 111.203 87.0874 111.317 87.2833 111.47C87.4793 111.623 87.6432 111.814 87.7656 112.031C87.888 112.248 87.9665 112.486 87.9966 112.734C88.0268 112.981 88.0079 113.232 87.9413 113.472C87.8749 113.712 87.7618 113.936 87.6086 114.133C87.4554 114.329 87.2649 114.493 87.0482 114.615C86.8315 114.738 86.5928 114.816 86.3457 114.847C86.0986 114.877 85.848 114.858 85.6083 114.79L66.1007 109.366C65.6174 109.231 65.2071 108.911 64.9597 108.474C64.7123 108.037 64.648 107.52 64.7808 107.035Z" clip-rule="evenodd"/><path fill="#F7A501" fill-rule="evenodd" d="M64.5594 130.478C64.6944 129.995 65.0153 129.585 65.4517 129.338C65.8881 129.09 66.4046 129.026 66.8882 129.159L86.3978 134.594C86.6375 134.661 86.8618 134.774 87.0578 134.927C87.2538 135.081 87.4176 135.271 87.54 135.488C87.6624 135.705 87.7409 135.944 87.7711 136.191C87.8012 136.438 87.7824 136.689 87.7157 136.929C87.5807 137.413 87.2592 137.824 86.8218 138.071C86.3844 138.319 85.8668 138.382 85.3827 138.248L65.8731 132.813C65.39 132.677 64.9805 132.355 64.7342 131.917C64.488 131.48 64.4251 130.962 64.5594 130.478Z" clip-rule="evenodd"/><path fill="#F96132" fill-rule="evenodd" d="M63.9641 154.032C64.0991 153.547 64.4206 153.137 64.858 152.889C65.2954 152.642 65.8129 152.578 66.297 152.713L85.8067 158.147C86.2869 158.283 86.6943 158.603 86.9406 159.037C87.1869 159.472 87.2523 159.985 87.1225 160.468C86.987 160.952 86.6654 161.362 86.2281 161.609C85.7909 161.857 85.2736 161.92 84.7895 161.787L65.2799 156.352C64.7993 156.217 64.3916 155.897 64.1452 155.463C63.8988 155.028 63.8337 154.514 63.9641 154.032Z" clip-rule="evenodd"/><path fill="#3541D1" fill-rule="evenodd" d="M63.7322 176.862C63.8667 176.378 64.1878 175.967 64.6249 175.72C65.0619 175.472 65.5792 175.409 66.063 175.543L85.5727 180.978C85.8124 181.044 86.0367 181.158 86.2326 181.311C86.4286 181.465 86.5925 181.655 86.7149 181.872C86.8373 182.089 86.9158 182.328 86.9459 182.575C86.9761 182.822 86.9573 183.073 86.8906 183.313C86.8239 183.553 86.7108 183.777 86.5574 183.973C86.4041 184.169 86.2137 184.333 85.9971 184.456C85.7804 184.578 85.5418 184.657 85.2948 184.687C85.0478 184.717 84.7973 184.698 84.5576 184.632L65.0501 179.197C64.8102 179.13 64.5857 179.017 64.3896 178.864C64.1935 178.711 64.0295 178.52 63.9071 178.303C63.7847 178.086 63.7062 177.847 63.6762 177.6C63.6461 177.353 63.6652 177.102 63.7322 176.862Z" clip-rule="evenodd"/></g><g clip-path="url(#clip1)"><path fill="#596590" fill-rule="evenodd" d="M121.065 80.4904L179.023 97.4741V223.937L121.065 206.954V80.4904Z" clip-rule="evenodd"/><path fill="#35416B" fill-rule="evenodd" d="M178.965 97.4991L215.348 67.4761V193.879L178.965 223.904V97.4991Z" clip-rule="evenodd"/><path fill="#A1AEDA" fill-rule="evenodd" d="M121.113 80.522L178.997 97.535L215.38 67.5203L160.007 54.0651L121.113 80.522Z" clip-rule="evenodd"/><path fill-rule="evenodd" stroke="#fff" stroke-linecap="round" stroke-linejoin="round" stroke-width="1.079" d="M186.632 131.425L210.194 113.21C210.86 112.696 211.397 112.959 211.397 113.799V129.121C211.371 129.59 211.251 130.049 211.045 130.47C210.838 130.891 210.549 131.266 210.194 131.573L186.632 149.788C185.968 150.302 185.429 150.039 185.429 149.199V133.879C185.455 133.41 185.575 132.951 185.781 132.529C185.988 132.108 186.277 131.732 186.632 131.425V131.425Z" clip-rule="evenodd"/><path fill="#F96132" fill-rule="evenodd" d="M187.645 132.928L189.339 131.582C189.548 131.421 189.707 131.5 189.707 131.759V144.842C189.699 144.987 189.662 145.129 189.599 145.26C189.536 145.39 189.447 145.507 189.339 145.603L187.645 146.952C187.436 147.112 187.28 147.033 187.28 146.774V133.678C187.298 133.39 187.429 133.12 187.645 132.928Z" clip-rule="evenodd"/><path fill="#fff" fill-rule="evenodd" d="M191.455 136.199L193.149 134.853C193.357 134.692 193.516 134.771 193.518 135.03L193.56 142.029C193.553 142.174 193.517 142.315 193.454 142.446C193.391 142.577 193.303 142.694 193.195 142.79L191.501 144.136C191.292 144.299 191.133 144.219 191.131 143.96L191.089 136.96C191.097 136.815 191.133 136.673 191.196 136.543C191.259 136.412 191.347 136.295 191.455 136.199Z" clip-rule="evenodd"/><path fill="#F7A501" fill-rule="evenodd" d="M195.302 130.678L197 129.328C197.209 129.167 197.365 129.504 197.365 129.504L197.526 138.816C197.518 138.96 197.482 139.1 197.42 139.23C197.358 139.359 197.27 139.475 197.163 139.571L195.463 140.921C195.254 141.082 195.099 141.002 195.099 140.745L194.936 131.433C194.936 131.176 195.302 130.678 195.302 130.678Z" clip-rule="evenodd"/><path fill="#F96132" fill-rule="evenodd" d="M199.157 130.91L200.851 129.564C201.06 129.403 201.219 129.742 201.219 129.742L201.263 135.561C201.255 135.706 201.219 135.847 201.156 135.977C201.093 136.108 201.005 136.224 200.897 136.32L199.203 137.668C198.995 137.829 198.836 137.75 198.836 137.491L198.792 131.671C198.792 131.412 199.157 130.91 199.157 130.91Z" clip-rule="evenodd"/><path fill="#0316F0" fill-rule="evenodd" d="M203.101 124.37L204.795 123.024C205.004 122.863 205.16 123.201 205.16 123.201L205.204 132.679C205.196 132.824 205.159 132.965 205.096 133.096C205.033 133.227 204.945 133.343 204.836 133.44L203.143 134.786C202.934 134.947 202.777 134.867 202.777 134.608L202.733 125.131C202.733 124.872 203.101 124.37 203.101 124.37Z" clip-rule="evenodd"/><path fill="#fff" fill-rule="evenodd" d="M207.146 117.779L208.84 116.433C209.049 116.272 209.208 116.352 209.208 116.611V129.711C209.2 129.856 209.163 129.997 209.1 130.128C209.037 130.258 208.949 130.375 208.84 130.472L207.146 131.818C206.938 131.979 206.781 131.899 206.781 131.64V118.54C206.789 118.395 206.825 118.254 206.888 118.123C206.95 117.993 207.038 117.876 207.146 117.779Z" clip-rule="evenodd"/><path fill="#fff" fill-rule="evenodd" d="M130.413 90.6868L169.506 101.45C170.052 101.624 170.531 101.961 170.878 102.417C171.226 102.873 171.425 103.425 171.448 103.998V119.314C171.448 120.428 170.577 121.09 169.506 120.793L130.413 110.03C129.868 109.857 129.389 109.519 129.041 109.063C128.694 108.607 128.496 108.055 128.473 107.482V92.1668C128.473 91.0526 129.344 90.39 130.413 90.6868Z" clip-rule="evenodd"/><path fill="#fff" fill-rule="evenodd" d="M130.225 115.102L169.318 125.864C169.864 126.039 170.343 126.377 170.691 126.833C171.038 127.289 171.237 127.841 171.26 128.415V143.73C171.26 144.842 170.391 145.505 169.318 145.21L130.225 134.447C129.679 134.273 129.2 133.935 128.853 133.479C128.506 133.022 128.308 132.47 128.285 131.897V116.581C128.285 115.469 129.154 114.807 130.225 115.102Z" clip-rule="evenodd"/><path fill="#fff" fill-rule="evenodd" d="M129.849 138.572L168.944 149.343C169.49 149.517 169.969 149.855 170.316 150.31C170.663 150.766 170.861 151.318 170.884 151.891V167.209C170.884 168.323 170.015 168.983 168.944 168.689L129.849 157.924C129.304 157.75 128.825 157.412 128.477 156.956C128.13 156.5 127.932 155.948 127.909 155.375V140.06C127.909 138.946 128.778 138.283 129.849 138.572Z" clip-rule="evenodd"/><path fill="#fff" fill-rule="evenodd" d="M130.037 162.244L169.13 173.007C169.676 173.18 170.156 173.518 170.503 173.974C170.851 174.43 171.049 174.982 171.072 175.555V190.871C171.072 191.985 170.203 192.648 169.13 192.351L130.037 181.588C129.49 181.415 129.01 181.078 128.662 180.622C128.313 180.166 128.114 179.613 128.091 179.04V163.724C128.091 162.61 128.966 161.949 130.037 162.244Z" clip-rule="evenodd"/><path fill="#fff" fill-rule="evenodd" d="M129.849 184.976L168.944 195.733C169.49 195.907 169.969 196.244 170.316 196.7C170.663 197.156 170.861 197.708 170.884 198.281V213.596C170.884 214.711 170.015 215.373 168.944 215.078L129.849 204.313C129.304 204.14 128.825 203.802 128.477 203.346C128.13 202.89 127.932 202.338 127.909 201.765V186.45C127.909 185.336 128.778 184.673 129.849 184.976Z" clip-rule="evenodd"/><path fill="#F96132" fill-rule="evenodd" d="M134.885 103.973C134.446 103.925 134.031 103.747 133.693 103.463C133.356 103.178 133.111 102.798 132.99 102.373C132.868 101.948 132.877 101.497 133.013 101.077C133.15 100.656 133.408 100.286 133.756 100.014C134.104 99.7415 134.525 99.5791 134.966 99.5474C135.406 99.5158 135.846 99.6164 136.229 99.8363C136.612 100.056 136.921 100.385 137.116 100.782C137.311 101.179 137.384 101.624 137.325 102.062C137.254 102.639 136.957 103.165 136.5 103.523C136.043 103.881 135.462 104.043 134.885 103.973Z" clip-rule="evenodd"/><path fill="#F7A501" fill-rule="evenodd" d="M133.601 127.953C133.161 127.905 132.747 127.727 132.409 127.442C132.071 127.157 131.826 126.778 131.705 126.353C131.584 125.927 131.592 125.476 131.729 125.056C131.866 124.635 132.125 124.265 132.473 123.993C132.821 123.721 133.242 123.559 133.683 123.527C134.123 123.496 134.563 123.597 134.946 123.817C135.329 124.037 135.638 124.367 135.833 124.764C136.028 125.16 136.1 125.606 136.04 126.044C136.005 126.33 135.914 126.606 135.773 126.856C135.631 127.107 135.442 127.327 135.215 127.504C134.989 127.681 134.73 127.812 134.453 127.889C134.175 127.966 133.886 127.988 133.601 127.953Z" clip-rule="evenodd"/><path fill="#3541D1" fill-rule="evenodd" d="M133.379 151.397C132.94 151.35 132.525 151.172 132.187 150.887C131.85 150.602 131.605 150.223 131.484 149.798C131.362 149.373 131.371 148.922 131.507 148.501C131.644 148.081 131.902 147.711 132.25 147.439C132.598 147.166 133.019 147.004 133.46 146.972C133.9 146.941 134.34 147.041 134.723 147.261C135.106 147.481 135.415 147.81 135.61 148.207C135.805 148.603 135.878 149.049 135.819 149.487C135.784 149.773 135.693 150.049 135.552 150.3C135.411 150.55 135.221 150.771 134.995 150.948C134.768 151.126 134.509 151.257 134.231 151.334C133.954 151.411 133.665 151.433 133.379 151.397Z" clip-rule="evenodd"/><path fill="#F96132" fill-rule="evenodd" d="M132.782 174.943C132.343 174.895 131.927 174.718 131.589 174.433C131.252 174.149 131.006 173.77 130.885 173.345C130.763 172.92 130.771 172.468 130.907 172.047C131.044 171.627 131.302 171.257 131.65 170.984C131.998 170.712 132.419 170.549 132.86 170.517C133.3 170.485 133.74 170.586 134.123 170.806C134.507 171.026 134.816 171.355 135.011 171.752C135.206 172.148 135.279 172.594 135.219 173.032C135.149 173.609 134.852 174.134 134.395 174.492C133.938 174.85 133.358 175.012 132.782 174.943Z" clip-rule="evenodd"/><path fill="#F7A501" fill-rule="evenodd" d="M132.55 197.781C132.11 197.735 131.695 197.558 131.356 197.274C131.018 196.99 130.772 196.611 130.649 196.186C130.527 195.761 130.535 195.309 130.671 194.888C130.807 194.467 131.065 194.096 131.413 193.823C131.76 193.55 132.182 193.387 132.622 193.355C133.063 193.323 133.503 193.424 133.887 193.644C134.27 193.864 134.58 194.193 134.775 194.59C134.97 194.986 135.043 195.432 134.983 195.871C134.913 196.447 134.617 196.971 134.161 197.329C133.705 197.687 133.126 197.85 132.55 197.781Z" clip-rule="evenodd"/><path fill="#3541D1" fill-rule="evenodd" d="M141.754 105.754C141.315 105.706 140.9 105.528 140.563 105.244C140.225 104.959 139.98 104.58 139.859 104.154C139.738 103.729 139.746 103.278 139.883 102.858C140.019 102.437 140.278 102.067 140.626 101.795C140.973 101.522 141.394 101.36 141.835 101.328C142.275 101.297 142.715 101.397 143.099 101.617C143.482 101.837 143.79 102.166 143.986 102.563C144.181 102.96 144.253 103.405 144.194 103.843C144.123 104.42 143.827 104.946 143.369 105.304C142.912 105.662 142.331 105.824 141.754 105.754Z" clip-rule="evenodd"/><path fill="#F96132" fill-rule="evenodd" d="M140.472 129.729C140.033 129.68 139.62 129.501 139.283 129.215C138.947 128.929 138.703 128.55 138.583 128.125C138.463 127.699 138.473 127.248 138.61 126.829C138.748 126.409 139.007 126.04 139.356 125.768C139.704 125.497 140.125 125.336 140.565 125.305C141.005 125.274 141.445 125.375 141.827 125.595C142.21 125.816 142.518 126.145 142.713 126.541C142.907 126.938 142.979 127.383 142.92 127.821C142.885 128.107 142.793 128.384 142.651 128.635C142.509 128.886 142.319 129.106 142.092 129.284C141.864 129.461 141.604 129.592 141.326 129.668C141.048 129.745 140.758 129.765 140.472 129.729Z" clip-rule="evenodd"/><path fill="#F7A501" fill-rule="evenodd" d="M140.249 153.174C139.81 153.127 139.395 152.949 139.057 152.664C138.719 152.379 138.474 152 138.353 151.575C138.232 151.15 138.24 150.698 138.377 150.278C138.513 149.858 138.772 149.488 139.12 149.215C139.468 148.943 139.889 148.78 140.329 148.749C140.77 148.717 141.21 148.818 141.593 149.038C141.976 149.258 142.285 149.587 142.48 149.983C142.675 150.38 142.747 150.826 142.688 151.264C142.618 151.841 142.321 152.366 141.864 152.724C141.406 153.083 140.825 153.244 140.249 153.174Z" clip-rule="evenodd"/><path fill="#F7A501" fill-rule="evenodd" d="M139.651 176.728C139.212 176.681 138.796 176.505 138.457 176.22C138.119 175.936 137.873 175.557 137.751 175.132C137.629 174.707 137.636 174.255 137.772 173.834C137.908 173.414 138.166 173.043 138.514 172.77C138.862 172.497 139.283 172.334 139.724 172.302C140.164 172.27 140.605 172.37 140.988 172.59C141.372 172.81 141.681 173.139 141.876 173.536C142.071 173.933 142.144 174.379 142.084 174.817C142.014 175.393 141.719 175.918 141.263 176.276C140.806 176.634 140.227 176.797 139.651 176.728Z" clip-rule="evenodd"/><path fill="#F96132" fill-rule="evenodd" d="M139.421 199.558C138.982 199.511 138.567 199.334 138.229 199.049C137.891 198.764 137.646 198.385 137.524 197.96C137.403 197.535 137.411 197.083 137.547 196.663C137.683 196.242 137.942 195.872 138.29 195.599C138.638 195.327 139.059 195.164 139.499 195.133C139.94 195.101 140.38 195.201 140.763 195.421C141.146 195.641 141.455 195.97 141.65 196.367C141.846 196.764 141.918 197.209 141.859 197.648C141.788 198.224 141.492 198.749 141.035 199.107C140.578 199.466 139.998 199.628 139.421 199.558Z" clip-rule="evenodd"/><path fill="#F96132" fill-rule="evenodd" d="M146.065 105.053C146.2 104.569 146.522 104.158 146.959 103.911C147.396 103.664 147.914 103.6 148.398 103.734L167.908 109.169C168.392 109.301 168.804 109.62 169.053 110.056C169.302 110.492 169.368 111.009 169.236 111.494C169.17 111.734 169.057 111.958 168.904 112.155C168.75 112.351 168.56 112.515 168.343 112.638C168.127 112.761 167.888 112.84 167.641 112.87C167.394 112.9 167.143 112.881 166.903 112.815L147.396 107.38C146.911 107.248 146.499 106.929 146.249 106.492C146 106.056 145.933 105.538 146.065 105.053Z" clip-rule="evenodd"/><path fill="#3541D1" fill-rule="evenodd" d="M144.781 129.035C144.916 128.551 145.237 128.14 145.675 127.893C146.112 127.646 146.63 127.582 147.114 127.716L166.623 133.137C166.863 133.203 167.087 133.317 167.283 133.47C167.479 133.623 167.643 133.814 167.766 134.031C167.888 134.248 167.966 134.486 167.997 134.734C168.027 134.981 168.008 135.232 167.941 135.472C167.875 135.712 167.762 135.936 167.609 136.133C167.455 136.329 167.265 136.493 167.048 136.615C166.831 136.738 166.593 136.816 166.346 136.847C166.099 136.877 165.848 136.858 165.608 136.79L146.101 131.366C145.617 131.231 145.207 130.911 144.96 130.474C144.712 130.037 144.648 129.52 144.781 129.035Z" clip-rule="evenodd"/><path fill="#F7A501" fill-rule="evenodd" d="M144.559 152.478C144.694 151.995 145.015 151.585 145.452 151.338C145.888 151.09 146.405 151.026 146.888 151.159L166.398 156.594C166.638 156.661 166.862 156.774 167.058 156.927C167.254 157.081 167.418 157.271 167.54 157.488C167.662 157.705 167.741 157.944 167.771 158.191C167.801 158.438 167.782 158.689 167.716 158.929C167.581 159.413 167.259 159.824 166.822 160.071C166.384 160.319 165.867 160.382 165.383 160.248L145.873 154.813C145.39 154.677 144.98 154.355 144.734 153.917C144.488 153.48 144.425 152.962 144.559 152.478Z" clip-rule="evenodd"/><path fill="#F96132" fill-rule="evenodd" d="M143.964 176.032C144.099 175.547 144.421 175.137 144.858 174.889C145.295 174.642 145.813 174.578 146.297 174.713L165.807 180.147C166.287 180.283 166.694 180.603 166.941 181.037C167.187 181.472 167.252 181.985 167.122 182.468C166.987 182.952 166.665 183.362 166.228 183.609C165.791 183.857 165.274 183.92 164.79 183.787L145.28 178.352C144.799 178.217 144.392 177.897 144.145 177.463C143.899 177.028 143.834 176.514 143.964 176.032Z" clip-rule="evenodd"/><path fill="#3541D1" fill-rule="evenodd" d="M143.732 198.862C143.867 198.378 144.188 197.967 144.625 197.72C145.062 197.472 145.579 197.409 146.063 197.543L165.573 202.978C165.812 203.044 166.037 203.158 166.233 203.311C166.429 203.465 166.593 203.655 166.715 203.872C166.837 204.089 166.916 204.328 166.946 204.575C166.976 204.822 166.957 205.073 166.891 205.313C166.824 205.553 166.711 205.777 166.557 205.973C166.404 206.169 166.214 206.333 165.997 206.456C165.78 206.578 165.542 206.657 165.295 206.687C165.048 206.717 164.797 206.698 164.558 206.632L145.05 201.197C144.81 201.13 144.586 201.017 144.39 200.864C144.193 200.711 144.029 200.52 143.907 200.303C143.785 200.086 143.706 199.847 143.676 199.6C143.646 199.353 143.665 199.102 143.732 198.862Z" clip-rule="evenodd"/></g><defs><clipPath id="clip0"><rect width="94.444" height="170" fill="#fff" transform="translate(41 32)"/></clipPath><clipPath id="clip1"><rect width="94.444" height="170" fill="#fff" transform="translate(121 54)"/></clipPath></defs></svg>