<svg xmlns="http://www.w3.org/2000/svg" width="257" height="253" fill="none" viewBox="0 0 257 253"><path fill="#35416B" fill-rule="evenodd" d="M8.68053 0.435913H247.54C249.661 0.43795 251.694 1.28181 253.192 2.78207C254.691 4.28234 255.533 6.31626 255.533 8.43693V244.509C255.533 246.629 254.691 248.663 253.192 250.162C251.693 251.661 249.66 252.503 247.54 252.503H8.68053C6.55995 252.503 4.52614 251.661 3.02594 250.162C1.52575 248.663 0.681969 246.63 0.679932 244.509V8.43693C0.679932 6.31493 1.5228 4.27984 3.02322 2.77936C4.52364 1.27888 6.55862 0.435913 8.68053 0.435913Z" clip-rule="evenodd"/><path fill="#F96132" d="M253.512 250.162C255.011 248.663 255.853 246.629 255.853 244.51V126.473H1V244.51C1.00204 246.63 1.84581 248.663 3.34601 250.162C4.84621 251.661 6.88002 252.503 9.0006 252.503H247.86C249.98 252.503 252.013 251.661 253.512 250.162Z"/><g clip-path="url(#clip0)"><path fill="#596590" fill-rule="evenodd" d="M1.0647 40.4904L59.0234 57.4741V183.937L1.0647 166.954V40.4904Z" clip-rule="evenodd"/><path fill="#35416B" fill-rule="evenodd" d="M58.9648 57.4991L95.3483 27.4761V153.879L58.9648 183.904V57.4991Z" clip-rule="evenodd"/><path fill="#A1AEDA" fill-rule="evenodd" d="M1.11328 40.522L58.9968 57.535L95.3802 27.5203L40.0072 14.0651L1.11328 40.522Z" clip-rule="evenodd"/><path fill-rule="evenodd" stroke="#fff" stroke-linecap="round" stroke-linejoin="round" stroke-width="1.079" d="M66.6321 91.4247L90.1936 73.2098C90.8599 72.6956 91.3966 72.959 91.3966 73.7993V89.1212C91.3711 89.5898 91.2514 90.0485 91.0447 90.4698C90.838 90.8911 90.5485 91.2663 90.1936 91.5731L66.6321 109.788C65.9679 110.302 65.4291 110.039 65.4291 109.199V93.8787C65.4548 93.4098 65.5746 92.9509 65.7812 92.5293C65.9879 92.1077 66.2773 91.732 66.6321 91.4247V91.4247Z" clip-rule="evenodd"/><path fill="#F96132" fill-rule="evenodd" d="M67.6452 92.9277L69.339 91.5815C69.5479 91.4206 69.7066 91.5 69.7066 91.7592V104.842C69.6985 104.987 69.6619 105.129 69.5988 105.26C69.5357 105.39 69.4474 105.507 69.339 105.603L67.6452 106.952C67.4363 107.112 67.2797 107.033 67.2797 106.774V93.6781C67.298 93.3896 67.4293 93.1199 67.6452 92.9277Z" clip-rule="evenodd"/><path fill="#fff" fill-rule="evenodd" d="M71.4547 96.1989L73.1486 94.8528C73.3574 94.6918 73.5162 94.7713 73.5183 95.0305L73.5601 102.029C73.5528 102.174 73.5167 102.315 73.454 102.446C73.3912 102.577 73.303 102.694 73.1945 102.79L71.5007 104.136C71.2918 104.299 71.1331 104.219 71.131 103.96L71.0892 96.9598C71.0969 96.8151 71.1332 96.6734 71.196 96.5428C71.2587 96.4122 71.3466 96.2953 71.4547 96.1989Z" clip-rule="evenodd"/><path fill="#F7A501" fill-rule="evenodd" d="M75.3019 90.6785L76.9999 89.3281C77.2088 89.1672 77.3655 89.5037 77.3655 89.5037L77.5263 98.816C77.5184 98.9596 77.4823 99.1002 77.4199 99.2297C77.3576 99.3592 77.2702 99.4751 77.1628 99.5706L75.4627 100.921C75.2539 101.082 75.0993 101.002 75.0993 100.745L74.9364 91.4331C74.9364 91.176 75.3019 90.6785 75.3019 90.6785Z" clip-rule="evenodd"/><path fill="#F96132" fill-rule="evenodd" d="M79.1575 90.9104L80.8514 89.5643C81.0602 89.4033 81.2189 89.7419 81.2189 89.7419L81.2628 95.5613C81.2549 95.7057 81.2186 95.8471 81.1558 95.9773C81.0931 96.1075 81.0052 96.224 80.8973 96.3201L79.2034 97.6684C78.9946 97.8293 78.8358 97.7499 78.8358 97.4907L78.792 91.6713C78.792 91.4121 79.1575 90.9104 79.1575 90.9104Z" clip-rule="evenodd"/><path fill="#0316F0" fill-rule="evenodd" d="M83.1009 84.3699L84.7947 83.0237C85.0036 82.8628 85.1602 83.2014 85.1602 83.2014L85.2041 92.6788C85.196 92.8237 85.1593 92.9654 85.0963 93.096C85.0332 93.2266 84.9449 93.3434 84.8365 93.4397L83.1426 94.7859C82.9338 94.9468 82.7771 94.8674 82.7771 94.6082L82.7333 85.1308C82.7333 84.8716 83.1009 84.3699 83.1009 84.3699Z" clip-rule="evenodd"/><path fill="#fff" fill-rule="evenodd" d="M87.1464 77.7793L88.8402 76.4331C89.0491 76.2722 89.2078 76.3516 89.2078 76.6108V89.7107C89.1997 89.8555 89.1631 89.9973 89.1 90.1279C89.0369 90.2585 88.9486 90.3753 88.8402 90.4716L87.1464 91.8177C86.9375 91.9787 86.7809 91.8992 86.7809 91.64V78.5401C86.7886 78.3954 86.8249 78.2537 86.8876 78.1231C86.9503 77.9925 87.0383 77.8757 87.1464 77.7793Z" clip-rule="evenodd"/><path fill="#fff" fill-rule="evenodd" d="M10.4133 50.6868L49.5057 61.4498C50.0516 61.6236 50.5309 61.9613 50.8785 62.4172C51.226 62.8731 51.4249 63.425 51.4481 63.9979V79.3135C51.4481 80.4276 50.5771 81.0903 49.5057 80.7934L10.4133 70.0305C9.86758 69.8566 9.38856 69.5188 9.04141 69.0629C8.69425 68.607 8.4958 68.0551 8.47302 67.4824V52.1668C8.47302 51.0526 9.34396 50.39 10.4133 50.6868Z" clip-rule="evenodd"/><path fill="#fff" fill-rule="evenodd" d="M10.2253 75.1015L49.3177 85.8645C49.8638 86.0386 50.3432 86.3768 50.6907 86.833C51.0382 87.2892 51.237 87.8414 51.2601 88.4146V103.73C51.2601 104.842 50.3912 105.505 49.3177 105.21L10.2253 94.4473C9.67943 94.273 9.20036 93.9348 8.85322 93.4785C8.50607 93.0223 8.30769 92.4701 8.28503 91.8971V76.5815C8.28503 75.4694 9.15389 74.8068 10.2253 75.1015Z" clip-rule="evenodd"/><path fill="#fff" fill-rule="evenodd" d="M9.84936 98.5715L48.9438 109.343C49.4895 109.517 49.9686 109.855 50.3157 110.31C50.6629 110.766 50.8613 111.318 50.8841 111.891V127.209C50.8841 128.323 50.0152 128.983 48.9438 128.689L9.84936 117.924C9.30362 117.75 8.82461 117.412 8.47746 116.956C8.1303 116.5 7.93184 115.948 7.90906 115.375V100.06C7.90906 98.9457 8.77791 98.283 9.84936 98.5715Z" clip-rule="evenodd"/><path fill="#fff" fill-rule="evenodd" d="M10.0373 122.244L49.1296 133.007C49.6759 133.18 50.1555 133.518 50.5031 133.974C50.8507 134.43 51.0494 134.982 51.072 135.555V150.871C51.072 151.985 50.2032 152.648 49.1296 152.351L10.0373 141.588C9.49036 141.415 9.00999 141.078 8.66165 140.622C8.3133 140.166 8.11393 139.613 8.0907 139.04V123.724C8.0907 122.61 8.96582 121.949 10.0373 122.244Z" clip-rule="evenodd"/><path fill="#fff" fill-rule="evenodd" d="M9.84936 144.976L48.9438 155.733C49.4895 155.907 49.9686 156.244 50.3157 156.7C50.6629 157.156 50.8613 157.708 50.8841 158.281V173.596C50.8841 174.711 50.0152 175.373 48.9438 175.078L9.84936 164.313C9.30362 164.14 8.82461 163.802 8.47746 163.346C8.1303 162.89 7.93184 162.338 7.90906 161.765V146.45C7.90906 145.336 8.77791 144.673 9.84936 144.976Z" clip-rule="evenodd"/><path fill="#F96132" fill-rule="evenodd" d="M14.8851 63.9728C14.446 63.9251 14.0311 63.7475 13.6935 63.4626C13.3558 63.1777 13.1107 62.7985 12.9895 62.3735C12.8683 61.9484 12.8766 61.4969 13.0131 61.0766C13.1497 60.6562 13.4084 60.2862 13.7562 60.0139C14.104 59.7415 14.5251 59.5791 14.9656 59.5474C15.4061 59.5158 15.846 59.6164 16.2291 59.8363C16.6122 60.0562 16.9211 60.3855 17.1162 60.782C17.3113 61.1785 17.3839 61.6242 17.3245 62.0622C17.254 62.6393 16.9575 63.1647 16.5 63.523C16.0425 63.8812 15.4617 64.043 14.8851 63.9728Z" clip-rule="evenodd"/><path fill="#F7A501" fill-rule="evenodd" d="M13.6006 87.9526C13.1615 87.9049 12.7465 87.7271 12.4089 87.4421C12.0712 87.1571 11.8262 86.7778 11.7051 86.3526C11.5841 85.9275 11.5925 85.4759 11.7292 85.0555C11.866 84.6352 12.125 84.2652 12.473 83.993C12.821 83.7207 13.2422 83.5586 13.6828 83.5272C14.1234 83.4959 14.5634 83.5967 14.9464 83.817C15.3294 84.0372 15.638 84.3668 15.8328 84.7635C16.0277 85.1603 16.0998 85.6061 16.0401 86.0442C16.0052 86.3298 15.9144 86.6058 15.7729 86.8563C15.6314 87.1068 15.442 87.327 15.2154 87.5042C14.9889 87.6814 14.7297 87.8123 14.4526 87.8892C14.1755 87.9661 13.886 87.9877 13.6006 87.9526Z" clip-rule="evenodd"/><path fill="#3541D1" fill-rule="evenodd" d="M13.3791 111.397C12.94 111.35 12.5251 111.172 12.1875 110.887C11.8498 110.602 11.6047 110.223 11.4835 109.798C11.3624 109.373 11.3706 108.922 11.5072 108.501C11.6437 108.081 11.9025 107.711 12.2503 107.439C12.5981 107.166 13.0191 107.004 13.4596 106.972C13.9001 106.941 14.3401 107.041 14.7232 107.261C15.1062 107.481 15.4151 107.81 15.6102 108.207C15.8054 108.603 15.8779 109.049 15.8186 109.487C15.7839 109.773 15.6933 110.049 15.5519 110.3C15.4105 110.55 15.2211 110.771 14.9946 110.948C14.768 111.126 14.5087 111.257 14.2315 111.334C13.9543 111.411 13.6646 111.433 13.3791 111.397Z" clip-rule="evenodd"/><path fill="#F96132" fill-rule="evenodd" d="M12.7818 134.943C12.3426 134.895 11.9274 134.718 11.5895 134.433C11.2515 134.149 11.0061 133.77 10.8846 133.345C10.7631 132.92 10.771 132.468 10.9074 132.047C11.0438 131.627 11.3024 131.257 11.6502 130.984C11.9979 130.712 12.419 130.549 12.8596 130.517C13.3002 130.485 13.7403 130.586 14.1235 130.806C14.5067 131.026 14.8156 131.355 15.0108 131.752C15.206 132.148 15.2785 132.594 15.2192 133.032C15.1486 133.609 14.8524 134.134 14.3954 134.492C13.9384 134.85 13.3581 135.012 12.7818 134.943Z" clip-rule="evenodd"/><path fill="#F7A501" fill-rule="evenodd" d="M12.5499 157.781C12.1104 157.735 11.6948 157.558 11.3562 157.274C11.0177 156.99 10.7716 156.611 10.6494 156.186C10.5273 155.761 10.5347 155.309 10.6707 154.888C10.8067 154.467 11.0651 154.096 11.4128 153.823C11.7605 153.55 12.1816 153.387 12.6224 153.355C13.0632 153.323 13.5035 153.424 13.8869 153.644C14.2704 153.864 14.5795 154.193 14.7748 154.59C14.9701 154.986 15.0426 155.432 14.9831 155.871C14.9126 156.447 14.6169 156.971 14.1609 157.329C13.7048 157.687 13.1255 157.85 12.5499 157.781Z" clip-rule="evenodd"/><path fill="#3541D1" fill-rule="evenodd" d="M21.7544 65.7538C21.3154 65.7061 20.9005 65.5285 20.5628 65.2436C20.2252 64.9587 19.9801 64.5795 19.8589 64.1545C19.7377 63.7294 19.7459 63.2779 19.8825 62.8576C20.0191 62.4373 20.2778 62.0672 20.6256 61.7949C20.9734 61.5225 21.3945 61.3601 21.835 61.3285C22.2755 61.2968 22.7154 61.3974 23.0985 61.6173C23.4816 61.8372 23.7904 62.1665 23.9856 62.563C24.1807 62.9595 24.2532 63.4053 24.1939 63.8432C24.1234 64.4203 23.8268 64.9457 23.3694 65.304C22.9119 65.6622 22.331 65.824 21.7544 65.7538Z" clip-rule="evenodd"/><path fill="#F96132" fill-rule="evenodd" d="M20.472 89.7294C20.0334 89.6801 19.6195 89.5011 19.2831 89.2152C18.9466 88.9294 18.703 88.5497 18.5831 88.1246C18.4633 87.6995 18.4728 87.2483 18.6104 86.8286C18.748 86.409 19.0074 86.0399 19.3555 85.7684C19.7037 85.497 20.1248 85.3356 20.565 85.3047C21.0052 85.2739 21.4447 85.3751 21.8272 85.5954C22.2097 85.8156 22.518 86.145 22.7126 86.5414C22.9072 86.9378 22.9794 87.3833 22.9198 87.821C22.8847 88.1073 22.7935 88.3839 22.6514 88.6349C22.5093 88.8858 22.319 89.1063 22.0917 89.2836C21.8643 89.4609 21.6041 89.5915 21.3262 89.668C21.0483 89.7445 20.758 89.7654 20.472 89.7294Z" clip-rule="evenodd"/><path fill="#F7A501" fill-rule="evenodd" d="M20.2486 113.174C19.8095 113.127 19.3946 112.949 19.057 112.664C18.7193 112.379 18.4742 112 18.353 111.575C18.2319 111.15 18.2401 110.698 18.3767 110.278C18.5132 109.858 18.772 109.488 19.1198 109.215C19.4676 108.943 19.8886 108.78 20.3291 108.749C20.7697 108.717 21.2096 108.818 21.5927 109.038C21.9758 109.258 22.2846 109.587 22.4797 109.983C22.6749 110.38 22.7474 110.826 22.6881 111.264C22.6176 111.841 22.321 112.366 21.8635 112.724C21.4061 113.083 20.8252 113.244 20.2486 113.174Z" clip-rule="evenodd"/><path fill="#F7A501" fill-rule="evenodd" d="M19.6511 136.728C19.2116 136.681 18.796 136.505 18.4574 136.22C18.1189 135.936 17.8728 135.557 17.7506 135.132C17.6285 134.707 17.6359 134.255 17.7719 133.834C17.9079 133.414 18.1663 133.043 18.514 132.77C18.8616 132.497 19.2828 132.334 19.7236 132.302C20.1644 132.27 20.6047 132.37 20.9881 132.59C21.3715 132.81 21.6807 133.139 21.876 133.536C22.0713 133.933 22.1438 134.379 22.0843 134.817C22.0143 135.393 21.7188 135.918 21.2626 136.276C20.8064 136.634 20.2268 136.797 19.6511 136.728Z" clip-rule="evenodd"/><path fill="#F96132" fill-rule="evenodd" d="M19.4214 159.558C18.9822 159.511 18.5671 159.334 18.2291 159.049C17.8912 158.764 17.6457 158.385 17.5242 157.96C17.4027 157.535 17.4107 157.083 17.5471 156.663C17.6834 156.242 17.942 155.872 18.2898 155.599C18.6376 155.327 19.0587 155.164 19.4993 155.133C19.9399 155.101 20.3799 155.201 20.7631 155.421C21.1463 155.641 21.4553 155.97 21.6505 156.367C21.8457 156.764 21.9182 157.209 21.8588 157.648C21.7883 158.224 21.492 158.749 21.035 159.107C20.578 159.466 19.9977 159.628 19.4214 159.558Z" clip-rule="evenodd"/><path fill="#F96132" fill-rule="evenodd" d="M26.0652 65.0534C26.2002 64.5691 26.5217 64.1583 26.9591 63.911C27.3965 63.6637 27.914 63.6002 28.3982 63.7344L47.9078 69.1692C48.3919 69.3012 48.8037 69.6203 49.0528 70.0561C49.3019 70.492 49.3679 71.0091 49.2361 71.4936C49.1697 71.7337 49.0567 71.9584 48.9035 72.1548C48.7503 72.3512 48.5599 72.5154 48.3432 72.6381C48.1266 72.7608 47.8879 72.8395 47.6408 72.8698C47.3937 72.9001 47.143 72.8814 46.9032 72.8147L27.3956 67.3799C26.911 67.2479 26.4986 66.9286 26.2491 66.4923C25.9997 66.0561 25.9335 65.5385 26.0652 65.0534Z" clip-rule="evenodd"/><path fill="#3541D1" fill-rule="evenodd" d="M24.7808 89.0355C24.9158 88.5512 25.2373 88.1403 25.6747 87.893C26.112 87.6458 26.6296 87.5823 27.1137 87.7165L46.6233 93.1366C46.8631 93.2033 47.0874 93.3166 47.2833 93.47C47.4793 93.6234 47.6432 93.814 47.7656 94.0308C47.888 94.2477 47.9665 94.4865 47.9966 94.7337C48.0268 94.9809 48.0079 95.2316 47.9413 95.4715C47.8749 95.7116 47.7618 95.9362 47.6086 96.1325C47.4554 96.3288 47.2649 96.4929 47.0482 96.6154C46.8315 96.738 46.5928 96.8165 46.3457 96.8465C46.0986 96.8766 45.848 96.8575 45.6083 96.7905L26.1007 91.3661C25.6174 91.2314 25.2071 90.9105 24.9597 90.4737C24.7123 90.0368 24.648 89.5197 24.7808 89.0355Z" clip-rule="evenodd"/><path fill="#F7A501" fill-rule="evenodd" d="M24.5594 112.478C24.6944 111.995 25.0153 111.585 25.4517 111.338C25.8881 111.09 26.4046 111.026 26.8882 111.159L46.3978 116.594C46.6375 116.661 46.8618 116.774 47.0578 116.927C47.2538 117.081 47.4176 117.271 47.54 117.488C47.6624 117.705 47.7409 117.944 47.7711 118.191C47.8012 118.438 47.7824 118.689 47.7157 118.929C47.5807 119.413 47.2592 119.824 46.8218 120.071C46.3844 120.319 45.8668 120.382 45.3827 120.248L25.8731 114.813C25.39 114.677 24.9805 114.355 24.7342 113.917C24.488 113.48 24.4251 112.962 24.5594 112.478Z" clip-rule="evenodd"/><path fill="#F96132" fill-rule="evenodd" d="M23.9641 136.032C24.0991 135.547 24.4206 135.137 24.858 134.889C25.2954 134.642 25.8129 134.578 26.297 134.713L45.8067 140.147C46.2869 140.283 46.6943 140.603 46.9406 141.037C47.1869 141.472 47.2523 141.985 47.1225 142.468C46.987 142.952 46.6654 143.362 46.2281 143.609C45.7909 143.857 45.2736 143.92 44.7895 143.787L25.2799 138.352C24.7993 138.217 24.3916 137.897 24.1452 137.463C23.8988 137.028 23.8337 136.514 23.9641 136.032Z" clip-rule="evenodd"/><path fill="#3541D1" fill-rule="evenodd" d="M23.7322 158.862C23.8667 158.378 24.1878 157.967 24.6249 157.72C25.0619 157.472 25.5792 157.409 26.063 157.543L45.5727 162.978C45.8124 163.044 46.0367 163.158 46.2326 163.311C46.4286 163.465 46.5925 163.655 46.7149 163.872C46.8373 164.089 46.9158 164.328 46.9459 164.575C46.9761 164.822 46.9573 165.073 46.8906 165.313C46.8239 165.553 46.7108 165.777 46.5574 165.973C46.4041 166.169 46.2137 166.333 45.9971 166.456C45.7804 166.578 45.5418 166.657 45.2948 166.687C45.0478 166.717 44.7973 166.698 44.5576 166.632L25.0501 161.197C24.8102 161.13 24.5857 161.017 24.3896 160.864C24.1935 160.711 24.0295 160.52 23.9071 160.303C23.7847 160.086 23.7062 159.847 23.6762 159.6C23.6461 159.353 23.6652 159.102 23.7322 158.862Z" clip-rule="evenodd"/></g><g clip-path="url(#clip1)"><path fill="#596590" fill-rule="evenodd" d="M77.0647 67.4904L135.023 84.4741V210.937L77.0647 193.954V67.4904Z" clip-rule="evenodd"/><path fill="#35416B" fill-rule="evenodd" d="M134.965 84.4991L171.348 54.4761V180.879L134.965 210.904V84.4991Z" clip-rule="evenodd"/><path fill="#A1AEDA" fill-rule="evenodd" d="M77.1133 67.522L134.997 84.535L171.38 54.5203L116.007 41.0651L77.1133 67.522Z" clip-rule="evenodd"/><path fill-rule="evenodd" stroke="#fff" stroke-linecap="round" stroke-linejoin="round" stroke-width="1.079" d="M142.632 118.425L166.194 100.21C166.86 99.6956 167.397 99.959 167.397 100.799V116.121C167.371 116.59 167.251 117.049 167.045 117.47C166.838 117.891 166.549 118.266 166.194 118.573L142.632 136.788C141.968 137.302 141.429 137.039 141.429 136.199V120.879C141.455 120.41 141.575 119.951 141.781 119.529C141.988 119.108 142.277 118.732 142.632 118.425V118.425Z" clip-rule="evenodd"/><path fill="#F96132" fill-rule="evenodd" d="M143.645 119.928L145.339 118.582C145.548 118.421 145.707 118.5 145.707 118.759V131.842C145.699 131.987 145.662 132.129 145.599 132.26C145.536 132.39 145.447 132.507 145.339 132.603L143.645 133.952C143.436 134.112 143.28 134.033 143.28 133.774V120.678C143.298 120.39 143.429 120.12 143.645 119.928Z" clip-rule="evenodd"/><path fill="#fff" fill-rule="evenodd" d="M147.455 123.199L149.149 121.853C149.357 121.692 149.516 121.771 149.518 122.03L149.56 129.029C149.553 129.174 149.517 129.315 149.454 129.446C149.391 129.577 149.303 129.694 149.195 129.79L147.501 131.136C147.292 131.299 147.133 131.219 147.131 130.96L147.089 123.96C147.097 123.815 147.133 123.673 147.196 123.543C147.259 123.412 147.347 123.295 147.455 123.199Z" clip-rule="evenodd"/><path fill="#F7A501" fill-rule="evenodd" d="M151.302 117.678L153 116.328C153.209 116.167 153.365 116.504 153.365 116.504L153.526 125.816C153.518 125.96 153.482 126.1 153.42 126.23C153.358 126.359 153.27 126.475 153.163 126.571L151.463 127.921C151.254 128.082 151.099 128.002 151.099 127.745L150.936 118.433C150.936 118.176 151.302 117.678 151.302 117.678Z" clip-rule="evenodd"/><path fill="#F96132" fill-rule="evenodd" d="M155.157 117.91L156.851 116.564C157.06 116.403 157.219 116.742 157.219 116.742L157.263 122.561C157.255 122.706 157.219 122.847 157.156 122.977C157.093 123.108 157.005 123.224 156.897 123.32L155.203 124.668C154.995 124.829 154.836 124.75 154.836 124.491L154.792 118.671C154.792 118.412 155.157 117.91 155.157 117.91Z" clip-rule="evenodd"/><path fill="#0316F0" fill-rule="evenodd" d="M159.101 111.37L160.795 110.024C161.004 109.863 161.16 110.201 161.16 110.201L161.204 119.679C161.196 119.824 161.159 119.965 161.096 120.096C161.033 120.227 160.945 120.343 160.836 120.44L159.143 121.786C158.934 121.947 158.777 121.867 158.777 121.608L158.733 112.131C158.733 111.872 159.101 111.37 159.101 111.37Z" clip-rule="evenodd"/><path fill="#fff" fill-rule="evenodd" d="M163.146 104.779L164.84 103.433C165.049 103.272 165.208 103.352 165.208 103.611V116.711C165.2 116.856 165.163 116.997 165.1 117.128C165.037 117.258 164.949 117.375 164.84 117.472L163.146 118.818C162.938 118.979 162.781 118.899 162.781 118.64V105.54C162.789 105.395 162.825 105.254 162.888 105.123C162.95 104.993 163.038 104.876 163.146 104.779Z" clip-rule="evenodd"/><path fill="#fff" fill-rule="evenodd" d="M86.4133 77.6868L125.506 88.4498C126.052 88.6236 126.531 88.9613 126.878 89.4172C127.226 89.8731 127.425 90.425 127.448 90.9979V106.314C127.448 107.428 126.577 108.09 125.506 107.793L86.4133 97.0305C85.8676 96.8566 85.3886 96.5188 85.0414 96.0629C84.6943 95.607 84.4958 95.0551 84.473 94.4824V79.1668C84.473 78.0526 85.344 77.39 86.4133 77.6868Z" clip-rule="evenodd"/><path fill="#fff" fill-rule="evenodd" d="M86.2253 102.102L125.318 112.864C125.864 113.039 126.343 113.377 126.691 113.833C127.038 114.289 127.237 114.841 127.26 115.415V130.73C127.26 131.842 126.391 132.505 125.318 132.21L86.2253 121.447C85.6794 121.273 85.2004 120.935 84.8532 120.479C84.5061 120.022 84.3077 119.47 84.285 118.897V103.581C84.285 102.469 85.1539 101.807 86.2253 102.102Z" clip-rule="evenodd"/><path fill="#fff" fill-rule="evenodd" d="M85.8494 125.572L124.944 136.343C125.49 136.517 125.969 136.855 126.316 137.31C126.663 137.766 126.861 138.318 126.884 138.891V154.209C126.884 155.323 126.015 155.983 124.944 155.689L85.8494 144.924C85.3036 144.75 84.8246 144.412 84.4775 143.956C84.1303 143.5 83.9318 142.948 83.9091 142.375V127.06C83.9091 125.946 84.7779 125.283 85.8494 125.572Z" clip-rule="evenodd"/><path fill="#fff" fill-rule="evenodd" d="M86.0373 149.244L125.13 160.007C125.676 160.18 126.156 160.518 126.503 160.974C126.851 161.43 127.049 161.982 127.072 162.555V177.871C127.072 178.985 126.203 179.648 125.13 179.351L86.0373 168.588C85.4904 168.415 85.01 168.078 84.6616 167.622C84.3133 167.166 84.1139 166.613 84.0907 166.04V150.724C84.0907 149.61 84.9658 148.949 86.0373 149.244Z" clip-rule="evenodd"/><path fill="#fff" fill-rule="evenodd" d="M85.8494 171.976L124.944 182.733C125.49 182.907 125.969 183.244 126.316 183.7C126.663 184.156 126.861 184.708 126.884 185.281V200.596C126.884 201.711 126.015 202.373 124.944 202.078L85.8494 191.313C85.3036 191.14 84.8246 190.802 84.4775 190.346C84.1303 189.89 83.9318 189.338 83.9091 188.765V173.45C83.9091 172.336 84.7779 171.673 85.8494 171.976Z" clip-rule="evenodd"/><path fill="#F96132" fill-rule="evenodd" d="M90.8851 90.9728C90.446 90.9251 90.0311 90.7475 89.6935 90.4626C89.3558 90.1777 89.1107 89.7985 88.9895 89.3735C88.8683 88.9484 88.8766 88.4969 89.0131 88.0766C89.1497 87.6562 89.4084 87.2862 89.7562 87.0139C90.104 86.7415 90.5251 86.5791 90.9656 86.5474C91.4061 86.5158 91.846 86.6164 92.2291 86.8363C92.6122 87.0562 92.9211 87.3855 93.1162 87.782C93.3113 88.1785 93.3839 88.6242 93.3245 89.0622C93.254 89.6393 92.9575 90.1647 92.5 90.523C92.0425 90.8812 91.4617 91.043 90.8851 90.9728Z" clip-rule="evenodd"/><path fill="#F7A501" fill-rule="evenodd" d="M89.6006 114.953C89.1615 114.905 88.7465 114.727 88.4089 114.442C88.0712 114.157 87.8262 113.778 87.7051 113.353C87.5841 112.927 87.5925 112.476 87.7292 112.056C87.866 111.635 88.125 111.265 88.473 110.993C88.821 110.721 89.2422 110.559 89.6828 110.527C90.1234 110.496 90.5634 110.597 90.9464 110.817C91.3294 111.037 91.638 111.367 91.8328 111.764C92.0277 112.16 92.0998 112.606 92.0401 113.044C92.0052 113.33 91.9144 113.606 91.7729 113.856C91.6314 114.107 91.442 114.327 91.2154 114.504C90.9889 114.681 90.7297 114.812 90.4526 114.889C90.1755 114.966 89.886 114.988 89.6006 114.953Z" clip-rule="evenodd"/><path fill="#3541D1" fill-rule="evenodd" d="M89.3791 138.397C88.94 138.35 88.5251 138.172 88.1875 137.887C87.8498 137.602 87.6047 137.223 87.4835 136.798C87.3624 136.373 87.3706 135.922 87.5072 135.501C87.6437 135.081 87.9025 134.711 88.2503 134.439C88.5981 134.166 89.0191 134.004 89.4596 133.972C89.9001 133.941 90.3401 134.041 90.7232 134.261C91.1062 134.481 91.4151 134.81 91.6102 135.207C91.8054 135.603 91.8779 136.049 91.8186 136.487C91.7839 136.773 91.6933 137.049 91.5519 137.3C91.4105 137.55 91.2211 137.771 90.9946 137.948C90.768 138.126 90.5087 138.257 90.2315 138.334C89.9543 138.411 89.6646 138.433 89.3791 138.397Z" clip-rule="evenodd"/><path fill="#F96132" fill-rule="evenodd" d="M88.7818 161.943C88.3426 161.895 87.9274 161.718 87.5895 161.433C87.2515 161.149 87.0061 160.77 86.8846 160.345C86.7631 159.92 86.771 159.468 86.9074 159.047C87.0438 158.627 87.3024 158.257 87.6502 157.984C87.9979 157.712 88.419 157.549 88.8596 157.517C89.3002 157.485 89.7403 157.586 90.1235 157.806C90.5067 158.026 90.8156 158.355 91.0108 158.752C91.206 159.148 91.2785 159.594 91.2192 160.032C91.1486 160.609 90.8524 161.134 90.3954 161.492C89.9384 161.85 89.3581 162.012 88.7818 161.943Z" clip-rule="evenodd"/><path fill="#F7A501" fill-rule="evenodd" d="M88.5499 184.781C88.1104 184.735 87.6948 184.558 87.3562 184.274C87.0177 183.99 86.7716 183.611 86.6494 183.186C86.5273 182.761 86.5347 182.309 86.6707 181.888C86.8067 181.467 87.0651 181.096 87.4128 180.823C87.7605 180.55 88.1816 180.387 88.6224 180.355C89.0632 180.323 89.5035 180.424 89.8869 180.644C90.2704 180.864 90.5795 181.193 90.7748 181.59C90.9701 181.986 91.0426 182.432 90.9831 182.871C90.9126 183.447 90.6169 183.971 90.1609 184.329C89.7048 184.687 89.1255 184.85 88.5499 184.781Z" clip-rule="evenodd"/><path fill="#3541D1" fill-rule="evenodd" d="M97.7544 92.7538C97.3154 92.7061 96.9005 92.5285 96.5628 92.2436C96.2252 91.9587 95.9801 91.5795 95.8589 91.1545C95.7377 90.7294 95.7459 90.2779 95.8825 89.8576C96.0191 89.4373 96.2778 89.0672 96.6256 88.7949C96.9734 88.5225 97.3945 88.3601 97.835 88.3285C98.2755 88.2968 98.7154 88.3974 99.0985 88.6173C99.4816 88.8372 99.7904 89.1665 99.9856 89.563C100.181 89.9595 100.253 90.4053 100.194 90.8432C100.123 91.4203 99.8268 91.9457 99.3694 92.304C98.9119 92.6622 98.331 92.824 97.7544 92.7538Z" clip-rule="evenodd"/><path fill="#F96132" fill-rule="evenodd" d="M96.472 116.729C96.0334 116.68 95.6195 116.501 95.2831 116.215C94.9466 115.929 94.703 115.55 94.5831 115.125C94.4633 114.699 94.4728 114.248 94.6104 113.829C94.748 113.409 95.0074 113.04 95.3555 112.768C95.7037 112.497 96.1248 112.336 96.565 112.305C97.0052 112.274 97.4447 112.375 97.8272 112.595C98.2097 112.816 98.518 113.145 98.7126 113.541C98.9072 113.938 98.9794 114.383 98.9198 114.821C98.8847 115.107 98.7935 115.384 98.6514 115.635C98.5093 115.886 98.319 116.106 98.0917 116.284C97.8643 116.461 97.6041 116.592 97.3262 116.668C97.0483 116.745 96.758 116.765 96.472 116.729Z" clip-rule="evenodd"/><path fill="#F7A501" fill-rule="evenodd" d="M96.2486 140.174C95.8095 140.127 95.3946 139.949 95.057 139.664C94.7193 139.379 94.4742 139 94.353 138.575C94.2319 138.15 94.2401 137.698 94.3767 137.278C94.5132 136.858 94.772 136.488 95.1198 136.215C95.4676 135.943 95.8886 135.78 96.3291 135.749C96.7697 135.717 97.2096 135.818 97.5927 136.038C97.9758 136.258 98.2846 136.587 98.4797 136.983C98.6749 137.38 98.7474 137.826 98.6881 138.264C98.6176 138.841 98.321 139.366 97.8635 139.724C97.4061 140.083 96.8252 140.244 96.2486 140.174Z" clip-rule="evenodd"/><path fill="#F7A501" fill-rule="evenodd" d="M95.6511 163.728C95.2116 163.681 94.796 163.505 94.4574 163.22C94.1189 162.936 93.8728 162.557 93.7506 162.132C93.6285 161.707 93.6359 161.255 93.7719 160.834C93.9079 160.414 94.1663 160.043 94.514 159.77C94.8616 159.497 95.2828 159.334 95.7236 159.302C96.1644 159.27 96.6047 159.37 96.9881 159.59C97.3715 159.81 97.6807 160.139 97.876 160.536C98.0713 160.933 98.1438 161.379 98.0843 161.817C98.0143 162.393 97.7188 162.918 97.2626 163.276C96.8064 163.634 96.2268 163.797 95.6511 163.728Z" clip-rule="evenodd"/><path fill="#F96132" fill-rule="evenodd" d="M95.4214 186.558C94.9822 186.511 94.5671 186.334 94.2291 186.049C93.8912 185.764 93.6457 185.385 93.5242 184.96C93.4027 184.535 93.4107 184.083 93.5471 183.663C93.6834 183.242 93.942 182.872 94.2898 182.599C94.6376 182.327 95.0587 182.164 95.4993 182.133C95.9399 182.101 96.3799 182.201 96.7631 182.421C97.1463 182.641 97.4553 182.97 97.6505 183.367C97.8457 183.764 97.9182 184.209 97.8588 184.648C97.7883 185.224 97.492 185.749 97.035 186.107C96.578 186.466 95.9977 186.628 95.4214 186.558Z" clip-rule="evenodd"/><path fill="#F96132" fill-rule="evenodd" d="M102.065 92.0534C102.2 91.5691 102.522 91.1583 102.959 90.911C103.396 90.6637 103.914 90.6002 104.398 90.7344L123.908 96.1692C124.392 96.3012 124.804 96.6203 125.053 97.0561C125.302 97.492 125.368 98.0091 125.236 98.4936C125.17 98.7337 125.057 98.9584 124.904 99.1548C124.75 99.3512 124.56 99.5154 124.343 99.6381C124.127 99.7608 123.888 99.8395 123.641 99.8698C123.394 99.9001 123.143 99.8814 122.903 99.8147L103.396 94.3799C102.911 94.2479 102.499 93.9286 102.249 93.4923C102 93.0561 101.933 92.5385 102.065 92.0534Z" clip-rule="evenodd"/><path fill="#3541D1" fill-rule="evenodd" d="M100.781 116.035C100.916 115.551 101.237 115.14 101.675 114.893C102.112 114.646 102.63 114.582 103.114 114.716L122.623 120.137C122.863 120.203 123.087 120.317 123.283 120.47C123.479 120.623 123.643 120.814 123.766 121.031C123.888 121.248 123.966 121.486 123.997 121.734C124.027 121.981 124.008 122.232 123.941 122.472C123.875 122.712 123.762 122.936 123.609 123.133C123.455 123.329 123.265 123.493 123.048 123.615C122.831 123.738 122.593 123.816 122.346 123.847C122.099 123.877 121.848 123.858 121.608 123.79L102.101 118.366C101.617 118.231 101.207 117.911 100.96 117.474C100.712 117.037 100.648 116.52 100.781 116.035Z" clip-rule="evenodd"/><path fill="#F7A501" fill-rule="evenodd" d="M100.559 139.478C100.694 138.995 101.015 138.585 101.452 138.338C101.888 138.09 102.405 138.026 102.888 138.159L122.398 143.594C122.638 143.661 122.862 143.774 123.058 143.927C123.254 144.081 123.418 144.271 123.54 144.488C123.662 144.705 123.741 144.944 123.771 145.191C123.801 145.438 123.782 145.689 123.716 145.929C123.581 146.413 123.259 146.824 122.822 147.071C122.384 147.319 121.867 147.382 121.383 147.248L101.873 141.813C101.39 141.677 100.98 141.355 100.734 140.917C100.488 140.48 100.425 139.962 100.559 139.478Z" clip-rule="evenodd"/><path fill="#F96132" fill-rule="evenodd" d="M99.9641 163.032C100.099 162.547 100.421 162.137 100.858 161.889C101.295 161.642 101.813 161.578 102.297 161.713L121.807 167.147C122.287 167.283 122.694 167.603 122.941 168.037C123.187 168.472 123.252 168.985 123.122 169.468C122.987 169.952 122.665 170.362 122.228 170.609C121.791 170.857 121.274 170.92 120.79 170.787L101.28 165.352C100.799 165.217 100.392 164.897 100.145 164.463C99.8988 164.028 99.8337 163.514 99.9641 163.032Z" clip-rule="evenodd"/><path fill="#3541D1" fill-rule="evenodd" d="M99.7322 185.862C99.8667 185.378 100.188 184.967 100.625 184.72C101.062 184.472 101.579 184.409 102.063 184.543L121.573 189.978C121.812 190.044 122.037 190.158 122.233 190.311C122.429 190.465 122.593 190.655 122.715 190.872C122.837 191.089 122.916 191.328 122.946 191.575C122.976 191.822 122.957 192.073 122.891 192.313C122.824 192.553 122.711 192.777 122.557 192.973C122.404 193.169 122.214 193.333 121.997 193.456C121.78 193.578 121.542 193.657 121.295 193.687C121.048 193.717 120.797 193.698 120.558 193.632L101.05 188.197C100.81 188.13 100.586 188.017 100.39 187.864C100.193 187.711 100.029 187.52 99.9071 187.303C99.7847 187.086 99.7062 186.847 99.6762 186.6C99.6461 186.353 99.6652 186.102 99.7322 185.862Z" clip-rule="evenodd"/></g><g clip-path="url(#clip2)"><path fill="#596590" fill-rule="evenodd" d="M162.065 94.4904L220.023 111.474V237.937L162.065 220.954V94.4904Z" clip-rule="evenodd"/><path fill="#35416B" fill-rule="evenodd" d="M219.965 111.499L256.348 81.4761V207.879L219.965 237.904V111.499Z" clip-rule="evenodd"/><path fill="#A1AEDA" fill-rule="evenodd" d="M162.113 94.522L219.997 111.535L256.38 81.5203L201.007 68.0651L162.113 94.522Z" clip-rule="evenodd"/><path fill-rule="evenodd" stroke="#fff" stroke-linecap="round" stroke-linejoin="round" stroke-width="1.079" d="M227.632 145.425L251.194 127.21C251.86 126.696 252.397 126.959 252.397 127.799V143.121C252.371 143.59 252.251 144.049 252.045 144.47C251.838 144.891 251.549 145.266 251.194 145.573L227.632 163.788C226.968 164.302 226.429 164.039 226.429 163.199V147.879C226.455 147.41 226.575 146.951 226.781 146.529C226.988 146.108 227.277 145.732 227.632 145.425V145.425Z" clip-rule="evenodd"/><path fill="#F96132" fill-rule="evenodd" d="M228.645 146.928L230.339 145.582C230.548 145.421 230.707 145.5 230.707 145.759V158.842C230.699 158.987 230.662 159.129 230.599 159.26C230.536 159.39 230.447 159.507 230.339 159.603L228.645 160.952C228.436 161.112 228.28 161.033 228.28 160.774V147.678C228.298 147.39 228.429 147.12 228.645 146.928Z" clip-rule="evenodd"/><path fill="#fff" fill-rule="evenodd" d="M232.455 150.199L234.149 148.853C234.357 148.692 234.516 148.771 234.518 149.03L234.56 156.029C234.553 156.174 234.517 156.315 234.454 156.446C234.391 156.577 234.303 156.694 234.195 156.79L232.501 158.136C232.292 158.299 232.133 158.219 232.131 157.96L232.089 150.96C232.097 150.815 232.133 150.673 232.196 150.543C232.259 150.412 232.347 150.295 232.455 150.199Z" clip-rule="evenodd"/><path fill="#F7A501" fill-rule="evenodd" d="M236.302 144.678L238 143.328C238.209 143.167 238.365 143.504 238.365 143.504L238.526 152.816C238.518 152.96 238.482 153.1 238.42 153.23C238.358 153.359 238.27 153.475 238.163 153.571L236.463 154.921C236.254 155.082 236.099 155.002 236.099 154.745L235.936 145.433C235.936 145.176 236.302 144.678 236.302 144.678Z" clip-rule="evenodd"/><path fill="#F96132" fill-rule="evenodd" d="M240.157 144.91L241.851 143.564C242.06 143.403 242.219 143.742 242.219 143.742L242.263 149.561C242.255 149.706 242.219 149.847 242.156 149.977C242.093 150.108 242.005 150.224 241.897 150.32L240.203 151.668C239.995 151.829 239.836 151.75 239.836 151.491L239.792 145.671C239.792 145.412 240.157 144.91 240.157 144.91Z" clip-rule="evenodd"/><path fill="#0316F0" fill-rule="evenodd" d="M244.101 138.37L245.795 137.024C246.004 136.863 246.16 137.201 246.16 137.201L246.204 146.679C246.196 146.824 246.159 146.965 246.096 147.096C246.033 147.227 245.945 147.343 245.836 147.44L244.143 148.786C243.934 148.947 243.777 148.867 243.777 148.608L243.733 139.131C243.733 138.872 244.101 138.37 244.101 138.37Z" clip-rule="evenodd"/><path fill="#fff" fill-rule="evenodd" d="M248.146 131.779L249.84 130.433C250.049 130.272 250.208 130.352 250.208 130.611V143.711C250.2 143.856 250.163 143.997 250.1 144.128C250.037 144.258 249.949 144.375 249.84 144.472L248.146 145.818C247.938 145.979 247.781 145.899 247.781 145.64V132.54C247.789 132.395 247.825 132.254 247.888 132.123C247.95 131.993 248.038 131.876 248.146 131.779Z" clip-rule="evenodd"/><path fill="#fff" fill-rule="evenodd" d="M171.413 104.687L210.506 115.45C211.052 115.624 211.531 115.961 211.878 116.417C212.226 116.873 212.425 117.425 212.448 117.998V133.314C212.448 134.428 211.577 135.09 210.506 134.793L171.413 124.03C170.868 123.857 170.389 123.519 170.041 123.063C169.694 122.607 169.496 122.055 169.473 121.482V106.167C169.473 105.053 170.344 104.39 171.413 104.687Z" clip-rule="evenodd"/><path fill="#fff" fill-rule="evenodd" d="M171.225 129.102L210.318 139.864C210.864 140.039 211.343 140.377 211.691 140.833C212.038 141.289 212.237 141.841 212.26 142.415V157.73C212.26 158.842 211.391 159.505 210.318 159.21L171.225 148.447C170.679 148.273 170.2 147.935 169.853 147.479C169.506 147.022 169.308 146.47 169.285 145.897V130.581C169.285 129.469 170.154 128.807 171.225 129.102Z" clip-rule="evenodd"/><path fill="#fff" fill-rule="evenodd" d="M170.849 152.572L209.944 163.343C210.49 163.517 210.969 163.855 211.316 164.31C211.663 164.766 211.861 165.318 211.884 165.891V181.209C211.884 182.323 211.015 182.983 209.944 182.689L170.849 171.924C170.304 171.75 169.825 171.412 169.477 170.956C169.13 170.5 168.932 169.948 168.909 169.375V154.06C168.909 152.946 169.778 152.283 170.849 152.572Z" clip-rule="evenodd"/><path fill="#fff" fill-rule="evenodd" d="M171.037 176.244L210.13 187.007C210.676 187.18 211.156 187.518 211.503 187.974C211.851 188.43 212.049 188.982 212.072 189.555V204.871C212.072 205.985 211.203 206.648 210.13 206.351L171.037 195.588C170.49 195.415 170.01 195.078 169.662 194.622C169.313 194.166 169.114 193.613 169.091 193.04V177.724C169.091 176.61 169.966 175.949 171.037 176.244Z" clip-rule="evenodd"/><path fill="#fff" fill-rule="evenodd" d="M170.849 198.976L209.944 209.733C210.49 209.907 210.969 210.244 211.316 210.7C211.663 211.156 211.861 211.708 211.884 212.281V227.596C211.884 228.711 211.015 229.373 209.944 229.078L170.849 218.313C170.304 218.14 169.825 217.802 169.477 217.346C169.13 216.89 168.932 216.338 168.909 215.765V200.45C168.909 199.336 169.778 198.673 170.849 198.976Z" clip-rule="evenodd"/><path fill="#F96132" fill-rule="evenodd" d="M175.885 117.973C175.446 117.925 175.031 117.747 174.693 117.463C174.356 117.178 174.111 116.798 173.99 116.373C173.868 115.948 173.877 115.497 174.013 115.077C174.15 114.656 174.408 114.286 174.756 114.014C175.104 113.741 175.525 113.579 175.966 113.547C176.406 113.516 176.846 113.616 177.229 113.836C177.612 114.056 177.921 114.385 178.116 114.782C178.311 115.179 178.384 115.624 178.325 116.062C178.254 116.639 177.957 117.165 177.5 117.523C177.043 117.881 176.462 118.043 175.885 117.973Z" clip-rule="evenodd"/><path fill="#F7A501" fill-rule="evenodd" d="M174.601 141.953C174.161 141.905 173.747 141.727 173.409 141.442C173.071 141.157 172.826 140.778 172.705 140.353C172.584 139.927 172.592 139.476 172.729 139.056C172.866 138.635 173.125 138.265 173.473 137.993C173.821 137.721 174.242 137.559 174.683 137.527C175.123 137.496 175.563 137.597 175.946 137.817C176.329 138.037 176.638 138.367 176.833 138.764C177.028 139.16 177.1 139.606 177.04 140.044C177.005 140.33 176.914 140.606 176.773 140.856C176.631 141.107 176.442 141.327 176.215 141.504C175.989 141.681 175.73 141.812 175.453 141.889C175.175 141.966 174.886 141.988 174.601 141.953Z" clip-rule="evenodd"/><path fill="#3541D1" fill-rule="evenodd" d="M174.379 165.397C173.94 165.35 173.525 165.172 173.187 164.887C172.85 164.602 172.605 164.223 172.484 163.798C172.362 163.373 172.371 162.922 172.507 162.501C172.644 162.081 172.902 161.711 173.25 161.439C173.598 161.166 174.019 161.004 174.46 160.972C174.9 160.941 175.34 161.041 175.723 161.261C176.106 161.481 176.415 161.81 176.61 162.207C176.805 162.603 176.878 163.049 176.819 163.487C176.784 163.773 176.693 164.049 176.552 164.3C176.411 164.55 176.221 164.771 175.995 164.948C175.768 165.126 175.509 165.257 175.231 165.334C174.954 165.411 174.665 165.433 174.379 165.397Z" clip-rule="evenodd"/><path fill="#F96132" fill-rule="evenodd" d="M173.782 188.943C173.343 188.895 172.927 188.718 172.589 188.433C172.252 188.149 172.006 187.77 171.885 187.345C171.763 186.92 171.771 186.468 171.907 186.047C172.044 185.627 172.302 185.257 172.65 184.984C172.998 184.712 173.419 184.549 173.86 184.517C174.3 184.485 174.74 184.586 175.123 184.806C175.507 185.026 175.816 185.355 176.011 185.752C176.206 186.148 176.279 186.594 176.219 187.032C176.149 187.609 175.852 188.134 175.395 188.492C174.938 188.85 174.358 189.012 173.782 188.943Z" clip-rule="evenodd"/><path fill="#F7A501" fill-rule="evenodd" d="M173.55 211.781C173.11 211.735 172.695 211.558 172.356 211.274C172.018 210.99 171.772 210.611 171.649 210.186C171.527 209.761 171.535 209.309 171.671 208.888C171.807 208.467 172.065 208.096 172.413 207.823C172.76 207.55 173.182 207.387 173.622 207.355C174.063 207.323 174.503 207.424 174.887 207.644C175.27 207.864 175.58 208.193 175.775 208.59C175.97 208.986 176.043 209.432 175.983 209.871C175.913 210.447 175.617 210.971 175.161 211.329C174.705 211.687 174.126 211.85 173.55 211.781Z" clip-rule="evenodd"/><path fill="#3541D1" fill-rule="evenodd" d="M182.754 119.754C182.315 119.706 181.9 119.528 181.563 119.244C181.225 118.959 180.98 118.58 180.859 118.154C180.738 117.729 180.746 117.278 180.883 116.858C181.019 116.437 181.278 116.067 181.626 115.795C181.973 115.522 182.394 115.36 182.835 115.328C183.275 115.297 183.715 115.397 184.099 115.617C184.482 115.837 184.79 116.166 184.986 116.563C185.181 116.96 185.253 117.405 185.194 117.843C185.123 118.42 184.827 118.946 184.369 119.304C183.912 119.662 183.331 119.824 182.754 119.754Z" clip-rule="evenodd"/><path fill="#F96132" fill-rule="evenodd" d="M181.472 143.729C181.033 143.68 180.62 143.501 180.283 143.215C179.947 142.929 179.703 142.55 179.583 142.125C179.463 141.699 179.473 141.248 179.61 140.829C179.748 140.409 180.007 140.04 180.356 139.768C180.704 139.497 181.125 139.336 181.565 139.305C182.005 139.274 182.445 139.375 182.827 139.595C183.21 139.816 183.518 140.145 183.713 140.541C183.907 140.938 183.979 141.383 183.92 141.821C183.885 142.107 183.793 142.384 183.651 142.635C183.509 142.886 183.319 143.106 183.092 143.284C182.864 143.461 182.604 143.592 182.326 143.668C182.048 143.745 181.758 143.765 181.472 143.729Z" clip-rule="evenodd"/><path fill="#F7A501" fill-rule="evenodd" d="M181.249 167.174C180.81 167.127 180.395 166.949 180.057 166.664C179.719 166.379 179.474 166 179.353 165.575C179.232 165.15 179.24 164.698 179.377 164.278C179.513 163.858 179.772 163.488 180.12 163.215C180.468 162.943 180.889 162.78 181.329 162.749C181.77 162.717 182.21 162.818 182.593 163.038C182.976 163.258 183.285 163.587 183.48 163.983C183.675 164.38 183.747 164.826 183.688 165.264C183.618 165.841 183.321 166.366 182.864 166.724C182.406 167.083 181.825 167.244 181.249 167.174Z" clip-rule="evenodd"/><path fill="#F7A501" fill-rule="evenodd" d="M180.651 190.728C180.212 190.681 179.796 190.505 179.457 190.22C179.119 189.936 178.873 189.557 178.751 189.132C178.629 188.707 178.636 188.255 178.772 187.834C178.908 187.414 179.166 187.043 179.514 186.77C179.862 186.497 180.283 186.334 180.724 186.302C181.164 186.27 181.605 186.37 181.988 186.59C182.372 186.81 182.681 187.139 182.876 187.536C183.071 187.933 183.144 188.379 183.084 188.817C183.014 189.393 182.719 189.918 182.263 190.276C181.806 190.634 181.227 190.797 180.651 190.728Z" clip-rule="evenodd"/><path fill="#F96132" fill-rule="evenodd" d="M180.421 213.558C179.982 213.511 179.567 213.334 179.229 213.049C178.891 212.764 178.646 212.385 178.524 211.96C178.403 211.535 178.411 211.083 178.547 210.663C178.683 210.242 178.942 209.872 179.29 209.599C179.638 209.327 180.059 209.164 180.499 209.133C180.94 209.101 181.38 209.201 181.763 209.421C182.146 209.641 182.455 209.97 182.65 210.367C182.846 210.764 182.918 211.209 182.859 211.648C182.788 212.224 182.492 212.749 182.035 213.107C181.578 213.466 180.998 213.628 180.421 213.558Z" clip-rule="evenodd"/><path fill="#F96132" fill-rule="evenodd" d="M187.065 119.053C187.2 118.569 187.522 118.158 187.959 117.911C188.396 117.664 188.914 117.6 189.398 117.734L208.908 123.169C209.392 123.301 209.804 123.62 210.053 124.056C210.302 124.492 210.368 125.009 210.236 125.494C210.17 125.734 210.057 125.958 209.904 126.155C209.75 126.351 209.56 126.515 209.343 126.638C209.127 126.761 208.888 126.84 208.641 126.87C208.394 126.9 208.143 126.881 207.903 126.815L188.396 121.38C187.911 121.248 187.499 120.929 187.249 120.492C187 120.056 186.933 119.538 187.065 119.053Z" clip-rule="evenodd"/><path fill="#3541D1" fill-rule="evenodd" d="M185.781 143.035C185.916 142.551 186.237 142.14 186.675 141.893C187.112 141.646 187.63 141.582 188.114 141.716L207.623 147.137C207.863 147.203 208.087 147.317 208.283 147.47C208.479 147.623 208.643 147.814 208.766 148.031C208.888 148.248 208.966 148.486 208.997 148.734C209.027 148.981 209.008 149.232 208.941 149.472C208.875 149.712 208.762 149.936 208.609 150.133C208.455 150.329 208.265 150.493 208.048 150.615C207.831 150.738 207.593 150.816 207.346 150.847C207.099 150.877 206.848 150.858 206.608 150.79L187.101 145.366C186.617 145.231 186.207 144.911 185.96 144.474C185.712 144.037 185.648 143.52 185.781 143.035Z" clip-rule="evenodd"/><path fill="#F7A501" fill-rule="evenodd" d="M185.559 166.478C185.694 165.995 186.015 165.585 186.452 165.338C186.888 165.09 187.405 165.026 187.888 165.159L207.398 170.594C207.638 170.661 207.862 170.774 208.058 170.927C208.254 171.081 208.418 171.271 208.54 171.488C208.662 171.705 208.741 171.944 208.771 172.191C208.801 172.438 208.782 172.689 208.716 172.929C208.581 173.413 208.259 173.824 207.822 174.071C207.384 174.319 206.867 174.382 206.383 174.248L186.873 168.813C186.39 168.677 185.98 168.355 185.734 167.917C185.488 167.48 185.425 166.962 185.559 166.478Z" clip-rule="evenodd"/><path fill="#F96132" fill-rule="evenodd" d="M184.964 190.032C185.099 189.547 185.421 189.137 185.858 188.889C186.295 188.642 186.813 188.578 187.297 188.713L206.807 194.147C207.287 194.283 207.694 194.603 207.941 195.037C208.187 195.472 208.252 195.985 208.122 196.468C207.987 196.952 207.665 197.362 207.228 197.609C206.791 197.857 206.274 197.92 205.79 197.787L186.28 192.352C185.799 192.217 185.392 191.897 185.145 191.463C184.899 191.028 184.834 190.514 184.964 190.032Z" clip-rule="evenodd"/><path fill="#3541D1" fill-rule="evenodd" d="M184.732 212.862C184.867 212.378 185.188 211.967 185.625 211.72C186.062 211.472 186.579 211.409 187.063 211.543L206.573 216.978C206.812 217.044 207.037 217.158 207.233 217.311C207.429 217.465 207.593 217.655 207.715 217.872C207.837 218.089 207.916 218.328 207.946 218.575C207.976 218.822 207.957 219.073 207.891 219.313C207.824 219.553 207.711 219.777 207.557 219.973C207.404 220.169 207.214 220.333 206.997 220.456C206.78 220.578 206.542 220.657 206.295 220.687C206.048 220.717 205.797 220.698 205.558 220.632L186.05 215.197C185.81 215.13 185.586 215.017 185.39 214.864C185.193 214.711 185.029 214.52 184.907 214.303C184.785 214.086 184.706 213.847 184.676 213.6C184.646 213.353 184.665 213.102 184.732 212.862Z" clip-rule="evenodd"/></g><defs><clipPath id="clip0"><rect width="94.444" height="170" fill="#fff" transform="translate(1 14)"/></clipPath><clipPath id="clip1"><rect width="94.444" height="170" fill="#fff" transform="translate(77 41)"/></clipPath><clipPath id="clip2"><rect width="94.444" height="170" fill="#fff" transform="translate(162 68)"/></clipPath></defs></svg>