<svg width="256" height="253" viewBox="0 0 256 253" fill="none" xmlns="http://www.w3.org/2000/svg">
<path fill-rule="evenodd" clip-rule="evenodd" d="M8.00065 0H246.86C248.975 0.0101602 251.001 0.857603 252.493 2.35699C253.985 3.85637 254.822 5.88566 254.822 8.00102V244.074C254.822 246.193 253.98 248.227 252.481 249.726C250.982 251.225 248.949 252.067 246.829 252.067H8.00065C5.88007 252.067 3.84625 251.225 2.34606 249.726C0.845861 248.227 0.00203706 246.194 0 244.074V8.00102C0 5.87902 0.84292 3.84393 2.34334 2.34345C3.84375 0.842963 5.87874 0 8.00065 0Z" fill="#F96132"/>
<path fill-rule="evenodd" clip-rule="evenodd" d="M0.0306396 187.39H255.376V243.344C255.376 245.649 254.46 247.86 252.83 249.49C251.2 251.12 248.989 252.036 246.683 252.036L8.62309 252.766C7.50772 252.775 6.40178 252.562 5.36897 252.141C4.33616 251.719 3.39694 251.098 2.60538 250.312C1.81382 249.526 1.18558 248.591 0.756884 247.562C0.328185 246.532 0.107494 245.427 0.107523 244.312L0.0306396 187.39Z" fill="#F7A501"/>
<path fill-rule="evenodd" clip-rule="evenodd" d="M82.2355 49.2976H175.454V142.043H82.2355V49.2976Z" fill="#35416B"/>
<path fill-rule="evenodd" clip-rule="evenodd" d="M64.3281 147.623H195.229V187.974H64.3281V147.623Z" fill="#35416B"/>
<path fill-rule="evenodd" clip-rule="evenodd" d="M93.9253 61.718H163.034V127.44H93.9253V61.718Z" fill="white"/>
<path fill-rule="evenodd" clip-rule="evenodd" d="M143.382 198.15H175.231L194.975 237.64H163.149L143.382 198.15Z" fill="#F96132"/>
<path fill-rule="evenodd" clip-rule="evenodd" d="M136.795 204.299C136.795 204.299 134.536 202.516 135.942 200.91C137.533 199.096 139.57 201.171 139.57 201.171L167.76 226.173L172.871 233.667L164.986 229.301L136.795 204.299Z" fill="#35416B"/>
<path fill-rule="evenodd" clip-rule="evenodd" d="M196.366 34.6865H235.724V84.5373H196.366V34.6865Z" fill="#F7A501"/>
<path fill-rule="evenodd" clip-rule="evenodd" d="M212.252 34.6789C212.266 34.2835 212.396 33.9009 212.625 33.5788C212.855 33.2568 213.174 33.0095 213.544 32.8678C213.913 32.7262 214.316 32.6965 214.702 32.7825C215.088 32.8684 215.44 33.0662 215.715 33.3512C215.989 33.6361 216.174 33.9956 216.245 34.3847C216.316 34.7738 216.272 35.1753 216.116 35.5391C215.961 35.9029 215.702 36.2129 215.371 36.4303C215.041 36.6478 214.654 36.7631 214.258 36.7618C213.717 36.7497 213.202 36.5239 212.826 36.1337C212.45 35.7435 212.244 35.2206 212.252 34.6789V34.6789Z" fill="#35416B"/>
<path d="M214.781 35.5012L216.318 37.6302" stroke="#35416B" stroke-width="1.11072" stroke-linecap="round" stroke-linejoin="round"/>
<path fill-rule="evenodd" clip-rule="evenodd" d="M25.5951 195.712L26.2022 230.406C26.2022 230.406 31.5821 237.162 43.4179 236.824C56.0453 236.462 59.8112 229.414 59.8112 229.414L60.0572 196.911C60.0572 196.911 59.4654 194.605 58.374 193.698C54.5774 190.67 51.6722 189.086 42.8338 188.987C36.0551 188.925 31.121 190.893 28.4465 192.707C27.3054 193.508 26.336 194.53 25.5951 195.712V195.712Z" fill="#35416B"/>
<path d="M59.9418 202.606C59.9418 202.606 71.3626 202.675 71.3626 204.043C71.3626 218.393 59.0119 224.027 59.0119 224.027" stroke="#35416B" stroke-width="6.99651" stroke-linecap="round" stroke-linejoin="round"/>
<path fill-rule="evenodd" clip-rule="evenodd" d="M28.239 197.302C28.239 193.805 34.7563 190.969 42.7954 190.969C50.8345 190.969 57.3442 193.805 57.3442 197.302C57.3442 200.8 50.8345 203.636 42.7954 203.636C34.7563 203.636 28.239 200.838 28.239 197.302Z" fill="#F96132"/>
<path fill-rule="evenodd" clip-rule="evenodd" d="M31.4361 201.338C35.2567 200.596 39.129 200.152 43.0183 200.008C46.8845 199.922 50.749 200.247 54.5466 200.977C54.5466 200.977 50.6116 203.744 42.8799 203.897C38.9207 203.922 35.0076 203.047 31.4361 201.338Z" fill="#F7A501"/>
<path fill-rule="evenodd" clip-rule="evenodd" d="M42.1574 169.564C42.1574 169.564 35.8553 175.713 36.009 181.285C36.1627 186.857 40.5743 184.752 41.9039 188.495C43.2335 192.238 41.3428 196.265 41.3428 196.265C41.3428 196.265 47.7679 191.246 47.8755 186.796C47.9831 182.346 43.1873 182.769 41.7271 178.464C40.2668 174.16 42.1574 169.564 42.1574 169.564Z" fill="white" fill-opacity="0.32"/>
</svg>
