<svg width="566" height="480" viewBox="0 0 566 480" fill="none" xmlns="http://www.w3.org/2000/svg">
<g filter="url(#filter0_d)">
<circle cx="561.417" cy="164.252" r="84.252" fill="url(#paint0_linear)"/>
<circle cx="561.417" cy="164.252" r="84.252" fill="url(#paint1_linear)" fill-opacity="0.4"/>
</g>
<path d="M777.451 161.891C777.451 164.757 776.027 167.609 773.199 170.423C770.369 173.239 766.17 175.979 760.717 178.604C749.814 183.853 734.005 188.594 714.429 192.58C675.286 200.552 621.187 205.485 561.415 205.485C501.644 205.485 447.545 200.552 408.401 192.58C388.826 188.594 373.016 183.853 362.113 178.604C356.66 175.979 352.461 173.239 349.632 170.423C346.804 167.609 345.38 164.757 345.38 161.891C345.38 159.025 346.804 156.173 349.632 153.359C352.461 150.543 356.66 147.803 362.113 145.178C373.016 139.929 388.826 135.188 408.401 131.201C447.545 123.23 501.644 118.296 561.415 118.296C621.187 118.296 675.286 123.23 714.429 131.201C734.005 135.188 749.814 139.929 760.717 145.178C766.17 147.803 770.369 150.543 773.199 153.359C776.027 156.173 777.451 159.025 777.451 161.891Z" stroke="url(#paint2_angular)"/>
<path d="M843.594 177.639C843.594 181.371 841.71 185.072 838.001 188.707C834.291 192.344 828.792 195.875 821.666 199.254C807.415 206.011 786.762 212.11 761.202 217.236C710.088 227.488 639.453 233.832 561.417 233.832C483.38 233.832 412.746 227.488 361.632 217.236C336.071 212.11 315.419 206.011 301.168 199.254C294.042 195.875 288.543 192.344 284.833 188.707C281.123 185.072 279.24 181.371 279.24 177.639C279.24 173.906 281.123 170.206 284.833 166.57C288.543 162.934 294.042 159.402 301.168 156.023C315.419 149.266 336.071 143.167 361.632 138.041C412.746 127.79 483.38 121.446 561.417 121.446C639.453 121.446 710.088 127.79 761.202 138.041C786.762 143.167 807.415 149.266 821.666 156.023C828.792 159.402 834.291 162.934 838.001 166.57C841.71 170.206 843.594 173.906 843.594 177.639Z" stroke="url(#paint3_angular)"/>
<path d="M901.86 193.387C901.86 198.217 899.559 202.982 895.073 207.639C890.586 212.299 883.942 216.817 875.343 221.137C858.145 229.776 833.228 237.57 802.396 244.121C740.74 257.221 655.541 265.328 561.415 265.328C467.29 265.328 382.09 257.221 320.435 244.121C289.603 237.57 264.685 229.776 247.488 221.137C238.889 216.817 232.245 212.299 227.757 207.639C223.272 202.982 220.97 198.217 220.97 193.387C220.97 188.556 223.272 183.792 227.757 179.134C232.245 174.475 238.889 169.956 247.488 165.636C264.685 156.997 289.603 149.203 320.435 142.652C382.09 129.552 467.29 121.446 561.415 121.446C655.541 121.446 740.74 129.552 802.396 142.652C833.228 149.203 858.145 156.997 875.343 165.636C883.942 169.956 890.586 174.475 895.073 179.134C899.559 183.792 901.86 188.556 901.86 193.387Z" stroke="url(#paint4_angular)"/>
<path d="M950.681 213.859C950.681 226.39 940.012 238.484 920.306 249.59C900.642 260.673 872.153 270.67 836.906 279.072C766.421 295.875 669.021 306.273 561.418 306.273C453.814 306.273 356.414 295.875 285.929 279.072C250.682 270.67 222.194 260.673 202.529 249.59C182.823 238.484 172.154 226.39 172.154 213.859C172.154 201.328 182.823 189.235 202.529 178.129C222.194 167.045 250.682 157.048 285.929 148.646C356.414 131.843 453.814 121.446 561.418 121.446C669.021 121.446 766.421 131.843 836.906 148.646C872.153 157.048 900.642 167.045 920.306 178.129C940.012 189.235 950.681 201.328 950.681 213.859Z" stroke="url(#paint5_angular)"/>
<path d="M950.681 213.859C950.681 226.39 940.012 238.484 920.306 249.59C900.642 260.673 872.153 270.67 836.906 279.072C766.421 295.875 669.021 306.273 561.418 306.273C453.814 306.273 356.414 295.875 285.929 279.072C250.682 270.67 222.194 260.673 202.529 249.59C182.823 238.484 172.154 226.39 172.154 213.859C172.154 201.328 182.823 189.235 202.529 178.129C222.194 167.045 250.682 157.048 285.929 148.646C356.414 131.843 453.814 121.446 561.418 121.446C669.021 121.446 766.421 131.843 836.906 148.646C872.153 157.048 900.642 167.045 920.306 178.129C940.012 189.235 950.681 201.328 950.681 213.859Z" stroke="url(#paint6_angular)"/>
<path d="M986.903 235.906C986.903 251.512 975.177 266.503 953.658 280.233C932.163 293.948 901.026 306.317 862.505 316.713C785.47 337.502 679.02 350.367 561.419 350.367C443.817 350.367 337.367 337.502 260.333 316.713C221.812 306.317 190.674 293.948 169.179 280.233C147.66 266.503 135.934 251.512 135.934 235.906C135.934 220.301 147.66 205.31 169.179 191.58C190.674 177.865 221.812 165.495 260.333 155.1C337.367 134.31 443.817 121.446 561.419 121.446C679.02 121.446 785.47 134.31 862.505 155.1C901.026 165.495 932.163 177.865 953.658 191.58C975.177 205.31 986.903 220.301 986.903 235.906Z" stroke="url(#paint7_angular)"/>
<path d="M1059.34 262.678C1059.34 282.433 1045.57 301.359 1020.39 318.661C995.23 335.952 958.79 351.543 913.716 364.645C823.576 390.847 699.019 407.06 561.416 407.06C423.813 407.06 299.256 390.847 209.116 364.645C164.042 351.543 127.603 335.952 102.443 318.661C77.2672 301.359 63.491 282.433 63.491 262.678C63.491 242.924 77.2672 223.998 102.443 206.696C127.603 189.405 164.042 173.813 209.116 160.711C299.256 134.51 423.813 118.296 561.416 118.296C699.019 118.296 823.576 134.51 913.716 160.711C958.79 173.813 995.23 189.405 1020.39 206.696C1045.57 223.998 1059.34 242.924 1059.34 262.678Z" stroke="url(#paint8_angular)"/>
<path d="M1122.33 295.749C1122.33 320.089 1106.77 343.367 1078.42 364.616C1050.07 385.859 1009.02 405.011 958.248 421.104C856.713 453.288 716.412 473.202 561.417 473.202C406.423 473.202 266.122 453.288 164.586 421.104C113.816 405.011 72.7656 385.859 44.4188 364.616C16.0633 343.367 0.5 320.089 0.5 295.749C0.5 271.409 16.0633 248.132 44.4188 226.882C72.7656 205.639 113.816 186.487 164.586 170.394C266.122 138.21 406.423 118.296 561.417 118.296C716.412 118.296 856.713 138.21 958.248 170.394C1009.02 186.487 1050.07 205.639 1078.42 226.882C1106.77 248.132 1122.33 271.409 1122.33 295.749Z" stroke="url(#paint9_angular)"/>
<circle cx="432.281" cy="225.669" r="13.3858" fill="url(#paint10_linear)"/>
<circle cx="255.907" cy="265.041" r="22.8346" fill="url(#paint11_linear)"/>
<circle cx="585.041" cy="350.08" r="32.2835" fill="url(#paint12_linear)"/>
<circle cx="548.819" cy="367.401" r="3.93701" fill="url(#paint13_linear)"/>
<defs>
<filter id="filter0_d" x="397.165" y="0" width="328.504" height="328.504" filterUnits="userSpaceOnUse" color-interpolation-filters="sRGB">
<feFlood flood-opacity="0" result="BackgroundImageFix"/>
<feColorMatrix in="SourceAlpha" type="matrix" values="0 0 0 0 0 0 0 0 0 0 0 0 0 0 0 0 0 0 127 0" result="hardAlpha"/>
<feOffset/>
<feGaussianBlur stdDeviation="40"/>
<feColorMatrix type="matrix" values="0 0 0 0 1 0 0 0 0 0.778333 0 0 0 0 0.445833 0 0 0 1 0"/>
<feBlend mode="normal" in2="BackgroundImageFix" result="effect1_dropShadow"/>
<feBlend mode="normal" in="SourceGraphic" in2="effect1_dropShadow" result="shape"/>
</filter>
<linearGradient id="paint0_linear" x1="477.165" y1="130.063" x2="585.838" y2="248.504" gradientUnits="userSpaceOnUse">
<stop stop-color="#FFD43E"/>
<stop offset="0.765294" stop-color="#D34430"/>
</linearGradient>
<linearGradient id="paint1_linear" x1="516.238" y1="92.2104" x2="561.417" y2="248.504" gradientUnits="userSpaceOnUse">
<stop stop-color="#FFC7C7"/>
<stop offset="1" stop-color="#E48900"/>
</linearGradient>
<radialGradient id="paint2_angular" cx="0" cy="0" r="1" gradientUnits="userSpaceOnUse" gradientTransform="translate(561.415 161.891) rotate(90) scale(44.0945 216.535)">
<stop offset="0.119939" stop-color="white"/>
<stop offset="0.360199" stop-color="white" stop-opacity="0"/>
<stop offset="0.670087" stop-color="white" stop-opacity="0"/>
<stop offset="0.890807" stop-color="white"/>
<stop offset="0.999466" stop-color="white" stop-opacity="0"/>
</radialGradient>
<radialGradient id="paint3_angular" cx="0" cy="0" r="1" gradientUnits="userSpaceOnUse" gradientTransform="translate(561.417 177.639) rotate(90) scale(56.6929 282.677)">
<stop offset="0.119939" stop-color="white"/>
<stop offset="0.360199" stop-color="white" stop-opacity="0"/>
<stop offset="0.670087" stop-color="white" stop-opacity="0"/>
<stop offset="0.890807" stop-color="white"/>
<stop offset="0.999466" stop-color="white" stop-opacity="0"/>
</radialGradient>
<radialGradient id="paint4_angular" cx="0" cy="0" r="1" gradientUnits="userSpaceOnUse" gradientTransform="translate(561.415 193.387) rotate(90) scale(72.4409 340.945)">
<stop offset="0.119939" stop-color="white"/>
<stop offset="0.360199" stop-color="white" stop-opacity="0"/>
<stop offset="0.670087" stop-color="white" stop-opacity="0"/>
<stop offset="0.890807" stop-color="white"/>
<stop offset="0.999466" stop-color="white" stop-opacity="0"/>
</radialGradient>
<radialGradient id="paint5_angular" cx="0" cy="0" r="1" gradientUnits="userSpaceOnUse" gradientTransform="translate(561.418 213.859) rotate(90) scale(92.9134 389.764)">
<stop offset="0.119939" stop-color="white"/>
<stop offset="0.360199" stop-color="white" stop-opacity="0"/>
<stop offset="0.670087" stop-color="white" stop-opacity="0"/>
<stop offset="0.890807" stop-color="white"/>
<stop offset="0.999466" stop-color="white" stop-opacity="0"/>
</radialGradient>
<radialGradient id="paint6_angular" cx="0" cy="0" r="1" gradientUnits="userSpaceOnUse" gradientTransform="translate(561.418 213.859) rotate(90) scale(92.9134 389.764)">
<stop offset="0.119939" stop-color="white"/>
<stop offset="0.360199" stop-color="white" stop-opacity="0"/>
<stop offset="0.670087" stop-color="white" stop-opacity="0"/>
<stop offset="0.890807" stop-color="white"/>
<stop offset="0.999466" stop-color="white" stop-opacity="0"/>
</radialGradient>
<radialGradient id="paint7_angular" cx="0" cy="0" r="1" gradientUnits="userSpaceOnUse" gradientTransform="translate(561.419 235.906) rotate(90) scale(114.961 425.984)">
<stop offset="0.119939" stop-color="white"/>
<stop offset="0.360199" stop-color="white" stop-opacity="0"/>
<stop offset="0.670087" stop-color="white" stop-opacity="0"/>
<stop offset="0.890807" stop-color="white"/>
<stop offset="0.999466" stop-color="white" stop-opacity="0"/>
</radialGradient>
<radialGradient id="paint8_angular" cx="0" cy="0" r="1" gradientUnits="userSpaceOnUse" gradientTransform="translate(561.416 262.678) rotate(90) scale(144.882 498.425)">
<stop offset="0.119939" stop-color="white"/>
<stop offset="0.360199" stop-color="white" stop-opacity="0"/>
<stop offset="0.670087" stop-color="white" stop-opacity="0"/>
<stop offset="0.890807" stop-color="white"/>
<stop offset="0.999466" stop-color="white" stop-opacity="0"/>
</radialGradient>
<radialGradient id="paint9_angular" cx="0" cy="0" r="1" gradientUnits="userSpaceOnUse" gradientTransform="translate(561.417 295.749) rotate(90) scale(177.953 561.417)">
<stop offset="0.119939" stop-color="white"/>
<stop offset="0.360199" stop-color="white" stop-opacity="0"/>
<stop offset="0.670087" stop-color="white" stop-opacity="0"/>
<stop offset="0.890807" stop-color="white"/>
<stop offset="0.999466" stop-color="white" stop-opacity="0"/>
</radialGradient>
<linearGradient id="paint10_linear" x1="420.47" y1="215.432" x2="432.475" y2="230.518" gradientUnits="userSpaceOnUse">
<stop stop-color="#9FFF8F"/>
<stop offset="0.506297" stop-color="#4BADE4"/>
<stop offset="1" stop-color="#0B2646"/>
</linearGradient>
<linearGradient id="paint11_linear" x1="235.759" y1="247.579" x2="256.238" y2="273.314" gradientUnits="userSpaceOnUse">
<stop stop-color="#FFE08F"/>
<stop offset="0.506297" stop-color="#E49E4B"/>
<stop offset="1" stop-color="#46160B"/>
</linearGradient>
<linearGradient id="paint12_linear" x1="556.556" y1="325.392" x2="585.509" y2="361.777" gradientUnits="userSpaceOnUse">
<stop stop-color="#E28FFF"/>
<stop offset="0.506297" stop-color="#E44BCC"/>
<stop offset="1" stop-color="#460B35"/>
</linearGradient>
<linearGradient id="paint13_linear" x1="545.345" y1="364.39" x2="548.876" y2="368.827" gradientUnits="userSpaceOnUse">
<stop stop-color="#CACACA"/>
<stop offset="0.506297" stop-color="#A3A3A3"/>
<stop offset="1" stop-color="#3F3F3F"/>
</linearGradient>
</defs>
</svg>
