<svg xmlns="http://www.w3.org/2000/svg" width="256" height="253" fill="none" viewBox="0 0 256 253"><path fill="#F7A501" fill-rule="evenodd" d="M8.00067 0H246.86C248.975 0.0101602 251.001 0.857609 252.493 2.35699C253.985 3.85638 254.822 5.88567 254.822 8.00103V244.074C254.822 246.194 253.98 248.227 252.481 249.726C250.982 251.225 248.949 252.067 246.829 252.067H8.00067C5.88009 252.067 3.84625 251.225 2.34606 249.726C0.845861 248.227 0.00203706 246.194 0 244.074V8.00103C0 5.87902 0.84292 3.84393 2.34334 2.34345C3.84375 0.842963 5.87876 0 8.00067 0V0Z" clip-rule="evenodd"/><path fill="#35416B" fill-rule="evenodd" d="M0.0383911 187.352H255.376V243.336C255.377 244.477 255.153 245.607 254.717 246.662C254.281 247.717 253.641 248.675 252.835 249.482C252.028 250.289 251.071 250.93 250.016 251.367C248.962 251.804 247.832 252.029 246.691 252.029L8.61547 252.759C7.50009 252.767 6.39414 252.554 5.36134 252.133C4.32853 251.712 3.38928 251.09 2.59772 250.304C1.80616 249.519 1.17794 248.584 0.749237 247.554C0.320539 246.524 0.0998475 245.42 0.099877 244.304L0.0383911 187.352Z" clip-rule="evenodd"/><path fill="#F96132" fill-rule="evenodd" d="M82.2355 49.2974H175.454V142.005H82.2355V49.2974Z" clip-rule="evenodd"/><path fill="#F96132" fill-rule="evenodd" d="M64.3282 147.623H195.229V187.974H64.3282V147.623Z" clip-rule="evenodd"/><path fill="#35416B" fill-rule="evenodd" d="M93.9252 61.718H163.034V127.456H93.9252V61.718Z" clip-rule="evenodd"/><path fill="#F7A501" fill-rule="evenodd" d="M29.943 200.725L30.5501 235.411C30.5501 235.411 35.93 242.175 47.7658 241.837C60.3932 241.476 64.1591 234.42 64.1591 234.42L64.405 201.916C64.405 201.916 63.8132 199.61 62.7219 198.711C58.9252 195.675 56.0201 194.1 47.1817 193.992C40.403 193.938 35.4689 195.898 32.7943 197.712C31.6521 198.516 30.6826 199.54 29.943 200.725V200.725Z" clip-rule="evenodd"/><path stroke="#F7A501" stroke-linecap="round" stroke-linejoin="round" stroke-width="6.997" d="M64.2898 207.612C64.2898 207.612 75.7182 207.681 75.7182 209.057C75.7182 223.406 63.3676 229.04 63.3676 229.04"/><path fill="#F96132" fill-rule="evenodd" d="M32.5869 202.316C32.5869 198.819 39.1042 195.983 47.1433 195.983C55.1824 195.983 61.6998 198.819 61.6998 202.316C61.6998 205.813 55.1824 208.649 47.1433 208.649C39.1042 208.649 32.5869 205.798 32.5869 202.316Z" clip-rule="evenodd"/><path fill="#35416B" fill-rule="evenodd" d="M32.9788 203.715C32.9788 203.715 40.3492 201.232 46.9588 201.232C53.5684 201.232 60.862 204.345 60.862 204.345C60.862 204.345 60.739 205.114 57.8262 206.651C55.5743 207.819 50.8247 208.818 47.2201 208.956C43.1256 209.018 39.08 208.062 35.4458 206.174C33.3093 204.944 32.9788 203.715 32.9788 203.715Z" clip-rule="evenodd"/><path fill="#fff" fill-opacity=".65" fill-rule="evenodd" d="M46.2671 160.128C46.2671 160.128 36.9291 169.236 37.1136 177.406C37.2981 185.576 43.8769 182.51 45.8521 188.02C47.8273 193.531 45.022 199.472 45.022 199.472C45.022 199.472 54.5445 192.078 54.6982 185.522C54.8519 178.966 47.7812 179.589 45.6446 173.225C43.508 166.861 46.2671 160.128 46.2671 160.128Z" clip-rule="evenodd"/><path fill="#F7A501" fill-rule="evenodd" d="M29.943 200.725L30.5502 235.411C30.5502 235.411 35.93 242.175 47.7658 241.837C60.3932 241.476 64.1591 234.42 64.1591 234.42L64.405 201.916C64.405 201.916 63.8133 199.61 62.7219 198.711C58.9252 195.675 56.0201 194.1 47.1817 193.992C40.403 193.938 35.4689 195.898 32.7943 197.712C31.6522 198.516 30.6826 199.54 29.943 200.725V200.725Z" clip-rule="evenodd"/><path stroke="#F7A501" stroke-linecap="round" stroke-linejoin="round" stroke-width="6.997" d="M64.2898 207.611C64.2898 207.611 75.7182 207.681 75.7182 209.056C75.7182 223.406 63.3676 229.04 63.3676 229.04"/><path fill="#F96132" fill-rule="evenodd" d="M32.5869 202.316C32.5869 198.819 39.1042 195.983 47.1433 195.983C55.1824 195.983 61.6998 198.819 61.6998 202.316C61.6998 205.813 55.1824 208.649 47.1433 208.649C39.1042 208.649 32.5869 205.798 32.5869 202.316Z" clip-rule="evenodd"/><path fill="#35416B" fill-rule="evenodd" d="M32.9788 203.715C32.9788 203.715 40.3492 201.232 46.9588 201.232C53.5684 201.232 60.862 204.345 60.862 204.345C60.862 204.345 60.739 205.114 57.8262 206.651C55.5743 207.819 50.8247 208.818 47.2201 208.957C43.1256 209.018 39.08 208.062 35.4458 206.174C33.3093 204.944 32.9788 203.715 32.9788 203.715Z" clip-rule="evenodd"/><path fill="#fff" fill-opacity=".65" fill-rule="evenodd" d="M46.2672 160.128C46.2672 160.128 36.9292 169.236 37.1137 177.406C37.2981 185.576 43.877 182.51 45.8522 188.02C47.8273 193.531 45.0221 199.472 45.0221 199.472C45.0221 199.472 54.5445 192.078 54.6982 185.522C54.8519 178.966 47.7812 179.589 45.6446 173.225C43.5081 166.861 46.2672 160.128 46.2672 160.128Z" clip-rule="evenodd"/></svg>