<svg fill="none" viewBox="0 0 269 257"><path fill="#fff" fill-rule="evenodd" stroke="#F7A501" stroke-linecap="round" stroke-linejoin="round" stroke-width="4" d="M10.131 2h238.86a7.99 7.99 0 017.387 4.94c.401.97.607 2.01.606 3.061v236.073a7.993 7.993 0 01-7.993 7.993H10.131a8 8 0 01-8-7.993V10.001a8.001 8.001 0 018-8.001z" clip-rule="evenodd"/><path fill="#F7A501" fill-rule="evenodd" d="M2.17 189.39h255.367v55.954a8.688 8.688 0 01-5.359 8.03 8.683 8.683 0 01-3.326.662l-238.067.73a8.44 8.44 0 01-6.018-2.454 8.462 8.462 0 01-2.498-6l-.1-56.922z" clip-rule="evenodd"/><path fill="#35416B" fill-rule="evenodd" d="M84.366 50.698h93.241v92.738h-93.24V50.698zM66.46 149.024h130.9v40.366H66.46v-40.366z" clip-rule="evenodd"/><path fill="#F7A501" fill-rule="evenodd" d="M96.056 63.11h69.108v65.746H96.056V63.111z" clip-rule="evenodd"/><path fill="#F96132" fill-rule="evenodd" d="M218.08 50.606h38.75v92.738h-38.766l.016-92.738zm-17.908 98.325h56.874l.445 40.697-57.319-.361v-40.336z" clip-rule="evenodd"/><path fill="#fff" fill-rule="evenodd" d="M229.769 63.026l27.384.046v65.415l-27.414.277.03-65.738z" clip-rule="evenodd"/><path fill="#F96132" fill-rule="evenodd" d="M2.707 50.667h40.926v92.738H2l.707-92.738zm-.638 98.695l61.339-.369v40.351l-61.193.154-.146-40.136z" clip-rule="evenodd"/><path fill="#35416B" fill-rule="evenodd" d="M2.177 63.088h29.036v65.737l-29.205.492.169-66.23z" clip-rule="evenodd"/><path fill="#fff" fill-rule="evenodd" d="M2.308 171.259l26.66-.054 22.658 46.154-49.318.607v-46.707z" clip-rule="evenodd"/><path fill="#BEBEBE" fill-rule="evenodd" d="M51.657 217.328l-.054 13.543-49.188 2.052v-15.026l49.242-.569z" clip-rule="evenodd"/><path fill="#fff" fill-rule="evenodd" d="M135.045 201.441h48.258l29.919 39.491h-48.257l-29.92-39.491z" clip-rule="evenodd"/><path fill="#F96132" fill-rule="evenodd" d="M130.879 241.308s1.368 2.536-.553 3.451c-2.183 1.038-3.236-1.675-3.236-1.675l-15.993-34.118-1.722-8.908 5.511 7.132 15.993 34.118z" clip-rule="evenodd"/><path fill="#fff" fill-rule="evenodd" d="M118.828 244.582s1.368 2.537-.553 3.451c-2.183 1.038-3.236-1.675-3.236-1.675L99.046 212.24l-1.722-8.908 5.511 7.133 15.993 34.117z" clip-rule="evenodd"/><path fill="#F7A501" fill-rule="evenodd" d="M120.865 244.36s1.099 2.667 3.028 1.752c2.183-1.03.769-3.559.769-3.559l-16.324-33.948-5.803-6.964 2.029 8.778 16.301 33.941zm62.053-229.847h31.112v39.413h-31.112V14.513zM48.89 36.31h29.858v28.653H48.89V36.31zM185.1 68.406h29.436v37.284H185.1V68.406z" clip-rule="evenodd"/><path fill="#35416B" fill-rule="evenodd" d="M195.477 14.512a1.586 1.586 0 011.018-1.43 1.593 1.593 0 012.136 1.193 1.59 1.59 0 01-1.564 1.882 1.612 1.612 0 01-1.59-1.645z" clip-rule="evenodd"/><path fill="#F96132" fill-rule="evenodd" d="M60.94 36.31a1.537 1.537 0 113.075 0 1.537 1.537 0 01-3.074 0zm136.043 32.088a1.536 1.536 0 113.073 0 1.536 1.536 0 01-3.073 0z" clip-rule="evenodd"/><path stroke="#35416B" stroke-linecap="round" stroke-linejoin="round" stroke-width="1.111" d="M197.475 15.158l1.191 1.683"/><path fill="#F96132" fill-rule="evenodd" d="M62.862 36.932L64 38.546z" clip-rule="evenodd"/><path stroke="#F96132" stroke-linecap="round" stroke-linejoin="round" stroke-width="1.111" d="M62.862 36.932L64 38.546m134.874 30.467l1.122 1.591"/><path fill="#fff" fill-rule="evenodd" d="M207.113 158.946l21.742 29.122h28.683l.814-29.122h-51.239z" clip-rule="evenodd"/><path fill="#BEBEBE" fill-rule="evenodd" d="M228.663 186.316v42.879l30.411-.299-.607-42.58h-29.804z" clip-rule="evenodd"/><path fill="#E7E7E7" fill-rule="evenodd" d="M207.289 158.877l-1.245 38.906 22.918 31.781-.207-43.494-21.466-27.193z" clip-rule="evenodd"/><path fill="#fff" fill-opacity=".65" fill-rule="evenodd" d="M235.541 95.991s-9.338 9.1-9.153 17.278c.184 8.178 6.763 5.096 8.738 10.614 1.975 5.519-.83 11.444-.83 11.444s9.523-7.386 9.676-13.942c.154-6.556-6.917-5.933-9.053-12.297-2.137-6.364.622-13.097.622-13.097z" clip-rule="evenodd"/><path fill="#35416B" fill-rule="evenodd" d="M219.217 136.58l.607 34.694s5.38 6.756 17.216 6.418c12.627-.361 16.393-7.409 16.393-7.409l.246-32.504s-.592-2.306-1.683-3.213c-3.797-3.036-6.702-4.611-15.54-4.719-6.779-.054-11.713 1.914-14.388 3.728a10.483 10.483 0 00-2.851 3.005z" clip-rule="evenodd"/><path stroke="#35416B" stroke-linecap="round" stroke-linejoin="round" stroke-width="6.997" d="M253.564 143.474s11.428.062 11.428 1.438c0 14.349-12.35 19.983-12.35 19.983"/><path fill="#F96132" fill-rule="evenodd" d="M221.861 138.171c0-3.497 6.517-6.333 14.556-6.333 8.04 0 14.557 2.836 14.557 6.333 0 3.497-6.517 6.333-14.557 6.333-8.039 0-14.556-2.836-14.556-6.333z" clip-rule="evenodd"/><path fill="#F7A501" fill-rule="evenodd" d="M222.245 139.578s7.378-2.491 13.988-2.491c6.61 0 13.903 3.121 13.903 3.121s-.123.768-3.036 2.306c-2.252 1.168-7.001 2.175-10.606 2.305a24.831 24.831 0 01-11.774-2.79c-2.137-1.222-2.475-2.451-2.475-2.451z" clip-rule="evenodd"/><path fill="#F7A501" fill-opacity=".65" fill-rule="evenodd" d="M235.541 95.991s-9.338 9.1-9.153 17.278c.184 8.178 6.763 5.096 8.738 10.614 1.975 5.519-.83 11.444-.83 11.444s9.523-7.386 9.676-13.942c.154-6.556-6.917-5.933-9.053-12.297-2.137-6.364.622-13.097.622-13.097z" clip-rule="evenodd"/></svg>