<svg fill="none" viewBox="0 0 119 119"><rect width="119" height="119" fill="#F96132" rx="8"/><g clip-path="url(#clip0)"><path fill="#909090" fill-rule="evenodd" d="M35.051 25.868l-.731 75.237c-.012 1.313.957 1.963 2.167 1.452l31.29-13.215c1.26-.531 2.27-2.07 2.258-3.435l-.118-14.005 4.912.105.09 16.291c.007 1.567-1.156 3.33-2.6 3.937l-33.69 14.172c-4.796 2.018-8.659-.562-8.63-5.765l.45-74.566 4.602-.208z" clip-rule="evenodd"/><path fill="#DDD" fill-rule="evenodd" d="M37.9 26.774l-.732 75.237c-.014 1.313.957 1.963 2.167 1.452l31.29-13.21c1.258-.53 2.268-2.069 2.256-3.434l-.12-14.01 4.912.104.092 16.294c.01 1.567-1.155 3.33-2.6 3.937l-33.689 14.17c-4.797 2.017-8.66-.563-8.63-5.766l.449-74.566 4.604-.208z" clip-rule="evenodd"/><path fill="#C1C1C1" fill-rule="evenodd" d="M30.427 26.048l2.908.963 4.505-.193-2.768-1.02-4.645.25z" clip-rule="evenodd"/><path stroke="#fff" stroke-linecap="round" stroke-linejoin="round" stroke-width=".937" d="M75.644 76.716l-.323 10.466c-.037 1.186-.943 2.54-2.025 3.025l-33.521 15.044c-.776.348-1.992.266-2.708-.191l-.698-.44c-.93-.583-1.665-1.942-1.65-3.036l.945-72.398"/><path fill="#909090" fill-rule="evenodd" d="M73.43 48.792a7.272 7.272 0 017.27 7.266v12.3c0 .81-.11 2.806-.11 2.806s-.06 5.176-6.674 5.468c-7.075.318-7.583-5.028-7.583-5.028s-.173-2.166-.173-3.246v-12.3a7.265 7.265 0 017.27-7.266z" clip-rule="evenodd"/><path fill="#C1C1C1" fill-rule="evenodd" d="M75.013 48.792c2.642 0 4.78 3.253 4.78 7.266l.065 15.9s-1.73 3.368-4.1 4.456c-2.37 1.088-5.368-.107-5.368-.107s-.165-6.675-.165-7.95V56.059c.003-4.013 2.146-7.266 4.788-7.266z" clip-rule="evenodd"/><path fill="#DDD" fill-rule="evenodd" d="M76.663 47.93c1.748 0 3.165 3.255 3.165 7.267v12.3c0 1.758.16 5.847.16 5.847s-.685 1.58-2.237 2.432c-1.552.852-3.973.98-3.973.98l-.276-21.56c0-4.012 1.414-7.266 3.161-7.266z" clip-rule="evenodd"/><path fill="#fff" fill-rule="evenodd" d="M76.54 68.492c0-3.004.488-5.442 1.09-5.442.6 0 1.09 2.434 1.09 5.442 0 3.007-.488 5.442-1.09 5.442-.604 0-1.09-2.44-1.09-5.442z" clip-rule="evenodd"/><path fill="#909090" fill-rule="evenodd" d="M48.775 36.77l11.077 8.52 3.176 26.694s-1.936.945-5.057-1.114l-8.584-4.34c-.93-.468-1.68-1.69-1.683-2.729l.185-25.629a1.725 1.725 0 01.737-1.31l.15-.092z" clip-rule="evenodd"/><path fill="#DDD" fill-rule="evenodd" d="M59.886 45.285l31.76-11.892v23.065c0 2.655-2.012 5.555-4.497 6.485L62.96 72c-1.697.636-3.073-.317-3.073-2.13V45.285z" clip-rule="evenodd"/><path fill="#C1C1C1" fill-rule="evenodd" d="M59.878 45.324l31.734-11.945-9.997-6.759c-1.027-.695-2.805-.91-3.971-.483L48.937 36.706c-.714.265-.78.817-.146 1.24l11.087 7.378z" clip-rule="evenodd"/><path fill="#fff" fill-rule="evenodd" d="M62.664 16.41c.68-.004 1.342.22 1.88.636l-.1 19.56c0 1.153-.626 2.245-1.78 2.245-1.153 0-2.011-1.092-2.011-2.246l-.068-19.43s.926-.765 2.08-.765zm14.596-5.028c.68-.004 1.341.22 1.879.636l-.1 19.56c0 1.153-.625 2.247-1.78 2.247-1.153 0-2.01-1.094-2.01-2.247l-.069-19.431s.926-.765 2.08-.765z" clip-rule="evenodd"/><path fill="#D3D3D3" fill-rule="evenodd" d="M60.6 17.211c0-.654.889-1.183 1.984-1.183s1.992.53 1.992 1.183-.889 1.183-1.992 1.183-1.984-.53-1.984-1.183zm14.595-5.027c0-.653.888-1.184 1.983-1.184 1.096 0 1.985.53 1.985 1.184 0 .653-.888 1.183-1.985 1.183-1.096 0-1.983-.53-1.983-1.183z" clip-rule="evenodd"/><path fill="#909090" fill-rule="evenodd" d="M60.568 17.733l.03 5.653c.6.464 1.344.702 2.101.673 1.264-.057 1.786-.65 1.786-.65l.074-5.72s-.228.83-1.908.98a2.286 2.286 0 01-2.083-.936zm14.595-5.027l.03 5.652c.6.465 1.344.703 2.101.673 1.264-.057 1.786-.65 1.786-.65l.075-5.72s-.229.83-1.908.982a2.283 2.283 0 01-2.084-.938z" clip-rule="evenodd"/><path fill="#C1C1C1" fill-rule="evenodd" d="M61.77 18.598l-.112 5.373c.395.11.805.154 1.214.133a3.514 3.514 0 001.177-.398l.045-5.474s-.614.337-1.037.409c-.396.064-1.287-.043-1.287-.043zm14.595-5.028l-.112 5.374c.395.108.805.153 1.214.132a3.511 3.511 0 001.176-.398l.045-5.473s-.613.337-1.037.408c-.395.064-1.286-.043-1.286-.043z" clip-rule="evenodd"/><path fill="#DDD" fill-rule="evenodd" d="M62.455 18.671c.188.003.375-.008.56-.034.168-.028.334-.066.497-.116l-.017 5.4a1.9 1.9 0 01-.543.205 1.714 1.714 0 01-.56-.01l.063-5.445zm14.594-5.026c.188.003.375-.01.56-.036.169-.027.335-.066.497-.115l-.017 5.399a1.92 1.92 0 01-.543.206 1.676 1.676 0 01-.559-.01l.063-5.444z" clip-rule="evenodd"/></g><defs><clipPath id="clip0"><path fill="#fff" d="M0 0h61.647v97H0z" transform="translate(30 11)"/></clipPath></defs></svg>