<svg width="272" height="53" viewBox="0 0 272 53" fill="none" xmlns="http://www.w3.org/2000/svg">
<path d="M0 33.1092L13.2613 46.3527H0V33.1092ZM0 29.7984L16.5766 46.3527H29.8379L0 16.5549V29.7984ZM0 13.244L33.1532 46.3527H46.4145L0 0.000488281V13.244ZM16.5766 13.244L49.7299 46.3527V33.1092L16.5766 0.000488281V13.244ZM33.1532 0.000488281V13.244L49.7299 29.7984V16.5549L33.1532 0.000488281Z" fill="#454545"/>
<path d="M79.5676 41.055C76.17 41.055 72.913 39.7068 70.5127 37.3098L52.0742 18.896V46.3524H79.5676V41.055Z" fill="#454545"/>
<path d="M60.0314 41.055C61.4962 41.055 62.6837 39.8691 62.6837 38.4063C62.6837 36.9434 61.4962 35.7576 60.0314 35.7576C58.5666 35.7576 57.3792 36.9434 57.3792 38.4063C57.3792 39.8691 58.5666 41.055 60.0314 41.055Z" fill="#C4C4C4"/>
<path d="M0 46.3524H13.2613L0 33.1089V46.3524Z" fill="#454545"/>
<path d="M16.5766 16.5549L0 0.000488281V13.244L16.5766 29.7984V16.5549Z" fill="#454545"/>
<path d="M0 16.5544V29.7979L16.5766 46.3523V33.1088L0 16.5544Z" fill="#454545"/>
<path d="M33.1535 16.5544L16.5769 0V13.2435L33.1535 29.7979V16.5544Z" fill="#454545"/>
<path d="M16.5764 46.3524H29.8377L16.5764 33.1089V46.3524Z" fill="#454545"/>
<path d="M16.5764 16.5544V29.7979L33.153 46.3523V33.1088L16.5764 16.5544Z" fill="#454545"/>
<path d="M133.26 28.0177C133.26 33.9507 130.603 37.9317 121.63 37.9317H116.686V46.3519H111.286V18.1433H121.63C130.603 18.146 133.26 22.0846 133.26 28.0177ZM127.86 28.0177C127.86 24.5744 126.781 23.1229 122.585 23.1229H116.686V32.9548H122.585C126.781 32.9548 127.86 31.3365 127.86 28.0177Z" fill="#454545"/>
<path d="M135.96 35.6513C135.96 29.1382 139.573 24.5745 146.304 24.5745C153.033 24.5745 156.648 29.1382 156.648 35.6513C156.648 42.1645 153.033 46.7679 146.304 46.7679C139.575 46.7679 135.96 42.1618 135.96 35.6513ZM151.248 35.6513C151.248 31.0876 149.962 29.554 146.304 29.554C142.649 29.554 141.36 31.0876 141.36 35.6513C141.36 40.2151 142.647 41.791 146.304 41.791C149.959 41.7884 151.248 40.2124 151.248 35.6513Z" fill="#454545"/>
<path d="M160.178 38.6786C163.957 41.0439 166.742 41.7908 169.816 41.7908C171.811 41.7908 172.641 41.0015 172.641 39.9659C172.641 38.7633 171.893 38.1833 168.57 37.643C162.048 36.647 160.178 34.0751 160.178 30.7987C160.178 26.5263 163.751 24.5769 168.196 24.5769C170.978 24.5769 174.344 25.3238 176.378 26.7329V31.7099C173.346 30.216 170.066 29.5538 167.779 29.5538C166.284 29.5538 165.578 30.0941 165.578 31.0477C165.578 32.086 166.119 32.666 169.442 33.3706C175.673 34.6552 178.041 35.9849 178.041 40.0904C178.041 44.3203 174.262 46.7677 169.4 46.7677C166.159 46.7677 163.21 46.1453 160.178 44.1137V38.6786Z" fill="#454545"/>
<path d="M188.838 29.9671V41.375H194.527V46.3519H183.438V29.9671H180.115V24.9902H183.438V17.3169H188.838V24.9902H194.527V29.9671H188.838Z" fill="#454545"/>
<path d="M223.148 18.1462V46.3549H217.748V35.1535H205.327V46.3549H199.927V18.1462H205.327V30.1766H217.748V18.1462H223.148Z" fill="#454545"/>
<path d="M227.304 35.6513C227.304 29.1382 230.917 24.5745 237.648 24.5745C244.377 24.5745 247.992 29.1382 247.992 35.6513C247.992 42.1645 244.377 46.7679 237.648 46.7679C230.919 46.7679 227.304 42.1618 227.304 35.6513ZM242.589 35.6513C242.589 31.0876 241.303 29.554 237.646 29.554C233.991 29.554 232.702 31.0876 232.702 35.6513C232.702 40.2151 233.988 41.791 237.646 41.791C241.303 41.7884 242.589 40.2124 242.589 35.6513Z" fill="#454545"/>
<path d="M272 24.9903V52.9897H254.97V48.0128H266.6V42.2042C265.354 43.5736 263.526 44.694 260.534 44.694C254.304 44.694 251.312 40.0058 251.312 34.613C251.312 29.2627 254.304 24.5745 260.534 24.5745C263.526 24.5745 265.354 25.6949 266.6 27.2708V24.9903H272ZM266.6 34.613C266.6 31.4187 265.314 29.5514 261.656 29.5514C258.001 29.5514 256.712 31.4187 256.712 34.613C256.712 37.8498 258.001 39.7144 261.656 39.7144C265.311 39.7144 266.6 38.0564 266.6 34.613Z" fill="#454545"/>
</svg>
