<svg fill="none" viewBox="0 0 150 30"><path fill="#fff" d="M0 18.259l7.313 7.303H0v-7.303zm0-1.826l9.142 9.129h7.313L0 9.129v7.304zm0-9.13l18.283 18.259h7.313L0 0v7.303zm9.142 0l18.283 18.259v-7.303L9.142 0v7.303zM18.283 0v7.303l9.142 9.13V9.129L18.283 0zm25.596 22.64a7.067 7.067 0 01-4.993-2.065L28.717 10.421v15.14H43.88v-2.92z"/><path fill="#000" d="M33.105 22.64a1.462 1.462 0 10-1.462-1.46c0 .807.655 1.46 1.462 1.46z"/><path fill="#fff" d="M0 25.562h7.313L0 18.259v7.303zM9.142 9.129L0 0v7.303l9.142 9.13V9.129zM0 9.13v7.304l9.142 9.129V18.26L0 9.129zm18.283 0L9.142 0v7.303l9.141 9.13V9.129zM9.142 25.562h7.313l-7.313-7.303v7.303zm0-16.433v7.304l9.141 9.129v-7.303l-9.141-9.13zm64.347 6.322c0 3.272-1.466 5.467-6.414 5.467H64.35v4.644h-2.978V10.006h5.704c4.948.001 6.414 2.173 6.414 5.445zm-2.978 0c0-1.899-.595-2.7-2.91-2.7H64.35v5.423h3.253c2.314 0 2.91-.893 2.91-2.723zm4.467 4.21c0-3.592 1.992-6.109 5.704-6.109 3.711 0 5.705 2.517 5.705 6.109s-1.994 6.13-5.705 6.13c-3.71 0-5.704-2.54-5.704-6.13zm8.43 0c0-2.517-.709-3.363-2.726-3.363-2.015 0-2.726.846-2.726 3.363 0 2.516.71 3.386 2.726 3.386 2.016-.002 2.727-.87 2.727-3.386zm4.925 1.67c2.085 1.304 3.62 1.716 5.316 1.716 1.1 0 1.557-.436 1.557-1.007 0-.663-.412-.983-2.245-1.28-3.596-.55-4.628-1.968-4.628-3.775 0-2.356 1.97-3.431 4.422-3.431 1.534 0 3.39.412 4.512 1.189v2.744c-1.671-.824-3.48-1.189-4.742-1.189-.825 0-1.214.298-1.214.824 0 .573.299.893 2.131 1.281 3.436.709 4.742 1.442 4.742 3.706 0 2.333-2.084 3.682-4.765 3.682-1.787 0-3.414-.343-5.086-1.463V21.33zm15.806-4.805v6.291h3.137v2.745h-6.115v-9.036h-1.833v-2.745h1.833V9.55h2.978v4.231h3.137v2.745h-3.137zm18.921-6.519v15.556h-2.978v-6.177h-6.85v6.177h-2.978V10.007h2.978v6.635h6.85v-6.635h2.978zm2.292 9.654c0-3.592 1.992-6.109 5.704-6.109 3.711 0 5.704 2.517 5.704 6.109s-1.993 6.13-5.704 6.13c-3.711 0-5.704-2.54-5.704-6.13zm8.429 0c0-2.517-.71-3.363-2.727-3.363-2.015 0-2.726.846-2.726 3.363 0 2.516.709 3.386 2.726 3.386 2.017-.002 2.727-.87 2.727-3.386zM150 13.78v15.441h-9.392v-2.744h6.414v-3.204c-.687.756-1.695 1.373-3.345 1.373-3.436 0-5.086-2.585-5.086-5.559 0-2.95 1.65-5.536 5.086-5.536 1.65 0 2.658.618 3.345 1.487V13.78H150zm-2.978 5.307c0-1.761-.709-2.791-2.726-2.791-2.016 0-2.727 1.03-2.727 2.791 0 1.785.711 2.813 2.727 2.813 2.015 0 2.726-.914 2.726-2.813z"/></svg>