<svg fill="none" viewBox="0 0 42 24"><path fill="#fff" d="M0 17.143L6.867 24H0v-6.857zm0-1.714L8.583 24h6.867L0 8.572v6.857zm0-8.572L17.166 24h6.866L0 0v6.857zm8.583 0L25.75 24v-6.857L8.583 0v6.857zM17.166 0v6.857l8.583 8.572V8.572L17.166 0z"/><path fill="#fff" fill-rule="evenodd" d="M36.51 19.318a6.635 6.635 0 004.689 1.939V24H26.964V9.784l9.547 9.534zm-4.053.567a1.372 1.372 0 11-2.744-.001 1.372 1.372 0 012.744.002z" clip-rule="evenodd"/><path fill="#fff" d="M0 24h6.866L0 17.143V24zM8.584 8.572L0 0v6.857l8.583 8.572V8.572zM0 8.572v6.856L8.583 24v-6.858L0 8.572zm17.166 0L8.583 0v6.857l8.583 8.571V8.571z"/><path fill="#fff" d="M8.582 24h6.866l-6.866-6.857V24zm0-15.429v6.857L17.165 24v-6.858l-8.583-8.57z"/></svg>