<svg xmlns="http://www.w3.org/2000/svg" width="42" height="24" fill="none" viewBox="0 0 42 24"><path fill="#fff" d="M0.000488281 17.143L6.86671 24H0.000488281V17.143ZM0.000488281 15.4287L8.58326 24H15.4495L0.000488281 8.57174V15.4287ZM0.000488281 6.85749L17.166 24H24.0323L0.000488281 0.000488281V6.85749ZM8.58326 6.85749L25.7488 24V17.143L8.58326 0.000488281V6.85749ZM17.166 0.000488281V6.85749L25.7488 15.4287V8.57174L17.166 0.000488281Z"/><path fill="#fff" fill-rule="evenodd" d="M36.5107 19.3177C37.7535 20.5588 39.4398 21.2568 41.1989 21.2568V23.9996H26.9639V9.78369L36.5107 19.3177ZM32.4572 19.8855C32.4572 20.6429 31.8424 21.2569 31.084 21.2569C30.3256 21.2569 29.7108 20.6429 29.7108 19.8855C29.7108 19.1281 30.3256 18.5141 31.084 18.5141C31.8424 18.5141 32.4572 19.1281 32.4572 19.8855Z" clip-rule="evenodd"/><path fill="#fff" d="M0 23.9996H6.86622L0 17.1426V23.9996Z"/><path fill="#fff" d="M8.58376 8.57174L0.000976562 0.000488281V6.85749L8.58376 15.4287V8.57174Z"/><path fill="#fff" d="M0 8.57129V15.4283L8.58278 23.9995V17.1425L0 8.57129Z"/><path fill="#fff" d="M17.1658 8.57125L8.58301 0V6.857L17.1658 15.4283V8.57125Z"/><path fill="#fff" d="M8.58203 23.9996H15.4482L8.58203 17.1426V23.9996Z"/><path fill="#fff" d="M8.58203 8.57129V15.4283L17.1648 23.9995V17.1425L8.58203 8.57129Z"/></svg>