<svg xmlns="http://www.w3.org/2000/svg" width="300" height="300" fill="none" viewBox="0 0 300 300"><rect width="300" height="300" fill="#000"/><path fill="#fff" d="M33 179.379L72.0038 218.33H33V179.379ZM33 169.641L81.7548 218.33H120.759L33 130.689V169.641ZM33 120.951L130.51 218.33H169.513L33 82V120.951ZM81.7548 120.951L179.264 218.33V179.379L81.7548 82V120.951ZM130.51 82V120.951L179.264 169.641V130.689L130.51 82Z"/><path fill="#fff" d="M266.863 203.174C256.87 203.174 247.291 199.208 240.231 192.158L186 138V218.754H266.863V203.174Z"/><path fill="#000" d="M209.563 202.75C213.871 202.75 217.363 199.262 217.363 194.959C217.363 190.657 213.871 187.169 209.563 187.169C205.254 187.169 201.762 190.657 201.762 194.959C201.762 199.262 205.254 202.75 209.563 202.75Z"/><path fill="#fff" d="M33 218.33H72.0038L33 179.379V218.33Z"/><path fill="#fff" d="M81.7548 130.689L33 82V120.951L81.7548 169.641V130.689Z"/><path fill="#fff" d="M33 130.689V169.641L81.7548 218.33V179.379L33 130.689Z"/><path fill="#fff" d="M130.51 130.689L81.7548 82V120.951L130.51 169.641V130.689Z"/><path fill="#fff" d="M81.7548 218.33H120.759L81.7548 179.379V218.33Z"/><path fill="#fff" d="M81.7548 130.689V169.641L130.51 218.33V179.379L81.7548 130.689Z"/></svg>