<svg width="1026" height="201" viewBox="0 0 1026 201" fill="none" xmlns="http://www.w3.org/2000/svg">
<g clip-path="url(#clip0)">
<path d="M502.44 105.78C502.44 128.18 492.42 143.21 458.59 143.21H439.95V175H419.59V68.5H458.59C492.41 68.5 502.44 83.38 502.44 105.78ZM482.08 105.78C482.08 92.78 478.01 87.3 462.19 87.3H439.95V124.42H462.19C478.01 124.42 482.08 118.31 482.08 105.78Z" fill="black"/>
<path d="M512.62 134.59C512.62 110 526.24 92.77 551.62 92.77C576.99 92.77 590.62 110 590.62 134.59C590.62 159.18 576.99 176.56 551.62 176.56C526.25 176.57 512.62 159.18 512.62 134.59ZM570.25 134.59C570.25 117.36 565.4 111.57 551.61 111.57C537.83 111.57 532.97 117.36 532.97 134.59C532.97 151.82 537.82 157.77 551.61 157.77C565.4 157.77 570.25 151.82 570.25 134.59Z" fill="black"/>
<path d="M603.93 146.03C618.18 154.96 628.68 157.78 640.27 157.78C647.79 157.78 650.92 154.8 650.92 150.89C650.92 146.35 648.1 144.16 635.57 142.12C610.98 138.36 603.93 128.65 603.93 116.28C603.93 100.15 617.4 92.79 634.16 92.79C644.65 92.79 657.34 95.61 665.01 100.93V119.72C653.58 114.08 641.21 111.58 632.59 111.58C626.95 111.58 624.29 113.62 624.29 117.22C624.29 121.14 626.33 123.33 638.86 125.99C662.35 130.84 671.28 135.86 671.28 151.36C671.28 167.33 657.03 176.57 638.7 176.57C626.48 176.57 615.36 174.22 603.93 166.55V146.03Z" fill="black"/>
<path d="M711.99 113.14V156.21H733.44V175H691.63V113.14H679.1V94.35H691.63V65.37H711.99V94.34H733.44V113.13H711.99V113.14Z" fill="black"/>
<path d="M841.35 68.5V175H820.99V132.71H774.16V175H753.8V68.5H774.16V113.92H820.99V68.5H841.35Z" fill="black"/>
<path d="M857.02 134.59C857.02 110 870.64 92.77 896.02 92.77C921.39 92.77 935.02 110 935.02 134.59C935.02 159.18 921.39 176.56 896.02 176.56C870.64 176.57 857.02 159.18 857.02 134.59ZM914.65 134.59C914.65 117.36 909.8 111.57 896.01 111.57C882.22 111.57 877.37 117.36 877.37 134.59C877.37 151.82 882.22 157.77 896.01 157.77C909.8 157.77 914.65 151.82 914.65 134.59Z" fill="black"/>
<path d="M1025.54 94.35V200.06H961.33V181.27H1005.18V159.34C1000.48 164.51 993.59 168.74 982.31 168.74C958.82 168.74 947.54 151.04 947.54 130.68C947.54 110.48 958.82 92.78 982.31 92.78C993.59 92.78 1000.48 97.01 1005.18 102.96V94.35H1025.54ZM1005.18 130.68C1005.18 118.62 1000.33 111.57 986.54 111.57C972.76 111.57 967.9 118.62 967.9 130.68C967.9 142.9 972.76 149.94 986.54 149.94C1000.32 149.94 1005.18 143.68 1005.18 130.68Z" fill="black"/>
<path d="M125 112.5L112.5 87.5L125 62.5L137.5 87.5L125 112.5Z" fill="#F54E00"/>
<path d="M125 175L112.5 150L125 125L137.5 150L125 175Z" fill="#F54E00"/>
<path d="M62.5 112.5L50 87.5L62.5 62.5L75 87.5L62.5 112.5Z" fill="#1D4AFF"/>
<path d="M62.5 175L50 150L62.5 125L75 150L62.5 175Z" fill="#1D4AFF"/>
<path d="M0 125L50 175H0V125ZM0 112.5L62.5 175H112.5L0 62.5V112.5ZM0 50L125 175H175L0 0V50ZM62.5 50L187.5 175V125L62.5 0V50ZM125 0V50L187.5 112.5V62.5L125 0Z" fill="#F9BD2B"/>
<path d="M265.86 140.86L196.34 71.34V175H300V155C287.19 155 274.91 149.91 265.86 140.86ZM226.34 155C220.82 155 216.34 150.52 216.34 145C216.34 139.48 220.82 135 226.34 135C231.86 135 236.34 139.48 236.34 145C236.34 150.52 231.86 155 226.34 155Z" fill="black"/>
<path d="M0 175H50L0 125V175Z" fill="#1D4AFF"/>
<path d="M62.5 62.5L0 0V50L62.5 112.5V62.5Z" fill="#1D4AFF"/>
<path d="M0 62.5V112.5L62.5 175V125L0 62.5Z" fill="#1D4AFF"/>
<path d="M125 62.5L62.5 0V50L125 112.5V62.5Z" fill="#F54E00"/>
<path d="M62.5 175H112.5L62.5 125V175Z" fill="#F54E00"/>
<path d="M62.5 62.5V112.5L125 175V125L62.5 62.5Z" fill="#F54E00"/>
</g>
<defs>
<clipPath id="clip0">
<rect width="1025.54" height="200.06" fill="white"/>
</clipPath>
</defs>
</svg>
