<svg width="54" height="54" viewBox="0 0 54 54" fill="none" xmlns="http://www.w3.org/2000/svg">
<rect width="54" height="54" rx="27" fill="#2A0B46"/>
<path d="M13.0005 30.6479L17.6657 35.3068H13.0005V30.6479ZM13.0005 29.4831L18.8319 35.3068H23.4971L13.0005 24.8242V29.4831ZM13.0005 23.6595L24.6634 35.3068H29.3286L13.0005 19.0006V23.6595ZM18.8319 23.6595L30.4948 35.3068V30.6479L18.8319 19.0006V23.6595ZM24.6634 19.0006V23.6595L30.4948 29.4831V24.8242L24.6634 19.0006Z" fill="white"/>
<path fill-rule="evenodd" clip-rule="evenodd" d="M37.818 32.1281C38.6624 32.9713 39.8082 33.4456 41.0034 33.4456V35.3092H31.3316V25.6503L37.818 32.1281ZM35.0651 32.5125C35.0651 33.0271 34.6473 33.4443 34.132 33.4443C33.6167 33.4443 33.199 33.0271 33.199 32.5125C33.199 31.9979 33.6167 31.5807 34.132 31.5807C34.6473 31.5807 35.0651 31.9979 35.0651 32.5125Z" fill="white"/>
<path d="M13 35.3076H17.6652L13 30.6487V35.3076Z" fill="white"/>
<path d="M18.8324 24.8242L13.001 19.0006V23.6595L18.8324 29.4831V24.8242Z" fill="white"/>
<path d="M13 24.8216V29.4805L18.8315 35.3041V30.6452L13 24.8216Z" fill="white"/>
<path d="M24.6606 24.8236L18.8291 19V23.6589L24.6606 29.4825V24.8236Z" fill="white"/>
<path d="M18.8301 35.307H23.4952L18.8301 30.6481V35.307Z" fill="white"/>
<path d="M18.8301 24.821V29.4799L24.6615 35.3035V30.6446L18.8301 24.821Z" fill="white"/>
</svg>
