<svg width="2630" height="5990" fill="none" xmlns="http://www.w3.org/2000/svg" viewBox="0 0 2630 5990"><g clip-path="url(#clip0)"><circle opacity=".4" cx="797.278" cy="473.278" r="359.778" stroke="#81E1FF" stroke-opacity=".4"/><g opacity=".2" fill="#fff"><path d="M1600.01 306.897l2.22 1.322-1.282 2.289-2.22-1.322zM1248.46 726.079l-2.22-1.322 1.282-2.289 2.22 1.322zM864.524 326.177l-2.22-1.322 1.282-2.289 2.22 1.322zM1983.94 706.799l2.22 1.322-1.282 2.289-2.22-1.322zM1871.45 117.611l-2.22-1.322 1.282-2.289 2.22 1.322zM977.013 915.365l2.22 1.322-1.282 2.289-2.22-1.322zM1384.8 155.99l2.22 1.322-1.282 2.289-2.22-1.322zM1463.66 876.986l-2.22-1.322 1.282-2.289 2.22 1.322zM1079.73 477.084l-2.22-1.322 1.282-2.289 2.22 1.322zM1768.74 555.892l2.22 1.322-1.282 2.289-2.22-1.322zM1525.07 427.701l-2.22-1.322 1.282-2.289 2.22 1.322zM1323.4 605.275l2.22 1.322-1.282 2.289-2.22-1.322zM1056.57 162.158l2.22 1.322-1.282 2.289-2.22-1.322zM1791.9 870.818l-2.22-1.322 1.282-2.289 2.22 1.322zM1407.96 470.916l-2.22-1.322 1.282-2.289 2.22 1.322zM1440.5 562.06l2.22 1.322-1.282 2.289-2.22-1.322zM1853.3 421.533l-2.22-1.322 1.282-2.289 2.22 1.322zM995.163 611.443l2.22 1.322-1.282 2.289-2.22-1.322zM1479.68 155.99l2.22 1.322-1.282 2.289-2.22-1.322zM1368.78 876.986l-2.22-1.322 1.282-2.289 2.22 1.322zM984.85 477.084l-2.22-1.322 1.282-2.289 2.22 1.322zM1863.62 555.892l2.22 1.322-1.282 2.289-2.22-1.322zM1430.19 427.701l-2.22-1.322 1.282-2.289 2.22 1.322zM1418.28 605.275l2.22 1.322-1.282 2.289-2.22-1.322zM777.909 166.564l2.22 1.322-1.282 2.289-2.22-1.322zM2070.55 866.412l-2.22-1.322 1.282-2.289 2.22 1.322zM1686.62 466.51l-2.22-1.322 1.282-2.289 2.22 1.322zM1161.84 566.466l2.22 1.322-1.282 2.289-2.22-1.322zM1717.31 196.521l2.22 1.322-1.282 2.289-2.22-1.322zM1131.16 836.455l-2.22-1.322 1.282-2.289 2.22 1.322zM747.221 436.552l-2.22-1.322 1.282-2.289 2.22 1.322zM1754.15 227.987l-2.22-1.322 1.282-2.289 2.22 1.322zM1094.32 804.989l2.22 1.322-1.282 2.289-2.22-1.322zM1642.75 254.03l2.22 1.322-1.282 2.289-2.22-1.322zM1205.72 778.946l-2.22-1.322 1.282-2.289 2.22 1.322zM821.785 379.044l-2.22-1.322 1.282-2.289 2.22 1.322zM2026.68 653.932l2.22 1.322-1.282 2.289-2.22-1.322zM1828.71 170.479l-2.22-1.322 1.282-2.289 2.22 1.322zM1019.75 862.498l2.22 1.322-1.282 2.289-2.22-1.322zM1112.78 192.352l2.22 1.322-1.282 2.289-2.22-1.322zM1735.68 840.624l-2.22-1.322 1.282-2.289 2.22 1.322zM1351.75 440.722l-2.22-1.322 1.282-2.289 2.22 1.322zM1496.72 592.255l2.22 1.322-1.282 2.289-2.22-1.322zM1235.83 321.199l-2.22-1.322 1.282-2.289 2.22 1.322zM1051.38 641.637l2.22 1.322-1.282 2.289-2.22-1.322zM1198.26 227.596l2.22 1.322-1.282 2.289-2.22-1.322zM1650.2 805.379l-2.22-1.322 1.282-2.289 2.22 1.322zM1266.27 405.478l-2.22-1.322 1.282-2.289 2.22 1.322zM1582.2 627.499l2.22 1.322-1.282 2.289-2.22-1.322zM1711.61 356.094l-2.22-1.322 1.282-2.289 2.22 1.322zM1136.86 676.882l2.22 1.322-1.282 2.289-2.22-1.322zM827.487 152.465l2.22 1.322-1.282 2.289-2.22-1.322zM2020.98 880.51l-2.22-1.322 1.282-2.289 2.22 1.322zM1637.04 480.608l-2.22-1.322 1.282-2.289 2.22 1.322zM1211.42 552.368l2.22 1.322-1.282 2.289-2.22-1.322zM2082.38 431.225l-2.22-1.322 1.282-2.289 2.22 1.322zM766.083 601.751l2.22 1.322-1.282 2.289-2.22-1.322zM1557.27 165.918l2.22 1.322-1.282 2.289-2.22-1.322zM1291.2 867.057l-2.22-1.322 1.282-2.289 2.22 1.322zM907.263 467.156l-2.22-1.322 1.282-2.289 2.22 1.322zM1941.2 565.82l2.22 1.322-1.282 2.289-2.22-1.322zM1914.19 258.59l-2.22-1.322 1.282-2.289 2.22 1.322zM936.243 770.871l5.63 3.35-3.25 5.805-5.63-3.351zM2062.38 114.977l5.63 3.35-3.25 5.805-5.63-3.351zM1887.13 296.083l5.63 3.35-3.25 5.805-5.63-3.351zM1740.19 674.407l5.63 3.35-3.25 5.805-5.63-3.351zM1300.83 165.918l2.22 1.322-1.282 2.289-2.22-1.322zM1547.63 867.057l-2.22-1.322 1.282-2.289 2.22 1.322zM1163.7 467.156l-2.22-1.322 1.282-2.289 2.22 1.322zM1684.77 565.82l2.22 1.322-1.282 2.289-2.22-1.322zM1609.04 417.773l-2.22-1.322 1.282-2.289 2.22 1.322zM1239.43 615.203l2.22 1.322-1.282 2.289-2.22-1.322zM950.377 165.918l2.22 1.322-1.282 2.289-2.22-1.322zM1898.09 867.057l-2.22-1.322 1.282-2.289 2.22 1.322zM1514.16 467.156l-2.22-1.322 1.282-2.289 2.22 1.322zM1334.31 565.82l2.22 1.322-1.282 2.289-2.22-1.322zM1959.49 417.773l-2.22-1.322 1.282-2.289 2.22 1.322zM888.971 615.203l2.22 1.322-1.282 2.289-2.22-1.322zM1634.2 183.541l2.22 1.322-1.282 2.289-2.22-1.322zM1214.27 849.435l-2.22-1.322 1.282-2.289 2.22 1.322zM830.333 449.533l-2.22-1.322 1.282-2.289 2.22 1.322zM2018.13 583.443l2.22 1.322-1.282 2.289-2.22-1.322zM1837.26 240.968l-2.22-1.322 1.282-2.289 2.22 1.322zM1011.21 792.009l2.22 1.322-1.282 2.289-2.22-1.322zM1429.05 183.541l2.22 1.322-1.282 2.289-2.22-1.322zM1419.41 849.435l-2.22-1.322 1.282-2.289 2.22 1.322zM1035.48 449.533l-2.22-1.322 1.282-2.289 2.22 1.322zM1812.99 583.443l2.22 1.322-1.282 2.289-2.22-1.322zM1480.82 400.15l-2.22-1.322 1.282-2.289 2.22 1.322zM1367.65 632.826l2.22 1.322-1.282 2.289-2.22-1.322zM1027.31 183.541l2.22 1.322-1.282 2.289-2.22-1.322zM1821.16 849.435l-2.22-1.322 1.282-2.289 2.22 1.322zM1437.23 449.533l-2.22-1.322 1.282-2.289 2.22 1.322zM1367.81 327.15l2.22 1.322-1.282 2.289-2.22-1.322zM1882.56 400.15l-2.22-1.322 1.282-2.289 2.22 1.322zM965.902 632.826l2.22 1.322-1.282 2.289-2.22-1.322zM1685.49 280.464l2.22 1.322-1.282 2.289-2.22-1.322zM1162.98 752.512l-2.22-1.322 1.282-2.289 2.22 1.322zM779.046 352.61l-2.22-1.322 1.282-2.289 2.22 1.322zM2069.42 680.365l2.22 1.322-1.282 2.289-2.22-1.322zM1785.97 144.045l-2.22-1.322 1.282-2.289 2.22 1.322zM1062.49 888.931l2.22 1.322-1.282 2.289-2.22-1.322zM1239.49 215.906l2.22 1.322-1.282 2.289-2.22-1.322zM1608.98 817.071l-2.22-1.322 1.282-2.289 2.22 1.322zM1225.04 417.168l-2.22-1.322 1.282-2.289 2.22 1.322zM1623.42 615.808l2.22 1.322-1.282 2.289-2.22-1.322zM1670.38 367.785l-2.22-1.322 1.282-2.289 2.22 1.322zM1178.08 665.19l2.22 1.322-1.282 2.289-2.22-1.322z"/></g><g opacity=".2" fill="#fff"><path d="M1600.01 1141.87l2.22 1.322-1.282 2.289-2.22-1.322zM1248.46 1561.05l-2.22-1.322 1.282-2.289 2.22 1.322zM864.524 1161.15l-2.22-1.322 1.282-2.289 2.22 1.322zM1983.94 1541.77l2.22 1.322-1.282 2.289-2.22-1.322zM1871.45 952.586l-2.22-1.322 1.282-2.289 2.22 1.322zM977.013 1750.34l2.22 1.322-1.282 2.289-2.22-1.322zM1384.8 990.964l2.22 1.322-1.282 2.289-2.22-1.322zM1463.66 1711.96l-2.22-1.322 1.282-2.289 2.22 1.322zM1079.73 1312.06l-2.22-1.322 1.282-2.289 2.22 1.322zM1768.74 1390.87l2.22 1.322-1.282 2.289-2.22-1.322zM1525.07 1262.68l-2.22-1.322 1.282-2.289 2.22 1.322zM1323.4 1440.25l2.22 1.322-1.282 2.289-2.22-1.322zM1056.57 997.132l2.22 1.322-1.282 2.289-2.22-1.322zM1791.9 1705.79l-2.22-1.322 1.282-2.289 2.22 1.322zM1407.96 1305.89l-2.22-1.322 1.282-2.289 2.22 1.322zM1440.5 1397.03l2.22 1.322-1.282 2.289-2.22-1.322zM1853.3 1256.51l-2.22-1.322 1.282-2.289 2.22 1.322zM995.163 1446.42l2.22 1.322-1.282 2.289-2.22-1.322zM1479.68 990.964l2.22 1.322-1.282 2.289-2.22-1.322zM1368.78 1711.96l-2.22-1.322 1.282-2.289 2.22 1.322zM984.85 1312.06l-2.22-1.322 1.282-2.289 2.22 1.322zM1863.62 1390.87l2.22 1.322-1.282 2.289-2.22-1.322zM1430.19 1262.68l-2.22-1.322 1.282-2.289 2.22 1.322zM1418.28 1440.25l2.22 1.322-1.282 2.289-2.22-1.322zM777.909 1001.54l2.22 1.322-1.282 2.289-2.22-1.322zM2070.55 1701.39l-2.22-1.322 1.282-2.289 2.22 1.322zM1686.62 1301.49l-2.22-1.322 1.282-2.289 2.22 1.322zM1161.84 1401.44l2.22 1.322-1.282 2.289-2.22-1.322zM1717.31 1031.5l2.22 1.322-1.282 2.289-2.22-1.322zM1131.16 1671.43l-2.22-1.322 1.282-2.289 2.22 1.322zM747.221 1271.53l-2.22-1.322 1.282-2.289 2.22 1.322zM1754.15 1062.96l-2.22-1.322 1.282-2.289 2.22 1.322zM1094.32 1639.96l2.22 1.322-1.282 2.289-2.22-1.322zM1642.75 1089l2.22 1.322-1.282 2.289-2.22-1.322zM1205.72 1613.92l-2.22-1.322 1.282-2.289 2.22 1.322zM821.785 1214.02l-2.22-1.322 1.282-2.289 2.22 1.322zM2026.68 1488.91l2.22 1.322-1.282 2.289-2.22-1.322zM1828.71 1005.45l-2.22-1.322 1.282-2.289 2.22 1.322zM1019.75 1697.47l2.22 1.322-1.282 2.289-2.22-1.322zM1112.78 1027.33l2.22 1.322-1.282 2.289-2.22-1.322zM1735.68 1675.6l-2.22-1.322 1.282-2.289 2.22 1.322zM1351.75 1275.7l-2.22-1.322 1.282-2.289 2.22 1.322zM1496.72 1427.23l2.22 1.322-1.282 2.289-2.22-1.322zM1235.83 1156.17l-2.22-1.322 1.282-2.289 2.22 1.322zM1051.38 1476.61l2.22 1.322-1.282 2.289-2.22-1.322zM1198.26 1062.57l2.22 1.322-1.282 2.289-2.22-1.322zM1650.2 1640.35l-2.22-1.322 1.282-2.289 2.22 1.322zM1266.27 1240.45l-2.22-1.322 1.282-2.289 2.22 1.322zM1582.2 1462.47l2.22 1.322-1.282 2.289-2.22-1.322zM1711.61 1191.07l-2.22-1.322 1.282-2.289 2.22 1.322zM1136.86 1511.86l2.22 1.322-1.282 2.289-2.22-1.322zM827.487 987.44l2.22 1.322-1.282 2.289-2.22-1.322zM2020.98 1715.49l-2.22-1.322 1.282-2.289 2.22 1.322zM1637.04 1315.58l-2.22-1.322 1.282-2.289 2.22 1.322zM1211.42 1387.34l2.22 1.322-1.282 2.289-2.22-1.322zM2082.38 1266.2l-2.22-1.322 1.282-2.289 2.22 1.322zM766.083 1436.73l2.22 1.322-1.282 2.289-2.22-1.322zM1557.27 1000.89l2.22 1.322-1.282 2.289-2.22-1.322zM1291.2 1702.03l-2.22-1.322 1.282-2.289 2.22 1.322zM907.263 1302.13l-2.22-1.322 1.282-2.289 2.22 1.322zM1941.2 1400.8l2.22 1.322-1.282 2.289-2.22-1.322zM1914.19 1093.56l-2.22-1.322 1.282-2.289 2.22 1.322zM936.243 1605.85l5.63 3.35-3.25 5.805-5.63-3.351zM2062.38 949.952l5.63 3.35-3.25 5.805-5.63-3.351zM1887.13 1131.06l5.63 3.35-3.25 5.805-5.63-3.351zM1740.19 1509.38l5.63 3.35-3.25 5.805-5.63-3.351zM1300.83 1000.89l2.22 1.322-1.282 2.289-2.22-1.322zM1547.63 1702.03l-2.22-1.322 1.282-2.289 2.22 1.322zM1163.7 1302.13l-2.22-1.322 1.282-2.289 2.22 1.322zM1684.77 1400.8l2.22 1.322-1.282 2.289-2.22-1.322zM1609.04 1252.75l-2.22-1.322 1.282-2.289 2.22 1.322zM1239.43 1450.18l2.22 1.322-1.282 2.289-2.22-1.322zM950.377 1000.89l2.22 1.322-1.282 2.289-2.22-1.322zM1898.09 1702.03l-2.22-1.322 1.282-2.289 2.22 1.322zM1514.16 1302.13l-2.22-1.322 1.282-2.289 2.22 1.322zM1334.31 1400.8l2.22 1.322-1.282 2.289-2.22-1.322zM1959.49 1252.75l-2.22-1.322 1.282-2.289 2.22 1.322zM888.971 1450.18l2.22 1.322-1.282 2.289-2.22-1.322zM1634.2 1018.52l2.22 1.322-1.282 2.289-2.22-1.322zM1214.27 1684.41l-2.22-1.322 1.282-2.289 2.22 1.322zM830.333 1284.51l-2.22-1.322 1.282-2.289 2.22 1.322zM2018.13 1418.42l2.22 1.322-1.282 2.289-2.22-1.322zM1837.26 1075.94l-2.22-1.322 1.282-2.289 2.22 1.322zM1011.21 1626.98l2.22 1.322-1.282 2.289-2.22-1.322zM1429.05 1018.52l2.22 1.322-1.282 2.289-2.22-1.322zM1419.41 1684.41l-2.22-1.322 1.282-2.289 2.22 1.322zM1035.48 1284.51l-2.22-1.322 1.282-2.289 2.22 1.322zM1812.99 1418.42l2.22 1.322-1.282 2.289-2.22-1.322zM1480.82 1235.12l-2.22-1.322 1.282-2.289 2.22 1.322zM1367.65 1467.8l2.22 1.322-1.282 2.289-2.22-1.322zM1027.31 1018.52l2.22 1.322-1.282 2.289-2.22-1.322zM1821.16 1684.41l-2.22-1.322 1.282-2.289 2.22 1.322zM1437.23 1284.51l-2.22-1.322 1.282-2.289 2.22 1.322zM1367.81 1162.12l2.22 1.322-1.282 2.289-2.22-1.322zM1882.56 1235.12l-2.22-1.322 1.282-2.289 2.22 1.322zM965.902 1467.8l2.22 1.322-1.282 2.289-2.22-1.322zM1685.49 1115.44l2.22 1.322-1.282 2.289-2.22-1.322zM1162.98 1587.49l-2.22-1.322 1.282-2.289 2.22 1.322zM779.046 1187.59l-2.22-1.322 1.282-2.289 2.22 1.322zM2069.42 1515.34l2.22 1.322-1.282 2.289-2.22-1.322zM1785.97 979.02l-2.22-1.322 1.282-2.289 2.22 1.322zM1062.49 1723.91l2.22 1.322-1.282 2.289-2.22-1.322zM1239.49 1050.88l2.22 1.322-1.282 2.289-2.22-1.322zM1608.98 1652.05l-2.22-1.322 1.282-2.289 2.22 1.322zM1225.04 1252.14l-2.22-1.322 1.282-2.289 2.22 1.322zM1623.42 1450.78l2.22 1.322-1.282 2.289-2.22-1.322zM1670.38 1202.76l-2.22-1.322 1.282-2.289 2.22 1.322zM1178.08 1500.17l2.22 1.322-1.282 2.289-2.22-1.322z"/></g><g opacity=".2" fill="#fff"><path d="M1600.01 1976.85l2.22 1.322-1.282 2.289-2.22-1.322zM1248.46 2396.03l-2.22-1.322 1.282-2.289 2.22 1.322zM864.524 1996.13l-2.22-1.322 1.282-2.289 2.22 1.322zM1983.94 2376.75l2.22 1.322-1.282 2.289-2.22-1.322zM1871.45 1787.56l-2.22-1.322 1.282-2.289 2.22 1.322zM977.013 2585.31l2.22 1.322-1.282 2.289-2.22-1.322zM1384.8 1825.94l2.22 1.322-1.282 2.289-2.22-1.322zM1463.66 2546.94l-2.22-1.322 1.282-2.289 2.22 1.322zM1079.73 2147.03l-2.22-1.322 1.282-2.289 2.22 1.322zM1768.74 2225.84l2.22 1.322-1.282 2.289-2.22-1.322zM1525.07 2097.65l-2.22-1.322 1.282-2.289 2.22 1.322zM1323.4 2275.22l2.22 1.322-1.282 2.289-2.22-1.322zM1056.57 1832.11l2.22 1.322-1.282 2.289-2.22-1.322zM1791.9 2540.77l-2.22-1.322 1.282-2.289 2.22 1.322zM1407.96 2140.87l-2.22-1.322 1.282-2.289 2.22 1.322zM1440.5 2232.01l2.22 1.322-1.282 2.289-2.22-1.322zM1853.3 2091.48l-2.22-1.322 1.282-2.289 2.22 1.322zM995.163 2281.39l2.22 1.322-1.282 2.289-2.22-1.322zM1479.68 1825.94l2.22 1.322-1.282 2.289-2.22-1.322zM1368.78 2546.94l-2.22-1.322 1.282-2.289 2.22 1.322zM984.85 2147.03l-2.22-1.322 1.282-2.289 2.22 1.322zM1863.62 2225.84l2.22 1.322-1.282 2.289-2.22-1.322zM1430.19 2097.65l-2.22-1.322 1.282-2.289 2.22 1.322zM1418.28 2275.22l2.22 1.322-1.282 2.289-2.22-1.322zM777.909 1836.51l2.22 1.322-1.282 2.289-2.22-1.322zM2070.55 2536.36l-2.22-1.322 1.282-2.289 2.22 1.322zM1686.62 2136.46l-2.22-1.322 1.282-2.289 2.22 1.322zM1161.84 2236.42l2.22 1.322-1.282 2.289-2.22-1.322zM1717.31 1866.47l2.22 1.322-1.282 2.289-2.22-1.322zM1131.16 2506.4l-2.22-1.322 1.282-2.289 2.22 1.322zM747.221 2106.5l-2.22-1.322 1.282-2.289 2.22 1.322zM1754.15 1897.94l-2.22-1.322 1.282-2.289 2.22 1.322zM1094.32 2474.94l2.22 1.322-1.282 2.289-2.22-1.322zM1642.75 1923.98l2.22 1.322-1.282 2.289-2.22-1.322zM1205.72 2448.9l-2.22-1.322 1.282-2.289 2.22 1.322zM821.785 2048.99l-2.22-1.322 1.282-2.289 2.22 1.322zM2026.68 2323.88l2.22 1.322-1.282 2.289-2.22-1.322zM1828.71 1840.43l-2.22-1.322 1.282-2.289 2.22 1.322zM1019.75 2532.45l2.22 1.322-1.282 2.289-2.22-1.322zM1112.78 1862.3l2.22 1.322-1.282 2.289-2.22-1.322zM1735.68 2510.57l-2.22-1.322 1.282-2.289 2.22 1.322zM1351.75 2110.67l-2.22-1.322 1.282-2.289 2.22 1.322zM1496.72 2262.2l2.22 1.322-1.282 2.289-2.22-1.322zM1235.83 1991.15l-2.22-1.322 1.282-2.289 2.22 1.322zM1051.38 2311.59l2.22 1.322-1.282 2.289-2.22-1.322zM1198.26 1897.55l2.22 1.322-1.282 2.289-2.22-1.322zM1650.2 2475.33l-2.22-1.322 1.282-2.289 2.22 1.322zM1266.27 2075.43l-2.22-1.322 1.282-2.289 2.22 1.322zM1582.2 2297.45l2.22 1.322-1.282 2.289-2.22-1.322zM1711.61 2026.04l-2.22-1.322 1.282-2.289 2.22 1.322zM1136.86 2346.83l2.22 1.322-1.282 2.289-2.22-1.322zM827.487 1822.42l2.22 1.322-1.282 2.289-2.22-1.322zM2020.98 2550.46l-2.22-1.322 1.282-2.289 2.22 1.322zM1637.04 2150.56l-2.22-1.322 1.282-2.289 2.22 1.322zM1211.42 2222.32l2.22 1.322-1.282 2.289-2.22-1.322zM2082.38 2101.17l-2.22-1.322 1.282-2.289 2.22 1.322zM766.083 2271.7l2.22 1.322-1.282 2.289-2.22-1.322zM1557.27 1835.87l2.22 1.322-1.282 2.289-2.22-1.322zM1291.2 2537.01l-2.22-1.322 1.282-2.289 2.22 1.322zM907.263 2137.11l-2.22-1.322 1.282-2.289 2.22 1.322zM1941.2 2235.77l2.22 1.322-1.282 2.289-2.22-1.322zM1914.19 1928.54l-2.22-1.322 1.282-2.289 2.22 1.322zM936.243 2440.82l5.63 3.35-3.25 5.805-5.63-3.351zM2062.38 1784.93l5.63 3.35-3.25 5.805-5.63-3.351zM1887.13 1966.03l5.63 3.35-3.25 5.805-5.63-3.351zM1740.19 2344.36l5.63 3.35-3.25 5.805-5.63-3.351zM1300.83 1835.87l2.22 1.322-1.282 2.289-2.22-1.322zM1547.63 2537.01l-2.22-1.322 1.282-2.289 2.22 1.322zM1163.7 2137.11l-2.22-1.322 1.282-2.289 2.22 1.322zM1684.77 2235.77l2.22 1.322-1.282 2.289-2.22-1.322zM1609.04 2087.72l-2.22-1.322 1.282-2.289 2.22 1.322zM1239.43 2285.15l2.22 1.322-1.282 2.289-2.22-1.322zM950.377 1835.87l2.22 1.322-1.282 2.289-2.22-1.322zM1898.09 2537.01l-2.22-1.322 1.282-2.289 2.22 1.322zM1514.16 2137.11l-2.22-1.322 1.282-2.289 2.22 1.322zM1334.31 2235.77l2.22 1.322-1.282 2.289-2.22-1.322zM1959.49 2087.72l-2.22-1.322 1.282-2.289 2.22 1.322zM888.971 2285.15l2.22 1.322-1.282 2.289-2.22-1.322zM1634.2 1853.49l2.22 1.322-1.282 2.289-2.22-1.322zM1214.27 2519.38l-2.22-1.322 1.282-2.289 2.22 1.322zM830.333 2119.48l-2.22-1.322 1.282-2.289 2.22 1.322zM2018.13 2253.39l2.22 1.322-1.282 2.289-2.22-1.322zM1837.26 1910.92l-2.22-1.322 1.282-2.289 2.22 1.322zM1011.21 2461.96l2.22 1.322-1.282 2.289-2.22-1.322zM1429.05 1853.49l2.22 1.322-1.282 2.289-2.22-1.322zM1419.41 2519.38l-2.22-1.322 1.282-2.289 2.22 1.322zM1035.48 2119.48l-2.22-1.322 1.282-2.289 2.22 1.322zM1812.99 2253.39l2.22 1.322-1.282 2.289-2.22-1.322zM1480.82 2070.1l-2.22-1.322 1.282-2.289 2.22 1.322zM1367.65 2302.78l2.22 1.322-1.282 2.289-2.22-1.322zM1027.31 1853.49l2.22 1.322-1.282 2.289-2.22-1.322zM1821.16 2519.38l-2.22-1.322 1.282-2.289 2.22 1.322zM1437.23 2119.48l-2.22-1.322 1.282-2.289 2.22 1.322zM1367.81 1997.1l2.22 1.322-1.282 2.289-2.22-1.322zM1882.56 2070.1l-2.22-1.322 1.282-2.289 2.22 1.322zM965.902 2302.78l2.22 1.322-1.282 2.289-2.22-1.322zM1685.49 1950.41l2.22 1.322-1.282 2.289-2.22-1.322zM1162.98 2422.46l-2.22-1.322 1.282-2.289 2.22 1.322zM779.046 2022.56l-2.22-1.322 1.282-2.289 2.22 1.322zM2069.42 2350.32l2.22 1.322-1.282 2.289-2.22-1.322zM1785.97 1813.99l-2.22-1.322 1.282-2.289 2.22 1.322zM1062.49 2558.88l2.22 1.322-1.282 2.289-2.22-1.322zM1239.49 1885.86l2.22 1.322-1.282 2.289-2.22-1.322zM1608.98 2487.02l-2.22-1.322 1.282-2.289 2.22 1.322zM1225.04 2087.12l-2.22-1.322 1.282-2.289 2.22 1.322zM1623.42 2285.76l2.22 1.322-1.282 2.289-2.22-1.322zM1670.38 2037.73l-2.22-1.322 1.282-2.289 2.22 1.322zM1178.08 2335.14l2.22 1.322-1.282 2.289-2.22-1.322z"/></g><g opacity=".15" fill="#fff"><path d="M1600.01 2811.82l2.22 1.322-1.282 2.289-2.22-1.322zM1248.46 3231l-2.22-1.322 1.282-2.289 2.22 1.322zM864.524 2831.1l-2.22-1.322 1.282-2.289 2.22 1.322zM1983.94 3211.72l2.22 1.322-1.282 2.289-2.22-1.322zM1871.45 2622.54l-2.22-1.322 1.282-2.289 2.22 1.322zM977.013 3420.29l2.22 1.322-1.282 2.289-2.22-1.322zM1384.8 2660.91l2.22 1.322-1.282 2.289-2.22-1.322zM1463.66 3381.91l-2.22-1.322 1.282-2.289 2.22 1.322zM1079.73 2982.01l-2.22-1.322 1.282-2.289 2.22 1.322zM1768.74 3060.82l2.22 1.322-1.282 2.289-2.22-1.322zM1525.07 2932.63l-2.22-1.322 1.282-2.289 2.22 1.322zM1323.4 3110.2l2.22 1.322-1.282 2.289-2.22-1.322zM1056.57 2667.08l2.22 1.322-1.282 2.289-2.22-1.322zM1791.9 3375.74l-2.22-1.322 1.282-2.289 2.22 1.322zM1407.96 2975.84l-2.22-1.322 1.282-2.289 2.22 1.322zM1440.5 3066.98l2.22 1.322-1.282 2.289-2.22-1.322zM1853.3 2926.46l-2.22-1.322 1.282-2.289 2.22 1.322zM995.163 3116.37l2.22 1.322-1.282 2.289-2.22-1.322zM1479.68 2660.91l2.22 1.322-1.282 2.289-2.22-1.322zM1368.78 3381.91l-2.22-1.322 1.282-2.289 2.22 1.322zM984.85 2982.01l-2.22-1.322 1.282-2.289 2.22 1.322zM1863.62 3060.82l2.22 1.322-1.282 2.289-2.22-1.322zM1430.19 2932.63l-2.22-1.322 1.282-2.289 2.22 1.322zM1418.28 3110.2l2.22 1.322-1.282 2.289-2.22-1.322zM777.909 2671.49l2.22 1.322-1.282 2.289-2.22-1.322zM2070.55 3371.34l-2.22-1.322 1.282-2.289 2.22 1.322zM1686.62 2971.43l-2.22-1.322 1.282-2.289 2.22 1.322zM1161.84 3071.39l2.22 1.322-1.282 2.289-2.22-1.322zM1717.31 2701.45l2.22 1.322-1.282 2.289-2.22-1.322zM1131.16 3341.38l-2.22-1.322 1.282-2.289 2.22 1.322zM747.221 2941.48l-2.22-1.322 1.282-2.289 2.22 1.322zM1754.15 2732.91l-2.22-1.322 1.282-2.289 2.22 1.322zM1094.32 3309.91l2.22 1.322-1.282 2.289-2.22-1.322zM1642.75 2758.95l2.22 1.322-1.282 2.289-2.22-1.322zM1205.72 3283.87l-2.22-1.322 1.282-2.289 2.22 1.322zM821.785 2883.97l-2.22-1.322 1.282-2.289 2.22 1.322zM2026.68 3158.86l2.22 1.322-1.282 2.289-2.22-1.322zM1828.71 2675.4l-2.22-1.322 1.282-2.289 2.22 1.322zM1019.75 3367.42l2.22 1.322-1.282 2.289-2.22-1.322zM1112.78 2697.28l2.22 1.322-1.282 2.289-2.22-1.322zM1735.68 3345.55l-2.22-1.322 1.282-2.289 2.22 1.322zM1351.75 2945.65l-2.22-1.322 1.282-2.289 2.22 1.322zM1496.72 3097.18l2.22 1.322-1.282 2.289-2.22-1.322zM1235.83 2826.12l-2.22-1.322 1.282-2.289 2.22 1.322zM1051.38 3146.56l2.22 1.322-1.282 2.289-2.22-1.322zM1198.26 2732.52l2.22 1.322-1.282 2.289-2.22-1.322zM1650.2 3310.3l-2.22-1.322 1.282-2.289 2.22 1.322zM1266.27 2910.4l-2.22-1.322 1.282-2.289 2.22 1.322zM1582.2 3132.42l2.22 1.322-1.282 2.289-2.22-1.322zM1711.61 2861.02l-2.22-1.322 1.282-2.289 2.22 1.322zM1136.86 3181.81l2.22 1.322-1.282 2.289-2.22-1.322zM827.487 2657.39l2.22 1.322-1.282 2.289-2.22-1.322zM2020.98 3385.43l-2.22-1.322 1.282-2.289 2.22 1.322zM1637.04 2985.53l-2.22-1.322 1.282-2.289 2.22 1.322zM1211.42 3057.29l2.22 1.322-1.282 2.289-2.22-1.322zM2082.38 2936.15l-2.22-1.322 1.282-2.289 2.22 1.322zM766.083 3106.68l2.22 1.322-1.282 2.289-2.22-1.322zM1557.27 2670.84l2.22 1.322-1.282 2.289-2.22-1.322zM1291.2 3371.98l-2.22-1.322 1.282-2.289 2.22 1.322zM907.263 2972.08l-2.22-1.322 1.282-2.289 2.22 1.322zM1941.2 3070.74l2.22 1.322-1.282 2.289-2.22-1.322zM1914.19 2763.51l-2.22-1.322 1.282-2.289 2.22 1.322zM936.243 3275.8l5.63 3.35-3.25 5.805-5.63-3.351zM2062.38 2619.9l5.63 3.35-3.25 5.805-5.63-3.351zM1887.13 2801.01l5.63 3.35-3.25 5.805-5.63-3.351zM1740.19 3179.33l5.63 3.35-3.25 5.805-5.63-3.351zM1300.83 2670.84l2.22 1.322-1.282 2.289-2.22-1.322zM1547.63 3371.98l-2.22-1.322 1.282-2.289 2.22 1.322zM1163.7 2972.08l-2.22-1.322 1.282-2.289 2.22 1.322zM1684.77 3070.74l2.22 1.322-1.282 2.289-2.22-1.322zM1609.04 2922.7l-2.22-1.322 1.282-2.289 2.22 1.322zM1239.43 3120.13l2.22 1.322-1.282 2.289-2.22-1.322zM950.377 2670.84l2.22 1.322-1.282 2.289-2.22-1.322zM1898.09 3371.98l-2.22-1.322 1.282-2.289 2.22 1.322zM1514.16 2972.08l-2.22-1.322 1.282-2.289 2.22 1.322zM1334.31 3070.74l2.22 1.322-1.282 2.289-2.22-1.322zM1959.49 2922.7l-2.22-1.322 1.282-2.289 2.22 1.322zM888.971 3120.13l2.22 1.322-1.282 2.289-2.22-1.322zM1634.2 2688.47l2.22 1.322-1.282 2.289-2.22-1.322zM1214.27 3354.36l-2.22-1.322 1.282-2.289 2.22 1.322zM830.333 2954.46l-2.22-1.322 1.282-2.289 2.22 1.322zM2018.13 3088.37l2.22 1.322-1.282 2.289-2.22-1.322zM1837.26 2745.89l-2.22-1.322 1.282-2.289 2.22 1.322zM1011.21 3296.93l2.22 1.322-1.282 2.289-2.22-1.322zM1429.05 2688.47l2.22 1.322-1.282 2.289-2.22-1.322zM1419.41 3354.36l-2.22-1.322 1.282-2.289 2.22 1.322zM1035.48 2954.46l-2.22-1.322 1.282-2.289 2.22 1.322zM1812.99 3088.37l2.22 1.322-1.282 2.289-2.22-1.322zM1480.82 2905.07l-2.22-1.322 1.282-2.289 2.22 1.322zM1367.65 3137.75l2.22 1.322-1.282 2.289-2.22-1.322zM1027.31 2688.47l2.22 1.322-1.282 2.289-2.22-1.322zM1821.16 3354.36l-2.22-1.322 1.282-2.289 2.22 1.322zM1437.23 2954.46l-2.22-1.322 1.282-2.289 2.22 1.322zM1367.81 2832.07l2.22 1.322-1.282 2.289-2.22-1.322zM1882.56 2905.07l-2.22-1.322 1.282-2.289 2.22 1.322zM965.902 3137.75l2.22 1.322-1.282 2.289-2.22-1.322zM1685.49 2785.39l2.22 1.322-1.282 2.289-2.22-1.322zM1162.98 3257.44l-2.22-1.322 1.282-2.289 2.22 1.322zM779.046 2857.53l-2.22-1.322 1.282-2.289 2.22 1.322zM2069.42 3185.29l2.22 1.322-1.282 2.289-2.22-1.322zM1785.97 2648.97l-2.22-1.322 1.282-2.289 2.22 1.322zM1062.49 3393.86l2.22 1.322-1.282 2.289-2.22-1.322zM1239.49 2720.83l2.22 1.322-1.282 2.289-2.22-1.322zM1608.98 3322l-2.22-1.322 1.282-2.289 2.22 1.322zM1225.04 2922.09l-2.22-1.322 1.282-2.289 2.22 1.322zM1623.42 3120.73l2.22 1.322-1.282 2.289-2.22-1.322zM1670.38 2872.71l-2.22-1.322 1.282-2.289 2.22 1.322zM1178.08 3170.12l2.22 1.322-1.282 2.289-2.22-1.322z"/></g><g opacity=".15" fill="#fff"><path d="M1600.01 3646.8l2.22 1.322-1.282 2.289-2.22-1.322zM1248.46 4065.98l-2.22-1.322 1.282-2.289 2.22 1.322zM864.524 3666.08l-2.22-1.322 1.282-2.289 2.22 1.322zM1983.94 4046.7l2.22 1.322-1.282 2.289-2.22-1.322zM1871.45 3457.51l-2.22-1.322 1.282-2.289 2.22 1.322zM977.013 4255.26l2.22 1.322-1.282 2.289-2.22-1.322zM1384.8 3495.89l2.22 1.322-1.282 2.289-2.22-1.322zM1463.66 4216.89l-2.22-1.322 1.282-2.289 2.22 1.322zM1079.73 3816.98l-2.22-1.322 1.282-2.289 2.22 1.322zM1768.74 3895.79l2.22 1.322-1.282 2.289-2.22-1.322zM1525.07 3767.6l-2.22-1.322 1.282-2.289 2.22 1.322zM1323.4 3945.17l2.22 1.322-1.282 2.289-2.22-1.322zM1056.57 3502.06l2.22 1.322-1.282 2.289-2.22-1.322zM1791.9 4210.72l-2.22-1.322 1.282-2.289 2.22 1.322zM1407.96 3810.82l-2.22-1.322 1.282-2.289 2.22 1.322zM1440.5 3901.96l2.22 1.322-1.282 2.289-2.22-1.322zM1853.3 3761.43l-2.22-1.322 1.282-2.289 2.22 1.322zM995.163 3951.34l2.22 1.322-1.282 2.289-2.22-1.322zM1479.68 3495.89l2.22 1.322-1.282 2.289-2.22-1.322zM1368.78 4216.89l-2.22-1.322 1.282-2.289 2.22 1.322zM984.85 3816.98l-2.22-1.322 1.282-2.289 2.22 1.322zM1863.62 3895.79l2.22 1.322-1.282 2.289-2.22-1.322zM1430.19 3767.6l-2.22-1.322 1.282-2.289 2.22 1.322zM1418.28 3945.17l2.22 1.322-1.282 2.289-2.22-1.322zM777.909 3506.46l2.22 1.322-1.282 2.289-2.22-1.322zM2070.55 4206.31l-2.22-1.322 1.282-2.289 2.22 1.322zM1686.62 3806.41l-2.22-1.322 1.282-2.289 2.22 1.322zM1161.84 3906.36l2.22 1.322-1.282 2.289-2.22-1.322zM1717.31 3536.42l2.22 1.322-1.282 2.289-2.22-1.322zM1131.16 4176.35l-2.22-1.322 1.282-2.289 2.22 1.322zM747.221 3776.45l-2.22-1.322 1.282-2.289 2.22 1.322zM1754.15 3567.89l-2.22-1.322 1.282-2.289 2.22 1.322zM1094.32 4144.89l2.22 1.322-1.282 2.289-2.22-1.322zM1642.75 3593.93l2.22 1.322-1.282 2.289-2.22-1.322zM1205.72 4118.85l-2.22-1.322 1.282-2.289 2.22 1.322zM821.785 3718.94l-2.22-1.322 1.282-2.289 2.22 1.322zM2026.68 3993.83l2.22 1.322-1.282 2.289-2.22-1.322zM1828.71 3510.38l-2.22-1.322 1.282-2.289 2.22 1.322zM1019.75 4202.4l2.22 1.322-1.282 2.289-2.22-1.322zM1112.78 3532.25l2.22 1.322-1.282 2.289-2.22-1.322zM1735.68 4180.52l-2.22-1.322 1.282-2.289 2.22 1.322zM1351.75 3780.62l-2.22-1.322 1.282-2.289 2.22 1.322zM1496.72 3932.15l2.22 1.322-1.282 2.289-2.22-1.322zM1235.83 3661.1l-2.22-1.322 1.282-2.289 2.22 1.322zM1051.38 3981.54l2.22 1.322-1.282 2.289-2.22-1.322zM1198.26 3567.5l2.22 1.322-1.282 2.289-2.22-1.322zM1650.2 4145.28l-2.22-1.322 1.282-2.289 2.22 1.322zM1266.27 3745.38l-2.22-1.322 1.282-2.289 2.22 1.322zM1582.2 3967.4l2.22 1.322-1.282 2.289-2.22-1.322zM1711.61 3695.99l-2.22-1.322 1.282-2.289 2.22 1.322zM1136.86 4016.78l2.22 1.322-1.282 2.289-2.22-1.322zM827.487 3492.36l2.22 1.322-1.282 2.289-2.22-1.322zM2020.98 4220.41l-2.22-1.322 1.282-2.289 2.22 1.322zM1637.04 3820.51l-2.22-1.322 1.282-2.289 2.22 1.322zM1211.42 3892.27l2.22 1.322-1.282 2.289-2.22-1.322zM2082.38 3771.12l-2.22-1.322 1.282-2.289 2.22 1.322zM766.083 3941.65l2.22 1.322-1.282 2.289-2.22-1.322zM1557.27 3505.82l2.22 1.322-1.282 2.289-2.22-1.322zM1291.2 4206.96l-2.22-1.322 1.282-2.289 2.22 1.322zM907.263 3807.05l-2.22-1.322 1.282-2.289 2.22 1.322zM1941.2 3905.72l2.22 1.322-1.282 2.289-2.22-1.322zM1914.19 3598.49l-2.22-1.322 1.282-2.289 2.22 1.322zM936.243 4110.77l5.63 3.35-3.25 5.805-5.63-3.351zM2062.38 3454.88l5.63 3.35-3.25 5.805-5.63-3.351zM1887.13 3635.98l5.63 3.35-3.25 5.805-5.63-3.351zM1740.19 4014.31l5.63 3.35-3.25 5.805-5.63-3.351zM1300.83 3505.82l2.22 1.322-1.282 2.289-2.22-1.322zM1547.63 4206.96l-2.22-1.322 1.282-2.289 2.22 1.322zM1163.7 3807.05l-2.22-1.322 1.282-2.289 2.22 1.322zM1684.77 3905.72l2.22 1.322-1.282 2.289-2.22-1.322zM1609.04 3757.67l-2.22-1.322 1.282-2.289 2.22 1.322zM1239.43 3955.1l2.22 1.322-1.282 2.289-2.22-1.322zM950.377 3505.82l2.22 1.322-1.282 2.289-2.22-1.322zM1898.09 4206.96l-2.22-1.322 1.282-2.289 2.22 1.322zM1514.16 3807.05l-2.22-1.322 1.282-2.289 2.22 1.322zM1334.31 3905.72l2.22 1.322-1.282 2.289-2.22-1.322zM1959.49 3757.67l-2.22-1.322 1.282-2.289 2.22 1.322zM888.971 3955.1l2.22 1.322-1.282 2.289-2.22-1.322zM1634.2 3523.44l2.22 1.322-1.282 2.289-2.22-1.322zM1214.27 4189.33l-2.22-1.322 1.282-2.289 2.22 1.322zM830.333 3789.43l-2.22-1.322 1.282-2.289 2.22 1.322zM2018.13 3923.34l2.22 1.322-1.282 2.289-2.22-1.322zM1837.26 3580.87l-2.22-1.322 1.282-2.289 2.22 1.322zM1011.21 4131.91l2.22 1.322-1.282 2.289-2.22-1.322zM1429.05 3523.44l2.22 1.322-1.282 2.289-2.22-1.322zM1419.41 4189.33l-2.22-1.322 1.282-2.289 2.22 1.322zM1035.48 3789.43l-2.22-1.322 1.282-2.289 2.22 1.322zM1812.99 3923.34l2.22 1.322-1.282 2.289-2.22-1.322zM1480.82 3740.05l-2.22-1.322 1.282-2.289 2.22 1.322zM1367.65 3972.73l2.22 1.322-1.282 2.289-2.22-1.322zM1027.31 3523.44l2.22 1.322-1.282 2.289-2.22-1.322zM1821.16 4189.33l-2.22-1.322 1.282-2.289 2.22 1.322zM1437.23 3789.43l-2.22-1.322 1.282-2.289 2.22 1.322zM1367.81 3667.05l2.22 1.322-1.282 2.289-2.22-1.322zM1882.56 3740.05l-2.22-1.322 1.282-2.289 2.22 1.322zM965.902 3972.73l2.22 1.322-1.282 2.289-2.22-1.322zM1685.49 3620.36l2.22 1.322-1.282 2.289-2.22-1.322zM1162.98 4092.41l-2.22-1.322 1.282-2.289 2.22 1.322zM779.046 3692.51l-2.22-1.322 1.282-2.289 2.22 1.322zM2069.42 4020.26l2.22 1.322-1.282 2.289-2.22-1.322zM1785.97 3483.94l-2.22-1.322 1.282-2.289 2.22 1.322zM1062.49 4228.83l2.22 1.322-1.282 2.289-2.22-1.322zM1239.49 3555.81l2.22 1.322-1.282 2.289-2.22-1.322zM1608.98 4156.97l-2.22-1.322 1.282-2.289 2.22 1.322zM1225.04 3757.07l-2.22-1.322 1.282-2.289 2.22 1.322zM1623.42 3955.71l2.22 1.322-1.282 2.289-2.22-1.322zM1670.38 3707.68l-2.22-1.322 1.282-2.289 2.22 1.322zM1178.08 4005.09l2.22 1.322-1.282 2.289-2.22-1.322z"/></g><path d="M1791.87 1475.43c-3.58 6.4-7.21 12.8-10.88 19.18l-.48-.27c-.46.8-.92 1.59-1.38 2.39-.46.8-.92 1.6-1.38 2.39l.48.28c-3.7 6.37-7.42 12.71-11.17 19.01l-.48-.28c-.93 1.58-1.87 3.15-2.81 4.72l.47.28c-3.77 6.29-7.56 12.53-11.39 18.74l-.47-.29c-.95 1.55-1.91 3.1-2.87 4.65l.47.29c-3.88 6.27-7.8 12.49-11.74 18.68l-.46-.29c-.99 1.54-1.97 3.09-2.96 4.63l.46.3c-3.95 6.17-7.94 12.3-11.95 18.39l-.46-.3c-.47.72-.94 1.43-1.41 2.15-.54.8-1.07 1.61-1.6 2.41l.46.31c-4.07 6.14-8.17 12.24-12.29 18.3l-.46-.31c-1.03 1.52-2.06 3.03-3.1 4.55l.46.31c-4.15 6.05-8.32 12.06-12.51 18.03l-.45-.32c-1.05 1.49-2.1 2.98-3.16 4.47l.45.31c-4.25 6.02-8.53 11.99-12.84 17.91l-.44-.32c-1.08 1.48-2.16 2.97-3.25 4.45l.45.32c-4.33 5.92-8.69 11.8-13.07 17.64l-.44-.33c-1.09 1.45-2.19 2.91-3.29 4.36l.44.34c-4.44 5.87-8.9 11.7-13.39 17.49l-.44-.34c-1.12 1.45-2.25 2.9-3.38 4.34l.44.34c-4.52 5.78-9.06 11.52-13.63 17.22l-.43-.35-3.42 4.26.43.35c-4.63 5.73-9.28 11.41-13.95 17.05l-.42-.35c-1.18 1.41-2.35 2.82-3.52 4.23l.42.35c-4.7 5.64-9.43 11.22-14.17 16.76l-.42-.35c-.59.69-1.18 1.37-1.78 2.06-.59.7-1.19 1.39-1.78 2.08l.41.36c-4.81 5.58-9.64 11.11-14.5 16.59l-.41-.37c-1.22 1.38-2.44 2.75-3.66 4.12l.41.37c-4.88 5.47-9.79 10.89-14.71 16.27l-.41-.37c-1.23 1.34-2.46 2.68-3.7 4.02l.41.37c-5 5.42-10.03 10.79-15.07 16.1l-.4-.38c-1.26 1.33-2.53 2.66-3.79 3.99l.4.38c-5.07 5.3-10.15 10.55-15.26 15.75l-.39-.39c-1.28 1.3-2.56 2.59-3.83 3.88l.39.39c-5.19 5.25-10.41 10.45-15.64 15.58l-.38-.39c-1.31 1.29-2.62 2.57-3.93 3.85l.38.39a1400 1400 0 01-15.79 15.18l-.38-.4c-1.32 1.26-2.65 2.51-3.98 3.76l.38.41c-5.38 5.06-10.78 10.06-16.19 15l-.37-.41c-1.36 1.24-2.71 2.47-4.07 3.7l.37.41c-5.42 4.91-10.86 9.77-16.32 14.57l-.36-.42-4.16 3.65.36.42c-5.56 4.85-11.14 9.64-16.73 14.36l-.35-.42c-.63.53-1.25 1.06-1.88 1.58-.77.66-1.54 1.31-2.32 1.95l.36.43c-5.62 4.71-11.26 9.37-16.91 13.96l-.34-.43-.77.62c-1.18.96-2.36 1.91-3.53 2.85l.34.43c-5.73 4.62-11.48 9.18-17.24 13.67l-.34-.43c-1.44 1.12-2.88 2.24-4.33 3.35l.34.44c-5.82 4.5-11.66 8.93-17.5 13.29l-.33-.44c-1.48 1.1-2.95 2.2-4.43 3.29l.33.45c-5.91 4.37-11.83 8.67-17.76 12.9l-.32-.44-4.45 3.16.32.45c-6.03 4.26-12.07 8.45-18.12 12.57l-.31-.46c-1.51 1.04-3.03 2.07-4.55 3.09l.31.46c-6.08 4.1-12.17 8.12-18.26 12.07l-.3-.46c-1.54 1-3.08 1.99-4.62 2.98l.3.46c-6.22 4-12.45 7.91-18.69 11.75l-.29-.47c-1.55.96-3.11 1.91-4.67 2.86l.28.47c-6.27 3.82-12.55 7.56-18.83 11.23l-.28-.48c-1.6.93-3.19 1.85-4.79 2.77l.28.48c-6.38 3.67-12.77 7.27-19.16 10.78l-.27-.49c-1.6.88-3.19 1.75-4.79 2.62l.26.48c-6.48 3.53-12.98 6.96-19.47 10.31l-.25-.49c-.53.27-1.06.54-1.59.82-1.1.56-2.21 1.13-3.31 1.69l.25.49c-6.53 3.32-13.07 6.56-19.61 9.71l-.24-.49c-1.65.79-3.31 1.59-4.97 2.37l.24.5c-6.68 3.17-13.36 6.25-20.03 9.24l-.23-.5c-.56.25-1.13.5-1.69.75-1.1.49-2.21.98-3.31 1.47l.22.5c-6.74 2.97-13.48 5.84-20.21 8.62l-.21-.51c-1.7.7-3.4 1.39-5.11 2.08l.21.51a877.72 877.72 0 01-20.42 7.99l-.2-.52c-1.7.64-3.4 1.28-5.1 1.9l.19.52c-6.94 2.57-13.89 5.03-20.82 7.39l-.18-.53c-1.73.59-3.46 1.17-5.19 1.75l.17.52c-6.98 2.32-13.95 4.54-20.91 6.64l-.16-.52c-1.77.53-3.53 1.06-5.29 1.58l.15.53c-7.05 2.08-14.1 4.05-21.13 5.9l-.14-.53c-1.76.46-3.51.92-5.27 1.37l.14.53a719.701 719.701 0 01-21.472 5.16l-.121-.54c-1.784.4-3.568.8-5.351 1.18l.117.54a676.308 676.308 0 01-21.536 4.3l-.099-.54c-1.811.33-3.62.66-5.428.97l.095.54a640.56 640.56 0 01-21.647 3.42l-.077-.54c-1.815.25-3.628.5-5.44.74l.072.54c-7.325.97-14.626 1.8-21.899 2.51l-.053-.55c-1.817.17-3.632.34-5.446.5l.048.55c-7.344.64-14.661 1.14-21.947 1.51l-.028-.55c-1.832.09-3.662.17-5.49.25l.022.55c-7.339.3-14.647.45-21.921.47l-.001-.55c-1.842 0-3.681 0-5.519-.02l-.004.55c-7.356-.06-14.677-.26-21.959-.61l.026-.56a328.98 328.98 0 01-5.449-.29l-.032.55a512.79 512.79 0 01-21.964-1.76l.055-.55c-1.818-.18-3.634-.38-5.447-.58l-.062.55c-7.305-.83-14.566-1.8-21.781-2.94l.086-.55c-1.81-.28-3.617-.58-5.422-.88l-.092.54a482.463 482.463 0 01-21.555-4.15l.117-.54c-1.793-.39-3.582-.79-5.368-1.2l-.123.54a465.093 465.093 0 01-21.3-5.41l.148-.53c-1.76-.49-3.517-.99-5.27-1.5l-.155.53a461.715 461.715 0 01-20.95-6.67l.18-.52c-1.729-.6-3.455-1.21-5.177-1.83l-.186.52a445.836 445.836 0 01-20.487-7.92l.211-.51c-1.689-.7-3.374-1.42-5.055-2.14l-.218.51a444.522 444.522 0 01-19.973-9.18l.242-.5c-1.638-.8-3.273-1.61-4.903-2.43l-.249.49a445.44 445.44 0 01-19.389-10.41l.272-.48c-.798-.45-1.596-.91-2.392-1.37l-.679-.39c-.569-.33-1.137-.67-1.705-1l-.279.48a440.437 440.437 0 01-18.708-11.59l.302-.46c-1.529-1-3.05-2.01-4.565-3.03l-.307.46a445.026 445.026 0 01-17.936-12.71l.33-.44c-1.467-1.09-2.926-2.2-4.378-3.31l-.335.44a451.335 451.335 0 01-17.107-13.78l.356-.42a602.103 602.103 0 01-4.167-3.58l-.361.42a451.224 451.224 0 01-16.251-14.81l.381-.4c-.596-.57-1.191-1.14-1.784-1.71-.72-.7-1.438-1.4-2.155-2.1l-.385.4a462.388 462.388 0 01-15.331-15.75l.404-.37a410.166 410.166 0 01-3.72-4.05l-.408.37a485.371 485.371 0 01-14.376-16.59l.425-.35a429.122 429.122 0 01-3.478-4.26l-.429.35a502.724 502.724 0 01-13.436-17.39l.443-.33c-1.083-1.47-2.16-2.94-3.229-4.43l-.447.33a523.689 523.689 0 01-12.507-18.15l.461-.3c-1-1.52-1.992-3.04-2.978-4.57l-.464.3a544.072 544.072 0 01-11.514-18.71l.475-.28c-.931-1.58-1.855-3.18-2.773-4.77l-.478.27a556.912 556.912 0 01-10.552-19.22l.488-.25c-.85-1.62-1.693-3.25-2.529-4.88l-.491.25a594.714 594.714 0 01-9.665-19.76l.5-.24c-.77-1.65-1.533-3.3-2.29-4.96l-.501.23a623.728 623.728 0 01-8.783-20.22l.509-.21c-.699-1.69-1.391-3.39-2.077-5.08l-.512.2a653.466 653.466 0 01-7.865-20.45l.518-.19a691.15 691.15 0 01-1.872-5.19l-.52.19a699.038 699.038 0 01-7.042-20.8l.524-.17a742.77 742.77 0 01-1.655-5.23l-.526.17a736.04 736.04 0 01-6.268-21.18l.531-.15c-.488-1.74-.97-3.49-1.447-5.24l-.532.14a760.06 760.06 0 01-5.451-21.25l.536-.13c-.432-1.79-.857-3.58-1.277-5.37l-.537.12a799.296 799.296 0 01-4.706-21.43l.54-.11a927.9 927.9 0 01-1.085-5.37l-.541.1a843.027 843.027 0 01-4.015-21.72l.543-.1a787.38 787.38 0 01-.902-5.36l-.544.09a882.516 882.516 0 01-3.299-21.68l.546-.08c-.254-1.82-.503-3.64-.746-5.47l-.547.08a930.796 930.796 0 01-2.643-21.81l.548-.06c-.198-1.81-.391-3.63-.579-5.44l-.548.05a962.2 962.2 0 01-2.017-21.96l.55-.05c-.147-1.83-.289-3.66-.426-5.49l-.55.04c-.541-7.24-1.005-14.52-1.392-21.84l.551-.03a963.78 963.78 0 01-.276-5.5l-.551.03c-.347-7.3-.618-14.64-.813-22.01l.551-.02c-.048-1.82-.091-3.63-.13-5.46l-.551.02c-.156-7.29-.238-14.62-.246-21.99h.551c-.002-1.84.001-3.68.008-5.53h-.551c.028-7.27.128-14.58.299-21.93l.551.02c.043-1.83.09-3.66.141-5.48l-.551-.02c.206-7.32.482-14.67.83-22.06l.551.03c.086-1.83.176-3.66.271-5.49l-.551-.03c.375-7.25.818-14.53 1.329-21.85l.55.04c.128-1.83.26-3.66.396-5.49l-.55-.04c.543-7.29 1.153-14.62 1.831-21.97l.549.05c.167-1.81.338-3.62.513-5.43l-.549-.06c.701-7.25 1.467-14.53 2.299-21.83l.548.06c.208-1.82.42-3.65.636-5.48l-.548-.06c.857-7.25 1.778-14.52 2.763-21.81l.546.07c.244-1.8.492-3.61.744-5.42l-.546-.07c1.008-7.24 2.079-14.5 3.214-21.77l.544.08c.284-1.82.571-3.64.863-5.46l-.545-.09c1.15-7.18 2.362-14.39 3.635-21.62l.543.1c.317-1.8.638-3.6.963-5.4l-.543-.1c1.299-7.2 2.658-14.42 4.079-21.66l.541.1c.355-1.81.714-3.62 1.077-5.43l-.54-.1c1.426-7.13 2.912-14.27 4.457-21.42l.539.11c.386-1.78.776-3.57 1.17-5.36l-.539-.12c1.574-7.16 3.208-14.34 4.901-21.52l.536.12c.419-1.77.841-3.55 1.266-5.33l-.536-.13c1.693-7.07 3.444-14.16 5.252-21.26l.534.13c.452-1.77.908-3.55 1.367-5.32l-.534-.14c1.835-7.1 3.727-14.21 5.676-21.33l.532.14c.48-1.75.963-3.5 1.45-5.26l-.531-.14c1.948-7.02 3.951-14.05 6.01-21.09l.529.16c.515-1.76 1.033-3.52 1.555-5.28l-.529-.16c2.082-7.02 4.219-14.06 6.411-21.1l.526.17c.541-1.74 1.086-3.48 1.633-5.22l-.526-.16a1560.99 1560.99 0 016.735-20.88l.524.17c.574-1.74 1.152-3.48 1.734-5.22l-.523-.18c2.318-6.94 4.69-13.9 7.116-20.85l.52.18c.599-1.72 1.202-3.44 1.808-5.16l-.52-.18c2.424-6.88 4.9-13.77 7.429-20.66l.518.19c.632-1.72 1.267-3.44 1.906-5.16l-.517-.19c2.546-6.87 5.144-13.74 7.795-20.61l.514.2c.656-1.7 1.314-3.4 1.976-5.1l-.514-.2c2.648-6.79 5.347-13.6 8.097-20.4l.511.21c.687-1.7 1.378-3.4 2.071-5.1l-.51-.21c2.766-6.78 5.583-13.56 8.451-20.345l.508.215c.709-1.678 1.422-3.355 2.137-5.033l-.507-.216a1743.148 1743.148 0 018.739-20.135l.504.223c.741-1.677 1.484-3.355 2.231-5.032l-.504-.224a1770.47 1770.47 0 019.088-20.075l.501.231c.762-1.654 1.526-3.309 2.294-4.963l-.501-.232a1786.227 1786.227 0 019.359-19.849l.497.238c.792-1.653 1.586-3.305 2.384-4.958l-.496-.24a1796.79 1796.79 0 019.707-19.795l.493.246c.812-1.63 1.627-3.26 2.444-4.889l-.493-.248c3.272-6.52 6.591-13.036 9.957-19.547l.49.254c.841-1.628 1.685-3.255 2.533-4.881l-.489-.255a1830.1 1830.1 0 0110.31-19.506l.486.261c.86-1.604 1.723-3.208 2.589-4.812l-.485-.262a1853.758 1853.758 0 0110.536-19.229l.482.268c.889-1.6 1.781-3.2 2.676-4.8l-.481-.269c3.581-6.4 7.209-12.793 10.883-19.178l.478.275 1.379-2.394c.461-.798.922-1.595 1.384-2.391l-.478-.277a1863.435 1863.435 0 0111.168-19.014l.474.282c.938-1.575 1.877-3.147 2.818-4.718l-.473-.283c3.767-6.283 7.562-12.53 11.385-18.739l.47.289c.955-1.552 1.913-3.101 2.872-4.648l-.469-.291a1829.459 1829.459 0 0111.738-18.682l.465.297c.985-1.547 1.972-3.092 2.961-4.634l-.465-.298a1810.18 1810.18 0 0111.95-18.396l.461.303c1.002-1.523 2.006-3.043 3.012-4.561l-.46-.305a1795.184 1795.184 0 0112.29-18.304l.456.311a1648.54 1648.54 0 013.102-4.545l-.455-.311c4.143-6.05 8.314-12.06 12.51-18.029l.451.317c1.049-1.492 2.1-2.981 3.152-4.468l-.45-.318a1759 1759 0 0112.841-17.908l.446.324c1.079-1.485 2.159-2.967 3.242-4.447l-.445-.326c4.33-5.921 8.686-11.799 13.068-17.635l.441.331c1.095-1.458 2.191-2.914 3.289-4.367l-.44-.333a1735.764 1735.764 0 0113.393-17.491l.436.338c1.125-1.451 2.253-2.899 3.381-4.344l-.434-.34c4.516-5.782 9.057-11.52 13.621-17.213l.43.345c1.141-1.423 2.283-2.843 3.427-4.26l-.429-.346a1684.585 1684.585 0 0113.947-17.053l.424.352c1.172-1.414 2.345-2.825 3.52-4.233l-.423-.353c4.7-5.634 9.424-11.221 14.17-16.761l.419.359c1.186-1.384 2.374-2.766 3.562-4.144l-.417-.36c4.812-5.579 9.647-11.11 14.504-16.591l.413.366c1.218-1.374 2.437-2.746 3.657-4.114l-.411-.367a1632.333 1632.333 0 0114.715-16.273l.407.373c1.231-1.343 2.463-2.683 3.697-4.02l-.405-.374a1593.276 1593.276 0 0115.066-16.101l.4.379c1.263-1.331 2.528-2.66 3.794-3.985l-.399-.381a1574.345 1574.345 0 0115.256-15.748l.393.387c1.276-1.299 2.553-2.594 3.831-3.886l-.392-.388a1540.334 1540.334 0 0115.635-15.582l.386.394a1416.01 1416.01 0 013.929-3.846l-.385-.395a1523.624 1523.624 0 0115.79-15.181l.379.4c1.327-1.257 2.655-2.511 3.985-3.762l-.378-.401a1482.033 1482.033 0 0116.19-15.006l.372.407c1.353-1.236 2.707-2.467 4.062-3.696l-.37-.408a1450.3 1450.3 0 0116.319-14.57l.365.414c1.387-1.22 2.775-2.435 4.164-3.648l-.363-.415c5.559-4.85 11.134-9.639 16.724-14.366l.356.421c1.397-1.181 2.795-2.358 4.194-3.532l-.355-.422a1393.398 1393.398 0 0116.906-13.959l.348.428a1487.22 1487.22 0 014.297-3.477l-.346-.429a1367.807 1367.807 0 0117.248-13.669l.339.435c1.44-1.122 2.881-2.24 4.323-3.354l-.337-.437a1313.342 1313.342 0 0117.504-13.295l.33.441a1204.86 1204.86 0 014.427-3.29l-.328-.443a1296.065 1296.065 0 0117.759-12.909l.32.449c1.48-1.058 2.97-2.111 4.45-3.16l-.32-.45c6.03-4.264 12.07-8.455 18.12-12.573l.31.455c1.51-1.033 3.03-2.062 4.55-3.086l-.31-.457c6.08-4.099 12.17-8.124 18.26-12.076l.3.463c1.54-.998 3.08-1.991 4.62-2.979l-.3-.464c6.22-3.993 12.45-7.909 18.69-11.747l.29.47c1.55-.959 3.11-1.914 4.67-2.863l-.29-.471c6.28-3.82 12.56-7.561 18.84-11.222l.28.477c1.6-.929 3.19-1.853 4.78-2.771l-.27-.478c6.38-3.676 12.77-7.27 19.16-10.78l.27.483c1.59-.877 3.19-1.749 4.79-2.616l-.26-.484c6.48-3.521 12.97-6.955 19.47-10.304l.25.491c1.63-.842 3.27-1.679 4.9-2.51l-.25-.491a984.535 984.535 0 0119.61-9.714l.24.497c1.65-.799 3.31-1.591 4.97-2.378l-.24-.498a984.644 984.644 0 0120.03-9.238l.23.504c1.67-.747 3.33-1.487 5-2.221l-.22-.505a931.567 931.567 0 0120.21-8.614l.21.51c1.7-.702 3.4-1.398 5.11-2.088l-.21-.511c6.81-2.76 13.62-5.422 20.42-7.983l.2.516c1.7-.64 3.4-1.274 5.1-1.901l-.2-.518a840.792 840.792 0 0120.83-7.385l.18.522c1.73-.589 3.46-1.171 5.19-1.747l-.17-.523a803.001 803.001 0 0120.91-6.641l.16.527c1.77-.533 3.53-1.06 5.29-1.58l-.15-.529a762.83 762.83 0 0121.13-5.906l.14.534c1.76-.464 3.51-.921 5.27-1.37l-.14-.534a730.649 730.649 0 0121.47-5.16l.12.538c1.79-.4 3.57-.792 5.35-1.178l-.11-.539a691.388 691.388 0 0121.53-4.301l.1.542a686.9 686.9 0 015.43-.971l-.1-.543a664.15 664.15 0 0121.65-3.417l.08.546c1.81-.255 3.63-.502 5.44-.741l-.07-.547c7.32-.967 14.62-1.801 21.9-2.502l.05.549c1.82-.175 3.63-.342 5.44-.5l-.04-.55c7.34-.641 14.66-1.145 21.94-1.511l.03.551c1.83-.092 3.66-.175 5.49-.25l-.02-.551c7.34-.299 14.65-.456 21.92-.471v.551c1.84-.004 3.68.002 5.52.016v-.551c7.36.058 14.68.264 21.96.617l-.02.551c1.82.088 3.63.186 5.45.292l.03-.55c7.36.434 14.68 1.02 21.96 1.76l-.05.549c1.82.185 3.63.38 5.44.584l.07-.548c7.3.823 14.56 1.802 21.78 2.94l-.09.544c1.81.286 3.62.581 5.42.886l.1-.543a481.892 481.892 0 0121.55 4.154l-.12.539c1.8.388 3.59.787 5.37 1.196l.12-.538a462.074 462.074 0 0121.3 5.405l-.14.532c1.76.491 3.51.992 5.27 1.504l.15-.529a453.168 453.168 0 0120.95 6.67l-.18.521c1.73.597 3.46 1.205 5.18 1.823l.18-.519a447.63 447.63 0 0120.49 7.925l-.21.509c1.69.702 3.37 1.414 5.06 2.137l.21-.507a447.74 447.74 0 0119.98 9.178l-.25.496c1.64.802 3.28 1.615 4.91 2.439l.25-.492a446.094 446.094 0 0119.39 10.408l-.28.479c.8.455 1.6.912 2.4 1.372.79.46 1.59.922 2.38 1.386l.28-.476c6.35 3.72 12.58 7.583 18.71 11.588l-.31.462c1.53 1 3.05 2.008 4.57 3.026l.31-.458a445.512 445.512 0 0117.93 12.709l-.33.442c1.47 1.094 2.93 2.198 4.38 3.31l.34-.438c5.81 4.456 11.52 9.05 17.1 13.78l-.35.42c1.39 1.183 2.78 2.373 4.16 3.572l.36-.416c5.54 4.802 10.96 9.74 16.26 14.809l-.39.398a383.49 383.49 0 013.94 3.812l.39-.394a459.21 459.21 0 0115.33 15.743l-.4.376c1.24 1.342 2.48 2.692 3.72 4.051l.4-.371c4.91 5.407 9.7 10.938 14.38 16.59l-.43.352c1.17 1.41 2.33 2.827 3.48 4.252l.43-.346a505.894 505.894 0 0113.44 17.393l-.45.327c1.09 1.468 2.16 2.943 3.23 4.426l.45-.323a524.197 524.197 0 0112.51 18.142l-.46.303c1 1.518 1.99 3.042 2.97 4.573l.47-.299c3.95 6.13 7.78 12.367 11.51 18.709l-.47.279a668.76 668.76 0 012.77 4.772l.48-.275a572.64 572.64 0 0110.55 19.22l-.49.256c.85 1.621 1.7 3.247 2.53 4.88l.49-.251a593.898 593.898 0 019.67 19.762l-.5.233c.77 1.65 1.53 3.305 2.29 4.966l.5-.229c3.03 6.65 5.96 13.39 8.78 20.217l-.51.211c.7 1.688 1.39 3.383 2.08 5.082l.51-.206a676.836 676.836 0 017.87 20.455l-.52.189c.63 1.724 1.25 3.452 1.87 5.186l.52-.185a700.947 700.947 0 017.04 20.801l-.52.169c.56 1.736 1.11 3.477 1.65 5.223l.53-.165a759.521 759.521 0 016.27 21.175l-.53.149c.48 1.744.97 3.493 1.44 5.246l.54-.145a809.69 809.69 0 015.45 21.254l-.54.129c.43 1.787.86 3.577 1.28 5.372l.53-.125a791.43 791.43 0 014.71 21.434l-.54.111c.37 1.787.73 3.578 1.09 5.373l.54-.107a862.647 862.647 0 014.01 21.725l-.54.094c.3 1.785.61 3.573.9 5.365l.54-.09c1.19 7.172 2.29 14.4 3.3 21.681l-.54.076c.25 1.819.5 3.642.74 5.467l.55-.072c.96 7.217 1.84 14.487 2.64 21.806l-.54.06c.19 1.812.39 3.626.57 5.444l.55-.057c.75 7.275 1.43 14.598 2.02 21.968l-.55.044c.15 1.829.29 3.66.43 5.494l.55-.041c.54 7.235 1 14.515 1.39 21.838l-.55.029c.09 1.83.19 3.662.27 5.497l.55-.026c.35 7.297.62 14.636.82 22.014l-.55.015c.04 1.817.09 3.636.13 5.458l.55-.012c.15 7.29.23 14.619.24 21.985l-.55.001c0 1.84 0 3.683-.01 5.528l.55.002c-.02 7.274-.12 14.583-.29 21.926l-.56-.013c-.04 1.825-.09 3.652-.14 5.481l.55.015c-.2 7.32-.48 14.672-.83 22.057l-.55-.026c-.08 1.828-.17 3.657-.27 5.489l.55.028c-.37 7.254-.81 14.537-1.33 21.85l-.55-.039c-.12 1.828-.26 3.657-.39 5.487l.55.041a1200.95 1200.95 0 01-1.83 21.974l-.55-.051-.51 5.433.54.053c-.7 7.253-1.46 14.532-2.29 21.835l-.55-.062c-.21 1.825-.42 3.651-.64 5.479l.55.065c-.86 7.246-1.78 14.515-2.76 21.807l-.55-.074c-.24 1.805-.49 3.612-.74 5.421l.54.076c-1.01 7.236-2.08 14.493-3.21 21.771l-.55-.085c-.28 1.819-.57 3.639-.86 5.461l.55.087c-1.15 7.187-2.37 14.394-3.64 21.62l-.54-.096-.96 5.398.54.098c-1.3 7.204-2.66 14.427-4.08 21.666l-.54-.106-1.08 5.43.54.108c-1.42 7.124-2.91 14.26-4.46 21.42l-.53-.12-1.17 5.37.53.12c-1.57 7.16-3.2 14.33-4.9 21.52l-.53-.13c-.42 1.78-.84 3.56-1.27 5.34l.54.12c-1.7 7.08-3.45 14.17-5.25 21.27l-.54-.14c-.45 1.78-.91 3.55-1.37 5.33l.54.14c-1.84 7.1-3.73 14.21-5.68 21.33l-.53-.15c-.48 1.75-.96 3.51-1.45 5.26l.53.15c-1.95 7.02-3.95 14.05-6.01 21.09l-.53-.16c-.51 1.76-1.03 3.52-1.55 5.28l.53.15c-2.09 7.03-4.22 14.06-6.41 21.1l-.53-.16c-.54 1.74-1.09 3.47-1.63 5.21l.52.17c-2.19 6.95-4.43 13.91-6.73 20.88l-.53-.18c-.57 1.75-1.15 3.49-1.73 5.23l.52.17a1770.8 1770.8 0 01-7.11 20.86l-.52-.18c-.6 1.72-1.21 3.44-1.81 5.16l.52.18c-2.43 6.88-4.9 13.76-7.43 20.65l-.52-.19c-.63 1.72-1.27 3.44-1.9 5.17l.51.19c-2.54 6.86-5.14 13.73-7.79 20.6l-.52-.2c-.25.65-.5 1.3-.75 1.94-.4 1.05-.81 2.11-1.22 3.16l.51.2c-2.65 6.8-5.35 13.6-8.1 20.4l-.51-.2c-.68 1.7-1.37 3.4-2.07 5.1l.51.21c-2.76 6.78-5.58 13.56-8.45 20.34l-.51-.21c-.71 1.67-1.42 3.35-2.13 5.03l.5.21c-2.86 6.72-5.77 13.43-8.74 20.14l-.5-.22c-.74 1.67-1.48 3.35-2.23 5.03l.5.22c-2.98 6.7-6.01 13.39-9.08 20.08l-.51-.23c-.76 1.65-1.52 3.31-2.29 4.96l.5.23c-3.07 6.62-6.19 13.24-9.36 19.85l-.49-.24c-.8 1.66-1.59 3.31-2.39 4.96l.5.24c-3.19 6.6-6.43 13.2-9.71 19.8l-.49-.25c-.29.57-.57 1.14-.85 1.71-.53 1.06-1.06 2.12-1.6 3.18l.5.25c-3.28 6.52-6.59 13.03-9.96 19.54l-.49-.25c-.41.78-.81 1.57-1.22 2.35-.44.85-.87 1.69-1.31 2.53l.49.26c-3.39 6.5-6.83 13-10.31 19.5l-.49-.26c-.86 1.6-1.72 3.21-2.59 4.81l.49.26c-3.47 6.42-6.98 12.83-10.54 19.23l-.48-.26c-.89 1.6-1.78 3.2-2.68 4.8l.48.26z" stroke="#85FFFF" stroke-width="1.103" stroke-miterlimit="11.474" stroke-dasharray="5.51 22.06"/><circle opacity=".3" r="117.545" transform="matrix(-1 0 0 1 1854.08 2680)" stroke="#FFC1E4"/><g opacity=".3" filter="url(#filter0_f)"><circle r="117.545" transform="matrix(-1 0 0 1 1854.08 2679.08)" stroke="#fff"/></g><circle opacity=".3" r="145.104" transform="matrix(-1 0 0 1 1855 2680)" stroke="#FB39BA"/><g opacity=".3" filter="url(#filter1_f)"><circle r="145.104" transform="matrix(-1 0 0 1 1855 2679.08)" stroke="#fff"/></g><circle opacity=".4" r="174.5" transform="matrix(-1 0 0 1 1855 2680)" stroke="#FF7880"/><g filter="url(#filter2_f)"><ellipse cx="984.059" cy="615.011" rx="438.395" ry="396.564" fill="#02747B" fill-opacity=".3"/></g><g filter="url(#filter3_f)"><ellipse cx="1883.2" cy="1624.92" rx="557.197" ry="486.92" fill="#8FDEFF" fill-opacity=".3"/></g><g filter="url(#filter4_f)"><ellipse rx="586.873" ry="472.57" transform="matrix(.88652 -.46269 .27288 .96205 1436.23 1138.17)" fill="#0500FF" fill-opacity=".3"/></g><g filter="url(#filter5_f)"><ellipse rx="586.873" ry="472.57" transform="matrix(.88652 -.46269 .27288 .96205 1832.23 990.173)" fill="#FF00E5" fill-opacity=".2"/></g><g filter="url(#filter6_f)"><ellipse rx="586.873" ry="472.57" transform="matrix(.88652 -.46269 .27288 .96205 1759.23 1020.17)" fill="#1BFF76" fill-opacity=".2"/></g><path d="M2062.87 4629.43c-3.58 6.4-7.21 12.8-10.88 19.18l-.48-.27c-.46.8-.92 1.59-1.38 2.39-.46.8-.92 1.6-1.38 2.39l.48.28c-3.7 6.37-7.42 12.71-11.17 19.01l-.47-.28c-.94 1.58-1.88 3.15-2.82 4.72l.47.28c-3.77 6.29-7.56 12.53-11.38 18.74l-.47-.29-2.88 4.65.47.29c-3.88 6.27-7.79 12.49-11.74 18.68l-.46-.29c-.99 1.54-1.97 3.09-2.96 4.63l.46.3c-3.95 6.17-7.94 12.3-11.95 18.39l-.46-.3c-.47.72-.94 1.43-1.41 2.15l-1.6 2.41.46.31c-4.07 6.14-8.17 12.24-12.29 18.3l-.45-.31c-1.04 1.52-2.07 3.03-3.11 4.54l.46.32c-4.15 6.05-8.32 12.06-12.51 18.03l-.45-.32-3.15 4.47.45.31c-4.26 6.02-8.54 11.98-12.85 17.91l-.44-.32c-1.08 1.48-2.16 2.97-3.24 4.45l.44.32c-4.33 5.92-8.69 11.8-13.07 17.64l-.44-.33c-1.09 1.45-2.19 2.91-3.29 4.36l.44.34c-4.44 5.87-8.9 11.7-13.39 17.49l-.44-.34c-1.12 1.45-2.25 2.9-3.38 4.34l.44.34c-4.52 5.78-9.06 11.52-13.62 17.22l-.43-.35c-1.15 1.42-2.29 2.84-3.43 4.26l.43.35c-4.63 5.73-9.28 11.41-13.95 17.05l-.42-.35c-1.18 1.41-2.35 2.82-3.52 4.23l.42.35c-4.7 5.64-9.42 11.22-14.17 16.76l-.42-.35c-.59.69-1.18 1.37-1.77 2.06-.6.7-1.2 1.39-1.79 2.08l.42.36c-4.82 5.58-9.65 11.11-14.51 16.59l-.41-.37c-1.22 1.38-2.44 2.75-3.66 4.12l.41.37c-4.88 5.47-9.79 10.89-14.71 16.27l-.41-.37c-1.23 1.34-2.46 2.68-3.7 4.02l.41.37c-5 5.42-10.02 10.79-15.07 16.1l-.4-.38c-1.26 1.33-2.53 2.66-3.79 3.99l.4.38c-5.07 5.3-10.15 10.55-15.26 15.75l-.39-.39c-1.28 1.3-2.55 2.59-3.83 3.88l.39.39c-5.19 5.25-10.4 10.45-15.64 15.58l-.38-.39c-1.31 1.29-2.62 2.57-3.93 3.85l.38.39c-5.24 5.12-10.5 10.18-15.79 15.18l-.37-.4a1376.7 1376.7 0 01-3.99 3.76l.38.41c-5.38 5.06-10.78 10.06-16.19 15l-.37-.41c-1.36 1.24-2.71 2.47-4.07 3.7l.38.41c-5.43 4.91-10.87 9.77-16.32 14.57l-.37-.42c-1.39 1.22-2.77 2.44-4.16 3.65l.36.42c-5.56 4.85-11.13 9.64-16.72 14.36l-.36-.42c-.63.53-1.25 1.06-1.88 1.58-.77.66-1.54 1.31-2.31 1.95l.35.43c-5.62 4.71-11.26 9.37-16.91 13.95l-.34-.42-.77.62c-1.18.96-2.35 1.91-3.53 2.85l.35.43c-5.74 4.62-11.49 9.18-17.25 13.67l-.34-.43c-1.44 1.12-2.88 2.24-4.32 3.35l.33.44c-5.82 4.5-11.65 8.93-17.5 13.29l-.33-.44c-1.48 1.1-2.95 2.2-4.43 3.29l.33.45c-5.91 4.37-11.83 8.67-17.76 12.9l-.32-.44-4.45 3.16.32.45c-6.03 4.26-12.07 8.45-18.12 12.57l-.31-.46c-1.51 1.04-3.03 2.07-4.55 3.09l.31.46c-6.08 4.1-12.16 8.12-18.26 12.07l-.3-.46c-1.54 1-3.08 1.99-4.62 2.98l.3.46c-6.22 4-12.45 7.91-18.69 11.75l-.28-.47c-1.56.96-3.12 1.91-4.68 2.86l.29.47c-6.28 3.82-12.56 7.56-18.84 11.23l-.28-.48c-1.59.93-3.19 1.85-4.78 2.77l.27.48c-6.38 3.67-12.77 7.27-19.16 10.78l-.27-.49c-1.59.88-3.19 1.75-4.79 2.62l.26.48c-6.48 3.53-12.97 6.96-19.47 10.31l-.25-.49c-.53.27-1.06.54-1.59.82-1.1.56-2.2 1.13-3.31 1.69l.25.49c-6.53 3.32-13.07 6.56-19.61 9.71l-.24-.49c-1.65.79-3.31 1.59-4.97 2.37l.24.5c-6.68 3.17-13.36 6.25-20.03 9.24l-.23-.5c-.56.25-1.12.5-1.69.75-1.1.49-2.21.98-3.31 1.47l.22.5c-6.74 2.97-13.47 5.84-20.21 8.62l-.21-.51c-1.7.7-3.4 1.39-5.1 2.08l.2.51a877.72 877.72 0 01-20.42 7.99l-.2-.52c-1.7.64-3.4 1.28-5.1 1.9l.2.52a836.92 836.92 0 01-20.83 7.39l-.17-.53c-1.74.59-3.47 1.17-5.2 1.75l.17.52c-6.98 2.32-13.95 4.54-20.91 6.64l-.16-.52c-1.77.53-3.53 1.06-5.29 1.58l.15.53c-7.05 2.08-14.1 4.05-21.13 5.9l-.14-.53c-1.76.46-3.51.92-5.27 1.37l.14.53c-7.17 1.84-14.33 3.56-21.47 5.16l-.12-.54c-1.79.4-3.57.8-5.35 1.18l.11.54c-7.19 1.56-14.37 2.99-21.53 4.3l-.1-.54c-1.81.33-3.62.66-5.43.97l.1.54c-7.24 1.27-14.46 2.41-21.65 3.42l-.08-.55c-1.81.26-3.63.51-5.44.75l.07.54c-7.32.97-14.62 1.8-21.9 2.51l-.05-.55c-1.81.17-3.63.34-5.44.5l.04.55c-7.34.64-14.66 1.14-21.94 1.51l-.03-.55c-1.83.09-3.66.17-5.49.25l.02.55c-7.34.3-14.65.45-21.92.47v-.55c-1.84 0-3.68 0-5.52-.02v.55c-7.36-.06-14.68-.26-21.96-.61l.02-.56c-1.82-.08-3.63-.18-5.45-.29l-.03.55c-7.36-.43-14.68-1.02-21.96-1.76l.05-.55c-1.81-.18-3.63-.38-5.44-.58l-.07.55c-7.3-.83-14.56-1.8-21.78-2.94l.09-.55c-1.81-.28-3.62-.58-5.42-.88l-.09.54c-7.24-1.22-14.42-2.61-21.56-4.15l.12-.54c-1.8-.39-3.58-.79-5.37-1.2l-.12.54a463.94 463.94 0 01-21.304-5.41l.148-.53c-1.76-.49-3.517-.99-5.27-1.5l-.154.53a461.314 461.314 0 01-20.95-6.67l.179-.52c-1.729-.6-3.455-1.21-5.177-1.83l-.186.52a445.836 445.836 0 01-20.487-7.92l.212-.51c-1.689-.7-3.375-1.42-5.056-2.14l-.218.51a444.522 444.522 0 01-19.973-9.18l.242-.5a474.67 474.67 0 01-4.903-2.43l-.248.49c-6.53-3.3-12.994-6.77-19.39-10.41l.273-.48c-.799-.45-1.596-.91-2.393-1.37l-.678-.39c-.57-.33-1.138-.67-1.706-1l-.278.48a439.84 439.84 0 01-18.709-11.59l.302-.46c-1.529-1-3.05-2.01-4.564-3.03l-.308.46a445.026 445.026 0 01-17.936-12.71l.33-.44c-1.466-1.09-2.926-2.2-4.378-3.31l-.335.44a451.335 451.335 0 01-17.107-13.78l.356-.42a602.103 602.103 0 01-4.167-3.58l-.361.42a451.224 451.224 0 01-16.251-14.81l.381-.4c-.596-.57-1.191-1.14-1.784-1.71-.72-.7-1.438-1.4-2.154-2.1l-.386.4a462.388 462.388 0 01-15.331-15.75l.404-.37c-1.247-1.34-2.487-2.7-3.72-4.05l-.408.37a484.238 484.238 0 01-14.375-16.59l.424-.35a429.122 429.122 0 01-3.478-4.26l-.429.35a502.724 502.724 0 01-13.436-17.39l.444-.33c-1.084-1.47-2.16-2.94-3.23-4.43l-.447.33a523.689 523.689 0 01-12.507-18.15l.461-.3c-1-1.52-1.992-3.04-2.978-4.57l-.464.3a544.072 544.072 0 01-11.514-18.71l.476-.28a592.51 592.51 0 01-2.774-4.77l-.478.27a556.912 556.912 0 01-10.552-19.22l.488-.25c-.849-1.62-1.693-3.25-2.529-4.88l-.491.25a594.698 594.698 0 01-9.664-19.76l.499-.24a621.93 621.93 0 01-2.289-4.96l-.502.23a623.728 623.728 0 01-8.783-20.22l.51-.21a834.55 834.55 0 01-2.078-5.08l-.512.2a653.455 653.455 0 01-7.864-20.45l.517-.19a691.15 691.15 0 01-1.872-5.19l-.519.19a696.18 696.18 0 01-7.043-20.8l.525-.17c-.558-1.74-1.109-3.48-1.655-5.23l-.527.17a739.248 739.248 0 01-6.268-21.18l.531-.15c-.488-1.74-.97-3.49-1.447-5.24l-.532.14a760.06 760.06 0 01-5.451-21.25l.536-.13a949.01 949.01 0 01-1.277-5.37l-.537.12a803.203 803.203 0 01-4.706-21.43l.54-.11c-.367-1.79-.728-3.58-1.085-5.37l-.541.1a843.027 843.027 0 01-4.015-21.72l.543-.1c-.306-1.78-.606-3.57-.902-5.36l-.544.09a882.516 882.516 0 01-3.299-21.68l.546-.08c-.254-1.82-.503-3.64-.746-5.47l-.546.08a925.472 925.472 0 01-2.644-21.81l.548-.06c-.198-1.81-.391-3.63-.579-5.44l-.548.05a967.92 967.92 0 01-2.017-21.96l.55-.05c-.147-1.83-.289-3.66-.426-5.49l-.55.04c-.54-7.24-1.005-14.52-1.392-21.84l.551-.03a963.78 963.78 0 01-.276-5.5l-.551.03c-.347-7.3-.618-14.64-.813-22.01l.551-.02c-.048-1.82-.091-3.63-.13-5.46l-.551.02c-.156-7.29-.237-14.62-.246-21.99h.552c-.002-1.84 0-3.68.007-5.53h-.551c.028-7.27.128-14.58.299-21.93l.552.02c.042-1.83.089-3.66.141-5.48l-.552-.02c.206-7.32.483-14.67.83-22.06l.551.03c.086-1.83.176-3.66.271-5.49l-.551-.03c.375-7.25.818-14.53 1.329-21.85l.55.04c.128-1.83.26-3.66.396-5.49l-.55-.04c.543-7.29 1.154-14.62 1.832-21.97l.549.05c.167-1.81.338-3.62.513-5.43l-.549-.06c.7-7.25 1.467-14.53 2.298-21.83l.548.06c.208-1.82.42-3.65.636-5.48l-.547-.06c.856-7.25 1.777-14.52 2.762-21.81l.546.07c.244-1.8.492-3.61.744-5.42l-.546-.07c1.008-7.24 2.079-14.5 3.214-21.77l.545.08c.283-1.82.571-3.64.862-5.46l-.544-.09c1.15-7.18 2.361-14.39 3.635-21.62l.543.1c.317-1.8.637-3.6.962-5.4l-.543-.1c1.299-7.2 2.659-14.42 4.08-21.66l.541.1c.355-1.81.714-3.62 1.076-5.43l-.54-.1a1431.73 1431.73 0 014.458-21.42l.539.11c.386-1.78.775-3.57 1.169-5.36l-.539-.12a1467.99 1467.99 0 014.901-21.52l.537.12c.418-1.77.84-3.55 1.265-5.33l-.536-.13c1.694-7.07 3.444-14.16 5.252-21.26l.535.13c.452-1.77.907-3.55 1.366-5.32l-.534-.14c1.835-7.1 3.727-14.21 5.677-21.33l.532.14c.479-1.75.963-3.5 1.45-5.26l-.532-.14c1.948-7.02 3.952-14.05 6.011-21.09l.529.16c.514-1.76 1.032-3.52 1.554-5.28l-.529-.16c2.082-7.02 4.219-14.06 6.411-21.1l.527.17c.541-1.74 1.085-3.48 1.632-5.22l-.525-.16a1560.99 1560.99 0 016.735-20.88l.523.17c.575-1.74 1.153-3.48 1.734-5.22l-.523-.18c2.318-6.94 4.69-13.9 7.116-20.85l.521.18c.599-1.72 1.201-3.44 1.807-5.16l-.52-.18c2.424-6.88 4.901-13.77 7.43-20.66l.517.19c.632-1.72 1.268-3.44 1.906-5.16l-.517-.19a1663.8 1663.8 0 017.795-20.61l.515.2c.655-1.7 1.313-3.4 1.975-5.1l-.514-.2c2.648-6.79 5.347-13.6 8.097-20.4l.511.21c.688-1.7 1.378-3.4 2.072-5.1l-.511-.21c2.767-6.78 5.584-13.56 8.451-20.35l.508.22c.71-1.68 1.422-3.36 2.138-5.03l-.507-.22c2.863-6.71 5.776-13.42 8.738-20.13l.505.22a1058 1058 0 012.23-5.03l-.503-.23c2.98-6.69 6.009-13.38 9.088-20.07l.501.23c.761-1.66 1.525-3.31 2.293-4.96l-.5-.24c3.071-6.61 6.19-13.23 9.358-19.85l.497.24c.792-1.65 1.587-3.3 2.385-4.96l-.497-.23c3.187-6.61 6.423-13.21 9.707-19.8l.493.25c.812-1.63 1.627-3.26 2.445-4.89l-.493-.25c3.271-6.52 6.59-13.04 9.956-19.55l.49.26c.841-1.63 1.686-3.26 2.533-4.89l-.489-.25c3.389-6.51 6.826-13.01 10.31-19.51l.486.26c.86-1.6 1.724-3.2 2.59-4.81l-.485-.26c3.465-6.41 6.977-12.82 10.535-19.23l.482.27c.889-1.6 1.782-3.2 2.677-4.8l-.482-.27c3.582-6.4 7.209-12.79 10.883-19.18l.478.28 1.38-2.4c.46-.79.921-1.59 1.383-2.39l-.477-.27c3.693-6.38 7.416-12.72 11.167-19.02l.474.28c.938-1.57 1.877-3.14 2.819-4.71l-.473-.29c3.766-6.28 7.561-12.53 11.385-18.74l.469.29c.956-1.55 1.913-3.1 2.872-4.65l-.468-.29c3.884-6.26 7.796-12.49 11.737-18.68l.465.3c.985-1.55 1.972-3.09 2.961-4.64l-.464-.29c3.955-6.17 7.939-12.31 11.949-18.4l.461.3c1.002-1.52 2.007-3.04 3.012-4.56l-.459-.3c4.069-6.14 8.166-12.24 12.289-18.31l.456.31c1.032-1.51 2.066-3.03 3.102-4.54l-.455-.31c4.144-6.05 8.314-12.06 12.511-18.03l.451.32c1.049-1.49 2.099-2.98 3.151-4.47l-.45-.32a1821.52 1821.52 0 0112.841-17.91l.446.33c1.079-1.49 2.16-2.97 3.242-4.45l-.445-.33c4.331-5.92 8.687-11.8 13.068-17.63l.441.33c1.095-1.46 2.191-2.91 3.289-4.37l-.439-.33c4.439-5.87 8.903-11.7 13.393-17.49l.435.34c1.126-1.45 2.253-2.9 3.382-4.35l-.435-.34c4.516-5.78 9.057-11.52 13.621-17.21l.43.35c1.141-1.43 2.283-2.85 3.427-4.26l-.429-.35c4.625-5.73 9.276-11.42 13.946-17.05l.43.35c1.17-1.42 2.34-2.83 3.52-4.24l-.43-.35c4.7-5.63 9.43-11.22 14.17-16.76l.42.36c1.19-1.38 2.37-2.77 3.56-4.14l-.41-.36c4.81-5.58 9.64-11.11 14.5-16.59l.41.36 3.66-4.11-.41-.37c4.88-5.47 9.79-10.9 14.71-16.27l.41.37c1.23-1.34 2.46-2.68 3.7-4.02l-.41-.37c5-5.42 10.03-10.79 15.07-16.11l.4.38c1.26-1.33 2.53-2.66 3.79-3.98l-.4-.38c5.07-5.3 10.16-10.55 15.26-15.75l.39.39 3.83-3.89-.39-.39c5.19-5.25 10.41-10.44 15.64-15.58l.38.39 3.93-3.84-.38-.4c5.24-5.11 10.51-10.17 15.79-15.18l.38.4c1.32-1.25 2.65-2.51 3.98-3.76l-.38-.4c5.38-5.06 10.78-10.06 16.19-15.01l.38.41c1.35-1.23 2.7-2.47 4.06-3.69l-.37-.41c5.42-4.92 10.86-9.78 16.32-14.57l.36.41c1.39-1.22 2.78-2.43 4.17-3.65l-.37-.41c5.56-4.85 11.14-9.64 16.73-14.37l.35.42c1.4-1.18 2.8-2.36 4.2-3.53l-.36-.42c5.62-4.72 11.26-9.37 16.91-13.96l.35.43 4.29-3.48-.34-.43c5.73-4.62 11.48-9.18 17.24-13.67l.34.44c1.44-1.12 2.88-2.24 4.33-3.36l-.34-.43c5.82-4.5 11.66-8.93 17.5-13.3l.33.44 4.43-3.29-.33-.44c5.91-4.37 11.83-8.68 17.76-12.91l.32.45c1.49-1.06 2.97-2.11 4.45-3.16l-.32-.45c6.03-4.26 12.07-8.45 18.12-12.57l.31.45c1.52-1.03 3.03-2.06 4.55-3.08l-.31-.46c6.08-4.1 12.17-8.13 18.26-12.08l.3.47c1.54-1 3.08-1.99 4.62-2.98l-.3-.47c6.22-3.99 12.45-7.91 18.69-11.74l.29.47c1.56-.96 3.11-1.92 4.67-2.87l-.28-.47c6.27-3.82 12.55-7.56 18.83-11.22l.28.48c1.6-.93 3.19-1.86 4.79-2.77l-.28-.48c6.38-3.68 12.77-7.27 19.16-10.78l.27.48c1.6-.88 3.19-1.75 4.79-2.61l-.26-.49c6.49-3.52 12.98-6.95 19.47-10.3l.25.49c1.63-.84 3.27-1.68 4.9-2.51l-.25-.49a990.11 990.11 0 0119.61-9.72l.24.5c1.65-.8 3.31-1.59 4.97-2.38l-.24-.5c6.68-3.17 13.36-6.25 20.04-9.23l.22.5c1.67-.75 3.34-1.49 5-2.22l-.22-.51a994.95 994.95 0 0120.21-8.61l.21.51c1.7-.7 3.4-1.4 5.11-2.09l-.21-.51c6.81-2.76 13.62-5.42 20.43-7.98l.19.51c1.7-.64 3.4-1.27 5.1-1.9l-.19-.51c6.94-2.57 13.89-5.03 20.82-7.39l.18.52c1.73-.59 3.46-1.17 5.19-1.74l-.17-.53a826.62 826.62 0 0120.91-6.64l.16.53c1.77-.54 3.53-1.06 5.29-1.58l-.15-.53c7.06-2.08 14.1-4.05 21.13-5.91l.14.54c1.76-.47 3.51-.92 5.27-1.37l-.14-.54c7.17-1.84 14.33-3.56 21.47-5.16l.12.54c1.79-.4 3.57-.79 5.35-1.18l-.11-.54c7.2-1.55 14.37-2.99 21.53-4.3l.1.55c1.81-.34 3.62-.66 5.43-.98l-.09-.54c7.23-1.26 14.45-2.4 21.64-3.42l.08.55c1.81-.25 3.63-.5 5.44-.74l-.07-.55c7.32-.96 14.62-1.8 21.9-2.5l.05.55c1.82-.18 3.63-.34 5.45-.5l-.05-.55c7.34-.64 14.66-1.15 21.94-1.51l.03.55c1.83-.09 3.66-.18 5.49-.25l-.02-.55c7.34-.3 14.65-.46 21.92-.47v.55c1.84-.01 3.68 0 5.52.01l.01-.55c7.35.06 14.67.27 21.96.62l-.03.55c1.82.09 3.63.19 5.45.29l.03-.55c7.36.44 14.68 1.02 21.96 1.76l-.05.55c1.82.19 3.63.38 5.45.59l.06-.55c7.3.82 14.56 1.8 21.78 2.94l-.09.54c1.81.29 3.62.58 5.42.89l.1-.55a482.03 482.03 0 0121.55 4.16l-.11.54c1.79.39 3.58.78 5.36 1.19l.13-.53c7.15 1.63 14.25 3.43 21.3 5.4l-.15.53c1.76.49 3.51 1 5.27 1.51l.15-.53c7.04 2.05 14.03 4.28 20.95 6.67l-.18.52c1.73.6 3.46 1.2 5.18 1.82l.19-.52c6.89 2.48 13.72 5.12 20.48 7.93l-.21.51c1.69.7 3.38 1.41 5.06 2.13l.21-.5c6.73 2.89 13.38 5.95 19.98 9.18l-.24.49c1.63.8 3.27 1.62 4.9 2.44l.25-.49c6.53 3.3 12.99 6.77 19.39 10.41l-.28.48c.8.45 1.6.91 2.4 1.37.79.46 1.59.92 2.38 1.38l.28-.47c6.35 3.72 12.59 7.58 18.71 11.59l-.3.46c1.52 1 3.05 2.01 4.56 3.02l.31-.45c6.09 4.09 12.07 8.33 17.93 12.7l-.33.45c1.47 1.09 2.93 2.19 4.38 3.31l.34-.44c5.82 4.45 11.52 9.05 17.1 13.78l-.35.42c1.39 1.18 2.78 2.37 4.16 3.57l.37-.42a464.3 464.3 0 0116.25 14.81l-.38.4c1.32 1.26 2.63 2.53 3.93 3.81l.39-.39c5.23 5.12 10.34 10.37 15.33 15.74l-.4.38c1.24 1.34 2.48 2.69 3.72 4.05l.41-.37c4.9 5.4 9.69 10.94 14.37 16.59l-.42.35c1.16 1.41 2.32 2.83 3.47 4.25l.43-.34c4.6 5.67 9.07 11.47 13.44 17.39l-.44.33c1.08 1.46 2.16 2.94 3.22 4.42l.45-.32c4.28 5.93 8.45 11.98 12.51 18.14l-.46.3c1 1.52 1.99 3.05 2.98 4.58l.46-.3c3.95 6.13 7.79 12.37 11.51 18.71l-.47.28c.93 1.58 1.85 3.17 2.77 4.77l.48-.28a581.64 581.64 0 0110.55 19.22l-.49.26c.85 1.62 1.7 3.25 2.53 4.88l.49-.25c3.33 6.49 6.55 13.08 9.67 19.76l-.5.23c.77 1.65 1.53 3.31 2.29 4.97l.5-.23c3.03 6.65 5.96 13.39 8.78 20.22l-.51.21c.7 1.69 1.39 3.38 2.08 5.08l.51-.21c2.72 6.74 5.34 13.56 7.87 20.46l-.52.19c.63 1.72 1.25 3.45 1.87 5.18l.52-.18c2.45 6.86 4.79 13.79 7.04 20.8l-.52.17c.56 1.74 1.11 3.48 1.65 5.22l.53-.16c2.18 6.98 4.27 14.04 6.27 21.17l-.53.15c.49 1.75.97 3.49 1.44 5.25l.54-.15a805.1 805.1 0 015.45 21.26l-.54.12c.43 1.79.86 3.58 1.28 5.38l.54-.13c1.65 7.08 3.22 14.23 4.7 21.44l-.54.11c.37 1.78.73 3.58 1.09 5.37l.54-.11c1.42 7.18 2.76 14.43 4.01 21.73l-.54.09c.31 1.79.61 3.57.9 5.37l.55-.09c1.18 7.17 2.28 14.4 3.3 21.68l-.55.07.75 5.47.54-.07c.96 7.22 1.85 14.49 2.65 21.81l-.55.05c.19 1.82.39 3.63.58 5.45l.54-.06c.76 7.28 1.43 14.6 2.02 21.97l-.55.04c.15 1.83.29 3.66.43 5.5l.55-.04c.54 7.23 1 14.51 1.39 21.83l-.55.03c.1 1.83.19 3.67.27 5.5l.56-.03c.34 7.3.61 14.64.81 22.02l-.55.01c.04 1.82.09 3.64.13 5.46l.55-.01c.15 7.29.24 14.62.24 21.98l-.55.01c0 1.84 0 3.68-.01 5.52l.56.01c-.03 7.27-.13 14.58-.3 21.92l-.55-.01c-.05 1.82-.09 3.65-.15 5.48l.56.02c-.21 7.31-.49 14.67-.83 22.05l-.55-.02c-.09 1.82-.18 3.65-.28 5.48l.55.03c-.37 7.26-.81 14.54-1.32 21.85l-.55-.04c-.13 1.83-.26 3.66-.4 5.49l.55.04c-.54 7.3-1.15 14.62-1.83 21.98l-.55-.05-.51 5.43.55.05c-.71 7.25-1.47 14.53-2.3 21.84l-.55-.07c-.21 1.83-.42 3.66-.64 5.48l.55.07c-.86 7.24-1.78 14.51-2.76 21.8l-.55-.07c-.24 1.81-.49 3.61-.74 5.42l.54.08c-1 7.23-2.08 14.49-3.21 21.77l-.54-.09-.87 5.46.55.09c-1.15 7.19-2.36 14.4-3.64 21.62l-.54-.09c-.32 1.79-.64 3.59-.96 5.39l.54.1c-1.3 7.21-2.66 14.43-4.08 21.67l-.54-.11c-.36 1.81-.71 3.62-1.08 5.43l.54.11c-1.42 7.12-2.91 14.26-4.45 21.42l-.54-.12-1.17 5.37.54.12c-1.58 7.16-3.21 14.33-4.9 21.52l-.54-.13c-.42 1.78-.84 3.56-1.27 5.34l.54.12c-1.69 7.08-3.45 14.17-5.25 21.27l-.54-.14c-.45 1.78-.9 3.55-1.36 5.33l.53.14c-1.84 7.1-3.73 14.21-5.68 21.33l-.53-.15c-.48 1.75-.96 3.51-1.45 5.26l.53.15c-1.95 7.02-3.95 14.05-6.01 21.08l-.53-.15c-.51 1.76-1.03 3.52-1.55 5.28l.53.15c-2.08 7.03-4.22 14.06-6.41 21.1l-.53-.16c-.54 1.74-1.08 3.47-1.63 5.21l.52.17c-2.19 6.95-4.43 13.91-6.73 20.88l-.53-.18c-.57 1.75-1.15 3.49-1.73 5.23l.52.17c-2.31 6.95-4.69 13.9-7.11 20.86l-.52-.18c-.6 1.72-1.2 3.44-1.81 5.16l.52.18c-2.42 6.88-4.9 13.76-7.43 20.65l-.52-.19c-.63 1.72-1.26 3.44-1.9 5.17l.51.19c-2.54 6.86-5.14 13.73-7.79 20.6l-.52-.2c-.24.65-.49 1.3-.74 1.94-.41 1.05-.82 2.11-1.23 3.16l.51.2c-2.65 6.8-5.34 13.6-8.09 20.4l-.52-.2c-.68 1.7-1.37 3.4-2.07 5.1l.51.21c-2.76 6.78-5.58 13.56-8.45 20.34l-.51-.21c-.7 1.67-1.42 3.35-2.13 5.03l.5.21c-2.86 6.72-5.77 13.43-8.73 20.14l-.51-.22c-.74 1.67-1.48 3.35-2.23 5.03l.5.22c-2.98 6.7-6 13.39-9.08 20.08l-.5-.23c-.77 1.65-1.53 3.31-2.3 4.96l.5.23c-3.07 6.62-6.19 13.24-9.36 19.85l-.49-.24c-.79 1.66-1.59 3.31-2.39 4.96l.5.24c-3.19 6.6-6.42 13.2-9.71 19.8l-.49-.25c-.28.57-.57 1.14-.85 1.71-.53 1.06-1.06 2.12-1.6 3.18l.5.25c-3.27 6.52-6.59 13.03-9.96 19.54l-.49-.25c-.4.78-.81 1.57-1.22 2.35-.43.85-.87 1.69-1.31 2.53l.49.26c-3.39 6.5-6.83 13-10.31 19.5l-.49-.26c-.86 1.6-1.72 3.21-2.59 4.81l.49.26c-3.47 6.42-6.98 12.83-10.54 19.23l-.48-.26c-.89 1.6-1.78 3.2-2.68 4.8l.48.26z" stroke="#85FFFF" stroke-width="1.103" stroke-miterlimit="11.474" stroke-dasharray="5.51 22.06"/><g filter="url(#filter7_f)"><ellipse cx="1555.56" cy="4380.49" rx="921.962" ry="593.923" transform="rotate(106.28 1555.56 4380.49)" fill="#1BD6FF" fill-opacity=".2"/></g><circle cx="1997.5" cy="901.5" r="36.25" stroke="#7AC1E1" stroke-width=".5"/><g filter="url(#filter8_d)"><circle cx="1997" cy="902" r="16" fill="#383D76"/></g><path d="M2001 905.888v-1.904l-5.77-2.464 5.77-2.464v-1.904l-8 3.312v2.112l8 3.312z" fill="#7AC1E1"/><circle cx="845.5" cy="2235.5" r="36.25" stroke="#7AC1E1" stroke-width=".5"/><g filter="url(#filter9_d)"><circle cx="845" cy="2236" r="16" fill="#0E0D3B"/></g><path d="M844.188 2236.02h1.936c-.08-2.21 3.728-2.28 3.728-5.27 0-2.43-1.616-3.65-4.352-3.65-3.04 0-4.736 1.78-4.48 4.77h2.032c-.272-1.82.656-2.91 2.4-2.91 1.52 0 2.416.75 2.416 1.95 0 2.21-3.744 1.95-3.68 5.11zm.96 4.19a1.26 1.26 0 001.264-1.28c0-.72-.544-1.25-1.264-1.25-.736 0-1.296.53-1.296 1.25s.56 1.28 1.296 1.28z" fill="#7AC1E1"/><circle cx="1435.5" cy="3350.5" r="36.25" stroke="#7AC1E1" stroke-width=".5"/><g filter="url(#filter10_d)"><circle cx="1435" cy="3351" r="16" fill="#0E0D3B"/></g><path d="M1432.23 3356l8.93-12.64h-2.39l-8.92 12.64h2.38z" fill="#7AC1E1"/><circle cx="969.5" cy="155.5" r="36.25" stroke="#1D375D" stroke-width=".5"/><g filter="url(#filter11_d)"><circle cx="969" cy="156" r="16" fill="#0E1440"/></g><path d="M964.158 162h1.952l.784-3.456 2.976-.016-.8 3.472h1.952l.784-3.472h2.752v-1.696h-2.368l.592-2.544h2.576v-1.712h-2.192l.736-3.216h-1.952l-.736 3.216-2.96.016.736-3.232h-1.952l-.736 3.232h-2.864v1.712h2.48l-.576 2.528h-2.704v1.712h2.32l-.8 3.456zm3.12-5.168l.592-2.528 2.96-.016-.576 2.544h-2.976z" fill="#2D4C7C"/><path d="M1068.83 848.929l-7.07 7.071h14.14l-7.07-7.071z" fill="#F7A501" fill-opacity=".2"/></g><defs><filter id="filter0_f" x="1732.36" y="2557.36" width="243.438" height="243.438" filterUnits="userSpaceOnUse" color-interpolation-filters="sRGB"><feFlood flood-opacity="0" result="BackgroundImageFix"/><feBlend in="SourceGraphic" in2="BackgroundImageFix" result="shape"/><feGaussianBlur stdDeviation="1.837" result="effect1_foregroundBlur"/></filter><filter id="filter1_f" x="1707.56" y="2531.64" width="294.882" height="294.882" filterUnits="userSpaceOnUse" color-interpolation-filters="sRGB"><feFlood flood-opacity="0" result="BackgroundImageFix"/><feBlend in="SourceGraphic" in2="BackgroundImageFix" result="shape"/><feGaussianBlur stdDeviation=".919" result="effect1_foregroundBlur"/></filter><filter id="filter2_f" x="208.395" y="-118.822" width="1551.33" height="1467.66" filterUnits="userSpaceOnUse" color-interpolation-filters="sRGB"><feFlood flood-opacity="0" result="BackgroundImageFix"/><feBlend in="SourceGraphic" in2="BackgroundImageFix" result="shape"/><feGaussianBlur stdDeviation="168.634" result="effect1_foregroundBlur"/></filter><filter id="filter3_f" x="988.731" y="800.731" width="1788.93" height="1648.38" filterUnits="userSpaceOnUse" color-interpolation-filters="sRGB"><feFlood flood-opacity="0" result="BackgroundImageFix"/><feBlend in="SourceGraphic" in2="BackgroundImageFix" result="shape"/><feGaussianBlur stdDeviation="168.634" result="effect1_foregroundBlur"/></filter><filter id="filter4_f" x="562.816" y="271.27" width="1746.83" height="1733.8" filterUnits="userSpaceOnUse" color-interpolation-filters="sRGB"><feFlood flood-opacity="0" result="BackgroundImageFix"/><feBlend in="SourceGraphic" in2="BackgroundImageFix" result="shape"/><feGaussianBlur stdDeviation="168.634" result="effect1_foregroundBlur"/></filter><filter id="filter5_f" x="958.816" y="123.27" width="1746.83" height="1733.8" filterUnits="userSpaceOnUse" color-interpolation-filters="sRGB"><feFlood flood-opacity="0" result="BackgroundImageFix"/><feBlend in="SourceGraphic" in2="BackgroundImageFix" result="shape"/><feGaussianBlur stdDeviation="168.634" result="effect1_foregroundBlur"/></filter><filter id="filter6_f" x="885.816" y="153.27" width="1746.83" height="1733.8" filterUnits="userSpaceOnUse" color-interpolation-filters="sRGB"><feFlood flood-opacity="0" result="BackgroundImageFix"/><feBlend in="SourceGraphic" in2="BackgroundImageFix" result="shape"/><feGaussianBlur stdDeviation="168.634" result="effect1_foregroundBlur"/></filter><filter id="filter7_f" x="371.651" y="2922.01" width="2367.82" height="2916.96" filterUnits="userSpaceOnUse" color-interpolation-filters="sRGB"><feFlood flood-opacity="0" result="BackgroundImageFix"/><feBlend in="SourceGraphic" in2="BackgroundImageFix" result="shape"/><feGaussianBlur stdDeviation="278.9" result="effect1_foregroundBlur"/></filter><filter id="filter8_d" x="1957" y="862" width="80" height="80" filterUnits="userSpaceOnUse" color-interpolation-filters="sRGB"><feFlood flood-opacity="0" result="BackgroundImageFix"/><feColorMatrix in="SourceAlpha" values="0 0 0 0 0 0 0 0 0 0 0 0 0 0 0 0 0 0 127 0"/><feMorphology radius="8" operator="dilate" in="SourceAlpha" result="effect1_dropShadow"/><feOffset/><feGaussianBlur stdDeviation="8"/><feColorMatrix values="0 0 0 0 0.275 0 0 0 0 1 0 0 0 0 0.8695 0 0 0 0.1 0"/><feBlend in2="BackgroundImageFix" result="effect1_dropShadow"/><feBlend in="SourceGraphic" in2="effect1_dropShadow" result="shape"/></filter><filter id="filter9_d" x="805" y="2196" width="80" height="80" filterUnits="userSpaceOnUse" color-interpolation-filters="sRGB"><feFlood flood-opacity="0" result="BackgroundImageFix"/><feColorMatrix in="SourceAlpha" values="0 0 0 0 0 0 0 0 0 0 0 0 0 0 0 0 0 0 127 0"/><feMorphology radius="8" operator="dilate" in="SourceAlpha" result="effect1_dropShadow"/><feOffset/><feGaussianBlur stdDeviation="8"/><feColorMatrix values="0 0 0 0 0.275 0 0 0 0 1 0 0 0 0 0.8695 0 0 0 0.1 0"/><feBlend in2="BackgroundImageFix" result="effect1_dropShadow"/><feBlend in="SourceGraphic" in2="effect1_dropShadow" result="shape"/></filter><filter id="filter10_d" x="1395" y="3311" width="80" height="80" filterUnits="userSpaceOnUse" color-interpolation-filters="sRGB"><feFlood flood-opacity="0" result="BackgroundImageFix"/><feColorMatrix in="SourceAlpha" values="0 0 0 0 0 0 0 0 0 0 0 0 0 0 0 0 0 0 127 0"/><feMorphology radius="8" operator="dilate" in="SourceAlpha" result="effect1_dropShadow"/><feOffset/><feGaussianBlur stdDeviation="8"/><feColorMatrix values="0 0 0 0 0.275 0 0 0 0 1 0 0 0 0 0.8695 0 0 0 0.1 0"/><feBlend in2="BackgroundImageFix" result="effect1_dropShadow"/><feBlend in="SourceGraphic" in2="effect1_dropShadow" result="shape"/></filter><filter id="filter11_d" x="929" y="116" width="80" height="80" filterUnits="userSpaceOnUse" color-interpolation-filters="sRGB"><feFlood flood-opacity="0" result="BackgroundImageFix"/><feColorMatrix in="SourceAlpha" values="0 0 0 0 0 0 0 0 0 0 0 0 0 0 0 0 0 0 127 0"/><feMorphology radius="8" operator="dilate" in="SourceAlpha" result="effect1_dropShadow"/><feOffset/><feGaussianBlur stdDeviation="8"/><feColorMatrix values="0 0 0 0 0.275 0 0 0 0 1 0 0 0 0 0.8695 0 0 0 0.1 0"/><feBlend in2="BackgroundImageFix" result="effect1_dropShadow"/><feBlend in="SourceGraphic" in2="effect1_dropShadow" result="shape"/></filter><clipPath id="clip0"><path fill="#fff" d="M0 0h2630v5990H0z"/></clipPath></defs></svg>