<svg fill="none" viewBox="0 0 559 416"><g clip-path="url(#clip0)"><path fill="#F96132" fill-rule="evenodd" d="M381.423 58.959h60.848a2.723 2.723 0 012.741 2.712v336.211a2.708 2.708 0 01-.807 1.924 2.727 2.727 0 01-1.934.789h-60.848a2.734 2.734 0 01-1.933-.789 2.713 2.713 0 01-.807-1.924V61.672a2.722 2.722 0 012.74-2.713z" clip-rule="evenodd"/><path fill="#F96132" fill-rule="evenodd" d="M319.602 109.142h60.847c1.515 0 2.741 1.029 2.741 2.316v287.073c0 1.282-1.226 2.316-2.741 2.316h-60.847c-1.515 0-2.741-1.029-2.741-2.316V111.458c0-1.276 1.226-2.316 2.741-2.316z" clip-rule="evenodd"/><path fill="#F96132" fill-rule="evenodd" d="M257.136 150.961h60.848c1.515 0 2.741.89 2.741 1.987v245.82c0 1.096-1.226 1.986-2.741 1.986h-60.848c-1.514 0-2.74-.89-2.74-1.986v-245.82c0-1.097 1.226-1.987 2.74-1.987z" clip-rule="evenodd"/><path fill="#F96132" fill-rule="evenodd" d="M197.247 199.857h60.847c1.515 0 2.741.716 2.741 1.596v197.644c0 .88-1.226 1.596-2.741 1.596h-60.847c-1.515 0-2.741-.716-2.741-1.596V201.453c0-.88 1.226-1.596 2.741-1.596z" clip-rule="evenodd"/><path fill="#F96132" fill-rule="evenodd" d="M132.849 249.397h60.848c1.515 0 2.741.515 2.741 1.205v149.205c0 .664-1.226 1.205-2.741 1.205h-60.848c-1.514 0-2.741-.541-2.741-1.205V250.602c0-.664 1.227-1.205 2.741-1.205z" clip-rule="evenodd"/><path fill="#F96132" fill-rule="evenodd" d="M67.164 295.72h60.848c1.514 0 2.741.376 2.741.834v103.454c0 .463-1.227.839-2.741.839H67.164c-1.514 0-2.74-.376-2.74-.839V296.554c0-.448 1.225-.834 2.74-.834z" clip-rule="evenodd"/><path fill="#F96132" fill-rule="evenodd" d="M2.767 333.679h60.847c1.515 0 2.741.237 2.741.515v65.994c0 .299-1.226.515-2.74.515H2.766c-1.515 0-2.741-.237-2.741-.515v-65.994c0-.278 1.226-.515 2.74-.515z" clip-rule="evenodd"/><path stroke="#FFA387" stroke-dasharray="3.13 3.13" stroke-linecap="round" stroke-linejoin="round" stroke-width="2.345" d="M378.368 108.72l.046 291.515m-61.255-249.181l.716 249.114m-62.537-200.954l1.03 201.438m-62.012-150.735l1.345 150.621m-65.727-104.869l.119 105.312m-65.83-66.622l.402 66.087"/><path fill="#F7A501" fill-rule="evenodd" d="M363.466 209.55h161.251v127.131H363.466V209.55zm-20.788 135.32h204.526v57.183H342.678V344.87z" clip-rule="evenodd"/><path stroke="#F7A501" stroke-linecap="round" stroke-linejoin="round" stroke-width="25.956" d="M400.481 207.713c0-23.033 19.397-41.691 43.322-41.691 23.925 0 43.316 18.674 43.316 41.691 0 23.017-19.396 41.691-43.316 41.691s-43.322-18.658-43.322-41.691z" clip-rule="evenodd"/><path fill="#35416B" fill-rule="evenodd" d="M391.527 225.295h105.612c4.971 0 9 4.179 9 9.332v70.971c0 5.147-4.029 9.327-9 9.327H391.527c-4.966 0-9-4.175-9-9.327v-70.971c0-5.153 4.034-9.332 9-9.332z" clip-rule="evenodd"/><path fill="#F96132" fill-rule="evenodd" d="M430.856 261.442c0-7.267 6.059-13.155 13.529-13.155s13.529 5.888 13.529 13.155a13.093 13.093 0 01-7.048 11.54c-.603.324-.587.515-1.236.756-.14.052-.284 18.494-.284 18.494s-.407 3.705-2.478 4.436c-2.071.731-2.854.711-4.863.036-2.009-.674-2.427-4.359-2.427-4.359s.356-18.344.145-18.406c-.644-.19-.516-.324-1.123-.597a13.141 13.141 0 01-7.744-11.9z" clip-rule="evenodd"/><path fill="#fff" fill-rule="evenodd" stroke="#769FD1" stroke-linecap="round" stroke-linejoin="round" stroke-width="8.084" d="M44.373 230.415a9.258 9.258 0 015.663-8.621 9.283 9.283 0 0110.135 1.951 9.266 9.266 0 012.05 10.107 9.278 9.278 0 01-8.575 5.74 9.238 9.238 0 01-6.537-2.672 9.225 9.225 0 01-2.736-6.505zm185.886-57.322a9.265 9.265 0 015.664-8.621 9.272 9.272 0 015.364-.563 9.266 9.266 0 016.821 12.622 9.265 9.265 0 01-3.415 4.172 9.283 9.283 0 01-5.161 1.567 9.236 9.236 0 01-9.273-9.177zm234.835-13.156a9.26 9.26 0 015.66-8.625 9.283 9.283 0 0110.137 1.949 9.258 9.258 0 01-1.363 14.28 9.276 9.276 0 01-5.161 1.568 9.237 9.237 0 01-6.535-2.67 9.226 9.226 0 01-2.738-6.502zm-344.635-6.65a9.264 9.264 0 015.664-8.621 9.273 9.273 0 0110.135 1.952 9.261 9.261 0 012.05 10.107 9.27 9.27 0 01-8.575 5.74 9.245 9.245 0 01-6.537-2.672 9.228 9.228 0 01-2.737-6.506zm185.65-113.68a9.268 9.268 0 015.663-8.621 9.283 9.283 0 0110.136 1.95 9.266 9.266 0 012.562 4.743 9.262 9.262 0 01-3.927 9.537 9.28 9.28 0 01-5.161 1.567 9.243 9.243 0 01-6.537-2.672 9.224 9.224 0 01-2.736-6.505z" clip-rule="evenodd"/><path stroke="#769FD1" stroke-linecap="round" stroke-linejoin="round" stroke-width="8.084" d="M58.962 222.973l63.646-62.516m17.876-8.569l87.957 21.787m16.81-8.93l61.852-116.09m15.754-3.722L465.954 154.9"/><path stroke="#769FD1" stroke-linecap="round" stroke-linejoin="round" stroke-width="5.269" d="M482.645 152.176l74.619-95.652"/><path fill="#F7A501" fill-rule="evenodd" d="M138.243 17.448h115.766a12.21 12.21 0 018.63 3.572 12.187 12.187 0 013.575 8.621v67.735c0 3.234-1.286 6.335-3.575 8.622a12.213 12.213 0 01-8.63 3.571H138.243a12.213 12.213 0 01-8.63-3.571 12.187 12.187 0 01-3.574-8.622V29.64c0-3.233 1.285-6.335 3.574-8.621a12.21 12.21 0 018.63-3.572z" clip-rule="evenodd"/><path fill="#FFD072" fill-rule="evenodd" d="M174.347 17.51c-1.077-6.176 4.57-12.353 12.612-13.753 8.041-1.4 15.455 2.491 16.516 8.688 1.061 6.197-4.564 12.353-12.611 13.753-8.047 1.4-15.435-2.491-16.517-8.688z" clip-rule="evenodd"/><path fill="#FFD072" fill-rule="evenodd" d="M189.272 23.578l5.837 13.444-2.952-17.649-2.885 4.205z" clip-rule="evenodd"/><path fill="#FFE1A6" fill-rule="evenodd" d="M174.157 15.678c-1.185-5.935 4.198-12.008 12.029-13.573 7.831-1.565 15.136 1.982 16.326 7.916 1.19 5.935-4.199 12.008-12.029 13.573-7.831 1.564-15.141-1.982-16.326-7.916z" clip-rule="evenodd"/><path fill="#fff" fill-rule="evenodd" d="M147.681 54.3a11.73 11.73 0 0114.091-11.361 11.72 11.72 0 018.466 15.992 11.723 11.723 0 01-4.321 5.24 11.74 11.74 0 01-6.505 1.968 11.799 11.799 0 01-8.319-3.493 11.78 11.78 0 01-3.412-8.345z" clip-rule="evenodd"/><path fill="#fff" fill-rule="evenodd" d="M140.021 81.641s1.87-17.89 19.958-17.741c18.685.154 19.952 17.741 19.952 17.741h-39.91z" clip-rule="evenodd"/><path fill="#769FD1" fill-rule="evenodd" d="M104.989 175.589h17.65l7.181-9.058 7.542 9.058h18.48c1.733 0 3.395.688 4.621 1.911a6.527 6.527 0 011.916 4.616v28.694a6.523 6.523 0 01-1.911 4.63 6.536 6.536 0 01-4.631 1.917h-50.848a6.54 6.54 0 01-4.62-1.915 6.529 6.529 0 01-1.913-4.617v-28.709c0-1.731.688-3.391 1.913-4.615a6.537 6.537 0 014.62-1.912z" clip-rule="evenodd"/><path fill="#fff" fill-rule="evenodd" d="M110.413 186.213h39.37a1.545 1.545 0 011.546 1.544v1.106a1.542 1.542 0 01-1.546 1.544h-39.37a1.545 1.545 0 01-1.545-1.544v-1.106a1.54 1.54 0 011.545-1.544zM200.992 42.36h39.37a1.547 1.547 0 011.545 1.544v1.106a1.542 1.542 0 01-1.545 1.544h-39.37a1.547 1.547 0 01-1.546-1.544v-1.106a1.543 1.543 0 011.546-1.544zm.417 7.72h39.37a1.547 1.547 0 011.546 1.544v1.107a1.543 1.543 0 01-1.546 1.544h-39.37a1.547 1.547 0 01-1.545-1.544v-1.107a1.546 1.546 0 011.545-1.544zm-.417 16.862h39.37a1.547 1.547 0 011.545 1.544v1.111a1.542 1.542 0 01-1.545 1.545h-39.37a1.547 1.547 0 01-1.546-1.544v-1.112a1.543 1.543 0 011.546-1.544zm0 7.087h39.37a1.547 1.547 0 011.545 1.544v1.107a1.542 1.542 0 01-1.545 1.544h-39.37a1.547 1.547 0 01-1.546-1.544v-1.107a1.543 1.543 0 011.546-1.544zm.417 7.299h39.37a1.547 1.547 0 011.546 1.544v1.106a1.543 1.543 0 01-1.546 1.544h-39.37a1.547 1.547 0 01-1.545-1.544v-1.111a1.544 1.544 0 011.545-1.54zm-90.795 112.945h39.37a1.542 1.542 0 011.545 1.544v1.107a1.546 1.546 0 01-1.545 1.544h-39.37a1.546 1.546 0 01-1.546-1.544v-1.107a1.543 1.543 0 011.546-1.544zm-.103 8.158h39.37a1.545 1.545 0 011.545 1.544v1.106a1.546 1.546 0 01-1.545 1.545h-39.37a1.546 1.546 0 01-1.546-1.545v-1.106a1.543 1.543 0 011.546-1.544z" clip-rule="evenodd"/><path fill="#E6E6E6" fill-rule="evenodd" d="M127.824 248.993l25.594-1.03a5.027 5.027 0 013.608 1.323 5.017 5.017 0 011.616 3.485l4.431 108.431a5.022 5.022 0 01-4.812 5.219l-25.594 1.03c-2.772.113-6.631-1.359-8.619-3.289l-.072-.067c-1.994-1.93-3.555-5.739-3.498-8.513l2.22-101.365a5.409 5.409 0 015.126-5.224z" clip-rule="evenodd"/><path fill="#E6E6E6" fill-rule="evenodd" d="M90.391 118.409a81.637 81.637 0 00-32.921 46.367 81.565 81.565 0 005.358 56.596 81.677 81.677 0 0041.038 39.38 81.785 81.785 0 0056.819 3.067 81.699 81.699 0 0045.046-34.733 81.568 81.568 0 0011.43-55.69 81.614 81.614 0 00-27.729-49.641 81.759 81.759 0 00-53.442-19.521 81.679 81.679 0 00-45.599 14.175zm13.627 20.814a55.917 55.917 0 0168.658 4.429 55.803 55.803 0 0117.808 31.696 55.775 55.775 0 01-5.498 35.931 55.853 55.853 0 01-26.475 24.932 55.918 55.918 0 01-36.226 3.363 55.879 55.879 0 01-30.62-19.632 55.79 55.79 0 01-12.03-34.304A55.492 55.492 0 0186 159.376a55.546 55.546 0 0118.018-20.153z" clip-rule="evenodd"/><path fill="#fff" fill-rule="evenodd" d="M83.42 110.935a81.647 81.647 0 00-32.924 46.37 81.573 81.573 0 005.357 56.6 81.687 81.687 0 0041.04 39.383 81.794 81.794 0 0056.822 3.069 81.71 81.71 0 0045.05-34.734 81.576 81.576 0 0011.433-55.693 81.621 81.621 0 00-27.729-49.645 81.765 81.765 0 00-53.445-19.525 81.677 81.677 0 00-45.603 14.175zm13.632 20.809a55.912 55.912 0 0168.649 4.437 55.806 55.806 0 0117.803 31.694 55.772 55.772 0 01-5.499 35.926 55.852 55.852 0 01-26.472 24.928 55.927 55.927 0 01-36.222 3.363 55.88 55.88 0 01-30.616-19.629 55.782 55.782 0 01-12.031-34.298 55.543 55.543 0 016.372-26.263 55.608 55.608 0 0118.016-20.158z" clip-rule="evenodd"/><path fill="#fff" fill-rule="evenodd" d="M83.42 110.935a81.647 81.647 0 00-32.924 46.37 81.573 81.573 0 005.357 56.6 81.687 81.687 0 0041.04 39.383 81.794 81.794 0 0056.822 3.069 81.71 81.71 0 0045.05-34.734 81.576 81.576 0 0011.433-55.693 81.621 81.621 0 00-27.729-49.645 81.765 81.765 0 00-53.445-19.525 81.677 81.677 0 00-45.603 14.175zm13.632 20.809a55.912 55.912 0 0168.649 4.437 55.806 55.806 0 0117.803 31.694 55.772 55.772 0 01-5.499 35.926 55.852 55.852 0 01-26.472 24.928 55.927 55.927 0 01-36.222 3.363 55.88 55.88 0 01-30.616-19.629 55.782 55.782 0 01-12.031-34.298 55.543 55.543 0 016.372-26.263 55.608 55.608 0 0118.016-20.158z" clip-rule="evenodd"/><path fill="#fff" fill-rule="evenodd" d="M127.751 253.445h17.218a7.931 7.931 0 015.624 2.328 7.934 7.934 0 012.32 5.624v94.19a7.93 7.93 0 01-2.325 5.608 7.942 7.942 0 01-5.614 2.323h-17.223a7.94 7.94 0 01-5.613-2.323 7.926 7.926 0 01-2.325-5.608v-94.19a7.92 7.92 0 012.317-5.622 7.938 7.938 0 015.621-2.33z" clip-rule="evenodd"/></g><defs><clipPath id="clip0"><path fill="#fff" d="M0 0h559v415.145H0z"/></clipPath></defs></svg>