<svg xmlns="http://www.w3.org/2000/svg" width="559" height="416" fill="none" viewBox="0 0 559 416"><g clip-path="url(#clip0)"><path fill="#F96132" fill-rule="evenodd" d="M381.423 58.9587H442.271C442.629 58.9566 442.985 59.0252 443.316 59.1605C443.648 59.2958 443.95 59.4951 444.205 59.747C444.459 59.999 444.661 60.2986 444.8 60.6288C444.939 60.9589 445.011 61.3131 445.012 61.6711V397.882C445.011 398.24 444.939 398.595 444.8 398.925C444.661 399.255 444.459 399.555 444.205 399.806C443.95 400.058 443.648 400.258 443.316 400.393C442.985 400.528 442.629 400.597 442.271 400.595H381.423C381.065 400.597 380.71 400.528 380.378 400.393C380.046 400.258 379.744 400.058 379.49 399.806C379.235 399.555 379.033 399.255 378.894 398.925C378.756 398.595 378.684 398.24 378.683 397.882V61.6711C378.684 61.3131 378.756 60.9589 378.894 60.6288C379.033 60.2986 379.235 59.999 379.49 59.747C379.744 59.4951 380.046 59.2958 380.378 59.1605C380.71 59.0252 381.065 58.9566 381.423 58.9587Z" clip-rule="evenodd"/><path fill="#F96132" fill-rule="evenodd" d="M319.602 109.142H380.449C381.964 109.142 383.19 110.171 383.19 111.458V398.531C383.19 399.813 381.964 400.847 380.449 400.847H319.602C318.087 400.847 316.861 399.818 316.861 398.531V111.458C316.861 110.182 318.087 109.142 319.602 109.142Z" clip-rule="evenodd"/><path fill="#F96132" fill-rule="evenodd" d="M257.136 150.961H317.984C319.499 150.961 320.725 151.851 320.725 152.948V398.768C320.725 399.864 319.499 400.754 317.984 400.754H257.136C255.622 400.754 254.396 399.864 254.396 398.768V152.948C254.396 151.851 255.622 150.961 257.136 150.961Z" clip-rule="evenodd"/><path fill="#F96132" fill-rule="evenodd" d="M197.247 199.857H258.094C259.609 199.857 260.835 200.573 260.835 201.453V399.097C260.835 399.977 259.609 400.693 258.094 400.693H197.247C195.732 400.693 194.506 399.977 194.506 399.097V201.453C194.506 200.573 195.732 199.857 197.247 199.857Z" clip-rule="evenodd"/><path fill="#F96132" fill-rule="evenodd" d="M132.849 249.397H193.697C195.212 249.397 196.438 249.912 196.438 250.602V399.807C196.438 400.471 195.212 401.012 193.697 401.012H132.849C131.335 401.012 130.108 400.471 130.108 399.807V250.602C130.108 249.938 131.335 249.397 132.849 249.397Z" clip-rule="evenodd"/><path fill="#F96132" fill-rule="evenodd" d="M67.1641 295.72H128.012C129.526 295.72 130.753 296.096 130.753 296.554V400.008C130.753 400.471 129.526 400.847 128.012 400.847H67.1641C65.6495 400.847 64.4233 400.471 64.4233 400.008V296.554C64.4233 296.106 65.6495 295.72 67.1641 295.72Z" clip-rule="evenodd"/><path fill="#F96132" fill-rule="evenodd" d="M2.76663 333.679H63.6144C65.129 333.679 66.3552 333.916 66.3552 334.194V400.188C66.3552 400.487 65.129 400.703 63.6144 400.703H2.76663C1.25201 400.703 0.0258789 400.466 0.0258789 400.188V334.194C0.0258789 333.916 1.25201 333.679 2.76663 333.679Z" clip-rule="evenodd"/><path stroke="#FFA387" stroke-dasharray="3.13 3.13" stroke-linecap="round" stroke-linejoin="round" stroke-width="2.345" d="M378.368 108.72L378.414 400.235"/><path stroke="#FFA387" stroke-dasharray="3.13 3.13" stroke-linecap="round" stroke-linejoin="round" stroke-width="2.345" d="M317.159 151.054L317.875 400.168"/><path stroke="#FFA387" stroke-dasharray="3.13 3.13" stroke-linecap="round" stroke-linejoin="round" stroke-width="2.345" d="M255.338 199.214L256.368 400.652"/><path stroke="#FFA387" stroke-dasharray="3.13 3.13" stroke-linecap="round" stroke-linejoin="round" stroke-width="2.345" d="M194.356 249.917L195.701 400.538"/><path stroke="#FFA387" stroke-dasharray="3.13 3.13" stroke-linecap="round" stroke-linejoin="round" stroke-width="2.345" d="M129.974 295.669L130.093 400.981"/><path stroke="#FFA387" stroke-dasharray="3.13 3.13" stroke-linecap="round" stroke-linejoin="round" stroke-width="2.345" d="M64.2632 334.359L64.665 400.446"/><path fill="#F7A501" fill-rule="evenodd" d="M363.466 209.55H524.717V336.681H363.466V209.55Z" clip-rule="evenodd"/><path fill="#F7A501" fill-rule="evenodd" d="M342.678 344.87H547.204V402.053H342.678V344.87Z" clip-rule="evenodd"/><path fill-rule="evenodd" stroke="#F7A501" stroke-linecap="round" stroke-linejoin="round" stroke-width="25.956" d="M400.481 207.713C400.481 184.68 419.878 166.022 443.803 166.022C467.728 166.022 487.119 184.696 487.119 207.713C487.119 230.73 467.723 249.404 443.803 249.404C419.883 249.404 400.481 230.746 400.481 207.713Z" clip-rule="evenodd"/><path fill="#35416B" fill-rule="evenodd" d="M391.527 225.295H497.139C502.11 225.295 506.139 229.474 506.139 234.627V305.598C506.139 310.745 502.11 314.925 497.139 314.925H391.527C386.561 314.925 382.527 310.75 382.527 305.598V234.627C382.527 229.474 386.561 225.295 391.527 225.295Z" clip-rule="evenodd"/><path fill="#F96132" fill-rule="evenodd" d="M430.856 261.442C430.856 254.175 436.915 248.287 444.385 248.287C451.855 248.287 457.914 254.175 457.914 261.442C457.901 263.824 457.237 266.158 455.996 268.191C454.754 270.224 452.98 271.881 450.866 272.982C450.263 273.306 450.279 273.497 449.63 273.738C449.49 273.79 449.346 292.232 449.346 292.232C449.346 292.232 448.939 295.937 446.868 296.668C444.797 297.399 444.014 297.379 442.005 296.704C439.996 296.03 439.578 292.345 439.578 292.345C439.578 292.345 439.934 274.001 439.723 273.939C439.079 273.749 439.207 273.615 438.6 273.342C436.304 272.307 434.354 270.636 432.981 268.527C431.609 266.417 430.871 263.958 430.856 261.442Z" clip-rule="evenodd"/><path fill="#fff" fill-rule="evenodd" stroke="#769FD1" stroke-linecap="round" stroke-linejoin="round" stroke-width="8.084" d="M44.3725 230.415C44.3551 228.579 44.8842 226.779 45.8926 225.244C46.9009 223.709 48.343 222.508 50.0359 221.794C51.7287 221.079 53.596 220.883 55.4005 221.23C57.2051 221.578 58.8656 222.453 60.1713 223.745C61.4769 225.038 62.3688 226.688 62.7338 228.488C63.0988 230.287 62.9203 232.154 62.2211 233.852C61.5219 235.55 60.3334 237.003 58.8066 238.024C57.2798 239.046 55.4835 239.592 53.6457 239.592C51.1985 239.602 48.8475 238.641 47.1089 236.92C45.3703 235.199 44.3861 232.86 44.3725 230.415Z" clip-rule="evenodd"/><path fill="#fff" fill-rule="evenodd" stroke="#769FD1" stroke-linecap="round" stroke-linejoin="round" stroke-width="8.084" d="M230.259 173.093C230.242 171.257 230.771 169.457 231.779 167.922C232.788 166.387 234.23 165.186 235.923 164.472C237.615 163.757 239.483 163.561 241.287 163.909C243.092 164.256 244.752 165.131 246.058 166.424C247.364 167.716 248.256 169.366 248.62 171.166C248.985 172.965 248.807 174.833 248.108 176.531C247.409 178.229 246.22 179.681 244.693 180.703C243.167 181.724 241.37 182.27 239.532 182.27C237.085 182.28 234.734 181.319 232.996 179.598C231.257 177.878 230.273 175.538 230.259 173.093Z" clip-rule="evenodd"/><path fill="#fff" fill-rule="evenodd" stroke="#769FD1" stroke-linecap="round" stroke-linejoin="round" stroke-width="8.084" d="M465.094 159.937C465.075 158.101 465.604 156.301 466.611 154.765C467.619 153.23 469.061 152.028 470.754 151.312C472.446 150.597 474.314 150.4 476.119 150.747C477.923 151.094 479.584 151.969 480.891 153.261C482.197 154.553 483.089 156.203 483.455 158.003C483.82 159.803 483.642 161.67 482.943 163.368C482.244 165.067 481.055 166.519 479.528 167.541C478.002 168.563 476.205 169.109 474.367 169.109C471.921 169.119 469.57 168.159 467.832 166.439C466.094 164.72 465.109 162.381 465.094 159.937Z" clip-rule="evenodd"/><path fill="#fff" fill-rule="evenodd" stroke="#769FD1" stroke-linecap="round" stroke-linejoin="round" stroke-width="8.084" d="M120.459 153.287C120.442 151.452 120.971 149.652 121.979 148.117C122.988 146.582 124.43 145.381 126.123 144.666C127.816 143.951 129.683 143.755 131.487 144.103C133.292 144.45 134.953 145.326 136.258 146.618C137.564 147.91 138.456 149.561 138.821 151.36C139.186 153.16 139.007 155.027 138.308 156.725C137.609 158.423 136.42 159.875 134.894 160.897C133.367 161.919 131.57 162.464 129.733 162.465C127.285 162.474 124.934 161.513 123.196 159.793C121.457 158.072 120.473 155.732 120.459 153.287Z" clip-rule="evenodd"/><path fill="#fff" fill-rule="evenodd" stroke="#769FD1" stroke-linecap="round" stroke-linejoin="round" stroke-width="8.084" d="M306.109 39.6061C306.091 37.7701 306.621 35.9704 307.629 34.4354C308.637 32.9003 310.079 31.6993 311.772 30.9846C313.465 30.27 315.332 30.074 317.137 30.4215C318.941 30.769 320.602 31.6444 321.908 32.9366C323.213 34.2287 324.105 35.8793 324.47 37.6788C324.835 39.4782 324.657 41.3455 323.957 43.0435C323.258 44.7415 322.07 46.1936 320.543 47.2155C319.016 48.2375 317.22 48.7831 315.382 48.7832C312.935 48.7928 310.584 47.8318 308.845 46.1112C307.107 44.3906 306.122 42.051 306.109 39.6061Z" clip-rule="evenodd"/><path stroke="#769FD1" stroke-linecap="round" stroke-linejoin="round" stroke-width="8.084" d="M58.9624 222.973L122.608 160.457"/><path stroke="#769FD1" stroke-linecap="round" stroke-linejoin="round" stroke-width="8.084" d="M140.484 151.888L228.441 173.675"/><path stroke="#769FD1" stroke-linecap="round" stroke-linejoin="round" stroke-width="8.084" d="M245.251 164.745L307.103 48.6544"/><path stroke="#769FD1" stroke-linecap="round" stroke-linejoin="round" stroke-width="8.084" d="M322.857 44.9332L465.954 154.899"/><path stroke="#769FD1" stroke-linecap="round" stroke-linejoin="round" stroke-width="5.269" d="M482.645 152.176L557.264 56.5242"/><path fill="#F7A501" fill-rule="evenodd" d="M138.243 17.4482H254.009C257.246 17.4482 260.35 18.7329 262.639 21.0195C264.928 23.3062 266.214 26.4076 266.214 29.6414V97.3758C266.214 100.61 264.928 103.711 262.639 105.998C260.35 108.284 257.246 109.569 254.009 109.569H138.243C135.006 109.569 131.902 108.284 129.613 105.998C127.324 103.711 126.039 100.61 126.039 97.3758V29.6414C126.039 26.4076 127.324 23.3062 129.613 21.0195C131.902 18.7329 135.006 17.4482 138.243 17.4482Z" clip-rule="evenodd"/><path fill="#FFD072" fill-rule="evenodd" d="M174.347 17.5099C173.27 11.3336 178.917 5.15717 186.959 3.75719C195 2.35721 202.414 6.24833 203.475 12.4453C204.536 18.6423 198.911 24.7981 190.864 26.198C182.817 27.598 175.429 23.7069 174.347 17.5099Z" clip-rule="evenodd"/><path fill="#FFD072" fill-rule="evenodd" d="M189.272 23.5784L195.109 37.0223L192.157 19.3733L189.272 23.5784Z" clip-rule="evenodd"/><path fill="#FFE1A6" fill-rule="evenodd" d="M174.157 15.6776C172.972 9.74316 178.355 3.66971 186.186 2.10503C194.017 0.540348 201.322 4.08662 202.512 10.0211C203.702 15.9556 198.313 22.029 190.483 23.5937C182.652 25.1584 175.342 21.6121 174.157 15.6776Z" clip-rule="evenodd"/><path fill="#fff" fill-rule="evenodd" d="M147.681 54.3007C147.705 51.9879 148.412 49.7338 149.716 47.8221C151.019 45.9105 152.859 44.4268 155.004 43.5578C157.15 42.6889 159.505 42.4737 161.772 42.9392C164.04 43.4046 166.119 44.5301 167.748 46.1737C169.376 47.8174 170.482 49.9057 170.925 52.1758C171.368 54.4459 171.129 56.7963 170.238 58.9309C169.347 61.0655 167.843 62.8889 165.917 64.1715C163.99 65.4541 161.727 66.1386 159.412 66.1387C156.285 66.1224 153.293 64.8661 151.093 62.6462C148.894 60.4263 147.666 57.4244 147.681 54.3007Z" clip-rule="evenodd"/><path fill="#fff" fill-rule="evenodd" d="M140.021 81.6415C140.021 81.6415 141.891 63.7506 159.979 63.8999C178.664 64.0543 179.931 81.6415 179.931 81.6415H140.021Z" clip-rule="evenodd"/><path fill="#769FD1" fill-rule="evenodd" d="M104.989 175.589H122.639L129.82 166.531L137.362 175.589H155.842C157.575 175.589 159.237 176.277 160.463 177.5C161.689 178.724 162.378 180.384 162.379 182.116V210.81C162.381 211.669 162.214 212.521 161.886 213.315C161.558 214.11 161.076 214.832 160.468 215.44C159.86 216.049 159.138 216.531 158.344 216.86C157.549 217.189 156.697 217.358 155.837 217.357H104.989C103.256 217.356 101.594 216.667 100.369 215.442C99.1441 214.217 98.4561 212.557 98.4561 210.825V182.116C98.4561 180.385 99.1443 178.725 100.369 177.501C101.594 176.277 103.256 175.589 104.989 175.589Z" clip-rule="evenodd"/><path fill="#fff" fill-rule="evenodd" d="M110.413 186.213H149.783C150.193 186.213 150.586 186.375 150.876 186.665C151.166 186.954 151.329 187.347 151.329 187.757V188.863C151.329 189.273 151.166 189.666 150.876 189.955C150.586 190.245 150.193 190.407 149.783 190.407H110.413C110.003 190.407 109.61 190.245 109.32 189.955C109.03 189.666 108.868 189.273 108.868 188.863V187.757C108.868 187.347 109.03 186.954 109.32 186.665C109.61 186.375 110.003 186.213 110.413 186.213Z" clip-rule="evenodd"/><path fill="#fff" fill-rule="evenodd" d="M200.992 42.3597H240.362C240.772 42.3597 241.165 42.5224 241.455 42.812C241.745 43.1016 241.907 43.4943 241.907 43.9038V45.0104C241.907 45.42 241.745 45.8127 241.455 46.1023C241.165 46.3918 240.772 46.5545 240.362 46.5545H200.992C200.582 46.5545 200.189 46.3918 199.899 46.1023C199.609 45.8127 199.446 45.42 199.446 45.0104V43.9038C199.446 43.4943 199.609 43.1016 199.899 42.812C200.189 42.5224 200.582 42.3597 200.992 42.3597Z" clip-rule="evenodd"/><path fill="#fff" fill-rule="evenodd" d="M201.409 50.0801H240.779C241.189 50.0801 241.582 50.2428 241.872 50.5323C242.162 50.8219 242.325 51.2147 242.325 51.6242V52.7308C242.325 53.1403 242.162 53.533 241.872 53.8226C241.582 54.1122 241.189 54.2749 240.779 54.2749H201.409C200.999 54.2749 200.606 54.1122 200.316 53.8226C200.027 53.533 199.864 53.1403 199.864 52.7308V51.6242C199.864 51.2147 200.027 50.8219 200.316 50.5323C200.606 50.2428 200.999 50.0801 201.409 50.0801Z" clip-rule="evenodd"/><path fill="#fff" fill-rule="evenodd" d="M200.992 66.9417H240.362C240.772 66.9417 241.165 67.1043 241.455 67.3939C241.745 67.6835 241.907 68.0762 241.907 68.4857V69.5975C241.907 70.007 241.745 70.3998 241.455 70.6893C241.165 70.9789 240.772 71.1416 240.362 71.1416H200.992C200.582 71.1416 200.189 70.9789 199.899 70.6893C199.609 70.3998 199.446 70.007 199.446 69.5975V68.4857C199.446 68.0762 199.609 67.6835 199.899 67.3939C200.189 67.1043 200.582 66.9417 200.992 66.9417Z" clip-rule="evenodd"/><path fill="#fff" fill-rule="evenodd" d="M200.992 74.0291H240.362C240.772 74.0291 241.165 74.1917 241.455 74.4813C241.745 74.7709 241.907 75.1636 241.907 75.5731V76.6797C241.907 77.0893 241.745 77.482 241.455 77.7716C241.165 78.0612 240.772 78.2238 240.362 78.2238H200.992C200.582 78.2238 200.189 78.0612 199.899 77.7716C199.609 77.482 199.446 77.0893 199.446 76.6797V75.5731C199.446 75.1636 199.609 74.7709 199.899 74.4813C200.189 74.1917 200.582 74.0291 200.992 74.0291Z" clip-rule="evenodd"/><path fill="#fff" fill-rule="evenodd" d="M201.409 81.3275H240.779C241.189 81.3275 241.582 81.4902 241.872 81.7798C242.162 82.0693 242.325 82.4621 242.325 82.8716V83.9782C242.325 84.3877 242.162 84.7805 241.872 85.0701C241.582 85.3596 241.189 85.5223 240.779 85.5223H201.409C200.999 85.5223 200.606 85.3596 200.316 85.0701C200.027 84.7805 199.864 84.3877 199.864 83.9782V82.8665C199.865 82.4578 200.029 82.0664 200.318 81.7779C200.608 81.4895 201 81.3275 201.409 81.3275Z" clip-rule="evenodd"/><path fill="#fff" fill-rule="evenodd" d="M110.614 194.273H149.984C150.394 194.273 150.787 194.436 151.077 194.725C151.367 195.015 151.529 195.407 151.529 195.817V196.924C151.529 197.333 151.367 197.726 151.077 198.015C150.787 198.305 150.394 198.468 149.984 198.468H110.614C110.204 198.468 109.811 198.305 109.521 198.015C109.231 197.726 109.068 197.333 109.068 196.924V195.817C109.068 195.407 109.231 195.015 109.521 194.725C109.811 194.436 110.204 194.273 110.614 194.273Z" clip-rule="evenodd"/><path fill="#fff" fill-rule="evenodd" d="M110.511 202.431H149.881C150.291 202.431 150.684 202.593 150.974 202.883C151.264 203.173 151.426 203.565 151.426 203.975V205.081C151.426 205.491 151.264 205.884 150.974 206.173C150.684 206.463 150.291 206.626 149.881 206.626H110.511C110.101 206.626 109.708 206.463 109.418 206.173C109.128 205.884 108.965 205.491 108.965 205.081V203.975C108.965 203.565 109.128 203.173 109.418 202.883C109.708 202.593 110.101 202.431 110.511 202.431Z" clip-rule="evenodd"/><path fill="#E6E6E6" fill-rule="evenodd" d="M127.824 248.993L153.418 247.963C154.749 247.909 156.047 248.385 157.026 249.286C158.006 250.188 158.587 251.441 158.642 252.771L163.073 361.202C163.127 362.532 162.651 363.828 161.748 364.807C160.846 365.786 159.592 366.366 158.261 366.421L132.667 367.451C129.895 367.564 126.036 366.092 124.048 364.162L123.976 364.095C121.982 362.165 120.421 358.356 120.478 355.582L122.698 254.217C122.743 252.863 123.294 251.575 124.243 250.608C125.192 249.641 126.47 249.064 127.824 248.993Z" clip-rule="evenodd"/><path fill="#E6E6E6" fill-rule="evenodd" d="M90.3914 118.409C74.2115 129.425 62.5288 145.879 57.4699 164.776C52.411 183.674 54.3122 203.758 62.8275 221.372C71.3427 238.987 85.9058 252.962 103.866 260.752C121.826 268.542 141.989 269.631 160.685 263.819C179.381 258.007 195.366 245.682 205.731 229.086C216.097 212.49 220.153 192.728 217.161 173.396C214.17 154.064 204.329 136.448 189.432 123.755C174.534 111.061 155.569 104.134 135.99 104.234C119.716 104.312 103.837 109.248 90.3914 118.409ZM104.018 139.223C114.316 132.203 126.669 128.826 139.11 129.628C151.551 130.431 163.366 135.367 172.676 143.652C181.985 151.936 188.254 163.093 190.484 175.348C192.715 187.602 190.78 200.25 184.986 211.279C179.192 222.308 169.873 231.084 158.511 236.211C147.149 241.339 134.398 242.522 122.285 239.574C110.172 236.626 99.3938 229.716 91.6653 219.942C83.9368 210.169 79.7019 198.094 79.6344 185.638C79.5596 176.494 81.7461 167.473 85.9998 159.376C90.2535 151.278 96.4427 144.356 104.018 139.223Z" clip-rule="evenodd"/><path fill="#fff" fill-rule="evenodd" d="M83.4208 110.935C67.2398 121.952 55.5561 138.407 50.4965 157.305C45.4368 176.203 47.3376 196.289 55.8529 213.905C64.3682 231.521 78.9318 245.496 96.8927 253.288C114.854 261.079 135.018 262.168 153.715 256.357C172.412 250.545 188.399 238.219 198.765 221.623C209.132 205.027 213.189 185.263 210.198 165.93C207.207 146.597 197.367 128.98 182.469 116.285C167.571 103.59 148.605 96.6611 129.024 96.7603C112.749 96.8372 96.8675 101.773 83.4208 110.935ZM97.0525 131.744C107.351 124.727 119.702 121.352 132.141 122.156C144.581 122.96 156.394 127.897 165.701 136.181C175.008 144.466 181.275 155.622 183.504 167.875C185.734 180.128 183.798 192.774 178.005 203.801C172.211 214.828 162.893 223.603 151.533 228.729C140.172 233.855 127.422 235.039 115.311 232.092C103.2 229.144 92.4232 222.235 84.6953 212.463C76.9674 202.692 72.7323 190.619 72.6639 178.165C72.5933 169.02 74.7822 159.999 79.0364 151.902C83.2906 143.804 89.4789 136.881 97.0525 131.744Z" clip-rule="evenodd"/><path fill="#fff" fill-rule="evenodd" d="M83.4208 110.935C67.2398 121.952 55.5561 138.407 50.4965 157.305C45.4368 176.203 47.3376 196.289 55.8529 213.905C64.3682 231.521 78.9318 245.496 96.8927 253.288C114.854 261.079 135.018 262.168 153.715 256.357C172.412 250.545 188.399 238.219 198.765 221.623C209.132 205.027 213.189 185.263 210.198 165.93C207.207 146.597 197.367 128.98 182.469 116.285C167.571 103.59 148.605 96.6611 129.024 96.7603C112.749 96.8372 96.8675 101.773 83.4208 110.935ZM97.0525 131.744C107.351 124.727 119.702 121.352 132.141 122.156C144.581 122.96 156.394 127.897 165.701 136.181C175.008 144.466 181.275 155.622 183.504 167.875C185.734 180.128 183.798 192.774 178.005 203.801C172.211 214.828 162.893 223.603 151.533 228.729C140.172 233.855 127.422 235.039 115.311 232.092C103.2 229.144 92.4232 222.235 84.6953 212.463C76.9674 202.692 72.7323 190.619 72.6639 178.165C72.5933 169.02 74.7822 159.999 79.0364 151.902C83.2906 143.804 89.4789 136.881 97.0525 131.744Z" clip-rule="evenodd"/><path fill="#fff" fill-rule="evenodd" d="M127.751 253.445H144.969C146.013 253.444 147.048 253.649 148.013 254.049C148.978 254.449 149.855 255.035 150.593 255.773C151.331 256.512 151.916 257.389 152.314 258.354C152.712 259.319 152.915 260.353 152.913 261.397V355.587C152.913 357.69 152.076 359.708 150.588 361.195C149.099 362.683 147.079 363.518 144.974 363.518H127.751C125.646 363.518 123.627 362.683 122.138 361.195C120.649 359.708 119.813 357.69 119.813 355.587V261.397C119.81 260.354 120.013 259.32 120.411 258.355C120.809 257.391 121.393 256.514 122.13 255.775C122.868 255.036 123.744 254.45 124.709 254.051C125.673 253.651 126.707 253.445 127.751 253.445Z" clip-rule="evenodd"/></g><defs><clipPath id="clip0"><rect width="559" height="415.145" fill="#fff"/></clipPath></defs></svg>