<svg xmlns="http://www.w3.org/2000/svg" width="73" height="73" fill="none" viewBox="0 0 73 73"><path fill="#F7A501" d="M53.5518 23.715C53.019 23.0876 52.3677 22.5714 51.6353 22.1958C50.9028 21.8203 50.1036 21.5928 49.2832 21.5263C48.4627 21.4599 47.6372 21.5557 46.8539 21.8085C46.0706 22.0612 45.3447 22.4659 44.7179 22.9994L21.0941 43.0911C19.8293 44.167 19.0434 45.701 18.9092 47.3561C18.775 49.0111 19.3035 50.6518 20.3785 51.9173V51.9173C21.4544 53.1821 22.9884 53.968 24.6435 54.1022C26.2985 54.2364 27.9391 53.7079 29.2047 52.633L52.8362 32.5412C54.101 31.4654 54.8868 29.9313 55.021 28.2763C55.1552 26.6212 54.6268 24.9806 53.5518 23.715V23.715Z"/><path fill="#F7A501" d="M21.502 0.546014C19.9855 -0.131919 18.2619 -0.180464 16.7096 0.411031C15.1572 1.00253 13.903 2.18574 13.2222 3.70098L0.548474 32.0033C0.21175 32.7541 0.0262035 33.5639 0.00253211 34.3864C-0.0211393 35.2089 0.117499 36.028 0.410485 36.7969C0.703472 37.5658 1.14514 38.2695 1.71015 38.8677C2.27516 39.4658 2.95246 39.9468 3.70342 40.2832V40.2832C4.45365 40.6198 5.26289 40.8051 6.08482 40.8287C6.90675 40.8523 7.72527 40.7136 8.49356 40.4205C9.26185 40.1275 9.96478 39.6859 10.5623 39.121C11.1597 38.5561 11.64 37.8789 11.9756 37.1282L24.657 8.81818C24.9936 8.06795 25.1789 7.25873 25.2025 6.4368C25.2261 5.61487 25.0874 4.79635 24.7944 4.02806C24.5013 3.25977 24.0598 2.55677 23.4948 1.95929C22.9299 1.36181 22.2527 0.88157 21.502 0.546014V0.546014Z"/><path fill="#F7A501" d="M72.3971 55.565C71.9277 53.9724 70.846 52.6309 69.3891 51.8347C67.9322 51.0384 66.2189 50.8524 64.6251 51.3174L34.8607 60.0358C33.2669 60.5034 31.9241 61.5848 31.1276 63.0423C30.331 64.4998 30.146 66.2139 30.6131 67.8078V67.8078C31.0806 69.4016 32.162 70.7444 33.6195 71.541C35.077 72.3375 36.7911 72.5226 38.385 72.0555L68.1494 63.337C69.7432 62.8694 71.086 61.788 71.8826 60.3306C72.6791 58.8731 72.8642 57.1589 72.3971 55.565V55.565Z"/></svg>