<svg fill="none" viewBox="0 0 73 73"><path fill="#F7A501" d="M53.552 23.715a6.265 6.265 0 00-8.834-.716L21.094 43.091a6.264 6.264 0 00-.716 8.826 6.264 6.264 0 008.827.716l23.631-20.092a6.264 6.264 0 00.716-8.826zM21.502.546a6.271 6.271 0 00-8.28 3.155L.548 32.003a6.264 6.264 0 003.155 8.28 6.256 6.256 0 008.273-3.155l12.681-28.31A6.256 6.256 0 0021.502.546zm50.895 55.019a6.271 6.271 0 00-7.772-4.248l-29.764 8.719a6.264 6.264 0 00-4.248 7.772 6.263 6.263 0 007.772 4.247l29.764-8.718a6.264 6.264 0 004.248-7.772z"/></svg>