<svg fill="none" viewBox="0 0 119 119"><rect width="119" height="119" fill="#F96132" rx="8"/><path fill="#35416B" fill-rule="evenodd" d="M33.523 23.265l-7.419 3.158 6.302 44.232L92.44 91.221l6.529-4.585-.248-44.81-65.198-18.561z" clip-rule="evenodd"/><path fill="#769FD1" fill-rule="evenodd" d="M26.041 26.372l-.055 48.357 66.79 20.007-.418-48.984-66.317-19.38z" clip-rule="evenodd"/><path fill="#18244E" fill-rule="evenodd" d="M92.277 46.034l.407 49.082L99 90.305l-.224-48.37-6.499 4.099z" clip-rule="evenodd"/><path stroke="#fff" stroke-dasharray=".76 .76" stroke-linecap="round" stroke-linejoin="round" stroke-width=".454" d="M34.608 29.967l-.151 47.09m8.635-45.008l.07 37.233m7.685-35.05l.177 28.126m7.77-25.858l-.077 27.975m8.381-25.534l-.032 18.386m8.287-15.802l-.212 17.944m9.273-15.289l-.044 8.62"/><path stroke="#fff" stroke-dasharray=".76 .76" stroke-linecap="round" stroke-linejoin="round" stroke-width=".303" d="M25.977 36.175l66.32 19.079"/><path stroke="#fff" stroke-dasharray=".76 .76" stroke-linecap="round" stroke-linejoin="round" stroke-width=".379" d="M25.977 45.538l49.3 14.009-49.3-14.009zm0 9.258l32.991 9.926-32.99-9.926zm-.058 9.06l17.206 5.395-17.206-5.395z" clip-rule="evenodd"/><path fill="#18244E" fill-rule="evenodd" d="M67.271 48.312l.05 8.675 7.745-3.646.024-3.068-7.819-1.962zm-32.384 9.672l.05 8.675 7.745-3.645.025-3.069-7.82-1.961z" clip-rule="evenodd"/><path fill="#769FD1" fill-rule="evenodd" d="M54.623 55.469l.03 9.373 7.998 2.26-.183-9.282-7.845-2.351z" clip-rule="evenodd"/><path fill="#18244E" fill-rule="evenodd" d="M62.466 57.752l6.76-3.557-.103 9.12-6.48 3.809-.177-9.372z" clip-rule="evenodd"/><path fill="#35416B" fill-rule="evenodd" d="M54.618 55.532l6.656-3.543 7.989 2.25-6.767 3.61-7.878-2.317z" clip-rule="evenodd"/><path fill="#fff" fill-rule="evenodd" d="M55.923 59.192c0-.521.375-.945.839-.945.463 0 .837.424.837.945 0 .521-.375.944-.837.944-.463 0-.84-.423-.84-.944z" clip-rule="evenodd"/><path fill="#fff" fill-rule="evenodd" d="M55.382 61.497l2.362.372s-.103-1.788-1.074-1.864c-.938-.08-1.288 1.492-1.288 1.492z" clip-rule="evenodd"/><path stroke="#fff" stroke-linecap="round" stroke-linejoin="round" stroke-width=".745" d="M55.304 62.643l6.271 1.111m-6.29.056l6.269 1.107m-2.683-3.234l2.783.422m-2.675-1.52l2.782.421m-2.822-1.47l2.783.422"/><path fill="#769FD1" fill-rule="evenodd" d="M22.004 65.956l.031 9.373 7.998 2.26-.184-9.283-7.845-2.35z" clip-rule="evenodd"/><path fill="#18244E" fill-rule="evenodd" d="M29.848 68.238l6.76-3.556-.103 9.12-6.48 3.808-.177-9.372z" clip-rule="evenodd"/><path fill="#35416B" fill-rule="evenodd" d="M22 66.018l6.657-3.543 7.988 2.25-6.767 3.612L22 66.017z" clip-rule="evenodd"/><path fill="#fff" fill-rule="evenodd" d="M23.305 69.678c0-.521.375-.944.839-.944.463 0 .838.423.838.944 0 .521-.376.945-.838.945-.463 0-.84-.423-.84-.945z" clip-rule="evenodd"/><path fill="#fff" fill-rule="evenodd" d="M22.766 71.984l2.362.371s-.103-1.787-1.074-1.864c-.941-.079-1.288 1.493-1.288 1.493z" clip-rule="evenodd"/><path stroke="#fff" stroke-linecap="round" stroke-linejoin="round" stroke-width=".745" d="M22.686 73.13l6.271 1.107m-6.29.059l6.271 1.108m-2.685-3.235l2.783.422m-2.675-1.52l2.782.422m-2.822-1.47l2.783.421"/></svg>