<svg xmlns:xlink="http://www.w3.org/1999/xlink" fill="none" viewBox="0 0 535 491"><rect width="464" height="436" x="56" y="27" fill="#F7A501" rx="56"/><path fill="url(#pattern0)" d="M28 0h522v490.952H28z" opacity=".2"/><g clip-path="url(#clip0)"><path fill="#F96132" fill-rule="evenodd" d="M239.434 167.904h200.547a7.228 7.228 0 017.263 7.192v183.496a7.22 7.22 0 01-2.142 5.103 7.233 7.233 0 01-5.121 2.093H239.434a7.234 7.234 0 01-7.263-7.196V175.096a7.228 7.228 0 017.263-7.192z" clip-rule="evenodd"/><path fill="#fff" fill-rule="evenodd" stroke="#fff" stroke-linecap="round" stroke-linejoin="round" stroke-width="1.637" d="M258.388 183.387h164.795a7.264 7.264 0 017.264 7.269v150.15a7.271 7.271 0 01-2.127 5.139 7.26 7.26 0 01-5.137 2.129H258.388a7.258 7.258 0 01-5.136-2.129 7.272 7.272 0 01-2.128-5.139v-150.15c0-1.928.766-3.776 2.128-5.14a7.262 7.262 0 015.136-2.129z" clip-rule="evenodd"/><path fill="#F96132" fill-rule="evenodd" d="M205.958 371.553h265.874a7.268 7.268 0 017.264 7.269v76.638a7.268 7.268 0 01-7.264 7.268H205.958a7.268 7.268 0 01-7.264-7.268v-76.638a7.268 7.268 0 017.264-7.269z" clip-rule="evenodd"/><path fill="#35416B" fill-rule="evenodd" stroke="#fff" stroke-linecap="round" stroke-linejoin="round" stroke-width="1.637" d="M271.277 198.775h54.931a7.264 7.264 0 017.264 7.269V329.72a7.264 7.264 0 01-7.264 7.269h-54.931a7.264 7.264 0 01-7.264-7.269V206.044a7.264 7.264 0 017.264-7.269z" clip-rule="evenodd"/><path fill="#F7A501" fill-rule="evenodd" d="M356.48 200.86h54.864c6.95 0 12.588 4.543 12.588 10.136v65.075c0 5.597-5.638 10.136-12.588 10.136H356.48c-6.955 0-12.594-4.543-12.594-10.136v-65.075c0-5.597 5.662-10.136 12.594-10.136z" clip-rule="evenodd"/><path fill="#0316F0" fill-rule="evenodd" stroke="#0316F0" stroke-linecap="round" stroke-linejoin="round" stroke-width="1.637" d="M356.144 297.864h59.108a7.264 7.264 0 017.264 7.269v23.765a7.264 7.264 0 01-7.264 7.269h-59.108a7.262 7.262 0 01-5.136-2.129 7.273 7.273 0 01-2.128-5.14v-23.765c0-1.928.766-3.777 2.128-5.14a7.262 7.262 0 015.136-2.129z" clip-rule="evenodd"/><path fill="#fff" fill-rule="evenodd" stroke="#F96132" stroke-linecap="round" stroke-linejoin="round" stroke-width="6.549" d="M9.515 125.64h301.072c1.926 0 3.774.766 5.136 2.129a7.273 7.273 0 012.128 5.14v175.395a7.273 7.273 0 01-2.128 5.14 7.262 7.262 0 01-5.136 2.129H9.515a7.262 7.262 0 01-5.136-2.129 7.271 7.271 0 01-2.127-5.14V132.909a7.262 7.262 0 017.264-7.269z" clip-rule="evenodd"/><path fill="#F96132" fill-rule="evenodd" d="M66.917 161.826h39.551a3.211 3.211 0 013.209 3.207v19.027a3.218 3.218 0 01-3.209 3.212H66.917a3.21 3.21 0 01-3.205-3.212v-19.027a3.206 3.206 0 013.205-3.207z" clip-rule="evenodd"/><path fill="#F96132" fill-rule="evenodd" d="M161.599 161.826h39.551a3.205 3.205 0 013.205 3.207v19.027a3.21 3.21 0 01-3.205 3.212h-39.551a3.217 3.217 0 01-3.209-3.212v-19.027a3.21 3.21 0 013.209-3.207z" clip-rule="evenodd" opacity=".5"/><path fill="#F96132" fill-rule="evenodd" d="M114.349 161.676h39.533a3.212 3.212 0 013.209 3.212v19.026a3.219 3.219 0 01-.94 2.27 3.206 3.206 0 01-2.269.938h-39.533a3.203 3.203 0 01-3.205-3.208v-19.026a3.213 3.213 0 013.205-3.212z" clip-rule="evenodd" opacity=".7"/><path fill="#F96132" fill-rule="evenodd" d="M209.013 161.676h39.551a3.21 3.21 0 013.205 3.212v19.026a3.208 3.208 0 01-3.205 3.208h-39.551a3.211 3.211 0 01-3.21-3.208v-19.026a3.22 3.22 0 013.21-3.212z" clip-rule="evenodd" opacity=".25"/><path fill="#F96132" fill-rule="evenodd" d="M257.199 161.299h39.546a3.194 3.194 0 012.269.938 3.198 3.198 0 01.941 2.269v19.027a3.211 3.211 0 01-3.21 3.212h-39.546a3.21 3.21 0 01-3.21-3.212v-19.027a3.214 3.214 0 01.94-2.269 3.21 3.21 0 012.27-.938z" clip-rule="evenodd" opacity=".1"/><path fill="#F96132" fill-rule="evenodd" d="M66.885 189.439h39.551a3.21 3.21 0 013.205 3.212v19.026a3.208 3.208 0 01-3.205 3.208h-39.55a3.212 3.212 0 01-3.21-3.208v-19.026a3.217 3.217 0 013.21-3.212z" clip-rule="evenodd"/><path fill="#F96132" fill-rule="evenodd" d="M161.545 189.439h39.551a3.212 3.212 0 013.209 3.212v19.026a3.214 3.214 0 01-3.209 3.208h-39.551a3.204 3.204 0 01-3.205-3.208v-19.026a3.213 3.213 0 013.205-3.212z" clip-rule="evenodd" opacity=".5"/><path fill="#F96132" fill-rule="evenodd" d="M113.795 189.439h39.551a3.214 3.214 0 013.205 3.212v19.026a3.208 3.208 0 01-3.205 3.208h-39.551a3.215 3.215 0 01-3.21-3.208v-19.026a3.22 3.22 0 013.21-3.212z" clip-rule="evenodd" opacity=".7"/><path fill="#F96132" fill-rule="evenodd" d="M208.455 189.439h39.551a3.214 3.214 0 013.209 3.212v19.026a3.214 3.214 0 01-3.209 3.208h-39.551a3.204 3.204 0 01-3.205-3.208v-19.026a3.213 3.213 0 013.205-3.212z" clip-rule="evenodd" opacity=".25"/><path fill="#F96132" fill-rule="evenodd" d="M66.817 217.083h39.551a3.198 3.198 0 013.205 3.212v19.018a3.203 3.203 0 01-1.978 2.967 3.191 3.191 0 01-1.227.245H66.817a3.194 3.194 0 01-2.268-.941 3.214 3.214 0 01-.937-2.271v-19.018a3.205 3.205 0 013.205-3.212z" clip-rule="evenodd"/><path fill="#F96132" fill-rule="evenodd" d="M161.477 217.083h39.551a3.21 3.21 0 013.209 3.212v19.018a3.211 3.211 0 01-3.209 3.212h-39.551a3.192 3.192 0 01-2.268-.941 3.202 3.202 0 01-.937-2.271v-19.018a3.193 3.193 0 01.937-2.271 3.194 3.194 0 012.268-.941z" clip-rule="evenodd" opacity=".5"/><path fill="#F96132" fill-rule="evenodd" d="M114.04 217.079h39.546a3.195 3.195 0 012.271.939 3.202 3.202 0 01.939 2.273v19.022a3.214 3.214 0 01-.94 2.269 3.2 3.2 0 01-2.27.938H114.04a3.198 3.198 0 01-2.269-.938 3.198 3.198 0 01-.941-2.269v-19.022a3.224 3.224 0 01.939-2.273 3.203 3.203 0 012.271-.939z" clip-rule="evenodd" opacity=".7"/><path fill="#F96132" fill-rule="evenodd" d="M66.644 244.278h39.57a3.216 3.216 0 012.249.952c.595.602.928 1.414.928 2.26v19.022a3.211 3.211 0 01-3.209 3.212H66.644a3.211 3.211 0 01-2.268-.941 3.2 3.2 0 01-.937-2.271V247.49a3.214 3.214 0 01.937-2.271 3.201 3.201 0 012.268-.941z" clip-rule="evenodd"/><path fill="#F96132" fill-rule="evenodd" d="M114.254 244.133H153.8a3.198 3.198 0 012.269.938 3.198 3.198 0 01.941 2.269v19.027a3.205 3.205 0 01-.939 2.272 3.205 3.205 0 01-2.271.94h-39.546a3.214 3.214 0 01-2.271-.94 3.204 3.204 0 01-.939-2.272V247.34a3.214 3.214 0 01.94-2.269 3.2 3.2 0 012.27-.938z" clip-rule="evenodd" opacity=".7"/><path fill="#F96132" fill-rule="evenodd" d="M67.135 272.45h39.533a3.214 3.214 0 012.278.933 3.215 3.215 0 01.945 2.275v19.021a3.217 3.217 0 01-1.985 2.997 3.207 3.207 0 01-1.238.243H67.135a3.216 3.216 0 01-3.21-3.212v-19.049a3.215 3.215 0 013.21-3.208z" clip-rule="evenodd"/><path stroke="#F96132" stroke-linecap="round" stroke-linejoin="round" stroke-width="3.275" d="M19.616 163.139h32.329a3.72 3.72 0 012.637 1.094 3.73 3.73 0 011.09 2.64v16.587a3.728 3.728 0 01-2.3 3.447 3.736 3.736 0 01-1.427.283H19.616a3.74 3.74 0 01-2.638-1.091 3.724 3.724 0 01-1.093-2.639v-16.587a3.736 3.736 0 013.731-3.734zm.604 27.49h32.328a3.732 3.732 0 013.732 3.73v16.587a3.736 3.736 0 01-3.732 3.734H20.22a3.73 3.73 0 01-3.727-3.734v-16.587a3.727 3.727 0 013.727-3.73v0zm1.213 28.094H53.76a3.74 3.74 0 012.638 1.091 3.736 3.736 0 011.093 2.639v16.587a3.737 3.737 0 01-3.731 3.735H21.431a3.727 3.727 0 01-3.46-2.302 3.732 3.732 0 01-.285-1.433v-16.587A3.729 3.729 0 0120 219.001a3.724 3.724 0 011.433-.278zm.204 27.891h32.328a3.73 3.73 0 013.727 3.729v16.592a3.73 3.73 0 01-3.727 3.73H21.637a3.735 3.735 0 01-3.732-3.73v-16.592a3.735 3.735 0 013.732-3.729zm.2 27.081h32.328a3.735 3.735 0 013.732 3.734v16.587a3.737 3.737 0 01-3.733 3.735H21.836a3.732 3.732 0 01-3.731-3.735v-16.587a3.734 3.734 0 013.732-3.734v0z" clip-rule="evenodd"/><path fill="#fff" fill-rule="evenodd" stroke="#F96132" stroke-linecap="round" stroke-linejoin="round" stroke-width="6.549" d="M36.219 21.271h156.846c2.088 0 3.781 2.65 3.781 5.906V169.75c0 3.262-1.693 5.906-3.781 5.906H36.219c-2.089 0-3.782-2.649-3.782-5.906V27.182c0-3.262 1.693-5.91 3.782-5.91z" clip-rule="evenodd"/><path stroke="#35416B" stroke-linecap="round" stroke-linejoin="round" stroke-width="6.549" d="M53.86 40.016l1.276 108.889h122.807"/><path fill="#35416B" fill-rule="evenodd" stroke="#fff" stroke-linecap="round" stroke-linejoin="round" stroke-width="6.549" d="M61.165 115.813h25.732v28.049H61.165v-28.049zm27.82-27.145h29.799v55.335h-29.8V88.668zm32.21-25.627h28.029v81.321h-28.029V63.041zm29.055-29.385h28.796v110.915H150.25V33.656z" clip-rule="evenodd"/></g><defs><pattern id="pattern0" width="1" height="1" patternContentUnits="objectBoundingBox"><use transform="scale(.00161 .00172)" xlink:href="#image0"/></pattern><clipPath id="clip0"><path fill="#fff" d="M0 0h481.366v446H0z" transform="translate(0 19)"/></clipPath></defs></svg>