<svg xmlns:xlink="http://www.w3.org/1999/xlink" fill="none" viewBox="0 0 352 355"><rect width="352" height="354.286" fill="url(#pattern0)" rx="60.191"/><path fill="#35416B" fill-rule="evenodd" d="M69.547 35L40.225 47.485l24.908 174.831 237.29 81.287 25.806-18.12-.979-177.115L69.547 35z" clip-rule="evenodd"/><path fill="#769FD1" fill-rule="evenodd" d="M39.976 47.281l-.217 191.137 263.994 79.08-1.653-193.614L39.976 47.281z" clip-rule="evenodd"/><path fill="#18244E" fill-rule="evenodd" d="M301.778 124.996L303.384 319l24.965-19.018-.885-191.183-25.686 16.197z" clip-rule="evenodd"/><path stroke="#fff" stroke-dasharray="2.99 2.99" stroke-linecap="round" stroke-linejoin="round" stroke-width="1.795" d="M73.834 61.493l-.599 186.128m34.133-177.9l.277 147.166m30.374-138.534l.702 111.169m30.711-102.208l-.302 110.573m33.128-100.923l-.127 72.673m32.753-62.462l-.839 70.925m36.654-60.43l-.176 34.068"/><path stroke="#fff" stroke-dasharray="2.99 2.99" stroke-linecap="round" stroke-linejoin="round" stroke-width="1.197" d="M39.72 86.03l262.135 75.409"/><path stroke="#fff" stroke-dasharray="2.99 2.99" stroke-linecap="round" stroke-linejoin="round" stroke-width="1.496" d="M39.724 123.038l194.858 55.371-194.858-55.371zm0 36.591l130.399 39.237-130.4-39.237zm-.232 35.812l68.006 21.324-68.006-21.324z" clip-rule="evenodd"/><path fill="#18244E" fill-rule="evenodd" d="M202.938 134l.2 34.293 30.609-14.415.098-12.127L202.938 134zm-128 38.23l.2 34.292 30.61-14.411.098-12.127-30.907-7.754z" clip-rule="evenodd"/><path fill="#769FD1" fill-rule="evenodd" d="M152.943 162.289l.123 37.05 31.612 8.93-.726-36.685-31.009-9.295z" clip-rule="evenodd"/><path fill="#18244E" fill-rule="evenodd" d="M183.945 171.314l26.718-14.06-.407 36.05-25.609 15.053-.702-37.043z" clip-rule="evenodd"/><path fill="#35416B" fill-rule="evenodd" d="M152.926 162.538l26.311-14.004 31.574 8.895-26.747 14.271-31.138-9.162z" clip-rule="evenodd"/><path fill="#fff" fill-rule="evenodd" d="M158.083 177.005c0-2.06 1.484-3.733 3.315-3.733s3.312 1.673 3.312 3.733-1.484 3.73-3.312 3.73c-1.828 0-3.315-1.67-3.315-3.73z" clip-rule="evenodd"/><path fill="#fff" fill-rule="evenodd" d="M155.946 186.118l9.335 1.47s-.407-7.067-4.244-7.369c-3.709-.315-5.091 5.899-5.091 5.899z" clip-rule="evenodd"/><path stroke="#fff" stroke-linecap="round" stroke-linejoin="round" stroke-width="2.945" d="M155.637 190.648l24.789 4.39m-24.866.221l24.779 4.375m-10.602-12.783l10.998 1.667m-10.57-6.007l10.998 1.666m-11.156-5.81l10.998 1.666"/><path fill="#769FD1" fill-rule="evenodd" d="M24.017 203.74l.123 37.05 31.612 8.93-.726-36.689-31.009-9.291z" clip-rule="evenodd"/><path fill="#18244E" fill-rule="evenodd" d="M55.02 212.761l26.718-14.057-.407 36.051-25.61 15.049-.702-37.043z" clip-rule="evenodd"/><path fill="#35416B" fill-rule="evenodd" d="M24 203.985l26.311-14.004 31.574 8.895-26.746 14.274L24 203.985z" clip-rule="evenodd"/><path fill="#fff" fill-rule="evenodd" d="M29.157 218.452c0-2.059 1.484-3.73 3.315-3.73s3.312 1.671 3.312 3.73c0 2.06-1.484 3.734-3.312 3.734-1.828 0-3.315-1.67-3.315-3.734z" clip-rule="evenodd"/><path fill="#fff" fill-rule="evenodd" d="M27.031 227.568l9.335 1.467s-.407-7.063-4.245-7.369c-3.722-.312-5.09 5.902-5.09 5.902z" clip-rule="evenodd"/><path stroke="#fff" stroke-linecap="round" stroke-linejoin="round" stroke-width="2.945" d="M26.712 232.095l24.789 4.379m-24.866.232l24.788 4.379m-10.612-12.787l10.998 1.667m-10.573-6.004l10.998 1.667m-11.153-5.811l10.998 1.663"/><defs><pattern id="pattern0" width="1" height="1" patternContentUnits="objectBoundingBox"><use transform="translate(-.119 -.185) scale(.00224)" xlink:href="#image0"/></pattern></defs></svg>