<svg xmlns="http://www.w3.org/2000/svg" width="119" height="119" fill="none" viewBox="0 0 119 119"><rect width="119" height="119" fill="#F96132" rx="8"/><path fill="#35416B" fill-rule="evenodd" d="M33.5227 23.2646L26.1045 26.4233L32.4062 70.6552L92.4401 91.2208L98.969 86.6364L98.7214 41.8265L33.5227 23.2646Z" clip-rule="evenodd"/><path fill="#769FD1" fill-rule="evenodd" d="M26.0414 26.3718L25.9863 74.7291L92.7764 94.7362L92.3583 45.7522L26.0414 26.3718Z" clip-rule="evenodd"/><path fill="#18244E" fill-rule="evenodd" d="M92.2771 46.0337L92.6836 95.1163L98.9995 90.3047L98.7758 41.9359L92.2771 46.0337Z" clip-rule="evenodd"/><path stroke="#fff" stroke-dasharray=".76 .76" stroke-linecap="round" stroke-linejoin="round" stroke-width=".454" d="M34.608 29.9673L34.4565 77.0573"/><path stroke="#fff" stroke-dasharray=".76 .76" stroke-linecap="round" stroke-linejoin="round" stroke-width=".454" d="M43.0918 32.049L43.1619 69.282"/><path stroke="#fff" stroke-dasharray=".76 .76" stroke-linecap="round" stroke-linejoin="round" stroke-width=".454" d="M50.8467 34.2327L51.0242 62.3583"/><path stroke="#fff" stroke-dasharray=".76 .76" stroke-linecap="round" stroke-linejoin="round" stroke-width=".454" d="M58.7936 36.5002L58.7173 64.4749"/><path stroke="#fff" stroke-dasharray=".76 .76" stroke-linecap="round" stroke-linejoin="round" stroke-width=".454" d="M67.0984 38.9413L67.0664 57.3275"/><path stroke="#fff" stroke-dasharray=".76 .76" stroke-linecap="round" stroke-linejoin="round" stroke-width=".454" d="M75.353 41.5248L75.1409 59.4688"/><path stroke="#fff" stroke-dasharray=".76 .76" stroke-linecap="round" stroke-linejoin="round" stroke-width=".454" d="M84.4143 44.1802L84.3699 52.7993"/><path stroke="#fff" stroke-dasharray=".76 .76" stroke-linecap="round" stroke-linejoin="round" stroke-width=".303" d="M25.9768 36.1755L92.2965 55.2537"/><path fill-rule="evenodd" stroke="#fff" stroke-dasharray=".76 .76" stroke-linecap="round" stroke-linejoin="round" stroke-width=".379" d="M25.9775 45.5382L75.2764 59.5468L25.9775 45.5382Z" clip-rule="evenodd"/><path fill-rule="evenodd" stroke="#fff" stroke-dasharray=".76 .76" stroke-linecap="round" stroke-linejoin="round" stroke-width=".379" d="M25.9775 54.7956L58.9683 64.7224L25.9775 54.7956Z" clip-rule="evenodd"/><path fill-rule="evenodd" stroke="#fff" stroke-dasharray=".76 .76" stroke-linecap="round" stroke-linejoin="round" stroke-width=".379" d="M25.9192 63.856L43.1246 69.2509L25.9192 63.856Z" clip-rule="evenodd"/><path fill="#18244E" fill-rule="evenodd" d="M67.271 48.3115L67.3216 56.9875L75.0656 53.3406L75.0904 50.2726L67.271 48.3115Z" clip-rule="evenodd"/><path fill="#18244E" fill-rule="evenodd" d="M34.8872 57.9836L34.9378 66.6595L42.6818 63.0136L42.7066 59.9455L34.8872 57.9836Z" clip-rule="evenodd"/><path fill="#769FD1" fill-rule="evenodd" d="M54.6226 55.4686L54.6536 64.8423L62.6515 67.1016L62.4677 57.8202L54.6226 55.4686Z" clip-rule="evenodd"/><path fill="#18244E" fill-rule="evenodd" d="M62.4658 57.7518L69.2255 54.1946L69.1225 63.3153L62.6433 67.1238L62.4658 57.7518Z" clip-rule="evenodd"/><path fill="#35416B" fill-rule="evenodd" d="M54.6177 55.5317L61.2744 51.9887L69.2625 54.2391L62.4957 57.8496L54.6177 55.5317Z" clip-rule="evenodd"/><path fill="#fff" fill-rule="evenodd" d="M55.9229 59.1919C55.9229 58.6708 56.2983 58.2474 56.7616 58.2474C57.2249 58.2474 57.5995 58.6708 57.5995 59.1919C57.5995 59.713 57.224 60.1356 56.7616 60.1356C56.2992 60.1356 55.9229 59.713 55.9229 59.1919Z" clip-rule="evenodd"/><path fill="#fff" fill-rule="evenodd" d="M55.3821 61.4974L57.7439 61.8693C57.7439 61.8693 57.6409 60.0814 56.6699 60.0051C55.7318 59.9252 55.3821 61.4974 55.3821 61.4974Z" clip-rule="evenodd"/><path stroke="#fff" stroke-linecap="round" stroke-linejoin="round" stroke-width=".745" d="M55.304 62.6434L61.5755 63.754"/><path stroke="#fff" stroke-linecap="round" stroke-linejoin="round" stroke-width=".745" d="M55.2847 63.8099L61.5535 64.9169"/><path stroke="#fff" stroke-linecap="round" stroke-linejoin="round" stroke-width=".745" d="M58.8711 61.6828L61.6536 62.1045"/><path stroke="#fff" stroke-linecap="round" stroke-linejoin="round" stroke-width=".745" d="M58.979 60.5847L61.7615 61.0064"/><path stroke="#fff" stroke-linecap="round" stroke-linejoin="round" stroke-width=".745" d="M58.9395 59.5363L61.722 59.958"/><path fill="#769FD1" fill-rule="evenodd" d="M22.0042 65.9556L22.0352 75.3293L30.033 77.5887L29.8493 68.3064L22.0042 65.9556Z" clip-rule="evenodd"/><path fill="#18244E" fill-rule="evenodd" d="M29.8481 68.238L36.6078 64.6817L36.5049 73.8024L30.0257 77.61L29.8481 68.238Z" clip-rule="evenodd"/><path fill="#35416B" fill-rule="evenodd" d="M22 66.0178L28.6567 62.4748L36.6448 64.7252L29.878 68.3366L22 66.0178Z" clip-rule="evenodd"/><path fill="#fff" fill-rule="evenodd" d="M23.3049 69.6779C23.3049 69.1568 23.6804 68.7343 24.1437 68.7343C24.607 68.7343 24.9815 69.1568 24.9815 69.6779C24.9815 70.199 24.6061 70.6225 24.1437 70.6225C23.6813 70.6225 23.3049 70.1999 23.3049 69.6779Z" clip-rule="evenodd"/><path fill="#fff" fill-rule="evenodd" d="M22.7664 71.9843L25.1282 72.3554C25.1282 72.3554 25.0252 70.5683 24.0542 70.4911C23.1125 70.4121 22.7664 71.9843 22.7664 71.9843Z" clip-rule="evenodd"/><path stroke="#fff" stroke-linecap="round" stroke-linejoin="round" stroke-width=".745" d="M22.6858 73.1294L28.9573 74.2373"/><path stroke="#fff" stroke-linecap="round" stroke-linejoin="round" stroke-width=".745" d="M22.667 74.2958L28.9385 75.4037"/><path stroke="#fff" stroke-linecap="round" stroke-linejoin="round" stroke-width=".745" d="M26.2532 72.1689L29.0357 72.5906"/><path stroke="#fff" stroke-linecap="round" stroke-linejoin="round" stroke-width=".745" d="M26.3606 71.0716L29.1431 71.4933"/><path stroke="#fff" stroke-linecap="round" stroke-linejoin="round" stroke-width=".745" d="M26.3215 70.0232L29.104 70.444"/></svg>