<svg width="231" height="293" viewBox="0 0 231 293" fill="none" xmlns="http://www.w3.org/2000/svg">
<path fill-rule="evenodd" clip-rule="evenodd" d="M202.661 119L203.661 240.11L219.299 228.24L218.749 108.89L202.661 119Z" fill="#18244E"/>
<path d="M60.3832 79.36L60.0132 195.55" stroke="white" stroke-width="1.12" stroke-linecap="round" stroke-linejoin="round" stroke-dasharray="1.87 1.87"/>
<path d="M160.908 107.87L160.388 152.15" stroke="white" stroke-width="1.12" stroke-linecap="round" stroke-linejoin="round" stroke-dasharray="1.87 1.87"/>
<path d="M183.304 114.43L183.194 135.69" stroke="white" stroke-width="1.12" stroke-linecap="round" stroke-linejoin="round" stroke-dasharray="1.87 1.87"/>
<path d="M189.543 21H41.5662C30.5223 21 21.5693 29.9543 21.5693 41V252C21.5693 263.046 30.5223 272 41.5662 272H189.543C200.587 272 209.54 263.046 209.54 252V41C209.54 29.9543 200.587 21 189.543 21Z" fill="#F96132"/>
<path fill-rule="evenodd" clip-rule="evenodd" d="M57.7035 62.8199L39.4062 70.61L54.9539 179.76L203.071 230.5L219.178 219.19L218.559 108.62L57.7035 62.8199Z" fill="#35416B"/>
<path fill-rule="evenodd" clip-rule="evenodd" d="M39.2562 70.48L39.1162 189.81L203.901 239.14L202.901 118.27L39.2562 70.48Z" fill="#769FD1"/>
<path d="M81.3198 84.49L81.4899 176.37" stroke="white" stroke-width="1.12" stroke-linecap="round" stroke-linejoin="round" stroke-dasharray="1.87 1.87"/>
<path d="M100.447 89.88L100.887 159.28" stroke="white" stroke-width="1.12" stroke-linecap="round" stroke-linejoin="round" stroke-dasharray="1.87 1.87"/>
<path d="M120.054 95.48L119.864 164.48" stroke="white" stroke-width="1.12" stroke-linecap="round" stroke-linejoin="round" stroke-dasharray="1.87 1.87"/>
<path d="M140.541 101.5L140.461 146.87" stroke="white" stroke-width="1.12" stroke-linecap="round" stroke-linejoin="round" stroke-dasharray="1.87 1.87"/>
<path d="M39.0962 94.67L202.711 141.75" stroke="white" stroke-width="0.75" stroke-linecap="round" stroke-linejoin="round" stroke-dasharray="1.87 1.87"/>
<path d="M39.0962 117.78L160.717 152.34L39.0962 117.78Z" stroke="white" stroke-width="0.93" stroke-linecap="round" stroke-linejoin="round" stroke-dasharray="1.87 1.87"/>
<path d="M39.0962 140.62L120.484 165.12L39.0962 140.62Z" stroke="white" stroke-width="0.93" stroke-linecap="round" stroke-linejoin="round" stroke-dasharray="1.87 1.87"/>
<path d="M38.9565 162.98L81.4 176.29L38.9565 162.98Z" stroke="white" stroke-width="0.93" stroke-linecap="round" stroke-linejoin="round" stroke-dasharray="1.87 1.87"/>
<path fill-rule="evenodd" clip-rule="evenodd" d="M140.971 124.62L141.091 146.03L160.198 137.03L160.258 129.46L140.971 124.62Z" fill="#18244E"/>
<path fill-rule="evenodd" clip-rule="evenodd" d="M61.0728 148.49L61.2027 169.9L80.2998 160.9L80.3698 153.33L61.0728 148.49Z" fill="#18244E"/>
<path fill-rule="evenodd" clip-rule="evenodd" d="M109.766 142.28L109.836 165.41L129.573 170.99L129.123 148.08L109.766 142.28Z" fill="#769FD1"/>
<path fill-rule="evenodd" clip-rule="evenodd" d="M129.112 147.92L145.79 139.14L145.54 161.64L129.542 171.04L129.112 147.92Z" fill="#18244E"/>
<path fill-rule="evenodd" clip-rule="evenodd" d="M109.755 142.44L126.173 133.69L145.88 139.25L129.192 148.14L109.755 142.44Z" fill="#35416B"/>
<path fill-rule="evenodd" clip-rule="evenodd" d="M112.975 151.47C113.023 151.072 113.185 150.697 113.441 150.389C113.697 150.082 114.037 149.854 114.419 149.735C114.802 149.615 115.21 149.609 115.596 149.716C115.982 149.823 116.329 150.039 116.595 150.339C116.86 150.638 117.034 151.008 117.095 151.404C117.156 151.799 117.102 152.205 116.938 152.57C116.774 152.936 116.509 153.246 116.173 153.464C115.837 153.682 115.445 153.799 115.045 153.8C114.462 153.764 113.917 153.499 113.529 153.062C113.142 152.625 112.942 152.053 112.975 151.47Z" fill="white"/>
<path fill-rule="evenodd" clip-rule="evenodd" d="M111.635 157.14L117.464 158.06C117.464 158.06 117.214 153.64 114.815 153.46C112.415 153.28 111.635 157.14 111.635 157.14Z" fill="white"/>
<path d="M111.445 159.99L126.913 162.73" stroke="white" stroke-width="1.84" stroke-linecap="round" stroke-linejoin="round"/>
<path d="M111.395 162.86L126.863 165.6" stroke="white" stroke-width="1.84" stroke-linecap="round" stroke-linejoin="round"/>
<path d="M120.244 157.62L127.113 158.62" stroke="white" stroke-width="1.84" stroke-linecap="round" stroke-linejoin="round"/>
<path d="M120.514 154.91L127.373 155.91" stroke="white" stroke-width="1.84" stroke-linecap="round" stroke-linejoin="round"/>
<path d="M120.414 152.32L127.283 153.32" stroke="white" stroke-width="1.84" stroke-linecap="round" stroke-linejoin="round"/>
<path fill-rule="evenodd" clip-rule="evenodd" d="M29.3276 168.14L29.3976 191.27L49.1246 196.84L48.6746 173.94L29.3276 168.14Z" fill="#769FD1"/>
<path fill-rule="evenodd" clip-rule="evenodd" d="M48.6445 173.79L65.3221 165.02L65.0621 187.52L49.0645 196.92L48.6445 173.79Z" fill="#18244E"/>
<path fill-rule="evenodd" clip-rule="evenodd" d="M29.3276 168.31L45.7552 159.57L65.4621 165.12L48.7646 174.03L29.3276 168.31Z" fill="#35416B"/>
<path d="M30.9775 185.86L46.4452 188.59" stroke="white" stroke-width="1.84" stroke-linecap="round" stroke-linejoin="round"/>
<path d="M30.9277 188.74L46.3953 191.47" stroke="white" stroke-width="1.84" stroke-linecap="round" stroke-linejoin="round"/>
<path d="M39.7661 183.49L46.6352 184.49" stroke="white" stroke-width="1.84" stroke-linecap="round" stroke-linejoin="round"/>
<path d="M40.0361 180.78L46.9051 181.78" stroke="white" stroke-width="1.84" stroke-linecap="round" stroke-linejoin="round"/>
<path d="M39.936 178.2L46.805 179.2" stroke="white" stroke-width="1.84" stroke-linecap="round" stroke-linejoin="round"/>
</svg>
