<svg fill="none" viewBox="0 0 348 343"><rect width="348" height="342.465" fill="#35416B" rx="45.998"/><g fill-rule="evenodd" clip-path="url(#clip0)" clip-rule="evenodd"><path fill="#F78A01" d="M324.539 101.764L61.233 132.287l.168 163.374 38.09-5.352-.878-18.943 32.055-4.905-1.06-19.461 33.074-4.067-.878-19.982 33.016-4.281-.604-18.884 32.634-3.836-.241-20.839 32.778-3.76.195-20.56 32.063-3.649.319-20.25 33.049-3.606-.474-21.522z"/><path fill="#FFAE48" d="M325.555 101.907l-33.989-16.04L28.339 116.59l33.13 16.387 264.086-31.069z"/><path fill="#E17D00" d="M61.336 133.106l-32.47-16.325-.154 162.022 33.084 16.324-.46-162.021z"/><path fill="#FFE5B0" d="M194.254 179.49l.116 17.791 30.34-3.481-.17-18.228-30.286 3.918z" opacity=".5"/><path fill="#FFD98C" d="M161.522 183.874l.117 17.794 30.339-3.484-.17-18.225-30.286 3.915z" opacity=".5"/><path fill="#FFCA61" d="M129.159 188.662l.116 17.794 30.34-3.484-.171-18.228-30.285 3.918z" opacity=".5"/><path fill="#FFBD3A" d="M96.78 193.152l.116 17.788 30.339-3.481-.17-18.228-30.286 3.921z" opacity=".5"/><path fill="#FFB218" d="M64.177 197.75l.117 17.794 30.34-3.484-.15-18.228-30.307 3.918z" opacity=".5"/><path fill="#FFE5B0" d="M194.644 159.155l.114 17.792 30.34-3.484-.171-18.225-30.283 3.917z" opacity=".5"/><path fill="#FFD98C" d="M161.91 163.542l.116 17.791 30.34-3.484-.171-18.225-30.285 3.918z" opacity=".5"/><path fill="#FFCA61" d="M129.552 168.33l.116 17.791 30.34-3.484-.171-18.224-30.285 3.917z" opacity=".5"/><path fill="#FFBD3A" d="M97.17 172.82l.116 17.791 30.34-3.484-.163-18.211-30.294 3.904z" opacity=".5"/><path fill="#FFB218" d="M64.565 177.418l.122 17.797 30.34-3.481-.168-18.228-30.294 3.912z" opacity=".5"/><path fill="#FFF4DE" d="M259.633 130.766l.117 17.791 30.34-3.481-.171-18.228-30.286 3.918z" opacity=".5"/><path fill="#fff" d="M292.506 107.257l.117 17.791 30.339-3.481-.17-18.228-30.286 3.918z" opacity=".5"/><path fill="#FFF4DE" d="M259.75 111.261l.116 17.794 30.34-3.484-.17-18.227-30.286 3.917z" opacity=".5"/><path fill="#FFECC6" d="M227.178 115.694l.117 17.794 30.339-3.484-.17-18.228-30.286 3.918z" opacity=".5"/><path fill="#FFE5B0" d="M194.614 120.141l.117 17.791 30.339-3.481-.17-18.228-30.286 3.918z" opacity=".5"/><path fill="#FFD98C" d="M161.88 124.519l.116 17.794 30.34-3.484-.171-18.227-30.285 3.917z" opacity=".5"/><path fill="#FFCA61" d="M129.522 129.307l.116 17.791 30.34-3.481-.168-18.227-30.288 3.917z" opacity=".5"/><path fill="#FFBD3A" d="M97.14 133.797l.116 17.791 30.34-3.481-.163-18.233-30.294 3.923z" opacity=".5"/><path fill="#FFB218" d="M64.535 138.395l.117 17.792 30.34-3.482-.16-18.222-30.297 3.912z" opacity=".5"/><path fill="#FFECC6" d="M226.95 135.568l.117 17.791 30.34-3.481-.171-18.228-30.286 3.918zm.196 19.792l.116 17.791 30.34-3.481-.171-18.228-30.285 3.918z" opacity=".5"/><path fill="#FFE5B0" d="M194.617 139.634l.116 17.792 30.34-3.484-.17-18.225-30.286 3.917z" opacity=".5"/><path fill="#FFD98C" d="M161.885 144.019l.117 17.793 30.339-3.484-.17-18.227-30.286 3.918z" opacity=".5"/><path fill="#FFCA61" d="M129.524 148.807l.117 17.791 30.34-3.481-.171-18.228-30.286 3.918z" opacity=".5"/><path fill="#FFBD3A" d="M97.142 153.296l.117 17.792 30.339-3.482-.17-18.227-30.286 3.917z" opacity=".5"/><path fill="#FFB218" d="M64.538 157.895l.116 17.791 30.34-3.481-.17-18.228-30.286 3.918z" opacity=".5"/><path fill="#FFD98C" d="M161.338 203.463l.525 17.221 30.449-3.936-.632-17.133-30.342 3.848z" opacity=".5"/><path fill="#FFCA61" d="M128.98 208.251l.526 17.221 30.448-3.936-.631-17.133-30.343 3.848z" opacity=".5"/><path fill="#FFBD3A" d="M96.595 212.74l.526 17.222 30.448-3.936-.632-17.133-30.342 3.847z" opacity=".5"/><path fill="#FFB218" d="M63.99 217.339l.529 17.222 30.448-3.937-.631-17.133-30.346 3.848z" opacity=".5"/><path fill="#FFCA61" d="M129.159 227.441l.525 17.222 30.448-3.937-.633-17.13-30.34 3.845z" opacity=".5"/><path fill="#FFBD3A" d="M96.766 231.931l.541 17.221 30.449-3.936-.632-17.133-30.358 3.848z" opacity=".5"/><path fill="#FFB218" d="M64.164 236.529l.523 17.222 30.445-3.934-.631-17.133-30.337 3.845z" opacity=".5"/><path fill="#FFBD3A" d="M96.985 250.766l.528 17.221 30.446-3.936-.629-17.133-30.345 3.848z" opacity=".5"/><path fill="#FFB218" d="M64.383 255.364l.526 17.222 30.448-3.937-.631-17.132-30.343 3.847zm.547 19.052l.526 17.222 30.448-3.937-.631-17.13-30.343 3.845z" opacity=".5"/></g><path fill="#5D8ECC" fill-rule="evenodd" d="M66.254 69.916l.278 47.491 17.57 8.366-.449-46.852-17.4-9.005zm81.793-10.393l.279 47.492 17.569 8.366-.448-46.853-17.4-9.005zm79.715-8.083l.278 47.491 17.57 8.367-.446-46.853-17.402-9.005z" clip-rule="evenodd"/><path fill="#769FD1" fill-rule="evenodd" d="M83.503 78.976l40.787-4.894.423 47.555-40.747 4.169-.463-46.83zm81.796-10.393l40.784-4.893.416 47.554-40.739 4.17-.461-46.83zm79.714-8.083l40.792-4.893.416 47.554-40.752 4.167-.456-46.828z" clip-rule="evenodd"/><path fill="#9ABCE6" fill-rule="evenodd" d="M66.239 70.068l17.286 8.898 40.602-4.878-15.163-8.61-42.725 4.59zm81.793-10.392l17.287 8.897 40.601-4.878-15.159-8.611-42.729 4.592zm79.717-8.083l17.287 8.897 40.601-4.878L270.477 47l-42.728 4.593z" clip-rule="evenodd"/><path fill="#fff" fill-rule="evenodd" d="M93.1 82.476a5.191 5.191 0 00-4.677 5.212l.214 24.261a5.192 5.192 0 005.795 5.11l21.51-2.521a5.192 5.192 0 004.587-5.218l-.285-23.876a5.192 5.192 0 00-5.706-5.104l-21.439 2.136zm81.093-10.346a5.191 5.191 0 00-4.686 5.214l.218 24.266a5.19 5.19 0 005.785 5.111l22.078-2.543a5.19 5.19 0 004.597-5.22l-.291-23.877a5.192 5.192 0 00-5.697-5.103l-22.004 2.152zm81.09-8.716a5.19 5.19 0 00-4.692 5.215l.211 23.215a5.19 5.19 0 005.777 5.11l21.509-2.444a5.191 5.191 0 004.605-5.222l-.281-22.84a5.192 5.192 0 00-5.69-5.104l-21.439 2.07z" clip-rule="evenodd"/><path fill="#000" d="M111.641 90.786l-4.009 1.374a.17.17 0 00-.037.301l1.486.964-3.672 5.664-2.551-1.652a.337.337 0 00-.467.1l-5.226 8.065a.17.17 0 00.05.233l1.128.736a.17.17 0 00.234-.05l4.496-6.933 2.549 1.652a.34.34 0 00.467-.099l4.41-6.799 1.487.964a.171.171 0 00.179.003.167.167 0 00.063-.069.162.162 0 00.018-.091l-.382-4.22a.166.166 0 00-.223-.143zm82.035-6.237l-4.783.114-.051-2.11a.597.597 0 00-.612-.584l-7.623.182-.018-.747a.15.15 0 00-.153-.146l-1.046.025a.15.15 0 00-.146.153l.351 14.648a.15.15 0 00.153.146l1.046-.025a.15.15 0 00.146-.153l-.118-4.932 4.634-.112.05 2.112c.008.33.282.591.612.583l7.773-.186a.597.597 0 00.583-.612l-.186-7.773a.597.597 0 00-.612-.583zm-12.886 5.225l-.151-6.278 6.876-.164.15 6.278-6.875.164zm12.321 2.416l-6.278.15-.032-1.364 2.092-.05a.15.15 0 00.146-.153l-.114-4.764 4.036-.097.15 6.278zm79.885-20.462a.52.52 0 00-.2.04l-9.943 3.994h-2.829a.281.281 0 00-.276.287v5.157c0 .159.124.287.276.287h1.755c-.064.2-.099.412-.099.627 0 1.137.928 2.062 2.07 2.062.956 0 1.761-.649 1.999-1.525l7.049 2.832c.067.026.134.04.2.04a.564.564 0 00.552-.573V72.3a.566.566 0 00-.554-.572zm-9.246 11.217a.827.827 0 01-.828-.825c0-.193.067-.377.19-.524l1.464.588a.83.83 0 01-.826.76zm8.556 1.007l-8.99-3.612-.223-.09h-2.103v-3.246h2.103l.223-.09 8.99-3.612v10.65z"/><defs><clipPath id="clip0"><path fill="#fff" d="M0 0h297.88v210.471H0z" transform="translate(28 85.529)"/></clipPath></defs></svg>