<svg xmlns:xlink="http://www.w3.org/1999/xlink" fill="none" viewBox="0 0 375 377"><rect width="356.304" height="334.803" x="8.501" y="20.733" fill="#F7A501" rx="43.002"/><path fill="url(#pattern0)" d="M-13 0h400.842v377H-13z" opacity=".2"/><g clip-path="url(#clip0)"><path fill="#F96132" fill-rule="evenodd" d="M181.297 144.823h131.749a4.749 4.749 0 014.771 4.724v120.548a4.757 4.757 0 01-1.407 3.353 4.742 4.742 0 01-3.364 1.374H181.297a4.75 4.75 0 01-4.772-4.727V149.547a4.749 4.749 0 014.772-4.724z" clip-rule="evenodd"/><path fill="#fff" fill-rule="evenodd" stroke="#fff" stroke-linecap="round" stroke-linejoin="round" stroke-width="1.076" d="M193.748 154.994h108.263a4.773 4.773 0 014.772 4.776v98.64a4.778 4.778 0 01-4.772 4.776H193.748a4.778 4.778 0 01-4.772-4.776v-98.64a4.778 4.778 0 014.772-4.776z" clip-rule="evenodd"/><path fill="#F96132" fill-rule="evenodd" d="M159.304 278.61H333.97a4.77 4.77 0 014.772 4.775v50.347a4.777 4.777 0 01-4.772 4.776H159.304a4.778 4.778 0 01-4.772-4.776v-50.347a4.775 4.775 0 014.772-4.775z" clip-rule="evenodd"/><path fill="#35416B" fill-rule="evenodd" stroke="#fff" stroke-linecap="round" stroke-linejoin="round" stroke-width="1.076" d="M202.215 165.103h36.088a4.775 4.775 0 014.772 4.775v81.25a4.772 4.772 0 01-4.772 4.775h-36.088a4.772 4.772 0 01-4.772-4.775v-81.25a4.775 4.775 0 014.772-4.775z" clip-rule="evenodd"/><path fill="#F7A501" fill-rule="evenodd" d="M258.19 166.473h36.042c4.567 0 8.271 2.985 8.271 6.659v42.751c0 3.677-3.704 6.659-8.271 6.659H258.19c-4.569 0-8.274-2.985-8.274-6.659v-42.751c0-3.677 3.72-6.659 8.274-6.659z" clip-rule="evenodd"/><path fill="#0316F0" fill-rule="evenodd" stroke="#0316F0" stroke-linecap="round" stroke-linejoin="round" stroke-width="1.076" d="M257.969 230.2H296.8a4.77 4.77 0 014.772 4.775v15.613a4.77 4.77 0 01-4.772 4.775h-38.831a4.775 4.775 0 01-4.772-4.775v-15.613a4.775 4.775 0 014.772-4.775z" clip-rule="evenodd"/><path fill="#fff" fill-rule="evenodd" stroke="#F96132" stroke-linecap="round" stroke-linejoin="round" stroke-width="4.303" d="M30.251 117.057H228.04a4.77 4.77 0 014.772 4.776v115.226a4.77 4.77 0 01-4.772 4.775H30.251a4.775 4.775 0 01-4.772-4.775V121.833a4.776 4.776 0 014.772-4.776z" clip-rule="evenodd"/><path fill="#F96132" fill-rule="evenodd" d="M67.961 140.83h25.983a2.11 2.11 0 012.109 2.107v12.499a2.113 2.113 0 01-2.109 2.11H67.961a2.107 2.107 0 01-2.105-2.11v-12.499a2.108 2.108 0 012.105-2.107z" clip-rule="evenodd"/><path fill="#F96132" fill-rule="evenodd" d="M130.163 140.83h25.983a2.107 2.107 0 012.105 2.107v12.499a2.11 2.11 0 01-2.105 2.11h-25.983a2.111 2.111 0 01-2.109-2.11v-12.499a2.11 2.11 0 012.109-2.107z" clip-rule="evenodd" opacity=".5"/><path fill="#F96132" fill-rule="evenodd" d="M99.122 140.731h25.971a2.11 2.11 0 012.108 2.11v12.5a2.112 2.112 0 01-.618 1.491 2.108 2.108 0 01-1.49.616H99.122a2.107 2.107 0 01-2.106-2.107v-12.5a2.112 2.112 0 012.106-2.11z" clip-rule="evenodd" opacity=".7"/><path fill="#F96132" fill-rule="evenodd" d="M161.311 140.731h25.983a2.107 2.107 0 012.106 2.11v12.5a2.107 2.107 0 01-2.106 2.107h-25.983a2.11 2.11 0 01-2.108-2.107v-12.5a2.11 2.11 0 012.108-2.11z" clip-rule="evenodd" opacity=".25"/><path fill="#F96132" fill-rule="evenodd" d="M192.967 140.483h25.98a2.108 2.108 0 012.108 2.107v12.5a2.112 2.112 0 01-2.108 2.11h-25.98a2.106 2.106 0 01-2.109-2.11v-12.5a2.11 2.11 0 012.109-2.107z" clip-rule="evenodd" opacity=".1"/><path fill="#F96132" fill-rule="evenodd" d="M67.94 158.97h25.983a2.107 2.107 0 012.106 2.11v12.499a2.107 2.107 0 01-2.106 2.108H67.94a2.108 2.108 0 01-2.108-2.108V161.08a2.113 2.113 0 012.108-2.11z" clip-rule="evenodd"/><path fill="#F96132" fill-rule="evenodd" d="M130.127 158.97h25.983a2.116 2.116 0 012.109 2.11v12.499a2.107 2.107 0 01-2.109 2.108h-25.983a2.107 2.107 0 01-2.106-2.108V161.08a2.111 2.111 0 012.106-2.11z" clip-rule="evenodd" opacity=".5"/><path fill="#F96132" fill-rule="evenodd" d="M98.758 158.97h25.983a2.109 2.109 0 012.105 2.11v12.499a2.11 2.11 0 01-2.105 2.108H98.758a2.108 2.108 0 01-2.109-2.108V161.08a2.113 2.113 0 012.109-2.11z" clip-rule="evenodd" opacity=".7"/><path fill="#F96132" fill-rule="evenodd" d="M160.944 158.97h25.983a2.113 2.113 0 012.109 2.11v12.499a2.111 2.111 0 01-2.109 2.108h-25.983a2.107 2.107 0 01-2.105-2.108V161.08a2.109 2.109 0 012.105-2.11z" clip-rule="evenodd" opacity=".25"/><path fill="#F96132" fill-rule="evenodd" d="M67.895 177.131h25.983a2.106 2.106 0 012.106 2.11v12.494a2.106 2.106 0 01-2.106 2.11H67.895a2.106 2.106 0 01-2.105-2.11v-12.494a2.106 2.106 0 012.105-2.11z" clip-rule="evenodd"/><path fill="#F96132" fill-rule="evenodd" d="M130.082 177.131h25.983a2.106 2.106 0 012.109 2.11v12.494a2.11 2.11 0 01-2.109 2.11h-25.983a2.1 2.1 0 01-1.49-.619 2.119 2.119 0 01-.615-1.491v-12.494a2.123 2.123 0 01.615-1.492 2.106 2.106 0 011.49-.618z" clip-rule="evenodd" opacity=".5"/><path fill="#F96132" fill-rule="evenodd" d="M98.919 177.128h25.98a2.108 2.108 0 012.108 2.11v12.497a2.108 2.108 0 01-1.302 1.947 2.1 2.1 0 01-.806.16h-25.98a2.107 2.107 0 01-2.109-2.107v-12.497a2.11 2.11 0 012.109-2.11z" clip-rule="evenodd" opacity=".7"/><path fill="#F96132" fill-rule="evenodd" d="M67.782 194.997h25.995a2.106 2.106 0 012.088 2.11v12.496a2.109 2.109 0 01-2.109 2.11H67.782a2.105 2.105 0 01-2.105-2.11v-12.496a2.106 2.106 0 012.105-2.11z" clip-rule="evenodd"/><path fill="#F96132" fill-rule="evenodd" d="M99.059 194.901h25.98a2.108 2.108 0 012.109 2.107v12.5a2.113 2.113 0 01-1.302 1.95c-.256.106-.53.16-.807.16h-25.98a2.11 2.11 0 01-1.949-1.302 2.11 2.11 0 01-.16-.808v-12.5a2.109 2.109 0 012.109-2.107z" clip-rule="evenodd" opacity=".7"/><path fill="#F96132" fill-rule="evenodd" d="M68.104 213.504h25.971a2.118 2.118 0 011.497.613 2.114 2.114 0 01.62 1.494v12.497a2.112 2.112 0 01-2.117 2.128h-25.97a2.114 2.114 0 01-2.11-2.11v-12.515a2.11 2.11 0 012.11-2.107z" clip-rule="evenodd"/><path stroke="#F96132" stroke-linecap="round" stroke-linejoin="round" stroke-width="2.151" d="M36.887 141.692h21.238a2.434 2.434 0 011.733.719 2.449 2.449 0 01.716 1.734v10.897a2.446 2.446 0 01-2.449 2.45H36.887a2.434 2.434 0 01-1.733-.716 2.452 2.452 0 01-.719-1.734v-10.897a2.458 2.458 0 011.514-2.266c.297-.124.616-.187.938-.187zm.397 18.06h21.238a2.452 2.452 0 012.451 2.45v10.897a2.456 2.456 0 01-1.513 2.266 2.438 2.438 0 01-.938.187H37.284a2.434 2.434 0 01-1.733-.719 2.438 2.438 0 01-.716-1.734v-10.897a2.45 2.45 0 012.449-2.45v0zm.796 18.456h21.238a2.454 2.454 0 012.265 1.512c.123.298.187.617.187.939v10.897a2.453 2.453 0 01-2.452 2.453H38.08a2.457 2.457 0 01-2.46-2.453v-10.897a2.447 2.447 0 012.46-2.451zm.134 18.323h21.238a2.446 2.446 0 012.449 2.45v10.9a2.45 2.45 0 01-2.449 2.45H38.214a2.452 2.452 0 01-2.451-2.45v-10.9a2.455 2.455 0 012.451-2.45zm.132 17.791h21.238a2.454 2.454 0 012.451 2.453v10.897a2.454 2.454 0 01-2.451 2.453H38.346a2.45 2.45 0 01-2.452-2.453v-10.897a2.454 2.454 0 012.452-2.453v0z" clip-rule="evenodd"/><path fill="#fff" fill-rule="evenodd" stroke="#F96132" stroke-linecap="round" stroke-linejoin="round" stroke-width="4.303" d="M47.794 48.492h103.04c1.372 0 2.484 1.74 2.484 3.88v93.663c0 2.143-1.112 3.88-2.484 3.88H47.794c-1.372 0-2.484-1.74-2.484-3.88v-93.66c0-2.143 1.112-3.883 2.484-3.883z" clip-rule="evenodd"/><path stroke="#35416B" stroke-linecap="round" stroke-linejoin="round" stroke-width="4.303" d="M59.384 60.807l.838 71.534h80.677"/><path fill="#35416B" fill-rule="evenodd" stroke="#fff" stroke-linecap="round" stroke-linejoin="round" stroke-width="4.303" d="M64.182 110.602h16.905v18.426H64.182v-18.426zM82.46 92.769h19.576v36.352H82.459V92.769zm21.16-16.836h18.414v53.424H103.62V75.933zm19.088-19.305h18.917v72.866h-18.917V56.628z" clip-rule="evenodd"/></g><defs><pattern id="pattern0" width="1" height="1" patternContentUnits="objectBoundingBox"><use transform="scale(.00161 .00172)" xlink:href="#image0"/></pattern><clipPath id="clip0"><path fill="#fff" d="M0 0h316.233v293H0z" transform="translate(24 47)"/></clipPath></defs></svg>