<svg xmlns:xlink="http://www.w3.org/1999/xlink" fill="none" viewBox="0 0 347 329"><path fill="url(#pattern0)" d="M0 0h346.227v329H0z"/><path fill="#F96132" fill-rule="evenodd" stroke="#35416B" stroke-linecap="round" stroke-linejoin="round" stroke-width="2.5" d="M30.345 19.13h245.867a11.092 11.092 0 0110.259 6.855c.559 1.347.846 2.792.846 4.251v244.358a11.102 11.102 0 01-11.105 11.107H30.345c-2.944 0-5.767-1.17-7.849-3.253a11.11 11.11 0 01-3.251-7.854V30.282a11.112 11.112 0 016.841-10.303 11.09 11.09 0 014.259-.85z" clip-rule="evenodd"/><path fill="#fff" fill-rule="evenodd" d="M48.149 34.137h209.926c2.944 0 5.767 1.17 7.849 3.253a11.113 11.113 0 013.251 7.854v189.465c0 2.946-1.17 5.771-3.251 7.854a11.097 11.097 0 01-7.849 3.253H48.149a11.1 11.1 0 01-7.85-3.253 11.11 11.11 0 01-3.25-7.854V45.244c0-2.946 1.17-5.77 3.25-7.854a11.096 11.096 0 017.85-3.253z" clip-rule="evenodd"/><path fill="#35416B" fill-rule="evenodd" d="M44.548 34.003h53.165V245.6H44.548c-4.406 0-7.981-5.025-7.981-11.22V45.218c0-6.21 3.575-11.215 7.98-11.215z" clip-rule="evenodd"/><path fill="#F96132" fill-rule="evenodd" d="M71.651 51.29v11.235l10.946-.077.185-2.279-3.165-.57-3.693-3.951-4.273-4.358z" clip-rule="evenodd"/><path fill="#fff" fill-rule="evenodd" d="M73.518 59.41a.986.986 0 11.98 1.026.993.993 0 01-.98-1.026z" clip-rule="evenodd"/><path fill="#F96132" fill-rule="evenodd" d="M63.865 43.714l.051 5.405 6.504 6.42.051-5.347-6.606-6.478zm.02 6.524l.031 5.353 6.602 6.74-.098-5.236-6.535-6.857zm-.066 6.985l.082 5.236 5.38.087-5.462-5.323zm-6.52-13.637l-.051 5.482 6.555 6.487.082-5.132-6.586-6.837z" clip-rule="evenodd"/><path fill="#F96132" fill-rule="evenodd" d="M57.217 50.356v5.369l6.617 6.703v-5.333l-6.617-6.739zm-.036 6.837v5.353l5.417-.051-5.417-5.302z" clip-rule="evenodd"/><path fill="#F96132" fill-rule="evenodd" d="M50.554 43.766v5.332l6.668 6.483v-5.24l-6.668-6.575zm.077 6.59l6.545 6.775v5.358l-6.668-7.006.123-5.127zm-.149 6.929V62.5h5.479l-5.479-5.215zm-.287 26.412a2.17 2.17 0 012.17 2.166v.231a2.177 2.177 0 01-2.17 2.171 2.17 2.17 0 01-2.17-2.17v-.232a2.167 2.167 0 012.17-2.166zm.344 20.705a2.17 2.17 0 012.17 2.171v.226a2.17 2.17 0 11-4.34 0v-.226a2.172 2.172 0 012.17-2.171zm-.195 20.279a2.158 2.158 0 012.004 1.336c.11.263.165.545.165.83v.231a2.17 2.17 0 01-2.17 2.171 2.172 2.172 0 01-2.169-2.171v-.231a2.171 2.171 0 012.17-2.166zm.04 20.13a2.17 2.17 0 012.17 2.171v.231a2.166 2.166 0 01-2.17 2.166 2.17 2.17 0 01-2.169-2.166v-.231a2.176 2.176 0 012.17-2.171zm-.297 20.351a2.17 2.17 0 012.17 2.171v.226a2.17 2.17 0 11-4.34 0v-.236a2.173 2.173 0 012.17-2.161zm-.195 20.787a2.166 2.166 0 012.165 2.171v.247a2.161 2.161 0 01-.634 1.531 2.17 2.17 0 01-1.53.635 2.177 2.177 0 01-1.548-.626 2.157 2.157 0 01-.643-1.54v-.231a2.173 2.173 0 012.19-2.187zm6.53-101.57h32.73a1.405 1.405 0 011.406 1.407 1.412 1.412 0 01-1.406 1.412h-32.73a1.41 1.41 0 01-.993-2.406 1.4 1.4 0 01.993-.412zm.36 20.711h32.724a1.404 1.404 0 011.405 1.406 1.402 1.402 0 01-.866 1.304c-.17.071-.354.108-.539.108H56.781a1.41 1.41 0 010-2.818zm-.196 20.274h32.725a1.412 1.412 0 011.41 1.406 1.413 1.413 0 01-1.41 1.412H56.586a1.405 1.405 0 01-1.405-1.412 1.405 1.405 0 011.405-1.406zm.041 20.135h32.725a1.409 1.409 0 011.41 1.406 1.41 1.41 0 01-1.41 1.427H56.627a1.404 1.404 0 01-1.405-1.411 1.405 1.405 0 011.405-1.422zm-.302 20.346h32.73a1.406 1.406 0 011.405 1.411 1.409 1.409 0 01-1.405 1.407h-32.73a1.408 1.408 0 010-2.818zm-.195 20.792h32.725a1.409 1.409 0 110 2.818H56.13a1.414 1.414 0 01-.994-2.406c.264-.264.621-.412.994-.412z" clip-rule="evenodd"/><path fill="#35416B" fill-rule="evenodd" d="M110.239 47.092h5.231v1.298h-3.703v1.699h3.242v1.283h-3.242v3.08h-1.539l.011-7.36zm7.57 1.914v3.29c-.013.24.026.48.113.703a.762.762 0 00.765.416.995.995 0 001.025-.59 2.06 2.06 0 00.144-.847v-2.972h1.446v5.461h-1.39v-.77l-.097.15a1.134 1.134 0 01-.19.22 1.972 1.972 0 01-.651.41 2.231 2.231 0 01-.734.113 1.641 1.641 0 01-1.631-.872 3.338 3.338 0 01-.236-1.422v-3.29h1.436zm9.792 1.807v3.68h-1.461v-3.321a1.547 1.547 0 00-.113-.662.816.816 0 00-.8-.421.995.995 0 00-1.001.616 2.126 2.126 0 00-.138.831v2.957h-1.426v-5.477h1.38v.796a2.38 2.38 0 01.513-.606 1.792 1.792 0 011.113-.334c.5-.02.991.138 1.385.447a1.793 1.793 0 01.548 1.494zm6.273 0v3.68h-1.462v-3.321c.01-.227-.03-.453-.118-.662a.802.802 0 00-.8-.421.994.994 0 00-.995.616 2.126 2.126 0 00-.138.831v2.957h-1.426v-5.477h1.38v.796a2.38 2.38 0 01.513-.606c.326-.23.718-.348 1.118-.334.5-.02.991.138 1.385.447a1.793 1.793 0 01.543 1.494zm2.355.374h2.221a1.26 1.26 0 00-.344-.857 1.071 1.071 0 00-.764-.292.975.975 0 00-.77.308c-.196.24-.316.533-.343.842zm3.241-1.267c.219.342.36.727.416 1.129.041.36.056.721.046 1.083h-3.739a1.364 1.364 0 00.513 1.155c.209.14.456.21.708.205.262.011.519-.079.718-.252.112-.106.203-.233.266-.374h1.457a1.79 1.79 0 01-.513.985 2.475 2.475 0 01-1.964.796 2.756 2.756 0 01-1.837-.672 2.712 2.712 0 01-.795-2.182 3.043 3.043 0 01.718-2.176 2.453 2.453 0 011.867-.76 2.88 2.88 0 011.226.257c.376.175.693.455.913.806zm2.878 4.547h-1.426v-7.386h1.426v7.386zm2.508-1.745a.95.95 0 00.195.544 1.31 1.31 0 00.98.282c.23.01.46-.032.672-.123a.403.403 0 00.246-.374.423.423 0 00-.2-.37 8.462 8.462 0 00-1.488-.431 3.013 3.013 0 01-1.308-.575 1.246 1.246 0 01-.379-.98 1.702 1.702 0 01.59-1.304 2.41 2.41 0 011.672-.544 3.076 3.076 0 011.667.41 1.775 1.775 0 01.738 1.412h-1.431a.81.81 0 00-.154-.436.963.963 0 00-.8-.293c-.23-.02-.461.032-.661.149a.413.413 0 00-.2.339.365.365 0 00.21.354c.483.175.981.307 1.487.395.472.089.912.3 1.278.61a1.374 1.374 0 01.42 1.028 1.65 1.65 0 01-.605 1.324 3.615 3.615 0 01-3.765-.031 1.757 1.757 0 01-.615-1.386h1.451z" clip-rule="evenodd"/><path fill="url(#pattern1)" d="M84.12 89.821h187.219v120.616H84.12z"/><path stroke="#F96132" stroke-linecap="round" stroke-linejoin="round" stroke-width="2.5" d="M134.736 99.716l-.205 102.688m51.621-102.061l-.21 102.682m46.856-102.893l-.211 102.683"/><path fill="#F96132" fill-rule="evenodd" d="M109.495 59.78h61.485v5.178h-61.485V59.78zm-.241 8.75h72.271v5.133h-72.271v-5.132zm-2.939 24.278h13.444v4.234h-13.444v-4.234zm58.125.22h13.438v4.24H164.44v-4.24zm44.322.257h13.444v4.234h-13.444v-4.234zm36.931-.385h13.438v4.24h-13.438V92.9zM115.583 220h133.018c2.831 0 5.129 1.38 5.129 3.079v7.412c0 1.704-2.298 3.079-5.129 3.079H115.583c-2.831 0-5.129-1.38-5.129-3.079v-7.407c0-1.704 2.298-3.084 5.129-3.084z" clip-rule="evenodd"/><defs><pattern id="pattern0" width="1" height="1" patternContentUnits="objectBoundingBox"><use transform="scale(.00148)" xlink:href="#image0"/></pattern><pattern id="pattern1" width="1" height="1" patternContentUnits="objectBoundingBox"><use transform="scale(.00274 .00426)" xlink:href="#image1"/></pattern></defs></svg>