<svg xmlns:xlink="http://www.w3.org/1999/xlink" fill="none" viewBox="0 0 693 516"><g clip-path="url(#clip0)"><path fill="url(#pattern0)" d="M203.844 0H693v514.907H203.844z"/><path fill="#35416B" fill-rule="evenodd" stroke="#35416B" stroke-linecap="round" stroke-linejoin="round" stroke-width="2.92" d="M97.734 481.642L562.686 467.1c22.942 9.765 57.275 26.16 57.275 40.476l-.07 7.638-573.801-.507.086-7.131c-.016-14.332 23.072-25.934 51.558-25.934z" clip-rule="evenodd"/><path fill="#35416B" fill-rule="evenodd" stroke="#35416B" stroke-linecap="round" stroke-linejoin="round" stroke-width="2.92" d="M152.145 98.565l323.873-26.543c21.616 0 72.409 44.042 72.409 65.624v300.165a39.053 39.053 0 01-11.462 27.634 39.16 39.16 0 01-27.671 11.447H152.145c-21.61 0-75.24-36.97-75.24-58.557l36.135-280.678a39.054 39.054 0 0111.448-27.632 39.158 39.158 0 0127.657-11.46v0z" clip-rule="evenodd"/><path fill="#F96132" fill-rule="evenodd" stroke="#35416B" stroke-linecap="round" stroke-linejoin="round" stroke-width="2.92" d="M114.971 72.173h357.175a39.159 39.159 0 0127.671 11.447 39.054 39.054 0 0111.462 27.634v300.111a39.06 39.06 0 01-11.462 27.637 39.165 39.165 0 01-27.671 11.45H114.971a39.165 39.165 0 01-27.675-11.448 39.062 39.062 0 01-11.463-27.639V111.217a39.061 39.061 0 0111.478-27.61 39.164 39.164 0 0127.66-11.434v0zM52.561 456.35H523.22c28.481 0 51.574 15.485 51.574 34.584l-.161 23.699-573.828.102.22-23.79c-.032-19.126 23.056-34.595 51.537-34.595z" clip-rule="evenodd"/><path fill="#fff" fill-rule="evenodd" stroke="#35416B" stroke-linecap="round" stroke-linejoin="round" stroke-width="2.92" d="M148.834 101.403H437.63a39.172 39.172 0 0127.662 11.467 39.062 39.062 0 0111.444 27.641v244.053c0 10.362-4.121 20.3-11.456 27.629a39.156 39.156 0 01-27.661 11.452H148.834a39.16 39.16 0 01-27.688-11.437 39.067 39.067 0 01-11.471-27.644V140.517a39.047 39.047 0 0111.47-27.646 39.145 39.145 0 0112.705-8.472 39.181 39.181 0 0114.984-2.969v0-.027z" clip-rule="evenodd"/><path fill="#35416B" fill-rule="evenodd" stroke="#35416B" stroke-linecap="round" stroke-linejoin="round" stroke-width="1.77" d="M152.442 300.542v-74.441h10.678v31.891h13.181v-31.891h10.673v74.441h-10.678v-33.125H163.12v33.125h-10.678zm47.718-56.888a18.958 18.958 0 011.57-7.939 16.702 16.702 0 014.169-5.731 17.597 17.597 0 015.7-3.344 19.015 19.015 0 0118.671 3.344 17.51 17.51 0 014.077 5.747 18.955 18.955 0 011.559 7.939v39.286a18.847 18.847 0 01-1.569 8.047 16.543 16.543 0 01-4.067 5.521 17.897 17.897 0 01-5.797 3.479 18.611 18.611 0 01-12.868 0 16.803 16.803 0 01-5.717-3.463 15.89 15.89 0 01-4.201-5.553 18.833 18.833 0 01-1.57-8.047l.043-39.286zm10.695 39.286c0 2.578.719 4.478 2.157 5.699a7.971 7.971 0 0010.15 0c1.438-1.221 2.157-3.121 2.157-5.699v-39.286c0-2.581-.719-4.479-2.157-5.693a7.953 7.953 0 00-10.15 0c-1.438 1.217-2.157 3.115-2.157 5.693v39.286zm37.649-39.286a18.958 18.958 0 011.57-7.939 16.812 16.812 0 014.19-5.731 17.601 17.601 0 015.701-3.344 19.012 19.012 0 0118.676 3.344 17.51 17.51 0 014.077 5.747 18.958 18.958 0 011.57 7.939v3.771h-10.679v-3.771c0-2.581-.719-4.479-2.157-5.693a7.953 7.953 0 00-10.15 0c-1.438 1.218-2.157 3.115-2.157 5.693v39.286c0 2.578.719 4.478 2.157 5.699a7.971 7.971 0 0010.15 0c1.438-1.221 2.157-3.121 2.157-5.699v-14.003h-8.472v-9.404h19.145v23.402a18.817 18.817 0 01-1.569 8.047 16.549 16.549 0 01-4.077 5.537 18.139 18.139 0 01-5.809 3.468 18.611 18.611 0 01-12.868 0 16.874 16.874 0 01-5.695-3.463 15.897 15.897 0 01-4.185-5.537 18.837 18.837 0 01-1.569-8.079l-.006-39.27zm48.97 56.888v-74.441h31.819v10.029h-21.146v22.573h18.412v10.061h-18.412v31.778h-10.673zm42.481 0v-74.441h10.673v63.739h21.136v10.702h-31.809zm42.8 0v-74.441h10.652v74.441h-10.652zm19.556 0l15.1-38.995-13.919-35.392h11.325l8.058 22.045 8.138-22.045h11.325l-14.248 35.419 15.354 38.968h-11.325l-9.314-25.067-9.169 25.067h-11.325z" clip-rule="evenodd" opacity=".5"/><path fill="#F96132" fill-rule="evenodd" stroke="#35416B" stroke-linecap="round" stroke-linejoin="round" stroke-width="3.36" d="M240.415 320.072h98.219a20.602 20.602 0 0114.56 6.023 20.547 20.547 0 016.031 14.54 20.549 20.549 0 01-6.029 14.538 20.602 20.602 0 01-14.556 6.021h-98.225a20.597 20.597 0 01-14.558-6.018 20.547 20.547 0 01-4.468-22.405 20.584 20.584 0 0111.141-11.132 20.6 20.6 0 017.879-1.567h.006z" clip-rule="evenodd"/><path fill="#fff" fill-rule="evenodd" d="M265.05 344.007a1.675 1.675 0 002.055 1.616c.393.016.785-.037 1.16-.156a1.131 1.131 0 00.852-1.121.82.82 0 00-.421-.743 4.418 4.418 0 00-1.321-.452l-1.03-.232a6.392 6.392 0 01-2.098-.743 2.368 2.368 0 01-.982-2.09 2.795 2.795 0 01.949-2.154 4.011 4.011 0 012.778-.862 4.258 4.258 0 012.616.808 2.88 2.88 0 011.132 2.354h-1.947a1.385 1.385 0 00-.76-1.239 2.594 2.594 0 00-1.176-.243 2.224 2.224 0 00-1.251.313.984.984 0 00-.464.883.841.841 0 00.458.776 5.48 5.48 0 001.262.398l1.672.399c.595.117 1.16.357 1.656.705a2.378 2.378 0 01.868 1.955 2.785 2.785 0 01-1.019 2.203 4.262 4.262 0 01-2.869.873 4.654 4.654 0 01-2.977-.862 2.883 2.883 0 01-.825-1.058 2.884 2.884 0 01-.254-1.317l1.936-.011zm9.341 2.989h-2.011v-9.694h2.011v9.694zm8.408-6.657a1.895 1.895 0 00-1.122-1.384 2.78 2.78 0 00-1.111-.215 2.395 2.395 0 00-1.925.883 3.993 3.993 0 00-.75 2.655c0 1.191.27 2.036.815 2.526.5.476 1.164.742 1.855.744a2.394 2.394 0 001.666-.593c.443-.399.728-.944.804-1.535h-2.244v-1.616h4.04v5.192h-1.343l-.205-1.206c-.306.378-.67.705-1.079.969a3.707 3.707 0 01-1.968.496 4.104 4.104 0 01-3.16-1.336 5.07 5.07 0 01-1.279-3.662 5.387 5.387 0 011.295-3.771 4.986 4.986 0 016.391-.479 3.486 3.486 0 011.289 2.332h-1.969zm3.926-3.021h2.125l3.878 6.759v-6.759h1.887v9.695h-2.022l-3.959-6.873v6.873h-1.887l-.022-9.695zm13.24 0h2.061v5.951c-.033.497.049.994.237 1.455.243.538.776.813 1.618.813.841 0 1.353-.269 1.618-.813.188-.461.269-.958.237-1.455v-5.951h2.06v5.951a4.991 4.991 0 01-.48 2.402c-.598 1.078-1.736 1.579-3.414 1.573-1.677-.005-2.82-.538-3.419-1.573a4.991 4.991 0 01-.48-2.402l-.038-5.951zm13.672 1.68h-1.888v2.849h1.888c.4.027.796-.096 1.111-.344a1.406 1.406 0 00.399-1.078 1.32 1.32 0 00-.399-1.077 1.721 1.721 0 00-1.111-.35zm.167 4.519h-2.055v3.479h-2.011v-9.694h4.217a3.469 3.469 0 012.33.748 2.913 2.913 0 01.868 2.349c0 1.141-.291 1.944-.868 2.418a3.832 3.832 0 01-2.481.7z" clip-rule="evenodd"/><path fill="#fff" fill-rule="evenodd" stroke="#35416B" stroke-linecap="round" stroke-linejoin="round" stroke-width="3" d="M185.232 153.503h44.057c4.994 0 9.049 4.912 9.049 10.971v25.713c0 6.059-4.055 10.971-9.049 10.971h-44.057c-4.999 0-9.055-4.912-9.055-10.971v-25.702c.022-6.06 4.077-10.982 9.055-10.982z" clip-rule="evenodd"/><path fill="#35416B" fill-rule="evenodd" d="M215.973 173.496v16.093l14.653-.113.237-3.269-4.233-.808-4.935-5.661-5.722-6.242z" clip-rule="evenodd"/><path fill="#fff" fill-rule="evenodd" d="M218.481 185.124a1.317 1.317 0 01.908-1.116 1.33 1.33 0 011.389.375 1.312 1.312 0 01.222 1.421 1.319 1.319 0 01-1.209.78 1.395 1.395 0 01-1.31-1.46z" clip-rule="evenodd"/><path fill="#F7A501" fill-rule="evenodd" d="M205.564 162.659l.07 7.734 8.721 9.205.065-7.664-8.856-9.275zm.022 9.328l.048 7.665 8.834 9.652-.113-7.498-8.769-9.819zm-.086 10.002l.107 7.503 7.2.113-7.307-7.616z" clip-rule="evenodd"/><path fill="#F96132" fill-rule="evenodd" d="M196.779 162.454l-.049 7.853 8.77 9.296.107-7.379-8.828-9.77zm-.113 9.7v7.681l8.855 9.609v-7.638l-8.855-9.652zm-.044 9.792v7.643l7.243-.07-7.243-7.573z" clip-rule="evenodd"/><path fill="#35416B" fill-rule="evenodd" d="M187.756 162.718v7.632l8.937 9.291v-7.508l-8.937-9.415zm.097 9.442l8.759 9.695v7.675l-8.948-10.029.189-7.341zm-.189 9.921v7.449h7.33l-7.33-7.449z" clip-rule="evenodd"/><path fill="#fff" fill-rule="evenodd" stroke="#35416B" stroke-linecap="round" stroke-linejoin="round" stroke-width="2.92" d="M138.263 137.883h15.225a7.323 7.323 0 015.186 2.108 7.308 7.308 0 012.176 5.152v15.415a7.305 7.305 0 01-2.176 5.152 7.324 7.324 0 01-5.186 2.109h-15.225a7.321 7.321 0 01-5.185-2.109 7.3 7.3 0 01-2.176-5.152v-15.415a7.308 7.308 0 012.173-5.146 7.331 7.331 0 015.178-2.114v0h.01z" clip-rule="evenodd"/><path fill="#F96132" fill-rule="evenodd" stroke="#35416B" stroke-linecap="round" stroke-linejoin="round" stroke-width="2.92" d="M137.406 174.325h15.203a7.325 7.325 0 015.186 2.105 7.311 7.311 0 012.176 5.15v15.426a7.307 7.307 0 01-4.555 6.721 7.325 7.325 0 01-2.801.539h-15.209a7.328 7.328 0 01-5.185-2.105 7.293 7.293 0 01-2.177-5.15v-15.426a7.295 7.295 0 012.173-5.151 7.3 7.3 0 015.184-2.109v0h.005z" clip-rule="evenodd"/><path fill="#fff" fill-rule="evenodd" stroke="#35416B" stroke-linecap="round" stroke-linejoin="round" stroke-width="2.92" d="M137.201 211.182h15.225a7.325 7.325 0 015.186 2.108 7.301 7.301 0 012.175 5.152v15.431a7.274 7.274 0 01-.575 2.791 7.299 7.299 0 01-6.786 4.464h-15.225a7.316 7.316 0 01-5.175-2.11 7.296 7.296 0 01-2.17-5.145v-15.431a7.299 7.299 0 012.17-5.146 7.324 7.324 0 015.175-2.114v0zm.162 37.395h15.246a7.321 7.321 0 015.172 2.116 7.305 7.305 0 012.168 5.145v15.431a7.301 7.301 0 01-2.174 5.132 7.316 7.316 0 01-5.166 2.106h-15.246a7.306 7.306 0 01-5.186-2.104 7.333 7.333 0 01-1.601-2.359 7.316 7.316 0 01-.575-2.792v0-15.414a7.309 7.309 0 012.176-5.153 7.329 7.329 0 015.186-2.108v0zm83.097-41.095h8.839a4.236 4.236 0 014.272 4.195v8.92a4.236 4.236 0 01-4.272 4.195h-8.839a4.243 4.243 0 01-3.008-1.213 4.229 4.229 0 01-1.269-2.982v0-8.925a4.24 4.24 0 01.337-1.617 4.24 4.24 0 012.315-2.268 4.249 4.249 0 011.625-.305z" clip-rule="evenodd"/><path fill="#35416B" fill-rule="evenodd" d="M225.546 139.892h3.058a3.87 3.87 0 013.899 3.84v2.914a3.858 3.858 0 01-1.148 2.724 3.873 3.873 0 01-2.741 1.116h-3.068a3.876 3.876 0 01-2.742-1.112 3.846 3.846 0 01-1.152-2.723v-2.903a3.862 3.862 0 013.888-3.84l.006-.016z" clip-rule="evenodd"/><path stroke="#fff" stroke-linecap="round" stroke-linejoin="round" stroke-width="2.92" d="M224.726 142.488l4.854 5.208m-.124-5.386l-4.579 5.44"/><path fill="#fff" fill-rule="evenodd" d="M219.921 211.914l9.961-.161z" clip-rule="evenodd"/><path stroke="#35416B" stroke-linecap="round" stroke-linejoin="round" stroke-width="2.92" d="M219.921 211.914l9.961-.161"/><path fill="#fff" fill-rule="evenodd" d="M219.969 215.033l9.967-.156z" clip-rule="evenodd"/><path stroke="#35416B" stroke-linecap="round" stroke-linejoin="round" stroke-width="2.92" d="M219.969 215.033l9.967-.156"/><path fill="#fff" fill-rule="evenodd" stroke="#35416B" stroke-linecap="round" stroke-linejoin="round" stroke-width="2.92" d="M219.829 218.135l10.317-.21.07 2.865-10.317.216-.07-2.871z" clip-rule="evenodd"/><path fill="#35416B" fill-rule="evenodd" d="M143.597 142.262a7.814 7.814 0 00-5.554 2.181 7.796 7.796 0 00-2.39 5.462c0 4.217 3.56 7.632 7.944 7.632a8.127 8.127 0 003.651-.884l5.847 5.618a1.76 1.76 0 002.378.038h.027a1.496 1.496 0 00.427-1.603 1.495 1.495 0 00-.292-.503.958.958 0 00-.103-.108l-2.761-2.639-2.961-2.876a7.386 7.386 0 001.715-4.675c.006-4.218-3.538-7.643-7.928-7.643z" clip-rule="evenodd"/><path fill="#fff" fill-rule="evenodd" d="M137.821 149.91a5.686 5.686 0 013.513-5.254 5.705 5.705 0 016.206 1.228 5.687 5.687 0 011.241 6.195 5.7 5.7 0 01-5.254 3.519 5.712 5.712 0 01-4.025-1.661 5.684 5.684 0 01-1.67-4.016l-.011-.011z" clip-rule="evenodd"/><path fill="#F96132" fill-rule="evenodd" d="M141.979 145.084c.081.167-.188.916-.593 1.67l-1.429 2.634c-.41.754-.804 1.233-.879 1.077-.081-.162.189-.911.593-1.665l1.429-2.633c.41-.744.804-1.245.879-1.083zm1.316-.059a3.223 3.223 0 01-.496 1.459l-1.219 2.268c-.35.652-.69 1.077-.755.921.058-.516.244-1.01.54-1.438l1.218-2.268c.319-.673.648-1.082.712-.942zm1.036.339c.108.086.048.436-.13.787l-.62 1.217c-.172.345-.399.538-.501.468-.108-.086-.049-.436.129-.786l.615-1.217c.156-.345.42-.56.507-.469zm.237 1.374a.328.328 0 01.106-.224.32.32 0 01.234-.083.326.326 0 01.203.563.323.323 0 01-.543-.251v-.005z" clip-rule="evenodd"/><path fill="#fff" fill-rule="evenodd" d="M151.584 191.506a15.189 15.189 0 00-.631-4.028c-.35-.797-2.232-4.438-2.157-3.577.033.614-1.116 1.772-1.116 1.772a14.497 14.497 0 00-2.184-4.045c-1.618-1.879-4.385-2.062-4.315-1.685.07.377.539.808.707 1.481.15.684.119 1.395-.092 2.063a10.425 10.425 0 01-2.044 3.301 6.814 6.814 0 00-1.489 2.122 6.467 6.467 0 000 5.193 6.85 6.85 0 001.489 2.116 7.02 7.02 0 002.211 1.433 7.235 7.235 0 005.393 0 6.941 6.941 0 002.206-1.433 6.705 6.705 0 001.489-2.116 6.423 6.423 0 00.533-2.597z" clip-rule="evenodd"/><path fill="#35416B" fill-rule="evenodd" d="M148.634 187.839c-.512.678-.738 1.615-1.58 2.693-.464-3.701-2.831-5.817-3.327-6.464-.496-.646-.205.539-.701 1.643-.583 2.909-5.83 5.742-2.632 10.304 2.286 3.231 7.615 2.8 9.222-.862 1.192-2.693.297-4.966-.982-7.314z" clip-rule="evenodd"/><path fill="#FB4F0D" fill-rule="evenodd" d="M148.516 191.431c-.184.248-1.122 1.411-1.289 1.74-.373.48-.77.94-1.192 1.379a7.031 7.031 0 01-.539-1.745 22.768 22.768 0 00-.54-2.559c-.383-1.416-.809-1.546-.911-2.3-.092-.668-.221-.134-.259.119-.038.253-.782 1.836-.96 2.24-.669 1.078-.566.943-1.283 2.155-.718 1.212-1.079 2.542.07 4.201a3.878 3.878 0 003.548 1.578c1.322-.118 2.158-.485 2.735-1.815a11 11 0 00.652-2.37 7.387 7.387 0 00-.032-2.623z" clip-rule="evenodd"/><path fill="#fff" fill-rule="evenodd" d="M148.516 191.431c-.184.248-1.122 1.411-1.289 1.74-.373.48-.77.94-1.192 1.379a7.031 7.031 0 01-.539-1.745 22.768 22.768 0 00-.54-2.559c-.383-1.416-.809-1.546-.911-2.3-.092-.668-.221-.134-.259.119-.038.253-.782 1.836-.96 2.24-.669 1.078-.566.943-1.283 2.155-.718 1.212-1.079 2.542.07 4.201a3.878 3.878 0 003.548 1.578c1.322-.118 2.158-.485 2.735-1.815a11 11 0 00.652-2.37 7.387 7.387 0 00-.032-2.623z" clip-rule="evenodd"/><path fill="#F96132" fill-rule="evenodd" d="M144.164 218.442l2.885.038 3.522-.474c.303-.054.616-.026.906.081.312.183.776 3.048 1.148 4.486.329 1.261.885 2.23 1.235 3.485.049.172.097.673-.404.749-.94.027-1.878.102-2.81.226-.453.081-1.78.463-2.157.538-1.478.264-1.931.641-3.236.13l-.383-.668v-.819c-.469-.296-1.618.049-2.297.27-.639.268-1.262.572-1.866.91-.507-1.67-.195-.91-1.23-5.031-.976-3.867-1.365-3.35-1.435-5.09 0-.28.648-.576 1.343-.808a12.356 12.356 0 011.591-.425c1.187-.167 1.931-.129 2.411.237s.663 1.018.777 2.165z" clip-rule="evenodd"/><path fill="#35416B" fill-rule="evenodd" d="M137.649 215.442a.417.417 0 01.49.291l4.66 19.928a.382.382 0 01-.291.447.407.407 0 01-.486-.291l-4.697-19.879a.382.382 0 01.27-.464l.054-.032zm-1.322 38.807l-.237 17.854 17.932.092v-.964l-16.864-.07v-16.902l-.831-.01z" clip-rule="evenodd"/><path fill="#F96132" fill-rule="evenodd" d="M137.87 269.884a.534.534 0 01.333-.497.534.534 0 01.587.116.541.541 0 01.117.587.533.533 0 01-.498.333.539.539 0 01-.539-.539zm5.431-8.122a.534.534 0 01.333-.497.534.534 0 01.587.116.541.541 0 01.117.587.54.54 0 01-1.037-.206zm4.271 2.752a.542.542 0 01.645-.528.541.541 0 01.393.735.538.538 0 01-.499.332.539.539 0 01-.539-.539zm3.894-8.251a.535.535 0 01.644-.528.54.54 0 11-.644.528z" clip-rule="evenodd"/><path fill="#35416B" fill-rule="evenodd" d="M142.675 262.926s.275-.631.674-.297.027.598 0 .7c-.102.216-3.516 5.311-3.516 5.311s-.216.609-.637.302c-.42-.307.033-.749.033-.749l3.446-5.267zm8.359-5.333a.598.598 0 01.685-.484c.459.086.2.447.173.538-.065.199-2.486 5.435-2.486 5.435a.542.542 0 01-.588.484h-.049c-.582-.075-.178-.592-.178-.592l2.443-5.381zm-4.066 5.785s.539.312.194.668c-.345.355-.539 0-.62-.086-.178-.113-1.618-1.185-1.618-1.185s-.539-.253-.21-.625c.329-.372.674.097.674.097l1.58 1.131z" clip-rule="evenodd"/><path fill="#F7A501" fill-rule="evenodd" stroke="#35416B" stroke-linecap="round" stroke-linejoin="round" stroke-width="2.92" d="M343.062 304.899h9.093a4.415 4.415 0 013.108 1.29 4.4 4.4 0 011.292 3.105v9.345a4.412 4.412 0 01-4.4 4.395h-9.093a4.405 4.405 0 01-3.105-1.291 4.392 4.392 0 01-1.285-3.104v-9.345c0-1.164.462-2.28 1.285-3.104a4.405 4.405 0 013.105-1.291z" clip-rule="evenodd"/><path fill="#fff" fill-rule="evenodd" d="M342.884 318.068v-5.925l-1.516 1.164-.992-1.358 2.659-1.955h1.763v8.079l-1.914-.005zm10.851-2.311a2.247 2.247 0 01-.922 1.902 2.865 2.865 0 01-.971.468c-.753.21-1.55.21-2.303 0a2.843 2.843 0 01-.965-.463 2.268 2.268 0 01-.669-.781 2.334 2.334 0 01-.248-1.11c-.011-.45.14-.89.426-1.238.129-.168.286-.312.464-.426.167-.113.348-.203.539-.269a1.988 1.988 0 01-.879-.63 1.726 1.726 0 01-.356-1.115 2.104 2.104 0 01.226-.991c.15-.286.362-.534.621-.727.271-.2.576-.35.9-.442a4.178 4.178 0 012.158 0c.321.091.624.236.895.431a2.048 2.048 0 01.857 1.702 1.788 1.788 0 01-1.235 1.766v.033c.201.065.394.156.572.269.174.117.329.261.458.426.276.347.425.779.421 1.222l.011-.027zm-2.071-3.581a.884.884 0 00-.281-.663.998.998 0 00-.69-.264.964.964 0 00-.696.264.925.925 0 00-.264.663.956.956 0 00.259.673.906.906 0 00.701.285.947.947 0 00.89-.565.94.94 0 00.081-.361v-.032zm.151 3.517a1.043 1.043 0 00-.313-.781 1.209 1.209 0 00-1.618 0 1.043 1.043 0 00-.313.786.99.99 0 00.313.781c.224.198.516.302.814.291.3.014.593-.09.815-.291a1.023 1.023 0 00.302-.786z" clip-rule="evenodd"/><path fill="#fff" fill-rule="evenodd" stroke="#35416B" stroke-linecap="round" stroke-linejoin="round" stroke-width="3.01" d="M367.255 284.863h90.81a3.609 3.609 0 012.556 1.053 3.606 3.606 0 011.063 2.55v118.66a3.624 3.624 0 01-3.619 3.614h-90.81a3.623 3.623 0 01-3.624-3.614v-118.66a3.614 3.614 0 011.055-2.553 3.608 3.608 0 012.553-1.061v0l.016.011z" clip-rule="evenodd"/><path fill="#fff" fill-rule="evenodd" stroke="#35416B" stroke-linecap="round" stroke-linejoin="round" stroke-width="3.01" d="M368.712 288.924a1.51 1.51 0 011.51 1.508v32.947a1.51 1.51 0 01-3.02 0v-32.942a1.501 1.501 0 01.927-1.396c.183-.077.379-.116.577-.117v0h.006z" clip-rule="evenodd"/><path fill="#fff" fill-rule="evenodd" stroke="#F96132" stroke-linecap="round" stroke-linejoin="round" stroke-width="3.01" d="M368.534 328.199a1.545 1.545 0 011.542 1.546v40.724a1.545 1.545 0 01-1.542 1.546v0a1.559 1.559 0 01-1.548-1.546v-40.724a1.559 1.559 0 011.548-1.546v0z" clip-rule="evenodd"/><path fill="#fff" fill-rule="evenodd" stroke="#F7A501" stroke-linecap="round" stroke-linejoin="round" stroke-width="3.01" d="M368.334 377.024a1.776 1.776 0 011.769 1.772v22.896a1.776 1.776 0 01-.514 1.251 1.776 1.776 0 01-1.25.521v0c-.469 0-.919-.186-1.25-.518a1.763 1.763 0 01-.519-1.249v0-22.891a1.78 1.78 0 011.764-1.782z" clip-rule="evenodd"/><path fill="#F7A501" fill-rule="evenodd" stroke="#F7A501" stroke-linecap="round" stroke-linejoin="round" stroke-width="3.01" d="M377.27 378.882h56.499a1.62 1.62 0 011.618 1.616 1.616 1.616 0 01-1.618 1.615H377.27a1.62 1.62 0 01-1.618-1.615v0a1.617 1.617 0 011.618-1.616v0zm2.185 8.612h52.313a3.61 3.61 0 013.619 3.603v5.316a3.617 3.617 0 01-1.051 2.555 3.614 3.614 0 01-2.552 1.065h-52.313a3.617 3.617 0 01-3.624-3.62v-5.262a3.601 3.601 0 011.05-2.564 3.634 3.634 0 012.558-1.071v0-.022z" clip-rule="evenodd"/><path fill="#F96132" fill-rule="evenodd" d="M378.414 329.282h23.848a1.711 1.711 0 011.71 1.707 1.707 1.707 0 01-1.71 1.707h-23.848a1.707 1.707 0 110-3.414zm2.222 12.021h8.456a3.628 3.628 0 013.348 2.235c.183.439.276.909.276 1.385v17.02a3.618 3.618 0 01-3.624 3.614h-8.456a3.636 3.636 0 01-2.561-1.057 3.596 3.596 0 01-1.058-2.557v-17.02a3.617 3.617 0 011.051-2.555 3.614 3.614 0 012.552-1.065h.016zm23.611-2.1h45.135a3.627 3.627 0 012.557 1.053 3.622 3.622 0 011.062 2.55v18.981a3.618 3.618 0 01-1.055 2.553 3.624 3.624 0 01-2.553 1.061h-45.146a3.62 3.62 0 01-3.342-2.223 3.618 3.618 0 01-.277-1.381v-18.975a3.622 3.622 0 013.619-3.619z" clip-rule="evenodd"/><path fill="#35416B" fill-rule="evenodd" d="M378.813 290.885h41.764a2.154 2.154 0 110 4.308h-41.764a2.154 2.154 0 110-4.308zm-.588 11.897h38.458a2.409 2.409 0 011.698.706 2.398 2.398 0 010 3.393 2.409 2.409 0 01-1.698.706h-38.458a2.397 2.397 0 01-1.701-.704 2.411 2.411 0 01-.704-1.699 2.4 2.4 0 011.485-2.219c.291-.121.604-.183.92-.183z" clip-rule="evenodd"/></g><defs><pattern id="pattern0" width="1" height="1" patternContentUnits="objectBoundingBox"><use transform="scale(.0011)" xlink:href="#image0"/></pattern><clipPath id="clip0"><path fill="#fff" d="M0 0h693v516H0z"/></clipPath></defs></svg>