<svg xmlns:xlink="http://www.w3.org/1999/xlink" fill="none" viewBox="0 0 663 475"><g clip-path="url(#clip0)"><path fill="url(#pattern0)" d="M0 0h592.975v475H0z"/><path fill="url(#pattern1)" d="M134.674 77.373h309.289v352.023H134.674z"/><path fill="#F7A501" fill-rule="evenodd" stroke="#35416B" stroke-linecap="round" stroke-linejoin="round" stroke-width="2.5" d="M215.581 96.845h255.127a7.535 7.535 0 015.325 2.178 7.545 7.545 0 012.238 5.303v299.127a7.545 7.545 0 01-2.233 5.313 7.532 7.532 0 01-5.33 2.183H215.581a7.517 7.517 0 01-5.341-2.18 7.54 7.54 0 01-2.233-5.321V104.326a7.537 7.537 0 017.574-7.481z" clip-rule="evenodd"/><path stroke="#35416B" stroke-linecap="round" stroke-linejoin="round" stroke-width="2.5" d="M23.606 411.831l638.754-.426"/><path fill="#35416B" fill-rule="evenodd" stroke="#35416B" stroke-linecap="round" stroke-linejoin="round" stroke-width="2.5" d="M235.387 112.396h217.629a8.794 8.794 0 018.787 8.793v219.479a8.794 8.794 0 01-8.787 8.793H235.387a8.795 8.795 0 01-8.787-8.793V121.189a8.795 8.795 0 018.787-8.793v0z" clip-rule="evenodd"/><path stroke="#F96132" stroke-linecap="round" stroke-linejoin="round" stroke-width="2.5" d="M244.359 282.197l121.36-.297m-122.087-9.013l77.522-.287m-76.795-10.192l120.274-.297m-120.131-9.741l56.364-.297m-56.22-10.325l43.208-.297m-43.674 61.893h66.241m-65.909 10.12h87.6m-88.368-117.787l77.077-.194-.266 10.294-77.077-.513m-.041 11.34l77.071-.195-.266 10.295-77.076-.538"/><path fill="#F7A501" fill-rule="evenodd" stroke="#35416B" stroke-linecap="round" stroke-linejoin="round" stroke-width="2.5" d="M315.434 102.758h217.629c2.33 0 4.565.926 6.213 2.575a8.797 8.797 0 012.574 6.218v219.463a8.796 8.796 0 01-5.421 8.138 8.797 8.797 0 01-3.366.67H315.434a8.782 8.782 0 01-8.109-5.442 8.79 8.79 0 01-.663-3.366v0-219.463c0-2.33.924-4.564 2.568-6.212a8.784 8.784 0 016.204-2.581v0z" clip-rule="evenodd"/><path fill="url(#pattern2)" d="M15.362 148.598h129.041v184.978H15.362z"/><path fill="#F7A501" fill-rule="evenodd" stroke="#35416B" stroke-linecap="round" stroke-linejoin="round" stroke-width="2.5" d="M49.942 167.828h66.384a8.787 8.787 0 018.793 8.788V299.67a8.807 8.807 0 01-2.57 6.219 8.796 8.796 0 01-6.212 2.579H49.942a8.781 8.781 0 01-8.121-5.423 8.802 8.802 0 01-.671-3.365v0-123.059a8.798 8.798 0 015.424-8.124 8.798 8.798 0 013.363-.669h.005z" clip-rule="evenodd"/><path fill="#F7A501" fill-rule="evenodd" stroke="#35416B" stroke-linecap="round" stroke-linejoin="round" stroke-width="2.5" d="M75.786 205.567h15.802a8.793 8.793 0 018.776 8.798v46.962a8.794 8.794 0 01-8.786 8.793H75.786a8.787 8.787 0 01-8.792-8.793v-46.962a8.8 8.8 0 012.575-6.221 8.79 8.79 0 016.217-2.577z" clip-rule="evenodd"/><path stroke="#35416B" stroke-linecap="round" stroke-linejoin="round" stroke-width="2.5" d="M74.311 202.974h18.465c5.674 0 10.273 4.289 10.273 9.582v51.138c0 5.288-4.61 9.577-10.273 9.577H74.311c-5.673 0-10.272-4.289-10.272-9.577v-51.138c0-5.293 4.578-9.582 10.272-9.582z" clip-rule="evenodd"/><path fill="#35416B" fill-rule="evenodd" stroke="#35416B" stroke-linecap="round" stroke-linejoin="round" stroke-width="2.5" d="M75.878 260.466h16.53c8.05-.113 7.957-13.128 7.957-13.128s.082 14.978.082 15.885c0 0-.512 6.584-8.044 6.446h-17.41c-6.657.077-7.979-6.277-7.979-6.277 0-.892-.046-16.085-.046-16.085s2.71 13.236 8.91 13.159z" clip-rule="evenodd"/><path fill="#fff" fill-rule="evenodd" d="M81.854 186.142a3.376 3.376 0 00-.589-2.112 2.104 2.104 0 00-2.243-.643 2.101 2.101 0 00-.962.643 4.033 4.033 0 000 4.228 2.103 2.103 0 002.96.246c.086-.077.169-.159.245-.246a3.348 3.348 0 00.59-2.116zm.466 3.346a4.186 4.186 0 01-5.31 0c-.825-.774-1.234-1.886-1.234-3.346 0-1.461.41-2.598 1.234-3.346a4.182 4.182 0 015.31 0c.82.748 1.229 1.86 1.229 3.346a4.386 4.386 0 01-1.229 3.346zm2.494-7.389h1.777l3.226 5.662v-5.662h1.582v8.111h-1.695l-3.313-5.744v5.765h-1.577v-8.132zm291.382-34.393h5.223v1.296h-3.692v1.697h3.252v1.281h-3.232v3.074h-1.536l-.015-7.348zm7.179 4.089h2.212a1.24 1.24 0 00-.343-.856 1.083 1.083 0 00-.763-.292.98.98 0 00-.768.308 1.539 1.539 0 00-.338.84zm3.236-1.266c.221.34.363.725.415 1.128.041.358.056.72.046 1.081h-3.733a1.376 1.376 0 00.512 1.153c.211.138.46.21.712.205.261.01.515-.08.712-.251.112-.107.202-.234.266-.375h1.454a1.774 1.774 0 01-.512.984 2.47 2.47 0 01-1.92.805 2.752 2.752 0 01-1.838-.671 2.7 2.7 0 01-.794-2.178 3.08 3.08 0 01.717-2.173 2.466 2.466 0 011.864-.758c.422-.005.839.082 1.224.256.36.178.663.453.875.794zm4.425 1.886a1.221 1.221 0 01-.272.138c-.123.045-.25.078-.379.098l-.317.061a2.169 2.169 0 00-.645.195.662.662 0 00-.333.605.61.61 0 00.205.512.74.74 0 00.512.164c.305.002.602-.093.85-.272a1.155 1.155 0 00.399-.983l-.02-.518zm-.84-.661c.194-.017.385-.06.568-.128a.437.437 0 00.302-.405.482.482 0 00-.23-.461 1.448 1.448 0 00-.686-.128.89.89 0 00-.712.251.986.986 0 00-.2.512h-1.377c.013-.422.152-.831.399-1.173a2.32 2.32 0 011.941-.723 3.496 3.496 0 011.592.354 1.383 1.383 0 01.692 1.343v3.135a.736.736 0 00.082.38.546.546 0 00.21.164v.21h-1.537a1.689 1.689 0 01-.087-.313 2.41 2.41 0 01-.041-.328 3.053 3.053 0 01-.681.548 2.037 2.037 0 01-1.024.262 1.81 1.81 0 01-1.224-.42 1.542 1.542 0 01-.481-1.199 1.54 1.54 0 01.773-1.456 3.505 3.505 0 011.255-.353l.466-.072zm2.97-1.071v-1.025h.763v-1.537h1.387v1.537h.886v1.025h-.886v2.88a.638.638 0 00.088.42c.16.073.337.101.512.082h.281v1.066h-.676a1.842 1.842 0 01-1.377-.354 1.017 1.017 0 01-.241-.753v-3.377l-.737.036zm5.392-1.06v3.284c-.011.239.026.477.107.702a.765.765 0 00.768.415.992.992 0 001.025-.589c.103-.27.152-.557.143-.846v-2.966h1.444v5.452h-1.388v-.769l-.097.149a1.134 1.134 0 01-.189.22 1.978 1.978 0 01-.651.41 2.191 2.191 0 01-.732.107 1.62 1.62 0 01-1.628-.866 3.34 3.34 0 01-.236-1.419v-3.284h1.434zm7.983-.129v1.461h-.41a1.176 1.176 0 00-1.152.563 2.173 2.173 0 00-.164.969v2.608h-1.439v-5.473h1.363v.948c.149-.277.343-.528.573-.743a1.538 1.538 0 011.024-.338h.205v.005zm1.879 2.301h2.212a1.18 1.18 0 00-.343-.856 1.025 1.025 0 00-.758-.292.991.991 0 00-.768.308 1.545 1.545 0 00-.343.84zm3.237-1.266c.215.343.357.727.414 1.128.042.359.056.72.041 1.081h-3.728a1.342 1.342 0 00.513 1.153c.209.138.455.21.706.205.262.011.519-.079.717-.251.111-.108.201-.235.266-.374h1.455a1.788 1.788 0 01-.512.983 2.487 2.487 0 01-1.962.795 2.737 2.737 0 01-1.833-.672 2.7 2.7 0 01-.794-2.177 3.009 3.009 0 01.717-2.173 2.456 2.456 0 011.864-.758c.422-.005.84.082 1.224.256.374.176.691.455.912.804zm4.378-2.823h5.223v1.296h-3.692v1.697h3.236v1.281h-3.236v3.074h-1.536l.005-7.348zm7.594 7.363h-1.424v-7.373h1.424v7.373zm4.398-2.654a1.33 1.33 0 01-.271.138c-.123.045-.25.078-.379.098l-.312.046a2.184 2.184 0 00-.646.195.652.652 0 00-.327.604.636.636 0 00.04.28.641.641 0 00.159.233.815.815 0 00.513.164 1.4 1.4 0 00.844-.272 1.153 1.153 0 00.405-.984l-.026-.502zm-.865-.661c.192-.019.382-.062.563-.128a.426.426 0 00.308-.405.472.472 0 00-.236-.461 1.426 1.426 0 00-.681-.128.903.903 0 00-.717.251 1.096 1.096 0 00-.2.512h-1.372c.013-.422.152-.831.399-1.173a2.316 2.316 0 011.941-.723 3.48 3.48 0 011.588.354 1.37 1.37 0 01.696 1.343v3.135a.75.75 0 00.087.38.553.553 0 00.21.164v.21h-1.536a1.629 1.629 0 01-.092-.313 2.254 2.254 0 01-.036-.328c-.2.214-.429.399-.681.548a2.042 2.042 0 01-1.024.262 1.807 1.807 0 01-1.224-.42 1.532 1.532 0 01-.482-1.199 1.547 1.547 0 01.753-1.451c.39-.196.814-.316 1.25-.353l.486-.077zm7.072.564a1.88 1.88 0 00-.328-1.184 1.088 1.088 0 00-.881-.405 1.026 1.026 0 00-1.024.707 2.485 2.485 0 00-.148.928c-.008.29.046.578.158.845a1.025 1.025 0 001.024.692 1.095 1.095 0 00.845-.379c.263-.344.388-.773.354-1.204zm-.815-2.696c.364.158.661.437.84.789v-.789h1.383v5.171a2.927 2.927 0 01-.353 1.593c-.41.615-1.19.922-2.341.922a3.151 3.151 0 01-1.705-.415 1.528 1.528 0 01-.732-1.224h1.536a.668.668 0 00.195.364c.228.149.501.218.773.194a1.02 1.02 0 001.024-.512 2.56 2.56 0 00.174-1.112v-.369a1.692 1.692 0 01-.44.512 1.744 1.744 0 01-1.106.328 2.084 2.084 0 01-1.68-.738 3.028 3.028 0 01-.625-1.998 3.37 3.37 0 01.605-2.05 2 2 0 011.715-.83c.255.003.506.059.737.164zm4.665 3.705a.946.946 0 00.195.543 1.318 1.318 0 00.978.282 1.5 1.5 0 00.671-.123.402.402 0 00.246-.374.416.416 0 00-.2-.369 8.352 8.352 0 00-1.485-.43 3.072 3.072 0 01-1.306-.574 1.222 1.222 0 01-.379-.979 1.695 1.695 0 01.589-1.301 2.404 2.404 0 011.669-.543 3.071 3.071 0 011.665.409 1.759 1.759 0 01.737 1.41h-1.423a.835.835 0 00-.159-.436.973.973 0 00-.799-.292 1.103 1.103 0 00-.661.149.417.417 0 00-.199.338.37.37 0 00.21.353c.482.175.979.307 1.485.395a2.71 2.71 0 011.275.61 1.372 1.372 0 01.42 1.024 1.648 1.648 0 01-.605 1.322 3.583 3.583 0 01-3.758-.03 1.772 1.772 0 01-.61-1.384h1.444z" clip-rule="evenodd"/><path fill="#35416B" fill-rule="evenodd" d="M79.821 287.49a3.349 3.349 0 00-.589-2.106 2.094 2.094 0 00-3.205 0 4.03 4.03 0 000 4.228 2.103 2.103 0 002.96.246c.086-.077.169-.159.245-.246a3.36 3.36 0 00.59-2.122zm.466 3.351a4.21 4.21 0 01-5.31 0 4.37 4.37 0 01-1.234-3.351c0-1.486.41-2.598 1.234-3.346a4.187 4.187 0 015.31 0c.82.748 1.23 1.86 1.23 3.346a4.398 4.398 0 01-1.23 3.351zm2.52-7.383h5.75v1.44h-4.066v1.865h3.585v1.409H84.49v3.387h-1.684v-8.101zm6.882 0h5.75v1.44h-4.066v1.865h3.56v1.409h-3.56v3.387H89.69v-8.101z" clip-rule="evenodd"/><path fill="#fff" fill-rule="evenodd" d="M344.135 123.454v11.222l10.928-.082.179-2.276-3.159-.563-3.682-3.951-4.266-4.35z" clip-rule="evenodd"/><path fill="#F7A501" fill-rule="evenodd" d="M345.999 131.56a.981.981 0 01.636-.88.981.981 0 011.314.747.987.987 0 01-.429.997.978.978 0 01-.543.161.982.982 0 01-.703-.308.992.992 0 01-.275-.717z" clip-rule="evenodd"/><path fill="#fff" fill-rule="evenodd" d="M336.362 115.896l.051 5.391 6.493 6.41.046-5.34-6.59-6.461zm.021 6.512l.03 5.34 6.591 6.728-.098-5.227-6.523-6.841zm-.067 6.974l.082 5.227 5.372.082-5.454-5.309z" clip-rule="evenodd"/><path fill="#fff" fill-rule="evenodd" d="M329.808 115.763l-.036 5.472 6.539 6.482.087-5.124-6.59-6.83zm-.082 6.758v5.36l6.605 6.692v-5.324l-6.605-6.728zm-.036 6.826v5.344l5.407-.051-5.407-5.293z" clip-rule="evenodd"/><path fill="#fff" fill-rule="evenodd" d="M323.074 115.942v5.324l6.657 6.477v-5.237l-6.657-6.564zm.077 6.584l6.534 6.759v5.35l-6.688-6.99.154-5.119zm-.149 6.913v5.206h5.469l-5.469-5.206zm-.911 19.092a2.175 2.175 0 012.166 2.167v.231a2.173 2.173 0 01-2.166 2.162 2.158 2.158 0 01-2.166-2.157v-.23a2.17 2.17 0 011.336-2.008c.263-.109.545-.165.83-.165zm.358 20.676a2.166 2.166 0 012.166 2.167v.225a2.168 2.168 0 01-2.166 2.168 2.165 2.165 0 01-2.166-2.168v-.225a2.167 2.167 0 012.166-2.167zm-.194 20.24a2.166 2.166 0 012.166 2.167v.231a2.164 2.164 0 01-4.327 0v-.205a2.159 2.159 0 012.14-2.193h.021zm.041 20.127a2.169 2.169 0 012.166 2.167v.226a2.166 2.166 0 01-2.166 2.167 2.166 2.166 0 01-2.166-2.167v-.226a2.168 2.168 0 012.166-2.167zm-.297 20.286a2.169 2.169 0 012.16 2.167v.231a2.171 2.171 0 01-2.16 2.167 2.159 2.159 0 01-1.532-.634 2.18 2.18 0 01-.634-1.533v-.231a2.17 2.17 0 012.166-2.167zm-.2 20.757a2.17 2.17 0 012.166 2.168v.225a2.168 2.168 0 01-2.166 2.168 2.153 2.153 0 01-1.528-.634 2.158 2.158 0 01-.633-1.528v-.226a2.167 2.167 0 012.156-2.167l.005-.006zm6.534-101.399h32.675a1.395 1.395 0 01.992.411 1.398 1.398 0 01.411.993 1.413 1.413 0 01-1.403 1.409h-32.675a1.414 1.414 0 01-1.403-1.409 1.4 1.4 0 01.866-1.297c.17-.071.353-.107.537-.107zm.348 20.67h32.67a1.414 1.414 0 011.403 1.409 1.406 1.406 0 01-1.403 1.404h-32.67a1.417 1.417 0 01-1.408-1.404 1.408 1.408 0 011.408-1.409zm-.195 20.245h32.67a1.408 1.408 0 01.976 2.4 1.406 1.406 0 01-.996.413h-32.67a1.406 1.406 0 11.005-2.813h.015zm.041 20.097h32.67a1.408 1.408 0 01.005 2.813h-32.675a1.4 1.4 0 01-1.403-1.394 1.41 1.41 0 011.398-1.409l.005-.01zm-.291 20.317h32.669a1.41 1.41 0 011.409 1.404 1.41 1.41 0 01-1.409 1.409h-32.669a1.418 1.418 0 01-1.404-1.409 1.404 1.404 0 011.404-1.404zm-.205 20.752h32.67a1.408 1.408 0 01.997 2.402c-.263.263-.62.411-.992.411h-32.675a1.403 1.403 0 01-.991-2.397c.262-.264.619-.413.991-.416zm55.754-76.83h126.962a8.79 8.79 0 016.217 2.577 8.8 8.8 0 012.575 6.221v111.095a8.795 8.795 0 01-8.787 8.793H383.759a8.795 8.795 0 01-8.787-8.793V183.267a8.789 8.789 0 012.57-6.219 8.796 8.796 0 016.212-2.579h.031z" clip-rule="evenodd"/><path stroke="#35416B" stroke-linecap="round" stroke-linejoin="round" stroke-width="2.5" d="M387.835 187.438h94.61a4.88 4.88 0 014.875 4.878v0a4.878 4.878 0 01-4.875 4.878h-94.61a4.878 4.878 0 01-4.875-4.878v0a4.88 4.88 0 014.875-4.878v0zm.082 15.644h94.108a5.468 5.468 0 010 10.934h-94.108a5.459 5.459 0 01-5.048-3.375 5.479 5.479 0 01-.416-2.092v0a5.468 5.468 0 015.464-5.467v0zm.231 17.416H480.1a5.035 5.035 0 015.033 5.037v0a5.034 5.034 0 01-5.033 5.037h-91.952a5.034 5.034 0 01-5.034-5.037v0a5.035 5.035 0 015.034-5.037v0zm3.553 16.971H503.45a8.414 8.414 0 015.942 2.463 8.412 8.412 0 012.461 5.946v31.538a8.42 8.42 0 01-8.403 8.414H391.701a8.404 8.404 0 01-5.945-2.464 8.417 8.417 0 01-2.463-5.95v-31.538a8.415 8.415 0 018.408-8.409v0z" clip-rule="evenodd"/><path fill="#fff" fill-rule="evenodd" stroke="#35416B" stroke-linecap="round" stroke-linejoin="round" stroke-width="2.5" d="M469.239 83.584h162.044c3.615 0 6.544 3.94 6.544 8.797V311.86c0 4.853-2.929 8.793-6.544 8.793H469.239c-3.616 0-6.545-3.94-6.545-8.793V92.382c0-4.858 2.929-8.799 6.545-8.799z" clip-rule="evenodd"/><path fill="#35416B" fill-rule="evenodd" d="M474.933 97.644h1.208l2.202 3.858v-3.858h1.076v5.529h-1.148l-2.258-3.93v3.93h-1.075l-.005-5.529zm7.732 3.541a1.089 1.089 0 01-.205.102 2.484 2.484 0 01-.281.077l-.241.041a1.772 1.772 0 00-.487.149.512.512 0 00-.245.456.48.48 0 00.153.394.562.562 0 00.369.123c.228 0 .45-.072.635-.205a.847.847 0 00.241-.332.852.852 0 00.061-.406v-.399zm-.65-.513c.145-.012.288-.045.425-.097a.321.321 0 00.23-.302.367.367 0 00-.174-.349 1.094 1.094 0 00-.512-.092.674.674 0 00-.512.184.796.796 0 00-.149.38h-1.024a1.58 1.58 0 01.302-.887 1.739 1.739 0 011.455-.512 2.53 2.53 0 011.193.266 1.026 1.026 0 01.512 1.025v2.352a.612.612 0 00.066.282c.04.054.093.098.154.128v.154h-1.162a2.098 2.098 0 01-.067-.231 1.135 1.135 0 00-.031-.246c-.149.16-.322.296-.512.405a1.543 1.543 0 01-.783.2 1.315 1.315 0 01-.917-.318 1.11 1.11 0 01-.358-.897 1.173 1.173 0 01.578-1.091c.293-.148.611-.237.937-.261l.349-.093zm8.244-1.204c.119.15.2.325.236.512.024.201.036.403.035.605v2.562h-1.09v-2.603a.834.834 0 00-.077-.384.512.512 0 00-.512-.282.62.62 0 00-.61.364c-.062.149-.092.31-.087.471v2.434h-1.075v-2.408a1.245 1.245 0 00-.077-.513.51.51 0 00-.512-.297.63.63 0 00-.614.297 1.173 1.173 0 00-.087.513v2.459h-1.086v-4.099h1.024v.6c.1-.171.226-.325.374-.456a1.31 1.31 0 01.809-.241c.268-.01.533.063.758.21.16.138.281.314.353.512.122-.214.299-.39.512-.512.227-.115.478-.173.733-.17.175.006.349.042.512.108.183.066.348.175.481.318zm2.033 1.25h1.664a.932.932 0 00-.261-.64.784.784 0 00-.568-.22.73.73 0 00-.579.23 1.19 1.19 0 00-.256.63zm2.427-.948c.165.256.271.545.312.846.031.269.041.539.031.809h-2.796a1.033 1.033 0 00.384.861c.15.105.33.159.512.154a.776.776 0 00.512-.184.825.825 0 00.2-.282h1.091a1.351 1.351 0 01-.379.738 1.856 1.856 0 01-1.47.599 2.096 2.096 0 01-1.377-.512 2.046 2.046 0 01-.594-1.64 2.29 2.29 0 01.512-1.63 1.841 1.841 0 011.398-.563c.316-.005.628.06.916.19.307.122.568.337.748.614zm-20.068 22.844h1.137v2.275l2.13-2.275h1.495l-2.268 2.275 2.386 3.253h-1.49l-1.705-2.413-.548.564v1.849h-1.137v-5.528zm6.222 3.074h1.659a.931.931 0 00-.256-.641.792.792 0 00-.574-.22.716.716 0 00-.573.231c-.145.18-.234.399-.256.63zm2.427-.948c.163.256.268.545.307.845.035.269.047.54.036.81h-2.811a1.015 1.015 0 00.384.866c.151.101.33.155.512.154.188 0 .37-.067.512-.19.082-.082.15-.177.2-.282h1.09c-.045.28-.178.538-.378.738a1.849 1.849 0 01-1.47.6 2.049 2.049 0 01-1.378-.513 2.039 2.039 0 01-.482-.753 2.04 2.04 0 01-.117-.886 2.268 2.268 0 01.615-1.615 1.842 1.842 0 011.398-.563c.317-.007.632.058.921.189.272.135.501.342.661.6zm1.229 4.186h.133c.101.01.202.01.302 0a.565.565 0 00.241-.087.624.624 0 00.174-.266.504.504 0 00.061-.246l-1.495-4.274h1.188l.891 3.018.845-3.018h1.132l-1.403 4.048a6.007 6.007 0 01-.64 1.445 1.245 1.245 0 01-.948.277h-.486l.005-.897zm-9.519 30.166h3.917v.973h-2.77v1.271h2.427v.963h-2.427v2.321h-1.147v-5.528zm5.387 3.074h1.659a.945.945 0 00-.256-.646.792.792 0 00-.574-.22.714.714 0 00-.573.231 1.15 1.15 0 00-.256.635zm2.422-.953c.166.255.273.544.312.846.035.268.047.539.036.809h-2.801a1.02 1.02 0 00.389.866c.151.101.33.155.512.154a.794.794 0 00.512-.19.89.89 0 00.195-.282h1.096c-.046.28-.179.538-.379.738a1.86 1.86 0 01-1.475.6 1.922 1.922 0 01-1.972-2.152 2.297 2.297 0 01.512-1.63 1.851 1.851 0 011.398-.563c.318-.004.632.06.922.189.296.127.546.342.717.615h.026zm3.323 1.414a1.124 1.124 0 01-.205.103 1.482 1.482 0 01-.287.077l-.235.046a1.471 1.471 0 00-.512.143.571.571 0 00-.144.789l.046.062a.588.588 0 00.374.123c.228 0 .45-.072.635-.205a.868.868 0 00.302-.738l.026-.4zm-.65-.512c.144-.016.287-.047.425-.092a.336.336 0 00.162-.118.333.333 0 00.063-.19.355.355 0 00-.174-.348 1.1 1.1 0 00-.512-.093.637.637 0 00-.512.19.768.768 0 00-.154.374h-1.024c.007-.318.113-.626.302-.881a1.731 1.731 0 011.454-.543 2.66 2.66 0 011.193.266 1.023 1.023 0 01.513 1.025v2.352a.552.552 0 00.061.287.467.467 0 00.159.123v.159h-1.163a1.237 1.237 0 01-.066-.236 2.042 2.042 0 01-.031-.246c-.151.16-.323.298-.512.41-.238.133-.506.2-.778.195a1.315 1.315 0 01-.917-.318 1.12 1.12 0 01-.363-.897 1.16 1.16 0 01.583-1.091c.292-.148.611-.237.937-.262l.354-.066zm2.248-.789v-.759h.568v-1.142h1.06v1.142h.681v.759h-.661v2.162a.517.517 0 00.062.313.733.733 0 00.389.061h.21v.799h-.512a1.36 1.36 0 01-1.024-.266.805.805 0 01-.179-.564v-2.521l-.594.016zm4.04-.8v2.465a1.33 1.33 0 00.082.512.574.574 0 00.573.313.756.756 0 00.753-.446c.077-.202.112-.419.102-.635v-2.224h1.086v4.099h-1.024v-.579a.55.55 0 00-.077.113.621.621 0 01-.138.164 1.537 1.537 0 01-.512.307 1.645 1.645 0 01-.548.082 1.22 1.22 0 01-1.224-.65 2.448 2.448 0 01-.179-1.066v-2.465l1.106.01zm5.991-.087v1.092h-.307a.874.874 0 00-.866.42 1.618 1.618 0 00-.128.727v1.958h-1.075v-4.099h1.024v.712c.117-.207.264-.395.435-.559.222-.173.498-.262.779-.251h.138zm1.408 1.727h1.659a.94.94 0 00-.256-.646.799.799 0 00-.573-.22.726.726 0 00-.574.231 1.164 1.164 0 00-.256.635zm2.422-.953c.167.255.274.544.313.846.035.268.047.539.036.809h-2.801a1.02 1.02 0 00.389.866c.151.101.33.155.512.154a.784.784 0 00.512-.19.888.888 0 00.194-.282h1.096c-.045.28-.178.538-.379.738a1.861 1.861 0 01-1.474.6 1.922 1.922 0 01-1.972-2.152 2.293 2.293 0 01.512-1.63 1.842 1.842 0 011.398-.563c.317-.004.632.06.922.189.305.123.564.338.742.615zm5.802-2.127h1.08v5.534h-1.065l-.015-5.534zm-.655-.035v.871h-.313c-.164 0-.266.046-.307.138a1.257 1.257 0 00-.046.436v.076h.701v.754h-.701v3.3h-1.065v-3.3h-.63v-.754h.589v-.266a1.37 1.37 0 01.287-.968 1.345 1.345 0 011.054-.303h.2l.231.016zm5.002 3.576a1.115 1.115 0 01-.204.103 1.502 1.502 0 01-.287.077l-.236.046a1.477 1.477 0 00-.512.143.57.57 0 00-.143.789l.046.062a.565.565 0 00.369.123c.229 0 .453-.072.64-.205a.872.872 0 00.302-.738l.025-.4zm-.65-.512c.145-.016.287-.047.425-.092a.331.331 0 00.225-.308.354.354 0 00-.174-.348 1.096 1.096 0 00-.512-.093.639.639 0 00-.512.19.758.758 0 00-.153.374h-1.024c.009-.317.112-.624.296-.881a1.747 1.747 0 011.46-.543c.413-.005.821.086 1.193.266a1.03 1.03 0 01.512 1.025v2.352a.563.563 0 00.062.287.463.463 0 00.158.123v.159h-1.162a1.318 1.318 0 01-.067-.236 2.04 2.04 0 01-.03-.246c-.151.16-.323.298-.513.41-.237.133-.506.2-.778.195a1.31 1.31 0 01-.916-.318 1.122 1.122 0 01-.364-.897 1.16 1.16 0 01.584-1.091c.292-.148.61-.237.937-.262l.353-.066zm5.315.44a1.397 1.397 0 00-.245-.886.799.799 0 00-.661-.302.775.775 0 00-.773.512 1.876 1.876 0 00-.113.692c-.004.217.036.434.118.635a.784.784 0 00.778.513.811.811 0 00.646-.262c.193-.259.282-.58.25-.902zm-.624-2.049c.273.118.496.328.63.594v-.589h1.024v3.884c.028.414-.064.827-.267 1.189-.302.461-.891.692-1.756.692a2.371 2.371 0 01-1.275-.308 1.112 1.112 0 01-.548-.917h1.163a.454.454 0 00.143.266.94.94 0 00.584.149.788.788 0 00.773-.384c.1-.267.144-.551.128-.836v-.276a1.37 1.37 0 01-.333.394 1.32 1.32 0 01-.829.241 1.588 1.588 0 01-1.26-.553 2.221 2.221 0 01-.466-1.497 2.566 2.566 0 01.45-1.537 1.502 1.502 0 011.286-.62c.189 0 .377.036.553.108zm5.899-.467h-1.081v-.988h1.081v.988zm-1.081.487h1.081v4.1h-1.081v-4.1zm2.95 2.788a.695.695 0 00.148.405.98.98 0 00.733.21c.175.01.351-.022.512-.093a.32.32 0 00.13-.106.313.313 0 00-.095-.447 6.39 6.39 0 00-1.141-.338 2.318 2.318 0 01-.979-.436.935.935 0 01-.286-.732 1.267 1.267 0 01.445-.974c.352-.29.8-.437 1.255-.41.435-.02.868.087 1.244.308a1.3 1.3 0 01.553 1.055h-1.07a.609.609 0 00-.113-.323.717.717 0 00-.604-.22.879.879 0 00-.512.108.329.329 0 00-.103.11.34.34 0 00-.04.146.286.286 0 00.153.266c.364.13.737.229 1.116.297.354.066.684.223.958.456.103.1.184.219.237.352.054.132.08.274.075.417a1.235 1.235 0 01-.45.994 2.71 2.71 0 01-1.415.385 2.71 2.71 0 01-1.407-.411 1.326 1.326 0 01-.461-1.024l1.117.005zm7.829-.687a1.093 1.093 0 01-.205.103 1.473 1.473 0 01-.286.077l-.241.046c-.167.019-.33.068-.481.143a.567.567 0 00-.144.789l.046.062a.569.569 0 00.369.123 1.1 1.1 0 00.64-.205.862.862 0 00.302-.738v-.4zm-.65-.512c.145-.016.287-.047.425-.092a.331.331 0 00.225-.308.354.354 0 00-.174-.348 1.098 1.098 0 00-.512-.093.637.637 0 00-.512.19.768.768 0 00-.154.374h-1.024a1.6 1.6 0 01.297-.881 1.751 1.751 0 011.46-.543c.411-.005.818.086 1.188.266a1.027 1.027 0 01.512 1.025v2.352a.562.562 0 00.061.287.476.476 0 00.159.123v.159h-1.162a1.24 1.24 0 01-.067-.236 2.042 2.042 0 01-.031-.246 2.33 2.33 0 01-.512.41c-.237.133-.506.2-.778.195a1.315 1.315 0 01-.917-.318 1.132 1.132 0 01-.363-.897 1.16 1.16 0 01.583-1.091c.293-.148.611-.237.938-.262l.358-.066zm5.105-.123a.906.906 0 00-.153-.41.646.646 0 00-.558-.246.742.742 0 00-.738.512 2.122 2.122 0 00-.107.759 2.04 2.04 0 00.107.727.72.72 0 00.722.513.661.661 0 00.512-.2c.109-.151.174-.328.19-.513h1.09a1.733 1.733 0 01-.353.923 1.695 1.695 0 01-1.49.702 1.753 1.753 0 01-1.449-.584 2.328 2.328 0 01-.466-1.538 2.4 2.4 0 01.512-1.639 1.765 1.765 0 011.413-.584c.446-.02.887.102 1.26.348a1.58 1.58 0 01.579 1.214l-1.071.016zm1.414-.666v-.759h.568v-1.142h1.06v1.142h.661v.759h-.661v2.162a.517.517 0 00.061.313.736.736 0 00.39.061h.21v.799h-.513a1.361 1.361 0 01-1.024-.266.805.805 0 01-.179-.564v-2.521l-.573.016zm4.076-1.287h-1.101v-.988h1.085l.016.988zm-1.086.487h1.086v4.1h-1.101l.015-4.1zm4.639 0h1.147l-1.469 4.1h-1.132l-1.464-4.1h1.198l.85 3.018.87-3.018zm2.515 1.64h1.659a.945.945 0 00-.256-.646.792.792 0 00-.574-.22.714.714 0 00-.573.231 1.15 1.15 0 00-.256.635zm2.427-.953c.163.256.268.545.307.846.035.268.047.539.036.809h-2.77a1.015 1.015 0 00.384.866c.151.101.33.155.512.154a.784.784 0 00.512-.19 1.04 1.04 0 00.2-.282h1.09c-.045.28-.178.538-.379.738a1.85 1.85 0 01-1.469.6 2.049 2.049 0 01-1.378-.513 2.043 2.043 0 01-.599-1.639 2.297 2.297 0 01.512-1.63 1.842 1.842 0 011.398-.563c.317-.004.632.06.922.189.304.125.563.339.742.615h-.02zm-73.287 32.44v1.491h1.311a1.4 1.4 0 00.583-.092.617.617 0 00.343-.625.674.674 0 00-.332-.671 1.272 1.272 0 00-.564-.103h-1.341zm3.006-.43c.118.14.215.297.286.466.077.185.113.384.108.584-.001.271-.07.537-.2.774-.141.257-.376.45-.655.538.226.077.418.231.542.436.122.271.176.568.159.866v.389a2.83 2.83 0 00.031.512.438.438 0 00.205.313v.143h-1.27c-.036-.123-.057-.225-.072-.297a2.924 2.924 0 01-.051-.476v-.513a1.026 1.026 0 00-.195-.702 1.025 1.025 0 00-.696-.179h-1.193v2.173h-1.127v-5.534h2.709c.305-.004.608.044.896.143.2.079.379.203.523.364zm4.106 2.967a1.533 1.533 0 00-.261-.964.94.94 0 00-1.013-.288.944.944 0 00-.431.288 1.922 1.922 0 000 1.896.952.952 0 00.646.331.938.938 0 00.691-.223.729.729 0 00.107-.108c.185-.274.277-.601.261-.932zm-.967 2.177a1.91 1.91 0 01-1.573-.635 2.565 2.565 0 010-3.074 2.238 2.238 0 013.145 0 2.563 2.563 0 010 3.074 1.91 1.91 0 01-1.572.635zm3.942-.138h-1.065v-5.534h1.065v5.534zm2.136 0h-1.07v-5.534h1.07v5.534zm5.981-2.039a1.537 1.537 0 00-.251-.948.84.84 0 00-.717-.333.858.858 0 00-.722.333 1.876 1.876 0 000 1.896.847.847 0 00.722.333.84.84 0 00.717-.333c.185-.28.273-.613.251-.948zm-.968 2.177a1.893 1.893 0 01-1.572-.635 2.558 2.558 0 010-3.074 2.235 2.235 0 013.144 0 2.563 2.563 0 010 3.074 1.906 1.906 0 01-1.572.635zm3.922-4.232v2.465a1.26 1.26 0 00.082.512.578.578 0 00.574.313.755.755 0 00.747-.446c.082-.2.119-.415.108-.63v-2.229h1.08v4.099h-1.024v-.579l-.077.113a.743.743 0 01-.143.164 1.537 1.537 0 01-.512.307 1.645 1.645 0 01-.548.082 1.226 1.226 0 01-1.224-.651 2.535 2.535 0 01-.174-1.066v-2.464l1.111.01zm3.206.799v-.732h.568v-1.143h1.06v1.143h.661v.758h-.661v2.162a.516.516 0 00.062.313.732.732 0 00.389.062h.21v.804h-.512a1.384 1.384 0 01-1.024-.266.781.781 0 01-.18-.564v-2.521l-.573-.016zm7.025-2.269v.871h-.302a.358.358 0 00-.156.012.36.36 0 00-.136.08.338.338 0 00-.076.22v.354h.711v.753h-.701v3.3h-1.065v-3.3h-.599v-.753h.583v-.267a1.374 1.374 0 01.226-.902c.153-.245.527-.368 1.121-.368h.394zm1.424 3.11h1.69a.951.951 0 00-.261-.646.796.796 0 00-.569-.22.697.697 0 00-.316.051.7.7 0 00-.262.184 1.196 1.196 0 00-.282.631zm2.427-.953c.162.256.269.544.313.845.03.269.041.539.03.81h-2.796c-.01.164.02.329.086.48.067.15.17.283.298.386.152.101.33.154.513.153a.76.76 0 00.711-.471h1.132c-.044.28-.177.539-.379.738a1.861 1.861 0 01-1.47.599 2.086 2.086 0 01-1.377-.512 2.053 2.053 0 01-.594-1.635 2.265 2.265 0 01.512-1.629 1.835 1.835 0 011.398-.569c.316-.004.629.06.917.19.289.133.534.347.706.615zm3.318 1.429a1.591 1.591 0 01-.204.108 1.715 1.715 0 01-.282.072l-.241.046c-.167.018-.33.067-.481.143a.515.515 0 00-.251.456.492.492 0 00.154.395.564.564 0 00.368.123c.228 0 .45-.072.635-.205a.868.868 0 00.302-.738v-.4zm-.65-.512c.145-.016.287-.047.425-.092a.33.33 0 00.166-.116.331.331 0 00.065-.192.37.37 0 00-.175-.343 1.025 1.025 0 00-.512-.098.664.664 0 00-.512.19.75.75 0 00-.148.374h-1.024a1.53 1.53 0 01.302-.881 1.74 1.74 0 011.454-.543c.413-.005.821.086 1.193.266a1.03 1.03 0 01.512 1.025v2.347a.624.624 0 00.067.287.457.457 0 00.159.123v.158h-1.168a1.707 1.707 0 01-.067-.235 1.126 1.126 0 00-.03-.246c-.15.161-.322.3-.512.41a1.55 1.55 0 01-.784.2 1.36 1.36 0 01-.916-.318 1.148 1.148 0 01-.359-.902 1.166 1.166 0 01.579-1.091c.292-.148.61-.237.937-.262l.348-.061zm2.228-.805v-.732h.568v-1.143h1.06v1.143h.666v.758h-.666v2.162a.515.515 0 00.061.313c.124.056.26.077.395.062h.21v.804h-.512a1.347 1.347 0 01-1.025-.266.791.791 0 01-.184-.564v-2.521l-.573-.016zm4.065-.799v2.465a1.26 1.26 0 00.082.512.578.578 0 00.574.313.755.755 0 00.747-.446c.082-.2.119-.415.108-.63v-2.229h1.08v4.099h-1.024v-.579l-.077.113a.743.743 0 01-.143.164 1.537 1.537 0 01-.512.307 1.645 1.645 0 01-.548.082 1.226 1.226 0 01-1.224-.651 2.535 2.535 0 01-.174-1.066v-2.464l1.111.01zm5.986-.087v1.096h-.322a.875.875 0 00-.866.421 1.6 1.6 0 00-.122.727v1.958h-1.06v-4.1h1.024v.713c.115-.207.26-.395.43-.559.224-.173.501-.262.783-.251h.133v-.005zm1.409 1.727h1.659a.945.945 0 00-.256-.646.796.796 0 00-.569-.22.709.709 0 00-.578.235c-.145.181-.234.4-.256.631zm2.427-.953c.162.256.269.544.312.845.031.269.041.539.031.81h-2.796a1.03 1.03 0 00.384.866c.152.101.33.154.512.153a.744.744 0 00.538-.189.782.782 0 00.2-.282h1.09a1.323 1.323 0 01-.333.763 1.851 1.851 0 01-1.469.6 2.101 2.101 0 01-1.378-.512 2.07 2.07 0 01-.479-.752 2.071 2.071 0 01-.115-.883 2.27 2.27 0 01.512-1.629 1.835 1.835 0 011.398-.569c.316-.005.629.06.917.189.276.13.51.334.676.59zm2.78.112v-.732h.569v-1.143h1.055v1.143h.665v.758h-.665v2.162a.51.51 0 00.066.313.733.733 0 00.389.062h.21v.804h-.512a1.36 1.36 0 01-1.024-.266.78.78 0 01-.179-.564v-2.521l-.574-.016zm5.782 1.256a1.537 1.537 0 00-.251-.948.952.952 0 00-.646-.331.938.938 0 00-.691.223.729.729 0 00-.107.108 1.919 1.919 0 000 1.896.94.94 0 001.013.288.954.954 0 00.431-.288c.185-.28.273-.613.251-.948zm-.968 2.177a1.893 1.893 0 01-1.572-.635 2.558 2.558 0 010-3.074 2.235 2.235 0 013.144 0 2.563 2.563 0 010 3.074 1.902 1.902 0 01-1.536.635h-.036zm6.892-3.387a.803.803 0 00-.804.554 2.31 2.31 0 00-.107.743 1.187 1.187 0 00.374.999.87.87 0 00.537.169.76.76 0 00.676-.343 1.815 1.815 0 000-1.758.758.758 0 00-.676-.364zm2.018 1.148a2.477 2.477 0 01-.487 1.65 1.597 1.597 0 01-1.254.564 1.34 1.34 0 01-.809-.241 1.682 1.682 0 01-.343-.395v2.132h-1.06v-5.703h1.024v.605c.1-.159.225-.3.368-.421.246-.182.545-.278.85-.271a1.586 1.586 0 011.209.512c.369.436.553.999.512 1.568h-.01zm1.551-.353h1.659a.94.94 0 00-.256-.646.797.797 0 00-.573-.22.705.705 0 00-.574.235c-.147.18-.236.399-.256.631zm2.428-.953c.162.256.267.544.307.845.035.268.047.539.036.81h-2.796a1.017 1.017 0 00.384.866c.151.101.33.154.512.153a.75.75 0 00.538-.189 1.03 1.03 0 00.199-.282h1.091a1.34 1.34 0 01-.333.763 1.85 1.85 0 01-1.469.6 2.095 2.095 0 01-1.378-.513 2.048 2.048 0 01-.599-1.634 2.256 2.256 0 01.543-1.63 1.838 1.838 0 011.393-.568c.317-.004.631.06.921.189.267.134.491.338.651.59zm3.425-.774v1.096h-.307a.871.871 0 00-.865.421 1.6 1.6 0 00-.123.727v1.958h-1.081v-4.1h1.024v.713c.116-.207.26-.395.431-.559.221-.174.497-.263.778-.251h.143v-.005zm3.068 1.558a1.004 1.004 0 00-.154-.416.657.657 0 00-.558-.245.741.741 0 00-.738.512 2.24 2.24 0 00-.107.758c-.008.247.028.494.107.728a.716.716 0 00.717.512.62.62 0 00.512-.2.972.972 0 00.195-.512h1.091a1.84 1.84 0 01-.354.928 1.707 1.707 0 01-1.49.696 1.727 1.727 0 01-1.449-.584 2.338 2.338 0 01-.466-1.537 2.404 2.404 0 01.512-1.64 1.798 1.798 0 011.419-.589c.446-.02.887.102 1.259.349a1.59 1.59 0 01.579 1.219l-1.075.021zm2.611.169h1.659a.94.94 0 00-.256-.646.776.776 0 00-.568-.22.704.704 0 00-.579.235c-.145.181-.234.4-.256.631zm2.427-.953c.163.256.269.544.313.845.03.269.041.539.03.81h-2.795a1.017 1.017 0 00.384.866.91.91 0 00.512.153.76.76 0 00.711-.471h1.091c-.041.281-.174.54-.379.738a1.861 1.861 0 01-1.469.599 2.089 2.089 0 01-1.378-.512 2.053 2.053 0 01-.594-1.635 2.265 2.265 0 01.512-1.629 1.835 1.835 0 011.398-.569c.316-.004.629.06.917.19.305.125.565.34.747.615zm4.793.65v2.757h-1.09v-2.49a1.195 1.195 0 00-.087-.512.603.603 0 00-.253-.247.604.604 0 00-.347-.066.74.74 0 00-.747.461 1.538 1.538 0 00-.108.625v2.214h-1.065v-4.099h1.024v.599c.104-.171.236-.323.389-.451.243-.173.537-.262.835-.251.37-.01.731.108 1.024.333a1.366 1.366 0 01.425 1.127zm.543-.538v-.732h.569v-1.143h1.059v1.143h.666v.758h-.666v2.162a.516.516 0 00.062.313c.123.056.26.077.394.062h.21v.804h-.512a1.342 1.342 0 01-1.024-.266.774.774 0 01-.184-.564v-2.521l-.574-.016zm5.233 1.317a1.591 1.591 0 01-.204.108 2.775 2.775 0 01-.282.072l-.241.046a1.48 1.48 0 00-.486.143.51.51 0 00-.246.456.492.492 0 00.154.395.564.564 0 00.368.123c.228 0 .451-.072.635-.205a.868.868 0 00.302-.738v-.4zm-.65-.512c.145-.016.287-.047.425-.092a.326.326 0 00.231-.308.364.364 0 00-.18-.343 1.027 1.027 0 00-.512-.098.664.664 0 00-.512.19.758.758 0 00-.153.374h-1.025c.008-.318.113-.626.303-.881a1.725 1.725 0 011.454-.543c.413-.005.821.086 1.193.266a1.02 1.02 0 01.512 1.025v2.347c0 .099.021.197.061.287a.527.527 0 00.159.123v.158h-1.162a1.285 1.285 0 01-.067-.235 1.126 1.126 0 00-.03-.246c-.151.16-.323.298-.513.41a1.543 1.543 0 01-.783.2c-.334.01-.66-.103-.917-.318a1.143 1.143 0 01-.363-.902 1.16 1.16 0 01.584-1.091c.292-.148.61-.237.937-.262l.358-.061zm5.315.425a1.395 1.395 0 00-.245-.886.799.799 0 00-.661-.303.775.775 0 00-.773.513 1.873 1.873 0 00-.113.692c-.005.217.036.433.118.635a.792.792 0 00.783.512.796.796 0 00.63-.282 1.32 1.32 0 00.261-.881zm-.624-2.049c.271.121.493.33.629.594v-.589h1.025v3.884c.028.413-.065.826-.267 1.188-.302.462-.891.692-1.751.692a2.385 2.385 0 01-1.28-.307 1.152 1.152 0 01-.548-.917h1.162a.51.51 0 00.144.271.904.904 0 00.584.144.788.788 0 00.773-.385c.1-.266.143-.551.128-.835v-.261a1.24 1.24 0 01-.333.394 1.322 1.322 0 01-.83.241 1.54 1.54 0 01-1.254-.553 2.221 2.221 0 01-.471-1.496 2.567 2.567 0 01.45-1.538 1.541 1.541 0 011.291-.62c.188 0 .374.036.548.108v-.015zm3.446 1.66h1.664a.945.945 0 00-.256-.646.792.792 0 00-.573-.22.693.693 0 00-.574.235c-.149.179-.24.399-.261.631zm2.427-.953c.165.255.271.544.312.845.03.269.042.539.036.81h-2.801a1.027 1.027 0 00.389.866c.152.101.33.154.513.153a.76.76 0 00.512-.189.9.9 0 00.194-.282h1.091c-.044.28-.177.539-.379.738a1.856 1.856 0 01-1.47.599 2.044 2.044 0 01-1.372-.512 2.052 2.052 0 01-.599-1.635 2.265 2.265 0 01.512-1.629 1.826 1.826 0 011.398-.569c.316-.004.628.06.916.19.307.122.568.337.748.615zm6.007 1.368a1.537 1.537 0 00-.251-.948.952.952 0 00-.646-.331.938.938 0 00-.691.223.729.729 0 00-.107.108 1.919 1.919 0 000 1.896.94.94 0 001.013.288.954.954 0 00.431-.288c.185-.28.273-.613.251-.948zm-.968 2.177a1.893 1.893 0 01-1.572-.635 2.558 2.558 0 010-3.074 2.235 2.235 0 013.144 0 2.563 2.563 0 010 3.074 1.901 1.901 0 01-1.572.635zm4.772-5.702v.871h-.302a.31.31 0 00-.369.235.495.495 0 000 .077v.354h.702v.753h-.702v3.3h-1.065v-3.3h-.599v-.753h.589v-.267a1.37 1.37 0 01.22-.902c.154-.245.528-.368 1.122-.368h.409-.005zm3.841 1.47v2.465c-.009.174.019.349.082.512a.57.57 0 00.573.313.754.754 0 00.748-.446c.081-.2.118-.415.107-.63v-2.229h1.081v4.099h-1.024v-.579l-.077.113a.77.77 0 01-.143.164 1.532 1.532 0 01-.513.307 1.64 1.64 0 01-.547.082 1.224 1.224 0 01-1.224-.651 2.52 2.52 0 01-.174-1.066v-2.464l1.111.01zm4.455 2.788a.723.723 0 00.148.404.974.974 0 00.738.216c.176.009.351-.025.512-.098a.308.308 0 00.036-.553 6.073 6.073 0 00-1.112-.323 2.37 2.37 0 01-.978-.43.932.932 0 01-.286-.738 1.261 1.261 0 01.445-.974 1.79 1.79 0 011.25-.405c.436-.016.868.088 1.249.303a1.342 1.342 0 01.553 1.055h-1.07a.654.654 0 00-.118-.323.707.707 0 00-.273-.181c-.104-.039-.216-.052-.326-.039a.886.886 0 00-.512.108.335.335 0 00-.149.256.278.278 0 00.159.266c.361.133.733.232 1.111.298.354.065.684.222.958.456a1.018 1.018 0 01.317.768 1.239 1.239 0 01-.455.994 2.12 2.12 0 01-1.398.385 2.053 2.053 0 01-1.419-.41 1.33 1.33 0 01-.461-1.025l1.081-.01zm4.219-1.148h1.664a.94.94 0 00-.256-.646.797.797 0 00-.573-.22.713.713 0 00-.574.235 1.163 1.163 0 00-.261.631zm2.427-.953c.165.255.271.544.313.845.03.269.042.539.036.81h-2.801a1.033 1.033 0 00.389.866c.151.101.33.154.512.153a.717.717 0 00.512-.189.782.782 0 00.2-.282h1.09c-.043.28-.176.539-.379.738a1.861 1.861 0 01-1.469.599 2.043 2.043 0 01-1.372-.512 2.045 2.045 0 01-.6-1.635 2.275 2.275 0 01.512-1.629 1.835 1.835 0 011.398-.569c.316-.004.629.06.917.19.299.126.552.341.727.615h.015zm3.431-.774v1.096h-.307a.895.895 0 00-.87.421 1.6 1.6 0 00-.123.727v1.958h-1.096v-4.1h1.024v.713c.117-.207.263-.395.435-.559a1.18 1.18 0 01.779-.251h.158v-.005zm1.46 2.875a.713.713 0 00.143.404.974.974 0 00.737.216c.176.006.351-.027.513-.098a.314.314 0 00.185-.266.31.31 0 00-.15-.287 6.657 6.657 0 00-1.116-.323 2.403 2.403 0 01-.978-.43.932.932 0 01-.287-.738 1.278 1.278 0 01.446-.974c.35-.289.796-.433 1.249-.405.437-.016.869.088 1.25.303a1.342 1.342 0 01.553 1.055h-1.071a.56.56 0 00-.117-.323.71.71 0 00-.599-.22.885.885 0 00-.512.108.33.33 0 00-.149.256.27.27 0 00.039.157.27.27 0 00.12.109c.36.133.732.232 1.111.298.354.065.684.222.957.456a1.02 1.02 0 01.318.768 1.239 1.239 0 01-.456.994 2.688 2.688 0 01-2.816-.025 1.317 1.317 0 01-.344-.462 1.317 1.317 0 01-.117-.563l1.091-.01z" clip-rule="evenodd"/><path stroke="#35416B" stroke-linecap="round" stroke-linejoin="round" d="M475.199 107.149h80.784v10.084h-80.784v-10.084zm-.164 26.589h80.784v10.084h-80.784v-10.084z" clip-rule="evenodd"/><path fill="#35416B" fill-rule="evenodd" d="M478.574 169.98h14.773c2.371 0 4.291 2.373 4.291 5.299 0 2.925-1.92 5.298-4.291 5.298h-14.773c-2.366 0-4.286-2.373-4.286-5.298 0-2.926 1.935-5.299 4.286-5.299zm.599 36.796h14.773c2.366 0 4.286 2.373 4.286 5.298 0 2.926-1.92 5.299-4.286 5.299h-14.773c-2.371 0-4.291-2.373-4.291-5.299 0-2.925 1.92-5.298 4.291-5.298z" clip-rule="evenodd"/><path fill="#fff" fill-rule="evenodd" d="M487.335 175.442a4.708 4.708 0 01.665-2.645 4.7 4.7 0 017.183-1.058 4.697 4.697 0 011.398 2.342 4.696 4.696 0 01-4.33 5.83h-.225a4.61 4.61 0 01-4.691-4.469zm.594 36.791a4.706 4.706 0 012.687-4.475 4.7 4.7 0 015.161.772 4.708 4.708 0 011.399 2.341 4.708 4.708 0 01-1.763 4.914 4.688 4.688 0 01-2.568.916h-.236a4.613 4.613 0 01-4.68-4.468z" clip-rule="evenodd"/><path fill="#35416B" fill-rule="evenodd" d="M477.601 225.535h146.328a2.73 2.73 0 012.724 2.721 2.725 2.725 0 01-2.724 2.726H477.601a2.731 2.731 0 01-2.719-2.726 2.72 2.72 0 012.719-2.721z" clip-rule="evenodd"/><path fill="#F7A501" fill-rule="evenodd" d="M528.132 225.535h95.976a2.719 2.719 0 012.72 2.721 2.723 2.723 0 01-2.714 2.726h-95.982a2.73 2.73 0 01-2.72-2.726 2.721 2.721 0 012.72-2.721z" clip-rule="evenodd"/><path fill="#fff" fill-rule="evenodd" stroke="#35416B" stroke-linecap="round" stroke-linejoin="round" stroke-width="2.5" d="M523.968 228.271a2.763 2.763 0 013.274-2.739 2.763 2.763 0 01-.488 5.476h-.031a2.743 2.743 0 01-2.542-1.686 2.768 2.768 0 01-.213-1.051v0z" clip-rule="evenodd"/><path fill="#35416B" fill-rule="evenodd" d="M517.373 236.88h7.107l3.042-2.603 2.883 2.603h7.312v15.884h-20.344V236.88z" clip-rule="evenodd"/><path fill="#fff" fill-rule="evenodd" d="M521.5 245.857c-.009.185.026.37.103.538a.701.701 0 00.706.395.78.78 0 00.548-.216.803.803 0 00.236-.62.698.698 0 00-.101-.427.699.699 0 00-.334-.285 2.12 2.12 0 00-.779-.102v-.764c.247.01.493-.025.727-.102a.629.629 0 00.354-.636.75.75 0 00-.18-.512.685.685 0 00-.512-.195.643.643 0 00-.553.241 1.033 1.033 0 00-.174.641h-.993c.01-.262.056-.521.138-.769.096-.22.236-.419.41-.584.148-.132.323-.232.512-.292.228-.075.467-.11.706-.103.454-.021.9.123 1.255.405a1.329 1.329 0 01.476 1.076c.01.297-.092.586-.287.81a.935.935 0 01-.373.282.762.762 0 01.42.251 1.34 1.34 0 01.409 1.024 1.75 1.75 0 01-.476 1.215 1.82 1.82 0 01-1.413.512 1.721 1.721 0 01-1.603-.753 2.21 2.21 0 01-.261-1.05l1.039.02zm5.121.933a.608.608 0 00.62-.513 7.045 7.045 0 000-2.885.608.608 0 00-.62-.471.611.611 0 00-.63.471 6.844 6.844 0 000 2.885.624.624 0 00.63.513zm1.869-1.927a4.176 4.176 0 01-.42 2.05 1.81 1.81 0 01-2.263.535 1.8 1.8 0 01-.64-.535 5.329 5.329 0 010-4.146 1.814 1.814 0 011.917-.682 1.824 1.824 0 011.007.682c.319.651.464 1.373.419 2.096h-.02zm2.443-1.347a.59.59 0 00-.597-.593.594.594 0 100 1.185.603.603 0 00.552-.365.59.59 0 00.045-.227zm-.594 1.393a1.335 1.335 0 01-.984-.41 1.393 1.393 0 01-.405-.978 1.395 1.395 0 01.405-.979 1.387 1.387 0 011.87-.094 1.396 1.396 0 01-.886 2.472v-.011zm3.635.738a.584.584 0 00-.594.564v.031a.59.59 0 00.169.42.608.608 0 00.653.129.596.596 0 00.321-.779.581.581 0 00-.549-.365zm0 1.983a1.333 1.333 0 01-.983-.405 1.4 1.4 0 010-1.972 1.39 1.39 0 012.372.981c0 .368-.146.721-.406.981a1.402 1.402 0 01-.988.41l.005.005zm-.594-5.534h.569l-3.027 5.57h-.578l3.036-5.57z" clip-rule="evenodd"/><path fill="#35416B" fill-rule="evenodd" stroke="#35416B" stroke-linecap="round" stroke-linejoin="round" stroke-width="2.5" d="M483.838 262.931h121.36v33.306h-121.36v-33.306z" clip-rule="evenodd"/><path stroke="#F96132" stroke-linecap="round" stroke-linejoin="round" stroke-width="2.5" d="M495.779 274.419l95.025.082m-94.707 8.347l64.52.082"/></g><defs><pattern id="pattern0" width="1" height="1" patternContentUnits="objectBoundingBox"><use transform="scale(.00086 .00108)" xlink:href="#image0"/></pattern><pattern id="pattern1" width="1" height="1" patternContentUnits="objectBoundingBox"><use transform="scale(.00166 .00146)" xlink:href="#image1"/></pattern><pattern id="pattern2" width="1" height="1" patternContentUnits="objectBoundingBox"><use transform="scale(.00397 .00277)" xlink:href="#image2"/></pattern><clipPath id="clip0"><path fill="#fff" d="M0 0h663v475H0z"/></clipPath></defs></svg>