<svg xmlns="http://www.w3.org/2000/svg" width="316" height="292" fill="none" viewBox="0 0 316 292"><path fill="#F7A501" fill-rule="evenodd" d="M58.3452 25.197L262.522 2.61353C268.677 2.61353 315.312 30.191 315.312 36.3245V280.636C315.312 282.096 315.025 283.542 314.466 284.89C313.907 286.239 313.088 287.464 312.056 288.496C311.023 289.527 309.798 290.345 308.45 290.902C307.101 291.46 305.656 291.745 304.197 291.743H58.3452C52.1901 291.743 2.35913 267.826 2.35913 261.692L47.2198 36.3039C47.2198 34.8432 47.5078 33.3968 48.0672 32.0476C48.6266 30.6983 49.4465 29.4728 50.4799 28.4411C51.5134 27.4093 52.7401 26.5917 54.0897 26.0351C55.4394 25.4784 56.8854 25.1936 58.3452 25.197Z" clip-rule="evenodd"/><path fill="#F7A501" fill-rule="evenodd" stroke="#F96132" stroke-linecap="round" stroke-linejoin="round" stroke-width="2.5" d="M13.0998 1.25317H258.967C261.911 1.25317 264.734 2.42336 266.816 4.50632C268.897 6.58928 270.067 9.41438 270.067 12.3601V256.698C270.067 259.644 268.897 262.469 266.816 264.552C264.734 266.635 261.911 267.805 258.967 267.805H13.0998C11.6422 267.805 10.1988 267.518 8.85212 266.959C7.50544 266.401 6.28181 265.583 5.2511 264.552C4.22039 263.52 3.40281 262.296 2.845 260.948C2.28718 259.601 2.00003 258.156 2.00003 256.698V12.3858C1.99666 10.925 2.2813 9.47799 2.83761 8.12746C3.39391 6.77694 4.21098 5.54949 5.24202 4.51539C6.27307 3.48129 7.49781 2.66087 8.84618 2.10108C10.1945 1.5413 11.64 1.25317 13.0998 1.25317Z" clip-rule="evenodd"/><path fill="#fff" fill-rule="evenodd" d="M35.2429 21.3267H245.169C248.113 21.3267 250.936 22.4968 253.018 24.5798C255.099 26.6628 256.269 29.4879 256.269 32.4336V221.899C256.27 223.358 255.983 224.802 255.425 226.151C254.868 227.499 254.05 228.724 253.02 229.756C251.989 230.788 250.765 231.606 249.418 232.165C248.071 232.723 246.627 233.011 245.169 233.011H35.2429C33.7843 233.011 32.34 232.724 30.9924 232.166C29.6448 231.608 28.4203 230.79 27.389 229.758C26.3577 228.726 25.5397 227.5 24.9819 226.152C24.4241 224.803 24.1373 223.358 24.1379 221.899V32.4336C24.1379 30.9746 24.4252 29.5299 24.9833 28.182C25.5415 26.8341 26.3596 25.6094 27.3908 24.578C28.4221 23.5465 29.6463 22.7285 30.9935 22.1707C32.3408 21.6128 33.7848 21.326 35.2429 21.3267Z" clip-rule="evenodd"/><path fill="#F96132" fill-rule="evenodd" d="M28.5954 21.2498H81.7604V233.273H28.5954C24.1893 233.273 20.6143 228.243 20.6143 222.032V32.4902C20.6143 26.2848 24.1893 21.2498 28.5954 21.2498Z" clip-rule="evenodd"/><path fill="#F7A501" fill-rule="evenodd" d="M55.7654 38.8855V50.1208L66.7113 50.0387L66.8908 47.7598L63.7261 47.1952L60.0381 43.2431L55.7654 38.8855Z" clip-rule="evenodd"/><path fill="#fff" fill-rule="evenodd" d="M57.6272 47.0052C57.6352 46.8122 57.6997 46.6259 57.8127 46.4693C57.9257 46.3128 58.0822 46.1929 58.2627 46.1245C58.4432 46.0562 58.6398 46.0425 58.8281 46.085C59.0163 46.1275 59.1879 46.2245 59.3216 46.3638C59.4552 46.5031 59.5451 46.6786 59.5799 46.8686C59.6147 47.0586 59.5929 47.2545 59.5173 47.4322C59.4417 47.6099 59.3156 47.7615 59.1547 47.8681C58.9937 47.9746 58.805 48.0315 58.612 48.0317C58.3471 48.0211 58.0966 47.9083 57.913 47.7169C57.7294 47.5255 57.627 47.2705 57.6272 47.0052Z" clip-rule="evenodd"/><path fill="#F7A501" fill-rule="evenodd" d="M47.979 31.2993L48.0303 36.6988L54.5292 43.1248L54.5804 37.7715L47.979 31.2993Z" clip-rule="evenodd"/><path fill="#F7A501" fill-rule="evenodd" d="M47.9944 37.8333L48.0303 43.1866L54.6317 49.9205L54.5291 44.6853L47.9944 37.8333Z" clip-rule="evenodd"/><path fill="#F7A501" fill-rule="evenodd" d="M47.9277 44.8186L48.0098 50.0539L53.3904 50.136L47.9277 44.8186Z" clip-rule="evenodd"/><path fill="#F7A501" fill-rule="evenodd" d="M41.4083 31.1763L41.3621 36.663L47.9122 43.1506L47.9943 38.018L41.4083 31.1763Z" clip-rule="evenodd"/><path fill="#F7A501" fill-rule="evenodd" d="M41.3264 37.9719V43.3355L47.9484 50.0438V44.7059L41.3264 37.9719Z" clip-rule="evenodd"/><path fill="#F7A501" fill-rule="evenodd" d="M41.2957 44.7878V50.136L46.707 50.0898L41.2957 44.7878Z" clip-rule="evenodd"/><path fill="#F7A501" fill-rule="evenodd" d="M34.6685 31.3611V36.6887L41.3365 43.1763V37.9308L34.6685 31.3611Z" clip-rule="evenodd"/><path fill="#F7A501" fill-rule="evenodd" d="M34.7403 37.9719L41.2853 44.7418V50.1003L34.6018 43.1045L34.7403 37.9719Z" clip-rule="evenodd"/><path fill="#F7A501" fill-rule="evenodd" d="M34.5967 44.8804V50.0951H40.0747L34.5967 44.8804Z" clip-rule="evenodd"/><path fill="#F7A501" fill-rule="evenodd" d="M31.7293 65.9856C32.3047 65.9856 32.8566 66.2143 33.2635 66.6215C33.6704 67.0287 33.899 67.5809 33.899 68.1567V68.3877C33.899 68.9635 33.6704 69.5157 33.2635 69.9229C32.8566 70.33 32.3047 70.5587 31.7293 70.5587C31.1548 70.5574 30.6042 70.3281 30.1984 69.921C29.7926 69.514 29.5647 68.9626 29.5647 68.3877V68.1567C29.5647 67.5818 29.7926 67.0303 30.1984 66.6233C30.6042 66.2163 31.1548 65.987 31.7293 65.9856Z" clip-rule="evenodd"/><path fill="#F7A501" fill-rule="evenodd" d="M32.0781 86.6956C32.6536 86.6956 33.2054 86.9243 33.6123 87.3315C34.0192 87.7386 34.2478 88.2908 34.2478 88.8667V89.0925C34.2478 89.6683 34.0192 90.2205 33.6123 90.6277C33.2054 91.0348 32.6536 91.2636 32.0781 91.2636C31.5027 91.2636 30.9508 91.0348 30.5439 90.6277C30.137 90.2205 29.9084 89.6683 29.9084 89.0925V88.8667C29.9084 88.2908 30.137 87.7386 30.5439 87.3315C30.9508 86.9243 31.5027 86.6956 32.0781 86.6956Z" clip-rule="evenodd"/><path fill="#F7A501" fill-rule="evenodd" d="M31.8833 106.969C32.4587 106.969 33.0106 107.198 33.4175 107.605C33.8244 108.013 34.053 108.565 34.053 109.141V109.372C34.053 109.656 33.9968 109.938 33.8877 110.202C33.7786 110.465 33.6187 110.704 33.4172 110.905C33.2157 111.106 32.9764 111.266 32.7132 111.374C32.45 111.483 32.168 111.538 31.8833 111.538C31.3088 111.538 30.7577 111.309 30.3509 110.903C29.9442 110.497 29.715 109.946 29.7136 109.372V109.141C29.715 108.565 29.944 108.014 30.3506 107.607C30.7572 107.2 31.3083 106.971 31.8833 106.969Z" clip-rule="evenodd"/><path fill="#F7A501" fill-rule="evenodd" d="M31.9243 127.105C32.4998 127.105 33.0516 127.333 33.4585 127.741C33.8654 128.148 34.094 128.7 34.094 129.276V129.502C34.094 130.077 33.8654 130.63 33.4585 131.037C33.0516 131.444 32.4998 131.673 31.9243 131.673C31.3489 131.673 30.797 131.444 30.3902 131.037C29.9833 130.63 29.7546 130.077 29.7546 129.502V129.276C29.7546 128.7 29.9833 128.148 30.3902 127.741C30.797 127.333 31.3489 127.105 31.9243 127.105Z" clip-rule="evenodd"/><path fill="#F7A501" fill-rule="evenodd" d="M31.6216 147.45C32.197 147.45 32.7489 147.679 33.1558 148.086C33.5627 148.493 33.7913 149.046 33.7913 149.621V149.863C33.7913 150.148 33.7352 150.43 33.6261 150.693C33.5171 150.957 33.3573 151.196 33.1558 151.398C32.9543 151.599 32.7151 151.759 32.4519 151.868C32.1887 151.977 31.9065 152.034 31.6216 152.034C31.0466 152.032 30.4955 151.803 30.0889 151.396C29.6823 150.989 29.4533 150.438 29.4519 149.863V149.632C29.4512 149.346 29.5068 149.063 29.6155 148.798C29.7242 148.534 29.8838 148.294 30.0853 148.091C30.2868 147.889 30.5261 147.728 30.7897 147.618C31.0533 147.508 31.336 147.451 31.6216 147.45Z" clip-rule="evenodd"/><path fill="#F7A501" fill-rule="evenodd" d="M31.4267 168.242C32.0022 168.242 32.554 168.471 32.9609 168.878C33.3678 169.285 33.5964 169.838 33.5964 170.414V170.639C33.5964 171.215 33.3678 171.767 32.9609 172.175C32.554 172.582 32.0022 172.81 31.4267 172.81C30.8513 172.81 30.2995 172.582 29.8926 172.175C29.4857 171.767 29.2571 171.215 29.2571 170.639V170.393C29.2625 169.821 29.4935 169.274 29.8998 168.871C30.3061 168.468 30.8548 168.242 31.4267 168.242Z" clip-rule="evenodd"/><path fill="#F7A501" fill-rule="evenodd" d="M37.9872 66.6733H70.7121C71.0853 66.6733 71.4432 66.8213 71.7076 67.0849C71.972 67.3485 72.1213 67.7062 72.1226 68.0797C72.1226 68.454 71.974 68.813 71.7094 69.0777C71.4449 69.3424 71.0862 69.4911 70.7121 69.4911H37.9872C37.614 69.4898 37.2565 69.3405 36.9931 69.0759C36.7297 68.8114 36.5818 68.4531 36.5818 68.0797C36.5818 67.7067 36.7298 67.349 36.9934 67.0852C37.257 66.8215 37.6145 66.6733 37.9872 66.6733Z" clip-rule="evenodd"/><path fill="#F7A501" fill-rule="evenodd" d="M38.3153 87.3782H71.0453C71.4185 87.3795 71.776 87.5288 72.0394 87.7934C72.3029 88.0579 72.4507 88.4162 72.4507 88.7896C72.4507 89.1626 72.3027 89.5203 72.0391 89.7841C71.7756 90.0478 71.4181 90.196 71.0453 90.196H38.3153C37.9426 90.196 37.5851 90.0478 37.3215 89.7841C37.058 89.5203 36.9099 89.1626 36.9099 88.7896C36.9099 88.4162 37.0578 88.0579 37.3212 87.7934C37.5846 87.5288 37.9421 87.3795 38.3153 87.3782Z" clip-rule="evenodd"/><path fill="#F7A501" fill-rule="evenodd" d="M38.1256 107.657H70.8504C71.2236 107.657 71.5817 107.805 71.846 108.069C72.1104 108.332 72.2596 108.69 72.261 109.064C72.261 109.438 72.1124 109.797 71.8479 110.062C71.5833 110.326 71.2245 110.475 70.8504 110.475H38.1256C37.7515 110.475 37.3927 110.326 37.1282 110.062C36.8637 109.797 36.7151 109.438 36.7151 109.064C36.7164 108.69 36.8656 108.332 37.13 108.069C37.3944 107.805 37.7524 107.657 38.1256 107.657Z" clip-rule="evenodd"/><path fill="#F7A501" fill-rule="evenodd" d="M38.1667 127.792H70.8915C71.2656 127.792 71.6244 127.941 71.8889 128.206C72.1535 128.471 72.3021 128.83 72.3021 129.204C72.3021 129.389 72.2655 129.572 72.1946 129.743C72.1236 129.914 72.0197 130.07 71.8886 130.2C71.7576 130.331 71.602 130.434 71.4309 130.505C71.2598 130.575 71.0765 130.611 70.8915 130.61H38.1667C37.9817 130.611 37.7983 130.575 37.6272 130.505C37.4561 130.434 37.3006 130.331 37.1695 130.2C37.0385 130.07 36.9346 129.914 36.8636 129.743C36.7927 129.572 36.7561 129.389 36.7561 129.204C36.7561 128.83 36.9047 128.471 37.1692 128.206C37.4338 127.941 37.7926 127.792 38.1667 127.792Z" clip-rule="evenodd"/><path fill="#F7A501" fill-rule="evenodd" d="M37.8642 148.138H70.5891C70.9632 148.138 71.3219 148.287 71.5864 148.552C71.851 148.816 71.9996 149.175 71.9996 149.55C71.9983 149.923 71.849 150.281 71.5846 150.544C71.3202 150.808 70.9623 150.956 70.5891 150.956H37.8642C37.4914 150.956 37.1339 150.808 36.8704 150.544C36.6068 150.28 36.4587 149.923 36.4587 149.55C36.4581 149.365 36.4939 149.181 36.5643 149.01C36.6346 148.839 36.738 148.683 36.8686 148.552C36.9991 148.421 37.1543 148.317 37.3251 148.246C37.496 148.175 37.6792 148.138 37.8642 148.138Z" clip-rule="evenodd"/><path fill="#F7A501" fill-rule="evenodd" d="M37.6691 168.93H70.394C70.5789 168.93 70.7622 168.965 70.9333 169.036C71.1044 169.106 71.26 169.21 71.391 169.34C71.5221 169.471 71.626 169.626 71.697 169.797C71.7679 169.968 71.8045 170.151 71.8045 170.337C71.8045 170.711 71.6558 171.07 71.3913 171.335C71.1268 171.599 70.7681 171.748 70.394 171.748H37.6691C37.295 171.748 36.9362 171.599 36.6717 171.335C36.4071 171.07 36.2585 170.711 36.2585 170.337C36.2585 170.151 36.295 169.968 36.366 169.797C36.4369 169.626 36.5409 169.471 36.672 169.34C36.803 169.21 36.9586 169.106 37.1297 169.036C37.3008 168.965 37.4841 168.93 37.6691 168.93Z" clip-rule="evenodd"/><path fill="#F96132" fill-rule="evenodd" d="M92.2448 38.09H90.8188V40.2611H92.2602C92.5647 40.2795 92.8655 40.1865 93.1065 39.9993C93.2145 39.8891 93.2975 39.7568 93.3497 39.6115C93.4019 39.4662 93.4223 39.3114 93.4092 39.1575C93.4231 39.006 93.4032 38.8532 93.3508 38.7103C93.2985 38.5674 93.215 38.4379 93.1065 38.3312C92.8554 38.1543 92.5512 38.0691 92.2448 38.09ZM92.3576 41.5647H90.8188V44.2183H89.28V36.8068H92.4961C93.1374 36.7732 93.7688 36.9759 94.2709 37.3765C94.5051 37.6044 94.6859 37.8814 94.8003 38.1876C94.9147 38.4938 94.9599 38.8215 94.9326 39.1473C94.9683 39.4852 94.9274 39.8269 94.8128 40.1469C94.6982 40.4668 94.513 40.7567 94.2709 40.995C93.7197 41.4037 93.0424 41.6053 92.3576 41.5647Z" clip-rule="evenodd"/><path fill="#F96132" fill-rule="evenodd" d="M98.9744 41.5647C98.8891 41.6195 98.7979 41.6642 98.7025 41.6982C98.5797 41.7437 98.4525 41.7763 98.323 41.7957L98.0049 41.8573C97.7805 41.8872 97.5622 41.9531 97.3586 42.0523C97.2527 42.1128 97.1655 42.2013 97.1066 42.3081C97.0478 42.415 97.0196 42.5361 97.0252 42.658C97.0179 42.7536 97.0326 42.8495 97.0682 42.9385C97.1038 43.0275 97.1592 43.1071 97.2304 43.1713C97.3744 43.2891 97.5577 43.3478 97.7433 43.3355C98.0474 43.3385 98.3442 43.2431 98.5897 43.0635C98.732 42.9444 98.8433 42.7925 98.9139 42.6208C98.9845 42.4491 99.0122 42.2628 98.9949 42.078L98.9744 41.5647ZM98.1075 40.8975C98.3004 40.8798 98.4902 40.8366 98.6718 40.7692C98.7594 40.7431 98.8365 40.6897 98.8918 40.6168C98.9471 40.5439 98.9779 40.4552 98.9795 40.3637C98.9894 40.2727 98.9729 40.1807 98.9319 40.0988C98.891 40.0169 98.8274 39.9485 98.7487 39.9018C98.5334 39.8036 98.2975 39.7596 98.0614 39.7735C97.9313 39.7595 97.7998 39.7749 97.6764 39.8184C97.553 39.8619 97.441 39.9325 97.3484 40.025C97.234 40.1734 97.1646 40.3515 97.1483 40.5382H95.7686C95.7808 40.1151 95.9202 39.7055 96.1687 39.3629C96.415 39.1004 96.7187 38.8986 97.0559 38.773C97.3931 38.6475 97.7548 38.6017 98.1126 38.6392C98.6656 38.6279 99.213 38.7512 99.7078 38.9984C99.9425 39.1285 100.133 39.325 100.257 39.5634C100.38 39.8018 100.43 40.0713 100.4 40.338V42.8479C100.4 43.0224 100.4 43.2328 100.4 43.4792C100.398 43.6111 100.428 43.7415 100.487 43.859C100.542 43.9314 100.614 43.988 100.698 44.0233V44.2337H99.159C99.1202 44.1341 99.0909 44.031 99.0718 43.9257C99.0515 43.8155 99.0378 43.7041 99.0308 43.5921C98.8307 43.8068 98.601 43.9917 98.3486 44.1413C98.035 44.3158 97.6816 44.4059 97.3228 44.4031C96.8761 44.4199 96.4391 44.2699 96.0969 43.9822C95.9325 43.8303 95.804 43.6438 95.7206 43.436C95.6372 43.2283 95.601 43.0046 95.6147 42.7812C95.5922 42.4897 95.6531 42.1978 95.7902 41.9397C95.9274 41.6816 96.1351 41.4678 96.3892 41.3235C96.7806 41.1281 97.2051 41.008 97.6408 40.9694L98.1075 40.8975Z" clip-rule="evenodd"/><path fill="#F96132" fill-rule="evenodd" d="M101.108 39.799V38.7724H101.867V37.2327H103.283V38.7724H104.155V39.799H103.268V42.6835C103.248 42.829 103.277 42.9769 103.35 43.1044C103.51 43.1792 103.687 43.2077 103.863 43.1865H104.145V44.2541H103.468C103.225 44.2919 102.977 44.28 102.739 44.2191C102.501 44.1582 102.278 44.0496 102.083 43.8999C101.995 43.7964 101.928 43.6764 101.887 43.5469C101.845 43.4174 101.83 43.2809 101.842 43.1454V39.7836L101.108 39.799Z" clip-rule="evenodd"/><path fill="#F96132" fill-rule="evenodd" d="M109.694 39.3011C109.835 39.487 109.93 39.7032 109.971 39.9324C110.009 40.2818 110.024 40.6332 110.018 40.9846V44.1924H108.561V40.8716C108.571 40.6252 108.52 40.38 108.412 40.1582C108.338 40.0295 108.229 39.9251 108.097 39.8577C107.965 39.7902 107.816 39.7627 107.668 39.7784C107.506 39.7691 107.343 39.7987 107.194 39.8647C107.045 39.9308 106.914 40.0314 106.812 40.1582C106.598 40.4753 106.495 40.8543 106.519 41.236V44.1924H105.094V36.8323H106.519V39.4396C106.69 39.1539 106.939 38.9239 107.238 38.7775C107.506 38.6532 107.798 38.5884 108.094 38.5876C108.411 38.5842 108.725 38.6453 109.017 38.7673C109.288 38.8799 109.522 39.0645 109.694 39.3011Z" clip-rule="evenodd"/><path fill="#F96132" fill-rule="evenodd" d="M112.464 42.4473C112.471 42.6446 112.539 42.8349 112.659 42.9914C112.796 43.1009 112.953 43.1823 113.121 43.2307C113.289 43.2792 113.465 43.2938 113.639 43.2737C113.869 43.2835 114.099 43.2414 114.311 43.1505C114.385 43.1198 114.448 43.0677 114.491 43.0009C114.535 42.9341 114.558 42.8557 114.557 42.7758C114.56 42.702 114.542 42.6288 114.507 42.5639C114.472 42.4989 114.42 42.4445 114.357 42.4063C113.876 42.2173 113.378 42.073 112.87 41.9751C112.395 41.8888 111.947 41.6919 111.562 41.4003C111.431 41.2742 111.33 41.1212 111.264 40.9519C111.199 40.7826 111.171 40.6011 111.182 40.4199C111.181 40.1724 111.233 39.9276 111.336 39.7025C111.439 39.4773 111.589 39.2773 111.777 39.1163C112.244 38.7302 112.84 38.5357 113.444 38.5722C114.027 38.5481 114.606 38.6905 115.111 38.9828C115.338 39.1422 115.523 39.3535 115.651 39.599C115.78 39.8445 115.848 40.1172 115.85 40.3943H114.414C114.404 40.2366 114.348 40.0851 114.254 39.958C114.152 39.8512 114.027 39.7692 113.888 39.7185C113.75 39.6678 113.601 39.6496 113.454 39.6654C113.224 39.647 112.993 39.6989 112.793 39.8143C112.734 39.8495 112.684 39.899 112.649 39.9581C112.615 40.0173 112.595 40.0843 112.593 40.1531C112.589 40.2263 112.606 40.2991 112.644 40.3622C112.681 40.4252 112.737 40.4757 112.803 40.5072C113.287 40.6813 113.784 40.8135 114.29 40.9024C114.762 40.991 115.202 41.2015 115.568 41.5132C115.706 41.6453 115.814 41.8049 115.887 41.9818C115.959 42.1586 115.994 42.3487 115.988 42.5397C115.995 42.7914 115.944 43.0414 115.84 43.2707C115.736 43.5 115.582 43.7028 115.388 43.8639C114.817 44.2051 114.164 44.3827 113.499 44.3773C112.834 44.3719 112.183 44.1836 111.618 43.8331C111.42 43.6617 111.263 43.4485 111.157 43.2088C111.052 42.9692 111.001 42.7091 111.008 42.4473H112.464Z" clip-rule="evenodd"/><path fill="#F7A501" fill-rule="evenodd" d="M117.822 103.232V107.934C117.822 107.934 122.212 108.093 123.377 110.156C129.275 120.591 130.896 132.74 132.096 140.259C135.251 160.102 136.03 172.594 138.508 189.019C140.883 204.745 145.345 203.298 145.345 203.298L145.002 198.252C145.002 198.252 144.54 201.845 142.437 191.241C137.056 164.038 136.631 118.481 125.028 106.261C123.464 104.598 117.822 103.232 117.822 103.232Z" clip-rule="evenodd" opacity=".3"/><path fill="#F7A501" fill-rule="evenodd" d="M117.437 118.435H145.032L144.94 140.69L117.344 140.228L117.437 118.435Z" clip-rule="evenodd" opacity=".3"/><path fill="#F7A501" fill-rule="evenodd" d="M116.232 164.839L115.996 140.408C120.151 134.626 122.796 127.897 123.69 120.832C124.89 111.506 129.039 95.5283 132.732 89.1587C135.713 84.0261 145.469 75.5779 145.469 75.5779L144.73 105.691C144.73 105.691 140.488 108.365 138.062 117.696C135.636 127.027 136.154 139.72 132.009 150.031C127.393 161.647 116.232 164.839 116.232 164.839Z" clip-rule="evenodd" opacity=".3"/><path fill="#F7A501" fill-rule="evenodd" d="M117.139 163.571L116.837 178.769C116.837 178.769 121.966 176.454 124.531 173.98C130.214 168.473 133.435 165.614 138.123 160.302C141.011 157.037 145.412 157.186 145.412 157.186L145.263 144.355C145.263 144.355 138.349 147.773 135.184 150.001C131.132 152.824 128.162 156.966 125.515 159.871C121.412 164.31 117.139 163.571 117.139 163.571Z" clip-rule="evenodd" opacity=".3"/><path fill="#F7A501" fill-rule="evenodd" d="M144.91 163.325L145.074 169.956C145.074 169.956 141.514 168.565 137.38 171.835C134.502 174.114 130.029 180.801 127.172 182.418C124.315 184.035 117.427 184.358 117.427 184.358L117.37 178.158C117.37 178.158 120.607 179.133 125.541 176.618C128.906 174.889 130.671 168.442 136.128 166.322C141.298 164.295 144.91 163.325 144.91 163.325Z" clip-rule="evenodd" opacity=".3"/><path fill="#F7A501" fill-rule="evenodd" d="M145.771 175.946L145.986 178.856C145.986 178.856 143.422 178.964 138.764 181.176C134.107 183.388 130.214 187.633 126.454 187.879C120.935 188.244 116.837 188.08 116.837 188.08L117.483 184.307C117.483 184.307 118.965 184.728 126.162 184.358C127.357 184.297 132.927 180.016 137.641 177.886C142.355 175.756 145.771 175.946 145.771 175.946Z" clip-rule="evenodd" opacity=".3"/><path fill="#F7A501" fill-rule="evenodd" d="M146.289 184.574L145.874 187.484C145.874 187.484 143.586 186.724 138.903 188.937C134.22 191.149 131.476 191.883 126.003 192.473C120.53 193.063 117.001 191.287 117.001 191.287L117.345 187.546C120.004 188.779 122.951 189.259 125.864 188.932C130.994 188.454 133.045 187.766 137.769 185.636C142.494 183.506 146.289 184.574 146.289 184.574Z" clip-rule="evenodd" opacity=".3"/><path fill="#F7A501" fill-rule="evenodd" d="M146.915 191.801L146.289 194.644C146.289 194.644 141.283 193.803 137.913 195.614C135.071 197.154 125.931 197.344 125.931 197.344L116.585 196.513L117.068 191.108C117.068 191.108 120.658 193.905 127.87 193.536C129.065 193.474 132.363 194.347 137.103 192.217C141.842 190.087 146.915 191.801 146.915 191.801Z" clip-rule="evenodd" opacity=".3"/><path fill="#F7A501" fill-rule="evenodd" d="M145.981 199.294L145.874 202.887C145.874 202.887 142.796 200.762 137.287 201.64C133.825 202.194 128.778 202.482 125.033 201.989C121.83 201.56 118.706 200.673 115.754 199.356L117.139 195.958C117.139 195.958 119.355 197.344 125.515 198.386C126.695 198.581 131.994 198.463 137.149 198.037C140.15 197.773 143.172 198.203 145.981 199.294Z" clip-rule="evenodd" opacity=".3"/><path fill="#F7A501" fill-rule="evenodd" d="M146.361 207.994L145.669 211.253C142.66 209.66 139.443 208.494 136.113 207.789C133.671 207.275 128.183 206.567 124.408 206.819C122.859 206.959 121.299 206.73 119.855 206.152C118.411 205.574 117.124 204.663 116.098 203.493L116.586 198.36C117.557 199.656 118.795 200.729 120.216 201.506C121.637 202.282 123.208 202.745 124.823 202.861C126.018 202.954 133.148 202.913 136.595 203.693C140.268 204.529 146.361 207.994 146.361 207.994Z" clip-rule="evenodd" opacity=".3"/><path fill="#F7A501" fill-rule="evenodd" d="M147.058 214.718L146.366 217.972C143.357 216.379 140.141 215.213 136.81 214.507C134.369 213.994 128.88 213.286 125.105 213.537C123.556 213.679 121.996 213.451 120.551 212.873C119.107 212.295 117.82 211.383 116.796 210.211L117.309 205.079C118.28 206.375 119.518 207.449 120.939 208.226C122.36 209.003 123.931 209.467 125.546 209.585C126.741 209.673 133.871 209.631 137.344 210.417C140.96 211.253 147.058 214.718 147.058 214.718Z" clip-rule="evenodd" opacity=".3"/><path fill="#F7A501" fill-rule="evenodd" d="M147.756 76.7689L148.459 84.7962C148.459 84.7962 152.993 78.8219 156.948 81.8091C162.626 86.0999 161.621 97.1761 167.206 104.351C172.792 111.527 180.199 110.1 180.199 110.1L180.491 101.842C180.491 101.842 176.901 104.511 171.535 98.0897C166.17 91.6688 167.176 82.1016 161.877 76.0657C156.578 70.0297 147.756 76.7689 147.756 76.7689Z" clip-rule="evenodd" opacity=".3"/><path fill="#F7A501" fill-rule="evenodd" d="M148.526 119.01V139.346C148.526 139.346 160.026 140.613 164.683 130.651C169.34 120.689 170.14 115.494 171.351 108.955C172.89 100.712 180.753 96.8117 180.753 96.8117V76.0503C180.753 76.0503 171.705 78.9245 168.263 83.9545C161.641 93.6141 160.128 102.334 155.696 112.836C154.353 116.044 148.526 119.01 148.526 119.01Z" clip-rule="evenodd" opacity=".3"/><path fill="#F7A501" fill-rule="evenodd" d="M182.964 102.596L220.274 102.057L220.341 105.429L182.625 106.24L182.964 102.596Z" clip-rule="evenodd" opacity=".3"/><path fill="#F7A501" fill-rule="evenodd" d="M182.892 76.1477L220.166 75.7268L220.248 85.992L182.733 86.8184L182.892 76.1477Z" clip-rule="evenodd" opacity=".3"/><path fill="#F7A501" fill-rule="evenodd" d="M147.895 163.227L180.835 163.52L180.932 165.958L147.751 165.665L147.895 163.227Z" clip-rule="evenodd" opacity=".3"/><path fill="#F96132" fill-rule="evenodd" d="M148.525 83.4566L148.366 104.228C148.366 104.228 152.89 103.525 153.116 93.4087C153.362 82.3325 148.525 83.4566 148.525 83.4566Z" clip-rule="evenodd" opacity=".5"/><path fill="#F96132" fill-rule="evenodd" d="M148.315 165.568V170.141C148.315 170.141 150.526 170.141 150.429 167.642C150.311 165.234 148.315 165.568 148.315 165.568Z" clip-rule="evenodd" opacity=".5"/><path fill="#F7A501" fill-rule="evenodd" d="M89.2493 49.4946H155.417V54.5554H89.2493V49.4946Z" clip-rule="evenodd"/><path fill="#F7A501" fill-rule="evenodd" d="M89.3569 57.866H181.848V63.3322H89.3569V57.866Z" clip-rule="evenodd"/><path fill="#F96132" fill-rule="evenodd" d="M115.575 118.174C116.627 118.174 117.483 118.872 117.483 119.713V217.823C117.483 218.685 116.627 219.363 115.575 219.363C114.549 219.363 113.672 218.665 113.672 217.823V119.734C113.672 118.872 114.524 118.174 115.575 118.174Z" clip-rule="evenodd"/><path fill="#F96132" fill-rule="evenodd" d="M115.878 102.278C116.362 102.278 116.826 102.47 117.169 102.813C117.511 103.156 117.704 103.62 117.704 104.105V107.626C117.702 108.11 117.509 108.574 117.167 108.917C116.825 109.259 116.361 109.452 115.878 109.453C115.393 109.453 114.928 109.261 114.585 108.918C114.241 108.576 114.048 108.111 114.046 107.626V104.095C114.049 103.611 114.243 103.148 114.587 102.808C114.93 102.467 115.394 102.276 115.878 102.278Z" clip-rule="evenodd"/><path fill="#F96132" fill-rule="evenodd" d="M146.581 75.1212C146.839 75.1205 147.095 75.1708 147.333 75.269C147.571 75.3672 147.788 75.5115 147.97 75.6937C148.153 75.8758 148.298 76.0922 148.396 76.3304C148.495 76.5686 148.546 76.824 148.546 77.0819V103.92C148.546 104.178 148.495 104.434 148.396 104.672C148.298 104.91 148.153 105.126 147.97 105.308C147.788 105.491 147.571 105.635 147.333 105.733C147.095 105.831 146.839 105.882 146.581 105.881C146.062 105.881 145.563 105.674 145.196 105.307C144.829 104.939 144.622 104.44 144.622 103.92V77.0819C144.622 76.5619 144.829 76.0632 145.196 75.6955C145.563 75.3278 146.062 75.1212 146.581 75.1212Z" clip-rule="evenodd"/><path fill="#F96132" fill-rule="evenodd" d="M146.833 117.891C147.347 117.891 147.84 118.096 148.204 118.459C148.567 118.823 148.772 119.317 148.772 119.831V138.935C148.772 139.449 148.567 139.943 148.204 140.307C147.84 140.671 147.347 140.875 146.833 140.875C146.319 140.875 145.825 140.671 145.462 140.307C145.098 139.943 144.894 139.449 144.894 138.935V119.836C144.893 119.581 144.943 119.328 145.04 119.092C145.137 118.856 145.28 118.642 145.46 118.461C145.64 118.281 145.854 118.137 146.09 118.039C146.325 117.942 146.578 117.891 146.833 117.891Z" clip-rule="evenodd"/><path fill="#F96132" fill-rule="evenodd" d="M181.815 75.0443C182.069 75.0436 182.321 75.0932 182.556 75.1901C182.791 75.2871 183.005 75.4295 183.185 75.6093C183.365 75.789 183.508 76.0025 183.606 76.2376C183.703 76.4727 183.753 76.7248 183.753 76.9793V96.0726C183.753 96.5872 183.549 97.0806 183.186 97.4445C182.822 97.8083 182.329 98.0127 181.815 98.0127C181.3 98.0127 180.807 97.8083 180.444 97.4445C180.08 97.0806 179.876 96.5872 179.876 96.0726V76.9793C179.876 76.7248 179.926 76.4727 180.023 76.2376C180.121 76.0025 180.264 75.789 180.444 75.6093C180.624 75.4295 180.838 75.2871 181.073 75.1901C181.308 75.0932 181.56 75.0436 181.815 75.0443Z" clip-rule="evenodd"/><path fill="#F96132" fill-rule="evenodd" d="M146.843 143.313C147.338 143.313 147.813 143.51 148.163 143.86C148.514 144.211 148.71 144.686 148.71 145.181V156.386C148.71 156.881 148.514 157.357 148.163 157.707C147.813 158.057 147.338 158.254 146.843 158.254C146.348 158.254 145.873 158.057 145.523 157.707C145.173 157.357 144.976 156.881 144.976 156.386V145.197C144.974 144.95 145.021 144.706 145.114 144.477C145.207 144.249 145.344 144.041 145.518 143.866C145.691 143.691 145.898 143.552 146.125 143.457C146.353 143.362 146.597 143.313 146.843 143.313Z" clip-rule="evenodd"/><path fill="#F96132" fill-rule="evenodd" d="M220.315 74.9622C220.81 74.9622 221.285 75.159 221.635 75.5094C221.985 75.8597 222.182 76.3349 222.182 76.8304V88.0195C222.182 88.2646 222.134 88.5073 222.04 88.7337C221.946 88.9601 221.808 89.1657 221.635 89.3388C221.462 89.5118 221.256 89.649 221.029 89.7423C220.803 89.8356 220.56 89.8833 220.315 89.8826C220.07 89.8833 219.827 89.8356 219.601 89.7423C219.374 89.649 219.169 89.5118 218.995 89.3388C218.822 89.1657 218.684 88.9601 218.59 88.7337C218.496 88.5073 218.448 88.2646 218.448 88.0195V76.8304C218.448 76.3349 218.645 75.8597 218.995 75.5094C219.345 75.159 219.82 74.9622 220.315 74.9622Z" clip-rule="evenodd"/><path fill="#F96132" fill-rule="evenodd" d="M146.838 161.883C147.323 161.884 147.787 162.078 148.129 162.421C148.472 162.765 148.664 163.23 148.664 163.715V169.474C148.664 169.959 148.472 170.423 148.129 170.766C147.787 171.109 147.322 171.301 146.838 171.301C146.598 171.302 146.36 171.255 146.138 171.163C145.915 171.072 145.714 170.937 145.543 170.768C145.373 170.598 145.238 170.396 145.146 170.174C145.054 169.952 145.007 169.714 145.007 169.474V163.715C145.007 163.229 145.2 162.763 145.543 162.419C145.887 162.076 146.352 161.883 146.838 161.883Z" clip-rule="evenodd"/><path fill="#F96132" fill-rule="evenodd" d="M181.697 101.298C181.937 101.297 182.175 101.344 182.397 101.435C182.619 101.527 182.821 101.661 182.991 101.831C183.161 102.001 183.296 102.202 183.388 102.424C183.48 102.646 183.528 102.884 183.528 103.125V108.884C183.528 109.37 183.335 109.836 182.991 110.179C182.648 110.523 182.182 110.716 181.697 110.716C181.212 110.715 180.747 110.521 180.405 110.177C180.063 109.834 179.871 109.369 179.871 108.884V103.125C179.871 102.64 180.063 102.175 180.405 101.833C180.748 101.49 181.212 101.298 181.697 101.298Z" clip-rule="evenodd"/><path fill="#F96132" fill-rule="evenodd" d="M146.833 174.863C147.062 174.863 147.289 174.908 147.5 174.996C147.712 175.084 147.904 175.212 148.066 175.374C148.228 175.536 148.356 175.729 148.444 175.941C148.532 176.152 148.577 176.379 148.577 176.608V178.246C148.577 178.709 148.393 179.153 148.066 179.481C147.739 179.81 147.296 179.995 146.833 179.996C146.369 179.996 145.924 179.812 145.596 179.483C145.268 179.155 145.084 178.71 145.084 178.246V176.608C145.084 176.379 145.129 176.151 145.217 175.939C145.305 175.727 145.434 175.535 145.596 175.373C145.759 175.21 145.952 175.082 146.164 174.995C146.376 174.907 146.603 174.863 146.833 174.863Z" clip-rule="evenodd"/><path fill="#F96132" fill-rule="evenodd" d="M181.897 162.545C182.361 162.545 182.806 162.729 183.134 163.058C183.462 163.386 183.646 163.831 183.646 164.295V165.932C183.645 166.396 183.46 166.84 183.132 167.167C182.804 167.494 182.36 167.678 181.897 167.678C181.434 167.678 180.99 167.494 180.662 167.167C180.334 166.84 180.149 166.396 180.148 165.932V164.295C180.148 164.065 180.193 163.838 180.281 163.625C180.369 163.413 180.498 163.22 180.66 163.058C180.822 162.895 181.015 162.766 181.227 162.678C181.44 162.59 181.667 162.545 181.897 162.545Z" clip-rule="evenodd"/><path fill="#F96132" fill-rule="evenodd" d="M220.515 101.298C220.978 101.298 221.422 101.481 221.75 101.808C222.078 102.136 222.263 102.579 222.264 103.043V104.68C222.264 105.144 222.08 105.589 221.752 105.918C221.424 106.246 220.979 106.43 220.515 106.43C220.052 106.429 219.609 106.244 219.282 105.916C218.955 105.588 218.771 105.143 218.771 104.68V103.043C218.771 102.58 218.955 102.136 219.282 101.809C219.609 101.481 220.053 101.298 220.515 101.298Z" clip-rule="evenodd"/><path fill="#F96132" fill-rule="evenodd" d="M146.936 183.306C147.399 183.306 147.844 183.491 148.172 183.819C148.5 184.147 148.685 184.592 148.685 185.057V186.694C148.685 187.158 148.5 187.603 148.172 187.932C147.844 188.26 147.399 188.444 146.936 188.444C146.473 188.443 146.029 188.258 145.702 187.93C145.375 187.602 145.192 187.157 145.192 186.694V185.057C145.192 184.593 145.375 184.149 145.702 183.821C146.029 183.493 146.473 183.308 146.936 183.306Z" clip-rule="evenodd"/><path fill="#F96132" fill-rule="evenodd" d="M146.884 190.846C147.347 190.846 147.791 191.03 148.119 191.357C148.447 191.684 148.632 192.128 148.633 192.591V194.229C148.633 194.693 148.449 195.138 148.121 195.466C147.793 195.794 147.348 195.979 146.884 195.979C146.42 195.979 145.976 195.794 145.648 195.466C145.32 195.138 145.135 194.693 145.135 194.229V192.591C145.137 192.128 145.322 191.684 145.649 191.357C145.977 191.03 146.421 190.846 146.884 190.846Z" clip-rule="evenodd"/><path fill="#F96132" fill-rule="evenodd" d="M146.833 198.904C147.296 198.906 147.739 199.091 148.066 199.419C148.393 199.747 148.577 200.191 148.577 200.654V202.292C148.577 202.755 148.393 203.199 148.066 203.528C147.739 203.856 147.296 204.041 146.833 204.042C146.369 204.042 145.924 203.858 145.596 203.529C145.268 203.201 145.084 202.756 145.084 202.292V200.654C145.084 200.19 145.268 199.745 145.596 199.417C145.924 199.089 146.369 198.904 146.833 198.904Z" clip-rule="evenodd"/><path fill="#F96132" fill-rule="evenodd" d="M146.936 207.024C147.399 207.024 147.843 207.208 148.171 207.535C148.498 207.862 148.683 208.306 148.685 208.769V210.407C148.685 210.871 148.5 211.316 148.172 211.644C147.844 211.972 147.399 212.157 146.936 212.157C146.473 212.155 146.029 211.97 145.702 211.642C145.375 211.314 145.192 210.87 145.192 210.407V208.769C145.192 208.54 145.237 208.313 145.324 208.101C145.412 207.89 145.54 207.697 145.702 207.535C145.864 207.373 146.057 207.245 146.268 207.157C146.48 207.069 146.707 207.024 146.936 207.024Z" clip-rule="evenodd"/><path fill="#F96132" fill-rule="evenodd" d="M146.936 214.502C147.399 214.502 147.844 214.687 148.172 215.015C148.5 215.343 148.685 215.788 148.685 216.252V217.89C148.685 218.354 148.5 218.799 148.172 219.127C147.844 219.456 147.399 219.64 146.936 219.64C146.473 219.639 146.029 219.454 145.702 219.126C145.375 218.797 145.192 218.353 145.192 217.89V216.252C145.192 215.789 145.375 215.345 145.702 215.017C146.029 214.689 146.473 214.504 146.936 214.502Z" clip-rule="evenodd"/></svg>