<svg xmlns:xlink="http://www.w3.org/1999/xlink" fill="none" viewBox="0 0 434 469"><path fill="#35416B" fill-rule="evenodd" d="M46.523 19.065H387.68a23.74 23.74 0 0116.814 6.985 23.888 23.888 0 016.964 16.865v343.362a23.908 23.908 0 01-1.804 9.134 23.867 23.867 0 01-5.153 7.745 23.79 23.79 0 01-7.716 5.177 23.719 23.719 0 01-9.105 1.819H46.524c-3.126 0-6.22-.617-9.107-1.817a23.768 23.768 0 01-7.718-5.177 23.854 23.854 0 01-5.155-7.746 23.916 23.916 0 01-1.805-9.135V42.915a23.893 23.893 0 016.969-16.865 23.748 23.748 0 0116.816-6.985z" clip-rule="evenodd"/><path fill="#35416B" fill-rule="evenodd" stroke="#fff" stroke-linecap="round" stroke-linejoin="round" d="M113.41 320.013h81.028c9.504 0 24.71 18.347 24.71 29.062l-7.521 68.945c0 10.715-7.723 19.37-17.17 19.37l-77.949 14.153c-9.503 0-20.192-22.878-20.192-33.561v-78.586c-.082-10.702 7.61-19.383 17.094-19.383z" clip-rule="evenodd"/><path fill="#F96132" fill-rule="evenodd" stroke="#35416B" stroke-linecap="round" stroke-linejoin="round" stroke-width="2" d="M122.211 333.759h81.059c9.504 0 17.164 8.719 17.164 19.459v78.891c0 10.753-7.723 19.465-17.164 19.465h-81.059c-9.504 0-17.17-8.719-17.17-19.465v-78.891c.006-10.753 7.666-19.459 17.17-19.459z" clip-rule="evenodd"/><path fill="#35416B" fill-rule="evenodd" stroke="#fff" stroke-linecap="round" stroke-linejoin="round" d="M131.081 343.609h63.522a14.347 14.347 0 0110.159 4.233 14.4 14.4 0 013.111 4.681 14.464 14.464 0 011.087 5.519v54.761c0 3.82-1.512 7.484-4.204 10.187a14.345 14.345 0 01-10.153 4.226h-63.522a14.332 14.332 0 01-10.159-4.222 14.39 14.39 0 01-3.113-4.676 14.452 14.452 0 01-1.091-5.515v-54.761a14.447 14.447 0 014.203-10.198 14.356 14.356 0 0110.16-4.235z" clip-rule="evenodd"/><path stroke="#F96132" stroke-linecap="round" stroke-linejoin="round" d="M127.21 356.675l40.333.197m-40.828 13.053l27.117.699m-27.414 12.361l54.145.203m-54.304 14.254h14.167m-13.825 12.946l40.752.718"/><path fill="#35416B" fill-rule="evenodd" stroke="#fff" stroke-linecap="round" stroke-linejoin="round" d="M256.529 322.822h81.098c9.503 0 24.709 18.347 24.709 29.062l-7.552 68.945c0 10.702-7.723 19.37-17.17 19.37l-78.025 14.178c-9.504 0-20.192-22.878-20.192-33.56v-78.612c-.038-10.702 7.628-19.383 17.132-19.383z" clip-rule="evenodd"/><path fill="#F96132" fill-rule="evenodd" stroke="#35416B" stroke-linecap="round" stroke-linejoin="round" stroke-width="2" d="M265.336 336.568h81.059c9.504 0 17.17 8.719 17.17 19.453v78.916c0 10.746-7.723 19.465-17.17 19.465h-81.059c-9.504 0-17.17-8.719-17.17-19.465v-78.916c0-10.747 7.685-19.453 17.17-19.453z" clip-rule="evenodd"/><path fill="#35416B" fill-rule="evenodd" stroke="#fff" stroke-linecap="round" stroke-linejoin="round" stroke-width="2" d="M305.637 282.805h-79.514v-77.03h-8.876v77.03h-63.763v46.969h8.889v-37.437h134.61v37.437h8.882v-46.969h-.228z" clip-rule="evenodd"/><path fill="#35416B" fill-rule="evenodd" stroke="#fff" stroke-linecap="round" stroke-linejoin="round" d="M274.231 346.418h63.491a14.346 14.346 0 0110.166 4.215 14.408 14.408 0 013.119 4.676 14.455 14.455 0 011.097 5.516v54.761a14.443 14.443 0 01-4.208 10.188A14.361 14.361 0 01337.741 430h-63.51a14.353 14.353 0 01-10.153-4.226 14.437 14.437 0 01-4.204-10.188v-54.742a14.429 14.429 0 014.198-10.197 14.344 14.344 0 0110.159-4.229z" clip-rule="evenodd"/><path stroke="#F96132" stroke-linecap="round" stroke-linejoin="round" d="M270.328 359.522l40.34.204m-40.834 13.008l27.13.693"/><path fill="#fff" fill-rule="evenodd" stroke="#fff" stroke-linecap="round" stroke-linejoin="round" stroke-width="2.5" d="M81.269 196.325l23.981 15.888 246.657-28.407s-11.404-21.01-43.653-33.904c-15.383-6.171-36.589 11.973-36.589 11.973s13.514-15.322 8.186-25.001c-9.542-17.317-32.591-37.831-64.999-38.511-59.119-1.271-69.529 50.745-69.529 50.745s-20.451-12.59-38.014-3.178c-34.055 18.245-26.04 50.395-26.04 50.395z" clip-rule="evenodd"/><path fill="url(#pattern0)" d="M67.235 77.665h322.617v170.009H67.235z"/><path stroke="#F96132" stroke-linecap="round" stroke-linejoin="round" d="M269.549 385.794l54.133.191m-54.298 14.222h14.154m-13.818 12.977l40.752.718"/><defs><pattern id="pattern0" width="1" height="1" patternContentUnits="objectBoundingBox"><use transform="scale(.003 .00568)" xlink:href="#image0"/></pattern></defs></svg>