<svg xmlns:xlink="http://www.w3.org/1999/xlink" fill="none" viewBox="0 0 1315 455"><g clip-path="url(#clip0)"><path fill="#fff" d="M0 0h1315v455H0z"/><path fill="#35416B" fill-rule="evenodd" d="M71.05 60.094l291.036-31.119c8.52 0 64.66 37.997 64.66 46.48v337.914a15.368 15.368 0 01-4.497 10.866 15.358 15.358 0 01-10.867 4.501H71.05c-8.485 0-69.36-32.836-69.36-41.319L55.685 75.455a15.359 15.359 0 0115.365-15.36z" clip-rule="evenodd"/><path fill="url(#pattern0)" d="M416.196 0h479.251v455H416.196z"/><path fill="#F7A501" fill-rule="evenodd" d="M958.416 61.123l282.624-31.232c8.52 0 73.07 38.139 73.07 46.621v337.879c0 2.019-.4 4.018-1.17 5.883a15.305 15.305 0 01-3.34 4.986 15.21 15.21 0 01-4.99 3.328 15.3 15.3 0 01-5.88 1.163H958.416c-8.52 0-77.496-33.078-77.496-41.56l62.096-311.707a15.364 15.364 0 0115.4-15.36z" clip-rule="evenodd"/><path fill="#35416B" fill-rule="evenodd" stroke="#F7A501" stroke-linecap="round" stroke-linejoin="round" stroke-width="2.5" d="M16.252 26.974h340.303a15.367 15.367 0 0115.372 15.36v337.879a15.348 15.348 0 01-4.488 10.891 15.356 15.356 0 01-10.884 4.512H16.252A15.36 15.36 0 01.888 380.255V42.377a15.358 15.358 0 019.474-14.23 15.367 15.367 0 015.89-1.173z" clip-rule="evenodd"/><path fill="#F96132" fill-rule="evenodd" stroke="#35416B" stroke-linecap="round" stroke-linejoin="round" stroke-width="2.5" d="M458.199 26.455h340.332a15.369 15.369 0 0114.201 9.481 15.35 15.35 0 011.171 5.88v337.942a15.35 15.35 0 01-4.503 10.864 15.37 15.37 0 01-10.869 4.497H458.199a15.363 15.363 0 01-15.364-15.361V41.88a15.353 15.353 0 014.477-10.903 15.364 15.364 0 0110.887-4.522z" clip-rule="evenodd"/><path fill="#F7A501" fill-rule="evenodd" stroke="#F96132" stroke-linecap="round" stroke-linejoin="round" stroke-width="2.5" d="M895.787 28.01h340.333a15.362 15.362 0 0115.36 15.36v337.914a15.366 15.366 0 01-15.36 15.361H895.787a15.366 15.366 0 01-14.195-9.482 15.361 15.361 0 01-1.169-5.879V43.406a15.352 15.352 0 014.487-10.884 15.367 15.367 0 0110.877-4.512z" clip-rule="evenodd"/><path fill="#fff" fill-rule="evenodd" d="M42.444 56.573h290.582a15.369 15.369 0 0114.201 9.481 15.35 15.35 0 011.171 5.88V333.96a15.35 15.35 0 01-4.503 10.864 15.37 15.37 0 01-10.869 4.497H42.444a15.368 15.368 0 01-10.842-4.512 15.357 15.357 0 01-4.487-10.849V71.934a15.359 15.359 0 0115.329-15.36zm440.399-9.362h290.582a15.36 15.36 0 0115.365 15.36v262.026a15.362 15.362 0 01-15.365 15.361H482.843a15.363 15.363 0 01-15.364-15.361V62.571a15.36 15.36 0 0115.364-15.36zm443.595 8.56h290.582c4.07 0 7.98 1.619 10.86 4.5a15.32 15.32 0 014.5 10.86v262.027c.01 2.018-.39 4.016-1.16 5.88a15.435 15.435 0 01-3.33 4.986 15.373 15.373 0 01-10.87 4.502H926.438a15.37 15.37 0 01-14.204-9.486 15.36 15.36 0 01-1.168-5.882V71.132a15.368 15.368 0 014.503-10.864 15.358 15.358 0 0110.869-4.497z" clip-rule="evenodd"/><path fill="#F7A501" fill-rule="evenodd" d="M34.925 56.623h73.599v292.613H34.925c-6.106 0-11.055-6.95-11.055-15.51V72.133c.007-8.568 4.956-15.51 11.055-15.51z" clip-rule="evenodd"/><path fill="#35416B" fill-rule="evenodd" d="M477.859 47.026h73.592V339.66h-73.592c-6.099 0-11.048-6.949-11.048-15.517V62.536c0-8.589 4.949-15.51 11.048-15.51z" clip-rule="evenodd"/><path fill="#F96132" fill-rule="evenodd" d="M917.236 55.665h73.592v293.223h-73.592c-6.099 0-11.048-6.957-11.048-15.545V71.21c0-8.582 4.949-15.545 11.048-15.545z" clip-rule="evenodd"/><path fill="#35416B" fill-rule="evenodd" d="M69.609 79.55v15.538l15.15-.106.25-3.159-4.381-.78-5.105-5.466-5.914-6.027z" clip-rule="evenodd"/><path fill="#fff" fill-rule="evenodd" d="M72.193 90.78a1.363 1.363 0 111.356 1.42 1.377 1.377 0 01-1.356-1.42z" clip-rule="evenodd"/><path fill="#35416B" fill-rule="evenodd" d="M58.83 69.073l.072 7.468 9.002 8.887.064-7.397-9.137-8.958zm.03 9.008l.042 7.404 9.137 9.32-.135-7.24-9.045-9.484zm-.093 9.675l.113 7.24 7.448.114-7.561-7.354zM49.743 68.89l-.071 7.588 9.066 8.972.121-7.098-9.116-9.462z" clip-rule="evenodd"/><path fill="#35416B" fill-rule="evenodd" d="M49.63 78.258v7.425l9.158 9.27V87.58l-9.159-9.32zm-.05 9.456v7.403l7.49-.064-7.49-7.34z" clip-rule="evenodd"/><path fill="#35416B" fill-rule="evenodd" d="M40.406 69.144v7.375l9.23 8.966v-7.248l-9.23-9.093zm.107 9.114l9.052 9.37v7.41l-9.251-9.688.199-7.091zm-.206 9.583v7.212h7.583l-7.583-7.212z" clip-rule="evenodd"/><path fill="#F96132" fill-rule="evenodd" d="M515.376 70.933v15.538l15.151-.106.256-3.152-4.381-.788-5.112-5.465-5.914-6.027z" clip-rule="evenodd"/><path fill="#fff" fill-rule="evenodd" d="M517.96 82.163a1.367 1.367 0 01.881-1.219 1.365 1.365 0 011.823 1.034 1.363 1.363 0 01-1.348 1.604 1.382 1.382 0 01-1.266-.884 1.377 1.377 0 01-.09-.535z" clip-rule="evenodd"/><path fill="#F96132" fill-rule="evenodd" d="M504.598 60.456l.071 7.474 9.003 8.88.071-7.396-9.145-8.958zm.028 9.022l.043 7.404 9.137 9.32-.134-7.24-9.046-9.484zm-.092 9.66l.113 7.241 7.448.12-7.561-7.36zm-9.024-18.86l-.071 7.581 9.074 8.973.113-7.098-9.116-9.455z" clip-rule="evenodd"/><path fill="#F96132" fill-rule="evenodd" d="M495.396 69.641v7.425l9.159 9.27v-7.375l-9.159-9.32zm-.05 9.455V86.5l7.498-.071-7.498-7.333z" clip-rule="evenodd"/><path fill="#F96132" fill-rule="evenodd" d="M486.173 60.527v7.375l9.23 8.965V69.62l-9.23-9.093zm.107 9.114l9.059 9.37v7.41l-9.23-9.689.171-7.09zm-.206 9.583v7.212h7.583l-7.583-7.212z" clip-rule="evenodd"/><path fill="#F7A501" fill-rule="evenodd" d="M954.845 80.054v15.539l15.151-.114.249-3.152-4.381-.78-5.105-5.466-5.914-6.027z" clip-rule="evenodd"/><path fill="#fff" fill-rule="evenodd" d="M957.422 91.284a1.365 1.365 0 012.346-.887 1.361 1.361 0 01-.231 2.08 1.364 1.364 0 01-.752.227 1.42 1.42 0 01-1.363-1.42z" clip-rule="evenodd"/><path fill="#F7A501" fill-rule="evenodd" d="M944.067 69.563l.071 7.468 8.996 8.887.071-7.404-9.138-8.95zm.021 9.036l.05 7.404 9.138 9.313-.142-7.24-9.046-9.477zm-.092 9.661l.114 7.24 7.448.114-7.562-7.354zm-9.024-18.867l-.064 7.588 9.067 8.972.113-7.098-9.116-9.462z" clip-rule="evenodd"/><path fill="#F7A501" fill-rule="evenodd" d="M934.858 78.79v7.419l9.166 9.277v-7.382l-9.166-9.313zm-.042 9.427v7.397l7.49-.064-7.49-7.333z" clip-rule="evenodd"/><path fill="#F7A501" fill-rule="evenodd" d="M925.643 69.648v7.368l9.23 8.973v-7.255l-9.23-9.086zm.099 9.143l9.06 9.362v7.411l-9.252-9.675.192-7.098zm-.199 9.554v7.212h7.583l-7.583-7.212z" clip-rule="evenodd"/><path fill="#35416B" fill-rule="evenodd" d="M152.317 140.88h21.889v143.953h-21.889V140.88z" clip-rule="evenodd"/><path fill="#F7A501" fill-rule="evenodd" d="M178.019 141.256h19.78a3.706 3.706 0 013.706 3.705v19.932a3.697 3.697 0 01-2.288 3.423 3.687 3.687 0 01-1.418.282h-19.78a3.706 3.706 0 01-3.707-3.705v-19.911a3.718 3.718 0 011.078-2.633 3.695 3.695 0 012.629-1.093zm0 55.487h19.78a3.706 3.706 0 013.706 3.705v19.911a3.711 3.711 0 01-3.706 3.713h-19.78a3.716 3.716 0 01-3.707-3.713v-19.911a3.707 3.707 0 013.707-3.705zm56.906 1.924h19.781a3.716 3.716 0 013.706 3.712v19.875a3.711 3.711 0 01-3.706 3.713h-19.781a3.713 3.713 0 01-3.713-3.713v-19.875a3.713 3.713 0 013.713-3.712z" clip-rule="evenodd"/><path fill="#F7C455" fill-rule="evenodd" d="M292.89 141.142h19.78a3.712 3.712 0 013.706 3.713v19.875a3.71 3.71 0 01-3.706 3.712h-19.78a3.712 3.712 0 01-3.707-3.712v-19.875a3.712 3.712 0 013.707-3.713z" clip-rule="evenodd"/><path fill="#F7E09F" fill-rule="evenodd" d="M262.878 141.504h19.781a3.697 3.697 0 012.623 1.088 3.71 3.71 0 011.083 2.625v19.91a3.707 3.707 0 01-3.706 3.706h-19.781a3.706 3.706 0 01-3.706-3.706v-19.91a3.711 3.711 0 013.706-3.713z" clip-rule="evenodd"/><path fill="#F7C455" fill-rule="evenodd" d="M262.878 169.393h19.781a3.707 3.707 0 013.706 3.706v19.91a3.718 3.718 0 01-1.083 2.625 3.71 3.71 0 01-2.623 1.088h-19.781a3.714 3.714 0 01-3.706-3.713v-19.91a3.706 3.706 0 013.706-3.706z" clip-rule="evenodd"/><path fill="#F7E09F" fill-rule="evenodd" d="M235.685 171.395h19.773a3.703 3.703 0 012.626 1.088 3.71 3.71 0 011.088 2.625v19.91a3.714 3.714 0 01-3.714 3.706h-19.773a3.715 3.715 0 01-3.713-3.706v-19.91a3.712 3.712 0 013.713-3.713z" clip-rule="evenodd"/><path fill="#F7C455" fill-rule="evenodd" d="M207.072 141.966h19.78a3.714 3.714 0 013.714 3.712v19.911a3.711 3.711 0 01-3.714 3.705h-19.78a3.706 3.706 0 01-3.706-3.705v-19.946a3.708 3.708 0 013.706-3.677zm-28.407 84.079h19.78a3.706 3.706 0 013.706 3.705v19.911a3.699 3.699 0 01-1.083 2.625 3.716 3.716 0 01-2.623 1.087h-19.78a3.712 3.712 0 01-3.707-3.712V229.75a3.707 3.707 0 013.707-3.705zm57.02-84.264h19.773a3.715 3.715 0 013.714 3.705v19.904a3.707 3.707 0 01-1.088 2.625 3.715 3.715 0 01-2.626 1.087h-19.773a3.712 3.712 0 01-3.713-3.712v-19.875a3.711 3.711 0 013.713-3.734z" clip-rule="evenodd"/><path fill="#F7E09F" fill-rule="evenodd" d="M206.795 226.045h19.773a3.715 3.715 0 013.714 3.705v19.911a3.71 3.71 0 01-3.714 3.712h-19.773a3.713 3.713 0 01-3.713-3.712V229.75a3.711 3.711 0 013.713-3.705z" clip-rule="evenodd"/><path fill="#F1AA04" fill-rule="evenodd" d="M206.369 170.217h19.773a3.714 3.714 0 013.714 3.712v19.911a3.711 3.711 0 01-3.714 3.705h-19.773a3.711 3.711 0 01-3.713-3.705v-19.932a3.71 3.71 0 013.713-3.691zm-28.294 83.192h19.781a3.706 3.706 0 013.706 3.705v19.911a3.706 3.706 0 01-3.706 3.705h-19.781a3.713 3.713 0 01-3.713-3.705v-19.939a3.708 3.708 0 013.713-3.677z" clip-rule="evenodd"/><path stroke="#35416B" stroke-linecap="round" stroke-linejoin="round" d="M119.742 112.565h195.101a3.761 3.761 0 013.805 3.712v177.457a3.758 3.758 0 01-2.364 3.439 3.76 3.76 0 01-1.441.266H119.742a3.759 3.759 0 01-3.813-3.705V116.277a3.755 3.755 0 012.369-3.445c.459-.183.95-.274 1.444-.267v0z" clip-rule="evenodd"/><path fill="#35416B" fill-rule="evenodd" d="M36.515 123.049a3.004 3.004 0 013.004 3.002v.298a3.005 3.005 0 01-4.155 2.776 2.993 2.993 0 01-1.63-1.625 3.006 3.006 0 01-.23-1.151v-.319a3.003 3.003 0 013.011-2.981zm.483 28.641a3.004 3.004 0 013.004 3.003v.312a3 3 0 01-3.004 3.003 3.005 3.005 0 01-3.003-3.003v-.312a3.002 3.002 0 013.003-3.003zm-.27 28.039a3.001 3.001 0 013.004 3.002v.32a3.004 3.004 0 01-3.004 3.002 3.01 3.01 0 01-3.003-3.002v-.32a3.01 3.01 0 013.003-3.002zm.057 27.846a3.004 3.004 0 013.004 3.003v.312a3.002 3.002 0 01-6.007 0v-.312a3 3 0 013.003-3.003zm-.44 28.138a3.004 3.004 0 013.003 3.002v.32a3.003 3.003 0 01-3.003 3.016 3.005 3.005 0 01-3.003-3.002v-.32a3.01 3.01 0 013.003-3.016zm-.248 28.755a3.001 3.001 0 013.003 3.002v.313a3.002 3.002 0 01-6.007 0v-.313a3.004 3.004 0 013.003-3.002zM45.157 124h45.297a1.955 1.955 0 011.953 1.945 1.95 1.95 0 01-1.953 1.952H45.156a1.953 1.953 0 01-1.797-2.696 1.938 1.938 0 011.053-1.053 1.94 1.94 0 01.744-.148zm.475 28.613h45.305a1.953 1.953 0 011.945 1.952 1.942 1.942 0 01-1.945 1.945H45.632a1.945 1.945 0 01-1.946-1.945 1.953 1.953 0 011.946-1.952zm-.263 28.067h45.298a1.95 1.95 0 011.953 1.945 1.952 1.952 0 01-1.953 1.952H45.37a1.956 1.956 0 01-1.924-1.952 1.952 1.952 0 011.924-1.945zm.057 27.839h45.298a1.953 1.953 0 011.952 1.952 1.952 1.952 0 01-1.952 1.945H45.426a1.952 1.952 0 01-1.83-2.698 1.942 1.942 0 011.074-1.058c.24-.097.497-.145.756-.141zm-.419 28.145h45.298a1.955 1.955 0 011.952 1.945 1.952 1.952 0 01-1.952 1.952H45.007a1.95 1.95 0 010-3.897zm-.27 28.748h45.298a1.953 1.953 0 011.953 1.952 1.954 1.954 0 01-1.953 1.945H44.737a1.955 1.955 0 01-1.952-1.945 1.95 1.95 0 011.952-1.952z" clip-rule="evenodd"/><path fill="#F96132" fill-rule="evenodd" d="M485.676 115.752a3.002 3.002 0 013.004 2.995v.32a3.011 3.011 0 01-3.004 3.002 3.003 3.003 0 01-3.003-3.002v-.32a2.996 2.996 0 013.003-2.995zm.476 28.634a3 3 0 013.003 3.003v.312a3.003 3.003 0 11-6.006 0v-.312a3 3 0 013.003-3.003zm-.27 28.046a2.998 2.998 0 013.003 2.995v.32a3.003 3.003 0 01-3.003 3.002 3.01 3.01 0 01-3.003-3.002v-.32a3 3 0 013.003-2.995zm.057 27.839a3.005 3.005 0 013.003 3.003v.319a2.995 2.995 0 01-3.003 2.995 3.005 3.005 0 01-3.003-2.995v-.319a3.01 3.01 0 013.003-3.003zm-.412 28.145a3.003 3.003 0 013.003 3.002v.312a3.005 3.005 0 01-3.003 3.003 3.005 3.005 0 01-3.003-3.003v-.326a3.005 3.005 0 013.003-2.988zm-.27 28.748a3 3 0 012.121.88 2.994 2.994 0 01.876 2.122v.341c0 .393-.078.783-.229 1.146a2.982 2.982 0 01-1.621 1.621 2.99 2.99 0 01-1.147.228 2.995 2.995 0 01-3.031-2.995v-.319a2.992 2.992 0 01.882-2.147 3 3 0 012.149-.877zm9.039-140.468h45.305a1.945 1.945 0 011.376 3.323c-.365.365-.86.572-1.376.574h-45.305a1.955 1.955 0 01-1.946-1.952 1.946 1.946 0 011.946-1.945zm.497 28.641h45.298a1.944 1.944 0 011.945 1.945 1.953 1.953 0 01-.567 1.38 1.95 1.95 0 01-1.378.572h-45.298a1.953 1.953 0 01-1.953-1.952 1.951 1.951 0 011.953-1.945zm-.27 28.038h45.298a1.95 1.95 0 011.381 3.326 1.954 1.954 0 01-1.381.571h-45.298a1.946 1.946 0 01-1.376-3.327c.365-.365.86-.57 1.376-.57zm.057 27.847h45.298a1.954 1.954 0 011.952 1.945 1.95 1.95 0 01-1.952 1.973H494.58a1.946 1.946 0 01-1.946-1.952 1.946 1.946 0 011.946-1.966zm-.419 28.138h45.305a1.954 1.954 0 011.945 1.952 1.944 1.944 0 01-1.945 1.945h-45.305a1.946 1.946 0 01-1.376-3.323 1.95 1.95 0 011.376-.574zm-.27 28.755h45.298a1.954 1.954 0 011.953 1.945 1.951 1.951 0 01-1.953 1.952h-45.298a1.952 1.952 0 01-1.945-1.952 1.945 1.945 0 011.945-1.945z" clip-rule="evenodd"/><path fill="#F7A501" fill-rule="evenodd" d="M921.574 117.533a3.004 3.004 0 013.004 3.003v.319a3.002 3.002 0 01-5.123 2.121 3.002 3.002 0 01-.877-2.121v-.319a3.002 3.002 0 012.996-3.003zm.483 28.642a3.005 3.005 0 013.003 3.003v.312a3.003 3.003 0 11-6.006 0v-.312a3.003 3.003 0 013.003-3.003zm-.27 28.038a3 3 0 013.003 3.003v.319a2.995 2.995 0 01-3.003 2.996 3.006 3.006 0 01-3.003-2.996v-.319a3.008 3.008 0 013.003-3.003zm.057 27.847a3.005 3.005 0 013.003 3.002v.313a3.003 3.003 0 11-6.006 0v-.313a3.003 3.003 0 013.003-3.002zm-.419 28.137a3.004 3.004 0 013.003 3.003v.333a3.005 3.005 0 01-1.854 2.775c-.364.15-.754.228-1.149.228a3.01 3.01 0 01-3.003-3.003v-.319a3.013 3.013 0 011.852-2.785 3.01 3.01 0 011.151-.232zm-.27 28.755a3.004 3.004 0 013.004 3.003v.312a3.002 3.002 0 01-5.127 2.123 2.998 2.998 0 01-.88-2.123v-.34a3.003 3.003 0 013.003-2.975zm9.081-140.467h45.298a1.95 1.95 0 011.381 3.325 1.954 1.954 0 01-1.381.572h-45.298a1.955 1.955 0 01-1.945-1.952 1.946 1.946 0 011.945-1.945zm.455 28.634h45.305a1.954 1.954 0 011.945 1.952 1.942 1.942 0 01-1.945 1.945h-45.305a1.946 1.946 0 01-1.376-3.323 1.95 1.95 0 011.376-.574zm-.263 28.045h45.298a1.95 1.95 0 011.381 3.326 1.954 1.954 0 01-1.381.571h-45.298a1.953 1.953 0 01-1.953-1.952 1.951 1.951 0 011.953-1.945zm.057 27.847h45.298a1.955 1.955 0 011.952 1.952 1.946 1.946 0 01-1.205 1.799 1.953 1.953 0 01-.747.146h-45.298a1.953 1.953 0 01-1.38-.567 1.942 1.942 0 01-.573-1.378 1.951 1.951 0 011.953-1.952zm-.419 28.137h45.298a1.951 1.951 0 011.952 1.952 1.95 1.95 0 01-1.952 1.945h-45.298a1.946 1.946 0 01-1.8-2.691 1.946 1.946 0 011.8-1.206zm-.27 28.756h45.298a1.953 1.953 0 011.38.567 1.931 1.931 0 01.573 1.378 1.953 1.953 0 01-1.953 1.952h-45.298a1.955 1.955 0 01-1.952-1.952 1.946 1.946 0 011.205-1.799c.237-.097.491-.147.747-.146zM131.485 79.359v2.747h2.421c.368.019.735-.04 1.079-.17a1.132 1.132 0 00.639-1.15 1.268 1.268 0 00-.617-1.25 2.324 2.324 0 00-1.037-.177h-2.485zm5.559-.802c.221.258.398.55.526.866.135.34.202.705.199 1.072a3.13 3.13 0 01-.37 1.42 2.127 2.127 0 01-1.214.993c.417.16.764.462.98.852.229.502.332 1.053.298 1.604v.71a5.6 5.6 0 00.05.951.87.87 0 00.391.582v.256h-2.351c-.063-.228-.113-.405-.142-.547a5.198 5.198 0 01-.085-.88v-.951a1.793 1.793 0 00-.362-1.3 1.867 1.867 0 00-1.285-.326h-2.194v4.004h-2.087V77.584h5.012a4.641 4.641 0 011.655.263c.374.159.707.401.972.71h.007zm3.834 4.706h3.075a1.733 1.733 0 00-.476-1.186 1.484 1.484 0 00-1.058-.404 1.32 1.32 0 00-1.065.433c-.273.328-.44.732-.476 1.157zm4.488-1.753c.305.471.501 1.004.575 1.561.057.497.078.998.064 1.498h-5.176a1.885 1.885 0 00.71 1.597c.289.193.632.292.98.284.363.016.719-.109.994-.348a1.65 1.65 0 00.369-.518h2.016a2.477 2.477 0 01-.71 1.363 3.41 3.41 0 01-2.698 1.072 3.813 3.813 0 01-2.549-.93 3.745 3.745 0 01-1.1-3.017 4.211 4.211 0 01.994-3.01 3.425 3.425 0 012.584-1.05 3.992 3.992 0 011.697.355c.518.252.952.649 1.25 1.143zm1.192.213v-1.42h1.051v-2.13h1.96v2.13h1.228v1.42h-1.228v3.989a.93.93 0 00.113.582c.223.1.468.14.71.114h.391v1.476h-.937a2.507 2.507 0 01-1.917-.49 1.415 1.415 0 01-.334-1.043V81.7l-1.037.022zm6.937 1.54h3.074a1.727 1.727 0 00-.475-1.186 1.486 1.486 0 00-1.058-.404 1.338 1.338 0 00-1.065.433c-.271.33-.437.732-.476 1.157zm4.487-1.753c.305.471.502 1.004.575 1.561.057.497.079.998.064 1.498h-5.126a1.886 1.886 0 00.71 1.597c.293.192.637.29.987.284.364.016.72-.109.994-.348a1.76 1.76 0 00.362-.518h2.017a2.517 2.517 0 01-.71 1.363 3.432 3.432 0 01-2.72 1.1 3.8 3.8 0 01-2.542-.93 3.717 3.717 0 01-1.107-3.017 4.216 4.216 0 01.994-3.01 3.426 3.426 0 012.584-1.05 3.94 3.94 0 011.697.355c.507.248.933.635 1.228 1.115h-.007zm8.826 1.2v5.089h-2.024v-4.593a2.126 2.126 0 00-.156-.916 1.126 1.126 0 00-1.115-.582 1.378 1.378 0 00-1.377.852 2.95 2.95 0 00-.192 1.15v4.089h-1.974V80.26h1.91v1.1c.189-.316.429-.6.71-.837.448-.32.99-.483 1.541-.462a2.907 2.907 0 011.917.618 2.487 2.487 0 01.76 2.03zm1.05-.987v-1.42h1.051v-2.13h1.96v2.13h1.228v1.42h-1.228v3.989a.93.93 0 00.113.582c.223.1.468.14.71.114h.391v1.476h-.937a2.507 2.507 0 01-1.917-.49 1.415 1.415 0 01-.334-1.043V81.7l-1.037.022zm7.534-2.378h-2.017V77.52h2.002l.015 1.825zm-2.017.901h2.002V87.8h-2.002v-7.553zm9.117 3.79a2.84 2.84 0 00-.462-1.753 1.581 1.581 0 00-1.328-.61 1.595 1.595 0 00-1.342.61 3.556 3.556 0 000 3.507 1.587 1.587 0 001.342.617 1.574 1.574 0 001.328-.617 2.841 2.841 0 00.462-1.754zm-1.79 4.025a3.552 3.552 0 01-2.904-1.178 4.727 4.727 0 010-5.679 4.142 4.142 0 015.815 0 4.722 4.722 0 010 5.679 3.545 3.545 0 01-2.911 1.178zm12.127-5.352v5.09h-2.023v-4.593a2.127 2.127 0 00-.157-.916 1.122 1.122 0 00-1.107-.582 1.376 1.376 0 00-1.385.852c-.14.367-.205.758-.191 1.15v4.09h-1.967v-7.54h1.903v1.1c.188-.316.428-.6.71-.837.448-.32.99-.482 1.54-.462a2.928 2.928 0 011.925.618 2.499 2.499 0 01.752 2.03z" clip-rule="evenodd"/><path fill="#35416B" fill-rule="evenodd" d="M568.789 65.127h7.242v1.796h-5.126v2.35h4.487v1.774h-4.487v4.259h-2.13l.014-10.18zm10.48 2.647v4.55c-.019.332.034.664.156.973a1.05 1.05 0 001.058.575 1.375 1.375 0 001.42-.817 2.82 2.82 0 00.198-1.17v-4.11h2.003v7.552h-1.924v-1.065l-.135.206a1.577 1.577 0 01-.263.305 2.73 2.73 0 01-.902.568c-.327.109-.67.161-1.015.156a2.272 2.272 0 01-2.258-1.206 4.59 4.59 0 01-.326-1.967v-4.55h1.988zm13.553 2.499v5.09h-2.023V70.77a2.126 2.126 0 00-.156-.916 1.123 1.123 0 00-1.108-.582 1.377 1.377 0 00-1.384.852 2.95 2.95 0 00-.192 1.15v4.088h-1.974V67.79h1.91v1.1c.188-.317.428-.6.71-.838.448-.32.99-.482 1.541-.461.692-.03 1.372.19 1.917.617a2.485 2.485 0 01.759 2.066zm8.684 0v5.09h-2.024V70.77a2.129 2.129 0 00-.163-.916 1.115 1.115 0 00-1.108-.582 1.378 1.378 0 00-1.377.852 2.95 2.95 0 00-.192 1.15v4.088h-1.974V67.79h1.91v1.1c.189-.317.429-.6.71-.838a2.52 2.52 0 011.548-.461c.692-.03 1.372.19 1.917.617a2.484 2.484 0 01.753 2.066zm3.259.518h3.074a1.733 1.733 0 00-.476-1.185 1.483 1.483 0 00-1.058-.405 1.34 1.34 0 00-1.065.426 2.124 2.124 0 00-.475 1.164zm4.487-1.753c.302.473.498 1.006.575 1.562.057.497.078.997.064 1.497h-5.176a1.885 1.885 0 00.71 1.597c.29.193.632.292.98.284a1.42 1.42 0 00.994-.347c.155-.148.281-.324.369-.519h2.016a2.47 2.47 0 01-.71 1.363 3.439 3.439 0 01-2.719 1.1 3.815 3.815 0 01-2.542-.93 3.745 3.745 0 01-1.1-3.017 4.196 4.196 0 01.994-3.009 3.378 3.378 0 012.584-1.05 3.992 3.992 0 011.697.354c.52.243.959.63 1.264 1.115zm3.983 6.289h-1.974V65.112h1.974v10.215zm3.472-2.413c.009.272.103.535.27.752a1.808 1.808 0 001.356.39c.319.014.637-.044.93-.17a.556.556 0 00.341-.518.58.58 0 00-.277-.511 11.722 11.722 0 00-2.059-.597 4.162 4.162 0 01-1.811-.794 1.71 1.71 0 01-.525-1.356 2.367 2.367 0 01.816-1.803 3.34 3.34 0 012.315-.753 4.265 4.265 0 012.308.568 2.454 2.454 0 011.022 1.952h-1.981a1.124 1.124 0 00-.213-.603 1.346 1.346 0 00-1.108-.405 1.555 1.555 0 00-.916.206.568.568 0 00-.205.758.504.504 0 00.22.2c.669.242 1.358.425 2.059.547a3.808 3.808 0 011.768.845 1.882 1.882 0 01.582 1.42 2.295 2.295 0 01-.838 1.83 5.006 5.006 0 01-5.211-.042 2.415 2.415 0 01-.852-1.916h2.009z" clip-rule="evenodd"/><path fill="#F96132" fill-rule="evenodd" d="M1005.34 78.954h-1.97v3.003h1.99c.42.025.84-.103 1.17-.362a1.455 1.455 0 00.42-1.164c.02-.21-.01-.421-.08-.619a1.396 1.396 0 00-.34-.524 1.84 1.84 0 00-1.19-.334zm.16 4.806h-2.13v3.67h-2.13V77.18h4.45a3.6 3.6 0 012.45.788 3.024 3.024 0 01.92 2.448 3.1 3.1 0 01-.17 1.383c-.15.442-.41.843-.75 1.173-.76.565-1.7.844-2.64.788zm9.16 0c-.12.075-.25.137-.38.184a2.67 2.67 0 01-.53.135l-.44.085c-.31.042-.61.133-.89.27a.906.906 0 00-.46.838c-.01.132.01.265.06.388a.85.85 0 00.22.322c.2.162.45.244.71.227.42.004.83-.128 1.17-.377a1.58 1.58 0 00.56-1.362l-.02-.71zm-1.2-.923c.26-.025.53-.084.78-.178.12-.036.22-.11.3-.21a.56.56 0 00.12-.35.66.66 0 00-.06-.367.69.69 0 00-.26-.272 2 2 0 00-.95-.177 1.2 1.2 0 00-.53.062c-.17.06-.33.157-.46.285a1.4 1.4 0 00-.27.71h-1.91a2.88 2.88 0 01.55-1.625 3.234 3.234 0 012.69-1c.77-.017 1.53.154 2.21.496.33.18.59.451.76.78.17.33.24.703.2 1.072v4.344c0 .183.04.363.12.526.08.1.18.178.29.227v.29h-2.13a3.062 3.062 0 01-.18-.886c-.27.296-.59.552-.94.76-.43.24-.92.365-1.42.361a2.508 2.508 0 01-1.7-.582 2.11 2.11 0 01-.52-.755 2.327 2.327 0 01-.15-.906 2.143 2.143 0 011.08-2.016 4.85 4.85 0 011.73-.49l.65-.099zm4.15-1.52v-1.419h1.05v-2.13h1.96v2.13h1.21v1.42h-1.23v3.99c-.03.2.01.405.11.581.22.104.47.143.71.114h.39v1.476h-.93a2.517 2.517 0 01-1.92-.49 1.333 1.333 0 01-.27-.488 1.494 1.494 0 01-.07-.555v-4.65l-1.01.022zm11.88-.688c.2.257.33.556.39.873.05.484.07.97.06 1.456v4.436h-2.01v-4.593c.01-.34-.06-.68-.21-.986-.1-.178-.25-.323-.44-.416a1.051 1.051 0 00-.59-.11 1.45 1.45 0 00-.66.12c-.2.091-.38.23-.53.406-.29.438-.43.963-.4 1.49v4.089h-1.97V77.215h1.97v3.606c.24-.395.58-.713.99-.916.38-.172.78-.261 1.19-.262.44-.005.87.08 1.28.248.37.156.7.411.93.738zm3.84 4.352c.01.272.1.535.27.752.19.151.4.264.64.331.23.067.47.087.71.06.32.013.64-.045.93-.171a.512.512 0 00.25-.207c.06-.092.1-.2.1-.311a.732.732 0 00-.07-.293.57.57 0 00-.21-.218c-.67-.262-1.36-.461-2.06-.597a4.231 4.231 0 01-1.81-.794 1.726 1.726 0 01-.41-.62 1.846 1.846 0 01-.12-.736c0-.343.07-.681.22-.993.14-.31.35-.587.61-.81a3.291 3.291 0 012.3-.753 4.27 4.27 0 012.31.568 2.372 2.372 0 011.02 1.952h-1.98a1.189 1.189 0 00-.22-.603 1.351 1.351 0 00-1.11-.405 1.6 1.6 0 00-.92.206.602.602 0 00-.2.2.623.623 0 00-.07.269.51.51 0 00.29.49c.67.24 1.36.423 2.06.546.65.122 1.26.414 1.76.845.19.182.35.403.45.648.1.244.14.507.14.771 0 .349-.07.694-.21 1.011a2.33 2.33 0 01-.62.82c-.79.473-1.7.718-2.62.71a5.004 5.004 0 01-2.6-.752 2.428 2.428 0 01-.64-.863 2.39 2.39 0 01-.21-1.053h2.02z" clip-rule="evenodd"/><path fill="#35416B" fill-rule="evenodd" stroke="#35416B" stroke-linecap="round" stroke-linejoin="round" d="M124.435 102.215h123.902v5.118H124.435v-5.118z" clip-rule="evenodd"/><path stroke="#35416B" stroke-linecap="round" stroke-linejoin="round" d="M230.402 112.934v184.342m29.089-184.328l-.71 184.172m28.862-184.492l-.71 184.797M152.196 112.529l-.121 184.463m21.79-184.406l-.149 184.612m28.159-184.605l-.142 184.463"/><path fill="#35416B" fill-rule="evenodd" d="M125.656 124.277a1.937 1.937 0 012.776.17c.165.224.263.49.284.767h-.852a1.177 1.177 0 00-.213-.447.869.869 0 00-.71-.263.846.846 0 00-.71.369c-.196.319-.29.691-.27 1.065-.028.368.073.734.284 1.036a.904.904 0 00.71.341.818.818 0 00.71-.298 1.22 1.22 0 00.22-.476h.845a1.876 1.876 0 01-.568 1.093 1.683 1.683 0 01-1.171.419 1.76 1.76 0 01-1.385-.568 2.653 2.653 0 01.071-3.208h-.021zm5.715 2.151c.018-.251-.047-.5-.184-.71a.706.706 0 00-.831-.181.703.703 0 00-.241.181 1.412 1.412 0 000 1.419.703.703 0 00.83.181.706.706 0 00.242-.181 1.16 1.16 0 00.184-.709zm-.71 1.611a1.425 1.425 0 01-1.164-.469 1.87 1.87 0 010-2.271 1.646 1.646 0 012.329 0 1.87 1.87 0 010 2.271 1.422 1.422 0 01-1.172.469h.007zm4.658-2.811a.825.825 0 01.149.348 3.86 3.86 0 010 .589v1.774h-.809v-1.838a.908.908 0 00-.078-.398.432.432 0 00-.412-.205.544.544 0 00-.476.205.987.987 0 00-.163.597v1.639h-.788v-4.074h.788v1.42a.95.95 0 01.397-.362c.149-.071.312-.107.476-.107.176-.004.35.03.511.1a.943.943 0 01.405.312zm2.989 1.2c.017-.251-.047-.5-.184-.71a.717.717 0 00-.533-.241.716.716 0 00-.532.241 1.366 1.366 0 000 1.419.703.703 0 00.824.178.717.717 0 00.241-.178 1.16 1.16 0 00.184-.709zm-.71 1.611a1.427 1.427 0 01-1.157-.469 1.87 1.87 0 010-2.271 1.638 1.638 0 012.322 0 1.877 1.877 0 010 2.271 1.422 1.422 0 01-1.172.469h.007zm3.827-3.194v.795h-.227a.661.661 0 00-.646.305 1.275 1.275 0 00-.092.539v1.42h-.796v-2.974h.76v.525a1.58 1.58 0 01.32-.412.82.82 0 01.575-.184h.106v-.014zm.178.66v-.575h.426v-.845h.816v.845h.49v.561h-.49v1.597a.413.413 0 00.043.234.568.568 0 00.291.042h.156v.59h-.376a1.056 1.056 0 01-.824-.185.592.592 0 01-.128-.419v-1.859l-.404.014zm13.078-1.612h.873v2.513c-.015.209.019.418.1.611a.822.822 0 00.674.345.83.83 0 00.675-.345c.077-.194.111-.402.099-.611v-2.513h.866v2.513c.018.35-.05.698-.199 1.015a1.906 1.906 0 01-1.441.661 1.903 1.903 0 01-1.441-.661 2.13 2.13 0 01-.206-1.015v-2.513zm4.657 3.117c.003.11.041.217.107.305a.722.722 0 00.54.156.812.812 0 00.376-.071.215.215 0 00.135-.206.237.237 0 00-.028-.119.232.232 0 00-.086-.087 5.114 5.114 0 00-.823-.234 1.725 1.725 0 01-.71-.319.7.7 0 01-.206-.547.942.942 0 01.326-.71c.259-.213.589-.319.923-.298a1.71 1.71 0 01.923.22.974.974 0 01.412.781h-.788a.498.498 0 00-.092-.241.534.534 0 00-.441-.157.618.618 0 00-.369.079.233.233 0 00-.079.304c.02.035.05.062.086.079.268.098.543.172.824.22.26.051.504.166.71.334a.75.75 0 01.227.574.904.904 0 01-.334.71 1.997 1.997 0 01-2.08 0 .996.996 0 01-.341-.773h.788zm3.117-.845h1.229a.713.713 0 00-.192-.476.594.594 0 00-.419-.163.54.54 0 00-.426.17.89.89 0 00-.192.469zm1.797-.71c.121.189.199.402.227.625.013.198.013.397 0 .596h-2.073a.74.74 0 00.291.639.637.637 0 00.39.113.56.56 0 00.398-.134.632.632 0 00.149-.213h.802c-.033.206-.13.397-.277.546a1.36 1.36 0 01-1.086.44 1.543 1.543 0 01-1.022-.369 1.504 1.504 0 01-.441-1.207c-.028-.438.115-.87.398-1.206a1.38 1.38 0 011.037-.419 1.64 1.64 0 01.71.142c.204.103.376.26.497.454v-.007zm2.534-.568v.809h-.227a.648.648 0 00-.639.313c-.072.17-.104.355-.092.539v1.42h-.795v-3.038h.752v.525c.081-.155.19-.295.32-.412a.85.85 0 01.575-.191h.106v.035zm1.08 2.123c.003.11.04.216.106.305a.713.713 0 00.547.156.769.769 0 00.369-.071.216.216 0 00.135-.206.237.237 0 00-.028-.119.232.232 0 00-.086-.087 4.798 4.798 0 00-.823-.234 1.652 1.652 0 01-.71-.319.706.706 0 01-.213-.547.942.942 0 01.326-.71c.262-.212.594-.319.93-.298.32-.015.638.061.916.22a.974.974 0 01.412.781h-.788a.498.498 0 00-.092-.241.534.534 0 00-.441-.157.633.633 0 00-.369.078.23.23 0 00-.106.192.194.194 0 00.027.113c.02.035.05.062.086.079.268.098.543.172.824.22.261.049.505.164.71.333a.768.768 0 01.234.575.93.93 0 01-.333.71 2.012 2.012 0 01-2.088 0 .996.996 0 01-.341-.773h.796zm14.739-1.129v2.002h.589a.642.642 0 00.632-.447c.07-.189.103-.389.1-.59a1.426 1.426 0 00-.149-.709.622.622 0 00-.583-.249l-.589-.007zm1.172-.468c.21.069.393.207.518.39.109.147.184.317.22.497.039.165.058.334.057.504.013.361-.071.718-.242 1.036a1.109 1.109 0 01-1.029.575h-1.321v-3.066h1.335c.149-.001.298.021.44.064h.022zm2.463 1.902l-.113.057a.765.765 0 01-.156.035h-.135a.973.973 0 00-.27.078.28.28 0 00-.135.256.27.27 0 00.018.119.288.288 0 00.067.101.31.31 0 00.199.064.596.596 0 00.355-.114.476.476 0 00.17-.405v-.191zm-.362-.277a.86.86 0 00.235-.057.175.175 0 00.127-.17.194.194 0 00-.099-.192.615.615 0 00-.284-.05.357.357 0 00-.291.107.413.413 0 00-.085.206h-.575a.874.874 0 01.17-.49.971.971 0 01.802-.298c.231-.004.46.047.668.149a.554.554 0 01.284.554v1.306a.259.259 0 00.035.156.304.304 0 00.085.071v.085h-.646c0-.05 0-.092-.035-.128a.842.842 0 010-.142 1.057 1.057 0 01-.284.227.814.814 0 01-.433.114.78.78 0 01-.512-.177.613.613 0 01-.198-.497.646.646 0 01.319-.604c.164-.084.342-.135.526-.149l.191-.021zm1.569 1.81h.242a.345.345 0 00.135-.05.284.284 0 00.092-.149c0-.071.05-.12.043-.135l-.838-2.37h.66l.497 1.675.469-1.675h.632l-.781 2.236c-.081.28-.201.547-.355.795a.675.675 0 01-.526.156h-.27v-.483zm4.388-.845a.341.341 0 00.348-.269c.059-.261.085-.528.078-.795a3.107 3.107 0 00-.078-.81.357.357 0 00-.126-.208.359.359 0 00-.458 0 .362.362 0 00-.126.208 2.762 2.762 0 00-.085.81c-.009.267.019.535.085.795a.34.34 0 00.362.269zm1.037-1.064c.023.396-.055.792-.227 1.149a1.03 1.03 0 01-.81.398 1.026 1.026 0 01-.809-.398 2.949 2.949 0 010-2.306 1.01 1.01 0 011.262-.3c.141.071.263.173.357.3.163.362.232.76.198 1.157h.029zm.426-.59v-.404c.131-.003.261-.015.39-.036a.547.547 0 00.291-.156.492.492 0 00.121-.22.49.49 0 000-.121h.497v3.017h-.611v-2.08h-.688z" clip-rule="evenodd"/><path fill="#fff" fill-rule="evenodd" d="M158.92 154.423v-.291a1.55 1.55 0 00.568-.128.707.707 0 00.241-.44h.291v2.967h-.398v-2.129l-.702.021zm3.095-.873a.898.898 0 01.838.476 2.2 2.2 0 01.199 1.008c.01.345-.053.688-.185 1.008a.881.881 0 01-.852.567.87.87 0 01-.802-.461 2.202 2.202 0 01-.213-1.051 2.629 2.629 0 01.128-.866.903.903 0 01.887-.681zm0 2.719a.535.535 0 00.469-.256c.14-.301.199-.634.17-.965a2.324 2.324 0 00-.128-.831.462.462 0 00-.482-.326.507.507 0 00-.483.305 2.218 2.218 0 00-.149.916c-.006.24.025.479.092.709a.532.532 0 00.511.448zm2.393-2.719a.898.898 0 01.838.476c.144.315.212.661.198 1.008.01.345-.052.688-.184 1.008a.893.893 0 01-.859.567.851.851 0 01-.795-.461 2.135 2.135 0 01-.221-1.051 2.448 2.448 0 01.135-.865.9.9 0 01.888-.682zm0 2.719a.524.524 0 00.461-.256c.147-.299.208-.633.178-.965a2.324 2.324 0 00-.128-.831.47.47 0 00-.483-.326.509.509 0 00-.483.305c-.118.29-.172.603-.156.916-.004.24.03.479.1.709a.529.529 0 00.504.448h.007zm4.118-1.186a.71.71 0 11-.01 1.421.71.71 0 01.01-1.421zm-.298-1.519h.227l-1.669 3.045h-.227l1.669-3.045zm-1.747 1.228a.392.392 0 00.305-.12.422.422 0 00.096-.471.422.422 0 00-.236-.231.426.426 0 00-.165-.029.394.394 0 00-.298.12.426.426 0 000 .611.394.394 0 00.298.12zm0-1.15a.71.71 0 11-.01 1.421.71.71 0 01.01-1.421zm2.045 2.591a.413.413 0 00.305-.127.42.42 0 00.121-.299.434.434 0 00-.121-.305.438.438 0 00-.449-.065.433.433 0 00-.261.37.395.395 0 00.128.299.41.41 0 00.277.127z" clip-rule="evenodd"/><path fill="#35416B" fill-rule="evenodd" d="M181.952 154.416v-.291c.195-.01.387-.053.568-.128a.654.654 0 00.234-.44h.298v2.967h-.397v-2.129l-.703.021zm2.073 2.108c.007-.233.06-.462.156-.674.128-.22.315-.4.54-.518l.405-.227c.135-.075.261-.166.376-.27a.52.52 0 00.17-.391.513.513 0 00-.154-.418.52.52 0 00-.421-.149.549.549 0 00-.532.291c-.06.136-.089.284-.085.433h-.384a1.345 1.345 0 01.142-.632.89.89 0 01.859-.433.944.944 0 01.753.277.915.915 0 01.172.944.88.88 0 01-.186.284 3.11 3.11 0 01-.526.355l-.284.156a2.426 2.426 0 00-.319.213.762.762 0 00-.263.404h1.626v.355h-2.045zm2.62-.454h.433v.454h-.433v-.454zm1.924.532a.95.95 0 01-.767-.291 1.08 1.08 0 01-.234-.71h.391c.001.147.037.29.106.419a.572.572 0 00.525.235.712.712 0 00.476-.157.517.517 0 00.178-.411.46.46 0 00-.185-.426.93.93 0 00-.525-.128h-.157v-.334h.185c.12.007.24-.018.348-.071a.411.411 0 00.234-.411.378.378 0 00-.044-.158.375.375 0 00-.105-.126.56.56 0 00-.369-.121.537.537 0 00-.518.249.812.812 0 00-.086.39h-.376a1.18 1.18 0 01.135-.568.846.846 0 01.809-.419 1.11 1.11 0 01.71.206.709.709 0 01.249.589.602.602 0 01-.383.611.635.635 0 01.362.248c.094.13.141.287.135.447a.917.917 0 01-.277.71 1.13 1.13 0 01-.817.227zm4.168-1.526a.71.71 0 11-.01 1.421.71.71 0 01.01-1.421zm-.298-1.519h.227l-1.662 3.045h-.234l1.669-3.045zm-1.747 1.228a.427.427 0 100-.852.435.435 0 00-.298.121.419.419 0 00-.095.14.415.415 0 000 .331.431.431 0 00.393.26zm0-1.15a.722.722 0 01.565.329.713.713 0 01.057.652.713.713 0 01-1.133.254.696.696 0 01-.217-.511.71.71 0 01.217-.511.713.713 0 01.511-.213zm2.045 2.591a.413.413 0 00.305-.128.402.402 0 00.128-.298.431.431 0 00-.495-.401.43.43 0 00-.215.096.413.413 0 00-.121.305.388.388 0 00.121.298.409.409 0 00.277.128zm18.176-1.881v-.312c.194-.008.384-.054.561-.135a.613.613 0 00.241-.44h.298v2.967h-.397v-2.13l-.703.05zm2.094 2.108c.008-.23.061-.457.157-.667a1.26 1.26 0 01.539-.518l.398-.234a1.64 1.64 0 00.376-.263.558.558 0 00.178-.398.577.577 0 00-.157-.411.59.59 0 00-.419-.156.54.54 0 00-.532.298.975.975 0 00-.085.426h-.384a1.37 1.37 0 01.142-.632.896.896 0 01.859-.433.938.938 0 01.753.277.925.925 0 01.169.949.834.834 0 01-.19.279 2.2 2.2 0 01-.519.355l-.284.163a1.544 1.544 0 00-.319.213.762.762 0 00-.263.397h1.626v.355h-2.045zm5.141-1.448a.715.715 0 01.686.578.715.715 0 01-.427.789.708.708 0 01-.859-.26.707.707 0 01.081-.894.723.723 0 01.519-.213zm-.305-1.519h.262l-1.668 3.045h-.228l1.634-3.045zm-1.74 1.257a.433.433 0 00.4-.596.413.413 0 00-.095-.136.43.43 0 00-.471-.095.43.43 0 00-.139.699.408.408 0 00.305.128zm0-1.157a.71.71 0 01.497 1.22.706.706 0 01-1.022 0 .713.713 0 01-.213-.511.708.708 0 01.71-.709h.028zm2.045 2.59a.41.41 0 00.298-.12.416.416 0 00.128-.305.395.395 0 00-.128-.299.415.415 0 00-.464-.095.405.405 0 00-.139.095.395.395 0 00-.128.299.416.416 0 00.128.305.406.406 0 00.305.106v.014zm22.72-.305a.493.493 0 00.241.433.506.506 0 00.256.057.567.567 0 00.454-.22c.17-.273.263-.587.27-.909a.627.627 0 01-.305.277.943.943 0 01-.398.085.903.903 0 01-.71-.269.994.994 0 01-.248-.71 1.07 1.07 0 01.248-.71.866.866 0 01.71-.312.904.904 0 01.902.589c.099.258.145.533.135.809.008.329-.047.657-.164.965a.94.94 0 01-.923.71.87.87 0 01-.66-.227.753.753 0 01-.227-.575l.419.007zm.568-.61a.627.627 0 00.405-.149.59.59 0 00.184-.511.664.664 0 00-.163-.49.574.574 0 00-.419-.156.55.55 0 00-.44.177.747.747 0 00-.164.497.712.712 0 00.142.461.571.571 0 00.455.171zm1.597.901h.441v.455h-.441v-.455zm3.046-2.498v.326c-.138.15-.264.312-.376.483a5.491 5.491 0 00-.426.745 5.29 5.29 0 00-.27.71 8.733 8.733 0 00-.156.667h-.419a5.517 5.517 0 011.228-2.555h-1.647v-.376h2.066zm3.046 1.483a.71.71 0 110 1.422.71.71 0 010-1.422zm-.298-1.519h.227l-1.661 3.045h-.235l1.669-3.045zm-1.74 1.228a.45.45 0 00.306-.12.45.45 0 000-.611.45.45 0 00-.306-.121.434.434 0 00-.305.121.424.424 0 00.305.731zm0-1.15a.713.713 0 01.693.573.71.71 0 11-.693-.573zm2.038 2.591a.41.41 0 00.305-.128.408.408 0 00.128-.298.433.433 0 00-.596-.401.402.402 0 00-.135.096.418.418 0 000 .603.402.402 0 00.298.128zm20.469-3.038a.808.808 0 01.711.256.86.86 0 01.198.532h-.369a.71.71 0 00-.106-.277.49.49 0 00-.412-.184.552.552 0 00-.288.078.555.555 0 00-.209.213 1.68 1.68 0 00-.206.83.793.793 0 01.326-.284.886.886 0 01.398-.085.984.984 0 01.653.241.895.895 0 01.277.71c-.001.26-.094.512-.262.71a.945.945 0 01-.753.312.961.961 0 01-.71-.319 1.54 1.54 0 01-.305-1.065c-.007-.32.041-.639.142-.944a.953.953 0 01.915-.724zm0 2.733a.506.506 0 00.441-.199c.1-.135.152-.3.149-.468a.837.837 0 00-.135-.44.52.52 0 00-.476-.206.629.629 0 00-.426.163.612.612 0 00-.177.483.703.703 0 00.163.475.584.584 0 00.433.192h.028zm1.484-.199h.434v.454h-.434v-.454zm2.067-2.534a.826.826 0 01.71.256.893.893 0 01.191.532h-.369a.725.725 0 00-.106-.277.465.465 0 00-.405-.184.573.573 0 00-.504.291 1.68 1.68 0 00-.206.83.828.828 0 01.724-.369.984.984 0 01.653.241.883.883 0 01.284.71 1.104 1.104 0 01-.27.71.916.916 0 01-.752.312.946.946 0 01-.71-.319 1.499 1.499 0 01-.305-1.065 2.85 2.85 0 01.134-.944.951.951 0 01.931-.724zm0 2.733a.512.512 0 00.44-.199c.1-.135.152-.3.149-.468a.782.782 0 00-.135-.44.511.511 0 00-.476-.206.62.62 0 00-.419.163.63.63 0 00-.184.483.703.703 0 00.163.475.584.584 0 00.433.192h.029zm4.025-1.193a.715.715 0 01.693.573.71.71 0 11-.693-.573zm-.298-1.519h.227l-1.668 3.046h-.227l1.668-3.046zm-1.747 1.235a.436.436 0 00.307-.126.436.436 0 00.094-.469.393.393 0 00-.095-.136.422.422 0 00-.306-.127.43.43 0 00-.393.26.429.429 0 00.231.565.412.412 0 00.162.033zm0-1.157a.713.713 0 01.693.573.708.708 0 01-1.285.535.707.707 0 01.081-.895.713.713 0 01.511-.213zm2.045 2.591a.438.438 0 00.371-.261.432.432 0 00-.065-.448.446.446 0 00-.611 0 .415.415 0 00-.095.139.415.415 0 000 .331c.022.053.054.1.095.14a.428.428 0 00.305.099zm20.221-2.718a.8.8 0 01.71.262.846.846 0 01.199.533h-.369a.627.627 0 00-.107-.277.47.47 0 00-.412-.192.574.574 0 00-.497.291 1.731 1.731 0 00-.206.831.707.707 0 01.327-.277.908.908 0 01.398-.085.981.981 0 01.653.234.91.91 0 01.277.71c.002.261-.091.513-.263.71a.919.919 0 01-.753.312.989.989 0 01-.71-.312 1.549 1.549 0 01-.305-1.072 2.85 2.85 0 01.142-.944.959.959 0 01.916-.724zm0 2.732a.504.504 0 00.44-.198.707.707 0 00.142-.469.805.805 0 00-.128-.433.523.523 0 00-.475-.206.618.618 0 00-.426.157.613.613 0 00-.178.482.712.712 0 00.164.476.579.579 0 00.44.191h.021zm1.491-.191h.433v.447h-.433v-.447zm2.066-2.541a.808.808 0 01.71.262.878.878 0 01.192.533h-.369a.627.627 0 00-.107-.277.449.449 0 00-.405-.192.585.585 0 00-.504.291 1.731 1.731 0 00-.206.831.806.806 0 01.327-.277.91.91 0 01.398-.085.971.971 0 01.653.234.909.909 0 01.284.71c0 .261-.096.514-.27.71a.906.906 0 01-.753.312.974.974 0 01-.71-.312 1.518 1.518 0 01-.305-1.072c-.008-.32.037-.639.135-.944a.955.955 0 01.93-.724zm0 2.732a.496.496 0 00.44-.198.71.71 0 00.149-.469.813.813 0 00-.127-.433.553.553 0 00-.483-.206.586.586 0 00-.604.639.712.712 0 00.164.476.578.578 0 00.433.191h.028zm4.026-1.185a.71.71 0 01.71.71.71.71 0 01-.213.518.715.715 0 01-.789.161.725.725 0 01-.234-.161.714.714 0 01.526-1.228zm-.305-1.519h.234l-1.669 3.045h-.227l1.662-3.045zm-1.74 1.228a.41.41 0 00.305-.128.402.402 0 00.128-.298.431.431 0 00-.595-.4.417.417 0 00-.136.095.418.418 0 000 .603.403.403 0 00.298.128zm0-1.15a.71.71 0 01.518.213c.096.101.16.227.184.364a.703.703 0 01-.308.718.713.713 0 01-.781 0 .713.713 0 01-.308-.718.704.704 0 01.184-.364.676.676 0 01.23-.17.68.68 0 01.281-.057v.014zm2.045 2.591a.413.413 0 00.305-.128.433.433 0 00-.305-.732.415.415 0 00-.166.034.415.415 0 00-.139.095.403.403 0 00-.128.298.433.433 0 00.433.433zm-123.739 26.434v-.284a1.53 1.53 0 00.568-.135.62.62 0 00.234-.433h.298v2.967h-.397v-2.129l-.703.014zm2.371 0v-.284a1.49 1.49 0 00.561-.135.633.633 0 00.242-.433h.326v2.967h-.405v-2.129l-.724.014zm2.322 1.661h.433v.454h-.433v-.454zm1.228-1.661v-.284c.197-.008.389-.054.568-.135a.61.61 0 00.235-.433h.326v2.967h-.397v-2.129l-.732.014zm4.864.667a.709.709 0 01.511.206.705.705 0 01.142.77.707.707 0 01-1.307 0 .706.706 0 01.377-.924.71.71 0 01.277-.052zm-.298-1.519h.227l-1.662 3.045h-.234l1.669-3.045zm-1.74 1.228a.431.431 0 00.305-.128.393.393 0 00.09-.137.434.434 0 00-.229-.561.431.431 0 00-.472.094.435.435 0 00-.095.469.392.392 0 00.096.135.413.413 0 00.305.128zm0-1.15a.71.71 0 11-.511 1.207.721.721 0 01-.161-.233.719.719 0 010-.556.721.721 0 01.161-.233.712.712 0 01.511-.185zm2.038 2.591a.413.413 0 00.305-.128.407.407 0 00.128-.298.433.433 0 00-.831-.165.388.388 0 00-.028.165.406.406 0 00.12.298.429.429 0 00.306.128zm19.979-.021a.467.467 0 00.235.426.575.575 0 00.717-.164c.169-.27.263-.582.269-.901a.748.748 0 01-.305.277 1.08 1.08 0 01-.397.078.876.876 0 01-.907-.599.95.95 0 01-.052-.381 1.127 1.127 0 01.241-.71.998.998 0 011.633.284c.099.256.145.529.135.802.005.332-.05.661-.163.973a.95.95 0 01-.923.71.923.923 0 01-.667-.227.802.802 0 01-.228-.575l.412.007zm.568-.611a.614.614 0 00.405-.149.63.63 0 00.184-.511.66.66 0 00-.163-.49.605.605 0 00-.426-.163.568.568 0 00-.433.185.707.707 0 00-.163.489.71.71 0 00.142.462.545.545 0 00.454.177zm1.598.873h.433v.455h-.433v-.455zm3.046-2.47v.327c-.141.15-.269.311-.384.482-.16.224-.3.462-.419.71-.11.229-.201.466-.269.71a7.829 7.829 0 00-.157.66h-.419a5.094 5.094 0 01.625-1.696c.172-.302.372-.587.597-.852h-1.64v-.376l2.066.035zm3.024 1.477a.71.71 0 11-.007 1.42.71.71 0 01.007-1.42zm-.298-1.519h.227l-1.661 3.045h-.234l1.668-3.045zm-1.725 1.228a.413.413 0 00.305-.128.418.418 0 000-.603.397.397 0 00-.305-.128.408.408 0 00-.298.128.388.388 0 00-.128.298.413.413 0 00.128.305.41.41 0 00.298.128zm0-1.157a.707.707 0 01.71.71.713.713 0 01-.213.511.724.724 0 01-.515.221.71.71 0 01-.515-.221.677.677 0 01-.206-.511.71.71 0 01.71-.71h.029zm2.023 2.576a.432.432 0 00.401-.595.393.393 0 00-.095-.136.429.429 0 00-.704.136.41.41 0 00-.028.162.409.409 0 00.121.306.418.418 0 00.305.127zm22.805-2.74v.327a4.696 4.696 0 00-.802 1.228 4.288 4.288 0 00-.27.71 8.36 8.36 0 00-.156.66h-.419a5.108 5.108 0 01.625-1.697c.174-.3.373-.585.596-.851h-1.647v-.377h2.073zm.505 2.471h.44v.454h-.44v-.454zm.958.454c.007-.231.06-.457.156-.667.124-.223.312-.404.54-.518l.397-.235c.138-.069.264-.158.377-.262a.546.546 0 00.17-.398.553.553 0 00-.156-.412.567.567 0 00-.412-.149.542.542 0 00-.532.291.884.884 0 00-.086.426h-.383a1.366 1.366 0 01.142-.631.907.907 0 01.859-.433.924.924 0 01.746.276.912.912 0 01.176.949.836.836 0 01-.191.279 2.137 2.137 0 01-.518.355l-.284.164a1.377 1.377 0 00-.326.213.79.79 0 00-.256.397h1.626v.355h-2.045zm5.14-1.448a.71.71 0 01.687.577.714.714 0 01-.428.789.711.711 0 01-.977-.721.71.71 0 01.718-.645zm-.305-1.519h.234l-1.647 3.045h-.234l1.647-3.045zm-1.739 1.235a.413.413 0 00.305-.128.413.413 0 00.121-.305.412.412 0 00-.121-.298.422.422 0 00-.471-.096.432.432 0 00-.14.096.399.399 0 00-.127.298.432.432 0 00.433.433zm0-1.157a.707.707 0 01.692.572.709.709 0 01-1.284.536.715.715 0 01-.12-.462.715.715 0 01.434-.592.717.717 0 01.278-.054zm2.044 2.598a.418.418 0 00.299-.128.418.418 0 000-.603.413.413 0 00-.465-.096.403.403 0 00-.139.096.416.416 0 00-.096.135.442.442 0 00.095.469.436.436 0 00.306.127zm21.414-2.477v.333a3.31 3.31 0 00-.376.483c-.167.233-.31.483-.426.745-.11.229-.2.466-.27.71a9.084 9.084 0 00-.156.667h-.419c.108-.597.32-1.171.625-1.696.173-.305.375-.592.603-.859h-1.647v-.376l2.066-.007zm.511 2.477h.433v.454h-.433v-.454zm1.207-1.654v-.291c.196-.003.39-.047.568-.128a.706.706 0 00.242-.44h.291v2.967h-.391v-2.129l-.71.021zm4.885.66a.713.713 0 01.687.578.71.71 0 11-.687-.578zm-.305-1.519h.234l-1.668 3.045h-.228l1.662-3.045zm-1.74 1.235a.433.433 0 00.4-.595.415.415 0 00-.094-.136.429.429 0 00-.704.136.39.39 0 00-.028.162.41.41 0 00.121.305.403.403 0 00.305.128zm0-1.157a.715.715 0 01.693.573.707.707 0 01-.424.792.708.708 0 01-.98-.719.71.71 0 01.711-.646zm2.045 2.591a.404.404 0 00.298-.121.418.418 0 00.129-.305.428.428 0 00-.427-.426.433.433 0 00-.401.26.431.431 0 00.236.564c.052.021.109.03.165.028zm-95.651 55.083v-.284c.194-.008.384-.054.561-.135a.622.622 0 00.241-.433h.298v2.967h-.404v-2.129l-.696.014zm2.094 2.115c.007-.233.06-.462.156-.674.124-.223.312-.404.54-.519l.398-.227c.137-.071.264-.162.376-.269a.539.539 0 00.17-.391.544.544 0 00-.156-.419.567.567 0 00-.412-.149.544.544 0 00-.532.291.899.899 0 00-.085.433h-.384a1.303 1.303 0 01.142-.639.918.918 0 01.859-.433.952.952 0 01.746.277.912.912 0 01.178.95.811.811 0 01-.192.278c-.156.144-.33.265-.519.362l-.284.156c-.114.059-.221.13-.319.213a.761.761 0 00-.263.405h1.633v.355h-2.052zm2.599-.461h.433v.454h-.433v-.454zm.951.461c.007-.233.06-.462.156-.674.127-.223.318-.404.547-.518l.398-.228c.136-.073.263-.163.376-.269a.552.552 0 00.17-.391.562.562 0 00-.033-.226.562.562 0 00-.123-.193.585.585 0 00-.419-.149.544.544 0 00-.532.291 1.114 1.114 0 00-.085.433h-.384a1.373 1.373 0 01.149-.638.89.89 0 01.852-.433.94.94 0 01.753.276.932.932 0 01.173.949.84.84 0 01-.187.279 2.63 2.63 0 01-.526.362l-.284.157c-.113.06-.22.131-.319.213a.755.755 0 00-.263.404h1.633v.355h-2.052zm5.141-1.448a.713.713 0 01.511.206.705.705 0 01.163.794.7.7 0 01-.163.235.715.715 0 01-.789.161.725.725 0 01-.234-.161.714.714 0 01.235-1.184.728.728 0 01.277-.051zm-.306-1.519h.235l-1.669 3.045h-.227l1.661-3.045zm-1.739 1.228a.413.413 0 00.305-.128.402.402 0 00.128-.298.431.431 0 00-.595-.4.393.393 0 00-.136.095.403.403 0 00-.128.305.398.398 0 00.128.298.408.408 0 00.298.128zm0-1.15a.71.71 0 01.518.213c.096.101.16.227.184.364a.703.703 0 01-.308.718.714.714 0 01-.781 0 .713.713 0 01-.309-.718.713.713 0 01.417-.526.665.665 0 01.279-.051zm2.045 2.591a.413.413 0 00.305-.128.433.433 0 00-.305-.732.428.428 0 00-.306.129.415.415 0 00-.127.298.432.432 0 00.433.433zm-10.707-30.423v-.263a1.53 1.53 0 00.568-.135.633.633 0 00.234-.433h.298v2.96h-.397v-2.129h-.703zm2.094 2.108c.008-.231.061-.458.157-.668.125-.221.313-.401.539-.518l.405-.234c.136-.071.262-.16.376-.263a.532.532 0 00.126-.181.536.536 0 00.045-.216.534.534 0 00-.158-.414.52.52 0 00-.418-.147.544.544 0 00-.532.291 1.11 1.11 0 00-.085.433h-.384a1.486 1.486 0 01.142-.639.897.897 0 01.859-.433.87.87 0 01.916.527c.05.116.074.241.071.368a.83.83 0 01-.248.61 2.43 2.43 0 01-.526.355l-.284.163a1.585 1.585 0 00-.319.213.768.768 0 00-.263.398h1.626v.355h-2.045zm2.599-.454h.433v.454h-.433v-.454zm.951.454c.01-.231.065-.458.164-.667.123-.223.311-.404.539-.519l.398-.234a1.81 1.81 0 00.376-.262.584.584 0 000-.81.577.577 0 00-.412-.149.528.528 0 00-.532.291.97.97 0 00-.092.433h-.377a1.303 1.303 0 01.142-.639.892.892 0 01.859-.433.88.88 0 01.909.529c.05.115.074.24.071.366a.817.817 0 01-.248.61 2.252 2.252 0 01-.526.355l-.284.163c-.115.058-.222.13-.319.213a.82.82 0 00-.263.398h1.626v.355h-2.031zm5.141-1.448a.705.705 0 01.692.573.707.707 0 01-.423.792.711.711 0 11-.269-1.365zm-.298-1.512h.227l-1.676 3.038h-.234l1.683-3.038zm-1.74 1.228a.431.431 0 00.305-.128.433.433 0 00-.139-.698.431.431 0 00-.471.095.397.397 0 00-.128.305.408.408 0 00.128.298.408.408 0 00.305.128zm0-1.157a.705.705 0 01.7.438.71.71 0 01-.189.804.71.71 0 01-.511.213.712.712 0 01-.511-.213.708.708 0 010-1.029.692.692 0 01.234-.158.695.695 0 01.277-.055zm2.038 2.598a.433.433 0 00.4-.595.417.417 0 00-.095-.136.418.418 0 00-.471-.095.43.43 0 00-.26.393.432.432 0 00.12.305.429.429 0 00.306.128zm46.569-1.47v-.284c.196-.008.389-.053.568-.134a.653.653 0 00.241-.433h.291v2.96h-.426v-2.13l-.674.021zm2.094 2.109c.01-.232.065-.458.164-.668.123-.223.311-.403.539-.518l.398-.227c.136-.073.263-.164.376-.27a.542.542 0 00.17-.39.56.56 0 00-.156-.419.573.573 0 00-.412-.149.52.52 0 00-.532.291.998.998 0 00-.092.433h-.377a1.298 1.298 0 01.142-.639.91.91 0 01.859-.433.931.931 0 01.746.284.9.9 0 01.234.611.8.8 0 01-.248.61 2.555 2.555 0 01-.519.362l-.291.156a2.604 2.604 0 00-.319.213.804.804 0 00-.263.405h1.626v.348h-2.045zm2.606-.447h.433v.447h-.433v-.447zm.944.447a1.77 1.77 0 01.156-.668c.124-.223.312-.403.54-.518l.398-.227c.137-.071.264-.162.376-.27a.546.546 0 00.177-.39.575.575 0 00-.156-.419.596.596 0 00-.419-.149.536.536 0 00-.532.291c-.06.136-.089.284-.085.433h-.384c-.005-.221.044-.44.142-.639a.91.91 0 01.859-.433.96.96 0 01.753.284.9.9 0 01.234.611.804.804 0 01-.255.61c-.156.143-.33.265-.519.362l-.284.156a2.604 2.604 0 00-.319.213.761.761 0 00-.263.405h1.626v.348h-2.045zm5.148-1.441a.712.712 0 01.511.213.71.71 0 01.005 1.013.71.71 0 01-1.212-.502.71.71 0 01.696-.724zm-.306-1.519h.235l-1.669 3.08h-.227l1.661-3.08zm-1.739 1.228a.413.413 0 00.305-.128.396.396 0 00.128-.298.438.438 0 00-.261-.371.437.437 0 00-.449.066.431.431 0 00-.121.305.423.423 0 00.398.426zm0-1.15a.705.705 0 01.692.572.709.709 0 11-1.403.074.704.704 0 01.434-.592.712.712 0 01.277-.054zm2.045 2.591a.442.442 0 00.426-.426.41.41 0 00-.128-.306.415.415 0 00-.298-.127.429.429 0 00-.306.127.429.429 0 00-.094.468.425.425 0 00.094.136.422.422 0 00.306.128zm-37.424 26.412v-.284c.194-.007.384-.053.56-.134a.624.624 0 00.242-.44h.298v2.967h-.405v-2.13l-.695.021zm2.364 0v-.284c.196-.008.389-.053.568-.134a.661.661 0 00.241-.44h.291v2.967h-.397v-2.13l-.703.021zm4.871.661a.708.708 0 01.258 1.366.711.711 0 01-.977-.721.71.71 0 01.719-.645zm-.306-1.519h.235l-1.669 3.045h-.199l1.633-3.045zm-1.739 1.235a.413.413 0 00.305-.128.408.408 0 00.128-.298.438.438 0 00-.261-.371.437.437 0 00-.449.066.393.393 0 00-.121.305.404.404 0 00.121.298.413.413 0 00.277.128zm0-1.157a.71.71 0 11-.007 1.42.71.71 0 01.007-1.42zm2.045 2.598a.417.417 0 00.298-.128.418.418 0 00.128-.305.438.438 0 00-.426-.426.417.417 0 00-.306.127.425.425 0 00-.128.299.435.435 0 00.434.433zm-7.328-30.246v-.291c.194-.007.384-.05.561-.128a.623.623 0 00.242-.44h.326v2.967h-.397v-2.13l-.732.022zm2.365 0v-.291a1.53 1.53 0 00.568-.128.71.71 0 00.241-.44h.298v2.967h-.404v-2.13l-.703.022zm4.87.66a.71.71 0 110 1.42.714.714 0 01-.518-.213.715.715 0 010-1.023.725.725 0 01.518-.184zm-.305-1.519h.234l-1.668 3.045h-.227l1.661-3.045zm-1.74 1.235a.428.428 0 00.307-.127.442.442 0 00.127-.306.394.394 0 00-.128-.298.422.422 0 00-.306-.128.408.408 0 00-.298.121.432.432 0 00-.095.471.425.425 0 00.095.139.391.391 0 00.298.128zm0-1.157a.71.71 0 110 1.418.71.71 0 010-1.418zm2.045 2.591a.436.436 0 00.426-.426.41.41 0 00-.128-.305.402.402 0 00-.298-.128.433.433 0 00-.401.596.402.402 0 00.096.135.418.418 0 00.305.128zm-37.786 54.926v-.284a1.51 1.51 0 00.568-.135.707.707 0 00.241-.44h.291v2.967h-.397v-2.129l-.703.021zm2.094 2.109c.008-.231.061-.458.157-.668.126-.223.317-.403.546-.518l.398-.234c.136-.071.262-.16.376-.263a.542.542 0 00.171-.397.537.537 0 00-.157-.412.58.58 0 00-.418-.149.543.543 0 00-.533.284 1.172 1.172 0 00-.085.433h-.384c-.001-.22.05-.436.15-.632a.887.887 0 01.859-.433.887.887 0 01.909.529c.049.115.073.24.07.366a.85.85 0 01-.248.61c-.159.141-.335.26-.525.355l-.284.163a1.564 1.564 0 00-.32.213.77.77 0 00-.263.398h1.626v.355h-2.045zm2.606-.455h.44v.454h-.44v-.454zm1.342-.305a.513.513 0 00.298.447.8.8 0 00.306.057.602.602 0 00.497-.206.774.774 0 00.156-.475.62.62 0 00-.192-.483.661.661 0 00-.454-.17.704.704 0 00-.334.078.7.7 0 00-.234.206h-.327l.227-1.598h1.555v.362h-1.264l-.156.781c.063-.046.129-.087.199-.12.123-.046.253-.068.383-.064a.994.994 0 01.71.262.868.868 0 01.284.668c-.003.259-.096.51-.262.709a.997.997 0 01-.831.327 1.099 1.099 0 01-.646-.206.814.814 0 01-.313-.632l.398.057zm4.743-.689a.714.714 0 01.518.213.71.71 0 010 1.023.707.707 0 01-.63.166.72.72 0 01-.501-.418.713.713 0 01.292-.885.718.718 0 01.321-.099zm-.298-1.519h.234l-1.669 3.046h-.234l1.669-3.046zm-1.74 1.207a.431.431 0 00.305-.128.428.428 0 00.121-.305.427.427 0 00-.731-.298.402.402 0 00-.128.298.431.431 0 00.433.433zm0-1.157a.713.713 0 01.7.439.71.71 0 01-.189.803.696.696 0 01-.511.218.72.72 0 01-.511-.218.71.71 0 01.511-1.242zm2.038 2.598a.431.431 0 00.433-.433.398.398 0 00-.128-.298.418.418 0 00-.471-.095.415.415 0 00-.139.095.42.42 0 00-.121.298.428.428 0 00.121.305.414.414 0 00.305.156v-.028z" clip-rule="evenodd"/><path fill="#fff" fill-rule="evenodd" d="M158.969 182.852v-.284a1.53 1.53 0 00.568-.135.637.637 0 00.235-.44h.298v2.967h-.398v-2.129l-.703.021zm3.117-.866a.872.872 0 01.831.475c.147.315.216.661.199 1.008.012.343-.048.684-.178 1.001a.89.89 0 01-.859.575.845.845 0 01-.774-.49 2.126 2.126 0 01-.22-1.043 2.465 2.465 0 01.135-.873.892.892 0 01.866-.653zm0 2.718a.523.523 0 00.462-.262c.146-.297.208-.629.177-.959a2.316 2.316 0 00-.128-.837.478.478 0 00-.482-.327.509.509 0 00-.483.313 2.048 2.048 0 00-.156.915c-.005.241.028.48.099.71a.532.532 0 00.504.447h.007zm2.364-2.718a.876.876 0 01.838.475c.148.315.216.661.199 1.008.013.343-.048.684-.177 1.001a.886.886 0 01-.86.575.868.868 0 01-.802-.468 2.189 2.189 0 01-.213-1.044 2.64 2.64 0 01.128-.873.903.903 0 01.887-.674zm0 2.718a.528.528 0 00.462-.262c.14-.299.199-.63.17-.959a2.353 2.353 0 00-.12-.837.493.493 0 00-.49-.327.512.512 0 00-.483.313 2.168 2.168 0 00-.149.915c-.008.241.025.481.099.71a.534.534 0 00.511.447zm4.126-1.192a.713.713 0 01.497 1.221.72.72 0 01-.515.221.706.706 0 01-.515-.221.702.702 0 01-.213-.511.71.71 0 01.71-.71h.036zm-.306-1.519h.235l-1.669 3.045h-.234l1.668-3.045zm-1.739 1.235a.413.413 0 00.305-.128.407.407 0 00.128-.298.431.431 0 00-.495-.401.43.43 0 00-.215.096.434.434 0 000 .603.41.41 0 00.277.128zm0-1.157a.705.705 0 01.692.573.707.707 0 01-.423.792.711.711 0 01-.981-.719.71.71 0 01.712-.646zm2.045 2.598a.394.394 0 00.298-.128.408.408 0 00.128-.305.442.442 0 00-.426-.426.417.417 0 00-.306.128.399.399 0 00-.128.298.442.442 0 00.268.4.428.428 0 00.166.033zm-9.742 26.519v-.284c.197-.008.389-.054.568-.135a.625.625 0 00.235-.44h.298v2.967h-.398v-2.129l-.703.021zm3.11-.866a.869.869 0 01.838.476c.147.314.216.66.199 1.008.013.342-.048.683-.178 1a.885.885 0 01-.859.575.848.848 0 01-.795-.468 2.12 2.12 0 01-.22-1.043 2.616 2.616 0 01.128-.874.892.892 0 01.887-.674zm0 2.712a.533.533 0 00.462-.256c.143-.298.204-.629.177-.958a2.318 2.318 0 00-.128-.838.476.476 0 00-.482-.326.499.499 0 00-.483.312 2.053 2.053 0 00-.156.916c-.005.24.028.48.099.71a.523.523 0 00.511.44zm2.371-2.712a.869.869 0 01.838.476c.148.314.216.66.199 1.008.013.342-.048.683-.177 1a.887.887 0 01-.86.575.857.857 0 01-.802-.468 2.197 2.197 0 01-.213-1.043 2.642 2.642 0 01.128-.874.899.899 0 01.887-.674zm0 2.712a.533.533 0 00.462-.256 1.87 1.87 0 00.17-.958 2.51 2.51 0 00-.12-.838.476.476 0 00-.49-.326.505.505 0 00-.483.312 2.186 2.186 0 00-.149.916c-.008.24.025.48.099.71a.523.523 0 00.511.44zm4.126-1.186a.715.715 0 01.686.578.71.71 0 11-.686-.578zm-.306-1.519h.27l-1.668 3.045h-.235l1.633-3.045zm-1.739 1.235a.413.413 0 00.305-.128.406.406 0 00.121-.298.404.404 0 00-.121-.305.425.425 0 00-.61 0 .393.393 0 00-.121.305.405.405 0 00.121.298.41.41 0 00.305.128zm0-1.157a.713.713 0 01.699.439.703.703 0 01-.188.803.706.706 0 01-1.022 0 .705.705 0 01-.189-.803.714.714 0 01.7-.439zm2.045 2.598a.412.412 0 00.298-.128.408.408 0 00.128-.305.402.402 0 00-.128-.298.425.425 0 00-.465-.096.403.403 0 00-.139.096.399.399 0 00-.127.298.408.408 0 00.127.305.406.406 0 00.306.128zm-9.415 26.782v-.284c.196-.007.389-.053.568-.135a.65.65 0 00.241-.433h.292v2.96h-.398v-2.129l-.703.021zm3.117-.866a.883.883 0 01.838.476c.147.314.216.661.199 1.008.01.345-.053.688-.185 1.008a.881.881 0 01-.852.568.86.86 0 01-.802-.469 2.132 2.132 0 01-.221-1.043 2.674 2.674 0 01.135-.874.901.901 0 01.888-.674zm0 2.719a.53.53 0 00.469-.263 1.87 1.87 0 00.17-.958 2.284 2.284 0 00-.128-.831.463.463 0 00-.183-.251.462.462 0 00-.3-.082.505.505 0 00-.482.312 2.187 2.187 0 00-.15.916c-.006.24.025.479.093.71a.53.53 0 00.504.447h.007zm2.371-2.719a.887.887 0 01.838.476 2.2 2.2 0 01.199 1.008c.01.345-.053.688-.185 1.008a.885.885 0 01-.859.567.857.857 0 01-.795-.468 2.072 2.072 0 01-.22-1.043 2.474 2.474 0 01.135-.874.894.894 0 01.887-.674zm0 2.719a.53.53 0 00.462-.263c.147-.297.208-.628.177-.958a2.28 2.28 0 00-.127-.831.476.476 0 00-.483-.333.5.5 0 00-.483.312 2.067 2.067 0 00-.156.916c-.005.24.028.48.099.71a.537.537 0 00.504.447h.007zm4.118-1.186a.71.71 0 01.512.206.724.724 0 01.221.515.713.713 0 01-.221.514.71.71 0 01-1.023 0 .71.71 0 01.511-1.235zm-.298-1.519h.227l-1.668 3.046h-.227l1.668-3.046zm-1.746 1.228a.395.395 0 00.305-.127.406.406 0 00.128-.299.413.413 0 00-.128-.305.418.418 0 00-.604 0 .418.418 0 000 .604.425.425 0 00.299.127zm0-1.15a.713.713 0 01.692.573.71.71 0 11-.692-.573zm2.044 2.591a.41.41 0 00.306-.127.432.432 0 00.12-.299.433.433 0 00-.12-.305.442.442 0 00-.216-.096.423.423 0 00-.233.031.427.427 0 00-.261.37.417.417 0 00.127.299.412.412 0 00.277.127zm-9.734 26.477v-.284c.193-.01.383-.053.561-.128a.663.663 0 00.242-.44h.298v2.967h-.398v-2.129l-.703.014zm3.117-.866a.869.869 0 01.838.475c.147.315.216.661.199 1.008.012.345-.049.689-.178 1.008a.892.892 0 01-.859.568.867.867 0 01-.802-.468 2.127 2.127 0 01-.213-1.044 2.629 2.629 0 01.128-.866.9.9 0 01.887-.681zm0 2.719a.533.533 0 00.462-.256 1.92 1.92 0 00.17-.965 2.3 2.3 0 00-.121-.831.473.473 0 00-.185-.248.472.472 0 00-.297-.085.513.513 0 00-.49.312 2.202 2.202 0 00-.149.916c-.009.24.025.48.099.709a.535.535 0 00.511.448zm2.364-2.719a.874.874 0 01.838.475c.148.315.216.661.199 1.008a2.45 2.45 0 01-.185 1.008.88.88 0 01-.852.568.863.863 0 01-.802-.468 2.132 2.132 0 01-.22-1.044 2.601 2.601 0 01.135-.866.9.9 0 01.887-.681zm0 2.719a.535.535 0 00.469-.256 1.92 1.92 0 00.17-.965 2.465 2.465 0 00-.12-.831.485.485 0 00-.49-.334.512.512 0 00-.483.313 2.233 2.233 0 00-.149.915c-.007.24.024.48.092.71a.536.536 0 00.504.448h.007zm4.118-1.186a.713.713 0 01.725.724.71.71 0 11-1.207-.511c.127-.13.3-.207.482-.213zm-.298-1.519h.206l-1.661 3.045h-.235l1.69-3.045zm-1.739 1.228a.445.445 0 00.305-.121.447.447 0 000-.61.42.42 0 00-.305-.121.409.409 0 00-.306.121.431.431 0 000 .61.435.435 0 00.306.121zm0-1.15a.71.71 0 11-.01 1.421.71.71 0 01.01-1.421zm2.037 2.591a.41.41 0 00.306-.128.41.41 0 00.128-.298.433.433 0 00-.739-.305.433.433 0 00.305.731z" clip-rule="evenodd"/><path fill="#35416B" fill-rule="evenodd" d="M210.103 125.065v1.994h.59a.63.63 0 00.632-.447c.145-.426.13-.89-.043-1.306a.62.62 0 00-.589-.248l-.59.007zm1.172-.469a.993.993 0 01.525.391c.105.15.18.318.22.497.036.165.055.334.057.504.011.361-.075.719-.248 1.036a1.1 1.1 0 01-1.03.575h-1.313v-3.067h1.313c.161-.004.322.018.476.064zm2.485 1.895a.406.406 0 01-.114.057l-.156.043h-.135a1.05 1.05 0 00-.269.078.277.277 0 00-.135.255.245.245 0 00.085.213.298.298 0 00.206.071.568.568 0 00.348-.113.457.457 0 00.17-.412v-.192zm-.362-.276a.888.888 0 00.234-.05.17.17 0 00.128-.17.207.207 0 00-.018-.11.202.202 0 00-.074-.082.617.617 0 00-.284-.05.373.373 0 00-.298.1.444.444 0 00-.086.213h-.575a.823.823 0 01.164-.49.965.965 0 01.809-.298 1.49 1.49 0 01.66.142.58.58 0 01.291.56v1.299a.378.378 0 000 .164.193.193 0 00.086.063v.093h-.59a.587.587 0 01-.042-.135v-.135a1.131 1.131 0 01-.284.227.878.878 0 01-.433.114.756.756 0 01-.505-.178.638.638 0 01-.205-.497.645.645 0 01.326-.61c.163-.079.338-.127.518-.142l.178-.028zm1.576 1.817h.071c.056.01.114.01.17 0a.245.245 0 00.128-.043.282.282 0 00.1-.149c0-.078.042-.121.035-.135l-.831-2.371h.661l.497 1.676.461-1.676h.632l-.774 2.229a3.115 3.115 0 01-.362.802.643.643 0 01-.518.156h-.27v-.489zm4.352-.845a.332.332 0 00.348-.277c.066-.259.095-.527.086-.795.011-.27-.018-.54-.086-.802a.334.334 0 00-.348-.262.34.34 0 00-.347.262 2.746 2.746 0 00-.086.802c-.009.268.02.536.086.795a.346.346 0 00.347.277zm1.044-1.072c.022.397-.059.793-.234 1.15a.854.854 0 01-.81.405.842.842 0 01-.802-.405 2.93 2.93 0 010-2.3.841.841 0 01.802-.404.851.851 0 01.81.404c.175.357.256.753.234 1.15zm.426.888c.142-.263.35-.483.604-.639a4.07 4.07 0 00.525-.419.614.614 0 00.185-.433.484.484 0 00-.107-.32.417.417 0 00-.162-.102.412.412 0 00-.191-.021.415.415 0 00-.314.202.88.88 0 00-.071.369h-.575c.002-.216.051-.429.142-.625a.869.869 0 01.845-.447c.277-.015.55.079.759.262a.94.94 0 01.284.71.967.967 0 01-.206.597 1.968 1.968 0 01-.426.383l-.241.17a2.754 2.754 0 00-.298.227.603.603 0 00-.142.164h1.32v.525h-2.066a1.366 1.366 0 01.135-.603zm18.268-2.017v2.002h.59a.63.63 0 00.632-.447c.069-.189.103-.388.099-.589a1.419 1.419 0 00-.149-.71.611.611 0 00-.257-.204.613.613 0 00-.325-.044l-.59-.008zm1.172-.468a.996.996 0 01.525.39c.106.149.178.319.213.497.042.165.063.334.064.504.01.362-.076.719-.248 1.037-.1.183-.249.335-.431.437-.183.101-.39.149-.599.138h-1.32v-3.067h1.32c.161-.004.322.018.476.064zm2.485 1.895a.406.406 0 01-.114.057l-.156.043h-.135a.805.805 0 00-.27.078.274.274 0 00-.134.248.25.25 0 00.085.22.303.303 0 00.206.071.568.568 0 00.348-.113.456.456 0 00.17-.412v-.192zm-.362-.277a.849.849 0 00.234-.049.176.176 0 00.092-.064.173.173 0 00.036-.107.205.205 0 00-.018-.109.202.202 0 00-.074-.082.617.617 0 00-.284-.05.393.393 0 00-.299.099.461.461 0 00-.085.213h-.568a.822.822 0 01.164-.489.965.965 0 01.809-.299c.228-.003.454.046.66.142a.579.579 0 01.291.561v1.299a.38.38 0 00.036.163.265.265 0 00.085.064v.093h-.639a.59.59 0 01-.043-.135v-.135a1.223 1.223 0 01-.284.227.868.868 0 01-.433.106.71.71 0 01-.504-.17.634.634 0 01-.206-.497.644.644 0 01.327-.61c.163-.079.338-.127.518-.142l.185-.029zm1.576 1.818h.234a.487.487 0 00.135-.05.358.358 0 00.071-.135c0-.078.043-.121 0-.135l-.83-2.371h.66l.49 1.676.468-1.676h.632l-.71 2.215a2.886 2.886 0 01-.362.802.705.705 0 01-.518.156h-.27v-.482zm4.352-.845a.342.342 0 00.348-.277c.066-.26.095-.527.085-.795.012-.27-.017-.54-.085-.802a.334.334 0 00-.348-.263.344.344 0 00-.348.263 2.78 2.78 0 00-.085.802c-.009.268.02.535.085.795a.349.349 0 00.348.277zm1.044-1.072c.022.397-.059.793-.234 1.15a.865.865 0 01-.81.405.842.842 0 01-.802-.405 2.934 2.934 0 010-2.3.841.841 0 01.802-.404.855.855 0 01.81.404c.18.356.266.752.248 1.15h-.014zm.852.554a.625.625 0 00.057.298.397.397 0 00.16.172c.07.039.151.056.23.048a.409.409 0 00.306-.121.435.435 0 00.127-.34.38.38 0 00-.241-.398 1.23 1.23 0 00-.426-.057v-.426a1 1 0 00.398-.056.336.336 0 00.198-.348.404.404 0 00-.099-.284.4.4 0 00-.131-.083.4.4 0 00-.153-.024.347.347 0 00-.168.027.345.345 0 00-.137.101.568.568 0 00-.1.355h-.553c.007-.145.033-.288.078-.426.056-.121.133-.231.227-.326a.739.739 0 01.277-.156c.128-.044.262-.063.397-.057.256-.016.508.062.71.22a.706.706 0 01.263.603.641.641 0 01-.156.447.514.514 0 01-.206.157c.092.02.174.07.234.141a.705.705 0 01.22.568.96.96 0 01-.262.675 1.02 1.02 0 01-.781.291.96.96 0 01-.895-.419 1.242 1.242 0 01-.142-.582h.568zm16.614-1.413v2.002h.596a.638.638 0 00.632-.447c.07-.186.103-.384.1-.582a1.43 1.43 0 00-.149-.71.622.622 0 00-.583-.249l-.596-.014zm1.179-.461c.21.067.392.202.518.383.106.149.181.318.22.497.035.166.054.335.057.504.013.361-.071.718-.242 1.036a1.109 1.109 0 01-1.029.575h-1.321v-3.066h1.321c.161.001.321.025.476.071zm2.478 1.895l-.107.057-.156.042h-.135a.91.91 0 00-.27.078.284.284 0 00-.135.256.297.297 0 00.078.22c.06.043.133.065.206.064a.623.623 0 00.355-.107.472.472 0 00.164-.411v-.199zm-.355-.277a.942.942 0 00.234-.057.18.18 0 00.128-.163.2.2 0 00-.1-.192.59.59 0 00-.284-.056.368.368 0 00-.298.106.493.493 0 00-.078.206h-.575a.884.884 0 01.17-.49.96.96 0 01.803-.298c.228-.004.455.047.66.149a.577.577 0 01.229.233c.051.099.073.21.062.321v1.306a.266.266 0 00.035.156c.021.032.05.057.086.071v.085h-.646a.684.684 0 010-.128.75.75 0 010-.134 1.236 1.236 0 01-.284.22.826.826 0 01-.434.113.71.71 0 01-.511-.177.632.632 0 01-.199-.497.653.653 0 01.32-.603c.161-.084.337-.135.518-.15l.164-.021zm1.569 1.81h.241a.252.252 0 00.135-.049.282.282 0 00.092-.149.222.222 0 000-.135l-.781-2.364h.661l.497 1.668.468-1.668h.632l-.781 2.229c-.081.28-.2.548-.355.795a.659.659 0 01-.525.156h-.27l-.014-.483zm4.359-.837a.34.34 0 00.348-.277 4.162 4.162 0 000-1.604.36.36 0 00-.355-.291.36.36 0 00-.355.291 3.804 3.804 0 000 1.604.342.342 0 00.362.277zm1.037-1.072c.02.396-.058.791-.228 1.15a1.017 1.017 0 01-1.26.293 1.017 1.017 0 01-.358-.293 2.322 2.322 0 01-.235-1.15 2.349 2.349 0 01.235-1.157 1.013 1.013 0 011.618 0c.16.364.228.761.199 1.157h.029zm2.385.823h-.34v.646h-.583v-.646h-1.193v-.518l1.122-1.824h.668v1.881h.341l-.015.461zm-.923-.468v-1.299l-.781 1.306.781-.007zm16.437-1.228v2.002h.589a.64.64 0 00.632-.448c.069-.186.102-.383.099-.582a1.41 1.41 0 00-.149-.71.613.613 0 00-.582-.248l-.589-.014zm1.171-.469c.212.072.396.209.526.391.103.15.178.319.22.497.035.165.054.334.057.504.011.361-.075.719-.249 1.036a1.098 1.098 0 01-1.029.575h-1.321v-3.067h1.321c.163.008.323.041.475.1v-.036zm2.485 1.903l-.113.056a.609.609 0 01-.156.036h-.135c-.093.014-.184.04-.27.078a.28.28 0 00-.135.255.272.272 0 00.018.12.297.297 0 00.067.101c.06.044.132.066.206.063a.566.566 0 00.348-.113.461.461 0 00.17-.405v-.191zm-.362-.277a.793.793 0 00.235-.057.18.18 0 00.09-.061.172.172 0 00.037-.102.214.214 0 00-.092-.199.707.707 0 00-.284-.05.367.367 0 00-.298.107.41.41 0 00-.085.206h-.575a.874.874 0 01.17-.49.969.969 0 01.809-.298c.229-.005.456.047.661.149a.566.566 0 01.284.553v1.306a.34.34 0 00.035.157.304.304 0 00.085.071v.085h-.639a.71.71 0 01-.042-.128.842.842 0 010-.142 1.076 1.076 0 01-.284.227.805.805 0 01-.433.114.712.712 0 01-.512-.178.72.72 0 01-.2-.58.72.72 0 01.328-.52c.161-.084.337-.135.519-.149l.191-.021zm1.576 1.81h.242a.263.263 0 00.227-.199.29.29 0 00.036-.135l-.831-2.356h.66l.49 1.675.469-1.675h.632l-.774 2.236a3.07 3.07 0 01-.362.795.65.65 0 01-.519.156h-.27v-.497zm4.353-.845a.334.334 0 00.348-.27c.065-.259.094-.527.085-.795a2.793 2.793 0 00-.085-.809.362.362 0 00-.71 0 2.793 2.793 0 00-.086.809c-.009.268.02.536.086.795a.33.33 0 00.362.27zm1.043-1.065a2.32 2.32 0 01-.234 1.15 1.017 1.017 0 01-1.26.293 1.02 1.02 0 01-.359-.293 3.05 3.05 0 010-2.307 1.017 1.017 0 011.619 0c.176.36.257.758.234 1.157zm.86.639a.526.526 0 00.134.298.38.38 0 00.292.107.374.374 0 00.186-.036.374.374 0 00.147-.12.622.622 0 00.114-.391.708.708 0 00-.107-.39.371.371 0 00-.333-.156.516.516 0 00-.192 0 .32.32 0 00-.123.07.322.322 0 00-.083.114h-.532l.213-1.661h1.661v.504h-1.235l-.107.653c.067-.045.138-.084.213-.113a.811.811 0 01.312-.05.961.961 0 01.654.248.954.954 0 01.277.71 1.16 1.16 0 01-.263.753.977.977 0 01-.802.326 1.055 1.055 0 01-.71-.234.884.884 0 01-.313-.653l.597.021zm-180.568 57.063a2.3 2.3 0 01.206-.894c.162-.301.409-.548.71-.71l.532-.312a2.58 2.58 0 00.505-.355.785.785 0 000-1.072.757.757 0 00-.554-.206.709.709 0 00-.71.391c-.08.181-.119.377-.114.574h-.511a1.79 1.79 0 01.192-.844 1.213 1.213 0 011.15-.582 1.238 1.238 0 01.994.376c.203.223.315.515.312.816a1.128 1.128 0 01-.333.817 3.348 3.348 0 01-.71.475l-.377.213a2.43 2.43 0 00-.433.284 1.078 1.078 0 00-.348.532h2.166v.476l-2.677.021zm3.735-.986a.63.63 0 00.319.568.724.724 0 00.341.085.771.771 0 00.611-.298c.222-.367.345-.786.355-1.214a.915.915 0 01-.412.376 1.395 1.395 0 01-.526.106 1.176 1.176 0 01-.908-.362 1.304 1.304 0 01-.334-.922c-.002-.345.113-.68.326-.951a1.338 1.338 0 011.774-.127c.172.132.309.305.399.503.132.341.195.706.185 1.072.01.44-.065.879-.22 1.291a1.269 1.269 0 01-1.229.945 1.194 1.194 0 01-.887-.313 1.015 1.015 0 01-.298-.759h.504zm.752-.817c.2.002.394-.069.547-.198a.819.819 0 00.241-.71.867.867 0 00-.22-.653.761.761 0 00-.561-.213.756.756 0 00-.582.241.976.976 0 00-.213.66.942.942 0 00.192.618.704.704 0 00.596.284v-.029zm5.659.59c.013.275-.038.55-.149.802a1.117 1.117 0 01-1.079.518 1.26 1.26 0 01-.781-.249 1.055 1.055 0 01-.327-.88v-.291h.518v.327a.718.718 0 00.149.497.589.589 0 00.462.17.565.565 0 00.582-.305 2.13 2.13 0 00.078-.71v-2.712h.547v2.833zm1.271-1.761v1.988a.828.828 0 00.078.376.497.497 0 00.497.263.708.708 0 00.71-.469c.077-.228.111-.469.099-.71v-1.448h.497v2.974h-.468v-.44a1.032 1.032 0 01-.242.284c-.2.161-.452.244-.71.234a.893.893 0 01-.866-.425 1.248 1.248 0 01-.121-.604v-2.023h.526zm2.662 0h.476v.426c.12-.156.273-.285.447-.376a1.18 1.18 0 01.526-.114.865.865 0 01.852.44c.093.225.134.468.121.71v1.91h-.505v-1.874a.977.977 0 00-.085-.44.477.477 0 00-.483-.277.873.873 0 00-.291.042.716.716 0 00-.355.242.707.707 0 00-.163.305 1.77 1.77 0 00-.043.447v1.555h-.497v-2.996zm4.395-.064c.215.001.427.052.618.149.18.087.335.219.447.384.105.158.173.337.199.525.041.215.058.434.05.653h-2.18c-.004.253.07.501.213.71a.717.717 0 00.618.277.801.801 0 00.625-.263.892.892 0 00.191-.341h.49c-.021.127-.064.25-.128.362a1.338 1.338 0 01-.248.327 1.132 1.132 0 01-.561.298 1.432 1.432 0 01-.412.05 1.252 1.252 0 01-.937-.405 1.573 1.573 0 01-.383-1.129c-.02-.422.116-.836.383-1.164a1.28 1.28 0 011.015-.433zm.796 1.314a1.273 1.273 0 00-.142-.519.717.717 0 00-.71-.362.778.778 0 00-.576.249.935.935 0 00-.248.632h1.676zm-18.773 30.629a1.26 1.26 0 01-1.022-.391 1.421 1.421 0 01-.32-.944h.526c0 .196.049.388.142.561a.746.746 0 00.71.312.91.91 0 00.631-.206.704.704 0 00.235-.546.633.633 0 00-.249-.575 1.275 1.275 0 00-.71-.163h-.206v-.44h.242a.978.978 0 00.461-.093.554.554 0 00.32-.553.54.54 0 00-.213-.455.796.796 0 00-.49-.163.746.746 0 00-.71.334 1.235 1.235 0 00-.114.525h-.497a1.49 1.49 0 01.178-.76 1.123 1.123 0 011.072-.553c.336-.02.669.076.944.269a.967.967 0 01.334.788.88.88 0 01-.199.59.82.82 0 01-.319.22c.197.05.37.168.489.333a.978.978 0 01.178.604 1.183 1.183 0 01-.376.922 1.465 1.465 0 01-1.037.384zm3.216-4.082a1.169 1.169 0 011.115.632c.199.421.292.884.27 1.349.013.459-.07.915-.242 1.341a1.19 1.19 0 01-1.143.76 1.156 1.156 0 01-1.065-.625 2.88 2.88 0 01-.291-1.42c-.008-.394.05-.788.171-1.164.072-.256.228-.481.443-.639.215-.159.476-.241.742-.234zm0 3.62a.703.703 0 00.625-.34c.186-.399.264-.84.227-1.278a3.25 3.25 0 00-.163-1.115.643.643 0 00-.646-.44.712.712 0 00-.646.419 2.835 2.835 0 00-.206 1.221c-.012.33.034.659.135.973a.705.705 0 00.667.56h.007zm5.638-.866c.015.276-.038.552-.156.802a1.11 1.11 0 01-1.072.526 1.293 1.293 0 01-.789-.249 1.076 1.076 0 01-.319-.887v-.291h.518v.291a.76.76 0 00.149.504.598.598 0 00.462.163.568.568 0 00.575-.298c.072-.229.1-.47.085-.71v-2.718h.547v2.867zm1.271-1.753v1.973a.808.808 0 00.071.369.51.51 0 00.497.27.714.714 0 00.71-.468c.082-.228.118-.469.106-.71v-1.455h.497v3.023h-.476v-.433a1.053 1.053 0 01-.951.519.894.894 0 01-.866-.426c-.094-.19-.138-.4-.128-.611v-2.016l.54-.035zm2.662 0h.49v.419c.12-.155.273-.281.447-.369.164-.079.344-.117.526-.114a.86.86 0 01.852.44c.1.223.144.467.128.71v1.917h-.533v-1.867a1.082 1.082 0 00-.078-.44.493.493 0 00-.483-.277 1.06 1.06 0 00-.291.035.794.794 0 00-.331.208.79.79 0 00-.194.339 2.393 2.393 0 00-.036.447v1.555h-.497v-3.003zm4.395-.064c.213-.002.423.049.611.149.185.082.342.215.454.383.102.157.169.334.199.519.034.218.048.439.043.66h-2.18c.004.251.078.497.213.71a.713.713 0 00.625.269.78.78 0 00.617-.255.807.807 0 00.192-.348h.49c-.02.127-.064.25-.128.362a1.442 1.442 0 01-.241.334 1.17 1.17 0 01-.568.298 1.78 1.78 0 01-.405.042 1.283 1.283 0 01-.515-.102 1.28 1.28 0 01-.429-.302 1.576 1.576 0 01-.384-1.129 1.7 1.7 0 01.391-1.164 1.295 1.295 0 011.015-.426zm.795 1.313a1.322 1.322 0 00-.142-.518.715.715 0 00-.71-.362.77.77 0 00-.575.248.96.96 0 00-.248.632h1.675zm-16.969 26.136a1.169 1.169 0 011.115.632c.198.421.29.884.27 1.349a3.21 3.21 0 01-.242 1.341 1.184 1.184 0 01-1.143.753 1.15 1.15 0 01-1.065-.618 2.88 2.88 0 01-.291-1.42 3.34 3.34 0 01.178-1.164 1.184 1.184 0 011.178-.873zm0 3.627a.705.705 0 00.618-.347c.186-.399.264-.84.227-1.278a3.274 3.274 0 00-.163-1.115.643.643 0 00-.646-.44.712.712 0 00-.646.419 2.835 2.835 0 00-.206 1.221c-.012.33.034.659.135.973a.706.706 0 00.681.567zm2.166-2.456v-.383c.261-.011.519-.068.759-.17a.9.9 0 00.32-.589h.39v3.953h-.532v-2.839l-.937.028zm6.631 1.583c.016.276-.038.552-.156.802a1.103 1.103 0 01-1.072.518 1.278 1.278 0 01-.788-.241 1.075 1.075 0 01-.32-.887v-.291h.519v.291a.75.75 0 00.149.504.594.594 0 00.461.163.567.567 0 00.575-.298c.072-.229.101-.47.085-.71v-2.711h.547v2.86zm1.271-1.753v1.973a.82.82 0 00.071.369c.047.089.12.161.209.207a.497.497 0 00.288.056.705.705 0 00.71-.461c.082-.227.119-.469.107-.71v-1.42h.497v2.967h-.476v-.433a1.043 1.043 0 01-.952.518.885.885 0 01-.866-.425c-.093-.19-.137-.4-.128-.611v-2.016l.54-.014zm2.67-1.1h.504v4.067h-.504v-4.067zm3.081 1.1h.547l-.469 1.299c-.177.511-.334.93-.454 1.249a8.064 8.064 0 01-.611 1.42.699.699 0 01-.275.199.698.698 0 01-.335.049h-.299v-.496l.185.049h.107a.316.316 0 00.312-.163s.043-.085.099-.227l.128-.305-1.1-3.053h.568l.795 2.421.802-2.442zm-16.33 27.449a1.173 1.173 0 011.115.632c.199.421.292.884.27 1.349.013.456-.069.911-.242 1.334a1.174 1.174 0 01-1.143.76 1.15 1.15 0 01-1.065-.618 2.801 2.801 0 01-.291-1.42 3.566 3.566 0 01.17-1.164 1.2 1.2 0 011.186-.873zm0 3.62a.705.705 0 00.618-.34c.192-.4.273-.844.234-1.285a3.07 3.07 0 00-.17-1.108.63.63 0 00-.639-.44.712.712 0 00-.646.419 2.732 2.732 0 00-.206 1.221c-.011.329.032.657.127.972a.714.714 0 00.682.561zm1.775.334a2.13 2.13 0 01.213-.887c.16-.303.407-.551.71-.71l.533-.305c.181-.099.35-.218.504-.355a.708.708 0 00.227-.526.715.715 0 00-.213-.553.754.754 0 00-.554-.206.709.709 0 00-.71.39 1.44 1.44 0 00-.114.575h-.511a1.829 1.829 0 01.192-.844 1.216 1.216 0 011.15-.575 1.167 1.167 0 011.213.704c.066.154.098.32.094.488a1.088 1.088 0 01-.334.809 3.26 3.26 0 01-.71.483l-.376.206a2.817 2.817 0 00-.434.284c-.169.139-.29.328-.347.539h2.172v.483h-2.705zm6.994-1.2c.012.276-.042.551-.157.802a1.11 1.11 0 01-1.079.518 1.258 1.258 0 01-.781-.241 1.072 1.072 0 01-.319-.887v-.291h.518v.291a.788.788 0 00.142.504.615.615 0 00.469.163.57.57 0 00.575-.298c.068-.23.095-.471.078-.71v-2.719h.554v2.868zm1.27-1.753v1.973a.81.81 0 00.072.369.5.5 0 00.496.27.712.712 0 00.71-.469c.08-.227.114-.469.1-.709v-1.42h.504v2.939h-.476v-.433a1.04 1.04 0 01-.951.518.885.885 0 01-.859-.426 1.242 1.242 0 01-.128-.611v-2.015l.532.014zm2.67-1.107h.504v4.06h-.504v-4.06zm3.103 1.107h.554l-.469 1.299c-.177.511-.334.93-.454 1.249a8.064 8.064 0 01-.611 1.42.709.709 0 01-.611.248h-.163l-.135-.035v-.518a.74.74 0 00.185.042h.106a.348.348 0 00.199-.05.288.288 0 00.114-.113s.042-.085.099-.227c.057-.142.1-.234.121-.305l-1.094-3.053h.547l.802 2.414.81-2.371zm-17.452-110.62c.007-.31.079-.615.213-.894.159-.304.407-.551.71-.71l.532-.305c.18-.101.349-.22.505-.355a.752.752 0 00.227-.533.712.712 0 00-.469-.706.757.757 0 00-.298-.046.709.709 0 00-.71.39c-.08.181-.118.378-.114.575h-.511a1.82 1.82 0 01.192-.844 1.46 1.46 0 011.02-.57 1.454 1.454 0 011.11.364c.203.223.315.515.312.816a1.1 1.1 0 01-.333.816 3.315 3.315 0 01-.71.476l-.377.213a2.43 2.43 0 00-.433.284c-.169.139-.29.328-.348.539h2.173v.49h-2.691zm4.523-2.3a.713.713 0 00.518-.184.617.617 0 00.185-.44.558.558 0 00-.178-.405.713.713 0 00-.568-.22.655.655 0 00-.525.192.626.626 0 00-.157.433.534.534 0 00.206.44c.147.118.33.183.519.184zm0 1.967a.925.925 0 00.582-.185.704.704 0 00.227-.561.71.71 0 00-.234-.589.962.962 0 00-.611-.199.849.849 0 00-.582.206.704.704 0 00-.227.561.761.761 0 00.213.539.829.829 0 00.66.228h-.028zm-.71-1.775a.898.898 0 01-.32-.213.756.756 0 01-.22-.575 1.046 1.046 0 01.32-.759 1.241 1.241 0 01.915-.32c.326-.019.646.088.895.298a.963.963 0 01.327.71.9.9 0 01-.192.603 1.178 1.178 0 01-.327.256c.144.065.276.154.391.263.175.194.269.448.263.709a1.25 1.25 0 01-.355.888 1.298 1.298 0 01-.994.369c-.353.01-.699-.1-.98-.312a1.107 1.107 0 01-.405-.916 1.027 1.027 0 01.71-1.001h-.028zm6.347.901c.013.276-.038.55-.149.803a1.117 1.117 0 01-1.079.518 1.26 1.26 0 01-.781-.249 1.064 1.064 0 01-.32-.88v-.291h.519v.291a.704.704 0 00.142.497c.06.061.134.108.215.137.081.03.167.041.253.033a.563.563 0 00.575-.305c.07-.23.097-.47.078-.71v-2.718h.547v2.874zm1.264-1.753v1.966a.829.829 0 00.071.377.502.502 0 00.497.262.707.707 0 00.71-.461c.076-.229.109-.469.099-.71v-1.455h.504v2.981h-.475v-.44a.932.932 0 01-.242.284c-.2.162-.452.245-.71.234a.9.9 0 01-.866-.426 1.304 1.304 0 01-.121-.603v-2.016l.533.007zm2.655 0h.476v.419a1.34 1.34 0 01.447-.376 1.27 1.27 0 01.526-.114.865.865 0 01.852.44c.096.224.137.467.12.71v1.881h-.504v-1.874a.925.925 0 00-.085-.433.478.478 0 00-.476-.284.886.886 0 00-.298.043.714.714 0 00-.355.241.707.707 0 00-.163.305 1.87 1.87 0 00-.036.448v1.554h-.504v-2.96zm4.395-.071c.215.001.427.052.618.149.181.085.336.217.447.384.104.159.174.338.206.525.034.216.049.434.043.653h-2.18c-.001.253.073.5.213.71a.717.717 0 00.618.277.787.787 0 00.624-.263.804.804 0 00.192-.341h.49c-.021.127-.064.25-.128.362a1.364 1.364 0 01-.248.327c-.156.15-.35.256-.561.305-.135.03-.273.044-.412.043a1.252 1.252 0 01-.937-.405 1.579 1.579 0 01-.384-1.129 1.7 1.7 0 01.391-1.164 1.266 1.266 0 011.008-.433zm.803 1.313a1.438 1.438 0 00-.142-.518.716.716 0 00-.711-.355.77.77 0 00-.575.242.935.935 0 00-.248.631h1.676z" clip-rule="evenodd"/><path fill="url(#pattern1)" d="M532.636 124.22h259.15v166.81h-259.15z"/><path stroke="#F96132" stroke-linecap="round" stroke-linejoin="round" stroke-width="2.5" d="M602.699 137.905l-.284 142.016m71.454-141.15l-.291 142.009m64.859-142.3l-.292 142.009"/><path fill="#F96132" fill-rule="evenodd" d="M567.759 82.674h85.108v7.162h-85.108v-7.162zm-.333 12.102h100.039v7.099H567.426v-7.099zm-4.069 33.575h18.61v5.856h-18.61v-5.856zm80.458.305h18.602v5.864h-18.602v-5.864zm61.351.355h18.609v5.856h-18.609v-5.856zm51.12-.532h18.602v5.863h-18.602v-5.863zM576.187 304.254h184.125c3.919 0 7.1 1.909 7.1 4.259v10.25c0 2.356-3.181 4.259-7.1 4.259H576.187c-3.919 0-7.1-1.91-7.1-4.259V308.52c0-2.357 3.181-4.266 7.1-4.266z" clip-rule="evenodd"/><path fill="#F7A501" fill-rule="evenodd" d="M1040.74 169.045v6.502s6.08.22 7.69 3.073c8.17 14.431 10.41 31.233 12.07 41.632 4.37 27.442 5.45 44.719 8.88 67.434 3.29 21.749 9.46 19.747 9.46 19.747l-.47-6.978s-.64 4.969-3.55-9.696c-7.45-37.621-8.04-100.625-24.1-117.526-2.17-2.3-9.98-4.188-9.98-4.188z" clip-rule="evenodd" opacity=".3"/><path fill="#F7A501" fill-rule="evenodd" d="M1040.21 190.07h38.2l-.13 30.778-38.2-.639.13-30.139z" clip-rule="evenodd" opacity=".3"/><path fill="#F7A501" fill-rule="evenodd" d="M1038.54 254.246l-.32-33.788a59.118 59.118 0 0010.65-27.073c1.66-12.898 7.4-34.995 12.51-43.804 4.13-7.098 17.63-18.782 17.63-18.782l-1.02 41.646s-5.87 3.698-9.23 16.603c-3.36 12.905-2.64 30.459-8.38 44.719-6.39 16.063-21.84 20.479-21.84 20.479z" clip-rule="evenodd" opacity=".3"/><path fill="#F7A501" fill-rule="evenodd" d="M1039.8 252.492l-.42 21.018s7.1-3.201 10.65-6.622c7.87-7.617 12.33-11.571 18.82-18.917 3.99-4.515 10.08-4.309 10.08-4.309l-.2-17.746s-9.57 4.728-13.95 7.808c-5.61 3.904-9.72 9.633-13.39 13.65-5.68 6.14-11.59 5.118-11.59 5.118z" clip-rule="evenodd" opacity=".3"/><path fill="#F7A501" fill-rule="evenodd" d="M1078.24 252.152l.23 9.171s-4.93-1.924-10.65 2.598c-3.99 3.151-10.18 12.4-14.13 14.636-3.96 2.236-13.49 2.683-13.49 2.683l-.08-8.574s4.48 1.348 11.31-2.13c4.66-2.392 7.1-11.307 14.65-14.239 7.16-2.804 12.16-4.145 12.16-4.145z" clip-rule="evenodd" opacity=".3"/><path fill="#F7A501" fill-rule="evenodd" d="M1079.43 269.606l.3 4.025s-3.55.149-10 3.208c-6.44 3.06-11.83 8.93-17.04 9.271-7.64.504-13.31.276-13.31.276l.9-5.217s2.05.582 12.01.071c1.65-.085 9.36-6.005 15.89-8.951 6.52-2.946 11.25-2.683 11.25-2.683z" clip-rule="evenodd" opacity=".3"/><path fill="#F7A501" fill-rule="evenodd" d="M1080.15 281.538l-.58 4.025s-3.16-1.05-9.65 2.009c-6.48 3.059-10.28 4.074-17.85 4.891-7.58.816-12.46-1.64-12.46-1.64l.47-5.175a22.2 22.2 0 0011.8 1.917c7.1-.66 9.94-1.611 16.48-4.557 6.53-2.946 11.79-1.47 11.79-1.47z" clip-rule="evenodd" opacity=".3"/><path fill="#F7A501" fill-rule="evenodd" d="M1081.02 291.533l-.87 3.932s-6.93-1.164-11.6 1.342c-3.93 2.129-16.58 2.392-16.58 2.392l-12.94-1.15.67-7.474s4.97 3.868 14.95 3.357c1.66-.085 6.22 1.122 12.78-1.824s13.59-.575 13.59-.575z" clip-rule="evenodd" opacity=".3"/><path fill="#F7A501" fill-rule="evenodd" d="M1079.72 301.896l-.15 4.969s-4.26-2.939-11.88-1.725c-4.79.767-11.78 1.164-16.96.483a46.805 46.805 0 01-12.85-3.641l1.92-4.7s3.07 1.917 11.59 3.358c1.64.27 8.97.106 16.11-.483 4.15-.365 8.33.23 12.22 1.739z" clip-rule="evenodd" opacity=".3"/><path fill="#F7A501" fill-rule="evenodd" d="M1080.25 313.928l-.96 4.507a50.838 50.838 0 00-13.23-4.791c-3.38-.71-10.97-1.689-16.2-1.342a13.663 13.663 0 01-11.5-4.599l.67-7.099a15.676 15.676 0 0011.41 6.226c1.65.127 11.52.071 16.29 1.15 5.08 1.157 13.52 5.948 13.52 5.948z" clip-rule="evenodd" opacity=".3"/><path fill="#F7A501" fill-rule="evenodd" d="M1081.21 323.227l-.95 4.5a50.838 50.838 0 00-13.23-4.791c-3.38-.71-10.98-1.69-16.2-1.342a13.645 13.645 0 01-11.51-4.599l.71-7.099a15.698 15.698 0 0011.41 6.233c1.65.12 11.52.063 16.33 1.149 5 1.157 13.44 5.949 13.44 5.949zm.97-190.781l.97 11.102s6.28-8.263 11.75-4.131c7.86 5.934 6.47 21.252 14.2 31.175 7.73 9.924 17.99 7.95 17.99 7.95l.4-11.421s-4.97 3.691-12.39-5.189c-7.43-8.88-6.04-22.111-13.37-30.458-7.34-8.348-19.55.972-19.55.972z" clip-rule="evenodd" opacity=".3"/><path fill="#F7A501" fill-rule="evenodd" d="M1083.24 190.865v28.123s15.92 1.754 22.37-12.024c6.45-13.778 7.55-20.961 9.23-30.005 2.13-11.399 13.01-16.794 13.01-16.794v-28.713s-12.52 3.975-17.28 10.932c-9.17 13.359-11.27 25.419-17.4 39.942-1.86 4.436-9.93 8.539-9.93 8.539zm47.67-22.7l51.65-.746.09 4.664-52.2 1.122.46-5.04zm-.1-36.578l51.6-.582.11 14.197-51.93 1.143.22-14.758zm-48.44 120.43l45.6.404.13 3.372-45.93-.405.2-3.371z" clip-rule="evenodd" opacity=".3"/><path fill="#F96132" fill-rule="evenodd" d="M1083.24 141.695l-.22 28.727s6.27-.973 6.58-14.963c.34-15.318-6.36-13.764-6.36-13.764zm-.29 113.558v6.325s3.06 0 2.93-3.457c-.16-3.329-2.93-2.868-2.93-2.868z" clip-rule="evenodd" opacity=".5"/><path fill="#F7A501" fill-rule="evenodd" d="M1001.19 94.727h91.59v6.998h-91.59v-6.998zm.15 11.577h128.03v7.56h-128.03v-7.56z" clip-rule="evenodd"/><path fill="#F96132" fill-rule="evenodd" d="M1037.63 189.708c1.46 0 2.65.965 2.65 2.129v135.684c0 1.193-1.19 2.13-2.65 2.13-1.42 0-2.63-.966-2.63-2.13V191.866c0-1.193 1.18-2.158 2.63-2.158zm.42-21.983a2.527 2.527 0 012.53 2.527v4.869c0 .67-.27 1.311-.74 1.785a2.56 2.56 0 01-1.79.742c-.67 0-1.31-.266-1.79-.74a2.54 2.54 0 01-.74-1.787v-4.884c0-.669.27-1.309.75-1.78a2.5 2.5 0 011.78-.732zm42.5-37.557c.36-.001.71.068 1.04.204.33.136.63.335.89.587.25.252.45.551.59.881.13.329.2.682.2 1.039v37.117c0 .357-.07.71-.2 1.039-.14.33-.34.629-.59.881-.26.252-.56.451-.89.587-.33.136-.68.206-1.04.205-.72 0-1.41-.286-1.91-.795a2.71 2.71 0 01-.8-1.917v-37.117c0-.719.29-1.409.8-1.917.5-.509 1.19-.794 1.91-.794zm.35 59.15c.71 0 1.4.282 1.9.786.5.503.79 1.185.79 1.897v26.42a2.688 2.688 0 01-4.59 1.897 2.691 2.691 0 01-.78-1.897v-26.413c0-.353.07-.703.2-1.029.13-.326.33-.623.58-.873.25-.25.55-.448.87-.583.33-.136.68-.205 1.03-.205zm48.42-59.257a2.682 2.682 0 011.9.781c.25.249.45.544.58.87.14.325.21.673.21 1.025v26.406a2.7 2.7 0 01-.79 1.897 2.67 2.67 0 01-1.9.786c-.71 0-1.39-.283-1.89-.786a2.659 2.659 0 01-.79-1.897v-26.406c0-.352.07-.7.2-1.025.14-.326.34-.621.59-.87.25-.248.54-.445.87-.579.32-.134.67-.203 1.02-.202zm-48.4 94.414c.68 0 1.34.273 1.82.757.49.485.76 1.142.76 1.827v15.496c0 .685-.27 1.342-.76 1.827a2.57 2.57 0 01-1.82.756c-.69 0-1.35-.272-1.83-.756a2.565 2.565 0 01-.76-1.827V227.08c0-.341.06-.679.19-.995a2.609 2.609 0 011.4-1.411c.32-.131.65-.199 1-.199zm101.7-94.527c.68 0 1.34.272 1.82.756.49.485.76 1.142.76 1.827v15.475c0 .339-.07.674-.2.987a2.575 2.575 0 01-2.38 1.589 2.57 2.57 0 01-1.83-.752 2.575 2.575 0 01-.56-.837c-.13-.313-.2-.648-.2-.987v-15.475c0-.685.27-1.342.76-1.827a2.576 2.576 0 011.83-.756zm-101.71 120.209c.67.002 1.31.27 1.79.745.47.475.74 1.118.74 1.789v7.964c0 .671-.27 1.313-.74 1.787a2.545 2.545 0 01-2.76.55 2.453 2.453 0 01-.82-.547 2.355 2.355 0 01-.55-.821c-.13-.307-.2-.636-.2-.969v-7.964c0-.672.27-1.317.75-1.792a2.525 2.525 0 011.79-.742zm48.25-83.788c.33-.001.66.064.97.19.31.127.59.313.82.548.24.234.42.513.55.82.13.307.2.636.2.969v7.964c0 .672-.27 1.317-.75 1.792a2.525 2.525 0 01-3.58-.002 2.551 2.551 0 01-.74-1.79v-7.964c0-.67.27-1.313.74-1.787.48-.474 1.12-.74 1.79-.74zm-48.26 101.739c.32 0 .63.063.93.184.29.121.55.299.78.523.22.224.4.49.52.783.12.293.19.607.19.924v2.264a2.425 2.425 0 01-2.42 2.421c-.64 0-1.26-.255-1.71-.709a2.44 2.44 0 01-.71-1.712v-2.264c0-.318.06-.632.18-.925.13-.294.31-.56.53-.784.22-.224.49-.402.79-.523.29-.121.6-.183.92-.182zm48.54-17.035a2.416 2.416 0 012.42 2.42v2.264c0 .641-.26 1.255-.71 1.707-.46.453-1.07.707-1.71.707-.64 0-1.26-.254-1.71-.707a2.384 2.384 0 01-.71-1.707v-2.264c0-.318.06-.633.18-.926.12-.294.3-.561.53-.786a2.387 2.387 0 011.71-.708zm53.45-84.704a2.419 2.419 0 012.42 2.413v2.265c0 .642-.25 1.257-.7 1.711-.46.454-1.07.709-1.72.709a2.405 2.405 0 01-1.7-.711 2.394 2.394 0 01-.71-1.709v-2.265c0-.64.25-1.254.71-1.706a2.392 2.392 0 011.7-.707zm-101.85 113.416c.65 0 1.26.255 1.72.709.45.454.7 1.07.7 1.712v2.264a2.43 2.43 0 01-.7 1.712c-.46.454-1.07.709-1.72.709a2.401 2.401 0 01-1.7-.712 2.392 2.392 0 01-.71-1.709v-2.264c0-.641.25-1.256.71-1.709.45-.454 1.06-.71 1.7-.712zm-.07 10.428a2.419 2.419 0 012.42 2.413v2.264c0 .642-.25 1.258-.71 1.712a2.413 2.413 0 01-3.42 0 2.44 2.44 0 01-.71-1.712v-2.264c0-.641.26-1.255.71-1.707a2.436 2.436 0 011.71-.706zm-.07 11.144a2.428 2.428 0 012.42 2.42v2.265a2.424 2.424 0 01-2.42 2.42c-.64 0-1.26-.255-1.71-.709a2.437 2.437 0 01-.71-1.711v-2.265c0-.642.26-1.257.71-1.711a2.413 2.413 0 011.71-.709zm.14 11.229c.64 0 1.26.254 1.71.707.46.452.71 1.066.71 1.707v2.264a2.43 2.43 0 01-.7 1.712c-.46.454-1.07.709-1.72.709a2.401 2.401 0 01-1.7-.712 2.39 2.39 0 01-.71-1.709V315c0-.317.06-.631.18-.924.12-.293.3-.559.53-.783a2.417 2.417 0 011.7-.707zm0 10.342c.65 0 1.26.255 1.72.709.45.454.7 1.07.7 1.712v2.264a2.43 2.43 0 01-.7 1.712c-.46.454-1.07.709-1.72.709a2.401 2.401 0 01-1.7-.712 2.39 2.39 0 01-.71-1.709v-2.264c0-.641.25-1.255.71-1.709.45-.454 1.06-.71 1.7-.712z" clip-rule="evenodd"/></g><defs><pattern id="pattern0" width="1" height="1" patternContentUnits="objectBoundingBox"><use transform="scale(.00148)" xlink:href="#image0"/></pattern><pattern id="pattern1" width="1" height="1" patternContentUnits="objectBoundingBox"><use transform="scale(.00274 .00426)" xlink:href="#image1"/></pattern><clipPath id="clip0"><path fill="#fff" d="M0 0h1315v455H0z"/></clipPath></defs></svg>