<svg xmlns:xlink="http://www.w3.org/1999/xlink" fill="none" viewBox="0 0 578 347"><g clip-path="url(#clip0)"><path fill="#F7A501" fill-rule="evenodd" d="M53.997 0h400.077c4.37 0 8.56 1.736 11.649 4.827a16.483 16.483 0 014.826 11.654v314.033a16.488 16.488 0 01-10.166 15.23 16.471 16.471 0 01-6.304 1.256H53.997a16.48 16.48 0 01-11.65-4.828 16.496 16.496 0 01-4.83-11.653V16.486a16.49 16.49 0 014.827-11.657A16.475 16.475 0 0153.997 0z" clip-rule="evenodd"/><path fill="#F96132" fill-rule="evenodd" d="M.765 306.663l576.47-.273-576.47.273z" clip-rule="evenodd"/><path stroke="#F96132" stroke-linecap="round" stroke-linejoin="round" stroke-width="3.36" d="M.765 306.663l576.47-.273"/><path fill="url(#pattern0)" d="M134.4 52.565h256.042v211.027H134.4z"/><path fill="url(#pattern1)" d="M121.187 217.102h303.424v106.653H121.187z"/><path fill="#F7A501" fill-rule="evenodd" stroke="#F96132" stroke-linecap="round" stroke-linejoin="round" stroke-width="3.36" d="M156.204 68.55H345.83c2.807 0 5.08 2.451 5.08 5.469v149.856c0 3.027-2.278 5.47-5.08 5.47H156.204c-2.806 0-5.08-2.457-5.08-5.47V74.032c0-3.03 2.274-5.483 5.08-5.483zM123.21 233.674h255.132c3.776 0 6.833 1.103 6.833 2.465v67.324c0 1.367-3.061 2.466-6.833 2.466H123.21c-3.777 0-6.834-1.103-6.834-2.466V236.14c-.004-1.362 3.057-2.465 6.834-2.465z" clip-rule="evenodd"/><path fill="#F96132" fill-rule="evenodd" stroke="#F96132" stroke-linecap="round" stroke-linejoin="round" stroke-width="3.36" d="M172.286 83.066h158.546c3.723 0 6.743 2.894 6.743 6.463v116.635c0 3.568-3.02 6.463-6.743 6.463H172.286c-3.722 0-6.738-2.895-6.738-6.463V89.529c0-3.569 3.021-6.463 6.738-6.463z" clip-rule="evenodd"/><path fill="#fff" fill-rule="evenodd" stroke="#F96132" stroke-linecap="round" stroke-linejoin="round" stroke-width="3.36" d="M178.391 88.804h144.774c4 0 7.239 3.41 7.239 7.617v102.523c0 4.207-3.239 7.612-7.239 7.612H178.391c-4 0-7.239-3.405-7.239-7.612V96.421c0-4.203 3.239-7.617 7.239-7.617z" clip-rule="evenodd"/><path fill="#F96132" fill-rule="evenodd" stroke="#F96132" stroke-linecap="round" stroke-linejoin="round" stroke-width="3.36" d="M136.263 246.409h166.141c4.1 0 7.448 2.89 7.448 6.458v34.225c0 3.569-3.334 6.463-7.448 6.463H136.263c-4.1 0-7.449-2.894-7.449-6.463v-34.225c0-3.555 3.335-6.458 7.449-6.458z" clip-rule="evenodd"/><path stroke="#F96132" stroke-linecap="round" stroke-linejoin="round" stroke-width="3.36" d="M327.488 252.393a6.083 6.083 0 013.643-5.688 6.074 6.074 0 018.37 4.269 6.076 6.076 0 01-2.461 6.29 6.076 6.076 0 01-3.356 1.091h-.118a6.01 6.01 0 01-5.595-3.655 6.03 6.03 0 01-.483-2.297v-.01zm21.541.06a6.38 6.38 0 017.622-6.259 6.378 6.378 0 015.012 5.014 6.385 6.385 0 01-6.256 7.626 6.379 6.379 0 01-6.378-6.381v0zm-20.734 16.854h35.454a6.455 6.455 0 016.456 6.441v4.89a6.468 6.468 0 01-1.872 4.596 6.44 6.44 0 01-4.58 1.908h-35.458a6.463 6.463 0 01-6.461-6.463v-4.909a6.465 6.465 0 016.461-6.463v0z" clip-rule="evenodd"/><path fill="url(#pattern2)" d="M117.998 231.687h106.608v54.238H117.998z"/><path fill="url(#pattern3)" d="M193.171 231.687h106.608v54.238H193.171z"/><path fill="url(#pattern4)" d="M193.171 253.565h106.153v54.238H193.171z"/><path fill="url(#pattern5)" d="M117.543 254.476h106.153v53.782H117.543z"/><path fill="#F7A501" fill-rule="evenodd" stroke="#F96132" stroke-linecap="round" stroke-linejoin="round" stroke-width="3.36" d="M177.854 88.668h43.03v118.179h-43.03a6.727 6.727 0 01-6.748-6.704V95.377a6.744 6.744 0 011.983-4.752 6.728 6.728 0 014.76-1.957h.005z" clip-rule="evenodd"/><path fill="#F96132" fill-rule="evenodd" d="M198.182 104.903v5.797l5.718-.045.096-1.172-1.654-.296-1.927-2.037-2.233-2.247z" clip-rule="evenodd"/><path fill="#fff" fill-rule="evenodd" d="M199.139 109.082a.519.519 0 01.325-.469.512.512 0 01.663.681.512.512 0 01-.841.155.522.522 0 01-.147-.367z" clip-rule="evenodd"/><path fill="#F96132" fill-rule="evenodd" d="M194.082 100.992l.023 2.789 3.399 3.314.022-2.762-3.444-3.341zm.023 3.382v2.735l3.449 3.477-.051-2.698-3.398-3.514zm-.023 3.591l.041 2.699 2.811.045-2.852-2.744z" clip-rule="evenodd"/><path fill="#F96132" fill-rule="evenodd" d="M190.67 100.924l-.028 2.83 3.44 3.355.041-2.662-3.453-3.523zm-.046 3.496v2.766l3.458 3.46v-2.735l-3.458-3.491zm-.018 3.527v2.762l2.829-.027-2.829-2.735z" clip-rule="evenodd"/><path fill="#F96132" fill-rule="evenodd" d="M187.148 101.019v2.735l3.485 3.345v-2.702l-3.485-3.378zm.036 3.401l3.417 3.495v2.762l-3.499-3.609.082-2.648zm-.072 3.573v2.694h2.87l-2.87-2.694z" clip-rule="evenodd"/><path fill="#fff" fill-rule="evenodd" d="M190.62 119.387h18.26c1.125 0 2.032.629 2.032 1.404 0 .771-.912 1.4-2.032 1.4h-18.26c-1.126 0-2.037-.629-2.037-1.4 0-.77.911-1.404 2.037-1.404zm.145 13.592h18.274c1.125 0 2.037.629 2.037 1.404 0 .774-.912 1.399-2.037 1.399h-18.274c-1.125 0-2.036-.625-2.036-1.399 0-.775.911-1.404 2.036-1.404zm-.041 13.783h18.434c1.134 0 2.054.624 2.054 1.399s-.911 1.404-2.054 1.404h-18.434c-1.134 0-2.054-.629-2.054-1.404 0-.793.92-1.399 2.054-1.399zm.41 13.796h18.288c1.125 0 2.036.629 2.036 1.404 0 .775-.911 1.399-2.036 1.399h-18.288c-1.125 0-2.036-.624-2.036-1.399s.911-1.404 2.036-1.404zm-.004 13.892h18.397c1.129 0 2.05.629 2.05 1.404 0 .775-.911 1.404-2.05 1.404H191.13c-1.135 0-2.05-.629-2.05-1.404-.009-.775.902-1.404 2.05-1.404zm.218 13.305h18.397c1.13 0 2.05.629 2.05 1.399 0 .775-.911 1.404-2.05 1.404h-18.397c-1.134 0-2.05-.629-2.05-1.404-.018-.766.898-1.399 2.05-1.399zm-9.403-68.468h.747a1.642 1.642 0 011.16 2.807 1.64 1.64 0 01-1.16.484h-.752a1.644 1.644 0 01-1.163-2.809 1.644 1.644 0 011.163-.482h.005zm-.232 13.218h.751a1.643 1.643 0 011.645 1.645 1.645 1.645 0 01-1.645 1.646h-.751a1.645 1.645 0 010-3.291zm-.055 13.619h.747a1.645 1.645 0 01.009 3.29h-.756a1.63 1.63 0 01-1.161-.477 1.645 1.645 0 01-.484-1.159 1.646 1.646 0 011.645-1.645v-.009zm-.232 13.796h.752a1.646 1.646 0 010 3.291h-.752a1.646 1.646 0 010-3.291zm.578 14.311h.747a1.645 1.645 0 010 3.291h-.747a1.644 1.644 0 01-1.163-2.809 1.648 1.648 0 011.163-.482zm.196 13.305h.752a1.63 1.63 0 011.161.477 1.645 1.645 0 01.484 1.159 1.646 1.646 0 01-1.645 1.645h-.752a1.646 1.646 0 01-.632-3.164 1.63 1.63 0 01.628-.126l.004.009z" clip-rule="evenodd"/><path fill="#F96132" fill-rule="evenodd" d="M228.889 95.54v2.148h.634a.678.678 0 00.674-.479c.073-.2.109-.412.105-.624a1.554 1.554 0 00-.155-.77.666.666 0 00-.624-.269l-.634-.005zm1.258-.496c.225.074.42.22.556.415.113.16.192.341.232.533.042.178.063.36.064.542a2.13 2.13 0 01-.265 1.108 1.183 1.183 0 01-1.098.61h-1.412v-3.3h1.394c.18.004.358.035.529.092zm2.66 2.037a.585.585 0 01-.118.064l-.169.041-.141.027a.91.91 0 00-.287.087.343.343 0 00-.082.456l.023.027a.38.38 0 00.218.073.626.626 0 00.379-.123.51.51 0 00.177-.456v-.196zm-.382-.296a.792.792 0 00.25-.055.188.188 0 00.137-.178.21.21 0 00-.105-.204.617.617 0 00-.301-.06.394.394 0 00-.319.11.466.466 0 00-.091.223h-.61a.904.904 0 01.178-.52 1.048 1.048 0 01.865-.323c.245-.005.487.05.706.16a.607.607 0 01.31.597v1.39c-.004.06.009.12.037.173.025.03.056.055.091.073v.09h-.688a.729.729 0 01-.041-.136v-.132a1.194 1.194 0 01-.301.242.912.912 0 01-.456.118.766.766 0 01-.542-.191.672.672 0 01-.214-.53.7.7 0 01.346-.65c.174-.088.363-.14.556-.156l.192-.04zm2.068.693a.393.393 0 00.086.242.579.579 0 00.456.127.659.659 0 00.296-.055.186.186 0 00.082-.25.175.175 0 00-.082-.082 3.636 3.636 0 00-.66-.192 1.362 1.362 0 01-.579-.255.548.548 0 01-.169-.433.747.747 0 01.265-.579c.205-.173.47-.26.738-.241.26-.011.517.052.742.182a.783.783 0 01.328.624h-.637a.326.326 0 00-.069-.191.456.456 0 00-.355-.132.502.502 0 00-.292.064.2.2 0 00-.065.066.186.186 0 00-.026.088.159.159 0 00.096.156c.213.081.435.14.66.177.209.038.405.13.565.27a.61.61 0 01.187.455.704.704 0 01-.269.588 1.598 1.598 0 01-1.672 0 .788.788 0 01-.273-.615l.647-.014zm4.087-1.395a.63.63 0 01.118.278c.019.151.027.304.023.456v1.422h-.647v-1.463a.683.683 0 00-.064-.314.34.34 0 00-.332-.169.458.458 0 00-.379.169.729.729 0 00-.132.478v1.313h-.633v-3.268h.633v1.158a.76.76 0 01.319-.292.855.855 0 01.383-.087c.139-.002.277.025.405.078a.727.727 0 01.306.241zm3.061.925a1.56 1.56 0 01-.264.94.975.975 0 01-1.23.25.931.931 0 01-.232-.25v.305h-.625v-3.277h.634v1.166a.934.934 0 01.264-.255.765.765 0 01.456-.114.907.907 0 01.747.347c.184.258.272.572.25.888zm-.665.069a1.135 1.135 0 00-.064-.429.483.483 0 00-.455-.314.487.487 0 00-.456.314c-.048.138-.07.283-.064.429a.915.915 0 00.137.52.46.46 0 00.419.205.455.455 0 00.383-.201.935.935 0 00.1-.52v-.004zm2.766-.032a.918.918 0 00-.146-.56.555.555 0 00-.857 0 .912.912 0 00-.15.56c-.013.2.039.398.15.565a.564.564 0 00.857 0 .947.947 0 00.146-.565zm-.575 1.294a1.131 1.131 0 01-.911-.378 1.507 1.507 0 010-1.823 1.326 1.326 0 011.864 0 1.52 1.52 0 010 1.823 1.135 1.135 0 01-.934.378h-.019zm3.048-1.258a.585.585 0 01-.118.064l-.169.041-.141.028a.908.908 0 00-.287.086.335.335 0 00-.096.456l.037.046a.35.35 0 00.219.072.625.625 0 00.378-.123.51.51 0 00.177-.455v-.215zm-.382-.296a.794.794 0 00.25-.054.189.189 0 00.137-.178.21.21 0 00-.105-.205.592.592 0 00-.305-.06.392.392 0 00-.315.11.466.466 0 00-.091.223h-.61a.903.903 0 01.178-.52 1.028 1.028 0 01.861-.323c.246-.005.49.05.71.16a.606.606 0 01.31.596v1.39a.33.33 0 00.037.174.24.24 0 00.091.073v.09h-.688a.729.729 0 01-.041-.136v-.132a1.196 1.196 0 01-.301.242.911.911 0 01-.456.118.766.766 0 01-.542-.191.653.653 0 01-.214-.53.705.705 0 01.342-.65c.174-.086.363-.139.556-.156l.196-.04zm2.984-1.012v.652h-.183a.53.53 0 00-.514.25.945.945 0 00-.073.434v1.157h-.638v-2.424h.601v.424a1.48 1.48 0 01.255-.333.712.712 0 01.456-.15h.087l.009-.01zm1.936.36v-1.157h.642v3.277h-.619v-.338a.857.857 0 01-.31.315.823.823 0 01-.428.1.912.912 0 01-.716-.346 1.306 1.306 0 01-.291-.88c-.019-.35.082-.696.287-.98a.914.914 0 01.761-.355.795.795 0 01.674.365zm0 .944a.813.813 0 00-.223-.638.484.484 0 00-.319-.114.458.458 0 00-.41.21.984.984 0 00-.128.52.915.915 0 00.132.537.456.456 0 00.401.205.456.456 0 00.41-.2.913.913 0 00.151-.52h-.014zm1.709.4a.419.419 0 00.091.242.567.567 0 00.433.128.661.661 0 00.296-.055.19.19 0 00.08-.067.188.188 0 00.029-.101.165.165 0 00-.019-.095.165.165 0 00-.068-.07 3.62 3.62 0 00-.66-.19 1.3 1.3 0 01-.579-.256.548.548 0 01-.173-.433.76.76 0 01.264-.579c.209-.17.474-.257.743-.241.259-.014.515.05.738.182a.777.777 0 01.333.624h-.638a.366.366 0 00-.068-.191.458.458 0 00-.356-.132.514.514 0 00-.296.064.183.183 0 00-.087.154.167.167 0 00.024.093.15.15 0 00.072.062c.214.082.435.141.661.178.209.038.404.13.565.27a.61.61 0 01.186.455.705.705 0 01-.268.588 1.6 1.6 0 01-1.672 0 .802.802 0 01-.274-.615l.643-.014z" clip-rule="evenodd"/><path stroke="#F96132" stroke-linecap="round" stroke-linejoin="round" stroke-width="2.5" d="M234.753 103.371h44.812a6.462 6.462 0 016.46 6.472v33.35a6.46 6.46 0 01-6.46 6.463h-44.812a6.463 6.463 0 01-6.461-6.463v-33.35a6.471 6.471 0 011.889-4.576 6.46 6.46 0 014.572-1.896v0z" clip-rule="evenodd"/><path fill="#F7A501" fill-rule="evenodd" stroke="#F7A501" stroke-linecap="round" stroke-linejoin="round" stroke-width="2.5" d="M233.482 152.974h34.966c2.784 0 5.039 2.894 5.039 6.463v33.358c0 3.569-2.255 6.463-5.039 6.463h-34.966c-2.784 0-5.039-2.894-5.039-6.463v-33.358c0-3.56 2.255-6.463 5.039-6.463z" clip-rule="evenodd"/><path fill="url(#pattern6)" d="M271.988 86.293h71.528v80.673h-71.528z"/><path stroke="#F96132" stroke-linecap="round" stroke-linejoin="round" stroke-width="2.5" d="M281.51 152.974h38.229c3.043 0 5.512 2.894 5.512 6.463v33.358c0 3.569-2.469 6.463-5.512 6.463H281.51c-3.043 0-5.513-2.894-5.513-6.463v-33.358c0-3.56 2.47-6.463 5.513-6.463z" clip-rule="evenodd"/><path stroke="#F96132" stroke-linecap="round" stroke-linejoin="round" stroke-width="2.5" d="M233.359 111.211v32.059l45.764.082"/><path stroke="#F96132" stroke-linecap="round" stroke-linejoin="round" stroke-width=".5" d="M233.719 111.739l44.648.164m-44.603 4.618l44.648-.087m-44.452 4.954l44.402-.383m-44.643 4.585l44.606.087m-45.13 4.417l45.217-.046m-45.217 4.558l45.217-.059m-45.299 4.703l45.217.023"/><path stroke="#fff" stroke-linecap="round" stroke-linejoin="round" stroke-width="17.74" d="M307.283 116.06a10.252 10.252 0 0110.321 12.03 10.258 10.258 0 01-7.873 8.234 10.245 10.245 0 01-10.616-4.124 10.253 10.253 0 01-1.855-5.657v-.023a10.258 10.258 0 0110.023-10.46z" clip-rule="evenodd"/><path fill="#fff" fill-rule="evenodd" d="M303.725 125.554v-.346c.113-.004.225-.015.337-.032a.459.459 0 00.246-.137.404.404 0 00.1-.182.42.42 0 00.023-.105h.419v2.584h-.515v-1.782h-.61zm3.681 1.226h-.292v.556h-.501v-.556h-1.02v-.456l.947-1.563h.57v1.641h.291l.005.378zm-.793-.378v-1.112l-.647 1.112h.647zm1.882-1.673a.807.807 0 01.811.524c.091.248.132.511.123.775.006.266-.034.532-.119.784a.844.844 0 01-.838.597.853.853 0 01-.519-.173.65.65 0 01-.265-.501h.502a.301.301 0 00.305.259.368.368 0 00.355-.282 1.5 1.5 0 00.068-.456.544.544 0 01-.15.137.679.679 0 01-.351.082.78.78 0 01-.721-.47.773.773 0 01-.062-.296v-.059a.954.954 0 01.241-.67.803.803 0 01.62-.251zm.232 1.285a.423.423 0 00.173-.382.554.554 0 00-.105-.347.329.329 0 00-.277-.132.382.382 0 00-.224.073.451.451 0 00-.145.387.517.517 0 00.095.347.348.348 0 00.287.114.376.376 0 00.196-.06zm1.422.529a.532.532 0 00.05.255.34.34 0 00.139.147.34.34 0 00.198.04.377.377 0 00.271-.117.376.376 0 00.098-.279.337.337 0 00-.192-.338 1.023 1.023 0 00-.369-.045v-.365a.969.969 0 00.342-.05.299.299 0 00.169-.301.358.358 0 00-.082-.241.347.347 0 00-.114-.071.312.312 0 00-.132-.02.304.304 0 00-.265.114.52.52 0 00-.082.305h-.455c.001-.124.022-.248.064-.365a.709.709 0 01.432-.419c.109-.035.223-.052.338-.05a.91.91 0 01.596.191.648.648 0 01.228.515.55.55 0 01-.137.383.515.515 0 01-.177.137.347.347 0 01.2.118.645.645 0 01.192.493.803.803 0 01-.228.574.869.869 0 01-.67.246.806.806 0 01-.761-.355 1.043 1.043 0 01-.127-.497l.474-.005z" clip-rule="evenodd"/><path stroke="#F7A501" stroke-linecap="round" stroke-linejoin="round" stroke-width="2.5" d="M282.467 161.31v32.051l36.588.082"/><path stroke="#fff" stroke-linecap="round" stroke-linejoin="round" stroke-width="2.5" d="M232.566 160.558v32.051l36.589.082"/><path stroke="#F96132" stroke-linecap="round" stroke-linejoin="round" stroke-width="2.5" d="M285.592 189.651l4.005-10.356 6.082 8.031 4.843-15.114 6.592 5.429 4.843-11.021 5.426-1.591 1.504-4.84"/><path stroke="#fff" stroke-linecap="round" stroke-linejoin="round" stroke-width="2.5" d="M235.668 188.899l4.01-10.356 6.091 8.022 4.843-15.114 6.592 5.429 4.839-11.021 5.426-1.586 1.503-4.845"/><path stroke="#F7A501" stroke-linecap="round" stroke-linejoin="round" stroke-width="1.5" d="M233.86 142.723l7.941-21.699 4.674 9.147 4.807-8.815 8.606 13.355 9.544-22.566 8.811 9.093"/></g><defs><pattern id="pattern0" width="1" height="1" patternContentUnits="objectBoundingBox"><use transform="scale(.00178 .00216)" xlink:href="#image0"/></pattern><pattern id="pattern1" width="1" height="1" patternContentUnits="objectBoundingBox"><use transform="scale(.0015 .00427)" xlink:href="#image1"/></pattern><pattern id="pattern2" width="1" height="1" patternContentUnits="objectBoundingBox"><use transform="scale(.00427 .0084)" xlink:href="#image2"/></pattern><pattern id="pattern3" width="1" height="1" patternContentUnits="objectBoundingBox"><use transform="scale(.00427 .0084)" xlink:href="#image3"/></pattern><pattern id="pattern4" width="1" height="1" patternContentUnits="objectBoundingBox"><use transform="scale(.0043 .0084)" xlink:href="#image4"/></pattern><pattern id="pattern5" width="1" height="1" patternContentUnits="objectBoundingBox"><use transform="scale(.0043 .00847)" xlink:href="#image5"/></pattern><pattern id="pattern6" width="1" height="1" patternContentUnits="objectBoundingBox"><use transform="scale(.00637 .00565)" xlink:href="#image6"/></pattern><clipPath id="clip0"><path fill="#fff" d="M0 0h578v347H0z"/></clipPath></defs></svg>