<svg width="500" height="557" viewBox="0 0 500 557" fill="none" xmlns="http://www.w3.org/2000/svg">
<rect width="666" height="557" rx="108" fill="#F7A501"/>
<path fill-rule="evenodd" clip-rule="evenodd" d="M262.1 197.855V187.609Z" fill="white"/>
<path d="M262.1 197.855V187.609" stroke="white" stroke-width="4.87" stroke-linecap="round" stroke-linejoin="round"/>
<path fill-rule="evenodd" clip-rule="evenodd" d="M178.712 268.281L187.554 267.761Z" fill="white"/>
<path d="M178.712 268.281L187.554 267.761" stroke="white" stroke-width="4.87" stroke-linecap="round" stroke-linejoin="round"/>
<path fill-rule="evenodd" clip-rule="evenodd" d="M144.041 208.781C143.934 204.443 144.695 200.127 146.28 196.088C147.865 192.048 150.242 188.367 153.271 185.261C156.299 182.154 159.919 179.686 163.916 178C167.912 176.315 172.206 175.446 176.543 175.446C180.881 175.446 185.174 176.315 189.171 178C193.168 179.686 196.787 182.154 199.816 185.261C202.845 188.367 205.222 192.048 206.807 196.088C208.392 200.127 209.153 204.443 209.045 208.781C208.526 239.481 178.542 267.931 178.542 267.931C178.542 267.931 144.741 241.22 144.041 208.781Z" fill="white" stroke="white" stroke-width="4.87" stroke-linecap="round" stroke-linejoin="round"/>
<path fill-rule="evenodd" clip-rule="evenodd" d="M285.33 146.093C285.461 142.927 284.95 139.766 283.829 136.802C282.708 133.838 280.999 131.131 278.806 128.845C276.613 126.558 273.98 124.738 271.067 123.495C268.153 122.253 265.018 121.612 261.85 121.612C258.683 121.612 255.548 122.253 252.634 123.495C249.72 124.738 247.087 126.558 244.894 128.845C242.701 131.131 240.993 133.838 239.871 136.802C238.75 139.766 238.24 142.927 238.37 146.093C238.74 168.275 260.421 188.838 260.421 188.838C260.421 188.838 284.83 169.535 285.33 146.093Z" fill="white" stroke="white" stroke-width="4.87" stroke-linecap="round" stroke-linejoin="round"/>
<path fill-rule="evenodd" clip-rule="evenodd" d="M195.008 265.332L209.745 257.334Z" fill="white"/>
<path d="M195.008 265.332L209.745 257.334" stroke="white" stroke-width="4.87" stroke-linecap="round" stroke-linejoin="round"/>
<path fill-rule="evenodd" clip-rule="evenodd" d="M216.329 251.587L222.394 236.672Z" fill="white"/>
<path d="M216.329 251.587L222.394 236.672" stroke="white" stroke-width="4.87" stroke-linecap="round" stroke-linejoin="round"/>
<path fill-rule="evenodd" clip-rule="evenodd" d="M227.04 225.786L235.183 215.379Z" fill="white"/>
<path d="M227.04 225.786L235.183 215.379" stroke="white" stroke-width="4.87" stroke-linecap="round" stroke-linejoin="round"/>
<path fill-rule="evenodd" clip-rule="evenodd" d="M247.882 212.08L258.113 207.402Z" fill="white"/>
<path d="M247.882 212.08L258.113 207.402" stroke="white" stroke-width="4.87" stroke-linecap="round" stroke-linejoin="round"/>
<path fill-rule="evenodd" clip-rule="evenodd" d="M161.037 210.951C160.969 207.833 161.832 204.766 163.514 202.141C165.196 199.516 167.621 197.451 170.481 196.211C173.341 194.971 176.505 194.611 179.57 195.178C182.635 195.744 185.462 197.212 187.69 199.393C189.918 201.573 191.446 204.369 192.079 207.422C192.712 210.475 192.422 213.648 191.245 216.536C190.069 219.424 188.059 221.895 185.473 223.635C182.886 225.375 179.84 226.305 176.723 226.306C174.685 226.329 172.662 225.951 170.771 225.192C168.879 224.433 167.155 223.308 165.698 221.882C164.241 220.456 163.08 218.756 162.28 216.881C161.48 215.005 161.058 212.99 161.037 210.951V210.951Z" fill="#F7A501" stroke="white" stroke-width="4.87" stroke-linecap="round" stroke-linejoin="round"/>
<path fill-rule="evenodd" clip-rule="evenodd" d="M270.263 148.322C270.263 146.68 269.776 145.074 268.863 143.709C267.95 142.343 266.652 141.28 265.134 140.653C263.617 140.026 261.947 139.864 260.338 140.188C258.728 140.511 257.25 141.305 256.092 142.47C254.934 143.634 254.147 145.116 253.832 146.728C253.516 148.341 253.686 150.01 254.32 151.525C254.954 153.041 256.023 154.334 257.392 155.241C258.761 156.148 260.368 156.628 262.01 156.62C264.203 156.612 266.304 155.734 267.851 154.178C269.398 152.623 270.266 150.517 270.263 148.322V148.322Z" fill="#F7A501" stroke="white" stroke-width="4.87" stroke-linecap="round" stroke-linejoin="round"/>
<path d="M131.729 384.04H141.281V397H136.481V386.056H122.129V397H117.329V364.36H128.081C130.577 364.36 132.689 364.616 134.417 365.128C136.145 365.64 137.457 366.408 138.353 367.432C139.249 368.424 139.873 369.512 140.225 370.696C140.609 371.848 140.801 373.224 140.801 374.824C140.801 377.576 140.145 379.608 138.833 380.92C137.553 382.232 135.185 383.016 131.729 383.272V384.04ZM122.129 381.736H128.081C131.249 381.736 133.361 381.288 134.417 380.392C135.473 379.464 136.001 377.768 136.001 375.304C136.001 372.744 135.473 371 134.417 370.072C133.361 369.144 131.249 368.68 128.081 368.68H122.129V381.736ZM165.539 394.12C163.523 396.36 160.707 397.48 157.091 397.48C153.475 397.48 150.659 396.36 148.643 394.12C146.627 391.848 145.619 388.808 145.619 385C145.619 381.192 146.627 378.168 148.643 375.928C150.659 373.656 153.475 372.52 157.091 372.52C160.707 372.52 163.523 373.656 165.539 375.928C167.555 378.168 168.563 381.192 168.563 385C168.563 388.808 167.555 391.848 165.539 394.12ZM151.859 391.432C152.851 392.584 154.595 393.16 157.091 393.16C159.587 393.16 161.315 392.584 162.275 391.432C163.267 390.248 163.763 388.104 163.763 385C163.763 381.896 163.267 379.768 162.275 378.616C161.315 377.432 159.587 376.84 157.091 376.84C154.595 376.84 152.851 377.432 151.859 378.616C150.899 379.768 150.419 381.896 150.419 385C150.419 388.104 150.899 390.248 151.859 391.432ZM192.495 392.2H195.375V397H187.695V394.6C186.255 396.52 184.031 397.48 181.023 397.48C178.271 397.48 176.143 396.648 174.639 394.984C173.167 393.288 172.431 391.24 172.431 388.84C172.431 386.44 173.167 384.408 174.639 382.744C176.143 381.048 178.271 380.2 181.023 380.2C184.031 380.2 186.255 381.16 187.695 383.08V377.32H175.215V373H192.495V392.2ZM178.527 392.008C179.423 392.776 180.735 393.16 182.463 393.16C184.191 393.16 185.487 392.776 186.351 392.008C187.247 391.24 187.695 390.184 187.695 388.84C187.695 387.496 187.247 386.44 186.351 385.672C185.487 384.904 184.191 384.52 182.463 384.52C180.735 384.52 179.423 384.904 178.527 385.672C177.663 386.44 177.231 387.496 177.231 388.84C177.231 390.184 177.663 391.24 178.527 392.008ZM216.392 363.4H221.192V397H216.392V394.12C214.824 396.36 212.44 397.48 209.24 397.48C205.56 397.48 202.888 396.36 201.224 394.12C199.56 391.848 198.728 388.808 198.728 385C198.728 381.192 199.56 378.168 201.224 375.928C202.888 373.656 205.56 372.52 209.24 372.52C212.44 372.52 214.824 373.64 216.392 375.88V363.4ZM204.968 391.288C205.96 392.536 207.624 393.16 209.96 393.16C212.296 393.16 213.944 392.536 214.904 391.288C215.896 390.008 216.392 387.912 216.392 385C216.392 382.088 215.896 380.008 214.904 378.76C213.944 377.48 212.296 376.84 209.96 376.84C207.624 376.84 205.96 377.48 204.968 378.76C204.008 380.008 203.528 382.088 203.528 385C203.528 387.912 204.008 390.008 204.968 391.288ZM259.118 373V397H254.318V377.32H245.678V397H240.878V377.32H232.238V397H227.438V373H259.118ZM283.995 392.2H286.875V397H279.195V394.6C277.755 396.52 275.531 397.48 272.523 397.48C269.771 397.48 267.643 396.648 266.139 394.984C264.667 393.288 263.931 391.24 263.931 388.84C263.931 386.44 264.667 384.408 266.139 382.744C267.643 381.048 269.771 380.2 272.523 380.2C275.531 380.2 277.755 381.16 279.195 383.08V377.32H266.715V373H283.995V392.2ZM270.027 392.008C270.923 392.776 272.235 393.16 273.963 393.16C275.691 393.16 276.987 392.776 277.851 392.008C278.747 391.24 279.195 390.184 279.195 388.84C279.195 387.496 278.747 386.44 277.851 385.672C276.987 384.904 275.691 384.52 273.963 384.52C272.235 384.52 270.923 384.904 270.027 385.672C269.163 386.44 268.731 387.496 268.731 388.84C268.731 390.184 269.163 391.24 270.027 392.008ZM304.125 372.52C307.805 372.52 310.477 373.656 312.141 375.928C313.805 378.168 314.637 381.192 314.637 385C314.637 388.808 313.805 391.848 312.141 394.12C310.477 396.36 307.805 397.48 304.125 397.48C300.925 397.48 298.541 396.36 296.973 394.12V404.68H292.173V373H296.973V375.88C298.541 373.64 300.925 372.52 304.125 372.52ZM298.413 391.288C299.405 392.536 301.069 393.16 303.405 393.16C305.741 393.16 307.389 392.536 308.349 391.288C309.341 390.008 309.837 387.912 309.837 385C309.837 382.088 309.341 380.008 308.349 378.76C307.389 377.48 305.741 376.84 303.405 376.84C301.069 376.84 299.405 377.48 298.413 378.76C297.453 380.008 296.973 382.088 296.973 385C296.973 387.912 297.453 390.008 298.413 391.288Z" fill="white"/>
<path d="M101.188 434.58V456H104.038V446.85H110.998C111.698 446.85 112.258 446.96 112.678 447.18C113.098 447.38 113.438 447.66 113.698 448.02C113.958 448.36 114.148 448.77 114.268 449.25C114.388 449.71 114.488 450.2 114.568 450.72C114.668 451.24 114.728 451.77 114.748 452.31C114.768 452.85 114.788 453.36 114.808 453.84C114.828 454.3 114.868 454.72 114.928 455.1C115.008 455.48 115.148 455.78 115.348 456H118.528C118.228 455.64 117.998 455.23 117.838 454.77C117.698 454.29 117.588 453.79 117.508 453.27C117.428 452.75 117.378 452.22 117.358 451.68C117.338 451.14 117.308 450.61 117.268 450.09C117.208 449.57 117.118 449.07 116.998 448.59C116.898 448.11 116.728 447.68 116.488 447.3C116.268 446.9 115.958 446.56 115.558 446.28C115.178 446 114.678 445.8 114.058 445.68V445.62C115.358 445.26 116.298 444.59 116.878 443.61C117.478 442.63 117.778 441.49 117.778 440.19C117.778 438.45 117.198 437.08 116.038 436.08C114.898 435.08 113.308 434.58 111.268 434.58H101.188ZM109.978 444.45H104.038V436.98H111.118C112.458 436.98 113.428 437.32 114.028 438C114.628 438.68 114.928 439.56 114.928 440.64C114.928 441.42 114.788 442.06 114.508 442.56C114.248 443.04 113.888 443.43 113.428 443.73C112.988 444.01 112.468 444.2 111.868 444.3C111.268 444.4 110.638 444.45 109.978 444.45ZM132.075 446.76H123.165C123.205 446.16 123.335 445.6 123.555 445.08C123.775 444.54 124.075 444.07 124.455 443.67C124.835 443.27 125.285 442.96 125.805 442.74C126.345 442.5 126.945 442.38 127.605 442.38C128.245 442.38 128.825 442.5 129.345 442.74C129.885 442.96 130.345 443.27 130.725 443.67C131.125 444.05 131.435 444.51 131.655 445.05C131.895 445.59 132.035 446.16 132.075 446.76ZM134.535 451.08H132.015C131.795 452.1 131.335 452.86 130.635 453.36C129.955 453.86 129.075 454.11 127.995 454.11C127.155 454.11 126.425 453.97 125.805 453.69C125.185 453.41 124.675 453.04 124.275 452.58C123.875 452.1 123.585 451.56 123.405 450.96C123.225 450.34 123.145 449.69 123.165 449.01H134.775C134.815 448.07 134.725 447.08 134.505 446.04C134.305 445 133.925 444.04 133.365 443.16C132.825 442.28 132.095 441.56 131.175 441C130.275 440.42 129.135 440.13 127.755 440.13C126.695 440.13 125.715 440.33 124.815 440.73C123.935 441.13 123.165 441.69 122.505 442.41C121.865 443.13 121.365 443.98 121.005 444.96C120.645 445.94 120.465 447.02 120.465 448.2C120.505 449.38 120.675 450.47 120.975 451.47C121.295 452.47 121.765 453.33 122.385 454.05C123.005 454.77 123.765 455.33 124.665 455.73C125.585 456.13 126.665 456.33 127.905 456.33C129.665 456.33 131.125 455.89 132.285 455.01C133.445 454.13 134.195 452.82 134.535 451.08ZM139.278 448.38C139.278 447.62 139.358 446.88 139.518 446.16C139.678 445.44 139.938 444.8 140.298 444.24C140.658 443.68 141.138 443.23 141.738 442.89C142.338 442.55 143.068 442.38 143.928 442.38C144.808 442.38 145.558 442.55 146.178 442.89C146.798 443.21 147.298 443.64 147.678 444.18C148.078 444.72 148.368 445.35 148.548 446.07C148.728 446.77 148.818 447.5 148.818 448.26C148.818 448.98 148.728 449.69 148.548 450.39C148.388 451.09 148.118 451.72 147.738 452.28C147.358 452.82 146.868 453.26 146.268 453.6C145.668 453.94 144.938 454.11 144.078 454.11C143.258 454.11 142.538 453.95 141.918 453.63C141.318 453.31 140.818 452.88 140.418 452.34C140.038 451.8 139.748 451.19 139.548 450.51C139.368 449.81 139.278 449.1 139.278 448.38ZM151.278 461.91V440.49H148.728V442.56H148.668C148.388 442.1 148.038 441.72 147.618 441.42C147.218 441.1 146.788 440.85 146.328 440.67C145.868 440.47 145.408 440.33 144.948 440.25C144.488 440.17 144.058 440.13 143.658 440.13C142.478 440.13 141.438 440.35 140.538 440.79C139.658 441.21 138.918 441.79 138.318 442.53C137.738 443.25 137.298 444.1 136.998 445.08C136.718 446.06 136.578 447.1 136.578 448.2C136.578 449.3 136.728 450.34 137.028 451.32C137.328 452.3 137.768 453.16 138.348 453.9C138.948 454.64 139.688 455.23 140.568 455.67C141.468 456.11 142.518 456.33 143.718 456.33C144.798 456.33 145.788 456.14 146.688 455.76C147.588 455.38 148.248 454.76 148.668 453.9H148.728V461.91H151.278ZM168.041 456V440.49H165.491V449.25C165.491 449.95 165.391 450.6 165.191 451.2C165.011 451.78 164.731 452.29 164.351 452.73C163.971 453.17 163.491 453.51 162.911 453.75C162.351 453.99 161.681 454.11 160.901 454.11C159.921 454.11 159.151 453.83 158.591 453.27C158.031 452.71 157.751 451.95 157.751 450.99V440.49H155.201V450.69C155.201 451.53 155.281 452.3 155.441 453C155.621 453.68 155.921 454.27 156.341 454.77C156.761 455.27 157.311 455.66 157.991 455.94C158.671 456.2 159.521 456.33 160.541 456.33C161.681 456.33 162.671 456.11 163.511 455.67C164.351 455.21 165.041 454.5 165.581 453.54H165.641V456H168.041ZM182.641 446.76H173.731C173.771 446.16 173.901 445.6 174.121 445.08C174.341 444.54 174.641 444.07 175.021 443.67C175.401 443.27 175.851 442.96 176.371 442.74C176.911 442.5 177.511 442.38 178.171 442.38C178.811 442.38 179.391 442.5 179.911 442.74C180.451 442.96 180.911 443.27 181.291 443.67C181.691 444.05 182.001 444.51 182.221 445.05C182.461 445.59 182.601 446.16 182.641 446.76ZM185.101 451.08H182.581C182.361 452.1 181.901 452.86 181.201 453.36C180.521 453.86 179.641 454.11 178.561 454.11C177.721 454.11 176.991 453.97 176.371 453.69C175.751 453.41 175.241 453.04 174.841 452.58C174.441 452.1 174.151 451.56 173.971 450.96C173.791 450.34 173.711 449.69 173.731 449.01H185.341C185.381 448.07 185.291 447.08 185.071 446.04C184.871 445 184.491 444.04 183.931 443.16C183.391 442.28 182.661 441.56 181.741 441C180.841 440.42 179.701 440.13 178.321 440.13C177.261 440.13 176.281 440.33 175.381 440.73C174.501 441.13 173.731 441.69 173.071 442.41C172.431 443.13 171.931 443.98 171.571 444.96C171.211 445.94 171.031 447.02 171.031 448.2C171.071 449.38 171.241 450.47 171.541 451.47C171.861 452.47 172.331 453.33 172.951 454.05C173.571 454.77 174.331 455.33 175.231 455.73C176.151 456.13 177.231 456.33 178.471 456.33C180.231 456.33 181.691 455.89 182.851 455.01C184.011 454.13 184.761 452.82 185.101 451.08ZM189.544 451.11H186.994C187.034 452.07 187.234 452.89 187.594 453.57C187.954 454.23 188.434 454.77 189.034 455.19C189.634 455.59 190.324 455.88 191.104 456.06C191.884 456.24 192.704 456.33 193.564 456.33C194.344 456.33 195.124 456.25 195.904 456.09C196.704 455.95 197.414 455.69 198.034 455.31C198.674 454.93 199.184 454.43 199.564 453.81C199.964 453.19 200.164 452.41 200.164 451.47C200.164 450.73 200.014 450.11 199.714 449.61C199.434 449.11 199.054 448.7 198.574 448.38C198.114 448.04 197.574 447.77 196.954 447.57C196.354 447.37 195.734 447.2 195.094 447.06C194.494 446.92 193.894 446.79 193.294 446.67C192.694 446.53 192.154 446.37 191.674 446.19C191.194 445.99 190.794 445.75 190.474 445.47C190.174 445.17 190.024 444.8 190.024 444.36C190.024 443.96 190.124 443.64 190.324 443.4C190.524 443.14 190.784 442.94 191.104 442.8C191.424 442.64 191.774 442.53 192.154 442.47C192.554 442.41 192.944 442.38 193.324 442.38C193.744 442.38 194.154 442.43 194.554 442.53C194.974 442.61 195.354 442.75 195.694 442.95C196.034 443.15 196.314 443.42 196.534 443.76C196.754 444.08 196.884 444.49 196.924 444.99H199.474C199.414 444.05 199.214 443.27 198.874 442.65C198.534 442.01 198.074 441.51 197.494 441.15C196.934 440.77 196.284 440.51 195.544 440.37C194.804 440.21 193.994 440.13 193.114 440.13C192.434 440.13 191.744 440.22 191.044 440.4C190.364 440.56 189.744 440.82 189.184 441.18C188.644 441.52 188.194 441.97 187.834 442.53C187.494 443.09 187.324 443.76 187.324 444.54C187.324 445.54 187.574 446.32 188.074 446.88C188.574 447.44 189.194 447.88 189.934 448.2C190.694 448.5 191.514 448.74 192.394 448.92C193.274 449.08 194.084 449.27 194.824 449.49C195.584 449.69 196.214 449.96 196.714 450.3C197.214 450.64 197.464 451.14 197.464 451.8C197.464 452.28 197.344 452.68 197.104 453C196.864 453.3 196.554 453.53 196.174 453.69C195.814 453.85 195.414 453.96 194.974 454.02C194.534 454.08 194.114 454.11 193.714 454.11C193.194 454.11 192.684 454.06 192.184 453.96C191.704 453.86 191.264 453.7 190.864 453.48C190.484 453.24 190.174 452.93 189.934 452.55C189.694 452.15 189.564 451.67 189.544 451.11ZM206.524 440.49V435.84H203.974V440.49H201.334V442.74H203.974V452.61C203.974 453.33 204.044 453.91 204.184 454.35C204.324 454.79 204.534 455.13 204.814 455.37C205.114 455.61 205.494 455.78 205.954 455.88C206.434 455.96 207.004 456 207.664 456H209.614V453.75H208.444C208.044 453.75 207.714 453.74 207.454 453.72C207.214 453.68 207.024 453.61 206.884 453.51C206.744 453.41 206.644 453.27 206.584 453.09C206.544 452.91 206.524 452.67 206.524 452.37V442.74H209.614V440.49H206.524ZM234.537 455.94C234.097 456.2 233.487 456.33 232.707 456.33C232.047 456.33 231.517 456.15 231.117 455.79C230.737 455.41 230.547 454.8 230.547 453.96C229.847 454.8 229.027 455.41 228.087 455.79C227.167 456.15 226.167 456.33 225.087 456.33C224.387 456.33 223.717 456.25 223.077 456.09C222.457 455.93 221.917 455.68 221.457 455.34C220.997 455 220.627 454.56 220.347 454.02C220.087 453.46 219.957 452.79 219.957 452.01C219.957 451.13 220.107 450.41 220.407 449.85C220.707 449.29 221.097 448.84 221.577 448.5C222.077 448.14 222.637 447.87 223.257 447.69C223.897 447.51 224.547 447.36 225.207 447.24C225.907 447.1 226.567 447 227.187 446.94C227.827 446.86 228.387 446.76 228.867 446.64C229.347 446.5 229.727 446.31 230.007 446.07C230.287 445.81 230.427 445.44 230.427 444.96C230.427 444.4 230.317 443.95 230.097 443.61C229.897 443.27 229.627 443.01 229.287 442.83C228.967 442.65 228.597 442.53 228.177 442.47C227.777 442.41 227.377 442.38 226.977 442.38C225.897 442.38 224.997 442.59 224.277 443.01C223.557 443.41 223.167 444.18 223.107 445.32H220.557C220.597 444.36 220.797 443.55 221.157 442.89C221.517 442.23 221.997 441.7 222.597 441.3C223.197 440.88 223.877 440.58 224.637 440.4C225.417 440.22 226.247 440.13 227.127 440.13C227.827 440.13 228.517 440.18 229.197 440.28C229.897 440.38 230.527 440.59 231.087 440.91C231.647 441.21 232.097 441.64 232.437 442.2C232.777 442.76 232.947 443.49 232.947 444.39V452.37C232.947 452.97 232.977 453.41 233.037 453.69C233.117 453.97 233.357 454.11 233.757 454.11C233.977 454.11 234.237 454.06 234.537 453.96V455.94ZM230.397 447.99C230.077 448.23 229.657 448.41 229.137 448.53C228.617 448.63 228.067 448.72 227.487 448.8C226.927 448.86 226.357 448.94 225.777 449.04C225.197 449.12 224.677 449.26 224.217 449.46C223.757 449.66 223.377 449.95 223.077 450.33C222.797 450.69 222.657 451.19 222.657 451.83C222.657 452.25 222.737 452.61 222.897 452.91C223.077 453.19 223.297 453.42 223.557 453.6C223.837 453.78 224.157 453.91 224.517 453.99C224.877 454.07 225.257 454.11 225.657 454.11C226.497 454.11 227.217 454 227.817 453.78C228.417 453.54 228.907 453.25 229.287 452.91C229.667 452.55 229.947 452.17 230.127 451.77C230.307 451.35 230.397 450.96 230.397 450.6V447.99ZM246.31 442.74V456H248.86V442.74H251.86V440.49H248.86V438.33C248.86 437.65 249.03 437.19 249.37 436.95C249.71 436.71 250.19 436.59 250.81 436.59C251.03 436.59 251.27 436.61 251.53 436.65C251.79 436.67 252.03 436.72 252.25 436.8V434.58C252.01 434.5 251.73 434.44 251.41 434.4C251.11 434.36 250.84 434.34 250.6 434.34C249.2 434.34 248.13 434.67 247.39 435.33C246.67 435.97 246.31 436.92 246.31 438.18V440.49H243.7V442.74H246.31ZM264.907 446.76H255.997C256.037 446.16 256.167 445.6 256.387 445.08C256.607 444.54 256.907 444.07 257.287 443.67C257.667 443.27 258.117 442.96 258.637 442.74C259.177 442.5 259.777 442.38 260.437 442.38C261.077 442.38 261.657 442.5 262.177 442.74C262.717 442.96 263.177 443.27 263.557 443.67C263.957 444.05 264.267 444.51 264.487 445.05C264.727 445.59 264.867 446.16 264.907 446.76ZM267.367 451.08H264.847C264.627 452.1 264.167 452.86 263.467 453.36C262.787 453.86 261.907 454.11 260.827 454.11C259.987 454.11 259.257 453.97 258.637 453.69C258.017 453.41 257.507 453.04 257.107 452.58C256.707 452.1 256.417 451.56 256.237 450.96C256.057 450.34 255.977 449.69 255.997 449.01H267.607C267.647 448.07 267.557 447.08 267.337 446.04C267.137 445 266.757 444.04 266.197 443.16C265.657 442.28 264.927 441.56 264.007 441C263.107 440.42 261.967 440.13 260.587 440.13C259.527 440.13 258.547 440.33 257.647 440.73C256.767 441.13 255.997 441.69 255.337 442.41C254.697 443.13 254.197 443.98 253.837 444.96C253.477 445.94 253.297 447.02 253.297 448.2C253.337 449.38 253.507 450.47 253.807 451.47C254.127 452.47 254.597 453.33 255.217 454.05C255.837 454.77 256.597 455.33 257.497 455.73C258.417 456.13 259.497 456.33 260.737 456.33C262.497 456.33 263.957 455.89 265.117 455.01C266.277 454.13 267.027 452.82 267.367 451.08ZM283.99 455.94C283.55 456.2 282.94 456.33 282.16 456.33C281.5 456.33 280.97 456.15 280.57 455.79C280.19 455.41 280 454.8 280 453.96C279.3 454.8 278.48 455.41 277.54 455.79C276.62 456.15 275.62 456.33 274.54 456.33C273.84 456.33 273.17 456.25 272.53 456.09C271.91 455.93 271.37 455.68 270.91 455.34C270.45 455 270.08 454.56 269.8 454.02C269.54 453.46 269.41 452.79 269.41 452.01C269.41 451.13 269.56 450.41 269.86 449.85C270.16 449.29 270.55 448.84 271.03 448.5C271.53 448.14 272.09 447.87 272.71 447.69C273.35 447.51 274 447.36 274.66 447.24C275.36 447.1 276.02 447 276.64 446.94C277.28 446.86 277.84 446.76 278.32 446.64C278.8 446.5 279.18 446.31 279.46 446.07C279.74 445.81 279.88 445.44 279.88 444.96C279.88 444.4 279.77 443.95 279.55 443.61C279.35 443.27 279.08 443.01 278.74 442.83C278.42 442.65 278.05 442.53 277.63 442.47C277.23 442.41 276.83 442.38 276.43 442.38C275.35 442.38 274.45 442.59 273.73 443.01C273.01 443.41 272.62 444.18 272.56 445.32H270.01C270.05 444.36 270.25 443.55 270.61 442.89C270.97 442.23 271.45 441.7 272.05 441.3C272.65 440.88 273.33 440.58 274.09 440.4C274.87 440.22 275.7 440.13 276.58 440.13C277.28 440.13 277.97 440.18 278.65 440.28C279.35 440.38 279.98 440.59 280.54 440.91C281.1 441.21 281.55 441.64 281.89 442.2C282.23 442.76 282.4 443.49 282.4 444.39V452.37C282.4 452.97 282.43 453.41 282.49 453.69C282.57 453.97 282.81 454.11 283.21 454.11C283.43 454.11 283.69 454.06 283.99 453.96V455.94ZM279.85 447.99C279.53 448.23 279.11 448.41 278.59 448.53C278.07 448.63 277.52 448.72 276.94 448.8C276.38 448.86 275.81 448.94 275.23 449.04C274.65 449.12 274.13 449.26 273.67 449.46C273.21 449.66 272.83 449.95 272.53 450.33C272.25 450.69 272.11 451.19 272.11 451.83C272.11 452.25 272.19 452.61 272.35 452.91C272.53 453.19 272.75 453.42 273.01 453.6C273.29 453.78 273.61 453.91 273.97 453.99C274.33 454.07 274.71 454.11 275.11 454.11C275.95 454.11 276.67 454 277.27 453.78C277.87 453.54 278.36 453.25 278.74 452.91C279.12 452.55 279.4 452.17 279.58 451.77C279.76 451.35 279.85 450.96 279.85 450.6V447.99ZM289.903 440.49V435.84H287.353V440.49H284.713V442.74H287.353V452.61C287.353 453.33 287.423 453.91 287.563 454.35C287.703 454.79 287.913 455.13 288.193 455.37C288.493 455.61 288.873 455.78 289.333 455.88C289.813 455.96 290.383 456 291.043 456H292.993V453.75H291.823C291.423 453.75 291.093 453.74 290.833 453.72C290.593 453.68 290.403 453.61 290.263 453.51C290.123 453.41 290.023 453.27 289.963 453.09C289.923 452.91 289.903 452.67 289.903 452.37V442.74H292.993V440.49H289.903ZM308.666 456V440.49H306.116V449.25C306.116 449.95 306.016 450.6 305.816 451.2C305.636 451.78 305.356 452.29 304.976 452.73C304.596 453.17 304.116 453.51 303.536 453.75C302.976 453.99 302.306 454.11 301.526 454.11C300.546 454.11 299.776 453.83 299.216 453.27C298.656 452.71 298.376 451.95 298.376 450.99V440.49H295.826V450.69C295.826 451.53 295.906 452.3 296.066 453C296.246 453.68 296.546 454.27 296.966 454.77C297.386 455.27 297.936 455.66 298.616 455.94C299.296 456.2 300.146 456.33 301.166 456.33C302.306 456.33 303.296 456.11 304.136 455.67C304.976 455.21 305.666 454.5 306.206 453.54H306.266V456H308.666ZM312.406 440.49V456H314.956V449.1C314.956 448.1 315.056 447.22 315.256 446.46C315.456 445.68 315.776 445.02 316.216 444.48C316.656 443.94 317.236 443.53 317.956 443.25C318.676 442.97 319.546 442.83 320.566 442.83V440.13C319.186 440.09 318.046 440.37 317.146 440.97C316.246 441.57 315.486 442.5 314.866 443.76H314.806V440.49H312.406ZM332.729 446.76H323.819C323.859 446.16 323.989 445.6 324.209 445.08C324.429 444.54 324.729 444.07 325.109 443.67C325.489 443.27 325.939 442.96 326.459 442.74C326.999 442.5 327.599 442.38 328.259 442.38C328.899 442.38 329.479 442.5 329.999 442.74C330.539 442.96 330.999 443.27 331.379 443.67C331.779 444.05 332.089 444.51 332.309 445.05C332.549 445.59 332.689 446.16 332.729 446.76ZM335.189 451.08H332.669C332.449 452.1 331.989 452.86 331.289 453.36C330.609 453.86 329.729 454.11 328.649 454.11C327.809 454.11 327.079 453.97 326.459 453.69C325.839 453.41 325.329 453.04 324.929 452.58C324.529 452.1 324.239 451.56 324.059 450.96C323.879 450.34 323.799 449.69 323.819 449.01H335.429C335.469 448.07 335.379 447.08 335.159 446.04C334.959 445 334.579 444.04 334.019 443.16C333.479 442.28 332.749 441.56 331.829 441C330.929 440.42 329.789 440.13 328.409 440.13C327.349 440.13 326.369 440.33 325.469 440.73C324.589 441.13 323.819 441.69 323.159 442.41C322.519 443.13 322.019 443.98 321.659 444.96C321.299 445.94 321.119 447.02 321.119 448.2C321.159 449.38 321.329 450.47 321.629 451.47C321.949 452.47 322.419 453.33 323.039 454.05C323.659 454.77 324.419 455.33 325.319 455.73C326.239 456.13 327.319 456.33 328.559 456.33C330.319 456.33 331.779 455.89 332.939 455.01C334.099 454.13 334.849 452.82 335.189 451.08Z" fill="white"/>
</svg>
