<svg width="303" height="377" viewBox="0 0 303 377" fill="none" xmlns="http://www.w3.org/2000/svg">
<rect width="303" height="377" fill="white"/>
<path fill-rule="evenodd" clip-rule="evenodd" d="M60.8978 0.5H242.102C258.119 0.5 273.48 6.86524 284.807 18.1957C296.133 29.5262 302.498 44.8941 302.5 60.9192V316.061C302.504 323.999 300.945 331.861 297.912 339.196C294.878 346.531 290.43 353.196 284.821 358.81C279.212 364.425 272.552 368.879 265.223 371.918C257.893 374.956 250.036 376.52 242.102 376.52H60.8978C44.8792 376.52 29.5166 370.154 18.1898 358.821C6.86292 347.488 0.499573 332.118 0.499573 316.091V60.9192C0.502222 44.8941 6.86675 29.5262 18.1933 18.1957C29.5199 6.86524 44.8809 0.5 60.8978 0.5Z" fill="#F7A501"/>
<path fill-rule="evenodd" clip-rule="evenodd" d="M90.932 262.719C90.9377 263.994 90.592 265.247 89.9329 266.338C89.1886 267.545 88.1593 268.551 86.9354 269.267C87.5466 269.486 88.1072 269.826 88.584 270.267C89.037 270.672 89.4217 271.148 89.723 271.676C90.0137 272.204 90.2322 272.769 90.3725 273.356C90.5106 273.939 90.581 274.536 90.5823 275.135V279.353C90.6035 280.001 90.7353 280.64 90.9719 281.243C91.2549 282.008 91.6095 282.744 92.031 283.442H86.6157C86.4055 283.115 86.2376 282.762 86.1161 282.392C85.9898 282.044 85.8897 281.686 85.8164 281.323C85.7509 280.993 85.7075 280.659 85.6865 280.323C85.6865 280.013 85.6865 279.733 85.6865 279.503V275.055C85.6867 274.609 85.6124 274.167 85.4667 273.745C85.322 273.31 85.0794 272.913 84.7573 272.586C84.3915 272.223 83.9566 271.938 83.4784 271.746C82.8667 271.511 82.2149 271.399 81.56 271.416H74.0864V283.412H69.0907V254.132H81.5101C82.8797 254.115 84.2388 254.373 85.5067 254.892C86.6271 255.355 87.6455 256.035 88.5041 256.891C90.0674 258.445 90.9543 260.554 90.9719 262.759L90.932 262.719ZM73.9466 267.258H81.4201C82.0057 267.26 82.5862 267.148 83.1287 266.928C83.6543 266.715 84.138 266.41 84.5575 266.028C84.9859 265.638 85.3265 265.161 85.5566 264.629C85.801 264.061 85.9236 263.448 85.9163 262.829C85.9242 262.213 85.8087 261.601 85.5766 261.03C85.3676 260.495 85.0513 260.008 84.6474 259.6C84.2409 259.197 83.7588 258.877 83.2286 258.661C82.6655 258.425 82.0605 258.306 81.4501 258.311H73.9765L73.9466 267.258Z" fill="white"/>
<path fill-rule="evenodd" clip-rule="evenodd" d="M95.548 272.776C95.5387 271.316 95.7647 269.865 96.2174 268.477C96.6509 267.18 97.3292 265.979 98.2157 264.938C99.0826 263.915 100.159 263.09 101.373 262.519C102.721 261.932 104.175 261.629 105.644 261.629C107.114 261.629 108.568 261.932 109.916 262.519C111.132 263.09 112.212 263.915 113.083 264.938C113.972 265.977 114.651 267.179 115.081 268.477C115.978 271.266 115.978 274.266 115.081 277.054C114.649 278.349 113.971 279.547 113.083 280.583C112.213 281.598 111.132 282.41 109.916 282.962C108.565 283.536 107.112 283.832 105.644 283.832C104.177 283.832 102.724 283.536 101.373 282.962C100.157 282.41 99.0754 281.598 98.2057 280.583C97.3181 279.547 96.6395 278.349 96.2074 277.054C95.7567 275.673 95.534 274.228 95.548 272.776ZM100.494 272.776C100.49 273.684 100.607 274.588 100.843 275.465C101.048 276.25 101.386 276.994 101.843 277.664C102.257 278.274 102.804 278.783 103.441 279.153C104.096 279.514 104.832 279.703 105.579 279.703C106.327 279.703 107.062 279.514 107.718 279.153C108.359 278.781 108.911 278.272 109.336 277.664C109.793 276.994 110.13 276.25 110.335 275.465C110.58 274.59 110.701 273.684 110.695 272.776C110.7 271.864 110.579 270.955 110.335 270.077C110.132 269.285 109.794 268.534 109.336 267.857C108.906 267.251 108.355 266.74 107.718 266.358C107.062 265.997 106.327 265.808 105.579 265.808C104.832 265.808 104.096 265.997 103.441 266.358C102.808 266.738 102.263 267.249 101.843 267.857C101.384 268.534 101.046 269.285 100.843 270.077C100.608 270.957 100.49 271.864 100.494 272.776Z" fill="white"/>
<path fill-rule="evenodd" clip-rule="evenodd" d="M138.591 282.852C138.249 283.068 137.892 283.259 137.522 283.422C137.254 283.543 136.976 283.644 136.693 283.722C136.488 283.78 136.276 283.814 136.063 283.822H135.614C135.141 283.831 134.672 283.742 134.235 283.562C133.831 283.39 133.462 283.146 133.146 282.842C132.829 282.525 132.554 282.169 132.326 281.783C132.096 281.379 131.906 280.954 131.757 280.513C131.203 281.098 130.605 281.64 129.968 282.133C129.455 282.528 128.899 282.863 128.31 283.132C127.791 283.376 127.244 283.554 126.681 283.662C126.116 283.755 125.545 283.802 124.973 283.802C124.064 283.809 123.161 283.657 122.305 283.352C121.503 283.071 120.763 282.636 120.127 282.073C119.51 281.513 119.013 280.832 118.668 280.073C118.31 279.251 118.129 278.362 118.139 277.464C118.12 276.713 118.314 275.971 118.698 275.325C119.079 274.71 119.578 274.176 120.167 273.756C120.806 273.285 121.5 272.895 122.235 272.596C123.014 272.276 123.804 271.986 124.613 271.726L126.981 270.976C127.688 270.767 128.382 270.517 129.059 270.227C129.592 270.007 130.087 269.707 130.528 269.337C130.701 269.191 130.841 269.009 130.936 268.804C131.031 268.598 131.079 268.374 131.078 268.147C131.094 267.747 130.974 267.352 130.738 267.028C130.5 266.722 130.2 266.47 129.859 266.288C129.48 266.095 129.077 265.957 128.66 265.878C128.234 265.8 127.803 265.759 127.371 265.758C126.946 265.761 126.522 265.818 126.112 265.928C125.699 266.047 125.311 266.236 124.963 266.488C124.609 266.759 124.313 267.099 124.094 267.488C123.844 267.921 123.688 268.401 123.634 268.897H118.638C118.696 267.768 119.01 266.667 119.557 265.678C120.058 264.788 120.738 264.011 121.556 263.399C122.38 262.792 123.308 262.338 124.293 262.06C125.3 261.769 126.343 261.621 127.391 261.62C128.494 261.617 129.594 261.744 130.668 262C131.652 262.223 132.587 262.626 133.425 263.189C134.215 263.731 134.872 264.445 135.344 265.278C135.838 266.221 136.082 267.274 136.053 268.337V278.704C136.053 278.984 136.148 279.255 136.323 279.474C136.422 279.587 136.545 279.676 136.684 279.735C136.822 279.794 136.972 279.821 137.122 279.813C137.269 279.822 137.416 279.822 137.562 279.813C137.917 279.738 138.256 279.6 138.561 279.404L138.591 282.852ZM131.068 273.176C130.671 273.401 130.248 273.576 129.809 273.696C129.299 273.855 128.74 274.005 128.13 274.165L126.322 274.685C125.754 274.847 125.202 275.062 124.673 275.325C124.223 275.539 123.814 275.83 123.464 276.185C123.16 276.498 122.991 276.918 122.994 277.354C122.985 277.735 123.056 278.113 123.204 278.464C123.331 278.754 123.522 279.01 123.764 279.214C123.99 279.41 124.256 279.557 124.543 279.644C124.83 279.739 125.13 279.786 125.432 279.783C126.509 279.76 127.554 279.412 128.43 278.784C129.545 278.005 130.465 276.978 131.117 275.785L131.068 273.176Z" fill="white"/>
<path fill-rule="evenodd" clip-rule="evenodd" d="M158.504 283.412H153.568V281.063C152.987 281.984 152.165 282.727 151.19 283.212C150.768 283.425 150.322 283.586 149.861 283.692C149.437 283.781 149.006 283.828 148.573 283.832C147.291 283.856 146.024 283.561 144.886 282.972C143.799 282.403 142.85 281.601 142.108 280.623C141.311 279.572 140.715 278.382 140.35 277.114C139.94 275.712 139.739 274.257 139.75 272.796C139.738 271.339 139.916 269.888 140.28 268.477C140.598 267.21 141.143 266.012 141.888 264.939C142.578 263.943 143.483 263.117 144.536 262.519C145.661 261.911 146.924 261.604 148.203 261.63C148.705 261.634 149.206 261.701 149.692 261.83C150.201 261.964 150.691 262.163 151.15 262.419C151.629 262.697 152.072 263.033 152.469 263.419C152.885 263.811 153.254 264.251 153.568 264.729V254.152H158.504V283.412ZM153.568 272.556C153.547 271.677 153.433 270.802 153.228 269.947C153.045 269.197 152.749 268.479 152.349 267.818C152.008 267.24 151.54 266.747 150.98 266.378C150.432 266.027 149.793 265.846 149.142 265.858C148.468 265.846 147.806 266.037 147.244 266.408C146.676 266.799 146.201 267.311 145.855 267.908C145.451 268.598 145.158 269.346 144.986 270.127C144.599 271.919 144.599 273.773 144.986 275.565C145.16 276.345 145.453 277.093 145.855 277.784C146.193 278.387 146.669 278.9 147.244 279.284C147.806 279.654 148.468 279.846 149.142 279.834C149.813 279.849 150.473 279.657 151.03 279.284C151.603 278.898 152.078 278.384 152.419 277.784C152.818 277.093 153.107 276.344 153.278 275.565C153.474 274.672 153.572 273.76 153.568 272.846V272.556Z" fill="white"/>
<path fill-rule="evenodd" clip-rule="evenodd" d="M163.979 262.05H168.925V264.339C169.64 263.467 170.532 262.758 171.543 262.26C172.355 261.86 173.246 261.645 174.151 261.63C174.637 261.628 175.123 261.678 175.599 261.78C176.078 261.881 176.535 262.067 176.948 262.33C177.435 262.648 177.869 263.039 178.237 263.489C178.731 264.089 179.159 264.739 179.516 265.429C179.969 264.762 180.495 264.149 181.085 263.599C181.578 263.14 182.129 262.747 182.723 262.43C183.24 262.145 183.795 261.936 184.372 261.81C184.907 261.692 185.453 261.632 186 261.63C187.006 261.613 188.004 261.811 188.928 262.21C189.779 262.575 190.544 263.112 191.176 263.789C191.806 264.477 192.295 265.282 192.615 266.158C192.952 267.101 193.121 268.096 193.114 269.097V283.412H188.188V269.307C188.206 268.729 188.114 268.152 187.919 267.608C187.773 267.206 187.541 266.841 187.239 266.538C186.974 266.285 186.657 266.094 186.31 265.978C185.988 265.868 185.651 265.811 185.311 265.808C184.795 265.812 184.286 265.932 183.822 266.158C183.32 266.409 182.866 266.747 182.483 267.158C182.061 267.585 181.723 268.087 181.484 268.637C181.234 269.218 181.108 269.845 181.115 270.477V283.472H176.119V269.307C176.139 268.73 176.051 268.153 175.859 267.608C175.717 267.209 175.492 266.844 175.2 266.538C174.955 266.29 174.658 266.098 174.33 265.978C174.04 265.867 173.732 265.809 173.421 265.808C172.799 265.806 172.186 265.964 171.643 266.268C171.1 266.573 170.613 266.968 170.204 267.438C169.793 267.911 169.457 268.444 169.205 269.017C168.977 269.534 168.854 270.092 168.845 270.657V283.412H163.899L163.979 262.05Z" fill="white"/>
<path fill-rule="evenodd" clip-rule="evenodd" d="M217.723 282.852C217.381 283.068 217.024 283.259 216.654 283.422C216.385 283.542 216.108 283.642 215.825 283.722C215.619 283.779 215.408 283.812 215.195 283.822H214.746C214.273 283.832 213.803 283.744 213.367 283.562C212.962 283.393 212.593 283.148 212.278 282.842C211.959 282.528 211.683 282.171 211.459 281.783C211.229 281.377 211.035 280.952 210.879 280.513C210.329 281.098 209.734 281.639 209.101 282.133C208.587 282.528 208.031 282.863 207.442 283.132C206.92 283.376 206.369 283.554 205.803 283.662C205.242 283.755 204.674 283.802 204.105 283.802C203.193 283.808 202.287 283.656 201.427 283.352C200.629 283.068 199.893 282.634 199.259 282.073C198.642 281.513 198.145 280.832 197.8 280.073C197.442 279.251 197.262 278.362 197.271 277.464C197.25 276.714 197.44 275.972 197.82 275.325C198.201 274.71 198.7 274.176 199.289 273.756C199.931 273.285 200.629 272.895 201.367 272.596C202.147 272.276 202.936 271.986 203.735 271.726L206.113 270.976C206.819 270.766 207.513 270.515 208.191 270.227C208.721 270.002 209.216 269.703 209.66 269.337C209.834 269.191 209.973 269.009 210.068 268.804C210.163 268.598 210.211 268.374 210.21 268.147C210.226 267.747 210.106 267.352 209.87 267.028C209.628 266.722 209.325 266.47 208.981 266.288C208.607 266.094 208.206 265.955 207.792 265.878C207.367 265.8 206.935 265.759 206.503 265.758C206.078 265.761 205.655 265.818 205.244 265.928C204.831 266.045 204.442 266.235 204.095 266.488C203.741 266.759 203.445 267.099 203.226 267.488C202.977 267.921 202.82 268.401 202.766 268.897H197.77C197.814 267.821 198.099 266.768 198.604 265.816C199.109 264.865 199.821 264.039 200.688 263.399C201.511 262.79 202.439 262.336 203.425 262.06C204.432 261.769 205.475 261.621 206.523 261.62C207.626 261.617 208.726 261.744 209.8 262C210.783 262.227 211.717 262.63 212.558 263.189C213.398 263.752 214.081 264.52 214.541 265.421C215.001 266.322 215.223 267.326 215.185 268.337V278.704C215.185 278.984 215.28 279.255 215.455 279.474C215.554 279.587 215.678 279.676 215.816 279.735C215.954 279.794 216.104 279.821 216.254 279.813H216.694C217.048 279.735 217.386 279.596 217.693 279.404L217.723 282.852ZM210.21 273.176C209.813 273.401 209.391 273.576 208.951 273.696C208.431 273.855 207.872 274.005 207.272 274.165L205.464 274.685C204.896 274.847 204.344 275.062 203.815 275.325C203.365 275.539 202.956 275.83 202.606 276.185C202.302 276.498 202.133 276.918 202.137 277.354C202.127 277.735 202.198 278.113 202.346 278.464C202.468 278.754 202.656 279.01 202.896 279.214C203.128 279.408 203.396 279.555 203.685 279.644C203.969 279.738 204.266 279.785 204.564 279.783C205.642 279.762 206.687 279.413 207.562 278.784C208.676 278.001 209.599 276.976 210.26 275.785L210.21 273.176Z" fill="white"/>
<path fill-rule="evenodd" clip-rule="evenodd" d="M220.171 262.05H225.167V264.399C225.462 263.913 225.83 263.475 226.256 263.099C226.643 262.765 227.069 262.48 227.525 262.25C227.951 262.033 228.405 261.875 228.874 261.78C229.297 261.683 229.729 261.633 230.163 261.63C231.443 261.61 232.709 261.906 233.849 262.489C234.936 263.059 235.885 263.861 236.627 264.839C237.422 265.891 238.018 267.08 238.385 268.347C238.798 269.75 239.003 271.204 238.995 272.666C239.003 274.126 238.822 275.581 238.455 276.994C238.136 278.267 237.591 279.473 236.847 280.553C236.159 281.545 235.253 282.366 234.199 282.952C233.073 283.557 231.81 283.86 230.532 283.832C230.032 283.834 229.535 283.767 229.053 283.632C228.55 283.495 228.064 283.3 227.605 283.052C227.118 282.777 226.668 282.441 226.266 282.053C225.85 281.661 225.481 281.221 225.167 280.743V291.34H220.171V262.05ZM225.167 272.966C225.187 273.842 225.305 274.714 225.517 275.565C225.692 276.316 225.986 277.035 226.386 277.694C226.729 278.267 227.193 278.758 227.745 279.134C228.288 279.486 228.925 279.667 229.573 279.654C230.25 279.665 230.914 279.474 231.481 279.104C232.058 278.714 232.543 278.202 232.9 277.604C233.304 276.914 233.597 276.166 233.769 275.385C233.967 274.492 234.064 273.58 234.059 272.666C234.063 271.752 233.965 270.84 233.769 269.947C233.593 269.167 233.3 268.419 232.9 267.728C232.548 267.126 232.063 266.613 231.481 266.228C230.914 265.858 230.25 265.667 229.573 265.678C228.909 265.667 228.257 265.859 227.705 266.228C227.132 266.614 226.657 267.127 226.316 267.728C225.923 268.422 225.634 269.169 225.457 269.947C225.26 270.84 225.163 271.752 225.167 272.666V272.966Z" fill="white"/>
<path fill-rule="evenodd" clip-rule="evenodd" d="M53.0545 318.29C53.0591 319.209 52.8102 320.112 52.3351 320.899C51.786 321.772 51.0312 322.496 50.137 323.008C50.5796 323.159 50.9874 323.397 51.336 323.708C51.6579 323.996 51.9312 324.333 52.1453 324.708C52.3614 325.085 52.5197 325.493 52.6149 325.918C52.7165 326.337 52.7702 326.766 52.7748 327.197V330.196C52.7869 330.665 52.8816 331.129 53.0545 331.566C53.256 332.115 53.5103 332.644 53.8138 333.145H49.9072C49.7595 332.909 49.6387 332.658 49.5475 332.395C49.4603 332.144 49.3902 331.887 49.3377 331.626C49.2917 331.388 49.2584 331.147 49.2377 330.906C49.2377 330.686 49.2377 330.496 49.2377 330.316V327.117C49.2392 326.797 49.1851 326.479 49.0779 326.177C48.9719 325.861 48.794 325.574 48.5583 325.338C48.2991 325.071 47.9856 324.863 47.6391 324.728C47.1993 324.561 46.7306 324.483 46.2603 324.498H40.8749V333.145H37.308V312.102H46.3003C47.2926 312.084 48.2784 312.268 49.1978 312.642C49.9938 312.976 50.7194 313.457 51.336 314.062C52.4655 315.18 53.1051 316.701 53.1144 318.29H53.0545ZM40.855 321.539H46.2403C46.6617 321.541 47.0794 321.459 47.4693 321.299C47.8406 321.148 48.1796 320.927 48.4685 320.649C48.7705 320.37 49.0091 320.029 49.1679 319.65C49.342 319.239 49.4303 318.796 49.4276 318.35C49.4319 317.906 49.3505 317.464 49.1878 317.051C49.0332 316.667 48.8032 316.317 48.5114 316.024C48.2197 315.73 47.8721 315.498 47.4892 315.341C47.0848 315.17 46.6494 315.085 46.2104 315.091H40.825L40.855 321.539Z" fill="white"/>
<path fill-rule="evenodd" clip-rule="evenodd" d="M60.1284 326.458C60.1766 327.003 60.3045 327.539 60.5081 328.047C60.6963 328.52 60.9558 328.962 61.2774 329.357C61.5796 329.723 61.9493 330.029 62.3665 330.256C62.7729 330.482 63.2306 330.599 63.6953 330.596C64.4872 330.625 65.2634 330.37 65.8835 329.876C66.5297 329.293 67.009 328.547 67.2723 327.717H70.5694C70.379 328.585 70.041 329.413 69.5703 330.166C69.1437 330.859 68.6032 331.474 67.9716 331.986C67.3737 332.472 66.6982 332.854 65.9733 333.115C65.2368 333.383 64.4589 333.518 63.6753 333.515C62.637 333.536 61.6089 333.306 60.6779 332.845C59.8066 332.416 59.0342 331.81 58.4099 331.066C57.7665 330.292 57.275 329.403 56.9611 328.447C56.6182 327.436 56.4459 326.375 56.4515 325.308C56.4438 324.286 56.6163 323.271 56.9611 322.309C57.2838 321.396 57.7753 320.551 58.4099 319.82C59.0361 319.093 59.8091 318.507 60.6779 318.1C61.6162 317.664 62.6408 317.446 63.6753 317.461C64.6755 317.447 65.667 317.648 66.5829 318.051C67.4236 318.422 68.1787 318.963 68.8009 319.64C69.4299 320.336 69.9124 321.152 70.2197 322.039C70.5498 323.004 70.7154 324.018 70.7093 325.038V326.428L60.1284 326.458ZM67.1224 323.749C67.08 323.294 66.9583 322.851 66.7627 322.439C66.5808 322.063 66.33 321.723 66.0234 321.439C65.7132 321.145 65.3459 320.917 64.9443 320.77C64.5097 320.608 64.0488 320.53 63.5854 320.54C63.153 320.535 62.7243 320.62 62.3265 320.79C61.9549 320.962 61.6166 321.199 61.3274 321.489C61.0235 321.776 60.7732 322.114 60.588 322.489C60.3883 322.88 60.2565 323.303 60.1983 323.739L67.1224 323.749Z" fill="white"/>
<path fill-rule="evenodd" clip-rule="evenodd" d="M86.4958 338.943H82.9289V331.306C82.7035 331.652 82.4349 331.968 82.1296 332.246C81.8448 332.519 81.5258 332.754 81.1804 332.945C80.8509 333.131 80.4981 333.272 80.1313 333.365C79.78 333.463 79.417 333.514 79.0522 333.515C78.1322 333.536 77.2227 333.316 76.4145 332.875C75.6535 332.454 75.0003 331.862 74.5061 331.146C73.968 330.366 73.5753 329.496 73.3471 328.577C73.0824 327.558 72.9515 326.51 72.9575 325.458C72.9514 324.406 73.0995 323.358 73.3971 322.349C73.6626 321.436 74.0925 320.578 74.666 319.82C75.1997 319.114 75.8819 318.534 76.6643 318.12C77.49 317.7 78.4056 317.487 79.3319 317.501C79.6414 317.504 79.9496 317.541 80.2512 317.611C80.5975 317.68 80.9334 317.794 81.2503 317.95C81.5809 318.115 81.8896 318.32 82.1695 318.56C82.4841 318.829 82.754 319.146 82.9688 319.5V317.81H86.5358L86.4958 338.943ZM82.9289 325.458C82.935 324.786 82.8646 324.115 82.7191 323.458C82.5912 322.898 82.3825 322.359 82.0996 321.859C81.8613 321.422 81.5179 321.051 81.1005 320.779C80.6976 320.513 80.2243 320.374 79.7416 320.38C79.2558 320.374 78.7793 320.513 78.3728 320.779C77.9625 321.059 77.621 321.428 77.3737 321.859C77.0866 322.357 76.8776 322.897 76.7542 323.458C76.6087 324.115 76.5382 324.786 76.5444 325.458C76.5371 326.13 76.6075 326.801 76.7542 327.457C76.8742 328.02 77.0833 328.56 77.3737 329.057C77.621 329.487 77.9625 329.856 78.3728 330.136C78.7738 330.394 79.2402 330.531 79.7166 330.531C80.1931 330.531 80.6595 330.394 81.0605 330.136C81.4603 329.877 81.8008 329.537 82.0596 329.137C82.346 328.658 82.5582 328.139 82.6891 327.597C82.8363 326.984 82.92 326.358 82.9389 325.728L82.9289 325.458Z" fill="white"/>
<path fill-rule="evenodd" clip-rule="evenodd" d="M103.151 333.205H99.5745V331.466C99.2355 331.835 98.8606 332.17 98.4555 332.466C98.1206 332.71 97.7625 332.921 97.3864 333.095C97.0398 333.244 96.678 333.355 96.3073 333.425C95.9378 333.49 95.5635 333.523 95.1883 333.525C94.4802 333.535 93.7761 333.416 93.1101 333.175C92.5247 332.958 91.993 332.617 91.5514 332.176C91.1095 331.738 90.7685 331.209 90.5523 330.626C90.3229 329.985 90.2079 329.308 90.2125 328.627V317.831H93.7895V328.377C93.7798 328.717 93.834 329.056 93.9493 329.377C94.0371 329.634 94.1844 329.867 94.379 330.056C94.5643 330.235 94.7908 330.366 95.0384 330.436C95.3038 330.518 95.5801 330.559 95.8577 330.556C96.334 330.549 96.8023 330.433 97.2265 330.216C97.6761 329.998 98.0824 329.7 98.4255 329.337C98.7729 328.955 99.0563 328.519 99.2648 328.047C99.4726 327.557 99.5781 327.03 99.5745 326.498V317.831H103.151V333.205Z" fill="white"/>
<path fill-rule="evenodd" clip-rule="evenodd" d="M109.586 326.457C109.634 327.003 109.762 327.538 109.966 328.047C110.154 328.52 110.413 328.962 110.735 329.356C111.037 329.723 111.407 330.029 111.824 330.256C112.234 330.483 112.695 330.6 113.163 330.596C113.951 330.624 114.724 330.368 115.341 329.876C115.991 329.295 116.471 328.549 116.73 327.717H120.077C119.891 328.586 119.553 329.415 119.078 330.166C118.652 330.856 118.115 331.47 117.489 331.985C116.89 332.47 116.215 332.851 115.491 333.115C114.758 333.382 113.983 333.517 113.203 333.515C112.165 333.533 111.137 333.303 110.205 332.845C109.334 332.416 108.562 331.81 107.937 331.066C107.294 330.292 106.802 329.403 106.489 328.447C106.149 327.435 105.98 326.375 105.989 325.308C105.978 324.287 106.147 323.271 106.489 322.309C106.811 321.396 107.303 320.551 107.937 319.82C108.565 319.09 109.342 318.504 110.215 318.1C111.153 317.662 112.178 317.443 113.213 317.46C114.213 317.447 115.204 317.648 116.12 318.05C116.964 318.417 117.72 318.958 118.338 319.64C118.967 320.336 119.45 321.152 119.757 322.039C120.092 323.003 120.258 324.017 120.247 325.038V326.427L109.586 326.457ZM116.58 323.748C116.539 323.293 116.414 322.849 116.21 322.439C116.028 322.062 115.778 321.723 115.471 321.439C115.163 321.147 114.799 320.919 114.402 320.769C113.964 320.609 113.5 320.531 113.033 320.539C112.601 320.534 112.172 320.62 111.774 320.789C111.402 320.962 111.064 321.199 110.775 321.489C110.474 321.778 110.224 322.116 110.036 322.489C109.836 322.88 109.704 323.303 109.646 323.738L116.58 323.748Z" fill="white"/>
<path fill-rule="evenodd" clip-rule="evenodd" d="M125.302 327.717C125.301 328.175 125.382 328.628 125.542 329.057C125.674 329.397 125.882 329.701 126.152 329.946C126.398 330.172 126.692 330.339 127.011 330.436C127.333 330.543 127.671 330.597 128.01 330.596C128.345 330.596 128.68 330.566 129.009 330.506C129.315 330.46 129.612 330.366 129.889 330.226C130.134 330.106 130.345 329.923 130.498 329.696C130.658 329.446 130.738 329.154 130.728 328.857C130.728 328.581 130.629 328.315 130.448 328.107C130.241 327.877 129.998 327.681 129.729 327.527C129.411 327.337 129.077 327.177 128.73 327.047L127.551 326.628C126.941 326.418 126.312 326.178 125.672 325.928C125.064 325.683 124.488 325.368 123.954 324.988C123.451 324.636 123.023 324.187 122.695 323.669C122.351 323.114 122.178 322.471 122.195 321.819C122.183 321.16 122.334 320.507 122.635 319.92C122.923 319.382 123.334 318.92 123.834 318.57C124.373 318.192 124.98 317.92 125.622 317.771C126.357 317.585 127.112 317.495 127.87 317.501C128.687 317.49 129.501 317.594 130.288 317.811C130.966 317.984 131.602 318.294 132.157 318.72C132.682 319.137 133.103 319.671 133.386 320.28C133.693 320.984 133.863 321.741 133.885 322.509H130.368C130.337 322.159 130.235 321.819 130.068 321.509C129.937 321.264 129.749 321.055 129.519 320.9C129.288 320.744 129.031 320.632 128.76 320.57C128.467 320.509 128.169 320.478 127.87 320.48C127.313 320.443 126.757 320.572 126.272 320.85C126.098 320.951 125.955 321.097 125.859 321.273C125.762 321.449 125.715 321.648 125.722 321.849C125.723 322.102 125.819 322.345 125.992 322.529C126.198 322.756 126.441 322.945 126.711 323.089C127.033 323.275 127.367 323.438 127.71 323.579L128.909 324.028C129.519 324.238 130.148 324.478 130.788 324.738C131.396 324.991 131.978 325.303 132.526 325.668C133.015 326.009 133.441 326.431 133.785 326.917C134.118 327.413 134.289 328 134.275 328.597C134.309 329.337 134.149 330.074 133.811 330.733C133.472 331.392 132.968 331.952 132.346 332.356C131.719 332.762 131.026 333.057 130.298 333.225C129.496 333.412 128.674 333.505 127.85 333.505C127.056 333.511 126.266 333.386 125.512 333.135C124.78 332.915 124.1 332.548 123.514 332.056C122.939 331.555 122.476 330.938 122.155 330.246C121.796 329.447 121.606 328.583 121.596 327.707L125.302 327.717Z" fill="white"/>
<path fill-rule="evenodd" clip-rule="evenodd" d="M141.119 313.542V317.781H143.946V320.7H141.119V329.077C141.104 329.453 141.209 329.824 141.419 330.136C141.51 330.269 141.633 330.377 141.776 330.452C141.918 330.527 142.077 330.566 142.238 330.566C142.358 330.566 142.578 330.566 142.907 330.506C143.382 330.432 143.845 330.298 144.286 330.106V332.925C143.717 333.148 143.123 333.302 142.518 333.385C142.053 333.442 141.587 333.476 141.119 333.485C140.651 333.483 140.188 333.385 139.76 333.195C139.33 333.005 138.942 332.729 138.621 332.385C138.282 332.02 138.017 331.593 137.842 331.126C137.645 330.598 137.547 330.039 137.552 329.477V320.7H135.344V317.781H137.552V313.542H141.119Z" fill="white"/>
<path fill-rule="evenodd" clip-rule="evenodd" d="M167.276 332.806C167.028 332.963 166.768 333.1 166.497 333.215C166.308 333.304 166.11 333.374 165.908 333.425C165.757 333.467 165.603 333.494 165.448 333.505H165.128C164.786 333.507 164.447 333.442 164.129 333.315C163.84 333.191 163.576 333.015 163.35 332.795C163.118 332.568 162.919 332.309 162.76 332.026C162.59 331.737 162.45 331.433 162.341 331.116C161.943 331.539 161.512 331.93 161.052 332.286C160.684 332.573 160.286 332.818 159.863 333.015C159.487 333.19 159.091 333.317 158.684 333.395C158.278 333.468 157.867 333.505 157.455 333.505C156.798 333.51 156.145 333.398 155.527 333.175C154.95 332.977 154.42 332.664 153.968 332.256C153.517 331.853 153.156 331.359 152.909 330.806C152.652 330.217 152.522 329.58 152.529 328.937C152.514 328.393 152.652 327.856 152.929 327.387C153.206 326.946 153.565 326.563 153.988 326.258C154.452 325.919 154.955 325.637 155.487 325.418C156.046 325.188 156.616 324.978 157.195 324.798L158.904 324.258C159.415 324.108 159.915 323.924 160.402 323.709C160.786 323.55 161.143 323.335 161.461 323.069C161.585 322.964 161.685 322.834 161.754 322.688C161.823 322.541 161.859 322.381 161.861 322.219C161.871 321.929 161.783 321.644 161.611 321.409C161.441 321.186 161.223 321.005 160.972 320.88C160.703 320.735 160.413 320.634 160.113 320.58C159.806 320.521 159.495 320.491 159.183 320.49C158.876 320.488 158.569 320.532 158.274 320.62C157.976 320.702 157.695 320.837 157.445 321.02C157.196 321.211 156.986 321.449 156.825 321.719C156.643 322.025 156.527 322.365 156.486 322.719H152.879C152.919 321.904 153.141 321.108 153.528 320.39C153.89 319.747 154.384 319.188 154.977 318.75C155.576 318.298 156.254 317.959 156.975 317.751C157.703 317.54 158.456 317.433 159.213 317.431C160.011 317.427 160.806 317.521 161.581 317.711C162.295 317.87 162.973 318.161 163.58 318.57C164.185 318.976 164.676 319.53 165.006 320.179C165.337 320.828 165.496 321.551 165.468 322.279V329.747C165.464 329.951 165.535 330.15 165.668 330.306C165.737 330.389 165.824 330.455 165.923 330.498C166.022 330.541 166.13 330.561 166.237 330.556H166.557C166.824 330.496 167.08 330.395 167.316 330.256L167.276 332.806ZM161.861 325.808C161.574 325.97 161.269 326.098 160.952 326.188L159.743 326.528C159.303 326.638 158.874 326.768 158.434 326.898C158.024 327.014 157.626 327.167 157.245 327.357C156.923 327.514 156.629 327.724 156.376 327.977C156.266 328.087 156.18 328.219 156.121 328.363C156.063 328.507 156.034 328.661 156.036 328.817C156.029 329.091 156.08 329.364 156.186 329.617C156.276 329.828 156.412 330.016 156.586 330.166C156.755 330.304 156.948 330.409 157.155 330.476C157.359 330.539 157.571 330.572 157.785 330.576C158.548 330.554 159.289 330.307 159.913 329.867C160.728 329.317 161.411 328.593 161.911 327.747L161.861 325.808Z" fill="white"/>
<path fill-rule="evenodd" clip-rule="evenodd" d="M177.438 317.811V314.812C177.435 314.353 177.534 313.899 177.727 313.482C177.927 313.08 178.206 312.723 178.547 312.432C178.917 312.121 179.345 311.887 179.806 311.743C180.326 311.578 180.869 311.497 181.414 311.503H181.984C182.184 311.503 182.423 311.553 182.693 311.603C183.003 311.663 183.31 311.74 183.612 311.833C183.952 311.946 184.342 312.096 184.781 312.282V315.072C184.342 314.912 183.962 314.802 183.632 314.712C183.303 314.622 183.043 314.562 182.823 314.522C182.658 314.49 182.491 314.466 182.324 314.452H182.104C181.972 314.452 181.84 314.472 181.714 314.512C181.586 314.56 181.467 314.631 181.364 314.722C181.254 314.81 181.165 314.923 181.105 315.052C181.034 315.198 180.999 315.359 181.005 315.521V317.751H183.822V320.75H181.025V333.165H177.458V320.79H175.03V317.791L177.438 317.811Z" fill="white"/>
<path fill-rule="evenodd" clip-rule="evenodd" d="M188.388 326.457C188.433 327.002 188.558 327.538 188.758 328.047C188.949 328.521 189.212 328.962 189.537 329.356C189.835 329.728 190.206 330.034 190.626 330.256C191.032 330.484 191.49 330.601 191.955 330.596C192.747 330.625 193.523 330.37 194.143 329.876C194.79 329.294 195.266 328.548 195.522 327.717H198.819C198.633 328.586 198.295 329.415 197.82 330.166C197.397 330.858 196.86 331.473 196.232 331.985C195.632 332.47 194.957 332.851 194.233 333.115C193.378 333.42 192.471 333.552 191.564 333.506C190.657 333.46 189.768 333.235 188.948 332.845C188.078 332.414 187.305 331.809 186.68 331.066C186.04 330.291 185.552 329.402 185.241 328.447C184.898 327.436 184.726 326.375 184.731 325.308C184.724 324.286 184.896 323.271 185.241 322.309C185.56 321.396 186.048 320.552 186.68 319.82C187.312 319.095 188.088 318.509 188.958 318.1C189.895 317.662 190.92 317.443 191.955 317.46C192.955 317.447 193.947 317.648 194.863 318.05C195.706 318.417 196.463 318.958 197.081 319.64C197.71 320.336 198.192 321.152 198.5 322.039C198.834 323.003 199 324.017 198.989 325.038V326.427L188.388 326.457ZM195.382 323.748C195.34 323.294 195.218 322.851 195.023 322.439C194.837 322.062 194.583 321.723 194.273 321.439C193.965 321.147 193.602 320.919 193.204 320.769C192.769 320.609 192.309 320.531 191.845 320.539C191.41 320.533 190.977 320.618 190.576 320.789C190.205 320.962 189.867 321.199 189.577 321.489C189.279 321.781 189.03 322.118 188.838 322.489C188.646 322.882 188.518 323.304 188.458 323.738L195.382 323.748Z" fill="white"/>
<path fill-rule="evenodd" clip-rule="evenodd" d="M215.505 332.805C215.257 332.962 214.996 333.1 214.726 333.215C214.536 333.304 214.339 333.374 214.136 333.425C213.986 333.467 213.832 333.494 213.677 333.505H213.357C213.015 333.509 212.675 333.444 212.358 333.315C212.066 333.191 211.798 333.014 211.568 332.795C211.336 332.568 211.138 332.309 210.979 332.025C210.809 331.737 210.668 331.432 210.559 331.116C210.162 331.536 209.735 331.927 209.28 332.285C208.908 332.571 208.506 332.816 208.081 333.015C207.706 333.191 207.31 333.319 206.902 333.395C206.497 333.468 206.086 333.504 205.673 333.505C205.016 333.509 204.364 333.398 203.745 333.175C203.169 332.977 202.639 332.664 202.186 332.255C201.735 331.852 201.374 331.358 201.127 330.806C200.87 330.216 200.741 329.579 200.748 328.936C200.732 328.393 200.871 327.855 201.147 327.387C201.424 326.946 201.784 326.562 202.206 326.257C202.671 325.919 203.174 325.637 203.705 325.418C204.265 325.188 204.834 324.978 205.414 324.798L207.122 324.258C207.633 324.108 208.134 323.924 208.621 323.708C209.006 323.552 209.363 323.337 209.68 323.068C209.804 322.964 209.903 322.834 209.972 322.687C210.041 322.541 210.078 322.381 210.08 322.219C210.089 321.928 210.001 321.643 209.83 321.409C209.66 321.186 209.441 321.005 209.19 320.879C208.922 320.735 208.632 320.634 208.331 320.579C208.025 320.52 207.714 320.49 207.402 320.489C207.094 320.488 206.788 320.532 206.493 320.619C206.197 320.699 205.919 320.835 205.673 321.019C205.419 321.208 205.205 321.446 205.044 321.719C204.865 322.026 204.75 322.366 204.704 322.719H201.097C201.137 321.903 201.359 321.108 201.747 320.389C202.109 319.747 202.602 319.188 203.196 318.75C203.796 318.298 204.473 317.96 205.194 317.75C205.918 317.539 206.668 317.431 207.422 317.43C208.22 317.425 209.015 317.519 209.79 317.71C210.504 317.869 211.182 318.161 211.788 318.57C212.397 318.971 212.892 319.524 213.223 320.174C213.554 320.825 213.71 321.55 213.677 322.279V329.746C213.677 329.95 213.748 330.148 213.876 330.306C213.946 330.389 214.033 330.454 214.132 330.498C214.231 330.541 214.338 330.561 214.446 330.556H214.766C215.033 330.496 215.289 330.395 215.525 330.256L215.505 332.805ZM210.09 325.808C209.803 325.971 209.498 326.099 209.18 326.187L208.002 326.537C207.562 326.647 207.132 326.777 206.693 326.907C206.283 327.023 205.885 327.177 205.504 327.367C205.182 327.524 204.888 327.733 204.634 327.987C204.525 328.097 204.438 328.228 204.38 328.372C204.322 328.517 204.293 328.671 204.295 328.826C204.288 329.101 204.339 329.373 204.445 329.626C204.538 329.836 204.674 330.023 204.844 330.176C205.013 330.314 205.206 330.419 205.414 330.486C205.621 330.549 205.836 330.583 206.053 330.586C206.813 330.562 207.55 330.315 208.171 329.876C208.987 329.327 209.669 328.603 210.17 327.757L210.09 325.808Z" fill="white"/>
<path fill-rule="evenodd" clip-rule="evenodd" d="M221.66 313.542V317.781H224.487V320.7H221.66V329.077C221.646 329.451 221.747 329.821 221.949 330.136C222.042 330.27 222.166 330.379 222.311 330.454C222.455 330.529 222.616 330.568 222.779 330.566L223.438 330.506C223.914 330.435 224.377 330.301 224.817 330.106V332.925C224.248 333.149 223.654 333.304 223.049 333.385C222.588 333.442 222.124 333.475 221.66 333.485C221.188 333.485 220.722 333.386 220.291 333.195C219.861 333.005 219.473 332.729 219.152 332.385C218.813 332.02 218.548 331.593 218.373 331.126C218.176 330.598 218.078 330.039 218.083 329.477V320.7H215.875V317.781H218.083V313.542H221.66Z" fill="white"/>
<path fill-rule="evenodd" clip-rule="evenodd" d="M239.974 333.205H236.407V331.466C236.066 331.833 235.691 332.168 235.288 332.466C234.953 332.71 234.595 332.921 234.219 333.095C233.872 333.242 233.51 333.352 233.14 333.425C232.77 333.489 232.396 333.523 232.021 333.525C231.313 333.535 230.609 333.417 229.943 333.175C229.356 332.956 228.821 332.615 228.374 332.176C227.935 331.736 227.594 331.208 227.375 330.626C227.141 329.986 227.026 329.308 227.035 328.627V317.831H230.602V328.377C230.598 328.717 230.653 329.055 230.762 329.377C230.853 329.635 231.004 329.868 231.202 330.056C231.387 330.235 231.613 330.366 231.861 330.436C232.126 330.519 232.403 330.559 232.68 330.556C233.157 330.549 233.625 330.433 234.049 330.216C234.496 329.998 234.899 329.7 235.238 329.337C235.592 328.96 235.877 328.523 236.077 328.047C236.289 327.558 236.397 327.031 236.397 326.498V317.831H239.974V333.205Z" fill="white"/>
<path fill-rule="evenodd" clip-rule="evenodd" d="M243.481 317.81H246.109L246.698 319.7C247.077 319.069 247.568 318.513 248.147 318.06C248.617 317.699 249.193 317.503 249.786 317.5C250.082 317.515 250.376 317.555 250.665 317.62C251.175 317.736 251.664 317.931 252.114 318.2V321.289C251.744 321.149 251.424 321.029 251.114 320.949C250.805 320.869 250.625 320.819 250.455 320.779C250.321 320.746 250.184 320.726 250.045 320.719H249.836C249.423 320.716 249.015 320.812 248.647 320.999C248.301 321.185 247.996 321.436 247.747 321.739C247.501 322.061 247.311 322.423 247.188 322.809C247.058 323.216 246.994 323.641 246.998 324.068V333.215H243.441L243.481 317.81Z" fill="white"/>
<path fill-rule="evenodd" clip-rule="evenodd" d="M256.41 326.458C256.458 327.003 256.586 327.539 256.79 328.047C256.978 328.52 257.237 328.962 257.559 329.357C257.859 329.726 258.229 330.031 258.648 330.256C259.054 330.482 259.512 330.599 259.977 330.596C260.769 330.625 261.545 330.37 262.165 329.876C262.811 329.293 263.291 328.547 263.554 327.717H266.851C266.661 328.585 266.323 329.413 265.852 330.166C265.425 330.859 264.885 331.474 264.253 331.986C263.655 332.472 262.98 332.854 262.255 333.115C261.518 333.382 260.74 333.517 259.957 333.515C258.919 333.536 257.891 333.306 256.96 332.845C256.088 332.416 255.316 331.81 254.691 331.066C254.048 330.292 253.557 329.403 253.243 328.447C252.9 327.436 252.728 326.375 252.733 325.308C252.725 324.286 252.898 323.271 253.243 322.309C253.565 321.396 254.057 320.551 254.691 319.82C255.318 319.093 256.091 318.507 256.96 318.1C257.898 317.664 258.922 317.446 259.957 317.461C260.954 317.448 261.942 317.65 262.854 318.051C263.7 318.419 264.459 318.961 265.083 319.64C265.712 320.336 266.194 321.152 266.501 322.039C266.831 323.004 266.997 324.018 266.991 325.038V326.428L256.41 326.458ZM263.404 323.749C263.362 323.294 263.24 322.851 263.044 322.439C262.862 322.063 262.612 321.723 262.305 321.439C261.995 321.145 261.628 320.917 261.226 320.77C260.791 320.608 260.33 320.53 259.867 320.54C259.435 320.535 259.006 320.62 258.608 320.79C258.236 320.962 257.898 321.199 257.609 321.489C257.305 321.776 257.055 322.114 256.87 322.489C256.67 322.88 256.538 323.303 256.48 323.739L263.404 323.749Z" fill="white"/>
<path fill-rule="evenodd" clip-rule="evenodd" d="M198.1 129.855V119.609V129.855Z" fill="white"/>
<path d="M198.1 129.855V119.609" stroke="white" stroke-width="4.87" stroke-linecap="round" stroke-linejoin="round"/>
<path fill-rule="evenodd" clip-rule="evenodd" d="M114.712 200.281L123.554 199.761L114.712 200.281Z" fill="white"/>
<path d="M114.712 200.281L123.554 199.761" stroke="white" stroke-width="4.87" stroke-linecap="round" stroke-linejoin="round"/>
<path fill-rule="evenodd" clip-rule="evenodd" d="M80.0412 140.781C79.9337 136.443 80.6949 132.127 82.28 128.088C83.865 124.048 86.2419 120.367 89.2706 117.261C92.2994 114.154 95.9188 111.686 99.9156 110C103.912 108.315 108.206 107.446 112.543 107.446C116.881 107.446 121.174 108.315 125.171 110C129.168 111.686 132.787 114.154 135.816 117.261C138.845 120.367 141.222 124.048 142.807 128.088C144.392 132.127 145.153 136.443 145.045 140.781C144.526 171.481 114.542 199.931 114.542 199.931C114.542 199.931 80.7406 173.22 80.0412 140.781Z" fill="white" stroke="white" stroke-width="4.87" stroke-linecap="round" stroke-linejoin="round"/>
<path fill-rule="evenodd" clip-rule="evenodd" d="M221.33 78.0931C221.461 74.9266 220.95 71.7663 219.829 68.8022C218.708 65.8381 216.999 63.1314 214.806 60.8446C212.613 58.5579 209.98 56.7384 207.067 55.4955C204.153 54.2525 201.018 53.6118 197.85 53.6118C194.683 53.6118 191.548 54.2525 188.634 55.4955C185.72 56.7384 183.087 58.5579 180.894 60.8446C178.701 63.1314 176.993 65.8381 175.871 68.8022C174.75 71.7663 174.24 74.9266 174.37 78.0931C174.74 100.275 196.421 120.838 196.421 120.838C196.421 120.838 220.83 101.535 221.33 78.0931Z" fill="white" stroke="white" stroke-width="4.87" stroke-linecap="round" stroke-linejoin="round"/>
<path fill-rule="evenodd" clip-rule="evenodd" d="M131.008 197.332L145.745 189.334L131.008 197.332Z" fill="white"/>
<path d="M131.008 197.332L145.745 189.334" stroke="white" stroke-width="4.87" stroke-linecap="round" stroke-linejoin="round"/>
<path fill-rule="evenodd" clip-rule="evenodd" d="M152.329 183.587L158.394 168.672L152.329 183.587Z" fill="white"/>
<path d="M152.329 183.587L158.394 168.672" stroke="white" stroke-width="4.87" stroke-linecap="round" stroke-linejoin="round"/>
<path fill-rule="evenodd" clip-rule="evenodd" d="M163.04 157.786L171.183 147.379L163.04 157.786Z" fill="white"/>
<path d="M163.04 157.786L171.183 147.379" stroke="white" stroke-width="4.87" stroke-linecap="round" stroke-linejoin="round"/>
<path fill-rule="evenodd" clip-rule="evenodd" d="M183.882 144.08L194.113 139.402L183.882 144.08Z" fill="white"/>
<path d="M183.882 144.08L194.113 139.402" stroke="white" stroke-width="4.87" stroke-linecap="round" stroke-linejoin="round"/>
<path fill-rule="evenodd" clip-rule="evenodd" d="M97.0368 142.951C96.9693 139.833 97.8316 136.766 99.5137 134.141C101.196 131.516 103.621 129.451 106.481 128.211C109.341 126.971 112.505 126.611 115.57 127.178C118.635 127.744 121.462 129.212 123.69 131.393C125.918 133.573 127.446 136.369 128.079 139.422C128.712 142.475 128.422 145.648 127.245 148.536C126.069 151.424 124.059 153.895 121.473 155.635C118.886 157.375 115.84 158.305 112.723 158.306C110.685 158.329 108.662 157.951 106.771 157.192C104.879 156.433 103.155 155.308 101.698 153.882C100.241 152.456 99.0799 150.756 98.28 148.881C97.4801 147.005 97.0576 144.99 97.0368 142.951Z" fill="#F7A501" stroke="white" stroke-width="4.87" stroke-linecap="round" stroke-linejoin="round"/>
<path fill-rule="evenodd" clip-rule="evenodd" d="M206.263 80.3225C206.263 78.6797 205.776 77.074 204.863 75.7087C203.95 74.3433 202.652 73.2799 201.134 72.6531C199.617 72.0263 197.947 71.8644 196.338 72.1878C194.728 72.5112 193.25 73.3054 192.092 74.4698C190.934 75.6341 190.147 77.1163 189.832 78.7284C189.516 80.3405 189.686 82.01 190.32 83.5254C190.954 85.0408 192.023 86.3339 193.392 87.2408C194.761 88.1476 196.368 88.6275 198.01 88.6196C200.203 88.6116 202.304 87.7337 203.851 86.1782C205.398 84.6228 206.266 82.5169 206.263 80.3225Z" fill="#F7A501" stroke="white" stroke-width="4.87" stroke-linecap="round" stroke-linejoin="round"/>
</svg>
