<svg width="500" height="557" viewBox="0 0 500 557" fill="none" xmlns="http://www.w3.org/2000/svg">
<rect width="500" height="557" rx="108" fill="#F7A501"/>
<path fill-rule="evenodd" clip-rule="evenodd" d="M262.1 197.855V187.609V197.855Z" fill="white"/>
<path d="M262.1 197.855V187.609" stroke="white" stroke-width="4.87" stroke-linecap="round" stroke-linejoin="round"/>
<path fill-rule="evenodd" clip-rule="evenodd" d="M178.712 268.281L187.554 267.761L178.712 268.281Z" fill="white"/>
<path d="M178.712 268.281L187.554 267.761" stroke="white" stroke-width="4.87" stroke-linecap="round" stroke-linejoin="round"/>
<path fill-rule="evenodd" clip-rule="evenodd" d="M144.041 208.781C143.934 204.443 144.695 200.127 146.28 196.088C147.865 192.048 150.242 188.367 153.271 185.261C156.299 182.154 159.919 179.686 163.916 178C167.912 176.315 172.206 175.446 176.543 175.446C180.881 175.446 185.174 176.315 189.171 178C193.168 179.686 196.787 182.154 199.816 185.261C202.845 188.367 205.222 192.048 206.807 196.088C208.392 200.127 209.153 204.443 209.045 208.781C208.526 239.481 178.542 267.931 178.542 267.931C178.542 267.931 144.741 241.22 144.041 208.781Z" fill="white" stroke="white" stroke-width="4.87" stroke-linecap="round" stroke-linejoin="round"/>
<path fill-rule="evenodd" clip-rule="evenodd" d="M285.33 146.093C285.461 142.927 284.95 139.766 283.829 136.802C282.708 133.838 280.999 131.131 278.806 128.845C276.613 126.558 273.98 124.738 271.067 123.495C268.153 122.253 265.018 121.612 261.85 121.612C258.683 121.612 255.548 122.253 252.634 123.495C249.72 124.738 247.087 126.558 244.894 128.845C242.701 131.131 240.993 133.838 239.871 136.802C238.75 139.766 238.24 142.927 238.37 146.093C238.74 168.275 260.421 188.838 260.421 188.838C260.421 188.838 284.83 169.535 285.33 146.093Z" fill="white" stroke="white" stroke-width="4.87" stroke-linecap="round" stroke-linejoin="round"/>
<path fill-rule="evenodd" clip-rule="evenodd" d="M195.008 265.332L209.745 257.334L195.008 265.332Z" fill="white"/>
<path d="M195.008 265.332L209.745 257.334" stroke="white" stroke-width="4.87" stroke-linecap="round" stroke-linejoin="round"/>
<path fill-rule="evenodd" clip-rule="evenodd" d="M216.329 251.587L222.394 236.672L216.329 251.587Z" fill="white"/>
<path d="M216.329 251.587L222.394 236.672" stroke="white" stroke-width="4.87" stroke-linecap="round" stroke-linejoin="round"/>
<path fill-rule="evenodd" clip-rule="evenodd" d="M227.04 225.786L235.183 215.379L227.04 225.786Z" fill="white"/>
<path d="M227.04 225.786L235.183 215.379" stroke="white" stroke-width="4.87" stroke-linecap="round" stroke-linejoin="round"/>
<path fill-rule="evenodd" clip-rule="evenodd" d="M247.882 212.08L258.113 207.402L247.882 212.08Z" fill="white"/>
<path d="M247.882 212.08L258.113 207.402" stroke="white" stroke-width="4.87" stroke-linecap="round" stroke-linejoin="round"/>
<path fill-rule="evenodd" clip-rule="evenodd" d="M161.037 210.951C160.969 207.833 161.832 204.766 163.514 202.141C165.196 199.516 167.621 197.451 170.481 196.211C173.341 194.971 176.505 194.611 179.57 195.178C182.635 195.744 185.462 197.212 187.69 199.393C189.918 201.573 191.446 204.369 192.079 207.422C192.712 210.475 192.422 213.648 191.245 216.536C190.069 219.424 188.059 221.895 185.473 223.635C182.886 225.375 179.84 226.305 176.723 226.306C174.685 226.329 172.662 225.951 170.771 225.192C168.879 224.433 167.155 223.308 165.698 221.882C164.241 220.456 163.08 218.756 162.28 216.881C161.48 215.005 161.058 212.99 161.037 210.951Z" fill="#F7A501" stroke="white" stroke-width="4.87" stroke-linecap="round" stroke-linejoin="round"/>
<path fill-rule="evenodd" clip-rule="evenodd" d="M270.263 148.322C270.263 146.68 269.776 145.074 268.863 143.709C267.95 142.343 266.652 141.28 265.134 140.653C263.617 140.026 261.947 139.864 260.338 140.188C258.728 140.511 257.25 141.305 256.092 142.47C254.934 143.634 254.147 145.116 253.832 146.728C253.516 148.341 253.686 150.01 254.32 151.525C254.954 153.041 256.023 154.334 257.392 155.241C258.761 156.148 260.368 156.628 262.01 156.62C264.203 156.612 266.304 155.734 267.851 154.178C269.398 152.623 270.266 150.517 270.263 148.322Z" fill="#F7A501" stroke="white" stroke-width="4.87" stroke-linecap="round" stroke-linejoin="round"/>
<path d="M131.729 384.04H141.281V397H136.481V386.056H122.129V397H117.329V364.36H128.081C130.577 364.36 132.689 364.616 134.417 365.128C136.145 365.64 137.457 366.408 138.353 367.432C139.249 368.424 139.873 369.512 140.225 370.696C140.609 371.848 140.801 373.224 140.801 374.824C140.801 377.576 140.145 379.608 138.833 380.92C137.553 382.232 135.185 383.016 131.729 383.272V384.04ZM122.129 381.736H128.081C131.249 381.736 133.361 381.288 134.417 380.392C135.473 379.464 136.001 377.768 136.001 375.304C136.001 372.744 135.473 371 134.417 370.072C133.361 369.144 131.249 368.68 128.081 368.68H122.129V381.736ZM165.539 394.12C163.523 396.36 160.707 397.48 157.091 397.48C153.475 397.48 150.659 396.36 148.643 394.12C146.627 391.848 145.619 388.808 145.619 385C145.619 381.192 146.627 378.168 148.643 375.928C150.659 373.656 153.475 372.52 157.091 372.52C160.707 372.52 163.523 373.656 165.539 375.928C167.555 378.168 168.563 381.192 168.563 385C168.563 388.808 167.555 391.848 165.539 394.12ZM151.859 391.432C152.851 392.584 154.595 393.16 157.091 393.16C159.587 393.16 161.315 392.584 162.275 391.432C163.267 390.248 163.763 388.104 163.763 385C163.763 381.896 163.267 379.768 162.275 378.616C161.315 377.432 159.587 376.84 157.091 376.84C154.595 376.84 152.851 377.432 151.859 378.616C150.899 379.768 150.419 381.896 150.419 385C150.419 388.104 150.899 390.248 151.859 391.432ZM192.495 392.2H195.375V397H187.695V394.6C186.255 396.52 184.031 397.48 181.023 397.48C178.271 397.48 176.143 396.648 174.639 394.984C173.167 393.288 172.431 391.24 172.431 388.84C172.431 386.44 173.167 384.408 174.639 382.744C176.143 381.048 178.271 380.2 181.023 380.2C184.031 380.2 186.255 381.16 187.695 383.08V377.32H175.215V373H192.495V392.2ZM178.527 392.008C179.423 392.776 180.735 393.16 182.463 393.16C184.191 393.16 185.487 392.776 186.351 392.008C187.247 391.24 187.695 390.184 187.695 388.84C187.695 387.496 187.247 386.44 186.351 385.672C185.487 384.904 184.191 384.52 182.463 384.52C180.735 384.52 179.423 384.904 178.527 385.672C177.663 386.44 177.231 387.496 177.231 388.84C177.231 390.184 177.663 391.24 178.527 392.008ZM216.392 363.4H221.192V397H216.392V394.12C214.824 396.36 212.44 397.48 209.24 397.48C205.56 397.48 202.888 396.36 201.224 394.12C199.56 391.848 198.728 388.808 198.728 385C198.728 381.192 199.56 378.168 201.224 375.928C202.888 373.656 205.56 372.52 209.24 372.52C212.44 372.52 214.824 373.64 216.392 375.88V363.4ZM204.968 391.288C205.96 392.536 207.624 393.16 209.96 393.16C212.296 393.16 213.944 392.536 214.904 391.288C215.896 390.008 216.392 387.912 216.392 385C216.392 382.088 215.896 380.008 214.904 378.76C213.944 377.48 212.296 376.84 209.96 376.84C207.624 376.84 205.96 377.48 204.968 378.76C204.008 380.008 203.528 382.088 203.528 385C203.528 387.912 204.008 390.008 204.968 391.288ZM259.118 373V397H254.318V377.32H245.678V397H240.878V377.32H232.238V397H227.438V373H259.118ZM283.995 392.2H286.875V397H279.195V394.6C277.755 396.52 275.531 397.48 272.523 397.48C269.771 397.48 267.643 396.648 266.139 394.984C264.667 393.288 263.931 391.24 263.931 388.84C263.931 386.44 264.667 384.408 266.139 382.744C267.643 381.048 269.771 380.2 272.523 380.2C275.531 380.2 277.755 381.16 279.195 383.08V377.32H266.715V373H283.995V392.2ZM270.027 392.008C270.923 392.776 272.235 393.16 273.963 393.16C275.691 393.16 276.987 392.776 277.851 392.008C278.747 391.24 279.195 390.184 279.195 388.84C279.195 387.496 278.747 386.44 277.851 385.672C276.987 384.904 275.691 384.52 273.963 384.52C272.235 384.52 270.923 384.904 270.027 385.672C269.163 386.44 268.731 387.496 268.731 388.84C268.731 390.184 269.163 391.24 270.027 392.008ZM304.125 372.52C307.805 372.52 310.477 373.656 312.141 375.928C313.805 378.168 314.637 381.192 314.637 385C314.637 388.808 313.805 391.848 312.141 394.12C310.477 396.36 307.805 397.48 304.125 397.48C300.925 397.48 298.541 396.36 296.973 394.12V404.68H292.173V373H296.973V375.88C298.541 373.64 300.925 372.52 304.125 372.52ZM298.413 391.288C299.405 392.536 301.069 393.16 303.405 393.16C305.741 393.16 307.389 392.536 308.349 391.288C309.341 390.008 309.837 387.912 309.837 385C309.837 382.088 309.341 380.008 308.349 378.76C307.389 377.48 305.741 376.84 303.405 376.84C301.069 376.84 299.405 377.48 298.413 378.76C297.453 380.008 296.973 382.088 296.973 385C296.973 387.912 297.453 390.008 298.413 391.288Z" fill="white"/>
</svg>
