<svg fill="none" viewBox="0 0 166 210"><path fill="#fff" fill-rule="evenodd" d="M117.25 58.072v-7.46 7.46z" clip-rule="evenodd"/><path stroke="#fff" stroke-linecap="round" stroke-linejoin="round" stroke-width="3.546" d="M117.25 58.072v-7.46"/><path fill="#fff" fill-rule="evenodd" d="M56.53 109.354l6.438-.378-6.439.378z" clip-rule="evenodd"/><path stroke="#fff" stroke-linecap="round" stroke-linejoin="round" stroke-width="3.546" d="M56.53 109.354l6.438-.378"/><path fill="#fff" fill-rule="evenodd" stroke="#fff" stroke-linecap="round" stroke-linejoin="round" stroke-width="3.546" d="M31.284 66.028a23.697 23.697 0 016.72-17.127 23.674 23.674 0 0116.947-7.146A23.663 23.663 0 0171.897 48.9a23.69 23.69 0 016.72 17.127c-.377 22.356-22.21 43.073-22.21 43.073S31.794 89.65 31.285 66.03zm102.882-45.647a17.137 17.137 0 00-4.751-12.56 17.11 17.11 0 00-19.058-3.895 17.116 17.116 0 00-9.293 9.69 17.135 17.135 0 00-1.093 6.765c.269 16.152 16.057 31.126 16.057 31.126s17.774-14.056 18.138-31.126z" clip-rule="evenodd"/><path fill="#fff" fill-rule="evenodd" d="M68.396 107.207l10.731-5.824-10.731 5.824z" clip-rule="evenodd"/><path stroke="#fff" stroke-linecap="round" stroke-linejoin="round" stroke-width="3.546" d="M68.396 107.207l10.731-5.824"/><path fill="#fff" fill-rule="evenodd" d="M83.922 97.198l4.416-10.86-4.416 10.86z" clip-rule="evenodd"/><path stroke="#fff" stroke-linecap="round" stroke-linejoin="round" stroke-width="3.546" d="M83.922 97.198l4.416-10.86"/><path fill="#fff" fill-rule="evenodd" d="M91.72 78.41l5.93-7.577-5.93 7.577z" clip-rule="evenodd"/><path stroke="#fff" stroke-linecap="round" stroke-linejoin="round" stroke-width="3.546" d="M91.72 78.41l5.93-7.577"/><path fill="#fff" fill-rule="evenodd" d="M106.897 68.43l7.451-3.406-7.451 3.407z" clip-rule="evenodd"/><path stroke="#fff" stroke-linecap="round" stroke-linejoin="round" stroke-width="3.546" d="M106.897 68.43l7.451-3.406"/><path fill="#F7A501" fill-rule="evenodd" stroke="#fff" stroke-linecap="round" stroke-linejoin="round" stroke-width="3.546" d="M43.66 67.608a11.433 11.433 0 016.877-10.733 11.417 11.417 0 0112.53 2.316 11.43 11.43 0 01-7.985 19.598 11.287 11.287 0 01-10.517-6.863 11.303 11.303 0 01-.906-4.318zm79.535-45.604a6.043 6.043 0 00-7.228-5.924 6.036 6.036 0 00-4.737 4.763 6.038 6.038 0 002.593 6.198 6.036 6.036 0 003.362 1.005 6.032 6.032 0 006.01-6.042z" clip-rule="evenodd"/><path fill="#fff" d="M19.54 194.151v-.56c4.893-.209 6.78-2.411 6.78-6.256 0-4.299-2.237-7.515-9.786-7.515H8.18v23.768h4.544v-7.445h9.402v7.445h4.544v-9.437h-7.13zm-6.816-2.202v-7.935h3.81c4.054 0 5.242.944 5.242 4.02 0 2.971-1.188 3.915-5.242 3.915h-3.81zm25.817 11.988c5.663 0 8.703-3.88 8.703-9.367 0-5.488-3.04-9.332-8.703-9.332-5.662 0-8.703 3.844-8.703 9.332 0 5.487 3.041 9.367 8.703 9.367zm0-4.194c-3.075 0-4.159-1.328-4.159-5.173 0-3.845 1.084-5.138 4.16-5.138 3.075 0 4.159 1.293 4.159 5.138 0 3.845-1.084 5.173-4.16 5.173zm26.787-.524v-13.632H51.697v4.02h9.087v3.845c-.874-1.294-2.237-2.098-4.858-2.098-4.264 0-6.257 3.076-6.257 6.292 0 3.215 1.993 6.291 6.257 6.291 2.621 0 3.984-.839 4.858-2.097v1.748H67.6v-4.369h-2.272zm-7.83.943c-2.376 0-3.285-1.118-3.285-2.516s.909-2.517 3.286-2.517 3.285 1.119 3.285 2.517-.908 2.516-3.285 2.516zm25.24-21.041v8.633c-1.188-1.747-2.935-2.516-5.103-2.516-5.417 0-7.759 4.194-7.759 9.332 0 5.138 2.342 9.367 7.76 9.367 2.167 0 3.914-.769 5.103-2.551v2.202h4.543v-24.467H82.74zm-4.159 20.622c-2.9 0-4.16-1.573-4.16-5.173 0-3.565 1.26-5.138 4.16-5.138 2.901 0 4.16 1.573 4.16 5.138 0 3.6-1.259 5.173-4.16 5.173zm38.256-14.156H91.669v18.001h4.544v-13.806h5.767v13.806h4.544v-13.806h5.767v13.806h4.544v-18.001zm18.978 13.632v-13.632h-13.632v4.02h9.088v3.845c-.874-1.294-2.237-2.098-4.859-2.098-4.264 0-6.256 3.076-6.256 6.292 0 3.215 1.992 6.291 6.256 6.291 2.622 0 3.985-.839 4.859-2.097v1.748h6.815v-4.369h-2.271zm-7.83.943c-2.376 0-3.285-1.118-3.285-2.516s.909-2.517 3.285-2.517c2.377 0 3.286 1.119 3.286 2.517s-.909 2.516-3.286 2.516zm23.406-14.924c-2.167 0-3.914.769-5.103 2.516v-2.167h-4.544v23.593h4.544v-7.794c1.189 1.782 2.936 2.551 5.103 2.551 5.418 0 7.76-4.229 7.76-9.367 0-5.138-2.342-9.332-7.76-9.332zm-.943 14.505c-2.902 0-4.16-1.573-4.16-5.173 0-3.565 1.258-5.138 4.16-5.138 2.901 0 4.159 1.573 4.159 5.138 0 3.6-1.258 5.173-4.159 5.173z"/></svg>