<svg fill="none" viewBox="0 0 49 49"><g clip-path="url(#clip0)"><path fill="#F54E00" d="M48.342 1.827c-.114-.529-.638-1.052-1.169-1.166C44.092 0 41.68 0 39.277 0c-9.88 0-15.804 5.283-20.227 12.25H9.076c-1.564.002-3.403 1.136-4.104 2.535L.24 24.24c-.146.323-.228.67-.241 1.025a2.298 2.298 0 002.297 2.297h9.935l-2.15 2.15c-1.088 1.087-1.244 3.087 0 4.33l4.871 4.872c1.068 1.071 3.078 1.26 4.333 0l2.151-2.15v9.938A2.297 2.297 0 0023.735 49a2.733 2.733 0 001.024-.24l9.449-4.728c1.4-.698 2.537-2.536 2.537-4.101v-9.995c6.948-4.433 12.253-10.375 12.253-20.203.01-2.412.01-4.824-.656-7.906zM36.754 16.078a3.828 3.828 0 11.002-7.656 3.828 3.828 0 01-.002 7.656z"/></g><defs><clipPath id="clip0"><path fill="#fff" d="M0 0h49v49H0z"/></clipPath></defs></svg>