<svg width="400" height="400" viewBox="0 0 400 400" fill="none" xmlns="http://www.w3.org/2000/svg">
<rect width="400" height="400" rx="24.5603" fill="#F7A501"/>
<g clip-path="url(#clip0)">
<path fill-rule="evenodd" clip-rule="evenodd" d="M200.117 131.915L305.057 162.634V391.376L200.117 360.656V131.915Z" fill="#596590"/>
<path fill-rule="evenodd" clip-rule="evenodd" d="M304.951 162.68L370.826 108.375V337.007L304.951 391.315V162.68Z" fill="#35416B"/>
<path fill-rule="evenodd" clip-rule="evenodd" d="M200.205 131.971L305.008 162.744L370.883 108.455L270.625 84.1172L200.205 131.971Z" fill="#A1AEDA"/>
<path fill-rule="evenodd" clip-rule="evenodd" d="M318.833 224.043L361.493 191.096C362.7 190.166 363.672 190.643 363.672 192.163V219.876C363.625 220.724 363.409 221.554 363.034 222.316C362.66 223.078 362.136 223.756 361.493 224.311L318.833 257.258C317.631 258.188 316.655 257.711 316.655 256.191V228.481C316.702 227.633 316.918 226.803 317.293 226.041C317.667 225.278 318.191 224.599 318.833 224.043V224.043Z" stroke="white" stroke-width="0.621818" stroke-linecap="round" stroke-linejoin="round"/>
<path fill-rule="evenodd" clip-rule="evenodd" d="M320.667 226.761L323.734 224.326C324.112 224.035 324.4 224.179 324.4 224.648V248.312C324.385 248.574 324.319 248.83 324.204 249.067C324.09 249.303 323.93 249.514 323.734 249.688L320.667 252.127C320.289 252.418 320.005 252.274 320.005 251.806V228.119C320.039 227.597 320.276 227.109 320.667 226.761Z" fill="#F96132"/>
<path fill-rule="evenodd" clip-rule="evenodd" d="M327.565 232.678L330.632 230.243C331.01 229.952 331.297 230.096 331.301 230.565L331.377 243.223C331.364 243.485 331.298 243.742 331.185 243.978C331.071 244.214 330.911 244.425 330.715 244.599L327.648 247.034C327.27 247.329 326.982 247.185 326.979 246.717L326.903 234.054C326.917 233.793 326.983 233.536 327.096 233.3C327.21 233.064 327.369 232.853 327.565 232.678Z" fill="white"/>
<path fill-rule="evenodd" clip-rule="evenodd" d="M334.53 222.693L337.605 220.251C337.983 219.959 338.267 220.568 338.267 220.568L338.558 237.412C338.544 237.672 338.478 237.926 338.365 238.16C338.252 238.394 338.094 238.604 337.9 238.777L334.822 241.219C334.443 241.51 334.164 241.367 334.164 240.902L333.869 224.058C333.869 223.593 334.53 222.693 334.53 222.693Z" fill="#F7A501"/>
<path fill-rule="evenodd" clip-rule="evenodd" d="M341.511 223.113L344.578 220.678C344.956 220.387 345.244 220.999 345.244 220.999L345.323 231.525C345.309 231.786 345.243 232.042 345.13 232.277C345.016 232.513 344.857 232.724 344.661 232.898L341.595 235.336C341.216 235.627 340.929 235.484 340.929 235.015L340.85 224.489C340.85 224.02 341.511 223.113 341.511 223.113Z" fill="#F96132"/>
<path fill-rule="evenodd" clip-rule="evenodd" d="M348.651 211.282L351.718 208.848C352.096 208.556 352.38 209.169 352.38 209.169L352.459 226.311C352.445 226.573 352.378 226.83 352.264 227.066C352.15 227.302 351.99 227.513 351.794 227.688L348.727 230.122C348.349 230.414 348.065 230.27 348.065 229.801L347.986 212.659C347.986 212.19 348.651 211.282 348.651 211.282Z" fill="#0316F0"/>
<path fill-rule="evenodd" clip-rule="evenodd" d="M355.976 199.361L359.043 196.926C359.421 196.635 359.708 196.779 359.708 197.248V220.942C359.694 221.204 359.627 221.461 359.513 221.697C359.399 221.933 359.239 222.145 359.043 222.319L355.976 224.754C355.598 225.045 355.314 224.901 355.314 224.432V200.738C355.328 200.476 355.394 200.219 355.507 199.983C355.621 199.747 355.78 199.536 355.976 199.361Z" fill="white"/>
<path fill-rule="evenodd" clip-rule="evenodd" d="M217.044 150.358L287.824 169.825C288.813 170.14 289.68 170.751 290.31 171.575C290.939 172.4 291.299 173.398 291.341 174.434V202.137C291.341 204.152 289.764 205.35 287.824 204.813L217.044 185.346C216.056 185.031 215.188 184.42 214.56 183.596C213.931 182.771 213.572 181.773 213.531 180.737V153.035C213.531 151.019 215.108 149.821 217.044 150.358Z" fill="white"/>
<path fill-rule="evenodd" clip-rule="evenodd" d="M216.704 194.518L287.484 213.986C288.473 214.301 289.34 214.912 289.97 215.738C290.599 216.563 290.959 217.562 291.001 218.598V246.301C291.001 248.312 289.427 249.511 287.484 248.977L216.704 229.51C215.715 229.195 214.848 228.583 214.219 227.758C213.591 226.932 213.231 225.934 213.19 224.897V197.195C213.19 195.184 214.764 193.985 216.704 194.518Z" fill="white"/>
<path fill-rule="evenodd" clip-rule="evenodd" d="M216.023 236.97L286.807 256.452C287.795 256.767 288.662 257.378 289.291 258.202C289.919 259.027 290.279 260.025 290.32 261.061V288.767C290.32 290.782 288.747 291.977 286.807 291.444L216.023 271.973C215.035 271.658 214.167 271.047 213.539 270.222C212.91 269.398 212.551 268.4 212.51 267.364V239.661C212.51 237.646 214.083 236.448 216.023 236.97Z" fill="white"/>
<path fill-rule="evenodd" clip-rule="evenodd" d="M216.363 279.788L287.143 299.255C288.132 299.569 289.001 300.179 289.63 301.004C290.259 301.829 290.619 302.827 290.66 303.864V331.566C290.66 333.582 289.087 334.78 287.143 334.243L216.363 314.776C215.373 314.463 214.503 313.853 213.872 313.028C213.242 312.203 212.881 311.204 212.839 310.167V282.464C212.839 280.449 214.423 279.255 216.363 279.788Z" fill="white"/>
<path fill-rule="evenodd" clip-rule="evenodd" d="M216.023 320.904L286.807 340.361C287.795 340.675 288.662 341.286 289.291 342.111C289.919 342.935 290.279 343.934 290.32 344.97V372.672C290.32 374.687 288.747 375.886 286.807 375.352L216.023 355.881C215.035 355.567 214.167 354.955 213.539 354.131C212.91 353.306 212.551 352.308 212.51 351.272V323.57C212.51 321.555 214.083 320.356 216.023 320.904Z" fill="white"/>
<path fill-rule="evenodd" clip-rule="evenodd" d="M225.14 174.389C224.345 174.303 223.594 173.981 222.983 173.466C222.371 172.951 221.928 172.265 221.708 171.496C221.489 170.727 221.504 169.911 221.751 169.15C221.998 168.39 222.467 167.721 223.096 167.228C223.726 166.735 224.489 166.442 225.286 166.385C226.084 166.327 226.88 166.509 227.574 166.907C228.267 167.305 228.827 167.9 229.18 168.618C229.533 169.335 229.665 170.141 229.557 170.933C229.43 171.977 228.893 172.927 228.064 173.575C227.236 174.223 226.184 174.516 225.14 174.389Z" fill="#F96132"/>
<path fill-rule="evenodd" clip-rule="evenodd" d="M222.814 217.763C222.019 217.676 221.268 217.355 220.657 216.839C220.045 216.324 219.602 215.638 219.382 214.869C219.163 214.1 219.178 213.283 219.426 212.523C219.674 211.762 220.143 211.093 220.773 210.601C221.403 210.108 222.166 209.815 222.963 209.758C223.761 209.702 224.558 209.884 225.251 210.282C225.944 210.681 226.503 211.277 226.856 211.994C227.209 212.712 227.339 213.519 227.231 214.311C227.168 214.828 227.004 215.327 226.747 215.78C226.491 216.233 226.148 216.631 225.738 216.952C225.328 217.272 224.859 217.509 224.357 217.648C223.855 217.787 223.331 217.826 222.814 217.763Z" fill="#F7A501"/>
<path fill-rule="evenodd" clip-rule="evenodd" d="M222.414 260.169C221.619 260.083 220.868 259.761 220.256 259.246C219.645 258.731 219.201 258.045 218.982 257.276C218.762 256.507 218.777 255.691 219.024 254.93C219.272 254.17 219.74 253.501 220.37 253.008C221 252.515 221.762 252.222 222.56 252.164C223.357 252.107 224.154 252.289 224.847 252.687C225.541 253.085 226.1 253.68 226.453 254.397C226.807 255.115 226.938 255.921 226.831 256.713C226.768 257.23 226.604 257.73 226.348 258.183C226.092 258.637 225.749 259.035 225.339 259.356C224.928 259.677 224.459 259.914 223.957 260.054C223.455 260.193 222.931 260.232 222.414 260.169Z" fill="#3541D1"/>
<path fill-rule="evenodd" clip-rule="evenodd" d="M221.332 302.756C220.537 302.671 219.785 302.35 219.174 301.835C218.562 301.32 218.117 300.635 217.897 299.866C217.677 299.097 217.692 298.28 217.939 297.519C218.185 296.759 218.654 296.089 219.283 295.596C219.913 295.103 220.676 294.809 221.473 294.752C222.271 294.694 223.068 294.876 223.762 295.274C224.455 295.671 225.015 296.267 225.368 296.984C225.722 297.702 225.853 298.508 225.745 299.301C225.618 300.344 225.081 301.293 224.254 301.941C223.426 302.589 222.376 302.882 221.332 302.756Z" fill="#F96132"/>
<path fill-rule="evenodd" clip-rule="evenodd" d="M220.912 344.066C220.117 343.982 219.364 343.662 218.751 343.148C218.138 342.634 217.693 341.949 217.471 341.18C217.25 340.411 217.264 339.594 217.51 338.832C217.756 338.071 218.224 337.401 218.854 336.907C219.483 336.413 220.246 336.119 221.044 336.061C221.842 336.003 222.639 336.184 223.333 336.582C224.027 336.98 224.587 337.575 224.941 338.293C225.294 339.011 225.426 339.817 225.318 340.61C225.19 341.652 224.655 342.6 223.829 343.248C223.003 343.896 221.955 344.19 220.912 344.066Z" fill="#F7A501"/>
<path fill-rule="evenodd" clip-rule="evenodd" d="M237.578 177.61C236.783 177.524 236.032 177.203 235.421 176.687C234.809 176.172 234.365 175.486 234.146 174.717C233.927 173.949 233.941 173.132 234.189 172.372C234.436 171.611 234.904 170.942 235.534 170.449C236.164 169.957 236.926 169.663 237.724 169.606C238.521 169.549 239.318 169.73 240.012 170.128C240.705 170.526 241.264 171.122 241.618 171.839C241.971 172.556 242.102 173.362 241.995 174.154C241.867 175.198 241.33 176.148 240.502 176.796C239.674 177.445 238.622 177.737 237.578 177.61Z" fill="#3541D1"/>
<path fill-rule="evenodd" clip-rule="evenodd" d="M235.256 220.977C234.462 220.887 233.712 220.564 233.103 220.046C232.494 219.529 232.053 218.843 231.836 218.074C231.619 217.305 231.636 216.489 231.885 215.73C232.134 214.971 232.604 214.303 233.235 213.812C233.865 213.321 234.627 213.029 235.424 212.973C236.221 212.918 237.017 213.101 237.71 213.499C238.402 213.897 238.96 214.493 239.313 215.21C239.665 215.927 239.796 216.733 239.688 217.525C239.624 218.043 239.459 218.543 239.202 218.997C238.945 219.451 238.6 219.849 238.189 220.17C237.777 220.491 237.306 220.727 236.803 220.865C236.299 221.004 235.774 221.042 235.256 220.977Z" fill="#F96132"/>
<path fill-rule="evenodd" clip-rule="evenodd" d="M234.851 263.382C234.056 263.296 233.305 262.975 232.694 262.46C232.082 261.944 231.639 261.259 231.419 260.49C231.2 259.721 231.215 258.904 231.462 258.144C231.709 257.384 232.178 256.714 232.807 256.222C233.437 255.729 234.2 255.435 234.997 255.378C235.795 255.321 236.591 255.503 237.285 255.901C237.978 256.298 238.538 256.894 238.891 257.611C239.244 258.328 239.376 259.135 239.268 259.927C239.14 260.971 238.604 261.921 237.775 262.569C236.947 263.217 235.895 263.51 234.851 263.382Z" fill="#F7A501"/>
<path fill-rule="evenodd" clip-rule="evenodd" d="M233.77 305.985C232.974 305.901 232.222 305.582 231.609 305.067C230.996 304.553 230.55 303.868 230.329 303.099C230.108 302.33 230.121 301.513 230.367 300.752C230.614 299.991 231.081 299.32 231.711 298.826C232.34 298.333 233.103 298.038 233.901 297.98C234.699 297.922 235.496 298.103 236.191 298.501C236.885 298.899 237.445 299.495 237.798 300.212C238.152 300.93 238.283 301.737 238.175 302.529C238.049 303.571 237.514 304.52 236.688 305.168C235.862 305.816 234.812 306.11 233.77 305.985Z" fill="#F7A501"/>
<path fill-rule="evenodd" clip-rule="evenodd" d="M233.354 347.28C232.559 347.194 231.807 346.873 231.195 346.358C230.583 345.844 230.139 345.158 229.919 344.389C229.699 343.62 229.713 342.803 229.96 342.043C230.207 341.282 230.675 340.613 231.305 340.119C231.935 339.626 232.697 339.332 233.495 339.275C234.293 339.217 235.089 339.399 235.783 339.797C236.477 340.195 237.036 340.79 237.39 341.508C237.743 342.225 237.875 343.032 237.767 343.824C237.639 344.867 237.103 345.817 236.276 346.465C235.448 347.112 234.397 347.406 233.354 347.28Z" fill="#F96132"/>
<path fill-rule="evenodd" clip-rule="evenodd" d="M245.383 176.344C245.628 175.468 246.21 174.724 247.002 174.277C247.794 173.83 248.731 173.715 249.607 173.958L284.931 183.788C285.808 184.027 286.553 184.604 287.004 185.392C287.455 186.181 287.575 187.116 287.336 187.992C287.216 188.427 287.011 188.833 286.734 189.188C286.457 189.543 286.112 189.84 285.72 190.062C285.327 190.284 284.895 190.427 284.448 190.482C284 190.536 283.547 190.502 283.112 190.382L247.792 180.552C246.915 180.313 246.168 179.735 245.716 178.946C245.265 178.157 245.145 177.221 245.383 176.344Z" fill="#F96132"/>
<path fill-rule="evenodd" clip-rule="evenodd" d="M243.057 219.721C243.302 218.845 243.884 218.102 244.676 217.655C245.468 217.208 246.405 217.093 247.282 217.336L282.605 227.139C283.039 227.26 283.446 227.465 283.8 227.742C284.155 228.02 284.452 228.364 284.674 228.757C284.895 229.149 285.037 229.581 285.092 230.028C285.146 230.475 285.112 230.929 284.992 231.363C284.871 231.797 284.667 232.203 284.389 232.558C284.112 232.913 283.767 233.21 283.375 233.432C282.982 233.653 282.55 233.795 282.103 233.85C281.655 233.904 281.202 233.869 280.768 233.748L245.447 223.937C244.572 223.693 243.83 223.113 243.382 222.323C242.934 221.533 242.817 220.597 243.057 219.721Z" fill="#3541D1"/>
<path fill-rule="evenodd" clip-rule="evenodd" d="M242.657 262.124C242.901 261.249 243.482 260.507 244.272 260.06C245.063 259.613 245.998 259.497 246.873 259.738L282.197 269.568C282.631 269.689 283.037 269.893 283.392 270.171C283.747 270.449 284.044 270.793 284.265 271.185C284.487 271.578 284.629 272.01 284.683 272.457C284.738 272.904 284.704 273.357 284.583 273.791C284.339 274.667 283.757 275.41 282.965 275.858C282.173 276.305 281.236 276.42 280.359 276.177L245.035 266.347C244.161 266.101 243.419 265.518 242.973 264.726C242.527 263.935 242.414 262.999 242.657 262.124Z" fill="#F7A501"/>
<path fill-rule="evenodd" clip-rule="evenodd" d="M241.579 304.726C241.823 303.85 242.405 303.107 243.197 302.66C243.989 302.213 244.926 302.098 245.803 302.34L281.127 312.171C281.996 312.416 282.734 312.994 283.18 313.78C283.626 314.565 283.744 315.495 283.509 316.367C283.264 317.243 282.682 317.985 281.89 318.432C281.098 318.88 280.162 318.995 279.285 318.753L243.961 308.923C243.091 308.678 242.353 308.1 241.907 307.314C241.461 306.529 241.343 305.598 241.579 304.726Z" fill="#F96132"/>
<path fill-rule="evenodd" clip-rule="evenodd" d="M241.159 346.021C241.403 345.145 241.984 344.402 242.775 343.954C243.567 343.507 244.503 343.392 245.379 343.635L280.703 353.465C281.137 353.586 281.543 353.791 281.898 354.068C282.253 354.346 282.55 354.69 282.771 355.082C282.993 355.475 283.135 355.907 283.19 356.354C283.244 356.801 283.21 357.254 283.089 357.688C282.969 358.122 282.764 358.528 282.486 358.883C282.209 359.238 281.864 359.534 281.472 359.756C281.079 359.978 280.647 360.12 280.2 360.174C279.753 360.229 279.299 360.195 278.865 360.074L243.545 350.244C243.111 350.124 242.705 349.919 242.349 349.642C241.994 349.364 241.697 349.02 241.476 348.627C241.254 348.235 241.112 347.803 241.058 347.355C241.003 346.908 241.038 346.455 241.159 346.021Z" fill="#3541D1"/>
</g>
<g clip-path="url(#clip1)">
<path fill-rule="evenodd" clip-rule="evenodd" d="M29.1174 77.9147L134.057 108.634V337.376L29.1174 306.656V77.9147Z" fill="#596590"/>
<path fill-rule="evenodd" clip-rule="evenodd" d="M133.951 108.68L199.826 54.3752V283.007L133.951 337.315V108.68Z" fill="#35416B"/>
<path fill-rule="evenodd" clip-rule="evenodd" d="M29.2046 77.9715L134.008 108.744L199.883 54.4546L99.6255 30.1172L29.2046 77.9715Z" fill="#A1AEDA"/>
<path fill-rule="evenodd" clip-rule="evenodd" d="M147.833 170.043L190.493 137.096C191.7 136.166 192.672 136.643 192.672 138.163V165.876C192.625 166.724 192.409 167.554 192.034 168.316C191.66 169.078 191.136 169.756 190.493 170.311L147.833 203.258C146.631 204.188 145.655 203.711 145.655 202.191V174.481C145.702 173.633 145.918 172.803 146.293 172.041C146.667 171.278 147.191 170.599 147.833 170.043V170.043Z" stroke="white" stroke-width="0.621818" stroke-linecap="round" stroke-linejoin="round"/>
<path fill-rule="evenodd" clip-rule="evenodd" d="M149.667 172.761L152.734 170.326C153.112 170.035 153.4 170.179 153.4 170.648V194.312C153.385 194.574 153.319 194.83 153.204 195.067C153.09 195.303 152.93 195.514 152.734 195.688L149.667 198.127C149.289 198.418 149.005 198.274 149.005 197.806V174.119C149.039 173.597 149.276 173.109 149.667 172.761Z" fill="#F96132"/>
<path fill-rule="evenodd" clip-rule="evenodd" d="M156.565 178.678L159.632 176.243C160.01 175.952 160.297 176.096 160.301 176.565L160.377 189.223C160.364 189.485 160.298 189.742 160.185 189.978C160.071 190.214 159.911 190.425 159.715 190.599L156.648 193.034C156.27 193.329 155.982 193.185 155.979 192.717L155.903 180.054C155.917 179.793 155.983 179.536 156.096 179.3C156.21 179.064 156.369 178.853 156.565 178.678Z" fill="white"/>
<path fill-rule="evenodd" clip-rule="evenodd" d="M163.53 168.693L166.605 166.251C166.983 165.959 167.267 166.568 167.267 166.568L167.558 183.412C167.544 183.672 167.478 183.926 167.365 184.16C167.252 184.394 167.094 184.604 166.9 184.777L163.822 187.219C163.443 187.51 163.164 187.367 163.164 186.902L162.869 170.058C162.869 169.593 163.53 168.693 163.53 168.693Z" fill="#F7A501"/>
<path fill-rule="evenodd" clip-rule="evenodd" d="M170.511 169.113L173.578 166.678C173.956 166.387 174.244 166.999 174.244 166.999L174.323 177.525C174.309 177.786 174.243 178.042 174.13 178.277C174.016 178.513 173.857 178.724 173.661 178.898L170.595 181.336C170.216 181.627 169.929 181.484 169.929 181.015L169.85 170.489C169.85 170.02 170.511 169.113 170.511 169.113Z" fill="#F96132"/>
<path fill-rule="evenodd" clip-rule="evenodd" d="M177.651 157.282L180.718 154.848C181.096 154.556 181.38 155.169 181.38 155.169L181.459 172.311C181.445 172.573 181.378 172.83 181.264 173.066C181.15 173.302 180.99 173.513 180.794 173.688L177.727 176.122C177.349 176.414 177.065 176.27 177.065 175.801L176.986 158.659C176.986 158.19 177.651 157.282 177.651 157.282Z" fill="#0316F0"/>
<path fill-rule="evenodd" clip-rule="evenodd" d="M184.976 145.361L188.043 142.926C188.421 142.635 188.708 142.779 188.708 143.248V166.942C188.694 167.204 188.627 167.461 188.513 167.697C188.399 167.933 188.239 168.145 188.043 168.319L184.976 170.754C184.598 171.045 184.314 170.901 184.314 170.432V146.738C184.328 146.476 184.394 146.219 184.507 145.983C184.621 145.747 184.78 145.536 184.976 145.361Z" fill="white"/>
<path fill-rule="evenodd" clip-rule="evenodd" d="M46.0439 96.3578L116.824 115.825C117.813 116.14 118.68 116.751 119.31 117.575C119.939 118.4 120.299 119.398 120.341 120.434V148.137C120.341 150.152 118.764 151.35 116.824 150.813L46.0439 131.346C45.0557 131.031 44.1884 130.42 43.5599 129.596C42.9313 128.771 42.572 127.773 42.5308 126.737V99.0347C42.5308 97.0195 44.1077 95.8209 46.0439 96.3578Z" fill="white"/>
<path fill-rule="evenodd" clip-rule="evenodd" d="M45.7035 140.518L116.484 159.986C117.473 160.301 118.34 160.912 118.97 161.738C119.599 162.563 119.959 163.562 120.001 164.598V192.301C120.001 194.312 118.427 195.511 116.484 194.977L45.7035 175.51C44.7151 175.195 43.8477 174.583 43.2192 173.758C42.5906 172.932 42.2315 171.934 42.1904 170.897V143.195C42.1904 141.184 43.7636 139.985 45.7035 140.518Z" fill="white"/>
<path fill-rule="evenodd" clip-rule="evenodd" d="M45.0229 182.97L115.807 202.452C116.795 202.767 117.662 203.378 118.291 204.202C118.919 205.027 119.279 206.025 119.32 207.061V234.767C119.32 236.782 117.747 237.977 115.807 237.444L45.0229 217.973C44.0347 217.658 43.1675 217.047 42.5389 216.222C41.9103 215.398 41.551 214.4 41.5098 213.364V185.661C41.5098 183.646 43.0829 182.448 45.0229 182.97Z" fill="white"/>
<path fill-rule="evenodd" clip-rule="evenodd" d="M45.3631 225.788L116.143 245.255C117.132 245.569 118.001 246.179 118.63 247.004C119.259 247.829 119.619 248.827 119.66 249.864V277.566C119.66 279.582 118.087 280.78 116.143 280.243L45.3631 260.776C44.3728 260.463 43.5031 259.853 42.8724 259.028C42.2417 258.203 41.8807 257.204 41.8386 256.167V228.464C41.8386 226.449 43.4231 225.255 45.3631 225.788Z" fill="white"/>
<path fill-rule="evenodd" clip-rule="evenodd" d="M45.0229 266.904L115.807 286.361C116.795 286.675 117.662 287.286 118.291 288.111C118.919 288.935 119.279 289.934 119.32 290.97V318.672C119.32 320.687 117.747 321.886 115.807 321.352L45.0229 301.881C44.0347 301.567 43.1675 300.955 42.5389 300.131C41.9103 299.306 41.551 298.308 41.5098 297.272V269.57C41.5098 267.555 43.0829 266.356 45.0229 266.904Z" fill="white"/>
<path fill-rule="evenodd" clip-rule="evenodd" d="M54.1403 120.389C53.3453 120.303 52.5942 119.981 51.9828 119.466C51.3714 118.951 50.9277 118.265 50.7083 117.496C50.4888 116.727 50.5037 115.911 50.751 115.15C50.9983 114.39 51.4667 113.721 52.0965 113.228C52.7262 112.735 53.4886 112.442 54.2861 112.385C55.0837 112.327 55.8802 112.509 56.5738 112.907C57.2675 113.305 57.8267 113.9 58.18 114.618C58.5333 115.335 58.6646 116.141 58.5572 116.933C58.4296 117.977 57.8926 118.927 57.0643 119.575C56.236 120.223 55.1843 120.516 54.1403 120.389Z" fill="#F96132"/>
<path fill-rule="evenodd" clip-rule="evenodd" d="M51.8143 163.763C51.0193 163.676 50.268 163.355 49.6566 162.839C49.0453 162.324 48.6017 161.638 48.3825 160.869C48.1633 160.1 48.1785 159.283 48.4261 158.523C48.6738 157.762 49.1426 157.093 49.7727 156.601C50.4028 156.108 51.1655 155.815 51.9633 155.758C52.761 155.702 53.5575 155.884 54.251 156.282C54.9444 156.681 55.5032 157.277 55.856 157.994C56.2088 158.712 56.3394 159.519 56.2312 160.311C56.1681 160.828 56.0037 161.327 55.7475 161.78C55.4913 162.233 55.1483 162.631 54.7381 162.952C54.3279 163.272 53.8586 163.509 53.3569 163.648C52.8553 163.787 52.3311 163.826 51.8143 163.763Z" fill="#F7A501"/>
<path fill-rule="evenodd" clip-rule="evenodd" d="M51.4137 206.169C50.6188 206.083 49.8676 205.761 49.2562 205.246C48.6449 204.731 48.2011 204.045 47.9817 203.276C47.7623 202.507 47.7772 201.691 48.0244 200.93C48.2717 200.17 48.7402 199.501 49.3699 199.008C49.9997 198.515 50.762 198.222 51.5596 198.164C52.3572 198.107 53.1537 198.289 53.8473 198.687C54.5409 199.085 55.1001 199.68 55.4534 200.397C55.8067 201.115 55.9381 201.921 55.8306 202.713C55.7679 203.23 55.6038 203.73 55.3479 204.183C55.0919 204.637 54.749 205.036 54.3387 205.356C53.9285 205.677 53.459 205.914 52.9571 206.054C52.4552 206.193 51.9308 206.232 51.4137 206.169Z" fill="#3541D1"/>
<path fill-rule="evenodd" clip-rule="evenodd" d="M50.3323 248.756C49.537 248.671 48.7854 248.35 48.1735 247.835C47.5616 247.32 47.1172 246.635 46.8972 245.866C46.6773 245.097 46.6916 244.28 46.9386 243.519C47.1855 242.759 47.6537 242.089 48.2834 241.596C48.9131 241.103 49.6755 240.809 50.4732 240.752C51.271 240.694 52.0677 240.876 52.7615 241.274C53.4554 241.671 54.0148 242.267 54.3682 242.984C54.7216 243.702 54.8529 244.508 54.7454 245.301C54.6177 246.344 54.0813 247.293 53.2538 247.941C52.4264 248.589 51.3757 248.882 50.3323 248.756Z" fill="#F96132"/>
<path fill-rule="evenodd" clip-rule="evenodd" d="M49.9124 290.066C49.1167 289.982 48.3642 289.662 47.7512 289.148C47.1382 288.634 46.6926 287.949 46.4715 287.18C46.2504 286.411 46.2638 285.594 46.51 284.832C46.7562 284.071 47.224 283.401 47.8535 282.907C48.4831 282.413 49.2456 282.119 50.0437 282.061C50.8417 282.003 51.6389 282.184 52.3332 282.582C53.0275 282.98 53.5872 283.575 53.9408 284.293C54.2944 285.011 54.4257 285.817 54.318 286.61C54.1903 287.652 53.6549 288.6 52.8292 289.248C52.0035 289.896 50.9546 290.19 49.9124 290.066Z" fill="#F7A501"/>
<path fill-rule="evenodd" clip-rule="evenodd" d="M66.578 123.61C65.7831 123.524 65.0319 123.203 64.4205 122.687C63.8092 122.172 63.3654 121.486 63.146 120.717C62.9266 119.949 62.9415 119.132 63.1888 118.372C63.436 117.611 63.9045 116.942 64.5342 116.449C65.1639 115.957 65.9263 115.663 66.7239 115.606C67.5215 115.549 68.318 115.73 69.0116 116.128C69.7052 116.526 70.2644 117.122 70.6177 117.839C70.971 118.556 71.1023 119.362 70.9949 120.154C70.8673 121.198 70.3303 122.148 69.502 122.796C68.6738 123.445 67.622 123.737 66.578 123.61Z" fill="#3541D1"/>
<path fill-rule="evenodd" clip-rule="evenodd" d="M64.256 166.977C63.4619 166.887 62.7125 166.564 62.1033 166.046C61.4942 165.529 61.053 164.843 60.836 164.074C60.6191 163.305 60.6363 162.489 60.8854 161.73C61.1345 160.971 61.6042 160.303 62.2345 159.812C62.8649 159.321 63.6273 159.029 64.4244 158.973C65.2215 158.918 66.0171 159.101 66.7097 159.499C67.4023 159.897 67.9604 160.493 68.3127 161.21C68.6651 161.927 68.7958 162.733 68.688 163.525C68.6244 164.043 68.4592 164.543 68.2019 164.997C67.9446 165.451 67.6002 165.849 67.1885 166.17C66.7768 166.491 66.3058 166.727 65.8026 166.865C65.2994 167.004 64.7738 167.042 64.256 166.977Z" fill="#F96132"/>
<path fill-rule="evenodd" clip-rule="evenodd" d="M63.8512 209.382C63.0563 209.296 62.3051 208.975 61.6937 208.46C61.0824 207.944 60.6386 207.259 60.4192 206.49C60.1998 205.721 60.2147 204.904 60.4619 204.144C60.7092 203.384 61.1777 202.714 61.8074 202.222C62.4371 201.729 63.1995 201.435 63.9971 201.378C64.7947 201.321 65.5912 201.503 66.2848 201.901C66.9784 202.298 67.5376 202.894 67.8909 203.611C68.2442 204.328 68.3756 205.135 68.2681 205.927C68.1405 206.971 67.6035 207.921 66.7753 208.569C65.947 209.217 64.8952 209.51 63.8512 209.382Z" fill="#F7A501"/>
<path fill-rule="evenodd" clip-rule="evenodd" d="M62.7699 251.985C61.9741 251.901 61.2216 251.582 60.6086 251.067C59.9956 250.553 59.55 249.868 59.3289 249.099C59.1078 248.33 59.1212 247.513 59.3674 246.752C59.6136 245.991 60.0814 245.32 60.7109 244.826C61.3405 244.333 62.1031 244.038 62.9011 243.98C63.6992 243.922 64.4963 244.103 65.1906 244.501C65.8849 244.899 66.4446 245.495 66.7982 246.212C67.1518 246.93 67.2832 247.737 67.1754 248.529C67.0487 249.571 66.5136 250.52 65.6876 251.168C64.8616 251.816 63.8123 252.11 62.7699 251.985Z" fill="#F7A501"/>
<path fill-rule="evenodd" clip-rule="evenodd" d="M62.354 293.28C61.5588 293.194 60.8071 292.873 60.1952 292.358C59.5833 291.844 59.139 291.158 58.919 290.389C58.699 289.62 58.7134 288.803 58.9603 288.043C59.2072 287.282 59.6755 286.613 60.3051 286.119C60.9348 285.626 61.6972 285.332 62.495 285.275C63.2927 285.217 64.0894 285.399 64.7833 285.797C65.4771 286.195 66.0365 286.79 66.3899 287.508C66.7433 288.225 66.8746 289.032 66.7671 289.824C66.6394 290.867 66.103 291.817 65.2756 292.465C64.4482 293.112 63.3974 293.406 62.354 293.28Z" fill="#F96132"/>
<path fill-rule="evenodd" clip-rule="evenodd" d="M74.3832 122.344C74.6277 121.468 75.2098 120.724 76.0017 120.277C76.7937 119.83 77.7307 119.715 78.6073 119.958L113.931 129.788C114.808 130.027 115.553 130.604 116.004 131.392C116.455 132.181 116.575 133.116 116.336 133.992C116.216 134.427 116.011 134.833 115.734 135.188C115.457 135.543 115.112 135.84 114.72 136.062C114.327 136.284 113.895 136.427 113.448 136.482C113 136.536 112.547 136.502 112.112 136.382L76.7921 126.552C75.9146 126.313 75.168 125.735 74.7163 124.946C74.2645 124.157 74.1447 123.221 74.3832 122.344Z" fill="#F96132"/>
<path fill-rule="evenodd" clip-rule="evenodd" d="M72.0575 165.721C72.3019 164.845 72.884 164.102 73.676 163.655C74.4679 163.208 75.405 163.093 76.2815 163.336L111.605 173.139C112.039 173.26 112.446 173.465 112.8 173.742C113.155 174.02 113.452 174.364 113.674 174.757C113.895 175.149 114.037 175.581 114.092 176.028C114.146 176.475 114.112 176.929 113.992 177.363C113.871 177.797 113.667 178.203 113.389 178.558C113.112 178.913 112.767 179.21 112.375 179.432C111.982 179.653 111.55 179.795 111.103 179.85C110.655 179.904 110.202 179.869 109.768 179.748L74.4475 169.937C73.5724 169.693 72.8295 169.113 72.3816 168.323C71.9336 167.533 71.8171 166.597 72.0575 165.721Z" fill="#3541D1"/>
<path fill-rule="evenodd" clip-rule="evenodd" d="M71.6567 208.124C71.9012 207.249 72.4821 206.507 73.2723 206.06C74.0625 205.613 74.9977 205.497 75.8732 205.738L111.197 215.568C111.631 215.689 112.037 215.893 112.392 216.171C112.747 216.449 113.044 216.793 113.265 217.185C113.487 217.578 113.629 218.01 113.683 218.457C113.738 218.904 113.704 219.357 113.583 219.791C113.339 220.667 112.757 221.41 111.965 221.858C111.173 222.305 110.236 222.42 109.359 222.177L74.0353 212.347C73.1606 212.101 72.4191 211.518 71.9733 210.726C71.5274 209.935 71.4136 208.999 71.6567 208.124Z" fill="#F7A501"/>
<path fill-rule="evenodd" clip-rule="evenodd" d="M70.5788 250.726C70.8232 249.85 71.4053 249.107 72.1972 248.66C72.9892 248.213 73.9262 248.098 74.8028 248.34L110.127 258.171C110.996 258.416 111.734 258.994 112.18 259.78C112.626 260.565 112.744 261.495 112.509 262.367C112.264 263.243 111.682 263.985 110.89 264.432C110.098 264.88 109.162 264.995 108.285 264.753L72.9612 254.923C72.0911 254.678 71.3528 254.1 70.9067 253.314C70.4606 252.529 70.3427 251.598 70.5788 250.726Z" fill="#F96132"/>
<path fill-rule="evenodd" clip-rule="evenodd" d="M70.1591 292.021C70.4027 291.145 70.9841 290.402 71.7754 289.954C72.5667 289.507 73.5033 289.392 74.3794 289.635L109.703 299.465C110.137 299.586 110.543 299.791 110.898 300.068C111.253 300.346 111.55 300.69 111.771 301.082C111.993 301.475 112.135 301.907 112.19 302.354C112.244 302.801 112.21 303.254 112.089 303.688C111.969 304.122 111.764 304.528 111.486 304.883C111.209 305.238 110.864 305.534 110.472 305.756C110.079 305.978 109.647 306.12 109.2 306.174C108.753 306.229 108.299 306.195 107.865 306.074L72.5453 296.244C72.111 296.124 71.7046 295.919 71.3495 295.642C70.9943 295.364 70.6975 295.02 70.4758 294.627C70.2541 294.235 70.1121 293.803 70.0577 293.355C70.0034 292.908 70.0378 292.455 70.1591 292.021Z" fill="#3541D1"/>
</g>
<defs>
<clipPath id="clip0">
<rect width="171" height="307.489" fill="white" transform="translate(200 84)"/>
</clipPath>
<clipPath id="clip1">
<rect width="171" height="307.489" fill="white" transform="translate(29 30)"/>
</clipPath>
</defs>
</svg>
