<svg width="596" height="595" viewBox="0 0 596 595" fill="none" xmlns="http://www.w3.org/2000/svg">
<rect x="138" width="666" height="557" rx="108" fill="#F7A501"/>
<g clip-path="url(#clip0)">
<path fill-rule="evenodd" clip-rule="evenodd" d="M380.565 77.3459H481.442C482.646 77.34 483.839 77.5712 484.954 78.0262C486.068 78.4812 487.082 79.1511 487.937 79.9977C488.792 80.8443 489.472 81.851 489.938 82.9602C490.403 84.0693 490.645 85.2593 490.65 86.462V307.386C490.65 312.423 452.68 337.568 447.593 337.568L380.565 316.502C379.361 316.508 378.167 316.277 377.053 315.822C375.938 315.367 374.924 314.697 374.069 313.851C373.213 313.004 372.533 311.997 372.067 310.888C371.601 309.779 371.359 308.589 371.353 307.386L337.864 102.532C337.864 97.4982 375.478 77.3459 380.565 77.3459Z" fill="#35416B" stroke="#35416B" stroke-width="2" stroke-linecap="round" stroke-linejoin="round"/>
<path fill-rule="evenodd" clip-rule="evenodd" d="M345.129 99.4944H446.003C448.435 99.4834 450.771 100.438 452.498 102.147C454.226 103.857 455.203 106.181 455.215 108.61V329.538C455.209 330.741 454.966 331.93 454.5 333.039C454.033 334.148 453.353 335.154 452.498 336C451.643 336.846 450.629 337.516 449.514 337.971C448.4 338.425 447.207 338.657 446.003 338.651H345.129C343.925 338.657 342.732 338.425 341.618 337.971C340.503 337.516 339.49 336.846 338.634 336C337.779 335.154 337.099 334.148 336.633 333.039C336.167 331.93 335.924 330.741 335.918 329.538V108.61C335.93 106.181 336.907 103.857 338.634 102.147C340.361 100.438 342.698 99.4834 345.129 99.4944Z" fill="white" stroke="white" stroke-width="2" stroke-linecap="round" stroke-linejoin="round"/>
<path fill-rule="evenodd" clip-rule="evenodd" d="M348.259 107.24H449.947C452.742 107.24 455.003 109.174 455.003 111.555V128.967C455.003 131.351 452.742 133.281 449.947 133.281H348.259C345.468 133.281 343.204 131.351 343.204 128.967V111.555C343.217 109.174 345.468 107.24 348.259 107.24Z" fill="#35416B" stroke="white" stroke-width="2" stroke-linecap="round" stroke-linejoin="round"/>
<path fill-rule="evenodd" clip-rule="evenodd" d="M348.298 134.973H449.985C452.78 134.973 455.041 136.903 455.041 139.287V156.699C455.041 159.079 452.78 161.013 449.985 161.013H348.298C345.506 161.013 343.242 159.079 343.242 156.699V139.287C343.242 136.903 345.506 134.973 348.298 134.973Z" fill="#35416B" stroke="white" stroke-width="2" stroke-linecap="round" stroke-linejoin="round"/>
<path fill-rule="evenodd" clip-rule="evenodd" d="M348.789 162.767H450.481C453.272 162.767 455.536 164.701 455.536 167.081V184.494C455.536 186.877 453.272 188.808 450.481 188.808H348.789C345.998 188.808 343.733 186.877 343.733 184.494V167.081C343.733 164.701 345.988 162.767 348.789 162.767Z" fill="#35416B" stroke="white" stroke-width="2" stroke-linecap="round" stroke-linejoin="round"/>
<path fill-rule="evenodd" clip-rule="evenodd" d="M348.758 190.51H450.446C453.237 190.51 455.502 192.444 455.502 194.824V212.236C455.502 214.62 453.237 216.55 450.446 216.55H348.758C345.963 216.55 343.702 214.62 343.702 212.236V194.814C343.688 192.433 345.95 190.51 348.758 190.51Z" fill="#35416B" stroke="white" stroke-width="2" stroke-linecap="round" stroke-linejoin="round"/>
<path fill-rule="evenodd" clip-rule="evenodd" d="M348.467 219.332H450.155C452.946 219.332 455.211 221.266 455.211 223.646V241.058C455.211 243.442 452.946 245.372 450.155 245.372H348.467C345.673 245.372 343.411 243.442 343.411 241.058V223.646C343.411 221.266 345.673 219.332 348.467 219.332Z" fill="#35416B" stroke="white" stroke-width="2" stroke-linecap="round" stroke-linejoin="round"/>
<path fill-rule="evenodd" clip-rule="evenodd" d="M348.689 248.375H450.38C453.171 248.375 455.436 250.306 455.436 252.69V270.102C455.436 272.485 453.171 274.416 450.38 274.416H348.689C345.898 274.416 343.633 272.485 343.633 270.102V252.69C343.633 250.306 345.898 248.375 348.689 248.375Z" fill="#35416B" stroke="white" stroke-width="2" stroke-linecap="round" stroke-linejoin="round"/>
<path fill-rule="evenodd" clip-rule="evenodd" d="M348.308 276.73H449.999C452.79 276.73 455.055 278.664 455.055 281.045V298.45C455.055 300.834 452.79 302.764 449.999 302.764H348.308C345.517 302.764 343.252 300.834 343.252 298.45V281.045C343.252 278.664 345.517 276.73 348.308 276.73Z" fill="#35416B" stroke="white" stroke-width="2" stroke-linecap="round" stroke-linejoin="round"/>
<path fill-rule="evenodd" clip-rule="evenodd" d="M348.007 304.847H449.695C452.489 304.847 454.75 306.777 454.75 309.161V326.573C454.75 328.953 452.489 330.887 449.695 330.887H348.007C345.212 330.887 342.951 328.953 342.951 326.573V309.175C342.951 306.777 345.212 304.847 348.007 304.847Z" fill="#35416B" stroke="white" stroke-width="2" stroke-linecap="round" stroke-linejoin="round"/>
<path fill-rule="evenodd" clip-rule="evenodd" d="M344.703 98.9858H447.17C452.34 98.9858 456.52 103.065 456.52 108.102V329.026C456.52 334.06 452.333 338.142 447.17 338.142H344.703C339.533 338.142 335.353 334.06 335.353 329.026V108.102C335.346 103.065 339.533 98.9858 344.703 98.9858Z" stroke="#35416B" stroke-width="2" stroke-linecap="round" stroke-linejoin="round"/>
<path fill-rule="evenodd" clip-rule="evenodd" d="M354.132 118.636H429.769C430.283 118.635 430.776 118.836 431.141 119.198C431.506 119.559 431.712 120.05 431.715 120.563C431.712 121.077 431.506 121.568 431.141 121.929C430.776 122.29 430.283 122.492 429.769 122.49H354.132C353.619 122.492 353.125 122.29 352.76 121.929C352.395 121.568 352.189 121.077 352.186 120.563C352.189 120.05 352.395 119.559 352.76 119.198C353.125 118.836 353.619 118.635 354.132 118.636Z" fill="#35416B" stroke="#F96132" stroke-width="2" stroke-linecap="round" stroke-linejoin="round"/>
<path fill-rule="evenodd" clip-rule="evenodd" d="M354.316 145.677H429.949C430.204 145.675 430.456 145.724 430.692 145.82C430.927 145.916 431.141 146.058 431.322 146.237C431.503 146.416 431.647 146.629 431.745 146.863C431.843 147.098 431.894 147.35 431.895 147.604C431.894 147.858 431.843 148.109 431.744 148.343C431.645 148.577 431.502 148.79 431.321 148.968C431.14 149.147 430.926 149.288 430.691 149.384C430.455 149.48 430.203 149.529 429.949 149.527H354.316C354.062 149.529 353.81 149.48 353.574 149.384C353.339 149.288 353.125 149.147 352.944 148.968C352.763 148.79 352.62 148.577 352.521 148.343C352.423 148.109 352.371 147.858 352.37 147.604C352.371 147.35 352.422 147.098 352.52 146.863C352.619 146.629 352.762 146.416 352.943 146.237C353.124 146.058 353.338 145.916 353.574 145.82C353.809 145.724 354.062 145.675 354.316 145.677Z" fill="#35416B" stroke="white" stroke-width="2" stroke-linecap="round" stroke-linejoin="round"/>
<path fill-rule="evenodd" clip-rule="evenodd" d="M353.859 173.437H429.496C430.009 173.435 430.503 173.637 430.868 173.998C431.233 174.359 431.439 174.851 431.442 175.364C431.439 175.877 431.233 176.368 430.868 176.729C430.503 177.091 430.009 177.293 429.496 177.291H353.859C353.345 177.293 352.852 177.091 352.487 176.729C352.122 176.368 351.916 175.877 351.913 175.364C351.916 174.851 352.122 174.359 352.487 173.998C352.852 173.637 353.345 173.435 353.859 173.437Z" fill="#35416B" stroke="#F7A501" stroke-width="2" stroke-linecap="round" stroke-linejoin="round"/>
<path fill-rule="evenodd" clip-rule="evenodd" d="M353.585 200.477H429.222C429.736 200.475 430.229 200.677 430.594 201.038C430.959 201.4 431.165 201.891 431.168 202.404C431.167 202.658 431.115 202.909 431.017 203.143C430.918 203.377 430.775 203.59 430.594 203.769C430.413 203.947 430.199 204.088 429.964 204.184C429.728 204.28 429.476 204.329 429.222 204.328H353.585C353.331 204.329 353.079 204.28 352.844 204.184C352.608 204.088 352.394 203.947 352.214 203.769C352.033 203.59 351.889 203.377 351.791 203.143C351.692 202.909 351.641 202.658 351.639 202.404C351.642 201.891 351.848 201.4 352.213 201.038C352.578 200.677 353.072 200.475 353.585 200.477Z" fill="#35416B" stroke="#0316F0" stroke-width="2" stroke-linecap="round" stroke-linejoin="round"/>
<path fill-rule="evenodd" clip-rule="evenodd" d="M353.312 230.641H428.948C429.462 230.64 429.956 230.841 430.32 231.203C430.685 231.564 430.892 232.055 430.895 232.568C430.893 232.822 430.842 233.074 430.743 233.308C430.645 233.542 430.501 233.754 430.32 233.933C430.14 234.111 429.925 234.253 429.69 234.349C429.455 234.445 429.203 234.493 428.948 234.492H353.312C353.058 234.493 352.806 234.445 352.57 234.349C352.335 234.253 352.121 234.111 351.94 233.933C351.759 233.754 351.616 233.542 351.517 233.308C351.418 233.074 351.367 232.822 351.366 232.568C351.368 232.055 351.575 231.564 351.94 231.203C352.305 230.841 352.798 230.64 353.312 230.641Z" fill="#35416B" stroke="white" stroke-width="2" stroke-linecap="round" stroke-linejoin="round"/>
<path fill-rule="evenodd" clip-rule="evenodd" d="M352.914 259.156H428.547C429.059 259.157 429.551 259.36 429.913 259.722C430.276 260.084 430.481 260.574 430.482 261.086C430.479 261.599 430.271 262.09 429.906 262.451C429.54 262.811 429.047 263.012 428.533 263.01H352.914C352.659 263.011 352.407 262.962 352.172 262.866C351.937 262.77 351.722 262.629 351.542 262.451C351.361 262.272 351.217 262.059 351.119 261.825C351.02 261.591 350.969 261.34 350.967 261.086C350.968 260.832 351.019 260.58 351.118 260.345C351.216 260.11 351.36 259.897 351.54 259.718C351.721 259.539 351.935 259.397 352.171 259.3C352.407 259.204 352.659 259.155 352.914 259.156Z" fill="#35416B" stroke="#F7A501" stroke-width="2" stroke-linecap="round" stroke-linejoin="round"/>
<path fill-rule="evenodd" clip-rule="evenodd" d="M352.494 286.736H428.128C428.382 286.734 428.634 286.783 428.87 286.879C429.106 286.975 429.32 287.117 429.501 287.296C429.681 287.475 429.825 287.688 429.923 287.922C430.022 288.157 430.073 288.408 430.074 288.663C430.071 289.176 429.865 289.667 429.5 290.028C429.135 290.39 428.641 290.592 428.128 290.59H352.494C351.981 290.592 351.487 290.39 351.122 290.028C350.758 289.667 350.551 289.176 350.548 288.663C350.549 288.408 350.6 288.157 350.699 287.922C350.797 287.688 350.941 287.475 351.121 287.296C351.302 287.117 351.517 286.975 351.752 286.879C351.988 286.783 352.24 286.734 352.494 286.736Z" fill="#35416B" stroke="#F96132" stroke-width="2" stroke-linecap="round" stroke-linejoin="round"/>
<path fill-rule="evenodd" clip-rule="evenodd" d="M353.177 316.478H428.81C429.324 316.476 429.817 316.678 430.182 317.039C430.547 317.401 430.753 317.892 430.756 318.405C430.755 318.659 430.704 318.911 430.606 319.145C430.507 319.38 430.364 319.593 430.183 319.772C430.002 319.951 429.788 320.092 429.552 320.188C429.317 320.285 429.064 320.333 428.81 320.332H353.177C352.922 320.333 352.67 320.285 352.434 320.188C352.199 320.092 351.984 319.951 351.804 319.772C351.623 319.593 351.479 319.38 351.381 319.145C351.283 318.911 351.231 318.659 351.231 318.405C351.233 317.892 351.44 317.401 351.805 317.039C352.17 316.678 352.663 316.476 353.177 316.478Z" fill="#35416B" stroke="#F96132" stroke-width="2" stroke-linecap="round" stroke-linejoin="round"/>
<path fill-rule="evenodd" clip-rule="evenodd" d="M437.668 118.439H438.038C438.317 118.438 438.594 118.491 438.852 118.597C439.11 118.702 439.344 118.857 439.543 119.053C439.741 119.249 439.898 119.482 440.006 119.739C440.114 119.996 440.17 120.271 440.172 120.55C440.168 121.111 439.941 121.649 439.541 122.044C439.141 122.439 438.601 122.659 438.038 122.657H437.668C437.106 122.659 436.565 122.439 436.165 122.044C435.765 121.649 435.538 121.111 435.535 120.55C435.536 120.271 435.592 119.996 435.7 119.739C435.808 119.482 435.966 119.249 436.164 119.053C436.362 118.857 436.597 118.702 436.855 118.597C437.113 118.491 437.389 118.438 437.668 118.439Z" fill="#35416B" stroke="#F96132" stroke-width="2" stroke-linecap="round" stroke-linejoin="round"/>
<path fill-rule="evenodd" clip-rule="evenodd" d="M437.851 145.48H438.222C438.5 145.478 438.776 145.532 439.034 145.637C439.291 145.742 439.526 145.897 439.724 146.092C439.921 146.288 440.079 146.521 440.186 146.777C440.294 147.033 440.35 147.308 440.352 147.587C440.351 147.865 440.295 148.14 440.187 148.397C440.08 148.654 439.923 148.887 439.725 149.083C439.527 149.279 439.292 149.434 439.035 149.539C438.777 149.645 438.501 149.698 438.222 149.697H437.851C437.573 149.698 437.296 149.645 437.038 149.539C436.78 149.434 436.545 149.279 436.347 149.083C436.149 148.887 435.992 148.654 435.884 148.397C435.776 148.141 435.72 147.865 435.718 147.587C435.722 147.025 435.949 146.487 436.349 146.092C436.749 145.697 437.289 145.477 437.851 145.48Z" fill="#35416B" stroke="white" stroke-width="2" stroke-linecap="round" stroke-linejoin="round"/>
<path fill-rule="evenodd" clip-rule="evenodd" d="M437.408 173.24H437.755C438.033 173.238 438.31 173.292 438.568 173.397C438.826 173.502 439.061 173.657 439.259 173.853C439.457 174.049 439.614 174.282 439.722 174.539C439.83 174.796 439.886 175.071 439.888 175.35C439.884 175.912 439.657 176.449 439.257 176.844C438.857 177.239 438.317 177.46 437.755 177.457H437.408C436.846 177.46 436.305 177.239 435.905 176.844C435.506 176.449 435.279 175.912 435.275 175.35C435.277 175.071 435.333 174.796 435.441 174.539C435.549 174.282 435.706 174.049 435.904 173.853C436.102 173.657 436.337 173.502 436.595 173.397C436.853 173.292 437.13 173.238 437.408 173.24Z" fill="#35416B" stroke="#F96132" stroke-width="2" stroke-linecap="round" stroke-linejoin="round"/>
<path fill-rule="evenodd" clip-rule="evenodd" d="M437.121 200.28H437.491C438.054 200.277 438.594 200.497 438.994 200.892C439.394 201.287 439.621 201.825 439.625 202.387C439.623 202.665 439.567 202.941 439.459 203.198C439.351 203.454 439.193 203.687 438.995 203.883C438.797 204.079 438.563 204.234 438.304 204.34C438.046 204.445 437.77 204.499 437.491 204.497H437.121C436.842 204.499 436.566 204.445 436.308 204.34C436.05 204.234 435.815 204.079 435.617 203.883C435.419 203.687 435.261 203.454 435.153 203.198C435.045 202.941 434.989 202.665 434.988 202.387C434.991 201.825 435.218 201.287 435.618 200.892C436.018 200.497 436.558 200.277 437.121 200.28Z" fill="#35416B" stroke="#0316F0" stroke-width="2" stroke-linecap="round" stroke-linejoin="round"/>
<path fill-rule="evenodd" clip-rule="evenodd" d="M436.847 230.427H437.218C437.78 230.425 438.321 230.646 438.721 231.042C439.121 231.437 439.347 231.975 439.351 232.537C439.35 232.816 439.293 233.091 439.185 233.348C439.077 233.605 438.92 233.838 438.722 234.034C438.524 234.23 438.289 234.385 438.031 234.49C437.773 234.596 437.496 234.649 437.218 234.648H436.847C436.569 234.649 436.292 234.596 436.035 234.49C435.777 234.385 435.542 234.23 435.344 234.034C435.147 233.838 434.989 233.605 434.882 233.348C434.774 233.091 434.718 232.816 434.718 232.537C434.72 231.975 434.946 231.438 435.345 231.042C435.745 230.646 436.285 230.425 436.847 230.427Z" fill="#35416B" stroke="#0316F0" stroke-width="2" stroke-linecap="round" stroke-linejoin="round"/>
<path fill-rule="evenodd" clip-rule="evenodd" d="M436.439 258.955H436.809C437.088 258.954 437.364 259.007 437.622 259.112C437.88 259.218 438.115 259.373 438.313 259.569C438.511 259.765 438.669 259.998 438.777 260.254C438.885 260.511 438.941 260.787 438.942 261.065C438.941 261.344 438.885 261.619 438.777 261.876C438.669 262.133 438.511 262.366 438.313 262.562C438.115 262.758 437.88 262.913 437.622 263.018C437.364 263.124 437.088 263.177 436.809 263.176H436.439C436.16 263.177 435.884 263.124 435.626 263.018C435.367 262.913 435.133 262.758 434.935 262.562C434.737 262.366 434.579 262.133 434.471 261.876C434.363 261.619 434.307 261.344 434.306 261.065C434.307 260.787 434.363 260.511 434.471 260.254C434.579 259.998 434.737 259.765 434.935 259.569C435.133 259.373 435.367 259.218 435.626 259.112C435.884 259.007 436.16 258.954 436.439 258.955Z" fill="#35416B" stroke="#F96132" stroke-width="2" stroke-linecap="round" stroke-linejoin="round"/>
<path fill-rule="evenodd" clip-rule="evenodd" d="M436.023 286.538H436.394C436.672 286.537 436.948 286.591 437.206 286.696C437.464 286.801 437.699 286.956 437.896 287.152C438.094 287.348 438.251 287.581 438.359 287.838C438.467 288.095 438.522 288.37 438.523 288.649C438.521 289.211 438.295 289.748 437.895 290.144C437.496 290.54 436.956 290.761 436.394 290.759H436.023C435.46 290.761 434.92 290.54 434.52 290.144C434.12 289.749 433.894 289.211 433.89 288.649C433.891 288.37 433.948 288.095 434.055 287.838C434.163 287.581 434.321 287.348 434.519 287.152C434.717 286.956 434.952 286.801 435.21 286.696C435.468 286.591 435.744 286.537 436.023 286.538Z" fill="#35416B" stroke="#F96132" stroke-width="2" stroke-linecap="round" stroke-linejoin="round"/>
<path fill-rule="evenodd" clip-rule="evenodd" d="M436.716 316.281H437.086C437.365 316.279 437.641 316.333 437.899 316.438C438.157 316.544 438.391 316.699 438.589 316.895C438.787 317.091 438.944 317.324 439.052 317.581C439.159 317.837 439.215 318.113 439.216 318.391C439.215 318.669 439.159 318.945 439.052 319.202C438.944 319.458 438.787 319.691 438.589 319.887C438.391 320.083 438.157 320.239 437.899 320.344C437.641 320.449 437.365 320.503 437.086 320.501H436.716C436.437 320.503 436.161 320.449 435.903 320.344C435.644 320.239 435.41 320.084 435.212 319.888C435.014 319.692 434.856 319.459 434.748 319.202C434.64 318.945 434.584 318.67 434.583 318.391C434.584 318.113 434.64 317.837 434.748 317.58C434.856 317.323 435.014 317.09 435.212 316.894C435.41 316.699 435.644 316.543 435.903 316.438C436.161 316.333 436.437 316.279 436.716 316.281Z" fill="#35416B" stroke="#F96132" stroke-width="2" stroke-linecap="round" stroke-linejoin="round"/>
<path fill-rule="evenodd" clip-rule="evenodd" d="M446.121 118.55H446.491C447.054 118.547 447.594 118.768 447.994 119.163C448.394 119.558 448.621 120.095 448.625 120.657C448.623 120.935 448.567 121.211 448.459 121.468C448.351 121.724 448.194 121.957 447.995 122.153C447.797 122.349 447.563 122.504 447.305 122.61C447.046 122.715 446.77 122.769 446.491 122.767H446.121C445.842 122.769 445.566 122.715 445.308 122.61C445.05 122.504 444.816 122.349 444.618 122.153C444.42 121.957 444.263 121.724 444.156 121.467C444.048 121.211 443.992 120.935 443.991 120.657C443.993 120.379 444.049 120.104 444.156 119.847C444.264 119.591 444.422 119.358 444.619 119.163C444.817 118.967 445.051 118.812 445.309 118.707C445.567 118.602 445.843 118.549 446.121 118.55Z" fill="#35416B" stroke="#F96132" stroke-width="2" stroke-linecap="round" stroke-linejoin="round"/>
<path fill-rule="evenodd" clip-rule="evenodd" d="M446.304 145.583H446.675C446.954 145.582 447.23 145.636 447.488 145.741C447.746 145.846 447.981 146.001 448.179 146.197C448.377 146.393 448.535 146.626 448.643 146.883C448.75 147.14 448.807 147.415 448.808 147.694C448.807 147.972 448.75 148.248 448.643 148.505C448.535 148.761 448.377 148.994 448.179 149.19C447.981 149.386 447.746 149.541 447.488 149.647C447.23 149.752 446.954 149.805 446.675 149.804H446.304C446.026 149.805 445.749 149.752 445.491 149.647C445.233 149.541 444.998 149.386 444.8 149.19C444.602 148.994 444.445 148.761 444.337 148.505C444.229 148.248 444.173 147.972 444.171 147.694C444.173 147.415 444.229 147.14 444.337 146.883C444.445 146.626 444.602 146.393 444.8 146.197C444.998 146.001 445.233 145.846 445.491 145.741C445.749 145.636 446.026 145.582 446.304 145.583Z" fill="#35416B" stroke="#F96132" stroke-width="2" stroke-linecap="round" stroke-linejoin="round"/>
<path fill-rule="evenodd" clip-rule="evenodd" d="M445.847 173.347H446.218C446.496 173.345 446.773 173.398 447.031 173.503C447.289 173.608 447.523 173.763 447.722 173.958C447.92 174.154 448.077 174.387 448.185 174.643C448.293 174.9 448.35 175.175 448.351 175.454C448.35 175.732 448.294 176.008 448.186 176.265C448.079 176.522 447.921 176.755 447.723 176.951C447.525 177.147 447.29 177.302 447.031 177.408C446.773 177.513 446.497 177.566 446.218 177.564H445.847C445.569 177.565 445.293 177.512 445.035 177.407C444.777 177.301 444.542 177.146 444.344 176.95C444.147 176.754 443.989 176.521 443.882 176.264C443.774 176.007 443.718 175.732 443.718 175.454C443.719 175.176 443.775 174.901 443.883 174.644C443.991 174.388 444.148 174.155 444.346 173.96C444.543 173.764 444.778 173.609 445.035 173.504C445.293 173.399 445.569 173.345 445.847 173.347Z" fill="#35416B" stroke="#F7A501" stroke-width="2" stroke-linecap="round" stroke-linejoin="round"/>
<path fill-rule="evenodd" clip-rule="evenodd" d="M445.577 200.384H445.948C446.226 200.382 446.502 200.436 446.76 200.541C447.018 200.647 447.253 200.802 447.451 200.998C447.648 201.194 447.806 201.427 447.913 201.684C448.021 201.94 448.077 202.216 448.077 202.494C448.077 202.772 448.021 203.048 447.913 203.305C447.806 203.561 447.648 203.794 447.451 203.99C447.253 204.186 447.018 204.342 446.76 204.447C446.502 204.552 446.226 204.606 445.948 204.604H445.577C445.298 204.606 445.022 204.552 444.764 204.447C444.506 204.342 444.271 204.187 444.073 203.991C443.875 203.795 443.718 203.562 443.61 203.305C443.502 203.048 443.445 202.773 443.444 202.494C443.445 202.216 443.502 201.94 443.61 201.683C443.718 201.427 443.875 201.193 444.073 200.998C444.271 200.802 444.506 200.646 444.764 200.541C445.022 200.436 445.298 200.382 445.577 200.384Z" fill="#35416B" stroke="#F96132" stroke-width="2" stroke-linecap="round" stroke-linejoin="round"/>
<path fill-rule="evenodd" clip-rule="evenodd" d="M445.304 230.534H445.674C445.953 230.533 446.229 230.586 446.487 230.692C446.745 230.797 446.979 230.952 447.177 231.148C447.375 231.344 447.532 231.577 447.64 231.834C447.747 232.091 447.803 232.366 447.804 232.645C447.803 232.923 447.747 233.198 447.64 233.455C447.532 233.712 447.375 233.945 447.177 234.141C446.979 234.337 446.745 234.492 446.487 234.597C446.229 234.703 445.953 234.756 445.674 234.755H445.304C445.025 234.756 444.749 234.703 444.491 234.598C444.232 234.492 443.998 234.337 443.8 234.141C443.602 233.945 443.444 233.712 443.336 233.455C443.228 233.199 443.172 232.923 443.171 232.645C443.172 232.366 443.228 232.091 443.336 231.834C443.444 231.577 443.602 231.344 443.8 231.148C443.998 230.952 444.232 230.797 444.491 230.692C444.749 230.586 445.025 230.533 445.304 230.534Z" fill="#35416B" stroke="#F7A501" stroke-width="2" stroke-linecap="round" stroke-linejoin="round"/>
<path fill-rule="evenodd" clip-rule="evenodd" d="M444.892 259.062H445.262C445.541 259.061 445.817 259.114 446.075 259.22C446.333 259.325 446.568 259.48 446.766 259.676C446.964 259.872 447.122 260.105 447.23 260.362C447.338 260.619 447.394 260.894 447.395 261.173C447.394 261.451 447.338 261.727 447.23 261.983C447.122 262.24 446.964 262.473 446.766 262.669C446.568 262.865 446.333 263.02 446.075 263.125C445.817 263.231 445.541 263.284 445.262 263.283H444.892C444.613 263.284 444.337 263.231 444.079 263.125C443.821 263.02 443.586 262.865 443.389 262.669C443.191 262.473 443.034 262.24 442.926 261.983C442.819 261.726 442.763 261.451 442.762 261.173C442.763 260.894 442.819 260.619 442.926 260.362C443.034 260.105 443.191 259.872 443.389 259.676C443.586 259.48 443.821 259.325 444.079 259.22C444.337 259.114 444.613 259.061 444.892 259.062Z" fill="#35416B" stroke="white" stroke-width="2" stroke-linecap="round" stroke-linejoin="round"/>
<path fill-rule="evenodd" clip-rule="evenodd" d="M444.483 286.646H444.854C445.416 286.643 445.956 286.863 446.356 287.258C446.756 287.653 446.983 288.191 446.987 288.753C446.985 289.031 446.929 289.307 446.821 289.563C446.713 289.82 446.556 290.053 446.358 290.249C446.16 290.445 445.925 290.6 445.667 290.705C445.409 290.811 445.132 290.864 444.854 290.863H444.483C444.204 290.864 443.928 290.811 443.67 290.705C443.412 290.6 443.177 290.445 442.979 290.249C442.781 290.053 442.623 289.82 442.515 289.563C442.407 289.307 442.351 289.031 442.35 288.753C442.354 288.191 442.58 287.653 442.98 287.258C443.38 286.863 443.921 286.643 444.483 286.646Z" fill="#35416B" stroke="#F7A501" stroke-width="2" stroke-linecap="round" stroke-linejoin="round"/>
<path fill-rule="evenodd" clip-rule="evenodd" d="M445.165 316.388H445.536C445.814 316.387 446.091 316.44 446.349 316.545C446.607 316.651 446.842 316.806 447.04 317.002C447.238 317.198 447.395 317.431 447.503 317.688C447.611 317.944 447.667 318.22 447.669 318.498C447.667 318.777 447.611 319.052 447.503 319.309C447.395 319.566 447.238 319.799 447.04 319.995C446.842 320.191 446.607 320.346 446.349 320.451C446.091 320.557 445.814 320.61 445.536 320.609H445.165C444.886 320.61 444.61 320.557 444.352 320.451C444.095 320.346 443.86 320.191 443.662 319.995C443.464 319.799 443.307 319.566 443.2 319.309C443.092 319.052 443.036 318.777 443.035 318.498C443.036 318.22 443.092 317.945 443.2 317.688C443.307 317.431 443.464 317.198 443.662 317.002C443.86 316.806 444.095 316.651 444.352 316.545C444.61 316.44 444.886 316.387 445.165 316.388Z" fill="#35416B" stroke="#F96132" stroke-width="2" stroke-linecap="round" stroke-linejoin="round"/>
<path fill-rule="evenodd" clip-rule="evenodd" d="M466.074 156.481L480.646 149.406C482.09 148.714 483.278 149.424 483.295 151.018L483.596 176.049C483.56 176.904 483.303 177.736 482.851 178.464C482.398 179.191 481.765 179.789 481.013 180.2L465.458 187.766C464.014 188.458 462.867 187.746 462.899 186.154L463.401 160.636C463.466 159.776 463.744 158.946 464.211 158.221C464.678 157.495 465.318 156.897 466.074 156.481Z" fill="#35416B" stroke="white" stroke-width="2" stroke-linecap="round" stroke-linejoin="round"/>
<path fill-rule="evenodd" clip-rule="evenodd" d="M467.04 164.926C467.108 164.926 467.175 164.939 467.238 164.964C467.301 164.989 467.358 165.027 467.406 165.075C467.454 165.122 467.493 165.179 467.519 165.241C467.545 165.303 467.559 165.37 467.56 165.438V182.574C467.559 182.641 467.545 182.708 467.519 182.771C467.493 182.833 467.454 182.89 467.406 182.937C467.358 182.985 467.301 183.022 467.238 183.048C467.175 183.073 467.108 183.086 467.04 183.086C466.904 183.086 466.773 183.032 466.677 182.936C466.58 182.84 466.525 182.71 466.524 182.574V165.438C466.525 165.302 466.58 165.172 466.677 165.076C466.773 164.98 466.904 164.926 467.04 164.926Z" fill="#35416B" stroke="#0316F0" stroke-width="2" stroke-linecap="round" stroke-linejoin="round"/>
<path fill-rule="evenodd" clip-rule="evenodd" d="M471.345 159.671C471.495 159.685 471.633 159.757 471.73 159.873C471.828 159.988 471.876 160.137 471.864 160.287V180.788C471.876 180.938 471.827 181.087 471.73 181.201C471.633 181.316 471.494 181.388 471.345 181.401C471.195 181.387 471.058 181.315 470.961 181.2C470.865 181.086 470.817 180.938 470.829 180.788V160.287C470.817 160.137 470.864 159.989 470.961 159.874C471.057 159.759 471.195 159.686 471.345 159.671Z" fill="#35416B" stroke="#F7A501" stroke-width="2" stroke-linecap="round" stroke-linejoin="round"/>
<path fill-rule="evenodd" clip-rule="evenodd" d="M475.621 165.255C475.744 165.242 475.867 165.277 475.964 165.354C476.061 165.43 476.124 165.541 476.141 165.663V179.315C476.124 179.437 476.061 179.548 475.964 179.624C475.867 179.7 475.744 179.736 475.621 179.723C475.499 179.735 475.377 179.699 475.281 179.623C475.185 179.547 475.122 179.436 475.105 179.315V165.656C475.123 165.536 475.187 165.427 475.283 165.352C475.379 165.278 475.5 165.243 475.621 165.255Z" fill="#35416B" stroke="white" stroke-width="2" stroke-linecap="round" stroke-linejoin="round"/>
<path fill-rule="evenodd" clip-rule="evenodd" d="M479.839 155.222C479.991 155.238 480.131 155.312 480.228 155.43C480.325 155.548 480.372 155.699 480.358 155.852V176.882C480.372 177.035 480.325 177.186 480.228 177.304C480.131 177.422 479.991 177.496 479.839 177.512C479.688 177.496 479.549 177.42 479.452 177.303C479.356 177.185 479.309 177.034 479.323 176.882V155.858C479.308 155.706 479.353 155.553 479.45 155.434C479.546 155.315 479.686 155.238 479.839 155.222Z" fill="#35416B" stroke="#F96132" stroke-width="2" stroke-linecap="round" stroke-linejoin="round"/>
</g>
<g clip-path="url(#clip1)">
<path fill-rule="evenodd" clip-rule="evenodd" d="M239.832 113.438H367.869C369.397 113.431 370.912 113.724 372.326 114.3C373.741 114.877 375.027 115.726 376.113 116.799C377.198 117.871 378.061 119.147 378.652 120.553C379.242 121.958 379.55 123.466 379.556 124.99V404.94C379.556 411.323 331.363 443.185 324.906 443.185L239.832 416.491C238.304 416.499 236.789 416.206 235.375 415.629C233.96 415.053 232.673 414.204 231.587 413.131C230.502 412.058 229.639 410.783 229.047 409.377C228.456 407.972 228.148 406.464 228.141 404.94L185.635 145.353C185.635 138.975 233.376 113.438 239.832 113.438Z" fill="#35416B" stroke="#35416B" stroke-width="2" stroke-linecap="round" stroke-linejoin="round"/>
<path fill-rule="evenodd" clip-rule="evenodd" d="M194.856 141.504H322.889C325.975 141.49 328.94 142.699 331.132 144.866C333.325 147.032 334.565 149.978 334.58 153.056V433.01C334.572 434.534 334.264 436.041 333.673 437.446C333.081 438.851 332.218 440.126 331.132 441.199C330.046 442.271 328.76 443.119 327.345 443.696C325.931 444.272 324.416 444.565 322.889 444.557H194.856C193.328 444.565 191.814 444.272 190.4 443.696C188.985 443.119 187.698 442.271 186.613 441.199C185.527 440.126 184.664 438.851 184.072 437.446C183.481 436.041 183.172 434.534 183.165 433.01V153.056C183.18 149.978 184.42 147.032 186.612 144.866C188.805 142.699 191.77 141.49 194.856 141.504Z" fill="white" stroke="white" stroke-width="2" stroke-linecap="round" stroke-linejoin="round"/>
<path fill-rule="evenodd" clip-rule="evenodd" d="M198.829 151.32H327.895C331.442 151.32 334.312 153.771 334.312 156.787V178.851C334.312 181.872 331.442 184.318 327.895 184.318H198.829C195.287 184.318 192.412 181.872 192.412 178.851V156.787C192.43 153.771 195.287 151.32 198.829 151.32Z" fill="#35416B" stroke="white" stroke-width="2" stroke-linecap="round" stroke-linejoin="round"/>
<path fill-rule="evenodd" clip-rule="evenodd" d="M198.878 186.462H327.943C331.49 186.462 334.36 188.908 334.36 191.928V213.993C334.36 217.009 331.49 219.46 327.943 219.46H198.878C195.335 219.46 192.461 217.009 192.461 213.993V191.928C192.461 188.908 195.335 186.462 198.878 186.462Z" fill="#35416B" stroke="white" stroke-width="2" stroke-linecap="round" stroke-linejoin="round"/>
<path fill-rule="evenodd" clip-rule="evenodd" d="M199.502 221.682H328.572C332.114 221.682 334.989 224.133 334.989 227.149V249.213C334.989 252.234 332.114 254.68 328.572 254.68H199.502C195.959 254.68 193.085 252.234 193.085 249.213V227.149C193.085 224.133 195.946 221.682 199.502 221.682Z" fill="#35416B" stroke="white" stroke-width="2" stroke-linecap="round" stroke-linejoin="round"/>
<path fill-rule="evenodd" clip-rule="evenodd" d="M199.462 256.837H328.528C332.07 256.837 334.945 259.288 334.945 262.304V284.368C334.945 287.389 332.07 289.835 328.528 289.835H199.462C195.915 289.835 193.045 287.389 193.045 284.368V262.291C193.028 259.275 195.898 256.837 199.462 256.837Z" fill="#35416B" stroke="white" stroke-width="2" stroke-linecap="round" stroke-linejoin="round"/>
<path fill-rule="evenodd" clip-rule="evenodd" d="M199.093 293.36H328.159C331.701 293.36 334.576 295.81 334.576 298.826V320.891C334.576 323.911 331.701 326.357 328.159 326.357H199.093C195.546 326.357 192.676 323.911 192.676 320.891V298.826C192.676 295.81 195.546 293.36 199.093 293.36Z" fill="#35416B" stroke="white" stroke-width="2" stroke-linecap="round" stroke-linejoin="round"/>
<path fill-rule="evenodd" clip-rule="evenodd" d="M199.374 330.163H328.444C331.987 330.163 334.861 332.609 334.861 335.63V357.694C334.861 360.714 331.987 363.161 328.444 363.161H199.374C195.832 363.161 192.957 360.714 192.957 357.694V335.63C192.957 332.609 195.832 330.163 199.374 330.163Z" fill="#35416B" stroke="white" stroke-width="2" stroke-linecap="round" stroke-linejoin="round"/>
<path fill-rule="evenodd" clip-rule="evenodd" d="M198.891 366.094H327.961C331.503 366.094 334.378 368.544 334.378 371.56V393.616C334.378 396.636 331.503 399.083 327.961 399.083H198.891C195.348 399.083 192.474 396.636 192.474 393.616V371.56C192.474 368.544 195.348 366.094 198.891 366.094Z" fill="#35416B" stroke="white" stroke-width="2" stroke-linecap="round" stroke-linejoin="round"/>
<path fill-rule="evenodd" clip-rule="evenodd" d="M198.508 401.722H327.574C331.121 401.722 333.991 404.168 333.991 407.188V429.253C333.991 432.269 331.121 434.72 327.574 434.72H198.508C194.961 434.72 192.091 432.269 192.091 429.253V407.206C192.091 404.168 194.961 401.722 198.508 401.722Z" fill="#35416B" stroke="white" stroke-width="2" stroke-linecap="round" stroke-linejoin="round"/>
<path fill-rule="evenodd" clip-rule="evenodd" d="M194.315 140.86H324.37C330.932 140.86 336.237 146.029 336.237 152.412V432.361C336.237 438.74 330.923 443.913 324.37 443.913H194.315C187.753 443.913 182.448 438.74 182.448 432.361V152.412C182.44 146.029 187.753 140.86 194.315 140.86Z" stroke="#35416B" stroke-width="2" stroke-linecap="round" stroke-linejoin="round"/>
<path fill-rule="evenodd" clip-rule="evenodd" d="M206.283 165.761H302.284C302.936 165.758 303.562 166.014 304.025 166.472C304.488 166.93 304.75 167.552 304.754 168.203C304.75 168.853 304.488 169.475 304.025 169.933C303.562 170.391 302.936 170.647 302.284 170.644H206.283C205.631 170.647 205.005 170.391 204.542 169.933C204.079 169.475 203.817 168.853 203.813 168.203C203.817 167.552 204.079 166.93 204.542 166.472C205.005 166.014 205.631 165.758 206.283 165.761Z" fill="#35416B" stroke="#F96132" stroke-width="2" stroke-linecap="round" stroke-linejoin="round"/>
<path fill-rule="evenodd" clip-rule="evenodd" d="M206.516 200.026H302.512C302.835 200.024 303.155 200.086 303.454 200.207C303.754 200.329 304.026 200.509 304.255 200.736C304.484 200.962 304.667 201.232 304.792 201.529C304.916 201.826 304.981 202.145 304.982 202.467C304.981 202.789 304.915 203.108 304.79 203.404C304.665 203.701 304.483 203.97 304.253 204.196C304.024 204.423 303.752 204.602 303.453 204.723C303.155 204.845 302.835 204.907 302.512 204.905H206.516C206.194 204.907 205.874 204.845 205.575 204.723C205.276 204.602 205.005 204.423 204.775 204.196C204.546 203.97 204.363 203.701 204.238 203.404C204.113 203.108 204.048 202.789 204.046 202.467C204.047 202.145 204.112 201.826 204.237 201.529C204.362 201.232 204.544 200.962 204.774 200.736C205.003 200.509 205.275 200.329 205.574 200.207C205.873 200.086 206.193 200.024 206.516 200.026Z" fill="#35416B" stroke="white" stroke-width="2" stroke-linecap="round" stroke-linejoin="round"/>
<path fill-rule="evenodd" clip-rule="evenodd" d="M205.936 235.202H301.937C302.589 235.2 303.215 235.456 303.678 235.914C304.141 236.371 304.403 236.994 304.407 237.644C304.403 238.294 304.141 238.917 303.678 239.375C303.215 239.833 302.589 240.088 301.937 240.086H205.936C205.284 240.088 204.658 239.833 204.195 239.375C203.732 238.917 203.47 238.294 203.466 237.644C203.47 236.994 203.732 236.371 204.195 235.914C204.658 235.456 205.284 235.2 205.936 235.202Z" fill="#35416B" stroke="#F7A501" stroke-width="2" stroke-linecap="round" stroke-linejoin="round"/>
<path fill-rule="evenodd" clip-rule="evenodd" d="M205.589 269.467H301.589C302.241 269.465 302.868 269.721 303.331 270.178C303.794 270.636 304.056 271.259 304.06 271.909C304.058 272.231 303.993 272.549 303.867 272.846C303.742 273.142 303.56 273.412 303.331 273.638C303.101 273.864 302.829 274.043 302.531 274.165C302.232 274.287 301.912 274.348 301.589 274.346H205.589C205.266 274.348 204.947 274.287 204.648 274.165C204.349 274.043 204.077 273.864 203.848 273.638C203.619 273.412 203.436 273.142 203.311 272.846C203.186 272.549 203.121 272.231 203.119 271.909C203.123 271.259 203.385 270.636 203.848 270.178C204.311 269.721 204.937 269.465 205.589 269.467Z" fill="#35416B" stroke="#0316F0" stroke-width="2" stroke-linecap="round" stroke-linejoin="round"/>
<path fill-rule="evenodd" clip-rule="evenodd" d="M205.242 307.691H301.242C301.894 307.688 302.521 307.944 302.984 308.402C303.447 308.86 303.709 309.482 303.712 310.133C303.711 310.454 303.645 310.773 303.52 311.069C303.395 311.366 303.213 311.635 302.983 311.862C302.754 312.088 302.482 312.267 302.183 312.388C301.885 312.51 301.565 312.572 301.242 312.57H205.242C204.919 312.572 204.599 312.51 204.301 312.388C204.002 312.267 203.73 312.088 203.501 311.862C203.271 311.635 203.089 311.366 202.964 311.069C202.839 310.773 202.774 310.454 202.772 310.133C202.775 309.482 203.037 308.86 203.501 308.402C203.964 307.944 204.59 307.688 205.242 307.691Z" fill="#35416B" stroke="white" stroke-width="2" stroke-linecap="round" stroke-linejoin="round"/>
<path fill-rule="evenodd" clip-rule="evenodd" d="M204.736 343.823H300.732C301.383 343.824 302.006 344.082 302.467 344.541C302.927 344.999 303.187 345.62 303.189 346.269C303.185 346.92 302.921 347.542 302.457 347.999C301.994 348.456 301.367 348.71 300.715 348.707H204.736C204.414 348.708 204.094 348.647 203.795 348.525C203.496 348.404 203.225 348.225 202.995 347.998C202.766 347.772 202.583 347.503 202.458 347.206C202.333 346.909 202.268 346.591 202.266 346.269C202.268 345.947 202.332 345.628 202.457 345.33C202.582 345.033 202.764 344.763 202.993 344.536C203.223 344.309 203.495 344.129 203.794 344.007C204.093 343.884 204.413 343.822 204.736 343.823Z" fill="#35416B" stroke="#F7A501" stroke-width="2" stroke-linecap="round" stroke-linejoin="round"/>
<path fill-rule="evenodd" clip-rule="evenodd" d="M204.204 378.772H300.2C300.523 378.77 300.844 378.832 301.143 378.954C301.442 379.076 301.714 379.255 301.943 379.482C302.173 379.709 302.355 379.978 302.48 380.276C302.604 380.573 302.669 380.892 302.67 381.214C302.667 381.864 302.405 382.486 301.942 382.944C301.479 383.402 300.852 383.658 300.2 383.656H204.204C203.552 383.658 202.926 383.402 202.463 382.944C202 382.486 201.738 381.864 201.734 381.214C201.736 380.892 201.8 380.573 201.925 380.276C202.05 379.978 202.232 379.709 202.462 379.482C202.691 379.255 202.963 379.076 203.262 378.954C203.561 378.832 203.881 378.77 204.204 378.772Z" fill="#35416B" stroke="#F96132" stroke-width="2" stroke-linecap="round" stroke-linejoin="round"/>
<path fill-rule="evenodd" clip-rule="evenodd" d="M205.07 416.46H301.066C301.718 416.458 302.345 416.714 302.808 417.172C303.271 417.63 303.533 418.252 303.536 418.902C303.535 419.225 303.47 419.543 303.346 419.841C303.221 420.138 303.038 420.407 302.809 420.634C302.58 420.861 302.308 421.04 302.009 421.162C301.71 421.284 301.389 421.346 301.066 421.344H205.07C204.747 421.346 204.427 421.284 204.128 421.162C203.829 421.04 203.557 420.861 203.328 420.634C203.098 420.407 202.916 420.138 202.791 419.841C202.666 419.543 202.601 419.225 202.6 418.902C202.604 418.252 202.866 417.63 203.329 417.172C203.792 416.714 204.418 416.458 205.07 416.46Z" fill="#35416B" stroke="#F96132" stroke-width="2" stroke-linecap="round" stroke-linejoin="round"/>
<path fill-rule="evenodd" clip-rule="evenodd" d="M312.309 165.511H312.78C313.133 165.509 313.484 165.577 313.812 165.71C314.139 165.844 314.437 166.04 314.689 166.289C314.94 166.537 315.14 166.832 315.277 167.158C315.414 167.483 315.485 167.832 315.487 168.185C315.482 168.897 315.195 169.578 314.687 170.079C314.179 170.579 313.493 170.858 312.78 170.855H312.309C311.595 170.858 310.909 170.579 310.402 170.079C309.894 169.578 309.606 168.897 309.602 168.185C309.604 167.832 309.675 167.483 309.812 167.158C309.949 166.832 310.149 166.537 310.4 166.289C310.652 166.04 310.95 165.844 311.277 165.71C311.605 165.577 311.955 165.509 312.309 165.511Z" fill="#35416B" stroke="#F96132" stroke-width="2" stroke-linecap="round" stroke-linejoin="round"/>
<path fill-rule="evenodd" clip-rule="evenodd" d="M312.542 199.776H313.013C313.366 199.774 313.716 199.842 314.043 199.975C314.37 200.108 314.667 200.304 314.918 200.552C315.169 200.8 315.369 201.095 315.506 201.42C315.643 201.745 315.714 202.093 315.716 202.445C315.714 202.798 315.644 203.147 315.507 203.473C315.371 203.798 315.171 204.093 314.92 204.342C314.669 204.59 314.371 204.787 314.044 204.92C313.717 205.054 313.366 205.121 313.013 205.12H312.542C312.188 205.121 311.838 205.054 311.51 204.92C311.183 204.787 310.885 204.59 310.633 204.342C310.382 204.094 310.182 203.798 310.045 203.473C309.908 203.148 309.837 202.798 309.835 202.445C309.839 201.734 310.127 201.052 310.635 200.552C311.142 200.051 311.828 199.772 312.542 199.776Z" fill="#35416B" stroke="white" stroke-width="2" stroke-linecap="round" stroke-linejoin="round"/>
<path fill-rule="evenodd" clip-rule="evenodd" d="M311.98 234.952H312.419C312.773 234.951 313.124 235.018 313.451 235.152C313.779 235.285 314.077 235.482 314.328 235.73C314.58 235.978 314.78 236.274 314.917 236.599C315.054 236.925 315.125 237.274 315.127 237.627C315.122 238.339 314.834 239.02 314.327 239.52C313.819 240.021 313.133 240.3 312.419 240.296H311.98C311.266 240.3 310.58 240.021 310.072 239.52C309.565 239.02 309.277 238.339 309.272 237.627C309.274 237.274 309.345 236.925 309.482 236.599C309.619 236.274 309.819 235.978 310.071 235.73C310.322 235.482 310.62 235.285 310.948 235.152C311.275 235.018 311.626 234.951 311.98 234.952Z" fill="#35416B" stroke="#F96132" stroke-width="2" stroke-linecap="round" stroke-linejoin="round"/>
<path fill-rule="evenodd" clip-rule="evenodd" d="M311.615 269.217H312.085C312.799 269.214 313.485 269.493 313.993 269.994C314.5 270.494 314.788 271.175 314.793 271.887C314.791 272.24 314.72 272.589 314.583 272.914C314.446 273.24 314.246 273.535 313.994 273.783C313.743 274.032 313.445 274.228 313.117 274.362C312.79 274.495 312.439 274.563 312.085 274.561H311.615C311.261 274.563 310.91 274.495 310.583 274.362C310.255 274.228 309.957 274.032 309.706 273.783C309.455 273.535 309.255 273.24 309.118 272.914C308.981 272.589 308.909 272.24 308.907 271.887C308.912 271.175 309.2 270.494 309.707 269.994C310.215 269.493 310.901 269.214 311.615 269.217Z" fill="#35416B" stroke="#0316F0" stroke-width="2" stroke-linecap="round" stroke-linejoin="round"/>
<path fill-rule="evenodd" clip-rule="evenodd" d="M311.268 307.419H311.738C312.452 307.417 313.138 307.697 313.646 308.198C314.153 308.699 314.441 309.381 314.445 310.093C314.444 310.446 314.372 310.795 314.235 311.12C314.098 311.446 313.898 311.741 313.647 311.989C313.396 312.238 313.098 312.434 312.77 312.568C312.443 312.701 312.092 312.769 311.738 312.767H311.268C310.914 312.769 310.564 312.701 310.236 312.568C309.909 312.434 309.611 312.238 309.36 311.989C309.109 311.741 308.91 311.446 308.773 311.12C308.637 310.795 308.566 310.446 308.565 310.093C308.568 309.381 308.855 308.7 309.362 308.198C309.868 307.697 310.554 307.417 311.268 307.419Z" fill="#35416B" stroke="#0316F0" stroke-width="2" stroke-linecap="round" stroke-linejoin="round"/>
<path fill-rule="evenodd" clip-rule="evenodd" d="M310.749 343.569H311.219C311.573 343.567 311.924 343.635 312.251 343.768C312.579 343.902 312.877 344.098 313.128 344.347C313.38 344.595 313.58 344.89 313.717 345.216C313.854 345.541 313.925 345.89 313.927 346.243C313.925 346.596 313.854 346.945 313.717 347.27C313.58 347.596 313.38 347.891 313.128 348.139C312.877 348.388 312.579 348.584 312.251 348.718C311.924 348.851 311.573 348.919 311.219 348.917H310.749C310.395 348.919 310.045 348.851 309.717 348.718C309.389 348.584 309.091 348.388 308.84 348.139C308.589 347.891 308.389 347.596 308.252 347.27C308.115 346.945 308.043 346.596 308.042 346.243C308.043 345.89 308.115 345.541 308.252 345.216C308.389 344.89 308.589 344.595 308.84 344.347C309.091 344.098 309.389 343.902 309.717 343.768C310.045 343.635 310.395 343.567 310.749 343.569Z" fill="#35416B" stroke="#F96132" stroke-width="2" stroke-linecap="round" stroke-linejoin="round"/>
<path fill-rule="evenodd" clip-rule="evenodd" d="M310.222 378.522H310.692C311.045 378.52 311.396 378.588 311.723 378.722C312.051 378.855 312.348 379.052 312.599 379.3C312.85 379.548 313.05 379.844 313.186 380.169C313.323 380.494 313.394 380.844 313.395 381.196C313.391 381.908 313.105 382.59 312.598 383.091C312.091 383.592 311.406 383.873 310.692 383.87H310.222C309.507 383.873 308.821 383.593 308.314 383.091C307.806 382.59 307.519 381.909 307.514 381.196C307.516 380.843 307.587 380.494 307.724 380.169C307.861 379.843 308.061 379.548 308.312 379.3C308.564 379.051 308.862 378.855 309.189 378.722C309.517 378.588 309.868 378.52 310.222 378.522Z" fill="#35416B" stroke="#F96132" stroke-width="2" stroke-linecap="round" stroke-linejoin="round"/>
<path fill-rule="evenodd" clip-rule="evenodd" d="M311.101 416.211H311.571C311.925 416.209 312.275 416.277 312.602 416.41C312.93 416.544 313.227 416.74 313.478 416.989C313.729 417.237 313.929 417.532 314.066 417.858C314.202 418.183 314.273 418.532 314.274 418.885C314.273 419.238 314.202 419.587 314.066 419.912C313.929 420.237 313.729 420.533 313.478 420.781C313.227 421.029 312.93 421.226 312.602 421.359C312.275 421.493 311.925 421.561 311.571 421.559H311.101C310.747 421.561 310.396 421.493 310.069 421.36C309.741 421.226 309.443 421.03 309.192 420.781C308.94 420.533 308.74 420.238 308.603 419.912C308.466 419.587 308.395 419.238 308.393 418.885C308.395 418.532 308.466 418.183 308.603 417.857C308.74 417.532 308.94 417.237 309.192 416.988C309.443 416.74 309.741 416.544 310.069 416.41C310.396 416.277 310.747 416.209 311.101 416.211Z" fill="#35416B" stroke="#F96132" stroke-width="2" stroke-linecap="round" stroke-linejoin="round"/>
<path fill-rule="evenodd" clip-rule="evenodd" d="M323.038 165.651H323.508C324.222 165.648 324.908 165.927 325.416 166.427C325.923 166.928 326.211 167.609 326.216 168.321C326.214 168.674 326.143 169.023 326.006 169.348C325.869 169.674 325.669 169.969 325.417 170.217C325.166 170.466 324.868 170.662 324.54 170.796C324.213 170.929 323.862 170.997 323.508 170.995H323.038C322.684 170.997 322.334 170.929 322.007 170.796C321.679 170.662 321.382 170.465 321.131 170.217C320.88 169.969 320.68 169.673 320.544 169.348C320.407 169.023 320.336 168.674 320.335 168.321C320.337 167.969 320.408 167.62 320.545 167.295C320.682 166.97 320.881 166.676 321.132 166.428C321.383 166.18 321.681 165.984 322.008 165.85C322.335 165.717 322.685 165.649 323.038 165.651Z" fill="#35416B" stroke="#F96132" stroke-width="2" stroke-linecap="round" stroke-linejoin="round"/>
<path fill-rule="evenodd" clip-rule="evenodd" d="M323.271 199.907H323.741C324.095 199.905 324.446 199.973 324.773 200.107C325.101 200.24 325.399 200.437 325.65 200.685C325.902 200.933 326.102 201.229 326.239 201.554C326.376 201.879 326.447 202.228 326.449 202.581C326.447 202.934 326.376 203.283 326.239 203.609C326.102 203.934 325.902 204.229 325.65 204.478C325.399 204.726 325.101 204.923 324.773 205.056C324.446 205.19 324.095 205.257 323.741 205.256H323.271C322.917 205.257 322.566 205.19 322.239 205.056C321.911 204.923 321.613 204.726 321.362 204.478C321.111 204.229 320.911 203.934 320.774 203.609C320.637 203.283 320.565 202.934 320.563 202.581C320.565 202.228 320.637 201.879 320.774 201.554C320.911 201.229 321.111 200.933 321.362 200.685C321.613 200.437 321.911 200.24 322.239 200.107C322.566 199.973 322.917 199.905 323.271 199.907Z" fill="#35416B" stroke="#F96132" stroke-width="2" stroke-linecap="round" stroke-linejoin="round"/>
<path fill-rule="evenodd" clip-rule="evenodd" d="M322.691 235.088H323.161C323.515 235.086 323.865 235.153 324.193 235.286C324.52 235.419 324.818 235.615 325.07 235.863C325.321 236.111 325.521 236.406 325.658 236.731C325.795 237.057 325.867 237.405 325.868 237.758C325.867 238.111 325.796 238.461 325.66 238.786C325.523 239.112 325.323 239.407 325.071 239.656C324.82 239.904 324.522 240.101 324.194 240.234C323.866 240.367 323.515 240.435 323.161 240.432H322.691C322.337 240.434 321.987 240.366 321.659 240.233C321.332 240.099 321.034 239.903 320.783 239.654C320.532 239.406 320.333 239.111 320.196 238.785C320.06 238.46 319.989 238.111 319.988 237.758C319.989 237.406 320.061 237.057 320.197 236.732C320.334 236.408 320.534 236.113 320.785 235.865C321.036 235.617 321.333 235.421 321.66 235.287C321.987 235.154 322.338 235.087 322.691 235.088Z" fill="#35416B" stroke="#F7A501" stroke-width="2" stroke-linecap="round" stroke-linejoin="round"/>
<path fill-rule="evenodd" clip-rule="evenodd" d="M322.348 269.349H322.818C323.172 269.347 323.522 269.415 323.85 269.548C324.177 269.682 324.475 269.878 324.726 270.127C324.977 270.375 325.176 270.671 325.313 270.996C325.449 271.321 325.52 271.67 325.521 272.023C325.52 272.376 325.449 272.725 325.313 273.05C325.176 273.375 324.977 273.671 324.726 273.919C324.475 274.168 324.177 274.364 323.85 274.498C323.522 274.631 323.172 274.699 322.818 274.697H322.348C321.994 274.699 321.643 274.631 321.316 274.498C320.988 274.364 320.69 274.168 320.439 273.919C320.187 273.671 319.988 273.376 319.851 273.05C319.714 272.725 319.642 272.376 319.641 272.023C319.642 271.67 319.714 271.321 319.851 270.996C319.988 270.67 320.187 270.375 320.439 270.127C320.69 269.878 320.988 269.682 321.316 269.548C321.643 269.415 321.994 269.347 322.348 269.349Z" fill="#35416B" stroke="#F96132" stroke-width="2" stroke-linecap="round" stroke-linejoin="round"/>
<path fill-rule="evenodd" clip-rule="evenodd" d="M322.001 307.555H322.471C322.825 307.553 323.175 307.621 323.502 307.754C323.83 307.888 324.127 308.084 324.379 308.333C324.63 308.581 324.829 308.877 324.966 309.202C325.102 309.527 325.173 309.876 325.174 310.229C325.173 310.582 325.102 310.931 324.966 311.256C324.829 311.581 324.63 311.877 324.379 312.125C324.127 312.374 323.83 312.57 323.502 312.704C323.175 312.837 322.825 312.905 322.471 312.903H322.001C321.647 312.905 321.296 312.837 320.969 312.704C320.641 312.57 320.343 312.374 320.092 312.125C319.84 311.877 319.64 311.582 319.503 311.256C319.366 310.931 319.295 310.582 319.293 310.229C319.295 309.876 319.366 309.527 319.503 309.202C319.64 308.876 319.84 308.581 320.092 308.333C320.343 308.084 320.641 307.888 320.969 307.754C321.296 307.621 321.647 307.553 322.001 307.555Z" fill="#35416B" stroke="#F7A501" stroke-width="2" stroke-linecap="round" stroke-linejoin="round"/>
<path fill-rule="evenodd" clip-rule="evenodd" d="M321.478 343.705H321.948C322.302 343.703 322.653 343.771 322.98 343.904C323.308 344.038 323.606 344.234 323.857 344.483C324.108 344.731 324.308 345.026 324.445 345.352C324.582 345.677 324.654 346.026 324.655 346.379C324.654 346.732 324.582 347.081 324.445 347.406C324.308 347.732 324.108 348.027 323.857 348.275C323.606 348.524 323.308 348.72 322.98 348.854C322.653 348.987 322.302 349.055 321.948 349.053H321.478C321.124 349.055 320.774 348.987 320.446 348.854C320.119 348.72 319.821 348.523 319.57 348.275C319.319 348.027 319.12 347.731 318.983 347.406C318.847 347.081 318.776 346.732 318.775 346.379C318.776 346.026 318.847 345.677 318.983 345.352C319.12 345.026 319.319 344.731 319.57 344.483C319.821 344.234 320.119 344.038 320.446 343.904C320.774 343.771 321.124 343.703 321.478 343.705Z" fill="#35416B" stroke="white" stroke-width="2" stroke-linecap="round" stroke-linejoin="round"/>
<path fill-rule="evenodd" clip-rule="evenodd" d="M320.959 378.658H321.429C322.143 378.654 322.829 378.933 323.337 379.434C323.845 379.935 324.132 380.616 324.137 381.328C324.135 381.681 324.064 382.03 323.927 382.355C323.79 382.68 323.59 382.976 323.338 383.224C323.087 383.472 322.789 383.669 322.461 383.802C322.134 383.936 321.783 384.004 321.429 384.002H320.959C320.605 384.004 320.255 383.936 319.927 383.802C319.6 383.669 319.302 383.472 319.05 383.224C318.799 382.976 318.599 382.68 318.462 382.355C318.325 382.03 318.253 381.681 318.252 381.328C318.256 380.616 318.544 379.935 319.052 379.434C319.559 378.933 320.245 378.654 320.959 378.658Z" fill="#35416B" stroke="#F7A501" stroke-width="2" stroke-linecap="round" stroke-linejoin="round"/>
<path fill-rule="evenodd" clip-rule="evenodd" d="M321.825 416.346H322.295C322.649 416.345 323 416.413 323.327 416.546C323.655 416.679 323.953 416.876 324.204 417.124C324.456 417.373 324.656 417.668 324.793 417.993C324.93 418.319 325.001 418.668 325.003 419.021C325.001 419.374 324.93 419.723 324.793 420.048C324.656 420.374 324.456 420.669 324.204 420.917C323.953 421.165 323.655 421.362 323.327 421.495C323 421.629 322.649 421.697 322.295 421.695H321.825C321.471 421.697 321.121 421.629 320.794 421.495C320.466 421.362 320.169 421.165 319.918 420.917C319.667 420.668 319.467 420.373 319.33 420.048C319.194 419.722 319.123 419.373 319.122 419.021C319.123 418.668 319.194 418.319 319.33 417.994C319.467 417.668 319.667 417.373 319.918 417.125C320.169 416.876 320.466 416.68 320.794 416.546C321.121 416.413 321.471 416.345 321.825 416.346Z" fill="#35416B" stroke="#F96132" stroke-width="2" stroke-linecap="round" stroke-linejoin="round"/>
<path fill-rule="evenodd" clip-rule="evenodd" d="M348.363 213.717L366.858 204.751C368.691 203.875 370.199 204.773 370.221 206.794L370.603 238.512C370.557 239.596 370.231 240.651 369.657 241.572C369.082 242.494 368.279 243.252 367.324 243.773L347.581 253.361C345.748 254.237 344.293 253.334 344.333 251.318L344.97 218.982C345.053 217.892 345.406 216.84 345.998 215.921C346.591 215.001 347.404 214.244 348.363 213.717Z" fill="#35416B" stroke="white" stroke-width="2" stroke-linecap="round" stroke-linejoin="round"/>
<path fill-rule="evenodd" clip-rule="evenodd" d="M349.589 224.418C349.675 224.417 349.761 224.434 349.84 224.466C349.92 224.498 349.993 224.546 350.054 224.606C350.115 224.666 350.164 224.738 350.197 224.817C350.231 224.896 350.248 224.981 350.249 225.067V246.78C350.248 246.866 350.231 246.951 350.197 247.03C350.164 247.109 350.115 247.181 350.054 247.241C349.993 247.301 349.92 247.349 349.84 247.381C349.761 247.413 349.675 247.43 349.589 247.429C349.417 247.429 349.251 247.361 349.128 247.239C349.005 247.118 348.936 246.953 348.935 246.78V225.067C348.936 224.894 349.005 224.729 349.128 224.608C349.251 224.486 349.417 224.418 349.589 224.418Z" fill="#35416B" stroke="#0316F0" stroke-width="2" stroke-linecap="round" stroke-linejoin="round"/>
<path fill-rule="evenodd" clip-rule="evenodd" d="M355.053 217.759C355.243 217.776 355.419 217.868 355.542 218.014C355.666 218.16 355.727 218.349 355.712 218.539V244.518C355.727 244.708 355.666 244.896 355.542 245.041C355.419 245.186 355.243 245.277 355.053 245.294C354.863 245.276 354.689 245.185 354.566 245.04C354.444 244.895 354.383 244.707 354.398 244.518V218.539C354.383 218.349 354.443 218.161 354.566 218.016C354.688 217.87 354.863 217.777 355.053 217.759Z" fill="#35416B" stroke="#F7A501" stroke-width="2" stroke-linecap="round" stroke-linejoin="round"/>
<path fill-rule="evenodd" clip-rule="evenodd" d="M360.481 224.834C360.637 224.818 360.793 224.863 360.916 224.96C361.039 225.056 361.119 225.197 361.14 225.352V242.651C361.119 242.805 361.039 242.946 360.916 243.043C360.793 243.139 360.637 243.184 360.481 243.168C360.326 243.183 360.171 243.137 360.049 243.041C359.927 242.945 359.847 242.805 359.826 242.651V225.343C359.849 225.19 359.93 225.053 360.052 224.958C360.173 224.863 360.327 224.819 360.481 224.834Z" fill="#35416B" stroke="white" stroke-width="2" stroke-linecap="round" stroke-linejoin="round"/>
<path fill-rule="evenodd" clip-rule="evenodd" d="M365.834 212.121C366.027 212.141 366.204 212.236 366.328 212.385C366.451 212.534 366.511 212.726 366.493 212.919V239.569C366.511 239.761 366.451 239.953 366.328 240.102C366.204 240.252 366.027 240.347 365.834 240.367C365.642 240.346 365.466 240.25 365.343 240.101C365.221 239.952 365.162 239.761 365.179 239.569V212.927C365.16 212.734 365.217 212.541 365.34 212.39C365.463 212.238 365.64 212.142 365.834 212.121Z" fill="#35416B" stroke="#F96132" stroke-width="2" stroke-linecap="round" stroke-linejoin="round"/>
</g>
<g clip-path="url(#clip2)">
<path fill-rule="evenodd" clip-rule="evenodd" d="M74.1889 169.562H238.438C240.399 169.553 242.341 169.929 244.156 170.669C245.97 171.408 247.621 172.498 249.013 173.874C250.405 175.251 251.512 176.888 252.27 178.691C253.028 180.494 253.423 182.429 253.431 184.385V543.597C253.431 551.787 191.607 592.671 183.324 592.671L74.1889 558.419C72.2285 558.429 70.2854 558.053 68.4706 557.314C66.6558 556.574 65.0049 555.485 63.6121 554.108C62.2194 552.732 61.1121 551.095 60.3535 549.291C59.5949 547.488 59.1999 545.553 59.191 543.597L4.66296 210.514C4.66296 202.329 65.9062 169.562 74.1889 169.562Z" fill="#35416B" stroke="#35416B" stroke-width="2" stroke-linecap="round" stroke-linejoin="round"/>
<path fill-rule="evenodd" clip-rule="evenodd" d="M16.4921 205.575H180.736C184.695 205.557 188.499 207.108 191.311 209.888C194.124 212.667 195.714 216.448 195.734 220.397V579.615C195.724 581.57 195.329 583.505 194.57 585.308C193.811 587.111 192.703 588.747 191.311 590.122C189.918 591.498 188.267 592.587 186.453 593.326C184.638 594.066 182.696 594.441 180.736 594.432H16.4921C14.5321 594.441 12.5895 594.066 10.775 593.326C8.96061 592.587 7.30992 591.498 5.91724 590.122C4.52455 588.747 3.41713 587.111 2.65821 585.308C1.8993 583.505 1.50374 581.57 1.49414 579.615V220.397C1.51354 216.448 3.1044 212.667 5.91689 209.888C8.72939 207.108 12.5333 205.557 16.4921 205.575Z" fill="white" stroke="white" stroke-width="2" stroke-linecap="round" stroke-linejoin="round"/>
<path fill-rule="evenodd" clip-rule="evenodd" d="M21.589 218.17H187.158C191.708 218.17 195.39 221.314 195.39 225.184V253.496C195.39 257.371 191.708 260.51 187.158 260.51H21.589C17.0445 260.51 13.3571 257.371 13.3571 253.496V225.184C13.3796 221.314 17.0445 218.17 21.589 218.17Z" fill="#35416B" stroke="white" stroke-width="2" stroke-linecap="round" stroke-linejoin="round"/>
<path fill-rule="evenodd" clip-rule="evenodd" d="M21.6511 263.261H187.22C191.77 263.261 195.452 266.4 195.452 270.276V298.587C195.452 302.457 191.77 305.602 187.22 305.602H21.6511C17.1066 305.602 13.4192 302.457 13.4192 298.587V270.276C13.4192 266.4 17.1066 263.261 21.6511 263.261Z" fill="#35416B" stroke="white" stroke-width="2" stroke-linecap="round" stroke-linejoin="round"/>
<path fill-rule="evenodd" clip-rule="evenodd" d="M22.4519 308.454H188.026C192.571 308.454 196.258 311.598 196.258 315.468V343.78C196.258 347.655 192.571 350.794 188.026 350.794H22.4519C17.9074 350.794 14.22 347.655 14.22 343.78V315.468C14.22 311.598 17.8905 308.454 22.4519 308.454Z" fill="#35416B" stroke="white" stroke-width="2" stroke-linecap="round" stroke-linejoin="round"/>
<path fill-rule="evenodd" clip-rule="evenodd" d="M22.401 353.562H187.97C192.514 353.562 196.202 356.706 196.202 360.577V388.888C196.202 392.764 192.514 395.903 187.97 395.903H22.401C17.8508 395.903 14.169 392.764 14.169 388.888V360.56C14.1465 356.69 17.8283 353.562 22.401 353.562Z" fill="#35416B" stroke="white" stroke-width="2" stroke-linecap="round" stroke-linejoin="round"/>
<path fill-rule="evenodd" clip-rule="evenodd" d="M21.9273 400.425H187.496C192.041 400.425 195.728 403.57 195.728 407.44V435.751C195.728 439.627 192.041 442.766 187.496 442.766H21.9273C17.3772 442.766 13.6954 439.627 13.6954 435.751V407.44C13.6954 403.57 17.3772 400.425 21.9273 400.425Z" fill="#35416B" stroke="white" stroke-width="2" stroke-linecap="round" stroke-linejoin="round"/>
<path fill-rule="evenodd" clip-rule="evenodd" d="M22.2883 447.649H187.863C192.407 447.649 196.095 450.788 196.095 454.663V482.975C196.095 486.85 192.407 489.989 187.863 489.989H22.2883C17.7438 489.989 14.0564 486.85 14.0564 482.975V454.663C14.0564 450.788 17.7438 447.649 22.2883 447.649Z" fill="#35416B" stroke="white" stroke-width="2" stroke-linecap="round" stroke-linejoin="round"/>
<path fill-rule="evenodd" clip-rule="evenodd" d="M21.668 493.752H187.242C191.787 493.752 195.474 496.897 195.474 500.767V529.067C195.474 532.943 191.787 536.082 187.242 536.082H21.668C17.1235 536.082 13.436 532.943 13.436 529.067V500.767C13.436 496.897 17.1235 493.752 21.668 493.752Z" fill="#35416B" stroke="white" stroke-width="2" stroke-linecap="round" stroke-linejoin="round"/>
<path fill-rule="evenodd" clip-rule="evenodd" d="M21.1774 539.468H186.746C191.296 539.468 194.978 542.607 194.978 546.483V574.794C194.978 578.664 191.296 581.809 186.746 581.809H21.1774C16.6273 581.809 12.9454 578.664 12.9454 574.794V546.505C12.9454 542.607 16.6273 539.468 21.1774 539.468Z" fill="#35416B" stroke="white" stroke-width="2" stroke-linecap="round" stroke-linejoin="round"/>
<path fill-rule="evenodd" clip-rule="evenodd" d="M15.7985 204.748H182.636C191.054 204.748 197.859 211.38 197.859 219.57V578.783C197.859 586.967 191.043 593.605 182.636 593.605H15.7985C7.38052 593.605 0.575087 586.967 0.575087 578.783V219.57C0.563811 211.38 7.38052 204.748 15.7985 204.748Z" stroke="#35416B" stroke-width="2" stroke-linecap="round" stroke-linejoin="round"/>
<path fill-rule="evenodd" clip-rule="evenodd" d="M31.1515 236.699H154.303C155.14 236.696 155.943 237.024 156.537 237.612C157.131 238.199 157.468 238.998 157.472 239.832C157.468 240.667 157.131 241.465 156.537 242.053C155.943 242.64 155.14 242.968 154.303 242.965H31.1515C30.3151 242.968 29.5116 242.64 28.9175 242.053C28.3234 241.465 27.9873 240.667 27.9828 239.832C27.9873 238.998 28.3234 238.199 28.9175 237.612C29.5116 237.024 30.3151 236.696 31.1515 236.699Z" fill="#35416B" stroke="#F96132" stroke-width="2" stroke-linecap="round" stroke-linejoin="round"/>
<path fill-rule="evenodd" clip-rule="evenodd" d="M31.4503 280.665H154.597C155.011 280.663 155.422 280.742 155.805 280.899C156.189 281.055 156.538 281.285 156.832 281.576C157.126 281.867 157.36 282.213 157.521 282.595C157.681 282.976 157.764 283.385 157.765 283.799C157.763 284.212 157.679 284.62 157.519 285.001C157.358 285.381 157.124 285.727 156.83 286.017C156.536 286.308 156.187 286.537 155.804 286.693C155.421 286.849 155.01 286.928 154.597 286.926H31.4503C31.0364 286.928 30.6262 286.849 30.2429 286.693C29.8597 286.537 29.5109 286.308 29.2167 286.017C28.9225 285.727 28.6884 285.381 28.528 285.001C28.3675 284.62 28.2838 284.212 28.2816 283.799C28.2831 283.385 28.3663 282.976 28.5264 282.595C28.6865 282.213 28.9204 281.867 29.2147 281.576C29.5091 281.285 29.858 281.055 30.2416 280.899C30.6252 280.742 31.036 280.663 31.4503 280.665Z" fill="#35416B" stroke="white" stroke-width="2" stroke-linecap="round" stroke-linejoin="round"/>
<path fill-rule="evenodd" clip-rule="evenodd" d="M30.7063 325.802H153.858C154.695 325.799 155.498 326.127 156.092 326.714C156.686 327.302 157.022 328.1 157.027 328.935C157.022 329.769 156.686 330.568 156.092 331.155C155.498 331.743 154.695 332.071 153.858 332.068H30.7063C29.8699 332.071 29.0665 331.743 28.4724 331.155C27.8783 330.568 27.5421 329.769 27.5376 328.935C27.5421 328.1 27.8783 327.302 28.4724 326.714C29.0665 326.127 29.8699 325.799 30.7063 325.802Z" fill="#35416B" stroke="#F7A501" stroke-width="2" stroke-linecap="round" stroke-linejoin="round"/>
<path fill-rule="evenodd" clip-rule="evenodd" d="M30.2609 369.768H153.413C154.249 369.765 155.053 370.093 155.647 370.681C156.241 371.268 156.577 372.067 156.581 372.901C156.579 373.314 156.496 373.723 156.335 374.103C156.175 374.484 155.941 374.829 155.646 375.12C155.352 375.41 155.003 375.64 154.62 375.796C154.237 375.952 153.827 376.031 153.413 376.029H30.2609C29.847 376.031 29.4367 375.952 29.0535 375.796C28.6702 375.64 28.3215 375.41 28.0272 375.12C27.733 374.829 27.499 374.484 27.3385 374.103C27.1781 373.723 27.0944 373.314 27.0922 372.901C27.0966 372.067 27.4328 371.268 28.0269 370.681C28.621 370.093 29.4245 369.765 30.2609 369.768Z" fill="#35416B" stroke="#0316F0" stroke-width="2" stroke-linecap="round" stroke-linejoin="round"/>
<path fill-rule="evenodd" clip-rule="evenodd" d="M29.8155 418.814H152.967C153.804 418.811 154.607 419.139 155.201 419.727C155.795 420.314 156.131 421.113 156.136 421.947C156.134 422.36 156.05 422.769 155.89 423.149C155.729 423.53 155.495 423.875 155.201 424.166C154.907 424.456 154.558 424.686 154.175 424.842C153.791 424.998 153.381 425.077 152.967 425.075H29.8155C29.4015 425.077 28.9912 424.998 28.608 424.842C28.2247 424.686 27.8761 424.456 27.5818 424.166C27.2876 423.875 27.0535 423.53 26.8931 423.149C26.7327 422.769 26.6489 422.36 26.6467 421.947C26.6512 421.113 26.9874 420.314 27.5815 419.727C28.1756 419.139 28.979 418.811 29.8155 418.814Z" fill="#35416B" stroke="white" stroke-width="2" stroke-linecap="round" stroke-linejoin="round"/>
<path fill-rule="evenodd" clip-rule="evenodd" d="M29.1669 465.177H152.313C153.148 465.178 153.948 465.509 154.538 466.097C155.129 466.685 155.462 467.483 155.465 468.315C155.459 469.15 155.121 469.948 154.526 470.534C153.931 471.121 153.127 471.448 152.291 471.443H29.1669C28.753 471.445 28.3427 471.366 27.9595 471.21C27.5762 471.054 27.2275 470.824 26.9333 470.534C26.639 470.244 26.405 469.898 26.2445 469.518C26.0841 469.137 26.0004 468.728 25.9982 468.315C25.9996 467.902 26.0828 467.492 26.2428 467.111C26.4029 466.729 26.6367 466.383 26.9309 466.091C27.2252 465.8 27.5741 465.569 27.9577 465.412C28.3414 465.255 28.7523 465.175 29.1669 465.177Z" fill="#35416B" stroke="#F7A501" stroke-width="2" stroke-linecap="round" stroke-linejoin="round"/>
<path fill-rule="evenodd" clip-rule="evenodd" d="M28.4846 510.02H151.631C152.045 510.018 152.456 510.098 152.84 510.254C153.223 510.41 153.572 510.64 153.867 510.931C154.161 511.222 154.395 511.569 154.555 511.95C154.715 512.331 154.798 512.74 154.8 513.154C154.795 513.988 154.459 514.787 153.865 515.374C153.271 515.962 152.467 516.29 151.631 516.287H28.4846C27.6482 516.29 26.8448 515.962 26.2507 515.374C25.6566 514.787 25.3204 513.988 25.3159 513.154C25.3174 512.74 25.4006 512.331 25.5607 511.95C25.7208 511.569 25.9547 511.222 26.249 510.931C26.5434 510.64 26.8923 510.41 27.2759 510.254C27.6595 510.098 28.0703 510.018 28.4846 510.02Z" fill="#35416B" stroke="#F96132" stroke-width="2" stroke-linecap="round" stroke-linejoin="round"/>
<path fill-rule="evenodd" clip-rule="evenodd" d="M29.5956 558.38H152.742C153.578 558.377 154.382 558.705 154.976 559.293C155.57 559.88 155.906 560.679 155.911 561.513C155.909 561.927 155.826 562.336 155.666 562.717C155.506 563.098 155.272 563.444 154.977 563.735C154.683 564.026 154.334 564.257 153.951 564.413C153.567 564.569 153.156 564.649 152.742 564.647H29.5956C29.1812 564.649 28.7705 564.569 28.3869 564.413C28.0033 564.257 27.6543 564.026 27.36 563.735C27.0656 563.444 26.8317 563.098 26.6716 562.717C26.5115 562.336 26.4284 561.927 26.4269 561.513C26.4314 560.679 26.7675 559.88 27.3616 559.293C27.9557 558.705 28.7592 558.377 29.5956 558.38Z" fill="#35416B" stroke="#F96132" stroke-width="2" stroke-linecap="round" stroke-linejoin="round"/>
<path fill-rule="evenodd" clip-rule="evenodd" d="M167.164 236.378H167.768C168.222 236.376 168.671 236.463 169.092 236.634C169.512 236.806 169.894 237.058 170.217 237.376C170.539 237.695 170.796 238.074 170.971 238.491C171.147 238.909 171.239 239.357 171.241 239.81C171.235 240.723 170.866 241.597 170.215 242.239C169.563 242.882 168.683 243.24 167.768 243.235H167.164C166.249 243.24 165.369 242.882 164.717 242.239C164.066 241.597 163.697 240.723 163.691 239.81C163.693 239.357 163.785 238.909 163.961 238.491C164.137 238.074 164.393 237.695 164.715 237.376C165.038 237.058 165.42 236.806 165.84 236.634C166.261 236.463 166.71 236.376 167.164 236.378Z" fill="#35416B" stroke="#F96132" stroke-width="2" stroke-linecap="round" stroke-linejoin="round"/>
<path fill-rule="evenodd" clip-rule="evenodd" d="M167.463 280.345H168.067C168.52 280.342 168.969 280.429 169.388 280.6C169.808 280.771 170.19 281.023 170.512 281.341C170.834 281.659 171.09 282.037 171.265 282.454C171.44 282.871 171.532 283.318 171.534 283.77C171.533 284.223 171.442 284.671 171.267 285.088C171.091 285.506 170.836 285.885 170.514 286.203C170.191 286.522 169.81 286.774 169.39 286.946C168.97 287.117 168.52 287.204 168.067 287.202H167.463C167.009 287.204 166.56 287.117 166.139 286.946C165.719 286.775 165.337 286.522 165.014 286.204C164.692 285.885 164.435 285.506 164.26 285.089C164.084 284.671 163.992 284.223 163.99 283.77C163.996 282.857 164.365 281.983 165.016 281.341C165.668 280.698 166.548 280.34 167.463 280.345Z" fill="#35416B" stroke="white" stroke-width="2" stroke-linecap="round" stroke-linejoin="round"/>
<path fill-rule="evenodd" clip-rule="evenodd" d="M166.742 325.481H167.306C167.759 325.479 168.209 325.566 168.63 325.737C169.05 325.908 169.432 326.161 169.755 326.479C170.077 326.798 170.333 327.177 170.509 327.594C170.685 328.012 170.777 328.46 170.779 328.912C170.773 329.826 170.404 330.7 169.753 331.342C169.101 331.984 168.221 332.343 167.306 332.338H166.742C165.826 332.343 164.946 331.984 164.295 331.342C163.644 330.7 163.275 329.826 163.269 328.912C163.271 328.46 163.362 328.012 163.538 327.594C163.714 327.177 163.97 326.798 164.293 326.479C164.615 326.161 164.998 325.908 165.418 325.737C165.838 325.566 166.288 325.479 166.742 325.481Z" fill="#35416B" stroke="#F96132" stroke-width="2" stroke-linecap="round" stroke-linejoin="round"/>
<path fill-rule="evenodd" clip-rule="evenodd" d="M166.274 369.447H166.877C167.793 369.443 168.673 369.801 169.324 370.443C169.975 371.086 170.344 371.96 170.35 372.873C170.348 373.326 170.256 373.774 170.081 374.191C169.905 374.609 169.648 374.988 169.326 375.307C169.003 375.625 168.621 375.877 168.201 376.049C167.781 376.22 167.331 376.307 166.877 376.305H166.274C165.82 376.307 165.37 376.22 164.95 376.049C164.529 375.877 164.147 375.625 163.825 375.307C163.502 374.988 163.246 374.609 163.07 374.191C162.894 373.774 162.803 373.326 162.8 372.873C162.806 371.96 163.176 371.086 163.827 370.443C164.478 369.801 165.358 369.443 166.274 369.447Z" fill="#35416B" stroke="#0316F0" stroke-width="2" stroke-linecap="round" stroke-linejoin="round"/>
<path fill-rule="evenodd" clip-rule="evenodd" d="M165.828 418.465H166.431C167.348 418.462 168.228 418.822 168.879 419.465C169.53 420.108 169.899 420.982 169.905 421.897C169.902 422.349 169.811 422.797 169.635 423.215C169.459 423.632 169.203 424.011 168.88 424.33C168.558 424.648 168.176 424.901 167.755 425.072C167.335 425.243 166.885 425.33 166.431 425.328H165.828C165.375 425.33 164.925 425.243 164.505 425.072C164.085 424.9 163.703 424.648 163.381 424.33C163.059 424.011 162.803 423.632 162.628 423.214C162.453 422.797 162.362 422.349 162.361 421.897C162.365 420.983 162.733 420.109 163.383 419.465C164.033 418.822 164.912 418.462 165.828 418.465Z" fill="#35416B" stroke="#0316F0" stroke-width="2" stroke-linecap="round" stroke-linejoin="round"/>
<path fill-rule="evenodd" clip-rule="evenodd" d="M165.163 464.85H165.766C166.22 464.848 166.67 464.935 167.09 465.106C167.51 465.278 167.893 465.53 168.215 465.848C168.538 466.167 168.794 466.546 168.97 466.963C169.146 467.381 169.237 467.829 169.239 468.282C169.237 468.735 169.146 469.183 168.97 469.6C168.794 470.018 168.538 470.396 168.215 470.715C167.893 471.034 167.51 471.286 167.09 471.457C166.67 471.628 166.22 471.715 165.766 471.713H165.163C164.709 471.715 164.259 471.628 163.839 471.457C163.419 471.286 163.036 471.034 162.714 470.715C162.391 470.396 162.135 470.018 161.959 469.6C161.783 469.183 161.692 468.735 161.69 468.282C161.692 467.829 161.783 467.381 161.959 466.963C162.135 466.546 162.391 466.167 162.714 465.848C163.036 465.53 163.419 465.278 163.839 465.106C164.259 464.935 164.709 464.848 165.163 464.85Z" fill="#35416B" stroke="#F96132" stroke-width="2" stroke-linecap="round" stroke-linejoin="round"/>
<path fill-rule="evenodd" clip-rule="evenodd" d="M164.486 509.7H165.09C165.543 509.698 165.993 509.785 166.413 509.956C166.833 510.127 167.214 510.38 167.537 510.698C167.859 511.017 168.115 511.396 168.29 511.813C168.465 512.231 168.556 512.679 168.557 513.131C168.553 514.045 168.185 514.919 167.535 515.563C166.885 516.206 166.005 516.566 165.09 516.563H164.486C163.57 516.566 162.69 516.206 162.039 515.563C161.388 514.92 161.019 514.045 161.013 513.131C161.015 512.678 161.107 512.23 161.283 511.813C161.458 511.395 161.715 511.017 162.037 510.698C162.36 510.379 162.742 510.127 163.162 509.956C163.583 509.785 164.032 509.698 164.486 509.7Z" fill="#35416B" stroke="#F96132" stroke-width="2" stroke-linecap="round" stroke-linejoin="round"/>
<path fill-rule="evenodd" clip-rule="evenodd" d="M165.614 558.059H166.217C166.671 558.057 167.12 558.144 167.54 558.315C167.96 558.487 168.342 558.739 168.664 559.058C168.986 559.376 169.242 559.755 169.417 560.173C169.592 560.59 169.683 561.038 169.685 561.491C169.683 561.943 169.592 562.391 169.417 562.809C169.242 563.226 168.986 563.605 168.664 563.924C168.342 564.243 167.96 564.495 167.54 564.666C167.12 564.837 166.671 564.924 166.217 564.922H165.614C165.16 564.924 164.71 564.837 164.29 564.666C163.87 564.495 163.487 564.243 163.165 563.924C162.842 563.606 162.586 563.227 162.41 562.809C162.234 562.392 162.143 561.944 162.141 561.491C162.143 561.038 162.234 560.59 162.41 560.172C162.586 559.755 162.842 559.376 163.165 559.057C163.487 558.739 163.87 558.487 164.29 558.315C164.71 558.144 165.16 558.057 165.614 558.059Z" fill="#35416B" stroke="#F96132" stroke-width="2" stroke-linecap="round" stroke-linejoin="round"/>
<path fill-rule="evenodd" clip-rule="evenodd" d="M180.928 236.558H181.531C182.446 236.554 183.327 236.912 183.978 237.554C184.629 238.197 184.998 239.071 185.004 239.984C185.002 240.437 184.91 240.885 184.734 241.302C184.559 241.72 184.302 242.099 183.98 242.417C183.657 242.736 183.275 242.988 182.855 243.159C182.435 243.331 181.985 243.418 181.531 243.415H180.928C180.474 243.418 180.024 243.331 179.604 243.159C179.185 242.988 178.803 242.736 178.481 242.417C178.159 242.098 177.903 241.719 177.727 241.302C177.552 240.885 177.461 240.437 177.46 239.984C177.462 239.532 177.554 239.085 177.729 238.668C177.905 238.251 178.161 237.873 178.483 237.555C178.805 237.237 179.186 236.985 179.606 236.814C180.025 236.643 180.474 236.556 180.928 236.558Z" fill="#35416B" stroke="#F96132" stroke-width="2" stroke-linecap="round" stroke-linejoin="round"/>
<path fill-rule="evenodd" clip-rule="evenodd" d="M181.226 280.513H181.83C182.284 280.511 182.733 280.598 183.154 280.769C183.574 280.941 183.956 281.193 184.279 281.511C184.601 281.83 184.858 282.209 185.033 282.626C185.209 283.044 185.301 283.492 185.303 283.945C185.301 284.398 185.209 284.846 185.033 285.263C184.858 285.681 184.601 286.059 184.279 286.378C183.956 286.697 183.574 286.949 183.154 287.12C182.733 287.291 182.284 287.378 181.83 287.376H181.226C180.772 287.378 180.323 287.291 179.902 287.12C179.482 286.949 179.1 286.697 178.777 286.378C178.455 286.059 178.198 285.681 178.023 285.263C177.847 284.846 177.755 284.398 177.753 283.945C177.755 283.492 177.847 283.044 178.023 282.626C178.198 282.209 178.455 281.83 178.777 281.511C179.1 281.193 179.482 280.941 179.902 280.769C180.323 280.598 180.772 280.511 181.226 280.513Z" fill="#35416B" stroke="#F96132" stroke-width="2" stroke-linecap="round" stroke-linejoin="round"/>
<path fill-rule="evenodd" clip-rule="evenodd" d="M180.482 325.655H181.085C181.539 325.653 181.989 325.739 182.409 325.909C182.829 326.08 183.211 326.332 183.534 326.65C183.857 326.968 184.113 327.347 184.289 327.764C184.465 328.181 184.556 328.629 184.559 329.081C184.557 329.534 184.466 329.983 184.291 330.4C184.115 330.818 183.859 331.197 183.536 331.516C183.213 331.835 182.831 332.087 182.41 332.258C181.99 332.429 181.539 332.515 181.085 332.513H180.482C180.028 332.515 179.579 332.428 179.159 332.256C178.739 332.085 178.357 331.833 178.035 331.514C177.713 331.195 177.457 330.817 177.282 330.399C177.107 329.982 177.016 329.534 177.015 329.081C177.017 328.629 177.108 328.182 177.284 327.765C177.459 327.348 177.715 326.97 178.037 326.652C178.359 326.334 178.741 326.082 179.16 325.911C179.58 325.74 180.029 325.653 180.482 325.655Z" fill="#35416B" stroke="#F7A501" stroke-width="2" stroke-linecap="round" stroke-linejoin="round"/>
<path fill-rule="evenodd" clip-rule="evenodd" d="M180.042 369.616H180.646C181.099 369.614 181.549 369.701 181.969 369.872C182.389 370.044 182.77 370.296 183.093 370.615C183.415 370.933 183.67 371.312 183.846 371.73C184.021 372.147 184.112 372.595 184.113 373.048C184.112 373.5 184.021 373.948 183.846 374.365C183.67 374.783 183.415 375.162 183.093 375.481C182.77 375.799 182.389 376.051 181.969 376.223C181.549 376.394 181.099 376.481 180.646 376.479H180.042C179.588 376.481 179.138 376.394 178.718 376.223C178.298 376.052 177.916 375.8 177.593 375.481C177.271 375.162 177.014 374.783 176.839 374.366C176.663 373.948 176.571 373.5 176.569 373.048C176.571 372.595 176.663 372.147 176.839 371.729C177.014 371.312 177.271 370.933 177.593 370.614C177.916 370.296 178.298 370.043 178.718 369.872C179.138 369.701 179.588 369.614 180.042 369.616Z" fill="#35416B" stroke="#F96132" stroke-width="2" stroke-linecap="round" stroke-linejoin="round"/>
<path fill-rule="evenodd" clip-rule="evenodd" d="M179.597 418.64H180.2C180.654 418.637 181.104 418.724 181.524 418.896C181.943 419.067 182.325 419.319 182.647 419.638C182.969 419.957 183.225 420.336 183.4 420.753C183.576 421.171 183.667 421.618 183.668 422.071C183.667 422.524 183.576 422.971 183.4 423.389C183.225 423.806 182.969 424.185 182.647 424.504C182.325 424.823 181.943 425.075 181.524 425.246C181.104 425.418 180.654 425.505 180.2 425.502H179.597C179.143 425.505 178.693 425.418 178.273 425.246C177.853 425.075 177.471 424.823 177.148 424.504C176.826 424.186 176.569 423.807 176.393 423.389C176.218 422.972 176.126 422.524 176.124 422.071C176.126 421.618 176.218 421.17 176.393 420.753C176.569 420.335 176.826 419.956 177.148 419.638C177.471 419.319 177.853 419.067 178.273 418.896C178.693 418.724 179.143 418.637 179.597 418.64Z" fill="#35416B" stroke="#F7A501" stroke-width="2" stroke-linecap="round" stroke-linejoin="round"/>
<path fill-rule="evenodd" clip-rule="evenodd" d="M178.926 465.025H179.529C179.983 465.022 180.433 465.109 180.853 465.281C181.274 465.452 181.656 465.704 181.978 466.023C182.301 466.341 182.557 466.72 182.733 467.138C182.909 467.555 183 468.003 183.003 468.456C183 468.909 182.909 469.357 182.733 469.774C182.557 470.192 182.301 470.571 181.978 470.889C181.656 471.208 181.274 471.46 180.853 471.631C180.433 471.803 179.983 471.89 179.529 471.887H178.926C178.472 471.89 178.023 471.803 177.603 471.631C177.183 471.46 176.801 471.208 176.479 470.889C176.157 470.57 175.901 470.191 175.726 469.774C175.551 469.356 175.46 468.909 175.458 468.456C175.46 468.003 175.551 467.556 175.726 467.138C175.901 466.721 176.157 466.342 176.479 466.023C176.801 465.704 177.183 465.452 177.603 465.281C178.023 465.109 178.472 465.022 178.926 465.025Z" fill="#35416B" stroke="white" stroke-width="2" stroke-linecap="round" stroke-linejoin="round"/>
<path fill-rule="evenodd" clip-rule="evenodd" d="M178.261 509.874H178.864C179.78 509.87 180.66 510.228 181.311 510.87C181.962 511.512 182.331 512.386 182.337 513.3C182.335 513.753 182.243 514.201 182.067 514.618C181.892 515.036 181.635 515.415 181.313 515.733C180.99 516.052 180.608 516.304 180.188 516.475C179.768 516.647 179.318 516.734 178.864 516.731H178.261C177.807 516.734 177.357 516.647 176.937 516.475C176.516 516.304 176.134 516.052 175.812 515.733C175.489 515.415 175.233 515.036 175.057 514.618C174.881 514.201 174.79 513.753 174.787 513.3C174.793 512.386 175.162 511.512 175.814 510.87C176.465 510.228 177.345 509.87 178.261 509.874Z" fill="#35416B" stroke="#F7A501" stroke-width="2" stroke-linecap="round" stroke-linejoin="round"/>
<path fill-rule="evenodd" clip-rule="evenodd" d="M179.372 558.234H179.975C180.429 558.232 180.879 558.319 181.299 558.49C181.719 558.661 182.101 558.913 182.424 559.232C182.746 559.55 183.003 559.929 183.178 560.347C183.354 560.764 183.446 561.212 183.448 561.665C183.446 562.118 183.354 562.566 183.178 562.984C183.003 563.401 182.746 563.78 182.424 564.099C182.101 564.417 181.719 564.669 181.299 564.841C180.879 565.012 180.429 565.099 179.975 565.097H179.372C178.918 565.099 178.468 565.012 178.048 564.84C177.629 564.669 177.247 564.417 176.925 564.098C176.602 563.78 176.347 563.401 176.171 562.983C175.996 562.566 175.905 562.118 175.904 561.665C175.905 561.213 175.996 560.765 176.171 560.347C176.347 559.93 176.602 559.551 176.925 559.232C177.247 558.913 177.629 558.661 178.048 558.49C178.468 558.319 178.918 558.232 179.372 558.234Z" fill="#35416B" stroke="#F96132" stroke-width="2" stroke-linecap="round" stroke-linejoin="round"/>
<path fill-rule="evenodd" clip-rule="evenodd" d="M213.416 298.233L237.141 286.729C239.493 285.604 241.427 286.757 241.455 289.351L241.945 330.049C241.886 331.44 241.468 332.793 240.731 333.975C239.994 335.158 238.964 336.131 237.739 336.799L212.412 349.101C210.061 350.226 208.194 349.067 208.245 346.48L209.063 304.989C209.168 303.59 209.622 302.24 210.382 301.061C211.142 299.881 212.184 298.909 213.416 298.233Z" fill="#35416B" stroke="white" stroke-width="2" stroke-linecap="round" stroke-linejoin="round"/>
<path fill-rule="evenodd" clip-rule="evenodd" d="M214.989 311.964C215.099 311.963 215.208 311.984 215.311 312.025C215.413 312.067 215.506 312.128 215.584 312.205C215.663 312.283 215.725 312.375 215.768 312.476C215.811 312.577 215.834 312.686 215.834 312.796V340.658C215.834 340.768 215.811 340.877 215.768 340.978C215.725 341.08 215.663 341.172 215.584 341.249C215.506 341.326 215.413 341.387 215.311 341.429C215.208 341.47 215.099 341.491 214.989 341.49C214.767 341.49 214.554 341.403 214.396 341.247C214.239 341.091 214.15 340.879 214.148 340.658V312.796C214.15 312.575 214.239 312.363 214.396 312.207C214.554 312.051 214.767 311.964 214.989 311.964Z" fill="#35416B" stroke="#0316F0" stroke-width="2" stroke-linecap="round" stroke-linejoin="round"/>
<path fill-rule="evenodd" clip-rule="evenodd" d="M221.997 303.419C222.241 303.442 222.467 303.56 222.625 303.747C222.783 303.934 222.861 304.176 222.843 304.42V337.755C222.861 337.999 222.783 338.24 222.625 338.426C222.467 338.613 222.241 338.729 221.997 338.751C221.754 338.728 221.53 338.611 221.373 338.425C221.216 338.238 221.138 337.998 221.157 337.755V304.42C221.138 304.177 221.215 303.936 221.372 303.749C221.529 303.562 221.754 303.443 221.997 303.419Z" fill="#35416B" stroke="#F7A501" stroke-width="2" stroke-linecap="round" stroke-linejoin="round"/>
<path fill-rule="evenodd" clip-rule="evenodd" d="M228.96 312.498C229.16 312.477 229.36 312.535 229.518 312.659C229.676 312.783 229.779 312.963 229.806 313.162V335.359C229.779 335.558 229.676 335.738 229.518 335.862C229.36 335.986 229.16 336.043 228.96 336.023C228.761 336.042 228.563 335.984 228.406 335.86C228.249 335.736 228.147 335.556 228.12 335.359V313.151C228.15 312.955 228.253 312.778 228.41 312.657C228.566 312.536 228.763 312.479 228.96 312.498Z" fill="#35416B" stroke="white" stroke-width="2" stroke-linecap="round" stroke-linejoin="round"/>
<path fill-rule="evenodd" clip-rule="evenodd" d="M235.828 296.185C236.075 296.211 236.303 296.333 236.461 296.524C236.619 296.716 236.695 296.962 236.673 297.209V331.404C236.695 331.652 236.619 331.898 236.461 332.089C236.303 332.281 236.075 332.403 235.828 332.428C235.581 332.401 235.355 332.279 235.198 332.087C235.041 331.896 234.965 331.651 234.988 331.404V297.22C234.962 296.972 235.036 296.724 235.194 296.53C235.351 296.336 235.579 296.212 235.828 296.185Z" fill="#35416B" stroke="#F96132" stroke-width="2" stroke-linecap="round" stroke-linejoin="round"/>
</g>
<defs>
<clipPath id="clip0">
<rect width="156" height="262" fill="white" transform="translate(335 77)"/>
</clipPath>
<clipPath id="clip1">
<rect width="198" height="332" fill="white" transform="translate(182 113)"/>
</clipPath>
<clipPath id="clip2">
<rect width="254" height="426" fill="white" transform="translate(0 169)"/>
</clipPath>
</defs>
</svg>
