<svg xmlns:xlink="http://www.w3.org/1999/xlink" fill="none" viewBox="0 0 402 402"><path fill="url(#pattern0)" d="M0 .97h401.952V402H0z"/><g fill-rule="evenodd" clip-path="url(#clip0)" clip-rule="evenodd"><path fill="#F7A501" d="M151.521 137.38h91.065v84.526h-91.065V137.38zm-12.588 90.836H254.98v40.534H138.933v-40.534z"/><path fill="#F7A501" d="M197.613 110.403a26.774 26.774 0 00-24.736 16.511 26.737 26.737 0 00-2.041 10.24c0 .288.036.568.044.856h10.346c-.02-.336-.051-.667-.051-1.007a16.825 16.825 0 0128.591-11.656 16.818 16.818 0 015.055 11.656c0 .34-.03.671-.05 1.007h9.569c0-.288.045-.568.045-.856a26.768 26.768 0 00-26.772-26.751z"/><path fill="#F96132" d="M164.401 148.913h64.98v60.522h-64.98v-60.522z"/><path fill="#35416B" d="M188.005 174.59c0-4.894 4.098-8.862 9.153-8.862 5.055 0 9.153 3.968 9.153 8.862 0 3.878-2.569 7.171-6.147 8.375-.058.02.024.332.024.332l.043 12.373s-1.739 2.183-3.389 2.183c-1.65 0-3.224-2.183-3.224-2.183l.218-12.558s.101-.219.02-.25c-3.419-1.291-5.851-4.511-5.851-8.272z"/><path fill="#fff" d="M271.106 137.38h91.064v84.526h-91.064V137.38zm-12.594 90.836h116.047v40.534H258.512v-40.534z"/><path fill="#fff" d="M317.192 110.403a26.761 26.761 0 00-18.931 7.831 26.755 26.755 0 00-7.846 18.92c0 .288.036.568.044.856h10.351c-.018-.336-.05-.667-.05-1.007a16.818 16.818 0 015.055-11.656 16.83 16.83 0 0128.591 11.656c0 .34-.031.671-.051 1.007h9.57c0-.288.044-.568.044-.856a26.755 26.755 0 00-16.532-24.718 26.761 26.761 0 00-10.245-2.033z"/><path fill="#35416B" d="M283.98 148.913h64.982v60.522H283.98v-60.522z"/><path fill="#F96132" d="M307.584 174.59c0-4.894 4.098-8.862 9.153-8.862 5.055 0 9.153 3.968 9.153 8.862 0 3.878-2.569 7.171-6.147 8.375-.059.02.024.332.024.332l.04 12.373s-1.736 2.183-3.389 2.183c-1.652 0-3.223-2.183-3.223-2.183l.216-12.558s.102-.219.02-.25c-3.417-1.291-5.847-4.511-5.847-8.272z"/><path fill="#35416B" d="M31.948 137.38h91.065v84.526H31.948V137.38zm-12.591 90.836h116.047v40.534H19.357v-40.534z"/><path fill="#35416B" d="M78.035 110.403a26.755 26.755 0 00-18.931 7.831 26.763 26.763 0 00-7.847 18.92c0 .288.037.568.045.856h10.345c-.02-.336-.05-.667-.05-1.007a16.827 16.827 0 0133.645 0c0 .34-.03.671-.05 1.007h9.57c0-.288.044-.568.044-.856a26.757 26.757 0 00-7.844-18.918 26.77 26.77 0 00-18.927-7.833z"/><path fill="#fff" d="M44.822 148.913h64.981v60.522h-64.98v-60.522z"/><path fill="#F7A501" d="M68.429 174.59c0-4.894 4.098-8.862 9.15-8.862 5.053 0 9.153 3.968 9.153 8.862 0 3.878-2.569 7.171-6.147 8.375-.058.02.025.332.025.332l.042 12.373s-1.739 2.183-3.389 2.183c-1.65 0-3.223-2.183-3.223-2.183l.217-12.558s.101-.219.02-.25c-3.419-1.291-5.848-4.511-5.848-8.272z"/></g><defs><pattern id="pattern0" width="1" height="1" patternContentUnits="objectBoundingBox"><use transform="translate(-.14 -.136) scale(.00245)" xlink:href="#image0"/></pattern><clipPath id="clip0"><path fill="#fff" d="M0 0h356v159.153H0z" transform="translate(18.952 110)"/></clipPath></defs></svg>