<svg xmlns="http://www.w3.org/2000/svg" width="317" height="317" fill="none" viewBox="0 0 317 317"><rect width="317" height="317" fill="#F7A501" rx="19.464"/><g clip-path="url(#clip0)"><path fill="#596590" fill-rule="evenodd" d="M158.593 104.542L241.757 128.888V310.165L158.593 285.82V104.542Z" clip-rule="evenodd"/><path fill="#35416B" fill-rule="evenodd" d="M241.674 128.924L293.88 85.8873V267.078L241.674 310.117V128.924Z" clip-rule="evenodd"/><path fill="#A1AEDA" fill-rule="evenodd" d="M158.662 104.587L241.719 128.975L293.925 85.9503L214.471 66.6629L158.662 104.587Z" clip-rule="evenodd"/><path fill-rule="evenodd" stroke="#fff" stroke-linecap="round" stroke-linejoin="round" stroke-width=".493" d="M252.675 177.554L286.483 151.444C287.439 150.707 288.21 151.084 288.21 152.289V174.252C288.173 174.924 288.001 175.581 287.705 176.185C287.408 176.789 286.993 177.327 286.483 177.767L252.675 203.877C251.722 204.614 250.949 204.236 250.949 203.032V181.072C250.986 180.399 251.158 179.742 251.454 179.137C251.751 178.533 252.166 177.994 252.675 177.554V177.554Z" clip-rule="evenodd"/><path fill="#F96132" fill-rule="evenodd" d="M254.129 179.708L256.559 177.779C256.859 177.548 257.087 177.662 257.087 178.033V196.787C257.075 196.995 257.022 197.198 256.932 197.385C256.841 197.573 256.715 197.74 256.559 197.878L254.129 199.811C253.829 200.041 253.604 199.927 253.604 199.556V180.784C253.631 180.37 253.819 179.984 254.129 179.708Z" clip-rule="evenodd"/><path fill="#fff" fill-rule="evenodd" d="M259.595 184.398L262.026 182.468C262.325 182.237 262.553 182.351 262.556 182.723L262.616 192.754C262.606 192.962 262.554 193.165 262.464 193.353C262.374 193.54 262.247 193.707 262.092 193.845L259.661 195.775C259.361 196.008 259.134 195.894 259.131 195.523L259.071 185.488C259.082 185.281 259.134 185.078 259.224 184.89C259.314 184.703 259.44 184.536 259.595 184.398Z" clip-rule="evenodd"/><path fill="#F7A501" fill-rule="evenodd" d="M265.115 176.484L267.552 174.549C267.852 174.318 268.076 174.8 268.076 174.8L268.307 188.149C268.296 188.355 268.244 188.556 268.155 188.742C268.065 188.928 267.94 189.094 267.786 189.231L265.346 191.166C265.046 191.397 264.825 191.283 264.825 190.915L264.591 177.566C264.591 177.197 265.115 176.484 265.115 176.484Z" clip-rule="evenodd"/><path fill="#F96132" fill-rule="evenodd" d="M270.648 176.817L273.078 174.887C273.378 174.656 273.606 175.142 273.606 175.142L273.669 183.484C273.657 183.691 273.605 183.893 273.515 184.08C273.425 184.267 273.299 184.434 273.144 184.571L270.714 186.504C270.414 186.735 270.186 186.621 270.186 186.249L270.123 177.908C270.123 177.536 270.648 176.817 270.648 176.817Z" clip-rule="evenodd"/><path fill="#0316F0" fill-rule="evenodd" d="M276.306 167.441L278.736 165.512C279.036 165.281 279.261 165.766 279.261 165.766L279.324 179.352C279.312 179.559 279.26 179.763 279.169 179.95C279.079 180.137 278.952 180.304 278.796 180.442L276.366 182.372C276.066 182.603 275.841 182.489 275.841 182.117L275.778 168.532C275.778 168.16 276.306 167.441 276.306 167.441Z" clip-rule="evenodd"/><path fill="#fff" fill-rule="evenodd" d="M282.111 157.994L284.541 156.064C284.841 155.834 285.069 155.947 285.069 156.319V175.097C285.057 175.305 285.005 175.508 284.914 175.695C284.824 175.882 284.697 176.05 284.541 176.188L282.111 178.117C281.811 178.348 281.586 178.234 281.586 177.863V159.085C281.597 158.877 281.65 158.674 281.74 158.487C281.83 158.3 281.956 158.132 282.111 157.994Z" clip-rule="evenodd"/><path fill="#fff" fill-rule="evenodd" d="M172.007 119.159L228.1 134.587C228.884 134.836 229.572 135.32 230.07 135.973C230.569 136.627 230.854 137.418 230.888 138.239V160.193C230.888 161.79 229.638 162.74 228.1 162.315L172.007 146.887C171.224 146.637 170.537 146.153 170.039 145.5C169.541 144.846 169.256 144.055 169.223 143.234V121.28C169.223 119.683 170.473 118.733 172.007 119.159Z" clip-rule="evenodd"/><path fill="#fff" fill-rule="evenodd" d="M171.738 154.156L227.831 169.584C228.614 169.833 229.302 170.318 229.801 170.972C230.3 171.626 230.585 172.418 230.618 173.239V195.193C230.618 196.787 229.371 197.737 227.831 197.315L171.738 181.887C170.954 181.637 170.267 181.152 169.769 180.498C169.271 179.844 168.986 179.052 168.953 178.231V156.277C168.953 154.683 170.2 153.733 171.738 154.156Z" clip-rule="evenodd"/><path fill="#fff" fill-rule="evenodd" d="M171.198 187.798L227.294 203.238C228.077 203.488 228.765 203.972 229.263 204.625C229.761 205.279 230.046 206.07 230.078 206.891V228.848C230.078 230.445 228.832 231.392 227.294 230.969L171.198 215.538C170.415 215.289 169.728 214.805 169.23 214.151C168.731 213.498 168.447 212.707 168.414 211.886V189.932C168.414 188.335 169.661 187.385 171.198 187.798Z" clip-rule="evenodd"/><path fill="#fff" fill-rule="evenodd" d="M171.468 221.732L227.561 237.16C228.345 237.408 229.033 237.892 229.532 238.546C230.031 239.199 230.316 239.991 230.348 240.812V262.766C230.348 264.363 229.102 265.313 227.561 264.888L171.468 249.46C170.683 249.212 169.994 248.728 169.494 248.075C168.994 247.421 168.708 246.629 168.675 245.807V223.853C168.675 222.256 169.93 221.309 171.468 221.732Z" clip-rule="evenodd"/><path fill="#fff" fill-rule="evenodd" d="M171.198 254.317L227.294 269.736C228.077 269.985 228.765 270.469 229.263 271.123C229.761 271.776 230.046 272.567 230.078 273.388V295.342C230.078 296.939 228.832 297.889 227.294 297.467L171.198 282.036C170.415 281.787 169.728 281.302 169.23 280.649C168.731 279.995 168.447 279.204 168.414 278.383V256.429C168.414 254.832 169.661 253.882 171.198 254.317Z" clip-rule="evenodd"/><path fill="#F96132" fill-rule="evenodd" d="M178.424 138.203C177.794 138.135 177.198 137.88 176.714 137.472C176.229 137.064 175.878 136.52 175.704 135.911C175.53 135.301 175.542 134.654 175.738 134.052C175.934 133.449 176.305 132.919 176.804 132.528C177.303 132.138 177.907 131.905 178.539 131.86C179.171 131.814 179.803 131.959 180.352 132.274C180.902 132.589 181.345 133.061 181.625 133.629C181.905 134.198 182.009 134.837 181.924 135.465C181.823 136.292 181.397 137.045 180.741 137.558C180.085 138.072 179.251 138.304 178.424 138.203Z" clip-rule="evenodd"/><path fill="#F7A501" fill-rule="evenodd" d="M176.58 172.577C175.95 172.509 175.355 172.254 174.87 171.845C174.386 171.437 174.034 170.893 173.861 170.284C173.687 169.674 173.699 169.027 173.895 168.424C174.092 167.822 174.463 167.291 174.962 166.901C175.462 166.511 176.066 166.278 176.698 166.234C177.331 166.189 177.962 166.333 178.511 166.649C179.061 166.965 179.504 167.437 179.783 168.006C180.063 168.574 180.167 169.214 180.081 169.841C180.031 170.251 179.9 170.646 179.697 171.006C179.494 171.365 179.223 171.68 178.898 171.934C178.572 172.188 178.2 172.376 177.803 172.486C177.405 172.596 176.99 172.627 176.58 172.577Z" clip-rule="evenodd"/><path fill="#3541D1" fill-rule="evenodd" d="M176.263 206.184C175.633 206.115 175.038 205.861 174.553 205.453C174.069 205.044 173.717 204.501 173.543 203.891C173.369 203.282 173.381 202.635 173.577 202.032C173.773 201.43 174.144 200.899 174.643 200.509C175.142 200.118 175.746 199.886 176.378 199.84C177.011 199.795 177.642 199.939 178.191 200.254C178.741 200.57 179.184 201.042 179.464 201.61C179.744 202.178 179.848 202.817 179.763 203.445C179.714 203.855 179.584 204.251 179.381 204.61C179.178 204.97 178.906 205.286 178.581 205.54C178.256 205.794 177.884 205.982 177.486 206.093C177.088 206.203 176.673 206.234 176.263 206.184Z" clip-rule="evenodd"/><path fill="#F96132" fill-rule="evenodd" d="M175.406 239.934C174.776 239.867 174.18 239.613 173.695 239.204C173.21 238.796 172.858 238.253 172.684 237.644C172.509 237.034 172.521 236.387 172.716 235.784C172.912 235.182 173.283 234.651 173.782 234.26C174.281 233.869 174.885 233.636 175.518 233.591C176.15 233.545 176.781 233.689 177.331 234.005C177.881 234.32 178.324 234.792 178.604 235.36C178.884 235.929 178.988 236.568 178.903 237.196C178.802 238.022 178.377 238.775 177.721 239.288C177.065 239.802 176.233 240.034 175.406 239.934Z" clip-rule="evenodd"/><path fill="#F7A501" fill-rule="evenodd" d="M175.073 272.672C174.443 272.606 173.846 272.352 173.36 271.945C172.875 271.537 172.521 270.994 172.346 270.385C172.171 269.776 172.182 269.128 172.377 268.525C172.572 267.921 172.943 267.39 173.441 266.999C173.94 266.608 174.545 266.374 175.177 266.328C175.81 266.282 176.441 266.426 176.992 266.741C177.542 267.056 177.985 267.529 178.266 268.097C178.546 268.666 178.65 269.305 178.565 269.934C178.463 270.759 178.039 271.511 177.385 272.024C176.73 272.537 175.899 272.77 175.073 272.672Z" clip-rule="evenodd"/><path fill="#3541D1" fill-rule="evenodd" d="M188.28 140.756C187.65 140.688 187.055 140.433 186.571 140.025C186.086 139.616 185.734 139.073 185.561 138.464C185.387 137.854 185.398 137.207 185.594 136.605C185.79 136.002 186.162 135.472 186.661 135.081C187.16 134.691 187.764 134.458 188.396 134.413C189.028 134.367 189.659 134.511 190.209 134.827C190.759 135.142 191.202 135.614 191.482 136.182C191.762 136.751 191.866 137.39 191.781 138.017C191.68 138.845 191.254 139.598 190.598 140.111C189.941 140.625 189.108 140.857 188.28 140.756Z" clip-rule="evenodd"/><path fill="#F96132" fill-rule="evenodd" d="M186.44 175.124C185.811 175.053 185.217 174.797 184.734 174.387C184.252 173.977 183.902 173.433 183.73 172.824C183.558 172.214 183.572 171.567 183.769 170.966C183.967 170.364 184.339 169.835 184.838 169.446C185.338 169.057 185.942 168.826 186.574 168.781C187.206 168.737 187.836 168.882 188.385 169.198C188.934 169.514 189.376 169.986 189.655 170.554C189.935 171.122 190.038 171.761 189.953 172.388C189.902 172.799 189.772 173.195 189.568 173.555C189.364 173.915 189.091 174.231 188.764 174.485C188.438 174.739 188.065 174.926 187.666 175.036C187.267 175.146 186.851 175.175 186.44 175.124Z" clip-rule="evenodd"/><path fill="#F7A501" fill-rule="evenodd" d="M186.12 208.731C185.49 208.662 184.894 208.408 184.41 207.999C183.925 207.591 183.574 207.047 183.4 206.438C183.226 205.829 183.238 205.182 183.434 204.579C183.63 203.977 184.001 203.446 184.5 203.056C184.999 202.665 185.603 202.433 186.235 202.387C186.867 202.342 187.499 202.486 188.048 202.801C188.598 203.117 189.041 203.589 189.321 204.157C189.601 204.725 189.705 205.364 189.62 205.992C189.519 206.819 189.093 207.572 188.437 208.086C187.781 208.599 186.947 208.831 186.12 208.731Z" clip-rule="evenodd"/><path fill="#F7A501" fill-rule="evenodd" d="M185.263 242.493C184.632 242.427 184.036 242.173 183.55 241.766C183.064 241.358 182.711 240.815 182.536 240.206C182.36 239.597 182.371 238.949 182.566 238.346C182.761 237.743 183.132 237.211 183.631 236.82C184.13 236.429 184.734 236.195 185.367 236.149C185.999 236.103 186.631 236.247 187.181 236.562C187.731 236.877 188.175 237.35 188.455 237.918C188.735 238.487 188.839 239.126 188.754 239.755C188.654 240.58 188.229 241.333 187.575 241.846C186.92 242.359 186.089 242.592 185.263 242.493Z" clip-rule="evenodd"/><path fill="#F96132" fill-rule="evenodd" d="M184.933 275.219C184.303 275.151 183.707 274.897 183.222 274.489C182.737 274.081 182.385 273.538 182.211 272.928C182.036 272.319 182.048 271.672 182.243 271.069C182.439 270.466 182.81 269.935 183.309 269.545C183.808 269.154 184.412 268.921 185.045 268.875C185.677 268.83 186.308 268.974 186.858 269.289C187.408 269.604 187.851 270.076 188.131 270.645C188.411 271.213 188.516 271.852 188.43 272.48C188.329 273.307 187.904 274.06 187.248 274.573C186.593 275.087 185.76 275.319 184.933 275.219Z" clip-rule="evenodd"/><path fill="#F96132" fill-rule="evenodd" d="M194.466 139.752C194.66 139.058 195.121 138.469 195.749 138.115C196.376 137.76 197.119 137.669 197.814 137.862L225.808 145.652C226.503 145.841 227.093 146.299 227.451 146.923C227.808 147.548 227.903 148.289 227.714 148.984C227.619 149.328 227.456 149.65 227.237 149.932C227.017 150.213 226.744 150.449 226.433 150.625C226.122 150.8 225.779 150.913 225.425 150.957C225.07 151 224.711 150.973 224.366 150.878L196.375 143.087C195.68 142.898 195.088 142.44 194.73 141.815C194.372 141.19 194.277 140.448 194.466 139.752Z" clip-rule="evenodd"/><path fill="#3541D1" fill-rule="evenodd" d="M192.623 174.129C192.817 173.435 193.278 172.846 193.906 172.492C194.533 172.137 195.276 172.046 195.971 172.238L223.965 180.008C224.309 180.103 224.631 180.266 224.912 180.486C225.193 180.706 225.428 180.979 225.604 181.29C225.779 181.6 225.892 181.943 225.935 182.297C225.979 182.652 225.952 183.011 225.856 183.355C225.761 183.699 225.598 184.021 225.378 184.302C225.159 184.584 224.885 184.819 224.574 184.995C224.263 185.17 223.921 185.283 223.566 185.326C223.212 185.369 222.852 185.342 222.508 185.245L194.517 177.47C193.824 177.277 193.235 176.817 192.88 176.191C192.525 175.565 192.433 174.823 192.623 174.129Z" clip-rule="evenodd"/><path fill="#F7A501" fill-rule="evenodd" d="M192.305 207.733C192.499 207.04 192.96 206.452 193.586 206.098C194.212 205.744 194.953 205.652 195.647 205.842L223.641 213.633C223.985 213.728 224.307 213.891 224.588 214.111C224.869 214.331 225.105 214.604 225.28 214.914C225.456 215.225 225.568 215.568 225.612 215.922C225.655 216.276 225.628 216.636 225.532 216.98C225.338 217.674 224.877 218.263 224.25 218.617C223.622 218.972 222.879 219.063 222.185 218.87L194.19 211.08C193.497 210.885 192.91 210.423 192.556 209.796C192.203 209.168 192.113 208.427 192.305 207.733Z" clip-rule="evenodd"/><path fill="#F96132" fill-rule="evenodd" d="M191.451 241.495C191.645 240.801 192.106 240.212 192.734 239.858C193.361 239.503 194.104 239.412 194.799 239.605L222.793 247.395C223.482 247.59 224.067 248.048 224.42 248.671C224.773 249.293 224.867 250.03 224.681 250.721C224.487 251.415 224.025 252.003 223.398 252.358C222.77 252.712 222.028 252.803 221.333 252.612L193.339 244.821C192.65 244.628 192.065 244.169 191.711 243.547C191.358 242.924 191.264 242.187 191.451 241.495Z" clip-rule="evenodd"/><path fill="#3541D1" fill-rule="evenodd" d="M191.119 274.221C191.312 273.527 191.772 272.939 192.399 272.584C193.027 272.229 193.769 272.138 194.463 272.331L222.457 280.121C222.801 280.217 223.123 280.379 223.404 280.599C223.686 280.819 223.921 281.092 224.096 281.403C224.272 281.714 224.385 282.056 224.428 282.41C224.471 282.765 224.444 283.124 224.348 283.468C224.253 283.812 224.09 284.134 223.87 284.415C223.65 284.696 223.377 284.931 223.066 285.107C222.755 285.282 222.413 285.395 222.059 285.438C221.704 285.481 221.345 285.454 221.001 285.359L193.01 277.568C192.665 277.473 192.343 277.311 192.062 277.091C191.78 276.871 191.545 276.598 191.37 276.287C191.194 275.976 191.081 275.634 191.038 275.279C190.995 274.925 191.022 274.565 191.119 274.221Z" clip-rule="evenodd"/></g><g clip-path="url(#clip1)"><path fill="#596590" fill-rule="evenodd" d="M23.0754 61.7475L106.24 86.0927V267.37L23.0754 243.025V61.7475Z" clip-rule="evenodd"/><path fill="#35416B" fill-rule="evenodd" d="M106.156 86.1286L158.362 43.0924V224.283L106.156 267.322V86.1286Z" clip-rule="evenodd"/><path fill="#A1AEDA" fill-rule="evenodd" d="M23.1444 61.7925L106.201 86.1795L158.407 43.1553L78.9529 23.868L23.1444 61.7925Z" clip-rule="evenodd"/><path fill-rule="evenodd" stroke="#fff" stroke-linecap="round" stroke-linejoin="round" stroke-width=".493" d="M117.158 134.759L150.966 108.649C151.922 107.912 152.692 108.289 152.692 109.494V131.457C152.655 132.129 152.484 132.786 152.187 133.39C151.89 133.994 151.475 134.532 150.966 134.972L117.158 161.082C116.205 161.819 115.431 161.441 115.431 160.237V138.277C115.468 137.605 115.64 136.947 115.937 136.342C116.233 135.738 116.648 135.2 117.158 134.759V134.759Z" clip-rule="evenodd"/><path fill="#F96132" fill-rule="evenodd" d="M118.611 136.913L121.042 134.984C121.341 134.753 121.569 134.867 121.569 135.238V153.992C121.557 154.2 121.505 154.403 121.414 154.59C121.324 154.778 121.197 154.945 121.042 155.083L118.611 157.016C118.311 157.246 118.087 157.133 118.087 156.761V137.989C118.113 137.575 118.301 137.189 118.611 136.913Z" clip-rule="evenodd"/><path fill="#fff" fill-rule="evenodd" d="M124.077 141.603L126.508 139.673C126.808 139.442 127.035 139.556 127.038 139.928L127.098 149.959C127.088 150.167 127.036 150.37 126.946 150.558C126.856 150.745 126.729 150.912 126.574 151.05L124.143 152.98C123.844 153.213 123.616 153.099 123.613 152.728L123.553 142.693C123.564 142.486 123.616 142.283 123.706 142.095C123.796 141.908 123.922 141.741 124.077 141.603Z" clip-rule="evenodd"/><path fill="#F7A501" fill-rule="evenodd" d="M129.598 133.689L132.034 131.754C132.334 131.523 132.559 132.005 132.559 132.005L132.79 145.354C132.778 145.56 132.726 145.761 132.637 145.947C132.547 146.133 132.422 146.299 132.268 146.436L129.829 148.371C129.529 148.602 129.307 148.488 129.307 148.12L129.073 134.771C129.073 134.402 129.598 133.689 129.598 133.689Z" clip-rule="evenodd"/><path fill="#F96132" fill-rule="evenodd" d="M135.13 134.022L137.561 132.092C137.86 131.862 138.088 132.347 138.088 132.347L138.151 140.689C138.14 140.896 138.088 141.098 137.998 141.285C137.908 141.472 137.782 141.639 137.627 141.776L135.196 143.709C134.897 143.94 134.669 143.826 134.669 143.454L134.606 135.113C134.606 134.741 135.13 134.022 135.13 134.022Z" clip-rule="evenodd"/><path fill="#0316F0" fill-rule="evenodd" d="M140.788 124.646L143.219 122.717C143.519 122.486 143.743 122.971 143.743 122.971L143.806 136.557C143.795 136.764 143.742 136.968 143.652 137.155C143.561 137.342 143.434 137.509 143.279 137.647L140.848 139.577C140.549 139.808 140.324 139.694 140.324 139.322L140.261 125.737C140.261 125.365 140.788 124.646 140.788 124.646Z" clip-rule="evenodd"/><path fill="#fff" fill-rule="evenodd" d="M146.593 115.199L149.024 113.269C149.323 113.039 149.551 113.152 149.551 113.524V132.302C149.54 132.51 149.487 132.713 149.396 132.9C149.306 133.087 149.179 133.255 149.024 133.393L146.593 135.322C146.294 135.553 146.069 135.439 146.069 135.068V116.29C146.08 116.082 146.132 115.879 146.222 115.692C146.312 115.505 146.438 115.337 146.593 115.199Z" clip-rule="evenodd"/><path fill="#fff" fill-rule="evenodd" d="M36.4896 76.3636L92.5828 91.7917C93.3662 92.0408 94.054 92.525 94.5526 93.1784C95.0513 93.8319 95.3366 94.623 95.37 95.4442V117.398C95.37 118.995 94.1202 119.945 92.5828 119.52L36.4896 104.092C35.7065 103.842 35.0191 103.358 34.521 102.705C34.0229 102.051 33.7381 101.26 33.7054 100.439V78.485C33.7054 76.888 34.9552 75.9382 36.4896 76.3636Z" clip-rule="evenodd"/><path fill="#fff" fill-rule="evenodd" d="M36.2199 111.361L92.3132 126.789C93.0968 127.038 93.7847 127.523 94.2833 128.177C94.7819 128.831 95.0672 129.623 95.1003 130.444V152.398C95.1003 153.992 93.8536 154.942 92.3132 154.52L36.2199 139.092C35.4366 138.842 34.7492 138.357 34.2511 137.703C33.753 137.049 33.4683 136.258 33.4358 135.436V113.482C33.4358 111.888 34.6825 110.938 36.2199 111.361Z" clip-rule="evenodd"/><path fill="#fff" fill-rule="evenodd" d="M35.6804 145.003L91.7766 160.443C92.5597 160.693 93.247 161.177 93.7452 161.83C94.2433 162.484 94.5281 163.275 94.5608 164.096V186.053C94.5608 187.65 93.314 188.597 91.7766 188.174L35.6804 172.743C34.8973 172.494 34.21 172.01 33.7118 171.356C33.2137 170.703 32.9289 169.912 32.8962 169.091V147.137C32.8962 145.54 34.143 144.59 35.6804 145.003Z" clip-rule="evenodd"/><path fill="#fff" fill-rule="evenodd" d="M35.9502 178.937L92.0435 194.365C92.8274 194.613 93.5156 195.097 94.0143 195.751C94.5131 196.404 94.7981 197.196 94.8306 198.017V219.971C94.8306 221.568 93.5839 222.518 92.0435 222.093L35.9502 206.665C35.1655 206.417 34.4762 205.933 33.9764 205.28C33.4765 204.626 33.1904 203.834 33.1571 203.012V181.058C33.1571 179.461 34.4128 178.514 35.9502 178.937Z" clip-rule="evenodd"/><path fill="#fff" fill-rule="evenodd" d="M35.6804 211.522L91.7766 226.941C92.5597 227.19 93.247 227.674 93.7452 228.328C94.2433 228.981 94.5281 229.772 94.5608 230.593V252.547C94.5608 254.145 93.314 255.094 91.7766 254.672L35.6804 239.241C34.8973 238.992 34.21 238.507 33.7118 237.854C33.2137 237.2 32.9289 236.409 32.8962 235.588V213.634C32.8962 212.037 34.143 211.087 35.6804 211.522Z" clip-rule="evenodd"/><path fill="#F96132" fill-rule="evenodd" d="M42.906 95.4082C42.276 95.3399 41.6807 95.0853 41.1962 94.6769C40.7117 94.2685 40.36 93.725 40.1861 93.1157C40.0122 92.5065 40.024 91.8592 40.22 91.2567C40.416 90.6542 40.7872 90.1238 41.2863 89.7333C41.7853 89.3429 42.3895 89.1101 43.0216 89.0648C43.6537 89.0194 44.2849 89.1636 44.8346 89.4788C45.3843 89.7941 45.8275 90.266 46.1075 90.8344C46.3875 91.4028 46.4915 92.0418 46.4064 92.6696C46.3053 93.4967 45.8797 94.2499 45.2233 94.7634C44.5669 95.277 43.7334 95.5089 42.906 95.4082Z" clip-rule="evenodd"/><path fill="#F7A501" fill-rule="evenodd" d="M41.063 129.782C40.4329 129.714 39.8375 129.459 39.353 129.05C38.8685 128.642 38.5169 128.098 38.3432 127.489C38.1695 126.879 38.1815 126.232 38.3778 125.629C38.5741 125.027 38.9456 124.496 39.445 124.106C39.9443 123.716 40.5488 123.483 41.181 123.439C41.8132 123.394 42.4444 123.538 42.994 123.854C43.5435 124.17 43.9864 124.642 44.266 125.211C44.5455 125.779 44.6491 126.419 44.5633 127.046C44.5133 127.456 44.383 127.851 44.18 128.211C43.9769 128.57 43.7051 128.885 43.3801 129.139C43.055 129.393 42.683 129.581 42.2855 129.691C41.8879 129.801 41.4725 129.832 41.063 129.782Z" clip-rule="evenodd"/><path fill="#3541D1" fill-rule="evenodd" d="M40.7454 163.389C40.1154 163.321 39.5201 163.066 39.0356 162.658C38.5511 162.249 38.1994 161.706 38.0255 161.096C37.8516 160.487 37.8634 159.84 38.0594 159.237C38.2553 158.635 38.6266 158.104 39.1257 157.714C39.6247 157.324 40.2289 157.091 40.861 157.045C41.4931 157 42.1243 157.144 42.674 157.459C43.2237 157.775 43.6668 158.247 43.9468 158.815C44.2268 159.383 44.3309 160.022 44.2458 160.65C44.1961 161.06 44.066 161.456 43.8632 161.815C43.6603 162.175 43.3885 162.491 43.0634 162.745C42.7383 162.999 42.3663 163.187 41.9685 163.298C41.5708 163.408 41.1551 163.439 40.7454 163.389Z" clip-rule="evenodd"/><path fill="#F96132" fill-rule="evenodd" d="M39.8882 197.139C39.258 197.072 38.6624 196.817 38.1774 196.409C37.6925 196.001 37.3403 195.458 37.166 194.849C36.9916 194.239 37.003 193.592 37.1987 192.989C37.3944 192.386 37.7655 191.856 38.2645 191.465C38.7635 191.074 39.3677 190.841 39.9999 190.796C40.6321 190.75 41.2636 190.894 41.8134 191.209C42.3633 191.525 42.8066 191.997 43.0867 192.565C43.3667 193.134 43.4708 193.773 43.3856 194.401C43.2844 195.227 42.8593 195.98 42.2036 196.493C41.5478 197.007 40.7151 197.239 39.8882 197.139Z" clip-rule="evenodd"/><path fill="#F7A501" fill-rule="evenodd" d="M39.5556 229.877C38.925 229.811 38.3286 229.557 37.8428 229.15C37.357 228.742 37.0039 228.199 36.8286 227.59C36.6534 226.981 36.664 226.333 36.8592 225.73C37.0543 225.127 37.425 224.595 37.9239 224.204C38.4228 223.813 39.0272 223.579 39.6596 223.533C40.2921 223.487 40.9238 223.631 41.474 223.946C42.0243 224.261 42.4679 224.734 42.7481 225.302C43.0283 225.871 43.1324 226.51 43.047 227.139C42.9458 227.964 42.5215 228.716 41.8671 229.229C41.2127 229.742 40.3816 229.975 39.5556 229.877Z" clip-rule="evenodd"/><path fill="#3541D1" fill-rule="evenodd" d="M52.7629 97.9611C52.1329 97.8928 51.5376 97.6381 51.0531 97.2298C50.5686 96.8214 50.217 96.2778 50.0431 95.6686C49.8692 95.0593 49.881 94.4121 50.0769 93.8096C50.2729 93.207 50.6442 92.6767 51.1432 92.2862C51.6423 91.8958 52.2465 91.663 52.8785 91.6176C53.5106 91.5723 54.1418 91.7165 54.6915 92.0317C55.2412 92.3469 55.6844 92.8189 55.9644 93.3873C56.2444 93.9557 56.3485 94.5946 56.2633 95.2224C56.1622 96.0496 55.7366 96.8028 55.0802 97.3163C54.4238 97.8299 53.5903 98.0618 52.7629 97.9611Z" clip-rule="evenodd"/><path fill="#F96132" fill-rule="evenodd" d="M50.9229 132.329C50.2936 132.258 49.6996 132.002 49.2169 131.592C48.7341 131.182 48.3845 130.638 48.2126 130.029C48.0406 129.419 48.0542 128.772 48.2516 128.171C48.449 127.569 48.8213 127.04 49.3208 126.651C49.8204 126.262 50.4246 126.031 51.0563 125.986C51.688 125.942 52.3185 126.087 52.8674 126.403C53.4163 126.719 53.8586 127.191 54.1378 127.759C54.4171 128.327 54.5206 128.966 54.4352 129.593C54.3848 130.004 54.2539 130.4 54.05 130.76C53.8461 131.12 53.5732 131.436 53.2469 131.69C52.9206 131.944 52.5473 132.131 52.1485 132.241C51.7497 132.351 51.3332 132.381 50.9229 132.329Z" clip-rule="evenodd"/><path fill="#F7A501" fill-rule="evenodd" d="M50.6022 165.936C49.9722 165.867 49.3769 165.613 48.8924 165.204C48.4079 164.796 48.0562 164.252 47.8823 163.643C47.7084 163.034 47.7202 162.387 47.9162 161.784C48.1122 161.182 48.4834 160.651 48.9825 160.261C49.4815 159.87 50.0857 159.638 50.7178 159.592C51.3499 159.547 51.9811 159.691 52.5308 160.006C53.0805 160.322 53.5237 160.794 53.8036 161.362C54.0836 161.93 54.1877 162.569 54.1026 163.197C54.0014 164.024 53.5759 164.777 52.9195 165.291C52.2631 165.804 51.4296 166.036 50.6022 165.936Z" clip-rule="evenodd"/><path fill="#F7A501" fill-rule="evenodd" d="M49.7451 199.698C49.1145 199.632 48.5181 199.378 48.0323 198.971C47.5465 198.563 47.1933 198.02 47.0181 197.411C46.8429 196.802 46.8535 196.154 47.0486 195.551C47.2437 194.948 47.6145 194.416 48.1134 194.025C48.6123 193.634 49.2166 193.4 49.8491 193.354C50.4815 193.308 51.1133 193.452 51.6635 193.767C52.2137 194.082 52.6573 194.555 52.9375 195.123C53.2178 195.692 53.3219 196.331 53.2365 196.96C53.136 197.785 52.7119 198.538 52.0574 199.051C51.4028 199.564 50.5712 199.797 49.7451 199.698Z" clip-rule="evenodd"/><path fill="#F96132" fill-rule="evenodd" d="M49.4153 232.424C48.7851 232.356 48.1894 232.102 47.7045 231.694C47.2196 231.286 46.8674 230.743 46.6931 230.133C46.5187 229.524 46.5301 228.877 46.7258 228.274C46.9215 227.671 47.2926 227.14 47.7916 226.75C48.2906 226.359 48.8949 226.126 49.5271 226.08C50.1593 226.035 50.7907 226.179 51.3405 226.494C51.8904 226.809 52.3337 227.281 52.6138 227.85C52.8938 228.418 52.9979 229.058 52.9127 229.685C52.8115 230.512 52.3864 231.265 51.7307 231.778C51.0749 232.292 50.2422 232.524 49.4153 232.424Z" clip-rule="evenodd"/><path fill="#F96132" fill-rule="evenodd" d="M58.9487 96.9573C59.1424 96.2632 59.6037 95.6742 60.2313 95.3198C60.8589 94.9653 61.6015 94.8743 62.2962 95.0667L90.2904 102.857C90.985 103.046 91.576 103.504 91.9334 104.129C92.2908 104.753 92.3855 105.494 92.1964 106.189C92.1012 106.533 91.939 106.855 91.7191 107.137C91.4993 107.418 91.2261 107.654 90.9152 107.83C90.6043 108.005 90.2618 108.118 89.9073 108.162C89.5527 108.205 89.1931 108.178 88.8489 108.083L60.8577 100.292C60.1623 100.103 59.5706 99.6453 59.2126 99.02C58.8546 98.3946 58.7597 97.6527 58.9487 96.9573Z" clip-rule="evenodd"/><path fill="#3541D1" fill-rule="evenodd" d="M57.1056 131.334C57.2993 130.64 57.7606 130.051 58.3882 129.697C59.0158 129.342 59.7585 129.251 60.4531 129.443L88.4473 137.213C88.7913 137.308 89.1131 137.471 89.3943 137.691C89.6756 137.911 89.9107 138.184 90.0863 138.495C90.2619 138.806 90.3745 139.148 90.4178 139.502C90.461 139.857 90.4341 140.216 90.3384 140.56C90.2431 140.904 90.0809 141.226 89.861 141.507C89.6411 141.789 89.3679 142.024 89.0569 142.2C88.746 142.375 88.4034 142.488 88.0489 142.531C87.6943 142.574 87.3348 142.547 86.9908 142.451L58.9996 134.675C58.3061 134.482 57.7174 134.022 57.3624 133.396C57.0074 132.77 56.9151 132.028 57.1056 131.334Z" clip-rule="evenodd"/><path fill="#F7A501" fill-rule="evenodd" d="M56.7878 164.938C56.9816 164.245 57.442 163.657 58.0682 163.303C58.6944 162.949 59.4355 162.857 60.1294 163.047L88.1235 170.838C88.4675 170.933 88.7894 171.096 89.0706 171.316C89.3518 171.536 89.5869 171.809 89.7625 172.12C89.9381 172.43 90.0508 172.773 90.0941 173.127C90.1373 173.481 90.1103 173.841 90.0146 174.185C89.8209 174.879 89.3596 175.468 88.732 175.822C88.1044 176.177 87.3617 176.268 86.667 176.075L58.6729 168.285C57.9797 168.09 57.392 167.628 57.0387 167.001C56.6854 166.373 56.5951 165.632 56.7878 164.938Z" clip-rule="evenodd"/><path fill="#F96132" fill-rule="evenodd" d="M55.9336 198.701C56.1273 198.006 56.5886 197.417 57.2162 197.063C57.8438 196.708 58.5865 196.617 59.2811 196.81L87.2753 204.6C87.9644 204.795 88.549 205.253 88.9024 205.876C89.2558 206.498 89.3496 207.235 89.1634 207.926C88.9689 208.62 88.5075 209.208 87.8801 209.563C87.2527 209.917 86.5105 210.008 85.8158 209.817L57.8216 202.026C57.1321 201.833 56.547 201.374 56.1935 200.752C55.8399 200.129 55.7465 199.392 55.9336 198.701Z" clip-rule="evenodd"/><path fill="#3541D1" fill-rule="evenodd" d="M55.601 231.426C55.7941 230.732 56.2548 230.144 56.8819 229.789C57.5091 229.435 58.2513 229.343 58.9456 229.536L86.9398 237.326C87.2838 237.422 87.6056 237.584 87.8868 237.804C88.168 238.024 88.4031 238.297 88.5788 238.608C88.7544 238.919 88.867 239.261 88.9103 239.615C88.9535 239.97 88.9265 240.329 88.8308 240.673C88.7352 241.017 88.5728 241.339 88.3528 241.62C88.1329 241.901 87.8596 242.136 87.5488 242.312C87.2379 242.487 86.8955 242.6 86.5411 242.643C86.1867 242.686 85.8272 242.659 85.4832 242.564L57.4921 234.773C57.1479 234.678 56.8258 234.516 56.5444 234.296C56.2629 234.076 56.0277 233.803 55.852 233.492C55.6763 233.181 55.5637 232.839 55.5207 232.484C55.4776 232.13 55.5049 231.77 55.601 231.426Z" clip-rule="evenodd"/></g><defs><clipPath id="clip0"><rect width="135.517" height="243.685" fill="#fff" transform="translate(158.5 66.57)"/></clipPath><clipPath id="clip1"><rect width="135.517" height="243.685" fill="#fff" transform="translate(22.9824 23.775)"/></clipPath></defs></svg>