<svg xmlns:xlink="http://www.w3.org/1999/xlink" fill="none" viewBox="0 0 324 324"><path fill="url(#pattern0)" d="M0 0h323.871v323.128H0z"/><g fill-rule="evenodd" clip-path="url(#clip0)" clip-rule="evenodd"><path fill="#F7A501" d="M122.088 109.911h73.375v68.107h-73.375v-68.107zm-10.143 73.192h93.504v32.66h-93.504v-32.66z"/><path fill="#F7A501" d="M159.226 88.175a21.57 21.57 0 00-19.931 13.304 21.53 21.53 0 00-1.644 8.251c0 .232.029.457.035.689h8.336c-.016-.271-.04-.537-.04-.811a13.547 13.547 0 014.073-9.392 13.561 13.561 0 0118.963 0 13.547 13.547 0 014.073 9.392c0 .274-.024.54-.04.811h7.711c0-.232.035-.457.035-.689a21.556 21.556 0 00-6.32-15.243 21.57 21.57 0 00-15.251-6.312z"/><path fill="#F96132" d="M132.466 119.204h52.357v48.765h-52.357v-48.765z"/><path fill="#35416B" d="M151.485 139.894c0-3.944 3.302-7.141 7.375-7.141s7.374 3.197 7.374 7.141c0 3.124-2.069 5.777-4.952 6.748-.047.016.019.268.019.268l.034 9.969s-1.401 1.759-2.73 1.759c-1.33 0-2.598-1.759-2.598-1.759l.176-10.119s.081-.177.016-.201c-2.755-1.04-4.714-3.635-4.714-6.665z"/><path fill="#fff" d="M218.443 109.911h73.375v68.107h-73.375v-68.107zm-10.148 73.192H301.8v32.66h-93.505v-32.66z"/><path fill="#fff" d="M255.576 88.175a21.57 21.57 0 00-19.931 13.304 21.55 21.55 0 00-1.644 8.251c0 .232.029.457.035.689h8.341c-.015-.271-.04-.537-.04-.811a13.559 13.559 0 0127.109 0c0 .274-.024.54-.04.811h7.711c0-.232.035-.457.035-.689a21.55 21.55 0 00-6.322-15.245 21.565 21.565 0 00-15.254-6.31z"/><path fill="#35416B" d="M228.816 119.204h52.359v48.765h-52.359v-48.765z"/><path fill="#F96132" d="M247.835 139.894c0-3.944 3.302-7.141 7.375-7.141s7.375 3.197 7.375 7.141c0 3.124-2.07 5.777-4.953 6.748-.047.016.019.268.019.268l.033 9.969s-1.4 1.759-2.731 1.759-2.597-1.759-2.597-1.759l.174-10.119s.082-.177.016-.201c-2.753-1.04-4.711-3.635-4.711-6.665z"/><path fill="#35416B" d="M25.742 109.911h73.375v68.107H25.742v-68.107zm-10.146 73.192h93.505v32.66H15.596v-32.66z"/><path fill="#35416B" d="M62.876 88.175a21.572 21.572 0 00-19.931 13.304 21.554 21.554 0 00-1.645 8.251c0 .232.03.457.036.689h8.336c-.016-.271-.04-.537-.04-.811A13.552 13.552 0 0163.186 96.35a13.552 13.552 0 0113.555 13.258c0 .274-.024.54-.04.811h7.71c0-.232.036-.457.036-.689a21.558 21.558 0 00-6.32-15.243 21.57 21.57 0 00-15.25-6.312z"/><path fill="#fff" d="M36.115 119.204h52.358v48.765H36.115v-48.765z"/><path fill="#F7A501" d="M55.136 139.894c0-3.944 3.302-7.141 7.373-7.141 4.072 0 7.375 3.197 7.375 7.141 0 3.124-2.07 5.777-4.953 6.748-.047.016.02.268.02.268l.034 9.969s-1.4 1.759-2.73 1.759-2.598-1.759-2.598-1.759l.176-10.119s.08-.177.016-.201c-2.755-1.04-4.713-3.635-4.713-6.665z"/></g><defs><pattern id="pattern0" width="1" height="1" patternContentUnits="objectBoundingBox"><use transform="translate(-.14 -.136) scale(.00245)" xlink:href="#image0"/></pattern><clipPath id="clip0"><path fill="#fff" d="M0 0h286.846v128.237H0z" transform="translate(15.27 87.85)"/></clipPath></defs></svg>