<svg width="335" height="315" viewBox="0 0 335 315" fill="none" xmlns="http://www.w3.org/2000/svg">
<path fill-rule="evenodd" clip-rule="evenodd" d="M162.032 150.065L318.508 132.248L334.658 150.065V314.337H162.009L162.032 150.065Z" fill="#232D4F"/>
<path fill-rule="evenodd" clip-rule="evenodd" d="M145.891 132.217H318.539V296.493H145.891V132.217Z" fill="#4C5986"/>
<path fill-rule="evenodd" clip-rule="evenodd" d="M145.879 296.463L162.182 314.895L334.734 314.307L318.619 296.432L145.879 296.463Z" fill="#161E3A"/>
<path fill-rule="evenodd" clip-rule="evenodd" d="M165.408 152.103H300.878V276.499H165.408V152.103Z" fill="white"/>
<path fill-rule="evenodd" clip-rule="evenodd" d="M300.958 151.984V158.908L173.683 159.054L165.139 152.019L300.958 151.984Z" fill="#232D4F"/>
<path fill-rule="evenodd" clip-rule="evenodd" d="M165.301 152.057L165.37 276.561L173.349 276.618L173.733 159L165.301 152.057Z" fill="#35416B"/>
<path fill-rule="evenodd" clip-rule="evenodd" d="M113.013 99.4977L245.53 85.4156L260.237 99.4977V239.895H113.013L97.998 225.69L113.013 99.4977Z" fill="#C14F0D"/>
<path fill-rule="evenodd" clip-rule="evenodd" d="M98.2903 85.7501H245.514V226.148H98.2903V85.7501Z" fill="#F96132"/>
<path fill-rule="evenodd" clip-rule="evenodd" d="M59.6925 58.0515L192.209 43.9656L206.916 58.0476V198.445H59.6925L44.6963 184.244L59.6925 58.0515Z" fill="#C14F0D"/>
<path fill-rule="evenodd" clip-rule="evenodd" d="M59.6925 58.0515L192.209 43.9656L206.916 58.0476V198.445H59.6925L44.6963 184.244L59.6925 58.0515Z" fill="#DC9300"/>
<path fill-rule="evenodd" clip-rule="evenodd" d="M44.9692 44.304H192.193V184.701H44.9692V44.304Z" fill="#F7A501"/>
<path fill-rule="evenodd" clip-rule="evenodd" d="M15.0192 14.0821L147.532 0L162.236 14.0821V154.48H15.0192L0 140.274L15.0192 14.0821Z" fill="#36426B"/>
<path fill-rule="evenodd" clip-rule="evenodd" d="M0.296143 0.334595H147.532V140.732H0.296143V0.334595Z" fill="#68749E"/>
</svg>
