<svg xmlns:xlink="http://www.w3.org/1999/xlink" fill="none" viewBox="0 0 392 392"><path fill="url(#pattern0)" d="M0 0h392v392H0z"/><path fill="#FFA88D" fill-rule="evenodd" d="M198.431 15.759l-10.744.621 30.71 26.3-138.846-.058-27.713-24.466-10.057.365L68.23 42.709l-66.26.23v7.11l78.736.093 32.973 27.88 9.61.025L91.495 50.51l136.927-.744 37.815 32.592 9.929.174-77.735-66.774z" clip-rule="evenodd"/><path fill="#E24F0D" fill-rule="evenodd" d="M266.041 82.222l-.199 57.892 9.88.448V82.315l-9.681-.093zm-152.408-4.326l-.199 61.477 9.88.478V77.992l-9.681-.096zm-71.67-59.33l-.189 24.171 26.449-.038-26.26-24.134zm145.83-2.157l-.299 26.754 31.169-.573-30.87-26.181z" clip-rule="evenodd"/><path fill="#FF764C" fill-rule="evenodd" d="M227.668 49.18l-.658 38.751 34.789 28.302-.369 22.109 4.55-.346.231-55.947-38.543-32.868zm-147.174.92l-.546 38.998 31.394 29.413-.222 19.59 2.311-.429.241-19.616.07-40.218L80.494 50.1z" clip-rule="evenodd"/><path fill="#FFCBBB" fill-rule="evenodd" d="M1.97 50.084v39.95l78.158-.674.552-39.288-78.71.012zm89.13.5l136.728-1.406-.552 39.288-103.971.478.058-10.663L91.1 50.584z" clip-rule="evenodd"/><path fill="#FFB7A1" fill-rule="evenodd" d="M123.215 88.518l104.257-.077 36.104 29.026-140.345.195-.016-29.144zM1.97 118.399l109.59-.019-31.38-29.346-78.21 1.022v28.343z" clip-rule="evenodd"/><path fill="#FFCBBB" d="M111.422 118.281H1.97v10.205h109.452v-10.205z"/><path fill="#FFCBBB" fill-rule="evenodd" d="M123.222 117.368h140.3v10.205h-140.3v-10.205z" clip-rule="evenodd"/><path fill="#C14F0D" fill-rule="evenodd" d="M1.97 138.944l109.812-.054-.177-10.718-109.635.067v10.705zm121.271-11.298l140.374-.16-.023 10.798-140.351.064v-10.702z" clip-rule="evenodd"/><path fill="#FFA88D" fill-rule="evenodd" d="M311.897 117.05l-10.74.619 30.707 26.299-138.847-.054-27.713-24.467-10.057.365L181.696 144l-131.572.458-29-24.732L11 119.71l30.86 26.046-39.89.138v7.196l45.337-.775 34.252 28.978 9.614.074L56.1 151.273l138.077.161 32.969 27.879 9.611.025-31.795-27.539 136.927-.743 37.815 32.595 9.932.173-77.738-66.774z" clip-rule="evenodd"/><path fill="#E24F0D" fill-rule="evenodd" d="M379.511 183.513l-.203 57.889 9.868.468v-58.264l-9.665-.093zM227.1 179.184l-.199 61.481 9.88.477v-61.858l-9.681-.1zm-145.582 2.045l-.2 61.477 9.881.481v-61.859l-9.681-.099zm-70.36-61.462l-.125 26.245 31.358-.166-31.233-26.079zm144.269.09l-.186 24.172 26.445-.039-26.259-24.133zm145.823-2.156l-.295 26.754 31.166-.573-30.871-26.181z" clip-rule="evenodd"/><path fill="#FF764C" fill-rule="evenodd" d="M341.134 150.472l-.641 38.748 34.772 28.299-.366 22.108 4.551-.346.231-55.947-38.547-32.862zm-147.17.92l-.536 38.997 31.393 29.411-.218 19.59 2.307-.43.241-19.615.074-40.218-33.261-27.735zm-146.612.891l-.148 40.07 31.378 28.793.279 18.904 2.689.493.103-59.33-34.301-28.93z" clip-rule="evenodd"/><path fill="#FFCBBB" fill-rule="evenodd" d="M1.97 152.795v39.985l45.27-.353.224-40.218-45.494.586zm54.02-1.409l138.157-.023-.549 39.286-102.437.884.118-9.872-35.289-30.275zm148.576.483l136.732-1.406-.552 39.289-103.971.474.054-10.66-32.263-27.697z" clip-rule="evenodd"/><path fill="#FFB7A1" fill-rule="evenodd" d="M236.682 189.809l104.256-.077 36.105 29.023-140.342.199-.019-29.145zm-145.547 1.856l102.511-1.343 31.384 29.347-133.943.025.048-28.029zM1.97 221.222l76.826.023-31.425-28.975-45.401-.083v29.035z" clip-rule="evenodd"/><path fill="#FFCBBB" d="M78.633 221.107H1.97v10.205h76.663v-10.205z"/><path fill="#FFCBBB" fill-rule="evenodd" d="M91.103 219.572h133.773v10.205H91.103v-10.205zm145.588-.916h140.291v10.208H236.691v-10.208z" clip-rule="evenodd"/><path fill="#C14F0D" d="M78.819 230.982H1.97v10.702h76.849v-10.702z"/><path fill="#C14F0D" fill-rule="evenodd" d="M91.061 229.544l133.998-.081.176 10.715-134.174.067v-10.701zm145.647-.606l140.377-.16-.026 10.798-140.351.064v-10.702z" clip-rule="evenodd"/><path fill="#FFA88D" fill-rule="evenodd" d="M392 258.051v-7.569l-65.977-.025-27.713-24.467-10.057.365 26.449 24.188-131.572.459-29.003-24.733-10.121-.016 30.861 26.046-139.482.478-27.863-24.505-5.552.275v3.707l23.92 20.962-23.92-.295v7.433l35.764.189 31.12 26.056 9.766.058-30.762-25.527 132.455-2.272 34.252 28.978 9.611.074-35.071-30.097 138.077.164 32.972 27.879 9.608.026-31.792-27.54 54.03-.291z" clip-rule="evenodd"/><path fill="#E24F0D" fill-rule="evenodd" d="M360.106 285.728l-.199 61.48 9.88.478v-61.859l-9.681-.099zm-145.582 2.044l-.199 61.481 9.88.477v-61.859l-9.681-.099zm-145.698-1.269l-.202 61.481 9.88.477v-61.858l-9.678-.1zm-66.856-54.3v20.788l23.939.292-23.939-21.08zm142.187-5.895l-.128 26.248 31.361-.167-31.233-26.081zm144.276.092l-.189 24.172 26.445-.038-26.256-24.134z" clip-rule="evenodd"/><path fill="#FF764C" fill-rule="evenodd" d="M326.97 257.935l-.549 38.997 31.394 29.411-.222 19.59 2.311-.429.24-19.616.071-40.218-33.245-27.735zm-146.612.891l-.148 40.077 31.377 28.792.276 18.905 2.693.493.102-59.331-34.3-28.936zm-142.887 1.339l-.549 38.998 27.735 28.369.337 17.405 4.259.432-.366-59.093-31.416-26.111z" clip-rule="evenodd"/><path fill="#FFCBBB" fill-rule="evenodd" d="M47.044 260.454l133.426-1.711-.225 40.218-101.725.794.142-12.906-31.619-26.395zm141.952-2.525l138.157-.023-.552 39.286-102.438.884.122-9.871-35.289-30.276zM392 296.67v-38.815l-54.427.558 32.256 27.696-.054 10.663L392 296.67z" clip-rule="evenodd"/><path fill="#FFB7A1" fill-rule="evenodd" d="M392 296.337l-22.312.016.016 29.144 22.296-.032v-29.128zm-167.859 1.871l102.511-1.343 31.384 29.347-133.943.025.048-28.029zm-145.659.416l101.895.189 31.426 28.975-133.289-.048-.032-29.116zM1.97 327.833l63.124-.128-27.482-28.956-35.642-.637v29.721z" clip-rule="evenodd"/><path fill="#FFCBBB" fill-rule="evenodd" d="M1.97 298.602l35.89.477-.18-38.991-35.71.033v38.481z" clip-rule="evenodd"/><path fill="#FFCBBB" d="M65.081 327.468H1.97v10.205h63.111v-10.205z"/><path fill="#FFCBBB" fill-rule="evenodd" d="M78.472 327.647h133.173v10.208H78.472v-10.208zm145.637-1.531h133.786v10.205H224.109v-10.205z" clip-rule="evenodd"/><path fill="#FFCBBB" d="M392 325.199h-22.306v10.205H392v-10.205z"/><path fill="#C14F0D" d="M65.136 336.561H1.97v10.705h63.166v-10.705z"/><path fill="#C14F0D" fill-rule="evenodd" d="M78.514 337.522h133.311v10.705H78.514v-10.705zm145.566-1.435l133.998-.08.176 10.714-134.174.068v-10.702zm167.92-.631l-22.287.025v10.702l22.287-.01v-10.717z" clip-rule="evenodd"/><path fill="#F7A501" fill-rule="evenodd" d="M185.948 53.897h42.506l4.945 4.4-16.34 49.932 24.94 3.89.023 2.435-43.046.321-15.817-8.568 2.789-52.41z" clip-rule="evenodd"/><path fill="#FFC654" fill-rule="evenodd" d="M190.482 58.236h42.506v39.638l9.091 14.344h-42.506L190.482 97.8V58.236z" clip-rule="evenodd"/><path fill="#35416B" fill-rule="evenodd" d="M195.353 63.33h32.668v27.898h-32.668V63.33zm-.815 31.439a1.052 1.052 0 01.585-1.028 1.049 1.049 0 011.053 1.806 1.053 1.053 0 01-.592.183 1.015 1.015 0 01-1.046-.961z" clip-rule="evenodd"/><path fill="#F7A501" fill-rule="evenodd" d="M35.78 52.292h42.506l4.945 4.402-16.34 49.93 24.94 3.893.022 2.435-43.045.321-15.804-8.568 2.776-52.413z" clip-rule="evenodd"/><path fill="#FFC654" fill-rule="evenodd" d="M40.314 56.63H82.82v39.638l9.092 14.345h-42.51l-9.088-14.418V56.63z" clip-rule="evenodd"/><path fill="#35416B" fill-rule="evenodd" d="M45.195 61.728h32.668v27.895H45.195V61.728zm-.825 31.435a1.043 1.043 0 011.195-1.116 1.047 1.047 0 01.823 1.411 1.044 1.044 0 01-.972.666 1.015 1.015 0 01-1.045-.96z" clip-rule="evenodd"/><path fill="#F7A501" fill-rule="evenodd" d="M7.827 156.32h42.51l4.941 4.399-16.337 49.917 24.94 3.893.023 2.435-43.046.321-15.797-8.568 2.766-52.397z" clip-rule="evenodd"/><path fill="#FFC654" fill-rule="evenodd" d="M12.36 160.642h42.51v39.638l9.091 14.355h-42.51l-9.09-14.419v-39.574z" clip-rule="evenodd"/><path fill="#35416B" fill-rule="evenodd" d="M17.254 165.74h32.658v27.895H17.254V165.74zm-.834 31.435a1.042 1.042 0 011.195-1.116 1.046 1.046 0 01.822 1.413 1.04 1.04 0 01-.975.664 1.01 1.01 0 01-1.042-.961z" clip-rule="evenodd"/><path fill="#F7A501" fill-rule="evenodd" d="M151.756 154.449h42.506l4.942 4.399-16.337 49.933 24.94 3.893.023 2.432-43.046.32-15.804-8.571 2.776-52.406z" clip-rule="evenodd"/><path fill="#FFC654" fill-rule="evenodd" d="M156.29 158.787h42.507v39.638l9.091 14.345h-42.51l-9.088-14.418v-39.565z" clip-rule="evenodd"/><path fill="#35416B" fill-rule="evenodd" d="M161.171 163.882h32.668v27.898h-32.668v-27.898zm-.825 31.438a1.043 1.043 0 011.194-1.116 1.045 1.045 0 01.824 1.411 1.046 1.046 0 01-.972.666 1.015 1.015 0 01-1.046-.961z" clip-rule="evenodd"/><path fill="#F7A501" fill-rule="evenodd" d="M300.415 154.676h42.507l4.945 4.399-16.34 49.933 24.943 3.893.019 2.432-43.045.321-15.804-8.568 2.775-52.41z" clip-rule="evenodd"/><path fill="#FFC654" fill-rule="evenodd" d="M304.95 159.015h42.509v39.638l9.091 14.345h-42.509l-9.091-14.419v-39.564z" clip-rule="evenodd"/><path fill="#35416B" fill-rule="evenodd" d="M309.831 164.109h32.667v27.898h-32.667v-27.898zm-.825 31.439a1.052 1.052 0 01.585-1.028 1.05 1.05 0 011.053 1.806 1.053 1.053 0 01-.592.183 1.017 1.017 0 01-1.046-.961z" clip-rule="evenodd"/><path fill="#F7A501" fill-rule="evenodd" d="M281.867 262.748h42.51l4.942 4.399-16.337 49.933 24.94 3.89.022 2.435-43.045.32-15.791-8.567 2.759-52.41z" clip-rule="evenodd"/><path fill="#FFC654" fill-rule="evenodd" d="M286.402 267.086h42.506v39.635l9.091 14.348h-42.506l-9.091-14.418v-39.565z" clip-rule="evenodd"/><path fill="#35416B" fill-rule="evenodd" d="M291.283 272.181h32.67v27.895h-32.67v-27.895zm-.822 31.438a1.043 1.043 0 011.195-1.116 1.041 1.041 0 01.867.799 1.04 1.04 0 01-.429 1.096c-.174.119-.38.182-.59.182a1.01 1.01 0 01-1.043-.961z" clip-rule="evenodd"/><path fill="#F7A501" fill-rule="evenodd" d="M134.999 262.854h42.509l4.942 4.399-16.337 49.933 24.94 3.893.023 2.435-43.046.32-15.804-8.567 2.773-52.413z" clip-rule="evenodd"/><path fill="#FFC654" fill-rule="evenodd" d="M139.533 267.182h42.509v39.648l9.092 14.345h-42.51l-9.091-14.419v-39.574z" clip-rule="evenodd"/><path fill="#35416B" fill-rule="evenodd" d="M144.417 272.29h32.667v27.895h-32.667V272.29zm-.825 31.435a1.043 1.043 0 011.195-1.116 1.047 1.047 0 01.867.798 1.042 1.042 0 01-1.019 1.279 1.01 1.01 0 01-1.043-.961z" clip-rule="evenodd"/><path fill="#F7A501" fill-rule="evenodd" d="M50.12 323.094l-24.94-3.89 16.34-49.932-4.944-4.4H1.97v58.2l5.128 2.778 43.045-.321-.022-2.435z" clip-rule="evenodd"/><path fill="#FFC654" fill-rule="evenodd" d="M41.11 308.845v-39.634H1.97v44.905l5.725 9.074H50.2l-9.091-14.345z" clip-rule="evenodd"/><path fill="#35416B" fill-rule="evenodd" d="M3.485 274.305h32.667V302.2H3.485v-27.895zM2.66 305.74a1.048 1.048 0 111.046.961 1.012 1.012 0 01-1.046-.961z" clip-rule="evenodd"/><path fill="#FFE9E2" fill-rule="evenodd" d="M18.403 56.102H1.97v25.633h16.433a1.705 1.705 0 001.704-1.702v-22.23a1.7 1.7 0 00-1.704-1.701zm128.071.435h19.79a1.709 1.709 0 011.707 1.702v22.243a1.704 1.704 0 01-1.707 1.701h-19.79a1.706 1.706 0 01-1.704-1.701V58.239a1.702 1.702 0 011.704-1.702zm-37.292 102.779h19.79a1.706 1.706 0 011.707 1.704v22.243a1.705 1.705 0 01-1.707 1.702h-19.79a1.708 1.708 0 01-1.707-1.702V161.02a1.704 1.704 0 011.707-1.704zm147.935-1.923h19.79a1.693 1.693 0 011.206.5 1.708 1.708 0 01.498 1.205v22.243a1.702 1.702 0 01-1.704 1.701h-19.79a1.708 1.708 0 01-1.707-1.701v-22.243a1.707 1.707 0 011.707-1.705zM242.355 264.09h19.79a1.707 1.707 0 011.707 1.705v22.243a1.708 1.708 0 01-1.707 1.701h-19.79a1.708 1.708 0 01-1.707-1.701v-22.243a1.709 1.709 0 011.707-1.705zm149.645.904h-7.448a1.706 1.706 0 00-1.707 1.704v22.243a1.705 1.705 0 001.707 1.702H392v-25.649zm-295.012 2.621h19.79a1.704 1.704 0 011.707 1.704v22.243a1.705 1.705 0 01-1.707 1.702h-19.79a1.708 1.708 0 01-1.707-1.702v-22.243a1.703 1.703 0 011.707-1.704z" clip-rule="evenodd"/><defs><pattern id="pattern0" width="1" height="1" patternContentUnits="objectBoundingBox"><use transform="translate(-.085 -.085) scale(.00249)" xlink:href="#image0"/></pattern></defs></svg>