<svg fill="none" viewBox="0 0 560 336"><path fill="#F7A501" fill-rule="evenodd" d="M184.253 55.958h226.418a7.804 7.804 0 017.803 7.8 7.8 7.8 0 01-7.803 7.8H184.253a7.803 7.803 0 01-7.803-7.8 7.803 7.803 0 017.803-7.8zm-77.75 110.687h226.422a7.802 7.802 0 017.803 7.8 7.803 7.803 0 01-7.803 7.8H106.503a7.804 7.804 0 01-7.803-7.8 7.8 7.8 0 017.803-7.8z" clip-rule="evenodd"/><path fill="#fff" fill-rule="evenodd" d="M251.852 111.888H478.27a7.803 7.803 0 017.803 7.8 7.803 7.803 0 01-7.803 7.8H251.852a7.805 7.805 0 01-7.803-7.8 7.805 7.805 0 017.803-7.8zm-148.458 79.421h226.397a7.805 7.805 0 017.803 7.8 7.8 7.8 0 01-7.803 7.8H103.394a7.8 7.8 0 110-15.6z" clip-rule="evenodd"/><path fill="#3541D1" fill-rule="evenodd" d="M256.472 84.58h156.166a8.457 8.457 0 015.982 14.435 8.441 8.441 0 01-5.982 2.474H256.472a8.453 8.453 0 110-16.91zm99.812 77.934h156.151a8.465 8.465 0 017.816 5.218 8.449 8.449 0 01-1.834 9.215 8.463 8.463 0 01-5.982 2.477H356.284a8.458 8.458 0 01-8.456-8.457 8.46 8.46 0 018.456-8.453z" clip-rule="evenodd"/><path fill="#0316F0" fill-rule="evenodd" d="M69.056 110.213h156.151a8.464 8.464 0 015.981 2.474 8.461 8.461 0 012.479 5.979 8.458 8.458 0 01-8.46 8.457H69.057a8.465 8.465 0 01-8.46-8.457 8.456 8.456 0 018.46-8.453z" clip-rule="evenodd"/><path fill="#F7A501" fill-rule="evenodd" d="M318.013 135.843h156.15a8.458 8.458 0 015.981 2.477 8.437 8.437 0 011.832 2.743 8.449 8.449 0 01-1.834 9.213 8.456 8.456 0 01-5.979 2.476h-156.15a8.453 8.453 0 01-5.98-14.431 8.462 8.462 0 015.98-2.478z" clip-rule="evenodd"/><path fill="#fff" fill-rule="evenodd" d="M334.276 31.979h65.915a8.652 8.652 0 016.118 14.766 8.652 8.652 0 01-6.118 2.533h-65.915a8.651 8.651 0 110-17.3zM484.657 184h65.911a8.652 8.652 0 017.994 11.96 8.646 8.646 0 01-4.683 4.681 8.65 8.65 0 01-3.311.659h-65.911a8.657 8.657 0 01-8.657-8.65 8.647 8.647 0 015.345-7.993 8.654 8.654 0 013.312-.657zM162.245 84.173h65.914c2.295 0 4.496.911 6.119 2.534a8.647 8.647 0 010 12.232 8.658 8.658 0 01-6.119 2.534h-65.914a8.658 8.658 0 01-6.119-2.534 8.647 8.647 0 010-12.232 8.656 8.656 0 016.119-2.534zm-21.446 50.331h65.915a8.652 8.652 0 018.653 8.65 8.652 8.652 0 01-8.653 8.65h-65.915a8.674 8.674 0 01-3.313-.657 8.656 8.656 0 01-5.344-7.993 8.651 8.651 0 018.657-8.65z" clip-rule="evenodd"/><path fill="#F7A501" fill-rule="evenodd" d="M437.818 83.114h45.265a8.41 8.41 0 015.943 14.355 8.402 8.402 0 01-5.947 2.46h-45.261a8.413 8.413 0 01-7.771-5.186 8.395 8.395 0 01-.64-3.217 8.402 8.402 0 015.191-7.771 8.416 8.416 0 013.22-.641zm-78.959 105.239h45.266a8.417 8.417 0 015.95 2.466 8.4 8.4 0 012.461 5.95 8.41 8.41 0 01-8.411 8.408h-45.266a8.412 8.412 0 010-16.824z" clip-rule="evenodd"/><path fill="#0316F0" fill-rule="evenodd" d="M242.944 136.245h45.257a8.41 8.41 0 015.948 14.353 8.417 8.417 0 01-5.948 2.462h-45.257a8.407 8.407 0 01-7.772-5.189 8.423 8.423 0 010-6.437 8.407 8.407 0 017.772-5.189zM39.327 165.532H84.61a8.412 8.412 0 018.41 8.408 8.408 8.408 0 01-8.41 8.407H39.327a8.408 8.408 0 110-16.815z" clip-rule="evenodd"/><path fill="#F7A501" fill-rule="evenodd" d="M84.913 85.446h45.249a8.41 8.41 0 018.411 8.407 8.412 8.412 0 01-8.411 8.407h-45.25a8.406 8.406 0 110-16.815z" clip-rule="evenodd"/><path fill="#fff" fill-rule="evenodd" d="M505.453 83.212h8.834a7.735 7.735 0 017.729 7.727 7.734 7.734 0 01-7.725 7.714h-8.838a7.735 7.735 0 01-7.729-7.727 7.726 7.726 0 012.269-5.454 7.736 7.736 0 015.46-2.26zM302.165 31.896h8.833a7.734 7.734 0 017.73 7.726 7.732 7.732 0 01-7.725 7.714h-8.838a7.73 7.73 0 01-7.725-7.726 7.724 7.724 0 017.725-7.714zM65.525 192.783h8.83a7.73 7.73 0 017.728 7.722 7.727 7.727 0 01-7.729 7.726h-8.83a7.725 7.725 0 010-15.448z" clip-rule="evenodd"/><path fill="#F7A501" fill-rule="evenodd" d="M156.696 56.085h8.834a7.735 7.735 0 017.141 4.77c.388.937.588 1.941.588 2.956a7.738 7.738 0 01-2.258 5.475 7.72 7.72 0 01-5.471 2.272h-8.834a7.742 7.742 0 01-5.463-2.276 7.728 7.728 0 01-2.253-5.471 7.724 7.724 0 017.716-7.726z" clip-rule="evenodd"/><path fill="#fff" fill-rule="evenodd" d="M127.85 55.637h8.83a7.725 7.725 0 017.729 7.71 7.727 7.727 0 01-7.729 7.726h-8.83a7.729 7.729 0 01-7.729-7.726 7.72 7.72 0 017.729-7.71z" clip-rule="evenodd"/><path fill="#3541D1" fill-rule="evenodd" d="M537.367 83.163a7.596 7.596 0 017.594 7.591v.197a7.605 7.605 0 01-2.223 5.37 7.587 7.587 0 01-5.371 2.225 7.599 7.599 0 01-7.597-7.595v-.197a7.585 7.585 0 014.69-7.014 7.597 7.597 0 012.907-.577zM102.453 56.48a7.596 7.596 0 017.594 7.59v.197a7.605 7.605 0 01-2.223 5.37 7.587 7.587 0 01-5.371 2.225 7.598 7.598 0 01-7.597-7.595v-.197a7.588 7.588 0 014.69-7.014 7.596 7.596 0 012.907-.576z" clip-rule="evenodd"/><path fill="#fff" fill-rule="evenodd" d="M431.411 189.49a7.605 7.605 0 015.369 2.224 7.581 7.581 0 012.224 5.367v.197a7.584 7.584 0 01-4.686 7.017 7.595 7.595 0 01-8.279-1.646 7.597 7.597 0 01-2.226-5.371v-.197a7.591 7.591 0 017.598-7.591zm67.352-52.547a7.591 7.591 0 017.593 7.59v.197a7.58 7.58 0 01-2.222 5.37 7.592 7.592 0 01-5.371 2.225 7.598 7.598 0 01-7.598-7.595v-.197a7.582 7.582 0 012.226-5.369 7.596 7.596 0 015.372-2.221z" clip-rule="evenodd"/><path fill="#F7A501" fill-rule="evenodd" d="M279.869 32.258a7.594 7.594 0 017.593 7.59v.197a7.586 7.586 0 01-7.593 7.595 7.592 7.592 0 01-7.598-7.595v-.197a7.588 7.588 0 014.69-7.014 7.599 7.599 0 012.908-.576zM7.598 166.43a7.6 7.6 0 017.593 7.595v.197a7.596 7.596 0 01-15.191 0v-.197a7.595 7.595 0 017.598-7.595z" clip-rule="evenodd"/><path fill="#fff" fill-rule="evenodd" d="M113.952 136.943a7.594 7.594 0 017.594 7.59v.197a7.6 7.6 0 01-2.223 5.37 7.582 7.582 0 01-5.371 2.225 7.594 7.594 0 01-7.597-7.595v-.197a7.581 7.581 0 012.225-5.369 7.607 7.607 0 015.372-2.221z" clip-rule="evenodd"/><path fill="#F96132" fill-rule="evenodd" stroke="#F96132" stroke-linecap="round" stroke-linejoin="round" stroke-width="13.164" d="M236.981 109.601c0-56.136 43.918-101.639 98.1-101.639 54.181 0 98.092 45.504 98.092 101.639 0 56.136-43.944 101.639-98.1 101.639-54.157 0-98.092-45.507-98.092-101.639z" clip-rule="evenodd"/><path fill="#35416B" fill-rule="evenodd" d="M269.441 121.092h28.941c.48 0 .956.094 1.4.277a3.662 3.662 0 012.255 3.377v78.214a3.64 3.64 0 01-2.255 3.377c-.444.183-.92.277-1.4.277h-28.941a3.662 3.662 0 01-2.583-1.071 3.644 3.644 0 01-1.068-2.583v-78.214a3.661 3.661 0 011.068-2.583 3.65 3.65 0 012.583-1.071zm41.717-29.698h28.609a3.61 3.61 0 013.609 3.61V197.48a3.607 3.607 0 01-3.609 3.608h-28.609a3.586 3.586 0 01-1.382-.274 3.586 3.586 0 01-1.171-.782 3.59 3.59 0 01-1.057-2.552V95.003a3.618 3.618 0 011.057-2.553 3.604 3.604 0 012.553-1.056zm41.87-13.1h29.479a3.721 3.721 0 013.72 3.72v117.822c0 .986-.392 1.932-1.089 2.63a3.725 3.725 0 01-2.631 1.089h-29.479a3.707 3.707 0 01-2.633-1.088 3.726 3.726 0 01-1.088-2.631V82.014a3.718 3.718 0 013.721-3.72zm42.711 14.176h27.286a3.441 3.441 0 013.441 3.44v89.623a3.44 3.44 0 01-3.441 3.44h-27.286a3.429 3.429 0 01-2.436-1.006 3.438 3.438 0 01-1.01-2.434V95.91a3.443 3.443 0 012.127-3.18 3.441 3.441 0 011.319-.26z" clip-rule="evenodd"/><path fill="#F7A501" fill-rule="evenodd" d="M294.465 75h51.506a3.433 3.433 0 013.447 3.433v33.603a3.433 3.433 0 01-3.434 3.433h-51.519a3.433 3.433 0 01-3.434-3.433V78.433A3.432 3.432 0 01294.465 75z" clip-rule="evenodd"/><path stroke="#F7A501" stroke-linecap="round" stroke-linejoin="round" stroke-width="4" d="M298.123 108.888L284 128.979"/><path fill="#fff" fill-rule="evenodd" d="M302.119 97.772h27.9c.88 0 1.595.904 1.595 2.023 0 1.118-.715 2.023-1.595 2.023h-27.9c-.881 0-1.596-.905-1.596-2.023s.715-2.023 1.596-2.023zm.253-7.588h35.379a2.026 2.026 0 011.431 3.457 2.024 2.024 0 01-1.431.592h-35.379a2.025 2.025 0 110-4.049zM301.989 83h35.376a2.026 2.026 0 110 4.049h-35.376a2.027 2.027 0 01-2.027-2.023A2.026 2.026 0 01301.989 83zm36.247 19h17.971a1.28 1.28 0 011.277 1.281v18.938a1.28 1.28 0 01-1.277 1.28h-17.971a1.282 1.282 0 01-.902-.376 1.272 1.272 0 01-.372-.904v-18.938a1.28 1.28 0 011.274-1.281z" clip-rule="evenodd"/><path stroke="#F96132" stroke-linecap="round" stroke-linejoin="round" stroke-width="4" d="M341.735 112.961l4.024 3.941 6.908-7.96"/><path fill="#35416B" fill-rule="evenodd" d="M278.087 196.887c8.144-10.109 22.743-12.148 33.345-4.657 11.098 7.841 13.735 23.196 5.888 34.29l-58.171 82.249c-10.637 15.041-31.452 18.614-46.496 7.982l-6.211-4.39a15.672 15.672 0 01-3.158-22.629l74.803-92.845z" clip-rule="evenodd"/><path fill="#35416B" fill-rule="evenodd" d="M348.613 13.58c-35.077-.73-69.88 15.376-91.656 46.168-34.842 49.263-23.135 117.443 26.146 152.272 49.282 34.828 117.491 23.12 152.329-26.147 34.839-49.266 23.129-117.433-26.156-152.261a108.79 108.79 0 00-60.663-20.032zm-1.384 33.262a74.373 74.373 0 0141.479 13.694c33.707 23.819 41.714 70.436 17.886 104.116-23.827 33.681-70.462 41.695-104.155 17.876-33.693-23.818-41.714-70.404-17.9-104.112a74.664 74.664 0 0127.407-23.612 74.697 74.697 0 0135.294-7.962h-.011z" clip-rule="evenodd"/><path fill="#6371A3" fill-rule="evenodd" d="M267.052 188.809c7.602-10.75 22.478-13.304 33.231-5.706 10.758 7.603 13.314 22.488 5.708 33.244l-64.095 90.631c-7.602 10.75-22.478 13.304-33.231 5.706-10.758-7.602-13.314-22.488-5.708-33.243l64.095-90.632z" clip-rule="evenodd"/><path fill="#6371A3" fill-rule="evenodd" d="M346.856.025C311.779-.72 276.958 15.4 255.199 46.192c-34.841 49.266-23.139 117.443 26.146 152.269 49.285 34.825 117.488 23.119 152.333-26.151 34.845-49.27 23.129-117.433-26.156-152.261A108.82 108.82 0 00346.856.025zm-1.385 33.258a74.415 74.415 0 0141.493 13.697c33.707 23.816 41.714 70.436 17.886 104.116-23.827 33.681-70.462 41.695-104.155 17.88S258.968 98.551 282.809 64.86a74.67 74.67 0 0127.394-23.607 74.702 74.702 0 0135.279-7.97h-.011z" clip-rule="evenodd"/></svg>