<svg xmlns="http://www.w3.org/2000/svg" width="560" height="336" fill="none" viewBox="0 0 560 336"><path fill="#F7A501" fill-rule="evenodd" d="M184.253 55.9575H410.671C412.741 55.9575 414.726 56.7793 416.189 58.2421C417.652 59.7049 418.474 61.6889 418.474 63.7576C418.474 65.8263 417.652 67.8103 416.189 69.2731C414.726 70.7359 412.741 71.5577 410.671 71.5577H184.253C182.184 71.5577 180.199 70.7359 178.736 69.2731C177.272 67.8103 176.45 65.8263 176.45 63.7576C176.45 61.6889 177.272 59.7049 178.736 58.2421C180.199 56.7793 182.184 55.9575 184.253 55.9575Z" clip-rule="evenodd"/><path fill="#F7A501" fill-rule="evenodd" d="M106.503 166.645H332.925C334.994 166.645 336.979 167.466 338.442 168.929C339.906 170.392 340.728 172.376 340.728 174.445C340.728 176.513 339.906 178.497 338.442 179.96C336.979 181.423 334.994 182.245 332.925 182.245H106.503C104.433 182.245 102.448 181.423 100.985 179.96C99.5217 178.497 98.6996 176.513 98.6996 174.445C98.6996 172.376 99.5217 170.392 100.985 168.929C102.448 167.466 104.433 166.645 106.503 166.645Z" clip-rule="evenodd"/><path fill="#fff" fill-rule="evenodd" d="M251.852 111.888H478.27C480.339 111.888 482.324 112.71 483.787 114.173C485.251 115.635 486.073 117.619 486.073 119.688C486.073 121.757 485.251 123.741 483.787 125.203C482.324 126.666 480.339 127.488 478.27 127.488H251.852C249.782 127.488 247.798 126.666 246.334 125.203C244.871 123.741 244.049 121.757 244.049 119.688C244.049 117.619 244.871 115.635 246.334 114.173C247.798 112.71 249.782 111.888 251.852 111.888Z" clip-rule="evenodd"/><path fill="#fff" fill-rule="evenodd" d="M103.394 191.309H329.791C331.861 191.309 333.845 192.131 335.309 193.594C336.772 195.056 337.594 197.04 337.594 199.109C337.594 201.178 336.772 203.162 335.309 204.625C333.845 206.087 331.861 206.909 329.791 206.909H103.394C101.324 206.909 99.3395 206.087 97.8761 204.625C96.4128 203.162 95.5907 201.178 95.5907 199.109C95.5907 197.04 96.4128 195.056 97.8761 193.594C99.3395 192.131 101.324 191.309 103.394 191.309Z" clip-rule="evenodd"/><path fill="#3541D1" fill-rule="evenodd" d="M256.472 84.5796H412.638C414.882 84.5796 417.034 85.4706 418.621 87.0566C420.207 88.6425 421.098 90.7936 421.098 93.0365C421.098 94.1469 420.88 95.2464 420.454 96.2722C420.029 97.298 419.406 98.23 418.62 99.015C417.835 99.8 416.902 100.423 415.876 100.847C414.849 101.272 413.749 101.49 412.638 101.489H256.472C254.229 101.489 252.078 100.599 250.493 99.0135C248.907 97.4283 248.016 95.2783 248.016 93.0365C248.015 91.9261 248.234 90.8265 248.658 89.8005C249.083 88.7745 249.706 87.8422 250.491 87.0568C251.276 86.2715 252.209 85.6485 253.235 85.2234C254.261 84.7984 255.361 84.5796 256.472 84.5796Z" clip-rule="evenodd"/><path fill="#3541D1" fill-rule="evenodd" d="M356.284 162.514H512.435C513.545 162.514 514.645 162.732 515.672 163.157C516.698 163.581 517.631 164.204 518.417 164.989C519.202 165.774 519.825 166.706 520.251 167.732C520.676 168.757 520.895 169.857 520.895 170.967C520.895 173.21 520.003 175.361 518.417 176.947C516.83 178.533 514.678 179.424 512.435 179.424H356.284C355.174 179.424 354.074 179.205 353.048 178.78C352.021 178.355 351.089 177.732 350.304 176.947C349.518 176.162 348.896 175.229 348.471 174.203C348.046 173.177 347.828 172.078 347.828 170.967C347.828 168.725 348.719 166.575 350.305 164.99C351.891 163.405 354.042 162.514 356.284 162.514Z" clip-rule="evenodd"/><path fill="#0316F0" fill-rule="evenodd" d="M69.0565 110.213H225.207C226.317 110.212 227.417 110.431 228.444 110.855C229.47 111.28 230.403 111.902 231.188 112.687C231.974 113.472 232.597 114.404 233.023 115.43C233.448 116.456 233.667 117.555 233.667 118.666C233.667 120.909 232.775 123.06 231.189 124.646C229.602 126.232 227.45 127.123 225.207 127.123H69.0565C66.813 127.122 64.6618 126.23 63.0755 124.644C61.4891 123.059 60.5975 120.908 60.5964 118.666C60.5975 116.423 61.4893 114.273 63.0757 112.688C64.6622 111.103 66.8134 110.213 69.0565 110.213Z" clip-rule="evenodd"/><path fill="#F7A501" fill-rule="evenodd" d="M318.013 135.843H474.163C475.274 135.843 476.374 136.061 477.4 136.486C478.426 136.911 479.358 137.534 480.144 138.32C480.929 139.105 481.552 140.037 481.976 141.063C482.401 142.089 482.62 143.189 482.619 144.299C482.619 145.409 482.4 146.509 481.975 147.534C481.55 148.56 480.928 149.492 480.142 150.276C479.357 151.061 478.425 151.684 477.399 152.109C476.373 152.534 475.273 152.752 474.163 152.752H318.013C316.902 152.752 315.803 152.534 314.777 152.109C313.751 151.684 312.819 151.061 312.034 150.276C311.248 149.492 310.626 148.56 310.201 147.534C309.776 146.509 309.557 145.409 309.557 144.299C309.557 142.057 310.448 139.907 312.033 138.321C313.619 136.735 315.77 135.844 318.013 135.843Z" clip-rule="evenodd"/><path fill="#fff" fill-rule="evenodd" d="M334.276 31.9785H400.191C402.486 31.9785 404.687 32.8898 406.309 34.512C407.932 36.1342 408.844 38.3343 408.844 40.6284C408.844 42.9225 407.932 45.1226 406.309 46.7448C404.687 48.3669 402.486 49.2782 400.191 49.2782H334.276C331.981 49.2782 329.78 48.3669 328.157 46.7448C326.535 45.1226 325.623 42.9225 325.623 40.6284C325.623 38.3343 326.535 36.1342 328.157 34.512C329.78 32.8898 331.981 31.9785 334.276 31.9785Z" clip-rule="evenodd"/><path fill="#fff" fill-rule="evenodd" d="M484.657 184H550.568C552.863 184 555.064 184.911 556.686 186.533C558.309 188.156 559.221 190.356 559.221 192.65C559.221 193.786 558.997 194.911 558.562 195.96C558.127 197.009 557.49 197.963 556.686 198.766C555.883 199.569 554.929 200.207 553.879 200.641C552.829 201.076 551.704 201.3 550.568 201.3H484.657C482.362 201.3 480.161 200.389 478.537 198.767C476.914 197.144 476.001 194.944 476 192.65C476 191.514 476.224 190.388 476.659 189.339C477.094 188.289 477.732 187.335 478.536 186.532C479.34 185.729 480.294 185.092 481.345 184.657C482.395 184.223 483.521 183.999 484.657 184Z" clip-rule="evenodd"/><path fill="#fff" fill-rule="evenodd" d="M162.245 84.1731H228.159C230.454 84.1731 232.655 85.0844 234.278 86.7066C235.901 88.3287 236.812 90.5289 236.812 92.8229C236.812 95.117 235.901 97.3172 234.278 98.9393C232.655 100.561 230.454 101.473 228.159 101.473H162.245C159.95 101.473 157.749 100.561 156.126 98.9393C154.503 97.3172 153.592 95.117 153.592 92.8229C153.592 90.5289 154.503 88.3287 156.126 86.7066C157.749 85.0844 159.95 84.1731 162.245 84.1731Z" clip-rule="evenodd"/><path fill="#fff" fill-rule="evenodd" d="M140.799 134.504H206.714C209.008 134.504 211.209 135.415 212.832 137.038C214.455 138.66 215.367 140.86 215.367 143.154C215.367 145.448 214.455 147.648 212.832 149.27C211.209 150.893 209.008 151.804 206.714 151.804H140.799C139.662 151.804 138.536 151.581 137.486 151.147C136.436 150.712 135.481 150.075 134.677 149.272C133.874 148.469 133.236 147.515 132.801 146.465C132.366 145.415 132.142 144.29 132.142 143.154C132.143 140.86 133.055 138.659 134.679 137.037C136.302 135.415 138.503 134.504 140.799 134.504Z" clip-rule="evenodd"/><path fill="#F7A501" fill-rule="evenodd" d="M437.818 83.114H483.083C484.188 83.1146 485.281 83.3326 486.301 83.7556C487.322 84.1786 488.249 84.7984 489.029 85.5795C489.81 86.3606 490.429 87.2877 490.851 88.308C491.273 89.3283 491.49 90.4217 491.49 91.5258C491.49 92.6297 491.272 93.7228 490.849 94.7426C490.427 95.7624 489.807 96.689 489.026 97.4694C488.245 98.2498 487.318 98.8687 486.297 99.2908C485.277 99.7129 484.183 99.9298 483.079 99.9293H437.818C436.713 99.9298 435.62 99.7129 434.599 99.2908C433.579 98.8687 432.652 98.2498 431.87 97.4694C431.089 96.689 430.47 95.7624 430.047 94.7426C429.624 93.7228 429.407 92.6297 429.407 91.5258C429.406 90.4213 429.623 89.3276 430.046 88.307C430.468 87.2865 431.088 86.3592 431.869 85.578C432.65 84.7968 433.577 84.1772 434.598 83.7544C435.619 83.3316 436.713 83.114 437.818 83.114Z" clip-rule="evenodd"/><path fill="#F7A501" fill-rule="evenodd" d="M358.859 188.353H404.125C405.23 188.353 406.325 188.571 407.346 188.994C408.366 189.417 409.294 190.037 410.075 190.819C410.856 191.6 411.476 192.528 411.898 193.549C412.32 194.57 412.537 195.664 412.536 196.769C412.536 198.999 411.65 201.137 410.072 202.714C408.495 204.291 406.356 205.177 404.125 205.177H358.859C356.629 205.177 354.489 204.291 352.912 202.714C351.335 201.137 350.449 198.999 350.449 196.769C350.448 195.664 350.664 194.57 351.086 193.549C351.509 192.528 352.128 191.6 352.909 190.819C353.69 190.037 354.618 189.417 355.639 188.994C356.66 188.571 357.754 188.353 358.859 188.353Z" clip-rule="evenodd"/><path fill="#0316F0" fill-rule="evenodd" d="M242.944 136.245H288.201C290.432 136.245 292.571 137.131 294.149 138.707C295.726 140.284 296.612 142.423 296.612 144.653C296.612 146.882 295.726 149.021 294.149 150.598C292.571 152.174 290.432 153.06 288.201 153.06H242.944C241.839 153.061 240.745 152.844 239.725 152.421C238.704 151.999 237.777 151.38 236.995 150.599C236.214 149.818 235.595 148.891 235.172 147.871C234.75 146.85 234.533 145.757 234.533 144.653C234.533 143.548 234.75 142.455 235.172 141.434C235.595 140.414 236.214 139.487 236.995 138.706C237.777 137.925 238.704 137.306 239.725 136.884C240.745 136.461 241.839 136.244 242.944 136.245Z" clip-rule="evenodd"/><path fill="#0316F0" fill-rule="evenodd" d="M39.3271 165.532H84.609C86.8397 165.532 88.979 166.418 90.5564 167.995C92.1337 169.571 93.0198 171.71 93.0198 173.94C93.0198 176.169 92.1337 178.308 90.5564 179.885C88.979 181.461 86.8397 182.347 84.609 182.347H39.3271C37.0964 182.347 34.9571 181.461 33.3797 179.885C31.8024 178.308 30.9163 176.169 30.9163 173.94C30.9163 171.71 31.8024 169.571 33.3797 167.995C34.9571 166.418 37.0964 165.532 39.3271 165.532Z" clip-rule="evenodd"/><path fill="#F7A501" fill-rule="evenodd" d="M84.9129 85.4458H130.162C132.393 85.4458 134.532 86.3316 136.109 87.9084C137.687 89.4851 138.573 91.6236 138.573 93.8535C138.573 96.0833 137.687 98.2218 136.109 99.7986C134.532 101.375 132.393 102.261 130.162 102.261H84.9129C82.6823 102.261 80.5429 101.375 78.9656 99.7986C77.3883 98.2218 76.5021 96.0833 76.5021 93.8535C76.5021 91.6236 77.3883 89.4851 78.9656 87.9084C80.5429 86.3316 82.6823 85.4458 84.9129 85.4458Z" clip-rule="evenodd"/><path fill="#fff" fill-rule="evenodd" d="M505.453 83.2124H514.287C516.336 83.2135 518.302 84.0278 519.751 85.4765C521.2 86.9252 522.015 88.8898 522.016 90.9386C522.012 92.9845 521.196 94.9453 519.748 96.3912C518.3 97.8371 516.338 98.6503 514.291 98.6524H505.453C503.404 98.6513 501.438 97.837 499.989 96.3883C498.54 94.9396 497.725 92.975 497.724 90.9262C497.728 88.8796 498.544 86.9182 499.993 85.4722C501.442 84.0261 503.406 83.2135 505.453 83.2124Z" clip-rule="evenodd"/><path fill="#fff" fill-rule="evenodd" d="M302.165 31.8962H310.998C313.048 31.8973 315.013 32.7117 316.463 34.1604C317.912 35.6091 318.726 37.5736 318.728 39.6224C318.723 41.6683 317.908 43.6291 316.46 45.075C315.012 46.521 313.049 47.3341 311.003 47.3363H302.165C300.115 47.3352 298.151 46.5207 296.702 45.0719C295.253 43.6231 294.44 41.6585 294.44 39.6101C294.443 37.5638 295.258 35.6024 296.706 34.1563C298.155 32.7101 300.118 31.8973 302.165 31.8962Z" clip-rule="evenodd"/><path fill="#fff" fill-rule="evenodd" d="M65.5246 192.783H74.3543C76.4034 192.783 78.3687 193.596 79.8181 195.044C81.2674 196.493 82.0822 198.457 82.0833 200.505C82.0833 201.52 81.8834 202.524 81.495 203.462C81.1065 204.399 80.5372 205.251 79.8195 205.968C79.1018 206.686 78.2498 207.255 77.312 207.643C76.3743 208.031 75.3692 208.231 74.3543 208.231H65.5246C63.4765 208.229 61.5131 207.414 60.066 205.965C58.619 204.516 57.8067 202.552 57.8078 200.505C57.8078 198.458 58.6206 196.496 60.0675 195.048C61.5144 193.6 63.4772 192.785 65.5246 192.783Z" clip-rule="evenodd"/><path fill="#F7A501" fill-rule="evenodd" d="M156.696 56.0847H165.53C166.545 56.0847 167.55 56.2846 168.488 56.6728C169.426 57.0611 170.278 57.6302 170.995 58.3477C171.713 59.0651 172.282 59.9168 172.671 60.8542C173.059 61.7916 173.259 62.7963 173.259 63.8109C173.261 64.8271 173.063 65.8337 172.676 66.7732C172.288 67.7127 171.719 68.5667 171.001 69.2862C170.284 70.0057 169.431 70.5767 168.492 70.9664C167.553 71.3562 166.547 71.557 165.53 71.5576H156.696C155.681 71.5554 154.676 71.3533 153.738 70.9629C152.801 70.5724 151.95 70.0012 151.233 69.2818C150.516 68.5625 149.949 67.7091 149.562 66.7704C149.175 65.8317 148.977 64.826 148.98 63.8109C148.98 61.7639 149.792 59.8006 151.239 58.352C152.686 56.9034 154.649 56.088 156.696 56.0847Z" clip-rule="evenodd"/><path fill="#fff" fill-rule="evenodd" d="M127.85 55.6372H136.68C138.727 55.6361 140.691 56.4475 142.14 57.8931C143.59 59.3388 144.405 61.3004 144.409 63.347C144.409 65.3961 143.594 67.3612 142.145 68.8102C140.695 70.2591 138.73 71.0731 136.68 71.0731H127.85C125.8 71.0731 123.834 70.2591 122.385 68.8102C120.935 67.3612 120.121 65.3961 120.121 63.347C120.124 61.3004 120.94 59.3388 122.389 57.8931C123.839 56.4475 125.803 55.6361 127.85 55.6372Z" clip-rule="evenodd"/><path fill="#3541D1" fill-rule="evenodd" d="M537.367 83.1633C539.381 83.1633 541.313 83.9631 542.737 85.3866C544.161 86.8101 544.961 88.7409 544.961 90.754V90.9511C544.961 91.9483 544.765 92.9358 544.384 93.8572C544.002 94.7786 543.443 95.6159 542.738 96.3212C542.033 97.0265 541.196 97.586 540.274 97.9677C539.352 98.3494 538.365 98.5459 537.367 98.5459C535.352 98.5459 533.42 97.7457 531.995 96.3214C530.57 94.8971 529.77 92.9654 529.77 90.9511V90.754C529.77 89.7569 529.966 88.7695 530.348 87.8483C530.73 86.927 531.29 86.0901 531.995 85.3852C532.701 84.6802 533.538 84.1212 534.46 83.74C535.382 83.3587 536.37 83.1628 537.367 83.1633Z" clip-rule="evenodd"/><path fill="#3541D1" fill-rule="evenodd" d="M102.453 56.4788C104.467 56.4788 106.399 57.2785 107.823 58.702C109.247 60.1256 110.047 62.0563 110.047 64.0695V64.2665C110.047 65.2637 109.851 66.2512 109.47 67.1726C109.089 68.094 108.529 68.9313 107.824 69.6366C107.119 70.3419 106.282 70.9014 105.36 71.2831C104.439 71.6648 103.451 71.8613 102.453 71.8613C100.438 71.8613 98.5057 71.0612 97.0809 69.6369C95.6561 68.2126 94.8556 66.2808 94.8556 64.2665V64.0695C94.8556 63.0723 95.0521 62.0849 95.434 61.1637C95.8159 60.2425 96.3756 59.4055 97.0811 58.7006C97.7867 57.9957 98.6243 57.4366 99.5461 57.0554C100.468 56.6742 101.456 56.4782 102.453 56.4788Z" clip-rule="evenodd"/><path fill="#fff" fill-rule="evenodd" d="M431.411 189.49C432.408 189.49 433.396 189.687 434.317 190.068C435.238 190.45 436.075 191.009 436.78 191.714C437.485 192.419 438.045 193.255 438.426 194.176C438.808 195.097 439.004 196.084 439.004 197.081V197.278C439.005 198.275 438.809 199.263 438.428 200.184C438.046 201.106 437.487 201.943 436.782 202.648C436.077 203.354 435.239 203.913 434.318 204.295C433.396 204.677 432.408 204.873 431.411 204.873C429.396 204.873 427.463 204.073 426.039 202.649C424.614 201.224 423.813 199.292 423.813 197.278V197.081C423.813 196.084 424.01 195.097 424.392 194.175C424.774 193.254 425.333 192.417 426.039 191.712C426.744 191.007 427.582 190.448 428.504 190.067C429.425 189.686 430.413 189.49 431.411 189.49Z" clip-rule="evenodd"/><path fill="#fff" fill-rule="evenodd" d="M498.763 136.943C500.777 136.943 502.708 137.742 504.132 139.166C505.556 140.589 506.356 142.52 506.356 144.533V144.73C506.357 145.728 506.161 146.715 505.78 147.636C505.398 148.558 504.839 149.395 504.134 150.1C503.429 150.806 502.591 151.365 501.67 151.747C500.748 152.129 499.76 152.325 498.763 152.325C496.748 152.325 494.815 151.525 493.391 150.101C491.966 148.676 491.165 146.745 491.165 144.73V144.533C491.165 143.536 491.362 142.549 491.744 141.628C492.126 140.706 492.685 139.869 493.391 139.164C494.096 138.46 494.934 137.9 495.856 137.519C496.778 137.138 497.765 136.942 498.763 136.943Z" clip-rule="evenodd"/><path fill="#F7A501" fill-rule="evenodd" d="M279.869 32.2576C281.883 32.2576 283.814 33.0573 285.238 34.4808C286.662 35.9044 287.462 37.8351 287.462 39.8483V40.0453C287.463 41.0425 287.267 42.03 286.885 42.9514C286.504 43.8728 285.945 44.7101 285.24 45.4154C284.534 46.1207 283.697 46.6802 282.775 47.0619C281.854 47.4436 280.866 47.6401 279.869 47.6401C277.854 47.6401 275.921 46.84 274.496 45.4157C273.071 43.9914 272.271 42.0596 272.271 40.0453V39.8483C272.271 38.8511 272.468 37.8637 272.849 36.9425C273.231 36.0213 273.791 35.1843 274.497 34.4794C275.202 33.7745 276.04 33.2154 276.961 32.8342C277.883 32.453 278.871 32.257 279.869 32.2576Z" clip-rule="evenodd"/><path fill="#F7A501" fill-rule="evenodd" d="M7.59765 166.431C9.61196 166.432 11.5434 167.233 12.9673 168.657C14.3913 170.081 15.1912 172.012 15.1912 174.026V174.223C15.1912 176.236 14.3913 178.167 12.9673 179.592C11.5434 181.016 9.61196 181.816 7.59765 181.818C5.58263 181.818 3.65013 181.017 2.2253 179.593C0.800464 178.169 0 176.237 0 174.223V174.026C0 172.011 0.800464 170.08 2.2253 168.655C3.65013 167.231 5.58263 166.431 7.59765 166.431Z" clip-rule="evenodd"/><path fill="#fff" fill-rule="evenodd" d="M113.952 136.943C115.966 136.943 117.898 137.742 119.322 139.166C120.746 140.589 121.546 142.52 121.546 144.533V144.73C121.546 145.728 121.35 146.715 120.969 147.636C120.588 148.558 120.028 149.395 119.323 150.1C118.618 150.806 117.781 151.365 116.859 151.747C115.938 152.129 114.95 152.325 113.952 152.325C111.937 152.325 110.005 151.525 108.58 150.101C107.155 148.676 106.355 146.745 106.355 144.73V144.533C106.355 143.536 106.551 142.549 106.933 141.628C107.315 140.706 107.875 139.869 108.58 139.164C109.286 138.46 110.123 137.9 111.045 137.519C111.967 137.138 112.955 136.942 113.952 136.943Z" clip-rule="evenodd"/><path fill="#F96132" fill-rule="evenodd" stroke="#F96132" stroke-linecap="round" stroke-linejoin="round" stroke-width="13.164" d="M236.981 109.601C236.981 53.4655 280.899 7.9624 335.081 7.9624C389.262 7.9624 433.173 53.4655 433.173 109.601C433.173 165.737 389.229 211.24 335.073 211.24C280.916 211.24 236.981 165.733 236.981 109.601Z" clip-rule="evenodd"/><path fill="#35416B" fill-rule="evenodd" d="M269.441 121.092H298.382C298.862 121.092 299.338 121.186 299.782 121.369C300.225 121.553 300.628 121.822 300.968 122.161C301.307 122.501 301.577 122.904 301.76 123.347C301.944 123.791 302.038 124.266 302.037 124.746V202.96C302.038 203.44 301.944 203.915 301.76 204.359C301.577 204.803 301.307 205.206 300.968 205.545C300.628 205.884 300.225 206.153 299.782 206.337C299.338 206.52 298.862 206.614 298.382 206.614H269.441C268.961 206.614 268.486 206.519 268.043 206.336C267.6 206.152 267.197 205.883 266.858 205.543C266.519 205.204 266.25 204.801 266.067 204.358C265.884 203.915 265.79 203.44 265.79 202.96V124.746C265.79 124.266 265.884 123.791 266.067 123.348C266.25 122.905 266.519 122.502 266.858 122.163C267.197 121.823 267.6 121.554 268.043 121.37C268.486 121.187 268.961 121.092 269.441 121.092Z" clip-rule="evenodd"/><path fill="#35416B" fill-rule="evenodd" d="M311.158 91.3945H339.767C340.724 91.3945 341.642 91.7747 342.319 92.4515C342.996 93.1282 343.376 94.046 343.376 95.0031V197.48C343.376 198.437 342.996 199.354 342.319 200.031C341.642 200.708 340.724 201.088 339.767 201.088H311.158C310.684 201.089 310.215 200.996 309.776 200.814C309.338 200.633 308.94 200.368 308.605 200.032C308.269 199.697 308.003 199.299 307.822 198.861C307.641 198.423 307.548 197.954 307.548 197.48V95.0031C307.548 94.529 307.641 94.0596 307.822 93.6215C308.003 93.1835 308.269 92.7854 308.605 92.4502C308.94 92.1151 309.338 91.8493 309.776 91.6681C310.215 91.487 310.684 91.394 311.158 91.3945Z" clip-rule="evenodd"/><path fill="#35416B" fill-rule="evenodd" d="M353.028 78.2944H382.507C383.493 78.2944 384.44 78.6863 385.138 79.3838C385.835 80.0813 386.227 81.0274 386.227 82.0138V199.836C386.227 200.822 385.835 201.768 385.138 202.466C384.44 203.163 383.493 203.555 382.507 203.555H353.028C352.539 203.556 352.055 203.46 351.603 203.273C351.151 203.086 350.741 202.813 350.395 202.467C350.05 202.122 349.776 201.711 349.589 201.26C349.402 200.808 349.306 200.324 349.307 199.836V82.0138C349.307 81.0274 349.699 80.0813 350.397 79.3838C351.094 78.6863 352.041 78.2944 353.028 78.2944Z" clip-rule="evenodd"/><path fill="#35416B" fill-rule="evenodd" d="M395.739 92.47H423.025C423.937 92.47 424.813 92.8324 425.458 93.4776C426.104 94.1228 426.466 94.9978 426.466 95.9102V185.533C426.466 186.445 426.104 187.32 425.458 187.966C424.813 188.611 423.937 188.973 423.025 188.973H395.739C395.286 188.974 394.838 188.885 394.42 188.712C394.002 188.54 393.623 188.287 393.303 187.967C392.983 187.647 392.729 187.268 392.555 186.85C392.382 186.433 392.293 185.985 392.293 185.533V95.9102C392.293 95.4581 392.382 95.0104 392.555 94.5927C392.729 94.1751 392.983 93.7956 393.303 93.4761C393.623 93.1566 394.002 92.9033 394.42 92.7307C394.838 92.558 395.286 92.4694 395.739 92.47Z" clip-rule="evenodd"/><path fill="#F7A501" fill-rule="evenodd" d="M294.465 75H345.971C346.423 74.9983 346.871 75.0858 347.289 75.2576C347.707 75.4293 348.087 75.6819 348.407 76.0008C348.728 76.3197 348.982 76.6987 349.155 77.116C349.328 77.5333 349.418 77.9808 349.418 78.4327V112.036C349.418 112.946 349.056 113.819 348.412 114.463C347.768 115.107 346.894 115.469 345.984 115.469H294.465C293.554 115.469 292.681 115.107 292.037 114.463C291.393 113.819 291.031 112.946 291.031 112.036V78.4327C291.031 77.5223 291.393 76.6492 292.037 76.0054C292.681 75.3617 293.554 75 294.465 75Z" clip-rule="evenodd"/><path stroke="#F7A501" stroke-linecap="round" stroke-linejoin="round" stroke-width="4" d="M298.123 108.888L284 128.979"/><path fill="#fff" fill-rule="evenodd" d="M302.119 97.7721H330.019C330.899 97.7721 331.614 98.6765 331.614 99.795C331.614 100.913 330.899 101.818 330.019 101.818H302.119C301.238 101.818 300.523 100.913 300.523 99.795C300.523 98.6765 301.238 97.7721 302.119 97.7721Z" clip-rule="evenodd"/><path fill="#fff" fill-rule="evenodd" d="M302.372 90.1842H337.751C338.288 90.185 338.803 90.3988 339.182 90.7786C339.562 91.1585 339.775 91.6733 339.775 92.2101C339.775 92.7466 339.562 93.2611 339.182 93.6405C338.803 94.0199 338.288 94.233 337.751 94.233H302.372C302.106 94.2334 301.843 94.1813 301.597 94.0799C301.351 93.9784 301.128 93.8294 300.939 93.6416C300.751 93.4537 300.602 93.2305 300.5 92.9849C300.398 92.7393 300.346 92.476 300.346 92.2101C300.346 91.6728 300.559 91.1575 300.939 90.7776C301.319 90.3977 301.835 90.1842 302.372 90.1842Z" clip-rule="evenodd"/><path fill="#fff" fill-rule="evenodd" d="M301.989 83H337.365C337.903 83 338.418 83.2134 338.798 83.5934C339.178 83.9733 339.392 84.4886 339.392 85.0259C339.391 85.5627 339.177 86.0772 338.797 86.4565C338.417 86.8358 337.902 87.0488 337.365 87.0488H301.989C301.452 87.0488 300.937 86.8358 300.557 86.4565C300.177 86.0772 299.963 85.5627 299.962 85.0259C299.962 84.4886 300.176 83.9733 300.556 83.5934C300.936 83.2134 301.452 83 301.989 83Z" clip-rule="evenodd"/><path fill="#fff" fill-rule="evenodd" d="M338.236 102H356.207C356.546 102.001 356.871 102.137 357.111 102.377C357.35 102.617 357.484 102.942 357.484 103.281V122.219C357.484 122.558 357.35 122.883 357.111 123.123C356.871 123.363 356.546 123.498 356.207 123.499H338.236C338.068 123.499 337.902 123.465 337.747 123.401C337.592 123.336 337.452 123.242 337.334 123.123C337.215 123.004 337.122 122.863 337.058 122.708C336.994 122.552 336.962 122.386 336.962 122.219V103.281C336.962 103.113 336.994 102.947 337.058 102.792C337.122 102.637 337.215 102.496 337.334 102.377C337.452 102.258 337.592 102.163 337.747 102.099C337.902 102.034 338.068 102.001 338.236 102Z" clip-rule="evenodd"/><path stroke="#F96132" stroke-linecap="round" stroke-linejoin="round" stroke-width="4" d="M341.735 112.961L345.759 116.902L352.667 108.942"/><path fill="#35416B" fill-rule="evenodd" d="M278.087 196.887C286.231 186.778 300.83 184.739 311.432 192.23C322.53 200.071 325.167 215.426 317.32 226.52L259.149 308.769C248.512 323.81 227.697 327.383 212.653 316.751L206.442 312.361C202.93 309.879 200.593 306.063 199.977 301.806C199.354 297.497 200.552 293.123 203.284 289.732L278.087 196.887Z" clip-rule="evenodd"/><path fill="#35416B" fill-rule="evenodd" d="M348.613 13.5804C313.536 12.8505 278.733 28.9556 256.957 59.7477C222.115 109.011 233.822 177.191 283.103 212.02C332.385 246.848 400.594 235.14 435.432 185.873C470.271 136.607 458.561 68.4401 409.276 33.6115C391.517 21.0145 370.384 14.0363 348.613 13.5804ZM347.229 46.8421C362.115 47.1523 376.565 51.923 388.708 60.5363C422.415 84.355 430.422 130.972 406.594 164.652C382.767 198.333 336.132 206.347 302.439 182.528C268.746 158.71 260.725 112.124 284.539 78.4159C291.6 68.4183 301.012 60.3096 311.946 54.8037C322.88 49.2978 335 46.5637 347.24 46.8421H347.229Z" clip-rule="evenodd"/><path fill="#6371A3" fill-rule="evenodd" d="M267.052 188.809C274.654 178.059 289.53 175.505 300.283 183.103C311.041 190.706 313.597 205.591 305.991 216.347L241.896 306.978C234.294 317.728 219.418 320.282 208.665 312.684C197.907 305.082 195.351 290.196 202.957 279.441L267.052 188.809Z" clip-rule="evenodd"/><path fill="#6371A3" fill-rule="evenodd" d="M346.856 0.0246223C311.779 -0.719063 276.958 15.3999 255.199 46.1919C220.358 95.4584 232.06 163.635 281.345 198.461C330.63 233.286 398.833 221.58 433.678 172.31C468.523 123.04 456.807 54.8774 407.522 20.0488C389.76 7.4553 368.627 0.479739 346.856 0.0246223ZM345.471 33.2829C360.362 33.5941 374.817 38.3658 386.964 46.9805C420.671 70.7958 428.678 117.416 404.85 151.096C381.023 184.777 334.388 192.791 300.695 168.976C267.002 145.161 258.968 98.5508 282.809 64.8601C289.867 54.8661 299.275 46.7592 310.203 41.253C321.132 35.7467 333.247 33.0097 345.482 33.2829H345.471Z" clip-rule="evenodd"/></svg>