<svg xmlns="http://www.w3.org/2000/svg" width="219" height="228" fill="none" viewBox="0 0 219 228"><g clip-path="url(#clip0)"><path fill="#35416B" fill-rule="evenodd" stroke="#35416B" stroke-linecap="round" stroke-linejoin="round" stroke-width="1.431" d="M167.322 0.162528H214.527C215.091 0.159746 215.649 0.26835 216.171 0.482132C216.692 0.695913 217.167 1.01068 217.567 1.40845C217.967 1.80621 218.285 2.27918 218.503 2.80032C218.721 3.32145 218.834 3.88054 218.836 4.44563V108.245C218.836 110.611 201.068 122.425 198.688 122.425L167.322 112.528C166.759 112.53 166.2 112.422 165.678 112.208C165.157 111.994 164.682 111.68 164.282 111.282C163.882 110.884 163.564 110.411 163.346 109.89C163.128 109.369 163.014 108.81 163.012 108.245L147.34 11.9959C147.34 9.63086 164.941 0.162528 167.322 0.162528Z" clip-rule="evenodd"/><path fill="#fff" fill-rule="evenodd" stroke="#fff" stroke-linecap="round" stroke-linejoin="round" stroke-width="1.431" d="M150.74 10.5688H197.944C199.082 10.5636 200.175 11.0119 200.983 11.8151C201.791 12.6183 202.249 13.7106 202.254 14.8519V118.652C202.251 119.217 202.138 119.776 201.92 120.297C201.702 120.818 201.383 121.291 200.983 121.689C200.583 122.086 200.108 122.401 199.587 122.614C199.065 122.828 198.507 122.937 197.944 122.934H150.74C150.177 122.937 149.618 122.828 149.097 122.614C148.575 122.401 148.101 122.086 147.701 121.689C147.3 121.291 146.982 120.818 146.764 120.297C146.546 119.776 146.432 119.217 146.429 118.652V14.8519C146.435 13.7106 146.892 12.6183 147.701 11.8151C148.509 11.0119 149.602 10.5636 150.74 10.5688Z" clip-rule="evenodd"/><path fill="#35416B" fill-rule="evenodd" stroke="#fff" stroke-linecap="round" stroke-linejoin="round" stroke-width="1.431" d="M152.205 14.2081H199.789C201.097 14.2081 202.155 15.1168 202.155 16.2351V24.416C202.155 25.536 201.097 26.443 199.789 26.443H152.205C150.899 26.443 149.839 25.536 149.839 24.416V16.2351C149.845 15.1168 150.899 14.2081 152.205 14.2081Z" clip-rule="evenodd"/><path fill="#35416B" fill-rule="evenodd" stroke="#fff" stroke-linecap="round" stroke-linejoin="round" stroke-width="1.431" d="M152.223 27.2378H199.807C201.115 27.2378 202.173 28.1448 202.173 29.2647V37.4457C202.173 38.564 201.115 39.4727 199.807 39.4727H152.223C150.917 39.4727 149.857 38.564 149.857 37.4457V29.2647C149.857 28.1448 150.917 27.2378 152.223 27.2378Z" clip-rule="evenodd"/><path fill="#35416B" fill-rule="evenodd" stroke="#fff" stroke-linecap="round" stroke-linejoin="round" stroke-width="1.431" d="M152.453 40.297H200.039C201.345 40.297 202.405 41.2056 202.405 42.324V50.5049C202.405 51.6249 201.345 52.5319 200.039 52.5319H152.453C151.147 52.5319 150.087 51.6249 150.087 50.5049V42.324C150.087 41.2056 151.142 40.297 152.453 40.297Z" clip-rule="evenodd"/><path fill="#35416B" fill-rule="evenodd" stroke="#fff" stroke-linecap="round" stroke-linejoin="round" stroke-width="1.431" d="M152.438 53.3315H200.023C201.329 53.3315 202.389 54.2402 202.389 55.3585V63.5394C202.389 64.6594 201.329 65.5664 200.023 65.5664H152.438C151.13 65.5664 150.072 64.6594 150.072 63.5394V55.3536C150.066 54.2353 151.124 53.3315 152.438 53.3315Z" clip-rule="evenodd"/><path fill="#35416B" fill-rule="evenodd" stroke="#fff" stroke-linecap="round" stroke-linejoin="round" stroke-width="1.431" d="M152.302 66.8732H199.887C201.193 66.8732 202.253 67.7818 202.253 68.9001V77.0811C202.253 78.201 201.193 79.108 199.887 79.108H152.302C150.994 79.108 149.936 78.201 149.936 77.0811V68.9001C149.936 67.7818 150.994 66.8732 152.302 66.8732Z" clip-rule="evenodd"/><path fill="#35416B" fill-rule="evenodd" stroke="#fff" stroke-linecap="round" stroke-linejoin="round" stroke-width="1.431" d="M152.406 80.519H199.992C201.298 80.519 202.358 81.426 202.358 82.546V90.727C202.358 91.8469 201.298 92.7539 199.992 92.7539H152.406C151.1 92.7539 150.04 91.8469 150.04 90.727V82.546C150.04 81.426 151.1 80.519 152.406 80.519Z" clip-rule="evenodd"/><path fill="#35416B" fill-rule="evenodd" stroke="#fff" stroke-linecap="round" stroke-linejoin="round" stroke-width="1.431" d="M152.228 93.8414H199.814C201.12 93.8414 202.18 94.7501 202.18 95.8684V104.046C202.18 105.166 201.12 106.073 199.814 106.073H152.228C150.921 106.073 149.862 105.166 149.862 104.046V95.8684C149.862 94.7501 150.921 93.8414 152.228 93.8414Z" clip-rule="evenodd"/><path fill="#35416B" fill-rule="evenodd" stroke="#fff" stroke-linecap="round" stroke-linejoin="round" stroke-width="1.431" d="M152.086 107.052H199.671C200.979 107.052 202.037 107.959 202.037 109.078V117.259C202.037 118.378 200.979 119.286 199.671 119.286H152.086C150.779 119.286 149.721 118.378 149.721 117.259V109.085C149.721 107.959 150.779 107.052 152.086 107.052Z" clip-rule="evenodd"/><path fill-rule="evenodd" stroke="#35416B" stroke-linecap="round" stroke-linejoin="round" stroke-width="1.431" d="M150.541 10.3297H198.49C200.909 10.3297 202.865 12.2461 202.865 14.6128V118.412C202.865 120.777 200.906 122.695 198.49 122.695H150.541C148.121 122.695 146.165 120.777 146.165 118.412V14.6128C146.162 12.2461 148.121 10.3297 150.541 10.3297Z" clip-rule="evenodd"/><path fill="#35416B" fill-rule="evenodd" stroke="#F96132" stroke-linecap="round" stroke-linejoin="round" stroke-width="1.431" d="M154.953 19.5624H190.347C190.587 19.5615 190.818 19.6564 190.989 19.8261C191.16 19.9959 191.256 20.2266 191.258 20.4678C191.256 20.7089 191.16 20.9397 190.989 21.1094C190.818 21.2792 190.587 21.374 190.347 21.3732H154.953C154.713 21.374 154.482 21.2792 154.311 21.1094C154.14 20.9397 154.044 20.7089 154.042 20.4678C154.044 20.2266 154.14 19.9959 154.311 19.8261C154.482 19.6564 154.713 19.5615 154.953 19.5624Z" clip-rule="evenodd"/><path fill="#35416B" fill-rule="evenodd" stroke="#fff" stroke-linecap="round" stroke-linejoin="round" stroke-width="1.431" d="M155.039 32.2671H190.431C190.55 32.2665 190.669 32.2894 190.779 32.3346C190.889 32.3797 190.989 32.4463 191.074 32.5304C191.158 32.6145 191.226 32.7145 191.272 32.8246C191.318 32.9348 191.342 33.053 191.342 33.1725C191.341 33.2918 191.317 33.4098 191.271 33.5198C191.225 33.6298 191.158 33.7296 191.073 33.8136C190.989 33.8975 190.889 33.9639 190.778 34.009C190.668 34.054 190.55 34.0769 190.431 34.0763H155.039C154.92 34.0769 154.802 34.054 154.692 34.009C154.582 33.9639 154.482 33.8975 154.397 33.8136C154.312 33.7296 154.245 33.6298 154.199 33.5198C154.153 33.4098 154.129 33.2918 154.128 33.1725C154.129 33.053 154.153 32.9348 154.199 32.8246C154.245 32.7145 154.312 32.6145 154.396 32.5304C154.481 32.4463 154.581 32.3797 154.692 32.3346C154.802 32.2894 154.92 32.2665 155.039 32.2671Z" clip-rule="evenodd"/><path fill="#35416B" fill-rule="evenodd" stroke="#F7A501" stroke-linecap="round" stroke-linejoin="round" stroke-width="1.431" d="M154.825 45.3098H190.219C190.459 45.309 190.69 45.4038 190.861 45.5736C191.032 45.7433 191.128 45.9741 191.13 46.2152C191.128 46.4563 191.032 46.6871 190.861 46.8568C190.69 47.0266 190.459 47.1214 190.219 47.1206H154.825C154.585 47.1214 154.354 47.0266 154.183 46.8568C154.012 46.6871 153.916 46.4563 153.914 46.2152C153.916 45.9741 154.012 45.7433 154.183 45.5736C154.354 45.4038 154.585 45.309 154.825 45.3098Z" clip-rule="evenodd"/><path fill="#35416B" fill-rule="evenodd" stroke="#0316F0" stroke-linecap="round" stroke-linejoin="round" stroke-width="1.431" d="M154.697 58.0145H190.091C190.331 58.0137 190.562 58.1085 190.733 58.2783C190.904 58.448 191 58.6788 191.002 58.9199C191.001 59.0392 190.977 59.1573 190.931 59.2673C190.885 59.3773 190.817 59.4771 190.733 59.561C190.648 59.6449 190.548 59.7113 190.438 59.7564C190.328 59.8015 190.21 59.8243 190.091 59.8237H154.697C154.578 59.8243 154.46 59.8015 154.35 59.7564C154.24 59.7113 154.14 59.6449 154.055 59.561C153.97 59.4771 153.903 59.3773 153.857 59.2673C153.811 59.1573 153.787 59.0392 153.786 58.9199C153.788 58.6788 153.884 58.448 154.055 58.2783C154.226 58.1085 154.457 58.0137 154.697 58.0145Z" clip-rule="evenodd"/><path fill="#35416B" fill-rule="evenodd" stroke="#fff" stroke-linecap="round" stroke-linejoin="round" stroke-width="1.431" d="M154.569 72.1868H189.963C190.203 72.1859 190.434 72.2808 190.605 72.4505C190.776 72.6202 190.872 72.851 190.874 73.0922C190.873 73.2115 190.849 73.3295 190.803 73.4395C190.757 73.5495 190.69 73.6493 190.605 73.7332C190.52 73.8171 190.42 73.8835 190.31 73.9286C190.2 73.9737 190.082 73.9965 189.963 73.9959H154.569C154.45 73.9965 154.332 73.9737 154.222 73.9286C154.112 73.8835 154.012 73.8171 153.927 73.7332C153.843 73.6493 153.775 73.5495 153.729 73.4395C153.683 73.3295 153.659 73.2115 153.658 73.0922C153.66 72.851 153.756 72.6202 153.927 72.4505C154.098 72.2808 154.329 72.1859 154.569 72.1868Z" clip-rule="evenodd"/><path fill="#35416B" fill-rule="evenodd" stroke="#F7A501" stroke-linecap="round" stroke-linejoin="round" stroke-width="1.431" d="M154.383 85.584H189.775C190.015 85.5844 190.245 85.6801 190.414 85.85C190.584 86.02 190.68 86.2504 190.681 86.491C190.679 86.7321 190.582 86.9627 190.411 87.1322C190.24 87.3016 190.009 87.396 189.769 87.3947H154.383C154.264 87.3954 154.146 87.3725 154.036 87.3275C153.925 87.2824 153.825 87.216 153.741 87.1321C153.656 87.0481 153.589 86.9483 153.543 86.8383C153.497 86.7283 153.473 86.6103 153.472 86.491C153.472 86.3715 153.496 86.2532 153.542 86.1429C153.588 86.0326 153.655 85.9325 153.74 85.8483C153.825 85.7641 153.925 85.6974 154.035 85.652C154.145 85.6067 154.263 85.5836 154.383 85.584Z" clip-rule="evenodd"/><path fill="#35416B" fill-rule="evenodd" stroke="#F96132" stroke-linecap="round" stroke-linejoin="round" stroke-width="1.431" d="M154.187 98.5421H189.579C189.698 98.5415 189.816 98.5644 189.926 98.6096C190.037 98.6548 190.137 98.7213 190.222 98.8054C190.306 98.8895 190.373 98.9895 190.419 99.0997C190.465 99.2098 190.489 99.3281 190.49 99.4475C190.488 99.6887 190.392 99.9194 190.221 100.089C190.05 100.259 189.819 100.354 189.579 100.353H154.187C153.946 100.354 153.715 100.259 153.545 100.089C153.374 99.9194 153.277 99.6887 153.276 99.4475C153.276 99.3281 153.3 99.2098 153.346 99.0997C153.392 98.9895 153.46 98.8895 153.544 98.8054C153.629 98.7213 153.729 98.6548 153.839 98.6096C153.949 98.5644 154.068 98.5415 154.187 98.5421Z" clip-rule="evenodd"/><path fill="#35416B" fill-rule="evenodd" stroke="#F96132" stroke-linecap="round" stroke-linejoin="round" stroke-width="1.431" d="M154.506 112.516H189.898C190.139 112.515 190.369 112.61 190.54 112.78C190.711 112.95 190.808 113.18 190.809 113.422C190.808 113.541 190.785 113.659 190.739 113.769C190.693 113.88 190.625 113.98 190.541 114.064C190.456 114.148 190.356 114.214 190.246 114.259C190.135 114.305 190.017 114.328 189.898 114.327H154.506C154.387 114.328 154.269 114.305 154.158 114.259C154.048 114.214 153.948 114.148 153.863 114.064C153.779 113.98 153.711 113.88 153.665 113.769C153.619 113.659 153.596 113.541 153.595 113.422C153.596 113.18 153.693 112.95 153.864 112.78C154.034 112.61 154.265 112.515 154.506 112.516Z" clip-rule="evenodd"/><path fill="#35416B" fill-rule="evenodd" stroke="#F96132" stroke-linecap="round" stroke-linejoin="round" stroke-width="1.431" d="M194.043 19.4699H194.217C194.347 19.4692 194.476 19.4944 194.597 19.5438C194.718 19.5933 194.828 19.6662 194.921 19.7583C195.013 19.8503 195.087 19.9598 195.137 20.0805C195.188 20.2011 195.214 20.3305 195.215 20.4614C195.213 20.7254 195.107 20.9779 194.92 21.1635C194.733 21.3491 194.48 21.4526 194.217 21.4513H194.043C193.78 21.4526 193.527 21.3491 193.34 21.1635C193.153 20.9779 193.047 20.7254 193.045 20.4614C193.046 20.3305 193.072 20.2011 193.123 20.0805C193.173 19.9598 193.247 19.8503 193.339 19.7583C193.432 19.6662 193.542 19.5933 193.663 19.5438C193.784 19.4944 193.913 19.4692 194.043 19.4699Z" clip-rule="evenodd"/><path fill="#35416B" fill-rule="evenodd" stroke="#fff" stroke-linecap="round" stroke-linejoin="round" stroke-width="1.431" d="M194.129 32.1746H194.303C194.433 32.1739 194.562 32.199 194.683 32.2484C194.803 32.2978 194.913 32.3706 195.005 32.4625C195.098 32.5544 195.171 32.6637 195.222 32.7842C195.272 32.9046 195.299 33.0338 195.299 33.1645C195.299 33.2953 195.273 33.4247 195.222 33.5453C195.172 33.6659 195.098 33.7754 195.006 33.8675C194.913 33.9596 194.804 34.0325 194.683 34.082C194.562 34.1315 194.433 34.1567 194.303 34.156H194.129C193.999 34.1567 193.87 34.1315 193.749 34.082C193.628 34.0326 193.518 33.9597 193.425 33.8676C193.333 33.7756 193.259 33.6661 193.209 33.5454C193.158 33.4248 193.132 33.2953 193.131 33.1645C193.133 32.9005 193.239 32.648 193.426 32.4624C193.613 32.2768 193.866 32.1733 194.129 32.1746Z" clip-rule="evenodd"/><path fill="#35416B" fill-rule="evenodd" stroke="#F96132" stroke-linecap="round" stroke-linejoin="round" stroke-width="1.431" d="M193.922 45.2172H194.084C194.214 45.2165 194.344 45.2417 194.464 45.2912C194.585 45.3406 194.695 45.4135 194.788 45.5056C194.88 45.5976 194.954 45.7071 195.005 45.8278C195.055 45.9484 195.081 46.0779 195.082 46.2087C195.08 46.4727 194.974 46.7252 194.787 46.9108C194.6 47.0964 194.347 47.1999 194.084 47.1986H193.922C193.659 47.1999 193.406 47.0964 193.219 46.9108C193.031 46.7252 192.925 46.4727 192.924 46.2087C192.924 46.0779 192.951 45.9484 193.001 45.8278C193.052 45.7071 193.125 45.5976 193.218 45.5056C193.311 45.4135 193.421 45.3406 193.541 45.2912C193.662 45.2417 193.791 45.2165 193.922 45.2172Z" clip-rule="evenodd"/><path fill="#35416B" fill-rule="evenodd" stroke="#0316F0" stroke-linecap="round" stroke-linejoin="round" stroke-width="1.431" d="M193.787 57.9218H193.961C194.224 57.9205 194.477 58.024 194.664 58.2096C194.851 58.3952 194.957 58.6477 194.959 58.9117C194.958 59.0425 194.932 59.172 194.882 59.2926C194.831 59.4133 194.757 59.5227 194.665 59.6148C194.572 59.7069 194.462 59.7797 194.341 59.8292C194.221 59.8787 194.091 59.9038 193.961 59.9032H193.787C193.657 59.9038 193.528 59.8787 193.407 59.8292C193.286 59.7797 193.176 59.7069 193.084 59.6148C192.991 59.5227 192.917 59.4133 192.867 59.2926C192.816 59.172 192.79 59.0425 192.789 58.9117C192.791 58.6477 192.897 58.3952 193.084 58.2096C193.271 58.024 193.524 57.9205 193.787 57.9218Z" clip-rule="evenodd"/><path fill="#35416B" fill-rule="evenodd" stroke="#0316F0" stroke-linecap="round" stroke-linejoin="round" stroke-width="1.431" d="M193.659 72.0861H193.833C194.096 72.0852 194.349 72.1891 194.536 72.3749C194.723 72.5608 194.829 72.8135 194.831 73.0776C194.83 73.2084 194.804 73.3379 194.753 73.4585C194.703 73.5792 194.629 73.6886 194.536 73.7807C194.444 73.8728 194.334 73.9457 194.213 73.9951C194.092 74.0446 193.963 74.0698 193.833 74.0691H193.659C193.529 74.0698 193.4 74.0446 193.279 73.9951C193.158 73.9456 193.049 73.8727 192.956 73.7806C192.863 73.6885 192.79 73.579 192.74 73.4584C192.689 73.3378 192.663 73.2084 192.663 73.0776C192.664 72.8136 192.77 72.5609 192.957 72.375C193.143 72.1891 193.396 72.0852 193.659 72.0861Z" clip-rule="evenodd"/><path fill="#35416B" fill-rule="evenodd" stroke="#F96132" stroke-linecap="round" stroke-linejoin="round" stroke-width="1.431" d="M193.468 85.4896H193.641C193.772 85.489 193.901 85.5141 194.022 85.5636C194.143 85.6131 194.253 85.6859 194.345 85.778C194.438 85.8701 194.512 85.9796 194.562 86.1002C194.613 86.2209 194.639 86.3503 194.64 86.4812C194.639 86.612 194.613 86.7415 194.562 86.8621C194.512 86.9827 194.438 87.0922 194.345 87.1843C194.253 87.2764 194.143 87.3492 194.022 87.3987C193.901 87.4482 193.772 87.4733 193.641 87.4727H193.468C193.338 87.4733 193.208 87.4482 193.088 87.3987C192.967 87.3492 192.857 87.2764 192.764 87.1843C192.672 87.0922 192.598 86.9827 192.547 86.8621C192.497 86.7415 192.471 86.612 192.47 86.4812C192.471 86.3503 192.497 86.2209 192.547 86.1002C192.598 85.9796 192.672 85.8701 192.764 85.778C192.857 85.6859 192.967 85.6131 193.088 85.5636C193.208 85.5141 193.338 85.489 193.468 85.4896Z" clip-rule="evenodd"/><path fill="#35416B" fill-rule="evenodd" stroke="#F96132" stroke-linecap="round" stroke-linejoin="round" stroke-width="1.431" d="M193.274 98.4495H193.447C193.577 98.4488 193.707 98.474 193.827 98.5235C193.948 98.573 194.058 98.6459 194.15 98.738C194.243 98.8301 194.316 98.9395 194.367 99.0602C194.417 99.1808 194.443 99.3102 194.444 99.441C194.442 99.705 194.337 99.9577 194.15 100.144C193.963 100.329 193.71 100.433 193.447 100.433H193.274C193.01 100.433 192.757 100.33 192.57 100.144C192.383 99.9578 192.277 99.7051 192.275 99.441C192.276 99.3102 192.302 99.1807 192.353 99.0601C192.403 98.9394 192.477 98.8299 192.57 98.7379C192.662 98.6458 192.772 98.5729 192.893 98.5235C193.014 98.474 193.143 98.4488 193.274 98.4495Z" clip-rule="evenodd"/><path fill="#35416B" fill-rule="evenodd" stroke="#F96132" stroke-linecap="round" stroke-linejoin="round" stroke-width="1.431" d="M193.598 112.424H193.771C193.901 112.423 194.031 112.448 194.151 112.498C194.272 112.547 194.382 112.62 194.474 112.712C194.567 112.804 194.64 112.914 194.691 113.034C194.741 113.155 194.767 113.284 194.768 113.415C194.767 113.546 194.741 113.675 194.691 113.796C194.64 113.917 194.567 114.026 194.474 114.118C194.382 114.21 194.272 114.283 194.151 114.333C194.031 114.382 193.901 114.407 193.771 114.407H193.598C193.467 114.407 193.338 114.382 193.217 114.333C193.096 114.283 192.987 114.21 192.894 114.118C192.801 114.026 192.727 113.917 192.677 113.796C192.626 113.675 192.6 113.546 192.599 113.415C192.6 113.284 192.626 113.155 192.677 113.034C192.727 112.914 192.801 112.804 192.894 112.712C192.987 112.62 193.096 112.547 193.217 112.498C193.338 112.448 193.467 112.423 193.598 112.424Z" clip-rule="evenodd"/><path fill="#35416B" fill-rule="evenodd" stroke="#F96132" stroke-linecap="round" stroke-linejoin="round" stroke-width="1.431" d="M197.999 19.522H198.172C198.435 19.5207 198.688 19.6242 198.876 19.8098C199.063 19.9954 199.169 20.2479 199.171 20.5119C199.17 20.6427 199.144 20.7722 199.093 20.8928C199.043 21.0135 198.969 21.123 198.876 21.215C198.783 21.3071 198.674 21.38 198.553 21.4294C198.432 21.4789 198.303 21.5041 198.172 21.5034H197.999C197.869 21.5041 197.739 21.4789 197.619 21.4294C197.498 21.3799 197.388 21.307 197.296 21.2149C197.203 21.1228 197.13 21.0133 197.079 20.8927C197.029 20.7721 197.003 20.6427 197.002 20.5119C197.003 20.3813 197.029 20.252 197.08 20.1316C197.13 20.0111 197.204 19.9018 197.296 19.8099C197.389 19.718 197.498 19.6452 197.619 19.5958C197.74 19.5464 197.869 19.5213 197.999 19.522Z" clip-rule="evenodd"/><path fill="#35416B" fill-rule="evenodd" stroke="#F96132" stroke-linecap="round" stroke-linejoin="round" stroke-width="1.431" d="M198.085 32.2232H198.258C198.389 32.2225 198.518 32.2477 198.639 32.2971C198.759 32.3466 198.869 32.4195 198.962 32.5115C199.055 32.6036 199.128 32.7131 199.179 32.8337C199.229 32.9544 199.256 33.0838 199.256 33.2147C199.256 33.3455 199.229 33.475 199.179 33.5956C199.128 33.7163 199.055 33.8258 198.962 33.9178C198.869 34.0099 198.759 34.0828 198.639 34.1323C198.518 34.1817 198.389 34.2069 198.258 34.2062H198.085C197.954 34.2069 197.825 34.1817 197.704 34.1323C197.583 34.0828 197.474 34.0099 197.381 33.9178C197.288 33.8258 197.214 33.7163 197.164 33.5956C197.113 33.475 197.087 33.3455 197.086 33.2147C197.087 33.0838 197.113 32.9544 197.164 32.8337C197.214 32.7131 197.288 32.6036 197.381 32.5115C197.474 32.4195 197.583 32.3466 197.704 32.2971C197.825 32.2477 197.954 32.2225 198.085 32.2232Z" clip-rule="evenodd"/><path fill="#35416B" fill-rule="evenodd" stroke="#F7A501" stroke-linecap="round" stroke-linejoin="round" stroke-width="1.431" d="M197.871 45.2676H198.044C198.175 45.2667 198.304 45.2917 198.425 45.341C198.545 45.3903 198.655 45.463 198.748 45.5549C198.841 45.6469 198.915 45.7563 198.965 45.8768C199.016 45.9974 199.042 46.1267 199.043 46.2575C199.042 46.3884 199.016 46.5179 198.966 46.6387C198.915 46.7594 198.841 46.869 198.749 46.9611C198.656 47.0532 198.546 47.1261 198.425 47.1755C198.304 47.2249 198.175 47.2499 198.044 47.249H197.871C197.741 47.2497 197.611 47.2245 197.491 47.175C197.37 47.1255 197.26 47.0526 197.168 46.9605C197.075 46.8684 197.002 46.7589 196.951 46.6383C196.901 46.5177 196.875 46.3883 196.874 46.2575C196.875 46.1269 196.901 45.9976 196.952 45.8772C197.002 45.7567 197.076 45.6474 197.168 45.5555C197.261 45.4636 197.37 45.3909 197.491 45.3415C197.612 45.2921 197.741 45.267 197.871 45.2676Z" clip-rule="evenodd"/><path fill="#35416B" fill-rule="evenodd" stroke="#F96132" stroke-linecap="round" stroke-linejoin="round" stroke-width="1.431" d="M197.744 57.9706H197.918C198.048 57.97 198.177 57.9951 198.298 58.0446C198.419 58.0941 198.528 58.167 198.621 58.2591C198.714 58.3512 198.787 58.4607 198.837 58.5813C198.888 58.7019 198.914 58.8314 198.914 58.9621C198.914 59.0929 198.888 59.2223 198.837 59.343C198.787 59.4636 198.714 59.5731 198.621 59.6652C198.528 59.7573 198.419 59.8301 198.298 59.8797C198.177 59.9292 198.048 59.9543 197.918 59.9537H197.744C197.614 59.9543 197.485 59.9292 197.364 59.8797C197.243 59.8302 197.133 59.7573 197.041 59.6653C196.948 59.5732 196.874 59.4637 196.824 59.3431C196.773 59.2224 196.747 59.093 196.746 58.9621C196.747 58.8313 196.773 58.7018 196.824 58.5812C196.874 58.4605 196.948 58.3511 197.041 58.259C197.133 58.1669 197.243 58.0941 197.364 58.0446C197.485 57.9951 197.614 57.97 197.744 57.9706Z" clip-rule="evenodd"/><path fill="#35416B" fill-rule="evenodd" stroke="#F7A501" stroke-linecap="round" stroke-linejoin="round" stroke-width="1.431" d="M197.617 72.1365H197.79C197.92 72.1358 198.05 72.161 198.17 72.2105C198.291 72.26 198.401 72.3329 198.493 72.425C198.586 72.5171 198.659 72.6266 198.71 72.7472C198.76 72.8679 198.786 72.9973 198.787 73.128C198.786 73.2588 198.76 73.3882 198.71 73.5089C198.659 73.6295 198.586 73.739 198.493 73.8311C198.401 73.9232 198.291 73.9961 198.17 74.0456C198.05 74.0951 197.92 74.1202 197.79 74.1196H197.617C197.486 74.1202 197.357 74.0951 197.236 74.0456C197.115 73.9961 197.005 73.9233 196.913 73.8312C196.82 73.7391 196.746 73.6296 196.696 73.509C196.645 73.3883 196.619 73.2589 196.618 73.128C196.619 72.9972 196.645 72.8677 196.696 72.7471C196.746 72.6264 196.82 72.5169 196.913 72.4249C197.005 72.3328 197.115 72.26 197.236 72.2105C197.357 72.161 197.486 72.1358 197.617 72.1365Z" clip-rule="evenodd"/><path fill="#35416B" fill-rule="evenodd" stroke="#fff" stroke-linecap="round" stroke-linejoin="round" stroke-width="1.431" d="M197.424 85.5401H197.597C197.727 85.5394 197.857 85.5645 197.978 85.614C198.098 85.6635 198.208 85.7364 198.301 85.8284C198.394 85.9205 198.467 86.03 198.518 86.1506C198.568 86.2713 198.595 86.4007 198.595 86.5316C198.595 86.6624 198.568 86.7919 198.518 86.9125C198.467 87.0332 198.394 87.1427 198.301 87.2347C198.208 87.3268 198.098 87.3997 197.978 87.4492C197.857 87.4986 197.727 87.5238 197.597 87.5231H197.424C197.293 87.5238 197.164 87.4986 197.043 87.4491C196.923 87.3996 196.813 87.3267 196.72 87.2346C196.628 87.1425 196.554 87.033 196.504 86.9124C196.454 86.7918 196.427 86.6624 196.427 86.5316C196.427 86.4008 196.454 86.2714 196.504 86.1508C196.554 86.0301 196.628 85.9206 196.72 85.8285C196.813 85.7364 196.923 85.6636 197.043 85.6141C197.164 85.5646 197.293 85.5394 197.424 85.5401Z" clip-rule="evenodd"/><path fill="#35416B" fill-rule="evenodd" stroke="#F7A501" stroke-linecap="round" stroke-linejoin="round" stroke-width="1.431" d="M197.232 98.4999H197.406C197.669 98.4986 197.922 98.6021 198.109 98.7877C198.296 98.9733 198.402 99.2258 198.404 99.4898C198.403 99.6206 198.377 99.7501 198.326 99.8707C198.276 99.9914 198.202 100.101 198.11 100.193C198.017 100.285 197.907 100.358 197.786 100.407C197.665 100.457 197.536 100.482 197.406 100.481H197.232C197.102 100.482 196.973 100.457 196.852 100.407C196.731 100.358 196.621 100.285 196.529 100.193C196.436 100.101 196.362 99.9914 196.312 99.8707C196.261 99.7501 196.235 99.6206 196.234 99.4898C196.236 99.2258 196.342 98.9733 196.529 98.7877C196.716 98.6021 196.969 98.4986 197.232 98.4999Z" clip-rule="evenodd"/><path fill="#35416B" fill-rule="evenodd" stroke="#F96132" stroke-linecap="round" stroke-linejoin="round" stroke-width="1.431" d="M197.552 112.474H197.725C197.855 112.473 197.985 112.499 198.106 112.548C198.226 112.597 198.336 112.67 198.429 112.762C198.522 112.854 198.595 112.964 198.646 113.085C198.696 113.205 198.723 113.335 198.723 113.466C198.723 113.596 198.696 113.726 198.646 113.847C198.595 113.967 198.522 114.077 198.429 114.169C198.336 114.261 198.226 114.334 198.106 114.383C197.985 114.433 197.855 114.458 197.725 114.457H197.552C197.421 114.458 197.292 114.433 197.171 114.383C197.051 114.334 196.941 114.261 196.848 114.169C196.756 114.077 196.682 113.967 196.632 113.846C196.582 113.726 196.555 113.596 196.555 113.466C196.555 113.335 196.582 113.205 196.632 113.085C196.682 112.964 196.756 112.855 196.848 112.763C196.941 112.67 197.051 112.598 197.171 112.548C197.292 112.499 197.421 112.473 197.552 112.474Z" clip-rule="evenodd"/><path fill="#35416B" fill-rule="evenodd" stroke="#fff" stroke-linecap="round" stroke-linejoin="round" stroke-width="1.431" d="M207.336 37.3434L214.155 34.0193C214.83 33.6943 215.386 34.0275 215.394 34.7768L215.535 46.537C215.518 46.9391 215.398 47.3299 215.186 47.6716C214.975 48.0134 214.678 48.2945 214.327 48.4876L207.047 52.0425C206.372 52.3676 205.835 52.0327 205.85 51.285L206.085 39.2956C206.115 38.8916 206.246 38.5015 206.464 38.1606C206.682 37.8198 206.982 37.5389 207.336 37.3434Z" clip-rule="evenodd"/><path fill="#35416B" fill-rule="evenodd" stroke="#0316F0" stroke-linecap="round" stroke-linejoin="round" stroke-width="1.431" d="M207.788 41.3113C207.82 41.3111 207.851 41.3171 207.881 41.3291C207.91 41.3411 207.937 41.3587 207.959 41.3811C207.982 41.4034 208 41.43 208.012 41.4593C208.024 41.4886 208.031 41.52 208.031 41.5519V49.6028C208.031 49.6346 208.024 49.666 208.012 49.6953C208 49.7246 207.982 49.7512 207.959 49.7735C207.937 49.7959 207.91 49.8135 207.881 49.8255C207.851 49.8375 207.82 49.8436 207.788 49.8433C207.724 49.8433 207.663 49.818 207.618 49.773C207.573 49.7279 207.547 49.6667 207.547 49.6028V41.5519C207.547 41.4879 207.573 41.4267 207.618 41.3816C207.663 41.3366 207.724 41.3113 207.788 41.3113Z" clip-rule="evenodd"/><path fill="#35416B" fill-rule="evenodd" stroke="#F7A501" stroke-linecap="round" stroke-linejoin="round" stroke-width="1.431" d="M209.802 38.8422C209.872 38.8488 209.937 38.8828 209.983 38.9369C210.028 38.9911 210.051 39.0609 210.045 39.1315V48.764C210.051 48.8344 210.028 48.9041 209.983 48.9579C209.937 49.0118 209.872 49.0455 209.802 49.0517C209.732 49.0451 209.668 49.0112 209.623 48.9574C209.578 48.9036 209.555 48.8341 209.561 48.764V39.1315C209.555 39.0612 209.578 38.9915 209.623 38.9375C209.668 38.8834 209.732 38.8492 209.802 38.8422Z" clip-rule="evenodd"/><path fill="#35416B" fill-rule="evenodd" stroke="#fff" stroke-linecap="round" stroke-linejoin="round" stroke-width="1.431" d="M211.804 41.4656C211.861 41.4595 211.919 41.4762 211.964 41.512C212.009 41.5478 212.039 41.6 212.047 41.6574V48.0714C212.039 48.1288 212.009 48.181 211.964 48.2168C211.919 48.2526 211.861 48.2693 211.804 48.2632C211.746 48.2688 211.689 48.2519 211.644 48.2162C211.599 48.1804 211.57 48.1285 211.562 48.0714V41.6541C211.571 41.5976 211.6 41.5465 211.645 41.5114C211.69 41.4763 211.747 41.4599 211.804 41.4656Z" clip-rule="evenodd"/><path fill="#35416B" fill-rule="evenodd" stroke="#F96132" stroke-linecap="round" stroke-linejoin="round" stroke-width="1.431" d="M213.777 36.7518C213.848 36.7592 213.914 36.7944 213.959 36.8498C214.005 36.9051 214.027 36.9762 214.02 37.0477V46.9289C214.027 47.0003 214.005 47.0714 213.959 47.1268C213.914 47.1821 213.848 47.2173 213.777 47.2247C213.706 47.2169 213.641 47.1816 213.596 47.1263C213.551 47.0709 213.529 47.0001 213.536 46.9289V37.0509C213.528 36.9792 213.55 36.9075 213.595 36.8515C213.64 36.7954 213.706 36.7596 213.777 36.7518Z" clip-rule="evenodd"/></g><g clip-path="url(#clip1)"><path fill="#35416B" fill-rule="evenodd" stroke="#35416B" stroke-linecap="round" stroke-linejoin="round" stroke-width="1.431" d="M108.522 23.0948H164.984C165.658 23.0915 166.326 23.2203 166.949 23.4739C167.573 23.7274 168.14 24.1007 168.619 24.5725C169.098 25.0443 169.478 25.6052 169.739 26.2233C169.999 26.8414 170.135 27.5045 170.138 28.1747V151.285C170.138 154.092 148.885 168.104 146.038 168.104L108.522 156.365C107.848 156.368 107.181 156.24 106.557 155.986C105.933 155.732 105.365 155.359 104.887 154.887C104.408 154.416 104.027 153.855 103.766 153.237C103.506 152.619 103.37 151.955 103.367 151.285L84.6225 37.1297C84.6225 34.3247 105.675 23.0948 108.522 23.0948Z" clip-rule="evenodd"/><path fill="#fff" fill-rule="evenodd" stroke="#fff" stroke-linecap="round" stroke-linejoin="round" stroke-width="1.431" d="M88.6888 35.4371H145.148C146.509 35.4309 147.817 35.9626 148.784 36.9152C149.751 37.8679 150.297 39.1634 150.304 40.517V163.629C150.301 164.299 150.165 164.962 149.904 165.58C149.643 166.198 149.262 166.759 148.784 167.23C148.305 167.702 147.737 168.075 147.114 168.328C146.49 168.582 145.822 168.711 145.148 168.707H88.6888C88.0151 168.711 87.3473 168.582 86.7236 168.328C86.0999 168.075 85.5324 167.702 85.0537 167.23C84.575 166.759 84.1943 166.198 83.9334 165.58C83.6725 164.962 83.5365 164.299 83.5332 163.629V40.517C83.5399 39.1634 84.0868 37.8679 85.0536 36.9152C86.0204 35.9626 87.328 35.4309 88.6888 35.4371Z" clip-rule="evenodd"/><path fill="#35416B" fill-rule="evenodd" stroke="#fff" stroke-linecap="round" stroke-linejoin="round" stroke-width="1.431" d="M90.4411 39.7534H147.356C148.92 39.7534 150.186 40.8311 150.186 42.1575V51.8605C150.186 53.1888 148.92 54.2645 147.356 54.2645H90.4411C88.8789 54.2645 87.6113 53.1888 87.6113 51.8605V42.1575C87.6191 40.8311 88.8789 39.7534 90.4411 39.7534Z" clip-rule="evenodd"/><path fill="#35416B" fill-rule="evenodd" stroke="#fff" stroke-linecap="round" stroke-linejoin="round" stroke-width="1.431" d="M90.4624 55.2072H147.377C148.942 55.2072 150.207 56.2829 150.207 57.6112V67.3142C150.207 68.6406 148.942 69.7183 147.377 69.7183H90.4624C88.9002 69.7183 87.6326 68.6406 87.6326 67.3142V57.6112C87.6326 56.2829 88.9002 55.2072 90.4624 55.2072Z" clip-rule="evenodd"/><path fill="#35416B" fill-rule="evenodd" stroke="#fff" stroke-linecap="round" stroke-linejoin="round" stroke-width="1.431" d="M90.7376 70.696H147.655C149.217 70.696 150.484 71.7737 150.484 73.1001V82.8031C150.484 84.1314 149.217 85.2072 147.655 85.2072H90.7376C89.1754 85.2072 87.9078 84.1314 87.9078 82.8031V73.1001C87.9078 71.7737 89.1696 70.696 90.7376 70.696Z" clip-rule="evenodd"/><path fill="#35416B" fill-rule="evenodd" stroke="#fff" stroke-linecap="round" stroke-linejoin="round" stroke-width="1.431" d="M90.7201 86.1556H147.635C149.197 86.1556 150.465 87.2333 150.465 88.5597V98.2627C150.465 99.591 149.197 100.667 147.635 100.667H90.7201C89.1559 100.667 87.8903 99.591 87.8903 98.2627V88.5539C87.8825 87.2275 89.1482 86.1556 90.7201 86.1556Z" clip-rule="evenodd"/><path fill="#35416B" fill-rule="evenodd" stroke="#fff" stroke-linecap="round" stroke-linejoin="round" stroke-width="1.431" d="M90.5573 102.217H147.472C149.035 102.217 150.302 103.294 150.302 104.621V114.324C150.302 115.652 149.035 116.728 147.472 116.728H90.5573C88.9931 116.728 87.7275 115.652 87.7275 114.324V104.621C87.7275 103.294 88.9931 102.217 90.5573 102.217Z" clip-rule="evenodd"/><path fill="#35416B" fill-rule="evenodd" stroke="#fff" stroke-linecap="round" stroke-linejoin="round" stroke-width="1.431" d="M90.6814 118.401H147.598C149.161 118.401 150.428 119.477 150.428 120.805V130.508C150.428 131.836 149.161 132.912 147.598 132.912H90.6814C89.1192 132.912 87.8516 131.836 87.8516 130.508V120.805C87.8516 119.477 89.1192 118.401 90.6814 118.401Z" clip-rule="evenodd"/><path fill="#35416B" fill-rule="evenodd" stroke="#fff" stroke-linecap="round" stroke-linejoin="round" stroke-width="1.431" d="M90.4682 134.202H147.385C148.947 134.202 150.215 135.28 150.215 136.606V146.305C150.215 147.634 148.947 148.71 147.385 148.71H90.4682C88.9061 148.71 87.6385 147.634 87.6385 146.305V136.606C87.6385 135.28 88.9061 134.202 90.4682 134.202Z" clip-rule="evenodd"/><path fill="#35416B" fill-rule="evenodd" stroke="#fff" stroke-linecap="round" stroke-linejoin="round" stroke-width="1.431" d="M90.2995 149.87H147.215C148.779 149.87 150.044 150.946 150.044 152.274V161.977C150.044 163.303 148.779 164.381 147.215 164.381H90.2995C88.7354 164.381 87.4698 163.303 87.4698 161.977V152.282C87.4698 150.946 88.7354 149.87 90.2995 149.87Z" clip-rule="evenodd"/><path fill-rule="evenodd" stroke="#35416B" stroke-linecap="round" stroke-linejoin="round" stroke-width="1.431" d="M88.4505 35.1536H145.802C148.695 35.1536 151.035 37.4265 151.035 40.2335V163.344C151.035 166.149 148.691 168.424 145.802 168.424H88.4505C85.5567 168.424 83.2173 166.149 83.2173 163.344V40.2335C83.2135 37.4265 85.5567 35.1536 88.4505 35.1536Z" clip-rule="evenodd"/><path fill="#35416B" fill-rule="evenodd" stroke="#F96132" stroke-linecap="round" stroke-linejoin="round" stroke-width="1.431" d="M93.728 46.1039H136.062C136.35 46.1029 136.626 46.2154 136.83 46.4167C137.034 46.618 137.15 46.8917 137.151 47.1777C137.15 47.4637 137.034 47.7374 136.83 47.9388C136.626 48.1401 136.35 48.2526 136.062 48.2516H93.728C93.4405 48.2526 93.1643 48.1401 92.9601 47.9388C92.7558 47.7374 92.6403 47.4637 92.6387 47.1777C92.6403 46.8917 92.7558 46.618 92.9601 46.4167C93.1643 46.2154 93.4405 46.1029 93.728 46.1039Z" clip-rule="evenodd"/><path fill="#35416B" fill-rule="evenodd" stroke="#fff" stroke-linecap="round" stroke-linejoin="round" stroke-width="1.431" d="M93.831 61.1723H136.163C136.306 61.1715 136.447 61.1987 136.579 61.2523C136.711 61.3058 136.83 61.3848 136.932 61.4845C137.033 61.5842 137.113 61.7028 137.168 61.8335C137.223 61.9642 137.252 62.1044 137.252 62.2461C137.252 62.3876 137.223 62.5276 137.168 62.6581C137.113 62.7885 137.032 62.9069 136.931 63.0064C136.83 63.106 136.71 63.1847 136.578 63.2382C136.446 63.2916 136.305 63.3188 136.163 63.318H93.831C93.6887 63.3188 93.5477 63.2916 93.416 63.2382C93.2842 63.1847 93.1643 63.106 93.0632 63.0064C92.9621 62.9069 92.8816 62.7885 92.8264 62.6581C92.7713 62.5276 92.7425 62.3876 92.7418 62.2461C92.7423 62.1044 92.7709 61.9642 92.8259 61.8335C92.8809 61.7028 92.9614 61.5842 93.0625 61.4845C93.1637 61.3848 93.2836 61.3058 93.4155 61.2523C93.5474 61.1987 93.6886 61.1715 93.831 61.1723Z" clip-rule="evenodd"/><path fill="#35416B" fill-rule="evenodd" stroke="#F7A501" stroke-linecap="round" stroke-linejoin="round" stroke-width="1.431" d="M93.575 76.6415H135.909C136.197 76.6405 136.473 76.753 136.677 76.9543C136.881 77.1556 136.997 77.4293 136.998 77.7153C136.997 78.0013 136.881 78.275 136.677 78.4763C136.473 78.6777 136.197 78.7902 135.909 78.7891H93.575C93.2875 78.7902 93.0113 78.6777 92.8071 78.4763C92.6029 78.275 92.4873 78.0013 92.4858 77.7153C92.4873 77.4293 92.6029 77.1556 92.8071 76.9543C93.0113 76.753 93.2875 76.6405 93.575 76.6415Z" clip-rule="evenodd"/><path fill="#35416B" fill-rule="evenodd" stroke="#0316F0" stroke-linecap="round" stroke-linejoin="round" stroke-width="1.431" d="M93.4219 91.7098H135.756C136.043 91.7088 136.32 91.8213 136.524 92.0226C136.728 92.224 136.844 92.4977 136.845 92.7837C136.844 92.9252 136.816 93.0652 136.76 93.1956C136.705 93.3261 136.625 93.4445 136.524 93.544C136.423 93.6436 136.303 93.7223 136.171 93.7758C136.039 93.8292 135.898 93.8563 135.756 93.8556H93.4219C93.2796 93.8563 93.1386 93.8292 93.0068 93.7758C92.8751 93.7223 92.7552 93.6436 92.6541 93.544C92.5529 93.4445 92.4725 93.3261 92.4173 93.1956C92.3622 93.0652 92.3334 92.9252 92.3326 92.7837C92.3342 92.4977 92.4497 92.224 92.6539 92.0226C92.8582 91.8213 93.1344 91.7088 93.4219 91.7098Z" clip-rule="evenodd"/><path fill="#35416B" fill-rule="evenodd" stroke="#fff" stroke-linecap="round" stroke-linejoin="round" stroke-width="1.431" d="M93.2688 108.519H135.603C135.89 108.518 136.167 108.631 136.371 108.832C136.575 109.033 136.691 109.307 136.692 109.593C136.691 109.734 136.663 109.874 136.607 110.005C136.552 110.135 136.472 110.254 136.371 110.353C136.27 110.453 136.15 110.531 136.018 110.585C135.886 110.638 135.745 110.666 135.603 110.665H93.2688C93.1265 110.666 92.9855 110.638 92.8538 110.585C92.722 110.531 92.6022 110.453 92.501 110.353C92.3999 110.254 92.3194 110.135 92.2643 110.005C92.2091 109.874 92.1803 109.734 92.1796 109.593C92.1811 109.307 92.2967 109.033 92.5009 108.832C92.7051 108.631 92.9813 108.518 93.2688 108.519Z" clip-rule="evenodd"/><path fill="#35416B" fill-rule="evenodd" stroke="#F7A501" stroke-linecap="round" stroke-linejoin="round" stroke-width="1.431" d="M93.0459 124.408H135.378C135.665 124.409 135.94 124.522 136.143 124.724C136.346 124.926 136.46 125.199 136.461 125.484C136.459 125.77 136.343 126.044 136.139 126.245C135.934 126.446 135.658 126.558 135.37 126.556H93.0459C92.9036 126.557 92.7626 126.53 92.6308 126.476C92.4991 126.423 92.3792 126.344 92.2781 126.245C92.1769 126.145 92.0965 126.027 92.0413 125.896C91.9862 125.766 91.9574 125.626 91.9566 125.484C91.9571 125.342 91.9857 125.202 92.0407 125.071C92.0957 124.941 92.1761 124.822 92.2773 124.722C92.3784 124.622 92.4984 124.543 92.6302 124.489C92.7621 124.435 92.9033 124.408 93.0459 124.408Z" clip-rule="evenodd"/><path fill="#35416B" fill-rule="evenodd" stroke="#F96132" stroke-linecap="round" stroke-linejoin="round" stroke-width="1.431" d="M92.8114 139.778H135.144C135.286 139.777 135.427 139.804 135.559 139.858C135.691 139.911 135.811 139.99 135.912 140.09C136.013 140.19 136.094 140.308 136.149 140.439C136.204 140.57 136.232 140.71 136.233 140.851C136.231 141.137 136.116 141.411 135.911 141.612C135.707 141.814 135.431 141.926 135.144 141.925H92.8114C92.5239 141.926 92.2477 141.814 92.0435 141.612C91.8392 141.411 91.7237 141.137 91.7221 140.851C91.7226 140.71 91.7512 140.57 91.8063 140.439C91.8613 140.308 91.9417 140.19 92.0429 140.09C92.1441 139.99 92.264 139.911 92.3959 139.858C92.5278 139.804 92.669 139.777 92.8114 139.778Z" clip-rule="evenodd"/><path fill="#35416B" fill-rule="evenodd" stroke="#F96132" stroke-linecap="round" stroke-linejoin="round" stroke-width="1.431" d="M93.1933 156.351H135.525C135.813 156.35 136.089 156.463 136.293 156.664C136.498 156.865 136.613 157.139 136.615 157.425C136.614 157.567 136.586 157.707 136.53 157.838C136.475 157.968 136.395 158.087 136.294 158.187C136.193 158.286 136.073 158.365 135.941 158.419C135.809 158.473 135.668 158.5 135.525 158.499H93.1933C93.0508 158.5 92.9096 158.473 92.7778 158.419C92.6459 158.365 92.5259 158.286 92.4248 158.187C92.3236 158.087 92.2432 157.968 92.1881 157.838C92.1331 157.707 92.1045 157.567 92.104 157.425C92.1055 157.139 92.2211 156.865 92.4253 156.664C92.6295 156.463 92.9057 156.35 93.1933 156.351Z" clip-rule="evenodd"/><path fill="#35416B" fill-rule="evenodd" stroke="#F96132" stroke-linecap="round" stroke-linejoin="round" stroke-width="1.431" d="M140.483 45.9942H140.691C140.847 45.9934 141.001 46.0232 141.146 46.0819C141.29 46.1406 141.421 46.227 141.532 46.3362C141.643 46.4454 141.731 46.5753 141.792 46.7183C141.852 46.8614 141.884 47.015 141.884 47.1702C141.882 47.4833 141.756 47.7827 141.532 48.0029C141.308 48.223 141.005 48.3458 140.691 48.3442H140.483C140.168 48.3458 139.866 48.223 139.642 48.0029C139.418 47.7827 139.291 47.4833 139.289 47.1702C139.29 47.015 139.321 46.8614 139.382 46.7183C139.442 46.5753 139.53 46.4454 139.641 46.3362C139.752 46.227 139.884 46.1406 140.028 46.0819C140.172 46.0232 140.327 45.9934 140.483 45.9942Z" clip-rule="evenodd"/><path fill="#35416B" fill-rule="evenodd" stroke="#fff" stroke-linecap="round" stroke-linejoin="round" stroke-width="1.431" d="M140.586 61.0626H140.793C140.949 61.0619 141.104 61.0916 141.248 61.1502C141.392 61.2088 141.523 61.2951 141.634 61.4041C141.745 61.5131 141.833 61.6428 141.893 61.7856C141.953 61.9285 141.985 62.0818 141.985 62.2367C141.985 62.3918 141.954 62.5453 141.893 62.6884C141.833 62.8315 141.745 62.9613 141.635 63.0706C141.524 63.1798 141.393 63.2662 141.248 63.3249C141.104 63.3837 140.949 63.4135 140.793 63.4127H140.586C140.43 63.4135 140.275 63.3837 140.131 63.325C139.986 63.2663 139.855 63.1799 139.744 63.0707C139.633 62.9615 139.545 62.8316 139.485 62.6885C139.424 62.5454 139.393 62.3919 139.392 62.2367C139.394 61.9236 139.521 61.6241 139.745 61.404C139.969 61.1839 140.271 61.0611 140.586 61.0626Z" clip-rule="evenodd"/><path fill="#35416B" fill-rule="evenodd" stroke="#F96132" stroke-linecap="round" stroke-linejoin="round" stroke-width="1.431" d="M140.338 76.5316H140.532C140.688 76.5309 140.842 76.5607 140.987 76.6194C141.131 76.6781 141.263 76.7645 141.373 76.8737C141.484 76.9829 141.572 77.1127 141.633 77.2558C141.693 77.3989 141.725 77.5524 141.726 77.7076C141.723 78.0207 141.597 78.3202 141.373 78.5403C141.149 78.7605 140.846 78.8832 140.532 78.8817H140.338C140.023 78.8832 139.72 78.7605 139.497 78.5403C139.273 78.3202 139.146 78.0207 139.144 77.7076C139.145 77.5524 139.176 77.3989 139.237 77.2558C139.297 77.1127 139.385 76.9829 139.496 76.8737C139.607 76.7645 139.738 76.6781 139.883 76.6194C140.027 76.5607 140.182 76.5309 140.338 76.5316Z" clip-rule="evenodd"/><path fill="#35416B" fill-rule="evenodd" stroke="#0316F0" stroke-linecap="round" stroke-linejoin="round" stroke-width="1.431" d="M140.177 91.5999H140.385C140.699 91.5983 141.002 91.7211 141.226 91.9412C141.45 92.1614 141.576 92.4609 141.578 92.7739C141.578 92.9291 141.546 93.0827 141.486 93.2258C141.425 93.3688 141.337 93.4987 141.226 93.6079C141.115 93.7171 140.984 93.8035 140.84 93.8622C140.695 93.9209 140.541 93.9507 140.385 93.9499H140.177C140.021 93.9507 139.866 93.9209 139.722 93.8622C139.578 93.8035 139.446 93.7171 139.335 93.6079C139.224 93.4987 139.136 93.3688 139.076 93.2258C139.015 93.0827 138.984 92.9291 138.983 92.7739C138.985 92.4609 139.112 92.1614 139.336 91.9412C139.56 91.7211 139.862 91.5983 140.177 91.5999Z" clip-rule="evenodd"/><path fill="#35416B" fill-rule="evenodd" stroke="#0316F0" stroke-linecap="round" stroke-linejoin="round" stroke-width="1.431" d="M140.024 108.399H140.231C140.546 108.398 140.849 108.522 141.073 108.742C141.296 108.962 141.423 109.262 141.425 109.575C141.424 109.731 141.393 109.884 141.333 110.027C141.272 110.17 141.184 110.3 141.073 110.409C140.962 110.519 140.831 110.605 140.686 110.664C140.542 110.722 140.387 110.752 140.231 110.751H140.024C139.868 110.752 139.713 110.722 139.569 110.664C139.425 110.605 139.293 110.518 139.183 110.409C139.072 110.3 138.984 110.17 138.924 110.027C138.864 109.884 138.832 109.731 138.832 109.575C138.833 109.262 138.96 108.963 139.183 108.742C139.407 108.522 139.709 108.398 140.024 108.399Z" clip-rule="evenodd"/><path fill="#35416B" fill-rule="evenodd" stroke="#F96132" stroke-linecap="round" stroke-linejoin="round" stroke-width="1.431" d="M139.795 124.297H140.003C140.159 124.296 140.313 124.326 140.458 124.384C140.602 124.443 140.734 124.529 140.844 124.639C140.955 124.748 141.043 124.878 141.104 125.021C141.164 125.164 141.196 125.317 141.197 125.473C141.196 125.628 141.164 125.781 141.104 125.924C141.043 126.068 140.955 126.197 140.844 126.307C140.734 126.416 140.602 126.502 140.458 126.561C140.313 126.62 140.159 126.649 140.003 126.649H139.795C139.639 126.649 139.485 126.62 139.34 126.561C139.196 126.502 139.064 126.416 138.953 126.307C138.843 126.197 138.754 126.068 138.694 125.924C138.634 125.781 138.602 125.628 138.601 125.473C138.602 125.317 138.634 125.164 138.694 125.021C138.754 124.878 138.843 124.748 138.953 124.639C139.064 124.529 139.196 124.443 139.34 124.384C139.485 124.326 139.639 124.296 139.795 124.297Z" clip-rule="evenodd"/><path fill="#35416B" fill-rule="evenodd" stroke="#F96132" stroke-linecap="round" stroke-linejoin="round" stroke-width="1.431" d="M139.563 139.668H139.77C139.926 139.667 140.08 139.697 140.225 139.755C140.369 139.814 140.5 139.901 140.611 140.01C140.722 140.119 140.81 140.249 140.87 140.392C140.93 140.535 140.961 140.689 140.962 140.844C140.96 141.157 140.834 141.456 140.611 141.677C140.387 141.897 140.085 142.021 139.77 142.02H139.563C139.248 142.021 138.945 141.897 138.721 141.677C138.498 141.457 138.371 141.157 138.369 140.844C138.369 140.688 138.401 140.535 138.461 140.392C138.522 140.249 138.61 140.119 138.721 140.01C138.832 139.9 138.963 139.814 139.108 139.755C139.252 139.697 139.407 139.667 139.563 139.668Z" clip-rule="evenodd"/><path fill="#35416B" fill-rule="evenodd" stroke="#F96132" stroke-linecap="round" stroke-linejoin="round" stroke-width="1.431" d="M139.95 156.241H140.158C140.313 156.241 140.468 156.271 140.612 156.329C140.757 156.388 140.888 156.474 140.999 156.584C141.109 156.693 141.197 156.823 141.258 156.966C141.318 157.109 141.349 157.262 141.35 157.417C141.349 157.573 141.318 157.726 141.258 157.869C141.197 158.012 141.109 158.142 140.999 158.251C140.888 158.361 140.757 158.447 140.612 158.506C140.468 158.564 140.313 158.594 140.158 158.594H139.95C139.794 158.594 139.639 158.564 139.495 158.506C139.351 158.447 139.219 158.361 139.108 158.251C138.997 158.142 138.909 158.012 138.849 157.869C138.788 157.726 138.757 157.573 138.756 157.417C138.757 157.262 138.788 157.109 138.849 156.966C138.909 156.823 138.997 156.693 139.108 156.584C139.219 156.474 139.351 156.388 139.495 156.329C139.639 156.271 139.794 156.241 139.95 156.241Z" clip-rule="evenodd"/><path fill="#35416B" fill-rule="evenodd" stroke="#F96132" stroke-linecap="round" stroke-linejoin="round" stroke-width="1.431" d="M145.214 46.056H145.422C145.737 46.0545 146.039 46.1773 146.263 46.3974C146.487 46.6175 146.614 46.917 146.616 47.2301C146.615 47.3853 146.583 47.5388 146.523 47.6819C146.463 47.825 146.375 47.9549 146.264 48.0641C146.153 48.1733 146.021 48.2597 145.877 48.3184C145.732 48.3771 145.578 48.4069 145.422 48.4061H145.214C145.059 48.4069 144.904 48.3771 144.76 48.3183C144.615 48.2596 144.484 48.1732 144.373 48.064C144.263 47.9547 144.175 47.8249 144.114 47.6818C144.054 47.5387 144.023 47.3852 144.022 47.2301C144.023 47.0752 144.055 46.9219 144.115 46.779C144.175 46.6362 144.263 46.5065 144.374 46.3975C144.485 46.2885 144.616 46.2022 144.76 46.1436C144.904 46.085 145.059 46.0553 145.214 46.056Z" clip-rule="evenodd"/><path fill="#35416B" fill-rule="evenodd" stroke="#F96132" stroke-linecap="round" stroke-linejoin="round" stroke-width="1.431" d="M145.317 61.1201H145.524C145.68 61.1194 145.835 61.1492 145.98 61.2079C146.124 61.2666 146.255 61.353 146.366 61.4622C146.477 61.5714 146.565 61.7012 146.626 61.8443C146.686 61.9874 146.718 62.1409 146.718 62.2961C146.718 62.4513 146.686 62.6049 146.626 62.748C146.565 62.891 146.477 63.0209 146.366 63.1301C146.255 63.2393 146.124 63.3257 145.98 63.3844C145.835 63.4431 145.68 63.4729 145.524 63.4721H145.317C145.161 63.4729 145.006 63.4431 144.862 63.3844C144.717 63.3257 144.586 63.2393 144.475 63.1301C144.364 63.0209 144.276 62.891 144.216 62.748C144.155 62.6049 144.124 62.4513 144.123 62.2961C144.124 62.1409 144.155 61.9874 144.216 61.8443C144.276 61.7012 144.364 61.5714 144.475 61.4622C144.586 61.353 144.717 61.2666 144.862 61.2079C145.006 61.1492 145.161 61.1194 145.317 61.1201Z" clip-rule="evenodd"/><path fill="#35416B" fill-rule="evenodd" stroke="#F7A501" stroke-linecap="round" stroke-linejoin="round" stroke-width="1.431" d="M145.061 76.5915H145.269C145.425 76.5904 145.579 76.62 145.724 76.6785C145.868 76.737 145.999 76.8232 146.11 76.9322C146.221 77.0413 146.309 77.171 146.37 77.314C146.43 77.457 146.462 77.6104 146.463 77.7655C146.462 77.9208 146.431 78.0744 146.37 78.2176C146.31 78.3608 146.222 78.4908 146.111 78.6C146 78.7093 145.869 78.7957 145.724 78.8543C145.58 78.9129 145.425 78.9425 145.269 78.9415H145.061C144.905 78.9423 144.751 78.9125 144.606 78.8537C144.462 78.795 144.331 78.7086 144.22 78.5994C144.109 78.4901 144.021 78.3603 143.961 78.2172C143.901 78.0741 143.87 77.9206 143.869 77.7655C143.87 77.6106 143.901 77.4573 143.962 77.3145C144.022 77.1716 144.11 77.042 144.221 76.9329C144.332 76.8239 144.463 76.7376 144.607 76.679C144.751 76.6205 144.906 76.5907 145.061 76.5915Z" clip-rule="evenodd"/><path fill="#35416B" fill-rule="evenodd" stroke="#F96132" stroke-linecap="round" stroke-linejoin="round" stroke-width="1.431" d="M144.91 91.6579H145.117C145.273 91.6571 145.428 91.6869 145.572 91.7456C145.717 91.8043 145.848 91.8908 145.959 92C146.069 92.1092 146.157 92.2391 146.217 92.3822C146.278 92.5253 146.309 92.6788 146.309 92.8339C146.309 92.989 146.278 93.1424 146.217 93.2855C146.157 93.4286 146.069 93.5585 145.959 93.6677C145.848 93.7769 145.717 93.8634 145.572 93.9221C145.428 93.9808 145.273 94.0106 145.117 94.0098H144.91C144.754 94.0106 144.599 93.9808 144.455 93.9221C144.31 93.8634 144.179 93.777 144.068 93.6678C143.957 93.5586 143.869 93.4288 143.809 93.2857C143.748 93.1426 143.717 92.989 143.716 92.8339C143.717 92.6787 143.748 92.5251 143.809 92.382C143.869 92.239 143.957 92.1091 144.068 91.9999C144.179 91.8907 144.31 91.8043 144.455 91.7456C144.599 91.6869 144.754 91.6571 144.91 91.6579Z" clip-rule="evenodd"/><path fill="#35416B" fill-rule="evenodd" stroke="#F7A501" stroke-linecap="round" stroke-linejoin="round" stroke-width="1.431" d="M144.757 108.459H144.964C145.12 108.458 145.275 108.488 145.419 108.547C145.564 108.606 145.695 108.692 145.806 108.801C145.916 108.911 146.004 109.041 146.065 109.184C146.125 109.327 146.156 109.48 146.156 109.635C146.156 109.79 146.125 109.944 146.065 110.087C146.004 110.23 145.916 110.36 145.806 110.469C145.695 110.578 145.564 110.665 145.419 110.723C145.275 110.782 145.12 110.812 144.964 110.811H144.757C144.601 110.812 144.446 110.782 144.302 110.724C144.158 110.665 144.026 110.578 143.915 110.469C143.804 110.36 143.716 110.23 143.656 110.087C143.595 109.944 143.564 109.79 143.563 109.635C143.564 109.48 143.595 109.327 143.656 109.183C143.716 109.04 143.804 108.91 143.915 108.801C144.026 108.692 144.158 108.606 144.302 108.547C144.446 108.488 144.601 108.458 144.757 108.459Z" clip-rule="evenodd"/><path fill="#35416B" fill-rule="evenodd" stroke="#fff" stroke-linecap="round" stroke-linejoin="round" stroke-width="1.431" d="M144.526 124.356H144.734C144.89 124.356 145.044 124.386 145.189 124.444C145.333 124.503 145.465 124.589 145.575 124.698C145.686 124.808 145.775 124.938 145.835 125.081C145.895 125.224 145.927 125.377 145.928 125.532C145.927 125.688 145.895 125.841 145.835 125.984C145.775 126.127 145.686 126.257 145.575 126.366C145.465 126.476 145.333 126.562 145.189 126.621C145.044 126.679 144.89 126.709 144.734 126.708H144.526C144.37 126.709 144.216 126.679 144.071 126.621C143.927 126.562 143.796 126.476 143.685 126.366C143.574 126.257 143.486 126.127 143.426 125.984C143.366 125.841 143.335 125.688 143.334 125.532C143.335 125.377 143.366 125.224 143.426 125.081C143.486 124.938 143.574 124.808 143.685 124.699C143.796 124.589 143.927 124.503 144.071 124.444C144.216 124.386 144.37 124.356 144.526 124.356Z" clip-rule="evenodd"/><path fill="#35416B" fill-rule="evenodd" stroke="#F7A501" stroke-linecap="round" stroke-linejoin="round" stroke-width="1.431" d="M144.297 139.727H144.505C144.82 139.726 145.122 139.849 145.346 140.069C145.57 140.289 145.697 140.588 145.699 140.901C145.698 141.057 145.667 141.21 145.606 141.353C145.546 141.496 145.458 141.626 145.347 141.735C145.236 141.845 145.104 141.931 144.96 141.99C144.816 142.048 144.661 142.078 144.505 142.077H144.297C144.141 142.078 143.987 142.048 143.842 141.99C143.698 141.931 143.567 141.845 143.456 141.735C143.345 141.626 143.257 141.496 143.196 141.353C143.136 141.21 143.104 141.057 143.104 140.901C143.106 140.588 143.232 140.289 143.456 140.069C143.68 139.849 143.983 139.726 144.297 139.727Z" clip-rule="evenodd"/><path fill="#35416B" fill-rule="evenodd" stroke="#F96132" stroke-linecap="round" stroke-linejoin="round" stroke-width="1.431" d="M144.679 156.301H144.887C145.043 156.301 145.197 156.33 145.342 156.389C145.486 156.448 145.618 156.534 145.729 156.643C145.84 156.753 145.928 156.883 145.988 157.026C146.049 157.169 146.08 157.322 146.081 157.477C146.08 157.633 146.049 157.786 145.988 157.929C145.928 158.072 145.84 158.202 145.729 158.311C145.618 158.421 145.486 158.507 145.342 158.566C145.197 158.624 145.043 158.654 144.887 158.653H144.679C144.523 158.654 144.369 158.624 144.225 158.566C144.08 158.507 143.949 158.421 143.838 158.311C143.728 158.202 143.64 158.072 143.579 157.929C143.519 157.786 143.488 157.633 143.487 157.477C143.488 157.322 143.519 157.169 143.579 157.026C143.64 156.883 143.728 156.753 143.838 156.644C143.949 156.534 144.08 156.448 144.225 156.389C144.369 156.33 144.523 156.301 144.679 156.301Z" clip-rule="evenodd"/><path fill="#35416B" fill-rule="evenodd" stroke="#fff" stroke-linecap="round" stroke-linejoin="round" stroke-width="1.431" d="M156.382 67.193L164.538 63.2505C165.346 62.8649 166.011 63.2601 166.021 64.1489L166.189 78.097C166.169 78.5739 166.025 79.0374 165.772 79.4427C165.519 79.8481 165.165 80.1814 164.744 80.4105L156.037 84.6268C155.229 85.0123 154.587 84.6152 154.605 83.7284L154.886 69.5084C154.922 69.0291 155.078 68.5665 155.339 68.1622C155.601 67.758 155.959 67.4249 156.382 67.193Z" clip-rule="evenodd"/><path fill="#35416B" fill-rule="evenodd" stroke="#0316F0" stroke-linecap="round" stroke-linejoin="round" stroke-width="1.431" d="M156.923 71.8991C156.961 71.8988 156.999 71.906 157.034 71.9202C157.069 71.9344 157.101 71.9553 157.128 71.9818C157.155 72.0083 157.176 72.0398 157.191 72.0746C157.206 72.1094 157.213 72.1467 157.214 72.1844V81.7331C157.213 81.7709 157.206 81.8082 157.191 81.8429C157.176 81.8777 157.155 81.9092 157.128 81.9357C157.101 81.9622 157.069 81.9831 157.034 81.9973C156.999 82.0115 156.961 82.0187 156.923 82.0185C156.847 82.0185 156.774 81.9885 156.719 81.935C156.665 81.8816 156.635 81.809 156.634 81.7331V72.1844C156.635 72.1085 156.665 72.036 156.719 71.9825C156.774 71.9291 156.847 71.8991 156.923 71.8991Z" clip-rule="evenodd"/><path fill="#35416B" fill-rule="evenodd" stroke="#F7A501" stroke-linecap="round" stroke-linejoin="round" stroke-width="1.431" d="M159.332 68.9706C159.416 68.9784 159.494 69.0188 159.548 69.083C159.602 69.1472 159.629 69.2301 159.623 69.3137V80.7383C159.629 80.8218 159.602 80.9045 159.548 80.9684C159.494 81.0323 159.416 81.0722 159.332 81.0796C159.249 81.0717 159.172 81.0316 159.117 80.9677C159.063 80.9039 159.037 80.8215 159.043 80.7383V69.3137C159.037 69.2304 159.063 69.1477 159.117 69.0836C159.171 69.0195 159.248 68.9789 159.332 68.9706Z" clip-rule="evenodd"/><path fill="#35416B" fill-rule="evenodd" stroke="#fff" stroke-linecap="round" stroke-linejoin="round" stroke-width="1.431" d="M161.726 72.082C161.795 72.0749 161.863 72.0946 161.918 72.1371C161.972 72.1796 162.007 72.2414 162.017 72.3095V79.9169C162.007 79.985 161.972 80.0468 161.918 80.0893C161.863 80.1317 161.795 80.1515 161.726 80.1444C161.657 80.151 161.589 80.1309 161.535 80.0885C161.482 80.0461 161.446 79.9846 161.437 79.9169V72.3056C161.447 72.2386 161.483 72.178 161.537 72.1364C161.59 72.0948 161.658 72.0753 161.726 72.082Z" clip-rule="evenodd"/><path fill="#35416B" fill-rule="evenodd" stroke="#F96132" stroke-linecap="round" stroke-linejoin="round" stroke-width="1.431" d="M164.086 66.4913C164.172 66.5001 164.25 66.5418 164.304 66.6075C164.359 66.6732 164.385 66.7575 164.377 66.8422V78.5618C164.385 78.6465 164.359 78.7308 164.304 78.7965C164.25 78.8622 164.172 78.9039 164.086 78.9127C164.002 78.9034 163.924 78.8615 163.87 78.7959C163.816 78.7303 163.79 78.6462 163.798 78.5618V66.8461C163.789 66.761 163.814 66.6759 163.869 66.6095C163.923 66.543 164.001 66.5006 164.086 66.4913Z" clip-rule="evenodd"/></g><g clip-path="url(#clip2)"><path fill="#35416B" fill-rule="evenodd" stroke="#35416B" stroke-linecap="round" stroke-linejoin="round" stroke-width="1.431" d="M30.9378 48.9028H99.4322C100.25 48.8987 101.06 49.0566 101.816 49.3673C102.573 49.6781 103.261 50.1356 103.842 50.7137C104.423 51.2919 104.884 51.9793 105.2 52.7368C105.516 53.4942 105.681 54.3069 105.684 55.1282V205.999C105.684 209.439 79.9027 226.61 76.4487 226.61L30.9378 212.224C30.1203 212.228 29.31 212.07 28.5532 211.76C27.7964 211.449 27.108 210.992 26.5272 210.413C25.9464 209.835 25.4846 209.148 25.1683 208.39C24.8519 207.633 24.6872 206.82 24.6835 205.999L1.94455 66.1025C1.94455 62.6649 27.4839 48.9028 30.9378 48.9028Z" clip-rule="evenodd"/><path fill="#fff" fill-rule="evenodd" stroke="#fff" stroke-linecap="round" stroke-linejoin="round" stroke-width="1.431" d="M6.87742 64.0281H75.3694C77.0203 64.0206 78.6065 64.6722 79.7794 65.8396C80.9522 67.0071 81.6157 68.5947 81.6237 70.2536V221.126C81.6197 221.948 81.4548 222.76 81.1383 223.517C80.8218 224.275 80.36 224.962 79.7793 225.54C79.1985 226.117 78.5101 226.575 77.7535 226.885C76.9968 227.196 76.1867 227.354 75.3694 227.349H6.87742C6.0601 227.354 5.24999 227.196 4.49335 226.885C3.7367 226.575 3.04834 226.117 2.46757 225.54C1.8868 224.962 1.42499 224.275 1.10851 223.517C0.792033 222.76 0.627082 221.948 0.623077 221.126V70.2536C0.631165 68.5947 1.29458 67.0071 2.46743 65.8396C3.64028 64.6722 5.22655 64.0206 6.87742 64.0281Z" clip-rule="evenodd"/><path fill="#35416B" fill-rule="evenodd" stroke="#fff" stroke-linecap="round" stroke-linejoin="round" stroke-width="1.431" d="M9.00298 69.3179H78.0475C79.945 69.3179 81.4803 70.6386 81.4803 72.264V84.1549C81.4803 85.7828 79.945 87.1011 78.0475 87.1011H9.00298C7.10787 87.1011 5.57016 85.7828 5.57016 84.1549V72.264C5.57956 70.6386 7.10787 69.3179 9.00298 69.3179Z" clip-rule="evenodd"/><path fill="#35416B" fill-rule="evenodd" stroke="#fff" stroke-linecap="round" stroke-linejoin="round" stroke-width="1.431" d="M9.02883 88.2565H78.0733C79.9708 88.2565 81.5062 89.5748 81.5062 91.2026V103.094C81.5062 104.719 79.9708 106.04 78.0733 106.04H9.02883C7.13372 106.04 5.59601 104.719 5.59601 103.094V91.2026C5.59601 89.5748 7.13372 88.2565 9.02883 88.2565Z" clip-rule="evenodd"/><path fill="#35416B" fill-rule="evenodd" stroke="#fff" stroke-linecap="round" stroke-linejoin="round" stroke-width="1.431" d="M9.36277 107.238H78.4096C80.3047 107.238 81.8424 108.558 81.8424 110.184V122.075C81.8424 123.703 80.3047 125.021 78.4096 125.021H9.36277C7.46766 125.021 5.92993 123.703 5.92993 122.075V110.184C5.92993 108.558 7.46061 107.238 9.36277 107.238Z" clip-rule="evenodd"/><path fill="#35416B" fill-rule="evenodd" stroke="#fff" stroke-linecap="round" stroke-linejoin="round" stroke-width="1.431" d="M9.34147 126.183H78.386C80.2811 126.183 81.8188 127.504 81.8188 129.129V141.02C81.8188 142.648 80.2811 143.967 78.386 143.967H9.34147C7.44401 143.967 5.90864 142.648 5.90864 141.02V129.122C5.89924 127.497 7.4346 126.183 9.34147 126.183Z" clip-rule="evenodd"/><path fill="#35416B" fill-rule="evenodd" stroke="#fff" stroke-linecap="round" stroke-linejoin="round" stroke-width="1.431" d="M9.14398 145.866H78.1885C80.0837 145.866 81.6214 147.187 81.6214 148.812V160.703C81.6214 162.331 80.0837 163.649 78.1885 163.649H9.14398C7.24651 163.649 5.71115 162.331 5.71115 160.703V148.812C5.71115 147.187 7.24651 145.866 9.14398 145.866Z" clip-rule="evenodd"/><path fill="#35416B" fill-rule="evenodd" stroke="#fff" stroke-linecap="round" stroke-linejoin="round" stroke-width="1.431" d="M9.29461 165.7H78.3415C80.2366 165.7 81.7743 167.018 81.7743 168.646V180.537C81.7743 182.165 80.2366 183.483 78.3415 183.483H9.29461C7.3995 183.483 5.86179 182.165 5.86179 180.537V168.646C5.86179 167.018 7.3995 165.7 9.29461 165.7Z" clip-rule="evenodd"/><path fill="#35416B" fill-rule="evenodd" stroke="#fff" stroke-linecap="round" stroke-linejoin="round" stroke-width="1.431" d="M9.03602 185.064H78.0829C79.978 185.064 81.5157 186.385 81.5157 188.01V199.896C81.5157 201.524 79.978 202.842 78.0829 202.842H9.03602C7.14091 202.842 5.60318 201.524 5.60318 199.896V188.01C5.60318 186.385 7.14091 185.064 9.03602 185.064Z" clip-rule="evenodd"/><path fill="#35416B" fill-rule="evenodd" stroke="#fff" stroke-linecap="round" stroke-linejoin="round" stroke-width="1.431" d="M8.83125 204.265H77.8758C79.7732 204.265 81.3086 205.583 81.3086 207.211V219.102C81.3086 220.727 79.7732 222.048 77.8758 222.048H8.83125C6.93378 222.048 5.39841 220.727 5.39841 219.102V207.22C5.39841 205.583 6.93378 204.265 8.83125 204.265Z" clip-rule="evenodd"/><path fill-rule="evenodd" stroke="#35416B" stroke-linecap="round" stroke-linejoin="round" stroke-width="1.431" d="M6.58829 63.6808H76.1618C79.6722 63.6808 82.5102 66.4663 82.5102 69.9062V220.777C82.5102 224.214 79.6675 227.002 76.1618 227.002H6.58829C3.07787 227.002 0.239905 224.214 0.239905 220.777V69.9062C0.235202 66.4663 3.07787 63.6808 6.58829 63.6808Z" clip-rule="evenodd"/><path fill="#35416B" fill-rule="evenodd" stroke="#F96132" stroke-linecap="round" stroke-linejoin="round" stroke-width="1.431" d="M12.9906 77.1004H64.3467C64.6955 77.0991 65.0305 77.237 65.2783 77.4837C65.526 77.7304 65.6662 78.0658 65.6681 78.4163C65.6662 78.7668 65.526 79.1022 65.2783 79.349C65.0305 79.5957 64.6955 79.7335 64.3467 79.7323H12.9906C12.6418 79.7335 12.3068 79.5957 12.059 79.349C11.8113 79.1022 11.6711 78.7668 11.6692 78.4163C11.6711 78.0658 11.8113 77.7304 12.059 77.4837C12.3068 77.237 12.6418 77.0991 12.9906 77.1004Z" clip-rule="evenodd"/><path fill="#35416B" fill-rule="evenodd" stroke="#fff" stroke-linecap="round" stroke-linejoin="round" stroke-width="1.431" d="M13.1154 95.5664H64.4691C64.6419 95.5655 64.8132 95.5988 64.9731 95.6645C65.1331 95.7301 65.2786 95.8268 65.4014 95.9491C65.5241 96.0713 65.6217 96.2166 65.6884 96.3768C65.7552 96.5369 65.7899 96.7088 65.7905 96.8824C65.7896 97.0558 65.7547 97.2274 65.6878 97.3873C65.6209 97.5472 65.5232 97.6922 65.4005 97.8142C65.2778 97.9362 65.1324 98.0327 64.9726 98.0982C64.8128 98.1637 64.6417 98.1969 64.4691 98.196H13.1154C12.9428 98.1969 12.7717 98.1637 12.6119 98.0982C12.452 98.0327 12.3066 97.9362 12.1839 97.8142C12.0612 97.6922 11.9636 97.5472 11.8967 97.3873C11.8298 97.2274 11.7949 97.0558 11.794 96.8824C11.7946 96.7088 11.8293 96.5369 11.8961 96.3768C11.9628 96.2166 12.0604 96.0713 12.1831 95.9491C12.3058 95.8268 12.4513 95.7301 12.6113 95.6645C12.7713 95.5988 12.9426 95.5655 13.1154 95.5664Z" clip-rule="evenodd"/><path fill="#35416B" fill-rule="evenodd" stroke="#F7A501" stroke-linecap="round" stroke-linejoin="round" stroke-width="1.431" d="M12.805 114.524H64.1611C64.5099 114.523 64.845 114.66 65.0927 114.907C65.3405 115.154 65.4807 115.489 65.4825 115.84C65.4807 116.19 65.3405 116.526 65.0927 116.772C64.845 117.019 64.5099 117.157 64.1611 117.156H12.805C12.4562 117.157 12.1212 117.019 11.8735 116.772C11.6257 116.526 11.4855 116.19 11.4836 115.84C11.4855 115.489 11.6257 115.154 11.8735 114.907C12.1212 114.66 12.4562 114.523 12.805 114.524Z" clip-rule="evenodd"/><path fill="#35416B" fill-rule="evenodd" stroke="#0316F0" stroke-linecap="round" stroke-linejoin="round" stroke-width="1.431" d="M12.6191 132.99H63.9752C64.324 132.989 64.659 133.127 64.9068 133.373C65.1545 133.62 65.2947 133.955 65.2966 134.306C65.2957 134.479 65.2607 134.651 65.1938 134.811C65.1269 134.971 65.0294 135.116 64.9066 135.238C64.7839 135.36 64.6385 135.456 64.4787 135.522C64.3189 135.587 64.1478 135.621 63.9752 135.62H12.6191C12.4465 135.621 12.2754 135.587 12.1156 135.522C11.9558 135.456 11.8104 135.36 11.6877 135.238C11.565 135.116 11.4674 134.971 11.4005 134.811C11.3336 134.651 11.2987 134.479 11.2977 134.306C11.2996 133.955 11.4398 133.62 11.6875 133.373C11.9353 133.127 12.2703 132.989 12.6191 132.99Z" clip-rule="evenodd"/><path fill="#35416B" fill-rule="evenodd" stroke="#fff" stroke-linecap="round" stroke-linejoin="round" stroke-width="1.431" d="M12.4334 153.589H63.7894C64.1382 153.588 64.4733 153.726 64.721 153.973C64.9688 154.22 65.109 154.555 65.1108 154.905C65.1099 155.079 65.075 155.25 65.0081 155.41C64.9412 155.57 64.8436 155.715 64.7209 155.837C64.5982 155.959 64.4528 156.056 64.293 156.121C64.1332 156.187 63.962 156.22 63.7894 156.219H12.4334C12.2608 156.22 12.0897 156.187 11.9299 156.121C11.7701 156.056 11.6246 155.959 11.5019 155.837C11.3792 155.715 11.2816 155.57 11.2147 155.41C11.1478 155.25 11.1129 155.079 11.112 154.905C11.1139 154.555 11.2541 154.22 11.5018 153.973C11.7495 153.726 12.0846 153.588 12.4334 153.589Z" clip-rule="evenodd"/><path fill="#35416B" fill-rule="evenodd" stroke="#F7A501" stroke-linecap="round" stroke-linejoin="round" stroke-width="1.431" d="M12.1629 173.062H63.5166C63.8646 173.063 64.1982 173.202 64.4445 173.449C64.6908 173.696 64.8297 174.031 64.831 174.38C64.8285 174.731 64.6877 175.066 64.4395 175.312C64.1913 175.558 63.856 175.696 63.5072 175.694H12.1629C11.9903 175.695 11.8192 175.662 11.6594 175.596C11.4996 175.531 11.3542 175.434 11.2315 175.312C11.1088 175.19 11.0112 175.045 10.9443 174.885C10.8774 174.725 10.8424 174.554 10.8415 174.38C10.8421 174.206 10.8768 174.035 10.9435 173.874C11.0103 173.714 11.1078 173.568 11.2305 173.446C11.3532 173.324 11.4987 173.227 11.6587 173.161C11.8187 173.095 11.99 173.061 12.1629 173.062Z" clip-rule="evenodd"/><path fill="#35416B" fill-rule="evenodd" stroke="#F96132" stroke-linecap="round" stroke-linejoin="round" stroke-width="1.431" d="M11.8785 191.897H63.2322C63.405 191.896 63.5763 191.929 63.7362 191.995C63.8962 192.06 64.0417 192.157 64.1645 192.279C64.2872 192.401 64.3847 192.547 64.4515 192.707C64.5183 192.867 64.553 193.039 64.5536 193.212C64.5517 193.563 64.4115 193.898 64.1638 194.145C63.916 194.392 63.581 194.53 63.2322 194.528H11.8785C11.5297 194.53 11.1946 194.392 10.9469 194.145C10.6991 193.898 10.5589 193.563 10.5571 193.212C10.5577 193.039 10.5924 192.867 10.6591 192.707C10.7259 192.547 10.8235 192.401 10.9462 192.279C11.0689 192.157 11.2144 192.06 11.3744 191.995C11.5344 191.929 11.7057 191.896 11.8785 191.897Z" clip-rule="evenodd"/><path fill="#35416B" fill-rule="evenodd" stroke="#F96132" stroke-linecap="round" stroke-linejoin="round" stroke-width="1.431" d="M12.3418 212.208H63.6956C64.0444 212.206 64.3794 212.344 64.6272 212.591C64.8749 212.838 65.0151 213.173 65.017 213.523C65.0163 213.697 64.9816 213.869 64.9149 214.029C64.8481 214.189 64.7506 214.335 64.6278 214.457C64.5051 214.579 64.3596 214.676 64.1996 214.741C64.0396 214.807 63.8684 214.84 63.6956 214.839H12.3418C12.169 214.84 11.9978 214.807 11.8378 214.741C11.6778 214.676 11.5323 214.579 11.4096 214.457C11.2868 214.335 11.1893 214.189 11.1225 214.029C11.0557 213.869 11.0211 213.697 11.0204 213.523C11.0223 213.173 11.1625 212.838 11.4102 212.591C11.658 212.344 11.993 212.206 12.3418 212.208Z" clip-rule="evenodd"/><path fill="#35416B" fill-rule="evenodd" stroke="#F96132" stroke-linecap="round" stroke-linejoin="round" stroke-width="1.431" d="M69.7098 76.9658H69.9614C70.1507 76.9649 70.3383 77.0014 70.5135 77.0734C70.6887 77.1453 70.8482 77.2512 70.9826 77.385C71.1171 77.5188 71.2241 77.678 71.2974 77.8533C71.3707 78.0287 71.4089 78.2168 71.4098 78.407C71.4073 78.7907 71.2534 79.1577 70.9818 79.4275C70.7103 79.6973 70.3433 79.8477 69.9614 79.8458H69.7098C69.328 79.8477 68.961 79.6973 68.6894 79.4275C68.4179 79.1577 68.2639 78.7907 68.2615 78.407C68.2624 78.2168 68.3006 78.0287 68.3739 77.8533C68.4472 77.678 68.5541 77.5188 68.6886 77.385C68.8231 77.2512 68.9825 77.1453 69.1577 77.0734C69.333 77.0014 69.5206 76.9649 69.7098 76.9658Z" clip-rule="evenodd"/><path fill="#35416B" fill-rule="evenodd" stroke="#fff" stroke-linecap="round" stroke-linejoin="round" stroke-width="1.431" d="M69.8346 95.432H70.0862C70.2751 95.4311 70.4624 95.4676 70.6374 95.5394C70.8123 95.6112 70.9715 95.7169 71.1057 95.8505C71.24 95.9841 71.3468 96.143 71.42 96.3181C71.4931 96.4931 71.5313 96.681 71.5322 96.8708C71.5316 97.0609 71.4937 97.249 71.4206 97.4244C71.3476 97.5997 71.2409 97.7589 71.1066 97.8927C70.9723 98.0266 70.813 98.1325 70.6379 98.2045C70.4628 98.2764 70.2753 98.313 70.0862 98.312H69.8346C69.6453 98.313 69.4577 98.2764 69.2825 98.2045C69.1073 98.1326 68.9478 98.0267 68.8134 97.8929C68.6789 97.759 68.5719 97.5999 68.4986 97.4245C68.4253 97.2492 68.3871 97.061 68.3862 96.8708C68.3887 96.4871 68.5426 96.1201 68.8142 95.8504C69.0857 95.5806 69.4527 95.4301 69.8346 95.432Z" clip-rule="evenodd"/><path fill="#35416B" fill-rule="evenodd" stroke="#F96132" stroke-linecap="round" stroke-linejoin="round" stroke-width="1.431" d="M69.5336 114.389H69.7687C69.958 114.388 70.1456 114.425 70.3209 114.497C70.4961 114.569 70.6555 114.675 70.79 114.808C70.9245 114.942 71.0314 115.101 71.1047 115.277C71.178 115.452 71.2162 115.64 71.2171 115.83C71.2146 116.214 71.0607 116.581 70.7891 116.851C70.5176 117.121 70.1506 117.271 69.7687 117.269H69.5336C69.1518 117.271 68.7848 117.121 68.5132 116.851C68.2417 116.581 68.0877 116.214 68.0853 115.83C68.0862 115.64 68.1244 115.452 68.1977 115.277C68.271 115.101 68.3779 114.942 68.5124 114.808C68.6469 114.675 68.8063 114.569 68.9815 114.497C69.1567 114.425 69.3443 114.388 69.5336 114.389Z" clip-rule="evenodd"/><path fill="#35416B" fill-rule="evenodd" stroke="#0316F0" stroke-linecap="round" stroke-linejoin="round" stroke-width="1.431" d="M69.3386 132.855H69.5901C69.972 132.853 70.339 133.004 70.6105 133.274C70.8821 133.543 71.036 133.91 71.0385 134.294C71.0376 134.484 70.9994 134.672 70.9261 134.848C70.8528 135.023 70.7459 135.182 70.6114 135.316C70.4769 135.45 70.3175 135.556 70.1422 135.628C69.967 135.7 69.7794 135.736 69.5901 135.735H69.3386C69.1493 135.736 68.9617 135.7 68.7864 135.628C68.6112 135.556 68.4518 135.45 68.3173 135.316C68.1828 135.182 68.0759 135.023 68.0026 134.848C67.9293 134.672 67.8911 134.484 67.8902 134.294C67.8927 133.91 68.0466 133.543 68.3181 133.274C68.5897 133.004 68.9567 132.853 69.3386 132.855Z" clip-rule="evenodd"/><path fill="#35416B" fill-rule="evenodd" stroke="#0316F0" stroke-linecap="round" stroke-linejoin="round" stroke-width="1.431" d="M69.1526 153.443H69.4042C69.7863 153.442 70.1533 153.593 70.4248 153.863C70.6962 154.133 70.8501 154.5 70.8526 154.884C70.8517 155.074 70.8135 155.262 70.7402 155.438C70.6669 155.613 70.5599 155.772 70.4254 155.906C70.2909 156.04 70.1315 156.146 69.9563 156.218C69.7811 156.29 69.5935 156.326 69.4042 156.325H69.1526C68.9635 156.326 68.776 156.29 68.6009 156.218C68.4258 156.146 68.2665 156.04 68.1322 155.906C67.9979 155.772 67.8912 155.613 67.8182 155.438C67.7451 155.262 67.7072 155.074 67.7066 154.884C67.7085 154.5 67.8618 154.133 68.1329 153.863C68.404 153.593 68.7708 153.442 69.1526 153.443Z" clip-rule="evenodd"/><path fill="#35416B" fill-rule="evenodd" stroke="#F96132" stroke-linecap="round" stroke-linejoin="round" stroke-width="1.431" d="M68.8753 172.925H69.1269C69.3162 172.924 69.5038 172.96 69.679 173.032C69.8543 173.104 70.0137 173.21 70.1482 173.344C70.2827 173.478 70.3896 173.637 70.4629 173.812C70.5362 173.988 70.5744 174.176 70.5753 174.366C70.5744 174.556 70.5362 174.744 70.4629 174.92C70.3896 175.095 70.2827 175.254 70.1482 175.388C70.0137 175.522 69.8543 175.628 69.679 175.7C69.5038 175.772 69.3162 175.808 69.1269 175.807H68.8753C68.686 175.808 68.4984 175.772 68.3232 175.7C68.148 175.628 67.9886 175.522 67.8541 175.388C67.7196 175.254 67.6127 175.095 67.5394 174.92C67.4661 174.744 67.4279 174.556 67.427 174.366C67.4279 174.176 67.4661 173.988 67.5394 173.812C67.6127 173.637 67.7196 173.478 67.8541 173.344C67.9886 173.21 68.148 173.104 68.3232 173.032C68.4984 172.96 68.686 172.924 68.8753 172.925Z" clip-rule="evenodd"/><path fill="#35416B" fill-rule="evenodd" stroke="#F96132" stroke-linecap="round" stroke-linejoin="round" stroke-width="1.431" d="M68.5931 191.762H68.8446C69.0338 191.761 69.2213 191.797 69.3964 191.869C69.5715 191.941 69.7307 192.047 69.865 192.181C69.9994 192.315 70.1061 192.474 70.1791 192.649C70.2522 192.825 70.2901 193.013 70.2907 193.203C70.2888 193.587 70.1355 193.954 69.8644 194.224C69.5932 194.494 69.2265 194.645 68.8446 194.644H68.5931C68.211 194.645 67.844 194.494 67.5725 194.224C67.301 193.954 67.1472 193.587 67.1447 193.203C67.1456 193.013 67.1838 192.825 67.2571 192.649C67.3304 192.474 67.4373 192.315 67.5718 192.181C67.7063 192.047 67.8657 191.941 68.041 191.869C68.2162 191.797 68.4038 191.761 68.5931 191.762Z" clip-rule="evenodd"/><path fill="#35416B" fill-rule="evenodd" stroke="#F96132" stroke-linecap="round" stroke-linejoin="round" stroke-width="1.431" d="M69.0633 212.073H69.3149C69.5041 212.072 69.6916 212.109 69.8667 212.181C70.0418 212.253 70.201 212.358 70.3353 212.492C70.4696 212.626 70.5764 212.785 70.6494 212.961C70.7224 213.136 70.7603 213.324 70.7609 213.514C70.7603 213.704 70.7224 213.892 70.6494 214.068C70.5764 214.243 70.4696 214.402 70.3353 214.536C70.201 214.67 70.0418 214.776 69.8667 214.848C69.6916 214.92 69.5041 214.956 69.3149 214.955H69.0633C68.8741 214.956 68.6865 214.92 68.5112 214.848C68.336 214.776 68.1766 214.67 68.0421 214.536C67.9076 214.402 67.8007 214.243 67.7274 214.068C67.6541 213.893 67.6159 213.704 67.615 213.514C67.6159 213.324 67.6541 213.136 67.7274 212.961C67.8007 212.785 67.9076 212.626 68.0421 212.492C68.1766 212.358 68.336 212.252 68.5112 212.181C68.6865 212.109 68.8741 212.072 69.0633 212.073Z" clip-rule="evenodd"/><path fill="#35416B" fill-rule="evenodd" stroke="#F96132" stroke-linecap="round" stroke-linejoin="round" stroke-width="1.431" d="M75.4494 77.0415H75.701C76.0828 77.0396 76.4498 77.1901 76.7214 77.4599C76.9929 77.7296 77.1469 78.0966 77.1494 78.4803C77.1484 78.6705 77.1102 78.8587 77.0369 79.034C76.9636 79.2094 76.8567 79.3685 76.7222 79.5023C76.5877 79.6362 76.4283 79.7421 76.2531 79.814C76.0779 79.8859 75.8903 79.9224 75.701 79.9215H75.4494C75.2602 79.9224 75.0727 79.8859 74.8976 79.8139C74.7226 79.742 74.5633 79.6361 74.429 79.5022C74.2947 79.3683 74.188 79.2092 74.115 79.0339C74.0419 78.8585 74.004 78.6704 74.0034 78.4803C74.0043 78.2905 74.0424 78.1026 74.1156 77.9275C74.1888 77.7525 74.2956 77.5936 74.4298 77.46C74.5641 77.3264 74.7233 77.2207 74.8982 77.1489C75.0731 77.0771 75.2604 77.0406 75.4494 77.0415Z" clip-rule="evenodd"/><path fill="#35416B" fill-rule="evenodd" stroke="#F96132" stroke-linecap="round" stroke-linejoin="round" stroke-width="1.431" d="M75.5739 95.5026H75.8255C76.0148 95.5016 76.2024 95.5382 76.3776 95.6101C76.5528 95.682 76.7122 95.7879 76.8467 95.9218C76.9812 96.0556 77.0881 96.2147 77.1614 96.3901C77.2347 96.5654 77.2729 96.7536 77.2739 96.9438C77.2729 97.134 77.2347 97.3221 77.1614 97.4975C77.0881 97.6728 76.9812 97.832 76.8467 97.9658C76.7122 98.0996 76.5528 98.2055 76.3776 98.2774C76.2024 98.3494 76.0148 98.3859 75.8255 98.385H75.5739C75.3846 98.3859 75.197 98.3494 75.0218 98.2774C74.8465 98.2055 74.6872 98.0996 74.5527 97.9658C74.4182 97.832 74.3112 97.6728 74.2379 97.4975C74.1646 97.3221 74.1264 97.134 74.1255 96.9438C74.1264 96.7536 74.1646 96.5654 74.2379 96.3901C74.3112 96.2147 74.4182 96.0556 74.5527 95.9218C74.6872 95.7879 74.8465 95.682 75.0218 95.6101C75.197 95.5382 75.3846 95.5016 75.5739 95.5026Z" clip-rule="evenodd"/><path fill="#35416B" fill-rule="evenodd" stroke="#F7A501" stroke-linecap="round" stroke-linejoin="round" stroke-width="1.431" d="M75.2637 114.463H75.5153C75.7045 114.461 75.892 114.498 76.0673 114.569C76.2425 114.641 76.4019 114.747 76.5364 114.88C76.6709 115.014 76.7779 115.173 76.8512 115.348C76.9246 115.523 76.9628 115.711 76.9637 115.901C76.9631 116.092 76.9251 116.28 76.8519 116.455C76.7788 116.631 76.6718 116.79 76.5373 116.924C76.4027 117.058 76.2432 117.164 76.0678 117.236C75.8924 117.307 75.7047 117.344 75.5153 117.343H75.2637C75.0746 117.343 74.8871 117.307 74.712 117.235C74.5369 117.163 74.3776 117.057 74.2433 116.923C74.109 116.789 74.0023 116.63 73.9293 116.455C73.8563 116.28 73.8183 116.091 73.8177 115.901C73.8186 115.711 73.8568 115.524 73.9299 115.349C74.0031 115.174 74.1099 115.015 74.2442 114.881C74.3784 114.747 74.5376 114.642 74.7125 114.57C74.8875 114.498 75.0748 114.462 75.2637 114.463Z" clip-rule="evenodd"/><path fill="#35416B" fill-rule="evenodd" stroke="#F96132" stroke-linecap="round" stroke-linejoin="round" stroke-width="1.431" d="M75.0802 132.926H75.3318C75.5209 132.925 75.7084 132.962 75.8835 133.034C76.0586 133.106 76.2179 133.212 76.3522 133.346C76.4865 133.479 76.5932 133.639 76.6662 133.814C76.7393 133.989 76.7772 134.177 76.7778 134.367C76.7772 134.558 76.7393 134.746 76.6662 134.921C76.5932 135.096 76.4865 135.255 76.3522 135.389C76.2179 135.523 76.0586 135.629 75.8835 135.701C75.7084 135.773 75.5209 135.81 75.3318 135.809H75.0802C74.8909 135.81 74.7033 135.773 74.528 135.701C74.3528 135.629 74.1934 135.523 74.0589 135.389C73.9244 135.256 73.8175 135.097 73.7442 134.921C73.6709 134.746 73.6327 134.558 73.6318 134.367C73.6327 134.177 73.6709 133.989 73.7442 133.814C73.8175 133.638 73.9244 133.479 74.0589 133.345C74.1934 133.212 74.3528 133.106 74.528 133.034C74.7033 132.962 74.8909 132.925 75.0802 132.926Z" clip-rule="evenodd"/><path fill="#35416B" fill-rule="evenodd" stroke="#F7A501" stroke-linecap="round" stroke-linejoin="round" stroke-width="1.431" d="M74.8946 153.516H75.1462C75.3354 153.515 75.5229 153.552 75.698 153.624C75.8731 153.696 76.0323 153.802 76.1666 153.936C76.3009 154.069 76.4077 154.229 76.4807 154.404C76.5537 154.579 76.5916 154.767 76.5922 154.957C76.5916 155.148 76.5537 155.336 76.4807 155.511C76.4077 155.686 76.3009 155.845 76.1666 155.979C76.0323 156.113 75.8731 156.219 75.698 156.291C75.5229 156.363 75.3354 156.4 75.1462 156.399H74.8946C74.7054 156.4 74.5178 156.363 74.3425 156.291C74.1673 156.219 74.0079 156.113 73.8734 155.979C73.7389 155.846 73.6319 155.687 73.5587 155.511C73.4854 155.336 73.4472 155.148 73.4463 154.957C73.4472 154.767 73.4854 154.579 73.5587 154.404C73.6319 154.228 73.7389 154.069 73.8734 153.935C74.0079 153.802 74.1673 153.696 74.3425 153.624C74.5178 153.552 74.7054 153.515 74.8946 153.516Z" clip-rule="evenodd"/><path fill="#35416B" fill-rule="evenodd" stroke="#fff" stroke-linecap="round" stroke-linejoin="round" stroke-width="1.431" d="M74.6146 172.998H74.8662C75.0555 172.997 75.2431 173.034 75.4184 173.105C75.5936 173.177 75.753 173.283 75.8875 173.417C76.022 173.551 76.1289 173.71 76.2022 173.885C76.2755 174.061 76.3137 174.249 76.3146 174.439C76.3137 174.629 76.2755 174.817 76.2022 174.993C76.1289 175.168 76.022 175.327 75.8875 175.461C75.753 175.595 75.5936 175.701 75.4184 175.773C75.2431 175.845 75.0555 175.881 74.8662 175.88H74.6146C74.4255 175.881 74.238 175.845 74.0629 175.773C73.8878 175.701 73.7285 175.595 73.5942 175.461C73.4599 175.327 73.3532 175.168 73.2802 174.993C73.2071 174.817 73.1692 174.629 73.1686 174.439C73.1692 174.249 73.2071 174.061 73.2802 173.886C73.3532 173.71 73.4599 173.551 73.5942 173.417C73.7285 173.283 73.8878 173.177 74.0629 173.106C74.238 173.034 74.4255 172.997 74.6146 172.998Z" clip-rule="evenodd"/><path fill="#35416B" fill-rule="evenodd" stroke="#F7A501" stroke-linecap="round" stroke-linejoin="round" stroke-width="1.431" d="M74.3372 191.835H74.5887C74.9706 191.833 75.3376 191.983 75.6091 192.253C75.8807 192.523 76.0346 192.89 76.0371 193.274C76.0362 193.464 75.998 193.652 75.9247 193.827C75.8514 194.003 75.7445 194.162 75.61 194.296C75.4755 194.43 75.3161 194.535 75.1408 194.607C74.9656 194.679 74.778 194.716 74.5887 194.715H74.3372C74.1479 194.716 73.9603 194.679 73.7851 194.607C73.6098 194.535 73.4504 194.43 73.3159 194.296C73.1814 194.162 73.0745 194.003 73.0012 193.827C72.9279 193.652 72.8897 193.464 72.8888 193.274C72.8913 192.89 73.0452 192.523 73.3167 192.253C73.5883 191.983 73.9553 191.833 74.3372 191.835Z" clip-rule="evenodd"/><path fill="#35416B" fill-rule="evenodd" stroke="#F96132" stroke-linecap="round" stroke-linejoin="round" stroke-width="1.431" d="M74.8004 212.146H75.0519C75.2412 212.145 75.4288 212.182 75.6041 212.254C75.7793 212.326 75.9387 212.432 76.0732 212.565C76.2077 212.699 76.3146 212.858 76.3879 213.034C76.4612 213.209 76.4994 213.397 76.5003 213.587C76.4994 213.778 76.4612 213.966 76.3879 214.141C76.3146 214.317 76.2077 214.476 76.0732 214.609C75.9387 214.743 75.7793 214.849 75.6041 214.921C75.4288 214.993 75.2412 215.03 75.0519 215.029H74.8004C74.6112 215.03 74.4237 214.993 74.2486 214.921C74.0735 214.849 73.9143 214.743 73.78 214.609C73.6457 214.475 73.5389 214.316 73.4659 214.141C73.3929 213.966 73.355 213.778 73.3543 213.587C73.355 213.397 73.3929 213.209 73.4659 213.034C73.5389 212.859 73.6457 212.699 73.78 212.566C73.9143 212.432 74.0735 212.326 74.2486 212.254C74.4237 212.182 74.6112 212.145 74.8004 212.146Z" clip-rule="evenodd"/><path fill="#35416B" fill-rule="evenodd" stroke="#fff" stroke-linecap="round" stroke-linejoin="round" stroke-width="1.431" d="M88.9972 102.945L98.8913 98.1133C99.8717 97.6408 100.678 98.1251 100.69 99.2143L100.895 116.308C100.87 116.892 100.696 117.46 100.388 117.957C100.081 118.454 99.6511 118.862 99.1405 119.143L88.5787 124.31C87.5982 124.782 86.8199 124.296 86.8411 123.209L87.182 105.782C87.2261 105.195 87.4152 104.628 87.7321 104.133C88.049 103.637 88.4838 103.229 88.9972 102.945Z" clip-rule="evenodd"/><path fill="#35416B" fill-rule="evenodd" stroke="#0316F0" stroke-linecap="round" stroke-linejoin="round" stroke-width="1.431" d="M89.6533 108.712C89.6993 108.712 89.7449 108.721 89.7875 108.738C89.8301 108.755 89.8689 108.781 89.9017 108.814C89.9344 108.846 89.9605 108.885 89.9784 108.927C89.9963 108.97 90.0056 109.016 90.0059 109.062V120.764C90.0056 120.81 89.9963 120.856 89.9784 120.898C89.9605 120.941 89.9344 120.979 89.9017 121.012C89.8689 121.044 89.8301 121.07 89.7875 121.088C89.7449 121.105 89.6993 121.114 89.6533 121.113C89.5607 121.113 89.472 121.077 89.4064 121.011C89.3407 120.946 89.3035 120.857 89.3029 120.764V109.062C89.3035 108.969 89.3407 108.88 89.4064 108.814C89.472 108.749 89.5607 108.712 89.6533 108.712Z" clip-rule="evenodd"/><path fill="#35416B" fill-rule="evenodd" stroke="#F7A501" stroke-linecap="round" stroke-linejoin="round" stroke-width="1.431" d="M92.5758 105.123C92.6777 105.133 92.7718 105.182 92.8378 105.261C92.9037 105.34 92.9363 105.441 92.9285 105.544V119.545C92.9363 119.647 92.9036 119.748 92.8376 119.826C92.7716 119.905 92.6775 119.954 92.5758 119.963C92.4745 119.953 92.381 119.904 92.3154 119.826C92.2499 119.747 92.2176 119.647 92.2254 119.545V105.544C92.2176 105.442 92.2498 105.34 92.3153 105.262C92.3808 105.183 92.4743 105.133 92.5758 105.123Z" clip-rule="evenodd"/><path fill="#35416B" fill-rule="evenodd" stroke="#fff" stroke-linecap="round" stroke-linejoin="round" stroke-width="1.431" d="M95.4796 108.936C95.563 108.928 95.6464 108.952 95.7122 109.004C95.7781 109.056 95.8212 109.132 95.8323 109.215V118.538C95.8212 118.621 95.7781 118.697 95.7122 118.749C95.6464 118.801 95.563 118.825 95.4796 118.817C95.3967 118.825 95.3139 118.8 95.2485 118.748C95.1832 118.696 95.1405 118.621 95.1293 118.538V109.21C95.1416 109.128 95.1848 109.054 95.25 109.003C95.3152 108.952 95.3974 108.928 95.4796 108.936Z" clip-rule="evenodd"/><path fill="#35416B" fill-rule="evenodd" stroke="#F96132" stroke-linecap="round" stroke-linejoin="round" stroke-width="1.431" d="M98.3434 102.085C98.4466 102.096 98.5414 102.147 98.6074 102.227C98.6734 102.308 98.7053 102.411 98.6961 102.515V116.877C98.7053 116.981 98.6734 117.084 98.6074 117.165C98.5414 117.245 98.4466 117.296 98.3434 117.307C98.2406 117.296 98.1463 117.244 98.0808 117.164C98.0153 117.084 97.9838 116.981 97.993 116.877V102.52C97.9825 102.415 98.0134 102.311 98.079 102.23C98.1447 102.148 98.2397 102.096 98.3434 102.085Z" clip-rule="evenodd"/></g><defs><clipPath id="clip0"><rect width="73" height="123.098" fill="#fff" transform="translate(146)"/></clipPath><clipPath id="clip1"><rect width="87.314" height="146" fill="#fff" transform="translate(83.0196 22.902)"/></clipPath><clipPath id="clip2"><rect width="105.922" height="178.922" fill="#fff" transform="translate(0 48.6666)"/></clipPath></defs></svg>