<svg xmlns="http://www.w3.org/2000/svg" width="119" height="119" fill="none" viewBox="0 0 119 119"><rect width="119" height="119" fill="#769FD1" rx="8"/><path fill="#232D4F" fill-rule="evenodd" d="M57.8547 56.5804L104.068 51.5249L108.837 56.5804V103.192H57.8479L57.8547 56.5804Z" clip-rule="evenodd"/><path fill="#4C5986" fill-rule="evenodd" d="M53.0894 51.5156H104.079V98.1279H53.0894V51.5156Z" clip-rule="evenodd"/><path fill="#161E3A" fill-rule="evenodd" d="M53.0835 98.1193L57.8985 103.349L108.859 103.183L104.1 98.1106L53.0835 98.1193Z" clip-rule="evenodd"/><path fill="#fff" fill-rule="evenodd" d="M58.8513 57.1583H98.8603V92.4548H58.8513V57.1583Z" clip-rule="evenodd"/><path fill="#232D4F" fill-rule="evenodd" d="M98.8846 57.1245V59.0891L61.2956 59.1306L58.7722 57.1343L98.8846 57.1245Z" clip-rule="evenodd"/><path fill="#769FD1" fill-rule="evenodd" d="M58.8196 57.1453L58.84 92.4724L61.1964 92.4888L61.3099 59.1153L58.8196 57.1453Z" clip-rule="evenodd"/><path fill="#C14F0D" fill-rule="evenodd" d="M43.3765 42.2318L82.5134 38.2361L86.8571 42.2318V82.0686H43.3765L38.9419 78.038L43.3765 42.2318Z" clip-rule="evenodd"/><path fill="#F96132" fill-rule="evenodd" d="M39.0288 38.3311H82.5094V78.168H39.0288V38.3311Z" clip-rule="evenodd"/><path fill="#C14F0D" fill-rule="evenodd" d="M27.6291 30.4719L66.7659 26.4751L71.1097 30.4708V70.3076H27.6291L23.2002 66.2781L27.6291 30.4719Z" clip-rule="evenodd"/><path fill="#DC9300" fill-rule="evenodd" d="M27.6291 30.4719L66.7659 26.4751L71.1097 30.4708V70.3076H27.6291L23.2002 66.2781L27.6291 30.4719Z" clip-rule="evenodd"/><path fill="#F7A501" fill-rule="evenodd" d="M23.2808 26.571H66.7614V66.408H23.2808V26.571Z" clip-rule="evenodd"/><path fill="#36426B" fill-rule="evenodd" d="M14.4357 17.9957L53.5715 14L57.9141 17.9957V57.8325H14.4357L10 53.8019L14.4357 17.9957Z" clip-rule="evenodd"/><path fill="#68749E" fill-rule="evenodd" d="M10.0879 14.095H53.5719V53.9319H10.0879V14.095Z" clip-rule="evenodd"/></svg>