<svg fill="none" viewBox="0 0 219 228"><g fill-rule="evenodd" stroke-linecap="round" stroke-linejoin="round" stroke-width="1.431" clip-path="url(#clip0)" clip-rule="evenodd"><path fill="#35416B" stroke="#35416B" d="M167.322.163h47.205a4.28 4.28 0 013.04 1.245 4.306 4.306 0 011.269 3.038v103.799c0 2.366-17.768 14.18-20.148 14.18l-31.366-9.897a4.294 4.294 0 01-3.04-1.246 4.311 4.311 0 01-1.27-3.037l-15.672-96.25c0-2.364 17.601-11.832 19.982-11.832z"/><path fill="#fff" stroke="#fff" d="M150.74 10.569h47.204a4.282 4.282 0 013.039 1.246 4.31 4.31 0 011.271 3.037v103.8a4.32 4.32 0 01-1.271 3.037 4.286 4.286 0 01-3.039 1.245H150.74a4.276 4.276 0 01-3.976-2.637 4.322 4.322 0 01-.335-1.645v-103.8a4.31 4.31 0 011.272-3.037 4.282 4.282 0 013.039-1.246z"/><path fill="#35416B" stroke="#fff" d="M152.205 14.208h47.584c1.308 0 2.366.909 2.366 2.027v8.181c0 1.12-1.058 2.027-2.366 2.027h-47.584c-1.306 0-2.366-.907-2.366-2.027v-8.18c.006-1.12 1.06-2.028 2.366-2.028zm.018 13.03h47.584c1.308 0 2.366.907 2.366 2.027v8.18c0 1.119-1.058 2.028-2.366 2.028h-47.584c-1.306 0-2.366-.909-2.366-2.027v-8.181c0-1.12 1.06-2.027 2.366-2.027zm.23 13.059h47.586c1.306 0 2.366.909 2.366 2.027v8.18c0 1.12-1.06 2.028-2.366 2.028h-47.586c-1.306 0-2.366-.907-2.366-2.027v-8.181c0-1.118 1.055-2.027 2.366-2.027zm-.015 13.035h47.585c1.306 0 2.366.908 2.366 2.026v8.181c0 1.12-1.06 2.027-2.366 2.027h-47.585c-1.308 0-2.366-.907-2.366-2.027v-8.185c-.006-1.119 1.052-2.023 2.366-2.023zm-.136 13.541h47.585c1.306 0 2.366.909 2.366 2.027v8.181c0 1.12-1.06 2.027-2.366 2.027h-47.585c-1.308 0-2.366-.907-2.366-2.027v-8.18c0-1.12 1.058-2.028 2.366-2.028zm.104 13.646h47.586c1.306 0 2.366.907 2.366 2.027v8.181c0 1.12-1.06 2.027-2.366 2.027h-47.586c-1.306 0-2.366-.907-2.366-2.027v-8.181c0-1.12 1.06-2.027 2.366-2.027zm-.178 13.322h47.586c1.306 0 2.366.91 2.366 2.027v8.178c0 1.12-1.06 2.027-2.366 2.027h-47.586c-1.307 0-2.366-.907-2.366-2.027v-8.178c0-1.118 1.059-2.027 2.366-2.027zm-.142 13.211h47.585c1.308 0 2.366.907 2.366 2.026v8.181c0 1.119-1.058 2.027-2.366 2.027h-47.585c-1.307 0-2.365-.908-2.365-2.027v-8.174c0-1.126 1.058-2.033 2.365-2.033z"/><path stroke="#35416B" d="M150.541 10.33h47.949c2.419 0 4.375 1.916 4.375 4.283v103.799c0 2.365-1.959 4.283-4.375 4.283h-47.949c-2.42 0-4.376-1.918-4.376-4.283v-103.8c-.003-2.366 1.956-4.282 4.376-4.282z"/><path fill="#35416B" stroke="#F96132" d="M154.953 19.562h35.394a.907.907 0 01.642 1.547.907.907 0 01-.642.264h-35.394a.907.907 0 01-.642-1.547.907.907 0 01.642-.264z"/><path fill="#35416B" stroke="#fff" d="M155.039 32.267h35.392a.906.906 0 01.84 1.253.901.901 0 01-.84.556h-35.392a.905.905 0 110-1.809z"/><path fill="#35416B" stroke="#F7A501" d="M154.825 45.31h35.394a.907.907 0 01.642 1.547.907.907 0 01-.642.264h-35.394a.907.907 0 01-.642-1.547.907.907 0 01.642-.264z"/><path fill="#35416B" stroke="#0316F0" d="M154.697 58.014h35.394a.907.907 0 01.84 1.253.916.916 0 01-.493.49.903.903 0 01-.347.067h-35.394a.903.903 0 01-.84-.557.92.92 0 01-.071-.347.914.914 0 01.911-.906z"/><path fill="#35416B" stroke="#fff" d="M154.569 72.187h35.394a.907.907 0 01.84 1.252.9.9 0 01-.493.49.903.903 0 01-.347.067h-35.394a.903.903 0 01-.84-.556.92.92 0 01-.071-.348.907.907 0 01.911-.905z"/><path fill="#35416B" stroke="#F7A501" d="M154.383 85.584h35.392a.912.912 0 01.906.907.905.905 0 01-.912.904h-35.386a.903.903 0 01-.84-.557.905.905 0 01.492-1.186.905.905 0 01.348-.068z"/><path fill="#35416B" stroke="#F96132" d="M154.187 98.542h35.392a.901.901 0 01.84.558.92.92 0 01.071.348.913.913 0 01-.911.905h-35.392a.909.909 0 01-.841-1.253.918.918 0 01.493-.49.906.906 0 01.348-.068zm.319 13.974h35.392a.91.91 0 01.911.906.919.919 0 01-.268.642.909.909 0 01-.643.263h-35.392a.909.909 0 01-.911-.905.91.91 0 01.911-.906zm39.537-93.046h.174a.991.991 0 01.92.61c.051.121.077.25.078.381a.991.991 0 01-.998.99h-.174a.991.991 0 110-1.981z"/><path fill="#35416B" stroke="#fff" d="M194.129 32.175h.174a.99.99 0 110 1.981h-.174a.99.99 0 01-.92-.61.997.997 0 01-.078-.382.991.991 0 01.998-.99z"/><path fill="#35416B" stroke="#F96132" d="M193.922 45.217h.162a.986.986 0 01.704.289c.092.092.166.201.217.322.05.12.076.25.077.38a.991.991 0 01-.998.99h-.162a.991.991 0 110-1.98z"/><path fill="#35416B" stroke="#0316F0" d="M193.787 57.922h.174a.991.991 0 110 1.981h-.174a.991.991 0 01-.92-.61.997.997 0 01-.078-.381.991.991 0 01.998-.99zm-.128 14.164h.174a.993.993 0 01.38 1.91.99.99 0 01-.38.073h-.174a.99.99 0 01-.702-1.694.989.989 0 01.702-.289z"/><path fill="#35416B" stroke="#F96132" d="M193.468 85.49h.173a.992.992 0 110 1.983h-.173a.987.987 0 01-.704-.289 1.017 1.017 0 01-.217-.322c-.05-.12-.076-.25-.077-.38.001-.132.027-.261.077-.382a.997.997 0 01.921-.61zm-.194 12.96h.173a.986.986 0 01.703.288 1 1 0 01.294.703 1.002 1.002 0 01-.294.703 1 1 0 01-.703.289h-.173a.997.997 0 01-.999-.992.997.997 0 01.999-.992zm.324 13.974h.173c.13-.001.26.024.38.074a1.005 1.005 0 01.617.917.994.994 0 01-.997.992h-.173a1.004 1.004 0 01-.999-.992.998.998 0 01.999-.991zm4.401-92.902h.173a.995.995 0 01.999.99.997.997 0 01-.999.991h-.173a.986.986 0 01-.703-.288 1 1 0 01-.294-.703.994.994 0 01.997-.99zm.086 12.701h.173a.992.992 0 110 1.983h-.173a.992.992 0 110-1.983z"/><path fill="#35416B" stroke="#F7A501" d="M197.871 45.268h.173a.99.99 0 110 1.981h-.173a.986.986 0 01-.703-.288 1 1 0 01-.294-.703.994.994 0 01.997-.99z"/><path fill="#35416B" stroke="#F96132" d="M197.744 57.97h.174a.991.991 0 110 1.984h-.174a.991.991 0 01-.92-.61.998.998 0 01-.078-.382.997.997 0 01.998-.991z"/><path fill="#35416B" stroke="#F7A501" d="M197.617 72.136h.173a.986.986 0 01.703.289 1 1 0 01.294.703 1 1 0 01-.617.918.987.987 0 01-.38.074h-.173a.992.992 0 110-1.984z"/><path fill="#35416B" stroke="#fff" d="M197.424 85.54h.173a.994.994 0 01.998.992.996.996 0 01-.998.991h-.173a.99.99 0 110-1.983z"/><path fill="#35416B" stroke="#F7A501" d="M197.232 98.5h.174a.991.991 0 110 1.981h-.174a.975.975 0 01-.38-.074.983.983 0 01-.54-.536.997.997 0 01-.078-.381.991.991 0 01.998-.99z"/><path fill="#35416B" stroke="#F96132" d="M197.552 112.474h.173a.998.998 0 01.704.288.999.999 0 01.294.704 1.001 1.001 0 01-.294.703.995.995 0 01-.704.288h-.173a.995.995 0 01-.997-.991.993.993 0 01.997-.992z"/><path fill="#35416B" stroke="#fff" d="M207.336 37.343l6.819-3.324c.675-.325 1.231.009 1.239.758l.141 11.76a2.34 2.34 0 01-1.208 1.95l-7.28 3.555c-.675.326-1.212-.01-1.197-.757l.235-11.99a2.444 2.444 0 011.251-1.952z"/><path fill="#35416B" stroke="#0316F0" d="M207.788 41.311a.244.244 0 01.171.07.245.245 0 01.072.17v8.052a.245.245 0 01-.15.222.242.242 0 01-.334-.222v-8.051a.242.242 0 01.241-.24z"/><path fill="#35416B" stroke="#F7A501" d="M209.802 38.842a.27.27 0 01.243.29v9.632a.268.268 0 01-.243.288.267.267 0 01-.241-.288v-9.633a.268.268 0 01.241-.289z"/><path fill="#35416B" stroke="#fff" d="M211.804 41.466a.22.22 0 01.16.046.226.226 0 01.083.145v6.414a.226.226 0 01-.083.146.22.22 0 01-.16.046.222.222 0 01-.242-.192v-6.417a.223.223 0 01.242-.188z"/><path fill="#35416B" stroke="#F96132" d="M213.777 36.752a.271.271 0 01.243.296v9.88a.271.271 0 01-.243.296.271.271 0 01-.241-.295V37.05a.271.271 0 01.241-.3z"/></g><g fill-rule="evenodd" stroke-linecap="round" stroke-linejoin="round" stroke-width="1.431" clip-path="url(#clip1)" clip-rule="evenodd"><path fill="#35416B" stroke="#35416B" d="M108.522 23.095h56.462a5.146 5.146 0 013.635 1.478 5.102 5.102 0 011.519 3.602v123.11c0 2.807-21.253 16.819-24.1 16.819l-37.516-11.739a5.148 5.148 0 01-3.635-1.478 5.094 5.094 0 01-1.52-3.602L84.622 37.13c0-2.805 21.053-14.035 23.9-14.035z"/><path fill="#fff" stroke="#fff" d="M88.689 35.437h56.459a5.148 5.148 0 013.636 1.478 5.092 5.092 0 011.52 3.602v123.112a5.073 5.073 0 01-.4 1.951 5.107 5.107 0 01-2.79 2.748 5.134 5.134 0 01-1.966.379h-56.46a5.13 5.13 0 01-3.634-1.477 5.095 5.095 0 01-1.52-3.601V40.517a5.092 5.092 0 011.52-3.602 5.146 5.146 0 013.635-1.478z"/><path fill="#35416B" stroke="#fff" d="M90.441 39.753h56.915c1.564 0 2.83 1.078 2.83 2.404v9.704c0 1.328-1.266 2.404-2.83 2.404H90.441c-1.562 0-2.83-1.076-2.83-2.404v-9.703c.008-1.327 1.268-2.405 2.83-2.405zm.021 15.454h56.915c1.565 0 2.83 1.076 2.83 2.404v9.703c0 1.327-1.265 2.404-2.83 2.404H90.462c-1.562 0-2.83-1.077-2.83-2.404v-9.703c0-1.328 1.268-2.404 2.83-2.404zm.276 15.489h56.917c1.562 0 2.829 1.078 2.829 2.404v9.703c0 1.328-1.267 2.404-2.829 2.404H90.738c-1.563 0-2.83-1.076-2.83-2.404V73.1c0-1.326 1.262-2.404 2.83-2.404zm-.018 15.46h56.915c1.562 0 2.83 1.077 2.83 2.404v9.703c0 1.328-1.268 2.404-2.83 2.404H90.72c-1.564 0-2.83-1.076-2.83-2.404v-9.71c-.008-1.325 1.258-2.397 2.83-2.397zm-.163 16.061h56.915c1.563 0 2.83 1.077 2.83 2.404v9.703c0 1.328-1.267 2.404-2.83 2.404H90.557c-1.564 0-2.83-1.076-2.83-2.404v-9.703c0-1.327 1.266-2.404 2.83-2.404zm.124 16.184h56.917c1.563 0 2.83 1.076 2.83 2.404v9.703c0 1.328-1.267 2.404-2.83 2.404H90.681c-1.562 0-2.83-1.076-2.83-2.404v-9.703c0-1.328 1.268-2.404 2.83-2.404zm-.213 15.801h56.917c1.562 0 2.83 1.078 2.83 2.404v9.699c0 1.329-1.268 2.405-2.83 2.405H90.468c-1.562 0-2.83-1.076-2.83-2.405v-9.699c0-1.326 1.268-2.404 2.83-2.404zM90.3 149.87h56.916c1.564 0 2.829 1.076 2.829 2.404v9.703c0 1.326-1.265 2.404-2.829 2.404H90.299c-1.564 0-2.83-1.078-2.83-2.404v-9.695c0-1.336 1.266-2.412 2.83-2.412z"/><path stroke="#35416B" d="M88.45 35.154h57.352c2.893 0 5.233 2.272 5.233 5.08v123.11c0 2.805-2.344 5.08-5.233 5.08H88.451c-2.894 0-5.234-2.275-5.234-5.08V40.234c-.004-2.808 2.34-5.08 5.234-5.08z"/><path fill="#35416B" stroke="#F96132" d="M93.728 46.104h42.334a1.085 1.085 0 011.089 1.073c-.001.287-.117.56-.321.762-.204.201-.48.314-.768.313H93.728a1.089 1.089 0 01-.768-.313 1.077 1.077 0 01-.321-.761 1.085 1.085 0 011.089-1.074z"/><path fill="#35416B" stroke="#fff" d="M93.831 61.172h42.332a1.088 1.088 0 011.005.662 1.064 1.064 0 01-.59 1.404 1.09 1.09 0 01-.415.08H93.831a1.088 1.088 0 01-1.005-.66 1.073 1.073 0 01-.084-.412 1.073 1.073 0 01.673-.994 1.12 1.12 0 01.416-.08z"/><path fill="#35416B" stroke="#F7A501" d="M93.575 76.641h42.334c.288 0 .564.112.768.313.204.202.32.475.321.761a1.085 1.085 0 01-1.089 1.074H93.575a1.088 1.088 0 01-.768-.313 1.077 1.077 0 01-.321-.76c.001-.287.117-.56.321-.762.204-.201.48-.313.768-.313z"/><path fill="#35416B" stroke="#0316F0" d="M93.422 91.71h42.334a1.09 1.09 0 01.768.313c.204.201.32.475.321.76a1.075 1.075 0 01-1.089 1.072H93.422a1.091 1.091 0 01-.768-.311 1.077 1.077 0 01-.321-.76 1.078 1.078 0 011.089-1.074z"/><path fill="#35416B" stroke="#fff" d="M93.269 108.519h42.334a1.09 1.09 0 01.768.313c.204.201.32.475.321.761a1.066 1.066 0 01-.321.76 1.083 1.083 0 01-.768.312H93.269a1.092 1.092 0 01-.768-.312 1.075 1.075 0 01-.321-.76c.001-.286.117-.56.32-.761a1.09 1.09 0 01.769-.313z"/><path fill="#35416B" stroke="#F7A501" d="M93.046 124.408h42.332c.287.001.562.114.765.316.203.202.317.475.318.76a1.08 1.08 0 01-1.091 1.072H93.046a1.083 1.083 0 01-1.005-.66 1.071 1.071 0 01-.084-.412 1.075 1.075 0 01.673-.995c.132-.054.273-.081.416-.081z"/><path fill="#35416B" stroke="#F96132" d="M92.811 139.778h42.333a1.076 1.076 0 01.768.312 1.08 1.08 0 01.321.761 1.084 1.084 0 01-1.089 1.074H92.811a1.086 1.086 0 01-1.089-1.074 1.073 1.073 0 01.674-.993c.132-.054.273-.081.415-.08zm.382 16.573h42.332c.288-.001.564.112.768.313.205.201.32.475.322.761a1.067 1.067 0 01-.321.762 1.099 1.099 0 01-.769.312H93.193a1.076 1.076 0 01-.768-.312 1.088 1.088 0 01-.321-.762c.002-.286.117-.56.321-.761a1.09 1.09 0 01.768-.313zm47.29-110.357h.208a1.194 1.194 0 011.101.724c.06.143.092.297.092.452a1.177 1.177 0 01-.352.833 1.19 1.19 0 01-.841.341h-.208a1.19 1.19 0 01-.841-.341 1.178 1.178 0 01-.353-.833 1.17 1.17 0 01.352-.834 1.196 1.196 0 01.842-.342z"/><path fill="#35416B" stroke="#fff" d="M140.586 61.063h.207a1.194 1.194 0 01.841.341 1.17 1.17 0 01-.386 1.92 1.189 1.189 0 01-.455.089h-.207a1.19 1.19 0 01-1.101-.724 1.17 1.17 0 01-.093-.452c.002-.313.129-.613.353-.833a1.19 1.19 0 01.841-.341z"/><path fill="#35416B" stroke="#F96132" d="M140.338 76.532h.194a1.196 1.196 0 01.841.342 1.19 1.19 0 01.353.834 1.182 1.182 0 01-1.194 1.174h-.194a1.19 1.19 0 01-1.194-1.174 1.17 1.17 0 01.352-.834 1.186 1.186 0 01.842-.342z"/><path fill="#35416B" stroke="#0316F0" d="M140.177 91.6h.208a1.19 1.19 0 01.841.341c.224.22.35.52.352.833a1.17 1.17 0 01-.352.834 1.192 1.192 0 01-.841.342h-.208a1.19 1.19 0 01-1.101-.724 1.17 1.17 0 01-.093-.452c.002-.313.129-.613.353-.833a1.19 1.19 0 01.841-.341zm-.153 16.799h.207c.315-.001.618.123.842.343.223.22.35.52.352.833a1.185 1.185 0 01-.352.834 1.18 1.18 0 01-.842.342h-.207a1.191 1.191 0 01-1.1-.724 1.167 1.167 0 01-.092-.452c.001-.313.128-.612.351-.833.224-.22.526-.344.841-.343z"/><path fill="#35416B" stroke="#F96132" d="M139.795 124.297h.208a1.175 1.175 0 01.841.342 1.188 1.188 0 01.353.834 1.185 1.185 0 01-1.194 1.176h-.208a1.204 1.204 0 01-.842-.342 1.19 1.19 0 01-.352-.834 1.186 1.186 0 011.194-1.176zm-.232 15.371h.207c.156-.001.31.029.455.087a1.202 1.202 0 01.645.637c.06.143.091.297.092.452a1.183 1.183 0 01-1.192 1.176h-.207a1.198 1.198 0 01-.842-.343c-.223-.22-.35-.52-.352-.833a1.167 1.167 0 01.352-.834 1.18 1.18 0 01.842-.342zm.387 16.573h.208a1.18 1.18 0 011.192 1.176 1.185 1.185 0 01-.351.834 1.18 1.18 0 01-.841.343h-.208a1.19 1.19 0 01-1.194-1.177 1.167 1.167 0 01.352-.833 1.19 1.19 0 01.842-.343zm5.264-110.185h.208a1.19 1.19 0 01.841.341c.224.22.351.52.353.833a1.189 1.189 0 01-.352.834 1.196 1.196 0 01-.842.342h-.208a1.187 1.187 0 01-1.192-1.176 1.186 1.186 0 011.192-1.174zm.103 15.064h.207a1.201 1.201 0 01.842.342 1.17 1.17 0 01.26 1.286 1.191 1.191 0 01-1.102.724h-.207a1.19 1.19 0 01-1.101-.724 1.17 1.17 0 01-.093-.452 1.17 1.17 0 01.352-.834 1.186 1.186 0 01.842-.342z"/><path fill="#35416B" stroke="#F7A501" d="M145.061 76.591h.208a1.192 1.192 0 011.101.723c.06.143.092.296.093.452a1.172 1.172 0 01-.352.834 1.182 1.182 0 01-.842.342h-.208a1.192 1.192 0 01-1.1-.725 1.188 1.188 0 01-.092-.451 1.166 1.166 0 01.352-.833 1.192 1.192 0 01.84-.342z"/><path fill="#35416B" stroke="#F96132" d="M144.91 91.658h.207a1.19 1.19 0 011.1.724 1.151 1.151 0 010 .903 1.185 1.185 0 01-1.1.725h-.207a1.19 1.19 0 01-1.101-.724 1.17 1.17 0 01-.093-.452 1.17 1.17 0 01.352-.834 1.186 1.186 0 01.842-.342z"/><path fill="#35416B" stroke="#F7A501" d="M144.757 108.459h.207a1.181 1.181 0 01.842.342 1.165 1.165 0 010 1.668 1.181 1.181 0 01-.842.342h-.207a1.2 1.2 0 01-.842-.342 1.17 1.17 0 01.387-1.922c.144-.059.299-.089.455-.088z"/><path fill="#35416B" stroke="#fff" d="M144.526 124.356h.208a1.189 1.189 0 011.194 1.176 1.186 1.186 0 01-1.194 1.176h-.208a1.186 1.186 0 01-1.192-1.176 1.184 1.184 0 011.192-1.176z"/><path fill="#35416B" stroke="#F7A501" d="M144.297 139.727h.208c.315-.001.617.122.841.342.224.22.351.519.353.832a1.168 1.168 0 01-.352.834 1.19 1.19 0 01-.842.342h-.208a1.186 1.186 0 01-1.193-1.176c.002-.313.128-.612.352-.832.224-.22.527-.343.841-.342z"/><path fill="#35416B" stroke="#F96132" d="M144.679 156.301h.208a1.204 1.204 0 01.842.342 1.185 1.185 0 01.352.834 1.168 1.168 0 01-.352.834 1.19 1.19 0 01-.842.342h-.208a1.194 1.194 0 01-.841-.342 1.185 1.185 0 01-.351-.834 1.184 1.184 0 011.192-1.176z"/><path fill="#35416B" stroke="#fff" d="M156.382 67.193l8.156-3.942c.808-.386 1.473.01 1.483.898l.168 13.948a2.76 2.76 0 01-1.445 2.314l-8.707 4.216c-.808.385-1.45-.012-1.432-.899l.281-14.22a2.88 2.88 0 011.496-2.315z"/><path fill="#35416B" stroke="#0316F0" d="M156.923 71.9a.29.29 0 01.268.175.296.296 0 01.023.11v9.548a.295.295 0 01-.086.203.29.29 0 01-.205.082.289.289 0 01-.289-.285v-9.549a.289.289 0 01.289-.285z"/><path fill="#35416B" stroke="#F7A501" d="M159.332 68.97a.321.321 0 01.291.344v11.424a.321.321 0 01-.291.342.319.319 0 01-.289-.341V69.313a.32.32 0 01.289-.343z"/><path fill="#35416B" stroke="#fff" d="M161.726 72.082a.268.268 0 01.192.055.268.268 0 01.099.172v7.608a.268.268 0 01-.099.172.268.268 0 01-.192.055.267.267 0 01-.289-.227v-7.611a.264.264 0 01.289-.224z"/><path fill="#35416B" stroke="#F96132" d="M164.086 66.491a.324.324 0 01.291.351v11.72a.324.324 0 01-.291.35.327.327 0 01-.216-.116.32.32 0 01-.072-.234V66.846a.325.325 0 01.288-.355z"/></g><g fill-rule="evenodd" stroke-linecap="round" stroke-linejoin="round" stroke-width="1.431" clip-path="url(#clip2)" clip-rule="evenodd"><path fill="#35416B" stroke="#35416B" d="M30.938 48.903h68.494a6.223 6.223 0 015.768 3.834 6.27 6.27 0 01.484 2.391V206c0 3.44-25.781 20.611-29.235 20.611l-45.511-14.386a6.211 6.211 0 01-5.77-3.834 6.276 6.276 0 01-.485-2.391L1.945 66.102c0-3.437 25.539-17.2 28.993-17.2z"/><path fill="#fff" stroke="#fff" d="M6.877 64.028H75.37a6.211 6.211 0 014.41 1.812 6.271 6.271 0 011.845 4.414v150.872a6.276 6.276 0 01-1.845 4.414 6.225 6.225 0 01-4.41 1.809H6.877a6.225 6.225 0 01-5.769-3.832 6.277 6.277 0 01-.485-2.391V70.254a6.271 6.271 0 011.844-4.414 6.211 6.211 0 014.41-1.812z"/><path fill="#35416B" stroke="#fff" d="M9.003 69.318h69.044c1.898 0 3.433 1.32 3.433 2.946v11.89c0 1.629-1.535 2.947-3.433 2.947H9.004c-1.895 0-3.433-1.318-3.433-2.946V72.264c.01-1.625 1.538-2.946 3.433-2.946zm.026 18.939h69.044c1.898 0 3.433 1.318 3.433 2.946v11.891c0 1.625-1.535 2.946-3.433 2.946H9.03c-1.895 0-3.433-1.321-3.433-2.946V91.203c0-1.628 1.538-2.947 3.433-2.947zm.334 18.981H78.41c1.895 0 3.432 1.32 3.432 2.946v11.891c0 1.628-1.537 2.946-3.432 2.946H9.363c-1.895 0-3.433-1.318-3.433-2.946v-11.891c0-1.626 1.53-2.946 3.433-2.946zm-.022 18.945h69.045c1.895 0 3.433 1.321 3.433 2.946v11.891c0 1.628-1.538 2.947-3.433 2.947H9.341c-1.897 0-3.432-1.319-3.432-2.947v-11.898c-.01-1.625 1.526-2.939 3.432-2.939zm-.197 19.683h69.044c1.896 0 3.433 1.321 3.433 2.946v11.891c0 1.628-1.537 2.946-3.432 2.946H9.144c-1.897 0-3.433-1.318-3.433-2.946v-11.891c0-1.625 1.536-2.946 3.433-2.946zm.15 19.834h69.047c1.896 0 3.433 1.318 3.433 2.946v11.891c0 1.628-1.537 2.946-3.433 2.946H9.295c-1.896 0-3.433-1.318-3.433-2.946v-11.891c0-1.628 1.537-2.946 3.433-2.946zm-.258 19.364h69.047c1.895 0 3.433 1.321 3.433 2.946v11.886c0 1.628-1.538 2.946-3.433 2.946H9.036c-1.895 0-3.433-1.318-3.433-2.946V188.01c0-1.625 1.538-2.946 3.433-2.946zm-.205 19.201h69.045c1.897 0 3.433 1.318 3.433 2.946v11.891c0 1.625-1.536 2.946-3.433 2.946H8.83c-1.897 0-3.433-1.321-3.433-2.946V207.22c0-1.637 1.536-2.955 3.433-2.955z"/><path stroke="#35416B" d="M6.588 63.68h69.574c3.51 0 6.348 2.786 6.348 6.226v150.871c0 3.437-2.843 6.225-6.348 6.225H6.588c-3.51 0-6.348-2.788-6.348-6.225V69.907c-.005-3.44 2.838-6.226 6.348-6.226z"/><path fill="#35416B" stroke="#F96132" d="M12.99 77.1h51.357a1.324 1.324 0 011.321 1.316c-.002.35-.142.686-.39.933a1.314 1.314 0 01-.931.383H12.99a1.314 1.314 0 01-.932-.383 1.327 1.327 0 01-.39-.933A1.324 1.324 0 0112.99 77.1z"/><path fill="#35416B" stroke="#fff" d="M13.115 95.566H64.47a1.308 1.308 0 011.22.81c.066.16.1.333.102.506a1.326 1.326 0 01-.818 1.216 1.31 1.31 0 01-.504.098H13.115a1.31 1.31 0 01-1.218-.809 1.326 1.326 0 01-.103-.505 1.325 1.325 0 01.817-1.218c.16-.065.332-.099.504-.098z"/><path fill="#35416B" stroke="#F7A501" d="M12.805 114.524h51.356c.349-.001.684.136.932.383s.388.582.39.933a1.324 1.324 0 01-1.322 1.316H12.805a1.324 1.324 0 01-1.321-1.316c.002-.351.142-.686.39-.933a1.31 1.31 0 01.931-.383z"/><path fill="#35416B" stroke="#0316F0" d="M12.62 132.99h51.355a1.317 1.317 0 011.219 1.821 1.319 1.319 0 01-1.219.809H12.62a1.317 1.317 0 01-1.321-1.314 1.317 1.317 0 011.321-1.316z"/><path fill="#35416B" stroke="#fff" d="M12.433 153.589H63.79c.35-.001.684.137.932.384s.388.582.39.932a1.325 1.325 0 01-.818 1.216 1.3 1.3 0 01-.504.098H12.433a1.299 1.299 0 01-.931-.382 1.32 1.32 0 01-.39-.932c.002-.35.142-.685.39-.932.247-.247.583-.385.931-.384z"/><path fill="#35416B" stroke="#F7A501" d="M12.163 173.062h51.354a1.317 1.317 0 011.314 1.318 1.325 1.325 0 01-.392.932 1.315 1.315 0 01-.932.382H12.163a1.299 1.299 0 01-.931-.382 1.32 1.32 0 01-.288-1.438 1.322 1.322 0 011.219-.812z"/><path fill="#35416B" stroke="#F96132" d="M11.879 191.897h51.353a1.3 1.3 0 01.933.382 1.322 1.322 0 01.389.933 1.327 1.327 0 01-.39.933 1.309 1.309 0 01-.932.383H11.88a1.309 1.309 0 01-.932-.383 1.326 1.326 0 01-.39-.933 1.326 1.326 0 01.817-1.217c.16-.066.332-.099.505-.098zm.463 20.311h51.354c.348-.002.683.136.931.383s.388.582.39.932a1.33 1.33 0 01-.39.934 1.305 1.305 0 01-.931.382H12.342a1.301 1.301 0 01-.932-.382 1.321 1.321 0 01-.39-.934 1.33 1.33 0 01.39-.932 1.31 1.31 0 01.932-.383zM69.71 76.966h.251a1.434 1.434 0 011.022.419 1.45 1.45 0 01.427 1.022 1.442 1.442 0 01-1.448 1.439h-.252a1.438 1.438 0 01-1.02-.419 1.452 1.452 0 01-.428-1.02 1.454 1.454 0 01.896-1.334c.175-.072.363-.108.552-.107z"/><path fill="#35416B" stroke="#fff" d="M69.835 95.432h.251a1.434 1.434 0 011.334.886c.073.175.111.363.112.553a1.451 1.451 0 01-.894 1.334 1.433 1.433 0 01-.552.107h-.251a1.434 1.434 0 01-1.022-.42 1.45 1.45 0 01-.427-1.021 1.442 1.442 0 011.448-1.439z"/><path fill="#35416B" stroke="#F96132" d="M69.534 114.389h.235a1.434 1.434 0 011.021.419 1.447 1.447 0 01.427 1.022 1.453 1.453 0 01-.428 1.021c-.271.27-.638.42-1.02.418h-.235a1.436 1.436 0 01-1.02-.418 1.453 1.453 0 01-.429-1.021 1.45 1.45 0 011.449-1.441z"/><path fill="#35416B" stroke="#0316F0" d="M69.339 132.855h.251a1.449 1.449 0 011.448 1.439 1.458 1.458 0 01-.427 1.022 1.44 1.44 0 01-1.02.419h-.252a1.433 1.433 0 01-1.336-.887 1.458 1.458 0 01-.113-.554 1.449 1.449 0 011.449-1.439zm-.186 20.588h.251c.382-.001.75.15 1.02.42.272.27.426.637.429 1.021a1.458 1.458 0 01-.428 1.022 1.44 1.44 0 01-1.02.419h-.252a1.43 1.43 0 01-1.335-.887 1.456 1.456 0 01-.111-.554 1.45 1.45 0 01.426-1.021 1.44 1.44 0 011.02-.42z"/><path fill="#35416B" stroke="#F96132" d="M68.875 172.925h.252a1.432 1.432 0 011.021.419 1.453 1.453 0 01.427 1.022 1.458 1.458 0 01-.427 1.022 1.44 1.44 0 01-1.021.419h-.252a1.432 1.432 0 01-1.02-.419 1.453 1.453 0 01-.428-1.022 1.458 1.458 0 01.427-1.022 1.44 1.44 0 011.021-.419zm-.282 18.837h.252a1.43 1.43 0 011.334.887c.073.176.111.364.112.554a1.45 1.45 0 01-.427 1.021 1.44 1.44 0 01-1.02.42h-.25a1.44 1.44 0 01-1.021-.42 1.453 1.453 0 01-.428-1.021 1.458 1.458 0 01.427-1.022 1.44 1.44 0 011.021-.419zm.47 20.311h.252a1.431 1.431 0 011.02.419 1.443 1.443 0 01-1.02 2.463h-.252a1.433 1.433 0 01-1.336-.887 1.455 1.455 0 01-.112-.554 1.45 1.45 0 011.448-1.441zM75.45 77.042h.252a1.448 1.448 0 011.448 1.438 1.455 1.455 0 01-.896 1.334 1.436 1.436 0 01-.552.108h-.252a1.433 1.433 0 01-1.334-.888 1.451 1.451 0 01-.112-.554 1.451 1.451 0 01.895-1.331c.175-.072.362-.108.551-.108zm.125 18.46h.252a1.434 1.434 0 011.02.42 1.448 1.448 0 01.428 1.022 1.456 1.456 0 01-.427 1.022 1.44 1.44 0 01-1.021.419h-.252a1.434 1.434 0 01-1.021-.42 1.45 1.45 0 01-.427-1.021 1.453 1.453 0 01.896-1.334c.175-.072.363-.108.552-.107z"/><path fill="#35416B" stroke="#F7A501" d="M75.264 114.463h.251a1.431 1.431 0 011.336.885c.074.175.112.363.113.553a1.446 1.446 0 01-1.449 1.442h-.251a1.45 1.45 0 01-1.02-.42 1.45 1.45 0 01-.426-1.022 1.448 1.448 0 01.895-1.331c.175-.072.362-.108.55-.107z"/><path fill="#35416B" stroke="#F96132" d="M75.08 132.926h.252a1.431 1.431 0 011.02.42 1.439 1.439 0 010 2.043 1.438 1.438 0 01-1.02.42h-.252a1.434 1.434 0 01-1.021-.42 1.45 1.45 0 01-.427-1.022 1.45 1.45 0 011.448-1.441z"/><path fill="#35416B" stroke="#F7A501" d="M74.895 153.516h.251a1.431 1.431 0 011.02.42 1.44 1.44 0 010 2.043 1.437 1.437 0 01-1.02.42h-.251a1.434 1.434 0 01-1.022-.42 1.45 1.45 0 01-.427-1.022 1.45 1.45 0 011.449-1.441z"/><path fill="#35416B" stroke="#fff" d="M74.615 172.998h.251a1.44 1.44 0 011.336.887c.073.176.112.364.113.554a1.458 1.458 0 01-.427 1.022 1.44 1.44 0 01-1.022.419h-.251a1.43 1.43 0 01-1.335-.887 1.456 1.456 0 01-.111-.554 1.447 1.447 0 011.446-1.441z"/><path fill="#35416B" stroke="#F7A501" d="M74.337 191.835h.252c.382-.002.749.148 1.02.418.272.27.426.637.428 1.021a1.45 1.45 0 01-1.448 1.441h-.252a1.433 1.433 0 01-1.021-.419 1.447 1.447 0 01-.427-1.022c.002-.384.156-.751.428-1.021.271-.27.638-.42 1.02-.418z"/><path fill="#35416B" stroke="#F96132" d="M74.8 212.146h.252a1.434 1.434 0 011.021.419 1.447 1.447 0 01.315 1.576 1.432 1.432 0 01-.784.78 1.434 1.434 0 01-.552.108H74.8a1.431 1.431 0 01-1.02-.42 1.45 1.45 0 01-.426-1.022 1.45 1.45 0 01.895-1.333c.175-.072.362-.109.551-.108z"/><path fill="#35416B" stroke="#fff" d="M88.997 102.945l9.894-4.832c.98-.472 1.787.012 1.799 1.101l.205 17.094a3.406 3.406 0 01-1.754 2.835l-10.562 5.167c-.98.472-1.76-.014-1.738-1.101l.341-17.427a3.553 3.553 0 011.815-2.837z"/><path fill="#35416B" stroke="#0316F0" d="M89.653 108.712a.338.338 0 01.248.102.351.351 0 01.105.248v11.702a.349.349 0 01-.104.248.343.343 0 01-.248.101.35.35 0 01-.35-.349v-11.702a.351.351 0 01.35-.35z"/><path fill="#35416B" stroke="#F7A501" d="M92.576 105.123a.39.39 0 01.353.421v14.001a.39.39 0 01-.353.418.39.39 0 01-.35-.418v-14.001a.393.393 0 01.35-.421z"/><path fill="#35416B" stroke="#fff" d="M95.48 108.936a.325.325 0 01.352.279v9.323a.324.324 0 01-.352.279.322.322 0 01-.35-.279v-9.328a.324.324 0 01.35-.274z"/><path fill="#35416B" stroke="#F96132" d="M98.343 102.085a.397.397 0 01.353.43v14.362a.397.397 0 01-.353.43.395.395 0 01-.35-.43V102.52a.397.397 0 01.35-.435z"/></g><defs><clipPath id="clip0"><path fill="#fff" d="M0 0h73v123.098H0z" transform="translate(146)"/></clipPath><clipPath id="clip1"><path fill="#fff" d="M0 0h87.314v146H0z" transform="translate(83.02 22.902)"/></clipPath><clipPath id="clip2"><path fill="#fff" d="M0 0h105.922v178.922H0z" transform="translate(0 48.667)"/></clipPath></defs></svg>