<svg fill="none" viewBox="0 0 499 500"><g fill-rule="evenodd" stroke-linecap="round" stroke-linejoin="round" stroke-width="1.305" clip-path="url(#clip0)" clip-rule="evenodd"><path fill="#35416B" stroke="#35416B" d="M72.035.226h-65.8A5.982 5.982 0 00.692 3.888a5.966 5.966 0 00-.465 2.284v144.106c0 3.286 24.768 19.687 28.086 19.687l43.721-13.741a5.987 5.987 0 005.543-3.662 5.964 5.964 0 00.466-2.284L99.889 16.654c0-3.283-24.535-16.428-27.854-16.428z"/><path fill="#fff" stroke="#fff" d="M95.15 14.673h-65.8a5.984 5.984 0 00-4.236 1.73 5.973 5.973 0 00-1.772 4.216v144.108a5.969 5.969 0 003.719 5.501 5.974 5.974 0 002.29.443H95.15a5.974 5.974 0 006.008-5.944V20.619a5.974 5.974 0 00-1.772-4.216 5.984 5.984 0 00-4.236-1.73z"/><path fill="#35416B" stroke="#fff" d="M93.108 19.726h-66.33c-1.823 0-3.298 1.26-3.298 2.814v11.357c0 1.555 1.475 2.814 3.298 2.814h66.33c1.82 0 3.298-1.259 3.298-2.814V22.54c-.01-1.553-1.478-2.814-3.298-2.814zm-.025 18.089h-66.33c-1.823 0-3.298 1.26-3.298 2.814v11.358c0 1.552 1.475 2.814 3.298 2.814h66.33c1.82 0 3.298-1.262 3.298-2.814V40.629c0-1.555-1.477-2.814-3.298-2.814zm-.32 18.13H26.43c-1.82 0-3.298 1.261-3.298 2.814v11.358c0 1.555 1.478 2.814 3.298 2.814h66.332c1.82 0 3.298-1.26 3.298-2.814V58.759c0-1.553-1.47-2.814-3.298-2.814zm.02 18.096h-66.33c-1.82 0-3.298 1.262-3.298 2.814v11.358c0 1.555 1.477 2.814 3.298 2.814h66.33c1.823 0 3.297-1.26 3.297-2.814V76.848c.01-1.552-1.465-2.807-3.297-2.807zm.19 18.8h-66.33c-1.821 0-3.299 1.262-3.299 2.814v11.358c0 1.555 1.478 2.814 3.298 2.814h66.33c1.823 0 3.298-1.259 3.298-2.814V95.655c0-1.552-1.475-2.814-3.298-2.814zm-.145 18.945H26.496c-1.821 0-3.298 1.259-3.298 2.814v11.358c0 1.555 1.477 2.814 3.298 2.814h66.332c1.82 0 3.297-1.259 3.297-2.814V114.6c0-1.555-1.477-2.814-3.297-2.814zm.248 18.496H26.744c-1.82 0-3.298 1.261-3.298 2.814v11.353c0 1.555 1.477 2.814 3.298 2.814h66.332c1.82 0 3.298-1.259 3.298-2.814v-11.353c0-1.553-1.477-2.814-3.298-2.814zm.197 18.34h-66.33c-1.823 0-3.298 1.259-3.298 2.814v11.357c0 1.553 1.475 2.814 3.298 2.814h66.33c1.823 0 3.298-1.261 3.298-2.814v-11.348c0-1.564-1.475-2.823-3.298-2.823z"/><path stroke="#35416B" d="M95.428 14.341H28.59c-3.373 0-6.1 2.66-6.1 5.946v144.106c0 3.284 2.732 5.947 6.1 5.947h66.838c3.372 0 6.098-2.663 6.098-5.947V20.287c.005-3.285-2.726-5.946-6.098-5.946z"/><path fill="#35416B" stroke="#F96132" d="M89.277 27.159H39.94a1.265 1.265 0 00-1.27 1.257 1.263 1.263 0 001.27 1.257h49.337a1.265 1.265 0 001.27-1.257 1.263 1.263 0 00-1.27-1.257z"/><path fill="#35416B" stroke="#fff" d="M89.157 44.797H39.823a1.262 1.262 0 00-1.27 1.257 1.26 1.26 0 001.27 1.255h49.334a1.265 1.265 0 001.27-1.255 1.26 1.26 0 00-1.27-1.257z"/><path fill="#35416B" stroke="#F7A501" d="M89.455 62.904H40.118a1.265 1.265 0 00-1.27 1.257 1.263 1.263 0 001.27 1.257h49.337a1.265 1.265 0 001.27-1.257 1.263 1.263 0 00-1.27-1.257z"/><path fill="#35416B" stroke="#0316F0" d="M89.634 80.543H40.297a1.265 1.265 0 00-1.27 1.257 1.262 1.262 0 001.27 1.254h49.337a1.265 1.265 0 001.27-1.254 1.263 1.263 0 00-1.27-1.257z"/><path fill="#35416B" stroke="#fff" d="M89.812 100.218H40.475a1.266 1.266 0 00-1.27 1.257 1.264 1.264 0 001.27 1.255h49.337a1.272 1.272 0 00.895-.365 1.259 1.259 0 00.375-.89 1.266 1.266 0 00-1.27-1.257z"/><path fill="#35416B" stroke="#F7A501" d="M90.072 118.818H40.737a1.263 1.263 0 00-1.262 1.259 1.262 1.262 0 001.271 1.255h49.326a1.254 1.254 0 00.895-.365 1.254 1.254 0 00-.41-2.055 1.257 1.257 0 00-.485-.094z"/><path fill="#35416B" stroke="#F96132" d="M90.345 136.808H41.011a1.257 1.257 0 00-.896.365 1.265 1.265 0 00-.374.892 1.264 1.264 0 001.27 1.257h49.334a1.263 1.263 0 001.27-1.257 1.26 1.26 0 00-1.27-1.257zm-.445 19.401H40.566a1.26 1.26 0 00-1.171 1.739 1.265 1.265 0 001.17.774H89.9a1.256 1.256 0 001.172-.774 1.27 1.27 0 00.098-.483 1.261 1.261 0 00-1.27-1.256zM34.788 27.03h-.242a1.386 1.386 0 00-1.391 1.377 1.382 1.382 0 001.391 1.374h.242a1.385 1.385 0 001.391-1.374 1.383 1.383 0 00-1.391-1.377z"/><path fill="#35416B" stroke="#fff" d="M34.668 44.669h-.242a1.383 1.383 0 00-1.389 1.374 1.38 1.38 0 001.39 1.376h.241a1.385 1.385 0 001.392-1.376 1.383 1.383 0 00-1.392-1.374z"/><path fill="#35416B" stroke="#F96132" d="M34.957 62.776h-.226a1.386 1.386 0 00-1.391 1.377 1.383 1.383 0 001.391 1.374h.226a1.385 1.385 0 001.392-1.374 1.383 1.383 0 00-1.392-1.377z"/><path fill="#35416B" stroke="#0316F0" d="M35.145 80.414h-.242a1.386 1.386 0 00-1.391 1.374 1.382 1.382 0 001.391 1.377h.242a1.386 1.386 0 001.391-1.377 1.383 1.383 0 00-1.391-1.374zm.178 19.664h-.241a1.39 1.39 0 00-1.392 1.377 1.384 1.384 0 001.392 1.377h.241a1.377 1.377 0 00.98-.401 1.386 1.386 0 00.41-.976 1.383 1.383 0 00-1.39-1.377z"/><path fill="#35416B" stroke="#F96132" d="M35.59 118.687h-.242a1.379 1.379 0 00-.981.4 1.383 1.383 0 00-.41.976 1.38 1.38 0 00.86 1.274c.169.069.349.104.53.103h.243a1.379 1.379 0 00.98-.4 1.383 1.383 0 00.411-.977 1.379 1.379 0 00-.861-1.273 1.379 1.379 0 00-.53-.103zm.271 17.992h-.242a1.376 1.376 0 00-.98.401 1.387 1.387 0 00-.409.976 1.382 1.382 0 001.39 1.376h.241a1.384 1.384 0 001.391-1.376 1.382 1.382 0 00-1.391-1.377zm-.452 19.401h-.242a1.377 1.377 0 00-.98.4 1.38 1.38 0 00-.302 1.505 1.38 1.38 0 001.282.848h.242a1.379 1.379 0 00.98-.4 1.381 1.381 0 00.411-.977 1.379 1.379 0 00-.86-1.273 1.379 1.379 0 00-.531-.103zM29.274 27.103h-.242a1.385 1.385 0 00-1.391 1.374 1.382 1.382 0 001.391 1.376h.242a1.384 1.384 0 001.39-1.376 1.38 1.38 0 00-1.39-1.374zm-.12 17.633h-.241a1.386 1.386 0 00-1.392 1.377 1.38 1.38 0 001.392 1.376h.241a1.386 1.386 0 001.392-1.376 1.383 1.383 0 00-1.392-1.377z"/><path fill="#35416B" stroke="#F7A501" d="M29.453 62.846h-.242a1.384 1.384 0 00-1.391 1.374 1.38 1.38 0 001.39 1.377h.243a1.384 1.384 0 001.389-1.377 1.38 1.38 0 00-1.39-1.374z"/><path fill="#35416B" stroke="#F96132" d="M29.629 80.482h-.242a1.382 1.382 0 00-1.39 1.376 1.38 1.38 0 001.39 1.377h.242a1.385 1.385 0 001.391-1.377 1.383 1.383 0 00-1.391-1.376z"/><path fill="#35416B" stroke="#F7A501" d="M29.807 100.148h-.241a1.395 1.395 0 00-.98.401 1.387 1.387 0 00-.41.976 1.381 1.381 0 001.39 1.377h.241a1.397 1.397 0 00.981-.401 1.39 1.39 0 00.41-.976 1.384 1.384 0 00-1.39-1.377z"/><path fill="#35416B" stroke="#fff" d="M30.076 118.757h-.242a1.378 1.378 0 00-.98.4 1.383 1.383 0 00-.41.976 1.378 1.378 0 00.86 1.274c.168.069.349.104.53.103h.242a1.376 1.376 0 00.98-.401 1.365 1.365 0 00.41-.976 1.378 1.378 0 00-.86-1.273 1.376 1.376 0 00-.53-.103z"/><path fill="#35416B" stroke="#F7A501" d="M30.343 136.749H30.1a1.383 1.383 0 00-1.392 1.375 1.379 1.379 0 00.861 1.273c.169.069.349.104.53.103h.242a1.379 1.379 0 00.982-.4 1.383 1.383 0 00.41-.976 1.383 1.383 0 00-1.392-1.375z"/><path fill="#35416B" stroke="#F96132" d="M29.897 156.15h-.241a1.378 1.378 0 00-.981.4 1.383 1.383 0 00-.41.976 1.38 1.38 0 00.86 1.274c.169.069.349.104.53.103h.242a1.377 1.377 0 00.98-.401 1.363 1.363 0 00.41-.976 1.376 1.376 0 00-.86-1.273 1.377 1.377 0 00-.53-.103z"/><path fill="#35416B" stroke="#fff" d="M16.259 51.845L6.754 47.23c-.942-.452-1.717.011-1.728 1.051l-.197 16.327a3.24 3.24 0 001.685 2.708l10.147 4.936c.942.45 1.69-.014 1.67-1.052l-.328-16.645a3.383 3.383 0 00-1.744-2.71z"/><path fill="#35416B" stroke="#0316F0" d="M15.629 57.353a.337.337 0 00-.34.334v11.177a.336.336 0 00.34.334.337.337 0 00.336-.334V57.687a.336.336 0 00-.336-.334z"/><path fill="#35416B" stroke="#F7A501" d="M12.821 53.925a.375.375 0 00-.339.402V67.7a.372.372 0 00.339.4.373.373 0 00.337-.4V54.327a.374.374 0 00-.337-.402z"/><path fill="#35416B" stroke="#fff" d="M10.031 57.568a.31.31 0 00-.339.266v8.905a.31.31 0 00.34.266.31.31 0 00.336-.266v-8.91a.31.31 0 00-.337-.261z"/><path fill="#35416B" stroke="#F96132" d="M7.28 51.023a.38.38 0 00-.339.41v13.72a.379.379 0 00.34.41.38.38 0 00.336-.41V51.437a.379.379 0 00-.337-.415z"/></g><g fill-rule="evenodd" stroke-linecap="round" stroke-linejoin="round" stroke-width="1.305" clip-path="url(#clip1)" clip-rule="evenodd"><path fill="#35416B" stroke="#35416B" d="M163.834 23.768H80.317a7.602 7.602 0 00-5.377 2.192 7.564 7.564 0 00-2.246 5.343v182.608c0 4.164 31.436 24.947 35.647 24.947l55.493-17.412a7.598 7.598 0 007.035-4.64 7.578 7.578 0 00.591-2.895l27.726-169.325c0-4.16-31.141-20.818-35.352-20.818z"/><path fill="#fff" stroke="#fff" d="M193.171 42.075h-83.514a7.601 7.601 0 00-5.377 2.193 7.564 7.564 0 00-2.249 5.342v182.611a7.556 7.556 0 002.249 5.341 7.588 7.588 0 005.377 2.191h83.514a7.598 7.598 0 005.377-2.191 7.554 7.554 0 002.249-5.341V49.611a7.555 7.555 0 00-2.249-5.343 7.601 7.601 0 00-5.377-2.193z"/><path fill="#35416B" stroke="#fff" d="M190.579 48.478h-84.187c-2.314 0-4.186 1.599-4.186 3.566v14.392c0 1.97 1.872 3.566 4.186 3.566h84.187c2.311 0 4.186-1.596 4.186-3.566V52.044c-.011-1.967-1.875-3.566-4.186-3.566zm-.031 22.922H106.36c-2.313 0-4.185 1.596-4.185 3.566V89.36c0 1.967 1.872 3.566 4.185 3.566h84.188c2.311 0 4.186-1.599 4.186-3.566V74.966c0-1.97-1.875-3.566-4.186-3.566zm-.407 22.974H105.95c-2.31 0-4.185 1.599-4.185 3.566v14.393c0 1.97 1.875 3.566 4.185 3.566h84.191c2.311 0 4.186-1.596 4.186-3.566V97.94c0-1.967-1.867-3.566-4.186-3.566zm.026 22.932h-84.188c-2.311 0-4.186 1.598-4.186 3.565v14.393c0 1.97 1.875 3.566 4.186 3.566h84.188c2.313 0 4.185-1.596 4.185-3.566v-14.401c.012-1.968-1.86-3.557-4.185-3.557zm.241 23.823H106.22c-2.311 0-4.186 1.598-4.186 3.566v14.392c0 1.97 1.875 3.566 4.186 3.566h84.188c2.313 0 4.185-1.596 4.185-3.566v-14.392c0-1.968-1.872-3.566-4.185-3.566zm-.184 24.006h-84.191c-2.31 0-4.185 1.596-4.185 3.566v14.392c0 1.97 1.875 3.566 4.185 3.566h84.191c2.311 0 4.186-1.596 4.186-3.566v-14.392c0-1.97-1.875-3.566-4.186-3.566zm.315 23.437h-84.19c-2.311 0-4.186 1.599-4.186 3.566v14.387c0 1.97 1.875 3.566 4.186 3.566h84.19c2.311 0 4.186-1.596 4.186-3.566v-14.387c0-1.967-1.875-3.566-4.186-3.566zm.25 23.24h-84.188c-2.314 0-4.186 1.596-4.186 3.566v14.392c0 1.968 1.872 3.566 4.186 3.566h84.188c2.313 0 4.186-1.598 4.186-3.566v-14.381c0-1.981-1.873-3.577-4.186-3.577z"/><path stroke="#35416B" d="M193.524 41.655h-84.833c-4.28 0-7.741 3.372-7.741 7.535v182.608c0 4.16 3.466 7.535 7.741 7.535h84.833c4.28 0 7.741-3.375 7.741-7.535V49.19c.005-4.163-3.461-7.535-7.741-7.535z"/><path fill="#35416B" stroke="#F96132" d="M185.717 57.898h-62.619a1.606 1.606 0 00-1.612 1.592 1.603 1.603 0 001.612 1.593h62.619a1.607 1.607 0 001.612-1.593 1.603 1.603 0 00-1.612-1.592z"/><path fill="#35416B" stroke="#fff" d="M185.566 80.248h-62.617a1.607 1.607 0 00-1.487.98 1.59 1.59 0 00-.125.613 1.604 1.604 0 001.612 1.59h62.617a1.6 1.6 0 001.611-1.59 1.59 1.59 0 00-.475-1.13 1.597 1.597 0 00-1.136-.463z"/><path fill="#35416B" stroke="#F7A501" d="M185.943 103.193h-62.619a1.605 1.605 0 00-1.612 1.593 1.603 1.603 0 001.612 1.593h62.619a1.603 1.603 0 001.612-1.593 1.605 1.605 0 00-1.612-1.593z"/><path fill="#35416B" stroke="#0316F0" d="M186.17 125.544h-62.62a1.605 1.605 0 00-1.611 1.593 1.604 1.604 0 00.475 1.128 1.61 1.61 0 001.136.462h62.62a1.598 1.598 0 001.136-.462 1.586 1.586 0 00.475-1.128 1.6 1.6 0 00-1.611-1.593z"/><path fill="#35416B" stroke="#fff" d="M186.397 150.477h-62.62a1.605 1.605 0 00-1.611 1.592 1.59 1.59 0 00.997 1.472c.195.079.403.12.614.118h62.62a1.597 1.597 0 001.611-1.59 1.606 1.606 0 00-1.611-1.592z"/><path fill="#35416B" stroke="#F7A501" d="M186.726 174.045h-62.617a1.6 1.6 0 00-1.602 1.596c.003.424.174.83.477 1.128a1.61 1.61 0 001.137.462h62.605a1.613 1.613 0 001.136-.462 1.582 1.582 0 00.351-1.74 1.601 1.601 0 00-1.487-.984z"/><path fill="#35416B" stroke="#F96132" d="M187.073 196.842h-62.617a1.598 1.598 0 00-1.136.463 1.587 1.587 0 00.001 2.259c.302.298.71.465 1.135.464h62.617a1.605 1.605 0 001.612-1.593 1.59 1.59 0 00-.475-1.13 1.597 1.597 0 00-1.137-.463zm-.565 24.584h-62.617a1.602 1.602 0 00-1.611 1.593 1.59 1.59 0 00.475 1.129 1.605 1.605 0 001.136.464h62.617a1.619 1.619 0 001.137-.464 1.582 1.582 0 00-.001-2.258 1.603 1.603 0 00-1.136-.464zm-69.95-163.691h-.307a1.764 1.764 0 00-1.629 1.074c-.089.212-.135.44-.137.67a1.76 1.76 0 001.766 1.742h.307a1.758 1.758 0 001.766-1.742 1.754 1.754 0 00-1.766-1.744z"/><path fill="#35416B" stroke="#fff" d="M116.406 80.085h-.307a1.76 1.76 0 00-1.626 1.073 1.744 1.744 0 00-.137.669 1.751 1.751 0 001.763 1.744h.307a1.76 1.76 0 001.629-1.074c.089-.213.136-.44.137-.67a1.752 1.752 0 00-1.766-1.742z"/><path fill="#35416B" stroke="#F96132" d="M116.773 103.03h-.287a1.769 1.769 0 00-1.245.508 1.756 1.756 0 00-.521 1.237 1.752 1.752 0 001.766 1.741h.287a1.757 1.757 0 001.766-1.741 1.752 1.752 0 00-1.766-1.745z"/><path fill="#35416B" stroke="#0316F0" d="M117.011 125.381h-.307a1.752 1.752 0 00-1.766 1.741 1.757 1.757 0 001.093 1.615c.214.087.442.131.673.13h.307a1.764 1.764 0 001.245-.507 1.757 1.757 0 00.521-1.238 1.752 1.752 0 00-1.766-1.741zm.226 24.918h-.306a1.767 1.767 0 00-1.245.509 1.752 1.752 0 00-.521 1.236 1.748 1.748 0 001.766 1.744h.306a1.76 1.76 0 001.245-.507 1.761 1.761 0 00.518-1.237 1.75 1.75 0 00-.519-1.236 1.764 1.764 0 00-1.244-.509z"/><path fill="#35416B" stroke="#F96132" d="M117.576 173.88h-.307a1.76 1.76 0 00-1.629 1.074c-.089.212-.136.44-.137.67a1.752 1.752 0 001.766 1.744h.307a1.764 1.764 0 001.245-.507 1.752 1.752 0 00.521-1.237 1.752 1.752 0 00-1.766-1.744zm.344 22.799h-.307a1.762 1.762 0 00-1.627 1.074c-.089.213-.135.44-.136.67.002.465.189.909.52 1.236.33.327.778.51 1.243.509h.307a1.755 1.755 0 001.766-1.745 1.756 1.756 0 00-1.766-1.744zm-.574 24.584h-.306a1.76 1.76 0 00-1.628 1.074c-.089.213-.135.44-.136.67a1.751 1.751 0 001.764 1.745h.306a1.76 1.76 0 001.629-1.074c.09-.213.136-.44.137-.671a1.734 1.734 0 00-.521-1.237 1.752 1.752 0 00-1.245-.507zM109.56 57.826h-.307a1.758 1.758 0 00-1.766 1.742 1.753 1.753 0 001.766 1.744h.307a1.756 1.756 0 001.763-1.744 1.748 1.748 0 00-1.091-1.612 1.76 1.76 0 00-.672-.13zm-.152 22.345h-.307a1.757 1.757 0 00-1.766 1.744 1.753 1.753 0 001.766 1.745h.307a1.762 1.762 0 001.629-1.075c.089-.212.136-.44.137-.67a1.753 1.753 0 00-1.766-1.744z"/><path fill="#35416B" stroke="#F7A501" d="M109.786 103.119h-.307a1.767 1.767 0 00-1.245.506 1.752 1.752 0 00-.521 1.236c.001.23.047.458.137.67a1.738 1.738 0 00.956.945c.214.086.442.13.673.129h.307a1.764 1.764 0 001.244-.508 1.738 1.738 0 00.382-1.906 1.74 1.74 0 00-.383-.565 1.756 1.756 0 00-1.243-.507z"/><path fill="#35416B" stroke="#F96132" d="M110.01 125.467h-.307a1.764 1.764 0 00-1.244.507 1.748 1.748 0 00-.519 1.237 1.751 1.751 0 001.763 1.745h.307a1.765 1.765 0 001.629-1.075c.089-.212.136-.44.137-.67a1.752 1.752 0 00-1.766-1.744z"/><path fill="#35416B" stroke="#F7A501" d="M110.236 150.388h-.306a1.76 1.76 0 00-1.628 1.074c-.089.213-.135.44-.136.67a1.748 1.748 0 001.091 1.615c.213.087.442.131.673.13h.306a1.77 1.77 0 001.246-.508 1.744 1.744 0 00.52-1.237 1.748 1.748 0 00-1.766-1.744z"/><path fill="#35416B" stroke="#fff" d="M110.578 173.968h-.307a1.76 1.76 0 00-1.629 1.074c-.089.213-.136.44-.137.671a1.752 1.752 0 001.766 1.744h.307a1.76 1.76 0 001.627-1.074c.089-.213.135-.44.136-.67a1.751 1.751 0 00-1.763-1.745z"/><path fill="#35416B" stroke="#F7A501" d="M110.916 196.768h-.307a1.757 1.757 0 00-1.766 1.741 1.752 1.752 0 001.766 1.745h.307a1.769 1.769 0 001.245-.508 1.756 1.756 0 00.521-1.237 1.752 1.752 0 00-1.766-1.741z"/><path fill="#35416B" stroke="#F96132" d="M110.351 221.352h-.307a1.749 1.749 0 00-1.245.507 1.752 1.752 0 00-.521 1.237 1.752 1.752 0 001.766 1.744h.307a1.764 1.764 0 001.244-.507 1.748 1.748 0 00.519-1.237 1.733 1.733 0 00-.519-1.237 1.748 1.748 0 00-1.244-.507z"/><path fill="#35416B" stroke="#fff" d="M93.04 89.179L80.976 83.33c-1.195-.572-2.179.014-2.193 1.332l-.25 20.689a4.105 4.105 0 002.14 3.432l12.878 6.254c1.195.572 2.144-.017 2.118-1.333l-.415-21.092a4.283 4.283 0 00-2.214-3.434z"/><path fill="#35416B" stroke="#0316F0" d="M92.24 96.159a.427.427 0 00-.43.423v14.164a.42.42 0 00.128.3.43.43 0 00.604-.001.425.425 0 00.126-.299V96.582a.425.425 0 00-.427-.423z"/><path fill="#35416B" stroke="#F7A501" d="M88.677 91.815a.476.476 0 00-.43.51v16.945a.47.47 0 00.43.506.47.47 0 00.427-.506V92.324a.474.474 0 00-.427-.509z"/><path fill="#35416B" stroke="#fff" d="M85.136 96.43a.393.393 0 00-.43.338v11.284a.392.392 0 00.43.337.393.393 0 00.427-.337v-11.29a.392.392 0 00-.427-.331z"/><path fill="#35416B" stroke="#F96132" d="M81.645 88.138a.482.482 0 00-.43.52v17.384a.481.481 0 00.43.52.484.484 0 00.427-.52V88.664a.48.48 0 00-.427-.526z"/></g><g fill-rule="evenodd" stroke-linecap="round" stroke-linejoin="round" stroke-width="1.305" clip-path="url(#clip2)" clip-rule="evenodd"><path fill="#35416B" stroke="#35416B" d="M271.881 60.377H164.743a9.75 9.75 0 00-6.898 2.813 9.702 9.702 0 00-2.881 6.856v234.309c0 5.343 40.327 32.011 45.73 32.011l71.187-22.342a9.752 9.752 0 006.899-2.812 9.714 9.714 0 002.884-6.857l35.568-217.266c0-5.338-39.948-26.712-45.351-26.712z"/><path fill="#fff" stroke="#fff" d="M309.516 83.868H202.382a9.748 9.748 0 00-6.898 2.813 9.7 9.7 0 00-2.885 6.855V327.85a9.69 9.69 0 002.885 6.854 9.761 9.761 0 006.898 2.811h107.134a9.769 9.769 0 003.729-.721 9.726 9.726 0 005.295-5.23 9.69 9.69 0 00.759-3.714V93.536a9.709 9.709 0 00-2.885-6.855 9.751 9.751 0 00-6.898-2.813z"/><path fill="#35416B" stroke="#fff" d="M306.191 92.083H198.193c-2.968 0-5.37 2.051-5.37 4.576v18.467c0 2.528 2.402 4.575 5.37 4.575h107.998c2.965 0 5.37-2.047 5.37-4.575V96.658c-.015-2.524-2.405-4.575-5.37-4.575zm-.04 29.413H198.152c-2.968 0-5.369 2.047-5.369 4.575v18.467c0 2.525 2.401 4.576 5.369 4.576h107.999c2.964 0 5.37-2.051 5.37-4.576v-18.467c0-2.528-2.406-4.575-5.37-4.575zm-.523 29.478H197.626c-2.964 0-5.369 2.051-5.369 4.576v18.467c0 2.528 2.405 4.575 5.369 4.575h108.002c2.965 0 5.37-2.047 5.37-4.575V155.55c0-2.525-2.394-4.576-5.37-4.576zm.034 29.424H197.663c-2.964 0-5.369 2.051-5.369 4.575v18.467c0 2.529 2.405 4.576 5.369 4.576h107.999c2.968 0 5.369-2.047 5.369-4.576v-18.478c.015-2.524-2.387-4.564-5.369-4.564zm.308 30.568H197.972c-2.965 0-5.37 2.051-5.37 4.576v18.467c0 2.528 2.405 4.575 5.37 4.575H305.97c2.968 0 5.37-2.047 5.37-4.575v-18.467c0-2.525-2.402-4.576-5.37-4.576zm-.235 30.803H197.733c-2.965 0-5.37 2.048-5.37 4.576v18.467c0 2.528 2.405 4.576 5.37 4.576h108.002c2.964 0 5.369-2.048 5.369-4.576v-18.467c0-2.528-2.405-4.576-5.369-4.576zm.405 30.073H198.138c-2.965 0-5.37 2.051-5.37 4.576v18.46c0 2.528 2.405 4.575 5.37 4.575H306.14c2.964 0 5.369-2.047 5.369-4.575v-18.46c0-2.525-2.405-4.576-5.369-4.576zm.32 29.82H198.461c-2.968 0-5.37 2.048-5.37 4.576v18.467c0 2.524 2.402 4.575 5.37 4.575H306.46c2.967 0 5.369-2.051 5.369-4.575v-18.453c0-2.542-2.402-4.59-5.369-4.59z"/><path stroke="#35416B" d="M309.968 83.328H201.142c-5.491 0-9.93 4.326-9.93 9.669v234.309c0 5.339 4.447 9.669 9.93 9.669h108.826c5.491 0 9.93-4.33 9.93-9.669V92.996c.008-5.342-4.439-9.668-9.93-9.668z"/><path fill="#35416B" stroke="#F96132" d="M299.954 104.169h-80.331a2.063 2.063 0 00-2.067 2.044c.003.545.222 1.065.61 1.449.387.383.912.597 1.457.595h80.331a2.057 2.057 0 002.067-2.044 2.054 2.054 0 00-.61-1.448 2.065 2.065 0 00-1.457-.596z"/><path fill="#35416B" stroke="#fff" d="M299.759 132.848h-80.327a2.066 2.066 0 00-1.458.594 2.045 2.045 0 00-.609 1.45 2.051 2.051 0 002.067 2.04h80.327a2.06 2.06 0 001.906-1.256c.105-.248.159-.515.161-.784a2.051 2.051 0 00-2.067-2.044z"/><path fill="#35416B" stroke="#F7A501" d="M300.244 162.29h-80.33a2.056 2.056 0 00-2.067 2.044 2.053 2.053 0 002.067 2.044h80.33a2.061 2.061 0 002.067-2.044 2.06 2.06 0 00-2.067-2.044z"/><path fill="#35416B" stroke="#0316F0" d="M300.535 190.969h-80.331a2.064 2.064 0 00-1.457.595 2.05 2.05 0 00-.61 1.449 2.055 2.055 0 002.067 2.04h80.331a2.07 2.07 0 001.457-.593 2.064 2.064 0 00.61-1.447 2.055 2.055 0 00-2.067-2.044z"/><path fill="#35416B" stroke="#fff" d="M300.825 222.961h-80.33a2.06 2.06 0 00-2.067 2.044 2.036 2.036 0 00.61 1.447 2.066 2.066 0 001.457.593h80.33a2.066 2.066 0 001.906-1.256c.105-.249.16-.515.161-.784a2.06 2.06 0 00-2.067-2.044z"/><path fill="#35416B" stroke="#F7A501" d="M301.248 253.203h-80.327a2.055 2.055 0 00-2.056 2.047 2.058 2.058 0 002.071 2.04h80.312a2.047 2.047 0 001.457-.593 2.037 2.037 0 00-.668-3.341 2.075 2.075 0 00-.789-.153z"/><path fill="#35416B" stroke="#F96132" d="M301.693 282.454h-80.326a2.048 2.048 0 00-1.459.594 2.057 2.057 0 00-.608 1.449 2.054 2.054 0 002.067 2.044h80.326a2.054 2.054 0 002.067-2.044 2.058 2.058 0 00-.608-1.449 2.057 2.057 0 00-1.459-.594zm-.724 31.544h-80.327a2.06 2.06 0 00-2.067 2.044 2.04 2.04 0 00.609 1.449 2.067 2.067 0 001.458.595h80.327a2.067 2.067 0 001.458-.595 2.059 2.059 0 00.609-1.449 2.059 2.059 0 00-2.067-2.044zM211.234 103.96h-.394a2.271 2.271 0 00-1.597.651 2.242 2.242 0 00-.668 1.588 2.25 2.25 0 002.265 2.234h.394a2.258 2.258 0 002.266-2.234 2.264 2.264 0 00-.669-1.588 2.267 2.267 0 00-1.597-.651z"/><path fill="#35416B" stroke="#fff" d="M211.039 132.639h-.393a2.259 2.259 0 00-1.595.65 2.249 2.249 0 00-.667 1.585 2.242 2.242 0 001.399 2.071c.273.112.567.168.863.167h.393a2.264 2.264 0 001.598-.651 2.264 2.264 0 00.668-1.587 2.258 2.258 0 00-2.266-2.235z"/><path fill="#35416B" stroke="#F96132" d="M211.51 162.081h-.368a2.267 2.267 0 00-1.597.651 2.25 2.25 0 00-.668 1.587c.003.596.244 1.166.669 1.585.425.419.999.653 1.596.65h.368a2.258 2.258 0 001.596-.65c.425-.419.666-.989.669-1.585a2.252 2.252 0 00-.668-1.587 2.244 2.244 0 00-1.597-.651z"/><path fill="#35416B" stroke="#0316F0" d="M211.815 190.76h-.393a2.25 2.25 0 00-2.266 2.234 2.237 2.237 0 001.402 2.071c.274.112.567.169.864.167h.393a2.245 2.245 0 001.597-.651 2.24 2.24 0 00.669-1.587 2.247 2.247 0 00-.67-1.585 2.257 2.257 0 00-1.596-.649zm.291 31.973h-.394a2.264 2.264 0 00-1.596.652 2.25 2.25 0 00-.669 1.586 2.242 2.242 0 001.402 2.072c.274.111.567.168.863.167h.394a2.253 2.253 0 002.262-2.239 2.256 2.256 0 00-2.262-2.238z"/><path fill="#35416B" stroke="#F96132" d="M212.54 252.99h-.394a2.24 2.24 0 00-.863.167 2.25 2.25 0 00-1.402 2.071 2.248 2.248 0 002.265 2.238h.394a2.24 2.24 0 00.863-.167 2.24 2.24 0 001.226-1.211 2.23 2.23 0 00.176-.86 2.248 2.248 0 00-2.265-2.238zm.441 29.255h-.393a2.245 2.245 0 00-1.597.651 2.245 2.245 0 00-.665 1.587 2.247 2.247 0 002.262 2.238h.393a2.26 2.26 0 002.266-2.238 2.24 2.24 0 00-.669-1.587 2.245 2.245 0 00-1.597-.651zm-.735 31.544h-.394a2.24 2.24 0 00-1.596.651 2.239 2.239 0 00-.666 1.587 2.248 2.248 0 002.262 2.238h.394a2.24 2.24 0 00.863-.167 2.24 2.24 0 001.226-1.211c.115-.272.175-.564.176-.86a2.234 2.234 0 00-.668-1.587 2.255 2.255 0 00-1.597-.651zm-9.989-209.711h-.394a2.246 2.246 0 00-2.265 2.234c.001.296.061.588.176.86.114.273.281.52.492.728a2.271 2.271 0 001.597.651h.394a2.253 2.253 0 002.262-2.239 2.258 2.258 0 00-.667-1.584 2.261 2.261 0 00-1.595-.65zm-.195 28.671h-.394a2.259 2.259 0 00-2.09 1.378 2.252 2.252 0 00-.175.86 2.244 2.244 0 001.402 2.072c.274.111.567.168.863.167h.394a2.271 2.271 0 001.597-.651 2.242 2.242 0 00.668-1.588 2.234 2.234 0 00-.668-1.587 2.255 2.255 0 00-1.597-.651z"/><path fill="#35416B" stroke="#F7A501" d="M202.547 162.195h-.393a2.262 2.262 0 00-.864.165 2.264 2.264 0 00-1.226 1.21 2.244 2.244 0 00-.176.859 2.253 2.253 0 00.667 1.588 2.243 2.243 0 001.599.65h.393a2.24 2.24 0 001.596-.651 2.25 2.25 0 00.666-1.587 2.238 2.238 0 00-1.4-2.068 2.25 2.25 0 00-.862-.166z"/><path fill="#35416B" stroke="#F96132" d="M202.834 190.87h-.393a2.266 2.266 0 00-1.597.651 2.245 2.245 0 00-.665 1.587 2.25 2.25 0 00.665 1.587 2.266 2.266 0 001.597.651h.393a2.245 2.245 0 001.598-.651 2.264 2.264 0 00.668-1.587 2.264 2.264 0 00-1.402-2.071 2.245 2.245 0 00-.864-.167z"/><path fill="#35416B" stroke="#F7A501" d="M203.125 222.847h-.394a2.259 2.259 0 00-1.596.651 2.239 2.239 0 00-.666 1.587 2.245 2.245 0 001.399 2.072c.274.111.567.168.863.167h.394a2.271 2.271 0 001.597-.651 2.242 2.242 0 00.668-1.588 2.234 2.234 0 00-.668-1.587 2.255 2.255 0 00-1.597-.651z"/><path fill="#35416B" stroke="#fff" d="M203.562 253.104h-.393a2.245 2.245 0 00-1.598.651 2.253 2.253 0 00-.668 1.587 2.253 2.253 0 002.266 2.238h.393a2.255 2.255 0 002.088-1.379c.114-.272.173-.564.174-.859a2.247 2.247 0 00-.666-1.587 2.235 2.235 0 00-.733-.484 2.236 2.236 0 00-.863-.167z"/><path fill="#35416B" stroke="#F7A501" d="M203.996 282.358h-.393a2.254 2.254 0 00-2.266 2.235 2.253 2.253 0 002.266 2.238h.393a2.245 2.245 0 001.598-.651 2.264 2.264 0 00.668-1.587 2.256 2.256 0 00-2.266-2.235z"/><path fill="#35416B" stroke="#F96132" d="M203.272 313.903h-.394a2.24 2.24 0 00-.863.167 2.24 2.24 0 00-1.226 1.211 2.227 2.227 0 00-.176.86 2.234 2.234 0 00.668 1.587 2.255 2.255 0 001.597.651h.394a2.24 2.24 0 001.596-.651 2.245 2.245 0 00.666-1.587 2.252 2.252 0 00-1.399-2.071 2.24 2.24 0 00-.863-.167z"/><path fill="#35416B" stroke="#fff" d="M181.065 144.307l-15.476-7.503c-1.534-.734-2.795.018-2.813 1.709l-.32 26.547a5.272 5.272 0 002.743 4.403l16.521 8.025c1.534.734 2.751-.022 2.718-1.71l-.533-27.064a5.507 5.507 0 00-2.84-4.407z"/><path fill="#35416B" stroke="#0316F0" d="M180.039 153.264a.54.54 0 00-.389.157.56.56 0 00-.163.386v18.174a.545.545 0 00.552.543.547.547 0 00.548-.543v-18.174a.547.547 0 00-.548-.543z"/><path fill="#35416B" stroke="#F7A501" d="M175.468 147.69a.61.61 0 00-.552.653v21.744a.608.608 0 00.552.65.609.609 0 00.548-.65v-21.744a.608.608 0 00-.548-.653z"/><path fill="#35416B" stroke="#fff" d="M170.926 153.612a.506.506 0 00-.552.433v14.479a.5.5 0 00.552.433.5.5 0 00.548-.433v-14.486a.504.504 0 00-.548-.426z"/><path fill="#35416B" stroke="#F96132" d="M166.446 142.972a.613.613 0 00-.552.667v22.306a.617.617 0 00.552.667.616.616 0 00.548-.667v-22.298a.619.619 0 00-.548-.675z"/></g><g fill-rule="evenodd" stroke-linecap="round" stroke-linejoin="round" stroke-width="1.305" clip-path="url(#clip3)" clip-rule="evenodd"><path fill="#35416B" stroke="#35416B" d="M433.842 125.734H289.585a13.113 13.113 0 00-9.287 3.789 13.089 13.089 0 00-2.861 4.234 13.052 13.052 0 00-1.019 5.004v315.713c0 7.199 54.298 43.132 61.573 43.132l95.851-30.104a13.117 13.117 0 0012.151-8.023 13.078 13.078 0 001.021-5.005l47.891-292.748c0-7.194-53.789-35.992-61.063-35.992z"/><path fill="#fff" stroke="#fff" d="M484.515 157.385H340.264a13.123 13.123 0 00-9.288 3.791 13.081 13.081 0 00-3.885 9.236V486.13a13.075 13.075 0 003.885 9.235 13.102 13.102 0 004.266 2.816c1.594.65 3.3.98 5.022.972h144.251a13.128 13.128 0 009.288-3.788 13.079 13.079 0 003.885-9.235V170.412a13.085 13.085 0 00-3.885-9.236 13.123 13.123 0 00-9.288-3.791z"/><path fill="#35416B" stroke="#fff" d="M480.039 168.455H334.623c-3.996 0-7.23 2.763-7.23 6.165v24.883c0 3.406 3.234 6.165 7.23 6.165h145.416c3.991 0 7.23-2.759 7.23-6.165V174.62c-.02-3.402-3.239-6.165-7.23-6.165zm-.055 39.631H334.569c-3.996 0-7.23 2.758-7.23 6.165v24.883c0 3.401 3.234 6.165 7.23 6.165h145.415c3.992 0 7.23-2.764 7.23-6.165v-24.883c0-3.407-3.238-6.165-7.23-6.165zm-.703 39.72h-145.42c-3.992 0-7.23 2.763-7.23 6.165v24.883c0 3.406 3.238 6.165 7.23 6.165h145.42c3.991 0 7.23-2.759 7.23-6.165v-24.883c0-3.402-3.224-6.165-7.23-6.165zm.045 39.646H333.91c-3.991 0-7.23 2.763-7.23 6.165V318.5c0 3.406 3.239 6.165 7.23 6.165h145.416c3.996 0 7.23-2.759 7.23-6.165v-24.898c.019-3.402-3.214-6.15-7.23-6.15zm.416 41.188H334.326c-3.991 0-7.229 2.764-7.229 6.165v24.883c0 3.406 3.238 6.165 7.229 6.165h145.416c3.996 0 7.23-2.759 7.23-6.165v-24.883c0-3.401-3.234-6.165-7.23-6.165zm-.317 41.505h-145.42c-3.992 0-7.23 2.758-7.23 6.165v24.883c0 3.406 3.238 6.165 7.23 6.165h145.42c3.991 0 7.23-2.759 7.23-6.165V376.31c0-3.407-3.239-6.165-7.23-6.165zm.544 40.521h-145.42c-3.991 0-7.23 2.763-7.23 6.165v24.873c0 3.406 3.239 6.165 7.23 6.165h145.42c3.992 0 7.23-2.759 7.23-6.165v-24.873c0-3.402-3.238-6.165-7.23-6.165zm.431 40.179H334.985c-3.996 0-7.23 2.759-7.23 6.165v24.884c0 3.401 3.234 6.165 7.23 6.165H480.4c3.997 0 7.23-2.764 7.23-6.165V457.03c0-3.426-3.233-6.185-7.23-6.185z"/><path stroke="#35416B" d="M485.124 156.658H338.595c-7.394 0-13.371 5.829-13.371 13.028v315.713c0 7.193 5.987 13.027 13.371 13.027h146.529c7.394 0 13.371-5.834 13.371-13.027V169.686c.01-7.199-5.977-13.028-13.371-13.028z"/><path fill="#35416B" stroke="#F96132" d="M471.64 184.74H363.479a2.769 2.769 0 00-2.783 2.754 2.769 2.769 0 002.783 2.754H471.64a2.769 2.769 0 002.783-2.754 2.769 2.769 0 00-2.783-2.754z"/><path fill="#35416B" stroke="#fff" d="M471.378 223.382H363.221a2.754 2.754 0 00-1.061.206 2.752 2.752 0 00-1.507 1.49 2.748 2.748 0 00-.215 1.058c.002.363.076.722.216 1.057a2.774 2.774 0 002.567 1.692h108.157a2.774 2.774 0 002.566-1.692c.141-.335.215-.694.217-1.057a2.766 2.766 0 00-2.783-2.754z"/><path fill="#35416B" stroke="#F7A501" d="M472.031 263.053H363.87a2.775 2.775 0 00-2.783 2.754 2.776 2.776 0 002.783 2.754h108.161a2.774 2.774 0 002.783-2.754 2.773 2.773 0 00-2.783-2.754z"/><path fill="#35416B" stroke="#0316F0" d="M472.423 301.695H364.261a2.775 2.775 0 00-2.783 2.754 2.773 2.773 0 00.821 1.95 2.775 2.775 0 001.962.799h108.162a2.774 2.774 0 002.566-1.693c.141-.334.215-.693.217-1.056a2.771 2.771 0 00-2.783-2.754z"/><path fill="#35416B" stroke="#fff" d="M472.814 344.802H364.652a2.776 2.776 0 00-1.962.802 2.765 2.765 0 00-.821 1.952 2.763 2.763 0 001.723 2.544 2.77 2.77 0 001.06.204h108.162a2.77 2.77 0 002.566-1.692c.141-.335.215-.694.217-1.056a2.77 2.77 0 00-2.783-2.754z"/><path fill="#35416B" stroke="#F7A501" d="M473.383 385.55H365.227a2.772 2.772 0 00-2.768 2.759 2.768 2.768 0 002.788 2.749h108.136a2.776 2.776 0 001.962-.799 2.762 2.762 0 00.822-1.95 2.77 2.77 0 00-2.784-2.759z"/><path fill="#35416B" stroke="#F96132" d="M473.983 424.963H365.826a2.781 2.781 0 00-1.963.801 2.766 2.766 0 00-.82 1.953 2.775 2.775 0 002.783 2.754h108.157a2.77 2.77 0 002.783-2.754 2.766 2.766 0 00-2.783-2.754zm-.976 42.504H364.851a2.777 2.777 0 00-1.963.802 2.764 2.764 0 00-.82 1.952 2.748 2.748 0 00.819 1.953 2.781 2.781 0 001.964.801h108.156a2.781 2.781 0 001.964-.801 2.78 2.78 0 00.819-1.953 2.775 2.775 0 00-2.783-2.754zM352.183 184.458h-.529a3.048 3.048 0 00-2.151.877 3.04 3.04 0 00-.9 2.139 3.033 3.033 0 003.051 3.011h.529a3.033 3.033 0 003.051-3.011 3.036 3.036 0 00-1.888-2.791 3.048 3.048 0 00-1.163-.225z"/><path fill="#35416B" stroke="#fff" d="M351.921 223.101h-.53a3.037 3.037 0 00-2.147.875 3.021 3.021 0 00-.899 2.136 3.025 3.025 0 003.046 3.015h.53a3.033 3.033 0 003.05-3.015 3.029 3.029 0 00-3.05-3.011z"/><path fill="#35416B" stroke="#F96132" d="M352.555 262.771h-.496a3.047 3.047 0 00-2.15.877 3.017 3.017 0 00-.9 2.139 3.037 3.037 0 003.05 3.011h.496a3.037 3.037 0 003.05-3.011 3.017 3.017 0 00-.9-2.139 3.042 3.042 0 00-2.15-.877z"/><path fill="#35416B" stroke="#0316F0" d="M352.966 301.413h-.53a3.037 3.037 0 00-3.051 3.011 3.036 3.036 0 001.888 2.791c.369.15.764.227 1.163.225h.53a3.047 3.047 0 002.151-.877 3.025 3.025 0 00.899-2.139 3.037 3.037 0 00-3.05-3.011zm.391 43.082h-.53a3.045 3.045 0 00-2.149.879 3.03 3.03 0 00-.901 2.137 3.035 3.035 0 00.899 2.139 3.042 3.042 0 002.151.877h.53a3.04 3.04 0 002.81-1.858 3.01 3.01 0 00.235-1.158 3.03 3.03 0 00-3.045-3.016z"/><path fill="#35416B" stroke="#F96132" d="M353.941 385.263h-.53a3.047 3.047 0 00-2.15.877 3.034 3.034 0 00-.9 2.139 3.017 3.017 0 00.9 2.139 3.042 3.042 0 002.15.877h.53a3.048 3.048 0 002.151-.877 3.028 3.028 0 00.9-2.139 3.036 3.036 0 00-1.888-2.791 3.048 3.048 0 00-1.163-.225zm.594 39.419h-.529a3.02 3.02 0 00-2.149.877 3.025 3.025 0 00-.897 2.139 3.034 3.034 0 003.046 3.015h.529a3.043 3.043 0 002.15-.878 3.033 3.033 0 00.901-2.137 3.017 3.017 0 00-.9-2.139 3.026 3.026 0 00-2.151-.877zm-.99 42.503h-.53a3.035 3.035 0 00-2.81 1.858 3.01 3.01 0 00-.235 1.158 3.01 3.01 0 00.896 2.138 3.035 3.035 0 002.149.878h.53a3.048 3.048 0 002.151-.877 3.028 3.028 0 00.9-2.139 3.036 3.036 0 00-1.888-2.791 3.048 3.048 0 00-1.163-.225zm-13.449-282.568h-.53a3.033 3.033 0 00-3.051 3.01 3.036 3.036 0 001.888 2.791 3.03 3.03 0 001.163.225h.53a3.028 3.028 0 003.045-3.016 3.02 3.02 0 00-1.884-2.786 3.04 3.04 0 00-1.161-.224zm-.263 38.632h-.53a3.03 3.03 0 00-2.151.877 3.035 3.035 0 00-.899 2.139 3.03 3.03 0 003.05 3.015h.53a3.03 3.03 0 002.151-.877 3.03 3.03 0 00.899-2.138 3.035 3.035 0 00-.899-2.139 3.036 3.036 0 00-2.151-.877z"/><path fill="#35416B" stroke="#F7A501" d="M340.487 262.924h-.53a3.047 3.047 0 00-2.151.874 3.031 3.031 0 00-.9 2.137 3.013 3.013 0 00.899 2.14 3.018 3.018 0 002.152.876h.53a3.028 3.028 0 003.045-3.016 3.029 3.029 0 00-.898-2.135 3.041 3.041 0 00-2.147-.876z"/><path fill="#35416B" stroke="#F96132" d="M340.873 301.562h-.53a3.028 3.028 0 00-3.045 3.015 3.015 3.015 0 00.896 2.139 3.022 3.022 0 002.149.877h.53a3.03 3.03 0 002.151-.877 3.035 3.035 0 00.899-2.139 3.03 3.03 0 00-3.05-3.015z"/><path fill="#35416B" stroke="#F7A501" d="M341.264 344.648h-.53a3.048 3.048 0 00-2.149.878 3.014 3.014 0 00-.896 2.138 3.015 3.015 0 00.896 2.139 3.022 3.022 0 002.149.877h.53a3.03 3.03 0 002.151-.877 3.016 3.016 0 00.899-2.139 3.012 3.012 0 00-.899-2.138 3.045 3.045 0 00-2.151-.878z"/><path fill="#35416B" stroke="#fff" d="M341.853 385.417h-.529a3.03 3.03 0 00-2.151.877 3.031 3.031 0 00-.9 2.138 3.036 3.036 0 001.888 2.791 3.03 3.03 0 001.163.225h.529a3.026 3.026 0 003.046-3.016 3.014 3.014 0 00-.896-2.138 3.026 3.026 0 00-2.15-.877z"/><path fill="#35416B" stroke="#F7A501" d="M342.438 424.835h-.53a3.029 3.029 0 00-3.05 3.011 3.026 3.026 0 001.887 2.791c.369.15.764.227 1.163.225h.53a3.04 3.04 0 003.05-3.016 3.029 3.029 0 00-3.05-3.011z"/><path fill="#35416B" stroke="#F96132" d="M341.462 467.338h-.53a3.047 3.047 0 00-2.15.878c-.284.28-.509.613-.663.98-.155.367-.235.76-.237 1.158a3.017 3.017 0 00.9 2.139 3.026 3.026 0 002.15.877h.53a3.02 3.02 0 002.149-.877 3.036 3.036 0 00.897-2.139 3.01 3.01 0 00-.897-2.138 3.03 3.03 0 00-2.149-.878z"/><path fill="#35416B" stroke="#fff" d="M311.562 238.822l-20.838-10.11c-2.065-.989-3.763.025-3.788 2.304l-.431 35.77a7.106 7.106 0 003.694 5.932l22.245 10.813c2.065.989 3.704-.03 3.659-2.304l-.718-36.467a7.415 7.415 0 00-3.823-5.938z"/><path fill="#35416B" stroke="#0316F0" d="M310.181 250.891a.73.73 0 00-.743.731v24.488a.722.722 0 00.219.519.75.75 0 00.524.213.735.735 0 00.737-.732v-24.488a.734.734 0 00-.737-.731z"/><path fill="#35416B" stroke="#F7A501" d="M304.025 243.381a.82.82 0 00-.742.88v29.298a.813.813 0 00.742.875.816.816 0 00.738-.875v-29.298a.82.82 0 00-.738-.88z"/><path fill="#35416B" stroke="#fff" d="M297.91 251.36a.68.68 0 00-.743.584v19.509a.675.675 0 00.743.583.676.676 0 00.737-.583v-19.519a.677.677 0 00-.737-.574z"/><path fill="#35416B" stroke="#F96132" d="M291.878 237.023a.828.828 0 00-.743.9v30.054a.832.832 0 00.743.9.832.832 0 00.738-.9v-30.044a.83.83 0 00-.738-.91z"/></g><defs><clipPath id="clip0"><path fill="#fff" d="M0 0h101.757v170.899H0z" transform="matrix(-1 0 0 1 101.757 0)"/></clipPath><clipPath id="clip1"><path fill="#fff" d="M0 0h129.153v216.559H0z" transform="matrix(-1 0 0 1 201.557 23.482)"/></clipPath><clipPath id="clip2"><path fill="#fff" d="M0 0h165.681v277.875H0z" transform="matrix(-1 0 0 1 320.273 60.01)"/></clipPath><clipPath id="clip3"><path fill="#fff" d="M0 0h223.082v374.413H0z" transform="matrix(-1 0 0 1 499 125.239)"/></clipPath></defs></svg>