<svg fill="none" viewBox="0 0 400 400"><rect width="400" height="400" fill="#F7A501" rx="24.56"/><g fill-rule="evenodd" clip-path="url(#clip0)" clip-rule="evenodd"><path fill="#596590" d="M200.117 131.915l104.939 30.719v228.742l-104.939-30.72V131.915z"/><path fill="#35416B" d="M304.951 162.68l65.875-54.305v228.632l-65.875 54.308V162.68z"/><path fill="#A1AEDA" d="M200.204 131.971l104.803 30.773 65.876-54.289-100.258-24.338-70.421 47.854z"/><path stroke="#fff" stroke-linecap="round" stroke-linejoin="round" stroke-width=".622" d="M318.833 224.043l42.66-32.947c1.206-.93 2.178-.453 2.178 1.067v27.713a6.315 6.315 0 01-2.178 4.435l-42.66 32.947c-1.203.93-2.178.453-2.178-1.067v-27.71a6.315 6.315 0 012.178-4.438v0z"/><path fill="#F96132" d="M320.667 226.761l3.067-2.435c.378-.291.665-.147.665.322v23.664a1.986 1.986 0 01-.665 1.376l-3.067 2.439c-.378.291-.662.147-.662-.321v-23.687c.033-.522.271-1.01.662-1.358z"/><path fill="#fff" d="M327.565 232.678l3.066-2.435c.379-.291.666-.147.67.322l.075 12.658a1.96 1.96 0 01-.661 1.376l-3.067 2.435c-.378.295-.666.151-.67-.317l-.075-12.663a1.978 1.978 0 01.662-1.376z"/><path fill="#F7A501" d="M334.53 222.693l3.075-2.442c.378-.292.662.317.662.317l.291 16.844a1.963 1.963 0 01-.658 1.365l-3.078 2.442c-.379.291-.658.148-.658-.317l-.295-16.844c0-.465.661-1.365.661-1.365z"/><path fill="#F96132" d="M341.511 223.113l3.067-2.435c.378-.291.665.321.665.321l.08 10.526a1.983 1.983 0 01-.662 1.373l-3.067 2.438c-.378.291-.665.148-.665-.321l-.08-10.526c0-.469.662-1.376.662-1.376z"/><path fill="#0316F0" d="M348.651 211.282l3.067-2.434c.378-.292.662.321.662.321l.079 17.142a2 2 0 01-.666 1.377l-3.066 2.434c-.379.292-.662.148-.662-.321l-.08-17.142c0-.469.666-1.377.666-1.377z"/><path fill="#fff" d="M355.976 199.361l3.066-2.435c.379-.291.666-.147.666.322v23.694a2 2 0 01-.666 1.377l-3.066 2.435c-.379.291-.662.147-.662-.322v-23.694a1.979 1.979 0 01.662-1.377zm-138.933-49.003l70.78 19.467a5.053 5.053 0 013.517 4.609v27.703c0 2.015-1.577 3.213-3.517 2.676l-70.78-19.467a5.058 5.058 0 01-2.484-1.75 5.058 5.058 0 01-1.029-2.859v-27.702c0-2.016 1.577-3.214 3.513-2.677zm-.339 44.16l70.78 19.468a5.054 5.054 0 013.517 4.612v27.703c0 2.011-1.574 3.21-3.517 2.676l-70.78-19.467a5.053 5.053 0 01-3.514-4.613v-27.702c0-2.011 1.574-3.21 3.514-2.677zm-.682 42.452l70.784 19.482a5.053 5.053 0 013.513 4.609v27.706c0 2.015-1.573 3.21-3.513 2.677l-70.784-19.471a5.053 5.053 0 01-3.513-4.609v-27.703c0-2.015 1.573-3.213 3.513-2.691zm.341 42.818l70.78 19.467a5.045 5.045 0 013.517 4.609v27.702c0 2.016-1.573 3.214-3.517 2.677l-70.78-19.467a5.054 5.054 0 01-3.525-4.609v-27.703c0-2.015 1.585-3.209 3.525-2.676zm-.341 41.116l70.784 19.457a5.04 5.04 0 013.513 4.609v27.702c0 2.015-1.573 3.214-3.513 2.68l-70.784-19.471a5.051 5.051 0 01-3.513-4.609V323.57c0-2.015 1.573-3.214 3.513-2.666z"/><path fill="#F96132" d="M225.14 174.389a4.018 4.018 0 114.417-3.456 3.968 3.968 0 01-4.417 3.456z"/><path fill="#F7A501" d="M222.814 217.763a4.02 4.02 0 114.417-3.452 3.969 3.969 0 01-2.874 3.337 3.978 3.978 0 01-1.543.115z"/><path fill="#3541D1" d="M222.413 260.169a4.022 4.022 0 01-3.389-5.239 4.018 4.018 0 015.823-2.243 4.016 4.016 0 011.983 4.026 3.943 3.943 0 01-1.492 2.643 3.969 3.969 0 01-2.925.813z"/><path fill="#F96132" d="M221.332 302.756a4.018 4.018 0 112.43-7.482 4.016 4.016 0 011.983 4.027 3.963 3.963 0 01-4.413 3.455z"/><path fill="#F7A501" d="M220.912 344.066a4.023 4.023 0 01-3.441-2.886 4.023 4.023 0 011.383-4.273 4.017 4.017 0 014.479-.325 4.024 4.024 0 011.985 4.028 3.966 3.966 0 01-4.406 3.456z"/><path fill="#3541D1" d="M237.578 177.61a4.014 4.014 0 01-3.432-2.893 4.013 4.013 0 011.388-4.268 4.02 4.02 0 016.46 3.705 3.962 3.962 0 01-4.416 3.456z"/><path fill="#F96132" d="M235.256 220.977a4.02 4.02 0 01-2.021-7.165 4.019 4.019 0 016.453 3.713 3.977 3.977 0 01-1.499 2.645 3.96 3.96 0 01-2.933.807z"/><path fill="#F7A501" d="M234.851 263.382a4.02 4.02 0 114.417-3.455 3.968 3.968 0 01-4.417 3.455zm-1.082 42.603a4.015 4.015 0 01-3.441-2.886 4.02 4.02 0 117.847-.57 3.963 3.963 0 01-4.406 3.456z"/><path fill="#F96132" d="M233.354 347.28a4.026 4.026 0 01-3.435-2.891 4.016 4.016 0 013.576-5.114 4.015 4.015 0 013.895 2.233c.353.717.484 1.524.377 2.316a3.967 3.967 0 01-4.413 3.456zm12.029-170.936a3.43 3.43 0 014.224-2.386l35.324 9.83a3.429 3.429 0 012.405 4.204 3.425 3.425 0 01-2.889 2.49c-.447.054-.901.02-1.335-.1l-35.32-9.83a3.428 3.428 0 01-2.409-4.208z"/><path fill="#3541D1" d="M243.057 219.721a3.432 3.432 0 014.224-2.385l35.324 9.803a3.431 3.431 0 01-1.838 6.609l-35.32-9.811a3.435 3.435 0 01-2.39-4.216z"/><path fill="#F7A501" d="M242.656 262.124a3.435 3.435 0 014.217-2.386l35.324 9.83a3.43 3.43 0 012.386 4.223 3.436 3.436 0 01-4.224 2.386l-35.324-9.83a3.433 3.433 0 01-2.379-4.223z"/><path fill="#F96132" d="M241.579 304.726a3.429 3.429 0 011.618-2.066 3.44 3.44 0 012.606-.32l35.323 9.831a3.43 3.43 0 012.383 4.196 3.436 3.436 0 01-4.224 2.386l-35.324-9.83a3.435 3.435 0 01-2.055-1.609 3.423 3.423 0 01-.327-2.588z"/><path fill="#3541D1" d="M241.159 346.021a3.43 3.43 0 014.22-2.386l35.324 9.83a3.44 3.44 0 012.486 2.889c.055.447.021.9-.1 1.334-.121.434-.326.84-.603 1.195a3.444 3.444 0 01-2.286 1.291 3.418 3.418 0 01-1.335-.1l-35.32-9.83a3.425 3.425 0 01-2.386-4.223z"/></g><g fill-rule="evenodd" clip-path="url(#clip1)" clip-rule="evenodd"><path fill="#596590" d="M29.117 77.915l104.939 30.719v228.742l-104.939-30.72V77.915z"/><path fill="#35416B" d="M133.951 108.68l65.875-54.305v228.632l-65.875 54.308V108.68z"/><path fill="#A1AEDA" d="M29.204 77.972l104.803 30.772 65.876-54.29L99.625 30.118l-70.42 47.855z"/><path stroke="#fff" stroke-linecap="round" stroke-linejoin="round" stroke-width=".622" d="M147.833 170.043l42.66-32.947c1.206-.93 2.178-.453 2.178 1.067v27.713a6.315 6.315 0 01-2.178 4.435l-42.66 32.947c-1.203.93-2.178.453-2.178-1.067v-27.71a6.315 6.315 0 012.178-4.438v0z"/><path fill="#F96132" d="M149.667 172.761l3.067-2.435c.378-.291.665-.147.665.322v23.664a1.986 1.986 0 01-.665 1.376l-3.067 2.439c-.378.291-.662.147-.662-.321v-23.687c.033-.522.271-1.01.662-1.358z"/><path fill="#fff" d="M156.565 178.678l3.066-2.435c.379-.291.666-.147.67.322l.075 12.658a1.96 1.96 0 01-.661 1.376l-3.067 2.435c-.378.295-.666.151-.67-.317l-.075-12.663a1.978 1.978 0 01.662-1.376z"/><path fill="#F7A501" d="M163.53 168.693l3.075-2.442c.378-.292.662.317.662.317l.291 16.844a1.963 1.963 0 01-.658 1.365l-3.078 2.442c-.379.291-.658.148-.658-.317l-.295-16.844c0-.465.661-1.365.661-1.365z"/><path fill="#F96132" d="M170.511 169.113l3.067-2.435c.378-.291.665.321.665.321l.08 10.526a1.983 1.983 0 01-.662 1.373l-3.067 2.438c-.378.291-.665.148-.665-.321l-.08-10.526c0-.469.662-1.376.662-1.376z"/><path fill="#0316F0" d="M177.651 157.282l3.067-2.434c.378-.292.662.321.662.321l.079 17.142a2 2 0 01-.666 1.377l-3.066 2.434c-.379.292-.662.148-.662-.321l-.08-17.142c0-.469.666-1.377.666-1.377z"/><path fill="#fff" d="M184.976 145.361l3.067-2.435c.378-.291.665-.147.665.322v23.694a1.981 1.981 0 01-.665 1.377l-3.067 2.435c-.378.291-.662.147-.662-.322v-23.694a1.997 1.997 0 01.662-1.377zM46.043 96.358l70.78 19.467a5.053 5.053 0 013.517 4.609v27.703c0 2.015-1.577 3.213-3.517 2.676l-70.78-19.467a5.048 5.048 0 01-3.513-4.609V99.035c0-2.016 1.577-3.214 3.513-2.677zm-.34 44.16l70.781 19.468a5.054 5.054 0 013.517 4.612v27.703c0 2.011-1.574 3.21-3.517 2.676l-70.78-19.467a5.052 5.052 0 01-3.514-4.613v-27.702c0-2.011 1.574-3.21 3.514-2.677zm-.68 42.452l70.783 19.482a5.053 5.053 0 013.513 4.609v27.706c0 2.015-1.573 3.21-3.513 2.677l-70.784-19.471a5.05 5.05 0 01-3.513-4.609v-27.703c0-2.015 1.573-3.213 3.513-2.691zm.34 42.818l70.78 19.467a5.045 5.045 0 013.517 4.609v27.702c0 2.016-1.573 3.214-3.517 2.677l-70.78-19.467a5.05 5.05 0 01-3.525-4.609v-27.703c0-2.015 1.585-3.209 3.525-2.676zm-.34 41.116l70.783 19.457a5.04 5.04 0 013.513 4.609v27.702c0 2.015-1.573 3.214-3.513 2.68l-70.784-19.471a5.049 5.049 0 01-3.513-4.609V269.57c0-2.015 1.573-3.214 3.513-2.666z"/><path fill="#F96132" d="M54.14 120.389a4.02 4.02 0 01-2.044-7.161 4.016 4.016 0 012.19-.843 4.012 4.012 0 013.894 2.233c.353.717.484 1.523.377 2.315a3.966 3.966 0 01-4.417 3.456z"/><path fill="#F7A501" d="M51.814 163.763a4.023 4.023 0 01-3.431-2.894 4.018 4.018 0 015.868-4.587 4.02 4.02 0 011.98 4.029 3.957 3.957 0 01-2.874 3.337 3.975 3.975 0 01-1.543.115z"/><path fill="#3541D1" d="M51.413 206.169a4.02 4.02 0 01-2.043-7.161 4.024 4.024 0 014.477-.321 4.02 4.02 0 011.983 4.026 3.957 3.957 0 01-1.491 2.643 3.974 3.974 0 01-2.925.813z"/><path fill="#F96132" d="M50.332 248.756a4.016 4.016 0 01-3.435-2.89 4.02 4.02 0 117.848-.565 3.965 3.965 0 01-4.413 3.455z"/><path fill="#F7A501" d="M49.912 290.066a4.021 4.021 0 01-3.402-5.234 4.02 4.02 0 017.808 1.778 3.966 3.966 0 01-4.406 3.456z"/><path fill="#3541D1" d="M66.578 123.61a4.013 4.013 0 01-3.433-2.893 4.016 4.016 0 011.389-4.268 4.023 4.023 0 016.083 1.39c.353.717.485 1.523.377 2.315a3.965 3.965 0 01-4.416 3.456z"/><path fill="#F96132" d="M64.256 166.977a4.02 4.02 0 114.432-3.452 3.965 3.965 0 01-4.432 3.452z"/><path fill="#F7A501" d="M63.851 209.382a4.02 4.02 0 114.417-3.455 3.965 3.965 0 01-4.417 3.455zm-1.082 42.603a4.014 4.014 0 01-3.44-2.886 4.017 4.017 0 013.572-5.119 4.017 4.017 0 014.274 4.549 3.962 3.962 0 01-4.406 3.456z"/><path fill="#F96132" d="M62.354 293.28a4.024 4.024 0 01-3.435-2.891 4.016 4.016 0 013.576-5.114 4.014 4.014 0 013.895 2.233c.353.717.484 1.524.377 2.316a3.967 3.967 0 01-4.413 3.456zm12.029-170.936a3.434 3.434 0 014.224-2.386l35.324 9.83a3.429 3.429 0 012.405 4.204 3.425 3.425 0 01-2.889 2.49c-.447.054-.901.02-1.335-.1l-35.32-9.83a3.432 3.432 0 01-2.41-4.208z"/><path fill="#3541D1" d="M72.057 165.721a3.432 3.432 0 014.224-2.385l35.324 9.803a3.431 3.431 0 01-1.838 6.609l-35.32-9.811a3.435 3.435 0 01-2.39-4.216z"/><path fill="#F7A501" d="M71.656 208.124a3.433 3.433 0 014.217-2.386l35.324 9.83a3.43 3.43 0 012.386 4.223 3.436 3.436 0 01-4.224 2.386l-35.324-9.83a3.433 3.433 0 01-2.379-4.223z"/><path fill="#F96132" d="M70.579 250.726a3.432 3.432 0 014.224-2.386l35.323 9.831a3.43 3.43 0 012.383 4.196 3.436 3.436 0 01-4.224 2.386l-35.324-9.83a3.432 3.432 0 01-2.382-4.197z"/><path fill="#3541D1" d="M70.159 292.021a3.432 3.432 0 014.22-2.386l35.324 9.83a3.44 3.44 0 012.486 2.889c.055.447.021.9-.1 1.334-.121.434-.326.84-.603 1.195a3.444 3.444 0 01-2.286 1.291 3.418 3.418 0 01-1.335-.1l-35.32-9.83a3.43 3.43 0 01-2.488-2.889c-.054-.447-.02-.9.102-1.334z"/></g><defs><clipPath id="clip0"><path fill="#fff" d="M0 0h171v307.489H0z" transform="translate(200 84)"/></clipPath><clipPath id="clip1"><path fill="#fff" d="M0 0h171v307.489H0z" transform="translate(29 30)"/></clipPath></defs></svg>