<svg xmlns="http://www.w3.org/2000/svg" width="400" height="400" fill="none" viewBox="0 0 400 400"><rect width="400" height="400" fill="#F7A501" rx="24.56"/><g clip-path="url(#clip0)"><path fill="#596590" fill-rule="evenodd" d="M200.117 131.915L305.056 162.634V391.376L200.117 360.656V131.915Z" clip-rule="evenodd"/><path fill="#35416B" fill-rule="evenodd" d="M304.951 162.68L370.826 108.375V337.007L304.951 391.315V162.68Z" clip-rule="evenodd"/><path fill="#A1AEDA" fill-rule="evenodd" d="M200.204 131.971L305.007 162.744L370.883 108.455L270.625 84.1172L200.204 131.971Z" clip-rule="evenodd"/><path fill-rule="evenodd" stroke="#fff" stroke-linecap="round" stroke-linejoin="round" stroke-width=".622" d="M318.833 224.043L361.493 191.096C362.699 190.166 363.671 190.643 363.671 192.163V219.876C363.625 220.724 363.408 221.554 363.034 222.316C362.66 223.078 362.136 223.756 361.493 224.311L318.833 257.258C317.63 258.188 316.655 257.711 316.655 256.191V228.481C316.701 227.633 316.918 226.803 317.292 226.041C317.667 225.278 318.191 224.599 318.833 224.043V224.043Z" clip-rule="evenodd"/><path fill="#F96132" fill-rule="evenodd" d="M320.667 226.761L323.734 224.326C324.112 224.035 324.399 224.179 324.399 224.648V248.312C324.384 248.574 324.318 248.83 324.204 249.067C324.09 249.303 323.93 249.514 323.734 249.688L320.667 252.127C320.289 252.418 320.005 252.274 320.005 251.806V228.119C320.038 227.597 320.276 227.109 320.667 226.761Z" clip-rule="evenodd"/><path fill="#fff" fill-rule="evenodd" d="M327.565 232.678L330.631 230.243C331.01 229.952 331.297 230.096 331.301 230.565L331.376 243.223C331.363 243.485 331.298 243.742 331.184 243.978C331.071 244.214 330.911 244.425 330.715 244.599L327.648 247.034C327.27 247.329 326.982 247.185 326.978 246.717L326.903 234.054C326.917 233.793 326.982 233.536 327.096 233.3C327.21 233.064 327.369 232.853 327.565 232.678Z" clip-rule="evenodd"/><path fill="#F7A501" fill-rule="evenodd" d="M334.53 222.693L337.605 220.251C337.983 219.959 338.267 220.568 338.267 220.568L338.558 237.412C338.544 237.672 338.478 237.926 338.365 238.16C338.252 238.394 338.094 238.604 337.9 238.777L334.822 241.219C334.443 241.51 334.164 241.367 334.164 240.902L333.869 224.058C333.869 223.593 334.53 222.693 334.53 222.693Z" clip-rule="evenodd"/><path fill="#F96132" fill-rule="evenodd" d="M341.511 223.113L344.578 220.678C344.956 220.387 345.243 220.999 345.243 220.999L345.323 231.525C345.308 231.786 345.243 232.042 345.129 232.277C345.016 232.513 344.856 232.724 344.661 232.898L341.594 235.336C341.216 235.627 340.929 235.484 340.929 235.015L340.849 224.489C340.849 224.02 341.511 223.113 341.511 223.113Z" clip-rule="evenodd"/><path fill="#0316F0" fill-rule="evenodd" d="M348.651 211.282L351.718 208.848C352.096 208.556 352.38 209.169 352.38 209.169L352.459 226.311C352.444 226.573 352.378 226.83 352.264 227.066C352.15 227.302 351.99 227.513 351.793 227.688L348.727 230.122C348.348 230.414 348.065 230.27 348.065 229.801L347.985 212.659C347.985 212.19 348.651 211.282 348.651 211.282Z" clip-rule="evenodd"/><path fill="#fff" fill-rule="evenodd" d="M355.976 199.361L359.042 196.926C359.421 196.635 359.708 196.779 359.708 197.248V220.942C359.693 221.204 359.627 221.461 359.513 221.697C359.398 221.933 359.239 222.145 359.042 222.319L355.976 224.754C355.597 225.045 355.314 224.901 355.314 224.432V200.738C355.328 200.476 355.393 200.219 355.507 199.983C355.621 199.747 355.78 199.536 355.976 199.361Z" clip-rule="evenodd"/><path fill="#fff" fill-rule="evenodd" d="M217.043 150.358L287.823 169.825C288.812 170.14 289.68 170.751 290.309 171.575C290.938 172.4 291.298 173.398 291.34 174.434V202.137C291.34 204.152 289.763 205.35 287.823 204.813L217.043 185.346C216.055 185.031 215.188 184.42 214.559 183.596C213.931 182.771 213.572 181.773 213.53 180.737V153.035C213.53 151.019 215.107 149.821 217.043 150.358Z" clip-rule="evenodd"/><path fill="#fff" fill-rule="evenodd" d="M216.704 194.518L287.484 213.986C288.473 214.301 289.34 214.912 289.97 215.738C290.599 216.563 290.959 217.562 291.001 218.598V246.301C291.001 248.312 289.427 249.511 287.484 248.977L216.704 229.51C215.715 229.195 214.848 228.583 214.219 227.758C213.591 226.932 213.231 225.934 213.19 224.897V197.195C213.19 195.184 214.764 193.985 216.704 194.518Z" clip-rule="evenodd"/><path fill="#fff" fill-rule="evenodd" d="M216.022 236.97L286.806 256.452C287.794 256.767 288.662 257.378 289.29 258.202C289.919 259.027 290.278 260.025 290.319 261.061V288.767C290.319 290.782 288.746 291.977 286.806 291.444L216.022 271.973C215.034 271.658 214.167 271.047 213.538 270.222C212.91 269.398 212.551 268.4 212.509 267.364V239.661C212.509 237.646 214.082 236.448 216.022 236.97Z" clip-rule="evenodd"/><path fill="#fff" fill-rule="evenodd" d="M216.363 279.788L287.143 299.255C288.132 299.569 289 300.179 289.63 301.004C290.259 301.829 290.619 302.827 290.66 303.864V331.566C290.66 333.582 289.087 334.78 287.143 334.243L216.363 314.776C215.373 314.463 214.503 313.853 213.872 313.028C213.241 312.203 212.88 311.204 212.838 310.167V282.464C212.838 280.449 214.423 279.255 216.363 279.788Z" clip-rule="evenodd"/><path fill="#fff" fill-rule="evenodd" d="M216.022 320.904L286.806 340.361C287.794 340.675 288.662 341.286 289.29 342.111C289.919 342.935 290.278 343.934 290.319 344.97V372.672C290.319 374.687 288.746 375.886 286.806 375.352L216.022 355.881C215.034 355.567 214.167 354.955 213.538 354.131C212.91 353.306 212.551 352.308 212.509 351.272V323.57C212.509 321.555 214.082 320.356 216.022 320.904Z" clip-rule="evenodd"/><path fill="#F96132" fill-rule="evenodd" d="M225.14 174.389C224.345 174.303 223.594 173.981 222.983 173.466C222.371 172.951 221.927 172.265 221.708 171.496C221.489 170.727 221.503 169.911 221.751 169.15C221.998 168.39 222.467 167.721 223.096 167.228C223.726 166.735 224.488 166.442 225.286 166.385C226.083 166.327 226.88 166.509 227.574 166.907C228.267 167.305 228.826 167.9 229.18 168.618C229.533 169.335 229.664 170.141 229.557 170.933C229.429 171.977 228.892 172.927 228.064 173.575C227.236 174.223 226.184 174.516 225.14 174.389Z" clip-rule="evenodd"/><path fill="#F7A501" fill-rule="evenodd" d="M222.814 217.763C222.019 217.676 221.268 217.355 220.657 216.839C220.045 216.324 219.602 215.638 219.382 214.869C219.163 214.1 219.178 213.283 219.426 212.523C219.674 211.762 220.143 211.093 220.773 210.601C221.403 210.108 222.166 209.815 222.963 209.758C223.761 209.702 224.558 209.884 225.251 210.282C225.944 210.681 226.503 211.277 226.856 211.994C227.209 212.712 227.339 213.519 227.231 214.311C227.168 214.828 227.004 215.327 226.747 215.78C226.491 216.233 226.148 216.631 225.738 216.952C225.328 217.272 224.859 217.509 224.357 217.648C223.855 217.787 223.331 217.826 222.814 217.763Z" clip-rule="evenodd"/><path fill="#3541D1" fill-rule="evenodd" d="M222.413 260.169C221.619 260.083 220.867 259.761 220.256 259.246C219.645 258.731 219.201 258.045 218.981 257.276C218.762 256.507 218.777 255.691 219.024 254.93C219.271 254.17 219.74 253.501 220.37 253.008C220.999 252.515 221.762 252.222 222.559 252.164C223.357 252.107 224.153 252.289 224.847 252.687C225.541 253.085 226.1 253.68 226.453 254.397C226.806 255.115 226.938 255.921 226.83 256.713C226.768 257.23 226.604 257.73 226.348 258.183C226.092 258.637 225.749 259.035 225.338 259.356C224.928 259.677 224.459 259.914 223.957 260.054C223.455 260.193 222.931 260.232 222.413 260.169Z" clip-rule="evenodd"/><path fill="#F96132" fill-rule="evenodd" d="M221.332 302.756C220.537 302.671 219.785 302.35 219.174 301.835C218.562 301.32 218.117 300.635 217.897 299.866C217.677 299.097 217.692 298.28 217.939 297.519C218.185 296.759 218.654 296.089 219.283 295.596C219.913 295.103 220.676 294.809 221.473 294.752C222.271 294.694 223.068 294.876 223.762 295.274C224.455 295.671 225.015 296.267 225.368 296.984C225.722 297.702 225.853 298.508 225.745 299.301C225.618 300.344 225.081 301.293 224.254 301.941C223.426 302.589 222.376 302.882 221.332 302.756Z" clip-rule="evenodd"/><path fill="#F7A501" fill-rule="evenodd" d="M220.912 344.066C220.117 343.982 219.364 343.662 218.751 343.148C218.138 342.634 217.693 341.949 217.471 341.18C217.25 340.411 217.264 339.594 217.51 338.832C217.756 338.071 218.224 337.401 218.854 336.907C219.483 336.413 220.246 336.119 221.044 336.061C221.842 336.003 222.639 336.184 223.333 336.582C224.027 336.98 224.587 337.575 224.941 338.293C225.294 339.011 225.426 339.817 225.318 340.61C225.19 341.652 224.655 342.6 223.829 343.248C223.003 343.896 221.955 344.19 220.912 344.066Z" clip-rule="evenodd"/><path fill="#3541D1" fill-rule="evenodd" d="M237.578 177.61C236.783 177.524 236.031 177.203 235.42 176.687C234.809 176.172 234.365 175.486 234.146 174.717C233.926 173.949 233.941 173.132 234.188 172.372C234.436 171.611 234.904 170.942 235.534 170.449C236.163 169.957 236.926 169.663 237.723 169.606C238.521 169.549 239.317 169.73 240.011 170.128C240.705 170.526 241.264 171.122 241.617 171.839C241.971 172.556 242.102 173.362 241.994 174.154C241.867 175.198 241.33 176.148 240.502 176.796C239.673 177.445 238.622 177.737 237.578 177.61Z" clip-rule="evenodd"/><path fill="#F96132" fill-rule="evenodd" d="M235.256 220.977C234.462 220.887 233.712 220.564 233.103 220.046C232.494 219.529 232.053 218.843 231.836 218.074C231.619 217.305 231.636 216.489 231.885 215.73C232.134 214.971 232.604 214.303 233.235 213.812C233.865 213.321 234.627 213.029 235.424 212.973C236.221 212.918 237.017 213.101 237.71 213.499C238.402 213.897 238.96 214.493 239.313 215.21C239.665 215.927 239.796 216.733 239.688 217.525C239.624 218.043 239.459 218.543 239.202 218.997C238.945 219.451 238.6 219.849 238.189 220.17C237.777 220.491 237.306 220.727 236.803 220.865C236.299 221.004 235.774 221.042 235.256 220.977Z" clip-rule="evenodd"/><path fill="#F7A501" fill-rule="evenodd" d="M234.851 263.382C234.056 263.296 233.305 262.975 232.693 262.46C232.082 261.944 231.638 261.259 231.419 260.49C231.2 259.721 231.214 258.904 231.462 258.144C231.709 257.384 232.177 256.714 232.807 256.222C233.437 255.729 234.199 255.435 234.997 255.378C235.794 255.321 236.591 255.503 237.285 255.901C237.978 256.298 238.537 256.894 238.891 257.611C239.244 258.328 239.375 259.135 239.268 259.927C239.14 260.971 238.603 261.921 237.775 262.569C236.947 263.217 235.895 263.51 234.851 263.382Z" clip-rule="evenodd"/><path fill="#F7A501" fill-rule="evenodd" d="M233.769 305.985C232.974 305.901 232.221 305.582 231.608 305.067C230.995 304.553 230.55 303.868 230.328 303.099C230.107 302.33 230.121 301.513 230.367 300.752C230.613 299.991 231.081 299.32 231.71 298.826C232.34 298.333 233.103 298.038 233.901 297.98C234.699 297.922 235.496 298.103 236.19 298.501C236.884 298.899 237.444 299.495 237.798 300.212C238.151 300.93 238.283 301.737 238.175 302.529C238.048 303.571 237.513 304.52 236.687 305.168C235.861 305.816 234.812 306.11 233.769 305.985Z" clip-rule="evenodd"/><path fill="#F96132" fill-rule="evenodd" d="M233.354 347.28C232.559 347.194 231.807 346.873 231.195 346.358C230.583 345.844 230.139 345.158 229.919 344.389C229.699 343.62 229.713 342.803 229.96 342.043C230.207 341.282 230.675 340.613 231.305 340.119C231.935 339.626 232.697 339.332 233.495 339.275C234.292 339.217 235.089 339.399 235.783 339.797C236.477 340.195 237.036 340.79 237.39 341.508C237.743 342.225 237.874 343.032 237.767 343.824C237.639 344.867 237.103 345.817 236.275 346.465C235.448 347.112 234.397 347.406 233.354 347.28Z" clip-rule="evenodd"/><path fill="#F96132" fill-rule="evenodd" d="M245.383 176.344C245.627 175.468 246.209 174.724 247.001 174.277C247.793 173.83 248.73 173.715 249.607 173.958L284.931 183.788C285.807 184.027 286.553 184.604 287.004 185.392C287.455 186.181 287.574 187.116 287.336 187.992C287.216 188.427 287.011 188.833 286.734 189.188C286.456 189.543 286.111 189.84 285.719 190.062C285.327 190.284 284.895 190.427 284.447 190.482C284 190.536 283.546 190.502 283.112 190.382L247.792 180.552C246.914 180.313 246.167 179.735 245.716 178.946C245.264 178.157 245.144 177.221 245.383 176.344Z" clip-rule="evenodd"/><path fill="#3541D1" fill-rule="evenodd" d="M243.057 219.721C243.301 218.845 243.884 218.102 244.675 217.655C245.467 217.208 246.405 217.093 247.281 217.336L282.605 227.139C283.039 227.26 283.445 227.465 283.8 227.742C284.155 228.02 284.451 228.364 284.673 228.757C284.895 229.149 285.037 229.581 285.091 230.028C285.146 230.475 285.112 230.929 284.991 231.363C284.871 231.797 284.666 232.203 284.389 232.558C284.111 232.913 283.767 233.21 283.374 233.432C282.982 233.653 282.55 233.795 282.102 233.85C281.655 233.904 281.201 233.869 280.767 233.748L245.447 223.937C244.572 223.693 243.829 223.113 243.381 222.323C242.933 221.533 242.817 220.597 243.057 219.721Z" clip-rule="evenodd"/><path fill="#F7A501" fill-rule="evenodd" d="M242.656 262.124C242.901 261.249 243.482 260.507 244.272 260.06C245.062 259.613 245.997 259.497 246.873 259.738L282.197 269.568C282.631 269.689 283.037 269.893 283.392 270.171C283.747 270.449 284.043 270.793 284.265 271.185C284.487 271.578 284.629 272.01 284.683 272.457C284.738 272.904 284.704 273.357 284.583 273.791C284.339 274.667 283.756 275.41 282.965 275.858C282.173 276.305 281.235 276.42 280.359 276.177L245.035 266.347C244.16 266.101 243.419 265.518 242.973 264.726C242.527 263.935 242.413 262.999 242.656 262.124Z" clip-rule="evenodd"/><path fill="#F96132" fill-rule="evenodd" d="M241.579 304.726C241.823 303.85 242.405 303.107 243.197 302.66C243.989 302.213 244.926 302.098 245.803 302.34L281.126 312.171C281.996 312.416 282.734 312.994 283.18 313.78C283.626 314.565 283.744 315.495 283.509 316.367C283.264 317.243 282.681 317.985 281.89 318.432C281.098 318.88 280.161 318.995 279.285 318.753L243.961 308.923C243.091 308.678 242.353 308.1 241.906 307.314C241.46 306.529 241.342 305.598 241.579 304.726Z" clip-rule="evenodd"/><path fill="#3541D1" fill-rule="evenodd" d="M241.159 346.021C241.402 345.145 241.984 344.402 242.775 343.954C243.566 343.507 244.503 343.392 245.379 343.635L280.703 353.465C281.137 353.586 281.543 353.791 281.898 354.068C282.253 354.346 282.549 354.69 282.771 355.082C282.992 355.475 283.135 355.907 283.189 356.354C283.244 356.801 283.21 357.254 283.089 357.688C282.968 358.122 282.763 358.528 282.486 358.883C282.208 359.238 281.863 359.534 281.471 359.756C281.079 359.978 280.647 360.12 280.2 360.174C279.753 360.229 279.299 360.195 278.865 360.074L243.545 350.244C243.11 350.124 242.704 349.919 242.349 349.642C241.994 349.364 241.697 349.02 241.475 348.627C241.254 348.235 241.112 347.803 241.057 347.355C241.003 346.908 241.037 346.455 241.159 346.021Z" clip-rule="evenodd"/></g><g clip-path="url(#clip1)"><path fill="#596590" fill-rule="evenodd" d="M29.1172 77.9147L134.056 108.634V337.376L29.1172 306.656V77.9147Z" clip-rule="evenodd"/><path fill="#35416B" fill-rule="evenodd" d="M133.951 108.68L199.826 54.3752V283.007L133.951 337.315V108.68Z" clip-rule="evenodd"/><path fill="#A1AEDA" fill-rule="evenodd" d="M29.2041 77.9715L134.007 108.744L199.883 54.4546L99.625 30.1172L29.2041 77.9715Z" clip-rule="evenodd"/><path fill-rule="evenodd" stroke="#fff" stroke-linecap="round" stroke-linejoin="round" stroke-width=".622" d="M147.833 170.043L190.493 137.096C191.699 136.166 192.671 136.643 192.671 138.163V165.876C192.625 166.724 192.408 167.554 192.034 168.316C191.66 169.078 191.136 169.756 190.493 170.311L147.833 203.258C146.63 204.188 145.655 203.711 145.655 202.191V174.481C145.701 173.633 145.918 172.803 146.292 172.041C146.667 171.278 147.191 170.599 147.833 170.043V170.043Z" clip-rule="evenodd"/><path fill="#F96132" fill-rule="evenodd" d="M149.667 172.761L152.734 170.326C153.112 170.035 153.399 170.179 153.399 170.648V194.312C153.384 194.574 153.318 194.83 153.204 195.067C153.09 195.303 152.93 195.514 152.734 195.688L149.667 198.127C149.289 198.418 149.005 198.274 149.005 197.806V174.119C149.038 173.597 149.276 173.109 149.667 172.761Z" clip-rule="evenodd"/><path fill="#fff" fill-rule="evenodd" d="M156.565 178.678L159.631 176.243C160.01 175.952 160.297 176.096 160.301 176.565L160.376 189.223C160.363 189.485 160.298 189.742 160.184 189.978C160.071 190.214 159.911 190.425 159.715 190.599L156.648 193.034C156.27 193.329 155.982 193.185 155.978 192.717L155.903 180.054C155.917 179.793 155.982 179.536 156.096 179.3C156.21 179.064 156.369 178.853 156.565 178.678Z" clip-rule="evenodd"/><path fill="#F7A501" fill-rule="evenodd" d="M163.53 168.693L166.605 166.251C166.983 165.959 167.267 166.568 167.267 166.568L167.558 183.412C167.544 183.672 167.478 183.926 167.365 184.16C167.252 184.394 167.094 184.604 166.9 184.777L163.822 187.219C163.443 187.51 163.164 187.367 163.164 186.902L162.869 170.058C162.869 169.593 163.53 168.693 163.53 168.693Z" clip-rule="evenodd"/><path fill="#F96132" fill-rule="evenodd" d="M170.511 169.113L173.578 166.678C173.956 166.387 174.243 166.999 174.243 166.999L174.323 177.525C174.308 177.786 174.243 178.042 174.129 178.277C174.016 178.513 173.856 178.724 173.661 178.898L170.594 181.336C170.216 181.627 169.929 181.484 169.929 181.015L169.849 170.489C169.849 170.02 170.511 169.113 170.511 169.113Z" clip-rule="evenodd"/><path fill="#0316F0" fill-rule="evenodd" d="M177.651 157.282L180.718 154.848C181.096 154.556 181.38 155.169 181.38 155.169L181.459 172.311C181.444 172.573 181.378 172.83 181.264 173.066C181.15 173.302 180.99 173.513 180.793 173.688L177.727 176.122C177.348 176.414 177.065 176.27 177.065 175.801L176.985 158.659C176.985 158.19 177.651 157.282 177.651 157.282Z" clip-rule="evenodd"/><path fill="#fff" fill-rule="evenodd" d="M184.976 145.361L188.043 142.926C188.421 142.635 188.708 142.779 188.708 143.248V166.942C188.694 167.204 188.627 167.461 188.513 167.697C188.399 167.933 188.239 168.145 188.043 168.319L184.976 170.754C184.598 171.045 184.314 170.901 184.314 170.432V146.738C184.328 146.476 184.394 146.219 184.507 145.983C184.621 145.747 184.78 145.536 184.976 145.361Z" clip-rule="evenodd"/><path fill="#fff" fill-rule="evenodd" d="M46.0434 96.3578L116.823 115.825C117.812 116.14 118.68 116.751 119.309 117.575C119.938 118.4 120.298 119.398 120.34 120.434V148.137C120.34 150.152 118.763 151.35 116.823 150.813L46.0434 131.346C45.0552 131.031 44.1879 130.42 43.5594 129.596C42.9308 128.771 42.5715 127.773 42.5303 126.737V99.0347C42.5303 97.0195 44.1072 95.8209 46.0434 96.3578Z" clip-rule="evenodd"/><path fill="#fff" fill-rule="evenodd" d="M45.7035 140.518L116.484 159.986C117.473 160.301 118.34 160.912 118.97 161.738C119.599 162.563 119.959 163.562 120.001 164.598V192.301C120.001 194.312 118.427 195.511 116.484 194.977L45.7035 175.51C44.7151 175.195 43.8477 174.583 43.2192 173.758C42.5906 172.932 42.2315 171.934 42.1904 170.897V143.195C42.1904 141.184 43.7636 139.985 45.7035 140.518Z" clip-rule="evenodd"/><path fill="#fff" fill-rule="evenodd" d="M45.0224 182.97L115.806 202.452C116.794 202.767 117.662 203.378 118.29 204.202C118.919 205.027 119.278 206.025 119.319 207.061V234.767C119.319 236.782 117.746 237.977 115.806 237.444L45.0224 217.973C44.0342 217.658 43.167 217.047 42.5384 216.222C41.9099 215.398 41.5505 214.4 41.5093 213.364V185.661C41.5093 183.646 43.0824 182.448 45.0224 182.97Z" clip-rule="evenodd"/><path fill="#fff" fill-rule="evenodd" d="M45.3628 225.788L116.143 245.255C117.132 245.569 118 246.179 118.63 247.004C119.259 247.829 119.619 248.827 119.66 249.864V277.566C119.66 279.582 118.087 280.78 116.143 280.243L45.3628 260.776C44.3726 260.463 43.5028 259.853 42.8721 259.028C42.2414 258.203 41.8804 257.204 41.8384 256.167V228.464C41.8384 226.449 43.4229 225.255 45.3628 225.788Z" clip-rule="evenodd"/><path fill="#fff" fill-rule="evenodd" d="M45.0224 266.904L115.806 286.361C116.794 286.675 117.662 287.286 118.29 288.111C118.919 288.935 119.278 289.934 119.319 290.97V318.672C119.319 320.687 117.746 321.886 115.806 321.352L45.0224 301.881C44.0342 301.567 43.167 300.955 42.5384 300.131C41.9099 299.306 41.5505 298.308 41.5093 297.272V269.57C41.5093 267.555 43.0824 266.356 45.0224 266.904Z" clip-rule="evenodd"/><path fill="#F96132" fill-rule="evenodd" d="M54.1401 120.389C53.3451 120.303 52.5939 119.981 51.9826 119.466C51.3712 118.951 50.9274 118.265 50.708 117.496C50.4886 116.727 50.5035 115.911 50.7508 115.15C50.9981 114.39 51.4665 113.721 52.0962 113.228C52.726 112.735 53.4883 112.442 54.2859 112.385C55.0835 112.327 55.88 112.509 56.5736 112.907C57.2672 113.305 57.8264 113.9 58.1797 114.618C58.533 115.335 58.6644 116.141 58.557 116.933C58.4293 117.977 57.8923 118.927 57.0641 119.575C56.2358 120.223 55.1841 120.516 54.1401 120.389Z" clip-rule="evenodd"/><path fill="#F7A501" fill-rule="evenodd" d="M51.8143 163.763C51.0193 163.676 50.268 163.355 49.6566 162.839C49.0453 162.324 48.6017 161.638 48.3825 160.869C48.1633 160.1 48.1785 159.283 48.4261 158.523C48.6738 157.762 49.1426 157.093 49.7727 156.601C50.4028 156.108 51.1655 155.815 51.9633 155.758C52.761 155.702 53.5575 155.884 54.251 156.282C54.9444 156.681 55.5032 157.277 55.856 157.994C56.2088 158.712 56.3394 159.519 56.2312 160.311C56.1681 160.828 56.0037 161.327 55.7475 161.78C55.4913 162.233 55.1483 162.631 54.7381 162.952C54.3279 163.272 53.8586 163.509 53.3569 163.648C52.8553 163.787 52.3311 163.826 51.8143 163.763Z" clip-rule="evenodd"/><path fill="#3541D1" fill-rule="evenodd" d="M51.4135 206.169C50.6185 206.083 49.8673 205.761 49.256 205.246C48.6446 204.731 48.2009 204.045 47.9815 203.276C47.762 202.507 47.7769 201.691 48.0242 200.93C48.2715 200.17 48.74 199.501 49.3697 199.008C49.9994 198.515 50.7618 198.222 51.5594 198.164C52.3569 198.107 53.1534 198.289 53.8471 198.687C54.5407 199.085 55.0999 199.68 55.4532 200.397C55.8065 201.115 55.9378 201.921 55.8304 202.713C55.7677 203.23 55.6036 203.73 55.3476 204.183C55.0916 204.637 54.7487 205.036 54.3385 205.356C53.9283 205.677 53.4588 205.914 52.9569 206.054C52.455 206.193 51.9305 206.232 51.4135 206.169Z" clip-rule="evenodd"/><path fill="#F96132" fill-rule="evenodd" d="M50.3323 248.756C49.537 248.671 48.7854 248.35 48.1735 247.835C47.5616 247.32 47.1172 246.635 46.8972 245.866C46.6773 245.097 46.6916 244.28 46.9386 243.519C47.1855 242.759 47.6537 242.089 48.2834 241.596C48.9131 241.103 49.6755 240.809 50.4732 240.752C51.271 240.694 52.0677 240.876 52.7615 241.274C53.4554 241.671 54.0148 242.267 54.3682 242.984C54.7216 243.702 54.8529 244.508 54.7454 245.301C54.6177 246.344 54.0813 247.293 53.2538 247.941C52.4264 248.589 51.3757 248.882 50.3323 248.756Z" clip-rule="evenodd"/><path fill="#F7A501" fill-rule="evenodd" d="M49.9124 290.066C49.1167 289.982 48.3642 289.662 47.7512 289.148C47.1382 288.634 46.6926 287.949 46.4715 287.18C46.2504 286.411 46.2638 285.594 46.51 284.832C46.7562 284.071 47.224 283.401 47.8535 282.907C48.4831 282.413 49.2456 282.119 50.0437 282.061C50.8417 282.003 51.6389 282.184 52.3332 282.582C53.0275 282.98 53.5872 283.575 53.9408 284.293C54.2944 285.011 54.4257 285.817 54.318 286.61C54.1903 287.652 53.6549 288.6 52.8292 289.248C52.0035 289.896 50.9546 290.19 49.9124 290.066Z" clip-rule="evenodd"/><path fill="#3541D1" fill-rule="evenodd" d="M66.5775 123.61C65.7826 123.524 65.0314 123.203 64.4201 122.687C63.8087 122.172 63.3649 121.486 63.1455 120.717C62.9261 119.949 62.941 119.132 63.1883 118.372C63.4356 117.611 63.904 116.942 64.5337 116.449C65.1635 115.957 65.9258 115.663 66.7234 115.606C67.521 115.549 68.3175 115.73 69.0111 116.128C69.7047 116.526 70.2639 117.122 70.6172 117.839C70.9705 118.556 71.1018 119.362 70.9944 120.154C70.8668 121.198 70.3298 122.148 69.5016 122.796C68.6733 123.445 67.6215 123.737 66.5775 123.61Z" clip-rule="evenodd"/><path fill="#F96132" fill-rule="evenodd" d="M64.256 166.977C63.4619 166.887 62.7125 166.564 62.1033 166.046C61.4942 165.529 61.053 164.843 60.836 164.074C60.6191 163.305 60.6363 162.489 60.8854 161.73C61.1345 160.971 61.6042 160.303 62.2345 159.812C62.8649 159.321 63.6273 159.029 64.4244 158.973C65.2215 158.918 66.0171 159.101 66.7097 159.499C67.4023 159.897 67.9604 160.493 68.3127 161.21C68.6651 161.927 68.7958 162.733 68.688 163.525C68.6244 164.043 68.4592 164.543 68.2019 164.997C67.9446 165.451 67.6002 165.849 67.1885 166.17C66.7768 166.491 66.3058 166.727 65.8026 166.865C65.2994 167.004 64.7738 167.042 64.256 166.977Z" clip-rule="evenodd"/><path fill="#F7A501" fill-rule="evenodd" d="M63.851 209.382C63.056 209.296 62.3048 208.975 61.6935 208.46C61.0821 207.944 60.6384 207.259 60.419 206.49C60.1995 205.721 60.2144 204.904 60.4617 204.144C60.709 203.384 61.1774 202.714 61.8072 202.222C62.4369 201.729 63.1993 201.435 63.9969 201.378C64.7944 201.321 65.5909 201.503 66.2846 201.901C66.9782 202.298 67.5374 202.894 67.8907 203.611C68.244 204.328 68.3753 205.135 68.2679 205.927C68.1402 206.971 67.6033 207.921 66.775 208.569C65.9467 209.217 64.895 209.51 63.851 209.382Z" clip-rule="evenodd"/><path fill="#F7A501" fill-rule="evenodd" d="M62.7694 251.985C61.9737 251.901 61.2211 251.582 60.6081 251.067C59.9951 250.553 59.5495 249.868 59.3284 249.099C59.1073 248.33 59.1207 247.513 59.3669 246.752C59.6131 245.991 60.0809 245.32 60.7105 244.826C61.34 244.333 62.1026 244.038 62.9006 243.98C63.6987 243.922 64.4959 244.103 65.1901 244.501C65.8844 244.899 66.4441 245.495 66.7977 246.212C67.1513 246.93 67.2827 247.737 67.1749 248.529C67.0482 249.571 66.5131 250.52 65.6871 251.168C64.8611 251.816 63.8118 252.11 62.7694 251.985Z" clip-rule="evenodd"/><path fill="#F96132" fill-rule="evenodd" d="M62.3537 293.28C61.5585 293.194 60.8069 292.873 60.195 292.358C59.5831 291.844 59.1387 291.158 58.9187 290.389C58.6987 289.62 58.7131 288.803 58.9601 288.043C59.207 287.282 59.6752 286.613 60.3049 286.119C60.9345 285.626 61.697 285.332 62.4947 285.275C63.2925 285.217 64.0892 285.399 64.783 285.797C65.4769 286.195 66.0362 286.79 66.3896 287.508C66.743 288.225 66.8744 289.032 66.7668 289.824C66.6392 290.867 66.1027 291.817 65.2753 292.465C64.4479 293.112 63.3971 293.406 62.3537 293.28Z" clip-rule="evenodd"/><path fill="#F96132" fill-rule="evenodd" d="M74.3827 122.344C74.6272 121.468 75.2093 120.724 76.0012 120.277C76.7932 119.83 77.7302 119.715 78.6068 119.958L113.931 129.788C114.807 130.027 115.553 130.604 116.004 131.392C116.455 132.181 116.574 133.116 116.336 133.992C116.216 134.427 116.011 134.833 115.734 135.188C115.456 135.543 115.111 135.84 114.719 136.062C114.327 136.284 113.895 136.427 113.447 136.482C113 136.536 112.546 136.502 112.112 136.382L76.7916 126.552C75.9142 126.313 75.1675 125.735 74.7158 124.946C74.2641 124.157 74.1443 123.221 74.3827 122.344Z" clip-rule="evenodd"/><path fill="#3541D1" fill-rule="evenodd" d="M72.057 165.721C72.3015 164.845 72.8836 164.102 73.6755 163.655C74.4674 163.208 75.4045 163.093 76.2811 163.336L111.605 173.139C112.039 173.26 112.445 173.465 112.8 173.742C113.155 174.02 113.451 174.364 113.673 174.757C113.895 175.149 114.037 175.581 114.091 176.028C114.146 176.475 114.112 176.929 113.991 177.363C113.871 177.797 113.666 178.203 113.389 178.558C113.111 178.913 112.767 179.21 112.374 179.432C111.982 179.653 111.55 179.795 111.102 179.85C110.655 179.904 110.201 179.869 109.767 179.748L74.447 169.937C73.5719 169.693 72.829 169.113 72.3811 168.323C71.9331 167.533 71.8166 166.597 72.057 165.721Z" clip-rule="evenodd"/><path fill="#F7A501" fill-rule="evenodd" d="M71.6564 208.124C71.901 207.249 72.4819 206.507 73.2721 206.06C74.0623 205.613 74.9974 205.497 75.8729 205.738L111.197 215.568C111.631 215.689 112.037 215.893 112.392 216.171C112.747 216.449 113.043 216.793 113.265 217.185C113.487 217.578 113.629 218.01 113.683 218.457C113.738 218.904 113.704 219.357 113.583 219.791C113.339 220.667 112.756 221.41 111.965 221.858C111.173 222.305 110.235 222.42 109.359 222.177L74.0351 212.347C73.1604 212.101 72.4189 211.518 71.973 210.726C71.5272 209.935 71.4133 208.999 71.6564 208.124Z" clip-rule="evenodd"/><path fill="#F96132" fill-rule="evenodd" d="M70.5785 250.726C70.823 249.85 71.4051 249.107 72.197 248.66C72.9889 248.213 73.926 248.098 74.8025 248.34L110.126 258.171C110.996 258.416 111.734 258.994 112.18 259.78C112.626 260.565 112.744 261.495 112.509 262.367C112.264 263.243 111.681 263.985 110.89 264.432C110.098 264.88 109.161 264.995 108.285 264.753L72.9609 254.923C72.0909 254.678 71.3526 254.1 70.9064 253.314C70.4603 252.529 70.3425 251.598 70.5785 250.726Z" clip-rule="evenodd"/><path fill="#3541D1" fill-rule="evenodd" d="M70.1586 292.021C70.4022 291.145 70.9836 290.402 71.7749 289.954C72.5662 289.507 73.5028 289.392 74.3789 289.635L109.703 299.465C110.137 299.586 110.543 299.791 110.898 300.068C111.253 300.346 111.549 300.69 111.771 301.082C111.992 301.475 112.135 301.907 112.189 302.354C112.244 302.801 112.21 303.254 112.089 303.688C111.968 304.122 111.763 304.528 111.486 304.883C111.208 305.238 110.863 305.534 110.471 305.756C110.079 305.978 109.647 306.12 109.2 306.174C108.753 306.229 108.299 306.195 107.865 306.074L72.5448 296.244C72.1105 296.124 71.7041 295.919 71.349 295.642C70.9939 295.364 70.697 295.02 70.4753 294.627C70.2537 294.235 70.1116 293.803 70.0572 293.355C70.0029 292.908 70.0373 292.455 70.1586 292.021Z" clip-rule="evenodd"/></g><defs><clipPath id="clip0"><rect width="171" height="307.489" fill="#fff" transform="translate(200 84)"/></clipPath><clipPath id="clip1"><rect width="171" height="307.489" fill="#fff" transform="translate(29 30)"/></clipPath></defs></svg>