<svg width="671" height="584" viewBox="0 0 671 584" fill="none" xmlns="http://www.w3.org/2000/svg">
<rect x="1" width="549" height="555" rx="77" fill="#F7A501"/>
<g clip-path="url(#clip0)">
<path fill-rule="evenodd" clip-rule="evenodd" d="M0.169373 72.2148L151.759 116.59V447.017L0.169373 402.641V72.2148Z" fill="#596590"/>
<path fill-rule="evenodd" clip-rule="evenodd" d="M151.606 116.656L246.765 38.2109V368.479L151.606 446.93V116.656Z" fill="#35416B"/>
<path fill-rule="evenodd" clip-rule="evenodd" d="M0.295044 72.2968L151.688 116.749L246.847 38.3256L102.021 3.16934L0.295044 72.2968Z" fill="#A1AEDA"/>
<path fill-rule="evenodd" clip-rule="evenodd" d="M171.659 205.298L233.283 157.705C235.026 156.362 236.43 157.05 236.43 159.245V199.279C236.363 200.503 236.05 201.702 235.509 202.803C234.969 203.903 234.212 204.884 233.283 205.685L171.659 253.278C169.922 254.621 168.513 253.933 168.513 251.738V211.709C168.58 210.484 168.893 209.285 169.434 208.184C169.974 207.082 170.731 206.101 171.659 205.298V205.298Z" stroke="white" stroke-width="0.898242" stroke-linecap="round" stroke-linejoin="round"/>
<path fill-rule="evenodd" clip-rule="evenodd" d="M174.309 209.224L178.739 205.707C179.285 205.287 179.7 205.494 179.7 206.171V240.356C179.679 240.734 179.583 241.104 179.418 241.446C179.253 241.787 179.022 242.092 178.739 242.344L174.309 245.866C173.762 246.287 173.353 246.079 173.353 245.402V211.185C173.4 210.431 173.744 209.727 174.309 209.224Z" fill="#F96132"/>
<path fill-rule="evenodd" clip-rule="evenodd" d="M184.272 217.772L188.703 214.255C189.249 213.834 189.664 214.042 189.669 214.719L189.779 233.004C189.76 233.383 189.665 233.753 189.501 234.095C189.337 234.436 189.106 234.741 188.823 234.992L184.393 238.51C183.846 238.936 183.431 238.728 183.426 238.051L183.316 219.76C183.337 219.382 183.431 219.012 183.596 218.67C183.76 218.329 183.99 218.024 184.272 217.772Z" fill="white"/>
<path fill-rule="evenodd" clip-rule="evenodd" d="M194.335 203.348L198.776 199.82C199.322 199.399 199.732 200.278 199.732 200.278L200.152 224.61C200.132 224.985 200.037 225.352 199.874 225.691C199.711 226.029 199.483 226.332 199.202 226.581L194.755 230.11C194.209 230.53 193.805 230.323 193.805 229.651L193.379 205.319C193.379 204.648 194.335 203.348 194.335 203.348Z" fill="#F7A501"/>
<path fill-rule="evenodd" clip-rule="evenodd" d="M204.419 203.954L208.849 200.437C209.395 200.016 209.81 200.901 209.81 200.901L209.925 216.106C209.904 216.483 209.809 216.853 209.645 217.193C209.481 217.533 209.251 217.838 208.969 218.089L204.539 221.611C203.993 222.032 203.577 221.824 203.577 221.147L203.463 205.942C203.463 205.265 204.419 203.954 204.419 203.954Z" fill="#F96132"/>
<path fill-rule="evenodd" clip-rule="evenodd" d="M214.732 186.865L219.162 183.347C219.709 182.927 220.118 183.812 220.118 183.812L220.233 208.575C220.212 208.953 220.116 209.323 219.951 209.665C219.786 210.006 219.555 210.311 219.272 210.563L214.841 214.08C214.295 214.5 213.886 214.293 213.886 213.616L213.771 188.853C213.771 188.175 214.732 186.865 214.732 186.865Z" fill="#0316F0"/>
<path fill-rule="evenodd" clip-rule="evenodd" d="M225.313 169.644L229.744 166.127C230.29 165.706 230.705 165.914 230.705 166.591V200.819C230.684 201.197 230.588 201.568 230.423 201.909C230.258 202.25 230.027 202.556 229.744 202.807L225.313 206.324C224.767 206.745 224.357 206.537 224.357 205.86V171.632C224.378 171.254 224.473 170.884 224.637 170.543C224.801 170.201 225.031 169.896 225.313 169.644Z" fill="white"/>
<path fill-rule="evenodd" clip-rule="evenodd" d="M24.6203 98.8565L126.865 126.978C128.293 127.432 129.547 128.315 130.456 129.506C131.365 130.697 131.885 132.139 131.945 133.636V173.653C131.945 176.564 129.667 178.295 126.865 177.52L24.6203 149.398C23.1929 148.944 21.94 148.061 21.0321 146.87C20.1241 145.679 19.6051 144.237 19.5455 142.74V102.723C19.5455 99.8123 21.8234 98.081 24.6203 98.8565Z" fill="white"/>
<path fill-rule="evenodd" clip-rule="evenodd" d="M24.1286 162.648L126.374 190.77C127.802 191.225 129.056 192.108 129.965 193.3C130.873 194.492 131.393 195.935 131.454 197.433V237.45C131.454 240.356 129.181 242.087 126.374 241.317L24.1286 213.195C22.7008 212.74 21.4478 211.856 20.5399 210.664C19.632 209.472 19.1131 208.029 19.0538 206.532V166.515C19.0538 163.609 21.3263 161.878 24.1286 162.648Z" fill="white"/>
<path fill-rule="evenodd" clip-rule="evenodd" d="M23.1454 223.971L125.396 252.114C126.823 252.569 128.076 253.451 128.984 254.643C129.892 255.834 130.411 257.276 130.471 258.772V298.795C130.471 301.706 128.198 303.432 125.396 302.661L23.1454 274.534C21.718 274.08 20.4652 273.197 19.5572 272.006C18.6492 270.815 18.1301 269.373 18.0706 267.877V227.859C18.0706 224.948 20.343 223.217 23.1454 223.971Z" fill="white"/>
<path fill-rule="evenodd" clip-rule="evenodd" d="M23.637 285.823L125.882 313.945C127.311 314.398 128.565 315.28 129.474 316.471C130.383 317.663 130.903 319.105 130.962 320.603V360.62C130.962 363.531 128.69 365.262 125.882 364.487L23.637 336.365C22.2065 335.913 20.9502 335.032 20.0391 333.841C19.128 332.649 18.6065 331.206 18.5458 329.707V289.69C18.5458 286.779 20.8346 285.053 23.637 285.823Z" fill="white"/>
<path fill-rule="evenodd" clip-rule="evenodd" d="M23.1454 345.218L125.396 373.324C126.823 373.778 128.076 374.661 128.984 375.852C129.892 377.043 130.411 378.485 130.471 379.981V419.998C130.471 422.909 128.198 424.641 125.396 423.871L23.1454 395.743C21.718 395.289 20.4652 394.406 19.5572 393.215C18.6492 392.024 18.1301 390.582 18.0706 389.086V349.069C18.0706 346.158 20.343 344.426 23.1454 345.218Z" fill="white"/>
<path fill-rule="evenodd" clip-rule="evenodd" d="M36.3158 133.57C35.1675 133.446 34.0823 132.982 33.1992 132.237C32.3161 131.493 31.6751 130.502 31.3581 129.392C31.0411 128.281 31.0626 127.101 31.4198 126.003C31.7771 124.905 32.4538 123.938 33.3634 123.226C34.2731 122.515 35.3744 122.09 36.5265 122.008C37.6786 121.925 38.8292 122.188 39.8312 122.763C40.8331 123.337 41.641 124.197 42.1513 125.233C42.6617 126.269 42.8514 127.434 42.6962 128.579C42.5118 130.086 41.7361 131.459 40.5397 132.395C39.3432 133.331 37.8239 133.754 36.3158 133.57Z" fill="#F96132"/>
<path fill-rule="evenodd" clip-rule="evenodd" d="M32.9563 196.226C31.8078 196.101 30.7225 195.637 29.8394 194.892C28.9563 194.147 28.3155 193.156 27.9988 192.045C27.6822 190.935 27.7041 189.755 28.0619 188.656C28.4196 187.558 29.0969 186.591 30.0071 185.88C30.9173 185.169 32.019 184.745 33.1714 184.663C34.3238 184.581 35.4744 184.845 36.4761 185.42C37.4778 185.996 38.2851 186.857 38.7947 187.893C39.3042 188.93 39.493 190.095 39.3367 191.239C39.2454 191.986 39.008 192.707 38.6379 193.361C38.2678 194.016 37.7723 194.591 37.1798 195.054C36.5873 195.517 35.9093 195.859 35.1846 196.06C34.46 196.261 33.7027 196.318 32.9563 196.226Z" fill="#F7A501"/>
<path fill-rule="evenodd" clip-rule="evenodd" d="M32.3773 257.483C31.2289 257.359 30.1438 256.894 29.2607 256.15C28.3775 255.406 27.7365 254.415 27.4196 253.304C27.1026 252.194 27.1241 251.014 27.4813 249.916C27.8385 248.818 28.5153 247.851 29.4249 247.139C30.3346 246.427 31.4359 246.003 32.588 245.921C33.7401 245.838 34.8907 246.101 35.8927 246.675C36.8946 247.25 37.7024 248.11 38.2128 249.146C38.7231 250.182 38.9128 251.347 38.7577 252.491C38.6671 253.238 38.4301 253.96 38.0603 254.615C37.6905 255.27 37.1951 255.846 36.6025 256.31C36.01 256.773 35.3318 257.116 34.6068 257.317C33.8817 257.518 33.1241 257.575 32.3773 257.483Z" fill="#3541D1"/>
<path fill-rule="evenodd" clip-rule="evenodd" d="M30.815 319.003C29.6663 318.879 28.5805 318.416 27.6966 317.672C26.8127 316.928 26.1707 315.938 25.853 314.827C25.5352 313.716 25.5559 312.536 25.9126 311.438C26.2693 310.339 26.9457 309.372 27.8553 308.659C28.7649 307.947 29.8663 307.522 31.0186 307.439C32.171 307.356 33.3219 307.619 34.3242 308.194C35.3264 308.768 36.1345 309.629 36.645 310.665C37.1555 311.701 37.3452 312.866 37.1899 314.011C37.0055 315.517 36.2306 316.889 35.0353 317.825C33.8401 318.761 32.3222 319.185 30.815 319.003Z" fill="#F96132"/>
<path fill-rule="evenodd" clip-rule="evenodd" d="M30.2086 378.676C29.0591 378.555 27.9721 378.093 27.0866 377.35C26.2011 376.607 25.5574 375.617 25.238 374.507C24.9185 373.396 24.9379 372.216 25.2936 371.116C25.6492 370.016 26.325 369.048 27.2344 368.335C28.1438 367.621 29.2454 367.196 30.3982 367.112C31.551 367.028 32.7025 367.29 33.7054 367.865C34.7083 368.439 35.5169 369.3 36.0277 370.337C36.5385 371.373 36.7282 372.539 36.5726 373.684C36.3881 375.189 35.6148 376.559 34.422 377.494C33.2292 378.43 31.7141 378.855 30.2086 378.676Z" fill="#F7A501"/>
<path fill-rule="evenodd" clip-rule="evenodd" d="M54.2826 138.224C53.1343 138.099 52.0492 137.635 51.1661 136.891C50.2829 136.146 49.6419 135.156 49.325 134.045C49.008 132.934 49.0295 131.755 49.3867 130.656C49.7439 129.558 50.4206 128.591 51.3303 127.88C52.2399 127.168 53.3412 126.744 54.4934 126.661C55.6455 126.578 56.7961 126.841 57.798 127.416C58.8 127.99 59.6078 128.851 60.1181 129.887C60.6285 130.923 60.8182 132.087 60.663 133.232C60.4786 134.74 59.703 136.112 58.5065 137.048C57.31 137.984 55.7908 138.407 54.2826 138.224Z" fill="#3541D1"/>
<path fill-rule="evenodd" clip-rule="evenodd" d="M50.9285 200.868C49.7815 200.739 48.6988 200.272 47.8189 199.525C46.939 198.778 46.3016 197.786 45.9883 196.675C45.6749 195.564 45.6997 194.386 46.0595 193.289C46.4193 192.193 47.0978 191.228 48.0084 190.519C48.919 189.81 50.0203 189.388 51.1717 189.307C52.3232 189.227 53.4725 189.491 54.473 190.067C55.4734 190.642 56.2796 191.503 56.7886 192.539C57.2977 193.574 57.4864 194.738 57.3307 195.882C57.2389 196.63 57.0003 197.353 56.6286 198.008C56.2569 198.664 55.7594 199.24 55.1646 199.703C54.5699 200.167 53.8896 200.508 53.1626 200.708C52.4357 200.908 51.6765 200.962 50.9285 200.868Z" fill="#F96132"/>
<path fill-rule="evenodd" clip-rule="evenodd" d="M50.344 262.125C49.1956 262.001 48.1105 261.537 47.2274 260.792C46.3442 260.048 45.7032 259.057 45.3862 257.947C45.0693 256.836 45.0908 255.656 45.448 254.558C45.8052 253.46 46.4819 252.493 47.3916 251.781C48.3012 251.07 49.4025 250.645 50.5547 250.563C51.7068 250.48 52.8574 250.743 53.8593 251.318C54.8613 251.892 55.6691 252.752 56.1794 253.789C56.6898 254.825 56.8795 255.989 56.7243 257.134C56.54 258.641 55.7643 260.014 54.5678 260.95C53.3714 261.886 51.8521 262.309 50.344 262.125Z" fill="#F7A501"/>
<path fill-rule="evenodd" clip-rule="evenodd" d="M48.7816 323.667C47.6322 323.545 46.5452 323.084 45.6596 322.341C44.7741 321.598 44.1305 320.608 43.811 319.498C43.4916 318.387 43.511 317.206 43.8666 316.107C44.2223 315.007 44.8981 314.039 45.8075 313.326C46.7168 312.612 47.8184 312.186 48.9712 312.103C50.124 312.019 51.2756 312.281 52.2785 312.856C53.2814 313.43 54.09 314.291 54.6008 315.328C55.1116 316.364 55.3013 317.53 55.1457 318.675C54.9625 320.18 54.1896 321.551 52.9964 322.487C51.8033 323.423 50.2874 323.847 48.7816 323.667Z" fill="#F7A501"/>
<path fill-rule="evenodd" clip-rule="evenodd" d="M48.1807 383.318C47.032 383.195 45.9463 382.732 45.0623 381.988C44.1784 381.244 43.5365 380.253 43.2187 379.143C42.9009 378.032 42.9217 376.852 43.2784 375.753C43.6351 374.655 44.3115 373.687 45.2211 372.975C46.1307 372.263 47.2321 371.838 48.3844 371.755C49.5368 371.672 50.6877 371.935 51.69 372.509C52.6922 373.084 53.5003 373.944 54.0108 374.981C54.5213 376.017 54.711 377.182 54.5557 378.326C54.3712 379.833 53.5964 381.205 52.4011 382.141C51.2059 383.077 49.688 383.5 48.1807 383.318Z" fill="#F96132"/>
<path fill-rule="evenodd" clip-rule="evenodd" d="M65.5575 136.394C65.9106 135.129 66.7515 134.055 67.8955 133.409C69.0395 132.763 70.3931 132.597 71.6593 132.948L122.686 147.148C123.952 147.493 125.029 148.326 125.681 149.465C126.332 150.604 126.505 151.955 126.16 153.221C125.987 153.849 125.691 154.436 125.29 154.949C124.89 155.462 124.392 155.891 123.825 156.212C123.258 156.532 122.634 156.738 121.988 156.817C121.341 156.896 120.686 156.847 120.059 156.673L69.0372 142.473C67.7697 142.128 66.6911 141.294 66.0386 140.154C65.3861 139.014 65.213 137.661 65.5575 136.394Z" fill="#F96132"/>
<path fill-rule="evenodd" clip-rule="evenodd" d="M62.198 199.055C62.5512 197.79 63.392 196.716 64.536 196.07C65.68 195.424 67.0337 195.258 68.2999 195.609L119.327 209.771C119.954 209.945 120.54 210.241 121.053 210.642C121.565 211.043 121.994 211.54 122.314 212.107C122.634 212.674 122.84 213.298 122.918 213.943C122.997 214.589 122.948 215.244 122.774 215.871C122.6 216.499 122.304 217.085 121.904 217.598C121.503 218.111 121.005 218.54 120.438 218.86C119.871 219.18 119.247 219.385 118.6 219.464C117.954 219.542 117.299 219.493 116.672 219.317L65.6504 205.145C64.3863 204.793 63.3133 203.954 62.6662 202.813C62.0191 201.671 61.8508 200.32 62.198 199.055Z" fill="#3541D1"/>
<path fill-rule="evenodd" clip-rule="evenodd" d="M61.619 260.307C61.9722 259.044 62.8114 257.972 63.9529 257.326C65.0943 256.681 66.4452 256.513 67.7099 256.86L118.737 271.061C119.364 271.235 119.95 271.531 120.463 271.932C120.976 272.333 121.404 272.831 121.724 273.397C122.044 273.964 122.25 274.588 122.328 275.233C122.407 275.879 122.358 276.534 122.184 277.161C121.831 278.427 120.99 279.5 119.846 280.146C118.702 280.792 117.348 280.958 116.082 280.608L65.055 266.407C63.7915 266.052 62.7204 265.21 62.0763 264.067C61.4323 262.923 61.2678 261.571 61.619 260.307Z" fill="#F7A501"/>
<path fill-rule="evenodd" clip-rule="evenodd" d="M60.0621 321.848C60.4153 320.583 61.2561 319.509 62.4001 318.863C63.5441 318.217 64.8977 318.051 66.1639 318.402L117.191 332.602C118.447 332.957 119.512 333.792 120.157 334.927C120.801 336.061 120.972 337.404 120.632 338.664C120.278 339.929 119.437 341.001 118.293 341.647C117.15 342.293 115.797 342.46 114.53 342.111L63.5036 327.91C62.2468 327.557 61.1803 326.722 60.5359 325.587C59.8914 324.452 59.7212 323.108 60.0621 321.848Z" fill="#F96132"/>
<path fill-rule="evenodd" clip-rule="evenodd" d="M59.4557 381.5C59.8076 380.235 60.6474 379.161 61.7905 378.515C62.9336 377.869 64.2865 377.703 65.552 378.053L116.579 392.254C117.206 392.428 117.792 392.724 118.305 393.125C118.818 393.525 119.246 394.023 119.566 394.59C119.886 395.156 120.092 395.78 120.171 396.426C120.249 397.072 120.2 397.727 120.026 398.354C119.852 398.981 119.556 399.567 119.155 400.08C118.754 400.592 118.256 401.021 117.689 401.341C117.122 401.661 116.498 401.866 115.852 401.945C115.206 402.024 114.551 401.975 113.924 401.8L62.9027 387.6C62.2752 387.427 61.6882 387.131 61.1752 386.73C60.6622 386.33 60.2334 385.832 59.9132 385.265C59.593 384.698 59.3877 384.074 59.3092 383.428C59.2307 382.782 59.2805 382.126 59.4557 381.5Z" fill="#3541D1"/>
</g>
<g clip-path="url(#clip1)">
<path fill-rule="evenodd" clip-rule="evenodd" d="M210.216 136.77L361.805 181.146V511.572L210.216 467.197V136.77Z" fill="#596590"/>
<path fill-rule="evenodd" clip-rule="evenodd" d="M361.652 181.211L456.812 102.766V433.035L361.652 511.485V181.211Z" fill="#35416B"/>
<path fill-rule="evenodd" clip-rule="evenodd" d="M210.341 136.852L361.734 181.304L456.894 102.881L312.067 67.7249L210.341 136.852Z" fill="#A1AEDA"/>
<path fill-rule="evenodd" clip-rule="evenodd" d="M381.705 269.853L443.33 222.261C445.073 220.917 446.476 221.605 446.476 223.801V263.834C446.41 265.059 446.097 266.257 445.556 267.358C445.015 268.459 444.258 269.439 443.33 270.241L381.705 317.833C379.968 319.177 378.559 318.489 378.559 316.293V276.265C378.626 275.04 378.94 273.841 379.48 272.739C380.021 271.638 380.778 270.656 381.705 269.853V269.853Z" stroke="white" stroke-width="0.898242" stroke-linecap="round" stroke-linejoin="round"/>
<path fill-rule="evenodd" clip-rule="evenodd" d="M384.355 273.78L388.785 270.263C389.331 269.842 389.747 270.05 389.747 270.727V304.911C389.725 305.29 389.63 305.66 389.465 306.001C389.3 306.342 389.069 306.648 388.785 306.899L384.355 310.422C383.809 310.842 383.399 310.635 383.399 309.958V275.741C383.447 274.987 383.79 274.282 384.355 273.78Z" fill="#F96132"/>
<path fill-rule="evenodd" clip-rule="evenodd" d="M394.319 282.327L398.749 278.81C399.295 278.39 399.71 278.597 399.716 279.274L399.825 297.56C399.806 297.938 399.712 298.309 399.548 298.65C399.384 298.992 399.153 299.297 398.869 299.548L394.439 303.065C393.893 303.491 393.478 303.284 393.472 302.606L393.363 284.315C393.383 283.937 393.478 283.567 393.642 283.226C393.806 282.885 394.036 282.579 394.319 282.327Z" fill="white"/>
<path fill-rule="evenodd" clip-rule="evenodd" d="M404.381 267.903L408.822 264.375C409.369 263.955 409.778 264.834 409.778 264.834L410.199 289.165C410.178 289.54 410.084 289.908 409.921 290.246C409.758 290.585 409.529 290.887 409.248 291.137L404.802 294.665C404.255 295.086 403.851 294.878 403.851 294.206L403.425 269.875C403.425 269.203 404.381 267.903 404.381 267.903Z" fill="#F7A501"/>
<path fill-rule="evenodd" clip-rule="evenodd" d="M414.465 268.51L418.895 264.992C419.442 264.572 419.857 265.457 419.857 265.457L419.971 280.662C419.951 281.039 419.856 281.408 419.692 281.748C419.528 282.089 419.298 282.393 419.016 282.644L414.585 286.167C414.039 286.587 413.624 286.38 413.624 285.703L413.509 270.498C413.509 269.82 414.465 268.51 414.465 268.51Z" fill="#F96132"/>
<path fill-rule="evenodd" clip-rule="evenodd" d="M424.779 251.42L429.209 247.903C429.755 247.482 430.165 248.367 430.165 248.367L430.28 273.13C430.258 273.508 430.163 273.879 429.998 274.22C429.833 274.561 429.602 274.867 429.318 275.118L424.888 278.635C424.342 279.056 423.932 278.848 423.932 278.171L423.817 253.408C423.817 252.731 424.779 251.42 424.779 251.42Z" fill="#0316F0"/>
<path fill-rule="evenodd" clip-rule="evenodd" d="M435.36 234.2L439.79 230.683C440.336 230.262 440.752 230.47 440.752 231.147V265.375C440.73 265.753 440.635 266.123 440.47 266.465C440.305 266.806 440.074 267.111 439.79 267.363L435.36 270.88C434.814 271.3 434.404 271.093 434.404 270.416V236.188C434.424 235.81 434.519 235.439 434.683 235.098C434.847 234.757 435.077 234.452 435.36 234.2Z" fill="white"/>
<path fill-rule="evenodd" clip-rule="evenodd" d="M234.667 163.412L336.912 191.534C338.34 191.988 339.593 192.87 340.502 194.062C341.411 195.253 341.931 196.695 341.992 198.192V238.209C341.992 241.12 339.714 242.851 336.912 242.075L234.667 213.954C233.239 213.499 231.986 212.617 231.079 211.425C230.171 210.234 229.652 208.792 229.592 207.296V167.279C229.592 164.368 231.87 162.637 234.667 163.412Z" fill="white"/>
<path fill-rule="evenodd" clip-rule="evenodd" d="M234.175 227.203L336.42 255.325C337.848 255.78 339.102 256.664 340.011 257.856C340.92 259.048 341.44 260.491 341.5 261.988V302.006C341.5 304.911 339.228 306.642 336.42 305.872L234.175 277.751C232.747 277.295 231.494 276.412 230.586 275.219C229.678 274.027 229.16 272.585 229.1 271.087V231.07C229.1 228.165 231.373 226.433 234.175 227.203Z" fill="white"/>
<path fill-rule="evenodd" clip-rule="evenodd" d="M233.192 288.526L335.442 316.67C336.87 317.124 338.122 318.007 339.03 319.198C339.938 320.389 340.457 321.831 340.517 323.328V363.35C340.517 366.261 338.244 367.987 335.442 367.217L233.192 339.09C231.764 338.636 230.512 337.753 229.604 336.562C228.696 335.37 228.177 333.929 228.117 332.432V292.415C228.117 289.504 230.389 287.773 233.192 288.526Z" fill="white"/>
<path fill-rule="evenodd" clip-rule="evenodd" d="M233.683 350.379L335.928 378.501C337.357 378.953 338.612 379.835 339.521 381.027C340.43 382.218 340.949 383.661 341.009 385.158V425.175C341.009 428.086 338.736 429.818 335.928 429.042L233.683 400.921C232.253 400.469 230.997 399.587 230.086 398.396C229.174 397.205 228.653 395.761 228.592 394.263V354.246C228.592 351.335 230.881 349.609 233.683 350.379Z" fill="white"/>
<path fill-rule="evenodd" clip-rule="evenodd" d="M233.192 409.774L335.442 437.879C336.87 438.333 338.122 439.216 339.03 440.407C339.938 441.599 340.457 443.04 340.517 444.537V484.554C340.517 487.465 338.244 489.196 335.442 488.426L233.192 460.299C231.764 459.845 230.512 458.962 229.604 457.771C228.696 456.58 228.177 455.138 228.117 453.641V413.624C228.117 410.713 230.389 408.982 233.192 409.774Z" fill="white"/>
<path fill-rule="evenodd" clip-rule="evenodd" d="M246.362 198.126C245.214 198.001 244.129 197.537 243.246 196.793C242.363 196.049 241.722 195.058 241.405 193.947C241.088 192.837 241.109 191.657 241.466 190.559C241.824 189.46 242.5 188.494 243.41 187.782C244.32 187.07 245.421 186.646 246.573 186.563C247.725 186.481 248.876 186.744 249.878 187.318C250.88 187.893 251.687 188.753 252.198 189.789C252.708 190.825 252.898 191.99 252.743 193.134C252.558 194.642 251.783 196.015 250.586 196.951C249.39 197.887 247.87 198.31 246.362 198.126Z" fill="#F96132"/>
<path fill-rule="evenodd" clip-rule="evenodd" d="M243.003 260.781C241.854 260.657 240.769 260.192 239.886 259.448C239.003 258.703 238.362 257.712 238.045 256.601C237.729 255.49 237.751 254.31 238.108 253.212C238.466 252.114 239.143 251.147 240.054 250.436C240.964 249.724 242.065 249.301 243.218 249.219C244.37 249.137 245.521 249.4 246.523 249.976C247.524 250.551 248.332 251.412 248.841 252.449C249.351 253.486 249.539 254.651 249.383 255.795C249.292 256.541 249.054 257.262 248.684 257.917C248.314 258.572 247.819 259.147 247.226 259.61C246.634 260.073 245.956 260.415 245.231 260.616C244.506 260.817 243.749 260.873 243.003 260.781Z" fill="#F7A501"/>
<path fill-rule="evenodd" clip-rule="evenodd" d="M242.424 322.039C241.275 321.914 240.19 321.45 239.307 320.706C238.424 319.961 237.783 318.97 237.466 317.86C237.149 316.749 237.171 315.57 237.528 314.471C237.885 313.373 238.562 312.406 239.471 311.695C240.381 310.983 241.482 310.559 242.634 310.476C243.787 310.393 244.937 310.656 245.939 311.231C246.941 311.805 247.749 312.666 248.259 313.702C248.77 314.738 248.959 315.902 248.804 317.047C248.714 317.794 248.477 318.515 248.107 319.17C247.737 319.826 247.242 320.402 246.649 320.865C246.056 321.329 245.378 321.671 244.653 321.872C243.928 322.074 243.171 322.13 242.424 322.039Z" fill="#3541D1"/>
<path fill-rule="evenodd" clip-rule="evenodd" d="M240.861 383.558C239.713 383.435 238.627 382.971 237.743 382.227C236.859 381.484 236.217 380.493 235.899 379.383C235.582 378.272 235.602 377.092 235.959 375.993C236.316 374.895 236.992 373.927 237.902 373.215C238.811 372.503 239.913 372.078 241.065 371.995C242.217 371.912 243.368 372.175 244.371 372.749C245.373 373.324 246.181 374.184 246.691 375.22C247.202 376.257 247.392 377.422 247.236 378.566C247.052 380.073 246.277 381.445 245.082 382.381C243.887 383.317 242.369 383.74 240.861 383.558Z" fill="#F96132"/>
<path fill-rule="evenodd" clip-rule="evenodd" d="M240.255 443.232C239.106 443.11 238.019 442.648 237.133 441.906C236.248 441.163 235.604 440.173 235.284 439.062C234.965 437.952 234.984 436.771 235.34 435.672C235.696 434.572 236.371 433.604 237.281 432.89C238.19 432.177 239.292 431.751 240.445 431.668C241.597 431.584 242.749 431.846 243.752 432.421C244.755 432.995 245.563 433.856 246.074 434.892C246.585 435.929 246.775 437.095 246.619 438.24C246.435 439.744 245.661 441.114 244.468 442.05C243.276 442.986 241.761 443.41 240.255 443.232Z" fill="#F7A501"/>
<path fill-rule="evenodd" clip-rule="evenodd" d="M264.329 202.779C263.181 202.655 262.096 202.191 261.212 201.446C260.329 200.702 259.688 199.711 259.371 198.601C259.054 197.49 259.076 196.31 259.433 195.212C259.79 194.114 260.467 193.147 261.377 192.435C262.286 191.724 263.388 191.299 264.54 191.217C265.692 191.134 266.842 191.397 267.844 191.971C268.846 192.546 269.654 193.406 270.165 194.442C270.675 195.478 270.865 196.643 270.709 197.787C270.525 199.295 269.749 200.668 268.553 201.604C267.356 202.54 265.837 202.963 264.329 202.779Z" fill="#3541D1"/>
<path fill-rule="evenodd" clip-rule="evenodd" d="M260.975 265.424C259.828 265.295 258.745 264.827 257.865 264.08C256.985 263.333 256.348 262.341 256.035 261.231C255.721 260.12 255.746 258.941 256.106 257.845C256.466 256.748 257.144 255.784 258.055 255.074C258.965 254.365 260.067 253.943 261.218 253.863C262.37 253.782 263.519 254.047 264.519 254.622C265.52 255.198 266.326 256.058 266.835 257.094C267.344 258.13 267.533 259.294 267.377 260.437C267.285 261.185 267.047 261.908 266.675 262.564C266.303 263.22 265.806 263.796 265.211 264.259C264.616 264.722 263.936 265.064 263.209 265.263C262.482 265.463 261.723 265.518 260.975 265.424Z" fill="#F96132"/>
<path fill-rule="evenodd" clip-rule="evenodd" d="M260.39 326.681C259.242 326.556 258.157 326.092 257.274 325.348C256.391 324.604 255.75 323.613 255.433 322.502C255.116 321.392 255.137 320.212 255.494 319.114C255.852 318.015 256.528 317.049 257.438 316.337C258.348 315.625 259.449 315.201 260.601 315.118C261.753 315.036 262.904 315.299 263.906 315.873C264.908 316.448 265.716 317.308 266.226 318.344C266.736 319.38 266.926 320.545 266.771 321.689C266.586 323.197 265.811 324.57 264.614 325.506C263.418 326.442 261.899 326.865 260.39 326.681Z" fill="#F7A501"/>
<path fill-rule="evenodd" clip-rule="evenodd" d="M258.828 388.222C257.679 388.101 256.592 387.639 255.706 386.897C254.821 386.154 254.177 385.164 253.857 384.053C253.538 382.943 253.557 381.762 253.913 380.662C254.269 379.563 254.945 378.594 255.854 377.881C256.763 377.168 257.865 376.742 259.018 376.658C260.17 376.575 261.322 376.837 262.325 377.411C263.328 377.986 264.136 378.847 264.647 379.883C265.158 380.92 265.348 382.085 265.192 383.23C265.009 384.736 264.236 386.107 263.043 387.042C261.85 387.978 260.334 388.403 258.828 388.222Z" fill="#F7A501"/>
<path fill-rule="evenodd" clip-rule="evenodd" d="M258.227 447.874C257.079 447.75 255.993 447.287 255.109 446.543C254.225 445.799 253.583 444.809 253.265 443.698C252.947 442.588 252.968 441.408 253.325 440.309C253.682 439.21 254.358 438.243 255.268 437.531C256.177 436.819 257.279 436.394 258.431 436.311C259.583 436.228 260.734 436.49 261.736 437.065C262.739 437.64 263.547 438.5 264.057 439.536C264.568 440.572 264.757 441.737 264.602 442.882C264.418 444.389 263.643 445.761 262.448 446.696C261.252 447.632 259.734 448.056 258.227 447.874Z" fill="#F96132"/>
<path fill-rule="evenodd" clip-rule="evenodd" d="M275.604 200.95C275.957 199.684 276.798 198.611 277.942 197.965C279.086 197.319 280.44 197.153 281.706 197.503L332.733 211.703C333.999 212.048 335.076 212.882 335.727 214.021C336.379 215.16 336.551 216.511 336.207 217.777C336.033 218.404 335.738 218.991 335.337 219.504C334.936 220.017 334.438 220.447 333.872 220.767C333.305 221.088 332.681 221.293 332.034 221.373C331.388 221.452 330.732 221.403 330.105 221.229L279.084 207.028C277.816 206.683 276.738 205.849 276.085 204.709C275.433 203.569 275.259 202.217 275.604 200.95Z" fill="#F96132"/>
<path fill-rule="evenodd" clip-rule="evenodd" d="M272.244 263.611C272.598 262.345 273.438 261.272 274.582 260.626C275.726 259.979 277.08 259.814 278.346 260.164L329.373 274.326C330 274.5 330.587 274.796 331.099 275.197C331.612 275.598 332.04 276.096 332.361 276.663C332.681 277.229 332.886 277.853 332.965 278.499C333.044 279.145 332.994 279.8 332.82 280.427C332.646 281.054 332.351 281.641 331.95 282.154C331.549 282.667 331.051 283.096 330.484 283.416C329.917 283.736 329.293 283.941 328.647 284.019C328.001 284.098 327.345 284.048 326.718 283.873L275.697 269.7C274.433 269.348 273.36 268.51 272.713 267.368C272.066 266.227 271.897 264.876 272.244 263.611Z" fill="#3541D1"/>
<path fill-rule="evenodd" clip-rule="evenodd" d="M271.665 324.862C272.019 323.599 272.858 322.528 273.999 321.882C275.141 321.236 276.492 321.069 277.756 321.416L328.783 335.616C329.41 335.79 329.997 336.086 330.509 336.487C331.022 336.888 331.451 337.386 331.771 337.953C332.091 338.519 332.296 339.143 332.375 339.789C332.454 340.435 332.405 341.09 332.23 341.717C331.877 342.982 331.036 344.056 329.892 344.702C328.748 345.348 327.395 345.514 326.128 345.163L275.101 330.963C273.838 330.608 272.767 329.766 272.123 328.622C271.479 327.479 271.314 326.127 271.665 324.862Z" fill="#F7A501"/>
<path fill-rule="evenodd" clip-rule="evenodd" d="M270.109 386.404C270.462 385.138 271.303 384.065 272.447 383.419C273.591 382.773 274.944 382.607 276.21 382.957L327.237 397.158C328.493 397.512 329.559 398.347 330.203 399.482C330.847 400.617 331.018 401.96 330.679 403.22C330.324 404.484 329.483 405.557 328.34 406.203C327.196 406.849 325.843 407.015 324.577 406.666L273.55 392.466C272.293 392.113 271.227 391.278 270.582 390.142C269.938 389.007 269.768 387.664 270.109 386.404Z" fill="#F96132"/>
<path fill-rule="evenodd" clip-rule="evenodd" d="M269.502 446.055C269.854 444.79 270.694 443.717 271.837 443.071C272.98 442.424 274.333 442.258 275.599 442.609L326.625 456.809C327.252 456.983 327.839 457.279 328.352 457.68C328.864 458.081 329.293 458.579 329.613 459.145C329.933 459.712 330.138 460.336 330.217 460.982C330.296 461.628 330.247 462.283 330.072 462.91C329.898 463.537 329.602 464.123 329.201 464.636C328.8 465.148 328.302 465.577 327.735 465.897C327.169 466.217 326.545 466.422 325.899 466.501C325.253 466.58 324.597 466.53 323.971 466.356L272.949 452.156C272.322 451.982 271.735 451.687 271.222 451.286C270.709 450.885 270.28 450.387 269.96 449.821C269.64 449.254 269.434 448.63 269.356 447.983C269.277 447.337 269.327 446.682 269.502 446.055Z" fill="#3541D1"/>
</g>
<g clip-path="url(#clip2)">
<path fill-rule="evenodd" clip-rule="evenodd" d="M424.116 209.034L575.706 253.41V583.836L424.116 539.461V209.034Z" fill="#596590"/>
<path fill-rule="evenodd" clip-rule="evenodd" d="M575.553 253.475L670.712 175.03V505.298L575.553 583.749V253.475Z" fill="#35416B"/>
<path fill-rule="evenodd" clip-rule="evenodd" d="M424.242 209.116L575.634 253.568L670.794 175.145L525.968 139.989L424.242 209.116Z" fill="#A1AEDA"/>
<path fill-rule="evenodd" clip-rule="evenodd" d="M595.606 342.117L657.23 294.524C658.973 293.181 660.377 293.869 660.377 296.065V336.098C660.31 337.323 659.997 338.521 659.456 339.622C658.916 340.723 658.159 341.703 657.23 342.505L595.606 390.097C593.869 391.44 592.46 390.752 592.46 388.557V348.529C592.527 347.304 592.84 346.104 593.381 345.003C593.921 343.901 594.678 342.92 595.606 342.117V342.117Z" stroke="white" stroke-width="0.898242" stroke-linecap="round" stroke-linejoin="round"/>
<path fill-rule="evenodd" clip-rule="evenodd" d="M598.255 346.044L602.686 342.526C603.232 342.106 603.647 342.313 603.647 342.991V377.175C603.626 377.553 603.53 377.924 603.365 378.265C603.2 378.606 602.969 378.911 602.686 379.163L598.255 382.686C597.709 383.106 597.299 382.899 597.299 382.221V348.004C597.347 347.25 597.691 346.546 598.255 346.044Z" fill="#F96132"/>
<path fill-rule="evenodd" clip-rule="evenodd" d="M608.219 354.591L612.65 351.074C613.196 350.653 613.611 350.861 613.616 351.538L613.726 369.823C613.707 370.202 613.612 370.572 613.448 370.914C613.284 371.255 613.053 371.56 612.77 371.811L608.339 375.329C607.793 375.755 607.378 375.547 607.373 374.87L607.263 356.579C607.284 356.201 607.378 355.831 607.543 355.49C607.707 355.148 607.937 354.843 608.219 354.591Z" fill="white"/>
<path fill-rule="evenodd" clip-rule="evenodd" d="M618.282 340.167L622.723 336.639C623.269 336.218 623.679 337.098 623.679 337.098L624.099 361.429C624.079 361.804 623.984 362.171 623.821 362.51C623.658 362.848 623.43 363.151 623.149 363.401L618.702 366.929C618.156 367.349 617.752 367.142 617.752 366.47L617.326 342.139C617.326 341.467 618.282 340.167 618.282 340.167Z" fill="#F7A501"/>
<path fill-rule="evenodd" clip-rule="evenodd" d="M628.366 340.773L632.796 337.256C633.342 336.835 633.757 337.72 633.757 337.72L633.872 352.925C633.851 353.302 633.756 353.672 633.592 354.012C633.428 354.352 633.198 354.657 632.916 354.908L628.486 358.431C627.94 358.851 627.524 358.644 627.524 357.966L627.41 342.761C627.41 342.084 628.366 340.773 628.366 340.773Z" fill="#F96132"/>
<path fill-rule="evenodd" clip-rule="evenodd" d="M638.679 323.684L643.109 320.167C643.656 319.746 644.065 320.631 644.065 320.631L644.18 345.394C644.159 345.772 644.063 346.143 643.898 346.484C643.733 346.825 643.502 347.13 643.219 347.382L638.788 350.899C638.242 351.32 637.832 351.112 637.832 350.435L637.718 325.672C637.718 324.995 638.679 323.684 638.679 323.684Z" fill="#0316F0"/>
<path fill-rule="evenodd" clip-rule="evenodd" d="M649.26 306.463L653.691 302.946C654.237 302.526 654.652 302.733 654.652 303.41V337.638C654.631 338.017 654.535 338.387 654.37 338.728C654.205 339.07 653.974 339.375 653.691 339.626L649.26 343.144C648.714 343.564 648.304 343.357 648.304 342.679V308.452C648.325 308.073 648.419 307.703 648.584 307.362C648.748 307.021 648.978 306.715 649.26 306.463Z" fill="white"/>
<path fill-rule="evenodd" clip-rule="evenodd" d="M448.567 235.676L550.812 263.797C552.24 264.252 553.494 265.134 554.403 266.325C555.311 267.516 555.832 268.958 555.892 270.455V310.472C555.892 313.383 553.614 315.115 550.812 314.339L448.567 286.217C447.14 285.763 445.887 284.88 444.979 283.689C444.071 282.498 443.552 281.056 443.492 279.56V239.543C443.492 236.632 445.77 234.9 448.567 235.676Z" fill="white"/>
<path fill-rule="evenodd" clip-rule="evenodd" d="M448.076 299.467L550.32 327.589C551.749 328.044 553.003 328.928 553.912 330.12C554.82 331.312 555.34 332.754 555.401 334.252V374.269C555.401 377.175 553.128 378.906 550.32 378.136L448.076 350.014C446.648 349.559 445.395 348.675 444.487 347.483C443.579 346.291 443.06 344.848 443.001 343.351V303.334C443.001 300.428 445.273 298.697 448.076 299.467Z" fill="white"/>
<path fill-rule="evenodd" clip-rule="evenodd" d="M447.092 360.79L549.343 388.934C550.77 389.388 552.023 390.271 552.931 391.462C553.839 392.653 554.358 394.095 554.417 395.591V435.614C554.417 438.525 552.145 440.251 549.343 439.481L447.092 411.353C445.665 410.899 444.412 410.016 443.504 408.825C442.596 407.634 442.077 406.192 442.018 404.696V364.679C442.018 361.768 444.29 360.036 447.092 360.79Z" fill="white"/>
<path fill-rule="evenodd" clip-rule="evenodd" d="M447.584 422.643L549.829 450.764C551.258 451.217 552.512 452.099 553.421 453.291C554.33 454.482 554.85 455.925 554.909 457.422V497.439C554.909 500.35 552.637 502.081 549.829 501.306L447.584 473.184C446.154 472.733 444.897 471.851 443.986 470.66C443.075 469.468 442.554 468.025 442.493 466.526V426.509C442.493 423.598 444.782 421.872 447.584 422.643Z" fill="white"/>
<path fill-rule="evenodd" clip-rule="evenodd" d="M447.092 482.037L549.343 510.143C550.77 510.597 552.023 511.48 552.931 512.671C553.839 513.862 554.358 515.304 554.417 516.801V556.818C554.417 559.729 552.145 561.46 549.343 560.69L447.092 532.563C445.665 532.108 444.412 531.226 443.504 530.034C442.596 528.843 442.077 527.401 442.018 525.905V485.888C442.018 482.977 444.29 481.246 447.092 482.037Z" fill="white"/>
<path fill-rule="evenodd" clip-rule="evenodd" d="M460.263 270.39C459.114 270.265 458.029 269.801 457.146 269.057C456.263 268.312 455.622 267.321 455.305 266.211C454.988 265.1 455.01 263.921 455.367 262.822C455.724 261.724 456.401 260.757 457.31 260.046C458.22 259.334 459.321 258.91 460.473 258.827C461.626 258.744 462.776 259.007 463.778 259.582C464.78 260.156 465.588 261.017 466.098 262.053C466.609 263.089 466.798 264.253 466.643 265.398C466.459 266.905 465.683 268.278 464.487 269.214C463.29 270.15 461.771 270.573 460.263 270.39Z" fill="#F96132"/>
<path fill-rule="evenodd" clip-rule="evenodd" d="M456.903 333.045C455.755 332.92 454.67 332.456 453.786 331.711C452.903 330.967 452.262 329.975 451.946 328.865C451.629 327.754 451.651 326.574 452.009 325.476C452.367 324.377 453.044 323.411 453.954 322.699C454.864 321.988 455.966 321.564 457.118 321.482C458.271 321.4 459.421 321.664 460.423 322.239C461.425 322.815 462.232 323.676 462.742 324.713C463.251 325.749 463.44 326.914 463.284 328.059C463.192 328.805 462.955 329.526 462.585 330.181C462.215 330.835 461.719 331.41 461.127 331.874C460.534 332.337 459.856 332.678 459.132 332.879C458.407 333.08 457.65 333.137 456.903 333.045Z" fill="#F7A501"/>
<path fill-rule="evenodd" clip-rule="evenodd" d="M456.324 394.302C455.176 394.178 454.091 393.714 453.208 392.969C452.325 392.225 451.683 391.234 451.367 390.124C451.05 389.013 451.071 387.833 451.428 386.735C451.785 385.637 452.462 384.67 453.372 383.958C454.282 383.247 455.383 382.822 456.535 382.74C457.687 382.657 458.838 382.92 459.84 383.494C460.842 384.069 461.649 384.929 462.16 385.965C462.67 387.001 462.86 388.166 462.705 389.31C462.614 390.057 462.377 390.779 462.007 391.434C461.637 392.089 461.142 392.665 460.55 393.129C459.957 393.592 459.279 393.935 458.554 394.136C457.829 394.337 457.071 394.394 456.324 394.302Z" fill="#3541D1"/>
<path fill-rule="evenodd" clip-rule="evenodd" d="M454.762 455.822C453.613 455.698 452.527 455.235 451.644 454.491C450.76 453.747 450.118 452.757 449.8 451.646C449.482 450.536 449.503 449.356 449.86 448.257C450.216 447.158 450.893 446.191 451.802 445.479C452.712 444.766 453.813 444.342 454.966 444.259C456.118 444.176 457.269 444.438 458.271 445.013C459.273 445.587 460.081 446.448 460.592 447.484C461.102 448.52 461.292 449.685 461.137 450.83C460.952 452.337 460.178 453.708 458.982 454.644C457.787 455.58 456.269 456.004 454.762 455.822Z" fill="#F96132"/>
<path fill-rule="evenodd" clip-rule="evenodd" d="M454.156 515.495C453.006 515.374 451.919 514.912 451.034 514.169C450.148 513.427 449.504 512.437 449.185 511.326C448.866 510.215 448.885 509.035 449.241 507.935C449.596 506.836 450.272 505.867 451.181 505.154C452.091 504.441 453.192 504.015 454.345 503.931C455.498 503.848 456.65 504.11 457.652 504.684C458.655 505.259 459.464 506.119 459.975 507.156C460.485 508.193 460.675 509.358 460.52 510.503C460.335 512.008 459.562 513.378 458.369 514.314C457.176 515.249 455.661 515.674 454.156 515.495Z" fill="#F7A501"/>
<path fill-rule="evenodd" clip-rule="evenodd" d="M478.23 275.043C477.081 274.918 475.996 274.454 475.113 273.71C474.23 272.966 473.589 271.975 473.272 270.864C472.955 269.754 472.976 268.574 473.334 267.476C473.691 266.377 474.368 265.411 475.277 264.699C476.187 263.987 477.288 263.563 478.44 263.48C479.592 263.398 480.743 263.66 481.745 264.235C482.747 264.81 483.555 265.67 484.065 266.706C484.575 267.742 484.765 268.907 484.61 270.051C484.426 271.559 483.65 272.932 482.453 273.868C481.257 274.804 479.738 275.226 478.23 275.043Z" fill="#3541D1"/>
<path fill-rule="evenodd" clip-rule="evenodd" d="M474.875 337.687C473.728 337.559 472.646 337.091 471.766 336.344C470.886 335.597 470.249 334.605 469.935 333.494C469.622 332.384 469.647 331.205 470.006 330.108C470.366 329.012 471.045 328.047 471.955 327.338C472.866 326.629 473.967 326.207 475.119 326.127C476.27 326.046 477.419 326.31 478.42 326.886C479.42 327.461 480.227 328.322 480.736 329.358C481.245 330.394 481.433 331.558 481.278 332.701C481.186 333.449 480.947 334.172 480.576 334.828C480.204 335.483 479.706 336.059 479.112 336.523C478.517 336.986 477.837 337.327 477.11 337.527C476.383 337.727 475.623 337.781 474.875 337.687Z" fill="#F96132"/>
<path fill-rule="evenodd" clip-rule="evenodd" d="M474.291 398.945C473.143 398.82 472.057 398.356 471.174 397.612C470.291 396.867 469.65 395.876 469.333 394.766C469.016 393.655 469.038 392.476 469.395 391.377C469.752 390.279 470.429 389.312 471.339 388.601C472.248 387.889 473.35 387.465 474.502 387.382C475.654 387.299 476.804 387.562 477.806 388.137C478.808 388.711 479.616 389.572 480.126 390.608C480.637 391.644 480.827 392.808 480.671 393.953C480.487 395.46 479.711 396.833 478.515 397.769C477.318 398.705 475.799 399.128 474.291 398.945Z" fill="#F7A501"/>
<path fill-rule="evenodd" clip-rule="evenodd" d="M472.729 460.486C471.579 460.365 470.492 459.903 469.607 459.16C468.721 458.418 468.077 457.427 467.758 456.317C467.439 455.206 467.458 454.026 467.814 452.926C468.169 451.827 468.845 450.858 469.754 450.145C470.664 449.431 471.765 449.006 472.918 448.922C474.071 448.838 475.223 449.101 476.225 449.675C477.228 450.25 478.037 451.11 478.548 452.147C479.059 453.184 479.248 454.349 479.093 455.494C478.909 456.999 478.137 458.37 476.943 459.306C475.75 460.242 474.234 460.666 472.729 460.486Z" fill="#F7A501"/>
<path fill-rule="evenodd" clip-rule="evenodd" d="M472.128 520.138C470.979 520.014 469.893 519.551 469.009 518.807C468.125 518.063 467.483 517.073 467.166 515.962C466.848 514.851 466.869 513.671 467.225 512.573C467.582 511.474 468.259 510.507 469.168 509.794C470.078 509.082 471.179 508.657 472.331 508.574C473.484 508.491 474.635 508.754 475.637 509.329C476.639 509.903 477.447 510.764 477.958 511.8C478.468 512.836 478.658 514.001 478.503 515.146C478.318 516.652 477.543 518.024 476.348 518.96C475.153 519.896 473.635 520.32 472.128 520.138Z" fill="#F96132"/>
<path fill-rule="evenodd" clip-rule="evenodd" d="M489.504 273.213C489.858 271.948 490.698 270.874 491.842 270.228C492.986 269.582 494.34 269.416 495.606 269.767L546.633 283.967C547.899 284.312 548.976 285.146 549.628 286.285C550.279 287.424 550.452 288.774 550.107 290.04C549.934 290.668 549.638 291.255 549.237 291.768C548.837 292.281 548.339 292.71 547.772 293.031C547.205 293.351 546.581 293.557 545.935 293.636C545.288 293.715 544.633 293.666 544.006 293.492L492.984 279.292C491.717 278.947 490.638 278.113 489.986 276.973C489.333 275.833 489.16 274.481 489.504 273.213Z" fill="#F96132"/>
<path fill-rule="evenodd" clip-rule="evenodd" d="M486.145 335.874C486.498 334.609 487.339 333.535 488.483 332.889C489.627 332.243 490.981 332.077 492.247 332.428L543.274 346.59C543.901 346.764 544.487 347.06 545 347.461C545.512 347.862 545.941 348.36 546.261 348.926C546.581 349.493 546.786 350.117 546.865 350.763C546.944 351.408 546.895 352.064 546.721 352.69C546.547 353.318 546.251 353.905 545.85 354.418C545.45 354.93 544.952 355.359 544.385 355.679C543.818 355.999 543.194 356.205 542.547 356.283C541.901 356.362 541.246 356.312 540.619 356.137L489.597 341.964C488.333 341.612 487.26 340.773 486.613 339.632C485.966 338.491 485.798 337.139 486.145 335.874Z" fill="#3541D1"/>
<path fill-rule="evenodd" clip-rule="evenodd" d="M485.566 397.126C485.919 395.863 486.758 394.792 487.9 394.146C489.041 393.5 490.392 393.332 491.657 393.68L542.684 407.88C543.311 408.054 543.897 408.35 544.41 408.751C544.922 409.152 545.351 409.65 545.671 410.216C545.991 410.783 546.197 411.407 546.275 412.053C546.354 412.699 546.305 413.354 546.131 413.98C545.777 415.246 544.937 416.319 543.793 416.965C542.649 417.612 541.295 417.777 540.029 417.427L489.002 403.227C487.738 402.871 486.667 402.03 486.023 400.886C485.379 399.743 485.215 398.39 485.566 397.126Z" fill="#F7A501"/>
<path fill-rule="evenodd" clip-rule="evenodd" d="M484.009 458.667C484.362 457.402 485.203 456.328 486.347 455.682C487.491 455.036 488.845 454.87 490.111 455.221L541.138 469.421C542.394 469.776 543.459 470.611 544.104 471.746C544.748 472.881 544.919 474.224 544.579 475.484C544.225 476.748 543.384 477.821 542.24 478.466C541.097 479.112 539.744 479.279 538.477 478.93L487.451 464.73C486.194 464.376 485.127 463.541 484.483 462.406C483.838 461.271 483.668 459.927 484.009 458.667Z" fill="#F96132"/>
<path fill-rule="evenodd" clip-rule="evenodd" d="M483.403 518.319C483.755 517.054 484.594 515.98 485.738 515.334C486.881 514.688 488.234 514.522 489.499 514.873L540.526 529.073C541.153 529.247 541.739 529.543 542.252 529.944C542.765 530.345 543.193 530.843 543.513 531.409C543.833 531.976 544.039 532.6 544.118 533.246C544.196 533.891 544.147 534.546 543.973 535.173C543.799 535.8 543.503 536.387 543.102 536.899C542.701 537.412 542.203 537.84 541.636 538.16C541.069 538.48 540.445 538.686 539.799 538.764C539.153 538.843 538.498 538.794 537.871 538.62L486.85 524.419C486.222 524.246 485.635 523.95 485.122 523.55C484.609 523.149 484.18 522.651 483.86 522.084C483.54 521.517 483.335 520.893 483.256 520.247C483.178 519.601 483.228 518.946 483.403 518.319Z" fill="#3541D1"/>
</g>
<defs>
<clipPath id="clip0">
<rect width="247.017" height="444.181" fill="white" transform="translate(0 3)"/>
</clipPath>
<clipPath id="clip1">
<rect width="247.017" height="444.181" fill="white" transform="translate(210.046 67.5555)"/>
</clipPath>
<clipPath id="clip2">
<rect width="247.017" height="444.181" fill="white" transform="translate(423.947 139.819)"/>
</clipPath>
</defs>
</svg>
