<svg fill="none" viewBox="0 0 119 119"><rect width="119" height="119" fill="#769FD1" rx="8"/><path fill="#232D4F" fill-rule="evenodd" d="M57.855 56.58l46.213-5.055 4.769 5.055v46.612h-50.99l.008-46.612z" clip-rule="evenodd"/><path fill="#4C5986" fill-rule="evenodd" d="M53.09 51.516h50.989v46.612h-50.99V51.516z" clip-rule="evenodd"/><path fill="#161E3A" fill-rule="evenodd" d="M53.084 98.12l4.814 5.229 50.961-.166-4.759-5.072-51.016.008z" clip-rule="evenodd"/><path fill="#fff" fill-rule="evenodd" d="M58.851 57.158h40.01v35.297H58.85V57.158z" clip-rule="evenodd"/><path fill="#232D4F" fill-rule="evenodd" d="M98.885 57.124v1.965l-37.59.042-2.523-1.997 40.113-.01z" clip-rule="evenodd"/><path fill="#769FD1" fill-rule="evenodd" d="M58.82 57.145l.02 35.327 2.356.017.114-33.374-2.49-1.97z" clip-rule="evenodd"/><path fill="#C14F0D" fill-rule="evenodd" d="M43.377 42.232l39.136-3.996 4.344 3.996v39.837h-43.48l-4.435-4.031 4.434-35.806z" clip-rule="evenodd"/><path fill="#F96132" fill-rule="evenodd" d="M39.029 38.331h43.48v39.837H39.03V38.331z" clip-rule="evenodd"/><path fill="#C14F0D" fill-rule="evenodd" d="M27.63 30.472l39.136-3.997 4.344 3.996v39.837H27.63l-4.43-4.03 4.43-35.806z" clip-rule="evenodd"/><path fill="#DC9300" fill-rule="evenodd" d="M27.63 30.472l39.136-3.997 4.344 3.996v39.837H27.63l-4.43-4.03 4.43-35.806z" clip-rule="evenodd"/><path fill="#F7A501" fill-rule="evenodd" d="M23.28 26.571h43.481v39.837h-43.48V26.571z" clip-rule="evenodd"/><path fill="#36426B" fill-rule="evenodd" d="M14.436 17.996L53.572 14l4.342 3.996v39.837H14.436L10 53.802l4.436-35.806z" clip-rule="evenodd"/><path fill="#68749E" fill-rule="evenodd" d="M10.088 14.095h43.484v39.837H10.088V14.095z" clip-rule="evenodd"/></svg>