<svg fill="none" viewBox="0 0 317 317"><rect width="317" height="317" fill="#F7A501" rx="19.464"/><g fill-rule="evenodd" clip-path="url(#clip0)" clip-rule="evenodd"><path fill="#596590" d="M158.593 104.542l83.164 24.346v181.277l-83.164-24.345V104.542z"/><path fill="#35416B" d="M241.674 128.924l52.206-43.037v181.191l-52.206 43.039V128.924z"/><path fill="#A1AEDA" d="M158.662 104.587l83.057 24.388 52.206-43.025-79.454-19.287-55.809 37.924z"/><path stroke="#fff" stroke-linecap="round" stroke-linejoin="round" stroke-width=".493" d="M252.675 177.554l33.808-26.11c.956-.737 1.727-.36 1.727.845v21.963a5.005 5.005 0 01-1.727 3.515l-33.808 26.11c-.953.737-1.726.359-1.726-.845v-21.96a5.02 5.02 0 011.726-3.518v0z"/><path fill="#F96132" d="M254.129 179.708l2.43-1.929c.3-.231.528-.117.528.254v18.754a1.59 1.59 0 01-.528 1.091l-2.43 1.933c-.3.23-.525.116-.525-.255v-18.772c.027-.414.215-.8.525-1.076z"/><path fill="#fff" d="M259.595 184.398l2.431-1.93c.299-.231.527-.117.53.255l.06 10.031a1.56 1.56 0 01-.524 1.091l-2.431 1.93c-.3.233-.527.119-.53-.252l-.06-10.035a1.578 1.578 0 01.524-1.09z"/><path fill="#F7A501" d="M265.115 176.484l2.437-1.935c.3-.231.524.251.524.251l.231 13.349a1.566 1.566 0 01-.521 1.082l-2.44 1.935c-.3.231-.521.117-.521-.251l-.234-13.349c0-.369.524-1.082.524-1.082z"/><path fill="#F96132" d="M270.648 176.817l2.43-1.93c.3-.231.528.255.528.255l.063 8.342a1.584 1.584 0 01-.525 1.087l-2.43 1.933c-.3.231-.528.117-.528-.255l-.063-8.341c0-.372.525-1.091.525-1.091z"/><path fill="#0316F0" d="M276.306 167.441l2.43-1.929c.3-.231.525.254.525.254l.063 13.586a1.576 1.576 0 01-.528 1.09l-2.43 1.93c-.3.231-.525.117-.525-.255l-.063-13.585c0-.372.528-1.091.528-1.091z"/><path fill="#fff" d="M282.111 157.994l2.43-1.93c.3-.23.528-.117.528.255v18.778a1.572 1.572 0 01-.528 1.091l-2.43 1.929c-.3.231-.525.117-.525-.254v-18.778a1.57 1.57 0 01.525-1.091zm-110.104-38.835l56.093 15.428a4 4 0 012.788 3.652v21.954c0 1.597-1.25 2.547-2.788 2.122l-56.093-15.428a4.007 4.007 0 01-2.784-3.653V121.28c0-1.597 1.25-2.547 2.784-2.121zm-.269 34.997l56.093 15.428a4.006 4.006 0 012.787 3.655v21.954c0 1.594-1.247 2.544-2.787 2.122l-56.093-15.428a4.003 4.003 0 01-2.785-3.656v-21.954c0-1.594 1.247-2.544 2.785-2.121zm-.54 33.642l56.096 15.44a3.998 3.998 0 012.784 3.653v21.957c0 1.597-1.246 2.544-2.784 2.121l-56.096-15.431a3.995 3.995 0 01-1.968-1.387 3.993 3.993 0 01-.816-2.265v-21.954c0-1.597 1.247-2.547 2.784-2.134zm.27 33.934l56.093 15.428a3.994 3.994 0 012.787 3.652v21.954c0 1.597-1.246 2.547-2.787 2.122l-56.093-15.428a3.998 3.998 0 01-2.793-3.653v-21.954c0-1.597 1.255-2.544 2.793-2.121zm-.27 32.585l56.096 15.419a3.997 3.997 0 012.784 3.652v21.954c0 1.597-1.246 2.547-2.784 2.125l-56.096-15.431a4 4 0 01-2.784-3.653v-21.954c0-1.597 1.247-2.547 2.784-2.112z"/><path fill="#F96132" d="M178.424 138.203a3.185 3.185 0 113.5-2.738 3.141 3.141 0 01-3.5 2.738z"/><path fill="#F7A501" d="M176.58 172.577a3.182 3.182 0 01-2.719-2.293 3.187 3.187 0 011.101-3.383 3.183 3.183 0 013.549-.252 3.18 3.18 0 011.57 3.192 3.146 3.146 0 01-2.278 2.645c-.398.11-.813.141-1.223.091z"/><path fill="#3541D1" d="M176.263 206.184a3.19 3.19 0 01-2.686-4.152 3.184 3.184 0 016.186 1.413 3.134 3.134 0 01-2.277 2.648c-.398.11-.813.141-1.223.091z"/><path fill="#F96132" d="M175.406 239.934a3.18 3.18 0 01-2.69-4.15 3.192 3.192 0 012.802-2.193 3.183 3.183 0 013.385 3.605 3.14 3.14 0 01-3.497 2.738z"/><path fill="#F7A501" d="M175.073 272.672a3.188 3.188 0 01-2.727-2.287 3.187 3.187 0 116.219-.451 3.147 3.147 0 01-3.492 2.738z"/><path fill="#3541D1" d="M188.28 140.756a3.182 3.182 0 01-2.719-2.292 3.183 3.183 0 014.648-3.637 3.183 3.183 0 011.572 3.19 3.141 3.141 0 01-3.501 2.739z"/><path fill="#F96132" d="M186.44 175.124a3.188 3.188 0 01-2.71-2.3 3.188 3.188 0 012.844-4.043 3.185 3.185 0 013.379 3.607 3.151 3.151 0 01-1.189 2.097 3.146 3.146 0 01-2.324.639z"/><path fill="#F7A501" d="M186.12 208.731a3.186 3.186 0 113.5-2.739 3.145 3.145 0 01-3.5 2.739zm-.857 33.762a3.185 3.185 0 113.491-2.738 3.14 3.14 0 01-3.491 2.738z"/><path fill="#F96132" d="M184.933 275.219a3.19 3.19 0 01-2.722-2.291 3.183 3.183 0 014.647-3.639 3.18 3.18 0 011.572 3.191 3.14 3.14 0 01-3.497 2.739zm9.533-135.467a2.719 2.719 0 013.348-1.89l27.994 7.79a2.717 2.717 0 011.906 3.332 2.729 2.729 0 01-2.289 1.973 2.743 2.743 0 01-1.059-.079l-27.991-7.791a2.719 2.719 0 01-1.909-3.335z"/><path fill="#3541D1" d="M192.623 174.129a2.721 2.721 0 013.348-1.891l27.994 7.77a2.706 2.706 0 011.639 1.282 2.718 2.718 0 01-3.096 3.955l-27.991-7.775a2.722 2.722 0 01-1.894-3.341z"/><path fill="#F7A501" d="M192.305 207.733a2.722 2.722 0 013.342-1.891l27.994 7.791a2.706 2.706 0 011.639 1.281 2.719 2.719 0 01-3.095 3.956l-27.995-7.79a2.724 2.724 0 01-1.885-3.347z"/><path fill="#F96132" d="M191.451 241.495a2.719 2.719 0 013.348-1.89l27.994 7.79a2.721 2.721 0 011.888 3.326 2.725 2.725 0 01-3.348 1.891l-27.994-7.791a2.72 2.72 0 01-1.888-3.326z"/><path fill="#3541D1" d="M191.119 274.221a2.717 2.717 0 013.344-1.89l27.994 7.79a2.723 2.723 0 011.971 2.289 2.717 2.717 0 01-2.369 3.028 2.736 2.736 0 01-1.058-.079l-27.991-7.791a2.7 2.7 0 01-1.64-1.281 2.706 2.706 0 01-.251-2.066z"/></g><g fill-rule="evenodd" clip-path="url(#clip1)" clip-rule="evenodd"><path fill="#596590" d="M23.075 61.748l83.165 24.345V267.37l-83.165-24.345V61.747z"/><path fill="#35416B" d="M106.156 86.129l52.206-43.037v181.191l-52.206 43.039V86.129z"/><path fill="#A1AEDA" d="M23.144 61.792l83.057 24.388 52.206-43.025-79.454-19.287-55.809 37.924z"/><path stroke="#fff" stroke-linecap="round" stroke-linejoin="round" stroke-width=".493" d="M117.158 134.759l33.808-26.11c.956-.737 1.726-.36 1.726.845v21.963a5.001 5.001 0 01-1.726 3.515l-33.808 26.11c-.953.737-1.727.359-1.727-.845v-21.96a5.017 5.017 0 011.727-3.518v0z"/><path fill="#F96132" d="M118.611 136.913l2.431-1.929c.299-.231.527-.117.527.254v18.754a1.572 1.572 0 01-.527 1.091l-2.431 1.933c-.3.23-.524.117-.524-.255v-18.772c.026-.414.214-.8.524-1.076z"/><path fill="#fff" d="M124.077 141.603l2.431-1.93c.3-.231.527-.117.53.255l.06 10.031a1.56 1.56 0 01-.524 1.091l-2.431 1.93c-.299.233-.527.119-.53-.252l-.06-10.035a1.578 1.578 0 01.524-1.09z"/><path fill="#F7A501" d="M129.598 133.689l2.436-1.935c.3-.231.525.251.525.251l.231 13.349a1.567 1.567 0 01-.522 1.082l-2.439 1.935c-.3.231-.522.117-.522-.251l-.234-13.349c0-.369.525-1.082.525-1.082z"/><path fill="#F96132" d="M135.13 134.022l2.431-1.93c.299-.23.527.255.527.255l.063 8.342a1.564 1.564 0 01-.524 1.087l-2.431 1.933c-.299.231-.527.117-.527-.255l-.063-8.341c0-.372.524-1.091.524-1.091z"/><path fill="#0316F0" d="M140.788 124.646l2.431-1.929c.3-.231.524.254.524.254l.063 13.586a1.575 1.575 0 01-.527 1.09l-2.431 1.93c-.299.231-.524.117-.524-.255l-.063-13.585c0-.372.527-1.091.527-1.091z"/><path fill="#fff" d="M146.593 115.199l2.431-1.93c.299-.23.527-.117.527.255v18.778a1.577 1.577 0 01-.527 1.091l-2.431 1.929c-.299.231-.524.117-.524-.254V116.29a1.57 1.57 0 01.524-1.091zM36.49 76.364l56.093 15.428a4.004 4.004 0 012.787 3.652v21.954c0 1.597-1.25 2.547-2.787 2.122L36.49 104.092a4.003 4.003 0 01-2.784-3.653V78.485c0-1.597 1.25-2.547 2.784-2.121zm-.27 34.997l56.093 15.428a4.002 4.002 0 012.787 3.655v21.954c0 1.594-1.246 2.544-2.787 2.122L36.22 139.092a4.006 4.006 0 01-2.784-3.656v-21.954c0-1.594 1.246-2.544 2.784-2.121zm-.54 33.642l56.097 15.44a4.003 4.003 0 012.784 3.653v21.957c0 1.597-1.247 2.544-2.784 2.121L35.68 172.743a3.997 3.997 0 01-2.784-3.652v-21.954c0-1.597 1.247-2.547 2.784-2.134zm.27 33.934l56.093 15.428a3.993 3.993 0 012.788 3.652v21.954c0 1.597-1.247 2.547-2.788 2.122L35.95 206.665a4.007 4.007 0 01-2.793-3.653v-21.954c0-1.597 1.256-2.544 2.793-2.121zm-.27 32.585l56.097 15.419a3.997 3.997 0 012.784 3.652v21.954c0 1.598-1.247 2.547-2.784 2.125L35.68 239.241a4.003 4.003 0 01-2.784-3.653v-21.954c0-1.597 1.247-2.547 2.784-2.112z"/><path fill="#F96132" d="M42.906 95.408a3.186 3.186 0 113.5-2.738 3.143 3.143 0 01-3.5 2.738z"/><path fill="#F7A501" d="M41.063 129.782a3.18 3.18 0 01-2.72-2.293 3.187 3.187 0 116.22-.443 3.145 3.145 0 01-1.183 2.093 3.138 3.138 0 01-2.317.643z"/><path fill="#3541D1" d="M40.745 163.389a3.186 3.186 0 113.5-2.739 3.136 3.136 0 01-2.276 2.648 3.16 3.16 0 01-1.224.091z"/><path fill="#F96132" d="M39.888 197.139a3.181 3.181 0 01-2.722-2.29 3.186 3.186 0 116.22-.448 3.142 3.142 0 01-3.498 2.738z"/><path fill="#F7A501" d="M39.556 229.877a3.185 3.185 0 113.491-2.738 3.142 3.142 0 01-3.491 2.738z"/><path fill="#3541D1" d="M52.763 97.961a3.186 3.186 0 113.5-2.739 3.143 3.143 0 01-3.5 2.74z"/><path fill="#F96132" d="M50.923 132.329a3.186 3.186 0 113.512-2.736 3.143 3.143 0 01-3.512 2.736z"/><path fill="#F7A501" d="M50.602 165.936a3.187 3.187 0 01-2.686-4.152 3.184 3.184 0 014.615-1.778 3.192 3.192 0 011.572 3.191 3.145 3.145 0 01-3.5 2.739zm-.857 33.762a3.185 3.185 0 113.492-2.738 3.14 3.14 0 01-3.492 2.738z"/><path fill="#F96132" d="M49.415 232.424a3.188 3.188 0 01-2.722-2.291 3.183 3.183 0 011.099-3.383 3.189 3.189 0 013.548-.256 3.182 3.182 0 011.573 3.191 3.142 3.142 0 01-3.498 2.739zM58.95 96.957a2.72 2.72 0 013.347-1.89l27.994 7.79a2.714 2.714 0 011.906 3.332 2.723 2.723 0 01-2.289 1.973 2.74 2.74 0 01-1.058-.079l-27.991-7.791a2.717 2.717 0 01-1.91-3.335z"/><path fill="#3541D1" d="M57.106 131.334a2.721 2.721 0 013.347-1.891l27.994 7.77a2.708 2.708 0 011.64 1.282 2.72 2.72 0 01-3.096 3.956L59 134.675a2.72 2.72 0 01-1.894-3.341z"/><path fill="#F7A501" d="M56.788 164.938a2.72 2.72 0 013.341-1.891l27.995 7.791a2.708 2.708 0 011.639 1.282 2.713 2.713 0 01-1.031 3.702 2.717 2.717 0 01-2.065.253l-27.994-7.79a2.722 2.722 0 01-1.885-3.347z"/><path fill="#F96132" d="M55.934 198.701a2.718 2.718 0 013.347-1.891l27.994 7.79a2.722 2.722 0 011.888 3.326 2.726 2.726 0 01-3.347 1.891l-27.994-7.791a2.716 2.716 0 01-1.888-3.325z"/><path fill="#3541D1" d="M55.601 231.426a2.718 2.718 0 013.345-1.89l27.994 7.79a2.725 2.725 0 011.639 1.282 2.72 2.72 0 01-3.096 3.956l-27.99-7.791a2.709 2.709 0 01-1.972-2.289 2.715 2.715 0 01.08-1.058z"/></g><defs><clipPath id="clip0"><path fill="#fff" d="M0 0h135.517v243.685H0z" transform="translate(158.5 66.57)"/></clipPath><clipPath id="clip1"><path fill="#fff" d="M0 0h135.517v243.685H0z" transform="translate(22.982 23.775)"/></clipPath></defs></svg>