<svg width="349" height="354" viewBox="0 0 349 354" fill="none" xmlns="http://www.w3.org/2000/svg">
<rect y="0.592896" width="349" height="352.814" rx="48.949" fill="#F7A501"/>
<g clip-path="url(#clip0)">
<path fill-rule="evenodd" clip-rule="evenodd" d="M7.08783 55.9204L85.758 78.9499V250.431L7.08783 227.402V55.9204Z" fill="#596590"/>
<path fill-rule="evenodd" clip-rule="evenodd" d="M85.6786 78.984L135.064 38.2734V209.673L85.6786 250.386V78.984Z" fill="#35416B"/>
<path fill-rule="evenodd" clip-rule="evenodd" d="M7.15375 55.9629L85.7219 79.0322L135.107 38.3329L59.9464 20.0879L7.15375 55.9629Z" fill="#A1AEDA"/>
<path fill-rule="evenodd" clip-rule="evenodd" d="M96.0858 124.986L128.067 100.287C128.971 99.5901 129.7 99.9472 129.7 101.087V121.863C129.665 122.498 129.503 123.12 129.222 123.692C128.942 124.263 128.549 124.772 128.067 125.188L96.0858 149.887C95.1843 150.584 94.4529 150.227 94.4529 149.087V128.314C94.4878 127.678 94.6504 127.056 94.9309 126.484C95.2114 125.912 95.6042 125.403 96.0858 124.986V124.986Z" stroke="white" stroke-width="0.466161" stroke-linecap="round" stroke-linejoin="round"/>
<path fill-rule="evenodd" clip-rule="evenodd" d="M97.4608 127.024L99.76 125.199C100.043 124.981 100.259 125.088 100.259 125.44V143.18C100.248 143.377 100.198 143.569 100.113 143.746C100.027 143.923 99.9071 144.082 99.76 144.212L97.4608 146.04C97.1773 146.259 96.9647 146.151 96.9647 145.799V128.042C96.9896 127.651 97.1678 127.285 97.4608 127.024Z" fill="#F96132"/>
<path fill-rule="evenodd" clip-rule="evenodd" d="M102.632 131.46L104.931 129.635C105.214 129.417 105.43 129.524 105.433 129.876L105.489 139.365C105.48 139.562 105.431 139.754 105.345 139.931C105.26 140.108 105.14 140.267 104.993 140.397L102.694 142.222C102.411 142.443 102.195 142.336 102.192 141.984L102.136 132.492C102.146 132.296 102.195 132.103 102.28 131.926C102.366 131.749 102.485 131.591 102.632 131.46Z" fill="white"/>
<path fill-rule="evenodd" clip-rule="evenodd" d="M107.854 123.974L110.159 122.143C110.442 121.925 110.655 122.382 110.655 122.382L110.873 135.009C110.862 135.203 110.813 135.394 110.729 135.57C110.644 135.745 110.525 135.902 110.38 136.032L108.072 137.863C107.789 138.081 107.579 137.974 107.579 137.625L107.358 124.998C107.358 124.649 107.854 123.974 107.854 123.974Z" fill="#F7A501"/>
<path fill-rule="evenodd" clip-rule="evenodd" d="M113.087 124.289L115.386 122.464C115.67 122.245 115.885 122.705 115.885 122.705L115.945 130.596C115.934 130.791 115.885 130.983 115.8 131.16C115.714 131.336 115.595 131.494 115.449 131.625L113.149 133.453C112.866 133.671 112.65 133.563 112.65 133.212L112.591 125.321C112.591 124.969 113.087 124.289 113.087 124.289Z" fill="#F96132"/>
<path fill-rule="evenodd" clip-rule="evenodd" d="M118.439 115.42L120.739 113.595C121.022 113.377 121.235 113.836 121.235 113.836L121.294 126.687C121.283 126.883 121.234 127.076 121.148 127.253C121.062 127.43 120.942 127.588 120.795 127.719L118.496 129.544C118.213 129.762 118 129.655 118 129.303L117.94 116.452C117.94 116.1 118.439 115.42 118.439 115.42Z" fill="#0316F0"/>
<path fill-rule="evenodd" clip-rule="evenodd" d="M123.931 106.483L126.23 104.658C126.513 104.44 126.729 104.547 126.729 104.899V122.662C126.718 122.859 126.668 123.051 126.583 123.228C126.497 123.405 126.377 123.563 126.23 123.694L123.931 125.519C123.647 125.737 123.435 125.63 123.435 125.278V107.515C123.445 107.319 123.494 107.127 123.58 106.95C123.665 106.773 123.784 106.614 123.931 106.483Z" fill="white"/>
<path fill-rule="evenodd" clip-rule="evenodd" d="M19.7771 69.7467L72.8391 84.341C73.5802 84.5766 74.2307 85.0346 74.7024 85.6528C75.1741 86.2709 75.4441 87.0193 75.4756 87.7961V108.564C75.4756 110.075 74.2934 110.973 72.8391 110.571L19.7771 95.9762C19.0363 95.7405 18.3861 95.2823 17.9149 94.6642C17.4437 94.046 17.1744 93.2977 17.1434 92.5211V71.7534C17.1434 70.2427 18.3256 69.3442 19.7771 69.7467Z" fill="white"/>
<path fill-rule="evenodd" clip-rule="evenodd" d="M19.522 102.852L72.584 117.447C73.3253 117.683 73.9759 118.142 74.4476 118.76C74.9193 119.379 75.1891 120.128 75.2205 120.905V141.672C75.2205 143.18 74.0411 144.079 72.584 143.679L19.522 129.085C18.781 128.849 18.1307 128.39 17.6595 127.771C17.1883 127.153 16.9191 126.404 16.8883 125.627V104.859C16.8883 103.351 18.0676 102.453 19.522 102.852Z" fill="white"/>
<path fill-rule="evenodd" clip-rule="evenodd" d="M19.0117 134.677L72.0765 149.283C72.8173 149.519 73.4675 149.977 73.9387 150.595C74.4099 151.213 74.6793 151.961 74.7102 152.738V173.509C74.7102 175.019 73.5309 175.915 72.0765 175.515L19.0117 160.918C18.271 160.682 17.6208 160.224 17.1496 159.606C16.6784 158.988 16.409 158.24 16.3781 157.463V136.695C16.3781 135.185 17.5574 134.286 19.0117 134.677Z" fill="white"/>
<path fill-rule="evenodd" clip-rule="evenodd" d="M19.2668 166.777L72.3288 181.371C73.0703 181.606 73.7214 182.064 74.1932 182.682C74.665 183.3 74.9346 184.049 74.9653 184.826V205.594C74.9653 207.105 73.786 208.003 72.3288 207.601L19.2668 193.006C18.5245 192.772 17.8724 192.315 17.3996 191.696C16.9268 191.078 16.6562 190.329 16.6246 189.551V168.784C16.6246 167.273 17.8125 166.377 19.2668 166.777Z" fill="white"/>
<path fill-rule="evenodd" clip-rule="evenodd" d="M19.0117 197.601L72.0765 212.187C72.8173 212.423 73.4675 212.881 73.9387 213.499C74.4099 214.117 74.6793 214.865 74.7102 215.642V236.41C74.7102 237.92 73.5309 238.819 72.0765 238.419L19.0117 223.822C18.271 223.586 17.6208 223.128 17.1496 222.51C16.6784 221.892 16.409 221.144 16.3781 220.367V199.599C16.3781 198.088 17.5574 197.19 19.0117 197.601Z" fill="white"/>
<path fill-rule="evenodd" clip-rule="evenodd" d="M25.8468 87.7621C25.2508 87.6975 24.6877 87.4566 24.2294 87.0703C23.7711 86.684 23.4384 86.1698 23.2739 85.5935C23.1094 85.0172 23.1205 84.4049 23.3059 83.8349C23.4913 83.265 23.8425 82.7633 24.3146 82.3939C24.7867 82.0245 25.3582 81.8043 25.9561 81.7615C26.554 81.7186 27.1512 81.855 27.6712 82.1532C28.1911 82.4514 28.6104 82.8978 28.8752 83.4355C29.1401 83.9731 29.2386 84.5776 29.158 85.1715C29.0623 85.9539 28.6598 86.6664 28.0388 87.1522C27.4179 87.638 26.6295 87.8574 25.8468 87.7621Z" fill="#F96132"/>
<path fill-rule="evenodd" clip-rule="evenodd" d="M24.1033 120.278C23.5072 120.214 22.944 119.973 22.4857 119.586C22.0274 119.2 21.6948 118.685 21.5305 118.109C21.3662 117.532 21.3776 116.92 21.5632 116.35C21.7489 115.78 22.1004 115.278 22.5728 114.909C23.0451 114.54 23.6169 114.32 24.2149 114.278C24.813 114.235 25.4101 114.372 25.93 114.671C26.4498 114.969 26.8688 115.416 27.1332 115.954C27.3977 116.492 27.4956 117.097 27.4145 117.691C27.3672 118.078 27.2439 118.452 27.0519 118.792C26.8598 119.132 26.6027 119.43 26.2952 119.67C25.9877 119.911 25.6358 120.088 25.2597 120.192C24.8836 120.297 24.4907 120.326 24.1033 120.278Z" fill="#F7A501"/>
<path fill-rule="evenodd" clip-rule="evenodd" d="M23.8028 152.069C23.2068 152.004 22.6437 151.764 22.1854 151.377C21.727 150.991 21.3944 150.477 21.2299 149.9C21.0654 149.324 21.0765 148.712 21.2619 148.142C21.4473 147.572 21.7985 147.07 22.2706 146.701C22.7427 146.331 23.3142 146.111 23.9121 146.068C24.5101 146.026 25.1072 146.162 25.6272 146.46C26.1472 146.758 26.5664 147.205 26.8312 147.742C27.0961 148.28 27.1945 148.885 27.114 149.478C27.067 149.866 26.944 150.241 26.7521 150.581C26.5602 150.921 26.3031 151.219 25.9956 151.46C25.688 151.701 25.3361 151.878 24.9598 151.983C24.5836 152.087 24.1904 152.117 23.8028 152.069Z" fill="#3541D1"/>
<path fill-rule="evenodd" clip-rule="evenodd" d="M22.992 183.996C22.3958 183.932 21.8324 183.691 21.3736 183.305C20.9149 182.919 20.5818 182.405 20.4168 181.829C20.2519 181.253 20.2627 180.64 20.4478 180.07C20.6329 179.5 20.984 178.998 21.456 178.628C21.928 178.258 22.4996 178.038 23.0977 177.995C23.6957 177.952 24.293 178.088 24.8131 178.386C25.3333 178.684 25.7527 179.131 26.0176 179.669C26.2825 180.207 26.381 180.811 26.3004 181.405C26.2047 182.187 25.8025 182.899 25.1822 183.385C24.5619 183.87 23.7742 184.09 22.992 183.996Z" fill="#F96132"/>
<path fill-rule="evenodd" clip-rule="evenodd" d="M22.6773 214.964C22.0808 214.901 21.5166 214.662 21.0571 214.276C20.5975 213.891 20.2635 213.377 20.0977 212.801C19.9319 212.224 19.942 211.612 20.1266 211.041C20.3111 210.47 20.6618 209.968 21.1338 209.598C21.6057 209.228 22.1774 209.007 22.7757 208.963C23.374 208.92 23.9716 209.056 24.4921 209.354C25.0125 209.652 25.4322 210.099 25.6973 210.637C25.9623 211.175 26.0608 211.78 25.98 212.374C25.8843 213.155 25.4829 213.866 24.8639 214.351C24.2449 214.837 23.4586 215.057 22.6773 214.964Z" fill="#F7A501"/>
<path fill-rule="evenodd" clip-rule="evenodd" d="M35.1711 90.177C34.5751 90.1124 34.012 89.8715 33.5536 89.4852C33.0953 89.0989 32.7627 88.5847 32.5982 88.0084C32.4337 87.4321 32.4448 86.8198 32.6302 86.2498C32.8156 85.6799 33.1668 85.1782 33.6389 84.8088C34.111 84.4394 34.6825 84.2193 35.2804 84.1764C35.8783 84.1335 36.4754 84.2699 36.9954 84.5681C37.5154 84.8663 37.9346 85.3127 38.1995 85.8504C38.4644 86.3881 38.5628 86.9925 38.4823 87.5864C38.3866 88.3688 37.984 89.0813 37.3631 89.5671C36.7422 90.0529 35.9537 90.2723 35.1711 90.177Z" fill="#3541D1"/>
<path fill-rule="evenodd" clip-rule="evenodd" d="M33.4303 122.688C32.835 122.621 32.2732 122.378 31.8165 121.99C31.3599 121.603 31.0291 121.088 30.8665 120.512C30.7039 119.935 30.7167 119.323 30.9035 118.754C31.0902 118.185 31.4423 117.685 31.9149 117.317C32.3874 116.949 32.959 116.73 33.5566 116.688C34.1541 116.646 34.7506 116.783 35.2698 117.082C35.789 117.381 36.2074 117.827 36.4716 118.365C36.7357 118.902 36.8337 119.506 36.7529 120.1C36.7052 120.488 36.5814 120.863 36.3885 121.203C36.1956 121.544 35.9374 121.843 35.6288 122.083C35.3201 122.324 34.967 122.501 34.5898 122.604C34.2125 122.708 33.8185 122.736 33.4303 122.688Z" fill="#F96132"/>
<path fill-rule="evenodd" clip-rule="evenodd" d="M33.1269 154.478C32.531 154.414 31.9678 154.173 31.5095 153.786C31.0512 153.4 30.7185 152.886 30.554 152.31C30.3895 151.733 30.4007 151.121 30.5861 150.551C30.7715 149.981 31.1227 149.479 31.5947 149.11C32.0668 148.741 32.6384 148.521 33.2363 148.478C33.8342 148.435 34.4313 148.571 34.9513 148.869C35.4713 149.168 35.8905 149.614 36.1554 150.152C36.4202 150.689 36.5187 151.294 36.4382 151.888C36.3425 152.67 35.9399 153.383 35.319 153.868C34.6981 154.354 33.9096 154.574 33.1269 154.478Z" fill="#F7A501"/>
<path fill-rule="evenodd" clip-rule="evenodd" d="M32.3162 186.416C31.7196 186.353 31.1555 186.114 30.6959 185.728C30.2364 185.343 29.9023 184.829 29.7366 184.253C29.5708 183.676 29.5808 183.064 29.7654 182.493C29.95 181.922 30.3007 181.42 30.7726 181.05C31.2446 180.679 31.8163 180.458 32.4145 180.415C33.0128 180.372 33.6104 180.508 34.1309 180.806C34.6514 181.104 35.071 181.551 35.3361 182.089C35.6012 182.627 35.6997 183.231 35.6189 183.826C35.5238 184.607 35.1227 185.318 34.5035 185.804C33.8843 186.29 33.0976 186.51 32.3162 186.416Z" fill="#F7A501"/>
<path fill-rule="evenodd" clip-rule="evenodd" d="M32.0043 217.374C31.4082 217.31 30.8447 217.069 30.3859 216.683C29.9272 216.297 29.5941 215.783 29.4292 215.207C29.2642 214.63 29.275 214.018 29.4602 213.448C29.6453 212.878 29.9963 212.376 30.4683 212.006C30.9404 211.636 31.512 211.416 32.11 211.373C32.708 211.33 33.3053 211.466 33.8255 211.764C34.3456 212.062 34.765 212.509 35.0299 213.047C35.2948 213.585 35.3933 214.189 35.3127 214.783C35.217 215.565 34.8148 216.277 34.1945 216.763C33.5743 217.248 32.7865 217.468 32.0043 217.374Z" fill="#F96132"/>
<path fill-rule="evenodd" clip-rule="evenodd" d="M41.0224 89.2275C41.2056 88.5708 41.642 88.0137 42.2357 87.6784C42.8294 87.3431 43.5319 87.257 44.189 87.439L70.6704 94.8084C71.3275 94.9875 71.8865 95.4201 72.2246 96.0111C72.5628 96.6022 72.6523 97.3033 72.4734 97.9603C72.3833 98.2859 72.2299 98.5906 72.0219 98.8568C71.814 99.1231 71.5556 99.3458 71.2615 99.5122C70.9674 99.6785 70.6434 99.7853 70.308 99.8264C69.9726 99.8675 69.6324 99.8421 69.3068 99.7516L42.8282 92.3822C42.1704 92.2031 41.6107 91.7702 41.272 91.1787C40.9334 90.5871 40.8436 89.8853 41.0224 89.2275Z" fill="#F96132"/>
<path fill-rule="evenodd" clip-rule="evenodd" d="M39.2788 121.747C39.4621 121.09 39.8984 120.533 40.4921 120.198C41.0858 119.862 41.7883 119.776 42.4455 119.958L68.9268 127.308C69.2522 127.398 69.5567 127.552 69.8227 127.76C70.0887 127.968 70.3111 128.226 70.4773 128.52C70.6434 128.814 70.7499 129.138 70.7908 129.473C70.8318 129.808 70.8062 130.148 70.7157 130.474C70.6256 130.799 70.4722 131.104 70.2642 131.37C70.0562 131.636 69.7977 131.859 69.5035 132.025C69.2094 132.191 68.8853 132.297 68.5499 132.338C68.2146 132.379 67.8744 132.353 67.549 132.262L41.0705 124.907C40.4145 124.724 39.8576 124.289 39.5217 123.697C39.1859 123.104 39.0986 122.403 39.2788 121.747Z" fill="#3541D1"/>
<path fill-rule="evenodd" clip-rule="evenodd" d="M38.9783 153.534C39.1616 152.879 39.5971 152.323 40.1895 151.988C40.7819 151.653 41.4829 151.566 42.1393 151.746L68.6207 159.115C68.9461 159.206 69.2505 159.359 69.5165 159.567C69.7826 159.776 70.005 160.034 70.1711 160.328C70.3372 160.622 70.4438 160.946 70.4847 161.281C70.5256 161.616 70.5001 161.956 70.4095 162.281C70.2263 162.938 69.7899 163.495 69.1962 163.831C68.6025 164.166 67.9 164.252 67.2429 164.07L40.7615 156.7C40.1058 156.516 39.5499 156.079 39.2156 155.486C38.8814 154.892 38.7961 154.191 38.9783 153.534Z" fill="#F7A501"/>
<path fill-rule="evenodd" clip-rule="evenodd" d="M38.1704 185.473C38.3536 184.816 38.79 184.259 39.3837 183.923C39.9774 183.588 40.6799 183.502 41.337 183.684L67.8184 191.053C68.4702 191.237 69.0232 191.671 69.3576 192.26C69.6919 192.849 69.7806 193.546 69.6044 194.2C69.4205 194.856 68.984 195.413 68.3905 195.748C67.797 196.083 67.0949 196.169 66.4378 195.988L39.9564 188.619C39.3041 188.435 38.7506 188.002 38.4162 187.413C38.0818 186.824 37.9934 186.126 38.1704 185.473Z" fill="#F96132"/>
<path fill-rule="evenodd" clip-rule="evenodd" d="M37.8557 216.43C38.0383 215.773 38.4741 215.216 39.0674 214.881C39.6606 214.546 40.3627 214.459 41.0195 214.641L67.5009 222.011C67.8263 222.101 68.1307 222.255 68.3967 222.463C68.6627 222.671 68.8852 222.929 69.0513 223.223C69.2174 223.517 69.324 223.841 69.3649 224.176C69.4058 224.512 69.3803 224.852 69.2897 225.177C69.1993 225.502 69.0457 225.807 68.8376 226.073C68.6295 226.338 68.371 226.561 68.077 226.727C67.7829 226.893 67.459 227 67.1238 227.041C66.7885 227.081 66.4485 227.056 66.1231 226.965L39.6445 219.596C39.3189 219.506 39.0143 219.352 38.7481 219.144C38.4818 218.937 38.2593 218.678 38.0931 218.384C37.9269 218.09 37.8204 217.766 37.7797 217.431C37.7389 217.095 37.7648 216.755 37.8557 216.43Z" fill="#3541D1"/>
</g>
<g clip-path="url(#clip1)">
<path fill-rule="evenodd" clip-rule="evenodd" d="M109.375 92.0218L188.045 115.051V286.533L109.375 263.503V92.0218Z" fill="#596590"/>
<path fill-rule="evenodd" clip-rule="evenodd" d="M187.966 115.085L237.351 74.3748V245.774L187.966 286.487V115.085Z" fill="#35416B"/>
<path fill-rule="evenodd" clip-rule="evenodd" d="M109.441 92.0643L188.009 115.134L237.394 74.4343L162.234 56.1892L109.441 92.0643Z" fill="#A1AEDA"/>
<path fill-rule="evenodd" clip-rule="evenodd" d="M198.373 161.088L230.354 136.389C231.259 135.691 231.987 136.049 231.987 137.188V157.964C231.953 158.6 231.79 159.222 231.509 159.793C231.229 160.364 230.836 160.873 230.354 161.289L198.373 185.988C197.472 186.685 196.74 186.328 196.74 185.189V164.415C196.775 163.779 196.938 163.157 197.218 162.585C197.499 162.014 197.891 161.504 198.373 161.088V161.088Z" stroke="white" stroke-width="0.466161" stroke-linecap="round" stroke-linejoin="round"/>
<path fill-rule="evenodd" clip-rule="evenodd" d="M199.748 163.126L202.047 161.3C202.331 161.082 202.546 161.19 202.546 161.541V179.282C202.535 179.478 202.485 179.67 202.4 179.847C202.314 180.025 202.194 180.183 202.047 180.313L199.748 182.142C199.464 182.36 199.252 182.252 199.252 181.901V164.143C199.277 163.752 199.455 163.386 199.748 163.126Z" fill="#F96132"/>
<path fill-rule="evenodd" clip-rule="evenodd" d="M204.919 167.561L207.218 165.736C207.501 165.518 207.717 165.626 207.72 165.977L207.776 175.467C207.767 175.663 207.718 175.855 207.632 176.033C207.547 176.21 207.428 176.368 207.28 176.498L204.981 178.324C204.698 178.545 204.482 178.437 204.479 178.086L204.423 168.593C204.433 168.397 204.482 168.205 204.568 168.028C204.653 167.851 204.772 167.692 204.919 167.561Z" fill="white"/>
<path fill-rule="evenodd" clip-rule="evenodd" d="M210.141 160.076L212.446 158.245C212.729 158.027 212.942 158.483 212.942 158.483L213.16 171.11C213.15 171.305 213.101 171.495 213.016 171.671C212.931 171.847 212.813 172.004 212.667 172.133L210.359 173.964C210.076 174.183 209.866 174.075 209.866 173.726L209.645 161.099C209.645 160.75 210.141 160.076 210.141 160.076Z" fill="#F7A501"/>
<path fill-rule="evenodd" clip-rule="evenodd" d="M215.374 160.39L217.673 158.565C217.957 158.347 218.172 158.806 218.172 158.806L218.232 166.697C218.221 166.893 218.172 167.084 218.087 167.261C218.001 167.438 217.882 167.596 217.736 167.726L215.437 169.554C215.153 169.772 214.938 169.665 214.938 169.313L214.878 161.422C214.878 161.071 215.374 160.39 215.374 160.39Z" fill="#F96132"/>
<path fill-rule="evenodd" clip-rule="evenodd" d="M220.727 151.522L223.026 149.696C223.309 149.478 223.522 149.937 223.522 149.937L223.582 162.788C223.571 162.985 223.521 163.177 223.435 163.354C223.35 163.531 223.23 163.689 223.083 163.82L220.783 165.645C220.5 165.864 220.287 165.756 220.287 165.404L220.228 152.553C220.228 152.202 220.727 151.522 220.727 151.522Z" fill="#0316F0"/>
<path fill-rule="evenodd" clip-rule="evenodd" d="M226.218 142.585L228.517 140.759C228.801 140.541 229.016 140.649 229.016 141V158.763C229.005 158.96 228.955 159.152 228.87 159.329C228.784 159.506 228.664 159.665 228.517 159.795L226.218 161.621C225.935 161.839 225.722 161.731 225.722 161.38V143.616C225.732 143.42 225.782 143.228 225.867 143.051C225.952 142.874 226.071 142.715 226.218 142.585Z" fill="white"/>
<path fill-rule="evenodd" clip-rule="evenodd" d="M122.064 105.848L175.126 120.442C175.867 120.678 176.518 121.136 176.99 121.754C177.461 122.372 177.731 123.121 177.763 123.897V144.665C177.763 146.176 176.581 147.074 175.126 146.672L122.064 132.078C121.324 131.842 120.673 131.384 120.202 130.766C119.731 130.147 119.462 129.399 119.431 128.622V107.855C119.431 106.344 120.613 105.446 122.064 105.848Z" fill="white"/>
<path fill-rule="evenodd" clip-rule="evenodd" d="M121.809 138.954L174.871 153.548C175.612 153.784 176.263 154.243 176.735 154.861C177.206 155.48 177.476 156.229 177.508 157.006V177.774C177.508 179.282 176.328 180.18 174.871 179.781L121.809 165.186C121.068 164.95 120.418 164.491 119.947 163.873C119.476 163.254 119.206 162.505 119.175 161.728V140.961C119.175 139.453 120.355 138.554 121.809 138.954Z" fill="white"/>
<path fill-rule="evenodd" clip-rule="evenodd" d="M121.299 170.779L174.364 185.384C175.104 185.62 175.755 186.078 176.226 186.696C176.697 187.314 176.966 188.063 176.997 188.839V209.61C176.997 211.121 175.818 212.016 174.364 211.617L121.299 197.019C120.558 196.784 119.908 196.326 119.437 195.707C118.966 195.089 118.696 194.341 118.665 193.564V172.797C118.665 171.286 119.845 170.387 121.299 170.779Z" fill="white"/>
<path fill-rule="evenodd" clip-rule="evenodd" d="M121.554 202.878L174.616 217.472C175.357 217.707 176.009 218.165 176.48 218.784C176.952 219.402 177.222 220.151 177.252 220.928V241.695C177.252 243.206 176.073 244.105 174.616 243.702L121.554 229.108C120.812 228.873 120.16 228.416 119.687 227.798C119.214 227.179 118.943 226.43 118.912 225.653V204.885C118.912 203.374 120.1 202.479 121.554 202.878Z" fill="white"/>
<path fill-rule="evenodd" clip-rule="evenodd" d="M121.299 233.702L174.364 248.288C175.104 248.524 175.755 248.982 176.226 249.6C176.697 250.218 176.966 250.967 176.997 251.743V272.511C176.997 274.022 175.818 274.92 174.364 274.521L121.299 259.923C120.558 259.688 119.908 259.23 119.437 258.611C118.966 257.993 118.696 257.245 118.665 256.468V235.701C118.665 234.19 119.845 233.291 121.299 233.702Z" fill="white"/>
<path fill-rule="evenodd" clip-rule="evenodd" d="M128.134 123.863C127.538 123.799 126.975 123.558 126.517 123.172C126.058 122.785 125.726 122.271 125.561 121.695C125.397 121.119 125.408 120.506 125.593 119.936C125.779 119.366 126.13 118.865 126.602 118.495C127.074 118.126 127.645 117.906 128.243 117.863C128.841 117.82 129.438 117.956 129.958 118.255C130.478 118.553 130.898 118.999 131.162 119.537C131.427 120.075 131.526 120.679 131.445 121.273C131.35 122.055 130.947 122.768 130.326 123.254C129.705 123.739 128.917 123.959 128.134 123.863Z" fill="#F96132"/>
<path fill-rule="evenodd" clip-rule="evenodd" d="M126.39 156.38C125.794 156.315 125.231 156.074 124.773 155.688C124.315 155.301 123.982 154.787 123.818 154.21C123.653 153.634 123.665 153.021 123.85 152.451C124.036 151.881 124.388 151.38 124.86 151.011C125.332 150.641 125.904 150.422 126.502 150.379C127.1 150.336 127.697 150.473 128.217 150.772C128.737 151.071 129.156 151.517 129.42 152.055C129.685 152.593 129.783 153.198 129.702 153.792C129.654 154.179 129.531 154.553 129.339 154.893C129.147 155.233 128.89 155.531 128.582 155.772C128.275 156.012 127.923 156.189 127.547 156.294C127.171 156.398 126.778 156.427 126.39 156.38Z" fill="#F7A501"/>
<path fill-rule="evenodd" clip-rule="evenodd" d="M126.09 188.17C125.494 188.106 124.931 187.865 124.472 187.479C124.014 187.092 123.681 186.578 123.517 186.002C123.352 185.425 123.364 184.813 123.549 184.243C123.734 183.673 124.086 183.172 124.558 182.802C125.03 182.433 125.601 182.213 126.199 182.17C126.797 182.127 127.394 182.263 127.914 182.561C128.434 182.86 128.853 183.306 129.118 183.844C129.383 184.381 129.482 184.986 129.401 185.58C129.354 185.967 129.231 186.342 129.039 186.682C128.847 187.022 128.59 187.321 128.283 187.561C127.975 187.802 127.623 187.98 127.247 188.084C126.871 188.189 126.477 188.218 126.09 188.17Z" fill="#3541D1"/>
<path fill-rule="evenodd" clip-rule="evenodd" d="M125.279 220.097C124.683 220.033 124.12 219.793 123.661 219.407C123.202 219.021 122.869 218.507 122.704 217.93C122.539 217.354 122.55 216.741 122.735 216.171C122.92 215.601 123.271 215.099 123.743 214.729C124.215 214.36 124.787 214.139 125.385 214.096C125.983 214.053 126.58 214.189 127.1 214.488C127.62 214.786 128.04 215.232 128.305 215.77C128.57 216.308 128.668 216.912 128.588 217.507C128.492 218.288 128.09 219 127.469 219.486C126.849 219.972 126.061 220.192 125.279 220.097Z" fill="#F96132"/>
<path fill-rule="evenodd" clip-rule="evenodd" d="M124.964 251.066C124.368 251.003 123.804 250.763 123.344 250.378C122.885 249.992 122.551 249.479 122.385 248.902C122.219 248.326 122.229 247.713 122.414 247.142C122.598 246.572 122.949 246.069 123.421 245.699C123.893 245.329 124.465 245.108 125.063 245.065C125.661 245.021 126.259 245.157 126.779 245.455C127.3 245.753 127.719 246.2 127.984 246.738C128.25 247.276 128.348 247.881 128.267 248.475C128.171 249.256 127.77 249.967 127.151 250.453C126.532 250.938 125.746 251.159 124.964 251.066Z" fill="#F7A501"/>
<path fill-rule="evenodd" clip-rule="evenodd" d="M137.458 126.278C136.862 126.214 136.299 125.973 135.841 125.587C135.382 125.2 135.05 124.686 134.885 124.11C134.721 123.533 134.732 122.921 134.917 122.351C135.103 121.781 135.454 121.28 135.926 120.91C136.398 120.541 136.97 120.321 137.568 120.278C138.165 120.235 138.763 120.371 139.283 120.669C139.803 120.968 140.222 121.414 140.487 121.952C140.751 122.489 140.85 123.094 140.769 123.688C140.674 124.47 140.271 125.183 139.65 125.668C139.029 126.154 138.241 126.374 137.458 126.278Z" fill="#3541D1"/>
<path fill-rule="evenodd" clip-rule="evenodd" d="M135.717 158.789C135.122 158.722 134.56 158.479 134.104 158.092C133.647 157.704 133.316 157.189 133.154 156.613C132.991 156.036 133.004 155.425 133.191 154.856C133.377 154.287 133.729 153.786 134.202 153.418C134.675 153.05 135.246 152.831 135.844 152.789C136.441 152.747 137.038 152.885 137.557 153.183C138.076 153.482 138.495 153.929 138.759 154.466C139.023 155.004 139.121 155.608 139.04 156.201C138.992 156.589 138.869 156.964 138.676 157.305C138.483 157.645 138.225 157.944 137.916 158.184C137.607 158.425 137.254 158.602 136.877 158.706C136.5 158.809 136.106 158.838 135.717 158.789Z" fill="#F96132"/>
<path fill-rule="evenodd" clip-rule="evenodd" d="M135.414 190.58C134.818 190.515 134.255 190.274 133.797 189.888C133.338 189.502 133.006 188.987 132.841 188.411C132.677 187.835 132.688 187.222 132.873 186.652C133.059 186.083 133.41 185.581 133.882 185.211C134.354 184.842 134.926 184.622 135.523 184.579C136.121 184.536 136.719 184.673 137.238 184.971C137.758 185.269 138.178 185.715 138.443 186.253C138.707 186.791 138.806 187.395 138.725 187.989C138.63 188.771 138.227 189.484 137.606 189.97C136.985 190.456 136.197 190.675 135.414 190.58Z" fill="#F7A501"/>
<path fill-rule="evenodd" clip-rule="evenodd" d="M134.603 222.518C134.007 222.455 133.443 222.215 132.983 221.83C132.524 221.444 132.189 220.93 132.024 220.354C131.858 219.778 131.868 219.165 132.053 218.594C132.237 218.024 132.588 217.521 133.06 217.151C133.532 216.781 134.103 216.56 134.702 216.516C135.3 216.473 135.898 216.609 136.418 216.907C136.939 217.205 137.358 217.652 137.623 218.19C137.888 218.728 137.987 219.333 137.906 219.927C137.811 220.708 137.41 221.42 136.791 221.905C136.171 222.391 135.385 222.611 134.603 222.518Z" fill="#F7A501"/>
<path fill-rule="evenodd" clip-rule="evenodd" d="M134.291 253.475C133.695 253.411 133.132 253.171 132.673 252.785C132.214 252.399 131.881 251.884 131.716 251.308C131.551 250.732 131.562 250.119 131.747 249.549C131.932 248.979 132.283 248.477 132.755 248.107C133.227 247.738 133.799 247.517 134.397 247.474C134.995 247.431 135.592 247.567 136.113 247.866C136.633 248.164 137.052 248.61 137.317 249.148C137.582 249.686 137.68 250.29 137.6 250.884C137.504 251.666 137.102 252.378 136.482 252.864C135.861 253.35 135.074 253.57 134.291 253.475Z" fill="#F96132"/>
<path fill-rule="evenodd" clip-rule="evenodd" d="M143.309 125.329C143.493 124.672 143.929 124.115 144.523 123.78C145.117 123.444 145.819 123.358 146.476 123.54L172.958 130.91C173.615 131.089 174.174 131.521 174.512 132.112C174.85 132.704 174.939 133.405 174.761 134.062C174.67 134.387 174.517 134.692 174.309 134.958C174.101 135.224 173.843 135.447 173.549 135.614C173.254 135.78 172.93 135.887 172.595 135.928C172.26 135.969 171.919 135.943 171.594 135.853L145.115 128.484C144.458 128.304 143.898 127.872 143.559 127.28C143.221 126.688 143.131 125.987 143.309 125.329Z" fill="#F96132"/>
<path fill-rule="evenodd" clip-rule="evenodd" d="M141.566 157.848C141.749 157.191 142.186 156.634 142.779 156.299C143.373 155.964 144.076 155.877 144.733 156.059L171.214 163.409C171.539 163.499 171.844 163.653 172.11 163.861C172.376 164.069 172.598 164.328 172.764 164.622C172.931 164.916 173.037 165.239 173.078 165.575C173.119 165.91 173.093 166.25 173.003 166.575C172.913 166.901 172.759 167.205 172.551 167.471C172.343 167.738 172.085 167.96 171.791 168.126C171.497 168.292 171.173 168.399 170.837 168.44C170.502 168.48 170.162 168.454 169.836 168.364L143.358 161.008C142.702 160.826 142.145 160.39 141.809 159.798C141.473 159.206 141.386 158.505 141.566 157.848Z" fill="#3541D1"/>
<path fill-rule="evenodd" clip-rule="evenodd" d="M141.265 189.636C141.449 188.98 141.884 188.424 142.477 188.089C143.069 187.754 143.77 187.667 144.426 187.847L170.908 195.217C171.233 195.307 171.538 195.461 171.804 195.669C172.07 195.877 172.292 196.135 172.458 196.429C172.624 196.723 172.731 197.047 172.772 197.382C172.813 197.717 172.787 198.057 172.697 198.383C172.513 199.039 172.077 199.597 171.483 199.932C170.89 200.267 170.187 200.353 169.53 200.171L143.049 192.802C142.393 192.617 141.837 192.181 141.503 191.587C141.169 190.994 141.083 190.292 141.265 189.636Z" fill="#F7A501"/>
<path fill-rule="evenodd" clip-rule="evenodd" d="M140.458 221.574C140.641 220.917 141.077 220.36 141.671 220.025C142.265 219.689 142.967 219.603 143.624 219.785L170.106 227.155C170.757 227.339 171.31 227.772 171.645 228.361C171.979 228.95 172.068 229.647 171.892 230.301C171.708 230.957 171.271 231.514 170.678 231.849C170.084 232.184 169.382 232.271 168.725 232.09L142.244 224.72C141.591 224.537 141.038 224.103 140.703 223.514C140.369 222.925 140.281 222.228 140.458 221.574Z" fill="#F96132"/>
<path fill-rule="evenodd" clip-rule="evenodd" d="M140.143 252.531C140.325 251.875 140.761 251.318 141.355 250.982C141.948 250.647 142.65 250.561 143.307 250.743L169.788 258.112C170.113 258.203 170.418 258.356 170.684 258.564C170.95 258.772 171.172 259.031 171.338 259.325C171.505 259.619 171.611 259.943 171.652 260.278C171.693 260.613 171.667 260.953 171.577 261.278C171.486 261.604 171.333 261.908 171.125 262.174C170.917 262.44 170.658 262.662 170.364 262.828C170.07 262.994 169.746 263.101 169.411 263.142C169.076 263.183 168.736 263.157 168.41 263.067L141.932 255.697C141.606 255.607 141.301 255.454 141.035 255.246C140.769 255.038 140.546 254.779 140.38 254.485C140.214 254.191 140.108 253.867 140.067 253.532C140.026 253.197 140.052 252.857 140.143 252.531Z" fill="#3541D1"/>
</g>
<g clip-path="url(#clip2)">
<path fill-rule="evenodd" clip-rule="evenodd" d="M215.1 126.404L293.771 149.434V320.915L215.1 297.885V126.404Z" fill="#596590"/>
<path fill-rule="evenodd" clip-rule="evenodd" d="M293.691 149.468L343.076 108.757V280.156L293.691 320.87V149.468Z" fill="#35416B"/>
<path fill-rule="evenodd" clip-rule="evenodd" d="M215.166 126.447L293.735 149.516L343.12 108.817L267.959 90.5715L215.166 126.447Z" fill="#A1AEDA"/>
<path fill-rule="evenodd" clip-rule="evenodd" d="M304.098 195.47L336.08 170.771C336.984 170.074 337.713 170.431 337.713 171.57V192.346C337.678 192.982 337.515 193.604 337.235 194.175C336.954 194.746 336.561 195.255 336.08 195.671L304.098 220.37C303.197 221.067 302.465 220.71 302.465 219.571V198.798C302.5 198.162 302.663 197.539 302.943 196.968C303.224 196.396 303.617 195.887 304.098 195.47V195.47Z" stroke="white" stroke-width="0.466161" stroke-linecap="round" stroke-linejoin="round"/>
<path fill-rule="evenodd" clip-rule="evenodd" d="M305.473 197.508L307.772 195.683C308.056 195.464 308.271 195.572 308.271 195.923V213.664C308.26 213.86 308.211 214.053 308.125 214.23C308.039 214.407 307.92 214.565 307.772 214.696L305.473 216.524C305.19 216.742 304.977 216.634 304.977 216.283V198.525C305.002 198.134 305.18 197.768 305.473 197.508Z" fill="#F96132"/>
<path fill-rule="evenodd" clip-rule="evenodd" d="M310.644 201.944L312.943 200.118C313.227 199.9 313.442 200.008 313.445 200.359L313.502 209.849C313.492 210.045 313.443 210.238 313.358 210.415C313.273 210.592 313.153 210.75 313.006 210.881L310.707 212.706C310.423 212.927 310.208 212.819 310.205 212.468L310.148 202.975C310.159 202.779 310.208 202.587 310.293 202.41C310.378 202.233 310.498 202.074 310.644 201.944Z" fill="white"/>
<path fill-rule="evenodd" clip-rule="evenodd" d="M315.866 194.458L318.171 192.627C318.455 192.409 318.667 192.865 318.667 192.865L318.886 205.492C318.875 205.687 318.826 205.878 318.741 206.053C318.657 206.229 318.538 206.386 318.392 206.516L316.085 208.347C315.801 208.565 315.591 208.457 315.591 208.109L315.37 195.481C315.37 195.133 315.866 194.458 315.866 194.458Z" fill="#F7A501"/>
<path fill-rule="evenodd" clip-rule="evenodd" d="M321.1 194.773L323.399 192.947C323.682 192.729 323.898 193.188 323.898 193.188L323.957 201.079C323.946 201.275 323.897 201.467 323.812 201.643C323.727 201.82 323.608 201.978 323.461 202.108L321.162 203.936C320.878 204.155 320.663 204.047 320.663 203.695L320.603 195.804C320.603 195.453 321.1 194.773 321.1 194.773Z" fill="#F96132"/>
<path fill-rule="evenodd" clip-rule="evenodd" d="M326.452 185.904L328.751 184.078C329.035 183.86 329.247 184.319 329.247 184.319L329.307 197.171C329.296 197.367 329.246 197.559 329.161 197.736C329.075 197.913 328.955 198.072 328.808 198.202L326.509 200.028C326.225 200.246 326.013 200.138 326.013 199.787L325.953 186.936C325.953 186.584 326.452 185.904 326.452 185.904Z" fill="#0316F0"/>
<path fill-rule="evenodd" clip-rule="evenodd" d="M331.943 176.967L334.243 175.142C334.526 174.923 334.741 175.031 334.741 175.383V193.146C334.731 193.342 334.681 193.534 334.595 193.711C334.51 193.889 334.39 194.047 334.243 194.177L331.943 196.003C331.66 196.221 331.447 196.113 331.447 195.762V177.999C331.458 177.802 331.507 177.61 331.592 177.433C331.677 177.256 331.797 177.098 331.943 176.967Z" fill="white"/>
<path fill-rule="evenodd" clip-rule="evenodd" d="M227.79 140.23L280.852 154.825C281.593 155.06 282.243 155.518 282.715 156.136C283.187 156.755 283.457 157.503 283.488 158.28V179.047C283.488 180.558 282.306 181.457 280.852 181.054L227.79 166.46C227.049 166.224 226.399 165.766 225.928 165.148C225.456 164.53 225.187 163.781 225.156 163.005V142.237C225.156 140.726 226.338 139.828 227.79 140.23Z" fill="white"/>
<path fill-rule="evenodd" clip-rule="evenodd" d="M227.535 173.336L280.597 187.93C281.338 188.167 281.989 188.625 282.46 189.244C282.932 189.862 283.202 190.611 283.233 191.388V212.156C283.233 213.664 282.054 214.562 280.597 214.163L227.535 199.568C226.794 199.332 226.143 198.874 225.672 198.255C225.201 197.636 224.932 196.888 224.901 196.111V175.343C224.901 173.835 226.08 172.936 227.535 173.336Z" fill="white"/>
<path fill-rule="evenodd" clip-rule="evenodd" d="M227.024 205.161L280.089 219.766C280.83 220.002 281.48 220.46 281.951 221.079C282.422 221.697 282.692 222.445 282.723 223.222V243.992C282.723 245.503 281.543 246.399 280.089 245.999L227.024 231.402C226.283 231.166 225.633 230.708 225.162 230.09C224.691 229.471 224.421 228.723 224.391 227.947V207.179C224.391 205.668 225.57 204.77 227.024 205.161Z" fill="white"/>
<path fill-rule="evenodd" clip-rule="evenodd" d="M227.279 237.26L280.341 251.855C281.083 252.09 281.734 252.547 282.206 253.166C282.678 253.784 282.947 254.533 282.978 255.31V276.078C282.978 277.588 281.799 278.487 280.341 278.084L227.279 263.49C226.537 263.256 225.885 262.798 225.412 262.18C224.939 261.562 224.669 260.812 224.637 260.035V239.267C224.637 237.756 225.825 236.861 227.279 237.26Z" fill="white"/>
<path fill-rule="evenodd" clip-rule="evenodd" d="M227.024 268.085L280.089 282.67C280.83 282.906 281.48 283.364 281.951 283.982C282.422 284.601 282.692 285.349 282.723 286.126V306.893C282.723 308.404 281.543 309.302 280.089 308.903L227.024 294.306C226.283 294.07 225.633 293.612 225.162 292.994C224.691 292.375 224.421 291.627 224.391 290.85V270.083C224.391 268.572 225.57 267.674 227.024 268.085Z" fill="white"/>
<path fill-rule="evenodd" clip-rule="evenodd" d="M233.859 158.246C233.263 158.181 232.7 157.94 232.242 157.554C231.784 157.168 231.451 156.653 231.286 156.077C231.122 155.501 231.133 154.888 231.319 154.319C231.504 153.749 231.855 153.247 232.327 152.878C232.799 152.508 233.371 152.288 233.969 152.245C234.567 152.202 235.164 152.339 235.684 152.637C236.204 152.935 236.623 153.381 236.888 153.919C237.153 154.457 237.251 155.061 237.171 155.655C237.075 156.438 236.672 157.15 236.051 157.636C235.43 158.122 234.642 158.341 233.859 158.246Z" fill="#F96132"/>
<path fill-rule="evenodd" clip-rule="evenodd" d="M232.116 190.762C231.52 190.697 230.957 190.456 230.498 190.07C230.04 189.683 229.707 189.169 229.543 188.592C229.379 188.016 229.39 187.404 229.576 186.834C229.761 186.264 230.113 185.762 230.585 185.393C231.058 185.024 231.629 184.804 232.227 184.761C232.825 184.719 233.423 184.856 233.942 185.154C234.462 185.453 234.881 185.9 235.146 186.438C235.41 186.976 235.508 187.58 235.427 188.174C235.38 188.562 235.256 188.936 235.064 189.275C234.872 189.615 234.615 189.914 234.308 190.154C234 190.394 233.648 190.572 233.272 190.676C232.896 190.78 232.503 190.81 232.116 190.762Z" fill="#F7A501"/>
<path fill-rule="evenodd" clip-rule="evenodd" d="M231.815 222.553C231.219 222.488 230.656 222.247 230.198 221.861C229.74 221.475 229.407 220.96 229.242 220.384C229.078 219.808 229.089 219.195 229.274 218.625C229.46 218.056 229.811 217.554 230.283 217.184C230.755 216.815 231.327 216.595 231.925 216.552C232.523 216.509 233.12 216.646 233.64 216.944C234.16 217.242 234.579 217.688 234.844 218.226C235.109 218.764 235.207 219.368 235.127 219.962C235.08 220.35 234.957 220.724 234.765 221.064C234.573 221.404 234.316 221.703 234.008 221.944C233.701 222.184 233.349 222.362 232.972 222.466C232.596 222.571 232.203 222.6 231.815 222.553Z" fill="#3541D1"/>
<path fill-rule="evenodd" clip-rule="evenodd" d="M231.004 254.479C230.408 254.415 229.845 254.175 229.386 253.789C228.927 253.403 228.594 252.889 228.429 252.312C228.264 251.736 228.275 251.124 228.46 250.553C228.645 249.983 228.996 249.481 229.469 249.112C229.941 248.742 230.512 248.522 231.11 248.479C231.708 248.435 232.306 248.572 232.826 248.87C233.346 249.168 233.765 249.615 234.03 250.152C234.295 250.69 234.393 251.295 234.313 251.889C234.217 252.671 233.815 253.383 233.195 253.868C232.574 254.354 231.787 254.574 231.004 254.479Z" fill="#F96132"/>
<path fill-rule="evenodd" clip-rule="evenodd" d="M230.69 285.448C230.093 285.385 229.529 285.146 229.07 284.76C228.61 284.375 228.276 283.861 228.11 283.284C227.944 282.708 227.954 282.095 228.139 281.525C228.324 280.954 228.674 280.452 229.146 280.081C229.618 279.711 230.19 279.49 230.788 279.447C231.386 279.403 231.984 279.539 232.505 279.838C233.025 280.136 233.445 280.582 233.71 281.12C233.975 281.658 234.073 282.263 233.992 282.857C233.897 283.638 233.495 284.349 232.876 284.835C232.257 285.32 231.471 285.541 230.69 285.448Z" fill="#F7A501"/>
<path fill-rule="evenodd" clip-rule="evenodd" d="M243.183 160.661C242.587 160.596 242.024 160.355 241.566 159.969C241.108 159.583 240.775 159.068 240.611 158.492C240.446 157.916 240.457 157.303 240.643 156.733C240.828 156.163 241.179 155.662 241.651 155.292C242.123 154.923 242.695 154.703 243.293 154.66C243.891 154.617 244.488 154.753 245.008 155.052C245.528 155.35 245.947 155.796 246.212 156.334C246.477 156.872 246.575 157.476 246.495 158.07C246.399 158.852 245.996 159.565 245.376 160.051C244.755 160.536 243.966 160.756 243.183 160.661Z" fill="#3541D1"/>
<path fill-rule="evenodd" clip-rule="evenodd" d="M241.443 193.171C240.848 193.104 240.286 192.862 239.829 192.474C239.372 192.086 239.042 191.572 238.879 190.995C238.716 190.419 238.729 189.807 238.916 189.238C239.103 188.669 239.455 188.168 239.927 187.8C240.4 187.432 240.972 187.213 241.569 187.171C242.167 187.13 242.763 187.267 243.282 187.566C243.802 187.864 244.22 188.311 244.484 188.848C244.748 189.386 244.846 189.99 244.765 190.583C244.718 190.972 244.594 191.347 244.401 191.687C244.208 192.027 243.95 192.326 243.641 192.567C243.333 192.807 242.98 192.984 242.602 193.088C242.225 193.192 241.831 193.22 241.443 193.171Z" fill="#F96132"/>
<path fill-rule="evenodd" clip-rule="evenodd" d="M241.139 224.962C240.543 224.897 239.98 224.656 239.522 224.27C239.064 223.884 238.731 223.37 238.566 222.793C238.402 222.217 238.413 221.605 238.599 221.035C238.784 220.465 239.135 219.963 239.607 219.594C240.079 219.224 240.651 219.004 241.249 218.961C241.847 218.918 242.444 219.055 242.964 219.353C243.484 219.651 243.903 220.098 244.168 220.635C244.433 221.173 244.531 221.777 244.451 222.371C244.355 223.154 243.952 223.866 243.331 224.352C242.711 224.838 241.922 225.057 241.139 224.962Z" fill="#F7A501"/>
<path fill-rule="evenodd" clip-rule="evenodd" d="M240.329 256.9C239.732 256.837 239.168 256.597 238.708 256.212C238.249 255.827 237.915 255.313 237.749 254.736C237.583 254.16 237.593 253.547 237.778 252.977C237.963 252.406 238.313 251.903 238.785 251.533C239.257 251.163 239.829 250.942 240.427 250.899C241.025 250.855 241.623 250.991 242.143 251.289C242.664 251.588 243.084 252.034 243.349 252.572C243.614 253.11 243.712 253.715 243.631 254.309C243.536 255.09 243.135 255.802 242.516 256.288C241.897 256.773 241.11 256.994 240.329 256.9Z" fill="#F7A501"/>
<path fill-rule="evenodd" clip-rule="evenodd" d="M240.017 287.857C239.421 287.793 238.857 287.553 238.398 287.167C237.94 286.781 237.607 286.267 237.442 285.69C237.277 285.114 237.288 284.502 237.473 283.931C237.658 283.361 238.009 282.859 238.481 282.49C238.953 282.12 239.524 281.899 240.123 281.856C240.721 281.813 241.318 281.95 241.838 282.248C242.358 282.546 242.777 282.993 243.042 283.53C243.307 284.068 243.406 284.673 243.325 285.267C243.229 286.049 242.827 286.761 242.207 287.246C241.587 287.732 240.799 287.952 240.017 287.857Z" fill="#F96132"/>
<path fill-rule="evenodd" clip-rule="evenodd" d="M249.035 159.711C249.218 159.054 249.654 158.497 250.248 158.162C250.842 157.827 251.544 157.741 252.201 157.923L278.683 165.292C279.34 165.471 279.899 165.904 280.237 166.495C280.575 167.086 280.665 167.787 280.486 168.444C280.396 168.769 280.242 169.074 280.034 169.34C279.826 169.607 279.568 169.829 279.274 169.996C278.98 170.162 278.656 170.269 278.32 170.31C277.985 170.351 277.645 170.326 277.319 170.235L250.841 162.866C250.183 162.687 249.623 162.254 249.284 161.662C248.946 161.071 248.856 160.369 249.035 159.711Z" fill="#F96132"/>
<path fill-rule="evenodd" clip-rule="evenodd" d="M247.291 192.23C247.475 191.574 247.911 191.016 248.505 190.681C249.098 190.346 249.801 190.26 250.458 190.442L276.939 197.791C277.265 197.882 277.569 198.035 277.835 198.243C278.101 198.451 278.324 198.71 278.49 199.004C278.656 199.298 278.763 199.622 278.803 199.957C278.844 200.292 278.819 200.632 278.728 200.957C278.638 201.283 278.485 201.587 278.277 201.854C278.069 202.12 277.81 202.342 277.516 202.508C277.222 202.675 276.898 202.781 276.563 202.822C276.227 202.863 275.887 202.837 275.562 202.746L249.083 195.391C248.427 195.208 247.87 194.773 247.534 194.18C247.199 193.588 247.111 192.887 247.291 192.23Z" fill="#3541D1"/>
<path fill-rule="evenodd" clip-rule="evenodd" d="M246.991 224.018C247.174 223.363 247.61 222.807 248.202 222.471C248.794 222.136 249.495 222.049 250.152 222.23L276.633 229.599C276.959 229.689 277.263 229.843 277.529 230.051C277.795 230.259 278.017 230.517 278.184 230.812C278.35 231.106 278.456 231.429 278.497 231.765C278.538 232.1 278.513 232.44 278.422 232.765C278.239 233.422 277.802 233.979 277.209 234.314C276.615 234.649 275.913 234.736 275.255 234.554L248.774 227.184C248.118 227 247.562 226.563 247.228 225.969C246.894 225.376 246.809 224.674 246.991 224.018Z" fill="#F7A501"/>
<path fill-rule="evenodd" clip-rule="evenodd" d="M246.183 255.956C246.366 255.299 246.803 254.742 247.396 254.407C247.99 254.072 248.692 253.986 249.35 254.168L275.831 261.537C276.483 261.721 277.036 262.155 277.37 262.743C277.704 263.332 277.793 264.029 277.617 264.683C277.433 265.339 276.997 265.896 276.403 266.231C275.81 266.567 275.107 266.653 274.45 266.472L247.969 259.102C247.317 258.919 246.763 258.486 246.429 257.896C246.094 257.307 246.006 256.61 246.183 255.956Z" fill="#F96132"/>
<path fill-rule="evenodd" clip-rule="evenodd" d="M245.868 286.913C246.051 286.257 246.487 285.7 247.08 285.365C247.673 285.029 248.375 284.943 249.032 285.125L275.513 292.494C275.839 292.585 276.143 292.738 276.409 292.946C276.675 293.155 276.898 293.413 277.064 293.707C277.23 294.001 277.336 294.325 277.377 294.66C277.418 294.995 277.393 295.335 277.302 295.66C277.212 295.986 277.058 296.29 276.85 296.556C276.642 296.822 276.384 297.044 276.089 297.211C275.795 297.377 275.472 297.483 275.136 297.524C274.801 297.565 274.461 297.539 274.136 297.449L247.657 290.08C247.331 289.989 247.027 289.836 246.761 289.628C246.494 289.42 246.272 289.162 246.106 288.868C245.939 288.573 245.833 288.249 245.792 287.914C245.751 287.579 245.777 287.239 245.868 286.913Z" fill="#3541D1"/>
</g>
<defs>
<clipPath id="clip0">
<rect width="128.194" height="230.516" fill="white" transform="translate(7 20)"/>
</clipPath>
<clipPath id="clip1">
<rect width="128.194" height="230.516" fill="white" transform="translate(109.287 56.1013)"/>
</clipPath>
<clipPath id="clip2">
<rect width="128.194" height="230.516" fill="white" transform="translate(215.013 90.4836)"/>
</clipPath>
</defs>
</svg>
