<svg fill="none" viewBox="0 0 402 402"><rect width="401.952" height="401.03" fill="#F96132" rx="20"/><path fill="#fff" fill-rule="evenodd" d="M84.103 97.585L60.31 115.789l-2.729-3.568L81.38 94.016l2.724 3.569zm-38.652 42.728l-10.338 28.11-4.218-1.55 10.347-28.119 4.209 1.559zm-14.6 62.404l1.639 29.907-4.487.243-1.638-29.903 4.486-.247zm6.54 59.872l12.127 27.382-4.107 1.82-12.127-27.382 4.107-1.82zm30.263 49.451l21.757 20.593-3.09 3.264-21.763-20.576 3.096-3.281zm84.314 87.793l.57-29.943-4.491-.089-.588 29.961 4.509.071zm3.537-50.992l1.903-29.899-4.486-.282-1.899 29.89 4.482.291zm11.279-56.865l13.296-26.838-4.027-1.996-13.297 26.838 4.028 1.996z" clip-rule="evenodd"/><path fill="#F78301" fill-rule="evenodd" d="M229.23 180.069c9.432 5.852 12.612 17.807 7.092 26.706-5.52 8.899-17.638 11.364-27.075 5.512-9.437-5.852-12.612-17.811-7.092-26.719 5.52-8.908 17.638-11.35 27.075-5.499z" clip-rule="evenodd"/><path fill="#F7A501" fill-rule="evenodd" d="M215.465 202.001s15.076-7.949 24.813-5.609c9.738 2.341 14.131 14.915 14.131 14.915s-15.349 24.056-19.84 31.298c-10.784 17.388-33.787 22.634-51.385 11.717-17.597-10.917-23.122-33.856-12.364-51.23 5.939-9.57 19.783-31.502 19.783-31.502s13.394-1.766 19.603 5.847c6.209 7.614 5.259 24.564 5.259 24.564z" clip-rule="evenodd"/><path fill="#F9CC69" fill-rule="evenodd" d="M215.598 201.67l-32.277 52.325s-33.42-16.782-12.364-51.23c5.877-9.61 19.783-31.506 19.783-31.506s13.394-1.767 19.603 5.847c6.208 7.614 5.255 24.564 5.255 24.564zm26.42-40.953s7.64 4.257 8.633 10.992c.442 3.03.301 6.669-.825 9.641a21.968 21.968 0 01-3.833 6.316c.106.72-26.24-15.078-30.674-17.741-.251-.155-.384-.715-.384-.715.187-.406.418-.789.689-1.144 2.91-4.289 12.493-15.877 26.394-7.349z" clip-rule="evenodd"/><path fill="#F7A501" fill-rule="evenodd" d="M242.049 160.514s3.166 2.208 4.319 3.436c5.714 6.002 4.778 13.395 2.972 18.548l-2.208 4.51c-.499 1.029-1.603 1.431-2.46.883l-14.06-8.696 11.437-18.681z" clip-rule="evenodd"/><path fill="#F7A501" fill-rule="evenodd" d="M257.275 159.953l-1.766 9.084-6.09 3.171-1.033-2.566 5.056-2.623 1.48-7.879s.839-.777 1.43-.578c.592.198.923 1.391.923 1.391z" clip-rule="evenodd"/><path fill="#F9CC69" fill-rule="evenodd" d="M233.769 146.373l-6.253 6.818 1.082 6.762 2.676-.698-.905-5.582 5.449-5.887s.124-1.135-.388-1.493c-.513-.358-1.661.08-1.661.08zm-68.805 31.497l14.012-6.037 10.086 5.419-2.566 3.833-8.297-4.482-13.407 5.741-5.617-4.664s-1.011-1.082-.137-2.208a2.081 2.081 0 012.12-.786l3.806 3.184z" clip-rule="evenodd"/><path fill="#F7A501" fill-rule="evenodd" d="M261.263 235.738l-.817-15.241-9.34-6.625-2.296 4.002 7.724 5.441.83 14.574 6.672 2.963s1.418.442 2.04-.861a2.087 2.087 0 00-.242-2.248l-4.571-2.005z" clip-rule="evenodd"/><path fill="#F9CC69" fill-rule="evenodd" d="M154.944 193.482l14.012-6.037 10.086 5.419-2.565 3.838-8.298-4.487-13.407 5.741-5.617-4.664s-1.016-1.077-.137-2.208a2.09 2.09 0 012.12-.782l3.806 3.18z" clip-rule="evenodd"/><path fill="#F7A501" fill-rule="evenodd" d="M249.711 251.253l-.821-15.241-9.336-6.625-2.296 4.001 7.701 5.441.831 14.574 6.676 2.959s1.414.442 2.036-.861a2.083 2.083 0 00-.238-2.248l-4.553-2z" clip-rule="evenodd"/><path fill="#F9CC69" fill-rule="evenodd" d="M145.287 209.324l14.016-6.038 10.086 5.419-2.566 3.838-8.297-4.487-13.412 5.741-5.603-4.677s-1.012-1.082-.137-2.208a2.095 2.095 0 012.124-.786l3.789 3.198z" clip-rule="evenodd"/><path fill="#F7A501" fill-rule="evenodd" d="M239.947 266.034l-.817-15.241-9.34-6.624-2.296 4.005 7.706 5.441.83 14.574 6.673 2.964s1.417.441 2.04-.883a2.095 2.095 0 00-.243-2.248l-4.553-1.988z" clip-rule="evenodd"/><path fill="#F78301" fill-rule="evenodd" d="M218.932 206.515l-16.944 27.328-8.929-5.538 16.948-27.324 8.925 5.534zm-23.507 27.633a5.403 5.403 0 01-1.467 9.894 5.406 5.406 0 01-5.656-2.075 5.405 5.405 0 01-.216-6.021 5.332 5.332 0 017.339-1.798z" clip-rule="evenodd"/><path fill="#F7A501" fill-rule="evenodd" d="M214.476 203.768l-16.975 27.381-4.518-2.804 16.975-27.382 4.518 2.805zm-18.883 30.38l-5.741 9.345s-1.717-.835-2.472-3.533c-.522-1.842.587-3.803.587-3.803a5.397 5.397 0 011.405-1.692 5.363 5.363 0 011.964-.988 5.565 5.565 0 014.257.671z" clip-rule="evenodd"/><path fill="#F78301" fill-rule="evenodd" d="M168.956 51.31c4.672 10.074.76 21.808-8.735 26.216-9.494 4.407-20.98-.19-25.652-10.264-4.672-10.074-.76-21.813 8.735-26.216 9.494-4.403 20.98.177 25.652 10.264z" clip-rule="evenodd"/><path fill="#F7A501" fill-rule="evenodd" d="M145.397 62.06s16.957 1.647 23.82 8.943c6.862 7.296 3.621 20.227 3.621 20.227s-26.054 11.668-33.769 15.254c-18.547 8.607-40.662.358-49.375-18.425-8.713-18.783-.733-40.997 17.827-49.605 10.219-4.739 33.831-15.457 33.831-15.457s12.157 5.882 13.173 15.647c1.015 9.764-9.128 23.416-9.128 23.416z" clip-rule="evenodd"/><path fill="#F9CC69" fill-rule="evenodd" d="M145.693 61.86l-55.708 26s-18.723-32.359 17.828-49.6c10.187-4.805 33.835-15.458 33.835-15.458s12.157 5.887 13.168 15.652c1.011 9.765-9.123 23.407-9.123 23.407zm44.579-19.71s4.045 7.751 1.175 13.925c-1.29 2.778-3.409 5.742-5.98 7.605a21.94 21.94 0 01-6.654 3.176c-.31.658-13.65-27.015-15.898-31.675a1.402 1.402 0 01.066-.812 6.522 6.522 0 011.206-.579c4.782-1.983 19.148-6.4 26.085 8.36z" clip-rule="evenodd"/><path fill="#F7A501" fill-rule="evenodd" d="M190.409 41.996s1.426 3.6 1.722 5.242c1.479 8.153-3.365 13.819-7.715 17.149l-4.31 2.561c-.984.583-2.124.314-2.548-.6l-6.968-15.016 19.819-9.336z" clip-rule="evenodd"/><path fill="#F7A501" fill-rule="evenodd" d="M203.454 49.875l-6.452 6.624-6.832-.693.566-2.703 5.621.583 5.564-5.777s1.131-.185 1.515.305c.384.49.018 1.66.018 1.66z" clip-rule="evenodd"/><path fill="#F9CC69" fill-rule="evenodd" d="M191.252 25.629l-8.968 2.274-2.818 6.258 2.619.883 2.309-5.162 7.786-1.926s.728-.883.494-1.462c-.234-.578-1.422-.865-1.422-.865zm-74.797-11.465l15.014 2.65 5.449 10.065-4.248 1.797-4.456-8.28-14.351-2.58-2.133-6.982s-.252-1.457 1.099-1.921a2.09 2.09 0 012.208.512l1.418 4.739z" clip-rule="evenodd"/><path fill="#F7A501" fill-rule="evenodd" d="M165.158 115.414l7.684-13.188-4.186-10.665-4.116 2.084 3.449 8.78-7.282 12.622 3.975 6.139s.949 1.135 2.172.402a2.075 2.075 0 001.033-2.01l-2.729-4.164z" clip-rule="evenodd"/><path fill="#F9CC69" fill-rule="evenodd" d="M99.506 21.72l15.015 2.65 5.449 10.07-4.248 1.797-4.474-8.334-14.352-2.579-2.133-6.982s-.251-1.458 1.1-1.917a2.084 2.084 0 012.208.508l1.435 4.787z" clip-rule="evenodd"/><path fill="#F7A501" fill-rule="evenodd" d="M146.982 122.034l7.684-13.187-4.164-10.666-4.116 2.085 3.449 8.779-7.3 12.622 3.953 6.139s.949 1.135 2.172.402a2.084 2.084 0 001.038-2.009l-2.716-4.165z" clip-rule="evenodd"/><path fill="#F9CC69" fill-rule="evenodd" d="M82.743 29.643l15.015 2.65 5.453 10.07-4.252 1.797-4.46-8.307-14.348-2.58-2.137-6.982s-.252-1.457 1.1-1.916a2.084 2.084 0 012.207.507l1.422 4.761z" clip-rule="evenodd"/><path fill="#F7A501" fill-rule="evenodd" d="M130.709 129.038l7.684-13.187-4.182-10.661-4.115 2.084 3.449 8.78-7.282 12.604 3.974 6.139s.949 1.135 2.173.402a2.075 2.075 0 001.033-2.009l-2.734-4.152z" clip-rule="evenodd"/><path fill="#F78301" fill-rule="evenodd" d="M148.925 75.931l-17.465-6.956 6.726-17.343-9.371-3.621-6.673 17.264-16.59-6.599-3.714 9.337 16.679 6.624-6.54 16.92 9.371 3.62 6.509-16.826 17.372 6.912 3.696-9.332z" clip-rule="evenodd"/><path fill="#F7A501" fill-rule="evenodd" d="M131.637 68.67l-13.248 6.047-16.67-6.625 3.74-9.769 16.613 6.991 6.902-17.36 9.154 3.634-6.491 17.083z" clip-rule="evenodd"/><path stroke="#35416B" stroke-linecap="round" stroke-linejoin="round" stroke-width="27.612" d="M209.539 110.163c54.082 0 97.919 43.519 97.919 97.2 0 53.681-43.859 97.2-97.919 97.2-54.06 0-97.915-43.519-97.915-97.2 0-53.681 43.837-97.2 97.915-97.2z" clip-rule="evenodd"/><path fill="#35416B" fill-rule="evenodd" d="M232.617 400.151v-85.112c0-1.325-3.873-2.376-8.651-2.376h-27.304c-4.778 0-8.651 1.064-8.651 2.376v85.112h44.606z" clip-rule="evenodd"/><path stroke="#6977AB" stroke-linecap="round" stroke-linejoin="round" stroke-width="5.518" d="M210.002 123C256.391 123 294 160.364 294 206.5S256.391 290 210.002 290C163.614 290 126 252.617 126 206.5s37.609-83.5 84.002-83.5z" clip-rule="evenodd"/><path stroke="#1C2234" stroke-linecap="square" stroke-linejoin="round" stroke-width="5.518" d="M191.69 325.209c6.884.031 12.589 3.737 19.231 3.476 6.642-.26 12.948-3.771 17.818-3.922m-36.714 12.459c6.885.031 12.59 3.736 19.232 3.471 6.641-.265 12.947-3.771 17.818-3.922"/></svg>