<svg xmlns="http://www.w3.org/2000/svg" width="371" height="287" fill="none" viewBox="0 0 371 287"><g clip-path="url(#clip0)"><path fill="#fff" fill-rule="evenodd" d="M12.8331 1.14709H358.128C361.463 1.14709 364.663 2.47275 367.021 4.83244C369.38 7.19212 370.705 10.3925 370.705 13.7296V244.147C370.705 247.484 369.38 250.685 367.021 253.044C364.663 255.404 361.463 256.73 358.128 256.73H12.8331C9.49729 256.73 6.29812 255.404 3.93936 253.044C1.58061 250.685 0.255478 247.484 0.255478 244.147V13.7296C0.255478 10.3925 1.58061 7.19212 3.93936 4.83244C6.29812 2.47275 9.49729 1.14709 12.8331 1.14709Z" clip-rule="evenodd"/><path fill="#DCDCDC" fill-rule="evenodd" d="M363.776 0.270996C367.707 0.270996 370.879 2.79537 370.879 5.90561V11.8745H0.12262V5.97639C0.12262 2.83075 3.34171 0.290658 7.31152 0.290658L363.776 0.270996Z" clip-rule="evenodd"/><path fill="#FB4F0D" fill-rule="evenodd" d="M6.05296 6.40408C6.05993 6.05183 6.17071 5.70947 6.37141 5.41995C6.5721 5.13043 6.85378 4.90664 7.18111 4.77664C7.50845 4.64664 7.86688 4.61621 8.21143 4.68919C8.55598 4.76217 8.8713 4.93529 9.11789 5.18685C9.36447 5.43841 9.53133 5.7572 9.59752 6.10325C9.6637 6.4493 9.62628 6.8072 9.48995 7.13205C9.35361 7.45691 9.12442 7.73425 8.83114 7.92932C8.53785 8.12439 8.19352 8.22849 7.84134 8.22855C7.3625 8.22337 6.90527 8.02835 6.56999 7.6863C6.23471 7.34426 6.04877 6.88312 6.05296 6.40408Z" clip-rule="evenodd"/><path fill="#F7A501" fill-rule="evenodd" d="M12.33 6.36487C12.3377 6.01281 12.4492 5.67085 12.6503 5.38185C12.8515 5.09286 13.1334 4.86968 13.4608 4.74028C13.7882 4.61088 14.1465 4.58101 14.4907 4.65442C14.835 4.72782 15.15 4.90124 15.3962 5.15295C15.6424 5.40465 15.8088 5.72344 15.8747 6.06937C15.9406 6.4153 15.903 6.77299 15.7665 7.09761C15.6301 7.42224 15.4009 7.69937 15.1077 7.89427C14.8146 8.08917 14.4704 8.19319 14.1184 8.19328C13.8809 8.19071 13.6463 8.14137 13.4279 8.04809C13.2096 7.95481 13.0117 7.81942 12.8456 7.64963C12.6795 7.47985 12.5485 7.279 12.4601 7.05855C12.3716 6.83811 12.3274 6.6024 12.33 6.36487Z" clip-rule="evenodd"/><path fill="#85BD5B" fill-rule="evenodd" d="M18.835 6.32556C18.8427 5.97349 18.9541 5.63154 19.1553 5.34255C19.3565 5.05355 19.6384 4.83037 19.9658 4.70097C20.2932 4.57157 20.6514 4.5417 20.9957 4.61511C21.34 4.68852 21.655 4.86194 21.9012 5.11364C22.1474 5.36534 22.3138 5.68413 22.3797 6.03006C22.4456 6.37599 22.4079 6.73368 22.2715 7.0583C22.1351 7.38293 21.9059 7.66007 21.6127 7.85497C21.3195 8.04987 20.9754 8.15388 20.6234 8.15397C20.3858 8.15192 20.1509 8.10294 19.9323 8.00984C19.7137 7.91674 19.5156 7.78136 19.3494 7.61147C19.1833 7.44158 19.0523 7.24053 18.964 7.01986C18.8757 6.79918 18.8319 6.56323 18.835 6.32556Z" clip-rule="evenodd"/><path fill="#F1F3F2" fill-rule="evenodd" d="M33.2717 2.54285H42.0957C42.2579 2.54233 42.4186 2.57391 42.5686 2.63578C42.7186 2.69764 42.8548 2.78856 42.9695 2.90332C43.0842 3.01807 43.1751 3.15439 43.237 3.30442C43.2988 3.45445 43.3304 3.61523 43.3299 3.77751V8.34261C43.3299 8.67006 43.1998 8.98411 42.9684 9.21565C42.7369 9.4472 42.423 9.57728 42.0957 9.57728H33.2717C32.9444 9.57728 32.6304 9.4472 32.399 9.21565C32.1675 8.98411 32.0375 8.67006 32.0375 8.34261V3.77751C32.037 3.61523 32.0686 3.45445 32.1304 3.30442C32.1922 3.15439 32.2831 3.01807 32.3978 2.90332C32.5125 2.78856 32.6488 2.69764 32.7988 2.63578C32.9487 2.57391 33.1095 2.54233 33.2717 2.54285Z" clip-rule="evenodd"/><path fill="#F1F3F2" fill-rule="evenodd" d="M292.63 2.99109H301.454C301.781 2.99109 302.095 3.12117 302.326 3.35271C302.558 3.58425 302.688 3.8983 302.688 4.22575V8.79085C302.688 9.1183 302.558 9.43234 302.326 9.66388C302.095 9.89543 301.781 10.0255 301.454 10.0255H292.63C292.302 10.0255 291.988 9.89543 291.757 9.66388C291.526 9.43234 291.395 9.1183 291.395 8.79085V4.22575C291.395 3.8983 291.526 3.58425 291.757 3.35271C291.988 3.12117 292.302 2.99109 292.63 2.99109Z" clip-rule="evenodd"/><path fill="#F1F3F2" fill-rule="evenodd" d="M47.956 2.44458H56.7839C57.111 2.44562 57.4243 2.57603 57.6555 2.80735C57.8867 3.03867 58.0171 3.35211 58.0181 3.67924V8.24434C58.0181 8.57179 57.8881 8.88584 57.6566 9.11738C57.4252 9.34893 57.1113 9.479 56.7839 9.479H47.956C47.6287 9.479 47.3148 9.34893 47.0834 9.11738C46.8519 8.88584 46.7218 8.57179 46.7218 8.24434V3.67924C46.7229 3.35211 46.8532 3.03867 47.0845 2.80735C47.3157 2.57603 47.629 2.44562 47.956 2.44458Z" clip-rule="evenodd"/><path fill="#F1F3F2" fill-rule="evenodd" d="M307.302 2.91638H316.13C316.458 2.91638 316.771 3.04646 317.003 3.278C317.234 3.50955 317.364 3.82359 317.364 4.15104V8.69649C317.363 9.02362 317.233 9.33705 317.002 9.56837C316.771 9.79969 316.457 9.93011 316.13 9.93114H307.302C306.975 9.93011 306.662 9.79969 306.431 9.56837C306.2 9.33705 306.069 9.02362 306.068 8.69649V4.13138C306.073 3.80735 306.206 3.49833 306.436 3.27103C306.667 3.04372 306.978 2.91634 307.302 2.91638Z" clip-rule="evenodd"/><path fill="#F1F3F2" fill-rule="evenodd" d="M62.4399 2.25208H71.2639C71.5912 2.25208 71.9051 2.38216 72.1366 2.6137C72.368 2.84525 72.498 3.15928 72.498 3.48674V8.05184C72.498 8.37929 72.368 8.69333 72.1366 8.92487C71.9051 9.15641 71.5912 9.2865 71.2639 9.2865H62.4399C62.1122 9.28651 61.7979 9.15654 61.5658 8.92511C61.3337 8.69368 61.2028 8.37965 61.2018 8.05184V3.48674C61.2028 3.15892 61.3337 2.84489 61.5658 2.61346C61.7979 2.38203 62.1122 2.25207 62.4399 2.25208Z" clip-rule="evenodd"/><path fill="#F1F3F2" fill-rule="evenodd" d="M321.77 2.7041H330.598C330.926 2.7041 331.24 2.83418 331.471 3.06572C331.702 3.29727 331.833 3.61131 331.833 3.93876V8.49993C331.833 8.82775 331.703 9.14219 331.471 9.37436C331.24 9.60653 330.926 9.73748 330.598 9.73853H321.77C321.443 9.73748 321.129 9.60653 320.897 9.37436C320.666 9.14219 320.536 8.82775 320.536 8.49993V3.93876C320.536 3.61131 320.666 3.29727 320.898 3.06572C321.129 2.83418 321.443 2.7041 321.77 2.7041Z" clip-rule="evenodd"/><path fill="#F1F3F2" fill-rule="evenodd" d="M353.085 2.45252H361.909C362.071 2.452 362.232 2.48358 362.382 2.54545C362.532 2.60731 362.668 2.69823 362.783 2.81298C362.897 2.92774 362.988 3.06405 363.05 3.21408C363.112 3.36412 363.143 3.5249 363.143 3.68718V8.24835C363.143 8.41082 363.112 8.5718 363.05 8.72205C362.988 8.8723 362.897 9.00886 362.783 9.12393C362.668 9.23899 362.532 9.33029 362.382 9.39259C362.232 9.45488 362.071 9.48694 361.909 9.48694H353.085C352.922 9.48694 352.762 9.45488 352.612 9.39259C352.462 9.33029 352.325 9.23899 352.211 9.12393C352.096 9.00886 352.005 8.8723 351.943 8.72205C351.882 8.5718 351.85 8.41082 351.851 8.24835V3.70291C351.848 3.53931 351.878 3.37683 351.939 3.22497C352 3.07312 352.09 2.93494 352.205 2.81851C352.32 2.70208 352.457 2.60975 352.608 2.5469C352.759 2.48406 352.921 2.45198 353.085 2.45252Z" clip-rule="evenodd"/><path fill="#fff" fill-rule="evenodd" d="M94.108 2.43286H280.021C280.391 2.44 280.755 2.52024 281.094 2.66897C281.433 2.81769 281.739 3.03197 281.995 3.29948C282.251 3.56698 282.451 3.88242 282.584 4.22765C282.718 4.57289 282.781 4.94111 282.772 5.31111V6.53791C282.781 6.90811 282.718 7.27652 282.584 7.62198C282.451 7.96744 282.251 8.28314 281.995 8.55096C281.739 8.81877 281.433 9.03343 281.095 9.18258C280.756 9.33173 280.391 9.41245 280.021 9.4201H94.108C93.364 9.39952 92.6584 9.08448 92.1463 8.54414C91.6342 8.0038 91.3573 7.28228 91.3763 6.53791V5.31111C91.3573 4.56712 91.6343 3.84602 92.1466 3.3063C92.6588 2.76659 93.3643 2.45242 94.108 2.43286Z" clip-rule="evenodd"/><path fill="#35416B" fill-rule="evenodd" d="M3.73004 15.3693H33.2481V252.994H9.74764C6.42636 252.994 3.73004 247.14 3.73004 239.916V15.3693Z" clip-rule="evenodd"/><path fill="#fff" fill-rule="evenodd" d="M20.6941 26.1666V31.3648L25.7408 31.3294L25.8234 30.2717L24.3652 30.0122L22.6633 28.1838L20.6941 26.1666Z" clip-rule="evenodd"/><path fill="#35416B" fill-rule="evenodd" d="M21.5706 29.9217C21.5744 29.8332 21.6042 29.7478 21.6561 29.676C21.7081 29.6043 21.78 29.5494 21.8628 29.5182C21.9457 29.4869 22.0359 29.4807 22.1222 29.5004C22.2086 29.52 22.2873 29.5645 22.3485 29.6284C22.4098 29.6924 22.4509 29.773 22.4668 29.8601C22.4827 29.9472 22.4727 30.0371 22.438 30.1186C22.4033 30.2001 22.3454 30.2696 22.2716 30.3184C22.1977 30.3673 22.1111 30.3934 22.0226 30.3935C21.9619 30.3925 21.9019 30.3794 21.8463 30.3551C21.7906 30.3308 21.7403 30.2957 21.6983 30.2518C21.6563 30.208 21.6233 30.1562 21.6014 30.0995C21.5795 30.0429 21.569 29.9824 21.5706 29.9217Z" clip-rule="evenodd"/><path fill="#fff" fill-rule="evenodd" d="M17.1212 22.6632L17.1448 25.1601L20.1399 28.1327L20.1635 25.6555L17.1212 22.6632Z" clip-rule="evenodd"/><path fill="#fff" fill-rule="evenodd" d="M16.9719 25.5925L16.9483 27.9871L20.1871 31.2743L20.1399 28.8522L16.9719 25.5925Z" clip-rule="evenodd"/><path fill="#fff" fill-rule="evenodd" d="M17.0938 28.8405V31.3255L19.6132 31.3727L17.0938 28.8405Z" clip-rule="evenodd"/><path fill="#fff" fill-rule="evenodd" d="M14.0909 22.6003L14.0673 25.1365L17.0898 28.1406L17.1291 25.7578L16.9483 25.573L14.0909 22.6003Z" clip-rule="evenodd"/><path fill="#fff" fill-rule="evenodd" d="M14.0555 25.7223V28.109L17.1173 31.3058V28.8404L14.0555 25.7223Z" clip-rule="evenodd"/><path fill="#fff" fill-rule="evenodd" d="M14.0398 28.8955V31.3727L16.5356 31.3491L14.0398 28.8955Z" clip-rule="evenodd"/><path fill="#fff" fill-rule="evenodd" d="M10.9818 22.6868V25.1522L14.0633 28.1523V25.7223L10.9818 22.6868Z" clip-rule="evenodd"/><path fill="#fff" fill-rule="evenodd" d="M11.0172 25.7223L14.0712 28.9308L14.0397 31.3333L10.9543 28.0972L11.0172 25.7223Z" clip-rule="evenodd"/><path fill="#fff" fill-rule="evenodd" d="M10.9504 28.9387V31.353H13.4777L10.9504 28.9387Z" clip-rule="evenodd"/><path fill="#CCC" fill-rule="evenodd" d="M86.3806 186.59H313.214C314.012 186.59 314.778 186.907 315.343 187.472C315.907 188.037 316.225 188.803 316.225 189.602V204.685C316.225 205.484 315.907 206.25 315.343 206.815C314.778 207.38 314.012 207.697 313.214 207.697H86.3806C85.9854 207.697 85.5941 207.619 85.2291 207.468C84.864 207.317 84.5323 207.095 84.2531 206.815C83.9738 206.535 83.7524 206.203 83.6015 205.838C83.4507 205.472 83.3733 205.081 83.3738 204.685V189.602C83.3733 189.207 83.4507 188.815 83.6015 188.45C83.7524 188.084 83.9738 187.752 84.2531 187.473C84.5323 187.193 84.864 186.971 85.2291 186.819C85.5941 186.668 85.9854 186.59 86.3806 186.59Z" clip-rule="evenodd" opacity=".59"/><path fill="#454545" fill-rule="evenodd" d="M50.2475 30.9794C50.2757 31.3133 50.3924 31.6337 50.5856 31.9074C50.8921 32.277 51.4188 32.4658 52.1578 32.4658C52.5251 32.4763 52.8917 32.4258 53.2426 32.3163C53.4729 32.256 53.6761 32.1193 53.8188 31.9287C53.9616 31.738 54.0356 31.5046 54.0287 31.2665C54.0313 31.1259 53.9963 30.9872 53.9271 30.8648C53.858 30.7424 53.7574 30.6408 53.6356 30.5705C53.2479 30.3687 52.8317 30.2268 52.4015 30.1498L51.4424 29.9335C50.7517 29.8182 50.0865 29.5827 49.4772 29.2376C49.1682 29.0165 48.9215 28.7194 48.761 28.3749C48.6006 28.0305 48.5318 27.6504 48.5614 27.2715C48.5527 26.8905 48.6273 26.5122 48.78 26.1631C48.9328 25.814 49.16 25.5025 49.4457 25.2505C50.0353 24.7105 50.9013 24.4418 52.0438 24.4444C52.9238 24.42 53.7869 24.6898 54.4964 25.2111C54.833 25.4697 55.1042 25.8036 55.2885 26.186C55.4728 26.5684 55.565 26.9886 55.5577 27.4131H53.7378C53.7382 27.1728 53.6719 26.9371 53.5463 26.7323C53.4207 26.5275 53.2407 26.3616 53.0264 26.2531C52.6833 26.0895 52.3057 26.0113 51.9259 26.0251C51.5121 26.0022 51.1011 26.105 50.7467 26.32C50.6084 26.4076 50.4953 26.5299 50.4188 26.6748C50.3423 26.8196 50.3049 26.982 50.3104 27.1457C50.3064 27.2949 50.345 27.4422 50.4215 27.5703C50.4981 27.6984 50.6095 27.8021 50.7428 27.8692C51.1188 28.0468 51.5146 28.1788 51.9219 28.2624L53.4941 28.6556C54.0503 28.7607 54.5772 28.9847 55.0388 29.3123C55.3117 29.5333 55.5279 29.8162 55.6694 30.1377C55.8109 30.4591 55.8737 30.8097 55.8524 31.1603C55.8594 31.5533 55.7775 31.9427 55.6127 32.2995C55.448 32.6563 55.2048 32.9712 54.9013 33.2207C54.1372 33.8114 53.1843 34.1035 52.2207 34.0425C51.2285 34.0978 50.247 33.8135 49.4379 33.2364C49.107 32.9714 48.8432 32.6322 48.6677 32.2463C48.4922 31.8603 48.41 31.4385 48.4277 31.0148L50.2475 30.9794Z" clip-rule="evenodd"/><path fill="#454545" fill-rule="evenodd" d="M58.4033 29.7565H61.1232C61.1245 29.3641 60.9737 28.9864 60.7026 28.7027C60.5784 28.5835 60.4317 28.4902 60.2712 28.4281C60.1106 28.366 59.9393 28.3364 59.7672 28.341C59.5907 28.3329 59.4146 28.364 59.2515 28.432C59.0885 28.5 58.9424 28.6032 58.8239 28.7342C58.5861 29.0261 58.4397 29.3817 58.4033 29.7565ZM62.377 28.1837C62.6471 28.6018 62.8216 29.0744 62.888 29.5678C62.9381 30.0076 62.9565 30.4504 62.943 30.8929H58.3601C58.343 31.1625 58.3917 31.4321 58.502 31.6787C58.6122 31.9253 58.7807 32.1414 58.9929 32.3084C59.2511 32.4797 59.5557 32.5675 59.8654 32.5601C60.1862 32.5746 60.5002 32.4648 60.742 32.2534C60.8806 32.1236 60.9916 31.9671 61.0682 31.7933H62.8566C62.7805 32.2507 62.5634 32.6728 62.2355 33.0005C61.932 33.3316 61.5588 33.5911 61.1428 33.7604C60.7268 33.9298 60.2785 34.0046 59.8301 33.9795C59.0026 33.9885 58.2003 33.6948 57.574 33.1538C56.9215 32.6073 56.5992 31.7147 56.5992 30.4761C56.5992 29.3161 56.8901 28.4275 57.4796 27.8102C57.7738 27.5026 58.1297 27.2608 58.524 27.1009C58.9183 26.9409 59.342 26.8664 59.7672 26.8822C60.286 26.8754 60.7999 26.9827 61.2726 27.1968C61.729 27.4185 62.1123 27.7664 62.377 28.1994V28.1837Z" clip-rule="evenodd"/><path fill="#454545" fill-rule="evenodd" d="M65.5018 31.6202C65.5102 31.8614 65.5941 32.0938 65.7416 32.2847C65.9088 32.42 66.1013 32.5207 66.3078 32.5808C66.5143 32.6408 66.7306 32.6592 66.9443 32.6347C67.225 32.6473 67.5048 32.5948 67.7619 32.4813C67.8481 32.4434 67.9223 32.3824 67.9763 32.3051C68.0304 32.2279 68.0621 32.1372 68.0682 32.0431C68.0743 31.949 68.0545 31.8551 68.0108 31.7715C67.9672 31.6879 67.9015 31.6179 67.8208 31.5691C67.2315 31.3346 66.6206 31.1582 65.9971 31.0422C65.4148 30.9341 64.8658 30.6918 64.3934 30.3345C64.2334 30.1796 64.109 29.9918 64.0289 29.784C63.9488 29.5762 63.915 29.3535 63.9296 29.1312C63.9281 28.8284 63.9923 28.5287 64.1178 28.2531C64.2434 27.9775 64.4272 27.7324 64.6567 27.5348C65.2283 27.0775 65.9508 26.8516 66.681 26.9018C67.3947 26.87 68.1025 27.0433 68.7209 27.4011C68.998 27.5973 69.2248 27.8564 69.3826 28.1571C69.5404 28.4578 69.6248 28.7916 69.6288 29.1312H67.8798C67.8644 28.939 67.7979 28.7544 67.6872 28.5965C67.5605 28.4674 67.4064 28.3685 67.2363 28.3073C67.0661 28.246 66.8844 28.2239 66.7045 28.2426C66.4218 28.2189 66.1383 28.2805 65.8909 28.4195C65.8194 28.4638 65.7597 28.525 65.7172 28.5976C65.6748 28.6703 65.6507 28.7522 65.6472 28.8363C65.6424 28.9266 65.6644 29.0163 65.7106 29.094C65.7568 29.1717 65.8251 29.234 65.9067 29.2728C66.5 29.4859 67.11 29.6489 67.7304 29.7604C68.3117 29.8624 68.8548 30.1191 69.3026 30.5035C69.4721 30.6654 69.6058 30.861 69.6952 31.0777C69.7846 31.2944 69.8276 31.5274 69.8214 31.7618C69.8296 32.0712 69.767 32.3784 69.6382 32.6599C69.5095 32.9414 69.318 33.1896 69.0786 33.3857C68.5886 33.8051 67.8261 34.0148 66.791 34.0148C65.756 34.0148 64.9791 33.7933 64.4602 33.3503C64.2175 33.1402 64.0243 32.8789 63.8945 32.5852C63.7647 32.2915 63.7015 31.9727 63.7095 31.6517L65.5018 31.6202Z" clip-rule="evenodd"/><path fill="#454545" fill-rule="evenodd" d="M72.4785 31.6205C72.4903 31.8609 72.5738 32.0924 72.7182 32.285C72.8856 32.4199 73.0781 32.5203 73.2846 32.5804C73.491 32.6404 73.7073 32.659 73.9209 32.6349C74.2029 32.6478 74.4841 32.5953 74.7424 32.4816C74.8276 32.4426 74.9007 32.3812 74.9539 32.304C75.007 32.2268 75.0383 32.1366 75.0443 32.0431C75.0504 31.9495 75.031 31.8561 74.9882 31.7727C74.9454 31.6893 74.8809 31.619 74.8014 31.5694C74.2118 31.3356 73.601 31.1591 72.9776 31.0425C72.3951 30.9352 71.8459 30.6928 71.374 30.3347C71.2133 30.1802 71.0882 29.9925 71.0074 29.7847C70.9266 29.5769 70.8921 29.354 70.9062 29.1315C70.9057 28.8288 70.9704 28.5295 71.0959 28.254C71.2214 27.9785 71.4047 27.7333 71.6334 27.5351C72.2083 27.0612 72.9417 26.8237 73.6851 26.8706C74.3987 26.8395 75.1064 27.0127 75.725 27.3699C76.0022 27.5661 76.2289 27.8252 76.3868 28.1259C76.5446 28.4266 76.6289 28.7604 76.633 29.1H74.88C74.8677 28.9078 74.8024 28.7227 74.6913 28.5653C74.5647 28.4362 74.4105 28.3373 74.2404 28.2761C74.0703 28.2148 73.8885 28.1927 73.7087 28.2114C73.4259 28.1876 73.1425 28.2493 72.8951 28.3883C72.8235 28.4326 72.7639 28.4937 72.7214 28.5664C72.6789 28.6391 72.6549 28.721 72.6514 28.8051C72.6465 28.8954 72.6686 28.9851 72.7148 29.0628C72.761 29.1405 72.8292 29.2027 72.9108 29.2416C73.5039 29.4553 74.114 29.6184 74.7346 29.7292C75.3158 29.8311 75.8589 30.0878 76.3068 30.4723C76.4757 30.6344 76.6089 30.8301 76.6975 31.0468C76.7862 31.2636 76.8285 31.4965 76.8216 31.7306C76.8306 32.0397 76.7687 32.3468 76.6406 32.6283C76.5125 32.9098 76.3217 33.1582 76.0827 33.3545C75.5927 33.7739 74.8302 33.9836 73.7952 33.9836C72.7418 33.9836 71.9675 33.7634 71.4644 33.3191C71.2216 33.109 71.0284 32.8477 70.8986 32.554C70.7688 32.2603 70.7056 31.9415 70.7137 31.6205H72.4785Z" clip-rule="evenodd"/><path fill="#454545" fill-rule="evenodd" d="M79.911 26.2767H78.1345V24.6606H79.911V26.2767ZM78.1345 27.0631H79.911V33.7476H78.1345V27.0631Z" clip-rule="evenodd"/><path fill="#454545" fill-rule="evenodd" d="M86.1998 30.4407C86.2405 29.8953 86.1026 29.3514 85.8067 28.8915C85.6614 28.7206 85.4806 28.5834 85.277 28.4893C85.0735 28.3953 84.8519 28.3465 84.6276 28.3465C84.4033 28.3465 84.1817 28.3953 83.9782 28.4893C83.7746 28.5834 83.5938 28.7206 83.4484 28.8915C83.1782 29.3637 83.036 29.8985 83.036 30.4426C83.036 30.9868 83.1782 31.5216 83.4484 31.9938C83.5938 32.1647 83.7746 32.3019 83.9782 32.3959C84.1817 32.49 84.4033 32.5388 84.6276 32.5388C84.8519 32.5388 85.0735 32.49 85.277 32.3959C85.4806 32.3019 85.6614 32.1647 85.8067 31.9938C86.1026 31.5324 86.2405 30.9873 86.1998 30.4407ZM84.6276 34.011C83.4773 34.011 82.6191 33.661 82.0531 32.9611C81.5023 32.2379 81.204 31.3538 81.204 30.4446C81.204 29.5354 81.5023 28.6513 82.0531 27.9281C82.6191 27.2203 83.4773 26.8665 84.6276 26.8665C85.7779 26.8665 86.6348 27.2203 87.1981 27.9281C87.749 28.6513 88.0473 29.5354 88.0473 30.4446C88.0473 31.3538 87.749 32.2379 87.1981 32.9611C86.6217 33.6584 85.7609 34.007 84.6158 34.007L84.6276 34.011Z" clip-rule="evenodd"/><path fill="#454545" fill-rule="evenodd" d="M95.3736 29.2612V33.7712H93.5774V29.7016C93.5915 29.4231 93.5432 29.145 93.4359 28.8876C93.3418 28.7138 93.198 28.572 93.023 28.4803C92.848 28.3885 92.6497 28.351 92.4532 28.3725C92.1959 28.3532 91.9391 28.4158 91.7195 28.5514C91.4999 28.687 91.3289 28.8887 91.2309 29.1275C91.107 29.4536 91.0496 29.8012 91.0619 30.1498V33.7752H89.3167V27.0907H91.0068V28.0816C91.1751 27.7993 91.3905 27.5479 91.6436 27.3384C92.0451 27.0599 92.5273 26.9217 93.0153 26.9452C93.6277 26.9191 94.2294 27.1114 94.7133 27.4878C95.1535 27.8312 95.3736 28.4223 95.3736 29.2612Z" clip-rule="evenodd"/><path fill="#454545" fill-rule="evenodd" d="M102.5 26.2885V28.7225H104.642C104.968 28.7397 105.294 28.6902 105.601 28.577C105.789 28.4858 105.944 28.3386 106.046 28.1555C106.147 27.9725 106.189 27.7627 106.167 27.5547C106.192 27.3374 106.154 27.1174 106.057 26.9213C105.96 26.7252 105.808 26.5615 105.62 26.4498C105.329 26.3268 105.013 26.2716 104.697 26.2885H102.5ZM107.424 25.5847C107.62 25.8111 107.778 26.0673 107.892 26.3436C108.01 26.648 108.068 26.9726 108.061 27.2991C108.059 27.7411 107.948 28.1758 107.739 28.5652C107.51 28.99 107.123 29.3077 106.662 29.4499C107.036 29.5755 107.353 29.8289 107.558 30.1655C107.759 30.6091 107.848 31.0951 107.818 31.5811V32.1866C107.809 32.4681 107.826 32.7497 107.869 33.0281C107.886 33.1338 107.925 33.2347 107.984 33.3242C108.043 33.4137 108.12 33.4896 108.211 33.5471V33.7752H106.131C106.072 33.5707 106.033 33.4095 106.006 33.2876C105.957 33.0282 105.931 32.7651 105.927 32.5012V31.6597C105.97 31.2486 105.858 30.8364 105.613 30.5037C105.28 30.273 104.875 30.1697 104.473 30.2127H102.507V33.7516H100.656V24.7079H105.098C105.597 24.6979 106.093 24.7778 106.564 24.9438C106.898 25.0848 107.193 25.3047 107.424 25.5847Z" clip-rule="evenodd"/><path fill="#454545" fill-rule="evenodd" d="M110.828 29.7566H113.548C113.547 29.3645 113.397 28.9876 113.128 28.7028C113.003 28.5836 112.855 28.4904 112.694 28.4283C112.533 28.3662 112.361 28.3366 112.188 28.3411C112.012 28.3322 111.837 28.3629 111.674 28.431C111.511 28.499 111.366 28.6027 111.249 28.7343C111.01 29.0253 110.863 29.3814 110.828 29.7566ZM114.798 28.1838C115.068 28.6019 115.243 29.0745 115.309 29.5678C115.361 30.0075 115.38 30.4505 115.364 30.8929H110.785C110.768 31.1625 110.817 31.4322 110.927 31.6788C111.037 31.9254 111.206 32.1415 111.418 32.3085C111.675 32.4799 111.978 32.5678 112.287 32.5601C112.608 32.5745 112.924 32.4647 113.167 32.2534C113.304 32.1226 113.415 31.9664 113.493 31.7934H115.278C115.203 32.2504 114.987 32.6726 114.661 33.0005C114.356 33.3319 113.983 33.5917 113.566 33.761C113.149 33.9303 112.7 34.005 112.251 33.9796C111.425 33.9894 110.623 33.6956 109.999 33.1539C109.347 32.6086 109.02 31.7161 109.02 30.4761C109.02 29.3175 109.314 28.4289 109.901 27.8102C110.195 27.5032 110.551 27.2619 110.946 27.102C111.34 26.9421 111.763 26.8672 112.188 26.8823C112.707 26.8745 113.221 26.9819 113.694 27.1968C114.152 27.4163 114.535 27.7648 114.798 28.1995V28.1838Z" clip-rule="evenodd"/><path fill="#454545" fill-rule="evenodd" d="M120.529 29.4774C120.5 29.2352 120.414 29.0034 120.277 28.8011C120.169 28.6659 120.029 28.5593 119.87 28.4908C119.711 28.4222 119.538 28.3938 119.365 28.4079C119.1 28.3989 118.839 28.4776 118.623 28.6319C118.407 28.7861 118.248 29.0073 118.171 29.2612C118.043 29.6611 117.984 30.08 117.998 30.4998C117.985 30.9001 118.044 31.2994 118.171 31.6794C118.247 31.9294 118.404 32.147 118.618 32.2978C118.831 32.4487 119.089 32.5244 119.35 32.513C119.511 32.5293 119.673 32.5079 119.825 32.4506C119.976 32.3933 120.112 32.3016 120.222 32.1827C120.404 31.9304 120.512 31.6321 120.533 31.3216H122.321C122.276 31.8708 122.076 32.3959 121.743 32.8354C121.467 33.2164 121.098 33.5214 120.672 33.7221C120.246 33.9228 119.776 34.0127 119.306 33.9836C118.23 33.9836 117.443 33.6638 116.948 33.0241C116.415 32.3072 116.145 31.4279 116.186 30.5352C116.126 29.5681 116.426 28.6132 117.027 27.8535C117.319 27.5311 117.678 27.2778 118.08 27.1118C118.482 26.9459 118.916 26.8715 119.35 26.8941C120.079 26.8626 120.799 27.0607 121.409 27.4603C121.944 27.8339 122.262 28.5023 122.36 29.4538L120.529 29.4774Z" clip-rule="evenodd"/><path fill="#454545" fill-rule="evenodd" d="M128.134 30.4407C128.169 29.8931 128.024 29.349 127.722 28.8915C127.576 28.7206 127.396 28.5834 127.192 28.4893C126.988 28.3953 126.767 28.3465 126.542 28.3465C126.318 28.3465 126.097 28.3953 125.893 28.4893C125.689 28.5834 125.509 28.7206 125.363 28.8915C125.093 29.3637 124.951 29.8985 124.951 30.4426C124.951 30.9868 125.093 31.5216 125.363 31.9938C125.509 32.1647 125.689 32.3019 125.893 32.3959C126.097 32.49 126.318 32.5388 126.542 32.5388C126.767 32.5388 126.988 32.49 127.192 32.3959C127.396 32.3019 127.576 32.1647 127.722 31.9938C128.024 31.5348 128.169 30.9895 128.134 30.4407ZM126.562 34.011C125.409 34.011 124.551 33.661 123.988 32.9611C123.437 32.2379 123.139 31.3538 123.139 30.4446C123.139 29.5354 123.437 28.6513 123.988 27.9281C124.554 27.2203 125.412 26.8665 126.562 26.8665C127.712 26.8665 128.569 27.2203 129.133 27.9281C129.684 28.6513 129.982 29.5354 129.982 30.4446C129.982 31.3538 129.684 32.2379 129.133 32.9611C128.559 33.6584 127.698 34.007 126.55 34.007L126.562 34.011Z" clip-rule="evenodd"/><path fill="#454545" fill-rule="evenodd" d="M135.091 26.9296V28.7226L134.797 28.699H134.588C133.885 28.699 133.409 28.931 133.169 29.3871C133.014 29.7601 132.944 30.1632 132.965 30.5667V33.7713H131.204V27.0868H132.875V28.2665C133.062 27.9268 133.301 27.6178 133.582 27.3503C133.947 27.0712 134.4 26.9318 134.859 26.9571H134.942L135.091 26.9296Z" clip-rule="evenodd"/><path fill="#454545" fill-rule="evenodd" d="M140.433 27.9243V24.7314H142.209V33.7751H140.508V32.8472C140.3 33.2023 140.007 33.4997 139.655 33.7122C139.291 33.9027 138.885 33.9961 138.475 33.9835C138.097 33.9843 137.724 33.899 137.383 33.7341C137.043 33.5693 136.744 33.3292 136.51 33.032C135.964 32.3418 135.685 31.4776 135.724 30.598C135.667 29.6351 135.945 28.6821 136.51 27.9007C136.76 27.582 137.081 27.3268 137.448 27.156C137.815 26.9851 138.217 26.9035 138.621 26.9177C138.998 26.9112 139.371 27.0034 139.702 27.185C140.003 27.367 140.254 27.621 140.433 27.9243ZM140.484 30.5233C140.484 29.7055 140.277 29.1196 139.863 28.7657C139.616 28.5565 139.302 28.4435 138.979 28.4472C138.756 28.4325 138.533 28.4785 138.335 28.5803C138.136 28.6821 137.969 28.8358 137.851 29.0252C137.599 29.4633 137.475 29.9633 137.493 30.4683C137.467 30.9875 137.594 31.5028 137.858 31.9507C137.977 32.1337 138.142 32.2818 138.337 32.3799C138.532 32.478 138.749 32.5226 138.967 32.509C139.187 32.521 139.406 32.4762 139.603 32.3792C139.801 32.2821 139.97 32.1359 140.095 31.9546C140.37 31.5296 140.506 31.0293 140.484 30.5233Z" clip-rule="evenodd"/><path fill="#454545" fill-rule="evenodd" d="M145.598 26.2767H143.825V24.6606H145.598V26.2767ZM143.825 27.0631H145.598V33.7476H143.825V27.0631Z" clip-rule="evenodd"/><path fill="#454545" fill-rule="evenodd" d="M153.36 29.2612V33.7712H151.58V29.7016C151.594 29.4231 151.546 29.145 151.438 28.8876C151.344 28.7142 151.2 28.5727 151.025 28.481C150.85 28.3893 150.652 28.3515 150.456 28.3725C150.198 28.3532 149.941 28.4158 149.722 28.5514C149.502 28.687 149.331 28.8887 149.233 29.1275C149.109 29.4536 149.052 29.8012 149.064 30.1498V33.7752H147.319V27.0907H149.005V28.0816C149.176 27.7999 149.393 27.5487 149.646 27.3384C150.046 27.0605 150.527 26.9223 151.014 26.9452C151.626 26.9191 152.228 27.1114 152.712 27.4878C153.144 27.8312 153.36 28.4223 153.36 29.2612Z" clip-rule="evenodd"/><path fill="#454545" fill-rule="evenodd" d="M159.311 30.3936C159.348 29.8794 159.209 29.3678 158.918 28.9426C158.79 28.7814 158.626 28.6525 158.439 28.5664C158.252 28.4803 158.047 28.4395 157.841 28.4472C157.563 28.4326 157.289 28.5093 157.059 28.6655C156.829 28.8217 156.656 29.0488 156.568 29.3123C156.437 29.6765 156.376 30.0619 156.387 30.4486C156.379 30.8046 156.446 31.1582 156.583 31.4867C156.676 31.7475 156.85 31.9713 157.08 32.1245C157.311 32.2776 157.585 32.3519 157.861 32.336C158.057 32.3389 158.252 32.2989 158.431 32.2188C158.61 32.1386 158.77 32.0203 158.898 31.872C159.213 31.4468 159.36 30.9204 159.311 30.3936ZM158.293 27.071C158.739 27.2663 159.104 27.6093 159.327 28.0422V27.0749H161.013V33.4291C161.06 34.1128 160.908 34.7954 160.577 35.3951C160.077 36.1501 159.122 36.5236 157.703 36.5236C156.972 36.5543 156.246 36.38 155.609 36.0203C155.347 35.8621 155.129 35.6419 154.972 35.3793C154.816 35.1167 154.727 34.8196 154.712 34.5143H156.619C156.645 34.6856 156.73 34.8425 156.858 34.9587C157.139 35.1455 157.474 35.2302 157.81 35.1985C158.059 35.229 158.313 35.1852 158.538 35.0726C158.763 34.96 158.95 34.7836 159.075 34.5655C159.242 34.131 159.313 33.6656 159.284 33.201V32.7607C159.104 33.1013 158.828 33.3816 158.491 33.5668C158.153 33.7521 157.769 33.8341 157.385 33.8026C156.996 33.8191 156.607 33.7462 156.25 33.5894C155.893 33.4327 155.577 33.1962 155.326 32.8983C154.775 32.2027 154.496 31.3308 154.539 30.4447C154.509 29.5489 154.77 28.6675 155.282 27.9321C155.521 27.601 155.839 27.3347 156.207 27.1576C156.575 26.9804 156.981 26.898 157.389 26.9176C157.698 26.9075 158.005 26.9597 158.293 27.071Z" clip-rule="evenodd"/><path fill="#454545" fill-rule="evenodd" d="M57.1573 201.783H344.084V236.087H57.1573V201.783Z" clip-rule="evenodd"/><path stroke="#BEBEBE" stroke-linecap="round" stroke-linejoin="round" stroke-width="1.591" d="M56.7643 47.7181H344.477V236.948H56.7643V47.7181Z"/><path fill="#fff" fill-rule="evenodd" d="M75.3477 223.96L68.5401 220.15C68.147 219.93 67.8286 220.119 67.8286 220.567V228.191C67.8286 228.643 68.147 228.828 68.5361 228.608L75.3477 224.758C75.7407 224.538 75.7407 224.18 75.3477 223.96Z" clip-rule="evenodd"/><path fill="#CCC" fill-rule="evenodd" d="M89.7923 218.998H104.021C104.476 218.998 104.912 219.178 105.234 219.5C105.556 219.821 105.737 220.257 105.738 220.712V226.343C105.737 226.798 105.556 227.234 105.234 227.555C104.912 227.877 104.476 228.057 104.021 228.057H89.7923C89.3374 228.057 88.9011 227.877 88.5791 227.555C88.2571 227.234 88.0757 226.798 88.0746 226.343V220.712C88.0757 220.257 88.2571 219.821 88.5791 219.5C88.9011 219.178 89.3374 218.998 89.7923 218.998Z" clip-rule="evenodd"/><path fill="#fff" fill-rule="evenodd" d="M220.364 208.716H334.651V213.827H220.364V208.716Z" clip-rule="evenodd"/><path fill="#787878" fill-rule="evenodd" d="M111.379 218.809H126.487C126.961 218.809 127.415 218.997 127.749 219.332C128.084 219.667 128.272 220.121 128.272 220.594V225.989C128.272 226.462 128.084 226.917 127.749 227.251C127.415 227.586 126.961 227.774 126.487 227.774H111.379C110.905 227.774 110.451 227.586 110.115 227.252C109.78 226.917 109.591 226.463 109.59 225.989V220.594C109.591 220.12 109.78 219.666 110.115 219.332C110.451 218.997 110.905 218.809 111.379 218.809Z" clip-rule="evenodd"/><path fill="#80B9FF" fill-rule="evenodd" d="M67.3727 208.885H220.297V212.931H67.3727V208.885Z" clip-rule="evenodd"/><path fill="#80B9FF" fill-rule="evenodd" stroke="#fff" stroke-linecap="round" stroke-linejoin="round" stroke-width="1.777" d="M219 211.004C218.994 210.329 219.189 209.668 219.56 209.104C219.931 208.541 220.461 208.1 221.083 207.838C221.704 207.576 222.39 207.505 223.052 207.634C223.714 207.762 224.323 208.085 224.802 208.56C225.28 209.036 225.607 209.643 225.74 210.304C225.873 210.966 225.807 211.652 225.55 212.276C225.292 212.9 224.855 213.433 224.295 213.808C223.734 214.183 223.074 214.382 222.4 214.382C221.501 214.384 220.639 214.029 220.001 213.396C219.364 212.763 219.004 211.903 219 211.004Z" clip-rule="evenodd"/><path fill="#CCC" fill-rule="evenodd" d="M64.358 57.092H335.5V76.359H64.358V57.092Z" clip-rule="evenodd" opacity=".59"/><path fill="#CCC" fill-rule="evenodd" d="M81.5854 83.6688H318.021C318.681 83.675 319.334 83.8113 319.942 84.0699C320.55 84.3286 321.102 84.7045 321.564 85.1763C322.027 85.648 322.393 86.2063 322.64 86.8194C322.887 87.4324 323.011 88.0881 323.005 88.749C323.011 89.4101 322.888 90.0661 322.641 90.6793C322.394 91.2925 322.029 91.8511 321.566 92.3229C321.103 92.7948 320.551 93.1707 319.943 93.4291C319.335 93.6876 318.682 93.8236 318.021 93.8292H81.5854C80.9245 93.8236 80.2713 93.6876 79.663 93.4291C79.0547 93.1707 78.5034 92.7948 78.0405 92.3229C77.5776 91.8511 77.2122 91.2925 76.9653 90.6793C76.7184 90.0661 76.5947 89.4101 76.6015 88.749C76.5953 88.0881 76.7192 87.4324 76.9664 86.8194C77.2135 86.2063 77.5788 85.648 78.0416 85.1763C78.5044 84.7045 79.0556 84.3286 79.6636 84.0699C80.2717 83.8113 80.9247 83.675 81.5854 83.6688Z" clip-rule="evenodd" opacity=".59"/><path fill="#CCC" fill-rule="evenodd" d="M104.874 107.902H152.759C153.557 107.902 154.323 108.219 154.888 108.784C155.452 109.349 155.77 110.115 155.77 110.914V172.899C155.772 173.295 155.695 173.689 155.545 174.056C155.395 174.423 155.173 174.757 154.893 175.039C154.614 175.32 154.281 175.543 153.915 175.696C153.548 175.848 153.156 175.926 152.759 175.926H104.874C104.478 175.926 104.087 175.848 103.722 175.697C103.357 175.546 103.025 175.324 102.746 175.044C102.467 174.764 102.245 174.432 102.095 174.067C101.944 173.701 101.866 173.31 101.867 172.914V110.914C101.866 110.519 101.944 110.127 102.095 109.762C102.245 109.396 102.467 109.064 102.746 108.784C103.025 108.505 103.357 108.283 103.722 108.131C104.087 107.98 104.478 107.902 104.874 107.902Z" clip-rule="evenodd" opacity=".59"/><path fill="#CCC" fill-rule="evenodd" d="M178.307 107.643H226.22C226.615 107.642 227.007 107.719 227.372 107.87C227.737 108.021 228.069 108.243 228.349 108.522C228.628 108.802 228.85 109.133 229.002 109.499C229.153 109.864 229.231 110.255 229.231 110.651V172.639C229.23 173.437 228.912 174.202 228.348 174.766C227.783 175.33 227.018 175.647 226.22 175.647H178.307C177.51 175.646 176.746 175.329 176.182 174.765C175.619 174.201 175.301 173.437 175.3 172.639V110.655C175.3 110.259 175.377 109.868 175.528 109.502C175.679 109.137 175.9 108.805 176.18 108.525C176.459 108.245 176.791 108.023 177.156 107.872C177.521 107.721 177.912 107.643 178.307 107.643Z" clip-rule="evenodd" opacity=".59"/><path fill="#CCC" fill-rule="evenodd" d="M250.212 107.643H298.109C298.504 107.642 298.895 107.719 299.261 107.87C299.626 108.021 299.958 108.243 300.238 108.522C300.517 108.802 300.739 109.133 300.89 109.499C301.042 109.864 301.12 110.255 301.12 110.651V172.639C301.119 173.437 300.801 174.202 300.236 174.766C299.672 175.33 298.907 175.647 298.109 175.647H250.212C249.414 175.647 248.649 175.33 248.084 174.766C247.52 174.202 247.202 173.437 247.201 172.639V110.655C247.201 110.259 247.278 109.867 247.429 109.501C247.58 109.136 247.802 108.803 248.082 108.524C248.361 108.244 248.693 108.022 249.059 107.871C249.425 107.72 249.816 107.642 250.212 107.643Z" clip-rule="evenodd" opacity=".59"/><path fill="#fff" fill-rule="evenodd" d="M162.471 61.8971H186.954C188.06 61.8971 189.12 62.3361 189.902 63.1176C190.684 63.8992 191.123 64.9593 191.125 66.0651C191.121 67.1695 190.681 68.2276 189.899 69.0074C189.117 69.7872 188.058 70.2252 186.954 70.2252H162.471C161.366 70.2241 160.306 69.7841 159.525 69.0019C158.744 68.2196 158.305 67.159 158.305 66.0533C158.309 64.9502 158.75 63.8937 159.53 63.1148C160.311 62.336 161.369 61.8981 162.471 61.8971Z" clip-rule="evenodd"/><path fill="#fff" fill-rule="evenodd" d="M119.44 61.9955H143.923C145.028 61.9955 146.088 62.4346 146.869 63.2163C147.651 63.9979 148.089 65.058 148.089 66.1634C148.089 67.2689 147.651 68.329 146.869 69.1106C146.088 69.8923 145.028 70.3314 143.923 70.3314H119.44C118.893 70.3319 118.35 70.2245 117.844 70.0153C117.339 69.806 116.879 69.4991 116.491 69.112C116.104 68.725 115.797 68.2653 115.587 67.7594C115.378 67.2534 115.27 66.7111 115.27 66.1634C115.27 65.6158 115.378 65.0735 115.587 64.5675C115.797 64.0616 116.104 63.6019 116.491 63.2149C116.879 62.8278 117.339 62.5209 117.844 62.3116C118.35 62.1024 118.893 61.995 119.44 61.9955Z" clip-rule="evenodd"/><path fill="#fff" fill-rule="evenodd" d="M78.4017 62.7976H102.885C103.99 62.7976 105.049 63.2367 105.831 64.0184C106.612 64.8 107.051 65.8602 107.051 66.9656C107.05 68.0707 106.611 69.1302 105.83 69.9116C105.049 70.693 103.989 71.1325 102.885 71.1335H78.4017C77.2964 71.1335 76.2362 70.6945 75.4543 69.913C74.6723 69.1315 74.2325 68.0714 74.2314 66.9656C74.2314 66.4179 74.3393 65.8756 74.549 65.3696C74.7586 64.8637 75.0658 64.4041 75.4531 64.017C75.8404 63.6299 76.3002 63.323 76.8061 63.1137C77.312 62.9045 77.8542 62.7971 78.4017 62.7976Z" clip-rule="evenodd"/><path fill="#fff" fill-rule="evenodd" d="M324.522 61.8224H325.127C325.803 61.8219 326.472 61.9545 327.096 62.2128C327.72 62.471 328.287 62.8498 328.765 63.3274C329.243 63.805 329.622 64.3722 329.88 64.9964C330.139 65.6207 330.272 66.2898 330.272 66.9655C330.273 67.6414 330.141 68.3109 329.884 68.9358C329.626 69.5606 329.248 70.1286 328.771 70.6073C328.294 71.086 327.727 71.466 327.103 71.7256C326.479 71.9852 325.811 72.1194 325.135 72.1204H324.522C323.158 72.1194 321.85 71.5766 320.886 70.6115C319.922 69.6463 319.381 68.3378 319.381 66.9734C319.38 66.2973 319.512 65.6277 319.77 65.0028C320.028 64.3779 320.406 63.81 320.884 63.3315C321.361 62.8531 321.928 62.4736 322.553 62.2146C323.177 61.9557 323.846 61.8224 324.522 61.8224Z" clip-rule="evenodd"/><path fill="#FB4F0D" fill-rule="evenodd" d="M260 130.5C260 110.344 276.343 94 296.497 94C316.651 94 333 110.344 333 130.5C333 150.656 316.689 167 296.497 167C276.305 167 260 150.656 260 130.5Z" clip-rule="evenodd" opacity=".3"/><path fill="#FB4F0D" fill-rule="evenodd" d="M288.958 118.56L292.574 138.959L296.559 136.423L299.421 140.705L303.41 138.558L300.718 134.076L304.872 131.603L288.958 118.56Z" clip-rule="evenodd"/><path stroke="#fff" stroke-linecap="round" stroke-linejoin="round" stroke-width=".53" d="M15.3801 53.0933L15.4194 58.26H22.0226"/><path stroke="#fff" stroke-linecap="round" stroke-linejoin="round" stroke-width=".53" d="M16.6103 56.4315L17.9035 54.9727L19.0826 56.3489L21.5352 53.6476"/><path fill-rule="evenodd" stroke="#fff" stroke-linecap="round" stroke-linejoin="round" stroke-width=".53" d="M14.8573 101.579C14.8558 100.824 15.0783 100.085 15.4967 99.456C15.9151 98.8271 16.5106 98.3365 17.2078 98.0463C17.9051 97.7561 18.6727 97.6794 19.4136 97.8258C20.1544 97.9723 20.8352 98.3353 21.3697 98.8689C21.9043 99.4026 22.2685 100.083 22.4164 100.824C22.5643 101.565 22.4892 102.333 22.2006 103.031C21.9119 103.729 21.4228 104.326 20.795 104.745C20.1672 105.165 19.429 105.389 18.6738 105.389C17.6633 105.389 16.6942 104.988 15.9793 104.274C15.2644 103.559 14.8623 102.59 14.8612 101.579H14.8573Z" clip-rule="evenodd"/><path fill="#fff" fill-rule="evenodd" d="M13.2261 101.253H14.9556C15.0246 101.248 15.0926 101.271 15.1454 101.316C15.1982 101.36 15.2316 101.424 15.2385 101.493V101.717C15.2325 101.786 15.1994 101.85 15.1464 101.895C15.0934 101.94 15.0248 101.962 14.9556 101.957H13.2261C13.1569 101.962 13.0883 101.94 13.0353 101.895C12.9823 101.85 12.9492 101.786 12.9431 101.717V101.493C12.9501 101.424 12.9835 101.36 13.0363 101.316C13.089 101.271 13.1571 101.248 13.2261 101.253Z" clip-rule="evenodd"/><path fill="#fff" fill-rule="evenodd" d="M22.5532 101.182H24.2787C24.3478 101.176 24.4163 101.198 24.4698 101.242C24.5234 101.286 24.5577 101.349 24.5656 101.418V101.642C24.5587 101.712 24.5247 101.776 24.4711 101.821C24.4175 101.865 24.3484 101.887 24.2787 101.882H22.5532C22.4835 101.887 22.4145 101.865 22.3609 101.821C22.3072 101.776 22.2733 101.712 22.2663 101.642V101.418C22.2742 101.349 22.3086 101.286 22.3621 101.242C22.4156 101.198 22.4841 101.176 22.5532 101.182Z" clip-rule="evenodd"/><path fill="#fff" fill-rule="evenodd" d="M18.3633 97.7929V96.0667C18.3578 95.9976 18.3792 95.9291 18.4232 95.8755C18.4672 95.822 18.5303 95.7876 18.5991 95.7797H18.8232C18.8927 95.7866 18.9568 95.8206 19.0016 95.8743C19.0464 95.9279 19.0684 95.997 19.0629 96.0667V97.7929C19.0684 97.8626 19.0464 97.9316 19.0016 97.9853C18.9568 98.0389 18.8927 98.0729 18.8232 98.0799H18.5991C18.5303 98.072 18.4672 98.0376 18.4232 97.984C18.3792 97.9305 18.3578 97.862 18.3633 97.7929Z" clip-rule="evenodd"/><path fill="#fff" fill-rule="evenodd" d="M18.4262 107.167V105.437C18.4208 105.367 18.4429 105.299 18.4878 105.246C18.5327 105.193 18.5968 105.16 18.666 105.154H18.89C18.9595 105.161 19.0236 105.195 19.0684 105.248C19.1132 105.302 19.1353 105.371 19.1298 105.441V107.167C19.1353 107.236 19.1132 107.306 19.0684 107.359C19.0236 107.413 18.9595 107.447 18.89 107.454H18.666C18.5964 107.447 18.5324 107.413 18.4876 107.359C18.4427 107.306 18.4207 107.236 18.4262 107.167Z" clip-rule="evenodd"/><path fill="#fff" d="M16.9287 101.996V103.286H18.1"/><path stroke="#fff" stroke-linecap="round" stroke-linejoin="round" stroke-width=".53" d="M16.9287 101.996V103.286H18.1"/><path fill="#fff" d="M18.1 99.7863H16.9287V101.021"/><path stroke="#fff" stroke-linecap="round" stroke-linejoin="round" stroke-width=".53" d="M18.1 99.7863H16.9287V101.021"/><path fill="#fff" d="M20.4268 101.021V99.7863H19.2005"/><path stroke="#fff" stroke-linecap="round" stroke-linejoin="round" stroke-width=".53" d="M20.4268 101.021V99.7863H19.2005"/><path fill="#fff" d="M19.2005 103.286H20.4268V101.996"/><path stroke="#fff" stroke-linecap="round" stroke-linejoin="round" stroke-width=".53" d="M19.2005 103.286H20.4268V101.996"/><path fill="#fff" fill-rule="evenodd" d="M19.1455 145.378C19.5569 145.378 19.959 145.5 20.301 145.729C20.643 145.958 20.9095 146.283 21.0668 146.663C21.224 147.044 21.265 147.462 21.1844 147.866C21.1039 148.269 20.9055 148.64 20.6143 148.931C20.3231 149.221 19.9523 149.419 19.5487 149.499C19.1451 149.579 18.7269 149.537 18.347 149.379C17.9672 149.221 17.6427 148.954 17.4147 148.611C17.1867 148.269 17.0654 147.866 17.0662 147.454C17.0662 147.181 17.12 146.911 17.2246 146.659C17.3291 146.407 17.4823 146.178 17.6754 145.985C17.8686 145.792 18.0978 145.639 18.3501 145.535C18.6023 145.431 18.8726 145.378 19.1455 145.378Z" clip-rule="evenodd"/><path fill="#fff" fill-rule="evenodd" d="M19.1219 150.368C20.301 150.317 20.6587 149.802 21.3701 149.994C22.2152 150.223 22.6161 150.431 22.7694 151.088C22.874 151.529 22.8182 151.993 22.6122 152.397C22.4726 152.718 22.227 152.982 21.9165 153.144L16.457 153.223C16.1503 152.998 15.8989 152.706 15.722 152.369C15.5977 152.038 15.5652 151.68 15.6277 151.331C15.6562 151.069 15.7606 150.821 15.9281 150.617C16.0957 150.413 16.3191 150.262 16.571 150.183C17.4553 149.924 17.9427 150.431 19.1219 150.368Z" clip-rule="evenodd"/><path fill="#fff" fill-rule="evenodd" d="M14.4053 145.748C14.662 145.746 14.9136 145.82 15.1282 145.96C15.3429 146.101 15.511 146.303 15.6112 146.539C15.7114 146.775 15.7392 147.036 15.6911 147.289C15.6431 147.541 15.5213 147.773 15.3411 147.956C15.161 148.139 14.9307 148.264 14.6793 148.316C14.4279 148.368 14.1667 148.344 13.9289 148.248C13.691 148.151 13.4873 147.986 13.3433 147.773C13.1993 147.561 13.1216 147.31 13.12 147.053C13.1179 146.883 13.1496 146.714 13.2132 146.556C13.2768 146.398 13.3711 146.254 13.4906 146.133C13.6101 146.011 13.7525 145.915 13.9095 145.849C14.0665 145.783 14.235 145.748 14.4053 145.748Z" clip-rule="evenodd"/><path fill="#fff" fill-rule="evenodd" d="M14.4053 148.874C15.1481 148.843 15.3564 148.52 15.7966 148.642C16.3194 148.78 16.4452 149.118 16.3941 149.22C16.343 149.322 15.8674 149.118 15.3486 149.448C14.9859 149.756 14.7266 150.168 14.6057 150.628L12.7623 150.651C12.572 150.51 12.4161 150.327 12.3064 150.117C12.2309 149.912 12.2092 149.691 12.2435 149.476C12.2608 149.312 12.3254 149.157 12.4294 149.029C12.5334 148.901 12.6723 148.806 12.8291 148.756C13.3637 148.591 13.6506 148.905 14.4053 148.874Z" clip-rule="evenodd"/><path fill="#fff" fill-rule="evenodd" d="M23.9957 145.748C23.739 145.745 23.4872 145.818 23.2721 145.958C23.057 146.098 22.8883 146.299 22.7874 146.535C22.6865 146.771 22.6579 147.032 22.7052 147.285C22.7525 147.537 22.8736 147.77 23.0532 147.953C23.2327 148.137 23.4627 148.263 23.7139 148.315C23.9652 148.368 24.2264 148.345 24.4645 148.249C24.7026 148.153 24.9069 147.989 25.0516 147.777C25.1962 147.564 25.2747 147.314 25.277 147.057C25.2796 146.887 25.2484 146.718 25.1853 146.56C25.1221 146.402 25.0282 146.258 24.909 146.137C24.7898 146.015 24.6477 145.919 24.4909 145.853C24.3341 145.787 24.1658 145.752 23.9957 145.752V145.748Z" clip-rule="evenodd"/><path fill="#fff" fill-rule="evenodd" d="M24.0075 148.874C23.2646 148.843 23.0563 148.52 22.6161 148.642C22.0933 148.78 21.9675 149.118 22.0147 149.22C22.0619 149.322 22.5453 149.118 23.0602 149.448C23.4239 149.755 23.6834 150.167 23.8031 150.628L25.6504 150.651C25.8398 150.509 25.9966 150.328 26.1103 150.12C26.1891 149.914 26.2082 149.689 26.1653 149.472C26.1487 149.308 26.0843 149.153 25.9802 149.026C25.876 148.898 25.7368 148.805 25.5797 148.756C25.0176 148.595 24.7503 148.905 24.0075 148.874Z" clip-rule="evenodd"/><path fill="#fff" fill-rule="evenodd" d="M23.6773 42.579C23.5264 41.8614 23.2396 41.1794 22.8323 40.5697C21.9558 39.2407 20.2028 38.1044 18.5087 38.1555C17.6806 38.1783 16.8694 38.3947 16.1398 38.7873C15.4102 39.1799 14.7825 39.7378 14.307 40.4164C14.125 40.676 13.9708 40.9541 13.8472 41.2461C13.5158 42.0295 13.3486 42.8726 13.3558 43.7232C13.3539 43.735 13.3539 43.7469 13.3558 43.7586C13.3589 43.8473 13.3963 43.9313 13.4601 43.9929C13.5239 44.0546 13.6091 44.089 13.6978 44.0889H14.9988C15.0578 44.1322 17.1055 44.1322 17.1055 44.1322C17.1377 44.2326 17.1758 44.3311 17.2195 44.4271C17.2982 44.5921 17.4046 44.7423 17.534 44.8714C17.6405 44.9706 17.7644 45.0493 17.8995 45.1034C18.0336 45.161 18.1752 45.1994 18.3201 45.2174C18.3904 45.2279 18.4613 45.2344 18.5323 45.2371C18.6048 45.2318 18.677 45.2226 18.7485 45.2095C18.8991 45.1862 19.0458 45.1425 19.1848 45.0798C19.3132 45.0249 19.4325 44.9506 19.5385 44.8596C19.6671 44.7464 19.7772 44.6137 19.8648 44.4664C19.9198 44.368 19.9671 44.2655 20.0062 44.1597L21.8536 44.1322L23.4258 44.1046C23.5113 44.105 23.5938 44.0733 23.6571 44.0158C23.7204 43.9583 23.7599 43.8792 23.7677 43.794C23.7677 43.794 23.7677 43.7547 23.7677 43.7272C23.7883 43.3421 23.758 42.9561 23.6773 42.579ZM18.5166 44.7062C18.3285 44.7062 18.1446 44.6504 17.9881 44.5459C17.8317 44.4413 17.7098 44.2927 17.6378 44.1188C17.5658 43.945 17.547 43.7536 17.5837 43.5691C17.6204 43.3845 17.711 43.2149 17.844 43.0818C17.977 42.9488 18.1465 42.8581 18.331 42.8214C18.5155 42.7847 18.7068 42.8036 18.8806 42.8756C19.0544 42.9476 19.203 43.0696 19.3075 43.226C19.412 43.3825 19.4678 43.5665 19.4678 43.7547C19.4678 44.0071 19.3676 44.2491 19.1892 44.4275C19.0108 44.606 18.7689 44.7062 18.5166 44.7062ZM22.1444 43.3969C22.1444 43.3182 22.1444 43.275 22.113 43.1806C22.035 42.7599 21.9124 42.3486 21.7475 41.9538C21.6737 41.7709 21.587 41.5935 21.4881 41.423C21.4062 41.2871 21.317 41.1559 21.2208 41.0298C21.0076 40.7301 20.761 40.4557 20.4858 40.2119C20.373 40.1104 20.2521 40.0183 20.1242 39.9367C20.0455 39.8892 19.9511 39.875 19.8619 39.8971C19.7728 39.9193 19.696 39.9759 19.6486 40.0547C19.6012 40.1334 19.5869 40.2277 19.609 40.317C19.6311 40.4062 19.6878 40.483 19.7665 40.5304L19.8254 40.5737C19.8958 40.6228 19.9628 40.6767 20.0259 40.7349C20.2652 40.9435 20.479 41.1797 20.6626 41.4387C20.7412 41.5488 20.8199 41.6707 20.8945 41.7926C20.976 41.9359 21.0482 42.0844 21.1107 42.2369C21.2572 42.5889 21.3666 42.9553 21.437 43.33C21.437 43.3576 21.437 43.3811 21.437 43.4126H19.9355C19.924 43.3436 19.9082 43.2753 19.8883 43.2081C19.8421 43.0748 19.7744 42.95 19.6879 42.8385C19.6477 42.7911 19.6044 42.7464 19.5582 42.7048C19.4477 42.6121 19.3293 42.5292 19.2044 42.4571C19.1101 42.4021 19.0158 42.351 18.9175 42.3038L18.8625 39.7204C18.8625 39.6287 18.826 39.5406 18.7612 39.4758C18.6963 39.4109 18.6083 39.3744 18.5166 39.3744C18.4249 39.3744 18.3369 39.4109 18.272 39.4758C18.2072 39.5406 18.1707 39.6287 18.1707 39.7204L18.1353 42.2998C18.0371 42.347 17.9388 42.3981 17.8484 42.4532C17.7267 42.52 17.6121 42.599 17.5065 42.6891C17.4438 42.7374 17.3882 42.7943 17.3414 42.8582C17.2605 42.9636 17.1981 43.0819 17.1566 43.2081C17.1385 43.2741 17.124 43.3411 17.1134 43.4087H15.5923C15.5884 43.3986 15.5884 43.3873 15.5923 43.3772C15.6593 43.0132 15.7647 42.6573 15.9067 42.3156C15.9733 42.1615 16.0494 42.0118 16.1347 41.8673C16.2055 41.7494 16.2762 41.6393 16.3548 41.5331C16.5362 41.2782 16.7488 41.0471 16.9876 40.845C17.0509 40.7882 17.1178 40.7356 17.1881 40.6877L17.251 40.6445C17.3333 40.6038 17.3961 40.532 17.4256 40.445C17.4551 40.358 17.4488 40.2629 17.4082 40.1805C17.3675 40.0981 17.2958 40.0352 17.2088 40.0057C17.1219 39.9762 17.0267 39.9825 16.9444 40.0232C16.9274 40.03 16.9115 40.0393 16.8972 40.0507C16.7707 40.1296 16.651 40.219 16.5395 40.3181C16.2621 40.5503 16.0128 40.8143 15.7967 41.1045C15.7063 41.2303 15.6198 41.3601 15.5412 41.4977C15.4389 41.669 15.3495 41.8478 15.2739 42.0325C15.1129 42.4118 14.993 42.8072 14.9162 43.2121C14.9162 43.2829 14.9162 43.3143 14.8887 43.3772H14.0358C14.0358 43.2317 14.0358 43.0744 14.0751 42.9093C14.1391 42.4226 14.2714 41.9474 14.4682 41.4977C14.5749 41.2503 14.7066 41.0145 14.8612 40.7939C15.2753 40.2031 15.822 39.7175 16.4575 39.3761C17.0929 39.0347 17.7995 38.8469 18.5205 38.8278C19.9512 38.7846 21.4959 39.7833 22.2506 40.9315C22.6096 41.4666 22.8618 42.0661 22.9934 42.697C23.0418 42.9208 23.0707 43.1484 23.0799 43.3772L22.1444 43.3969Z" clip-rule="evenodd"/><path fill="#fff" fill-rule="evenodd" d="M14.2284 170.421L16.0443 169.364L18.5284 170.661L21.0872 169.242L23.0249 170.359L18.6621 172.647L14.2284 170.421Z" clip-rule="evenodd"/><path fill="#fff" fill-rule="evenodd" d="M14.0712 167.791L15.8439 166.761L18.3673 167.976L20.9417 166.643L22.8795 167.76L18.5166 170.048L14.0712 167.791Z" clip-rule="evenodd"/><path fill="#fff" fill-rule="evenodd" d="M13.9415 165.141L15.9461 163.961L18.3712 165.141L20.6745 163.961L22.7458 165.109L18.3869 167.394L13.9415 165.141Z" clip-rule="evenodd"/><path fill="#fff" fill-rule="evenodd" d="M13.9543 162.321L18.3604 159.75L22.7625 162.286L18.3997 164.571L13.9543 162.321Z" clip-rule="evenodd"/><path fill="#fff" fill-rule="evenodd" d="M19.5149 113.969V122.4C19.5149 122.43 19.509 122.459 19.4976 122.487C19.4861 122.515 19.4693 122.54 19.4482 122.561C19.427 122.582 19.4019 122.599 19.3742 122.61C19.3465 122.622 19.3169 122.628 19.2869 122.628H18.8546C18.7948 122.627 18.7378 122.602 18.6959 122.559C18.654 122.517 18.6306 122.459 18.6306 122.4V113.969C18.6306 113.94 18.6364 113.911 18.6477 113.884C18.659 113.857 18.6756 113.833 18.6964 113.812C18.7173 113.792 18.742 113.776 18.7692 113.765C18.7963 113.754 18.8254 113.749 18.8546 113.749H19.2909C19.3203 113.749 19.3496 113.754 19.3769 113.765C19.4043 113.775 19.4293 113.791 19.4505 113.812C19.4716 113.832 19.4886 113.857 19.5003 113.884C19.512 113.911 19.5183 113.94 19.5189 113.969H19.5149Z" clip-rule="evenodd"/><path fill="#fff" fill-rule="evenodd" d="M24.8958 114.138V117.036C24.8958 117.066 24.8899 117.096 24.8784 117.123C24.867 117.151 24.8502 117.176 24.829 117.197C24.8078 117.219 24.7827 117.235 24.755 117.247C24.7274 117.258 24.6977 117.264 24.6678 117.264C24.208 117.471 23.7046 117.561 23.2017 117.528C22.4156 117.461 22.2702 117.056 21.5234 116.989C21.071 116.953 20.6179 117.049 20.2185 117.264C20.1885 117.264 20.1589 117.258 20.1312 117.247C20.1036 117.235 20.0784 117.219 20.0573 117.197C20.0361 117.176 20.0193 117.151 20.0079 117.123C19.9964 117.096 19.9905 117.066 19.9905 117.036V114.138C19.9915 114.078 20.016 114.021 20.0586 113.979C20.1013 113.937 20.1587 113.914 20.2185 113.914C20.6164 113.686 21.074 113.583 21.5313 113.619C22.2899 113.678 22.4746 114.075 23.2607 114.15C23.7422 114.192 24.2265 114.111 24.6678 113.914C24.6975 113.913 24.7271 113.919 24.7547 113.93C24.7824 113.941 24.8075 113.957 24.8288 113.978C24.85 113.999 24.8669 114.024 24.8784 114.051C24.8899 114.079 24.8958 114.108 24.8958 114.138Z" clip-rule="evenodd"/><path fill="#fff" fill-rule="evenodd" d="M16.5277 116.902V122.49C16.5277 122.572 16.6181 122.639 16.7243 122.639H17.1173C17.2274 122.639 17.3178 122.572 17.3178 122.49V116.902C17.3178 116.82 17.2274 116.753 17.1173 116.753H16.7243C16.6142 116.753 16.5277 116.82 16.5277 116.902Z" clip-rule="evenodd"/><path fill="#fff" fill-rule="evenodd" d="M12.8331 117.304V119.222C12.8331 119.262 12.8488 119.3 12.8768 119.328C12.9048 119.356 12.9428 119.372 12.9824 119.372C13.2869 119.509 13.6201 119.569 13.9533 119.549C14.476 119.502 14.5703 119.234 15.0656 119.191C15.3652 119.167 15.6653 119.23 15.9303 119.372C15.9692 119.371 16.0062 119.355 16.0334 119.327C16.0606 119.299 16.0757 119.261 16.0757 119.222V117.304C16.0757 117.265 16.0604 117.228 16.0331 117.201C16.0059 117.173 15.9689 117.158 15.9303 117.158C15.6655 117.007 15.362 116.937 15.0577 116.958C14.5546 116.997 14.4328 117.264 13.91 117.311C13.5916 117.34 13.2711 117.287 12.9785 117.158C12.9399 117.158 12.9029 117.173 12.8757 117.201C12.8484 117.228 12.8331 117.265 12.8331 117.304Z" clip-rule="evenodd"/><path fill="#fff" fill-rule="evenodd" stroke="#fff" stroke-linecap="round" stroke-linejoin="round" stroke-width=".265" d="M14.0398 66.1909L22.8795 66.1201L19.4088 69.5607L19.3381 73.6932H18.6935L17.3178 72.5136L17.3925 69.3955L14.0398 66.1909Z" clip-rule="evenodd"/><path fill-rule="evenodd" stroke="#fff" stroke-linecap="round" stroke-linejoin="round" stroke-width=".53" d="M15.2268 81.5849L17.6165 81.6085V86.7831C17.6165 86.7831 17.6755 87.5026 18.8821 87.5066C20.0888 87.5105 20.2146 86.8302 20.2146 86.8302L20.2499 81.5613L22.4628 81.5377L22.4864 87.9076C22.4864 87.9076 21.8811 89.9444 18.9765 89.968C15.8832 89.9916 15.3014 87.9076 15.3014 87.9076L15.2268 81.5849Z" clip-rule="evenodd"/><path fill="#fff" stroke="#fff" stroke-linecap="round" stroke-linejoin="round" stroke-width=".53" d="M17.4829 81.5887H15.3682V84.1918H17.4829V81.5887Z"/><path fill="#fff" stroke="#fff" stroke-linecap="round" stroke-linejoin="round" stroke-width=".53" d="M22.282 81.5887H20.3286V84.1918H22.282V81.5887Z"/><path fill="#fff" fill-rule="evenodd" d="M18.7839 127.995C19.2041 127.996 19.6144 128.122 19.9631 128.357C20.3117 128.592 20.5831 128.924 20.7428 129.313C20.9025 129.702 20.9435 130.13 20.8606 130.542C20.7776 130.954 20.5745 131.332 20.2768 131.629C19.9791 131.926 19.6002 132.127 19.188 132.209C18.7757 132.29 18.3486 132.248 17.9605 132.086C17.5724 131.925 17.2407 131.653 17.0074 131.303C16.7741 130.953 16.6496 130.542 16.6496 130.122C16.6496 129.842 16.7049 129.565 16.8122 129.306C16.9196 129.047 17.0769 128.813 17.2752 128.615C17.4735 128.417 17.7088 128.261 17.9677 128.154C18.2266 128.048 18.504 127.994 18.7839 127.995Z" clip-rule="evenodd"/><path fill="#fff" fill-rule="evenodd" d="M18.7642 133.118C19.9945 133.071 20.3364 132.54 21.0675 132.725C21.9322 132.957 22.3449 133.173 22.5021 133.846C22.6102 134.299 22.5516 134.776 22.337 135.19C22.1961 135.523 21.9486 135.8 21.6335 135.977L16.0365 136.055C15.7217 135.825 15.4625 135.526 15.2779 135.182C15.1486 134.843 15.1159 134.474 15.1835 134.117C15.2114 133.847 15.318 133.592 15.4899 133.382C15.6618 133.172 15.8915 133.018 16.1504 132.937C17.0584 132.674 17.5497 133.169 18.7642 133.118Z" clip-rule="evenodd"/></g><rect width="354" height="11" x="11" y="276" fill="#A07215" opacity=".4" rx="5.5"/><defs><clipPath id="clip0"><rect width="371" height="256.703" fill="#fff" transform="translate(0 0.148315)"/></clipPath></defs></svg>