<svg fill="none" viewBox="0 0 371 287"><g clip-path="url(#clip0)"><path fill="#fff" fill-rule="evenodd" d="M12.833 1.147h345.295c3.335 0 6.535 1.326 8.893 3.685a12.584 12.584 0 013.684 8.898v230.417a12.583 12.583 0 01-12.577 12.583H12.833A12.584 12.584 0 01.255 244.147V13.73a12.59 12.59 0 013.684-8.898 12.575 12.575 0 018.894-3.685z" clip-rule="evenodd"/><path fill="#DCDCDC" fill-rule="evenodd" d="M363.776.271c3.931 0 7.103 2.524 7.103 5.635v5.968H.123V5.976C.123 2.831 3.342.291 7.312.291L363.776.27z" clip-rule="evenodd"/><path fill="#FB4F0D" fill-rule="evenodd" d="M6.053 6.404A1.79 1.79 0 117.841 8.23a1.808 1.808 0 01-1.788-1.825z" clip-rule="evenodd"/><path fill="#F7A501" fill-rule="evenodd" d="M12.33 6.365a1.79 1.79 0 013.066-1.212 1.79 1.79 0 01-1.278 3.04 1.808 1.808 0 01-1.788-1.828z" clip-rule="evenodd"/><path fill="#85BD5B" fill-rule="evenodd" d="M18.835 6.326a1.789 1.789 0 111.788 1.828 1.804 1.804 0 01-1.788-1.828z" clip-rule="evenodd"/><path fill="#F1F3F2" fill-rule="evenodd" d="M33.272 2.543h8.824a1.23 1.23 0 011.234 1.235v4.565a1.235 1.235 0 01-1.234 1.234h-8.824a1.234 1.234 0 01-1.234-1.234V3.778a1.232 1.232 0 011.234-1.235zm259.358.448h8.824a1.232 1.232 0 011.234 1.235V8.79a1.233 1.233 0 01-1.234 1.234h-8.824a1.233 1.233 0 01-1.235-1.234V4.226a1.237 1.237 0 011.235-1.235zM47.956 2.445h8.828a1.238 1.238 0 011.234 1.234v4.565a1.235 1.235 0 01-1.234 1.235h-8.828a1.234 1.234 0 01-1.234-1.235V3.68a1.239 1.239 0 011.234-1.234zm259.346.471h8.828a1.234 1.234 0 011.234 1.235v4.545a1.239 1.239 0 01-1.234 1.235h-8.828a1.236 1.236 0 01-1.234-1.235V4.131a1.238 1.238 0 011.234-1.215zM62.44 2.252h8.824a1.234 1.234 0 011.234 1.235v4.565a1.235 1.235 0 01-1.234 1.235H62.44a1.238 1.238 0 01-1.238-1.235V3.487a1.239 1.239 0 011.238-1.235zm259.33.452h8.828a1.233 1.233 0 011.235 1.235v4.56a1.237 1.237 0 01-1.235 1.24h-8.828a1.24 1.24 0 01-1.234-1.24V3.94a1.233 1.233 0 011.234-1.235zm31.315-.251h8.824a1.231 1.231 0 011.234 1.234v4.561a1.241 1.241 0 01-.761 1.145 1.24 1.24 0 01-.473.094h-8.824a1.23 1.23 0 01-1.142-.765 1.24 1.24 0 01-.092-.474V3.703a1.222 1.222 0 01.354-.884 1.232 1.232 0 01.88-.366z" clip-rule="evenodd"/><path fill="#fff" fill-rule="evenodd" d="M94.108 2.433h185.913a2.803 2.803 0 012.563 1.795c.134.345.197.713.188 1.083v1.227a2.808 2.808 0 01-1.677 2.645c-.339.149-.704.23-1.074.237H94.108a2.81 2.81 0 01-2.732-2.882V5.31a2.808 2.808 0 012.732-2.878z" clip-rule="evenodd"/><path fill="#35416B" fill-rule="evenodd" d="M3.73 15.37h29.518v237.624h-23.5c-3.322 0-6.018-5.854-6.018-13.078V15.369z" clip-rule="evenodd"/><path fill="#fff" fill-rule="evenodd" d="M20.694 26.167v5.198l5.047-.036.082-1.057-1.458-.26-1.702-1.828-1.969-2.017z" clip-rule="evenodd"/><path fill="#35416B" fill-rule="evenodd" d="M21.57 29.922a.453.453 0 11.453.471.46.46 0 01-.452-.471z" clip-rule="evenodd"/><path fill="#fff" fill-rule="evenodd" d="M17.121 22.663l.024 2.497 2.995 2.973.023-2.477-3.042-2.993zm-.15 2.93l-.023 2.394 3.24 3.287-.048-2.422-3.168-3.26zm.123 3.247v2.486l2.52.047-2.52-2.533z" clip-rule="evenodd"/><path fill="#fff" fill-rule="evenodd" d="M14.09 22.6l-.023 2.537 3.023 3.004.04-2.383-.182-.185-2.857-2.973zm-.034 3.122v2.387l3.061 3.197V28.84l-3.062-3.118zm-.016 3.173v2.478l2.496-.024-2.496-2.454z" clip-rule="evenodd"/><path fill="#fff" fill-rule="evenodd" d="M10.982 22.687v2.465l3.081 3v-2.43l-3.081-3.035zm.035 3.035l3.054 3.209-.031 2.402-3.086-3.236.063-2.375zm-.067 3.217v2.414h2.528l-2.528-2.414z" clip-rule="evenodd"/><path fill="#CCC" fill-rule="evenodd" d="M86.38 186.59h226.834a3.011 3.011 0 013.011 3.012v15.083a3.011 3.011 0 01-3.011 3.012H86.381a3.013 3.013 0 01-2.128-.882 3.014 3.014 0 01-.88-2.13v-15.083a3.009 3.009 0 013.008-3.012z" clip-rule="evenodd" opacity=".59"/><path fill="#454545" fill-rule="evenodd" d="M50.248 30.98c.028.333.144.654.338.927.306.37.833.559 1.572.559.367.01.734-.04 1.085-.15a1.053 1.053 0 00.786-1.05.787.787 0 00-.393-.695 4.323 4.323 0 00-1.235-.421l-.959-.216a5.988 5.988 0 01-1.965-.696 2.207 2.207 0 01-.916-1.966 2.617 2.617 0 01.885-2.021c.59-.54 1.455-.81 2.598-.807a3.957 3.957 0 012.452.767 2.717 2.717 0 011.062 2.202h-1.82a1.298 1.298 0 00-.712-1.16 2.358 2.358 0 00-1.1-.228 2.054 2.054 0 00-1.18.295.939.939 0 00-.436.826.787.787 0 00.433.723c.376.178.772.31 1.179.393l1.572.394a3.93 3.93 0 011.545.656 2.205 2.205 0 01.813 1.848 2.606 2.606 0 01-.95 2.06 3.972 3.972 0 01-2.681.822 4.373 4.373 0 01-2.783-.806 2.7 2.7 0 01-1.01-2.221l1.82-.036zm8.155-1.224h2.72c.002-.392-.15-.77-.42-1.053a1.301 1.301 0 00-.936-.362 1.197 1.197 0 00-.943.393 1.911 1.911 0 00-.42 1.022zm3.974-1.572c.27.418.445.89.511 1.384.05.44.069.882.055 1.325H58.36a1.666 1.666 0 00.633 1.415c.258.172.563.26.872.252.321.015.635-.095.877-.307.139-.13.25-.286.326-.46h1.789c-.076.458-.294.88-.621 1.208a3.033 3.033 0 01-2.406.979 3.395 3.395 0 01-2.256-.826c-.652-.547-.975-1.44-.975-2.678 0-1.16.291-2.049.88-2.666a3.011 3.011 0 012.288-.928c.519-.007 1.033.1 1.506.315.456.222.84.57 1.104 1.002v-.015zm3.125 3.436c.008.241.092.474.24.665a1.62 1.62 0 001.202.35c.281.012.56-.04.818-.154a.514.514 0 00.059-.912c-.59-.234-1.2-.41-1.824-.527a3.812 3.812 0 01-1.604-.708 1.534 1.534 0 01-.463-1.203 2.094 2.094 0 01.727-1.596 2.92 2.92 0 012.024-.633 3.74 3.74 0 012.04.5 2.151 2.151 0 01.908 1.73h-1.75a1.082 1.082 0 00-.192-.536 1.202 1.202 0 00-.983-.353 1.42 1.42 0 00-.813.177.517.517 0 00-.244.416.457.457 0 00.26.437c.593.213 1.203.376 1.823.487a3.286 3.286 0 011.573.743 1.68 1.68 0 01.518 1.259 2.03 2.03 0 01-.742 1.624c-.49.42-1.253.629-2.288.629s-1.812-.222-2.33-.665a2.175 2.175 0 01-.752-1.698l1.793-.032zm6.977 0a1.2 1.2 0 00.24.665 1.627 1.627 0 001.202.35c.282.013.563-.04.821-.153a.52.52 0 00.06-.913 9.904 9.904 0 00-1.824-.526 3.788 3.788 0 01-1.604-.708 1.534 1.534 0 01-.468-1.204 2.108 2.108 0 01.727-1.596 2.935 2.935 0 012.052-.664 3.753 3.753 0 012.04.499 2.152 2.152 0 01.908 1.73H74.88a1.043 1.043 0 00-.189-.535 1.201 1.201 0 00-.982-.354 1.418 1.418 0 00-.814.177.515.515 0 00-.244.417.456.456 0 00.26.437c.593.213 1.203.376 1.824.487a3.285 3.285 0 011.572.743 1.675 1.675 0 01.515 1.259 2.025 2.025 0 01-.74 1.623c-.49.42-1.252.63-2.287.63-1.053 0-1.828-.22-2.33-.665a2.174 2.174 0 01-.751-1.699h1.764zm7.432-5.343h-1.776V24.66h1.776v1.616zm-1.776.786h1.776v6.685h-1.776v-6.685zm8.065 3.378a2.517 2.517 0 00-.393-1.55 1.547 1.547 0 00-2.359 0 3.123 3.123 0 000 3.103 1.547 1.547 0 002.359 0 2.53 2.53 0 00.393-1.553zm-1.572 3.57c-1.15 0-2.009-.35-2.575-1.05a4.153 4.153 0 010-5.033c.566-.708 1.424-1.062 2.575-1.062 1.15 0 2.007.354 2.57 1.062a4.153 4.153 0 010 5.033c-.576.697-1.437 1.046-2.582 1.046l.012.004zm10.746-4.75v4.51h-1.797v-4.07a1.87 1.87 0 00-.141-.813.994.994 0 00-.983-.516 1.222 1.222 0 00-1.222.756 2.618 2.618 0 00-.17 1.022v3.625h-1.744v-6.684h1.69v.99c.168-.282.383-.533.637-.743a2.22 2.22 0 011.371-.393 2.586 2.586 0 011.698.543c.44.343.66.934.66 1.773zm7.126-2.973v2.434h2.142c.326.018.652-.032.959-.145a1.019 1.019 0 00.566-1.022 1.136 1.136 0 00-.547-1.105 2.086 2.086 0 00-.923-.162H102.5zm4.924-.703c.196.226.354.482.468.759.118.304.176.629.169.955a2.704 2.704 0 01-.322 1.266 1.84 1.84 0 01-1.077.885c.374.126.691.379.896.716.201.443.29.93.26 1.415v.606c-.009.281.008.563.051.841a.756.756 0 00.342.52v.227h-2.08a7.918 7.918 0 01-.125-.487 4.613 4.613 0 01-.079-.787v-.841a1.658 1.658 0 00-.314-1.156 1.688 1.688 0 00-1.14-.291h-1.966v3.539h-1.851v-9.044h4.442c.499-.01.995.07 1.466.236.334.14.629.36.86.64zm3.404 4.172h2.72a1.54 1.54 0 00-.42-1.054 1.315 1.315 0 00-.94-.362 1.177 1.177 0 00-.939.393 1.888 1.888 0 00-.421 1.023zm3.97-1.573c.27.418.445.89.511 1.384.052.44.071.883.055 1.325h-4.579a1.671 1.671 0 00.633 1.416c.257.17.56.259.869.251.321.014.637-.095.88-.307.137-.13.248-.287.326-.46h1.785c-.075.457-.291.88-.617 1.208a3.044 3.044 0 01-2.41.979 3.375 3.375 0 01-2.252-.826c-.652-.545-.979-1.438-.979-2.678 0-1.159.294-2.047.881-2.666a3.01 3.01 0 012.287-.928c.519-.008 1.033.1 1.506.315.458.22.841.568 1.104 1.003v-.016zm5.731 1.293a1.53 1.53 0 00-.252-.676 1.056 1.056 0 00-.912-.393 1.206 1.206 0 00-1.194.853c-.128.4-.187.819-.173 1.239-.013.4.046.8.173 1.18a1.174 1.174 0 001.179.833 1.046 1.046 0 00.872-.33c.182-.253.29-.55.311-.861h1.788a2.898 2.898 0 01-.578 1.513 2.792 2.792 0 01-2.437 1.149c-1.076 0-1.863-.32-2.358-.96a3.875 3.875 0 01-.762-2.489 3.93 3.93 0 01.841-2.681 2.928 2.928 0 012.323-.96 3.483 3.483 0 012.059.566c.535.374.853 1.042.951 1.994l-1.831.023zm7.605.964a2.521 2.521 0 00-.412-1.55 1.551 1.551 0 00-2.359 0 3.125 3.125 0 000 3.103 1.55 1.55 0 002.359 0 2.533 2.533 0 00.412-1.553zm-1.572 3.57c-1.153 0-2.011-.35-2.574-1.05a4.152 4.152 0 010-5.033c.566-.708 1.424-1.062 2.574-1.062s2.007.354 2.571 1.062a4.152 4.152 0 010 5.033c-.574.697-1.435 1.046-2.583 1.046l.012.004zm8.529-7.081v1.793l-.294-.024h-.209c-.703 0-1.179.232-1.419.688a2.708 2.708 0 00-.204 1.18v3.204h-1.761v-6.684h1.671v1.18c.187-.34.426-.65.707-.917a1.93 1.93 0 011.277-.393h.083l.149-.027zm5.342.994v-3.193h1.776v9.044h-1.701v-.928a2.465 2.465 0 01-.853.865c-.364.19-.77.284-1.18.271a2.495 2.495 0 01-1.965-.951 3.662 3.662 0 01-.786-2.434 4.182 4.182 0 01.786-2.697 2.57 2.57 0 012.111-.983 2.17 2.17 0 011.081.267c.301.182.552.436.731.74zm.051 2.6c0-.819-.207-1.404-.621-1.758a1.344 1.344 0 00-.884-.319 1.232 1.232 0 00-1.128.578 2.701 2.701 0 00-.358 1.443c-.026.52.101 1.035.365 1.483a1.231 1.231 0 001.109.558 1.282 1.282 0 001.128-.554 2.44 2.44 0 00.389-1.432zm5.114-4.247h-1.773V24.66h1.773v1.616zm-1.773.786h1.773v6.685h-1.773v-6.685zm9.535 2.198v4.51h-1.78v-4.07a1.861 1.861 0 00-.142-.813.995.995 0 00-.982-.516 1.221 1.221 0 00-1.223.756 2.622 2.622 0 00-.169 1.022v3.625h-1.745v-6.684h1.686v.99c.171-.281.388-.532.641-.743a2.22 2.22 0 011.368-.393 2.587 2.587 0 011.698.543c.432.343.648.934.648 1.773zm5.951 1.133a2.28 2.28 0 00-.393-1.451 1.313 1.313 0 00-1.077-.496 1.272 1.272 0 00-1.273.865c-.131.364-.192.75-.181 1.137-.008.356.059.71.196 1.038a1.28 1.28 0 001.278.85 1.348 1.348 0 001.037-.465 2.15 2.15 0 00.413-1.478zm-1.018-3.323a2.12 2.12 0 011.034.971v-.967h1.686v6.354a3.564 3.564 0 01-.436 1.966c-.5.755-1.455 1.129-2.874 1.129a3.925 3.925 0 01-2.094-.504 1.866 1.866 0 01-.897-1.506h1.907a.754.754 0 00.239.445c.281.186.616.271.952.24a1.281 1.281 0 001.265-.633c.167-.435.238-.9.209-1.365v-.44a1.97 1.97 0 01-1.899 1.042 2.556 2.556 0 01-2.059-.905 3.665 3.665 0 01-.787-2.453 4.155 4.155 0 01.743-2.513 2.453 2.453 0 012.107-1.014c.309-.01.616.042.904.153zM57.157 201.783h286.927v34.304H57.157v-34.304z" clip-rule="evenodd"/><path stroke="#BEBEBE" stroke-linecap="round" stroke-linejoin="round" stroke-width="1.591" d="M56.764 47.718h287.713v189.23H56.764V47.718z"/><path fill="#fff" fill-rule="evenodd" d="M75.348 223.96l-6.808-3.81c-.393-.22-.711-.031-.711.417v7.624c0 .452.318.637.707.417l6.812-3.85c.393-.22.393-.578 0-.798z" clip-rule="evenodd"/><path fill="#CCC" fill-rule="evenodd" d="M89.792 218.998h14.229a1.714 1.714 0 011.717 1.714v5.631a1.716 1.716 0 01-1.717 1.714H89.792a1.715 1.715 0 01-1.717-1.714v-5.631a1.717 1.717 0 011.717-1.714z" clip-rule="evenodd"/><path fill="#fff" fill-rule="evenodd" d="M220.364 208.716h114.287v5.111H220.364v-5.111z" clip-rule="evenodd"/><path fill="#787878" fill-rule="evenodd" d="M111.379 218.809h15.108a1.781 1.781 0 011.785 1.785v5.395a1.783 1.783 0 01-1.785 1.785h-15.108a1.792 1.792 0 01-1.789-1.785v-5.395a1.787 1.787 0 011.789-1.785z" clip-rule="evenodd"/><path fill="#80B9FF" fill-rule="evenodd" d="M67.373 208.885h152.924v4.046H67.373v-4.046z" clip-rule="evenodd"/><path fill="#80B9FF" fill-rule="evenodd" stroke="#fff" stroke-linecap="round" stroke-linejoin="round" stroke-width="1.777" d="M219 211.004a3.402 3.402 0 014.052-3.37 3.404 3.404 0 01-.652 6.748 3.395 3.395 0 01-3.4-3.378z" clip-rule="evenodd"/><path fill="#CCC" fill-rule="evenodd" d="M64.358 57.092H335.5v19.267H64.358V57.092zm17.227 26.577h236.436a5.03 5.03 0 014.984 5.08 5.043 5.043 0 01-1.439 3.574 5.031 5.031 0 01-3.545 1.506H81.585a5.024 5.024 0 01-4.62-3.15 5.03 5.03 0 01-.364-1.93 5.033 5.033 0 014.984-5.08zm23.289 24.233h47.885a3.011 3.011 0 013.011 3.012v61.985a3.022 3.022 0 01-.877 2.14 3.018 3.018 0 01-2.134.887h-47.885a3.012 3.012 0 01-2.128-.882 3.003 3.003 0 01-.879-2.13v-62a2.996 2.996 0 01.228-1.152 2.997 2.997 0 011.627-1.631 3.012 3.012 0 011.152-.229zm73.433-.259h47.913a2.995 2.995 0 012.129.879 3.012 3.012 0 01.882 2.129v61.988a3.014 3.014 0 01-3.011 3.008h-47.913a3.01 3.01 0 01-3.007-3.008v-61.984a3.02 3.02 0 01.88-2.13 2.994 2.994 0 012.127-.882zm71.905 0h47.897a2.999 2.999 0 012.781 1.856c.152.365.23.756.23 1.152v61.988a3.01 3.01 0 01-3.011 3.008h-47.897a3.012 3.012 0 01-3.011-3.008v-61.984a2.998 2.998 0 011.858-2.784 3.001 3.001 0 011.153-.228z" clip-rule="evenodd" opacity=".59"/><path fill="#fff" fill-rule="evenodd" d="M162.471 61.897h24.483a4.17 4.17 0 014.171 4.168 4.176 4.176 0 01-4.171 4.16h-24.483a4.17 4.17 0 01-4.166-4.172 4.172 4.172 0 014.166-4.156zm-43.031.099h24.483a4.165 4.165 0 014.166 4.167 4.166 4.166 0 01-4.166 4.168H119.44a4.17 4.17 0 01-3.853-2.572 4.181 4.181 0 010-3.192 4.178 4.178 0 012.257-2.255 4.17 4.17 0 011.596-.316zm-41.038.802h24.483a4.166 4.166 0 012.945 7.114 4.17 4.17 0 01-2.945 1.221H78.402a4.17 4.17 0 01-1.596-8.02 4.165 4.165 0 011.596-.315zm246.12-.976h.605a5.138 5.138 0 014.753 3.174 5.16 5.16 0 01.004 3.94 5.155 5.155 0 01-2.781 2.79 5.14 5.14 0 01-1.968.394h-.613a5.145 5.145 0 01-5.141-5.147 5.143 5.143 0 015.141-5.15z" clip-rule="evenodd"/><path fill="#FB4F0D" fill-rule="evenodd" d="M260 130.5c0-20.156 16.343-36.5 36.497-36.5S333 110.344 333 130.5 316.689 167 296.497 167 260 150.656 260 130.5z" clip-rule="evenodd" opacity=".3"/><path fill="#FB4F0D" fill-rule="evenodd" d="M288.958 118.56l3.616 20.399 3.985-2.536 2.862 4.282 3.989-2.147-2.692-4.482 4.154-2.473-15.914-13.043z" clip-rule="evenodd"/><path stroke="#fff" stroke-linecap="round" stroke-linejoin="round" stroke-width=".53" d="M15.38 53.093l.04 5.167h6.603"/><path stroke="#fff" stroke-linecap="round" stroke-linejoin="round" stroke-width=".53" d="M16.61 56.431l1.294-1.458 1.179 1.376 2.452-2.701"/><path stroke="#fff" stroke-linecap="round" stroke-linejoin="round" stroke-width=".53" d="M14.857 101.579a3.82 3.82 0 014.557-3.753 3.817 3.817 0 11-3.435 6.448 3.817 3.817 0 01-1.118-2.695h-.004z" clip-rule="evenodd"/><path fill="#fff" fill-rule="evenodd" d="M13.226 101.253h1.73a.263.263 0 01.19.063.265.265 0 01.092.177v.224a.264.264 0 01-.282.24h-1.73a.265.265 0 01-.283-.24v-.224a.265.265 0 01.283-.24zm9.327-.071h1.726a.265.265 0 01.287.236v.224a.268.268 0 01-.287.24h-1.726a.268.268 0 01-.287-.24v-.224a.267.267 0 01.287-.236zm-4.19-3.39v-1.725a.268.268 0 01.236-.287h.224a.267.267 0 01.24.287v1.726a.267.267 0 01-.24.287H18.6a.267.267 0 01-.236-.287zm.063 9.375v-1.73a.263.263 0 01.24-.283h.224a.27.27 0 01.178.094.269.269 0 01.062.193v1.726a.267.267 0 01-.24.287h-.224a.266.266 0 01-.24-.287z" clip-rule="evenodd"/><path fill="#fff" d="M16.929 101.996v1.29H18.1"/><path stroke="#fff" stroke-linecap="round" stroke-linejoin="round" stroke-width=".53" d="M16.929 101.996v1.29H18.1"/><path fill="#fff" d="M18.1 99.786h-1.171v1.235"/><path stroke="#fff" stroke-linecap="round" stroke-linejoin="round" stroke-width=".53" d="M18.1 99.786h-1.171v1.235"/><path fill="#fff" d="M20.427 101.021v-1.235H19.2"/><path stroke="#fff" stroke-linecap="round" stroke-linejoin="round" stroke-width=".53" d="M20.427 101.021v-1.235H19.2"/><path fill="#fff" d="M19.2 103.286h1.227v-1.29"/><path stroke="#fff" stroke-linecap="round" stroke-linejoin="round" stroke-width=".53" d="M19.2 103.286h1.227v-1.29"/><path fill="#fff" fill-rule="evenodd" d="M19.145 145.378a2.076 2.076 0 011.922 1.285 2.083 2.083 0 01-1.518 2.836 2.077 2.077 0 01-2.483-2.045 2.073 2.073 0 011.284-1.919c.252-.104.523-.157.795-.157zm-.023 4.99c1.179-.051 1.537-.566 2.248-.374.845.229 1.246.437 1.4 1.094.104.441.048.905-.158 1.309-.14.321-.385.585-.695.747l-5.46.079a2.5 2.5 0 01-.735-.854 1.965 1.965 0 01-.094-1.038 1.356 1.356 0 01.943-1.148c.884-.259 1.372.248 2.55.185zm-4.717-4.62a1.302 1.302 0 011.286 1.541 1.296 1.296 0 01-2.571-.236 1.289 1.289 0 011.285-1.305zm0 3.126c.743-.031.951-.354 1.392-.232.522.138.648.476.597.578-.051.102-.527-.102-1.045.228-.363.308-.622.72-.743 1.18l-1.844.023a1.569 1.569 0 01-.456-.534 1.275 1.275 0 01-.063-.641.85.85 0 01.586-.72c.535-.165.822.149 1.576.118zm9.59-3.126a1.299 1.299 0 10.496.105 1.277 1.277 0 00-.495-.101v-.004zm.012 3.126c-.742-.031-.95-.354-1.39-.232-.524.138-.65.476-.602.578.047.102.53-.102 1.045.228a2.3 2.3 0 01.743 1.18l1.847.023c.19-.142.347-.323.46-.531.08-.206.098-.431.055-.648a.836.836 0 00-.585-.716c-.562-.161-.83.149-1.572.118zm-.33-106.295a5.746 5.746 0 00-.845-2.01c-.876-1.328-2.63-2.465-4.323-2.413a5.307 5.307 0 00-4.202 2.26c-.182.26-.336.538-.46.83a6.223 6.223 0 00-.491 2.513.342.342 0 00.342.33h1.3c.06.043 2.107.043 2.107.043.033.1.07.2.114.295.08.165.186.315.315.444.107.1.23.178.366.232a1.935 1.935 0 00.633.134c.072-.005.144-.014.215-.028a1.69 1.69 0 00.437-.13 1.37 1.37 0 00.354-.22 1.642 1.642 0 00.467-.7l1.848-.027 1.572-.027a.342.342 0 00.342-.311v-.067a4.37 4.37 0 00-.09-1.148zm-5.16 2.127a.952.952 0 110-1.903.952.952 0 010 1.903zm3.627-1.31c0-.078 0-.121-.031-.215a6.04 6.04 0 00-.366-1.227 4.161 4.161 0 00-.259-.531 4.35 4.35 0 00-.267-.393 4.84 4.84 0 00-.735-.818 2.76 2.76 0 00-.362-.275.346.346 0 10-.357.593l.058.044c.07.049.138.103.2.16.24.21.454.446.638.705.078.11.157.232.232.354.081.143.153.291.216.444.146.352.256.718.326 1.093v.083h-1.502a1.711 1.711 0 00-.047-.205 1.295 1.295 0 00-.2-.37 1.388 1.388 0 00-.13-.133 2.479 2.479 0 00-.354-.248 4.026 4.026 0 00-.287-.153l-.055-2.584a.346.346 0 00-.691 0l-.036 2.58a3.316 3.316 0 00-.287.153 2.036 2.036 0 00-.341.236.84.84 0 00-.166.17 1.18 1.18 0 00-.184.35 1.832 1.832 0 00-.044.2h-1.52a.044.044 0 010-.032c.066-.364.172-.72.314-1.061a4.015 4.015 0 01.448-.783 3.75 3.75 0 01.833-.845l.063-.044a.347.347 0 10-.354-.593 2.647 2.647 0 00-.357.267 4.638 4.638 0 00-.743.787c-.09.125-.177.255-.256.393-.102.171-.191.35-.267.535a5.762 5.762 0 00-.358 1.18c0 .07 0 .101-.027.164h-.853c0-.145 0-.303.04-.468.063-.486.195-.962.392-1.411.107-.248.239-.483.393-.704a4.619 4.619 0 013.66-1.966c1.43-.043 2.975.955 3.73 2.103.359.536.61 1.135.742 1.766.049.224.078.451.087.68l-.936.02zm-7.916 127.025l1.816-1.057 2.484 1.297 2.56-1.419 1.937 1.117-4.363 2.288-4.434-2.226z" clip-rule="evenodd"/><path fill="#fff" fill-rule="evenodd" d="M14.071 167.791l1.773-1.03 2.523 1.215 2.575-1.333 1.938 1.117-4.363 2.288-4.446-2.257z" clip-rule="evenodd"/><path fill="#fff" fill-rule="evenodd" d="M13.941 165.141l2.005-1.18 2.425 1.18 2.303-1.18 2.072 1.148-4.36 2.285-4.444-2.253z" clip-rule="evenodd"/><path fill="#fff" fill-rule="evenodd" d="M13.954 162.321l4.406-2.571 4.402 2.536-4.362 2.285-4.446-2.25zm5.56-48.352v8.431a.229.229 0 01-.227.228h-.432a.227.227 0 01-.16-.069.226.226 0 01-.064-.159v-8.431a.22.22 0 01.224-.22h.436a.23.23 0 01.16.063.22.22 0 01.068.157h-.004zm5.382.169v2.898a.223.223 0 01-.067.161.225.225 0 01-.161.067 3.08 3.08 0 01-1.466.264c-.786-.067-.932-.472-1.679-.539a2.359 2.359 0 00-1.305.275.225.225 0 01-.21-.141.223.223 0 01-.017-.087v-2.898a.229.229 0 01.227-.224 2.28 2.28 0 011.313-.295c.759.059.944.456 1.73.531.481.042.966-.039 1.407-.236a.221.221 0 01.228.224zm-8.368 2.764v5.588c0 .082.09.149.196.149h.393c.11 0 .2-.067.2-.149v-5.588c0-.082-.09-.149-.2-.149h-.393c-.11 0-.196.067-.196.149zm-3.695.402v1.918a.15.15 0 00.15.15c.304.137.637.197.97.177.523-.047.617-.315 1.113-.358.3-.024.6.039.864.181a.149.149 0 00.146-.15v-1.918a.144.144 0 00-.043-.103.143.143 0 00-.103-.043 1.547 1.547 0 00-.872-.2c-.503.039-.625.306-1.148.353a1.885 1.885 0 01-.931-.153.143.143 0 00-.103.043.144.144 0 00-.043.103z" clip-rule="evenodd"/><path fill="#fff" fill-rule="evenodd" stroke="#fff" stroke-linecap="round" stroke-linejoin="round" stroke-width=".265" d="M14.04 66.19l8.84-.07-3.471 3.44-.07 4.133h-.645l-1.376-1.18.074-3.118-3.352-3.204z" clip-rule="evenodd"/><path stroke="#fff" stroke-linecap="round" stroke-linejoin="round" stroke-width=".53" d="M15.227 81.585l2.39.024v5.174s.058.72 1.265.724c1.207.003 1.333-.677 1.333-.677l.035-5.269 2.213-.023.023 6.37s-.605 2.036-3.51 2.06c-3.093.024-3.675-2.06-3.675-2.06l-.074-6.323z" clip-rule="evenodd"/><path fill="#fff" stroke="#fff" stroke-linecap="round" stroke-linejoin="round" stroke-width=".53" d="M17.483 81.589h-2.115v2.603h2.115v-2.603zm4.799 0h-1.953v2.603h1.953v-2.603z"/><path fill="#fff" fill-rule="evenodd" d="M18.784 127.995a2.119 2.119 0 011.959 1.318 2.13 2.13 0 01-.466 2.316 2.128 2.128 0 01-3.27-.326 2.13 2.13 0 01.96-3.149c.26-.106.537-.16.817-.159zm-.02 5.123c1.23-.047 1.572-.578 2.303-.393.865.232 1.278.448 1.435 1.121.108.453.05.93-.165 1.344-.14.333-.388.61-.703.787l-5.598.078a2.609 2.609 0 01-.758-.873 1.964 1.964 0 01-.095-1.065 1.384 1.384 0 01.967-1.18c.908-.263 1.4.232 2.614.181z" clip-rule="evenodd"/></g><rect width="354" height="11" x="11" y="276" fill="#A07215" opacity=".4" rx="5.5"/><defs><clipPath id="clip0"><path fill="#fff" d="M0 0h371v256.703H0z" transform="translate(0 .148)"/></clipPath></defs></svg>