<svg fill="none" viewBox="0 0 768 88"><g fill-rule="evenodd" stroke-linecap="round" stroke-linejoin="round" stroke-width="2.061" clip-path="url(#clip0)" clip-rule="evenodd"><path fill="#F96132" stroke="#F96132" d="M1.193.919h764.484v28.13H1.193V.92z"/><path fill="#35416B" stroke="#35416B" d="M1.75 28.523l765.057 1.124-29.875 10.122-700.917.293L1.75 28.522z"/><path fill="#35416B" stroke="#35416B" d="M118.115 84.416L107.671 61.94 97.26 39.477c-1.655-3.566 1.057-6.44 6.061-6.44l14.229-.164a13.461 13.461 0 014.2.55c1.331.4 2.532 1.004 3.524 1.771.991.767 1.75 1.68 2.227 2.678.477.999.661 2.06.54 3.115l-3.889 43.458c-1.695 3.536-4.383 3.536-6.037-.03zm553.556-2.15l10.443-22.475 10.444-22.475c1.654-3.565-1.058-6.44-6.061-6.44l-14.222-.17a13.478 13.478 0 00-4.201.554c-1.332.4-2.533 1.004-3.525 1.772-.992.767-1.752 1.68-2.23 2.679a5.681 5.681 0 00-.543 3.116l3.898 43.457c1.654 3.548 4.342 3.548 5.997-.017z"/></g><defs><clipPath id="clip0"><path fill="#fff" d="M0 0h768v87.928H0z" transform="translate(0 .041)"/></clipPath></defs></svg>