<svg width="829" height="129" viewBox="0 0 829 129" fill="none" xmlns="http://www.w3.org/2000/svg">
<g clip-path="url(#clip0)">
<rect width="829" height="129" fill="white"/>
<path fill-rule="evenodd" clip-rule="evenodd" d="M1.28781 1.28833H826.493V42.559H1.28781V1.28833Z" fill="#F96132" stroke="#F96132" stroke-width="3" stroke-linecap="round" stroke-linejoin="round"/>
<path fill-rule="evenodd" clip-rule="evenodd" d="M1.88882 41.7861L827.712 43.4352L795.465 58.2858L38.8756 58.7153L1.88882 41.7861Z" fill="#35416B" stroke="#35416B" stroke-width="3" stroke-linecap="round" stroke-linejoin="round"/>
<path fill-rule="evenodd" clip-rule="evenodd" d="M127.496 123.786L116.223 90.8128L104.985 57.8563C103.199 52.6256 106.127 48.4083 111.527 48.4083L126.887 48.1678C128.438 48.1137 129.983 48.3893 131.42 48.9763C132.857 49.5633 134.154 50.4485 135.224 51.5734C136.294 52.6984 137.113 54.0374 137.628 55.5024C138.143 56.9674 138.342 58.5249 138.211 60.0723L134.013 123.829C132.184 129.017 129.282 129.017 127.496 123.786Z" fill="#35416B" stroke="#35416B" stroke-width="3" stroke-linecap="round" stroke-linejoin="round"/>
<path fill-rule="evenodd" clip-rule="evenodd" d="M725.02 120.634L736.293 87.6605L747.566 54.6869C749.351 49.4561 746.424 45.2388 741.023 45.2388L725.672 44.9897C724.12 44.937 722.575 45.2138 721.137 45.8017C719.7 46.3896 718.403 47.2755 717.332 48.4009C716.262 49.5263 715.441 50.8658 714.926 52.3312C714.41 53.7966 714.21 55.3547 714.339 56.9029L718.546 120.66C720.332 125.865 723.234 125.865 725.02 120.634Z" fill="#35416B" stroke="#35416B" stroke-width="3" stroke-linecap="round" stroke-linejoin="round"/>
</g>
<defs>
<clipPath id="clip0">
<rect width="829" height="129" fill="white"/>
</clipPath>
</defs>
</svg>
