<svg fill="none" viewBox="0 0 829 129"><g fill-rule="evenodd" stroke-linecap="round" stroke-linejoin="round" stroke-width="3" clip-path="url(#clip0)" clip-rule="evenodd"><path fill="#F7A501" stroke="#F7A501" d="M1.288 1.288h825.205V42.56H1.288V1.29z"/><path fill="#35416B" stroke="#35416B" d="M1.889 41.786l825.823 1.65-32.247 14.85-756.59.43L1.89 41.785z"/><path fill="#35416B" stroke="#35416B" d="M127.496 123.786l-11.273-32.973-11.238-32.957c-1.786-5.23 1.142-9.448 6.542-9.448l15.36-.24a10.975 10.975 0 0110.741 7.334c.515 1.465.714 3.023.583 4.57l-4.198 63.757c-1.829 5.188-4.731 5.188-6.517-.043zm597.524-3.152l11.273-32.973 11.273-32.974c1.785-5.23-1.142-9.448-6.543-9.448l-15.351-.25a10.994 10.994 0 00-10.746 7.342 11.011 11.011 0 00-.587 4.572l4.207 63.757c1.786 5.205 4.688 5.205 6.474-.026z"/></g><defs><clipPath id="clip0"><path fill="#fff" d="M0 0h829v129H0z"/></clipPath></defs></svg>