<svg fill="none" viewBox="0 0 303 377"><path fill="#fff" d="M0 0h303v377H0z"/><path fill="#F96132" fill-rule="evenodd" d="M60.9.5h181.2a60.364 60.364 0 0142.709 17.693A60.429 60.429 0 01302.5 60.921V316.07a60.436 60.436 0 01-17.677 42.753A60.373 60.373 0 01242.1 376.53H60.9a60.359 60.359 0 01-42.712-17.697A60.445 60.445 0 01.5 316.1V60.92a60.448 60.448 0 0117.69-42.726A60.388 60.388 0 0160.9.5z" clip-rule="evenodd"/><path fill="#fff" fill-rule="evenodd" d="M107.911 273.373a9.02 9.02 0 00.619 2.769 6.989 6.989 0 001.349 2.149 5.865 5.865 0 001.999 1.39 6.11 6.11 0 002.488.5c.772 0 1.543-.084 2.298-.25a5.917 5.917 0 001.948-.82 4.337 4.337 0 001.339-1.479 4.615 4.615 0 00.5-2.26 2.941 2.941 0 00-.72-1.999 6.445 6.445 0 00-1.898-1.41 17.582 17.582 0 00-2.688-1.079l-3.067-1a40.62 40.62 0 01-3.078-1.19 11.507 11.507 0 01-2.688-1.599 7.81 7.81 0 01-1.898-2.299 6.801 6.801 0 01-.72-3.239 7.436 7.436 0 01.75-3.409 7.077 7.077 0 012.128-2.489 9.825 9.825 0 013.277-1.52 16.091 16.091 0 014.167-.51 13.784 13.784 0 013.567.41 10.3 10.3 0 012.718 1.11 7.923 7.923 0 011.998 1.639 9.158 9.158 0 011.309 2c.339.705.597 1.446.769 2.209.167.73.278 1.472.33 2.219h-5.056a6.887 6.887 0 00-.609-2.429 5.192 5.192 0 00-1.219-1.699 4.756 4.756 0 00-1.709-1 6.344 6.344 0 00-2.058-.33 9.646 9.646 0 00-1.939.2 5.514 5.514 0 00-1.718.65 3.715 3.715 0 00-1.319 1.159 3.125 3.125 0 00-.48 1.77c-.009.733.25 1.444.73 1.999a6.403 6.403 0 001.898 1.45c.864.444 1.763.815 2.688 1.109l3.077 1c1.046.36 2.075.76 3.088 1.2.96.412 1.863.947 2.688 1.589a7.62 7.62 0 011.898 2.249 6.48 6.48 0 01.72 3.159 8.822 8.822 0 01-.83 3.929 7.742 7.742 0 01-2.308 2.799 10.258 10.258 0 01-3.497 1.69 16.438 16.438 0 01-4.446.569 11.972 11.972 0 01-4.187-.759 11.357 11.357 0 01-3.647-2.18 11.213 11.213 0 01-2.598-3.458c-.687-1.433-1.049-3-1.059-4.589l5.096.08zm26.518-19.014v29.261h-4.996v-29.261h4.996zm23.93 28.691a6.773 6.773 0 01-1.069.58c-.268.12-.545.217-.829.29a2.801 2.801 0 01-.63.11h-.449a3.388 3.388 0 01-2.458-1 4.566 4.566 0 01-.82-1.06 7.02 7.02 0 01-.579-1.269 15.77 15.77 0 01-1.779 1.629 8.87 8.87 0 01-1.658 1 6.602 6.602 0 01-1.639.52 9.478 9.478 0 01-1.698.15 7.862 7.862 0 01-2.698-.44 6.508 6.508 0 01-2.168-1.28 5.911 5.911 0 01-1.459-1.999 6.143 6.143 0 01-.54-2.599 4.004 4.004 0 01.56-2.14 5.627 5.627 0 011.469-1.579 10.06 10.06 0 012.078-1.15 33.56 33.56 0 012.368-.869l2.368-.75a21.266 21.266 0 002.078-.75 5.585 5.585 0 001.469-.9 1.537 1.537 0 00.56-1.179 1.812 1.812 0 00-.35-1.13 2.628 2.628 0 00-.879-.73 4.15 4.15 0 00-1.199-.409 7.16 7.16 0 00-1.289-.13c-.426.001-.85.061-1.259.18-.41.117-.796.306-1.139.559a3.14 3.14 0 00-.87 1 3.665 3.665 0 00-.469 1.42h-4.996a7.239 7.239 0 012.907-5.499 8.626 8.626 0 012.738-1.339 10.896 10.896 0 013.098-.44 14.102 14.102 0 013.287.37 8.63 8.63 0 012.758 1.199 5.893 5.893 0 012.617 5.149v10.366c-.001.279.098.549.28.76a.945.945 0 00.79.35l.439-.05a3.25 3.25 0 001.049-.41l.01 3.469zm-7.503-9.677a4.994 4.994 0 01-1.259.53l-1.679.47c-.6.16-1.209.33-1.819.52a9.64 9.64 0 00-1.648.639 4.119 4.119 0 00-1.199.86 1.596 1.596 0 00-.48 1.16c-.01.384.061.765.21 1.12.129.288.32.544.56.749.229.199.498.346.789.43.284.09.581.137.879.14a5.39 5.39 0 002.998-1 8.989 8.989 0 002.697-2.999l-.049-2.619zm22.361-3.519a6.649 6.649 0 00-1.559-2.999 3.51 3.51 0 00-2.508-.93 3.797 3.797 0 00-1.998.56 4.834 4.834 0 00-1.509 1.48 6.681 6.681 0 00-.939 2.129 9.982 9.982 0 00-.31 2.529c0 .919.107 1.835.32 2.729.216.831.553 1.626.999 2.36a5.52 5.52 0 001.489 1.669 3.244 3.244 0 001.998.63 3.004 3.004 0 001.519-.39 3.985 3.985 0 001.199-1c.357-.465.644-.98.849-1.529.233-.603.411-1.225.53-1.86h5.116a12.44 12.44 0 01-.999 3.719 9.073 9.073 0 01-1.999 2.789 8.102 8.102 0 01-2.807 1.76c-1.149.42-2.365.626-3.587.609a8.813 8.813 0 01-4.257-.999 8.997 8.997 0 01-2.997-2.579 11.271 11.271 0 01-1.739-3.659 15.744 15.744 0 01-.57-4.219 12.809 12.809 0 01.71-4.329 10.356 10.356 0 011.998-3.408 8.913 8.913 0 013.088-2.24 9.83 9.83 0 013.996-.789 9.06 9.06 0 013.477.619c.99.387 1.896.96 2.668 1.69a8.831 8.831 0 011.869 2.539 12.2 12.2 0 011.069 3.169l-5.116-.05zm19.084.54l3.907 6.618 3.907 6.608h-5.605l-5.666-9.737-.909.899c-.29.28-.54.54-.769.78-.23.24-.49.52-.73.75v7.308h-4.996v-29.261h4.996v15.725l7.994-7.828h6.065l-8.194 8.138zM64.916 313.26l7.714 21.114h-3.737l-2.268-6.178h-7.594c-.36.999-.74 2.049-1.119 3.088-.38 1.04-.77 2.07-1.129 3.09h-3.657l7.714-21.114h4.076zm-2.088 4.419l-2.708 7.517h5.366l-2.658-7.517zm15.397 11.196c-.002.458.079.912.24 1.34.135.338.343.642.61.89.248.224.54.395.86.499.323.098.66.149.998.15.335 0 .67-.03 1-.09.305-.046.602-.14.879-.279.246-.121.456-.304.61-.53.16-.25.24-.543.229-.84a1.092 1.092 0 00-.28-.75 2.92 2.92 0 00-.72-.58 6.044 6.044 0 00-.998-.469c-.38-.15-.77-.29-1.18-.43-.609-.21-1.238-.45-1.868-.7a8.183 8.183 0 01-1.728-.94 4.786 4.786 0 01-1.26-1.319 3.344 3.344 0 01-.499-1.85 3.798 3.798 0 011.639-3.249 5.332 5.332 0 011.788-.8 8.873 8.873 0 012.248-.269 8.66 8.66 0 012.418.309 5.188 5.188 0 011.869.91c.525.417.946.951 1.229 1.56.312.702.482 1.46.5 2.229H83.29c-.03-.35-.132-.69-.3-1a1.806 1.806 0 00-.549-.61 2.272 2.272 0 00-.76-.329 4.153 4.153 0 00-.889-.09 2.837 2.837 0 00-1.598.37 1.106 1.106 0 00-.55.999 1 1 0 00.27.68c.206.227.449.416.72.56.319.19.653.353.998.49l1.2.45c.619.209 1.238.449 1.878.709a9.323 9.323 0 011.739.94c.49.335.916.755 1.258 1.24.333.495.504 1.082.49 1.679a4.25 4.25 0 01-1.928 3.759 6.434 6.434 0 01-2.049.87c-.801.191-1.623.285-2.448.279a7.54 7.54 0 01-2.338-.359 5.82 5.82 0 01-1.998-1.09 5.432 5.432 0 01-1.359-1.81 6.376 6.376 0 01-.56-2.539l3.707.01zm18.925-4.039l2.807 4.769c.96 1.606 1.899 3.196 2.818 4.768h-3.997l-4.086-6.997-.66.649-.55.56-.529.55v5.268h-3.567V313.31h3.567v11.326l5.736-5.638h4.366l-5.905 5.838zm28.396 9.128a5.45 5.45 0 01-.769.41 4.128 4.128 0 01-.599.219c-.147.04-.298.064-.45.07h-.32a2.464 2.464 0 01-1.778-.709 3.2 3.2 0 01-.59-.77 4.779 4.779 0 01-.42-.91c-.398.424-.829.815-1.288 1.17a6.253 6.253 0 01-1.189.73 4.626 4.626 0 01-1.179.379 7.04 7.04 0 01-1.23.11 5.533 5.533 0 01-1.928-.329 4.67 4.67 0 01-1.569-.92 4.402 4.402 0 01-.999-1.45 4.55 4.55 0 01-.379-1.869 2.889 2.889 0 01.399-1.55 3.905 3.905 0 011.059-1.129 7.171 7.171 0 011.499-.83c.558-.239 1.129-.45 1.709-.63l1.708-.54c.51-.151 1.01-.332 1.499-.539.363-.167.699-.386.999-.65a1.11 1.11 0 00.41-.85 1.308 1.308 0 00-.25-.81 1.85 1.85 0 00-.639-.53 2.91 2.91 0 00-.86-.299 4.908 4.908 0 00-.929-.09 3.108 3.108 0 00-.909.13 2.774 2.774 0 00-.829.399 2.509 2.509 0 00-.96 1.7h-3.617a5.467 5.467 0 01.66-2.329 5.202 5.202 0 011.449-1.64 6.16 6.16 0 011.998-1 8.107 8.107 0 012.238-.319 9.688 9.688 0 012.368.279c.713.164 1.39.455 1.998.86a4.302 4.302 0 011.889 3.709v7.478a.876.876 0 00.19.549.715.715 0 00.261.191.71.71 0 00.318.059h.32c.266-.054.52-.155.749-.3l-.04 2.55zm-5.405-6.998c-.287.162-.592.29-.909.38l-1.209.34c-.44.11-.87.24-1.309.37-.41.116-.808.269-1.189.459a3.256 3.256 0 00-.87.62 1.183 1.183 0 00-.339.84c-.007.274.044.547.15.8.087.212.224.401.399.55.169.137.362.242.57.309.204.063.416.096.629.1a3.887 3.887 0 002.128-.709 6.515 6.515 0 001.999-2.12l-.05-1.939zm27.307 13.136h-3.567v-7.638c-.225.344-.49.659-.789.94a4.917 4.917 0 01-.999.7c-.326.192-.675.34-1.039.44a4.03 4.03 0 01-1.07.15 5.323 5.323 0 01-2.647-.64 5.625 5.625 0 01-1.909-1.73 7.838 7.838 0 01-1.159-2.569 12.024 12.024 0 01-.38-3.109 10.86 10.86 0 01.43-3.119 7.988 7.988 0 011.269-2.529 6.145 6.145 0 011.998-1.699 5.699 5.699 0 012.668-.62c.31.004.618.04.919.11.347.069.683.184 1 .34a4.8 4.8 0 01.929.609c.306.274.572.591.789.94v-1.689h3.567l-.01 21.113zm-3.567-13.476a8.672 8.672 0 00-.21-1.999 5.999 5.999 0 00-.609-1.61 3.168 3.168 0 00-.999-1.079 2.39 2.39 0 00-1.359-.39 2.466 2.466 0 00-1.369.39 3.158 3.158 0 00-.999 1.079 5.693 5.693 0 00-.63 1.61 9.28 9.28 0 000 3.919c.125.559.338 1.096.63 1.589.246.435.588.807.999 1.09.407.265.883.404 1.369.4.468.007.927-.125 1.319-.38.402-.257.743-.598.999-1 .286-.478.499-.997.629-1.539a8.483 8.483 0 00.25-1.87l-.02-.21zm20.224 7.748h-3.567v-1.74a9.402 9.402 0 01-1.12 1c-.339.242-.7.453-1.079.63a5.313 5.313 0 01-1.069.33 6.378 6.378 0 01-3.207-.25 4.33 4.33 0 01-1.559-1 4.002 4.002 0 01-.999-1.55 5.604 5.604 0 01-.34-1.999v-10.796h3.567v10.546a2.7 2.7 0 00.16 1c.088.26.239.493.44.68.18.181.404.311.649.38.266.081.542.121.82.119a2.997 2.997 0 001.369-.339 4.17 4.17 0 001.199-.88c.354-.377.638-.813.839-1.29a3.91 3.91 0 00.32-1.549v-8.667h3.567l.01 15.375zm6.444-6.758c.045.545.17 1.08.37 1.589.189.475.452.917.779 1.31.298.371.669.677 1.089.899.406.228.864.345 1.329.34a3.315 3.315 0 002.189-.72 4.807 4.807 0 001.378-2.159h3.338a7.553 7.553 0 01-1 2.449 6.866 6.866 0 01-3.627 2.999 6.905 6.905 0 01-5.285-.269 7.059 7.059 0 01-2.268-1.78 8.074 8.074 0 01-1.439-2.609 9.748 9.748 0 01-.51-3.149 8.644 8.644 0 01.51-2.949 7.642 7.642 0 011.439-2.499 6.845 6.845 0 015.275-2.36 7.008 7.008 0 012.908.59 6.62 6.62 0 012.218 1.59 6.987 6.987 0 011.419 2.399c.335.964.5 1.978.49 2.999v1.39l-10.602-.06zm6.994-2.7a3.886 3.886 0 00-.359-1.319 3.39 3.39 0 00-.75-1 3.187 3.187 0 00-1.069-.67 3.743 3.743 0 00-1.359-.23 3.144 3.144 0 00-1.269.25c-.371.173-.709.41-.999.7a3.934 3.934 0 00-1.119 2.289l6.924-.02zm8.713 3.959c-.004.459.08.914.25 1.34.128.339.333.644.6.89.248.224.541.395.859.499.324.098.661.149.999.15.335 0 .67-.03.999-.09.306-.046.603-.14.88-.279.245-.121.456-.304.609-.53.16-.25.24-.543.23-.84a1.093 1.093 0 00-.28-.75 2.919 2.919 0 00-.719-.58 6.062 6.062 0 00-.999-.469c-.38-.15-.77-.29-1.18-.43-.609-.21-1.238-.45-1.868-.7a8.44 8.44 0 01-1.729-.94 4.905 4.905 0 01-1.258-1.319 3.332 3.332 0 01-.49-1.85 3.986 3.986 0 01.43-1.899 4.077 4.077 0 011.199-1.35 5.327 5.327 0 011.788-.8 8.963 8.963 0 012.248-.269 8.656 8.656 0 012.418.309 5.19 5.19 0 011.869.91c.525.417.946.951 1.229 1.56.312.702.482 1.46.499 2.229h-3.517a2.59 2.59 0 00-.3-1 1.794 1.794 0 00-.549-.61 2.272 2.272 0 00-.759-.329 4.162 4.162 0 00-.89-.09 2.86 2.86 0 00-1.598.37 1.126 1.126 0 00-.55.999.998.998 0 00.27.68c.21.222.452.411.719.56.319.191.653.355.999.49l1.189.45c.62.209 1.239.449 1.879.709a9.318 9.318 0 011.738.94c.49.335.917.755 1.259 1.24.333.495.504 1.082.49 1.679a4.255 4.255 0 01-1.928 3.759 6.447 6.447 0 01-2.049.87c-.801.191-1.623.285-2.448.279a7.544 7.544 0 01-2.338-.359 5.824 5.824 0 01-1.998-1.09 5.275 5.275 0 01-1.349-1.81 6.212 6.212 0 01-.56-2.539l3.707.01zm15.817-14.145v4.239h2.838v2.919h-2.838v8.377c-.015.376.09.747.3 1.06a.94.94 0 00.829.43l.66-.06a5.22 5.22 0 001.379-.4v2.819a7.731 7.731 0 01-1.769.46c-.464.062-.931.095-1.399.1a3.405 3.405 0 01-1.359-.29 3.512 3.512 0 01-1.139-.81 3.824 3.824 0 01-.779-1.26 4.614 4.614 0 01-.29-1.649v-8.777h-2.208v-2.919h2.208v-4.239h3.567zm8.623-1.45v3.549h-3.567v-3.549h3.567zm0 5.688v15.406h-3.567v-15.406h3.567zm2.458 7.728a9.813 9.813 0 01.48-3.089 7.488 7.488 0 011.409-2.559 6.587 6.587 0 012.278-1.74 7.616 7.616 0 016.155 0 6.786 6.786 0 012.278 1.74 7.51 7.51 0 011.419 2.559 9.54 9.54 0 01.499 3.089 9.822 9.822 0 01-.489 3.089 7.424 7.424 0 01-1.409 2.539 6.659 6.659 0 01-2.288 1.72 7.847 7.847 0 01-6.155 0 6.728 6.728 0 01-2.288-1.72 7.39 7.39 0 01-1.409-2.539 9.813 9.813 0 01-.48-3.089zm3.567 0a7.132 7.132 0 00.25 1.939c.15.566.393 1.104.719 1.59.305.436.7.801 1.159 1.069a3.157 3.157 0 003.078 0c.464-.265.863-.63 1.169-1.069.34-.482.594-1.02.749-1.59a7.656 7.656 0 000-3.879 4.93 4.93 0 00-.749-1.599 3.659 3.659 0 00-1.169-1.08 3.165 3.165 0 00-3.078 0 3.737 3.737 0 00-1.159 1.08 5.124 5.124 0 00-.719 1.599 7.224 7.224 0 00-.25 1.94zm13.719-7.728h3.537v1.81a6.143 6.143 0 012.088-1.62 5.499 5.499 0 012.268-.5 6.015 6.015 0 012.109.35 4.296 4.296 0 011.568 1c.436.443.776.97 1 1.549.234.64.349 1.318.339 2v10.826h-3.567v-10.256a2.843 2.843 0 00-.17-1.05 2.357 2.357 0 00-.449-.77 1.915 1.915 0 00-.68-.48 2.325 2.325 0 00-.829-.15 3.293 3.293 0 00-1.379.29 3.998 3.998 0 00-1.998 1.92 2.99 2.99 0 00-.31 1.339v9.147H230.4l.04-15.405zm19.524-5.688v8.767l-.59 5.999h-2.678l-.589-5.929V313.3l3.857-.02zm0 17.235v3.859h-3.857v-3.829l3.857-.03zM174.356 60.92a16.58 16.58 0 0111.728 4.86 16.597 16.597 0 014.858 11.735v39.538a16.609 16.609 0 01-4.858 11.734 16.576 16.576 0 01-18.075 3.597 16.576 16.576 0 01-8.977-8.981 16.609 16.609 0 01-1.262-6.35V77.515c0-4.401 1.747-8.622 4.858-11.734a16.58 16.58 0 0111.728-4.86zm-40.097 82.254c4.399 0 8.618 1.749 11.728 4.861a16.597 16.597 0 014.858 11.734v39.537c0 4.402-1.747 8.623-4.858 11.735a16.58 16.58 0 01-23.456 0 16.597 16.597 0 01-4.858-11.735v-39.537c0-4.401 1.747-8.622 4.858-11.734a16.581 16.581 0 0111.728-4.861zm15.867-24.821c0 4.401-1.747 8.622-4.858 11.734a16.58 16.58 0 01-11.728 4.86H94.012a16.582 16.582 0 01-11.728-4.86 16.599 16.599 0 015.381-27.066 16.578 16.578 0 016.347-1.263h39.528a16.576 16.576 0 0111.728 4.86 16.61 16.61 0 014.858 11.735zm7.784 40.696a16.609 16.609 0 014.858-11.734 16.576 16.576 0 0111.728-4.86h39.497c4.399 0 8.618 1.748 11.729 4.86a16.6 16.6 0 010 23.469 16.584 16.584 0 01-11.729 4.86h-39.497a16.58 16.58 0 01-11.728-4.86 16.599 16.599 0 01-4.858-11.735z" clip-rule="evenodd"/><path fill="#fff" fill-rule="evenodd" d="M199.296 118.342a15.912 15.912 0 0119.022-15.586 15.91 15.91 0 0112.487 12.509 15.92 15.92 0 01-6.767 16.331 15.902 15.902 0 01-8.836 2.681c-4.836 0-16.236.64-16.236.64s.33-12.616.33-16.575zM134.059 93.39a15.902 15.902 0 01-15.124-9.142 15.926 15.926 0 012.648-17.479 15.905 15.905 0 0117.152-4.248 15.921 15.921 0 0110.492 14.225c.22 4.828 1.399 16.184 1.399 16.184s-12.57.27-16.567.46zm-24.979 65.86a15.917 15.917 0 01-9.787 14.709 15.902 15.902 0 01-21.71-11.529 15.922 15.922 0 016.693-16.353 15.896 15.896 0 018.817-2.722c4.826 0 16.227-.68 16.227-.68s-.24 12.606-.24 16.575zm65.946 24.662a15.905 15.905 0 0114.648 9.903 15.926 15.926 0 01-3.545 17.328 15.896 15.896 0 01-17.358 3.35 15.906 15.906 0 01-9.732-14.766c0-4.829-.55-16.235-.55-16.235s12.54.39 16.537.42z" clip-rule="evenodd" opacity=".97"/></svg>