<svg fill="none" viewBox="0 0 122 197"><path fill="#fff" fill-rule="evenodd" d="M76.961.876c3.203 0 6.275 1.273 8.54 3.54a12.087 12.087 0 013.538 8.544v28.79a12.09 12.09 0 01-3.538 8.544 12.08 12.08 0 01-13.162 2.62 12.078 12.078 0 01-7.456-11.164V12.96c0-3.205 1.273-6.279 3.538-8.545A12.075 12.075 0 0176.96.876zM47.764 60.771c3.203 0 6.275 1.273 8.54 3.539a12.087 12.087 0 013.537 8.544v28.79c0 3.205-1.272 6.279-3.537 8.545a12.075 12.075 0 01-20.618-8.545v-28.79c0-3.204 1.273-6.278 3.538-8.544a12.075 12.075 0 018.54-3.54zm11.553-18.075c0 3.205-1.272 6.279-3.537 8.545a12.074 12.074 0 01-8.54 3.54H18.457a12.074 12.074 0 01-8.54-3.54 12.087 12.087 0 018.54-20.628H47.24a12.071 12.071 0 0111.158 7.46c.607 1.465.92 3.036.92 4.623zm5.668 29.635a12.09 12.09 0 013.538-8.545 12.078 12.078 0 018.54-3.54h28.761c3.203 0 6.275 1.274 8.54 3.54a12.086 12.086 0 01-8.54 20.628H77.063a12.074 12.074 0 01-8.54-3.539 12.087 12.087 0 01-3.538-8.544z" clip-rule="evenodd"/><path fill="#fff" fill-rule="evenodd" d="M95.12 42.689a11.593 11.593 0 017.161-10.697 11.58 11.58 0 0115.784 8.456 11.593 11.593 0 01-4.928 11.892 11.576 11.576 0 01-6.433 1.952c-3.522 0-11.823.466-11.823.466s.24-9.187.24-12.07zm-47.502-18.17a11.578 11.578 0 01-11.013-6.656 11.594 11.594 0 011.928-12.728 11.582 11.582 0 0112.49-3.094 11.583 11.583 0 017.64 10.358c.16 3.516 1.018 11.786 1.018 11.786s-9.153.196-12.063.334zM29.429 72.476a11.593 11.593 0 01-7.127 10.712 11.578 11.578 0 01-12.62-2.477 11.59 11.59 0 018.106-19.809c3.514 0 11.816-.495 11.816-.495s-.175 9.18-.175 12.07zm48.02 17.958a11.579 11.579 0 0110.666 7.212 11.593 11.593 0 01-8.531 15.756 11.579 11.579 0 01-11.864-5 11.592 11.592 0 01-1.913-6.452c0-3.516-.4-11.821-.4-11.821s9.131.283 12.041.305z" clip-rule="evenodd" opacity=".97"/><path fill="#fff" d="M16.96 193.098c2.413 1.853 7.236 3.111 10.591 3.111 5.558 0 9.473-2.062 9.473-7.27 0-4.823-3.041-5.872-9.787-7.41-3.565-.839-5.383-1.433-5.383-3.145 0-1.993 1.713-2.447 3.985-2.447 2.237 0 5.802.769 9.297 2.027v-4.229c-2.342-1.154-6.012-1.992-8.843-1.992-5.417 0-8.982 1.992-8.982 6.885 0 3.88 2.376 5.523 8.703 6.956 4.508 1.048 6.466 1.607 6.466 3.635 0 2.307-1.818 2.796-4.929 2.796-3.145 0-7.305-1.188-10.59-3.425v4.508zm23.731-21.705v24.467h4.544v-24.467h-4.544zm23.493 20.098v-13.632H50.553v4.02h9.088v3.844c-.874-1.293-2.237-2.097-4.859-2.097-4.264 0-6.256 3.076-6.256 6.292 0 3.215 1.992 6.291 6.256 6.291 2.622 0 3.985-.839 4.859-2.097v1.748h6.815v-4.369h-2.272zm-7.829.943c-2.377 0-3.285-1.118-3.285-2.516s.908-2.517 3.285-2.517c2.377 0 3.286 1.119 3.286 2.517s-.91 2.516-3.286 2.516zm12.036-5.592c0 5.487 2.691 9.367 8.284 9.367 5.173 0 7.864-3.53 7.864-7.689h-4.544c-.14 1.992-.699 3.495-3.25 3.495-3.076 0-3.81-1.678-3.81-5.173s.734-5.138 3.81-5.138c2.551 0 3.11 1.503 3.25 3.495h4.544c0-4.159-2.691-7.689-7.864-7.689-5.593 0-8.284 3.844-8.284 9.332zm36.739-8.983h-5.453l-4.718 6.921h-2.552v-13.387h-4.544v24.467h4.544v-6.886h2.552l4.718 6.886h5.453l-6.187-8.983 6.187-9.018z"/></svg>