<svg xmlns="http://www.w3.org/2000/svg" width="303" height="377" fill="none" viewBox="0 0 303 377"><rect width="303" height="377" fill="#fff"/><path fill="#F96132" fill-rule="evenodd" d="M60.8998 0.500001H242.1C250.032 0.498688 257.886 2.06054 265.214 5.09638C272.542 8.13222 279.2 12.5826 284.809 18.1933C290.418 23.804 294.867 30.4652 297.903 37.7964C300.938 45.1277 302.5 52.9854 302.5 60.9208V316.07C302.506 324.008 300.947 331.87 297.914 339.206C294.881 346.542 290.433 353.208 284.823 358.823C279.214 364.438 272.554 368.892 265.223 371.93C257.892 374.968 250.035 376.532 242.1 376.53H60.8998C52.9676 376.532 45.1127 374.969 37.7841 371.933C30.4554 368.896 23.7964 364.445 18.1875 358.833C12.5786 353.222 8.12959 346.559 5.09466 339.227C2.05973 331.895 0.498322 324.036 0.499635 316.1V60.9208C0.499635 52.9854 2.06201 45.1277 5.09753 37.7964C8.13304 30.4652 12.5822 23.804 18.191 18.1933C23.7998 12.5826 30.4583 8.13222 37.7864 5.09638C45.1144 2.06054 52.9684 0.498688 60.8998 0.500001Z" clip-rule="evenodd"/><path fill="#fff" fill-rule="evenodd" d="M107.911 273.373C107.97 274.323 108.179 275.258 108.53 276.142C108.845 276.935 109.302 277.663 109.879 278.291C110.441 278.889 111.122 279.363 111.878 279.681C112.663 280.02 113.51 280.19 114.366 280.181C115.138 280.181 115.909 280.097 116.664 279.931C117.357 279.777 118.017 279.499 118.612 279.111C119.167 278.729 119.626 278.222 119.951 277.632C120.307 276.933 120.479 276.156 120.451 275.372C120.468 274.639 120.212 273.926 119.731 273.373C119.191 272.79 118.547 272.312 117.833 271.963C116.968 271.53 116.069 271.169 115.145 270.884L112.078 269.884C111.028 269.524 110.009 269.134 109 268.694C108.036 268.286 107.131 267.748 106.312 267.095C105.538 266.458 104.893 265.677 104.414 264.796C103.91 263.792 103.663 262.679 103.694 261.557C103.67 260.377 103.927 259.209 104.444 258.148C104.949 257.163 105.678 256.311 106.572 255.659C107.561 254.954 108.672 254.439 109.849 254.139C111.21 253.788 112.611 253.616 114.016 253.629C115.218 253.61 116.417 253.747 117.583 254.039C118.537 254.277 119.452 254.651 120.301 255.149C121.052 255.582 121.727 256.136 122.299 256.788C122.821 257.395 123.261 258.067 123.608 258.788C123.947 259.493 124.205 260.234 124.377 260.997C124.544 261.727 124.655 262.469 124.707 263.216H119.651C119.598 262.376 119.392 261.553 119.042 260.787C118.755 260.144 118.34 259.565 117.823 259.088C117.33 258.638 116.747 258.298 116.114 258.088C115.451 257.865 114.755 257.754 114.056 257.758C113.405 257.759 112.755 257.826 112.117 257.958C111.512 258.077 110.931 258.297 110.399 258.608C109.873 258.883 109.421 259.281 109.08 259.767C108.747 260.296 108.579 260.912 108.6 261.537C108.591 262.27 108.85 262.981 109.33 263.536C109.866 264.134 110.51 264.626 111.228 264.986C112.092 265.43 112.991 265.801 113.916 266.095L116.993 267.095C118.039 267.455 119.068 267.855 120.081 268.295C121.041 268.707 121.944 269.242 122.769 269.884C123.542 270.503 124.186 271.267 124.667 272.133C125.171 273.108 125.418 274.195 125.387 275.292C125.416 276.648 125.132 277.993 124.557 279.221C124.02 280.324 123.229 281.283 122.249 282.02C121.202 282.801 120.015 283.374 118.752 283.71C117.303 284.102 115.807 284.293 114.306 284.279C112.876 284.278 111.458 284.021 110.119 283.52C108.777 283.029 107.54 282.29 106.472 281.34C105.39 280.367 104.507 279.192 103.874 277.882C103.187 276.449 102.825 274.882 102.815 273.293L107.911 273.373Z" clip-rule="evenodd"/><path fill="#fff" fill-rule="evenodd" d="M134.429 254.359V283.62H129.433V254.359H134.429Z" clip-rule="evenodd"/><path fill="#fff" fill-rule="evenodd" d="M158.359 283.05C158.021 283.275 157.663 283.469 157.29 283.63C157.022 283.75 156.745 283.847 156.461 283.92C156.256 283.981 156.045 284.017 155.831 284.03H155.382C154.926 284.038 154.473 283.953 154.051 283.782C153.628 283.61 153.245 283.354 152.924 283.03C152.6 282.719 152.324 282.362 152.104 281.97C151.87 281.568 151.675 281.142 151.525 280.701C150.974 281.289 150.38 281.833 149.746 282.33C149.232 282.723 148.675 283.058 148.088 283.33C147.566 283.574 147.016 283.749 146.449 283.85C145.889 283.951 145.32 284.001 144.751 284C143.833 284.012 142.919 283.863 142.053 283.56C141.254 283.278 140.517 282.844 139.885 282.28C139.263 281.724 138.766 281.043 138.426 280.281C138.059 279.464 137.874 278.577 137.886 277.682C137.868 276.93 138.062 276.189 138.446 275.542C138.829 274.926 139.328 274.39 139.915 273.963C140.56 273.499 141.257 273.113 141.993 272.813C142.772 272.493 143.562 272.204 144.361 271.944L146.729 271.194C147.434 270.98 148.128 270.73 148.807 270.444C149.34 270.222 149.836 269.918 150.276 269.544C150.45 269.401 150.591 269.221 150.688 269.017C150.785 268.813 150.835 268.591 150.836 268.365C150.849 267.96 150.726 267.562 150.486 267.235C150.25 266.93 149.95 266.681 149.607 266.505C149.23 266.308 148.826 266.17 148.408 266.096C147.983 266.014 147.551 265.97 147.119 265.966C146.693 265.967 146.269 266.027 145.86 266.146C145.45 266.263 145.064 266.452 144.721 266.705C144.363 266.973 144.066 267.314 143.851 267.705C143.599 268.141 143.439 268.624 143.382 269.125H138.386C138.436 267.996 138.747 266.894 139.295 265.906C139.793 265.013 140.474 264.236 141.293 263.626C142.119 263.021 143.046 262.567 144.031 262.287C145.037 261.992 146.08 261.844 147.129 261.847C148.235 261.841 149.338 261.965 150.416 262.217C151.398 262.452 152.332 262.858 153.174 263.416C154.015 263.977 154.698 264.746 155.157 265.647C155.615 266.549 155.834 267.554 155.791 268.565V278.931C155.79 279.21 155.889 279.48 156.071 279.691C156.165 279.808 156.286 279.901 156.423 279.962C156.561 280.023 156.711 280.05 156.861 280.041L157.3 279.991C157.671 279.916 158.026 279.778 158.349 279.581L158.359 283.05ZM150.856 273.373C150.462 273.607 150.038 273.785 149.597 273.903L147.918 274.373C147.318 274.533 146.709 274.703 146.099 274.893C145.531 275.055 144.98 275.269 144.451 275.532C144.003 275.744 143.596 276.036 143.252 276.392C143.098 276.543 142.976 276.724 142.894 276.923C142.811 277.122 142.77 277.336 142.772 277.552C142.762 277.936 142.833 278.317 142.982 278.672C143.111 278.96 143.302 279.216 143.542 279.421C143.771 279.62 144.04 279.767 144.331 279.851C144.615 279.941 144.912 279.988 145.21 279.991C146.287 279.965 147.331 279.616 148.208 278.991C149.322 278.209 150.245 277.183 150.905 275.992L150.856 273.373Z" clip-rule="evenodd"/><path fill="#fff" fill-rule="evenodd" d="M173.217 269.854C172.964 268.737 172.428 267.704 171.658 266.855C170.978 266.226 170.076 265.892 169.15 265.925C168.445 265.923 167.753 266.116 167.152 266.485C166.546 266.861 166.031 267.366 165.643 267.965C165.208 268.614 164.89 269.335 164.704 270.094C164.493 270.92 164.389 271.77 164.394 272.623C164.394 273.542 164.501 274.458 164.714 275.352C164.93 276.183 165.267 276.978 165.713 277.712C166.09 278.364 166.597 278.932 167.202 279.381C167.78 279.806 168.483 280.028 169.2 280.011C169.732 280.018 170.256 279.883 170.719 279.621C171.181 279.37 171.588 279.03 171.918 278.621C172.275 278.156 172.562 277.641 172.767 277.092C173 276.489 173.178 275.867 173.297 275.232H178.413C178.275 276.516 177.938 277.771 177.414 278.951C176.931 279.999 176.253 280.946 175.415 281.74C174.61 282.514 173.655 283.113 172.608 283.5C171.459 283.92 170.243 284.126 169.021 284.109C167.54 284.139 166.076 283.795 164.764 283.11C163.586 282.483 162.562 281.602 161.767 280.531C160.971 279.426 160.382 278.187 160.028 276.872C159.648 275.498 159.456 274.079 159.458 272.653C159.444 271.18 159.684 269.716 160.168 268.324C160.609 267.07 161.288 265.913 162.166 264.916C163.022 263.955 164.075 263.191 165.254 262.676C166.516 262.137 167.878 261.868 169.25 261.887C170.439 261.863 171.62 262.074 172.727 262.506C173.717 262.893 174.623 263.466 175.395 264.196C176.165 264.923 176.798 265.783 177.264 266.735C177.764 267.737 178.124 268.804 178.333 269.904L173.217 269.854Z" clip-rule="evenodd"/><path fill="#fff" fill-rule="evenodd" d="M192.301 270.394C193.58 272.56 194.883 274.766 196.208 277.012L200.115 283.62H194.51L188.844 273.883L187.935 274.782C187.645 275.062 187.395 275.322 187.166 275.562C186.936 275.802 186.676 276.082 186.436 276.312V283.62H181.44V254.359H186.436V270.084L194.43 262.256H200.495L192.301 270.394Z" clip-rule="evenodd"/><path fill="#fff" fill-rule="evenodd" d="M64.9164 313.26L72.6301 334.374H68.8932L66.625 328.196H59.0313C58.6716 329.195 58.2919 330.245 57.9122 331.284C57.5325 332.324 57.1428 333.354 56.7831 334.374H53.1262L60.8398 313.26H64.9164ZM62.8282 317.679L60.1204 325.196H65.486L62.8282 317.679Z" clip-rule="evenodd"/><path fill="#fff" fill-rule="evenodd" d="M78.2255 328.875C78.2226 329.333 78.3039 329.787 78.4652 330.215C78.6001 330.553 78.8083 330.857 79.0747 331.105C79.3231 331.329 79.6159 331.5 79.9341 331.604C80.2582 331.702 80.5947 331.753 80.9332 331.754C81.2683 331.754 81.6027 331.724 81.9324 331.664C82.2385 331.618 82.5352 331.524 82.8117 331.385C83.0576 331.264 83.2677 331.081 83.4212 330.855C83.5814 330.605 83.6615 330.312 83.651 330.015C83.6561 329.739 83.5562 329.471 83.3712 329.265C83.164 329.035 82.921 328.839 82.6518 328.685C82.3337 328.499 81.9992 328.341 81.6526 328.216C81.2729 328.066 80.8833 327.926 80.4736 327.786C79.8641 327.576 79.2346 327.336 78.6051 327.086C77.9932 326.843 77.4128 326.528 76.8766 326.146C76.3761 325.791 75.9487 325.343 75.6176 324.827C75.2741 324.272 75.1004 323.629 75.118 322.977C75.0976 322.342 75.2369 321.711 75.5232 321.144C75.8095 320.576 76.2336 320.089 76.7567 319.728C77.2984 319.353 77.9048 319.082 78.5452 318.928C79.28 318.743 80.0355 318.652 80.7933 318.659C81.6099 318.647 82.424 318.752 83.2113 318.968C83.8892 319.142 84.5248 319.452 85.0798 319.878C85.6052 320.295 86.0261 320.829 86.3088 321.438C86.6212 322.14 86.791 322.898 86.8084 323.667H83.2913C83.2605 323.317 83.1585 322.977 82.9915 322.667C82.8578 322.424 82.6697 322.216 82.442 322.057C82.2111 321.902 81.9538 321.79 81.6826 321.728C81.3902 321.666 81.0921 321.636 80.7933 321.638C80.2357 321.601 79.6798 321.73 79.1947 322.008C79.0212 322.109 78.8784 322.255 78.7816 322.431C78.6849 322.607 78.6376 322.806 78.6451 323.007C78.646 323.26 78.7424 323.503 78.9149 323.687C79.1206 323.914 79.364 324.103 79.6343 324.247C79.9537 324.437 80.2878 324.6 80.6335 324.737L81.8325 325.187C82.452 325.396 83.0714 325.636 83.7109 325.896C84.3223 326.147 84.9051 326.462 85.4495 326.836C85.9394 327.171 86.3657 327.591 86.7084 328.076C87.0412 328.571 87.2122 329.158 87.198 329.755C87.2322 330.495 87.0722 331.232 86.7339 331.891C86.3956 332.551 85.8908 333.11 85.2696 333.514C84.6425 333.921 83.9494 334.215 83.2213 334.384C82.4196 334.575 81.5976 334.669 80.7733 334.663C79.9799 334.667 79.1909 334.546 78.4353 334.304C77.704 334.076 77.0248 333.705 76.437 333.214C75.862 332.713 75.3989 332.096 75.078 331.404C74.7192 330.606 74.5288 329.741 74.5185 328.865L78.2255 328.875Z" clip-rule="evenodd"/><path fill="#fff" fill-rule="evenodd" d="M97.1498 324.836L99.9575 329.605C100.917 331.211 101.856 332.801 102.775 334.373H98.7785L94.6919 327.376L94.0324 328.025L93.4829 328.585L92.9533 329.135V334.403H89.3862V313.31H92.9533V324.636L98.6886 318.998H103.055L97.1498 324.836Z" clip-rule="evenodd"/><path fill="#fff" fill-rule="evenodd" d="M125.546 333.964C125.301 334.121 125.044 334.258 124.777 334.374C124.583 334.462 124.383 334.536 124.178 334.593C124.031 334.633 123.88 334.657 123.728 334.663H123.408C123.066 334.67 122.725 334.605 122.409 334.473C122.12 334.349 121.856 334.173 121.63 333.954C121.395 333.728 121.196 333.469 121.04 333.184C120.868 332.896 120.728 332.591 120.62 332.274C120.222 332.698 119.791 333.089 119.332 333.444C118.964 333.731 118.565 333.976 118.143 334.174C117.768 334.353 117.372 334.48 116.964 334.553C116.558 334.626 116.147 334.662 115.734 334.663C115.077 334.669 114.424 334.557 113.806 334.334C113.228 334.133 112.695 333.821 112.237 333.414C111.81 333.003 111.47 332.51 111.238 331.964C110.981 331.375 110.852 330.738 110.859 330.095C110.843 329.551 110.982 329.014 111.258 328.545C111.532 328.102 111.892 327.718 112.317 327.416C112.782 327.08 113.285 326.802 113.816 326.586C114.374 326.347 114.945 326.136 115.525 325.956L117.233 325.416C117.743 325.265 118.243 325.084 118.732 324.877C119.095 324.71 119.431 324.491 119.731 324.227C119.858 324.124 119.961 323.995 120.032 323.848C120.103 323.701 120.14 323.54 120.141 323.377C120.15 323.087 120.062 322.802 119.891 322.567C119.721 322.344 119.502 322.163 119.252 322.037C118.983 321.893 118.693 321.792 118.392 321.738C118.086 321.679 117.775 321.648 117.463 321.648C117.155 321.646 116.849 321.69 116.554 321.778C116.257 321.864 115.977 321.999 115.725 322.177C115.476 322.369 115.265 322.607 115.105 322.877C114.922 323.183 114.806 323.523 114.765 323.877H111.148C111.191 323.061 111.417 322.265 111.808 321.548C112.169 320.905 112.663 320.346 113.257 319.908C113.856 319.456 114.533 319.117 115.255 318.908C115.982 318.698 116.736 318.59 117.493 318.589C118.291 318.584 119.086 318.678 119.861 318.868C120.574 319.032 121.251 319.323 121.859 319.728C122.462 320.136 122.951 320.691 123.281 321.339C123.611 321.988 123.772 322.71 123.748 323.437V330.915C123.747 331.114 123.814 331.308 123.938 331.464C124.009 331.547 124.099 331.612 124.199 331.655C124.299 331.699 124.408 331.719 124.517 331.714H124.837C125.103 331.66 125.357 331.559 125.586 331.414L125.546 333.964ZM120.141 326.966C119.854 327.128 119.549 327.256 119.232 327.346L118.023 327.686C117.583 327.796 117.153 327.926 116.714 328.056C116.304 328.172 115.906 328.325 115.525 328.515C115.203 328.672 114.909 328.882 114.655 329.135C114.546 329.246 114.459 329.377 114.401 329.521C114.343 329.665 114.314 329.819 114.316 329.975C114.309 330.249 114.36 330.522 114.466 330.775C114.553 330.987 114.69 331.176 114.865 331.325C115.034 331.462 115.227 331.567 115.435 331.634C115.639 331.697 115.851 331.73 116.064 331.734C116.828 331.712 117.568 331.465 118.192 331.025C119.01 330.478 119.693 329.754 120.191 328.905L120.141 326.966Z" clip-rule="evenodd"/><path fill="#fff" fill-rule="evenodd" d="M147.448 340.102H143.881V332.464C143.656 332.808 143.391 333.123 143.092 333.404C142.789 333.678 142.454 333.913 142.093 334.104C141.767 334.296 141.418 334.444 141.054 334.544C140.706 334.642 140.346 334.692 139.984 334.694C139.061 334.714 138.149 334.493 137.337 334.054C136.576 333.633 135.922 333.041 135.428 332.324C134.89 331.545 134.497 330.675 134.269 329.755C134.007 328.74 133.88 327.695 133.889 326.646C133.88 325.591 134.025 324.54 134.319 323.527C134.588 322.615 135.018 321.759 135.588 320.998C136.124 320.294 136.806 319.715 137.586 319.299C138.412 318.878 139.328 318.666 140.254 318.679C140.564 318.683 140.872 318.719 141.173 318.789C141.52 318.858 141.856 318.973 142.173 319.129C142.505 319.295 142.817 319.5 143.102 319.738C143.408 320.012 143.674 320.329 143.891 320.678V318.989H147.458L147.448 340.102ZM143.881 326.626C143.889 325.954 143.818 325.283 143.671 324.627C143.547 324.064 143.341 323.522 143.062 323.017C142.818 322.584 142.476 322.214 142.063 321.938C141.66 321.674 141.186 321.538 140.704 321.548C140.219 321.541 139.743 321.676 139.335 321.938C138.922 322.214 138.579 322.584 138.336 323.017C138.045 323.519 137.833 324.061 137.706 324.627C137.427 325.918 137.427 327.254 137.706 328.546C137.831 329.105 138.044 329.642 138.336 330.135C138.582 330.57 138.924 330.942 139.335 331.225C139.742 331.49 140.218 331.629 140.704 331.625C141.172 331.632 141.631 331.5 142.023 331.245C142.425 330.988 142.766 330.647 143.022 330.245C143.308 329.767 143.521 329.248 143.651 328.706C143.804 328.094 143.887 327.467 143.901 326.836L143.881 326.626Z" clip-rule="evenodd"/><path fill="#fff" fill-rule="evenodd" d="M164.105 334.374H160.538V332.634C160.192 332.997 159.817 333.331 159.418 333.634C159.079 333.876 158.718 334.087 158.339 334.264C157.996 334.411 157.637 334.522 157.27 334.594C156.197 334.786 155.093 334.7 154.063 334.344C153.477 334.127 152.946 333.786 152.504 333.344C152.055 332.912 151.713 332.382 151.505 331.794C151.271 331.154 151.156 330.477 151.165 329.795V318.999H154.732V329.545C154.722 329.886 154.776 330.225 154.892 330.545C154.98 330.805 155.131 331.038 155.332 331.225C155.512 331.406 155.736 331.536 155.981 331.605C156.247 331.686 156.523 331.726 156.801 331.724C157.277 331.722 157.747 331.605 158.17 331.385C158.619 331.166 159.025 330.868 159.369 330.505C159.723 330.128 160.007 329.692 160.208 329.215C160.419 328.726 160.528 328.199 160.528 327.666V318.999H164.095L164.105 334.374Z" clip-rule="evenodd"/><path fill="#fff" fill-rule="evenodd" d="M170.549 327.616C170.594 328.161 170.719 328.696 170.919 329.205C171.108 329.68 171.371 330.122 171.698 330.515C171.996 330.886 172.367 331.192 172.787 331.414C173.193 331.642 173.651 331.759 174.116 331.754C174.908 331.784 175.684 331.528 176.305 331.034C176.951 330.453 177.427 329.706 177.683 328.875H181.021C180.834 329.744 180.496 330.573 180.021 331.324C179.203 332.72 177.918 333.782 176.394 334.323C175.539 334.628 174.632 334.761 173.725 334.714C172.818 334.668 171.929 334.444 171.109 334.054C170.239 333.623 169.466 333.017 168.841 332.274C168.203 331.501 167.716 330.616 167.402 329.665C167.06 328.65 166.888 327.586 166.892 326.516C166.889 325.511 167.062 324.513 167.402 323.567C167.719 322.65 168.207 321.802 168.841 321.068C169.495 320.313 170.306 319.711 171.217 319.304C172.129 318.896 173.118 318.693 174.116 318.708C175.117 318.695 176.108 318.896 177.024 319.298C177.866 319.668 178.621 320.21 179.242 320.888C179.871 321.584 180.354 322.4 180.661 323.287C180.996 324.251 181.161 325.265 181.151 326.286V327.676L170.549 327.616ZM177.543 324.916C177.502 324.459 177.381 324.012 177.184 323.597C176.998 323.22 176.744 322.881 176.434 322.597C176.126 322.305 175.763 322.077 175.365 321.927C174.931 321.767 174.47 321.689 174.006 321.697C173.571 321.691 173.138 321.777 172.737 321.947C172.366 322.12 172.028 322.357 171.738 322.647C171.121 323.265 170.728 324.07 170.619 324.936L177.543 324.916Z" clip-rule="evenodd"/><path fill="#fff" fill-rule="evenodd" d="M186.256 328.875C186.252 329.334 186.336 329.789 186.506 330.215C186.634 330.554 186.839 330.859 187.106 331.105C187.354 331.329 187.647 331.5 187.965 331.604C188.289 331.702 188.626 331.753 188.964 331.754C189.299 331.754 189.634 331.724 189.963 331.664C190.269 331.618 190.566 331.524 190.843 331.385C191.088 331.264 191.299 331.081 191.452 330.855C191.612 330.605 191.692 330.312 191.682 330.015C191.687 329.739 191.587 329.471 191.402 329.265C191.195 329.035 190.952 328.839 190.683 328.685C190.365 328.499 190.03 328.341 189.684 328.216C189.304 328.066 188.914 327.926 188.504 327.786C187.895 327.576 187.266 327.336 186.636 327.086C186.025 326.841 185.445 326.526 184.907 326.146C184.409 325.789 183.982 325.341 183.649 324.827C183.308 324.271 183.138 323.628 183.159 322.977C183.143 322.318 183.291 321.666 183.589 321.078C183.883 320.544 184.292 320.083 184.788 319.728C185.329 319.353 185.936 319.082 186.576 318.928C187.311 318.744 188.066 318.653 188.824 318.659C189.641 318.647 190.455 318.752 191.242 318.968C191.92 319.142 192.556 319.452 193.111 319.878C193.636 320.295 194.057 320.829 194.34 321.438C194.652 322.14 194.822 322.898 194.839 323.667H191.322C191.291 323.317 191.189 322.977 191.022 322.667C190.889 322.424 190.701 322.216 190.473 322.057C190.242 321.902 189.985 321.79 189.714 321.728C189.421 321.666 189.123 321.636 188.824 321.638C188.267 321.603 187.711 321.731 187.226 322.008C187.054 322.11 186.912 322.257 186.815 322.433C186.719 322.608 186.671 322.807 186.676 323.007C186.677 323.26 186.773 323.503 186.946 323.687C187.156 323.909 187.398 324.098 187.665 324.247C187.984 324.438 188.318 324.602 188.664 324.737L189.853 325.187C190.473 325.396 191.092 325.636 191.732 325.896C192.343 326.147 192.926 326.462 193.47 326.836C193.96 327.171 194.387 327.591 194.729 328.076C195.062 328.571 195.233 329.158 195.219 329.755C195.253 330.495 195.093 331.232 194.755 331.891C194.417 332.551 193.912 333.11 193.291 333.514C192.663 333.921 191.97 334.215 191.242 334.384C190.441 334.575 189.619 334.669 188.794 334.663C188.001 334.667 187.212 334.546 186.456 334.304C185.725 334.076 185.046 333.705 184.458 333.214C183.883 332.715 183.423 332.098 183.109 331.404C182.745 330.607 182.555 329.742 182.549 328.865L186.256 328.875Z" clip-rule="evenodd"/><path fill="#fff" fill-rule="evenodd" d="M202.073 314.73V318.969H204.911V321.888H202.073V330.265C202.058 330.641 202.163 331.012 202.373 331.325C202.462 331.463 202.585 331.575 202.731 331.65C202.876 331.725 203.039 331.762 203.202 331.755L203.862 331.695C204.338 331.626 204.802 331.491 205.241 331.295V334.114C204.671 334.337 204.078 334.491 203.472 334.574C203.008 334.636 202.541 334.669 202.073 334.674C201.605 334.672 201.143 334.573 200.714 334.384C200.284 334.193 199.897 333.918 199.575 333.574C199.236 333.209 198.971 332.781 198.796 332.314C198.6 331.787 198.501 331.228 198.506 330.665V321.888H196.298V318.969H198.506V314.73H202.073Z" clip-rule="evenodd"/><path fill="#fff" fill-rule="evenodd" d="M210.696 313.28V316.829H207.129V313.28H210.696ZM210.696 318.968V334.374H207.129V318.968H210.696Z" clip-rule="evenodd"/><path fill="#fff" fill-rule="evenodd" d="M213.154 326.696C213.148 325.647 213.31 324.604 213.634 323.607C213.931 322.67 214.41 321.8 215.043 321.048C215.665 320.308 216.443 319.714 217.321 319.308C218.29 318.88 219.338 318.658 220.398 318.658C221.458 318.658 222.506 318.88 223.476 319.308C224.35 319.719 225.127 320.312 225.754 321.048C226.39 321.799 226.872 322.669 227.173 323.607C227.508 324.602 227.677 325.646 227.672 326.696C227.675 327.745 227.51 328.788 227.183 329.785C226.885 330.716 226.406 331.579 225.774 332.324C225.145 333.057 224.364 333.643 223.486 334.044C222.513 334.459 221.466 334.674 220.408 334.674C219.35 334.674 218.303 334.459 217.331 334.044C216.454 333.641 215.673 333.055 215.043 332.324C214.41 331.579 213.931 330.716 213.634 329.785C213.31 328.788 213.148 327.745 213.154 326.696ZM216.721 326.696C216.715 327.351 216.799 328.003 216.971 328.635C217.121 329.201 217.364 329.739 217.69 330.225C217.995 330.661 218.39 331.026 218.849 331.294C219.32 331.557 219.85 331.695 220.388 331.695C220.927 331.695 221.456 331.557 221.927 331.294C222.391 331.029 222.79 330.664 223.096 330.225C223.436 329.743 223.69 329.205 223.845 328.635C224.178 327.364 224.178 326.028 223.845 324.756C223.694 324.183 223.44 323.641 223.096 323.157C222.79 322.715 222.391 322.347 221.927 322.077C221.456 321.815 220.927 321.677 220.388 321.677C219.85 321.677 219.32 321.815 218.849 322.077C218.39 322.35 217.995 322.718 217.69 323.157C217.36 323.645 217.117 324.186 216.971 324.756C216.8 325.389 216.716 326.041 216.721 326.696Z" clip-rule="evenodd"/><path fill="#fff" fill-rule="evenodd" d="M230.44 318.968H233.977V320.778C234.547 320.093 235.26 319.54 236.065 319.158C236.777 318.832 237.55 318.661 238.333 318.658C239.051 318.648 239.765 318.766 240.442 319.008C241.031 319.223 241.567 319.564 242.01 320.008C242.446 320.451 242.786 320.978 243.01 321.557C243.244 322.197 243.359 322.875 243.349 323.557V334.383H239.782V324.127C239.792 323.769 239.734 323.413 239.612 323.077C239.513 322.794 239.36 322.533 239.163 322.307C238.974 322.099 238.742 321.935 238.483 321.827C238.218 321.727 237.937 321.676 237.654 321.677C237.179 321.673 236.708 321.772 236.275 321.967C235.402 322.348 234.693 323.029 234.277 323.887C234.071 324.303 233.965 324.762 233.967 325.226V334.373H230.4L230.44 318.968Z" clip-rule="evenodd"/><path fill="#fff" fill-rule="evenodd" d="M249.964 313.28V322.047L249.374 328.046H246.696L246.107 322.117V313.3L249.964 313.28ZM249.964 330.515V334.374H246.107V330.545L249.964 330.515Z" clip-rule="evenodd"/><path fill="#fff" fill-rule="evenodd" d="M174.356 60.9204C178.755 60.9204 182.974 62.6688 186.084 65.7809C189.195 68.893 190.942 73.1139 190.942 77.5151V117.053C190.942 119.232 190.513 121.39 189.68 123.403C188.846 125.416 187.625 127.246 186.084 128.787C184.544 130.328 182.716 131.55 180.703 132.384C178.691 133.218 176.534 133.647 174.356 133.647C172.178 133.647 170.021 133.218 168.009 132.384C165.996 131.55 164.168 130.328 162.628 128.787C161.088 127.246 159.866 125.416 159.032 123.403C158.199 121.39 157.77 119.232 157.77 117.053V77.5151C157.77 73.1139 159.517 68.893 162.628 65.7809C165.738 62.6688 169.957 60.9204 174.356 60.9204Z" clip-rule="evenodd"/><path fill="#fff" fill-rule="evenodd" d="M134.259 143.174C138.658 143.174 142.877 144.923 145.987 148.035C149.098 151.147 150.845 155.368 150.845 159.769V199.306C150.845 203.708 149.098 207.929 145.987 211.041C142.877 214.153 138.658 215.901 134.259 215.901C129.86 215.901 125.641 214.153 122.531 211.041C119.42 207.929 117.673 203.708 117.673 199.306V159.769C117.673 155.368 119.42 151.147 122.531 148.035C125.641 144.923 129.86 143.174 134.259 143.174Z" clip-rule="evenodd"/><path fill="#fff" fill-rule="evenodd" d="M150.126 118.353C150.126 122.754 148.379 126.975 145.268 130.087C142.158 133.199 137.939 134.947 133.54 134.947H94.0124C89.6135 134.947 85.3947 133.199 82.2841 130.087C79.1736 126.975 77.4261 122.754 77.4261 118.353C77.4261 116.173 77.8552 114.015 78.6887 112.002C79.5223 109.989 80.744 108.159 82.2841 106.618C83.8243 105.077 85.6528 103.855 87.6651 103.021C89.6775 102.187 91.8343 101.758 94.0124 101.758H133.54C135.718 101.758 137.875 102.187 139.887 103.021C141.899 103.855 143.728 105.077 145.268 106.618C146.808 108.159 148.03 109.989 148.864 112.002C149.697 114.015 150.126 116.173 150.126 118.353Z" clip-rule="evenodd"/><path fill="#fff" fill-rule="evenodd" d="M157.91 159.049C157.91 156.87 158.339 154.712 159.172 152.699C160.006 150.685 161.228 148.856 162.768 147.315C164.308 145.774 166.136 144.552 168.149 143.718C170.161 142.884 172.318 142.455 174.496 142.455H213.993C218.392 142.455 222.611 144.203 225.722 147.315C228.832 150.427 230.58 154.648 230.58 159.049C230.58 163.451 228.832 167.671 225.722 170.784C222.611 173.896 218.392 175.644 213.993 175.644H174.496C170.097 175.644 165.878 173.896 162.768 170.784C159.657 167.671 157.91 163.451 157.91 159.049Z" clip-rule="evenodd"/><path fill="#fff" fill-rule="evenodd" d="M199.296 118.342C199.299 115.195 200.236 112.12 201.986 109.506C203.736 106.891 206.222 104.854 209.129 103.653C212.036 102.451 215.234 102.139 218.318 102.756C221.402 103.372 224.235 104.889 226.457 107.116C228.68 109.342 230.193 112.178 230.805 115.265C231.417 118.351 231.101 121.55 229.897 124.457C228.692 127.364 226.653 129.848 224.038 131.596C221.422 133.344 218.348 134.277 215.202 134.277C210.366 134.277 198.966 134.917 198.966 134.917C198.966 134.917 199.296 122.301 199.296 118.342Z" clip-rule="evenodd" opacity=".97"/><path fill="#fff" fill-rule="evenodd" d="M134.059 93.3901C130.918 93.5329 127.804 92.7407 125.112 91.1136C122.42 89.4864 120.271 87.0974 118.935 84.2484C117.6 81.3994 117.139 78.2184 117.61 75.1072C118.081 71.9961 119.464 69.0945 121.583 66.7692C123.702 64.4439 126.462 62.7992 129.515 62.043C132.568 61.2869 135.776 61.4531 138.735 62.5208C141.693 63.5884 144.269 65.5096 146.136 68.0414C148.004 70.5733 149.079 73.6022 149.227 76.7454C149.447 81.5739 150.626 92.9303 150.626 92.9303C150.626 92.9303 138.056 93.2002 134.059 93.3901Z" clip-rule="evenodd" opacity=".97"/><path fill="#fff" fill-rule="evenodd" d="M109.08 159.25C109.084 162.395 108.156 165.47 106.414 168.088C104.672 170.707 102.194 172.749 99.2926 173.959C96.391 175.169 93.1962 175.492 90.1114 174.887C87.0267 174.281 84.1904 172.775 81.9606 170.558C79.7309 168.341 78.2076 165.513 77.5833 162.43C76.9589 159.348 77.2613 156.15 78.4524 153.239C79.6435 150.328 81.6699 147.836 84.2757 146.077C86.8814 144.318 89.9497 143.37 93.0932 143.355C97.9192 143.355 109.32 142.675 109.32 142.675C109.32 142.675 109.08 155.281 109.08 159.25Z" clip-rule="evenodd" opacity=".97"/><path fill="#fff" fill-rule="evenodd" d="M175.026 183.912C178.172 183.927 181.244 184.877 183.851 186.64C186.459 188.402 188.485 190.899 189.674 193.815C190.862 196.73 191.16 199.932 190.529 203.017C189.898 206.102 188.367 208.93 186.129 211.143C183.892 213.357 181.048 214.857 177.958 215.453C174.868 216.049 171.671 215.715 168.771 214.493C165.87 213.271 163.398 211.216 161.665 208.587C159.933 205.958 159.019 202.875 159.039 199.727C159.039 194.898 158.489 183.492 158.489 183.492C158.489 183.492 171.029 183.882 175.026 183.912Z" clip-rule="evenodd" opacity=".97"/></svg>