<svg width="666" height="557" viewBox="0 0 666 557" fill="none" xmlns="http://www.w3.org/2000/svg">
<rect width="666" height="557" rx="108" fill="#F96132"/>
<path fill-rule="evenodd" clip-rule="evenodd" d="M250.356 128.92C254.755 128.92 258.974 130.669 262.084 133.781C265.195 136.893 266.942 141.114 266.942 145.515V185.053C266.942 187.232 266.513 189.39 265.68 191.403C264.846 193.416 263.625 195.246 262.084 196.787C260.544 198.328 258.716 199.55 256.703 200.384C254.691 201.218 252.534 201.647 250.356 201.647C248.178 201.647 246.021 201.218 244.009 200.384C241.996 199.55 240.168 198.328 238.628 196.787C237.088 195.246 235.866 193.416 235.032 191.403C234.199 189.39 233.77 187.232 233.77 185.053V145.515C233.77 141.114 235.517 136.893 238.628 133.781C241.738 130.669 245.957 128.92 250.356 128.92V128.92Z" fill="white"/>
<path fill-rule="evenodd" clip-rule="evenodd" d="M210.259 211.174C214.658 211.174 218.877 212.923 221.987 216.035C225.098 219.147 226.845 223.368 226.845 227.769V267.306C226.845 271.708 225.098 275.929 221.987 279.041C218.877 282.153 214.658 283.901 210.259 283.901C205.86 283.901 201.641 282.153 198.531 279.041C195.42 275.929 193.673 271.708 193.673 267.306V227.769C193.673 223.368 195.42 219.147 198.531 216.035C201.641 212.923 205.86 211.174 210.259 211.174Z" fill="white"/>
<path fill-rule="evenodd" clip-rule="evenodd" d="M226.126 186.353C226.126 190.754 224.379 194.975 221.268 198.087C218.158 201.199 213.939 202.947 209.54 202.947H170.012C165.613 202.947 161.395 201.199 158.284 198.087C155.174 194.975 153.426 190.754 153.426 186.353C153.426 184.173 153.855 182.015 154.689 180.002C155.522 177.989 156.744 176.159 158.284 174.618C159.824 173.077 161.653 171.855 163.665 171.021C165.677 170.187 167.834 169.758 170.012 169.758H209.54C211.718 169.758 213.875 170.187 215.887 171.021C217.899 171.855 219.728 173.077 221.268 174.618C222.808 176.159 224.03 177.989 224.864 180.002C225.697 182.015 226.126 184.173 226.126 186.353Z" fill="white"/>
<path fill-rule="evenodd" clip-rule="evenodd" d="M233.91 227.049C233.91 224.87 234.339 222.712 235.172 220.699C236.006 218.685 237.228 216.856 238.768 215.315C240.308 213.774 242.136 212.552 244.149 211.718C246.161 210.884 248.318 210.455 250.496 210.455H289.993C294.392 210.455 298.611 212.203 301.722 215.315C304.832 218.427 306.58 222.648 306.58 227.049C306.58 231.451 304.832 235.671 301.722 238.784C298.611 241.896 294.392 243.644 289.993 243.644H250.496C246.097 243.644 241.878 241.896 238.768 238.784C235.657 235.671 233.91 231.451 233.91 227.049Z" fill="white"/>
<path opacity="0.97" fill-rule="evenodd" clip-rule="evenodd" d="M275.296 186.342C275.299 183.195 276.236 180.12 277.986 177.506C279.736 174.891 282.222 172.854 285.129 171.653C288.036 170.451 291.234 170.139 294.318 170.756C297.402 171.372 300.235 172.889 302.457 175.116C304.68 177.342 306.193 180.178 306.805 183.265C307.417 186.351 307.101 189.55 305.897 192.457C304.692 195.364 302.653 197.848 300.038 199.596C297.422 201.344 294.348 202.277 291.202 202.277C286.366 202.277 274.966 202.917 274.966 202.917C274.966 202.917 275.296 190.301 275.296 186.342Z" fill="white"/>
<path opacity="0.97" fill-rule="evenodd" clip-rule="evenodd" d="M210.059 161.39C206.918 161.533 203.804 160.741 201.112 159.114C198.42 157.486 196.271 155.097 194.935 152.248C193.6 149.399 193.139 146.218 193.61 143.107C194.081 139.996 195.464 137.095 197.583 134.769C199.702 132.444 202.462 130.799 205.515 130.043C208.568 129.287 211.776 129.453 214.735 130.521C217.693 131.588 220.269 133.51 222.136 136.041C224.004 138.573 225.079 141.602 225.227 144.745C225.447 149.574 226.626 160.93 226.626 160.93C226.626 160.93 214.056 161.2 210.059 161.39Z" fill="white"/>
<path opacity="0.97" fill-rule="evenodd" clip-rule="evenodd" d="M185.08 227.25C185.084 230.395 184.156 233.47 182.414 236.088C180.672 238.707 178.194 240.749 175.293 241.959C172.391 243.169 169.196 243.492 166.111 242.887C163.027 242.281 160.19 240.775 157.961 238.558C155.731 236.341 154.208 233.513 153.583 230.43C152.959 227.348 153.261 224.15 154.452 221.239C155.643 218.328 157.67 215.836 160.276 214.077C162.881 212.318 165.95 211.37 169.093 211.355C173.919 211.355 185.32 210.675 185.32 210.675C185.32 210.675 185.08 223.281 185.08 227.25Z" fill="white"/>
<path opacity="0.97" fill-rule="evenodd" clip-rule="evenodd" d="M251.026 251.912C254.172 251.927 257.244 252.877 259.851 254.64C262.459 256.402 264.485 258.899 265.674 261.815C266.862 264.73 267.16 267.932 266.529 271.017C265.898 274.102 264.367 276.93 262.129 279.143C259.892 281.357 257.048 282.857 253.958 283.453C250.868 284.049 247.671 283.715 244.771 282.493C241.87 281.271 239.398 279.216 237.665 276.587C235.933 273.958 235.019 270.875 235.039 267.727C235.039 262.898 234.489 251.492 234.489 251.492C234.489 251.492 247.029 251.882 251.026 251.912Z" fill="white"/>
<path d="M171.263 392.208V387.456C175.871 390.592 180.479 392.16 185.087 392.16C187.487 392.16 189.327 391.808 190.607 391.104C191.919 390.368 192.575 389.04 192.575 387.12C192.575 385.488 191.887 384.304 190.511 383.568C189.167 382.832 186.879 382.096 183.647 381.36C179.071 380.304 175.935 379.072 174.239 377.664C172.575 376.224 171.743 374.208 171.743 371.616C171.743 365.792 175.615 362.88 183.359 362.88C187.263 362.88 191.071 363.792 194.783 365.616V369.936C189.567 368.112 185.551 367.2 182.735 367.2C180.719 367.2 179.183 367.552 178.127 368.256C177.071 368.96 176.543 370.128 176.543 371.76C176.543 373.136 177.135 374.192 178.319 374.928C179.535 375.632 181.647 376.336 184.655 377.04C189.519 378.16 192.847 379.392 194.639 380.736C196.463 382.048 197.375 384.208 197.375 387.216C197.375 393.392 193.279 396.48 185.087 396.48C182.751 396.48 180.271 396.08 177.647 395.28C175.023 394.48 172.895 393.456 171.263 392.208ZM203.149 362.4H207.949V396H203.149V362.4ZM232.847 391.2H235.727V396H228.047V393.6C226.607 395.52 224.383 396.48 221.375 396.48C218.623 396.48 216.495 395.648 214.991 393.984C213.519 392.288 212.783 390.24 212.783 387.84C212.783 385.44 213.519 383.408 214.991 381.744C216.495 380.048 218.623 379.2 221.375 379.2C224.383 379.2 226.607 380.16 228.047 382.08V376.32H215.567V372H232.847V391.2ZM218.879 391.008C219.775 391.776 221.087 392.16 222.815 392.16C224.543 392.16 225.839 391.776 226.703 391.008C227.599 390.24 228.047 389.184 228.047 387.84C228.047 386.496 227.599 385.44 226.703 384.672C225.839 383.904 224.543 383.52 222.815 383.52C221.087 383.52 219.775 383.904 218.879 384.672C218.015 385.44 217.583 386.496 217.583 387.84C217.583 389.184 218.015 390.24 218.879 391.008ZM241.395 393.12C239.539 390.88 238.611 387.84 238.611 384C238.611 380.16 239.539 377.12 241.395 374.88C243.251 372.64 245.907 371.52 249.363 371.52C252.467 371.52 254.899 372.4 256.659 374.16C258.451 375.888 259.347 378.208 259.347 381.12H254.547C254.451 379.456 254.035 378.16 253.299 377.232C252.563 376.304 251.331 375.84 249.603 375.84C247.331 375.84 245.731 376.432 244.803 377.616C243.875 378.8 243.411 380.928 243.411 384C243.411 387.072 243.875 389.2 244.803 390.384C245.731 391.568 247.331 392.16 249.603 392.16C251.331 392.16 252.563 391.696 253.299 390.768C254.035 389.84 254.451 388.544 254.547 386.88H259.347C259.347 389.792 258.451 392.128 256.659 393.888C254.899 395.616 252.467 396.48 249.363 396.48C245.907 396.48 243.251 395.36 241.395 393.12ZM285.721 372L277.513 384.048L285.721 396H279.913L273.193 386.208H269.449V396H264.649V362.4H269.449V381.888H273.193L279.913 372H285.721Z" fill="white"/>
<path d="M139.449 447.15L143.079 437.16H143.139L146.709 447.15H139.449ZM141.579 434.58L133.239 456H136.149L138.549 449.55H147.609L149.949 456H153.099L144.729 434.58H141.579ZM156.352 451.11H153.802C153.842 452.07 154.042 452.89 154.402 453.57C154.762 454.23 155.242 454.77 155.842 455.19C156.442 455.59 157.132 455.88 157.912 456.06C158.692 456.24 159.512 456.33 160.372 456.33C161.152 456.33 161.932 456.25 162.712 456.09C163.512 455.95 164.222 455.69 164.842 455.31C165.482 454.93 165.992 454.43 166.372 453.81C166.772 453.19 166.972 452.41 166.972 451.47C166.972 450.73 166.822 450.11 166.522 449.61C166.242 449.11 165.862 448.7 165.382 448.38C164.922 448.04 164.382 447.77 163.762 447.57C163.162 447.37 162.542 447.2 161.902 447.06C161.302 446.92 160.702 446.79 160.102 446.67C159.502 446.53 158.962 446.37 158.482 446.19C158.002 445.99 157.602 445.75 157.282 445.47C156.982 445.17 156.832 444.8 156.832 444.36C156.832 443.96 156.932 443.64 157.132 443.4C157.332 443.14 157.592 442.94 157.912 442.8C158.232 442.64 158.582 442.53 158.962 442.47C159.362 442.41 159.752 442.38 160.132 442.38C160.552 442.38 160.962 442.43 161.362 442.53C161.782 442.61 162.162 442.75 162.502 442.95C162.842 443.15 163.122 443.42 163.342 443.76C163.562 444.08 163.692 444.49 163.732 444.99H166.282C166.222 444.05 166.022 443.27 165.682 442.65C165.342 442.01 164.882 441.51 164.302 441.15C163.742 440.77 163.092 440.51 162.352 440.37C161.612 440.21 160.802 440.13 159.922 440.13C159.242 440.13 158.552 440.22 157.852 440.4C157.172 440.56 156.552 440.82 155.992 441.18C155.452 441.52 155.002 441.97 154.642 442.53C154.302 443.09 154.132 443.76 154.132 444.54C154.132 445.54 154.382 446.32 154.882 446.88C155.382 447.44 156.002 447.88 156.742 448.2C157.502 448.5 158.322 448.74 159.202 448.92C160.082 449.08 160.892 449.27 161.632 449.49C162.392 449.69 163.022 449.96 163.522 450.3C164.022 450.64 164.272 451.14 164.272 451.8C164.272 452.28 164.152 452.68 163.912 453C163.672 453.3 163.362 453.53 162.982 453.69C162.622 453.85 162.222 453.96 161.782 454.02C161.342 454.08 160.922 454.11 160.522 454.11C160.002 454.11 159.492 454.06 158.992 453.96C158.512 453.86 158.072 453.7 157.672 453.48C157.292 453.24 156.982 452.93 156.742 452.55C156.502 452.15 156.372 451.67 156.352 451.11ZM169.942 434.58V456H172.492V450.12L174.892 447.9L180.202 456H183.442L176.842 446.13L182.992 440.49H179.572L172.492 447.27V434.58H169.942ZM207.438 455.94C206.998 456.2 206.388 456.33 205.608 456.33C204.948 456.33 204.418 456.15 204.018 455.79C203.638 455.41 203.448 454.8 203.448 453.96C202.748 454.8 201.928 455.41 200.988 455.79C200.068 456.15 199.068 456.33 197.988 456.33C197.288 456.33 196.618 456.25 195.978 456.09C195.358 455.93 194.818 455.68 194.358 455.34C193.898 455 193.528 454.56 193.248 454.02C192.988 453.46 192.858 452.79 192.858 452.01C192.858 451.13 193.008 450.41 193.308 449.85C193.608 449.29 193.998 448.84 194.478 448.5C194.978 448.14 195.538 447.87 196.158 447.69C196.798 447.51 197.448 447.36 198.108 447.24C198.808 447.1 199.468 447 200.088 446.94C200.728 446.86 201.288 446.76 201.768 446.64C202.248 446.5 202.628 446.31 202.908 446.07C203.188 445.81 203.328 445.44 203.328 444.96C203.328 444.4 203.218 443.95 202.998 443.61C202.798 443.27 202.528 443.01 202.188 442.83C201.868 442.65 201.498 442.53 201.078 442.47C200.678 442.41 200.278 442.38 199.878 442.38C198.798 442.38 197.898 442.59 197.178 443.01C196.458 443.41 196.068 444.18 196.008 445.32H193.458C193.498 444.36 193.698 443.55 194.058 442.89C194.418 442.23 194.898 441.7 195.498 441.3C196.098 440.88 196.778 440.58 197.538 440.4C198.318 440.22 199.148 440.13 200.028 440.13C200.728 440.13 201.418 440.18 202.098 440.28C202.798 440.38 203.428 440.59 203.988 440.91C204.548 441.21 204.998 441.64 205.338 442.2C205.678 442.76 205.848 443.49 205.848 444.39V452.37C205.848 452.97 205.878 453.41 205.938 453.69C206.018 453.97 206.258 454.11 206.658 454.11C206.878 454.11 207.138 454.06 207.438 453.96V455.94ZM203.298 447.99C202.978 448.23 202.558 448.41 202.038 448.53C201.518 448.63 200.968 448.72 200.388 448.8C199.828 448.86 199.258 448.94 198.678 449.04C198.098 449.12 197.578 449.26 197.118 449.46C196.658 449.66 196.278 449.95 195.978 450.33C195.698 450.69 195.558 451.19 195.558 451.83C195.558 452.25 195.638 452.61 195.798 452.91C195.978 453.19 196.198 453.42 196.458 453.6C196.738 453.78 197.058 453.91 197.418 453.99C197.778 454.07 198.158 454.11 198.558 454.11C199.398 454.11 200.118 454 200.718 453.78C201.318 453.54 201.808 453.25 202.188 452.91C202.568 452.55 202.848 452.17 203.028 451.77C203.208 451.35 203.298 450.96 203.298 450.6V447.99ZM220.021 448.38C220.021 447.62 220.101 446.88 220.261 446.16C220.421 445.44 220.681 444.8 221.041 444.24C221.401 443.68 221.881 443.23 222.481 442.89C223.081 442.55 223.811 442.38 224.671 442.38C225.551 442.38 226.301 442.55 226.921 442.89C227.541 443.21 228.041 443.64 228.421 444.18C228.821 444.72 229.111 445.35 229.291 446.07C229.471 446.77 229.561 447.5 229.561 448.26C229.561 448.98 229.471 449.69 229.291 450.39C229.131 451.09 228.861 451.72 228.481 452.28C228.101 452.82 227.611 453.26 227.011 453.6C226.411 453.94 225.681 454.11 224.821 454.11C224.001 454.11 223.281 453.95 222.661 453.63C222.061 453.31 221.561 452.88 221.161 452.34C220.781 451.8 220.491 451.19 220.291 450.51C220.111 449.81 220.021 449.1 220.021 448.38ZM232.021 461.91V440.49H229.471V442.56H229.411C229.131 442.1 228.781 441.72 228.361 441.42C227.961 441.1 227.531 440.85 227.071 440.67C226.611 440.47 226.151 440.33 225.691 440.25C225.231 440.17 224.801 440.13 224.401 440.13C223.221 440.13 222.181 440.35 221.281 440.79C220.401 441.21 219.661 441.79 219.061 442.53C218.481 443.25 218.041 444.1 217.741 445.08C217.461 446.06 217.321 447.1 217.321 448.2C217.321 449.3 217.471 450.34 217.771 451.32C218.071 452.3 218.511 453.16 219.091 453.9C219.691 454.64 220.431 455.23 221.311 455.67C222.211 456.11 223.261 456.33 224.461 456.33C225.541 456.33 226.531 456.14 227.431 455.76C228.331 455.38 228.991 454.76 229.411 453.9H229.471V461.91H232.021ZM248.784 456V440.49H246.234V449.25C246.234 449.95 246.134 450.6 245.934 451.2C245.754 451.78 245.474 452.29 245.094 452.73C244.714 453.17 244.234 453.51 243.654 453.75C243.094 453.99 242.424 454.11 241.644 454.11C240.664 454.11 239.894 453.83 239.334 453.27C238.774 452.71 238.494 451.95 238.494 450.99V440.49H235.944V450.69C235.944 451.53 236.024 452.3 236.184 453C236.364 453.68 236.664 454.27 237.084 454.77C237.504 455.27 238.054 455.66 238.734 455.94C239.414 456.2 240.264 456.33 241.284 456.33C242.424 456.33 243.414 456.11 244.254 455.67C245.094 455.21 245.784 454.5 246.324 453.54H246.384V456H248.784ZM263.384 446.76H254.474C254.514 446.16 254.644 445.6 254.864 445.08C255.084 444.54 255.384 444.07 255.764 443.67C256.144 443.27 256.594 442.96 257.114 442.74C257.654 442.5 258.254 442.38 258.914 442.38C259.554 442.38 260.134 442.5 260.654 442.74C261.194 442.96 261.654 443.27 262.034 443.67C262.434 444.05 262.744 444.51 262.964 445.05C263.204 445.59 263.344 446.16 263.384 446.76ZM265.844 451.08H263.324C263.104 452.1 262.644 452.86 261.944 453.36C261.264 453.86 260.384 454.11 259.304 454.11C258.464 454.11 257.734 453.97 257.114 453.69C256.494 453.41 255.984 453.04 255.584 452.58C255.184 452.1 254.894 451.56 254.714 450.96C254.534 450.34 254.454 449.69 254.474 449.01H266.084C266.124 448.07 266.034 447.08 265.814 446.04C265.614 445 265.234 444.04 264.674 443.16C264.134 442.28 263.404 441.56 262.484 441C261.584 440.42 260.444 440.13 259.064 440.13C258.004 440.13 257.024 440.33 256.124 440.73C255.244 441.13 254.474 441.69 253.814 442.41C253.174 443.13 252.674 443.98 252.314 444.96C251.954 445.94 251.774 447.02 251.774 448.2C251.814 449.38 251.984 450.47 252.284 451.47C252.604 452.47 253.074 453.33 253.694 454.05C254.314 454.77 255.074 455.33 255.974 455.73C256.894 456.13 257.974 456.33 259.214 456.33C260.974 456.33 262.434 455.89 263.594 455.01C264.754 454.13 265.504 452.82 265.844 451.08ZM270.288 451.11H267.738C267.778 452.07 267.978 452.89 268.338 453.57C268.698 454.23 269.178 454.77 269.778 455.19C270.378 455.59 271.068 455.88 271.848 456.06C272.628 456.24 273.448 456.33 274.308 456.33C275.088 456.33 275.868 456.25 276.648 456.09C277.448 455.95 278.158 455.69 278.778 455.31C279.418 454.93 279.928 454.43 280.308 453.81C280.708 453.19 280.908 452.41 280.908 451.47C280.908 450.73 280.758 450.11 280.458 449.61C280.178 449.11 279.798 448.7 279.318 448.38C278.858 448.04 278.318 447.77 277.698 447.57C277.098 447.37 276.478 447.2 275.838 447.06C275.238 446.92 274.638 446.79 274.038 446.67C273.438 446.53 272.898 446.37 272.418 446.19C271.938 445.99 271.538 445.75 271.218 445.47C270.918 445.17 270.768 444.8 270.768 444.36C270.768 443.96 270.868 443.64 271.068 443.4C271.268 443.14 271.528 442.94 271.848 442.8C272.168 442.64 272.518 442.53 272.898 442.47C273.298 442.41 273.688 442.38 274.068 442.38C274.488 442.38 274.898 442.43 275.298 442.53C275.718 442.61 276.098 442.75 276.438 442.95C276.778 443.15 277.058 443.42 277.278 443.76C277.498 444.08 277.628 444.49 277.668 444.99H280.218C280.158 444.05 279.958 443.27 279.618 442.65C279.278 442.01 278.818 441.51 278.238 441.15C277.678 440.77 277.028 440.51 276.288 440.37C275.548 440.21 274.738 440.13 273.858 440.13C273.178 440.13 272.488 440.22 271.788 440.4C271.108 440.56 270.488 440.82 269.928 441.18C269.388 441.52 268.938 441.97 268.578 442.53C268.238 443.09 268.068 443.76 268.068 444.54C268.068 445.54 268.318 446.32 268.818 446.88C269.318 447.44 269.938 447.88 270.678 448.2C271.438 448.5 272.258 448.74 273.138 448.92C274.018 449.08 274.828 449.27 275.568 449.49C276.328 449.69 276.958 449.96 277.458 450.3C277.958 450.64 278.208 451.14 278.208 451.8C278.208 452.28 278.088 452.68 277.848 453C277.608 453.3 277.298 453.53 276.918 453.69C276.558 453.85 276.158 453.96 275.718 454.02C275.278 454.08 274.858 454.11 274.458 454.11C273.938 454.11 273.428 454.06 272.928 453.96C272.448 453.86 272.008 453.7 271.608 453.48C271.228 453.24 270.918 452.93 270.678 452.55C270.438 452.15 270.308 451.67 270.288 451.11ZM287.268 440.49V435.84H284.718V440.49H282.078V442.74H284.718V452.61C284.718 453.33 284.788 453.91 284.928 454.35C285.068 454.79 285.278 455.13 285.558 455.37C285.858 455.61 286.238 455.78 286.698 455.88C287.178 455.96 287.748 456 288.408 456H290.358V453.75H289.188C288.788 453.75 288.458 453.74 288.198 453.72C287.958 453.68 287.768 453.61 287.628 453.51C287.488 453.41 287.388 453.27 287.328 453.09C287.288 452.91 287.268 452.67 287.268 452.37V442.74H290.358V440.49H287.268ZM295.891 437.7V434.58H293.341V437.7H295.891ZM293.341 440.49V456H295.891V440.49H293.341ZM301.701 448.26C301.701 447.32 301.821 446.49 302.061 445.77C302.321 445.03 302.671 444.41 303.111 443.91C303.551 443.41 304.061 443.03 304.641 442.77C305.241 442.51 305.871 442.38 306.531 442.38C307.191 442.38 307.811 442.51 308.391 442.77C308.991 443.03 309.511 443.41 309.951 443.91C310.391 444.41 310.731 445.03 310.971 445.77C311.231 446.49 311.361 447.32 311.361 448.26C311.361 449.2 311.231 450.04 310.971 450.78C310.731 451.5 310.391 452.11 309.951 452.61C309.511 453.09 308.991 453.46 308.391 453.72C307.811 453.98 307.191 454.11 306.531 454.11C305.871 454.11 305.241 453.98 304.641 453.72C304.061 453.46 303.551 453.09 303.111 452.61C302.671 452.11 302.321 451.5 302.061 450.78C301.821 450.04 301.701 449.2 301.701 448.26ZM299.001 448.26C299.001 449.4 299.161 450.46 299.481 451.44C299.801 452.42 300.281 453.28 300.921 454.02C301.561 454.74 302.351 455.31 303.291 455.73C304.231 456.13 305.311 456.33 306.531 456.33C307.771 456.33 308.851 456.13 309.771 455.73C310.711 455.31 311.501 454.74 312.141 454.02C312.781 453.28 313.261 452.42 313.581 451.44C313.901 450.46 314.061 449.4 314.061 448.26C314.061 447.12 313.901 446.06 313.581 445.08C313.261 444.08 312.781 443.22 312.141 442.5C311.501 441.76 310.711 441.18 309.771 440.76C308.851 440.34 307.771 440.13 306.531 440.13C305.311 440.13 304.231 440.34 303.291 440.76C302.351 441.18 301.561 441.76 300.921 442.5C300.281 443.22 299.801 444.08 299.481 445.08C299.161 446.06 299.001 447.12 299.001 448.26ZM317.067 440.49V456H319.617V447.24C319.617 446.54 319.707 445.9 319.887 445.32C320.087 444.72 320.377 444.2 320.757 443.76C321.137 443.32 321.607 442.98 322.167 442.74C322.747 442.5 323.427 442.38 324.207 442.38C325.187 442.38 325.957 442.66 326.517 443.22C327.077 443.78 327.357 444.54 327.357 445.5V456H329.907V445.8C329.907 444.96 329.817 444.2 329.637 443.52C329.477 442.82 329.187 442.22 328.767 441.72C328.347 441.22 327.797 440.83 327.117 440.55C326.437 440.27 325.587 440.13 324.567 440.13C322.267 440.13 320.587 441.07 319.527 442.95H319.467V440.49H317.067ZM334.037 452.67V456H337.367V452.67H334.037ZM337.127 441.18V434.58H334.277V441.18L335.027 450.51H336.377L337.127 441.18Z" fill="white"/>
</svg>
