<svg fill="none" viewBox="0 0 181 181"><path fill="#fff" d="M0 0h181v181H0z"/><path fill="#769FD1" fill-rule="evenodd" d="M31.892 91.926c0-31.771 26.22-57.516 58.568-57.516 32.347 0 58.557 25.745 58.557 57.516 0 31.771-26.22 57.515-58.557 57.515-32.338 0-58.568-25.744-58.568-57.515z" clip-rule="evenodd"/><path stroke="#fff" stroke-linecap="round" stroke-linejoin="round" stroke-width="2" d="M120.734 62.855S106.648 44.502 84.039 50.72c-23.197 6.39-31.782 27.524-31.782 27.524l51.439 52.085s11.8-6.219 19.333-15.066c7.534-8.848 7.867-22.934 7.867-22.934l-21.952.657"/><path fill="#fff" fill-rule="evenodd" stroke="#fff" stroke-linecap="round" stroke-linejoin="round" d="M48.334 92.664l41.66 40.305s-19.414 1.547-29.82-8.524c-10.404-10.071-11.84-31.781-11.84-31.781z" clip-rule="evenodd"/></svg>