<svg xmlns="http://www.w3.org/2000/svg" width="179" height="179" fill="none" viewBox="0 0 179 179"><rect width="179" height="179" fill="#fff"/><path fill="#F96132" fill-rule="evenodd" stroke="#F96132" stroke-linecap="round" stroke-linejoin="round" d="M36.46 93.3402C35.24 104.04 31.88 127.58 50.07 130.02C57.79 131.02 127.86 126.81 127.86 126.81C127.86 126.81 133.03 52.9801 130.31 47.3401C123.73 33.7301 109.21 34.0401 109.21 34.0401C109.21 34.0401 84 33.8901 75.44 40.3001C56.67 54.3801 39.11 70.1802 36.46 93.3402Z" clip-rule="evenodd"/><path fill="#E24F0D" fill-rule="evenodd" d="M38.5599 90.51C38.5599 90.51 34.4999 112.19 39.2299 122.6C43.9599 133.01 57.4899 132.13 57.4899 132.13L38.5599 90.51Z" clip-rule="evenodd"/><path fill="#E24F0D" fill-rule="evenodd" d="M67.8301 95.8799L60.8301 130.88L129.05 127.52L84.2001 123.89L102.86 106.84L67.8301 95.8799Z" clip-rule="evenodd"/><path fill="#E24F0D" fill-rule="evenodd" d="M103.15 104.34L95.6899 79.8401L97.1699 71.6901L127.05 68.8901L120.34 85.6701L124.23 122.33L103.15 104.34Z" clip-rule="evenodd"/><path fill="#E24F0D" fill-rule="evenodd" d="M102.61 45.38L131 69C131 69 132.7 49.38 130.34 46.19C121.89 34.79 111.66 35.96 111.66 35.96L109.66 40.66L102.61 45.38Z" clip-rule="evenodd"/><path fill="#E24F0D" fill-rule="evenodd" stroke="#fff" stroke-linecap="round" stroke-linejoin="round" d="M67 46.3099C83.9 33.7799 98.19 32.8099 98.92 44.1499C99.65 55.4899 86.56 74.8299 69.67 87.3699C52.78 99.9099 38.48 100.87 37.74 89.53C37 78.19 50.14 58.8499 67 46.3099Z" clip-rule="evenodd"/><path fill="#fff" fill-rule="evenodd" d="M83.71 75.36L95.5699 80.63L99.5099 49.49L83.71 75.36Z" clip-rule="evenodd"/><path fill="#fff" fill-rule="evenodd" d="M99.15 41.6401L110.26 52.0001L99.4 50.0001L99.15 41.6401Z" clip-rule="evenodd"/><path fill="#fff" fill-rule="evenodd" d="M57.88 94.8L65.98 104.59L70.32 86.52L57.88 94.8Z" clip-rule="evenodd"/></svg>