<svg fill="none" viewBox="0 0 179 179"><path fill="#fff" d="M0 0h179v179H0z"/><path fill="#454545" fill-rule="evenodd" stroke="#454545" stroke-linecap="round" stroke-linejoin="round" stroke-width="1.14" d="M18.61 97.76l-.39-25 14.64-9.06 16.28 8.86.31 24.25-11.66-5.52c.252-3.618.283-7.248.09-10.87-.48-4.25-8.87-3.7-9 .45-.1 2.67.3 9.89.3 9.89l-10.57 7z" clip-rule="evenodd"/><path fill="#85BD5B" fill-rule="evenodd" stroke="#85BD5B" stroke-linecap="round" stroke-linejoin="round" stroke-width="1.14" d="M55.41 73.11v18.55l16.78 7.68 14-9.19L86 72.84l-15.46-9.28-15.13 9.55z" clip-rule="evenodd"/><path fill="#454545" fill-rule="evenodd" stroke="#454545" stroke-linecap="round" stroke-linejoin="round" stroke-width="1.14" d="M113.21 42.81l-.56 22.35-5.33-2.62-13.2 8.67.56 20.12 13.6 8.35 16.14-9.78.4-41.52-11.61-5.57zm-4.46 31.9a5.997 5.997 0 015.628 3.62 5.995 5.995 0 01-1.223 6.579 6 6 0 01-10.285-4.199 5.923 5.923 0 013.608-5.53 5.92 5.92 0 012.272-.47zm36.68 23.4l-15.68-8.35.14-17.91 16.19-9.93 14.38 7.77.22 7.84-9.71 5.33-1.44-7.2a11.83 11.83 0 00-5.9-.86c-3.27.4-4.46 4.86-1.8 8.85 2.66 3.99 12.45 7.12 12.45 7.12l-8.85 7.34z" clip-rule="evenodd"/><path fill="#85BD5B" fill-rule="evenodd" stroke="#85BD5B" stroke-linecap="round" stroke-linejoin="round" stroke-width="1.14" d="M144.89 81a.837.837 0 011.008-.823.838.838 0 01.605 1.151.836.836 0 01-.783.512.83.83 0 01-.83-.84z" clip-rule="evenodd"/><path stroke="#85BD5B" stroke-linecap="round" stroke-linejoin="round" d="M83.5 107.92s0 14.3-.44 15c-3 4.88-8.47-.19-8.47-.19l.07-16.56 14.07-8.37 13.36 7.79.44 18.14-15.36 7.34-2.85-2"/><path stroke="#85BD5B" stroke-linecap="round" stroke-linejoin="round" d="M97.55 110.18s-2.16-3.92-4.35-3.51c-5.7 1.07-5.94 5.13-3.61 6.79 2.33 1.66 9.51-.42 8.61 4.15-.72 3.66-9.93 2.21-9.93 2.21l-.47-2.51"/><path stroke="#85BD5B" stroke-linecap="round" stroke-linejoin="round" d="M107.75 105.69a1.244 1.244 0 011.235-1.129 1.24 1.24 0 011.235 1.129 1.244 1.244 0 01-1.235 1.129 1.24 1.24 0 01-1.235-1.129z" clip-rule="evenodd"/></svg>