<svg fill="none" viewBox="0 0 179 179"><path fill="#fff" d="M0 0h179v179H0z"/><path fill="#769FD1" fill-rule="evenodd" stroke="#fff" stroke-linecap="round" stroke-linejoin="round" stroke-width="1.14" d="M20.13 86.55c0-21.72 30.6-39.33 68.33-39.33s68.33 17.61 68.33 39.33-30.59 39.32-68.33 39.32c-37.74 0-68.33-17.61-68.33-39.32z" clip-rule="evenodd"/><path stroke="#35416B" stroke-linecap="round" stroke-linejoin="round" stroke-width="1.14" d="M88.3 47.22s24.6-.7 41.64 7.92 23.53 15.85 26.55 26.55c2.86 10.11-2.52 21.76-22.39 34-11 6.73-38.75 11.08-38.75 11.08"/><path fill="#35416B" fill-rule="evenodd" stroke="#fff" stroke-linecap="round" stroke-linejoin="round" stroke-width=".8" d="M48.06 70.16L43.87 110l7.62.69 1.1-11.53c4.142.503 8.336.378 12.44-.37 3.64-.68 9.69-6.7 10.2-12.81.41-4.94-1.85-15.3-6.66-16.19-4.47-.79-20.51.37-20.51.37zm62.12-1.61l-4.44 39.87 8.08.69L115 97.58a46.75 46.75 0 0013.21-.37c3.86-.68 10.28-6.7 10.82-12.81.44-4.94-2-15.3-7.06-16.19-4.77-.83-21.79.34-21.79.34zm-28.66-9.99l-4.07 40.51 7.43-.31s1.93-20.86 2.75-22.69c.44-1 10.2-1.48 10.28-.21.2 3.26-1.22 23.41-1.22 23.41h7.63s1.41-20.56 1.22-28.9c-.1-4.48-17-2.45-17-2.45l.51-9.26-7.53-.1z" clip-rule="evenodd"/><path fill="#769FD1" fill-rule="evenodd" stroke="#fff" stroke-linecap="round" stroke-linejoin="round" stroke-width="1.14" d="M55.77 78.14s9.9-1.65 10.91.64c1.01 2.29 1 7.42-.53 10.91S54.49 92 54.49 92l1.28-13.86zm63.08-2.71s9.9-1.65 10.91.64c1.01 2.29 1 7.42-.53 10.91s-11.66 2.29-11.66 2.29l1.28-13.84z" clip-rule="evenodd"/></svg>