<svg fill="none" viewBox="0 0 179 179"><path fill="#fff" d="M0 0h179v179H0z"/><path fill="#F7C455" fill-rule="evenodd" d="M30.56 32.44h115.79v116.94H30.56V32.44z" clip-rule="evenodd"/><path fill="#454545" fill-rule="evenodd" d="M81.85 84.88l11.92.59v40.81s-1.64 14.21-15.49 13.55A24.724 24.724 0 0159.51 130l9.09-6.4s5.62 6.07 8.78 5.81c3.16-.26 3.88-6.55 3.88-6.55l.59-37.98zM125.17 98l9.16-6s-7.51-9.21-15.44-8.84c-7.93.37-15.43 3-16.93 10.06-1.07 5-1.71 9.75 4 16.83 5.71 7.08 14.71 6.56 18.1 11.29 3.39 4.73-.23 7.06-4.55 7.62-4.32.56-12.17-6.59-12.17-6.59l-7.64 6.29s7.3 8.87 15.79 10.28c8.49 1.41 24.14-3.14 22.49-18.77-.79-7.48-12.21-11.46-12.21-11.46s-9.91-3.79-12-7.29 1-6.52 3.46-7.11c2.46-.59 7.94 3.69 7.94 3.69z" clip-rule="evenodd"/></svg>