<svg fill="none" viewBox="0 0 179 179"><path fill="#fff" d="M0 0h179v179H0z"/><path fill="#454545" fill-rule="evenodd" d="M30.72 86.91c0-32.89 26.29-59.56 58.73-59.56s58.73 26.67 58.73 59.56-26.3 59.56-58.73 59.56c-32.43 0-58.73-26.67-58.73-59.56z" clip-rule="evenodd"/><path fill="#fff" fill-rule="evenodd" d="M52 83a3.81 3.81 0 01-.56 1.91 4.56 4.56 0 01-1.51 1.58c.298.2.573.43.82.69.242.26.46.541.65.84.18.286.328.591.44.91.106.299.16.613.16.93v8.22a.78.78 0 00.29.69c.219.135.473.202.73.19a3.38 3.38 0 00.65-.17c.485-.15.962-.323 1.43-.52v3.22a6.964 6.964 0 01-1.55.7c-.26.08-.5.14-.72.19a3.553 3.553 0 01-.6.06 5.832 5.832 0 01-1.84-.28 3.938 3.938 0 01-1.38-.81 3.41 3.41 0 01-.87-1.22 3.94 3.94 0 01-.3-1.56v-7.79a6.612 6.612 0 00-.06-.84 3.997 3.997 0 00-.19-.87 1.86 1.86 0 00-.42-.67 1 1 0 00-.71-.27H44.9v-3.39h1.57a1 1 0 00.71-.27 1.74 1.74 0 00.42-.68 4 4 0 00.19-.86 6.77 6.77 0 00.06-.83v-7.83a3.901 3.901 0 01.3-1.53 3.49 3.49 0 01.87-1.24 4.28 4.28 0 011.38-.82 5.3 5.3 0 011.84-.3c.202.007.402.03.6.07.22.05.46.12.72.2.27.083.535.187.79.31.262.12.515.258.76.41v3.34c-.6-.29-1.08-.5-1.43-.64a3.112 3.112 0 00-.65-.21 1.15 1.15 0 00-.73.22.84.84 0 00-.29.7L52 83zm26.6 13.94a6.826 6.826 0 01-.9.48 3.749 3.749 0 01-1.23.34h-.37a3.071 3.071 0 01-1.16-.22 3 3 0 01-.92-.61 4.698 4.698 0 01-.69-.89 6.464 6.464 0 01-.48-1.07 13.8 13.8 0 01-1.5 1.37 7.22 7.22 0 01-1.39.85 5.24 5.24 0 01-1.38.44c-.471.09-.95.133-1.43.13a6.642 6.642 0 01-2.25-.38 5.272 5.272 0 01-1.82-1.08 4.941 4.941 0 01-1.23-1.68 5.23 5.23 0 01-.45-2.19 3.4 3.4 0 01.47-1.8c.32-.516.738-.964 1.23-1.32a8.159 8.159 0 011.75-1c.65-.27 1.32-.52 2-.73l2-.63a15.011 15.011 0 001.74-.64 4.54 4.54 0 001.24-.75 1.27 1.27 0 00.47-1 1.5 1.5 0 00-.3-1 2.219 2.219 0 00-.74-.61 3.484 3.484 0 00-1-.35 5.82 5.82 0 00-1.09-.1 3.93 3.93 0 00-1.06.15 3 3 0 00-1 .46 2.888 2.888 0 00-.73.82 3.14 3.14 0 00-.39 1.2h-4.21a5.999 5.999 0 012.45-4.63 7.369 7.369 0 012.3-1.13 9.549 9.549 0 012.6-.37 11.71 11.71 0 012.76.32 6.869 6.869 0 012.32 1 4.93 4.93 0 012.21 4.32v8.71a1 1 0 00.23.65.8.8 0 00.67.29h.37a2.49 2.49 0 00.88-.34l.03 2.99zm-6.31-8.13a5.133 5.133 0 01-1.06.44l-1.41.39c-.51.14-1 .28-1.53.44-.477.14-.942.317-1.39.53-.373.184-.711.43-1 .73a1.383 1.383 0 00-.4 1c-.008.32.053.637.18.93.107.246.268.464.47.64.194.162.418.285.66.36.24.076.489.113.74.11a4.52 4.52 0 002.48-.82 7.55 7.55 0 002.27-2.48l-.01-2.27zm13.48-9.35h4.16v2c.25-.408.56-.775.92-1.09a5.15 5.15 0 011.07-.72 4.732 4.732 0 011.13-.39c.355-.08.716-.124 1.08-.13a6.64 6.64 0 013.11.73 7.11 7.11 0 012.33 2 9.191 9.191 0 011.48 3c.347 1.178.519 2.401.51 3.63a14.232 14.232 0 01-.45 3.64 9.29 9.29 0 01-1.35 3 6.73 6.73 0 01-2.23 2 6.29 6.29 0 01-3.08.74 4.81 4.81 0 01-1.24-.17 5.49 5.49 0 01-2.35-1.3 6.218 6.218 0 01-.93-1.11v8.91h-4.16V79.46zm4.16 9.17c.021.738.118 1.472.29 2.19.15.632.4 1.236.74 1.79.289.48.677.893 1.14 1.21a2.78 2.78 0 001.54.44 2.84 2.84 0 001.6-.47 3.901 3.901 0 001.19-1.26 6.242 6.242 0 00.74-1.86 11 11 0 000-4.57 6.301 6.301 0 00-.74-1.87 3.7 3.7 0 00-1.19-1.26 2.83 2.83 0 00-1.6-.46 2.73 2.73 0 00-1.57.46 3.75 3.75 0 00-1.17 1.26 6.57 6.57 0 00-.72 1.87 10.34 10.34 0 00-.25 2.28v.25zm24.35-15.81V77h-4.16v-4.15l4.16-.03zm0 6.64v18h-4.16v-18h4.16zm10.35 10.37c.01-.652.2-1.29.55-1.84a4.85 4.85 0 011.46-1.53 4.54 4.54 0 01-1.47-1.58 3.872 3.872 0 01-.54-1.91v-8.22a.805.805 0 00-.3-.7 1.22 1.22 0 00-.76-.22c-.732.214-1.442.499-2.12.85v-3.34a7.292 7.292 0 011.56-.73 4.583 4.583 0 011.35-.26 5.358 5.358 0 011.85.3c.509.182.977.46 1.38.82a3.5 3.5 0 01.87 1.24 3.9 3.9 0 01.3 1.53v7.83a6.385 6.385 0 000 .83c.035.293.102.582.2.86.089.257.236.49.43.68a.992.992 0 00.73.27h1.55v3.39h-1.55a.995.995 0 00-.73.27 1.87 1.87 0 00-.43.67 3.995 3.995 0 00-.2.87 6.54 6.54 0 000 .84v7.79a3.938 3.938 0 01-.3 1.56 3.409 3.409 0 01-.87 1.22c-.398.364-.868.64-1.38.81a5.894 5.894 0 01-1.85.28 4.538 4.538 0 01-1.35-.25 7.611 7.611 0 01-1.56-.7v-3.22l1.48.51c.208.078.422.138.64.18a1.36 1.36 0 00.76-.19.758.758 0 00.3-.69v-8.22z" clip-rule="evenodd"/></svg>