<svg fill="none" viewBox="0 0 179 179"><path fill="#fff" d="M0 0h179v179H0z"/><path fill="#454545" fill-rule="evenodd" d="M131 70.07c2-2.28-6.51-12.26-16.22-13.77-9.71-1.51-22.6 7.7-22.6 7.7s-11.69-8.52-21.44-7.76C60.99 57 53.2 67.02 53.2 67.02s-10.25 14.25-4 39.13c4.42 17.49 13.68 26.4 21.56 30.83 7.66 4.3 17.49-3.46 21.48-2.7 3.51.66 6.43 6.13 18.14 4.53 4.75-.64 18.57-5.18 24.83-26.45.7-2.36-13.52-8.42-14.57-19-1.05-10.58 9.75-22.53 10.36-23.29z" clip-rule="evenodd"/><path fill="#454545" fill-rule="evenodd" d="M90.64 59.12s-4.75-7.17 4.84-16.59c10.21-10 16.43-8.82 16.43-8.82s2.7 7.54-6 16.6c-11.38 11.93-15.27 8.81-15.27 8.81z" clip-rule="evenodd"/></svg>