<svg fill="none" viewBox="0 0 179 179"><path fill="#fff" d="M0 0h179v179H0z"/><path fill="#85BD5B" fill-rule="evenodd" stroke="#85BD5B" stroke-linecap="round" stroke-linejoin="round" stroke-width="1.14" d="M60.85 74.38l-.33 41.67a4.599 4.599 0 004.59 4.65l49 .16a5.09 5.09 0 003.668-1.515 5.095 5.095 0 001.472-3.685l-.72-42.27a4.732 4.732 0 00-4.78-4.65l-47.7.45a5.24 5.24 0 00-5.2 5.19zm1.05-9.68l55.65-.3s-1.8-24.65-29.18-24.15C60.05 40.77 61.9 64.7 61.9 64.7z" clip-rule="evenodd"/><path fill="#85BD5B" fill-rule="evenodd" d="M73.8 43.05s-5.71-11.68-4.94-12.1c.77-.42 8 10.41 8 10.41" clip-rule="evenodd"/><path stroke="#85BD5B" stroke-linecap="round" stroke-linejoin="round" stroke-width="1.14" d="M73.8 43.05s-5.71-11.68-4.94-12.1c.77-.42 8 10.41 8 10.41"/><path fill="#85BD5B" fill-rule="evenodd" d="M101.05 41.26s8.2-10.09 8.91-9.56c.71.53-6.07 11.68-6.07 11.68" clip-rule="evenodd"/><path stroke="#85BD5B" stroke-linecap="round" stroke-linejoin="round" stroke-width="1.14" d="M101.05 41.26s8.2-10.09 8.91-9.56c.71.53-6.07 11.68-6.07 11.68"/><path fill="#85BD5B" fill-rule="evenodd" stroke="#85BD5B" stroke-linecap="round" stroke-linejoin="round" stroke-width="1.14" d="M49.88 68.37a4.46 4.46 0 014.46 4.45v31.94a4.46 4.46 0 01-4.46 4.45 4.449 4.449 0 01-4.45-4.45V72.82a4.45 4.45 0 014.45-4.45zm79.12.46a4.458 4.458 0 014.46 4.46v31.93a4.462 4.462 0 01-2.753 4.121 4.462 4.462 0 01-1.707.339 4.461 4.461 0 01-4.45-4.46V73.29a4.461 4.461 0 014.45-4.46zm-50.08 32.75a4.461 4.461 0 014.46 4.45V138a4.46 4.46 0 01-7.607 3.147A4.459 4.459 0 0174.47 138v-32a4.45 4.45 0 014.45-4.42zm23.26.42a4.442 4.442 0 014.114 2.754c.223.541.337 1.121.336 1.706v31.93c0 1.18-.469 2.312-1.303 3.147a4.454 4.454 0 01-6.297 0 4.46 4.46 0 01-1.31-3.147V106.5a4.462 4.462 0 014.46-4.5z" clip-rule="evenodd"/><path fill="#fff" fill-rule="evenodd" stroke="#85BD5B" stroke-linecap="round" stroke-linejoin="round" stroke-width="1.14" d="M71.34 59.52a3.88 3.88 0 113.88 3.76 3.822 3.822 0 01-3.88-3.76zm27.54-.12a3.88 3.88 0 113.88 3.76 3.83 3.83 0 01-3.88-3.76z" clip-rule="evenodd"/></svg>