<svg xmlns="http://www.w3.org/2000/svg" width="179" height="179" fill="none" viewBox="0 0 179 179"><rect width="179" height="179" fill="#fff"/><path fill="#769FD1" fill-rule="evenodd" stroke="#fff" stroke-linecap="round" stroke-linejoin="round" stroke-width="1.14" d="M20.13 86.55C20.13 64.83 50.73 47.22 88.46 47.22C126.19 47.22 156.79 64.83 156.79 86.55C156.79 108.27 126.2 125.87 88.46 125.87C50.72 125.87 20.13 108.26 20.13 86.55Z" clip-rule="evenodd"/><path stroke="#35416B" stroke-linecap="round" stroke-linejoin="round" stroke-width="1.14" d="M88.3 47.22C88.3 47.22 112.9 46.52 129.94 55.14C146.98 63.76 153.47 70.99 156.49 81.69C159.35 91.8 153.97 103.45 134.1 115.69C123.1 122.42 95.35 126.77 95.35 126.77"/><path fill="#35416B" fill-rule="evenodd" stroke="#fff" stroke-linecap="round" stroke-linejoin="round" stroke-width=".8" d="M48.06 70.1599L43.87 110L51.49 110.69L52.59 99.1599C56.7317 99.6628 60.9256 99.538 65.03 98.7899C68.67 98.1099 74.72 92.0899 75.23 85.9799C75.64 81.0399 73.38 70.6799 68.57 69.7899C64.1 68.9999 48.06 70.1599 48.06 70.1599Z" clip-rule="evenodd"/><path fill="#35416B" fill-rule="evenodd" stroke="#fff" stroke-linecap="round" stroke-linejoin="round" stroke-width=".8" d="M110.18 68.5501L105.74 108.42L113.82 109.11L115 97.5801C119.399 98.0829 123.846 97.9583 128.21 97.2101C132.07 96.5301 138.49 90.5101 139.03 84.4001C139.47 79.4601 137.03 69.1001 131.97 68.2101C127.2 67.3801 110.18 68.5501 110.18 68.5501Z" clip-rule="evenodd"/><path fill="#35416B" fill-rule="evenodd" stroke="#fff" stroke-linecap="round" stroke-linejoin="round" stroke-width=".8" d="M81.52 58.5601L77.45 99.0701L84.8799 98.7601C84.8799 98.7601 86.8099 77.9001 87.6299 76.0701C88.0699 75.0701 97.8299 74.59 97.9099 75.8601C98.1099 79.1201 96.6899 99.2701 96.6899 99.2701H104.32C104.32 99.2701 105.73 78.7101 105.54 70.3701C105.44 65.8901 88.5399 67.92 88.5399 67.92L89.0499 58.6601L81.52 58.5601Z" clip-rule="evenodd"/><path fill="#769FD1" fill-rule="evenodd" stroke="#fff" stroke-linecap="round" stroke-linejoin="round" stroke-width="1.14" d="M55.77 78.14C55.77 78.14 65.67 76.49 66.68 78.78C67.69 81.07 67.68 86.1999 66.15 89.6899C64.62 93.1799 54.49 91.9999 54.49 91.9999L55.77 78.14Z" clip-rule="evenodd"/><path fill="#769FD1" fill-rule="evenodd" stroke="#fff" stroke-linecap="round" stroke-linejoin="round" stroke-width="1.14" d="M118.85 75.43C118.85 75.43 128.75 73.78 129.76 76.07C130.77 78.36 130.76 83.49 129.23 86.98C127.7 90.47 117.57 89.27 117.57 89.27L118.85 75.43Z" clip-rule="evenodd"/></svg>