<svg fill="none" viewBox="0 0 179 179"><path fill="#fff" d="M0 0h179v179H0z"/><path fill="#F96132" fill-rule="evenodd" stroke="#F96132" stroke-linecap="round" stroke-linejoin="round" d="M36.46 93.34c-1.22 10.7-4.58 34.24 13.61 36.68 7.72 1 77.79-3.21 77.79-3.21s5.17-73.83 2.45-79.47c-6.58-13.61-21.1-13.3-21.1-13.3S84 33.89 75.44 40.3C56.67 54.38 39.11 70.18 36.46 93.34z" clip-rule="evenodd"/><path fill="#E24F0D" fill-rule="evenodd" d="M38.56 90.51s-4.06 21.68.67 32.09c4.73 10.41 18.26 9.53 18.26 9.53L38.56 90.51zm29.27 5.37l-7 35 68.22-3.36-44.85-3.63 18.66-17.05-35.03-10.96zm35.32 8.46l-7.46-24.5 1.48-8.15 29.88-2.8-6.71 16.78 3.89 36.66-21.08-17.99zm-.54-58.96L131 69s1.7-19.62-.66-22.81c-8.45-11.4-18.68-10.23-18.68-10.23l-2 4.7-7.05 4.72z" clip-rule="evenodd"/><path fill="#E24F0D" fill-rule="evenodd" stroke="#fff" stroke-linecap="round" stroke-linejoin="round" d="M67 46.31c16.9-12.53 31.19-13.5 31.92-2.16.73 11.34-12.36 30.68-29.25 43.22s-31.19 13.5-31.93 2.16C37 78.19 50.14 58.85 67 46.31z" clip-rule="evenodd"/><path fill="#fff" fill-rule="evenodd" d="M83.71 75.36l11.86 5.27 3.94-31.14-15.8 25.87z" clip-rule="evenodd"/><path fill="#fff" fill-rule="evenodd" d="M99.15 41.64L110.26 52 99.4 50l-.25-8.36zM57.88 94.8l8.1 9.79 4.34-18.07-12.44 8.28z" clip-rule="evenodd"/></svg>