<svg xmlns="http://www.w3.org/2000/svg" width="179" height="179" fill="none" viewBox="0 0 179 179"><rect width="179" height="179" fill="#fff"/><path fill="#85BD5B" fill-rule="evenodd" stroke="#85BD5B" stroke-linecap="round" stroke-linejoin="round" stroke-width="1.14" d="M60.85 74.38L60.52 116.05C60.5134 116.657 60.6272 117.26 60.8548 117.823C61.0824 118.387 61.4193 118.899 61.846 119.332C62.2728 119.764 62.7809 120.107 63.3412 120.342C63.9014 120.577 64.5025 120.699 65.11 120.7L114.11 120.86C114.792 120.866 115.467 120.734 116.097 120.474C116.727 120.214 117.299 119.83 117.778 119.345C118.257 118.861 118.634 118.285 118.887 117.652C119.14 117.019 119.263 116.341 119.25 115.66L118.53 73.39C118.509 72.1408 117.994 70.9506 117.099 70.0794C116.203 69.2081 114.999 68.7266 113.75 68.74L66.05 69.19C64.6758 69.2005 63.3607 69.7503 62.3881 70.7211C61.4154 71.6919 60.8631 73.0059 60.85 74.38Z" clip-rule="evenodd"/><path fill="#85BD5B" fill-rule="evenodd" stroke="#85BD5B" stroke-linecap="round" stroke-linejoin="round" stroke-width="1.14" d="M61.9001 64.7L117.55 64.4C117.55 64.4 115.75 39.7499 88.37 40.2499C60.05 40.7699 61.9001 64.7 61.9001 64.7Z" clip-rule="evenodd"/><path fill="#85BD5B" fill-rule="evenodd" d="M73.8 43.0501C73.8 43.0501 68.09 31.3701 68.86 30.9501C69.63 30.5301 76.86 41.3601 76.86 41.3601" clip-rule="evenodd"/><path stroke="#85BD5B" stroke-linecap="round" stroke-linejoin="round" stroke-width="1.14" d="M73.8 43.0501C73.8 43.0501 68.09 31.3701 68.86 30.9501C69.63 30.5301 76.86 41.3601 76.86 41.3601"/><path fill="#85BD5B" fill-rule="evenodd" d="M101.05 41.2601C101.05 41.2601 109.25 31.1701 109.96 31.7001C110.67 32.2301 103.89 43.3801 103.89 43.3801" clip-rule="evenodd"/><path stroke="#85BD5B" stroke-linecap="round" stroke-linejoin="round" stroke-width="1.14" d="M101.05 41.2601C101.05 41.2601 109.25 31.1701 109.96 31.7001C110.67 32.2301 103.89 43.3801 103.89 43.3801"/><path fill="#85BD5B" fill-rule="evenodd" stroke="#85BD5B" stroke-linecap="round" stroke-linejoin="round" stroke-width="1.14" d="M49.8801 68.3699C51.0612 68.3699 52.1941 68.8384 53.0302 69.6727C53.8663 70.5069 54.3374 71.6388 54.3401 72.8199V104.76C54.3374 105.941 53.8663 107.073 53.0302 107.907C52.1941 108.741 51.0612 109.21 49.8801 109.21C48.6999 109.21 47.568 108.741 46.7335 107.906C45.8989 107.072 45.4301 105.94 45.4301 104.76V72.8199C45.4301 72.2355 45.5452 71.6568 45.7688 71.1169C45.9924 70.577 46.3202 70.0865 46.7335 69.6733C47.1467 69.2601 47.6372 68.9323 48.1771 68.7086C48.717 68.485 49.2957 68.3699 49.8801 68.3699Z" clip-rule="evenodd"/><path fill="#85BD5B" fill-rule="evenodd" stroke="#85BD5B" stroke-linecap="round" stroke-linejoin="round" stroke-width="1.14" d="M129 68.8301C129.586 68.8301 130.166 68.9454 130.707 69.1696C131.248 69.3937 131.74 69.7222 132.154 70.1364C132.568 70.5505 132.896 71.0422 133.121 71.5833C133.345 72.1244 133.46 72.7043 133.46 73.29V105.22C133.46 105.806 133.345 106.386 133.121 106.927C132.896 107.468 132.568 107.96 132.154 108.374C131.74 108.788 131.248 109.116 130.707 109.341C130.166 109.565 129.586 109.68 129 109.68C127.819 109.677 126.687 109.206 125.853 108.37C125.019 107.534 124.55 106.401 124.55 105.22V73.29C124.55 72.1089 125.019 70.976 125.853 70.1399C126.687 69.3038 127.819 68.8327 129 68.8301Z" clip-rule="evenodd"/><path fill="#85BD5B" fill-rule="evenodd" stroke="#85BD5B" stroke-linecap="round" stroke-linejoin="round" stroke-width="1.14" d="M78.92 101.58C80.1011 101.58 81.2341 102.049 82.0702 102.883C82.9063 103.717 83.3774 104.849 83.38 106.03V138C83.3774 139.181 82.9063 140.313 82.0702 141.147C81.2341 141.982 80.1011 142.45 78.92 142.45C78.3356 142.45 77.7569 142.335 77.217 142.111C76.6771 141.888 76.1866 141.56 75.7734 141.147C75.3602 140.733 75.0323 140.243 74.8087 139.703C74.5851 139.163 74.47 138.584 74.47 138V106C74.4779 104.825 74.9503 103.701 75.7839 102.873C76.6176 102.045 77.745 101.58 78.92 101.58Z" clip-rule="evenodd"/><path fill="#85BD5B" fill-rule="evenodd" stroke="#85BD5B" stroke-linecap="round" stroke-linejoin="round" stroke-width="1.14" d="M102.18 102C102.765 102 103.345 102.115 103.885 102.34C104.426 102.564 104.917 102.893 105.33 103.307C105.744 103.721 106.071 104.213 106.294 104.754C106.517 105.295 106.631 105.875 106.63 106.46V138.39C106.63 139.57 106.161 140.702 105.327 141.537C104.492 142.371 103.36 142.84 102.18 142.84C100.999 142.84 99.866 142.371 99.0299 141.537C98.1938 140.703 97.7227 139.571 97.72 138.39V106.5C97.7147 105.911 97.8263 105.327 98.048 104.781C98.2698 104.235 98.5975 103.739 99.0121 103.32C99.4268 102.902 99.9202 102.57 100.464 102.343C101.008 102.117 101.591 102 102.18 102Z" clip-rule="evenodd"/><path fill="#fff" fill-rule="evenodd" stroke="#85BD5B" stroke-linecap="round" stroke-linejoin="round" stroke-width="1.14" d="M71.34 59.52C71.3161 58.748 71.5232 57.9863 71.9347 57.3327C72.3463 56.679 72.9436 56.1631 73.6501 55.851C74.3567 55.5388 75.1403 55.4446 75.9007 55.5805C76.661 55.7164 77.3635 56.0762 77.9182 56.6137C78.4729 57.1512 78.8546 57.8421 79.0143 58.5979C79.174 59.3536 79.1045 60.1398 78.8147 60.8558C78.5249 61.5718 78.0279 62.185 77.3875 62.6168C76.7471 63.0487 75.9924 63.2797 75.2199 63.2801C74.7183 63.288 74.22 63.197 73.7535 63.0124C73.287 62.8277 72.8614 62.5529 72.5011 62.2038C72.1408 61.8546 71.8528 61.4379 71.6536 60.9774C71.4544 60.5169 71.3478 60.0217 71.34 59.52Z" clip-rule="evenodd"/><path fill="#fff" fill-rule="evenodd" stroke="#85BD5B" stroke-linecap="round" stroke-linejoin="round" stroke-width="1.14" d="M98.88 59.3999C98.8561 58.6279 99.0633 57.8662 99.4748 57.2126C99.8864 56.5589 100.484 56.043 101.19 55.7309C101.897 55.4187 102.68 55.3245 103.441 55.4604C104.201 55.5963 104.904 55.956 105.458 56.4936C106.013 57.0311 106.395 57.722 106.554 58.4777C106.714 59.2335 106.645 60.0197 106.355 60.7357C106.065 61.4517 105.568 62.0648 104.928 62.4967C104.287 62.9286 103.532 63.1595 102.76 63.1599C101.748 63.1733 100.771 62.7853 100.044 62.0807C99.3169 61.376 98.8984 60.4122 98.88 59.3999Z" clip-rule="evenodd"/></svg>