<svg fill="none" viewBox="0 0 179 179"><g clip-path="url(#clip0)"><path fill="#fff" d="M0 0h179v179H0z"/><path fill="#F7A501" fill-rule="evenodd" d="M122.87 59.33S126 86.66 111 87.72C96 88.78 73.57 90 73.57 90s-11.82 1.6-12.17 17.81c-.35 16.21-1.24 25.77 1.76 29.56 3.35 4.23 4.73 8 22.34 8.15 17.61.15 26.4-1.75 32.75-9.91 2.47-3.17-.33-15.79-.33-15.79l-28-.42.34-3.87s37.51.36 47.2-1.93c7.23-1.71 11.27-14.85 10.91-28.89-.67-28.02-25.5-25.38-25.5-25.38zm-16.71 66.6c1.358 0 2.66.539 3.62 1.5a5.116 5.116 0 010 7.24 5.116 5.116 0 01-7.24 0 5.116 5.116 0 010-7.24 5.116 5.116 0 013.62-1.5z" clip-rule="evenodd"/><path fill="#769FD1" fill-rule="evenodd" d="M55.67 114S52.91 86.63 67.9 85.78c14.99-.85 37.48-1.78 37.48-1.78s11.85-1.44 12.42-17.64c.57-16.2 1.59-25.75-1.36-29.58-3.28-4.27-4.61-8-22.22-8.45-17.61-.45-26.43 1.38-32.89 9.46-2.51 3.13.12 15.79.12 15.79l28 .8-.39 3.86s-37.5-.87-47.22 1.29c-7.26 1.61-11.47 14.69-11.31 28.73.28 28.05 25.14 25.74 25.14 25.74zm17.62-66.36a5.12 5.12 0 11.14-10.24 5.12 5.12 0 01-.14 10.24z" clip-rule="evenodd"/></g><defs><clipPath id="clip0"><path fill="#fff" d="M0 0h179v179H0z"/></clipPath></defs></svg>