<svg fill="none" viewBox="0 0 181 181"><path fill="#fff" d="M0 0h181v181H0z"/><path fill="#769FD1" fill-rule="evenodd" d="M92.715 35.391c17.614 0 31.892 13.63 31.892 30.447v47.879c0 16.815-14.278 30.446-31.892 30.446-17.615 0-31.903-13.631-31.903-30.446v-47.92c0-16.816 14.288-30.406 31.903-30.406z" clip-rule="evenodd"/><path fill="#fff" fill-rule="evenodd" d="M93.402 72.804h4.611v4.41h-4.61v-4.41z" clip-rule="evenodd"/><path fill="#769FD1" fill-rule="evenodd" d="M55.483 49.436a8.757 8.757 0 1117.514 0 8.757 8.757 0 01-17.514 0zm55.402-.9a8.759 8.759 0 0114.949-6.192 8.756 8.756 0 11-14.949 6.192z" clip-rule="evenodd"/><path fill="#F7C455" fill-rule="evenodd" d="M73.482 130.583a4.49 4.49 0 01.222 6.33l-5.713 6.117a4.477 4.477 0 01-7.75-2.893 4.455 4.455 0 011.208-3.204l5.713-6.128a4.484 4.484 0 013.114-1.421 4.476 4.476 0 013.206 1.199zm41.134-.202a4.481 4.481 0 016.32-.354l6.239 5.592a4.476 4.476 0 01-5.976 6.663l-6.229-5.592a4.467 4.467 0 01-.354-6.309zM65.291 84.13a4.48 4.48 0 01.223 6.33L59.8 96.526a4.469 4.469 0 01-7.34-1.194 4.47 4.47 0 01.797-4.904l5.714-6.128a4.47 4.47 0 016.32-.171z" clip-rule="evenodd"/><path fill="#fff" fill-rule="evenodd" d="M88.093 72.865h4.611v4.278h-4.61v-4.278z" clip-rule="evenodd"/><path fill="#F7C455" fill-rule="evenodd" d="M101.117 70.721c0 1.365-1.739 2.498-3.974 2.518l-7.573.091c-2.235 0-4.045-1.072-4.126-2.437 0-1.375 1.75-2.497 3.984-2.528l7.574-.08c2.184-.02 4.024 1.071 4.115 2.436zm18.879 15.563a4.478 4.478 0 016.259-.95L133 90.297a4.48 4.48 0 01.95 6.26 4.478 4.478 0 01-6.259.95l-6.745-4.975a4.467 4.467 0 01-1.769-2.928 4.476 4.476 0 01.819-3.321z" clip-rule="evenodd"/><path fill="#fff" fill-rule="evenodd" d="M74.523 55.716a7.906 7.906 0 117.898 7.806 7.844 7.844 0 01-7.898-7.806zm19.567-.567a7.907 7.907 0 117.907 7.807 7.855 7.855 0 01-7.907-7.807z" clip-rule="evenodd"/><path fill="#35416B" fill-rule="evenodd" d="M89.903 65.362a2.861 2.861 0 115.723 0 2.861 2.861 0 01-5.723 0zm-27.089-15.38a2.862 2.862 0 115.724 0 2.862 2.862 0 01-5.724 0zm54.209-1.314a2.864 2.864 0 011.767-2.644 2.86 2.86 0 111.095 5.505 2.856 2.856 0 01-2.647-1.765 2.864 2.864 0 01-.215-1.096zm-42.196 7.159a5.126 5.126 0 115.126 5.056 5.055 5.055 0 01-5.126-5.056zm19.627-.637a5.127 5.127 0 115.126 5.056 5.057 5.057 0 01-5.126-5.056z" clip-rule="evenodd"/></svg>