<svg xmlns="http://www.w3.org/2000/svg" width="181" height="181" fill="none" viewBox="0 0 181 181"><rect width="181" height="181" fill="#fff"/><path fill="#769FD1" fill-rule="evenodd" d="M92.7145 35.3911C110.329 35.3911 124.607 49.0217 124.607 65.8375V113.717C124.607 130.532 110.329 144.163 92.7145 144.163C75.0999 144.163 60.812 130.532 60.812 113.717V65.7971C60.812 48.9813 75.0999 35.3911 92.7145 35.3911Z" clip-rule="evenodd"/><path fill="#fff" fill-rule="evenodd" d="M93.4021 72.8044H98.013V77.2131H93.4021V72.8044Z" clip-rule="evenodd"/><path fill="#769FD1" fill-rule="evenodd" d="M55.483 49.4362C55.483 47.7043 55.9966 46.0113 56.9588 44.5712C57.921 43.1312 59.2886 42.0088 60.8887 41.346C62.4888 40.6832 64.2495 40.5098 65.9482 40.8477C67.6468 41.1856 69.2071 42.0196 70.4318 43.2442C71.6564 44.4689 72.4904 46.0292 72.8283 47.7279C73.1662 49.4265 72.9928 51.1872 72.33 52.7873C71.6672 54.3874 70.5448 55.755 69.1048 56.7172C67.6648 57.6794 65.9717 58.193 64.2398 58.193C61.9174 58.193 59.69 57.2704 58.0478 55.6282C56.4056 53.986 55.483 51.7587 55.483 49.4362Z" clip-rule="evenodd"/><path fill="#769FD1" fill-rule="evenodd" d="M110.885 48.5363C110.885 46.8044 111.399 45.1113 112.361 43.6713C113.323 42.2312 114.691 41.1089 116.291 40.4461C117.891 39.7833 119.652 39.6099 121.35 39.9478C123.049 40.2857 124.609 41.1197 125.834 42.3443C127.059 43.569 127.893 45.1293 128.231 46.8279C128.568 48.5266 128.395 50.2873 127.732 51.8874C127.069 53.4874 125.947 54.855 124.507 55.8173C123.067 56.7795 121.374 57.293 119.642 57.293C117.32 57.293 115.092 56.3705 113.45 54.7283C111.808 53.086 110.885 50.8587 110.885 48.5363Z" clip-rule="evenodd"/><path fill="#F7C455" fill-rule="evenodd" d="M73.482 130.583C74.3482 131.394 74.858 132.516 74.8997 133.702C74.9413 134.888 74.5116 136.043 73.7044 136.913L67.9913 143.03C67.1813 143.899 66.0594 144.411 64.8724 144.452C63.6854 144.494 62.5303 144.063 61.6613 143.253C61.231 142.853 60.8841 142.371 60.6403 141.837C60.3966 141.302 60.261 140.724 60.2413 140.137C60.2216 139.55 60.3181 138.964 60.5254 138.415C60.7326 137.865 61.0465 137.361 61.449 136.933L67.1621 130.805C67.5623 130.376 68.0433 130.029 68.5776 129.785C69.1119 129.541 69.689 129.405 70.2759 129.384C70.8629 129.364 71.4481 129.459 71.9982 129.665C72.5483 129.87 73.0525 130.182 73.482 130.583Z" clip-rule="evenodd"/><path fill="#F7C455" fill-rule="evenodd" d="M114.616 130.381C115.408 129.497 116.518 128.963 117.703 128.896C118.888 128.83 120.051 129.237 120.936 130.027L127.175 135.619C128.058 136.412 128.59 137.523 128.654 138.707C128.719 139.892 128.311 141.054 127.519 141.938C126.726 142.821 125.615 143.353 124.43 143.418C123.245 143.482 122.083 143.074 121.199 142.282L114.97 136.69C114.087 135.901 113.553 134.792 113.487 133.609C113.421 132.426 113.827 131.264 114.616 130.381Z" clip-rule="evenodd"/><path fill="#F7C455" fill-rule="evenodd" d="M65.2914 84.1296C66.1601 84.9396 66.6716 86.0614 66.7133 87.2484C66.755 88.4355 66.3236 89.5905 65.5139 90.4595L59.8008 96.5266C59.4006 96.9564 58.9196 97.3031 58.3853 97.5469C57.851 97.7907 57.2739 97.9269 56.6869 97.9475C56.1 97.9682 55.5148 97.873 54.9647 97.6673C54.4146 97.4617 53.9104 97.1496 53.4809 96.749C53.0511 96.3488 52.7043 95.8678 52.4605 95.3335C52.2167 94.7992 52.0806 94.2221 52.0599 93.6352C52.0392 93.0482 52.1344 92.463 52.3401 91.9129C52.5457 91.3628 52.8578 90.8586 53.2584 90.4291L58.9716 84.3014C59.3752 83.8751 59.8588 83.5324 60.3949 83.293C60.931 83.0536 61.509 82.9222 62.0959 82.9062C62.6828 82.8902 63.267 82.9901 63.8153 83.2C64.3636 83.4099 64.8652 83.7257 65.2914 84.1296Z" clip-rule="evenodd"/><path fill="#fff" fill-rule="evenodd" d="M88.0934 72.8652H92.7043V77.1425H88.0934V72.8652Z" clip-rule="evenodd"/><path fill="#F7C455" fill-rule="evenodd" d="M101.117 70.7214C101.117 72.0864 99.3781 73.2189 97.1434 73.2392L89.5697 73.3302C87.335 73.3302 85.525 72.2583 85.4441 70.8932C85.4441 69.518 87.1934 68.3956 89.4281 68.3653L97.0018 68.2845C99.1859 68.2642 101.026 69.3563 101.117 70.7214Z" clip-rule="evenodd"/><path fill="#F7C455" fill-rule="evenodd" d="M119.996 86.2836C120.7 85.3282 121.755 84.6914 122.929 84.5132C124.102 84.335 125.299 84.6299 126.255 85.3331L133 90.2979C133.955 91.0024 134.592 92.0573 134.77 93.2309C134.948 94.4044 134.653 95.6008 133.95 96.5571C133.246 97.5125 132.191 98.1493 131.017 98.3275C129.844 98.5057 128.647 98.2108 127.691 97.5076L120.946 92.5326C120.474 92.1848 120.074 91.7471 119.771 91.2448C119.467 90.7425 119.265 90.1853 119.177 89.605C119.089 89.0247 119.116 88.4327 119.256 87.8628C119.397 87.2929 119.648 86.7563 119.996 86.2836Z" clip-rule="evenodd"/><path fill="#fff" fill-rule="evenodd" d="M74.5235 55.7157C74.5034 54.1472 74.9503 52.6082 75.8074 51.2944C76.6644 49.9806 77.8928 48.9514 79.3364 48.3376C80.78 47.7239 82.3735 47.5534 83.9143 47.8478C85.4551 48.1422 86.8734 48.8882 87.989 49.991C89.1046 51.0937 89.8671 52.5034 90.1793 54.0406C90.4916 55.5779 90.3396 57.1732 89.7426 58.6239C89.1456 60.0745 88.1307 61.3148 86.8269 62.187C85.5231 63.0592 83.9894 63.5239 82.4207 63.522C81.3894 63.5287 80.3669 63.332 79.4117 62.9431C78.4565 62.5543 77.5873 61.981 76.8539 61.256C76.1204 60.531 75.5371 59.6685 75.1372 58.7179C74.7373 57.7672 74.5288 56.7471 74.5235 55.7157Z" clip-rule="evenodd"/><path fill="#fff" fill-rule="evenodd" d="M94.0898 55.1494C94.0697 53.5813 94.5164 52.0427 95.373 50.7291C96.2296 49.4155 97.4574 48.3862 98.9004 47.7722C100.343 47.1582 101.936 46.9871 103.477 47.2807C105.017 47.5743 106.436 48.3193 107.552 49.421C108.668 50.5228 109.431 51.9314 109.744 53.468C110.058 55.0046 109.907 56.5997 109.312 58.0505C108.716 59.5013 107.703 60.7422 106.401 61.6156C105.098 62.489 103.565 62.9555 101.997 62.9556C100.965 62.9623 99.9424 62.7657 98.9866 62.377C98.0308 61.9883 97.1609 61.4151 96.4267 60.6902C95.6924 59.9653 95.1081 59.1029 94.7071 58.1522C94.3061 57.2015 94.0964 56.1811 94.0898 55.1494Z" clip-rule="evenodd"/><path fill="#35416B" fill-rule="evenodd" d="M89.9034 65.3621C89.9034 64.7962 90.0713 64.2429 90.3858 63.7723C90.7002 63.3017 91.1471 62.9349 91.67 62.7183C92.1929 62.5017 92.7683 62.4451 93.3234 62.5555C93.8785 62.6659 94.3883 62.9385 94.7885 63.3387C95.1888 63.7389 95.4613 64.2487 95.5717 64.8038C95.6822 65.3589 95.6255 65.9343 95.4089 66.4572C95.1923 66.9801 94.8255 67.427 94.3549 67.7414C93.8843 68.0559 93.3311 68.2237 92.7651 68.2237C92.3893 68.2237 92.0172 68.1497 91.67 68.0059C91.3228 67.8621 91.0074 67.6513 90.7416 67.3856C90.4759 67.1199 90.2651 66.8044 90.1213 66.4572C89.9775 66.11 89.9034 65.7379 89.9034 65.3621Z" clip-rule="evenodd"/><path fill="#35416B" fill-rule="evenodd" d="M62.8141 49.9822C62.8141 49.4162 62.9819 48.863 63.2963 48.3924C63.6108 47.9218 64.0577 47.555 64.5806 47.3384C65.1035 47.1218 65.6789 47.0652 66.234 47.1756C66.7891 47.286 67.299 47.5585 67.6992 47.9588C68.0994 48.359 68.372 48.8688 68.4824 49.4239C68.5928 49.979 68.5361 50.5544 68.3195 51.0773C68.1029 51.6002 67.7361 52.0471 67.2656 52.3616C66.795 52.676 66.2417 52.8438 65.6757 52.8438C64.9168 52.8438 64.1889 52.5424 63.6523 52.0057C63.1156 51.469 62.8141 50.7412 62.8141 49.9822Z" clip-rule="evenodd"/><path fill="#35416B" fill-rule="evenodd" d="M117.023 48.6678C117.023 48.1018 117.191 47.5485 117.505 47.078C117.82 46.6074 118.267 46.2406 118.79 46.024C119.313 45.8074 119.888 45.7507 120.443 45.8611C120.998 45.9716 121.508 46.2441 121.908 46.6443C122.308 47.0445 122.581 47.5544 122.691 48.1095C122.802 48.6646 122.745 49.24 122.529 49.7629C122.312 50.2858 121.945 50.7327 121.475 51.0471C121.004 51.3616 120.451 51.5294 119.885 51.5294C119.509 51.5307 119.136 51.4576 118.788 51.3143C118.44 51.171 118.124 50.9602 117.858 50.6942C117.592 50.4282 117.382 50.1123 117.238 49.7645C117.095 49.4167 117.022 49.044 117.023 48.6678Z" clip-rule="evenodd"/><path fill="#35416B" fill-rule="evenodd" d="M74.8268 55.8269C74.8127 54.81 75.1014 53.8119 75.6561 52.9596C76.2109 52.1073 77.0066 51.4392 77.942 51.0403C78.8775 50.6414 79.9104 50.5297 80.9095 50.7194C81.9086 50.9092 82.8286 51.3918 83.5527 52.1058C84.2768 52.8199 84.7722 53.7332 84.9758 54.7296C85.1794 55.7259 85.0821 56.7603 84.6962 57.7012C84.3103 58.6421 83.6534 59.447 82.8088 60.0136C81.9643 60.5801 80.9704 60.8826 79.9534 60.8827C79.2836 60.8921 78.6185 60.7682 77.9969 60.5183C77.3753 60.2685 76.8096 59.8975 76.3326 59.4271C75.8556 58.9567 75.4768 58.3962 75.2183 57.7781C74.9598 57.16 74.8267 56.4968 74.8268 55.8269Z" clip-rule="evenodd"/><path fill="#35416B" fill-rule="evenodd" d="M94.4536 55.1899C94.4396 54.173 94.7283 53.175 95.283 52.3226C95.8378 51.4703 96.6334 50.8022 97.5688 50.4033C98.5043 50.0044 99.5372 49.8927 100.536 50.0825C101.535 50.2722 102.456 50.7548 103.18 51.4689C103.904 52.183 104.399 53.0963 104.603 54.0926C104.806 55.089 104.709 56.1234 104.323 57.0643C103.937 58.0052 103.28 58.8101 102.436 59.3766C101.591 59.9431 100.597 60.2457 99.5803 60.2458C98.9104 60.2551 98.2454 60.1313 97.6238 59.8814C97.0022 59.6315 96.4364 59.2606 95.9594 58.7902C95.4824 58.3197 95.1036 57.7592 94.8451 57.1411C94.5867 56.5231 94.4535 55.8598 94.4536 55.1899Z" clip-rule="evenodd"/></svg>