<svg xmlns="http://www.w3.org/2000/svg" fill="none" viewBox="0 0 87 37">
  <path fill="#fff" fill-rule="evenodd"
    d="M86.913 19.167c0-6.153-2.98-11.009-8.677-11.009-5.719 0-9.181 4.856-9.181 10.96 0 7.234 4.085 10.887 9.95 10.887 2.86 0 5.023-.648 6.657-1.562v-4.807c-1.634.818-3.509 1.322-5.888 1.322-2.332 0-4.398-.818-4.663-3.653h11.75c0-.314.049-1.562.049-2.139l.003.001ZM75.05 16.885c0-2.716 1.659-3.845 3.173-3.845 1.466 0 3.029 1.129 3.029 3.845H75.05ZM59.79 8.16c-2.355 0-3.868 1.105-4.71 1.874l-.314-1.49h-5.298v28.023l6.008-1.273.025-6.802c.865.626 2.139 1.514 4.255 1.514 4.302 0 8.219-3.45 8.219-11.08-.024-6.97-3.99-10.768-8.196-10.768l.011.002Zm-1.443 16.56c-1.417 0-2.258-.506-2.836-1.13l-.024-8.917c.625-.698 1.49-1.178 2.86-1.178 2.187 0 3.701 2.452 3.701 5.6 0 3.22-1.49 5.624-3.7 5.624ZM41.202 6.742l6.032-1.296V.568l-6.032 1.274v4.9Zm0 1.826h6.032V29.6h-6.032V8.569Zm-6.466 1.778-.385-1.778H29.16v21.032h6.009V15.347c1.417-1.85 3.82-1.514 4.566-1.25V8.57c-.77-.288-3.58-.817-5 1.778l.002-.001ZM22.719 3.342l-5.864 1.251-.024 19.251c0 3.557 2.669 6.177 6.225 6.177 1.97 0 3.412-.36 4.206-.795v-4.879c-.77.314-4.567 1.418-4.567-2.139v-8.52h4.567V8.57h-4.569l.026-5.227ZM6.473 14.662c0-.938.77-1.296 2.043-1.296 2.079.044 4.118.57 5.959 1.537V9.267c-1.995-.795-3.965-1.105-5.959-1.105-4.88 0-8.123 2.547-8.123 6.801 0 6.634 9.133 5.576 9.133 8.437 0 1.105-.962 1.466-2.307 1.466-1.995 0-4.543-.818-6.562-1.924v5.719A16.636 16.636 0 0 0 7.22 30.02c4.999 0 8.436-2.476 8.436-6.778-.024-7.161-9.182-5.888-9.182-8.58Z"
    clip-rule="evenodd" />
</svg>