<svg fill="none" viewBox="0 0 620 428"><path fill="#fff" fill-rule="evenodd" d="M21.377.145h577.392a21.014 21.014 0 0121.015 21.015v384.845a21.019 21.019 0 01-21.015 21.016H21.376A21.015 21.015 0 01.361 406.005V21.16A21.016 21.016 0 0121.376.145z" clip-rule="evenodd"/><path fill="#DCDCDC" fill-rule="evenodd" d="M607.609 0c6.567 0 11.867 4.216 11.867 9.411v9.97H0V9.528C0 4.275 5.379.033 12.011.033L607.61 0z" clip-rule="evenodd"/><path fill="#FB4F0D" fill-rule="evenodd" d="M9.91 10.245a2.988 2.988 0 112.988 3.047 3.021 3.021 0 01-2.988-3.047z" clip-rule="evenodd"/><path fill="#F7A501" fill-rule="evenodd" d="M20.398 10.18a2.988 2.988 0 112.988 3.053 3.021 3.021 0 01-2.988-3.054z" clip-rule="evenodd"/><path fill="#85BD5B" fill-rule="evenodd" d="M31.267 10.114a2.988 2.988 0 112.988 3.053 3.014 3.014 0 01-2.988-3.053z" clip-rule="evenodd"/><path fill="#F1F3F2" fill-rule="evenodd" d="M55.388 3.796h14.744a2.056 2.056 0 012.062 2.062v7.625a2.062 2.062 0 01-2.062 2.062H55.388a2.062 2.062 0 01-2.062-2.062V5.858a2.055 2.055 0 012.062-2.062zm433.347.749h14.743a2.06 2.06 0 012.062 2.062v7.625a2.061 2.061 0 01-2.062 2.062h-14.743a2.06 2.06 0 01-2.062-2.063V6.608a2.061 2.061 0 012.062-2.062zM79.923 3.632h14.75a2.068 2.068 0 012.063 2.062v7.625a2.062 2.062 0 01-2.063 2.062h-14.75a2.062 2.062 0 01-2.062-2.062V5.694a2.07 2.07 0 012.063-2.062zm433.327.788H528a2.064 2.064 0 012.062 2.062v7.592A2.066 2.066 0 01528 16.136h-14.75a2.069 2.069 0 01-2.062-2.062V6.449a2.063 2.063 0 012.062-2.03zM104.124 3.31h14.743a2.06 2.06 0 012.062 2.062v7.625a2.061 2.061 0 01-2.062 2.062h-14.743a2.07 2.07 0 01-2.069-2.062V5.372a2.07 2.07 0 012.069-2.062zm433.3.755h14.75a2.064 2.064 0 012.063 2.062v7.618a2.067 2.067 0 01-2.063 2.07h-14.75a2.067 2.067 0 01-2.062-2.07V6.127a2.065 2.065 0 012.062-2.062zm52.322-.42h14.743a2.053 2.053 0 012.062 2.062v7.618a2.064 2.064 0 01-2.062 2.069h-14.743a2.064 2.064 0 01-2.062-2.069V5.733a2.04 2.04 0 01.592-1.477 2.058 2.058 0 011.47-.611z" clip-rule="evenodd"/><path fill="#fff" fill-rule="evenodd" d="M157.036 3.612h310.631a4.69 4.69 0 014.597 4.807v2.05a4.687 4.687 0 01-1.298 3.362 4.697 4.697 0 01-3.299 1.451H157.036a4.698 4.698 0 01-4.564-4.814V8.42a4.688 4.688 0 014.564-4.807z" clip-rule="evenodd"/><path fill="#35416B" fill-rule="evenodd" d="M6.029 25.218h104.478v396.884h-83.18c-11.763 0-21.298-9.779-21.298-21.843V25.219z" clip-rule="evenodd"/><path fill="#fff" fill-rule="evenodd" d="M34.373 43.252v8.682l8.432-.059.138-1.766-2.436-.434-2.844-3.053-3.29-3.37z" clip-rule="evenodd"/><path fill="#35416B" fill-rule="evenodd" d="M35.837 49.524a.755.755 0 11.756.788.767.767 0 01-.756-.788z" clip-rule="evenodd"/><path fill="#fff" fill-rule="evenodd" d="M28.403 37.4l.04 4.171 5.004 4.965.04-4.137-5.084-4.998zm-.25 4.894l-.039 3.999 5.412 5.49-.08-4.045-5.292-5.444zm.204 5.424v4.15l4.21.08-4.21-4.23z" clip-rule="evenodd"/><path fill="#fff" fill-rule="evenodd" d="M23.34 37.296l-.04 4.236 5.05 5.017.066-3.98-.302-.308-4.774-4.965zm-.059 5.214v3.987l5.116 5.339v-4.118L23.28 42.51zm-.026 5.3v4.137l4.17-.039-4.17-4.098z" clip-rule="evenodd"/><path fill="#fff" fill-rule="evenodd" d="M18.145 37.44v4.118l5.149 5.011V42.51l-5.149-5.07zm.06 5.07l5.102 5.36-.052 4.012-5.156-5.405.105-3.967zm-.112 5.372v4.033h4.223l-4.223-4.033z" clip-rule="evenodd"/><path fill="#454545" fill-rule="evenodd" d="M306.218 11.263a.658.658 0 00.538-.276 1.26 1.26 0 00.217-.808 1.454 1.454 0 00-.099-.565.696.696 0 00-1.313 0 2.003 2.003 0 00-.092.657c-.004.186.027.37.092.545a.661.661 0 00.657.447zm-1.196-2.424h.454v.362c.08-.116.183-.214.302-.29a.95.95 0 01.545-.157 1.035 1.035 0 01.794.361c.236.288.353.654.329 1.025a1.57 1.57 0 01-.473 1.313 1.045 1.045 0 01-.69.243.912.912 0 01-.518-.138c-.107-.07-.2-.16-.276-.262V12.7h-.467V8.839zm4.052 2.437a.658.658 0 00.657-.348 1.79 1.79 0 00.171-.775 1.397 1.397 0 00-.125-.624.652.652 0 00-.657-.38.655.655 0 00-.617.321 1.463 1.463 0 00-.19.781c-.009.257.057.51.19.73a.659.659 0 00.571.295zm0-2.528a1.233 1.233 0 01.894.348 1.371 1.371 0 01.367 1.044 1.78 1.78 0 01-.321 1.097 1.178 1.178 0 01-1.005.433 1.138 1.138 0 01-.9-.38 1.511 1.511 0 01-.335-1.032c-.02-.399.106-.791.355-1.103a1.16 1.16 0 01.965-.407h-.02zm2.109 1.963c.002.127.041.25.111.355a.745.745 0 00.604.223.926.926 0 00.454-.111.378.378 0 00.197-.348.291.291 0 00-.158-.27 1.875 1.875 0 00-.394-.131l-.368-.092a1.795 1.795 0 01-.519-.197.588.588 0 01-.295-.519.813.813 0 01.276-.657 1.14 1.14 0 01.755-.236 1.06 1.06 0 01.9.361.79.79 0 01.164.5h-.434a.54.54 0 00-.111-.283.66.66 0 00-.552-.184.658.658 0 00-.394.098.313.313 0 00-.138.263.327.327 0 00.177.29c.095.052.197.09.303.11l.308.08a2.4 2.4 0 01.657.23.614.614 0 01.269.558.848.848 0 01-.276.656 1.18 1.18 0 01-.847.27 1.137 1.137 0 01-.867-.276 1.085 1.085 0 01-.276-.69h.454zm2.443-2.653h.466v.768h.44v.375h-.44v1.786a.19.19 0 00.098.19.372.372 0 00.178.033h.164v.368l-.171.033h-.184a.506.506 0 01-.44-.17.746.746 0 01-.111-.428V9.194h-.375V8.82h.375v-.762zm1.366-.27h.459v1.406a1.33 1.33 0 01.296-.289.997.997 0 01.558-.15.823.823 0 01.808.42c.092.206.132.431.118.656v1.76h-.466V9.858a.95.95 0 00-.079-.44.5.5 0 00-.473-.23.79.79 0 00-.519.197.958.958 0 00-.236.748v1.458h-.46l-.006-3.802zm4.012 3.488a.654.654 0 00.657-.348 1.79 1.79 0 00.171-.775c.01-.215-.033-.43-.125-.624a.658.658 0 00-.657-.38.657.657 0 00-.617.321 1.473 1.473 0 00-.191.781c-.009.257.057.51.191.73a.658.658 0 00.571.295zm0-2.528a1.218 1.218 0 01.893.348 1.374 1.374 0 01.368 1.044 1.78 1.78 0 01-.322 1.097 1.178 1.178 0 01-1.005.433 1.133 1.133 0 01-.899-.38 1.506 1.506 0 01-.335-1.032 1.631 1.631 0 01.354-1.103 1.174 1.174 0 01.966-.407h-.02zm2.798.026a1 1 0 01.565.158c.102.073.193.162.269.262v-.348h.427v2.502c.013.285-.041.568-.158.828a1.095 1.095 0 01-1.084.558 1.316 1.316 0 01-.742-.197.792.792 0 01-.341-.624h.466a.541.541 0 00.138.283.661.661 0 00.493.157.654.654 0 00.696-.374 2.1 2.1 0 00.085-.788.917.917 0 01-.328.308c-.162.078-.34.114-.519.105a1.11 1.11 0 01-.782-.315 1.407 1.407 0 01-.334-1.05 1.59 1.59 0 01.334-1.078 1.073 1.073 0 01.815-.387zm.834 1.412a1.155 1.155 0 00-.21-.755.656.656 0 00-.539-.25.653.653 0 00-.657.46c-.075.21-.108.433-.098.657-.015.25.051.5.19.709a.617.617 0 00.506.243.715.715 0 00.703-.453 1.5 1.5 0 00.105-.611zm1.235.801h.532v.558h-.532v-.558zm2.403-2.24c.27-.013.536.066.755.224a1.072 1.072 0 01.355.775h-.453a.8.8 0 00-.184-.42.602.602 0 00-.473-.171.654.654 0 00-.657.433 1.737 1.737 0 00-.124.657c-.007.244.054.485.177.696a.596.596 0 00.551.282.593.593 0 00.454-.177.933.933 0 00.229-.48h.454a1.242 1.242 0 01-.388.802 1.214 1.214 0 01-.788.25 1.052 1.052 0 01-.86-.395 1.526 1.526 0 01-.322-.985 1.646 1.646 0 01.355-1.123 1.129 1.129 0 01.919-.367zm2.66 2.53a.655.655 0 00.657-.349 1.79 1.79 0 00.17-.775c.01-.215-.032-.43-.125-.624a.656.656 0 00-.656-.38.657.657 0 00-.618.321 1.534 1.534 0 00-.19.782c-.009.256.057.51.19.729a.659.659 0 00.572.295zm0-2.53a1.224 1.224 0 01.893.349c.131.138.231.303.294.483.064.18.089.37.074.561a1.78 1.78 0 01-.322 1.097 1.178 1.178 0 01-1.005.433 1.138 1.138 0 01-.9-.38 1.517 1.517 0 01-.335-1.032c-.02-.399.106-.791.355-1.103a1.177 1.177 0 01.966-.407h-.02zm1.832.08h.453v.387a1.39 1.39 0 01.302-.296.881.881 0 01.519-.157.79.79 0 01.526.164.745.745 0 01.203.27c.093-.137.217-.25.361-.33.148-.068.31-.104.473-.104a.764.764 0 01.749.4c.08.182.118.38.112.578v1.833h-.48V9.674a.43.43 0 00-.138-.375.524.524 0 00-.335-.105.657.657 0 00-.466.184.803.803 0 00-.163.285.8.8 0 00-.034.326v1.596h-.473V9.792a.901.901 0 00-.066-.407.401.401 0 00-.394-.197.694.694 0 00-.472.203.976.976 0 00-.217.736v1.458h-.46V8.827z" clip-rule="evenodd"/><path stroke="#454545" stroke-linecap="round" stroke-linejoin="round" stroke-width="2" d="M64.865 6.771l-3.79 2.995 3.855 2.423m21.14-5.346l4.072 2.627-4.144 2.804"/><path fill="#fff" fill-rule="evenodd" d="M38.602 62.14h.769v4.978h2.883v.657h-3.632l-.02-5.635zm4.82 4.558a.585.585 0 00.224.473.78.78 0 00.519.17c.247.002.49-.057.71-.17a.952.952 0 00.577-.92v-.558a1.177 1.177 0 01-.328.138 4.66 4.66 0 01-.394.079l-.42.052c-.197.017-.389.07-.565.158a.657.657 0 00-.322.578zm1.682-1.399a.407.407 0 00.322-.204.656.656 0 00.046-.262.57.57 0 00-.256-.519 1.354 1.354 0 00-.723-.158.912.912 0 00-.768.296.932.932 0 00-.164.48h-.657a1.2 1.2 0 01.5-1.065 2.036 2.036 0 011.102-.295c.41-.018.817.078 1.176.276a.94.94 0 01.453.86v2.377a.261.261 0 00.046.171c0 .046.092.066.184.066h.23v.512l-.25.052a1.09 1.09 0 01-.23 0 .578.578 0 01-.518-.249.9.9 0 01-.119-.38 1.786 1.786 0 01-.61.478 1.84 1.84 0 01-.874.204c-.344.01-.68-.114-.932-.348a1.161 1.161 0 01-.368-.873 1.111 1.111 0 01.361-.887 1.68 1.68 0 01.94-.388l1.109-.144zm2.863-1.629v2.739c-.008.177.028.353.105.512a.657.657 0 00.657.374.978.978 0 00.985-.656 2.64 2.64 0 00.138-.953v-2.022h.696v4.124h-.657v-.61a1.43 1.43 0 01-.335.4 1.497 1.497 0 01-.958.322 1.234 1.234 0 01-1.202-.592 1.72 1.72 0 01-.178-.84v-2.804l.75.006zm3.691 0h.657v.585c.165-.216.376-.393.617-.52.228-.107.477-.16.729-.157a1.196 1.196 0 011.182.611c.128.303.186.63.17.959v2.627h-.702v-2.627a1.419 1.419 0 00-.111-.604.657.657 0 00-.657-.388 1.394 1.394 0 00-.407.053.999.999 0 00-.5.335.96.96 0 00-.223.427c-.043.202-.06.41-.052.617v2.16h-.697l-.006-4.078zm5.976-.144c.405-.02.803.101 1.13.341a1.592 1.592 0 01.525 1.163h-.657a1.314 1.314 0 00-.282-.657.874.874 0 00-.703-.256.978.978 0 00-.952.657c-.13.33-.193.683-.184 1.037-.01.364.081.723.263 1.038a.913.913 0 00.827.427.932.932 0 00.657-.263c.178-.205.299-.455.348-.722h.657a1.636 1.636 0 01-1.76 1.576 1.575 1.575 0 01-1.314-.591 2.26 2.26 0 01-.48-1.478 2.495 2.495 0 01.526-1.688 1.722 1.722 0 011.399-.584zm2.351-1.406h.657v2.108a2.28 2.28 0 01.44-.44 1.54 1.54 0 01.84-.216 1.24 1.24 0 011.216.624c.126.3.184.626.17.952v2.627h-.696v-2.627a1.406 1.406 0 00-.118-.657.743.743 0 00-.71-.341 1.195 1.195 0 00-.78.295 1.45 1.45 0 00-.349 1.123v2.187h-.657l-.013-5.635zm10.64.02v.657H68.72v4.978h-.782v-4.978h-1.904v-.657h4.59zm1.365 5.208a.958.958 0 00.946-.525c.174-.36.261-.756.256-1.156a2.043 2.043 0 00-.184-.94 1.043 1.043 0 00-1.011-.57.992.992 0 00-.92.485c-.2.357-.3.76-.289 1.17a1.97 1.97 0 00.29 1.096 1.012 1.012 0 00.912.44zm.033-3.796c.49-.002.962.19 1.313.532a2.094 2.094 0 01.546 1.563 2.627 2.627 0 01-.487 1.648 1.747 1.747 0 01-1.503.657 1.708 1.708 0 01-1.314-.578 2.26 2.26 0 01-.499-1.543 2.43 2.43 0 01.525-1.655 1.754 1.754 0 011.419-.65v.026zm4.38 3.796a.96.96 0 00.946-.525c.174-.36.262-.756.256-1.156a2.035 2.035 0 00-.19-.94 1.024 1.024 0 00-1.012-.545 1.01 1.01 0 00-.925.486c-.2.357-.3.76-.29 1.17a1.97 1.97 0 00.29 1.096 1.018 1.018 0 00.925.414zm0-3.796c.491-.002.963.189 1.314.532a2.07 2.07 0 01.552 1.563 2.698 2.698 0 01-.486 1.648 1.753 1.753 0 01-1.504.657 1.707 1.707 0 01-1.353-.578 2.259 2.259 0 01-.5-1.543 2.463 2.463 0 01.526-1.655 1.773 1.773 0 011.451-.65v.026zm2.739-1.412h.69v5.655h-.69V62.14zm1.675-.02h.656v2.063c.143-.191.33-.344.546-.447.203-.102.428-.156.656-.158a1.62 1.62 0 011.248.526c.35.442.521 1 .48 1.563a2.667 2.667 0 01-.473 1.622 1.537 1.537 0 01-1.314.657 1.31 1.31 0 01-.788-.23 1.84 1.84 0 01-.414-.427v.525h-.656l.059-5.694zm1.806 5.195a.932.932 0 00.84-.446c.2-.361.295-.77.276-1.183a1.97 1.97 0 00-.276-1.077.926.926 0 00-.82-.426 1.15 1.15 0 00-.835.354 1.563 1.563 0 00-.354 1.15 2.7 2.7 0 00.144.945 1.017 1.017 0 001.025.683zm3.165-.617a.578.578 0 00.217.473.808.808 0 00.519.17c.246.003.49-.056.709-.17a.946.946 0 00.578-.92v-.558c-.102.064-.212.11-.329.138l-.387.079-.42.052c-.197.016-.389.07-.565.158a.61.61 0 00-.322.578zm1.675-1.4a.386.386 0 00.322-.203.571.571 0 00.045-.262.584.584 0 00-.25-.52 1.373 1.373 0 00-.721-.157.913.913 0 00-.769.296.92.92 0 00-.17.48h-.657a1.202 1.202 0 01.492-1.065c.333-.2.715-.303 1.104-.295.411-.018.82.077 1.182.275a.94.94 0 01.453.86v2.378a.3.3 0 00.04.171c0 .046.091.066.19.066h.223v.512l-.243.052a1.177 1.177 0 01-.23 0 .571.571 0 01-.519-.25 1 1 0 01-.125-.38c-.163.203-.37.366-.604.48-.27.138-.57.207-.873.203a1.313 1.313 0 01-.94-.348 1.155 1.155 0 01-.36-.873 1.123 1.123 0 01.354-.887c.266-.222.594-.358.94-.388l1.116-.144zm2.193-1.628h.657v.716a1.53 1.53 0 01.394-.506 1.01 1.01 0 01.729-.302h.223v.736h-.23a.978.978 0 00-.801.335 1.15 1.15 0 00-.282.775v2.37h-.697l.007-4.124zm3.014-1.53h.808V64l-.19 2.45h-.394L92.697 64l-.027-1.859zm0 4.853h.762v.802h-.762v-.802zm-52.387 18.71a2.14 2.14 0 00.657-.078c.304-.103.564-.307.736-.578.165-.269.275-.568.322-.88.038-.195.057-.393.059-.591a2.779 2.779 0 00-.414-1.629 1.551 1.551 0 00-1.313-.584h-1.426v4.34h1.38zm-2.134-4.997h2.286a2.16 2.16 0 011.812.827c.399.556.6 1.228.572 1.912a3.842 3.842 0 01-.336 1.628 2.095 2.095 0 01-2.055 1.314h-2.279v-5.681zm6.075 4.558a.578.578 0 00.217.473.847.847 0 00.518.17c.246.001.49-.055.71-.164a.959.959 0 00.578-.926v-.551a1.104 1.104 0 01-.329.13 3.14 3.14 0 01-.394.08l-.414.052c-.198.017-.392.07-.571.158a.617.617 0 00-.315.578zm1.674-1.4a.388.388 0 00.322-.203.572.572 0 00.046-.262.566.566 0 00-.25-.513c-.22-.123-.47-.18-.722-.164a.912.912 0 00-.768.296c-.1.14-.16.306-.17.48h-.658a1.189 1.189 0 01.493-1.058c.33-.205.714-.31 1.103-.302.412-.018.821.077 1.182.275a.939.939 0 01.453.867v2.371c-.003.06.01.119.04.17 0 .047.092.067.19.067h.224v.512c-.105.033-.19.046-.243.059h-.23a.573.573 0 01-.519-.25.996.996 0 01-.125-.38 1.76 1.76 0 01-.604.479c-.27.138-.57.208-.873.203a1.313 1.313 0 01-.94-.348 1.156 1.156 0 01-.36-.873 1.122 1.122 0 01.354-.887c.266-.222.594-.357.939-.387l1.116-.151zm2.594 1.203a.98.98 0 00.178.532 1.078 1.078 0 00.906.334c.23.002.457-.057.657-.17a.545.545 0 00.289-.513.44.44 0 00-.23-.407 2.675 2.675 0 00-.598-.197l-.545-.138a2.763 2.763 0 01-.781-.289.887.887 0 01-.447-.781 1.21 1.21 0 01.42-.946 1.687 1.687 0 011.137-.361 1.58 1.58 0 011.346.545c.164.215.251.478.25.749h-.657a.781.781 0 00-.165-.427 1.044 1.044 0 00-.827-.276c-.21-.013-.419.04-.597.151a.465.465 0 00-.198.394.48.48 0 00.263.434c.142.078.295.135.453.17l.46.112c.348.065.685.182.998.348a.926.926 0 01.407.834 1.269 1.269 0 01-.42.952 1.766 1.766 0 01-1.274.4 1.686 1.686 0 01-1.313-.42 1.572 1.572 0 01-.408-1.03h.697zm3.475-4.381h.656v2.056c.14-.193.326-.348.539-.454.214-.106.45-.16.69-.157a1.603 1.603 0 011.247.532c.352.44.523.996.48 1.556a2.666 2.666 0 01-.473 1.622 1.536 1.536 0 01-1.314.657 1.353 1.353 0 01-.794-.23 1.83 1.83 0 01-.407-.427v.526h-.657l.033-5.681zm1.8 5.195a.946.946 0 00.846-.447c.2-.36.295-.77.276-1.182a1.97 1.97 0 00-.276-1.077.938.938 0 00-.827-.427 1.136 1.136 0 00-.828.355 1.565 1.565 0 00-.354 1.15c-.008.322.046.642.157.945a1.019 1.019 0 001.005.657v.026zm4.248.033a.952.952 0 00.946-.52c.173-.362.26-.76.256-1.162a2.134 2.134 0 00-.184-.939 1.045 1.045 0 00-1.011-.571 1.011 1.011 0 00-.926.486c-.2.356-.3.76-.29 1.169a1.97 1.97 0 00.29 1.097 1.018 1.018 0 00.92.44zm0-3.796c.49-.003.963.189 1.314.532a2.07 2.07 0 01.551 1.563 2.7 2.7 0 01-.486 1.648 1.753 1.753 0 01-1.504.657 1.72 1.72 0 01-1.352-.578 2.259 2.259 0 01-.5-1.543 2.463 2.463 0 01.526-1.655 1.773 1.773 0 011.504-.624h-.053zm3.284 3.146a.578.578 0 00.217.473.854.854 0 00.525.17c.244.001.484-.055.703-.164a.959.959 0 00.578-.926v-.551a1.104 1.104 0 01-.329.13l-.387.08-.42.052c-.197.016-.389.07-.566.158a.61.61 0 00-.321.578zm1.681-1.4a.388.388 0 00.315-.203.572.572 0 00.046-.262.565.565 0 00-.25-.513c-.22-.123-.47-.18-.722-.164a.913.913 0 00-.768.296.931.931 0 00-.164.48h-.657a1.189 1.189 0 01.492-1.058 2.02 2.02 0 011.104-.302c.412-.018.82.077 1.182.275a.938.938 0 01.453.867v2.371c-.003.06.01.119.04.17 0 .047.091.067.19.067h.223v.512c-.08.024-.16.043-.243.059h-.23a.579.579 0 01-.519-.25.998.998 0 01-.124-.38 1.76 1.76 0 01-.604.479c-.27.138-.57.208-.874.203a1.313 1.313 0 01-.939-.348 1.156 1.156 0 01-.361-.873 1.122 1.122 0 01.354-.887c.267-.222.594-.357.94-.387l1.116-.151zm2.206-1.628h.657v.716a1.53 1.53 0 01.394-.506 1.01 1.01 0 01.73-.302h.222v.729h-.229a.979.979 0 00-.801.335 1.15 1.15 0 00-.283.775v2.37h-.696l.006-4.117zm3.048 2.108c-.016.39.082.775.282 1.11a.971.971 0 00.9.447.94.94 0 00.788-.414c.23-.352.338-.77.309-1.189.032-.41-.08-.819-.316-1.156a1.005 1.005 0 00-.788-.374 1.076 1.076 0 00-.854.4 1.85 1.85 0 00-.321 1.176zm1.044-2.18c.277-.012.551.06.788.203.163.108.305.243.42.4v-2.081h.657v5.674h-.657v-.571c-.14.23-.34.418-.578.545a1.543 1.543 0 01-1.924-.4 2.273 2.273 0 01-.499-1.544 2.62 2.62 0 01.46-1.556 1.498 1.498 0 011.333-.67zm3.31 2.903c.006.19.068.375.177.531a1.077 1.077 0 00.906.335c.23.002.457-.057.657-.17a.551.551 0 00.296-.513.446.446 0 00-.237-.407 2.465 2.465 0 00-.59-.197l-.552-.138a2.763 2.763 0 01-.782-.289.887.887 0 01-.447-.781 1.189 1.189 0 01.427-.946 1.655 1.655 0 011.13-.361 1.582 1.582 0 011.313.545c.167.214.255.478.25.749h-.657a.782.782 0 00-.164-.427 1.045 1.045 0 00-.827-.276c-.21-.013-.42.04-.598.151a.466.466 0 00-.197.394.48.48 0 00.263.434c.142.077.294.135.453.17l.46.112c.348.063.685.18.998.348a.926.926 0 01.407.834 1.27 1.27 0 01-.42.952 1.76 1.76 0 01-1.268.4 1.695 1.695 0 01-1.313-.42 1.57 1.57 0 01-.407-1.03h.722zm-31.53 22.716h.775v5.654h-.775v-5.654zm1.925 1.53h.656v.585c.165-.217.376-.394.618-.519.228-.106.477-.16.729-.158a1.204 1.204 0 011.189.611c.125.304.18.631.163.959v2.627h-.702v-2.627a1.314 1.314 0 00-.112-.604.654.654 0 00-.657-.388 1.324 1.324 0 00-.4.053.96.96 0 00-.5.335 1.068 1.068 0 00-.23.42 3.112 3.112 0 00-.052.624v2.207h-.656l-.046-4.125zm4.794 2.811c.007.189.066.373.17.532a1.098 1.098 0 00.913.335c.23.001.457-.058.657-.171a.551.551 0 00.29-.519.442.442 0 00-.23-.4 2.627 2.627 0 00-.598-.197l-.545-.138a2.55 2.55 0 01-.782-.296.87.87 0 01-.447-.775 1.208 1.208 0 01.42-.946 1.69 1.69 0 011.137-.361 1.544 1.544 0 011.313.545c.169.213.26.478.256.749h-.656a.784.784 0 00-.164-.427 1.033 1.033 0 00-.384-.228 1.045 1.045 0 00-.444-.048c-.21-.012-.419.04-.597.151a.472.472 0 00-.197.394.485.485 0 00.262.434c.142.078.295.135.453.171l.46.111c.349.065.685.182.998.348a.925.925 0 01.407.834 1.317 1.317 0 01-.42.953 1.793 1.793 0 01-1.274.4 1.715 1.715 0 01-1.313-.42 1.543 1.543 0 01-.408-1.031h.723zm3.526-2.791h.71v4.104h-.71v-4.104zm0-1.55h.71v.781h-.71v-.781zm3.205 1.458c.313-.009.62.08.88.256.153.11.288.243.4.394v-.519h.657v3.75a2.7 2.7 0 01-.236 1.235 1.645 1.645 0 01-1.622.84 2.018 2.018 0 01-1.123-.295 1.162 1.162 0 01-.506-.933h.703c.022.159.09.308.197.427.209.169.474.252.742.23a1.02 1.02 0 001.044-.565c.118-.382.163-.783.132-1.182a1.359 1.359 0 01-.5.473c-.243.11-.508.161-.775.151a1.644 1.644 0 01-1.168-.473 2.08 2.08 0 01-.572-1.563 2.397 2.397 0 01.506-1.622 1.582 1.582 0 011.241-.604zm1.248 2.115a1.708 1.708 0 00-.315-1.13 1.01 1.01 0 00-.802-.374.988.988 0 00-.998.656 2.628 2.628 0 00-.144.959 1.7 1.7 0 00.282 1.064.915.915 0 00.762.361 1.053 1.053 0 001.044-.656 2.11 2.11 0 00.17-.88zm1.681-3.593h.696v2.108c.125-.167.273-.316.44-.44a1.52 1.52 0 01.834-.216 1.226 1.226 0 011.215.623c.132.3.193.626.178.953v2.627h-.71v-2.627a1.404 1.404 0 00-.118-.657.731.731 0 00-.709-.342 1.189 1.189 0 00-.782.296 1.452 1.452 0 00-.348 1.123v2.226h-.696v-5.674zm4.518.421h.703v1.149h.657v.565h-.657v2.692a.292.292 0 00.145.289.667.667 0 00.269.04h.243v.518a1.412 1.412 0 01-.532.046.757.757 0 01-.657-.249 1.13 1.13 0 01-.17-.657v-2.732h-.559v-.565h.558v-1.096zm2.47 3.94c.007.189.066.373.17.532a1.098 1.098 0 00.913.335 1.36 1.36 0 00.657-.171.56.56 0 00.289-.519.435.435 0 00-.236-.4 2.422 2.422 0 00-.591-.197l-.552-.138a2.51 2.51 0 01-.775-.296.87.87 0 01-.447-.775 1.189 1.189 0 01.42-.946 1.69 1.69 0 011.137-.361 1.566 1.566 0 011.313.545c.167.214.255.478.25.749h-.657a.833.833 0 00-.164-.427 1.058 1.058 0 00-.828-.276 1.02 1.02 0 00-.597.151.466.466 0 00-.204.394.496.496 0 00.27.434c.14.08.294.138.453.171l.46.111c.347.066.684.184.998.348a.928.928 0 01.4.834 1.316 1.316 0 01-.414.953 1.808 1.808 0 01-1.274.4 1.715 1.715 0 01-1.313-.42 1.583 1.583 0 01-.414-1.031h.736zm-22.486 17.64h4.124v.689h-3.376v1.714h3.12v.657h-3.12v1.918h3.435v.656h-4.184v-5.634zm5.43 1.53l1.104 3.356 1.15-3.356h.754l-1.556 4.118h-.736l-1.517-4.118h.802zm5.32-.092c.294 0 .585.07.847.204.263.114.49.298.657.532.142.221.236.469.276.729.047.299.067.603.059.906h-3.021c-.005.359.098.711.295 1.011a1.012 1.012 0 00.86.375 1.123 1.123 0 00.868-.355c.122-.138.212-.302.262-.479h.657c-.03.178-.091.35-.184.505-.087.17-.202.323-.341.453a1.601 1.601 0 01-.782.414 2.151 2.151 0 01-.565.066 1.735 1.735 0 01-1.313-.565 2.143 2.143 0 01-.539-1.563 2.4 2.4 0 01.539-1.616 1.779 1.779 0 011.425-.617zm1.103 1.826a1.722 1.722 0 00-.197-.723 1.007 1.007 0 00-.952-.499 1.06 1.06 0 00-.801.342c-.22.241-.34.554-.342.88h2.292zm1.596-1.734h.657v.584c.165-.216.376-.393.617-.518a1.64 1.64 0 01.73-.158 1.192 1.192 0 011.181.611c.131.302.19.63.171.959v2.627h-.729v-2.595a1.469 1.469 0 00-.111-.61.655.655 0 00-.657-.381 1.354 1.354 0 00-.4.046 1.07 1.07 0 00-.507.341 1.048 1.048 0 00-.223.421c-.04.205-.057.414-.052.623v2.155h-.657l-.02-4.105zm4.486-1.149h.702v1.149h.657v.565h-.657v2.692a.284.284 0 00.145.283.565.565 0 00.27.046h.242v.545a1.517 1.517 0 01-.25.052 1.815 1.815 0 01-.275 0 .745.745 0 01-.657-.243 1.1 1.1 0 01-.177-.656v-2.726h-.545v-.565h.558l-.013-1.142zm2.462 3.98a.938.938 0 00.178.525 1.072 1.072 0 00.906.335c.23.004.456-.053.657-.164a.552.552 0 00.295-.519.435.435 0 00-.236-.401 2.512 2.512 0 00-.591-.197l-.552-.138a2.953 2.953 0 01-.781-.295.877.877 0 01-.447-.775 1.177 1.177 0 01.427-.946c.318-.258.72-.389 1.13-.368a1.57 1.57 0 011.313.552c.163.213.25.474.25.742h-.657a.821.821 0 00-.164-.427 1.069 1.069 0 00-.385-.222c-.143-.047-.294-.062-.443-.047a.97.97 0 00-.597.151.467.467 0 00-.198.394.492.492 0 00.263.434c.143.075.295.13.453.164l.46.111c.35.065.686.185.998.355a.93.93 0 01.407.834 1.264 1.264 0 01-.42.952 1.78 1.78 0 01-1.267.394 1.71 1.71 0 01-1.314-.413 1.59 1.59 0 01-.407-1.031h.722zm-20.594 14.671h2.547c.445-.019.88.134 1.215.427a1.534 1.534 0 01.46 1.195c.008.421-.14.83-.413 1.149a1.534 1.534 0 01-1.262.493h-1.78v2.391h-.767v-5.655zm3.447 1.622a.857.857 0 00-.46-.847 1.674 1.674 0 00-.696-.118H42.51v1.97h1.523c.295.011.585-.066.834-.223a.865.865 0 00.322-.782zm3.363-.203c.295.001.585.073.847.21.263.115.49.298.657.532.143.22.237.469.276.729.047.299.067.603.059.906H47.37c-.008.358.098.71.302 1.005a.99.99 0 00.854.381 1.114 1.114 0 00.866-.362 1.18 1.18 0 00.263-.479h.657a1.39 1.39 0 01-.184.506 1.674 1.674 0 01-.342.459 1.577 1.577 0 01-.775.414 2.543 2.543 0 01-.57.059 1.715 1.715 0 01-1.314-.558 2.2 2.2 0 01-.539-1.57 2.386 2.386 0 01.539-1.609 1.795 1.795 0 011.425-.623zm1.103 1.825a1.748 1.748 0 00-.197-.722 1.023 1.023 0 00-.952-.499 1.064 1.064 0 00-.801.348c-.218.239-.34.55-.342.873h2.292zm3.198 1.964a.952.952 0 00.946-.519c.173-.363.26-.76.256-1.162a2.133 2.133 0 00-.184-.939 1.046 1.046 0 00-1.011-.572 1.018 1.018 0 00-.926.486c-.2.357-.3.761-.289 1.169a1.97 1.97 0 00.289 1.097 1.013 1.013 0 00.92.44zm0-3.796a1.863 1.863 0 011.347.532 2.064 2.064 0 01.551 1.563 2.696 2.696 0 01-.486 1.648 1.742 1.742 0 01-1.504.657 1.702 1.702 0 01-1.352-.578 2.26 2.26 0 01-.5-1.543 2.462 2.462 0 01.526-1.655 1.774 1.774 0 011.445-.617l-.027-.007zm4.505 3.776a.989.989 0 00.808-.407c.24-.357.354-.785.322-1.215a2.2 2.2 0 00-.145-.847 1.044 1.044 0 00-1.97.039 2.934 2.934 0 00-.144.979c-.006.278.043.555.144.814a.978.978 0 00.985.637zm-1.793-3.638h.657v.525c.122-.174.276-.323.453-.44.245-.156.53-.236.821-.229a1.523 1.523 0 011.189.538c.353.428.53.976.492 1.53a2.336 2.336 0 01-.709 1.924c-.29.245-.658.376-1.038.368a1.396 1.396 0 01-.781-.203 2.024 2.024 0 01-.414-.394v2.16h-.657l-.013-5.779zm4.42-1.55h.69v5.654h-.69v-5.654zm3.468 1.419c.295.002.585.074.847.21.263.114.49.298.657.532.143.22.237.469.275.729.048.299.068.603.06.906H62.27c-.007.357.097.708.295 1.005a.992.992 0 00.86.381 1.114 1.114 0 00.867-.362 1.18 1.18 0 00.263-.479h.657a1.268 1.268 0 01-.178.506c-.088.17-.204.325-.341.459a1.6 1.6 0 01-.782.414 2.384 2.384 0 01-.564.059 1.715 1.715 0 01-1.314-.558 2.165 2.165 0 01-.538-1.57 2.385 2.385 0 01.538-1.609 1.78 1.78 0 011.419-.623zm1.103 1.825a1.86 1.86 0 00-.197-.722 1.023 1.023 0 00-.952-.499 1.064 1.064 0 00-.801.348c-.218.239-.34.55-.342.873h2.292zM40.94 169.989h4.118v.696h-3.376v1.714h3.126v.657h-3.126v1.917h3.435v.657H40.94v-5.641zm4.716 1.536h.9l.945 1.445.959-1.445h.84l-1.385 1.971 1.451 2.114h-.887l-1.024-1.543-.992 1.543h-.88l1.452-2.114-1.38-1.971zm6.074 3.645a.978.978 0 00.808-.407 1.97 1.97 0 00.322-1.208 2.328 2.328 0 00-.145-.847 1.046 1.046 0 00-1.599-.475 1.044 1.044 0 00-.37.514 2.734 2.734 0 00-.145.972c-.009.278.04.556.144.814a.978.978 0 00.985.637zm-1.792-3.631h.656v.545a1.67 1.67 0 01.453-.44c.248-.156.536-.236.828-.23a1.564 1.564 0 011.188.538c.349.434.522.982.486 1.537a2.353 2.353 0 01-.702 1.924c-.292.241-.66.369-1.038.362a1.405 1.405 0 01-.781-.204 1.85 1.85 0 01-.414-.394v2.101h-.657l-.02-5.739zm6.153-.112c.295.003.585.075.847.21.263.115.49.299.657.532.142.221.236.47.276.729.047.3.067.603.059.906h-3.021c-.006.358.097.708.295 1.005a1 1 0 00.841.361 1.098 1.098 0 00.867-.361 1.18 1.18 0 00.263-.479h.656a1.27 1.27 0 01-.177.506c-.085.172-.2.328-.342.459a1.61 1.61 0 01-.781.414 2.438 2.438 0 01-.565.059 1.73 1.73 0 01-1.313-.558 2.161 2.161 0 01-.539-1.57 2.392 2.392 0 01.539-1.609 1.786 1.786 0 011.438-.604zm1.103 1.826a1.689 1.689 0 00-.197-.716 1.01 1.01 0 00-.952-.499 1.06 1.06 0 00-.801.341c-.218.24-.34.551-.342.874h2.292zm1.583-1.727h.657v.709a1.52 1.52 0 01.394-.506c.193-.193.455-.301.729-.302h.223v.736h-.23a.974.974 0 00-.801.334 1.165 1.165 0 00-.283.775v2.371h-.69v-4.117zm2.6.019h.71v4.098h-.71v-4.098zm0-1.556h.71v.788h-.71v-.788zm1.754 1.536h.657v.585a2.39 2.39 0 01.446-.447c.23-.16.503-.242.782-.236a1.083 1.083 0 011.096.657 1.48 1.48 0 01.546-.493c.215-.11.454-.166.696-.164a1.16 1.16 0 011.136.604 2 2 0 01.157.867v2.745h-.715v-2.863a.656.656 0 00-.21-.565.784.784 0 00-.5-.151.994.994 0 00-.702.269 1.206 1.206 0 00-.296.913v2.397h-.703v-2.693a1.431 1.431 0 00-.098-.61.617.617 0 00-.591-.289c-.27.004-.527.115-.716.308a1.498 1.498 0 00-.322 1.097v2.187h-.69l.027-4.118zm8.281-.098c.295.002.586.074.847.21.263.115.49.299.657.532.142.221.236.469.276.729.047.3.067.603.059.906h-3.014c-.01.358.094.709.295 1.005a.97.97 0 00.854.381 1.099 1.099 0 00.867-.361c.124-.137.214-.301.263-.48h.656a1.39 1.39 0 01-.184.506 1.69 1.69 0 01-.335.46 1.64 1.64 0 01-.781.414c-.188.041-.38.061-.571.059a1.731 1.731 0 01-1.314-.559 2.185 2.185 0 01-.538-1.569 2.39 2.39 0 01.538-1.609 1.798 1.798 0 011.425-.624zm1.103 1.826a1.685 1.685 0 00-.197-.716.998.998 0 00-.945-.499 1.03 1.03 0 00-.801.341c-.22.238-.344.55-.348.874h2.291zm1.564-1.727h.656v.584a1.82 1.82 0 01.624-.519c.225-.109.473-.165.723-.164a1.212 1.212 0 011.188.617c.129.303.187.631.171.959v2.627h-.71v-2.627a1.357 1.357 0 00-.11-.611.656.656 0 00-.658-.387 1.293 1.293 0 00-.4.053 1.05 1.05 0 00-.5.341c-.108.12-.187.264-.23.42a2.983 2.983 0 00-.052.618v2.16h-.656l-.046-4.071zm4.518-1.156h.703v1.155h.656v.565H79.3v2.686a.29.29 0 00.145.289.565.565 0 00.27.046h.242v.545a1.417 1.417 0 01-.25.053h-.275a.742.742 0 01-.657-.25 1.081 1.081 0 01-.177-.656v-2.726h-.558v-.565h.558v-1.142zm2.463 3.979c.009.191.07.375.177.532a1.084 1.084 0 00.906.335c.23.004.456-.053.657-.164a.565.565 0 00.235-.756.446.446 0 00-.176-.17 3.32 3.32 0 00-.591-.197l-.552-.138a2.69 2.69 0 01-.775-.289.87.87 0 01-.446-.781 1.188 1.188 0 01.42-.946c.32-.255.722-.383 1.13-.361a1.577 1.577 0 011.313.545c.167.214.255.478.25.749h-.657a.798.798 0 00-.164-.427 1.05 1.05 0 00-.384-.229 1.044 1.044 0 00-.444-.047.978.978 0 00-.59.151.48.48 0 00-.203.43.489.489 0 00.261.397c.141.081.294.139.453.171l.46.112c.35.065.69.182 1.005.348a.946.946 0 01.4.834 1.258 1.258 0 01-.42.952 1.762 1.762 0 01-1.267.401 1.69 1.69 0 01-1.314-.414 1.602 1.602 0 01-.413-1.038h.729zm-39.082 23.748a1.314 1.314 0 001.59 1.372c.265.004.53-.038.78-.124a.875.875 0 00.69-.854.744.744 0 00-.289-.657 2.848 2.848 0 00-.92-.335l-.761-.177a3.278 3.278 0 01-1.064-.375 1.167 1.167 0 01-.538-1.057 1.614 1.614 0 01.525-1.248c.416-.348.95-.522 1.49-.486a2.563 2.563 0 011.511.427 1.565 1.565 0 01.657 1.373h-.769a1.36 1.36 0 00-.242-.696 1.439 1.439 0 00-1.19-.447 1.368 1.368 0 00-.971.289.891.891 0 00-.296.657.66.66 0 00.342.604c.331.14.677.244 1.03.309l.789.177c.316.061.618.184.887.361a1.32 1.32 0 01.538 1.15 1.441 1.441 0 01-.657 1.346 3.046 3.046 0 01-1.582.4 2.374 2.374 0 01-1.655-.538 1.833 1.833 0 01-.585-1.451l.69-.02zm6.377-2.391c.297.002.59.074.853.211.25.12.465.303.624.531.143.221.238.469.276.729.054.299.076.603.066.907h-3.021a1.75 1.75 0 00.295 1.004.97.97 0 00.86.381 1.072 1.072 0 00.861-.361 1.18 1.18 0 00.263-.479h.656a1.5 1.5 0 01-.177.505 1.64 1.64 0 01-1.123.874 2.494 2.494 0 01-.565.059 1.728 1.728 0 01-1.313-.558 2.187 2.187 0 01-.532-1.57 2.353 2.353 0 01.538-1.609 1.772 1.772 0 011.439-.624zm1.103 1.826a1.692 1.692 0 00-.197-.716.997.997 0 00-.946-.505 1.048 1.048 0 00-.8.348c-.218.239-.34.55-.342.873h2.285zm1.7-2.883h.703v1.149h.657v.572h-.657v2.686a.286.286 0 00.145.289.67.67 0 00.27.046h.242v.545l-.25.052h-.275a.744.744 0 01-.657-.249 1.086 1.086 0 01-.177-.657v-2.726H50.6v-.571h.558v-1.136zm2.194 0h.723v1.149h.657v.572h-.657v2.686a.293.293 0 00.151.289.62.62 0 00.27.046h.236v.545l-.25.052H54.2a.756.756 0 01-.657-.249 1.079 1.079 0 01-.17-.657v-2.726h-.559v-.571h.558l-.02-1.136zm2.036 1.169h.703v4.104h-.703v-4.104zm0-1.55h.703v.788h-.703v-.788zm1.767 1.53h.657v.585c.165-.216.376-.393.617-.519.228-.107.477-.161.729-.158a1.19 1.19 0 011.182.618c.132.299.19.626.17.952v2.627h-.702v-2.627a1.418 1.418 0 00-.112-.604.66.66 0 00-.656-.388 1.401 1.401 0 00-.408.053 1.088 1.088 0 00-.499.341 1.018 1.018 0 00-.223.421c-.04.203-.057.41-.052.617v2.161H57.2l-.046-4.079zm5.831-.072c.301-.009.597.076.848.243.154.106.289.237.4.387v-.518h.657v3.75c.02.426-.061.851-.237 1.241a1.655 1.655 0 01-.687.664c-.29.148-.618.207-.941.17a2.005 2.005 0 01-1.117-.296 1.148 1.148 0 01-.505-.932h.702c.021.159.09.308.197.427.209.169.475.251.742.23a1.022 1.022 0 001.045-.559c.117-.382.161-.783.131-1.182a1.305 1.305 0 01-.5.466 1.771 1.771 0 01-1.97-.321 2.086 2.086 0 01-.505-1.57 2.388 2.388 0 01.506-1.615 1.575 1.575 0 011.234-.585zm1.248 2.121a1.714 1.714 0 00-.315-1.136 1.064 1.064 0 00-1.806.315 2.772 2.772 0 00-.138.959 1.69 1.69 0 00.282 1.058.91.91 0 00.756.367 1.083 1.083 0 001.057-.656c.118-.288.174-.596.164-.907zm2.095.782c.008.19.067.374.171.532a1.097 1.097 0 00.913.335c.23.001.457-.057.657-.171a.545.545 0 00.289-.512.454.454 0 00-.23-.407 3.069 3.069 0 00-.598-.197l-.545-.138a2.794 2.794 0 01-.782-.289.893.893 0 01-.446-.782 1.21 1.21 0 01.42-.945 1.69 1.69 0 011.136-.362 1.566 1.566 0 011.314.545c.17.212.258.478.25.749h-.657a.784.784 0 00-.165-.427 1.066 1.066 0 00-.827-.276 1.03 1.03 0 00-.598.151.472.472 0 00-.197.394.482.482 0 00.263.434c.141.081.294.138.453.171l.46.111c.348.065.685.183.998.348a.925.925 0 01.407.834 1.315 1.315 0 01-.42.953 1.764 1.764 0 01-1.274.4 1.669 1.669 0 01-.702-.07 1.675 1.675 0 01-.612-.35 1.532 1.532 0 01-.407-1.031h.73zm-19.984 14.724v.657h-1.904v4.977h-.782v-4.977h-1.904v-.657h4.59zm2.325 1.438c.295.003.585.075.847.21.263.115.49.299.657.532.142.221.236.469.276.729.047.3.067.603.059.906h-3.021c-.006.358.097.708.295 1.005a.992.992 0 00.86.381 1.099 1.099 0 00.867-.361c.124-.137.214-.301.263-.48h.657c-.022.18-.083.352-.177.506a1.715 1.715 0 01-.342.46 1.617 1.617 0 01-.781.414 2.493 2.493 0 01-.565.059 1.731 1.731 0 01-1.314-.559 2.151 2.151 0 01-.538-1.569 2.384 2.384 0 01.538-1.609 1.783 1.783 0 011.419-.624zm1.103 1.826a1.71 1.71 0 00-.197-.716 1.01 1.01 0 00-.952-.506 1.064 1.064 0 00-.801.348c-.218.239-.34.55-.342.874h2.292zm2.095 1.293a.57.57 0 00.217.473.8.8 0 00.519.178c.246-.002.489-.061.709-.171a.969.969 0 00.578-.92v-.558c-.102.06-.213.104-.329.132-.128.038-.26.065-.394.078l-.407.079a1.59 1.59 0 00-.565.158.653.653 0 00-.328.551zm1.675-1.398a.382.382 0 00.322-.204.657.657 0 00.045-.263.558.558 0 00-.256-.512 1.305 1.305 0 00-.716-.164.906.906 0 00-.775.295.953.953 0 00-.164.48h-.656a1.186 1.186 0 01.492-1.058 1.98 1.98 0 011.103-.302 2.26 2.26 0 011.183.276.96.96 0 01.446.867v2.371a.295.295 0 00.046.177.236.236 0 00.085.054.238.238 0 00.099.012h.23v.512a1.425 1.425 0 01-.25.059h-.23a.565.565 0 01-.518-.256 1.134 1.134 0 01-.119-.381 1.737 1.737 0 01-.61.48 1.827 1.827 0 01-.867.203 1.31 1.31 0 01-.94-.348 1.146 1.146 0 01-.367-.873 1.132 1.132 0 01.361-.887 1.67 1.67 0 01.94-.387l1.116-.151zm2.174-1.629h.656v.591a2.36 2.36 0 01.447-.446c.23-.158.503-.24.781-.237a1.23 1.23 0 01.788.243c.133.113.238.255.31.414.137-.207.324-.377.544-.493a1.47 1.47 0 01.703-.164 1.152 1.152 0 011.13.604 2 2 0 01.157.867v2.745h-.716v-2.863a.656.656 0 00-.21-.565.78.78 0 00-.5-.157.997.997 0 00-.702.275 1.207 1.207 0 00-.295.913v2.397h-.703v-2.686a1.444 1.444 0 00-.099-.617.616.616 0 00-.59-.289c-.27.005-.528.115-.716.309a1.491 1.491 0 00-.316 1.096v2.187h-.67v-4.124zM18.52 61.437h9.726a2.193 2.193 0 012.18 2.2v4.203a2.188 2.188 0 01-2.18 2.194H18.52a2.187 2.187 0 01-2.187-2.194v-4.203a2.194 2.194 0 012.187-2.2z" clip-rule="evenodd"/><path fill="#080808" fill-rule="evenodd" d="M25.442 64.892v3.382h3.165l.053-.69-.913-.17-1.07-1.189-1.235-1.333z" clip-rule="evenodd"/><path fill="#fff" fill-rule="evenodd" d="M25.98 67.335a.289.289 0 11.289.308.294.294 0 01-.289-.308z" clip-rule="evenodd"/><path fill="#F7A501" fill-rule="evenodd" d="M23.209 62.606v1.63l1.878 1.936v-1.615l-1.878-1.95zm-.112 1.911v1.557l2.03 2.14V66.64l-2.03-2.122zm.112 2.115v1.622h1.582l-1.582-1.622z" clip-rule="evenodd"/><path fill="#F96132" fill-rule="evenodd" d="M21.291 62.567v1.655l1.898 1.97v-1.556l-.112-.119-1.786-1.95zm-.053 2.042v1.544l1.925 2.082v-1.61l-1.925-2.016zm0 2.063v1.609h1.564l-1.564-1.61z" clip-rule="evenodd"/><path fill="#0316F0" fill-rule="evenodd" d="M19.34 62.62v1.608l1.931 1.97v-1.582l-1.93-1.997zm.027 1.99l1.91 2.088v1.57l-1.956-2.115.046-1.544zm-.046 2.088v1.57h1.582l-1.582-1.57z" clip-rule="evenodd"/><path stroke="#fff" stroke-linecap="round" stroke-linejoin="round" stroke-width="1.5" d="M18.77 79.983l-.093 8.045 7.789-.111"/><path stroke="#fff" stroke-linecap="round" stroke-linejoin="round" stroke-width="1.5" d="M20.037 85.46l1.169-2.403 1.97 1.451 2.095-3.132M3.428 99.036l111.131-.756"/><path fill="#fff" fill-rule="evenodd" d="M53.11 44.264h-1.662v2.509h1.655c.352.014.698-.1.972-.322a1.229 1.229 0 00.348-.966 1.15 1.15 0 00-.348-.945 1.51 1.51 0 00-.966-.276zm.15 3.973h-1.812v3.06h-1.767V42.76h3.737a3.008 3.008 0 012.043.657 2.555 2.555 0 01.761 2.035 2.627 2.627 0 01-.761 2.128 3.362 3.362 0 01-2.2.657zm8.453-.072a2.351 2.351 0 00-.388-1.458 1.453 1.453 0 00-2.213 0 2.897 2.897 0 000 2.916 1.453 1.453 0 002.213 0c.286-.43.422-.943.387-1.458zm-1.485 3.35a2.936 2.936 0 01-2.423-.986 3.658 3.658 0 01-.795-2.364 3.723 3.723 0 01.795-2.364 3.434 3.434 0 014.84 0 3.68 3.68 0 01.795 2.364 3.625 3.625 0 01-.795 2.364 2.929 2.929 0 01-2.417.985zm5.668-2.227c.006.226.084.445.223.624a1.498 1.498 0 001.13.328c.264.014.527-.036.768-.144a.466.466 0 00.289-.434.473.473 0 00-.23-.42 10.09 10.09 0 00-1.714-.5 3.468 3.468 0 01-1.51-.656 1.438 1.438 0 01-.434-1.13 1.97 1.97 0 01.657-1.497 2.758 2.758 0 011.924-.657 3.573 3.573 0 011.918.467 2.03 2.03 0 01.853 1.628h-1.648a.946.946 0 00-.177-.505 1.115 1.115 0 00-.926-.335 1.314 1.314 0 00-.762.17.487.487 0 00-.23.395.44.44 0 00.243.407c.558.198 1.131.35 1.714.453a3.14 3.14 0 011.471.703 1.563 1.563 0 01.486 1.182 1.898 1.898 0 01-.696 1.523 3.283 3.283 0 01-2.147.591 3.23 3.23 0 01-2.194-.624 2.04 2.04 0 01-.703-1.596l1.695.027zm4.65-3.054v-1.169h.88v-1.753h1.628v1.753h1.018v1.169h-1.018v3.323a.814.814 0 00.092.486c.189.087.398.119.604.092h.322v1.228h-.775a2.096 2.096 0 01-1.596-.4 1.215 1.215 0 01-.276-.874v-3.875l-.88.02zm4.702 5.063V42.76h1.76v3.244h3.336V42.76h1.766v8.537h-1.766v-3.796h-3.33v3.796h-1.766zm12.733-3.132a2.351 2.351 0 00-.387-1.458 1.312 1.312 0 00-1.103-.512 1.314 1.314 0 00-1.117.512 2.936 2.936 0 000 2.916 1.314 1.314 0 001.117.512 1.314 1.314 0 001.103-.512c.286-.43.422-.943.387-1.458zm-1.484 3.35a2.936 2.936 0 01-2.423-.986 3.625 3.625 0 01-.795-2.364 3.684 3.684 0 01.795-2.364 3.434 3.434 0 014.84 0 3.68 3.68 0 01.794 2.364 3.625 3.625 0 01-.794 2.364 2.927 2.927 0 01-2.417.985zm8.466-3.39a2.119 2.119 0 00-.381-1.366 1.234 1.234 0 00-1.012-.466 1.195 1.195 0 00-1.195.814c-.121.342-.18.702-.17 1.064-.008.336.054.669.183.979a1.202 1.202 0 001.202.794 1.267 1.267 0 00.972-.433 1.97 1.97 0 00.4-1.386zM94.003 45c.42.182.765.505.973.913v-.906h1.596v5.97a3.37 3.37 0 01-.408 1.832c-.472.71-1.372 1.064-2.705 1.064a3.67 3.67 0 01-1.97-.473 1.753 1.753 0 01-.848-1.412h1.793a.735.735 0 00.223.414c.264.174.579.253.894.223a1.196 1.196 0 001.188-.591 3.01 3.01 0 00.197-1.28v-.408a1.97 1.97 0 01-.506.604c-.371.263-.82.394-1.274.375a2.417 2.417 0 01-1.937-.847 3.435 3.435 0 01-.722-2.306c-.03-.84.214-1.668.696-2.357a2.305 2.305 0 011.97-.96 2.15 2.15 0 01.84.145z" clip-rule="evenodd"/><path stroke="#fff" stroke-linecap="round" stroke-linejoin="round" stroke-width="1.4" d="M17.85 113.49l2.574-3.776 1.97 2.751 3.002-3.69"/><path stroke="#fff" stroke-linecap="round" stroke-linejoin="round" stroke-width="1.4" d="M24.16 108.118l1.971-.23-.04 1.97m-6.166 17.443l6.751-.046-.046 9.306h-6.79v-3.106l.085-6.154z"/><path stroke="#fff" stroke-linecap="round" stroke-linejoin="round" stroke-width="1.4" d="M20.188 132.634l3.093 2.036 3.178-1.695m-5.22-3.638l4.005-.092m-3.966 2.082l4.006-.099m-4.853 18.067a2.172 2.172 0 012.585-2.154 2.178 2.178 0 011.719 1.703 2.176 2.176 0 01-3.663 1.977 2.164 2.164 0 01-.641-1.526v0zm-2.213 6.672l8.832.112s.171-4.4-4.387-4.4c-4.222 0-4.445 4.288-4.445 4.288zm1.792 12.997l5.727.033-.906 1.011a3.365 3.365 0 00-.23 1.682c.282.807 1.169 1.917 1.648 3.106a29.903 29.903 0 011.314 4.249l-9.247-.066a22.262 22.262 0 011.136-4.282 23.982 23.982 0 011.872-3.283c.256-.453-.29-1.576-.29-1.576l-1.024-.874z"/><path stroke="#fff" stroke-linecap="round" stroke-linejoin="round" stroke-width="1.4" d="M19.314 176.517s1.616.715 2.424.492c.702-.197 4.163-2.108 4.163-2.108"/><path fill="#fff" fill-rule="evenodd" d="M22.605 174.848a.266.266 0 01.166-.238.265.265 0 01.338.347.264.264 0 01-.344.14.243.243 0 01-.086-.059.256.256 0 01-.074-.19zm-.756-1.103a.268.268 0 01.167-.248.268.268 0 01.351.351.263.263 0 01-.099.121.266.266 0 01-.34-.033.27.27 0 01-.079-.191z" clip-rule="evenodd"/><path stroke="#fff" stroke-linecap="round" stroke-linejoin="round" stroke-width="1.4" d="M22.329 198.596a1.507 1.507 0 011.003-1.319 1.514 1.514 0 011.609.395 1.509 1.509 0 01-.28 2.294 1.515 1.515 0 01-.829.246 1.563 1.563 0 01-1.504-1.616z"/><path stroke="#fff" stroke-linecap="round" stroke-linejoin="round" stroke-width="1.4" d="M22.821 194.872l1.826.086.775-1.629 1.8.9-.697 1.793.893 1.464 1.662-.473.414 2.214-1.715.446-.788 1.084 1.728 1.431-1.898 1.36-1.471-1.688-1.202.558-.552 1.767-2.35-.283.748-2.075-1.163-1.701-1.825.421-.447-2.411 1.885-.591.69-1.569-1.248-1.406 2.134-1.234.801 1.536zm1.898 17.903v7.224m-3.546-3.711l7.224-.072"/><path fill="#fff" fill-rule="evenodd" stroke="#35416B" stroke-linecap="round" stroke-linejoin="round" stroke-width="5" d="M145.464 82.656h96.611c4.525 0 8.19 3.284 8.19 7.336v188.226c0 4.046-3.665 7.329-8.19 7.329h-96.611c-4.524 0-8.195-3.283-8.195-7.329V89.992c0-4.052 3.671-7.336 8.195-7.336z" clip-rule="evenodd"/><path fill="#35416B" fill-rule="evenodd" d="M150.16 44.48v2.627h-4.525v12.478h-3.185V47.107h-4.544V44.48h12.254zm6.922 3.672v2.994l-.493-.04h-.348c-1.175 0-1.97.388-2.37 1.15a4.52 4.52 0 00-.335 1.97v5.36h-2.923V48.42h2.791v1.97a6.382 6.382 0 011.182-1.53 3.24 3.24 0 012.135-.657h.138l.223-.052zm3.849 4.721h4.551a2.53 2.53 0 00-.71-1.76 2.16 2.16 0 00-1.563-.604 2 2 0 00-1.576.657 3.241 3.241 0 00-.702 1.708zm6.639-2.627c.451.699.743 1.488.854 2.312.084.735.114 1.474.092 2.213h-7.658a2.803 2.803 0 001.058 2.365c.431.285.94.432 1.458.42a2.117 2.117 0 001.471-.512 2.48 2.48 0 00.538-.775h2.962a3.656 3.656 0 01-1.038 2.023 5.065 5.065 0 01-4.019 1.635 5.673 5.673 0 01-3.769-1.38c-1.086-.91-1.629-2.4-1.629-4.472 0-1.935.49-3.42 1.471-4.452a5.048 5.048 0 013.822-1.55 5.908 5.908 0 012.515.525 4.394 4.394 0 011.872 1.675v-.027zm13.056 1.807v7.532h-2.995v-6.803a3.118 3.118 0 00-.236-1.36 1.677 1.677 0 00-1.642-.86 2.036 2.036 0 00-2.043 1.26 4.274 4.274 0 00-.289 1.708v6.055h-2.915V48.421h2.824v1.635a4.816 4.816 0 011.063-1.24 3.711 3.711 0 012.292-.658 4.32 4.32 0 012.837.907c.736.586 1.104 1.582 1.104 2.988zm9.91-2.24V44.48h2.968v15.105h-2.83v-1.543a4.175 4.175 0 01-1.425 1.445 4.023 4.023 0 01-1.971.453 4.172 4.172 0 01-3.283-1.59 6.083 6.083 0 01-1.314-4.065 6.992 6.992 0 011.314-4.505 4.29 4.29 0 013.526-1.642 3.507 3.507 0 013.087 1.682l-.072-.007zm.085 4.341c0-1.366-.346-2.344-1.038-2.935a2.245 2.245 0 00-1.477-.532 2.064 2.064 0 00-1.885.965 4.511 4.511 0 00-.598 2.41 4.45 4.45 0 00.611 2.476 2.077 2.077 0 001.852.933 2.147 2.147 0 001.885-.926 4.07 4.07 0 00.65-2.39zm7.815 1.859c.018.4.158.784.401 1.103a2.678 2.678 0 002.009.591c.472.022.943-.068 1.373-.263a.863.863 0 00.506-.729.86.86 0 00-.408-.788 16.503 16.503 0 00-3.047-.88 6.327 6.327 0 01-2.679-1.182 2.557 2.557 0 01-.782-2.01 3.514 3.514 0 011.215-2.666 4.906 4.906 0 013.428-1.11 6.274 6.274 0 013.409.834 3.585 3.585 0 011.517 2.89h-2.929a1.73 1.73 0 00-.315-.893 2.02 2.02 0 00-1.642-.591 2.372 2.372 0 00-1.36.295.854.854 0 00-.407.696.764.764 0 00.434.73c.99.356 2.01.626 3.047.807a5.559 5.559 0 012.627 1.248 2.808 2.808 0 01.86 2.102 3.38 3.38 0 01-1.228 2.731c-.819.705-2.093 1.056-3.822 1.051-1.76 0-3.054-.367-3.895-1.11a3.62 3.62 0 01-1.254-2.837l2.942-.02z" clip-rule="evenodd"/><path fill="#35416B" fill-rule="evenodd" stroke="#fff" stroke-linecap="round" stroke-linejoin="round" stroke-width=".1" d="M280.803 80.16h297.089a10.456 10.456 0 0110.507 10.397v300.33a10.456 10.456 0 01-10.507 10.396H280.803a10.455 10.455 0 01-10.508-10.396V90.557a10.455 10.455 0 0110.508-10.396z" clip-rule="evenodd"/><path stroke="#fff" stroke-linecap="round" stroke-linejoin="round" stroke-width="6" d="M307.715 139.438l.755 215.329 236.52 1.891"/><path fill="#F1F3F2" fill-rule="evenodd" d="M545.108 27.878h59.302a.66.66 0 01.657.657v17.003a.657.657 0 01-.657.657h-59.302a.656.656 0 01-.657-.657V28.535a.654.654 0 01.657-.657zm-68.28.29h59.316a.656.656 0 01.657.656v17.003a.658.658 0 01-.657.657h-59.316a.656.656 0 01-.656-.657V28.824a.657.657 0 01.656-.657z" clip-rule="evenodd"/><path stroke="#fff" stroke-dasharray="8 8" stroke-linecap="round" stroke-linejoin="round" d="M306.671 138.879l237.005-.256m-235.449 19.321l237.006-.256m-236.507 19.065l237.012-.256m-237.78 20.089l237.005-.256m-237.005 21.127l237.005-.256M308.47 236.778l237.006-.256m-236.75 20.083l237.012-.256m-237.012 19.847l237.012-.263m-236.749 19.84l237.006-.256M310.02 316.125l237.006-.256m-237.525 19.577l237.006-.256"/><path stroke="#fff" stroke-linecap="round" stroke-linejoin="round" stroke-width="5" d="M310.145 295.845l38.228-59.224h56.721l36.659 40.717 41.052-78.657 41.991.316 19.426-19.742"/><path fill="#35416B" fill-rule="evenodd" stroke="#fff" stroke-linecap="round" stroke-linejoin="round" stroke-width="5" d="M345.759 237.094a4.348 4.348 0 012.667-4.047 4.351 4.351 0 015.956 3.156 4.352 4.352 0 01-1.851 4.479 4.357 4.357 0 01-2.424.733 4.337 4.337 0 01-3.071-1.258 4.33 4.33 0 01-1.277-3.063zm-39.948 58.915a4.354 4.354 0 114.354 4.321 4.323 4.323 0 01-3.073-1.258 4.32 4.32 0 01-1.281-3.063zm94.634-59.762a4.354 4.354 0 114.347 4.314 4.337 4.337 0 01-4.347-4.314zm121.349-37.96a4.348 4.348 0 012.667-4.046 4.35 4.35 0 015.956 3.156 4.352 4.352 0 01-1.851 4.479 4.36 4.36 0 01-2.424.733 4.323 4.323 0 01-4.015-2.663 4.333 4.333 0 01-.333-1.659zm18.776-19.715a4.347 4.347 0 01.715-2.429 4.348 4.348 0 014.464-1.885 4.354 4.354 0 01-.825 8.629 4.343 4.343 0 01-4.354-4.315zm-62.494 20.963a4.348 4.348 0 012.667-4.046 4.355 4.355 0 014.756.925 4.355 4.355 0 01-.651 6.71 4.35 4.35 0 01-2.424.732 4.33 4.33 0 01-4.348-4.321zm-39.981 77.882a4.358 4.358 0 012.66-4.051 4.353 4.353 0 015.72 5.669 4.356 4.356 0 01-4.026 2.697 4.343 4.343 0 01-4.354-4.315z" clip-rule="evenodd"/><path fill="#454545" fill-rule="evenodd" d="M150.758 99.521h1.202l-.591-1.858-.611 1.858zm.059-2.942h1.11l1.674 4.729h-1.07l-.302-.972h-1.74l-.329.972h-1.031l1.688-4.729zm3.848.493a2.251 2.251 0 012.515-.347c.269.135.508.322.703.55.19.256.302.562.322.88h-.985a1.235 1.235 0 00-.25-.512.972.972 0 00-.794-.309.997.997 0 00-.854.434 2.113 2.113 0 00-.309 1.228c-.03.424.086.846.329 1.195a1.026 1.026 0 00.834.394.953.953 0 00.794-.341 1.47 1.47 0 00.25-.545h.979a2.11 2.11 0 01-.657 1.254 1.922 1.922 0 01-1.353.486 2.031 2.031 0 01-1.602-.657 3.076 3.076 0 01.078-3.71zm7.724-.493v.84h-1.419v3.889h-.992V97.42h-1.418v-.84h3.829zm1.477 4.729h-.979v-4.729h.979v4.729zm4.288-2.371a1.924 1.924 0 00-.341-1.228 1.133 1.133 0 00-.933-.434 1.164 1.164 0 00-.939.427c-.25.361-.373.796-.348 1.235-.028.437.095.87.348 1.228a1.154 1.154 0 00.939.433 1.133 1.133 0 00.933-.433c.251-.358.372-.792.341-1.228zm.276 1.97a2.457 2.457 0 01-3.099 0 2.557 2.557 0 01-.716-1.97 2.485 2.485 0 01.716-1.97 2.453 2.453 0 013.099 0 2.526 2.526 0 01.716 1.97 2.59 2.59 0 01-.716 1.95v.02zm1.452-4.328h1.031l1.884 3.284v-3.284h.92v4.729h-.985l-1.931-3.356v3.356h-.919v-4.729zm5.47 3.27a.991.991 0 00.177.48 1.006 1.006 0 00.828.296 1.72 1.72 0 00.565-.079.55.55 0 00.413-.545.403.403 0 00-.203-.368 2.26 2.26 0 00-.657-.217l-.506-.111a3.2 3.2 0 01-1.018-.368 1.16 1.16 0 01-.479-1.018 1.36 1.36 0 01.117-.58c.08-.183.199-.346.349-.478a1.973 1.973 0 011.353-.42c.457-.014.905.125 1.274.394a1.413 1.413 0 01.558 1.15h-.952a.661.661 0 00-.374-.605 1.227 1.227 0 00-.571-.118 1.05 1.05 0 00-.611.158.48.48 0 00-.224.427.399.399 0 00.224.374c.196.093.403.16.617.197l.814.197c.291.056.566.172.808.341a1.151 1.151 0 01.42.966 1.357 1.357 0 01-.492 1.077c-.399.308-.896.46-1.399.427a2.28 2.28 0 01-1.458-.421 1.4 1.4 0 01-.525-1.155h.952zm6.784-.328h1.202l-.591-1.858-.611 1.858zm.059-2.942h1.117l1.674 4.729h-1.07l-.302-.972h-1.747l-.322.972h-1.038l1.688-4.729zm3.376 0h1.037l1.879 3.284v-3.284h.919v4.729h-.985l-1.931-3.356v3.356h-.919v-4.729zm5.713.821v3.087h.913a.99.99 0 00.979-.657c.105-.288.156-.593.151-.9a2.21 2.21 0 00-.23-1.11.957.957 0 00-.9-.387l-.913-.033zm1.813-.716c.326.105.608.315.801.598a2.1 2.1 0 01.342.762c.055.256.084.518.085.781a3.157 3.157 0 01-.374 1.596 1.707 1.707 0 01-1.583.887h-2.043v-4.729h2.043c.247 0 .492.035.729.105zm7.296.736h-2.495v.998h2.292v.82h-2.292v1.216h2.626v.854h-3.579v-4.729h3.468l-.02.84zm3.651-.84h1.025l-1.609 4.728h-.965l-1.596-4.729h1.057l1.024 3.586 1.064-3.586zm5.11.84h-2.502v.998h2.298v.82h-2.298v1.216h2.627v.854h-3.58v-4.729h3.468l-.013.84zm.867-.84h1.011l1.878 3.283v-3.284h.92v4.729h-.985l-1.931-3.356v3.356h-.92l.027-4.729zm8.196 0v.84h-1.419v3.888h-.992V97.42h-1.418v-.84h3.829zm1.287 3.27a.991.991 0 00.177.479 1.014 1.014 0 00.827.296c.192.005.383-.021.565-.079a.553.553 0 00.414-.545.404.404 0 00-.204-.368 2.255 2.255 0 00-.656-.217l-.499-.111a3.176 3.176 0 01-1.025-.368 1.153 1.153 0 01-.473-1.018 1.374 1.374 0 01.46-1.058 1.97 1.97 0 011.353-.42c.456-.014.905.125 1.274.394a1.424 1.424 0 01.558 1.15h-.952a.657.657 0 00-.368-.605 1.276 1.276 0 00-.578-.118 1.052 1.052 0 00-.611.158.481.481 0 00-.223.427.398.398 0 00.223.374c.197.092.404.159.618.197l.814.197c.29.056.565.172.808.341a1.16 1.16 0 01.42.966 1.361 1.361 0 01-.492 1.077c-.399.308-.897.46-1.399.427a2.278 2.278 0 01-1.458-.421 1.4 1.4 0 01-.4-.515 1.426 1.426 0 01-.126-.64h.953zm-67.761 103.363v1.037h1.162c.176.006.349-.032.506-.111a.464.464 0 00.19-.421.419.419 0 00-.256-.433 1.712 1.712 0 00-.564-.072h-1.038zm0 1.819v1.261h1.162c.164.007.327-.02.48-.079a.602.602 0 00.315-.591.503.503 0 00-.302-.506 1.31 1.31 0 00-.48-.085h-1.175zm2.587-2.141c.147.212.223.465.217.722.012.251-.065.497-.217.697a1.152 1.152 0 01-.361.269c.224.074.416.222.545.42.128.207.192.447.184.69.003.266-.07.528-.21.755a1.327 1.327 0 01-.873.611 3.716 3.716 0 01-.657.059h-2.141v-4.722h2.298a1.47 1.47 0 011.215.499zm2.194.322v1.267h1.123c.17.009.34-.017.499-.078a.522.522 0 00.295-.532.589.589 0 00-.282-.578 1.154 1.154 0 00-.486-.079h-1.149zm2.574-.368a1.314 1.314 0 01.335.893c-.004.23-.062.455-.171.657a.956.956 0 01-.564.46.85.85 0 01.466.374c.106.23.154.483.138.736v.315a2.157 2.157 0 000 .44.384.384 0 00.177.269v.118h-1.084a2.065 2.065 0 01-.105-.656v-.414a.615.615 0 00-.761-.755h-1.005v1.852h-.959v-4.722h2.272c.261-.006.521.034.769.118.182.065.347.173.479.315h.013zm4.65.381h-2.502v1.005h2.292v.821h-2.292v1.215h2.627v.847h-3.58v-4.722h3.455v.834zm2.193 2.101h1.202l-.591-1.858-.611 1.858zm.059-2.935h1.117l1.674 4.722h-1.07l-.302-.972h-1.747l-.322.972h-1.038l1.688-4.722zm3.409 0h.972v1.97l1.825-1.97h1.275l-1.971 1.97 2.036 2.778h-1.261l-1.458-2.062-.472.486v1.576h-.972l.026-4.748zm7.506.821v3.08h.913a.977.977 0 00.972-.657 2.32 2.32 0 00.158-.899 2.253 2.253 0 00-.23-1.11.956.956 0 00-.398-.314c-.158-.067-.332-.09-.502-.067l-.913-.033zm1.813-.723c.326.108.608.32.801.605.165.228.281.487.341.762.057.256.086.518.086.781a3.148 3.148 0 01-.375 1.596 1.7 1.7 0 01-1.582.88h-2.043v-4.722h2.043c.246-.003.492.03.729.098zm5.339 2.233a1.97 1.97 0 00-.342-1.234 1.135 1.135 0 00-.932-.434 1.153 1.153 0 00-.939.434 2.346 2.346 0 000 2.462 1.149 1.149 0 00.939.434 1.135 1.135 0 00.932-.434c.25-.358.371-.791.342-1.228zm.276 1.971a2.479 2.479 0 01-3.1 0 2.554 2.554 0 01-.716-1.971 2.504 2.504 0 01.716-1.97 2.457 2.457 0 013.1 0 2.53 2.53 0 01.715 1.97 2.568 2.568 0 01-.715 1.971zm2.114-4.302l.624 2.706.132.755.137-.742.532-2.719h1.045l.564 2.706.138.755.145-.729.656-2.732h.999l-1.314 4.722h-.945l-.572-2.765-.164-.913-.164.913-.572 2.765h-.965l-1.313-4.722h1.037zm5.53 0h1.038l1.878 3.284v-3.284h.919v4.722h-.985l-1.931-3.356v3.356h-.919v-4.722zm7.546.821v1.037h1.162c.176.007.35-.032.506-.111a.448.448 0 00.197-.421.43.43 0 00-.263-.433 1.696 1.696 0 00-.558-.072h-1.044zm0 1.819v1.261h1.162c.166.007.331-.02.486-.079a.597.597 0 00.316-.591.512.512 0 00-.309-.506 1.27 1.27 0 00-.48-.085h-1.175zm2.587-2.141c.147.212.223.465.217.722.012.251-.065.497-.217.696a1.14 1.14 0 01-.361.27c.225.072.418.221.545.42.129.207.192.447.184.69.006.267-.067.529-.21.755a1.327 1.327 0 01-.873.611c-.217.04-.437.06-.657.059h-2.141v-4.722h2.292c.228-.017.457.019.669.105.212.087.401.222.552.394zm3.895-.499h1.123l-1.583 2.949v1.773h-.992v-1.773l-1.635-2.949h1.169l.978 2.055.94-2.055zm-54.955 42.339a.945.945 0 00.177.486.994.994 0 00.378.239c.142.05.293.067.443.05.193.008.386-.016.572-.072a.55.55 0 00.413-.552.41.41 0 00-.203-.361 2.22 2.22 0 00-.657-.223l-.499-.112a3.152 3.152 0 01-1.018-.361 1.14 1.14 0 01-.48-1.024 1.368 1.368 0 01.46-1.051 1.97 1.97 0 011.36-.421c.456-.012.904.126 1.274.395a1.4 1.4 0 01.551 1.149h-.945a.653.653 0 00-.375-.604 1.223 1.223 0 00-.584-.112 1.101 1.101 0 00-.611.151.499.499 0 00-.23.433.412.412 0 00.059.219.41.41 0 00.164.156c.197.092.404.158.618.197l.814.197c.291.053.567.17.808.341a1.164 1.164 0 01.427.966 1.36 1.36 0 01-.499 1.077c-.4.307-.897.458-1.399.427a2.298 2.298 0 01-1.451-.421 1.394 1.394 0 01-.532-1.162l.965-.007zm3.658 1.459v-4.69h.978v1.8h1.846v-1.8h.985v4.722h-.985v-2.108h-1.846v2.108l-.978-.032zm8.117-2.371a1.97 1.97 0 00-.348-1.229 1.133 1.133 0 00-.926-.433 1.133 1.133 0 00-.939.433 2.351 2.351 0 000 2.463 1.127 1.127 0 00.939.434 1.123 1.123 0 00.926-.434c.253-.36.376-.795.348-1.234zm.269 1.97a2.442 2.442 0 01-3.093 0 2.527 2.527 0 01-.722-1.97 2.489 2.489 0 01.722-1.971 2.444 2.444 0 013.093 0 2.493 2.493 0 01.716 1.971 2.524 2.524 0 01-.729 1.95l.013.02zm2.115-4.289l.657 2.706.138.755.138-.742.531-2.719h1.005l.558 2.706.145.755.144-.729.657-2.732h1.005l-1.313 4.722h-.946l-.572-2.764-.164-.913-.17.913-.572 2.764h-.913l-1.313-4.722h.985zm5.536 0h1.038l1.885 3.284V241.5h.919v4.722h-.998l-1.918-3.408v3.356h-.926v-4.67zm7.881 2.903h1.195l-.591-1.858-.604 1.858zm.059-2.935h1.116l1.675 4.721h-1.071l-.308-.972h-1.74l-.329.972h-1.031l1.688-4.721zm4.098 3.263a.945.945 0 00.177.486.994.994 0 00.378.239c.142.05.293.067.443.05.193.008.386-.016.572-.072a.55.55 0 00.413-.552.41.41 0 00-.203-.361 2.22 2.22 0 00-.657-.223l-.499-.112a3.152 3.152 0 01-1.018-.361 1.14 1.14 0 01-.48-1.024 1.368 1.368 0 01.46-1.051 1.97 1.97 0 011.36-.421c.456-.012.904.126 1.274.395a1.4 1.4 0 01.551 1.149h-.932a.653.653 0 00-.375-.604 1.225 1.225 0 00-.571-.119 1.11 1.11 0 00-.611.151.5.5 0 00-.171.653c.039.066.096.12.165.155.196.093.404.159.617.197l.814.197c.291.054.567.17.808.342a1.167 1.167 0 01.427.965 1.35 1.35 0 01-.499 1.077 2.078 2.078 0 01-1.399.427 2.297 2.297 0 01-1.451-.42 1.404 1.404 0 01-.532-1.163h.939z" clip-rule="evenodd"/><path fill="#DCDCDC" fill-rule="evenodd" d="M149.707 111.809h41.249v12.924h-41.249v-12.924zm-.69 16.884h42.031v12.931h-42.031v-12.931z" clip-rule="evenodd"/><path fill="#0316F0" fill-rule="evenodd" d="M148.827 146.53h42.03v12.925h-42.03V146.53z" clip-rule="evenodd"/><path fill="#DCDCDC" fill-rule="evenodd" d="M194.509 111.979h41.964v12.925h-41.964v-12.925z" clip-rule="evenodd"/><path fill="#fff" fill-rule="evenodd" d="M159.808 152.414l-.572-1.668-.611 1.668h1.183zm-.848-2.2h.572l1.372 3.77h-.565l-.38-1.13h-1.465l-.407 1.13h-.525l1.398-3.77zm2.634 2.398c-.009.26.057.517.19.742a.658.658 0 00.598.295.648.648 0 00.532-.276 1.31 1.31 0 00.203-.788 1.214 1.214 0 00-.21-.775.65.65 0 00-.525-.249.707.707 0 00-.572.269 1.215 1.215 0 00-.216.782zm.696-1.452c.186-.005.37.041.532.131.103.078.196.168.276.27v-1.386h.446v3.783h-.414v-.388a.972.972 0 01-.387.368 1.052 1.052 0 01-1.313-.269 1.518 1.518 0 01-.335-1.031c-.008-.37.1-.733.308-1.038a1.001 1.001 0 01.887-.44zm2.226 1.452c-.008.26.058.517.191.742a.655.655 0 00.597.295.656.656 0 00.532-.276c.15-.234.221-.51.204-.788a1.22 1.22 0 00-.21-.775.664.664 0 00-.532-.249.695.695 0 00-.565.269c-.16.228-.236.504-.217.782zm.696-1.452c.186-.005.37.041.532.132.104.077.196.167.276.269v-1.386h.447v3.783h-.414v-.388a.981.981 0 01-.388.368 1.04 1.04 0 01-.505.118 1.02 1.02 0 01-.795-.387 1.528 1.528 0 01-.335-1.031c-.008-.37.1-.733.309-1.038a.995.995 0 01.873-.44zm3.507-.946h2.745v.46h-2.246v1.143h2.076v.44h-2.076v1.241h2.286v.453h-2.785v-3.737zm3.619.992l.735 2.24.762-2.24h.512l-1.037 2.752h-.493l-1.018-2.752h.539zm3.546-.059c.197 0 .39.048.565.138.168.08.313.202.42.355.094.147.157.313.184.486.032.199.045.402.039.604h-2.009c-.003.234.065.463.197.656a.654.654 0 00.571.257.762.762 0 00.578-.243.818.818 0 00.171-.316h.453c-.02.118-.06.231-.118.335a1.21 1.21 0 01-.224.302c-.145.14-.327.236-.525.276a1.314 1.314 0 01-.374.046 1.167 1.167 0 01-.874-.374 1.467 1.467 0 01-.354-1.051 1.557 1.557 0 01.361-1.07 1.168 1.168 0 01.939-.401zm.736 1.215a1.268 1.268 0 00-.132-.479.653.653 0 00-.657-.335.698.698 0 00-.531.229.861.861 0 00-.224.585h1.544zm1.037-1.156h.44v.394c.111-.145.252-.264.414-.348.152-.073.318-.108.486-.105a.799.799 0 01.788.407c.092.206.133.432.118.657v1.766h-.473v-1.733a1 1 0 00-.072-.408.458.458 0 00-.446-.256 1.024 1.024 0 00-.27.033.658.658 0 00-.335.23.672.672 0 00-.151.282 2.128 2.128 0 00-.032.414v1.438h-.467v-2.771zm3.021-.762h.467v.762h.433v.381h-.433v1.793a.191.191 0 00.021.11.186.186 0 00.077.08.378.378 0 00.177 0h.158v.368l-.164.033h-.184a.495.495 0 01-.44-.164.739.739 0 01-.112-.427v-1.819h-.374v-.381h.374v-.736zm137.21-52.873h44.657a3.124 3.124 0 013.126 3.126v9.371a3.124 3.124 0 01-3.126 3.126h-44.657a3.128 3.128 0 01-3.126-3.126v-9.371a3.126 3.126 0 013.126-3.126zm55.434.105h44.657a3.132 3.132 0 013.126 3.132v9.372a3.125 3.125 0 01-3.126 3.126h-44.657a3.126 3.126 0 01-3.126-3.126v-9.365a3.125 3.125 0 01.913-2.217 3.129 3.129 0 012.213-.922zm54.797.735h44.657a3.129 3.129 0 013.126 3.133v9.365a3.132 3.132 0 01-3.126 3.133h-44.657a3.13 3.13 0 01-2.215-.918 3.13 3.13 0 01-.918-2.215v-9.365a3.128 3.128 0 013.133-3.133z" clip-rule="evenodd"/><path fill="#0316F0" fill-rule="evenodd" d="M484.335 98.641h72.463c2.804 0 5.076 1.399 5.076 3.126v9.372c0 1.727-2.272 3.126-5.076 3.126h-72.463c-2.804 0-5.083-1.399-5.083-3.126v-9.372c0-1.727 2.279-3.126 5.083-3.126z" clip-rule="evenodd"/><path fill="#DCDCDC" fill-rule="evenodd" d="M156.806 179.341h44.749a5.852 5.852 0 110 11.703h-44.749a5.85 5.85 0 010-11.703zm.664 36.606h44.749a5.832 5.832 0 014.137 1.709 5.853 5.853 0 01-4.137 9.987H157.47a5.849 5.849 0 110-11.696zm-.335 37.92h44.755a5.85 5.85 0 014.136 1.714 5.838 5.838 0 011.709 4.137 5.832 5.832 0 01-1.709 4.137 5.842 5.842 0 01-4.136 1.715h-44.755a5.854 5.854 0 01-5.845-5.852 5.85 5.85 0 015.845-5.851z" clip-rule="evenodd"/><path fill="#454545" fill-rule="evenodd" d="M332.047 103.895v3.08h.906a.98.98 0 00.978-.689c.107-.288.158-.593.151-.9a2.242 2.242 0 00-.229-1.11.952.952 0 00-.9-.381h-.906zm1.806-.722c.328.107.612.319.807.604.163.228.277.487.335.762a3.6 3.6 0 01.092.781 3.15 3.15 0 01-.381 1.596 1.689 1.689 0 01-1.582.88h-2.036v-4.722h2.036a2.35 2.35 0 01.716.099h.013zm3.27 2.837h1.196l-.591-1.859-.605 1.859zm.059-2.936h1.117l1.674 4.722h-1.07l-.309-.972h-1.74l-.328.972h-1.031l1.687-4.722zm4.295 4.722h-.985v-4.722h.985v4.722zm.9-4.722h.985v3.875h2.345v.847h-3.33v-4.722zm6.725 0h1.156l-1.583 2.949v1.773h-1.044v-1.773l-1.635-2.949h1.162l.979 2.056.965-2.056zm35.555-.23h.985v3.882h2.338v.847h-3.323v-4.729zm4.912 4.729h-.978v-4.729h.978v4.729zm.907-4.729h1.031l1.884 3.284v-3.284h.92v4.729h-.985l-1.931-3.356v3.356h-.919v-4.729zm8.254.841h-2.502v1.005h2.292v.821h-2.292v1.215h2.627v.847h-3.579v-4.729h3.468l-.014.841zm2.174 2.101h1.235l-.591-1.858-.644 1.858zm.059-2.942h1.117l1.675 4.729h-1.071l-.302-.972h-1.74l-.329.972h-1.031l1.681-4.729zm4.381.821v1.274h1.116c.17.01.34-.017.499-.078a.536.536 0 00.296-.532.582.582 0 00-.283-.578 1.107 1.107 0 00-.479-.086h-1.149zm2.574-.367c.101.12.183.255.243.4.06.157.089.325.086.493-.001.23-.059.456-.171.656a.913.913 0 01-.559.46.938.938 0 01.467.375c.1.233.145.487.131.742v.315a2.937 2.937 0 000 .44.401.401 0 00.062.155.402.402 0 00.122.114v.118h-1.09c0-.105-.053-.19-.066-.249a2.142 2.142 0 01-.039-.407v-.44a.878.878 0 00-.164-.605.906.906 0 00-.598-.151h-1.018v1.852h-.965v-4.728h2.318a2.2 2.2 0 01.762.125c.185.069.35.184.479.335zm30.728.459h.985v3.881h2.345v.848h-3.33v-4.729zm5.3 2.942h1.202l-.591-1.858-.611 1.858zm.066-2.942h1.116l1.675 4.729h-1.077l-.302-.972h-1.741l-.328.972h-1.031l1.688-4.729zm4.098 3.271a.922.922 0 00.177.486 1.015 1.015 0 00.821.289c.193.006.387-.021.571-.079a.55.55 0 00.414-.545.394.394 0 00-.21-.361 2.157 2.157 0 00-.657-.224l-.499-.111a3.294 3.294 0 01-1.018-.362 1.141 1.141 0 01-.479-1.024 1.376 1.376 0 01.112-.58c.08-.182.198-.345.347-.477a1.97 1.97 0 011.36-.421c.456-.013.904.126 1.274.394a1.438 1.438 0 01.551 1.156h-.945a.695.695 0 00-.375-.611 1.276 1.276 0 00-.571-.118 1.053 1.053 0 00-.611.158.48.48 0 00-.229.427.412.412 0 00.223.381c.198.086.405.152.617.197l.814.19c.291.058.566.177.808.348a1.14 1.14 0 01.427.966 1.364 1.364 0 01-.499 1.07c-.398.31-.896.462-1.399.427a2.245 2.245 0 01-1.451-.42 1.391 1.391 0 01-.532-1.156h.959zm7.105-3.271v.841h-1.418v3.888h-.992v-3.888h-1.412v-.841h3.822zm5.372.854c-.209.225-.4.467-.571.722a6.045 6.045 0 00-.965 2.128 4.283 4.283 0 00-.158 1.025h-.933c.054-.93.336-1.833.821-2.627.235-.422.52-.815.848-1.169h-2.325v-.821h3.283v.742z" clip-rule="evenodd"/><path fill="#fff" fill-rule="evenodd" d="M489.135 107.08h1.202l-.591-1.865-.611 1.865zm.066-2.942h1.116l1.669 4.729h-1.071l-.302-.979h-1.74l-.329.979h-1.031l1.688-4.729zm4.347.821v3.087h.907a.994.994 0 00.978-.696c.106-.288.158-.593.151-.9a2.182 2.182 0 00-.23-1.103.932.932 0 00-.899-.388h-.907zm1.806-.722c.329.107.613.319.808.604.162.229.276.488.335.762.058.256.089.518.092.781a3.15 3.15 0 01-.381 1.596 1.7 1.7 0 01-1.583.887h-2.035v-4.729h2.035a2.53 2.53 0 01.729.105v-.006zm2.936.722v3.087h.913a.99.99 0 00.972-.696c.106-.288.157-.593.151-.9a2.213 2.213 0 00-.223-1.103.947.947 0 00-.9-.388h-.913zm1.806-.722c.329.105.614.318.808.604.162.229.275.488.335.762.058.256.089.518.092.781a3.096 3.096 0 01-.381 1.596 1.71 1.71 0 01-1.583.887h-2.003v-4.729h2.036c.236.002.47.037.696.105v-.006zm7.237-.099v.834h-1.431v3.868h-.999v-3.894h-1.418v-.834l3.848.026zm3.941 2.358a1.978 1.978 0 00-.342-1.235 1.223 1.223 0 00-1.865 0 1.906 1.906 0 00-.355 1.235c-.028.438.097.872.355 1.228a1.214 1.214 0 001.447.319c.161-.075.303-.184.418-.319.25-.359.371-.792.342-1.228zm.275 1.97a2.457 2.457 0 01-3.099 0 2.517 2.517 0 01-.716-1.97 2.484 2.484 0 01.716-1.97 2.45 2.45 0 013.099 0 2.482 2.482 0 01.716 1.97 2.522 2.522 0 01-.716 1.944v.026zm4.249-3.507v3.087h.913a.997.997 0 00.979-.696c.106-.288.157-.593.151-.9a2.192 2.192 0 00-.23-1.103.946.946 0 00-.9-.388h-.913zm1.813-.722c.326.107.608.32.801.604.164.228.28.487.342.762.056.256.084.518.085.781a3.157 3.157 0 01-.374 1.596 1.707 1.707 0 01-1.583.887h-2.042v-4.729h2.042c.247 0 .492.035.729.105v-.006zm3.264 2.843h1.202l-.591-1.865-.611 1.865zm.066-2.942h1.116l1.668 4.729h-1.07l-.303-.979h-1.74l-.328.979h-1.031l1.688-4.729zm4.104 3.264a.9.9 0 00.177.486 1.01 1.01 0 00.821.289c.191.008.382-.016.565-.072a.55.55 0 00.414-.552.403.403 0 00-.204-.361 2.15 2.15 0 00-.656-.223l-.5-.112a3.1 3.1 0 01-1.017-.361 1.145 1.145 0 01-.48-1.025 1.356 1.356 0 01.46-1.051c.385-.304.87-.454 1.359-.42.457-.013.905.126 1.274.394a1.434 1.434 0 01.552 1.149h-.952a.663.663 0 00-.368-.604 1.281 1.281 0 00-.578-.118 1.092 1.092 0 00-.604.151.504.504 0 00-.23.434.406.406 0 00.056.22c.04.066.098.12.167.154.197.092.404.159.618.197l.814.197c.29.056.565.172.808.341a1.164 1.164 0 01.42.966 1.38 1.38 0 01-.493 1.077 2.082 2.082 0 01-1.398.427 2.25 2.25 0 01-1.452-.421 1.415 1.415 0 01-.532-1.162h.959zm3.658 1.438v-4.728h.979v1.799h1.832v-1.799h.978v4.728h-.978v-2.114h-1.846v2.114h-.965zm5.707-3.881v1.038h1.162c.176.005.349-.033.506-.112a.464.464 0 00.19-.42.419.419 0 00-.256-.434 1.712 1.712 0 00-.564-.072h-1.038zm0 1.826v1.261h1.162c.164.005.328-.024.48-.086a.602.602 0 00.315-.591.504.504 0 00-.302-.506 1.174 1.174 0 00-.48-.078h-1.175zm2.587-2.148c.147.212.223.465.217.723.013.25-.064.497-.217.696a1.152 1.152 0 01-.361.269c.223.077.414.224.545.42.128.207.193.447.184.69a1.409 1.409 0 01-.545 1.129 1.428 1.428 0 01-.538.237 3.543 3.543 0 01-.657.065h-2.141v-4.728h2.298a1.484 1.484 0 011.215.499zm4.565 1.859a1.973 1.973 0 00-.348-1.235 1.237 1.237 0 00-.933-.433 1.216 1.216 0 00-.932.433 1.903 1.903 0 00-.349 1.235c-.03.437.093.871.349 1.228a1.224 1.224 0 001.865 0c.252-.358.375-.791.348-1.228zm.269 1.97a2.444 2.444 0 01-3.093 0 2.544 2.544 0 01-.723-1.97 2.507 2.507 0 01.723-1.97 2.442 2.442 0 013.093 0 2.496 2.496 0 01.716 1.97 2.544 2.544 0 01-.716 1.944v.026zm2.765-1.386h1.195l-.585-1.865-.61 1.865zm.059-2.942h1.116l1.675 4.729h-1.071l-.308-.979h-1.741l-.335.952h-1.031l1.695-4.702zm4.38.821v1.254h1.117c.17.009.34-.017.499-.078a.522.522 0 00.295-.532.589.589 0 00-.282-.578 1.151 1.151 0 00-.486-.079l-1.143.013zm2.568-.368a1.314 1.314 0 01.335.893c-.004.23-.062.455-.171.657a.961.961 0 01-.558.46.859.859 0 01.46.374c.106.23.154.483.138.736v.315a2.157 2.157 0 000 .44.372.372 0 00.059.154.37.37 0 00.118.115v.105H550.9a2.46 2.46 0 01-.111-.663v-.44a.624.624 0 00-.162-.599.613.613 0 00-.6-.156h-1.018v1.858h-.965v-4.728h2.318a2.24 2.24 0 01.762.118c.188.078.352.202.479.361zm2.141.368v3.087h.913a.984.984 0 00.972-.696c.109-.287.16-.593.151-.9a2.203 2.203 0 00-.224-1.103.949.949 0 00-.899-.388h-.913zm1.812-.722c.327.107.609.32.802.604.161.23.277.488.341.762.056.256.085.518.086.781a3.148 3.148 0 01-.375 1.596 1.717 1.717 0 01-1.589.887h-2.036v-4.729h2.036c.249-.001.497.035.735.105v-.006z" clip-rule="evenodd"/></svg>