<svg xmlns:xlink="http://www.w3.org/1999/xlink" fill="none" viewBox="0 0 348 324"><rect width="322" height="347.091" x="348" fill="url(#pattern0)" rx="33.455" transform="rotate(90 348 0)"/><path fill="#F7A501" fill-rule="evenodd" d="M122.131 85.39l156.096-10.445 12.995 10.445v160.492H122.131l-13.118-10.81L122.131 85.39z" clip-rule="evenodd"/><path fill="#FFC035" fill-rule="evenodd" d="M109.124 74.612H278.2v160.491H109.124V74.612z" clip-rule="evenodd"/><path fill="#DB9200" fill-rule="evenodd" d="M108.954 235.167l13.145 10.854 169.174-.079-13.081-10.902-169.238.127z" clip-rule="evenodd"/><path fill="#F7A501" fill-rule="evenodd" d="M131.716 91.16l9.751 8.932v114.282l-10.275.222.524-123.436z" clip-rule="evenodd"/><path fill="#DB9200" fill-rule="evenodd" d="M131.886 91.255l9.72 8.98 118.922-.626V91.48l-128.642-.226z" clip-rule="evenodd"/><path fill="#FBDD99" fill-rule="evenodd" d="M144.769 98.36h115.826v116.724H144.769a6.894 6.894 0 01-4.891-1.956 6.896 6.896 0 01-2.074-4.841V105.161a6.886 6.886 0 014.324-6.308 6.886 6.886 0 012.641-.492z" clip-rule="evenodd"/><path fill="#fff" fill-rule="evenodd" d="M217.478 111.651h26.904a6.342 6.342 0 016.343 6.341v72.332a6.344 6.344 0 01-6.343 6.341h-26.904a6.345 6.345 0 01-6.343-6.341v-72.332a6.34 6.34 0 016.343-6.341zm-60.848 1.328h40.457c3.5 0 6.342 2.532 6.342 5.655v73.275c0 3.127-2.842 5.659-6.342 5.659H156.63c-3.505 0-6.343-2.532-6.343-5.659v-73.275c0-3.123 2.838-5.655 6.343-5.655z" clip-rule="evenodd"/><path fill="#F7A501" fill-rule="evenodd" d="M95.433 253.027l212.969-9.003 10.017 9.003v70.05H95.433v-70.05z" clip-rule="evenodd"/><path fill="#FFC035" fill-rule="evenodd" d="M85.602 244.261h222.986v70.05H85.602v-70.05z" clip-rule="evenodd"/><path fill="#DB9200" fill-rule="evenodd" d="M85.633 313.986l9.783 9.134 223.443.092-10.176-8.94-223.05-.286z" clip-rule="evenodd"/><path fill="#F96132" fill-rule="evenodd" d="M31.135 28.743h168.18a6.341 6.341 0 016.342 6.34v93.232l8.539 6.261-8.539 7.054v20.234a6.341 6.341 0 01-6.342 6.34H31.135a6.344 6.344 0 01-6.342-6.34V35.084a6.339 6.339 0 016.342-6.341z" clip-rule="evenodd"/><path fill="#FF906E" fill-rule="evenodd" d="M43.218 41.788H185.23a6.108 6.108 0 015.642 3.764c.307.74.466 1.534.466 2.335v98.7a6.102 6.102 0 01-6.108 6.091H43.218a6.098 6.098 0 01-6.105-6.099V47.887a6.098 6.098 0 016.105-6.099z" clip-rule="evenodd"/><path fill="#FFC4B2" fill-rule="evenodd" d="M51.93 64.748h123.787c3.809 0 6.901 4.01 6.901 8.96v62.156c0 4.946-3.092 8.956-6.901 8.956H51.931c-3.814 0-6.902-4.01-6.902-8.956V73.708c0-4.95 3.088-8.96 6.902-8.96zm1.658-15.827h74.92a3.77 3.77 0 013.766 3.765 3.766 3.766 0 01-3.766 3.765h-74.92a3.766 3.766 0 01-2.663-6.427 3.766 3.766 0 012.663-1.103zm122.783-1.335h1.585a3.238 3.238 0 110 6.475h-1.585a3.237 3.237 0 01-3.219-3.226 3.227 3.227 0 011.982-2.997c.392-.164.812-.25 1.237-.252z" clip-rule="evenodd"/><path stroke="#35416B" stroke-linecap="round" stroke-linejoin="round" stroke-width="3.183" d="M58.67 75.848l.396 54.365 114.463-.396"/><path stroke="#fff" stroke-linecap="round" stroke-linejoin="round" stroke-width="4.824" d="M71.823 111.961l11.583-17.274L99.9 112.745l17.866-21.002 15.115 2.944 14.921-14.528 17.473.591"/><defs><pattern id="pattern0" width="1" height="1" patternContentUnits="objectBoundingBox"><use transform="matrix(.00221 0 0 .00205 -.102 -.09)" xlink:href="#image0"/></pattern></defs></svg>