<svg fill="none" viewBox="0 0 119 119"><rect width="119" height="119" fill="#F7A501" rx="8"/><path fill="#35416B" fill-rule="evenodd" d="M16.459 31.396h76.44l5.492 63.879L92.899 100h-76.44V31.396z" clip-rule="evenodd"/><path fill="#6C8BB1" fill-rule="evenodd" d="M21.949 26.231h76.442v68.604H21.949V26.231z" clip-rule="evenodd"/><path fill="#4F6E94" fill-rule="evenodd" d="M21.976 26.118l-5.497 5.19-.06 68.772 5.578-5.26-.021-68.702zm70.973 5.485l.075 54.975-4.723-.216V36.07l4.648-4.467z" clip-rule="evenodd"/><path fill="#35416B" fill-rule="evenodd" d="M93.276 31.424l-65.707.497V36.3l61.26-.256 4.447-4.62z" clip-rule="evenodd"/><path fill="#9ABCE6" fill-rule="evenodd" d="M32.856 37.878h50.119c1.5 0 2.718 1.097 2.718 2.45v41.567c0 1.354-1.217 2.45-2.718 2.45h-50.12c-1.5 0-2.716-1.096-2.716-2.45V40.328c0-1.353 1.216-2.45 2.717-2.45z" clip-rule="evenodd"/><path fill="#fff" fill-rule="evenodd" d="M37.913 49.685h16.273c1.468 0 2.66 1.491 2.66 3.33V78.46c0 1.838-1.192 3.333-2.66 3.333H37.913c-1.47 0-2.66-1.492-2.66-3.333V53.011c0-1.84 1.19-3.326 2.66-3.326zm24.73-.01h15.039c1.36 0 2.459 1.362 2.459 3.044v25.928c0 1.685-1.1 3.044-2.46 3.044H62.643c-1.357 0-2.458-1.362-2.458-3.044V52.718c0-1.68 1.1-3.044 2.458-3.044zm-26.72-7.366h20.253a.69.69 0 01.473.187.641.641 0 01.196.454v1.446a.622.622 0 01-.196.455.671.671 0 01-.473.188H35.923a.683.683 0 01-.473-.188.63.63 0 01-.196-.455v-1.449a.63.63 0 01.197-.452.682.682 0 01.472-.186z" clip-rule="evenodd"/><path stroke="#F96132" stroke-linecap="round" stroke-linejoin="round" stroke-width="1.71" d="M11.762 56.872l34.067 17.51 66.138-66.083"/><path fill="#fff" fill-rule="evenodd" stroke="#F96132" stroke-linecap="round" stroke-linejoin="round" stroke-width="1.485" d="M110.317 7.794a1.715 1.715 0 01.298-.99c.199-.294.485-.524.821-.662a1.91 1.91 0 011.066-.11c.359.065.689.231.95.478.26.246.438.562.511.906.073.344.038.7-.101 1.026a1.779 1.779 0 01-.678.798c-.303.196-.66.3-1.026.3a1.896 1.896 0 01-.701-.129 1.841 1.841 0 01-.596-.377 1.766 1.766 0 01-.401-.568 1.695 1.695 0 01-.143-.672zM10 56.481a1.72 1.72 0 01.298-.99c.2-.294.485-.525.822-.662a1.911 1.911 0 011.066-.111c.358.065.69.232.95.479.26.246.437.562.51.906.073.344.038.7-.1 1.026a1.786 1.786 0 01-.678.798c-.304.196-.66.3-1.026.3a1.892 1.892 0 01-.701-.129 1.834 1.834 0 01-.596-.377 1.754 1.754 0 01-.4-.568 1.696 1.696 0 01-.145-.672zm33.742 17.37a1.72 1.72 0 01.298-.99c.2-.294.486-.525.822-.662a1.911 1.911 0 011.066-.11c.359.065.69.231.95.478.26.246.438.562.51.906.074.344.039.7-.1 1.026a1.787 1.787 0 01-.678.798c-.303.196-.66.3-1.026.3a1.87 1.87 0 01-1.297-.506 1.726 1.726 0 01-.545-1.24z" clip-rule="evenodd"/><path fill="#F96132" fill-rule="evenodd" stroke="#F96132" stroke-linecap="round" stroke-linejoin="round" stroke-width=".021" d="M31.755 81.207h11.937l2.048-2.262 2.034 2.262H60.06c.283 0 .553.108.753.3.2.191.311.451.311.722v20.625c0 .271-.112.531-.311.723-.2.191-.47.299-.753.299H31.755c-.282 0-.553-.108-.752-.299a1.003 1.003 0 01-.312-.723v-20.62a.987.987 0 01.31-.726 1.102 1.102 0 01.754-.3z" clip-rule="evenodd"/><path fill="#fff" fill-rule="evenodd" stroke="#F96132" stroke-linecap="round" stroke-linejoin="round" stroke-width=".021" d="M34.01 84.357h23.762v16.137H34.01V84.357z" clip-rule="evenodd"/><path fill="#35416B" fill-rule="evenodd" stroke="#35416B" stroke-linecap="round" stroke-linejoin="round" stroke-width=".021" d="M45.696 86.966c.327 0 .64.125.872.348.231.222.361.524.362.838v5.16c0 .314-.13.616-.362.838a1.276 1.276 0 01-1.345.258 1.237 1.237 0 01-.4-.257 1.184 1.184 0 01-.268-.385 1.146 1.146 0 01-.094-.454v-5.16c0-.315.13-.616.362-.839a1.26 1.26 0 01.873-.347zm.02 8.697h.044a1.166 1.166 0 01.796.317c.105.1.188.22.244.351a1.046 1.046 0 01-.244 1.18 1.15 1.15 0 01-.796.316h-.043a1.15 1.15 0 01-.796-.317 1.062 1.062 0 01-.33-.764c0-.287.118-.563.33-.766a1.15 1.15 0 01.796-.317z" clip-rule="evenodd"/></svg>