<svg xmlns:xlink="http://www.w3.org/1999/xlink" fill="none" viewBox="0 0 503 603"><rect width="503" height="521" y="26" fill="#F96132" rx="66.485"/><g clip-path="url(#clip0)"><path fill="#fff" fill-rule="evenodd" stroke="#35416B" stroke-linecap="round" stroke-linejoin="round" stroke-width="6.583" d="M116.963 500.899a8.072 8.072 0 01-4.964 7.489 8.066 8.066 0 01-10.534-10.571 8.058 8.058 0 017.507-4.937 8.006 8.006 0 017.991 8.019z" clip-rule="evenodd"/><path fill="#fff" fill-rule="evenodd" d="M109.137 76.08l.454 415.624-.454-415.623z" clip-rule="evenodd"/><path stroke="#35416B" stroke-linecap="round" stroke-linejoin="round" stroke-width="6.583" d="M109.137 76.08l.454 415.624"/><path fill="#fff" fill-rule="evenodd" stroke="#35416B" stroke-linecap="round" stroke-linejoin="round" stroke-width="6.583" d="M117.888 76.154a8.06 8.06 0 01-4.968 7.486 8.062 8.062 0 01-11.011-5.904 8.06 8.06 0 013.484-8.28 8.067 8.067 0 014.505-1.326 8.011 8.011 0 017.387 4.959c.401.972.605 2.014.603 3.065zm-.925 212.375a8.076 8.076 0 01-1.345 4.499 8.065 8.065 0 11-6.646-12.523 8.011 8.011 0 017.388 4.959c.4.972.605 2.014.603 3.065z" clip-rule="evenodd"/><path fill="#F7A501" fill-rule="evenodd" d="M383.233 8.86v134.76c0 4.895-3.708 8.547-14.89 8.547l-194.447-.205c-11.183 0-13.42-3.447-13.42-8.342V88.49l-14.198-12.25 14.198-13.062V8.86c0-4.895.909-8.859 12.091-8.859h198.32c11.165 0 12.346 3.964 12.346 8.86z" clip-rule="evenodd"/><path fill="#fff" fill-rule="evenodd" d="M196.192 13.062h158.549c8.695 0 15.737 6.723 15.737 15.026v96.303c0 8.303-7.042 15.027-15.737 15.027H196.192c-8.689 0-15.731-6.724-15.731-15.027V28.088c-.017-8.303 7.042-15.027 15.731-15.027z" clip-rule="evenodd"/><path stroke="#35416B" stroke-linecap="round" stroke-linejoin="round" stroke-width="6.583" d="M210.878 40.428l.233 75.769h138.758"/><path stroke="#35416B" stroke-dasharray="3.29 3.29" stroke-linecap="round" stroke-linejoin="round" stroke-width="1.317" d="M213.882 40.428h134.629M213.059 59.731h134.629M213.882 78.114h134.629M213.343 96.496h134.635" opacity=".5"/><path stroke="#F96132" stroke-linecap="round" stroke-linejoin="round" stroke-width="2.633" d="M219.556 98.79l22.222-20.727 18.895 7.706 19.632-27.702 17.975 12.494 32.836-29.718"/><path fill="url(#pattern0)" d="M329.759 104.441h79.508v77.234h-79.508z"/><path stroke="#fff" stroke-linecap="round" stroke-linejoin="round" stroke-width="3.291" d="M368.343 150.463l.096-14.708 4.424 4.395-4.384-4.543-4.469 4.663"/><path fill="#F7A501" fill-rule="evenodd" d="M383.233 221.234v134.761c0 4.895-3.708 8.518-14.89 8.518l-194.447-.204c-11.183 0-13.42-3.447-13.42-8.342v-55.114l-14.198-12.25 14.198-13.061v-54.308c0-4.895.909-8.859 12.091-8.859h198.32c11.165 0 12.346 3.964 12.346 8.859z" clip-rule="evenodd"/><path fill="#fff" fill-rule="evenodd" d="M196.192 225.437h158.549c8.695 0 15.737 6.723 15.737 15.026v96.303c0 8.303-7.042 15.027-15.737 15.027H196.192c-8.689 0-15.731-6.724-15.731-15.027v-96.303c-.017-8.325 7.042-15.026 15.731-15.026z" clip-rule="evenodd"/><path stroke="#35416B" stroke-linecap="round" stroke-linejoin="round" stroke-width="6.583" d="M210.878 252.803l.233 75.768h138.758"/><path stroke="#35416B" stroke-dasharray="3.29 3.29" stroke-linecap="round" stroke-linejoin="round" stroke-width="1.317" d="M207.885 253.354h134.629m-134.089 18.201h134.629m-129.172 18.934h134.629m-135.168 18.382h134.635" opacity=".5"/><path fill="#F7A501" fill-rule="evenodd" d="M383.233 433.609V568.37c0 4.895-3.708 8.518-14.89 8.518l-194.447-.204c-11.183 0-13.42-3.447-13.42-8.343v-55.097l-14.198-12.249 14.198-13.062v-54.324c0-4.895.909-8.859 12.091-8.859h198.32c11.165 0 12.346 3.964 12.346 8.859z" clip-rule="evenodd"/><path fill="#fff" fill-rule="evenodd" d="M196.192 437.811h158.549c8.695 0 15.737 6.724 15.737 15.027v96.309c0 8.297-7.042 15.021-15.737 15.021H196.192c-8.689 0-15.731-6.724-15.731-15.021v-96.309c-.017-8.308 7.042-15.027 15.731-15.027z" clip-rule="evenodd"/><path stroke="#35416B" stroke-linecap="round" stroke-linejoin="round" stroke-width="6.583" d="M210.878 465.178l.233 75.768h138.758"/><path stroke="#35416B" stroke-dasharray="3.29 3.29" stroke-linecap="round" stroke-linejoin="round" stroke-width="1.317" d="M207.613 467.677h134.629m-134.09 18.201h134.629m-128.899 16.985h134.629m-135.168 18.383h134.635" opacity=".5"/><path stroke="#F96132" stroke-linecap="round" stroke-linejoin="round" stroke-width="2.633" d="M221.714 499.297l19.309-14.419 17.662 26.663 20.717-11.358 17.509 21.58 20.132-6.128 23.637 14.885M215.257 292.715l28.963-10.79 21.581 13.061 28.963-12.493 19.877 10.79 21.581-10.222"/><path fill="url(#pattern1)" d="M328.629 315.686h79.508v77.233h-79.508z"/><path stroke="#fff" stroke-linecap="round" stroke-linejoin="round" stroke-width="3.291" d="M368.422 347.266l-.113 14.703-4.413-4.395 4.373 4.543 4.481-4.657"/><path fill="url(#pattern2)" d="M329.867 525.767h79.508v77.234h-79.508z"/><path stroke="#fff" stroke-linecap="round" stroke-linejoin="round" stroke-width="3.291" d="M369.149 554.246l-.187 11.585"/><path fill="#fff" fill-rule="evenodd" d="M366.719 570.96a1.985 1.985 0 012.365-1.969 1.988 1.988 0 01-.378 3.939 1.97 1.97 0 01-1.834-1.213 1.95 1.95 0 01-.153-.757z" clip-rule="evenodd"/></g><defs><pattern id="pattern0" width="1" height="1" patternContentUnits="objectBoundingBox"><use transform="scale(.00714 .00735)" xlink:href="#image0"/></pattern><pattern id="pattern1" width="1" height="1" patternContentUnits="objectBoundingBox"><use transform="scale(.00714 .00735)" xlink:href="#image1"/></pattern><pattern id="pattern2" width="1" height="1" patternContentUnits="objectBoundingBox"><use transform="scale(.00714 .00735)" xlink:href="#image2"/></pattern><clipPath id="clip0"><path fill="#fff" d="M0 0h311.374v603H0z" transform="translate(98)"/></clipPath></defs></svg>