<svg xmlns:xlink="http://www.w3.org/1999/xlink" fill="none" viewBox="0 0 348 370"><rect width="348" height="342.465" y="6" fill="#F96132" rx="45.998"/><g clip-path="url(#clip0)"><path fill="#fff" fill-rule="evenodd" stroke="#35416B" stroke-linecap="round" stroke-linejoin="round" stroke-width="4.038" d="M89.632 307.256a4.946 4.946 0 11-4.901-4.919 4.915 4.915 0 014.9 4.919z" clip-rule="evenodd"/><path fill="#fff" fill-rule="evenodd" d="M84.831 46.669l.279 254.947-.279-254.947z" clip-rule="evenodd"/><path stroke="#35416B" stroke-linecap="round" stroke-linejoin="round" stroke-width="4.038" d="M84.831 46.669l.279 254.947"/><path fill="#fff" fill-rule="evenodd" stroke="#35416B" stroke-linecap="round" stroke-linejoin="round" stroke-width="4.038" d="M90.2 46.714a4.947 4.947 0 11-4.902-4.922 4.913 4.913 0 014.902 4.922zm-.568 130.273a4.946 4.946 0 11-4.901-4.923 4.926 4.926 0 013.47 1.446 4.918 4.918 0 011.431 3.477z" clip-rule="evenodd"/><path fill="#F7A501" fill-rule="evenodd" d="M252.965 5.434v82.664c0 3.003-2.275 5.243-9.134 5.243l-119.276-.126c-6.859 0-8.231-2.114-8.231-5.117V54.28l-8.709-7.514 8.709-8.012V5.434c0-3.003.557-5.434 7.416-5.434h121.652c6.849 0 7.573 2.431 7.573 5.434z" clip-rule="evenodd"/><path fill="#fff" fill-rule="evenodd" d="M138.232 8.012h97.256c5.333 0 9.653 4.125 9.653 9.217v59.074c0 5.093-4.32 9.217-9.653 9.217h-97.256c-5.33 0-9.65-4.124-9.65-9.217V17.229c-.01-5.092 4.32-9.217 9.65-9.217z" clip-rule="evenodd"/><path stroke="#35416B" stroke-linecap="round" stroke-linejoin="round" stroke-width="4.038" d="M147.241 24.8l.143 46.476h85.115"/><path stroke="#35416B" stroke-dasharray="2.02 2.02" stroke-linecap="round" stroke-linejoin="round" stroke-width=".808" d="M149.083 24.8h82.583m-83.088 11.84h82.583m-82.078 11.276h82.583m-82.914 11.276h82.587" opacity=".5"/><path stroke="#F96132" stroke-linecap="round" stroke-linejoin="round" stroke-width="1.615" d="M152.563 60.6l13.632-12.716 11.59 4.727 12.043-16.992 11.025 7.664 20.143-18.23"/><path fill="url(#pattern0)" d="M220.163 64.065h48.771v47.376h-48.771z"/><path stroke="#fff" stroke-linecap="round" stroke-linejoin="round" stroke-width="2.019" d="M243.831 92.296l.059-9.023 2.714 2.697-2.689-2.787-2.742 2.86"/><path fill="#F7A501" fill-rule="evenodd" d="M252.965 135.707v82.664c0 3.003-2.275 5.225-9.134 5.225l-119.276-.125c-6.859 0-8.231-2.115-8.231-5.118v-33.807l-8.709-7.514 8.709-8.012v-33.313c0-3.003.557-5.434 7.416-5.434h121.652c6.849 0 7.573 2.431 7.573 5.434z" clip-rule="evenodd"/><path fill="#fff" fill-rule="evenodd" d="M138.232 138.285h97.256c5.333 0 9.653 4.124 9.653 9.217v59.074c0 5.092-4.32 9.217-9.653 9.217h-97.256c-5.33 0-9.65-4.125-9.65-9.217v-59.074c-.01-5.107 4.32-9.217 9.65-9.217z" clip-rule="evenodd"/><path stroke="#35416B" stroke-linecap="round" stroke-linejoin="round" stroke-width="4.038" d="M147.241 155.072l.143 46.477h85.115"/><path stroke="#35416B" stroke-dasharray="2.02 2.02" stroke-linecap="round" stroke-linejoin="round" stroke-width=".808" d="M145.405 155.41h82.583m-82.252 11.164h82.582m-79.235 11.614h82.583m-82.914 11.277h82.587" opacity=".5"/><path fill="#F7A501" fill-rule="evenodd" d="M252.965 265.98v82.663c0 3.003-2.275 5.226-9.134 5.226l-119.276-.126c-6.859 0-8.231-2.114-8.231-5.117v-33.797l-8.709-7.514 8.709-8.012V265.98c0-3.003.557-5.434 7.416-5.434h121.652c6.849 0 7.573 2.431 7.573 5.434z" clip-rule="evenodd"/><path fill="#fff" fill-rule="evenodd" d="M138.232 268.558h97.256c5.333 0 9.653 4.124 9.653 9.217v59.077c0 5.089-4.32 9.214-9.653 9.214h-97.256c-5.33 0-9.65-4.125-9.65-9.214v-59.077c-.01-5.096 4.32-9.217 9.65-9.217z" clip-rule="evenodd"/><path stroke="#35416B" stroke-linecap="round" stroke-linejoin="round" stroke-width="4.038" d="M147.241 285.345l.143 46.477h85.115"/><path stroke="#35416B" stroke-dasharray="2.02 2.02" stroke-linecap="round" stroke-linejoin="round" stroke-width=".808" d="M145.238 286.877h82.582m-82.252 11.165h82.583m-79.068 10.419h82.583m-82.914 11.276h82.587" opacity=".5"/><path stroke="#F96132" stroke-linecap="round" stroke-linejoin="round" stroke-width="1.615" d="M153.887 306.274l11.845-8.845 10.834 16.355 12.708-6.967 10.74 13.237 12.35-3.758 14.498 9.13m-76.935-145.872l17.766-6.619 13.238 8.012 17.766-7.663 12.193 6.618 13.238-6.27"/><path fill="url(#pattern1)" d="M219.47 193.645h48.771v47.376H219.47z"/><path stroke="#fff" stroke-linecap="round" stroke-linejoin="round" stroke-width="2.019" d="M243.88 213.017l-.07 9.018-2.707-2.696 2.683 2.787 2.748-2.857"/><path fill="url(#pattern2)" d="M220.229 322.51H269v47.376h-48.771z"/><path stroke="#fff" stroke-linecap="round" stroke-linejoin="round" stroke-width="2.019" d="M244.326 339.98l-.115 7.106"/><path fill="#fff" fill-rule="evenodd" d="M242.835 350.232a1.216 1.216 0 01.745-1.134 1.217 1.217 0 011.669.882 1.219 1.219 0 01-1.195 1.461 1.214 1.214 0 01-1.219-1.209z" clip-rule="evenodd"/></g><defs><pattern id="pattern0" width="1" height="1" patternContentUnits="objectBoundingBox"><use transform="scale(.00714 .00735)" xlink:href="#image0"/></pattern><pattern id="pattern1" width="1" height="1" patternContentUnits="objectBoundingBox"><use transform="scale(.00714 .00735)" xlink:href="#image1"/></pattern><pattern id="pattern2" width="1" height="1" patternContentUnits="objectBoundingBox"><use transform="scale(.00714 .00735)" xlink:href="#image2"/></pattern><clipPath id="clip0"><path fill="#fff" d="M0 0h191v369.886H0z" transform="translate(78)"/></clipPath></defs></svg>