<svg xmlns="http://www.w3.org/2000/svg" width="232" height="292" fill="none" viewBox="0 0 232 292"><path fill="#4F6E94" fill-rule="evenodd" d="M48.1787 73.5L37.6803 83.83L37.5703 220.58L48.2187 210.14L48.1787 73.5Z" clip-rule="evenodd"/><path fill="#4F6E94" fill-rule="evenodd" d="M183.758 84.41L183.898 193.73L174.899 193.3V93.3L183.758 84.41Z" clip-rule="evenodd"/><path fill="#fff" fill-rule="evenodd" stroke="#F96132" stroke-linecap="round" stroke-linejoin="round" stroke-width="2.84" d="M25.3021 133.88C25.2924 133.172 25.4905 132.477 25.872 131.88C26.2563 131.3 26.802 130.844 27.4417 130.57C27.9216 130.365 28.4411 130.27 28.9625 130.29C29.4839 130.311 29.9942 130.447 30.4564 130.689C30.9186 130.931 31.3213 131.273 31.6351 131.69C31.949 132.107 32.1662 132.589 32.271 133.1C32.4124 133.785 32.3461 134.496 32.0807 135.143C31.8153 135.789 31.3628 136.342 30.7813 136.73C30.1901 137.125 29.4926 137.331 28.7816 137.32C28.3227 137.327 27.8671 137.242 27.4417 137.07C26.5872 136.716 25.9053 136.041 25.5421 135.19C25.3824 134.772 25.3011 134.328 25.3021 133.88V133.88Z" clip-rule="evenodd"/><path fill="#fff" fill-rule="evenodd" stroke="#F96132" stroke-linecap="round" stroke-linejoin="round" stroke-width="2.84" d="M89.7619 168.42C89.7486 167.711 89.947 167.015 90.3318 166.42C90.7139 165.838 91.2602 165.382 91.9015 165.11C92.5315 164.839 93.2276 164.763 93.9012 164.89C94.5944 165.033 95.2284 165.382 95.721 165.89C96.2307 166.373 96.5797 167.002 96.7208 167.69C96.8261 168.201 96.8163 168.729 96.6924 169.236C96.5685 169.743 96.3334 170.216 96.0042 170.621C95.675 171.026 95.2599 171.352 94.789 171.577C94.3181 171.802 93.8031 171.919 93.2813 171.92C92.8218 171.923 92.3662 171.835 91.9406 171.661C91.515 171.488 91.1278 171.232 90.8009 170.909C90.4741 170.586 90.2142 170.201 90.0359 169.778C89.8576 169.354 89.7645 168.9 89.7619 168.44V168.42Z" clip-rule="evenodd"/><path fill="#F7A501" d="M189.786 20.5H41.8094C30.7654 20.5 21.8125 29.4543 21.8125 40.5V251.5C21.8125 262.546 30.7654 271.5 41.8094 271.5H189.786C200.83 271.5 209.783 262.546 209.783 251.5V40.5C209.783 29.4543 200.83 20.5 189.786 20.5Z"/><path fill="#35416B" fill-rule="evenodd" d="M37.6401 84H183.618L194.106 211L183.618 220.4H37.6401V84Z" clip-rule="evenodd"/><path fill="#6C8BB1" fill-rule="evenodd" d="M48.1284 73.73H194.106V210.14H48.1284V73.73Z" clip-rule="evenodd"/><path fill="#35416B" fill-rule="evenodd" d="M184.377 84.05L58.8667 85.05V93.76L175.849 93.25L184.377 84.05Z" clip-rule="evenodd"/><path fill="#9ABCE6" fill-rule="evenodd" d="M68.9651 96.8901H164.7C165.363 96.8633 166.024 96.9686 166.645 97.1998C167.266 97.4309 167.835 97.7834 168.319 98.2365C168.803 98.6897 169.192 99.2346 169.463 99.8395C169.734 100.444 169.883 101.097 169.899 101.76V184.42C169.883 185.083 169.734 185.736 169.463 186.341C169.192 186.945 168.803 187.49 168.319 187.944C167.835 188.397 167.266 188.749 166.645 188.98C166.024 189.211 165.363 189.317 164.7 189.29H68.9651C68.3036 189.315 67.6436 189.209 67.0235 188.977C66.4034 188.746 65.8355 188.393 65.3527 187.94C64.87 187.487 64.482 186.942 64.2113 186.338C63.9406 185.734 63.7926 185.082 63.7759 184.42V101.76C63.7926 101.098 63.9406 100.446 64.2113 99.842C64.482 99.2377 64.87 98.6933 65.3527 98.2402C65.8355 97.7872 66.4034 97.4345 67.0235 97.2027C67.6436 96.971 68.3036 96.8647 68.9651 96.8901Z" clip-rule="evenodd"/><path fill="#fff" fill-rule="evenodd" d="M78.6236 120.37H109.709C112.508 120.37 114.788 123.37 114.788 126.99V177.59C114.788 181.24 112.508 184.21 109.709 184.21H78.6236C75.824 184.21 73.5444 181.21 73.5444 177.59V126.98C73.5444 123.32 75.824 120.37 78.6236 120.37Z" clip-rule="evenodd"/><path fill="#fff" fill-rule="evenodd" d="M125.866 120.35H154.592C157.191 120.35 159.291 123.06 159.291 126.35V177.91C159.291 181.26 157.191 183.91 154.592 183.91H125.866C123.267 183.91 121.167 181.2 121.167 177.91V126.4C121.167 123.06 123.267 120.35 125.866 120.35Z" clip-rule="evenodd"/><path fill="#fff" fill-rule="evenodd" d="M74.8242 105.7H113.508C113.847 105.703 114.171 105.838 114.41 106.078C114.65 106.317 114.785 106.641 114.788 106.98V109.85C114.79 110.019 114.756 110.186 114.688 110.34C114.629 110.495 114.537 110.635 114.418 110.75C114.3 110.872 114.157 110.968 113.998 111.03C113.844 111.099 113.677 111.133 113.508 111.13H74.8242C74.4864 111.125 74.1639 110.988 73.925 110.749C73.6861 110.51 73.5496 110.188 73.5444 109.85V106.97C73.5471 106.632 73.6831 106.309 73.9228 106.071C74.1625 105.833 74.4865 105.7 74.8242 105.7V105.7Z" clip-rule="evenodd"/><path stroke="#F96132" stroke-linecap="round" stroke-linejoin="round" stroke-width="3.27" d="M28.6714 134.66L93.7413 169.48L220.082 38.0699"/><path fill="#F96132" fill-rule="evenodd" stroke="#F96132" stroke-linecap="round" stroke-linejoin="round" stroke-width=".04" d="M66.8654 183.05H89.6619L93.5713 178.55L97.4607 183.05H120.927C121.457 183.05 121.966 183.261 122.341 183.636C122.716 184.011 122.927 184.519 122.927 185.05V226.05C122.927 226.58 122.716 227.089 122.341 227.464C121.966 227.839 121.457 228.05 120.927 228.05H66.8654C66.3351 228.05 65.8265 227.839 65.4514 227.464C65.0764 227.089 64.8657 226.58 64.8657 226.05V185.14C64.8686 184.872 64.9229 184.607 65.0257 184.36C65.1263 184.112 65.2754 183.888 65.4643 183.699C65.6532 183.51 65.878 183.361 66.1255 183.26C66.3551 183.14 66.6069 183.068 66.8654 183.05V183.05Z" clip-rule="evenodd"/><path fill="#fff" fill-rule="evenodd" stroke="#F96132" stroke-linecap="round" stroke-linejoin="round" stroke-width=".04" d="M71.1748 189.31H116.558V221.4H71.1748V189.31Z" clip-rule="evenodd"/><path fill="#35416B" fill-rule="evenodd" stroke="#35416B" stroke-linecap="round" stroke-linejoin="round" stroke-width=".04" d="M93.4915 194.5C93.8015 194.5 94.1085 194.56 94.395 194.679C94.6815 194.797 94.9419 194.971 95.1612 195.19C95.5999 195.636 95.8475 196.235 95.8511 196.86V207.14C95.8511 207.766 95.6025 208.366 95.16 208.809C94.7175 209.251 94.1173 209.5 93.4915 209.5C93.1825 209.501 92.8765 209.44 92.5916 209.32C92.3034 209.203 92.0416 209.03 91.8217 208.81C91.6019 208.59 91.4285 208.328 91.3118 208.04C91.192 207.755 91.1308 207.449 91.1318 207.14V196.86C91.1315 196.55 91.1923 196.243 91.3107 195.956C91.429 195.67 91.6027 195.409 91.8217 195.19C92.2672 194.751 92.8663 194.504 93.4915 194.5V194.5Z" clip-rule="evenodd"/><path fill="#35416B" fill-rule="evenodd" stroke="#35416B" stroke-linecap="round" stroke-linejoin="round" stroke-width=".04" d="M93.5315 211.8H93.6114C93.896 211.797 94.1782 211.851 94.4413 211.96C94.6995 212.071 94.9338 212.23 95.1312 212.43C95.5221 212.831 95.7408 213.37 95.7408 213.93C95.7408 214.49 95.5221 215.029 95.1312 215.43C94.7275 215.832 94.1813 216.059 93.6114 216.06H93.5315C93.1064 216.06 92.6908 215.934 92.3374 215.697C91.984 215.461 91.7086 215.125 91.5459 214.733C91.3832 214.34 91.3407 213.908 91.4236 213.491C91.5065 213.074 91.7111 212.691 92.0117 212.39C92.2135 212.196 92.4517 212.044 92.7125 211.943C92.9734 211.842 93.2517 211.793 93.5315 211.8Z" clip-rule="evenodd"/></svg>