<svg xmlns:xlink="http://www.w3.org/1999/xlink" fill="none" viewBox="0 0 678 626"><rect width="587.556" height="552.1" x="59.948" y="34.19" fill="#F7A501" rx="70.912"/><path fill="url(#pattern0)" d="M24 0h661v626H24z" opacity=".2"/><path fill="#35416B" fill-rule="evenodd" d="M215.181 196.906h360.434l25.898 313.51-25.898 23.193H215.181V196.906z" clip-rule="evenodd"/><path fill="#6C8BB1" fill-rule="evenodd" d="M241.071 171.556h360.442v336.703H241.071V171.556z" clip-rule="evenodd"/><path fill="#4F6E94" fill-rule="evenodd" d="M241.198 171l-25.92 25.478L215 534l26.296-25.816L241.198 171zm334.657 26.921l.353 269.813-22.269-1.06v-246.83l21.916-21.923z" clip-rule="evenodd"/><path fill="#35416B" fill-rule="evenodd" d="M577.396 197.042l-309.827 2.442v21.488l288.857-1.255 20.97-22.675z" clip-rule="evenodd"/><path fill="#9ABCE6" fill-rule="evenodd" d="M292.498 228.72h236.325c7.077 0 12.817 5.382 12.817 12.025v204.006c0 6.644-5.74 12.025-12.817 12.025H292.498c-7.078 0-12.81-5.381-12.81-12.025V240.745c0-6.643 5.732-12.025 12.81-12.025z" clip-rule="evenodd"/><path fill="#fff" fill-rule="evenodd" d="M316.344 286.666h76.732c6.919 0 12.539 7.321 12.539 16.347v124.881c0 9.018-5.62 16.354-12.539 16.354h-76.732c-6.927 0-12.539-7.321-12.539-16.354V302.99c0-9.026 5.612-16.324 12.539-16.324zm116.604-.052h70.916c6.409 0 11.593 6.689 11.593 14.941V428.81c0 8.268-5.184 14.942-11.593 14.942h-70.916c-6.401 0-11.593-6.689-11.593-14.942V301.555c0-8.252 5.192-14.941 11.593-14.941zM306.96 250.463h95.5a3.145 3.145 0 012.915 1.943c.158.382.24.792.24 1.206v7.095a3.167 3.167 0 01-.924 2.232 3.146 3.146 0 01-2.231.925h-95.5a3.155 3.155 0 01-3.155-3.157v-7.11a3.145 3.145 0 01.93-2.219 3.145 3.145 0 012.225-.915z" clip-rule="evenodd"/><path stroke="#F96132" stroke-linecap="round" stroke-linejoin="round" stroke-width="8.061" d="M13.57 246.6l68.843 104.754 110.625-29.413 160.632 85.936L665.528 83.549"/><path fill="#fff" fill-rule="evenodd" stroke="#F96132" stroke-linecap="round" stroke-linejoin="round" stroke-width="7" d="M657.746 81.071a8.694 8.694 0 015.278-8.11 8.683 8.683 0 0111.915 6.252 8.686 8.686 0 01-8.508 10.427 8.623 8.623 0 01-8.685-8.569zM4.001 243.916a8.69 8.69 0 015.295-8.093 8.678 8.678 0 019.496 1.822 8.688 8.688 0 01-6.107 14.864 8.601 8.601 0 01-6.126-2.493 8.62 8.62 0 01-2.558-6.1zm180.728 76.106a8.695 8.695 0 015.278-8.111 8.678 8.678 0 019.505 1.806 8.693 8.693 0 011.936 9.482 8.681 8.681 0 01-8.034 5.391 8.611 8.611 0 01-6.117-2.484 8.632 8.632 0 01-2.568-6.084zM73.886 348.481a8.688 8.688 0 0110.307-8.654 8.682 8.682 0 016.886 6.799 8.693 8.693 0 01-3.676 8.954 8.684 8.684 0 01-4.839 1.469 8.605 8.605 0 01-6.115-2.484 8.621 8.621 0 01-2.563-6.084zm269.945 56.793a8.692 8.692 0 015.278-8.111 8.687 8.687 0 019.505 1.806 8.693 8.693 0 011.936 9.482 8.681 8.681 0 01-8.034 5.391 8.63 8.63 0 01-8.685-8.568z" clip-rule="evenodd"/><path fill="#F96132" fill-rule="evenodd" stroke="#F96132" stroke-linecap="round" stroke-linejoin="round" stroke-width=".101" d="M287.309 441.373h56.284l9.657-11.103 9.594 11.103h57.927a5.017 5.017 0 015.016 5.018v101.222a5.017 5.017 0 01-5.016 5.018H287.309a5.015 5.015 0 01-5.016-5.018V446.41a5.007 5.007 0 011.462-3.561 5.007 5.007 0 013.554-1.476z" clip-rule="evenodd"/><path fill="#fff" fill-rule="evenodd" stroke="#F96132" stroke-linecap="round" stroke-linejoin="round" stroke-width=".101" d="M297.944 456.835h112.041v79.198H297.944v-79.198z" clip-rule="evenodd"/><path fill="#35416B" fill-rule="evenodd" stroke="#35416B" stroke-linecap="round" stroke-linejoin="round" stroke-width=".101" d="M353.043 469.637a5.827 5.827 0 015.819 5.821v25.323a5.818 5.818 0 01-5.819 5.821 5.81 5.81 0 01-5.819-5.821v-25.323a5.82 5.82 0 015.819-5.821zm.1 42.686h.201a5.307 5.307 0 014.907 3.28 5.308 5.308 0 01-4.907 7.339h-.201a5.31 5.31 0 110-10.619z" clip-rule="evenodd"/><defs><pattern id="pattern0" width="1" height="1" patternContentUnits="objectBoundingBox"><use transform="matrix(.00161 0 0 .00172 0 -.005)" xlink:href="#image0"/></pattern></defs></svg>