<svg xmlns:xlink="http://www.w3.org/1999/xlink" fill="none" viewBox="0 0 375 377"><rect width="353.207" height="331.893" x="10.61" y="20.553" fill="#F7A501" rx="42.628"/><path fill="url(#pattern0)" d="M-11 0h397.358v376.318H-11z" opacity=".2"/><path fill="#35416B" fill-rule="evenodd" d="M122.413 144.189h188.45l13.54 163.915-13.54 12.126h-188.45V144.189z" clip-rule="evenodd"/><path fill="#6C8BB1" fill-rule="evenodd" d="M135.95 130.934h188.453v176.042H135.95V130.934z" clip-rule="evenodd"/><path fill="#4F6E94" fill-rule="evenodd" d="M136.017 130.644l-13.553 13.321-.145 176.469 13.749-13.498-.051-176.292zm174.971 14.075l.185 141.069-11.643-.554V156.181l11.458-11.462z" clip-rule="evenodd"/><path fill="#35416B" fill-rule="evenodd" d="M311.794 144.259l-161.99 1.277v11.235l151.026-.656 10.964-11.856z" clip-rule="evenodd"/><path fill="#9ABCE6" fill-rule="evenodd" d="M162.838 160.822h123.56c3.7 0 6.702 2.814 6.702 6.287v106.663c0 3.473-3.002 6.287-6.702 6.287h-123.56c-3.7 0-6.698-2.814-6.698-6.287V167.109c0-3.473 2.998-6.287 6.698-6.287z" clip-rule="evenodd"/><path fill="#fff" fill-rule="evenodd" d="M175.306 191.119h40.118c3.618 0 6.556 3.827 6.556 8.546v65.293c0 4.715-2.938 8.55-6.556 8.55h-40.118c-3.622 0-6.556-3.827-6.556-8.55v-65.305c0-4.719 2.934-8.534 6.556-8.534zm60.965-.028h37.078c3.35 0 6.061 3.497 6.061 7.812v66.534c0 4.323-2.711 7.812-6.061 7.812h-37.078c-3.347 0-6.061-3.497-6.061-7.812v-66.534c0-4.315 2.714-7.812 6.061-7.812zm-65.872-18.901h49.931a1.662 1.662 0 011.167.481 1.651 1.651 0 01.483 1.166v3.709a1.654 1.654 0 01-1.65 1.65h-49.931a1.646 1.646 0 01-1.649-1.65v-3.717a1.644 1.644 0 011.649-1.639z" clip-rule="evenodd"/><path stroke="#F96132" stroke-linecap="round" stroke-linejoin="round" stroke-width="4.215" d="M17.003 170.17l35.995 54.77 57.838-15.378 83.985 44.93L357.873 84.921"/><path fill="#fff" fill-rule="evenodd" stroke="#F96132" stroke-linecap="round" stroke-linejoin="round" stroke-width="3.66" d="M353.804 83.625a4.55 4.55 0 012.76-4.24 4.537 4.537 0 016.229 3.269 4.544 4.544 0 01-1.919 4.681 4.539 4.539 0 01-2.529.77 4.502 4.502 0 01-3.198-1.299 4.5 4.5 0 01-1.343-3.18zM12 168.767a4.541 4.541 0 114.541 4.493 4.505 4.505 0 01-4.19-2.765 4.51 4.51 0 01-.35-1.728zm94.492 39.791a4.548 4.548 0 012.76-4.241 4.542 4.542 0 111.781 8.721 4.506 4.506 0 01-4.186-2.756 4.517 4.517 0 01-.355-1.724zm-57.953 14.88a4.544 4.544 0 015.389-4.525 4.544 4.544 0 01-.852 9.005 4.508 4.508 0 01-4.537-4.48zm141.138 29.693a4.548 4.548 0 012.76-4.241 4.542 4.542 0 111.781 8.721 4.513 4.513 0 01-4.541-4.48z" clip-rule="evenodd"/><path fill="#F96132" fill-rule="evenodd" stroke="#F96132" stroke-linecap="round" stroke-linejoin="round" stroke-width=".053" d="M160.125 272.005h29.428l5.049-5.805 5.016 5.805h30.286a2.624 2.624 0 012.623 2.624v52.923a2.624 2.624 0 01-2.623 2.623h-69.779a2.622 2.622 0 01-2.623-2.623v-52.913a2.63 2.63 0 011.617-2.433 2.614 2.614 0 011.006-.201z" clip-rule="evenodd"/><path fill="#fff" fill-rule="evenodd" stroke="#F96132" stroke-linecap="round" stroke-linejoin="round" stroke-width=".053" d="M165.685 280.089h58.58v41.408h-58.58v-41.408z" clip-rule="evenodd"/><path fill="#35416B" fill-rule="evenodd" stroke="#35416B" stroke-linecap="round" stroke-linejoin="round" stroke-width=".053" d="M194.493 286.783a3.05 3.05 0 013.043 3.043v13.24a3.047 3.047 0 01-3.043 3.044 3.04 3.04 0 01-3.042-3.044v-13.24a3.043 3.043 0 013.042-3.043zm.053 22.318h.105a2.768 2.768 0 011.963.813 2.767 2.767 0 01.813 1.964 2.775 2.775 0 01-2.776 2.775h-.105a2.779 2.779 0 01-2.777-2.775 2.778 2.778 0 012.777-2.777z" clip-rule="evenodd"/><defs><pattern id="pattern0" width="1" height="1" patternContentUnits="objectBoundingBox"><use transform="matrix(.00161 0 0 .00172 0 -.005)" xlink:href="#image0"/></pattern></defs></svg>