<svg xmlns:xlink="http://www.w3.org/1999/xlink" fill="none" viewBox="0 0 581 539"><rect width="539" height="581" x="581" fill="url(#pattern0)" rx="56" transform="rotate(90 581 0)"/><path fill="#F7A501" fill-rule="evenodd" d="M213.75 136.265l258.887-17.325 21.551 17.325v266.176H213.75l-21.755-17.929 21.755-248.247z" clip-rule="evenodd"/><path fill="#FFC035" fill-rule="evenodd" d="M192.179 118.388h280.412v266.177H192.179V118.388z" clip-rule="evenodd"/><path fill="#DB9200" fill-rule="evenodd" d="M191.896 384.67l21.801 18.001 280.577-.131-21.696-18.081-280.682.211z" clip-rule="evenodd"/><path fill="#F7A501" fill-rule="evenodd" d="M229.647 145.834l16.173 14.814v189.537l-17.041.368.868-204.719z" clip-rule="evenodd"/><path fill="#DB9200" fill-rule="evenodd" d="M229.929 145.992l16.121 14.892 197.233-1.038v-13.48l-213.354-.374z" clip-rule="evenodd"/><path fill="#FBDD99" fill-rule="evenodd" d="M251.296 157.776h192.098v193.585H251.296a11.431 11.431 0 01-8.111-3.243 11.422 11.422 0 01-3.44-8.028V169.054a11.402 11.402 0 013.438-8.032 11.414 11.414 0 018.113-3.246z" clip-rule="evenodd"/><path fill="#fff" fill-rule="evenodd" d="M371.884 179.819h44.621a10.521 10.521 0 0110.519 10.516v119.963a10.521 10.521 0 01-10.519 10.516h-44.621a10.521 10.521 0 01-10.519-10.516V190.335a10.521 10.521 0 0110.519-10.516zm-100.917 2.202h67.098c5.806 0 10.519 4.2 10.519 9.378v121.528c0 5.186-4.713 9.385-10.519 9.385h-67.098c-5.812 0-10.519-4.199-10.519-9.385V191.399c0-5.178 4.707-9.378 10.519-9.378z" clip-rule="evenodd"/><path fill="#F7A501" fill-rule="evenodd" d="M169.471 414.291l353.211-14.932 16.613 14.932v116.178H169.471V414.291z" clip-rule="evenodd"/><path fill="#FFC035" fill-rule="evenodd" d="M153.167 399.753h369.824v116.178H153.167V399.753z" clip-rule="evenodd"/><path fill="#DB9200" fill-rule="evenodd" d="M153.219 515.392l16.226 15.149 370.58.151-16.876-14.827-369.93-.473z" clip-rule="evenodd"/><path fill="#F96132" fill-rule="evenodd" d="M62.834 42.315H341.76a10.516 10.516 0 0110.519 10.516v154.624l14.162 10.385-14.162 11.698v33.558a10.516 10.516 0 01-10.519 10.516H62.834a10.521 10.521 0 01-10.52-10.516V52.83a10.514 10.514 0 0110.52-10.515z" clip-rule="evenodd"/><path fill="#FF906E" fill-rule="evenodd" d="M82.873 63.95h235.529a10.133 10.133 0 017.161 2.96 10.132 10.132 0 012.97 7.155V237.76a10.123 10.123 0 01-10.131 10.102H82.872a10.117 10.117 0 01-10.124-10.115V74.065a10.111 10.111 0 016.25-9.347 10.12 10.12 0 013.875-.768z" clip-rule="evenodd"/><path fill="#FFC4B2" fill-rule="evenodd" d="M97.323 102.03h205.3c6.318 0 11.446 6.651 11.446 14.86v103.086c0 8.202-5.128 14.853-11.446 14.853h-205.3c-6.324 0-11.446-6.651-11.446-14.853V116.89c0-8.209 5.122-14.86 11.446-14.86zm2.748-26.25h124.257a6.252 6.252 0 016.246 6.244 6.246 6.246 0 01-6.246 6.244H100.071a6.246 6.246 0 01-6.245-6.244 6.243 6.243 0 016.245-6.244zm203.637-2.214h2.629a5.37 5.37 0 110 10.739h-2.629a5.37 5.37 0 010-10.74z" clip-rule="evenodd"/><path stroke="#35416B" stroke-linecap="round" stroke-linejoin="round" stroke-width="5.28" d="M108.5 120.439l.657 90.164 189.837-.657"/><path stroke="#fff" stroke-linecap="round" stroke-linejoin="round" stroke-width="8" d="M130.314 180.332l19.21-28.649 27.357 29.95 29.631-34.833 25.068 4.883 24.746-24.094 28.98.98"/><defs><pattern id="pattern0" width="1" height="1" patternContentUnits="objectBoundingBox"><use transform="matrix(.00221 0 0 .00205 -.102 -.09)" xlink:href="#image0"/></pattern></defs></svg>