<svg xmlns="http://www.w3.org/2000/svg" width="1144" height="678" fill="none" viewBox="0 0 1144 678"><g clip-path="url(#clip0)" opacity=".2"><path fill="#1D4AFF" fill-rule="evenodd" stroke="#fff" stroke-linecap="round" stroke-linejoin="round" stroke-width="1.162" d="M144.741 261.934C144.741 255.515 149.945 250.311 156.365 250.311H261.166C267.586 250.311 272.79 255.515 272.79 261.934V309.1C272.79 315.52 267.586 320.724 261.166 320.724H156.365C149.945 320.724 144.741 315.52 144.741 309.1V261.934Z" clip-rule="evenodd"/><path fill="#859DFF" fill-rule="evenodd" stroke="#fff" stroke-linecap="round" stroke-linejoin="round" stroke-width="1.162" d="M289.028 261.564C289.028 255.145 294.232 249.941 300.651 249.941H405.452C411.872 249.941 417.076 255.145 417.076 261.564V308.73C417.076 315.15 411.872 320.354 405.452 320.354H300.651C294.232 320.354 289.028 315.15 289.028 308.73V261.564Z" clip-rule="evenodd"/><path fill="#8FA6FC" fill-rule="evenodd" stroke="#fff" stroke-linecap="round" stroke-linejoin="round" stroke-width="1.162" d="M431.157 261.466C431.157 255.046 436.361 249.842 442.781 249.842H547.56C553.98 249.842 559.184 255.046 559.184 261.466V308.632C559.184 315.051 553.98 320.255 547.56 320.255H442.781C436.361 320.255 431.157 315.051 431.157 308.632V261.466Z" clip-rule="evenodd"/><path fill="#CFD9FF" fill-rule="evenodd" stroke="#fff" stroke-linecap="round" stroke-linejoin="round" stroke-width="1.162" d="M573.114 258.927C573.114 252.508 578.318 247.304 584.738 247.304H689.539C695.958 247.304 701.162 252.508 701.162 258.927V306.093C701.162 312.513 695.958 317.717 689.539 317.717H584.738C578.318 317.717 573.114 312.513 573.114 306.093V258.927Z" clip-rule="evenodd"/><path fill="#E7EAFD" fill-rule="evenodd" stroke="#fff" stroke-linecap="round" stroke-linejoin="round" stroke-width="1.162" d="M719.47 258.582C719.47 252.163 724.674 246.959 731.094 246.959H835.895C842.314 246.959 847.518 252.163 847.518 258.582V305.773C847.518 312.192 842.314 317.396 835.895 317.396H731.094C724.674 317.396 719.47 312.192 719.47 305.773V258.582Z" clip-rule="evenodd"/><path fill="#1D4AFF" fill-rule="evenodd" stroke="#fff" stroke-linecap="round" stroke-linejoin="round" stroke-width="1.162" d="M145.626 353.173C145.626 346.754 150.83 341.55 157.249 341.55H262.115C268.534 341.55 273.739 346.754 273.739 353.173V400.339C273.739 406.759 268.534 411.963 262.115 411.963H157.249C150.83 411.963 145.626 406.759 145.626 400.339V353.173Z" clip-rule="evenodd"/><path fill="#8FA6FC" fill-rule="evenodd" stroke="#fff" stroke-linecap="round" stroke-linejoin="round" stroke-width="1.162" d="M289.912 352.803C289.912 346.383 295.116 341.179 301.535 341.179H406.315C412.734 341.179 417.938 346.383 417.938 352.803V399.969C417.938 406.388 412.734 411.592 406.315 411.592H301.535C295.116 411.592 289.912 406.388 289.912 399.969V352.803Z" clip-rule="evenodd"/><path fill="#CFD9FF" fill-rule="evenodd" stroke="#fff" stroke-linecap="round" stroke-linejoin="round" stroke-width="1.162" d="M432.062 352.705C432.062 346.285 437.266 341.081 443.686 341.081H548.487C554.906 341.081 560.11 346.285 560.11 352.705V399.871C560.11 406.29 554.906 411.494 548.487 411.494H443.686C437.266 411.494 432.062 406.29 432.062 399.871V352.705Z" clip-rule="evenodd"/><path fill="#E7EAFD" fill-rule="evenodd" stroke="#fff" stroke-linecap="round" stroke-linejoin="round" stroke-width="1.162" d="M573.998 350.166C573.998 343.747 579.202 338.542 585.622 338.542H690.423C696.842 338.542 702.046 343.747 702.046 350.166V397.332C702.046 403.752 696.842 408.956 690.423 408.956H585.622C579.202 408.956 573.998 403.752 573.998 397.332V350.166Z" clip-rule="evenodd"/><path fill="#1D4AFF" fill-rule="evenodd" stroke="#fff" stroke-linecap="round" stroke-linejoin="round" stroke-width="1.162" d="M145.259 443.179C145.259 436.76 150.463 431.556 156.882 431.556H261.683C268.103 431.556 273.307 436.76 273.307 443.179V490.345C273.307 496.765 268.103 501.969 261.683 501.969H156.882C150.463 501.969 145.259 496.765 145.259 490.345V443.179Z" clip-rule="evenodd"/><path fill="#CFD9FF" fill-rule="evenodd" stroke="#fff" stroke-linecap="round" stroke-linejoin="round" stroke-width="1.162" d="M289.545 442.81C289.545 436.39 294.749 431.186 301.169 431.186H405.97C412.389 431.186 417.593 436.39 417.593 442.81V490C417.593 496.42 412.389 501.624 405.97 501.624H301.169C294.749 501.624 289.545 496.42 289.545 490V442.81Z" clip-rule="evenodd"/><path fill="#E7EAFD" fill-rule="evenodd" stroke="#fff" stroke-linecap="round" stroke-linejoin="round" stroke-width="1.162" d="M431.718 442.711C431.718 436.292 436.922 431.088 443.341 431.088H548.121C554.54 431.088 559.744 436.292 559.744 442.711V489.877C559.744 496.297 554.54 501.501 548.121 501.501H443.341C436.922 501.501 431.718 496.297 431.718 489.877V442.711Z" clip-rule="evenodd"/><path fill="#8FA6FC" fill-rule="evenodd" stroke="#fff" stroke-linecap="round" stroke-linejoin="round" stroke-width="1.162" d="M145.971 532.003C145.971 525.583 151.175 520.379 157.594 520.379H262.396C268.815 520.379 274.019 525.583 274.019 532.003V579.193C274.019 585.613 268.815 590.817 262.396 590.817H157.595C151.175 590.817 145.971 585.613 145.971 579.193V532.003Z" clip-rule="evenodd"/><path fill="#E7EAFD" fill-rule="evenodd" stroke="#fff" stroke-linecap="round" stroke-linejoin="round" stroke-width="1.162" d="M290.257 531.633C290.257 525.214 295.461 520.01 301.88 520.01H406.595C413.015 520.01 418.219 525.214 418.219 531.633V578.824C418.219 585.243 413.015 590.447 406.595 590.447H301.88C295.461 590.447 290.257 585.243 290.257 578.824V531.633Z" clip-rule="evenodd"/><path fill="#1D4AFF" fill-rule="evenodd" stroke="#fff" stroke-linecap="round" stroke-linejoin="round" stroke-width="1.162" d="M1.00024 531.615C1.00024 525.196 6.20428 519.992 12.6238 519.992H115.844C122.264 519.992 127.468 525.196 127.468 531.615V578.782C127.468 585.201 122.264 590.405 115.844 590.405H12.6238C6.20429 590.405 1.00024 585.201 1.00024 578.782V531.615Z" clip-rule="evenodd" opacity=".05"/></g><path fill="#F96132" fill-rule="evenodd" stroke="#F96132" stroke-linecap="round" stroke-linejoin="round" stroke-width="1.162" d="M510.701 257.575C510.701 256.728 510.954 255.901 511.426 255.197C511.899 254.493 512.572 253.945 513.358 253.621C514.144 253.297 515.01 253.212 515.845 253.377C516.679 253.543 517.446 253.95 518.048 254.549C518.65 255.147 519.06 255.91 519.226 256.74C519.392 257.57 519.307 258.431 518.981 259.213C518.656 259.995 518.104 260.663 517.396 261.133C516.688 261.604 515.856 261.855 515.005 261.855C513.864 261.852 512.771 261.4 511.965 260.598C511.158 259.796 510.704 258.709 510.701 257.575Z" clip-rule="evenodd"/><path fill="#1D4AFF" fill-rule="evenodd" stroke="#fff" stroke-linecap="round" stroke-linejoin="round" stroke-width="1.162" d="M144.62 176.34C144.62 169.92 149.824 164.716 156.244 164.716H259.464C265.883 164.716 271.087 169.92 271.087 176.34V223.506C271.087 229.925 265.883 235.129 259.464 235.129H156.244C149.824 235.129 144.62 229.925 144.62 223.506V176.34Z" clip-rule="evenodd" opacity=".1"/><path fill="#1D4AFF" fill-rule="evenodd" stroke="#fff" stroke-linecap="round" stroke-linejoin="round" stroke-width="1.162" d="M287.177 176.34C287.177 169.92 292.381 164.716 298.801 164.716H402.021C408.44 164.716 413.644 169.92 413.644 176.34V223.506C413.644 229.925 408.44 235.129 402.021 235.129H298.801C292.381 235.129 287.177 229.925 287.177 223.506V176.34Z" clip-rule="evenodd" opacity=".05"/><path fill="#1D4AFF" fill-rule="evenodd" stroke="#fff" stroke-linecap="round" stroke-linejoin="round" stroke-width="1.162" d="M144.62 93.9885C144.62 87.569 149.824 82.365 156.244 82.365H259.464C265.883 82.365 271.087 87.569 271.087 93.9885V141.155C271.087 147.574 265.883 152.778 259.464 152.778H156.244C149.824 152.778 144.62 147.574 144.62 141.155V93.9885Z" clip-rule="evenodd" opacity=".05"/><g clip-path="url(#clip1)"><path stroke="#fff" stroke-linecap="round" stroke-linejoin="round" stroke-width="1.162" d="M138.717 599.846H625.504" opacity=".48"/><path fill="#F7A501" fill-rule="evenodd" stroke="#F7A501" stroke-linecap="round" stroke-linejoin="round" stroke-width="1.162" d="M133.535 560.736C133.543 559.692 133.862 558.673 134.451 557.809C135.04 556.945 135.874 556.273 136.846 555.879C137.819 555.485 138.887 555.386 139.916 555.595C140.945 555.803 141.889 556.31 142.629 557.052C143.369 557.793 143.871 558.735 144.073 559.76C144.275 560.785 144.167 561.846 143.764 562.811C143.36 563.775 142.678 564.598 141.804 565.178C140.931 565.757 139.904 566.066 138.854 566.066C138.152 566.064 137.458 565.925 136.811 565.656C136.164 565.387 135.576 564.994 135.082 564.499C134.588 564.004 134.197 563.416 133.932 562.771C133.666 562.125 133.531 561.434 133.535 560.736Z" clip-rule="evenodd"/><path fill="#F7A501" fill-rule="evenodd" stroke="#F7A501" stroke-linecap="round" stroke-linejoin="round" stroke-width="1.162" d="M394.173 479.123C394.176 478.074 394.491 477.05 395.08 476.18C395.668 475.309 396.502 474.632 397.478 474.233C398.453 473.834 399.526 473.732 400.56 473.939C401.594 474.146 402.542 474.653 403.286 475.397C404.03 476.14 404.535 477.087 404.739 478.116C404.942 479.145 404.833 480.211 404.427 481.179C404.021 482.147 403.336 482.973 402.457 483.554C401.579 484.134 400.547 484.442 399.492 484.44C398.792 484.438 398.099 484.299 397.453 484.031C396.806 483.763 396.219 483.371 395.726 482.877C395.232 482.383 394.84 481.798 394.574 481.154C394.308 480.51 394.172 479.82 394.173 479.123Z" clip-rule="evenodd"/><path fill="#F7A501" fill-rule="evenodd" stroke="#F7A501" stroke-linecap="round" stroke-linejoin="round" stroke-width="1.162" d="M471.708 440.003C471.711 438.954 472.026 437.93 472.615 437.059C473.203 436.189 474.037 435.511 475.013 435.112C475.988 434.713 477.061 434.611 478.095 434.818C479.128 435.026 480.077 435.533 480.821 436.277C481.565 437.02 482.07 437.966 482.273 438.995C482.477 440.025 482.368 441.091 481.962 442.058C481.556 443.026 480.87 443.853 479.992 444.433C479.114 445.014 478.082 445.322 477.027 445.319C476.327 445.318 475.634 445.179 474.987 444.91C474.341 444.642 473.754 444.25 473.26 443.757C472.767 443.263 472.375 442.677 472.109 442.033C471.843 441.389 471.706 440.699 471.708 440.003Z" clip-rule="evenodd"/><path fill="#F7A501" fill-rule="evenodd" stroke="#F7A501" stroke-linecap="round" stroke-linejoin="round" stroke-width="1.162" d="M525.727 494.879C525.729 493.83 526.045 492.805 526.633 491.935C527.221 491.064 528.056 490.387 529.031 489.988C530.007 489.589 531.079 489.487 532.113 489.694C533.147 489.901 534.096 490.409 534.84 491.152C535.583 491.896 536.089 492.842 536.292 493.871C536.495 494.9 536.387 495.966 535.981 496.934C535.574 497.902 534.889 498.729 534.01 499.309C533.132 499.889 532.1 500.198 531.046 500.195C530.345 500.193 529.652 500.054 529.006 499.786C528.36 499.518 527.773 499.126 527.279 498.632C526.785 498.139 526.394 497.553 526.127 496.909C525.861 496.265 525.725 495.575 525.727 494.879Z" clip-rule="evenodd"/><path fill="#F7A501" fill-rule="evenodd" stroke="#F7A501" stroke-linecap="round" stroke-linejoin="round" stroke-width="1.162" d="M312.347 517.824C312.35 516.778 312.664 515.757 313.25 514.889C313.837 514.021 314.668 513.345 315.64 512.947C316.612 512.549 317.682 512.446 318.712 512.651C319.743 512.857 320.69 513.362 321.432 514.102C322.175 514.842 322.68 515.785 322.884 516.81C323.088 517.836 322.982 518.899 322.579 519.864C322.176 520.83 321.494 521.655 320.62 522.236C319.745 522.816 318.718 523.126 317.666 523.126C316.254 523.123 314.902 522.562 313.904 521.568C312.907 520.574 312.347 519.228 312.347 517.824Z" clip-rule="evenodd"/><path fill="#F7A501" fill-rule="evenodd" stroke="#F7A501" stroke-linecap="round" stroke-linejoin="round" stroke-width="1.162" d="M230.371 561.036C230.374 559.991 230.688 558.969 231.274 558.101C231.86 557.233 232.692 556.558 233.664 556.159C234.636 555.761 235.705 555.658 236.736 555.864C237.767 556.07 238.714 556.574 239.456 557.315C240.199 558.055 240.704 558.997 240.908 560.023C241.112 561.049 241.006 562.111 240.603 563.077C240.2 564.043 239.518 564.868 238.644 565.449C237.769 566.029 236.742 566.339 235.69 566.339C234.991 566.339 234.298 566.202 233.652 565.935C233.005 565.668 232.418 565.278 231.924 564.785C231.43 564.293 231.039 563.708 230.772 563.065C230.506 562.421 230.37 561.732 230.371 561.036Z" clip-rule="evenodd"/><path fill="#1D4AFF" fill-rule="evenodd" stroke="#3541D1" stroke-linecap="round" stroke-linejoin="round" stroke-width="1.162" d="M135.289 478.564C135.289 477.515 135.602 476.489 136.189 475.617C136.775 474.744 137.609 474.065 138.584 473.664C139.56 473.263 140.632 473.159 141.667 473.364C142.702 473.57 143.652 474.077 144.397 474.819C145.143 475.562 145.649 476.509 145.854 477.538C146.058 478.568 145.95 479.634 145.545 480.603C145.139 481.572 144.453 482.399 143.575 482.98C142.696 483.561 141.663 483.87 140.608 483.867C139.196 483.863 137.843 483.303 136.846 482.309C135.849 481.315 135.289 479.968 135.289 478.564Z" clip-rule="evenodd"/><path fill="#1D4AFF" fill-rule="evenodd" stroke="#3541D1" stroke-linecap="round" stroke-linejoin="round" stroke-width="1.162" d="M312.347 394.77C312.347 393.721 312.661 392.695 313.247 391.823C313.834 390.95 314.667 390.271 315.643 389.87C316.618 389.469 317.691 389.364 318.725 389.57C319.76 389.776 320.71 390.282 321.456 391.025C322.201 391.768 322.708 392.714 322.912 393.744C323.116 394.773 323.008 395.84 322.603 396.809C322.197 397.777 321.511 398.605 320.633 399.186C319.754 399.767 318.722 400.075 317.666 400.073C316.254 400.069 314.902 399.509 313.904 398.515C312.907 397.521 312.347 396.174 312.347 394.77Z" clip-rule="evenodd"/><path fill="#1D4AFF" fill-rule="evenodd" stroke="#3541D1" stroke-linecap="round" stroke-linejoin="round" stroke-width="1.162" d="M476.287 355.252C476.287 354.202 476.6 353.177 477.186 352.304C477.773 351.432 478.607 350.752 479.582 350.351C480.557 349.95 481.63 349.846 482.665 350.052C483.699 350.258 484.65 350.764 485.395 351.507C486.14 352.25 486.647 353.196 486.851 354.226C487.055 355.255 486.948 356.322 486.542 357.29C486.136 358.259 485.451 359.086 484.572 359.667C483.693 360.248 482.661 360.557 481.606 360.554C480.194 360.551 478.841 359.991 477.844 358.996C476.847 358.002 476.287 356.656 476.287 355.252Z" clip-rule="evenodd"/><path fill="#1D4AFF" fill-rule="evenodd" stroke="#3541D1" stroke-linecap="round" stroke-linejoin="round" stroke-width="1.162" d="M216.019 436.36C216.019 435.311 216.332 434.285 216.918 433.413C217.505 432.541 218.338 431.861 219.314 431.46C220.289 431.059 221.362 430.955 222.397 431.161C223.431 431.366 224.382 431.873 225.127 432.616C225.872 433.359 226.379 434.305 226.583 435.334C226.787 436.364 226.68 437.43 226.274 438.399C225.868 439.368 225.183 440.195 224.304 440.776C223.425 441.357 222.393 441.666 221.337 441.663C219.926 441.659 218.573 441.099 217.576 440.105C216.579 439.111 216.019 437.764 216.019 436.36Z" clip-rule="evenodd"/><path fill="#1D4AFF" fill-rule="evenodd" stroke="#1D4AFF" stroke-linecap="round" stroke-linejoin="round" stroke-width="1.162" d="M394.598 515.915C394.598 514.866 394.912 513.84 395.498 512.968C396.085 512.095 396.918 511.416 397.893 511.015C398.869 510.614 399.942 510.509 400.976 510.715C402.011 510.921 402.961 511.427 403.706 512.17C404.452 512.913 404.959 513.859 405.163 514.889C405.367 515.918 405.259 516.985 404.854 517.954C404.448 518.922 403.762 519.75 402.884 520.331C402.005 520.912 400.973 521.22 399.917 521.218C398.505 521.214 397.152 520.654 396.155 519.66C395.158 518.666 394.598 517.319 394.598 515.915Z" clip-rule="evenodd"/><path fill="#1D4AFF" fill-rule="evenodd" stroke="#1D4AFF" stroke-linecap="round" stroke-linejoin="round" stroke-width="1.162" d="M560.868 395.492C560.868 394.443 561.181 393.417 561.768 392.545C562.354 391.673 563.188 390.993 564.163 390.592C565.138 390.191 566.211 390.087 567.246 390.293C568.281 390.498 569.231 391.005 569.976 391.748C570.721 392.491 571.228 393.437 571.432 394.466C571.637 395.496 571.529 396.562 571.123 397.531C570.718 398.5 570.032 399.327 569.153 399.908C568.275 400.489 567.242 400.798 566.187 400.795C564.775 400.792 563.422 400.231 562.425 399.237C561.428 398.243 560.868 396.896 560.868 395.492Z" clip-rule="evenodd"/><path fill="#F7A501" fill-rule="evenodd" d="M145.941 476.315L216.183 438.773L145.941 476.315Z" clip-rule="evenodd"/><path stroke="#3541D1" stroke-linecap="round" stroke-linejoin="round" stroke-width="1.162" d="M145.941 476.315L216.183 438.773"/><path fill="#F7A501" fill-rule="evenodd" d="M227.095 433.948L312.581 396.27L227.095 433.948Z" clip-rule="evenodd"/><path stroke="#3541D1" stroke-linecap="round" stroke-linejoin="round" stroke-width="1.162" d="M227.095 433.948L312.581 396.27"/><path fill="#F7A501" fill-rule="evenodd" d="M322.313 397.96L395.558 510.967L322.313 397.96Z" clip-rule="evenodd"/><path stroke="#3541D1" stroke-linecap="round" stroke-linejoin="round" stroke-width="1.162" d="M322.313 397.96L395.558 510.967"/><path fill="#F7A501" fill-rule="evenodd" d="M403.975 511.539L479.371 360.227L403.975 511.539Z" clip-rule="evenodd"/><path stroke="#3541D1" stroke-linecap="round" stroke-linejoin="round" stroke-width="1.162" d="M403.975 511.539L479.371 360.227"/><path fill="#F7A501" fill-rule="evenodd" d="M486.253 357.365L560.279 393.148L486.253 357.365Z" clip-rule="evenodd"/><path stroke="#3541D1" stroke-linecap="round" stroke-linejoin="round" stroke-width="1.162" d="M486.253 357.365L560.279 393.148"/><path fill="#F7A501" fill-rule="evenodd" d="M531.249 495.115L475.412 437.507L531.249 495.115Z" clip-rule="evenodd"/><path stroke="#F7A501" stroke-linecap="round" stroke-linejoin="round" stroke-width="1.162" d="M531.249 495.115L475.412 437.507"/><path fill="#F7A501" fill-rule="evenodd" d="M393.831 481.863L322.547 515.629L393.831 481.863Z" clip-rule="evenodd"/><path stroke="#F7A501" stroke-linecap="round" stroke-linejoin="round" stroke-width="1.162" d="M393.831 481.863L322.547 515.629"/><path fill="#F7A501" fill-rule="evenodd" d="M475.138 441.573L400.541 478.443L475.138 441.573Z" clip-rule="evenodd"/><path stroke="#F7A501" stroke-linecap="round" stroke-linejoin="round" stroke-width="1.162" d="M475.138 441.573L400.541 478.443"/><path fill="#F7A501" fill-rule="evenodd" d="M312.8 520.386L241.667 557.724L312.8 520.386Z" clip-rule="evenodd"/><path stroke="#F7A501" stroke-linecap="round" stroke-linejoin="round" stroke-width="1.162" d="M312.8 520.386L241.667 557.724"/><path fill="#F7A501" fill-rule="evenodd" d="M230.193 560.409L144.2 560.3L230.193 560.409Z" clip-rule="evenodd"/><path stroke="#F7A501" stroke-linecap="round" stroke-linejoin="round" stroke-width="1.162" d="M230.193 560.409L144.2 560.3"/></g><path fill="#F96132" fill-rule="evenodd" stroke="#F96132" stroke-linecap="round" stroke-linejoin="round" stroke-width="1.162" d="M118.992 286.719C118.992 285.872 119.245 285.044 119.718 284.34C120.191 283.636 120.864 283.088 121.651 282.764C122.438 282.441 123.304 282.356 124.14 282.522C124.975 282.689 125.742 283.097 126.343 283.697C126.945 284.297 127.354 285.06 127.518 285.891C127.683 286.722 127.596 287.583 127.269 288.365C126.941 289.146 126.388 289.814 125.679 290.283C124.97 290.752 124.136 291.001 123.285 290.999C122.145 290.996 121.053 290.544 120.249 289.742C119.444 288.939 118.992 287.852 118.992 286.719Z" clip-rule="evenodd"/><path fill="#F96132" fill-rule="evenodd" stroke="#F96132" stroke-linecap="round" stroke-linejoin="round" stroke-width="1.162" d="M259.78 351.114C259.78 350.267 260.032 349.44 260.505 348.736C260.978 348.032 261.65 347.484 262.437 347.16C263.223 346.836 264.089 346.751 264.924 346.916C265.758 347.081 266.525 347.489 267.127 348.087C267.729 348.686 268.139 349.449 268.305 350.279C268.471 351.109 268.386 351.97 268.06 352.752C267.734 353.534 267.183 354.202 266.475 354.672C265.767 355.142 264.935 355.394 264.084 355.394C262.942 355.394 261.848 354.943 261.041 354.14C260.234 353.337 259.78 352.249 259.78 351.114Z" clip-rule="evenodd"/><path fill="#F96132" fill-rule="evenodd" stroke="#F96132" stroke-linecap="round" stroke-linejoin="round" stroke-width="1.162" d="M394.87 317.8C394.87 316.953 395.123 316.125 395.596 315.421C396.07 314.717 396.742 314.168 397.53 313.845C398.317 313.521 399.183 313.437 400.018 313.603C400.853 313.769 401.62 314.178 402.221 314.777C402.823 315.377 403.232 316.141 403.396 316.972C403.561 317.802 403.474 318.663 403.147 319.445C402.82 320.227 402.266 320.895 401.557 321.364C400.848 321.833 400.015 322.082 399.163 322.08C398.023 322.077 396.931 321.624 396.127 320.822C395.322 320.02 394.87 318.933 394.87 317.8Z" clip-rule="evenodd"/><path fill="#F96132" fill-rule="evenodd" stroke="#F96132" stroke-linecap="round" stroke-linejoin="round" stroke-width="1.162" d="M186.161 316.512C186.166 315.669 186.421 314.846 186.896 314.147C187.37 313.448 188.042 312.904 188.827 312.584C189.611 312.265 190.474 312.183 191.305 312.35C192.136 312.518 192.899 312.926 193.497 313.524C194.096 314.122 194.502 314.882 194.666 315.71C194.83 316.537 194.744 317.394 194.418 318.173C194.092 318.952 193.542 319.617 192.837 320.085C192.131 320.553 191.302 320.803 190.454 320.803C189.889 320.802 189.33 320.69 188.808 320.473C188.286 320.257 187.813 319.94 187.414 319.542C187.015 319.143 186.7 318.671 186.485 318.151C186.27 317.631 186.16 317.074 186.161 316.512Z" clip-rule="evenodd"/><path fill="#F96132" fill-rule="evenodd" stroke="#F96132" stroke-linecap="round" stroke-linejoin="round" stroke-width="1.162" d="M330.28 318.119C330.282 317.275 330.535 316.451 331.008 315.75C331.481 315.05 332.153 314.504 332.937 314.183C333.722 313.861 334.585 313.779 335.417 313.944C336.249 314.11 337.012 314.518 337.612 315.115C338.211 315.713 338.619 316.473 338.783 317.301C338.948 318.129 338.863 318.987 338.537 319.766C338.212 320.545 337.662 321.211 336.956 321.68C336.25 322.149 335.421 322.399 334.572 322.399C333.433 322.396 332.341 321.944 331.536 321.141C330.731 320.339 330.28 319.252 330.28 318.119Z" clip-rule="evenodd"/><path fill="#F96132" fill-rule="evenodd" stroke="#F96132" stroke-linecap="round" stroke-linejoin="round" stroke-width="1.162" d="M457.238 353.611C457.238 352.764 457.49 351.936 457.964 351.232C458.437 350.528 459.11 349.98 459.897 349.656C460.684 349.333 461.55 349.249 462.385 349.415C463.22 349.581 463.987 349.989 464.589 350.589C465.19 351.189 465.599 351.952 465.764 352.783C465.929 353.614 465.842 354.475 465.515 355.257C465.187 356.039 464.634 356.706 463.924 357.175C463.215 357.644 462.382 357.893 461.53 357.891C460.391 357.888 459.299 357.436 458.494 356.634C457.69 355.831 457.238 354.744 457.238 353.611Z" clip-rule="evenodd"/><path fill="#F96132" fill-rule="evenodd" d="M127.456 288.601L186.006 313.905L127.456 288.601Z" clip-rule="evenodd"/><path stroke="#F96132" stroke-linecap="round" stroke-linejoin="round" stroke-width="1.162" d="M127.456 288.601L186.006 313.905"/><path fill="#F96132" fill-rule="evenodd" d="M190.986 318.6L259.496 348.357L190.986 318.6Z" clip-rule="evenodd"/><path stroke="#F96132" stroke-linecap="round" stroke-linejoin="round" stroke-width="1.162" d="M190.986 318.6L259.496 348.357"/><path fill="#F96132" fill-rule="evenodd" d="M268.631 349.727L330.5 320.22L268.631 349.727Z" clip-rule="evenodd"/><path stroke="#F96132" stroke-linecap="round" stroke-linejoin="round" stroke-width="1.162" d="M268.631 349.727L330.5 320.22"/><path fill="#F96132" fill-rule="evenodd" d="M339.318 318.02L394.981 318.086L339.318 318.02Z" clip-rule="evenodd"/><path stroke="#F96132" stroke-linecap="round" stroke-linejoin="round" stroke-width="1.162" d="M339.318 318.02L394.981 318.086"/><path fill="#F96132" fill-rule="evenodd" d="M403.113 319.329L456.817 350.816L403.113 319.329Z" clip-rule="evenodd"/><path stroke="#F96132" stroke-linecap="round" stroke-linejoin="round" stroke-width="1.162" d="M403.113 319.329L456.817 350.816"/><path fill="#F96132" fill-rule="evenodd" d="M464.263 349.145L513.121 261.448L464.263 349.145Z" clip-rule="evenodd"/><path stroke="#F96132" stroke-linecap="round" stroke-linejoin="round" stroke-width="1.162" d="M464.263 349.145L513.121 261.448"/><path fill="#1D4AFF" fill-rule="evenodd" stroke="#fff" stroke-linecap="round" stroke-linejoin="round" stroke-width="1.162" d="M1 618.21C1 611.791 6.20404 606.587 12.6235 606.587H115.844C122.263 606.587 127.467 611.791 127.467 618.21V665.376C127.467 671.796 122.263 677 115.844 677H12.6236C6.20404 677 1 671.796 1 665.376V618.21Z" clip-rule="evenodd" opacity=".1"/><path fill="#1D4AFF" fill-rule="evenodd" stroke="#fff" stroke-linecap="round" stroke-linejoin="round" stroke-width="1.162" d="M1 532.196C1 525.777 6.20404 520.573 12.6235 520.573H115.844C122.263 520.573 127.467 525.777 127.467 532.196V579.362C127.467 585.782 122.263 590.986 115.844 590.986H12.6236C6.20404 590.986 1 585.782 1 579.362V532.196Z" clip-rule="evenodd" opacity=".15"/><path fill="#1D4AFF" fill-rule="evenodd" stroke="#fff" stroke-linecap="round" stroke-linejoin="round" stroke-width="1.162" d="M1 93.9883C1 87.5688 6.20404 82.3647 12.6235 82.3647H115.844C122.263 82.3647 127.467 87.5688 127.467 93.9883V141.154C127.467 147.574 122.263 152.778 115.844 152.778H12.6236C6.20404 152.778 1 147.574 1 141.154V93.9883Z" clip-rule="evenodd" opacity=".15"/><path fill="#1D4AFF" fill-rule="evenodd" stroke="#fff" stroke-linecap="round" stroke-linejoin="round" stroke-width="1.162" d="M1 12.6236C1 6.20405 6.20404 1 12.6235 1H115.844C122.263 1 127.467 6.20404 127.467 12.6235V59.7896C127.467 66.2091 122.263 71.4131 115.844 71.4131H12.6236C6.20404 71.4131 1 66.2091 1 59.7896V12.6236Z" clip-rule="evenodd" opacity=".1"/><path fill="#1D4AFF" fill-rule="evenodd" stroke="#fff" stroke-linecap="round" stroke-linejoin="round" stroke-width="1.162" d="M1 176.516C1 170.096 6.20404 164.892 12.6235 164.892H115.844C122.263 164.892 127.467 170.096 127.467 176.516V223.682C127.467 230.101 122.263 235.305 115.844 235.305H12.6236C6.20404 235.305 1 230.101 1 223.682V176.516Z" clip-rule="evenodd" opacity=".2"/><path fill="#1D4AFF" fill-rule="evenodd" stroke="#fff" stroke-linecap="round" stroke-linejoin="round" stroke-width="1.162" d="M1 261.949C1 255.529 6.20404 250.325 12.6235 250.325H115.844C122.263 250.325 127.467 255.529 127.467 261.949V309.115C127.467 315.534 122.263 320.738 115.844 320.738H12.6236C6.20404 320.738 1 315.534 1 309.115V261.949Z" clip-rule="evenodd" opacity=".25"/><path fill="#1D4AFF" fill-rule="evenodd" stroke="#fff" stroke-linecap="round" stroke-linejoin="round" stroke-width="1.162" d="M1 352.612C1 346.193 6.20404 340.989 12.6235 340.989H115.844C122.263 340.989 127.467 346.193 127.467 352.612V399.778C127.467 406.198 122.263 411.402 115.844 411.402H12.6236C6.20404 411.402 1 406.198 1 399.778V352.612Z" clip-rule="evenodd" opacity=".25"/><path fill="#1D4AFF" fill-rule="evenodd" stroke="#fff" stroke-linecap="round" stroke-linejoin="round" stroke-width="1.162" d="M1 442.695C1 436.275 6.20404 431.071 12.6235 431.071H115.844C122.263 431.071 127.467 436.275 127.467 442.695V489.861C127.467 496.28 122.263 501.484 115.844 501.484H12.6236C6.20404 501.484 1 496.28 1 489.861V442.695Z" clip-rule="evenodd" opacity=".2"/><defs><clipPath id="clip0"><rect width="1065.03" height="369.541" fill="#fff" transform="translate(78.8779 235.302)"/></clipPath><clipPath id="clip1"><rect width="527.323" height="351.548" fill="#fff" transform="translate(132.164 290.665)"/></clipPath></defs></svg>