<svg width="1440" height="810" viewBox="0 0 1440 810" fill="none" xmlns="http://www.w3.org/2000/svg">
<g opacity="0.2">
<path fill-rule="evenodd" clip-rule="evenodd" d="M72.175 263.687C72.175 252.642 81.1294 243.688 92.175 243.688H237.209C248.255 243.688 257.209 252.642 257.209 263.688V325.437C257.209 336.483 248.255 345.437 237.209 345.437H92.175C81.1293 345.437 72.175 336.483 72.175 325.437V263.687Z" fill="#1D4AFF" stroke="white" stroke-width="2" stroke-linecap="round" stroke-linejoin="round"/>
<path fill-rule="evenodd" clip-rule="evenodd" d="M280.674 263.153C280.674 252.107 289.628 243.153 300.674 243.153H445.708C456.753 243.153 465.708 252.107 465.708 263.153V324.902C465.708 335.948 456.753 344.902 445.708 344.902H300.674C289.628 344.902 280.674 335.948 280.674 324.902V263.153Z" fill="#859DFF" stroke="white" stroke-width="2" stroke-linecap="round" stroke-linejoin="round"/>
<path fill-rule="evenodd" clip-rule="evenodd" d="M486.056 263.011C486.056 251.965 495.01 243.011 506.056 243.011H651.059C662.104 243.011 671.059 251.965 671.059 263.011V324.76C671.059 335.806 662.104 344.76 651.059 344.76H506.056C495.01 344.76 486.056 335.806 486.056 324.76V263.011Z" fill="#8FA6FC" stroke="white" stroke-width="2" stroke-linecap="round" stroke-linejoin="round"/>
<path fill-rule="evenodd" clip-rule="evenodd" d="M691.189 259.342C691.189 248.297 700.143 239.342 711.189 239.342H856.223C867.269 239.342 876.223 248.297 876.223 259.342V321.092C876.223 332.137 867.269 341.092 856.223 341.092H711.189C700.143 341.092 691.189 332.137 691.189 321.092V259.342Z" fill="#CFD9FF" stroke="white" stroke-width="2" stroke-linecap="round" stroke-linejoin="round"/>
<path fill-rule="evenodd" clip-rule="evenodd" d="M902.678 258.844C902.678 247.798 911.633 238.844 922.678 238.844H1067.71C1078.76 238.844 1087.71 247.798 1087.71 258.844V320.629C1087.71 331.674 1078.76 340.629 1067.71 340.629H922.678C911.633 340.629 902.678 331.674 902.678 320.629V258.844Z" fill="#E7EAFD" stroke="white" stroke-width="2" stroke-linecap="round" stroke-linejoin="round"/>
<path fill-rule="evenodd" clip-rule="evenodd" d="M73.4529 395.531C73.4529 384.485 82.4072 375.531 93.4529 375.531H238.58C249.626 375.531 258.58 384.485 258.58 395.531V457.28C258.58 468.326 249.626 477.28 238.58 477.28H93.4529C82.4072 477.28 73.4529 468.326 73.4529 457.28V395.531Z" fill="#1D4AFF" stroke="white" stroke-width="2" stroke-linecap="round" stroke-linejoin="round"/>
<path fill-rule="evenodd" clip-rule="evenodd" d="M281.951 394.996C281.951 383.95 290.906 374.996 301.951 374.996H446.954C458 374.996 466.954 383.95 466.954 394.996V456.746C466.954 467.791 458 476.746 446.954 476.746H301.951C290.906 476.746 281.951 467.791 281.951 456.746V394.996Z" fill="#8FA6FC" stroke="white" stroke-width="2" stroke-linecap="round" stroke-linejoin="round"/>
<path fill-rule="evenodd" clip-rule="evenodd" d="M487.364 394.854C487.364 383.809 496.318 374.854 507.364 374.854H652.398C663.444 374.854 672.398 383.809 672.398 394.854V456.604C672.398 467.649 663.444 476.604 652.398 476.604H507.364C496.318 476.604 487.364 467.649 487.364 456.604V394.854Z" fill="#CFD9FF" stroke="white" stroke-width="2" stroke-linecap="round" stroke-linejoin="round"/>
<path fill-rule="evenodd" clip-rule="evenodd" d="M692.466 391.186C692.466 380.14 701.42 371.186 712.466 371.186H857.5C868.546 371.186 877.5 380.14 877.5 391.186V452.935C877.5 463.981 868.546 472.935 857.5 472.935H712.466C701.42 472.935 692.466 463.981 692.466 452.935V391.186Z" fill="#E7EAFD" stroke="white" stroke-width="2" stroke-linecap="round" stroke-linejoin="round"/>
<path fill-rule="evenodd" clip-rule="evenodd" d="M72.9226 525.593C72.9226 514.547 81.8769 505.593 92.9226 505.593H237.957C249.002 505.593 257.957 514.547 257.957 525.593V587.342C257.957 598.388 249.002 607.342 237.957 607.342H92.9226C81.8769 607.342 72.9226 598.388 72.9226 587.342V525.593Z" fill="#1D4AFF" stroke="white" stroke-width="2" stroke-linecap="round" stroke-linejoin="round"/>
<path fill-rule="evenodd" clip-rule="evenodd" d="M281.421 525.059C281.421 514.013 290.376 505.059 301.421 505.059H446.456C457.501 505.059 466.456 514.013 466.456 525.059V586.844C466.456 597.89 457.501 606.844 446.456 606.844H301.421C290.376 606.844 281.421 597.89 281.421 586.844V525.059Z" fill="#CFD9FF" stroke="white" stroke-width="2" stroke-linecap="round" stroke-linejoin="round"/>
<path fill-rule="evenodd" clip-rule="evenodd" d="M486.866 524.917C486.866 513.871 495.82 504.917 506.866 504.917H651.869C662.915 504.917 671.869 513.871 671.869 524.917V586.666C671.869 597.712 662.915 606.666 651.869 606.666H506.866C495.82 606.666 486.866 597.712 486.866 586.666V524.917Z" fill="#E7EAFD" stroke="white" stroke-width="2" stroke-linecap="round" stroke-linejoin="round"/>
<path fill-rule="evenodd" clip-rule="evenodd" d="M73.9517 653.946C73.9517 642.901 82.906 633.946 93.9517 633.946H238.986C250.031 633.946 258.986 642.901 258.986 653.946V715.731C258.986 726.777 250.031 735.731 238.986 735.731H93.9517C82.906 735.731 73.9517 726.777 73.9517 715.731V653.946Z" fill="#8FA6FC" stroke="white" stroke-width="2" stroke-linecap="round" stroke-linejoin="round"/>
<path fill-rule="evenodd" clip-rule="evenodd" d="M282.45 653.412C282.45 642.366 291.404 633.412 302.45 633.412H447.359C458.405 633.412 467.359 642.366 467.359 653.412V715.197C467.359 726.243 458.405 735.197 447.359 735.197H302.45C291.404 735.197 282.45 726.243 282.45 715.197V653.412Z" fill="#E7EAFD" stroke="white" stroke-width="2" stroke-linecap="round" stroke-linejoin="round"/>
</g>
<path fill-rule="evenodd" clip-rule="evenodd" d="M601 254.184C601 252.961 601.365 251.766 602.048 250.749C602.731 249.732 603.703 248.939 604.839 248.471C605.976 248.003 607.226 247.88 608.432 248.119C609.639 248.357 610.747 248.946 611.617 249.811C612.487 250.676 613.079 251.778 613.319 252.978C613.559 254.178 613.436 255.421 612.965 256.551C612.494 257.681 611.697 258.647 610.674 259.327C609.652 260.006 608.449 260.369 607.219 260.369C605.571 260.365 603.992 259.712 602.826 258.553C601.661 257.394 601.004 255.823 601 254.184Z" fill="#F96132" stroke="#F96132" stroke-width="2" stroke-linecap="round" stroke-linejoin="round"/>
<path opacity="0.1" fill-rule="evenodd" clip-rule="evenodd" d="M72 140C72 128.954 80.9543 120 92 120H234.75C245.795 120 254.75 128.954 254.75 140V201.749C254.75 212.795 245.795 221.749 234.75 221.749H92C80.9543 221.749 72 212.795 72 201.749V140Z" fill="#1D4AFF" stroke="white" stroke-width="2" stroke-linecap="round" stroke-linejoin="round"/>
<path opacity="0.05" fill-rule="evenodd" clip-rule="evenodd" d="M278 140C278 128.954 286.954 120 298 120H440.75C451.795 120 460.75 128.954 460.75 140V201.749C460.75 212.795 451.795 221.749 440.75 221.749H298C286.954 221.749 278 212.795 278 201.749V140Z" fill="#1D4AFF" stroke="white" stroke-width="2" stroke-linecap="round" stroke-linejoin="round"/>
<path opacity="0.05" fill-rule="evenodd" clip-rule="evenodd" d="M72 21C72 9.9543 80.9543 1 92 1H234.75C245.795 1 254.75 9.95431 254.75 21V82.7495C254.75 93.7952 245.795 102.749 234.75 102.749H92C80.9543 102.749 72 93.7952 72 82.7495V21Z" fill="#1D4AFF" stroke="white" stroke-width="2" stroke-linecap="round" stroke-linejoin="round"/>
<path opacity="0.48" d="M63.469 748.778H766.893" stroke="white" stroke-width="2" stroke-linecap="round" stroke-linejoin="round"/>
<path fill-rule="evenodd" clip-rule="evenodd" d="M55.9811 692.263C55.9928 690.754 56.4536 689.282 57.3052 688.033C58.1569 686.784 59.3612 685.814 60.7666 685.244C62.172 684.675 63.7155 684.532 65.2025 684.833C66.6895 685.135 68.0536 685.867 69.1225 686.939C70.1915 688.01 70.9176 689.372 71.2094 690.853C71.5012 692.334 71.3455 693.867 70.762 695.26C70.1786 696.654 69.1935 697.844 67.9309 698.681C66.6683 699.518 65.1846 699.965 63.667 699.965C62.6534 699.963 61.6503 699.761 60.7151 699.372C59.7799 698.984 58.9309 698.415 58.217 697.7C57.503 696.984 56.9381 696.136 56.5544 695.203C56.1707 694.27 55.9758 693.271 55.9811 692.263Z" fill="#F7A501" stroke="#F7A501" stroke-width="2" stroke-linecap="round" stroke-linejoin="round"/>
<path fill-rule="evenodd" clip-rule="evenodd" d="M432.613 574.329C432.617 572.814 433.073 571.334 433.923 570.076C434.773 568.818 435.979 567.839 437.388 567.262C438.798 566.686 440.348 566.538 441.842 566.838C443.336 567.137 444.707 567.87 445.782 568.945C446.857 570.019 447.587 571.386 447.88 572.873C448.174 574.361 448.017 575.901 447.431 577.3C446.844 578.698 445.853 579.893 444.584 580.731C443.314 581.57 441.823 582.016 440.299 582.012C439.287 582.009 438.286 581.808 437.352 581.421C436.418 581.033 435.57 580.467 434.856 579.753C434.143 579.04 433.577 578.194 433.192 577.263C432.807 576.333 432.611 575.336 432.613 574.329Z" fill="#F7A501" stroke="#F7A501" stroke-width="2" stroke-linecap="round" stroke-linejoin="round"/>
<path fill-rule="evenodd" clip-rule="evenodd" d="M544.654 517.799C544.658 516.283 545.113 514.803 545.963 513.545C546.813 512.287 548.019 511.308 549.429 510.732C550.838 510.155 552.388 510.008 553.882 510.307C555.376 510.607 556.747 511.34 557.822 512.414C558.897 513.489 559.627 514.856 559.921 516.343C560.214 517.83 560.058 519.371 559.471 520.769C558.884 522.168 557.893 523.362 556.624 524.201C555.355 525.04 553.864 525.485 552.34 525.481C551.328 525.479 550.326 525.278 549.392 524.89C548.458 524.503 547.61 523.936 546.897 523.223C546.183 522.51 545.618 521.663 545.233 520.733C544.848 519.802 544.651 518.805 544.654 517.799Z" fill="#F7A501" stroke="#F7A501" stroke-width="2" stroke-linecap="round" stroke-linejoin="round"/>
<path fill-rule="evenodd" clip-rule="evenodd" d="M622.712 597.096C622.716 595.581 623.172 594.101 624.022 592.843C624.872 591.585 626.078 590.606 627.487 590.029C628.897 589.453 630.447 589.305 631.941 589.605C633.435 589.904 634.806 590.637 635.881 591.712C636.956 592.786 637.686 594.153 637.979 595.641C638.273 597.128 638.116 598.668 637.529 600.067C636.943 601.465 635.952 602.66 634.682 603.498C633.413 604.337 631.922 604.783 630.398 604.779C629.386 604.776 628.385 604.576 627.451 604.188C626.517 603.801 625.669 603.234 624.955 602.521C624.241 601.807 623.676 600.961 623.291 600.03C622.906 599.1 622.71 598.103 622.712 597.096Z" fill="#F7A501" stroke="#F7A501" stroke-width="2" stroke-linecap="round" stroke-linejoin="round"/>
<path fill-rule="evenodd" clip-rule="evenodd" d="M314.372 630.253C314.376 628.742 314.83 627.266 315.677 626.012C316.524 624.758 317.725 623.781 319.13 623.206C320.535 622.63 322.08 622.482 323.569 622.779C325.059 623.076 326.427 623.805 327.5 624.875C328.573 625.945 329.303 627.307 329.598 628.789C329.893 630.271 329.739 631.807 329.157 633.202C328.575 634.597 327.589 635.79 326.326 636.629C325.062 637.468 323.577 637.916 322.058 637.916C320.018 637.91 318.063 637.101 316.622 635.664C315.181 634.228 314.372 632.282 314.372 630.253Z" fill="#F7A501" stroke="#F7A501" stroke-width="2" stroke-linecap="round" stroke-linejoin="round"/>
<path fill-rule="evenodd" clip-rule="evenodd" d="M195.913 692.697C195.917 691.186 196.371 689.71 197.218 688.456C198.065 687.201 199.267 686.225 200.671 685.649C202.076 685.074 203.621 684.925 205.111 685.222C206.6 685.52 207.968 686.249 209.041 687.319C210.114 688.388 210.844 689.75 211.139 691.232C211.434 692.714 211.28 694.25 210.698 695.646C210.116 697.041 209.131 698.234 207.867 699.073C206.604 699.912 205.118 700.359 203.599 700.359C202.588 700.359 201.587 700.161 200.653 699.776C199.719 699.39 198.871 698.826 198.157 698.114C197.443 697.402 196.878 696.557 196.492 695.628C196.107 694.698 195.911 693.702 195.913 692.697Z" fill="#F7A501" stroke="#F7A501" stroke-width="2" stroke-linecap="round" stroke-linejoin="round"/>
<path fill-rule="evenodd" clip-rule="evenodd" d="M58.5166 573.522C58.5166 572.005 58.969 570.523 59.8166 569.263C60.6642 568.002 61.8688 567.02 63.278 566.441C64.6872 565.861 66.2377 565.711 67.733 566.008C69.2283 566.305 70.6013 567.037 71.6782 568.111C72.755 569.184 73.4873 570.551 73.7824 572.039C74.0775 573.527 73.9222 575.068 73.3359 576.468C72.7496 577.868 71.7589 579.063 70.489 579.903C69.2192 580.742 67.7275 581.188 66.2026 581.184C64.1623 581.179 62.2074 580.37 60.7665 578.933C59.3257 577.497 58.5166 575.551 58.5166 573.522Z" fill="#1D4AFF" stroke="#3541D1" stroke-width="2" stroke-linecap="round" stroke-linejoin="round"/>
<path fill-rule="evenodd" clip-rule="evenodd" d="M314.372 452.436C314.372 450.92 314.824 449.437 315.672 448.177C316.52 446.916 317.724 445.934 319.133 445.355C320.543 444.775 322.093 444.625 323.588 444.922C325.084 445.219 326.457 445.951 327.533 447.025C328.61 448.098 329.343 449.466 329.638 450.953C329.933 452.441 329.777 453.982 329.191 455.382C328.605 456.782 327.614 457.977 326.344 458.817C325.074 459.657 323.583 460.103 322.058 460.099C320.018 460.094 318.063 459.284 316.622 457.847C315.181 456.411 314.372 454.465 314.372 452.436Z" fill="#1D4AFF" stroke="#3541D1" stroke-width="2" stroke-linecap="round" stroke-linejoin="round"/>
<path fill-rule="evenodd" clip-rule="evenodd" d="M551.27 395.331C551.27 393.814 551.722 392.332 552.57 391.071C553.417 389.811 554.622 388.829 556.031 388.249C557.44 387.67 558.991 387.519 560.486 387.817C561.982 388.114 563.354 388.846 564.431 389.919C565.508 390.993 566.241 392.36 566.536 393.848C566.831 395.336 566.675 396.877 566.089 398.277C565.503 399.676 564.512 400.872 563.242 401.711C561.972 402.551 560.481 402.997 558.956 402.993C556.916 402.988 554.961 402.178 553.52 400.742C552.079 399.305 551.27 397.359 551.27 395.331Z" fill="#1D4AFF" stroke="#3541D1" stroke-width="2" stroke-linecap="round" stroke-linejoin="round"/>
<path fill-rule="evenodd" clip-rule="evenodd" d="M175.173 512.536C175.173 511.019 175.625 509.537 176.473 508.276C177.321 507.016 178.525 506.034 179.934 505.454C181.344 504.875 182.894 504.724 184.389 505.022C185.885 505.319 187.258 506.051 188.335 507.124C189.411 508.198 190.144 509.565 190.439 511.053C190.734 512.541 190.578 514.082 189.992 515.482C189.406 516.882 188.415 518.077 187.145 518.917C185.875 519.756 184.384 520.202 182.859 520.198C180.819 520.193 178.864 519.383 177.423 517.947C175.982 516.511 175.173 514.564 175.173 512.536Z" fill="#1D4AFF" stroke="#3541D1" stroke-width="2" stroke-linecap="round" stroke-linejoin="round"/>
<path fill-rule="evenodd" clip-rule="evenodd" d="M433.227 627.495C433.227 625.979 433.68 624.496 434.527 623.236C435.375 621.975 436.58 620.993 437.989 620.414C439.398 619.834 440.948 619.684 442.444 619.981C443.939 620.278 445.312 621.01 446.389 622.084C447.466 623.157 448.198 624.524 448.493 626.012C448.788 627.5 448.633 629.041 448.047 630.441C447.46 631.841 446.469 633.036 445.2 633.876C443.93 634.715 442.438 635.161 440.913 635.158C438.873 635.152 436.918 634.343 435.477 632.906C434.036 631.47 433.227 629.524 433.227 627.495Z" fill="#1D4AFF" stroke="#1D4AFF" stroke-width="2" stroke-linecap="round" stroke-linejoin="round"/>
<path fill-rule="evenodd" clip-rule="evenodd" d="M673.493 453.48C673.493 451.964 673.945 450.481 674.793 449.221C675.64 447.96 676.845 446.978 678.254 446.399C679.663 445.819 681.214 445.669 682.709 445.966C684.204 446.263 685.577 446.995 686.654 448.069C687.731 449.142 688.464 450.51 688.759 451.997C689.054 453.485 688.898 455.026 688.312 456.426C687.726 457.826 686.735 459.021 685.465 459.861C684.195 460.7 682.704 461.147 681.179 461.143C679.138 461.137 677.184 460.328 675.743 458.891C674.302 457.455 673.493 455.509 673.493 453.48Z" fill="#1D4AFF" stroke="#1D4AFF" stroke-width="2" stroke-linecap="round" stroke-linejoin="round"/>
<path fill-rule="evenodd" clip-rule="evenodd" d="M73.908 570.271L175.41 516.022L73.908 570.271Z" fill="#F7A501"/>
<path d="M73.908 570.271L175.41 516.022" stroke="#3541D1" stroke-width="2" stroke-linecap="round" stroke-linejoin="round"/>
<path fill-rule="evenodd" clip-rule="evenodd" d="M191.178 509.049L314.709 454.603L191.178 509.049Z" fill="#F7A501"/>
<path d="M191.178 509.049L314.709 454.603" stroke="#3541D1" stroke-width="2" stroke-linecap="round" stroke-linejoin="round"/>
<path fill-rule="evenodd" clip-rule="evenodd" d="M328.773 457.045L434.614 620.345L328.773 457.045Z" fill="#F7A501"/>
<path d="M328.773 457.045L434.614 620.345" stroke="#3541D1" stroke-width="2" stroke-linecap="round" stroke-linejoin="round"/>
<path fill-rule="evenodd" clip-rule="evenodd" d="M446.776 621.172L555.727 402.521L446.776 621.172Z" fill="#F7A501"/>
<path d="M446.776 621.172L555.727 402.521" stroke="#3541D1" stroke-width="2" stroke-linecap="round" stroke-linejoin="round"/>
<path fill-rule="evenodd" clip-rule="evenodd" d="M565.671 398.384L672.641 450.092L565.671 398.384Z" fill="#F7A501"/>
<path d="M565.671 398.384L672.641 450.092" stroke="#3541D1" stroke-width="2" stroke-linecap="round" stroke-linejoin="round"/>
<path fill-rule="evenodd" clip-rule="evenodd" d="M630.691 597.438L550.006 514.192L630.691 597.438Z" fill="#F7A501"/>
<path d="M630.691 597.438L550.006 514.192" stroke="#F7A501" stroke-width="2" stroke-linecap="round" stroke-linejoin="round"/>
<path fill-rule="evenodd" clip-rule="evenodd" d="M432.118 578.289L329.11 627.081L432.118 578.289Z" fill="#F7A501"/>
<path d="M432.118 578.289L329.11 627.081" stroke="#F7A501" stroke-width="2" stroke-linecap="round" stroke-linejoin="round"/>
<path fill-rule="evenodd" clip-rule="evenodd" d="M549.61 520.068L441.815 573.346L549.61 520.068Z" fill="#F7A501"/>
<path d="M549.61 520.068L441.815 573.346" stroke="#F7A501" stroke-width="2" stroke-linecap="round" stroke-linejoin="round"/>
<path fill-rule="evenodd" clip-rule="evenodd" d="M315.025 633.956L212.236 687.91L315.025 633.956Z" fill="#F7A501"/>
<path d="M315.025 633.956L212.236 687.91" stroke="#F7A501" stroke-width="2" stroke-linecap="round" stroke-linejoin="round"/>
<path fill-rule="evenodd" clip-rule="evenodd" d="M195.656 691.79L71.3926 691.633L195.656 691.79Z" fill="#F7A501"/>
<path d="M195.656 691.79L71.3926 691.633" stroke="#F7A501" stroke-width="2" stroke-linecap="round" stroke-linejoin="round"/>
<path fill-rule="evenodd" clip-rule="evenodd" d="M34.9663 296.299C34.9663 295.075 35.3315 293.879 36.0156 292.861C36.6997 291.844 37.6719 291.051 38.8093 290.584C39.9466 290.116 41.1979 289.995 42.4047 290.235C43.6116 290.474 44.7198 291.065 45.5889 291.932C46.4581 292.798 47.0491 293.901 47.2872 295.102C47.5254 296.303 47.3999 297.547 46.9268 298.677C46.4536 299.806 45.654 300.771 44.6291 301.449C43.6043 302.126 42.4003 302.486 41.1696 302.483C39.5229 302.479 37.9452 301.826 36.7823 300.666C35.6194 299.507 34.9663 297.936 34.9663 296.299Z" fill="#F96132" stroke="#F96132" stroke-width="2" stroke-linecap="round" stroke-linejoin="round"/>
<path fill-rule="evenodd" clip-rule="evenodd" d="M238.41 389.351C238.41 388.128 238.775 386.933 239.458 385.916C240.142 384.898 241.113 384.106 242.249 383.638C243.386 383.17 244.636 383.047 245.843 383.286C247.049 383.524 248.157 384.113 249.027 384.978C249.897 385.843 250.489 386.945 250.729 388.145C250.969 389.345 250.846 390.588 250.375 391.718C249.904 392.848 249.107 393.814 248.085 394.494C247.062 395.173 245.859 395.536 244.629 395.536C242.98 395.536 241.398 394.884 240.232 393.724C239.065 392.565 238.41 390.992 238.41 389.351Z" fill="#F96132" stroke="#F96132" stroke-width="2" stroke-linecap="round" stroke-linejoin="round"/>
<path fill-rule="evenodd" clip-rule="evenodd" d="M433.62 341.211C433.62 339.987 433.985 338.791 434.669 337.774C435.353 336.756 436.326 335.964 437.463 335.496C438.6 335.028 439.852 334.907 441.059 335.147C442.265 335.387 443.374 335.977 444.243 336.844C445.112 337.71 445.703 338.814 445.941 340.014C446.179 341.215 446.054 342.459 445.581 343.589C445.107 344.719 444.308 345.683 443.283 346.361C442.258 347.039 441.054 347.399 439.823 347.396C438.177 347.391 436.599 346.738 435.436 345.579C434.273 344.419 433.62 342.849 433.62 341.211Z" fill="#F96132" stroke="#F96132" stroke-width="2" stroke-linecap="round" stroke-linejoin="round"/>
<path fill-rule="evenodd" clip-rule="evenodd" d="M132.028 339.351C132.035 338.133 132.404 336.943 133.089 335.933C133.775 334.923 134.746 334.137 135.88 333.675C137.014 333.213 138.26 333.095 139.461 333.337C140.662 333.579 141.765 334.169 142.629 335.033C143.493 335.896 144.081 336.996 144.318 338.191C144.555 339.387 144.43 340.626 143.959 341.751C143.489 342.876 142.694 343.838 141.675 344.514C140.655 345.191 139.457 345.552 138.232 345.552C137.415 345.55 136.607 345.388 135.853 345.075C135.099 344.762 134.415 344.305 133.839 343.729C133.263 343.153 132.806 342.47 132.496 341.719C132.185 340.968 132.026 340.163 132.028 339.351Z" fill="#F96132" stroke="#F96132" stroke-width="2" stroke-linecap="round" stroke-linejoin="round"/>
<path fill-rule="evenodd" clip-rule="evenodd" d="M340.284 341.672C340.287 340.453 340.654 339.262 341.337 338.25C342.021 337.237 342.991 336.449 344.125 335.985C345.258 335.52 346.505 335.4 347.707 335.64C348.91 335.88 350.013 336.469 350.879 337.332C351.745 338.195 352.335 339.295 352.573 340.491C352.811 341.687 352.687 342.926 352.217 344.053C351.747 345.179 350.952 346.141 349.932 346.818C348.912 347.495 347.714 347.857 346.487 347.857C344.841 347.853 343.263 347.199 342.1 346.04C340.937 344.88 340.284 343.31 340.284 341.672Z" fill="#F96132" stroke="#F96132" stroke-width="2" stroke-linecap="round" stroke-linejoin="round"/>
<path fill-rule="evenodd" clip-rule="evenodd" d="M523.743 392.96C523.743 391.736 524.108 390.54 524.793 389.523C525.477 388.505 526.449 387.713 527.586 387.245C528.723 386.777 529.975 386.656 531.182 386.896C532.388 387.136 533.497 387.726 534.366 388.593C535.235 389.459 535.826 390.563 536.064 391.763C536.302 392.964 536.177 394.208 535.704 395.338C535.231 396.468 534.431 397.433 533.406 398.11C532.381 398.788 531.177 399.148 529.946 399.145C528.3 399.14 526.722 398.487 525.559 397.328C524.396 396.168 523.743 394.598 523.743 392.96Z" fill="#F96132" stroke="#F96132" stroke-width="2" stroke-linecap="round" stroke-linejoin="round"/>
<path fill-rule="evenodd" clip-rule="evenodd" d="M47.1973 299.018L131.804 335.584L47.1973 299.018Z" fill="#F96132"/>
<path d="M47.1973 299.018L131.804 335.584" stroke="#F96132" stroke-width="2" stroke-linecap="round" stroke-linejoin="round"/>
<path fill-rule="evenodd" clip-rule="evenodd" d="M139 342.367L238 385.367L139 342.367Z" fill="#F96132"/>
<path d="M139 342.367L238 385.367" stroke="#F96132" stroke-width="2" stroke-linecap="round" stroke-linejoin="round"/>
<path fill-rule="evenodd" clip-rule="evenodd" d="M251.2 387.348L340.604 344.709L251.2 387.348Z" fill="#F96132"/>
<path d="M251.2 387.348L340.604 344.709" stroke="#F96132" stroke-width="2" stroke-linecap="round" stroke-linejoin="round"/>
<path fill-rule="evenodd" clip-rule="evenodd" d="M353.346 341.529L433.78 341.625L353.346 341.529Z" fill="#F96132"/>
<path d="M353.346 341.529L433.78 341.625" stroke="#F96132" stroke-width="2" stroke-linecap="round" stroke-linejoin="round"/>
<path fill-rule="evenodd" clip-rule="evenodd" d="M445.531 343.421L523.136 388.922L445.531 343.421Z" fill="#F96132"/>
<path d="M445.531 343.421L523.136 388.922" stroke="#F96132" stroke-width="2" stroke-linecap="round" stroke-linejoin="round"/>
<path fill-rule="evenodd" clip-rule="evenodd" d="M533.896 386.506L604.497 259.781L533.896 386.506Z" fill="#F96132"/>
<path d="M533.896 386.506L604.497 259.781" stroke="#F96132" stroke-width="2" stroke-linecap="round" stroke-linejoin="round"/>
</svg>
