<svg fill="none" viewBox="0 0 719 410"><path fill="#1D4AFF" fill-opacity=".3" fill-rule="evenodd" d="M42.354 157.157c0-4.879 1.94-9.558 5.393-13.007a18.423 18.423 0 0113.021-5.388h64.992c4.884 0 9.568 1.938 13.021 5.388a18.38 18.38 0 015.394 13.007v19.14a18.38 18.38 0 01-5.394 13.007 18.422 18.422 0 01-13.021 5.388H60.768a18.423 18.423 0 01-13.02-5.388 18.383 18.383 0 01-5.394-13.007v-19.14z" clip-rule="evenodd"/><path fill="#859DFF" fill-rule="evenodd" d="M157.082 156.856c0-4.879 1.94-9.558 5.394-13.008a18.422 18.422 0 0113.021-5.388h64.992a18.426 18.426 0 0112.996 5.401 18.388 18.388 0 015.38 12.995v19.139c0 4.879-1.94 9.558-5.393 13.008a18.422 18.422 0 01-13.021 5.388h-64.954a18.422 18.422 0 01-13.021-5.388 18.385 18.385 0 01-5.394-13.008v-19.139z" clip-rule="evenodd"/><path fill="#8FA6FC" fill-opacity=".2" fill-rule="evenodd" d="M270.095 156.79c0-4.879 1.94-9.558 5.393-13.008a18.43 18.43 0 0113.021-5.387h64.974a18.43 18.43 0 0113.021 5.387 18.388 18.388 0 015.393 13.008v19.14c0 4.878-1.94 9.557-5.393 13.007a18.426 18.426 0 01-13.021 5.388h-64.974a18.426 18.426 0 01-13.021-5.388 18.387 18.387 0 01-5.393-13.007v-19.14z" clip-rule="evenodd"/><path fill="#CFD9FF" fill-rule="evenodd" d="M382.976 154.765a18.365 18.365 0 015.394-13.004 18.408 18.408 0 0113.02-5.382h64.992c4.882 0 9.565 1.936 13.018 5.384a18.39 18.39 0 015.397 13.002v19.149a18.4 18.4 0 01-5.397 13.005 18.43 18.43 0 01-13.018 5.39H401.39a18.424 18.424 0 01-13.021-5.388 18.384 18.384 0 01-5.393-13.007v-19.149z" clip-rule="evenodd"/><path fill="#E7EAFD" fill-opacity=".2" fill-rule="evenodd" d="M499.345 154.492a18.396 18.396 0 015.409-12.981 18.433 18.433 0 0113.005-5.377h64.992a18.421 18.421 0 0112.983 5.388 18.382 18.382 0 015.394 12.97v19.168c0 4.878-1.94 9.557-5.394 13.007a18.422 18.422 0 01-13.02 5.388h-64.993a18.433 18.433 0 01-13.018-5.391 18.398 18.398 0 01-5.396-13.004l.038-19.168z" clip-rule="evenodd"/><path fill="#1D4AFF" fill-opacity=".3" fill-rule="evenodd" d="M43.061 229.628a18.369 18.369 0 015.394-13.004 18.39 18.39 0 015.974-3.985 18.397 18.397 0 017.046-1.397h65.059c4.882 0 9.564 1.937 13.017 5.384a18.39 18.39 0 015.397 13.002v19.149a18.402 18.402 0 01-5.396 13.005 18.432 18.432 0 01-13.018 5.39H61.475a18.423 18.423 0 01-13.02-5.388 18.383 18.383 0 01-5.394-13.007v-19.149z" clip-rule="evenodd"/><path fill="#8FA6FC" fill-opacity=".2" fill-rule="evenodd" d="M157.79 229.383c0-4.879 1.94-9.558 5.393-13.008a18.426 18.426 0 0113.021-5.387h64.973a18.432 18.432 0 0113.018 5.39 18.394 18.394 0 015.396 13.005v19.14c0 4.879-1.94 9.558-5.393 13.007a18.422 18.422 0 01-13.021 5.388h-64.973a18.422 18.422 0 01-13.021-5.388 18.384 18.384 0 01-5.393-13.007v-19.14z" clip-rule="evenodd"/><path fill="#CFD9FF" fill-rule="evenodd" d="M270.821 229.261c0-4.879 1.94-9.558 5.394-13.008a18.422 18.422 0 0113.02-5.388h64.993a18.416 18.416 0 0113.017 5.389 18.376 18.376 0 015.387 13.007V248.4a18.36 18.36 0 01-5.387 13.007 18.416 18.416 0 01-13.017 5.389h-64.993a18.422 18.422 0 01-13.02-5.388 18.385 18.385 0 01-5.394-13.008v-19.139z" clip-rule="evenodd"/><path fill="#E7EAFD" fill-opacity=".2" fill-rule="evenodd" d="M383.683 227.245a18.383 18.383 0 0111.359-16.995 18.417 18.417 0 017.046-1.401h64.992c4.884 0 9.568 1.938 13.021 5.388a18.388 18.388 0 015.393 13.008v19.139c0 4.879-1.94 9.558-5.393 13.008a18.422 18.422 0 01-13.021 5.388h-64.992a18.417 18.417 0 01-13.018-5.389 18.376 18.376 0 01-5.387-13.007v-19.139z" clip-rule="evenodd"/><path fill="#1D4AFF" fill-opacity=".3" fill-rule="evenodd" d="M42.769 301.129c0-4.879 1.94-9.558 5.393-13.008a18.423 18.423 0 0113.02-5.388h64.984c4.883 0 9.567 1.938 13.021 5.388a18.388 18.388 0 015.393 13.008v19.139a18.386 18.386 0 01-5.4 12.996 18.428 18.428 0 01-13.014 5.381H61.183a18.423 18.423 0 01-13.021-5.388 18.387 18.387 0 01-5.393-13.008v-19.12z" clip-rule="evenodd"/><path fill="#CFD9FF" fill-rule="evenodd" d="M157.497 300.836a18.39 18.39 0 015.387-13.001 18.424 18.424 0 0113.009-5.394h65.058a18.411 18.411 0 0117.006 11.356 18.365 18.365 0 011.399 7.039v19.159a18.365 18.365 0 01-5.388 13.007 18.411 18.411 0 01-13.017 5.388h-65.058a18.422 18.422 0 01-13.021-5.388 18.38 18.38 0 01-5.394-13.007l.019-19.159z" clip-rule="evenodd"/><path fill="#E7EAFD" fill-opacity=".2" fill-rule="evenodd" d="M270.538 300.752a18.386 18.386 0 015.397-13.001 18.423 18.423 0 0113.018-5.385h64.973a18.413 18.413 0 0117.012 11.348 18.36 18.36 0 011.402 7.038v19.149c0 4.879-1.94 9.558-5.393 13.008a18.424 18.424 0 01-13.021 5.388h-64.973a18.44 18.44 0 01-13.019-5.391 18.4 18.4 0 01-5.396-13.005v-19.149z" clip-rule="evenodd"/><path fill="#8FA6FC" fill-opacity=".2" fill-rule="evenodd" d="M43.334 371.687c0-4.879 1.94-9.558 5.394-13.008a18.427 18.427 0 0113.02-5.387h64.993a18.408 18.408 0 0117.007 11.356 18.383 18.383 0 011.398 7.039v19.158a18.37 18.37 0 01-5.371 13.038 18.401 18.401 0 01-13.034 5.405H61.749a18.423 18.423 0 01-13.021-5.388 18.387 18.387 0 01-5.394-13.007v-19.206z" clip-rule="evenodd"/><path fill="#E7EAFD" fill-opacity=".2" fill-rule="evenodd" d="M158.063 371.385a18.376 18.376 0 015.394-13.004 18.413 18.413 0 0113.02-5.382h64.917a18.413 18.413 0 0117.012 11.348 18.36 18.36 0 011.402 7.038v19.168c0 4.879-1.94 9.558-5.393 13.008a18.428 18.428 0 01-13.021 5.388h-64.917a18.428 18.428 0 01-13.021-5.388 18.388 18.388 0 01-5.393-13.008v-19.168z" clip-rule="evenodd"/><path fill="#F96132" fill-rule="evenodd" stroke="#F96132" stroke-linecap="round" stroke-linejoin="round" stroke-width="2" d="M333.277 141.616a3.69 3.69 0 011.349-2.843 3.697 3.697 0 013.054-.765 3.681 3.681 0 012.686 5.013 3.666 3.666 0 01-1.356 1.646 3.673 3.673 0 01-4.649-.461 3.767 3.767 0 01-1.084-2.59z" clip-rule="evenodd"/><path fill="#1D4AFF" fill-rule="evenodd" d="M42.354 82.755c0-4.878 1.94-9.557 5.393-13.007a18.424 18.424 0 0113.021-5.388h64.446c4.883 0 9.567 1.938 13.02 5.388a18.384 18.384 0 015.394 13.007v20.233c0 4.878-1.94 9.557-5.394 13.007a18.422 18.422 0 01-13.02 5.388H60.768a18.423 18.423 0 01-13.02-5.388 18.387 18.387 0 01-5.394-13.007V82.755z" clip-rule="evenodd" opacity=".1"/><path fill="#1D4AFF" fill-rule="evenodd" d="M156.517 82.755a18.39 18.39 0 0111.38-17 18.435 18.435 0 017.053-1.395h64.445c4.884 0 9.568 1.938 13.021 5.388a18.384 18.384 0 015.394 13.007v20.233c0 4.878-1.94 9.557-5.394 13.007a18.422 18.422 0 01-13.021 5.388H174.95a18.424 18.424 0 01-13.021-5.388 18.387 18.387 0 01-5.393-13.007l-.019-20.233zM42.354 18.395c0-4.878 1.94-9.557 5.393-13.007A18.424 18.424 0 0160.768 0h64.446c4.883 0 9.567 1.938 13.02 5.388a18.384 18.384 0 015.394 13.007v18.396a18.386 18.386 0 01-5.414 12.971 18.42 18.42 0 01-13 5.368H60.768a18.424 18.424 0 01-13.02-5.388 18.386 18.386 0 01-5.394-13.008V18.395z" clip-rule="evenodd" opacity=".05"/><path fill="#F7A501" fill-rule="evenodd" stroke="#F7A501" stroke-linecap="round" stroke-linejoin="round" stroke-width="2" d="M34.236 382.161a4.215 4.215 0 017.204-2.929 4.2 4.2 0 01-2.99 7.168 4.376 4.376 0 01-1.622-.32 4.262 4.262 0 01-2.281-2.299 4.31 4.31 0 01-.311-1.62zm206.592-64.907a4.22 4.22 0 011.558-3.255 4.236 4.236 0 013.506-.87 4.296 4.296 0 012.159 1.158 4.195 4.195 0 011.095 4.013 4.22 4.22 0 01-4.103 3.183 4.167 4.167 0 01-2.989-1.243 4.258 4.258 0 01-.943-1.366 4.17 4.17 0 01-.283-1.62zm61.457-31.111a4.231 4.231 0 01.716-2.345 4.312 4.312 0 011.886-1.545 4.25 4.25 0 012.442-.236 4.337 4.337 0 012.159 1.159 4.217 4.217 0 01-3.008 7.196 4.32 4.32 0 01-2.989-1.243 4.205 4.205 0 01-.942-1.375 4.083 4.083 0 01-.264-1.611zm42.815 43.648a4.203 4.203 0 012.622-3.89 4.225 4.225 0 015.751 3.08 4.215 4.215 0 01-1.81 4.333 4.136 4.136 0 01-2.348.697 4.263 4.263 0 01-1.612-.32 4.346 4.346 0 01-1.367-.942 4.167 4.167 0 01-.943-1.375c-.2-.504-.3-1.041-.293-1.583zm-169.132 18.273a4.211 4.211 0 012.612-3.881 4.312 4.312 0 012.432-.235 4.207 4.207 0 011.509 7.628 4.221 4.221 0 01-2.338.708 4.274 4.274 0 01-2.98-1.243 4.203 4.203 0 01-1.235-2.977zm-64.973 34.342a4.117 4.117 0 01.716-2.336 4.213 4.213 0 017.628 1.526 4.135 4.135 0 01-.235 2.43 4.235 4.235 0 01-5.516 2.27 4.138 4.138 0 01-1.367-.941c-.4-.391-.72-.855-.943-1.366a4.101 4.101 0 01-.283-1.583z" clip-rule="evenodd"/><path fill="#1D4AFF" fill-rule="evenodd" stroke="#3541D1" stroke-linecap="round" stroke-linejoin="round" stroke-width="2" d="M35.622 316.812a4.235 4.235 0 01.716-2.346 4.183 4.183 0 011.886-1.554 4.23 4.23 0 015.525 5.52 4.226 4.226 0 01-3.088 2.518 4.234 4.234 0 01-4.723-2.528 4.198 4.198 0 01-.316-1.61zm140.346-66.64a4.204 4.204 0 011.548-3.262 4.22 4.22 0 013.506-.873 4.218 4.218 0 011.518 7.648 4.245 4.245 0 01-4.358.226 4.23 4.23 0 01-2.242-3.739h.028zm129.947-31.432a4.217 4.217 0 013.812-4.226 4.224 4.224 0 014.561 3.406 4.22 4.22 0 01-1.811 4.333 4.134 4.134 0 01-2.348.697 4.21 4.21 0 01-4.214-4.21zm-206.3 64.502a4.21 4.21 0 012.612-3.89 4.253 4.253 0 012.441-.245c.819.17 1.572.572 2.169 1.159a4.266 4.266 0 011.15 2.166 4.196 4.196 0 01-.245 2.43 4.217 4.217 0 01-3.913 2.6 4.205 4.205 0 01-2.983-1.237 4.206 4.206 0 01-1.232-2.983z" clip-rule="evenodd"/><path fill="#1D4AFF" fill-rule="evenodd" stroke="#1D4AFF" stroke-linecap="round" stroke-linejoin="round" stroke-width="2" d="M241.168 346.52a4.186 4.186 0 012.611-3.9 4.234 4.234 0 014.602.942 4.217 4.217 0 01-.653 6.488 4.218 4.218 0 01-2.346.708 4.222 4.222 0 01-2.983-1.236 4.197 4.197 0 01-1.231-2.984v-.018zm131.785-95.774a4.24 4.24 0 015.063-4.144c.817.17 1.566.572 2.159 1.158a4.21 4.21 0 01-2.998 7.197 4.228 4.228 0 01-2.986-1.23 4.197 4.197 0 01-1.238-2.981z" clip-rule="evenodd"/><path fill="#F7A501" fill-rule="evenodd" d="M44.07 315.022l55.63-29.859-55.63 29.859z" clip-rule="evenodd"/><path stroke="#3541D1" stroke-linecap="round" stroke-linejoin="round" stroke-width="2" d="M44.07 315.022l55.63-29.859"/><path fill="#F7A501" fill-rule="evenodd" d="M108.392 281.33l67.765-29.972-67.765 29.972z" clip-rule="evenodd"/><path stroke="#3541D1" stroke-linecap="round" stroke-linejoin="round" stroke-width="2" d="M108.392 281.33l67.765-29.972"/><path fill="#F7A501" fill-rule="evenodd" d="M183.869 252.705l58.025 89.877-58.025-89.877z" clip-rule="evenodd"/><path stroke="#3541D1" stroke-linecap="round" stroke-linejoin="round" stroke-width="2" d="M183.869 252.705l58.025 89.877"/><path fill="#F7A501" fill-rule="evenodd" d="M248.598 343.034l59.759-120.338-59.759 120.338z" clip-rule="evenodd"/><path stroke="#3541D1" stroke-linecap="round" stroke-linejoin="round" stroke-width="2" d="M248.598 343.034l59.759-120.338"/><path fill="#F7A501" fill-rule="evenodd" d="M313.816 220.417l58.675 28.464-58.675-28.464z" clip-rule="evenodd"/><path stroke="#3541D1" stroke-linecap="round" stroke-linejoin="round" stroke-width="2" d="M313.816 220.417l58.675 28.464"/><path fill="#F7A501" fill-rule="evenodd" d="M349.475 329.979l-44.258-45.824 44.258 45.824z" clip-rule="evenodd"/><path stroke="#F7A501" stroke-linecap="round" stroke-linejoin="round" stroke-width="2" d="M349.475 329.979l-44.258-45.824"/><path fill="#F7A501" fill-rule="evenodd" d="M240.555 319.439l-56.507 26.854 56.507-26.854z" clip-rule="evenodd"/><path stroke="#F7A501" stroke-linecap="round" stroke-linejoin="round" stroke-width="2" d="M240.555 319.439l-56.507 26.854"/><path fill="#F7A501" fill-rule="evenodd" d="M305 287.396l-59.127 29.321L305 287.396z" clip-rule="evenodd"/><path stroke="#F7A501" stroke-linecap="round" stroke-linejoin="round" stroke-width="2" d="M305 287.396l-59.127 29.321"/><path fill="#F7A501" fill-rule="evenodd" d="M176.327 350.07l-56.384 29.699 56.384-29.699z" clip-rule="evenodd"/><path stroke="#F7A501" stroke-linecap="round" stroke-linejoin="round" stroke-width="2" d="M176.327 350.07l-56.384 29.699"/><path fill="#F7A501" fill-rule="evenodd" d="M110.835 381.907l-68.17-.085 68.17.085z" clip-rule="evenodd"/><path stroke="#F7A501" stroke-linecap="round" stroke-linejoin="round" stroke-width="2" d="M110.835 381.907l-68.17-.085"/><path fill="#F96132" fill-rule="evenodd" stroke="#F96132" stroke-linecap="round" stroke-linejoin="round" stroke-width="2" d="M22.1 165.53c0-.727.217-1.439.623-2.044a3.667 3.667 0 013.771-1.563 3.662 3.662 0 011.886 1.008 3.663 3.663 0 01.792 4.012 3.681 3.681 0 01-2.684 2.231 3.679 3.679 0 01-3.34-1.016 3.67 3.67 0 01-1.047-2.628zm112.306 49.668a3.65 3.65 0 01.623-2.044 3.713 3.713 0 011.659-1.357 3.693 3.693 0 014.362 1.213c.324.436.548.939.654 1.472a3.65 3.65 0 01-.761 3.052 3.666 3.666 0 01-2.85 1.337 3.684 3.684 0 01-3.687-3.673zm106.809-25.752a3.67 3.67 0 011.792-3.145 3.68 3.68 0 014.992 1.189 3.663 3.663 0 01.179 3.614 3.67 3.67 0 01-1.24 1.403 3.599 3.599 0 01-2.046.612 3.684 3.684 0 01-3.677-3.673zm-165.72-.933a2.363 2.363 0 01.632-1.535 3.644 3.644 0 011.66-1.008 4.88 4.88 0 012.121-.151 4.26 4.26 0 011.886.754c.48.348.832.844 1 1.413a2.127 2.127 0 01-.217 1.601 3.085 3.085 0 01-1.349 1.234 4.658 4.658 0 01-2.046.461c-.48 0-.956-.073-1.414-.216a3.863 3.863 0 01-1.197-.594c-.33-.252-.6-.573-.792-.942a2.163 2.163 0 01-.283-1.017zm116.002.924a4.743 4.743 0 01.472-2.044 3.037 3.037 0 011.244-1.347 2.104 2.104 0 011.594-.208 2.623 2.623 0 011.414 1.008c.4.558.659 1.205.754 1.884a4.9 4.9 0 01-.16 2.129c-.185.63-.537 1.2-1.018 1.648a2.342 2.342 0 01-1.537.612 2.468 2.468 0 01-1.952-1.083 4.375 4.375 0 01-.811-2.599zm99.426 27.597c0-.728.217-1.439.622-2.044a3.672 3.672 0 013.772-1.563c.716.138 1.373.49 1.886 1.008a3.691 3.691 0 011.014 3.324 3.683 3.683 0 01-2.207 2.687 3.687 3.687 0 01-5.096-3.412h.009z" clip-rule="evenodd"/><path fill="#F96132" fill-rule="evenodd" d="M29.465 165.531l46.03 20.232-46.03-20.232z" clip-rule="evenodd"/><path stroke="#F96132" stroke-linecap="round" stroke-linejoin="round" stroke-width="2" d="M29.465 165.531l46.03 20.232"/><path fill="#F96132" fill-rule="evenodd" d="M79.182 189.445l55.224 23.925-55.224-23.925z" clip-rule="evenodd"/><path stroke="#F96132" stroke-linecap="round" stroke-linejoin="round" stroke-width="2" d="M79.182 189.445l55.224 23.925"/><path fill="#F96132" fill-rule="evenodd" d="M141.789 215.198l49.708-23.915-49.708 23.915z" clip-rule="evenodd"/><path stroke="#F96132" stroke-linecap="round" stroke-linejoin="round" stroke-width="2" d="M141.789 215.198l49.708-23.915m5.525-1.838h44.193"/><path fill="#F96132" fill-rule="evenodd" d="M248.579 191.283l42.344 23.915-42.344-23.915z" clip-rule="evenodd"/><path stroke="#F96132" stroke-linecap="round" stroke-linejoin="round" stroke-width="2" d="M248.579 191.283l42.344 23.915"/><path fill="#F96132" fill-rule="evenodd" d="M296.458 213.371l38.658-68.053-38.658 68.053z" clip-rule="evenodd"/><path stroke="#F96132" stroke-linecap="round" stroke-linejoin="round" stroke-width="2" d="M296.458 213.371l38.658-68.053"/><path fill="#E7EAFD" fill-opacity=".2" fill-rule="evenodd" d="M505.422 153.614c0-5.523 4.477-10 10-10h83.438c5.523 0 10 4.477 10 10v36.899c0 5.523-4.477 10-10 10h-83.438c-5.523 0-10-4.477-10-10v-36.899z" clip-rule="evenodd"/></svg>