<svg xmlns="http://www.w3.org/2000/svg" width="719" height="410" fill="none" viewBox="0 0 719 410"><path fill="#1D4AFF" fill-opacity=".3" fill-rule="evenodd" d="M42.3539 157.157C42.3539 152.278 44.294 147.599 47.7474 144.15C51.2007 140.7 55.8845 138.762 60.7683 138.762H125.76C130.644 138.762 135.328 140.7 138.781 144.15C142.235 147.599 144.175 152.278 144.175 157.157V176.297C144.175 181.176 142.235 185.855 138.781 189.304C135.328 192.754 130.644 194.692 125.76 194.692H60.7683C55.8845 194.692 51.2007 192.754 47.7474 189.304C44.294 185.855 42.3539 181.176 42.3539 176.297V157.157Z" clip-rule="evenodd"/><path fill="#859DFF" fill-rule="evenodd" d="M157.082 156.856C157.082 151.977 159.022 147.298 162.476 143.848C165.929 140.398 170.613 138.46 175.497 138.46H240.489C245.366 138.47 250.04 140.413 253.485 143.861C256.93 147.31 258.865 151.983 258.865 156.856V175.995C258.865 180.874 256.925 185.553 253.472 189.003C250.019 192.453 245.335 194.391 240.451 194.391H175.497C170.613 194.391 165.929 192.453 162.476 189.003C159.022 185.553 157.082 180.874 157.082 175.995V156.856Z" clip-rule="evenodd"/><path fill="#8FA6FC" fill-opacity=".2" fill-rule="evenodd" d="M270.095 156.79C270.095 151.911 272.035 147.232 275.488 143.782C278.942 140.333 283.626 138.395 288.509 138.395H353.483C358.366 138.395 363.05 140.333 366.504 143.782C369.957 147.232 371.897 151.911 371.897 156.79V175.93C371.897 180.808 369.957 185.487 366.504 188.937C363.05 192.387 358.366 194.325 353.483 194.325H288.509C283.626 194.325 278.942 192.387 275.488 188.937C272.035 185.487 270.095 180.808 270.095 175.93V156.79Z" clip-rule="evenodd"/><path fill="#CFD9FF" fill-rule="evenodd" d="M382.976 154.765C382.976 152.349 383.452 149.958 384.378 147.727C385.303 145.495 386.66 143.468 388.37 141.761C390.08 140.053 392.11 138.699 394.344 137.775C396.578 136.852 398.972 136.377 401.39 136.379H466.382C471.264 136.379 475.947 138.315 479.4 141.763C482.853 145.211 484.794 149.888 484.797 154.765V173.914C484.794 178.792 482.853 183.469 479.4 186.919C475.948 190.368 471.265 192.307 466.382 192.309H401.39C396.506 192.309 391.823 190.371 388.369 186.921C384.916 183.472 382.976 178.793 382.976 173.914V154.765Z" clip-rule="evenodd"/><path fill="#E7EAFD" fill-opacity=".2" fill-rule="evenodd" d="M499.345 154.492C499.357 149.62 501.303 144.952 504.754 141.511C508.206 138.07 512.883 136.136 517.759 136.134H582.751C587.622 136.144 592.29 138.081 595.734 141.522C599.179 144.962 601.118 149.626 601.128 154.492V173.66C601.128 178.538 599.188 183.217 595.734 186.667C592.281 190.117 587.597 192.055 582.714 192.055H517.721C512.838 192.052 508.156 190.114 504.703 186.664C501.251 183.215 499.31 178.538 499.307 173.66L499.345 154.492Z" clip-rule="evenodd"/><path fill="#1D4AFF" fill-opacity=".3" fill-rule="evenodd" d="M43.0611 229.628C43.0611 227.213 43.5375 224.821 44.463 222.59C45.3885 220.358 46.7451 218.331 48.4551 216.624C50.1652 214.916 52.1952 213.562 54.4293 212.639C56.6634 211.715 59.0577 211.24 61.4754 211.242H126.534C131.416 211.242 136.098 213.179 139.551 216.626C143.004 220.074 144.945 224.751 144.948 229.628V248.777C144.945 253.655 143.004 258.332 139.552 261.782C136.099 265.231 131.417 267.17 126.534 267.172H61.4754C56.5917 267.172 51.9079 265.234 48.4546 261.784C45.0012 258.335 43.0611 253.656 43.0611 248.777V229.628Z" clip-rule="evenodd"/><path fill="#8FA6FC" fill-opacity=".2" fill-rule="evenodd" d="M157.79 229.383C157.79 224.504 159.73 219.825 163.183 216.375C166.636 212.926 171.32 210.988 176.204 210.988H241.177C246.06 210.99 250.742 212.929 254.195 216.378C257.648 219.828 259.589 224.505 259.591 229.383V248.523C259.591 253.402 257.651 258.081 254.198 261.53C250.745 264.98 246.061 266.918 241.177 266.918H176.204C171.32 266.918 166.636 264.98 163.183 261.53C159.73 258.081 157.79 253.402 157.79 248.523V229.383Z" clip-rule="evenodd"/><path fill="#CFD9FF" fill-rule="evenodd" d="M270.821 229.261C270.821 224.382 272.761 219.703 276.215 216.253C279.668 212.803 284.352 210.865 289.235 210.865H354.228C356.645 210.865 359.039 211.341 361.273 212.266C363.507 213.19 365.536 214.545 367.245 216.254C368.954 217.962 370.31 219.99 371.234 222.222C372.158 224.454 372.634 226.845 372.632 229.261V248.4C372.634 250.816 372.158 253.207 371.234 255.439C370.31 257.671 368.954 259.699 367.245 261.407C365.536 263.116 363.507 264.471 361.273 265.395C359.039 266.32 356.645 266.796 354.228 266.796H289.235C284.352 266.796 279.668 264.858 276.215 261.408C272.761 257.958 270.821 253.279 270.821 248.4V229.261Z" clip-rule="evenodd"/><path fill="#E7EAFD" fill-opacity=".2" fill-rule="evenodd" d="M383.683 227.245C383.682 224.83 384.157 222.438 385.081 220.206C386.006 217.974 387.361 215.946 389.07 214.238C390.779 212.53 392.809 211.174 395.042 210.25C397.276 209.325 399.67 208.849 402.088 208.849H467.08C471.964 208.849 476.648 210.787 480.101 214.237C483.554 217.687 485.494 222.366 485.494 227.245V246.384C485.494 251.263 483.554 255.942 480.101 259.392C476.648 262.842 471.964 264.78 467.08 264.78H402.088C399.67 264.78 397.276 264.304 395.042 263.379C392.809 262.455 390.779 261.1 389.07 259.391C387.361 257.683 386.006 255.655 385.081 253.423C384.157 251.192 383.682 248.8 383.683 246.384V227.245Z" clip-rule="evenodd"/><path fill="#1D4AFF" fill-opacity=".3" fill-rule="evenodd" d="M42.7686 301.129C42.7686 296.25 44.7087 291.571 48.162 288.121C51.6154 284.671 56.2992 282.733 61.1829 282.733H126.166C131.049 282.733 135.733 284.671 139.187 288.121C142.64 291.571 144.58 296.25 144.58 301.129V320.268C144.575 325.144 142.633 329.818 139.18 333.264C135.727 336.709 131.046 338.645 126.166 338.645H61.1829C56.2992 338.645 51.6154 336.707 48.162 333.257C44.7087 329.807 42.7686 325.128 42.7686 320.249V301.129Z" clip-rule="evenodd"/><path fill="#CFD9FF" fill-rule="evenodd" d="M157.497 300.836C157.497 295.961 159.435 291.285 162.884 287.835C166.333 284.386 171.012 282.446 175.893 282.441H240.951C243.368 282.441 245.763 282.917 247.996 283.841C250.23 284.766 252.259 286.121 253.968 287.829C255.677 289.538 257.033 291.566 257.957 293.797C258.882 296.029 259.357 298.421 259.356 300.836V319.995C259.357 322.41 258.882 324.802 257.957 327.034C257.033 329.266 255.677 331.294 253.968 333.002C252.259 334.71 250.23 336.065 247.996 336.99C245.763 337.914 243.368 338.39 240.951 338.39H175.893C171.009 338.39 166.325 336.452 162.872 333.002C159.418 329.553 157.478 324.874 157.478 319.995L157.497 300.836Z" clip-rule="evenodd"/><path fill="#E7EAFD" fill-opacity=".2" fill-rule="evenodd" d="M270.538 300.752C270.541 295.875 272.482 291.198 275.935 287.751C279.388 284.303 284.07 282.366 288.953 282.366H353.926C356.344 282.365 358.738 282.839 360.972 283.763C363.206 284.686 365.236 286.04 366.946 287.748C368.656 289.455 370.013 291.483 370.938 293.714C371.864 295.945 372.34 298.337 372.34 300.752V319.901C372.34 324.78 370.4 329.459 366.947 332.909C363.493 336.359 358.81 338.297 353.926 338.297H288.953C284.07 338.294 279.387 336.355 275.934 332.906C272.482 329.457 270.541 324.779 270.538 319.901V300.752Z" clip-rule="evenodd"/><path fill="#8FA6FC" fill-opacity=".2" fill-rule="evenodd" d="M43.3345 371.687C43.3345 366.808 45.2746 362.129 48.7279 358.679C52.1813 355.23 56.865 353.292 61.7488 353.292H126.741C129.159 353.292 131.553 353.767 133.786 354.692C136.02 355.617 138.049 356.972 139.758 358.68C141.468 360.388 142.823 362.416 143.748 364.648C144.672 366.88 145.147 369.272 145.146 371.687V390.845C145.153 393.265 144.683 395.662 143.761 397.899C142.84 400.136 141.485 402.17 139.775 403.883C138.065 405.596 136.034 406.956 133.797 407.883C131.561 408.811 129.163 409.288 126.741 409.288H61.7488C56.865 409.288 52.1813 407.35 48.7279 403.9C45.2746 400.45 43.3345 395.771 43.3345 390.893V371.687Z" clip-rule="evenodd"/><path fill="#E7EAFD" fill-opacity=".2" fill-rule="evenodd" d="M158.063 371.385C158.063 368.97 158.539 366.578 159.465 364.347C160.39 362.116 161.747 360.088 163.457 358.381C165.167 356.673 167.197 355.319 169.431 354.396C171.665 353.472 174.059 352.998 176.477 352.999H241.394C243.812 352.998 246.206 353.472 248.44 354.396C250.674 355.319 252.704 356.673 254.414 358.381C256.124 360.088 257.481 362.116 258.406 364.347C259.332 366.578 259.808 368.97 259.808 371.385V390.553C259.808 395.432 257.868 400.111 254.415 403.561C250.961 407.01 246.278 408.949 241.394 408.949H176.477C171.593 408.949 166.91 407.01 163.456 403.561C160.003 400.111 158.063 395.432 158.063 390.553V371.385Z" clip-rule="evenodd"/><path fill="#F96132" fill-rule="evenodd" stroke="#F96132" stroke-linecap="round" stroke-linejoin="round" stroke-width="2" d="M333.277 141.616C333.278 141.072 333.399 140.535 333.632 140.043C333.865 139.552 334.205 139.118 334.626 138.773C335.047 138.428 335.539 138.181 336.067 138.048C336.595 137.916 337.146 137.902 337.68 138.008C338.395 138.15 339.051 138.501 339.566 139.016C340.081 139.53 340.432 140.186 340.575 140.9C340.717 141.612 340.644 142.35 340.366 143.021C340.087 143.692 339.615 144.265 339.01 144.667C338.302 145.142 337.451 145.356 336.602 145.271C335.754 145.187 334.962 144.81 334.361 144.206C333.679 143.514 333.291 142.586 333.277 141.616Z" clip-rule="evenodd"/><path fill="#1D4AFF" fill-rule="evenodd" d="M42.354 82.7554C42.354 77.8766 44.2941 73.1976 47.7474 69.7478C51.2008 66.298 55.8845 64.3599 60.7683 64.3599H125.214C130.097 64.3599 134.781 66.298 138.234 69.7478C141.688 73.1976 143.628 77.8766 143.628 82.7554V102.988C143.628 107.866 141.688 112.545 138.234 115.995C134.781 119.445 130.097 121.383 125.214 121.383H60.7683C55.8845 121.383 51.2008 119.445 47.7474 115.995C44.2941 112.545 42.354 107.866 42.354 102.988V82.7554Z" clip-rule="evenodd" opacity=".1"/><path fill="#1D4AFF" fill-rule="evenodd" d="M156.517 82.7554C156.517 80.3381 156.994 77.9445 157.92 75.7114C158.847 73.4783 160.205 71.4496 161.917 69.7411C163.629 68.0327 165.661 66.6781 167.897 65.7547C170.134 64.8314 172.53 64.3574 174.95 64.3599H239.395C244.279 64.3599 248.963 66.298 252.416 69.7478C255.87 73.1976 257.81 77.8766 257.81 82.7554V102.988C257.81 107.866 255.87 112.545 252.416 115.995C248.963 119.445 244.279 121.383 239.395 121.383H174.95C170.066 121.383 165.383 119.445 161.929 115.995C158.476 112.545 156.536 107.866 156.536 102.988L156.517 82.7554Z" clip-rule="evenodd" opacity=".05"/><path fill="#1D4AFF" fill-rule="evenodd" d="M42.3539 18.3955C42.3539 13.5167 44.294 8.83775 47.7474 5.38793C51.2007 1.9381 55.8845 0 60.7683 0H125.214C130.097 0 134.781 1.9381 138.234 5.38793C141.688 8.83775 143.628 13.5167 143.628 18.3955V36.791C143.613 41.66 141.666 46.3245 138.214 49.7621C134.763 53.1997 130.088 55.13 125.214 55.13H60.7683C55.8845 55.13 51.2007 53.1919 47.7474 49.7421C44.294 46.2922 42.3539 41.6133 42.3539 36.7345V18.3955Z" clip-rule="evenodd" opacity=".05"/><path fill="#F7A501" fill-rule="evenodd" stroke="#F7A501" stroke-linecap="round" stroke-linejoin="round" stroke-width="2" d="M34.2356 382.161C34.2416 381.331 34.4943 380.521 34.9616 379.835C35.3108 379.321 35.7695 378.89 36.3048 378.574C36.8402 378.258 37.4389 378.065 38.058 378.007C38.6771 377.949 39.3013 378.029 39.8859 378.241C40.4705 378.453 41.0009 378.791 41.4391 379.232C42.027 379.821 42.4267 380.57 42.5878 381.386C42.7489 382.202 42.6641 383.047 42.344 383.814C42.024 384.582 41.4831 385.237 40.7899 385.697C40.0968 386.158 39.2825 386.402 38.4502 386.4C37.8941 386.397 37.3436 386.289 36.8285 386.08C35.7947 385.643 34.9748 384.818 34.5467 383.781C34.3397 383.266 34.234 382.716 34.2356 382.161Z" clip-rule="evenodd"/><path fill="#F7A501" fill-rule="evenodd" stroke="#F7A501" stroke-linecap="round" stroke-linejoin="round" stroke-width="2" d="M240.828 317.254C240.832 316.63 240.973 316.015 241.242 315.452C241.511 314.889 241.902 314.393 242.386 313.999C242.87 313.604 243.435 313.322 244.041 313.171C244.647 313.021 245.279 313.006 245.892 313.129C246.709 313.297 247.459 313.7 248.051 314.287C248.642 314.879 249.042 315.633 249.201 316.454C249.319 317.066 249.3 317.696 249.146 318.3C248.992 318.904 248.706 319.467 248.308 319.947C247.911 320.428 247.412 320.815 246.848 321.08C246.283 321.346 245.667 321.484 245.043 321.483C244.487 321.486 243.936 321.377 243.423 321.164C242.909 320.95 242.444 320.636 242.054 320.24C241.653 319.851 241.333 319.387 241.111 318.874C240.91 318.358 240.814 317.808 240.828 317.254Z" clip-rule="evenodd"/><path fill="#F7A501" fill-rule="evenodd" stroke="#F7A501" stroke-linecap="round" stroke-linejoin="round" stroke-width="2" d="M302.285 286.143C302.287 285.308 302.536 284.492 303.001 283.798C303.468 283.112 304.123 282.576 304.887 282.253C305.66 281.936 306.509 281.854 307.329 282.017C308.145 282.188 308.895 282.59 309.488 283.176C310.078 283.768 310.478 284.521 310.639 285.34C310.8 286.159 310.714 287.008 310.392 287.778C310.07 288.549 309.526 289.206 308.83 289.668C308.134 290.13 307.316 290.375 306.48 290.372C305.36 290.361 304.289 289.915 303.491 289.129C303.088 288.738 302.768 288.27 302.549 287.754C302.353 287.24 302.264 286.692 302.285 286.143Z" clip-rule="evenodd"/><path fill="#F7A501" fill-rule="evenodd" stroke="#F7A501" stroke-linecap="round" stroke-linejoin="round" stroke-width="2" d="M345.1 329.791C345.101 328.956 345.35 328.14 345.817 327.447C346.284 326.754 346.947 326.216 347.722 325.901C348.299 325.664 348.921 325.557 349.544 325.589C350.167 325.62 350.776 325.789 351.326 326.084C351.876 326.378 352.353 326.791 352.725 327.292C353.096 327.793 353.352 328.37 353.473 328.981C353.635 329.801 353.549 330.651 353.227 331.422C352.905 332.194 352.36 332.852 351.663 333.314C350.969 333.778 350.15 334.021 349.315 334.011C348.762 334.01 348.214 333.901 347.703 333.691C347.191 333.467 346.726 333.148 346.336 332.749C345.932 332.358 345.611 331.891 345.393 331.374C345.193 330.87 345.093 330.333 345.1 329.791Z" clip-rule="evenodd"/><path fill="#F7A501" fill-rule="evenodd" stroke="#F7A501" stroke-linecap="round" stroke-linejoin="round" stroke-width="2" d="M175.968 348.064C175.971 347.232 176.22 346.419 176.685 345.728C177.15 345.038 177.809 344.5 178.58 344.183C179.351 343.872 180.196 343.79 181.012 343.948C181.83 344.114 182.581 344.517 183.172 345.107C183.758 345.696 184.157 346.447 184.317 347.262C184.477 348.078 184.392 348.923 184.073 349.691C183.753 350.458 183.213 351.114 182.521 351.576C181.828 352.037 181.015 352.284 180.183 352.284C179.065 352.275 177.995 351.829 177.203 351.041C176.811 350.65 176.501 350.186 176.289 349.675C176.077 349.165 175.968 348.617 175.968 348.064Z" clip-rule="evenodd"/><path fill="#F7A501" fill-rule="evenodd" stroke="#F7A501" stroke-linecap="round" stroke-linejoin="round" stroke-width="2" d="M110.995 382.406C110.992 381.573 111.241 380.759 111.711 380.07C112.175 379.379 112.834 378.84 113.604 378.523C114.375 378.206 115.222 378.125 116.039 378.29C116.855 378.452 117.605 378.853 118.193 379.442C118.78 380.03 119.179 380.78 119.339 381.596C119.507 382.412 119.425 383.259 119.104 384.026C118.67 385.055 117.847 385.872 116.814 386.297C115.781 386.722 114.621 386.722 113.588 386.296C113.073 386.078 112.608 385.757 112.221 385.355C111.821 384.964 111.501 384.5 111.278 383.989C111.08 383.485 110.984 382.947 110.995 382.406Z" clip-rule="evenodd"/><path fill="#1D4AFF" fill-rule="evenodd" stroke="#3541D1" stroke-linecap="round" stroke-linejoin="round" stroke-width="2" d="M35.6217 316.812C35.624 315.976 35.8733 315.16 36.3383 314.466C36.798 313.772 37.4546 313.231 38.224 312.912C39.0003 312.595 39.8529 312.513 40.6755 312.677C41.287 312.8 41.8635 313.058 42.3639 313.43C42.8642 313.803 43.276 314.281 43.5697 314.831C43.8634 315.381 44.0318 315.989 44.0629 316.611C44.0939 317.234 43.9868 317.855 43.7492 318.432C43.481 319.073 43.0589 319.638 42.5202 320.077C41.9815 320.516 41.3429 320.816 40.6607 320.95C39.9784 321.084 39.2737 321.048 38.6086 320.845C37.9435 320.643 37.3387 320.28 36.8474 319.788C36.4573 319.397 36.1482 318.933 35.9379 318.422C35.7276 317.911 35.6201 317.364 35.6217 316.812Z" clip-rule="evenodd"/><path fill="#1D4AFF" fill-rule="evenodd" stroke="#3541D1" stroke-linecap="round" stroke-linejoin="round" stroke-width="2" d="M175.968 250.172C175.968 249.547 176.107 248.931 176.375 248.367C176.643 247.803 177.032 247.305 177.516 246.91C177.999 246.514 178.564 246.231 179.171 246.08C179.777 245.929 180.409 245.914 181.022 246.037C181.841 246.2 182.594 246.602 183.184 247.193C183.774 247.783 184.176 248.535 184.339 249.354C184.501 250.173 184.417 251.021 184.097 251.792C183.777 252.563 183.235 253.222 182.54 253.685C181.902 254.114 181.16 254.362 180.392 254.402C179.625 254.442 178.861 254.272 178.182 253.911C177.504 253.55 176.937 253.011 176.542 252.352C176.147 251.693 175.938 250.939 175.94 250.172H175.968Z" clip-rule="evenodd"/><path fill="#1D4AFF" fill-rule="evenodd" stroke="#3541D1" stroke-linecap="round" stroke-linejoin="round" stroke-width="2" d="M305.915 218.74C305.908 217.688 306.296 216.671 307.001 215.889C307.706 215.107 308.679 214.617 309.727 214.514C310.775 214.412 311.824 214.704 312.668 215.334C313.512 215.964 314.089 216.887 314.288 217.92C314.449 218.741 314.364 219.59 314.041 220.362C313.719 221.133 313.175 221.791 312.477 222.253C311.783 222.717 310.965 222.96 310.129 222.95C309.012 222.95 307.94 222.507 307.149 221.717C306.359 220.927 305.915 219.857 305.915 218.74Z" clip-rule="evenodd"/><path fill="#1D4AFF" fill-rule="evenodd" stroke="#3541D1" stroke-linecap="round" stroke-linejoin="round" stroke-width="2" d="M99.6144 283.242C99.6152 282.408 99.8638 281.593 100.329 280.901C100.794 280.208 101.454 279.669 102.226 279.352C102.998 279.032 103.848 278.947 104.668 279.107C105.487 279.277 106.24 279.679 106.837 280.266C107.424 280.86 107.824 281.613 107.987 282.432C108.148 283.248 108.063 284.094 107.742 284.862C107.422 285.635 106.879 286.294 106.182 286.757C105.485 287.22 104.666 287.466 103.829 287.462C103.275 287.462 102.726 287.353 102.214 287.14C101.702 286.928 101.237 286.617 100.846 286.225C100.454 285.833 100.144 285.368 99.9325 284.856C99.7213 284.344 99.6132 283.796 99.6144 283.242Z" clip-rule="evenodd"/><path fill="#1D4AFF" fill-rule="evenodd" stroke="#1D4AFF" stroke-linecap="round" stroke-linejoin="round" stroke-width="2" d="M241.168 346.52C241.164 345.684 241.411 344.865 241.876 344.171C242.342 343.476 243.004 342.936 243.779 342.62C244.554 342.305 245.404 342.226 246.223 342.393C247.042 342.561 247.793 342.968 248.381 343.562C248.97 344.153 249.37 344.906 249.531 345.724C249.692 346.542 249.607 347.39 249.286 348.16C248.965 348.93 248.423 349.588 247.728 350.05C247.034 350.513 246.217 350.759 245.382 350.758C244.828 350.758 244.279 350.649 243.767 350.437C243.255 350.225 242.79 349.914 242.399 349.522C242.007 349.13 241.697 348.665 241.486 348.153C241.274 347.641 241.166 347.092 241.168 346.538V346.52Z" clip-rule="evenodd"/><path fill="#1D4AFF" fill-rule="evenodd" stroke="#1D4AFF" stroke-linecap="round" stroke-linejoin="round" stroke-width="2" d="M372.953 250.746C372.956 249.911 373.205 249.096 373.669 248.402C374.134 247.709 374.793 247.167 375.565 246.847C376.34 246.527 377.193 246.442 378.016 246.602C378.833 246.772 379.582 247.174 380.175 247.76C380.769 248.35 381.173 249.102 381.337 249.922C381.501 250.742 381.417 251.592 381.095 252.364C380.773 253.136 380.229 253.795 379.531 254.256C378.833 254.718 378.014 254.962 377.177 254.957C376.623 254.958 376.074 254.85 375.561 254.639C375.049 254.428 374.583 254.118 374.191 253.727C373.798 253.336 373.487 252.871 373.275 252.36C373.062 251.848 372.953 251.3 372.953 250.746Z" clip-rule="evenodd"/><path fill="#F7A501" fill-rule="evenodd" d="M44.0698 315.022L99.6992 285.163L44.0698 315.022Z" clip-rule="evenodd"/><path stroke="#3541D1" stroke-linecap="round" stroke-linejoin="round" stroke-width="2" d="M44.0698 315.022L99.6992 285.163"/><path fill="#F7A501" fill-rule="evenodd" d="M108.392 281.33L176.157 251.358L108.392 281.33Z" clip-rule="evenodd"/><path stroke="#3541D1" stroke-linecap="round" stroke-linejoin="round" stroke-width="2" d="M108.392 281.33L176.157 251.358"/><path fill="#F7A501" fill-rule="evenodd" d="M183.869 252.705L241.894 342.582L183.869 252.705Z" clip-rule="evenodd"/><path stroke="#3541D1" stroke-linecap="round" stroke-linejoin="round" stroke-width="2" d="M183.869 252.705L241.894 342.582"/><path fill="#F7A501" fill-rule="evenodd" d="M248.598 343.034L308.357 222.696L248.598 343.034Z" clip-rule="evenodd"/><path stroke="#3541D1" stroke-linecap="round" stroke-linejoin="round" stroke-width="2" d="M248.598 343.034L308.357 222.696"/><path fill="#F7A501" fill-rule="evenodd" d="M313.816 220.417L372.491 248.881L313.816 220.417Z" clip-rule="evenodd"/><path stroke="#3541D1" stroke-linecap="round" stroke-linejoin="round" stroke-width="2" d="M313.816 220.417L372.491 248.881"/><path fill="#F7A501" fill-rule="evenodd" d="M349.475 329.979L305.217 284.155L349.475 329.979Z" clip-rule="evenodd"/><path stroke="#F7A501" stroke-linecap="round" stroke-linejoin="round" stroke-width="2" d="M349.475 329.979L305.217 284.155"/><path fill="#F7A501" fill-rule="evenodd" d="M240.555 319.439L184.048 346.293L240.555 319.439Z" clip-rule="evenodd"/><path stroke="#F7A501" stroke-linecap="round" stroke-linejoin="round" stroke-width="2" d="M240.555 319.439L184.048 346.293"/><path fill="#F7A501" fill-rule="evenodd" d="M305 287.396L245.873 316.717L305 287.396Z" clip-rule="evenodd"/><path stroke="#F7A501" stroke-linecap="round" stroke-linejoin="round" stroke-width="2" d="M305 287.396L245.873 316.717"/><path fill="#F7A501" fill-rule="evenodd" d="M176.327 350.07L119.943 379.769L176.327 350.07Z" clip-rule="evenodd"/><path stroke="#F7A501" stroke-linecap="round" stroke-linejoin="round" stroke-width="2" d="M176.327 350.07L119.943 379.769"/><path fill="#F7A501" fill-rule="evenodd" d="M110.835 381.907L42.665 381.822L110.835 381.907Z" clip-rule="evenodd"/><path stroke="#F7A501" stroke-linecap="round" stroke-linejoin="round" stroke-width="2" d="M110.835 381.907L42.665 381.822"/><path fill="#F96132" fill-rule="evenodd" stroke="#F96132" stroke-linecap="round" stroke-linejoin="round" stroke-width="2" d="M22.1008 165.53C22.1009 164.803 22.3175 164.091 22.7231 163.486C23.1258 162.882 23.6993 162.41 24.3708 162.132C25.0424 161.853 25.7816 161.781 26.4945 161.923C27.2096 162.064 27.8662 162.415 28.3803 162.931C28.8966 163.445 29.2478 164.102 29.3889 164.816C29.5299 165.531 29.4546 166.272 29.1723 166.943C28.945 167.508 28.5807 168.008 28.1122 168.398C27.6436 168.787 27.0854 169.054 26.4879 169.174C25.8904 169.295 25.2723 169.265 24.6892 169.088C24.1061 168.91 23.5763 168.591 23.1474 168.158C22.8077 167.811 22.5404 167.4 22.3607 166.949C22.1811 166.498 22.0928 166.016 22.1008 165.53Z" clip-rule="evenodd"/><path fill="#F96132" fill-rule="evenodd" stroke="#F96132" stroke-linecap="round" stroke-linejoin="round" stroke-width="2" d="M134.406 215.198C134.405 214.47 134.622 213.758 135.029 213.154C135.436 212.548 136.014 212.077 136.688 211.797C137.191 211.591 137.734 211.498 138.277 211.526C138.82 211.553 139.351 211.701 139.83 211.957C140.309 212.214 140.726 212.573 141.05 213.01C141.374 213.446 141.598 213.949 141.704 214.482C141.812 215.015 141.8 215.566 141.668 216.093C141.536 216.621 141.288 217.113 140.943 217.534C140.597 217.954 140.162 218.292 139.669 218.523C139.176 218.755 138.638 218.873 138.093 218.871C137.117 218.871 136.181 218.484 135.489 217.796C134.798 217.107 134.409 216.173 134.406 215.198Z" clip-rule="evenodd"/><path fill="#F96132" fill-rule="evenodd" stroke="#F96132" stroke-linecap="round" stroke-linejoin="round" stroke-width="2" d="M241.215 189.446C241.216 188.811 241.382 188.189 241.696 187.638C242.01 187.086 242.462 186.626 243.007 186.301C243.552 185.976 244.171 185.797 244.806 185.782C245.441 185.767 246.068 185.917 246.628 186.216C247.187 186.515 247.66 186.954 247.999 187.49C248.339 188.026 248.534 188.64 248.565 189.274C248.596 189.907 248.463 190.538 248.178 191.104C247.893 191.671 247.466 192.154 246.938 192.507C246.334 192.913 245.62 193.127 244.892 193.119C243.918 193.117 242.984 192.729 242.295 192.04C241.606 191.352 241.217 190.419 241.215 189.446Z" clip-rule="evenodd"/><path fill="#F96132" fill-rule="evenodd" stroke="#F96132" stroke-linecap="round" stroke-linejoin="round" stroke-width="2" d="M75.4957 188.513C75.5136 187.942 75.738 187.397 76.1274 186.978C76.579 186.498 77.1526 186.15 77.7869 185.97C78.4743 185.764 79.1987 185.713 79.9084 185.819C80.5885 185.915 81.2355 186.173 81.7941 186.573C82.2742 186.921 82.6256 187.417 82.7935 187.986C82.9347 188.527 82.8568 189.102 82.5767 189.587C82.2625 190.125 81.7923 190.555 81.2283 190.821C80.5904 191.128 79.8906 191.286 79.1823 191.282C78.7026 191.282 78.2257 191.209 77.768 191.066C77.3373 190.939 76.932 190.738 76.5706 190.472C76.2405 190.22 75.9701 189.899 75.7786 189.53C75.6018 189.22 75.5046 188.87 75.4957 188.513Z" clip-rule="evenodd"/><path fill="#F96132" fill-rule="evenodd" stroke="#F96132" stroke-linecap="round" stroke-linejoin="round" stroke-width="2" d="M191.497 189.437C191.5 188.729 191.661 188.03 191.969 187.393C192.235 186.826 192.67 186.356 193.213 186.046C193.696 185.768 194.269 185.694 194.807 185.838C195.379 186.004 195.878 186.359 196.221 186.846C196.621 187.404 196.88 188.051 196.975 188.73C197.079 189.443 197.024 190.169 196.815 190.859C196.63 191.489 196.278 192.059 195.797 192.507C195.376 192.891 194.83 193.109 194.26 193.119C193.872 193.105 193.494 192.999 193.154 192.811C192.815 192.622 192.525 192.357 192.308 192.036C191.768 191.278 191.484 190.367 191.497 189.437Z" clip-rule="evenodd"/><path fill="#F96132" fill-rule="evenodd" stroke="#F96132" stroke-linecap="round" stroke-linejoin="round" stroke-width="2" d="M290.923 217.034C290.923 216.306 291.14 215.595 291.545 214.99C291.948 214.386 292.522 213.914 293.193 213.636C293.865 213.357 294.604 213.285 295.317 213.427C296.033 213.565 296.69 213.917 297.203 214.435C297.632 214.863 297.95 215.39 298.127 215.97C298.304 216.55 298.334 217.165 298.217 217.759C298.099 218.354 297.835 218.91 297.45 219.379C297.065 219.848 296.571 220.215 296.01 220.446C295.449 220.678 294.84 220.768 294.236 220.708C293.632 220.648 293.052 220.44 292.548 220.103C292.044 219.765 291.631 219.308 291.346 218.773C291.061 218.238 290.912 217.641 290.914 217.034H290.923Z" clip-rule="evenodd"/><path fill="#F96132" fill-rule="evenodd" d="M29.4647 165.531L75.4957 185.763L29.4647 165.531Z" clip-rule="evenodd"/><path stroke="#F96132" stroke-linecap="round" stroke-linejoin="round" stroke-width="2" d="M29.4647 165.531L75.4957 185.763"/><path fill="#F96132" fill-rule="evenodd" d="M79.1824 189.445L134.406 213.37L79.1824 189.445Z" clip-rule="evenodd"/><path stroke="#F96132" stroke-linecap="round" stroke-linejoin="round" stroke-width="2" d="M79.1824 189.445L134.406 213.37"/><path fill="#F96132" fill-rule="evenodd" d="M141.789 215.198L191.497 191.283L141.789 215.198Z" clip-rule="evenodd"/><path stroke="#F96132" stroke-linecap="round" stroke-linejoin="round" stroke-width="2" d="M141.789 215.198L191.497 191.283"/><path stroke="#F96132" stroke-linecap="round" stroke-linejoin="round" stroke-width="2" d="M197.022 189.445H241.215"/><path fill="#F96132" fill-rule="evenodd" d="M248.579 191.283L290.923 215.198L248.579 191.283Z" clip-rule="evenodd"/><path stroke="#F96132" stroke-linecap="round" stroke-linejoin="round" stroke-width="2" d="M248.579 191.283L290.923 215.198"/><path fill="#F96132" fill-rule="evenodd" d="M296.458 213.371L335.116 145.318L296.458 213.371Z" clip-rule="evenodd"/><path stroke="#F96132" stroke-linecap="round" stroke-linejoin="round" stroke-width="2" d="M296.458 213.371L335.116 145.318"/><path fill="#E7EAFD" fill-opacity=".2" fill-rule="evenodd" d="M505.422 153.614C505.422 148.091 509.899 143.614 515.422 143.614H598.86C604.383 143.614 608.86 148.091 608.86 153.614V190.513C608.86 196.036 604.383 200.513 598.86 200.513H515.422C509.899 200.513 505.422 196.036 505.422 190.513V153.614Z" clip-rule="evenodd"/></svg>