<svg width="375" height="220" viewBox="0 0 375 220" fill="none" xmlns="http://www.w3.org/2000/svg">
<path fill-rule="evenodd" clip-rule="evenodd" d="M20.6417 84.2402C20.6417 81.6321 21.6788 79.1308 23.5249 77.2866C25.371 75.4423 27.8749 74.4062 30.4857 74.4062H65.2294C67.8402 74.4062 70.344 75.4423 72.1901 77.2866C74.0362 79.1308 75.0734 81.6321 75.0734 84.2402V94.4719C75.0734 97.0801 74.0362 99.5814 72.1901 101.426C70.344 103.27 67.8402 104.306 65.2294 104.306H30.4857C27.8749 104.306 25.371 103.27 23.5249 101.426C21.6788 99.5814 20.6417 97.0801 20.6417 94.4719V84.2402Z" fill="#1D4AFF" fill-opacity="0.3"/>
<path fill-rule="evenodd" clip-rule="evenodd" d="M81.9736 84.0791C81.9736 81.4709 83.0108 78.9696 84.8569 77.1254C86.703 75.2812 89.2068 74.2451 91.8176 74.2451H126.561C129.169 74.2505 131.667 75.2889 133.509 77.1325C135.351 78.9762 136.385 81.4744 136.385 84.0791V94.3108C136.385 96.9189 135.348 99.4202 133.502 101.264C131.656 103.109 129.152 104.145 126.541 104.145H91.8176C89.2068 104.145 86.703 103.109 84.8569 101.264C83.0108 99.4202 81.9736 96.9189 81.9736 94.3108V84.0791Z" fill="#859DFF"/>
<path fill-rule="evenodd" clip-rule="evenodd" d="M142.388 84.0439C142.388 81.4358 143.426 78.9345 145.272 77.0902C147.118 75.246 149.622 74.21 152.232 74.21H186.966C189.577 74.21 192.081 75.246 193.927 77.0902C195.773 78.9345 196.81 81.4358 196.81 84.0439V94.2756C196.81 96.8838 195.773 99.3851 193.927 101.229C192.081 103.074 189.577 104.11 186.966 104.11H152.232C149.622 104.11 147.118 103.074 145.272 101.229C143.426 99.3851 142.388 96.8838 142.388 94.2756V84.0439Z" fill="#8FA6FC" fill-opacity="0.2"/>
<path fill-rule="evenodd" clip-rule="evenodd" d="M202.733 82.9612C202.733 81.6701 202.987 80.3915 203.482 79.1987C203.977 78.0059 204.702 76.9221 205.616 76.0094C206.53 75.0966 207.615 74.3727 208.81 73.879C210.004 73.3854 211.284 73.1317 212.577 73.1323H247.32C249.93 73.1323 252.433 74.1677 254.279 76.0108C256.125 77.854 257.163 80.354 257.164 82.9612V93.198C257.163 95.8057 256.125 98.3062 254.28 100.15C252.434 101.994 249.931 103.031 247.32 103.032H212.577C209.966 103.032 207.462 101.996 205.616 100.152C203.77 98.3074 202.733 95.8061 202.733 93.198V82.9612Z" fill="#CFD9FF"/>
<path fill-rule="evenodd" clip-rule="evenodd" d="M264.942 82.8153C264.948 80.211 265.988 77.7157 267.833 75.8761C269.679 74.0365 272.179 73.0028 274.785 73.0015H309.529C312.133 73.0068 314.629 74.0424 316.47 75.8817C318.311 77.721 319.348 80.2141 319.353 82.8153V93.0621C319.353 95.6702 318.316 98.1715 316.47 100.016C314.624 101.86 312.12 102.896 309.509 102.896H274.765C272.155 102.895 269.652 101.858 267.806 100.014C265.96 98.1703 264.923 95.6698 264.921 93.0621L264.942 82.8153Z" fill="#E7EAFD" fill-opacity="0.2"/>
<path fill-rule="evenodd" clip-rule="evenodd" d="M21.0197 122.982C21.0197 121.691 21.2744 120.412 21.7691 119.219C22.2639 118.026 22.9891 116.943 23.9033 116.03C24.8174 115.117 25.9026 114.393 27.0969 113.9C28.2912 113.406 29.5712 113.152 30.8637 113.153H65.6427C68.2526 113.153 70.7557 114.188 72.6017 116.031C74.4476 117.874 75.4854 120.375 75.4867 122.982V133.219C75.4854 135.826 74.4478 138.327 72.602 140.171C70.7562 142.015 68.2531 143.051 65.6427 143.052H30.8637C28.2529 143.052 25.7491 142.016 23.903 140.172C22.0568 138.328 21.0197 135.827 21.0197 133.219V122.982Z" fill="#1D4AFF" fill-opacity="0.3"/>
<path fill-rule="evenodd" clip-rule="evenodd" d="M82.3517 122.851C82.3517 120.243 83.3888 117.742 85.2349 115.897C87.081 114.053 89.5849 113.017 92.1957 113.017H126.929C129.54 113.018 132.043 114.055 133.889 115.899C135.734 117.743 136.772 120.243 136.773 122.851V133.083C136.773 135.691 135.736 138.192 133.89 140.036C132.044 141.881 129.54 142.917 126.929 142.917H92.1957C89.5849 142.917 87.081 141.881 85.2349 140.036C83.3888 138.192 82.3517 135.691 82.3517 133.083V122.851Z" fill="#8FA6FC" fill-opacity="0.2"/>
<path fill-rule="evenodd" clip-rule="evenodd" d="M142.776 122.786C142.776 120.177 143.814 117.676 145.66 115.832C147.506 113.988 150.01 112.952 152.62 112.952H187.364C188.657 112.952 189.937 113.206 191.131 113.7C192.325 114.195 193.409 114.919 194.323 115.832C195.237 116.745 195.961 117.83 196.456 119.023C196.95 120.216 197.204 121.494 197.203 122.786V133.017C197.204 134.308 196.95 135.587 196.456 136.78C195.961 137.973 195.237 139.057 194.323 139.971C193.409 140.884 192.325 141.608 191.131 142.103C189.937 142.597 188.657 142.851 187.364 142.851H152.62C150.01 142.851 147.506 141.815 145.66 139.971C143.814 138.127 142.776 135.625 142.776 133.017V122.786Z" fill="#CFD9FF"/>
<path fill-rule="evenodd" clip-rule="evenodd" d="M203.111 121.708C203.11 120.417 203.364 119.138 203.858 117.945C204.352 116.752 205.077 115.668 205.991 114.755C206.904 113.841 207.989 113.117 209.183 112.623C210.377 112.128 211.657 111.874 212.95 111.874H247.693C250.304 111.874 252.808 112.91 254.654 114.754C256.5 116.599 257.537 119.1 257.537 121.708V131.94C257.537 134.548 256.5 137.049 254.654 138.893C252.808 140.738 250.304 141.774 247.693 141.774H212.95C211.657 141.774 210.377 141.519 209.183 141.025C207.989 140.531 206.904 139.806 205.991 138.893C205.077 137.98 204.352 136.896 203.858 135.703C203.364 134.509 203.11 133.231 203.111 131.94V121.708Z" fill="#E7EAFD" fill-opacity="0.2"/>
<path fill-rule="evenodd" clip-rule="evenodd" d="M20.8634 161.205C20.8634 158.597 21.9005 156.096 23.7466 154.251C25.5927 152.407 28.0966 151.371 30.7074 151.371H65.4461C68.0568 151.371 70.5607 152.407 72.4068 154.251C74.2529 156.096 75.29 158.597 75.29 161.205V171.437C75.2873 174.043 74.2491 176.542 72.4032 178.384C70.5574 180.226 68.0551 181.261 65.4461 181.261H30.7074C28.0966 181.261 25.5927 180.225 23.7466 178.38C21.9005 176.536 20.8634 174.035 20.8634 171.427V161.205Z" fill="#1D4AFF" fill-opacity="0.3"/>
<path fill-rule="evenodd" clip-rule="evenodd" d="M82.1955 161.049C82.1955 158.442 83.2312 155.943 85.0751 154.099C86.919 152.255 89.4203 151.218 92.0294 151.215H126.808C128.101 151.215 129.381 151.469 130.575 151.963C131.769 152.458 132.854 153.182 133.767 154.095C134.681 155.009 135.406 156.093 135.9 157.286C136.394 158.479 136.648 159.758 136.647 161.049V171.291C136.648 172.582 136.394 173.86 135.9 175.053C135.406 176.247 134.681 177.331 133.767 178.244C132.854 179.157 131.769 179.882 130.575 180.376C129.381 180.87 128.101 181.124 126.808 181.124H92.0294C89.4186 181.124 86.9147 180.088 85.0686 178.244C83.2225 176.4 82.1854 173.899 82.1854 171.291L82.1955 161.049Z" fill="#CFD9FF"/>
<path fill-rule="evenodd" clip-rule="evenodd" d="M142.625 161.004C142.627 158.396 143.664 155.896 145.51 154.053C147.356 152.21 149.859 151.175 152.469 151.175H187.203C188.495 151.174 189.775 151.428 190.97 151.922C192.164 152.415 193.249 153.139 194.163 154.052C195.078 154.965 195.803 156.048 196.297 157.241C196.792 158.434 197.047 159.713 197.047 161.004V171.24C197.047 173.849 196.01 176.35 194.164 178.194C192.318 180.038 189.814 181.074 187.203 181.074H152.469C149.859 181.073 147.356 180.037 145.51 178.193C143.664 176.349 142.627 173.848 142.625 171.24V161.004Z" fill="#E7EAFD" fill-opacity="0.2"/>
<path fill-rule="evenodd" clip-rule="evenodd" d="M21.1659 198.924C21.1659 196.316 22.203 193.815 24.0491 191.971C25.8952 190.126 28.3991 189.09 31.0099 189.09H65.7536C67.0461 189.09 68.3259 189.345 69.52 189.839C70.714 190.333 71.7989 191.058 72.7126 191.971C73.6263 192.884 74.3509 193.968 74.845 195.161C75.3392 196.354 75.5932 197.633 75.5925 198.924V209.166C75.5965 210.459 75.345 211.741 74.8523 212.937C74.3596 214.133 73.6355 215.22 72.7215 216.136C71.8075 217.052 70.7215 217.778 69.5258 218.274C68.3301 218.77 67.0482 219.025 65.7536 219.025H31.0099C28.3991 219.025 25.8952 217.989 24.0491 216.145C22.203 214.301 21.1659 211.799 21.1659 209.191V198.924Z" fill="#8FA6FC" fill-opacity="0.2"/>
<path fill-rule="evenodd" clip-rule="evenodd" d="M82.4979 198.763C82.4979 197.472 82.7525 196.193 83.2473 195C83.7421 193.808 84.4672 192.724 85.3814 191.811C86.2955 190.898 87.3808 190.174 88.5751 189.681C89.7694 189.187 91.0493 188.933 92.3418 188.934H127.045C128.338 188.933 129.618 189.187 130.812 189.681C132.006 190.174 133.091 190.898 134.006 191.811C134.92 192.724 135.645 193.808 136.14 195C136.635 196.193 136.889 197.472 136.889 198.763V209.01C136.889 211.618 135.852 214.119 134.006 215.963C132.16 217.808 129.656 218.844 127.045 218.844H92.3418C89.731 218.844 87.2272 217.808 85.3811 215.963C83.535 214.119 82.4979 211.618 82.4979 209.01V198.763Z" fill="#E7EAFD" fill-opacity="0.2"/>
<path fill-rule="evenodd" clip-rule="evenodd" d="M176.164 75.9319C176.165 75.6411 176.23 75.3541 176.354 75.0913C176.479 74.8286 176.66 74.5967 176.885 74.4123C177.11 74.2279 177.374 74.0956 177.656 74.0249C177.938 73.9542 178.233 73.9469 178.518 74.0034C178.9 74.0795 179.251 74.2669 179.526 74.542C179.802 74.8172 179.99 75.1676 180.066 75.5492C180.142 75.93 180.103 76.3247 179.954 76.6834C179.805 77.042 179.553 77.3483 179.229 77.5633C178.851 77.8171 178.396 77.9313 177.942 77.8863C177.489 77.8413 177.065 77.6398 176.744 77.3166C176.379 76.9469 176.172 76.4508 176.164 75.9319Z" fill="#F96132" stroke="#F96132" stroke-width="2" stroke-linecap="round" stroke-linejoin="round"/>
<path opacity="0.1" fill-rule="evenodd" clip-rule="evenodd" d="M20.6417 44.4663C20.6417 41.8582 21.6788 39.3568 23.5249 37.5126C25.371 35.6684 27.8749 34.6323 30.4857 34.6323H64.9371C67.5478 34.6323 70.0517 35.6684 71.8978 37.5126C73.7439 39.3568 74.7811 41.8582 74.7811 44.4663V55.2821C74.7811 57.8902 73.7439 60.3915 71.8978 62.2357C70.0517 64.0799 67.5478 65.116 64.9371 65.116H30.4857C27.8749 65.116 25.371 64.0799 23.5249 62.2357C21.6788 60.3915 20.6417 57.8902 20.6417 55.2821V44.4663Z" fill="#1D4AFF"/>
<path opacity="0.05" fill-rule="evenodd" clip-rule="evenodd" d="M81.6713 44.4663C81.6713 43.174 81.9262 41.8944 82.4216 40.7007C82.9169 39.5069 83.6429 38.4224 84.5581 37.5091C85.4732 36.5958 86.5596 35.8716 87.7551 35.378C88.9506 34.8844 90.2318 34.631 91.5253 34.6323H125.977C128.588 34.6323 131.091 35.6684 132.937 37.5126C134.784 39.3568 135.821 41.8582 135.821 44.4663V55.2821C135.821 57.8902 134.784 60.3915 132.937 62.2357C131.091 64.08 128.588 65.116 125.977 65.116H91.5253C88.9146 65.116 86.4107 64.08 84.5646 62.2357C82.7185 60.3915 81.6814 57.8902 81.6814 55.2821L81.6713 44.4663Z" fill="#1D4AFF"/>
<path opacity="0.05" fill-rule="evenodd" clip-rule="evenodd" d="M20.6417 10.0605C20.6417 7.45237 21.6788 4.95108 23.5249 3.10686C25.371 1.26264 27.8749 0.226562 30.4857 0.226562H64.9371C67.5478 0.226562 70.0517 1.26264 71.8978 3.10686C73.7439 4.95108 74.7811 7.45237 74.7811 10.0605V19.8944C74.773 22.4973 73.7324 24.9909 71.8871 26.8285C70.0419 28.6662 67.5426 29.6982 64.9371 29.6982H30.4857C27.8749 29.6982 25.371 28.6621 23.5249 26.8179C21.6788 24.9736 20.6417 22.4723 20.6417 19.8642V10.0605Z" fill="#1D4AFF"/>
<path fill-rule="evenodd" clip-rule="evenodd" d="M16.3018 204.524C16.305 204.08 16.4401 203.647 16.69 203.28C16.8766 203.005 17.1218 202.775 17.408 202.606C17.6942 202.437 18.0142 202.333 18.3452 202.303C18.6762 202.272 19.0099 202.315 19.3224 202.428C19.6349 202.541 19.9185 202.722 20.1527 202.958C20.467 203.272 20.6807 203.673 20.7668 204.109C20.8529 204.545 20.8076 204.997 20.6365 205.407C20.4654 205.818 20.1762 206.168 19.8057 206.414C19.4351 206.66 18.9998 206.791 18.5549 206.789C18.2576 206.788 17.9633 206.73 17.6879 206.618C17.1353 206.385 16.697 205.944 16.4682 205.39C16.3575 205.114 16.301 204.82 16.3018 204.524Z" fill="#F7A501" stroke="#F7A501" stroke-width="2" stroke-linecap="round" stroke-linejoin="round"/>
<path fill-rule="evenodd" clip-rule="evenodd" d="M126.743 169.825C126.745 169.492 126.82 169.163 126.964 168.862C127.108 168.561 127.317 168.296 127.576 168.085C127.834 167.874 128.136 167.723 128.46 167.643C128.784 167.562 129.122 167.555 129.45 167.62C129.886 167.71 130.288 167.925 130.604 168.239C130.92 168.556 131.134 168.959 131.219 169.397C131.282 169.725 131.272 170.062 131.189 170.385C131.107 170.708 130.954 171.008 130.742 171.265C130.529 171.522 130.263 171.729 129.961 171.871C129.659 172.013 129.33 172.086 128.996 172.086C128.699 172.088 128.404 172.029 128.13 171.915C127.855 171.801 127.607 171.633 127.398 171.422C127.184 171.214 127.013 170.966 126.894 170.692C126.787 170.416 126.735 170.121 126.743 169.825Z" fill="#F7A501" stroke="#F7A501" stroke-width="2" stroke-linecap="round" stroke-linejoin="round"/>
<path fill-rule="evenodd" clip-rule="evenodd" d="M159.596 153.194C159.598 152.747 159.731 152.311 159.979 151.94C160.229 151.573 160.579 151.287 160.988 151.114C161.401 150.945 161.855 150.901 162.293 150.988C162.73 151.079 163.13 151.294 163.447 151.608C163.762 151.924 163.977 152.327 164.063 152.764C164.149 153.202 164.103 153.656 163.93 154.068C163.758 154.48 163.468 154.831 163.096 155.078C162.723 155.325 162.286 155.456 161.839 155.455C161.241 155.448 160.668 155.21 160.242 154.79C160.026 154.581 159.855 154.331 159.738 154.055C159.633 153.78 159.585 153.487 159.596 153.194Z" fill="#F7A501" stroke="#F7A501" stroke-width="2" stroke-linecap="round" stroke-linejoin="round"/>
<path fill-rule="evenodd" clip-rule="evenodd" d="M182.485 176.527C182.485 176.081 182.619 175.644 182.868 175.274C183.118 174.904 183.472 174.616 183.886 174.448C184.195 174.321 184.527 174.264 184.861 174.281C185.194 174.298 185.519 174.388 185.813 174.545C186.107 174.703 186.362 174.923 186.561 175.191C186.759 175.459 186.896 175.767 186.961 176.094C187.047 176.533 187.002 176.987 186.829 177.399C186.657 177.812 186.366 178.164 185.993 178.411C185.622 178.659 185.185 178.789 184.738 178.783C184.442 178.782 184.15 178.724 183.876 178.612C183.602 178.493 183.354 178.322 183.145 178.108C182.93 177.9 182.758 177.65 182.641 177.373C182.534 177.104 182.481 176.817 182.485 176.527Z" fill="#F7A501" stroke="#F7A501" stroke-width="2" stroke-linecap="round" stroke-linejoin="round"/>
<path fill-rule="evenodd" clip-rule="evenodd" d="M92.0696 186.296C92.071 185.851 92.2044 185.417 92.4529 185.047C92.7014 184.678 93.0539 184.391 93.4658 184.222C93.878 184.055 94.3297 184.011 94.7663 184.096C95.2035 184.185 95.6049 184.4 95.9205 184.715C96.234 185.03 96.4471 185.431 96.5328 185.868C96.6185 186.304 96.5731 186.755 96.4022 187.166C96.2313 187.576 95.9426 187.927 95.5726 188.173C95.2025 188.42 94.7676 188.552 94.3227 188.552C93.7252 188.547 93.1533 188.309 92.7299 187.887C92.5205 187.679 92.3543 187.431 92.241 187.157C92.1277 186.884 92.0695 186.592 92.0696 186.296Z" fill="#F7A501" stroke="#F7A501" stroke-width="2" stroke-linecap="round" stroke-linejoin="round"/>
<path fill-rule="evenodd" clip-rule="evenodd" d="M57.336 204.655C57.3343 204.209 57.4679 203.774 57.7191 203.406C57.967 203.036 58.3192 202.748 58.7311 202.579C59.143 202.409 59.5961 202.366 60.0327 202.454C60.4691 202.541 60.8698 202.755 61.1839 203.07C61.498 203.385 61.7114 203.785 61.7968 204.222C61.8867 204.657 61.8428 205.11 61.6708 205.521C61.4392 206.071 60.9992 206.507 60.4468 206.734C59.8944 206.962 59.2745 206.962 58.7222 206.734C58.4471 206.617 58.1985 206.446 57.9913 206.231C57.7779 206.022 57.6067 205.774 57.4873 205.501C57.3818 205.231 57.3304 204.944 57.336 204.655Z" fill="#F7A501" stroke="#F7A501" stroke-width="2" stroke-linecap="round" stroke-linejoin="round"/>
<path fill-rule="evenodd" clip-rule="evenodd" d="M17.0428 169.589C17.044 169.142 17.1773 168.706 17.4258 168.335C17.6716 167.964 18.0226 167.675 18.4339 167.504C18.8489 167.335 19.3047 167.291 19.7445 167.378C20.0714 167.445 20.3796 167.582 20.647 167.781C20.9145 167.98 21.1346 168.236 21.2916 168.53C21.4486 168.824 21.5387 169.149 21.5553 169.482C21.5719 169.815 21.5146 170.147 21.3876 170.455C21.2442 170.798 21.0186 171.1 20.7306 171.334C20.4426 171.569 20.1012 171.729 19.7365 171.801C19.3718 171.873 18.9951 171.854 18.6395 171.745C18.284 171.637 17.9607 171.443 17.698 171.18C17.4895 170.971 17.3243 170.723 17.2118 170.45C17.0994 170.177 17.0419 169.884 17.0428 169.589Z" fill="#1D4AFF" stroke="#3541D1" stroke-width="2" stroke-linecap="round" stroke-linejoin="round"/>
<path fill-rule="evenodd" clip-rule="evenodd" d="M92.0696 133.964C92.0698 133.63 92.1441 133.301 92.2872 132.999C92.4303 132.698 92.6385 132.432 92.8969 132.22C93.1554 132.009 93.4575 131.857 93.7817 131.776C94.1058 131.696 94.4438 131.688 94.7713 131.753C95.2093 131.841 95.6115 132.056 95.9272 132.371C96.2428 132.687 96.4576 133.089 96.5445 133.527C96.6313 133.965 96.5864 134.418 96.4152 134.83C96.244 135.242 95.9543 135.594 95.5828 135.842C95.2421 136.072 94.8453 136.204 94.4349 136.225C94.0245 136.247 93.6161 136.156 93.2534 135.963C92.8907 135.77 92.5875 135.482 92.3763 135.13C92.1651 134.777 92.0539 134.374 92.0545 133.964H92.0696Z" fill="#1D4AFF" stroke="#3541D1" stroke-width="2" stroke-linecap="round" stroke-linejoin="round"/>
<path fill-rule="evenodd" clip-rule="evenodd" d="M161.537 117.161C161.534 116.599 161.741 116.055 162.118 115.637C162.495 115.219 163.014 114.957 163.575 114.902C164.135 114.847 164.696 115.004 165.147 115.341C165.598 115.678 165.907 116.171 166.013 116.723C166.099 117.162 166.054 117.616 165.881 118.028C165.709 118.441 165.418 118.793 165.045 119.039C164.674 119.288 164.237 119.418 163.79 119.412C163.193 119.412 162.619 119.175 162.197 118.753C161.774 118.331 161.537 117.758 161.537 117.161Z" fill="#1D4AFF" stroke="#3541D1" stroke-width="2" stroke-linecap="round" stroke-linejoin="round"/>
<path fill-rule="evenodd" clip-rule="evenodd" d="M51.2523 151.643C51.2527 151.198 51.3856 150.762 51.6342 150.392C51.8827 150.021 52.2358 149.733 52.6485 149.564C53.0612 149.393 53.5154 149.347 53.954 149.433C54.3919 149.524 54.7944 149.739 55.1133 150.052C55.4273 150.37 55.6411 150.772 55.7282 151.21C55.8143 151.647 55.7686 152.099 55.5971 152.509C55.426 152.922 55.1357 153.275 54.7631 153.523C54.3906 153.77 53.9527 153.901 53.5054 153.899C53.2091 153.899 52.9157 153.841 52.642 153.727C52.3683 153.614 52.1197 153.448 51.9104 153.238C51.7011 153.029 51.5353 152.78 51.4223 152.506C51.3094 152.233 51.2516 151.939 51.2523 151.643Z" fill="#1D4AFF" stroke="#3541D1" stroke-width="2" stroke-linecap="round" stroke-linejoin="round"/>
<path fill-rule="evenodd" clip-rule="evenodd" d="M126.924 185.47C126.922 185.023 127.054 184.586 127.303 184.214C127.552 183.843 127.906 183.554 128.32 183.385C128.734 183.217 129.189 183.175 129.627 183.264C130.065 183.354 130.466 183.571 130.78 183.889C131.095 184.205 131.309 184.607 131.395 185.045C131.481 185.482 131.436 185.935 131.264 186.347C131.093 186.759 130.803 187.11 130.432 187.357C130.06 187.605 129.624 187.736 129.177 187.736C128.881 187.736 128.588 187.678 128.314 187.564C128.04 187.451 127.792 187.284 127.582 187.075C127.373 186.865 127.207 186.617 127.094 186.343C126.981 186.069 126.924 185.776 126.924 185.48V185.47Z" fill="#1D4AFF" stroke="#1D4AFF" stroke-width="2" stroke-linecap="round" stroke-linejoin="round"/>
<path fill-rule="evenodd" clip-rule="evenodd" d="M197.375 134.271C197.376 133.825 197.509 133.389 197.758 133.018C198.006 132.648 198.358 132.358 198.771 132.187C199.185 132.016 199.641 131.97 200.081 132.056C200.518 132.147 200.919 132.362 201.235 132.675C201.553 132.99 201.769 133.393 201.857 133.831C201.944 134.269 201.899 134.724 201.727 135.136C201.555 135.549 201.264 135.901 200.891 136.148C200.518 136.395 200.08 136.525 199.633 136.522C199.336 136.523 199.043 136.465 198.769 136.352C198.495 136.239 198.246 136.074 198.036 135.865C197.826 135.656 197.66 135.407 197.546 135.134C197.433 134.86 197.375 134.567 197.375 134.271Z" fill="#1D4AFF" stroke="#1D4AFF" stroke-width="2" stroke-linecap="round" stroke-linejoin="round"/>
<path fill-rule="evenodd" clip-rule="evenodd" d="M21.559 168.632L51.2976 152.67L21.559 168.632Z" fill="#F7A501"/>
<path d="M21.559 168.632L51.2976 152.67" stroke="#3541D1" stroke-width="2" stroke-linecap="round" stroke-linejoin="round"/>
<path fill-rule="evenodd" clip-rule="evenodd" d="M55.9449 150.621L92.1705 134.599L55.9449 150.621Z" fill="#F7A501"/>
<path d="M55.9449 150.621L92.1705 134.599" stroke="#3541D1" stroke-width="2" stroke-linecap="round" stroke-linejoin="round"/>
<path fill-rule="evenodd" clip-rule="evenodd" d="M96.2936 135.319L127.312 183.366L96.2936 135.319Z" fill="#F7A501"/>
<path d="M96.2936 135.319L127.312 183.366" stroke="#3541D1" stroke-width="2" stroke-linecap="round" stroke-linejoin="round"/>
<path fill-rule="evenodd" clip-rule="evenodd" d="M130.896 183.607L162.842 119.276L130.896 183.607Z" fill="#F7A501"/>
<path d="M130.896 183.607L162.842 119.276" stroke="#3541D1" stroke-width="2" stroke-linecap="round" stroke-linejoin="round"/>
<path fill-rule="evenodd" clip-rule="evenodd" d="M165.761 118.058L197.128 133.274L165.761 118.058Z" fill="#F7A501"/>
<path d="M165.761 118.058L197.128 133.274" stroke="#3541D1" stroke-width="2" stroke-linecap="round" stroke-linejoin="round"/>
<path fill-rule="evenodd" clip-rule="evenodd" d="M184.824 176.628L161.164 152.131L184.824 176.628Z" fill="#F7A501"/>
<path d="M184.824 176.628L161.164 152.131" stroke="#F7A501" stroke-width="2" stroke-linecap="round" stroke-linejoin="round"/>
<path fill-rule="evenodd" clip-rule="evenodd" d="M126.597 170.994L96.3893 185.349L126.597 170.994Z" fill="#F7A501"/>
<path d="M126.597 170.994L96.3893 185.349" stroke="#F7A501" stroke-width="2" stroke-linecap="round" stroke-linejoin="round"/>
<path fill-rule="evenodd" clip-rule="evenodd" d="M161.048 153.864L129.439 169.539L161.048 153.864Z" fill="#F7A501"/>
<path d="M161.048 153.864L129.439 169.539" stroke="#F7A501" stroke-width="2" stroke-linecap="round" stroke-linejoin="round"/>
<path fill-rule="evenodd" clip-rule="evenodd" d="M92.2613 187.369L62.1194 203.245L92.2613 187.369Z" fill="#F7A501"/>
<path d="M92.2613 187.369L62.1194 203.245" stroke="#F7A501" stroke-width="2" stroke-linecap="round" stroke-linejoin="round"/>
<path fill-rule="evenodd" clip-rule="evenodd" d="M57.2504 204.388L20.808 204.342L57.2504 204.388Z" fill="#F7A501"/>
<path d="M57.2504 204.388L20.808 204.342" stroke="#F7A501" stroke-width="2" stroke-linecap="round" stroke-linejoin="round"/>
<path fill-rule="evenodd" clip-rule="evenodd" d="M9.81478 88.7164C9.81486 88.3273 9.93064 87.947 10.1474 87.6237C10.3627 87.3005 10.6693 87.0484 11.0283 86.8996C11.3873 86.7508 11.7825 86.7119 12.1636 86.7879C12.5459 86.8632 12.8969 87.0508 13.1717 87.3267C13.4477 87.6017 13.6355 87.9526 13.7109 88.3347C13.7863 88.7168 13.746 89.1126 13.5951 89.4717C13.4736 89.7738 13.2789 90.0409 13.0284 90.2491C12.7779 90.4573 12.4795 90.6 12.1601 90.6644C11.8407 90.7288 11.5102 90.7129 11.1985 90.6181C10.8868 90.5233 10.6035 90.3526 10.3743 90.1213C10.1927 89.9356 10.0498 89.7159 9.95375 89.4748C9.85771 89.2336 9.81049 88.9759 9.81478 88.7164Z" fill="#F96132" stroke="#F96132" stroke-width="2" stroke-linecap="round" stroke-linejoin="round"/>
<path fill-rule="evenodd" clip-rule="evenodd" d="M69.8514 115.268C69.8509 114.879 69.9667 114.498 70.1841 114.175C70.402 113.852 70.7106 113.599 71.0712 113.45C71.3401 113.34 71.6302 113.29 71.9206 113.305C72.211 113.32 72.4945 113.398 72.7508 113.536C73.0071 113.673 73.2299 113.865 73.4031 114.098C73.5763 114.331 73.6957 114.6 73.7527 114.885C73.8103 115.17 73.8037 115.464 73.7333 115.747C73.6628 116.029 73.5304 116.292 73.3455 116.516C73.1607 116.741 72.9281 116.922 72.6646 117.046C72.4011 117.169 72.1133 117.233 71.8222 117.231C71.3004 117.231 70.7999 117.025 70.4304 116.657C70.061 116.288 69.8527 115.789 69.8514 115.268Z" fill="#F96132" stroke="#F96132" stroke-width="2" stroke-linecap="round" stroke-linejoin="round"/>
<path fill-rule="evenodd" clip-rule="evenodd" d="M126.95 101.501C126.95 101.162 127.039 100.829 127.207 100.534C127.375 100.24 127.616 99.9936 127.907 99.8198C128.199 99.646 128.53 99.5505 128.869 99.5425C129.208 99.5346 129.544 99.6145 129.843 99.7745C130.142 99.9345 130.395 100.169 130.576 100.456C130.758 100.742 130.862 101.071 130.879 101.409C130.895 101.748 130.824 102.085 130.672 102.388C130.519 102.691 130.291 102.949 130.009 103.137C129.686 103.355 129.305 103.469 128.915 103.465C128.394 103.463 127.895 103.256 127.527 102.888C127.158 102.52 126.951 102.021 126.95 101.501Z" fill="#F96132" stroke="#F96132" stroke-width="2" stroke-linecap="round" stroke-linejoin="round"/>
<path fill-rule="evenodd" clip-rule="evenodd" d="M38.3588 101.003C38.3683 100.697 38.4883 100.406 38.6965 100.182C38.9379 99.9253 39.2445 99.7391 39.5836 99.6431C39.9511 99.5331 40.3383 99.5057 40.7177 99.5625C41.0813 99.6137 41.4271 99.7519 41.7258 99.9653C41.9824 100.151 42.1703 100.417 42.2601 100.721C42.3355 101.01 42.2939 101.318 42.1441 101.577C41.9762 101.864 41.7248 102.094 41.4233 102.236C41.0823 102.401 40.7082 102.485 40.3296 102.483C40.0731 102.483 39.8182 102.444 39.5735 102.367C39.3432 102.3 39.1266 102.192 38.9334 102.05C38.7569 101.915 38.6124 101.743 38.51 101.546C38.4154 101.38 38.3635 101.194 38.3588 101.003Z" fill="#F96132" stroke="#F96132" stroke-width="2" stroke-linecap="round" stroke-linejoin="round"/>
<path fill-rule="evenodd" clip-rule="evenodd" d="M100.371 101.496C100.373 101.118 100.459 100.744 100.623 100.403C100.766 100.101 100.998 99.8494 101.289 99.6835C101.547 99.5353 101.853 99.4955 102.14 99.5727C102.446 99.6612 102.713 99.8512 102.897 100.111C103.11 100.41 103.249 100.755 103.3 101.119C103.355 101.5 103.326 101.888 103.214 102.256C103.115 102.594 102.927 102.898 102.67 103.138C102.445 103.343 102.153 103.46 101.848 103.465C101.641 103.457 101.438 103.4 101.257 103.3C101.076 103.199 100.921 103.057 100.805 102.886C100.516 102.48 100.364 101.994 100.371 101.496Z" fill="#F96132" stroke="#F96132" stroke-width="2" stroke-linecap="round" stroke-linejoin="round"/>
<path fill-rule="evenodd" clip-rule="evenodd" d="M153.523 116.25C153.523 115.861 153.639 115.48 153.855 115.157C154.071 114.834 154.377 114.582 154.736 114.433C155.095 114.284 155.49 114.245 155.872 114.321C156.254 114.395 156.606 114.583 156.88 114.86C157.109 115.089 157.279 115.371 157.374 115.681C157.468 115.991 157.485 116.319 157.422 116.637C157.359 116.955 157.218 117.253 157.012 117.503C156.806 117.754 156.542 117.95 156.242 118.074C155.942 118.198 155.616 118.246 155.294 118.214C154.971 118.182 154.661 118.07 154.391 117.89C154.122 117.709 153.901 117.465 153.749 117.179C153.596 116.893 153.517 116.574 153.518 116.25H153.523Z" fill="#F96132" stroke="#F96132" stroke-width="2" stroke-linecap="round" stroke-linejoin="round"/>
<path fill-rule="evenodd" clip-rule="evenodd" d="M13.7514 88.7168L38.3588 99.5326L13.7514 88.7168Z" fill="#F96132"/>
<path d="M13.7514 88.7168L38.3588 99.5326" stroke="#F96132" stroke-width="2" stroke-linecap="round" stroke-linejoin="round"/>
<path fill-rule="evenodd" clip-rule="evenodd" d="M40.3296 101.501L69.8514 114.291L40.3296 101.501Z" fill="#F96132"/>
<path d="M40.3296 101.501L69.8514 114.291" stroke="#F96132" stroke-width="2" stroke-linecap="round" stroke-linejoin="round"/>
<path fill-rule="evenodd" clip-rule="evenodd" d="M73.7981 115.268L100.371 102.483L73.7981 115.268Z" fill="#F96132"/>
<path d="M73.7981 115.268L100.371 102.483" stroke="#F96132" stroke-width="2" stroke-linecap="round" stroke-linejoin="round"/>
<path d="M103.325 101.501H126.95" stroke="#F96132" stroke-width="2" stroke-linecap="round" stroke-linejoin="round"/>
<path fill-rule="evenodd" clip-rule="evenodd" d="M130.886 102.483L153.523 115.268L130.886 102.483Z" fill="#F96132"/>
<path d="M130.886 102.483L153.523 115.268" stroke="#F96132" stroke-width="2" stroke-linecap="round" stroke-linejoin="round"/>
<path fill-rule="evenodd" clip-rule="evenodd" d="M156.481 114.291L177.147 77.9111L156.481 114.291Z" fill="#F96132"/>
<path d="M156.481 114.291L177.147 77.9111" stroke="#F96132" stroke-width="2" stroke-linecap="round" stroke-linejoin="round"/>
<path fill-rule="evenodd" clip-rule="evenodd" d="M268.19 87C268.19 81.4771 272.668 77 278.19 77H313.487C319.009 77 323.487 81.4772 323.487 87V97.4178C323.487 102.941 319.009 107.418 313.487 107.418H278.19C272.668 107.418 268.19 102.941 268.19 97.4178V87Z" fill="#E7EAFD" fill-opacity="0.2"/>
</svg>
