<svg fill="none" viewBox="0 0 1144 678"><g fill-rule="evenodd" stroke="#fff" stroke-linecap="round" stroke-linejoin="round" stroke-width="1.162" clip-path="url(#clip0)" clip-rule="evenodd" opacity=".2"><path fill="#1D4AFF" d="M144.741 261.934c0-6.419 5.204-11.623 11.624-11.623h104.801c6.42 0 11.624 5.204 11.624 11.623V309.1c0 6.42-5.204 11.624-11.624 11.624H156.365c-6.42 0-11.624-5.204-11.624-11.624v-47.166z"/><path fill="#859DFF" d="M289.028 261.564c0-6.419 5.204-11.623 11.623-11.623h104.801c6.42 0 11.624 5.204 11.624 11.623v47.166c0 6.42-5.204 11.624-11.624 11.624H300.651c-6.419 0-11.623-5.204-11.623-11.624v-47.166z"/><path fill="#8FA6FC" d="M431.157 261.466c0-6.42 5.204-11.624 11.624-11.624H547.56c6.42 0 11.624 5.204 11.624 11.624v47.166c0 6.419-5.204 11.623-11.624 11.623H442.781c-6.42 0-11.624-5.204-11.624-11.623v-47.166z"/><path fill="#CFD9FF" d="M573.114 258.927c0-6.419 5.204-11.623 11.624-11.623h104.801c6.419 0 11.623 5.204 11.623 11.623v47.166c0 6.42-5.204 11.624-11.623 11.624H584.738c-6.42 0-11.624-5.204-11.624-11.624v-47.166z"/><path fill="#E7EAFD" d="M719.47 258.582c0-6.419 5.204-11.623 11.624-11.623h104.801c6.419 0 11.623 5.204 11.623 11.623v47.191c0 6.419-5.204 11.623-11.623 11.623H731.094c-6.42 0-11.624-5.204-11.624-11.623v-47.191z"/><path fill="#1D4AFF" d="M145.626 353.173c0-6.419 5.204-11.623 11.623-11.623h104.866c6.419 0 11.624 5.204 11.624 11.623v47.166c0 6.42-5.205 11.624-11.624 11.624H157.249c-6.419 0-11.623-5.204-11.623-11.624v-47.166z"/><path fill="#8FA6FC" d="M289.912 352.803c0-6.42 5.204-11.624 11.623-11.624h104.78c6.419 0 11.623 5.204 11.623 11.624v47.166c0 6.419-5.204 11.623-11.623 11.623h-104.78c-6.419 0-11.623-5.204-11.623-11.623v-47.166z"/><path fill="#CFD9FF" d="M432.062 352.705c0-6.42 5.204-11.624 11.624-11.624h104.801c6.419 0 11.623 5.204 11.623 11.624v47.166c0 6.419-5.204 11.623-11.623 11.623H443.686c-6.42 0-11.624-5.204-11.624-11.623v-47.166z"/><path fill="#E7EAFD" d="M573.998 350.166c0-6.419 5.204-11.624 11.624-11.624h104.801c6.419 0 11.623 5.205 11.623 11.624v47.166c0 6.42-5.204 11.624-11.623 11.624H585.622c-6.42 0-11.624-5.204-11.624-11.624v-47.166z"/><path fill="#1D4AFF" d="M145.259 443.179c0-6.419 5.204-11.623 11.623-11.623h104.801c6.42 0 11.624 5.204 11.624 11.623v47.166c0 6.42-5.204 11.624-11.624 11.624H156.882c-6.419 0-11.623-5.204-11.623-11.624v-47.166z"/><path fill="#CFD9FF" d="M289.545 442.81c0-6.42 5.204-11.624 11.624-11.624H405.97c6.419 0 11.623 5.204 11.623 11.624V490c0 6.42-5.204 11.624-11.623 11.624H301.169c-6.42 0-11.624-5.204-11.624-11.624v-47.19z"/><path fill="#E7EAFD" d="M431.718 442.711c0-6.419 5.204-11.623 11.623-11.623h104.78c6.419 0 11.623 5.204 11.623 11.623v47.166c0 6.42-5.204 11.624-11.623 11.624h-104.78c-6.419 0-11.623-5.204-11.623-11.624v-47.166z"/><path fill="#8FA6FC" d="M145.971 532.003c0-6.42 5.204-11.624 11.623-11.624h104.802c6.419 0 11.623 5.204 11.623 11.624v47.19c0 6.42-5.204 11.624-11.623 11.624H157.595c-6.42 0-11.624-5.204-11.624-11.624v-47.19z"/><path fill="#E7EAFD" d="M290.257 531.633c0-6.419 5.204-11.623 11.623-11.623h104.715c6.42 0 11.624 5.204 11.624 11.623v47.191c0 6.419-5.204 11.623-11.624 11.623H301.88c-6.419 0-11.623-5.204-11.623-11.623v-47.191z"/><path fill="#1D4AFF" d="M1 531.615c0-6.419 5.204-11.623 11.624-11.623h103.22c6.42 0 11.624 5.204 11.624 11.623v47.167c0 6.419-5.204 11.623-11.624 11.623H12.624C6.204 590.405 1 585.201 1 578.782v-47.167z" opacity=".05"/></g><path fill="#F96132" fill-rule="evenodd" stroke="#F96132" stroke-linecap="round" stroke-linejoin="round" stroke-width="1.162" d="M510.701 257.575c0-.847.253-1.674.725-2.378a4.301 4.301 0 011.932-1.576 4.317 4.317 0 014.69.928 4.257 4.257 0 01.933 4.664 4.275 4.275 0 01-1.585 1.92 4.317 4.317 0 01-2.391.722 4.326 4.326 0 01-3.04-1.257 4.277 4.277 0 01-1.264-3.023z" clip-rule="evenodd"/><path fill="#1D4AFF" fill-rule="evenodd" stroke="#fff" stroke-linecap="round" stroke-linejoin="round" stroke-width="1.162" d="M144.62 176.34c0-6.42 5.204-11.624 11.624-11.624h103.22c6.419 0 11.623 5.204 11.623 11.624v47.166c0 6.419-5.204 11.623-11.623 11.623h-103.22c-6.42 0-11.624-5.204-11.624-11.623V176.34z" clip-rule="evenodd" opacity=".1"/><path fill="#1D4AFF" fill-rule="evenodd" stroke="#fff" stroke-linecap="round" stroke-linejoin="round" stroke-width="1.162" d="M287.177 176.34c0-6.42 5.204-11.624 11.624-11.624h103.22c6.419 0 11.623 5.204 11.623 11.624v47.166c0 6.419-5.204 11.623-11.623 11.623h-103.22c-6.42 0-11.624-5.204-11.624-11.623V176.34zM144.62 93.988c0-6.419 5.204-11.623 11.624-11.623h103.22c6.419 0 11.623 5.204 11.623 11.624v47.166c0 6.419-5.204 11.623-11.623 11.623h-103.22c-6.42 0-11.624-5.204-11.624-11.623V93.989z" clip-rule="evenodd" opacity=".05"/><g clip-path="url(#clip1)"><path stroke="#fff" stroke-linecap="round" stroke-linejoin="round" stroke-width="1.162" d="M138.717 599.846h486.787" opacity=".48"/><path fill="#F7A501" fill-rule="evenodd" stroke="#F7A501" stroke-linecap="round" stroke-linejoin="round" stroke-width="1.162" d="M133.535 560.736a5.269 5.269 0 01.916-2.927 5.315 5.315 0 012.395-1.93 5.346 5.346 0 015.783 1.173 5.275 5.275 0 011.135 5.759 5.3 5.3 0 01-1.96 2.367c-.873.579-1.9.888-2.95.888a5.36 5.36 0 01-3.772-1.567 5.298 5.298 0 01-1.547-3.763zm260.638-81.613a5.274 5.274 0 01.907-2.943 5.32 5.32 0 012.398-1.947 5.362 5.362 0 013.082-.294 5.334 5.334 0 012.726 1.458 5.277 5.277 0 011.141 5.782 5.308 5.308 0 01-1.97 2.375 5.361 5.361 0 01-5.004.477 5.31 5.31 0 01-3.28-4.908zm77.535-39.12a5.28 5.28 0 01.907-2.944 5.326 5.326 0 012.398-1.947 5.347 5.347 0 015.808 1.165 5.287 5.287 0 011.141 5.781 5.31 5.31 0 01-1.97 2.375 5.345 5.345 0 01-2.965.886 5.344 5.344 0 01-3.767-1.562 5.28 5.28 0 01-1.552-3.754zm54.019 54.876a5.276 5.276 0 01.906-2.944 5.325 5.325 0 012.398-1.947 5.363 5.363 0 015.809 1.164 5.277 5.277 0 011.141 5.782 5.311 5.311 0 01-1.971 2.375 5.353 5.353 0 01-6.731-.677 5.278 5.278 0 01-1.552-3.753zm-213.38 22.945a5.27 5.27 0 01.903-2.935 5.317 5.317 0 012.39-1.942 5.331 5.331 0 015.792 1.155 5.261 5.261 0 011.147 5.762 5.3 5.3 0 01-1.959 2.372c-.875.58-1.902.89-2.954.89a5.347 5.347 0 01-3.762-1.558 5.286 5.286 0 01-1.557-3.744zm-81.976 43.212a5.273 5.273 0 01.903-2.935 5.318 5.318 0 012.39-1.942 5.345 5.345 0 015.792 1.156 5.272 5.272 0 011.147 5.762 5.3 5.3 0 01-1.959 2.372 5.346 5.346 0 01-6.72-.664 5.29 5.29 0 01-1.152-1.72 5.293 5.293 0 01-.401-2.029z" clip-rule="evenodd"/><path fill="#1D4AFF" fill-rule="evenodd" stroke="#3541D1" stroke-linecap="round" stroke-linejoin="round" stroke-width="1.162" d="M135.289 478.564c0-1.049.313-2.075.9-2.947a5.32 5.32 0 012.395-1.953 5.349 5.349 0 015.813 1.155 5.283 5.283 0 01-.822 8.161 5.355 5.355 0 01-6.729-.671 5.288 5.288 0 01-1.557-3.745zm177.058-83.794c0-1.049.314-2.075.9-2.947a5.355 5.355 0 018.209-.798 5.284 5.284 0 01-.823 8.161 5.36 5.36 0 01-6.729-.671 5.288 5.288 0 01-1.557-3.745zm163.94-39.518c0-1.05.313-2.075.899-2.948a5.334 5.334 0 012.396-1.953 5.358 5.358 0 015.813 1.156 5.293 5.293 0 011.456 2.719 5.272 5.272 0 01-.309 3.064 5.308 5.308 0 01-1.97 2.377 5.352 5.352 0 01-6.728-.671 5.286 5.286 0 01-1.557-3.744zM216.019 436.36c0-1.049.313-2.075.899-2.947a5.329 5.329 0 012.396-1.953 5.358 5.358 0 015.813 1.156 5.275 5.275 0 011.147 5.783 5.308 5.308 0 01-1.97 2.377 5.353 5.353 0 01-6.728-.671 5.288 5.288 0 01-1.557-3.745z" clip-rule="evenodd"/><path fill="#1D4AFF" fill-rule="evenodd" stroke="#1D4AFF" stroke-linecap="round" stroke-linejoin="round" stroke-width="1.162" d="M394.598 515.915c0-1.049.314-2.075.9-2.947a5.325 5.325 0 012.395-1.953 5.36 5.36 0 015.813 1.155 5.287 5.287 0 011.148 5.784 5.32 5.32 0 01-1.97 2.377 5.36 5.36 0 01-6.729-.671 5.288 5.288 0 01-1.557-3.745zm166.27-120.423c0-1.049.313-2.075.9-2.947a5.326 5.326 0 012.395-1.953 5.358 5.358 0 015.813 1.156 5.294 5.294 0 011.456 2.718 5.267 5.267 0 01-.309 3.065 5.301 5.301 0 01-1.97 2.377 5.35 5.35 0 01-2.966.887 5.346 5.346 0 01-3.762-1.558 5.288 5.288 0 01-1.557-3.745z" clip-rule="evenodd"/><path fill="#F7A501" fill-rule="evenodd" d="M145.941 476.315l70.242-37.542-70.242 37.542z" clip-rule="evenodd"/><path stroke="#3541D1" stroke-linecap="round" stroke-linejoin="round" stroke-width="1.162" d="M145.941 476.315l70.242-37.542"/><path fill="#F7A501" fill-rule="evenodd" d="M227.095 433.948l85.486-37.678-85.486 37.678z" clip-rule="evenodd"/><path stroke="#3541D1" stroke-linecap="round" stroke-linejoin="round" stroke-width="1.162" d="M227.095 433.948l85.486-37.678"/><path fill="#F7A501" fill-rule="evenodd" d="M322.313 397.96l73.245 113.007-73.245-113.007z" clip-rule="evenodd"/><path stroke="#3541D1" stroke-linecap="round" stroke-linejoin="round" stroke-width="1.162" d="M322.313 397.96l73.245 113.007"/><path fill="#F7A501" fill-rule="evenodd" d="M403.975 511.539l75.396-151.312-75.396 151.312z" clip-rule="evenodd"/><path stroke="#3541D1" stroke-linecap="round" stroke-linejoin="round" stroke-width="1.162" d="M403.975 511.539l75.396-151.312"/><path fill="#F7A501" fill-rule="evenodd" d="M486.253 357.365l74.026 35.783-74.026-35.783z" clip-rule="evenodd"/><path stroke="#3541D1" stroke-linecap="round" stroke-linejoin="round" stroke-width="1.162" d="M486.253 357.365l74.026 35.783"/><path fill="#F7A501" fill-rule="evenodd" d="M531.249 495.115l-55.837-57.608 55.837 57.608z" clip-rule="evenodd"/><path stroke="#F7A501" stroke-linecap="round" stroke-linejoin="round" stroke-width="1.162" d="M531.249 495.115l-55.837-57.608"/><path fill="#F7A501" fill-rule="evenodd" d="M393.831 481.863l-71.284 33.766 71.284-33.766z" clip-rule="evenodd"/><path stroke="#F7A501" stroke-linecap="round" stroke-linejoin="round" stroke-width="1.162" d="M393.831 481.863l-71.284 33.766"/><path fill="#F7A501" fill-rule="evenodd" d="M475.138 441.573l-74.597 36.87 74.597-36.87z" clip-rule="evenodd"/><path stroke="#F7A501" stroke-linecap="round" stroke-linejoin="round" stroke-width="1.162" d="M475.138 441.573l-74.597 36.87"/><path fill="#F7A501" fill-rule="evenodd" d="M312.8 520.386l-71.133 37.338 71.133-37.338z" clip-rule="evenodd"/><path stroke="#F7A501" stroke-linecap="round" stroke-linejoin="round" stroke-width="1.162" d="M312.8 520.386l-71.133 37.338"/><path fill="#F7A501" fill-rule="evenodd" d="M230.193 560.409L144.2 560.3l85.993.109z" clip-rule="evenodd"/><path stroke="#F7A501" stroke-linecap="round" stroke-linejoin="round" stroke-width="1.162" d="M230.193 560.409L144.2 560.3"/></g><path fill="#F96132" fill-rule="evenodd" stroke="#F96132" stroke-linecap="round" stroke-linejoin="round" stroke-width="1.162" d="M118.992 286.719c0-.847.253-1.675.726-2.379a4.299 4.299 0 011.933-1.576 4.314 4.314 0 014.692.933 4.263 4.263 0 01-.664 6.586 4.323 4.323 0 01-5.43-.541 4.27 4.27 0 01-1.257-3.023zm140.788 64.395c0-.847.252-1.674.725-2.378a4.296 4.296 0 011.932-1.576 4.316 4.316 0 014.69.927 4.257 4.257 0 01.933 4.665 4.282 4.282 0 01-1.585 1.92c-.708.47-1.54.722-2.391.722a4.313 4.313 0 01-3.043-1.254 4.269 4.269 0 01-1.261-3.026zM394.87 317.8c0-.847.253-1.675.726-2.379a4.323 4.323 0 016.625-.644 4.266 4.266 0 01-.664 6.587 4.32 4.32 0 01-5.43-.542 4.266 4.266 0 01-1.257-3.022zm-208.709-1.288c.005-.843.26-1.666.735-2.365a4.288 4.288 0 011.931-1.563 4.306 4.306 0 014.67.94 4.255 4.255 0 01.921 4.649 4.277 4.277 0 01-1.581 1.912 4.313 4.313 0 01-2.383.718 4.307 4.307 0 01-3.969-2.652 4.27 4.27 0 01-.324-1.639zm144.119 1.607a4.252 4.252 0 01.728-2.369 4.291 4.291 0 011.929-1.567 4.307 4.307 0 014.675.932 4.258 4.258 0 01.925 4.651 4.275 4.275 0 01-1.581 1.914 4.307 4.307 0 01-2.384.719 4.315 4.315 0 01-3.036-1.258 4.265 4.265 0 01-1.256-3.022zm126.958 35.492c0-.847.252-1.675.726-2.379a4.299 4.299 0 011.933-1.576 4.33 4.33 0 014.692.933 4.26 4.26 0 01-.665 6.586 4.32 4.32 0 01-5.43-.541 4.273 4.273 0 01-1.256-3.023z" clip-rule="evenodd"/><path fill="#F96132" fill-rule="evenodd" d="M127.456 288.601l58.55 25.304-58.55-25.304z" clip-rule="evenodd"/><path stroke="#F96132" stroke-linecap="round" stroke-linejoin="round" stroke-width="1.162" d="M127.456 288.601l58.55 25.304"/><path fill="#F96132" fill-rule="evenodd" d="M190.986 318.6l68.51 29.757-68.51-29.757z" clip-rule="evenodd"/><path stroke="#F96132" stroke-linecap="round" stroke-linejoin="round" stroke-width="1.162" d="M190.986 318.6l68.51 29.757"/><path fill="#F96132" fill-rule="evenodd" d="M268.631 349.727L330.5 320.22l-61.869 29.507z" clip-rule="evenodd"/><path stroke="#F96132" stroke-linecap="round" stroke-linejoin="round" stroke-width="1.162" d="M268.631 349.727L330.5 320.22"/><path fill="#F96132" fill-rule="evenodd" d="M339.318 318.02l55.663.066-55.663-.066z" clip-rule="evenodd"/><path stroke="#F96132" stroke-linecap="round" stroke-linejoin="round" stroke-width="1.162" d="M339.318 318.02l55.663.066"/><path fill="#F96132" fill-rule="evenodd" d="M403.113 319.329l53.704 31.487-53.704-31.487z" clip-rule="evenodd"/><path stroke="#F96132" stroke-linecap="round" stroke-linejoin="round" stroke-width="1.162" d="M403.113 319.329l53.704 31.487"/><path fill="#F96132" fill-rule="evenodd" d="M464.263 349.145l48.858-87.697-48.858 87.697z" clip-rule="evenodd"/><path stroke="#F96132" stroke-linecap="round" stroke-linejoin="round" stroke-width="1.162" d="M464.263 349.145l48.858-87.697"/><path fill="#1D4AFF" fill-rule="evenodd" stroke="#fff" stroke-linecap="round" stroke-linejoin="round" stroke-width="1.162" d="M1 618.21c0-6.419 5.204-11.623 11.623-11.623h103.221c6.419 0 11.623 5.204 11.623 11.623v47.166c0 6.42-5.204 11.624-11.623 11.624H12.624C6.204 677 1 671.796 1 665.376V618.21z" clip-rule="evenodd" opacity=".1"/><path fill="#1D4AFF" fill-rule="evenodd" stroke="#fff" stroke-linecap="round" stroke-linejoin="round" stroke-width="1.162" d="M1 532.196c0-6.419 5.204-11.623 11.623-11.623h103.221c6.419 0 11.623 5.204 11.623 11.623v47.166c0 6.42-5.204 11.624-11.623 11.624H12.624C6.204 590.986 1 585.782 1 579.362v-47.166zM1 93.988c0-6.42 5.204-11.623 11.623-11.623h103.221c6.419 0 11.623 5.204 11.623 11.623v47.166c0 6.42-5.204 11.624-11.623 11.624H12.624C6.204 152.778 1 147.574 1 141.154V93.988z" clip-rule="evenodd" opacity=".15"/><path fill="#1D4AFF" fill-rule="evenodd" stroke="#fff" stroke-linecap="round" stroke-linejoin="round" stroke-width="1.162" d="M1 12.624C1 6.204 6.204 1 12.623 1h103.221c6.419 0 11.623 5.204 11.623 11.623V59.79c0 6.42-5.204 11.623-11.623 11.623H12.624C6.204 71.413 1 66.21 1 59.79V12.624z" clip-rule="evenodd" opacity=".1"/><path fill="#1D4AFF" fill-rule="evenodd" stroke="#fff" stroke-linecap="round" stroke-linejoin="round" stroke-width="1.162" d="M1 176.516c0-6.42 5.204-11.624 11.623-11.624h103.221c6.419 0 11.623 5.204 11.623 11.624v47.166c0 6.419-5.204 11.623-11.623 11.623H12.624C6.204 235.305 1 230.101 1 223.682v-47.166z" clip-rule="evenodd" opacity=".2"/><path fill="#1D4AFF" fill-rule="evenodd" stroke="#fff" stroke-linecap="round" stroke-linejoin="round" stroke-width="1.162" d="M1 261.949c0-6.42 5.204-11.624 11.623-11.624h103.221c6.419 0 11.623 5.204 11.623 11.624v47.166c0 6.419-5.204 11.623-11.623 11.623H12.624C6.204 320.738 1 315.534 1 309.115v-47.166zm0 90.663c0-6.419 5.204-11.623 11.623-11.623h103.221c6.419 0 11.623 5.204 11.623 11.623v47.166c0 6.42-5.204 11.624-11.623 11.624H12.624C6.204 411.402 1 406.198 1 399.778v-47.166z" clip-rule="evenodd" opacity=".25"/><path fill="#1D4AFF" fill-rule="evenodd" stroke="#fff" stroke-linecap="round" stroke-linejoin="round" stroke-width="1.162" d="M1 442.695c0-6.42 5.204-11.624 11.623-11.624h103.221c6.419 0 11.623 5.204 11.623 11.624v47.166c0 6.419-5.204 11.623-11.623 11.623H12.624C6.204 501.484 1 496.28 1 489.861v-47.166z" clip-rule="evenodd" opacity=".2"/><defs><clipPath id="clip0"><path fill="#fff" d="M0 0h1065.03v369.541H0z" transform="translate(78.878 235.302)"/></clipPath><clipPath id="clip1"><path fill="#fff" d="M0 0h527.323v351.548H0z" transform="translate(132.164 290.665)"/></clipPath></defs></svg>