<svg fill="none" xmlns="http://www.w3.org/2000/svg" viewBox="0 0 18 18"><g clip-path="url(#a)"><path d="m18.263 15.036-7.867-13.62a1.131 1.131 0 0 0-1.957 0L.572 15.037c-.435.751.098 1.7.968 1.7h15.735c.89 0 1.423-.95.988-1.7ZM9.17 5.587c.474-.119.95.119 1.166.554.079.158.1.336.079.494-.04.494-.06.988-.079 1.502-.04.771-.099 1.562-.138 2.333-.02.237-.02.474-.04.731a.746.746 0 0 1-.75.732.757.757 0 0 1-.752-.712c-.06-1.206-.138-2.412-.198-3.618-.02-.316-.039-.652-.06-.968.002-.475.318-.93.772-1.048Zm.257 9.053a.996.996 0 0 1-.988-1.008c0-.554.455-1.008 1.009-1.008.553 0 .988.454.988 1.027-.02.535-.475.99-1.009.99Z" fill="#F1A82C"/></g><defs><clipPath id="a"><path fill="#fff" d="M0 0h18v18H0z"/></clipPath></defs></svg>