<svg fill="none" viewBox="0 0 246 427"><g clip-path="url(#clip0)"><path fill="#F0F0F0" fill-rule="evenodd" stroke="#E6E6E6" stroke-linecap="round" stroke-linejoin="round" stroke-width="1.29" d="M69.048 52.642h160.531a15.12 15.12 0 0110.688 4.424 15.099 15.099 0 014.428 10.68v343.739c0 4.006-1.593 7.848-4.428 10.68a15.12 15.12 0 01-10.688 4.424H69.048a15.123 15.123 0 01-10.683-4.418 15.099 15.099 0 01-4.433-10.671V67.762a15.095 15.095 0 014.421-10.69 15.118 15.118 0 0110.695-4.43z" clip-rule="evenodd"/><path fill="#BEBEBE" fill-rule="evenodd" d="M130.54 399.691c0-9.684 7.967-17.535 17.792-17.535 9.826 0 17.793 7.851 17.793 17.535 0 9.684-7.967 17.53-17.793 17.53-9.825 0-17.792-7.85-17.792-17.53z" clip-rule="evenodd"/><path fill="#F7A501" fill-rule="evenodd" stroke="#fff" stroke-linecap="round" stroke-linejoin="round" stroke-width="1.29" d="M70.143 81.88h160.29c3.262 0 5.903 2.232 5.903 4.985v283.379c0 2.766-2.641 4.986-5.903 4.986H70.143c-3.258 0-5.9-2.232-5.9-4.986V86.865c.017-2.753 2.658-4.986 5.9-4.986z" clip-rule="evenodd"/><path fill="#BEBEBE" fill-rule="evenodd" stroke="#C8C8C8" stroke-linecap="round" stroke-linejoin="round" stroke-width=".065" d="M69.08 81.484h162.65a5.137 5.137 0 015.1 5.192v32.003H63.979V86.675a5.134 5.134 0 013.133-4.784 5.142 5.142 0 011.967-.407z" clip-rule="evenodd"/><path fill="#BEBEBE" fill-rule="evenodd" stroke="#BEBEBE" stroke-linecap="round" stroke-linejoin="round" stroke-width="1.29" d="M134.553 66.818h37.056a2.431 2.431 0 110 4.863h-37.056a2.435 2.435 0 01-1.722-4.153 2.432 2.432 0 011.722-.71zm-16.294 2.813a2.571 2.571 0 015.089-.523 2.562 2.562 0 01-1.09 2.641 2.57 2.57 0 01-1.429.434 2.561 2.561 0 01-2.57-2.552z" clip-rule="evenodd"/><path fill="#fff" fill-rule="evenodd" stroke="#fff" stroke-linecap="round" stroke-linejoin="round" stroke-width=".065" d="M91.364 94.352h113.403a.642.642 0 01.453.181.632.632 0 01.192.448v11.09a.635.635 0 01-.645.628H91.364a.625.625 0 01-.455-.179.633.633 0 01-.194-.449v-11.09a.637.637 0 01.649-.629zM67.45 84.5a.79.79 0 111.58 0 .79.79 0 01-1.58 0zm2.214-.016a.79.79 0 111.58-.04.79.79 0 01-1.58.04zm2.08 0a.79.79 0 111.581-.04.79.79 0 01-1.58.04zm2.127.012a.79.79 0 111.58-.04.79.79 0 01-1.58.04zm2.18.067a.79.79 0 111.578-.048.79.79 0 01-1.579.048z" clip-rule="evenodd"/><path fill="#fff" fill-rule="evenodd" d="M80.296 84.222h-.332v.502h.332a.285.285 0 00.194-.06.24.24 0 00.071-.193.237.237 0 00-.07-.194.305.305 0 00-.195-.055zm.028.79h-.36v.613h-.356v-1.707h.744a.593.593 0 01.395.134.502.502 0 01.15.395.518.518 0 01-.15.427.684.684 0 01-.423.166v-.028zm.859.62v-1.706h.351v.652h.669v-.652h.352v1.707h-.352v-.763h-.669v.763h-.351zm2.93-.853a.707.707 0 00-.123-.446.448.448 0 00-.676 0 .845.845 0 000 .889.44.44 0 00.676 0 .695.695 0 00.122-.443zm.098.703a.89.89 0 01-1.119 0 .924.924 0 01-.26-.703.904.904 0 01.26-.707.89.89 0 011.12 0 .902.902 0 01.256.707.922.922 0 01-.257.703zm.526-1.556h.372l.68 1.185v-1.185h.332v1.707h-.356l-.696-1.213v1.213h-.332v-1.707zm2.981.324h-.905v.36h.83v.296h-.83v.438h.945v.308h-1.293v-1.706h1.253v.304zm3.503 1.35a.454.454 0 01.898 0c0 .21-.451.396-.451.396s-.447-.166-.447-.395z" clip-rule="evenodd"/><path stroke="#fff" stroke-linecap="round" stroke-linejoin="round" stroke-width=".323" d="M90.182 85.04a1.49 1.49 0 011.486-1.142c.108-.002.216.011.32.04a1.885 1.885 0 011.215 1.138"/><path stroke="#fff" stroke-linecap="round" stroke-linejoin="round" stroke-width=".323" d="M89.624 84.7a1.944 1.944 0 012-1.41c.144-.005.288.01.428.043a2.444 2.444 0 011.637 1.41"/><path stroke="#fff" stroke-linecap="round" stroke-linejoin="round" stroke-width=".323" d="M90.704 85.411a1.027 1.027 0 01.988-.79 1.052 1.052 0 01.98.85"/><path fill="#F0F0F0" fill-rule="evenodd" d="M144.904 84.25v-.3a2.26 2.26 0 00.289-.028.396.396 0 00.217-.119.388.388 0 00.087-.158.346.346 0 000-.09h.368v2.236h-.451V84.25h-.51zm1.74 1.086c.104-.195.259-.358.447-.474.14-.094.272-.198.395-.312a.45.45 0 00.155-.3.342.342 0 00-.08-.237.322.322 0 00-.397-.046.323.323 0 00-.101.1.816.816 0 00-.051.278h-.427a1.12 1.12 0 01.103-.463.644.644 0 01.628-.336c.207-.01.41.06.566.198a.682.682 0 01.209.522.691.691 0 01-.15.438c-.091.112-.199.21-.32.289l-.174.122a4.943 4.943 0 00-.226.17.436.436 0 00-.102.122h.976v.395h-1.534a1.08 1.08 0 01.083-.466zm1.918-1.177h.467v.462h-.467v-.462zm0 1.157h.467v.459h-.467v-.459zm1.566.158a.252.252 0 00.257-.205 3.031 3.031 0 000-1.186.244.244 0 00-.257-.193.254.254 0 00-.261.194 2.82 2.82 0 000 1.185.262.262 0 00.261.206zm.791-.79c.015.294-.045.586-.174.85a.63.63 0 01-.597.3.633.633 0 01-.601-.3 1.71 1.71 0 01-.174-.85 1.74 1.74 0 01.174-.857.628.628 0 01.601-.3.627.627 0 01.597.3c.122.267.175.56.154.853l.02.004zm.968.79a.258.258 0 00.257-.205 2.994 2.994 0 000-1.186.249.249 0 00-.257-.193.256.256 0 00-.166.05.257.257 0 00-.095.144 2.82 2.82 0 000 1.185.26.26 0 00.261.205zm.791-.79a1.71 1.71 0 01-.174.85.624.624 0 01-.597.3.634.634 0 01-.601-.3 1.71 1.71 0 01-.174-.85 1.74 1.74 0 01.174-.857.634.634 0 01.601-.3.625.625 0 01.597.3c.122.267.175.56.154.853l.02.004zm2.143-.79h-.459v.672h.443a.395.395 0 00.261-.083.326.326 0 00.077-.118.33.33 0 00.018-.14.3.3 0 00-.095-.253.397.397 0 00-.245-.078zm.039 1.063h-.498v.818h-.474v-2.276h.992a.791.791 0 01.546.178.688.688 0 01.205.545.687.687 0 01-.205.569.895.895 0 01-.566.166zm2.665-1.458h.684v2.276h-.442v-1.92l-.431 1.908h-.459l-.443-1.908v1.908h-.443v-2.264h.692l.396 1.79.446-1.79z" clip-rule="evenodd"/><path fill="#fff" fill-rule="evenodd" stroke="#fff" stroke-linecap="round" stroke-linejoin="round" stroke-width=".645" d="M226.205 84.336h6.592a.591.591 0 01.538.629v1.62a.591.591 0 01-.538.628h-6.592a.587.587 0 01-.537-.628v-.435h-.791v-.79h.791v-.395a.587.587 0 01.537-.629z" clip-rule="evenodd"/><path fill="#BEBEBE" fill-rule="evenodd" d="M228.274 84.621h4.187a.626.626 0 01.629.628v1.23a.628.628 0 01-.629.627h-4.187a.63.63 0 01-.629-.628V85.25a.627.627 0 01.629-.628z" clip-rule="evenodd"/><path fill="#fff" fill-rule="evenodd" d="M221.074 86.114a.165.165 0 00.118-.047.19.19 0 00.035-.059.193.193 0 00.009-.067.169.169 0 00-.048-.13.152.152 0 00-.053-.034.153.153 0 00-.061-.01.162.162 0 00-.119.043.179.179 0 00-.043.13.156.156 0 00.009.068.17.17 0 00.034.059.154.154 0 00.119.047zm-.222-.446a.263.263 0 01-.107-.115.297.297 0 010-.233.29.29 0 01.068-.095.394.394 0 01.261-.083.364.364 0 01.257.083.268.268 0 01.094.21.27.27 0 01-.027.118.22.22 0 01-.103.107.34.34 0 01.123.123.375.375 0 01.043.173c0 .046-.009.09-.028.132a.316.316 0 01-.079.11.392.392 0 01-.292.098.395.395 0 01-.285-.099.343.343 0 01-.095-.24c0-.061.015-.121.044-.174.03-.05.074-.09.126-.115zm.222-.071a.142.142 0 00.102-.036.144.144 0 00.036-.103.118.118 0 00-.035-.103.117.117 0 00-.047-.03.125.125 0 00-.056-.005.159.159 0 00-.107.036.143.143 0 00-.036.103.144.144 0 00.036.102.16.16 0 00.107.036zm.901.518a.127.127 0 00.13-.103c.023-.097.032-.197.028-.296.004-.1-.005-.2-.028-.297a.122.122 0 00-.13-.099.131.131 0 00-.131.1 1.056 1.056 0 00-.031.296c-.003.1.007.199.031.296.007.03.024.055.048.074a.133.133 0 00.083.029zm.395-.396a.84.84 0 01-.087.427.31.31 0 01-.3.15.318.318 0 01-.301-.15.886.886 0 01-.087-.427.898.898 0 01.087-.426.325.325 0 01.301-.15.318.318 0 01.3.15.85.85 0 01.06.422l.027.004zm.475-.284a.122.122 0 00-.17-.113.129.129 0 00-.04.026.124.124 0 00-.026.04.11.11 0 00-.01.047.11.11 0 00.01.047.125.125 0 00.026.04.123.123 0 00.174 0 .122.122 0 00.036-.087zm-.123.289a.268.268 0 01-.201-.087.285.285 0 01.201-.482.275.275 0 01.206.087.289.289 0 01-.206.49v-.008zm.752.15a.122.122 0 00-.123.122.11.11 0 00.009.047.11.11 0 00.027.04.125.125 0 00.087.036.122.122 0 00.122-.123.126.126 0 00-.035-.087.122.122 0 00-.087-.031v-.004zm0 .395a.274.274 0 01-.202-.083.294.294 0 01-.087-.206.277.277 0 01.087-.201.285.285 0 01.395 0 .26.26 0 01.087.202.285.285 0 01-.021.111.279.279 0 01-.066.094.27.27 0 01-.193.103v-.02zm-.123-1.142h.119l-.625 1.15h-.119l.625-1.15z" clip-rule="evenodd"/><path stroke="#454545" stroke-linecap="round" stroke-linejoin="round" stroke-width=".645" d="M82.637 101.239l-7.576-.15 2.86 2.73-2.86-2.73 2.598-2.6"/><path fill="#BEBEBE" fill-rule="evenodd" stroke="#454545" stroke-linecap="round" stroke-linejoin="round" stroke-width=".645" d="M212.387 96.296h5.492a1.804 1.804 0 011.696 1.9v5.283a1.808 1.808 0 01-1.696 1.901h-5.492a1.812 1.812 0 01-1.696-1.901v-5.282a1.807 1.807 0 011.696-1.9z" clip-rule="evenodd"/><path fill="#454545" fill-rule="evenodd" d="M213.597 102.144c.222-.413.547-.76.945-1.008.295-.199.575-.42.838-.66a.996.996 0 00.293-.683.745.745 0 00-.17-.502.686.686 0 00-.846-.096.682.682 0 00-.214.215 1.499 1.499 0 00-.103.584h-.909a2.31 2.31 0 01.217-.984 1.377 1.377 0 011.333-.71c.435-.021.86.13 1.186.418a1.442 1.442 0 01.447 1.106c.004.34-.106.671-.313.941a3.131 3.131 0 01-.68.604l-.395.265c-.233.17-.396.288-.479.363-.087.074-.162.16-.221.257h2.08v.826h-3.258c.013-.327.098-.646.249-.936zm13.123-4.856a.908.908 0 01.544-.863.914.914 0 011.215 1.178.91.91 0 01-.846.57.9.9 0 01-.913-.885zm.043 2.904a.903.903 0 01.548-.854.91.91 0 011.204 1.177.905.905 0 01-.842.566.902.902 0 01-.91-.889zm.044 2.971a.912.912 0 01.547-.853.908.908 0 11.362 1.742.9.9 0 01-.909-.889z" clip-rule="evenodd"/><path fill="#fff" d="M125.133 219.533l8.616 8.605h-8.616v-8.605zm0-2.151l10.771 10.756h8.616l-19.387-19.361v8.605zm0-10.757l21.541 21.513h8.617l-30.158-30.118v8.605zm10.771 0l21.541 21.513v-8.605l-21.541-21.513v8.605zm10.77-8.605v8.605l10.771 10.757v-8.605l-10.771-10.757zm30.159 26.675a8.33 8.33 0 01-5.884-2.433l-11.98-11.965v17.84h17.864v-3.442z"/><path fill="#F7A501" d="M164.138 224.696c.952 0 1.724-.771 1.724-1.721 0-.951-.772-1.721-1.724-1.721a1.722 1.722 0 100 3.442z"/><path fill="#fff" d="M125.133 228.138h8.616l-8.616-8.606v8.606zm10.771-19.361l-10.771-10.757v8.605l10.771 10.757v-8.605zm-10.771-.001v8.605l10.771 10.757v-8.606l-10.771-10.756zm21.542 0l-10.771-10.756v8.605l10.771 10.756v-8.605zm-10.771 19.362h8.616l-8.616-8.606v8.606z"/><path fill="#fff" d="M135.904 208.776v8.605l10.771 10.757v-8.606l-10.771-10.756zm-24.874 58.763c0 3.855-1.727 6.442-7.557 6.442h-3.212v5.471h-3.509v-18.329h6.721c5.83.002 7.557 2.561 7.557 6.416zm-3.509 0c0-2.237-.701-3.18-3.428-3.18h-3.832v6.388h3.832c2.727 0 3.428-1.051 3.428-3.208zm5.263 4.96c0-4.232 2.347-7.197 6.721-7.197 4.372 0 6.721 2.965 6.721 7.197s-2.349 7.223-6.721 7.223-6.721-2.993-6.721-7.223zm9.933 0c0-2.966-.835-3.962-3.212-3.962-2.375 0-3.212.996-3.212 3.962 0 2.965.836 3.989 3.212 3.989 2.375-.002 3.212-1.026 3.212-3.989zm5.803 1.967c2.455 1.537 4.265 2.022 6.262 2.022 1.296 0 1.835-.513 1.835-1.185 0-.782-.486-1.159-2.645-1.51-4.238-.647-5.452-2.318-5.452-4.447 0-2.776 2.321-4.043 5.209-4.043 1.808 0 3.995.486 5.317 1.401v3.234c-1.97-.97-4.102-1.401-5.587-1.401-.972 0-1.431.351-1.431.971 0 .675.352 1.051 2.511 1.509 4.048.835 5.587 1.699 5.587 4.366 0 2.749-2.456 4.339-5.614 4.339-2.106 0-4.023-.404-5.992-1.724v-3.532zm18.622-5.66v7.412h3.697v3.234h-7.206v-10.646h-2.159v-3.234h2.159v-4.986h3.509v4.986h3.697v3.234h-3.697zm22.293-7.681v18.329h-3.509v-7.279h-8.07v7.279h-3.509v-18.329h3.509v7.817h8.07v-7.817h3.509zm2.7 11.374c0-4.232 2.347-7.197 6.721-7.197 4.372 0 6.721 2.965 6.721 7.197s-2.349 7.223-6.721 7.223-6.721-2.993-6.721-7.223zm9.932 0c0-2.966-.836-3.962-3.213-3.962-2.374 0-3.212.996-3.212 3.962 0 2.965.836 3.989 3.212 3.989 2.377-.002 3.213-1.026 3.213-3.989zm19.11-6.927v18.193h-11.066v-3.234h7.557v-3.774c-.81.889-1.997 1.617-3.941 1.617-4.048 0-5.992-3.046-5.992-6.55 0-3.476 1.944-6.522 5.992-6.522 1.944 0 3.131.728 3.941 1.752v-1.482h3.509zm-3.509 6.252c0-2.075-.836-3.289-3.212-3.289-2.375 0-3.212 1.214-3.212 3.289 0 2.103.837 3.315 3.212 3.315s3.212-1.078 3.212-3.315z"/></g><rect width="10.499" height="36.495" fill="#F7A501" rx="5.249" transform="rotate(-49.624 34.584 -2.221)"/><rect width="10.499" height="36.495" fill="#F7A501" rx="5.249" transform="rotate(-24.126 29.713 -89.908) skewX(.001)"/><rect width="10.499" height="36.495" fill="#F7A501" rx="5.249" transform="rotate(-73.673 35.57 26.646) skewX(.002)"/><defs><clipPath id="clip0"><path fill="#fff" d="M0 0h191.569v374.754H0z" transform="translate(53.536 52.246)"/></clipPath></defs></svg>