<svg xmlns="http://www.w3.org/2000/svg" width="246" height="427" fill="none" viewBox="0 0 246 427"><g clip-path="url(#clip0)"><path fill="#F0F0F0" fill-rule="evenodd" stroke="#E6E6E6" stroke-linecap="round" stroke-linejoin="round" stroke-width="1.29" d="M69.0476 52.6416H229.579C233.588 52.6416 237.432 54.233 240.267 57.0657C243.102 59.8984 244.695 63.7403 244.695 67.7463V411.485C244.695 415.491 243.102 419.333 240.267 422.165C237.432 424.998 233.588 426.589 229.579 426.589H69.0476C65.0414 426.589 61.199 425 58.3646 422.171C55.5303 419.342 53.9358 415.504 53.9316 411.5V67.7621C53.9296 65.7772 54.319 63.8114 55.0778 61.977C55.8365 60.1425 56.9496 58.4755 58.3534 57.0713C59.7573 55.667 61.4244 54.553 63.2593 53.7929C65.0943 53.0328 67.0612 52.6416 69.0476 52.6416Z" clip-rule="evenodd"/><path fill="#BEBEBE" fill-rule="evenodd" d="M130.54 399.691C130.54 390.007 138.507 382.156 148.332 382.156C158.158 382.156 166.125 390.007 166.125 399.691C166.125 409.375 158.158 417.221 148.332 417.221C138.507 417.221 130.54 409.371 130.54 399.691Z" clip-rule="evenodd"/><path fill="#F7A501" fill-rule="evenodd" stroke="#fff" stroke-linecap="round" stroke-linejoin="round" stroke-width="1.29" d="M70.143 81.8792H230.433C233.695 81.8792 236.336 84.1115 236.336 86.8653V370.244C236.336 373.01 233.695 375.23 230.433 375.23H70.143C66.8849 375.23 64.2437 372.998 64.2437 370.244V86.8653C64.2595 84.1115 66.9007 81.8792 70.143 81.8792Z" clip-rule="evenodd"/><path fill="#BEBEBE" fill-rule="evenodd" stroke="#C8C8C8" stroke-linecap="round" stroke-linejoin="round" stroke-width=".065" d="M69.0794 81.4839H231.73C232.406 81.489 233.075 81.6275 233.697 81.8914C234.32 82.1553 234.884 82.5395 235.358 83.0218C235.832 83.5041 236.206 84.0751 236.459 84.7021C236.711 85.329 236.837 85.9997 236.83 86.6755V118.679H63.9788V86.6755C63.9715 85.9997 64.0978 85.329 64.3503 84.7021C64.6029 84.0751 64.9768 83.5041 65.4507 83.0218C65.9245 82.5395 66.489 82.1553 67.1117 81.8914C67.7344 81.6275 68.4031 81.489 69.0794 81.4839Z" clip-rule="evenodd"/><path fill="#BEBEBE" fill-rule="evenodd" stroke="#BEBEBE" stroke-linecap="round" stroke-linejoin="round" stroke-width="1.29" d="M134.553 66.8176H171.609C171.929 66.8171 172.246 66.8796 172.541 67.0015C172.837 67.1233 173.105 67.3022 173.331 67.5279C173.558 67.7536 173.737 68.0217 173.86 68.3167C173.982 68.6118 174.045 68.9281 174.045 69.2475C174.045 69.893 173.788 70.512 173.332 70.9685C172.875 71.4249 172.255 71.6813 171.609 71.6813H134.553C133.907 71.6813 133.287 71.4249 132.831 70.9685C132.374 70.512 132.117 69.893 132.117 69.2475C132.117 68.9281 132.18 68.6118 132.303 68.3167C132.425 68.0217 132.605 67.7536 132.831 67.5279C133.057 67.3022 133.326 67.1233 133.621 67.0015C133.917 66.8796 134.233 66.8171 134.553 66.8176Z" clip-rule="evenodd"/><path fill="#BEBEBE" fill-rule="evenodd" stroke="#BEBEBE" stroke-linecap="round" stroke-linejoin="round" stroke-width="1.29" d="M118.259 69.6308C118.256 69.1222 118.404 68.6242 118.684 68.1998C118.965 67.7754 119.365 67.4437 119.834 67.2469C120.304 67.0501 120.821 66.997 121.321 67.0943C121.82 67.1916 122.28 67.4349 122.641 67.7935C123.002 68.152 123.248 68.6096 123.348 69.1082C123.449 69.6068 123.399 70.1239 123.205 70.5941C123.011 71.0643 122.681 71.4664 122.258 71.7493C121.835 72.0322 121.338 72.1832 120.829 72.1832C120.492 72.1842 120.159 72.119 119.848 71.9913C119.537 71.8636 119.254 71.6759 119.015 71.4389C118.776 71.2019 118.587 70.9202 118.457 70.61C118.327 70.2998 118.26 69.9671 118.259 69.6308Z" clip-rule="evenodd"/><path fill="#fff" fill-rule="evenodd" stroke="#fff" stroke-linecap="round" stroke-linejoin="round" stroke-width=".065" d="M91.3638 94.3524H204.767C204.851 94.3514 204.934 94.3668 205.012 94.3978C205.089 94.4288 205.16 94.4748 205.22 94.5331C205.28 94.5914 205.327 94.661 205.36 94.7378C205.393 94.8146 205.411 94.8971 205.412 94.9806V106.071C205.411 106.155 205.393 106.237 205.36 106.314C205.327 106.391 205.28 106.46 205.22 106.519C205.16 106.577 205.089 106.623 205.012 106.654C204.934 106.685 204.851 106.7 204.767 106.699H91.3638C91.2798 106.701 91.1964 106.686 91.1183 106.655C91.0402 106.624 90.969 106.578 90.9087 106.52C90.8485 106.462 90.8004 106.392 90.7672 106.315C90.734 106.238 90.7164 106.155 90.7153 106.071V94.9806C90.7164 94.8967 90.734 94.8139 90.7672 94.7368C90.8004 94.6598 90.8485 94.5901 90.9087 94.5317C90.969 94.4733 91.0402 94.4274 91.1183 94.3966C91.1964 94.3659 91.2798 94.3508 91.3638 94.3524Z" clip-rule="evenodd"/><path fill="#fff" fill-rule="evenodd" stroke="#fff" stroke-linecap="round" stroke-linejoin="round" stroke-width=".065" d="M67.4502 84.4985C67.4502 84.3422 67.4966 84.1894 67.5835 84.0594C67.6704 83.9295 67.7939 83.8282 67.9384 83.7684C68.0829 83.7086 68.2419 83.6929 68.3953 83.7234C68.5487 83.7539 68.6896 83.8292 68.8001 83.9397C68.9107 84.0502 68.9861 84.191 69.0166 84.3443C69.0471 84.4976 69.0314 84.6565 68.9716 84.8009C68.9117 84.9452 68.8104 85.0687 68.6803 85.1555C68.5503 85.2423 68.3974 85.2887 68.241 85.2887C68.0313 85.2887 67.8301 85.2054 67.6818 85.0572C67.5335 84.909 67.4502 84.708 67.4502 84.4985Z" clip-rule="evenodd"/><path fill="#fff" fill-rule="evenodd" stroke="#fff" stroke-linecap="round" stroke-linejoin="round" stroke-width=".065" d="M69.6643 84.4828C69.6604 84.3257 69.7034 84.1711 69.7879 84.0385C69.8723 83.906 69.9944 83.8017 70.1385 83.7388C70.2827 83.676 70.4422 83.6575 70.5969 83.6857C70.7516 83.7139 70.8943 83.7876 71.0069 83.8973C71.1195 84.007 71.1968 84.1477 71.229 84.3015C71.2611 84.4553 71.2466 84.6152 71.1874 84.7607C71.1282 84.9063 71.0269 85.0309 70.8964 85.1186C70.766 85.2063 70.6123 85.2532 70.4551 85.2533C70.2488 85.2533 70.0506 85.1728 69.9028 85.0288C69.7551 84.8849 69.6695 84.6889 69.6643 84.4828Z" clip-rule="evenodd"/><path fill="#fff" fill-rule="evenodd" stroke="#fff" stroke-linecap="round" stroke-linejoin="round" stroke-width=".065" d="M71.7444 84.4828C71.7405 84.3257 71.7835 84.1711 71.8679 84.0385C71.9524 83.906 72.0745 83.8017 72.2186 83.7388C72.3627 83.676 72.5223 83.6575 72.677 83.6857C72.8317 83.7139 72.9744 83.7876 73.087 83.8973C73.1996 84.007 73.2769 84.1477 73.309 84.3015C73.3412 84.4553 73.3267 84.6152 73.2675 84.7607C73.2082 84.9063 73.1069 85.0309 72.9765 85.1186C72.8461 85.2063 72.6924 85.2532 72.5352 85.2533C72.3288 85.2533 72.1306 85.1728 71.9829 85.0288C71.8351 84.8849 71.7495 84.6889 71.7444 84.4828Z" clip-rule="evenodd"/><path fill="#fff" fill-rule="evenodd" stroke="#fff" stroke-linecap="round" stroke-linejoin="round" stroke-width=".065" d="M73.8713 84.4948C73.8674 84.3377 73.9104 84.183 73.9949 84.0505C74.0794 83.918 74.2014 83.8136 74.3456 83.7508C74.4897 83.6879 74.6493 83.6694 74.8039 83.6977C74.9586 83.7259 75.1014 83.7996 75.2139 83.9092C75.3265 84.0189 75.4038 84.1596 75.436 84.3134C75.4681 84.4672 75.4537 84.6271 75.3944 84.7727C75.3352 84.9182 75.2339 85.0428 75.1035 85.1306C74.973 85.2183 74.8194 85.2652 74.6621 85.2652C74.4558 85.2653 74.2576 85.1848 74.1098 85.0408C73.9621 84.8969 73.8765 84.7009 73.8713 84.4948Z" clip-rule="evenodd"/><path fill="#fff" fill-rule="evenodd" stroke="#fff" stroke-linecap="round" stroke-linejoin="round" stroke-width=".065" d="M76.0502 84.5617C76.0454 84.4045 76.0878 84.2495 76.1717 84.1164C76.2557 83.9834 76.3775 83.8784 76.5215 83.815C76.6655 83.7515 76.8252 83.7324 76.9802 83.7602C77.1351 83.788 77.2782 83.8613 77.3912 83.9708C77.5042 84.0803 77.5819 84.221 77.6144 84.3749C77.6469 84.5288 77.6326 84.6889 77.5735 84.8347C77.5144 84.9804 77.4132 85.1053 77.2827 85.1932C77.1522 85.2811 76.9984 85.3281 76.841 85.3282C76.6353 85.3283 76.4376 85.2483 76.29 85.1052C76.1424 84.9621 76.0563 84.7671 76.0502 84.5617Z" clip-rule="evenodd"/><path fill="#fff" fill-rule="evenodd" d="M80.2964 84.222H79.9643V84.7238H80.2964C80.3661 84.7284 80.435 84.7074 80.4901 84.6645C80.5156 84.6395 80.5352 84.6092 80.5475 84.5757C80.5598 84.5422 80.5645 84.5064 80.5613 84.4709C80.5648 84.4354 80.5602 84.3995 80.5479 84.366C80.5356 84.3325 80.5158 84.3022 80.4901 84.2773C80.4337 84.2375 80.3654 84.2179 80.2964 84.222ZM80.3241 85.0122H79.9643V85.6246H79.6084V83.9178H80.3517C80.4955 83.9132 80.636 83.9609 80.7471 84.0521C80.7994 84.1031 80.84 84.1649 80.8659 84.2331C80.8919 84.3013 80.9026 84.3744 80.8974 84.4472C80.9063 84.5251 80.8974 84.6039 80.8714 84.6778C80.8454 84.7518 80.8029 84.8188 80.7471 84.8739C80.6292 84.9758 80.4799 85.0344 80.3241 85.0399V85.0122Z" clip-rule="evenodd"/><path fill="#fff" fill-rule="evenodd" d="M81.1826 85.6326V83.9258H81.5345V84.5777H82.2027V83.9258H82.5546V85.6326H82.2027V84.8701H81.5345V85.6326H81.1826Z" clip-rule="evenodd"/><path fill="#fff" fill-rule="evenodd" d="M84.1123 84.7791C84.1228 84.6207 84.0796 84.4635 83.9898 84.3326C83.9478 84.2841 83.8959 84.2452 83.8376 84.2185C83.7792 84.1918 83.7158 84.178 83.6517 84.178C83.5875 84.178 83.5241 84.1918 83.4658 84.2185C83.4075 84.2452 83.3556 84.2841 83.3136 84.3326C83.231 84.4662 83.1873 84.6201 83.1873 84.7771C83.1873 84.9341 83.231 85.088 83.3136 85.2216C83.3548 85.2713 83.4065 85.3113 83.4649 85.3388C83.5233 85.3662 83.5871 85.3805 83.6517 85.3805C83.7163 85.3805 83.7801 85.3662 83.8385 85.3388C83.8969 85.3113 83.9486 85.2713 83.9898 85.2216C84.0796 85.0922 84.1228 84.9362 84.1123 84.7791ZM84.2112 85.4823C84.0528 85.6103 83.8553 85.6801 83.6517 85.6801C83.448 85.6801 83.2505 85.6103 83.0922 85.4823C83.0019 85.3898 82.9321 85.2795 82.8871 85.1583C82.8422 85.0372 82.8232 84.908 82.8313 84.7791C82.8213 84.6494 82.8395 84.519 82.8845 84.397C82.9296 84.2749 83.0004 84.164 83.0922 84.0718C83.2505 83.9438 83.448 83.874 83.6517 83.874C83.8553 83.874 84.0528 83.9438 84.2112 84.0718C84.3025 84.1642 84.3727 84.2753 84.4171 84.3973C84.4615 84.5194 84.4789 84.6496 84.4682 84.7791C84.477 84.9077 84.4587 85.0368 84.4145 85.158C84.3702 85.2791 84.3009 85.3896 84.2112 85.4823Z" clip-rule="evenodd"/><path fill="#fff" fill-rule="evenodd" d="M84.7368 83.9258H85.1085L85.7886 85.1111V83.9258H86.1207V85.6326H85.7649L85.069 84.4197V85.6326H84.7368V83.9258Z" clip-rule="evenodd"/><path fill="#fff" fill-rule="evenodd" d="M87.7182 84.2498H86.8128V84.6093H87.6431V84.9057H86.8128V85.3442H87.7578V85.6524H86.4648V83.9456H87.7182V84.2498Z" clip-rule="evenodd"/><path fill="#fff" fill-rule="evenodd" d="M91.2212 85.6007C91.2386 85.4943 91.2932 85.3975 91.3755 85.3277C91.4577 85.2578 91.5621 85.2195 91.67 85.2195C91.7779 85.2195 91.8823 85.2578 91.9645 85.3277C92.0467 85.3975 92.1014 85.4943 92.1188 85.6007C92.1188 85.8101 91.668 85.9958 91.668 85.9958C91.668 85.9958 91.2212 85.8299 91.2212 85.6007Z" clip-rule="evenodd"/><path stroke="#fff" stroke-linecap="round" stroke-linejoin="round" stroke-width=".323" d="M90.1816 85.04C90.2612 84.7084 90.4522 84.4141 90.7228 84.2062C90.9934 83.9984 91.3272 83.8897 91.6683 83.8982C91.7764 83.8959 91.8843 83.9092 91.9886 83.9377C92.2646 84.0219 92.5175 84.1683 92.7279 84.3656C92.9384 84.5629 93.1007 84.8058 93.2025 85.0756"/><path stroke="#fff" stroke-linecap="round" stroke-linejoin="round" stroke-width=".323" d="M89.624 84.7002C89.7453 84.2716 90.0103 83.8977 90.3744 83.6409C90.7386 83.3842 91.18 83.2602 91.6247 83.2897C91.7684 83.2847 91.912 83.2993 92.0517 83.3331C92.4146 83.427 92.7509 83.6031 93.0348 83.8477C93.3186 84.0923 93.5424 84.3988 93.6887 84.7436"/><path stroke="#fff" stroke-linecap="round" stroke-linejoin="round" stroke-width=".323" d="M90.7036 85.4113C90.7565 85.1883 90.8826 84.9893 91.0617 84.8461C91.2408 84.7029 91.4627 84.6237 91.6921 84.6211C91.9271 84.6327 92.1514 84.7227 92.3291 84.8767C92.5069 85.0307 92.6279 85.2398 92.6727 85.4706"/><path fill="#F0F0F0" fill-rule="evenodd" d="M144.904 84.2498V83.9495C145.001 83.9465 145.097 83.9373 145.193 83.9219C145.276 83.9067 145.352 83.8651 145.41 83.8034C145.451 83.7581 145.481 83.704 145.497 83.6453C145.501 83.6151 145.501 83.5846 145.497 83.5544H145.865V85.7907H145.414V84.2498H144.904Z" clip-rule="evenodd"/><path fill="#F0F0F0" fill-rule="evenodd" d="M146.644 85.3362C146.748 85.1414 146.903 84.9778 147.091 84.8621C147.231 84.7683 147.363 84.6639 147.486 84.5499C147.575 84.4736 147.63 84.3659 147.641 84.2497C147.645 84.1635 147.617 84.0789 147.561 84.0126C147.527 83.9785 147.486 83.9524 147.441 83.9364C147.395 83.9204 147.347 83.9149 147.299 83.9202C147.251 83.9255 147.205 83.9416 147.164 83.9671C147.123 83.9927 147.089 84.0272 147.063 84.0679C147.03 84.1564 147.013 84.25 147.012 84.3445H146.585C146.586 84.1849 146.621 84.0274 146.688 83.8822C146.748 83.771 146.84 83.6799 146.952 83.6202C147.063 83.5605 147.19 83.5349 147.316 83.5464C147.523 83.5356 147.726 83.6065 147.882 83.7439C147.952 83.8111 148.007 83.8923 148.043 83.9822C148.079 84.0721 148.095 84.1687 148.091 84.2655C148.093 84.4245 148.04 84.5793 147.941 84.704C147.85 84.8161 147.742 84.9134 147.621 84.9925L147.447 85.1149C147.336 85.194 147.261 85.2532 147.221 85.2848C147.18 85.319 147.145 85.3605 147.119 85.4073H148.095V85.8024H146.561C146.554 85.6428 146.582 85.4836 146.644 85.3362Z" clip-rule="evenodd"/><path fill="#F0F0F0" fill-rule="evenodd" d="M148.562 84.1587H149.029V84.621H148.562V84.1587ZM148.562 85.3163H149.029V85.7747H148.562V85.3163Z" clip-rule="evenodd"/><path fill="#F0F0F0" fill-rule="evenodd" d="M150.128 85.4743C150.188 85.4763 150.247 85.4567 150.294 85.419C150.341 85.3814 150.374 85.3281 150.385 85.2688C150.463 84.8776 150.463 84.4747 150.385 84.0835C150.373 84.0257 150.34 83.9743 150.293 83.9387C150.245 83.9031 150.187 83.8858 150.128 83.8899C150.068 83.8865 150.01 83.9039 149.962 83.9393C149.914 83.9747 149.881 84.0258 149.867 84.0835C149.783 84.4742 149.783 84.8782 149.867 85.2688C149.88 85.328 149.913 85.3809 149.96 85.4184C150.008 85.4559 150.067 85.4757 150.128 85.4743ZM150.919 84.6841C150.934 84.9775 150.874 85.27 150.745 85.5336C150.684 85.635 150.595 85.717 150.49 85.7702C150.384 85.8234 150.265 85.8454 150.148 85.8338C150.029 85.8452 149.91 85.8231 149.804 85.77C149.698 85.7169 149.608 85.635 149.547 85.5336C149.417 85.27 149.357 84.9775 149.373 84.6841C149.357 84.3882 149.417 84.0931 149.547 83.8267C149.608 83.7253 149.698 83.6434 149.804 83.5903C149.91 83.5372 150.029 83.515 150.148 83.5264C150.265 83.5149 150.384 83.5369 150.49 83.5901C150.595 83.6432 150.684 83.7253 150.745 83.8267C150.867 84.0937 150.92 84.3872 150.899 84.6801L150.919 84.6841Z" clip-rule="evenodd"/><path fill="#F0F0F0" fill-rule="evenodd" d="M151.887 85.4743C151.947 85.4755 152.006 85.4556 152.053 85.4181C152.1 85.3805 152.132 85.3277 152.144 85.2688C152.223 84.8776 152.223 84.4747 152.144 84.0835C152.131 84.0261 152.098 83.9751 152.051 83.9397C152.004 83.9042 151.946 83.8866 151.887 83.8899C151.828 83.8865 151.769 83.9039 151.721 83.9393C151.674 83.9747 151.64 84.0258 151.626 84.0835C151.542 84.4742 151.542 84.8782 151.626 85.2688C151.639 85.328 151.672 85.3809 151.72 85.4184C151.767 85.4559 151.826 85.4757 151.887 85.4743ZM152.678 84.6841C152.694 84.9775 152.634 85.27 152.504 85.5336C152.443 85.635 152.355 85.717 152.249 85.7702C152.143 85.8234 152.025 85.8454 151.907 85.8338C151.789 85.8452 151.669 85.8231 151.563 85.77C151.457 85.7169 151.368 85.635 151.306 85.5336C151.176 85.27 151.116 84.9775 151.132 84.6841C151.116 84.3882 151.176 84.0931 151.306 83.8267C151.368 83.7253 151.457 83.6434 151.563 83.5903C151.669 83.5372 151.789 83.515 151.907 83.5264C152.025 83.5149 152.143 83.5369 152.249 83.5901C152.355 83.6432 152.443 83.7253 152.504 83.8267C152.626 84.0937 152.679 84.3872 152.658 84.6801L152.678 84.6841Z" clip-rule="evenodd"/><path fill="#F0F0F0" fill-rule="evenodd" d="M154.821 83.8939H154.362V84.5656H154.805C154.899 84.5699 154.992 84.5404 155.066 84.4826C155.1 84.4496 155.126 84.4094 155.143 84.365C155.159 84.3205 155.165 84.273 155.161 84.2258C155.166 84.1792 155.16 84.132 155.143 84.0881C155.127 84.0442 155.1 84.0047 155.066 83.9729C154.995 83.92 154.909 83.8922 154.821 83.8939ZM154.86 84.9567H154.362V85.7746H153.888V83.4988H154.88C155.078 83.4877 155.273 83.5511 155.426 83.6766C155.498 83.7466 155.554 83.8318 155.59 83.9261C155.626 84.0204 155.64 84.1214 155.631 84.2218C155.643 84.3261 155.63 84.4315 155.595 84.5301C155.559 84.6287 155.501 84.7179 155.426 84.7908C155.262 84.9084 155.062 84.9669 154.86 84.9567Z" clip-rule="evenodd"/><path fill="#F0F0F0" fill-rule="evenodd" d="M157.525 83.499H158.209V85.7748H157.767V83.8546L157.336 85.763H156.877L156.434 83.8546C156.434 83.8981 156.434 83.9573 156.434 84.0403V85.763H155.991V83.499H156.683L157.079 85.2888L157.525 83.499Z" clip-rule="evenodd"/><path fill="#fff" fill-rule="evenodd" stroke="#fff" stroke-linecap="round" stroke-linejoin="round" stroke-width=".645" d="M226.205 84.3364H232.797C232.951 84.3495 233.094 84.4228 233.195 84.5403C233.295 84.6579 233.345 84.8103 233.335 84.9646V86.5846C233.345 86.7389 233.295 86.8913 233.195 87.0088C233.094 87.1264 232.951 87.1997 232.797 87.2128H226.205C226.051 87.1997 225.908 87.1264 225.808 87.0088C225.707 86.8913 225.657 86.7389 225.668 86.5846V86.1499H224.877V85.3597H225.668V84.9646C225.657 84.8103 225.707 84.6579 225.808 84.5403C225.908 84.4228 226.051 84.3495 226.205 84.3364Z" clip-rule="evenodd"/><path fill="#BEBEBE" fill-rule="evenodd" d="M228.274 84.6211H232.461C232.628 84.6211 232.788 84.6873 232.905 84.8051C233.023 84.9229 233.09 85.0827 233.09 85.2493V86.4781C233.09 86.6447 233.023 86.8045 232.905 86.9223C232.788 87.0401 232.628 87.1063 232.461 87.1063H228.274C228.107 87.1063 227.947 87.0401 227.829 86.9223C227.711 86.8045 227.645 86.6447 227.645 86.4781V85.2493C227.645 85.0827 227.711 84.9229 227.829 84.8051C227.947 84.6873 228.107 84.6211 228.274 84.6211Z" clip-rule="evenodd"/><path fill="#fff" fill-rule="evenodd" d="M221.074 86.1144C221.096 86.1149 221.117 86.111 221.138 86.1029C221.158 86.0947 221.177 86.0825 221.192 86.067C221.207 86.0498 221.219 86.0298 221.227 86.0081C221.234 85.9864 221.237 85.9634 221.236 85.9405C221.238 85.9167 221.234 85.8927 221.226 85.8702C221.218 85.8477 221.205 85.8272 221.188 85.8102C221.173 85.7957 221.155 85.7843 221.135 85.7769C221.116 85.7694 221.095 85.766 221.074 85.7667C221.052 85.7656 221.03 85.769 221.01 85.7764C220.989 85.7839 220.971 85.7954 220.955 85.8102C220.939 85.8279 220.928 85.8486 220.92 85.871C220.913 85.8934 220.91 85.917 220.912 85.9405C220.91 85.9634 220.913 85.9864 220.921 86.0081C220.928 86.0298 220.94 86.0498 220.955 86.067C220.97 86.0831 220.989 86.0957 221.009 86.1039C221.03 86.1121 221.052 86.1157 221.074 86.1144ZM220.852 85.6679C220.806 85.6416 220.768 85.6016 220.745 85.5533C220.731 85.5155 220.723 85.4754 220.722 85.4348C220.722 85.3955 220.73 85.3566 220.745 85.3206C220.761 85.2846 220.784 85.2522 220.813 85.2254C220.887 85.1676 220.979 85.1382 221.074 85.1424C221.167 85.1361 221.259 85.1658 221.331 85.2254C221.361 85.2513 221.385 85.2835 221.401 85.3196C221.418 85.3558 221.426 85.3951 221.425 85.4348C221.425 85.4759 221.416 85.5163 221.398 85.5533C221.377 85.5997 221.341 85.6373 221.295 85.66C221.346 85.6893 221.388 85.7316 221.418 85.7825C221.446 85.836 221.461 85.8957 221.461 85.9564C221.461 86.0018 221.452 86.0467 221.433 86.0882C221.415 86.1297 221.388 86.1669 221.354 86.1974C221.315 86.2326 221.268 86.2595 221.218 86.2765C221.168 86.2935 221.115 86.3001 221.062 86.2961C220.957 86.3021 220.855 86.2666 220.777 86.1974C220.715 86.1325 220.681 86.046 220.682 85.9564C220.682 85.8957 220.697 85.836 220.726 85.7825C220.756 85.7327 220.8 85.6929 220.852 85.6679ZM221.074 85.5968C221.111 85.599 221.148 85.5862 221.176 85.5613C221.201 85.5329 221.214 85.4961 221.212 85.4585C221.215 85.4397 221.213 85.4206 221.207 85.4026C221.201 85.3847 221.191 85.3683 221.177 85.3549C221.164 85.3415 221.148 85.3314 221.13 85.3254C221.112 85.3194 221.092 85.3176 221.074 85.3202C221.035 85.3186 220.997 85.3313 220.967 85.3558C220.942 85.384 220.929 85.4209 220.931 85.4585C220.929 85.4961 220.942 85.5329 220.967 85.5613C220.997 85.5858 221.035 85.5984 221.074 85.5968Z" clip-rule="evenodd"/><path fill="#fff" fill-rule="evenodd" d="M221.975 86.1145C222.005 86.116 222.035 86.1064 222.059 86.0876C222.083 86.0687 222.1 86.0418 222.105 86.0118C222.128 85.9147 222.137 85.815 222.133 85.7155C222.137 85.6159 222.128 85.5162 222.105 85.4192C222.1 85.3895 222.083 85.363 222.059 85.3448C222.035 85.3266 222.005 85.3179 221.975 85.3204C221.945 85.3195 221.916 85.3288 221.892 85.3468C221.868 85.3647 221.852 85.3903 221.844 85.4192C221.82 85.516 221.809 85.6157 221.813 85.7155C221.81 85.8152 221.82 85.9149 221.844 86.0118C221.851 86.0411 221.868 86.0671 221.892 86.0857C221.915 86.1043 221.945 86.1145 221.975 86.1145ZM222.37 85.7194C222.379 85.8668 222.349 86.0141 222.283 86.1461C222.253 86.1972 222.208 86.2384 222.155 86.265C222.102 86.2916 222.042 86.3025 221.983 86.2963C221.924 86.302 221.864 86.2909 221.811 86.2644C221.758 86.2378 221.713 86.1968 221.682 86.1461C221.618 86.0134 221.588 85.8667 221.595 85.7194C221.589 85.5722 221.618 85.4256 221.682 85.2927C221.714 85.2423 221.758 85.2016 221.811 85.1751C221.864 85.1486 221.924 85.1373 221.983 85.1426C222.042 85.1369 222.101 85.1479 222.155 85.1745C222.208 85.201 222.252 85.242 222.283 85.2927C222.339 85.4263 222.359 85.5718 222.343 85.7155L222.37 85.7194Z" clip-rule="evenodd"/><path fill="#fff" fill-rule="evenodd" d="M222.845 85.4351C222.845 85.4026 222.832 85.3715 222.809 85.3485C222.786 85.3256 222.755 85.3127 222.722 85.3127C222.706 85.3126 222.69 85.3157 222.675 85.3218C222.66 85.3279 222.647 85.3369 222.635 85.3482C222.624 85.3596 222.615 85.3731 222.609 85.3881C222.602 85.403 222.599 85.419 222.599 85.4351C222.599 85.4513 222.602 85.4673 222.609 85.4822C222.615 85.4971 222.624 85.5107 222.635 85.5221C222.647 85.5334 222.66 85.5424 222.675 85.5485C222.69 85.5546 222.706 85.5577 222.722 85.5576C222.755 85.5576 222.786 85.5447 222.809 85.5217C222.832 85.4988 222.845 85.4676 222.845 85.4351ZM222.722 85.7236C222.685 85.7243 222.647 85.717 222.612 85.702C222.577 85.687 222.546 85.6647 222.521 85.6366C222.47 85.5836 222.441 85.5128 222.441 85.4391C222.441 85.3654 222.47 85.2946 222.521 85.2415C222.546 85.2135 222.577 85.1912 222.612 85.1762C222.647 85.1612 222.685 85.1538 222.722 85.1546C222.761 85.154 222.799 85.1615 222.834 85.1764C222.87 85.1914 222.902 85.2136 222.928 85.2415C222.968 85.2821 222.994 85.3334 223.005 85.3891C223.016 85.4447 223.01 85.5023 222.988 85.5546C222.966 85.6068 222.929 85.6515 222.882 85.6829C222.835 85.7144 222.779 85.7313 222.722 85.7315V85.7236ZM223.474 85.8737C223.441 85.8737 223.41 85.8866 223.387 85.9096C223.364 85.9325 223.351 85.9637 223.351 85.9962C223.351 86.0124 223.353 86.0285 223.36 86.0434C223.366 86.0584 223.375 86.0719 223.387 86.0831C223.398 86.0944 223.412 86.1034 223.427 86.1095C223.442 86.1156 223.458 86.1187 223.474 86.1187C223.506 86.1187 223.537 86.1058 223.56 86.0828C223.583 86.0598 223.596 86.0287 223.596 85.9962C223.596 85.9801 223.593 85.9641 223.587 85.9492C223.581 85.9343 223.572 85.9207 223.561 85.9092C223.549 85.8982 223.535 85.8897 223.52 85.8843C223.506 85.8788 223.49 85.8766 223.474 85.8776V85.8737ZM223.474 86.2688C223.436 86.2696 223.399 86.2626 223.364 86.2483C223.329 86.234 223.298 86.2128 223.272 86.1858C223.217 86.1315 223.186 86.0577 223.185 85.9804C223.185 85.9426 223.193 85.9053 223.208 85.8706C223.223 85.836 223.245 85.8047 223.272 85.7789C223.325 85.7277 223.396 85.6991 223.47 85.6991C223.543 85.6991 223.614 85.7277 223.667 85.7789C223.695 85.8043 223.718 85.8354 223.733 85.8702C223.748 85.9049 223.755 85.9425 223.754 85.9804C223.755 86.0188 223.747 86.0569 223.733 86.0922C223.718 86.1276 223.695 86.1595 223.667 86.1858C223.644 86.2154 223.615 86.2398 223.581 86.2575C223.548 86.2752 223.511 86.2858 223.474 86.2885V86.2688ZM223.351 85.127H223.47L222.845 86.2767H222.726L223.351 85.127Z" clip-rule="evenodd"/><path stroke="#454545" stroke-linecap="round" stroke-linejoin="round" stroke-width=".645" d="M82.6373 101.239L75.0615 101.089L77.9202 103.819L75.0615 101.089L77.6593 98.4893"/><path fill="#BEBEBE" fill-rule="evenodd" stroke="#454545" stroke-linecap="round" stroke-linejoin="round" stroke-width=".645" d="M212.387 96.2961H217.879C218.356 96.3247 218.802 96.5406 219.119 96.8967C219.437 97.2528 219.601 97.7201 219.575 98.1966V103.479C219.6 103.955 219.436 104.422 219.118 104.778C218.801 105.134 218.355 105.35 217.879 105.38H212.387C211.911 105.35 211.465 105.134 211.148 104.778C210.83 104.422 210.666 103.955 210.691 103.479V98.1966C210.665 97.7201 210.829 97.2528 211.146 96.8967C211.464 96.5406 211.91 96.3247 212.387 96.2961Z" clip-rule="evenodd"/><path fill="#454545" fill-rule="evenodd" d="M213.597 102.144C213.819 101.731 214.144 101.384 214.542 101.136C214.837 100.937 215.117 100.716 215.38 100.476C215.562 100.295 215.667 100.05 215.673 99.7928C215.68 99.6104 215.619 99.4317 215.503 99.291C215.43 99.2183 215.343 99.1628 215.246 99.1287C215.149 99.0946 215.046 99.0828 214.944 99.0942C214.842 99.1056 214.744 99.1399 214.657 99.1945C214.571 99.2491 214.497 99.3226 214.443 99.4096C214.37 99.5958 214.335 99.7945 214.34 99.9943H213.431C213.43 99.6544 213.504 99.3186 213.648 99.0105C213.777 98.775 213.971 98.5822 214.208 98.4559C214.445 98.3295 214.713 98.2751 214.981 98.2993C215.416 98.2789 215.841 98.4292 216.167 98.7181C216.316 98.8599 216.433 99.032 216.51 99.2228C216.588 99.4137 216.623 99.6188 216.614 99.8244C216.618 100.164 216.508 100.495 216.301 100.765C216.105 100.998 215.876 101.202 215.621 101.369L215.226 101.634C214.993 101.804 214.83 101.922 214.747 101.997C214.66 102.071 214.585 102.157 214.526 102.254H216.606V103.08H213.348C213.361 102.753 213.446 102.434 213.597 102.144Z" clip-rule="evenodd"/><path fill="#454545" fill-rule="evenodd" d="M226.72 97.288C226.714 97.1064 226.763 96.9273 226.86 96.7736C226.957 96.6199 227.098 96.4987 227.264 96.4253C227.43 96.352 227.615 96.3299 227.794 96.362C227.973 96.394 228.138 96.4787 228.268 96.6051C228.399 96.7316 228.489 96.8941 228.526 97.0719C228.564 97.2496 228.547 97.4345 228.479 97.6029C228.411 97.7713 228.294 97.9155 228.143 98.0171C227.992 98.1187 227.815 98.173 227.633 98.173C227.395 98.1762 227.165 98.0849 226.993 97.919C226.822 97.7531 226.724 97.5262 226.72 97.288Z" clip-rule="evenodd"/><path fill="#454545" fill-rule="evenodd" d="M226.763 100.192C226.759 100.011 226.809 99.8338 226.907 99.6818C227.004 99.5298 227.145 99.4102 227.311 99.3384C227.477 99.2666 227.66 99.2457 227.838 99.2785C228.015 99.3113 228.179 99.3963 228.309 99.5226C228.438 99.6488 228.526 99.8107 228.563 99.9875C228.6 100.164 228.583 100.348 228.515 100.515C228.447 100.682 228.33 100.826 228.18 100.926C228.03 101.027 227.854 101.081 227.673 101.081C227.434 101.083 227.205 100.991 227.034 100.824C226.864 100.657 226.767 100.43 226.763 100.192Z" clip-rule="evenodd"/><path fill="#454545" fill-rule="evenodd" d="M226.807 103.163C226.803 102.983 226.853 102.805 226.95 102.653C227.048 102.501 227.189 102.381 227.354 102.31C227.52 102.238 227.704 102.217 227.881 102.25C228.059 102.283 228.223 102.367 228.352 102.494C228.481 102.62 228.57 102.782 228.606 102.959C228.643 103.135 228.626 103.319 228.558 103.486C228.49 103.654 228.373 103.797 228.224 103.897C228.074 103.998 227.897 104.052 227.716 104.052C227.478 104.054 227.248 103.962 227.078 103.795C226.907 103.629 226.81 103.401 226.807 103.163Z" clip-rule="evenodd"/><path fill="#fff" d="M125.133 219.533L133.749 228.138H125.133V219.533ZM125.133 217.382L135.904 228.138H144.52L125.133 208.777V217.382ZM125.133 206.625L146.674 228.138H155.291L125.133 198.02V206.625ZM135.904 206.625L157.445 228.138V219.533L135.904 198.02V206.625ZM146.674 198.02V206.625L157.445 217.382V208.777L146.674 198.02Z"/><path fill="#fff" d="M176.833 224.695C174.625 224.695 172.509 223.819 170.949 222.262L158.969 210.297V228.137H176.833V224.695Z"/><path fill="#F7A501" d="M164.138 224.696C165.09 224.696 165.862 223.925 165.862 222.975C165.862 222.024 165.09 221.254 164.138 221.254C163.187 221.254 162.415 222.024 162.415 222.975C162.415 223.925 163.187 224.696 164.138 224.696Z"/><path fill="#fff" d="M125.133 228.138H133.749L125.133 219.532V228.138Z"/><path fill="#fff" d="M135.904 208.777L125.133 198.02V206.625L135.904 217.382V208.777Z"/><path fill="#fff" d="M125.133 208.776V217.381L135.904 228.138V219.532L125.133 208.776Z"/><path fill="#fff" d="M146.675 208.776L135.904 198.02V206.625L146.675 217.381V208.776Z"/><path fill="#fff" d="M135.904 228.138H144.52L135.904 219.532V228.138Z"/><path fill="#fff" d="M135.904 208.776V217.381L146.675 228.138V219.532L135.904 208.776Z"/><path fill="#fff" d="M111.03 267.539C111.03 271.394 109.303 273.981 103.473 273.981H100.261V279.452H96.752V261.123H103.473C109.303 261.125 111.03 263.684 111.03 267.539ZM107.521 267.539C107.521 265.302 106.82 264.359 104.093 264.359H100.261V270.747H104.093C106.82 270.747 107.521 269.696 107.521 267.539Z"/><path fill="#fff" d="M112.784 272.499C112.784 268.267 115.131 265.302 119.505 265.302C123.877 265.302 126.226 268.267 126.226 272.499C126.226 276.731 123.877 279.722 119.505 279.722C115.133 279.722 112.784 276.729 112.784 272.499ZM122.717 272.499C122.717 269.533 121.882 268.537 119.505 268.537C117.13 268.537 116.293 269.533 116.293 272.499C116.293 275.464 117.129 276.488 119.505 276.488C121.88 276.486 122.717 275.462 122.717 272.499Z"/><path fill="#fff" d="M128.52 274.466C130.975 276.003 132.785 276.488 134.782 276.488C136.078 276.488 136.617 275.975 136.617 275.303C136.617 274.521 136.131 274.144 133.972 273.793C129.734 273.146 128.52 271.475 128.52 269.346C128.52 266.57 130.841 265.303 133.729 265.303C135.537 265.303 137.724 265.789 139.046 266.704V269.938C137.076 268.968 134.944 268.537 133.459 268.537C132.487 268.537 132.028 268.888 132.028 269.508C132.028 270.183 132.38 270.559 134.539 271.017C138.587 271.852 140.126 272.716 140.126 275.383C140.126 278.132 137.67 279.722 134.512 279.722C132.406 279.722 130.489 279.318 128.52 277.998V274.466Z"/><path fill="#fff" d="M147.142 268.806V276.218H150.839V279.452H143.633V268.806H141.474V265.572H143.633V260.586H147.142V265.572H150.839V268.806H147.142Z"/><path fill="#fff" d="M169.435 261.125V279.454H165.926V272.175H157.856V279.454H154.347V261.125H157.856V268.942H165.926V261.125H169.435Z"/><path fill="#fff" d="M172.135 272.499C172.135 268.267 174.482 265.302 178.856 265.302C183.228 265.302 185.577 268.267 185.577 272.499C185.577 276.731 183.228 279.722 178.856 279.722C174.484 279.722 172.135 276.729 172.135 272.499ZM182.067 272.499C182.067 269.533 181.231 268.537 178.854 268.537C176.48 268.537 175.642 269.533 175.642 272.499C175.642 275.464 176.478 276.488 178.854 276.488C181.231 276.486 182.067 275.462 182.067 272.499Z"/><path fill="#fff" d="M201.177 265.572V283.765H190.111V280.531H197.668V276.757C196.858 277.646 195.671 278.374 193.727 278.374C189.679 278.374 187.735 275.328 187.735 271.824C187.735 268.348 189.679 265.302 193.727 265.302C195.671 265.302 196.858 266.03 197.668 267.054V265.572H201.177ZM197.668 271.824C197.668 269.749 196.832 268.535 194.456 268.535C192.081 268.535 191.244 269.749 191.244 271.824C191.244 273.927 192.081 275.139 194.456 275.139C196.831 275.139 197.668 274.061 197.668 271.824Z"/></g><rect width="10.499" height="36.495" fill="#F7A501" rx="5.249" transform="matrix(0.647796 -0.761814 0.761815 0.647794 13.873 25.5645)"/><rect width="10.499" height="36.495" fill="#F7A501" rx="5.249" transform="matrix(0.912646 -0.408752 0.408766 0.912639 39.3457 4.29126)"/><rect width="10.499" height="36.495" fill="#F7A501" rx="5.249" transform="matrix(0.281125 -0.959671 0.95968 0.281094 0 53.291)"/><defs><clipPath id="clip0"><rect width="191.569" height="374.754" fill="#fff" transform="translate(53.5361 52.2461)"/></clipPath></defs></svg>