<svg xmlns="http://www.w3.org/2000/svg" width="243" height="33" fill="none" viewBox="0 0 243 33"><path fill="#25282B" d="M1.864 25C1.39467 25 1 24.84 0.68 24.52C0.36 24.2 0.2 23.8053 0.2 23.336V1.672C0.2 1.18133 0.36 0.786666 0.68 0.487999C1 0.167999 1.39467 0.00799942 1.864 0.00799942H7.624C9.224 0.00799942 10.6427 0.349333 11.88 1.032C13.1173 1.69333 14.0773 2.61067 14.76 3.784C15.464 4.95733 15.816 6.32267 15.816 7.88C15.816 9.416 15.432 10.7707 14.664 11.944C13.896 13.096 12.8507 13.9707 11.528 14.568L16.424 22.44C16.808 23.0587 16.8613 23.6453 16.584 24.2C16.3067 24.7333 15.8267 25 15.144 25C14.5253 25 14.0453 24.7333 13.704 24.2L8.2 15.368C8.008 15.368 7.816 15.368 7.624 15.368H3.528V23.336C3.528 23.8053 3.368 24.2 3.048 24.52C2.74933 24.84 2.35467 25 1.864 25ZM3.528 12.296H7.624C9.07467 12.296 10.2693 11.8907 11.208 11.08C12.1467 10.248 12.616 9.18133 12.616 7.88C12.616 6.472 12.1467 5.32 11.208 4.424C10.2693 3.528 9.07467 3.08 7.624 3.08H3.528V12.296ZM28.4228 25.128C26.6521 25.128 25.0734 24.7547 23.6868 24.008C22.3214 23.24 21.2441 22.1947 20.4548 20.872C19.6868 19.528 19.3028 17.992 19.3028 16.264C19.3028 14.5147 19.6654 12.9787 20.3908 11.656C21.1374 10.312 22.1614 9.26667 23.4628 8.52C24.7641 7.752 26.2574 7.368 27.9428 7.368C29.6068 7.368 31.0361 7.74133 32.2308 8.488C33.4254 9.21333 34.3321 10.2267 34.9508 11.528C35.5908 12.808 35.9108 14.2907 35.9108 15.976C35.9108 16.3813 35.7721 16.7227 35.4948 17C35.2174 17.256 34.8654 17.384 34.4388 17.384H22.2788C22.5134 18.856 23.1854 20.0613 24.2948 21C25.4254 21.9173 26.8014 22.376 28.4228 22.376C29.0841 22.376 29.7561 22.2587 30.4388 22.024C31.1428 21.768 31.7081 21.48 32.1348 21.16C32.4548 20.9253 32.7961 20.808 33.1588 20.808C33.5428 20.7867 33.8734 20.8933 34.1508 21.128C34.5134 21.448 34.7054 21.8 34.7268 22.184C34.7481 22.568 34.5774 22.8987 34.2148 23.176C33.4894 23.752 32.5828 24.2213 31.4948 24.584C30.4281 24.9467 29.4041 25.128 28.4228 25.128ZM27.9428 10.12C26.3641 10.12 25.0948 10.5573 24.1348 11.432C23.1748 12.3067 22.5668 13.4373 22.3108 14.824H32.9668C32.7748 13.4587 32.2521 12.3387 31.3988 11.464C30.5454 10.568 29.3934 10.12 27.9428 10.12ZM47.4848 25.128C45.7781 25.128 44.2528 24.744 42.9088 23.976C41.5861 23.1867 40.5408 22.1307 39.7728 20.808C39.0261 19.464 38.6528 17.9493 38.6528 16.264C38.6528 14.536 39.0261 13 39.7728 11.656C40.5194 10.312 41.5434 9.26667 42.8448 8.52C44.1461 7.752 45.6394 7.368 47.3248 7.368C49.8421 7.368 51.9328 8.328 53.5968 10.248C53.8954 10.5893 54.0021 10.9413 53.9168 11.304C53.8314 11.6667 53.5968 11.9867 53.2128 12.264C52.9141 12.4773 52.5834 12.552 52.2208 12.488C51.8581 12.4027 51.5274 12.2107 51.2288 11.912C50.1834 10.8027 48.8821 10.248 47.3248 10.248C45.6821 10.248 44.3488 10.8027 43.3248 11.912C42.3008 13 41.7888 14.4507 41.7888 16.264C41.7888 17.416 42.0234 18.44 42.4928 19.336C42.9834 20.232 43.6554 20.9467 44.5088 21.48C45.3621 21.992 46.3541 22.248 47.4848 22.248C48.9354 22.248 50.1088 21.8747 51.0048 21.128C51.3461 20.8507 51.6981 20.7013 52.0608 20.68C52.4234 20.6373 52.7434 20.7333 53.0208 20.968C53.3834 21.2667 53.5861 21.608 53.6288 21.992C53.6714 22.3547 53.5434 22.6853 53.2448 22.984C51.7088 24.4133 49.7888 25.128 47.4848 25.128ZM60.8195 25C60.3502 25 59.9555 24.8507 59.6355 24.552C59.3368 24.232 59.1875 23.8373 59.1875 23.368V9.128C59.1875 8.63733 59.3368 8.24266 59.6355 7.944C59.9555 7.64533 60.3502 7.496 60.8195 7.496C61.3102 7.496 61.7048 7.64533 62.0035 7.944C62.3022 8.24266 62.4515 8.63733 62.4515 9.128V23.368C62.4515 23.8373 62.3022 24.232 62.0035 24.552C61.7048 24.8507 61.3102 25 60.8195 25ZM60.8195 4.648C60.2435 4.648 59.7422 4.44533 59.3155 4.04C58.9102 3.61333 58.7075 3.112 58.7075 2.536C58.7075 1.96 58.9102 1.46933 59.3155 1.064C59.7422 0.637333 60.2435 0.424 60.8195 0.424C61.3955 0.424 61.8862 0.637333 62.2915 1.064C62.7182 1.46933 62.9315 1.96 62.9315 2.536C62.9315 3.112 62.7182 3.61333 62.2915 4.04C61.8862 4.44533 61.3955 4.648 60.8195 4.648ZM70.2558 32.488C69.7864 32.488 69.3918 32.328 69.0718 32.008C68.7731 31.7093 68.6238 31.3253 68.6238 30.856V16.264C68.6451 14.5787 69.0398 13.064 69.8078 11.72C70.5758 10.376 71.6211 9.32 72.9438 8.552C74.2664 7.76267 75.7598 7.368 77.4238 7.368C79.1091 7.368 80.6131 7.76267 81.9358 8.552C83.2584 9.32 84.3038 10.376 85.0718 11.72C85.8611 13.064 86.2558 14.5787 86.2558 16.264C86.2558 17.9493 85.8931 19.464 85.1678 20.808C84.4638 22.1307 83.4931 23.1867 82.2558 23.976C81.0184 24.744 79.6211 25.128 78.0638 25.128C76.8051 25.128 75.6424 24.872 74.5758 24.36C73.5304 23.8267 72.6344 23.112 71.8878 22.216V30.856C71.8878 31.3253 71.7384 31.7093 71.4398 32.008C71.1411 32.328 70.7464 32.488 70.2558 32.488ZM77.4238 22.248C78.5118 22.248 79.4824 21.992 80.3358 21.48C81.1891 20.9467 81.8611 20.232 82.3518 19.336C82.8638 18.4187 83.1198 17.3947 83.1198 16.264C83.1198 15.112 82.8638 14.088 82.3518 13.192C81.8611 12.2747 81.1891 11.56 80.3358 11.048C79.4824 10.5147 78.5118 10.248 77.4238 10.248C76.3571 10.248 75.3864 10.5147 74.5118 11.048C73.6584 11.56 72.9864 12.2747 72.4958 13.192C72.0051 14.088 71.7598 15.112 71.7598 16.264C71.7598 17.3947 72.0051 18.4187 72.4958 19.336C72.9864 20.232 73.6584 20.9467 74.5118 21.48C75.3864 21.992 76.3571 22.248 77.4238 22.248ZM92.8238 25C91.7571 25 91.2238 24.4667 91.2238 23.4V9.096C91.2238 8.02933 91.7571 7.496 92.8238 7.496C93.8904 7.496 94.4238 8.02933 94.4238 9.096V9.704C95.0638 8.95733 95.8424 8.37067 96.7598 7.944C97.6984 7.51733 98.7118 7.304 99.7998 7.304C101.08 7.304 102.029 7.51733 102.648 7.944C103.288 8.34933 103.533 8.84 103.384 9.416C103.277 9.864 103.064 10.1627 102.744 10.312C102.424 10.44 102.05 10.4613 101.624 10.376C100.258 10.0987 99.0318 10.0773 97.9438 10.312C96.8558 10.5467 95.9918 10.984 95.3518 11.624C94.7331 12.264 94.4238 13.0747 94.4238 14.056V23.4C94.4238 24.4667 93.8904 25 92.8238 25ZM113.541 25.128C111.813 25.128 110.288 24.7547 108.965 24.008C107.642 23.24 106.597 22.1947 105.829 20.872C105.082 19.528 104.709 17.992 104.709 16.264C104.709 14.5147 105.082 12.9787 105.829 11.656C106.597 10.312 107.642 9.26667 108.965 8.52C110.288 7.752 111.813 7.368 113.541 7.368C115.248 7.368 116.762 7.752 118.085 8.52C119.408 9.26667 120.442 10.312 121.189 11.656C121.957 12.9787 122.341 14.5147 122.341 16.264C122.341 17.992 121.968 19.528 121.221 20.872C120.474 22.1947 119.44 23.24 118.117 24.008C116.794 24.7547 115.269 25.128 113.541 25.128ZM113.541 22.248C114.65 22.248 115.632 21.992 116.485 21.48C117.338 20.968 118 20.264 118.469 19.368C118.96 18.472 119.205 17.4373 119.205 16.264C119.205 15.0907 118.96 14.056 118.469 13.16C118 12.2427 117.338 11.528 116.485 11.016C115.632 10.504 114.65 10.248 113.541 10.248C112.432 10.248 111.45 10.504 110.597 11.016C109.744 11.528 109.072 12.2427 108.581 13.16C108.09 14.056 107.845 15.0907 107.845 16.264C107.845 17.4373 108.09 18.472 108.581 19.368C109.072 20.264 109.744 20.968 110.597 21.48C111.45 21.992 112.432 22.248 113.541 22.248ZM135.235 25.128C133.528 25.128 132.003 24.744 130.659 23.976C129.336 23.1867 128.291 22.1307 127.523 20.808C126.776 19.464 126.403 17.9493 126.403 16.264C126.403 14.536 126.776 13 127.523 11.656C128.269 10.312 129.293 9.26667 130.595 8.52C131.896 7.752 133.389 7.368 135.075 7.368C137.592 7.368 139.683 8.328 141.347 10.248C141.645 10.5893 141.752 10.9413 141.667 11.304C141.581 11.6667 141.347 11.9867 140.963 12.264C140.664 12.4773 140.333 12.552 139.971 12.488C139.608 12.4027 139.277 12.2107 138.979 11.912C137.933 10.8027 136.632 10.248 135.075 10.248C133.432 10.248 132.099 10.8027 131.075 11.912C130.051 13 129.539 14.4507 129.539 16.264C129.539 17.416 129.773 18.44 130.243 19.336C130.733 20.232 131.405 20.9467 132.259 21.48C133.112 21.992 134.104 22.248 135.235 22.248C136.685 22.248 137.859 21.8747 138.755 21.128C139.096 20.8507 139.448 20.7013 139.811 20.68C140.173 20.6373 140.493 20.7333 140.771 20.968C141.133 21.2667 141.336 21.608 141.379 21.992C141.421 22.3547 141.293 22.6853 140.995 22.984C139.459 24.4133 137.539 25.128 135.235 25.128ZM153.914 25.128C152.356 25.128 150.959 24.744 149.722 23.976C148.484 23.1867 147.503 22.1307 146.778 20.808C146.074 19.464 145.722 17.9493 145.722 16.264C145.722 14.5787 146.106 13.064 146.874 11.72C147.663 10.376 148.719 9.32 150.042 8.552C151.386 7.76267 152.89 7.368 154.554 7.368C156.218 7.368 157.711 7.76267 159.034 8.552C160.356 9.32 161.402 10.376 162.17 11.72C162.959 13.064 163.354 14.5787 163.354 16.264V23.4C163.354 23.8693 163.194 24.264 162.874 24.584C162.575 24.8827 162.191 25.032 161.722 25.032C161.252 25.032 160.858 24.8827 160.538 24.584C160.239 24.264 160.09 23.8693 160.09 23.4V22.216C159.343 23.112 158.436 23.8267 157.37 24.36C156.324 24.872 155.172 25.128 153.914 25.128ZM154.554 22.248C155.642 22.248 156.612 21.992 157.466 21.48C158.319 20.9467 158.991 20.232 159.482 19.336C159.972 18.4187 160.218 17.3947 160.218 16.264C160.218 15.112 159.972 14.088 159.482 13.192C158.991 12.2747 158.319 11.56 157.466 11.048C156.612 10.5147 155.642 10.248 154.554 10.248C153.487 10.248 152.516 10.5147 151.642 11.048C150.788 11.56 150.106 12.2747 149.594 13.192C149.103 14.088 148.858 15.112 148.858 16.264C148.858 17.3947 149.103 18.4187 149.594 19.336C150.106 20.232 150.788 20.9467 151.642 21.48C152.516 21.992 153.487 22.248 154.554 22.248ZM172.471 25C171.533 25 170.701 24.744 169.975 24.232C169.25 23.72 168.685 23.0267 168.279 22.152C167.874 21.256 167.671 20.232 167.671 19.08V1.608C167.671 1.13867 167.821 0.754666 168.119 0.455999C168.418 0.157333 168.802 0.00799942 169.271 0.00799942C169.741 0.00799942 170.125 0.157333 170.423 0.455999C170.722 0.754666 170.871 1.13867 170.871 1.608V19.08C170.871 19.8693 171.021 20.52 171.319 21.032C171.618 21.544 172.002 21.8 172.471 21.8H173.271C173.698 21.8 174.039 21.9493 174.295 22.248C174.573 22.5467 174.711 22.9307 174.711 23.4C174.711 23.8693 174.509 24.2533 174.103 24.552C173.698 24.8507 173.175 25 172.535 25H172.471ZM178.933 25.512C178.336 25.512 177.813 25.2987 177.365 24.872C176.938 24.424 176.725 23.9013 176.725 23.304C176.725 22.6853 176.938 22.1627 177.365 21.736C177.813 21.288 178.336 21.064 178.933 21.064C179.552 21.064 180.074 21.288 180.501 21.736C180.928 22.1627 181.141 22.6853 181.141 23.304C181.141 23.9013 180.928 24.424 180.501 24.872C180.074 25.2987 179.552 25.512 178.933 25.512Z"/><path fill="#F42272" d="M193.666 25.128C192.002 25.128 190.498 24.744 189.154 23.976C187.831 23.1867 186.775 22.12 185.986 20.776C185.218 19.432 184.834 17.9173 184.834 16.232C184.834 14.5467 185.186 13.0427 185.89 11.72C186.615 10.376 187.597 9.32 188.834 8.552C190.071 7.76267 191.469 7.368 193.026 7.368C194.285 7.368 195.447 7.63467 196.514 8.168C197.581 8.68 198.477 9.384 199.202 10.28V1.64C199.202 1.14933 199.351 0.754666 199.65 0.455999C199.97 0.157333 200.365 0.00799942 200.834 0.00799942C201.325 0.00799942 201.719 0.157333 202.018 0.455999C202.317 0.754666 202.466 1.14933 202.466 1.64V16.232C202.466 17.9173 202.071 19.432 201.282 20.776C200.514 22.12 199.469 23.1867 198.146 23.976C196.823 24.744 195.33 25.128 193.666 25.128ZM193.666 22.248C194.754 22.248 195.725 21.992 196.578 21.48C197.431 20.9467 198.103 20.2213 198.594 19.304C199.085 18.3867 199.33 17.3627 199.33 16.232C199.33 15.08 199.085 14.056 198.594 13.16C198.103 12.264 197.431 11.56 196.578 11.048C195.725 10.5147 194.754 10.248 193.666 10.248C192.599 10.248 191.629 10.5147 190.754 11.048C189.901 11.56 189.218 12.264 188.706 13.16C188.215 14.056 187.97 15.08 187.97 16.232C187.97 17.3627 188.215 18.3867 188.706 19.304C189.218 20.2213 189.901 20.9467 190.754 21.48C191.629 21.992 192.599 22.248 193.666 22.248ZM216.554 25.128C214.783 25.128 213.205 24.7547 211.818 24.008C210.453 23.24 209.375 22.1947 208.586 20.872C207.818 19.528 207.434 17.992 207.434 16.264C207.434 14.5147 207.797 12.9787 208.522 11.656C209.269 10.312 210.293 9.26667 211.594 8.52C212.895 7.752 214.389 7.368 216.074 7.368C217.738 7.368 219.167 7.74133 220.362 8.488C221.557 9.21333 222.463 10.2267 223.082 11.528C223.722 12.808 224.042 14.2907 224.042 15.976C224.042 16.3813 223.903 16.7227 223.626 17C223.349 17.256 222.997 17.384 222.57 17.384H210.41C210.645 18.856 211.317 20.0613 212.426 21C213.557 21.9173 214.933 22.376 216.554 22.376C217.215 22.376 217.887 22.2587 218.57 22.024C219.274 21.768 219.839 21.48 220.266 21.16C220.586 20.9253 220.927 20.808 221.29 20.808C221.674 20.7867 222.005 20.8933 222.282 21.128C222.645 21.448 222.837 21.8 222.858 22.184C222.879 22.568 222.709 22.8987 222.346 23.176C221.621 23.752 220.714 24.2213 219.626 24.584C218.559 24.9467 217.535 25.128 216.554 25.128ZM216.074 10.12C214.495 10.12 213.226 10.5573 212.266 11.432C211.306 12.3067 210.698 13.4373 210.442 14.824H221.098C220.906 13.4587 220.383 12.3387 219.53 11.464C218.677 10.568 217.525 10.12 216.074 10.12ZM233.6 24.968C232.939 24.968 232.427 24.616 232.064 23.912L225.28 9.608C225.109 9.24533 225.088 8.89333 225.216 8.552C225.365 8.18933 225.643 7.912 226.048 7.72C226.411 7.528 226.773 7.496 227.136 7.624C227.52 7.752 227.808 7.99733 228 8.36L233.568 20.36L239.072 8.36C239.264 7.99733 239.552 7.752 239.936 7.624C240.341 7.496 240.747 7.528 241.152 7.72C241.536 7.89067 241.792 8.15733 241.92 8.52C242.048 8.88267 242.027 9.24533 241.856 9.608L235.072 23.912C234.752 24.616 234.261 24.968 233.6 24.968Z"/></svg>