<svg xmlns="http://www.w3.org/2000/svg" width="216" height="92" fill="none" viewBox="0 0 216 92"><rect width="206.044" height="53.137" fill="#FAFAF9" rx="14.353" transform="matrix(-0.996805 0.0798737 0.0798737 0.996805 205.386 0.297455)"/><path fill="#FAFAF9" d="M25.5081 90.1706L26.261 63.0089L54.4352 57C54.4352 57 43.5872 66.7477 38.2444 73.1595C32.9017 79.5713 25.5081 90.1706 25.5081 90.1706Z"/><path fill="#000" d="M40.6861 46.8981C39.6107 47.3348 38.4215 47.3264 37.1183 46.8729C35.8258 46.4185 34.845 45.7334 34.176 44.8176C33.6887 44.1428 33.3575 43.4169 33.1824 42.6399C33.018 41.8619 33.001 41.1781 33.1314 40.5885C33.2716 39.9873 33.5117 39.3667 33.8519 38.7266C34.1921 38.0865 34.6092 37.5307 35.1033 37.0592C35.6487 36.5618 36.2478 36.1882 36.9005 35.9383C37.5638 35.6875 38.2503 35.5793 38.96 35.6136C39.6803 35.6469 40.4178 35.8769 41.1726 36.3034C41.937 36.7183 42.6486 37.3253 43.3074 38.1242C43.4507 38.2937 43.5109 38.4919 43.4879 38.7188C43.464 38.935 43.362 39.1153 43.1818 39.2595C43.0124 39.4028 42.8195 39.4625 42.6032 39.4386C42.387 39.4147 42.2072 39.318 42.0639 39.1485C41.5494 38.5297 41.0106 38.0628 40.4477 37.748C39.8945 37.4217 39.3658 37.2538 38.8618 37.2443C38.3568 37.2243 37.8814 37.298 37.4356 37.4655C37.012 37.6417 36.607 37.9074 36.2205 38.2624C35.6954 38.7474 35.3004 39.3119 35.0356 39.9561C34.7633 40.5153 34.6578 41.1456 34.7191 41.8469C34.7805 42.5482 35.037 43.2164 35.4888 43.8515C35.9636 44.5059 36.6703 44.9955 37.6089 45.3203C38.558 45.6441 39.3846 45.6682 40.0886 45.3924C40.7297 45.1329 41.2276 44.7039 41.5821 44.1054C41.9463 43.4953 42.0934 42.8507 42.0232 42.1716C41.0891 42.264 40.0824 42.3842 39.0032 42.5321C38.7916 42.5614 38.5943 42.509 38.4112 42.3751C38.2388 42.2403 38.1375 42.0618 38.1074 41.8396C38.0773 41.6174 38.1291 41.4147 38.263 41.2317C38.3969 41.0487 38.575 40.9421 38.7972 40.9119C40.1411 40.7301 41.4241 40.5857 42.6461 40.4788C42.8692 40.4593 43.0675 40.5223 43.2408 40.6677C43.4141 40.8132 43.5106 40.9975 43.5301 41.2206L43.5399 41.3322C43.8209 42.464 43.6873 43.5678 43.1389 44.6437C42.6003 45.7081 41.7827 46.4595 40.6861 46.8981ZM46.6876 46.4694C46.475 46.488 46.283 46.4352 46.1116 46.311C45.9392 46.1762 45.8423 45.9866 45.8209 45.7422L45.5045 42.4934C45.4298 41.7611 45.3445 40.8477 45.2487 39.7532L45.1665 38.8128C45.1451 38.5684 45.2027 38.3706 45.3394 38.2195C45.4761 38.0683 45.6507 37.9835 45.8632 37.9649C46.0864 37.9454 46.2841 38.003 46.4565 38.1378C46.6386 38.2611 46.7409 38.4502 46.7632 38.7053L46.805 39.1834C46.8996 38.9182 47.0984 38.6813 47.4013 38.4728C47.8138 38.169 48.2803 37.9943 48.801 37.9488C49.1942 37.9144 49.5026 37.9516 49.7262 38.0606C49.9499 38.1695 50.0762 38.3886 50.105 38.718C50.1236 38.9306 50.0756 39.1168 49.9611 39.2767C49.8457 39.426 49.6658 39.5113 49.4214 39.5327C48.5288 39.6108 47.9232 39.7869 47.6045 40.0611C47.4244 40.2053 47.2679 40.3743 47.1349 40.5679C47.0126 40.7607 46.9589 40.942 46.9737 41.1121L47.1799 43.1017L47.4148 45.6027C47.4362 45.8471 47.3737 46.0507 47.2273 46.2134C47.08 46.3655 46.9001 46.4508 46.6876 46.4694ZM55.2347 45.8019C54.4437 45.8176 53.7444 45.7182 53.1367 45.5036C52.529 45.2891 52.0534 44.9934 51.7099 44.6166C51.3665 44.2398 51.1108 43.8874 50.9429 43.5594C50.775 43.2315 50.6607 42.9042 50.6 42.5776C50.5384 42.2403 50.5162 41.8033 50.5335 41.2664C50.5688 40.8136 50.6843 40.3591 50.88 39.903C51.0863 39.446 51.3711 39.0302 51.7345 38.6558C52.1076 38.2698 52.5679 37.9618 53.1153 37.7319C53.6617 37.4914 54.257 37.3804 54.901 37.399C55.5239 37.4195 56.0647 37.5435 56.5236 37.771C56.9816 37.9879 57.3823 38.2848 57.7258 38.6616C58.0212 38.9784 58.2029 39.2195 58.2709 39.3849C58.3496 39.5493 58.4166 39.7041 58.4722 39.8491C58.5383 39.9932 58.592 40.117 58.6331 40.2205C58.6743 40.324 58.7106 40.4332 58.7421 40.5482C58.7833 40.6517 58.8157 40.7774 58.8393 40.9252C58.8676 41.1262 58.8467 41.3154 58.7766 41.4928C58.7064 41.6703 58.5906 41.8143 58.4289 41.9248C58.2954 41.99 58.149 42.0296 57.9896 42.0435L55.2682 42.3298C53.3564 42.5078 52.4019 42.6127 52.4047 42.6446L52.3569 42.6487C52.5424 43.1786 52.8665 43.5785 53.3292 43.8486C53.8024 44.1177 54.4239 44.2453 55.1936 44.2315C55.6099 44.2165 55.9534 44.165 56.2241 44.0771C56.5248 43.9652 56.7415 43.8712 56.874 43.7954C57.0057 43.7089 57.1673 43.5984 57.359 43.4639C57.5544 43.3718 57.7572 43.3648 57.9675 43.4428C58.1777 43.5207 58.3289 43.6574 58.4209 43.8528C58.513 44.0482 58.5195 44.2457 58.4406 44.4453C58.3724 44.644 58.2472 44.8049 58.0653 44.9279C57.9036 45.0384 57.7357 45.1387 57.5616 45.2289C57.3865 45.3085 57.1278 45.4114 56.7855 45.5377C56.4432 45.6641 55.9263 45.7521 55.2347 45.8019ZM52.2521 41.0839C52.8656 40.9981 54.4621 40.8263 57.0414 40.5685C56.9179 40.2581 56.7373 39.9688 56.4997 39.7004C56.0319 39.2488 55.4813 39.0133 54.8478 38.9937C54.1816 38.9664 53.615 39.1605 53.1481 39.5761C52.6803 39.9811 52.3816 40.4837 52.2521 41.0839ZM65.1478 44.5974C64.7783 44.7796 64.35 44.9027 63.8631 44.9667C63.3868 45.0298 62.9358 45.0157 62.5103 44.9245C62.0837 44.8226 61.699 44.6475 61.3561 44.3991C60.7635 43.9905 60.3578 43.4531 60.1389 42.787C59.92 42.1209 59.8613 41.5104 59.9626 40.9554C60.064 40.4005 60.2411 39.855 60.494 39.3189C60.7566 38.7712 61.0479 38.3067 61.3679 37.9254C61.6976 37.5325 62.0855 37.1934 62.5317 36.9081C62.9778 36.6228 63.4564 36.4631 63.9674 36.4291C64.4774 36.3845 65.0261 36.4757 65.6135 36.7027C65.7022 36.7378 65.7981 36.7936 65.9012 36.8703C66.0149 36.946 66.1117 37.0125 66.1917 37.0697L66.417 37.2588C66.4863 37.317 66.5215 37.3514 66.5224 37.362C66.7054 37.4959 66.8125 37.6793 66.8436 37.9121C67.0375 38.5376 67.1864 39.1991 67.2902 39.8967C67.3941 40.5943 67.4624 41.2522 67.495 41.8704C67.5383 42.4876 67.6061 43.1402 67.6984 43.8281C67.7277 44.0397 67.6749 44.2317 67.54 44.4041C67.4052 44.5765 67.2267 44.6778 67.0045 44.708C66.7823 44.7381 66.585 44.6858 66.4125 44.5509C66.2401 44.4161 66.1393 44.2429 66.1101 44.0313L66.0892 43.7922C65.7992 44.1495 65.4854 44.4179 65.1478 44.5974ZM64.305 43.2256C64.4607 43.1691 64.5845 43.1155 64.6764 43.0646C64.7683 43.0137 64.8796 42.9397 65.0103 42.8427C65.1517 42.7446 65.2964 42.6249 65.4447 42.4834C65.5929 42.342 65.7224 42.17 65.8332 41.9676C65.8526 41.9445 65.8773 41.9209 65.9073 41.8969C65.7818 40.4624 65.5906 39.3173 65.3337 38.4618C65.2981 38.4221 65.2577 38.3881 65.2124 38.36C65.1768 38.3203 65.1475 38.2907 65.1243 38.2713C65.1119 38.251 65.0892 38.2369 65.0564 38.2291C65.0333 38.2097 65.0049 38.1908 64.9711 38.1723C64.4369 37.9406 63.8998 37.9823 63.3599 38.2972C62.819 38.6015 62.3672 39.1282 62.0044 39.8774C61.6426 40.6371 61.4854 41.288 61.5328 41.8299C61.5899 42.3603 61.8357 42.7831 62.2702 43.0984C62.5323 43.279 62.8463 43.38 63.2122 43.4015C63.5781 43.423 63.9424 43.3644 64.305 43.2256ZM72.4087 44.1709C72.3431 44.1552 72.2075 44.135 72.0019 44.1101C71.8069 44.0844 71.6327 44.0514 71.4793 44.0113C71.3365 43.9702 71.1653 43.9103 70.9657 43.8314C70.7757 43.7409 70.5989 43.6172 70.4353 43.4602C70.2707 43.2926 70.1246 43.0912 69.997 42.8561C69.855 42.5794 69.7313 42.0227 69.626 41.1861C69.5374 40.5407 69.4591 39.707 69.3911 38.685C69.3744 38.4938 69.3518 38.1745 69.3234 37.7273L69.1973 37.7544C68.976 37.7952 68.7743 37.7539 68.5922 37.6306C68.4101 37.5074 68.2938 37.3409 68.2433 37.1311C68.2026 36.9099 68.2438 36.7082 68.3671 36.5261C68.4903 36.344 68.6568 36.2277 68.8666 36.1772L69.2304 36.1132C69.1917 35.5491 69.1579 34.9792 69.129 34.4036C69.1201 34.1795 69.1888 33.9861 69.3352 33.8234C69.4816 33.6607 69.6668 33.5749 69.8909 33.566C70.115 33.5571 70.3084 33.6258 70.4711 33.7722C70.6338 33.9186 70.7196 34.1038 70.7285 34.3279L70.8131 35.8463L71.3363 35.7684C71.5586 35.7382 71.7554 35.7853 71.9269 35.9095C72.109 36.0327 72.2151 36.2055 72.2453 36.4277C72.286 36.649 72.2448 36.8507 72.1215 37.0328C71.9973 37.2042 71.8246 37.3104 71.6033 37.3511L70.9048 37.4444C70.9388 37.9554 70.966 38.3277 70.9864 38.5615C71.0526 39.5622 71.129 40.3747 71.2157 40.9988C71.2928 41.6345 71.3567 41.9983 71.4076 42.0902C71.4585 42.1821 71.4964 42.2484 71.5214 42.2891C71.5454 42.3191 71.5858 42.353 71.6427 42.3909C71.7092 42.4172 71.7748 42.4329 71.8395 42.4379C71.9042 42.443 72.0239 42.4646 72.1986 42.5029C72.3829 42.5296 72.5793 42.5713 72.7877 42.628C72.9952 42.6741 73.1556 42.7939 73.2689 42.9874C73.3919 43.1694 73.4255 43.3699 73.3697 43.5889C73.3236 43.7964 73.2042 43.9621 73.0116 44.086C72.8287 44.1984 72.6278 44.2267 72.4087 44.1709ZM81.0228 43.4654C80.8209 43.4831 80.6356 43.4458 80.4669 43.3535C80.2982 43.2612 80.1799 43.1323 80.1119 42.9669C79.9032 42.4177 79.4501 41.3384 78.7525 39.7291C78.1498 38.347 77.6964 37.2035 77.3923 36.2986C77.2859 36.0616 77.3036 35.8352 77.4453 35.6194C77.5968 35.392 77.8159 35.2657 78.1028 35.2406C78.5066 35.2053 78.7802 35.3955 78.9237 35.8113C79.3026 36.8381 79.7461 37.929 80.254 39.0838C80.4571 39.5693 80.5996 39.9744 80.6815 40.2991L80.9505 39.1513L81.1151 38.4624C81.1073 38.4952 81.1921 38.1183 81.3695 37.3319C81.4166 37.135 81.4631 36.9329 81.5092 36.7254C81.5544 36.5073 81.6048 36.2887 81.6606 36.0697C81.7976 35.5545 82.0945 35.2769 82.5514 35.2369C82.7746 35.2174 82.9608 35.2653 83.1101 35.3808C83.27 35.4953 83.4161 35.6966 83.5484 35.9849C84.1706 37.3438 84.7794 38.7949 85.3748 40.3382L85.5999 38.873C85.6515 38.4831 85.7109 38.0603 85.7781 37.6047C85.9125 36.6935 86.0505 35.8837 86.1919 35.1754C86.2274 34.9688 86.3091 34.8011 86.437 34.6721C86.5649 34.5431 86.7139 34.4712 86.8839 34.4563C87.1495 34.4331 87.3656 34.5159 87.532 34.7048C87.6984 34.8937 87.7512 35.13 87.6904 35.4137C87.6816 35.4359 87.6559 35.6309 87.6131 35.9987C87.5418 36.5296 87.4554 37.0725 87.3541 37.6274L87.115 38.9332C86.8432 40.4775 86.6402 41.5231 86.5061 42.0702C86.3253 42.6964 86.0277 43.0276 85.6133 43.0638C85.3901 43.0834 85.1875 43.0315 85.0054 42.9082C84.8233 42.785 84.679 42.6048 84.5726 42.3679L84.2493 41.6092C83.9417 40.908 83.4046 39.6647 82.6381 37.8794L82.4508 38.8595C82.1089 40.5811 81.9057 41.6857 81.8413 42.1732C81.781 42.5854 81.6799 42.8994 81.5382 43.1152C81.3965 43.331 81.2247 43.4478 81.0228 43.4654ZM93.8609 42.2298C92.4881 42.6926 91.3424 42.5091 90.4239 41.6793C89.694 41.0472 89.202 40.1961 88.9478 39.1262C88.7565 38.2864 88.7868 37.47 89.0386 36.677C89.3356 35.6659 89.8781 34.8904 90.666 34.3503C90.8277 34.2398 91.0342 34.1521 91.2855 34.0873C91.2961 34.0864 91.37 34.0746 91.5072 34.0518C91.5594 34.0366 91.601 34.0222 91.632 34.0088C91.7886 33.963 91.9493 33.965 92.1143 34.0148C92.1568 34.0111 92.2582 34.0076 92.4186 34.0042C92.5779 33.9903 92.6847 33.9863 92.7387 33.9923C92.7919 33.9876 92.8831 33.9904 93.0125 34.0005C93.1516 33.999 93.2645 34.0052 93.3514 34.019L93.664 34.1041C93.7952 34.1354 93.9221 34.1779 94.0445 34.2314C94.167 34.2849 94.301 34.3481 94.4466 34.4211C95.1782 34.8282 95.714 35.4452 96.054 36.272C96.3931 37.0882 96.5217 37.7623 96.4397 38.2941C96.3943 38.8763 96.2712 39.4278 96.0705 39.9486C95.8689 40.4587 95.567 40.9242 95.1648 41.3448C94.7732 41.7645 94.3386 42.0595 93.8609 42.2298ZM93.2218 40.6154C93.6732 40.5117 94.0406 40.2439 94.324 39.8123C94.6172 39.369 94.7916 38.9148 94.8472 38.4495C94.9135 37.9833 94.8326 37.4871 94.6046 36.961C94.3862 36.4233 94.0751 36.049 93.6711 35.838C93.5468 35.7633 93.4461 35.7132 93.3689 35.6878C93.2908 35.6518 93.1977 35.6278 93.0896 35.6159C92.9911 35.5924 92.9101 35.5834 92.8463 35.589C92.7932 35.5936 92.6705 35.599 92.4783 35.6051C92.2861 35.6112 92.1152 35.6155 91.9655 35.6179C91.9336 35.6207 91.8959 35.6186 91.8525 35.6117C91.7365 35.6325 91.6732 35.6434 91.6626 35.6444L91.5538 35.686C91.1086 35.9819 90.7831 36.4226 90.5774 37.0081C90.3813 37.5821 90.3624 38.1619 90.5207 38.7477C90.7009 39.46 91.0091 39.9845 91.4454 40.3211C91.9164 40.6868 92.5085 40.7849 93.2218 40.6154ZM99.4392 41.8542C99.2267 41.8728 99.0347 41.82 98.8632 41.6958C98.6908 41.561 98.5939 41.3714 98.5725 41.127L98.2562 37.8782C98.1814 37.1459 98.0961 36.2326 98.0004 35.1381L97.9181 34.1977C97.8967 33.9533 97.9544 33.7555 98.091 33.6043C98.2277 33.4532 98.4023 33.3683 98.6148 33.3497C98.838 33.3302 99.0358 33.3878 99.2082 33.5227C99.3903 33.6459 99.4925 33.8351 99.5148 34.0901L99.5566 34.5683C99.6512 34.303 99.85 34.0661 100.153 33.8576C100.565 33.5538 101.032 33.3792 101.553 33.3336C101.946 33.2992 102.254 33.3365 102.478 33.4454C102.702 33.5543 102.828 33.7735 102.857 34.1029C102.875 34.3154 102.827 34.5016 102.713 34.6615C102.597 34.8108 102.417 34.8962 102.173 34.9176C101.28 34.9956 100.675 35.1718 100.356 35.4459C100.176 35.5902 100.02 35.7591 99.8865 35.9528C99.7642 36.1455 99.7105 36.3269 99.7254 36.4969L99.9315 38.4865L100.166 40.9875C100.188 41.2319 100.125 41.4355 99.9789 41.5982C99.8316 41.7503 99.6517 41.8356 99.4392 41.8542ZM109.783 40.6923C108.442 39.4497 107.386 38.268 106.613 37.147L105.816 37.9396C105.796 37.9627 105.776 37.9805 105.756 37.993C105.807 38.8237 105.849 39.6712 105.882 40.5357C105.891 40.7597 105.817 40.9536 105.66 41.1172C105.514 41.28 105.328 41.3658 105.104 41.3747C104.891 41.3826 104.703 41.3134 104.54 41.167C104.376 41.01 104.291 40.8248 104.283 40.6114C104.186 38.1571 103.958 34.8845 103.6 30.7935C103.581 30.5703 103.639 30.3779 103.775 30.2161C103.92 30.0427 104.104 29.9463 104.327 29.9268C104.551 29.9073 104.744 29.9707 104.906 30.1171C105.079 30.2519 105.175 30.4309 105.194 30.654C105.376 32.7367 105.518 34.4803 105.62 35.8848C107.058 34.4527 108.049 33.4237 108.594 32.7979C108.717 32.6158 108.89 32.5096 109.112 32.4795C109.334 32.4493 109.532 32.5017 109.704 32.6365C109.886 32.7598 109.992 32.9325 110.023 33.1547C110.053 33.3769 110 33.5742 109.865 33.7467C109.38 34.3138 108.68 35.0657 107.766 36.0022C108.506 37.1153 109.541 38.2936 110.87 39.5371C111.033 39.6835 111.119 39.8687 111.127 40.0928C111.135 40.3063 111.061 40.4948 110.904 40.6585C110.757 40.8212 110.572 40.907 110.348 40.9159C110.135 40.9238 109.946 40.8493 109.783 40.6923ZM112.533 43.166C112.342 43.1828 112.182 43.1325 112.054 43.0152C111.926 42.8979 111.853 42.7436 111.837 42.5524C111.826 42.4355 111.838 42.3274 111.873 42.228C111.907 42.1286 111.966 42.011 112.051 41.8752C112.134 41.7286 112.197 41.5946 112.24 41.4731C112.284 41.3622 112.3 41.243 112.289 41.1155C112.275 40.9561 112.213 40.7366 112.103 40.4572C112.019 40.229 111.974 40.0777 111.967 40.0033C111.948 39.7908 112.002 39.6094 112.128 39.4592C112.264 39.2974 112.427 39.2081 112.619 39.1914C113.023 39.1561 113.294 39.3197 113.433 39.6823C113.604 40.1706 113.704 40.5848 113.734 40.9248C113.755 41.1586 113.732 41.3854 113.665 41.6054C113.61 41.8351 113.522 42.1105 113.4 42.4316C113.215 42.8868 112.926 43.1316 112.533 43.166ZM120.131 39.2891C120.121 39.1828 119.947 37.6187 119.608 34.5968C119.382 32.5072 119.265 30.8042 119.257 29.4879C119.259 29.2629 119.333 29.0744 119.481 28.9223C119.639 28.7693 119.83 28.6883 120.054 28.6794C120.161 28.6807 120.265 28.7038 120.365 28.7486C121.586 28.3848 122.702 28.2282 123.713 28.279C125.487 28.37 126.694 29.0675 127.333 30.3714C127.591 31.002 127.712 31.5268 127.695 31.9458C127.688 32.3533 127.598 32.7306 127.425 33.0777C127.262 33.4132 127.035 33.6954 126.744 33.9243C126.464 34.1522 126.176 34.3434 125.879 34.4979C125.581 34.6417 125.259 34.7608 124.914 34.8553C123.85 35.1733 122.647 35.316 121.306 35.2834C121.538 37.319 121.677 38.6077 121.725 39.1496C121.744 39.3728 121.681 39.571 121.536 39.7444C121.4 39.9061 121.22 39.9968 120.997 40.0163C120.774 40.0358 120.576 39.9782 120.404 39.8434C120.241 39.697 120.15 39.5122 120.131 39.2891ZM121.136 33.7082C121.199 33.692 121.267 33.6807 121.342 33.6742C122.512 33.711 123.551 33.5933 124.459 33.3211C125.534 33.0022 126.081 32.5261 126.101 31.8926C126.109 31.742 126.037 31.4699 125.885 31.0763C125.531 30.3364 124.784 29.9359 123.643 29.8751C122.827 29.8395 121.906 29.9682 120.883 30.2612C120.911 31.2009 120.996 32.3499 121.136 33.7082ZM133.382 38.7722C132.009 39.2349 130.863 39.0514 129.945 38.2217C129.215 37.5895 128.723 36.7385 128.469 35.6686C128.277 34.8287 128.308 34.0123 128.56 33.2194C128.857 32.2083 129.399 31.4327 130.187 30.8927C130.349 30.7822 130.555 30.6945 130.806 30.6297C130.817 30.6287 130.891 30.6169 131.028 30.5942C131.08 30.5789 131.122 30.5646 131.153 30.5512C131.309 30.5054 131.47 30.5074 131.635 30.5572C131.678 30.5534 131.779 30.5499 131.939 30.5466C132.099 30.5327 132.206 30.5287 132.26 30.5347C132.313 30.53 132.404 30.5327 132.533 30.5428C132.672 30.5414 132.785 30.5475 132.872 30.5614L133.185 30.6464C133.316 30.6778 133.443 30.7202 133.565 30.7738C133.688 30.8273 133.822 30.8905 133.968 30.9634C134.699 31.3706 135.235 31.9875 135.575 32.8144C135.914 33.6306 136.043 34.3046 135.961 34.8365C135.915 35.4186 135.792 35.9701 135.591 36.4909C135.39 37.0011 135.088 37.4665 134.686 37.8872C134.294 38.3069 133.86 38.6019 133.382 38.7722ZM132.743 37.1578C133.194 37.054 133.561 36.7863 133.845 36.3546C134.138 35.9114 134.312 35.4571 134.368 34.9918C134.434 34.5256 134.354 34.0295 134.125 33.5033C133.907 32.9657 133.596 32.5913 133.192 32.3804C133.068 32.3056 132.967 32.2556 132.89 32.2302C132.812 32.1942 132.719 32.1702 132.61 32.1583C132.512 32.1347 132.431 32.1258 132.367 32.1314C132.314 32.136 132.191 32.1414 131.999 32.1475C131.807 32.1536 131.636 32.1578 131.486 32.1602C131.454 32.163 131.417 32.161 131.373 32.1541C131.257 32.1749 131.194 32.1858 131.184 32.1867L131.075 32.2284C130.63 32.5243 130.304 32.965 130.098 33.5505C129.902 34.1244 129.883 34.7043 130.042 35.2901C130.222 36.0024 130.53 36.5269 130.966 36.8635C131.437 37.2291 132.029 37.3272 132.743 37.1578ZM139.821 38.3213C139.022 38.2519 138.426 37.9829 138.032 37.5142C137.842 37.3059 137.694 37.019 137.587 36.6536L137.493 36.3086C137.462 36.2041 137.433 36.121 137.406 36.0591C137.325 35.8628 137.329 35.6643 137.419 35.4638C137.508 35.2632 137.657 35.1271 137.865 35.0553C138.073 34.9836 138.276 34.9872 138.476 35.0661C138.676 35.145 138.817 35.2879 138.899 35.4949C138.941 35.609 138.985 35.739 139.029 35.885C139.045 35.9372 139.055 35.9899 139.059 36.043C139.074 36.0846 139.102 36.1624 139.144 36.2765C139.188 36.4118 139.273 36.5222 139.398 36.6076C139.536 36.7134 139.733 36.771 139.991 36.7806C140.424 36.8284 140.88 36.7778 141.359 36.6288C141.828 36.4807 142.186 36.2941 142.434 36.0689C142.611 35.8822 142.675 35.6999 142.628 35.522C142.57 35.2273 142.364 35.0204 142.011 34.9014C141.79 34.8243 141.226 34.7452 140.32 34.6639C139.38 34.5641 138.706 34.3875 138.298 34.1341C137.551 33.6747 137.255 32.919 137.409 31.8669C137.506 31.2588 137.771 30.7967 138.203 30.4804C138.646 30.1526 139.147 29.9481 139.708 29.867C140.184 29.8039 140.672 29.82 141.173 29.9154C141.684 29.9992 142.125 30.1427 142.496 30.3458C142.62 30.4206 142.751 30.5108 142.889 30.6166C143.027 30.7223 143.16 30.8391 143.289 30.967C143.429 31.094 143.51 31.1619 143.532 31.1706C143.705 31.3161 143.801 31.4951 143.82 31.7076C143.837 31.9095 143.773 32.0971 143.628 32.2704C143.492 32.4322 143.313 32.5229 143.09 32.5424C142.877 32.561 142.685 32.5029 142.512 32.3681C142.398 32.2817 142.282 32.1901 142.167 32.0931L141.92 31.8417C141.852 31.7941 141.773 31.7475 141.683 31.7018C141.47 31.5919 141.2 31.5085 140.874 31.4513C140.547 31.3836 140.23 31.3685 139.923 31.4061C139.362 31.4873 139.055 31.7122 139.002 32.0809C138.94 32.4718 138.993 32.7187 139.163 32.8217C139.366 32.9431 139.809 33.0436 140.49 33.1232C141.493 33.2067 142.183 33.3124 142.558 33.4402C143.464 33.7571 144.013 34.3461 144.206 35.2072C144.364 35.9108 144.152 36.5504 143.571 37.1259C143.127 37.5609 142.545 37.8849 141.825 38.0978C141.138 38.3185 140.47 38.393 139.821 38.3213ZM148.649 37.5008C148.583 37.4851 148.448 37.4648 148.242 37.44C148.047 37.4142 147.873 37.3813 147.719 37.3412C147.577 37.3001 147.405 37.2401 147.206 37.1612C147.016 37.0708 146.839 36.9471 146.675 36.7901C146.511 36.6224 146.365 36.4211 146.237 36.186C146.095 35.9093 145.971 35.3526 145.866 34.5159C145.777 33.8705 145.699 33.0368 145.631 32.0149C145.614 31.8236 145.592 31.5044 145.563 31.0571L145.437 31.0842C145.216 31.125 145.014 31.0838 144.832 30.9605C144.65 30.8372 144.534 30.6707 144.483 30.461C144.443 30.2397 144.484 30.038 144.607 29.8559C144.73 29.6738 144.897 29.5575 145.107 29.5071L145.47 29.4431C145.432 28.879 145.398 28.3091 145.369 27.7334C145.36 27.5094 145.429 27.316 145.575 27.1533C145.722 26.9905 145.907 26.9047 146.131 26.8958C146.355 26.887 146.548 26.9557 146.711 27.1021C146.874 27.2484 146.96 27.4337 146.968 27.6577L147.053 29.1761L147.576 29.0982C147.799 29.0681 147.995 29.1151 148.167 29.2393C148.349 29.3626 148.455 29.5353 148.485 29.7575C148.526 29.9788 148.485 30.1805 148.362 30.3626C148.237 30.5341 148.065 30.6402 147.843 30.681L147.145 30.7742C147.179 31.2852 147.206 31.6576 147.226 31.8914C147.293 32.8921 147.369 33.7045 147.456 34.3287C147.533 34.9644 147.597 35.3282 147.648 35.4201C147.698 35.512 147.736 35.5783 147.761 35.6189C147.785 35.649 147.826 35.6829 147.883 35.7207C147.949 35.747 148.015 35.7627 148.08 35.7678C148.144 35.7728 148.264 35.7945 148.439 35.8327C148.623 35.8594 148.819 35.9011 149.028 35.9579C149.235 36.0039 149.396 36.1238 149.509 36.3173C149.632 36.4993 149.665 36.6998 149.61 36.9188C149.564 37.1263 149.444 37.292 149.252 37.4159C149.069 37.5283 148.868 37.5565 148.649 37.5008ZM152.914 36.3888C152.934 36.6119 152.87 36.8048 152.724 36.9675C152.578 37.1303 152.393 37.2214 152.17 37.2409C151.947 37.2604 151.754 37.197 151.591 37.0506C151.428 36.9042 151.337 36.7195 151.318 36.4963C151.253 35.5169 151.1 33.9509 150.858 31.7985C150.616 29.6354 150.461 27.9251 150.393 26.6675C150.386 26.454 150.455 26.2659 150.601 26.1032C150.747 25.9299 150.926 25.8392 151.139 25.8313C151.364 25.8224 151.557 25.8911 151.72 26.0375C151.893 26.1829 151.984 26.3677 151.993 26.5918C152.061 27.7316 152.178 29.0758 152.346 30.6244C154.846 30.32 156.681 30.1219 157.851 30.0303C157.714 28.5861 157.625 27.2661 157.585 26.0704C157.576 25.8464 157.645 25.6583 157.792 25.5062C157.949 25.3426 158.14 25.2563 158.364 25.2474C158.588 25.2385 158.777 25.313 158.93 25.4709C159.092 25.6173 159.178 25.8025 159.187 26.0266C159.243 27.2745 159.303 28.3346 159.369 29.2069C159.461 30.2589 159.575 31.4427 159.712 32.7585C159.858 34.0627 159.961 35.0602 160.022 35.7509C160.041 35.974 159.978 36.1723 159.833 36.3456C159.697 36.5074 159.518 36.598 159.295 36.6176C159.071 36.6371 158.874 36.5794 158.701 36.4446C158.539 36.2982 158.447 36.1135 158.428 35.8903C158.395 35.5184 158.255 34.0959 158.006 31.6228C156.858 31.7126 155.028 31.9102 152.517 32.2155C152.717 34.0076 152.849 35.3987 152.914 36.3888ZM166.879 35.8416C165.506 36.3043 164.36 36.1208 163.442 35.291C162.712 34.6589 162.22 33.8079 161.966 32.738C161.774 31.8981 161.805 31.0817 162.057 30.2887C162.354 29.2777 162.896 28.5021 163.684 27.9621C163.846 27.8515 164.052 27.7639 164.303 27.6991C164.314 27.6981 164.388 27.6863 164.525 27.6636C164.577 27.6483 164.619 27.634 164.65 27.6206C164.807 27.5747 164.967 27.5767 165.132 27.6266C165.175 27.6228 165.276 27.6193 165.437 27.616C165.596 27.602 165.703 27.5981 165.757 27.604C165.81 27.5994 165.901 27.6021 166.03 27.6122C166.17 27.6108 166.282 27.6169 166.369 27.6307L166.682 27.7158C166.813 27.7472 166.94 27.7896 167.062 27.8431C167.185 27.8967 167.319 27.9599 167.465 28.0328C168.196 28.4399 168.732 29.0569 169.072 29.8838C169.411 30.7 169.54 31.374 169.458 31.9058C169.412 32.488 169.289 33.0395 169.088 33.5603C168.887 34.0705 168.585 34.5359 168.183 34.9566C167.791 35.3763 167.357 35.6713 166.879 35.8416ZM166.24 34.2271C166.691 34.1234 167.059 33.8557 167.342 33.424C167.635 32.9808 167.81 32.5265 167.865 32.0612C167.931 31.595 167.851 31.0988 167.623 30.5727C167.404 30.035 167.093 29.6607 166.689 29.4498C166.565 29.375 166.464 29.3249 166.387 29.2996C166.309 29.2636 166.216 29.2396 166.108 29.2276C166.009 29.2041 165.928 29.1952 165.864 29.2007C165.811 29.2054 165.688 29.2108 165.496 29.2169C165.304 29.223 165.133 29.2272 164.983 29.2296C164.952 29.2324 164.914 29.2304 164.87 29.2234C164.754 29.2443 164.691 29.2552 164.681 29.2561L164.572 29.2978C164.127 29.5937 163.801 30.0344 163.595 30.6199C163.399 31.1938 163.38 31.7737 163.539 32.3594C163.719 33.0718 164.027 33.5963 164.463 33.9328C164.934 34.2985 165.526 34.3966 166.24 34.2271ZM175.516 38.4909C174.905 38.5979 174.304 38.5809 173.713 38.4398C173.133 38.2978 172.636 38.004 172.223 37.5584C172.069 37.3898 171.932 37.1769 171.813 36.9196C171.705 36.6614 171.695 36.4267 171.784 36.2155C171.873 36.0149 172.016 35.8739 172.213 35.7925C172.42 35.7102 172.623 35.7138 172.824 35.8033C173.035 35.8919 173.181 36.0343 173.263 36.2307C173.292 36.3138 173.328 36.4231 173.372 36.5584C173.417 36.7044 173.546 36.8376 173.76 36.9581C174.253 37.0863 174.786 37.1146 175.358 37.0432C175.876 36.9764 176.265 36.8299 176.524 36.6039C176.783 36.3884 176.939 36.1499 176.991 35.8884C177.066 35.5178 177.101 34.9366 177.096 34.1447C176.729 34.605 176.14 34.9135 175.33 35.0701C174.631 35.1634 173.99 35.123 173.408 34.9492C172.835 34.7637 172.365 34.4729 171.998 34.0767C171.642 33.6795 171.367 33.2271 171.173 32.7195C170.98 32.233 170.872 31.6108 170.849 30.8526C170.832 29.6763 171.206 28.6959 171.973 27.9114C172.833 27.0974 173.926 26.7394 175.252 26.8376C175.744 26.9551 176.138 27.1134 176.434 27.3124C176.407 26.8864 176.586 26.6084 176.971 26.4784C177.224 26.4348 177.431 26.4756 177.592 26.6007C177.764 26.7249 177.874 26.8919 177.925 27.1016C178.155 28.3878 178.363 29.965 178.548 31.8333C178.651 32.895 178.697 33.7851 178.685 34.5035C178.693 35.5736 178.512 36.3871 178.144 36.944C177.776 37.5116 177.391 37.8825 176.988 38.0569C176.587 38.242 176.096 38.3866 175.516 38.4909ZM175.076 33.4541C175.47 33.4303 175.769 33.356 175.972 33.2312C176.571 32.986 176.883 32.4501 176.907 31.6235C176.905 30.9919 176.826 30.3939 176.67 29.8294C176.564 29.4746 176.319 29.1802 175.934 28.9461C175.707 28.7947 175.426 28.7068 175.092 28.6825C174.229 28.6081 173.587 28.7928 173.165 29.2366C172.76 29.6254 172.555 30.1626 172.551 30.8482C172.576 31.7455 172.812 32.4261 173.26 32.8902C173.717 33.3428 174.322 33.5307 175.076 33.4541ZM180.415 31.3006C180.322 30.602 180.235 29.8601 180.156 29.0747C180.087 28.2883 180.014 27.3953 179.937 26.3955C179.87 25.3842 179.815 24.6341 179.773 24.1453C179.753 23.9222 179.811 23.7297 179.947 23.5679C180.092 23.3946 180.277 23.2981 180.5 23.2786C180.723 23.2591 180.916 23.3225 181.079 23.4689C181.251 23.6037 181.347 23.7827 181.367 24.0059C181.41 24.5053 181.465 25.25 181.53 26.2401C181.605 27.2187 181.676 28.0958 181.744 28.8715C181.823 29.6462 181.909 30.3882 182.003 31.0974C182.032 31.309 181.98 31.5063 181.846 31.6893C181.711 31.8617 181.533 31.963 181.311 31.9931C181.099 32.0224 180.902 31.97 180.719 31.8361C180.546 31.7013 180.445 31.5228 180.415 31.3006ZM181.813 33.3304C181.985 33.4653 182.081 33.6442 182.101 33.8674C182.12 34.0905 182.057 34.2888 181.912 34.4621C181.776 34.6239 181.597 34.7145 181.374 34.7341C181.151 34.7536 180.953 34.6959 180.78 34.5611C180.618 34.4147 180.527 34.23 180.507 34.0068C180.487 33.7837 180.546 33.5912 180.681 33.4294C180.827 33.2561 181.011 33.1597 181.234 33.1402C181.457 33.1206 181.65 33.1841 181.813 33.3304Z"/></svg>