<svg fill="none" viewBox="0 0 25 24"><g clip-path="url(#clip0)"><path fill="#8E859A" d="M20.808 20.108h-3.531v-5.476c0-1.306-.024-2.987-1.837-2.987-1.84 0-2.12 1.423-2.12 2.892v5.57H9.787V8.848h3.39v1.539h.047c.34-.575.83-1.047 1.42-1.368a3.745 3.745 0 011.925-.451c3.58 0 4.24 2.33 4.24 5.364l-.002 6.177zM5.803 7.308c-.405 0-.802-.12-1.139-.342-.337-.223-.6-.54-.755-.911a2.01 2.01 0 01.444-2.211 2.068 2.068 0 012.233-.44c.375.153.695.413.92.746a2.015 2.015 0 01-.254 2.563 2.05 2.05 0 01-1.45.594zm1.766 12.8H4.033V8.847H7.57v11.261zm15-20.106H2.26a1.749 1.749 0 00-1.235.49A1.709 1.709 0 00.5 1.702v20.194c.005.457.194.893.524 1.212.33.32.774.496 1.235.491h20.31a1.75 1.75 0 001.239-.49c.33-.319.52-.755.527-1.213V1.701A1.718 1.718 0 0023.808.49 1.752 1.752 0 0022.569 0"/></g><defs><clipPath id="clip0"><path fill="#fff" d="M0 0h24v24H0z" transform="translate(.5)"/></clipPath></defs></svg>