<svg fill="none" viewBox="0 0 25 24"><g clip-path="url(#clip0)"><path fill="#8E859A" d="M7.997 21.61c8.997 0 13.917-7.447 13.917-13.906 0-.211-.004-.422-.014-.632a9.943 9.943 0 002.44-2.53 9.76 9.76 0 01-2.809.77 4.905 4.905 0 002.151-2.704 9.814 9.814 0 01-3.106 1.186 4.887 4.887 0 00-3.57-1.544 4.89 4.89 0 00-4.765 6.001A13.892 13.892 0 012.16 3.145 4.872 4.872 0 001.497 5.6c0 1.696.863 3.193 2.176 4.069a4.858 4.858 0 01-2.215-.612v.063a4.89 4.89 0 003.924 4.79 4.9 4.9 0 01-2.21.085 4.896 4.896 0 004.57 3.394 9.817 9.817 0 01-6.075 2.092A9.93 9.93 0 01.5 19.414a13.853 13.853 0 007.498 2.196"/></g><defs><clipPath id="clip0"><path fill="#fff" d="M0 0h24v24H0z" transform="translate(.5)"/></clipPath></defs></svg>