<svg width="142" height="32" viewBox="0 0 142 32" fill="none" xmlns="http://www.w3.org/2000/svg">
<path d="M77.2451 18.5515V25.0098C77.2444 25.3384 77.1133 25.6533 76.8807 25.8854C76.648 26.1175 76.3328 26.2478 76.0042 26.2478H75.9224C75.5938 26.2478 75.2786 26.1175 75.046 25.8854C74.8133 25.6533 74.6823 25.3384 74.6815 25.0098V19.4596C74.6815 16.6393 73.6211 15.2123 71.5257 15.2123C68.5588 15.2123 67.4533 17.8492 67.4533 19.5103V25.0098C67.4525 25.3379 67.3219 25.6524 67.0898 25.8844C66.8578 26.1164 66.5433 26.2471 66.2152 26.2478H66.1334C65.8048 26.2478 65.4896 26.1175 65.257 25.8854C65.0243 25.6533 64.8933 25.3384 64.8925 25.0098V14.2732C64.885 13.9441 65.0086 13.6255 65.236 13.3875C65.4635 13.1495 65.7761 13.0115 66.1052 13.0041C66.4343 12.9966 66.7529 13.1202 66.9909 13.3476C67.2289 13.575 67.3668 13.8877 67.3743 14.2168L67.3997 14.7808C67.4 14.7971 67.4053 14.8128 67.4149 14.8259C67.4245 14.8391 67.4379 14.8489 67.4533 14.8541C67.4686 14.8603 67.4854 14.8618 67.5015 14.8582C67.5176 14.8547 67.5322 14.8464 67.5435 14.8344C68.1568 14.1916 68.8923 13.6778 69.7069 13.3233C70.5216 12.9688 71.3988 12.7807 72.2872 12.77C75.4373 12.7784 77.2451 14.8823 77.2451 18.5515ZM58.7388 18.7009L57.873 18.371C55.9637 17.6518 55.0076 17.2908 55.0076 16.3968C55.0076 15.5028 56.0455 14.9867 57.0495 14.9867C57.684 14.9867 58.5301 15.2151 58.9926 15.8553C59.137 16.0653 59.3423 16.226 59.5808 16.3158C59.8193 16.4055 60.0796 16.42 60.3266 16.3573C60.5278 16.3019 60.7115 16.196 60.8604 16.0498C61.0093 15.9035 61.1184 15.7217 61.1774 15.5215C61.2364 15.3213 61.2434 15.1094 61.1976 14.9057C61.1519 14.7021 61.055 14.5135 60.916 14.3578C60.0389 13.3538 58.6091 12.7785 56.9931 12.7785C54.7961 12.7785 52.4638 14.0476 52.4638 16.394C52.4638 18.6502 54.4577 19.6147 56.1893 20.1985L57.0354 20.5172C59.1167 21.2843 60.0671 21.6452 60.0671 22.7733C60.0671 23.6589 59.0857 24.2568 57.622 24.2568C56.3021 24.2568 55.3094 23.8084 54.8215 22.9961C54.7089 22.8096 54.5494 22.6557 54.3589 22.5499C54.1685 22.444 53.9536 22.3898 53.7357 22.3926H53.5834C53.3746 22.3963 53.1703 22.4548 52.9912 22.5622C52.812 22.6696 52.6642 22.8221 52.5625 23.0046C52.4612 23.1794 52.4079 23.3779 52.4079 23.5799C52.4079 23.782 52.4612 23.9804 52.5625 24.1552C53.4424 25.6641 55.2191 26.5101 57.5825 26.5101C60.6086 26.5101 62.642 25.038 62.642 22.8438C62.642 20.9712 61.4377 19.6965 58.7388 18.7009V18.7009ZM140.807 13.5935C140.695 13.4203 140.542 13.2779 140.36 13.1794C140.179 13.0809 139.976 13.0293 139.77 13.0295H139.724C139.484 13.0314 139.249 13.1033 139.049 13.2366C138.848 13.3698 138.691 13.5585 138.596 13.7796L134.789 22.5928C134.779 22.616 134.763 22.6357 134.742 22.6493C134.72 22.6629 134.696 22.6698 134.671 22.669V22.669C134.645 22.6694 134.621 22.6624 134.6 22.6488C134.579 22.6353 134.562 22.6158 134.552 22.5928L130.708 13.7768C130.612 13.5569 130.455 13.3696 130.254 13.2375C130.054 13.1053 129.82 13.0341 129.58 13.0323H129.535C129.33 13.0345 129.129 13.0874 128.949 13.1862C128.769 13.285 128.617 13.4266 128.505 13.5986C128.394 13.7705 128.326 13.9674 128.309 14.1717C128.292 14.376 128.325 14.5814 128.407 14.7695L133.263 25.9122C133.28 25.9505 133.289 25.9918 133.289 26.0335C133.289 26.0753 133.28 26.1166 133.263 26.1548L131.918 29.3501C131.836 29.5379 131.803 29.7431 131.82 29.9471C131.837 30.1512 131.904 30.3479 132.016 30.5195C132.128 30.6911 132.28 30.8322 132.46 30.9304C132.64 31.0285 132.841 31.0805 133.046 31.0817H133.066C133.306 31.0793 133.54 31.0075 133.74 30.8749C133.941 30.7423 134.098 30.5545 134.194 30.3344L140.903 14.7667C140.986 14.5785 141.02 14.3728 141.003 14.168C140.987 13.9632 140.919 13.7658 140.807 13.5935V13.5935ZM93.7265 14.2732V25.0098C93.7177 25.3314 93.5851 25.6372 93.3564 25.8635C93.1277 26.0899 92.8205 26.2192 92.4988 26.2247C92.1771 26.2301 91.8657 26.1112 91.6294 25.8928C91.3932 25.6744 91.2503 25.3732 91.2306 25.0521L91.1996 24.1806C91.1988 24.1583 91.191 24.1368 91.1773 24.1191C91.1637 24.1014 91.1448 24.0884 91.1234 24.0819C91.1017 24.076 91.0788 24.0769 91.0576 24.0845C91.0364 24.092 91.018 24.1059 91.005 24.1242C90.4463 24.8748 89.7178 25.4824 88.879 25.8971C88.0403 26.3118 87.1152 26.5219 86.1796 26.5101C82.4315 26.5101 79.4957 23.4868 79.4957 19.6231C79.4957 15.7594 82.4315 12.7869 86.1796 12.7869C87.1147 12.7745 88.0395 12.9837 88.8782 13.3974C89.7169 13.8112 90.4457 14.4176 91.005 15.1672C91.0175 15.186 91.036 15.2001 91.0574 15.2073C91.0789 15.2144 91.1021 15.2142 91.1234 15.2067C91.1455 15.2015 91.1652 15.1888 91.1791 15.1709C91.1929 15.1529 91.2002 15.1307 91.1996 15.108L91.2306 14.2393C91.2503 13.9182 91.3932 13.617 91.6294 13.3986C91.8657 13.1802 92.1771 13.0613 92.4988 13.0667C92.8205 13.0722 93.1277 13.2015 93.3564 13.4279C93.5851 13.6542 93.7177 13.96 93.7265 14.2816V14.2732ZM90.9345 19.6147C90.9372 19.0347 90.8242 18.46 90.6023 17.9241C90.3804 17.3883 90.0539 16.902 89.642 16.4937C89.23 16.0854 88.7409 15.7633 88.203 15.5462C87.6652 15.3291 87.0895 15.2214 86.5096 15.2292C85.8811 15.2291 85.2597 15.3614 84.6858 15.6175C84.112 15.8735 83.5985 16.2477 83.1789 16.7155C82.7645 17.1716 82.4524 17.711 82.2637 18.2977C82.075 18.8843 82.0139 19.5045 82.0846 20.1167C82.2222 21.2611 82.7941 22.3089 83.6821 23.0437C84.5702 23.7785 85.7065 24.1441 86.8564 24.065C87.976 23.9844 89.0223 23.4785 89.7806 22.6509C90.5389 21.8234 90.9518 20.737 90.9345 19.6147V19.6147ZM127.177 19.6147C127.191 23.4784 124.23 26.5101 120.468 26.5101C119.533 26.5284 118.607 26.3221 117.768 25.9084C116.93 25.4947 116.203 24.8857 115.648 24.1327C115.639 24.1192 115.626 24.1089 115.611 24.1033C115.596 24.0977 115.579 24.0972 115.564 24.1017C115.547 24.1065 115.533 24.1166 115.523 24.1303C115.512 24.1441 115.507 24.1607 115.507 24.1778V29.8521C115.506 30.1802 115.376 30.4947 115.144 30.7267C114.912 30.9588 114.597 31.0894 114.269 31.0902H114.184C113.856 31.0894 113.542 30.9588 113.31 30.7267C113.078 30.4947 112.947 30.1802 112.946 29.8521V14.2732C112.953 13.9533 113.083 13.6483 113.309 13.422C113.535 13.1956 113.84 13.0654 114.16 13.0585C114.48 13.0516 114.79 13.1685 115.026 13.3848C115.262 13.6012 115.405 13.9003 115.425 14.2196L115.468 15.1841C115.468 15.2001 115.473 15.2156 115.483 15.2284C115.492 15.2411 115.506 15.2503 115.521 15.2546C115.536 15.2592 115.552 15.2589 115.567 15.2539C115.581 15.2488 115.594 15.2392 115.603 15.2264C116.152 14.4523 116.883 13.8244 117.731 13.3977C118.579 12.971 119.519 12.7584 120.468 12.7785C124.23 12.7785 127.191 15.7933 127.191 19.6147H127.177ZM120.141 15.2292C119.55 15.2143 118.962 15.3178 118.412 15.5335C117.862 15.7493 117.361 16.0729 116.938 16.4854C116.515 16.8979 116.179 17.3909 115.949 17.9354C115.72 18.4798 115.601 19.0647 115.601 19.6556C115.601 20.2464 115.72 20.8313 115.949 21.3758C116.179 21.9202 116.515 22.4132 116.938 22.8257C117.361 23.2382 117.862 23.5619 118.412 23.7776C118.962 23.9934 119.55 24.0968 120.141 24.0819C120.731 24.0968 121.319 23.9934 121.869 23.7776C122.419 23.5619 122.921 23.2382 123.344 22.8257C123.767 22.4132 124.103 21.9202 124.332 21.3758C124.562 20.8313 124.68 20.2464 124.68 19.6556C124.68 19.0647 124.562 18.4798 124.332 17.9354C124.103 17.3909 123.767 16.8979 123.344 16.4854C122.921 16.0729 122.419 15.7493 121.869 15.5335C121.319 15.3178 120.731 15.2143 120.141 15.2292V15.2292ZM110.535 19.6288C110.535 23.4925 107.588 26.5158 103.826 26.5158C102.891 26.5341 101.966 26.3277 101.128 25.914C100.289 25.5003 99.5627 24.8913 99.0088 24.1383C98.9999 24.1237 98.9864 24.1125 98.9704 24.1065C98.9544 24.1006 98.9368 24.1001 98.9205 24.1053C98.9042 24.1106 98.8902 24.1211 98.8806 24.1353C98.8711 24.1494 98.8665 24.1664 98.8678 24.1834V29.8577C98.867 30.1864 98.736 30.5013 98.5033 30.7334C98.2707 30.9655 97.9555 31.0958 97.6269 31.0958H97.5451C97.2165 31.0958 96.9013 30.9655 96.6686 30.7334C96.436 30.5013 96.3049 30.1864 96.3042 29.8577V14.2732C96.3109 13.9533 96.4409 13.6483 96.6671 13.422C96.8932 13.1956 97.1981 13.0654 97.518 13.0585C97.8379 13.0516 98.1481 13.1685 98.3839 13.3848C98.6196 13.6012 98.7627 13.9003 98.7832 14.2196L98.8255 15.1841C98.8261 15.2003 98.832 15.2159 98.8421 15.2286C98.8523 15.2413 98.8662 15.2504 98.8819 15.2546C98.8968 15.2588 98.9126 15.2583 98.9272 15.2533C98.9418 15.2482 98.9545 15.2389 98.9637 15.2264C99.5129 14.4527 100.243 13.8251 101.091 13.3984C101.938 12.9717 102.877 12.7589 103.826 12.7785C107.585 12.7785 110.532 15.7933 110.532 19.6147L110.535 19.6288ZM103.501 15.2292C102.347 15.2584 101.249 15.7375 100.443 16.5644C99.6367 17.3914 99.1854 18.5006 99.1854 19.6556C99.1854 20.8105 99.6367 21.9198 100.443 22.7467C101.249 23.5736 102.347 24.0528 103.501 24.0819C104.092 24.0968 104.68 23.9934 105.23 23.7776C105.78 23.5619 106.281 23.2382 106.704 22.8257C107.127 22.4132 107.464 21.9202 107.693 21.3758C107.923 20.8313 108.041 20.2464 108.041 19.6556C108.041 19.0647 107.923 18.4798 107.693 17.9354C107.464 17.3909 107.127 16.8979 106.704 16.4854C106.281 16.0729 105.78 15.7493 105.23 15.5335C104.68 15.3178 104.092 15.2143 103.501 15.2292Z" fill="#012754"/>
<path d="M47.2322 17.4375C46.7218 14.5439 43.8254 12.5838 40.5793 12.7925C40.3316 12.8099 40.0833 12.7678 39.8552 12.6697C39.627 12.5716 39.4257 12.4203 39.2679 12.2285C37.1774 9.67512 34.4689 7.69855 31.3995 6.48652H31.5151C28.5172 4.63081 27.1043 1.21834 25.6096 1.21834C24.1149 1.21834 25.5842 4.2529 24.4279 4.2529C23.2716 4.2529 22.1266 0 20.2765 0C18.4265 0 20.0537 4.51236 19.0215 4.51236C17.9893 4.51236 17.6114 3.13609 16.0377 3.13609C14.9322 3.13609 15.2424 4.85361 15.5188 5.86607C15.5725 6.05851 15.5564 6.26376 15.4733 6.44545C15.3902 6.62715 15.2455 6.77357 15.0648 6.85879C12.3404 8.14199 9.55403 10.3869 8.05649 12.2172C7.9009 12.4122 7.70096 12.5672 7.47333 12.6692C7.2457 12.7712 6.99699 12.8174 6.74791 12.8038C3.49337 12.5754 0.588533 14.5383 0.0780716 17.4375C-0.31394 19.657 0.80005 21.8398 2.75165 23.1484C2.97259 23.2958 3.15142 23.498 3.27058 23.7353C3.38974 23.9727 3.44513 24.2369 3.43132 24.5021C3.40876 24.9195 3.39748 25.3482 3.39748 25.7656C3.45388 26.7386 4.98809 26.7442 4.98809 25.7656C4.98809 23.1992 7.56859 8.77654 23.658 8.77654C39.7474 8.77654 42.3222 23.1992 42.3222 25.7656C42.3222 26.7414 43.8339 26.7414 43.9128 25.7656C43.9128 25.3369 43.9016 24.9139 43.879 24.4965C43.8662 24.2322 43.9221 23.9691 44.0412 23.7329C44.1603 23.4966 44.3386 23.2953 44.5587 23.1484C46.5046 21.8398 47.6214 19.657 47.2294 17.4375H47.2322ZM4.01793 20.4748C3.99715 20.5637 3.95293 20.6454 3.88988 20.7113C3.82682 20.7773 3.74724 20.8251 3.65941 20.8499C3.57158 20.8747 3.47871 20.8754 3.39049 20.8521C3.30226 20.8288 3.2219 20.7823 3.15776 20.7174C2.77865 20.3433 2.4932 19.8849 2.32462 19.3797C2.15604 18.8744 2.10909 18.3365 2.1876 17.8097C2.43578 16.3996 3.65976 15.3477 5.21652 15.0233C5.31134 15.0022 5.41021 15.0086 5.50152 15.0418C5.59283 15.0749 5.67279 15.1334 5.73202 15.2104C5.79124 15.2874 5.82727 15.3797 5.83587 15.4764C5.84447 15.5732 5.82528 15.6704 5.78057 15.7566C5.0057 17.2529 4.41389 18.837 4.01793 20.4748V20.4748ZM43.3009 20.4748C42.9151 18.8458 42.3367 17.2685 41.5777 15.7763C41.5325 15.6903 41.513 15.5931 41.5215 15.4963C41.5299 15.3995 41.566 15.3071 41.6254 15.2302C41.6848 15.1533 41.765 15.095 41.8566 15.0624C41.9481 15.0297 42.0471 15.024 42.1417 15.0459C43.6816 15.3787 44.8858 16.4222 45.134 17.8238C45.2112 18.3449 45.1658 18.8767 45.0013 19.3771C44.8368 19.8775 44.5578 20.3326 44.1864 20.7061C44.1235 20.7748 44.043 20.825 43.9536 20.8513C43.8642 20.8775 43.7694 20.8788 43.6793 20.855C43.5893 20.8311 43.5074 20.7831 43.4427 20.7161C43.378 20.6491 43.3328 20.5657 43.3121 20.4748H43.3009ZM34.5046 18.5571C35.424 18.5571 36.1713 19.5188 36.1713 20.6976C36.1713 21.8765 35.424 22.841 34.5046 22.841C33.5852 22.841 32.8378 21.8793 32.8378 20.6976C32.8378 19.516 33.5852 18.5571 34.5046 18.5571ZM12.8058 18.5571C13.7251 18.5571 14.4725 19.5188 14.4725 20.6976C14.4725 21.8765 13.7251 22.8438 12.8058 22.8438C11.8864 22.8438 11.139 21.8821 11.139 20.7005C11.139 19.5188 11.8864 18.5599 12.8058 18.5599V18.5571ZM31.1711 26.6652C31.3412 26.6763 31.5007 26.7517 31.6173 26.8761C31.7339 27.0005 31.7988 27.1646 31.7988 27.335C31.7988 27.5055 31.7339 27.6696 31.6173 27.794C31.5007 27.9184 31.3412 27.9938 31.1711 28.0048V28.0048C30.8089 27.9933 30.4524 27.9109 30.1219 27.7623C29.7271 28.0754 27.4399 29.7562 23.6664 29.7562C19.9578 29.7562 17.6847 28.1346 17.2335 27.782C16.9157 27.9188 16.5753 27.9953 16.2295 28.0077C16.0594 27.9966 15.8998 27.9212 15.7832 27.7968C15.6667 27.6724 15.6018 27.5083 15.6018 27.3379C15.6018 27.1674 15.6667 27.0033 15.7832 26.8789C15.8998 26.7545 16.0594 26.6791 16.2295 26.6681C16.4747 26.6416 16.7115 26.5636 16.9244 26.4392C17.1373 26.3148 17.3214 26.1467 17.4648 25.9461C17.5027 25.8599 17.5583 25.7827 17.6281 25.7195C17.6979 25.6564 17.7803 25.6087 17.8698 25.5795C17.9593 25.5504 18.054 25.5405 18.1476 25.5505C18.2412 25.5605 18.3316 25.5902 18.413 25.6375C18.4943 25.6849 18.5647 25.7489 18.6196 25.8254C18.6745 25.9019 18.7126 25.9891 18.7315 26.0813C18.7503 26.1735 18.7495 26.2687 18.729 26.3606C18.7085 26.4525 18.6688 26.539 18.6126 26.6145C18.5633 26.6987 18.5087 26.7797 18.449 26.857C20.0113 27.8214 21.8166 28.3194 23.6523 28.2925C25.5054 28.3201 27.3269 27.8118 28.898 26.8288C28.8468 26.7612 28.7997 26.6906 28.7569 26.6173C28.6679 26.4632 28.6438 26.2801 28.6898 26.1082C28.7358 25.9363 28.8482 25.7897 29.0023 25.7007C29.1564 25.6117 29.3395 25.5876 29.5114 25.6336C29.6833 25.6796 29.8299 25.792 29.9189 25.9461C30.0634 26.1496 30.25 26.3197 30.4661 26.4448C30.6821 26.5699 30.9226 26.647 31.1711 26.6709" fill="#012754"/>
</svg>
