<svg fill="none" xmlns="http://www.w3.org/2000/svg" viewBox="0 0 50 50"><path d="M41.5 7.5c-3.86 0-7 3.14-7 7s3.14 7 7 7 7-3.14 7-7-3.14-7-7-7Z" fill="#F54E00"/><path d="M41.5 23.5c.34 0 .67-.02 1-.06V36.5c0 1.654-1.346 3-3 3h-32c-1.654 0-3-1.346-3-3v-20c0-1.654 1.346-3 3-3h25.06c-.04.33-.06.66-.06 1 0 2.125.74 4.074 1.97 5.615l-8.849 8.85a3.005 3.005 0 0 1-4.244 0l-11.172-11.17a1 1 0 1 0-1.414 1.414l11.17 11.17a4.984 4.984 0 0 0 3.535 1.46c1.28 0 2.56-.484 3.535-1.46l8.85-8.85A8.987 8.987 0 0 0 41.5 23.5Z" fill="#000"/></svg>