<svg fill="none" xmlns="http://www.w3.org/2000/svg" viewBox="0 0 105 32"><path d="M42.51 17.9h-2.036c-.32 0-.56-.28-.56-.56v-6.438c0-.32-.279-.56-.559-.56h-1.757c-.32 0-.559.28-.559.56v16.276c0 .32.28.56.56.56h1.757c.319 0 .559-.28.559-.56v-6.319c0-.32.28-.56.559-.56h2.037c.32 0 .559.28.559.56v6.358c0 .32.28.56.559.56h1.757c.32 0 .56-.28.56-.56V10.902c0-.32-.28-.56-.56-.56H43.63c-.32 0-.56.28-.56.56V17.3c0 .32-.239.6-.558.6ZM51.536 10.822l-2.875 16.276c-.04.32.2.64.519.64h1.757c.28 0 .52-.2.52-.48l.479-2.96c.04-.28.28-.48.519-.48h2.236c.28 0 .52.2.52.48l.519 3c.04.28.28.48.519.48h1.837c.36 0 .64-.32.52-.68L55.61 10.822c-.04-.28-.28-.48-.52-.48h-2.995c-.28 0-.479.2-.559.48Zm2.676 10.557h-1.158c-.36 0-.56-.32-.52-.64l.52-5.998c.12-.64.998-.64 1.078 0l.56 5.998c.08.32-.16.64-.48.64ZM66.514 17.66h-1.957c-.36 0-.56-.16-.56-.56v-3.759c0-.36.2-.56.56-.56h1.158c.36 0 .56.16.56.56v1.76c0 .32.279.56.558.56h1.837c.32 0 .56-.28.56-.56v-2.2c0-1.72-.92-2.599-2.756-2.599h-2.636c-1.837 0-2.756.88-2.756 2.6v4.478c0 1.72.919 2.64 2.716 2.64h1.957c.36 0 .559.16.559.56v4.158c0 .36-.16.56-.56.56h-1.157c-.36 0-.56-.16-.56-.56v-1.76c0-.32-.28-.56-.559-.56h-1.837c-.32 0-.559.28-.559.56v2.2c0 1.72.919 2.599 2.756 2.599h2.596c1.837 0 2.756-.88 2.756-2.6V20.34c.04-1.8-.919-2.68-2.676-2.68ZM77.424 24.738c0 .36-.16.56-.559.56h-1.557c-.36 0-.56-.16-.56-.56V10.902c0-.32-.28-.56-.559-.56h-1.837c-.32 0-.559.28-.559.56v14.196c0 1.72.919 2.6 2.756 2.6h2.995c1.837 0 2.756-.88 2.756-2.6V10.902c0-.32-.28-.56-.56-.56h-1.717c-.32 0-.559.28-.559.56l-.04 13.836ZM91.882 18.26v-5.319c0-1.719-.919-2.599-2.756-2.599h-5.192c-.32 0-.559.28-.559.56v16.276c0 .32.28.56.56.56h1.756c.32 0 .56-.28.56-.56v-5.719c0-.32.28-.56.559-.56.2 0 .4.16.519.36l2.276 6.118c.12.2.32.36.52.36h1.917c.36 0 .679-.36.519-.72l-2.197-5.678c-.12-.28.04-.56.32-.72.719-.4 1.198-1.24 1.198-2.359Zm-2.916-4.919v4.56c0 .359-.2.559-.559.559H86.81c-.32 0-.56-.28-.56-.56v-4.559c0-.32.28-.56.56-.56h1.597c.36 0 .56.2.56.56ZM101.418 10.342h-2.995c-.28 0-.52.2-.52.48l-2.875 16.276c-.04.32.2.64.519.64h1.757c.28 0 .52-.2.52-.48l.479-2.96c.04-.28.28-.48.519-.48h2.237c.279 0 .519.2.519.48l.519 3c.04.28.28.48.519.48h1.837c.36 0 .639-.32.52-.68l-2.996-16.276c-.08-.28-.279-.48-.559-.48Zm-.919 11.037h-1.078c-.36 0-.56-.32-.52-.64l.52-5.478c.12-.64.999-.64 1.078 0l.56 5.478c.039.32-.2.64-.56.64ZM25.813 10.422c.879-2.12.879-6.438-.28-9.757-.319-.6-1.198-.4-1.238.24v.24c-.2 3.159-1.358 4.878-3.075 5.718-.28.12-.719.12-.998-.08a13.15 13.15 0 0 0-7.03-2.04c-2.596 0-4.992.76-7.029 2.04-.28.16-.599.2-.878.08-1.758-.64-2.956-2.56-3.156-5.758v-.24C2.09.225 1.171.025.891.625-.267 3.984-.227 8.303.611 10.422c.44 1.04.44 2.24.08 3.32C.213 15.1-.026 16.62.014 18.14c.16 6.958 6.07 12.876 13.02 12.996 7.348.08 13.34-5.838 13.34-13.196 0-1.48-.24-2.88-.68-4.199-.36-1.08-.32-2.28.12-3.319Zm-12.78 17.555c-5.352-.12-9.745-4.479-9.825-9.837C3.088 12.42 7.72 7.783 13.392 7.903c5.352.08 9.745 4.479 9.825 9.837.12 5.678-4.513 10.317-10.184 10.237Z" fill="#000"/><path d="m14.752 16.86-2.357-3.639c-.359-.6-1.158-.76-1.757-.4-.36.24-.599.64-.599 1.08 0 .24.08.48.2.68l1.597 2.48c.12.2.08.44-.04.6L9.32 20.378c-.48.52-.44 1.32.08 1.8.24.2.56.32.879.32.36 0 .679-.16.918-.4l1.838-2.16c.16-.16.399-.16.519.04l1.318 1.88c.08.16.2.28.36.36.439.32.998.32 1.437.04.36-.24.599-.64.599-1.08 0-.24-.08-.48-.2-.68l-2.316-3.639Z" fill="#000"/></svg>