<svg fill="none" xmlns="http://www.w3.org/2000/svg" viewBox="0 0 138 33"><g clip-path="url(#a)"><path d="M46.464 15.594v-4.741h2.573c1.629 0 2.62.91 2.62 2.383 0 1.424-.991 2.36-2.62 2.36h-2.573v-.002Zm2.975 2.781c3.304 0 5.5-2.15 5.5-5.163 0-2.99-2.196-5.163-5.5-5.163h-6.255v16.563h3.257v-6.237h2.998Zm10.8-.514c.072-1.262.85-2.243 2.172-2.243 1.51 0 2.149 1.004 2.149 2.29v6.704h3.138V17.37c0-2.523-1.369-4.555-4.319-4.555-1.11 0-2.384.374-3.139 1.261V7.698H57.1v16.914h3.14v-6.751Zm9.938 3.621c0 1.8 1.51 3.458 3.989 3.458 1.723 0 2.832-.795 3.422-1.705 0 .444.048 1.074.119 1.378h2.879a12.717 12.717 0 0 1-.141-1.822v-5.654c0-2.312-1.37-4.369-5.052-4.369-3.115 0-4.791 1.987-4.98 3.786l2.785.583c.094-1.004.85-1.869 2.219-1.869 1.321 0 1.958.678 1.958 1.496 0 .397-.212.724-.873.817l-2.856.421c-1.935.28-3.47 1.425-3.47 3.481Zm4.65 1.145c-1.015 0-1.511-.654-1.511-1.331 0-.888.637-1.332 1.44-1.449l2.62-.397v.514c0 2.033-1.228 2.663-2.55 2.663Zm11.92-4.626c0-1.331.803-2.382 2.172-2.382 1.511 0 2.148 1.004 2.148 2.289v6.704h3.14v-7.241c0-2.523-1.322-4.556-4.202-4.556-1.25 0-2.643.538-3.351 1.729v-1.425h-3.046v11.494h3.14V18Zm14.517-8.316H98.43v1.612c0 1.028-.565 1.822-1.792 1.822h-.59v2.756h2.1v5.35c0 2.22 1.416 3.552 3.682 3.552.921 0 1.487-.164 1.77-.281v-2.57c-.165.047-.59.094-.967.094-.898 0-1.369-.328-1.369-1.332v-4.813h2.336V13.12h-2.336V9.685Zm10.104 12.452c-1.534 0-2.95-1.121-2.95-3.27 0-2.174 1.416-3.271 2.95-3.271 1.534 0 2.95 1.097 2.95 3.27s-1.416 3.27-2.95 3.27Zm0-9.368c-3.469 0-6.09 2.546-6.09 6.097 0 3.528 2.621 6.097 6.09 6.097 3.47 0 6.09-2.569 6.09-6.097 0-3.551-2.62-6.098-6.09-6.098v.001Zm11.707 11.843v-6.728c0-1.26.802-2.265 2.171-2.265 1.417 0 2.054.934 2.054 2.172v6.821h3.116v-6.728c0-1.238.802-2.265 2.148-2.265 1.44 0 2.053.934 2.053 2.172v6.821h3.045V17.16c0-3.083-2.054-4.368-4.202-4.368-1.534 0-2.761.513-3.682 1.915-.59-1.238-1.864-1.915-3.446-1.915-1.274 0-2.76.607-3.398 1.729v-1.402h-2.999v11.493h3.14ZM15.959 31.857c8.814 0 15.96-7.072 15.96-15.796 0-8.723-7.145-15.795-15.96-15.795C7.145.266 0 7.336 0 16.06c0 8.724 7.144 15.796 15.96 15.796Z" fill="#000"/><path d="M27.384 16.254H24.57c0-5.674-4.663-10.275-10.417-10.275-5.683 0-10.303 4.488-10.417 10.065-.117 5.765 5.368 10.771 11.214 10.771h.736c5.154 0 12.063-3.979 13.142-8.827.2-.894-.516-1.734-1.444-1.734Zm-17.412.253c0 .758-.63 1.379-1.4 1.379-.37 0-.724-.146-.986-.404a1.38 1.38 0 0 1-.412-.975v-2.232c0-.76.63-1.38 1.399-1.38.77 0 1.398.62 1.398 1.38v2.232h.001Zm4.857 0c0 .758-.63 1.379-1.399 1.379-.37 0-.725-.146-.987-.404a1.38 1.38 0 0 1-.412-.975v-2.232c0-.76.63-1.38 1.4-1.38.769 0 1.398.62 1.398 1.38v2.232Z" fill="url(#b)"/></g><defs><linearGradient id="b" x1="16.298" y1="5.979" x2="16.298" y2="26.815" gradientUnits="userSpaceOnUse"><stop stop-color="#fff"/><stop offset="1" stop-color="#fff" stop-opacity=".82"/></linearGradient><clipPath id="a"><path fill="#fff" transform="translate(0 .266)" d="M0 0h138v32H0z"/></clipPath></defs></svg>