<svg fill="none" xmlns="http://www.w3.org/2000/svg" viewBox="0 0 130 20"><g clip-path="url(#a)" fill="#000"><path d="M19.577 3.178c-.004-.038-.012-.075-.018-.11a3.644 3.644 0 0 0-.049-.255 3.065 3.065 0 0 0-.112-.363l-.035-.094a3.022 3.022 0 0 0-.143-.3c-.003-.007-.006-.015-.01-.02a3.216 3.216 0 0 0-.436-.61l-.032-.033a3.378 3.378 0 0 0-.238-.232l-.035-.03a3.075 3.075 0 0 0-.29-.222l-.008-.007L18.166.9a3.496 3.496 0 0 0-.27-.164l-.016-.01a3.744 3.744 0 0 0-.257-.124l-.043-.02a2.809 2.809 0 0 0-.256-.093l-.03-.011-.031-.012a3.185 3.185 0 0 0-.25-.062C17 .399 16.985.394 16.969.39l-.034-.01c-.09-.018-.183-.03-.276-.041a.09.09 0 0 0-.016-.002c-.016-.002-.032-.006-.048-.007a3.541 3.541 0 0 0-.35-.019h-.585c.002.243 0 .495 0 .749-.018 4.864-.223 11.499 2.509 16.576.125.233.252.461.39.687.043-.04.083-.084.124-.126.028-.029.058-.057.085-.086l.024-.026c.047-.052.089-.107.133-.164.013-.019.028-.032.04-.05l.033-.043c.02-.027.039-.059.057-.087.028-.04.056-.082.082-.125l.04-.062.016-.03c.032-.058.062-.115.09-.174.016-.029.031-.058.044-.088.029-.062.052-.13.077-.193.014-.037.03-.074.042-.11.021-.06.035-.125.052-.187.011-.044.024-.086.034-.13.007-.03.01-.062.016-.096l.017-.11c.007-.04.015-.08.02-.12.006-.054.006-.108.009-.163.001-.041.006-.082.006-.123l.002-.05V3.55c0-.126-.009-.25-.024-.372ZM.776 14.037c-.258-.018-.51-.04-.776-.054v1.999c0 .12.007.236.02.352.005.036.013.073.018.11.012.077.024.155.042.231l.033.124c.019.069.039.14.061.205.015.042.032.083.048.124a3.047 3.047 0 0 0 .442.778c.022.03.044.06.069.09.053.062.108.124.165.183.02.02.04.045.061.064.078.077.16.15.246.22l.01.008.005.005c.036.028.073.052.108.077.262.192.553.346.864.458l.105.037c.05.017.101.03.152.043.05.016.103.027.154.039a4.384 4.384 0 0 0 .33.056l.106.014c.105.01.21.015.316.015h12.887c-.473-.245-.953-.496-1.438-.746-3.792-1.965-8.053-4.012-14.028-4.432ZM13.638 1.06c.202-.245.405-.492.609-.749H3.358c-.116 0-.231.006-.343.018L3.009.33c-.105.01-.207.026-.31.045l-.093.022a3.607 3.607 0 0 0-.212.052c-.035.01-.07.023-.104.033-.065.021-.13.044-.193.069l-.102.041a3.993 3.993 0 0 0-.276.133c-.062.035-.123.07-.182.108-.026.017-.054.032-.08.05a4.128 4.128 0 0 0-.193.139l-.05.038c-.16.127-.306.268-.438.423-.015.016-.027.032-.04.049-.05.059-.098.122-.144.185l-.053.077a3.5 3.5 0 0 0-.11.174l-.05.092a2.448 2.448 0 0 0-.132.276 2.402 2.402 0 0 0-.069.182 3.44 3.44 0 0 0-.09.306l-.023.091A3.141 3.141 0 0 0 0 3.55V11.77c.248-.082.508-.178.776-.284 3.13-1.23 7.586-4.047 12.862-10.426ZM22.578 2.492h2.366l4.43 11.835h.043l4.601-11.835h2.237L30.31 17.04h-1.917L22.578 2.492ZM37.64 2.492h9.736v1.85h-7.69v4.335h7.157v1.85h-7.158v4.664h8.074v1.849H37.641V2.492ZM49.805 2.492h2.685l8.308 11.959h.042V2.492h2.046V17.04h-2.599L51.892 5.08h-.043v11.96h-2.044V2.492ZM65.568 2.492h5.262c1.065 0 2 .116 2.804.348.8.234 1.497.545 2.085.936.59.39 1.08.839 1.47 1.345.39.507.698 1.028.923 1.563.23.534.394 1.07.495 1.602.097.535.147 1.028.147 1.48 0 .932-.179 1.835-.53 2.703a6.812 6.812 0 0 1-1.58 2.322c-.694.678-1.558 1.224-2.59 1.633-1.028.412-2.217.617-3.567.617h-4.92V2.492h.001Zm2.047 12.7h2.575c.866 0 1.685-.113 2.46-.34a6.01 6.01 0 0 0 2.033-1.016 4.885 4.885 0 0 0 1.386-1.694c.342-.678.512-1.47.512-2.375 0-.465-.078-1.01-.235-1.633a4.809 4.809 0 0 0-.883-1.776c-.432-.562-1.034-1.04-1.8-1.43-.765-.391-1.761-.586-2.981-.586h-3.066v10.85h-.001ZM87.233 2.64l-.076-.18h-1.799l-.08.177-6.339 14.01-.185.412H80.836l.08-.179 1.563-3.542h7.287l1.502 3.539.076.18h2.181l-.18-.405L87.233 2.64Zm-3.965 8.924 2.921-6.626 2.834 6.626h-5.754ZM102.324 9.715a9.294 9.294 0 0 0-1.867-.686 15.285 15.285 0 0 1-1.77-.561 3.676 3.676 0 0 1-1.28-.822c-.31-.317-.471-.791-.471-1.41 0-.4.08-.746.231-1.032.157-.29.369-.535.625-.725.264-.195.579-.344.938-.446.366-.104.76-.157 1.164-.157.575 0 1.078.106 1.493.314.41.207.779.527 1.091.948l.18.24.246-.171 1.168-.812.255-.175-.186-.239c-.522-.672-1.158-1.163-1.881-1.451a6.244 6.244 0 0 0-2.32-.428c-.641 0-1.267.088-1.854.26a5.014 5.014 0 0 0-1.587.781c-.465.35-.837.79-1.107 1.306-.277.521-.416 1.122-.416 1.787 0 .698.117 1.3.347 1.784.23.483.543.895.928 1.218.38.316.81.574 1.283.769.448.19.922.36 1.403.505.479.15.939.297 1.37.435.421.14.803.306 1.139.5.316.178.566.412.752.688.181.265.27.62.27 1.049 0 .374-.077.714-.226 1.009a2.371 2.371 0 0 1-.621.764 2.945 2.945 0 0 1-.939.5c-.361.12-.757.183-1.173.183-.67 0-1.274-.138-1.793-.402-.514-.262-.94-.671-1.263-1.214l-.163-.27-.27.173-1.293.833-.262.168.186.249c.602.807 1.344 1.39 2.198 1.73.841.337 1.772.507 2.765.507.617 0 1.221-.093 1.796-.27a4.646 4.646 0 0 0 1.548-.815c.448-.364.81-.811 1.073-1.334.267-.526.401-1.133.401-1.81 0-.93-.207-1.677-.612-2.22a4.219 4.219 0 0 0-1.496-1.25ZM117.043 4.234V2.46H105.152v1.774h4.965v12.824h1.963V4.233H117.043ZM129.823 16.652 123.708 2.64l-.077-.18h-1.797l-.079.177-6.34 14.01-.185.412H117.312l.078-.179 1.564-3.542h7.286l1.502 3.539.077.18H130l-.177-.405Zm-10.077-5.088 2.92-6.626 2.832 6.626h-5.752Z"/></g><defs><clipPath id="a"><path fill="#fff" transform="translate(0 .266)" d="M0 0h130v19H0z"/></clipPath></defs></svg>