<svg fill="none" xmlns="http://www.w3.org/2000/svg" viewBox="0 0 149 30"><path fill-rule="evenodd" clip-rule="evenodd" d="M30 0H0v30h30V0ZM8.803 7.3l5.199 9.7.005 6.301h2v-6.2L21.204 7.3h-2.2l-3 6.1-.005.007c-.198.298-.396.595-.496.893-.057.23-.147.394-.233.55-.063.114-.124.223-.166.35-.05-.05-.075-.124-.1-.2a.503.503 0 0 0-.1-.199c-.05-.1-.076-.175-.1-.25-.026-.075-.05-.15-.1-.25v-.1l-.101-.101a1.925 1.925 0 0 1-.082-.191c-.033-.085-.057-.147-.118-.209-.1-.1-.2-.2-.2-.3l-3-6.1h-2.4Z" fill="#000"/><path d="M45.103 6.688c1.528 0 2.855.408 3.876 1.226L47.96 9.14c-.918-.612-1.835-1.02-2.956-1.02-1.735 0-3.06.919-3.774 2.654-.408 1.02-.612 2.347-.612 4.082 0 1.327.202 2.449.51 3.265.817 1.938 2.144 2.856 4.183 2.856 1.122 0 2.143-.306 3.06-1.02l1.02 1.327c-1.326.816-2.74 1.226-4.283 1.226-1.836 0-3.366-.714-4.59-2.245-1.227-1.442-1.736-3.366-1.736-5.71 0-2.346.612-4.183 1.836-5.712C41.74 7.516 43.271 6.7 45.107 6.7l-.004-.012Zm5.815 10.1c0-1.836.408-3.265 1.327-4.283.918-1.019 2.04-1.633 3.468-1.633 1.633 0 2.957.612 3.877 1.938.714 1.02 1.02 2.45 1.02 4.183 0 2.04-.612 3.673-1.735 4.693a4.515 4.515 0 0 1-3.06 1.122c-1.53 0-2.654-.51-3.572-1.633-.919-1.02-1.327-2.55-1.327-4.387h.002Zm7.142-2.956c-.51-.92-1.226-1.443-2.347-1.443-1.12 0-1.836.409-2.346 1.226-.408.612-.51 1.633-.51 2.957 0 1.735.201 2.957.713 3.673.512.717 1.226 1.122 2.244 1.122 1.226 0 2.041-.611 2.45-1.735.201-.611.305-1.442.305-2.449.1-1.528-.101-2.653-.51-3.366v.015Zm5.812.201c0-1.122-.1-2.04-.408-2.74l1.735-.408c.306.51.408 1.122.408 1.633v.1c.408-.408.816-.816 1.442-1.121.714-.409 1.327-.612 1.939-.612.918 0 1.735.408 2.244 1.122.1.202.306.51.408.714 1.226-1.226 2.347-1.836 3.571-1.836.816 0 1.529.306 2.04.816.511.612.817 1.327.817 2.144v8.466h-1.863v-8.366c0-1.122-.51-1.632-1.442-1.632-.511 0-1.123.202-1.633.611-.202.202-.612.511-1.122.92l-.202.201v8.264h-1.938v-7.97c0-.714-.102-1.226-.306-1.442-.306-.306-.612-.408-1.122-.408-.817 0-1.735.51-2.856 1.529v8.365h-1.71l-.002-8.35ZM81.218 6.28l1.836-.408c.202.816.306 1.735.306 2.855v3.775c1.02-1.02 2.143-1.529 3.265-1.529 1.327 0 2.449.51 3.163 1.529.816 1.02 1.226 2.449 1.226 4.182 0 1.836-.408 3.266-1.226 4.388-.818 1.122-1.939 1.632-3.265 1.632a3.606 3.606 0 0 1-1.736-.408c-.611-.306-1.02-.611-1.326-1.02l-.306 1.226H81.42c.202-.51.306-1.442.306-2.855V8.93c-.101-1.226-.202-2.143-.51-2.654l.002.003Zm2.957 6.923c-.306.202-.612.51-.817.816v5.844c.714.919 1.633 1.327 2.74 1.327.92 0 1.633-.306 2.041-1.02.51-.816.817-1.938.817-3.57 0-1.443-.202-2.45-.714-3.061-.408-.612-1.122-.919-2.144-.919-.611-.1-1.326.101-1.938.612l.015-.03Zm9.49-5.48c0-.409.1-.715.408-1.02.307-.306.611-.409 1.02-.409.407 0 .713.101 1.02.409.305.307.407.611.407 1.02 0 .407-.1.713-.408 1.019-.307.306-.611.408-1.02.408-.408 0-.713-.1-1.02-.408-.305-.307-.407-.612-.407-1.02Zm.424 14.678v-11.22l1.836-.306v11.53l-1.836-.004Zm5.8-8.367c0-.817 0-1.327-.1-1.53 0-.305-.203-.61-.409-1.121l1.735-.51c.279.534.42 1.13.408 1.734 1.122-1.122 2.347-1.735 3.571-1.735.612 0 1.122.101 1.633.408.511.308.919.714 1.122 1.226.202.408.306.816.306 1.327v8.57h-1.735v-7.651c0-.919-.101-1.529-.408-1.836a1.693 1.693 0 0 0-1.225-.51c-.408 0-1.019.201-1.632.51a5.95 5.95 0 0 0-1.531 1.122v8.365h-1.735v-8.37Zm12.346-.409-.919-1.226c1.529-1.02 3.061-1.528 4.693-1.528 1.633 0 2.654.611 3.163 1.735.202.408.202 1.02.202 1.938v.612l-.101 3.673v.51c0 .612 0 1.02.101 1.327.101.409.408.714.816.92l-.918 1.225c-.817-.306-1.327-.816-1.529-1.633-1.02 1.02-2.143 1.53-3.265 1.53-1.122 0-2.041-.307-2.741-.92-.611-.51-.918-1.326-.918-2.346a3.326 3.326 0 0 1 1.53-2.958c1.02-.714 2.55-1.02 4.387-1.02h.817v-.816c0-.919-.101-1.529-.409-1.735a1.917 1.917 0 0 0-1.528-.612c-.612 0-1.327.202-2.144.51l-1.226.817-.011-.003Zm5.408 6.02.101-2.956h-.918c-1.633 0-2.654.305-3.266.918-.408.409-.611 1.02-.611 1.836 0 1.327.611 2.041 1.938 2.041a3.247 3.247 0 0 0 2.741-1.836l.015-.003Zm7.549-8.469h2.856l-.511 1.443h-2.346v7.244c0 .612.101 1.02.305 1.327.202.202.612.408 1.122.408.409 0 .817-.1 1.123-.202l.201 1.122c-.611.306-1.225.408-1.938.408-1.735 0-2.55-.816-2.55-2.55v-7.753h-1.53v-1.442h1.442v-.202c0-.202.101-1.02.202-2.347v-.307l1.836-.408c-.202 1.226-.202 2.347-.202 3.265l-.01-.006Zm4.693 5.61c0-1.835.408-3.265 1.327-4.283.816-1.02 2.041-1.632 3.469-1.632 1.632 0 2.956.611 3.876 1.938.714 1.02 1.02 2.449 1.02 4.183 0 2.04-.611 3.673-1.735 4.693a4.514 4.514 0 0 1-3.06 1.122c-1.529 0-2.654-.51-3.571-1.633-.817-1.02-1.327-2.55-1.327-4.387h.001Zm7.245-2.956c-.511-.919-1.226-1.442-2.347-1.442s-1.836.408-2.346 1.226c-.409.611-.511 1.632-.511 2.956 0 1.735.202 2.957.714 3.674.512.717 1.226 1.122 2.244 1.122 1.226 0 2.041-.612 2.449-1.735.202-.612.306-1.442.306-2.45 0-1.528-.202-2.653-.511-3.365l.002.014Zm5.812-.003c0-1.02-.101-1.836-.408-2.449l1.735-.51a3.61 3.61 0 0 1 .408 1.735v.202c.919-1.226 1.938-1.836 3.163-1.836.202 0 .408 0 .611.1l-.714 1.94c-.202-.102-.408-.102-.51-.102-.408 0-.919.101-1.327.408-.408.308-.816.612-1.02 1.02a3.806 3.806 0 0 0-.203 1.224v7.039h-1.735v-8.77Z" fill="#000"/></svg>