<svg fill="none" viewBox="0 0 35 30"><g filter="url(#filter0_d)"><path fill="#47E1A1" d="M29.765 0H26.4v1.116h-1.116V2.24H24.16v1.117h-1.116V4.48H21.92v1.116h-1.116V6.72h-1.126v1.115h-1.115V8.96H17.44v1.125h-1.124V11.2H15.2v1.124h-1.124v1.116H12.96v1.124h-1.124V13.44H10.72v-1.116H9.596V11.2H8.48v-1.115H7.356V8.96H4v5.604h1.116v1.116H6.24v1.123h1.115v1.117h1.126v1.124h1.115v1.116h1.124v1.124h3.355V20.16H15.2v-1.116h1.116V17.92h1.124v-1.117h1.124V15.68h1.115v-1.116h1.126V13.44h1.116v-1.116h1.123V11.2h1.116v-1.115h1.124V8.96H26.4V7.835h1.125V6.72h1.115V5.596h1.125V4.48h1.115V0h-1.115z"/></g><defs><filter id="filter0_d" width="34.88" height="29.284" x="0" y="0" color-interpolation-filters="sRGB" filterUnits="userSpaceOnUse"><feFlood flood-opacity="0" result="BackgroundImageFix"/><feColorMatrix in="SourceAlpha" values="0 0 0 0 0 0 0 0 0 0 0 0 0 0 0 0 0 0 127 0"/><feOffset dy="4"/><feGaussianBlur stdDeviation="2"/><feColorMatrix values="0 0 0 0 0.278431 0 0 0 0 0.882353 0 0 0 0 0.631373 0 0 0 0.15 0"/><feBlend in2="BackgroundImageFix" result="effect1_dropShadow"/><feBlend in="SourceGraphic" in2="effect1_dropShadow" result="shape"/></filter></defs></svg>