<svg width="1440" height="1498" fill="none" xmlns="http://www.w3.org/2000/svg"><g clip-path="url(#a)"><g opacity=".2" fill="#fff"><path d="m934.182 185.819 2.323 1.382-1.341 2.394-2.323-1.382zM566.526 624.207l-2.323-1.382 1.341-2.394 2.323 1.382zM165 205.982l-2.323-1.382 1.341-2.394 2.323 1.382zM1335.71 604.044l2.323 1.382-1.341 2.394-2.323-1.382zM282.644 822.165l2.323 1.382-1.341 2.394-2.323-1.382zM709.115 27.998l2.323 1.382-1.341 2.394-2.323-1.382zM791.591 782.028l-2.323-1.382 1.341-2.394 2.323 1.382zM390.066 363.803l-2.323-1.382 1.341-2.394 2.323 1.382zM1110.64 446.222l2.323 1.382-1.341 2.394-2.323-1.382zM855.81 312.158l-2.323-1.382 1.341-2.394 2.323 1.382zM644.898 497.868l2.323 1.382-1.341 2.394-2.323-1.382zM365.841 34.448l2.323 1.382-1.341 2.394-2.323-1.382zM1134.86 775.578l-2.323-1.382 1.341-2.394 2.323 1.382zM733.339 357.353l-2.323-1.382 1.341-2.394 2.323 1.382zM767.367 452.673l2.323 1.382-1.341 2.394-2.323-1.382zM1199.08 305.708l-2.323-1.382 1.341-2.394 2.323 1.382zM301.624 504.318l2.323 1.382-1.341 2.394-2.323-1.382zM808.343 27.998l2.323 1.382-1.341 2.394-2.323-1.382zM692.364 782.028l-2.323-1.382 1.341-2.394 2.323 1.382zM290.838 363.803l-2.323-1.382 1.341-2.394 2.323 1.382zM1209.87 446.222l2.323 1.382-1.341 2.394-2.323-1.382zM756.582 312.158l-2.323-1.382 1.341-2.394 2.323 1.382zM744.125 497.868l2.323 1.382-1.341 2.394-2.323-1.382zM74.417 39.056l2.323 1.382-1.341 2.394-2.323-1.382zM1426.29 770.97l-2.323-1.382 1.341-2.394 2.323 1.382zM1024.77 352.745l-2.323-1.382 1.341-2.394 2.323 1.382zM475.943 457.281l2.323 1.382-1.341 2.394-2.323-1.382zM1056.86 70.386l2.323 1.382-1.341 2.394-2.323-1.382zM443.848 739.64l-2.323-1.382 1.341-2.394 2.323 1.382zM42.322 321.415 40 320.033l1.34-2.394 2.323 1.382zM1095.39 103.293l-2.323-1.382 1.341-2.394 2.323 1.382zM405.322 706.732l2.323 1.382-1.341 2.394-2.323-1.382zM978.879 130.53l2.323 1.382-1.341 2.394-2.323-1.382zM521.829 679.496l-2.323-1.382 1.341-2.394 2.323 1.382zM120.303 261.271l-2.323-1.382 1.341-2.394 2.323 1.382zM1380.4 548.755l2.323 1.382-1.341 2.394-2.323-1.382zM1173.37 43.15l-2.323-1.383 1.341-2.394 2.323 1.383zM327.341 766.876l2.323 1.382-1.341 2.394L326 769.27zM424.635 66.026l2.323 1.382-1.341 2.394-2.323-1.382zM1076.07 744l-2.323-1.382 1.341-2.394 2.323 1.382zM674.546 325.775l-2.323-1.382 1.341-2.394 2.323 1.382zM826.16 484.251l2.323 1.382-1.341 2.394-2.323-1.382zM553.323 200.776 551 199.394l1.341-2.394 2.323 1.382zM360.417 535.896l2.323 1.382-1.341 2.394-2.323-1.382zM514.029 102.885l2.323 1.382-1.341 2.394-2.323-1.382zM986.678 707.141l-2.323-1.382 1.341-2.394 2.323 1.382zM585.152 288.916l-2.323-1.382 1.341-2.394 2.323 1.382zM915.554 521.11l2.323 1.382-1.341 2.394-2.323-1.382zM1050.9 237.27l-2.323-1.382 1.341-2.394 2.323 1.382zM449.811 572.756l2.323 1.382-1.341 2.394-2.323-1.382zM126.265 24.312l2.323 1.382-1.341 2.394-2.323-1.382zM1374.44 785.714l-2.323-1.382 1.341-2.394 2.323 1.382zM972.916 367.489l-2.323-1.382 1.341-2.394 2.323 1.382zM527.791 442.537l2.323 1.382-1.341 2.394-2.323-1.382zM1438.66 315.844l-2.323-1.382 1.341-2.394 2.323 1.382zM62.048 494.182l2.322 1.382-1.34 2.394-2.323-1.382zM889.484 38.38l2.323 1.383-1.341 2.394-2.323-1.382zM611.223 771.645l-2.323-1.382 1.341-2.394 2.323 1.382zM209.697 353.42l-2.323-1.382 1.341-2.394 2.323 1.382zM1291.01 456.606l2.323 1.382-1.341 2.394-2.323-1.382zM1262.76 135.298l-2.323-1.382 1.341-2.394 2.323 1.382zM240.005 671.052l5.888 3.504-3.4 6.07-5.888-3.504zM1234.46 174.51l5.888 3.504-3.4 6.07-5.888-3.504zM1080.79 570.168l5.888 3.504-3.4 6.07-5.888-3.504zM1186.98 677.378l5.888 3.504-3.4 6.07-5.888-3.504zM621.302 38.38l2.323 1.383-1.341 2.394-2.323-1.382zM879.405 771.645l-2.323-1.382 1.341-2.394 2.323 1.382zM477.88 353.42l-2.323-1.382 1.341-2.394 2.323 1.382zM1022.83 456.606l2.323 1.382-1.341 2.394-2.323-1.382zM943.623 301.774l-2.323-1.382 1.341-2.394 2.323 1.382zM557.083 508.251l2.323 1.382-1.341 2.394-2.323-1.382zM254.786 38.38l2.323 1.383-1.341 2.394-2.323-1.382zM1245.92 771.645l-2.323-1.382 1.341-2.394 2.323 1.382zM844.396 353.42l-2.323-1.382 1.341-2.394 2.323 1.382zM656.311 456.606l2.323 1.382-1.341 2.394L654.97 459zM1310.14 301.774l-2.323-1.382 1.341-2.394 2.323 1.382zM190.568 508.251l2.323 1.382-1.341 2.394-2.323-1.382zM969.939 56.811l2.323 1.382-1.341 2.394-2.323-1.382zM530.768 753.215l-2.323-1.382 1.341-2.394 2.323 1.382zM129.243 334.99l-2.323-1.382 1.341-2.394 2.323 1.382zM1371.46 475.036l2.323 1.382-1.341 2.394-2.323-1.382zM1182.31 116.868l-2.323-1.382 1.341-2.394 2.323 1.382zM318.401 693.157l2.323 1.382-1.341 2.394-2.323-1.382zM755.393 56.811l2.323 1.382-1.341 2.394-2.323-1.382zM745.314 753.215l-2.323-1.382 1.341-2.394 2.323 1.382zM343.788 334.99l-2.323-1.382 1.341-2.394 2.323 1.382zM1156.92 475.036l2.323 1.382-1.341 2.394-2.323-1.382zM809.532 283.344l-2.323-1.382 1.341-2.394 2.323 1.382zM691.175 526.681l2.323 1.382-1.341 2.394-2.323-1.382zM335.241 56.811l2.323 1.382-1.341 2.394-2.323-1.382zM1165.47 753.215l-2.323-1.382 1.341-2.394 2.323 1.382zM763.941 334.99l-2.323-1.382 1.341-2.394 2.323 1.382zM691.341 207l2.323 1.382-1.341 2.394-2.323-1.382zM1229.68 283.345l-2.323-1.382 1.341-2.394 2.323 1.382zM271.022 526.681l2.323 1.382-1.341 2.394-2.323-1.382zM1023.58 158.174l2.323 1.382-1.341 2.394-2.323-1.382zM477.131 651.852l-2.323-1.382 1.341-2.394 2.323 1.382zM75.605 233.627l-2.322-1.382 1.34-2.394 2.323 1.382zM1425.1 576.399l2.323 1.382-1.341 2.394-2.323-1.382zM1128.67 15.505l-2.323-1.382 1.341-2.395 2.323 1.383zM372.038 794.521l2.323 1.382-1.341 2.394-2.323-1.382zM557.145 90.658l2.323 1.383-1.341 2.394-2.323-1.383zM943.562 719.367l-2.323-1.382 1.341-2.394 2.323 1.382zM542.036 301.143l-2.323-1.382 1.341-2.394 2.323 1.382zM958.671 508.883l2.323 1.382-1.341 2.394-2.323-1.382zM1007.78 249.497l-2.323-1.382 1.341-2.394 2.323 1.382zM492.928 560.529l2.323 1.382-1.341 2.394-2.323-1.382z"/></g><g opacity=".1" fill="#fff"><path d="m515.819 285.819-2.323 1.382 1.341 2.394 2.323-1.382zM883.474 724.207l2.323-1.382-1.341-2.394-2.323 1.382zM1285 305.982l2.323-1.382-1.341-2.394-2.323 1.382zM114.293 704.044l-2.323 1.382 1.341 2.394 2.323-1.382zM231.938 87.86l2.323-1.382-1.341-2.394-2.323 1.383zM1167.36 922.165l-2.323 1.382 1.341 2.394 2.323-1.382zM740.885 127.998l-2.323 1.382 1.341 2.394 2.323-1.382zM658.409 882.028l2.323-1.382-1.341-2.394-2.323 1.382zM1059.93 463.803l2.323-1.382-1.341-2.394-2.323 1.382zM339.36 546.222l-2.323 1.382 1.341 2.394 2.323-1.382zM594.191 412.158l2.323-1.382-1.341-2.394-2.323 1.382zM805.103 597.868l-2.323 1.382 1.341 2.394 2.323-1.382zM1084.16 134.448l-2.323 1.382 1.341 2.394 2.323-1.382zM315.135 875.578l2.323-1.382-1.341-2.394-2.323 1.382zM716.661 457.353l2.323-1.382-1.341-2.394-2.323 1.382zM682.633 552.673l-2.323 1.382 1.341 2.394 2.323-1.382zM250.918 405.708l2.323-1.382-1.341-2.394-2.323 1.382zM1148.38 604.318l-2.323 1.382 1.341 2.394 2.323-1.382zM641.658 127.998l-2.323 1.382 1.341 2.394 2.323-1.382zM757.637 882.028l2.323-1.382-1.341-2.394-2.323 1.382zM1159.16 463.803l2.323-1.382-1.341-2.394-2.323 1.382zM240.132 546.222l-2.323 1.382 1.341 2.394 2.323-1.382zM693.418 412.158l2.323-1.382-1.341-2.394-2.323 1.382zM705.875 597.868l-2.323 1.382 1.341 2.394 2.323-1.382zM1375.58 139.056l-2.323 1.382 1.341 2.394 2.323-1.382zM23.71 870.97l2.324-1.382-1.341-2.394-2.323 1.382zM425.235 452.745l2.323-1.382-1.341-2.394-2.323 1.382zM974.058 557.281l-2.323 1.382 1.341 2.394 2.323-1.382zM393.142 170.386l-2.323 1.382 1.341 2.394 2.323-1.382zM1006.15 839.64l2.323-1.382-1.341-2.394-2.323 1.382zM1407.68 421.415l2.323-1.382-1.341-2.394-2.323 1.382zM354.615 203.293l2.323-1.382-1.341-2.394-2.323 1.382zM1044.68 806.732l-2.323 1.382 1.341 2.394 2.323-1.382zM471.122 230.53l-2.323 1.382 1.341 2.394 2.323-1.382zM928.171 779.496l2.323-1.382-1.341-2.394-2.323 1.382zM1329.7 361.271l2.323-1.382-1.341-2.394-2.323 1.382zM69.596 648.755l-2.322 1.382 1.34 2.394 2.323-1.382zM276.635 143.15l2.323-1.382-1.341-2.394-2.323 1.382zM1122.66 866.876l-2.323 1.382 1.341 2.394 2.323-1.382zM1025.37 166.026l-2.323 1.382 1.341 2.394 2.323-1.382zM373.929 844l2.323-1.382-1.341-2.394-2.323 1.382zM775.454 425.775l2.323-1.382-1.341-2.394-2.323 1.382zM623.84 584.251l-2.323 1.382 1.341 2.394 2.323-1.382zM309.71 374.13l2.323-1.382-1.341-2.394-2.323 1.382zM1089.58 635.896l-2.323 1.382 1.341 2.394 2.323-1.382zM935.972 202.885l-2.323 1.382 1.341 2.394 2.323-1.382zM463.322 807.141l2.323-1.382-1.341-2.394-2.323 1.382zM864.848 388.916l2.323-1.382-1.341-2.394-2.323 1.382zM534.446 621.11l-2.323 1.382 1.341 2.394 2.323-1.382zM399.105 337.27l2.323-1.382-1.341-2.394-2.323 1.382zM1000.19 672.756l-2.323 1.382 1.341 2.394 2.323-1.382zM1323.74 124.312l-2.323 1.382 1.341 2.394 2.323-1.382zM75.56 885.714l2.322-1.382-1.34-2.394-2.324 1.382zM477.085 467.489l2.323-1.382-1.341-2.394-2.323 1.382zM922.21 542.537l-2.323 1.382 1.341 2.394 2.323-1.382zM11.342 415.844l2.322-1.382-1.34-2.394L10 413.45zM1387.95 594.182l-2.323 1.382 1.341 2.394 2.323-1.382zM560.517 138.381l-2.323 1.382 1.341 2.394 2.323-1.382zM838.777 871.645l2.323-1.382-1.341-2.394-2.323 1.382zM1240.3 453.42l2.323-1.382-1.341-2.394-2.323 1.382zM158.99 556.606l-2.323 1.382 1.341 2.394 2.323-1.382zM187.241 235.298l2.323-1.382-1.341-2.394-2.323 1.382zM1210 771.052l-5.888 3.504 3.4 6.07 5.888-3.504zM1184.6 278l-5.888 3.504 3.4 6.07 5.888-3.504zM1011.45 234.179l-5.888 3.504 3.4 6.07 5.888-3.504zM32.265 85.105l-5.888 3.504 3.4 6.07 5.888-3.504zM900.159 80l-5.888 3.504 3.4 6.07 5.888-3.504zM215.544 274.51l-5.888 3.504 3.4 6.07 5.888-3.504zM369.212 670.168l-5.888 3.504 3.4 6.07 5.888-3.504zM263.023 777.378l-5.888 3.504 3.4 6.07 5.888-3.504zM780.379 299.815l-5.888 3.504 3.4 6.07 5.888-3.504zM828.699 138.381l-2.323 1.382 1.341 2.394 2.323-1.382zM570.596 871.645l2.323-1.382-1.341-2.394-2.323 1.382zM972.12 453.42l2.323-1.382-1.341-2.394-2.323 1.382zM427.173 556.606l-2.323 1.382 1.341 2.394 2.323-1.382zM506.377 401.774l2.323-1.382-1.341-2.394-2.323 1.382zM892.917 608.251l-2.323 1.382 1.341 2.394 2.323-1.382zM1195.21 138.381l-2.323 1.382 1.341 2.394 2.323-1.382zM204.08 871.645l2.323-1.382-1.341-2.394-2.323 1.382zM605.605 453.42l2.323-1.382-1.341-2.394-2.323 1.382zM793.69 556.606l-2.323 1.382 1.341 2.394 2.323-1.382zM139.862 401.774l2.323-1.382-1.341-2.394-2.323 1.382zM1259.43 608.251l-2.323 1.382 1.341 2.394 2.323-1.382zM480.061 156.811l-2.323 1.382 1.341 2.394 2.323-1.382zM919.232 853.215l2.323-1.382-1.341-2.394-2.323 1.382zM1320.76 434.99l2.323-1.382-1.341-2.394-2.323 1.382zM78.537 575.036l-2.323 1.382 1.34 2.394 2.323-1.382zM267.695 216.868l2.323-1.382-1.341-2.394-2.323 1.382zM1131.6 793.157l-2.323 1.382 1.341 2.394 2.323-1.382zM694.608 156.811l-2.323 1.382 1.341 2.394 2.323-1.382zM704.687 853.215l2.323-1.382-1.341-2.394-2.323 1.382zM1106.21 434.99l2.323-1.382-1.341-2.394-2.323 1.382zM293.082 575.036l-2.323 1.382 1.341 2.394 2.323-1.382zM640.468 383.344l2.323-1.382-1.341-2.394-2.323 1.382zM758.825 626.681l-2.323 1.382 1.341 2.394 2.323-1.382zM1114.76 156.811l-2.323 1.382 1.341 2.394 2.323-1.382zM284.534 853.215l2.323-1.382-1.341-2.394-2.323 1.382zM686.059 434.99l2.323-1.382-1.341-2.394-2.323 1.382zM713.234 575.035l-2.323 1.382 1.341 2.394 2.323-1.382zM220.316 383.345l2.323-1.382-1.341-2.394-2.323 1.382zM1178.98 626.681l-2.323 1.382 1.341 2.394 2.323-1.382zM426.425 258.174l-2.323 1.382 1.341 2.394 2.323-1.382zM972.869 751.852l2.323-1.382-1.341-2.394-2.323 1.382zM1374.4 333.627l2.323-1.382-1.341-2.394-2.323 1.382zM24.9 676.399l-2.323 1.382 1.34 2.394 2.323-1.382zM321.332 115.505l2.323-1.382-1.341-2.394-2.323 1.382zM1077.96 894.521l-2.323 1.382 1.341 2.394 2.323-1.382zM892.855 190.658l-2.323 1.382 1.341 2.394 2.323-1.382zM506.439 819.367l2.323-1.382-1.341-2.394-2.323 1.382zM907.965 401.143l2.323-1.382-1.341-2.394-2.323 1.382zM491.33 608.883l-2.323 1.382 1.341 2.394 2.323-1.382zM442.22 349.497l2.323-1.382-1.341-2.394-2.323 1.382zM957.073 660.529l-2.323 1.382 1.341 2.394 2.323-1.382z"/></g><g opacity=".3" filter="url(#b)"><path fill="#fff" d="m247.5 198.5 3 3-3 3-3-3z"/></g><g opacity=".3" filter="url(#c)"><path fill="#fff" d="m143.95 409 4.95 4.95-4.95 4.95-4.95-4.95z"/></g><g opacity=".2" filter="url(#d)"><path fill="#fff" d="m1082.95 27 4.95 4.95-4.95 4.95-4.95-4.95z"/></g><g opacity=".2" filter="url(#e)"><path fill="#fff" d="m976.025 394.925 3.025 3.025-3.025 3.025L973 397.95z"/></g><g opacity=".2" filter="url(#f)"><path fill="#fff" d="m1274.95 681 4.95 4.95-4.95 4.95-4.95-4.95z"/></g><g opacity=".3" filter="url(#g)"><path fill="#fff" d="m938.025 809.925 3.025 3.025-3.025 3.025L935 812.95z"/></g><g filter="url(#h)"><path fill="#fff" d="m253.025 1064 3.025 3.025-3.025 3.025-3.025-3.025z"/></g><g filter="url(#i)"><path fill="#fff" d="m1290.03 1338 3.025 3.025-3.025 3.025-3.025-3.025z"/></g></g><defs><filter id="b" x="232.378" y="186.378" width="30.244" height="30.244" filterUnits="userSpaceOnUse" color-interpolation-filters="sRGB"><feFlood flood-opacity="0" result="BackgroundImageFix"/><feColorMatrix in="SourceAlpha" values="0 0 0 0 0 0 0 0 0 0 0 0 0 0 0 0 0 0 127 0"/><feMorphology radius="3.03" operator="dilate" in="SourceAlpha" result="effect1_dropShadow"/><feOffset/><feGaussianBlur stdDeviation="4.546"/><feColorMatrix values="0 0 0 0 1 0 0 0 0 1 0 0 0 0 1 0 0 0 0.25 0"/><feBlend in2="BackgroundImageFix" result="effect1_dropShadow"/><feBlend in="SourceGraphic" in2="effect1_dropShadow" result="shape"/></filter><filter id="c" x="119" y="389" width="49.9" height="49.9" filterUnits="userSpaceOnUse" color-interpolation-filters="sRGB"><feFlood flood-opacity="0" result="BackgroundImageFix"/><feColorMatrix in="SourceAlpha" values="0 0 0 0 0 0 0 0 0 0 0 0 0 0 0 0 0 0 127 0"/><feMorphology radius="5" operator="dilate" in="SourceAlpha" result="effect1_dropShadow"/><feOffset/><feGaussianBlur stdDeviation="7.5"/><feColorMatrix values="0 0 0 0 1 0 0 0 0 1 0 0 0 0 1 0 0 0 0.25 0"/><feBlend in2="BackgroundImageFix" result="effect1_dropShadow"/><feBlend in="SourceGraphic" in2="effect1_dropShadow" result="shape"/></filter><filter id="d" x="1058" y="7" width="49.9" height="49.9" filterUnits="userSpaceOnUse" color-interpolation-filters="sRGB"><feFlood flood-opacity="0" result="BackgroundImageFix"/><feColorMatrix in="SourceAlpha" values="0 0 0 0 0 0 0 0 0 0 0 0 0 0 0 0 0 0 127 0"/><feMorphology radius="5" operator="dilate" in="SourceAlpha" result="effect1_dropShadow"/><feOffset/><feGaussianBlur stdDeviation="7.5"/><feColorMatrix values="0 0 0 0 1 0 0 0 0 1 0 0 0 0 1 0 0 0 0.25 0"/><feBlend in2="BackgroundImageFix" result="effect1_dropShadow"/><feBlend in="SourceGraphic" in2="effect1_dropShadow" result="shape"/></filter><filter id="e" x="960.777" y="382.701" width="30.497" height="30.497" filterUnits="userSpaceOnUse" color-interpolation-filters="sRGB"><feFlood flood-opacity="0" result="BackgroundImageFix"/><feColorMatrix in="SourceAlpha" values="0 0 0 0 0 0 0 0 0 0 0 0 0 0 0 0 0 0 127 0"/><feMorphology radius="3.056" operator="dilate" in="SourceAlpha" result="effect1_dropShadow"/><feOffset/><feGaussianBlur stdDeviation="4.584"/><feColorMatrix values="0 0 0 0 1 0 0 0 0 1 0 0 0 0 1 0 0 0 0.25 0"/><feBlend in2="BackgroundImageFix" result="effect1_dropShadow"/><feBlend in="SourceGraphic" in2="effect1_dropShadow" result="shape"/></filter><filter id="f" x="1250" y="661" width="49.9" height="49.9" filterUnits="userSpaceOnUse" color-interpolation-filters="sRGB"><feFlood flood-opacity="0" result="BackgroundImageFix"/><feColorMatrix in="SourceAlpha" values="0 0 0 0 0 0 0 0 0 0 0 0 0 0 0 0 0 0 127 0"/><feMorphology radius="5" operator="dilate" in="SourceAlpha" result="effect1_dropShadow"/><feOffset/><feGaussianBlur stdDeviation="7.5"/><feColorMatrix values="0 0 0 0 1 0 0 0 0 1 0 0 0 0 1 0 0 0 0.25 0"/><feBlend in2="BackgroundImageFix" result="effect1_dropShadow"/><feBlend in="SourceGraphic" in2="effect1_dropShadow" result="shape"/></filter><filter id="g" x="922.777" y="797.701" width="30.497" height="30.497" filterUnits="userSpaceOnUse" color-interpolation-filters="sRGB"><feFlood flood-opacity="0" result="BackgroundImageFix"/><feColorMatrix in="SourceAlpha" values="0 0 0 0 0 0 0 0 0 0 0 0 0 0 0 0 0 0 127 0"/><feMorphology radius="3.056" operator="dilate" in="SourceAlpha" result="effect1_dropShadow"/><feOffset/><feGaussianBlur stdDeviation="4.584"/><feColorMatrix values="0 0 0 0 1 0 0 0 0 1 0 0 0 0 1 0 0 0 0.25 0"/><feBlend in2="BackgroundImageFix" result="effect1_dropShadow"/><feBlend in="SourceGraphic" in2="effect1_dropShadow" result="shape"/></filter><filter id="h" x="237.777" y="1051.78" width="30.497" height="30.497" filterUnits="userSpaceOnUse" color-interpolation-filters="sRGB"><feFlood flood-opacity="0" result="BackgroundImageFix"/><feColorMatrix in="SourceAlpha" values="0 0 0 0 0 0 0 0 0 0 0 0 0 0 0 0 0 0 127 0"/><feMorphology radius="3.056" operator="dilate" in="SourceAlpha" result="effect1_dropShadow"/><feOffset/><feGaussianBlur stdDeviation="4.584"/><feColorMatrix values="0 0 0 0 1 0 0 0 0 1 0 0 0 0 1 0 0 0 0.25 0"/><feBlend in2="BackgroundImageFix" result="effect1_dropShadow"/><feBlend in="SourceGraphic" in2="effect1_dropShadow" result="shape"/></filter><filter id="i" x="1274.78" y="1325.78" width="30.497" height="30.497" filterUnits="userSpaceOnUse" color-interpolation-filters="sRGB"><feFlood flood-opacity="0" result="BackgroundImageFix"/><feColorMatrix in="SourceAlpha" values="0 0 0 0 0 0 0 0 0 0 0 0 0 0 0 0 0 0 127 0"/><feMorphology radius="3.056" operator="dilate" in="SourceAlpha" result="effect1_dropShadow"/><feOffset/><feGaussianBlur stdDeviation="4.584"/><feColorMatrix values="0 0 0 0 1 0 0 0 0 1 0 0 0 0 1 0 0 0 0.25 0"/><feBlend in2="BackgroundImageFix" result="effect1_dropShadow"/><feBlend in="SourceGraphic" in2="effect1_dropShadow" result="shape"/></filter><clipPath id="a"><path fill="#fff" d="M0 0h1440v1498H0z"/></clipPath></defs></svg>