<svg fill="none" viewBox="0 0 1440 1498"><g clip-path="url(#a)"><path fill="#fff" d="M934.182 185.819l2.323 1.382-1.341 2.394-2.323-1.382zM566.526 624.207l-2.323-1.382 1.341-2.394 2.323 1.382zM165 205.982l-2.323-1.382 1.341-2.394 2.323 1.382zm1170.71 398.062l2.323 1.382-1.341 2.394-2.323-1.382zM282.644 822.165l2.323 1.382-1.341 2.394-2.323-1.382zM709.115 27.998l2.323 1.382-1.341 2.394-2.323-1.382zm82.476 754.03l-2.323-1.382 1.341-2.394 2.323 1.382zM390.066 363.803l-2.323-1.382 1.341-2.394 2.323 1.382zm720.574 82.419l2.323 1.382-1.341 2.394-2.323-1.382zM855.81 312.158l-2.323-1.382 1.341-2.394 2.323 1.382zm-210.912 185.71l2.323 1.382-1.341 2.394-2.323-1.382zM365.841 34.448l2.323 1.382-1.341 2.394-2.323-1.382zm769.019 741.13l-2.323-1.382 1.341-2.394 2.323 1.382zM733.339 357.353l-2.323-1.382 1.341-2.394 2.323 1.382zm34.028 95.32l2.323 1.382-1.341 2.394-2.323-1.382zm431.713-146.965l-2.323-1.382 1.341-2.394 2.323 1.382zm-897.456 198.61l2.323 1.382-1.341 2.394-2.323-1.382zm506.719-476.32l2.323 1.382-1.341 2.394-2.323-1.382zm-115.979 754.03l-2.323-1.382 1.341-2.394 2.323 1.382zM290.838 363.803l-2.323-1.382 1.341-2.394 2.323 1.382zm919.032 82.419l2.323 1.382-1.341 2.394-2.323-1.382zM756.582 312.158l-2.323-1.382 1.341-2.394 2.323 1.382zm-12.457 185.71l2.323 1.382-1.341 2.394-2.323-1.382zM74.417 39.056l2.323 1.382-1.341 2.394-2.323-1.382zM1426.29 770.97l-2.323-1.382 1.341-2.394 2.323 1.382zm-401.52-418.225l-2.323-1.382 1.341-2.394 2.323 1.382zM475.943 457.281l2.323 1.382-1.341 2.394-2.323-1.382zM1056.86 70.386l2.323 1.382-1.341 2.394-2.323-1.382zM443.848 739.64l-2.323-1.382 1.341-2.394 2.323 1.382zM42.322 321.415L40 320.033l1.34-2.394 2.323 1.382zM1095.39 103.293l-2.323-1.382 1.341-2.394 2.323 1.382zM405.322 706.732l2.323 1.382-1.341 2.394-2.323-1.382zM978.879 130.53l2.323 1.382-1.341 2.394-2.323-1.382zm-457.05 548.966l-2.323-1.382 1.341-2.394 2.323 1.382zM120.303 261.271l-2.323-1.382 1.341-2.394 2.323 1.382zM1380.4 548.755l2.323 1.382-1.341 2.394-2.323-1.382zM1173.37 43.15l-2.323-1.383 1.341-2.394 2.323 1.383zM327.341 766.876l2.323 1.382-1.341 2.394L326 769.27zm97.294-700.85l2.323 1.382-1.341 2.394-2.323-1.382zM1076.07 744l-2.323-1.382 1.341-2.394 2.323 1.382zM674.546 325.775l-2.323-1.382 1.341-2.394 2.323 1.382zM826.16 484.251l2.323 1.382-1.341 2.394-2.323-1.382zM553.323 200.776L551 199.394l1.341-2.394 2.323 1.382zm-192.906 335.12l2.323 1.382-1.341 2.394-2.323-1.382zm153.612-433.011l2.323 1.382-1.341 2.394-2.323-1.382zm472.649 604.256l-2.323-1.382 1.341-2.394 2.323 1.382zM585.152 288.916l-2.323-1.382 1.341-2.394 2.323 1.382zM915.554 521.11l2.323 1.382-1.341 2.394-2.323-1.382zM1050.9 237.27l-2.323-1.382 1.341-2.394 2.323 1.382zM449.811 572.756l2.323 1.382-1.341 2.394-2.323-1.382zM126.265 24.312l2.323 1.382-1.341 2.394-2.323-1.382zM1374.44 785.714l-2.323-1.382 1.341-2.394 2.323 1.382zM972.916 367.489l-2.323-1.382 1.341-2.394 2.323 1.382zm-445.125 75.048l2.323 1.382-1.341 2.394-2.323-1.382zm910.869-126.693l-2.323-1.382 1.341-2.394 2.323 1.382zM62.048 494.182l2.322 1.382-1.34 2.394-2.323-1.382zM889.484 38.38l2.323 1.383-1.341 2.394-2.323-1.382zM611.223 771.645l-2.323-1.382 1.341-2.394 2.323 1.382zM209.697 353.42l-2.323-1.382 1.341-2.394 2.323 1.382zM1291.01 456.606l2.323 1.382-1.341 2.394-2.323-1.382zm-28.25-321.308l-2.323-1.382 1.341-2.394 2.323 1.382zM240.005 671.052l5.888 3.504-3.4 6.07-5.888-3.504zM1234.46 174.51l5.888 3.504-3.4 6.07-5.888-3.504zm-153.67 395.658l5.888 3.504-3.4 6.07-5.888-3.504zm106.19 107.21l5.888 3.504-3.4 6.07-5.888-3.504zM621.302 38.38l2.323 1.383-1.341 2.394-2.323-1.382zm258.103 733.265l-2.323-1.382 1.341-2.394 2.323 1.382zM477.88 353.42l-2.323-1.382 1.341-2.394 2.323 1.382zm544.95 103.186l2.323 1.382-1.341 2.394-2.323-1.382zm-79.207-154.832l-2.323-1.382 1.341-2.394 2.323 1.382zm-386.54 206.477l2.323 1.382-1.341 2.394-2.323-1.382zM254.786 38.38l2.323 1.383-1.341 2.394-2.323-1.382zm991.134 733.265l-2.323-1.382 1.341-2.394 2.323 1.382zM844.396 353.42l-2.323-1.382 1.341-2.394 2.323 1.382zM656.311 456.606l2.323 1.382-1.341 2.394L654.97 459zm653.829-154.832l-2.323-1.382 1.341-2.394 2.323 1.382zM190.568 508.251l2.323 1.382-1.341 2.394-2.323-1.382zm779.371-451.44l2.323 1.382-1.341 2.394-2.323-1.382zM530.768 753.215l-2.323-1.382 1.341-2.394 2.323 1.382zM129.243 334.99l-2.323-1.382 1.341-2.394 2.323 1.382zM1371.46 475.036l2.323 1.382-1.341 2.394-2.323-1.382zm-189.15-358.168l-2.323-1.382 1.341-2.394 2.323 1.382zM318.401 693.157l2.323 1.382-1.341 2.394-2.323-1.382zM755.393 56.811l2.323 1.382-1.341 2.394-2.323-1.382zm-10.079 696.404l-2.323-1.382 1.341-2.394 2.323 1.382zM343.788 334.99l-2.323-1.382 1.341-2.394 2.323 1.382zm813.132 140.046l2.323 1.382-1.341 2.394-2.323-1.382zM809.532 283.344l-2.323-1.382 1.341-2.394 2.323 1.382zM691.175 526.681l2.323 1.382-1.341 2.394-2.323-1.382zM335.241 56.811l2.323 1.382-1.341 2.394-2.323-1.382zm830.229 696.404l-2.323-1.382 1.341-2.394 2.323 1.382zM763.941 334.99l-2.323-1.382 1.341-2.394 2.323 1.382zM691.341 207l2.323 1.382-1.341 2.394-2.323-1.382zm538.339 76.345l-2.323-1.382 1.341-2.394 2.323 1.382zM271.022 526.681l2.323 1.382-1.341 2.394-2.323-1.382zm752.558-368.507l2.323 1.382-1.341 2.394-2.323-1.382zM477.131 651.852l-2.323-1.382 1.341-2.394 2.323 1.382zM75.605 233.627l-2.322-1.382 1.34-2.394 2.323 1.382zM1425.1 576.399l2.323 1.382-1.341 2.394-2.323-1.382zM1128.67 15.505l-2.323-1.382 1.341-2.395 2.323 1.383zM372.038 794.521l2.323 1.382-1.341 2.394-2.323-1.382zM557.145 90.658l2.323 1.383-1.341 2.394-2.323-1.383zm386.417 628.709l-2.323-1.382 1.341-2.394 2.323 1.382zM542.036 301.143l-2.323-1.382 1.341-2.394 2.323 1.382zm416.635 207.74l2.323 1.382-1.341 2.394-2.323-1.382zm49.109-259.386l-2.323-1.382 1.341-2.394 2.323 1.382zM492.928 560.529l2.323 1.382-1.341 2.394-2.323-1.382z" opacity=".2"/><path fill="#fff" d="M515.819 285.819l-2.323 1.382 1.341 2.394 2.323-1.382zm367.655 438.388l2.323-1.382-1.341-2.394-2.323 1.382zM1285 305.982l2.323-1.382-1.341-2.394-2.323 1.382zM114.293 704.044l-2.323 1.382 1.341 2.394 2.323-1.382zM231.938 87.86l2.323-1.382-1.341-2.394-2.323 1.383zm935.422 834.305l-2.323 1.382 1.341 2.394 2.323-1.382zM740.885 127.998l-2.323 1.382 1.341 2.394 2.323-1.382zm-82.476 754.03l2.323-1.382-1.341-2.394-2.323 1.382zm401.521-418.225l2.323-1.382-1.341-2.394-2.323 1.382zm-720.57 82.419l-2.323 1.382 1.341 2.394 2.323-1.382zm254.831-134.064l2.323-1.382-1.341-2.394-2.323 1.382zm210.912 185.71l-2.323 1.382 1.341 2.394 2.323-1.382zm279.057-463.42l-2.323 1.382 1.341 2.394 2.323-1.382zm-769.025 741.13l2.323-1.382-1.341-2.394-2.323 1.382zm401.526-418.225l2.323-1.382-1.341-2.394-2.323 1.382zm-34.028 95.32l-2.323 1.382 1.341 2.394 2.323-1.382zM250.918 405.708l2.323-1.382-1.341-2.394-2.323 1.382zm897.462 198.61l-2.323 1.382 1.341 2.394 2.323-1.382zm-506.722-476.32l-2.323 1.382 1.341 2.394 2.323-1.382zm115.979 754.03l2.323-1.382-1.341-2.394-2.323 1.382zm401.523-418.225l2.323-1.382-1.341-2.394-2.323 1.382zm-919.028 82.419l-2.323 1.382 1.341 2.394 2.323-1.382zm453.286-134.064l2.323-1.382-1.341-2.394-2.323 1.382zm12.457 185.71l-2.323 1.382 1.341 2.394 2.323-1.382zm669.705-458.812l-2.323 1.382 1.341 2.394 2.323-1.382zM23.71 870.97l2.324-1.382-1.341-2.394-2.323 1.382zm401.525-418.225l2.323-1.382-1.341-2.394-2.323 1.382zm548.823 104.536l-2.323 1.382 1.341 2.394 2.323-1.382zM393.142 170.386l-2.323 1.382 1.341 2.394 2.323-1.382zM1006.15 839.64l2.323-1.382-1.341-2.394-2.323 1.382zm401.53-418.225l2.323-1.382-1.341-2.394-2.323 1.382zM354.615 203.293l2.323-1.382-1.341-2.394-2.323 1.382zm690.065 603.439l-2.323 1.382 1.341 2.394 2.323-1.382zM471.122 230.53l-2.323 1.382 1.341 2.394 2.323-1.382zm457.049 548.966l2.323-1.382-1.341-2.394-2.323 1.382zM1329.7 361.271l2.323-1.382-1.341-2.394-2.323 1.382zM69.596 648.755l-2.322 1.382 1.34 2.394 2.323-1.382zM276.635 143.15l2.323-1.382-1.341-2.394-2.323 1.382zm846.025 723.726l-2.323 1.382 1.341 2.394 2.323-1.382zm-97.29-700.85l-2.323 1.382 1.341 2.394 2.323-1.382zM373.929 844l2.323-1.382-1.341-2.394-2.323 1.382zm401.525-418.225l2.323-1.382-1.341-2.394-2.323 1.382zM623.84 584.251l-2.323 1.382 1.341 2.394 2.323-1.382zM309.71 374.13l2.323-1.382-1.341-2.394-2.323 1.382zm779.87 261.766l-2.323 1.382 1.341 2.394 2.323-1.382zM935.972 202.885l-2.323 1.382 1.341 2.394 2.323-1.382zm-472.65 604.256l2.323-1.382-1.341-2.394-2.323 1.382zm401.526-418.225l2.323-1.382-1.341-2.394-2.323 1.382zM534.446 621.11l-2.323 1.382 1.341 2.394 2.323-1.382zM399.105 337.27l2.323-1.382-1.341-2.394-2.323 1.382zm601.085 335.486l-2.323 1.382 1.341 2.394 2.323-1.382zm323.55-548.444l-2.323 1.382 1.341 2.394 2.323-1.382zM75.56 885.714l2.322-1.382-1.34-2.394-2.324 1.382zm401.525-418.225l2.323-1.382-1.341-2.394-2.323 1.382zm445.125 75.048l-2.323 1.382 1.341 2.394 2.323-1.382zM11.342 415.844l2.322-1.382-1.34-2.394L10 413.45zM1387.95 594.182l-2.323 1.382 1.341 2.394 2.323-1.382zM560.517 138.381l-2.323 1.382 1.341 2.394 2.323-1.382zm278.26 733.264l2.323-1.382-1.341-2.394-2.323 1.382zM1240.3 453.42l2.323-1.382-1.341-2.394-2.323 1.382zM158.99 556.606l-2.323 1.382 1.341 2.394 2.323-1.382zm28.251-321.308l2.323-1.382-1.341-2.394-2.323 1.382zM1210 771.052l-5.888 3.504 3.4 6.07 5.888-3.504zM1184.6 278l-5.888 3.504 3.4 6.07 5.888-3.504zm-173.15-43.821l-5.888 3.504 3.4 6.07 5.888-3.504zM32.265 85.105l-5.888 3.504 3.4 6.07 5.888-3.504zM900.159 80l-5.888 3.504 3.4 6.07 5.888-3.504zM215.544 274.51l-5.888 3.504 3.4 6.07 5.888-3.504zm153.668 395.658l-5.888 3.504 3.4 6.07 5.888-3.504zm-106.189 107.21l-5.888 3.504 3.4 6.07 5.888-3.504zm517.356-477.563l-5.888 3.504 3.4 6.07 5.888-3.504zm48.32-161.434l-2.323 1.382 1.341 2.394 2.323-1.382zM570.596 871.645l2.323-1.382-1.341-2.394-2.323 1.382zM972.12 453.42l2.323-1.382-1.341-2.394-2.323 1.382zM427.173 556.606l-2.323 1.382 1.341 2.394 2.323-1.382zm79.204-154.832l2.323-1.382-1.341-2.394-2.323 1.382zm386.54 206.477l-2.323 1.382 1.341 2.394 2.323-1.382zm302.293-469.87l-2.323 1.382 1.341 2.394 2.323-1.382zM204.08 871.645l2.323-1.382-1.341-2.394-2.323 1.382zM605.605 453.42l2.323-1.382-1.341-2.394-2.323 1.382zM793.69 556.606l-2.323 1.382 1.341 2.394 2.323-1.382zM139.862 401.774l2.323-1.382-1.341-2.394-2.323 1.382zM1259.43 608.251l-2.323 1.382 1.341 2.394 2.323-1.382zm-779.369-451.44l-2.323 1.382 1.341 2.394 2.323-1.382zm439.171 696.404l2.323-1.382-1.341-2.394-2.323 1.382zM1320.76 434.99l2.323-1.382-1.341-2.394-2.323 1.382zM78.537 575.036l-2.323 1.382 1.34 2.394 2.323-1.382zm189.158-358.168l2.323-1.382-1.341-2.394-2.323 1.382zM1131.6 793.157l-2.323 1.382 1.341 2.394 2.323-1.382zM694.608 156.811l-2.323 1.382 1.341 2.394 2.323-1.382zm10.079 696.404l2.323-1.382-1.341-2.394-2.323 1.382zM1106.21 434.99l2.323-1.382-1.341-2.394-2.323 1.382zM293.082 575.036l-2.323 1.382 1.341 2.394 2.323-1.382zm347.386-191.692l2.323-1.382-1.341-2.394-2.323 1.382zm118.357 243.337l-2.323 1.382 1.341 2.394 2.323-1.382zm355.935-469.87l-2.323 1.382 1.341 2.394 2.323-1.382zM284.534 853.215l2.323-1.382-1.341-2.394-2.323 1.382zM686.059 434.99l2.323-1.382-1.341-2.394-2.323 1.382zm27.175 140.045l-2.323 1.382 1.341 2.394 2.323-1.382zm-492.918-191.69l2.323-1.382-1.341-2.394-2.323 1.382zm958.664 243.336l-2.323 1.382 1.341 2.394 2.323-1.382zM426.425 258.174l-2.323 1.382 1.341 2.394 2.323-1.382zm546.444 493.678l2.323-1.382-1.341-2.394-2.323 1.382zM1374.4 333.627l2.323-1.382-1.341-2.394-2.323 1.382zM24.9 676.399l-2.323 1.382 1.34 2.394 2.323-1.382zm296.432-560.894l2.323-1.382-1.341-2.394-2.323 1.382zm756.628 779.016l-2.323 1.382 1.341 2.394 2.323-1.382zM892.855 190.658l-2.323 1.382 1.341 2.394 2.323-1.382zM506.439 819.367l2.323-1.382-1.341-2.394-2.323 1.382zm401.526-418.224l2.323-1.382-1.341-2.394-2.323 1.382zM491.33 608.883l-2.323 1.382 1.341 2.394 2.323-1.382zm-49.11-259.386l2.323-1.382-1.341-2.394-2.323 1.382zm514.853 311.032l-2.323 1.382 1.341 2.394 2.323-1.382z" opacity=".1"/><g filter="url(#b)" opacity=".3"><path fill="#fff" d="M247.5 198.5l3 3-3 3-3-3z"/></g><g filter="url(#c)" opacity=".3"><path fill="#fff" d="M143.95 409l4.95 4.95-4.95 4.95-4.95-4.95z"/></g><g filter="url(#d)" opacity=".2"><path fill="#fff" d="M1082.95 27l4.95 4.95-4.95 4.95-4.95-4.95z"/></g><g filter="url(#e)" opacity=".2"><path fill="#fff" d="M976.025 394.925l3.025 3.025-3.025 3.025L973 397.95z"/></g><g filter="url(#f)" opacity=".2"><path fill="#fff" d="M1274.95 681l4.95 4.95-4.95 4.95-4.95-4.95z"/></g><g filter="url(#g)" opacity=".3"><path fill="#fff" d="M938.025 809.925l3.025 3.025-3.025 3.025L935 812.95z"/></g><g filter="url(#h)"><path fill="#fff" d="M253.025 1064l3.025 3.025-3.025 3.025-3.025-3.025z"/></g><g filter="url(#i)"><path fill="#fff" d="M1290.03 1338l3.025 3.025-3.025 3.025-3.025-3.025z"/></g></g><defs><filter id="b" width="30.244" height="30.244" x="232.378" y="186.378" color-interpolation-filters="sRGB" filterUnits="userSpaceOnUse"><feFlood flood-opacity="0" result="BackgroundImageFix"/><feColorMatrix in="SourceAlpha" values="0 0 0 0 0 0 0 0 0 0 0 0 0 0 0 0 0 0 127 0"/><feMorphology in="SourceAlpha" operator="dilate" radius="3.03" result="effect1_dropShadow"/><feOffset/><feGaussianBlur stdDeviation="4.546"/><feColorMatrix values="0 0 0 0 1 0 0 0 0 1 0 0 0 0 1 0 0 0 0.25 0"/><feBlend in2="BackgroundImageFix" result="effect1_dropShadow"/><feBlend in="SourceGraphic" in2="effect1_dropShadow" result="shape"/></filter><filter id="c" width="49.9" height="49.9" x="119" y="389" color-interpolation-filters="sRGB" filterUnits="userSpaceOnUse"><feFlood flood-opacity="0" result="BackgroundImageFix"/><feColorMatrix in="SourceAlpha" values="0 0 0 0 0 0 0 0 0 0 0 0 0 0 0 0 0 0 127 0"/><feMorphology in="SourceAlpha" operator="dilate" radius="5" result="effect1_dropShadow"/><feOffset/><feGaussianBlur stdDeviation="7.5"/><feColorMatrix values="0 0 0 0 1 0 0 0 0 1 0 0 0 0 1 0 0 0 0.25 0"/><feBlend in2="BackgroundImageFix" result="effect1_dropShadow"/><feBlend in="SourceGraphic" in2="effect1_dropShadow" result="shape"/></filter><filter id="d" width="49.9" height="49.9" x="1058" y="7" color-interpolation-filters="sRGB" filterUnits="userSpaceOnUse"><feFlood flood-opacity="0" result="BackgroundImageFix"/><feColorMatrix in="SourceAlpha" values="0 0 0 0 0 0 0 0 0 0 0 0 0 0 0 0 0 0 127 0"/><feMorphology in="SourceAlpha" operator="dilate" radius="5" result="effect1_dropShadow"/><feOffset/><feGaussianBlur stdDeviation="7.5"/><feColorMatrix values="0 0 0 0 1 0 0 0 0 1 0 0 0 0 1 0 0 0 0.25 0"/><feBlend in2="BackgroundImageFix" result="effect1_dropShadow"/><feBlend in="SourceGraphic" in2="effect1_dropShadow" result="shape"/></filter><filter id="e" width="30.497" height="30.497" x="960.777" y="382.701" color-interpolation-filters="sRGB" filterUnits="userSpaceOnUse"><feFlood flood-opacity="0" result="BackgroundImageFix"/><feColorMatrix in="SourceAlpha" values="0 0 0 0 0 0 0 0 0 0 0 0 0 0 0 0 0 0 127 0"/><feMorphology in="SourceAlpha" operator="dilate" radius="3.056" result="effect1_dropShadow"/><feOffset/><feGaussianBlur stdDeviation="4.584"/><feColorMatrix values="0 0 0 0 1 0 0 0 0 1 0 0 0 0 1 0 0 0 0.25 0"/><feBlend in2="BackgroundImageFix" result="effect1_dropShadow"/><feBlend in="SourceGraphic" in2="effect1_dropShadow" result="shape"/></filter><filter id="f" width="49.9" height="49.9" x="1250" y="661" color-interpolation-filters="sRGB" filterUnits="userSpaceOnUse"><feFlood flood-opacity="0" result="BackgroundImageFix"/><feColorMatrix in="SourceAlpha" values="0 0 0 0 0 0 0 0 0 0 0 0 0 0 0 0 0 0 127 0"/><feMorphology in="SourceAlpha" operator="dilate" radius="5" result="effect1_dropShadow"/><feOffset/><feGaussianBlur stdDeviation="7.5"/><feColorMatrix values="0 0 0 0 1 0 0 0 0 1 0 0 0 0 1 0 0 0 0.25 0"/><feBlend in2="BackgroundImageFix" result="effect1_dropShadow"/><feBlend in="SourceGraphic" in2="effect1_dropShadow" result="shape"/></filter><filter id="g" width="30.497" height="30.497" x="922.777" y="797.701" color-interpolation-filters="sRGB" filterUnits="userSpaceOnUse"><feFlood flood-opacity="0" result="BackgroundImageFix"/><feColorMatrix in="SourceAlpha" values="0 0 0 0 0 0 0 0 0 0 0 0 0 0 0 0 0 0 127 0"/><feMorphology in="SourceAlpha" operator="dilate" radius="3.056" result="effect1_dropShadow"/><feOffset/><feGaussianBlur stdDeviation="4.584"/><feColorMatrix values="0 0 0 0 1 0 0 0 0 1 0 0 0 0 1 0 0 0 0.25 0"/><feBlend in2="BackgroundImageFix" result="effect1_dropShadow"/><feBlend in="SourceGraphic" in2="effect1_dropShadow" result="shape"/></filter><filter id="h" width="30.497" height="30.497" x="237.777" y="1051.78" color-interpolation-filters="sRGB" filterUnits="userSpaceOnUse"><feFlood flood-opacity="0" result="BackgroundImageFix"/><feColorMatrix in="SourceAlpha" values="0 0 0 0 0 0 0 0 0 0 0 0 0 0 0 0 0 0 127 0"/><feMorphology in="SourceAlpha" operator="dilate" radius="3.056" result="effect1_dropShadow"/><feOffset/><feGaussianBlur stdDeviation="4.584"/><feColorMatrix values="0 0 0 0 1 0 0 0 0 1 0 0 0 0 1 0 0 0 0.25 0"/><feBlend in2="BackgroundImageFix" result="effect1_dropShadow"/><feBlend in="SourceGraphic" in2="effect1_dropShadow" result="shape"/></filter><filter id="i" width="30.497" height="30.497" x="1274.78" y="1325.78" color-interpolation-filters="sRGB" filterUnits="userSpaceOnUse"><feFlood flood-opacity="0" result="BackgroundImageFix"/><feColorMatrix in="SourceAlpha" values="0 0 0 0 0 0 0 0 0 0 0 0 0 0 0 0 0 0 127 0"/><feMorphology in="SourceAlpha" operator="dilate" radius="3.056" result="effect1_dropShadow"/><feOffset/><feGaussianBlur stdDeviation="4.584"/><feColorMatrix values="0 0 0 0 1 0 0 0 0 1 0 0 0 0 1 0 0 0 0.25 0"/><feBlend in2="BackgroundImageFix" result="effect1_dropShadow"/><feBlend in="SourceGraphic" in2="effect1_dropShadow" result="shape"/></filter><clipPath id="a"><path fill="#fff" d="M0 0h1440v1498H0z"/></clipPath></defs></svg>