<svg fill="none" preserveAspectRatio="none" viewBox="0 0 1440 838"><g clip-path="url(#a)"><g filter="url(#b)"><path fill="#E49D75" d="M223.597 149.536l84.035 59.542 78.465 10.458 157.5-70 207.5 70 136.5 17 114.503-27.458 156.5 62.958 114.5-35.5 174.5 76.042V680.96H1.941L0 412.828V209.079l99.097 10.457 124.5-70z"/><path fill="url(#c)" d="M223.597 149.536l84.035 59.542 78.465 10.458 157.5-70 207.5 70 136.5 17 114.503-27.458 156.5 62.958 114.5-35.5 174.5 76.042V680.96H1.941L0 412.828V209.079l99.097 10.457 124.5-70z"/></g><g opacity=".5"><path fill="#A33497" d="M1439.6 309.036l-166.5-72.5 87 240L1439.6 461V309.036z"/><path fill="url(#d)" d="M1439.6 309.036l-166.5-72.5 87 240L1439.6 461V309.036z"/></g><g opacity=".5"><path fill="#A33497" d="M1158.6 272.036l-156.5-63 67.5 198.5 109.5-22-55-107 34.5-6.5z"/><path fill="url(#e)" d="M1158.6 272.036l-156.5-63 67.5 198.5 109.5-22-55-107 34.5-6.5z"/></g><g opacity=".5"><path fill="#A33497" d="M308.598 209.036l-85-59.5 112 217 50.5-148.5-77.5-9z"/><path fill="url(#f)" d="M308.598 209.036l-85-59.5 112 217 50.5-148.5-77.5-9z"/></g><path fill="#52004A" d="M192.598 340.036l142.5 25-68-132.5-44-83-30.5 190.5zm719.499 100l78.5-77 79.003 42.5-68-197.5-89.503 232z"/><g opacity=".5"><path fill="#A33497" d="M97.598 219.036L0 209.536v72.5l161.098 52-63.5-115z"/><path fill="url(#g)" d="M97.598 219.036L0 209.536v72.5l161.098 52-63.5-115z"/></g><path fill="#A0346F" d="M1441.94 678.328H0v-342.5l57.597-72.792 108.5 41.5 153.5-105 86 63.5 303-253.5 76 98 61.5-42L1066.1 335.828l160-31.292 121 62.792 94.84 94v217z"/><path fill="#DA6464" d="M1443 744H0V526.684l104.071-34.55L221.152 400l275.691 37.555L722 526.684l387.77-111.161 187.63 22.032 145.6 89.129V744z"/><path fill="#C44975" d="M1443.1 835.773l-755.003 2.555L0 836.773V539.328l130.097-13.639 127-47.361 235-18.792 160 46 226-46 297.003 18.792 268 94.721v262.724z"/><path fill="#DD5E8C" d="M723.596 468.536l-15-459 76.5 98-36 3-25.5 358z" opacity=".2"/><path fill="#B83E81" d="M549.096 303.536l174 162-15-456-159 294z" opacity=".2"/><path fill="#D15686" d="M549.096 304.536l179 166.5-187-60.5-19.5-78.5-45-27.5h72.5z" opacity=".3"/><path fill="#D15686" d="M405.596 262.536l129 153.5 15.5 44-54-21.5-108.5-13.5 5.5-42.5-45.5-27 13.5-15-33-63.5-8.5-77.5 86 63zm940.504 103l91 86 35 101-54-21.5-108.5-13.5 5.5-42.5-45.5-27 3.5-61-23-17.5-23.5-65 119.5 61zm-1181.504-60.5l42.5 9-16.5 35 31.5 50-48.5 38-20-52-29.5-30.5-21.5-23-27-26.5-18.5-41.5 107.5 41.5z" opacity=".8"/><path fill="#B83E81" d="M1043.6 374.536l-45.003 55.5-40-169.5 109.003 74.5-24 39.5z" opacity=".4"/><path fill="#B83E81" d="M319.096 199.536l9.5 76.5 33.5 64.5-14 15 45 25.5-5 43.5-74-11.5-18.5-104 15-54-4-38.5 12.5-17zm909.504 106.5l20.5 64.5-15.5 19.5-10 38-116.5-10 121.5-112z"/><path fill="#D15686" d="M915.097 391.536l-70.5-329 221.503 272-108.503-75-42.5 132z" opacity=".2"/></g><defs><linearGradient id="c" x1="312.632" x2="311.597" y1="133.078" y2="535.536" gradientUnits="userSpaceOnUse"><stop offset=".176" stop-color="#8E1682"/><stop offset="1"/></linearGradient><linearGradient id="d" x1="1271.1" x2="1407.1" y1="236.536" y2="481.536" gradientUnits="userSpaceOnUse"><stop stop-color="#FF73F0"/><stop offset="1" stop-color="#721868"/></linearGradient><linearGradient id="e" x1="1004.1" x2="1140.1" y1="209.536" y2="454.536" gradientUnits="userSpaceOnUse"><stop stop-color="#FF73F0"/><stop offset="1" stop-color="#721868"/></linearGradient><linearGradient id="f" x1="409.598" x2="545.598" y1="238.036" y2="483.036" gradientUnits="userSpaceOnUse"><stop stop-color="#FF73F0"/><stop offset="1" stop-color="#721868"/></linearGradient><linearGradient id="g" x1="188.098" x2="324.098" y1="298.036" y2="543.036" gradientUnits="userSpaceOnUse"><stop stop-color="#FF73F0"/><stop offset="1" stop-color="#721868"/></linearGradient><clipPath id="a"><path fill="#fff" d="M0 0h1440v838H0z"/></clipPath><filter id="b" width="1886.76" height="1886.76" x="-244.97" y="-472.97" color-interpolation-filters="sRGB" filterUnits="userSpaceOnUse"><feFlood flood-opacity="0" result="BackgroundImageFix"/><feColorMatrix in="SourceAlpha" values="0 0 0 0 0 0 0 0 0 0 0 0 0 0 0 0 0 0 127 0"/><feOffset/><feGaussianBlur stdDeviation="5"/><feColorMatrix values="0 0 0 0 1 0 0 0 0 1 0 0 0 0 1 0 0 0 0.25 0"/><feBlend in2="BackgroundImageFix" result="effect1_dropShadow"/><feBlend in="SourceGraphic" in2="effect1_dropShadow" result="shape"/></filter></defs></svg>