<svg fill="none" viewBox="0 0 121 46"><path fill="#F7A501" fill-rule="evenodd" d="M115.641 2.954c.238-.037.38-.007.427.09.306.36.218 1.539-.263 3.537-.426.792-.984 1.132-1.674 1.02-.043-1.481.299-2.899 1.026-4.253.105-.227.266-.359.484-.394zm-1.379 12.095l.302.04.21-.015.87.39.359-.025-.058.034c.184.047.326.067.425.06.121.012.183.038.186.078.487.086.827.072 1.019-.042.183.026.343.041.479.047.15.007.272.002.366-.015.119-.009.477-.194 1.074-.557a5.97 5.97 0 00.873-1.264c.137-.338.245-.626.326-.862.101-.296.158-.511.17-.646.042-.263-.065-.517-.323-.76-.558-.521-1.062-.426-1.514.287l-.711 1.012c-.166.212-.445.372-.838.48-.395.088-.716.09-.962.007-.246-.083-.59-.27-1.032-.56-.172-.168-.416-.642-.731-1.422-.297-.801-.46-1.421-.491-1.86.162.03.307.054.436.069.179.021.326.028.443.02.199-.014.33-.013.39.003l.689-.049c.26-.018.427-.05.505-.095.159-.011.447-.192.864-.542.256-.358.514-.828.773-1.407.336-.926.513-1.56.529-1.902l.062-1.267c-.139-1.113-.416-1.926-.832-2.438l-.1-.143c-.329-.398-1.102-.695-2.318-.89-.508-.086-.83-.113-.969-.083l-.416.132c-.143.047-.26.088-.35.122-.155.058-.231.097-.23.116-.482.274-.925.686-1.327 1.236l-.431.721c-.019.302-.112.55-.279.742-.573 1.543-.877 2.507-.91 2.89-.023.164-.033.38-.029.648.003.197.013.422.031.675l.023.226.034.274a7.464 7.464 0 00.072.464c.014.059.026.105.038.137.049.117.204.618.466 1.502.137.23.216.506.238.825l.565 1.614c.409.477.735.851.979 1.122.134.148.242.265.326.351.067.095.16.14.279.13l.45.39zM103.095 2.297c.639-.606 1.681-.759 3.126-.459a2.711 2.711 0 01.816.503c.055.048.109.098.161.15.156.21.289.552.403 1.025.113.473.158.971.134 1.494-.004.522-.112.98-.325 1.376-.194.375-.576.642-1.146.802-.419.03-.688-.082-.806-.334-.206-.367-.269-.693-.188-.98.03-.423-.065-.917-.285-1.483-.043-.038-.143-.05-.303-.04l-.313.684c-.034.083-.162.693-.384 1.831-.202 1.117-.302 1.826-.301 2.127l-.003.234-.01.227-.011.173-.013.15c.097 1.377.264 2.337.503 2.882.238.525.46.84.667.946a.245.245 0 00.106.044c.091.02.227.023.41.01.299-.021.612-.123.94-.307.285-.24.543-.549.778-.926-.003-.045.048-.107.152-.186.079-.06.19-.13.331-.209l.224-.256c.732-.131 1.143.16 1.233.876.054.197.01.42-.133.671l-.05.145c-.058.155-.102.241-.132.259.004.055-.11.303-.34.742-.102.193-.226.424-.372.691-.199.014-.336.064-.41.149-.359.326-.81.468-1.355.425a.557.557 0 00-.181-.017 2.618 2.618 0 01-.258-.016l-.206-.02-.474-.049-.419.03c-.527-.084-.886-.19-1.075-.316-.243-.043-.532-.153-.865-.33l-.449-.39a.54.54 0 01-.105-.049 3.864 3.864 0 01-.302-.193c-.192-.167-.311-.29-.356-.366-.028-.099-.107-.234-.239-.405a1.239 1.239 0 01-.188-.528l-.191-.588a1.49 1.49 0 00-.047-.303l-.017-.049-.021-.045-.016-.024-.02-.022a1.71 1.71 0 00-.113-.323l-.016-.176-.031-.243c-.019-.141-.045-.3-.076-.474-.102-.615-.08-1.007.069-1.178.019-.001-.013-.18-.098-.534l-.075-1.078a2.787 2.787 0 01.028-.572 7.348 7.348 0 01.15-.734c.002-.26.098-.618.287-1.072l.123-.4c.017-.322.164-.663.439-1.023l.411-.57.318-.623c.216-.336.519-.588.909-.756zM90.273 6.382c.057.236.091.444.104.624l.38 1.567c-.025.223-.004.371.061.447.052.27.084.476.097.617.01.118.008.19-.008.219a.094.094 0 00-.017.039.377.377 0 000 .128c.007.053.022.117.043.192.051.177.09.435.114.774.043.338 0 .581-.13.73.054.197.087.386.1.565.011.16.063.617.156 1.373.092.735.168 1.11.23 1.126l.203.347.15.41a.414.414 0 00.079.136l.106.138.081.099c.048.117.156.21.32.278l.406.212c.265.623.766.619 1.503-.014l.087-.008.096-.012a.97.97 0 00.249-.065c.063-.029.105-.063.126-.105.12-.289.186-.494.198-.615.012-.101-.005-.501-.054-1.2l-.09-1.286c-.06-1.139-.106-1.807-.14-2.005-.02-.127-.038-.3-.051-.516a15.85 15.85 0 01-.023-.532c-.013-.48-.011-.74.006-.782l.495-1.087c.112-.128.322-.283.63-.465l1.47-1.336c.228-.176.362-.266.402-.269.674-.107 1.068-.215 1.18-.323.133-.11.126-.35-.02-.72-.148-.39-.317-.66-.507-.807a.902.902 0 00-.439-.24c-.23-.144-.702-.161-1.417-.051-.491.135-.988.34-1.49.615l-.443.543c-.149.181-.273.33-.373.445a3.748 3.748 0 01-.211.227c-.043-.318-.041-.729.004-1.233.063-.526.112-.83.146-.913-.24-.264-.43-.41-.572-.44a10.473 10.473 0 00-.54-.102l-.188-.026a2.515 2.515 0 00-.215-.017c-.468-.108-.74-.12-.814-.034a3.193 3.193 0 00-.297.094l-.113.041-.236.09a7.012 7.012 0 00-.421.421c-.254.379-.378.618-.372.718a.46.46 0 00-.064.145 1.483 1.483 0 00-.038.273c-.004.106-.002.23.008.37-.03.163-.036.344-.023.543.051.157.072.306.062.447l.014.21zM86.66 7.807l.07.567c.001.023.019.135.052.334.05.306.136.819.259 1.538l.025.36c.034.479.163 1.191.39 2.138.03.419.29 1.132.781 2.14.105.053.184.188.24.405l-.01.301c.048.097.006.21-.126.34.01.14-.175.223-.554.249-.379.027-.617.063-.714.11-.097.047-.258.038-.483-.026-.077.045-.322-.018-.736-.19a.439.439 0 01-.272-.174.954.954 0 01-.093-.14 1.53 1.53 0 01-.09-.195l-.28-.552a1.613 1.613 0 00-.366-.937.897.897 0 00-.057-.22l-.047-.118-.035-.081-.049-.109c-.097-.254-.167-.389-.209-.406-.143.812-.35 1.448-.618 1.908a.338.338 0 01-.021.136.91.91 0 01-.133.235l-.26.59c.003.04-.079.156-.246.348-.101.268-.362.416-.781.445-.379.027-.845-.04-1.398-.203-.14-.01-.426-.08-.856-.21-.118.028-.31.011-.575-.05a6.09 6.09 0 00-.308-.097l-.083-.02a.174.174 0 00-.039-.004 1.322 1.322 0 00-.167-.115l-.114-.067-.158-.088-.547-.503a1.264 1.264 0 01-.138-.26c-.053-.178-.071-.296-.056-.358a.546.546 0 00.007-.093c0-.067-.01-.145-.03-.236a.975.975 0 010-.421 8.088 8.088 0 01.03-1.325.663.663 0 01-.046-.208c-.005-.08.024-.232.088-.457l-.032-.13a.547.547 0 01-.012-.077l.068-1.178c-.02-.28-.024-.48-.012-.6l-.031-.45a1.41 1.41 0 00.006-.33l.05-1.448c-.015-.22-.015-.36 0-.42l-.02-.3c.037-.043.046-.204.026-.483l.21-.857.185-.374c.014-.08.118-.178.31-.292.306-.222.757-.354 1.356-.395.242.023.508.104.799.244.033-.013.093-.01.182.012.067.016.149.043.245.079.412.151.467.659.167 1.522-.042.544-.062.826-.061.846-.069.165-.1.298-.093.398-.074.646-.11.99-.108 1.03.074-.086.052.036-.065.365l-.042 1.116a5.024 5.024 0 00-.068 1.598l-.093.398c.026.098.038.408.035.93a.373.373 0 01.074.205l.047.237a.182.182 0 00-.004.076c.003.022.01.043.022.064l.024.038c.043.037.155.05.334.037.197-.034.364-.096.498-.186.134-.187.243-.375.327-.565.077-.173.133-.347.168-.522.074-.386.108-.609.104-.669.28-.881.454-1.395.524-1.54.062-.546.189-1.176.38-1.891-.048-.097-.062-.296-.043-.598l.279-1.614c.158-.312.235-.497.231-.557a.852.852 0 01.062-.249l.04-.116.06-.155.05-.128.089-.215c-.006-.08.043-.244.145-.492.036-.066.082-.133.137-.2.057-.068.124-.136.201-.205.052-.046.108-.092.168-.138l.11-.078.088-.06.09-.006c.437-.07.82-.037 1.15.1a.34.34 0 01.03.069c.03.08.049.196.06.346.027.098.056.237.088.415.033.178.069.396.107.654l.02.3-.073.666c.194.488.25.985.164 1.492zm-17.7 6.29a13.71 13.71 0 01.014-1.955c.265-1.362.75-2.6 1.454-3.711.166-.212.215-.376.146-.491l.247.103c.08.01.15.026.211.045a.67.67 0 01.166.074c.062.04.103.09.123.146l.073.176c.128.111.215.356.261.733.047.378.057.658.03.84l-.004.083c-.001.07.002.131.008.183a.514.514 0 00.021.093.897.897 0 00-.012.272l-.052.966c.023.34-.012.552-.106.639-.076.065-.068.165.02.3a3.48 3.48 0 00-.076.317c-.018.1-.021.167-.007.2a1.077 1.077 0 01-.166.221.759.759 0 01-.122.4c-.037.043-.088.156-.156.341a1.389 1.389 0 01-.181.305c-.154.212-.397.502-.729.872.01.14-.121.279-.392.418a1.417 1.417 0 01-.221.046.501.501 0 01-.199-.016c-.063-.056-.112-.173-.144-.351-.097-.234-.166-.65-.207-1.249zm-2.128-5.475a.974.974 0 00-.147.462c-.109.168-.16.442-.154.822.005.36-.017.613-.067.757a6.654 6.654 0 00-.044 1.086c.02.279.02.59.005.932-.017.342-.01.562.015.66-.008.161-.01.272-.006.331l.023.33c-.017.322-.003.531.044.628.013.18.006.37-.02.573l.054.778.05.164a.797.797 0 01.031.131l.22.586c.007.08.044.178.112.293.17.128.347.236.533.323l.676.194.849.09c.53.124.834.183.914.178.083-.038.2-.042.35-.01.131.028.289.082.472.163l.032-.002c.034 0 .067.003.1.01l.053.013.06.022a.794.794 0 00.39.002l-.237.047c.245.063.387.093.427.09.06-.004.117-.058.17-.162l.36.005.218-.346c.202-.255.445-.652.728-1.194.185-.213.363-.526.535-.94.052-.07.088-.128.11-.172a.268.268 0 00.018-.045.107.107 0 00.005-.032l-.013-.18c.093-.106.139-.18.136-.22l.41-1.02c.234-1.22.349-1.88.342-1.98.03-.162.022-.252-.019-.269-.01-.14.003-.24.04-.303a.394.394 0 00.047-.155c.014-.096.016-.226.004-.39l.037-.333c-.071-1.018-.432-2.176-1.085-3.473a.899.899 0 00-.58-.561 3.53 3.53 0 00-.795-.606 4.745 4.745 0 00-.995-.472c-.414-.192-.717-.22-.908-.087-.41-.112-.925-.035-1.548.229-.555.099-.826.228-.814.387-.253.118-.427.351-.524.699a3.647 3.647 0 01-.208.465l-.056.142-.058.153a4.012 4.012 0 00-.11.353c-.037.042-.043.103-.018.181-.043-.037-.073-.035-.09.007a5.078 5.078 0 00-.116.489l.042.177zm-11.205-.51l-.047-.237c-.007-.1.043-.253.148-.461a4.2 4.2 0 01.41-.6l.238-.3.094-.114.114-.088.083-.059a2.16 2.16 0 01.196-.12c.095-.05.186-.087.272-.11.06-.05.153-.102.28-.157a5.399 5.399 0 01.597-.205l.329-.024a.91.91 0 01.271.011c.062.016.274.041.637.076a4.418 4.418 0 011.69.092l.214.133.133.084c.084.054.2.136.348.246.166.089.355.206.565.352.23.124.535.333.916.627.765.608 1.041 1.26.83 1.957l-.23.588a1.279 1.279 0 01-.309.265.837.837 0 01-.629.1l-.27-.01c-.229-.105-.425-.331-.59-.68-.19-.148-.317-.25-.382-.305-.597-.52-1.22-.837-1.87-.952a1.24 1.24 0 00-.59.254 2.121 2.121 0 00-.36.354c-.296.362-.255.8.122 1.315.012.18.04.288.082.325.043.037.144.18.3.43.283.3.5.556.656.766.028.065.06.124.094.18l.018.028.036.052.036.044.044.05.041.042.046.04a.915.915 0 00.206.129l.206.377c.062.015.353.165.875.45.057.041.116.093.174.156l.045.048.074.087c.032.041.064.085.096.132l1.258 1.206c.068.06.139.139.21.238l.043.062.058.092.087.151c.256.223.392.434.406.634.034.198.01.42-.073.666.014.22-.073.406-.262.56a4.77 4.77 0 00-.395.388c-.074.086-.388.328-.941.728-.032.102-.476.364-1.328.784l-.881.302-.108.019-.16.03c-.157.051-.415.09-.773.115l-.24.016c-.097.047-.325.083-.684.108-.64.025-1.209-.086-1.707-.331-.103-.033-.166-.079-.19-.138-.444-.61-.663-.865-.656-.766a.618.618 0 01-.106-.181 2.251 2.251 0 01-.115-.405c-.04-.297-.074-.476-.097-.534-.027-.079-.004-.19.066-.336.157-.331.515-.377 1.074-.135l.403.183c.192.166.42.26.681.283.14-.03.308-.042.51-.036.2.006.39-.007.568-.04l.492-.275c.018-.021.078-.035.178-.042.098-.027.245-.078.44-.151.566-.22.775-.516.63-.886l-.234-.345c-.252-.443-.515-.756-.789-.937l-.25-.133c-.851-.722-1.526-1.337-2.023-1.843a5.047 5.047 0 01-.412-.302c-.191-.167-.353-.457-.481-.869-.207-.367-.325-.619-.354-.757l-.04-.569a5.535 5.535 0 00-.055-.357 2.968 2.968 0 01-.024-.165l-.01-.115a1.616 1.616 0 01-.002-.229c.03-.162.02-.282-.024-.359-.026-.078-.002-.31.071-.696zm-25.861.967c-.047-.097-.19-.127-.428-.09-.218.035-.379.167-.483.394-.728 1.354-1.07 2.772-1.027 4.252.69.112 1.247-.227 1.673-1.019.482-1.998.57-3.177.265-3.537zm-1.504 12.044l-.304-.039-.448-.39a.294.294 0 01-.28-.13c-.238-.244-.672-.735-1.305-1.473l-.565-1.614a2.432 2.432 0 00-.024-.215l-.013-.066-.015-.077-.015-.056-.02-.066a1.542 1.542 0 00-.151-.345c-.262-.884-.417-1.385-.466-1.502-.05-.137-.105-.504-.167-1.1l-.021-.374a8.815 8.815 0 01-.011-.459 3.78 3.78 0 01.03-.49c.034-.384.336-1.348.91-2.891.168-.193.26-.44.28-.742l.43-.721c.403-.55.845-.962 1.328-1.236-.003-.04.329-.163.996-.37.138-.03.46-.003.967.082 1.217.196 1.99.493 2.319.89l.1.144c.416.512.694 1.325.832 2.438l-.062 1.267c-.016.342-.193.976-.528 1.902-.26.58-.519 1.049-.774 1.407-.417.35-.705.53-.864.542a.527.527 0 01-.15.05 2.41 2.41 0 01-.355.045l-.689.048c-.061-.015-.19-.016-.39-.002s-.493-.016-.879-.09c.031.44.194 1.06.491 1.861.316.78.559 1.254.73 1.422.442.29.786.477 1.033.56.246.083.566.08.962-.007.393-.108.673-.268.838-.48l.712-1.012c.45-.713.955-.809 1.513-.286.13.122.222.247.276.375a.694.694 0 01.047.384c-.023.242-.188.745-.495 1.508-.266.5-.557.921-.875 1.264-.595.363-.954.548-1.073.557-.11.02-.26.023-.45.01a5.675 5.675 0 01-.395-.042c-.192.114-.532.128-1.02.042-.001-.023-.021-.041-.062-.055l-.055-.014-.068-.009c-.1.007-.24-.013-.425-.06l.058-.034-.36.025-.868-.39-.21.014zM18.71 10.784c.019.024.03.11.032.26v.12a23.867 23.867 0 01-.034.884l.025.359a3.965 3.965 0 00-.016.632c-.123.53-.175.935-.155 1.214.012.18-.155.953-.5 2.32-.12.29-.418.772-.891 1.446l-.461.724a5.378 5.378 0 00-.321.248 1.237 1.237 0 00-.121.116.168.168 0 00-.04.06c-.085-.374-.159-.99-.22-1.848l-.022-.33-.03-1.29-.063-.477c.12-.29.178-.454.175-.494-.016-.24.449-1.044 1.396-2.413l.91-1.176c.127-.19.24-.308.336-.355zm-6.416-.152l-.024 1.385c.008.12-.01.3-.052.545l.016.239-.018 1.024-.192 3.712c.007.1-.005.351-.037.755.06 2 .114 3.06.162 3.176.051.157.095.505.133 1.043l.112 1.586.138 1.133c-.022.243.041.579.192 1.01.017.259.097.534.238.825l.494.627a.28.28 0 00.035.11l.028.046.035.044a1.434 1.434 0 00.231.198c.072.175.247.233.524.174l.338.097c.108.083.199.142.27.177.056.026.1.037.135.035.084.054.33.127.737.219a.74.74 0 00.244.035 1.1 1.1 0 00.443-.113l.337-.324.015-.023.009-.02.013-.047a1.41 1.41 0 00.014-.26 7.199 7.199 0 00-.068-.762l-.124-1.345-.182-1.31-.151-2.155c-.11-.714-.135-1.073-.075-1.077.235-.077.81-.327 1.721-.752.818-.639 1.541-1.471 2.171-2.498.277-.36.543-.84.802-1.44.258-.619.425-1.101.5-1.447.066-.206.121-.42.166-.644a9.47 9.47 0 00.142-.55c.05-.145.136-.622.26-1.433.143-.832.203-1.407.181-1.726l-.05-.719a.4.4 0 01-.107-.233c.039-.303-.063-.466-.305-.49-.17-.128-.304-.189-.404-.182l-.28-.13-.094-.025-.047-.016-.055-.023-.034-.018a.219.219 0 01-.057-.046.106.106 0 01-.027-.061l-1.14-.402c-.04.003-.243-.033-.609-.107-.368-.095-.807-.064-1.317.092a.94.94 0 00-.248.113c-.067.047-.098.098-.094.151-.113.108-.375.377-.786.807-.39.428-.595.663-.613.704l-.47.575c-.025-.059-.034-.198-.03-.42a14.18 14.18 0 01-.199-1.55l-.097-.955a6.682 6.682 0 01-.58-.56 14.255 14.255 0 00-.348-.085l-.302-.067-.267-.055c-.366-.075-.644-.045-.835.088l.12-.008a2.032 2.032 0 00-.353.19.66.66 0 00-.247.273c-.034.082-.034.233.002.45.033.199.057.388.07.567l-.125 1.242c.059.257.064.467.015.63zm-7.852 1.27c.635-.104 1.05.238 1.245 1.026.026.078.058.256.097.534.04.278.133.462.28.552.008.12.084.345.227.676.049.117.178.238.387.364.027.68-.041 1.276-.206 1.789.067.095.053.197-.04.303l-.188.735c-.194.956-.57 1.453-1.129 1.493a.72.72 0 01-.745-.34 3.23 3.23 0 01-.614-1.012 4.21 4.21 0 01-.072-.202c-.135-.492-.27-1.285-.408-2.378-.118-1.114-.021-2.033.288-2.757.228-.477.52-.738.878-.783zM.421 14.59l-.013 1.535c.14 1.153.384 2.189.729 3.107.327.96.826 1.636 1.495 2.03.668.375 1.264.584 1.788.627.337.026.708.035 1.111.025.248-.005.509-.018.782-.037.716-.09 1.2-.324 1.456-.703.34-.565.595-1.084.762-1.557.541-1.16.605-2.679.194-4.555.37-.146.505-.646.406-1.502-.053-.457-.127-.803-.224-1.037a5.524 5.524 0 00-.329-.627 18.63 18.63 0 00-.289-.472c-.295-.5-.738-.951-1.327-1.35-.554-.463-1.41-.654-2.566-.573l-.18.012c-1.236.107-2.164.593-2.785 1.458C.8 11.997.465 13.203.42 14.59zm36.007 1.182c-.004.521-.003.822.003.902.097.253.137.541.12.863l.047.238.014.21c.026.358.316.779.87 1.261l.023.046.014.023.011.016.02.021.028.026a.21.21 0 00.052.026l.038.007h.037a.53.53 0 00.077.07l.042.028.049.024.04.015.028.01a.51.51 0 00.076.012l.275.071c.063.036.274.051.635.046.143.05.254.052.33.007a.67.67 0 01.296-.081c.116-.068.193-.104.233-.107l.33-.023c.04-.002.178-.022.416-.059.204-.235.304-.392.298-.472l-.013-.18c-.144-.231-.215-.423-.212-.574a.36.36 0 01.04-.165c.032-.123.054-.385.066-.787a7.867 7.867 0 011.406-4.398l.063.025.173.77c.061.296.144.471.248.524l.002.028.006.027.007.025a.316.316 0 00.05.094c.033.043.078.08.135.113.036.218.087.375.153.47.006.08.065.196.175.349a1 1 0 01.156.198c.05.082.089.17.117.264l.109.263.045.096.06.107.034.044.043.062.032.047c.047.074.1.167.16.28.024.036.056.082.097.137.076.1.181.232.316.395l.282.335c.184.215.401.466.652.753.113.172.258.252.438.24a.55.55 0 00.579.11.75.75 0 00.395.062c.123.032.323.027.601-.012.278-.04.496-.215.654-.527.218-.617.099-1.18-.358-1.689-.34-.277-.71-.853-1.113-1.727-.382-.875-.683-1.877-.902-3.004-.13-.432-.243-1.326-.338-2.683-.147-.671-.396-1.085-.748-1.24l-.244-.044-.192-.167-.03-.008a.657.657 0 00-.107-.007 3.17 3.17 0 00-.194.008 1.928 1.928 0 00-.421-.015 3.35 3.35 0 00-.537.082 4.51 4.51 0 00-.238.033l-.109.02a1.46 1.46 0 00-.238.067c-.105.04-.164.089-.178.144-.033.103-.07.155-.11.158l-.227.196a2.67 2.67 0 01-.445.513l-.027.062-.024.05c-.03.059-.065.126-.107.2l-.074.245c-.145.21-.293.542-.44.993-.15.171-.22.306-.214.406.008.1-.04.274-.143.522a.952.952 0 00-.125.221l-.024.069a.874.874 0 00-.03.173c-.028.162-.11.419-.246.77a7.67 7.67 0 00-.306 1.223l-.122-.021-.128-1.405a3.67 3.67 0 00-.1-.564l-.035-.509-.452-2.585c-.033-.198-.082-.315-.144-.35-.044-.057-.146-.08-.306-.07l-.158-.108c-.02.001-.153-.04-.4-.123-.134-.21-.27-.282-.405-.212a1.557 1.557 0 00-.206-.038 2.49 2.49 0 00-.459-.006.687.687 0 00-.577.341.633.633 0 00-.298.472c-.136.35-.142.852-.015 1.505l.023.33a.806.806 0 00.114.352c.068.096.092.164.075.205l.258 3.26c.059.838.176 1.371.353 1.6zM52.337 38.75l-.054-.082c-.092-.137-.21-.279-.33-.428-.473-.572-1.122-1.355-.559-2.17.291-.42 1.27-1.49 1.967-1.639.506-.106 1.008.15 1.467.754.282.373.6.711.928 1.053.315.332.596.69.866 1.037.291.373.568.725.877 1.034.118.12.243.231.372.342.111.095.226.189.343.285.23.189.46.38.674.584.178.17.348.408.514.635.205.283.416.574.615.707.197.131.3.16.348.16.092 0 .211-.136.414-.377l.077-.093c.149-.174.286-.356.421-.54.184-.25.374-.506.594-.742.805-.864 1.467-1.594 2.042-2.458.103-.155.211-.326.325-.505l.042-.067c.5-.79 1.07-1.69 1.727-2.223.26-.21.553-.317.87-.317.93 0 1.74.916 1.966 1.196.772.961.032 1.742-.509 2.311-.133.14-.264.277-.377.416-.2.248-.411.487-.621.726l-.059.065c-.285.32-.58.651-.84.993-.334.439-.66.887-.983 1.336-.588.813-1.196 1.653-1.864 2.432l-.097.112c-.799.935-1.89 2.213-3.286 2.213a2.23 2.23 0 01-.198-.008c-.482-.043-.892-.297-1.252-.523l-.136-.085-.15-.089c-1.392-.78-2.396-1.848-3.46-2.977-.233-.25-.468-.5-.71-.747l-.16-.164c-.663-.68-1.29-1.324-1.804-2.157z" clip-rule="evenodd"/></svg>