<svg fill="none" viewBox="0 0 1445 1177"><path stroke="#AA4375" stroke-width="15" d="M1438.5 301.001H1240c-11.05 0-20-8.954-20-20v-253c0-11.047-8.95-20-20-20H355c-11.046 0-20 8.954-20 20v319.004c0 11.045 8.954 19.999 20 20h61.5c11.046 0 20 8.955 20 20v113.003c0 11.045-8.954 20-20 20l-187.5.001H112c-11.046 0-20 8.954-20 20v608.501c0 11.05-8.954 20-20 20H0" opacity=".3"/><path stroke="#6858AB" stroke-opacity=".4" stroke-width="15" d="M1444.5 478.014H1380c-11.05 0-20-8.954-20-20v-51c0-11.046-8.95-20-20-20h-28c-11.05 0-20-8.954-20-20v-124.5c0-11.046-8.95-20-20-20h-122c-11.05 0-20-8.954-20-20v-69.5c0-11.046 8.95-20 20-20h294.5" opacity=".3"/><path stroke="#933D74" stroke-width="15" d="M3 55.514h40c11.046 0 20 8.955 20 20v169.5c0 11.046 8.954 20 20 20h63.5c11.046 0 20-8.954 20-20v-82.002c0-11.046 8.954-20 20-20H370c11.046 0 20 8.954 20 20v148.002c0 11.046-8.954 20-20 20H264c-11.046 0-20 8.955-20 20v307c0 11.046-8.954 20-20 20H3m1023-643v27c0 11.046 8.95 20 20 20h28c11.05 0 20 8.955 20 20v166.5c0 11.046-8.95 20-20 20h-42.5c-11.05 0-20-8.954-20-20v-47c0-11.046 8.95-20 20-20h92c11.05 0 20 8.954 20 20v152c0 11.046-8.95 20-20 20H1077c-11.05 0-20 8.954-20 20v26c0 11.046 8.95 20 20 20h81.5c11.05 0 20 8.954 20 20v143c0 11.046 8.95 20 20 20h166c11.05 0 20 8.954 20 20v337c0 11.046 8.95 19.996 20 19.996h33.5" opacity=".3"/><path stroke="#8978CD" stroke-opacity=".4" stroke-width="15" d="M5 501.514h118c11.046 0 20 8.954 20 20v29.5c0 11.046 8.954 20 20 20h105c11.046 0 20-8.954 20-20v-65c0-11.046 8.954-20 20-20h894.5c11.05 0 20 8.954 20 20v90c0 11.046 8.95 20 20 20h39.5c11.05 0 20 8.954 20 20v375.5c0 11.046 8.95 19.996 20 19.996h117.5" opacity=".2"/></svg>