<svg xmlns="http://www.w3.org/2000/svg" width="612" height="461" fill="none" viewBox="0 0 612 461"><g filter="url(#filter0_d)"><rect width="570" height="419" x="21.007" y="11" fill="#271E72" rx="10"/><g opacity=".1"><path stroke="#fff" d="M51.0068 11.0001L51.0069 431"/><path stroke="#fff" d="M171.007 11.0001L171.007 431"/><path stroke="#fff" d="M291.007 11.0001L291.007 431"/><path stroke="#fff" d="M411.007 11.0001L411.007 431"/><path stroke="#fff" d="M531.007 11.0001L531.007 431"/><path stroke="#fff" d="M111.007 11.0001L111.007 431"/><path stroke="#fff" d="M231.007 11.0001L231.007 431"/><path stroke="#fff" d="M351.007 11.0001L351.007 431"/><path stroke="#fff" d="M471.007 11.0001L471.007 431"/><path stroke="#fff" d="M591.007 20C591.007 20 591.508 414.5 591.007 420.5C590.507 426.5 586.007 430 581.507 430"/><path stroke="#fff" d="M21.0068 20L21.0069 421"/><path stroke="#fff" d="M141.007 11.0001L141.007 431"/><path stroke="#fff" d="M261.007 11.0001L261.007 431"/><path stroke="#fff" d="M381.007 11.0001L381.007 431"/><path stroke="#fff" d="M501.007 11.0001L501.007 431"/><path stroke="#fff" d="M81.0068 11.0001L81.0069 431"/><path stroke="#fff" d="M201.007 11.0001L201.007 431"/><path stroke="#fff" d="M321.007 11.0001L321.007 431"/><path stroke="#fff" d="M441.007 11.0001L441.007 431"/><path stroke="#fff" d="M561.007 11.0001L561.007 431"/><path stroke="#fff" d="M591.007 20.5002C590.867 14.9586 587.007 12.0006 583.007 11.0002C579.371 10.0908 32.0066 11 31.0066 10.9997C25.5066 10.9997 20.7939 15.7168 21.0068 20"/><path stroke="#fff" d="M591.007 41.0001L21.0068 41.0001"/><path stroke="#fff" d="M591.007 71.0002L21.0068 71.0002"/><path stroke="#fff" d="M591.007 101L21.0068 101"/><path stroke="#fff" d="M591.007 131L21.0068 131"/><path stroke="#fff" d="M591.007 161L21.0068 161"/><path stroke="#fff" d="M591.007 191L21.0068 191"/><path stroke="#fff" d="M591.007 221L21.0068 221"/><path stroke="#fff" d="M591.007 251L21.0068 251"/><path stroke="#fff" d="M591.007 281L21.0068 281"/><path stroke="#fff" d="M591.007 311L21.0068 311"/><path stroke="#fff" d="M591.007 341L21.0068 341"/><path stroke="#fff" d="M591.007 371L21.0068 371"/><path stroke="#fff" d="M591.007 401L21.0068 401"/><path stroke="#fff" d="M582.007 430L30.0068 430C23.5867 428.382 21.3564 426.49 21.0068 420.5"/></g><g opacity=".5"><g filter="url(#filter1_d)"><line x1="84.007" x2="201.007" y1="71.5" y2="71.5" stroke="#fff" stroke-opacity=".8"/></g><g filter="url(#filter2_d)"><line x1="83.007" x2="111.007" y1="221.5" y2="221.5" stroke="#fff" stroke-opacity=".8"/></g><g filter="url(#filter3_d)"><line x1="111.007" x2="261.007" y1="309.5" y2="309.5" stroke="#fff" stroke-opacity=".8"/></g><g filter="url(#filter4_d)"><line x1="209.007" x2="321.007" y1="191.5" y2="191.5" stroke="#fff" stroke-opacity=".8"/></g><g filter="url(#filter5_d)"><line x1="321.007" x2="441.007" y1="130.5" y2="130.5" stroke="#fff" stroke-opacity=".8"/></g><g filter="url(#filter6_d)"><line x1="440.007" x2="531.007" y1="71.5" y2="71.5" stroke="#fff" stroke-opacity=".8"/></g><g filter="url(#filter7_d)"><line x1="261.007" x2="531.007" y1="250.5" y2="250.5" stroke="#fff" stroke-opacity=".8"/></g><g filter="url(#filter8_d)"><line x1="381.007" x2="531.007" y1="339.5" y2="339.5" stroke="#fff" stroke-opacity=".8"/></g><g filter="url(#filter9_d)"><line x1="291.007" x2="381.007" y1="370.5" y2="370.5" stroke="#fff" stroke-opacity=".8"/></g><g filter="url(#filter10_d)"><line x1="291.007" x2="321.007" y1="339.5" y2="339.5" stroke="#fff" stroke-opacity=".8"/></g><g filter="url(#filter11_d)"><line x1="530.507" x2="530.507" y1="341" y2="71" stroke="#fff" stroke-opacity=".8"/></g><g filter="url(#filter12_d)"><line x1="200.507" x2="200.507" y1="310" y2="71" stroke="#fff" stroke-opacity=".8"/></g><g filter="url(#filter13_d)"><line x1="83.507" x2="83.507" y1="221" y2="71" stroke="#fff" stroke-opacity=".8"/></g><g filter="url(#filter14_d)"><line x1="110.507" x2="110.507" y1="311" y2="221" stroke="#fff" stroke-opacity=".8"/></g><g filter="url(#filter15_d)"><line x1="260.507" x2="260.507" y1="310" y2="250" stroke="#fff" stroke-opacity=".8"/></g><g filter="url(#filter16_d)"><line x1="320.507" x2="320.507" y1="250" y2="130" stroke="#fff" stroke-opacity=".8"/></g><g filter="url(#filter17_d)"><line x1="380.507" x2="380.507" y1="250" y2="130" stroke="#fff" stroke-opacity=".8"/></g><g filter="url(#filter18_d)"><line x1="440.507" x2="440.507" y1="131" y2="71" stroke="#fff" stroke-opacity=".8"/></g><g filter="url(#filter19_d)"><line x1="380.507" x2="380.507" y1="371" y2="339" stroke="#fff" stroke-opacity=".8"/></g><g filter="url(#filter20_d)"><line x1="290.507" x2="290.507" y1="371" y2="339" stroke="#fff" stroke-opacity=".8"/></g><g filter="url(#filter21_d)"><line x1="320.507" x2="320.507" y1="340" y2="250" stroke="#fff" stroke-opacity=".8"/></g></g><circle cx="85.007" cy="70" r="29" fill="#fff" opacity=".1"/><circle cx="85.007" cy="70" r="10" fill="#fff" opacity=".1"/><path fill="#fff" fill-rule="evenodd" d="M90.6719 59.381C87.3227 59.7141 84.7178 62.2416 84.7178 65.312C84.7178 66.7999 85.3332 68.1575 86.3446 69.2028L90.6719 65.4417V59.381Z" clip-rule="evenodd"/><path fill="#fff" fill-rule="evenodd" d="M87.9458 68.6884H85.498C85.2744 68.6884 85.0931 68.8459 85.0931 69.0403V81.6481C85.0931 81.8425 85.2744 82 85.498 82H87.9458C88.1694 82 88.3507 81.8425 88.3507 81.6481V69.0403C88.3507 68.8459 88.1694 68.6884 87.9458 68.6884ZM79.2104 71.4085H76.7627C76.5391 71.4085 76.3578 71.5661 76.3578 71.7604V81.5356C76.3578 81.7299 76.5391 81.8875 76.7627 81.8875H79.2104C79.4341 81.8875 79.6154 81.7299 79.6154 81.5356V71.7604C79.6154 71.5661 79.4341 71.4085 79.2104 71.4085ZM74.8595 74.292H72.4117C72.1881 74.292 72.0068 74.4495 72.0068 74.6439V81.5859C72.0068 81.7803 72.1881 81.9379 72.4117 81.9379H74.8595C75.0831 81.9379 75.2643 81.7803 75.2643 81.5859V74.6439C75.2643 74.4495 75.0831 74.292 74.8595 74.292ZM81.1129 73.2318H83.5606C83.7843 73.2318 83.9655 73.3894 83.9655 73.5837V81.5521C83.9655 81.7465 83.7843 81.904 83.5606 81.904H81.1129C80.8893 81.904 80.708 81.7465 80.708 81.5521V73.5837C80.708 73.3894 80.8893 73.2318 81.1129 73.2318Z" clip-rule="evenodd"/><path fill="#fff" fill-rule="evenodd" d="M86.9274 64.9058C86.2457 64.9058 85.6936 65.3882 85.6936 65.9835C85.6936 66.1139 85.7201 66.239 85.7687 66.3547L83.3886 68.1302C83.1625 67.8798 82.812 67.719 82.4185 67.719C81.8869 67.7191 81.4342 68.0123 81.2606 68.4238L79.5151 67.7714C79.3461 67.3519 78.8882 67.0513 78.35 67.0513C77.6683 67.0513 77.1163 67.5337 77.1163 68.129C77.1163 68.2096 77.1264 68.2881 77.1455 68.3636L74.4471 70.1939C74.2431 70.064 73.9918 69.9874 73.7201 69.9874C73.0384 69.9874 72.4863 70.4698 72.4863 71.0651C72.4863 71.6604 73.0384 72.1428 73.7201 72.1428C74.4018 72.1428 74.9547 71.6604 74.9547 71.0651C74.9547 70.9453 74.9323 70.8301 74.891 70.7224L77.5286 68.9333C77.7467 69.1034 78.0345 69.2067 78.35 69.2067C78.8816 69.2067 79.3349 68.9134 79.5088 68.502L81.2542 69.1543C81.4229 69.5738 81.8803 69.8745 82.4185 69.8745C83.1002 69.8745 83.6531 69.3921 83.6531 68.7968C83.6531 68.7942 83.6531 68.7916 83.6531 68.7891C83.657 68.7864 83.6609 68.7836 83.6647 68.7808L86.2258 66.8702C86.425 66.9906 86.6667 67.0612 86.9274 67.0612C87.6091 67.0612 88.162 66.5788 88.162 65.9835C88.162 65.3882 87.6091 64.9058 86.9274 64.9058Z" clip-rule="evenodd"/><path fill="#fff" fill-rule="evenodd" d="M91.8682 58.0001V64.2145L98.2236 62.6339C97.2478 60.1831 94.8167 58.358 91.8682 58.0001Z" clip-rule="evenodd"/><path fill="#fff" fill-rule="evenodd" d="M98.0363 64.0149L92.2689 65.4324V65.4403H92.2374L92.1329 65.4659L87.498 69.4943C88.5914 70.1833 89.9231 70.5916 91.3646 70.5916C95.0684 70.5916 98.0708 67.9188 98.0708 64.6218C98.0708 64.4169 98.0589 64.2145 98.0363 64.0149Z" clip-rule="evenodd"/><g filter="url(#filter22_d)"><path fill="#fff" d="M51.3418 99.0001H53.5258L54.4618 96.8551H59.4668L60.3898 99.0001H62.5738L58.0888 88.8601H55.8268L51.3418 99.0001ZM55.3068 94.8921L56.9708 91.0961L58.6218 94.8921H55.3068ZM63.6461 99.0001H65.5701V95.5421C65.5701 94.4241 66.1551 93.6961 67.0911 93.6961C67.9231 93.6961 68.4171 94.2941 68.4171 95.2821V99.0001H70.3671V95.1781C70.3671 93.1111 69.5481 92.0321 67.8581 92.0321C66.7791 92.0321 66.0251 92.4871 65.5701 93.2151V92.2401H63.6461V99.0001ZM74.3136 99.2081C75.4706 99.2081 76.1986 98.6881 76.5366 97.8431C76.7056 98.7661 77.4466 99.2861 78.9416 98.9481V97.5701C78.4086 97.6221 78.3046 97.4271 78.3046 96.8681V94.5801C78.3046 92.9811 77.1866 92.0321 75.2106 92.0321C73.2606 92.0321 72.1166 92.9941 72.1166 94.6191H74.0146C74.0146 94.0341 74.4436 93.6961 75.1846 93.6961C75.9906 93.6961 76.3936 94.0211 76.3806 94.5801V94.7881L74.7946 94.9701C72.9226 95.1911 71.8436 95.9581 71.8436 97.1931C71.8436 98.2201 72.5716 99.2081 74.3136 99.2081ZM74.7036 97.7781C74.1056 97.7781 73.7806 97.5051 73.7806 97.0891C73.7806 96.5951 74.4176 96.4131 75.6396 96.2571L76.3026 96.1791C76.1856 97.0891 75.6266 97.7781 74.7036 97.7781ZM80.1754 99.0001H82.0994V88.7301H80.1754V99.0001ZM83.5294 101.6H84.3614C86.0254 101.6 87.1694 101.145 87.8584 99.4941L90.6274 92.2401H88.5994L86.9224 96.7511L84.9984 92.2401H82.9704L85.9084 99.1041C85.4794 99.7151 85.0374 99.9101 84.1924 99.8971H83.5294V101.6ZM96.0193 98.9871V97.2841C94.5763 97.4141 94.5243 97.3101 94.5243 96.1921V93.9951H96.2923V92.2401H94.5243V90.4201H92.6003V92.2401H91.1573V93.9951H92.6003V97.1801C92.5613 99.0911 93.5883 99.1691 96.0193 98.9871ZM98.7204 91.4081C99.4224 91.4081 99.9424 90.8881 99.9424 90.1861C99.9424 89.4841 99.4224 88.9901 98.7204 88.9901C98.0054 88.9901 97.4854 89.4841 97.4854 90.1861C97.4854 90.8881 98.0054 91.4081 98.7204 91.4081ZM97.7454 99.0001H99.6824V92.2401H97.7454V99.0001ZM104.626 99.2081C106.29 99.2081 107.577 98.1031 107.772 96.5431H105.848C105.783 97.1281 105.263 97.5441 104.548 97.5441C103.651 97.5441 103.066 96.7381 103.066 95.6071C103.066 94.4891 103.651 93.6961 104.548 93.6961C105.237 93.6961 105.757 94.1251 105.848 94.7231H107.772C107.577 93.1501 106.29 92.0321 104.626 92.0321C102.546 92.0321 101.129 93.5141 101.129 95.6071C101.129 97.7131 102.546 99.2081 104.626 99.2081ZM112.137 99.2081C114.1 99.2081 115.283 98.3761 115.283 97.0371C115.283 94.0991 110.967 95.4901 110.967 94.1771C110.967 93.6961 111.383 93.3711 112.098 93.3711C112.878 93.3711 113.346 93.7741 113.385 94.4371H115.283C115.166 92.9421 114.022 92.0321 112.215 92.0321C110.226 92.0321 109.03 92.8901 109.03 94.2551C109.03 97.1151 113.359 95.7241 113.359 97.1021C113.359 97.5051 112.93 97.8691 112.189 97.8691C111.383 97.8691 110.798 97.4921 110.772 96.8421H108.861C108.9 98.3241 110.135 99.2081 112.137 99.2081Z"/></g><circle cx="292.007" cy="369" r="29" fill="#24B0FF" opacity=".1"/><circle cx="292.007" cy="369" r="10" fill="#24B0FF" opacity=".3"/><path fill="#fff" fill-rule="evenodd" d="M292.381 368.004C292.381 365.884 294.112 364.165 296.248 364.165C298.383 364.165 300.114 365.884 300.114 368.004C300.114 370.125 298.383 371.843 296.248 371.843C294.112 371.843 292.381 370.125 292.381 368.004Z" clip-rule="evenodd"/><path fill="#fff" fill-rule="evenodd" d="M292.381 368.004C292.381 365.884 294.112 364.165 296.248 364.165C298.383 364.165 300.114 365.884 300.114 368.004C300.114 370.125 298.383 371.843 296.248 371.843C294.112 371.843 292.381 370.125 292.381 368.004Z" clip-rule="evenodd"/><path fill="#fff" fill-rule="evenodd" d="M289.706 378.049C289.706 375.005 292.631 372.539 296.239 372.539C299.848 372.539 302.773 375.005 302.773 378.049C302.773 378.377 302.79 379 302.79 379L289.739 378.966C289.739 378.966 289.706 378.425 289.706 378.049Z" clip-rule="evenodd"/><path fill="#fff" fill-rule="evenodd" d="M289.706 378.049C289.706 375.005 292.631 372.539 296.239 372.539C299.848 372.539 302.773 375.005 302.773 378.049C302.773 378.377 302.79 379 302.79 379L289.739 378.966C289.739 378.966 289.706 378.425 289.706 378.049Z" clip-rule="evenodd"/><path fill="#fff" fill-rule="evenodd" d="M282.515 358C282.235 358 282.007 358.227 282.007 358.507V365.362C282.007 365.642 282.235 365.869 282.515 365.869C282.515 365.869 285.129 365.795 287.015 365.869C287.015 365.869 289.182 368.687 289.182 368.687C289.302 368.844 289.4 368.644 289.4 368.241V365.869H292.086C292.366 365.869 292.593 365.642 292.593 365.362V358.507C292.593 358.227 292.366 358 292.086 358H282.515ZM284.794 361.03C285.292 361.03 285.697 361.434 285.697 361.933C285.697 362.432 285.292 362.837 284.794 362.837C284.295 362.837 283.891 362.432 283.891 361.933C283.891 361.434 284.295 361.03 284.794 361.03ZM287.368 361.075C287.866 361.075 288.271 361.479 288.271 361.978C288.271 362.477 287.866 362.882 287.368 362.882C286.869 362.882 286.465 362.477 286.465 361.978C286.465 361.479 286.869 361.075 287.368 361.075ZM289.874 361.075C290.372 361.075 290.776 361.479 290.776 361.978C290.776 362.477 290.372 362.882 289.874 362.882C289.375 362.882 288.971 362.477 288.971 361.978C288.971 361.479 289.375 361.075 289.874 361.075Z" clip-rule="evenodd"/><path fill="#fff" fill-rule="evenodd" d="M282.515 358C282.235 358 282.007 358.227 282.007 358.507V365.362C282.007 365.642 282.235 365.869 282.515 365.869C282.515 365.869 285.129 365.795 287.015 365.869C287.015 365.869 289.182 368.687 289.182 368.687C289.302 368.844 289.4 368.644 289.4 368.241V365.869H292.086C292.366 365.869 292.593 365.642 292.593 365.362V358.507C292.593 358.227 292.366 358 292.086 358H282.515ZM284.794 361.03C285.292 361.03 285.697 361.434 285.697 361.933C285.697 362.432 285.292 362.837 284.794 362.837C284.295 362.837 283.891 362.432 283.891 361.933C283.891 361.434 284.295 361.03 284.794 361.03ZM287.368 361.075C287.866 361.075 288.271 361.479 288.271 361.978C288.271 362.477 287.866 362.882 287.368 362.882C286.869 362.882 286.465 362.477 286.465 361.978C286.465 361.479 286.869 361.075 287.368 361.075ZM289.874 361.075C290.372 361.075 290.776 361.479 290.776 361.978C290.776 362.477 290.372 362.882 289.874 362.882C289.375 362.882 288.971 362.477 288.971 361.978C288.971 361.479 289.375 361.075 289.874 361.075Z" clip-rule="evenodd"/><g filter="url(#filter23_d)"><path fill="#fff" d="M246.853 398.169C249.648 398.195 251.312 396.531 251.312 393.697V387.86H249.284V393.684C249.284 395.27 248.387 396.206 246.853 396.206C245.319 396.206 244.409 395.27 244.409 393.684V387.86H242.394V393.697C242.394 396.479 244.045 398.143 246.853 398.169ZM256.085 398.208C258.048 398.208 259.231 397.376 259.231 396.037C259.231 393.099 254.915 394.49 254.915 393.177C254.915 392.696 255.331 392.371 256.046 392.371C256.826 392.371 257.294 392.774 257.333 393.437H259.231C259.114 391.942 257.97 391.032 256.163 391.032C254.174 391.032 252.978 391.89 252.978 393.255C252.978 396.115 257.307 394.724 257.307 396.102C257.307 396.505 256.878 396.869 256.137 396.869C255.331 396.869 254.746 396.492 254.72 395.842H252.809C252.848 397.324 254.083 398.208 256.085 398.208ZM263.924 398.208C265.575 398.208 266.862 397.272 267.07 395.803H265.133C265.055 396.271 264.613 396.635 263.937 396.635C262.936 396.635 262.481 396.063 262.39 395.192H267.096V394.568C267.096 392.41 265.718 391.032 263.924 391.032C261.857 391.032 260.427 392.514 260.427 394.607C260.427 396.713 261.857 398.208 263.924 398.208ZM262.403 394.009C262.52 393.229 262.936 392.696 263.846 392.696C264.665 392.696 265.12 393.255 265.159 394.009H262.403ZM268.558 398H270.456V394.347C270.456 393.125 271.743 393.021 273.108 393.021V391.162C271.795 391.162 270.898 391.604 270.456 392.514V391.24H268.558V398ZM279.015 398H280.952V392.995H282.798V391.24H280.952V390.798C280.965 389.745 281.329 389.485 282.226 389.485H282.668V387.73H281.68C279.925 387.704 278.989 388.861 279.015 390.603V391.24H277.429V392.995H279.015V398ZM286.877 398.208C288.528 398.208 289.815 397.272 290.023 395.803H288.086C288.008 396.271 287.566 396.635 286.89 396.635C285.889 396.635 285.434 396.063 285.343 395.192H290.049V394.568C290.049 392.41 288.671 391.032 286.877 391.032C284.81 391.032 283.38 392.514 283.38 394.607C283.38 396.713 284.81 398.208 286.877 398.208ZM285.356 394.009C285.473 393.229 285.889 392.696 286.799 392.696C287.618 392.696 288.073 393.255 288.112 394.009H285.356ZM294.748 398.208C296.399 398.208 297.686 397.272 297.894 395.803H295.957C295.879 396.271 295.437 396.635 294.761 396.635C293.76 396.635 293.305 396.063 293.214 395.192H297.92V394.568C297.92 392.41 296.542 391.032 294.748 391.032C292.681 391.032 291.251 392.514 291.251 394.607C291.251 396.713 292.681 398.208 294.748 398.208ZM293.227 394.009C293.344 393.229 293.76 392.696 294.67 392.696C295.489 392.696 295.944 393.255 295.983 394.009H293.227ZM302.021 398.208C303.087 398.208 303.828 397.805 304.296 397.116V398H306.233V387.73H304.296V392.124C303.828 391.435 303.087 391.032 302.021 391.032C300.318 391.032 299.122 392.514 299.122 394.594C299.122 396.713 300.318 398.208 302.021 398.208ZM302.684 396.544C301.722 396.544 301.046 395.738 301.046 394.607C301.046 393.489 301.722 392.696 302.684 392.696C303.633 392.696 304.309 393.489 304.309 394.607C304.309 395.738 303.633 396.544 302.684 396.544ZM312.15 398.208C313.853 398.208 315.062 396.713 315.062 394.594C315.062 392.514 313.853 391.032 312.15 391.032C311.084 391.032 310.343 391.435 309.875 392.124V387.73H307.951V398H309.875V397.116C310.343 397.805 311.084 398.208 312.15 398.208ZM311.487 396.544C310.538 396.544 309.862 395.738 309.862 394.607C309.862 393.489 310.538 392.696 311.487 392.696C312.449 392.696 313.125 393.489 313.125 394.607C313.125 395.738 312.449 396.544 311.487 396.544ZM318.606 398.208C319.763 398.208 320.491 397.688 320.829 396.843C320.998 397.766 321.739 398.286 323.234 397.948V396.57C322.701 396.622 322.597 396.427 322.597 395.868V393.58C322.597 391.981 321.479 391.032 319.503 391.032C317.553 391.032 316.409 391.994 316.409 393.619H318.307C318.307 393.034 318.736 392.696 319.477 392.696C320.283 392.696 320.686 393.021 320.673 393.58V393.788L319.087 393.97C317.215 394.191 316.136 394.958 316.136 396.193C316.136 397.22 316.864 398.208 318.606 398.208ZM318.996 396.778C318.398 396.778 318.073 396.505 318.073 396.089C318.073 395.595 318.71 395.413 319.932 395.257L320.595 395.179C320.478 396.089 319.919 396.778 318.996 396.778ZM327.667 398.208C329.331 398.208 330.618 397.103 330.813 395.543H328.889C328.824 396.128 328.304 396.544 327.589 396.544C326.692 396.544 326.107 395.738 326.107 394.607C326.107 393.489 326.692 392.696 327.589 392.696C328.278 392.696 328.798 393.125 328.889 393.723H330.813C330.618 392.15 329.331 391.032 327.667 391.032C325.587 391.032 324.17 392.514 324.17 394.607C324.17 396.713 325.587 398.208 327.667 398.208ZM332.199 398H334.123V395.491L334.643 395.062L337.035 398H339.414L335.956 393.944L339.154 391.24H336.684L334.123 393.437V387.73H332.199V398Z"/></g><circle cx="530.007" cy="70" r="29" fill="#F8D07F" opacity=".1"/><circle cx="530.007" cy="70" r="10" fill="#F8D07F" opacity=".3"/><path fill="#fff" fill-rule="evenodd" d="M539.569 74.6222L534.482 74.6222C534.128 74.6222 533.841 74.3532 533.841 74.0214L533.841 68.7895C533.841 68.4576 534.128 68.1886 534.482 68.1886L539.569 68.1886C539.923 68.1886 540.21 68.4576 540.21 68.7895L540.21 74.0214C540.21 74.3532 539.923 74.6222 539.569 74.6222Z" clip-rule="evenodd"/><path fill="#fff" fill-rule="evenodd" d="M539.569 74.6222L534.482 74.6222C534.128 74.6222 533.841 74.3532 533.841 74.0214L533.841 68.7895C533.841 68.4576 534.128 68.1886 534.482 68.1886L539.569 68.1886C539.923 68.1886 540.21 68.4576 540.21 68.7895L540.21 74.0214C540.21 74.3532 539.923 74.6222 539.569 74.6222Z" clip-rule="evenodd"/><path fill="#fff" fill-rule="evenodd" d="M521.209 60.0001H524.905C525.569 60.0001 526.107 60.5381 526.107 61.2018V64.6307C526.107 65.2943 525.569 65.8324 524.905 65.8324H521.209C520.545 65.8324 520.007 65.2943 520.007 64.6307V61.2018C520.007 60.5381 520.545 60.0001 521.209 60.0001Z" clip-rule="evenodd"/><path fill="#fff" fill-rule="evenodd" d="M521.209 60.0001H524.905C525.569 60.0001 526.107 60.5381 526.107 61.2018V64.6307C526.107 65.2943 525.569 65.8324 524.905 65.8324H521.209C520.545 65.8324 520.007 65.2943 520.007 64.6307V61.2018C520.007 60.5381 520.545 60.0001 521.209 60.0001Z" clip-rule="evenodd"/><path fill="#fff" fill-rule="evenodd" d="M521.27 67.3346H524.967C525.631 67.3346 526.169 67.8726 526.169 68.5363V71.9652C526.169 72.6288 525.631 73.1668 524.967 73.1668H521.27C520.606 73.1668 520.068 72.6288 520.068 71.9652V68.5363C520.068 67.8726 520.606 67.3346 521.27 67.3346Z" clip-rule="evenodd"/><path fill="#fff" fill-rule="evenodd" d="M521.27 67.3346H524.967C525.631 67.3346 526.169 67.8726 526.169 68.5363V71.9652C526.169 72.6288 525.631 73.1668 524.967 73.1668H521.27C520.606 73.1668 520.068 72.6288 520.068 71.9652V68.5363C520.068 67.8726 520.606 67.3346 521.27 67.3346Z" clip-rule="evenodd"/><path fill="#fff" fill-rule="evenodd" d="M521.209 75.1671H524.905C525.569 75.1671 526.107 75.7051 526.107 76.3688V79.7977C526.107 80.4614 525.569 80.9994 524.905 80.9994H521.209C520.545 80.9994 520.007 80.4614 520.007 79.7977V76.3688C520.007 75.7051 520.545 75.1671 521.209 75.1671Z" clip-rule="evenodd"/><path fill="#fff" fill-rule="evenodd" d="M521.209 75.1671H524.905C525.569 75.1671 526.107 75.7051 526.107 76.3688V79.7977C526.107 80.4614 525.569 80.9994 524.905 80.9994H521.209C520.545 80.9994 520.007 80.4614 520.007 79.7977V76.3688C520.007 75.7051 520.545 75.1671 521.209 75.1671Z" clip-rule="evenodd"/><path fill="#fff" fill-rule="evenodd" d="M528.757 65.9664C529.061 65.9664 529.307 66.2127 529.307 66.5165V80.3836C529.307 80.6874 529.061 80.9336 528.757 80.9336C528.453 80.9336 528.207 80.6874 528.207 80.3836V66.5165C528.207 66.2127 528.453 65.9664 528.757 65.9664Z" clip-rule="evenodd"/><path fill="#fff" fill-rule="evenodd" d="M528.757 65.9664C529.061 65.9664 529.307 66.2127 529.307 66.5165V80.3836C529.307 80.6874 529.061 80.9336 528.757 80.9336C528.453 80.9336 528.207 80.6874 528.207 80.3836V66.5165C528.207 66.2127 528.453 65.9664 528.757 65.9664Z" clip-rule="evenodd"/><path fill="#fff" fill-rule="evenodd" d="M529.578 66.8014H534.664C535.018 66.8014 535.305 67.0704 535.305 67.4022V72.6341C535.305 72.966 535.018 73.235 534.664 73.235H529.578C529.224 73.235 528.937 72.966 528.937 72.6341V67.4022C528.937 67.0704 529.224 66.8014 529.578 66.8014Z" clip-rule="evenodd"/><path fill="#fff" fill-rule="evenodd" d="M529.578 66.8014H534.664C535.018 66.8014 535.305 67.0704 535.305 67.4022V72.6341C535.305 72.966 535.018 73.235 534.664 73.235H529.578C529.224 73.235 528.937 72.966 528.937 72.6341V67.4022C528.937 67.0704 529.224 66.8014 529.578 66.8014Z" clip-rule="evenodd"/><path fill="#fff" fill-rule="evenodd" d="M528.788 61.0328H540.522C540.752 61.0328 540.938 61.2194 540.938 61.4495C540.938 61.6796 540.752 61.8662 540.522 61.8662H528.788C528.558 61.8662 528.371 61.6796 528.371 61.4495C528.371 61.2194 528.558 61.0328 528.788 61.0328Z" clip-rule="evenodd"/><path fill="#fff" fill-rule="evenodd" d="M528.788 61.0328H540.522C540.752 61.0328 540.938 61.2194 540.938 61.4495C540.938 61.6796 540.752 61.8662 540.522 61.8662H528.788C528.558 61.8662 528.371 61.6796 528.371 61.4495C528.371 61.2194 528.558 61.0328 528.788 61.0328Z" clip-rule="evenodd"/><path fill="#fff" fill-rule="evenodd" d="M528.855 63.4923H540.589C540.819 63.4923 541.006 63.6789 541.006 63.909C541.006 64.1391 540.819 64.3257 540.589 64.3257H528.855C528.625 64.3257 528.438 64.1391 528.438 63.909C528.438 63.6789 528.625 63.4923 528.855 63.4923Z" clip-rule="evenodd"/><path fill="#fff" fill-rule="evenodd" d="M528.855 63.4923H540.589C540.819 63.4923 541.006 63.6789 541.006 63.909C541.006 64.1391 540.819 64.3257 540.589 64.3257H528.855C528.625 64.3257 528.438 64.1391 528.438 63.909C528.438 63.6789 528.625 63.4923 528.855 63.4923Z" clip-rule="evenodd"/><path fill="#fff" fill-rule="evenodd" d="M531.105 77.4669H540.355C540.585 77.4669 540.772 77.6534 540.772 77.8836C540.772 78.1137 540.585 78.3003 540.355 78.3003H531.105C530.875 78.3003 530.688 78.1137 530.688 77.8836C530.688 77.6534 530.875 77.4669 531.105 77.4669Z" clip-rule="evenodd"/><path fill="#fff" fill-rule="evenodd" d="M531.105 77.4669H540.355C540.585 77.4669 540.772 77.6534 540.772 77.8836C540.772 78.1137 540.585 78.3003 540.355 78.3003H531.105C530.875 78.3003 530.688 78.1137 530.688 77.8836C530.688 77.6534 530.875 77.4669 531.105 77.4669Z" clip-rule="evenodd"/><g filter="url(#filter24_d)"><path fill="#fff" d="M484.022 99.0001H486.05V94.7101H491.172V92.8381H486.05V90.6801H491.627V88.8601H484.022V99.0001ZM496.041 99.2081C497.692 99.2081 498.979 98.2721 499.187 96.8031H497.25C497.172 97.2711 496.73 97.6351 496.054 97.6351C495.053 97.6351 494.598 97.0631 494.507 96.1921H499.213V95.5681C499.213 93.4101 497.835 92.0321 496.041 92.0321C493.974 92.0321 492.544 93.5141 492.544 95.6071C492.544 97.7131 493.974 99.2081 496.041 99.2081ZM494.52 95.0091C494.637 94.2291 495.053 93.6961 495.963 93.6961C496.782 93.6961 497.237 94.2551 497.276 95.0091H494.52ZM502.862 99.2081C504.019 99.2081 504.747 98.6881 505.085 97.8431C505.254 98.7661 505.995 99.2861 507.49 98.9481V97.5701C506.957 97.6221 506.853 97.4271 506.853 96.8681V94.5801C506.853 92.9811 505.735 92.0321 503.759 92.0321C501.809 92.0321 500.665 92.9941 500.665 94.6191H502.563C502.563 94.0341 502.992 93.6961 503.733 93.6961C504.539 93.6961 504.942 94.0211 504.929 94.5801V94.7881L503.343 94.9701C501.471 95.1911 500.392 95.9581 500.392 97.1931C500.392 98.2201 501.12 99.2081 502.862 99.2081ZM503.252 97.7781C502.654 97.7781 502.329 97.5051 502.329 97.0891C502.329 96.5951 502.966 96.4131 504.188 96.2571L504.851 96.1791C504.734 97.0891 504.175 97.7781 503.252 97.7781ZM512.786 98.9871V97.2841C511.343 97.4141 511.291 97.3101 511.291 96.1921V93.9951H513.059V92.2401H511.291V90.4201H509.367V92.2401H507.924V93.9951H509.367V97.1801C509.328 99.0911 510.355 99.1691 512.786 98.9871ZM521.207 92.2401H519.283V95.6981C519.283 96.8161 518.698 97.5441 517.762 97.5441C516.93 97.5441 516.436 96.9461 516.436 95.9581V92.2401H514.486V96.0621C514.486 98.1291 515.305 99.2081 516.995 99.2081C518.074 99.2081 518.828 98.7531 519.283 98.0251V99.0001H521.207V92.2401ZM522.917 99.0001H524.815V95.3471C524.815 94.1251 526.102 94.0211 527.467 94.0211V92.1621C526.154 92.1621 525.257 92.6041 524.815 93.5141V92.2401H522.917V99.0001ZM531.435 99.2081C533.086 99.2081 534.373 98.2721 534.581 96.8031H532.644C532.566 97.2711 532.124 97.6351 531.448 97.6351C530.447 97.6351 529.992 97.0631 529.901 96.1921H534.607V95.5681C534.607 93.4101 533.229 92.0321 531.435 92.0321C529.368 92.0321 527.938 93.5141 527.938 95.6071C527.938 97.7131 529.368 99.2081 531.435 99.2081ZM529.914 95.0091C530.031 94.2291 530.447 93.6961 531.357 93.6961C532.176 93.6961 532.631 94.2551 532.67 95.0091H529.914ZM540.903 99.0001H542.84V93.9951H544.686V92.2401H542.84V91.7981C542.853 90.7451 543.217 90.4851 544.114 90.4851H544.556V88.7301H543.568C541.813 88.7041 540.877 89.8611 540.903 91.6031V92.2401H539.317V93.9951H540.903V99.0001ZM545.769 99.0001H547.693V88.7301H545.769V99.0001ZM551.726 99.2081C552.883 99.2081 553.611 98.6881 553.949 97.8431C554.118 98.7661 554.859 99.2861 556.354 98.9481V97.5701C555.821 97.6221 555.717 97.4271 555.717 96.8681V94.5801C555.717 92.9811 554.599 92.0321 552.623 92.0321C550.673 92.0321 549.529 92.9941 549.529 94.6191H551.427C551.427 94.0341 551.856 93.6961 552.597 93.6961C553.403 93.6961 553.806 94.0211 553.793 94.5801V94.7881L552.207 94.9701C550.335 95.1911 549.256 95.9581 549.256 97.1931C549.256 98.2201 549.984 99.2081 551.726 99.2081ZM552.116 97.7781C551.518 97.7781 551.193 97.5051 551.193 97.0891C551.193 96.5951 551.83 96.4131 553.052 96.2571L553.715 96.1791C553.598 97.0891 553.039 97.7781 552.116 97.7781ZM560.955 101.808C563.295 101.808 564.53 100.742 564.53 98.5451V92.2401H562.593V93.0981C562.138 92.4221 561.41 92.0321 560.331 92.0321C558.589 92.0321 557.419 93.5141 557.419 95.6331C557.419 97.7261 558.589 99.0391 560.331 99.0391C561.41 99.0391 562.138 98.6881 562.593 98.0641V98.5451C562.606 99.7671 562.112 100.352 561.046 100.352C560.24 100.352 559.642 100.092 559.577 99.4811H557.64C557.783 101.054 558.94 101.808 560.955 101.808ZM560.981 97.4531C560.019 97.4531 559.343 96.6731 559.343 95.5551C559.343 94.4241 560.019 93.6181 560.981 93.6181C561.943 93.6181 562.606 94.4241 562.606 95.5551C562.606 96.6731 561.943 97.4531 560.981 97.4531ZM569.249 99.2081C571.212 99.2081 572.395 98.3761 572.395 97.0371C572.395 94.0991 568.079 95.4901 568.079 94.1771C568.079 93.6961 568.495 93.3711 569.21 93.3711C569.99 93.3711 570.458 93.7741 570.497 94.4371H572.395C572.278 92.9421 571.134 92.0321 569.327 92.0321C567.338 92.0321 566.142 92.8901 566.142 94.2551C566.142 97.1151 570.471 95.7241 570.471 97.1021C570.471 97.5051 570.042 97.8691 569.301 97.8691C568.495 97.8691 567.91 97.4921 567.884 96.8421H565.973C566.012 98.3241 567.247 99.2081 569.249 99.2081Z"/></g><circle cx="530.007" cy="339" r="29" fill="#FFE81D" opacity=".1"/><circle cx="530.007" cy="339" r="10" fill="#FFE81D" opacity=".3"/><path fill="#fff" fill-rule="evenodd" d="M525.717 338.443L526.806 339.129L525.732 340.833L524.643 340.147L525.717 338.443Z" clip-rule="evenodd"/><path fill="#fff" fill-rule="evenodd" d="M525.717 338.443L526.806 339.129L525.732 340.833L524.643 340.147L525.717 338.443Z" clip-rule="evenodd"/><path fill="#fff" fill-rule="evenodd" d="M531.27 330.77C528.931 329.296 525.837 330.002 524.358 332.348C522.88 334.694 523.577 337.791 525.916 339.265C528.255 340.739 531.35 340.032 532.828 337.686C534.307 335.34 533.609 332.244 531.27 330.77ZM530.512 331.842C532.259 332.943 532.78 335.257 531.675 337.01C530.571 338.762 528.259 339.291 526.511 338.189C524.764 337.088 524.243 334.774 525.347 333.021C526.452 331.268 528.764 330.74 530.512 331.842Z" clip-rule="evenodd"/><path fill="#fff" fill-rule="evenodd" d="M531.27 330.77C528.931 329.296 525.837 330.002 524.358 332.348C522.88 334.694 523.577 337.791 525.916 339.265C528.255 340.739 531.35 340.032 532.828 337.686C534.307 335.34 533.609 332.244 531.27 330.77ZM530.512 331.842C532.259 332.943 532.78 335.257 531.675 337.01C530.571 338.762 528.259 339.291 526.511 338.189C524.764 337.088 524.243 334.774 525.347 333.021C526.452 331.268 528.764 330.74 530.512 331.842Z" clip-rule="evenodd"/><path fill="#fff" fill-rule="evenodd" d="M540.458 336.398C540.458 336.183 540.284 336.009 540.07 336.009H538.737C538.523 336.009 538.349 336.183 538.349 336.398V345.17C538.349 345.384 538.175 345.558 537.961 345.558H537.513C537.298 345.558 537.124 345.384 537.124 345.17V338.038C537.124 337.824 536.95 337.65 536.736 337.65H535.377C535.163 337.65 534.989 337.824 534.989 338.038V345.17C534.989 345.384 534.815 345.558 534.601 345.558H534.18C533.966 345.558 533.792 345.384 533.792 345.17V340.295C533.792 340.081 533.618 339.907 533.404 339.907H532.045C531.83 339.907 531.657 340.081 531.657 340.295V345.17C531.657 345.384 531.483 345.558 531.268 345.558H530.899C530.685 345.558 530.511 345.384 530.511 345.17V342.815C530.511 342.601 530.337 342.427 530.123 342.427H528.764C528.55 342.427 528.376 342.601 528.376 342.815V345.17C528.376 345.384 528.202 345.558 527.988 345.558H527.567C527.352 345.558 527.179 345.384 527.179 345.17V344.096C527.179 343.882 527.005 343.708 526.79 343.708H525.432C525.217 343.708 525.043 343.882 525.043 344.096V345.17C525.043 345.384 524.87 345.558 524.655 345.558H522.441C522.227 345.558 522.053 345.732 522.053 345.947V346.68C522.053 346.895 522.227 347.069 522.441 347.069H540.618C540.833 347.069 541.006 346.895 541.006 346.68V345.832C541.006 345.681 540.884 345.558 540.732 345.558C540.581 345.558 540.458 345.436 540.458 345.284V336.398Z" clip-rule="evenodd"/><path fill="#fff" fill-rule="evenodd" d="M540.458 336.398C540.458 336.183 540.284 336.009 540.07 336.009H538.737C538.523 336.009 538.349 336.183 538.349 336.398V345.17C538.349 345.384 538.175 345.558 537.961 345.558H537.513C537.298 345.558 537.124 345.384 537.124 345.17V338.038C537.124 337.824 536.95 337.65 536.736 337.65H535.377C535.163 337.65 534.989 337.824 534.989 338.038V345.17C534.989 345.384 534.815 345.558 534.601 345.558H534.18C533.966 345.558 533.792 345.384 533.792 345.17V340.295C533.792 340.081 533.618 339.907 533.404 339.907H532.045C531.83 339.907 531.657 340.081 531.657 340.295V345.17C531.657 345.384 531.483 345.558 531.268 345.558H530.899C530.685 345.558 530.511 345.384 530.511 345.17V342.815C530.511 342.601 530.337 342.427 530.123 342.427H528.764C528.55 342.427 528.376 342.601 528.376 342.815V345.17C528.376 345.384 528.202 345.558 527.988 345.558H527.567C527.352 345.558 527.179 345.384 527.179 345.17V344.096C527.179 343.882 527.005 343.708 526.79 343.708H525.432C525.217 343.708 525.043 343.882 525.043 344.096V345.17C525.043 345.384 524.87 345.558 524.655 345.558H522.441C522.227 345.558 522.053 345.732 522.053 345.947V346.68C522.053 346.895 522.227 347.069 522.441 347.069H540.618C540.833 347.069 541.006 346.895 541.006 346.68V345.832C541.006 345.681 540.884 345.558 540.732 345.558C540.581 345.558 540.458 345.436 540.458 345.284V336.398Z" clip-rule="evenodd"/><path fill="#fff" fill-rule="evenodd" d="M521.451 347.964L521.312 347.944C520.917 347.888 520.416 347.575 520.192 347.245L520.098 347.107C519.981 346.934 519.976 346.649 520.088 346.472L524.144 340.037C524.255 339.86 524.489 339.806 524.667 339.918L525.966 340.737C526.144 340.849 526.197 341.083 526.085 341.26L522.029 347.696C521.917 347.873 521.659 347.993 521.451 347.964Z" clip-rule="evenodd"/><path fill="#fff" fill-rule="evenodd" d="M521.451 347.964L521.312 347.944C520.917 347.888 520.416 347.575 520.192 347.245L520.098 347.107C519.981 346.934 519.976 346.649 520.088 346.472L524.144 340.037C524.255 339.86 524.489 339.806 524.667 339.918L525.966 340.737C526.144 340.849 526.197 341.083 526.085 341.26L522.029 347.696C521.917 347.873 521.659 347.993 521.451 347.964Z" clip-rule="evenodd"/><g filter="url(#filter25_d)"><path fill="#fff" d="M500.266 368H502.294V364.23H504.517C505.804 364.23 505.96 364.49 506.129 365.751C506.259 366.687 506.311 367.389 506.571 368H508.716V367.87C508.3 366.934 508.43 366.622 508.209 365.166C508.066 364.269 507.702 363.801 507 363.593C507.962 363.164 508.534 362.319 508.534 361.045C508.534 359.043 507.273 357.86 505.024 357.86H500.266V368ZM502.294 362.462V359.823H504.621C505.869 359.823 506.441 360.317 506.441 361.136C506.441 361.968 505.895 362.462 504.686 362.462H502.294ZM513.402 368.208C515.053 368.208 516.34 367.272 516.548 365.803H514.611C514.533 366.271 514.091 366.635 513.415 366.635C512.414 366.635 511.959 366.063 511.868 365.192H516.574V364.568C516.574 362.41 515.196 361.032 513.402 361.032C511.335 361.032 509.905 362.514 509.905 364.607C509.905 366.713 511.335 368.208 513.402 368.208ZM511.881 364.009C511.998 363.229 512.414 362.696 513.324 362.696C514.143 362.696 514.598 363.255 514.637 364.009H511.881ZM519.802 368H521.895L524.612 361.24H522.597L520.855 365.764L519.113 361.24H517.098L519.802 368ZM528.395 368.208C530.046 368.208 531.333 367.272 531.541 365.803H529.604C529.526 366.271 529.084 366.635 528.408 366.635C527.407 366.635 526.952 366.063 526.861 365.192H531.567V364.568C531.567 362.41 530.189 361.032 528.395 361.032C526.328 361.032 524.898 362.514 524.898 364.607C524.898 366.713 526.328 368.208 528.395 368.208ZM526.874 364.009C526.991 363.229 527.407 362.696 528.317 362.696C529.136 362.696 529.591 363.255 529.63 364.009H526.874ZM533.029 368H534.953V364.542C534.953 363.424 535.538 362.696 536.474 362.696C537.306 362.696 537.8 363.294 537.8 364.282V368H539.75V364.178C539.75 362.111 538.931 361.032 537.241 361.032C536.162 361.032 535.408 361.487 534.953 362.215V361.24H533.029V368ZM548.025 361.24H546.101V364.698C546.101 365.816 545.516 366.544 544.58 366.544C543.748 366.544 543.254 365.946 543.254 364.958V361.24H541.304V365.062C541.304 367.129 542.123 368.208 543.813 368.208C544.892 368.208 545.646 367.753 546.101 367.025V368H548.025V361.24ZM552.973 368.208C554.624 368.208 555.911 367.272 556.119 365.803H554.182C554.104 366.271 553.662 366.635 552.986 366.635C551.985 366.635 551.53 366.063 551.439 365.192H556.145V364.568C556.145 362.41 554.767 361.032 552.973 361.032C550.906 361.032 549.476 362.514 549.476 364.607C549.476 366.713 550.906 368.208 552.973 368.208ZM551.452 364.009C551.569 363.229 551.985 362.696 552.895 362.696C553.714 362.696 554.169 363.255 554.208 364.009H551.452ZM505.258 383.987V382.284C503.815 382.414 503.763 382.31 503.763 381.192V378.995H505.531V377.24H503.763V375.42H501.839V377.24H500.396V378.995H501.839V382.18C501.8 384.091 502.827 384.169 505.258 383.987ZM507.035 384H508.933V380.347C508.933 379.125 510.22 379.021 511.585 379.021V377.162C510.272 377.162 509.375 377.604 508.933 378.514V377.24H507.035V384ZM514.542 384.208C515.699 384.208 516.427 383.688 516.765 382.843C516.934 383.766 517.675 384.286 519.17 383.948V382.57C518.637 382.622 518.533 382.427 518.533 381.868V379.58C518.533 377.981 517.415 377.032 515.439 377.032C513.489 377.032 512.345 377.994 512.345 379.619H514.243C514.243 379.034 514.672 378.696 515.413 378.696C516.219 378.696 516.622 379.021 516.609 379.58V379.788L515.023 379.97C513.151 380.191 512.072 380.958 512.072 382.193C512.072 383.22 512.8 384.208 514.542 384.208ZM514.932 382.778C514.334 382.778 514.009 382.505 514.009 382.089C514.009 381.595 514.646 381.413 515.868 381.257L516.531 381.179C516.414 382.089 515.855 382.778 514.932 382.778ZM523.602 384.208C525.266 384.208 526.553 383.103 526.748 381.543H524.824C524.759 382.128 524.239 382.544 523.524 382.544C522.627 382.544 522.042 381.738 522.042 380.607C522.042 379.489 522.627 378.696 523.524 378.696C524.213 378.696 524.733 379.125 524.824 379.723H526.748C526.553 378.15 525.266 377.032 523.602 377.032C521.522 377.032 520.105 378.514 520.105 380.607C520.105 382.713 521.522 384.208 523.602 384.208ZM528.135 384H530.059V381.491L530.579 381.062L532.971 384H535.35L531.892 379.944L535.09 377.24H532.62L530.059 379.437V373.73H528.135V384ZM537.146 376.408C537.848 376.408 538.368 375.888 538.368 375.186C538.368 374.484 537.848 373.99 537.146 373.99C536.431 373.99 535.911 374.484 535.911 375.186C535.911 375.888 536.431 376.408 537.146 376.408ZM536.171 384H538.108V377.24H536.171V384ZM539.815 384H541.739V380.542C541.739 379.424 542.324 378.696 543.26 378.696C544.092 378.696 544.586 379.294 544.586 380.282V384H546.536V380.178C546.536 378.111 545.717 377.032 544.027 377.032C542.948 377.032 542.194 377.487 541.739 378.215V377.24H539.815V384ZM551.535 386.808C553.875 386.808 555.11 385.742 555.11 383.545V377.24H553.173V378.098C552.718 377.422 551.99 377.032 550.911 377.032C549.169 377.032 547.999 378.514 547.999 380.633C547.999 382.726 549.169 384.039 550.911 384.039C551.99 384.039 552.718 383.688 553.173 383.064V383.545C553.186 384.767 552.692 385.352 551.626 385.352C550.82 385.352 550.222 385.092 550.157 384.481H548.22C548.363 386.054 549.52 386.808 551.535 386.808ZM551.561 382.453C550.599 382.453 549.923 381.673 549.923 380.555C549.923 379.424 550.599 378.618 551.561 378.618C552.523 378.618 553.186 379.424 553.186 380.555C553.186 381.673 552.523 382.453 551.561 382.453Z"/></g><circle cx="115.007" cy="308" r="29" fill="#00FF57" opacity=".1"/><circle cx="115.007" cy="308" r="10" fill="#00FF57" opacity=".3"/><path fill="#fff" fill-rule="evenodd" d="M120 302H105.807C105.243 302 104.786 302.457 104.786 303.02V305.047C104.345 305.114 104.007 305.495 104.007 305.955V311.003C104.007 311.463 104.345 311.844 104.786 311.912V313.56C104.786 314.123 105.243 314.58 105.807 314.58H120C120.564 314.58 121.02 314.123 121.02 313.56V310.373L121.067 310.4L123.752 311.951C123.865 312.016 123.973 312.056 124.073 312.073V312.247C124.073 312.504 124.282 312.714 124.54 312.714C124.798 312.714 125.007 312.504 125.007 312.247V304.35C125.007 304.092 124.798 303.883 124.54 303.883C124.282 303.883 124.073 304.092 124.073 304.35V304.503C123.973 304.521 123.865 304.561 123.753 304.626L121.068 306.176L121.02 306.203V303.02C121.02 302.457 120.564 302 120 302ZM111.078 308.253L111.039 310.56C111.031 311.022 111.352 311.214 111.756 310.99L113.773 309.87L115.791 308.75C116.194 308.525 116.201 308.151 115.805 307.914L113.826 306.727L111.847 305.54C111.451 305.302 111.124 305.484 111.116 305.946L111.078 308.253Z" clip-rule="evenodd"/><path fill="#fff" fill-rule="evenodd" d="M120 302H105.807C105.243 302 104.786 302.457 104.786 303.02V305.047C104.345 305.114 104.007 305.495 104.007 305.955V311.003C104.007 311.463 104.345 311.844 104.786 311.912V313.56C104.786 314.123 105.243 314.58 105.807 314.58H120C120.564 314.58 121.02 314.123 121.02 313.56V310.373L121.067 310.4L123.752 311.951C123.865 312.016 123.973 312.056 124.073 312.073V312.247C124.073 312.504 124.282 312.714 124.54 312.714C124.798 312.714 125.007 312.504 125.007 312.247V304.35C125.007 304.092 124.798 303.883 124.54 303.883C124.282 303.883 124.073 304.092 124.073 304.35V304.503C123.973 304.521 123.865 304.561 123.753 304.626L121.068 306.176L121.02 306.203V303.02C121.02 302.457 120.564 302 120 302ZM111.078 308.253L111.039 310.56C111.031 311.022 111.352 311.214 111.756 310.99L113.773 309.87L115.791 308.75C116.194 308.525 116.201 308.151 115.805 307.914L113.826 306.727L111.847 305.54C111.451 305.302 111.124 305.484 111.116 305.946L111.078 308.253Z" clip-rule="evenodd"/><g filter="url(#filter26_d)"><path fill="#fff" d="M94.5159 337.208C97.1809 337.208 98.7539 335.856 98.7539 333.932C98.7539 329.525 92.5009 332.086 92.5009 329.798C92.5009 328.992 93.1769 328.524 94.4119 328.524C95.6209 328.524 96.3229 329.083 96.4009 330.032H98.6369C98.6369 327.952 96.9079 326.652 94.4509 326.652C91.9679 326.652 90.4079 327.874 90.4079 329.824C90.4079 334.127 96.6479 331.618 96.6479 333.958C96.6479 334.803 95.9069 335.336 94.5679 335.336C93.2029 335.336 92.4229 334.66 92.3839 333.516H90.1089C90.1089 335.843 91.9159 337.208 94.5159 337.208ZM103.581 337.208C105.245 337.208 106.532 336.103 106.727 334.543H104.803C104.738 335.128 104.218 335.544 103.503 335.544C102.606 335.544 102.021 334.738 102.021 333.607C102.021 332.489 102.606 331.696 103.503 331.696C104.192 331.696 104.712 332.125 104.803 332.723H106.727C106.532 331.15 105.245 330.032 103.581 330.032C101.501 330.032 100.084 331.514 100.084 333.607C100.084 335.713 101.501 337.208 103.581 337.208ZM108.114 337H110.012V333.347C110.012 332.125 111.299 332.021 112.664 332.021V330.162C111.351 330.162 110.454 330.604 110.012 331.514V330.24H108.114V337ZM116.632 337.208C118.283 337.208 119.57 336.272 119.778 334.803H117.841C117.763 335.271 117.321 335.635 116.645 335.635C115.644 335.635 115.189 335.063 115.098 334.192H119.804V333.568C119.804 331.41 118.426 330.032 116.632 330.032C114.565 330.032 113.135 331.514 113.135 333.607C113.135 335.713 114.565 337.208 116.632 337.208ZM115.111 333.009C115.228 332.229 115.644 331.696 116.554 331.696C117.373 331.696 117.828 332.255 117.867 333.009H115.111ZM124.503 337.208C126.154 337.208 127.441 336.272 127.649 334.803H125.712C125.634 335.271 125.192 335.635 124.516 335.635C123.515 335.635 123.06 335.063 122.969 334.192H127.675V333.568C127.675 331.41 126.297 330.032 124.503 330.032C122.436 330.032 121.006 331.514 121.006 333.607C121.006 335.713 122.436 337.208 124.503 337.208ZM122.982 333.009C123.099 332.229 123.515 331.696 124.425 331.696C125.244 331.696 125.699 332.255 125.738 333.009H122.982ZM129.137 337H131.061V333.542C131.061 332.424 131.646 331.696 132.582 331.696C133.414 331.696 133.908 332.294 133.908 333.282V337H135.858V333.178C135.858 331.111 135.039 330.032 133.349 330.032C132.27 330.032 131.516 330.487 131.061 331.215V330.24H129.137V337ZM78.2101 353H80.1081V349.347C80.1081 348.125 81.3951 348.021 82.7601 348.021V346.162C81.4471 346.162 80.5501 346.604 80.1081 347.514V346.24H78.2101V353ZM86.7283 353.208C88.3793 353.208 89.6663 352.272 89.8743 350.803H87.9373C87.8593 351.271 87.4173 351.635 86.7413 351.635C85.7403 351.635 85.2853 351.063 85.1943 350.192H89.9003V349.568C89.9003 347.41 88.5223 346.032 86.7283 346.032C84.6613 346.032 83.2313 347.514 83.2313 349.607C83.2313 351.713 84.6613 353.208 86.7283 353.208ZM85.2073 349.009C85.3243 348.229 85.7403 347.696 86.6503 347.696C87.4693 347.696 87.9243 348.255 87.9633 349.009H85.2073ZM94.5994 353.208C96.2634 353.208 97.5504 352.103 97.7454 350.543H95.8214C95.7564 351.128 95.2364 351.544 94.5214 351.544C93.6244 351.544 93.0394 350.738 93.0394 349.607C93.0394 348.489 93.6244 347.696 94.5214 347.696C95.2104 347.696 95.7304 348.125 95.8214 348.723H97.7454C97.5504 347.15 96.2634 346.032 94.5994 346.032C92.5194 346.032 91.1024 347.514 91.1024 349.607C91.1024 351.713 92.5194 353.208 94.5994 353.208ZM102.473 353.208C104.592 353.208 106.087 351.713 106.087 349.607C106.087 347.514 104.592 346.032 102.473 346.032C100.354 346.032 98.8719 347.514 98.8719 349.607C98.8719 351.713 100.354 353.208 102.473 353.208ZM102.473 351.544C101.498 351.544 100.809 350.738 100.809 349.607C100.809 348.489 101.498 347.696 102.473 347.696C103.461 347.696 104.15 348.489 104.15 349.607C104.15 350.738 103.461 351.544 102.473 351.544ZM107.422 353H109.32V349.347C109.32 348.125 110.607 348.021 111.972 348.021V346.162C110.659 346.162 109.762 346.604 109.32 347.514V346.24H107.422V353ZM115.342 353.208C116.408 353.208 117.149 352.805 117.617 352.116V353H119.554V342.73H117.617V347.124C117.149 346.435 116.408 346.032 115.342 346.032C113.639 346.032 112.443 347.514 112.443 349.594C112.443 351.713 113.639 353.208 115.342 353.208ZM116.005 351.544C115.043 351.544 114.367 350.738 114.367 349.607C114.367 348.489 115.043 347.696 116.005 347.696C116.954 347.696 117.63 348.489 117.63 349.607C117.63 350.738 116.954 351.544 116.005 351.544ZM122.235 345.408C122.937 345.408 123.457 344.888 123.457 344.186C123.457 343.484 122.937 342.99 122.235 342.99C121.52 342.99 121 343.484 121 344.186C121 344.888 121.52 345.408 122.235 345.408ZM121.26 353H123.197V346.24H121.26V353ZM124.903 353H126.827V349.542C126.827 348.424 127.412 347.696 128.348 347.696C129.18 347.696 129.674 348.294 129.674 349.282V353H131.624V349.178C131.624 347.111 130.805 346.032 129.115 346.032C128.036 346.032 127.282 346.487 126.827 347.215V346.24H124.903V353ZM136.624 355.808C138.964 355.808 140.199 354.742 140.199 352.545V346.24H138.262V347.098C137.807 346.422 137.079 346.032 136 346.032C134.258 346.032 133.088 347.514 133.088 349.633C133.088 351.726 134.258 353.039 136 353.039C137.079 353.039 137.807 352.688 138.262 352.064V352.545C138.275 353.767 137.781 354.352 136.715 354.352C135.909 354.352 135.311 354.092 135.246 353.481H133.309C133.452 355.054 134.609 355.808 136.624 355.808ZM136.65 351.453C135.688 351.453 135.012 350.673 135.012 349.555C135.012 348.424 135.688 347.618 136.65 347.618C137.612 347.618 138.275 348.424 138.275 349.555C138.275 350.673 137.612 351.453 136.65 351.453ZM144.918 353.208C146.881 353.208 148.064 352.376 148.064 351.037C148.064 348.099 143.748 349.49 143.748 348.177C143.748 347.696 144.164 347.371 144.879 347.371C145.659 347.371 146.127 347.774 146.166 348.437H148.064C147.947 346.942 146.803 346.032 144.996 346.032C143.007 346.032 141.811 346.89 141.811 348.255C141.811 351.115 146.14 349.724 146.14 351.102C146.14 351.505 145.711 351.869 144.97 351.869C144.164 351.869 143.579 351.492 143.553 350.842H141.642C141.681 352.324 142.916 353.208 144.918 353.208Z"/></g><circle cx="202.007" cy="190" r="29" fill="#FF7E7E" opacity=".1"/><circle cx="202.007" cy="190" r="10" fill="#FF7E7E" opacity=".3"/><path fill="#fff" fill-rule="evenodd" d="M195.007 193.878C195.007 192.018 195.772 190.381 196.833 189.023C200.903 183.814 199.078 180 199.078 180C199.078 180 201.613 180.772 203.258 182.965C205.178 185.525 205.191 187.803 205.191 187.803C205.191 187.803 205.093 188.24 205.773 187.356C206.454 186.472 206.814 184.918 206.814 184.918C206.814 184.918 207.58 186.245 207.709 187.532C208.11 191.549 209.72 192.018 209.72 193.878C209.72 196.967 207.819 199.612 205.123 200.704C204.705 200.874 207.539 199.038 206.53 196.192C206.008 194.717 205.792 195.216 204.986 193.32C204.254 191.594 204.602 189.327 204.602 189.327C204.602 189.327 202.099 190.543 201.7 192.672C201.524 193.61 201.582 195.309 201.582 195.309L199.815 192.693C199.815 192.693 198.751 194.184 199.04 195.589C199.41 197.39 200.08 196.873 200.515 198.84C200.762 199.957 200.635 201.037 200.492 200.999C197.335 200.171 195.007 197.297 195.007 193.878Z" clip-rule="evenodd"/><path fill="#fff" fill-rule="evenodd" d="M195.007 193.878C195.007 192.018 195.772 190.381 196.833 189.023C200.903 183.814 199.078 180 199.078 180C199.078 180 201.613 180.772 203.258 182.965C205.178 185.525 205.191 187.803 205.191 187.803C205.191 187.803 205.093 188.24 205.773 187.356C206.454 186.472 206.814 184.918 206.814 184.918C206.814 184.918 207.58 186.245 207.709 187.532C208.11 191.549 209.72 192.018 209.72 193.878C209.72 196.967 207.819 199.612 205.123 200.704C204.705 200.874 207.539 199.038 206.53 196.192C206.008 194.717 205.792 195.216 204.986 193.32C204.254 191.594 204.602 189.327 204.602 189.327C204.602 189.327 202.099 190.543 201.7 192.672C201.524 193.61 201.582 195.309 201.582 195.309L199.815 192.693C199.815 192.693 198.751 194.184 199.04 195.589C199.41 197.39 200.08 196.873 200.515 198.84C200.762 199.957 200.635 201.037 200.492 200.999C197.335 200.171 195.007 197.297 195.007 193.878Z" clip-rule="evenodd"/><g filter="url(#filter27_d)"><path fill="#fff" d="M166.431 219H168.459V214.658H173.373V219H175.401V208.86H173.373V212.708H168.459V208.86H166.431V219ZM180.493 219.208C182.144 219.208 183.431 218.272 183.639 216.803H181.702C181.624 217.271 181.182 217.635 180.506 217.635C179.505 217.635 179.05 217.063 178.959 216.192H183.665V215.568C183.665 213.41 182.287 212.032 180.493 212.032C178.426 212.032 176.996 213.514 176.996 215.607C176.996 217.713 178.426 219.208 180.493 219.208ZM178.972 215.009C179.089 214.229 179.505 213.696 180.415 213.696C181.234 213.696 181.689 214.255 181.728 215.009H178.972ZM187.315 219.208C188.472 219.208 189.2 218.688 189.538 217.843C189.707 218.766 190.448 219.286 191.943 218.948V217.57C191.41 217.622 191.306 217.427 191.306 216.868V214.58C191.306 212.981 190.188 212.032 188.212 212.032C186.262 212.032 185.118 212.994 185.118 214.619H187.016C187.016 214.034 187.445 213.696 188.186 213.696C188.992 213.696 189.395 214.021 189.382 214.58V214.788L187.796 214.97C185.924 215.191 184.845 215.958 184.845 217.193C184.845 218.22 185.573 219.208 187.315 219.208ZM187.705 217.778C187.107 217.778 186.782 217.505 186.782 217.089C186.782 216.595 187.419 216.413 188.641 216.257L189.304 216.179C189.187 217.089 188.628 217.778 187.705 217.778ZM197.239 218.987V217.284C195.796 217.414 195.744 217.31 195.744 216.192V213.995H197.512V212.24H195.744V210.42H193.82V212.24H192.377V213.995H193.82V217.18C193.781 219.091 194.808 219.169 197.239 218.987ZM199.016 219H200.94V215.542C200.94 214.424 201.525 213.696 202.461 213.696C203.293 213.696 203.787 214.294 203.787 215.282V219H205.737V215.542C205.737 214.424 206.322 213.696 207.258 213.696C208.09 213.696 208.584 214.294 208.584 215.282V219H210.547V215.178C210.547 213.111 209.715 212.032 208.025 212.032C206.985 212.032 206.062 212.396 205.399 213.319C205.022 212.461 204.307 212.032 203.228 212.032C202.149 212.032 201.395 212.487 200.94 213.215V212.24H199.016V219ZM214.483 219.208C215.64 219.208 216.368 218.688 216.706 217.843C216.875 218.766 217.616 219.286 219.111 218.948V217.57C218.578 217.622 218.474 217.427 218.474 216.868V214.58C218.474 212.981 217.356 212.032 215.38 212.032C213.43 212.032 212.286 212.994 212.286 214.619H214.184C214.184 214.034 214.613 213.696 215.354 213.696C216.16 213.696 216.563 214.021 216.55 214.58V214.788L214.964 214.97C213.092 215.191 212.013 215.958 212.013 217.193C212.013 218.22 212.741 219.208 214.483 219.208ZM214.873 217.778C214.275 217.778 213.95 217.505 213.95 217.089C213.95 216.595 214.587 216.413 215.809 216.257L216.472 216.179C216.355 217.089 215.796 217.778 214.873 217.778ZM220.268 221.6H222.192V218.116C222.66 218.805 223.401 219.208 224.467 219.208C226.17 219.208 227.379 217.726 227.379 215.646C227.379 213.527 226.17 212.032 224.467 212.032C223.401 212.032 222.66 212.435 222.192 213.124V212.24H220.268V221.6ZM223.804 217.544C222.855 217.544 222.179 216.751 222.179 215.633C222.179 214.502 222.855 213.696 223.804 213.696C224.766 213.696 225.442 214.502 225.442 215.633C225.442 216.751 224.766 217.544 223.804 217.544ZM231.841 219.208C233.804 219.208 234.987 218.376 234.987 217.037C234.987 214.099 230.671 215.49 230.671 214.177C230.671 213.696 231.087 213.371 231.802 213.371C232.582 213.371 233.05 213.774 233.089 214.437H234.987C234.87 212.942 233.726 212.032 231.919 212.032C229.93 212.032 228.734 212.89 228.734 214.255C228.734 217.115 233.063 215.724 233.063 217.102C233.063 217.505 232.634 217.869 231.893 217.869C231.087 217.869 230.502 217.492 230.476 216.842H228.565C228.604 218.324 229.839 219.208 231.841 219.208Z"/></g><circle cx="382.007" cy="129" r="29" fill="#FF0AF5" opacity=".1"/><circle cx="382.007" cy="129" r="10" fill="#FF0AF5" opacity=".3"/><path fill="#fff" fill-rule="evenodd" d="M381.216 120H372.718C372.325 120 372.007 120.318 372.007 120.711V137.6C372.007 137.993 372.325 138.311 372.718 138.311H381.216C381.608 138.311 381.927 137.993 381.927 137.6V120.711C381.927 120.318 381.608 120 381.216 120ZM380.747 136.062H379.048L378.567 134.461H375.353L374.873 136.062H373.161L375.723 127.688H378.198L380.747 136.062ZM376.856 129.449L375.834 132.86H378.087L377.053 129.449H376.856Z" clip-rule="evenodd"/><path fill="#fff" fill-rule="evenodd" d="M381.216 120H372.718C372.325 120 372.007 120.318 372.007 120.711V137.6C372.007 137.993 372.325 138.311 372.718 138.311H381.216C381.608 138.311 381.927 137.993 381.927 137.6V120.711C381.927 120.318 381.608 120 381.216 120ZM380.747 136.062H379.048L378.567 134.461H375.353L374.873 136.062H373.161L375.723 127.688H378.198L380.747 136.062ZM376.856 129.449L375.834 132.86H378.087L377.053 129.449H376.856Z" clip-rule="evenodd"/><g opacity=".5"><path fill="#fff" fill-rule="evenodd" d="M392.295 120.039H383.797C383.404 120.039 383.086 120.357 383.086 120.75V137.639C383.086 138.031 383.404 138.35 383.797 138.35H392.295C392.687 138.35 393.006 138.031 393.006 137.639V120.75C393.006 120.357 392.687 120.039 392.295 120.039ZM389.415 131.494V131.691C390.856 131.777 391.336 132.578 391.336 133.661C391.336 134.917 390.72 136.063 388.516 136.063H385.265V127.689H388.516C390.388 127.689 391.09 128.662 391.09 129.733C391.09 130.595 390.646 131.408 389.415 131.494ZM388.454 129.29H386.866V130.829H388.454C389.193 130.829 389.489 130.644 389.489 130.053C389.489 129.474 389.193 129.29 388.454 129.29ZM386.866 134.339H388.516C389.378 134.339 389.735 134.154 389.735 133.378C389.735 132.615 389.378 132.43 388.516 132.43H386.866V134.339Z" clip-rule="evenodd"/><path fill="#fff" fill-rule="evenodd" d="M392.295 120.039H383.797C383.404 120.039 383.086 120.357 383.086 120.75V137.639C383.086 138.031 383.404 138.35 383.797 138.35H392.295C392.687 138.35 393.006 138.031 393.006 137.639V120.75C393.006 120.357 392.687 120.039 392.295 120.039ZM389.415 131.494V131.691C390.856 131.777 391.336 132.578 391.336 133.661C391.336 134.917 390.72 136.063 388.516 136.063H385.265V127.689H388.516C390.388 127.689 391.09 128.662 391.09 129.733C391.09 130.595 390.646 131.408 389.415 131.494ZM388.454 129.29H386.866V130.829H388.454C389.193 130.829 389.489 130.644 389.489 130.053C389.489 129.474 389.193 129.29 388.454 129.29ZM386.866 134.339H388.516C389.378 134.339 389.735 134.154 389.735 133.378C389.735 132.615 389.378 132.43 388.516 132.43H386.866V134.339Z" clip-rule="evenodd"/></g><g filter="url(#filter28_d)"><path fill="#fff" d="M337.432 158H339.616L340.552 155.855H345.557L346.48 158H348.664L344.179 147.86H341.917L337.432 158ZM341.397 153.892L343.061 150.096L344.712 153.892H341.397ZM352.479 158L359.837 147.73H357.354L349.996 158H352.479ZM368.361 152.683C369.271 152.358 369.817 151.539 369.817 150.434C369.817 148.796 368.621 147.86 366.658 147.86H361.952V158H366.996C368.907 158 370.246 156.804 370.246 155.166C370.246 153.931 369.609 152.956 368.361 152.683ZM363.98 149.823H365.93C367.178 149.823 367.763 150.07 367.763 150.863C367.763 151.604 367.204 151.955 365.995 151.955H363.98V149.823ZM366.307 156.037H363.98V153.71H366.359C367.594 153.71 368.166 154.061 368.166 154.828C368.166 155.634 367.581 156.037 366.307 156.037ZM380.129 157.987V156.284C378.686 156.414 378.634 156.31 378.634 155.192V152.995H380.402V151.24H378.634V149.42H376.71V151.24H375.267V152.995H376.71V156.18C376.671 158.091 377.698 158.169 380.129 157.987ZM384.889 158.208C386.54 158.208 387.827 157.272 388.035 155.803H386.098C386.02 156.271 385.578 156.635 384.902 156.635C383.901 156.635 383.446 156.063 383.355 155.192H388.061V154.568C388.061 152.41 386.683 151.032 384.889 151.032C382.822 151.032 381.392 152.514 381.392 154.607C381.392 156.713 382.822 158.208 384.889 158.208ZM383.368 154.009C383.485 153.229 383.901 152.696 384.811 152.696C385.63 152.696 386.085 153.255 386.124 154.009H383.368ZM392.539 158.208C394.502 158.208 395.685 157.376 395.685 156.037C395.685 153.099 391.369 154.49 391.369 153.177C391.369 152.696 391.785 152.371 392.5 152.371C393.28 152.371 393.748 152.774 393.787 153.437H395.685C395.568 151.942 394.424 151.032 392.617 151.032C390.628 151.032 389.432 151.89 389.432 153.255C389.432 156.115 393.761 154.724 393.761 156.102C393.761 156.505 393.332 156.869 392.591 156.869C391.785 156.869 391.2 156.492 391.174 155.842H389.263C389.302 157.324 390.537 158.208 392.539 158.208ZM401.279 157.987V156.284C399.836 156.414 399.784 156.31 399.784 155.192V152.995H401.552V151.24H399.784V149.42H397.86V151.24H396.417V152.995H397.86V156.18C397.821 158.091 398.848 158.169 401.279 157.987ZM403.98 150.408C404.682 150.408 405.202 149.888 405.202 149.186C405.202 148.484 404.682 147.99 403.98 147.99C403.265 147.99 402.745 148.484 402.745 149.186C402.745 149.888 403.265 150.408 403.98 150.408ZM403.005 158H404.942V151.24H403.005V158ZM406.649 158H408.573V154.542C408.573 153.424 409.158 152.696 410.094 152.696C410.926 152.696 411.42 153.294 411.42 154.282V158H413.37V154.178C413.37 152.111 412.551 151.032 410.861 151.032C409.782 151.032 409.028 151.487 408.573 152.215V151.24H406.649V158ZM418.37 160.808C420.71 160.808 421.945 159.742 421.945 157.545V151.24H420.008V152.098C419.553 151.422 418.825 151.032 417.746 151.032C416.004 151.032 414.834 152.514 414.834 154.633C414.834 156.726 416.004 158.039 417.746 158.039C418.825 158.039 419.553 157.688 420.008 157.064V157.545C420.021 158.767 419.527 159.352 418.461 159.352C417.655 159.352 417.057 159.092 416.992 158.481H415.055C415.198 160.054 416.355 160.808 418.37 160.808ZM418.396 156.453C417.434 156.453 416.758 155.673 416.758 154.555C416.758 153.424 417.434 152.618 418.396 152.618C419.358 152.618 420.021 153.424 420.021 154.555C420.021 155.673 419.358 156.453 418.396 156.453Z"/></g><circle cx="322.007" cy="249" r="29" fill="#E3FF39" opacity=".1"/><circle cx="322.007" cy="249" r="10" fill="#E3FF39" opacity=".3"/><g clip-path="url(#clip0)"><path fill="#fff" d="M332.879 253.945L329.807 252.792L324.262 254.88C323.542 255.168 322.75 255.288 322.007 255.288C321.239 255.288 320.471 255.144 319.751 254.88L314.206 252.792L311.134 253.945C310.63 254.137 310.606 254.592 310.606 254.737C310.606 254.881 310.654 255.337 311.134 255.529L320.35 259.009C321.405 259.417 322.605 259.417 323.662 259.009L332.878 255.529C333.382 255.337 333.405 254.881 333.405 254.737C333.406 254.592 333.358 254.136 332.878 253.945H332.879Z"/><path fill="#fff" d="M332.879 248.208L329.807 247.056L324.262 249.144C323.542 249.431 322.75 249.551 322.007 249.551C321.239 249.551 320.471 249.407 319.751 249.144L314.206 247.056L311.134 248.208C310.63 248.4 310.606 248.856 310.606 249C310.606 249.145 310.654 249.6 311.134 249.792L320.35 253.272C321.405 253.68 322.605 253.68 323.662 253.272L332.878 249.792C333.382 249.6 333.405 249.145 333.405 249C333.406 248.856 333.358 248.4 332.878 248.208H332.879Z"/><path fill="#fff" d="M311.135 244.08L320.352 247.56C321.407 247.968 322.607 247.968 323.664 247.56L332.879 244.08C333.384 243.888 333.407 243.408 333.407 243.288C333.407 243.144 333.359 242.688 332.879 242.496L323.663 239.016C322.607 238.608 321.407 238.608 320.351 239.016L311.135 242.496C310.631 242.688 310.607 243.144 310.607 243.288C310.607 243.408 310.655 243.888 311.135 244.08Z"/></g><g filter="url(#filter29_d)"><path fill="#fff" d="M294.254 278H296.282V274.022L300.169 267.86H297.933L295.268 272.189L292.603 267.86H290.367L294.254 274.022V278ZM302.637 278.208C304.756 278.208 306.251 276.713 306.251 274.607C306.251 272.514 304.756 271.032 302.637 271.032C300.518 271.032 299.036 272.514 299.036 274.607C299.036 276.713 300.518 278.208 302.637 278.208ZM302.637 276.544C301.662 276.544 300.973 275.738 300.973 274.607C300.973 273.489 301.662 272.696 302.637 272.696C303.625 272.696 304.314 273.489 304.314 274.607C304.314 275.738 303.625 276.544 302.637 276.544ZM314.355 271.24H312.431V274.698C312.431 275.816 311.846 276.544 310.91 276.544C310.078 276.544 309.584 275.946 309.584 274.958V271.24H307.634V275.062C307.634 277.129 308.453 278.208 310.143 278.208C311.222 278.208 311.976 277.753 312.431 277.025V278H314.355V271.24ZM316.066 278H317.964V274.347C317.964 273.125 319.251 273.021 320.616 273.021V271.162C319.303 271.162 318.406 271.604 317.964 272.514V271.24H316.066V278ZM327.901 278.208C329.058 278.208 329.786 277.688 330.124 276.843C330.293 277.766 331.034 278.286 332.529 277.948V276.57C331.996 276.622 331.892 276.427 331.892 275.868V273.58C331.892 271.981 330.774 271.032 328.798 271.032C326.848 271.032 325.704 271.994 325.704 273.619H327.602C327.602 273.034 328.031 272.696 328.772 272.696C329.578 272.696 329.981 273.021 329.968 273.58V273.788L328.382 273.97C326.51 274.191 325.431 274.958 325.431 276.193C325.431 277.22 326.159 278.208 327.901 278.208ZM328.291 276.778C327.693 276.778 327.368 276.505 327.368 276.089C327.368 275.595 328.005 275.413 329.227 275.257L329.89 275.179C329.773 276.089 329.214 276.778 328.291 276.778ZM333.687 280.6H335.611V277.116C336.079 277.805 336.82 278.208 337.886 278.208C339.589 278.208 340.798 276.726 340.798 274.646C340.798 272.527 339.589 271.032 337.886 271.032C336.82 271.032 336.079 271.435 335.611 272.124V271.24H333.687V280.6ZM337.223 276.544C336.274 276.544 335.598 275.751 335.598 274.633C335.598 273.502 336.274 272.696 337.223 272.696C338.185 272.696 338.861 273.502 338.861 274.633C338.861 275.751 338.185 276.544 337.223 276.544ZM342.117 280.6H344.041V277.116C344.509 277.805 345.25 278.208 346.316 278.208C348.019 278.208 349.228 276.726 349.228 274.646C349.228 272.527 348.019 271.032 346.316 271.032C345.25 271.032 344.509 271.435 344.041 272.124V271.24H342.117V280.6ZM345.653 276.544C344.704 276.544 344.028 275.751 344.028 274.633C344.028 273.502 344.704 272.696 345.653 272.696C346.615 272.696 347.291 273.502 347.291 274.633C347.291 275.751 346.615 276.544 345.653 276.544Z"/></g></g><defs><filter id="filter0_d" width="611.23" height="460.904" x=".5" y=".096" color-interpolation-filters="sRGB" filterUnits="userSpaceOnUse"><feFlood flood-opacity="0" result="BackgroundImageFix"/><feColorMatrix in="SourceAlpha" type="matrix" values="0 0 0 0 0 0 0 0 0 0 0 0 0 0 0 0 0 0 127 0"/><feOffset dy="10"/><feGaussianBlur stdDeviation="10"/><feColorMatrix type="matrix" values="0 0 0 0 0.15787 0 0 0 0 0 0 0 0 0 0.366667 0 0 0 0.2 0"/><feBlend in2="BackgroundImageFix" mode="normal" result="effect1_dropShadow"/><feBlend in="SourceGraphic" in2="effect1_dropShadow" mode="normal" result="shape"/></filter><filter id="filter1_d" width="133" height="17" x="76.007" y="63" color-interpolation-filters="sRGB" filterUnits="userSpaceOnUse"><feFlood flood-opacity="0" result="BackgroundImageFix"/><feColorMatrix in="SourceAlpha" type="matrix" values="0 0 0 0 0 0 0 0 0 0 0 0 0 0 0 0 0 0 127 0"/><feOffset/><feGaussianBlur stdDeviation="4"/><feColorMatrix type="matrix" values="0 0 0 0 1 0 0 0 0 1 0 0 0 0 1 0 0 0 0.5 0"/><feBlend in2="BackgroundImageFix" mode="normal" result="effect1_dropShadow"/><feBlend in="SourceGraphic" in2="effect1_dropShadow" mode="normal" result="shape"/></filter><filter id="filter2_d" width="44" height="17" x="75.007" y="213" color-interpolation-filters="sRGB" filterUnits="userSpaceOnUse"><feFlood flood-opacity="0" result="BackgroundImageFix"/><feColorMatrix in="SourceAlpha" type="matrix" values="0 0 0 0 0 0 0 0 0 0 0 0 0 0 0 0 0 0 127 0"/><feOffset/><feGaussianBlur stdDeviation="4"/><feColorMatrix type="matrix" values="0 0 0 0 1 0 0 0 0 1 0 0 0 0 1 0 0 0 0.5 0"/><feBlend in2="BackgroundImageFix" mode="normal" result="effect1_dropShadow"/><feBlend in="SourceGraphic" in2="effect1_dropShadow" mode="normal" result="shape"/></filter><filter id="filter3_d" width="166" height="17" x="103.007" y="301" color-interpolation-filters="sRGB" filterUnits="userSpaceOnUse"><feFlood flood-opacity="0" result="BackgroundImageFix"/><feColorMatrix in="SourceAlpha" type="matrix" values="0 0 0 0 0 0 0 0 0 0 0 0 0 0 0 0 0 0 127 0"/><feOffset/><feGaussianBlur stdDeviation="4"/><feColorMatrix type="matrix" values="0 0 0 0 1 0 0 0 0 1 0 0 0 0 1 0 0 0 0.5 0"/><feBlend in2="BackgroundImageFix" mode="normal" result="effect1_dropShadow"/><feBlend in="SourceGraphic" in2="effect1_dropShadow" mode="normal" result="shape"/></filter><filter id="filter4_d" width="128" height="17" x="201.007" y="183" color-interpolation-filters="sRGB" filterUnits="userSpaceOnUse"><feFlood flood-opacity="0" result="BackgroundImageFix"/><feColorMatrix in="SourceAlpha" type="matrix" values="0 0 0 0 0 0 0 0 0 0 0 0 0 0 0 0 0 0 127 0"/><feOffset/><feGaussianBlur stdDeviation="4"/><feColorMatrix type="matrix" values="0 0 0 0 1 0 0 0 0 1 0 0 0 0 1 0 0 0 0.5 0"/><feBlend in2="BackgroundImageFix" mode="normal" result="effect1_dropShadow"/><feBlend in="SourceGraphic" in2="effect1_dropShadow" mode="normal" result="shape"/></filter><filter id="filter5_d" width="136" height="17" x="313.007" y="122" color-interpolation-filters="sRGB" filterUnits="userSpaceOnUse"><feFlood flood-opacity="0" result="BackgroundImageFix"/><feColorMatrix in="SourceAlpha" type="matrix" values="0 0 0 0 0 0 0 0 0 0 0 0 0 0 0 0 0 0 127 0"/><feOffset/><feGaussianBlur stdDeviation="4"/><feColorMatrix type="matrix" values="0 0 0 0 1 0 0 0 0 1 0 0 0 0 1 0 0 0 0.5 0"/><feBlend in2="BackgroundImageFix" mode="normal" result="effect1_dropShadow"/><feBlend in="SourceGraphic" in2="effect1_dropShadow" mode="normal" result="shape"/></filter><filter id="filter6_d" width="107" height="17" x="432.007" y="63" color-interpolation-filters="sRGB" filterUnits="userSpaceOnUse"><feFlood flood-opacity="0" result="BackgroundImageFix"/><feColorMatrix in="SourceAlpha" type="matrix" values="0 0 0 0 0 0 0 0 0 0 0 0 0 0 0 0 0 0 127 0"/><feOffset/><feGaussianBlur stdDeviation="4"/><feColorMatrix type="matrix" values="0 0 0 0 1 0 0 0 0 1 0 0 0 0 1 0 0 0 0.5 0"/><feBlend in2="BackgroundImageFix" mode="normal" result="effect1_dropShadow"/><feBlend in="SourceGraphic" in2="effect1_dropShadow" mode="normal" result="shape"/></filter><filter id="filter7_d" width="286" height="17" x="253.007" y="242" color-interpolation-filters="sRGB" filterUnits="userSpaceOnUse"><feFlood flood-opacity="0" result="BackgroundImageFix"/><feColorMatrix in="SourceAlpha" type="matrix" values="0 0 0 0 0 0 0 0 0 0 0 0 0 0 0 0 0 0 127 0"/><feOffset/><feGaussianBlur stdDeviation="4"/><feColorMatrix type="matrix" values="0 0 0 0 1 0 0 0 0 1 0 0 0 0 1 0 0 0 0.5 0"/><feBlend in2="BackgroundImageFix" mode="normal" result="effect1_dropShadow"/><feBlend in="SourceGraphic" in2="effect1_dropShadow" mode="normal" result="shape"/></filter><filter id="filter8_d" width="166" height="17" x="373.007" y="331" color-interpolation-filters="sRGB" filterUnits="userSpaceOnUse"><feFlood flood-opacity="0" result="BackgroundImageFix"/><feColorMatrix in="SourceAlpha" type="matrix" values="0 0 0 0 0 0 0 0 0 0 0 0 0 0 0 0 0 0 127 0"/><feOffset/><feGaussianBlur stdDeviation="4"/><feColorMatrix type="matrix" values="0 0 0 0 1 0 0 0 0 1 0 0 0 0 1 0 0 0 0.5 0"/><feBlend in2="BackgroundImageFix" mode="normal" result="effect1_dropShadow"/><feBlend in="SourceGraphic" in2="effect1_dropShadow" mode="normal" result="shape"/></filter><filter id="filter9_d" width="106" height="17" x="283.007" y="362" color-interpolation-filters="sRGB" filterUnits="userSpaceOnUse"><feFlood flood-opacity="0" result="BackgroundImageFix"/><feColorMatrix in="SourceAlpha" type="matrix" values="0 0 0 0 0 0 0 0 0 0 0 0 0 0 0 0 0 0 127 0"/><feOffset/><feGaussianBlur stdDeviation="4"/><feColorMatrix type="matrix" values="0 0 0 0 1 0 0 0 0 1 0 0 0 0 1 0 0 0 0.5 0"/><feBlend in2="BackgroundImageFix" mode="normal" result="effect1_dropShadow"/><feBlend in="SourceGraphic" in2="effect1_dropShadow" mode="normal" result="shape"/></filter><filter id="filter10_d" width="46" height="17" x="283.007" y="331" color-interpolation-filters="sRGB" filterUnits="userSpaceOnUse"><feFlood flood-opacity="0" result="BackgroundImageFix"/><feColorMatrix in="SourceAlpha" type="matrix" values="0 0 0 0 0 0 0 0 0 0 0 0 0 0 0 0 0 0 127 0"/><feOffset/><feGaussianBlur stdDeviation="4"/><feColorMatrix type="matrix" values="0 0 0 0 1 0 0 0 0 1 0 0 0 0 1 0 0 0 0.5 0"/><feBlend in2="BackgroundImageFix" mode="normal" result="effect1_dropShadow"/><feBlend in="SourceGraphic" in2="effect1_dropShadow" mode="normal" result="shape"/></filter><filter id="filter11_d" width="17" height="286" x="522.007" y="63" color-interpolation-filters="sRGB" filterUnits="userSpaceOnUse"><feFlood flood-opacity="0" result="BackgroundImageFix"/><feColorMatrix in="SourceAlpha" type="matrix" values="0 0 0 0 0 0 0 0 0 0 0 0 0 0 0 0 0 0 127 0"/><feOffset/><feGaussianBlur stdDeviation="4"/><feColorMatrix type="matrix" values="0 0 0 0 1 0 0 0 0 1 0 0 0 0 1 0 0 0 0.5 0"/><feBlend in2="BackgroundImageFix" mode="normal" result="effect1_dropShadow"/><feBlend in="SourceGraphic" in2="effect1_dropShadow" mode="normal" result="shape"/></filter><filter id="filter12_d" width="17" height="255" x="192.007" y="63" color-interpolation-filters="sRGB" filterUnits="userSpaceOnUse"><feFlood flood-opacity="0" result="BackgroundImageFix"/><feColorMatrix in="SourceAlpha" type="matrix" values="0 0 0 0 0 0 0 0 0 0 0 0 0 0 0 0 0 0 127 0"/><feOffset/><feGaussianBlur stdDeviation="4"/><feColorMatrix type="matrix" values="0 0 0 0 1 0 0 0 0 1 0 0 0 0 1 0 0 0 0.5 0"/><feBlend in2="BackgroundImageFix" mode="normal" result="effect1_dropShadow"/><feBlend in="SourceGraphic" in2="effect1_dropShadow" mode="normal" result="shape"/></filter><filter id="filter13_d" width="17" height="166" x="75.007" y="63" color-interpolation-filters="sRGB" filterUnits="userSpaceOnUse"><feFlood flood-opacity="0" result="BackgroundImageFix"/><feColorMatrix in="SourceAlpha" type="matrix" values="0 0 0 0 0 0 0 0 0 0 0 0 0 0 0 0 0 0 127 0"/><feOffset/><feGaussianBlur stdDeviation="4"/><feColorMatrix type="matrix" values="0 0 0 0 1 0 0 0 0 1 0 0 0 0 1 0 0 0 0.5 0"/><feBlend in2="BackgroundImageFix" mode="normal" result="effect1_dropShadow"/><feBlend in="SourceGraphic" in2="effect1_dropShadow" mode="normal" result="shape"/></filter><filter id="filter14_d" width="17" height="106" x="102.007" y="213" color-interpolation-filters="sRGB" filterUnits="userSpaceOnUse"><feFlood flood-opacity="0" result="BackgroundImageFix"/><feColorMatrix in="SourceAlpha" type="matrix" values="0 0 0 0 0 0 0 0 0 0 0 0 0 0 0 0 0 0 127 0"/><feOffset/><feGaussianBlur stdDeviation="4"/><feColorMatrix type="matrix" values="0 0 0 0 1 0 0 0 0 1 0 0 0 0 1 0 0 0 0.5 0"/><feBlend in2="BackgroundImageFix" mode="normal" result="effect1_dropShadow"/><feBlend in="SourceGraphic" in2="effect1_dropShadow" mode="normal" result="shape"/></filter><filter id="filter15_d" width="17" height="76" x="252.007" y="242" color-interpolation-filters="sRGB" filterUnits="userSpaceOnUse"><feFlood flood-opacity="0" result="BackgroundImageFix"/><feColorMatrix in="SourceAlpha" type="matrix" values="0 0 0 0 0 0 0 0 0 0 0 0 0 0 0 0 0 0 127 0"/><feOffset/><feGaussianBlur stdDeviation="4"/><feColorMatrix type="matrix" values="0 0 0 0 1 0 0 0 0 1 0 0 0 0 1 0 0 0 0.5 0"/><feBlend in2="BackgroundImageFix" mode="normal" result="effect1_dropShadow"/><feBlend in="SourceGraphic" in2="effect1_dropShadow" mode="normal" result="shape"/></filter><filter id="filter16_d" width="17" height="136" x="312.007" y="122" color-interpolation-filters="sRGB" filterUnits="userSpaceOnUse"><feFlood flood-opacity="0" result="BackgroundImageFix"/><feColorMatrix in="SourceAlpha" type="matrix" values="0 0 0 0 0 0 0 0 0 0 0 0 0 0 0 0 0 0 127 0"/><feOffset/><feGaussianBlur stdDeviation="4"/><feColorMatrix type="matrix" values="0 0 0 0 1 0 0 0 0 1 0 0 0 0 1 0 0 0 0.5 0"/><feBlend in2="BackgroundImageFix" mode="normal" result="effect1_dropShadow"/><feBlend in="SourceGraphic" in2="effect1_dropShadow" mode="normal" result="shape"/></filter><filter id="filter17_d" width="17" height="136" x="372.007" y="122" color-interpolation-filters="sRGB" filterUnits="userSpaceOnUse"><feFlood flood-opacity="0" result="BackgroundImageFix"/><feColorMatrix in="SourceAlpha" type="matrix" values="0 0 0 0 0 0 0 0 0 0 0 0 0 0 0 0 0 0 127 0"/><feOffset/><feGaussianBlur stdDeviation="4"/><feColorMatrix type="matrix" values="0 0 0 0 1 0 0 0 0 1 0 0 0 0 1 0 0 0 0.5 0"/><feBlend in2="BackgroundImageFix" mode="normal" result="effect1_dropShadow"/><feBlend in="SourceGraphic" in2="effect1_dropShadow" mode="normal" result="shape"/></filter><filter id="filter18_d" width="17" height="76" x="432.007" y="63" color-interpolation-filters="sRGB" filterUnits="userSpaceOnUse"><feFlood flood-opacity="0" result="BackgroundImageFix"/><feColorMatrix in="SourceAlpha" type="matrix" values="0 0 0 0 0 0 0 0 0 0 0 0 0 0 0 0 0 0 127 0"/><feOffset/><feGaussianBlur stdDeviation="4"/><feColorMatrix type="matrix" values="0 0 0 0 1 0 0 0 0 1 0 0 0 0 1 0 0 0 0.5 0"/><feBlend in2="BackgroundImageFix" mode="normal" result="effect1_dropShadow"/><feBlend in="SourceGraphic" in2="effect1_dropShadow" mode="normal" result="shape"/></filter><filter id="filter19_d" width="17" height="48" x="372.007" y="331" color-interpolation-filters="sRGB" filterUnits="userSpaceOnUse"><feFlood flood-opacity="0" result="BackgroundImageFix"/><feColorMatrix in="SourceAlpha" type="matrix" values="0 0 0 0 0 0 0 0 0 0 0 0 0 0 0 0 0 0 127 0"/><feOffset/><feGaussianBlur stdDeviation="4"/><feColorMatrix type="matrix" values="0 0 0 0 1 0 0 0 0 1 0 0 0 0 1 0 0 0 0.5 0"/><feBlend in2="BackgroundImageFix" mode="normal" result="effect1_dropShadow"/><feBlend in="SourceGraphic" in2="effect1_dropShadow" mode="normal" result="shape"/></filter><filter id="filter20_d" width="17" height="48" x="282.007" y="331" color-interpolation-filters="sRGB" filterUnits="userSpaceOnUse"><feFlood flood-opacity="0" result="BackgroundImageFix"/><feColorMatrix in="SourceAlpha" type="matrix" values="0 0 0 0 0 0 0 0 0 0 0 0 0 0 0 0 0 0 127 0"/><feOffset/><feGaussianBlur stdDeviation="4"/><feColorMatrix type="matrix" values="0 0 0 0 1 0 0 0 0 1 0 0 0 0 1 0 0 0 0.5 0"/><feBlend in2="BackgroundImageFix" mode="normal" result="effect1_dropShadow"/><feBlend in="SourceGraphic" in2="effect1_dropShadow" mode="normal" result="shape"/></filter><filter id="filter21_d" width="17" height="106" x="312.007" y="242" color-interpolation-filters="sRGB" filterUnits="userSpaceOnUse"><feFlood flood-opacity="0" result="BackgroundImageFix"/><feColorMatrix in="SourceAlpha" type="matrix" values="0 0 0 0 0 0 0 0 0 0 0 0 0 0 0 0 0 0 127 0"/><feOffset/><feGaussianBlur stdDeviation="4"/><feColorMatrix type="matrix" values="0 0 0 0 1 0 0 0 0 1 0 0 0 0 1 0 0 0 0.5 0"/><feBlend in2="BackgroundImageFix" mode="normal" result="effect1_dropShadow"/><feBlend in="SourceGraphic" in2="effect1_dropShadow" mode="normal" result="shape"/></filter><filter id="filter22_d" width="63.941" height="15.87" x="51.342" y="88.73" color-interpolation-filters="sRGB" filterUnits="userSpaceOnUse"><feFlood flood-opacity="0" result="BackgroundImageFix"/><feColorMatrix in="SourceAlpha" type="matrix" values="0 0 0 0 0 0 0 0 0 0 0 0 0 0 0 0 0 0 127 0"/><feOffset dy="3"/><feColorMatrix type="matrix" values="0 0 0 0 0 0 0 0 0 0 0 0 0 0 0 0 0 0 0.05 0"/><feBlend in2="BackgroundImageFix" mode="normal" result="effect1_dropShadow"/><feBlend in="SourceGraphic" in2="effect1_dropShadow" mode="normal" result="shape"/></filter><filter id="filter23_d" width="97.021" height="13.478" x="242.394" y="387.729" color-interpolation-filters="sRGB" filterUnits="userSpaceOnUse"><feFlood flood-opacity="0" result="BackgroundImageFix"/><feColorMatrix in="SourceAlpha" type="matrix" values="0 0 0 0 0 0 0 0 0 0 0 0 0 0 0 0 0 0 127 0"/><feOffset dy="3"/><feColorMatrix type="matrix" values="0 0 0 0 0 0 0 0 0 0 0 0 0 0 0 0 0 0 0.05 0"/><feBlend in2="BackgroundImageFix" mode="normal" result="effect1_dropShadow"/><feBlend in="SourceGraphic" in2="effect1_dropShadow" mode="normal" result="shape"/></filter><filter id="filter24_d" width="88.374" height="16.078" x="484.022" y="88.73" color-interpolation-filters="sRGB" filterUnits="userSpaceOnUse"><feFlood flood-opacity="0" result="BackgroundImageFix"/><feColorMatrix in="SourceAlpha" type="matrix" values="0 0 0 0 0 0 0 0 0 0 0 0 0 0 0 0 0 0 127 0"/><feOffset dy="3"/><feColorMatrix type="matrix" values="0 0 0 0 0 0 0 0 0 0 0 0 0 0 0 0 0 0 0.05 0"/><feBlend in2="BackgroundImageFix" mode="normal" result="effect1_dropShadow"/><feBlend in="SourceGraphic" in2="effect1_dropShadow" mode="normal" result="shape"/></filter><filter id="filter25_d" width="55.879" height="31.948" x="500.266" y="357.86" color-interpolation-filters="sRGB" filterUnits="userSpaceOnUse"><feFlood flood-opacity="0" result="BackgroundImageFix"/><feColorMatrix in="SourceAlpha" type="matrix" values="0 0 0 0 0 0 0 0 0 0 0 0 0 0 0 0 0 0 127 0"/><feOffset dy="3"/><feColorMatrix type="matrix" values="0 0 0 0 0 0 0 0 0 0 0 0 0 0 0 0 0 0 0.05 0"/><feBlend in2="BackgroundImageFix" mode="normal" result="effect1_dropShadow"/><feBlend in="SourceGraphic" in2="effect1_dropShadow" mode="normal" result="shape"/></filter><filter id="filter26_d" width="69.854" height="32.156" x="78.21" y="326.652" color-interpolation-filters="sRGB" filterUnits="userSpaceOnUse"><feFlood flood-opacity="0" result="BackgroundImageFix"/><feColorMatrix in="SourceAlpha" type="matrix" values="0 0 0 0 0 0 0 0 0 0 0 0 0 0 0 0 0 0 127 0"/><feOffset dy="3"/><feColorMatrix type="matrix" values="0 0 0 0 0 0 0 0 0 0 0 0 0 0 0 0 0 0 0.05 0"/><feBlend in2="BackgroundImageFix" mode="normal" result="effect1_dropShadow"/><feBlend in="SourceGraphic" in2="effect1_dropShadow" mode="normal" result="shape"/></filter><filter id="filter27_d" width="68.556" height="15.74" x="166.431" y="208.86" color-interpolation-filters="sRGB" filterUnits="userSpaceOnUse"><feFlood flood-opacity="0" result="BackgroundImageFix"/><feColorMatrix in="SourceAlpha" type="matrix" values="0 0 0 0 0 0 0 0 0 0 0 0 0 0 0 0 0 0 127 0"/><feOffset dy="3"/><feColorMatrix type="matrix" values="0 0 0 0 0 0 0 0 0 0 0 0 0 0 0 0 0 0 0.05 0"/><feBlend in2="BackgroundImageFix" mode="normal" result="effect1_dropShadow"/><feBlend in="SourceGraphic" in2="effect1_dropShadow" mode="normal" result="shape"/></filter><filter id="filter28_d" width="84.513" height="16.078" x="337.432" y="147.73" color-interpolation-filters="sRGB" filterUnits="userSpaceOnUse"><feFlood flood-opacity="0" result="BackgroundImageFix"/><feColorMatrix in="SourceAlpha" type="matrix" values="0 0 0 0 0 0 0 0 0 0 0 0 0 0 0 0 0 0 127 0"/><feOffset dy="3"/><feColorMatrix type="matrix" values="0 0 0 0 0 0 0 0 0 0 0 0 0 0 0 0 0 0 0.05 0"/><feBlend in2="BackgroundImageFix" mode="normal" result="effect1_dropShadow"/><feBlend in="SourceGraphic" in2="effect1_dropShadow" mode="normal" result="shape"/></filter><filter id="filter29_d" width="58.861" height="15.74" x="290.367" y="267.86" color-interpolation-filters="sRGB" filterUnits="userSpaceOnUse"><feFlood flood-opacity="0" result="BackgroundImageFix"/><feColorMatrix in="SourceAlpha" type="matrix" values="0 0 0 0 0 0 0 0 0 0 0 0 0 0 0 0 0 0 127 0"/><feOffset dy="3"/><feColorMatrix type="matrix" values="0 0 0 0 0 0 0 0 0 0 0 0 0 0 0 0 0 0 0.05 0"/><feBlend in2="BackgroundImageFix" mode="normal" result="effect1_dropShadow"/><feBlend in="SourceGraphic" in2="effect1_dropShadow" mode="normal" result="shape"/></filter><clipPath id="clip0"><rect width="24" height="24" fill="#fff" transform="translate(310.007 237)"/></clipPath></defs></svg>