<svg width="489" height="291" viewBox="0 0 489 291" fill="none" xmlns="http://www.w3.org/2000/svg">
<g filter="url(#filter0_f)">
<path d="M237.554 98.9263C237.554 98.9263 207.545 44.0281 144.99 45.0131C93.9811 45.8164 46.4794 87.1283 45.0479 142.381C43.1167 216.94 100.011 245.783 144.99 244.852C221.594 243.264 251.86 156.657 251.86 156.657C251.86 156.657 287.498 77.0153 346.881 78.9949C406.265 80.9744 412.17 145.954 412.17 145.954C412.17 145.954 413.392 212.411 348.47 216.268C282 220.217 273.64 158.569 273.64 158.569" stroke="#AD0000" stroke-width="8.68092" stroke-linecap="round" stroke-linejoin="round"/>
<path d="M214.981 126.59C214.981 126.59 175.667 74.4172 142.576 76.8716C81.3065 81.416 72.5845 142.036 72.5845 142.036C72.5845 142.036 77.1098 214.599 144.024 215.89C189.525 216.767 204.377 178.627 213.836 164.496C225.01 147.803 253.365 96.4288 283.597 71.3091C313.83 46.1897 351.858 47.6096 351.858 47.6096C351.858 47.6096 447.372 59.6558 443.7 143.358C439.469 239.817 365.485 244.196 350.339 245.602C276.763 252.431 256.904 194.336 256.904 194.336" stroke="#AD0000" stroke-width="8.68092" stroke-linecap="round" stroke-linejoin="round"/>
</g>
<path d="M237.641 99.6456C237.641 99.6456 207.618 44.7227 145.035 45.7082C94.0031 46.5118 46.48 87.8423 45.0479 143.12C43.1158 217.713 100.036 246.569 145.035 245.637C215 244.187 245.122 171.5 254 158.5C268 138 295.5 77.9879 347.017 79.7052C406.427 81.6856 412.335 130 412.335 146.695C412.335 159.316 405.534 211.023 347.017 214.5C288.5 217.977 275.5 163 275.5 163" stroke="url(#paint0_linear)" stroke-width="8.80272" stroke-linecap="round" stroke-linejoin="round"/>
<path d="M213.912 124C213.912 124 190.739 77.581 142.62 77.581C94.5002 77.581 75.5 122 75.5 145.5C75.5 169 81.5514 210.339 142.62 213C184.551 213 204.448 179.382 213.912 165.244C225.09 148.544 253.458 97.147 283.705 72.016C313.951 46.8853 337.418 48.1657 351.996 48.3059C366.574 48.446 440 60.5 443.879 144.097C439.646 240.599 350.476 246.387 350.476 246.387C280 246.387 256.999 195.098 256.999 195.098" stroke="url(#paint1_linear)" stroke-width="4" stroke-linecap="round" stroke-linejoin="round"/>
<path d="M213.912 124C213.912 124 190.739 77.581 142.62 77.581C94.5002 77.581 75.5 122 75.5 145.5C75.5 169 81.5514 210.339 142.62 213C184.551 213 204.448 179.382 213.912 165.244C225.09 148.544 253.458 97.147 283.705 72.016C313.951 46.8853 337.418 48.1657 351.996 48.3059C366.574 48.446 440 60.5 443.879 144.097C439.646 240.599 350.476 246.387 350.476 246.387C280 246.387 256.999 195.098 256.999 195.098" stroke="url(#paint2_linear)" stroke-width="4" stroke-linecap="round" stroke-linejoin="round"/>
<g filter="url(#filter1_f)">
<path d="M237.752 103.245C237.752 103.245 207.742 48.3465 145.187 49.3315C94.1783 50.1347 46.6766 91.4467 45.2451 146.7C43.3139 221.259 100.208 250.102 145.187 249.17C221.791 247.583 252.057 160.975 252.057 160.975C252.057 160.975 287.695 81.3337 347.078 83.3132C406.462 85.2928 412.368 150.273 412.368 150.273C412.368 150.273 413.589 216.729 348.667 220.586C282.197 224.535 273.838 162.888 273.838 162.888" stroke="#FF83A8" stroke-width="8.68092" stroke-linecap="round" stroke-linejoin="round"/>
<path d="M215.179 130.908C215.179 130.908 194.5 74.5 142.5 77C89.5 81 72.7815 125 72.7817 146.355C72.7819 161 75.5854 215.709 142.5 217C188.001 217.878 205.72 179.631 215.179 165.5C226.352 148.807 253.768 96.6198 284 71.5001C314.233 46.3807 337.809 45.2256 355 48.5C376 52.5 439 61 443.897 147.677C439.5 225 373.5 245.753 350 247C291.963 250.08 257.101 198.654 257.101 198.654" stroke="#FF6D6D" stroke-width="8.68092" stroke-linecap="round" stroke-linejoin="round"/>
<path d="M215.179 130.908C215.179 130.908 194.5 74.5 142.5 77C89.5 81 72.7815 125 72.7817 146.355C72.7819 161 75.5854 215.709 142.5 217C188.001 217.878 205.72 179.631 215.179 165.5C226.352 148.807 253.768 96.6198 284 71.5001C314.233 46.3807 337.809 45.2256 355 48.5C376 52.5 439 61 443.897 147.677C439.5 225 373.5 245.753 350 247C291.963 250.08 257.101 198.654 257.101 198.654" stroke="url(#paint3_linear)" stroke-width="8.68092" stroke-linecap="round" stroke-linejoin="round"/>
</g>
<defs>
<filter id="filter0_f" x="0.659668" y="0.659546" width="487.484" height="289.841" filterUnits="userSpaceOnUse" color-interpolation-filters="sRGB">
<feFlood flood-opacity="0" result="BackgroundImageFix"/>
<feBlend mode="normal" in="SourceGraphic" in2="BackgroundImageFix" result="shape"/>
<feGaussianBlur stdDeviation="20" result="effect1_foregroundBlur"/>
</filter>
<filter id="filter1_f" x="20.8569" y="22.8386" width="447.381" height="250.694" filterUnits="userSpaceOnUse" color-interpolation-filters="sRGB">
<feFlood flood-opacity="0" result="BackgroundImageFix"/>
<feBlend mode="normal" in="SourceGraphic" in2="BackgroundImageFix" result="shape"/>
<feGaussianBlur stdDeviation="10" result="effect1_foregroundBlur"/>
</filter>
<linearGradient id="paint0_linear" x1="228.669" y1="45.6951" x2="228.669" y2="245.658" gradientUnits="userSpaceOnUse">
<stop stop-color="#ED1EFF"/>
<stop offset="0.265625" stop-color="#FF1AA3"/>
<stop offset="0.5" stop-color="#FF4F29"/>
<stop offset="0.734375" stop-color="#FF7916"/>
<stop offset="1" stop-color="#FFCC40"/>
</linearGradient>
<linearGradient id="paint1_linear" x1="258.29" y1="48.2913" x2="258.29" y2="246.946" gradientUnits="userSpaceOnUse">
<stop stop-color="#EB09FF"/>
<stop offset="0.286458" stop-color="#FF14CB"/>
<stop offset="0.541667" stop-color="#FD3A96"/>
<stop offset="0.760417" stop-color="#FF4017"/>
<stop offset="1" stop-color="#F7A501"/>
</linearGradient>
<linearGradient id="paint2_linear" x1="258.296" y1="48.2537" x2="258.296" y2="246.946" gradientUnits="userSpaceOnUse">
<stop stop-color="white" stop-opacity="0.57"/>
<stop offset="1" stop-color="white" stop-opacity="0"/>
</linearGradient>
<linearGradient id="paint3_linear" x1="258" y1="237" x2="258" y2="52" gradientUnits="userSpaceOnUse">
<stop stop-color="#FF2465"/>
<stop offset="1" stop-color="white" stop-opacity="0"/>
</linearGradient>
</defs>
</svg>
