<svg fill="none" viewBox="0 0 612 461"><g filter="url(#filter0_d)"><rect width="570" height="419" x="21.007" y="11" fill="#271E72" rx="10"/><g stroke="#fff" opacity=".1"><path d="M51.007 11v420m120-420v420m120-420v420m120-420v420m120-420v420m-420-420v420m120-420v420m120-420v420m120-420v420m120-411s.501 394.5 0 400.5c-.5 6-5 9.5-9.5 9.5M21.007 20v401m120-410v420m120-420v420m120-420v420m120-420v420m-420-420v420m120-420v420m120-420v420m120-420v420m120-420v420"/><path d="M591.007 20.5c-.14-5.541-4-8.5-8-9.5-3.636-.91-551 0-552 0-5.5 0-10.213 4.717-10 9m570 21h-570m570 30h-570m570 30h-570m570 30h-570m570 30h-570m570 30h-570m570 30h-570m570 30h-570m570 30h-570m570 30h-570m570 30h-570m570 30h-570m570 30h-570m561 29h-552c-6.42-1.618-8.65-3.51-9-9.5"/></g><g opacity=".5"><g filter="url(#filter1_d)"><path stroke="#fff" stroke-opacity=".8" d="M84.007 71.5h117"/></g><g filter="url(#filter2_d)"><path stroke="#fff" stroke-opacity=".8" d="M83.007 221.5h28"/></g><g filter="url(#filter3_d)"><path stroke="#fff" stroke-opacity=".8" d="M111.007 309.5h150"/></g><g filter="url(#filter4_d)"><path stroke="#fff" stroke-opacity=".8" d="M209.007 191.5h112"/></g><g filter="url(#filter5_d)"><path stroke="#fff" stroke-opacity=".8" d="M321.007 130.5h120"/></g><g filter="url(#filter6_d)"><path stroke="#fff" stroke-opacity=".8" d="M440.007 71.5h91"/></g><g filter="url(#filter7_d)"><path stroke="#fff" stroke-opacity=".8" d="M261.007 250.5h270"/></g><g filter="url(#filter8_d)"><path stroke="#fff" stroke-opacity=".8" d="M381.007 339.5h150"/></g><g filter="url(#filter9_d)"><path stroke="#fff" stroke-opacity=".8" d="M291.007 370.5h90"/></g><g filter="url(#filter10_d)"><path stroke="#fff" stroke-opacity=".8" d="M291.007 339.5h30"/></g><g filter="url(#filter11_d)"><path stroke="#fff" stroke-opacity=".8" d="M530.507 341V71"/></g><g filter="url(#filter12_d)"><path stroke="#fff" stroke-opacity=".8" d="M200.507 310V71"/></g><g filter="url(#filter13_d)"><path stroke="#fff" stroke-opacity=".8" d="M83.507 221V71"/></g><g filter="url(#filter14_d)"><path stroke="#fff" stroke-opacity=".8" d="M110.507 311v-90"/></g><g filter="url(#filter15_d)"><path stroke="#fff" stroke-opacity=".8" d="M260.507 310v-60"/></g><g filter="url(#filter16_d)"><path stroke="#fff" stroke-opacity=".8" d="M320.507 250V130"/></g><g filter="url(#filter17_d)"><path stroke="#fff" stroke-opacity=".8" d="M380.507 250V130"/></g><g filter="url(#filter18_d)"><path stroke="#fff" stroke-opacity=".8" d="M440.507 131V71"/></g><g filter="url(#filter19_d)"><path stroke="#fff" stroke-opacity=".8" d="M380.507 371v-32"/></g><g filter="url(#filter20_d)"><path stroke="#fff" stroke-opacity=".8" d="M290.507 371v-32"/></g><g filter="url(#filter21_d)"><path stroke="#fff" stroke-opacity=".8" d="M320.507 340v-90"/></g></g><circle cx="85.007" cy="70" r="29" fill="#fff" opacity=".1"/><circle cx="85.007" cy="70" r="10" fill="#fff" opacity=".1"/><path fill="#fff" fill-rule="evenodd" d="M90.672 59.381c-3.35.333-5.954 2.86-5.954 5.931 0 1.488.615 2.846 1.627 3.89l4.327-3.76V59.38z" clip-rule="evenodd"/><path fill="#fff" fill-rule="evenodd" d="M87.946 68.688h-2.448c-.224 0-.405.158-.405.352v12.608c0 .195.181.352.405.352h2.448c.223 0 .405-.157.405-.352V69.04c0-.194-.182-.352-.405-.352zm-8.736 2.72h-2.447c-.224 0-.405.158-.405.352v9.776c0 .194.181.352.405.352h2.447c.224 0 .405-.158.405-.352V71.76c0-.194-.18-.352-.405-.352zm-4.35 2.884h-2.448c-.224 0-.405.157-.405.352v6.942c0 .194.181.352.405.352h2.447c.224 0 .405-.158.405-.352v-6.942c0-.195-.18-.352-.404-.352zm6.253-1.06h2.448c.223 0 .404.157.404.352v7.968c0 .194-.18.352-.404.352h-2.448c-.224 0-.405-.157-.405-.352v-7.968c0-.195.181-.352.405-.352z" clip-rule="evenodd"/><path fill="#fff" fill-rule="evenodd" d="M86.927 64.906c-.681 0-1.233.482-1.233 1.078 0 .13.026.255.075.37l-2.38 1.776a1.304 1.304 0 00-.97-.411c-.532 0-.985.293-1.158.705l-1.746-.653c-.169-.42-.627-.72-1.165-.72-.682 0-1.234.483-1.234 1.078 0 .08.01.16.03.235l-2.699 1.83a1.353 1.353 0 00-.727-.207c-.682 0-1.234.483-1.234 1.078 0 .595.552 1.078 1.234 1.078.682 0 1.235-.483 1.235-1.078a.954.954 0 00-.064-.343l2.638-1.789c.218.17.505.274.821.274.532 0 .985-.294 1.159-.705l1.745.652c.169.42.626.72 1.164.72.682 0 1.235-.482 1.235-1.077v-.008a.486.486 0 00.012-.008l2.56-1.91c.2.12.442.19.702.19.682 0 1.235-.482 1.235-1.078 0-.595-.553-1.077-1.235-1.077zM91.868 58v6.215l6.356-1.581c-.976-2.45-3.407-4.276-6.356-4.634zm6.168 6.015l-5.767 1.417v.008h-.032l-.104.026-4.635 4.028a7.242 7.242 0 003.867 1.098c3.703 0 6.706-2.673 6.706-5.97 0-.205-.012-.407-.035-.607z" clip-rule="evenodd"/><g filter="url(#filter22_d)"><path fill="#fff" d="M51.342 99h2.184l.936-2.145h5.005L60.39 99h2.184l-4.485-10.14h-2.262L51.342 99zm3.965-4.108l1.664-3.796 1.65 3.796h-3.314zM63.647 99h1.923v-3.458c0-1.118.585-1.846 1.521-1.846.832 0 1.326.598 1.326 1.586V99h1.95v-3.822c0-2.067-.819-3.146-2.509-3.146-1.079 0-1.833.455-2.288 1.183v-.975h-1.924V99zm10.667.208c1.157 0 1.885-.52 2.223-1.365.169.923.91 1.443 2.405 1.105V97.57c-.533.052-.637-.143-.637-.702V94.58c0-1.599-1.118-2.548-3.094-2.548-1.95 0-3.094.962-3.094 2.587h1.898c0-.585.429-.923 1.17-.923.806 0 1.209.325 1.196.884v.208l-1.586.182c-1.872.221-2.951.988-2.951 2.223 0 1.027.728 2.015 2.47 2.015zm.39-1.43c-.598 0-.923-.273-.923-.689 0-.494.637-.676 1.859-.832l.663-.078c-.117.91-.676 1.6-1.6 1.6zM80.175 99H82.1V88.73h-1.924V99zm3.354 2.6h.832c1.664 0 2.808-.455 3.497-2.106l2.77-7.254h-2.029l-1.677 4.511-1.924-4.51H82.97l2.938 6.863c-.429.611-.87.806-1.716.793h-.663v1.703zm12.49-2.613v-1.703c-1.443.13-1.495.026-1.495-1.092v-2.197h1.768V92.24h-1.768v-1.82H92.6v1.82h-1.443v1.755H92.6v3.185c-.039 1.911.988 1.99 3.42 1.807zm2.701-7.579c.702 0 1.222-.52 1.222-1.222s-.52-1.196-1.222-1.196c-.715 0-1.235.494-1.235 1.196s.52 1.222 1.235 1.222zM97.745 99h1.937v-6.76h-1.937V99zm6.881.208c1.664 0 2.951-1.105 3.146-2.665h-1.924c-.065.585-.585 1.001-1.3 1.001-.897 0-1.482-.806-1.482-1.937 0-1.118.585-1.91 1.482-1.91.689 0 1.209.428 1.3 1.026h1.924c-.195-1.573-1.482-2.69-3.146-2.69-2.08 0-3.497 1.481-3.497 3.574 0 2.106 1.417 3.601 3.497 3.601zm7.511 0c1.963 0 3.146-.832 3.146-2.17 0-2.939-4.316-1.548-4.316-2.86 0-.482.416-.807 1.131-.807.78 0 1.248.403 1.287 1.066h1.898c-.117-1.495-1.261-2.405-3.068-2.405-1.989 0-3.185.858-3.185 2.223 0 2.86 4.329 1.47 4.329 2.847 0 .403-.429.767-1.17.767-.806 0-1.391-.377-1.417-1.027h-1.911c.039 1.482 1.274 2.366 3.276 2.366z"/></g><circle cx="292.007" cy="369" r="29" fill="#24B0FF" opacity=".1"/><circle cx="292.007" cy="369" r="10" fill="#24B0FF" opacity=".3"/><path fill="#fff" fill-rule="evenodd" d="M292.381 368.004c0-2.12 1.731-3.839 3.867-3.839 2.135 0 3.866 1.719 3.866 3.839 0 2.121-1.731 3.839-3.866 3.839-2.136 0-3.867-1.718-3.867-3.839z" clip-rule="evenodd"/><path fill="#fff" fill-rule="evenodd" d="M292.381 368.004c0-2.12 1.731-3.839 3.867-3.839 2.135 0 3.866 1.719 3.866 3.839 0 2.121-1.731 3.839-3.866 3.839-2.136 0-3.867-1.718-3.867-3.839zm-2.675 10.045c0-3.044 2.925-5.51 6.533-5.51 3.609 0 6.534 2.466 6.534 5.51 0 .328.017.951.017.951l-13.051-.034s-.033-.541-.033-.917z" clip-rule="evenodd"/><path fill="#fff" fill-rule="evenodd" d="M289.706 378.049c0-3.044 2.925-5.51 6.533-5.51 3.609 0 6.534 2.466 6.534 5.51 0 .328.017.951.017.951l-13.051-.034s-.033-.541-.033-.917zM282.515 358a.508.508 0 00-.508.507v6.855c0 .28.228.507.508.507 0 0 2.614-.074 4.5 0l2.167 2.818c.12.157.218-.043.218-.446v-2.372h2.686c.28 0 .507-.227.507-.507v-6.855a.507.507 0 00-.507-.507h-9.571zm2.279 3.03a.903.903 0 110 1.807.903.903 0 010-1.807zm2.574.045a.903.903 0 110 1.807.903.903 0 010-1.807zm2.506 0a.902.902 0 110 1.805.902.902 0 010-1.805z" clip-rule="evenodd"/><path fill="#fff" fill-rule="evenodd" d="M282.515 358a.508.508 0 00-.508.507v6.855c0 .28.228.507.508.507 0 0 2.614-.074 4.5 0l2.167 2.818c.12.157.218-.043.218-.446v-2.372h2.686c.28 0 .507-.227.507-.507v-6.855a.507.507 0 00-.507-.507h-9.571zm2.279 3.03a.903.903 0 110 1.807.903.903 0 010-1.807zm2.574.045a.903.903 0 110 1.807.903.903 0 010-1.807zm2.506 0a.902.902 0 110 1.805.902.902 0 010-1.805z" clip-rule="evenodd"/><g filter="url(#filter23_d)"><path fill="#fff" d="M246.853 398.169c2.795.026 4.459-1.638 4.459-4.472v-5.837h-2.028v5.824c0 1.586-.897 2.522-2.431 2.522s-2.444-.936-2.444-2.522v-5.824h-2.015v5.837c0 2.782 1.651 4.446 4.459 4.472zm9.232.039c1.963 0 3.146-.832 3.146-2.171 0-2.938-4.316-1.547-4.316-2.86 0-.481.416-.806 1.131-.806.78 0 1.248.403 1.287 1.066h1.898c-.117-1.495-1.261-2.405-3.068-2.405-1.989 0-3.185.858-3.185 2.223 0 2.86 4.329 1.469 4.329 2.847 0 .403-.429.767-1.17.767-.806 0-1.391-.377-1.417-1.027h-1.911c.039 1.482 1.274 2.366 3.276 2.366zm7.839 0c1.651 0 2.938-.936 3.146-2.405h-1.937c-.078.468-.52.832-1.196.832-1.001 0-1.456-.572-1.547-1.443h4.706v-.624c0-2.158-1.378-3.536-3.172-3.536-2.067 0-3.497 1.482-3.497 3.575 0 2.106 1.43 3.601 3.497 3.601zm-1.521-4.199c.117-.78.533-1.313 1.443-1.313.819 0 1.274.559 1.313 1.313h-2.756zm6.155 3.991h1.898v-3.653c0-1.222 1.287-1.326 2.652-1.326v-1.859c-1.313 0-2.21.442-2.652 1.352v-1.274h-1.898V398zm10.457 0h1.937v-5.005h1.846v-1.755h-1.846v-.442c.013-1.053.377-1.313 1.274-1.313h.442v-1.755h-.988c-1.755-.026-2.691 1.131-2.665 2.873v.637h-1.586v1.755h1.586V398zm7.862.208c1.651 0 2.938-.936 3.146-2.405h-1.937c-.078.468-.52.832-1.196.832-1.001 0-1.456-.572-1.547-1.443h4.706v-.624c0-2.158-1.378-3.536-3.172-3.536-2.067 0-3.497 1.482-3.497 3.575 0 2.106 1.43 3.601 3.497 3.601zm-1.521-4.199c.117-.78.533-1.313 1.443-1.313.819 0 1.274.559 1.313 1.313h-2.756zm9.392 4.199c1.651 0 2.938-.936 3.146-2.405h-1.937c-.078.468-.52.832-1.196.832-1.001 0-1.456-.572-1.547-1.443h4.706v-.624c0-2.158-1.378-3.536-3.172-3.536-2.067 0-3.497 1.482-3.497 3.575 0 2.106 1.43 3.601 3.497 3.601zm-1.521-4.199c.117-.78.533-1.313 1.443-1.313.819 0 1.274.559 1.313 1.313h-2.756zm8.794 4.199c1.066 0 1.807-.403 2.275-1.092V398h1.937v-10.27h-1.937v4.394c-.468-.689-1.209-1.092-2.275-1.092-1.703 0-2.899 1.482-2.899 3.562 0 2.119 1.196 3.614 2.899 3.614zm.663-1.664c-.962 0-1.638-.806-1.638-1.937 0-1.118.676-1.911 1.638-1.911.949 0 1.625.793 1.625 1.911 0 1.131-.676 1.937-1.625 1.937zm9.466 1.664c1.703 0 2.912-1.495 2.912-3.614 0-2.08-1.209-3.562-2.912-3.562-1.066 0-1.807.403-2.275 1.092v-4.394h-1.924V398h1.924v-.884c.468.689 1.209 1.092 2.275 1.092zm-.663-1.664c-.949 0-1.625-.806-1.625-1.937 0-1.118.676-1.911 1.625-1.911.962 0 1.638.793 1.638 1.911 0 1.131-.676 1.937-1.638 1.937zm7.119 1.664c1.157 0 1.885-.52 2.223-1.365.169.923.91 1.443 2.405 1.105v-1.378c-.533.052-.637-.143-.637-.702v-2.288c0-1.599-1.118-2.548-3.094-2.548-1.95 0-3.094.962-3.094 2.587h1.898c0-.585.429-.923 1.17-.923.806 0 1.209.325 1.196.884v.208l-1.586.182c-1.872.221-2.951.988-2.951 2.223 0 1.027.728 2.015 2.47 2.015zm.39-1.43c-.598 0-.923-.273-.923-.689 0-.494.637-.676 1.859-.832l.663-.078c-.117.91-.676 1.599-1.599 1.599zm8.671 1.43c1.664 0 2.951-1.105 3.146-2.665h-1.924c-.065.585-.585 1.001-1.3 1.001-.897 0-1.482-.806-1.482-1.937 0-1.118.585-1.911 1.482-1.911.689 0 1.209.429 1.3 1.027h1.924c-.195-1.573-1.482-2.691-3.146-2.691-2.08 0-3.497 1.482-3.497 3.575 0 2.106 1.417 3.601 3.497 3.601zm4.532-.208h1.924v-2.509l.52-.429 2.392 2.938h2.379l-3.458-4.056 3.198-2.704h-2.47l-2.561 2.197v-5.707h-1.924V398z"/></g><circle cx="530.007" cy="70" r="29" fill="#F8D07F" opacity=".1"/><circle cx="530.007" cy="70" r="10" fill="#F8D07F" opacity=".3"/><path fill="#fff" fill-rule="evenodd" d="M539.569 74.622h-5.087c-.354 0-.641-.269-.641-.6v-5.233c0-.331.287-.6.641-.6h5.087c.354 0 .641.269.641.6v5.232c0 .332-.287.601-.641.601z" clip-rule="evenodd"/><path fill="#fff" fill-rule="evenodd" d="M539.569 74.622h-5.087c-.354 0-.641-.269-.641-.6v-5.233c0-.331.287-.6.641-.6h5.087c.354 0 .641.269.641.6v5.232c0 .332-.287.601-.641.601zM521.209 60h3.696c.664 0 1.202.538 1.202 1.202v3.429c0 .663-.538 1.201-1.202 1.201h-3.696a1.202 1.202 0 01-1.202-1.201V61.2a1.2 1.2 0 011.202-1.2z" clip-rule="evenodd"/><path fill="#fff" fill-rule="evenodd" d="M521.209 60h3.696c.664 0 1.202.538 1.202 1.202v3.429c0 .663-.538 1.201-1.202 1.201h-3.696a1.202 1.202 0 01-1.202-1.201V61.2a1.2 1.2 0 011.202-1.2zm.061 7.335h3.697c.664 0 1.202.538 1.202 1.201v3.43a1.2 1.2 0 01-1.202 1.2h-3.697a1.202 1.202 0 01-1.202-1.2v-3.43c0-.663.538-1.201 1.202-1.201z" clip-rule="evenodd"/><path fill="#fff" fill-rule="evenodd" d="M521.27 67.335h3.697c.664 0 1.202.538 1.202 1.201v3.43a1.2 1.2 0 01-1.202 1.2h-3.697a1.202 1.202 0 01-1.202-1.2v-3.43c0-.663.538-1.201 1.202-1.201zm-.061 7.832h3.696c.664 0 1.202.538 1.202 1.202v3.429c0 .663-.538 1.201-1.202 1.201h-3.696a1.202 1.202 0 01-1.202-1.201v-3.43a1.2 1.2 0 011.202-1.2z" clip-rule="evenodd"/><path fill="#fff" fill-rule="evenodd" d="M521.209 75.167h3.696c.664 0 1.202.538 1.202 1.202v3.429c0 .663-.538 1.201-1.202 1.201h-3.696a1.202 1.202 0 01-1.202-1.201v-3.43a1.2 1.2 0 011.202-1.2zm7.548-9.2a.55.55 0 01.55.55v13.867a.55.55 0 11-1.1 0V66.516a.55.55 0 01.55-.55z" clip-rule="evenodd"/><path fill="#fff" fill-rule="evenodd" d="M528.757 65.966a.55.55 0 01.55.55v13.868a.55.55 0 11-1.1 0V66.516a.55.55 0 01.55-.55z" clip-rule="evenodd"/><path fill="#fff" fill-rule="evenodd" d="M529.578 66.801h5.086c.354 0 .641.27.641.601v5.232c0 .332-.287.601-.641.601h-5.086c-.354 0-.641-.269-.641-.6v-5.233c0-.332.287-.6.641-.6z" clip-rule="evenodd"/><path fill="#fff" fill-rule="evenodd" d="M529.578 66.801h5.086c.354 0 .641.27.641.601v5.232c0 .332-.287.601-.641.601h-5.086c-.354 0-.641-.269-.641-.6v-5.233c0-.332.287-.6.641-.6zm-.79-5.768h11.734a.416.416 0 010 .833h-11.734a.417.417 0 010-.833z" clip-rule="evenodd"/><path fill="#fff" fill-rule="evenodd" d="M528.788 61.033h11.734a.416.416 0 010 .833h-11.734a.417.417 0 010-.833zm.067 2.46h11.734a.417.417 0 010 .833h-11.734a.417.417 0 010-.834z" clip-rule="evenodd"/><path fill="#fff" fill-rule="evenodd" d="M528.855 63.492h11.734a.417.417 0 010 .834h-11.734a.417.417 0 010-.834zm2.25 13.975h9.25a.417.417 0 010 .833h-9.25a.417.417 0 010-.833z" clip-rule="evenodd"/><path fill="#fff" fill-rule="evenodd" d="M531.105 77.467h9.25a.417.417 0 010 .833h-9.25a.417.417 0 010-.833z" clip-rule="evenodd"/><g filter="url(#filter24_d)"><path fill="#fff" d="M484.022 99h2.028v-4.29h5.122v-1.872h-5.122V90.68h5.577v-1.82h-7.605V99zm12.019.208c1.651 0 2.938-.936 3.146-2.405h-1.937c-.078.468-.52.832-1.196.832-1.001 0-1.456-.572-1.547-1.443h4.706v-.624c0-2.158-1.378-3.536-3.172-3.536-2.067 0-3.497 1.482-3.497 3.575 0 2.106 1.43 3.601 3.497 3.601zm-1.521-4.199c.117-.78.533-1.313 1.443-1.313.819 0 1.274.56 1.313 1.313h-2.756zm8.342 4.2c1.157 0 1.885-.52 2.223-1.366.169.923.91 1.443 2.405 1.105V97.57c-.533.052-.637-.143-.637-.702V94.58c0-1.599-1.118-2.548-3.094-2.548-1.95 0-3.094.962-3.094 2.587h1.898c0-.585.429-.923 1.17-.923.806 0 1.209.325 1.196.884v.208l-1.586.182c-1.872.221-2.951.988-2.951 2.223 0 1.027.728 2.015 2.47 2.015zm.39-1.43c-.598 0-.923-.274-.923-.69 0-.494.637-.676 1.859-.832l.663-.078c-.117.91-.676 1.6-1.599 1.6zm9.534 1.208v-1.703c-1.443.13-1.495.026-1.495-1.092v-2.197h1.768V92.24h-1.768v-1.82h-1.924v1.82h-1.443v1.755h1.443v3.185c-.039 1.911.988 1.99 3.419 1.807zm8.421-6.747h-1.924v3.458c0 1.118-.585 1.846-1.521 1.846-.832 0-1.326-.598-1.326-1.586V92.24h-1.95v3.822c0 2.067.819 3.146 2.509 3.146 1.079 0 1.833-.455 2.288-1.183V99h1.924v-6.76zm1.71 6.76h1.898v-3.653c0-1.222 1.287-1.326 2.652-1.326v-1.859c-1.313 0-2.21.442-2.652 1.352V92.24h-1.898V99zm8.518.208c1.651 0 2.938-.936 3.146-2.405h-1.937c-.078.468-.52.832-1.196.832-1.001 0-1.456-.572-1.547-1.443h4.706v-.624c0-2.158-1.378-3.536-3.172-3.536-2.067 0-3.497 1.482-3.497 3.575 0 2.106 1.43 3.601 3.497 3.601zm-1.521-4.199c.117-.78.533-1.313 1.443-1.313.819 0 1.274.56 1.313 1.313h-2.756zM540.903 99h1.937v-5.005h1.846V92.24h-1.846v-.442c.013-1.053.377-1.313 1.274-1.313h.442V88.73h-.988c-1.755-.026-2.691 1.131-2.665 2.873v.637h-1.586v1.755h1.586V99zm4.866 0h1.924V88.73h-1.924V99zm5.957.208c1.157 0 1.885-.52 2.223-1.365.169.923.91 1.443 2.405 1.105V97.57c-.533.052-.637-.143-.637-.702V94.58c0-1.599-1.118-2.548-3.094-2.548-1.95 0-3.094.962-3.094 2.587h1.898c0-.585.429-.923 1.17-.923.806 0 1.209.325 1.196.884v.208l-1.586.182c-1.872.221-2.951.988-2.951 2.223 0 1.027.728 2.015 2.47 2.015zm.39-1.43c-.598 0-.923-.273-.923-.689 0-.494.637-.676 1.859-.832l.663-.078c-.117.91-.676 1.6-1.599 1.6zm8.839 4.03c2.34 0 3.575-1.066 3.575-3.263V92.24h-1.937v.858c-.455-.676-1.183-1.066-2.262-1.066-1.742 0-2.912 1.482-2.912 3.601 0 2.093 1.17 3.406 2.912 3.406 1.079 0 1.807-.35 2.262-.975v.481c.013 1.222-.481 1.807-1.547 1.807-.806 0-1.404-.26-1.469-.87h-1.937c.143 1.572 1.3 2.326 3.315 2.326zm.026-4.355c-.962 0-1.638-.78-1.638-1.898 0-1.13.676-1.937 1.638-1.937.962 0 1.625.806 1.625 1.937 0 1.118-.663 1.898-1.625 1.898zm8.268 1.755c1.963 0 3.146-.832 3.146-2.17 0-2.939-4.316-1.548-4.316-2.86 0-.482.416-.807 1.131-.807.78 0 1.248.403 1.287 1.066h1.898c-.117-1.495-1.261-2.405-3.068-2.405-1.989 0-3.185.858-3.185 2.223 0 2.86 4.329 1.47 4.329 2.847 0 .403-.429.767-1.17.767-.806 0-1.391-.377-1.417-1.027h-1.911c.039 1.482 1.274 2.366 3.276 2.366z"/></g><circle cx="530.007" cy="339" r="29" fill="#FFE81D" opacity=".1"/><circle cx="530.007" cy="339" r="10" fill="#FFE81D" opacity=".3"/><path fill="#fff" fill-rule="evenodd" d="M525.717 338.443l1.089.686-1.074 1.704-1.089-.686 1.074-1.704z" clip-rule="evenodd"/><path fill="#fff" fill-rule="evenodd" d="M525.717 338.443l1.089.686-1.074 1.704-1.089-.686 1.074-1.704z" clip-rule="evenodd"/><path fill="#fff" fill-rule="evenodd" d="M531.27 330.77a5.013 5.013 0 00-6.912 1.578c-1.478 2.346-.781 5.443 1.558 6.917 2.339 1.474 5.434.767 6.912-1.579a5.012 5.012 0 00-1.558-6.916zm-.758 1.072a3.746 3.746 0 011.163 5.168 3.745 3.745 0 01-5.164 1.179 3.747 3.747 0 01-1.164-5.168 3.746 3.746 0 015.165-1.179z" clip-rule="evenodd"/><path fill="#fff" fill-rule="evenodd" d="M531.27 330.77a5.013 5.013 0 00-6.912 1.578c-1.478 2.346-.781 5.443 1.558 6.917 2.339 1.474 5.434.767 6.912-1.579a5.012 5.012 0 00-1.558-6.916zm-.758 1.072a3.746 3.746 0 011.163 5.168 3.745 3.745 0 01-5.164 1.179 3.747 3.747 0 01-1.164-5.168 3.746 3.746 0 015.165-1.179zm9.946 4.556a.389.389 0 00-.388-.389h-1.333a.389.389 0 00-.388.389v8.772a.388.388 0 01-.388.388h-.448a.389.389 0 01-.389-.388v-7.132a.388.388 0 00-.388-.388h-1.359a.388.388 0 00-.388.388v7.132a.388.388 0 01-.388.388h-.421a.388.388 0 01-.388-.388v-4.875a.388.388 0 00-.388-.388h-1.359a.388.388 0 00-.388.388v4.875a.389.389 0 01-.389.388h-.369a.388.388 0 01-.388-.388v-2.355a.388.388 0 00-.388-.388h-1.359a.388.388 0 00-.388.388v2.355a.388.388 0 01-.388.388h-.421a.388.388 0 01-.388-.388v-1.074a.389.389 0 00-.389-.388h-1.358a.389.389 0 00-.389.388v1.074a.388.388 0 01-.388.388h-2.214a.389.389 0 00-.388.389v.733c0 .215.174.389.388.389h18.177a.388.388 0 00.388-.389v-.848a.274.274 0 00-.274-.274.274.274 0 01-.274-.274v-8.886z" clip-rule="evenodd"/><path fill="#fff" fill-rule="evenodd" d="M540.458 336.398a.389.389 0 00-.388-.389h-1.333a.389.389 0 00-.388.389v8.772a.388.388 0 01-.388.388h-.448a.389.389 0 01-.389-.388v-7.132a.388.388 0 00-.388-.388h-1.359a.388.388 0 00-.388.388v7.132a.388.388 0 01-.388.388h-.421a.388.388 0 01-.388-.388v-4.875a.388.388 0 00-.388-.388h-1.359a.388.388 0 00-.388.388v4.875a.389.389 0 01-.389.388h-.369a.388.388 0 01-.388-.388v-2.355a.388.388 0 00-.388-.388h-1.359a.388.388 0 00-.388.388v2.355a.388.388 0 01-.388.388h-.421a.388.388 0 01-.388-.388v-1.074a.389.389 0 00-.389-.388h-1.358a.389.389 0 00-.389.388v1.074a.388.388 0 01-.388.388h-2.214a.389.389 0 00-.388.389v.733c0 .215.174.389.388.389h18.177a.388.388 0 00.388-.389v-.848a.274.274 0 00-.274-.274.274.274 0 01-.274-.274v-8.886z" clip-rule="evenodd"/><path fill="#fff" fill-rule="evenodd" d="M521.451 347.964l-.139-.02c-.395-.056-.896-.369-1.12-.699l-.094-.138a.63.63 0 01-.01-.635l4.056-6.435a.379.379 0 01.523-.119l1.299.819a.378.378 0 01.119.523l-4.056 6.436a.638.638 0 01-.578.268z" clip-rule="evenodd"/><path fill="#fff" fill-rule="evenodd" d="M521.451 347.964l-.139-.02c-.395-.056-.896-.369-1.12-.699l-.094-.138a.63.63 0 01-.01-.635l4.056-6.435a.379.379 0 01.523-.119l1.299.819a.378.378 0 01.119.523l-4.056 6.436a.638.638 0 01-.578.268z" clip-rule="evenodd"/><g filter="url(#filter25_d)"><path fill="#fff" d="M500.266 368h2.028v-3.77h2.223c1.287 0 1.443.26 1.612 1.521.13.936.182 1.638.442 2.249h2.145v-.13c-.416-.936-.286-1.248-.507-2.704-.143-.897-.507-1.365-1.209-1.573.962-.429 1.534-1.274 1.534-2.548 0-2.002-1.261-3.185-3.51-3.185h-4.758V368zm2.028-5.538v-2.639h2.327c1.248 0 1.82.494 1.82 1.313 0 .832-.546 1.326-1.755 1.326h-2.392zm11.108 5.746c1.651 0 2.938-.936 3.146-2.405h-1.937c-.078.468-.52.832-1.196.832-1.001 0-1.456-.572-1.547-1.443h4.706v-.624c0-2.158-1.378-3.536-3.172-3.536-2.067 0-3.497 1.482-3.497 3.575 0 2.106 1.43 3.601 3.497 3.601zm-1.521-4.199c.117-.78.533-1.313 1.443-1.313.819 0 1.274.559 1.313 1.313h-2.756zm7.921 3.991h2.093l2.717-6.76h-2.015l-1.742 4.524-1.742-4.524h-2.015l2.704 6.76zm8.593.208c1.651 0 2.938-.936 3.146-2.405h-1.937c-.078.468-.52.832-1.196.832-1.001 0-1.456-.572-1.547-1.443h4.706v-.624c0-2.158-1.378-3.536-3.172-3.536-2.067 0-3.497 1.482-3.497 3.575 0 2.106 1.43 3.601 3.497 3.601zm-1.521-4.199c.117-.78.533-1.313 1.443-1.313.819 0 1.274.559 1.313 1.313h-2.756zm6.155 3.991h1.924v-3.458c0-1.118.585-1.846 1.521-1.846.832 0 1.326.598 1.326 1.586V368h1.95v-3.822c0-2.067-.819-3.146-2.509-3.146-1.079 0-1.833.455-2.288 1.183v-.975h-1.924V368zm14.996-6.76h-1.924v3.458c0 1.118-.585 1.846-1.521 1.846-.832 0-1.326-.598-1.326-1.586v-3.718h-1.95v3.822c0 2.067.819 3.146 2.509 3.146 1.079 0 1.833-.455 2.288-1.183V368h1.924v-6.76zm4.948 6.968c1.651 0 2.938-.936 3.146-2.405h-1.937c-.078.468-.52.832-1.196.832-1.001 0-1.456-.572-1.547-1.443h4.706v-.624c0-2.158-1.378-3.536-3.172-3.536-2.067 0-3.497 1.482-3.497 3.575 0 2.106 1.43 3.601 3.497 3.601zm-1.521-4.199c.117-.78.533-1.313 1.443-1.313.819 0 1.274.559 1.313 1.313h-2.756zm-46.194 19.978v-1.703c-1.443.13-1.495.026-1.495-1.092v-2.197h1.768v-1.755h-1.768v-1.82h-1.924v1.82h-1.443v1.755h1.443v3.185c-.039 1.911.988 1.989 3.419 1.807zm1.777.013h1.898v-3.653c0-1.222 1.287-1.326 2.652-1.326v-1.859c-1.313 0-2.21.442-2.652 1.352v-1.274h-1.898V384zm7.507.208c1.157 0 1.885-.52 2.223-1.365.169.923.91 1.443 2.405 1.105v-1.378c-.533.052-.637-.143-.637-.702v-2.288c0-1.599-1.118-2.548-3.094-2.548-1.95 0-3.094.962-3.094 2.587h1.898c0-.585.429-.923 1.17-.923.806 0 1.209.325 1.196.884v.208l-1.586.182c-1.872.221-2.951.988-2.951 2.223 0 1.027.728 2.015 2.47 2.015zm.39-1.43c-.598 0-.923-.273-.923-.689 0-.494.637-.676 1.859-.832l.663-.078c-.117.91-.676 1.599-1.599 1.599zm8.67 1.43c1.664 0 2.951-1.105 3.146-2.665h-1.924c-.065.585-.585 1.001-1.3 1.001-.897 0-1.482-.806-1.482-1.937 0-1.118.585-1.911 1.482-1.911.689 0 1.209.429 1.3 1.027h1.924c-.195-1.573-1.482-2.691-3.146-2.691-2.08 0-3.497 1.482-3.497 3.575 0 2.106 1.417 3.601 3.497 3.601zm4.533-.208h1.924v-2.509l.52-.429 2.392 2.938h2.379l-3.458-4.056 3.198-2.704h-2.47l-2.561 2.197v-5.707h-1.924V384zm9.011-7.592c.702 0 1.222-.52 1.222-1.222s-.52-1.196-1.222-1.196c-.715 0-1.235.494-1.235 1.196s.52 1.222 1.235 1.222zm-.975 7.592h1.937v-6.76h-1.937V384zm3.644 0h1.924v-3.458c0-1.118.585-1.846 1.521-1.846.832 0 1.326.598 1.326 1.586V384h1.95v-3.822c0-2.067-.819-3.146-2.509-3.146-1.079 0-1.833.455-2.288 1.183v-.975h-1.924V384zm11.72 2.808c2.34 0 3.575-1.066 3.575-3.263v-6.305h-1.937v.858c-.455-.676-1.183-1.066-2.262-1.066-1.742 0-2.912 1.482-2.912 3.601 0 2.093 1.17 3.406 2.912 3.406 1.079 0 1.807-.351 2.262-.975v.481c.013 1.222-.481 1.807-1.547 1.807-.806 0-1.404-.26-1.469-.871h-1.937c.143 1.573 1.3 2.327 3.315 2.327zm.026-4.355c-.962 0-1.638-.78-1.638-1.898 0-1.131.676-1.937 1.638-1.937.962 0 1.625.806 1.625 1.937 0 1.118-.663 1.898-1.625 1.898z"/></g><circle cx="115.007" cy="308" r="29" fill="#00FF57" opacity=".1"/><circle cx="115.007" cy="308" r="10" fill="#00FF57" opacity=".3"/><path fill="#fff" fill-rule="evenodd" d="M120 302h-14.193a1.02 1.02 0 00-1.021 1.02v2.027a.919.919 0 00-.779.908v5.048c0 .46.338.841.779.909v1.648c0 .563.457 1.02 1.021 1.02H120a1.02 1.02 0 001.02-1.02v-3.187l.047.027 2.685 1.551a.98.98 0 00.321.122v.174a.468.468 0 00.934 0v-7.897a.467.467 0 10-.934 0v.153a.994.994 0 00-.32.123l-2.685 1.55-.048.027v-3.183A1.02 1.02 0 00120 302zm-8.922 6.253l-.039 2.307c-.008.462.313.654.717.43l2.017-1.12 2.018-1.12c.403-.225.41-.599.014-.836l-1.979-1.187-1.979-1.187c-.396-.238-.723-.056-.731.406l-.038 2.307z" clip-rule="evenodd"/><path fill="#fff" fill-rule="evenodd" d="M120 302h-14.193a1.02 1.02 0 00-1.021 1.02v2.027a.919.919 0 00-.779.908v5.048c0 .46.338.841.779.909v1.648c0 .563.457 1.02 1.021 1.02H120a1.02 1.02 0 001.02-1.02v-3.187l.047.027 2.685 1.551a.98.98 0 00.321.122v.174a.468.468 0 00.934 0v-7.897a.467.467 0 10-.934 0v.153a.994.994 0 00-.32.123l-2.685 1.55-.048.027v-3.183A1.02 1.02 0 00120 302zm-8.922 6.253l-.039 2.307c-.008.462.313.654.717.43l2.017-1.12 2.018-1.12c.403-.225.41-.599.014-.836l-1.979-1.187-1.979-1.187c-.396-.238-.723-.056-.731.406l-.038 2.307z" clip-rule="evenodd"/><g filter="url(#filter26_d)"><path fill="#fff" d="M94.516 337.208c2.665 0 4.238-1.352 4.238-3.276 0-4.407-6.253-1.846-6.253-4.134 0-.806.676-1.274 1.91-1.274 1.21 0 1.912.559 1.99 1.508h2.236c0-2.08-1.73-3.38-4.186-3.38-2.483 0-4.043 1.222-4.043 3.172 0 4.303 6.24 1.794 6.24 4.134 0 .845-.741 1.378-2.08 1.378-1.365 0-2.145-.676-2.184-1.82h-2.275c0 2.327 1.807 3.692 4.407 3.692zm9.065 0c1.664 0 2.951-1.105 3.146-2.665h-1.924c-.065.585-.585 1.001-1.3 1.001-.897 0-1.482-.806-1.482-1.937 0-1.118.585-1.911 1.482-1.911.689 0 1.209.429 1.3 1.027h1.924c-.195-1.573-1.482-2.691-3.146-2.691-2.08 0-3.497 1.482-3.497 3.575 0 2.106 1.417 3.601 3.497 3.601zm4.533-.208h1.898v-3.653c0-1.222 1.287-1.326 2.652-1.326v-1.859c-1.313 0-2.21.442-2.652 1.352v-1.274h-1.898V337zm8.518.208c1.651 0 2.938-.936 3.146-2.405h-1.937c-.078.468-.52.832-1.196.832-1.001 0-1.456-.572-1.547-1.443h4.706v-.624c0-2.158-1.378-3.536-3.172-3.536-2.067 0-3.497 1.482-3.497 3.575 0 2.106 1.43 3.601 3.497 3.601zm-1.521-4.199c.117-.78.533-1.313 1.443-1.313.819 0 1.274.559 1.313 1.313h-2.756zm9.392 4.199c1.651 0 2.938-.936 3.146-2.405h-1.937c-.078.468-.52.832-1.196.832-1.001 0-1.456-.572-1.547-1.443h4.706v-.624c0-2.158-1.378-3.536-3.172-3.536-2.067 0-3.497 1.482-3.497 3.575 0 2.106 1.43 3.601 3.497 3.601zm-1.521-4.199c.117-.78.533-1.313 1.443-1.313.819 0 1.274.559 1.313 1.313h-2.756zm6.155 3.991h1.924v-3.458c0-1.118.585-1.846 1.521-1.846.832 0 1.326.598 1.326 1.586V337h1.95v-3.822c0-2.067-.819-3.146-2.509-3.146-1.079 0-1.833.455-2.288 1.183v-.975h-1.924V337zM78.21 353h1.898v-3.653c0-1.222 1.287-1.326 2.652-1.326v-1.859c-1.313 0-2.21.442-2.652 1.352v-1.274H78.21V353zm8.518.208c1.651 0 2.938-.936 3.146-2.405h-1.937c-.078.468-.52.832-1.196.832-1 0-1.456-.572-1.547-1.443H89.9v-.624c0-2.158-1.378-3.536-3.172-3.536-2.067 0-3.497 1.482-3.497 3.575 0 2.106 1.43 3.601 3.497 3.601zm-1.52-4.199c.116-.78.532-1.313 1.442-1.313.82 0 1.274.559 1.313 1.313h-2.756zm9.391 4.199c1.664 0 2.951-1.105 3.146-2.665h-1.924c-.065.585-.585 1.001-1.3 1.001-.897 0-1.482-.806-1.482-1.937 0-1.118.585-1.911 1.482-1.911.69 0 1.21.429 1.3 1.027h1.924c-.195-1.573-1.482-2.691-3.146-2.691-2.08 0-3.497 1.482-3.497 3.575 0 2.106 1.417 3.601 3.497 3.601zm7.874 0c2.119 0 3.614-1.495 3.614-3.601 0-2.093-1.495-3.575-3.614-3.575-2.119 0-3.601 1.482-3.601 3.575 0 2.106 1.482 3.601 3.601 3.601zm0-1.664c-.975 0-1.664-.806-1.664-1.937 0-1.118.689-1.911 1.664-1.911.988 0 1.677.793 1.677 1.911 0 1.131-.689 1.937-1.677 1.937zm4.949 1.456h1.898v-3.653c0-1.222 1.287-1.326 2.652-1.326v-1.859c-1.313 0-2.21.442-2.652 1.352v-1.274h-1.898V353zm7.92.208c1.066 0 1.807-.403 2.275-1.092V353h1.937v-10.27h-1.937v4.394c-.468-.689-1.209-1.092-2.275-1.092-1.703 0-2.899 1.482-2.899 3.562 0 2.119 1.196 3.614 2.899 3.614zm.663-1.664c-.962 0-1.638-.806-1.638-1.937 0-1.118.676-1.911 1.638-1.911.949 0 1.625.793 1.625 1.911 0 1.131-.676 1.937-1.625 1.937zm6.23-6.136c.702 0 1.222-.52 1.222-1.222s-.52-1.196-1.222-1.196c-.715 0-1.235.494-1.235 1.196s.52 1.222 1.235 1.222zM121.26 353h1.937v-6.76h-1.937V353zm3.643 0h1.924v-3.458c0-1.118.585-1.846 1.521-1.846.832 0 1.326.598 1.326 1.586V353h1.95v-3.822c0-2.067-.819-3.146-2.509-3.146-1.079 0-1.833.455-2.288 1.183v-.975h-1.924V353zm11.721 2.808c2.34 0 3.575-1.066 3.575-3.263v-6.305h-1.937v.858c-.455-.676-1.183-1.066-2.262-1.066-1.742 0-2.912 1.482-2.912 3.601 0 2.093 1.17 3.406 2.912 3.406 1.079 0 1.807-.351 2.262-.975v.481c.013 1.222-.481 1.807-1.547 1.807-.806 0-1.404-.26-1.469-.871h-1.937c.143 1.573 1.3 2.327 3.315 2.327zm.026-4.355c-.962 0-1.638-.78-1.638-1.898 0-1.131.676-1.937 1.638-1.937.962 0 1.625.806 1.625 1.937 0 1.118-.663 1.898-1.625 1.898zm8.268 1.755c1.963 0 3.146-.832 3.146-2.171 0-2.938-4.316-1.547-4.316-2.86 0-.481.416-.806 1.131-.806.78 0 1.248.403 1.287 1.066h1.898c-.117-1.495-1.261-2.405-3.068-2.405-1.989 0-3.185.858-3.185 2.223 0 2.86 4.329 1.469 4.329 2.847 0 .403-.429.767-1.17.767-.806 0-1.391-.377-1.417-1.027h-1.911c.039 1.482 1.274 2.366 3.276 2.366z"/></g><circle cx="202.007" cy="190" r="29" fill="#FF7E7E" opacity=".1"/><circle cx="202.007" cy="190" r="10" fill="#FF7E7E" opacity=".3"/><path fill="#fff" fill-rule="evenodd" d="M195.007 193.878c0-1.86.765-3.497 1.826-4.855 4.07-5.209 2.245-9.023 2.245-9.023s2.535.772 4.18 2.965c1.92 2.56 1.933 4.838 1.933 4.838s-.098.437.582-.447c.681-.884 1.041-2.438 1.041-2.438s.766 1.327.895 2.614c.401 4.017 2.011 4.486 2.011 6.346a7.363 7.363 0 01-4.597 6.826c-.418.17 2.416-1.666 1.407-4.512-.522-1.475-.738-.976-1.544-2.872-.732-1.726-.384-3.993-.384-3.993s-2.503 1.216-2.902 3.345c-.176.938-.118 2.637-.118 2.637l-1.767-2.616s-1.064 1.491-.775 2.896c.37 1.801 1.04 1.284 1.475 3.251.247 1.117.12 2.197-.023 2.159a7.362 7.362 0 01-5.485-7.121z" clip-rule="evenodd"/><path fill="#fff" fill-rule="evenodd" d="M195.007 193.878c0-1.86.765-3.497 1.826-4.855 4.07-5.209 2.245-9.023 2.245-9.023s2.535.772 4.18 2.965c1.92 2.56 1.933 4.838 1.933 4.838s-.098.437.582-.447c.681-.884 1.041-2.438 1.041-2.438s.766 1.327.895 2.614c.401 4.017 2.011 4.486 2.011 6.346a7.363 7.363 0 01-4.597 6.826c-.418.17 2.416-1.666 1.407-4.512-.522-1.475-.738-.976-1.544-2.872-.732-1.726-.384-3.993-.384-3.993s-2.503 1.216-2.902 3.345c-.176.938-.118 2.637-.118 2.637l-1.767-2.616s-1.064 1.491-.775 2.896c.37 1.801 1.04 1.284 1.475 3.251.247 1.117.12 2.197-.023 2.159a7.362 7.362 0 01-5.485-7.121z" clip-rule="evenodd"/><g filter="url(#filter27_d)"><path fill="#fff" d="M166.431 219h2.028v-4.342h4.914V219h2.028v-10.14h-2.028v3.848h-4.914v-3.848h-2.028V219zm14.062.208c1.651 0 2.938-.936 3.146-2.405h-1.937c-.078.468-.52.832-1.196.832-1.001 0-1.456-.572-1.547-1.443h4.706v-.624c0-2.158-1.378-3.536-3.172-3.536-2.067 0-3.497 1.482-3.497 3.575 0 2.106 1.43 3.601 3.497 3.601zm-1.521-4.199c.117-.78.533-1.313 1.443-1.313.819 0 1.274.559 1.313 1.313h-2.756zm8.343 4.199c1.157 0 1.885-.52 2.223-1.365.169.923.91 1.443 2.405 1.105v-1.378c-.533.052-.637-.143-.637-.702v-2.288c0-1.599-1.118-2.548-3.094-2.548-1.95 0-3.094.962-3.094 2.587h1.898c0-.585.429-.923 1.17-.923.806 0 1.209.325 1.196.884v.208l-1.586.182c-1.872.221-2.951.988-2.951 2.223 0 1.027.728 2.015 2.47 2.015zm.39-1.43c-.598 0-.923-.273-.923-.689 0-.494.637-.676 1.859-.832l.663-.078c-.117.91-.676 1.599-1.599 1.599zm9.534 1.209v-1.703c-1.443.13-1.495.026-1.495-1.092v-2.197h1.768v-1.755h-1.768v-1.82h-1.924v1.82h-1.443v1.755h1.443v3.185c-.039 1.911.988 1.989 3.419 1.807zm1.777.013h1.924v-3.458c0-1.118.585-1.846 1.521-1.846.832 0 1.326.598 1.326 1.586V219h1.95v-3.458c0-1.118.585-1.846 1.521-1.846.832 0 1.326.598 1.326 1.586V219h1.963v-3.822c0-2.067-.832-3.146-2.522-3.146-1.04 0-1.963.364-2.626 1.287-.377-.858-1.092-1.287-2.171-1.287-1.079 0-1.833.455-2.288 1.183v-.975h-1.924V219zm15.467.208c1.157 0 1.885-.52 2.223-1.365.169.923.91 1.443 2.405 1.105v-1.378c-.533.052-.637-.143-.637-.702v-2.288c0-1.599-1.118-2.548-3.094-2.548-1.95 0-3.094.962-3.094 2.587h1.898c0-.585.429-.923 1.17-.923.806 0 1.209.325 1.196.884v.208l-1.586.182c-1.872.221-2.951.988-2.951 2.223 0 1.027.728 2.015 2.47 2.015zm.39-1.43c-.598 0-.923-.273-.923-.689 0-.494.637-.676 1.859-.832l.663-.078c-.117.91-.676 1.599-1.599 1.599zm5.395 3.822h1.924v-3.484c.468.689 1.209 1.092 2.275 1.092 1.703 0 2.912-1.482 2.912-3.562 0-2.119-1.209-3.614-2.912-3.614-1.066 0-1.807.403-2.275 1.092v-.884h-1.924v9.36zm3.536-4.056c-.949 0-1.625-.793-1.625-1.911 0-1.131.676-1.937 1.625-1.937.962 0 1.638.806 1.638 1.937 0 1.118-.676 1.911-1.638 1.911zm8.037 1.664c1.963 0 3.146-.832 3.146-2.171 0-2.938-4.316-1.547-4.316-2.86 0-.481.416-.806 1.131-.806.78 0 1.248.403 1.287 1.066h1.898c-.117-1.495-1.261-2.405-3.068-2.405-1.989 0-3.185.858-3.185 2.223 0 2.86 4.329 1.469 4.329 2.847 0 .403-.429.767-1.17.767-.806 0-1.391-.377-1.417-1.027h-1.911c.039 1.482 1.274 2.366 3.276 2.366z"/></g><circle cx="382.007" cy="129" r="29" fill="#FF0AF5" opacity=".1"/><circle cx="382.007" cy="129" r="10" fill="#FF0AF5" opacity=".3"/><path fill="#fff" fill-rule="evenodd" d="M381.216 120h-8.498a.71.71 0 00-.711.711V137.6a.71.71 0 00.711.711h8.498a.711.711 0 00.711-.711v-16.889a.711.711 0 00-.711-.711zm-.469 16.062h-1.699l-.481-1.601h-3.214l-.48 1.601h-1.712l2.562-8.374h2.475l2.549 8.374zm-3.891-6.613l-1.022 3.411h2.253l-1.034-3.411h-.197z" clip-rule="evenodd"/><path fill="#fff" fill-rule="evenodd" d="M381.216 120h-8.498a.71.71 0 00-.711.711V137.6a.71.71 0 00.711.711h8.498a.711.711 0 00.711-.711v-16.889a.711.711 0 00-.711-.711zm-.469 16.062h-1.699l-.481-1.601h-3.214l-.48 1.601h-1.712l2.562-8.374h2.475l2.549 8.374zm-3.891-6.613l-1.022 3.411h2.253l-1.034-3.411h-.197z" clip-rule="evenodd"/><g fill="#fff" fill-rule="evenodd" clip-rule="evenodd" opacity=".5"><path d="M392.295 120.039h-8.498a.71.71 0 00-.711.711v16.889c0 .392.318.711.711.711h8.498a.712.712 0 00.711-.711V120.75a.711.711 0 00-.711-.711zm-2.88 11.455v.197c1.441.086 1.921.887 1.921 1.97 0 1.256-.616 2.402-2.82 2.402h-3.251v-8.374h3.251c1.872 0 2.574.973 2.574 2.044 0 .862-.444 1.675-1.675 1.761zm-.961-2.204h-1.588v1.539h1.588c.739 0 1.035-.185 1.035-.776 0-.579-.296-.763-1.035-.763zm-1.588 5.049h1.65c.862 0 1.219-.185 1.219-.961 0-.763-.357-.948-1.219-.948h-1.65v1.909z"/><path d="M392.295 120.039h-8.498a.71.71 0 00-.711.711v16.889c0 .392.318.711.711.711h8.498a.712.712 0 00.711-.711V120.75a.711.711 0 00-.711-.711zm-2.88 11.455v.197c1.441.086 1.921.887 1.921 1.97 0 1.256-.616 2.402-2.82 2.402h-3.251v-8.374h3.251c1.872 0 2.574.973 2.574 2.044 0 .862-.444 1.675-1.675 1.761zm-.961-2.204h-1.588v1.539h1.588c.739 0 1.035-.185 1.035-.776 0-.579-.296-.763-1.035-.763zm-1.588 5.049h1.65c.862 0 1.219-.185 1.219-.961 0-.763-.357-.948-1.219-.948h-1.65v1.909z"/></g><g filter="url(#filter28_d)"><path fill="#fff" d="M337.432 158h2.184l.936-2.145h5.005l.923 2.145h2.184l-4.485-10.14h-2.262L337.432 158zm3.965-4.108l1.664-3.796 1.651 3.796h-3.315zM352.479 158l7.358-10.27h-2.483L349.996 158h2.483zm15.882-5.317c.91-.325 1.456-1.144 1.456-2.249 0-1.638-1.196-2.574-3.159-2.574h-4.706V158h5.044c1.911 0 3.25-1.196 3.25-2.834 0-1.235-.637-2.21-1.885-2.483zm-4.381-2.86h1.95c1.248 0 1.833.247 1.833 1.04 0 .741-.559 1.092-1.768 1.092h-2.015v-2.132zm2.327 6.214h-2.327v-2.327h2.379c1.235 0 1.807.351 1.807 1.118 0 .806-.585 1.209-1.859 1.209zm13.822 1.95v-1.703c-1.443.13-1.495.026-1.495-1.092v-2.197h1.768v-1.755h-1.768v-1.82h-1.924v1.82h-1.443v1.755h1.443v3.185c-.039 1.911.988 1.989 3.419 1.807zm4.76.221c1.651 0 2.938-.936 3.146-2.405h-1.937c-.078.468-.52.832-1.196.832-1.001 0-1.456-.572-1.547-1.443h4.706v-.624c0-2.158-1.378-3.536-3.172-3.536-2.067 0-3.497 1.482-3.497 3.575 0 2.106 1.43 3.601 3.497 3.601zm-1.521-4.199c.117-.78.533-1.313 1.443-1.313.819 0 1.274.559 1.313 1.313h-2.756zm9.171 4.199c1.963 0 3.146-.832 3.146-2.171 0-2.938-4.316-1.547-4.316-2.86 0-.481.416-.806 1.131-.806.78 0 1.248.403 1.287 1.066h1.898c-.117-1.495-1.261-2.405-3.068-2.405-1.989 0-3.185.858-3.185 2.223 0 2.86 4.329 1.469 4.329 2.847 0 .403-.429.767-1.17.767-.806 0-1.391-.377-1.417-1.027h-1.911c.039 1.482 1.274 2.366 3.276 2.366zm8.74-.221v-1.703c-1.443.13-1.495.026-1.495-1.092v-2.197h1.768v-1.755h-1.768v-1.82h-1.924v1.82h-1.443v1.755h1.443v3.185c-.039 1.911.988 1.989 3.419 1.807zm2.701-7.579c.702 0 1.222-.52 1.222-1.222s-.52-1.196-1.222-1.196c-.715 0-1.235.494-1.235 1.196s.52 1.222 1.235 1.222zm-.975 7.592h1.937v-6.76h-1.937V158zm3.644 0h1.924v-3.458c0-1.118.585-1.846 1.521-1.846.832 0 1.326.598 1.326 1.586V158h1.95v-3.822c0-2.067-.819-3.146-2.509-3.146-1.079 0-1.833.455-2.288 1.183v-.975h-1.924V158zm11.721 2.808c2.34 0 3.575-1.066 3.575-3.263v-6.305h-1.937v.858c-.455-.676-1.183-1.066-2.262-1.066-1.742 0-2.912 1.482-2.912 3.601 0 2.093 1.17 3.406 2.912 3.406 1.079 0 1.807-.351 2.262-.975v.481c.013 1.222-.481 1.807-1.547 1.807-.806 0-1.404-.26-1.469-.871h-1.937c.143 1.573 1.3 2.327 3.315 2.327zm.026-4.355c-.962 0-1.638-.78-1.638-1.898 0-1.131.676-1.937 1.638-1.937.962 0 1.625.806 1.625 1.937 0 1.118-.663 1.898-1.625 1.898z"/></g><circle cx="322.007" cy="249" r="29" fill="#E3FF39" opacity=".1"/><circle cx="322.007" cy="249" r="10" fill="#E3FF39" opacity=".3"/><g fill="#fff" clip-path="url(#clip0)"><path d="M332.879 253.945l-3.072-1.153-5.545 2.088c-.72.288-1.512.408-2.255.408a6.58 6.58 0 01-2.256-.408l-5.545-2.088-3.072 1.153c-.504.192-.528.647-.528.792 0 .144.048.6.528.792l9.216 3.48a4.634 4.634 0 003.312 0l9.216-3.48c.504-.192.527-.648.527-.792.001-.145-.047-.601-.527-.792h.001z"/><path d="M332.879 248.208l-3.072-1.152-5.545 2.088c-.72.287-1.512.407-2.255.407a6.602 6.602 0 01-2.256-.407l-5.545-2.088-3.072 1.152c-.504.192-.528.648-.528.792 0 .145.048.6.528.792l9.216 3.48a4.634 4.634 0 003.312 0l9.216-3.48c.504-.192.527-.647.527-.792.001-.144-.047-.6-.527-.792h.001z"/><path d="M311.135 244.08l9.217 3.48a4.634 4.634 0 003.312 0l9.215-3.48c.505-.192.528-.672.528-.792 0-.144-.048-.6-.528-.792l-9.216-3.48a4.634 4.634 0 00-3.312 0l-9.216 3.48c-.504.192-.528.648-.528.792 0 .12.048.6.528.792z"/></g><g filter="url(#filter29_d)"><path fill="#fff" d="M294.254 278h2.028v-3.978l3.887-6.162h-2.236l-2.665 4.329-2.665-4.329h-2.236l3.887 6.162V278zm8.383.208c2.119 0 3.614-1.495 3.614-3.601 0-2.093-1.495-3.575-3.614-3.575-2.119 0-3.601 1.482-3.601 3.575 0 2.106 1.482 3.601 3.601 3.601zm0-1.664c-.975 0-1.664-.806-1.664-1.937 0-1.118.689-1.911 1.664-1.911.988 0 1.677.793 1.677 1.911 0 1.131-.689 1.937-1.677 1.937zm11.718-5.304h-1.924v3.458c0 1.118-.585 1.846-1.521 1.846-.832 0-1.326-.598-1.326-1.586v-3.718h-1.95v3.822c0 2.067.819 3.146 2.509 3.146 1.079 0 1.833-.455 2.288-1.183V278h1.924v-6.76zm1.711 6.76h1.898v-3.653c0-1.222 1.287-1.326 2.652-1.326v-1.859c-1.313 0-2.21.442-2.652 1.352v-1.274h-1.898V278zm11.835.208c1.157 0 1.885-.52 2.223-1.365.169.923.91 1.443 2.405 1.105v-1.378c-.533.052-.637-.143-.637-.702v-2.288c0-1.599-1.118-2.548-3.094-2.548-1.95 0-3.094.962-3.094 2.587h1.898c0-.585.429-.923 1.17-.923.806 0 1.209.325 1.196.884v.208l-1.586.182c-1.872.221-2.951.988-2.951 2.223 0 1.027.728 2.015 2.47 2.015zm.39-1.43c-.598 0-.923-.273-.923-.689 0-.494.637-.676 1.859-.832l.663-.078c-.117.91-.676 1.599-1.599 1.599zm5.396 3.822h1.924v-3.484c.468.689 1.209 1.092 2.275 1.092 1.703 0 2.912-1.482 2.912-3.562 0-2.119-1.209-3.614-2.912-3.614-1.066 0-1.807.403-2.275 1.092v-.884h-1.924v9.36zm3.536-4.056c-.949 0-1.625-.793-1.625-1.911 0-1.131.676-1.937 1.625-1.937.962 0 1.638.806 1.638 1.937 0 1.118-.676 1.911-1.638 1.911zm4.894 4.056h1.924v-3.484c.468.689 1.209 1.092 2.275 1.092 1.703 0 2.912-1.482 2.912-3.562 0-2.119-1.209-3.614-2.912-3.614-1.066 0-1.807.403-2.275 1.092v-.884h-1.924v9.36zm3.536-4.056c-.949 0-1.625-.793-1.625-1.911 0-1.131.676-1.937 1.625-1.937.962 0 1.638.806 1.638 1.937 0 1.118-.676 1.911-1.638 1.911z"/></g></g><defs><filter id="filter0_d" width="611.23" height="460.904" x=".5" y=".096" color-interpolation-filters="sRGB" filterUnits="userSpaceOnUse"><feFlood flood-opacity="0" result="BackgroundImageFix"/><feColorMatrix in="SourceAlpha" values="0 0 0 0 0 0 0 0 0 0 0 0 0 0 0 0 0 0 127 0"/><feOffset dy="10"/><feGaussianBlur stdDeviation="10"/><feColorMatrix values="0 0 0 0 0.15787 0 0 0 0 0 0 0 0 0 0.366667 0 0 0 0.2 0"/><feBlend in2="BackgroundImageFix" result="effect1_dropShadow"/><feBlend in="SourceGraphic" in2="effect1_dropShadow" result="shape"/></filter><filter id="filter1_d" width="133" height="17" x="76.007" y="63" color-interpolation-filters="sRGB" filterUnits="userSpaceOnUse"><feFlood flood-opacity="0" result="BackgroundImageFix"/><feColorMatrix in="SourceAlpha" values="0 0 0 0 0 0 0 0 0 0 0 0 0 0 0 0 0 0 127 0"/><feOffset/><feGaussianBlur stdDeviation="4"/><feColorMatrix values="0 0 0 0 1 0 0 0 0 1 0 0 0 0 1 0 0 0 0.5 0"/><feBlend in2="BackgroundImageFix" result="effect1_dropShadow"/><feBlend in="SourceGraphic" in2="effect1_dropShadow" result="shape"/></filter><filter id="filter2_d" width="44" height="17" x="75.007" y="213" color-interpolation-filters="sRGB" filterUnits="userSpaceOnUse"><feFlood flood-opacity="0" result="BackgroundImageFix"/><feColorMatrix in="SourceAlpha" values="0 0 0 0 0 0 0 0 0 0 0 0 0 0 0 0 0 0 127 0"/><feOffset/><feGaussianBlur stdDeviation="4"/><feColorMatrix values="0 0 0 0 1 0 0 0 0 1 0 0 0 0 1 0 0 0 0.5 0"/><feBlend in2="BackgroundImageFix" result="effect1_dropShadow"/><feBlend in="SourceGraphic" in2="effect1_dropShadow" result="shape"/></filter><filter id="filter3_d" width="166" height="17" x="103.007" y="301" color-interpolation-filters="sRGB" filterUnits="userSpaceOnUse"><feFlood flood-opacity="0" result="BackgroundImageFix"/><feColorMatrix in="SourceAlpha" values="0 0 0 0 0 0 0 0 0 0 0 0 0 0 0 0 0 0 127 0"/><feOffset/><feGaussianBlur stdDeviation="4"/><feColorMatrix values="0 0 0 0 1 0 0 0 0 1 0 0 0 0 1 0 0 0 0.5 0"/><feBlend in2="BackgroundImageFix" result="effect1_dropShadow"/><feBlend in="SourceGraphic" in2="effect1_dropShadow" result="shape"/></filter><filter id="filter4_d" width="128" height="17" x="201.007" y="183" color-interpolation-filters="sRGB" filterUnits="userSpaceOnUse"><feFlood flood-opacity="0" result="BackgroundImageFix"/><feColorMatrix in="SourceAlpha" values="0 0 0 0 0 0 0 0 0 0 0 0 0 0 0 0 0 0 127 0"/><feOffset/><feGaussianBlur stdDeviation="4"/><feColorMatrix values="0 0 0 0 1 0 0 0 0 1 0 0 0 0 1 0 0 0 0.5 0"/><feBlend in2="BackgroundImageFix" result="effect1_dropShadow"/><feBlend in="SourceGraphic" in2="effect1_dropShadow" result="shape"/></filter><filter id="filter5_d" width="136" height="17" x="313.007" y="122" color-interpolation-filters="sRGB" filterUnits="userSpaceOnUse"><feFlood flood-opacity="0" result="BackgroundImageFix"/><feColorMatrix in="SourceAlpha" values="0 0 0 0 0 0 0 0 0 0 0 0 0 0 0 0 0 0 127 0"/><feOffset/><feGaussianBlur stdDeviation="4"/><feColorMatrix values="0 0 0 0 1 0 0 0 0 1 0 0 0 0 1 0 0 0 0.5 0"/><feBlend in2="BackgroundImageFix" result="effect1_dropShadow"/><feBlend in="SourceGraphic" in2="effect1_dropShadow" result="shape"/></filter><filter id="filter6_d" width="107" height="17" x="432.007" y="63" color-interpolation-filters="sRGB" filterUnits="userSpaceOnUse"><feFlood flood-opacity="0" result="BackgroundImageFix"/><feColorMatrix in="SourceAlpha" values="0 0 0 0 0 0 0 0 0 0 0 0 0 0 0 0 0 0 127 0"/><feOffset/><feGaussianBlur stdDeviation="4"/><feColorMatrix values="0 0 0 0 1 0 0 0 0 1 0 0 0 0 1 0 0 0 0.5 0"/><feBlend in2="BackgroundImageFix" result="effect1_dropShadow"/><feBlend in="SourceGraphic" in2="effect1_dropShadow" result="shape"/></filter><filter id="filter7_d" width="286" height="17" x="253.007" y="242" color-interpolation-filters="sRGB" filterUnits="userSpaceOnUse"><feFlood flood-opacity="0" result="BackgroundImageFix"/><feColorMatrix in="SourceAlpha" values="0 0 0 0 0 0 0 0 0 0 0 0 0 0 0 0 0 0 127 0"/><feOffset/><feGaussianBlur stdDeviation="4"/><feColorMatrix values="0 0 0 0 1 0 0 0 0 1 0 0 0 0 1 0 0 0 0.5 0"/><feBlend in2="BackgroundImageFix" result="effect1_dropShadow"/><feBlend in="SourceGraphic" in2="effect1_dropShadow" result="shape"/></filter><filter id="filter8_d" width="166" height="17" x="373.007" y="331" color-interpolation-filters="sRGB" filterUnits="userSpaceOnUse"><feFlood flood-opacity="0" result="BackgroundImageFix"/><feColorMatrix in="SourceAlpha" values="0 0 0 0 0 0 0 0 0 0 0 0 0 0 0 0 0 0 127 0"/><feOffset/><feGaussianBlur stdDeviation="4"/><feColorMatrix values="0 0 0 0 1 0 0 0 0 1 0 0 0 0 1 0 0 0 0.5 0"/><feBlend in2="BackgroundImageFix" result="effect1_dropShadow"/><feBlend in="SourceGraphic" in2="effect1_dropShadow" result="shape"/></filter><filter id="filter9_d" width="106" height="17" x="283.007" y="362" color-interpolation-filters="sRGB" filterUnits="userSpaceOnUse"><feFlood flood-opacity="0" result="BackgroundImageFix"/><feColorMatrix in="SourceAlpha" values="0 0 0 0 0 0 0 0 0 0 0 0 0 0 0 0 0 0 127 0"/><feOffset/><feGaussianBlur stdDeviation="4"/><feColorMatrix values="0 0 0 0 1 0 0 0 0 1 0 0 0 0 1 0 0 0 0.5 0"/><feBlend in2="BackgroundImageFix" result="effect1_dropShadow"/><feBlend in="SourceGraphic" in2="effect1_dropShadow" result="shape"/></filter><filter id="filter10_d" width="46" height="17" x="283.007" y="331" color-interpolation-filters="sRGB" filterUnits="userSpaceOnUse"><feFlood flood-opacity="0" result="BackgroundImageFix"/><feColorMatrix in="SourceAlpha" values="0 0 0 0 0 0 0 0 0 0 0 0 0 0 0 0 0 0 127 0"/><feOffset/><feGaussianBlur stdDeviation="4"/><feColorMatrix values="0 0 0 0 1 0 0 0 0 1 0 0 0 0 1 0 0 0 0.5 0"/><feBlend in2="BackgroundImageFix" result="effect1_dropShadow"/><feBlend in="SourceGraphic" in2="effect1_dropShadow" result="shape"/></filter><filter id="filter11_d" width="17" height="286" x="522.007" y="63" color-interpolation-filters="sRGB" filterUnits="userSpaceOnUse"><feFlood flood-opacity="0" result="BackgroundImageFix"/><feColorMatrix in="SourceAlpha" values="0 0 0 0 0 0 0 0 0 0 0 0 0 0 0 0 0 0 127 0"/><feOffset/><feGaussianBlur stdDeviation="4"/><feColorMatrix values="0 0 0 0 1 0 0 0 0 1 0 0 0 0 1 0 0 0 0.5 0"/><feBlend in2="BackgroundImageFix" result="effect1_dropShadow"/><feBlend in="SourceGraphic" in2="effect1_dropShadow" result="shape"/></filter><filter id="filter12_d" width="17" height="255" x="192.007" y="63" color-interpolation-filters="sRGB" filterUnits="userSpaceOnUse"><feFlood flood-opacity="0" result="BackgroundImageFix"/><feColorMatrix in="SourceAlpha" values="0 0 0 0 0 0 0 0 0 0 0 0 0 0 0 0 0 0 127 0"/><feOffset/><feGaussianBlur stdDeviation="4"/><feColorMatrix values="0 0 0 0 1 0 0 0 0 1 0 0 0 0 1 0 0 0 0.5 0"/><feBlend in2="BackgroundImageFix" result="effect1_dropShadow"/><feBlend in="SourceGraphic" in2="effect1_dropShadow" result="shape"/></filter><filter id="filter13_d" width="17" height="166" x="75.007" y="63" color-interpolation-filters="sRGB" filterUnits="userSpaceOnUse"><feFlood flood-opacity="0" result="BackgroundImageFix"/><feColorMatrix in="SourceAlpha" values="0 0 0 0 0 0 0 0 0 0 0 0 0 0 0 0 0 0 127 0"/><feOffset/><feGaussianBlur stdDeviation="4"/><feColorMatrix values="0 0 0 0 1 0 0 0 0 1 0 0 0 0 1 0 0 0 0.5 0"/><feBlend in2="BackgroundImageFix" result="effect1_dropShadow"/><feBlend in="SourceGraphic" in2="effect1_dropShadow" result="shape"/></filter><filter id="filter14_d" width="17" height="106" x="102.007" y="213" color-interpolation-filters="sRGB" filterUnits="userSpaceOnUse"><feFlood flood-opacity="0" result="BackgroundImageFix"/><feColorMatrix in="SourceAlpha" values="0 0 0 0 0 0 0 0 0 0 0 0 0 0 0 0 0 0 127 0"/><feOffset/><feGaussianBlur stdDeviation="4"/><feColorMatrix values="0 0 0 0 1 0 0 0 0 1 0 0 0 0 1 0 0 0 0.5 0"/><feBlend in2="BackgroundImageFix" result="effect1_dropShadow"/><feBlend in="SourceGraphic" in2="effect1_dropShadow" result="shape"/></filter><filter id="filter15_d" width="17" height="76" x="252.007" y="242" color-interpolation-filters="sRGB" filterUnits="userSpaceOnUse"><feFlood flood-opacity="0" result="BackgroundImageFix"/><feColorMatrix in="SourceAlpha" values="0 0 0 0 0 0 0 0 0 0 0 0 0 0 0 0 0 0 127 0"/><feOffset/><feGaussianBlur stdDeviation="4"/><feColorMatrix values="0 0 0 0 1 0 0 0 0 1 0 0 0 0 1 0 0 0 0.5 0"/><feBlend in2="BackgroundImageFix" result="effect1_dropShadow"/><feBlend in="SourceGraphic" in2="effect1_dropShadow" result="shape"/></filter><filter id="filter16_d" width="17" height="136" x="312.007" y="122" color-interpolation-filters="sRGB" filterUnits="userSpaceOnUse"><feFlood flood-opacity="0" result="BackgroundImageFix"/><feColorMatrix in="SourceAlpha" values="0 0 0 0 0 0 0 0 0 0 0 0 0 0 0 0 0 0 127 0"/><feOffset/><feGaussianBlur stdDeviation="4"/><feColorMatrix values="0 0 0 0 1 0 0 0 0 1 0 0 0 0 1 0 0 0 0.5 0"/><feBlend in2="BackgroundImageFix" result="effect1_dropShadow"/><feBlend in="SourceGraphic" in2="effect1_dropShadow" result="shape"/></filter><filter id="filter17_d" width="17" height="136" x="372.007" y="122" color-interpolation-filters="sRGB" filterUnits="userSpaceOnUse"><feFlood flood-opacity="0" result="BackgroundImageFix"/><feColorMatrix in="SourceAlpha" values="0 0 0 0 0 0 0 0 0 0 0 0 0 0 0 0 0 0 127 0"/><feOffset/><feGaussianBlur stdDeviation="4"/><feColorMatrix values="0 0 0 0 1 0 0 0 0 1 0 0 0 0 1 0 0 0 0.5 0"/><feBlend in2="BackgroundImageFix" result="effect1_dropShadow"/><feBlend in="SourceGraphic" in2="effect1_dropShadow" result="shape"/></filter><filter id="filter18_d" width="17" height="76" x="432.007" y="63" color-interpolation-filters="sRGB" filterUnits="userSpaceOnUse"><feFlood flood-opacity="0" result="BackgroundImageFix"/><feColorMatrix in="SourceAlpha" values="0 0 0 0 0 0 0 0 0 0 0 0 0 0 0 0 0 0 127 0"/><feOffset/><feGaussianBlur stdDeviation="4"/><feColorMatrix values="0 0 0 0 1 0 0 0 0 1 0 0 0 0 1 0 0 0 0.5 0"/><feBlend in2="BackgroundImageFix" result="effect1_dropShadow"/><feBlend in="SourceGraphic" in2="effect1_dropShadow" result="shape"/></filter><filter id="filter19_d" width="17" height="48" x="372.007" y="331" color-interpolation-filters="sRGB" filterUnits="userSpaceOnUse"><feFlood flood-opacity="0" result="BackgroundImageFix"/><feColorMatrix in="SourceAlpha" values="0 0 0 0 0 0 0 0 0 0 0 0 0 0 0 0 0 0 127 0"/><feOffset/><feGaussianBlur stdDeviation="4"/><feColorMatrix values="0 0 0 0 1 0 0 0 0 1 0 0 0 0 1 0 0 0 0.5 0"/><feBlend in2="BackgroundImageFix" result="effect1_dropShadow"/><feBlend in="SourceGraphic" in2="effect1_dropShadow" result="shape"/></filter><filter id="filter20_d" width="17" height="48" x="282.007" y="331" color-interpolation-filters="sRGB" filterUnits="userSpaceOnUse"><feFlood flood-opacity="0" result="BackgroundImageFix"/><feColorMatrix in="SourceAlpha" values="0 0 0 0 0 0 0 0 0 0 0 0 0 0 0 0 0 0 127 0"/><feOffset/><feGaussianBlur stdDeviation="4"/><feColorMatrix values="0 0 0 0 1 0 0 0 0 1 0 0 0 0 1 0 0 0 0.5 0"/><feBlend in2="BackgroundImageFix" result="effect1_dropShadow"/><feBlend in="SourceGraphic" in2="effect1_dropShadow" result="shape"/></filter><filter id="filter21_d" width="17" height="106" x="312.007" y="242" color-interpolation-filters="sRGB" filterUnits="userSpaceOnUse"><feFlood flood-opacity="0" result="BackgroundImageFix"/><feColorMatrix in="SourceAlpha" values="0 0 0 0 0 0 0 0 0 0 0 0 0 0 0 0 0 0 127 0"/><feOffset/><feGaussianBlur stdDeviation="4"/><feColorMatrix values="0 0 0 0 1 0 0 0 0 1 0 0 0 0 1 0 0 0 0.5 0"/><feBlend in2="BackgroundImageFix" result="effect1_dropShadow"/><feBlend in="SourceGraphic" in2="effect1_dropShadow" result="shape"/></filter><filter id="filter22_d" width="63.941" height="15.87" x="51.342" y="88.73" color-interpolation-filters="sRGB" filterUnits="userSpaceOnUse"><feFlood flood-opacity="0" result="BackgroundImageFix"/><feColorMatrix in="SourceAlpha" values="0 0 0 0 0 0 0 0 0 0 0 0 0 0 0 0 0 0 127 0"/><feOffset dy="3"/><feColorMatrix values="0 0 0 0 0 0 0 0 0 0 0 0 0 0 0 0 0 0 0.05 0"/><feBlend in2="BackgroundImageFix" result="effect1_dropShadow"/><feBlend in="SourceGraphic" in2="effect1_dropShadow" result="shape"/></filter><filter id="filter23_d" width="97.021" height="13.478" x="242.394" y="387.729" color-interpolation-filters="sRGB" filterUnits="userSpaceOnUse"><feFlood flood-opacity="0" result="BackgroundImageFix"/><feColorMatrix in="SourceAlpha" values="0 0 0 0 0 0 0 0 0 0 0 0 0 0 0 0 0 0 127 0"/><feOffset dy="3"/><feColorMatrix values="0 0 0 0 0 0 0 0 0 0 0 0 0 0 0 0 0 0 0.05 0"/><feBlend in2="BackgroundImageFix" result="effect1_dropShadow"/><feBlend in="SourceGraphic" in2="effect1_dropShadow" result="shape"/></filter><filter id="filter24_d" width="88.374" height="16.078" x="484.022" y="88.73" color-interpolation-filters="sRGB" filterUnits="userSpaceOnUse"><feFlood flood-opacity="0" result="BackgroundImageFix"/><feColorMatrix in="SourceAlpha" values="0 0 0 0 0 0 0 0 0 0 0 0 0 0 0 0 0 0 127 0"/><feOffset dy="3"/><feColorMatrix values="0 0 0 0 0 0 0 0 0 0 0 0 0 0 0 0 0 0 0.05 0"/><feBlend in2="BackgroundImageFix" result="effect1_dropShadow"/><feBlend in="SourceGraphic" in2="effect1_dropShadow" result="shape"/></filter><filter id="filter25_d" width="55.879" height="31.948" x="500.266" y="357.86" color-interpolation-filters="sRGB" filterUnits="userSpaceOnUse"><feFlood flood-opacity="0" result="BackgroundImageFix"/><feColorMatrix in="SourceAlpha" values="0 0 0 0 0 0 0 0 0 0 0 0 0 0 0 0 0 0 127 0"/><feOffset dy="3"/><feColorMatrix values="0 0 0 0 0 0 0 0 0 0 0 0 0 0 0 0 0 0 0.05 0"/><feBlend in2="BackgroundImageFix" result="effect1_dropShadow"/><feBlend in="SourceGraphic" in2="effect1_dropShadow" result="shape"/></filter><filter id="filter26_d" width="69.854" height="32.156" x="78.21" y="326.652" color-interpolation-filters="sRGB" filterUnits="userSpaceOnUse"><feFlood flood-opacity="0" result="BackgroundImageFix"/><feColorMatrix in="SourceAlpha" values="0 0 0 0 0 0 0 0 0 0 0 0 0 0 0 0 0 0 127 0"/><feOffset dy="3"/><feColorMatrix values="0 0 0 0 0 0 0 0 0 0 0 0 0 0 0 0 0 0 0.05 0"/><feBlend in2="BackgroundImageFix" result="effect1_dropShadow"/><feBlend in="SourceGraphic" in2="effect1_dropShadow" result="shape"/></filter><filter id="filter27_d" width="68.556" height="15.74" x="166.431" y="208.86" color-interpolation-filters="sRGB" filterUnits="userSpaceOnUse"><feFlood flood-opacity="0" result="BackgroundImageFix"/><feColorMatrix in="SourceAlpha" values="0 0 0 0 0 0 0 0 0 0 0 0 0 0 0 0 0 0 127 0"/><feOffset dy="3"/><feColorMatrix values="0 0 0 0 0 0 0 0 0 0 0 0 0 0 0 0 0 0 0.05 0"/><feBlend in2="BackgroundImageFix" result="effect1_dropShadow"/><feBlend in="SourceGraphic" in2="effect1_dropShadow" result="shape"/></filter><filter id="filter28_d" width="84.513" height="16.078" x="337.432" y="147.73" color-interpolation-filters="sRGB" filterUnits="userSpaceOnUse"><feFlood flood-opacity="0" result="BackgroundImageFix"/><feColorMatrix in="SourceAlpha" values="0 0 0 0 0 0 0 0 0 0 0 0 0 0 0 0 0 0 127 0"/><feOffset dy="3"/><feColorMatrix values="0 0 0 0 0 0 0 0 0 0 0 0 0 0 0 0 0 0 0.05 0"/><feBlend in2="BackgroundImageFix" result="effect1_dropShadow"/><feBlend in="SourceGraphic" in2="effect1_dropShadow" result="shape"/></filter><filter id="filter29_d" width="58.861" height="15.74" x="290.367" y="267.86" color-interpolation-filters="sRGB" filterUnits="userSpaceOnUse"><feFlood flood-opacity="0" result="BackgroundImageFix"/><feColorMatrix in="SourceAlpha" values="0 0 0 0 0 0 0 0 0 0 0 0 0 0 0 0 0 0 127 0"/><feOffset dy="3"/><feColorMatrix values="0 0 0 0 0 0 0 0 0 0 0 0 0 0 0 0 0 0 0.05 0"/><feBlend in2="BackgroundImageFix" result="effect1_dropShadow"/><feBlend in="SourceGraphic" in2="effect1_dropShadow" result="shape"/></filter><clipPath id="clip0"><path fill="#fff" d="M0 0h24v24H0z" transform="translate(310.007 237)"/></clipPath></defs></svg>