<svg fill="none" viewBox="0 0 489 291"><g stroke="#AD0000" stroke-linecap="round" stroke-linejoin="round" stroke-width="8.681" filter="url(#filter0_f)"><path d="M237.554 98.926s-30.009-54.898-92.564-53.913c-51.009.803-98.51 42.115-99.942 97.368-1.931 74.559 54.963 103.402 99.942 102.471 76.604-1.588 106.87-88.195 106.87-88.195s35.638-79.642 95.021-77.662c59.384 1.98 65.289 66.959 65.289 66.959s1.222 66.457-63.7 70.314c-66.47 3.949-74.83-57.699-74.83-57.699"/><path d="M214.981 126.59s-39.314-52.173-72.405-49.718c-61.27 4.544-69.991 65.164-69.991 65.164s4.525 72.563 71.439 73.854c45.501.877 60.353-37.263 69.812-51.394 11.174-16.693 39.529-68.067 69.761-93.187 30.233-25.12 68.261-23.7 68.261-23.7s95.514 12.047 91.842 95.749c-4.231 96.459-78.215 100.838-93.361 102.244-73.576 6.829-93.435-51.266-93.435-51.266"/></g><path stroke="url(#paint0_linear)" stroke-linecap="round" stroke-linejoin="round" stroke-width="8.803" d="M237.641 99.646s-30.023-54.923-92.606-53.938c-51.032.804-98.555 42.134-99.987 97.412-1.932 74.593 54.988 103.449 99.987 102.517C215 244.187 245.122 171.5 254 158.5c14-20.5 41.5-80.512 93.017-78.795 59.41 1.98 65.318 50.295 65.318 66.99 0 12.621-6.801 64.328-65.318 67.805C288.5 217.977 275.5 163 275.5 163"/><path stroke="url(#paint1_linear)" stroke-linecap="round" stroke-linejoin="round" stroke-width="4" d="M213.912 124s-23.173-46.419-71.292-46.419C94.5 77.581 75.5 122 75.5 145.5s6.051 64.839 67.12 67.5c41.931 0 61.828-33.618 71.292-47.756 11.178-16.7 39.546-68.097 69.793-93.228 30.246-25.13 53.713-23.85 68.291-23.71 14.578.14 88.004 12.194 91.883 95.791-4.233 96.502-93.403 102.29-93.403 102.29-70.476 0-93.477-51.289-93.477-51.289"/><path stroke="url(#paint2_linear)" stroke-linecap="round" stroke-linejoin="round" stroke-width="4" d="M213.912 124s-23.173-46.419-71.292-46.419C94.5 77.581 75.5 122 75.5 145.5s6.051 64.839 67.12 67.5c41.931 0 61.828-33.618 71.292-47.756 11.178-16.7 39.546-68.097 69.793-93.228 30.246-25.13 53.713-23.85 68.291-23.71 14.578.14 88.004 12.194 91.883 95.791-4.233 96.502-93.403 102.29-93.403 102.29-70.476 0-93.477-51.289-93.477-51.289"/><g stroke-linecap="round" stroke-linejoin="round" stroke-width="8.681" filter="url(#filter1_f)"><path stroke="#FF83A8" d="M237.752 103.245s-30.01-54.899-92.565-53.914c-51.009.804-98.51 42.116-99.942 97.369-1.931 74.559 54.963 103.402 99.942 102.47 76.604-1.587 106.87-88.195 106.87-88.195s35.638-79.641 95.021-77.662c59.384 1.98 65.29 66.96 65.29 66.96s1.221 66.456-63.701 70.313c-66.47 3.949-74.829-57.698-74.829-57.698"/><path stroke="#FF6D6D" d="M215.179 130.908S194.5 74.5 142.5 77c-53 4-69.719 48-69.718 69.355 0 14.645 2.803 69.354 69.718 70.645 45.501.878 63.22-37.369 72.679-51.5 11.173-16.693 38.589-68.88 68.821-94 30.233-25.12 53.809-26.274 71-23 21 4 84 12.5 88.897 99.177C439.5 225 373.5 245.753 350 247c-58.037 3.08-92.899-48.346-92.899-48.346"/><path stroke="url(#paint3_linear)" d="M215.179 130.908S194.5 74.5 142.5 77c-53 4-69.719 48-69.718 69.355 0 14.645 2.803 69.354 69.718 70.645 45.501.878 63.22-37.369 72.679-51.5 11.173-16.693 38.589-68.88 68.821-94 30.233-25.12 53.809-26.274 71-23 21 4 84 12.5 88.897 99.177C439.5 225 373.5 245.753 350 247c-58.037 3.08-92.899-48.346-92.899-48.346"/></g><path fill="#fff" d="M325.623 140.217l5.827 5.82h-5.827v-5.82zm0-1.455l7.284 7.275h5.828l-13.112-13.095v5.82zm0-7.275l14.569 14.55h5.827l-20.396-20.369v5.819zm7.284 0l14.569 14.55v-5.82l-14.569-14.549v5.819zm7.285-5.819v5.819l7.284 7.275v-5.82l-7.284-7.274z"/><path fill="#fff" fill-rule="evenodd" d="M356.61 142.063a5.631 5.631 0 003.979 1.646v2.328h-12.082v-12.066l8.103 8.092zm-3.44.482a1.165 1.165 0 11-2.33-.002 1.165 1.165 0 012.33.002z" clip-rule="evenodd"/><path fill="#fff" d="M325.621 146.037h5.828l-5.828-5.82v5.82zm7.287-13.094l-7.285-7.275v5.82l7.285 7.275v-5.82zm-7.287-.001v5.82l7.285 7.275v-5.82l-7.285-7.275zm14.57 0l-7.285-7.275v5.82l7.285 7.275v-5.82z"/><path fill="#fff" d="M332.905 146.037h5.828l-5.828-5.82v5.82zm0-13.095v5.82l7.285 7.275v-5.82l-7.285-7.275z"/><g filter="url(#filter2_d)"><path fill="#fff" d="M317.265 160.442h-3.804v10.388h1.986v-3.101h1.818c3.3 0 4.278-1.467 4.278-3.651 0-2.185-.978-3.636-4.278-3.636zm.352 5.301h-2.17v-3.315h2.17c1.543 0 1.94.382 1.94 1.65 0 1.222-.397 1.665-1.94 1.665zm8.727 5.087c2.475 0 3.804-1.696 3.804-3.941 0-2.246-1.329-3.927-3.804-3.927-2.475 0-3.804 1.681-3.804 3.927 0 2.245 1.329 3.941 3.804 3.941zm0-1.986c-1.344 0-1.818-.428-1.818-1.955 0-1.528.474-1.941 1.818-1.941s1.818.413 1.818 1.941c0 1.527-.474 1.955-1.818 1.955zm5.091 1.161c1.116.596 2.2.825 3.392.825 1.711 0 3.178-.748 3.178-2.459 0-1.498-.871-1.941-3.163-2.353-1.222-.229-1.421-.29-1.421-.642 0-.305.26-.428.81-.428.84 0 2.047.245 3.163.642v-1.986c-.749-.367-1.986-.642-3.01-.642-1.635 0-2.949.795-2.949 2.292 0 1.375.688 2.047 3.086 2.399 1.223.198 1.498.259 1.498.656 0 .352-.306.535-1.039.535-1.131 0-2.154-.275-3.545-.993v2.154zm12.638-5.057v-1.986h-2.093v-2.826h-1.986v2.826h-1.222v1.986h1.222v5.882h4.079v-1.986h-2.093v-3.896h2.093zm8.541-4.506v4.354h-4.568v-4.354h-1.986v10.388h1.986v-4.048h4.568v4.048h1.986v-10.388h-1.986zm7.328 10.388c2.475 0 3.804-1.696 3.804-3.941 0-2.246-1.329-3.927-3.804-3.927-2.475 0-3.804 1.681-3.804 3.927 0 2.245 1.329 3.941 3.804 3.941zm0-1.986c-1.344 0-1.818-.428-1.818-1.955 0-1.528.474-1.941 1.818-1.941 1.345 0 1.818.413 1.818 1.941 0 1.527-.473 1.955-1.818 1.955zm10.651-5.882v.841c-.459-.428-1.131-.841-2.231-.841-2.292 0-3.392 1.574-3.392 3.545 0 1.986 1.1 3.559 3.392 3.559 1.1 0 1.772-.412 2.231-.84v2.063h-4.278v1.986h6.264v-10.313h-1.986zm-1.818 5.118c-1.345 0-1.818-.382-1.818-1.573 0-1.177.473-1.559 1.818-1.559 1.344 0 1.818.382 1.818 1.559 0 1.191-.474 1.573-1.818 1.573z"/></g><g clip-path="url(#clip0)"><g fill="#fff" clip-path="url(#clip1)"><path d="M161.883 145.199l-4.403-1.652-7.947 2.993c-1.032.412-2.168.584-3.233.584a9.435 9.435 0 01-3.233-.584l-7.947-2.993-4.404 1.652c-.722.275-.756.928-.756 1.135 0 .207.068.86.756 1.136l13.209 4.988a6.65 6.65 0 004.747 0l13.209-4.988c.723-.276.756-.929.756-1.136.002-.207-.067-.861-.755-1.135h.001z"/><path d="M161.883 136.976l-4.403-1.651-7.947 2.992c-1.032.413-2.168.585-3.233.585a9.436 9.436 0 01-3.233-.585l-7.947-2.992-4.404 1.651c-.722.276-.756.929-.756 1.136 0 .207.068.86.756 1.135l13.209 4.988a6.64 6.64 0 004.747 0l13.209-4.988c.723-.275.756-.928.756-1.135.002-.207-.067-.86-.755-1.136h.001z"/><path d="M130.72 131.06l13.21 4.988a6.653 6.653 0 004.748 0l13.208-4.988c.723-.275.757-.963.757-1.135 0-.207-.069-.86-.757-1.136l-13.21-4.988a6.65 6.65 0 00-4.747 0l-13.209 4.988c-.723.276-.756.929-.756 1.136 0 .172.068.86.756 1.135z"/></g></g><g filter="url(#filter3_d)"><path fill="#fff" d="M118.503 173.163h2.202v-4.319l4.221-6.691h-2.428l-2.894 4.7-2.893-4.7h-2.428l4.22 6.691v4.319zm9.102.226c2.301 0 3.924-1.623 3.924-3.91 0-2.273-1.623-3.882-3.924-3.882s-3.91 1.609-3.91 3.882c0 2.287 1.609 3.91 3.91 3.91zm0-1.807c-1.059 0-1.807-.875-1.807-2.103 0-1.214.748-2.075 1.807-2.075 1.073 0 1.821.861 1.821 2.075 0 1.228-.748 2.103-1.821 2.103zm12.725-5.759h-2.089v3.755c0 1.214-.635 2.004-1.652 2.004-.903 0-1.44-.649-1.44-1.722v-4.037h-2.117v4.15c0 2.244.889 3.416 2.724 3.416 1.172 0 1.991-.494 2.485-1.285v1.059h2.089v-7.34zm1.857 7.34h2.061v-3.967c0-1.326 1.398-1.439 2.88-1.439v-2.019c-1.426 0-2.4.48-2.88 1.468v-1.383h-2.061v7.34zm12.851.226c1.257 0 2.047-.565 2.414-1.482.184 1.002.988 1.567 2.612 1.2v-1.497c-.579.057-.692-.155-.692-.762v-2.484c0-1.737-1.214-2.767-3.36-2.767-2.117 0-3.359 1.044-3.359 2.809h2.061c0-.635.466-1.002 1.27-1.002.875 0 1.313.353 1.299.96v.225l-1.722.198c-2.033.24-3.205 1.073-3.205 2.414 0 1.115.791 2.188 2.682 2.188zm.424-1.553c-.649 0-1.002-.296-1.002-.748 0-.536.691-.734 2.018-.903l.72-.085c-.127.988-.734 1.736-1.736 1.736zm5.859 4.15h2.089v-3.783c.508.748 1.313 1.186 2.47 1.186 1.849 0 3.162-1.609 3.162-3.868 0-2.301-1.313-3.924-3.162-3.924-1.157 0-1.962.438-2.47 1.186v-.96h-2.089v10.163zm3.839-4.404c-1.03 0-1.764-.861-1.764-2.075 0-1.228.734-2.103 1.764-2.103 1.045 0 1.779.875 1.779 2.103 0 1.214-.734 2.075-1.779 2.075zm5.314 4.404h2.089v-3.783c.508.748 1.313 1.186 2.47 1.186 1.849 0 3.162-1.609 3.162-3.868 0-2.301-1.313-3.924-3.162-3.924-1.157 0-1.962.438-2.47 1.186v-.96h-2.089v10.163zm3.839-4.404c-1.03 0-1.764-.861-1.764-2.075 0-1.228.734-2.103 1.764-2.103 1.045 0 1.779.875 1.779 2.103 0 1.214-.734 2.075-1.779 2.075z"/></g><defs><filter id="filter0_f" width="487.484" height="289.841" x=".66" y=".66" color-interpolation-filters="sRGB" filterUnits="userSpaceOnUse"><feFlood flood-opacity="0" result="BackgroundImageFix"/><feBlend in="SourceGraphic" in2="BackgroundImageFix" result="shape"/><feGaussianBlur result="effect1_foregroundBlur" stdDeviation="20"/></filter><filter id="filter1_f" width="447.381" height="250.694" x="20.857" y="22.839" color-interpolation-filters="sRGB" filterUnits="userSpaceOnUse"><feFlood flood-opacity="0" result="BackgroundImageFix"/><feBlend in="SourceGraphic" in2="BackgroundImageFix" result="shape"/><feGaussianBlur result="effect1_foregroundBlur" stdDeviation="10"/></filter><filter id="filter2_d" width="59.117" height="17.017" x="313.461" y="160.136" color-interpolation-filters="sRGB" filterUnits="userSpaceOnUse"><feFlood flood-opacity="0" result="BackgroundImageFix"/><feColorMatrix in="SourceAlpha" values="0 0 0 0 0 0 0 0 0 0 0 0 0 0 0 0 0 0 127 0"/><feOffset dy="3.878"/><feColorMatrix values="0 0 0 0 0 0 0 0 0 0 0 0 0 0 0 0 0 0 0.05 0"/><feBlend in2="BackgroundImageFix" result="effect1_dropShadow"/><feBlend in="SourceGraphic" in2="effect1_dropShadow" result="shape"/></filter><filter id="filter3_d" width="63.912" height="18.133" x="114.283" y="162.153" color-interpolation-filters="sRGB" filterUnits="userSpaceOnUse"><feFlood flood-opacity="0" result="BackgroundImageFix"/><feColorMatrix in="SourceAlpha" values="0 0 0 0 0 0 0 0 0 0 0 0 0 0 0 0 0 0 127 0"/><feOffset dy="4.3"/><feColorMatrix values="0 0 0 0 0 0 0 0 0 0 0 0 0 0 0 0 0 0 0.05 0"/><feBlend in2="BackgroundImageFix" result="effect1_dropShadow"/><feBlend in="SourceGraphic" in2="effect1_dropShadow" result="shape"/></filter><linearGradient id="paint0_linear" x1="228.669" x2="228.669" y1="45.695" y2="245.658" gradientUnits="userSpaceOnUse"><stop stop-color="#ED1EFF"/><stop offset=".266" stop-color="#FF1AA3"/><stop offset=".5" stop-color="#FF4F29"/><stop offset=".734" stop-color="#FF7916"/><stop offset="1" stop-color="#FFCC40"/></linearGradient><linearGradient id="paint1_linear" x1="258.29" x2="258.29" y1="48.291" y2="246.946" gradientUnits="userSpaceOnUse"><stop stop-color="#EB09FF"/><stop offset=".286" stop-color="#FF14CB"/><stop offset=".542" stop-color="#FD3A96"/><stop offset=".76" stop-color="#FF4017"/><stop offset="1" stop-color="#F7A501"/></linearGradient><linearGradient id="paint2_linear" x1="258.296" x2="258.296" y1="48.254" y2="246.946" gradientUnits="userSpaceOnUse"><stop stop-color="#fff" stop-opacity=".57"/><stop offset="1" stop-color="#fff" stop-opacity="0"/></linearGradient><linearGradient id="paint3_linear" x1="258" x2="258" y1="237" y2="52" gradientUnits="userSpaceOnUse"><stop stop-color="#FF2465"/><stop offset="1" stop-color="#fff" stop-opacity="0"/></linearGradient><clipPath id="clip0"><path fill="#fff" d="M0 0h40.132v40.132H0z" transform="translate(126.234 118.046)"/></clipPath><clipPath id="clip1"><path fill="#fff" d="M0 0h34.399v34.399H0z" transform="translate(129.101 120.913)"/></clipPath></defs></svg>