<svg width="489" height="291" viewBox="0 0 489 291" fill="none" xmlns="http://www.w3.org/2000/svg">
<g filter="url(#filter0_f)">
<path d="M237.554 98.9263C237.554 98.9263 207.545 44.0281 144.99 45.0131C93.9811 45.8164 46.4794 87.1283 45.0479 142.381C43.1167 216.94 100.011 245.783 144.99 244.852C221.594 243.264 251.86 156.657 251.86 156.657C251.86 156.657 287.498 77.0153 346.881 78.9949C406.265 80.9744 412.17 145.954 412.17 145.954C412.17 145.954 413.392 212.411 348.47 216.268C282 220.217 273.64 158.569 273.64 158.569" stroke="#AD0000" stroke-width="8.68092" stroke-linecap="round" stroke-linejoin="round"/>
<path d="M214.981 126.59C214.981 126.59 175.667 74.4172 142.576 76.8716C81.3065 81.416 72.5845 142.036 72.5845 142.036C72.5845 142.036 77.1098 214.599 144.024 215.89C189.525 216.767 204.377 178.627 213.836 164.496C225.01 147.803 253.365 96.4288 283.597 71.3091C313.83 46.1897 351.858 47.6096 351.858 47.6096C351.858 47.6096 447.372 59.6558 443.7 143.358C439.469 239.817 365.485 244.196 350.339 245.602C276.763 252.431 256.904 194.336 256.904 194.336" stroke="#AD0000" stroke-width="8.68092" stroke-linecap="round" stroke-linejoin="round"/>
</g>
<path d="M237.641 99.6456C237.641 99.6456 207.618 44.7227 145.035 45.7082C94.0031 46.5118 46.48 87.8423 45.0479 143.12C43.1158 217.713 100.036 246.569 145.035 245.637C215 244.187 245.122 171.5 254 158.5C268 138 295.5 77.9879 347.017 79.7052C406.427 81.6856 412.335 130 412.335 146.695C412.335 159.316 405.534 211.023 347.017 214.5C288.5 217.977 275.5 163 275.5 163" stroke="url(#paint0_linear)" stroke-width="8.80272" stroke-linecap="round" stroke-linejoin="round"/>
<path d="M213.912 124C213.912 124 190.739 77.581 142.62 77.581C94.5002 77.581 75.5 122 75.5 145.5C75.5 169 81.5514 210.339 142.62 213C184.551 213 204.448 179.382 213.912 165.244C225.09 148.544 253.458 97.147 283.705 72.016C313.951 46.8853 337.418 48.1657 351.996 48.3059C366.574 48.446 440 60.5 443.879 144.097C439.646 240.599 350.476 246.387 350.476 246.387C280 246.387 256.999 195.098 256.999 195.098" stroke="url(#paint1_linear)" stroke-width="4" stroke-linecap="round" stroke-linejoin="round"/>
<path d="M213.912 124C213.912 124 190.739 77.581 142.62 77.581C94.5002 77.581 75.5 122 75.5 145.5C75.5 169 81.5514 210.339 142.62 213C184.551 213 204.448 179.382 213.912 165.244C225.09 148.544 253.458 97.147 283.705 72.016C313.951 46.8853 337.418 48.1657 351.996 48.3059C366.574 48.446 440 60.5 443.879 144.097C439.646 240.599 350.476 246.387 350.476 246.387C280 246.387 256.999 195.098 256.999 195.098" stroke="url(#paint2_linear)" stroke-width="4" stroke-linecap="round" stroke-linejoin="round"/>
<g filter="url(#filter1_f)">
<path d="M237.752 103.245C237.752 103.245 207.742 48.3465 145.187 49.3315C94.1783 50.1347 46.6766 91.4467 45.2451 146.7C43.3139 221.259 100.208 250.102 145.187 249.17C221.791 247.583 252.057 160.975 252.057 160.975C252.057 160.975 287.695 81.3337 347.078 83.3132C406.462 85.2928 412.368 150.273 412.368 150.273C412.368 150.273 413.589 216.729 348.667 220.586C282.197 224.535 273.838 162.888 273.838 162.888" stroke="#FF83A8" stroke-width="8.68092" stroke-linecap="round" stroke-linejoin="round"/>
<path d="M215.179 130.908C215.179 130.908 194.5 74.5 142.5 77C89.5 81 72.7815 125 72.7817 146.355C72.7819 161 75.5854 215.709 142.5 217C188.001 217.878 205.72 179.631 215.179 165.5C226.352 148.807 253.768 96.6198 284 71.5001C314.233 46.3807 337.809 45.2256 355 48.5C376 52.5 439 61 443.897 147.677C439.5 225 373.5 245.753 350 247C291.963 250.08 257.101 198.654 257.101 198.654" stroke="#FF6D6D" stroke-width="8.68092" stroke-linecap="round" stroke-linejoin="round"/>
<path d="M215.179 130.908C215.179 130.908 194.5 74.5 142.5 77C89.5 81 72.7815 125 72.7817 146.355C72.7819 161 75.5854 215.709 142.5 217C188.001 217.878 205.72 179.631 215.179 165.5C226.352 148.807 253.768 96.6198 284 71.5001C314.233 46.3807 337.809 45.2256 355 48.5C376 52.5 439 61 443.897 147.677C439.5 225 373.5 245.753 350 247C291.963 250.08 257.101 198.654 257.101 198.654" stroke="url(#paint3_linear)" stroke-width="8.68092" stroke-linecap="round" stroke-linejoin="round"/>
</g>
<path d="M325.623 140.217L331.45 146.037H325.623V140.217ZM325.623 138.762L332.907 146.037H338.735L325.623 132.942V138.762ZM325.623 131.487L340.192 146.037H346.019L325.623 125.668V131.487ZM332.907 131.487L347.476 146.037V140.217L332.907 125.668V131.487ZM340.192 125.668V131.487L347.476 138.762V132.942L340.192 125.668Z" fill="white"/>
<path fill-rule="evenodd" clip-rule="evenodd" d="M356.61 142.063C357.664 143.116 359.096 143.709 360.589 143.709V146.037H348.507V133.971L356.61 142.063ZM353.17 142.545C353.17 143.188 352.648 143.709 352.004 143.709C351.36 143.709 350.839 143.188 350.839 142.545C350.839 141.902 351.36 141.381 352.004 141.381C352.648 141.381 353.17 141.902 353.17 142.545Z" fill="white"/>
<path d="M325.621 146.037H331.449L325.621 140.217V146.037Z" fill="white"/>
<path d="M332.908 132.943L325.623 125.668V131.488L332.908 138.763V132.943Z" fill="white"/>
<path d="M325.621 132.942V138.762L332.906 146.037V140.217L325.621 132.942Z" fill="white"/>
<path d="M340.191 132.942L332.906 125.667V131.487L340.191 138.762V132.942Z" fill="white"/>
<path d="M332.905 146.037H338.733L332.905 140.217V146.037Z" fill="white"/>
<path d="M332.905 132.942V138.762L340.19 146.037V140.217L332.905 132.942Z" fill="white"/>
<g filter="url(#filter2_d)">
<path d="M317.265 160.442H313.461V170.83H315.447V167.729H317.265C320.565 167.729 321.543 166.262 321.543 164.078C321.543 161.893 320.565 160.442 317.265 160.442ZM317.617 165.743H315.447V162.428H317.617C319.16 162.428 319.557 162.81 319.557 164.078C319.557 165.3 319.16 165.743 317.617 165.743ZM326.344 170.83C328.819 170.83 330.148 169.134 330.148 166.889C330.148 164.643 328.819 162.962 326.344 162.962C323.869 162.962 322.54 164.643 322.54 166.889C322.54 169.134 323.869 170.83 326.344 170.83ZM326.344 168.844C325 168.844 324.526 168.416 324.526 166.889C324.526 165.361 325 164.948 326.344 164.948C327.688 164.948 328.162 165.361 328.162 166.889C328.162 168.416 327.688 168.844 326.344 168.844ZM331.435 170.005C332.551 170.601 333.635 170.83 334.827 170.83C336.538 170.83 338.005 170.082 338.005 168.371C338.005 166.873 337.134 166.43 334.842 166.018C333.62 165.789 333.421 165.728 333.421 165.376C333.421 165.071 333.681 164.948 334.231 164.948C335.071 164.948 336.278 165.193 337.394 165.59V163.604C336.645 163.237 335.408 162.962 334.384 162.962C332.749 162.962 331.435 163.757 331.435 165.254C331.435 166.629 332.123 167.301 334.521 167.653C335.744 167.851 336.019 167.912 336.019 168.309C336.019 168.661 335.713 168.844 334.98 168.844C333.849 168.844 332.826 168.569 331.435 167.851V170.005ZM344.073 164.948V162.962H341.98V160.136H339.994V162.962H338.772V164.948H339.994V170.83H344.073V168.844H341.98V164.948H344.073ZM352.614 160.442V164.796H348.046V160.442H346.06V170.83H348.046V166.782H352.614V170.83H354.6V160.442H352.614ZM359.942 170.83C362.417 170.83 363.746 169.134 363.746 166.889C363.746 164.643 362.417 162.962 359.942 162.962C357.467 162.962 356.138 164.643 356.138 166.889C356.138 169.134 357.467 170.83 359.942 170.83ZM359.942 168.844C358.598 168.844 358.124 168.416 358.124 166.889C358.124 165.361 358.598 164.948 359.942 164.948C361.287 164.948 361.76 165.361 361.76 166.889C361.76 168.416 361.287 168.844 359.942 168.844ZM370.593 162.962V163.803C370.134 163.375 369.462 162.962 368.362 162.962C366.07 162.962 364.97 164.536 364.97 166.507C364.97 168.493 366.07 170.066 368.362 170.066C369.462 170.066 370.134 169.654 370.593 169.226V171.289H366.315V173.275H372.579V162.962H370.593ZM368.775 168.08C367.43 168.08 366.957 167.698 366.957 166.507C366.957 165.33 367.43 164.948 368.775 164.948C370.119 164.948 370.593 165.33 370.593 166.507C370.593 167.698 370.119 168.08 368.775 168.08Z" fill="white"/>
</g>
<g clip-path="url(#clip0)">
<g clip-path="url(#clip1)">
<path d="M161.883 145.199L157.48 143.547L149.533 146.54C148.501 146.952 147.365 147.124 146.3 147.124C145.199 147.124 144.099 146.918 143.067 146.54L135.12 143.547L130.716 145.199C129.994 145.474 129.96 146.127 129.96 146.334C129.96 146.541 130.028 147.194 130.716 147.47L143.925 152.458C145.438 153.042 147.158 153.042 148.672 152.458L161.881 147.47C162.604 147.194 162.637 146.541 162.637 146.334C162.639 146.127 162.57 145.473 161.882 145.199H161.883Z" fill="white"/>
<path d="M161.883 136.976L157.48 135.325L149.533 138.317C148.501 138.73 147.365 138.902 146.3 138.902C145.199 138.902 144.099 138.695 143.067 138.317L135.12 135.325L130.716 136.976C129.994 137.252 129.96 137.905 129.96 138.112C129.96 138.319 130.028 138.972 130.716 139.247L143.925 144.235C145.438 144.82 147.158 144.82 148.672 144.235L161.881 139.247C162.604 138.972 162.637 138.319 162.637 138.112C162.639 137.905 162.57 137.252 161.882 136.976H161.883Z" fill="white"/>
<path d="M130.72 131.06L143.93 136.048C145.443 136.632 147.163 136.632 148.678 136.048L161.886 131.06C162.609 130.785 162.643 130.097 162.643 129.925C162.643 129.718 162.574 129.065 161.886 128.789L148.676 123.801C147.163 123.217 145.443 123.217 143.929 123.801L130.72 128.789C129.997 129.065 129.964 129.718 129.964 129.925C129.964 130.097 130.032 130.785 130.72 131.06Z" fill="white"/>
</g>
</g>
<g filter="url(#filter3_d)">
<path d="M118.503 173.163H120.705V168.844L124.926 162.153H122.498L119.604 166.853L116.711 162.153H114.283L118.503 168.844V173.163ZM127.605 173.389C129.906 173.389 131.529 171.766 131.529 169.479C131.529 167.206 129.906 165.597 127.605 165.597C125.304 165.597 123.695 167.206 123.695 169.479C123.695 171.766 125.304 173.389 127.605 173.389ZM127.605 171.582C126.546 171.582 125.798 170.707 125.798 169.479C125.798 168.265 126.546 167.404 127.605 167.404C128.678 167.404 129.426 168.265 129.426 169.479C129.426 170.707 128.678 171.582 127.605 171.582ZM140.33 165.823H138.241V169.578C138.241 170.792 137.606 171.582 136.589 171.582C135.686 171.582 135.149 170.933 135.149 169.86V165.823H133.032V169.973C133.032 172.217 133.921 173.389 135.756 173.389C136.928 173.389 137.747 172.895 138.241 172.104V173.163H140.33V165.823ZM142.187 173.163H144.248V169.196C144.248 167.87 145.646 167.757 147.128 167.757V165.738C145.702 165.738 144.728 166.218 144.248 167.206V165.823H142.187V173.163ZM155.038 173.389C156.295 173.389 157.085 172.824 157.452 171.907C157.636 172.909 158.44 173.474 160.064 173.107V171.61C159.485 171.667 159.372 171.455 159.372 170.848V168.364C159.372 166.627 158.158 165.597 156.012 165.597C153.895 165.597 152.653 166.641 152.653 168.406H154.714C154.714 167.771 155.18 167.404 155.984 167.404C156.859 167.404 157.297 167.757 157.283 168.364V168.589L155.561 168.787C153.528 169.027 152.356 169.86 152.356 171.201C152.356 172.316 153.147 173.389 155.038 173.389ZM155.462 171.836C154.813 171.836 154.46 171.54 154.46 171.088C154.46 170.552 155.151 170.354 156.478 170.185L157.198 170.1C157.071 171.088 156.464 171.836 155.462 171.836ZM161.321 175.986H163.41V172.203C163.918 172.951 164.723 173.389 165.88 173.389C167.729 173.389 169.042 171.78 169.042 169.521C169.042 167.22 167.729 165.597 165.88 165.597C164.723 165.597 163.918 166.035 163.41 166.783V165.823H161.321V175.986ZM165.16 171.582C164.13 171.582 163.396 170.721 163.396 169.507C163.396 168.279 164.13 167.404 165.16 167.404C166.205 167.404 166.939 168.279 166.939 169.507C166.939 170.721 166.205 171.582 165.16 171.582ZM170.474 175.986H172.563V172.203C173.071 172.951 173.876 173.389 175.033 173.389C176.882 173.389 178.195 171.78 178.195 169.521C178.195 167.22 176.882 165.597 175.033 165.597C173.876 165.597 173.071 166.035 172.563 166.783V165.823H170.474V175.986ZM174.313 171.582C173.283 171.582 172.549 170.721 172.549 169.507C172.549 168.279 173.283 167.404 174.313 167.404C175.358 167.404 176.092 168.279 176.092 169.507C176.092 170.721 175.358 171.582 174.313 171.582Z" fill="white"/>
</g>
<defs>
<filter id="filter0_f" x="0.659668" y="0.659546" width="487.484" height="289.841" filterUnits="userSpaceOnUse" color-interpolation-filters="sRGB">
<feFlood flood-opacity="0" result="BackgroundImageFix"/>
<feBlend mode="normal" in="SourceGraphic" in2="BackgroundImageFix" result="shape"/>
<feGaussianBlur stdDeviation="20" result="effect1_foregroundBlur"/>
</filter>
<filter id="filter1_f" x="20.8569" y="22.8386" width="447.381" height="250.694" filterUnits="userSpaceOnUse" color-interpolation-filters="sRGB">
<feFlood flood-opacity="0" result="BackgroundImageFix"/>
<feBlend mode="normal" in="SourceGraphic" in2="BackgroundImageFix" result="shape"/>
<feGaussianBlur stdDeviation="10" result="effect1_foregroundBlur"/>
</filter>
<filter id="filter2_d" x="313.461" y="160.136" width="59.1174" height="17.0167" filterUnits="userSpaceOnUse" color-interpolation-filters="sRGB">
<feFlood flood-opacity="0" result="BackgroundImageFix"/>
<feColorMatrix in="SourceAlpha" type="matrix" values="0 0 0 0 0 0 0 0 0 0 0 0 0 0 0 0 0 0 127 0"/>
<feOffset dy="3.87811"/>
<feColorMatrix type="matrix" values="0 0 0 0 0 0 0 0 0 0 0 0 0 0 0 0 0 0 0.05 0"/>
<feBlend mode="normal" in2="BackgroundImageFix" result="effect1_dropShadow"/>
<feBlend mode="normal" in="SourceGraphic" in2="effect1_dropShadow" result="shape"/>
</filter>
<filter id="filter3_d" x="114.283" y="162.153" width="63.9124" height="18.1333" filterUnits="userSpaceOnUse" color-interpolation-filters="sRGB">
<feFlood flood-opacity="0" result="BackgroundImageFix"/>
<feColorMatrix in="SourceAlpha" type="matrix" values="0 0 0 0 0 0 0 0 0 0 0 0 0 0 0 0 0 0 127 0"/>
<feOffset dy="4.29988"/>
<feColorMatrix type="matrix" values="0 0 0 0 0 0 0 0 0 0 0 0 0 0 0 0 0 0 0.05 0"/>
<feBlend mode="normal" in2="BackgroundImageFix" result="effect1_dropShadow"/>
<feBlend mode="normal" in="SourceGraphic" in2="effect1_dropShadow" result="shape"/>
</filter>
<linearGradient id="paint0_linear" x1="228.669" y1="45.6951" x2="228.669" y2="245.658" gradientUnits="userSpaceOnUse">
<stop stop-color="#ED1EFF"/>
<stop offset="0.265625" stop-color="#FF1AA3"/>
<stop offset="0.5" stop-color="#FF4F29"/>
<stop offset="0.734375" stop-color="#FF7916"/>
<stop offset="1" stop-color="#FFCC40"/>
</linearGradient>
<linearGradient id="paint1_linear" x1="258.29" y1="48.2913" x2="258.29" y2="246.946" gradientUnits="userSpaceOnUse">
<stop stop-color="#EB09FF"/>
<stop offset="0.286458" stop-color="#FF14CB"/>
<stop offset="0.541667" stop-color="#FD3A96"/>
<stop offset="0.760417" stop-color="#FF4017"/>
<stop offset="1" stop-color="#F7A501"/>
</linearGradient>
<linearGradient id="paint2_linear" x1="258.296" y1="48.2537" x2="258.296" y2="246.946" gradientUnits="userSpaceOnUse">
<stop stop-color="white" stop-opacity="0.57"/>
<stop offset="1" stop-color="white" stop-opacity="0"/>
</linearGradient>
<linearGradient id="paint3_linear" x1="258" y1="237" x2="258" y2="52" gradientUnits="userSpaceOnUse">
<stop stop-color="#FF2465"/>
<stop offset="1" stop-color="white" stop-opacity="0"/>
</linearGradient>
<clipPath id="clip0">
<rect width="40.1322" height="40.1322" fill="white" transform="translate(126.234 118.046)"/>
</clipPath>
<clipPath id="clip1">
<rect width="34.399" height="34.399" fill="white" transform="translate(129.101 120.913)"/>
</clipPath>
</defs>
</svg>
