<svg fill="none" viewBox="0 0 174 939"><g filter="url(#a)"><path fill="url(#b)" fill-rule="evenodd" d="M119 135l-5 781h-4l-6-781h15z" clip-rule="evenodd"/></g><g filter="url(#c)"><path fill="url(#d)" fill-rule="evenodd" d="M63 135l-5 781h-4l-6-781h15z" clip-rule="evenodd"/></g><g filter="url(#e)"><path fill="url(#f)" fill-rule="evenodd" d="M121 143l-5 781h-4l-6-781h15z" clip-rule="evenodd"/></g><g filter="url(#g)"><path fill="url(#h)" fill-rule="evenodd" d="M63 143l-5 781h-4l-6-781h15z" clip-rule="evenodd"/></g><g filter="url(#i)"><path fill="#FF00E5" fill-rule="evenodd" d="M77.367 63.708l3.208-11.28c1.803-3.585 4.332-4.996 6.73-4.223 1.336.337 2.616 1.36 3.631 3.067l.065.19c.17.27.335.557.496.86l3.02 9.548 3.634 10.756c.409.688.79 1.881 1.105 3.093v80.783l-25.137.109V73.907c.203-.458.42-.88.647-1.245l2.65-8.192-.27.001.221-.763zm21.89 101.054l-25.138.109v13.59l2.307 2.374 2.338-.024.01 2.878-1.754 2.89 8.293-.024-1.713-2.88h-.02l-.01-2.907-1.165.005 3.315-.035-1.825-11.938 2.853-3.925.053.073v-.015l1.16 1.605 1.695 2.32-1.184 6.39-.983 5.472 9.284-.097 2.483-2.523v-13.338zm1.396 8.247l5.942-.023.036 9.272 1.182-.005.005 1.282.822-.004.013 3.267c-5.316 2.962-5.614 9.014-5.614 9.014l24.235-.049s-.141-6.597-5.877-9.363l-.012-2.919.795-.003-.006-1.282 1.011-.004-.037-9.272 1.44-.006-.003-.119 7.211-.028-.266-11.235c.021-7.083-4.095-16.809-9.195-21.723 0 0-7.909-6.606-13.469-15.303-4.208-6.583-7.07-14.365-8.213-17.759v66.262zm-27.93-66.51v66.47l-6.515.026.037 9.245-1.014.004.005 1.282-.791.003.012 2.92c5.736 2.766 5.876 9.362 5.876 9.362l-24.235.05s.299-6.053 5.615-9.015l-.013-3.266-.825.003-.005-1.281-1.179.004-.037-9.246-.165.001v-.009l-7.489.03.178-11.237c-.078-7.082 3.961-16.84 9.022-21.796 0 0 7.856-6.668 13.347-15.409 4.29-6.831 7.137-14.928 8.176-18.141zm6.65-35.885l3.455-1.853.104 2.818-3.548 1.9-.012-2.865zm7.072-2.492c-.74.003-2.68.507-2.68.507l.124 2.82s1.834-.46 2.53-.462c.757-.003 2.675.5 2.675.5l.034-2.86s-1.92-.508-2.683-.505zm3.52.724l3.217 1.83.012 2.865-3.241-1.83.013-2.865zm4.841 111.895L90 180.76l.012 2.934-.047.085-1.74 2.865 8.405.037-1.768-2.956h-.016l-.028-.05-.012-2.934z" clip-rule="evenodd"/></g><path fill="#8B4B4B" fill-rule="evenodd" d="M51.7 135.387l12.744-.05.02 4.974-12.745.051-.02-4.975zm56.939-.048l12.745-.05.02 4.974-12.745.05-.02-4.974z" clip-rule="evenodd"/><path fill="#3259A6" fill-rule="evenodd" d="M73.163 56.711v68.313L42 125.149l.178-11.237c-.078-7.082 3.961-16.84 9.022-21.795 0 0 7.856-6.668 13.347-15.41 5.49-8.741 8.616-19.996 8.616-19.996z" clip-rule="evenodd"/><path fill="url(#j)" fill-rule="evenodd" d="M73.163 56.711v68.313L42 125.149l.178-11.237c-.078-7.082 3.961-16.84 9.022-21.795 0 0 7.856-6.668 13.347-15.41 5.49-8.741 8.616-19.996 8.616-19.996z" clip-rule="evenodd"/><path fill="#DD429F" fill-rule="evenodd" d="M73.02 74.78v50.251l-24.422.097.139-8.317c-.06-5.241 1.344-10.672 6.05-17.43 4.435-6.367 7.436-5.889 11.683-12.36 4.247-6.47 6.55-12.241 6.55-12.241z" clip-rule="evenodd"/><path fill="url(#k)" fill-rule="evenodd" d="M73.02 74.78v50.251l-24.422.097.139-8.317c-.06-5.241 1.344-10.672 6.05-17.43 4.435-6.367 7.436-5.889 11.683-12.36 4.247-6.47 6.55-12.241 6.55-12.241z" clip-rule="evenodd"/><path fill="#365DAB" fill-rule="evenodd" d="M100.096 57.086l.115 67.874 31.586-.126-.267-11.235c.022-7.082-4.095-16.808-9.194-21.723 0 0-7.91-6.606-13.469-15.303-5.56-8.698-8.771-19.487-8.771-19.487z" clip-rule="evenodd"/><path fill="url(#l)" fill-rule="evenodd" d="M100.096 57.086l.115 67.874 31.586-.126-.267-11.235c.022-7.082-4.095-16.808-9.194-21.723 0 0-7.91-6.606-13.469-15.303-5.56-8.698-8.771-19.487-8.771-19.487z" clip-rule="evenodd"/><path fill="#DD42A8" fill-rule="evenodd" d="M100.064 74.73l.102 50.348 24.422-.096-.204-8.316c.017-5.241-1.429-10.661-6.188-17.38-4.485-6.334-7.483-5.832-11.781-12.268-4.298-6.436-6.351-12.289-6.351-12.289z" clip-rule="evenodd"/><path fill="url(#m)" fill-rule="evenodd" d="M100.064 74.73l.102 50.348 24.422-.096-.204-8.316c.017-5.241-1.429-10.661-6.188-17.38-4.485-6.334-7.483-5.832-11.781-12.268-4.298-6.436-6.351-12.289-6.351-12.289z" clip-rule="evenodd"/><path fill="#DCDDDE" fill-rule="evenodd" d="M98.15 24.694c1.07 1.797 1.951 7.052 1.951 7.052l.068 97.494-3.396 3.45-20.346.212-3.409-3.507-.295-97.412c-.008-2.168.906-5.416 2.043-7.254l6.948-21.471c2.583-4.177 6.712-4.14 9.222.08l7.215 21.356z" clip-rule="evenodd"/><path fill="url(#n)" fill-rule="evenodd" d="M98.15 24.694c1.07 1.797 1.951 7.052 1.951 7.052l.068 97.494-3.396 3.45-20.346.212-3.409-3.507-.295-97.412c-.008-2.168.906-5.416 2.043-7.254l6.948-21.471c2.583-4.177 6.712-4.14 9.222.08l7.215 21.356z" clip-rule="evenodd"/><path fill="url(#o)" fill-rule="evenodd" d="M98.15 24.694c1.07 1.797 1.951 7.052 1.951 7.052l.068 97.494-3.396 3.45-20.346.212-3.409-3.507-.295-97.412c-.008-2.168.906-5.416 2.043-7.254l6.948-21.471c2.583-4.177 6.712-4.14 9.222.08l7.215 21.356z" clip-rule="evenodd"/><path fill="#213CA8" fill-rule="evenodd" d="M79.372 22.682l3.456-1.853.104 2.818-3.548 1.9-.012-2.865z" clip-rule="evenodd"/><path fill="url(#p)" fill-rule="evenodd" d="M79.372 22.682l3.456-1.853.104 2.818-3.548 1.9-.012-2.865z" clip-rule="evenodd"/><path fill="#213CA8" fill-rule="evenodd" d="M83.765 20.696s1.94-.504 2.68-.507c.762-.003 2.683.506 2.683.506l-.034 2.86s-1.918-.504-2.675-.5c-.696.002-2.53.462-2.53.462l-.124-2.82z" clip-rule="evenodd"/><path fill="url(#q)" fill-rule="evenodd" d="M83.765 20.696s1.94-.504 2.68-.507c.762-.003 2.683.506 2.683.506l-.034 2.86s-1.918-.504-2.675-.5c-.696.002-2.53.462-2.53.462l-.124-2.82z" clip-rule="evenodd"/><path fill="#213CA8" fill-rule="evenodd" d="M89.966 20.913l3.216 1.83.012 2.866-3.241-1.83.013-2.866z" clip-rule="evenodd"/><path fill="url(#r)" fill-rule="evenodd" d="M89.966 20.913l3.216 1.83.012 2.866-3.241-1.83.013-2.866z" clip-rule="evenodd"/><path fill="#9B9B9B" fill-rule="evenodd" d="M72.723 109.113h27.45v8.087l-27.42.173-.03-8.26z" clip-rule="evenodd"/><path fill="url(#s)" fill-rule="evenodd" d="M72.723 109.113h27.45v8.087l-27.42.173-.03-8.26z" clip-rule="evenodd"/><path fill="#4570A2" fill-rule="evenodd" d="M83.895 120.868l2.853-3.925.053.073V117l1.161 1.605 1.694 2.32-1.184 6.391-1.918 10.675.004-.346-.054.291-2.609-17.068z" clip-rule="evenodd"/><path fill="url(#t)" fill-rule="evenodd" d="M83.895 120.868l2.853-3.925.053.073V117l1.161 1.605 1.694 2.32-1.184 6.391-1.918 10.675.004-.346-.054.291-2.609-17.068z" clip-rule="evenodd"/><path fill="#003C80" fill-rule="evenodd" d="M77.156 16.518l3.419-12.023c2.948-5.862 7.917-6.041 11-.238l3.74 12.206-18.159.055z" clip-rule="evenodd"/><path fill="url(#u)" fill-rule="evenodd" d="M77.156 16.518l3.419-12.023c2.948-5.862 7.917-6.041 11-.238l3.74 12.206-18.159.055z" clip-rule="evenodd"/><path fill="#F9CC69" fill-rule="evenodd" d="M83.547 13.075l5.623-.022.007 1.786-5.623.022-.007-1.786z" clip-rule="evenodd"/><path fill="url(#v)" fill-rule="evenodd" d="M83.547 13.075l5.623-.022.007 1.786-5.623.022-.007-1.786z" clip-rule="evenodd"/><path fill="#001462" fill-rule="evenodd" d="M77.734 14.508l16.928-.065.666 2.024-18.181.072.587-2.031z" clip-rule="evenodd"/><path fill="url(#w)" fill-rule="evenodd" d="M77.734 14.508l16.928-.065.666 2.024-18.181.072.587-2.031z" clip-rule="evenodd"/><path fill="#9F0000" fill-rule="evenodd" d="M78.764 132.854l4.806-.019.011 2.934 1.596 2.817-7.994.041 1.592-2.839-.011-2.934z" clip-rule="evenodd"/><path fill="url(#x)" fill-rule="evenodd" d="M78.764 132.854l4.806-.019.011 2.934 1.596 2.817-7.994.041 1.592-2.839-.011-2.934z" clip-rule="evenodd"/><path fill="#9F0000" fill-rule="evenodd" d="M90 132.828l4.806-.02.012 2.934 1.595 2.818-7.994.04 1.593-2.839-.012-2.933z" clip-rule="evenodd"/><path fill="url(#y)" fill-rule="evenodd" d="M90 132.828l4.806-.02.012 2.934 1.595 2.818-7.994.04 1.593-2.839-.012-2.933z" clip-rule="evenodd"/><path fill="#F7A501" fill-rule="evenodd" d="M78.795 135.724l4.805.019 1.713 2.879-8.293.024 1.775-2.922z" clip-rule="evenodd"/><path fill="url(#z)" fill-rule="evenodd" d="M78.795 135.724l4.805.019 1.713 2.879-8.293.024 1.775-2.922z" clip-rule="evenodd"/><path fill="#F7A501" fill-rule="evenodd" d="M90 135.789l4.862.003 1.769 2.956-8.407-.037L90 135.789z" clip-rule="evenodd"/><path fill="url(#A)" fill-rule="evenodd" d="M90 135.789l4.862.003 1.769 2.956-8.407-.037L90 135.789z" clip-rule="evenodd"/><path fill="#AE2121" fill-rule="evenodd" d="M50.867 133.628l14.36-.057.009 2.022-14.361.057-.008-2.022zm56.943-.048l14.362-.057.008 2.022-14.361.057-.009-2.022z" clip-rule="evenodd"/><path fill="#C63560" fill-rule="evenodd" d="M58.383 137.32c11.723-.139 11.95 10.558 11.95 10.558l-24.235.05s.517-10.469 12.285-10.608z" clip-rule="evenodd"/><path fill="url(#B)" fill-rule="evenodd" d="M58.383 137.32c11.723-.139 11.95 10.558 11.95 10.558l-24.235.05s.517-10.469 12.285-10.608z" clip-rule="evenodd"/><path fill="#C63560" fill-rule="evenodd" d="M115.324 137.271c11.722-.139 11.95 10.559 11.95 10.559l-24.235.049s.516-10.468 12.285-10.608z" clip-rule="evenodd"/><path fill="url(#C)" fill-rule="evenodd" d="M115.324 137.271c11.722-.139 11.95 10.559 11.95 10.559l-24.235.049s.516-10.468 12.285-10.608z" clip-rule="evenodd"/><path fill="#D76D31" fill-rule="evenodd" d="M49.654 125.055l16.554-.065.037 9.318-16.554.066-.037-9.319z" clip-rule="evenodd"/><path fill="url(#D)" fill-rule="evenodd" d="M49.654 125.055l16.554-.065.037 9.318-16.554.066-.037-9.319z" clip-rule="evenodd"/><path fill="#D76D31" fill-rule="evenodd" d="M106.595 125.007l16.553-.066.037 9.319-16.554.065-.036-9.318z" clip-rule="evenodd"/><path fill="url(#E)" fill-rule="evenodd" d="M106.595 125.007l16.553-.066.037 9.319-16.554.065-.036-9.318z" clip-rule="evenodd"/><defs><linearGradient id="p" x1="82.932" x2="79.372" y1="23.188" y2="23.188" gradientUnits="userSpaceOnUse"><stop stop-color="#fff" stop-opacity="0"/><stop offset="1" stop-color="#C635A6"/></linearGradient><linearGradient id="E" x1="123.185" x2="106.595" y1="129.633" y2="129.633" gradientUnits="userSpaceOnUse"><stop stop-color="#760000"/><stop offset="1" stop-color="#fff" stop-opacity="0"/></linearGradient><linearGradient id="D" x1="66.245" x2="49.654" y1="129.682" y2="129.682" gradientUnits="userSpaceOnUse"><stop stop-color="#790000"/><stop offset="1" stop-color="#fff" stop-opacity="0"/></linearGradient><linearGradient id="C" x1="127.274" x2="103.039" y1="142.574" y2="142.574" gradientUnits="userSpaceOnUse"><stop stop-color="#5F0000"/><stop offset="1" stop-color="#fff" stop-opacity="0"/></linearGradient><linearGradient id="B" x1="70.333" x2="46.098" y1="142.623" y2="142.623" gradientUnits="userSpaceOnUse"><stop stop-color="#720000"/><stop offset="1" stop-color="#fff" stop-opacity="0"/></linearGradient><linearGradient id="b" x1="114.234" x2="114.245" y1="135" y2="916" gradientUnits="userSpaceOnUse"><stop stop-color="#F7A501"/><stop offset=".172" stop-color="#FF23CF"/><stop offset=".41" stop-color="#FFD47D"/><stop offset=".855" stop-color="#fff" stop-opacity="0"/></linearGradient><linearGradient id="d" x1="58.234" x2="58.245" y1="135" y2="916" gradientUnits="userSpaceOnUse"><stop stop-color="#F7A501"/><stop offset=".172" stop-color="#FF23CF"/><stop offset=".41" stop-color="#FFD47D"/><stop offset=".855" stop-color="#fff" stop-opacity="0"/></linearGradient><linearGradient id="f" x1="116.234" x2="116.245" y1="143" y2="924" gradientUnits="userSpaceOnUse"><stop stop-color="#F7A501"/><stop offset=".172" stop-color="#FF23CF"/><stop offset=".41" stop-color="#FFD47D"/><stop offset=".855" stop-color="#fff" stop-opacity="0"/></linearGradient><linearGradient id="h" x1="58.234" x2="58.245" y1="143" y2="924" gradientUnits="userSpaceOnUse"><stop stop-color="#F7A501"/><stop offset=".172" stop-color="#FF23CF"/><stop offset=".41" stop-color="#FFD47D"/><stop offset=".855" stop-color="#fff" stop-opacity="0"/></linearGradient><linearGradient id="j" x1="73.586" x2="42" y1="91.15" y2="91.15" gradientUnits="userSpaceOnUse"><stop stop-color="#fff"/><stop offset="1" stop-color="#fff" stop-opacity="0"/></linearGradient><linearGradient id="k" x1="77.326" x2="54.01" y1="108.204" y2="104.503" gradientUnits="userSpaceOnUse"><stop stop-color="#fff"/><stop offset="1" stop-color="#fff" stop-opacity="0"/></linearGradient><linearGradient id="l" x1="131.797" x2="100.096" y1="91.023" y2="91.023" gradientUnits="userSpaceOnUse"><stop stop-color="#fff"/><stop offset="1" stop-color="#fff" stop-opacity="0"/></linearGradient><linearGradient id="m" x1="124.588" x2="100.064" y1="99.904" y2="99.904" gradientUnits="userSpaceOnUse"><stop stop-color="#fff"/><stop offset="1" stop-color="#fff" stop-opacity="0"/></linearGradient><linearGradient id="n" x1="72.833" x2="100.79" y1="62.127" y2="119.61" gradientUnits="userSpaceOnUse"><stop stop-color="#fff"/><stop offset=".604" stop-color="silver" stop-opacity=".585"/><stop offset="1" stop-color="#686868" stop-opacity="0"/></linearGradient><linearGradient id="o" x1="100.169" x2="72.723" y1="66.525" y2="66.525" gradientUnits="userSpaceOnUse"><stop stop-color="#560F46"/><stop offset=".401" stop-color="#FF0DCA" stop-opacity=".2"/><stop offset="1" stop-color="#fff" stop-opacity="0"/></linearGradient><linearGradient id="A" x1="96.631" x2="88.224" y1="137.268" y2="137.268" gradientUnits="userSpaceOnUse"><stop stop-color="#E40000"/><stop offset="1" stop-color="#fff" stop-opacity="0"/></linearGradient><linearGradient id="q" x1="89.128" x2="83.765" y1="21.872" y2="21.872" gradientUnits="userSpaceOnUse"><stop stop-color="#fff" stop-opacity="0"/><stop offset="1" stop-color="#C635A6"/></linearGradient><linearGradient id="r" x1="93.194" x2="89.953" y1="23.261" y2="23.261" gradientUnits="userSpaceOnUse"><stop stop-color="#fff" stop-opacity="0"/><stop offset="1" stop-color="#C635A6"/></linearGradient><linearGradient id="s" x1="99.952" x2="72.723" y1="112.916" y2="113.19" gradientUnits="userSpaceOnUse"><stop stop-color="#DD425A"/><stop offset=".458" stop-color="#F7A501"/><stop offset="1" stop-color="#fff"/></linearGradient><linearGradient id="t" x1="83.895" x2="88.783" y1="122.959" y2="122.959" gradientUnits="userSpaceOnUse"><stop offset=".484" stop-color="#fff"/><stop offset="1" stop-color="#839BFF"/></linearGradient><linearGradient id="u" x1="95.316" x2="77.156" y1="8.293" y2="8.293" gradientUnits="userSpaceOnUse"><stop stop-color="#fff" stop-opacity="0"/><stop offset="1" stop-color="#fff"/></linearGradient><linearGradient id="v" x1="89.177" x2="83.547" y1="13.957" y2="13.957" gradientUnits="userSpaceOnUse"><stop stop-color="#fff" stop-opacity="0"/><stop offset="1" stop-color="#fff"/></linearGradient><linearGradient id="w" x1="95.328" x2="77.147" y1="15.491" y2="15.491" gradientUnits="userSpaceOnUse"><stop stop-color="#fff" stop-opacity="0"/><stop offset="1" stop-color="#fff"/></linearGradient><linearGradient id="x" x1="85.177" x2="77.183" y1="135.731" y2="135.731" gradientUnits="userSpaceOnUse"><stop stop-color="#F7A501"/><stop offset="1" stop-color="#fff" stop-opacity="0"/></linearGradient><linearGradient id="y" x1="96.413" x2="88.419" y1="135.704" y2="135.704" gradientUnits="userSpaceOnUse"><stop stop-color="#F7A501"/><stop offset="1" stop-color="#fff" stop-opacity="0"/></linearGradient><linearGradient id="z" x1="85.313" x2="77.02" y1="137.185" y2="137.185" gradientUnits="userSpaceOnUse"><stop stop-color="#E30000"/><stop offset="1" stop-color="#fff" stop-opacity="0"/></linearGradient><filter id="c" width="23" height="789" x="44" y="131" color-interpolation-filters="sRGB" filterUnits="userSpaceOnUse"><feFlood flood-opacity="0" result="BackgroundImageFix"/><feBlend in="SourceGraphic" in2="BackgroundImageFix" result="shape"/><feGaussianBlur result="effect1_foregroundBlur" stdDeviation="2"/></filter><filter id="i" width="173.586" height="231.65" x=".105" y="6.105" color-interpolation-filters="sRGB" filterUnits="userSpaceOnUse"><feFlood flood-opacity="0" result="BackgroundImageFix"/><feBlend in="SourceGraphic" in2="BackgroundImageFix" result="shape"/><feGaussianBlur result="effect1_foregroundBlur" stdDeviation="20.947"/></filter><filter id="g" width="45" height="811" x="33" y="128" color-interpolation-filters="sRGB" filterUnits="userSpaceOnUse"><feFlood flood-opacity="0" result="BackgroundImageFix"/><feBlend in="SourceGraphic" in2="BackgroundImageFix" result="shape"/><feGaussianBlur result="effect1_foregroundBlur" stdDeviation="7.5"/></filter><filter id="e" width="23" height="789" x="102" y="139" color-interpolation-filters="sRGB" filterUnits="userSpaceOnUse"><feFlood flood-opacity="0" result="BackgroundImageFix"/><feBlend in="SourceGraphic" in2="BackgroundImageFix" result="shape"/><feGaussianBlur result="effect1_foregroundBlur" stdDeviation="2"/></filter><filter id="a" width="45" height="811" x="89" y="120" color-interpolation-filters="sRGB" filterUnits="userSpaceOnUse"><feFlood flood-opacity="0" result="BackgroundImageFix"/><feBlend in="SourceGraphic" in2="BackgroundImageFix" result="shape"/><feGaussianBlur result="effect1_foregroundBlur" stdDeviation="7.5"/></filter></defs></svg>