<svg fill="none" viewBox="0 0 1440 130"><g clip-path="url(#a)"><path fill="#63215E" d="M1440 130H0v-23h1440z"/><path fill="#9E5B9A" d="M1440 100H0V-6h1440z"/><path fill="url(#b)" d="M1440 100h1440v106H1440z" transform="rotate(-180 1440 100)"/><path fill="#8D4A89" d="M1450 64H10V25h1440z"/><path fill="url(#c)" d="M1450 64h1440v39H1450z" transform="rotate(-180 1450 64)"/><g opacity=".7"><path fill="#72286E" d="M6 15h701.886a65.537 65.537 0 0139.924 13.565l25.07 19.26c6.205 4.766 2.834 14.687-4.99 14.687H6V15z"/><path fill="url(#d)" d="M6 15h701.886a65.537 65.537 0 0139.924 13.565l25.07 19.26c6.205 4.766 2.834 14.687-4.99 14.687H6V15z"/><path fill="url(#e)" fill-rule="evenodd" d="M748.654 42.852H6v5.735h767.894c-.901-.913-2.081-1.648-3.558-2.1l-2.511-.768a65.533 65.533 0 00-19.171-2.867zm27.345 9.83H6v9.83h761.94c5.918 0 8.899-5.249 8.059-9.83z" clip-rule="evenodd"/><path fill="#5B447E" d="M739.425 38.757h21.856s-16.384-12.698-17.612-13.517c-1.229-.819-3.277-1.638-3.277-1.638h-19.963c-.798 0-1.125 1.024-.475 1.486l18.996 13.517a.821.821 0 00.475.152zm-5.628-1.487l-17.915-12.747a.82.82 0 00-1.294.667v9.47a4.096 4.096 0 004.096 4.097h14.638c.798 0 1.125-1.025.475-1.487zm-24.534.667V24.421a.82.82 0 00-.819-.82h-22.527a.82.82 0 00-.82.82v13.516c0 .453.367.82.82.82h22.527a.82.82 0 00.819-.82zm-33.586 0V24.421a.82.82 0 00-.819-.82h-10.65a.82.82 0 00-.819.82v13.516c0 .453.367.82.819.82h10.65a.82.82 0 00.819-.82zm-18.022-14.335h-10.649a.819.819 0 00-.819.819v13.516c0 .453.366.82.819.82h10.649a.82.82 0 00.819-.82V24.421a.82.82 0 00-.819-.82zm-21.299 14.335V24.421a.819.819 0 00-.819-.82h-23.346a.819.819 0 00-.819.82v13.516c0 .453.366.82.819.82h23.346a.819.819 0 00.819-.82zm-30.309 0V24.421a.82.82 0 00-.819-.82h-23.347a.82.82 0 00-.819.82v13.516c0 .453.367.82.819.82h23.347a.82.82 0 00.819-.82zm-34.406 0V24.421a.819.819 0 00-.819-.82h-10.649a.819.819 0 00-.819.82v13.516c0 .453.366.82.819.82h10.649a.819.819 0 00.819-.82zm-18.022-14.335H542.97a.82.82 0 00-.819.819v13.516c0 .453.367.82.819.82h10.649a.82.82 0 00.82-.82V24.421a.82.82 0 00-.82-.82zm-21.298 14.335V24.421a.82.82 0 00-.819-.82h-23.347a.82.82 0 00-.819.82v13.516c0 .453.367.82.819.82h23.347a.82.82 0 00.819-.82zm-30.31 0V24.421a.82.82 0 00-.819-.82h-23.346a.82.82 0 00-.82.82v13.516c0 .453.367.82.82.82h23.346a.82.82 0 00.819-.82zm-34.405 0V24.421a.82.82 0 00-.819-.82h-10.649a.82.82 0 00-.82.82v13.516c0 .453.367.82.82.82h10.649a.82.82 0 00.819-.82zm-18.022-14.335h-10.649a.82.82 0 00-.819.819v13.516c0 .453.367.82.819.82h10.649a.819.819 0 00.819-.82V24.421a.819.819 0 00-.819-.82zm-21.298 14.335V24.421a.82.82 0 00-.82-.82H404.12a.82.82 0 00-.819.82v13.516c0 .453.367.82.819.82h23.346a.82.82 0 00.82-.82zm-30.31 0V24.421a.82.82 0 00-.819-.82H373.81a.82.82 0 00-.819.82v13.516c0 .453.367.82.819.82h23.347a.82.82 0 00.819-.82z"/><path stroke="#4B5D83" stroke-opacity=".3" stroke-width=".655" d="M680.182 62.512v-40.14c0-1.357-1.1-2.457-2.457-2.457h-33.586a2.457 2.457 0 00-2.458 2.458v40.14m-65.534-.001v-40.14c0-1.357-1.1-2.457-2.458-2.457h-33.586a2.457 2.457 0 00-2.457 2.458v40.14m-65.534-.001v-40.14a2.458 2.458 0 00-2.458-2.457h-33.586a2.458 2.458 0 00-2.458 2.458v40.14"/></g><path fill="#72296D" d="M510 1h6v45.5l1 5.5v18h-8V52l1-5.5V1z"/><path fill="url(#f)" d="M510 1h6v45.5l1 5.5v18h-8V52l1-5.5V1z"/><path fill="url(#g)" d="M508.5 2h-26L434 92h128.5l-54-90z" opacity=".6"/><path fill="#72296D" d="M706 1h6v45.5l1 5.5v18h-8V52l1-5.5V1z"/><path fill="url(#h)" d="M706 1h6v45.5l1 5.5v18h-8V52l1-5.5V1z"/><path fill="#72296D" d="M902 1h6v45.5l1 5.5v18h-8V52l1-5.5V1z"/><path fill="url(#i)" d="M902 1h6v45.5l1 5.5v18h-8V52l1-5.5V1z"/><path fill="#72296D" d="M1083 1h6v45.5l1 5.5v18h-8V52l1-5.5V1z"/><path fill="url(#j)" d="M1083 1h6v45.5l1 5.5v18h-8V52l1-5.5V1z"/><path fill="url(#k)" d="M769.5 2h-26L695 92h128.5l-54-90z" opacity=".6"/><path fill="url(#l)" d="M1059.5 2h-26L985 92h128.5l-54-90z" opacity=".6"/><path fill="#72296D" d="M426.5-19H410L520 81h32v-3.5h-25.5v-6H520V65h-7v-6h-6.5v-5.5h-6V48h-6v-5.5H488V37h-6v-5.5h-5.5v-5h-6v-5h-6V16h-6v-5.5H453v-5h-5.5v-5h-5V-5H437v-5h-5.5v-4.5h-5V-19z"/><path fill="url(#m)" d="M426.5-19H410L520 81h32v-3.5h-25.5v-6H520V65h-7v-6h-6.5v-5.5h-6V48h-6v-5.5H488V37h-6v-5.5h-5.5v-5h-6v-5h-6V16h-6v-5.5H453v-5h-5.5v-5h-5V-5H437v-5h-5.5v-4.5h-5V-19z"/><path fill="#AF51AA" fill-rule="evenodd" d="M410.998-19h-3.865l2.854 2.607 108.281 98.93a7.499 7.499 0 005.059 1.963h30.171a5.5 5.5 0 005.5-5.5V58a7.5 7.5 0 00-7.5-7.5h-23.181a4.5 4.5 0 01-3.026-1.17l-74.784-67.94-.429-.39h-39.08zm109.293 99.322L414.864-16h34.055l74.355 67.551c.377.343.785.643 1.217.9l-.469 29.049h-.695a4.502 4.502 0 01-3.036-1.178zm6.732 1.178h26.475a2.5 2.5 0 002.5-2.5V58a4.5 4.5 0 00-4.5-4.5h-23.181c-.283 0-.564-.016-.842-.047l-.452 28.047z" clip-rule="evenodd"/><path fill="url(#n)" fill-rule="evenodd" d="M410.998-19h-3.865l2.854 2.607 108.281 98.93a7.499 7.499 0 005.059 1.963h30.171a5.5 5.5 0 005.5-5.5V58a7.5 7.5 0 00-7.5-7.5h-23.181a4.5 4.5 0 01-3.026-1.17l-74.784-67.94-.429-.39h-39.08zm109.293 99.322L414.864-16h34.055l74.355 67.551c.377.343.785.643 1.217.9l-.469 29.049h-.695a4.502 4.502 0 01-3.036-1.178zm6.732 1.178h26.475a2.5 2.5 0 002.5-2.5V58a4.5 4.5 0 00-4.5-4.5h-23.181c-.283 0-.564-.016-.842-.047l-.452 28.047z" clip-rule="evenodd"/><path fill="#72296D" d="M1074.5-19h16.5L981 81h-32v-3.5h25.5v-6h6.5V65h7v-6h6.5v-5.5h6V48h6v-5.5h6.5V37h6v-5.5h5.5v-5h6v-5h6V16h6v-5.5h5.5v-5h5.5v-5h5V-5h5.5v-5h5.5v-4.5h5V-19z"/><path fill="url(#o)" d="M1074.5-19h16.5L981 81h-32v-3.5h25.5v-6h6.5V65h7v-6h6.5v-5.5h6V48h6v-5.5h6.5V37h6v-5.5h5.5v-5h6v-5h6V16h6v-5.5h5.5v-5h5.5v-5h5V-5h5.5v-5h5.5v-4.5h5V-19z"/><path fill="#AF51AA" fill-rule="evenodd" d="M1090-19h3.87l-2.86 2.607-108.278 98.93a7.499 7.499 0 01-5.059 1.963h-30.171a5.5 5.5 0 01-5.5-5.5V58a7.5 7.5 0 017.5-7.5h23.181a4.5 4.5 0 003.026-1.17l74.781-67.94.43-.39H1090zM980.709 80.322L1086.14-16h-34.06l-74.354 67.551a7.503 7.503 0 01-1.217.9l.469 29.049h.695a4.5 4.5 0 003.036-1.178zm-6.732 1.178h-26.475a2.5 2.5 0 01-2.5-2.5V58a4.5 4.5 0 014.5-4.5h23.181a7.5 7.5 0 00.842-.047l.452 28.047z" clip-rule="evenodd"/><path fill="url(#p)" fill-rule="evenodd" d="M1090-19h3.87l-2.86 2.607-108.278 98.93a7.499 7.499 0 01-5.059 1.963h-30.171a5.5 5.5 0 01-5.5-5.5V58a7.5 7.5 0 017.5-7.5h23.181a4.5 4.5 0 003.026-1.17l74.781-67.94.43-.39H1090zM980.709 80.322L1086.14-16h-34.06l-74.354 67.551a7.503 7.503 0 01-1.217.9l.469 29.049h.695a4.5 4.5 0 003.036-1.178zm-6.732 1.178h-26.475a2.5 2.5 0 01-2.5-2.5V58a4.5 4.5 0 014.5-4.5h23.181a7.5 7.5 0 00.842-.047l.452 28.047z" clip-rule="evenodd"/><path fill="#843B7F" d="M1440 107H0V89h1440z"/><path fill="#FFF4D7" d="M744 0h26v3s-7.863 2-13 2-13-2-13-2V0zM482 0h26v3s-7.863 2-13 2-13-2-13-2V0z"/><path fill="#72296D" d="M1098 1h6v45.5l1 5.5v18h-8V52l1-5.5V1z"/><path fill="url(#q)" d="M1098 1h6v45.5l1 5.5v18h-8V52l1-5.5V1z"/><path fill="#472B72" d="M672 59.5h-61v4h4V71h3.5v-7.5H664V71h3.5v-7.5h4.5v-4z"/><path fill="url(#r)" d="M672 59.5h-61v4h4V71h3.5v-7.5H664V71h3.5v-7.5h4.5v-4z"/><path fill="#472B72" d="M873 59.5h-61v4h4V71h3.5v-7.5H865V71h3.5v-7.5h4.5v-4z"/><path fill="url(#s)" d="M873 59.5h-61v4h4V71h3.5v-7.5H865V71h3.5v-7.5h4.5v-4z"/><path fill="url(#t)" d="M608 88l7-17h52.5l6.5 17h-66z"/><path fill="url(#u)" d="M809 88l7-17h52.5l6.5 17h-66z"/><path fill="#72286E" d="M1343 81H862.114a65.537 65.537 0 00-39.924 13.565l-25.07 19.259c-6.205 4.767-2.834 14.688 4.99 14.688H1343V81z"/><path fill="url(#v)" d="M1343 81H862.114a65.537 65.537 0 00-39.924 13.565l-25.07 19.259c-6.205 4.767-2.834 14.688 4.99 14.688H1343V81z"/><path fill="url(#w)" fill-rule="evenodd" d="M823.371 108h519.549v6h-540.4v4h540.4v10H801.63c-8.35 0-10.749-11.417-3.106-14.778A61.718 61.718 0 01823.371 108z" clip-rule="evenodd"/><path fill="#5B447E" d="M830.575 104.757h-21.856s16.384-12.698 17.612-13.517c1.229-.819 3.277-1.638 3.277-1.638h19.963c.798 0 1.125 1.024.475 1.486l-18.996 13.517a.819.819 0 01-.475.152zm5.628-1.487l17.915-12.747a.82.82 0 011.294.667v9.471a4.096 4.096 0 01-4.096 4.096h-14.638c-.798 0-1.125-1.025-.475-1.487zm24.534.667V90.421a.82.82 0 01.819-.82h22.527a.82.82 0 01.82.82v13.516a.82.82 0 01-.82.82h-22.527a.82.82 0 01-.819-.82zm33.586 0V90.421a.82.82 0 01.819-.82h10.65a.82.82 0 01.819.82v13.516a.82.82 0 01-.819.82h-10.65a.82.82 0 01-.819-.82zm18.022-14.335h10.649c.453 0 .819.367.819.819v13.516c0 .453-.366.82-.819.82h-10.649a.82.82 0 01-.819-.82V90.421a.82.82 0 01.819-.82zm21.299 14.335V90.421a.82.82 0 01.819-.82h23.346a.82.82 0 01.819.82v13.516c0 .453-.366.82-.819.82h-23.346a.819.819 0 01-.819-.82zm30.309 0V90.421a.82.82 0 01.819-.82h23.347a.82.82 0 01.819.82v13.516a.82.82 0 01-.819.82h-23.347a.82.82 0 01-.819-.82zm34.406 0V90.421a.82.82 0 01.819-.82h10.652c.45 0 .82.368.82.82v13.516c0 .453-.37.82-.82.82h-10.652a.819.819 0 01-.819-.82zm18.021-14.335h10.65c.45 0 .82.367.82.819v13.516c0 .453-.37.82-.82.82h-10.65a.822.822 0 01-.82-.82V90.421c0-.452.37-.82.82-.82zm21.3 14.335V90.421c0-.452.37-.82.82-.82h23.34c.46 0 .82.368.82.82v13.516c0 .453-.36.82-.82.82h-23.34a.822.822 0 01-.82-.82zm30.31 0V90.421c0-.452.37-.82.82-.82h23.34c.46 0 .82.368.82.82v13.516c0 .453-.36.82-.82.82h-23.34a.822.822 0 01-.82-.82zm34.4 0V90.421c0-.452.37-.82.82-.82h10.65c.45 0 .82.368.82.82v13.516c0 .453-.37.82-.82.82h-10.65a.822.822 0 01-.82-.82zm18.02-14.335h10.65c.46 0 .82.367.82.819v13.516c0 .453-.36.82-.82.82h-10.65a.813.813 0 01-.81-.82V90.421c0-.452.36-.82.81-.82zm21.3 14.335V90.421c0-.452.37-.82.82-.82h23.35c.45 0 .82.368.82.82v13.516c0 .453-.37.82-.82.82h-23.35a.822.822 0 01-.82-.82zm30.31 0V90.421c0-.452.37-.82.82-.82h23.35c.45 0 .82.368.82.82v13.516c0 .453-.37.82-.82.82h-23.35a.822.822 0 01-.82-.82zm34.98 0V90.421c0-.452.37-.82.82-.82h10.65c.45 0 .82.368.82.82v13.516c0 .453-.37.82-.82.82h-10.65a.822.822 0 01-.82-.82zm18.02-14.335h10.65c.45 0 .82.367.82.819v13.516c0 .453-.37.82-.82.82h-10.65a.822.822 0 01-.82-.82V90.421c0-.452.37-.82.82-.82zm21.3 14.335V90.421c0-.452.37-.82.82-.82h23.34c.46 0 .82.368.82.82v13.516c0 .453-.36.82-.82.82h-23.34a.822.822 0 01-.82-.82zm30.31 0V90.421c0-.452.37-.82.82-.82h23.34c.46 0 .82.368.82.82v13.516c0 .453-.36.82-.82.82h-23.34a.822.822 0 01-.82-.82zm34.37 0V90.421c0-.453.37-.82.82-.82h10.65c.45 0 .82.367.82.82v13.516a.82.82 0 01-.82.819h-10.65a.82.82 0 01-.82-.819zm18.02-14.335h10.65c.45 0 .82.366.82.819v13.516a.82.82 0 01-.82.819h-10.65a.82.82 0 01-.82-.819V90.421c0-.453.37-.82.82-.82z"/><path stroke="#4B5D83" stroke-opacity=".3" stroke-width=".655" d="M889.818 128.512v-40.14c0-1.357 1.1-2.457 2.457-2.457h33.586c1.358 0 2.458 1.1 2.458 2.458v40.139m65.534 0v-40.14c0-1.357 1.1-2.457 2.458-2.457h33.589c1.35 0 2.45 1.1 2.45 2.458v40.139m65.54 0v-40.14c0-1.357 1.1-2.457 2.46-2.457h33.58c1.36 0 2.46 1.1 2.46 2.458v40.139m65.61 0v-40.14c0-1.357 1.1-2.457 2.46-2.457h33.58c1.36 0 2.46 1.1 2.46 2.458v40.139"/><path fill="url(#x)" d="M1440 130h-359.5s9.58-50.117 9.5-68.5c-.08-18.006-9.5-59.51-9.5-59.51h-673s-15.873 26.355-16 45.01c-.129 19.019 16 46 16 46L0 92.5V-7.01h1440V130z"/><path fill="url(#y)" d="M1440 130h-359.5s9.58-50.117 9.5-68.5c-.08-18.006-9.5-59.51-9.5-59.51h-673s-15.873 26.355-16 45.01c-.129 19.019 16 46 16 46L0 92.5V-7.01h1440V130z"/></g><defs><linearGradient id="n" x1="432.5" x2="557" y1="-14.5" y2="85" gradientUnits="userSpaceOnUse"><stop stop-color="#72286E"/><stop offset=".553" stop-color="#B85CB3"/><stop offset="1" stop-color="#72286E"/></linearGradient><linearGradient id="b" x1="2160" x2="2160" y1="100" y2="206" gradientUnits="userSpaceOnUse"><stop stop-color="#BE76BA"/><stop offset="1" stop-color="#8B4887"/></linearGradient><linearGradient id="d" x1="399" x2="399" y1="15" y2="62.512" gradientUnits="userSpaceOnUse"><stop stop-color="#D79AD3"/><stop offset="1" stop-color="#5F1F5B"/></linearGradient><linearGradient id="e" x1="414.36" x2="414.36" y1="42.852" y2="62.512" gradientUnits="userSpaceOnUse"><stop stop-color="#C63560"/><stop offset="0" stop-color="#B35698"/><stop offset="1" stop-color="#682163"/></linearGradient><linearGradient id="f" x1="510" x2="517" y1="35" y2="35" gradientUnits="userSpaceOnUse"><stop stop-color="#9D4B98"/><stop offset="1" stop-color="#72296D" stop-opacity="0"/></linearGradient><linearGradient id="g" x1="498.25" x2="498.25" y1="2" y2="92" gradientUnits="userSpaceOnUse"><stop stop-color="#FFF8E4" stop-opacity=".37"/><stop offset=".708" stop-color="#FFF8E4" stop-opacity="0"/></linearGradient><linearGradient id="h" x1="706" x2="713" y1="35" y2="35" gradientUnits="userSpaceOnUse"><stop stop-color="#9D4B98"/><stop offset="1" stop-color="#72296D" stop-opacity="0"/></linearGradient><linearGradient id="i" x1="902" x2="909" y1="35" y2="35" gradientUnits="userSpaceOnUse"><stop stop-color="#9D4B98"/><stop offset="1" stop-color="#72296D" stop-opacity="0"/></linearGradient><linearGradient id="j" x1="1083" x2="1090" y1="35" y2="35" gradientUnits="userSpaceOnUse"><stop stop-color="#9D4B98"/><stop offset="1" stop-color="#72296D" stop-opacity="0"/></linearGradient><linearGradient id="k" x1="759.25" x2="759.25" y1="2" y2="92" gradientUnits="userSpaceOnUse"><stop stop-color="#FFF8E4" stop-opacity=".37"/><stop offset=".708" stop-color="#FFF8E4" stop-opacity="0"/></linearGradient><linearGradient id="l" x1="1049.25" x2="1049.25" y1="2" y2="92" gradientUnits="userSpaceOnUse"><stop stop-color="#FFF8E4" stop-opacity=".37"/><stop offset=".708" stop-color="#FFF8E4" stop-opacity="0"/></linearGradient><linearGradient id="m" x1="430" x2="552" y1="-3.5" y2="81" gradientUnits="userSpaceOnUse"><stop stop-color="#6B1866"/><stop offset=".536" stop-color="#894484"/><stop offset="1" stop-color="#5C1A58"/></linearGradient><linearGradient id="c" x1="2170" x2="2170" y1="64" y2="103" gradientUnits="userSpaceOnUse"><stop stop-color="#9D5E99"/><stop offset="1" stop-color="#8D4A89"/></linearGradient><linearGradient id="o" x1="1071" x2="949" y1="-3.5" y2="81" gradientUnits="userSpaceOnUse"><stop stop-color="#6B1866"/><stop offset=".536" stop-color="#894484"/><stop offset="1" stop-color="#5C1A58"/></linearGradient><linearGradient id="p" x1="1068.5" x2="944" y1="-14.5" y2="85" gradientUnits="userSpaceOnUse"><stop stop-color="#72286E"/><stop offset=".553" stop-color="#B85CB3"/><stop offset="1" stop-color="#72286E"/></linearGradient><linearGradient id="q" x1="1098" x2="1105" y1="35" y2="35" gradientUnits="userSpaceOnUse"><stop stop-color="#9D4B98"/><stop offset="1" stop-color="#72296D" stop-opacity="0"/></linearGradient><linearGradient id="r" x1="641.5" x2="641.5" y1="59.5" y2="68" gradientUnits="userSpaceOnUse"><stop stop-color="#BD7EBB"/><stop offset=".177" stop-color="#894A87"/><stop offset=".538" stop-color="#5B2252"/></linearGradient><linearGradient id="s" x1="842.5" x2="842.5" y1="59.5" y2="68" gradientUnits="userSpaceOnUse"><stop stop-color="#BD7EBB"/><stop offset=".177" stop-color="#894A87"/><stop offset=".538" stop-color="#5B2252"/></linearGradient><linearGradient id="t" x1="641" x2="641" y1="71" y2="85.316" gradientUnits="userSpaceOnUse"><stop stop-color="#682563"/><stop offset=".529" stop-color="#682563" stop-opacity=".471"/><stop offset=".886" stop-color="#682563" stop-opacity="0"/></linearGradient><linearGradient id="u" x1="842" x2="842" y1="71" y2="85.316" gradientUnits="userSpaceOnUse"><stop stop-color="#682563"/><stop offset=".529" stop-color="#682563" stop-opacity=".471"/><stop offset=".886" stop-color="#682563" stop-opacity="0"/></linearGradient><linearGradient id="v" x1="1171" x2="1171" y1="81" y2="128.512" gradientUnits="userSpaceOnUse"><stop stop-color="#D79AD3"/><stop offset="1" stop-color="#5F1F5B"/></linearGradient><linearGradient id="w" x1="1173.16" x2="1173.16" y1="107.852" y2="127.512" gradientUnits="userSpaceOnUse"><stop stop-color="#C63560"/><stop offset="0" stop-color="#B35698"/><stop offset="1" stop-color="#682163"/></linearGradient><linearGradient id="x" x1=".156" x2="756.656" y1="37.5" y2="32" gradientUnits="userSpaceOnUse"><stop stop-color="#581954"/><stop offset=".413" stop-color="#72296D"/><stop offset="1" stop-color="#72296D" stop-opacity="0"/></linearGradient><linearGradient id="y" x1="1440.16" x2="746.156" y1="61" y2="61" gradientUnits="userSpaceOnUse"><stop stop-color="#4D1949"/><stop offset=".342" stop-color="#72296D"/><stop offset="1" stop-color="#72296D" stop-opacity="0"/></linearGradient><clipPath id="a"><path fill="#fff" d="M0 0h1440v130H0z"/></clipPath></defs></svg>