<svg fill="none" viewBox="0 0 1440 499"><g clip-path="url(#a)"><path fill="#AC3968" d="M1439.06 499.5H-.94l1.096-150V229l184.5-16 116-22.5 86.5-11.5 18 11.5 28 22.5 132-22.5 121.5 38.5 122.5-16 129.5 16 179.504-38.5 138.5 38.5 101.75 14.5 81.75-45.5v199l-1.1 102.5z"/><path fill="url(#b)" fill-rule="evenodd" d="M111.255 231.43l.278 38.982-10.928-.371-.211 42.325-5.972-.406-.36 6.006-6.306.096.175 25.765-17.843.704.375-60.011-.141-4.846-6.062-.315-.125-4.961-5.36-.061.03-4.58-26.76-.088-.007 5.163-5.524.137-.115 5.5-5.528.114-.074 4.626 1.136 59.679-12.217.004-.512-25.902-4.348-.064.123-5.04-5.177.051L-1 508.912l102.123.045L1439 498.244l-1.11-219.965-5.03.242-.41 5.33-4.62.022-.25 5.515-4.87.28-.02 5.402-5.15.031-26.73 38.023-10.85.085-.04-16.278-21.58.098-17.33.552-.76-23.794-6.85.062-.32-6.073-5.64-.098.15-5.741-5.57-.026.24-5.5-5.92-.008-.46-6.686-6.86.244.26-5.876-6.59.006.11-5.335-6.03.302.27-6.162h-4.96l.09-6.19-7.79.02-.3 23.245-.25 53.727-11.92-.381-.08 11.429-3.23.019-.06 3.321-3.48.065.05 3.474-3.51-.041v3.229l-3.44-.014.08 3.325h-3.44v-2.881l-6.11.172-.02-7.644-3.67-.071-.03-3.073-6.84-9.961-2.69-4.316-2.62 4.398-7.02 10.484-.01 3.111-3.38-.058-.05 6.338-5.53.099.33 24.53-6.1.092-.02-49.261-.08-2.103-2.08-.072v-1.886l-1.84.028v-1.91l-1.83.095-.1-15.461-3.16-.016-24.7.001.01 4.282-3.69.029v3.839l-17.55-.153-.37 31.78-13.43-.444-.25 6.251-3.8-.087-.21 3.268-3.46.021-.12 3.061-3.09-.043-.06 2.954-3.09.038-.18 2.995-3-.061-.12 2.931-11.63-.08.79-67.748-6.15-.223.71-34.241-52.9-.238-.4 34.953-5.77-.078-.07 39.274-17.25.324-.32-67.026-6.37.003v-8.339l-7.64-.058-.31-15.362-8.57.12.01-9.462-27.332-.239.106 9.138-8.205.022.224 17.589-7.459-.393-.054 9.741-6.745.001.586 100.311-6.148.051.053-18.694-3.474-.078-18.052-8.168-10.965-.1.107-7.478-21.451.198-10.571 10.775-.107 22.437-21.067-.308-.437 25.675-5.477.092-.874-63.995-36.486-42.568-10.337.463-10.347.121-.256-21.856-29.392-.189-2.263 16.609-13.567 14.979-8.219-.109.116 64.109-12.808-.334-.073 3.882-4.125-.173-.063 3.86-4.088-.128-.125 4.102-10.517-.405.099-47.518-10.514-10.427-32.338-1.053-3.638 3.074-6.689 6.102-.084 39.752-21.507.387.518-75.661-3.872-.002.126-3.436-3.311-.063v-3.422l-33.589.125-.598 33.186-6.191.13.249 5.846-6.69-.01-.067 4.959-5.162.329-.117 5.11-4.876.176-.151 5.351-5.488-.005v4.994l-5.347.102.009 6.142-20.304.156.323-75.438-43.154.47-.529-24.512-20.793-.465-.152 9.945-21.214.122-.72 105.724-11.207.269.603-75.007-52.966 26.815-.295 43.484-3.482-.001.05 3.475-3.614.056.006 3.5-3.675-.066.008 3.095-3.632-.056-.093 3.939-23.347.152-10.637-10.509-.092-22.587-15.127-.011.181-35.108-42.936.512.331 35.041-32.692 21.5-.02-63.551-5.502.097-.045-5.07-5.1.076-15.185-12.43-16.851 12.48-4.896.072-.072 4.971-5.395.092-.116 42.524-21.845-.177.045-5.567-5.622-.034-.034-5.509-4.829.026-.01-4.978-5.725.034-.034-5.086-4.658.016-.22-74.179-10.722-.12.016-5.267h-5.564l.034-5.636-37.086-.196zM40 287h-6v6h6v-6zm-6 16h6v6h-6v-6zm6 16h-6v6h6v-6zm11-32h6v6h-6v-6zm6 16h-6v6h6v-6zm-6 16h6v6h-6v-6zm6 48h-6v6h6v-6zm1356-48h6v12h-6v-12zm6 19h-6v12h6v-12zm-6 19h6v12h-6v-12zm6 19h-6v12h6v-12zm-6 19h6v12h-6v-12zm6 19h-6v12h6v-12zm-6 19h6v12h-6v-12zm6 19h-6v12h6v-12zm-98-167v173h-6V285h6zm-11 173V275h-6v183h6zm16-164h6v164h-6V294zm-27 164V267h-6v191h6zm-131 14h-6v-6h6v6zm5 0h6v-6h-6v6zm6-77h-6v-6h6v6zm-6-66h6v-6h-6v6zm6 132h-6v-6h6v6zm-6-77h6v-6h-6v6zm6-66h-6v-6h6v6zm5 154h6v-6h-6v6zm6-77h-6v-6h6v6zm-6-77h6v-6h-6v6zm17 0h-6v-6h6v6zm-39 88h6v-6h-6v6zm6-66h-6v-6h6v6zm-6 110h6v-6h-6v6zm6-66h-6v-6h6v6zm-6-66h6v-6h-6v6zm6 110h-6v-6h6v6zm-6-66h6v-6h-6v6zm6 99h-6v-6h6v6zm-6-66h6v-6h-6v6zm6-66h-6v-6h6v6zm-6 110h6v-6h-6v6zm6-66h-6v-6h6v6zm-6 44h6v-6h-6v6zm6-66h-6v-6h6v6zm-100-89h-6v12h6v-12zm-6 19h6v12h-6v-12zm6 19h-6v12h6v-12zm-6 19h6v12h-6v-12zm6 19h-6v12h6v-12zm-6 19h6v12h-6v-12zm6 19h-6v12h6v-12zm-6 19h6v12h-6v-12zm6 19h-6v12h6v-12zm-6 19h6v12h-6v-12zm6 19h-6v12h6v-12zm-84-203h6v6h-6v-6zm-11 32h-6v6h6v-6zm45 0h6v6h-6v-6zm-28 16h-6v6h6v-6zm-23 32h6v6h-6v-6zm57 0h-6v6h6v-6zm-40 16h6v6h-6v-6zm-11 32h-6v6h6v-6zm45 0h6v6h-6v-6zm-28 16h-6v6h6v-6zm-23 32h6v6h-6v-6zm57 0h-6v6h6v-6zm-40-160h6v6h-6v-6zm-11 32h-6v6h6v-6zm45 0h6v6h-6v-6zm-28 16h-6v6h6v-6zm-23 32h6v6h-6v-6zm57 0h-6v6h6v-6zm-40 16h6v6h-6v-6zm-11 32h-6v6h6v-6zm45 0h6v6h-6v-6zm-28 16h-6v6h6v-6zm-6 32h6v6h-6v-6zm-11 0h-6v6h6v-6zm45 0h6v6h-6v-6zm-28-160h-6v6h6v-6zm-23 32h6v6h-6v-6zm57 0h-6v6h6v-6zm-40 16h6v6h-6v-6zm-11 32h-6v6h6v-6zm45 0h6v6h-6v-6zm-28 16h-6v6h6v-6zm-23 32h6v6h-6v-6zm57 0h-6v6h6v-6zm-40 16h6v6h-6v-6zm6 32h-6v6h6v-6zm-23 0h6v6h-6v-6zm57 0h-6v6h6v-6zm-23-208h6v6h-6v-6zm6 48h-6v6h6v-6zm-6 48h6v6h-6v-6zm6 48h-6v6h6v-6zm-6-128h6v6h-6v-6zm6 48h-6v6h6v-6zm-6 48h6v6h-6v-6zm6 48h-6v6h6v-6zm-6 32h6v6h-6v-6zm6-160h-6v6h6v-6zm-6 48h6v6h-6v-6zm6 48h-6v6h6v-6zm-6 48h6v6h-6v-6zm6 32h-6v6h6v-6zM34 335h6v6h-6v-6zm6 48h-6v6h6v-6zm-6 48h6v6h-6v-6zm6-80h-6v6h6v-6zm-6 48h6v6h-6v-6zm6 48h-6v6h6v-6zm-6-80h6v6h-6v-6zm6 48h-6v6h6v-6zm-6 48h6v6h-6v-6zm23-128h-6v6h6v-6zm-6 48h6v6h-6v-6zm6 48h-6v6h6v-6zm-6-80h6v6h-6v-6zm6 48h-6v6h6v-6zm-6 48h6v6h-6v-6zm6-32h-6v6h6v-6zm-6 48h6v6h-6v-6zm90-201h-6v12h6v-12zm-6 19h6v12h-6v-12zm6 19h-6v12h6v-12zm-6 19h6v12h-6v-12zm6 19h-6v12h6v-12zm-6 19h6v12h-6v-12zm6 19h-6v12h6v-12zm-6 19h6v12h-6v-12zm6 19h-6v12h6v-12zm-6 19h6v12h-6v-12zm6 19h-6v12h6v-12zm184-145h6v6h-6v-6zm-5 0h-6v6h6v-6zm-6 77h6v6h-6v-6zm6 66h-6v6h6v-6zm-6-132h6v6h-6v-6zm6 77h-6v6h6v-6zm-6 66h6v6h-6v-6zm-5-154h-6v6h6v-6zm-6 77h6v6h-6v-6zm6 66h-6v6h6v-6zm16-77h6v6h-6v-6zm6 66h-6v6h6v-6zm-6-110h6v6h-6v-6zm6 66h-6v6h6v-6zm-6 66h6v6h-6v-6zm6-110h-6v6h6v-6zm-6 66h6v6h-6v-6zm6-99h-6v6h6v-6zm-6 66h6v6h-6v-6zm6 66h-6v6h6v-6zm-6-110h6v6h-6v-6zm6 66h-6v6h6v-6zm-6-44h6v6h-6v-6zm6 66h-6v6h6v-6zm150-141h50v6h-50v-6zm50 99h-50v6h50v-6zm-50-66h50v6h-50v-6zm50 99h-50v6h50v-6zm-50-66h50v6h-50v-6zm50 99h-50v6h50v-6zm-50-154h50v6h-50v-6zm50 99h-50v6h50v-6zm-50-66h50v6h-50v-6zm50 99h-50v6h50v-6zm-50-66h50v6h-50v-6zm50 99h-50v6h50v-6zm-50-154h50v6h-50v-6zm50 99h-50v6h50v-6zm-50-66h50v6h-50v-6zm50 99h-50v6h50v-6zm-50-66h50v6h-50v-6zm50 99h-50v6h50v-6zm82-187h6v6h-6v-6zm6 48h-6v6h6v-6zm-6 48h6v6h-6v-6zm6 48h-6v6h6v-6zm-6-128h6v6h-6v-6zm6 48h-6v6h6v-6zm-6 48h6v6h-6v-6zm6 48h-6v6h6v-6zm-6-128h6v6h-6v-6zm6 48h-6v6h6v-6zm-6 48h6v6h-6v-6zm6 48h-6v6h6v-6zm11-176h6v6h-6v-6zm6 48h-6v6h6v-6zm-6 48h6v6h-6v-6zm6 48h-6v6h6v-6zm-6-128h6v6h-6v-6zm6 48h-6v6h6v-6zm-6 48h6v6h-6v-6zm6 48h-6v6h6v-6zm-6-128h6v6h-6v-6zm6 48h-6v6h6v-6zm-6 48h6v6h-6v-6zm6 48h-6v6h6v-6zm145-192h6v6h-6v-6zm6 48h-6v6h6v-6zm-6 48h6v6h-6v-6zm6 48h-6v6h6v-6zm-6-128h6v6h-6v-6zm6 48h-6v6h6v-6zm-6 48h6v6h-6v-6zm6 48h-6v6h6v-6zm-6-128h6v6h-6v-6zm6 48h-6v6h6v-6zm-6 48h6v6h-6v-6zm6 48h-6v6h6v-6zm-6 16h6v6h-6v-6zm16-192h-6v6h6v-6zm-6 48h6v6h-6v-6zm6 48h-6v6h6v-6zm-6 48h6v6h-6v-6zm6-128h-6v6h6v-6zm-6 48h6v6h-6v-6zm6 48h-6v6h6v-6zm-6 48h6v6h-6v-6zm6-128h-6v6h6v-6zm-6 48h6v6h-6v-6zm6 48h-6v6h6v-6zm-6 48h6v6h-6v-6zm6 16h-6v6h6v-6z" clip-rule="evenodd" opacity=".4"/><path fill="#72296D" fill-rule="evenodd" d="M543.005 352l-3.696 2.563-3.03-2.33-3.362 2.365-3.762-2.198-3.897 2.13-3.328-1.731-3.23 1.698-3.23-1.764-3.53 1.698-2.496-2.031-2.897 1.931.166 43.217-2.197-.033.167 23.739-1.931-.101-.2-23.405-1.732-.034.167 23.406-1.765-.033-.432-23.472-1.499-.067.266 23.64h-1.431l-.832-23.44-1.632-.1.633 23.273-1.765-.1-.567-23.073-1.631-.1.2 23.339-1.731-.066-.466-23.306-1.565-.033v23.606l-1.798-.101-.033-23.539-1.532-.067v23.274h-2.098l.266-23.274-1.697-.034-.167 23.44-1.931-.033.201-23.306-1.766-.033-.266 23.406-1.732.033.101-23.439-1.865-.034-.299 23.34-1.699.033v-23.306l-1.831-.033-.066 23.339-1.932.033-.099-23.305h-1.831v23.472l-1.766.066-.132-23.673-.2-21.774-42.485-11.021-42.318 11.454-.432 42.252-3.629-2.831-3.563 2.864-3.263-2.731-3.729 2.731-3.896-2.731-4.094 2.764-3.83-2.897-3.663 2.897-3.829-2.764-3.395 2.797-3.829-2.664-3.529 2.697-3.897-2.463-3.895 2.463-3.529-2.53-3.763 2.564-3.594-2.331-3.497 2.331-3.396-2.264-3.762 2.297-4.029-2.131-4.295 2.164-3.596-2.031-3.13 2.031-.267 71.718H1277.8l-16.29-.133.6-36.725 3.97.033v-13.118l-2.27-4.128.36 17.213-2.1-.166-.19-21.309-2.43-.167.3 21.575-1.87-.099-.07-21.409-1.96-.1-.03 21.409-1.93.1.06-21.376-2.22-.033.16 20.975-1.84-.132-.09-20.91-1.99-.033.06 21.175h-1.97l-.07-20.942h-2.03l.14 20.909-1.9.2-.3-21.142-1.8-.299v21.274l-2 .134v-21.142h-1.9l-.03 21.575-1.76-.333.1-21.442-1.96.133.13 21.508h-1.8l-.3-34.893-29.43.233.16 2.598h-2.79v25.769l-3-.166v3.43l-28.87-.033v-31.264l-13.95-21.276-.59 31.863h-1.71l.54-31.73-1.93-.033-.5 31.763-1.84-.133.57-31.63-1.99.033-.41 31.73-1.76-.133.33-31.531h-1.96l-.31 31.431-1.72-.066-.03-31.464-2.04-.1.27 31.564h-1.83l-.4-31.697-1.63-.1.4 31.663-1.8-.067-.43-31.43-1.66-.099.26 31.33-1.73.067-.13-31.397-1.74-.033-.03 31.463-1.74-.033.11-31.464-2.04-.101v31.697l-1.63.067-.23-31.53-1.73-.033.2 31.763h-1.76l-.3-31.663-2.1-.034.1 31.797h-1.9l.1-31.63-1.83-.067-.13 31.597-1.87.134-.06-31.664-2.01-.033.04 31.829-2.56-.033.56-31.597h-1.8l-.69 31.664-1.63-.133.19-20.577-20.93-19.844-.24 10.888h-2.24l.34-10.987-2.36.066-.23 11.054-2.07-.067.17-11.087-2.1.067-.27 11.12-1.97-.066.41-11.154-2.04.166-.5 11.121-1.93-.1.27-10.921-1.73.033-.2 10.821-2.3-.099.4-11.021-1.83.1-.63 11.054h-1.56l.46-11.054-1.73.033-.47 11.087-1.83-.066.34-10.955-1.74.067-.43 10.321-1.5.1.17-10.488-1.87.067-.16 10.522-1.74.1.08-10.522-1.57.034-.17 10.654-1.6.033.14-10.587-1.67.066-.24 10.621-1.66-.033.07-10.721-1.76.067-.1 10.654-1.44-.034-.16-22.807-42.721.034.203 75.646-2.27.034-.063-20.744-1.961-.133.064 20.743-2.365.167.032-20.81-1.726-.067v20.81l-1.929.034-.074-20.877-1.694-.033-.171 20.842-1.758-.066-.138-20.676-1.993.033.363 20.81-1.694.1-.501-20.71-1.673-.1.139 20.543-2.195.134-.107-20.677-1.896.067.138 20.676-2.333-.167.202-20.509-1.864-.1-.075 20.542-2.131.134.341-20.843-2.067-.067-.064-12.385-32.698-11.354-31.526 10.521-.799 71.352-52.644-.133.171-28.534-42.66.4-.299-31.931h-31.959l-.466 10.456-4.629-2.964-5.626 3.03-5.16-2.631-4.729 2.697-5.793-2.63-6.226 2.697-4.295-2.064-4.228 2.097.133-30.298-1.799.133-.232 10.854-1.499-.234.1-10.487-1.831-.033-.133 10.487-1.931.033.299-10.487-1.764-.067-.333 10.554-1.832-.066.1-10.421h-1.598l-.332 10.255-1.732.166.134-10.187-1.666.033-.299 10.021-1.799-.033.1-10.122-1.564-.1-.433 10.388-1.732-.066.301-10.188h-1.632l-.633 10.32-1.332-.066.3-10.322-1.665.068-.5 10.32-1.531-.066.267-10.288-1.698.067-.267 10.287h-1.631l.2-10.354h-1.466l-.365 10.455-1.499-.033.134-10.489h-1.532l-.2 10.489-1.565-.068.134-10.253h-1.632l-.167 10.354-1.465-.066.1-10.322h-1.598v10.188l-1.498.033-.2-32.762-2.33-1.365-2.298 1.465-2.031-1.465-2.264 1.398-2.031-1.431-2.098 1.365-2.03-1.365-2.332 1.298-1.797-1.031-1.932.965-.266-22.142-21.209-11.553-21.274 11.421-.401 22.207-13.184 24.105-2.531.067 13.352-24.205-2.83.066-12.819 23.54-2.164.067 12.552-23.673-2.63.299-12.053 23.307-1.865-.033 11.554-23.44-2.164.166-11.887 23.573-2.33.4 11.587-23.906-2.299.133-11.619 23.873-2.464.033 11.753-24.205-2.596.132-11.254 24.073-2.064.133 11.087-24.405-2.531.1-10.621 24.305h-2.598l10.822-24.505-2.53.1-10.522 24.272-2.497.034 11.187-24.505-2.663-.034-10.821 24.539-2.93.099 11.187-24.805h-2.231l-11.087 24.772-2.63.033 11.387-24.905-2.497.034-10.755 24.738-2.197.2 10.587-24.972-2.43.034-9.855 22.973v-4.86l7.458-18.28-2.864.167-4.661 12.485v-6.825l2.331-5.76-2.364-.034-.167-33.195-2.863-2.397-3.33 2.464-3.163-2.397-2.896 2.43-3.33-2.497zM1277.8 490.308l16.23.133v-.133h-16.23zm16.23 0H1440l-1.73-82.305-16.64.465.66-41.052-22.31.033-.16 30.399-2 .066.1-11.453-2.14.133-.19 11.154-1.94-.034-.03-11.153-1.9.066v11.453l-2.13-.133.11-11.519-2.03.033-.37 11.253-1.83.134.03-11.287-2.13.066-.03 11.221-1.83.099-.03-11.286-1.98.033-.29 54.104-10.16-.133-.59-21.143-21.28-10.355-20.34 10.222-.47 33.695-3.82-2.23-3.54 2.23-3.83-2.031-3.96 2.031-4.36-1.832-4.3 1.832-4.39-1.832-3.86 1.832-.28 37.224zm-1005.566 0h-50.308v.365l50.308-.332v-.033zm-50.308 0l.167-124.59-41.619.133-.167 31.33h-20.143l-.832 78.977-1.598-.034.732-99.486-1.998-.066v13.351l-1.998-.1.033-13.351-1.764-.067-.166 13.285-1.865-.099-.399-13.119-1.666.067.234 13.018-2.031.034-.299-12.853-1.832.068.033 12.917-2.064-.033v-12.752l-1.765.1-.299 12.419-2.031.034.333-12.419-1.798-.034-.5 12.353-1.664.1.199-12.453h-1.797l-.467 12.586-1.731.033.333-12.585-1.598.066-.666 12.519-1.565-.033.299-12.519h-1.664l-.466 12.585-1.665-.133.333-12.552-1.564-.067-.5 12.719-1.831.033.532-12.718-1.798.066-.665 12.852-1.499.066.299-12.951-1.83.033-.334 12.852-1.897-.033.166-12.752-1.797.066-.168 12.586-2.063.066.133-12.652.166-18.978-5.694-4.927.067 4.395-4.694-.201-5.56-3.895.066 4.195-4.661-.066-5.593-4.096.232 3.996-4.86-.101-5.128-3.362v3.862l-4.595-.133-4.961-3.229.067 57.7-12.552-24.838-2.864-.566 12.785 25.404-3.096-.167-12.519-25.304-2.463-.233 12.552 25.57H70.35L57.83 386.86l-2.463.067 12.918 25.17-2.563-.099-12.22-25.005h-2.364l12.387 24.938h-2.532l-12.419-24.938-2.33.1 12.52 24.905-2.998-.133-12.086-24.806-2.863-.066 12.386 24.606-2.697-.201-11.986-24.339h-2.797l12.718 24.306h-2.53l-12.253-24.272-2.63.101 12.086 24.104-2.73-.166-11.553-23.772H26.2l11.852 23.905-2.43-.199-11.786-23.706-2.698.033 12.287 23.806-2.532-.033-12.019-23.607-3.262-.299 12.785 24.072-2.73-.2-12.42-23.739-3.03.033 13.319 24.105-2.531-.033-13.019-23.872-3.062-.034 13.851 24.373-2.73-.167-13.419-23.905-3.529-.068 14.417 24.239-3.23-.133-11.02-19.744-.1 4.129 8.857 15.815-2.764.133-6.093-11.354-.134 4.595 3.596 6.893h-3.962l.266 4.694 82.406-.865.1 3.695-.832 70.353-.234.033h157.785zm-157.785 0h-1.165v.166l1.165-.166zm-1.165 0l.432-72.085-80.973.967L-2 490.308h81.206zm560.088-122.427h9.822v21.243h-9.822v-21.243zm-548.735.667h10.422v10.454H90.559v-10.454zm452.68 4.461c4.842-.025 5.426 4.662 5.426 4.662V410.4h-10.821v-32.729s.489-4.636 5.395-4.662zm-21.243.033c4.843-.025 5.427 4.696 5.427 4.695v32.729h-10.787v-32.729s.456-4.668 5.36-4.695zm-315.17 1.432h24.006v9.29h-24.006v-9.29zM431.3 389.391h11.021v11.02H431.3v-11.02zm-42.051.233h11.021v11.02h-11.021v-11.02zm617.761.033h10.38v42.851h-10.38v-42.851zm-916.451.066h10.422v10.455H90.559v-10.455zm320.199.134h11.021v11.02h-11.021v-11.02zm-204.765 1.365h25.005v9.29h-25.005v-9.29zm433.001 4.727h9.789v21.243h-9.789v-21.243zm27.07 4.829h10.554v10.887h-10.554v-10.887zm-511.512.099h10.389v41.253h-10.389v-41.253zm915.878 9.323h10.39v21.442h-10.39V410.2zm319.4.266h10.26v10.722h-10.26v-10.722zm-979.672.2h11.021v10.987h-11.021v-10.987zm-21.01.133h10.988v11.021h-10.988v-11.021zm649.652.067h10.39v20.543h-10.39v-20.543zm-948.241.1h10.422v10.488H90.559v-10.488zm97.555.133h41.952v9.289h-41.952v-9.289zm244.019.166h11.02v11.021h-11.02v-11.021zm233.831 10.255h10.554v10.888h-10.554V421.52zm-637.7 7.525h14.35v21.442h-14.35v-21.442zm22.142 0h14.383v21.442H50.406v-21.442zm138.107.199h41.952v9.29h-41.952v-9.29zm-183.255.034h14.35v21.441H5.258v-21.441zm341.074 2.53h11.021v11.021h-11.021v-11.021zm42.816.034h10.988v11.021h-10.988v-11.021zm1001.152.033h10.21v10.687h-10.21v-10.687zm21.14 0h10.26v10.687h-10.26v-10.687zm-1107.359.199H315.1v11.021h-11.019v-11.021zm62.927 0h11.02v11.021h-11.02v-11.021zm330.852 0h20.443v10.589H697.86v-10.589zm-607 .067h10.421v10.455H90.859v-10.455zm852.613.067h10.388v9.822h-10.388v-9.822zm-447.947.1h11.287v10.687h-11.287v-10.687zm415.355 0h10.42v9.822h-10.42v-9.822zm-585.692.033h11.021v11.02h-11.021v-11.02zm138.707.1h11.287v10.654h-11.287v-10.654zm202.168 10.055h10.554v10.887h-10.554v-10.887zm468.766 3.496c10.9-.163 11.45 8.091 11.45 8.091v35.692H1124v-35.692s.04-7.93 10.83-8.091zm-946.116 1.831h41.95v9.289h-41.95v-9.289zm115.266 5.294h11.021v11.021H303.98v-11.021zm42.352.167h11.021v11.02h-11.021v-11.02zm-216.684.033c9.037-.399 9.523 10.155 9.523 10.155v26.502h-19.445l-.034-26.369s.239-9.86 9.956-10.288zm610.431.033h10.886v10.621h-10.886V453.35zm-255.673.033c9.036-.399 9.521 10.156 9.522 10.156l.034 26.503h-19.444l-.034-26.37s.205-9.86 9.922-10.289zm-393.747.034h10.422v10.454H90.659v-10.454zm820.318.033h10.431v9.855h-10.431v-9.855zm32.571 0h10.42v9.855h-10.42v-9.855zm-554.066.033h11.021v10.988h-11.021v-10.988zm372.637 0h10.888v10.621h-10.888v-10.621zm21.276 0h10.917v10.621h-10.917v-10.621zm-458.272.1h11.02v10.987h-11.02v-10.987zm372.97.133h20.444v10.622h-20.444v-10.622zm-330.719.134h11.021v10.986h-11.021V453.85zm-339.242 3.696h14.383v21.408H28.132v-21.408zm22.174 0h14.35v21.408h-14.35v-21.408zm-45.181.233h14.383v21.441H5.125v-21.441zm183.188 5.793h41.953v9.255h-41.953v-9.255z" clip-rule="evenodd"/><path fill="#843B7F" d="M1440 499.5H0v-14h1440z"/><path fill="#4C2C73" d="M968 419.5l.002-1.5 16.498-5.5 1.5 1.5-.5 1s-1 1.5-3.5 2.5-4.5.5-4.5.5l-1.5-.5-6 2v69h-2v-69zm-438 0l.002-1.5 16.498-5.5 1.5 1.5-.5 1s-1 1.5-3.5 2.5-4.5.5-4.5.5l-1.5-.5-6 2v69h-2v-69zm-438 0l.002-1.5 16.498-5.5 1.5 1.5-.5 1s-1 1.5-3.5 2.5-4.5.5-4.5.5l-1.5-.5-6 2v69h-2v-69z"/><path fill="#FFE6DB" d="M985.825 414.061l-9.648 3.377c-.076.027-.091.124-.024.169.494.334 2.095 1.31 3.347.893 1.995-.665 4-1.5 5-2 .818-.409 1.301-1.821 1.45-2.322a.096.096 0 00-.125-.117zm-438 0l-9.648 3.377c-.076.027-.091.124-.024.169.494.334 2.095 1.31 3.347.893 1.995-.665 4-1.5 5-2 .818-.409 1.301-1.821 1.45-2.322a.096.096 0 00-.125-.117zm-438 0l-9.648 3.377c-.076.027-.091.124-.024.169.494.334 2.095 1.31 3.347.893 1.995-.665 4-1.5 5-2 .818-.409 1.301-1.821 1.45-2.322a.096.096 0 00-.125-.117z"/><path fill="#AA4173" d="M412 471.5h2v20h-2zm8 0h2v20h-2zm8 0h2v20h-2zm8 0h2v20h-2zm8 0h2v20h-2zm8 0h2v20h-2zm8 0h2v20h-2zm8-26l-1.5-2h5l-1.5 2v46h-2v-46z"/><path fill="#A84070" d="M410 471.5a1 1 0 010-2h58v2h-58zm0 20a1 1 0 010-2h58v2h-58z"/><circle cx="469" cy="440.5" r="4" fill="#FDD"/><path fill="#AA4173" d="M1089 471.5h-2v20h2zm-8 0h-2v20h2zm-8 0h-2v20h2zm-8 0h-2v20h2zm-8 0h-2v20h2zm-8 0h-2v20h2zm-8 0h-2v20h2zm-8-26l1.5-2h-5l1.5 2v46h2v-46z"/><path fill="#A84070" d="M1091 471.5c.55 0 1-.448 1-1s-.45-1-1-1h-58v2h58zm0 20c.55 0 1-.448 1-1s-.45-1-1-1h-58v2h58z"/><circle r="4" fill="#FDD" transform="matrix(-1 0 0 1 1032 440.5)"/><path fill="url(#c)" d="M509 499.5l29-82 10-3.5 46 85.5h-85z"/><path fill="url(#d)" d="M71 499.5l29-82 10-3.5 46 85.5H71z"/><path fill="url(#e)" d="M947 499.5l29-82 10-3.5 46 85.5h-85z"/><path fill="#fff" d="M429.535 129h2.184v-4.62h5.516v-2.016h-5.516v-2.324h6.006v-1.96h-8.19V129zm12.943.224c1.778 0 3.164-1.008 3.388-2.59h-2.086c-.084.504-.56.896-1.288.896-1.078 0-1.568-.616-1.666-1.554h5.068v-.672c0-2.324-1.484-3.808-3.416-3.808-2.226 0-3.766 1.596-3.766 3.85 0 2.268 1.54 3.878 3.766 3.878zm-1.638-4.522c.126-.84.574-1.414 1.554-1.414.882 0 1.372.602 1.414 1.414h-2.968zm8.984 4.522c1.246 0 2.03-.56 2.394-1.47.182.994.98 1.554 2.59 1.19v-1.484c-.574.056-.686-.154-.686-.756v-2.464c0-1.722-1.204-2.744-3.332-2.744-2.1 0-3.332 1.036-3.332 2.786h2.044c0-.63.462-.994 1.26-.994.868 0 1.302.35 1.288.952v.224l-1.708.196c-2.016.238-3.178 1.064-3.178 2.394 0 1.106.784 2.17 2.66 2.17zm.42-1.54c-.644 0-.994-.294-.994-.742 0-.532.686-.728 2.002-.896l.714-.084c-.126.98-.728 1.722-1.722 1.722zm10.268 1.302v-1.834c-1.554.14-1.61.028-1.61-1.176v-2.366h1.904v-1.89h-1.904v-1.96h-2.072v1.96h-1.554v1.89h1.554v3.43c-.042 2.058 1.064 2.142 3.682 1.946zm9.068-7.266h-2.072v3.724c0 1.204-.63 1.988-1.638 1.988-.896 0-1.428-.644-1.428-1.708v-4.004h-2.1v4.116c0 2.226.882 3.388 2.702 3.388 1.162 0 1.974-.49 2.464-1.274V129h2.072v-7.28zm1.842 7.28h2.044v-3.934c0-1.316 1.386-1.428 2.856-1.428v-2.002c-1.414 0-2.38.476-2.856 1.456v-1.372h-2.044V129zm9.174.224c1.778 0 3.164-1.008 3.388-2.59h-2.086c-.084.504-.56.896-1.288.896-1.078 0-1.568-.616-1.666-1.554h5.068v-.672c0-2.324-1.484-3.808-3.416-3.808-2.226 0-3.766 1.596-3.766 3.85 0 2.268 1.54 3.878 3.766 3.878zm-1.638-4.522c.126-.84.574-1.414 1.554-1.414.882 0 1.372.602 1.414 1.414h-2.968zM440.246 146h2.086v-5.39h1.988v-1.89h-1.988v-.476c.014-1.134.406-1.414 1.372-1.414h.476v-1.89h-1.064c-1.89-.028-2.898 1.218-2.87 3.094v.686h-1.708v1.89h1.708V146zm5.24 0h2.073v-11.06h-2.073V146zm6.416.224c1.246 0 2.03-.56 2.394-1.47.182.994.98 1.554 2.59 1.19v-1.484c-.574.056-.686-.154-.686-.756v-2.464c0-1.722-1.204-2.744-3.332-2.744-2.1 0-3.332 1.036-3.332 2.786h2.044c0-.63.462-.994 1.26-.994.868 0 1.302.35 1.288.952v.224l-1.708.196c-2.016.238-3.178 1.064-3.178 2.394 0 1.106.784 2.17 2.66 2.17zm.42-1.54c-.644 0-.994-.294-.994-.742 0-.532.686-.728 2.002-.896l.714-.084c-.126.98-.728 1.722-1.722 1.722zm9.519 4.34c2.52 0 3.85-1.148 3.85-3.514v-6.79h-2.086v.924c-.49-.728-1.274-1.148-2.436-1.148-1.876 0-3.136 1.596-3.136 3.878 0 2.254 1.26 3.668 3.136 3.668 1.162 0 1.946-.378 2.436-1.05v.518c.014 1.316-.518 1.946-1.666 1.946-.868 0-1.512-.28-1.582-.938h-2.086c.154 1.694 1.4 2.506 3.57 2.506zm.028-4.69c-1.036 0-1.764-.84-1.764-2.044 0-1.218.728-2.086 1.764-2.086s1.75.868 1.75 2.086c0 1.204-.714 2.044-1.75 2.044zm8.905 1.89c2.114 0 3.388-.896 3.388-2.338 0-3.164-4.648-1.666-4.648-3.08 0-.518.448-.868 1.218-.868.84 0 1.344.434 1.386 1.148h2.044c-.126-1.61-1.358-2.59-3.304-2.59-2.142 0-3.43.924-3.43 2.394 0 3.08 4.662 1.582 4.662 3.066 0 .434-.462.826-1.26.826-.868 0-1.498-.406-1.526-1.106h-2.058c.042 1.596 1.372 2.548 3.528 2.548z"/><rect width="3" height="29" x="455.06" y="161" fill="#FF88B9" opacity=".2" rx="1.5"/><circle cx="455.56" cy="207.5" r="6" stroke="#fff" stroke-width="3"/><path fill="#fff" d="M50.764 143.224c3.346 0 5.544-2.338 5.544-5.74 0-3.332-2.198-5.628-5.544-5.628-3.402 0-5.628 2.296-5.628 5.628 0 3.402 2.226 5.74 5.628 5.74zm0-2.114c-2.086 0-3.388-1.386-3.388-3.696 0-2.142 1.302-3.444 3.388-3.444 2.03 0 3.29 1.302 3.29 3.444 0 2.31-1.26 3.696-3.29 3.696zm7.107 4.69h2.072v-3.752c.504.742 1.302 1.176 2.45 1.176 1.834 0 3.136-1.596 3.136-3.836 0-2.282-1.302-3.892-3.136-3.892-1.148 0-1.946.434-2.45 1.176v-.952h-2.072v10.08zm3.808-4.368c-1.022 0-1.75-.854-1.75-2.058 0-1.218.728-2.086 1.75-2.086 1.036 0 1.764.868 1.764 2.086 0 1.204-.728 2.058-1.764 2.058zm8.893 1.792c1.778 0 3.164-1.008 3.388-2.59h-2.086c-.084.504-.56.896-1.288.896-1.078 0-1.568-.616-1.666-1.554h5.068v-.672c0-2.324-1.484-3.808-3.416-3.808-2.226 0-3.766 1.596-3.766 3.85 0 2.268 1.54 3.878 3.766 3.878zm-1.638-4.522c.126-.84.574-1.414 1.554-1.414.882 0 1.372.602 1.414 1.414h-2.968zM75.563 143h2.072v-3.724c0-1.204.63-1.988 1.638-1.988.896 0 1.428.644 1.428 1.708V143h2.1v-4.116c0-2.226-.882-3.388-2.702-3.388-1.162 0-1.974.49-2.464 1.274v-1.05h-2.072V143zm16.441.224c2.114 0 3.388-.896 3.388-2.338 0-3.164-4.648-1.666-4.648-3.08 0-.518.448-.868 1.218-.868.84 0 1.344.434 1.386 1.148h2.044c-.126-1.61-1.358-2.59-3.304-2.59-2.142 0-3.43.924-3.43 2.394 0 3.08 4.662 1.582 4.662 3.066 0 .434-.462.826-1.26.826-.868 0-1.498-.406-1.526-1.106h-2.058c.042 1.596 1.372 2.548 3.528 2.548zm8.553 0c2.282 0 3.892-1.61 3.892-3.878 0-2.254-1.61-3.85-3.892-3.85s-3.878 1.596-3.878 3.85c0 2.268 1.596 3.878 3.878 3.878zm0-1.792c-1.05 0-1.792-.868-1.792-2.086 0-1.204.742-2.058 1.792-2.058 1.064 0 1.806.854 1.806 2.058 0 1.218-.742 2.086-1.806 2.086zm12.621-5.712h-2.072v3.724c0 1.204-.63 1.988-1.638 1.988-.896 0-1.428-.644-1.428-1.708v-4.004h-2.1v4.116c0 2.226.882 3.388 2.702 3.388 1.162 0 1.974-.49 2.464-1.274V143h2.072v-7.28zm1.842 7.28h2.044v-3.934c0-1.316 1.386-1.428 2.856-1.428v-2.002c-1.414 0-2.38.476-2.856 1.456v-1.372h-2.044V143zm9.173.224c1.792 0 3.178-1.19 3.388-2.87h-2.072c-.07.63-.63 1.078-1.4 1.078-.966 0-1.596-.868-1.596-2.086 0-1.204.63-2.058 1.596-2.058.742 0 1.302.462 1.4 1.106h2.072c-.21-1.694-1.596-2.898-3.388-2.898-2.24 0-3.766 1.596-3.766 3.85 0 2.268 1.526 3.878 3.766 3.878zm8.367 0c1.778 0 3.164-1.008 3.388-2.59h-2.086c-.084.504-.56.896-1.288.896-1.078 0-1.568-.616-1.666-1.554h5.068v-.672c0-2.324-1.484-3.808-3.416-3.808-2.226 0-3.766 1.596-3.766 3.85 0 2.268 1.54 3.878 3.766 3.878zm-1.638-4.522c.126-.84.574-1.414 1.554-1.414.882 0 1.372.602 1.414 1.414h-2.968zm-69.896 21.522c1.246 0 2.03-.56 2.394-1.47.182.994.98 1.554 2.59 1.19v-1.484c-.574.056-.686-.154-.686-.756v-2.464c0-1.722-1.204-2.744-3.332-2.744-2.1 0-3.332 1.036-3.332 2.786h2.044c0-.63.462-.994 1.26-.994.868 0 1.302.35 1.288.952v.224l-1.708.196c-2.016.238-3.178 1.064-3.178 2.394 0 1.106.784 2.17 2.66 2.17zm.42-1.54c-.644 0-.994-.294-.994-.742 0-.532.686-.728 2.002-.896l.714-.084c-.126.98-.728 1.722-1.722 1.722zM67.257 160h2.072v-3.724c0-1.204.63-1.988 1.638-1.988.896 0 1.428.644 1.428 1.708V160h2.1v-4.116c0-2.226-.882-3.388-2.702-3.388-1.162 0-1.974.49-2.464 1.274v-1.05h-2.072V160zm11.488.224c1.246 0 2.03-.56 2.394-1.47.182.994.98 1.554 2.59 1.19v-1.484c-.574.056-.686-.154-.686-.756v-2.464c0-1.722-1.204-2.744-3.332-2.744-2.1 0-3.332 1.036-3.332 2.786h2.044c0-.63.462-.994 1.26-.994.868 0 1.302.35 1.288.952v.224l-1.708.196c-2.016.238-3.178 1.064-3.178 2.394 0 1.106.784 2.17 2.66 2.17zm.42-1.54c-.644 0-.994-.294-.994-.742 0-.532.686-.728 2.002-.896l.714-.084c-.126.98-.728 1.722-1.722 1.722zM85.058 160h2.072v-11.06h-2.072V160zm3.612 2.8h.896c1.792 0 3.024-.49 3.766-2.268l2.982-7.812H94.13l-1.806 4.858-2.072-4.858h-2.184l3.164 7.392c-.462.658-.938.868-1.848.854h-.714v1.834zm13.451-2.814v-1.834c-1.554.14-1.61.028-1.61-1.176v-2.366h1.904v-1.89h-1.904v-1.96h-2.072v1.96h-1.554v1.89h1.553v3.43c-.041 2.058 1.064 2.142 3.683 1.946zm2.908-8.162c.756 0 1.316-.56 1.316-1.316s-.56-1.288-1.316-1.288c-.77 0-1.33.532-1.33 1.288s.56 1.316 1.33 1.316zm-1.05 8.176h2.086v-7.28h-2.086V160zm7.41.224c1.792 0 3.178-1.19 3.388-2.87h-2.072c-.07.63-.63 1.078-1.4 1.078-.966 0-1.596-.868-1.596-2.086 0-1.204.63-2.058 1.596-2.058.742 0 1.302.462 1.4 1.106h2.072c-.21-1.694-1.596-2.898-3.388-2.898-2.24 0-3.766 1.596-3.766 3.85 0 2.268 1.526 3.878 3.766 3.878zm8.089 0c2.114 0 3.388-.896 3.388-2.338 0-3.164-4.648-1.666-4.648-3.08 0-.518.448-.868 1.218-.868.84 0 1.344.434 1.386 1.148h2.044c-.126-1.61-1.358-2.59-3.304-2.59-2.142 0-3.43.924-3.43 2.394 0 3.08 4.662 1.582 4.662 3.066 0 .434-.462.826-1.26.826-.868 0-1.498-.406-1.526-1.106h-2.058c.042 1.596 1.372 2.548 3.528 2.548z"/><rect width="3" height="29" x="89.06" y="175" fill="#FF88B9" opacity=".2" rx="1.5"/><circle cx="90.56" cy="221.5" r="6" stroke="#fff" stroke-width="3"/><path fill="#fff" d="M513.362 127h2.184v-4.676h5.292V127h2.184v-10.92h-2.184v4.144h-5.292v-4.144h-2.184V127zm15.145.224c1.778 0 3.164-1.008 3.388-2.59h-2.086c-.084.504-.56.896-1.288.896-1.078 0-1.568-.616-1.666-1.554h5.068v-.672c0-2.324-1.484-3.808-3.416-3.808-2.226 0-3.766 1.596-3.766 3.85 0 2.268 1.54 3.878 3.766 3.878zm-1.638-4.522c.126-.84.574-1.414 1.554-1.414.882 0 1.372.602 1.414 1.414h-2.968zm8.984 4.522c1.246 0 2.03-.56 2.394-1.47.182.994.98 1.554 2.59 1.19v-1.484c-.574.056-.686-.154-.686-.756v-2.464c0-1.722-1.204-2.744-3.332-2.744-2.1 0-3.332 1.036-3.332 2.786h2.044c0-.63.462-.994 1.26-.994.868 0 1.302.35 1.288.952v.224l-1.708.196c-2.016.238-3.178 1.064-3.178 2.394 0 1.106.784 2.17 2.66 2.17zm.42-1.54c-.644 0-.994-.294-.994-.742 0-.532.686-.728 2.002-.896l.714-.084c-.126.98-.728 1.722-1.722 1.722zm10.267 1.302v-1.834c-1.554.14-1.61.028-1.61-1.176v-2.366h1.904v-1.89h-1.904v-1.96h-2.072v1.96h-1.554v1.89h1.554v3.43c-.042 2.058 1.064 2.142 3.682 1.946zm1.914.014h2.072v-3.724c0-1.204.63-1.988 1.638-1.988.896 0 1.428.644 1.428 1.708V127h2.1v-3.724c0-1.204.63-1.988 1.638-1.988.896 0 1.428.644 1.428 1.708V127h2.114v-4.116c0-2.226-.896-3.388-2.716-3.388-1.12 0-2.114.392-2.828 1.386-.406-.924-1.176-1.386-2.338-1.386-1.162 0-1.974.49-2.464 1.274v-1.05h-2.072V127zm16.656.224c1.246 0 2.03-.56 2.394-1.47.182.994.98 1.554 2.59 1.19v-1.484c-.574.056-.686-.154-.686-.756v-2.464c0-1.722-1.204-2.744-3.332-2.744-2.1 0-3.332 1.036-3.332 2.786h2.044c0-.63.462-.994 1.26-.994.868 0 1.302.35 1.288.952v.224l-1.708.196c-2.016.238-3.178 1.064-3.178 2.394 0 1.106.784 2.17 2.66 2.17zm.42-1.54c-.644 0-.994-.294-.994-.742 0-.532.686-.728 2.002-.896l.714-.084c-.126.98-.728 1.722-1.722 1.722zm5.811 4.116h2.072v-3.752c.504.742 1.302 1.176 2.45 1.176 1.834 0 3.136-1.596 3.136-3.836 0-2.282-1.302-3.892-3.136-3.892-1.148 0-1.946.434-2.45 1.176v-.952h-2.072v10.08zm3.808-4.368c-1.022 0-1.75-.854-1.75-2.058 0-1.218.728-2.086 1.75-2.086 1.036 0 1.764.868 1.764 2.086 0 1.204-.728 2.058-1.764 2.058zm8.655 1.792c2.114 0 3.388-.896 3.388-2.338 0-3.164-4.648-1.666-4.648-3.08 0-.518.448-.868 1.218-.868.84 0 1.344.434 1.386 1.148h2.044c-.126-1.61-1.358-2.59-3.304-2.59-2.142 0-3.43.924-3.43 2.394 0 3.08 4.662 1.582 4.662 3.066 0 .434-.462.826-1.26.826-.868 0-1.498-.406-1.526-1.106h-2.058c.042 1.596 1.372 2.548 3.528 2.548z"/><rect width="3" height="29" x="548.56" y="142" fill="#FF88B9" opacity=".2" rx="1.5"/><circle cx="549.56" cy="190.5" r="6" stroke="#fff" stroke-width="3"/><path fill="#fff" d="M624.688 137.192c2.46 0 3.912-1.248 3.912-3.024 0-4.068-5.772-1.704-5.772-3.816 0-.744.624-1.176 1.764-1.176 1.116 0 1.764.516 1.836 1.392h2.064c0-1.92-1.596-3.12-3.864-3.12-2.292 0-3.732 1.128-3.732 2.928 0 3.972 5.76 1.656 5.76 3.816 0 .78-.684 1.272-1.92 1.272-1.26 0-1.98-.624-2.016-1.68h-2.1c0 2.148 1.668 3.408 4.068 3.408zm8.368 0c1.524 0 2.712-.864 2.904-2.22h-1.788c-.072.432-.48.768-1.104.768-.924 0-1.344-.528-1.428-1.332h4.344v-.576c0-1.992-1.272-3.264-2.928-3.264-1.908 0-3.228 1.368-3.228 3.3 0 1.944 1.32 3.324 3.228 3.324zm-1.404-3.876c.108-.72.492-1.212 1.332-1.212.756 0 1.176.516 1.212 1.212h-2.544zm8.79 6.276c2.16 0 3.3-.984 3.3-3.012v-5.82h-1.788v.792c-.42-.624-1.092-.984-2.088-.984-1.608 0-2.688 1.368-2.688 3.324 0 1.932 1.08 3.144 2.688 3.144.996 0 1.668-.324 2.088-.9v.444c.012 1.128-.444 1.668-1.428 1.668-.744 0-1.296-.24-1.356-.804h-1.788c.132 1.452 1.2 2.148 3.06 2.148zm.024-4.02c-.888 0-1.512-.72-1.512-1.752 0-1.044.624-1.788 1.512-1.788s1.5.744 1.5 1.788c0 1.032-.612 1.752-1.5 1.752zm4.848 1.428h1.776v-3.192c0-1.032.54-1.704 1.404-1.704.768 0 1.224.552 1.224 1.464V137h1.8v-3.192c0-1.032.54-1.704 1.404-1.704.768 0 1.224.552 1.224 1.464V137h1.812v-3.528c0-1.908-.768-2.904-2.328-2.904-.96 0-1.812.336-2.424 1.188-.348-.792-1.008-1.188-2.004-1.188s-1.692.42-2.112 1.092v-.9h-1.776V137zm15.129.192c1.524 0 2.712-.864 2.904-2.22h-1.788c-.072.432-.48.768-1.104.768-.924 0-1.344-.528-1.428-1.332h4.344v-.576c0-1.992-1.272-3.264-2.928-3.264-1.908 0-3.228 1.368-3.228 3.3 0 1.944 1.32 3.324 3.228 3.324zm-1.404-3.876c.108-.72.492-1.212 1.332-1.212.756 0 1.176.516 1.212 1.212h-2.544zm5.682 3.684h1.776v-3.192c0-1.032.54-1.704 1.404-1.704.768 0 1.224.552 1.224 1.464V137h1.8v-3.528c0-1.908-.756-2.904-2.316-2.904-.996 0-1.692.42-2.112 1.092v-.9h-1.776V137zm11.601-.012v-1.572c-1.332.12-1.38.024-1.38-1.008v-2.028h1.632v-1.62h-1.632v-1.68h-1.776v1.68h-1.332v1.62h1.332v2.94c-.036 1.764.912 1.836 3.156 1.668zm-59.691 16.204c.984 0 1.668-.372 2.1-1.008V153h1.788v-9.48h-1.788v4.056c-.432-.636-1.116-1.008-2.1-1.008-1.572 0-2.676 1.368-2.676 3.288 0 1.956 1.104 3.336 2.676 3.336zm.612-1.536c-.888 0-1.512-.744-1.512-1.788 0-1.032.624-1.764 1.512-1.764.876 0 1.5.732 1.5 1.764 0 1.044-.624 1.788-1.5 1.788zm7.85 1.536c1.524 0 2.712-.864 2.904-2.22h-1.788c-.072.432-.48.768-1.104.768-.924 0-1.344-.528-1.428-1.332h4.344v-.576c0-1.992-1.272-3.264-2.928-3.264-1.908 0-3.228 1.368-3.228 3.3 0 1.944 1.32 3.324 3.228 3.324zm-1.404-3.876c.108-.72.492-1.212 1.332-1.212.756 0 1.176.516 1.212 1.212h-2.544zm8.466 3.876c1.812 0 2.904-.768 2.904-2.004 0-2.712-3.984-1.428-3.984-2.64 0-.444.384-.744 1.044-.744.72 0 1.152.372 1.188.984h1.752c-.108-1.38-1.164-2.22-2.832-2.22-1.836 0-2.94.792-2.94 2.052 0 2.64 3.996 1.356 3.996 2.628 0 .372-.396.708-1.08.708-.744 0-1.284-.348-1.308-.948h-1.764c.036 1.368 1.176 2.184 3.024 2.184zm8.068-.204v-1.572c-1.332.12-1.38.024-1.38-1.008v-2.028h1.632v-1.62h-1.632v-1.68h-1.776v1.68h-1.332v1.62h1.332v2.94c-.036 1.764.912 1.836 3.156 1.668zm2.493-6.996c.648 0 1.128-.48 1.128-1.128 0-.648-.48-1.104-1.128-1.104-.66 0-1.14.456-1.14 1.104 0 .648.48 1.128 1.14 1.128zm-.9 7.008h1.788v-6.24h-1.788V153zm3.364 0h1.776v-3.192c0-1.032.54-1.704 1.404-1.704.768 0 1.224.552 1.224 1.464V153h1.8v-3.528c0-1.908-.756-2.904-2.316-2.904-.996 0-1.692.42-2.112 1.092v-.9h-1.776V153zm9.847.192c1.068 0 1.74-.48 2.052-1.26.156.852.84 1.332 2.22 1.02v-1.272c-.492.048-.588-.132-.588-.648v-2.112c0-1.476-1.032-2.352-2.856-2.352-1.8 0-2.856.888-2.856 2.388h1.752c0-.54.396-.852 1.08-.852.744 0 1.116.3 1.104.816v.192l-1.464.168c-1.728.204-2.724.912-2.724 2.052 0 .948.672 1.86 2.28 1.86zm.36-1.32c-.552 0-.852-.252-.852-.636 0-.456.588-.624 1.716-.768l.612-.072c-.108.84-.624 1.476-1.476 1.476zm8.801 1.116v-1.572c-1.332.12-1.38.024-1.38-1.008v-2.028h1.632v-1.62h-1.632v-1.68h-1.776v1.68H659.7v1.62h1.332v2.94c-.036 1.764.912 1.836 3.156 1.668zm2.493-6.996c.648 0 1.128-.48 1.128-1.128 0-.648-.48-1.104-1.128-1.104-.66 0-1.14.456-1.14 1.104 0 .648.48 1.128 1.14 1.128zm-.9 7.008h1.788v-6.24h-1.788V153zm6.448.192c1.956 0 3.336-1.38 3.336-3.324 0-1.932-1.38-3.3-3.336-3.3s-3.324 1.368-3.324 3.3c0 1.944 1.368 3.324 3.324 3.324zm0-1.536c-.9 0-1.536-.744-1.536-1.788 0-1.032.636-1.764 1.536-1.764.912 0 1.548.732 1.548 1.764 0 1.044-.636 1.788-1.548 1.788zm4.568 1.344h1.776v-3.192c0-1.032.54-1.704 1.404-1.704.768 0 1.224.552 1.224 1.464V153h1.8v-3.528c0-1.908-.756-2.904-2.316-2.904-.996 0-1.692.42-2.112 1.092v-.9h-1.776V153z"/><rect width="3" height="29" x="647.06" y="168" fill="#FF88B9" opacity=".2" rx="1.5"/><circle cx="648.56" cy="215.5" r="6" stroke="#fff" stroke-width="3"/><path fill="#fff" d="M724.629 137.192c2.148 0 3.996-1.356 4.368-3.72h-1.932c-.192 1.212-1.176 1.908-2.532 1.908-1.728 0-2.832-1.188-2.832-3.168 0-1.86 1.116-2.964 2.88-2.952 1.236.012 2.172.648 2.376 1.74h1.932c-.288-2.256-2.076-3.552-4.284-3.552-2.82 0-4.824 1.968-4.824 4.824 0 2.916 2.004 4.92 4.848 4.92zm5.717-.192h1.776v-9.48h-1.776V137zm4.251-7.008c.648 0 1.128-.48 1.128-1.128 0-.648-.48-1.104-1.128-1.104-.66 0-1.14.456-1.14 1.104 0 .648.48 1.128 1.14 1.128zm-.9 7.008h1.788v-6.24h-1.788V137zm6.352.192c1.536 0 2.724-1.02 2.904-2.46h-1.776c-.06.54-.54.924-1.2.924-.828 0-1.368-.744-1.368-1.788 0-1.032.54-1.764 1.368-1.764.636 0 1.116.396 1.2.948h1.776c-.18-1.452-1.368-2.484-2.904-2.484-1.92 0-3.228 1.368-3.228 3.3 0 1.944 1.308 3.324 3.228 3.324zm4.183-.192h1.776v-2.316l.48-.396 2.208 2.712h2.196l-3.192-3.744 2.952-2.496h-2.28l-2.364 2.028v-5.268h-1.776V137zm7.679 0h1.872v-4.008h4.536V137h1.872v-9.36h-1.872v3.552h-4.536v-3.552h-1.872V137zm13.077.192c1.956 0 3.336-1.38 3.336-3.324 0-1.932-1.38-3.3-3.336-3.3s-3.324 1.368-3.324 3.3c0 1.944 1.368 3.324 3.324 3.324zm0-1.536c-.9 0-1.536-.744-1.536-1.788 0-1.032.636-1.764 1.536-1.764.912 0 1.548.732 1.548 1.764 0 1.044-.636 1.788-1.548 1.788zm10.818-4.896h-1.776v3.192c0 1.032-.54 1.704-1.404 1.704-.768 0-1.224-.552-1.224-1.464v-3.432h-1.8v3.528c0 1.908.756 2.904 2.316 2.904.996 0 1.692-.42 2.112-1.092v.9h1.776v-6.24zm4.363 6.432c1.812 0 2.904-.768 2.904-2.004 0-2.712-3.984-1.428-3.984-2.64 0-.444.384-.744 1.044-.744.72 0 1.152.372 1.188.984h1.752c-.108-1.38-1.164-2.22-2.832-2.22-1.836 0-2.94.792-2.94 2.052 0 2.64 3.996 1.356 3.996 2.628 0 .372-.396.708-1.08.708-.744 0-1.284-.348-1.308-.948h-1.764c.036 1.368 1.176 2.184 3.024 2.184zm7.235 0c1.524 0 2.712-.864 2.904-2.22h-1.788c-.072.432-.48.768-1.104.768-.924 0-1.344-.528-1.428-1.332h4.344v-.576c0-1.992-1.272-3.264-2.928-3.264-1.908 0-3.228 1.368-3.228 3.3 0 1.944 1.32 3.324 3.228 3.324zM786 133.316c.108-.72.492-1.212 1.332-1.212.756 0 1.176.516 1.212 1.212H786zm-51.821 19.876c1.812 0 2.904-.768 2.904-2.004 0-2.712-3.984-1.428-3.984-2.64 0-.444.384-.744 1.044-.744.72 0 1.152.372 1.188.984h1.752c-.108-1.38-1.164-2.22-2.832-2.22-1.836 0-2.94.792-2.94 2.052 0 2.64 3.996 1.356 3.996 2.628 0 .372-.396.708-1.08.708-.744 0-1.284-.348-1.308-.948h-1.764c.036 1.368 1.176 2.184 3.024 2.184zm10.379-6.432h-1.776v3.192c0 1.032-.54 1.704-1.404 1.704-.768 0-1.224-.552-1.224-1.464v-3.432h-1.8v3.528c0 1.908.756 2.904 2.316 2.904.996 0 1.692-.42 2.112-1.092v.9h1.776v-6.24zm1.579 8.64h1.776v-3.216c.432.636 1.116 1.008 2.1 1.008 1.572 0 2.688-1.368 2.688-3.288 0-1.956-1.116-3.336-2.688-3.336-.984 0-1.668.372-2.1 1.008v-.816h-1.776v8.64zm3.264-3.744c-.876 0-1.5-.732-1.5-1.764 0-1.044.624-1.788 1.5-1.788.888 0 1.512.744 1.512 1.788 0 1.032-.624 1.764-1.512 1.764zm4.517 3.744h1.776v-3.216c.432.636 1.116 1.008 2.1 1.008 1.572 0 2.688-1.368 2.688-3.288 0-1.956-1.116-3.336-2.688-3.336-.984 0-1.668.372-2.1 1.008v-.816h-1.776v8.64zm3.264-3.744c-.876 0-1.5-.732-1.5-1.764 0-1.044.624-1.788 1.5-1.788.888 0 1.512.744 1.512 1.788 0 1.032-.624 1.764-1.512 1.764zm7.718 1.536c1.956 0 3.336-1.38 3.336-3.324 0-1.932-1.38-3.3-3.336-3.3s-3.324 1.368-3.324 3.3c0 1.944 1.368 3.324 3.324 3.324zm0-1.536c-.9 0-1.536-.744-1.536-1.788 0-1.032.636-1.764 1.536-1.764.912 0 1.548.732 1.548 1.764 0 1.044-.636 1.788-1.548 1.788zm4.569 1.344h1.752v-3.372c0-1.128 1.188-1.224 2.448-1.224v-1.716c-1.212 0-2.04.408-2.448 1.248v-1.176h-1.752V153zm9.199-.012v-1.572c-1.332.12-1.38.024-1.38-1.008v-2.028h1.632v-1.62h-1.632v-1.68h-1.776v1.68h-1.332v1.62h1.332v2.94c-.036 1.764.912 1.836 3.156 1.668z"/><rect width="3" height="29" x="753.56" y="168" fill="#FF88B9" opacity=".2" rx="1.5"/><circle cx="754.56" cy="219.5" r="6" stroke="#fff" stroke-width="3"/><path fill="#fff" d="M836.358 142.224c2.87 0 4.564-1.456 4.564-3.528 0-4.746-6.734-1.988-6.734-4.452 0-.868.728-1.372 2.058-1.372 1.302 0 2.058.602 2.142 1.624h2.408c0-2.24-1.862-3.64-4.508-3.64-2.674 0-4.354 1.316-4.354 3.416 0 4.634 6.72 1.932 6.72 4.452 0 .91-.798 1.484-2.24 1.484-1.47 0-2.31-.728-2.352-1.96h-2.45c0 2.506 1.946 3.976 4.746 3.976zm9.763 0c1.778 0 3.164-1.008 3.388-2.59h-2.086c-.084.504-.56.896-1.288.896-1.078 0-1.568-.616-1.666-1.554h5.068v-.672c0-2.324-1.484-3.808-3.416-3.808-2.226 0-3.766 1.596-3.766 3.85 0 2.268 1.54 3.878 3.766 3.878zm-1.638-4.522c.126-.84.574-1.414 1.554-1.414.882 0 1.372.602 1.414 1.414h-2.968zm9.877 4.522c2.114 0 3.388-.896 3.388-2.338 0-3.164-4.648-1.666-4.648-3.08 0-.518.448-.868 1.218-.868.84 0 1.344.434 1.386 1.148h2.044c-.126-1.61-1.358-2.59-3.304-2.59-2.142 0-3.43.924-3.43 2.394 0 3.08 4.662 1.582 4.662 3.066 0 .434-.462.826-1.26.826-.868 0-1.498-.406-1.526-1.106h-2.058c.042 1.596 1.372 2.548 3.528 2.548zm8.066 0c2.114 0 3.388-.896 3.388-2.338 0-3.164-4.648-1.666-4.648-3.08 0-.518.448-.868 1.218-.868.84 0 1.344.434 1.386 1.148h2.044c-.126-1.61-1.358-2.59-3.304-2.59-2.142 0-3.43.924-3.43 2.394 0 3.08 4.662 1.582 4.662 3.066 0 .434-.462.826-1.26.826-.868 0-1.498-.406-1.526-1.106h-2.058c.042 1.596 1.372 2.548 3.528 2.548zm5.991-8.4c.756 0 1.316-.56 1.316-1.316s-.56-1.288-1.316-1.288c-.77 0-1.33.532-1.33 1.288s.56 1.316 1.33 1.316zm-1.05 8.176h2.086v-7.28h-2.086V142zm7.522.224c2.282 0 3.892-1.61 3.892-3.878 0-2.254-1.61-3.85-3.892-3.85s-3.878 1.596-3.878 3.85c0 2.268 1.596 3.878 3.878 3.878zm0-1.792c-1.05 0-1.792-.868-1.792-2.086 0-1.204.742-2.058 1.792-2.058 1.064 0 1.806.854 1.806 2.058 0 1.218-.742 2.086-1.806 2.086zm5.33 1.568h2.072v-3.724c0-1.204.63-1.988 1.638-1.988.896 0 1.428.644 1.428 1.708V142h2.1v-4.116c0-2.226-.882-3.388-2.702-3.388-1.162 0-1.974.49-2.464 1.274v-1.05h-2.072V142zm-54.031 17h2.044v-3.934c0-1.316 1.386-1.428 2.856-1.428v-2.002c-1.414 0-2.38.476-2.856 1.456v-1.372h-2.044V159zm9.173.224c1.778 0 3.164-1.008 3.388-2.59h-2.086c-.084.504-.56.896-1.288.896-1.078 0-1.568-.616-1.666-1.554h5.068v-.672c0-2.324-1.484-3.808-3.416-3.808-2.226 0-3.766 1.596-3.766 3.85 0 2.268 1.54 3.878 3.766 3.878zm-1.638-4.522c.126-.84.574-1.414 1.554-1.414.882 0 1.372.602 1.414 1.414h-2.968zm10.115 4.522c1.792 0 3.178-1.19 3.388-2.87h-2.072c-.07.63-.63 1.078-1.4 1.078-.966 0-1.596-.868-1.596-2.086 0-1.204.63-2.058 1.596-2.058.742 0 1.302.462 1.4 1.106h2.072c-.21-1.694-1.596-2.898-3.388-2.898-2.24 0-3.766 1.596-3.766 3.85 0 2.268 1.526 3.878 3.766 3.878zm8.479 0c2.282 0 3.892-1.61 3.892-3.878 0-2.254-1.61-3.85-3.892-3.85s-3.878 1.596-3.878 3.85c0 2.268 1.596 3.878 3.878 3.878zm0-1.792c-1.05 0-1.792-.868-1.792-2.086 0-1.204.742-2.058 1.792-2.058 1.064 0 1.806.854 1.806 2.058 0 1.218-.742 2.086-1.806 2.086zm5.33 1.568h2.044v-3.934c0-1.316 1.386-1.428 2.856-1.428v-2.002c-1.414 0-2.38.476-2.856 1.456v-1.372h-2.044V159zm8.529.224c1.148 0 1.946-.434 2.45-1.176V159h2.086v-11.06h-2.086v4.732c-.504-.742-1.302-1.176-2.45-1.176-1.834 0-3.122 1.596-3.122 3.836 0 2.282 1.288 3.892 3.122 3.892zm.714-1.792c-1.036 0-1.764-.868-1.764-2.086 0-1.204.728-2.058 1.764-2.058 1.022 0 1.75.854 1.75 2.058 0 1.218-.728 2.086-1.75 2.086zm6.709-6.608c.756 0 1.316-.56 1.316-1.316s-.56-1.288-1.316-1.288c-.77 0-1.33.532-1.33 1.288s.56 1.316 1.33 1.316zm-1.05 8.176h2.086v-7.28h-2.086V159zm3.924 0h2.072v-3.724c0-1.204.63-1.988 1.638-1.988.896 0 1.428.644 1.428 1.708V159h2.1v-4.116c0-2.226-.882-3.388-2.702-3.388-1.162 0-1.974.49-2.464 1.274v-1.05h-2.072V159zm12.622 3.024c2.52 0 3.85-1.148 3.85-3.514v-6.79h-2.086v.924c-.49-.728-1.274-1.148-2.436-1.148-1.876 0-3.136 1.596-3.136 3.878 0 2.254 1.26 3.668 3.136 3.668 1.162 0 1.946-.378 2.436-1.05v.518c.014 1.316-.518 1.946-1.666 1.946-.868 0-1.512-.28-1.582-.938h-2.086c.154 1.694 1.4 2.506 3.57 2.506zm.028-4.69c-1.036 0-1.764-.84-1.764-2.044 0-1.218.728-2.086 1.764-2.086s1.75.868 1.75 2.086c0 1.204-.714 2.044-1.75 2.044z"/><rect width="3" height="29" x="858.06" y="174" fill="#FF88B9" opacity=".2" rx="1.5"/><circle cx="860.56" cy="216.5" r="6" stroke="#fff" stroke-width="3"/><path fill="#fff" d="M933.146 141h6.552v-1.632h-4.68v-7.728h-1.872V141zm8.701-7.008c.648 0 1.128-.48 1.128-1.128 0-.648-.48-1.104-1.128-1.104-.66 0-1.14.456-1.14 1.104 0 .648.48 1.128 1.14 1.128zm-.9 7.008h1.788v-6.24h-1.788V141zm4.228 0h1.788v-4.62h1.704v-1.62h-1.704v-.408c.012-.972.348-1.212 1.176-1.212h.408v-1.62h-.912c-1.62-.024-2.484 1.044-2.46 2.652v.588h-1.464v1.62h1.464V141zm7.256.192c1.524 0 2.712-.864 2.904-2.22h-1.788c-.072.432-.48.768-1.104.768-.924 0-1.344-.528-1.428-1.332h4.344v-.576c0-1.992-1.272-3.264-2.928-3.264-1.908 0-3.228 1.368-3.228 3.3 0 1.944 1.32 3.324 3.228 3.324zm-1.404-3.876c.108-.72.492-1.212 1.332-1.212.756 0 1.176.516 1.212 1.212h-2.544zm8.67 3.876c1.536 0 2.724-1.02 2.904-2.46h-1.776c-.06.54-.54.924-1.2.924-.828 0-1.368-.744-1.368-1.788 0-1.032.54-1.764 1.368-1.764.636 0 1.116.396 1.2.948h1.776c-.18-1.452-1.368-2.484-2.904-2.484-1.92 0-3.228 1.368-3.228 3.3 0 1.944 1.308 3.324 3.228 3.324zm3.917 2.208h.768c1.536 0 2.592-.42 3.228-1.944l2.556-6.696h-1.872l-1.548 4.164-1.776-4.164h-1.872l2.712 6.336c-.396.564-.804.744-1.584.732h-.612v1.572zm10.263-2.208c1.536 0 2.724-1.02 2.904-2.46h-1.776c-.06.54-.54.924-1.2.924-.828 0-1.368-.744-1.368-1.788 0-1.032.54-1.764 1.368-1.764.636 0 1.116.396 1.2.948h1.776c-.18-1.452-1.368-2.484-2.904-2.484-1.92 0-3.228 1.368-3.228 3.3 0 1.944 1.308 3.324 3.228 3.324zm4.184-.192h1.776v-9.48h-1.776V141zm6.351.192c1.524 0 2.712-.864 2.904-2.22h-1.788c-.072.432-.48.768-1.104.768-.924 0-1.344-.528-1.428-1.332h4.344v-.576c0-1.992-1.272-3.264-2.928-3.264-1.908 0-3.228 1.368-3.228 3.3 0 1.944 1.32 3.324 3.228 3.324zm-1.404-3.876c.108-.72.492-1.212 1.332-1.212.756 0 1.176.516 1.212 1.212h-2.544zm-45.222 19.876c1.068 0 1.74-.48 2.052-1.26.156.852.84 1.332 2.22 1.02v-1.272c-.492.048-.588-.132-.588-.648v-2.112c0-1.476-1.032-2.352-2.856-2.352-1.8 0-2.856.888-2.856 2.388h1.752c0-.54.396-.852 1.08-.852.744 0 1.116.3 1.104.816v.192l-1.464.168c-1.728.204-2.724.912-2.724 2.052 0 .948.672 1.86 2.28 1.86zm.36-1.32c-.552 0-.852-.252-.852-.636 0-.456.588-.624 1.716-.768l.612-.072c-.108.84-.624 1.476-1.476 1.476zm4.981 1.128h1.776v-3.192c0-1.032.54-1.704 1.404-1.704.768 0 1.224.552 1.224 1.464V157h1.8v-3.528c0-1.908-.756-2.904-2.316-2.904-.996 0-1.692.42-2.112 1.092v-.9h-1.776V157zm9.847.192c1.068 0 1.74-.48 2.052-1.26.156.852.84 1.332 2.22 1.02v-1.272c-.492.048-.588-.132-.588-.648v-2.112c0-1.476-1.032-2.352-2.856-2.352-1.8 0-2.856.888-2.856 2.388h1.752c0-.54.396-.852 1.08-.852.744 0 1.116.3 1.104.816v.192l-1.464.168c-1.728.204-2.724.912-2.724 2.052 0 .948.672 1.86 2.28 1.86zm.36-1.32c-.552 0-.852-.252-.852-.636 0-.456.588-.624 1.716-.768l.612-.072c-.108.84-.624 1.476-1.476 1.476zm5.051 1.128h1.776v-9.48h-1.776V157zm3.096 2.4h.768c1.536 0 2.592-.42 3.228-1.944l2.556-6.696h-1.872l-1.548 4.164-1.776-4.164h-1.872l2.712 6.336c-.396.564-.804.744-1.584.732h-.612v1.572zm9.942-2.208c1.812 0 2.904-.768 2.904-2.004 0-2.712-3.984-1.428-3.984-2.64 0-.444.384-.744 1.044-.744.72 0 1.152.372 1.188.984h1.752c-.108-1.38-1.164-2.22-2.832-2.22-1.836 0-2.94.792-2.94 2.052 0 2.64 3.996 1.356 3.996 2.628 0 .372-.396.708-1.08.708-.744 0-1.284-.348-1.308-.948h-1.764c.036 1.368 1.176 2.184 3.024 2.184zm5.135-7.2c.648 0 1.128-.48 1.128-1.128 0-.648-.48-1.104-1.128-1.104-.66 0-1.14.456-1.14 1.104 0 .648.48 1.128 1.14 1.128zm-.9 7.008h1.788v-6.24h-1.788V157zm6.147.192c1.812 0 2.904-.768 2.904-2.004 0-2.712-3.984-1.428-3.984-2.64 0-.444.384-.744 1.044-.744.72 0 1.152.372 1.188.984h1.752c-.108-1.38-1.164-2.22-2.832-2.22-1.836 0-2.94.792-2.94 2.052 0 2.64 3.996 1.356 3.996 2.628 0 .372-.396.708-1.08.708-.744 0-1.284-.348-1.308-.948h-1.764c.036 1.368 1.176 2.184 3.024 2.184z"/><rect width="3" height="29" x="958.56" y="172" fill="#FF88B9" opacity=".2" rx="1.5"/><circle cx="959.56" cy="223.5" r="6" stroke="#fff" stroke-width="3"/><path fill="#fff" d="M1067.27 134h2.19v-3.864h2.94c2.42 0 3.78-1.47 3.78-3.626 0-2.156-1.36-3.43-3.78-3.43h-5.13V134zm2.19-5.964v-2.842h2.4c1.35 0 2.06.532 2.06 1.414 0 .896-.68 1.428-1.99 1.428h-2.47zm8.05 5.964h2.07v-11.06h-2.07V134zm11.08-7.28h-2.08v3.724c0 1.204-.63 1.988-1.63 1.988-.9 0-1.43-.644-1.43-1.708v-4.004h-2.1v4.116c0 2.226.88 3.388 2.7 3.388 1.16 0 1.97-.49 2.46-1.274V134h2.08v-7.28zm5.46 10.304c2.52 0 3.85-1.148 3.85-3.514v-6.79h-2.08v.924c-.49-.728-1.28-1.148-2.44-1.148-1.87 0-3.13 1.596-3.13 3.878 0 2.254 1.26 3.668 3.13 3.668 1.16 0 1.95-.378 2.44-1.05v.518c.01 1.316-.52 1.946-1.67 1.946-.87 0-1.51-.28-1.58-.938h-2.09c.16 1.694 1.4 2.506 3.57 2.506zm.03-4.69c-1.03 0-1.76-.84-1.76-2.044 0-1.218.73-2.086 1.76-2.086 1.04 0 1.75.868 1.75 2.086 0 1.204-.71 2.044-1.75 2.044zm6.7-6.51c.75 0 1.31-.56 1.31-1.316s-.56-1.288-1.31-1.288c-.77 0-1.33.532-1.33 1.288s.56 1.316 1.33 1.316zm-1.05 8.176h2.08v-7.28h-2.08V134zm3.92 0h2.07v-3.724c0-1.204.63-1.988 1.64-1.988.9 0 1.43.644 1.43 1.708V134h2.1v-4.116c0-2.226-.88-3.388-2.7-3.388-1.17 0-1.98.49-2.47 1.274v-1.05h-2.07V134zm12.24.224c2.12 0 3.39-.896 3.39-2.338 0-3.164-4.65-1.666-4.65-3.08 0-.518.45-.868 1.22-.868.84 0 1.35.434 1.39 1.148h2.04c-.12-1.61-1.36-2.59-3.3-2.59-2.14 0-3.43.924-3.43 2.394 0 3.08 4.66 1.582 4.66 3.066 0 .434-.46.826-1.26.826-.87 0-1.5-.406-1.53-1.106h-2.05c.04 1.596 1.37 2.548 3.52 2.548z"/><rect width="3" height="29" x="1091.56" y="149" fill="#FF88B9" opacity=".2" rx="1.5"/><circle cx="1092.56" cy="195.5" r="6" stroke="#fff" stroke-width="3"/><g opacity=".5"><path fill="#fff" d="M1282.69 151.182c3.01.028 4.8-1.764 4.8-4.816v-6.286h-2.18v6.272c0 1.708-.97 2.716-2.62 2.716-1.65 0-2.63-1.008-2.63-2.716v-6.272h-2.17v6.286c0 2.996 1.78 4.788 4.8 4.816zm9.94.042c2.12 0 3.39-.896 3.39-2.338 0-3.164-4.65-1.666-4.65-3.08 0-.518.45-.868 1.22-.868.84 0 1.34.434 1.39 1.148h2.04c-.13-1.61-1.36-2.59-3.3-2.59-2.15 0-3.43.924-3.43 2.394 0 3.08 4.66 1.582 4.66 3.066 0 .434-.46.826-1.26.826-.87 0-1.5-.406-1.53-1.106h-2.06c.05 1.596 1.38 2.548 3.53 2.548zm8.44 0c1.78 0 3.17-1.008 3.39-2.59h-2.08c-.09.504-.56.896-1.29.896-1.08 0-1.57-.616-1.67-1.554h5.07v-.672c0-2.324-1.48-3.808-3.42-3.808-2.22 0-3.76 1.596-3.76 3.85 0 2.268 1.54 3.878 3.76 3.878zm-1.63-4.522c.12-.84.57-1.414 1.55-1.414.88 0 1.37.602 1.41 1.414h-2.96zm6.62 4.298h2.05v-3.934c0-1.316 1.38-1.428 2.85-1.428v-2.002c-1.41 0-2.38.476-2.85 1.456v-1.372h-2.05V151zm-43.61 17h2.08v-5.39h1.99v-1.89h-1.99v-.476c.02-1.134.41-1.414 1.38-1.414h.47v-1.89h-1.06c-1.89-.028-2.9 1.218-2.87 3.094v.686h-1.71v1.89h1.71V168zm8.46.224c1.78 0 3.17-1.008 3.39-2.59h-2.08c-.09.504-.56.896-1.29.896-1.08 0-1.57-.616-1.67-1.554h5.07v-.672c0-2.324-1.48-3.808-3.42-3.808-2.22 0-3.76 1.596-3.76 3.85 0 2.268 1.54 3.878 3.76 3.878zm-1.63-4.522c.12-.84.57-1.414 1.55-1.414.88 0 1.37.602 1.41 1.414h-2.96zm10.11 4.522c1.78 0 3.16-1.008 3.39-2.59h-2.09c-.08.504-.56.896-1.29.896-1.07 0-1.56-.616-1.66-1.554h5.07v-.672c0-2.324-1.49-3.808-3.42-3.808-2.23 0-3.77 1.596-3.77 3.85 0 2.268 1.54 3.878 3.77 3.878zm-1.64-4.522c.13-.84.58-1.414 1.56-1.414.88 0 1.37.602 1.41 1.414h-2.97zm9.47 4.522c1.15 0 1.95-.434 2.45-1.176V168h2.09v-11.06h-2.09v4.732c-.5-.742-1.3-1.176-2.45-1.176-1.83 0-3.12 1.596-3.12 3.836 0 2.282 1.29 3.892 3.12 3.892zm.72-1.792c-1.04 0-1.77-.868-1.77-2.086 0-1.204.73-2.058 1.77-2.058 1.02 0 1.75.854 1.75 2.058 0 1.218-.73 2.086-1.75 2.086zm10.19 1.792c1.84 0 3.14-1.61 3.14-3.892 0-2.24-1.3-3.836-3.14-3.836-1.15 0-1.94.434-2.45 1.176v-4.732h-2.07V168h2.07v-.952c.51.742 1.3 1.176 2.45 1.176zm-.71-1.792c-1.02 0-1.75-.868-1.75-2.086 0-1.204.73-2.058 1.75-2.058 1.03 0 1.76.854 1.76 2.058 0 1.218-.73 2.086-1.76 2.086zm7.66 1.792c1.25 0 2.03-.56 2.4-1.47.18.994.98 1.554 2.59 1.19v-1.484c-.58.056-.69-.154-.69-.756v-2.464c0-1.722-1.2-2.744-3.33-2.744-2.1 0-3.33 1.036-3.33 2.786h2.04c0-.63.46-.994 1.26-.994.87 0 1.3.35 1.29.952v.224l-1.71.196c-2.01.238-3.18 1.064-3.18 2.394 0 1.106.79 2.17 2.66 2.17zm.42-1.54c-.64 0-.99-.294-.99-.742 0-.532.69-.728 2-.896l.72-.084c-.13.98-.73 1.722-1.73 1.722zm9.34 1.54c1.79 0 3.18-1.19 3.39-2.87h-2.07c-.07.63-.63 1.078-1.4 1.078-.97 0-1.6-.868-1.6-2.086 0-1.204.63-2.058 1.6-2.058.74 0 1.3.462 1.4 1.106h2.07c-.21-1.694-1.6-2.898-3.39-2.898-2.24 0-3.76 1.596-3.76 3.85 0 2.268 1.52 3.878 3.76 3.878zm4.88-.224h2.07v-2.702l.56-.462 2.58 3.164h2.56l-3.72-4.368 3.44-2.912h-2.66l-2.76 2.366v-6.146h-2.07V168z"/><rect width="3" height="29" x="1292.56" y="183" fill="#FF88B9" opacity=".2" rx="1.5"/><circle cx="1293.56" cy="231.5" r="6" stroke="#fff" stroke-width="3"/></g><g opacity=".5"><path fill="#fff" d="M1203.08 136h2.35l1.01-2.31h5.39l.99 2.31h2.36l-4.83-10.92h-2.44l-4.83 10.92zm4.27-4.424l1.79-4.088 1.78 4.088h-3.57zm11.93 4.424l7.93-11.06h-2.68l-7.92 11.06h2.67zm17.11-5.726c.98-.35 1.57-1.232 1.57-2.422 0-1.764-1.29-2.772-3.41-2.772h-5.06V136h5.43c2.06 0 3.5-1.288 3.5-3.052 0-1.33-.69-2.38-2.03-2.674zm-4.72-3.08h2.1c1.34 0 1.97.266 1.97 1.12 0 .798-.6 1.176-1.9 1.176h-2.17v-2.296zm2.51 6.692h-2.51v-2.506h2.56c1.33 0 1.95.378 1.95 1.204 0 .868-.63 1.302-2 1.302zm-33.29 19.1v-1.834c-1.56.14-1.61.028-1.61-1.176v-2.366h1.9v-1.89h-1.9v-1.96h-2.07v1.96h-1.56v1.89h1.56v3.43c-.05 2.058 1.06 2.142 3.68 1.946zm5.12.238c1.78 0 3.17-1.008 3.39-2.59h-2.08c-.09.504-.56.896-1.29.896-1.08 0-1.57-.616-1.67-1.554h5.07v-.672c0-2.324-1.48-3.808-3.42-3.808-2.22 0-3.76 1.596-3.76 3.85 0 2.268 1.54 3.878 3.76 3.878zm-1.63-4.522c.12-.84.57-1.414 1.55-1.414.88 0 1.37.602 1.41 1.414h-2.96zm9.87 4.522c2.12 0 3.39-.896 3.39-2.338 0-3.164-4.65-1.666-4.65-3.08 0-.518.45-.868 1.22-.868.84 0 1.35.434 1.39 1.148h2.04c-.12-1.61-1.36-2.59-3.3-2.59-2.14 0-3.43.924-3.43 2.394 0 3.08 4.66 1.582 4.66 3.066 0 .434-.46.826-1.26.826-.87 0-1.5-.406-1.53-1.106h-2.05c.04 1.596 1.37 2.548 3.52 2.548zm9.42-.238v-1.834c-1.56.14-1.61.028-1.61-1.176v-2.366h1.9v-1.89h-1.9v-1.96h-2.08v1.96h-1.55v1.89h1.55v3.43c-.04 2.058 1.07 2.142 3.69 1.946zm2.9-8.162c.76 0 1.32-.56 1.32-1.316s-.56-1.288-1.32-1.288c-.77 0-1.33.532-1.33 1.288s.56 1.316 1.33 1.316zm-1.05 8.176h2.09v-7.28h-2.09V153zm3.93 0h2.07v-3.724c0-1.204.63-1.988 1.64-1.988.89 0 1.43.644 1.43 1.708V153h2.1v-4.116c0-2.226-.89-3.388-2.71-3.388-1.16 0-1.97.49-2.46 1.274v-1.05h-2.07V153zm12.62 3.024c2.52 0 3.85-1.148 3.85-3.514v-6.79h-2.09v.924c-.49-.728-1.27-1.148-2.43-1.148-1.88 0-3.14 1.596-3.14 3.878 0 2.254 1.26 3.668 3.14 3.668 1.16 0 1.94-.378 2.43-1.05v.518c.02 1.316-.51 1.946-1.66 1.946-.87 0-1.51-.28-1.58-.938h-2.09c.15 1.694 1.4 2.506 3.57 2.506zm.03-4.69c-1.04 0-1.77-.84-1.77-2.044 0-1.218.73-2.086 1.77-2.086 1.03 0 1.75.868 1.75 2.086 0 1.204-.72 2.044-1.75 2.044z"/><rect width="3" height="29" x="1219.56" y="168" fill="#FF88B9" opacity=".2" rx="1.5"/><circle cx="1220.56" cy="219.5" r="6" stroke="#fff" stroke-width="3"/></g><g opacity=".5"><path fill="#fff" d="M1370.45 136h1.87v-3.48h2.06c1.18 0 1.33.24 1.48 1.404.12.864.17 1.512.41 2.076h1.98v-.12c-.38-.864-.26-1.152-.47-2.496-.13-.828-.46-1.26-1.11-1.452.89-.396 1.41-1.176 1.41-2.352 0-1.848-1.16-2.94-3.24-2.94h-4.39V136zm1.87-5.112v-2.436h2.15c1.15 0 1.68.456 1.68 1.212 0 .768-.5 1.224-1.62 1.224h-2.21zm10.26 5.304c1.52 0 2.71-.864 2.9-2.22h-1.79c-.07.432-.48.768-1.1.768-.92 0-1.34-.528-1.43-1.332h4.35v-.576c0-1.992-1.28-3.264-2.93-3.264-1.91 0-3.23 1.368-3.23 3.3 0 1.944 1.32 3.324 3.23 3.324zm-1.41-3.876c.11-.72.5-1.212 1.34-1.212.75 0 1.17.516 1.21 1.212h-2.55zm7.32 3.684h1.93l2.51-6.24h-1.86l-1.61 4.176-1.61-4.176h-1.86l2.5 6.24zm7.93.192c1.52 0 2.71-.864 2.9-2.22h-1.79c-.07.432-.48.768-1.1.768-.92 0-1.34-.528-1.43-1.332h4.35v-.576c0-1.992-1.28-3.264-2.93-3.264-1.91 0-3.23 1.368-3.23 3.3 0 1.944 1.32 3.324 3.23 3.324zm-1.41-3.876c.11-.72.5-1.212 1.34-1.212.75 0 1.17.516 1.21 1.212h-2.55zm5.69 3.684h1.77v-3.192c0-1.032.54-1.704 1.41-1.704.76 0 1.22.552 1.22 1.464V136h1.8v-3.528c0-1.908-.76-2.904-2.32-2.904-.99 0-1.69.42-2.11 1.092v-.9h-1.77V136zm13.84-6.24h-1.78v3.192c0 1.032-.54 1.704-1.4 1.704-.77 0-1.23-.552-1.23-1.464v-3.432h-1.8v3.528c0 1.908.76 2.904 2.32 2.904 1 0 1.69-.42 2.11-1.092v.9h1.78v-6.24zm4.57 6.432c1.52 0 2.71-.864 2.9-2.22h-1.79c-.07.432-.48.768-1.1.768-.93 0-1.35-.528-1.43-1.332h4.34v-.576c0-1.992-1.27-3.264-2.92-3.264-1.91 0-3.23 1.368-3.23 3.3 0 1.944 1.32 3.324 3.23 3.324zm-1.41-3.876c.11-.72.49-1.212 1.33-1.212.76 0 1.18.516 1.22 1.212h-2.55zm-42.64 19.672v-1.572c-1.33.12-1.38.024-1.38-1.008v-2.028h1.63v-1.62h-1.63v-1.68h-1.78v1.68h-1.33v1.62h1.33v2.94c-.03 1.764.92 1.836 3.16 1.668zm1.64.012h1.75v-3.372c0-1.128 1.19-1.224 2.45-1.224v-1.716c-1.21 0-2.04.408-2.45 1.248v-1.176h-1.75V152zm6.93.192c1.07 0 1.74-.48 2.05-1.26.16.852.84 1.332 2.22 1.02v-1.272c-.49.048-.59-.132-.59-.648v-2.112c0-1.476-1.03-2.352-2.85-2.352-1.8 0-2.86.888-2.86 2.388h1.75c0-.54.4-.852 1.08-.852.75 0 1.12.3 1.11.816v.192l-1.47.168c-1.72.204-2.72.912-2.72 2.052 0 .948.67 1.86 2.28 1.86zm.36-1.32c-.55 0-.85-.252-.85-.636 0-.456.59-.624 1.71-.768l.62-.072c-.11.84-.63 1.476-1.48 1.476zm8 1.32c1.54 0 2.73-1.02 2.91-2.46h-1.78c-.06.54-.54.924-1.2.924-.83 0-1.37-.744-1.37-1.788 0-1.032.54-1.764 1.37-1.764.64 0 1.12.396 1.2.948h1.78c-.18-1.452-1.37-2.484-2.91-2.484-1.92 0-3.22 1.368-3.22 3.3 0 1.944 1.3 3.324 3.22 3.324zm4.19-.192h1.77v-2.316l.48-.396 2.21 2.712h2.2l-3.19-3.744 2.95-2.496h-2.28l-2.37 2.028v-5.268h-1.77V152zm8.32-7.008c.64 0 1.12-.48 1.12-1.128 0-.648-.48-1.104-1.12-1.104-.66 0-1.14.456-1.14 1.104 0 .648.48 1.128 1.14 1.128zm-.9 7.008h1.78v-6.24h-1.78V152zm3.36 0h1.77v-3.192c0-1.032.54-1.704 1.41-1.704.77 0 1.22.552 1.22 1.464V152h1.8v-3.528c0-1.908-.75-2.904-2.31-2.904-1 0-1.7.42-2.12 1.092v-.9h-1.77V152zm10.82 2.592c2.16 0 3.3-.984 3.3-3.012v-5.82h-1.79v.792c-.42-.624-1.09-.984-2.09-.984-1.61 0-2.69 1.368-2.69 3.324 0 1.932 1.08 3.144 2.69 3.144 1 0 1.67-.324 2.09-.9v.444c.01 1.128-.44 1.668-1.43 1.668-.74 0-1.29-.24-1.35-.804h-1.79c.13 1.452 1.2 2.148 3.06 2.148zm.02-4.02c-.89 0-1.51-.72-1.51-1.752 0-1.044.62-1.788 1.51-1.788s1.5.744 1.5 1.788c0 1.032-.61 1.752-1.5 1.752z"/><rect width="3" height="29" x="1394.56" y="167" fill="#FF88B9" opacity=".2" rx="1.5"/><circle cx="1393.56" cy="224.5" r="6" stroke="#fff" stroke-width="3"/></g><path fill="#fff" d="M307.402 105h1.872v-3.48h2.052c1.188 0 1.332.24 1.488 1.404.12.864.168 1.512.408 2.076h1.98v-.12c-.384-.864-.264-1.152-.468-2.496-.132-.828-.468-1.26-1.116-1.452.888-.396 1.416-1.176 1.416-2.352 0-1.848-1.164-2.94-3.24-2.94h-4.392V105zm1.872-5.112v-2.436h2.148c1.152 0 1.68.456 1.68 1.212 0 .768-.504 1.224-1.62 1.224h-2.208zm10.253 5.304c1.524 0 2.712-.864 2.904-2.22h-1.788c-.072.432-.48.768-1.104.768-.924 0-1.344-.528-1.428-1.332h4.344v-.576c0-1.992-1.272-3.264-2.928-3.264-1.908 0-3.228 1.368-3.228 3.3 0 1.944 1.32 3.324 3.228 3.324zm-1.404-3.876c.108-.72.492-1.212 1.332-1.212.756 0 1.176.516 1.212 1.212h-2.544zm7.701 3.876c1.068 0 1.74-.48 2.052-1.26.156.852.84 1.332 2.22 1.02v-1.272c-.492.048-.588-.132-.588-.648v-2.112c0-1.476-1.032-2.352-2.856-2.352-1.8 0-2.856.888-2.856 2.388h1.752c0-.54.396-.852 1.08-.852.744 0 1.116.3 1.104.816v.192l-1.464.168c-1.728.204-2.724.912-2.724 2.052 0 .948.672 1.86 2.28 1.86zm.36-1.32c-.552 0-.852-.252-.852-.636 0-.456.588-.624 1.716-.768l.612-.072c-.108.84-.624 1.476-1.476 1.476zm8.003 1.32c1.536 0 2.724-1.02 2.904-2.46h-1.776c-.06.54-.54.924-1.2.924-.828 0-1.368-.744-1.368-1.788 0-1.032.54-1.764 1.368-1.764.636 0 1.116.396 1.2.948h1.776c-.18-1.452-1.368-2.484-2.904-2.484-1.92 0-3.228 1.368-3.228 3.3 0 1.944 1.308 3.324 3.228 3.324zm8.122-.204v-1.572c-1.332.12-1.38.024-1.38-1.008v-2.028h1.632v-1.62h-1.632v-1.68h-1.776v1.68h-1.332v1.62h1.332v2.94c-.036 1.764.912 1.836 3.156 1.668zm5.238.012h1.776v-3.192c0-1.032.54-1.704 1.404-1.704.768 0 1.224.552 1.224 1.464V105h1.8v-3.528c0-1.908-.756-2.904-2.316-2.904-.996 0-1.692.42-2.112 1.092v-.9h-1.776V105zm9.847.192c1.068 0 1.74-.48 2.052-1.26.156.852.84 1.332 2.22 1.02v-1.272c-.492.048-.588-.132-.588-.648v-2.112c0-1.476-1.032-2.352-2.856-2.352-1.8 0-2.856.888-2.856 2.388h1.752c0-.54.396-.852 1.08-.852.744 0 1.116.3 1.104.816v.192l-1.464.168c-1.728.204-2.724.912-2.724 2.052 0 .948.672 1.86 2.28 1.86zm.36-1.32c-.552 0-.852-.252-.852-.636 0-.456.588-.624 1.716-.768l.612-.072c-.108.84-.624 1.476-1.476 1.476zm8.801 1.116v-1.572c-1.332.12-1.38.024-1.38-1.008v-2.028h1.632v-1.62h-1.632v-1.68h-1.776v1.68h-1.332v1.62h1.332v2.94c-.036 1.764.912 1.836 3.156 1.668zm2.493-6.996c.648 0 1.128-.48 1.128-1.128 0-.648-.48-1.104-1.128-1.104-.66 0-1.14.456-1.14 1.104 0 .648.48 1.128 1.14 1.128zm-.9 7.008h1.788v-6.24h-1.788V105zm5.076 0h1.932l2.508-6.24h-1.86l-1.608 4.176-1.608-4.176h-1.86l2.496 6.24zm7.932.192c1.524 0 2.712-.864 2.904-2.22h-1.788c-.072.432-.48.768-1.104.768-.924 0-1.344-.528-1.428-1.332h4.344v-.576c0-1.992-1.272-3.264-2.928-3.264-1.908 0-3.228 1.368-3.228 3.3 0 1.944 1.32 3.324 3.228 3.324zm-1.404-3.876c.108-.72.492-1.212 1.332-1.212.756 0 1.176.516 1.212 1.212h-2.544zm-55.073 19.876c1.812 0 2.904-.768 2.904-2.004 0-2.712-3.984-1.428-3.984-2.64 0-.444.384-.744 1.044-.744.72 0 1.152.372 1.188.984h1.752c-.108-1.38-1.164-2.22-2.832-2.22-1.836 0-2.94.792-2.94 2.052 0 2.64 3.996 1.356 3.996 2.628 0 .372-.396.708-1.08.708-.744 0-1.284-.348-1.308-.948h-1.764c.036 1.368 1.176 2.184 3.024 2.184zm10.379-6.432h-1.776v3.192c0 1.032-.54 1.704-1.404 1.704-.768 0-1.224-.552-1.224-1.464v-3.432h-1.8v3.528c0 1.908.756 2.904 2.316 2.904.996 0 1.692-.42 2.112-1.092v.9h1.776v-6.24zm1.579 8.64h1.776v-3.216c.432.636 1.116 1.008 2.1 1.008 1.572 0 2.688-1.368 2.688-3.288 0-1.956-1.116-3.336-2.688-3.336-.984 0-1.668.372-2.1 1.008v-.816h-1.776v8.64zm3.264-3.744c-.876 0-1.5-.732-1.5-1.764 0-1.044.624-1.788 1.5-1.788.888 0 1.512.744 1.512 1.788 0 1.032-.624 1.764-1.512 1.764zm4.517 3.744h1.776v-3.216c.432.636 1.116 1.008 2.1 1.008 1.572 0 2.688-1.368 2.688-3.288 0-1.956-1.116-3.336-2.688-3.336-.984 0-1.668.372-2.1 1.008v-.816h-1.776v8.64zm3.264-3.744c-.876 0-1.5-.732-1.5-1.764 0-1.044.624-1.788 1.5-1.788.888 0 1.512.744 1.512 1.788 0 1.032-.624 1.764-1.512 1.764zm7.718 1.536c1.956 0 3.336-1.38 3.336-3.324 0-1.932-1.38-3.3-3.336-3.3s-3.324 1.368-3.324 3.3c0 1.944 1.368 3.324 3.324 3.324zm0-1.536c-.9 0-1.536-.744-1.536-1.788 0-1.032.636-1.764 1.536-1.764.912 0 1.548.732 1.548 1.764 0 1.044-.636 1.788-1.548 1.788zm4.569 1.344h1.752v-3.372c0-1.128 1.188-1.224 2.448-1.224v-1.716c-1.212 0-2.04.408-2.448 1.248v-1.176h-1.752V121zm9.199-.012v-1.572c-1.332.12-1.38.024-1.38-1.008v-2.028h1.632v-1.62h-1.632v-1.68h-1.776v1.68h-1.332v1.62h1.332v2.94c-.036 1.764.912 1.836 3.156 1.668z"/><rect width="3" height="29" x="344.06" y="136" fill="#FF88B9" opacity=".2" rx="1.5"/><circle cx="345.56" cy="184.5" r="6" stroke="#fff" stroke-width="3"/><path fill="#fff" d="M202.945 114.992c.648 0 1.128-.48 1.128-1.128 0-.648-.48-1.104-1.128-1.104-.66 0-1.14.456-1.14 1.104 0 .648.48 1.128 1.14 1.128zm-.9 7.008h1.788v-6.24h-1.788V122zm7.947.192c2.868 0 4.752-2.004 4.752-4.92 0-2.856-1.884-4.824-4.752-4.824-2.916 0-4.824 1.968-4.824 4.824 0 2.916 1.908 4.92 4.824 4.92zm0-1.812c-1.788 0-2.904-1.188-2.904-3.168 0-1.836 1.116-2.952 2.904-2.952 1.74 0 2.82 1.116 2.82 2.952 0 1.98-1.08 3.168-2.82 3.168zm10.005 1.812c2.46 0 3.912-1.248 3.912-3.024 0-4.068-5.772-1.704-5.772-3.816 0-.744.624-1.176 1.764-1.176 1.116 0 1.764.516 1.836 1.392h2.064c0-1.92-1.596-3.12-3.864-3.12-2.292 0-3.732 1.128-3.732 2.928 0 3.972 5.76 1.656 5.76 3.816 0 .78-.684 1.272-1.92 1.272-1.26 0-1.98-.624-2.016-1.68h-2.1c0 2.148 1.668 3.408 4.068 3.408zm4.915 1.044h1.224l1.416-2.976h-1.908l-.732 2.976zm6.884-1.236h2.016l.864-1.98h4.62l.852 1.98h2.016l-4.14-9.36h-2.088l-4.14 9.36zm3.66-3.792l1.536-3.504 1.524 3.504h-3.06zm7.698 3.792h1.776v-3.192c0-1.032.54-1.704 1.404-1.704.768 0 1.224.552 1.224 1.464V122h1.8v-3.528c0-1.908-.756-2.904-2.316-2.904-.996 0-1.692.42-2.112 1.092v-.9h-1.776V122zm10.147.192c.984 0 1.668-.372 2.1-1.008V122h1.788v-9.48h-1.788v4.056c-.432-.636-1.116-1.008-2.1-1.008-1.572 0-2.676 1.368-2.676 3.288 0 1.956 1.104 3.336 2.676 3.336zm.612-1.536c-.888 0-1.512-.744-1.512-1.788 0-1.032.624-1.764 1.512-1.764.876 0 1.5.732 1.5 1.764 0 1.044-.624 1.788-1.5 1.788zm4.862 1.344h1.752v-3.372c0-1.128 1.188-1.224 2.448-1.224v-1.716c-1.212 0-2.04.408-2.448 1.248v-1.176h-1.752V122zm7.959.192c1.956 0 3.336-1.38 3.336-3.324 0-1.932-1.38-3.3-3.336-3.3s-3.324 1.368-3.324 3.3c0 1.944 1.368 3.324 3.324 3.324zm0-1.536c-.9 0-1.536-.744-1.536-1.788 0-1.032.636-1.764 1.536-1.764.912 0 1.548.732 1.548 1.764 0 1.044-.636 1.788-1.548 1.788zm5.539-5.664c.648 0 1.128-.48 1.128-1.128 0-.648-.48-1.104-1.128-1.104-.66 0-1.14.456-1.14 1.104 0 .648.48 1.128 1.14 1.128zm-.9 7.008h1.788v-6.24h-1.788V122zm5.799.192c.984 0 1.668-.372 2.1-1.008V122h1.788v-9.48h-1.788v4.056c-.432-.636-1.116-1.008-2.1-1.008-1.572 0-2.676 1.368-2.676 3.288 0 1.956 1.104 3.336 2.676 3.336zm.612-1.536c-.888 0-1.512-.744-1.512-1.788 0-1.032.624-1.764 1.512-1.764.876 0 1.5.732 1.5 1.764 0 1.044-.624 1.788-1.5 1.788zM217.607 138h1.776v-9.48h-1.776V138zm4.252-7.008c.648 0 1.128-.48 1.128-1.128 0-.648-.48-1.104-1.128-1.104-.66 0-1.14.456-1.14 1.104 0 .648.48 1.128 1.14 1.128zm-.9 7.008h1.788v-6.24h-1.788V138zm7.239.192c1.572 0 2.688-1.38 2.688-3.336 0-1.92-1.116-3.288-2.688-3.288-.984 0-1.668.372-2.1 1.008v-4.056h-1.776V138h1.776v-.816c.432.636 1.116 1.008 2.1 1.008zm-.612-1.536c-.876 0-1.5-.744-1.5-1.788 0-1.032.624-1.764 1.5-1.764.888 0 1.512.732 1.512 1.764 0 1.044-.624 1.788-1.512 1.788zm4.518 1.344h1.752v-3.372c0-1.128 1.188-1.224 2.448-1.224v-1.716c-1.212 0-2.04.408-2.448 1.248v-1.176h-1.752V138zm6.928.192c1.068 0 1.74-.48 2.052-1.26.156.852.84 1.332 2.22 1.02v-1.272c-.492.048-.588-.132-.588-.648v-2.112c0-1.476-1.032-2.352-2.856-2.352-1.8 0-2.856.888-2.856 2.388h1.752c0-.54.396-.852 1.08-.852.744 0 1.116.3 1.104.816v.192l-1.464.168c-1.728.204-2.724.912-2.724 2.052 0 .948.672 1.86 2.28 1.86zm.36-1.32c-.552 0-.852-.252-.852-.636 0-.456.588-.624 1.716-.768l.612-.072c-.108.84-.624 1.476-1.476 1.476zm4.981 1.128h1.752v-3.372c0-1.128 1.188-1.224 2.448-1.224v-1.716c-1.212 0-2.04.408-2.448 1.248v-1.176h-1.752V138zm5.962-7.008c.648 0 1.128-.48 1.128-1.128 0-.648-.48-1.104-1.128-1.104-.66 0-1.14.456-1.14 1.104 0 .648.48 1.128 1.14 1.128zm-.9 7.008h1.788v-6.24h-1.788V138zm6.352.192c1.524 0 2.712-.864 2.904-2.22h-1.788c-.072.432-.48.768-1.104.768-.924 0-1.344-.528-1.428-1.332h4.344v-.576c0-1.992-1.272-3.264-2.928-3.264-1.908 0-3.228 1.368-3.228 3.3 0 1.944 1.32 3.324 3.228 3.324zm-1.404-3.876c.108-.72.492-1.212 1.332-1.212.756 0 1.176.516 1.212 1.212h-2.544zm8.465 3.876c1.812 0 2.904-.768 2.904-2.004 0-2.712-3.984-1.428-3.984-2.64 0-.444.384-.744 1.044-.744.72 0 1.152.372 1.188.984h1.752c-.108-1.38-1.164-2.22-2.832-2.22-1.836 0-2.94.792-2.94 2.052 0 2.64 3.996 1.356 3.996 2.628 0 .372-.396.708-1.08.708-.744 0-1.284-.348-1.308-.948h-1.764c.036 1.368 1.176 2.184 3.024 2.184z"/><rect width="3" height="29" x="240.06" y="153" fill="#FF88B9" opacity=".2" rx="1.5"/><circle cx="240.56" cy="201.5" r="6" stroke="#fff" stroke-width="3"/><path fill="url(#f)" fill-rule="evenodd" d="M179.407 60.16h-4v26h4v-26zm-46 4h4v33h-4v-33zm-32 5h-4v33h4v-33zm-38 5h-4v33h4v-33z" clip-rule="evenodd"/><g fill="#fff" fill-opacity=".75" filter="url(#g)"><path d="M63.948 57.864c5.824-5.12 8.064-8.832 8.064-14.784 0-6.848-3.648-14.08-14.976-14.08-11.328 0-14.976 7.232-14.976 15.36h8.32c0-4.48 1.344-7.68 6.656-7.68 5.312 0 6.656 2.752 6.656 6.08 0 4.224-3.136 6.912-9.088 11.968L42.06 65.48v7.68h29.312v-7.68H55.564l8.384-7.616zM96.803 23C82.53 23 78.435 33.24 78.435 45.4c0 12.16 4.096 22.4 18.368 22.4 14.272 0 18.368-10.24 18.368-22.4 0-12.16-4.096-22.4-18.368-22.4zm10.048 22.4c0 3.008-.192 5.568-.704 7.68L91.171 31.896c1.408-.768 3.264-1.216 5.632-1.216 8.192 0 10.048 5.056 10.048 14.72zm-20.096 0c0-3.008.192-5.568.64-7.68l14.976 21.184c-1.408.832-3.2 1.216-5.568 1.216-8.256 0-10.048-5.056-10.048-14.72zm56.755 9.464c5.824-5.12 8.064-8.832 8.064-14.784 0-6.848-3.648-14.08-14.976-14.08-11.328 0-14.976 7.232-14.976 15.36h8.32c0-4.48 1.344-7.68 6.656-7.68 5.312 0 6.656 2.752 6.656 6.08 0 4.224-3.136 6.912-9.088 11.968L121.622 62.48v7.68h29.312v-7.68h-15.808l8.384-7.616zM176.365 19c-14.272 0-18.368 10.24-18.368 22.4 0 12.16 4.096 22.4 18.368 22.4 14.272 0 18.368-10.24 18.368-22.4 0-12.16-4.096-22.4-18.368-22.4zm10.048 22.4c0 3.008-.192 5.568-.704 7.68l-14.976-21.184c1.408-.768 3.264-1.216 5.632-1.216 8.192 0 10.048 5.056 10.048 14.72zm-20.096 0c0-3.008.192-5.568.64-7.68l14.976 21.184c-1.408.832-3.2 1.216-5.568 1.216-8.256 0-10.048-5.056-10.048-14.72z"/></g><path fill="url(#h)" fill-rule="evenodd" d="M1189.06 44h-4v33h4V44zm-76 2h-4v29h4V46zm-36 4h-4v33h4V50zm73 0h4v33h-4V50z" clip-rule="evenodd"/><g fill="#fff" fill-opacity=".75" filter="url(#i)"><path d="M1079.29 34.704c5.82-5.12 8.06-8.832 8.06-14.784 0-6.848-3.65-14.08-14.97-14.08-11.33 0-14.98 7.232-14.98 15.36h8.32c0-4.48 1.34-7.68 6.66-7.68 5.31 0 6.65 2.752 6.65 6.08 0 4.224-3.13 6.912-9.09 11.968L1057.4 42.32V50h29.31v-7.68h-15.81l8.39-7.616zM1112.14.84c-14.27 0-18.37 10.24-18.37 22.4 0 12.16 4.1 22.4 18.37 22.4 14.27 0 18.37-10.24 18.37-22.4 0-12.16-4.1-22.4-18.37-22.4zm10.05 22.4c0 3.008-.19 5.568-.7 7.68l-14.98-21.184c1.41-.768 3.26-1.216 5.63-1.216 8.19 0 10.05 5.056 10.05 14.72zm-20.1 0c0-3.008.2-5.568.64-7.68l14.98 21.184c-1.41.832-3.2 1.216-5.57 1.216-8.25 0-10.05-5.056-10.05-14.72zm56.76 11.464c5.82-5.12 8.06-8.832 8.06-14.784 0-6.848-3.64-14.08-14.97-14.08s-14.98 7.232-14.98 15.36h8.32c0-4.48 1.35-7.68 6.66-7.68 5.31 0 6.65 2.752 6.65 6.08 0 4.224-3.13 6.912-9.08 11.968l-12.55 10.752V50h29.31v-7.68h-15.8l8.38-7.616zM1190.06.48h-17.41v7.68h9.09V44h8.32V.48z"/></g></g><defs><linearGradient id="b" x1="719" x2="719" y1="359.5" y2="508.957" gradientUnits="userSpaceOnUse"><stop stop-color="#883069"/><stop offset="1" stop-color="#9A3978"/></linearGradient><linearGradient id="c" x1="551.5" x2="551.5" y1="414.5" y2="499.5" gradientUnits="userSpaceOnUse"><stop stop-color="#FFF6DC" stop-opacity=".39"/><stop offset="1" stop-color="#fff" stop-opacity="0"/></linearGradient><linearGradient id="d" x1="113.5" x2="113.5" y1="414.5" y2="499.5" gradientUnits="userSpaceOnUse"><stop stop-color="#FFF6DC" stop-opacity=".29"/><stop offset="1" stop-color="#fff" stop-opacity="0"/></linearGradient><linearGradient id="e" x1="989.5" x2="989.5" y1="414.5" y2="499.5" gradientUnits="userSpaceOnUse"><stop stop-color="#FFF6DC" stop-opacity=".27"/><stop offset="1" stop-color="#fff" stop-opacity="0"/></linearGradient><linearGradient id="f" x1="177.407" x2="177.407" y1="70.16" y2="96.16" gradientUnits="userSpaceOnUse"><stop stop-color="#AC3968"/><stop offset="1" stop-color="#AC3968" stop-opacity="0"/></linearGradient><linearGradient id="h" x1="1187.06" x2="1187.06" y1="44" y2="77" gradientUnits="userSpaceOnUse"><stop stop-color="#AC3968"/><stop offset="1" stop-color="#AC3968" stop-opacity="0"/></linearGradient><filter id="g" width="160.674" height="62.16" x="38.06" y="15" color-interpolation-filters="sRGB" filterUnits="userSpaceOnUse"><feFlood flood-opacity="0" result="BackgroundImageFix"/><feGaussianBlur in="BackgroundImage" stdDeviation="2"/><feComposite in2="SourceAlpha" operator="in" result="effect1_backgroundBlur"/><feColorMatrix in="SourceAlpha" values="0 0 0 0 0 0 0 0 0 0 0 0 0 0 0 0 0 0 127 0"/><feOffset dx="2" dy="2"/><feColorMatrix values="0 0 0 0 0 0 0 0 0 0 0 0 0 0 0 0 0 0 0.1 0"/><feBlend in2="effect1_backgroundBlur" result="effect2_dropShadow"/><feBlend in="SourceGraphic" in2="effect2_dropShadow" result="shape"/></filter><filter id="i" width="140.658" height="57.52" x="1053.4" y="-3.52" color-interpolation-filters="sRGB" filterUnits="userSpaceOnUse"><feFlood flood-opacity="0" result="BackgroundImageFix"/><feGaussianBlur in="BackgroundImage" stdDeviation="2"/><feComposite in2="SourceAlpha" operator="in" result="effect1_backgroundBlur"/><feColorMatrix in="SourceAlpha" values="0 0 0 0 0 0 0 0 0 0 0 0 0 0 0 0 0 0 127 0"/><feOffset dx="2" dy="2"/><feColorMatrix values="0 0 0 0 0 0 0 0 0 0 0 0 0 0 0 0 0 0 0.1 0"/><feBlend in2="effect1_backgroundBlur" result="effect2_dropShadow"/><feBlend in="SourceGraphic" in2="effect2_dropShadow" result="shape"/></filter><clipPath id="a"><path fill="#fff" d="M0 0h1440v498H0z" transform="translate(0 .48)"/></clipPath></defs></svg>