<svg viewBox="0 0 760 272" fill="none" xmlns="http://www.w3.org/2000/svg">
<path fill-rule="evenodd" clip-rule="evenodd" d="M88.3103 93.0473C92.3841 93.0473 96.1855 94.0243 99.5038 95.7374L104.299 98.2128L109.278 96.0937C111.606 95.1031 114.192 94.547 116.944 94.547C123.485 94.547 129.253 97.7165 132.645 102.579L134.492 105.225L137.565 106.458C142.914 108.603 146.667 113.593 146.789 119.403L146.886 124.039L150.536 127.103C153.851 129.886 155.917 133.929 155.917 138.445C155.917 146.757 148.873 153.501 140.166 153.549L139.562 153.549H118.747C115.563 153.549 112.508 154.747 110.246 156.883L100.341 166.233H100.507L97.4954 169.141C96.562 168.948 95.5942 168.846 94.6035 168.846C87.1059 168.846 81.028 174.64 81.028 181.787C81.028 188.934 87.1059 194.727 94.6035 194.727C102.101 194.727 108.179 188.934 108.179 181.787C108.179 180.319 107.922 178.905 107.447 177.586L118.711 166.711C119.027 166.405 119.459 166.233 119.91 166.233L141.631 166.14H142.477C157.452 164.974 169.223 153.02 169.223 138.445C169.223 130.471 165.696 123.279 160.056 118.215C159.468 107.86 152.77 99.0602 143.346 95.0244C137.544 87.0741 127.883 81.8634 116.944 81.8634C112.677 81.8634 108.599 82.6572 104.868 84.1001C99.8874 81.7092 94.2607 80.3636 88.3103 80.3636C70.4439 80.3636 55.5503 92.4783 52.1693 108.56C43.3857 114.226 37.605 123.817 37.605 134.696C37.605 151.495 51.3837 165.226 68.7562 166.18V166.233H81.3952C84.5791 166.233 87.6343 165.035 89.8966 162.899L98.2489 155.015L108.153 145.453C109.21 145.704 110.314 145.837 111.448 145.837C118.946 145.837 125.024 140.043 125.024 132.896C125.024 125.75 118.946 119.956 111.448 119.956C103.951 119.956 97.8726 125.75 97.8726 132.896C97.8726 134.231 98.0854 135.522 98.4812 136.737L81.564 153.071C81.2472 153.377 80.8151 153.549 80.3642 153.549L70.905 153.548L70.8938 153.548C70.8253 153.549 70.7572 153.549 70.6894 153.549C59.7661 153.549 50.911 145.108 50.911 134.696C50.911 128.001 54.5639 122.113 60.1233 118.754L64.2664 116.251L65.1003 111.643C67.0116 101.083 76.6864 93.0473 88.3103 93.0473Z" fill="url(#paint0_linear_159_1506)"/>
<path d="M205.91 126.87C207.88 124.119 210.563 121.884 213.96 120.165C217.424 118.376 221.263 117.482 225.474 117.482C230.434 117.482 234.917 118.686 238.925 121.093C242.933 123.5 246.092 126.939 248.402 131.409C250.712 135.811 251.867 140.866 251.867 146.574C251.867 152.283 250.712 157.406 248.402 161.945C246.092 166.416 242.899 169.923 238.823 172.468C234.815 174.944 230.366 176.182 225.474 176.182C221.127 176.182 217.254 175.322 213.858 173.603C210.529 171.883 207.88 169.683 205.91 167V175.253H194.293V98.9131H205.91V126.87ZM240.046 146.574C240.046 142.654 239.231 139.284 237.601 136.464C236.038 133.576 233.932 131.409 231.283 129.965C228.701 128.452 225.916 127.695 222.927 127.695C220.006 127.695 217.221 128.452 214.571 129.965C211.99 131.478 209.884 133.679 208.253 136.567C206.691 139.456 205.91 142.86 205.91 146.781C205.91 150.701 206.691 154.139 208.253 157.097C209.884 159.985 211.99 162.186 214.571 163.699C217.221 165.212 220.006 165.969 222.927 165.969C225.916 165.969 228.701 165.212 231.283 163.699C233.932 162.117 236.038 159.848 237.601 156.89C239.231 153.933 240.046 150.494 240.046 146.574Z" fill="#101B36"/>
<path d="M270.895 126.664C272.593 123.775 274.835 121.54 277.62 119.958C280.473 118.308 283.836 117.482 287.708 117.482V129.656H284.753C280.202 129.656 276.737 130.825 274.359 133.163C272.05 135.501 270.895 139.559 270.895 145.336V175.253H259.278V118.411H270.895V126.664Z" fill="#101B36"/>
<path d="M290.438 146.574C290.438 140.866 291.593 135.811 293.903 131.409C296.28 127.008 299.473 123.603 303.481 121.196C307.557 118.72 312.041 117.482 316.932 117.482C321.348 117.482 325.186 118.376 328.447 120.165C331.776 121.884 334.425 124.05 336.395 126.664V118.411H348.114V175.253H336.395V166.794C334.425 169.476 331.742 171.711 328.345 173.5C324.948 175.288 321.076 176.182 316.728 176.182C311.905 176.182 307.489 174.944 303.481 172.468C299.473 169.923 296.28 166.416 293.903 161.945C291.593 157.406 290.438 152.283 290.438 146.574ZM336.395 146.781C336.395 142.86 335.58 139.456 333.95 136.567C332.387 133.679 330.315 131.478 327.734 129.965C325.152 128.452 322.367 127.695 319.378 127.695C316.389 127.695 313.603 128.452 311.022 129.965C308.441 131.409 306.335 133.576 304.704 136.464C303.142 139.284 302.36 142.654 302.36 146.574C302.36 150.494 303.142 153.933 304.704 156.89C306.335 159.848 308.441 162.117 311.022 163.699C313.671 165.212 316.457 165.969 319.378 165.969C322.367 165.969 325.152 165.212 327.734 163.699C330.315 162.186 332.387 159.985 333.95 157.097C335.58 154.139 336.395 150.701 336.395 146.781Z" fill="#101B36"/>
<path d="M365.206 110.88C363.1 110.88 361.334 110.158 359.907 108.714C358.48 107.269 357.767 105.481 357.767 103.349C357.767 101.217 358.48 99.4289 359.907 97.9847C361.334 96.5404 363.1 95.8182 365.206 95.8182C367.244 95.8182 368.976 96.5404 370.403 97.9847C371.829 99.4289 372.543 101.217 372.543 103.349C372.543 105.481 371.829 107.269 370.403 108.714C368.976 110.158 367.244 110.88 365.206 110.88ZM370.912 118.411V175.253H359.296V118.411H370.912Z" fill="#101B36"/>
<path d="M410.416 117.482C414.832 117.482 418.772 118.411 422.236 120.268C425.769 122.125 428.52 124.876 430.49 128.521C432.46 132.166 433.445 136.567 433.445 141.726V175.253H421.931V143.479C421.931 138.39 420.674 134.504 418.16 131.822C415.647 129.071 412.216 127.695 407.869 127.695C403.521 127.695 400.056 129.071 397.475 131.822C394.961 134.504 393.704 138.39 393.704 143.479V175.253H382.088V118.411H393.704V124.91C395.607 122.572 398.018 120.749 400.939 119.442C403.928 118.136 407.087 117.482 410.416 117.482Z" fill="#101B36"/>
<path d="M455.804 126.87C457.774 124.119 460.457 121.884 463.854 120.165C467.319 118.376 471.157 117.482 475.369 117.482C480.328 117.482 484.811 118.686 488.819 121.093C492.828 123.5 495.986 126.939 498.296 131.409C500.606 135.811 501.761 140.866 501.761 146.574C501.761 152.283 500.606 157.406 498.296 161.945C495.986 166.416 492.794 169.923 488.718 172.468C484.709 174.944 480.26 176.182 475.369 176.182C471.021 176.182 467.149 175.322 463.752 173.603C460.423 171.883 457.774 169.683 455.804 167V175.253H444.187V98.9131H455.804V126.87ZM489.94 146.574C489.94 142.654 489.125 139.284 487.495 136.464C485.932 133.576 483.826 131.409 481.177 129.965C478.595 128.452 475.81 127.695 472.821 127.695C469.9 127.695 467.115 128.452 464.465 129.965C461.884 131.478 459.778 133.679 458.147 136.567C456.585 139.456 455.804 142.86 455.804 146.781C455.804 150.701 456.585 154.139 458.147 157.097C459.778 159.985 461.884 162.186 464.465 163.699C467.115 165.212 469.9 165.969 472.821 165.969C475.81 165.969 478.595 165.212 481.177 163.699C483.826 162.117 485.932 159.848 487.495 156.89C489.125 153.933 489.94 150.494 489.94 146.574Z" fill="#101B36"/>
<path d="M533.527 176.182C528.228 176.182 523.438 174.978 519.159 172.571C514.879 170.095 511.516 166.657 509.07 162.255C506.625 157.785 505.402 152.626 505.402 146.781C505.402 141.003 506.659 135.88 509.172 131.409C511.686 126.939 515.117 123.5 519.464 121.093C523.812 118.686 528.669 117.482 534.036 117.482C539.403 117.482 544.26 118.686 548.608 121.093C552.955 123.5 556.386 126.939 558.9 131.409C561.413 135.88 562.67 141.003 562.67 146.781C562.67 152.558 561.379 157.681 558.798 162.152C556.216 166.622 552.684 170.095 548.2 172.571C543.784 174.978 538.893 176.182 533.527 176.182ZM533.527 165.969C536.516 165.969 539.301 165.247 541.882 163.802C544.532 162.358 546.672 160.192 548.302 157.303C549.932 154.415 550.748 150.907 550.748 146.781C550.748 142.654 549.966 139.181 548.404 136.361C546.841 133.473 544.77 131.306 542.188 129.862C539.607 128.418 536.821 127.695 533.832 127.695C530.843 127.695 528.058 128.418 525.476 129.862C522.963 131.306 520.959 133.473 519.464 136.361C517.97 139.181 517.223 142.654 517.223 146.781C517.223 152.902 518.751 157.647 521.808 161.017C524.933 164.318 528.839 165.969 533.527 165.969Z" fill="#101B36"/>
<path d="M566.205 146.574C566.205 140.866 567.36 135.811 569.67 131.409C572.048 127.008 575.241 123.603 579.249 121.196C583.325 118.72 587.808 117.482 592.699 117.482C597.115 117.482 600.953 118.376 604.214 120.165C607.543 121.884 610.192 124.05 612.162 126.664V118.411H623.881V175.253H612.162V166.794C610.192 169.476 607.509 171.711 604.112 173.5C600.716 175.288 596.843 176.182 592.496 176.182C587.672 176.182 583.257 174.944 579.249 172.468C575.241 169.923 572.048 166.416 569.67 161.945C567.36 157.406 566.205 152.283 566.205 146.574ZM612.162 146.781C612.162 142.86 611.347 139.456 609.717 136.567C608.154 133.679 606.082 131.478 603.501 129.965C600.919 128.452 598.134 127.695 595.145 127.695C592.156 127.695 589.371 128.452 586.789 129.965C584.208 131.409 582.102 133.576 580.471 136.464C578.909 139.284 578.128 142.654 578.128 146.574C578.128 150.494 578.909 153.933 580.471 156.89C582.102 159.848 584.208 162.117 586.789 163.699C589.439 165.212 592.224 165.969 595.145 165.969C598.134 165.969 600.919 165.212 603.501 163.699C606.082 162.186 608.154 159.985 609.717 157.097C611.347 154.139 612.162 150.701 612.162 146.781Z" fill="#101B36"/>
<path d="M646.679 126.664C648.378 123.775 650.62 121.54 653.405 119.958C656.258 118.308 659.621 117.482 663.493 117.482V129.656H660.538C655.986 129.656 652.522 130.825 650.144 133.163C647.834 135.501 646.679 139.559 646.679 145.336V175.253H635.063V118.411H646.679V126.664Z" fill="#101B36"/>
<path d="M666.223 146.574C666.223 140.866 667.378 135.811 669.687 131.409C672.065 127.008 675.258 123.603 679.266 121.196C683.342 118.72 687.86 117.482 692.819 117.482C696.487 117.482 700.088 118.308 703.62 119.958C707.221 121.54 710.074 123.672 712.18 126.354V98.9131H723.898V175.253H712.18V166.691C710.278 169.442 707.628 171.711 704.232 173.5C700.903 175.288 697.065 176.182 692.717 176.182C687.826 176.182 683.342 174.944 679.266 172.468C675.258 169.923 672.065 166.416 669.687 161.945C667.378 157.406 666.223 152.283 666.223 146.574ZM712.18 146.781C712.18 142.86 711.365 139.456 709.734 136.567C708.172 133.679 706.1 131.478 703.518 129.965C700.937 128.452 698.152 127.695 695.162 127.695C692.173 127.695 689.388 128.452 686.807 129.965C684.225 131.409 682.119 133.576 680.489 136.464C678.926 139.284 678.145 142.654 678.145 146.574C678.145 150.494 678.926 153.933 680.489 156.89C682.119 159.848 684.225 162.117 686.807 163.699C689.456 165.212 692.241 165.969 695.162 165.969C698.152 165.969 700.937 165.212 703.518 163.699C706.1 162.186 708.172 159.985 709.734 157.097C711.365 154.139 712.18 150.701 712.18 146.781Z" fill="#101B36"/>
<path fill-rule="evenodd" clip-rule="evenodd" d="M88.3103 93.0473C92.3841 93.0473 96.1855 94.0243 99.5038 95.7374L104.299 98.2128L109.278 96.0937C111.606 95.1031 114.192 94.547 116.944 94.547C123.485 94.547 129.253 97.7165 132.645 102.579L134.492 105.225L137.565 106.458C142.914 108.603 146.667 113.593 146.789 119.403L146.886 124.039L150.536 127.103C153.851 129.886 155.917 133.929 155.917 138.445C155.917 146.757 148.873 153.501 140.166 153.549L139.562 153.549H118.747C115.563 153.549 112.508 154.747 110.246 156.883L100.341 166.233H100.507L97.4954 169.141C96.562 168.948 95.5942 168.846 94.6035 168.846C87.1059 168.846 81.028 174.64 81.028 181.787C81.028 188.934 87.1059 194.727 94.6035 194.727C102.101 194.727 108.179 188.934 108.179 181.787C108.179 180.319 107.922 178.905 107.447 177.586L118.711 166.711C119.027 166.405 119.459 166.233 119.91 166.233L141.631 166.14H142.477C157.452 164.974 169.223 153.02 169.223 138.445C169.223 130.471 165.696 123.279 160.056 118.215C159.468 107.86 152.77 99.0602 143.346 95.0244C137.544 87.0741 127.883 81.8634 116.944 81.8634C112.677 81.8634 108.599 82.6572 104.868 84.1001C99.8874 81.7092 94.2607 80.3636 88.3103 80.3636C70.4439 80.3636 55.5503 92.4783 52.1693 108.56C43.3857 114.226 37.605 123.817 37.605 134.696C37.605 151.495 51.3837 165.226 68.7562 166.18V166.233H81.3952C84.5791 166.233 87.6343 165.035 89.8966 162.899L98.2489 155.015L108.153 145.453C109.21 145.704 110.314 145.837 111.448 145.837C118.946 145.837 125.024 140.043 125.024 132.896C125.024 125.75 118.946 119.956 111.448 119.956C103.951 119.956 97.8726 125.75 97.8726 132.896C97.8726 134.231 98.0854 135.522 98.4812 136.737L81.564 153.071C81.2472 153.377 80.8151 153.549 80.3642 153.549L70.905 153.548L70.8938 153.548C70.8253 153.549 70.7572 153.549 70.6894 153.549C59.7661 153.549 50.911 145.108 50.911 134.696C50.911 128.001 54.5639 122.113 60.1233 118.754L64.2664 116.251L65.1003 111.643C67.0116 101.083 76.6864 93.0473 88.3103 93.0473Z" fill="url(#paint1_linear_159_1506)"/>
<path d="M205.91 126.87C207.88 124.119 210.563 121.884 213.96 120.165C217.424 118.376 221.263 117.482 225.474 117.482C230.434 117.482 234.917 118.686 238.925 121.093C242.933 123.5 246.092 126.939 248.402 131.409C250.712 135.811 251.867 140.866 251.867 146.574C251.867 152.283 250.712 157.406 248.402 161.945C246.092 166.416 242.899 169.923 238.823 172.468C234.815 174.944 230.366 176.182 225.474 176.182C221.127 176.182 217.254 175.322 213.858 173.603C210.529 171.883 207.88 169.683 205.91 167V175.253H194.293V98.9131H205.91V126.87ZM240.046 146.574C240.046 142.654 239.231 139.284 237.601 136.464C236.038 133.576 233.932 131.409 231.283 129.965C228.701 128.452 225.916 127.695 222.927 127.695C220.006 127.695 217.221 128.452 214.571 129.965C211.99 131.478 209.884 133.679 208.253 136.567C206.691 139.456 205.91 142.86 205.91 146.781C205.91 150.701 206.691 154.139 208.253 157.097C209.884 159.985 211.99 162.186 214.571 163.699C217.221 165.212 220.006 165.969 222.927 165.969C225.916 165.969 228.701 165.212 231.283 163.699C233.932 162.117 236.038 159.848 237.601 156.89C239.231 153.933 240.046 150.494 240.046 146.574Z" fill="#101B36"/>
<path d="M270.895 126.664C272.593 123.775 274.835 121.54 277.62 119.958C280.473 118.308 283.836 117.482 287.708 117.482V129.656H284.753C280.202 129.656 276.737 130.825 274.359 133.163C272.05 135.501 270.895 139.559 270.895 145.336V175.253H259.278V118.411H270.895V126.664Z" fill="#101B36"/>
<path d="M290.438 146.574C290.438 140.866 291.593 135.811 293.903 131.409C296.28 127.008 299.473 123.603 303.481 121.196C307.557 118.72 312.041 117.482 316.932 117.482C321.348 117.482 325.186 118.376 328.447 120.165C331.776 121.884 334.425 124.05 336.395 126.664V118.411H348.114V175.253H336.395V166.794C334.425 169.476 331.742 171.711 328.345 173.5C324.948 175.288 321.076 176.182 316.728 176.182C311.905 176.182 307.489 174.944 303.481 172.468C299.473 169.923 296.28 166.416 293.903 161.945C291.593 157.406 290.438 152.283 290.438 146.574ZM336.395 146.781C336.395 142.86 335.58 139.456 333.95 136.567C332.387 133.679 330.315 131.478 327.734 129.965C325.152 128.452 322.367 127.695 319.378 127.695C316.389 127.695 313.603 128.452 311.022 129.965C308.441 131.409 306.335 133.576 304.704 136.464C303.142 139.284 302.36 142.654 302.36 146.574C302.36 150.494 303.142 153.933 304.704 156.89C306.335 159.848 308.441 162.117 311.022 163.699C313.671 165.212 316.457 165.969 319.378 165.969C322.367 165.969 325.152 165.212 327.734 163.699C330.315 162.186 332.387 159.985 333.95 157.097C335.58 154.139 336.395 150.701 336.395 146.781Z" fill="#101B36"/>
<path d="M365.206 110.88C363.1 110.88 361.334 110.158 359.907 108.714C358.48 107.269 357.767 105.481 357.767 103.349C357.767 101.217 358.48 99.4289 359.907 97.9847C361.334 96.5404 363.1 95.8182 365.206 95.8182C367.244 95.8182 368.976 96.5404 370.403 97.9847C371.829 99.4289 372.543 101.217 372.543 103.349C372.543 105.481 371.829 107.269 370.403 108.714C368.976 110.158 367.244 110.88 365.206 110.88ZM370.912 118.411V175.253H359.296V118.411H370.912Z" fill="#101B36"/>
<path d="M410.416 117.482C414.832 117.482 418.772 118.411 422.236 120.268C425.769 122.125 428.52 124.876 430.49 128.521C432.46 132.166 433.445 136.567 433.445 141.726V175.253H421.931V143.479C421.931 138.39 420.674 134.504 418.16 131.822C415.647 129.071 412.216 127.695 407.869 127.695C403.521 127.695 400.056 129.071 397.475 131.822C394.961 134.504 393.704 138.39 393.704 143.479V175.253H382.088V118.411H393.704V124.91C395.607 122.572 398.018 120.749 400.939 119.442C403.928 118.136 407.087 117.482 410.416 117.482Z" fill="#101B36"/>
<path d="M455.804 126.87C457.774 124.119 460.457 121.884 463.854 120.165C467.319 118.376 471.157 117.482 475.369 117.482C480.328 117.482 484.811 118.686 488.819 121.093C492.828 123.5 495.986 126.939 498.296 131.409C500.606 135.811 501.761 140.866 501.761 146.574C501.761 152.283 500.606 157.406 498.296 161.945C495.986 166.416 492.794 169.923 488.718 172.468C484.709 174.944 480.26 176.182 475.369 176.182C471.021 176.182 467.149 175.322 463.752 173.603C460.423 171.883 457.774 169.683 455.804 167V175.253H444.187V98.9131H455.804V126.87ZM489.94 146.574C489.94 142.654 489.125 139.284 487.495 136.464C485.932 133.576 483.826 131.409 481.177 129.965C478.595 128.452 475.81 127.695 472.821 127.695C469.9 127.695 467.115 128.452 464.465 129.965C461.884 131.478 459.778 133.679 458.147 136.567C456.585 139.456 455.804 142.86 455.804 146.781C455.804 150.701 456.585 154.139 458.147 157.097C459.778 159.985 461.884 162.186 464.465 163.699C467.115 165.212 469.9 165.969 472.821 165.969C475.81 165.969 478.595 165.212 481.177 163.699C483.826 162.117 485.932 159.848 487.495 156.89C489.125 153.933 489.94 150.494 489.94 146.574Z" fill="#101B36"/>
<path d="M533.527 176.182C528.228 176.182 523.438 174.978 519.159 172.571C514.879 170.095 511.516 166.657 509.07 162.255C506.625 157.785 505.402 152.626 505.402 146.781C505.402 141.003 506.659 135.88 509.172 131.409C511.686 126.939 515.117 123.5 519.464 121.093C523.812 118.686 528.669 117.482 534.036 117.482C539.403 117.482 544.26 118.686 548.608 121.093C552.955 123.5 556.386 126.939 558.9 131.409C561.413 135.88 562.67 141.003 562.67 146.781C562.67 152.558 561.379 157.681 558.798 162.152C556.216 166.622 552.684 170.095 548.2 172.571C543.784 174.978 538.893 176.182 533.527 176.182ZM533.527 165.969C536.516 165.969 539.301 165.247 541.882 163.802C544.532 162.358 546.672 160.192 548.302 157.303C549.932 154.415 550.748 150.907 550.748 146.781C550.748 142.654 549.966 139.181 548.404 136.361C546.841 133.473 544.77 131.306 542.188 129.862C539.607 128.418 536.821 127.695 533.832 127.695C530.843 127.695 528.058 128.418 525.476 129.862C522.963 131.306 520.959 133.473 519.464 136.361C517.97 139.181 517.223 142.654 517.223 146.781C517.223 152.902 518.751 157.647 521.808 161.017C524.933 164.318 528.839 165.969 533.527 165.969Z" fill="#101B36"/>
<path d="M566.205 146.574C566.205 140.866 567.36 135.811 569.67 131.409C572.048 127.008 575.241 123.603 579.249 121.196C583.325 118.72 587.808 117.482 592.699 117.482C597.115 117.482 600.953 118.376 604.214 120.165C607.543 121.884 610.192 124.05 612.162 126.664V118.411H623.881V175.253H612.162V166.794C610.192 169.476 607.509 171.711 604.112 173.5C600.716 175.288 596.843 176.182 592.496 176.182C587.672 176.182 583.257 174.944 579.249 172.468C575.241 169.923 572.048 166.416 569.67 161.945C567.36 157.406 566.205 152.283 566.205 146.574ZM612.162 146.781C612.162 142.86 611.347 139.456 609.717 136.567C608.154 133.679 606.082 131.478 603.501 129.965C600.919 128.452 598.134 127.695 595.145 127.695C592.156 127.695 589.371 128.452 586.789 129.965C584.208 131.409 582.102 133.576 580.471 136.464C578.909 139.284 578.128 142.654 578.128 146.574C578.128 150.494 578.909 153.933 580.471 156.89C582.102 159.848 584.208 162.117 586.789 163.699C589.439 165.212 592.224 165.969 595.145 165.969C598.134 165.969 600.919 165.212 603.501 163.699C606.082 162.186 608.154 159.985 609.717 157.097C611.347 154.139 612.162 150.701 612.162 146.781Z" fill="#101B36"/>
<path d="M646.679 126.664C648.378 123.775 650.62 121.54 653.405 119.958C656.258 118.308 659.621 117.482 663.493 117.482V129.656H660.538C655.986 129.656 652.522 130.825 650.144 133.163C647.834 135.501 646.679 139.559 646.679 145.336V175.253H635.063V118.411H646.679V126.664Z" fill="#101B36"/>
<path d="M666.223 146.574C666.223 140.866 667.378 135.811 669.687 131.409C672.065 127.008 675.258 123.603 679.266 121.196C683.342 118.72 687.86 117.482 692.819 117.482C696.487 117.482 700.088 118.308 703.62 119.958C707.221 121.54 710.074 123.672 712.18 126.354V98.9131H723.898V175.253H712.18V166.691C710.278 169.442 707.628 171.711 704.232 173.5C700.903 175.288 697.065 176.182 692.717 176.182C687.826 176.182 683.342 174.944 679.266 172.468C675.258 169.923 672.065 166.416 669.687 161.945C667.378 157.406 666.223 152.283 666.223 146.574ZM712.18 146.781C712.18 142.86 711.365 139.456 709.734 136.567C708.172 133.679 706.1 131.478 703.518 129.965C700.937 128.452 698.152 127.695 695.162 127.695C692.173 127.695 689.388 128.452 686.807 129.965C684.225 131.409 682.119 133.576 680.489 136.464C678.926 139.284 678.145 142.654 678.145 146.574C678.145 150.494 678.926 153.933 680.489 156.89C682.119 159.848 684.225 162.117 686.807 163.699C689.456 165.212 692.241 165.969 695.162 165.969C698.152 165.969 700.937 165.212 703.518 163.699C706.1 162.186 708.172 159.985 709.734 157.097C711.365 154.139 712.18 150.701 712.18 146.781Z" fill="#101B36"/>
<defs>
<linearGradient id="paint0_linear_159_1506" x1="103.414" y1="80.3636" x2="103.414" y2="137.545" gradientUnits="userSpaceOnUse">
<stop stop-color="#714EFF"/>
<stop offset="1" stop-color="#A685F3"/>
</linearGradient>
<linearGradient id="paint1_linear_159_1506" x1="103.414" y1="80.3636" x2="103.414" y2="137.545" gradientUnits="userSpaceOnUse">
<stop stop-color="#714EFF"/>
<stop offset="1" stop-color="#A685F3"/>
</linearGradient>
</defs>
</svg>
