<svg xmlns="http://www.w3.org/2000/svg" xmlns:xlink="http://www.w3.org/1999/xlink" width="800" height="800" preserveAspectRatio="xMidYMid" version="1.1" viewBox="0 0 256 256"><g><polygon fill="#53B9FF" points="39.863 54.115 .311 93.716 61.306 154.895 0 216.385 39.428 256.004 100.858 194.497 161.955 255.565 201.507 215.963"/><polygon fill="#119EFF" points="140.517 154.896 100.859 194.497 161.956 255.566 201.508 215.964"/><polygon fill="#000" fill-opacity=".2" points="140.517 154.896 100.859 194.497 116.126 209.679"/><polygon fill="#53B9FF" points="194.57 100.985 256 39.478 216.431 0 155.019 61.384 93.917 .311 54.365 39.913 216.01 201.761 255.562 162.159"/><polygon fill="#119EFF" points="115.36 100.987 155.019 61.385 93.917 .313 54.365 39.914"/><polygon fill="#000" fill-opacity=".2" points="115.359 100.985 155.018 61.384 139.747 46.198"/></g></svg>