<svg xmlns="http://www.w3.org/2000/svg" xmlns:svg="http://www.w3.org/2000/svg" id="svg01" width="600" height="600" version="1.1" viewBox="0 0 600 600"><metadata id="metadata01"/><g id="layer1" style="display:inline"><path id="path101" d="M 300,190 H 120 c 0,0 -50,0 -50,110 0,110 50,110 50,110 h 50 c 0,0 0,-10 0,-50 0,-40 30,-70 70,-70 40,0 89.86755,0 119.93377,0 C 390,290 410,270 410.41391,239.51987 410.82781,209.03974 410,120 410,120 c 0,0 0,-50 -110,-50 -110,0 -110,50 -110,50 v 50 h 110 z" style="fill:#387eb8;fill-opacity:1"/><path id="path102" d="m 300,410 h 180 c 0,0 50,0 50,-110 0,-110 -50,-110 -50,-110 h -50 c 0,0 0,10 0,50 0,40 -30,70 -70,70 -40,0 -90,0 -120,0 -30,0 -50,20 -50,50 0,30 0,120 0,120 0,0 0,50 110,50 110,0 110,-50 110,-50 V 430 H 300 Z" style="fill:#ffc331;fill-opacity:1"/><circle id="path103" cx="240" cy="120" r="20" style="fill:#fff;fill-opacity:1"/><circle id="path104" cx="360" cy="480" r="20" style="fill:#fff;fill-opacity:1"/></g><g id="layer2" style="display:none"><path id="path201" d="m 120,180 c 0,0 -60,0 -60,120 0,120 60,120 60,120 h 60 c 0,0 0,-30 0,-60 0,-30 20,-60 60,-60 0,0 80,0 120,0 40,0 59.58609,-29.51987 60,-60 0.4139,-30.48013 0,-120 0,-120 0,0 0.99338,-58.940394 -120,-59.999997 C 179.00662,58.9404 180,120 180,120 v 60 z" style="display:inline;fill:#387eb8;fill-opacity:1"/><path id="path202" d="m 480,420 c 0,0 61.79181,-12.05638 60.92715,-122.05298 C 540,180 480,180 480,180 h -60 v 60 c 0,30 -20,60 -60,60 0,0 -80,0 -120,0 -40,0 -60,30 -60,60 0,30 0,120 0,120 0,0 10.00007,59.74614 120,59.86755 C 420,540 420,480 420,480 v -60 z" style="display:inline;fill:#ffc331;fill-opacity:1"/></g><g id="layer3" style="display:none"><path style="fill:none;fill-rule:evenodd;stroke:#0f0;stroke-width:20;stroke-linecap:butt;stroke-linejoin:miter;stroke-miterlimit:4;stroke-dasharray:none;stroke-opacity:1" id="path301" d="m 180,180 v -60 c 0,0 0,-60 120,-60 120,0 120,60 120,60 0,0 0,80 0,120 0,40 -30,60 -60,60 -30,0 -90,0 -120,0 -30,0 -60,20 -60,60 0,40 0,120 0,120 0,0 0,60 120,60 120,0 120,-60 120,-60 v -60"/><path style="fill:none;fill-rule:evenodd;stroke:#0f0;stroke-width:20;stroke-linecap:butt;stroke-linejoin:miter;stroke-miterlimit:4;stroke-dasharray:none;stroke-opacity:1" id="path302" d="M 300,180 H 120 c 0,0 -60,0 -60,120 0,120 60,120 60,120 h 60"/><path style="fill:none;fill-rule:evenodd;stroke:#00fe00;stroke-width:20;stroke-linecap:butt;stroke-linejoin:miter;stroke-miterlimit:4;stroke-dasharray:none;stroke-opacity:1" id="path303" d="m 420,180 h 60 c 0,0 60,0 60,120 0,120 -60,120 -60,120 H 300"/><circle style="opacity:1;fill:#0f0;fill-opacity:1;stroke:none;stroke-width:20;stroke-linecap:round;stroke-linejoin:round;stroke-miterlimit:4;stroke-dasharray:none;stroke-opacity:1" id="path304" cx="240" cy="120" r="20"/><circle style="opacity:1;fill:#0f0;fill-opacity:1;stroke:none;stroke-width:20;stroke-linecap:round;stroke-linejoin:round;stroke-miterlimit:4;stroke-dasharray:none;stroke-opacity:1" id="path305" cx="360" cy="480" r="20"/></g><g id="layer4" style="display:none"><path id="path401" d="M 30,60 H 570" style="stroke:#000;stroke-width:.60000002;stroke-miterlimit:4;stroke-dasharray:none;stroke-opacity:1"/><path id="path402" d="M 150,120 H 450" style="stroke:#000;stroke-width:.60000002;stroke-miterlimit:4;stroke-dasharray:none;stroke-opacity:1"/><path id="path403" d="M 30,180 H 570" style="stroke:#000;stroke-width:.60000002;stroke-miterlimit:4;stroke-dasharray:none;stroke-opacity:1"/><path id="path404" d="M 330,240 H 450" style="display:inline;stroke:#000;stroke-width:.60000002;stroke-miterlimit:4;stroke-dasharray:none;stroke-opacity:1"/><path id="path405" d="M 30,300 H 570" style="stroke:#000;stroke-width:.60000002;stroke-miterlimit:4;stroke-dasharray:none;stroke-opacity:1"/><path id="path406" d="M 150,360 H 270" style="display:inline;stroke:#000;stroke-width:.60000002;stroke-miterlimit:4;stroke-dasharray:none;stroke-opacity:1"/><path id="path407" d="M 30,420 H 570" style="stroke:#000;stroke-width:.60000002;stroke-miterlimit:4;stroke-dasharray:none;stroke-opacity:1"/><path id="path408" d="M 150,480 H 450" style="stroke:#000;stroke-width:.60000002;stroke-miterlimit:4;stroke-dasharray:none;stroke-opacity:1"/><path id="path409" d="M 30,540 H 570" style="stroke:#000;stroke-width:.60000002;stroke-miterlimit:4;stroke-dasharray:none;stroke-opacity:1"/><path id="path410" d="M 60,30 V 570" style="stroke:#000;stroke-width:.60000002;stroke-miterlimit:4;stroke-dasharray:none;stroke-opacity:1"/><path id="path411" d="M 120,450 V 150" style="stroke:#000;stroke-width:.60000002;stroke-miterlimit:4;stroke-dasharray:none;stroke-opacity:1"/><path id="path412" d="M 180,30 V 570" style="stroke:#000;stroke-width:.60000002;stroke-miterlimit:4;stroke-dasharray:none;stroke-opacity:1"/><path id="path413" d="M 240,30 V 210" style="stroke:#000;stroke-width:.60000002;stroke-miterlimit:4;stroke-dasharray:none;stroke-opacity:1"/><path id="path414" d="M 240,270 V 390" style="display:inline;stroke:#000;stroke-width:.60000002;stroke-miterlimit:4;stroke-dasharray:none;stroke-opacity:1"/><path id="path415" d="M 300,30 V 570" style="stroke:#000;stroke-width:.60000002;stroke-miterlimit:4;stroke-dasharray:none;stroke-opacity:1"/><path id="path416" d="M 360,210 V 330" style="display:inline;stroke:#000;stroke-width:.60000002;stroke-miterlimit:4;stroke-dasharray:none;stroke-opacity:1"/><path id="path417" d="M 360,390 V 570" style="stroke:#000;stroke-width:.60000002;stroke-miterlimit:4;stroke-dasharray:none;stroke-opacity:1"/><path id="path418" d="M 420,30 V 570" style="stroke:#000;stroke-width:.60000002;stroke-miterlimit:4;stroke-dasharray:none;stroke-opacity:1"/><path id="path419" d="M 480,450 V 150" style="stroke:#000;stroke-width:.60000002;stroke-miterlimit:4;stroke-dasharray:none;stroke-opacity:1"/><path id="path420" d="M 540,30 V 570" style="stroke:#000;stroke-width:.60000002;stroke-miterlimit:4;stroke-dasharray:none;stroke-opacity:1"/></g></svg>