<svg width="273" height="63" viewBox="0 0 273 63" fill="none" xmlns="http://www.w3.org/2000/svg">
<path d="M14.9004 39.3495C14.0996 39.3495 13.4512 39.1991 12.75 39.4999C12.1992 39.7499 11.5 39.5995 10.9004 39.6503C9.65038 39.7499 8.40038 39.9511 7.15038 39.7499C6.30078 39.5995 5.49998 39.3495 4.65038 39.2499C4.15038 39.1991 3.65038 39.1991 3.15038 38.9999C2.99999 38.9491 2.8496 38.9003 2.80077 38.7499C2.60155 37.9999 2.05077 37.4003 1.70117 36.6991L1.65039 36.7499C1.65039 36.9999 1.75 37.3495 1.5 37.3495C1.19922 37.3495 1.30078 36.9491 1.34961 36.7499C1.5 35.6503 1.55078 34.4999 1.5 33.3495C1.5 33.1503 1.65039 32.6991 1.09961 32.9003C0.999999 32.9999 0.949219 32.9003 0.949219 32.8006C0.949219 32.701 0.999999 32.6014 1.04883 32.4999C1.74803 31.4491 1.49805 30.2499 1.49805 29.0995C1.49805 27.9999 1.54883 26.8495 1.54883 25.7499C1.54883 25.3495 1.74805 24.9999 1.89844 24.5995C2.09766 24.0995 2.09766 23.4491 2.14844 22.8495C2.29883 20.9003 2.14844 18.9003 2.59766 16.949C2.84766 15.949 2.94727 14.8982 2.89844 13.8494C2.84766 12.8494 3.39844 12.2986 4.14844 11.8494C5.09764 11.2498 6.19924 10.8494 7.29884 10.5994C8.44924 10.3494 9.59964 10.2986 10.7988 10.2986C13.248 10.3494 15.6992 10.2986 18.1483 10.1482C19.9491 10.0486 21.7987 9.99781 23.5973 9.8982C25.6481 9.79859 27.6969 9.84742 29.7478 9.84742C31.197 9.84742 32.5974 10.0466 34.0486 10.0974C35.5486 10.1482 36.9978 10.0974 38.4978 9.8982C39.8474 9.74781 41.2478 9.8982 42.5974 10.1482C43.5974 10.3474 44.5974 10.4978 45.5974 10.699C46.2966 10.8494 46.947 11.199 47.3474 11.8494C47.3982 11.949 47.447 11.9998 47.5467 12.0994C48.3963 12.7498 48.4471 13.699 48.4471 14.699C48.4471 15.449 48.7478 16.1482 48.7478 16.8494C48.7478 17.2986 48.8474 17.7498 48.8474 18.199C48.7967 20.449 48.7478 22.6482 48.6971 24.898C48.6971 26.0484 48.6971 27.1988 48.7478 28.3472C48.7986 29.0464 48.6482 29.7476 48.6482 30.4468C48.5974 31.9976 48.699 33.5464 48.699 35.0972C48.699 35.7964 48.4998 36.398 48.2986 37.0464C48.2478 37.2964 48.0994 37.4956 47.8494 37.6968C47.449 37.9976 47.0994 38.396 46.7986 38.7964C46.5994 39.0464 46.3494 39.2964 45.949 39.2456C45.8494 39.2456 45.699 39.2456 45.5994 39.3452C45.0994 39.8452 44.4002 39.6948 43.8494 39.9448C43.2986 40.1948 42.7498 39.7944 42.1502 39.8452C40.4002 39.9956 38.6502 39.9956 36.9002 40.0444C35.6502 40.0952 34.451 40.1948 33.1502 40.0952C31.451 39.9956 29.7498 40.0444 28.0992 40.0952C27.4996 40.0952 26.8492 40.2944 26.2496 40.4448C26.0992 40.4956 25.6988 40.4448 25.7496 40.8452C25.7496 40.9448 25.5504 40.9448 25.4488 40.896C24.9996 40.7964 24.6988 41.0464 24.4488 41.3452C22.6988 43.1948 20.9488 44.9448 19.1478 46.6947C18.5482 47.2943 17.8978 47.8939 17.2982 48.4955C16.0482 49.6947 14.5482 50.4447 12.9974 51.1459C11.4974 51.7963 10.0482 52.5951 8.54821 53.2455C7.89781 53.5463 7.14781 53.7455 6.44861 53.8959C5.99939 53.9467 5.49941 53.7455 4.94861 53.8451C4.79822 53.8959 4.69861 53.6459 4.74939 53.4955C4.94861 53.1459 5.099 52.7455 5.44859 52.4955C6.39779 51.7963 7.34899 51.0463 8.29819 50.3451C8.59897 50.0951 8.99739 49.7943 9.04819 49.4955C9.1478 48.6459 9.84899 48.3451 10.349 47.7963C10.849 47.2455 11.2982 46.6459 11.849 46.0971C12.2494 45.6967 12.4994 45.0971 12.7494 44.5463C13.3002 43.3471 13.9994 42.1459 14.3998 40.8959C14.4994 40.5951 14.6498 40.2963 14.4994 39.9467C14.3998 39.7495 14.6498 39.5991 14.8998 39.3491L14.9004 39.3495ZM13.5 45.3495C12.6504 46.2499 12 47.2499 11.3008 48.2499C10.8516 48.9003 10.5 49.6991 9.85158 50.0995C8.80078 50.7499 8.15238 51.7987 7.05078 52.5995C7.60158 52.6503 7.95118 52.5487 8.30078 52.2987C8.85158 51.8983 9.35158 51.3983 9.99998 51.0995C10.3496 50.9491 10.9004 50.7988 10.8008 50.1503C10.8008 50.0996 10.9004 49.9999 10.9512 49.9003C12.1016 48.9999 13.2012 47.9999 14.6504 47.5995C14.9004 47.5488 15.0996 47.3495 15.5 47.5488C14 48.2988 12.5508 48.998 11.3496 50.1992C11.6992 50.0995 12 49.8495 12.25 49.8984C12.6504 49.9492 12.8496 49.7988 13.1504 49.6484C14.3496 49.0488 15.4512 48.1992 16.5996 47.4492C17.6504 46.75 18.7988 46.25 19.5488 45.1484C20.1992 44.248 21.1484 43.5488 21.8984 42.6992C22.5488 41.9492 23.1992 41.1992 23.5976 40.2988C23.7968 39.8495 24.0976 39.6484 24.6484 39.5996C25.1992 39.5488 25.6992 39.5996 26.248 39.5488C27.498 39.4492 28.6972 39.0996 29.9472 39.248C31.2968 39.4472 32.6972 39.3476 34.0468 39.2988C36.3476 39.1992 38.6464 39.0488 40.9473 39.1484C41.1973 39.1484 41.3965 39.1484 41.6465 39.0976C43.0957 38.7968 44.4961 38.248 45.9473 37.8476C46.5469 37.6972 46.7969 37.248 46.9981 36.748C46.3985 36.6972 46.0977 37.3984 45.4981 37.248C45.6485 36.8984 45.9473 36.8984 46.1973 36.6972C46.4473 36.498 46.8477 36.3964 46.9981 36.0468C47.1973 35.4472 47.3985 34.8476 47.4473 34.246C47.4473 34.0468 47.5977 33.746 47.4473 33.6464C47.2481 33.496 47.0469 33.746 46.8477 33.8456C46.4981 34.0449 46.1485 34.246 45.7969 34.4452C45.5977 34.5448 45.3965 34.746 45.0469 34.5448C45.7969 34.1445 46.2969 33.4452 47.0977 33.1444C47.8985 32.8437 47.8985 32.8437 47.7481 31.9452C47.3477 32.0449 46.9473 32.1952 46.5489 32.3945C46.2989 32.5449 45.9981 32.6445 45.7481 32.7441C45.6485 32.7949 45.5977 32.7949 45.5489 32.6933C45.5489 32.6425 45.5489 32.4941 45.5996 32.4941C46.25 32.0937 46.6992 31.4433 47.5996 31.4941C47.6993 31.4941 47.7989 31.5937 47.7989 31.3945C47.7989 30.9941 47.9981 30.5449 47.7481 30.2441C47.5489 30.0448 47.1973 30.2948 46.8985 30.4433C46.6485 30.5937 46.3477 30.7441 46.0489 30.8925C45.8497 30.9921 45.6485 31.1933 45.1993 31.0917C45.9493 30.4921 46.5001 29.8417 47.3985 29.6913C47.6485 29.6405 47.7481 29.6405 47.7481 29.3417C47.6973 27.6425 47.6485 25.8925 47.5977 24.1912C47.5469 21.9412 47.4981 19.6404 47.4473 17.3902C47.4473 15.8902 46.9981 14.4898 46.4473 13.0894C46.3965 12.8902 46.2969 12.8394 46.0469 12.939C45.4961 13.2398 44.8965 13.439 44.2969 13.7398C41.9961 14.8902 39.6465 15.8394 37.2969 16.7906C37.1973 16.8414 37.0469 16.941 36.8965 16.7398C37.4473 16.4898 37.9473 16.2906 38.4961 16.0894C40.8457 15.0386 43.1953 13.8902 45.4961 12.689C45.9454 12.4898 45.7969 12.3394 45.5469 12.1382C45.1973 11.8882 44.8477 11.689 44.4961 11.4878C43.9961 11.2378 43.4961 11.1871 42.9961 11.4371C40.9961 12.3863 38.9453 13.2867 36.9451 14.1871C36.4959 14.3863 35.9959 14.5875 35.4451 14.5875C37.7459 13.4879 39.9959 12.3883 42.2461 11.1383C41.8965 11.0386 41.5469 10.9879 41.1953 11.1383C40.0957 11.6383 38.9453 12.1383 37.8457 12.6383C37.0957 12.939 36.3965 13.3375 35.5449 13.4391C36.9453 12.6891 38.4941 12.1891 39.7949 11.1383C37.9941 11.2379 36.4941 12.3883 34.7949 12.6383C35.6953 11.9879 36.7949 11.6891 37.7441 11.0387C35.9433 11.2887 34.5449 12.4879 32.8437 12.9391C33.8437 12.1383 35.0429 11.6891 36.0429 10.9391C33.3437 11.4391 30.8924 12.6383 28.2929 13.4391C29.8437 12.5387 31.4921 11.9391 33.0937 11.2399C30.6933 11.8395 28.3945 12.7907 25.8947 13.0407C27.1955 12.3903 28.5451 11.8903 29.9455 11.1403C28.8459 10.941 27.9963 11.3395 27.1447 11.6403C26.9943 11.691 26.8439 11.8395 26.7443 11.691C26.6447 11.4918 26.8947 11.441 26.9943 11.2906C27.0451 11.2399 27.1447 11.2399 27.1447 11.191C26.0451 10.691 25.1447 11.4918 24.1447 11.7418C24.1447 11.4411 24.4455 11.4411 24.4455 11.2926C24.2463 11.0934 23.9455 11.1422 23.6955 11.0934C21.1447 10.8942 18.596 11.193 16.045 10.9938C14.7442 10.8942 13.4942 10.9938 12.1954 11.0446C10.2462 11.0953 8.295 11.0446 6.4964 11.8942C5.9964 12.1442 5.3968 12.1442 5.096 12.695C4.94561 12.945 4.596 13.2458 4.79522 13.5446C4.99444 13.8453 4.79522 13.945 4.64483 14.0446C4.49444 14.1442 4.34405 14.2438 4.24444 14.3942C4.04522 14.6442 4.04522 14.945 4.19366 15.1442C4.34405 15.2946 4.49444 15.0446 4.69366 14.9938C4.99444 14.8434 5.24446 14.6442 5.59406 14.6442C5.69367 14.6442 5.84406 14.5446 5.89484 14.7438C5.94562 14.8942 5.84406 14.943 5.69562 14.9938C5.39484 15.1442 5.14482 15.2438 4.84602 15.443C4.34602 15.7926 3.84602 16.1422 4.04522 16.943C5.19562 16.2926 6.24442 15.3922 7.54522 15.0934C6.59602 15.7926 5.59602 16.443 4.59602 17.0934C4.09602 17.3942 3.74642 17.7926 3.79522 18.443C3.846 18.7926 3.99444 18.8434 4.19561 18.6422C4.84601 18.1422 5.59601 17.8414 6.29521 17.443C6.49443 17.2926 6.74443 17.193 7.04521 17.2438C6.89482 17.5446 6.6956 17.6442 6.44561 17.7438C5.64481 18.1442 4.94561 18.693 4.19561 19.193C3.89483 19.3922 3.69561 19.5934 3.69561 19.9938C3.64483 21.0934 3.596 22.2438 3.54522 23.443C4.44562 22.8922 5.19562 22.2438 6.24442 21.943C6.24442 22.2438 6.0452 22.3434 5.94364 22.443C5.24444 22.7438 4.64284 23.2926 3.99444 23.7438C3.59405 23.9938 3.54522 24.2946 3.54522 24.693C3.54522 24.9938 3.64483 25.1422 3.94561 24.943C4.24639 24.7438 4.54521 24.5426 4.89481 24.3434C5.44561 24.0426 6.04521 23.8942 6.39481 24.0426C6.34403 24.0934 6.2952 24.1422 6.19559 24.193C5.24639 24.5426 4.49639 25.1422 3.64479 25.7438C3.34401 25.943 3.19557 26.193 3.19557 26.5446C3.19557 27.445 3.14479 28.2946 3.14479 29.195C3.14479 29.3942 3.09401 29.6442 3.2444 29.7458C3.44362 29.945 3.59401 29.6462 3.7444 29.5466C4.9944 28.6462 6.344 27.8474 7.6936 27.1462C8.2444 26.8454 8.844 26.5466 9.4944 26.3454C9.44362 26.6462 9.2444 26.695 9.04518 26.7946C7.09598 27.7438 5.24438 28.945 3.54518 30.2946C3.29518 30.4938 3.14479 30.695 3.14479 30.9938C3.09401 31.4938 3.09401 31.943 3.09401 32.443C3.09401 32.6422 3.14479 32.693 3.34401 32.5934C3.4944 32.4938 3.59401 32.443 3.7444 32.3434C5.4944 31.1442 7.2444 29.8434 9.0939 28.7926C9.54312 28.5426 9.9435 28.2418 10.4943 28.2418C9.7951 28.7926 8.9943 29.2418 8.2443 29.7418C6.6935 30.8414 5.1447 31.941 3.6447 33.0426C2.9455 33.5426 2.6955 34.193 2.8439 35.0934C5.1447 33.2926 7.5431 31.693 10.1449 30.3434C10.1449 30.6442 9.99451 30.693 9.84412 30.7926C7.79332 32.0934 5.74452 33.443 3.79312 34.8922C2.94352 35.4918 2.69352 36.0426 2.99232 36.943V37.0426C3.09193 37.5426 3.69152 37.8922 4.04312 37.693C5.09392 36.8922 6.24232 36.2438 7.39272 35.5934C8.14272 35.1442 8.89272 34.7926 9.79312 34.4938C9.74234 34.7946 9.49234 34.8434 9.3439 34.9431C7.7443 35.8923 6.1447 36.7927 4.6447 37.8435C4.54509 37.9431 4.29509 37.9431 4.3947 38.1442C4.44548 38.2438 4.54509 38.2946 4.69548 38.2946C4.99626 38.3454 4.84587 38.0954 4.84587 37.9938C4.89665 37.7438 5.04509 37.8435 5.19548 37.8942C5.69548 38.0935 6.04508 38.3435 6.64468 37.945C7.74428 37.2458 8.94548 36.5954 10.0939 35.945C10.6935 35.5954 11.4435 35.3454 11.8439 35.3942C10.0939 36.445 8.44348 37.4938 6.64488 38.3434C7.14488 38.2438 7.59408 38.443 8.04528 38.4938C9.19568 38.5934 10.2953 38.1442 11.3949 38.193C11.8441 38.193 12.3441 38.1422 12.6957 37.7926C13.2465 37.2418 13.9965 36.943 14.6449 36.4918C14.7953 36.3922 14.9457 36.2418 15.2445 36.3414C14.7445 36.8414 14.0453 37.0914 13.5941 37.5914C13.3949 37.7907 12.7933 37.7907 13.0433 38.191C13.2425 38.441 13.7933 38.3903 14.1937 38.191C14.2445 38.191 14.2445 38.1403 14.2933 38.1403C15.0941 37.691 15.8929 37.2399 16.6937 36.7907C16.7933 36.7399 16.8929 36.5914 16.9945 36.7399C17.0941 36.8903 16.9437 36.9899 16.8441 37.0407C16.1937 37.4411 15.4945 37.8415 14.8441 38.1911C14.8949 38.3903 15.0941 38.2907 15.1449 38.3415C15.3949 38.8415 15.5941 38.6422 15.9457 38.4411C16.3949 38.1911 16.8949 37.9918 17.4457 37.9411C16.9457 38.3415 16.4457 38.6403 15.8949 38.9411C15.5941 39.0915 15.3949 39.3415 15.3949 39.6911C15.3949 40.2907 15.1956 40.8415 14.9945 41.3903C14.7952 41.8903 14.6449 42.3903 14.4437 42.9899C15.4437 42.3395 16.2445 41.5895 17.4437 41.4391C17.3441 41.7398 17.1429 41.7887 16.9437 41.8883C16.2933 42.1891 15.6937 42.5875 15.1429 43.0387C14.5511 43.9996 13.6507 44.4 13.5003 45.3492L13.5 45.3495Z" fill="black"/>
<path d="M13.5002 45.4006C14.8498 44.7014 16.051 43.7014 17.5998 43.301C17.4494 43.7014 17.1506 43.7502 16.9006 43.9006C15.8498 44.4514 14.8498 45.1506 13.8498 45.801C13.799 45.8518 13.6994 45.9006 13.6506 45.9514C13.551 46.051 13.4006 46.051 13.301 45.9514C13.2013 45.8518 13.3517 45.7522 13.4006 45.6506C13.4494 45.551 13.5002 45.4495 13.5002 45.4006L13.5002 45.4006Z" fill="black"/>
<path d="M11.2496 32.0994C10.5504 32.4998 9.89998 32.9002 9.19878 33.2986C7.39798 34.2986 5.69878 35.449 4.09928 36.7986C3.99967 36.9002 3.84928 36.9998 3.69889 36.9002C3.5485 36.7498 3.69889 36.5994 3.74967 36.4998C3.84928 36.2498 4.09928 36.199 4.30047 36.0506C6.30047 34.5506 8.30047 33.1502 10.65 32.1502C10.8492 32.0506 10.9996 31.9998 11.2496 32.0994L11.2496 32.0994Z" fill="black"/>
<path d="M39.0508 18.1989C39.4004 17.7986 39.8008 17.7497 40.1016 17.5485C41.9512 16.5485 43.9024 15.7477 45.7521 14.6989C46.0021 14.5485 46.4513 14.1989 46.6017 14.6482C46.7521 14.9978 46.2013 14.9978 46.0021 15.0974C44.3517 15.8982 42.7521 16.7478 41.1017 17.4978C40.4493 17.7497 39.8497 18.0505 39.0509 18.1989L39.0508 18.1989Z" fill="black"/>
<path d="M36.5508 15.449C37.3516 15.0486 38.1504 14.699 38.9004 14.3494C40.5 13.5994 42.0996 12.8494 43.7012 12.0486C43.752 11.9978 43.8516 11.9978 43.9004 11.949C44.0996 11.8982 44.3496 11.699 44.5 11.949C44.6504 12.2986 44.25 12.2497 44.0996 12.2986C41.7988 13.4978 39.4004 14.449 37.0001 15.449C36.9005 15.5505 36.7501 15.5994 36.5509 15.449H36.5508Z" fill="black"/>
<path d="M46.75 16.4999C44.5 17.4491 42.5 18.6503 40.25 19.4491C42.25 18.3983 44.1504 17.1483 46.25 16.2987C46.4004 16.1991 46.5508 16.3007 46.75 16.4999V16.4999Z" fill="black"/>
<path d="M3.65024 28.551C3.55063 28.551 3.45102 28.551 3.45102 28.4514C3.40024 28.301 3.5018 28.2522 3.60141 28.1506C4.30061 27.4006 5.15221 26.8498 6.00181 26.2502C6.70101 25.7502 7.40221 25.3498 8.20101 25.051C8.3514 25.0003 8.50179 24.9007 8.55062 25.051C8.65023 25.2503 8.45101 25.2503 8.3514 25.301C7.6014 25.7014 6.8006 26.1506 6.1522 26.7014C5.5526 27.2014 4.9022 27.7014 4.3026 28.2014C4.05064 28.3499 3.84947 28.5003 3.65025 28.5511L3.65024 28.551Z" fill="black"/>
<path d="M13.699 35.9489C13.699 36.2497 13.449 36.2986 13.2498 36.3493C12.0994 36.8493 11.0994 37.5993 9.9998 38.1989C9.69902 38.3493 9.1502 38.7497 9.0506 38.5485C8.85138 38.1482 9.45099 37.9977 9.701 37.8493C10.9002 37.0993 12.1502 36.3493 13.5018 35.9001C13.5995 35.949 13.6502 35.949 13.6991 35.949L13.699 35.9489Z" fill="black"/>
<path d="M41.5 25.801C43.0508 25.1506 44.5508 24.301 46.0508 23.6018C46.1504 23.551 46.25 23.5022 46.4004 23.5022C46.5996 23.4514 46.8008 23.4514 46.8496 23.6526C46.9492 23.9026 46.6992 23.9026 46.5489 24.0022C45.2481 24.553 43.9492 25.1018 42.6484 25.6526C42.25 25.6994 41.9004 25.8498 41.5 25.801V25.801Z" fill="black"/>
<path d="M41.5996 22.3011C41.8496 22.0003 42.25 21.9515 42.5996 21.8011C43.8496 21.1507 45.1504 20.5511 46.4492 19.9515C46.5488 19.9007 46.6484 19.8519 46.7988 19.8519C46.9492 19.8011 47.1484 19.8519 47.1992 20.0511C47.25 20.2503 47.0488 20.2503 46.9492 20.3011C46.4492 20.5003 45.9492 20.7503 45.4492 20.9515C44.25 21.3519 43.1992 21.9515 42 22.3519C41.8496 22.3499 41.75 22.4495 41.5996 22.3011L41.5996 22.3011Z" fill="black"/>
<path d="M41.1992 24.0994C42 23.699 42.7988 23.2986 43.5996 22.9002C44.3496 22.5506 45.0488 22.1502 45.75 21.7498C45.9004 21.6502 46.0996 21.6502 46.25 21.5506C46.4492 21.451 46.5508 21.5506 46.6504 21.701C46.7012 21.8514 46.5508 21.9002 46.4512 22.0017C45.6504 22.4021 44.8008 22.8025 44.002 23.1521C43.1524 23.5018 42.3028 23.8513 41.502 24.2029C41.4512 24.2537 41.3516 24.2029 41.3028 24.2029C41.25 24.199 41.1993 24.1502 41.1993 24.0994L41.1992 24.0994Z" fill="black"/>
<path d="M42.6504 27.0996C43.8008 26.5 44.9004 25.9004 45.9512 25.2988C46.3008 25.0996 46.6504 24.9492 47.002 24.7988C47.1524 24.748 47.3028 24.748 47.3516 24.8984C47.4024 25.0488 47.4024 25.1484 47.252 25.248C45.8028 25.8984 44.4024 26.6484 42.9024 27.1972C42.8497 27.1992 42.8008 27.1503 42.6504 27.0995L42.6504 27.0996Z" fill="black"/>
<path d="M12.25 47.8496C13.5508 46.5488 15.0508 45.7988 16.6504 45.1504C16.5996 45.4004 12.6993 47.8496 12.25 47.8496Z" fill="black"/>
<path d="M42.4492 20.051C43.4492 19.551 44.3984 19.051 45.3496 18.551C45.7988 18.301 46.2988 18.1018 46.7988 17.9514C46.9492 17.9007 47.248 17.8518 47.2988 18.0511C47.3984 18.3011 47.0996 18.3011 46.9492 18.3518C45.5996 18.9514 44.25 19.5022 42.9492 20.051C42.8496 20.0999 42.75 20.1506 42.4492 20.051L42.4492 20.051Z" fill="black"/>
<path d="M43.5 28.4006C44.4004 27.9006 45.25 27.4006 46.1504 26.9514C46.4004 26.801 46.7012 26.6506 46.9512 26.5021C47.1016 26.4514 47.252 26.4514 47.3008 26.6018C47.3516 26.7014 47.3516 26.8518 47.2012 26.9025C46.002 27.5021 44.9004 28.2033 43.5508 28.5021C43.5508 28.5002 43.5508 28.4494 43.5 28.4006L43.5 28.4006Z" fill="black"/>
<path d="M20.5999 38.0996C20.4495 38.4492 20.0999 38.4492 19.8499 38.5996C18.8499 39.1992 17.8499 39.8496 16.9007 40.5488C16.8011 40.6484 16.7014 40.748 16.5511 40.5996C16.4007 40.4004 16.6018 40.3496 16.7014 40.2988C17.801 39.4492 18.9006 38.6484 20.2014 38.0996C20.3011 38.0488 20.4007 38.0488 20.4514 38C20.5003 38 20.5511 38.0508 20.5999 38.0996H20.5999Z" fill="black"/>
<path d="M44.1504 30.0509C44.1504 29.7502 44.4004 29.7013 44.5508 29.6017C45.3516 29.1525 46.1016 28.6525 46.9512 28.2521C47.2012 28.1525 47.4004 28.1017 47.502 28.3517C47.6524 28.6525 47.3028 28.6525 47.2012 28.7013C46.1504 29.0509 45.3008 29.8009 44.1504 30.0509H44.1504Z" fill="black"/>
<path d="M6.6499 20.051C6.59912 20.2502 6.59912 20.3518 6.55029 20.3518C5.80029 20.6018 5.24949 21.2014 4.5503 21.551C4.45069 21.6018 4.3003 21.801 4.20069 21.6018C4.10108 21.4514 4.25147 21.3518 4.35108 21.2522C4.94872 20.6506 5.80027 20.5002 6.64992 20.051H6.6499Z" fill="black"/>
<path d="M45.1985 36.699C45.1477 36.699 45.0989 36.6483 45.0481 36.6483C44.9993 36.5994 44.9993 36.4998 45.0501 36.449C45.6497 36.0994 46.3001 35.7498 46.8997 35.3982C46.9504 35.3475 47.05 35.3982 47.0989 35.449C47.1497 35.4998 47.1497 35.5994 47.0481 35.6482C46.4992 36.0506 45.8489 36.4002 45.1985 36.699Z" fill="black"/>
<path d="M132.52 29.0306H137.48C137.584 29.0306 137.679 28.9774 137.737 28.8926C137.793 28.8054 137.805 28.6964 137.766 28.602L137.146 27.0835C137.098 26.9672 136.986 26.8921 136.86 26.8921H135.31V22.2542C135.896 22.0968 136.277 21.5301 136.199 20.9295C136.122 20.3264 135.608 19.876 135 19.876C134.392 19.876 133.879 20.3264 133.801 20.9295C133.724 21.5301 134.104 22.0968 134.69 22.2542V26.8921H133.14C133.014 26.8921 132.903 26.9672 132.854 27.0835L132.234 28.602C132.196 28.6964 132.208 28.8054 132.264 28.8926C132.322 28.9774 132.416 29.0306 132.52 29.0306H132.52ZM134.443 21.094C134.443 20.8567 134.586 20.6411 134.807 20.5491C135.027 20.4595 135.279 20.5079 135.448 20.6775C135.615 20.847 135.666 21.0989 135.574 21.3193C135.485 21.5397 135.269 21.6826 135.032 21.6826C134.87 21.6923 134.712 21.6341 134.593 21.5227C134.477 21.4113 134.412 21.2563 134.412 21.0941L134.443 21.094ZM133.32 27.5123H136.681L137.047 28.4108H132.954L133.32 27.5123Z" fill="black"/>
<path d="M150.786 21.0941C150.778 25.4874 148.945 29.6799 145.726 32.6683C145.658 32.724 145.617 32.8039 145.612 32.8887C145.605 32.9735 145.637 33.0582 145.695 33.1212C145.753 33.1842 145.835 33.2205 145.92 33.2205C146.007 33.2205 146.089 33.1842 146.148 33.1212C149.502 30.0212 151.41 25.662 151.413 21.0944C151.415 16.5268 149.512 12.1652 146.16 9.06024C146.102 8.99727 146.019 8.96094 145.932 8.96094C145.847 8.96094 145.765 8.99727 145.707 9.06024C145.649 9.12321 145.617 9.20797 145.624 9.29274C145.629 9.37992 145.67 9.45985 145.738 9.51313C148.955 12.5066 150.783 16.7014 150.785 21.0947L150.786 21.0941Z" fill="black"/>
<path d="M123.84 33.1284C123.898 33.1914 123.98 33.2277 124.068 33.2253C124.152 33.2253 124.235 33.1914 124.293 33.1284C124.351 33.0655 124.382 32.9807 124.375 32.8959C124.37 32.8087 124.329 32.7288 124.261 32.6755C121.035 29.6894 119.202 25.4947 119.202 21.1014C119.202 16.7057 121.035 12.5113 124.261 9.52472C124.39 9.40847 124.399 9.20988 124.283 9.08152C124.167 8.95316 123.968 8.94347 123.84 9.05973C120.488 12.1621 118.582 16.5239 118.582 21.0914C118.582 25.659 120.488 30.0182 123.84 33.1207L123.84 33.1284Z" fill="black"/>
<path d="M127.294 29.4085C127.352 29.4714 127.434 29.5078 127.521 29.5053C127.606 29.5053 127.689 29.4714 127.747 29.4085C127.805 29.3455 127.836 29.2607 127.829 29.176C127.824 29.0888 127.783 29.0088 127.715 28.9556C125.519 26.9309 124.269 24.0803 124.269 21.094C124.269 18.1076 125.519 15.2572 127.715 13.2324C127.783 13.1791 127.824 13.0992 127.829 13.012C127.836 12.9272 127.805 12.8424 127.747 12.7795C127.689 12.7165 127.606 12.6802 127.521 12.6802C127.434 12.6802 127.352 12.7165 127.294 12.7795C124.969 14.9204 123.646 17.9356 123.646 21.0962C123.646 24.2567 124.969 27.2719 127.294 29.4128V29.4085Z" fill="black"/>
<path d="M142.265 29.3965C142.324 29.4547 142.403 29.4886 142.486 29.4886C142.568 29.4886 142.648 29.4547 142.706 29.3965C145.031 27.2556 146.354 24.2379 146.354 21.0799C146.354 17.9193 145.031 14.9017 142.706 12.7607C142.648 12.6977 142.566 12.6638 142.479 12.6638C142.394 12.6638 142.311 12.7001 142.253 12.7631C142.195 12.8237 142.164 12.9084 142.171 12.9956C142.176 13.0804 142.217 13.1603 142.285 13.2136C144.481 15.2383 145.731 18.0888 145.731 21.0752C145.731 24.0638 144.481 26.9143 142.285 28.9368C142.217 28.9949 142.178 29.0748 142.173 29.162C142.171 29.2492 142.205 29.334 142.265 29.3969V29.3965Z" fill="black"/>
<path d="M139.073 25.9475C139.131 26.0081 139.211 26.0395 139.293 26.0395C139.376 26.0395 139.456 26.0081 139.514 25.9475C140.875 24.693 141.648 22.9274 141.648 21.0747C141.648 19.2244 140.875 17.4564 139.514 16.2019C139.453 16.1389 139.373 16.105 139.286 16.105C139.201 16.105 139.119 16.1389 139.061 16.2019C139 16.2648 138.971 16.3496 138.979 16.4344C138.983 16.5215 139.025 16.6015 139.092 16.6547C140.325 17.793 141.028 19.3939 141.028 21.0722C141.028 22.7506 140.325 24.3515 139.092 25.4897C139.025 25.5454 138.983 25.6278 138.981 25.715C138.976 25.8022 139.01 25.8869 139.073 25.9475V25.9475Z" fill="black"/>
<path d="M130.697 26.0467C130.825 26.0491 130.942 25.9692 130.99 25.8505C131.036 25.7318 131.004 25.5938 130.908 25.509C129.675 24.3708 128.973 22.7699 128.973 21.0915C128.973 19.4132 129.675 17.8099 130.908 16.674C130.975 16.6183 131.017 16.5408 131.021 16.4536C131.029 16.3689 131 16.2841 130.939 16.2211C130.881 16.1582 130.799 16.1218 130.714 16.1218C130.627 16.1218 130.547 16.1582 130.486 16.2211C129.125 17.4756 128.353 19.2436 128.353 21.094C128.353 22.9443 129.125 24.7122 130.486 25.9668C130.544 26.0201 130.619 26.0491 130.697 26.0467V26.0467Z" fill="black"/>
<path d="M141.33 41.4865C138.906 35.6522 138.906 35.6522 138.131 29.7741V29.7426V29.6942L138.095 29.6312L138.039 29.5876H132.086C132.001 29.5901 131.919 29.624 131.863 29.6869C131.822 29.733 131.795 29.7935 131.788 29.8541C131.013 35.7005 131.013 35.7005 128.589 41.5423C126.644 46.0228 124.397 50.3699 121.868 54.5499C121.851 54.5838 121.839 54.6225 121.837 54.6613V54.6976C121.829 54.7388 121.829 54.78 121.837 54.8211C121.856 54.8454 121.88 54.8672 121.904 54.8841C121.953 54.9447 122.028 54.9786 122.103 54.9713H131.521C131.657 54.9713 131.778 54.8841 131.819 54.7533L133.226 50.3213H136.736L138.143 54.7533C138.184 54.8841 138.305 54.9713 138.441 54.9713H147.804H147.801C147.93 54.9713 148.044 54.8962 148.092 54.7775C148.138 54.6613 148.111 54.5257 148.019 54.4385C145.501 50.2753 143.265 45.9476 141.33 41.4861L141.33 41.4865ZM128.465 43.3465L134.38 46.9164L123.033 53.7996C125.029 50.409 126.843 46.9145 128.47 43.3346L128.465 43.3465ZM129.42 43.1964H140.488L134.964 46.5507L129.42 43.1964ZM129.638 42.5764L134.944 39.1543L140.25 42.5764H129.638ZM141.418 43.332V43.3345C143.043 46.914 144.854 50.4087 146.847 53.7994L135.557 46.9162L141.418 43.332ZM140.972 42.3149L135.499 38.7814L138.746 36.6865C139.148 37.9265 139.739 39.3457 140.73 41.7264L140.972 42.3149ZM137.562 30.4431C137.86 32.6809 138.046 34.0275 138.337 35.2409L135.358 32.4339L137.562 30.4431ZM134.908 32.0004L132.885 30.1404H137.015L134.908 32.0004ZM138.17 35.8826H131.483L134.893 32.8383L138.17 35.8826ZM137.903 36.5026L134.966 38.399L132.023 36.5147L137.903 36.5026ZM132.323 30.4455L134.438 32.4169L131.616 34.9405C131.868 33.8119 132.047 32.509 132.321 30.4576L132.323 30.4455ZM131.139 36.6455L134.38 38.784L128.906 42.3175L129.153 41.729C130.151 39.3483 130.74 37.9267 131.144 36.6867L131.139 36.6455ZM137.262 49.9805C137.223 49.8497 137.102 49.7625 136.966 49.7625H133.004C132.866 49.7625 132.747 49.8497 132.706 49.9805L131.28 54.4004H123.22L134.963 47.2778L146.68 54.4004H138.671L137.262 49.9805Z" fill="black"/>
<path d="M260.452 8.30411C252.038 4.86324 239.755 9.72848 232.08 13.3267C228.803 14.8629 227.093 17.3907 226.242 20.8956C225.635 23.3904 224.877 28.684 226.486 31.0796C226.509 31.1127 226.542 31.1355 226.565 31.1686C223.453 35.8765 220.037 43.4084 227.552 45.2571C234.863 47.0562 242.363 44.9859 246.756 38.6962C248.042 36.8557 248.779 35.1974 249.166 33.479C250.392 33.2306 251.615 32.9531 252.833 32.6467V47.9007C252.833 48.1657 253.065 48.3085 253.319 48.3085H256.566C257.021 48.3623 257.655 48.1139 257.655 47.7413V31.3155C260.855 30.3611 264.031 29.3031 267.182 28.2825C267.429 28.2017 267.82 27.9864 267.812 27.6676C267.64 20.5269 268.22 11.4798 260.452 8.304L260.452 8.30411ZM233.167 14.1527C233.325 14.0802 233.488 14.016 233.646 13.9456C238.37 13.2231 241.784 14.7116 244.09 17.49C241.233 17.432 238.275 17.2147 235.476 17.5252C234.333 17.6515 233.527 18.049 232.95 18.6204C232.714 18.7363 232.559 18.8854 232.594 19.0365C231.159 20.995 231.699 24.4134 231.699 26.9494C231.699 28.525 231.447 30.2909 232.67 31.5103C233.287 32.1253 234.016 32.3551 234.782 32.444C233 32.2681 229.559 32.2577 228.287 30.9493C227.321 29.9535 227.331 27.7341 227.277 26.4898C227.058 21.4797 228.296 16.3785 233.167 14.153L233.167 14.1527ZM247.895 32.5145C243.699 33.0694 239.349 32.9141 235.151 32.4772C235.633 32.5062 236.128 32.4959 236.618 32.4959H247.897C247.897 32.5021 247.897 32.5083 247.895 32.5145H247.895ZM240.107 31.5084C238.745 31.5084 237.281 31.6574 235.925 31.5084C234.933 31.4007 234.31 30.9908 233.907 30.4152C235.65 28.581 237.391 26.7466 239.134 24.9122C239.614 25.2186 240.095 25.5126 240.567 25.7818C243.122 27.2331 245.181 26.9059 247.504 25.6513C247.567 26.0095 247.629 26.3698 247.676 26.7362C247.898 28.4359 248.074 29.9907 247.991 31.5103C245.364 31.5083 242.736 31.5083 240.107 31.5083L240.107 31.5084ZM233.246 27.6099V22.2479C233.246 21.4819 233.3 20.7946 233.497 20.2149C234.816 21.7283 236.472 23.1071 238.172 24.2748C236.588 25.9435 235.002 27.6122 233.418 29.2788C233.296 28.7632 233.246 28.198 233.246 27.6101L233.246 27.6099ZM241.896 25.1442C240.705 24.4714 239.596 23.6557 238.525 22.8089C237.089 21.6744 235.575 20.4384 234.412 18.9892C234.745 18.7698 235.174 18.6062 235.72 18.5068C238.554 17.9934 241.916 18.4944 244.807 18.4903C244.815 18.4903 244.826 18.4861 244.834 18.4861C246.033 20.2708 246.861 22.4549 247.356 24.8647C245.451 25.9785 243.807 26.2249 241.896 25.1442L241.896 25.1442ZM233.468 44.7542C231.128 44.8163 226.528 44.6155 225.019 42.5618C223.82 40.9304 224.667 38.3259 225.29 36.6406C225.874 35.063 226.671 33.5269 227.576 32.0922C229.305 33.2205 231.992 33.353 233.797 33.5704C238.323 34.1107 243.101 34.3178 247.648 33.7319C247.492 34.3198 247.296 34.9099 247.014 35.5103C244.457 40.9449 239.598 44.5929 233.468 44.754L233.468 44.7542ZM254.341 47.425C254.397 47.4953 254.364 47.5388 254.341 47.425V47.425ZM256.111 47.4105C255.467 47.4726 254.782 47.5181 254.335 47.3691C254.32 47.2573 254.32 47.0668 254.376 46.7252C254.74 44.5266 254.376 41.949 254.376 39.7213C254.376 37.5081 254.658 35.0858 254.376 32.889C254.345 32.6509 254.368 32.4232 254.384 32.2389C254.96 32.0837 255.535 31.9263 256.109 31.7628C256.111 36.9779 256.111 42.1953 256.111 47.41L256.111 47.4105ZM260.475 29.1583C256.815 30.2763 253.13 31.4212 249.382 32.2245C249.581 30.6075 249.521 28.8954 249.287 26.8831C248.366 18.9623 244.525 12.8731 236.983 12.5837C240.654 11.2215 244.54 10.1532 248.246 9.31056C254.181 7.96277 262.535 7.77234 264.93 14.7552C266.035 17.9787 266.907 23.6868 266.228 27.0009C266.187 27.2059 266.226 27.3114 266.286 27.3632C266.135 27.3901 265.897 27.4522 265.526 27.5785C263.862 28.154 262.16 28.6447 260.475 29.1582L260.475 29.1583Z" fill="black"/>
<line opacity="0.5" x1="74" y1="32.5" x2="101" y2="32.5" stroke="black"/>
<line opacity="0.5" x1="176" y1="32.5" x2="203" y2="32.5" stroke="black"/>
</svg>
