<svg width="158" height="191" viewBox="0 0 158 191" fill="none" xmlns="http://www.w3.org/2000/svg">
<path d="M23.0157 181.238L6.3622 168.55L20.4173 156.211L4 133.279L20.4173 122.453L4 95.0981L23.0157 90.6747L11.3228 63.3193H27.9764L20.4173 33.0538L41.6772 37.4772L45.1024 14.3125L58.3307 26.6515L67.8976 5L79.5906 22.2281L91.4016 5L98.252 24.4398L123.291 22.2281L113.843 37.4772L131.205 43.5303L121.402 54.3561L145.26 63.3193L131.205 75.3091L151.402 82.4099L136.165 95.0981L151.402 111.279L138.055 123.618L154 137.819L138.055 151.322L151.402 164.36L136.165 177.513" stroke="#37352F" stroke-width="4"/>
<path d="M24.1904 189.481C15.6134 135.612 14.5443 27.8716 78.884 27.8716" stroke="#37352F" stroke-width="8"/>
<path d="M133.577 189.365C142.154 135.495 143.224 27.7554 78.8839 27.7554" stroke="#37352F" stroke-width="8"/>
<path d="M63.4429 104.613C63.6836 107.245 66.389 112.508 75.285 112.508" stroke="#37352F" stroke-width="4"/>
<circle cx="59.9599" cy="86.7338" r="7.19814" fill="#37352F"/>
<ellipse cx="59.8437" cy="85.1085" rx="3.59907" ry="3.48297" fill="white"/>
<circle cx="86.1981" cy="86.7338" r="7.19814" fill="#37352F"/>
<ellipse cx="86.082" cy="85.1085" rx="3.59907" ry="3.48297" fill="white"/>
</svg>
