<svg fill="none" viewBox="0 0 158 191"><path stroke="#37352F" stroke-width="4" d="M23.016 181.238L6.362 168.55l14.055-12.339L4 133.279l16.417-10.826L4 95.098l19.016-4.423-11.693-27.356h16.653l-7.559-30.265 21.26 4.423 3.425-23.164L58.331 26.65 67.898 5 79.59 22.228 91.4 5l6.851 19.44 25.039-2.212-9.448 15.25 17.362 6.052-9.803 10.826 23.858 8.963-14.055 11.99 20.197 7.1-15.237 12.69 15.237 16.18-13.347 12.339L154 137.819l-15.945 13.503 13.347 13.038-15.237 13.153"/><path stroke="#37352F" stroke-width="8" d="M24.19 189.481c-8.577-53.869-9.646-161.61 54.694-161.61m54.693 161.494c8.577-53.87 9.647-161.61-54.693-161.61"/><path stroke="#37352F" stroke-width="4" d="M63.443 104.613c.24 2.632 2.946 7.895 11.842 7.895"/><circle cx="59.96" cy="86.734" r="7.198" fill="#37352F"/><ellipse cx="59.844" cy="85.109" fill="#fff" rx="3.599" ry="3.483"/><circle cx="86.198" cy="86.734" r="7.198" fill="#37352F"/><ellipse cx="86.082" cy="85.109" fill="#fff" rx="3.599" ry="3.483"/></svg>