<svg width="776" height="381" viewBox="0 0 776 381" fill="none" xmlns="http://www.w3.org/2000/svg">
<path d="M418.664 63.264L420.36 67.744H416.968L418.664 63.264ZM413.432 72H415.368L416.36 69.36H420.968L421.96 72H423.896L419.528 60.8H417.784L413.432 72ZM424.887 72H426.631V67.92C426.631 66.384 427.319 65.312 428.519 65.312C429.543 65.312 430.103 65.984 430.103 66.992V72H431.831V67.92C431.831 66.368 432.519 65.312 433.719 65.312C434.743 65.312 435.319 65.984 435.319 66.992V72H437.063V66.56C437.063 64.928 435.943 63.808 434.215 63.808C432.951 63.808 431.991 64.528 431.559 65.408C431.223 64.368 430.295 63.808 428.999 63.808C427.831 63.808 427.063 64.416 426.631 65.296V63.936H424.887V72ZM443.762 66.784V66.896L442.242 67.056C439.762 67.312 438.53 68.16 438.53 69.744C438.53 71.12 439.634 72.128 441.234 72.128C442.306 72.128 443.298 71.584 443.762 70.768V72H445.474V66.976C445.474 64.96 444.066 63.808 442.018 63.808C440.306 63.808 438.93 64.848 438.674 66.432L440.242 66.72C440.354 65.76 441.042 65.184 442.018 65.184C443.074 65.184 443.762 65.792 443.762 66.784ZM440.242 69.696C440.242 68.992 440.914 68.512 442.226 68.368L443.762 68.192V68.528C443.746 69.84 442.946 70.784 441.586 70.784C440.77 70.784 440.242 70.336 440.242 69.696ZM446.852 72H453.7V70.512H449.06L453.636 65.264V63.936H447.124V65.424H451.46L446.852 70.672V72ZM458.666 72.128C461.082 72.128 462.826 70.384 462.826 67.968C462.826 65.552 461.082 63.808 458.666 63.808C456.234 63.808 454.506 65.552 454.506 67.968C454.506 70.384 456.234 72.128 458.666 72.128ZM456.266 67.968C456.266 66.416 457.226 65.328 458.666 65.328C460.09 65.328 461.066 66.416 461.066 67.968C461.066 69.52 460.09 70.608 458.666 70.608C457.226 70.608 456.266 69.52 456.266 67.968ZM464.278 72H466.022V68.464C466.022 66.528 466.838 65.376 468.198 65.376C469.222 65.376 469.846 66.08 469.846 67.088V72H471.59V66.688C471.59 64.944 470.39 63.808 468.678 63.808C467.494 63.808 466.566 64.416 466.022 65.28V63.936H464.278V72ZM480.857 72.128C483.369 72.128 485.017 70.832 485.017 68.88C485.017 64.368 478.873 65.936 478.873 63.68C478.873 62.816 479.609 62.304 480.825 62.304C482.105 62.304 482.985 63.024 483.209 64.16L484.889 63.472C484.569 61.792 482.921 60.672 480.825 60.672C478.633 60.672 476.985 61.904 476.985 63.68C476.985 67.712 483.113 66.256 483.113 68.912C483.113 69.872 482.249 70.496 480.921 70.496C479.577 70.496 478.473 69.552 478.281 68.112L476.569 68.64C476.889 70.688 478.681 72.128 480.857 72.128ZM489.911 72.128C492.423 72.128 494.087 70.656 494.087 68.464C494.087 66.32 492.583 65.008 490.423 65.136L493.431 62.352V60.8H486.119V62.432H491.223L487.959 65.52L488.727 66.736C489.079 66.496 489.575 66.384 489.975 66.384C491.335 66.384 492.183 67.136 492.183 68.416C492.183 69.664 491.271 70.48 489.911 70.48C488.631 70.48 487.687 69.728 487.527 68.576L485.799 68.848C486.007 70.832 487.639 72.128 489.911 72.128Z" fill="black" fill-opacity="0.75"/>
<path d="M518.205 269.264L519.901 273.744H516.509L518.205 269.264ZM512.973 278H514.909L515.901 275.36H520.509L521.501 278H523.437L519.069 266.8H517.325L512.973 278ZM524.428 278H526.172V273.92C526.172 272.384 526.86 271.312 528.06 271.312C529.084 271.312 529.644 271.984 529.644 272.992V278H531.372V273.92C531.372 272.368 532.06 271.312 533.26 271.312C534.284 271.312 534.86 271.984 534.86 272.992V278H536.604V272.56C536.604 270.928 535.484 269.808 533.756 269.808C532.492 269.808 531.532 270.528 531.1 271.408C530.764 270.368 529.836 269.808 528.54 269.808C527.372 269.808 526.604 270.416 526.172 271.296V269.936H524.428V278ZM543.303 272.784V272.896L541.783 273.056C539.303 273.312 538.071 274.16 538.071 275.744C538.071 277.12 539.175 278.128 540.775 278.128C541.847 278.128 542.839 277.584 543.303 276.768V278H545.015V272.976C545.015 270.96 543.607 269.808 541.559 269.808C539.847 269.808 538.471 270.848 538.215 272.432L539.783 272.72C539.895 271.76 540.583 271.184 541.559 271.184C542.615 271.184 543.303 271.792 543.303 272.784ZM539.783 275.696C539.783 274.992 540.455 274.512 541.767 274.368L543.303 274.192V274.528C543.287 275.84 542.487 276.784 541.127 276.784C540.311 276.784 539.783 276.336 539.783 275.696ZM546.393 278H553.241V276.512H548.601L553.177 271.264V269.936H546.665V271.424H551.001L546.393 276.672V278ZM558.207 278.128C560.623 278.128 562.367 276.384 562.367 273.968C562.367 271.552 560.623 269.808 558.207 269.808C555.775 269.808 554.047 271.552 554.047 273.968C554.047 276.384 555.775 278.128 558.207 278.128ZM555.807 273.968C555.807 272.416 556.767 271.328 558.207 271.328C559.631 271.328 560.607 272.416 560.607 273.968C560.607 275.52 559.631 276.608 558.207 276.608C556.767 276.608 555.807 275.52 555.807 273.968ZM563.819 278H565.563V274.464C565.563 272.528 566.379 271.376 567.739 271.376C568.763 271.376 569.387 272.08 569.387 273.088V278H571.131V272.688C571.131 270.944 569.931 269.808 568.219 269.808C567.035 269.808 566.107 270.416 565.563 271.28V269.936H563.819V278ZM513.555 300H515.427V295.248H517.507L520.307 300H522.499L519.427 294.928C520.611 294.416 521.315 293.328 521.315 292.016C521.315 290.064 519.907 288.8 517.747 288.8H513.539L513.555 300ZM515.427 293.6V290.432H517.475C518.707 290.432 519.411 291.024 519.411 292.016C519.411 293.024 518.707 293.6 517.475 293.6H515.427ZM522.664 295.968C522.664 298.144 524.12 300.128 526.68 300.128C528.568 300.128 529.944 299.232 530.376 297.68L528.728 297.264C528.52 298.144 527.768 298.64 526.712 298.64C525.432 298.64 524.536 297.776 524.376 296.384H530.536C530.552 296.24 530.568 295.904 530.568 295.664C530.568 293.696 529.192 291.808 526.6 291.808C524.04 291.808 522.664 293.792 522.664 295.968ZM524.456 295.056C524.712 293.856 525.496 293.184 526.6 293.184C527.88 293.184 528.6 293.968 528.712 295.056H524.456ZM535.454 300.128C536.526 300.128 537.502 299.648 537.886 298.976V300H539.63V288.672H537.886V292.944C537.406 292.272 536.462 291.808 535.422 291.808C532.99 291.808 531.598 293.536 531.598 295.968C531.598 298.4 532.99 300.128 535.454 300.128ZM533.342 295.968C533.342 294.368 534.27 293.328 535.678 293.328C537.086 293.328 538.014 294.368 538.014 295.968C538.014 297.552 537.086 298.608 535.678 298.608C534.27 298.608 533.342 297.552 533.342 295.968ZM544.31 300.128C546.134 300.128 547.35 299.056 547.35 297.664C547.35 294.352 542.822 295.536 542.822 293.984C542.822 293.456 543.302 293.152 544.07 293.152C544.806 293.152 545.558 293.6 545.766 294.4L547.206 293.792C546.854 292.608 545.574 291.808 544.054 291.808C542.31 291.808 541.206 292.752 541.206 294.016C541.206 297.072 545.702 295.936 545.702 297.68C545.702 298.256 545.142 298.736 544.31 298.736C543.19 298.736 542.566 298.016 542.294 297.152L540.854 297.76C541.222 298.912 542.342 300.128 544.31 300.128ZM548.756 300H550.5V296.512C550.5 294.544 551.316 293.376 552.66 293.376C553.748 293.376 554.42 294.032 554.42 295.104V300H556.164V294.704C556.164 292.944 554.964 291.808 553.14 291.808C552.004 291.808 551.06 292.32 550.5 293.328V288.672H548.756V300ZM558.05 300H559.794V291.936H558.05V300ZM557.97 290.608H559.89V288.672H557.97V290.608ZM562.454 300H564.198V293.424H566.166V291.936H564.198V291.216C564.198 290.416 564.646 289.904 565.334 289.904C565.606 289.904 565.878 289.952 566.166 290.064L566.262 288.592C565.91 288.48 565.51 288.416 565.11 288.416C563.574 288.416 562.454 289.424 562.454 291.248V291.936H561.126V293.424H562.454V300ZM572.118 299.936L572.006 298.384C571.702 298.528 571.334 298.576 571.03 298.576C570.374 298.576 569.926 298.16 569.926 297.36V293.424H572.006V291.936H569.926V289.536H568.182V291.936H566.774V293.424H568.182V297.456C568.182 299.296 569.318 300.128 570.838 300.128C571.286 300.128 571.734 300.064 572.118 299.936Z" fill="black" fill-opacity="0.75"/>
<path d="M413.212 376.128C415.724 376.128 417.372 374.832 417.372 372.88C417.372 368.368 411.228 369.936 411.228 367.68C411.228 366.816 411.964 366.304 413.18 366.304C414.46 366.304 415.34 367.024 415.564 368.16L417.244 367.472C416.924 365.792 415.276 364.672 413.18 364.672C410.988 364.672 409.34 365.904 409.34 367.68C409.34 371.712 415.468 370.256 415.468 372.912C415.468 373.872 414.604 374.496 413.276 374.496C411.932 374.496 410.828 373.552 410.636 372.112L408.924 372.64C409.244 374.688 411.036 376.128 413.212 376.128ZM418.777 376H420.521V372.464C420.521 370.528 421.337 369.376 422.697 369.376C423.721 369.376 424.345 370.08 424.345 371.088V376H426.089V370.688C426.089 368.944 424.889 367.808 423.177 367.808C421.993 367.808 421.065 368.416 420.521 369.28V367.936H418.777V376ZM431.705 376.128C434.121 376.128 435.865 374.384 435.865 371.968C435.865 369.552 434.121 367.808 431.705 367.808C429.273 367.808 427.545 369.552 427.545 371.968C427.545 374.384 429.273 376.128 431.705 376.128ZM429.305 371.968C429.305 370.416 430.265 369.328 431.705 369.328C433.129 369.328 434.105 370.416 434.105 371.968C434.105 373.52 433.129 374.608 431.705 374.608C430.265 374.608 429.305 373.52 429.305 371.968ZM438.907 376H440.507L442.251 370.384L443.995 376H445.611L448.091 367.936H446.315L444.795 373.568L443.067 367.936H441.451L439.707 373.568L438.187 367.936H436.411L438.907 376ZM450.096 376H451.84V369.424H453.808V367.936H451.84V367.216C451.84 366.416 452.288 365.904 452.976 365.904C453.248 365.904 453.52 365.952 453.808 366.064L453.904 364.592C453.552 364.48 453.152 364.416 452.752 364.416C451.216 364.416 450.096 365.424 450.096 367.248V367.936H448.768V369.424H450.096V376ZM455.184 376H456.928V364.672H455.184V376ZM463.653 370.784V370.896L462.133 371.056C459.653 371.312 458.421 372.16 458.421 373.744C458.421 375.12 459.525 376.128 461.125 376.128C462.197 376.128 463.189 375.584 463.653 374.768V376H465.365V370.976C465.365 368.96 463.957 367.808 461.909 367.808C460.197 367.808 458.821 368.848 458.565 370.432L460.133 370.72C460.245 369.76 460.933 369.184 461.909 369.184C462.965 369.184 463.653 369.792 463.653 370.784ZM460.133 373.696C460.133 372.992 460.805 372.512 462.117 372.368L463.653 372.192V372.528C463.637 373.84 462.837 374.784 461.477 374.784C460.661 374.784 460.133 374.336 460.133 373.696ZM469.015 376V373.232L470.023 372.288L472.727 376H474.855L471.255 371.12L474.599 367.936H472.343L469.015 370.976V364.672H467.255V376H469.015ZM475.007 371.968C475.007 374.144 476.463 376.128 479.023 376.128C480.911 376.128 482.287 375.232 482.719 373.68L481.071 373.264C480.863 374.144 480.111 374.64 479.055 374.64C477.775 374.64 476.879 373.776 476.719 372.384H482.879C482.895 372.24 482.911 371.904 482.911 371.664C482.911 369.696 481.535 367.808 478.943 367.808C476.383 367.808 475.007 369.792 475.007 371.968ZM476.799 371.056C477.055 369.856 477.839 369.184 478.943 369.184C480.223 369.184 480.943 369.968 481.055 371.056H476.799Z" fill="black" fill-opacity="0.75"/>
<path d="M547.273 134H551.721C554.057 134 555.545 132.768 555.545 130.704C555.545 129.184 554.697 128.272 553.609 127.872C554.313 127.552 555.017 126.72 555.017 125.68C555.017 123.84 553.609 122.8 551.529 122.8H547.273V134ZM549.145 132.352V128.88H551.497C553.001 128.88 553.721 129.488 553.721 130.624C553.721 131.76 553.001 132.352 551.497 132.352H549.145ZM549.145 127.264V124.336H551.401C552.617 124.336 553.225 124.848 553.225 125.808C553.225 126.752 552.617 127.264 551.417 127.264H549.145ZM557.002 134H558.746V125.936H557.002V134ZM556.922 124.608H558.842V122.672H556.922V124.608ZM563.999 133.776C565.055 133.776 565.999 133.36 566.399 132.752V133.728C566.399 134.848 565.503 135.616 564.207 135.616C563.151 135.616 562.303 135.088 562.207 134.288L560.575 134.56C560.831 136.032 562.319 137.04 564.207 137.04C566.527 137.04 568.111 135.632 568.111 133.552V125.936H566.383V126.864C565.919 126.24 564.991 125.808 563.967 125.808C561.599 125.808 560.223 127.456 560.223 129.792C560.223 132.128 561.599 133.776 563.999 133.776ZM561.967 129.792C561.967 128.304 562.863 127.328 564.239 127.328C565.599 127.328 566.495 128.304 566.495 129.792C566.495 131.28 565.599 132.256 564.239 132.256C562.863 132.256 561.967 131.28 561.967 129.792ZM574.747 129.888L576.795 132.112C576.315 132.352 575.771 132.48 575.179 132.48C573.019 132.48 571.467 130.768 571.467 128.4C571.467 126.032 573.019 124.304 575.179 124.304C577.339 124.304 578.891 126.032 578.891 128.4C578.891 129.488 578.571 130.432 578.011 131.136L575.915 128.848L574.747 129.888ZM569.579 128.4C569.579 131.712 571.947 134.128 575.179 134.128C576.219 134.128 577.179 133.872 577.995 133.424L579.307 134.848L580.459 133.84L579.211 132.48C580.203 131.456 580.779 130.048 580.779 128.4C580.779 125.088 578.411 122.672 575.179 122.672C571.947 122.672 569.579 125.088 569.579 128.4ZM589.584 125.936H587.84V129.472C587.84 131.408 587.024 132.56 585.664 132.56C584.64 132.56 584.016 131.856 584.016 130.848V125.936H582.272V131.248C582.272 132.992 583.472 134.128 585.184 134.128C586.368 134.128 587.296 133.52 587.84 132.656V134H589.584V125.936ZM591.04 129.968C591.04 132.144 592.496 134.128 595.056 134.128C596.944 134.128 598.32 133.232 598.752 131.68L597.104 131.264C596.896 132.144 596.144 132.64 595.088 132.64C593.808 132.64 592.912 131.776 592.752 130.384H598.912C598.928 130.24 598.944 129.904 598.944 129.664C598.944 127.696 597.568 125.808 594.976 125.808C592.416 125.808 591.04 127.792 591.04 129.968ZM592.832 129.056C593.088 127.856 593.872 127.184 594.976 127.184C596.256 127.184 596.976 127.968 597.088 129.056H592.832ZM605.413 127.632L605.509 125.952C605.269 125.856 604.917 125.808 604.613 125.808C603.637 125.808 602.581 126.512 602.149 127.472V125.936H600.405V134H602.149V130.992C602.149 128.496 603.189 127.44 604.373 127.44C604.741 127.44 605.125 127.504 605.413 127.632ZM611.885 125.936L609.725 131.52L607.613 125.936H605.725L608.861 133.76L607.645 136.912H609.437L613.677 125.936H611.885Z" fill="black" fill-opacity="0.75"/>
<path d="M658.129 220.128C660.641 220.128 662.433 218.784 662.977 216.624L661.105 216.224C660.753 217.632 659.697 218.48 658.129 218.48C656.065 218.48 654.529 217.056 654.529 214.4C654.529 211.744 656.081 210.304 658.129 210.304C659.681 210.304 660.817 211.216 661.137 212.72L662.993 212.32C662.593 210.096 660.721 208.672 658.129 208.672C655.265 208.672 652.625 210.576 652.625 214.4C652.625 218.224 655.233 220.128 658.129 220.128ZM664.443 220H666.187V208.672H664.443V220ZM668.096 220H669.84V211.936H668.096V220ZM668.016 210.608H669.936V208.672H668.016V210.608ZM675.364 220.128C677.332 220.128 678.724 219.12 679.06 217.44L677.348 217.104C677.156 218.048 676.436 218.608 675.412 218.608C674.036 218.608 673.124 217.568 673.124 215.968C673.124 214.368 674.02 213.328 675.412 213.328C676.436 213.328 677.188 213.952 677.348 214.864L679.044 214.528C678.772 212.864 677.348 211.808 675.364 211.808C672.948 211.808 671.316 213.488 671.316 215.968C671.316 218.448 672.948 220.128 675.364 220.128ZM682.239 220V217.232L683.247 216.288L685.951 220H688.079L684.479 215.12L687.823 211.936H685.567L682.239 214.976V208.672H680.479V220H682.239ZM696.332 208.8V213.328H691.052V208.8H689.18V220H691.052V214.976H696.332V220H698.22V208.8H696.332ZM703.918 220.128C706.334 220.128 708.078 218.384 708.078 215.968C708.078 213.552 706.334 211.808 703.918 211.808C701.486 211.808 699.758 213.552 699.758 215.968C699.758 218.384 701.486 220.128 703.918 220.128ZM701.518 215.968C701.518 214.416 702.478 213.328 703.918 213.328C705.342 213.328 706.318 214.416 706.318 215.968C706.318 217.52 705.342 218.608 703.918 218.608C702.478 218.608 701.518 217.52 701.518 215.968ZM716.842 211.936H715.098V215.472C715.098 217.408 714.282 218.56 712.922 218.56C711.898 218.56 711.274 217.856 711.274 216.848V211.936H709.53V217.248C709.53 218.992 710.73 220.128 712.442 220.128C713.626 220.128 714.554 219.52 715.098 218.656V220H716.842V211.936ZM721.514 220.128C723.338 220.128 724.554 219.056 724.554 217.664C724.554 214.352 720.026 215.536 720.026 213.984C720.026 213.456 720.506 213.152 721.274 213.152C722.01 213.152 722.762 213.6 722.97 214.4L724.41 213.792C724.058 212.608 722.778 211.808 721.258 211.808C719.514 211.808 718.41 212.752 718.41 214.016C718.41 217.072 722.906 215.936 722.906 217.68C722.906 218.256 722.346 218.736 721.514 218.736C720.394 218.736 719.77 218.016 719.498 217.152L718.058 217.76C718.426 218.912 719.546 220.128 721.514 220.128ZM725.481 215.968C725.481 218.144 726.937 220.128 729.497 220.128C731.385 220.128 732.761 219.232 733.193 217.68L731.545 217.264C731.337 218.144 730.585 218.64 729.529 218.64C728.249 218.64 727.353 217.776 727.193 216.384H733.353C733.369 216.24 733.385 215.904 733.385 215.664C733.385 213.696 732.009 211.808 729.417 211.808C726.857 211.808 725.481 213.792 725.481 215.968ZM727.273 215.056C727.529 213.856 728.313 213.184 729.417 213.184C730.697 213.184 731.417 213.968 731.529 215.056H727.273Z" fill="black" fill-opacity="0.75"/>
<path opacity="0.6" d="M660.462 242H662.114V238.052H664.326C666.272 238.052 667.532 236.904 667.532 235.126C667.532 233.348 666.272 232.2 664.326 232.2H660.462V242ZM662.114 236.624V233.628H664.214C665.25 233.628 665.866 234.188 665.866 235.126C665.866 236.064 665.25 236.624 664.214 236.624H662.114ZM671.581 242.112C673.695 242.112 675.221 240.586 675.221 238.472C675.221 236.358 673.695 234.832 671.581 234.832C669.453 234.832 667.941 236.358 667.941 238.472C667.941 240.586 669.453 242.112 671.581 242.112ZM669.481 238.472C669.481 237.114 670.321 236.162 671.581 236.162C672.827 236.162 673.681 237.114 673.681 238.472C673.681 239.83 672.827 240.782 671.581 240.782C670.321 240.782 669.481 239.83 669.481 238.472ZM678.859 242.112C680.455 242.112 681.519 241.174 681.519 239.956C681.519 237.058 677.557 238.094 677.557 236.736C677.557 236.274 677.977 236.008 678.649 236.008C679.293 236.008 679.951 236.4 680.133 237.1L681.393 236.568C681.085 235.532 679.965 234.832 678.635 234.832C677.109 234.832 676.143 235.658 676.143 236.764C676.143 239.438 680.077 238.444 680.077 239.97C680.077 240.474 679.587 240.894 678.859 240.894C677.879 240.894 677.333 240.264 677.095 239.508L675.835 240.04C676.157 241.048 677.137 242.112 678.859 242.112ZM686.658 241.944L686.56 240.586C686.294 240.712 685.972 240.754 685.706 240.754C685.132 240.754 684.74 240.39 684.74 239.69V236.246H686.56V234.944H684.74V232.844H683.214V234.944H681.982V236.246H683.214V239.774C683.214 241.384 684.208 242.112 685.538 242.112C685.93 242.112 686.322 242.056 686.658 241.944ZM694.133 232.2V236.162H689.513V232.2H687.875V242H689.513V237.604H694.133V242H695.785V232.2H694.133ZM700.771 242.112C702.885 242.112 704.411 240.586 704.411 238.472C704.411 236.358 702.885 234.832 700.771 234.832C698.643 234.832 697.131 236.358 697.131 238.472C697.131 240.586 698.643 242.112 700.771 242.112ZM698.671 238.472C698.671 237.114 699.511 236.162 700.771 236.162C702.017 236.162 702.871 237.114 702.871 238.472C702.871 239.83 702.017 240.782 700.771 240.782C699.511 240.782 698.671 239.83 698.671 238.472ZM708.607 241.804C709.531 241.804 710.357 241.44 710.707 240.908V241.762C710.707 242.742 709.923 243.414 708.789 243.414C707.865 243.414 707.123 242.952 707.039 242.252L705.611 242.49C705.835 243.778 707.137 244.66 708.789 244.66C710.819 244.66 712.205 243.428 712.205 241.608V234.944H710.693V235.756C710.287 235.21 709.475 234.832 708.579 234.832C706.507 234.832 705.303 236.274 705.303 238.318C705.303 240.362 706.507 241.804 708.607 241.804ZM706.829 238.318C706.829 237.016 707.613 236.162 708.817 236.162C710.007 236.162 710.791 237.016 710.791 238.318C710.791 239.62 710.007 240.474 708.817 240.474C707.613 240.474 706.829 239.62 706.829 238.318ZM713.157 235.238H714.151L715.803 232.074H713.969L713.157 235.238ZM718.146 242.112C719.742 242.112 720.806 241.174 720.806 239.956C720.806 237.058 716.844 238.094 716.844 236.736C716.844 236.274 717.264 236.008 717.936 236.008C718.58 236.008 719.238 236.4 719.42 237.1L720.68 236.568C720.372 235.532 719.252 234.832 717.922 234.832C716.396 234.832 715.43 235.658 715.43 236.764C715.43 239.438 719.364 238.444 719.364 239.97C719.364 240.474 718.874 240.894 718.146 240.894C717.166 240.894 716.62 240.264 716.382 239.508L715.122 240.04C715.444 241.048 716.424 242.112 718.146 242.112ZM666.96 262.112C667.898 262.112 668.752 261.692 669.088 261.104V262H670.614V252.088H669.088V255.826C668.668 255.238 667.842 254.832 666.932 254.832C664.804 254.832 663.586 256.344 663.586 258.472C663.586 260.6 664.804 262.112 666.96 262.112ZM665.112 258.472C665.112 257.072 665.924 256.162 667.156 256.162C668.388 256.162 669.2 257.072 669.2 258.472C669.2 259.858 668.388 260.782 667.156 260.782C665.924 260.782 665.112 259.858 665.112 258.472ZM676.487 257.436V257.534L675.157 257.674C672.987 257.898 671.909 258.64 671.909 260.026C671.909 261.23 672.875 262.112 674.275 262.112C675.213 262.112 676.081 261.636 676.487 260.922V262H677.985V257.604C677.985 255.84 676.753 254.832 674.961 254.832C673.463 254.832 672.259 255.742 672.035 257.128L673.407 257.38C673.505 256.54 674.107 256.036 674.961 256.036C675.885 256.036 676.487 256.568 676.487 257.436ZM673.407 259.984C673.407 259.368 673.995 258.948 675.143 258.822L676.487 258.668V258.962C676.473 260.11 675.773 260.936 674.583 260.936C673.869 260.936 673.407 260.544 673.407 259.984ZM683.547 261.944L683.449 260.586C683.183 260.712 682.861 260.754 682.595 260.754C682.021 260.754 681.629 260.39 681.629 259.69V256.246H683.449V254.944H681.629V252.844H680.103V254.944H678.871V256.246H680.103V259.774C680.103 261.384 681.097 262.112 682.427 262.112C682.819 262.112 683.211 262.056 683.547 261.944ZM688.799 257.436V257.534L687.469 257.674C685.299 257.898 684.221 258.64 684.221 260.026C684.221 261.23 685.187 262.112 686.587 262.112C687.525 262.112 688.393 261.636 688.799 260.922V262H690.297V257.604C690.297 255.84 689.065 254.832 687.273 254.832C685.775 254.832 684.571 255.742 684.347 257.128L685.719 257.38C685.817 256.54 686.419 256.036 687.273 256.036C688.197 256.036 688.799 256.568 688.799 257.436ZM685.719 259.984C685.719 259.368 686.307 258.948 687.455 258.822L688.799 258.668V258.962C688.785 260.11 688.085 260.936 686.895 260.936C686.181 260.936 685.719 260.544 685.719 259.984ZM695.619 262.112C697.775 262.112 698.993 260.6 698.993 258.472C698.993 256.344 697.775 254.832 695.647 254.832C694.737 254.832 693.911 255.238 693.491 255.826V252.088H691.965V262H693.491V261.104C693.827 261.692 694.681 262.112 695.619 262.112ZM693.379 258.472C693.379 257.072 694.191 256.162 695.423 256.162C696.655 256.162 697.467 257.072 697.467 258.472C697.467 259.858 696.655 260.782 695.423 260.782C694.191 260.782 693.379 259.858 693.379 258.472ZM704.433 257.436V257.534L703.103 257.674C700.933 257.898 699.855 258.64 699.855 260.026C699.855 261.23 700.821 262.112 702.221 262.112C703.159 262.112 704.027 261.636 704.433 260.922V262H705.931V257.604C705.931 255.84 704.699 254.832 702.907 254.832C701.409 254.832 700.205 255.742 699.981 257.128L701.353 257.38C701.451 256.54 702.053 256.036 702.907 256.036C703.831 256.036 704.433 256.568 704.433 257.436ZM701.353 259.984C701.353 259.368 701.941 258.948 703.089 258.822L704.433 258.668V258.962C704.419 260.11 703.719 260.936 702.529 260.936C701.815 260.936 701.353 260.544 701.353 259.984ZM710.021 262.112C711.617 262.112 712.681 261.174 712.681 259.956C712.681 257.058 708.719 258.094 708.719 256.736C708.719 256.274 709.139 256.008 709.811 256.008C710.455 256.008 711.113 256.4 711.295 257.1L712.555 256.568C712.247 255.532 711.127 254.832 709.797 254.832C708.271 254.832 707.305 255.658 707.305 256.764C707.305 259.438 711.239 258.444 711.239 259.97C711.239 260.474 710.749 260.894 710.021 260.894C709.041 260.894 708.495 260.264 708.257 259.508L706.997 260.04C707.319 261.048 708.299 262.112 710.021 262.112ZM713.493 258.472C713.493 260.376 714.767 262.112 717.007 262.112C718.659 262.112 719.863 261.328 720.241 259.97L718.799 259.606C718.617 260.376 717.959 260.81 717.035 260.81C715.915 260.81 715.131 260.054 714.991 258.836H720.381C720.395 258.71 720.409 258.416 720.409 258.206C720.409 256.484 719.205 254.832 716.937 254.832C714.697 254.832 713.493 256.568 713.493 258.472ZM715.061 257.674C715.285 256.624 715.971 256.036 716.937 256.036C718.057 256.036 718.687 256.722 718.785 257.674H715.061Z" fill="black" fill-opacity="0.75"/>
<g clip-path="url(#clip0_5202_40716)">
<path d="M666 189.754H671.889V195.576H666V189.754Z" fill="#FF0000"/>
<path d="M666 149H671.889V189.754H666V149Z" fill="#FFCC00"/>
<path d="M677.777 149H683.666V195.576H677.777V149Z" fill="#FFCC00"/>
<path d="M689.556 149H695.445V195.576H689.556V149Z" fill="#FFCC00"/>
<path d="M701.333 149H707.222V195.576H701.333V149Z" fill="#FFCC00"/>
<path d="M713.111 167.921H719V176.654H713.111V167.921Z" fill="#FFCC00"/>
</g>
<path d="M159 140H114.265C101.286 140 90.7647 129.479 90.7647 116.5V93.1301C90.7647 93.0583 90.7065 93 90.6346 93V93C90.5639 93 90.5062 92.9436 90.5045 92.8729L89 28" stroke="#A8A8A8" stroke-dasharray="4 4"/>
<path d="M159 160H87.0169C77.0758 160 69.0169 151.941 69.0169 142V142C69.0169 132.059 60.958 124 51.0169 124H8" stroke="#A8A8A8" stroke-dasharray="4 4"/>
<path d="M159 180H108.084C96.85 180 87.1953 187.97 85.0667 199V199C82.938 210.03 73.2833 218 62.0494 218H39" stroke="#A8A8A8" stroke-dasharray="4 4"/>
<path d="M76.9277 291V291C88.0534 290.722 96.9277 281.623 96.9277 270.494V245.816C96.9277 220.512 117.44 200 142.743 200H159" stroke="#A8A8A8" stroke-dasharray="4 4"/>
<path d="M566.238 82.8202V89.6341C567.309 91.477 568.823 93.0208 570.636 94.1306V82.8202H566.225H566.238Z" fill="#424242"/>
<path d="M574.394 76.5676V96.0307C575.304 96.1655 576.236 96.2523 577.193 96.2523C578.066 96.2523 578.918 96.1747 579.752 96.0602V76.5676H574.394Z" fill="#616161"/>
<path d="M584.088 85.5014V94.0031C585.933 92.8302 587.449 91.2056 588.49 89.2832V85.4977H584.088V85.5014ZM594.687 97.0112L591.013 100.69C590.587 101.116 590.587 101.807 591.013 102.233L600.164 111.391C600.589 111.815 601.283 111.815 601.708 111.391L605.386 107.716C605.811 107.288 605.811 106.598 605.386 106.17L596.233 97.0186C595.807 96.6014 595.126 96.6014 594.7 97.0186" fill="#424242"/>
<path d="M577.295 60C564.43 60 554 70.4295 554 83.2947C554 96.1599 564.43 106.589 577.295 106.589C590.158 106.589 600.588 96.1599 600.588 83.2947C600.589 70.4295 590.156 60 577.286 60H577.295ZM577.286 100.551C567.755 100.551 560.028 92.8255 560.027 83.2947C560.027 76.3134 564.232 70.019 570.681 67.347C577.131 64.675 584.555 66.1516 589.492 71.0882C594.429 76.0248 595.905 83.4491 593.233 89.8989C590.561 96.3487 584.267 100.554 577.286 100.553" fill="#757575"/>
<g clip-path="url(#clip1_5202_40716)">
<path fill-rule="evenodd" clip-rule="evenodd" d="M468.896 322.502L463.044 325.897L468.896 329.264C469.246 329.468 469.553 329.739 469.799 330.062C470.044 330.385 470.225 330.753 470.329 331.146C470.434 331.54 470.46 331.95 470.407 332.353C470.354 332.757 470.223 333.146 470.021 333.498C469.818 333.85 469.549 334.159 469.228 334.407C468.908 334.654 468.541 334.836 468.151 334.941C467.761 335.046 467.353 335.073 466.953 335.02C466.552 334.966 466.166 334.834 465.816 334.63L455.331 328.548C454.851 328.268 454.454 327.863 454.183 327.375C453.913 326.887 453.778 326.334 453.793 325.776C453.801 325.534 453.838 325.293 453.903 325.06C454.118 324.278 454.628 323.611 455.324 323.203L465.809 317.143C466.16 316.938 466.548 316.805 466.951 316.752C467.353 316.699 467.762 316.726 468.154 316.832C468.546 316.938 468.914 317.121 469.235 317.37C469.557 317.619 469.827 317.93 470.029 318.284C470.233 318.635 470.365 319.024 470.418 319.427C470.471 319.83 470.444 320.239 470.338 320.632C470.233 321.024 470.051 321.391 469.804 321.713C469.556 322.034 469.247 322.302 468.896 322.502V322.502ZM463.357 338.959L452.876 332.888C452.407 332.617 451.876 332.474 451.335 332.474C450.795 332.474 450.263 332.616 449.794 332.887C449.325 333.157 448.934 333.547 448.661 334.017C448.388 334.486 448.241 335.02 448.236 335.564V347.693C448.263 348.498 448.6 349.262 449.176 349.823C449.752 350.383 450.521 350.696 451.322 350.696C452.122 350.696 452.892 350.383 453.468 349.823C454.043 349.262 454.38 348.498 454.407 347.693V340.895L460.273 344.29C460.623 344.494 461.01 344.627 461.41 344.68C461.811 344.734 462.218 344.707 462.609 344.602C463 344.497 463.366 344.316 463.687 344.068C464.008 343.821 464.277 343.512 464.48 343.16C464.682 342.807 464.814 342.418 464.867 342.015C464.92 341.611 464.894 341.201 464.79 340.808C464.685 340.414 464.505 340.045 464.259 339.722C464.014 339.399 463.707 339.128 463.357 338.924V338.959ZM451.277 327.096L446.907 331.443C446.758 331.583 446.564 331.665 446.36 331.675H445.078C444.874 331.663 444.681 331.581 444.53 331.443L440.185 327.081C440.049 326.932 439.969 326.74 439.958 326.538V325.25C439.97 325.047 440.05 324.853 440.185 324.702L444.53 320.341C444.681 320.204 444.874 320.123 445.078 320.112H446.36C446.563 320.122 446.757 320.203 446.907 320.341L451.263 324.702C451.397 324.854 451.476 325.047 451.487 325.25V326.538C451.477 326.74 451.398 326.932 451.263 327.081L451.277 327.096ZM447.795 325.887C447.779 325.678 447.692 325.481 447.55 325.328L446.289 324.073C446.138 323.936 445.945 323.855 445.742 323.844H445.696C445.494 323.854 445.302 323.935 445.152 324.073L443.891 325.328C443.755 325.482 443.676 325.678 443.667 325.883V325.929C443.676 326.132 443.755 326.324 443.891 326.473L445.159 327.725C445.309 327.862 445.501 327.943 445.703 327.954H445.749C445.952 327.943 446.145 327.862 446.296 327.725L447.557 326.463C447.694 326.313 447.775 326.121 447.788 325.919L447.795 325.887ZM428.081 312.835L438.565 318.889C439.035 319.159 439.566 319.302 440.107 319.302C440.648 319.302 441.18 319.159 441.649 318.889C442.119 318.618 442.51 318.228 442.783 317.758C443.057 317.288 443.203 316.754 443.209 316.209V304.091C443.182 303.285 442.845 302.522 442.269 301.961C441.693 301.401 440.924 301.088 440.123 301.088C439.322 301.088 438.553 301.401 437.977 301.961C437.402 302.522 437.065 303.285 437.037 304.091V310.889L431.164 307.49C430.815 307.286 430.428 307.154 430.027 307.1C429.627 307.047 429.219 307.073 428.829 307.178C428.438 307.283 428.072 307.464 427.751 307.712C427.43 307.959 427.16 308.268 426.958 308.621C426.755 308.973 426.624 309.362 426.571 309.766C426.517 310.169 426.544 310.579 426.648 310.973C426.752 311.366 426.932 311.735 427.178 312.058C427.424 312.381 427.731 312.653 428.081 312.857V312.835ZM451.089 319.304C451.708 319.353 452.328 319.212 452.865 318.899L463.346 312.817C463.696 312.613 464.003 312.342 464.249 312.019C464.495 311.696 464.675 311.327 464.779 310.933C464.883 310.54 464.91 310.13 464.856 309.726C464.803 309.323 464.672 308.934 464.469 308.581C464.267 308.229 463.997 307.92 463.676 307.673C463.355 307.425 462.989 307.244 462.598 307.139C461.809 306.927 460.969 307.039 460.263 307.451L454.397 310.878V304.08C454.37 303.275 454.033 302.511 453.457 301.951C452.881 301.39 452.112 301.077 451.311 301.077C450.51 301.077 449.741 301.39 449.165 301.951C448.59 302.511 448.253 303.275 448.225 304.08V316.209C448.224 316.994 448.52 317.75 449.051 318.325C449.583 318.899 450.311 319.249 451.089 319.304V319.304ZM440.356 332.484C439.737 332.433 439.117 332.574 438.579 332.888L428.081 338.945C427.374 339.357 426.859 340.035 426.648 340.829C426.437 341.623 426.549 342.469 426.958 343.181C427.367 343.893 428.04 344.412 428.829 344.624C429.617 344.836 430.458 344.723 431.164 344.312L437.037 340.916V347.714C437.065 348.52 437.402 349.284 437.977 349.844C438.553 350.404 439.322 350.718 440.123 350.718C440.924 350.718 441.693 350.404 442.269 349.844C442.845 349.284 443.182 348.52 443.209 347.714V335.564C443.207 334.783 442.912 334.031 442.383 333.46C441.854 332.888 441.13 332.54 440.356 332.484V332.484ZM437.513 326.806C437.716 326.136 437.685 325.416 437.427 324.766C437.169 324.115 436.698 323.573 436.092 323.228L425.618 317.15C424.911 316.742 424.072 316.632 423.285 316.845C422.497 317.057 421.825 317.574 421.415 318.284C421.212 318.635 421.081 319.023 421.027 319.426C420.974 319.829 421.001 320.238 421.106 320.63C421.211 321.023 421.393 321.39 421.64 321.711C421.887 322.033 422.194 322.301 422.545 322.502L428.397 325.897L422.545 329.264C422.195 329.467 421.888 329.738 421.642 330.06C421.396 330.383 421.216 330.751 421.111 331.144C421.006 331.537 420.979 331.947 421.032 332.35C421.084 332.753 421.215 333.142 421.417 333.495C421.619 333.847 421.888 334.156 422.208 334.404C422.528 334.651 422.894 334.833 423.284 334.939C423.674 335.044 424.081 335.071 424.482 335.018C424.882 334.965 425.268 334.834 425.618 334.63L436.092 328.548C436.767 328.169 437.273 327.547 437.51 326.806H437.513ZM470.609 306.692H470.136V307.275H470.605C470.822 307.275 470.96 307.175 470.96 306.989C470.96 306.803 470.832 306.692 470.605 306.692H470.609ZM469.564 306.156H470.63C471.205 306.156 471.589 306.474 471.589 306.968C471.591 307.105 471.556 307.241 471.489 307.36C471.422 307.48 471.324 307.579 471.205 307.647L471.621 308.248V308.37H471.021L470.605 307.798H470.136V308.37H469.56L469.564 306.156ZM472.513 307.308C472.53 307.037 472.491 306.765 472.399 306.51C472.307 306.255 472.163 306.022 471.976 305.826C471.79 305.63 471.565 305.475 471.316 305.371C471.068 305.267 470.8 305.216 470.53 305.222C469.354 305.222 468.573 306.077 468.573 307.308C468.573 308.481 469.354 309.39 470.53 309.39C470.8 309.396 471.068 309.346 471.317 309.243C471.567 309.139 471.792 308.985 471.979 308.789C472.165 308.593 472.31 308.36 472.402 308.105C472.495 307.85 472.534 307.579 472.516 307.308H472.513ZM473.003 307.308C473.003 308.699 472.079 309.862 470.516 309.862C468.953 309.862 468.068 308.689 468.068 307.308C468.068 305.927 468.981 304.753 470.516 304.753C472.051 304.753 473 305.912 473 307.308H473.003Z" fill="#29B5E8"/>
</g>
<path d="M436.466 9.02197L433 10.7553V41.176L436.466 42.8992L436.487 42.8741V9.04584L436.466 9.02197Z" fill="#8C3123"/>
<path d="M455.014 38.4838L436.465 42.8992V9.02197L455.014 13.3411V38.4838Z" fill="#E05243"/>
<path d="M446.644 31.5711L454.511 32.5726L454.561 32.4587L454.605 19.5574L454.511 19.4565L446.644 20.4437V31.5711" fill="#8C3123"/>
<path d="M454.51 38.5334L472.554 42.9086L472.582 42.8634L472.582 9.05222L472.553 9.02197L454.51 13.3906V38.5334" fill="#8C3123"/>
<path d="M462.38 31.5711L454.51 32.5726V19.4565L462.38 20.4437V31.5711Z" fill="#E05243"/>
<path d="M462.381 15.0626L454.511 16.4969L446.644 15.0626L454.501 13.0029L462.381 15.0626Z" fill="#5E1F18"/>
<path d="M462.381 36.9379L454.511 35.4941L446.644 36.9379L454.502 39.1314L462.381 36.9379Z" fill="#F2B0A9"/>
<path d="M446.644 15.0626L454.511 13.1156L454.575 13.0959V0.0526002L454.511 0L446.644 3.93459V15.0626Z" fill="#8C3123"/>
<path d="M462.38 15.0626L454.51 13.1156V0L462.38 3.93459V15.0626Z" fill="#E05243"/>
<path d="M454.509 52L446.641 48.0667V36.9388L454.509 38.8852L454.625 39.0168L454.594 51.7729L454.509 52Z" fill="#8C3123"/>
<path d="M454.51 51.9998L462.379 48.0666V36.9387L454.51 38.8851V51.9998V51.9998ZM472.554 9.02197L476.021 10.7553V41.176L472.554 42.9086V9.02197Z" fill="#E05243"/>
<g clip-path="url(#clip2_5202_40716)">
<path d="M542.404 245.425L562.424 250.133V213.095L542.404 217.803V245.425Z" fill="#205B97"/>
<path d="M562.425 213.095L566.238 214.978V248.25L562.425 250.133V213.095ZM542.405 245.425L522.385 250.133V213.095L542.405 217.803V245.425Z" fill="#5193CE"/>
<path d="M522.385 213.095L518.571 214.978V248.25L522.385 250.133V213.095Z" fill="#205B97"/>
<path d="M547.49 257.667L555.117 253.9V209.433L547.49 205.667L545.158 230.359L547.49 257.667Z" fill="#5193CE"/>
<path d="M537.319 257.667L529.692 253.9V209.433L537.319 205.667L539.651 230.359L537.319 257.667Z" fill="#205B97"/>
<path d="M537.319 205.667H547.593V257.562H537.319V205.667Z" fill="#2E73B7"/>
</g>
<path d="M314 135L441.534 135C447.444 135 452.235 130.209 452.235 124.299L452.235 113.73C452.235 113.657 452.294 113.598 452.367 113.598V113.598C452.437 113.598 452.495 113.543 452.499 113.473L454 84" stroke="#BFBFBC" stroke-dasharray="4 4"/>
<path d="M314 155L450.983 155C469.208 155 483.983 140.225 483.983 122V122C483.983 103.775 498.758 89 516.983 89L535 89" stroke="#BFBFBC" stroke-dasharray="4 4"/>
<path d="M314 175L406.734 174L644 174" stroke="#BFBFBC" stroke-dasharray="4 4"/>
<path d="M314 195L434.916 195C446.15 195 455.805 202.97 457.933 214V214C460.062 225.03 469.717 233 480.951 233L504 233" stroke="#BFBFBC" stroke-dasharray="4 4"/>
<path d="M446.073 286L446.073 235.5V235.5C446.073 224.178 436.895 215 425.573 215L314.001 215" stroke="#BFBFBC" stroke-dasharray="4 4"/>
<path d="M223.04 164.944C222.245 166.533 219.977 166.533 219.182 164.944L217.282 161.143C216.978 160.536 216.978 159.821 217.282 159.214L219.182 155.413C219.977 153.824 222.245 153.824 223.04 155.413L224.94 159.214C225.244 159.821 225.244 160.536 224.94 161.143L223.04 164.944Z" fill="#F54E00"/>
<path d="M223.04 186.5C222.245 188.089 219.977 188.089 219.182 186.5L217.282 182.699C216.978 182.092 216.978 181.377 217.282 180.77L219.182 176.97C219.977 175.38 222.245 175.38 223.04 176.97L224.94 180.77C225.244 181.377 225.244 182.092 224.94 182.699L223.04 186.5Z" fill="#F54E00"/>
<path d="M201.486 164.944C200.691 166.533 198.423 166.533 197.629 164.944L195.728 161.143C195.425 160.536 195.425 159.821 195.728 159.214L197.629 155.413C198.423 153.824 200.691 153.824 201.486 155.413L203.386 159.214C203.69 159.821 203.69 160.536 203.386 161.143L201.486 164.944Z" fill="#1D4AFF"/>
<path d="M201.486 186.5C200.691 188.089 198.423 188.089 197.629 186.5L195.728 182.699C195.425 182.092 195.425 181.377 195.728 180.77L197.629 176.969C198.423 175.38 200.691 175.38 201.486 176.969L203.386 180.77C203.69 181.377 203.69 182.092 203.386 182.699L201.486 186.5Z" fill="#1D4AFF"/>
<path d="M178 178.318C178 176.397 180.323 175.435 181.681 176.793L191.564 186.676C192.922 188.034 191.96 190.357 190.039 190.357H180.156C178.965 190.357 178 189.392 178 188.201V178.318ZM178 167.908C178 168.48 178.227 169.028 178.632 169.432L198.924 189.725C199.329 190.13 199.877 190.357 200.449 190.357H211.595C213.516 190.357 214.478 188.034 213.12 186.676L181.681 155.237C180.323 153.879 178 154.841 178 156.762V167.908ZM178 146.352C178 146.924 178.227 147.472 178.632 147.876L220.481 189.725C220.885 190.13 221.433 190.357 222.005 190.357H233.151C235.072 190.357 236.034 188.034 234.676 186.676L181.681 133.681C180.323 132.323 178 133.285 178 135.206V146.352ZM199.556 146.352C199.556 146.924 199.783 147.472 200.188 147.876L238.987 186.676C240.346 188.034 242.668 187.072 242.668 185.151V174.005C242.668 173.433 242.441 172.885 242.037 172.481L203.237 133.681C201.879 132.323 199.556 133.285 199.556 135.206V146.352ZM224.793 133.681C223.435 132.323 221.112 133.285 221.112 135.206V146.352C221.112 146.924 221.339 147.472 221.744 147.876L238.987 165.12C240.346 166.478 242.668 165.516 242.668 163.595V152.449C242.668 151.877 242.441 151.329 242.037 150.924L224.793 133.681Z" fill="#F9BD2B"/>
<path d="M269.695 178.582L249.399 158.286C248.04 156.928 245.718 157.89 245.718 159.811V188.201C245.718 189.392 246.683 190.357 247.874 190.357H279.314C280.504 190.357 281.47 189.392 281.47 188.201V185.615C281.47 184.424 280.5 183.473 279.319 183.32C275.695 182.848 272.305 181.193 269.695 178.582ZM256.065 183.459C254.161 183.459 252.616 181.914 252.616 180.01C252.616 178.106 254.161 176.561 256.065 176.561C257.969 176.561 259.514 178.106 259.514 180.01C259.514 181.914 257.969 183.459 256.065 183.459Z" fill="black"/>
<path d="M178 188.201C178 189.392 178.965 190.357 180.156 190.357H190.039C191.96 190.357 192.922 188.034 191.564 186.676L181.681 176.793C180.323 175.435 178 176.397 178 178.318V188.201Z" fill="#1D4AFF"/>
<path d="M199.556 152.449C199.556 151.877 199.329 151.329 198.924 150.924L181.681 133.681C180.323 132.323 178 133.285 178 135.206V146.352C178 146.924 178.227 147.472 178.632 147.876L195.875 165.12C197.233 166.478 199.556 165.516 199.556 163.595V152.449Z" fill="#1D4AFF"/>
<path d="M181.681 155.237C180.323 153.879 178 154.841 178 156.762V167.908C178 168.48 178.227 169.028 178.632 169.433L195.875 186.676C197.233 188.034 199.556 187.072 199.556 185.151V174.005C199.556 173.433 199.329 172.885 198.924 172.481L181.681 155.237Z" fill="#1D4AFF"/>
<path d="M221.112 152.449C221.112 151.877 220.885 151.329 220.48 150.924L203.237 133.681C201.878 132.323 199.556 133.285 199.556 135.206V146.352C199.556 146.924 199.783 147.472 200.187 147.876L217.431 165.12C218.789 166.478 221.112 165.516 221.112 163.595V152.449Z" fill="#F54E00"/>
<path d="M199.556 188.201C199.556 189.392 200.521 190.357 201.712 190.357H211.595C213.516 190.357 214.478 188.034 213.12 186.676L203.237 176.793C201.878 175.435 199.556 176.397 199.556 178.318V188.201Z" fill="#F54E00"/>
<path d="M203.237 155.237C201.878 153.879 199.556 154.841 199.556 156.762V167.908C199.556 168.48 199.783 169.028 200.187 169.433L217.431 186.676C218.789 188.034 221.112 187.072 221.112 185.151V174.005C221.112 173.433 220.885 172.885 220.48 172.481L203.237 155.237Z" fill="#F54E00"/>
<rect x="291" y="126" width="99" height="99" fill="url(#paint0_linear_5202_40716)"/>
<rect y="16" width="99" height="289" fill="url(#paint1_linear_5202_40716)"/>
<rect x="62" y="126" width="102" height="99" fill="url(#paint2_linear_5202_40716)"/>
<rect x="54" y="26" width="94" height="104" fill="url(#paint3_linear_5202_40716)"/>
<rect x="62" y="208" width="102" height="99" fill="url(#paint4_linear_5202_40716)"/>
<defs>
<linearGradient id="paint0_linear_5202_40716" x1="291" y1="176" x2="390" y2="176" gradientUnits="userSpaceOnUse">
<stop stop-color="#EEEFE9"/>
<stop offset="1" stop-color="#EEEFE9" stop-opacity="0"/>
</linearGradient>
<linearGradient id="paint1_linear_5202_40716" x1="0" y1="161.96" x2="99" y2="161.96" gradientUnits="userSpaceOnUse">
<stop stop-color="#EEEFE9"/>
<stop offset="1" stop-color="#EEEFE9" stop-opacity="0"/>
</linearGradient>
<linearGradient id="paint2_linear_5202_40716" x1="62" y1="176" x2="164" y2="176" gradientUnits="userSpaceOnUse">
<stop stop-color="#EEEFE9" stop-opacity="0"/>
<stop offset="1" stop-color="#EEEFE9"/>
</linearGradient>
<linearGradient id="paint3_linear_5202_40716" x1="73.3529" y1="87.9798" x2="73.3529" y2="26" gradientUnits="userSpaceOnUse">
<stop stop-color="#EEEFE9" stop-opacity="0"/>
<stop offset="1" stop-color="#EEEFE9"/>
</linearGradient>
<linearGradient id="paint4_linear_5202_40716" x1="83" y1="267" x2="83" y2="208" gradientUnits="userSpaceOnUse">
<stop stop-color="#EEEFE9"/>
<stop offset="1" stop-color="#EEEFE9" stop-opacity="0"/>
</linearGradient>
<clipPath id="clip0_5202_40716">
<rect width="53" height="46.5758" fill="white" transform="translate(666 149)"/>
</clipPath>
<clipPath id="clip1_5202_40716">
<rect width="52" height="49.7872" fill="white" transform="translate(421 301)"/>
</clipPath>
<clipPath id="clip2_5202_40716">
<rect width="47.6667" height="52" fill="white" transform="translate(518.571 205.667)"/>
</clipPath>
</defs>
</svg>
