<svg width="36" height="36" viewBox="0 0 36 36" fill="none" xmlns="http://www.w3.org/2000/svg">
<path opacity="0.35" d="M4.86 29.88C3.56976 29.88 2.52 28.8302 2.52 27.54V7.73999C2.52 6.44975 3.56976 5.39999 4.86 5.39999H32.58C33.8702 5.39999 34.92 6.44975 34.92 7.73999V27.54C34.92 28.8302 33.8702 29.88 32.58 29.88H4.86Z" fill="black"/>
<path d="M4.14 29.16C2.84976 29.16 1.8 28.1102 1.8 26.82V7.01999C1.8 5.72975 2.84976 4.67999 4.14 4.67999H31.86C33.1502 4.67999 34.2 5.72975 34.2 7.01999V26.82C34.2 28.1102 33.1502 29.16 31.86 29.16H4.14Z" fill="#F2F2F2"/>
<path d="M31.68 6.84H4.32V26.64H31.68V6.84Z" fill="#F2F2F2"/>
<path fill-rule="evenodd" clip-rule="evenodd" d="M3.6 7.01998C3.6 6.72175 3.84176 6.47998 4.14 6.47998H31.86C32.1582 6.47998 32.4 6.72175 32.4 7.01998V26.82C32.4 27.1182 32.1582 27.36 31.86 27.36H4.14C3.84176 27.36 3.6 27.1182 3.6 26.82V7.01998ZM4.68 7.55998V26.28H31.32V7.55998H4.68Z" fill="#40396E"/>
<path fill-rule="evenodd" clip-rule="evenodd" d="M31.32 9.71997H18V11.52H31.32V9.71997ZM31.32 13.32H18V15.12H31.32V13.32ZM4.68 22.68V20.52H31.32V22.68H4.68ZM4.68 16.92V18.72H31.32V16.92H4.68ZM4.68 26.28V24.48H31.32V26.28H4.68Z" fill="#EE3E54"/>
<path fill-rule="evenodd" clip-rule="evenodd" d="M18 7.56H4.68V16.92H18V7.56ZM6.16104 8.27997L6.39504 8.75409L6.91812 8.83005L6.53976 9.19905L6.62904 9.71997L6.16104 9.47409L5.6934 9.71997L5.78268 9.19905L5.40396 8.83005L5.92704 8.75409L6.16104 8.27997ZM8.84304 8.75409L8.60904 8.27997L8.37504 8.75409L7.85196 8.83005L8.23068 9.19905L8.1414 9.71997L8.60904 9.47409L9.07704 9.71997L8.98776 9.19905L9.36612 8.83005L8.84304 8.75409ZM11.057 8.27997L11.291 8.75409L11.8141 8.83005L11.4358 9.19905L11.525 9.71997L11.057 9.47409L10.5894 9.71997L10.6787 9.19905L10.3 8.83005L10.823 8.75409L11.057 8.27997ZM13.739 8.75409L13.505 8.27997L13.271 8.75409L12.748 8.83005L13.1267 9.19905L13.0374 9.71997L13.505 9.47409L13.973 9.71997L13.8838 9.19905L14.2621 8.83005L13.739 8.75409ZM15.809 8.27997L16.043 8.75409L16.5661 8.83005L16.1878 9.19905L16.277 9.71997L15.809 9.47409L15.3414 9.71997L15.4307 9.19905L15.052 8.83005L15.575 8.75409L15.809 8.27997ZM7.11504 10.9141L6.88104 10.44L6.64704 10.9141L6.12396 10.9901L6.50268 11.3591L6.4134 11.88L6.88104 11.6341L7.34904 11.88L7.25976 11.3591L7.63812 10.9901L7.11504 10.9141ZM9.32904 10.44L9.56304 10.9141L10.0861 10.9901L9.70776 11.3591L9.79704 11.88L9.32904 11.6341L8.8614 11.88L8.95068 11.3591L8.57196 10.9901L9.09504 10.9141L9.32904 10.44ZM12.011 10.9141L11.777 10.44L11.543 10.9141L11.02 10.9901L11.3987 11.3591L11.3094 11.88L11.777 11.6341L12.245 11.88L12.1558 11.3591L12.5341 10.9901L12.011 10.9141ZM14.225 10.44L14.459 10.9141L14.9821 10.9901L14.6038 11.3591L14.693 11.88L14.225 11.6341L13.7574 11.88L13.8467 11.3591L13.468 10.9901L13.991 10.9141L14.225 10.44ZM16.763 10.9141L16.529 10.44L16.295 10.9141L15.772 10.9901L16.1507 11.3591L16.0614 11.88L16.529 11.6341L16.997 11.88L16.9078 11.3591L17.2861 10.9901L16.763 10.9141ZM6.16104 12.6L6.39504 13.0741L6.91812 13.1501L6.53976 13.5191L6.62904 14.04L6.16104 13.7941L5.6934 14.04L5.78268 13.5191L5.40396 13.1501L5.92704 13.0741L6.16104 12.6ZM8.84304 13.0741L8.60904 12.6L8.37504 13.0741L7.85196 13.1501L8.23068 13.5191L8.1414 14.04L8.60904 13.7941L9.07704 14.04L8.98776 13.5191L9.36612 13.1501L8.84304 13.0741ZM11.057 12.6L11.291 13.0741L11.8141 13.1501L11.4358 13.5191L11.525 14.04L11.057 13.7941L10.5894 14.04L10.6787 13.5191L10.3 13.1501L10.823 13.0741L11.057 12.6ZM13.739 13.0741L13.505 12.6L13.271 13.0741L12.748 13.1501L13.1267 13.5191L13.0374 14.04L13.505 13.7941L13.973 14.04L13.8838 13.5191L14.2621 13.1501L13.739 13.0741ZM15.809 12.6L16.043 13.0741L16.5661 13.1501L16.1878 13.5191L16.277 14.04L15.809 13.7941L15.3414 14.04L15.4307 13.5191L15.052 13.1501L15.575 13.0741L15.809 12.6ZM7.11504 15.2341L6.88104 14.76L6.64704 15.2341L6.12396 15.3101L6.50268 15.6791L6.4134 16.2L6.88104 15.9541L7.34904 16.2L7.25976 15.6791L7.63812 15.3101L7.11504 15.2341ZM9.32904 14.76L9.56304 15.2341L10.0861 15.3101L9.70776 15.6791L9.79704 16.2L9.32904 15.9541L8.8614 16.2L8.95068 15.6791L8.57196 15.3101L9.09504 15.2341L9.32904 14.76ZM12.011 15.2341L11.777 14.76L11.543 15.2341L11.02 15.3101L11.3987 15.6791L11.3094 16.2L11.777 15.9541L12.245 16.2L12.1558 15.6791L12.5341 15.3101L12.011 15.2341ZM14.225 14.76L14.459 15.2341L14.9821 15.3101L14.6038 15.6791L14.693 16.2L14.225 15.9541L13.7574 16.2L13.8467 15.6791L13.468 15.3101L13.991 15.2341L14.225 14.76ZM16.763 15.2341L16.529 14.76L16.295 15.2341L15.772 15.3101L16.1507 15.6791L16.0614 16.2L16.529 15.9541L16.997 16.2L16.9078 15.6791L17.2861 15.3101L16.763 15.2341Z" fill="#78A0CF"/>
</svg>
