<?xml version="1.0" encoding="UTF-8"?><svg id="Layer_1" xmlns="http://www.w3.org/2000/svg" xmlns:xlink="http://www.w3.org/1999/xlink" viewBox="0 0 687 125"><defs><style>.cls-1{fill:#fff}.cls-2{fill:#fff;}</style><linearGradient id="linear-gradient" x1="463.82" y1="99.34" x2="670.07" y2="34.76" gradientTransform="matrix(1, 0, 0, 1, 0, 0)" gradientUnits="userSpaceOnUse"><stop offset="0" stop-color="#fff"/><stop offset="0" stop-color="#a733ab"/><stop offset=".14" stop-color="#ff3eb5"/><stop offset=".28" stop-color="#eb451f"/><stop offset=".48" stop-color="#ff9e00"/><stop offset=".66" stop-color="#ffc800"/><stop offset=".74" stop-color="#00be2f"/><stop offset=".92" stop-color="#2ac0ff"/></linearGradient></defs><g><path class="cls-2" d="M22.29,36.42H.59v61.2H22.29v-29.3c0-6.8,0-17.2,9.7-17.2s9.7,10.4,9.7,17.2v29.2h21.7v-29.2c0-7.3,.4-16.7,10.4-16.7,9.2,0,8.9,10.4,8.9,16.7v29.2h21.7V58.52c0-14.1-5.4-24.2-20.9-24.2-8.3,0-16.6,4.1-20.7,11.7-4.4-8.1-12-11.7-20.9-11.7-7.9,0-14.2,2.9-19.3,9.7h-.2v-7.7s-.1,0-.1,.1Z"/><path class="cls-2" d="M131.19,58.12c1.3-6.3,6.6-9.7,12.9-9.7,5.8,0,11.2,3.8,12.3,9.7h-25.2Zm45.3,10.2c0-20.9-12.3-34-33.5-34-19.9,0-33.9,12.3-33.9,32.7s15.1,32.5,35.4,32.5c7,0,13.9-1.7,19.6-5.1,5.6-3.5,9.9-8.7,11.6-15.9h-20.9c-2.3,4.1-5.7,5.6-10.3,5.6-8.9,0-13.6-4.8-13.6-13.6h45.6v-2.2Z"/><path class="cls-2" d="M203.39,36.42h-21.7v61.2h21.7v-31.8c0-7.6,2.5-14.2,11.3-14.2,10.7,0,9.8,10.3,9.8,16.1v29.8h21.7V59.82c0-15-6.6-25.4-23-25.4-8.5,0-14.5,2.5-19.6,9.9h-.2v-7.9Z"/><polygon class="cls-2" points="279.39 54.22 291.69 54.22 291.69 36.42 279.39 36.42 279.39 18.12 257.69 18.12 257.69 36.42 250.69 36.42 250.69 54.22 257.69 54.22 257.69 97.62 279.39 97.62 279.39 54.22"/><path class="cls-2" d="M319.09,36.42h-21.7v61.2h21.7V36.42ZM308.29,.82c-6.7,0-12.2,5.5-12.2,12.2s5.5,12.2,12.2,12.2,12.2-5.5,12.2-12.2c-.1-6.7-5.5-12.2-12.2-12.2"/><path class="cls-2" d="M360.99,34.42c-19.7,0-36.8,11.8-36.8,32.7s17.3,32.5,36.8,32.5,36.8-11.8,36.8-32.5-17.1-32.7-36.8-32.7m0,18.8c8.8,0,13.9,6.3,13.9,13.8s-5.1,13.7-13.9,13.7-13.9-6-13.9-13.7c-.1-7.4,5.1-13.8,13.9-13.8"/><path class="cls-2" d="M424.49,36.42h-21.7v61.2h21.7v-31.8c0-7.6,2.5-14.2,11.3-14.2,10.7,0,9.8,10.3,9.8,16.1v29.8h21.7V59.82c0-15-6.6-25.4-23-25.4-8.5,0-14.5,2.5-19.6,9.9h-.2v-7.9h0Z"/></g><path class="cls-1" d="M686.09,88.32c-.7-2-2.2-3.6-4.6-4.1-2-.4-4.3,.3-5.6,1.9-.8,1-1.3,2.2-1.8,3.3-2.7,5.9-8,10.6-13.1,14.5-4.9,3.7-10.3,6.9-16.3,7.8-18.5,3.6-22.9-12.1-23.3-14.1,0-.1-.1-.2-.1-.4,17.4-8.8,37.7-29.7,40.3-49.5,2-15.8-12.2-25.4-26.9-17.9-20,12.2-27.8,36.7-27.2,59.4-7.3,1.6-12.4-2.9-15.2-9.2-5.1-10.9-4.5-23.4-6.8-35-.7-4.1-1.6-8.3-4-11.9-3-4.5-8.7-6.2-13.9-5.2-14.6,3.2-23.7,23.8-29.7,36.2,.1-10.9,.1-21.8-.5-32.7-.3-4.6-.5-9.3-2.5-13.5-1.6-4.2-5.6-6.1-9.7-5.8-2,.2-3.9,1-5.6,2.2-13.3,9.6-20.3,29.2-25.5,44.1,.3-14.3,.5-28.1,.6-42.4,0-4.1-3.2-6.6-6.5-6.3-7.2,.9-5.6,7.5-5.9,12.8-.2,27.3-.9,54.5-2.4,81.7,0,2.8-.4,5.9,1.2,8.4,2.2,3.8,8.1,3.8,10.5,.1,2.1-3.5,2.4-7.8,3.5-11.7,5.7-22.5,12.5-54.6,27.6-72.9,.7-.8,2-.4,2.1,.6,1.7,20,.4,40.2,.5,60.3-.4,8.5,8.3,12.6,13.2,5,2.1-3.3,3.1-7,4.6-10.6,3.4-8.6,7.1-17.1,11.4-25.3,2.3-3.9,7.1-12.9,12.2-16.6,2.2-1.6,5.4-.4,6.1,2.2,.7,2.7,.9,5.5,1.4,8.1,1.5,9.5,1.8,19.3,5.1,28.4,4.6,13.7,15.1,23.9,30.4,21,2.1,7.3,6.5,14,13.1,17.9,4.8,3.1,10.7,4.8,16.4,5,8.1,.5,15.9-1.8,22.7-6.1,7.1-4.3,13.8-9.8,18.9-16.4,2-3,4.7-5.9,5.4-9.5,.3-1.3,.3-2.5-.1-3.8Zm-115.1-48.4s.1,0,0,0h0q.1,0,0,0Zm69.7,.3c3.4-1.5,7.4,.7,8,4.3,1.3,7.4-1.2,22.2-30,41.3h0c0-.1,6-38.7,22-45.6Z"/></svg>