<svg width="32" height="32" viewBox="0 0 32 32" fill="none" xmlns="http://www.w3.org/2000/svg">
<path d="M27.6912 5.94158L27.7734 20.2348C27.7734 20.7874 27.3336 21.2385 26.7799 21.2385C26.2273 21.2385 25.7864 20.7986 25.7864 20.2449L25.7143 8.25563L6.48594 27.484C6.09686 27.8832 5.46195 27.8832 5.07287 27.484C4.67363 27.0949 4.67363 26.4702 5.07287 26.0709L24.3012 6.84256L12.3119 6.78161C11.7593 6.77145 11.3184 6.33158 11.3184 5.77793C11.3184 5.2253 11.7684 4.78442 12.3221 4.78442L26.6153 4.86671C27.2705 4.86671 27.6596 5.30658 27.6901 5.94149L27.6912 5.94158Z" fill="black"/>
</svg>
