<svg width="32" height="32" viewBox="0 0 32 32" fill="none" xmlns="http://www.w3.org/2000/svg">
<path d="M24.0006 17.4884C26.6114 17.4884 28.7278 15.3227 28.7278 12.6511C28.7278 9.97963 26.6114 7.81393 24.0006 7.81393C21.3898 7.81393 19.2733 9.97963 19.2733 12.6511C19.2733 15.3227 21.3898 17.4884 24.0006 17.4884Z" fill="black"/>
<path d="M14 27.5349C17.5145 27.5349 20.3636 24.6195 20.3636 21.0233C20.3636 17.427 17.5145 14.5116 14 14.5116C10.4854 14.5116 7.63635 17.427 7.63635 21.0233C7.63635 24.6195 10.4854 27.5349 14 27.5349Z" fill="black"/>
<path d="M6.36373 15.6279C8.27162 15.6279 9.81827 14.0452 9.81827 12.093C9.81827 10.1407 8.27162 8.55811 6.36373 8.55811C4.45583 8.55811 2.90918 10.1407 2.90918 12.093C2.90918 14.0452 4.45583 15.6279 6.36373 15.6279Z" fill="black"/>
<path d="M25.2729 27.1628C26.5783 27.1628 27.6366 26.0799 27.6366 24.7442C27.6366 23.4084 26.5783 22.3256 25.2729 22.3256C23.9675 22.3256 22.9093 23.4084 22.9093 24.7442C22.9093 26.0799 23.9675 27.1628 25.2729 27.1628Z" fill="black"/>
<path d="M6.00041 2.60463C6.30165 2.60463 6.54586 2.35474 6.54586 2.04649C6.54586 1.73823 6.30165 1.48834 6.00041 1.48834C5.69916 1.48834 5.45496 1.73823 5.45496 2.04649C5.45496 2.35474 5.69916 2.60463 6.00041 2.60463Z" fill="black"/>
<path d="M2.36369 2.60463C2.66494 2.60463 2.90914 2.35474 2.90914 2.04649C2.90914 1.73823 2.66494 1.48834 2.36369 1.48834C2.06244 1.48834 1.81824 1.73823 1.81824 2.04649C1.81824 2.35474 2.06244 2.60463 2.36369 2.60463Z" fill="black"/>
<path d="M4.18218 2.60463C4.48343 2.60463 4.72764 2.35474 4.72764 2.04649C4.72764 1.73823 4.48343 1.48834 4.18218 1.48834C3.88093 1.48834 3.63672 1.73823 3.63672 2.04649C3.63672 2.35474 3.88093 2.60463 4.18218 2.60463Z" fill="black"/>
<path d="M0.182129 4.09299H31.872V3.34882H0.182129V4.09299Z" fill="black"/>
<path d="M0.727273 0.744186V31.2558H31.2727V0.744186H0.727273ZM0.727273 0H31.2727C31.4656 0 31.6506 0.0784051 31.787 0.217967C31.9234 0.357529 32 0.546816 32 0.744186V31.2558C32 31.4532 31.9234 31.6425 31.787 31.782C31.6506 31.9216 31.4656 32 31.2727 32H0.727273C0.534388 32 0.349403 31.9216 0.213013 31.782C0.0766232 31.6425 0 31.4532 0 31.2558V0.744186C0 0.546816 0.0766232 0.357529 0.213013 0.217967C0.349403 0.0784051 0.534388 0 0.727273 0V0Z" fill="black"/>
</svg>
