<svg><svg viewBox="0 0 24.413 24.907"/><svg viewBox="0 0 24.313 21.543"/><svg viewBox="0 0 22.375 25.295"/><svg viewBox="0 0 25.983 25.489"/><svg viewBox="0 0 25.716 25.745"/><svg viewBox="0 0 26.446 24.907"/><svg viewBox="0 0 23.313 21.444"/><svg viewBox="0 0 22.627 23"/><svg viewBox="0 0 31.825 24.912"/><svg viewBox="0 0 30 21.836"/><svg viewBox="0 0 22.802 23"/><svg viewBox="0 0 24.276 27"/><svg viewBox="0 0 27.97 28.719"/><svg viewBox="0 0 26.251 29"/><svg viewBox="0 0 28 27"/><svg viewBox="0 0 28.189 27.193"/><svg viewBox="0 0 23 24.299"/><svg viewBox="0 0 24 24"><g fill="none"><path fill="#4386FA" d="M5.43 21.427L.21 12.385a1.561 1.561 0 010-1.562l5.22-9.042A1.56 1.56 0 016.78 1h10.446a1.56 1.56 0 011.345.78l5.22 9.043a1.561 1.561 0 010 1.562l-5.221 9.042c-.279.483-.793.78-1.35.781H6.776a1.563 1.563 0 01-1.347-.78h.001z"/><path fill="#000" d="M15.261 8.692s1.451 3.481-.527 5.454c-1.979 1.974-5.581.71-5.581.71l7.328 7.35h.744a1.565 1.565 0 001.35-.782l3.456-5.984-6.77-6.748z" opacity=".1"/><path fill="#FFF" d="M16.975 15.815l-1.6-1.604a.255.255 0 00-.059-.045 4.36 4.36 0 10-.762.764.25.25 0 00.042.056L16.2 16.59a.251.251 0 00.355 0l.42-.42a.25.25 0 000-.355zm-5.11-1.037a3.281 3.281 0 110-6.563 3.281 3.281 0 010 6.563zm-2.097-3.456v1.356c.209.368.511.676.877.89v-2.255l-.877.009zm1.64-1.125v3.665c.29.053.587.053.877 0v-3.665h-.877zm2.537 2.478v-.804h-.876v1.688c.365-.214.667-.52.877-.888l-.001.004z"/></g></svg></svg>