<svg xmlns="http://www.w3.org/2000/svg"><defs><style>.icon{display:none}.icon:target{display:inline}</style></defs><svg viewBox="0 0 24.413 24.907"><g id="plugins-bitbucket-release" class="icon"><path fill="#fff" fill-opacity=".7" d="M16.2064 6C11.7009 6 8 7.20682 8 8.73546C8 9.13773 8.96546 14.85 9.36773 17.1028C9.52864 18.1487 12.1836 19.5968 16.2064 19.5968C20.2291 19.5968 22.8037 18.1487 23.045 17.1028C23.4473 14.85 24.4128 9.13773 24.4128 8.73546C24.3323 7.20682 20.7118 6 16.2064 6ZM16.2064 17.7464C14.7582 17.7464 13.6318 16.62 13.6318 15.1718C13.6318 13.7237 14.7582 12.5973 16.2064 12.5973C17.6546 12.5973 18.7809 13.7237 18.7809 15.1718C18.7809 16.5396 17.6546 17.7464 16.2064 17.7464ZM16.2064 9.54001C13.31 9.54001 10.9768 9.05728 10.9768 8.41364C10.9768 7.77 13.31 7.28728 16.2064 7.28728C19.1028 7.28728 21.4359 7.77 21.4359 8.41364C21.4359 9.05728 19.1028 9.54001 16.2064 9.54001Z"/><path fill="#fff" fill-opacity=".7" d="M22.1444 19.275C21.9835 19.275 21.903 19.3555 21.903 19.3555C21.903 19.3555 19.8916 20.9646 16.2712 20.9646C12.6507 20.9646 10.6394 19.3555 10.6394 19.3555C10.6394 19.3555 10.4784 19.275 10.398 19.275C10.2371 19.275 10.0762 19.3555 10.0762 19.5968V19.6773C10.398 21.3668 10.6394 22.5737 10.6394 22.7346C10.8807 23.9414 13.2944 24.9069 16.1907 24.9069C19.0871 24.9069 21.5007 23.9414 21.7421 22.7346C21.7421 22.5737 21.9835 21.3668 22.3053 19.6773V19.5968C22.3857 19.4359 22.3053 19.275 22.1444 19.275Z"/><path fill="#fff" fill-opacity=".7" d="M16.2062 16.3786C16.9172 16.3786 17.4935 15.8023 17.4935 15.0914C17.4935 14.3804 16.9172 13.8041 16.2062 13.8041C15.4953 13.8041 14.9189 14.3804 14.9189 15.0914C14.9189 15.8023 15.4953 16.3786 16.2062 16.3786Z"/></g></svg><svg viewBox="0 0 24.313 21.543"><g id="plugins-email-scoring" class="icon"><path fill="#fff" fill-opacity=".7" d="M7.76951 10C7.35317 10 7 10.3532 7 10.7695V20.7731C7 21.1895 7.35317 21.5426 7.76951 21.5426H23.5445C23.9608 21.5426 24.314 21.1895 24.314 20.7731V10.7695C24.314 10.3532 23.9608 10 23.5445 10H7.76951ZM8.91175 11.1543H22.4022L15.657 16.9376L8.91175 11.1543ZM8.15426 12.014L12.2122 15.4948L8.15426 19.5527V12.014ZM23.1597 12.014V19.5527L19.1017 15.4948L23.1597 12.014ZM13.0899 16.2523L15.2843 18.1279C15.3885 18.2161 15.5205 18.2644 15.657 18.2644C15.7935 18.2644 15.9255 18.2161 16.0297 18.1279L18.224 16.2523L22.3601 20.3884H8.95382L13.0899 16.2523Z"/></g></svg><svg viewBox="0 0 22.375 25.295"><g id="plugins-geoip" class="icon"><path fill="#fff" fill-opacity=".7" d="M15.6876 25.2952C12.0001 25.2952 9 22.2951 9 18.6076C9 16.9096 9.64281 15.2881 10.8101 14.0417C10.886 13.9607 10.9924 13.9146 11.1035 13.9146C11.2146 13.9146 11.321 13.9607 11.397 14.0417C12.5246 15.2459 14.0483 15.9089 15.6876 15.9089C17.3267 15.9089 18.8504 15.2459 19.9781 14.0417C20.13 13.8796 20.413 13.8796 20.5649 14.0417C21.7322 15.2881 22.375 16.9096 22.375 18.6076C22.375 22.2951 19.3751 25.2952 15.6876 25.2952ZM11.123 14.9048C10.2695 15.9533 9.80396 17.2529 9.80396 18.6076C9.80396 21.8519 12.4433 24.4912 15.6876 24.4912C18.9317 24.4912 21.5711 21.8519 21.5711 18.6076C21.5711 17.2529 21.1055 15.9533 20.2521 14.9048C19.0083 16.0742 17.4039 16.7129 15.6876 16.7129C13.9713 16.7129 12.3668 16.0742 11.123 14.9048Z"/><path fill="#fff" fill-opacity=".7" d="M15.6872 25.2953C13.8231 25.2953 12.091 24.5417 10.8097 23.1735C10.665 23.0188 10.665 22.7786 10.8097 22.6239C12.091 21.2558 13.8231 20.5023 15.6872 20.5023C17.5511 20.5023 19.2832 21.2558 20.5645 22.6239C20.7092 22.7786 20.7092 23.0188 20.5645 23.1735C19.2832 24.5417 17.5513 25.2953 15.6872 25.2953ZM11.6705 22.8987C12.7652 23.9286 14.1772 24.4913 15.6872 24.4913C17.1972 24.4913 18.609 23.9286 19.7036 22.8987C18.609 21.8688 17.197 21.3063 15.6872 21.3063C14.1772 21.3063 12.7652 21.8688 11.6705 22.8987Z"/><path fill="#fff" fill-opacity=".7" d="M21.9538 19.0095H9.40198C9.17999 19.0095 9 18.8295 9 18.6075C9 18.3856 9.17999 18.2056 9.40198 18.2056H21.9538C22.1758 18.2056 22.3558 18.3856 22.3558 18.6075C22.3558 18.8295 22.1758 19.0095 21.9538 19.0095Z"/><path fill="#fff" fill-opacity=".7" d="M15.6876 25.2952C15.4656 25.2952 15.2856 25.1152 15.2856 24.8932V15.1599C15.2856 14.9379 15.4656 14.7579 15.6876 14.7579C15.9096 14.7579 16.0896 14.9379 16.0896 15.1599V24.8932C16.0896 25.1152 15.9096 25.2952 15.6876 25.2952Z"/><path fill="#fff" fill-opacity=".7" d="M15.6878 15.8218C15.5504 15.8218 15.4224 15.7515 15.3486 15.6357C15.0467 15.1611 12.3989 10.9523 12.3989 9.28885C12.3989 7.47543 13.8744 6 15.6878 6C17.5012 6 18.9764 7.47543 18.9764 9.28885C18.9764 10.9523 16.3288 15.1611 16.0269 15.6355C15.9531 15.7515 15.8252 15.8218 15.6878 15.8218ZM15.6878 6.80396C14.3176 6.80396 13.2029 7.91863 13.2029 9.28885C13.2029 10.3517 14.7723 13.153 15.6878 14.6577C16.603 13.153 18.1725 10.3517 18.1725 9.28885C18.1725 7.91863 17.0578 6.80396 15.6878 6.80396Z"/><path fill="#fff" fill-opacity=".7" d="M15.6877 25.2953C13.8101 25.2953 12.3394 22.3577 12.3394 18.6076C12.3394 16.1891 12.9761 13.9617 14.0011 12.7948C14.0876 12.6963 14.2166 12.6441 14.3475 12.6608C14.478 12.6751 14.5932 12.7524 14.656 12.8677C15.0421 13.5754 15.4251 14.2222 15.6877 14.655C15.9503 14.222 16.3332 13.5749 16.7191 12.8677C16.7819 12.7524 16.8971 12.6751 17.0277 12.6608C17.1574 12.6459 17.2875 12.6965 17.3741 12.7948C18.3991 13.9617 19.036 16.1889 19.036 18.6076C19.036 22.3577 17.5653 25.2953 15.6877 25.2953ZM14.2548 13.8008C13.5606 14.9096 13.1433 16.6812 13.1433 18.6076C13.1433 22.1271 14.459 24.4913 15.6877 24.4913C16.9164 24.4913 18.232 22.1271 18.232 18.6076C18.232 16.6812 17.8146 14.9096 17.1203 13.8006C16.5374 14.8312 16.0327 15.6264 16.0268 15.6356C15.8796 15.8676 15.4965 15.868 15.3485 15.6356C15.3426 15.6264 14.8378 14.8312 14.2548 13.8008Z"/><path fill="#fff" fill-opacity=".7" d="M15.6876 25.2952C15.4589 25.2952 15.2234 25.2826 14.9873 25.2581C14.9482 25.254 14.9109 25.2479 14.8734 25.2414L14.8195 25.2328C14.6454 25.2102 14.4724 25.1855 14.3029 25.1498C14.2669 25.1421 14.2318 25.1327 14.1967 25.1231L14.1478 25.1101C13.9763 25.0699 13.8053 25.0261 13.6385 24.9723C13.6114 24.9637 13.5851 24.9539 13.5588 24.9437C13.3456 24.8699 13.1697 24.8039 12.9986 24.7284C12.9929 24.7258 12.9517 24.7062 12.9462 24.7034C12.735 24.6069 12.5591 24.5175 12.3903 24.4218C12.3874 24.42 12.3568 24.4015 12.3538 24.3998C12.1713 24.2946 11.9903 24.1784 11.818 24.0557C11.4523 23.7948 11.1157 23.4998 10.8105 23.1738C9.64301 21.9273 9 20.3056 9 18.6076C9 16.9096 9.64281 15.2881 10.8101 14.0418C11.6523 13.1424 12.7295 12.4933 13.9252 12.1649C14.1068 12.1155 14.2999 12.1985 14.3877 12.3659C14.8583 13.2641 15.3643 14.1218 15.6876 14.6547C16.0109 14.1216 16.5171 13.2635 16.9876 12.3659C17.0753 12.1985 17.2679 12.1157 17.45 12.1649C18.6455 12.4933 19.7227 13.1422 20.5649 14.0418C21.7322 15.2881 22.375 16.9096 22.375 18.6076C22.375 20.3056 21.7322 21.9271 20.5649 23.1734C20.2593 23.4996 19.9227 23.7948 19.5641 24.0504C19.3847 24.1786 19.2038 24.2946 19.0192 24.401C18.8167 24.5174 18.6408 24.6065 18.4471 24.6944L18.3774 24.728C18.2055 24.8037 18.0296 24.8699 17.8512 24.9309C17.7898 24.9539 17.7637 24.9637 17.737 24.9723C17.5699 25.0261 17.3988 25.0699 17.2264 25.1103L17.1778 25.1233C17.1428 25.1329 17.1079 25.1421 17.0722 25.1498C16.903 25.1855 16.7297 25.2102 16.5559 25.2328L16.5018 25.2414C16.4645 25.2477 16.427 25.254 16.3887 25.2579C16.1516 25.2826 15.9161 25.2952 15.6876 25.2952ZM13.8316 13.0333C12.9016 13.3434 12.0651 13.8777 11.397 14.5913C10.3696 15.6881 9.80396 17.1145 9.80396 18.6076C9.80396 20.1007 10.3696 21.527 11.397 22.6238C11.6661 22.9114 11.9624 23.1711 12.2777 23.396C12.4357 23.5087 12.5948 23.6107 12.7574 23.7044C12.9407 23.8098 13.0987 23.8891 13.2604 23.9627C13.2647 23.9644 13.2999 23.9813 13.304 23.9835C13.4732 24.0588 13.6275 24.1165 13.7843 24.1701L13.8852 24.2072C14.0314 24.2543 14.1816 24.2922 14.3329 24.3277L14.4689 24.3631C14.6177 24.3945 14.7698 24.4157 14.9227 24.4355L15.0715 24.4587C15.4868 24.5018 15.8872 24.502 16.3045 24.4585L16.4525 24.4355C16.6052 24.4157 16.7573 24.3945 16.9061 24.3631L17.0417 24.3279C17.1935 24.2922 17.3438 24.2543 17.4902 24.2072L17.5915 24.1699C17.7474 24.1165 17.902 24.059 18.0524 23.9927L18.114 23.9629C18.2763 23.8891 18.4345 23.8098 18.588 23.7226C18.78 23.6109 18.9394 23.5087 19.0911 23.4007C19.4124 23.1713 19.7088 22.9116 19.9779 22.6242C21.0052 21.5272 21.5711 20.1007 21.5711 18.6076C21.5711 17.1145 21.0054 15.6881 19.9781 14.5913C19.3099 13.8777 18.4734 13.3432 17.5436 13.0333C16.8033 14.4117 16.035 15.6226 16.0268 15.6355C15.8796 15.8675 15.4964 15.8679 15.3484 15.6355C15.3402 15.6226 14.5718 14.4117 13.8316 13.0333Z"/><path fill="#fff" fill-opacity=".7" d="M15.6872 16.7129C13.8231 16.7129 12.091 15.9594 10.8097 14.5913C10.665 14.4367 10.665 14.1964 10.8097 14.0418C11.6519 13.1424 12.7291 12.4933 13.9248 12.1649C14.1064 12.1155 14.2995 12.1985 14.3872 12.3659C14.8579 13.2641 15.3639 14.1218 15.6872 14.6547C16.0107 14.1216 16.5167 13.2635 16.9871 12.3659C17.0749 12.1985 17.2674 12.1157 17.4496 12.1649C18.6451 12.4933 19.7223 13.1422 20.5645 14.0418C20.7092 14.1964 20.7092 14.4367 20.5645 14.5913C19.2832 15.9594 17.5511 16.7129 15.6872 16.7129ZM11.6711 14.3169C12.7656 15.3466 14.1774 15.909 15.6872 15.909C17.1968 15.909 18.6086 15.3466 19.7031 14.3169C19.086 13.7399 18.3495 13.3022 17.5432 13.0333C16.803 14.4117 16.0346 15.6226 16.0264 15.6355C15.8788 15.8675 15.4956 15.8675 15.348 15.6355C15.3398 15.6226 14.5713 14.4117 13.8312 13.0333C13.0247 13.3022 12.2882 13.7399 11.6711 14.3169Z"/><path fill="#fff" fill-opacity=".7" d="M15.6873 11.0628C14.6987 11.0628 13.8945 10.2586 13.8945 9.26998C13.8945 8.28133 14.6987 7.47717 15.6873 7.47717C16.676 7.47717 17.4802 8.28133 17.4802 9.26998C17.4802 10.2586 16.676 11.0628 15.6873 11.0628ZM15.6873 8.28113C15.1421 8.28113 14.6985 8.72472 14.6985 9.26998C14.6985 9.81525 15.1421 10.2588 15.6873 10.2588C16.2326 10.2588 16.6762 9.81525 16.6762 9.26998C16.6762 8.72472 16.2326 8.28113 15.6873 8.28113Z"/></g></svg><svg viewBox="0 0 25.983 25.489"><g id="plugins-github-release" class="icon"><path fill="#fff" fill-opacity=".7" fill-rule="evenodd" d="M15.9912 6C10.4739 6 6 10.473 6 15.9912C6 20.4056 8.86268 24.1513 12.8323 25.4715C13.3316 25.5642 13.5153 25.2547 13.5153 24.9908C13.5153 24.7526 13.5059 23.9655 13.5015 23.1308C10.7222 23.7353 10.1355 21.9521 10.1355 21.9521C9.6809 20.799 9.02677 20.4886 9.02677 20.4886C8.11807 19.8699 9.09373 19.881 9.09373 19.881C10.0969 19.9515 10.6251 20.9108 10.6251 20.9108C11.516 22.4381 12.9622 21.9964 13.5325 21.741C13.6212 21.0957 13.8811 20.6544 14.1672 20.4052C11.9475 20.1524 9.61482 19.2965 9.61482 15.4675C9.61482 14.3765 10.0051 13.4855 10.6441 12.7857C10.5408 12.5338 10.1984 11.5178 10.7413 10.1417C10.7413 10.1417 11.5803 9.87337 13.4909 11.1657C15.1285 10.7175 16.8565 10.7175 18.4942 11.1657C20.4012 9.87337 21.2389 10.1417 21.2389 10.1417C21.7831 11.5165 21.4412 12.5338 21.3374 12.7857C21.9778 13.4855 22.3654 14.3765 22.3654 15.4675C22.3654 19.3049 20.0282 20.1497 17.8033 20.3972C18.1616 20.7076 18.4809 21.3152 18.4809 22.2474C18.4809 23.5841 18.4694 24.66 18.4694 24.989C18.4694 25.2551 18.6494 25.5655 19.1555 25.4684C23.1233 24.146 25.9824 20.4021 25.9824 15.9894C25.982 10.473 21.5112 6 15.9912 6Z" clip-rule="evenodd"/></g></svg><svg viewBox="0 0 25.716 25.745"><g id="plugins-github-star" class="icon"><path fill="#fff" fill-opacity=".7" d="M25.6879 13.4965C25.6547 13.3943 25.5938 13.3034 25.5119 13.2338C25.4301 13.1642 25.3305 13.1187 25.2243 13.1025L18.7708 12.1614L15.8848 6.32218C15.8369 6.22544 15.7629 6.14401 15.6711 6.08709C15.5794 6.03016 15.4736 6 15.3656 6C15.2576 6 15.1518 6.03016 15.06 6.08709C14.9683 6.14401 14.8943 6.22544 14.8463 6.32218L11.9604 12.1614L5.50923 13.0886C5.39912 13.102 5.29519 13.1468 5.20977 13.2176C5.12436 13.2883 5.06105 13.3821 5.02736 13.4878C4.99368 13.5935 4.99104 13.7067 5.01975 13.8138C5.04846 13.9209 5.10732 14.0176 5.18934 14.0923L9.85789 18.6519L8.75682 25.0659C8.73822 25.1727 8.74992 25.2825 8.79058 25.3829C8.83125 25.4834 8.89925 25.5704 8.98688 25.6341C9.0745 25.6978 9.17824 25.7357 9.28631 25.7435C9.39438 25.7512 9.50245 25.7285 9.59827 25.6779L15.3656 22.6436L21.1352 25.6756C21.231 25.7262 21.3391 25.7489 21.4472 25.7411C21.5553 25.7334 21.659 25.6955 21.7466 25.6318C21.8342 25.5681 21.9022 25.481 21.9429 25.3806C21.9836 25.2802 21.9953 25.1704 21.9767 25.0636L20.8733 18.6519L25.5418 14.0923C25.6195 14.0166 25.6743 13.9206 25.7001 13.8153C25.726 13.71 25.7217 13.5996 25.6879 13.4965Z"/></g></svg><svg viewBox="0 0 26.446 24.907"><g id="plugins-gitlab-release" class="icon"><path fill="#fff" fill-opacity=".7" d="M26.3858 16.5908L25.2971 13.2378C25.2976 13.2393 25.2977 13.2409 25.2982 13.2424C25.2977 13.2407 25.2974 13.2389 25.2969 13.2372C25.2968 13.2371 25.2968 13.237 25.2968 13.2369C25.2968 13.2368 25.2968 13.2368 25.2968 13.2368L23.1356 6.58293C23.0174 6.23241 22.6921 5.99716 22.3191 6.00006C21.9451 6.00199 21.6287 6.23271 21.513 6.58805L19.4615 12.9038H12.9885L10.9332 6.58763C10.8176 6.23259 10.5012 6.00193 10.1272 6C10.1257 6 10.1242 6 10.1227 6C9.7544 6 9.42843 6.2338 9.30894 6.58823L7.15361 13.2361L7.15331 13.2369C7.15331 13.237 7.15331 13.2371 7.15331 13.2371C7.15277 13.2388 7.15252 13.2405 7.15198 13.2422C7.15246 13.2407 7.15265 13.2391 7.15313 13.2376L6.06044 16.5908C5.89607 17.097 6.07444 17.6471 6.50439 17.9599L15.9393 24.8151C15.9407 24.8161 15.9423 24.8167 15.9436 24.8177C15.9477 24.8206 15.9516 24.8236 15.9557 24.8263C15.9519 24.8237 15.9482 24.8208 15.9444 24.8182C15.9444 24.8182 15.9444 24.8181 15.9444 24.8181C15.945 24.8186 15.9457 24.8189 15.9464 24.8193C15.9469 24.8197 15.9474 24.8199 15.948 24.8203C15.9481 24.8204 15.9481 24.8204 15.9482 24.8205C15.9628 24.8306 15.978 24.8399 15.9937 24.8484C15.9958 24.8496 15.9978 24.8511 15.9999 24.8523C16 24.8523 16 24.8523 16 24.8523C16.0014 24.853 16.0026 24.8538 16.0039 24.8545C16.0049 24.855 16.006 24.8553 16.007 24.8558C16.0077 24.8561 16.0085 24.8564 16.0092 24.8567C16.011 24.8575 16.0129 24.8581 16.0146 24.859C16.0228 24.8629 16.0315 24.8661 16.0399 24.8695C16.0478 24.8728 16.0555 24.8766 16.0636 24.8794C16.0639 24.8795 16.0642 24.8797 16.0646 24.8798C16.0659 24.8803 16.0671 24.881 16.0685 24.8815C16.0702 24.8821 16.0718 24.8827 16.0735 24.8833C16.0742 24.8835 16.0748 24.8836 16.0755 24.8838C16.0776 24.8844 16.0799 24.8847 16.082 24.8853C16.0828 24.8856 16.0837 24.8857 16.0846 24.8859C16.0959 24.8894 16.1077 24.8918 16.1194 24.8944C16.1239 24.8955 16.1283 24.8969 16.133 24.8978C16.1337 24.8979 16.1343 24.8981 16.135 24.8982C16.1365 24.8985 16.1379 24.8991 16.1394 24.8993C16.1419 24.8997 16.1443 24.9005 16.1469 24.9009C16.1489 24.9012 16.1509 24.9011 16.1529 24.9014C16.1533 24.9014 16.1536 24.9014 16.1539 24.9014C16.154 24.9014 16.1541 24.9014 16.1542 24.9014C16.1765 24.9046 16.199 24.9069 16.222 24.9069C16.2221 24.9069 16.2223 24.9069 16.2224 24.9069C16.2225 24.9069 16.2226 24.9069 16.2226 24.9069H16.2226C16.2227 24.9069 16.2227 24.9069 16.2228 24.9069C16.2458 24.9069 16.2684 24.9046 16.2907 24.9014C16.2908 24.9014 16.2909 24.9014 16.291 24.9014C16.2913 24.9014 16.2917 24.9014 16.2921 24.9014C16.294 24.9011 16.2962 24.9012 16.2981 24.9009C16.3007 24.9005 16.3031 24.8997 16.3056 24.8993C16.3071 24.8991 16.3085 24.8985 16.31 24.8982C16.3107 24.8981 16.3113 24.8979 16.312 24.8978C16.3167 24.8968 16.3212 24.8954 16.3259 24.8944C16.3374 24.8918 16.349 24.8894 16.3603 24.886C16.3611 24.8857 16.3618 24.8857 16.3626 24.8854C16.3649 24.8848 16.3672 24.8845 16.3694 24.8838C16.37 24.8836 16.3708 24.8835 16.3714 24.8833C16.3732 24.8828 16.3749 24.8821 16.3766 24.8815C16.3779 24.881 16.3791 24.8803 16.3804 24.8798C16.3808 24.8797 16.3811 24.8795 16.3814 24.8794C16.39 24.8764 16.3981 24.8724 16.4065 24.869C16.4143 24.8657 16.4222 24.8628 16.4298 24.8592C16.4317 24.8583 16.4337 24.8578 16.4355 24.8569C16.4362 24.8565 16.4371 24.8563 16.4378 24.8559C16.4388 24.8554 16.4399 24.8551 16.4409 24.8546C16.4423 24.8538 16.4436 24.853 16.445 24.8523C16.445 24.8523 16.445 24.8523 16.445 24.8523C16.4473 24.8511 16.4492 24.8495 16.4515 24.8483C16.467 24.8398 16.4821 24.8306 16.4967 24.8205C16.4978 24.8198 16.4991 24.8192 16.5003 24.8183C16.5006 24.8181 16.501 24.8179 16.5013 24.8177C16.5027 24.8167 16.5043 24.816 16.5057 24.815L25.9421 17.9597C26.3718 17.6471 26.5501 17.097 26.3858 16.5908ZM22.3251 7.20627L24.1757 12.9038H20.4745L22.3251 7.20627ZM23.8516 13.8672L23.0964 14.8348L17.5269 21.971L20.1615 13.8672H23.8516ZM15.7644 24.5742C15.7649 24.5756 15.7656 24.577 15.7661 24.5785C15.7656 24.577 15.7649 24.5756 15.7644 24.5742ZM14.9194 21.9715L8.5982 13.8672H12.2885L14.9194 21.9715ZM10.1213 7.20621L11.9754 12.9038H8.27416L10.1213 7.20621ZM7.07091 17.1806C6.97947 17.1141 6.94159 16.9966 6.97663 16.8888L7.78889 14.3961L13.7406 22.0266L7.07091 17.1806ZM15.9227 24.8023C15.9208 24.8008 15.919 24.7992 15.9172 24.7976C15.9169 24.7973 15.9165 24.7969 15.9161 24.7966C15.9125 24.7936 15.9089 24.7905 15.9054 24.7874C15.8985 24.7814 15.8918 24.7753 15.8853 24.7689C15.8859 24.7694 15.8865 24.7698 15.887 24.7703C15.8877 24.771 15.8885 24.7715 15.8892 24.7722C15.9031 24.7854 15.9176 24.7978 15.9328 24.8093C15.933 24.8094 15.9331 24.8096 15.9333 24.8097C15.934 24.8102 15.9346 24.8109 15.9353 24.8115C15.9312 24.8085 15.9268 24.8056 15.9227 24.8023ZM16.2228 22.8663L14.6747 18.0975L13.3015 13.8672H19.1484L16.2228 22.8663ZM16.5397 24.7874C16.536 24.7905 16.5325 24.7936 16.5289 24.7967C16.5284 24.797 16.528 24.7974 16.5276 24.7978C16.5257 24.7993 16.524 24.8009 16.5222 24.8024C16.5182 24.8056 16.5138 24.8085 16.5097 24.8116C16.5104 24.8111 16.511 24.8104 16.5118 24.8099C16.5119 24.8097 16.512 24.8096 16.5122 24.8095C16.5274 24.798 16.5418 24.7857 16.5555 24.7725C16.5561 24.772 16.5567 24.7716 16.5573 24.7711C16.558 24.7704 16.5588 24.7699 16.5594 24.7692C16.5531 24.7754 16.5464 24.7815 16.5397 24.7874ZM25.3755 17.1804L18.7068 22.0251L24.6605 14.3967L25.4695 16.8883C25.5046 16.9966 25.4668 17.1141 25.3755 17.1804Z"/></g></svg><svg viewBox="0 0 23.313 21.444"><g id="plugins-twitter" class="icon"><path fill="#fff" fill-opacity=".7" d="M21.7462 12.0978C21.7555 12.2328 21.7555 12.3678 21.7555 12.5041C21.7555 16.6556 18.595 21.4436 12.816 21.4436V21.4411C11.1088 21.4436 9.43714 20.9546 8 20.0326C8.24823 20.0624 8.49771 20.0774 8.74781 20.078C10.1626 20.0792 11.5369 19.6045 12.6499 18.7304C11.3054 18.7049 10.1265 17.8283 9.71462 16.5486C10.1856 16.6394 10.6708 16.6208 11.1331 16.4945C9.66733 16.1983 8.61281 14.9105 8.61281 13.4149C8.61281 13.4012 8.61281 13.3881 8.61281 13.375C9.04955 13.6183 9.53855 13.7533 10.0388 13.7682C8.65822 12.8456 8.23268 11.0091 9.06635 9.57315C10.6615 11.536 13.0151 12.7293 15.5416 12.8556C15.2884 11.7643 15.6343 10.6208 16.4505 9.85374C17.716 8.66421 19.7062 8.72518 20.8957 9.98999C21.5993 9.85125 22.2737 9.59306 22.8909 9.22724C22.6564 9.95453 22.1655 10.5723 21.5098 10.9649C22.1325 10.8915 22.741 10.7247 23.314 10.4703C22.8922 11.1024 22.3608 11.653 21.7462 12.0978Z"/></g></svg><svg viewBox="0 0 22.627 23"><g id="plugins-user-agent" class="icon"><path fill="#fff" fill-opacity=".7" d="M9.06306 10.3127L14.8956 22.6229C15.0046 22.8591 15.2408 23.0044 15.4998 22.9999C15.7632 22.9953 15.9949 22.8364 16.0948 22.6002L17.9345 18.3075L22.2272 16.4678C22.4634 16.3679 22.6224 16.1316 22.627 15.8727C22.627 15.8727 22.627 15.8682 22.627 15.8636C22.627 15.6092 22.4816 15.3776 22.2499 15.2686L9.93976 9.436C9.6899 9.31789 9.39011 9.36786 9.19479 9.56773C8.99491 9.76305 8.94495 10.0629 9.06306 10.3127Z"/></g></svg><svg viewBox="0 0 31.825 24.912"><g id="plugins-s3" class="icon"><path fill="#fff" d="M9.09441 12.9417C9.09441 13.3285 9.13652 13.6422 9.2102 13.8722C9.29441 14.1022 9.39968 14.3531 9.54704 14.6249C9.59968 14.7085 9.62073 14.7922 9.62073 14.8653C9.62073 14.9699 9.55757 15.0744 9.42073 15.179L8.75757 15.618C8.66283 15.6808 8.5681 15.7121 8.48389 15.7121C8.37862 15.7121 8.27336 15.6599 8.1681 15.5658C8.02073 15.409 7.89441 15.2417 7.78915 15.0744C7.68389 14.8967 7.57862 14.6981 7.46283 14.4576C6.64178 15.4194 5.6102 15.9003 4.3681 15.9003C3.48389 15.9003 2.77862 15.6494 2.26283 15.1476C1.74704 14.6458 1.48389 13.9767 1.48389 13.1404C1.48389 12.2517 1.79968 11.5304 2.44178 10.9867C3.08389 10.4431 3.93652 10.1713 5.02073 10.1713C5.37862 10.1713 5.74704 10.2027 6.13652 10.2549C6.52599 10.3072 6.92599 10.3908 7.34705 10.4849V9.72176C7.34705 8.92723 7.17862 8.37314 6.85231 8.04906C6.51547 7.72497 5.94704 7.56815 5.13652 7.56815C4.7681 7.56815 4.38915 7.60997 3.99968 7.70406C3.6102 7.79815 3.23126 7.91315 2.86283 8.05951C2.69441 8.13269 2.5681 8.17451 2.49441 8.19542C2.42073 8.21633 2.3681 8.22678 2.32599 8.22678C2.17862 8.22678 2.10494 8.12224 2.10494 7.90269V7.39043C2.10494 7.22316 2.12599 7.0977 2.17862 7.02452C2.23126 6.95134 2.32599 6.87816 2.47336 6.80498C2.84178 6.6168 3.28389 6.45999 3.79968 6.33453C4.31547 6.19863 4.86283 6.1359 5.44178 6.1359C6.69441 6.1359 7.6102 6.41817 8.19968 6.98271C8.77862 7.54724 9.07336 8.40451 9.07336 9.55449V12.9417H9.09441ZM4.82073 14.5308C5.1681 14.5308 5.52599 14.4681 5.90494 14.3426C6.28389 14.2172 6.62073 13.9872 6.90494 13.6735C7.07336 13.4749 7.19968 13.2554 7.26283 13.0044C7.32599 12.7535 7.3681 12.4504 7.3681 12.0949V11.6558C7.06283 11.5826 6.73652 11.5199 6.39968 11.4781C6.06283 11.4363 5.73652 11.4154 5.4102 11.4154C4.70494 11.4154 4.18915 11.5513 3.84178 11.8336C3.49441 12.1158 3.32599 12.5131 3.32599 13.0358C3.32599 13.5272 3.45231 13.8931 3.71547 14.144C3.9681 14.4053 4.33652 14.5308 4.82073 14.5308ZM13.2734 15.6599C13.0839 15.6599 12.9576 15.6285 12.8734 15.5553C12.7892 15.4926 12.7155 15.3462 12.6523 15.1476L10.1786 7.06634C10.1155 6.85725 10.0839 6.72135 10.0839 6.64817C10.0839 6.48089 10.1681 6.3868 10.3365 6.3868H11.3681C11.5681 6.3868 11.7049 6.41817 11.7786 6.49135C11.8628 6.55408 11.926 6.70044 11.9892 6.89907L13.7576 13.8199L15.3997 6.89907C15.4523 6.68998 15.5155 6.55408 15.5997 6.49135C15.6839 6.42862 15.8313 6.3868 16.0207 6.3868H16.8628C17.0628 6.3868 17.1997 6.41817 17.2839 6.49135C17.3681 6.55408 17.4418 6.70044 17.4839 6.89907L19.147 13.9035L20.9681 6.89907C21.0313 6.68998 21.1049 6.55408 21.1786 6.49135C21.2628 6.42862 21.3997 6.3868 21.5892 6.3868H22.5681C22.7365 6.3868 22.8313 6.47044 22.8313 6.64817C22.8313 6.70044 22.8207 6.75271 22.8102 6.81544C22.7997 6.87816 22.7786 6.9618 22.7365 7.0768L20.1997 15.1581C20.1365 15.3671 20.0628 15.5031 19.9786 15.5658C19.8944 15.6285 19.7576 15.6703 19.5786 15.6703H18.6734C18.4734 15.6703 18.3365 15.639 18.2523 15.5658C18.1681 15.4926 18.0944 15.3567 18.0523 15.1476L16.4207 8.40451L14.7997 15.1371C14.747 15.3462 14.6839 15.4821 14.5997 15.5553C14.5155 15.6285 14.3681 15.6599 14.1786 15.6599H13.2734ZM26.7997 15.9421C26.2523 15.9421 25.7049 15.8794 25.1786 15.754C24.6523 15.6285 24.2418 15.4926 23.9681 15.3358C23.7997 15.2417 23.6839 15.1371 23.6418 15.0431C23.5997 14.949 23.5786 14.8444 23.5786 14.7503V14.2172C23.5786 13.9976 23.6628 13.8931 23.8207 13.8931C23.8839 13.8931 23.947 13.9035 24.0102 13.9244C24.0734 13.9453 24.1681 13.9872 24.2734 14.029C24.6313 14.1858 25.0207 14.3112 25.4313 14.3949C25.8523 14.4785 26.2628 14.5203 26.6839 14.5203C27.347 14.5203 27.8628 14.4053 28.2207 14.1753C28.5786 13.9453 28.7681 13.6108 28.7681 13.1822C28.7681 12.8894 28.6734 12.649 28.4839 12.4504C28.2944 12.2517 27.9365 12.074 27.4207 11.9067L25.8944 11.4363C25.126 11.1958 24.5576 10.8404 24.2102 10.3699C23.8628 9.90994 23.6839 9.39768 23.6839 8.85405C23.6839 8.41496 23.7786 8.02815 23.9681 7.69361C24.1576 7.35907 24.4102 7.06634 24.726 6.83634C25.0418 6.59589 25.3997 6.41817 25.8207 6.29272C26.2418 6.16726 26.6839 6.11499 27.147 6.11499C27.3786 6.11499 27.6207 6.12544 27.8523 6.15681C28.0944 6.18817 28.3155 6.22999 28.5365 6.27181C28.747 6.32408 28.947 6.37635 29.1365 6.43908C29.326 6.5018 29.4734 6.56453 29.5786 6.62726C29.726 6.71089 29.8313 6.79453 29.8944 6.88862C29.9576 6.97225 29.9892 7.08725 29.9892 7.23361V7.72497C29.9892 7.94451 29.9049 8.05951 29.747 8.05951C29.6628 8.05951 29.526 8.01769 29.347 7.93406C28.747 7.66224 28.0734 7.52634 27.326 7.52634C26.726 7.52634 26.2523 7.62043 25.926 7.81906C25.5997 8.01769 25.4313 8.32087 25.4313 8.7495C25.4313 9.04223 25.5365 9.29313 25.747 9.49177C25.9576 9.6904 26.347 9.88903 26.9049 10.0668L28.3997 10.5372C29.1576 10.7777 29.7049 11.1122 30.0313 11.5408C30.3576 11.9695 30.5155 12.4608 30.5155 13.0044C30.5155 13.454 30.4207 13.8617 30.2418 14.2172C30.0523 14.5726 29.7997 14.8862 29.4734 15.1371C29.147 15.3985 28.7576 15.5867 28.3049 15.7226C27.8313 15.869 27.3365 15.9421 26.7997 15.9421Z"/><path fill="#F90" fill-rule="evenodd" d="M28.7892 21.023C25.326 23.5634 20.2945 24.912 15.9681 24.912C9.90498 24.912 4.44182 22.6852 0.315505 18.9844C-0.0108105 18.6916 0.283926 18.2944 0.6734 18.5244C5.13656 21.0962 10.6418 22.6539 16.3366 22.6539C20.1787 22.6539 24.3997 21.8593 28.2839 20.2284C28.8629 19.9671 29.3576 20.6048 28.7892 21.023Z" clip-rule="evenodd"/><path fill="#F90" fill-rule="evenodd" d="M30.2313 19.392C29.7892 18.8275 27.305 19.1202 26.1787 19.2561C25.8418 19.2979 25.7892 19.0052 26.0945 18.7857C28.0734 17.4057 31.3261 17.8029 31.705 18.2629C32.084 18.7334 31.5997 21.9638 29.7471 23.5111C29.4629 23.7515 29.1892 23.6261 29.3155 23.3124C29.7366 22.2774 30.6734 19.9461 30.2313 19.392Z" clip-rule="evenodd"/></g></svg><svg viewBox="0 0 30 21.836"><g id="plugins-customerio" class="icon"><g clip-path="url(#clip0)"><path fill="#235A5A" d="M7.341 11.0866L10.4247 8.95398L15.9978 12.8174L30 3.11675L2 3.11084L7.341 6.81515V11.0866ZM15.9976 11.4502L10.9729 7.96425L26.888 4.29296L15.9976 11.4502ZM5.6085 4.24123L26.5896 3.80045L8.58131 6.30984L5.6085 4.24123Z"/><path fill="#235A5A" d="M30 4.46313L15.9904 14.1922L15.9862 14.1893L15.9859 14.1894L10.4177 10.3167L6.20789 13.2442V7.40718L2.03174 4.4977V18.2363C2.08479 19.3349 2.57774 20.2888 3.27599 20.9719C3.63518 21.3226 4.1196 21.6747 5.02894 21.8088L5.65544 21.3734L5.02949 21.8088C5.16206 21.8265 5.29562 21.8356 5.42936 21.8362H16.1794L16.1797 21.8359H26.598C28.469 21.8359 30.0002 20.1245 30.0002 18.0323V12.2252L30 12.2248V4.46313Z"/><path fill="#82BFBE" d="M6.20789 7.40716L2.03174 4.49768V16.1482L6.20789 13.2442V7.40716Z"/><path fill="#235A5A" d="M26.5978 21.8358C28.4688 21.8358 30 20.1245 30 18.0323V12.2251L16.1792 21.8358H26.5978Z"/><path fill="#2C7A79" d="M30 4.46289L15.9902 14.1922L15.986 14.1893L5.0293 21.8088C5.16186 21.8265 5.29543 21.8356 5.42917 21.8361H16.1792L29.9998 12.2249V4.46289H30Z"/><path fill="#389798" d="M10.4177 10.3167L2.03174 16.1482V18.2363C2.08479 19.3348 2.57774 20.2888 3.27599 20.9719C3.63518 21.3226 4.1196 21.6747 5.02894 21.8088L15.9898 14.1922L10.4177 10.3167Z"/></g><defs><clipPath id="clip0"><rect width="28" height="18.816" fill="#fff" transform="translate(2 3)"/></clipPath></defs></g></svg><svg viewBox="0 0 22.802 23"><g id="plugins-hubspot" class="icon"><path fill="#FF7A59" d="M17.7713 7.78571V5.08463C18.1282 4.9178 18.4304 4.65302 18.6428 4.32111C18.8551 3.98921 18.9688 3.60382 18.9706 3.20982V3.14784C18.9706 1.99906 18.0393 1.06779 16.8906 1.06779H16.8286C15.6798 1.06779 14.7485 1.99906 14.7485 3.14784V3.20982C14.7503 3.60382 14.864 3.98921 15.0763 4.32111C15.2887 4.65302 15.5909 4.9178 15.9478 5.08463V7.78571C14.9219 7.94281 13.9558 8.3682 13.1471 9.01879L5.73927 3.24881C5.79209 3.05813 5.81965 2.86204 5.82276 2.66523C5.82367 2.20166 5.68707 1.74823 5.43024 1.36231C5.17342 0.976387 4.80791 0.6753 4.37994 0.497135C3.95198 0.31897 3.48079 0.271731 3.02598 0.361394C2.57116 0.451057 2.15315 0.673593 1.82483 1.00085C1.49651 1.32811 1.27262 1.7454 1.18148 2.19992C1.09034 2.65444 1.13605 3.12578 1.31283 3.55432C1.4896 3.98286 1.7895 4.34934 2.17459 4.60742C2.55968 4.86549 3.01266 5.00356 3.47623 5.00416C3.88177 5.00225 4.27971 4.89398 4.63032 4.69017L11.925 10.3665C10.5838 12.3924 10.6197 15.0328 12.0153 17.0217L9.79666 19.241C9.61723 19.1837 9.43048 19.1532 9.24218 19.1506C8.17964 19.1515 7.31885 20.0132 7.31913 21.0758C7.3194 22.1382 8.18073 22.9995 9.24319 22.9998C10.3057 23 11.1674 22.1392 11.1683 21.0767C11.1658 20.8884 11.1354 20.7016 11.0779 20.5223L13.2727 18.3267C15.2339 19.8364 17.9274 19.9665 20.0249 18.6527C22.1223 17.3389 23.1809 14.8586 22.6783 12.4353C22.1757 10.0119 20.2182 8.1571 17.7713 7.78561V7.78571ZM16.8615 16.6693C16.456 16.6803 16.0525 16.6098 15.6747 16.4622C15.2969 16.3145 14.9525 16.0927 14.6618 15.8098C14.3711 15.5268 14.1401 15.1885 13.9824 14.8148C13.8246 14.4411 13.7434 14.0396 13.7434 13.634C13.7434 13.2283 13.8246 12.8268 13.9824 12.4531C14.1401 12.0794 14.3711 11.7411 14.6618 11.4581C14.9525 11.1752 15.2969 10.9534 15.6747 10.8057C16.0525 10.6581 16.456 10.5876 16.8615 10.5986C18.4956 10.6558 19.7909 11.9966 19.7918 13.6318C19.7926 15.2667 18.4986 16.6089 16.8645 16.6678"/></g></svg><svg viewBox="0 0 24.276 27"><g id="plugins-pagerduty" class="icon"><path fill="#06AC38" d="M7.72314 20.604H11.2409V26.9999H7.72314V20.604Z"/><path fill="#06AC38" d="M20.9718 4.17259C19.0835 3.16751 17.7739 3 14.6825 3H7.72314V17.5583H14.6521C17.4084 17.5583 19.4642 17.3908 21.2764 16.1878C23.2561 14.8781 24.2764 12.7005 24.2764 10.1878C24.2764 7.46192 23.0124 5.28426 20.9718 4.17259ZM15.4592 14.5127H11.2409V6.12182L15.2155 6.09136C18.8399 6.04568 20.652 7.32486 20.652 10.2183C20.652 13.3248 18.4135 14.5127 15.4592 14.5127Z"/></g></svg><svg viewBox="0 0 27.97 28.719"><g id="plugins-postgresql" class="icon"><g clip-path="url(#clip0)"><path fill="#000" d="M27.907 18.8206C27.7631 18.3847 27.3861 18.0812 26.8986 18.0083C26.6687 17.974 26.4055 17.9886 26.0939 18.0529C25.5509 18.1649 25.1481 18.2075 24.8541 18.2158C25.9638 16.3422 26.8661 14.2056 27.3856 12.1944C28.2256 8.94232 27.7767 7.46079 27.2522 6.79067C25.8641 5.01692 23.8388 4.06404 21.3955 4.03489C20.0921 4.01895 18.9478 4.27629 18.3509 4.46135C17.7952 4.36329 17.1976 4.30854 16.5706 4.29842C15.3953 4.27967 14.3568 4.53589 13.4695 5.06248C12.9782 4.89635 12.1898 4.66217 11.2793 4.51273C9.13784 4.16117 7.4119 4.4351 6.14946 5.32695C4.62078 6.40676 3.91212 8.28289 4.04318 10.9032C4.08481 11.7351 4.55018 14.2664 5.28293 16.6669C5.70406 18.0468 6.15312 19.1926 6.61765 20.0729C7.27643 21.3212 7.98134 22.0563 8.77268 22.3203C9.21621 22.468 10.0221 22.5715 10.8697 21.8656C10.9771 21.9957 11.1205 22.125 11.3107 22.2451C11.5523 22.3974 11.8477 22.5219 12.1427 22.5957C13.2059 22.8615 14.2018 22.795 15.0515 22.4224C15.0567 22.5736 15.0608 22.7179 15.0642 22.8426C15.0698 23.0449 15.0754 23.2431 15.0828 23.4286C15.1332 24.6824 15.2185 25.6573 15.4712 26.3394C15.4851 26.3769 15.5037 26.4341 15.5234 26.4948C15.6495 26.8808 15.8604 27.5271 16.3968 28.0333C16.9523 28.5576 17.6242 28.7184 18.2396 28.7184C18.5482 28.7184 18.8427 28.6779 19.1009 28.6226C20.0216 28.4253 21.0672 28.1247 21.8235 27.0477C22.5387 26.0296 22.8863 24.4961 22.9492 22.0799C22.9573 22.0115 22.9648 21.9463 22.9721 21.8841L22.9871 21.7564L23.1555 21.7713L23.1989 21.7742C24.1366 21.8169 25.2832 21.6181 25.9873 21.291C26.5437 21.0328 28.3268 20.0914 27.907 18.8206Z"/><path fill="#336791" d="M26.3037 19.0676C23.5156 19.6428 23.3239 18.6988 23.3239 18.6988C26.2676 14.3307 27.4983 8.78606 26.4364 7.42903C23.5391 3.72731 18.524 5.478 18.4402 5.52338L18.4133 5.52825C17.8625 5.41388 17.246 5.34581 16.5531 5.33447C15.2916 5.31384 14.3346 5.66522 13.6085 6.21591C13.6085 6.21591 4.66189 2.53022 5.07805 10.8513C5.16655 12.6215 7.6153 24.2456 10.536 20.7346C11.6035 19.4507 12.635 18.3652 12.635 18.3652C13.1473 18.7055 13.7606 18.8791 14.4035 18.8168L14.4535 18.7744C14.438 18.9338 14.4451 19.0897 14.4735 19.2743C13.721 20.1149 13.9422 20.2625 12.4381 20.5721C10.916 20.8858 11.8101 21.4442 12.3939 21.5903C13.1016 21.7672 14.7389 22.0178 15.8451 20.4692L15.8011 20.6459C16.0958 20.8821 16.3028 22.1818 16.2681 23.3602C16.2335 24.5384 16.2103 25.3474 16.4425 25.9793C16.6749 26.6111 16.9064 28.0328 18.8838 27.6092C20.5359 27.2551 21.3921 26.3376 21.5113 24.807C21.5958 23.7189 21.7871 23.8798 21.7991 22.907L21.9526 22.4465C22.1295 20.9715 21.9807 20.4956 22.9985 20.717L23.246 20.7387C23.9951 20.7728 24.9757 20.6182 25.5513 20.3507C26.7905 19.7756 27.5255 18.8153 26.3035 19.0676H26.3037Z"/><path fill="#fff" d="M14.1323 11.6429C13.881 11.608 13.6535 11.6403 13.5383 11.7275C13.4737 11.7765 13.4536 11.8333 13.4482 11.8724C13.4337 11.976 13.5063 12.0906 13.5509 12.1497C13.6771 12.3169 13.8614 12.4318 14.0438 12.4572C14.0703 12.4609 14.0966 12.4626 14.1228 12.4626C14.427 12.4626 14.7037 12.2257 14.728 12.0508C14.7585 11.8318 14.4406 11.6859 14.1323 11.643V11.6429ZM22.4558 11.6499C22.4318 11.4782 22.1263 11.4293 21.8364 11.4696C21.5469 11.5099 21.2663 11.6406 21.2897 11.8126C21.3084 11.9464 21.55 12.1748 21.836 12.1748C21.8602 12.1748 21.8845 12.1732 21.9091 12.1697C22.1 12.1433 22.24 12.0221 22.3066 11.9522C22.4078 11.8457 22.4665 11.727 22.4558 11.6499Z"/><path fill="#fff" d="M27.2314 19.0023C27.1251 18.6809 26.7829 18.5775 26.2144 18.6948C24.5265 19.0432 23.922 18.8019 23.7235 18.6558C25.0355 16.657 26.1149 14.2409 26.6972 11.9867C26.973 10.9188 27.1253 9.92716 27.1378 9.11885C27.1516 8.23169 27.0004 7.57976 26.6888 7.18151C25.4324 5.57604 23.5883 4.71485 21.3561 4.69122C19.8215 4.67397 18.525 5.06669 18.2736 5.17713C17.7443 5.04551 17.1673 4.96469 16.5391 4.95438C15.3871 4.93572 14.3912 5.21154 13.5668 5.77376C13.2087 5.64044 12.2832 5.32272 11.1513 5.14038C9.19459 4.82538 7.63965 5.06407 6.53003 5.85016C5.20599 6.78822 4.59474 8.46504 4.71315 10.8339C4.75299 11.6309 5.20712 14.0826 5.92374 16.4306C6.86706 19.521 7.89249 21.2704 8.97137 21.6303C9.09765 21.6724 9.24324 21.7019 9.40384 21.7019C9.7974 21.7019 10.2799 21.5245 10.782 20.9209C11.3943 20.1864 12.0277 19.4696 12.6814 18.7716C13.1056 18.9993 13.5715 19.1264 14.048 19.1391C14.049 19.1516 14.0502 19.1641 14.0513 19.1764C13.9693 19.2743 13.889 19.3735 13.8104 19.4741C13.4802 19.8933 13.4115 19.9805 12.3486 20.1993C12.0463 20.2618 11.2433 20.4273 11.2315 20.9901C11.2187 21.6051 12.1807 21.8634 12.2903 21.8908C12.6722 21.9864 13.0402 22.0336 13.3911 22.0336C14.2445 22.0336 14.9956 21.7531 15.5957 21.2103C15.5773 23.4028 15.6687 25.5632 15.9319 26.2214C16.1476 26.7603 16.6742 28.0772 18.3379 28.0771C18.5821 28.0771 18.8507 28.0487 19.1463 27.9853C20.8827 27.6131 21.6367 26.8457 21.9284 25.1538C22.0845 24.2495 22.3523 22.0904 22.4783 20.9322C22.7442 21.0152 23.0865 21.0531 23.4565 21.053C24.2282 21.053 25.1188 20.8891 25.6772 20.6298C26.3046 20.3385 27.4367 19.6235 27.2314 19.0023ZM23.0965 11.1761C23.0908 11.518 23.0437 11.8284 22.9938 12.1524C22.9401 12.5009 22.8846 12.8612 22.8707 13.2985C22.8569 13.7241 22.91 14.1666 22.9614 14.5946C23.0653 15.459 23.1719 16.3488 22.7593 17.2269C22.6907 17.1055 22.6297 16.98 22.5765 16.8511C22.5252 16.7268 22.4138 16.5271 22.2596 16.2507C21.6597 15.1748 20.2548 12.6554 20.974 11.6273C21.1882 11.3213 21.7319 11.0067 23.0965 11.1761ZM21.4424 5.38357C23.4424 5.42772 25.0246 6.17594 26.1447 7.60732C27.0038 8.70522 26.0578 13.7009 23.3191 18.0107C23.2915 17.9756 23.2638 17.9407 23.236 17.9059L23.2013 17.8626C23.909 16.6938 23.7707 15.5374 23.6475 14.5122C23.5968 14.0914 23.549 13.694 23.5612 13.3207C23.5738 12.9251 23.6261 12.5857 23.6767 12.2576C23.7389 11.8533 23.8022 11.4348 23.7847 10.9416C23.7977 10.8899 23.803 10.8288 23.7962 10.7562C23.7516 10.2832 23.2116 8.86769 22.111 7.58651C21.5089 6.88572 20.631 6.10151 19.4322 5.57257C19.9478 5.46569 20.6529 5.36604 21.4424 5.38357ZM10.2507 20.4792C9.69756 21.1443 9.31562 21.0168 9.18999 20.9749C8.37156 20.7019 7.42187 18.9721 6.58459 16.2289C5.86009 13.8554 5.43671 11.4686 5.40315 10.7993C5.2974 8.68263 5.81049 7.20747 6.92828 6.41472C8.7474 5.12472 11.7382 5.89685 12.94 6.28844C12.9227 6.30551 12.9047 6.32144 12.8877 6.33879C10.9156 8.33041 10.9623 11.7332 10.9672 11.9412C10.967 12.0214 10.9738 12.1351 10.983 12.2913C11.0169 12.8637 11.0801 13.9289 10.9113 15.1352C10.7546 16.2561 11.1002 17.3533 11.8592 18.1454C11.9371 18.2265 12.019 18.3037 12.1046 18.3768C11.7667 18.7386 11.0324 19.5389 10.2507 20.4792ZM12.3581 17.6673C11.7463 17.0289 11.4684 16.1409 11.5956 15.2308C11.7737 13.9565 11.708 12.8467 11.6727 12.2505C11.6677 12.167 11.6633 12.0939 11.6608 12.0363C11.9489 11.7808 13.284 11.0655 14.2361 11.2836C14.6705 11.3831 14.9353 11.679 15.0453 12.1878C15.615 14.8225 15.1207 15.9206 14.7236 16.8031C14.6417 16.9848 14.5644 17.1567 14.4984 17.3344L14.4472 17.4719C14.3177 17.8193 14.1971 18.1424 14.1224 18.4491C13.4719 18.4473 12.8392 18.1694 12.3581 17.6673V17.6673ZM12.4579 21.2205C12.268 21.173 12.0972 21.0906 11.997 21.0223C12.0807 20.9829 12.2297 20.9293 12.488 20.876C13.7384 20.6187 13.9315 20.437 14.3532 19.9016C14.4498 19.7788 14.5594 19.6397 14.7112 19.4702L14.7114 19.47C14.9374 19.2168 15.0408 19.2598 15.2283 19.3376C15.3803 19.4004 15.5283 19.5909 15.5883 19.8005C15.6167 19.8995 15.6486 20.0874 15.5443 20.2337C14.6634 21.467 13.3798 21.4512 12.4579 21.2205ZM19.0016 27.3097C17.472 27.6375 16.9304 26.857 16.5735 25.9648C16.3431 25.3888 16.2299 22.7913 16.3102 19.9229C16.3112 19.8847 16.3058 19.8479 16.2953 19.8132C16.2859 19.7447 16.2716 19.677 16.2526 19.6105C16.1331 19.1931 15.842 18.844 15.4928 18.6993C15.3541 18.6418 15.0994 18.5363 14.7934 18.6146C14.8587 18.3457 14.9718 18.0421 15.0946 17.7133L15.146 17.575C15.204 17.4191 15.2767 17.2576 15.3536 17.0866C15.7692 16.1633 16.3383 14.8987 15.7206 12.0419C15.4892 10.9718 14.7166 10.4493 13.5452 10.5707C12.8431 10.6433 12.2006 10.9266 11.8802 11.0891C11.8112 11.124 11.7482 11.1577 11.6894 11.1905C11.7788 10.1124 12.1167 8.09754 13.3806 6.82272C14.1765 6.02022 15.2363 5.62385 16.5276 5.64522C19.072 5.68685 20.7036 6.9926 21.6244 8.08076C22.4179 9.01835 22.8476 9.96288 23.0191 10.4723C21.7295 10.3412 20.8525 10.5957 20.4079 11.2313C19.4407 12.6139 20.9371 15.2974 21.6562 16.5872C21.7881 16.8235 21.9019 17.0278 21.9377 17.1146C22.1719 17.6822 22.4751 18.0611 22.6965 18.3377C22.7643 18.4224 22.8302 18.5046 22.8802 18.5764C22.4897 18.689 21.7881 18.9492 21.8521 20.2496C21.8005 20.9021 21.4338 23.957 21.2476 25.0364C21.0017 26.4623 20.4769 26.9934 19.0016 27.3098V27.3097ZM25.3863 20.0032C24.987 20.1886 24.3186 20.3276 23.6837 20.3575C22.9825 20.3903 22.6255 20.2789 22.5415 20.2104C22.5021 19.4 22.8037 19.3154 23.1229 19.2258C23.1731 19.2117 23.222 19.1979 23.2693 19.1814C23.2986 19.2053 23.3308 19.229 23.366 19.2523C23.9297 19.6243 24.9349 19.6644 26.3542 19.3714L26.3698 19.3683C26.1783 19.5473 25.8508 19.7875 25.3863 20.0032Z"/></g><defs><clipPath id="clip0"><rect width="24" height="24.753" fill="#fff" transform="translate(4 4)"/></clipPath></defs></g></svg><svg viewBox="0 0 26.251 29"><g id="plugins-replicator" class="icon"><rect width="20" height="20" x="8.25" y="9" fill="#D07EF7" rx="2"/><path fill="#D07EF7" fill-rule="evenodd" d="M5.75 5C5.19772 5 4.75 5.44772 4.75 6V24.5C4.75 25.0523 4.30228 25.5 3.75 25.5C3.19772 25.5 2.75 25.0523 2.75 24.5V6C2.75 4.34315 4.09315 3 5.75 3H24.75C25.3023 3 25.75 3.44772 25.75 4C25.75 4.55228 25.3023 5 24.75 5H5.75Z" clip-rule="evenodd"/></g></svg><svg viewBox="0 0 28 27"><g id="plugins-sendgrid" class="icon"><g clip-path="url(#clip0)"><path fill="#9DE1F3" d="M12.0001 11H4V27H20V11H12.0001Z"/><path fill="#27B4E1" d="M12 3V18.9999H27.9999V3H12Z"/><path fill="#1A82E2" d="M4 27H12V19H4V27ZM20 11H28V3H20V11Z"/><path fill="#239FD7" d="M12 19H20V11H12V19Z"/></g><defs><clipPath id="clip0"><rect width="24" height="24" fill="#fff" transform="translate(4 3)"/></clipPath></defs></g></svg><svg viewBox="0 0 28.189 27.193"><g id="plugins-snowflake" class="icon"><path fill="#31BEF0" d="M14.2062 11.5083C14.5136 11.2011 14.6676 10.8423 14.6676 10.3809V4.48628C14.6676 3.66629 14.0012 3 13.1811 3C12.3609 3 11.6946 3.66629 11.6946 4.48628V7.86949L8.82425 6.17784C8.10669 5.71672 7.18396 5.92159 6.77412 6.63915C6.3128 7.35691 6.51767 8.27944 7.23523 8.68949C7.2865 8.68949 7.2865 8.74065 7.33797 8.74065L12.4636 11.7135C12.9761 12.0723 13.7449 11.97 14.2062 11.5083ZM12.0022 15.0964C12.0022 14.5326 11.7457 14.02 11.2332 13.7635L6.10773 10.7907C5.38997 10.3296 4.46744 10.5344 4.05739 11.252C3.59597 11.9699 3.80115 12.8923 4.51871 13.3023C4.56998 13.3023 4.56998 13.3536 4.62114 13.3536L7.54274 15.0451L4.62114 16.7367C3.90359 17.1466 3.59597 18.0181 4.00612 18.7871C4.41627 19.5559 5.28753 19.8119 6.05626 19.4019C6.10773 19.4019 6.10773 19.4019 6.15869 19.4019L11.2846 16.4292C11.7457 16.1729 12.0022 15.6603 12.0022 15.0964ZM14.6676 19.7609V25.7067C14.6676 26.5268 14.0012 27.193 13.1811 27.193C12.3609 27.193 11.6946 26.5267 11.6946 25.7067V22.3749L8.77298 24.0665C8.05542 24.5276 7.13269 24.3227 6.72285 23.6052C6.26143 22.8875 6.4664 21.9649 7.18396 21.5548C7.23513 21.5548 7.23513 21.5036 7.2864 21.5036L12.4123 18.5307C13.1299 18.1206 14.1038 18.3769 14.5137 19.1457C14.6162 19.2993 14.7186 19.5559 14.6676 19.7609ZM17.3328 19.9147V25.7066C17.3328 26.5267 17.9991 27.1929 18.8193 27.1929C19.6393 27.1929 20.3056 26.5266 20.3056 25.7066V22.3748L23.1759 24.0151C23.8934 24.4762 24.8162 24.2714 25.2262 23.5538C25.6876 22.8359 25.4825 21.9135 24.7649 21.5035C24.7136 21.5035 24.7136 21.4522 24.6625 21.4522L19.5367 18.4793C18.8192 18.0692 17.8964 18.3255 17.4864 19.0432C17.3841 19.2993 17.2815 19.6583 17.3328 19.9147ZM19.9983 15.0964C19.9983 14.5326 20.2544 14.02 20.767 13.7635L25.8927 10.7907C26.6103 10.3296 27.533 10.5344 27.943 11.252C28.4042 11.9699 28.1993 12.8923 27.4816 13.3023C27.4305 13.3023 27.4305 13.3536 27.3792 13.3536L24.4574 15.0451L27.3792 16.7366C28.0968 17.1465 28.4042 18.018 27.9942 18.7869C27.5842 19.5045 26.7126 19.8118 25.9439 19.4018C25.8927 19.4018 25.8927 19.3505 25.8414 19.3505L20.7158 16.3776C20.2544 16.1729 19.947 15.6603 19.9983 15.0964ZM17.3328 10.2784V4.48628C17.3328 3.66629 17.9991 3 18.8193 3C19.6393 3 20.3056 3.66629 20.3056 4.48628V7.81802L23.1759 6.17774C23.8934 5.71662 24.8162 5.92149 25.2262 6.63905C25.6876 7.35681 25.4825 8.27934 24.7649 8.68938C24.7136 8.68938 24.7136 8.74055 24.6625 8.74055L19.5367 11.7134C18.8192 12.1236 17.8964 11.8672 17.4864 11.1497C17.3841 10.8935 17.2815 10.5858 17.3328 10.2784ZM16.6152 12.4311C16.5128 12.3287 16.4101 12.2773 16.2564 12.2773H15.7438C15.5901 12.2773 15.4875 12.3287 15.3851 12.4311L13.3348 14.4814C13.2323 14.5838 13.1811 14.6864 13.1811 14.84V15.3528C13.1811 15.5066 13.2323 15.609 13.3348 15.7115L15.3851 17.7618C15.4875 17.8642 15.5901 17.9155 15.7438 17.9155H16.2564C16.4101 17.9155 16.5128 17.8642 16.6152 17.7618L18.6654 15.7115C18.7166 15.6089 18.768 15.4552 18.768 15.3528V14.84C18.768 14.6863 18.7166 14.5837 18.6141 14.4814L16.6152 12.4311ZM16.3076 14.2253C16.2564 14.1738 16.1539 14.1225 16.0514 14.1225C15.9486 14.1225 15.8462 14.1738 15.7951 14.2253L15.1799 14.8401C15.1287 14.8914 15.0774 14.9941 15.0774 15.0965C15.0774 15.1991 15.1287 15.3017 15.1799 15.353L15.7951 15.9679C15.8461 16.0191 15.9486 16.0705 16.0514 16.0705C16.1538 16.0705 16.2564 16.0191 16.3076 15.9679L16.9226 15.353C16.9738 15.3017 17.0253 15.1991 17.0253 15.0965C17.0253 14.9941 16.9738 14.8914 16.9226 14.8401L16.3076 14.2253Z"/></g></svg><svg viewBox="0 0 23 24.299"><g id="plugins-redshift" class="icon"><g clip-path="url(#clip0)"><g clip-path="url(#clip1)"><path fill="#205B97" d="M12 18.5781L21.24 20.7781V3.47095L12 5.67095V18.5781Z"/><path fill="#5193CE" d="M21.2403 3.47095L23.0003 4.35095V19.8981L21.2403 20.7781V3.47095ZM12.0003 18.5781L2.76025 20.7781V3.47095L12.0003 5.67095V18.5781Z"/><path fill="#205B97" d="M2.76 3.47095L1 4.35095V19.8981L2.76 20.7781V3.47095Z"/><path fill="#5193CE" d="M14.3472 24.2981L17.8672 22.5381V1.76L14.3472 0L13.271 11.5381L14.3472 24.2981Z"/><path fill="#205B97" d="M9.65281 24.2981L6.13281 22.5381V1.76L9.65281 0L10.729 11.5381L9.65281 24.2981Z"/><path fill="#2E73B7" d="M9.65283 0H14.3948V24.249H9.65283V0Z"/></g></g><defs><clipPath id="clip0"><rect width="24" height="24" fill="#fff"/></clipPath><clipPath id="clip1"><rect width="22" height="24.298" fill="#fff" transform="translate(1)"/></clipPath></defs></g></svg><svg xmlns="http://www.w3.org/2000/svg" viewBox="0 0 24 24"><g id="plugins-bigquery" fill="none" fill-rule="nonzero"><path fill="#4386FA" d="M5.43 21.427L.21 12.385a1.561 1.561 0 010-1.562l5.22-9.042C5.709 1.298 6.223 1 6.78 1h10.446a1.56 1.56 0 011.345.78l5.22 9.043a1.561 1.561 0 010 1.562l-5.221 9.042c-.279.483-.793.78-1.35.781H6.776a1.563 1.563 0 01-1.347-.78h.001z"/><path fill="#000" d="M15.261 8.692s1.451 3.481-.527 5.454c-1.979 1.974-5.581.71-5.581.71l7.328 7.35h.744c.557-.002 1.072-.3 1.35-.782l3.456-5.984-6.77-6.748z" opacity=".1"/><path fill="#FFF" d="M16.975 15.815l-1.6-1.604a.255.255 0 00-.059-.045 4.36 4.36 0 10-.762.764.25.25 0 00.042.056L16.2 16.59a.251.251 0 00.355 0l.42-.42a.25.25 0 000-.355zm-5.11-1.037a3.281 3.281 0 110-6.563 3.281 3.281 0 010 6.563zm-2.097-3.456v1.356c.209.368.511.676.877.89v-2.255l-.877.009zm1.64-1.125v3.665c.29.053.587.053.877 0v-3.665h-.877zm2.537 2.478v-.804h-.876v1.688c.365-.214.667-.52.877-.888l-.001.004z"/></g></svg></svg>