<svg xmlns="http://www.w3.org/2000/svg" width="82" height="61" fill="none" viewBox="0 0 82 61"><g filter="url(#filter0_d_6758_58577)"><rect width="75.978" height="55.97" x="3.012" y=".136" fill="#E4E4E4" rx="5.408"/></g><g filter="url(#filter1_d_6758_58577)"><path fill="#E7E7E7" d="M43.7333 21.4424L77.6102 49.3551C78.2268 49.8632 78.584 50.6202 78.584 51.4191C78.584 51.5691 78.5719 51.718 78.541 51.8648C78.4239 52.4213 78.0608 53.8913 77.3673 54.6188C76.8162 55.1967 75.7813 55.5947 75.1248 55.8024C74.7317 55.9267 74.32 55.9707 73.9078 55.9707L8.52473 55.9707C6.9163 55.9707 5.36604 55.274 4.40759 53.9824C4.23144 53.745 4.05148 53.4962 3.85804 53.2228C3.56831 52.8132 3.41709 52.3222 3.41709 51.8205C3.41709 51.1073 3.72498 50.4288 4.26174 49.9591L36.7336 21.5463C38.7266 19.8023 41.6894 19.7584 43.7333 21.4424Z"/></g><g filter="url(#filter2_d_6758_58577)"><path fill="#F8F8F8" d="M38.2686 34.5283L4.39171 6.61557C3.77513 6.10755 3.41797 5.35048 3.41797 4.55157C3.41797 4.40156 3.4301 4.2527 3.46098 4.1059C3.57807 3.54938 3.94115 2.07937 4.6347 1.35192C5.18573 0.773953 6.22066 0.375984 6.87712 0.168319C7.27021 0.0439704 7.68191 0 8.0942 0H73.4772C75.0857 0 76.6359 0.696678 77.5944 1.98834C77.7705 2.22572 77.9505 2.4745 78.1439 2.74794C78.4336 3.1575 78.5849 3.64847 78.5849 4.15015C78.5849 4.86338 78.277 5.5419 77.7402 6.01157L45.2684 34.4244C43.2753 36.1684 40.3125 36.2123 38.2686 34.5283Z"/></g><g filter="url(#filter3_d_6758_58577)"><path fill="#F54E00" fill-rule="evenodd" d="M33.7839 32.0651C32.6979 31.1176 32.0117 29.7234 32.0117 28.1689C32.0117 25.3142 34.3259 23 37.1806 23C39.1809 23 40.9157 24.1362 41.7751 25.7984C42.6344 24.1362 44.3693 23 46.3696 23C49.2243 23 51.5384 25.3142 51.5384 28.1689C51.5384 29.7846 50.7971 31.2272 49.636 32.1751L41.8407 39.5206C41.7125 39.6414 41.5118 39.6395 41.386 39.5162L33.8079 32.0912C33.7994 32.0828 33.7914 32.0741 33.7839 32.0651Z" clip-rule="evenodd"/></g><defs><filter id="filter0_d_6758_58577" width="80.305" height="60.296" x=".849" y=".136" color-interpolation-filters="sRGB" filterUnits="userSpaceOnUse"><feFlood flood-opacity="0" result="BackgroundImageFix"/><feColorMatrix in="SourceAlpha" result="hardAlpha" type="matrix" values="0 0 0 0 0 0 0 0 0 0 0 0 0 0 0 0 0 0 127 0"/><feOffset dy="2.163"/><feGaussianBlur stdDeviation="1.082"/><feComposite in2="hardAlpha" operator="out"/><feColorMatrix type="matrix" values="0 0 0 0 0 0 0 0 0 0 0 0 0 0 0 0 0 0 0.25 0"/><feBlend in2="BackgroundImageFix" mode="normal" result="effect1_dropShadow_6758_58577"/><feBlend in="SourceGraphic" in2="effect1_dropShadow_6758_58577" mode="normal" result="shape"/></filter><filter id="filter1_d_6758_58577" width="79.492" height="40.089" x="1.255" y="16.963" color-interpolation-filters="sRGB" filterUnits="userSpaceOnUse"><feFlood flood-opacity="0" result="BackgroundImageFix"/><feColorMatrix in="SourceAlpha" result="hardAlpha" type="matrix" values="0 0 0 0 0 0 0 0 0 0 0 0 0 0 0 0 0 0 127 0"/><feOffset dy="-1.082"/><feGaussianBlur stdDeviation="1.082"/><feComposite in2="hardAlpha" operator="out"/><feColorMatrix type="matrix" values="0 0 0 0 0 0 0 0 0 0 0 0 0 0 0 0 0 0 0.2 0"/><feBlend in2="BackgroundImageFix" mode="normal" result="effect1_dropShadow_6758_58577"/><feBlend in="SourceGraphic" in2="effect1_dropShadow_6758_58577" mode="normal" result="shape"/></filter><filter id="filter2_d_6758_58577" width="79.492" height="40.089" x="1.255" y="0" color-interpolation-filters="sRGB" filterUnits="userSpaceOnUse"><feFlood flood-opacity="0" result="BackgroundImageFix"/><feColorMatrix in="SourceAlpha" result="hardAlpha" type="matrix" values="0 0 0 0 0 0 0 0 0 0 0 0 0 0 0 0 0 0 127 0"/><feOffset dy="2.163"/><feGaussianBlur stdDeviation="1.082"/><feComposite in2="hardAlpha" operator="out"/><feColorMatrix type="matrix" values="0 0 0 0 0 0 0 0 0 0 0 0 0 0 0 0 0 0 0.2 0"/><feBlend in2="BackgroundImageFix" mode="normal" result="effect1_dropShadow_6758_58577"/><feBlend in="SourceGraphic" in2="effect1_dropShadow_6758_58577" mode="normal" result="shape"/></filter><filter id="filter3_d_6758_58577" width="22.153" height="19.236" x="30.699" y="23" color-interpolation-filters="sRGB" filterUnits="userSpaceOnUse"><feFlood flood-opacity="0" result="BackgroundImageFix"/><feColorMatrix in="SourceAlpha" result="hardAlpha" type="matrix" values="0 0 0 0 0 0 0 0 0 0 0 0 0 0 0 0 0 0 127 0"/><feOffset dy="1.313"/><feGaussianBlur stdDeviation=".656"/><feComposite in2="hardAlpha" operator="out"/><feColorMatrix type="matrix" values="0 0 0 0 0 0 0 0 0 0 0 0 0 0 0 0 0 0 0.25 0"/><feBlend in2="BackgroundImageFix" mode="normal" result="effect1_dropShadow_6758_58577"/><feBlend in="SourceGraphic" in2="effect1_dropShadow_6758_58577" mode="normal" result="shape"/></filter></defs></svg>