<svg width="213" height="35" viewBox="0 0 213 35" fill="none" xmlns="http://www.w3.org/2000/svg">
<path d="M2.78906 30.3956H8.2906V4.16309H2.78906V30.3956Z" fill="white"/>
<path d="M13.8672 30.3957H19.0732V4.16309H13.8672V30.3957Z" fill="white"/>
<path d="M133.781 30.3957H139.256V4.16309H133.781V30.3957Z" fill="white"/>
<path d="M24.7031 30.3957H29.9092V4.16309H24.7031V30.3957Z" fill="white"/>
<path d="M24.6797 4.16309V30.3957H40.9628V26.0236H30.1812V19.1531H40.2243V14.781H30.1812V8.53509H40.9628V4.16309H24.6797Z" fill="white"/>
<path d="M44.3203 30.3957H49.5264V4.16309H44.3203V30.3957Z" fill="white"/>
<path d="M52.6641 20.5492C52.6641 13.3849 56.2456 10.2988 61.821 10.2988C67.3964 10.2988 70.5718 13.3482 70.5718 20.6227V21.7984H57.7964C57.981 26.0603 59.2734 27.4931 61.7472 27.4931C63.7041 27.4931 64.9226 26.3542 65.1441 24.3702H70.3503C70.018 28.7056 66.3995 30.8365 61.7472 30.8365C55.8395 30.8365 52.6641 27.7136 52.6641 20.5492ZM65.4395 18.3816C65.1811 14.781 63.9257 13.6054 61.7472 13.6054C59.5688 13.6054 58.2025 14.8177 57.8333 18.3816H65.4395Z" fill="white"/>
<path d="M76.9966 10.7397H71.6797L78.1043 30.3959H83.8274L90.2519 10.7397H84.935L80.912 25.5461L76.9966 10.7397Z" fill="white"/>
<path d="M91.25 20.5492C91.25 13.3849 94.8315 10.2988 100.407 10.2988C105.982 10.2988 109.158 13.3482 109.158 20.6227V21.7984H96.3822C96.5668 26.0603 97.8592 27.4931 100.333 27.4931C102.29 27.4931 103.508 26.3542 103.73 24.3702H108.936C108.604 28.7056 104.985 30.8365 100.333 30.8365C94.4253 30.8365 91.25 27.7136 91.25 20.5492ZM104.025 18.3816C103.767 14.781 102.512 13.6054 100.333 13.6054C98.1546 13.6054 96.7885 14.8177 96.4191 18.3816H104.025Z" fill="white"/>
<path d="M117.577 18.8226C117.577 15.7364 119.054 14.0463 121.343 14.0463C123.227 14.0463 124.297 15.222 124.297 17.7571V30.3957H129.503V16.9488C129.503 12.393 126.919 10.2988 123.152 10.2988C120.605 10.2988 118.5 11.5848 117.577 13.2748V10.7397H112.297V30.3957H117.577V18.8226Z" fill="white"/>
<path d="M133.758 4.16309H139.26V26.0236H149.598V30.3957H133.758V4.16309Z" fill="white"/>
<path d="M150.953 20.5493C150.953 27.8239 154.018 30.8366 158.744 30.8366C161.144 30.8366 163.323 29.6241 164.098 28.0811V30.3957H169.267V10.7397H163.95V12.8706C163.139 11.5479 161.107 10.2988 158.892 10.2988C154.424 10.2988 150.953 13.0543 150.953 20.5493ZM160.258 14.1565C162.842 14.1565 164.246 16.1038 164.246 20.5493C164.246 24.9949 162.842 26.9789 160.258 26.9789C157.673 26.9789 156.196 24.9949 156.196 20.5493C156.196 16.1038 157.673 14.1565 160.258 14.1565Z" fill="white"/>
<path d="M178.458 28.081C179.197 29.624 181.154 30.8365 183.554 30.8365C188.095 30.8365 191.492 28.0442 191.492 20.5492C191.492 13.0542 188.022 10.2987 183.664 10.2987C181.449 10.2987 179.382 11.5111 178.495 12.8705V4.16309H173.289V30.3956H178.458V28.081ZM182.187 14.1931C184.772 14.1931 186.249 16.1037 186.249 20.5492C186.249 24.9948 184.772 26.9788 182.187 26.9788C179.603 26.9788 178.2 24.9948 178.2 20.5492C178.2 16.1037 179.603 14.1931 182.187 14.1931Z" fill="white"/>
<path d="M193.641 24.554H198.846C198.92 26.6114 200.027 27.6034 201.985 27.6034C203.942 27.6034 205.05 26.7216 205.05 25.1784C205.05 23.7823 204.2 23.268 202.354 22.8272L200.766 22.423C196.261 21.2841 194.01 20.0718 194.01 16.361C194.01 12.6502 197.48 10.2988 201.911 10.2988C206.341 10.2988 209.701 12.0256 209.849 16.1038H204.643C204.532 14.3035 203.425 13.5319 201.837 13.5319C200.25 13.5319 199.142 14.3034 199.142 15.773C199.142 17.1324 200.027 17.6467 201.578 18.0142L203.203 18.4184C207.486 19.4839 210.182 20.5492 210.182 24.5172C210.182 28.4851 206.638 30.8365 201.837 30.8365C196.63 30.8365 193.751 28.8892 193.641 24.554Z" fill="white"/>
</svg>
