<?xml version="1.0" encoding="UTF-8"?>
<svg version="1.1" xmlns="http://www.w3.org/2000/svg" width="768" height="324">
<path d="M0 0 C87.12 0 174.24 0 264 0 C264 26 264 26 258.6875 33.75 C255.35546875 36.921875 255.35546875 36.921875 253.64599609 38.44335938 C250.91664497 41.02454341 248.74727722 44.0014312 246.5 47 C242.260092 52.49327217 237.81732887 57.77914332 233.27612305 63.0246582 C229.72438486 67.13325882 226.2911261 71.31783229 222.921875 75.578125 C219.33623264 80.09661741 215.65876306 84.54068708 212 89 C210.49971683 90.83310162 208.99971592 92.66643427 207.5 94.5 C198.5 105.5 189.5 116.5 180.5 127.5 C179.37851562 128.87091797 179.37851562 128.87091797 178.234375 130.26953125 C176.78702949 132.03822795 175.33914699 133.80648543 173.890625 135.57421875 C172.44101604 137.3439056 170.99448915 139.11612079 169.55078125 140.890625 C167.57131049 143.3167083 165.55986912 145.71434011 163.54296875 148.109375 C162.34103354 149.55198978 161.13921027 150.99469783 159.9375 152.4375 C159.35258789 153.12416748 158.76767578 153.81083496 158.16503906 154.51831055 C157.62459961 155.170979 157.08416016 155.82364746 156.52734375 156.49609375 C156.03999756 157.07544678 155.55265137 157.6547998 155.05053711 158.25170898 C153.65662738 160.23149576 153.65662738 160.23149576 154 164 C155.76739658 166.33885481 157.53584334 168.46433994 159.5 170.625 C160.61193804 171.88300115 161.72261227 173.1421205 162.83203125 174.40234375 C163.37682129 175.01706543 163.92161133 175.63178711 164.48291016 176.26513672 C167.1282467 179.29020293 169.60157321 182.44668683 172.09375 185.59765625 C174.10094075 188.12721017 176.13965331 190.62825938 178.1875 193.125 C181.97169316 197.73923208 185.73891223 202.36691757 189.5 207 C194.65215205 213.345282 199.81948011 219.67784703 205 226 C206.50014281 227.83321648 208.00014082 229.66655146 209.5 231.5 C210.2425 232.4075 210.985 233.315 211.75 234.25 C223 248 234.25 261.75 245.5 275.5 C246.23734375 276.40105469 246.9746875 277.30210937 247.734375 278.23046875 C249.28702172 280.12844551 250.83907534 282.02690757 252.390625 283.92578125 C253.16921875 284.87839844 253.9478125 285.83101563 254.75 286.8125 C255.44609375 287.66457031 256.1421875 288.51664062 256.859375 289.39453125 C259.22558862 292.27457592 261.61376693 295.13652031 264 298 C264 306.58 264 315.16 264 324 C176.88 324 89.76 324 0 324 C0 217.08 0 110.16 0 0 Z M44 25 C46.59096901 29.32354852 46.59096901 29.32354852 49.53125 33.27734375 C50.00626953 33.86580078 50.48128906 34.45425781 50.97070312 35.06054688 C51.72770508 35.98963867 51.72770508 35.98963867 52.5 36.9375 C53.58387863 38.27950769 54.66719994 39.62196567 55.75 40.96484375 C56.29527344 41.64015137 56.84054688 42.31545898 57.40234375 43.01123047 C59.79351496 45.98777091 62.14793283 48.99253017 64.5 52 C68.30397188 56.85720002 72.13998186 61.6872279 76 66.5 C82.62221877 74.75886045 89.15989498 83.08287758 95.67578125 91.42578125 C100.57539008 97.69073825 105.53155289 103.90236678 110.5625 110.0625 C118.28610123 119.52485091 125.70209324 129.20544093 133 139 C136.99492617 135.15194612 140.52272957 131.06780093 144 126.75 C144.56468994 126.05253662 145.12937988 125.35507324 145.71118164 124.63647461 C150.26364242 118.9835992 154.6657176 113.22399553 159.04614258 107.4375 C163.54096916 101.52989792 168.23315868 95.80374954 172.97802734 90.09619141 C177.26609814 84.92679693 181.37613523 79.65552657 185.44140625 74.30859375 C188.3807382 70.47382073 191.44098527 66.73948491 194.5 63 C199.23577474 57.20954206 203.83577561 51.34277659 208.3671875 45.390625 C212.09494713 40.54307562 215.9947982 35.83127558 219.88671875 31.11523438 C220.42167969 30.46361328 220.95664063 29.81199219 221.5078125 29.140625 C221.98879395 28.55829102 222.46977539 27.97595703 222.96533203 27.37597656 C224.10016631 26.15372213 224.10016631 26.15372213 224 25 C164.6 25 105.2 25 44 25 Z M30 55 C30 86.02 30 117.04 30 149 C54.75 149 79.5 149 105 149 C101.34858072 144.13144095 97.69982453 139.2802896 93.9375 134.5 C93.4741626 133.91033447 93.0108252 133.32066895 92.53344727 132.71313477 C88.88202427 128.08234254 85.16749595 123.50509945 81.4375 118.9375 C77.53324471 114.1560445 73.68124995 109.34576999 69.9375 104.4375 C66.37116242 99.76317404 62.74393535 95.14666279 59.0625 90.5625 C55.16279494 85.70654543 51.2819913 80.83731484 47.4375 75.9375 C46.7736731 75.09239868 46.7736731 75.09239868 46.09643555 74.23022461 C43.68999609 71.16386323 41.29262791 68.09069095 38.90234375 65.01171875 C38.39582275 64.36146729 37.88930176 63.71121582 37.36743164 63.04125977 C36.38875611 61.78465511 35.41258951 60.52609153 34.43920898 59.26538086 C33.31598456 57.82520594 32.16120591 56.40972968 31 55 C30.67 55 30.34 55 30 55 Z M30 175 C30 206.02 30 237.04 30 269 C34.17084953 264.84756582 34.17084953 264.84756582 37.98046875 260.46875 C38.75874023 259.5106543 38.75874023 259.5106543 39.55273438 258.53320312 C40.36194336 257.52676758 40.36194336 257.52676758 41.1875 256.5 C41.75919922 255.79294922 42.33089844 255.08589844 42.91992188 254.35742188 C47.16868421 249.08325991 51.30017163 243.729645 55.40625 238.34375 C58.90238176 233.79877871 62.55381662 229.37967202 66.18359375 224.94140625 C69.52606496 220.84392978 72.79405501 216.70520058 76 212.5 C79.74368622 207.58945054 83.59113158 202.77990331 87.5 198 C97.10843766 187.06115392 97.10843766 187.06115392 105 175 C80.25 175 55.5 175 30 175 Z M133 185 C131.33708078 187.01882075 129.72292838 189.05546269 128.125 191.125 C127.11461386 192.42189878 126.10419636 193.71877313 125.09375 195.015625 C124.57683594 195.68142578 124.05992188 196.34722656 123.52734375 197.03320312 C121.23404213 199.98634217 118.93195612 202.93251878 116.625 205.875 C116.17793701 206.44549072 115.73087402 207.01598145 115.27026367 207.60375977 C111.70986936 212.13168668 108.08104378 216.60135457 104.4375 221.0625 C100.5332111 225.84392621 96.68124883 230.65423148 92.9375 235.5625 C88.87657221 240.88507526 84.72364171 246.12475401 80.53100586 251.34399414 C76.70316564 256.11181239 72.91773429 260.91108554 69.14916992 265.72583008 C66.26287499 269.40791553 63.34782893 273.06530452 60.41503906 276.71044922 C50.32241692 287.23949415 50.32241692 287.23949415 44 299 C103.07 299 162.14 299 223 299 C221.07003563 295.14007127 218.79916695 292.02647381 216.125 288.6875 C215.6403125 288.07648438 215.155625 287.46546875 214.65625 286.8359375 C213.10838744 284.88721823 211.55500194 282.94302579 210 281 C209.50081055 280.37561035 209.00162109 279.7512207 208.48730469 279.10791016 C206.48789204 276.60766488 204.48755504 274.10816697 202.48510742 271.61035156 C196.37096037 263.97926439 190.34299644 256.28062742 184.32421875 248.57421875 C179.42461365 242.30926651 174.46865083 236.09746294 169.4375 229.9375 C164.71691838 224.15778701 160.13301708 218.29871359 155.609375 212.36328125 C152.0527408 207.73937849 148.34559412 203.23578314 144.640625 198.73046875 C141.36358821 194.73248386 138.22852758 190.66287869 135.19042969 186.47973633 C134.79758789 185.99142334 134.40474609 185.50311035 134 185 C133.67 185 133.34 185 133 185 Z " fill="#1F40EC" transform="translate(0,0)"/>
<path d="M0 0 C2.52935376 2.21318454 4.91757745 4.5061082 7.28125 6.89453125 C7.90644531 7.48621094 8.53164063 8.07789062 9.17578125 8.6875 C25.37407417 25.25144288 28.25837103 51.02858944 28.40527344 73.06884766 C28.28125 74.89453125 28.28125 74.89453125 27.28125 76.89453125 C-9.34875 76.89453125 -45.97875 76.89453125 -83.71875 76.89453125 C-80.04035471 101.22076867 -80.04035471 101.22076867 -65.40234375 119.73828125 C-54.64049709 126.78616799 -43.16330367 127.99432806 -30.78125 125.76953125 C-20.42747442 123.39126015 -14.04183279 118.28477573 -7.71875 109.89453125 C-6.06875 106.26453125 -4.41875 102.63453125 -2.71875 98.89453125 C6.52125 98.89453125 15.76125 98.89453125 25.28125 98.89453125 C23.21091874 113.38685004 15.75124776 126.60210825 4.28125 135.89453125 C-13.07783411 148.61962257 -33.9040902 152.15976336 -55.07910156 149.61035156 C-72.98468011 146.57316157 -87.93427502 137.42927751 -98.65625 122.89453125 C-106.99381678 109.9541431 -112.4050428 93.37822242 -112.71875 77.89453125 C-112.73776367 77.25725098 -112.75677734 76.6199707 -112.77636719 75.96337891 C-113.50257172 49.45691347 -107.9672711 25.39968258 -89.546875 5.5546875 C-66.7866304 -16.78548547 -25.37298373 -19.64948021 0 0 Z M-72.125 21.11328125 C-80.71531399 30.71422042 -82.47211481 41.42817938 -83.71875 53.89453125 C-56.65875 53.89453125 -29.59875 53.89453125 -1.71875 53.89453125 C-1.71875 40.18998002 -4.26858479 30.09869901 -13.71875 19.89453125 C-29.95362991 5.81854494 -56.40501081 6.57970633 -72.125 21.11328125 Z " fill="#000000" transform="translate(411.71875,94.10546875)"/>
<path d="M0 0 C17.46606279 -0.49159448 35.13025626 2.69477952 48.484375 14.49609375 C49.2475 15.36234375 50.010625 16.22859375 50.796875 17.12109375 C51.27769531 17.64832031 51.75851562 18.17554687 52.25390625 18.71875 C67.90777268 37.38449959 64.04526869 66.81136729 63.87591553 89.54626465 C63.82711551 96.2208832 63.7941207 102.89556435 63.76953125 109.5703125 C63.76500883 110.6552984 63.76500883 110.6552984 63.76039505 111.76220322 C63.70399556 127.56291431 64.19112163 143.33335372 64.796875 159.12109375 C56.216875 159.12109375 47.636875 159.12109375 38.796875 159.12109375 C38.466875 152.85109375 38.136875 146.58109375 37.796875 140.12109375 C36.4975 141.64734375 35.198125 143.17359375 33.859375 144.74609375 C23.54825884 156.13329212 9.73544624 162.37698026 -5.58886719 163.25830078 C-21.90770361 163.97183937 -36.49276959 162.95115989 -50.203125 153.12109375 C-51.255 152.39921875 -52.306875 151.67734375 -53.390625 150.93359375 C-62.39219093 141.93202782 -66.42498254 131.6933606 -66.578125 119.12109375 C-66.44849629 107.38082574 -63.20258957 98.73778719 -55.3046875 90.02734375 C-34.54654629 69.96371284 7.89523713 63.12109375 35.796875 63.12109375 C35.50070345 51.31865732 35.10091445 39.63051641 26.50390625 30.5546875 C16.84459531 22.44263461 3.68431623 23.26083421 -8.203125 24.12109375 C-16.17005859 25.51762065 -23.18234266 28.60105002 -28.203125 35.12109375 C-31.38091036 41.03971899 -33.09744814 46.48703259 -34.203125 53.12109375 C-43.443125 53.12109375 -52.683125 53.12109375 -62.203125 53.12109375 C-62.203125 40.61110903 -57.11711995 29.03079797 -48.796875 19.6171875 C-35.24724956 6.89780872 -18.29344847 1.00549096 0 0 Z M-32.203125 104.12109375 C-36.09343175 109.52429757 -37.4682748 114.44135839 -37.203125 121.12109375 C-36.15656234 126.5340531 -34.30333253 131.3362868 -30.203125 135.12109375 C-18.83588337 141.90290571 -6.619683 142.88018621 6.234375 139.87109375 C18.03110063 136.45999236 26.47485052 130.53282502 32.546875 119.67578125 C36.75728113 111.07076373 37.96395399 102.73864864 37.859375 93.24609375 C37.85486328 92.46234375 37.85035156 91.67859375 37.84570312 90.87109375 C37.83401593 88.95439361 37.81608408 87.03773327 37.796875 85.12109375 C15.48579745 85.12109375 -14.8809634 89.12796228 -32.203125 104.12109375 Z " fill="#000000" transform="translate(672.203125,80.87890625)"/>
<path d="M0 0 C25.77104659 -3.27354165 25.77104659 -3.27354165 33.52001953 1.57763672 C37.89988292 6.16121469 40.4525428 11.85583747 43.17822266 17.51806641 C46.43956353 23.75141451 50.5076606 29.46439093 54.47720337 35.26263428 C56.71798678 38.54873829 58.9162466 41.8629219 61.1171875 45.17578125 C61.87332719 46.31044135 62.62965306 47.44497742 63.38623047 48.5793457 C63.91877441 49.37816162 64.45131836 50.17697754 65 51 C67.86566148 48.19364839 70.13499074 45.49888791 72.3125 42.125 C75.02376053 37.98702746 77.757709 33.8686487 80.5390625 29.77734375 C81.17223389 28.84470703 81.80540527 27.91207031 82.45776367 26.95117188 C83.78304667 25.01742562 85.12192584 23.09293092 86.47387695 21.17773438 C90.67347736 15.21314091 90.67347736 15.21314091 93.87890625 8.69140625 C95.74429079 4.58756027 97.43137336 2.73704766 101 0 C104.52563477 -0.70678711 104.52563477 -0.70678711 108.44140625 -0.77734375 C109.13254013 -0.79447922 109.82367401 -0.81161469 110.53575134 -0.82926941 C117.70367079 -0.95070271 124.85536774 -0.54531788 132 0 C126.92159065 8.09890781 121.63606882 16.04080623 116.25 23.9375 C115.42610611 25.14791938 114.60237912 26.35845238 113.77880859 27.5690918 C112.49721721 29.45290068 111.21547019 31.33660211 109.93307495 33.21986389 C106.85268801 37.74385535 103.77990056 42.27293999 100.7109375 46.8046875 C99.84994432 48.0756086 98.98894184 49.3465234 98.12792969 50.61743164 C96.88914094 52.44601862 95.65055256 54.27473916 94.41271973 56.10397339 C93.63721208 57.2498246 92.8611476 58.39529918 92.08447266 59.5403595 C91.0183288 61.11412868 89.95682201 62.69103618 88.89550781 64.26806641 C87.28628199 66.58739111 85.59503058 68.77596808 83.8359375 70.98046875 C81.70384732 73.76702566 81.70384732 73.76702566 82.34765625 76.43359375 C82.89292969 77.28050781 83.43820312 78.12742187 84 79 C84.36206543 79.56605957 84.72413086 80.13211914 85.09716797 80.71533203 C86.50298311 82.86150363 87.96518729 84.96140105 89.4375 87.0625 C90.62181708 88.77293689 91.80536363 90.48390746 92.98828125 92.1953125 C93.6323291 93.12504883 94.27637695 94.05478516 94.93994141 95.01269531 C98.70040231 100.46576471 102.41015481 105.9533103 106.125 111.4375 C107.73803895 113.81787262 109.35137271 116.19804524 110.96484375 118.578125 C111.37167389 119.1783548 111.77850403 119.77858459 112.19766235 120.39700317 C114.81890994 124.26284146 117.44610655 128.12457354 120.07733154 131.98362732 C121.85401347 134.58956395 123.629049 137.19662001 125.4039917 139.80374146 C126.25721675 141.05598889 127.111257 142.30768128 127.96612549 143.55880737 C129.15006458 145.29170806 130.33119484 147.02649044 131.51171875 148.76171875 C132.18678467 149.75131592 132.86185059 150.74091309 133.55737305 151.76049805 C135 154 135 154 135 155 C130.78743327 155.37540011 126.58401434 155.64475205 122.35961914 155.82397461 C120.9295099 155.89871899 119.50052069 156.00060209 118.07446289 156.1315918 C106.7765395 157.14210406 106.7765395 157.14210406 102.41921997 153.78042603 C99.1556416 150.33447183 96.7560019 146.33987937 94.35702515 142.26608276 C92.48684409 139.14308607 90.44170847 136.1507542 88.39875793 133.13905334 C85.19993083 128.41208384 82.0838838 123.62973422 78.95141602 118.85864258 C77.38947166 116.48259676 75.82193365 114.11031534 74.25390625 111.73828125 C73.78408829 111.01852615 73.31427032 110.29877106 72.83021545 109.5572052 C70.48143663 106.00766695 68.17641037 102.88136189 65 100 C61.65857585 104.93926061 58.31796531 109.87907025 54.97802734 114.81933594 C53.84770334 116.49102733 52.71717768 118.16258239 51.58642578 119.83398438 C50.488184 121.45738719 49.39099822 123.08150488 48.29486084 124.70632935 C47.18787964 126.34053877 46.07408137 127.97015022 44.95367432 129.59518433 C42.13143974 133.71176607 39.48649766 137.83723082 37.06542969 142.20361328 C30.44409798 153.82875987 30.44409798 153.82875987 26.13269043 155.89483643 C21.31044037 157.14795462 16.64263192 156.66761461 11.75 156.125 C10.31170714 156.03447807 8.87285779 155.95238808 7.43359375 155.87890625 C3.94395298 155.68263128 0.47563983 155.37389652 -3 155 C-1.6529269 151.30039679 0.01468106 148.26597199 2.24609375 145.02734375 C2.90891357 144.05958008 3.5717334 143.09181641 4.25463867 142.09472656 C4.97498291 141.0528418 5.69532715 140.01095703 6.4375 138.9375 C7.19626699 137.8320814 7.9544749 136.72627886 8.7121582 135.62011719 C10.31473308 133.28112264 11.91938584 130.94357426 13.52539062 128.60693359 C17.60232458 122.67021508 21.64422749 116.70966869 25.6875 110.75 C26.28093201 109.87594009 26.28093201 109.87594009 26.88635254 108.98422241 C34.32159856 98.03205403 41.68268059 87.03133541 49 76 C45.84249451 70.1291542 42.47195376 64.51365017 38.7109375 59.01171875 C38.21392838 58.27817169 37.71691925 57.54462463 37.20484924 56.78884888 C36.14500027 55.22573082 35.0834236 53.66378299 34.02023315 52.10293579 C32.35437872 49.65722503 30.69337466 47.20828159 29.03344727 44.75854492 C24.21333584 37.64907988 19.37926264 30.54923194 14.52880859 23.46043396 C12.74518816 20.85314499 10.96439697 18.24392936 9.18365479 15.63467407 C7.95543954 13.83873187 6.72179857 12.04660524 5.48779297 10.25463867 C4.75834473 9.18705322 4.02889648 8.11946777 3.27734375 7.01953125 C2.64046631 6.09245361 2.00358887 5.16537598 1.34741211 4.21020508 C0 2 0 2 0 0 Z " fill="#000000" transform="translate(455,85)"/>
</svg>
