<svg xmlns="http://www.w3.org/2000/svg" fill="none" viewBox="0 0 160 40"><g clip-path="url(#a)"><path fill="#000" fill-rule="evenodd" d="M5.171 6.549a.587.587 0 0 0 .025.81l27.438 27.438a.587.587 0 0 0 .81.025 19.962 19.962 0 0 0 6.55-14.808C39.993 8.962 31.031 0 19.978 0A19.963 19.963 0 0 0 5.17 6.549Zm-3.429 5.207a.589.589 0 0 0 .123.659l25.713 25.713a.589.589 0 0 0 .66.123c.593-.27 1.172-.567 1.733-.891a.583.583 0 0 0 .112-.92L3.553 9.91a.583.583 0 0 0-.92.112c-.324.561-.621 1.14-.89 1.734Zm-1.56 7.362a.59.59 0 0 1-.173-.456c.053-.795.153-1.578.296-2.346.086-.46.648-.62.98-.289l22.68 22.682c.332.33.172.893-.288.979-.768.143-1.55.243-2.346.296a.59.59 0 0 1-.456-.173L.182 19.118Zm1.392 5.586c-.413-.414-1.08-.058-.929.507a20.052 20.052 0 0 0 14.137 14.137c.565.151.92-.516.508-.929L1.574 24.704Zm79.068-13.69a2.602 2.602 0 0 0 2.597-2.607A2.602 2.602 0 0 0 80.642 5.8a2.602 2.602 0 0 0-2.598 2.607 2.602 2.602 0 0 0 2.598 2.607ZM58.393 33.75V5.802h4.616V29.66h12.446v4.089H58.393Zm32.855-11.405V33.75H86.78V13.942h4.41v3.395l.057-.037c.448-1.063 1.17-1.951 2.168-2.664.996-.725 2.267-1.088 3.812-1.088 1.37 0 2.616.307 3.738.92 1.121.6 2.018 1.481 2.69 2.644.673 1.163 1.01 2.589 1.01 4.277v12.36h-4.467V22.009c0-1.5-.399-2.639-1.196-3.414-.785-.788-1.837-1.182-3.158-1.182-.847 0-1.62.175-2.317.526-.698.35-1.252.887-1.664 1.613-.41.725-.616 1.657-.616 2.794Zm40.442 11.067c1.021.438 2.192.657 3.513.657 1.084 0 2.012-.138 2.784-.413.773-.288 1.408-.669 1.907-1.144.51-.475.915-.994 1.214-1.557h.075v2.795h4.28V20.113c0-.963-.187-1.844-.561-2.644a5.952 5.952 0 0 0-1.626-2.083c-.698-.587-1.545-1.037-2.542-1.35-.996-.325-2.118-.488-3.363-.488-1.707 0-3.183.294-4.429.882-1.234.575-2.199 1.35-2.897 2.326a6.083 6.083 0 0 0-1.14 3.301h4.317c.05-.575.249-1.088.598-1.538.349-.45.822-.8 1.42-1.05.598-.263 1.29-.394 2.075-.394.785 0 1.451.131 1.999.394.561.262.991.619 1.29 1.069.299.45.448.975.448 1.575v.15c0 .45-.156.782-.467.994-.299.213-.81.37-1.532.47-.711.1-1.682.218-2.916.356a23.611 23.611 0 0 0-2.915.506 8.973 8.973 0 0 0-2.504.994 4.9 4.9 0 0 0-1.72 1.745c-.423.725-.635 1.657-.635 2.795 0 1.313.299 2.413.897 3.3.598.876 1.408 1.539 2.43 1.99Zm7.232-3.32c-.723.388-1.614.582-2.672.582-1.072 0-1.926-.225-2.561-.676-.635-.462-.953-1.094-.953-1.894 0-.625.174-1.132.523-1.52.362-.387.835-.693 1.421-.918a8.17 8.17 0 0 1 1.906-.47c.498-.075.984-.15 1.458-.225l1.326-.243c.412-.088.76-.176 1.047-.263.299-.087.517-.181.654-.281v2.213c0 .775-.181 1.488-.542 2.138-.349.638-.885 1.157-1.607 1.557Zm10.438 3.658V13.942h4.298v3.264h.056c.361-1.125.928-1.982 1.7-2.57.785-.6 1.813-.9 3.084-.9.312 0 .592.012.841.037.262.013.48.025.654.038v4.033a16.38 16.38 0 0 0-2.168-.15 4.1 4.1 0 0 0-2.018.506c-.611.338-1.097.857-1.458 1.557-.349.688-.523 1.557-.523 2.607V33.75h-4.466Zm-70.96 0V13.942h4.466V33.75h-4.467Zm33.694-.882c1.433.888 3.134 1.332 5.102 1.332 1.52 0 2.903-.275 4.149-.825 1.259-.563 2.305-1.332 3.14-2.307a7.366 7.366 0 0 0 1.626-3.414h-4.205a4.021 4.021 0 0 1-.916 1.557 4.276 4.276 0 0 1-1.551 1.031c-.623.25-1.345.375-2.168.375-1.109 0-2.062-.25-2.859-.75-.785-.5-1.383-1.194-1.794-2.082-.373-.817-.577-1.742-.612-2.776h14.366v-1.2c0-1.526-.224-2.914-.672-4.165-.449-1.263-1.084-2.35-1.907-3.263a8.344 8.344 0 0 0-2.971-2.139c-1.146-.5-2.423-.75-3.831-.75-1.831 0-3.451.444-4.859 1.332-1.408.888-2.51 2.113-3.308 3.676-.797 1.563-1.196 3.352-1.196 5.365 0 2 .386 3.783 1.159 5.346.772 1.55 1.875 2.77 3.307 3.657Zm9.401-13.111c-.411-.85-.997-1.507-1.757-1.97-.76-.462-1.657-.694-2.691-.694-1.022 0-1.913.232-2.673.694-.747.463-1.332 1.12-1.756 1.97-.302.616-.494 1.316-.574 2.1h10.024c-.08-.784-.271-1.484-.573-2.1Z" clip-rule="evenodd"/></g><defs><clipPath id="a"><path fill="#fff" d="M0 0h160v40H0z"/></clipPath></defs></svg>