<svg width="170" height="60" viewBox="0 0 170 60" fill="none" xmlns="http://www.w3.org/2000/svg">
<path d="M37.5 15V25H32.5V15H37.5ZM47.5 5V15H42.5V5H47.5ZM2.5 5H7.5V55H2.5V5ZM22.5 35H27.5V45H22.5V35ZM42.5 35H47.5V55H42.5V35Z" fill="white"/>
<path d="M47.5 5H57.5V15H47.5V5ZM7.5 5H17.5V15H7.5V5Z" fill="white"/>
<path d="M37.5 25V15H57.5V25H37.5ZM7.5 25V15H27.5V25H7.5Z" fill="white"/>
<path d="M7.5 35V25H57.5V35H7.5Z" fill="white"/>
<path d="M27.5 35H37.5V45H27.5V35ZM47.5 35H57.5V45H47.5V35ZM7.5 35H17.5V45H7.5V35Z" fill="white"/>
<path d="M47.5 45H57.5V55H47.5V45ZM7.5 45H17.5V55H7.5V45Z" fill="white"/>
<path fill-rule="evenodd" clip-rule="evenodd" d="M68.7987 15.0117H72.4724L73.986 20.4867L74.5076 22.6234H74.6037L75.1151 20.4887L76.6389 15.0117H80.3126V30.4629H77.3487V25.4311C77.3753 23.6013 77.6617 20.0964 77.8171 18.5024H77.7455L76.5592 22.6499L75.3544 26.3704H73.6567L72.4294 22.6499L71.3249 18.5024H71.243L71.2799 18.8725C71.4578 20.6778 71.7094 24.0588 71.7094 25.6812V30.4629H68.7987V15.0117ZM83.436 27.5313H87.0503V17.9433H83.436V15.0117H94.1644V17.9433H90.5521V27.5313H94.1644V30.465H83.436V27.5313ZM97.1201 28.5173L99.1287 26.1142C100.299 27.0718 101.743 27.7285 103.24 27.7285C104.727 27.7285 105.414 27.1531 105.414 26.3968C105.414 25.2847 104.494 25.0143 103.031 24.4044L101.015 23.5444C99.3005 22.8938 97.7358 21.5805 97.7358 19.3319C97.7358 16.7723 100.043 14.7271 103.406 14.7271C105.267 14.7271 107.147 15.4244 108.544 16.7499L106.781 18.9538C105.691 18.1731 104.725 17.7482 103.213 17.7482C102.062 17.7482 101.278 18.2259 101.278 19.1266C101.278 20.0577 102.316 20.3972 103.798 20.9523L105.693 21.7533C107.718 22.5116 108.998 23.7742 108.998 25.9556C108.998 28.5234 106.84 30.7475 103.009 30.7475C100.837 30.7443 98.7437 29.951 97.1201 28.5173ZM115.539 17.9454H110.9V15.0117H123.678V17.9433H119.041V30.465H115.539V17.9454ZM129.571 17.7868H131.277C133.116 17.7868 134.102 18.2991 134.102 19.826C134.102 21.3386 133.116 22.1294 131.277 22.1294H129.569L129.571 17.7868ZM138.279 30.465L134.779 24.2824C136.432 23.5363 137.536 22.0969 137.536 19.826C137.536 16.1868 134.893 15.034 131.66 15.0117H126.061V30.4629H129.569V24.9066H131.408L134.362 30.467L138.279 30.465ZM144.09 24.0649L144.458 22.6417L145.657 17.6567H145.753C145.929 18.4333 146.129 19.2506 146.332 20.0598L147.35 24.0649H144.09ZM148.985 30.4629H152.697L147.878 15.0117H143.683L138.864 30.4629H142.447L143.392 26.7892H148.048L148.989 30.4629H148.985ZM155.432 15.0117H158.928V27.5313H165.815V30.4629H155.432V15.0117ZM72.8692 48.854L73.2353 47.4308L74.4339 42.4458H74.5301C74.706 43.2224 74.9064 44.0397 75.109 44.8488L76.1276 48.854H72.8692ZM77.7619 55.2581H81.4744L76.6533 39.8008H72.4539L67.6328 55.2581H71.2164L72.1635 51.5823H76.821L77.7619 55.2581ZM83.438 52.3203H87.0524V42.7324H83.436V39.8008H94.1644V42.7324H90.5521V52.3203H94.1644V55.254H83.436V52.3183L83.438 52.3203ZM97.2796 56.791H108.74V59.4543H97.2796V56.791Z" fill="white"/>
</svg>
