<svg width="126" height="37" viewBox="0 0 126 37" fill="none" xmlns="http://www.w3.org/2000/svg">
<path d="M118.27 25.1433C117.273 25.1433 116.493 24.8734 115.936 24.3315C115.38 23.7897 115.101 23.037 115.101 22.0833V16.1722H113.312V13.9595H115.111L115.431 11.0039H117.545V13.9595H120.295V16.1761H117.535V21.7622C117.53 22.0676 117.644 22.3632 117.853 22.5858C117.96 22.6994 118.091 22.7887 118.236 22.8475C118.38 22.9064 118.536 22.9333 118.692 22.9267H120.286V25.1433H118.27Z" fill="white"/>
<path d="M107.512 25.3521C106.183 25.3521 105.113 25.0355 104.304 24.4024C103.5 23.7748 102.948 22.8797 102.75 21.8803H105.394C105.509 22.2644 105.766 22.5909 106.112 22.7945C106.537 23.0393 107.022 23.1588 107.512 23.1394C108.921 23.1394 109.63 22.7453 109.63 21.9847C109.63 21.6051 109.408 21.3154 108.965 21.1158C108.449 20.8951 107.91 20.7345 107.358 20.637C106.73 20.5168 106.1 20.3611 105.461 20.172C104.824 19.9843 104.259 19.6094 103.84 19.0961C103.399 18.5707 103.178 17.8798 103.176 17.0233C103.169 16.5733 103.267 16.1278 103.461 15.7214C103.654 15.3151 103.94 14.9589 104.294 14.6805C105.041 14.0579 106.078 13.7472 107.403 13.7485C108.729 13.7499 109.782 14.0454 110.562 14.6352C111.338 15.2207 111.872 16.0707 112.061 17.0233H109.411C109.129 16.3238 108.463 15.9672 107.409 15.9652C106.278 15.9652 105.713 16.3179 105.713 17.0233C105.715 17.185 105.761 17.3433 105.844 17.4818C105.928 17.6203 106.047 17.7341 106.189 17.8115C106.552 18.0298 106.955 18.1732 107.374 18.2331C107.898 18.3221 108.417 18.4419 108.927 18.5917C109.457 18.7429 109.976 18.9285 110.481 19.1474C110.974 19.3697 111.391 19.7314 111.68 20.1877C112.015 20.7237 112.182 21.3474 112.159 21.9788C112.17 22.4489 112.068 22.9147 111.862 23.3376C111.656 23.7605 111.352 24.1282 110.975 24.4102C110.189 25.0368 109.035 25.3508 107.512 25.3521Z" fill="white"/>
<path d="M99.6643 14.8675C98.8496 14.1359 97.7084 13.77 96.2409 13.77C95.0708 13.77 94.0896 14.0846 93.2973 14.7138C92.5152 15.3274 91.963 16.186 91.7298 17.1512H94.2292C94.3563 16.7856 94.5987 16.4711 94.9201 16.2547C95.3103 15.9936 95.7735 15.8632 96.2429 15.8823C96.9299 15.8823 97.4709 16.0596 97.8677 16.4103C98.0691 16.5973 98.2266 16.8264 98.329 17.0811C98.4313 17.3359 98.4761 17.6101 98.46 17.8842V18.4181H95.5993C94.2831 18.4181 93.2493 18.7498 92.4977 19.4132C92.1384 19.7193 91.8515 20.101 91.6576 20.531C91.4637 20.9609 91.3677 21.4284 91.3764 21.8998C91.3629 22.3658 91.449 22.8293 91.6291 23.2594C91.8092 23.6895 92.0791 24.0764 92.4207 24.3943C93.1157 25.0511 94.037 25.3795 95.1847 25.3795C95.8957 25.3957 96.5992 25.2323 97.23 24.9046C97.7373 24.657 98.1663 24.2745 98.4698 23.7992H98.5725L98.7798 25.1785H100.894V17.8881C100.89 16.6087 100.48 15.6018 99.6643 14.8675ZM98.4619 20.8417C98.4766 21.1734 98.4179 21.5043 98.29 21.8108C98.162 22.1173 97.9679 22.3919 97.7216 22.615C97.2307 23.0498 96.5607 23.2679 95.7118 23.2692C95.0939 23.2692 94.6201 23.1273 94.2943 22.8515C94.136 22.7232 94.0092 22.5604 93.9237 22.3756C93.8381 22.1909 93.7961 21.989 93.8007 21.7855C93.8007 20.8003 94.4463 20.3117 95.7118 20.3117H98.4619V20.8417Z" fill="white"/>
<path d="M85.037 25.3755C83.4326 25.3755 82.1507 24.8619 81.1912 23.8347C80.2317 22.8075 79.7513 21.3862 79.75 19.5708C79.75 17.7594 80.2284 16.3394 81.1853 15.3109C82.1421 14.2823 83.4261 13.7687 85.037 13.77C86.3453 13.77 87.4298 14.1181 88.2906 14.8143C89.1351 15.4868 89.7367 16.4159 90.0042 17.4605H87.5779C87.3404 16.9977 86.9747 16.6127 86.5242 16.3514C86.0737 16.0901 85.5575 15.9635 85.037 15.9867C84.642 15.9725 84.2491 16.0496 83.8888 16.212C83.5285 16.3743 83.2107 16.6175 82.9601 16.9226C82.4337 17.5492 82.1704 18.4319 82.1704 19.5708C82.1704 20.7097 82.4337 21.5924 82.9601 22.219C83.2103 22.5248 83.528 22.7688 83.8882 22.9318C84.2485 23.0948 84.6417 23.1725 85.037 23.1589C85.5576 23.1811 86.0737 23.0539 86.524 22.7923C86.9744 22.5308 87.3401 22.1458 87.5779 21.6831H90.0023C89.7354 22.7285 89.1337 23.6584 88.2886 24.3312C87.4305 25.0274 86.3466 25.3755 85.037 25.3755Z" fill="white"/>
<path d="M70.7258 29.3932L72.4177 25.1687L67.875 13.9849H70.5185L73.5845 21.8999H73.6872L76.7571 13.9849H79.4007L73.2647 29.3932H70.7258Z" fill="white"/>
<path d="M65.5414 14.8675C64.7267 14.1359 63.5856 13.77 62.118 13.77C60.9473 13.77 59.9641 14.0833 59.1744 14.7138C58.3919 15.327 57.8395 16.1858 57.6069 17.1512H60.1063C60.2324 16.7851 60.475 16.4702 60.7973 16.2547C61.1872 15.9931 61.6506 15.8626 62.12 15.8823C62.807 15.8823 63.3486 16.0583 63.7448 16.4103C63.9466 16.597 64.1044 16.826 64.2068 17.0808C64.3093 17.3357 64.3537 17.6101 64.3371 17.8842V18.4181H61.4744C60.1583 18.4181 59.1244 18.7498 58.3729 19.4132C58.0132 19.719 57.7261 20.1007 57.5322 20.5307C57.3383 20.9607 57.2424 21.4283 57.2515 21.8998C57.2374 22.3657 57.3231 22.8292 57.5028 23.2594C57.6826 23.6896 57.9523 24.0765 58.2939 24.3943C58.9888 25.0511 59.9102 25.3795 61.0579 25.3795C61.7688 25.3957 62.4724 25.2323 63.1032 24.9046C63.6105 24.657 64.0395 24.2745 64.343 23.7992H64.4457L64.653 25.1785H66.7654V17.8881C66.7654 16.6087 66.3574 15.6018 65.5414 14.8675ZM64.3371 20.8417C64.3521 21.1734 64.2935 21.5044 64.1655 21.8109C64.0375 22.1175 63.8433 22.3921 63.5967 22.615C63.1071 23.0511 62.4372 23.2692 61.587 23.2692C60.969 23.2692 60.4932 23.1293 60.1694 22.8515C60.0114 22.723 59.8847 22.5602 59.7992 22.3754C59.7137 22.1907 59.6715 21.989 59.6759 21.7855C59.6825 20.8043 60.3195 20.313 61.587 20.3117H64.3371V20.8417Z" fill="white"/>
<path d="M51.8206 19.5711C52.1974 19.4706 52.5617 19.3278 52.9064 19.1455C53.3086 18.9256 53.6848 18.6612 54.0278 18.3574C54.4424 17.9764 54.7621 17.5041 54.9616 16.9781C55.2018 16.3602 55.3205 15.7019 55.311 15.0392C55.311 13.6324 54.8609 12.5053 53.9607 11.6581C53.0604 10.8108 51.889 10.3885 50.4465 10.3911H44.3125V25.1689H46.956V19.6854H48.9619L52.7722 25.1689H55.7335L51.8206 19.5711ZM46.956 17.3485V12.7181H50.2313C50.9815 12.7181 51.5738 12.9211 52.0081 13.327C52.4425 13.7329 52.6609 14.3017 52.6636 15.0333C52.6636 15.765 52.4438 16.3351 52.0042 16.7436C51.5208 17.1637 50.8932 17.3805 50.253 17.3485H46.956Z" fill="white"/>
<path fill-rule="evenodd" clip-rule="evenodd" d="M35.6137 17.7778L34.0699 19.3187L28.2123 13.4726V10.3889L35.6137 17.7778ZM20.8069 3L19.263 4.54083L25.1206 10.3869H28.2103L20.8069 3ZM17.4921 6.31417L15.9463 7.85698L18.4891 10.3948H21.5788L17.4921 6.31417ZM28.2103 17.0113V20.095L30.7531 22.6328L32.299 21.09L28.2103 17.0113ZM27.3258 22.7451L28.2103 21.8624H16.7202V10.3889L15.8357 11.2716L14.1773 9.61652L12.6276 11.1613L14.2859 12.8164L13.4015 13.6991V15.4725L10.8586 12.9346L9.31279 14.4774L13.4015 18.5581V22.0772L7.54584 16.237L6 17.7798L20.8069 32.5576L22.3527 31.0148L16.4951 25.1687H20.0349L24.1236 29.2494L25.6694 27.7066L23.1266 25.1687H24.9034L25.7879 24.286L27.4463 25.9411L28.9921 24.3983L27.3258 22.7451Z" fill="white"/>
</svg>
