<svg width="99" height="46" viewBox="0 0 99 46" fill="none" xmlns="http://www.w3.org/2000/svg">
<path d="M85.6339 9.01904C87.8631 9.57938 89.8557 10.7332 91.4313 12.3008C93.7046 14.5633 95.1109 17.6897 95.1109 21.1421C95.1109 24.5944 93.7046 27.7205 91.4313 29.9828C89.158 32.2453 86.0164 33.6445 82.5474 33.6445C79.0789 33.6445 75.9373 32.2453 73.664 29.9828C71.3907 27.7206 69.9844 24.5945 69.9844 21.1421C69.9844 17.6897 71.3907 14.5633 73.664 12.3008C75.2395 10.7332 77.2318 9.57984 79.4614 9.01904V12.6667C78.2019 13.121 77.0728 13.845 76.1446 14.7695C74.5056 16.4001 73.4918 18.653 73.4918 21.1422C73.4918 23.6308 74.5061 25.8841 76.1446 27.5147C77.7827 29.1459 80.0469 30.1535 82.5475 30.1535C85.0481 30.1535 87.3128 29.1459 88.9513 27.5147C90.5897 25.8841 91.6036 23.6304 91.6036 21.1422C91.6036 18.653 90.5897 16.4002 88.9513 14.7695C88.0227 13.845 86.8934 13.1209 85.634 12.6667V9.01904H85.6339Z" fill="white"/>
<path d="M23.8048 19.2188H27.0294C27.0578 19.847 27.2965 20.3181 27.7377 20.6358C28.215 20.9499 28.8459 21.1074 29.6349 21.1074C30.2054 21.1074 30.695 20.9947 31.1039 20.7772C31.4842 20.5553 31.6743 20.2577 31.6743 19.8792C31.6743 19.3114 31.0106 18.8885 29.6834 18.6026C29.1133 18.5099 28.6884 18.4176 28.4011 18.3207C26.7259 17.9139 25.6054 17.4227 25.0348 16.8593C24.4036 16.2916 24.0879 15.5384 24.0879 14.5922C24.0879 13.3965 24.5452 12.4059 25.4638 11.621C26.4103 10.8961 27.644 10.5333 29.1619 10.5333C30.8044 10.5333 32.1149 10.8961 33.0983 11.621C34.0123 12.4059 34.502 13.4288 34.5671 14.6892H32.5278C31.9293 14.6892 31.4677 14.4194 31.1524 13.8839C31.0269 13.759 30.9015 13.6341 30.772 13.5049C30.3956 13.2233 29.8736 13.0823 29.2104 13.0823C28.5751 13.0823 28.1017 13.175 27.7861 13.3643C27.5028 13.5537 27.3612 13.8395 27.3612 14.2141C27.3612 14.7174 28.1827 15.1438 29.8251 15.4902C30.0153 15.5507 30.1815 15.599 30.3231 15.6312C30.4647 15.6633 30.5981 15.6794 30.7274 15.6794C32.3375 16.0861 33.4584 16.5613 34.0933 17.0929C34.6927 17.6606 34.9916 18.4177 34.9916 19.3598C34.9916 20.7446 34.4863 21.8157 33.4746 22.5684C32.5277 23.2615 31.1039 23.6078 29.2104 23.6078C27.4058 23.6078 26.0628 23.245 25.1805 22.5205C24.262 21.8 23.8047 20.7446 23.8047 19.3598V19.2188H23.8048ZM41.7487 23.3699C40.7046 23.4342 39.576 23.4185 38.3584 23.3254C37.1404 23.2293 36.5336 22.4601 36.5336 21.0104V7.13916H38.2407C38.6496 7.13916 39.0137 7.2963 39.3295 7.61039C39.6451 7.92458 39.8029 8.30311 39.8029 8.74166V10.8679H41.7488V11.5279C41.7488 11.999 41.5909 12.3859 41.2753 12.6839C40.9601 12.982 40.5797 13.1307 40.1347 13.1307H39.8029V20.1169C39.8029 20.6485 40.1185 20.9183 40.7533 20.9183H41.7488V23.3699H41.7487ZM49.9741 17.0481C49.529 17.2657 48.9139 17.4715 48.1253 17.6606C47.3969 17.8178 47.0328 17.8982 47.0328 17.8982C46.4662 18.0554 46.0535 18.2563 45.7986 18.51C45.5804 18.8562 45.4671 19.2027 45.4671 19.549C45.4671 20.0202 45.6127 20.3983 45.8956 20.6801C46.1793 20.9299 46.592 21.0591 47.1298 21.0591C48.012 21.0591 48.7076 20.8054 49.2133 20.3016C49.7192 19.7986 49.9741 19.106 49.9741 18.2284V17.0481ZM50.7309 22.8507C50.0672 23.1971 49.3629 23.4103 48.6227 23.4908C47.8783 23.5673 47.223 23.6078 46.6525 23.6078C45.5158 23.6078 44.5203 23.3015 43.6666 22.6855C42.8132 22.0733 42.3883 21.0591 42.3883 19.6417C42.3883 18.3207 42.7725 17.3788 43.5494 16.811C44.3223 16.2432 45.3095 15.8686 46.5109 15.6793C46.6687 15.6793 46.8589 15.6554 47.0814 15.6067C47.3039 15.5587 47.5549 15.5223 47.8377 15.4901C49.2296 15.3008 49.9256 14.8901 49.9256 14.2619C49.9256 13.7911 49.679 13.4848 49.1895 13.3399C48.6999 13.1994 48.2508 13.1306 47.8377 13.1306C47.397 13.1306 47.0005 13.1911 46.6525 13.3195C46.3044 13.4448 46.0535 13.6784 45.8957 14.0243H42.7201C42.8455 13.0497 43.2867 12.2487 44.0474 11.6209C44.9008 10.896 46.1188 10.5332 47.6965 10.5332C49.4684 10.5332 50.7956 10.8318 51.6818 11.4312C52.5959 12.0595 53.0533 12.9414 53.0533 14.0731V18.369C53.0533 19.6256 52.8268 20.6118 52.3654 21.3163C51.9083 22.0251 51.3616 22.5366 50.7309 22.8507ZM54.1702 23.3699V17.2817C54.1702 16.0579 54.3526 15.0272 54.7162 14.194C55.0808 13.3604 55.5783 12.6918 56.2091 12.1883C56.8081 11.7175 57.512 11.3712 58.3173 11.1498C59.1265 10.9283 59.9558 10.8196 60.8096 10.8196C60.8699 10.8196 60.9507 10.8196 61.0443 10.8196C61.1409 10.8196 61.2179 10.8196 61.2825 10.8196V14.1698H60.1906C59.276 14.1698 58.5962 14.3912 58.1515 14.8302C57.7104 15.2688 57.4879 15.9614 57.4879 16.9073V23.37H54.1702V23.3699ZM67.8494 23.3699C66.8058 23.4342 65.6766 23.4185 64.459 23.3254C63.2411 23.2293 62.6343 22.4601 62.6343 21.0104V7.13916H64.3415C64.7501 7.13916 65.1143 7.2963 65.43 7.61039C65.7457 7.92458 65.9035 8.30311 65.9035 8.74166V10.8679H67.8494V11.5279C67.8494 11.999 67.6915 12.3859 67.3759 12.6839C67.0608 12.982 66.6799 13.1307 66.2353 13.1307H65.9035V20.1169C65.9035 20.6485 66.2191 20.9183 66.8538 20.9183H67.8494V23.3699Z" fill="white"/>
<path d="M84.9914 21.1268C84.9914 21.8107 84.7588 22.3893 84.2937 22.8623C83.8289 23.3348 83.2528 23.571 82.5654 23.571C81.8781 23.571 81.2967 23.3348 80.8219 22.8623C80.3467 22.3894 80.1094 21.8107 80.1094 21.1268C80.1094 20.4428 80.3467 19.8698 80.8219 19.4068C81.2967 18.9439 81.8781 18.7129 82.5654 18.7129C83.2326 18.7129 83.8035 18.9491 84.2788 19.4221C84.7537 19.8946 84.9914 20.4631 84.9914 21.1268Z" fill="white"/>
<path d="M84.5386 17.4669H80.4453V1.80566H84.5386V17.4669Z" fill="white"/>
<path d="M12.9381 35.0374H15.3089C14.9614 36.3574 14.2973 37.3651 13.3185 38.0577C12.3388 38.7817 11.105 39.1437 9.62035 39.1437C7.81569 39.1437 6.41192 38.5608 5.40035 37.3965C4.38869 36.2653 3.88281 34.6467 3.88281 32.5367C3.88281 30.524 4.37297 28.949 5.35179 27.8173C6.36345 26.6539 7.77157 26.0704 9.57178 26.0704C11.4691 26.0704 12.9381 26.6377 13.982 27.769C14.9932 28.9328 15.4991 30.5553 15.4991 32.6296C15.4991 32.7584 15.4991 32.8664 15.4991 32.9595C15.4991 33.0561 15.4991 33.117 15.4991 33.1484C15.4991 33.3058 15.4829 33.4181 15.4506 33.479H7.24904C7.28141 34.457 7.51664 35.1785 7.96119 35.6526C8.37004 36.1565 8.98506 36.4062 9.81006 36.4062C10.3447 36.4062 10.8055 36.2983 11.1819 36.0755C11.2794 36.0442 11.3642 35.992 11.4451 35.9102C11.5221 35.8301 11.6108 35.7466 11.7039 35.6526C11.7363 35.5569 11.8535 35.4317 12.0598 35.2749C12.2661 35.1174 12.5577 35.0374 12.9381 35.0374ZM7.24904 31.3575H12.0842C12.0195 30.5074 11.8009 29.8791 11.4211 29.4675C11.008 29.0294 10.4252 28.808 9.66456 28.808C8.97294 28.808 8.40241 29.0294 7.96128 29.4675C7.51664 29.9114 7.28141 30.5395 7.24904 31.3575ZM27.6163 38.907H25.9572C25.4798 38.907 25.0955 38.7573 24.7921 38.4598C24.4922 38.1577 24.3431 37.775 24.3431 37.3041V30.8858C24.3431 30.1288 24.1162 29.5806 23.6554 29.2343C23.1982 28.8884 22.6841 28.7152 22.1135 28.7152C21.5474 28.7152 21.0416 28.8884 20.5965 29.2343C20.1553 29.5807 19.9329 30.1289 19.9329 30.8858V38.907H16.6151V31.5454C16.6151 29.4039 17.1778 27.9747 18.2987 27.2498C19.4192 26.5251 20.6612 26.1344 22.0208 26.0703C23.4122 26.0703 24.6911 26.4324 25.8605 27.1568C27.0296 27.8776 27.6162 29.3439 27.6162 31.5454L27.6163 38.907ZM36.8367 38.1535V37.3477C36.2662 38.23 35.4972 38.7817 34.5345 39.0028C33.5709 39.2202 32.6162 39.1437 31.6653 38.7661C30.7188 38.3868 29.9057 37.6871 29.2258 36.6639C28.5459 35.6414 28.2058 34.2961 28.2058 32.6297C28.2058 30.6805 28.6548 29.0978 29.5576 27.8861C30.4556 26.674 31.9044 26.0705 33.8949 26.0705C35.4123 26.0705 36.82 26.4808 38.1149 27.2979C39.4098 28.1158 40.0569 29.626 40.0569 31.8284V38.4843C40.0569 40.6866 39.4098 42.1885 38.1149 42.9899C36.8199 43.7903 35.4123 44.1942 33.8949 44.1942C30.9859 44.1942 29.1856 42.8402 28.4895 40.1357H31.9489C32.2037 40.5744 32.592 40.912 33.114 41.1495C33.6316 41.3871 34.1536 41.4479 34.6756 41.3383C35.1975 41.2305 35.671 40.9207 36.0999 40.4169C36.5251 39.913 36.7721 39.1601 36.8367 38.1535ZM31.4311 32.7255C31.4311 34.8965 32.0624 36.0998 33.3244 36.3339C34.5906 36.5715 35.5217 36.2808 36.1242 35.4647C36.4075 35.1175 36.6139 34.5737 36.7393 33.834C36.8647 33.0961 36.8731 32.3634 36.7638 31.6394C36.654 30.918 36.3913 30.2698 35.983 29.7059C35.5703 29.1386 34.9714 28.8563 34.1784 28.8563C33.106 28.8563 32.3781 29.2509 31.9977 30.0366C31.6168 30.8214 31.4311 31.7195 31.4311 32.7255ZM41.9906 26.3563H43.6978C44.1429 26.3563 44.5193 26.5129 44.8349 26.827C45.154 27.1412 45.3123 27.5196 45.3123 27.9583V38.9071H41.9907V26.3563H41.9906ZM57.5344 38.907H55.8757C55.3983 38.907 55.0137 38.7573 54.7102 38.4598C54.4107 38.1577 54.2612 37.775 54.2612 37.3041V30.8858C54.2612 30.1288 54.0343 29.5806 53.5736 29.2343C53.1158 28.8884 52.6021 28.7152 52.0316 28.7152C51.4655 28.7152 50.9596 28.8884 50.5142 29.2343C50.0735 29.5807 49.851 30.1289 49.851 30.8858V38.907H46.5333V31.5454C46.5333 29.4039 47.096 27.9747 48.2164 27.2498C49.3373 26.5251 50.5788 26.1344 51.939 26.0703C53.3305 26.0703 54.6091 26.4324 55.7782 27.1568C56.9472 27.8776 57.5343 29.3439 57.5343 31.5454V38.907H57.5344ZM67.9077 35.0374H70.279C69.9306 36.3574 69.2674 37.3651 68.2882 38.0577C67.3089 38.7817 66.0751 39.1437 64.5901 39.1437C62.7854 39.1437 61.3817 38.5608 60.3701 37.3965C59.3584 36.2653 58.8527 34.6467 58.8527 32.5367C58.8527 30.524 59.3423 28.949 60.3216 27.8173C61.3333 26.6539 62.7409 26.0704 64.5412 26.0704C66.439 26.0704 67.9078 26.6377 68.9514 27.769C69.9631 28.9328 70.4689 30.5553 70.4689 32.6296C70.4689 32.7584 70.4689 32.8664 70.4689 32.9595C70.4689 33.0561 70.4689 33.117 70.4689 33.1484C70.4689 33.3058 70.4526 33.4181 70.4205 33.479H62.2194C62.2513 34.457 62.4862 35.1785 62.9315 35.6526C63.3399 36.1565 63.955 36.4062 64.7804 36.4062C65.3141 36.4062 65.7754 36.2983 66.1517 36.0755C66.2488 36.0442 66.334 35.992 66.415 35.9102C66.4915 35.8301 66.5806 35.7466 66.6738 35.6526C66.7062 35.5569 66.8233 35.4317 67.0302 35.2749C67.2363 35.1174 67.5274 35.0374 67.9077 35.0374ZM62.2192 31.3575H67.054C66.9893 30.5074 66.7707 29.8791 66.3904 29.4675C65.9777 29.0294 65.3949 28.808 64.6347 28.808C63.9426 28.808 63.3722 29.0294 62.9314 29.4675C62.4859 29.9114 62.251 30.5395 62.2192 31.3575Z" fill="white"/>
</svg>
