<svg width="293" height="80" viewBox="0 0 293 80" fill="none" xmlns="http://www.w3.org/2000/svg">
<path d="M132.461 18.6953H146.398V26.5017C150.964 19.4859 156.219 18.6953 163.911 18.6953V32.4908H160.408C151.19 32.4908 146.778 36.8283 146.778 45.4204V60.0844H132.461V18.6953Z" fill="white"/>
<path d="M210.408 60.0844H196.095V56.1387C192.969 59.7657 188.709 61.3421 183.457 61.3421C173.483 61.3421 167.844 55.4283 167.844 44.5519V18.6953H182.158V41.3238C182.158 46.4445 184.671 49.4391 188.933 49.4391C193.195 49.4391 196.092 46.52 196.092 41.5573V18.6953H210.406V60.0844H210.408Z" fill="white"/>
<path d="M213.906 47.3056H227.312C227.923 50.3002 229.979 51.5603 234.924 51.5603C238.962 51.5603 241.322 50.6164 241.322 48.8819C241.322 47.5391 240.179 46.6707 236.909 45.9628L226.096 43.5179C218.861 41.8662 215.205 37.6869 215.205 30.9825C215.205 22.1495 221.676 17.5786 234.241 17.5786C246.805 17.5786 252.972 22.0328 254.042 31.5761H240.719C240.493 29.0558 237.899 27.5135 233.637 27.5135C230.212 27.5135 228.008 28.6155 228.008 30.2746C228.008 31.6928 229.451 32.7948 232.35 33.51L243.694 36.2711C251.155 38.081 254.738 41.8686 254.738 48.0159C254.738 56.5326 247.35 61.578 234.793 61.578C222.235 61.578 213.928 56.1385 213.928 47.3056H213.913H213.906Z" fill="white"/>
<path d="M292.855 31.5689V18.6953H257.523V31.5762H268.066V60.0844H282.307V31.5689H292.855Z" fill="white"/>
<path d="M128.478 31.5689V18.6953H93.1484V31.5762H103.692V60.0844H117.935V31.5689H128.478Z" fill="white"/>
<path fill-rule="evenodd" clip-rule="evenodd" d="M35.6085 0L0.46875 11.4213V36.8985C0.46875 48.3173 10.5083 68.523 35.6085 79.0661V0ZM35.6094 0L70.749 11.4213V36.8985C70.749 48.3173 60.7095 68.523 35.6094 79.0661V0Z" fill="white"/>
</svg>
