<svg fill="none" xmlns="http://www.w3.org/2000/svg" viewBox="0 0 235 35"><path d="M35.389 5.365c-.007-.07-.022-.138-.032-.204a6.866 6.866 0 0 0-.09-.47 2.922 2.922 0 0 0-.056-.213 5.678 5.678 0 0 0-.146-.455c-.022-.058-.041-.117-.064-.173a5.596 5.596 0 0 0-.259-.553c-.005-.012-.01-.026-.017-.037a5.923 5.923 0 0 0-.789-1.122l-.057-.06a6.18 6.18 0 0 0-.43-.43l-.063-.054a5.583 5.583 0 0 0-.549-.427 6.29 6.29 0 0 0-.516-.32 6.702 6.702 0 0 0-.464-.23c-.027-.01-.054-.024-.079-.036a5.009 5.009 0 0 0-.463-.172l-.053-.02c-.02-.006-.037-.015-.057-.022a5.661 5.661 0 0 0-.45-.115C30.728.245 30.7.236 30.673.23c-.02-.005-.04-.014-.063-.018-.163-.035-.33-.056-.498-.077a.159.159 0 0 0-.029-.003c-.03-.004-.058-.01-.087-.012a6.285 6.285 0 0 0-.632-.035h-1.057c.001.448 0 .911-.002 1.379-.032 8.96-.402 21.182 4.536 30.535.226.43.456.85.705 1.266.078-.074.15-.156.224-.233.05-.053.105-.105.153-.158.015-.019.03-.033.045-.049.084-.096.16-.197.24-.3.023-.036.05-.06.073-.093l.06-.08c.036-.05.069-.108.102-.16.05-.075.102-.15.148-.23l.073-.115c.009-.017.018-.037.029-.054.057-.107.112-.212.163-.322.027-.053.056-.107.079-.161.051-.114.094-.238.139-.355.025-.069.053-.137.076-.203.038-.112.062-.231.093-.345.021-.08.044-.158.062-.238.013-.058.02-.116.029-.179.01-.064.023-.133.032-.2.012-.076.026-.148.035-.223.01-.1.01-.2.016-.301.002-.075.01-.15.01-.226 0-.033.004-.061.004-.093V6.05c0-.231-.016-.46-.042-.685ZM1.403 25.368c-.467-.033-.922-.072-1.403-.1v3.682c0 .22.012.436.037.65.008.066.022.134.032.2.022.144.043.288.075.428.018.075.04.15.06.23.035.125.07.255.111.375.027.08.057.154.086.23a5.708 5.708 0 0 0 .562 1.1c.075.114.153.224.237.333.04.054.08.108.125.164.096.116.195.23.299.338.037.039.073.082.11.117.14.144.29.279.445.406.007.006.01.01.018.014.002.006.005.007.009.01.064.052.132.095.194.143.473.353 1 .637 1.563.843.062.025.125.046.189.068.09.032.183.055.276.08.09.029.185.05.277.07.08.02.159.038.24.052.118.02.237.036.357.052.064.007.126.02.192.026.189.018.38.028.571.028H29.36c-.853-.451-1.722-.913-2.598-1.375-6.855-3.62-14.557-7.39-25.358-8.164ZM24.654 1.463c.365-.452.731-.907 1.1-1.379H6.07c-.21 0-.419.01-.621.033-.004 0-.008 0-.011.002-.189.02-.374.047-.56.082-.056.012-.111.026-.168.04-.13.03-.258.06-.383.097-.064.019-.126.042-.189.061-.117.038-.235.08-.349.126-.06.024-.12.05-.183.077a7.154 7.154 0 0 0-.5.245c-.113.063-.221.13-.328.198-.048.031-.098.06-.144.09a7.47 7.47 0 0 0-.35.258c-.031.024-.061.045-.09.07a5.796 5.796 0 0 0-.792.779c-.027.03-.048.06-.073.09a6.424 6.424 0 0 0-.26.342c-.034.047-.064.096-.096.142-.068.105-.135.21-.198.32l-.09.17c-.058.105-.111.215-.159.323a4.478 4.478 0 0 0-.205.52 2.149 2.149 0 0 0-.064.19c-.037.122-.07.248-.1.374-.012.057-.028.11-.04.168C.04 5.26 0 5.649 0 6.05v15.142c.449-.15.919-.329 1.403-.523 5.658-2.266 13.714-7.455 23.25-19.206ZM40.815 4.102h4.277L53.1 25.904h.078l8.317-21.802h4.044L54.792 30.9h-3.467L40.816 4.102ZM68.041 4.102H85.64v3.406H71.737v7.987h12.94v3.407h-12.94v8.592h14.595V30.9h-18.29V4.102ZM90.03 4.102h4.855l15.017 22.03h.077V4.101h3.699V30.9h-4.698L93.803 8.87h-.077V30.9H90.03V4.102ZM118.526 4.102h9.512c1.924 0 3.614.214 5.068.64 1.446.431 2.706 1.005 3.769 1.724 1.065.72 1.951 1.546 2.656 2.478a13.08 13.08 0 0 1 1.67 2.88c.417.983.712 1.97.894 2.951.176.986.267 1.894.267 2.725 0 1.719-.324 3.381-.96 4.98a12.56 12.56 0 0 1-2.855 4.278c-1.255 1.25-2.817 2.254-4.681 3.008-1.86.758-4.009 1.136-6.45 1.136h-8.894v-26.8h.004Zm3.699 23.392h4.655c1.565 0 3.047-.206 4.448-.624 1.395-.413 2.626-1.04 3.674-1.871a8.96 8.96 0 0 0 2.505-3.122c.618-1.248.926-2.707.926-4.375 0-.856-.141-1.859-.426-3.008-.281-1.147-.813-2.239-1.595-3.271-.781-1.036-1.869-1.915-3.254-2.634-1.383-.721-3.183-1.08-5.389-1.08h-5.542v19.985h-.002ZM157.692 4.373l-.139-.33h-3.251l-.144.325-11.46 25.807-.334.76h3.763l.145-.33 2.825-6.525h13.172l2.717 6.519.137.334H169.065l-.324-.747-11.049-25.813Zm-7.167 16.44 5.28-12.207 5.122 12.207h-10.402ZM184.974 17.407a16.603 16.603 0 0 0-3.376-1.263 27.313 27.313 0 0 1-3.199-1.034c-.926-.371-1.696-.88-2.314-1.514-.559-.585-.851-1.458-.851-2.599 0-.735.146-1.374.418-1.9a4.01 4.01 0 0 1 1.129-1.336 5.194 5.194 0 0 1 1.697-.82 7.534 7.534 0 0 1 2.104-.29c1.04 0 1.948.195 2.699.578.74.382 1.408.972 1.971 1.747l.325.44.446-.314 2.111-1.495.461-.323-.336-.44c-.944-1.239-2.094-2.142-3.401-2.674-1.283-.521-2.699-.787-4.192-.787a11.79 11.79 0 0 0-3.353.478 9.003 9.003 0 0 0-2.868 1.44 7.075 7.075 0 0 0-2.003 2.406c-.5.96-.751 2.067-.751 3.29 0 1.286.212 2.396.627 3.287.416.89.982 1.648 1.679 2.245a8.89 8.89 0 0 0 2.318 1.416c.81.348 1.668.661 2.536.93.866.275 1.697.547 2.477.802.762.256 1.451.564 2.06.919.569.329 1.022.76 1.358 1.269.328.488.488 1.14.488 1.932 0 .69-.139 1.316-.408 1.858a4.369 4.369 0 0 1-1.123 1.409 5.299 5.299 0 0 1-1.697.92 6.628 6.628 0 0 1-2.12.336c-1.211 0-2.304-.253-3.242-.74-.929-.483-1.699-1.235-2.282-2.236l-.296-.496-.488.317-2.337 1.535-.474.31.337.458c1.087 1.488 2.43 2.56 3.973 3.189 1.521.62 3.203.932 4.998.932 1.116 0 2.207-.171 3.247-.498a8.345 8.345 0 0 0 2.798-1.5 7.437 7.437 0 0 0 1.939-2.457c.483-.97.727-2.088.727-3.336 0-1.711-.376-3.088-1.108-4.088a7.66 7.66 0 0 0-2.704-2.303ZM211.58 7.31V4.042H190.085V7.31h8.974V30.934h3.549V7.31h8.972ZM234.68 30.186 223.626 4.373l-.139-.33H220.238l-.143.325-11.461 25.807-.333.76h3.763l.141-.33 2.827-6.525h13.171l2.715 6.519.139.334H235l-.32-.747Zm-18.217-9.373 5.279-12.207 5.118 12.207h-10.397Z" fill="#000"/></svg>