<svg xmlns="http://www.w3.org/2000/svg" width="156" height="60" fill="none" viewBox="0 0 156 60"><rect width="153" height="36" fill="#C4C4C4" rx="12" transform="matrix(-0.998238 -0.0593325 -0.0593325 0.998238 155.756 9.07812)"/><path fill="#C4C4C4" d="M145.743 59.5732L143.003 44.3839L126.668 43.413C126.668 43.413 133.592 47.9617 137.139 51.1066C140.686 54.2516 145.743 59.5732 145.743 59.5732Z"/><path fill="#000" d="M28.72 25.1043L30.8917 25.2413L31.597 14.0635L29.4253 13.9265L28.72 25.1043ZM37.3731 25.5701L37.3402 23.8045C37.0437 23.9301 36.6894 23.9558 36.386 23.9367C35.7633 23.8974 35.3743 23.456 35.4226 22.6895L35.6453 19.1605L37.6733 19.2885L37.7801 17.5959L35.7521 17.4679L35.9012 15.1046L33.8892 14.9777L33.7401 17.341L32.3828 17.2553L32.276 18.948L33.6333 19.0336L33.3986 22.7542C33.2797 24.6385 34.4378 25.5933 36.0666 25.696C36.5297 25.7253 36.9649 25.6886 37.3731 25.5701ZM38.4647 18.2964L39.7581 18.378L42.0169 14.5927L39.7016 14.4466L38.4647 18.2964ZM43.599 26.1713C45.4513 26.2882 46.7674 25.249 46.855 23.8597C47.0626 20.5703 42.5678 21.4249 42.6575 20.0038C42.6867 19.5407 43.135 19.2964 43.7737 19.3367C44.4284 19.378 45.1058 19.8216 45.281 20.6021L46.9531 20.0183C46.6754 18.8304 45.4004 17.9484 43.8355 17.8497C42.079 17.7388 40.9147 18.6594 40.8351 19.9208C40.6427 22.9708 45.0964 22.2578 45.0007 23.7748C44.9685 24.2858 44.4482 24.6538 43.6977 24.6064C42.6917 24.5429 42.1113 23.833 41.9232 23.0035L40.2361 23.5704C40.5608 24.7772 41.6509 26.0484 43.599 26.1713ZM56.134 26.7537L56.1011 24.9882C55.8046 25.1137 55.4502 25.1395 55.1468 25.1203C54.5241 25.0811 54.1351 24.6397 54.1835 23.8732L54.4061 20.3442L56.4341 20.4722L56.5409 18.7795L54.5129 18.6516L54.662 16.2883L52.65 16.1613L52.5009 18.5246L51.1436 18.439L51.0368 20.1316L52.3941 20.2173L52.1594 23.9379C52.0405 25.8221 53.1987 26.777 54.8274 26.8797C55.2905 26.9089 55.7257 26.8723 56.134 26.7537ZM57.6001 26.9264L59.6121 27.0534L59.8328 23.5563C59.9476 21.7359 60.7177 20.7104 61.9632 20.789C62.9533 20.8514 63.5208 21.5125 63.4583 22.5025L63.1571 27.277L65.1691 27.404L65.5015 22.1344C65.6124 20.3779 64.4873 19.1526 62.6829 19.0388C61.5651 18.9683 60.6237 19.4059 60.0413 20.2509L60.3254 15.7478L58.3134 15.6209L57.6001 26.9264ZM71.8142 22.6289L71.8091 22.7087L70.2991 22.7578C67.8877 22.8621 66.6367 23.6329 66.5369 25.2137C66.4503 26.587 67.4876 27.6785 69.0685 27.7782C70.0585 27.8407 71.0648 27.3912 71.5613 26.6369L71.4878 27.8026L73.4359 27.9255L73.7452 23.0233C73.8802 20.8835 72.5146 19.6591 70.4068 19.5261C68.6982 19.4183 67.2125 20.3506 66.8563 21.9313L68.6246 22.3635C68.7748 21.5073 69.4318 21.0037 70.31 21.0591C71.2841 21.1205 71.8716 21.7187 71.8142 22.6289ZM68.4891 25.2728C68.5254 24.6979 69.0965 24.2851 70.1744 24.2248L71.7185 24.1459L71.7074 24.3215C71.6328 25.5032 70.8548 26.4 69.6093 26.3214C68.8748 26.2751 68.4538 25.8317 68.4891 25.2728ZM79.7208 28.2419L79.6879 26.4763C79.3914 26.6019 79.0371 26.6277 78.7337 26.6085C78.1109 26.5692 77.722 26.1279 77.7703 25.3614L77.993 21.8324L80.0209 21.9603L80.1277 20.2677L78.0998 20.1398L78.2489 17.7765L76.2369 17.6495L76.0878 20.0128L74.7305 19.9272L74.6237 21.6198L75.981 21.7054L75.7462 25.4261C75.6273 27.3103 76.7855 28.2651 78.4143 28.3679C78.8774 28.3971 79.3125 28.3604 79.7208 28.2419ZM84.121 24.5597C83.989 26.6515 85.2803 28.8011 87.947 28.9693C89.8312 29.0882 91.2928 28.2827 91.8357 26.7939L89.9836 26.164C89.7267 26.9334 89.0278 27.3382 88.0857 27.2787C86.936 27.2062 86.1989 26.4382 86.0998 25.2136L92.0719 25.5904C92.0979 25.4317 92.1361 25.0814 92.1542 24.794C92.2721 22.9257 91.0737 20.8301 88.3591 20.6588C85.6924 20.4905 84.253 22.4678 84.121 24.5597ZM86.2404 23.7475C86.5324 22.6758 87.2723 22.1293 88.2623 22.1917C89.428 22.2653 90.0055 23.0232 90.0408 23.9873L86.2404 23.7475ZM98.0757 24.2858L98.0707 24.3657L96.5606 24.4147C94.1492 24.519 92.8982 25.2898 92.7985 26.8707C92.7118 28.2439 93.7492 29.3354 95.33 29.4352C96.3201 29.4976 97.3264 29.0481 97.8228 28.2939L97.7493 29.4595L99.6974 29.5825L100.007 24.6802C100.142 22.5405 98.7761 21.316 96.6683 21.183C94.9597 21.0752 93.474 22.0075 93.1178 23.5883L94.8861 24.0205C95.0363 23.1642 95.6933 22.6606 96.5716 22.716C97.5456 22.7775 98.1331 23.3756 98.0757 24.2858ZM94.7506 26.9297C94.7869 26.3548 95.358 25.942 96.436 25.8817L97.98 25.8028L97.9689 25.9785C97.8944 27.1601 97.1164 28.0569 95.8708 27.9783C95.1363 27.932 94.7154 27.4886 94.7506 26.9297ZM104.145 29.9914C105.998 30.1082 107.314 29.069 107.402 27.6798C107.609 24.3903 103.114 25.245 103.204 23.8238C103.233 23.3607 103.681 23.1165 104.32 23.1568C104.975 23.1981 105.652 23.6416 105.828 24.4222L107.5 23.8383C107.222 22.6505 105.947 21.7685 104.382 21.6697C102.625 21.5589 101.461 22.4794 101.382 23.7409C101.189 26.7908 105.643 26.0779 105.547 27.5949C105.515 28.1058 104.995 28.4738 104.244 28.4265C103.238 28.363 102.658 27.653 102.47 26.8235L100.783 27.3904C101.107 28.5973 102.197 29.8684 104.145 29.9914ZM114.115 22.412L111.792 27.4598L110.186 22.1642L107.999 22.0262L110.641 29.9523L109.192 33.0993L111.236 33.2282L116.175 22.542L114.115 22.412ZM118.492 27.3054L120.44 27.4283C120.472 25.4103 123.678 25.9172 123.863 22.979C123.985 21.0469 122.597 19.6767 120.377 19.5367C118.078 19.3916 116.52 20.7041 116.466 22.8329L118.37 23.1455C118.35 21.9418 119.102 21.2037 120.267 21.2772C121.226 21.3377 121.826 21.9848 121.771 22.863C121.646 24.8431 118.45 24.417 118.492 27.3054ZM118.211 30.7505L120.351 30.8855L120.484 28.7777L118.344 28.6427L118.211 30.7505ZM125.341 27.5932L126.906 27.692L127.831 20.1352L125.356 19.9791L125.341 27.5932ZM124.827 31.1679L126.967 31.3029L127.1 29.1951L124.96 29.0601L124.827 31.1679Z"/></svg>