<svg xmlns="http://www.w3.org/2000/svg" width="137" height="132" fill="none" viewBox="0 0 499 478"><g clip-path="url(#a)"><path fill="#1D4AFF" d="M113.795 168.126c-3.821 7.641-14.724 7.641-18.544 0l-9.137-18.274a10.367 10.367 0 0 1 0-9.272l9.136-18.273c3.82-7.641 14.724-7.641 18.545 0l9.136 18.273a10.361 10.361 0 0 1 0 9.272l-9.136 18.274ZM113.795 271.757c-3.821 7.641-14.724 7.641-18.544 0l-9.137-18.273a10.367 10.367 0 0 1 0-9.272l9.136-18.274c3.82-7.64 14.724-7.64 18.545 0l9.136 18.274a10.361 10.361 0 0 1 0 9.272l-9.136 18.273Z"/><path fill="#F9BD2B" d="M.888 232.422c0-9.236 11.166-13.861 17.697-7.33l47.514 47.514c6.53 6.53 1.905 17.696-7.33 17.696H11.254c-5.726 0-10.367-4.641-10.367-10.366v-47.514Zm0-50.048c0 2.75 1.092 5.386 3.036 7.33l97.562 97.562a10.367 10.367 0 0 0 7.33 3.036h53.587c9.235 0 13.86-11.166 7.33-17.696L18.585 121.458c-6.53-6.531-17.697-1.906-17.697 7.33v53.586Zm0-103.634c0 2.75 1.092 5.386 3.036 7.33L205.12 287.266a10.367 10.367 0 0 0 7.33 3.036h53.587c9.235 0 13.861-11.166 7.33-17.696L18.585 17.823c-6.53-6.53-17.697-1.905-17.697 7.33V78.74Zm103.634 0c0 2.75 1.092 5.386 3.037 7.33l186.535 186.536c6.531 6.53 17.697 1.905 17.697-7.331v-53.586c0-2.749-1.092-5.386-3.037-7.33L122.219 17.823c-6.531-6.53-17.697-1.905-17.697 7.33V78.74Zm121.331-60.917c-6.53-6.53-17.697-1.905-17.697 7.33V78.74c0 2.75 1.093 5.386 3.037 7.33l82.901 82.901c6.531 6.531 17.697 1.906 17.697-7.33v-53.586c0-2.75-1.092-5.386-3.037-7.331l-82.901-82.9Z"/><path fill="#000" d="m441.722 233.694-97.577-97.577c-6.531-6.531-17.697-1.906-17.697 7.33v136.49c0 5.725 4.641 10.367 10.366 10.367h151.151c5.725 0 10.366-4.642 10.366-10.367v-12.43c0-5.725-4.66-10.297-10.338-11.036a80.062 80.062 0 0 1-46.271-22.777Zm-65.53 23.447c-9.153 0-16.581-7.429-16.581-16.582s7.428-16.581 16.581-16.581c9.153 0 16.582 7.428 16.582 16.581 0 9.153-7.429 16.582-16.582 16.582Z"/><path fill="#1D4AFF" d="M.888 279.935c0 5.725 4.641 10.366 10.367 10.366h47.513c9.236 0 13.861-11.166 7.33-17.696l-47.513-47.514c-6.53-6.531-17.697-1.906-17.697 7.33v47.514ZM104.522 103.761 18.585 17.823c-6.53-6.53-17.697-1.905-17.697 7.33V78.74c0 2.75 1.092 5.386 3.036 7.33l100.598 100.598v-82.907ZM18.585 121.459c-6.53-6.53-17.697-1.905-17.697 7.331v53.586c0 2.75 1.092 5.386 3.036 7.33l100.598 100.598v-82.907l-85.937-85.938Z"/><path fill="#F54E00" d="M208.156 108.055c0-2.75-1.092-5.386-3.036-7.331l-82.901-82.9c-6.531-6.531-17.697-1.906-17.697 7.33V78.74c0 2.75 1.092 5.386 3.036 7.33l100.598 100.598v-78.613ZM104.522 290.301h57.88c9.236 0 13.861-11.166 7.331-17.696l-65.211-65.211v82.907ZM104.522 103.763v78.613c0 2.75 1.092 5.386 3.036 7.33l100.598 100.598v-78.613c0-2.749-1.092-5.386-3.036-7.33L104.522 103.763Z"/><path fill="#000" d="M9.585 453.474h20.19v-33.48h16.867c18.529 0 30.412-10.989 30.412-27.984s-11.883-27.985-30.412-27.985H9.585v89.449Zm20.19-50.73v-21.468h14.822c7.667 0 12.267 4.089 12.267 10.734s-4.6 10.734-12.267 10.734H29.774ZM113.58 454.496c19.679 0 33.991-14.056 33.991-33.224 0-19.167-14.312-33.223-33.991-33.223-19.934 0-33.99 14.056-33.99 33.223 0 19.168 14.056 33.224 33.99 33.224Zm-15.334-33.224c0-10.222 6.134-17.25 15.334-17.25 9.073 0 15.207 7.028 15.207 17.25 0 10.223-6.134 17.251-15.207 17.251-9.2 0-15.334-7.028-15.334-17.251ZM179.88 454.496c15.078 0 25.301-9.456 25.301-20.573 0-26.068-34.629-17.634-34.629-27.857 0-2.811 2.939-4.6 7.156-4.6 4.344 0 9.583 2.683 11.245 8.561l15.078-6.261c-2.939-9.328-13.801-15.717-26.962-15.717-14.184 0-23.001 8.433-23.001 18.528 0 24.407 34.118 17.634 34.118 27.729 0 3.578-3.323 6.006-8.306 6.006-7.156 0-12.139-4.984-13.673-10.989l-15.078 5.878c3.322 9.711 13.034 19.295 28.751 19.295ZM253.752 452.835l-1.278-16.229c-2.172 1.15-4.984 1.534-7.284 1.534-4.6 0-7.667-3.323-7.667-9.073V404.66h15.59v-15.589h-15.59v-18.656h-18.784v18.656h-10.223v15.589h10.223v26.835c0 15.59 10.606 23.001 24.534 23.001 3.834 0 7.412-.639 10.479-1.661ZM319.245 364.025v34.757h-35.524v-34.757h-20.19v89.449h20.19v-37.441h35.524v37.441h20.317v-89.449h-20.317ZM384.376 454.496c19.679 0 33.991-14.056 33.991-33.224 0-19.167-14.312-33.223-33.991-33.223-19.934 0-33.99 14.056-33.99 33.223 0 19.168 14.056 33.224 33.99 33.224Zm-15.334-33.224c0-10.222 6.134-17.25 15.334-17.25 9.073 0 15.206 7.028 15.206 17.25 0 10.223-6.133 17.251-15.206 17.251-9.2 0-15.334-7.028-15.334-17.251ZM454.622 451.429c7.028 0 13.29-2.428 16.612-6.645v6.134c0 7.156-5.75 12.139-14.567 12.139-6.262 0-11.756-3.066-12.651-8.305l-17.123 2.683c2.3 12.139 14.695 20.318 29.774 20.318 19.806 0 32.968-11.629 32.968-28.879v-59.803h-18.529v5.495c-3.45-3.962-9.328-6.517-16.867-6.517-17.89 0-29.135 12.267-29.135 31.69 0 19.423 11.245 31.69 29.518 31.69Zm-11.245-31.69c0-9.584 5.623-15.717 14.312-15.717 8.817 0 14.439 6.133 14.439 15.717s-5.622 15.717-14.439 15.717c-8.689 0-14.312-6.133-14.312-15.717Z"/></g><defs><clipPath id="a"><path fill="#fff" d="M.888.126h497.444v477.626H.888z"/></clipPath></defs></svg>