<svg width="167" height="40" viewBox="0 0 167 40" fill="none" xmlns="http://www.w3.org/2000/svg"><path d="M15.8914 22.2057c-.3685.7371-1.4203.7371-1.7888 0l-.8814-1.7627c-.1407-.2815-.1407-.6129 0-.8944l.8814-1.7628c.3685-.737 1.4203-.737 1.7888 0l.8814 1.7628c.1408.2815.1408.6129 0 .8944l-.8814 1.7627zM15.8914 32.2028c-.3685.737-1.4203.737-1.7888 0l-.8814-1.7628c-.1407-.2815-.1407-.6129 0-.8944l.8814-1.7627c.3685-.7371 1.4203-.7371 1.7888 0l.8814 1.7627c.1408.2815.1408.6129 0 .8944l-.8814 1.7628z" fill="#fff"/><path d="M5 28.4082c0-.8909 1.07714-1.3371 1.70711-.7071l4.58339 4.5834c.63.63.1838 1.7071-.7071 1.7071H6c-.55229 0-1-.4477-1-1v-4.5834zm0-4.8278c0 .2652.10536.5196.29289.7071l9.41121 9.4112c.1875.1875.4419.2929.7071.2929h5.1692c.8909 0 1.3371-1.0771.7071-1.7071L6.70711 17.7041C6.07714 17.0741 5 17.5203 5 18.4112v5.1692zm0-9.997c0 .2652.10536.5196.29289.7071L24.7011 33.6987c.1875.1875.4419.2929.7071.2929h5.1692c.8909 0 1.3371-1.0771.7071-1.7071L6.70711 7.70711C6.07715 7.07715 5 7.52331 5 8.41421v5.16919zm9.997 0c0 .2652.1054.5196.2929.7071l17.994 17.994c.63.63 1.7071.1838 1.7071-.7071v-5.1692c0-.2652-.1054-.5196-.2929-.7071l-17.994-17.994c-.63-.62996-1.7071-.18379-1.7071.70711v5.16919zm11.7041-5.87629c-.63-.62997-1.7071-.1838-1.7071.7071v5.16919c0 .2652.1054.5196.2929.7071l7.997 7.997c.63.63 1.7071.1838 1.7071-.7071v-5.1692c0-.2652-.1054-.5196-.2929-.7071l-7.997-7.99699zM47.5248 28.5308l-9.4127-9.4127c-.63-.63-1.7071-.1838-1.7071.7071v13.1664c0 .5523.4477 1 1 1h14.5806c.5523 0 1-.4477 1-1v-1.199c0-.5523-.4496-.9934-.9973-1.0647-1.6807-.2188-3.2528-.9864-4.4635-2.1971zm-6.3213 2.2618c-.8829 0-1.5995-.7166-1.5995-1.5996 0-.8829.7166-1.5995 1.5995-1.5995.883 0 1.5996.7166 1.5996 1.5995 0 .883-.7166 1.5996-1.5996 1.5996z" fill="#fff"/><path d="M5 32.9916c0 .5523.44772 1 1 1h4.5834c.8909 0 1.3371-1.0771.7071-1.7071l-4.58339-4.5834C6.07714 27.0711 5 27.5173 5 28.4082v4.5834zM14.997 15.997L6.70711 7.70711C6.07714 7.07714 5 7.52331 5 8.41421v5.16919c0 .2652.10536.5196.29289.7071l9.70411 9.7041V15.997zM6.70711 17.7041C6.07714 17.0741 5 17.5203 5 18.4112v5.1692c0 .2652.10536.5196.29289.7071l9.70411 9.7041V25.994l-8.28989-8.2899zM24.994 16.4112c0-.2652-.1053-.5196-.2929-.7071l-7.997-7.99699c-.6299-.62997-1.7071-.1838-1.7071.7071v5.16919c0 .2652.1054.5196.2929.7071l9.7041 9.7041v-7.5834zM14.997 33.9916h5.5834c.8909 0 1.3371-1.0771.7071-1.7071L14.997 25.994v7.9976z" fill="#fff"/><path d="M14.997 15.997v7.5834c0 .2652.1054.5196.2929.7071l9.7041 9.7041v-7.5834c0-.2652-.1053-.5195-.2929-.7071L14.997 15.997zM64.6496 30h4.108v-6.812h3.432c3.77 0 6.188-2.236 6.188-5.694 0-3.458-2.418-5.694-6.188-5.694h-7.54V30zm4.108-10.322v-4.3679h3.016c1.56 0 2.496.8319 2.496 2.1839 0 1.3521-.936 2.184-2.496 2.184h-3.016zM85.8095 30.208c4.004 0 6.916-2.86 6.916-6.76s-2.912-6.76-6.916-6.76c-4.056 0-6.916 2.86-6.916 6.76s2.86 6.76 6.916 6.76zm-3.12-6.76c0-2.08 1.248-3.51 3.12-3.51 1.846 0 3.094 1.43 3.094 3.51s-1.248 3.51-3.094 3.51c-1.872 0-3.12-1.43-3.12-3.51zM99.2995 30.208c3.0675 0 5.1475-1.924 5.1475-4.186 0-5.304-7.0455-3.5879-7.0455-5.668 0-.5719.598-.9359 1.456-.9359.884 0 1.9495.5459 2.2875 1.7419l3.068-1.274c-.598-1.898-2.808-3.198-5.4855-3.198-2.886 0-4.68 1.716-4.68 3.77 0 4.966 6.9415 3.588 6.9415 5.642 0 .728-.676 1.2221-1.6895 1.2221-1.456 0-2.47-1.014-2.782-2.236l-3.068 1.1959c.676 1.976 2.652 3.926 5.85 3.926zM114.33 29.8701l-.26-3.302c-.442.234-1.014.3119-1.482.3119-.936 0-1.56-.6759-1.56-1.846v-4.966h3.172v-3.172h-3.172V13.1h-3.822v3.796h-2.08v3.172h2.08v5.46c0 3.172 2.158 4.68 4.992 4.68.78 0 1.508-.1299 2.132-.3379zM127.656 11.8v7.072h-7.228V11.8h-4.108V30h4.108v-7.618h7.228V30h4.134V11.8h-4.134zM140.908 30.208c4.004 0 6.916-2.86 6.916-6.76s-2.912-6.76-6.916-6.76c-4.056 0-6.916 2.86-6.916 6.76s2.86 6.76 6.916 6.76zm-3.12-6.76c0-2.08 1.248-3.51 3.12-3.51 1.846 0 3.094 1.43 3.094 3.51s-1.248 3.51-3.094 3.51c-1.872 0-3.12-1.43-3.12-3.51zM155.201 29.584c1.43 0 2.704-.4939 3.38-1.352v1.248c0 1.456-1.17 2.4701-2.964 2.4701-1.274 0-2.392-.6241-2.574-1.6901l-3.484.546c.468 2.47 2.99 4.1341 6.058 4.1341 4.03 0 6.708-2.3661 6.708-5.8761V16.896h-3.77v1.118c-.702-.806-1.898-1.326-3.432-1.326-3.64 0-5.928 2.496-5.928 6.448 0 3.952 2.288 6.448 6.006 6.448zm-2.288-6.448c0-1.95 1.144-3.198 2.912-3.198 1.794 0 2.938 1.248 2.938 3.198s-1.144 3.198-2.938 3.198c-1.768 0-2.912-1.248-2.912-3.198z" fill="#fff"/></svg>