<svg width="60" height="40" viewBox="0 0 60 40" fill="none" xmlns="http://www.w3.org/2000/svg"><path d="M15.8914 22.2057c-.3685.7371-1.4203.7371-1.7888 0l-.8814-1.7627c-.1407-.2815-.1407-.6129 0-.8944l.8814-1.7627c.3685-.7371 1.4203-.7371 1.7888 0l.8814 1.7627c.1408.2815.1408.6129 0 .8944l-.8814 1.7627zM15.8914 32.2028c-.3685.737-1.4203.737-1.7888 0l-.8814-1.7628c-.1407-.2815-.1407-.6129 0-.8944l.8814-1.7627c.3685-.7371 1.4203-.7371 1.7888 0l.8814 1.7627c.1408.2815.1408.6129 0 .8944l-.8814 1.7628z" fill="#1D4AFF"/><path d="M5 28.4082c0-.8909 1.07714-1.3371 1.70711-.7071l4.58339 4.5834c.63.63.1838 1.7071-.7071 1.7071H6c-.55229 0-1-.4477-1-1v-4.5834zm0-4.8278c0 .2652.10536.5196.29289.7071l9.41121 9.4112c.1875.1875.4419.2929.7071.2929h5.1692c.8909 0 1.3371-1.0771.7071-1.7071L6.70711 17.7041C6.07714 17.0741 5 17.5203 5 18.4112v5.1692zm0-9.997c0 .2652.10536.5196.29289.7071L24.7011 33.6987c.1875.1875.4419.2929.7071.2929h5.1692c.8909 0 1.3371-1.0771.7071-1.7071L6.70711 7.70711C6.07715 7.07715 5 7.52331 5 8.41421v5.16919zm9.997 0c0 .2652.1054.5196.2929.7071l17.994 17.994c.63.63 1.7071.1838 1.7071-.7071v-5.1692c0-.2652-.1054-.5196-.2929-.7071l-17.994-17.994c-.63-.62996-1.7071-.18379-1.7071.70711v5.16919zm11.7041-5.87629c-.63-.62997-1.7071-.1838-1.7071.7071v5.16919c0 .2652.1054.5196.2929.7071l7.997 7.997c.63.63 1.7071.1838 1.7071-.7071v-5.1692c0-.2652-.1054-.5196-.2929-.7071l-7.997-7.99699z" fill="#F9BD2B"/><path d="M47.5248 28.5308l-9.4127-9.4127c-.63-.63-1.7071-.1838-1.7071.7071v13.1664c0 .5523.4477 1 1 1h14.5806c.5523 0 1-.4477 1-1v-1.199c0-.5523-.4496-.9934-.9973-1.0647-1.6807-.2188-3.2528-.9864-4.4635-2.1971zm-6.3213 2.2618c-.8829 0-1.5995-.7166-1.5995-1.5996 0-.8829.7166-1.5995 1.5995-1.5995.883 0 1.5996.7166 1.5996 1.5995 0 .883-.7166 1.5996-1.5996 1.5996z" fill="#000"/><path d="M5 32.9916c0 .5523.44772 1 1 1h4.5834c.8909 0 1.3371-1.0771.7071-1.7071l-4.58339-4.5834C6.07714 27.0711 5 27.5173 5 28.4082v4.5834zM14.997 15.997L6.70711 7.70711C6.07714 7.07714 5 7.52331 5 8.41421v5.16919c0 .2652.10536.5196.29289.7071l9.70411 9.7041V15.997zM6.70711 17.7041C6.07714 17.0741 5 17.5203 5 18.4112v5.1692c0 .2652.10536.5196.29289.7071l9.70411 9.7041V25.994l-8.28989-8.2899z" fill="#1D4AFF"/><path d="M24.994 16.4112c0-.2652-.1053-.5196-.2929-.7071l-7.997-7.99699c-.6299-.62997-1.7071-.1838-1.7071.7071v5.16919c0 .2652.1054.5196.2929.7071l9.7041 9.7041v-7.5834zM14.997 33.9916h5.5834c.8909 0 1.3371-1.0771.7071-1.7071L14.997 25.994v7.9976zM14.997 15.997v7.5834c0 .2652.1054.5196.2929.7071l9.7041 9.7041v-7.5834c0-.2652-.1053-.5196-.2929-.7071L14.997 15.997z" fill="#F54E00"/></svg>