<svg fill="none" xmlns="http://www.w3.org/2000/svg" viewBox="0 0 220 50"><path d="M37.28 15.863c0 4.187.117 6.012.645 6.524.477.45 1.238.663 3.546.663 1.56 0 2.861-.025 3.583-.863.374-.45.67-1.175.76-1.712.027-.225.078-.375.259-.375.154 0 .18.125.18.438 0 .312-.206 2.024-.438 2.85-.206.65-.297.762-1.87.762-4.254 0-6.2-.162-7.915-.162-.257 0-1.998.075-2.887.075-.335 0-.477-.05-.477-.213 0-.088.051-.175.232-.175.27 0 .631-.05.89-.113.592-.112.747-.75.85-1.575.155-1.187.155-3.45.155-6.187v-5.025c0-4.438 0-5.25-.065-6.163-.051-.975-.283-1.425-1.263-1.625-.232-.062-.748-.087-1.005-.087-.116 0-.233-.05-.233-.163 0-.175.142-.237.465-.237 1.34 0 3.197.087 3.338.087.155 0 2.308-.087 3.197-.087.323 0 .465.062.465.237 0 .113-.117.163-.233.163-.206 0-.618.025-.98.087-.85.138-1.082.625-1.147 1.625-.051.913-.051 1.725-.051 6.163v5.088Zm12.737 5.462c-.528 1.438-1.121 2.525-2.488 2.688-.232.024-.657.062-.85.062-.155 0-.271.05-.271.175 0 .163.18.212.567.212 1.392 0 3.017-.075 3.339-.075.322 0 1.585.075 2.294.075.271 0 .452-.05.452-.212 0-.125-.09-.175-.297-.175h-.296c-.503 0-1.122-.262-1.122-.837 0-.513.142-1.2.413-1.913l1.766-5.037c.064-.15.142-.226.296-.226h6.355c.142 0 .207.05.271.163l2.746 7.012c.168.463 0 .726-.18.776-.117.024-.22.087-.22.2 0 .174.348.174.903.2 2.036.05 4.19.05 4.628.05.322 0 .593-.05.593-.213 0-.15-.116-.175-.297-.175-.296 0-.735-.037-1.173-.175-.632-.175-1.482-.637-2.54-3.175-1.817-4.325-6.445-16.113-6.883-17.2-.361-.875-.477-1.025-.658-1.025-.167 0-.296.175-.644 1.112l-6.704 17.713Zm4.138-6.3c-.09 0-.154-.05-.09-.2l2.591-7.7c.155-.425.31-.425.451 0l2.798 7.7c.038.113.038.2-.116.2h-5.634ZM75 20.587c.065 2.338.361 3.076 1.16 3.313a7.139 7.139 0 0 0 1.483.175c.142 0 .232.05.232.175 0 .163-.168.212-.529.212-1.688 0-2.861-.075-3.132-.075-.27 0-1.508.075-2.836.075-.297 0-.477-.024-.477-.212 0-.125.09-.175.245-.175.232 0 .76-.037 1.212-.175.734-.2.876-1.037.876-3.625l.026-16.338c0-1.125.09-1.437.322-1.437.245 0 .748.625 1.044.912.439.488 4.847 5.075 9.398 9.788 2.913 3.025 6.136 6.5 7.077 7.438L90.78 6.15c-.026-1.85-.232-2.475-1.147-2.713-.529-.112-1.212-.137-1.457-.137-.206 0-.232-.088-.232-.2 0-.163.232-.2.593-.2 1.328 0 2.746.087 3.08.087.323 0 1.303-.087 2.502-.087.335 0 .528.037.528.2 0 .112-.116.2-.322.2-.142 0-.36 0-.709.075-.98.212-1.083.837-1.083 2.55l-.064 16.712c0 1.888-.065 2.038-.271 2.038-.232 0-.58-.325-2.153-1.838-.335-.287-4.576-4.474-7.709-7.724a553.494 553.494 0 0 1-7.709-8.188L75 20.587Zm24.248-4.774c0 2.725 0 4.987-.141 6.187-.116.813-.271 1.45-.864 1.563a4.118 4.118 0 0 1-.89.112c-.167 0-.232.087-.232.175 0 .162.155.225.477.225.89 0 2.746-.087 2.901-.087.296 0 4.009.35 6.549.35 5.027 0 7.683-2 8.946-3.288 1.663-1.675 3.184-4.45 3.184-8.05 0-3.388-1.379-5.75-2.862-7.238-3.506-3.512-8.92-3.262-11.834-3.262-1.779 0-3.635.1-3.983.1-.155 0-2.011-.1-3.339-.1-.335 0-.477.062-.477.237 0 .113.116.163.232.163.27 0 .774.037 1.018.087.967.2 1.2.663 1.264 1.625.051.925.051 1.725.051 6.163v5.037Zm2.488-5.488c0-2.2 0-5.113.026-6.088 0-.3.078-.45.361-.562.232-.113 1.328-.2 1.908-.2 3.519 0 6.884.4 9.668 3.225 1.212 1.225 2.836 3.562 2.836 7.187 0 2.625-.838 5.375-2.372 6.825-1.74 1.675-4.279 2.638-7.025 2.638-3.481 0-4.628-.6-5.015-1.125-.245-.325-.296-1.463-.335-2.175-.026-.538-.052-3.163-.052-6.188v-3.537Zm43.908 10.463c.128 1.024.322 2.625 1.598 3.024.864.263 1.624.263 1.921.263.142 0 .232.025.232.137 0 .175-.258.25-.619.25-.644 0-3.841-.075-4.924-.162-.684-.05-.838-.137-.838-.288 0-.112.064-.162.206-.2.155-.037.181-.512.129-1.024l-1.418-14.726h-.09L134.609 22.9c-.632 1.263-.709 1.513-.98 1.513-.206 0-.348-.288-.915-1.313-.761-1.4-3.313-6.338-3.468-6.625-.258-.5-3.571-7.35-3.893-8.125h-.116l-1.186 13.237c-.026.45-.026.963-.026 1.45 0 .438.322.813.774.888.502.125.941.15 1.121.15.116 0 .232.05.232.137 0 .2-.18.25-.528.25-1.096 0-2.514-.075-2.746-.075-.271 0-1.689.075-2.475.075-.297 0-.516-.05-.516-.25 0-.087.155-.137.297-.137.245 0 .438 0 .889-.087.967-.175 1.057-1.288 1.186-2.375l2.127-18.6c.065-.313.142-.513.322-.513.181 0 .297.112.439.437l9.036 17.925 8.689-17.9c.116-.262.245-.462.451-.462.206 0 .297.225.348.775l1.973 17.513Zm7.502.537c-.541 1.438-1.134 2.525-2.475 2.688-.245.024-.657.062-.864.062-.154 0-.27.05-.27.175 0 .163.18.212.554.212 1.392 0 3.017-.075 3.339-.075.335 0 1.598.075 2.307.075.271 0 .439-.05.439-.212 0-.125-.078-.175-.284-.175h-.309c-.49 0-1.109-.262-1.109-.837 0-.513.142-1.2.412-1.913l1.767-5.037c.064-.15.154-.226.296-.226h6.342c.155 0 .22.05.271.163l2.746 7.012c.18.463 0 .726-.168.776-.116.024-.206.087-.206.2 0 .174.322.174.89.2 2.024.05 4.189.05 4.628.05.322 0 .58-.05.58-.213 0-.15-.103-.175-.284-.175-.296 0-.735-.037-1.186-.175-.619-.175-1.482-.637-2.539-3.175-1.805-4.325-6.433-16.113-6.884-17.2-.348-.875-.464-1.025-.645-1.025-.18 0-.309.175-.644 1.112l-6.704 17.713Zm4.125-6.3c-.09 0-.141-.05-.09-.2l2.604-7.7c.155-.425.297-.425.438 0l2.811 7.7c.025.113.025.2-.116.2h-5.647Zm18.035.775c0 2.738 0 5-.142 6.188-.129.825-.27 1.462-.863 1.575a4.215 4.215 0 0 1-.877.112c-.181 0-.245.087-.245.175 0 .162.155.212.477.212.889 0 2.746-.075 2.784-.075.142 0 1.999.076 3.623.076.322 0 .477-.075.477-.213 0-.088-.065-.175-.232-.175-.271 0-.928-.05-1.341-.113-.877-.112-1.057-.75-1.147-1.575-.155-1.187-.155-3.45-.155-6.187v-.688c0-.137.065-.212.219-.212l3.636.037c.167 0 .257.063.373.176.593.75 1.986 2.65 3.223 4.224 1.676 2.138 2.72 3.538 3.984 4.188.773.413 1.508.538 3.158.538h2.101c.529 0 .722-.05.722-.213 0-.088-.129-.175-.284-.175-.167 0-.58 0-1.147-.088-.735-.112-2.011-.437-3.609-2.05-1.702-1.774-3.713-4.312-6.137-7.312 2.656-2.362 3.571-4.475 3.571-6.588 0-1.975-1.289-3.362-2.037-3.875-1.559-1.087-3.545-1.262-5.401-1.262-.915 0-3.158.087-3.481.087-.154 0-2.011-.087-3.338-.087-.323 0-.477.062-.477.237 0 .113.116.163.232.163.27 0 .76.025 1.005.087.98.2 1.212.65 1.276 1.625.052.913.052 1.725.052 6.163V15.8Zm2.359-11.875c0-.163.09-.288.245-.338.297-.087 1.096-.162 1.972-.162 3.172 0 5.118 2.125 5.118 5.687 0 2.175-.773 3.713-1.805 4.4-.67.463-1.508.538-2.217.538-1.302 0-2.655-.188-3.094-.45-.154-.088-.219-.2-.219-.338V3.925Zm20.845 6.85c0-4.438 0-5.25-.064-6.163-.052-.975-.297-1.425-1.264-1.625-.245-.062-.747-.087-1.018-.087-.116 0-.219-.05-.219-.163 0-.175.141-.237.464-.237 1.328 0 3.068.087 3.248.087.271 0 1.986-.087 2.862-.087.322 0 .477.062.477.237 0 .113-.129.163-.232.163-.206 0-.4.025-.748.087-.799.138-1.018.625-1.082 1.625-.052.913-.052 1.725-.052 6.163v1.713h.116c.49-.538 5.84-5.8 6.897-6.9.838-.838 1.598-1.576 1.598-2.05 0-.35-.142-.526-.386-.613-.142-.05-.271-.113-.271-.225 0-.138.154-.2.361-.2.593 0 1.508.087 2.217.087.142 0 2.101-.087 2.836-.087.322 0 .451.062.451.2 0 .15-.064.2-.309.2-.438 0-1.057.137-1.65.4-1.212.525-1.857 1.225-3.184 2.45-.735.687-5.879 5.537-6.497 6.25.76.825 6.896 6.962 8.121 8.05 2.475 2.212 2.978 2.688 4.396 3.25.76.325 1.624.375 1.83.375.207 0 .387.05.387.175 0 .137-.155.212-.644.212h-1.509c-.838 0-1.392 0-2.049-.05-1.56-.137-2.295-.762-3.571-1.75-1.328-1.05-7.58-7.575-8.998-9.262h-.142v2.8c0 2.738 0 5 .142 6.188.09.825.258 1.462 1.147 1.575.413.062.89.112 1.147.112.181 0 .245.087.245.175 0 .137-.154.212-.477.212-1.443 0-3.158-.075-3.403-.075-.232 0-1.946.076-2.836.076-.322 0-.477-.05-.477-.213 0-.088.065-.175.245-.175.271 0 .619-.05.89-.113.593-.112.734-.75.85-1.575.155-1.187.155-3.45.155-6.187v-5.025Zm-49.553 33.212c0-1.8-.116-2.05-1.045-2.287-.18-.05-.58-.075-.786-.075-.09 0-.18-.038-.18-.125 0-.138.116-.188.373-.188 1.045 0 2.488.063 2.604.063.116 0 1.573-.063 2.269-.063.245 0 .361.05.361.188 0 .087-.09.125-.18.125-.168 0-.31.025-.58.075-.632.1-.8.487-.864 1.262-.039.725-.039 1.388-.039 2.325v2.5c0 .988-.013 1.038-.296 1.2-1.483.75-3.558 1-4.899 1-1.74 0-5.027-.224-7.593-2.387-1.405-1.175-2.746-3.563-2.746-6.35 0-3.563 1.792-6.087 3.855-7.35 2.075-1.237 4.357-1.4 6.149-1.4 1.444 0 3.081.3 3.532.388.477.112 1.276.2 1.856.212.245.025.271.125.271.2 0 .313-.142.95-.142 3.175 0 .35-.051.462-.219.462-.116 0-.129-.124-.154-.325-.026-.312-.142-.937-.49-1.474-.58-.85-2.45-1.813-5.428-1.813-1.456 0-3.184.137-4.937 1.475-1.34 1.025-2.282 3.063-2.282 5.663 0 3.15 1.638 5.425 2.45 6.175 1.817 1.724 3.919 2.387 6.046 2.387.825 0 2.037-.137 2.617-.462.309-.163.477-.4.477-.776v-3.8Zm6.458-1.1c0 2.15 0 3.9-.116 4.838-.09.65-.206 1.137-.67 1.225-.207.05-.49.087-.684.087-.141 0-.206.063-.206.138 0 .138.129.188.387.188.696 0 2.14-.063 2.166-.063.116 0 1.559.063 2.836.063.257 0 .374-.063.374-.188 0-.075-.052-.137-.194-.137a8.86 8.86 0 0 1-1.031-.088c-.696-.088-.825-.575-.903-1.225-.116-.938-.116-2.688-.116-4.837v-.538c0-.113.039-.175.168-.175l2.836.05a.38.38 0 0 1 .297.125c.464.575 1.547 2.075 2.513 3.3 1.315 1.675 2.127 2.763 3.12 3.288.593.312 1.173.424 2.475.424h1.637c.413 0 .555-.05.555-.187 0-.075-.091-.137-.207-.137-.141 0-.464 0-.902-.063-.58-.087-1.56-.325-2.81-1.6-1.354-1.375-2.914-3.375-4.809-5.712 2.076-1.85 2.798-3.5 2.798-5.15 0-1.538-1.019-2.625-1.599-3.038-1.224-.85-2.771-.975-4.228-.975-.709 0-2.462.063-2.707.063-.129 0-1.573-.063-2.617-.063-.258 0-.374.038-.374.175 0 .088.09.138.193.138.207 0 .593.012.774.062.76.15.954.513.992 1.275.052.712.052 1.337.052 4.813v3.925Zm1.843-9.287c0-.125.078-.212.194-.25.219-.075.851-.138 1.534-.138 2.475 0 3.996 1.663 3.996 4.45 0 1.7-.593 2.9-1.405 3.45-.529.35-1.186.413-1.727.413-1.019 0-2.076-.15-2.424-.35a.274.274 0 0 1-.168-.262V33.6Zm21.864 16.387c5.569 0 9.204-4.125 9.204-9.125 0-5.187-3.88-8.362-9.062-8.362-6.382 0-9.102 5.112-9.102 8.725 0 4.012 2.63 8.762 8.96 8.762Zm-.013-16.724c3.635 0 7 2.875 7 8.237 0 6.487-4.293 7.638-6.368 7.638-4.151 0-7.387-3.35-7.387-8.538 0-4.888 2.888-7.337 6.755-7.337Zm11.112 5.7c0-3.476 0-4.1-.052-4.813-.051-.762-.232-1.125-.992-1.275-.181-.05-.58-.063-.787-.063-.09 0-.18-.05-.18-.137 0-.137.116-.175.361-.175 1.044 0 2.449.063 2.656.063.219 0 1.598-.063 2.294-.063.258 0 .348.038.348.175 0 .088-.077.138-.167.138a2.97 2.97 0 0 0-.58.062c-.619.087-.813.487-.851 1.275-.052.712-.052 1.337-.052 4.813v3.124c0 3.213.735 4.588 1.728 5.5 1.134 1.038 2.178 1.225 3.493 1.225 1.405 0 2.785-.637 3.622-1.6 1.07-1.275 1.341-3.162 1.341-5.462v-2.788c0-3.475 0-4.1-.039-4.812-.064-.762-.232-1.125-1.005-1.275-.181-.05-.567-.063-.786-.063-.091 0-.181-.05-.181-.137 0-.137.116-.175.374-.175 1.031 0 2.307.063 2.449.063.155 0 1.238-.063 1.934-.063.258 0 .374.038.374.175 0 .088-.09.138-.194.138-.154 0-.296 0-.567.062-.631.1-.812.487-.864 1.275-.051.712-.051 1.337-.051 4.813v2.387c0 2.413-.271 5.087-2.114 6.675-1.663 1.413-3.391 1.638-4.757 1.638-.773 0-3.107-.088-4.757-1.588-1.134-1.038-1.998-2.6-1.998-5.85v-3.263Zm19.337 0c0-3.476 0-4.1-.052-4.813-.039-.762-.232-1.125-.992-1.275-.181-.05-.568-.063-.787-.063-.09 0-.18-.05-.18-.137 0-.137.116-.175.374-.175 1.031 0 2.423.063 2.604.063.502 0 1.856-.063 2.913-.063 2.888 0 3.919.938 4.293 1.263.502.474 1.16 1.474 1.16 2.662 0 3.163-2.411 5.313-5.685 5.313-.116 0-.361 0-.477-.026-.116 0-.258-.05-.258-.162 0-.175.142-.2.619-.2 2.243 0 3.996-1.575 3.996-3.638 0-.725-.077-2.225-1.289-3.437-1.225-1.2-2.63-1.112-3.158-1.112-.4 0-.8.05-1.006.137-.142.05-.18.2-.18.425v9.163c0 2.15 0 3.9.116 4.837.064.65.206 1.137.902 1.225.322.05.825.087 1.031.087.142 0 .194.063.194.138 0 .125-.116.188-.374.188-1.263 0-2.72-.063-2.836-.063-.077 0-1.534.063-2.217.063-.258 0-.374-.05-.374-.188 0-.075.051-.137.18-.137.206 0 .49-.038.696-.088.464-.088.58-.575.671-1.225.116-.938.116-2.688.116-4.837v-3.925ZM23.578 19.337c0 .013 0 .026-.013.026h-9.037v3.5h6.06c-1.819 1.35-3.894 1.825-6.37 1.825-4.356 0-8.108-2.55-9.77-6.175h17.26V18.5h6.098c.361-1.113.58-2.288.645-3.5H24.88v.012l-21.31.013V15H0c.335 7.313 6.574 13.125 14.219 13.125 6.188 0 11.267-3.462 13.24-8.788h-3.881Zm.438-9.687-19.581.012c1.637-3.65 5.4-6.212 9.784-6.212V0C6.574 0 .349 5.825 0 13.125h28.438a12.464 12.464 0 0 0-.619-3.475h-3.803Z" fill="#fff"/></svg>