<svg fill="none" viewBox="0 0 393 181"><path fill="#D07EF7" fill-rule="evenodd" d="M31.23 136.573c.63.409 1.06 1.085 1.06 1.837V141H0v77h77v-32.29h-4.54c-.667 0-1.28.341-1.703.858a11.156 11.156 0 01-8.66 4.109c-6.173 0-11.177-5.004-11.177-11.177s5.004-11.177 11.177-11.177c3.946 0 7.414 2.044 9.403 5.132.412.638 1.093 1.077 1.852 1.077H77V141H44.71v-3.482c0-.666.338-1.278.854-1.698 2.518-2.05 4.113-5.089 4.113-8.481 0-6.173-5.282-11.178-11.798-11.178s-11.798 5.005-11.798 11.178c0 3.836 2.04 7.221 5.149 9.234zm230.488 10.766c.618-.414 1.04-1.085 1.04-1.829V141h-34.242v33.532h3.648c.76 0 1.441-.439 1.852-1.077a11.167 11.167 0 019.403-5.132c6.173 0 11.178 5.004 11.178 11.177s-5.005 11.177-11.178 11.177c-3.492 0-6.61-1.601-8.66-4.109-.422-.517-1.036-.858-1.703-.858h-4.54V218h77v-77h-31.758v4.965c0 .696.371 1.332.926 1.753a11.16 11.16 0 014.429 8.911c0 6.173-5.004 11.178-11.177 11.178s-11.178-5.005-11.178-11.178c0-3.872 1.969-7.284 4.96-9.29z" clip-rule="evenodd"/><path fill="#6E2F8F" fill-rule="evenodd" d="M44.834 135.997c-.51.423-.845 1.033-.845 1.695V141h31.77v-33.532h-3.561c-.764 0-1.448.444-1.858 1.089-1.958 3.081-5.367 5.12-9.244 5.12-6.074 0-10.997-5.004-10.997-11.177s4.923-11.177 10.997-11.177c3.43 0 6.493 1.596 8.51 4.097.422.524 1.04.87 1.713.87h4.44V64H0v77h32.992v-2.415c0-.755-.434-1.432-1.065-1.846a11.214 11.214 0 01-5.045-9.4c0-6.173 4.923-11.178 10.997-11.178s10.997 5.005 10.997 11.178c0 3.491-1.575 6.609-4.042 8.658z" clip-rule="evenodd"/><path fill="#9548BD" fill-rule="evenodd" d="M70.757 186.568c.422-.517 1.036-.858 1.703-.858h3.298V218h77v-32.29h-4.54c-.667 0-1.281.341-1.703.858a11.157 11.157 0 01-8.66 4.109c-6.173 0-11.178-5.004-11.178-11.177s5.005-11.177 11.178-11.177c3.946 0 7.414 2.044 9.403 5.132.412.638 1.093 1.077 1.852 1.077h3.648V141h-32.29v4.54c0 .667.341 1.281.858 1.703a11.158 11.158 0 014.11 8.66c0 6.173-5.005 11.178-11.178 11.178-6.173 0-11.177-5.005-11.177-11.178 0-3.946 2.044-7.414 5.132-9.403.638-.411 1.077-1.092 1.077-1.852V141H75.758v33.532h-2.406c-.76 0-1.44-.439-1.852-1.077a11.168 11.168 0 00-9.403-5.132c-6.173 0-11.178 5.004-11.178 11.177s5.005 11.177 11.178 11.177c3.492 0 6.61-1.601 8.66-4.109zM234.76 95.432c-.422.517-1.036.858-1.703.858h-3.299V64h-77v33.532h-3.648c-.759 0-1.44-.439-1.851-1.077a11.17 11.17 0 00-9.404-5.132c-6.173 0-11.177 5.004-11.177 11.177s5.004 11.177 11.177 11.177c3.492 0 6.61-1.601 8.66-4.109.422-.517 1.036-.858 1.703-.858h4.54V141h32.291v3.648c0 .759-.439 1.441-1.077 1.852a11.168 11.168 0 00-5.133 9.403c0 6.173 5.004 11.178 11.178 11.178 6.173 0 11.177-5.005 11.177-11.178 0-3.492-1.601-6.61-4.11-8.66-.517-.422-.858-1.036-.858-1.703V141h33.532v-33.532h2.407c.759 0 1.44.439 1.851 1.077a11.168 11.168 0 009.404 5.132c6.173 0 11.177-5.004 11.177-11.177s-5.004-11.177-11.177-11.177c-3.492 0-6.61 1.601-8.66 4.11z" clip-rule="evenodd"/><path fill="#DCE94E" fill-rule="evenodd" d="M318.134 83.68l-29.51-15.753 15.792-29.581 3.218 1.718c.67.357 1.064 1.065 1.126 1.822a11.17 11.17 0 005.878 8.956c5.446 2.907 12.217.85 15.125-4.596 2.907-5.446.849-12.217-4.597-15.125a11.155 11.155 0 00-9.575-.452c-.616.257-1.318.269-1.906-.046l-4.005-2.138L324.887 0l67.926 36.263-36.262 67.926-28.557-15.245-2.48 4.646c-.314.589-.302 1.29-.045 1.907a11.154 11.154 0 01-.453 9.575c-2.907 5.445-9.678 7.503-15.124 4.596s-7.503-9.679-4.596-15.124a11.167 11.167 0 018.956-5.879c.757-.062 1.465-.456 1.822-1.126l2.06-3.859z" clip-rule="evenodd"/><path fill="#6E2F8F" fill-rule="evenodd" d="M148.218 185.71c-.667 0-1.281.341-1.703.858a11.157 11.157 0 01-8.66 4.109c-6.173 0-11.177-5.004-11.177-11.177s5.004-11.177 11.177-11.177c3.946 0 7.415 2.044 9.404 5.132.411.638 1.092 1.077 1.851 1.077h2.406V141h33.533v3.648c0 .759-.439 1.441-1.078 1.852a11.169 11.169 0 00-5.132 9.403c0 6.173 5.004 11.178 11.177 11.178s11.178-5.005 11.178-11.178c0-3.492-1.602-6.61-4.11-8.659-.517-.423-.858-1.036-.858-1.704V141h32.29v33.532h3.649c.759 0 1.44-.439 1.851-1.077a11.168 11.168 0 019.404-5.132c6.173 0 11.177 5.004 11.177 11.177s-5.004 11.177-11.177 11.177c-3.492 0-6.61-1.601-8.66-4.109-.422-.517-1.036-.858-1.703-.858h-4.541V218h-77v-32.29h-3.298z" clip-rule="evenodd"/><path fill="#D07EF7" fill-rule="evenodd" d="M148.218 108.71c-.667 0-1.281.341-1.703.858a11.157 11.157 0 01-8.66 4.109c-6.173 0-11.177-5.004-11.177-11.177s5.004-11.177 11.177-11.177c3.946 0 7.414 2.044 9.403 5.132.412.638 1.093 1.077 1.852 1.077h3.648V64h-77v32.29h-4.54c-.667 0-1.28-.34-1.703-.858a11.155 11.155 0 00-8.66-4.11c-6.173 0-11.177 5.005-11.177 11.178 0 6.173 5.004 11.177 11.177 11.177a11.17 11.17 0 009.404-5.132c.41-.638 1.092-1.077 1.851-1.077h3.648V141h32.808v3.499c0 .764-.443 1.449-1.092 1.853-3.387 2.111-5.635 5.83-5.635 10.064 0 6.576 5.421 11.907 12.109 11.907 6.687 0 12.109-5.331 12.109-11.907 0-3.745-1.759-7.087-4.509-9.269-.527-.419-.873-1.037-.873-1.71V141h32.083v-32.29h-4.54z" clip-rule="evenodd"/></svg>