<svg fill="none" xmlns="http://www.w3.org/2000/svg" viewBox="0 0 410 399"><path fill-rule="evenodd" clip-rule="evenodd" d="M210.09 100.214a.5.5 0 01.696-.124l77.94 54.458 44.429 14.477a.498.498 0 01.215.138l25.392 27.883 54.845 11.966a.5.5 0 01-.214.977l-55-12a.512.512 0 01-.263-.152l-25.411-27.903-44.374-14.459a.486.486 0 01-.131-.065l-78-54.5a.5.5 0 01-.124-.696zm-5.687 1.99a.5.5 0 01-.106.699l-110 81a.495.495 0 01-.257.095l-55.36 4.489-39.886 28.918a.5.5 0 01-.587-.81l40-29a.493.493 0 01.253-.093l55.358-4.489 109.886-80.916a.5.5 0 01.699.107z" fill="url(#paint0_linear)"/><path fill-rule="evenodd" clip-rule="evenodd" d="M207.183 103a2.614 2.614 0 100-5.227 2.614 2.614 0 000 5.227zm0 1a3.614 3.614 0 100-7.228 3.614 3.614 0 000 7.228z" fill="#FFAC6C"/><circle cx="161.5" cy="134" r="2" fill="#E19E7E"/><circle cx="94.5" cy="183" r="2" fill="#C08B88"/><circle cx="38.5" cy="188" r="2" fill="#936B87"/><circle cx="288.5" cy="155" r="2" fill="#BE7769"/><circle cx="333.5" cy="169" r="2" fill="#955666"/><circle cx="358.5" cy="197" r="2" fill="#653162"/><path d="M411.5 126.5H-3m426 30H-3M450.5 187H-3m466 30.5H-3M463 248H-3m453.5 30H-3m453.5 26H-3m447 30.5H-3M444 366H-3m447 32H-3M444 96H-3m447-31H-3m447-33H-3M444 0H-3" stroke="url(#paint1_linear)" stroke-opacity=".4" stroke-width=".5" stroke-linecap="round" stroke-linejoin="round"/><path fill-rule="evenodd" clip-rule="evenodd" d="M225.975 31a4.337 4.337 0 014.337 4.337v36.138a4.337 4.337 0 01-4.337 4.337H212.02a4.337 4.337 0 00-4.337 4.337v16.985a.5.5 0 01-1 0V80.148a4.337 4.337 0 00-4.337-4.336h-12.509a4.337 4.337 0 01-4.337-4.337V35.337A4.337 4.337 0 01189.837 31h36.138zm-27.321 11h19.692a2.154 2.154 0 012.154 2.153v12.308a2.166 2.166 0 01-2.154 2.154h-10.658l-3.693 4.443c-.4.492-1.002.777-1.637.775a2.01 2.01 0 01-.75-.135 2.129 2.129 0 01-1.416-2.018v-3.065h-1.538a2.166 2.166 0 01-2.154-2.154V44.153c0-1.19.965-2.153 2.154-2.153zm3.786 8.778a1.234 1.234 0 002.008.4 1.233 1.233 0 00-.4-2.008 1.23 1.23 0 00-1.608 1.608zm4.923 0a1.23 1.23 0 101.608-1.608 1.23 1.23 0 00-1.608 1.608zm4.923 0c.19.46.639.76 1.137.76a1.228 1.228 0 001.23-1.23 1.231 1.231 0 10-2.367.47z" fill="#FFAC6C"/><defs><linearGradient id="paint0_linear" x1="414.5" y1="26" x2="409.265" y2="221.5" gradientUnits="userSpaceOnUse"><stop stop-color="#FFAC6C" stop-opacity="0"/><stop offset=".494" stop-color="#FFAC6C"/><stop offset="1" stop-color="#FFAC6C" stop-opacity="0"/></linearGradient><linearGradient id="paint1_linear" x1="-2.5" y1="217.5" x2="267.5" y2="216.5" gradientUnits="userSpaceOnUse"><stop stop-color="#fff"/><stop offset="1" stop-color="#fff" stop-opacity="0"/></linearGradient></defs></svg>