
<svg width="23px" height="23px" viewBox="0 0 23 23" version="1.1" xmlns="http://www.w3.org/2000/svg" xmlns:xlink="http://www.w3.org/1999/xlink">
    <g id="Page-1" stroke="none" stroke-width="1" fill="none" fill-rule="evenodd">
        <g id="funnels" transform="translate(0.599609, 0.181885)" fill="#000000" fill-rule="nonzero">
            <path d="M5.339051,20.021415 C5.339051,21.495815 4.144011,22.690915 2.669521,22.690915 C1.195041,22.690915 8.8817842e-16,21.495815 8.8817842e-16,20.021415 L8.8817842e-16,2.669515 C8.8817842e-16,1.195035 1.195041,0 2.669521,0 C4.144011,0 5.339051,1.195035 5.339051,2.669515 L5.339051,20.021415 Z" id="Path"></path>
            <path d="M13.678891,20.021415 C13.678891,21.495915 12.483891,22.690915 11.009391,22.690915 C9.534891,22.690915 8.339841,21.495915 8.339841,20.021415 L8.339841,9.343345 C8.339841,7.868865 9.534891,6.673825 11.009391,6.673825 C12.483891,6.673825 13.678891,7.868865 13.678891,9.343345 L13.678891,20.021415 Z" id="Path" opacity="0.75"></path>
            <path d="M22.016791,20.021315 C22.016791,21.495815 20.821691,22.690815 19.347291,22.690815 C17.872791,22.690815 16.677691,21.495815 16.677691,20.021315 L16.677691,13.347515 C16.677691,11.873015 17.872791,10.678015 19.347291,10.678015 C20.821691,10.678015 22.016791,11.873015 22.016791,13.347515 L22.016791,20.021315 Z" id="Path" opacity="0.5"></path>
        </g>
    </g>
</svg>