
<svg width="21px" height="21px" viewBox="0 0 21 21" version="1.1" xmlns="http://www.w3.org/2000/svg" xmlns:xlink="http://www.w3.org/1999/xlink">
    <g id="Page-1" stroke="none" stroke-width="1" fill="none" fill-rule="evenodd">
        <g id="Group" fill="#000000" fill-rule="nonzero">
            <path d="M0,6.843 L0,0.455 C0,0.204 0.204,1.33226763e-15 0.455,1.33226763e-15 L6.843,1.33226763e-15 C7.0862746,0.0114017555 7.2776517,0.211958358 7.2776517,0.4555 C7.2776517,0.699041642 7.0862746,0.899598244 6.843,0.911 L0.911,0.911 L0.911,6.841 C0.900144466,7.08430867 0.700004408,7.2761394 0.456454279,7.2766752 C0.21290415,7.27720877 0.0119237393,7.08625866 0,6.843 L0,6.843 Z M19.616,0 L13.229,0 C12.9857254,0.0114017555 12.7943483,0.211958358 12.7943483,0.4555 C12.7943483,0.699041642 12.9857254,0.899598244 13.229,0.911 L19.159,0.911 L19.159,6.841 C19.159,7.09284185 19.3631582,7.297 19.615,7.297 C19.8668418,7.297 20.071,7.09284185 20.071,6.841 L20.072,0.455 C20.0714486,0.203548767 19.8674518,0 19.616,0 Z M19.616,12.773 C19.3641582,12.773 19.16,12.9771582 19.16,13.229 L19.16,19.159 L13.23,19.16 C12.9781582,19.16 12.774,19.3641582 12.774,19.616 C12.774,19.8678418 12.9781582,20.072 13.23,20.072 L19.616,20.072 C19.8678418,20.072 20.072,19.8678418 20.072,19.616 L20.072,13.229 C20.072,12.9771582 19.8678418,12.773 19.616,12.773 L19.616,12.773 Z M6.843,19.16 L0.911,19.16 L0.911,13.23 C0.899598244,12.9867254 0.699041642,12.7953483 0.4555,12.7953483 C0.211958358,12.7953483 0.0114017555,12.9867254 0,13.23 L0,19.616 C0,19.868 0.204,20.072 0.455,20.072 L6.843,20.072 C7.09484185,20.072 7.299,19.8678418 7.299,19.616 C7.299,19.3641582 7.09484185,19.16 6.843,19.16 L6.843,19.16 Z" id="Shape" opacity="0.5"></path>
            <path d="M14.142,10.035 C14.139245,7.76846096 12.302539,5.931755 10.036,5.929 C7.76946096,5.931755 5.932755,7.76846096 5.93,10.035 C5.932755,12.301539 7.76946096,14.138245 10.036,14.141 C12.302539,14.138245 14.139245,12.301539 14.142,10.035 L14.142,10.035 Z" id="Path"></path>
        </g>
    </g>
</svg>