<svg width="16" height="16" viewBox="0 0 16 16" fill="none" xmlns="http://www.w3.org/2000/svg">
<path d="M3.0509 1.9359e-05C1.36835 1.9359e-05 0 1.36841 0 3.05092C0 3.59842 0.157078 4.18747 0.46822 4.80295C0.711387 5.28777 1.05122 5.79073 1.47638 6.29822C2.19533 7.15762 2.90368 7.72702 2.9339 7.75044L3.05322 7.84483L3.17027 7.75044C3.20048 7.72627 3.90884 7.15385 4.62779 6.29292C5.0522 5.78544 5.39052 5.28097 5.63369 4.79765C5.94332 4.18217 6.10191 3.59539 6.10191 3.05167C6.10191 1.36837 4.73276 0 3.05101 0L3.0509 1.9359e-05ZM3.0509 3.91335C2.57514 3.91335 2.18849 3.5267 2.18849 3.05094C2.18849 2.57518 2.57514 2.18852 3.0509 2.18852C3.52666 2.18852 3.91331 2.57518 3.91331 3.05094C3.91331 3.5267 3.52666 3.91335 3.0509 3.91335Z" fill="black"/>
<path d="M14.5961 5.92823C13.7805 5.11262 12.6968 4.66479 11.5452 4.66479C10.3928 4.66479 9.30766 5.11413 8.49433 5.92823C7.67872 6.74384 7.2309 7.82752 7.2309 8.97913C7.2309 9.75545 7.45367 10.5914 7.89546 11.4698C8.24436 12.163 8.72994 12.882 9.33785 13.6084C10.371 14.8408 11.386 15.6565 11.4281 15.6911L11.5474 15.7855L11.6645 15.6911C11.7075 15.6571 12.7218 14.8362 13.7547 13.6008C14.3627 12.8721 14.8482 12.1524 15.1971 11.4599C15.6389 10.5839 15.8617 9.7494 15.8617 8.97913C15.8602 7.82672 15.4116 6.74388 14.596 5.92823H14.5961ZM11.5452 10.1814C10.8822 10.1814 10.3445 9.64375 10.3445 8.98069C10.3445 8.31764 10.8822 7.77996 11.5452 7.77996C12.2083 7.77996 12.746 8.31764 12.746 8.98069C12.746 9.64149 12.2075 10.1814 11.5452 10.1814Z" fill="black"/>
<path d="M4.38433 8.08417C4.29975 8.06529 4.21215 8.05547 4.12378 8.05547H3.80661V7.30029H4.12378C4.26576 7.30029 4.40697 7.3154 4.54292 7.3456L4.38433 8.08417Z" fill="black"/>
<path d="M7.44419 15.2441V15.9993H8.69629V15.2441H7.44419ZM5.11981 15.2441V15.9993H6.37192V15.2441H5.11981ZM3.18499 15.2441C3.07549 15.2441 2.9675 15.2351 2.86177 15.2177L2.73943 15.9638C2.88669 15.988 3.03545 16.0001 3.18499 16.0001H4.04968V15.2449L3.18499 15.2441ZM1.37405 14.0759L0.686832 14.387C0.886965 14.8288 1.20188 15.2117 1.59911 15.4934L2.03711 14.8779C1.74787 14.6747 1.51905 14.3968 1.37405 14.0759V14.0759ZM0.859009 11.8066C0.602251 12.2182 0.458763 12.6917 0.443665 13.1795L1.19884 13.2007C1.2079 12.8472 1.31212 12.5044 1.49941 12.2076L0.859009 11.8066ZM3.102 10.519C2.61491 10.5341 2.14139 10.6776 1.72906 10.9343L2.13081 11.5747C2.42912 11.3874 2.77272 11.284 3.12388 11.2742L3.102 10.519ZM5.01791 10.1301C4.79514 10.368 4.49306 10.5054 4.17059 10.5167L4.19929 11.2719C4.72188 11.2508 5.20974 11.0302 5.56768 10.6466L5.01791 10.1301ZM5.65226 8.02319L5.07077 8.505C5.25201 8.724 5.35169 9.00342 5.35169 9.28889C5.35169 9.32514 5.35018 9.36063 5.34791 9.39612L6.09932 9.46032C6.10536 9.40368 6.10687 9.34553 6.10687 9.28813C6.10763 8.82747 5.94451 8.37814 5.65224 8.02319H5.65226Z" fill="black"/>
<path d="M9.7702 15.2434H10.431V15.9986H9.7702V15.2434Z" fill="black"/>
</svg>
