<svg fill="none" xmlns="http://www.w3.org/2000/svg" viewBox="0 0 100 100"><g clip-path="url(#clip0)" fill="#A970DC"><path d="M0 80.359a8.404 8.404 0 008.454 8.454h83.092A8.404 8.404 0 00100 80.358l-.005-49.757H.001V80.36zM41.303 56.08h24.394a2.42 2.42 0 012.416 2.416 2.42 2.42 0 01-2.416 2.415H41.303a2.42 2.42 0 01-2.416-2.415 2.423 2.423 0 012.416-2.416zm-29.108-11.35c-.967-.967-.967-2.416 0-3.383.967-.967 2.415-.967 3.382 0l15.46 15.46c.481.481.727 1.085.727 1.689 0 .604-.241 1.208-.727 1.689l-15.46 15.46c-.481.48-1.085.726-1.689.726-.603 0-1.207-.24-1.688-.726-.968-.968-.968-2.416 0-3.383l13.643-13.765L12.195 44.73zM91.54 12H8.454A8.404 8.404 0 000 20.454v5.312h100v-5.312C99.994 15.864 96.13 12 91.54 12zM7.365 23.11a4.071 4.071 0 01-4.105-4.104A4.071 4.071 0 017.365 14.9a4.072 4.072 0 014.104 4.105c.005 2.292-1.807 4.104-4.104 4.104zm12.44 0a4.071 4.071 0 01-4.104-4.104 4.072 4.072 0 014.104-4.105 4.071 4.071 0 014.104 4.105 4.071 4.071 0 01-4.104 4.104zm12.558 0a4.071 4.071 0 01-4.104-4.104 4.072 4.072 0 014.104-4.105 4.072 4.072 0 014.104 4.105c.005 2.292-1.807 4.104-4.104 4.104z"/></g><defs><clipPath id="clip0"><path fill="A970DC" d="M0 0h100v100H0z"/></clipPath></defs></svg>