<svg fill="none" viewBox="0 0 18 18"><g clip-path="url(#clip0)"><path fill="#A970DC" d="M11.407 12.534s-2.943-.756-3.358-1.579c-.19-.377-.004-.858.186-1.19.087-.116.171-.24.253-.369.49-.785.865-1.819.904-3.095.057-1.922-1.43-3.481-3.197-3.487h-.007C4.422 2.82 2.934 4.38 2.992 6.301c.038 1.276.413 2.31.904 3.095.082.13.167.253.252.37.19.331.376.812.187 1.19-.415.822-3.358 1.578-3.358 1.578A1.43 1.43 0 000 13.889v1.298h12.382v-1.298a1.43 1.43 0 00-.976-1.355zm5.885.722c-.033-.011-2.143-.549-2.444-1.148-.14-.273-.003-.624.135-.866a4.1 4.1 0 00.183-.267c.357-.571.63-1.323.658-2.251.042-1.397-1.04-2.531-2.326-2.535h-.005c-1.286.004-2.37 1.138-2.327 2.535.028.928.3 1.68.659 2.25.059.095.12.184.183.268l.029.053a2.803 2.803 0 011.73 2.593v1.297H18v-.944a1.04 1.04 0 00-.71-.985z"/></g><defs><clipPath id="clip0"><path fill="#fff" d="M0 0h18v18H0z"/></clipPath></defs></svg>