<svg xmlns="http://www.w3.org/2000/svg" xmlns:xlink="http://www.w3.org/1999/xlink" width="100" height="100" x="0" y="0" fill="#A970DC" enable-background="new 0 0 32 32" version="1.1" viewBox="0 0 32 32" xml:space="preserve"><path d="M28.806,14.145c-0.423-1.578-2.045-2.516-3.625-2.091c-1.039,0.277-1.79,1.079-2.069,2.044c0,0-0.267,0.332-0.718,0.623 l-1.57-5.856c-0.282-1.055-1.366-1.681-2.419-1.397l-5.857,1.568C12.575,8.499,12.728,8.1,12.728,8.1 c0.695-0.723,1.016-1.773,0.738-2.813c-0.424-1.579-2.047-2.515-3.626-2.093C8.26,3.617,7.324,5.239,7.747,6.818 c0.277,1.039,1.08,1.791,2.044,2.07c0,0,0.333,0.267,0.626,0.717l-5.858,1.57c-1.054,0.283-1.681,1.367-1.399,2.421l1.591,5.937 c0.395-0.262,0.64-0.551,0.64-0.551c0.254-0.879,0.938-1.611,1.886-1.863c1.439-0.387,2.919,0.467,3.305,1.906 c0.386,1.44-0.469,2.921-1.908,3.307c-0.947,0.252-1.906-0.037-2.565-0.672c0,0-0.355-0.129-0.829-0.158l1.591,5.939 c0.282,1.055,1.368,1.682,2.422,1.398l5.937-1.59c-0.263-0.396-0.552-0.639-0.552-0.639c-0.879-0.256-1.61-0.94-1.864-1.887 c-0.386-1.441,0.468-2.92,1.908-3.306c1.44-0.386,2.919,0.468,3.306,1.907c0.253,0.947-0.038,1.906-0.672,2.567 c0,0-0.128,0.354-0.158,0.829l5.94-1.594c1.054-0.281,1.68-1.365,1.398-2.42l-1.569-5.856c0.536,0.027,0.934,0.183,0.934,0.183 c0.724,0.694,1.774,1.015,2.814,0.736C28.292,17.348,29.229,15.725,28.806,14.145z"/></svg>