<svg fill="#A970DC" viewBox="0 0 32 32"><path d="M28.806 14.145a2.957 2.957 0 00-3.625-2.091 2.946 2.946 0 00-2.069 2.044s-.267.332-.718.623l-1.57-5.856a1.973 1.973 0 00-2.419-1.397l-5.857 1.568c.027-.537.18-.936.18-.936a2.95 2.95 0 00.738-2.813A2.962 2.962 0 009.84 3.194a2.958 2.958 0 00-2.093 3.624 2.95 2.95 0 002.044 2.07s.333.267.626.717l-5.858 1.57a1.979 1.979 0 00-1.399 2.421l1.591 5.937c.395-.262.64-.551.64-.551a2.683 2.683 0 011.886-1.863 2.697 2.697 0 013.305 1.906 2.7 2.7 0 01-1.908 3.307 2.691 2.691 0 01-2.565-.672s-.355-.129-.829-.158l1.591 5.939a1.976 1.976 0 002.422 1.398l5.937-1.59c-.263-.396-.552-.639-.552-.639a2.695 2.695 0 01-1.864-1.887 2.698 2.698 0 115.214-1.399 2.696 2.696 0 01-.672 2.567s-.128.354-.158.829l5.94-1.594a1.976 1.976 0 001.398-2.42l-1.569-5.856c.536.027.934.183.934.183a2.952 2.952 0 002.814.736 2.958 2.958 0 002.091-3.624z"/></svg>