<svg width="100" height="100" viewBox="0 0 100 100" fill="none" xmlns="http://www.w3.org/2000/svg">
<g clip-path="url(#clip0)">
<path fill-rule="evenodd" clip-rule="evenodd" d="M33.332 42.949V49.9998H16.668C13.5938 49.9998 11.1094 52.4842 11.1094 55.5545C11.1094 58.6287 13.5938 61.1092 16.668 61.1092H33.332V68.16C33.332 71.5155 38.2617 73.4217 40.8984 71.3827L59.3904 58.7777C61.4881 57.1566 61.7732 53.9574 59.6716 52.3324L40.7616 39.7274C38.1171 37.6883 33.3319 39.5946 33.3319 42.9501L33.332 42.949ZM85.6329 18.9661L69.9219 3.25512C67.8399 1.17312 65.0117 0.0012207 62.0625 0.0012207H25.0005C17.3286 0.0012207 11.1095 6.21602 11.1095 13.8922V33.3332C11.1095 36.4074 13.6017 38.8918 16.6681 38.8918C19.7345 38.8918 22.2228 36.4074 22.2228 33.3332V13.8922C22.2228 12.357 23.465 11.111 25.0001 11.111H55.5551V27.779C55.5551 30.8337 58.0551 33.3337 61.1098 33.3337H77.7778V86.1107C77.7778 87.6459 76.5356 88.8919 75.0005 88.8919H25.0005C23.4653 88.8919 22.2232 87.6458 22.2232 86.1107V77.7787C22.2232 74.7084 19.7349 72.224 16.6685 72.224C13.6021 72.224 11.1099 74.7084 11.1099 77.7787V86.1107C11.1099 93.7865 17.3287 100.002 25.0009 100.002H75.0009C82.6728 100.002 88.8919 93.7869 88.8919 86.1107V26.8217C88.8919 23.8803 87.7161 21.0522 85.6341 18.9662" fill="black"/>
</g>
<defs>
<clipPath id="clip0">
<rect width="100" height="100" fill="white"/>
</clipPath>
</defs>
</svg>
