<svg xmlns="http://www.w3.org/2000/svg" xmlns:xlink="http://www.w3.org/1999/xlink" width="100" height="100" x="0" y="0" fill="#A970DC" version="1.1" viewBox="0 0 20 20"><title>Import</title><desc>Created with Sketch.</desc><g fill="none" fill-rule="evenodd" stroke="none" stroke-width="1"><g fill="#A970DC"><g><path d="M32,17.0024554 C32,17.553384 32.4446309,18 33.0008717,18 L46.9991283,18 C47.5518945,18 48,17.5536886 48,17.0024554 L48,9.99754465 C48,9.44661595 47.5561352,9 47,9 C46.4477153,9 46,9.43788135 46,10.0029293 L46,16 L34,16 L34,10.0029293 C34,9.44902676 33.5561352,9 33,9 C32.4477153,9 32,9.4463114 32,9.99754465 L32,17.0024554 Z M40,2 C39.4477153,2 39,2.43788135 39,3.00292933 L39,9 L36.9989566,9 C36.4472481,9 36.3138733,9.31387329 36.7059121,9.70591205 L40,13 L43.2940879,9.70591205 C43.6839524,9.31604759 43.5573397,9 43.0010434,9 L41,9 L41,3.00292933 C41,2.44902676 40.5561352,2 40,2 Z" transform="translate(-50.000000, -50.000000) translate(20.000000, 50.000000)"/></g></g></g></svg>