<svg xmlns="http://www.w3.org/2000/svg" xmlns:xlink="http://www.w3.org/1999/xlink" width="100" height="100" x="0" y="0" fill="#A970DC" enable-background="new 0 0 512 512" version="1.1" viewBox="0 0 512 512" xml:space="preserve"><path d="M433.585,182.332c-16.937-59.436-70.762-102.872-134.556-102.872c-48.092,0-90.527,24.687-115.76,62.373 c-12.859-10.718-29.265-17.156-47.17-17.156c-41.153,0-74.527,33.999-74.527,75.935c0,7.093,0.969,13.937,2.75,20.468 c-37.89,17.218-64.311,55.936-64.311,100.934c0,61.029,48.529,110.527,108.401,110.527h108.323v-97.34h-58.889l98.151-117.685 l98.12,117.685h-58.872v97.34h89.061c70.525,0,127.681-58.279,127.681-130.15C511.987,248.297,479.646,201.956,433.585,182.332z"/></svg>