<svg fill="none" xmlns="http://www.w3.org/2000/svg" viewBox="0 0 100 100"><g clip-path="url(#clip0)"><path fill-rule="evenodd" clip-rule="evenodd" d="M33.332 42.949v7.05H16.668a5.552 5.552 0 00-5.559 5.555 5.55 5.55 0 005.559 5.555h16.664v7.051c0 3.356 4.93 5.262 7.566 3.223L59.39 58.778c2.098-1.621 2.383-4.82.282-6.446l-18.91-12.605c-2.645-2.039-7.43-.132-7.43 3.223v-.001zm52.3-23.983l-15.71-15.71A11.117 11.117 0 0062.062 0H25.002c-7.672 0-13.892 6.215-13.892 13.891v19.441a5.558 5.558 0 005.56 5.559 5.555 5.555 0 005.554-5.559v-19.44A2.779 2.779 0 0125 11.11h30.555v16.668c0 3.055 2.5 5.555 5.555 5.555h16.668V86.11A2.779 2.779 0 0175 88.89H25a2.779 2.779 0 01-2.777-2.78v-8.332a5.557 5.557 0 00-11.113 0v8.332c0 7.675 6.219 13.891 13.89 13.891h50c7.673 0 13.892-6.215 13.892-13.891V26.82c0-2.94-1.176-5.769-3.258-7.855" fill="#A970DC"/></g><defs><clipPath id="clip0"><path fill="#fff" d="M0 0h100v100H0z"/></clipPath></defs></svg>