<svg fill="#A970DC" viewBox="0 0 1024 1024" style="enable-background:new 0 0 1024 1024"><path d="M229 260V79.9c0-20.9-18.4-41-40-40-21.7 1-40 17.6-40 40V260c0 20.9 18.4 41 40 40 21.7-1 40-17.6 40-40zm0 684V463.3c0-22.1.3-44.3 0-66.4v-1c0-20.9-18.4-41-40-40-21.7 1-40 17.6-40 40v480.7c0 22.1-.3 44.3 0 66.4v1c0 20.9 18.4 41 40 40 21.7-1 40-17.6 40-40z"/><path d="M80 300h219c20.9 0 41-18.4 40-40-1-21.7-17.6-40-40-40H80c-20.9 0-41 18.4-40 40 1 21.7 17.6 40 40 40zm321 388h219c20.9 0 41-18.4 40-40-1-21.7-17.6-40-40-40H401c-20.9 0-41 18.4-40 40 1 21.7 17.6 40 40 40z"/><path d="M551 648V150.1c0-23 .4-46.1 0-69.1v-1c0-20.9-18.4-41-40-40-21.7 1-40 17.6-40 40v497.9c0 23-.4 46.1 0 69.1v1c0 20.9 18.4 41 40 40 21.7-1 40-17.6 40-40zm0 296V784c0-20.9-18.4-41-40-40-21.7 1-40 17.6-40 40v160c0 20.9 18.4 41 40 40 21.7-1 40-17.6 40-40zm322-505V124.4c0-14.6.3-29.2 0-43.8V80c0-20.9-18.4-41-40-40-21.7 1-40 17.6-40 40v314.6c0 14.6-.3 29.2 0 43.8v.6c0 20.9 18.4 41 40 40 21.7-1 40-17.6 40-40zm0 505V620.5c0-14.9.3-29.9 0-44.8v-.6c0-20.9-18.4-41-40-40-21.7 1-40 17.6-40 40v323.5c0 14.9-.3 29.9 0 44.8v.6c0 20.9 18.4 41 40 40 21.7-1 40-17.6 40-40z"/><path d="M724 479h219c20.9 0 41-18.4 40-40-1-21.7-17.6-40-40-40H724c-20.9 0-41 18.4-40 40 1 21.7 17.6 40 40 40z"/></svg>