<svg fill="none" xmlns="http://www.w3.org/2000/svg" viewBox="0 0 100 100"><path d="M59.89 37.208a8.94 8.94 0 00-8.947 8.947c0 4.946 4 8.947 8.947 8.947 4.946 0 8.947-4 8.947-8.947a8.938 8.938 0 00-8.947-8.947z" fill="#000"/><path d="M88.626 7H11.37C5.053 7 0 12.156 0 18.369v55.894c0 6.316 5.156 11.369 11.369 11.369h3.265l1.262 5.053c.42 1.575 1.788 2.628 3.367 2.628h11.052c1.58 0 2.841-1.053 3.265-2.525l1.262-5.053h30.316l1.262 5.053a3.503 3.503 0 003.367 2.525H80.84c1.58 0 2.842-1.053 3.265-2.525l1.262-5.053h3.265c6.316 0 11.369-5.156 11.369-11.37l-.004-55.995C99.996 12.157 94.84 7 88.627 7zM17.368 26.682a3.28 3.28 0 013.264-3.264 3.28 3.28 0 013.265 3.264v39.472a3.28 3.28 0 01-3.265 3.265c-1.792 0-3.264-1.58-3.264-3.368V26.682zm45.577 38.946a3.28 3.28 0 01-3.264 3.264 3.28 3.28 0 01-3.265-3.264V61.31c-1.788-.419-3.577-1.16-5.053-2.212l-3.051 3.051a3.256 3.256 0 01-2.315.946 3.266 3.266 0 01-2.315-.946c-1.262-1.262-1.262-3.367 0-4.63l3.158-3.157c-.946-1.58-1.686-3.265-1.998-5.053h-4.42a3.28 3.28 0 01-3.265-3.265 3.28 3.28 0 013.265-3.265h4.527c.42-1.788 1.16-3.474 2.105-5.053l-3.158-3.158c-1.262-1.262-1.262-3.367 0-4.63 1.262-1.262 3.368-1.262 4.63 0l3.158 3.158c1.472-.945 3.264-1.686 5.053-2.105v-4.42A3.28 3.28 0 0160 23.306a3.28 3.28 0 013.265 3.265v4.42a15.55 15.55 0 015.053 2.105l3.051-3.05c1.262-1.263 3.368-1.263 4.63 0 1.262 1.262 1.262 3.367 0 4.63l-3.05 3.05c1.052 1.579 1.788 3.265 2.104 5.156h4.21a3.28 3.28 0 013.265 3.265 3.28 3.28 0 01-3.264 3.264h-4.21a14.98 14.98 0 01-2.213 5.156l2.948 2.948c1.262 1.263 1.262 3.368 0 4.63a3.256 3.256 0 01-2.315.946 3.267 3.267 0 01-2.314-.946l-3.051-3.05c-1.58.945-3.265 1.685-5.156 2.104l-.009 4.429z" fill="#A970DC"/></svg>