<svg width="100" height="100" viewBox="0 0 100 100" fill="none" xmlns="http://www.w3.org/2000/svg">
<g clip-path="url(#clip0)">
<path fill-rule="evenodd" clip-rule="evenodd" d="M30.6779 34.6826L54.7226 98.0777C55.8145 100.991 59.4605 100.265 60.1859 98.0777L71.1161 72.9369C71.4788 72.2076 71.8453 71.4785 72.5745 71.1158L98.0777 60.1856C100.265 59.4564 100.991 55.8142 98.0777 54.7223L34.3202 30.6776C32.1326 29.9484 29.9489 32.136 30.6781 34.6863L30.6779 34.6826Z" fill="black"/>
<path d="M13.192 9.17942C12.1001 8.08749 10.279 8.08749 8.82062 9.17942C7.72869 10.2713 7.72869 12.459 8.82062 13.5508L21.2093 25.5731C22.3013 27.0315 24.4889 27.0315 25.5807 25.5731C26.6726 24.4812 26.6726 22.6602 25.5807 21.2018L13.192 9.17942Z" fill="black"/>
<path d="M38.3328 2.25773C37.6036 0.799338 36.1452 -0.292586 34.3241 0.070091C32.8657 0.799308 31.7738 2.25773 32.1365 4.0788L35.4161 15.3714C35.7787 17.1925 37.6037 17.9217 39.0582 17.559C40.8793 17.1964 41.6085 15.3714 41.2458 13.9169L38.3328 2.25773Z" fill="black"/>
<path d="M4.08262 32.8618C2.62423 32.1326 0.803055 33.2245 0.440478 35.0494C0.0778209 36.5078 0.803134 38.329 2.62812 38.6916L13.9207 41.6046C15.7418 42.3338 17.2003 41.2419 17.9294 39.4169C18.2921 37.9585 17.2002 36.1374 15.7418 35.7748L4.08262 32.8618Z" fill="black"/>
</g>
<defs>
<clipPath id="clip0">
<rect width="100" height="100" fill="white" transform="matrix(-1 0 0 1 100 0)"/>
</clipPath>
</defs>
</svg>
