<svg fill="none" xmlns="http://www.w3.org/2000/svg" viewBox="0 0 100 100"><g clip-path="url(#clip0)" fill="#A970DC"><path fill-rule="evenodd" clip-rule="evenodd" d="M30.678 34.683l24.045 63.395c1.092 2.913 4.738 2.187 5.463 0l10.93-25.141c.363-.73.73-1.459 1.459-1.821l25.503-10.93c2.187-.73 2.913-4.372 0-5.464L34.32 30.678c-2.187-.73-4.371 1.458-3.642 4.008v-.003z"/><path d="M13.192 9.18c-1.092-1.093-2.913-1.093-4.371 0-1.092 1.091-1.092 3.279 0 4.37l12.388 12.023a2.73 2.73 0 004.372 0c1.092-1.092 1.092-2.913 0-4.371L13.192 9.179zM38.333 2.258C37.603.799 36.145-.292 34.324.07c-1.458.73-2.55 2.188-2.188 4.009l3.28 11.292c.363 1.821 2.188 2.55 3.642 2.188 1.821-.363 2.55-2.188 2.188-3.642l-2.913-11.66zM4.083 32.862c-1.459-.73-3.28.362-3.643 2.187-.362 1.459.363 3.28 2.188 3.643l11.293 2.913c1.82.729 3.28-.363 4.008-2.188.363-1.459-.729-3.28-2.187-3.642l-11.66-2.913z"/></g><defs><clipPath id="clip0"><path fill="#A970DC" transform="matrix(-1 0 0 1 100 0)" d="M0 0h100v100H0z"/></clipPath></defs></svg>