<svg xmlns="http://www.w3.org/2000/svg" xmlns:xlink="http://www.w3.org/1999/xlink" width="100" height="100" x="0" y="0" fill="#A970DC" version="1.1" viewBox="0 0 100 100"><title>Heatmaps</title><desc>Created with Sketch.</desc><g fill="none" fill-rule="evenodd" stroke="none" stroke-width="1"><g fill="#A970DC"><circle cx="72" cy="40" r="13"/><circle cx="44.5" cy="62.5" r="17.5"/><circle cx="23.5" cy="38.5" r="9.5"/><circle cx="75.5" cy="72.5" r="6.5"/><g transform="translate(6.000000, 6.000000)"><circle cx="16.5" cy="5.5" r="1.5"/><circle cx="6.5" cy="5.5" r="1.5"/><circle cx="11.5" cy="5.5" r="1.5"/><polygon fill-rule="nonzero" points=".5 11 87.647 11 87.647 9 .5 9"/><path fill-rule="nonzero" d="M2,2 L2,84 L86,84 L86,2 L2,2 Z M2,0 L86,0 C87.1045695,-7.99360578e-15 88,0.8954305 88,2 L88,84 C88,85.1045695 87.1045695,86 86,86 L2,86 C0.8954305,86 0,85.1045695 0,84 L0,2 C0,0.8954305 0.8954305,0 2,0 Z"/></g></g></g></svg>