<svg xmlns="http://www.w3.org/2000/svg" viewBox="0 0 32 32"><path fill="#000" d="M5.27 11.26c-1.12 0-2.03.91-2.03 2.03v4.86c0 1.12.91 2.02 2.03 2.02H15v3.35c-1.3.35-2.31 1.37-2.67 2.66H5.96c-.55 0-1 .45-1 1 0 .56.45 1 1 1h6.37C12.78 29.8 14.24 31 16 31s3.22-1.2 3.67-2.82h6.37c.55 0 1-.44 1-1 0-.55-.45-1-1-1h-6.37A3.811 3.811 0 0017 23.52v-3.35h9.73c1.12 0 2.03-.9 2.03-2.02v-4.86c0-1.12-.91-2.03-2.03-2.03H17V9.91h9.74c1.11 0 2.02-.91 2.02-2.02V3.02c0-1.11-.91-2.02-2.02-2.02H5.26c-1.11 0-2.02.91-2.02 2.02v4.87c0 1.11.91 2.02 2.02 2.02H15v1.35H5.27zm1.47 4.46c0-.56.44-1 1-1h11.4c.55 0 1 .44 1 1 0 .55-.45 1-1 1H7.74c-.56 0-1-.45-1-1zm16.23 1.29a1.295 1.295 0 11-.01-2.59 1.295 1.295 0 01.01 2.59zm-5.15 10.17a1.82 1.82 0 01-3.64 0c0-1 .82-1.81 1.82-1.81s1.82.81 1.82 1.81zm6.44-21.72a1.295 1.295 0 11-2.59-.01 1.295 1.295 0 012.59.01zm-16.52-1h11.4c.55 0 1 .44 1 1 0 .55-.45 1-1 1H7.74c-.56 0-1-.45-1-1 0-.56.44-1 1-1z"/></svg>