<svg fill="none" viewBox="0 0 100 100"><path fill="#A970DC" d="M50 1.59c-27.569 0-50 22.432-50 50 0 20.57 12.894 39.3 32.075 46.607.8.319 1.7.269 2.475-.106a3.136 3.136 0 001.619-1.882l9.375-29.937a3.12 3.12 0 00-1.469-3.669c-4.056-2.237-6.575-6.456-6.575-11.012 0-6.894 5.606-12.5 12.5-12.5s12.5 5.606 12.5 12.5c0 4.556-2.519 8.775-6.575 11.018a3.112 3.112 0 00-1.469 3.67l9.375 29.937c.257.825.844 1.5 1.619 1.88a3.104 3.104 0 002.475.106C87.113 90.892 100 72.16 100 51.592c0-27.57-22.431-50-50-50z"/></svg>