<svg fill="none" viewBox="0 0 24 24"><path fill="#A970DC" d="M5.943 2.07a3.791 3.791 0 00-3.787 3.787c0 .68.195 1.41.58 2.175.303.602.725 1.226 1.252 1.856a14.004 14.004 0 001.81 1.803l.148.117.145-.117c.038-.03.917-.74 1.81-1.81a9.825 9.825 0 001.248-1.856c.385-.764.582-1.492.582-2.167 0-2.09-1.7-3.789-3.788-3.789zm0 4.858a1.071 1.071 0 11.002-2.143 1.071 1.071 0 01-.002 2.143zm14.334 2.501a5.32 5.32 0 00-3.788-1.568c-1.43 0-2.778.557-3.787 1.568a5.32 5.32 0 00-1.569 3.787c0 .964.277 2.002.825 3.092.433.861 1.036 1.753 1.79 2.655 1.283 1.53 2.543 2.543 2.596 2.586l.148.117.145-.117a20.481 20.481 0 002.595-2.595c.755-.905 1.358-1.798 1.79-2.658.55-1.087.826-2.123.826-3.08a5.33 5.33 0 00-1.572-3.787zm-3.788 5.28a1.49 1.49 0 110-2.982 1.49 1.49 0 010 2.982zM7.6 12.105a1.483 1.483 0 00-.324-.035h-.394v-.938h.394c.176 0 .352.019.52.056l-.196.917zm3.8 8.889v.937h1.554v-.937H11.4zm-2.886 0v.937h1.554v-.937H8.513zm-2.402 0c-.136 0-.27-.012-.401-.033l-.152.926c.183.03.368.045.553.045h1.074v-.937l-1.074-.001zm-2.248-1.45l-.853.386a3.41 3.41 0 001.132 1.373l.544-.764a2.45 2.45 0 01-.823-.996zm-.64-2.818a3.419 3.419 0 00-.515 1.705l.938.026c.01-.439.14-.864.373-1.233l-.795-.498zm2.785-1.598a3.426 3.426 0 00-1.704.515l.498.795c.37-.232.797-.36 1.233-.373l-.027-.937zm2.379-.483a1.508 1.508 0 01-1.052.48l.035.938a2.445 2.445 0 001.7-.777l-.683-.641zm.787-2.615l-.722.598a1.531 1.531 0 01.344 1.106l.933.08a2.472 2.472 0 00-.555-1.784zm5.111 8.963h.82v.937h-.82v-.937z"/></svg>