<svg xmlns="http://www.w3.org/2000/svg" width="18" height="18" fill="none" viewBox="0 0 18 18"><path fill="#A970DC" d="M9 1.6875C4.96836 1.6875 1.6875 4.96836 1.6875 9C1.6875 13.0324 4.96836 16.3125 9 16.3125C13.0324 16.3125 16.3125 13.0324 16.3125 9C16.3125 4.96836 13.0324 1.6875 9 1.6875ZM9 8.4375C10.2403 8.4375 11.25 9.44719 11.25 10.6875C11.25 11.7338 10.5314 12.6126 9.5625 12.863V13.5C9.5625 13.8108 9.31079 14.0625 9 14.0625C8.68921 14.0625 8.4375 13.8108 8.4375 13.5V12.9375H7.3125C7.00171 12.9375 6.75 12.6858 6.75 12.375C6.75 12.0642 7.00171 11.8125 7.3125 11.8125H9C9.62015 11.8125 10.125 11.3077 10.125 10.6875C10.125 10.0674 9.62015 9.56252 9 9.56252C7.75969 9.56252 6.75 8.55283 6.75 7.31252C6.75 6.26627 7.4686 5.38742 8.4375 5.13632V4.49998C8.4375 4.18919 8.68921 3.93748 9 3.93748C9.31079 3.93748 9.5625 4.18919 9.5625 4.49998V5.06248H10.6875C10.9983 5.06248 11.25 5.31419 11.25 5.62498C11.25 5.93577 10.9983 6.18748 10.6875 6.18748H9C8.37985 6.18748 7.875 6.69233 7.875 7.31248C7.875 7.93264 8.37985 8.43748 9 8.43748V8.4375Z"/></svg>