<svg xmlns="http://www.w3.org/2000/svg" xmlns:xlink="http://www.w3.org/1999/xlink"><symbol xmlns="http://www.w3.org/2000/svg" id="annotations" fill="#000" viewBox="0 0 32 32"><path d="M29.5 16a1.5 1.5 0 01-1.5 1.5h-8.38l5.93 5.92a1.51 1.51 0 01-2.13 2.13l-5.92-5.93V28a1.5 1.5 0 01-3 0v-8.38l-5.92 5.93a1.51 1.51 0 01-2.13-2.13l5.93-5.92H4a1.5 1.5 0 010-3h8.38L6.45 8.58a1.51 1.51 0 012.13-2.13l5.92 5.93V4a1.5 1.5 0 013 0v8.38l5.92-5.93a1.51 1.51 0 012.13 2.13l-5.93 5.92H28a1.5 1.5 0 011.5 1.5z" data-name="54 Asterisk"/></symbol><symbol xmlns="http://www.w3.org/2000/svg" id="api" fill="none" viewBox="0 0 100 100"><g fill="#000" clip-path="url(#bclip0)"><path d="M0 80.359a8.404 8.404 0 008.454 8.454h83.092A8.404 8.404 0 00100 80.358l-.005-49.757H.001V80.36zM41.303 56.08h24.394a2.42 2.42 0 012.416 2.416 2.42 2.42 0 01-2.416 2.415H41.303a2.42 2.42 0 01-2.416-2.415 2.423 2.423 0 012.416-2.416zM12.195 44.73c-.967-.967-.967-2.416 0-3.383.967-.967 2.415-.967 3.382 0l15.46 15.46c.481.481.727 1.085.727 1.689 0 .604-.241 1.208-.727 1.689l-15.46 15.46c-.481.48-1.085.726-1.689.726-.603 0-1.207-.24-1.688-.726-.968-.968-.968-2.416 0-3.383l13.643-13.765L12.195 44.73zM91.54 12H8.454A8.404 8.404 0 000 20.454v5.312h100v-5.312C99.994 15.864 96.13 12 91.54 12zM7.365 23.11a4.071 4.071 0 01-4.105-4.104A4.071 4.071 0 017.365 14.9a4.072 4.072 0 014.104 4.105 4.066 4.066 0 01-4.104 4.104zm12.44 0a4.071 4.071 0 01-4.104-4.104 4.072 4.072 0 014.104-4.105 4.071 4.071 0 014.104 4.105 4.071 4.071 0 01-4.104 4.104zm12.558 0a4.071 4.071 0 01-4.104-4.104 4.072 4.072 0 014.104-4.105 4.072 4.072 0 014.104 4.105 4.066 4.066 0 01-4.104 4.104z"/></g><defs><clipPath id="bclip0"><path fill="A970DC" d="M0 0h100v100H0z"/></clipPath></defs></symbol><symbol xmlns="http://www.w3.org/2000/svg" id="cohorts" fill="none" viewBox="0 0 18 18"><g fill="#000" clip-path="url(#cclip0)"><path d="M11.407 12.534s-2.943-.756-3.358-1.579c-.19-.377-.004-.858.186-1.19.087-.116.171-.24.253-.369.49-.785.865-1.819.904-3.095.057-1.922-1.43-3.481-3.197-3.487h-.007C4.422 2.82 2.934 4.38 2.992 6.301c.038 1.276.413 2.31.904 3.095.082.13.167.253.252.37.19.331.376.812.187 1.19-.415.822-3.358 1.578-3.358 1.578A1.43 1.43 0 000 13.889v1.298h12.382v-1.298c0-.63-.409-1.166-.976-1.355zM17.292 13.256c-.033-.011-2.143-.549-2.444-1.148-.14-.273-.003-.624.135-.866a4.1 4.1 0 00.183-.267c.357-.571.63-1.323.658-2.251.042-1.397-1.04-2.531-2.326-2.535h-.005c-1.286.004-2.37 1.138-2.327 2.535.028.928.3 1.68.659 2.25.059.095.12.184.183.268l.029.053a2.803 2.803 0 011.73 2.593v1.297H18v-.944c0-.458-.298-.847-.71-.985z"/></g><defs><clipPath id="cclip0"><path fill="#fff" d="M0 0h18v18H0z"/></clipPath></defs></symbol><symbol xmlns="http://www.w3.org/2000/svg" id="custom-plugins" fill="#000" viewBox="0 0 32 32"><path d="M28.806 14.145a2.957 2.957 0 00-3.625-2.091 2.946 2.946 0 00-2.069 2.044s-.267.332-.718.623l-1.57-5.856a1.973 1.973 0 00-2.419-1.397l-5.857 1.568c.027-.537.18-.936.18-.936a2.95 2.95 0 00.738-2.813A2.962 2.962 0 009.84 3.194a2.958 2.958 0 00-2.093 3.624 2.95 2.95 0 002.044 2.07s.333.267.626.717l-5.858 1.57a1.979 1.979 0 00-1.399 2.421l1.591 5.937c.395-.262.64-.551.64-.551a2.683 2.683 0 011.886-1.863 2.697 2.697 0 013.305 1.906 2.7 2.7 0 01-1.908 3.307 2.691 2.691 0 01-2.565-.672s-.355-.129-.829-.158l1.591 5.939a1.976 1.976 0 002.422 1.398l5.937-1.59c-.263-.396-.552-.639-.552-.639a2.695 2.695 0 01-1.864-1.887 2.698 2.698 0 115.214-1.399 2.696 2.696 0 01-.672 2.567s-.128.354-.158.829l5.94-1.594a1.976 1.976 0 001.398-2.42l-1.569-5.856c.536.027.934.183.934.183a2.952 2.952 0 002.814.736 2.958 2.958 0 002.091-3.624z"/></symbol><symbol xmlns="http://www.w3.org/2000/svg" id="dashboards" fill="none" viewBox="0 0 100 100"><g fill="#000" clip-path="url(#eclip0)"><path d="M84.384 46.458c-3.51 1.816-4.843 6.294-3.027 9.808 2.663 5.084 4.115 10.774 4.115 16.586 0 3.996 3.268 7.264 7.264 7.264 3.996 0 7.264-3.268 7.264-7.264 0-8.111-2.057-16.221-5.812-23.368a7.191 7.191 0 00-9.804-3.027zm-28.569-8.593c3.997.606 7.747-2.057 8.352-6.053.605-3.996-2.057-7.747-6.053-8.352-2.663-.482-5.448-.605-8.111-.605C22.398 22.85 0 45.248 0 72.853c0 3.996 3.268 7.264 7.264 7.264 3.996 0 7.264-3.268 7.264-7.264 0-19.612 15.98-35.475 35.475-35.475 1.939 0 3.873.123 5.812.487zm31.96-17.437c-.728-.606-1.939-.606-2.544.24L44.067 68.616c-.241.364-.482.605-.728.97-2.057 3.508-.97 7.992 2.544 10.049 3.51 2.057 7.993.97 10.05-2.544l32.324-54.358a1.89 1.89 0 00-.482-2.303v-.001z"/></g><defs><clipPath id="eclip0"><path fill="#000" d="M0 0h100v100H0z"/></clipPath></defs></symbol><symbol xmlns="http://www.w3.org/2000/svg" id="data-enrichment" fill="#000" viewBox="0 0 1024 1024"><path d="M229 260v-61-96.7-22.4c0-20.9-18.4-41-40-40-21.7 1-40 17.6-40 40V260c0 20.9 18.4 41 40 40 21.7-1 40-17.6 40-40zM229 944v-54.8-130.6-158.4-136.9c0-22.1.3-44.3 0-66.4v-1c0-20.9-18.4-41-40-40-21.7 1-40 17.6-40 40V876.6c0 22.1-.3 44.3 0 66.4v1c0 20.9 18.4 41 40 40 21.7-1 40-17.6 40-40z"/><path d="M80 300h219c20.9 0 41-18.4 40-40-1-21.7-17.6-40-40-40H80c-20.9 0-41 18.4-40 40 1 21.7 17.6 40 40 40zM401 688h219c20.9 0 41-18.4 40-40-1-21.7-17.6-40-40-40H401c-20.9 0-41 18.4-40 40 1 21.7 17.6 40 40 40z"/><path d="M551 648v-56.6-135.9-163.8-141.6c0-23 .4-46.1 0-69.1v-1c0-20.9-18.4-41-40-40-21.7 1-40 17.6-40 40v497.9c0 23-.4 46.1 0 69.1v1c0 20.9 18.4 41 40 40 21.7-1 40-17.6 40-40zM551 944V804v-20c0-20.9-18.4-41-40-40-21.7 1-40 17.6-40 40v160c0 20.9 18.4 41 40 40 21.7-1 40-17.6 40-40zM873 439v-35.6-85.9V214v-89.6c0-14.6.3-29.2 0-43.8V80c0-20.9-18.4-41-40-40-21.7 1-40 17.6-40 40v314.6c0 14.6-.3 29.2 0 43.8v.6c0 20.9 18.4 41 40 40 21.7-1 40-17.6 40-40zM873 944v-36.6-87.9-107-92c0-14.9.3-29.9 0-44.8v-.6c0-20.9-18.4-41-40-40-21.7 1-40 17.6-40 40v323.5c0 14.9-.3 29.9 0 44.8v.6c0 20.9 18.4 41 40 40 21.7-1 40-17.6 40-40z"/><path d="M724 479h219c20.9 0 41-18.4 40-40-1-21.7-17.6-40-40-40H724c-20.9 0-41 18.4-40 40 1 21.7 17.6 40 40 40z"/></symbol><symbol xmlns="http://www.w3.org/2000/svg" id="data-export" fill="#000" viewBox="0 0 512 512"><path d="M433.585 182.332C416.648 122.896 362.823 79.46 299.029 79.46c-48.092 0-90.527 24.687-115.76 62.373-12.859-10.718-29.265-17.156-47.17-17.156-41.153 0-74.527 33.999-74.527 75.935a77.6 77.6 0 002.75 20.468C26.432 238.298.011 277.016.011 322.014c0 61.029 48.529 110.527 108.401 110.527h108.323v-97.34h-58.889l98.151-117.685 98.12 117.685h-58.872v97.34h89.061c70.525 0 127.681-58.279 127.681-130.15 0-54.094-32.341-100.435-78.402-120.059z"/></symbol><symbol xmlns="http://www.w3.org/2000/svg" id="data-filtering" fill="#000" viewBox="0 0 1024 1024"><path d="M229 260v-61-96.7-22.4c0-20.9-18.4-41-40-40-21.7 1-40 17.6-40 40V260c0 20.9 18.4 41 40 40 21.7-1 40-17.6 40-40zM229 944v-54.8-130.6-158.4-136.9c0-22.1.3-44.3 0-66.4v-1c0-20.9-18.4-41-40-40-21.7 1-40 17.6-40 40V876.6c0 22.1-.3 44.3 0 66.4v1c0 20.9 18.4 41 40 40 21.7-1 40-17.6 40-40z"/><path d="M80 300h219c20.9 0 41-18.4 40-40-1-21.7-17.6-40-40-40H80c-20.9 0-41 18.4-40 40 1 21.7 17.6 40 40 40zM401 688h219c20.9 0 41-18.4 40-40-1-21.7-17.6-40-40-40H401c-20.9 0-41 18.4-40 40 1 21.7 17.6 40 40 40z"/><path d="M551 648v-56.6-135.9-163.8-141.6c0-23 .4-46.1 0-69.1v-1c0-20.9-18.4-41-40-40-21.7 1-40 17.6-40 40v497.9c0 23-.4 46.1 0 69.1v1c0 20.9 18.4 41 40 40 21.7-1 40-17.6 40-40zM551 944V804v-20c0-20.9-18.4-41-40-40-21.7 1-40 17.6-40 40v160c0 20.9 18.4 41 40 40 21.7-1 40-17.6 40-40zM873 439v-35.6-85.9V214v-89.6c0-14.6.3-29.2 0-43.8V80c0-20.9-18.4-41-40-40-21.7 1-40 17.6-40 40v314.6c0 14.6-.3 29.2 0 43.8v.6c0 20.9 18.4 41 40 40 21.7-1 40-17.6 40-40zM873 944v-36.6-87.9-107-92c0-14.9.3-29.9 0-44.8v-.6c0-20.9-18.4-41-40-40-21.7 1-40 17.6-40 40v323.5c0 14.9-.3 29.9 0 44.8v.6c0 20.9 18.4 41 40 40 21.7-1 40-17.6 40-40z"/><path d="M724 479h219c20.9 0 41-18.4 40-40-1-21.7-17.6-40-40-40H724c-20.9 0-41 18.4-40 40 1 21.7 17.6 40 40 40z"/></symbol><symbol xmlns="http://www.w3.org/2000/svg" id="data-import" fill="#000" viewBox="0 0 20 20"><path fill="#000" fill-rule="evenodd" d="M2 17.002c0 .551.445.998 1 .998h14c.552 0 1-.446 1-.998V9.998A.996.996 0 0017 9c-.552 0-1 .438-1 1.003V16H4v-5.997a.999.999 0 10-2-.005v7.004zM10 2c-.552 0-1 .438-1 1.003V9H6.999c-.552 0-.685.314-.293.706L10 13l3.294-3.294c.39-.39.263-.706-.293-.706H11V3.003A.999.999 0 0010 2z"/></symbol><symbol xmlns="http://www.w3.org/2000/svg" id="data-pipelines" fill="none" viewBox="0 0 100 100"><g clip-path="url(#jclip0)"><path fill="#000" fill-rule="evenodd" d="M33.332 42.949v7.05H16.668a5.552 5.552 0 00-5.559 5.555 5.55 5.55 0 005.559 5.555h16.664v7.051c0 3.356 4.93 5.262 7.566 3.223L59.39 58.778c2.098-1.621 2.383-4.82.282-6.446l-18.91-12.605c-2.645-2.039-7.43-.132-7.43 3.223v-.001zm52.3-23.983l-15.71-15.71A11.117 11.117 0 0062.062 0h-37.06C17.33 0 11.11 6.215 11.11 13.891v19.441a5.558 5.558 0 005.56 5.559 5.555 5.555 0 005.554-5.559v-19.44A2.779 2.779 0 0125 11.11h30.555v16.668c0 3.055 2.5 5.555 5.555 5.555h16.668V86.11A2.779 2.779 0 0175 88.89H25a2.779 2.779 0 01-2.777-2.78v-8.332a5.557 5.557 0 00-11.113 0v8.332c0 7.675 6.219 13.891 13.89 13.891h50c7.673 0 13.892-6.215 13.892-13.891V26.82c0-2.94-1.176-5.769-3.258-7.855" clip-rule="evenodd"/></g><defs><clipPath id="jclip0"><path fill="#fff" d="M0 0h100v100H0z"/></clipPath></defs></symbol><symbol xmlns="http://www.w3.org/2000/svg" id="data-privacy" viewBox="0 0 100 100"><path fill="#000" d="M50 0L0 10c0 72.222 50 90 50 90s50-17.778 50-90L50 0zm20 65c0 2.764-2.236 5-5 5H35c-2.764 0-5-2.236-5-5V40c0-2.764 2.236-5 5-5v-5c0-8.286 6.714-15 15-15s15 6.714 15 15v5c2.764 0 5 2.236 5 5v25zM60 30v5H40v-5c0-5.513 4.482-10 10-10s10 4.487 10 10zm-5 20a4.989 4.989 0 01-2.5 4.326V60h-5v-5.674A4.997 4.997 0 0150 45c2.764 0 5 2.236 5 5z"/></symbol><symbol xmlns="http://www.w3.org/2000/svg" id="data-warehouse" fill="none" viewBox="0 0 100 100"><path fill="#000" d="M59.89 37.208a8.94 8.94 0 00-8.947 8.947c0 4.946 4 8.947 8.947 8.947 4.946 0 8.947-4 8.947-8.947a8.938 8.938 0 00-8.947-8.947z"/><path fill="#000" d="M88.626 7H11.37C5.053 7 0 12.156 0 18.369v55.894c0 6.316 5.156 11.369 11.369 11.369h3.265l1.262 5.053c.42 1.575 1.788 2.628 3.367 2.628h11.052c1.58 0 2.841-1.053 3.265-2.525l1.262-5.053h30.316l1.262 5.053a3.503 3.503 0 003.367 2.525H80.84c1.58 0 2.842-1.053 3.265-2.525l1.262-5.053h3.265c6.316 0 11.369-5.156 11.369-11.37l-.004-55.995C99.996 12.157 94.84 7 88.627 7zM17.368 26.682a3.28 3.28 0 013.264-3.264 3.28 3.28 0 013.265 3.264v39.472a3.28 3.28 0 01-3.265 3.265c-1.792 0-3.264-1.58-3.264-3.368V26.682zm45.577 38.946a3.28 3.28 0 01-3.264 3.264 3.28 3.28 0 01-3.265-3.264V61.31c-1.788-.419-3.577-1.16-5.053-2.212l-3.051 3.051a3.256 3.256 0 01-2.315.946 3.266 3.266 0 01-2.315-.946c-1.262-1.262-1.262-3.367 0-4.63l3.158-3.157c-.946-1.58-1.686-3.265-1.998-5.053h-4.42a3.28 3.28 0 01-3.265-3.265 3.28 3.28 0 013.265-3.265h4.527c.42-1.788 1.16-3.474 2.105-5.053l-3.158-3.158c-1.262-1.262-1.262-3.367 0-4.63 1.262-1.262 3.368-1.262 4.63 0l3.158 3.158c1.472-.945 3.264-1.686 5.053-2.105v-4.42A3.28 3.28 0 0160 23.306a3.28 3.28 0 013.265 3.265v4.42a15.55 15.55 0 015.053 2.105l3.051-3.05c1.262-1.263 3.368-1.263 4.63 0 1.262 1.262 1.262 3.367 0 4.63l-3.05 3.05c1.052 1.579 1.788 3.265 2.104 5.156h4.21a3.28 3.28 0 013.265 3.265 3.28 3.28 0 01-3.264 3.264h-4.21a14.98 14.98 0 01-2.213 5.156l2.948 2.948c1.262 1.263 1.262 3.368 0 4.63a3.256 3.256 0 01-2.315.946 3.267 3.267 0 01-2.314-.946l-3.051-3.05c-1.58.945-3.265 1.685-5.156 2.104l-.009 4.429z"/></symbol><symbol xmlns="http://www.w3.org/2000/svg" id="event-autocapture" fill="none" viewBox="0 0 100 100"><g fill="#000" clip-path="url(#mclip0)"><path fill-rule="evenodd" d="M30.678 34.683l24.045 63.395c1.092 2.913 4.738 2.187 5.463 0l10.93-25.141c.363-.73.73-1.459 1.459-1.821l25.503-10.93c2.187-.73 2.913-4.372 0-5.464L34.32 30.678c-2.187-.73-4.371 1.458-3.642 4.008v-.003z" clip-rule="evenodd"/><path d="M13.192 9.18c-1.092-1.093-2.913-1.093-4.371 0-1.092 1.091-1.092 3.279 0 4.37l12.388 12.023a2.73 2.73 0 004.372 0c1.092-1.092 1.092-2.913 0-4.371L13.192 9.179zm25.141-6.922C37.603.799 36.145-.292 34.324.07c-1.458.73-2.55 2.188-2.188 4.009l3.28 11.292c.363 1.821 2.188 2.55 3.642 2.188 1.821-.363 2.55-2.188 2.188-3.642l-2.913-11.66zM4.083 32.862c-1.459-.73-3.28.362-3.643 2.187-.362 1.459.363 3.28 2.188 3.643l11.293 2.913c1.82.729 3.28-.363 4.008-2.188.363-1.459-.729-3.28-2.187-3.642l-11.66-2.913z"/></g><defs><clipPath id="mclip0"><path fill="#000" d="M0 0h100v100H0z" transform="matrix(-1 0 0 1 100 0)"/></clipPath></defs></symbol><symbol xmlns="http://www.w3.org/2000/svg" id="feature-flags" fill="#000" viewBox="0 0 16.933 16.933"><path style="line-height:normal;font-variant-ligatures:normal;font-variant-position:normal;font-variant-caps:normal;font-variant-numeric:normal;font-variant-alternates:normal;font-variant-east-asian:normal;font-feature-settings:normal;font-variation-settings:normal;text-indent:0;text-align:start;text-decoration-line:none;text-decoration-style:solid;text-decoration-color:#000;text-transform:none;text-orientation:mixed;white-space:normal;shape-padding:0;shape-margin:0;inline-size:0;isolation:auto;mix-blend-mode:normal;solid-color:#000;solid-opacity:1" fill="#000" d="M4.233 2.911a.265.265 0 00-.266.264v10.584a.265.265 0 00.266.263.265.265 0 00.264-.263v-3.97H12.7a.265.265 0 00.187-.452L9.9 6.35l2.988-2.988a.265.265 0 00-.187-.451z" color="#000" font-family="sans-serif" font-weight="400" overflow="visible" stop-color="#000"/></symbol><symbol xmlns="http://www.w3.org/2000/svg" id="funnels" fill="none" viewBox="0 0 14 15"><rect width="14" height="3" fill="#000" rx="1"/><rect width="10" height="3" x="2" y="5" fill="#000" rx="1"/><rect width="6" height="3" x="4" y="10" fill="#000" rx="1"/></symbol><symbol xmlns="http://www.w3.org/2000/svg" id="heatmaps" fill="#000" viewBox="0 0 100 100"><g fill="#000" fill-rule="evenodd"><circle cx="72" cy="40" r="13"/><circle cx="44.5" cy="62.5" r="17.5"/><circle cx="23.5" cy="38.5" r="9.5"/><circle cx="75.5" cy="72.5" r="6.5"/><g transform="translate(6 6)"><circle cx="16.5" cy="5.5" r="1.5"/><circle cx="6.5" cy="5.5" r="1.5"/><circle cx="11.5" cy="5.5" r="1.5"/><path fill-rule="nonzero" d="M.5 11h87.147V9H.5z"/><path fill-rule="nonzero" d="M2 2v82h84V2H2zm0-2h84a2 2 0 012 2v82a2 2 0 01-2 2H2a2 2 0 01-2-2V2a2 2 0 012-2z"/></g></g></symbol><symbol xmlns="http://www.w3.org/2000/svg" id="hosting-flexibility" viewBox="0 0 32 32"><path fill="#000" d="M5.27 11.26c-1.12 0-2.03.91-2.03 2.03v4.86c0 1.12.91 2.02 2.03 2.02H15v3.35c-1.3.35-2.31 1.37-2.67 2.66H5.96c-.55 0-1 .45-1 1 0 .56.45 1 1 1h6.37C12.78 29.8 14.24 31 16 31s3.22-1.2 3.67-2.82h6.37c.55 0 1-.44 1-1 0-.55-.45-1-1-1h-6.37A3.811 3.811 0 0017 23.52v-3.35h9.73c1.12 0 2.03-.9 2.03-2.02v-4.86c0-1.12-.91-2.03-2.03-2.03H17V9.91h9.74c1.11 0 2.02-.91 2.02-2.02V3.02c0-1.11-.91-2.02-2.02-2.02H5.26c-1.11 0-2.02.91-2.02 2.02v4.87c0 1.11.91 2.02 2.02 2.02H15v1.35H5.27zm1.47 4.46c0-.56.44-1 1-1h11.4c.55 0 1 .44 1 1 0 .55-.45 1-1 1H7.74c-.56 0-1-.45-1-1zm16.23 1.29a1.295 1.295 0 11-.01-2.59 1.295 1.295 0 01.01 2.59zm-5.15 10.17a1.82 1.82 0 01-3.64 0c0-1 .82-1.81 1.82-1.81s1.82.81 1.82 1.81zm6.44-21.72a1.295 1.295 0 11-2.59-.01 1.295 1.295 0 012.59.01zm-16.52-1h11.4c.55 0 1 .44 1 1 0 .55-.45 1-1 1H7.74c-.56 0-1-.45-1-1 0-.56.44-1 1-1z"/></symbol><symbol xmlns="http://www.w3.org/2000/svg" id="open-source" fill="red" viewBox="0 0 100 100"><path fill="#000" d="M50 1.59c-27.569 0-50 22.432-50 50 0 20.57 12.894 39.3 32.075 46.607.8.319 1.7.269 2.475-.106a3.136 3.136 0 001.619-1.882l9.375-29.937a3.12 3.12 0 00-1.469-3.669c-4.056-2.237-6.575-6.456-6.575-11.012 0-6.894 5.606-12.5 12.5-12.5s12.5 5.606 12.5 12.5c0 4.556-2.519 8.775-6.575 11.018a3.112 3.112 0 00-1.469 3.67l9.375 29.937c.257.825.844 1.5 1.619 1.88a3.104 3.104 0 002.475.106C87.113 90.892 100 72.16 100 51.592c0-27.57-22.431-50-50-50z"/></symbol><symbol xmlns="http://www.w3.org/2000/svg" id="paths" fill="none" viewBox="0 0 24 24"><path fill="#000" d="M5.943 2.07a3.791 3.791 0 00-3.787 3.787c0 .68.195 1.41.58 2.175.303.602.725 1.226 1.252 1.856a14.004 14.004 0 001.81 1.803l.148.117.145-.117c.038-.03.917-.74 1.81-1.81a9.825 9.825 0 001.248-1.856c.385-.764.582-1.492.582-2.167 0-2.09-1.7-3.789-3.788-3.789zm0 4.858a1.071 1.071 0 11.002-2.143 1.071 1.071 0 01-.002 2.143zM20.277 9.429a5.32 5.32 0 00-3.788-1.568c-1.43 0-2.778.557-3.787 1.568a5.32 5.32 0 00-1.569 3.787c0 .964.277 2.002.825 3.092.433.861 1.036 1.753 1.79 2.655 1.283 1.53 2.543 2.543 2.596 2.586l.148.117.145-.117a20.481 20.481 0 002.595-2.595c.755-.905 1.358-1.798 1.79-2.658.55-1.087.826-2.123.826-3.08a5.33 5.33 0 00-1.572-3.787zm-3.788 5.28a1.49 1.49 0 110-2.982 1.49 1.49 0 010 2.982zM7.599 12.105a1.483 1.483 0 00-.324-.035h-.394v-.938h.394c.176 0 .352.019.52.056l-.196.917zM11.399 20.994v.937h1.554v-.937h-1.554zm-2.886 0v.937h1.554v-.937H8.513zm-2.402 0c-.136 0-.27-.012-.401-.033l-.152.926c.183.03.368.045.553.045h1.074v-.937l-1.074-.001zm-2.248-1.45l-.853.386a3.41 3.41 0 001.132 1.373l.544-.764a2.45 2.45 0 01-.823-.996zm-.64-2.818a3.419 3.419 0 00-.515 1.705l.938.026c.01-.439.14-.864.373-1.233l-.795-.498zm2.785-1.598a3.426 3.426 0 00-1.704.515l.498.795c.37-.232.797-.36 1.233-.373l-.027-.937zm2.379-.483a1.508 1.508 0 01-1.052.48l.035.938a2.445 2.445 0 001.7-.777l-.683-.641zm.787-2.615l-.722.598a1.531 1.531 0 01.344 1.106l.933.08a2.472 2.472 0 00-.555-1.784zM14.285 20.993h.82v.937h-.82v-.937z"/></symbol><symbol xmlns="http://www.w3.org/2000/svg" id="retention" fill="none" viewBox="0 0 18 18"><path fill="#000" fill-rule="evenodd" d="M18 .01v4.495h-4.495V.01H18zm-6.289 4.495h-2.7C6.53 4.505 4.514 6.541 4.514 9a4.5 4.5 0 004.495 4.495h2.701v4.495h-2.7C4.051 17.99 0 13.96 0 9 0 4.062 4.052.01 9.01.01h2.7v4.495zm1.794 8.99H18v4.495h-4.495v-4.495z" clip-rule="evenodd"/></symbol><symbol xmlns="http://www.w3.org/2000/svg" id="revenue-tracking" fill="none" viewBox="0 0 18 18"><path fill="#000" d="M9 1.688c-4.032 0-7.313 3.28-7.313 7.312S4.969 16.313 9 16.313s7.313-3.28 7.313-7.313c0-4.032-3.28-7.313-7.313-7.313zm0 6.75c1.24 0 2.25 1.01 2.25 2.25a2.25 2.25 0 01-1.688 2.175v.637a.562.562 0 11-1.124 0v-.563H7.312a.562.562 0 110-1.124H9a1.127 1.127 0 000-2.25c-1.24 0-2.25-1.01-2.25-2.25 0-1.047.719-1.926 1.688-2.177V4.5a.562.562 0 111.124 0v.562h1.126a.562.562 0 110 1.125H9c-.62 0-1.125.505-1.125 1.125S8.38 8.437 9 8.437z"/></symbol><symbol xmlns="http://www.w3.org/2000/svg" id="session-recordings" fill="#000" viewBox="0 0 24 24"><path d="M12 1a11 11 0 1011 11A11 11 0 0012 1zm4.55 11.83l-6 4A1 1 0 019 16V8a1 1 0 011.55-.83l6 4a1 1 0 010 1.66z"/></symbol><symbol xmlns="http://www.w3.org/2000/svg" id="trends" fill="none" viewBox="0 0 15 13"><path stroke="#000" stroke-linecap="round" stroke-width="1.5" d="M1 1v11.218m0 0h12.5m-12.5 0L4.846 7.41l2.885.962 5.128-6.09"/></symbol><symbol xmlns="http://www.w3.org/2000/svg" id="user-sessions" fill="none" viewBox="0 0 18 18"><circle cx="9" cy="9" r="8" stroke="#000" stroke-width="2"/><path fill="#000" d="M10 5.22a1 1 0 10-2 0h2zM9 9.559H8a1 1 0 001 1v-1zm3.375 1a1 1 0 100-2v2zM8 5.219v4.34h2v-4.34H8zm1 5.34h3.375v-2H9v2z"/></symbol></svg><svg xmlns="http://www.w3.org/2000/svg" xmlns:xlink="http://www.w3.org/1999/xlink"><symbol xmlns="http://www.w3.org/2000/svg" id="annotations" fill="#000" viewBox="0 0 32 32"><path d="M29.5 16a1.5 1.5 0 01-1.5 1.5h-8.38l5.93 5.92a1.51 1.51 0 01-2.13 2.13l-5.92-5.93V28a1.5 1.5 0 01-3 0v-8.38l-5.92 5.93a1.51 1.51 0 01-2.13-2.13l5.93-5.92H4a1.5 1.5 0 010-3h8.38L6.45 8.58a1.51 1.51 0 012.13-2.13l5.92 5.93V4a1.5 1.5 0 013 0v8.38l5.92-5.93a1.51 1.51 0 012.13 2.13l-5.93 5.92H28a1.5 1.5 0 011.5 1.5z" data-name="54 Asterisk"/></symbol><symbol xmlns="http://www.w3.org/2000/svg" id="api" fill="none" viewBox="0 0 100 100"><g fill="#000" clip-path="url(#bclip0)"><path d="M0 80.359a8.404 8.404 0 008.454 8.454h83.092A8.404 8.404 0 00100 80.358l-.005-49.757H.001V80.36zM41.303 56.08h24.394a2.42 2.42 0 012.416 2.416 2.42 2.42 0 01-2.416 2.415H41.303a2.42 2.42 0 01-2.416-2.415 2.423 2.423 0 012.416-2.416zM12.195 44.73c-.967-.967-.967-2.416 0-3.383.967-.967 2.415-.967 3.382 0l15.46 15.46c.481.481.727 1.085.727 1.689 0 .604-.241 1.208-.727 1.689l-15.46 15.46c-.481.48-1.085.726-1.689.726-.603 0-1.207-.24-1.688-.726-.968-.968-.968-2.416 0-3.383l13.643-13.765L12.195 44.73zM91.54 12H8.454A8.404 8.404 0 000 20.454v5.312h100v-5.312C99.994 15.864 96.13 12 91.54 12zM7.365 23.11a4.071 4.071 0 01-4.105-4.104A4.071 4.071 0 017.365 14.9a4.072 4.072 0 014.104 4.105 4.066 4.066 0 01-4.104 4.104zm12.44 0a4.071 4.071 0 01-4.104-4.104 4.072 4.072 0 014.104-4.105 4.071 4.071 0 014.104 4.105 4.071 4.071 0 01-4.104 4.104zm12.558 0a4.071 4.071 0 01-4.104-4.104 4.072 4.072 0 014.104-4.105 4.072 4.072 0 014.104 4.105 4.066 4.066 0 01-4.104 4.104z"/></g><defs><clipPath id="bclip0"><path fill="A970DC" d="M0 0h100v100H0z"/></clipPath></defs></symbol><symbol xmlns="http://www.w3.org/2000/svg" id="cohorts" fill="none" viewBox="0 0 18 18"><g fill="#000" clip-path="url(#cclip0)"><path d="M11.407 12.534s-2.943-.756-3.358-1.579c-.19-.377-.004-.858.186-1.19.087-.116.171-.24.253-.369.49-.785.865-1.819.904-3.095.057-1.922-1.43-3.481-3.197-3.487h-.007C4.422 2.82 2.934 4.38 2.992 6.301c.038 1.276.413 2.31.904 3.095.082.13.167.253.252.37.19.331.376.812.187 1.19-.415.822-3.358 1.578-3.358 1.578A1.43 1.43 0 000 13.889v1.298h12.382v-1.298c0-.63-.409-1.166-.976-1.355zM17.292 13.256c-.033-.011-2.143-.549-2.444-1.148-.14-.273-.003-.624.135-.866a4.1 4.1 0 00.183-.267c.357-.571.63-1.323.658-2.251.042-1.397-1.04-2.531-2.326-2.535h-.005c-1.286.004-2.37 1.138-2.327 2.535.028.928.3 1.68.659 2.25.059.095.12.184.183.268l.029.053a2.803 2.803 0 011.73 2.593v1.297H18v-.944c0-.458-.298-.847-.71-.985z"/></g><defs><clipPath id="cclip0"><path fill="#fff" d="M0 0h18v18H0z"/></clipPath></defs></symbol><symbol xmlns="http://www.w3.org/2000/svg" id="custom-plugins" fill="#000" viewBox="0 0 32 32"><path d="M28.806 14.145a2.957 2.957 0 00-3.625-2.091 2.946 2.946 0 00-2.069 2.044s-.267.332-.718.623l-1.57-5.856a1.973 1.973 0 00-2.419-1.397l-5.857 1.568c.027-.537.18-.936.18-.936a2.95 2.95 0 00.738-2.813A2.962 2.962 0 009.84 3.194a2.958 2.958 0 00-2.093 3.624 2.95 2.95 0 002.044 2.07s.333.267.626.717l-5.858 1.57a1.979 1.979 0 00-1.399 2.421l1.591 5.937c.395-.262.64-.551.64-.551a2.683 2.683 0 011.886-1.863 2.697 2.697 0 013.305 1.906 2.7 2.7 0 01-1.908 3.307 2.691 2.691 0 01-2.565-.672s-.355-.129-.829-.158l1.591 5.939a1.976 1.976 0 002.422 1.398l5.937-1.59c-.263-.396-.552-.639-.552-.639a2.695 2.695 0 01-1.864-1.887 2.698 2.698 0 115.214-1.399 2.696 2.696 0 01-.672 2.567s-.128.354-.158.829l5.94-1.594a1.976 1.976 0 001.398-2.42l-1.569-5.856c.536.027.934.183.934.183a2.952 2.952 0 002.814.736 2.958 2.958 0 002.091-3.624z"/></symbol><symbol xmlns="http://www.w3.org/2000/svg" id="dashboards" fill="none" viewBox="0 0 100 100"><g fill="#000" clip-path="url(#eclip0)"><path d="M84.384 46.458c-3.51 1.816-4.843 6.294-3.027 9.808 2.663 5.084 4.115 10.774 4.115 16.586 0 3.996 3.268 7.264 7.264 7.264 3.996 0 7.264-3.268 7.264-7.264 0-8.111-2.057-16.221-5.812-23.368a7.191 7.191 0 00-9.804-3.027zm-28.569-8.593c3.997.606 7.747-2.057 8.352-6.053.605-3.996-2.057-7.747-6.053-8.352-2.663-.482-5.448-.605-8.111-.605C22.398 22.85 0 45.248 0 72.853c0 3.996 3.268 7.264 7.264 7.264 3.996 0 7.264-3.268 7.264-7.264 0-19.612 15.98-35.475 35.475-35.475 1.939 0 3.873.123 5.812.487zm31.96-17.437c-.728-.606-1.939-.606-2.544.24L44.067 68.616c-.241.364-.482.605-.728.97-2.057 3.508-.97 7.992 2.544 10.049 3.51 2.057 7.993.97 10.05-2.544l32.324-54.358a1.89 1.89 0 00-.482-2.303v-.001z"/></g><defs><clipPath id="eclip0"><path fill="#000" d="M0 0h100v100H0z"/></clipPath></defs></symbol><symbol xmlns="http://www.w3.org/2000/svg" id="data-enrichment" fill="#000" viewBox="0 0 1024 1024"><path d="M229 260v-61-96.7-22.4c0-20.9-18.4-41-40-40-21.7 1-40 17.6-40 40V260c0 20.9 18.4 41 40 40 21.7-1 40-17.6 40-40zM229 944v-54.8-130.6-158.4-136.9c0-22.1.3-44.3 0-66.4v-1c0-20.9-18.4-41-40-40-21.7 1-40 17.6-40 40V876.6c0 22.1-.3 44.3 0 66.4v1c0 20.9 18.4 41 40 40 21.7-1 40-17.6 40-40z"/><path d="M80 300h219c20.9 0 41-18.4 40-40-1-21.7-17.6-40-40-40H80c-20.9 0-41 18.4-40 40 1 21.7 17.6 40 40 40zM401 688h219c20.9 0 41-18.4 40-40-1-21.7-17.6-40-40-40H401c-20.9 0-41 18.4-40 40 1 21.7 17.6 40 40 40z"/><path d="M551 648v-56.6-135.9-163.8-141.6c0-23 .4-46.1 0-69.1v-1c0-20.9-18.4-41-40-40-21.7 1-40 17.6-40 40v497.9c0 23-.4 46.1 0 69.1v1c0 20.9 18.4 41 40 40 21.7-1 40-17.6 40-40zM551 944V804v-20c0-20.9-18.4-41-40-40-21.7 1-40 17.6-40 40v160c0 20.9 18.4 41 40 40 21.7-1 40-17.6 40-40zM873 439v-35.6-85.9V214v-89.6c0-14.6.3-29.2 0-43.8V80c0-20.9-18.4-41-40-40-21.7 1-40 17.6-40 40v314.6c0 14.6-.3 29.2 0 43.8v.6c0 20.9 18.4 41 40 40 21.7-1 40-17.6 40-40zM873 944v-36.6-87.9-107-92c0-14.9.3-29.9 0-44.8v-.6c0-20.9-18.4-41-40-40-21.7 1-40 17.6-40 40v323.5c0 14.9-.3 29.9 0 44.8v.6c0 20.9 18.4 41 40 40 21.7-1 40-17.6 40-40z"/><path d="M724 479h219c20.9 0 41-18.4 40-40-1-21.7-17.6-40-40-40H724c-20.9 0-41 18.4-40 40 1 21.7 17.6 40 40 40z"/></symbol><symbol xmlns="http://www.w3.org/2000/svg" id="data-export" fill="#000" viewBox="0 0 512 512"><path d="M433.585 182.332C416.648 122.896 362.823 79.46 299.029 79.46c-48.092 0-90.527 24.687-115.76 62.373-12.859-10.718-29.265-17.156-47.17-17.156-41.153 0-74.527 33.999-74.527 75.935a77.6 77.6 0 002.75 20.468C26.432 238.298.011 277.016.011 322.014c0 61.029 48.529 110.527 108.401 110.527h108.323v-97.34h-58.889l98.151-117.685 98.12 117.685h-58.872v97.34h89.061c70.525 0 127.681-58.279 127.681-130.15 0-54.094-32.341-100.435-78.402-120.059z"/></symbol><symbol xmlns="http://www.w3.org/2000/svg" id="data-filtering" fill="#000" viewBox="0 0 1024 1024"><path d="M229 260v-61-96.7-22.4c0-20.9-18.4-41-40-40-21.7 1-40 17.6-40 40V260c0 20.9 18.4 41 40 40 21.7-1 40-17.6 40-40zM229 944v-54.8-130.6-158.4-136.9c0-22.1.3-44.3 0-66.4v-1c0-20.9-18.4-41-40-40-21.7 1-40 17.6-40 40V876.6c0 22.1-.3 44.3 0 66.4v1c0 20.9 18.4 41 40 40 21.7-1 40-17.6 40-40z"/><path d="M80 300h219c20.9 0 41-18.4 40-40-1-21.7-17.6-40-40-40H80c-20.9 0-41 18.4-40 40 1 21.7 17.6 40 40 40zM401 688h219c20.9 0 41-18.4 40-40-1-21.7-17.6-40-40-40H401c-20.9 0-41 18.4-40 40 1 21.7 17.6 40 40 40z"/><path d="M551 648v-56.6-135.9-163.8-141.6c0-23 .4-46.1 0-69.1v-1c0-20.9-18.4-41-40-40-21.7 1-40 17.6-40 40v497.9c0 23-.4 46.1 0 69.1v1c0 20.9 18.4 41 40 40 21.7-1 40-17.6 40-40zM551 944V804v-20c0-20.9-18.4-41-40-40-21.7 1-40 17.6-40 40v160c0 20.9 18.4 41 40 40 21.7-1 40-17.6 40-40zM873 439v-35.6-85.9V214v-89.6c0-14.6.3-29.2 0-43.8V80c0-20.9-18.4-41-40-40-21.7 1-40 17.6-40 40v314.6c0 14.6-.3 29.2 0 43.8v.6c0 20.9 18.4 41 40 40 21.7-1 40-17.6 40-40zM873 944v-36.6-87.9-107-92c0-14.9.3-29.9 0-44.8v-.6c0-20.9-18.4-41-40-40-21.7 1-40 17.6-40 40v323.5c0 14.9-.3 29.9 0 44.8v.6c0 20.9 18.4 41 40 40 21.7-1 40-17.6 40-40z"/><path d="M724 479h219c20.9 0 41-18.4 40-40-1-21.7-17.6-40-40-40H724c-20.9 0-41 18.4-40 40 1 21.7 17.6 40 40 40z"/></symbol><symbol xmlns="http://www.w3.org/2000/svg" id="data-import" fill="#000" viewBox="0 0 20 20"><path fill="#000" fill-rule="evenodd" d="M2 17.002c0 .551.445.998 1 .998h14c.552 0 1-.446 1-.998V9.998A.996.996 0 0017 9c-.552 0-1 .438-1 1.003V16H4v-5.997a.999.999 0 10-2-.005v7.004zM10 2c-.552 0-1 .438-1 1.003V9H6.999c-.552 0-.685.314-.293.706L10 13l3.294-3.294c.39-.39.263-.706-.293-.706H11V3.003A.999.999 0 0010 2z"/></symbol><symbol xmlns="http://www.w3.org/2000/svg" id="data-pipelines" fill="none" viewBox="0 0 100 100"><g clip-path="url(#jclip0)"><path fill="#000" fill-rule="evenodd" d="M33.332 42.949v7.05H16.668a5.552 5.552 0 00-5.559 5.555 5.55 5.55 0 005.559 5.555h16.664v7.051c0 3.356 4.93 5.262 7.566 3.223L59.39 58.778c2.098-1.621 2.383-4.82.282-6.446l-18.91-12.605c-2.645-2.039-7.43-.132-7.43 3.223v-.001zm52.3-23.983l-15.71-15.71A11.117 11.117 0 0062.062 0h-37.06C17.33 0 11.11 6.215 11.11 13.891v19.441a5.558 5.558 0 005.56 5.559 5.555 5.555 0 005.554-5.559v-19.44A2.779 2.779 0 0125 11.11h30.555v16.668c0 3.055 2.5 5.555 5.555 5.555h16.668V86.11A2.779 2.779 0 0175 88.89H25a2.779 2.779 0 01-2.777-2.78v-8.332a5.557 5.557 0 00-11.113 0v8.332c0 7.675 6.219 13.891 13.89 13.891h50c7.673 0 13.892-6.215 13.892-13.891V26.82c0-2.94-1.176-5.769-3.258-7.855" clip-rule="evenodd"/></g><defs><clipPath id="jclip0"><path fill="#fff" d="M0 0h100v100H0z"/></clipPath></defs></symbol><symbol xmlns="http://www.w3.org/2000/svg" id="data-privacy" viewBox="0 0 100 100"><path fill="#000" d="M50 0L0 10c0 72.222 50 90 50 90s50-17.778 50-90L50 0zm20 65c0 2.764-2.236 5-5 5H35c-2.764 0-5-2.236-5-5V40c0-2.764 2.236-5 5-5v-5c0-8.286 6.714-15 15-15s15 6.714 15 15v5c2.764 0 5 2.236 5 5v25zM60 30v5H40v-5c0-5.513 4.482-10 10-10s10 4.487 10 10zm-5 20a4.989 4.989 0 01-2.5 4.326V60h-5v-5.674A4.997 4.997 0 0150 45c2.764 0 5 2.236 5 5z"/></symbol><symbol xmlns="http://www.w3.org/2000/svg" id="data-warehouse" fill="none" viewBox="0 0 100 100"><path fill="#000" d="M59.89 37.208a8.94 8.94 0 00-8.947 8.947c0 4.946 4 8.947 8.947 8.947 4.946 0 8.947-4 8.947-8.947a8.938 8.938 0 00-8.947-8.947z"/><path fill="#000" d="M88.626 7H11.37C5.053 7 0 12.156 0 18.369v55.894c0 6.316 5.156 11.369 11.369 11.369h3.265l1.262 5.053c.42 1.575 1.788 2.628 3.367 2.628h11.052c1.58 0 2.841-1.053 3.265-2.525l1.262-5.053h30.316l1.262 5.053a3.503 3.503 0 003.367 2.525H80.84c1.58 0 2.842-1.053 3.265-2.525l1.262-5.053h3.265c6.316 0 11.369-5.156 11.369-11.37l-.004-55.995C99.996 12.157 94.84 7 88.627 7zM17.368 26.682a3.28 3.28 0 013.264-3.264 3.28 3.28 0 013.265 3.264v39.472a3.28 3.28 0 01-3.265 3.265c-1.792 0-3.264-1.58-3.264-3.368V26.682zm45.577 38.946a3.28 3.28 0 01-3.264 3.264 3.28 3.28 0 01-3.265-3.264V61.31c-1.788-.419-3.577-1.16-5.053-2.212l-3.051 3.051a3.256 3.256 0 01-2.315.946 3.266 3.266 0 01-2.315-.946c-1.262-1.262-1.262-3.367 0-4.63l3.158-3.157c-.946-1.58-1.686-3.265-1.998-5.053h-4.42a3.28 3.28 0 01-3.265-3.265 3.28 3.28 0 013.265-3.265h4.527c.42-1.788 1.16-3.474 2.105-5.053l-3.158-3.158c-1.262-1.262-1.262-3.367 0-4.63 1.262-1.262 3.368-1.262 4.63 0l3.158 3.158c1.472-.945 3.264-1.686 5.053-2.105v-4.42A3.28 3.28 0 0160 23.306a3.28 3.28 0 013.265 3.265v4.42a15.55 15.55 0 015.053 2.105l3.051-3.05c1.262-1.263 3.368-1.263 4.63 0 1.262 1.262 1.262 3.367 0 4.63l-3.05 3.05c1.052 1.579 1.788 3.265 2.104 5.156h4.21a3.28 3.28 0 013.265 3.265 3.28 3.28 0 01-3.264 3.264h-4.21a14.98 14.98 0 01-2.213 5.156l2.948 2.948c1.262 1.263 1.262 3.368 0 4.63a3.256 3.256 0 01-2.315.946 3.267 3.267 0 01-2.314-.946l-3.051-3.05c-1.58.945-3.265 1.685-5.156 2.104l-.009 4.429z"/></symbol><symbol xmlns="http://www.w3.org/2000/svg" id="event-autocapture" fill="none" viewBox="0 0 100 100"><g fill="#000" clip-path="url(#mclip0)"><path fill-rule="evenodd" d="M30.678 34.683l24.045 63.395c1.092 2.913 4.738 2.187 5.463 0l10.93-25.141c.363-.73.73-1.459 1.459-1.821l25.503-10.93c2.187-.73 2.913-4.372 0-5.464L34.32 30.678c-2.187-.73-4.371 1.458-3.642 4.008v-.003z" clip-rule="evenodd"/><path d="M13.192 9.18c-1.092-1.093-2.913-1.093-4.371 0-1.092 1.091-1.092 3.279 0 4.37l12.388 12.023a2.73 2.73 0 004.372 0c1.092-1.092 1.092-2.913 0-4.371L13.192 9.179zm25.141-6.922C37.603.799 36.145-.292 34.324.07c-1.458.73-2.55 2.188-2.188 4.009l3.28 11.292c.363 1.821 2.188 2.55 3.642 2.188 1.821-.363 2.55-2.188 2.188-3.642l-2.913-11.66zM4.083 32.862c-1.459-.73-3.28.362-3.643 2.187-.362 1.459.363 3.28 2.188 3.643l11.293 2.913c1.82.729 3.28-.363 4.008-2.188.363-1.459-.729-3.28-2.187-3.642l-11.66-2.913z"/></g><defs><clipPath id="mclip0"><path fill="#000" d="M0 0h100v100H0z" transform="matrix(-1 0 0 1 100 0)"/></clipPath></defs></symbol><symbol xmlns="http://www.w3.org/2000/svg" id="feature-flags" fill="#000" viewBox="0 0 16.933 16.933"><path style="line-height:normal;font-variant-ligatures:normal;font-variant-position:normal;font-variant-caps:normal;font-variant-numeric:normal;font-variant-alternates:normal;font-variant-east-asian:normal;font-feature-settings:normal;font-variation-settings:normal;text-indent:0;text-align:start;text-decoration-line:none;text-decoration-style:solid;text-decoration-color:#000;text-transform:none;text-orientation:mixed;white-space:normal;shape-padding:0;shape-margin:0;inline-size:0;isolation:auto;mix-blend-mode:normal;solid-color:#000;solid-opacity:1" fill="#000" d="M4.233 2.911a.265.265 0 00-.266.264v10.584a.265.265 0 00.266.263.265.265 0 00.264-.263v-3.97H12.7a.265.265 0 00.187-.452L9.9 6.35l2.988-2.988a.265.265 0 00-.187-.451z" color="#000" font-family="sans-serif" font-weight="400" overflow="visible" stop-color="#000"/></symbol><symbol xmlns="http://www.w3.org/2000/svg" id="funnels" fill="none" viewBox="0 0 14 15"><rect width="14" height="3" fill="#000" rx="1"/><rect width="10" height="3" x="2" y="5" fill="#000" rx="1"/><rect width="6" height="3" x="4" y="10" fill="#000" rx="1"/></symbol><symbol xmlns="http://www.w3.org/2000/svg" id="heatmaps" fill="#000" viewBox="0 0 100 100"><g fill="#000" fill-rule="evenodd"><circle cx="72" cy="40" r="13"/><circle cx="44.5" cy="62.5" r="17.5"/><circle cx="23.5" cy="38.5" r="9.5"/><circle cx="75.5" cy="72.5" r="6.5"/><g transform="translate(6 6)"><circle cx="16.5" cy="5.5" r="1.5"/><circle cx="6.5" cy="5.5" r="1.5"/><circle cx="11.5" cy="5.5" r="1.5"/><path fill-rule="nonzero" d="M.5 11h87.147V9H.5z"/><path fill-rule="nonzero" d="M2 2v82h84V2H2zm0-2h84a2 2 0 012 2v82a2 2 0 01-2 2H2a2 2 0 01-2-2V2a2 2 0 012-2z"/></g></g></symbol><symbol xmlns="http://www.w3.org/2000/svg" id="hosting-flexibility" viewBox="0 0 32 32"><path fill="#000" d="M5.27 11.26c-1.12 0-2.03.91-2.03 2.03v4.86c0 1.12.91 2.02 2.03 2.02H15v3.35c-1.3.35-2.31 1.37-2.67 2.66H5.96c-.55 0-1 .45-1 1 0 .56.45 1 1 1h6.37C12.78 29.8 14.24 31 16 31s3.22-1.2 3.67-2.82h6.37c.55 0 1-.44 1-1 0-.55-.45-1-1-1h-6.37A3.811 3.811 0 0017 23.52v-3.35h9.73c1.12 0 2.03-.9 2.03-2.02v-4.86c0-1.12-.91-2.03-2.03-2.03H17V9.91h9.74c1.11 0 2.02-.91 2.02-2.02V3.02c0-1.11-.91-2.02-2.02-2.02H5.26c-1.11 0-2.02.91-2.02 2.02v4.87c0 1.11.91 2.02 2.02 2.02H15v1.35H5.27zm1.47 4.46c0-.56.44-1 1-1h11.4c.55 0 1 .44 1 1 0 .55-.45 1-1 1H7.74c-.56 0-1-.45-1-1zm16.23 1.29a1.295 1.295 0 11-.01-2.59 1.295 1.295 0 01.01 2.59zm-5.15 10.17a1.82 1.82 0 01-3.64 0c0-1 .82-1.81 1.82-1.81s1.82.81 1.82 1.81zm6.44-21.72a1.295 1.295 0 11-2.59-.01 1.295 1.295 0 012.59.01zm-16.52-1h11.4c.55 0 1 .44 1 1 0 .55-.45 1-1 1H7.74c-.56 0-1-.45-1-1 0-.56.44-1 1-1z"/></symbol><symbol xmlns="http://www.w3.org/2000/svg" id="open-source" fill="red" viewBox="0 0 100 100"><path fill="#000" d="M50 1.59c-27.569 0-50 22.432-50 50 0 20.57 12.894 39.3 32.075 46.607.8.319 1.7.269 2.475-.106a3.136 3.136 0 001.619-1.882l9.375-29.937a3.12 3.12 0 00-1.469-3.669c-4.056-2.237-6.575-6.456-6.575-11.012 0-6.894 5.606-12.5 12.5-12.5s12.5 5.606 12.5 12.5c0 4.556-2.519 8.775-6.575 11.018a3.112 3.112 0 00-1.469 3.67l9.375 29.937c.257.825.844 1.5 1.619 1.88a3.104 3.104 0 002.475.106C87.113 90.892 100 72.16 100 51.592c0-27.57-22.431-50-50-50z"/></symbol><symbol xmlns="http://www.w3.org/2000/svg" id="paths" fill="none" viewBox="0 0 24 24"><path fill="#000" d="M5.943 2.07a3.791 3.791 0 00-3.787 3.787c0 .68.195 1.41.58 2.175.303.602.725 1.226 1.252 1.856a14.004 14.004 0 001.81 1.803l.148.117.145-.117c.038-.03.917-.74 1.81-1.81a9.825 9.825 0 001.248-1.856c.385-.764.582-1.492.582-2.167 0-2.09-1.7-3.789-3.788-3.789zm0 4.858a1.071 1.071 0 11.002-2.143 1.071 1.071 0 01-.002 2.143zM20.277 9.429a5.32 5.32 0 00-3.788-1.568c-1.43 0-2.778.557-3.787 1.568a5.32 5.32 0 00-1.569 3.787c0 .964.277 2.002.825 3.092.433.861 1.036 1.753 1.79 2.655 1.283 1.53 2.543 2.543 2.596 2.586l.148.117.145-.117a20.481 20.481 0 002.595-2.595c.755-.905 1.358-1.798 1.79-2.658.55-1.087.826-2.123.826-3.08a5.33 5.33 0 00-1.572-3.787zm-3.788 5.28a1.49 1.49 0 110-2.982 1.49 1.49 0 010 2.982zM7.599 12.105a1.483 1.483 0 00-.324-.035h-.394v-.938h.394c.176 0 .352.019.52.056l-.196.917zM11.399 20.994v.937h1.554v-.937h-1.554zm-2.886 0v.937h1.554v-.937H8.513zm-2.402 0c-.136 0-.27-.012-.401-.033l-.152.926c.183.03.368.045.553.045h1.074v-.937l-1.074-.001zm-2.248-1.45l-.853.386a3.41 3.41 0 001.132 1.373l.544-.764a2.45 2.45 0 01-.823-.996zm-.64-2.818a3.419 3.419 0 00-.515 1.705l.938.026c.01-.439.14-.864.373-1.233l-.795-.498zm2.785-1.598a3.426 3.426 0 00-1.704.515l.498.795c.37-.232.797-.36 1.233-.373l-.027-.937zm2.379-.483a1.508 1.508 0 01-1.052.48l.035.938a2.445 2.445 0 001.7-.777l-.683-.641zm.787-2.615l-.722.598a1.531 1.531 0 01.344 1.106l.933.08a2.472 2.472 0 00-.555-1.784zM14.285 20.993h.82v.937h-.82v-.937z"/></symbol><symbol xmlns="http://www.w3.org/2000/svg" id="retention" fill="none" viewBox="0 0 18 18"><path fill="#000" fill-rule="evenodd" d="M18 .01v4.495h-4.495V.01H18zm-6.289 4.495h-2.7C6.53 4.505 4.514 6.541 4.514 9a4.5 4.5 0 004.495 4.495h2.701v4.495h-2.7C4.051 17.99 0 13.96 0 9 0 4.062 4.052.01 9.01.01h2.7v4.495zm1.794 8.99H18v4.495h-4.495v-4.495z" clip-rule="evenodd"/></symbol><symbol xmlns="http://www.w3.org/2000/svg" id="revenue-tracking" fill="none" viewBox="0 0 18 18"><path fill="#000" d="M9 1.688c-4.032 0-7.313 3.28-7.313 7.312S4.969 16.313 9 16.313s7.313-3.28 7.313-7.313c0-4.032-3.28-7.313-7.313-7.313zm0 6.75c1.24 0 2.25 1.01 2.25 2.25a2.25 2.25 0 01-1.688 2.175v.637a.562.562 0 11-1.124 0v-.563H7.312a.562.562 0 110-1.124H9a1.127 1.127 0 000-2.25c-1.24 0-2.25-1.01-2.25-2.25 0-1.047.719-1.926 1.688-2.177V4.5a.562.562 0 111.124 0v.562h1.126a.562.562 0 110 1.125H9c-.62 0-1.125.505-1.125 1.125S8.38 8.437 9 8.437z"/></symbol><symbol xmlns="http://www.w3.org/2000/svg" id="session-recordings" fill="#000" viewBox="0 0 24 24"><path d="M12 1a11 11 0 1011 11A11 11 0 0012 1zm4.55 11.83l-6 4A1 1 0 019 16V8a1 1 0 011.55-.83l6 4a1 1 0 010 1.66z"/></symbol><symbol xmlns="http://www.w3.org/2000/svg" id="trends" fill="none" viewBox="0 0 15 13"><path stroke="#000" stroke-linecap="round" stroke-width="1.5" d="M1 1v11.218m0 0h12.5m-12.5 0L4.846 7.41l2.885.962 5.128-6.09"/></symbol><symbol xmlns="http://www.w3.org/2000/svg" id="user-sessions" fill="none" viewBox="0 0 18 18"><circle cx="9" cy="9" r="8" stroke="#000" stroke-width="2"/><path fill="#000" d="M10 5.22a1 1 0 10-2 0h2zM9 9.559H8a1 1 0 001 1v-1zm3.375 1a1 1 0 100-2v2zM8 5.219v4.34h2v-4.34H8zm1 5.34h3.375v-2H9v2z"/></symbol></svg><svg xmlns="http://www.w3.org/2000/svg" xmlns:xlink="http://www.w3.org/1999/xlink"><symbol xmlns="http://www.w3.org/2000/svg" id="annotations" fill="#000" viewBox="0 0 32 32"><path d="M29.5 16a1.5 1.5 0 01-1.5 1.5h-8.38l5.93 5.92a1.51 1.51 0 01-2.13 2.13l-5.92-5.93V28a1.5 1.5 0 01-3 0v-8.38l-5.92 5.93a1.51 1.51 0 01-2.13-2.13l5.93-5.92H4a1.5 1.5 0 010-3h8.38L6.45 8.58a1.51 1.51 0 012.13-2.13l5.92 5.93V4a1.5 1.5 0 013 0v8.38l5.92-5.93a1.51 1.51 0 012.13 2.13l-5.93 5.92H28a1.5 1.5 0 011.5 1.5z" data-name="54 Asterisk"/></symbol><symbol xmlns="http://www.w3.org/2000/svg" id="api" fill="none" viewBox="0 0 100 100"><g fill="#000" clip-path="url(#bclip0)"><path d="M0 80.359a8.404 8.404 0 008.454 8.454h83.092A8.404 8.404 0 00100 80.358l-.005-49.757H.001V80.36zM41.303 56.08h24.394a2.42 2.42 0 012.416 2.416 2.42 2.42 0 01-2.416 2.415H41.303a2.42 2.42 0 01-2.416-2.415 2.423 2.423 0 012.416-2.416zM12.195 44.73c-.967-.967-.967-2.416 0-3.383.967-.967 2.415-.967 3.382 0l15.46 15.46c.481.481.727 1.085.727 1.689 0 .604-.241 1.208-.727 1.689l-15.46 15.46c-.481.48-1.085.726-1.689.726-.603 0-1.207-.24-1.688-.726-.968-.968-.968-2.416 0-3.383l13.643-13.765L12.195 44.73zM91.54 12H8.454A8.404 8.404 0 000 20.454v5.312h100v-5.312C99.994 15.864 96.13 12 91.54 12zM7.365 23.11a4.071 4.071 0 01-4.105-4.104A4.071 4.071 0 017.365 14.9a4.072 4.072 0 014.104 4.105 4.066 4.066 0 01-4.104 4.104zm12.44 0a4.071 4.071 0 01-4.104-4.104 4.072 4.072 0 014.104-4.105 4.071 4.071 0 014.104 4.105 4.071 4.071 0 01-4.104 4.104zm12.558 0a4.071 4.071 0 01-4.104-4.104 4.072 4.072 0 014.104-4.105 4.072 4.072 0 014.104 4.105 4.066 4.066 0 01-4.104 4.104z"/></g><defs><clipPath id="bclip0"><path fill="A970DC" d="M0 0h100v100H0z"/></clipPath></defs></symbol><symbol xmlns="http://www.w3.org/2000/svg" id="cohorts" fill="none" viewBox="0 0 18 18"><g fill="#000" clip-path="url(#cclip0)"><path d="M11.407 12.534s-2.943-.756-3.358-1.579c-.19-.377-.004-.858.186-1.19.087-.116.171-.24.253-.369.49-.785.865-1.819.904-3.095.057-1.922-1.43-3.481-3.197-3.487h-.007C4.422 2.82 2.934 4.38 2.992 6.301c.038 1.276.413 2.31.904 3.095.082.13.167.253.252.37.19.331.376.812.187 1.19-.415.822-3.358 1.578-3.358 1.578A1.43 1.43 0 000 13.889v1.298h12.382v-1.298c0-.63-.409-1.166-.976-1.355zM17.292 13.256c-.033-.011-2.143-.549-2.444-1.148-.14-.273-.003-.624.135-.866a4.1 4.1 0 00.183-.267c.357-.571.63-1.323.658-2.251.042-1.397-1.04-2.531-2.326-2.535h-.005c-1.286.004-2.37 1.138-2.327 2.535.028.928.3 1.68.659 2.25.059.095.12.184.183.268l.029.053a2.803 2.803 0 011.73 2.593v1.297H18v-.944c0-.458-.298-.847-.71-.985z"/></g><defs><clipPath id="cclip0"><path fill="#fff" d="M0 0h18v18H0z"/></clipPath></defs></symbol><symbol xmlns="http://www.w3.org/2000/svg" id="custom-plugins" fill="#000" viewBox="0 0 32 32"><path d="M28.806 14.145a2.957 2.957 0 00-3.625-2.091 2.946 2.946 0 00-2.069 2.044s-.267.332-.718.623l-1.57-5.856a1.973 1.973 0 00-2.419-1.397l-5.857 1.568c.027-.537.18-.936.18-.936a2.95 2.95 0 00.738-2.813A2.962 2.962 0 009.84 3.194a2.958 2.958 0 00-2.093 3.624 2.95 2.95 0 002.044 2.07s.333.267.626.717l-5.858 1.57a1.979 1.979 0 00-1.399 2.421l1.591 5.937c.395-.262.64-.551.64-.551a2.683 2.683 0 011.886-1.863 2.697 2.697 0 013.305 1.906 2.7 2.7 0 01-1.908 3.307 2.691 2.691 0 01-2.565-.672s-.355-.129-.829-.158l1.591 5.939a1.976 1.976 0 002.422 1.398l5.937-1.59c-.263-.396-.552-.639-.552-.639a2.695 2.695 0 01-1.864-1.887 2.698 2.698 0 115.214-1.399 2.696 2.696 0 01-.672 2.567s-.128.354-.158.829l5.94-1.594a1.976 1.976 0 001.398-2.42l-1.569-5.856c.536.027.934.183.934.183a2.952 2.952 0 002.814.736 2.958 2.958 0 002.091-3.624z"/></symbol><symbol xmlns="http://www.w3.org/2000/svg" id="dashboards" fill="none" viewBox="0 0 100 100"><g fill="#000" clip-path="url(#eclip0)"><path d="M84.384 46.458c-3.51 1.816-4.843 6.294-3.027 9.808 2.663 5.084 4.115 10.774 4.115 16.586 0 3.996 3.268 7.264 7.264 7.264 3.996 0 7.264-3.268 7.264-7.264 0-8.111-2.057-16.221-5.812-23.368a7.191 7.191 0 00-9.804-3.027zm-28.569-8.593c3.997.606 7.747-2.057 8.352-6.053.605-3.996-2.057-7.747-6.053-8.352-2.663-.482-5.448-.605-8.111-.605C22.398 22.85 0 45.248 0 72.853c0 3.996 3.268 7.264 7.264 7.264 3.996 0 7.264-3.268 7.264-7.264 0-19.612 15.98-35.475 35.475-35.475 1.939 0 3.873.123 5.812.487zm31.96-17.437c-.728-.606-1.939-.606-2.544.24L44.067 68.616c-.241.364-.482.605-.728.97-2.057 3.508-.97 7.992 2.544 10.049 3.51 2.057 7.993.97 10.05-2.544l32.324-54.358a1.89 1.89 0 00-.482-2.303v-.001z"/></g><defs><clipPath id="eclip0"><path fill="#000" d="M0 0h100v100H0z"/></clipPath></defs></symbol><symbol xmlns="http://www.w3.org/2000/svg" id="data-enrichment" fill="#000" viewBox="0 0 1024 1024"><path d="M229 260v-61-96.7-22.4c0-20.9-18.4-41-40-40-21.7 1-40 17.6-40 40V260c0 20.9 18.4 41 40 40 21.7-1 40-17.6 40-40zM229 944v-54.8-130.6-158.4-136.9c0-22.1.3-44.3 0-66.4v-1c0-20.9-18.4-41-40-40-21.7 1-40 17.6-40 40V876.6c0 22.1-.3 44.3 0 66.4v1c0 20.9 18.4 41 40 40 21.7-1 40-17.6 40-40z"/><path d="M80 300h219c20.9 0 41-18.4 40-40-1-21.7-17.6-40-40-40H80c-20.9 0-41 18.4-40 40 1 21.7 17.6 40 40 40zM401 688h219c20.9 0 41-18.4 40-40-1-21.7-17.6-40-40-40H401c-20.9 0-41 18.4-40 40 1 21.7 17.6 40 40 40z"/><path d="M551 648v-56.6-135.9-163.8-141.6c0-23 .4-46.1 0-69.1v-1c0-20.9-18.4-41-40-40-21.7 1-40 17.6-40 40v497.9c0 23-.4 46.1 0 69.1v1c0 20.9 18.4 41 40 40 21.7-1 40-17.6 40-40zM551 944V804v-20c0-20.9-18.4-41-40-40-21.7 1-40 17.6-40 40v160c0 20.9 18.4 41 40 40 21.7-1 40-17.6 40-40zM873 439v-35.6-85.9V214v-89.6c0-14.6.3-29.2 0-43.8V80c0-20.9-18.4-41-40-40-21.7 1-40 17.6-40 40v314.6c0 14.6-.3 29.2 0 43.8v.6c0 20.9 18.4 41 40 40 21.7-1 40-17.6 40-40zM873 944v-36.6-87.9-107-92c0-14.9.3-29.9 0-44.8v-.6c0-20.9-18.4-41-40-40-21.7 1-40 17.6-40 40v323.5c0 14.9-.3 29.9 0 44.8v.6c0 20.9 18.4 41 40 40 21.7-1 40-17.6 40-40z"/><path d="M724 479h219c20.9 0 41-18.4 40-40-1-21.7-17.6-40-40-40H724c-20.9 0-41 18.4-40 40 1 21.7 17.6 40 40 40z"/></symbol><symbol xmlns="http://www.w3.org/2000/svg" id="data-export" fill="#000" viewBox="0 0 512 512"><path d="M433.585 182.332C416.648 122.896 362.823 79.46 299.029 79.46c-48.092 0-90.527 24.687-115.76 62.373-12.859-10.718-29.265-17.156-47.17-17.156-41.153 0-74.527 33.999-74.527 75.935a77.6 77.6 0 002.75 20.468C26.432 238.298.011 277.016.011 322.014c0 61.029 48.529 110.527 108.401 110.527h108.323v-97.34h-58.889l98.151-117.685 98.12 117.685h-58.872v97.34h89.061c70.525 0 127.681-58.279 127.681-130.15 0-54.094-32.341-100.435-78.402-120.059z"/></symbol><symbol xmlns="http://www.w3.org/2000/svg" id="data-filtering" fill="#000" viewBox="0 0 1024 1024"><path d="M229 260v-61-96.7-22.4c0-20.9-18.4-41-40-40-21.7 1-40 17.6-40 40V260c0 20.9 18.4 41 40 40 21.7-1 40-17.6 40-40zM229 944v-54.8-130.6-158.4-136.9c0-22.1.3-44.3 0-66.4v-1c0-20.9-18.4-41-40-40-21.7 1-40 17.6-40 40V876.6c0 22.1-.3 44.3 0 66.4v1c0 20.9 18.4 41 40 40 21.7-1 40-17.6 40-40z"/><path d="M80 300h219c20.9 0 41-18.4 40-40-1-21.7-17.6-40-40-40H80c-20.9 0-41 18.4-40 40 1 21.7 17.6 40 40 40zM401 688h219c20.9 0 41-18.4 40-40-1-21.7-17.6-40-40-40H401c-20.9 0-41 18.4-40 40 1 21.7 17.6 40 40 40z"/><path d="M551 648v-56.6-135.9-163.8-141.6c0-23 .4-46.1 0-69.1v-1c0-20.9-18.4-41-40-40-21.7 1-40 17.6-40 40v497.9c0 23-.4 46.1 0 69.1v1c0 20.9 18.4 41 40 40 21.7-1 40-17.6 40-40zM551 944V804v-20c0-20.9-18.4-41-40-40-21.7 1-40 17.6-40 40v160c0 20.9 18.4 41 40 40 21.7-1 40-17.6 40-40zM873 439v-35.6-85.9V214v-89.6c0-14.6.3-29.2 0-43.8V80c0-20.9-18.4-41-40-40-21.7 1-40 17.6-40 40v314.6c0 14.6-.3 29.2 0 43.8v.6c0 20.9 18.4 41 40 40 21.7-1 40-17.6 40-40zM873 944v-36.6-87.9-107-92c0-14.9.3-29.9 0-44.8v-.6c0-20.9-18.4-41-40-40-21.7 1-40 17.6-40 40v323.5c0 14.9-.3 29.9 0 44.8v.6c0 20.9 18.4 41 40 40 21.7-1 40-17.6 40-40z"/><path d="M724 479h219c20.9 0 41-18.4 40-40-1-21.7-17.6-40-40-40H724c-20.9 0-41 18.4-40 40 1 21.7 17.6 40 40 40z"/></symbol><symbol xmlns="http://www.w3.org/2000/svg" id="data-import" fill="#000" viewBox="0 0 20 20"><path fill="#000" fill-rule="evenodd" d="M2 17.002c0 .551.445.998 1 .998h14c.552 0 1-.446 1-.998V9.998A.996.996 0 0017 9c-.552 0-1 .438-1 1.003V16H4v-5.997a.999.999 0 10-2-.005v7.004zM10 2c-.552 0-1 .438-1 1.003V9H6.999c-.552 0-.685.314-.293.706L10 13l3.294-3.294c.39-.39.263-.706-.293-.706H11V3.003A.999.999 0 0010 2z"/></symbol><symbol xmlns="http://www.w3.org/2000/svg" id="data-pipelines" fill="none" viewBox="0 0 100 100"><g clip-path="url(#jclip0)"><path fill="#000" fill-rule="evenodd" d="M33.332 42.949v7.05H16.668a5.552 5.552 0 00-5.559 5.555 5.55 5.55 0 005.559 5.555h16.664v7.051c0 3.356 4.93 5.262 7.566 3.223L59.39 58.778c2.098-1.621 2.383-4.82.282-6.446l-18.91-12.605c-2.645-2.039-7.43-.132-7.43 3.223v-.001zm52.3-23.983l-15.71-15.71A11.117 11.117 0 0062.062 0h-37.06C17.33 0 11.11 6.215 11.11 13.891v19.441a5.558 5.558 0 005.56 5.559 5.555 5.555 0 005.554-5.559v-19.44A2.779 2.779 0 0125 11.11h30.555v16.668c0 3.055 2.5 5.555 5.555 5.555h16.668V86.11A2.779 2.779 0 0175 88.89H25a2.779 2.779 0 01-2.777-2.78v-8.332a5.557 5.557 0 00-11.113 0v8.332c0 7.675 6.219 13.891 13.89 13.891h50c7.673 0 13.892-6.215 13.892-13.891V26.82c0-2.94-1.176-5.769-3.258-7.855" clip-rule="evenodd"/></g><defs><clipPath id="jclip0"><path fill="#fff" d="M0 0h100v100H0z"/></clipPath></defs></symbol><symbol xmlns="http://www.w3.org/2000/svg" id="data-privacy" viewBox="0 0 100 100"><path fill="#000" d="M50 0L0 10c0 72.222 50 90 50 90s50-17.778 50-90L50 0zm20 65c0 2.764-2.236 5-5 5H35c-2.764 0-5-2.236-5-5V40c0-2.764 2.236-5 5-5v-5c0-8.286 6.714-15 15-15s15 6.714 15 15v5c2.764 0 5 2.236 5 5v25zM60 30v5H40v-5c0-5.513 4.482-10 10-10s10 4.487 10 10zm-5 20a4.989 4.989 0 01-2.5 4.326V60h-5v-5.674A4.997 4.997 0 0150 45c2.764 0 5 2.236 5 5z"/></symbol><symbol xmlns="http://www.w3.org/2000/svg" id="data-warehouse" fill="none" viewBox="0 0 100 100"><path fill="#000" d="M59.89 37.208a8.94 8.94 0 00-8.947 8.947c0 4.946 4 8.947 8.947 8.947 4.946 0 8.947-4 8.947-8.947a8.938 8.938 0 00-8.947-8.947z"/><path fill="#000" d="M88.626 7H11.37C5.053 7 0 12.156 0 18.369v55.894c0 6.316 5.156 11.369 11.369 11.369h3.265l1.262 5.053c.42 1.575 1.788 2.628 3.367 2.628h11.052c1.58 0 2.841-1.053 3.265-2.525l1.262-5.053h30.316l1.262 5.053a3.503 3.503 0 003.367 2.525H80.84c1.58 0 2.842-1.053 3.265-2.525l1.262-5.053h3.265c6.316 0 11.369-5.156 11.369-11.37l-.004-55.995C99.996 12.157 94.84 7 88.627 7zM17.368 26.682a3.28 3.28 0 013.264-3.264 3.28 3.28 0 013.265 3.264v39.472a3.28 3.28 0 01-3.265 3.265c-1.792 0-3.264-1.58-3.264-3.368V26.682zm45.577 38.946a3.28 3.28 0 01-3.264 3.264 3.28 3.28 0 01-3.265-3.264V61.31c-1.788-.419-3.577-1.16-5.053-2.212l-3.051 3.051a3.256 3.256 0 01-2.315.946 3.266 3.266 0 01-2.315-.946c-1.262-1.262-1.262-3.367 0-4.63l3.158-3.157c-.946-1.58-1.686-3.265-1.998-5.053h-4.42a3.28 3.28 0 01-3.265-3.265 3.28 3.28 0 013.265-3.265h4.527c.42-1.788 1.16-3.474 2.105-5.053l-3.158-3.158c-1.262-1.262-1.262-3.367 0-4.63 1.262-1.262 3.368-1.262 4.63 0l3.158 3.158c1.472-.945 3.264-1.686 5.053-2.105v-4.42A3.28 3.28 0 0160 23.306a3.28 3.28 0 013.265 3.265v4.42a15.55 15.55 0 015.053 2.105l3.051-3.05c1.262-1.263 3.368-1.263 4.63 0 1.262 1.262 1.262 3.367 0 4.63l-3.05 3.05c1.052 1.579 1.788 3.265 2.104 5.156h4.21a3.28 3.28 0 013.265 3.265 3.28 3.28 0 01-3.264 3.264h-4.21a14.98 14.98 0 01-2.213 5.156l2.948 2.948c1.262 1.263 1.262 3.368 0 4.63a3.256 3.256 0 01-2.315.946 3.267 3.267 0 01-2.314-.946l-3.051-3.05c-1.58.945-3.265 1.685-5.156 2.104l-.009 4.429z"/></symbol><symbol xmlns="http://www.w3.org/2000/svg" id="event-autocapture" fill="none" viewBox="0 0 100 100"><g fill="#000" clip-path="url(#mclip0)"><path fill-rule="evenodd" d="M30.678 34.683l24.045 63.395c1.092 2.913 4.738 2.187 5.463 0l10.93-25.141c.363-.73.73-1.459 1.459-1.821l25.503-10.93c2.187-.73 2.913-4.372 0-5.464L34.32 30.678c-2.187-.73-4.371 1.458-3.642 4.008v-.003z" clip-rule="evenodd"/><path d="M13.192 9.18c-1.092-1.093-2.913-1.093-4.371 0-1.092 1.091-1.092 3.279 0 4.37l12.388 12.023a2.73 2.73 0 004.372 0c1.092-1.092 1.092-2.913 0-4.371L13.192 9.179zm25.141-6.922C37.603.799 36.145-.292 34.324.07c-1.458.73-2.55 2.188-2.188 4.009l3.28 11.292c.363 1.821 2.188 2.55 3.642 2.188 1.821-.363 2.55-2.188 2.188-3.642l-2.913-11.66zM4.083 32.862c-1.459-.73-3.28.362-3.643 2.187-.362 1.459.363 3.28 2.188 3.643l11.293 2.913c1.82.729 3.28-.363 4.008-2.188.363-1.459-.729-3.28-2.187-3.642l-11.66-2.913z"/></g><defs><clipPath id="mclip0"><path fill="#000" d="M0 0h100v100H0z" transform="matrix(-1 0 0 1 100 0)"/></clipPath></defs></symbol><symbol xmlns="http://www.w3.org/2000/svg" id="feature-flags" fill="#000" viewBox="0 0 16.933 16.933"><path style="line-height:normal;font-variant-ligatures:normal;font-variant-position:normal;font-variant-caps:normal;font-variant-numeric:normal;font-variant-alternates:normal;font-variant-east-asian:normal;font-feature-settings:normal;font-variation-settings:normal;text-indent:0;text-align:start;text-decoration-line:none;text-decoration-style:solid;text-decoration-color:#000;text-transform:none;text-orientation:mixed;white-space:normal;shape-padding:0;shape-margin:0;inline-size:0;isolation:auto;mix-blend-mode:normal;solid-color:#000;solid-opacity:1" fill="#000" d="M4.233 2.911a.265.265 0 00-.266.264v10.584a.265.265 0 00.266.263.265.265 0 00.264-.263v-3.97H12.7a.265.265 0 00.187-.452L9.9 6.35l2.988-2.988a.265.265 0 00-.187-.451z" color="#000" font-family="sans-serif" font-weight="400" overflow="visible" stop-color="#000"/></symbol><symbol xmlns="http://www.w3.org/2000/svg" id="funnels" fill="none" viewBox="0 0 14 15"><rect width="14" height="3" fill="#000" rx="1"/><rect width="10" height="3" x="2" y="5" fill="#000" rx="1"/><rect width="6" height="3" x="4" y="10" fill="#000" rx="1"/></symbol><symbol xmlns="http://www.w3.org/2000/svg" id="heatmaps" fill="#000" viewBox="0 0 100 100"><g fill="#000" fill-rule="evenodd"><circle cx="72" cy="40" r="13"/><circle cx="44.5" cy="62.5" r="17.5"/><circle cx="23.5" cy="38.5" r="9.5"/><circle cx="75.5" cy="72.5" r="6.5"/><g transform="translate(6 6)"><circle cx="16.5" cy="5.5" r="1.5"/><circle cx="6.5" cy="5.5" r="1.5"/><circle cx="11.5" cy="5.5" r="1.5"/><path fill-rule="nonzero" d="M.5 11h87.147V9H.5z"/><path fill-rule="nonzero" d="M2 2v82h84V2H2zm0-2h84a2 2 0 012 2v82a2 2 0 01-2 2H2a2 2 0 01-2-2V2a2 2 0 012-2z"/></g></g></symbol><symbol xmlns="http://www.w3.org/2000/svg" id="hosting-flexibility" viewBox="0 0 32 32"><path fill="#000" d="M5.27 11.26c-1.12 0-2.03.91-2.03 2.03v4.86c0 1.12.91 2.02 2.03 2.02H15v3.35c-1.3.35-2.31 1.37-2.67 2.66H5.96c-.55 0-1 .45-1 1 0 .56.45 1 1 1h6.37C12.78 29.8 14.24 31 16 31s3.22-1.2 3.67-2.82h6.37c.55 0 1-.44 1-1 0-.55-.45-1-1-1h-6.37A3.811 3.811 0 0017 23.52v-3.35h9.73c1.12 0 2.03-.9 2.03-2.02v-4.86c0-1.12-.91-2.03-2.03-2.03H17V9.91h9.74c1.11 0 2.02-.91 2.02-2.02V3.02c0-1.11-.91-2.02-2.02-2.02H5.26c-1.11 0-2.02.91-2.02 2.02v4.87c0 1.11.91 2.02 2.02 2.02H15v1.35H5.27zm1.47 4.46c0-.56.44-1 1-1h11.4c.55 0 1 .44 1 1 0 .55-.45 1-1 1H7.74c-.56 0-1-.45-1-1zm16.23 1.29a1.295 1.295 0 11-.01-2.59 1.295 1.295 0 01.01 2.59zm-5.15 10.17a1.82 1.82 0 01-3.64 0c0-1 .82-1.81 1.82-1.81s1.82.81 1.82 1.81zm6.44-21.72a1.295 1.295 0 11-2.59-.01 1.295 1.295 0 012.59.01zm-16.52-1h11.4c.55 0 1 .44 1 1 0 .55-.45 1-1 1H7.74c-.56 0-1-.45-1-1 0-.56.44-1 1-1z"/></symbol><symbol xmlns="http://www.w3.org/2000/svg" id="open-source" fill="red" viewBox="0 0 100 100"><path fill="#000" d="M50 1.59c-27.569 0-50 22.432-50 50 0 20.57 12.894 39.3 32.075 46.607.8.319 1.7.269 2.475-.106a3.136 3.136 0 001.619-1.882l9.375-29.937a3.12 3.12 0 00-1.469-3.669c-4.056-2.237-6.575-6.456-6.575-11.012 0-6.894 5.606-12.5 12.5-12.5s12.5 5.606 12.5 12.5c0 4.556-2.519 8.775-6.575 11.018a3.112 3.112 0 00-1.469 3.67l9.375 29.937c.257.825.844 1.5 1.619 1.88a3.104 3.104 0 002.475.106C87.113 90.892 100 72.16 100 51.592c0-27.57-22.431-50-50-50z"/></symbol><symbol xmlns="http://www.w3.org/2000/svg" id="paths" fill="none" viewBox="0 0 24 24"><path fill="#000" d="M5.943 2.07a3.791 3.791 0 00-3.787 3.787c0 .68.195 1.41.58 2.175.303.602.725 1.226 1.252 1.856a14.004 14.004 0 001.81 1.803l.148.117.145-.117c.038-.03.917-.74 1.81-1.81a9.825 9.825 0 001.248-1.856c.385-.764.582-1.492.582-2.167 0-2.09-1.7-3.789-3.788-3.789zm0 4.858a1.071 1.071 0 11.002-2.143 1.071 1.071 0 01-.002 2.143zM20.277 9.429a5.32 5.32 0 00-3.788-1.568c-1.43 0-2.778.557-3.787 1.568a5.32 5.32 0 00-1.569 3.787c0 .964.277 2.002.825 3.092.433.861 1.036 1.753 1.79 2.655 1.283 1.53 2.543 2.543 2.596 2.586l.148.117.145-.117a20.481 20.481 0 002.595-2.595c.755-.905 1.358-1.798 1.79-2.658.55-1.087.826-2.123.826-3.08a5.33 5.33 0 00-1.572-3.787zm-3.788 5.28a1.49 1.49 0 110-2.982 1.49 1.49 0 010 2.982zM7.599 12.105a1.483 1.483 0 00-.324-.035h-.394v-.938h.394c.176 0 .352.019.52.056l-.196.917zM11.399 20.994v.937h1.554v-.937h-1.554zm-2.886 0v.937h1.554v-.937H8.513zm-2.402 0c-.136 0-.27-.012-.401-.033l-.152.926c.183.03.368.045.553.045h1.074v-.937l-1.074-.001zm-2.248-1.45l-.853.386a3.41 3.41 0 001.132 1.373l.544-.764a2.45 2.45 0 01-.823-.996zm-.64-2.818a3.419 3.419 0 00-.515 1.705l.938.026c.01-.439.14-.864.373-1.233l-.795-.498zm2.785-1.598a3.426 3.426 0 00-1.704.515l.498.795c.37-.232.797-.36 1.233-.373l-.027-.937zm2.379-.483a1.508 1.508 0 01-1.052.48l.035.938a2.445 2.445 0 001.7-.777l-.683-.641zm.787-2.615l-.722.598a1.531 1.531 0 01.344 1.106l.933.08a2.472 2.472 0 00-.555-1.784zM14.285 20.993h.82v.937h-.82v-.937z"/></symbol><symbol xmlns="http://www.w3.org/2000/svg" id="retention" fill="none" viewBox="0 0 18 18"><path fill="#000" fill-rule="evenodd" d="M18 .01v4.495h-4.495V.01H18zm-6.289 4.495h-2.7C6.53 4.505 4.514 6.541 4.514 9a4.5 4.5 0 004.495 4.495h2.701v4.495h-2.7C4.051 17.99 0 13.96 0 9 0 4.062 4.052.01 9.01.01h2.7v4.495zm1.794 8.99H18v4.495h-4.495v-4.495z" clip-rule="evenodd"/></symbol><symbol xmlns="http://www.w3.org/2000/svg" id="revenue-tracking" fill="none" viewBox="0 0 18 18"><path fill="#000" d="M9 1.688c-4.032 0-7.313 3.28-7.313 7.312S4.969 16.313 9 16.313s7.313-3.28 7.313-7.313c0-4.032-3.28-7.313-7.313-7.313zm0 6.75c1.24 0 2.25 1.01 2.25 2.25a2.25 2.25 0 01-1.688 2.175v.637a.562.562 0 11-1.124 0v-.563H7.312a.562.562 0 110-1.124H9a1.127 1.127 0 000-2.25c-1.24 0-2.25-1.01-2.25-2.25 0-1.047.719-1.926 1.688-2.177V4.5a.562.562 0 111.124 0v.562h1.126a.562.562 0 110 1.125H9c-.62 0-1.125.505-1.125 1.125S8.38 8.437 9 8.437z"/></symbol><symbol xmlns="http://www.w3.org/2000/svg" id="session-recordings" fill="#000" viewBox="0 0 24 24"><path d="M12 1a11 11 0 1011 11A11 11 0 0012 1zm4.55 11.83l-6 4A1 1 0 019 16V8a1 1 0 011.55-.83l6 4a1 1 0 010 1.66z"/></symbol><symbol xmlns="http://www.w3.org/2000/svg" id="trends" fill="none" viewBox="0 0 15 13"><path stroke="#000" stroke-linecap="round" stroke-width="1.5" d="M1 1v11.218m0 0h12.5m-12.5 0L4.846 7.41l2.885.962 5.128-6.09"/></symbol><symbol xmlns="http://www.w3.org/2000/svg" id="user-sessions" fill="none" viewBox="0 0 18 18"><circle cx="9" cy="9" r="8" stroke="#000" stroke-width="2"/><path fill="#000" d="M10 5.22a1 1 0 10-2 0h2zM9 9.559H8a1 1 0 001 1v-1zm3.375 1a1 1 0 100-2v2zM8 5.219v4.34h2v-4.34H8zm1 5.34h3.375v-2H9v2z"/></symbol></svg>