<svg xmlns="http://www.w3.org/2000/svg" xmlns:xlink="http://www.w3.org/1999/xlink" id="Layer_1" x="0" y="0" version="1.1" viewBox="0 0 250 250" style="enable-background:new 0 0 250 250" xml:space="preserve"><style type="text/css">.st0{fill:#dd0031}.st1{fill:#c3002f}.st2{fill:#fff}</style><g><polygon points="125 30 125 30 125 30 31.9 63.2 46.1 186.3 125 230 125 230 125 230 203.9 186.3 218.1 63.2" class="st0"/><polygon points="125 30 125 52.2 125 52.1 125 153.4 125 153.4 125 230 125 230 203.9 186.3 218.1 63.2 125 30" class="st1"/><path d="M125,52.1L66.8,182.6h0h21.7h0l11.7-29.2h49.4l11.7,29.2h0h21.7h0L125,52.1L125,52.1L125,52.1L125,52.1 L125,52.1z M142,135.4H108l17-40.9L142,135.4z" class="st2"/></g></svg>