<svg xmlns="http://www.w3.org/2000/svg" width="512" height="512" viewBox="0 0 512 512"><path fill="#fd4f00" stroke="none" d="M 196.252914 320.822632 L 192.479843 320.139069 C 165.685577 315.156158 148.754623 298.949738 140.736847 273.460999 C 135.726593 257.575867 144.817505 245.880707 161.481888 245.108307 C 175.11824 244.479462 184.462067 252.319519 192.71907 261.444641 C 203.361588 273.201294 213.115509 285.764496 223.573486 297.705719 C 238.624741 314.896423 256.362274 325.962708 280.627472 322.545105 C 302.384125 319.48288 321.35202 310.754272 337.84552 296.379669 C 340.326752 294.219727 343.04718 292.333191 345.66507 290.323608 L 344.017761 288.382416 C 330.162689 292.688629 316.041016 294.130859 301.604919 293.406311 C 279.766235 292.312683 258.95282 287.746735 240.333557 275.75769 C 223.34108 264.814392 210.812027 250.15274 204.858505 230.569702 C 200.046494 214.746063 209.889267 203.679749 226.287079 205.962738 C 232.766922 206.871826 238.221481 209.790466 243.12236 213.925812 C 247.107315 217.295593 250.935059 220.863617 255.002045 224.130859 C 274.140808 239.510223 300.880402 240.364624 325.166107 223.666077 C 285.234467 223.488342 258.06427 201.519806 234.202332 173.679749 C 224.865341 162.784302 215.747101 151.69751 206.211884 140.972992 C 187.770325 120.2211 167.305542 101.943604 139.294601 95.702972 C 103.491455 87.739899 68.939163 92.9552 35.774437 108.136353 C 29.16473 111.164368 22.814764 114.68454 16 120.357819 C 19.376623 120.357819 21.215311 120.398804 23.053999 120.357819 C 39.773067 119.920349 52.308952 127.350281 61.345181 141.027649 C 67.920715 150.986664 71.01709 162.244354 73.382095 173.823303 C 76.888588 191.013977 75.070404 208.532776 77.100479 225.805511 C 82.302116 270.193756 104.98838 301.171204 147.230347 317.029053 C 162.725906 322.852661 178.611084 324.787048 196.252914 320.822632 Z M 89.485992 118.327728 C 82.814766 120.009186 77.483253 117.316101 71.987694 111.752197 C 81.399864 109.407715 89.70472 108.498627 98.624748 108.143158 C 97.893372 113.939484 94.475739 117.070038 89.492821 118.327728 Z M 308.228302 377.548523 C 307.647308 373.269653 303.990417 371.389954 301.119629 369.154785 C 288.426514 359.270996 273.573486 355.771362 257.831848 355.484253 C 248.433365 355.306519 239.13739 354.609314 230.278885 351.314758 C 226.211899 349.810974 221.666443 347.862915 221.775803 342.6203 C 221.878342 337.288757 226.51265 335.785034 230.730011 334.527313 C 234.181824 333.502014 237.743011 332.83902 241.666443 331.916229 C 231.686951 325.518433 221.93985 324.636688 208.946014 329.865662 C 188.488052 338.081665 168.32399 337.111053 147.934387 329.749451 C 136.423782 325.593628 126.205055 319.065948 115.569382 313.290131 L 115.275467 313.495178 C 115.367149 313.429871 115.45829 313.3638 115.548874 313.296967 C 115.289131 312.497253 114.817497 312.476746 114.202324 312.927856 L 115.036232 313.659241 C 123.853729 328.115845 135.774445 339.749451 149.239914 349.687958 C 175.166092 368.826721 203.484634 380.248474 236.622009 375.183502 C 247.334671 373.540283 258.102478 372.279541 268.904999 371.403595 C 282.438812 370.309937 295.33017 374.124054 308.228302 377.548523 Z M 245.753922 170.132233 C 245.036224 169.612762 244.345871 168.314056 242.883133 169.660614 C 254.810669 185.79184 270.121674 197.671539 288.563232 205.156158 C 318.324005 217.2341 348.529053 219.305176 379.424469 208.642151 C 403.41629 200.37146 420.661652 208.450775 429.615875 231.745361 C 430.914551 204.711884 415.008881 185.012634 389.677368 181.157532 C 375.432678 178.983887 362.267944 183.707092 348.925507 187.582703 C 311.782623 198.348236 277.25769 193.037201 245.753922 170.132233 Z M 430.887238 275.566284 C 435.726593 275.969574 440.565948 276.407013 445.405334 276.830811 C 434.468903 267.227234 421.140137 266.4617 407.654144 267.23407 C 387.127838 268.396057 372.336304 280.241608 358.850311 294.383789 C 346.963776 306.851318 336.225555 320.836273 318.501709 325.853394 C 318.795624 326.386536 318.870819 326.653107 318.95282 326.653107 C 321.345184 326.687256 323.730682 326.796631 326.109375 326.687256 C 351.864685 325.525269 376.123047 320.091217 395.419006 301.39679 C 401.50238 295.518433 406.936432 288.977081 412.807953 282.873169 C 417.701996 277.774078 423.63501 274.951111 430.887238 275.559448 Z M 371.058105 243.645569 C 351.837311 245.327026 335.145599 253.276459 319.465485 263.76178 C 307.394409 271.827393 294.48941 275.641479 279.984955 273.126099 C 277.428589 272.674957 274.85849 272.346863 272.302124 271.964111 L 272.213257 273.030396 C 273.136017 273.50885 274.024628 274.0625 274.981537 274.445313 C 277.401245 275.402222 279.779907 276.550537 282.295288 277.145233 C 310.203705 283.782288 336.92276 280.385132 361.010254 264.821228 C 376.191376 255.012634 391.912506 253.153442 408.946014 255.689301 C 410.668518 255.949066 412.384155 256.256653 414.113464 256.420685 C 415.712921 256.571045 417.387573 258.163696 419.547516 256.441193 C 404.653473 245.682465 388.611084 242.114471 371.058105 243.645569 Z M 302.370483 178.409729 C 312.452484 178.758362 322.486694 177.439148 333.033508 171.171204 C 329.94397 171.444611 328.638397 171.444611 327.380737 171.690674 C 312.848938 174.588837 299.814087 171.417267 288.194122 162.237518 C 283.93576 158.867706 279.602173 155.579956 275.282288 152.278503 C 258.173615 139.195801 238.549545 134.814392 217.086823 135.190338 C 217.428574 136.242981 217.455917 136.967499 217.825027 137.343445 C 241.181137 160.95932 268.207794 177.2341 302.370483 178.409729 Z M 471.3862 299.605927 C 456.936462 285.272339 437.537964 283.426849 419.588501 295.935394 C 431.468231 296.468536 440.388245 300.25528 447.619965 307.746704 C 450.176361 310.398804 452.835266 312.996216 455.69928 315.306519 C 466.635681 324.124023 485.166107 324.547821 496 316.366028 C 483.279572 311.403595 483.279572 311.403595 471.3862 299.605927 Z M 327.449066 409.380371 C 314.749146 385.730316 293.402588 380.398804 268.7341 381.984589 C 276.009399 383.967346 282.891663 387.180725 289.082703 391.485626 C 294.824341 395.491089 299.656891 400.446655 304.414215 405.532104 C 313.846893 415.600464 328.570068 421.772705 338.330841 419.681091 C 333.846893 416.86499 329.868744 413.884796 327.449066 409.380371 Z M 445.63089 277.322937 C 445.63089 277.165741 445.637726 277.015381 445.651428 276.858154 L 445.610413 276.89917 L 445.651428 276.858154 L 445.405334 276.830811 L 445.548859 276.953857 L 445.63089 277.316101 Z M 308.925507 378.102173 C 308.761963 378.007874 308.597931 377.914429 308.43338 377.82193 C 308.449554 377.925262 308.484283 378.024841 308.535889 378.115845 C 308.570068 378.170532 308.795624 378.115845 308.932343 378.102173 Z M 308.43338 377.82193 L 308.378693 377.589539 L 308.323975 377.657867 L 308.378693 377.589539 L 308.228302 377.548523 L 308.262482 377.726196 L 308.426544 377.82193 Z"/></svg>