<svg xmlns="http://www.w3.org/2000/svg" width="1140" height="168" fill="none" viewBox="0 0 1140 168"><path fill="#9FA566" fill-rule="evenodd" d="M39.6836 15.762C39.6836 13.132 37.5516 11 34.9216 11H4.76204C2.13204 11 0 13.132 0 15.762V45.9216C0 48.5516 2.13204 50.6836 4.76204 50.6836H34.9216C37.5516 50.6836 39.6836 48.5516 39.6836 45.9216V38.3818C39.6836 35.7518 41.8157 33.6197 44.4457 33.6197H136.819C140.983 33.6197 144.359 36.9955 144.359 41.1596V85.3411C144.359 87.9711 142.227 90.1032 139.597 90.1032H102.446C99.8157 90.1032 97.6836 87.9711 97.6836 85.3411V74.762C97.6836 72.132 95.5516 70 92.9216 70H62.762C60.132 70 58 72.132 58 74.762V104.922C58 107.552 60.132 109.684 62.762 109.684H92.9216C95.5516 109.684 97.6836 107.552 97.6836 104.922V95.6589C97.6836 93.0289 99.8157 90.8968 102.446 90.8968H144.756H188.574C192.738 90.8968 196.114 94.2726 196.114 98.4367V141.341C196.114 143.971 193.982 146.103 191.352 146.103H152.446C149.816 146.103 147.684 143.971 147.684 141.341V132.762C147.684 130.132 145.552 128 142.922 128H112.762C110.132 128 108 130.132 108 132.762V162.922C108 165.552 110.132 167.684 112.762 167.684H142.922C145.552 167.684 147.684 165.552 147.684 162.922V151.659C147.684 149.029 149.816 146.897 152.446 146.897H196.511H565.5C565.719 146.897 565.897 146.719 565.897 146.5C565.897 146.281 565.719 146.103 565.5 146.103H201.67C199.04 146.103 196.908 143.971 196.908 141.341V98.4367C196.908 93.8342 193.177 90.1032 188.574 90.1032H149.914C147.284 90.1032 145.152 87.9711 145.152 85.3411V41.1596C145.152 36.5571 141.421 32.8261 136.819 32.8261H44.4457C41.8157 32.8261 39.6836 30.694 39.6836 28.064V15.762Z" clip-rule="evenodd"/><mask id="path-2-inside-1" fill="#fff"><path fill-rule="evenodd" d="M64.3494 80.3176C64.3494 79.4409 65.0601 78.7302 65.9367 78.7302H90.5406C91.4172 78.7302 92.1279 79.4409 92.1279 80.3176V94.6037C92.1279 95.4803 91.4172 96.191 90.5406 96.191H79.766C79.5686 96.191 79.4292 96.3905 79.4292 96.5879V100.556C79.4292 100.754 79.5686 100.953 79.766 100.953H84.5881C84.8072 100.953 84.9849 101.131 84.9849 101.35C84.9849 101.569 84.8072 101.747 84.5881 101.747L78.2387 101.747L71.8893 101.747C71.6701 101.747 71.4925 101.569 71.4925 101.35C71.4925 101.131 71.6701 100.953 71.8893 100.953H76.7114C76.9088 100.953 77.0482 100.754 77.0482 100.556V96.5879C77.0482 96.3905 76.9088 96.191 76.7114 96.191H65.9367C65.0601 96.191 64.3494 95.4803 64.3494 94.6037V80.3176Z" clip-rule="evenodd"/></mask><path fill="#fff" d="M84.5881 101.747V102.54V101.747ZM78.2387 101.747V100.953V101.747ZM71.8893 101.747V102.54H71.8893L71.8893 101.747ZM65.9367 77.9366C64.6217 77.9366 63.5557 79.0026 63.5557 80.3176H65.1431C65.1431 79.8792 65.4984 79.5239 65.9367 79.5239V77.9366ZM90.5406 77.9366H65.9367V79.5239H90.5406V77.9366ZM92.9216 80.3176C92.9216 79.0026 91.8556 77.9366 90.5406 77.9366V79.5239C90.9789 79.5239 91.3342 79.8792 91.3342 80.3176H92.9216ZM92.9216 94.6037V80.3176H91.3342V94.6037H92.9216ZM90.5406 96.9847C91.8556 96.9847 92.9216 95.9187 92.9216 94.6037H91.3342C91.3342 95.042 90.9789 95.3974 90.5406 95.3974V96.9847ZM79.766 96.9847H90.5406V95.3974H79.766V96.9847ZM80.2229 100.556V96.5879H78.6355V100.556H80.2229ZM79.766 101.747H84.5881V100.159H79.766V101.747ZM84.5881 101.747C84.3689 101.747 84.1912 101.569 84.1912 101.35H85.7786C85.7786 100.692 85.2456 100.159 84.5881 100.159V101.747ZM84.1912 101.35C84.1912 101.131 84.3689 100.953 84.5881 100.953V102.54C85.2456 102.54 85.7786 102.007 85.7786 101.35H84.1912ZM84.5881 100.953L78.2387 100.953V102.54L84.5881 102.54V100.953ZM78.2387 100.953L71.8893 100.953L71.8893 102.54L78.2387 102.54V100.953ZM71.8893 100.953C72.1085 100.953 72.2861 101.131 72.2861 101.35H70.6988C70.6988 102.007 71.2318 102.54 71.8893 102.54V100.953ZM72.2861 101.35C72.2861 101.569 72.1085 101.747 71.8893 101.747V100.159C71.2318 100.159 70.6988 100.692 70.6988 101.35H72.2861ZM71.8893 101.747H76.7114V100.159H71.8893V101.747ZM76.2545 96.5879V100.556H77.8419V96.5879H76.2545ZM65.9367 96.9847H76.7114V95.3974H65.9367V96.9847ZM63.5557 94.6037C63.5557 95.9187 64.6217 96.9847 65.9367 96.9847V95.3974C65.4984 95.3974 65.1431 95.042 65.1431 94.6037H63.5557ZM63.5557 80.3176V94.6037H65.1431V80.3176H63.5557ZM77.8419 96.5879C77.8419 96.3119 77.7475 96.0374 77.574 95.8202C77.3957 95.5968 77.0982 95.3974 76.7114 95.3974V96.9847C76.522 96.9847 76.3929 96.8849 76.3336 96.8107C76.2792 96.7425 76.2545 96.6665 76.2545 96.5879H77.8419ZM76.7114 101.747C77.0982 101.747 77.3957 101.547 77.574 101.324C77.7475 101.107 77.8419 100.832 77.8419 100.556H76.2545C76.2545 100.478 76.2792 100.402 76.3336 100.333C76.393 100.259 76.5221 100.159 76.7114 100.159V101.747ZM78.6355 100.556C78.6355 100.832 78.7299 101.107 78.9034 101.324C79.0817 101.547 79.3792 101.747 79.766 101.747V100.159C79.9553 100.159 80.0844 100.259 80.1438 100.333C80.1982 100.402 80.2229 100.478 80.2229 100.556H78.6355ZM79.766 95.3974C79.3792 95.3974 79.0817 95.5968 78.9034 95.8202C78.7299 96.0374 78.6355 96.3119 78.6355 96.5879H80.2229C80.2229 96.6665 80.1982 96.7425 80.1438 96.8107C80.0845 96.8849 79.9554 96.9847 79.766 96.9847V95.3974Z" mask="url(#path-2-inside-1)"/><rect width="22.223" height="11.905" x="67.127" y="81.508" stroke="#fff" stroke-width=".794" rx=".397"/><path fill="#fff" fill-rule="evenodd" d="M34.9216 22.1113H4.76204V34.0164H22.1179L19.9005 29.3364C19.7904 29.1035 19.837 28.8241 20.0232 28.6421C20.2053 28.4559 20.4846 28.4093 20.7175 28.5194L32.1891 33.9546C32.226 33.972 32.2607 33.9928 32.2927 34.0164H34.9216V22.1113Z" clip-rule="evenodd" opacity=".6"/><path stroke="#fff" stroke-width=".794" d="M25.6962 40.6419L25.6962 40.6419L25.6945 40.6383L20.2594 29.167C20.2593 29.167 20.2593 29.1669 20.2593 29.1668C20.2201 29.0839 20.2381 28.9874 20.3007 28.9262L20.3008 28.9263L20.3072 28.9198C20.3683 28.8572 20.4648 28.8392 20.5478 28.8783C20.5478 28.8783 20.5479 28.8784 20.548 28.8784L32.0193 34.3135L32.0202 34.314C32.0959 34.3496 32.1437 34.4249 32.1437 34.5094L32.1437 34.5094L32.1437 34.5095L32.1437 34.5095L32.1437 34.5095L32.1437 34.5095L32.1437 34.5096L32.1437 34.5096L32.1437 34.5096L32.1437 34.5096L32.1437 34.5097L32.1437 34.5097L32.1437 34.5097L32.1437 34.5097L32.1437 34.5098L32.1437 34.5098L32.1437 34.5098L32.1437 34.5098L32.1437 34.5099L32.1437 34.5099L32.1437 34.5099L32.1437 34.5099L32.1437 34.51L32.1437 34.51L32.1437 34.51L32.1437 34.51L32.1437 34.5101L32.1437 34.5101L32.1437 34.5101L32.1437 34.5101L32.1437 34.5102L32.1437 34.5102L32.1437 34.5102L32.1437 34.5102L32.1437 34.5103L32.1437 34.5103L32.1437 34.5103L32.1437 34.5103L32.1437 34.5104L32.1437 34.5104L32.1437 34.5104L32.1437 34.5104L32.1437 34.5105L32.1437 34.5105L32.1437 34.5105L32.1437 34.5105L32.1437 34.5106L32.1437 34.5106L32.1437 34.5106L32.1437 34.5106L32.1437 34.5107L32.1437 34.5107L32.1437 34.5107L32.1437 34.5107L32.1437 34.5108L32.1437 34.5108L32.1437 34.5108L32.1437 34.5108L32.1437 34.5109L32.1437 34.5109L32.1437 34.5109L32.1437 34.5109L32.1437 34.511L32.1437 34.511L32.1437 34.511L32.1437 34.511L32.1437 34.511L32.1437 34.5111L32.1437 34.5111L32.1437 34.5111L32.1437 34.5111L32.1437 34.5112L32.1437 34.5112L32.1437 34.5112L32.1437 34.5112L32.1437 34.5113L32.1437 34.5113L32.1437 34.5113L32.1437 34.5113L32.1437 34.5114L32.1437 34.5114L32.1437 34.5114L32.1437 34.5114L32.1437 34.5115L32.1437 34.5115L32.1437 34.5115L32.1437 34.5115L32.1437 34.5116L32.1437 34.5116L32.1437 34.5116L32.1437 34.5116L32.1437 34.5117L32.1437 34.5117L32.1437 34.5117L32.1437 34.5117L32.1437 34.5118L32.1437 34.5118L32.1437 34.5118L32.1437 34.5118L32.1437 34.5118L32.1437 34.5119L32.1437 34.5119L32.1437 34.5119L32.1437 34.5119L32.1437 34.512L32.1437 34.512L32.1437 34.512L32.1437 34.512L32.1437 34.5121L32.1437 34.5121L32.1437 34.5121L32.1437 34.5121L32.1437 34.5122L32.1437 34.5122L32.1437 34.5122L32.1437 34.5122L32.1437 34.5122L32.1437 34.5123L32.1437 34.5123L32.1437 34.5123L32.1437 34.5123L32.1437 34.5124L32.1437 34.5124L32.1437 34.5124L32.1437 34.5124L32.1437 34.5125L32.1437 34.5125L32.1437 34.5125L32.1437 34.5125L32.1437 34.5126L32.1437 34.5126L32.1437 34.5126L32.1437 34.5126L32.1437 34.5126L32.1437 34.5127L32.1437 34.5127L32.1437 34.5127L32.1437 34.5127L32.1437 34.5128L32.1437 34.5128L32.1437 34.5128L32.1437 34.5128L32.1437 34.5129L32.1437 34.5129L32.1437 34.5129L32.1437 34.5129L32.1437 34.5129L32.1437 34.513L32.1437 34.513L32.1437 34.513L32.1437 34.513L32.1437 34.5131L32.1437 34.5131L32.1437 34.5131L32.1437 34.5131L32.1437 34.5132L32.1437 34.5132L32.1437 34.5132L32.1437 34.5132L32.1437 34.5132L32.1437 34.5133L32.1437 34.5133L32.1437 34.5133L32.1437 34.5133L32.1437 34.5134L32.1437 34.5134L32.1437 34.5134L32.1437 34.5134L32.1437 34.5134L32.1437 34.5135L32.1437 34.5135L32.1437 34.5135C32.1411 34.5984 32.0869 34.6758 32.0134 34.7069L32.0117 34.7077L28.0114 36.4221L27.8655 36.4846L27.803 36.6305L26.0886 40.6307L26.0886 40.6307L26.0879 40.6324C26.0558 40.7083 25.9803 40.7613 25.892 40.7628L25.8919 40.7628C25.8052 40.7643 25.7307 40.7168 25.6962 40.6419Z"/><path fill="#fff" fill-rule="evenodd" d="M138.16 148.635C138.16 147.759 138.87 147.048 139.747 147.048C140.624 147.048 141.334 147.759 141.334 148.635V156.572V158.16C141.334 159.036 140.624 159.747 139.747 159.747H138.16H117.524C117.524 159.747 117.524 159.747 117.524 159.747C117.524 159.747 117.524 159.747 117.524 159.747H114.349C114.349 159.747 114.349 159.747 114.349 159.747V159.747C114.349 159.747 114.349 159.747 114.349 159.747C114.349 159.747 114.349 159.747 114.349 159.747L114.349 156.572C114.349 156.572 114.349 156.572 114.349 156.572C114.349 156.572 114.349 156.572 114.349 156.572V148.636C114.349 147.759 115.06 147.048 115.937 147.048C116.813 147.048 117.524 147.759 117.524 148.636V154.985C117.524 155.861 118.235 156.572 119.111 156.572L136.572 156.572C137.449 156.572 138.16 155.861 138.16 154.985V148.635Z" clip-rule="evenodd" opacity=".4"/><path fill="#fff" fill-opacity=".8" d="M128.636 135.143C128.636 134.704 128.28 134.349 127.842 134.349C127.403 134.349 127.048 134.704 127.048 135.143H128.636ZM127.842 153L132.424 145.064H123.26L127.842 153ZM127.048 135.143V145.857H128.636V135.143H127.048Z"/><rect width="21.7" height="14" x="563.65" y="139" fill="#563672" rx="3.5"/><path fill="#839BFF" fill-opacity=".6" fill-rule="evenodd" d="M951.905 161.641C951.905 164.325 954.08 166.5 956.764 166.5L987.536 166.5C990.22 166.5 992.395 164.325 992.395 161.641L992.395 130.869C992.395 128.185 990.22 126.01 987.536 126.01L956.764 126.01C954.08 126.01 951.905 128.185 951.905 130.869L951.905 141.236C951.905 143.92 949.73 146.095 947.046 146.095L927.669 146.095C924.985 146.095 922.81 143.92 922.81 141.236L922.81 119.098C922.81 114.849 926.254 111.405 930.503 111.405L975.905 111.405L1008.86 111.405C1008.89 111.405 1008.9 111.424 1008.9 111.448C1008.9 111.471 1008.92 111.49 1008.95 111.49L1044.54 111.49C1047.22 111.49 1049.4 109.315 1049.4 106.631L1049.4 75.8588C1049.4 73.1754 1047.22 71 1044.54 71L1013.76 71C1011.08 71 1008.9 73.1754 1008.9 75.8588L1008.9 105.736C1008.9 108.42 1006.73 110.595 1004.05 110.595L981.169 110.595C978.485 110.595 976.31 108.42 976.31 105.736L976.31 62.098C976.31 57.8492 979.754 54.4049 984.003 54.4049L1065.64 54.4049C1068.32 54.4049 1070.5 56.5803 1070.5 59.2637L1070.5 126.402C1070.5 131.098 1074.31 134.905 1079 134.905L1093.05 134.905C1095.73 134.905 1097.9 137.08 1097.9 139.764L1097.9 148.631C1097.9 151.315 1100.08 153.49 1102.76 153.49L1133.54 153.49C1136.22 153.49 1138.4 151.315 1138.4 148.631L1138.4 117.859C1138.4 115.175 1136.22 113 1133.54 113L1102.76 113C1100.08 113 1097.9 115.175 1097.9 117.859L1097.9 129.236C1097.9 131.92 1095.73 134.095 1093.05 134.095L1079 134.095C1074.75 134.095 1071.31 130.651 1071.31 126.402L1071.31 59.2637C1071.31 56.5803 1073.49 54.4049 1076.17 54.4049L1098.86 54.4049C1098.89 54.4049 1098.9 54.424 1098.9 54.4476C1098.9 54.4711 1098.92 54.4902 1098.95 54.4902L1134.54 54.4902C1137.22 54.4902 1139.4 52.3148 1139.4 49.6314L1139.4 18.8588C1139.4 16.1754 1137.22 14 1134.54 14L1103.76 14C1101.08 14 1098.9 16.1754 1098.9 18.8589L1098.9 48.7363C1098.9 51.4197 1096.73 53.5951 1094.05 53.5951L1070.9 53.5951L984.003 53.5951C979.307 53.5951 975.5 57.402 975.5 62.098L975.5 105.736C975.5 108.42 973.325 110.595 970.641 110.595L930.503 110.595C925.807 110.595 922 114.402 922 119.098L922 141.236C922 143.92 919.825 146.095 917.141 146.095L585.5 146.095C585.276 146.095 585.095 146.276 585.095 146.5C585.095 146.724 585.276 146.905 585.5 146.905L922.405 146.905L947.046 146.905C949.73 146.905 951.905 149.08 951.905 151.764L951.905 161.641Z" clip-rule="evenodd"/><path fill="#fff" fill-opacity=".2" d="M965.094 157.927L959.235 147.778C959.081 147.512 959 147.209 959 146.902C959 146.594 959.081 146.292 959.235 146.025L965.094 135.876C965.248 135.61 965.468 135.389 965.734 135.235C966 135.082 966.302 135 966.609 135H978.334C978.64 135.002 978.94 135.083 979.205 135.237C979.47 135.391 979.69 135.611 979.843 135.876L985.702 146.025C985.856 146.292 985.937 146.594 985.937 146.902C985.937 147.209 985.856 147.512 985.702 147.778L979.843 157.927C979.689 158.193 979.468 158.414 979.202 158.568C978.936 158.722 978.635 158.803 978.327 158.803H966.606C966.299 158.802 965.998 158.721 965.733 158.567C965.468 158.413 965.247 158.193 965.094 157.927Z"/><path fill="#000" d="M976.128 143.634C976.128 143.634 977.758 147.541 975.537 149.755C973.316 151.97 969.273 150.552 969.273 150.552C969.273 150.552 975.284 156.642 977.498 158.8H978.334C978.641 158.8 978.942 158.718 979.208 158.565C979.474 158.411 979.695 158.19 979.849 157.924L983.728 151.207L976.128 143.634Z" opacity=".1"/><path fill="#fff" d="M978.052 151.628L976.252 149.828C976.232 149.808 976.21 149.791 976.186 149.777C976.947 148.792 977.305 147.553 977.185 146.313C977.064 145.073 976.476 143.925 975.54 143.104C974.603 142.283 973.389 141.85 972.144 141.893C970.899 141.936 969.717 142.452 968.84 143.336C967.962 144.221 967.455 145.406 967.421 146.651C967.387 147.896 967.829 149.107 968.657 150.038C969.485 150.968 970.637 151.548 971.878 151.659C973.118 151.77 974.355 151.403 975.335 150.634C975.347 150.658 975.363 150.679 975.382 150.698L977.182 152.498C977.208 152.524 977.239 152.545 977.274 152.559C977.308 152.573 977.344 152.581 977.381 152.581C977.418 152.581 977.455 152.573 977.489 152.559C977.524 152.545 977.555 152.524 977.581 152.498L978.052 152.026C978.078 152 978.099 151.969 978.113 151.935C978.127 151.901 978.135 151.864 978.135 151.827C978.135 151.79 978.127 151.753 978.113 151.719C978.099 151.685 978.078 151.654 978.052 151.628ZM972.316 150.464C971.588 150.464 970.876 150.248 970.271 149.843C969.665 149.438 969.193 148.863 968.914 148.19C968.636 147.517 968.563 146.777 968.705 146.063C968.847 145.348 969.198 144.692 969.713 144.177C970.228 143.662 970.884 143.312 971.598 143.169C972.312 143.027 973.053 143.1 973.726 143.379C974.399 143.658 974.974 144.13 975.378 144.735C975.783 145.341 975.999 146.053 975.999 146.781C975.999 147.265 975.904 147.744 975.719 148.19C975.534 148.637 975.262 149.043 974.92 149.385C974.578 149.727 974.172 149.998 973.726 150.183C973.279 150.368 972.8 150.464 972.316 150.464Z"/><path fill="#fff" d="M969.963 146.585V148.107C970.197 148.521 970.536 148.866 970.947 149.107V146.576L969.963 146.585Z"/><path fill="#fff" d="M969.963 146.585V148.107C970.197 148.521 970.536 148.866 970.947 149.107V146.576L969.963 146.585Z"/><path fill="#fff" d="M971.804 145.323V149.435C972.129 149.495 972.462 149.495 972.788 149.435V145.323H971.804Z"/><path fill="#fff" d="M971.804 145.323V149.435C972.129 149.495 972.462 149.495 972.788 149.435V145.323H971.804Z"/><path fill="#fff" d="M974.651 148.104V147.202H973.667V149.1C974.077 148.86 974.416 148.516 974.651 148.104Z"/><path fill="#fff" d="M974.651 148.104V147.202H973.667V149.1C974.077 148.86 974.416 148.516 974.651 148.104Z"/><g clip-path="url(#clip0)"><path fill="#9891C2" d="M1111.74 26.5786L1110.24 27.3288V40.496L1111.74 41.2419L1111.75 41.231V26.5889L1111.74 26.5786Z"/><path fill="#DDDAEB" d="M1119.77 39.3307L1111.74 41.2419V26.5786L1119.77 28.4481V39.3307Z"/><path fill="#9891C2" d="M1116.15 36.3388L1119.55 36.7723L1119.58 36.723L1119.59 31.1389L1119.55 31.0952L1116.15 31.5225V36.3388Z"/><path fill="#9891C2" d="M1119.55 39.3522L1127.36 41.2459L1127.38 41.2264L1127.38 26.5917L1127.36 26.5786L1119.55 28.4695V39.3522Z"/><path fill="#DDDAEB" d="M1122.96 36.3388L1119.55 36.7723V31.0952L1122.96 31.5225V36.3388Z"/><path fill="#7569BE" d="M1122.96 29.1932L1119.55 29.8141L1116.15 29.1932L1119.55 28.3018L1122.96 29.1932Z"/><path fill="#fff" d="M1122.96 38.662L1119.55 38.0371L1116.15 38.662L1119.55 39.6115L1122.96 38.662Z"/><path fill="#9891C2" d="M1116.15 29.1932L1119.55 28.3505L1119.58 28.342V22.6964L1119.55 22.6736L1116.15 24.3766V29.1932Z"/><path fill="#DDDAEB" d="M1122.96 29.1932L1119.55 28.3505V22.6736L1122.96 24.3766V29.1932Z"/><path fill="#9891C2" d="M1119.55 45.1811L1116.15 43.4787V38.6621L1119.55 39.5046L1119.6 39.5615L1119.59 45.0828L1119.55 45.1811Z"/><path fill="#DDDAEB" d="M1119.55 45.181L1122.96 43.4785V38.662L1119.55 39.5044V45.181ZM1127.36 26.5786L1128.87 27.3288V40.496L1127.36 41.2459V26.5786Z"/></g><path fill="#fff" fill-opacity=".6" d="M1116.35 129.564C1116.65 129.258 1116.81 128.901 1116.81 128.442V122.577C1116.81 121.761 1116.14 121.098 1115.33 121.098C1114.51 121.098 1113.85 121.761 1113.85 122.577V125.943L1110.99 124.26C1110.28 123.801 1109.36 124.005 1108.95 124.719C1108.49 125.433 1108.7 126.351 1109.41 126.759C1109.46 126.759 1109.46 126.81 1109.51 126.81L1114.61 129.768C1115.12 130.125 1115.89 130.023 1116.35 129.564ZM1114.15 133.134C1114.15 132.573 1113.9 132.063 1113.39 131.808L1108.29 128.85C1107.57 128.391 1106.66 128.595 1106.25 129.309C1105.79 130.023 1105.99 130.941 1106.71 131.349C1106.76 131.349 1106.76 131.4 1106.81 131.4L1109.72 133.083L1106.81 134.766C1106.1 135.174 1105.79 136.041 1106.2 136.806C1106.61 137.571 1107.47 137.826 1108.24 137.418C1108.29 137.418 1108.29 137.418 1108.34 137.418L1113.44 134.46C1113.9 134.205 1114.15 133.695 1114.15 133.134ZM1116.81 137.775V143.692C1116.81 144.508 1116.14 145.17 1115.33 145.17C1114.51 145.17 1113.85 144.507 1113.85 143.692V140.376L1110.94 142.06C1110.23 142.518 1109.31 142.315 1108.9 141.601C1108.44 140.886 1108.65 139.968 1109.36 139.56C1109.41 139.56 1109.41 139.509 1109.46 139.509L1114.56 136.551C1115.28 136.143 1116.24 136.398 1116.65 137.163C1116.75 137.316 1116.86 137.571 1116.81 137.775ZM1119.46 137.928V143.691C1119.46 144.507 1120.12 145.17 1120.94 145.17C1121.75 145.17 1122.42 144.507 1122.42 143.691V140.376L1125.27 142.008C1125.99 142.467 1126.9 142.263 1127.31 141.549C1127.77 140.835 1127.57 139.917 1126.85 139.509C1126.8 139.509 1126.8 139.458 1126.75 139.458L1121.65 136.5C1120.94 136.092 1120.02 136.347 1119.61 137.061C1119.51 137.316 1119.41 137.673 1119.46 137.928ZM1122.11 133.134C1122.11 132.573 1122.36 132.063 1122.87 131.808L1127.97 128.85C1128.69 128.391 1129.61 128.595 1130.01 129.309C1130.47 130.023 1130.27 130.941 1129.56 131.349C1129.5 131.349 1129.5 131.4 1129.45 131.4L1126.55 133.083L1129.45 134.766C1130.17 135.174 1130.47 136.041 1130.07 136.806C1129.66 137.52 1128.79 137.826 1128.03 137.418C1127.97 137.418 1127.97 137.367 1127.92 137.367L1122.82 134.409C1122.36 134.205 1122.06 133.695 1122.11 133.134ZM1119.46 128.34V122.577C1119.46 121.761 1120.12 121.098 1120.94 121.098C1121.75 121.098 1122.42 121.761 1122.42 122.577V125.892L1125.27 124.26C1125.99 123.801 1126.9 124.005 1127.31 124.719C1127.77 125.433 1127.57 126.351 1126.85 126.759C1126.8 126.759 1126.8 126.81 1126.75 126.81L1121.65 129.768C1120.94 130.176 1120.02 129.921 1119.61 129.207C1119.51 128.952 1119.41 128.646 1119.46 128.34ZM1118.74 130.482C1118.64 130.38 1118.54 130.329 1118.39 130.329H1117.88C1117.72 130.329 1117.62 130.38 1117.52 130.482L1115.48 132.522C1115.38 132.624 1115.33 132.726 1115.33 132.879V133.389C1115.33 133.542 1115.38 133.644 1115.48 133.746L1117.52 135.786C1117.62 135.888 1117.72 135.939 1117.88 135.939H1118.39C1118.54 135.939 1118.64 135.888 1118.74 135.786L1120.78 133.746C1120.83 133.644 1120.89 133.491 1120.89 133.389V132.879C1120.89 132.726 1120.83 132.624 1120.73 132.522L1118.74 130.482ZM1118.44 132.267C1118.39 132.216 1118.28 132.165 1118.18 132.165C1118.08 132.165 1117.98 132.216 1117.93 132.267L1117.32 132.879C1117.26 132.93 1117.21 133.032 1117.21 133.134C1117.21 133.236 1117.26 133.338 1117.32 133.389L1117.93 134.001C1117.98 134.052 1118.08 134.103 1118.18 134.103C1118.28 134.103 1118.39 134.052 1118.44 134.001L1119.05 133.389C1119.1 133.338 1119.15 133.236 1119.15 133.134C1119.15 133.032 1119.1 132.93 1119.05 132.879L1118.44 132.267Z"/><g clip-path="url(#clip1)"><path fill="#9891C2" d="M1029.43 96.7802L1038.28 98.8856V82.322L1029.43 84.4275V96.7802Z"/><path fill="#BBB6D7" d="M1038.28 82.322L1039.96 83.1642V98.0434L1038.28 98.8856V82.322ZM1029.43 96.7802L1020.59 98.8856V82.322L1029.43 84.4275V96.7802Z"/><path fill="#9891C2" d="M1020.59 82.322L1018.9 83.1642V98.0434L1020.59 98.8856V82.322Z"/><path fill="#BBB6D7" d="M1031.68 102.254L1035.05 100.57V80.6844L1031.68 79L1030.65 90.0424L1031.68 102.254Z"/><path fill="#9891C2" d="M1027.19 102.254L1023.82 100.57V80.6844L1027.19 79L1028.22 90.0424L1027.19 102.254Z"/><path fill="#DDDAEB" d="M1027.19 79H1031.72V102.207H1027.19V79Z"/></g><path fill="#fff" d="M561.001 12.0691L565.835 16.8966H561.001V12.0691ZM561.001 10.8623L567.043 16.8966H571.877L561.001 6.03482V10.8623ZM561.001 4.82795L573.086 16.8966H577.92L561.001 0.000488281V4.82795ZM567.043 4.82795L579.128 16.8966V12.0691L567.043 0.000488281V4.82795ZM573.086 0.000488281V4.82795L579.128 10.8623V6.03482L573.086 0.000488281Z"/><path fill="#fff" fill-rule="evenodd" d="M586.704 13.6C587.579 14.4738 588.766 14.9652 590.005 14.9652V16.8962H579.983V6.88794L586.704 13.6ZM583.85 14C583.85 14.5332 583.418 14.9655 582.884 14.9655C582.35 14.9655 581.917 14.5332 581.917 14C581.917 13.4668 582.35 13.0345 582.884 13.0345C583.418 13.0345 583.85 13.4668 583.85 14Z" clip-rule="evenodd"/><path fill="#fff" d="M561 16.8958H565.834L561 12.0684V16.8958Z"/><path fill="#fff" d="M567.044 6.03482L561.001 0.000488281V4.82795L567.044 10.8623V6.03482Z"/><path fill="#fff" d="M561 6.03418V10.8616L567.042 16.896V12.0685L561 6.03418Z"/><path fill="#fff" d="M573.085 6.03433L567.043 0V4.82746L573.085 10.8618V6.03433Z"/><path fill="#fff" d="M567.042 16.8958H571.876L567.042 12.0684V16.8958Z"/><path fill="#fff" d="M567.042 6.03442V10.8619L573.084 16.8962V12.0687L567.042 6.03442Z"/><circle cx="342.5" cy="146.5" r="1.5" fill="#F7FFA8"/><circle cx="348.5" cy="146.5" r="1.5" fill="#F7FFA8"/><circle cx="354.5" cy="146.5" r="1.5" fill="#F7FFA8"/><circle cx="360.5" cy="146.5" r="1.5" fill="#F7FFA8"/><circle cx="366.5" cy="146.5" r="1.5" fill="#F7FFA8"/><circle cx="372.5" cy="146.5" r="1.5" fill="#F7FFA8"/><circle cx="378.5" cy="146.5" r="1.5" fill="#F7FFA8"/><circle cx="88.5" cy="33.5" r="1.5" fill="#F7FFA8"/><circle cx="94.5" cy="33.5" r="1.5" fill="#F7FFA8"/><circle cx="100.5" cy="33.5" r="1.5" fill="#F7FFA8"/><circle cx="106.5" cy="33.5" r="1.5" fill="#F7FFA8"/><circle cx="112.5" cy="33.5" r="1.5" fill="#F7FFA8"/><circle cx="118.5" cy="33.5" r="1.5" fill="#F7FFA8"/><circle cx="124.5" cy="33.5" r="1.5" fill="#F7FFA8"/><circle cx="166.5" cy="90.5" r="1.5" fill="#F7FFA8"/><circle cx="172.5" cy="90.5" r="1.5" fill="#F7FFA8"/><circle cx="178.5" cy="90.5" r="1.5" fill="#F7FFA8"/><circle cx="184.5" cy="90.5" r="1.5" fill="#F7FFA8"/><circle cx="190.5" cy="90.5" r="1.5" fill="#F7FFA8"/><circle cx="195.5" cy="94.5" r="1.5" fill="#F7FFA8"/><circle cx="196.5" cy="101.5" r="1.5" fill="#F7FFA8"/><circle cx="631.5" cy="146.5" r="1.5" fill="#C4C4FF"/><circle cx="637.5" cy="146.5" r="1.5" fill="#C4C4FF"/><circle cx="643.5" cy="146.5" r="1.5" fill="#C4C4FF"/><circle cx="649.5" cy="146.5" r="1.5" fill="#C4C4FF"/><circle cx="655.5" cy="146.5" r="1.5" fill="#C4C4FF"/><circle cx="661.5" cy="146.5" r="1.5" fill="#C4C4FF"/><circle cx="667.5" cy="146.5" r="1.5" fill="#C4C4FF"/><circle cx="922.5" cy="128.5" r="1.5" fill="#C4C3FF"/><circle cx="922.5" cy="122.5" r="1.5" fill="#C4C3FF"/><circle cx="923.5" cy="115.5" r="1.5" fill="#C4C3FF"/><circle cx="928.5" cy="111.5" r="1.5" fill="#C4C3FF"/><circle cx="935.5" cy="111.5" r="1.5" fill="#C4C3FF"/><circle cx="1070.5" cy="73.5" r="1.5" fill="#C4C3FF"/><circle cx="1070.5" cy="80.5" r="1.5" fill="#C4C3FF"/><circle cx="1070.5" cy="87.5" r="1.5" fill="#C4C3FF"/><circle cx="1070.5" cy="94.5" r="1.5" fill="#C4C3FF"/><circle cx="1070.5" cy="101.5" r="1.5" fill="#C4C3FF"/><circle cx="1070.5" cy="108.5" r="1.5" fill="#C4C3FF"/><circle cx="1070.5" cy="115.5" r="1.5" fill="#C4C3FF"/><circle cx="942.5" cy="111.5" r="1.5" fill="#C4C3FF"/><circle cx="949.5" cy="111.5" r="1.5" fill="#C4C3FF"/><rect width="99" height="26" x="526" y="33" fill="#FFAC6C" fill-opacity=".8" rx="6"/><rect width="99" height="26" x="526" y="65" fill="#FFAC6C" fill-opacity=".8" rx="6"/><rect width="99" height="26" x="526" y="97" fill="#FFAC6C" fill-opacity=".8" rx="6"/><circle cx="537.5" cy="46.5" r="3.111" stroke="#fff" stroke-width=".778"/><circle cx="537.5" cy="77.5" r="3.111" stroke="#fff" stroke-width=".778"/><circle cx="537.5" cy="109.5" r="3.111" stroke="#fff" stroke-width=".778"/><rect width="65" height="6" x="549.5" y="43.5" stroke="#fff" rx="3"/><rect width="65" height="6" x="549.5" y="74.5" stroke="#fff" rx="3"/><rect width="65" height="6" x="549.5" y="106.5" stroke="#fff" rx="3"/><defs><clipPath id="clip0"><rect width="18.625" height="22.549" fill="#fff" transform="translate(1110.24 22.6736)"/></clipPath><clipPath id="clip1"><rect width="21.055" height="23.254" fill="#fff" transform="translate(1018.9 79)"/></clipPath></defs></svg>