<svg fill="none" xmlns="http://www.w3.org/2000/svg" viewBox="0 0 439 90"><path d="M5.448 7.939l10.653 22.483c.2.432.63.697 1.104.689a1.2 1.2 0 001.087-.73l3.36-7.84 7.84-3.36a1.21 1.21 0 00.73-1.087v-.017c0-.465-.265-.888-.689-1.087L7.05 6.337a1.19 1.19 0 00-1.361.241 1.19 1.19 0 00-.24 1.36z" fill="#BFBFBC"/><path d="M44.128 22.128c2.576 0 4.4-1.328 4.944-3.52l-2.192-.48c-.288 1.312-1.296 2.112-2.752 2.112-1.904 0-3.36-1.328-3.36-3.84 0-2.512 1.472-3.856 3.36-3.856 1.44 0 2.528.88 2.816 2.304l2.16-.448c-.384-2.256-2.288-3.728-4.976-3.728-2.912 0-5.568 1.936-5.568 5.728s2.608 5.728 5.568 5.728zM50.663 22h2.017V10.672h-2.017V22zm3.97 0h2.015v-8.064h-2.016V22zm-.065-9.248h2.176v-2.08h-2.176v2.08zm7.697 9.376c2.032 0 3.488-1.024 3.792-2.72l-1.968-.4c-.192.864-.816 1.376-1.76 1.376-1.248 0-2.064-.944-2.064-2.416s.816-2.416 2.064-2.416c.944 0 1.616.576 1.76 1.424l1.968-.384c-.272-1.712-1.728-2.784-3.792-2.784-2.416 0-4.096 1.696-4.096 4.16 0 2.464 1.68 4.16 4.096 4.16zM69.602 22v-2.624l.944-.928L73.026 22h2.432l-3.536-4.88 3.28-3.184h-2.56l-3.04 2.864v-6.128H67.57V22h2.032zm9.502.128c1.856 0 3.105-1.12 3.105-2.512 0-3.296-4.433-2.16-4.433-3.584 0-.464.433-.736 1.073-.736.655 0 1.36.4 1.584 1.168l1.631-.688c-.351-1.168-1.68-1.968-3.247-1.968-1.76 0-2.864.992-2.864 2.256 0 3.056 4.4 2.064 4.4 3.584 0 .512-.496.912-1.248.912-1.008 0-1.633-.672-1.873-1.488l-1.647.672c.4 1.184 1.568 2.384 3.52 2.384z" fill="#000"/><path d="M161.52.889c-3.69 0-6.697 3.007-6.697 6.698a6.697 6.697 0 002.977 5.57v-1.93a5.162 5.162 0 01-1.489-3.64 5.199 5.199 0 015.209-5.21 5.199 5.199 0 015.21 5.21 5.162 5.162 0 01-1.489 3.64v1.93a6.696 6.696 0 002.977-5.57c0-3.69-3.007-6.698-6.698-6.698zm0 5.21a2.228 2.228 0 00-2.232 2.232v13.395L157.8 18.75c-1.22-2.263-2.419-2.027-3.349-1.488-1.077.718-1.479 1.46-.745 3.349 1.689 4.148 4.284 9.09 7.07 12.279h10.047c3.53-2.616 6.372-15.057 1.488-15.628-.448 0-1.166.071-1.488.372 0-1.488-1.3-1.87-1.861-1.86-.644.01-1.116.372-1.488 1.116 0-1.489-1.214-1.86-1.861-1.86-.712 0-1.537.444-1.86 1.116V8.33a2.228 2.228 0 00-2.233-2.233z" fill="#BFBFBC"/><path d="M189.632 22h2.176v-9.328h3.376V10.8h-8.928v1.872h3.376V22zm9.845-5.184v.08l-1.504.144c-2.4.256-3.6 1.104-3.6 2.688 0 1.376 1.104 2.4 2.688 2.4.992 0 1.968-.512 2.416-1.296V22h1.952v-4.912c0-2.144-1.44-3.28-3.552-3.28-1.712 0-3.136 1.024-3.392 2.624l1.792.32c.096-.864.72-1.408 1.6-1.408.976 0 1.6.56 1.6 1.472zm-3.152 2.848c0-.576.544-1.024 1.616-1.152l1.536-.176v.176c0 1.184-.72 2.128-1.968 2.128-.736 0-1.184-.416-1.184-.976zm7.073 5.248h2.016V21.2c.464.576 1.328.928 2.256.928 2.368 0 3.888-1.696 3.888-4.16 0-2.464-1.424-4.16-3.744-4.16-1.072 0-1.952.432-2.4 1.056v-.928h-2.016v10.976zm1.888-6.944c0-1.456.848-2.416 2.144-2.416 1.28 0 2.128.96 2.128 2.416s-.848 2.416-2.128 2.416c-1.296 0-2.144-.96-2.144-2.416zm10.537 4.16c1.856 0 3.104-1.12 3.104-2.512 0-3.296-4.432-2.16-4.432-3.584 0-.464.432-.736 1.072-.736.656 0 1.36.4 1.584 1.168l1.632-.688c-.352-1.168-1.68-1.968-3.248-1.968-1.76 0-2.864.992-2.864 2.256 0 3.056 4.4 2.064 4.4 3.584 0 .512-.496.912-1.248.912-1.008 0-1.632-.672-1.872-1.488l-1.648.672c.4 1.184 1.568 2.384 3.52 2.384z" fill="#000"/><path fill-rule="evenodd" clip-rule="evenodd" d="M312 26.148c9.481 0 16-10.074 16-10.074S322.074 6 312 6s-16 10.074-16 10.074 6.518 10.074 16 10.074zm.001-2.37a7.704 7.704 0 100-15.408 7.704 7.704 0 100 15.408z" fill="#BFBFBC"/><circle cx="312.001" cy="16.067" r="2.963" fill="#BFBFBC"/><path d="M335.072 22h2.176v-4.368h2.336c2.272 0 3.728-1.344 3.728-3.408 0-2.08-1.456-3.424-3.728-3.424h-4.512V22zm2.176-6.24v-3.088h2.144c1.088 0 1.744.576 1.744 1.552 0 .96-.656 1.536-1.744 1.536h-2.144zm11.698 1.056v.08l-1.504.144c-2.4.256-3.6 1.104-3.6 2.688 0 1.376 1.104 2.4 2.688 2.4.992 0 1.968-.512 2.416-1.296V22h1.952v-4.912c0-2.144-1.44-3.28-3.552-3.28-1.712 0-3.136 1.024-3.392 2.624l1.792.32c.096-.864.72-1.408 1.6-1.408.976 0 1.6.56 1.6 1.472zm-3.152 2.848c0-.576.544-1.024 1.616-1.152l1.536-.176v.176c0 1.184-.72 2.128-1.968 2.128-.736 0-1.184-.416-1.184-.976zm10.401 2.096c.96 0 1.84-.368 2.24-.944v.88c0 1.04-.8 1.728-2.016 1.728-.944 0-1.712-.448-1.808-1.2l-1.872.304c.272 1.504 1.792 2.512 3.68 2.512 2.4 0 4-1.424 4-3.552v-7.552h-2v.816c-.448-.56-1.28-.944-2.272-.944-2.32 0-3.712 1.6-3.712 3.984 0 2.368 1.392 3.968 3.76 3.968zm-1.76-3.968c0-1.36.816-2.24 2.048-2.24 1.248 0 2.064.88 2.064 2.24 0 1.344-.816 2.224-2.064 2.224-1.232 0-2.048-.88-2.048-2.224zm7.515.176c0 2.096 1.424 4.16 4.096 4.16 1.888 0 3.296-.896 3.744-2.416l-1.888-.512c-.208.784-.88 1.232-1.824 1.232-1.152 0-1.936-.72-2.112-1.936h5.984c.016-.16.032-.512.032-.8 0-1.872-1.328-3.888-4.048-3.888-2.672 0-3.984 2.064-3.984 4.16zm2.064-.944c.224-1.088.928-1.68 1.92-1.68 1.168 0 1.792.72 1.888 1.68h-3.808zM373.26 22h1.872l2.944-8.064h-2.048l-1.84 5.728-1.84-5.728h-2.032L373.26 22zm5.919 0h2.016v-8.064h-2.016V22zm-.064-9.248h2.176v-2.08h-2.176v2.08zm3.601 5.216c0 2.096 1.424 4.16 4.096 4.16 1.888 0 3.296-.896 3.744-2.416l-1.888-.512c-.208.784-.88 1.232-1.824 1.232-1.152 0-1.936-.72-2.112-1.936h5.984c.016-.16.032-.512.032-.8 0-1.872-1.328-3.888-4.048-3.888-2.672 0-3.984 2.064-3.984 4.16zm2.064-.944c.224-1.088.928-1.68 1.92-1.68 1.168 0 1.792.72 1.888 1.68h-3.808zM393.864 22h1.792l1.664-5.264L398.952 22h1.808l2.496-8.064h-2.032l-1.376 5.248-1.616-5.248h-1.84l-1.616 5.248-1.392-5.248h-2.032L393.864 22zm13.366.128c1.856 0 3.104-1.12 3.104-2.512 0-3.296-4.432-2.16-4.432-3.584 0-.464.432-.736 1.072-.736.656 0 1.36.4 1.584 1.168l1.632-.688c-.352-1.168-1.68-1.968-3.248-1.968-1.76 0-2.864.992-2.864 2.256 0 3.056 4.4 2.064 4.4 3.584 0 .512-.496.912-1.248.912-1.008 0-1.632-.672-1.872-1.488l-1.648.672c.4 1.184 1.568 2.384 3.52 2.384z" fill="#000"/><path fill-rule="evenodd" clip-rule="evenodd" d="M25.275 67.883C29.345 69.13 32 71.14 32 73.261c0 2.115-2.642 4.125-6.686 5.372.946 4.138.535 7.434-1.298 8.491-.43.248-.926.366-1.474.366-1.794 0-4.142-1.267-6.516-3.473-2.374 2.22-4.722 3.499-6.516 3.499-.548 0-1.044-.118-1.468-.366-1.839-1.057-2.256-4.36-1.317-8.51C2.655 77.392 0 75.381 0 73.26c0-2.115 2.642-4.118 6.699-5.371-.946-4.139-.535-7.434 1.298-8.492.43-.248.926-.365 1.474-.365v-.007c1.794 0 4.142 1.266 6.516 3.472C18.361 60.28 20.709 59 22.503 59v.007c.539 0 1.032.118 1.455.365 1.839 1.057 2.256 4.36 1.317 8.511zm-2.778-7.427c-1.357.003-3.35 1.086-5.473 3.06.92.96 1.833 2.057 2.713 3.264a31.58 31.58 0 014.142.711c.144-.659.261-1.305.333-1.918.3-2.494-.085-4.432-.972-4.941a1.51 1.51 0 00-.743-.17v-.007zm-7.547 3.067c-2.127-1.965-4.129-3.041-5.48-3.041v.006c-.3 0-.554.052-.75.17-.88.515-1.258 2.454-.952 4.947.079.607.19 1.24.34 1.893a30.437 30.437 0 014.148-.718 30.81 30.81 0 012.694-3.257zm7.677 7.963c.34-.868.64-1.736.88-2.578a29.443 29.443 0 00-2.674-.516 35.292 35.292 0 011.794 3.094zm-3.679 6.866a34.787 34.787 0 002.922-5.097 34.036 34.036 0 00-2.935-5.078 33.896 33.896 0 00-5.883.007 34.762 34.762 0 00-2.922 5.097 34.036 34.036 0 002.935 5.078 33.935 33.935 0 005.883-.007zm4.58-.744a27.972 27.972 0 00-.901-2.598c-.267.522-.548 1.051-.848 1.573-.3.529-.62 1.045-.94 1.547a29.226 29.226 0 002.688-.522zM14.2 79.886c.6.764 1.206 1.462 1.813 2.089.6-.627 1.207-1.325 1.794-2.09-.594.033-1.2.047-1.813.047-.607 0-1.207-.02-1.794-.046zm-5.714-2.271a29.38 29.38 0 002.674.515 43.153 43.153 0 01-.939-1.527 30.862 30.862 0 01-.855-1.567c-.339.868-.639 1.737-.88 2.579zm9.308-10.979a26.92 26.92 0 00-1.814-2.088 25.51 25.51 0 00-1.793 2.088c.593-.032 1.2-.045 1.813-.045.607 0 1.207.02 1.794.045zm-7.58 3.303c.3-.529.62-1.044.94-1.547-.933.137-1.833.313-2.688.516.248.848.548 1.723.9 2.597.268-.522.548-1.044.848-1.566zm-8.766 3.322c0 1.025 1.494 2.317 3.803 3.303.567.241 1.18.463 1.826.665a30.921 30.921 0 011.448-3.955A31.359 31.359 0 017.057 69.3c-.632.203-1.245.418-1.806.66-2.31.979-3.803 2.277-3.803 3.302zm6.34 7.689c-.3 2.493.085 4.431.972 4.94.196.111.443.17.737.177 1.357 0 3.353-1.084 5.479-3.061a31.864 31.864 0 01-2.714-3.264 31.615 31.615 0 01-4.141-.711c-.144.66-.261 1.305-.333 1.919zm15.491 4.914c.88-.515 1.26-2.454.953-4.947a18.3 18.3 0 00-.34-1.9c-1.278.32-2.674.562-4.148.719a30.819 30.819 0 01-2.694 3.257c2.127 1.964 4.129 3.041 5.48 3.041.3 0 .554-.052.75-.17zm1.657-8.641a20.084 20.084 0 001.807-.66c2.309-.978 3.803-2.277 3.809-3.302 0-1.025-1.494-2.317-3.803-3.302a20.662 20.662 0 00-1.833-.666 30.908 30.908 0 01-1.448 3.955 31.365 31.365 0 011.468 3.975zm-5.961-3.962a2.982 2.982 0 11-2.981-2.983 2.982 2.982 0 012.98 2.983z" fill="#BFBFBC"/><path d="M41.072 79h2.176v-4.592h1.776L47.664 79h2.544l-2.976-5.008c1.104-.544 1.76-1.616 1.76-2.88 0-2.016-1.424-3.312-3.616-3.312h-4.32l.016 11.2zm2.176-6.464v-2.864h1.792c1.12 0 1.76.544 1.76 1.44 0 .896-.64 1.424-1.76 1.424h-1.792zm7.187 2.432c0 2.096 1.424 4.16 4.096 4.16 1.888 0 3.296-.896 3.744-2.416l-1.888-.512c-.208.784-.88 1.232-1.824 1.232-1.152 0-1.936-.72-2.112-1.936h5.984c.016-.16.032-.512.032-.8 0-1.872-1.328-3.888-4.048-3.888-2.672 0-3.984 2.064-3.984 4.16zm2.064-.944c.224-1.088.928-1.68 1.92-1.68 1.168 0 1.792.72 1.888 1.68h-3.808zm12.165-.208v.08l-1.504.144c-2.4.256-3.6 1.104-3.6 2.688 0 1.376 1.104 2.4 2.688 2.4.992 0 1.968-.512 2.416-1.296V79h1.952v-4.912c0-2.144-1.44-3.28-3.552-3.28-1.712 0-3.136 1.024-3.392 2.624l1.792.32c.096-.864.72-1.408 1.6-1.408.976 0 1.6.56 1.6 1.472zm-3.152 2.848c0-.576.544-1.024 1.616-1.152l1.536-.176v.176c0 1.184-.72 2.128-1.968 2.128-.736 0-1.184-.416-1.184-.976zm10.737 2.464c2.032 0 3.488-1.024 3.792-2.72l-1.968-.4c-.192.864-.816 1.376-1.76 1.376-1.248 0-2.064-.944-2.064-2.416s.816-2.416 2.064-2.416c.944 0 1.616.576 1.76 1.424l1.968-.384c-.272-1.712-1.728-2.784-3.792-2.784-2.416 0-4.096 1.696-4.096 4.16 0 2.464 1.68 4.16 4.096 4.16zm9.949-.208l-.144-1.76c-.288.144-.64.192-.945.192-.623 0-1.04-.416-1.04-1.184v-3.536h2.032v-1.696H80.07v-2.368h-2.016v2.368h-1.36v1.696h1.36v3.728c0 1.888 1.215 2.768 2.847 2.768.465 0 .897-.064 1.297-.208z" fill="#000"/><path d="M172.001 74.454h-7.721a.897.897 0 01-.897-.9c0-.496.401-.898.897-.898h7.721c.586 0 1.064-.476 1.064-1.062v-1.102a.897.897 0 111.793 0v1.102a2.86 2.86 0 01-2.857 2.86z" fill="#BFBFBC"/><path d="M166.23 76.406a.894.894 0 01-.634-.263l-1.953-1.953a.895.895 0 01-.263-.635c0-.239.096-.467.263-.636l1.953-1.953a.895.895 0 011.268 0 .9.9 0 010 1.27l-1.317 1.319 1.317 1.316a.9.9 0 01-.634 1.535z" fill="#BFBFBC"/><path d="M178.754 83.082h-25.507A3.252 3.252 0 01150 79.833V66.166a3.25 3.25 0 013.247-3.247h25.507A3.25 3.25 0 01182 66.166v13.667a3.25 3.25 0 01-3.246 3.249zm-25.507-18.368c-.8 0-1.452.651-1.452 1.45v13.668c0 .8.652 1.452 1.452 1.452h25.507c.801 0 1.451-.651 1.451-1.452V66.166c0-.8-.652-1.45-1.451-1.45l-25.507-.002z" fill="#BFBFBC"/><path d="M176.605 80.552h-21.212c-1.573 0-2.852-1.167-2.852-2.6V68.05c0-1.433 1.279-2.6 2.852-2.6h21.212c1.573 0 2.852 1.167 2.852 2.6v9.902c0 1.433-1.279 2.6-2.852 2.6zm-21.212-13.306c-.573 0-1.057.369-1.057.804v9.902c0 .436.484.803 1.057.803h21.212c.573 0 1.057-.368 1.057-.803V68.05c0-.436-.484-.804-1.057-.804h-21.212z" fill="#BFBFBC"/><path d="M190.056 79h2.176v-4.848h4.368v-1.888h-4.368v-2.592h5.408V67.8h-7.584V79zm11.899.128c2.448 0 4.208-1.76 4.208-4.16 0-2.4-1.76-4.16-4.208-4.16-2.448 0-4.208 1.76-4.208 4.16 0 2.4 1.76 4.16 4.208 4.16zm-2.176-4.16c0-1.44.864-2.416 2.176-2.416 1.296 0 2.176.976 2.176 2.416s-.88 2.416-2.176 2.416c-1.312 0-2.176-.976-2.176-2.416zm13.1-2.08l.128-1.952a3.076 3.076 0 00-.88-.128c-.976 0-2.032.688-2.432 1.6v-1.472h-2.016V79h2.016v-2.96c0-2.4 1.024-3.344 2.16-3.344.352 0 .736.064 1.024.192zm1.3 6.112h2.016v-4.096c0-1.424.624-2.384 1.728-2.384.928 0 1.44.608 1.44 1.568V79h2.016v-4.112c0-1.424.624-2.368 1.712-2.368.944 0 1.472.608 1.472 1.568V79h2.016v-5.472c0-1.584-1.136-2.72-2.88-2.72-1.28 0-2.24.704-2.672 1.52-.368-.976-1.232-1.52-2.512-1.52-1.12 0-1.872.56-2.32 1.36v-1.232h-2.016V79zm17.176.128c1.856 0 3.104-1.12 3.104-2.512 0-3.296-4.432-2.16-4.432-3.584 0-.464.432-.736 1.072-.736.656 0 1.36.4 1.584 1.168l1.632-.688c-.352-1.168-1.68-1.968-3.248-1.968-1.76 0-2.864.992-2.864 2.256 0 3.056 4.4 2.064 4.4 3.584 0 .512-.496.912-1.248.912-1.008 0-1.632-.672-1.872-1.488l-1.648.672c.4 1.184 1.568 2.384 3.52 2.384z" fill="#000"/><path d="M303.001 58.889A3.017 3.017 0 00300 61.89v23.998a3.017 3.017 0 003.001 3H315v-2h-11.999c-.571 0-1-.43-1-1V61.89a.978.978 0 011-1.001h18.002c.571 0 .995.43.995 1.001v5.999h2.001V61.89a3.014 3.014 0 00-2.996-3.001h-18.002z" fill="#BFBFBC"/><path d="M319.001 68.888A3.017 3.017 0 00316 71.889v14a3.017 3.017 0 003.001 3.001H327a3.017 3.017 0 003.001-3v-14A3.017 3.017 0 00327 68.887h-7.999zm0 2H327c.571 0 1 .429 1 1v14c0 .571-.429 1-1 1h-7.999c-.571 0-1-.429-1-1v-14c0-.571.429-1 1-1z" fill="#BFBFBC"/><path d="M324 84.889a1 1 0 11-1.999.001A1 1 0 01324 84.89zM313 84.889a1 1 0 11-1.999.001A1 1 0 01313 84.89z" fill="#BFBFBC"/><path d="M340.056 79h2.048v-7.152L345.112 79h1.632l3.008-7.152V79h2.048V67.8h-2.448l-3.424 8.112-3.424-8.112h-2.448V79zm17.555.128c2.448 0 4.208-1.76 4.208-4.16 0-2.4-1.76-4.16-4.208-4.16-2.448 0-4.208 1.76-4.208 4.16 0 2.4 1.76 4.16 4.208 4.16zm-2.176-4.16c0-1.44.864-2.416 2.176-2.416 1.296 0 2.176.976 2.176 2.416s-.88 2.416-2.176 2.416c-1.312 0-2.176-.976-2.176-2.416zm12.22 4.16c2.416 0 3.84-1.696 3.84-4.16 0-2.464-1.424-4.16-3.808-4.16-1.008 0-1.872.416-2.336 1.024v-4.16h-2.016V79h2.016v-.928c.4.64 1.296 1.056 2.304 1.056zm-2.432-4.16c0-1.456.848-2.416 2.144-2.416 1.28 0 2.128.96 2.128 2.416s-.848 2.416-2.128 2.416c-1.296 0-2.144-.96-2.144-2.416zm7.8 4.032h2.016v-8.064h-2.016V79zm-.064-9.248h2.176v-2.08h-2.176v2.08zM376.992 79h2.016V67.672h-2.016V79zm3.536-4.032c0 2.096 1.424 4.16 4.096 4.16 1.888 0 3.296-.896 3.744-2.416l-1.888-.512c-.208.784-.88 1.232-1.824 1.232-1.152 0-1.936-.72-2.112-1.936h5.984c.016-.16.032-.512.032-.8 0-1.872-1.328-3.888-4.048-3.888-2.672 0-3.984 2.064-3.984 4.16zm2.064-.944c.224-1.088.928-1.68 1.92-1.68 1.168 0 1.792.72 1.888 1.68h-3.808zm15.097 5.104c2.528 0 4.224-1.328 4.224-3.312 0-4.544-5.984-3.04-5.984-5.072 0-.752.656-1.216 1.728-1.216 1.168 0 1.984.688 2.208 1.776l1.952-.8c-.352-1.696-2.032-2.832-4.16-2.832-2.208 0-3.888 1.28-3.888 3.072 0 4.064 5.936 2.704 5.936 5.12 0 .848-.768 1.408-1.936 1.408-1.248 0-2.288-.912-2.464-2.256l-1.936.592c.272 2.032 2.112 3.52 4.32 3.52zm5.773-.128h3.664c3.088 0 5.744-1.84 5.744-5.6s-2.656-5.6-5.744-5.6h-3.664V79zm2.144-1.888v-7.44h1.328c1.92 0 3.728.992 3.728 3.728s-1.808 3.712-3.728 3.712h-1.328zM416.67 79v-3.888l1.232-1.264L421.39 79h2.72l-4.72-6.72 4.32-4.48h-2.864l-4.176 4.432V67.8h-2.177V79h2.177zm11.153.128c1.856 0 3.104-1.12 3.104-2.512 0-3.296-4.432-2.16-4.432-3.584 0-.464.432-.736 1.072-.736.656 0 1.36.4 1.584 1.168l1.632-.688c-.352-1.168-1.68-1.968-3.248-1.968-1.76 0-2.864.992-2.864 2.256 0 3.056 4.4 2.064 4.4 3.584 0 .512-.496.912-1.248.912-1.008 0-1.632-.672-1.872-1.488l-1.648.672c.4 1.184 1.568 2.384 3.52 2.384z" fill="#000"/></svg>