<svg fill="none" xmlns="http://www.w3.org/2000/svg" viewBox="0 0 352 126"><path fill-rule="evenodd" clip-rule="evenodd" d="M6 91.703a6 6 0 01-6-6V40a6 6 0 016-6h45.703a6 6 0 016 6v16.5a6 6 0 006 6H138a6 6 0 006-6v-35a.5.5 0 01.5-.5H174a6 6 0 006-6V6a6 6 0 016-6h30a6 6 0 016 6v9a6 6 0 006 6h131a.5.5 0 010 1H228a6 6 0 00-6 6v8a6 6 0 01-6 6h-30a6 6 0 01-6-6v-8a6 6 0 00-6-6h-23a6 6 0 00-6 6v28.5a6 6 0 006 6h96a6 6 0 006-6V48a6 6 0 016-6h30a6 6 0 016 6v8.5a6 6 0 006 6h58a.5.5 0 010 1h-58a6 6 0 00-6 6V78a6 6 0 01-6 6h-30a6 6 0 01-6-6v-8.5a6 6 0 00-6-6h-96a6 6 0 00-6 6v30a6 6 0 006 6h23a6 6 0 006-6V90a6 6 0 016-6h30a6 6 0 016 6v9.5a6 6 0 006 6h131a.5.5 0 010 1H228a6 6 0 00-6 6v7.5a6 6 0 01-6 6h-30a6 6 0 01-6-6v-7.5a6 6 0 00-6-6h-29.5a.5.5 0 01-.5-.5V69.5a6 6 0 00-6-6H63.703a6 6 0 00-6 6v16.203a6 6 0 01-6 6H6z" fill="#55B5A7"/><path d="M216.39 17.066h-5.486a.64.64 0 00-.461.177.64.64 0 00-.177.46v2.106h-2.651v-2.105a.64.64 0 00-.177-.46.638.638 0 00-.461-.178h-2.105v-3.404h2.105a.638.638 0 00.461-.177.64.64 0 00.177-.46V7.537a.64.64 0 00-.177-.46.638.638 0 00-.461-.178h-5.486a.64.64 0 00-.461.177.64.64 0 00-.177.46v5.487a.64.64 0 00.177.46.64.64 0 00.461.178h2.105v3.404h-2.105a.64.64 0 00-.461.177.64.64 0 00-.177.46v2.106h-2.651v-2.105a.64.64 0 00-.177-.46.638.638 0 00-.461-.178h-5.486a.64.64 0 00-.461.177.64.64 0 00-.177.46v5.487a.64.64 0 00.177.46.64.64 0 00.461.178h2.105v6.147h-1.521V27.87a.64.64 0 00-.177-.461.638.638 0 00-.461-.177h-5.486a.64.64 0 00-.461.177.64.64 0 00-.177.46v5.487a.64.64 0 00.177.46.64.64 0 00.461.178h5.486a.638.638 0 00.461-.177.64.64 0 00.177-.46V31.25h2.159a.64.64 0 00.461-.177.64.64 0 00.177-.461v-6.785h2.105a.638.638 0 00.461-.177.64.64 0 00.177-.46v-2.106h2.651v2.105a.64.64 0 00.177.46.64.64 0 00.461.178h2.105v3.404h-2.105a.64.64 0 00-.461.177.64.64 0 00-.177.46v5.487a.64.64 0 00.177.46.64.64 0 00.461.178h5.486a.638.638 0 00.461-.177.64.64 0 00.177-.46V27.87a.64.64 0 00-.177-.461.638.638 0 00-.461-.177h-2.105v-3.404h2.105a.638.638 0 00.461-.177.64.64 0 00.177-.46v-2.106h2.651v2.105a.64.64 0 00.177.46.64.64 0 00.461.178h5.486a.64.64 0 00.461-.177.64.64 0 00.177-.46v-5.487a.64.64 0 00-.177-.46.64.64 0 00-.461-.178zm-14.261-8.89h4.21v4.21h-4.21v-4.21zm-10.743 24.542h-4.21v-4.21h4.21v4.21zm5.541-10.166h-4.211v-4.21h4.211v4.21zm9.412 10.166h-4.21v-4.21h4.21v4.21zm0-10.166h-4.21v-4.21h4.21v4.21zm9.413 0h-4.21v-4.21h4.21v4.21z" fill="#fff" stroke="#fff" stroke-width=".2"/><path d="M286.269 49.69H261.42a.724.724 0 00-.731.73v5.847c0 .41.322.73.731.73h24.849a.724.724 0 00.731-.73V50.42c0-.409-.322-.73-.731-.73zm-.731 5.846h-23.387v-4.385h23.387v4.385zM276.769 68.691h-5.847a.723.723 0 00-.731.731v5.847c0 .41.321.73.731.73h5.847c.409 0 .73-.32.73-.73v-5.847c0-.409-.321-.73-.73-.73zm-.731 5.847h-4.385v-4.385h4.385v4.385zM267.267 68.691h-5.847a.724.724 0 00-.731.731v5.847c0 .41.322.73.731.73h5.847a.724.724 0 00.731-.73v-5.847c0-.409-.322-.73-.731-.73zm-.731 5.847h-4.385v-4.385h4.385v4.385zM286.269 68.691h-5.847a.724.724 0 00-.731.731v5.847c0 .41.322.73.731.73h5.847a.724.724 0 00.731-.73v-5.847c0-.409-.322-.73-.731-.73zm-.731 5.847h-4.385v-4.385h4.385v4.385zM264.344 59.19a.724.724 0 00-.731.731v4.093l-.935-.935c-.293-.293-.761-.293-1.024 0-.292.292-.292.76 0 1.023l2.193 2.192c.292.293.76.293 1.023 0l2.193-2.192c.292-.293.292-.76 0-1.024-.293-.292-.76-.292-1.024 0l-.964.936v-4.093c0-.409-.322-.73-.731-.73zM273.845 59.19a.724.724 0 00-.731.731v4.093l-.936-.935c-.292-.293-.76-.293-1.023 0-.292.292-.292.76 0 1.023l2.193 2.192c.292.293.76.293 1.023 0l2.193-2.192c.292-.293.292-.76 0-1.024-.293-.292-.761-.292-1.024 0l-.964.936v-4.093c0-.409-.322-.73-.731-.73zM283.346 59.19a.724.724 0 00-.731.731v4.093l-.936-.935c-.292-.293-.76-.293-1.023 0-.292.292-.292.76 0 1.023l2.193 2.192c.292.293.76.293 1.023 0l2.193-2.192c.292-.293.292-.76 0-1.024-.293-.292-.761-.292-1.024 0l-.964.936v-4.093c0-.409-.322-.73-.731-.73z" fill="#fff"/><path d="M193.888 105.008h0V100.441a1.55 1.55 0 00-1.541-1.541h-4.563a1.55 1.55 0 00-1.541 1.541v4.563a1.55 1.55 0 001.541 1.541h4.563c.848 0 1.504-.7 1.541-1.537zm-6.416-4.567c0-.185.127-.312.312-.312h4.563c.185 0 .312.127.312.312v4.563a.296.296 0 01-.312.311h-4.563a.296.296 0 01-.312-.311v-4.563zM205.487 106.545h4.563a1.55 1.55 0 001.541-1.541v-4.563a1.55 1.55 0 00-1.541-1.541h-4.563a1.55 1.55 0 00-1.541 1.541v4.563a1.55 1.55 0 001.541 1.541zm-.312-6.104c0-.185.127-.312.312-.312h4.563c.185 0 .311.127.311.312v4.563a.296.296 0 01-.311.311h-4.563a.296.296 0 01-.312-.311v-4.563zM196.636 106.545h4.563a1.55 1.55 0 001.541-1.541v-4.563a1.55 1.55 0 00-1.541-1.541h-4.563a1.55 1.55 0 00-1.541 1.541v4.563a1.55 1.55 0 001.541 1.541zm-.312-6.104c0-.185.127-.312.312-.312h4.563c.185 0 .311.127.311.312v4.563a.296.296 0 01-.311.311h-4.563a.296.296 0 01-.312-.311v-4.563zM217.674 109.628h0l.006-.009a.71.71 0 00.12-.39.495.495 0 00-.129-.35l-1.747-2.09s0 0 0 0a.632.632 0 00-.858-.084c-.294.213-.284.624-.084.864l.892 1.071h-29.359a.628.628 0 00-.615.615c0 .329.285.614.615.614h29.325l-.893 1.071a.633.633 0 00.082.862h-.001l.009.006a.76.76 0 00.399.12c.185 0 .36-.038.49-.21l1.748-2.09z" fill="#fff" stroke="#fff" stroke-width=".2"/><circle cx="27.5" cy="64.5" r="4.5" stroke="#fff" stroke-width="2"/><circle cx="41.5" cy="48.5" r="7.5" stroke="#fff" stroke-width="2"/><circle cx="39.5" cy="77.5" r="4.5" stroke="#fff" stroke-width="2"/><circle cx="14.5" cy="78.5" r="6.5" stroke="#fff" stroke-width="2"/><circle cx="17.5" cy="54.5" r="2.5" stroke="#fff" stroke-width="2"/><path d="M37.5 55L31 61m-6.5 0l-5-4.5m5 11.5l-5 5.5M31 68l5.5 5.5" stroke="#fff" stroke-width="2" stroke-linecap="round" stroke-linejoin="round"/></svg>