<svg width="352" height="126" viewBox="0 0 352 126" fill="none" xmlns="http://www.w3.org/2000/svg">
<path fill-rule="evenodd" clip-rule="evenodd" d="M6 91.7031C2.6863 91.7031 3.89105e-06 89.0168 3.7462e-06 85.7031L1.74846e-06 40.0001C1.60361e-06 36.6864 2.68629 34.0001 6 34.0001L51.703 34.0001C55.0167 34.0001 57.703 36.6864 57.703 40.0001L57.703 56.5001C57.703 59.8138 60.3893 62.5001 63.703 62.5001L138 62.5001C141.314 62.5001 144 59.8138 144 56.5001L144 21.5001C144 21.224 144.224 21.0001 144.5 21.0001L170 21.0001L174 21.0001C177.314 21.0001 180 18.3138 180 15.0001L180 5.99997C180 2.68626 182.686 -3.08737e-05 186 -3.10185e-05L216 -3.23298e-05C219.314 -3.24747e-05 222 2.68626 222 5.99998L222 15.0001C222 18.3138 224.686 21.0001 228 21.0001L359 21.0001C359.276 21.0001 359.5 21.224 359.5 21.5001C359.5 21.7763 359.276 22.0001 359 22.0001L228 22.0001C224.686 22.0001 222 24.6864 222 28.0001L222 36C222 39.3137 219.314 42 216 42L186 42C182.686 42 180 39.3137 180 36L180 28.0001C180 24.6864 177.314 22.0001 174 22.0001L170 22.0001L151 22.0001C147.686 22.0001 145 24.6864 145 28.0001L145 56.5001C145 59.8138 147.686 62.5001 151 62.5001L247 62.5001C250.314 62.5001 253 59.8138 253 56.5001L253 48.0001C253 44.6864 255.686 42.0001 259 42.0001L289 42.0001C292.314 42.0001 295 44.6864 295 48.0001L295 56.5001C295 59.8138 297.686 62.5001 301 62.5001L359 62.5001C359.276 62.5001 359.5 62.724 359.5 63.0001C359.5 63.2762 359.276 63.5001 359 63.5001L301 63.5001C297.686 63.5001 295 66.1864 295 69.5001L295 78.0001C295 81.3138 292.314 84.0001 289 84.0001L259 84.0001C255.686 84.0001 253 81.3138 253 78.0001L253 69.5001C253 66.1864 250.314 63.5001 247 63.5001L151 63.5001C147.686 63.5001 145 66.1864 145 69.5001L145 99.5001C145 102.814 147.686 105.5 151 105.5L174 105.5C177.314 105.5 180 102.814 180 99.5001L180 90.0001C180 86.6864 182.686 84.0001 186 84.0001L216 84.0001C219.314 84.0001 222 86.6864 222 90.0001L222 99.5001C222 102.814 224.686 105.5 228 105.5L359 105.5C359.276 105.5 359.5 105.724 359.5 106C359.5 106.276 359.276 106.5 359 106.5L228 106.5C224.686 106.5 222 109.186 222 112.5L222 120C222 123.314 219.314 126 216 126L186 126C182.686 126 180 123.314 180 120L180 112.5C180 109.186 177.314 106.5 174 106.5L144.5 106.5C144.224 106.5 144 106.276 144 106L144 69.5001C144 66.1864 141.314 63.5001 138 63.5001L63.703 63.5001C60.3893 63.5001 57.703 66.1864 57.703 69.5001L57.703 85.7031C57.703 89.0168 55.0167 91.7031 51.703 91.7031L6 91.7031Z" fill="#55B5A7"/>
</svg>
