<svg fill="none" xmlns="http://www.w3.org/2000/svg" viewBox="0 0 234 141"><path fill-rule="evenodd" clip-rule="evenodd" d="M0 5.809C0 2.601 2.6 0 5.809 0h53.42c3.209 0 5.81 2.6 5.81 5.809v21.158a4.808 4.808 0 009.616 0V6.064c0-3.208 2.6-5.809 5.808-5.808h147.404a5.81 5.81 0 015.809 5.808V58.7a5.81 5.81 0 01-5.809 5.809H113.171a5.622 5.622 0 100 11.244h19.954a5.81 5.81 0 015.809 5.809v21.028a5.607 5.607 0 005.607 5.607 5.607 5.607 0 005.608-5.607V81.561a5.81 5.81 0 015.809-5.81h71.909a5.81 5.81 0 015.809 5.81v52.633a5.81 5.81 0 01-5.809 5.809h-71.909a5.81 5.81 0 01-5.809-5.809v-19.422a5.607 5.607 0 00-5.608-5.607 5.607 5.607 0 00-5.607 5.607v20.209a5.81 5.81 0 01-5.809 5.809h-53.42a5.81 5.81 0 01-5.81-5.809v-53.42c0-3.209 2.6-5.81 5.81-5.81h21.254a5.622 5.622 0 100-11.244H80.463a5.809 5.809 0 01-5.809-5.808V37.55a4.808 4.808 0 00-9.616 0v21.68c0 3.208-2.6 5.809-5.808 5.809H5.809A5.809 5.809 0 010 59.229V5.81z" fill="#DC9300"/><path fill-rule="evenodd" clip-rule="evenodd" d="M13.61 12.031c-.887 0-1.607.72-1.607 1.606v38.551a1.606 1.606 0 002.41 1.391c.236.137.51.215.803.215h38.55a1.606 1.606 0 000-3.212h-38.55V13.637c0-.887-.72-1.606-1.606-1.606zM87.505 12.288c-.887 0-1.607.719-1.607 1.606v38.55a1.606 1.606 0 002.41 1.392c.236.137.51.215.803.215h128.502a1.606 1.606 0 100-3.213H89.111V13.894c0-.887-.72-1.606-1.606-1.606z" fill="#fff" fill-opacity=".4"/><rect x="18.428" y="36.125" width="8.031" height="11.244" rx="4.016" fill="#fff" fill-opacity=".4"/><rect x="29.673" y="29.7" width="8.031" height="17.669" rx="4.016" fill="#fff" fill-opacity=".6"/><rect x="40.916" y="20.063" width="8.031" height="27.307" rx="4.016" fill="#fff" fill-opacity=".8"/><path opacity=".8" d="M93.127 46.822l12.85-17.669h16.063l9.637 10.441L147.74 15.5H163l7.228 13.653h20.079l11.244 10.441L216.81 20.32" stroke="#fff" stroke-width="1.196" stroke-linecap="round" stroke-linejoin="round"/><path opacity=".8" fill-rule="evenodd" clip-rule="evenodd" d="M105.977 127.94c11.089 0 20.078-8.99 20.078-20.079s-8.989-20.078-20.078-20.078c-11.09 0-20.079 8.99-20.079 20.078 0 11.089 8.99 20.079 20.079 20.079zm0-9.638c5.766 0 10.441-4.675 10.441-10.441 0-5.766-4.675-10.44-10.441-10.44-5.767 0-10.441 4.674-10.441 10.44 0 5.766 4.674 10.441 10.441 10.441z" fill="url(#paint0_angular)"/><rect x="161.394" y="90.995" width="9.564" height="4.782" rx="2.391" fill="#fff" fill-opacity=".2"/><rect x="173.349" y="90.995" width="9.564" height="4.782" rx="2.391" fill="#fff" fill-opacity=".4"/><rect x="185.305" y="90.995" width="9.564" height="4.782" rx="2.391" fill="#fff" fill-opacity=".7"/><rect x="197.26" y="90.995" width="9.564" height="4.782" rx="2.391" fill="#fff"/><rect x="161.394" y="100.633" width="9.564" height="4.782" rx="2.391" fill="#fff" fill-opacity=".2"/><rect x="173.349" y="100.633" width="9.564" height="4.782" rx="2.391" fill="#fff" fill-opacity=".4"/><rect x="185.305" y="100.633" width="9.564" height="4.782" rx="2.391" fill="#fff" fill-opacity=".7"/><rect x="161.394" y="110.271" width="9.564" height="4.782" rx="2.391" fill="#fff" fill-opacity=".2"/><rect x="173.349" y="110.271" width="9.564" height="4.782" rx="2.391" fill="#fff" fill-opacity=".4"/><rect x="161.394" y="119.908" width="9.564" height="4.782" rx="2.391" fill="#fff" fill-opacity=".2"/><defs><radialGradient id="paint0_angular" cx="0" cy="0" r="1" gradientUnits="userSpaceOnUse" gradientTransform="rotate(90 -.942 106.919) scale(20.0785)"><stop stop-color="#fff"/><stop offset=".19" stop-color="#fff"/><stop offset=".192" stop-color="#fff" stop-opacity=".51"/><stop offset=".363" stop-color="#fff" stop-opacity=".53"/><stop offset=".364" stop-color="#fff"/><stop offset=".496" stop-color="#fff"/><stop offset=".497" stop-color="#fff" stop-opacity=".66"/><stop offset=".998" stop-color="#fff" stop-opacity=".67"/><stop offset="1" stop-color="#fff" stop-opacity="0"/></radialGradient></defs></svg>