<svg fill="none" xmlns="http://www.w3.org/2000/svg" width="215" height="99" viewBox="0 0 215 99"><path d="M121.465 53.74c-18.386-4.137-31.195 18.935-13.439 30.295.253.162.557.25.857.25h97.68c.415 0 .831-.173 1.127-.465 17.805-17.529-5.692-33.135-17.792-28.197-1.34.546-3.348-.34-3.612-1.762-2.211-11.888-14.457-19.022-27.87-11.629-.841.464-1.915.16-2.431-.65-7.871-12.353-28.255-8.687-32.339 10.777-.206.98-1.204 1.601-2.181 1.381z" fill="#3C6D8F"/><path fill-rule="evenodd" clip-rule="evenodd" d="M98.733 11.908v20.028h25.441V0c6.577 0 11.908 5.332 11.908 11.908v20.028h6.496V84.44H77.082V31.936h9.743V11.908C86.825 5.332 92.156 0 98.733 0h25.441v11.908h-25.44zm14.56 47.478a8.931 8.931 0 10-6.743.075l-2.675 16.049h12.721l-3.303-16.124z" fill="#92C2E3"/><path d="M21.933 67.211C3.547 63.074-9.262 86.146 8.494 97.505c.253.162.557.25.857.25h97.679c.416 0 .832-.173 1.128-.464 17.804-17.53-5.692-33.136-17.793-28.198-1.34.547-3.347-.34-3.611-1.762-2.211-11.887-14.457-19.021-27.87-11.629-.842.464-1.916.16-2.432-.65-7.87-12.352-28.254-8.687-32.338 10.777-.206.98-1.204 1.602-2.181 1.382z" fill="#6D9EC0"/><path d="M153.405 90.334l7.78 7.77h-7.78v-7.77zm0-1.942l9.725 9.712h7.779l-17.504-17.482v7.77zm0-9.712l19.449 19.424h7.78L153.405 70.91v7.77zm9.725 0l19.449 19.424v-7.77L163.13 70.91v7.77zm9.724-7.77v7.77l9.725 9.712v-7.77l-9.725-9.712z" fill="#000"/><path fill-rule="evenodd" clip-rule="evenodd" d="M194.773 92.797a7.517 7.517 0 005.312 2.197v3.108h-16.129V81.994l10.817 10.803zm-4.593.644a1.555 1.555 0 01-3.112 0 1.555 1.555 0 013.112 0z" fill="#000"/><path d="M153.403 98.102h7.78l-7.78-7.77v7.77zM163.131 80.623l-9.725-9.712v7.77l9.725 9.711v-7.77zM153.403 80.62v7.77l9.725 9.712v-7.77l-9.725-9.711zM172.854 80.62l-9.725-9.711v7.77l9.725 9.711v-7.77z" fill="#000"/><path d="M163.127 98.102h7.78l-7.78-7.77v7.77zM163.127 80.62v7.77l9.725 9.712v-7.77l-9.725-9.711z" fill="#000"/></svg>