<svg xmlns="http://www.w3.org/2000/svg" width="253" height="147" fill="none" viewBox="0 0 253 147"><circle cx="25.265" cy="27.878" r="6.776" fill="#FFAC6C"/><path fill="#FFAC6C" fill-rule="evenodd" d="M12.3283 48.2072H38.1724C37.8509 41.3486 32.1885 35.8867 25.2504 35.8867C18.3123 35.8867 12.6498 41.3486 12.3283 48.2072Z" clip-rule="evenodd"/><path fill="#D27EF3" fill-rule="evenodd" d="M25.2504 83.9364C35.1067 83.9364 41.8829 73.4641 41.8829 73.4641C41.8829 73.4641 35.7227 62.9917 25.2504 62.9917C14.778 62.9917 8.6178 73.4641 8.6178 73.4641C8.6178 73.4641 15.394 83.9364 25.2504 83.9364ZM25.2504 81.4724C29.6733 81.4724 33.2587 77.8869 33.2587 73.4641C33.2587 69.0412 29.6733 65.4558 25.2504 65.4558C20.8276 65.4558 17.2421 69.0412 17.2421 73.4641C17.2421 77.8869 20.8276 81.4724 25.2504 81.4724Z" clip-rule="evenodd"/><circle cx="25.25" cy="73.464" r="3.08" fill="#D27EF3"/><path fill="#DCE85F" d="M14.2646 100.25L23.7566 120.284C23.934 120.668 24.3185 120.905 24.7398 120.898C25.1686 120.89 25.5456 120.632 25.7083 120.247L28.7022 113.261L35.6882 110.267C36.0726 110.105 36.3314 109.72 36.3388 109.299C36.3388 109.299 36.3388 109.291 36.3388 109.284C36.3388 108.87 36.1022 108.493 35.7252 108.316L15.6914 98.8235C15.2847 98.6313 14.7969 98.7126 14.479 99.0379C14.1537 99.3558 14.0724 99.8437 14.2646 100.25Z"/><path fill="#fff" d="M216 80.2068L222.091 86.2892H216V80.2068ZM216 78.6862L223.614 86.2892H229.704L216 72.6037V78.6862ZM216 71.0831L231.227 86.2892H237.318L216 65.0006V71.0831ZM223.614 71.0831L238.84 86.2892V80.2068L223.614 65.0006V71.0831ZM231.227 65.0006V71.0831L238.84 78.6862V72.6037L231.227 65.0006Z"/><path fill="#fff" fill-rule="evenodd" d="M248.387 82.1356C249.489 83.2366 250.985 83.8558 252.545 83.8558V86.2887H239.918V73.6786L248.387 82.1356ZM244.791 82.6394C244.791 83.3112 244.246 83.8559 243.573 83.8559C242.9 83.8559 242.355 83.3112 242.355 82.6394C242.355 81.9675 242.9 81.4229 243.573 81.4229C244.246 81.4229 244.791 81.9675 244.791 82.6394Z" clip-rule="evenodd"/><path fill="#fff" d="M216 86.2888H222.091L216 80.2063V86.2888Z"/><path fill="#fff" d="M223.614 72.6037L216.001 65.0006V71.0831L223.614 78.6861V72.6037Z"/><path fill="#fff" d="M216 72.6033V78.6857L223.613 86.2888V80.2063L216 72.6033Z"/><path fill="#fff" d="M231.227 72.6031L223.614 65V71.0825L231.227 78.6855V72.6031Z"/><path fill="#fff" d="M223.613 86.2885H229.703L223.613 80.2061V86.2885Z"/><path fill="#fff" d="M223.613 72.603V78.6855L231.226 86.2886V80.2061L223.613 72.603Z"/><path fill="url(#paint0_linear)" d="M50 0C103.036 28.9487 156.947 57.3325 185.377 64.0225C191.156 65.3825 196 70.313 196 76.25C196 82.1871 191.164 87.0605 185.328 88.1496C156.783 93.4765 104.733 116.787 50 147L50 0Z"/><defs><linearGradient id="paint0_linear" x1="196" x2="50" y1="76" y2="76" gradientUnits="userSpaceOnUse"><stop stop-color="#fff"/><stop offset="1" stop-color="#3C0B65" stop-opacity="0"/></linearGradient></defs></svg>