<svg fill="none" xmlns="http://www.w3.org/2000/svg" width="135" height="223" viewBox="0 0 135 223"><g opacity=".4"><ellipse cx="67.89" cy="129.828" rx="25.509" ry="6.478" fill="#331251"/><path opacity=".4" fill-rule="evenodd" clip-rule="evenodd" d="M93.399 115.257v-.006c0-3.578-11.42-6.478-25.509-6.478-14.088 0-25.508 2.9-25.509 6.478v12.957c0 3.578 11.421 6.478 25.51 6.478 14.087 0 25.508-2.9 25.508-6.478v-12.951z" fill="#fff"/><path opacity=".4" d="M93.399 115.251c0 3.578-11.42 6.479-25.509 6.479-14.088 0-25.509-2.901-25.509-6.479 0-3.578 11.421-6.478 25.51-6.478 14.087 0 25.508 2.9 25.508 6.478z" fill="#fff"/><ellipse cx="67.89" cy="115.251" rx="25.509" ry="6.478" fill="#331251"/><path opacity=".4" fill-rule="evenodd" clip-rule="evenodd" d="M93.399 100.681v-.007c0-3.578-11.42-6.478-25.509-6.478-14.088 0-25.509 2.9-25.509 6.478V113.631c0 3.578 11.421 6.479 25.51 6.479 14.087 0 25.508-2.901 25.508-6.479v-12.95z" fill="#fff"/><ellipse cx="67.89" cy="100.674" rx="25.509" ry="6.478" fill="#331251"/><path opacity=".4" fill-rule="evenodd" clip-rule="evenodd" d="M93.399 86.107v-.009c0-3.578-11.42-6.478-25.509-6.478-14.088 0-25.508 2.9-25.509 6.478v12.957c0 3.578 11.421 6.478 25.51 6.478 14.087 0 25.508-2.9 25.508-6.478V86.107z" fill="#fff"/><ellipse cx="67.89" cy="86.098" rx="25.509" ry="6.478" fill="#331251"/><ellipse cx="67.89" cy="84.478" rx="25.509" ry="6.478" fill="#fff" fill-opacity=".8"/></g><path fill-rule="evenodd" clip-rule="evenodd" d="M.75 218.141A4.859 4.859 0 005.608 223H35.59a4.859 4.859 0 004.86-4.859v-17.377a4.859 4.859 0 014.858-4.859H69.25a.405.405 0 00.405-.405v-48a.405.405 0 10-.81 0v42.736a4.859 4.859 0 01-4.86 4.859H45.308a4.859 4.859 0 01-4.859-4.859v-23.377A4.859 4.859 0 0035.59 162h-9.576a4.859 4.859 0 01-4.859-4.859v-25.043a7.693 7.693 0 017.694-7.693h23.23a.405.405 0 100-.81h-23.23a8.503 8.503 0 00-8.503 8.503v25.043a4.859 4.859 0 01-4.86 4.859H5.609a4.859 4.859 0 00-4.858 4.859v51.282zM106.184 97.095a7.693 7.693 0 007.693-7.693V65.859A4.859 4.859 0 00109.018 61h-10.16A4.859 4.859 0 0194 56.141V35.764a4.859 4.859 0 00-4.859-4.86H74.513a4.859 4.859 0 00-4.858 4.86V74.5a.405.405 0 01-.81 0v-44a.405.405 0 01.405-.405H89.14A4.859 4.859 0 0094 25.236V4.86A4.859 4.859 0 0198.859 0h31.282A4.859 4.859 0 01135 4.859V56.14A4.859 4.859 0 01130.141 61h-10.595a4.859 4.859 0 00-4.859 4.859v23.543a8.503 8.503 0 01-8.503 8.503H82.078a.405.405 0 110-.81h24.106z" fill="#DE9A69"/><path d="M53.75 138.315l4.933 4.925H53.75v-4.925zm0-1.232l6.166 6.157h4.932L53.75 132.158v4.925zm0-6.157l12.331 12.314h4.932L53.75 126.001v4.925zm6.166 0l12.33 12.314v-4.925l-12.33-12.314v4.925zm6.165-4.925v4.925l6.165 6.157v-4.925l-6.165-6.157z" fill="#000"/><path fill-rule="evenodd" clip-rule="evenodd" d="M79.977 139.876a4.764 4.764 0 003.367 1.393v1.971H73.12v-10.212l6.858 6.848zm-2.912.408a.986.986 0 11-1.972 0 .986.986 0 011.972 0z" fill="#000"/><path d="M53.75 143.239h4.932l-4.932-4.925v4.925zM59.916 132.158l-6.165-6.157v4.925l6.165 6.157v-4.925zM53.75 132.157v4.926l6.165 6.157v-4.926l-6.165-6.157zM66.08 132.157L59.916 126v4.926l6.166 6.157v-4.926z" fill="#000"/><path d="M59.914 143.239h4.933l-4.932-4.925v4.925zM59.914 132.157v4.926l6.166 6.157v-4.926l-6.166-6.157z" fill="#000"/><rect x="99" y="5" width="13" height="13" rx="1" fill="#fff" fill-opacity=".6"/><rect x="117" y="36" width="13" height="20" rx="1" fill="#fff" fill-opacity=".4"/><path d="M116.5 6h13m-13 5h13M116.5 16h13" stroke="#fff" stroke-opacity=".6" stroke-linecap="round" stroke-linejoin="round"/><g opacity=".2"><rect x="23.75" y="167" width="11" height="11" rx="1" fill="#fff"/><rect x="24.25" y="167.5" width="10" height="10" rx=".5" stroke="#fff" stroke-opacity=".8"/></g><path d="M6.75 169h13m-13 5h13M6.75 179h13M6.75 183h28m-28 5h28M6.75 193h28M6.75 197h28m-28 5h28M6.75 207h28M6.75 212h28m-28 5h28M99 25h30.5M99 30h30.5M99 37h13m-13 5h13M99 47h13M99 51h13m-13 5h13" stroke="#fff" stroke-opacity=".6" stroke-linecap="round" stroke-linejoin="round"/><circle cx="82.75" cy="98" r="2.5" fill="#563672" stroke="#685EAA"/><circle cx="69.75" cy="31" r="2.5" fill="#563672" stroke="#685EAA"/><circle cx="68.75" cy="196" r="2.5" fill="#563672" stroke="#685EAA"/><circle cx="54.75" cy="124" r="2.5" fill="#563672" stroke="#685EAA"/></svg>