<svg fill="none" viewBox="0 0 1140 168"><path fill="#9FA566" fill-rule="evenodd" d="M39.684 15.762A4.762 4.762 0 0034.922 11H4.762A4.762 4.762 0 000 15.762v30.16a4.762 4.762 0 004.762 4.762h30.16a4.762 4.762 0 004.762-4.762v-7.54a4.762 4.762 0 014.762-4.762h92.373a7.54 7.54 0 017.54 7.54v44.18a4.762 4.762 0 01-4.762 4.762h-37.151a4.762 4.762 0 01-4.762-4.762V74.762A4.762 4.762 0 0092.922 70h-30.16A4.762 4.762 0 0058 74.762v30.16a4.762 4.762 0 004.762 4.762h30.16a4.762 4.762 0 004.762-4.762v-9.263a4.762 4.762 0 014.762-4.762h86.128a7.54 7.54 0 017.54 7.54v42.904a4.762 4.762 0 01-4.762 4.762h-38.906a4.762 4.762 0 01-4.762-4.762v-8.579a4.762 4.762 0 00-4.762-4.762h-30.16a4.762 4.762 0 00-4.762 4.762v30.16a4.762 4.762 0 004.762 4.762h30.16a4.762 4.762 0 004.762-4.762v-11.263a4.762 4.762 0 014.762-4.762H565.5a.397.397 0 000-.794H201.67a4.762 4.762 0 01-4.762-4.762V98.437a8.334 8.334 0 00-8.334-8.334h-38.66a4.762 4.762 0 01-4.762-4.762V41.16a8.333 8.333 0 00-8.333-8.334H44.446a4.762 4.762 0 01-4.762-4.762V15.762z" clip-rule="evenodd"/><mask id="a" fill="#fff"><path fill-rule="evenodd" d="M64.35 80.318c0-.877.71-1.588 1.587-1.588H90.54c.876 0 1.587.71 1.587 1.588v14.286c0 .876-.71 1.587-1.587 1.587H79.766c-.197 0-.337.2-.337.397v3.968c0 .198.14.397.337.397h4.822a.397.397 0 010 .794H71.89a.397.397 0 010-.794h4.822c.198 0 .337-.199.337-.397v-3.968c0-.197-.14-.397-.337-.397H65.937c-.877 0-1.588-.71-1.588-1.587V80.318z" clip-rule="evenodd"/></mask><path fill="#fff" d="M84.588 101.747v.793-.793zm-6.35 0v-.794.794zm-6.349 0v.793-.793zm-5.952-23.81a2.381 2.381 0 00-2.381 2.38h1.587c0-.438.355-.793.794-.793v-1.587zm24.604 0H65.937v1.587H90.54v-1.587zm2.38 2.38a2.381 2.381 0 00-2.38-2.38v1.587c.438 0 .793.355.793.794h1.588zm0 14.287V80.318h-1.587v14.286h1.588zm-2.38 2.38a2.381 2.381 0 002.38-2.38h-1.587a.794.794 0 01-.793.793v1.588zm-10.775 0h10.775v-1.587H79.766v1.588zm.457 3.572v-3.968h-1.588v3.968h1.588zm-.457 1.191h4.822v-1.588h-4.822v1.588zm4.822 0a.397.397 0 01-.397-.397h1.588a1.19 1.19 0 00-1.19-1.191v1.588zm-.397-.397c0-.219.178-.397.397-.397v1.587a1.19 1.19 0 001.19-1.19h-1.587zm.397-.397h-6.35v1.587h6.35v-1.587zm-6.35 0H71.89v1.587h6.35v-1.587zm-6.349 0c.22 0 .397.178.397.397H70.7c0 .657.533 1.19 1.19 1.19v-1.587zm.397.397a.397.397 0 01-.397.397v-1.588a1.19 1.19 0 00-1.19 1.191h1.587zm-.397.397h4.822v-1.588H71.89v1.588zm4.365-5.16v3.969h1.588v-3.968h-1.588zm-10.317.398H76.71v-1.588H65.937v1.588zm-2.381-2.381a2.381 2.381 0 002.38 2.38v-1.587a.794.794 0 01-.793-.793h-1.587zm0-14.286v14.286h1.587V80.318h-1.587zm14.286 16.27c0-.276-.094-.55-.268-.768a1.102 1.102 0 00-.863-.423v1.588a.485.485 0 01-.377-.174.35.35 0 01-.08-.223h1.588zm-1.13 5.159c.386 0 .684-.2.862-.423.174-.217.268-.492.268-.768h-1.588c0-.078.025-.154.08-.223a.487.487 0 01.377-.174v1.588zm1.923-1.191c0 .276.095.551.268.768.179.223.476.423.863.423v-1.588c.19 0 .318.1.378.174a.356.356 0 01.079.223h-1.588zm1.131-5.159c-.387 0-.684.2-.863.423a1.237 1.237 0 00-.268.768h1.588a.35.35 0 01-.08.223.486.486 0 01-.377.174v-1.588z" mask="url(#a)"/><rect width="22.223" height="11.905" x="67.127" y="81.508" stroke="#fff" stroke-width=".794" rx=".397"/><path fill="#fff" fill-rule="evenodd" d="M34.922 22.111H4.762v11.905h17.356l-2.217-4.68a.608.608 0 01.122-.694.608.608 0 01.695-.123l11.471 5.436a.62.62 0 01.104.061h2.629V22.111z" clip-rule="evenodd" opacity=".6"/><path stroke="#fff" stroke-width=".794" d="M25.696 40.642h0l-.002-.004-5.435-11.471s0 0 0 0a.21.21 0 01.042-.24h0l.006-.007a.21.21 0 01.241-.042l11.471 5.435.001.001c.076.036.124.11.124.195h0v.001h0v.001h0v.001h0v.001h0a.22.22 0 01-.13.194h-.002l-4 1.715-.146.063-.063.145-1.714 4h0l-.001.002a.216.216 0 01-.196.13h0a.208.208 0 01-.196-.12z"/><path fill="#fff" fill-rule="evenodd" d="M138.16 148.635a1.587 1.587 0 113.174 0v9.525c0 .876-.71 1.587-1.587 1.587h-25.398v-11.111a1.588 1.588 0 013.175 0v6.349c0 .876.711 1.587 1.587 1.587h17.461c.877 0 1.588-.711 1.588-1.587v-6.35z" clip-rule="evenodd" opacity=".4"/><path fill="#fff" fill-opacity=".8" d="M128.636 135.143a.794.794 0 00-1.588 0h1.588zM127.842 153l4.582-7.936h-9.164l4.582 7.936zm-.794-17.857v10.714h1.588v-10.714h-1.588z"/><rect width="21.7" height="14" x="563.65" y="139" fill="#563672" rx="3.5"/><path fill="#839BFF" fill-opacity=".6" fill-rule="evenodd" d="M951.905 161.641a4.858 4.858 0 004.859 4.859h30.772a4.858 4.858 0 004.859-4.859v-30.772a4.858 4.858 0 00-4.859-4.859h-30.772a4.858 4.858 0 00-4.859 4.859v10.367a4.858 4.858 0 01-4.859 4.859h-19.377a4.858 4.858 0 01-4.859-4.859v-22.138a7.693 7.693 0 017.693-7.693h78.357c.03 0 .04.019.04.043 0 .023.02.042.05.042h35.59c2.68 0 4.86-2.175 4.86-4.859V75.859a4.862 4.862 0 00-4.86-4.859h-30.78a4.862 4.862 0 00-4.86 4.859v29.877a4.853 4.853 0 01-4.85 4.859h-22.881a4.858 4.858 0 01-4.859-4.859V62.098a7.693 7.693 0 017.693-7.693h81.637c2.68 0 4.86 2.175 4.86 4.859v67.138c0 4.696 3.81 8.503 8.5 8.503h14.05c2.68 0 4.85 2.175 4.85 4.859v8.867a4.862 4.862 0 004.86 4.859h30.78c2.68 0 4.86-2.175 4.86-4.859v-30.772a4.862 4.862 0 00-4.86-4.859h-30.78a4.862 4.862 0 00-4.86 4.859v11.377a4.853 4.853 0 01-4.85 4.859H1079a7.69 7.69 0 01-7.69-7.693V59.264a4.862 4.862 0 014.86-4.86h22.69c.03 0 .04.02.04.044 0 .023.02.042.05.042h35.59c2.68 0 4.86-2.175 4.86-4.859V18.86a4.862 4.862 0 00-4.86-4.859h-30.78a4.862 4.862 0 00-4.86 4.859v29.877a4.854 4.854 0 01-4.85 4.86H984.003a8.503 8.503 0 00-8.503 8.502v43.638a4.858 4.858 0 01-4.859 4.859h-40.138a8.503 8.503 0 00-8.503 8.503v22.138a4.858 4.858 0 01-4.859 4.859H585.5a.405.405 0 100 .81h361.546a4.858 4.858 0 014.859 4.859v9.877z" clip-rule="evenodd"/><path fill="#fff" fill-opacity=".2" d="M965.094 157.927l-5.859-10.149a1.75 1.75 0 010-1.753l5.859-10.149a1.756 1.756 0 011.515-.876h11.725a1.755 1.755 0 011.509.876l5.859 10.149a1.754 1.754 0 010 1.753l-5.859 10.149a1.76 1.76 0 01-1.516.876h-11.721a1.748 1.748 0 01-1.512-.876z"/><path fill="#000" d="M976.128 143.634s1.63 3.907-.591 6.121c-2.221 2.215-6.264.797-6.264.797s6.011 6.09 8.225 8.248h.836a1.753 1.753 0 001.515-.876l3.879-6.717-7.6-7.573z" opacity=".1"/><path fill="#fff" d="M978.052 151.628l-1.8-1.8a.324.324 0 00-.066-.051 4.896 4.896 0 00-4.042-7.884 4.892 4.892 0 00-4.723 4.758 4.895 4.895 0 007.914 3.983.246.246 0 00.047.064l1.8 1.8a.28.28 0 00.399 0l.471-.472a.28.28 0 000-.398zm-5.736-1.164a3.685 3.685 0 01-3.611-4.401 3.681 3.681 0 016.673-1.328 3.682 3.682 0 01-3.062 5.729z"/><path fill="#fff" d="M969.963 146.585v1.522c.234.414.573.759.984 1v-2.531l-.984.009z"/><path fill="#fff" d="M969.963 146.585v1.522c.234.414.573.759.984 1v-2.531l-.984.009zm1.841-1.262v4.112c.325.06.658.06.984 0v-4.112h-.984z"/><path fill="#fff" d="M971.804 145.323v4.112c.325.06.658.06.984 0v-4.112h-.984zm2.847 2.781v-.902h-.984v1.898c.41-.24.749-.584.984-.996z"/><path fill="#fff" d="M974.651 148.104v-.902h-.984v1.898c.41-.24.749-.584.984-.996z"/><g clip-path="url(#clip0)"><path fill="#9891C2" d="M1111.74 26.579l-1.5.75v13.167l1.5.746.01-.011V26.589l-.01-.01z"/><path fill="#DDDAEB" d="M1119.77 39.33l-8.03 1.912V26.579l8.03 1.87V39.33z"/><path fill="#9891C2" d="M1116.15 36.339l3.4.433.03-.049.01-5.584-.04-.044-3.4.428v4.816z"/><path fill="#9891C2" d="M1119.55 39.352l7.81 1.894.02-.02V26.592l-.02-.013-7.81 1.89v10.883z"/><path fill="#DDDAEB" d="M1122.96 36.339l-3.41.433v-5.677l3.41.428v4.816z"/><path fill="#7569BE" d="M1122.96 29.193l-3.41.621-3.4-.62 3.4-.892 3.41.891z"/><path fill="#fff" d="M1122.96 38.662l-3.41-.625-3.4.625 3.4.95 3.41-.95z"/><path fill="#9891C2" d="M1116.15 29.193l3.4-.843.03-.008v-5.646l-.03-.022-3.4 1.703v4.816z"/><path fill="#DDDAEB" d="M1122.96 29.193l-3.41-.843v-5.676l3.41 1.703v4.816z"/><path fill="#9891C2" d="M1119.55 45.181l-3.4-1.702v-4.817l3.4.843.05.056-.01 5.522-.04.098z"/><path fill="#DDDAEB" d="M1119.55 45.181l3.41-1.703v-4.816l-3.41.842v5.677zm7.81-18.602l1.51.75v13.167l-1.51.75V26.579z"/></g><path fill="#fff" fill-opacity=".6" d="M1116.35 129.564c.3-.306.46-.663.46-1.122v-5.865c0-.816-.67-1.479-1.48-1.479-.82 0-1.48.663-1.48 1.479v3.366l-2.86-1.683c-.71-.459-1.63-.255-2.04.459-.46.714-.25 1.632.46 2.04.05 0 .05.051.1.051l5.1 2.958c.51.357 1.28.255 1.74-.204zm-2.2 3.57c0-.561-.25-1.071-.76-1.326l-5.1-2.958c-.72-.459-1.63-.255-2.04.459-.46.714-.26 1.632.46 2.04.05 0 .05.051.1.051l2.91 1.683-2.91 1.683c-.71.408-1.02 1.275-.61 2.04.41.765 1.27 1.02 2.04.612h.1l5.1-2.958c.46-.255.71-.765.71-1.326zm2.66 4.641v5.917c0 .816-.67 1.478-1.48 1.478-.82 0-1.48-.663-1.48-1.478v-3.316l-2.91 1.684c-.71.458-1.63.255-2.04-.459-.46-.715-.25-1.633.46-2.041.05 0 .05-.051.1-.051l5.1-2.958a1.53 1.53 0 012.09.612c.1.153.21.408.16.612zm2.65.153v5.763c0 .816.66 1.479 1.48 1.479.81 0 1.48-.663 1.48-1.479v-3.315l2.85 1.632c.72.459 1.63.255 2.04-.459.46-.714.26-1.632-.46-2.04-.05 0-.05-.051-.1-.051l-5.1-2.958a1.503 1.503 0 00-2.04.561c-.1.255-.2.612-.15.867zm2.65-4.794c0-.561.25-1.071.76-1.326l5.1-2.958c.72-.459 1.64-.255 2.04.459.46.714.26 1.632-.45 2.04-.06 0-.06.051-.11.051l-2.9 1.683 2.9 1.683c.72.408 1.02 1.275.62 2.04-.41.714-1.28 1.02-2.04.612-.06 0-.06-.051-.11-.051l-5.1-2.958c-.46-.204-.76-.714-.71-1.275zm-2.65-4.794v-5.763c0-.816.66-1.479 1.48-1.479.81 0 1.48.663 1.48 1.479v3.315l2.85-1.632c.72-.459 1.63-.255 2.04.459.46.714.26 1.632-.46 2.04-.05 0-.05.051-.1.051l-5.1 2.958c-.71.408-1.63.153-2.04-.561-.1-.255-.2-.561-.15-.867zm-.72 2.142a.45.45 0 00-.35-.153h-.51c-.16 0-.26.051-.36.153l-2.04 2.04a.467.467 0 00-.15.357v.51c0 .153.05.255.15.357l2.04 2.04c.1.102.2.153.36.153h.51a.45.45 0 00.35-.153l2.04-2.04c.05-.102.11-.255.11-.357v-.51a.476.476 0 00-.16-.357l-1.99-2.04zm-.3 1.785a.406.406 0 00-.26-.102c-.1 0-.2.051-.25.102l-.61.612a.354.354 0 00-.11.255c0 .102.05.204.11.255l.61.612c.05.051.15.102.25.102s.21-.051.26-.102l.61-.612c.05-.051.1-.153.1-.255a.394.394 0 00-.1-.255l-.61-.612z"/><g clip-path="url(#clip1)"><path fill="#9891C2" d="M1029.43 96.78l8.85 2.106V82.322l-8.85 2.105V96.78z"/><path fill="#BBB6D7" d="M1038.28 82.322l1.68.842v14.88l-1.68.842V82.322zm-8.85 14.458l-8.84 2.106V82.322l8.84 2.105V96.78z"/><path fill="#9891C2" d="M1020.59 82.322l-1.69.842v14.88l1.69.842V82.322z"/><path fill="#BBB6D7" d="M1031.68 102.254l3.37-1.684V80.684L1031.68 79l-1.03 11.042 1.03 12.212z"/><path fill="#9891C2" d="M1027.19 102.254l-3.37-1.684V80.684l3.37-1.684 1.03 11.042-1.03 12.212z"/><path fill="#DDDAEB" d="M1027.19 79h4.53v23.207h-4.53V79z"/></g><path fill="#fff" d="M561.001 12.07l4.834 4.827h-4.834v-4.828zm0-1.208l6.042 6.035h4.834L561.001 6.035v4.827zm0-6.034l12.085 12.069h4.834L561.001 0v4.828zm6.042 0l12.085 12.069v-4.828L567.043 0v4.828zM573.086 0v4.828l6.042 6.034V6.035L573.086 0z"/><path fill="#fff" fill-rule="evenodd" d="M586.704 13.6a4.671 4.671 0 003.301 1.365v1.931h-10.022V6.888l6.721 6.712zm-2.854.4a.965.965 0 11-1.93 0 .965.965 0 011.93 0z" clip-rule="evenodd"/><path fill="#fff" d="M561 16.896h4.834L561 12.068v4.828zm6.044-10.861L561.001 0v4.828l6.043 6.034V6.035zm-6.044 0v4.827l6.042 6.034v-4.828L561 6.035zm12.085 0L567.043 0v4.827l6.042 6.035V6.034zm-6.043 10.86h4.834l-4.834-4.827v4.828z"/><path fill="#fff" d="M567.042 6.034v4.828l6.042 6.034V12.07l-6.042-6.035z"/><circle cx="342.5" cy="146.5" r="1.5" fill="#F7FFA8"/><circle cx="348.5" cy="146.5" r="1.5" fill="#F7FFA8"/><circle cx="354.5" cy="146.5" r="1.5" fill="#F7FFA8"/><circle cx="360.5" cy="146.5" r="1.5" fill="#F7FFA8"/><circle cx="366.5" cy="146.5" r="1.5" fill="#F7FFA8"/><circle cx="372.5" cy="146.5" r="1.5" fill="#F7FFA8"/><circle cx="378.5" cy="146.5" r="1.5" fill="#F7FFA8"/><circle cx="88.5" cy="33.5" r="1.5" fill="#F7FFA8"/><circle cx="94.5" cy="33.5" r="1.5" fill="#F7FFA8"/><circle cx="100.5" cy="33.5" r="1.5" fill="#F7FFA8"/><circle cx="106.5" cy="33.5" r="1.5" fill="#F7FFA8"/><circle cx="112.5" cy="33.5" r="1.5" fill="#F7FFA8"/><circle cx="118.5" cy="33.5" r="1.5" fill="#F7FFA8"/><circle cx="124.5" cy="33.5" r="1.5" fill="#F7FFA8"/><circle cx="166.5" cy="90.5" r="1.5" fill="#F7FFA8"/><circle cx="172.5" cy="90.5" r="1.5" fill="#F7FFA8"/><circle cx="178.5" cy="90.5" r="1.5" fill="#F7FFA8"/><circle cx="184.5" cy="90.5" r="1.5" fill="#F7FFA8"/><circle cx="190.5" cy="90.5" r="1.5" fill="#F7FFA8"/><circle cx="195.5" cy="94.5" r="1.5" fill="#F7FFA8"/><circle cx="196.5" cy="101.5" r="1.5" fill="#F7FFA8"/><circle cx="631.5" cy="146.5" r="1.5" fill="#C4C4FF"/><circle cx="637.5" cy="146.5" r="1.5" fill="#C4C4FF"/><circle cx="643.5" cy="146.5" r="1.5" fill="#C4C4FF"/><circle cx="649.5" cy="146.5" r="1.5" fill="#C4C4FF"/><circle cx="655.5" cy="146.5" r="1.5" fill="#C4C4FF"/><circle cx="661.5" cy="146.5" r="1.5" fill="#C4C4FF"/><circle cx="667.5" cy="146.5" r="1.5" fill="#C4C4FF"/><circle cx="922.5" cy="128.5" r="1.5" fill="#C4C3FF"/><circle cx="922.5" cy="122.5" r="1.5" fill="#C4C3FF"/><circle cx="923.5" cy="115.5" r="1.5" fill="#C4C3FF"/><circle cx="928.5" cy="111.5" r="1.5" fill="#C4C3FF"/><circle cx="935.5" cy="111.5" r="1.5" fill="#C4C3FF"/><circle cx="1070.5" cy="73.5" r="1.5" fill="#C4C3FF"/><circle cx="1070.5" cy="80.5" r="1.5" fill="#C4C3FF"/><circle cx="1070.5" cy="87.5" r="1.5" fill="#C4C3FF"/><circle cx="1070.5" cy="94.5" r="1.5" fill="#C4C3FF"/><circle cx="1070.5" cy="101.5" r="1.5" fill="#C4C3FF"/><circle cx="1070.5" cy="108.5" r="1.5" fill="#C4C3FF"/><circle cx="1070.5" cy="115.5" r="1.5" fill="#C4C3FF"/><circle cx="942.5" cy="111.5" r="1.5" fill="#C4C3FF"/><circle cx="949.5" cy="111.5" r="1.5" fill="#C4C3FF"/><rect width="99" height="26" x="526" y="33" fill="#FFAC6C" fill-opacity=".8" rx="6"/><rect width="99" height="26" x="526" y="65" fill="#FFAC6C" fill-opacity=".8" rx="6"/><rect width="99" height="26" x="526" y="97" fill="#FFAC6C" fill-opacity=".8" rx="6"/><circle cx="537.5" cy="46.5" r="3.111" stroke="#fff" stroke-width=".778"/><circle cx="537.5" cy="77.5" r="3.111" stroke="#fff" stroke-width=".778"/><circle cx="537.5" cy="109.5" r="3.111" stroke="#fff" stroke-width=".778"/><rect width="65" height="6" x="549.5" y="43.5" stroke="#fff" rx="3"/><rect width="65" height="6" x="549.5" y="74.5" stroke="#fff" rx="3"/><rect width="65" height="6" x="549.5" y="106.5" stroke="#fff" rx="3"/><defs><clipPath id="clip0"><path fill="#fff" d="M0 0h18.625v22.549H0z" transform="translate(1110.24 22.674)"/></clipPath><clipPath id="clip1"><path fill="#fff" d="M0 0h21.055v23.254H0z" transform="translate(1018.9 79)"/></clipPath></defs></svg>