<svg fill="none" viewBox="0 0 800 156"><path fill="#F9BD2B" d="M0 97.379l39.004 38.951H0V97.379zm0-9.738l48.755 48.689h39.004L0 48.69v38.95zm0-48.69l97.51 97.379h39.003L0 0v38.952zm48.755 0l97.509 97.379V97.379L48.754 0v38.952zM97.51 0v38.952l48.754 48.689V48.689L97.51 0z"/><path fill="#000" d="M234.023 120.75a37.692 37.692 0 01-26.632-11.016L153.16 55.576v80.754h80.863v-15.58z"/><path fill="#fff" d="M176.563 120.75c4.308 0 7.8-3.488 7.8-7.791 0-4.302-3.492-7.79-7.8-7.79-4.309 0-7.801 3.488-7.801 7.79 0 4.303 3.492 7.791 7.801 7.791z"/><path fill="#1D4AFF" d="M0 136.33h39.004L0 97.379v38.951zm48.755-87.64L0 0v38.952L48.755 87.64V48.689zM0 48.69v38.95l48.755 48.69V97.379L0 48.689z"/><path fill="#F54E00" d="M97.51 48.69L48.755 0v38.952L97.51 87.64V48.689zm-48.755 87.64h39.004L48.755 97.379v38.951zm0-87.64v38.95l48.755 48.69V97.379l-48.755-48.69z"/><path fill="#000" d="M391.942 82.406c0 17.45-7.817 29.159-34.207 29.159h-14.54v24.765h-15.883V53.363h30.423c26.39.008 34.207 11.593 34.207 29.043zm-15.883 0c0-10.128-3.175-14.397-15.515-14.397h-17.349v28.918h17.349c12.34 0 15.515-4.76 15.515-14.521zm23.824 22.451c0-19.156 10.625-32.579 30.423-32.579 19.791 0 30.423 13.423 30.423 32.579 0 19.157-10.632 32.696-30.423 32.696-19.791 0-30.423-13.547-30.423-32.696zm44.964 0c0-13.422-3.784-17.933-14.541-17.933-10.75 0-14.541 4.51-14.541 17.933s3.784 18.058 14.541 18.058c10.749-.008 14.541-4.643 14.541-18.058zm26.265 8.905c11.116 6.956 19.307 9.153 28.348 9.153 5.866 0 8.307-2.321 8.307-5.367 0-3.537-2.199-5.243-11.974-6.832-19.182-2.929-24.681-10.494-24.681-20.13 0-12.566 10.507-18.3 23.581-18.3 8.183 0 18.083 2.197 24.066 6.341v14.638c-8.917-4.393-18.566-6.34-25.29-6.34-4.4 0-6.475 1.588-6.475 4.393 0 3.054 1.591 4.76 11.366 6.832 18.324 3.778 25.29 7.689 25.29 19.764 0 12.441-11.116 19.639-25.415 19.639-9.533 0-18.207-1.83-27.123-7.806v-15.985zm84.295-25.623v33.553h16.733v14.638h-32.616V88.14h-9.774V73.5h9.774V50.933h15.883v22.568h16.733V88.14h-16.733zm100.91-34.768v82.967h-15.882v-32.945h-36.531v32.945h-15.882V53.371h15.882v35.384h36.531V53.37h15.882zm12.224 51.486c0-19.156 10.625-32.579 30.423-32.579 19.791 0 30.423 13.423 30.423 32.579 0 19.157-10.632 32.696-30.423 32.696-19.79 0-30.423-13.547-30.423-32.696zm44.956 0c0-13.422-3.783-17.933-14.54-17.933-10.75 0-14.541 4.51-14.541 17.933s3.783 18.058 14.541 18.058c10.757-.008 14.54-4.643 14.54-18.058zM800 73.501v82.352h-50.089v-14.638h34.207v-17.084c-3.667 4.027-9.042 7.322-17.841 7.322-18.324 0-27.123-13.788-27.123-29.649 0-15.737 8.799-29.526 27.123-29.526 8.799 0 14.174 3.296 17.841 7.93v-6.707H800zm-15.882 28.303c0-9.396-3.784-14.888-14.541-14.888-10.75 0-14.541 5.492-14.541 14.888 0 9.519 3.791 15.004 14.541 15.004 10.749 0 14.541-4.877 14.541-15.004z"/></svg>