<svg fill="none" viewBox="0 0 300 300"><path fill="#fff" d="M0 0h300v300H0z"/><path fill="#000" d="M33 179.379l39.004 38.951H33v-38.951zm0-9.738l48.755 48.689h39.004L33 130.689v38.952zm0-48.69l97.51 97.379h39.003L33 82v38.951zm48.755 0l97.509 97.379v-38.951L81.754 82v38.951zM130.51 82v38.951l48.754 48.69v-38.952L130.51 82zm136.513 120.75a37.692 37.692 0 01-26.632-11.016l-54.231-54.158v80.754h80.863v-15.58z"/><path fill="#fff" d="M209.563 202.75c4.308 0 7.8-3.488 7.8-7.791 0-4.302-3.492-7.79-7.8-7.79-4.309 0-7.801 3.488-7.801 7.79 0 4.303 3.492 7.791 7.801 7.791z"/><path fill="#000" d="M33 218.33h39.004L33 179.379v38.951zm48.755-87.641L33 82v38.951l48.755 48.69v-38.952zm-48.755 0v38.952l48.755 48.689v-38.951L33 130.689zm97.51 0L81.755 82v38.951l48.755 48.69v-38.952zM81.755 218.33h39.004l-39.004-38.951v38.951zm0-87.641v38.952l48.755 48.689v-38.951l-48.755-48.69z"/></svg>